<svg xmlns="http://www.w3.org/2000/svg" height="40" viewBox="0 -960 960 960" width="40"><path d="M317.051-397.29h325.898v-21.594q0-43.065-43.837-67.996Q555.275-511.811 480-511.811q-75.275 0-119.112 24.931-43.837 24.931-43.837 67.996v21.594ZM479.98-569.145q32.484 0 55.049-22.426 22.565-22.426 22.565-54.909 0-32.484-22.545-55.049-22.546-22.565-55.029-22.565-32.484 0-55.049 22.545-22.565 22.546-22.565 55.029 0 32.484 22.545 54.929 22.546 22.446 55.029 22.446ZM233.304-233.304l-95.362 95.362q-17.978 17.978-41.308 8.373-23.33-9.606-23.33-34.989v-646.384q0-31.06 22.38-53.486 22.38-22.427 53.374-22.427h661.884q31.06 0 53.486 22.427 22.427 22.426 22.427 53.486v501.884q0 30.994-22.427 53.374-22.426 22.38-53.486 22.38H233.304Z"/></svg>