<svg xmlns="http://www.w3.org/2000/svg" height="40" viewBox="0 -960 960 960" width="40"><path d="M706.66-206.587v86.225q0 8.577 6.313 14.51 6.313 5.932 14.731 5.932t14.303-6.332q5.885-6.333 5.885-14.776v-85.559h86.384q8.513 0 14.398-6.361 5.884-6.361 5.884-14.843 0-8.417-5.884-14.302-5.885-5.885-14.398-5.885h-86.384v-86.384q0-8.513-5.885-14.398t-14.303-5.885q-8.418 0-14.731 5.885-6.313 5.885-6.313 14.398v86.384h-86.385q-8.513 0-14.397 5.905-5.885 5.906-5.885 14.351t6.285 14.79q6.284 6.345 14.664 6.345h85.718Zm19.282 170.225q-79.333 0-135.5-56.42-56.166-56.421-56.166-134.913 0-79.797 56.16-136.232t135.84-56.435q78.999 0 135.499 56.435t56.5 136.232q0 78.492-56.5 134.912t-135.833 56.42ZM315.77-610.384h328.46q14.212 0 23.795-9.617 9.584-9.617 9.584-23.833 0-14.217-9.584-23.717-9.583-9.5-23.795-9.5H315.77q-14.212 0-23.795 9.617-9.584 9.617-9.584 23.833 0 14.217 9.584 23.717 9.583 9.5 23.795 9.5Zm178.861 497.797H189.058q-31.249 0-53.501-22.299-22.253-22.3-22.253-53.614v-581.884q0-31.249 22.253-53.501 22.252-22.253 53.501-22.253h581.884q31.314 0 53.614 22.253 22.299 22.252 22.299 53.501v315.523q-28.166-15.964-58.285-23.613-30.118-7.648-62.294-7.648-13 0-24.834 1.127-11.833 1.126-23.833 3.634v-6.667q-2.442-10.261-12.109-17.504-9.666-7.243-21.224-7.243H315.724q-14.166 0-23.749 9.617-9.584 9.617-9.584 23.833 0 14.216 9.584 23.716 9.583 9.5 23.749 9.5h277.351q-30.16 17.109-54.153 42.138-23.993 25.029-39.979 55.471H315.724q-14.166 0-23.749 9.617-9.584 9.617-9.584 23.833 0 14.217 9.584 23.717 9.583 9.5 23.749 9.5h158.161q-3.384 13.514-4.83 26.982-1.445 13.467-1.445 28.061 0 30.92 6.527 58.715 6.527 27.796 20.494 55.488Z"/></svg>