<svg xmlns="http://www.w3.org/2000/svg" height="40" viewBox="0 -960 960 960" width="40"><path d="M445.073-486.428v90.146q0 14.844 10.007 24.885 10.008 10.042 25.037 10.042t24.92-10.042q9.89-10.041 9.89-24.885v-90.146h90.146q14.844 0 24.885-10.075Q640-506.578 640-521.472q0-15.029-9.974-24.92-9.974-9.89-24.953-9.89h-90.146v-90.146q0-14.844-10.007-24.885-10.008-10.042-25.037-10.042t-24.92 9.974q-9.89 9.974-9.89 24.953v90.146h-90.146q-14.844 0-24.885 10.007Q320-536.267 320-521.318q0 14.95 9.974 24.92 9.974 9.97 24.953 9.97h90.146ZM149.058-193.304q-30.994 0-53.374-22.38-22.38-22.38-22.38-53.374v-501.884q0-31.06 22.38-53.486 22.38-22.427 53.374-22.427h661.884q31.06 0 53.486 22.427 22.427 22.426 22.427 53.486v501.884q0 30.994-22.427 53.374-22.426 22.38-53.486 22.38H637v42.123q0 16-11.028 26.938-11.028 10.939-27.008 10.939H361.036q-16 0-26.938-10.939-10.938-10.938-10.938-26.938v-42.123H149.058Zm0-75.754h661.884v-501.884H149.058v501.884Zm0 0v-501.884 501.884Z"/></svg>