<svg xmlns="http://www.w3.org/2000/svg" height="40" viewBox="0 -960 960 960" width="40"><path d="M402.58-397.051q-16.16 0-27.098-10.938-10.938-10.938-10.938-26.938v-172.269q0-31.326 22.176-53.54 22.177-22.213 53.736-22.213h286.472q66.471 0 113.264 46.713 46.794 46.714 46.794 113.185v88.124q0 16-11.028 26.938-11.028 10.938-27.008 10.938H402.58Zm34.927-213.333v140.768-140.768Zm412.109 342.58H110.384q-16 0-26.939-10.972-10.938-10.972-10.938-27.102 0-16.129 10.938-26.984 10.939-10.855 26.939-10.855h739.232q15.98 0 27.008 10.972 11.028 10.972 11.028 27.101 0 16.13-11.028 26.985t-27.008 10.855ZM198.354-397.051q-52.579 0-89.213-36.731-36.634-36.731-36.634-89.205 0-52.573 36.732-89.416 36.731-36.844 89.204-36.844 52.573 0 89.337 36.839 36.764 36.838 36.764 89.463 0 52.626-36.806 89.26-36.805 36.634-89.384 36.634Zm.052-72.565q22.667 0 38-15.333 15.334-15.333 15.334-38t-15.334-38.001q-15.333-15.333-38-15.333t-38.001 15.333q-15.333 15.334-15.333 38.001 0 22.667 15.333 38 15.334 15.333 38.001 15.333Zm239.101 0h376.754v-53.435q0-35.866-25.654-61.599-25.654-25.734-61.679-25.734H437.507v140.768Zm-239.101-53.333Z"/></svg>