<svg xmlns="http://www.w3.org/2000/svg" height="40" viewBox="0 -960 960 960" width="40"><path d="m384.319-473.326 59.036-162.16q10.355-29.333 39.036-42.26 28.682-12.928 58.015-2.573l269.522 97.696q62.565 22.623 90.228 82.395 27.663 59.772 5.279 123.003l-30.073 82.776q-5.891 15.167-19.605 21.844-13.713 6.678-28.88.786L406.79-425q-15.167-5.732-21.764-19.445-6.598-13.714-.707-28.881Zm398.116 322.529L87.615-404.282q-14.42-5.638-21.343-19.685-6.924-14.047-1.287-28.467 5.638-15.167 19.692-21.765 14.055-6.598 28.555-.866l695.486 252.979q15.166 5.637 21.503 19.311t1.207 28.681q-5.638 15.167-19.812 22.178-14.174 7.011-29.181 1.119Zm-523.71-335.804q-52.471 0-89.185-36.834-36.714-36.833-36.714-89.463 0-52.472 36.714-89.305 36.714-36.833 89.185-36.833 52.471 0 89.304 36.833 36.834 36.833 36.834 89.305 0 52.63-36.834 89.463-36.833 36.834-89.304 36.834Z"/></svg>