<svg xmlns="http://www.w3.org/2000/svg" height="40" viewBox="0 -960 960 960" width="40"><path d="M748.522-632.189q-26.971 27.131-60.689 40.37-33.717 13.239-68.927 13.239-35.37 0-68.913-13.192-33.544-13.192-60.515-40.417l-75-75q-15.616-15.616-34.779-23.051-19.163-7.434-39.699-7.434-20.536 0-39.699 7.434-19.163 7.435-34.779 23.051l-47 47q-11.355 11.515-26.642 11.054-15.286-.46-26.641-11.815-11.355-11.355-11.355-27.061 0-15.707 11.355-27.221l46.239-46q26.892-26.732 60.316-40.044 33.423-13.311 67.967-13.311 34.703 0 67.786 13.311 33.083 13.312 59.975 40.044l75 75q16.029 16.029 35.232 23.837 19.202 7.808 40.246 7.808t40.746-7.808q19.703-7.808 35.732-23.837l47-47q11.355-11.355 27.022-11.355 15.667 0 27.022 11.355 11.355 11.514 11.355 27.221 0 15.706-11.355 27.061l-47 46.761Zm0 216.711q-26.971 26.971-60.642 40.163-33.67 13.192-68.88 13.192-35.21 0-68.88-13.192-33.671-13.192-60.642-40.163l-75-75q-15.616-15.616-34.779-23.131-19.163-7.514-39.699-7.514-20.536 0-39.699 7.514-19.163 7.515-34.779 23.131l-47 47q-11.022 11.021-26.355 11.148-15.334.127-26.689-11.148-11.355-11.022-11.855-26.855-.5-15.834 10.855-27.189l47-47q26.892-26.891 60.316-40.123 33.423-13.232 67.967-13.232 34.703 0 67.786 13.232t59.975 40.123l75 75q16.029 16.029 35.565 23.837 19.536 7.808 40.58 7.808 21.043 0 40.413-7.808 19.369-7.808 35.398-23.837l47-47q11.355-11.355 27.022-11.355 15.667 0 27.022 11.355 11.355 11.355 11.355 27.142 0 15.786-11.355 27.141l-47 46.761Zm-1 216.551q-26.892 26.891-60.102 40.203-33.21 13.311-68.42 13.311t-68.88-13.311q-33.671-13.312-60.642-40.203l-76-75q-15.616-15.616-34.779-23.051-19.163-7.435-39.699-7.435-20.536 0-39.699 7.435-19.163 7.435-34.779 23.051l-47 47q-11.022 11.261-26.355 11.387-15.334.127-26.689-11.387-11.021-11.022-10.688-26.442.333-15.42 10.688-26.602l47-48q26.892-26.971 59.982-40.163 33.091-13.192 67.634-13.192 34.703 0 68.12 13.312 33.416 13.312 60.308 40.043l75 75q16.029 16.029 35.732 23.837 19.702 7.808 40.746 7.808t40.246-7.808q19.203-7.808 35.232-23.837l46.761-47q11.355-11.355 26.681-10.855t26.602 11.855q11.021 11.515 11.148 26.721.127 15.207-11.148 26.323l-47 47Z"/></svg>