<svg xmlns="http://www.w3.org/2000/svg" height="40" viewBox="0 -960 960 960" width="40"><path d="M111.181-73.304q-16 0-26.938-10.972-10.939-10.972-10.939-27.022 0-16.05 10.939-26.905 10.938-10.855 26.938-10.855h737.638q16 0 27.018 10.972t11.018 27.022q0 16.05-11.018 26.905t-27.018 10.855H111.181ZM460-262.123q-16 0-26.938-10.939Q422.123-284 422.123-300v-380q0-16 10.939-26.938Q444-717.877 460-717.877h40q16 0 26.938 10.939Q537.877-696 537.877-680v380q0 16-10.939 26.938Q516-262.123 500-262.123h-40ZM111.181-810.942q-16 0-26.938-10.972-10.939-10.972-10.939-27.022 0-16.05 10.939-26.984 10.938-10.935 26.938-10.935h737.638q16 0 27.018 11.052 11.018 11.051 11.018 27.101 0 16.05-11.018 26.905t-27.018 10.855H111.181Z"/></svg>