<svg xmlns="http://www.w3.org/2000/svg" height="40" viewBox="0 -960 960 960" width="40"><path d="m233.304-233.304-95.362 95.362q-17.978 17.978-41.308 8.224-23.33-9.755-23.33-34.84v-646.384q0-31.06 22.38-53.486 22.38-22.427 53.374-22.427h661.884q31.06 0 53.486 22.427 22.427 22.426 22.427 53.486v501.884q0 30.994-22.427 53.374-22.426 22.38-53.486 22.38H233.304Zm246.763-131.044q16.298 0 27.257-11.111 10.959-11.112 10.959-27.321 0-16.208-10.948-27.29-10.947-11.082-27.245-11.082-16.298 0-27.335 11.025-11.038 11.026-11.038 27.324 0 16.209 11.026 27.332 11.025 11.123 27.324 11.123Zm.05-146.724q15.029 0 24.92-9.974 9.89-9.974 9.89-24.984v-179.043q0-14.844-10.007-24.885Q494.912-760 479.883-760t-24.92 9.974q-9.89 9.974-9.89 24.984V-546q0 14.845 10.007 24.886 10.008 10.042 25.037 10.042Z"/></svg>