<svg xmlns="http://www.w3.org/2000/svg" height="40" viewBox="0 -960 960 960" width="40"><path d="M191.42-440.79q-16.159 0-27.098-10.972-10.938-10.972-10.938-27.022 0-16.049 10.938-26.904 10.939-10.855 27.098-10.855H463.5l214.399-214.399h-72.413q-16 0-26.939-10.972-10.938-10.972-10.938-27.022 0-16.05 10.938-26.984 10.939-10.935 26.939-10.935h163.333q16 0 27.018 11.018t11.018 27.018v163.333q0 16-11.052 26.939-11.051 10.938-27.101 10.938-16.05 0-26.905-10.938-10.855-10.939-10.855-26.939v-71.746L516.877-463.167q-10.355 10.355-24.421 16.366-14.066 6.011-29.369 6.011H191.42Zm414.066 287.486q-16 0-26.939-10.972-10.938-10.972-10.938-27.022 0-16.05 10.938-26.905 10.939-10.855 26.939-10.855h72.094L554.616-352.196q-11.355-11.222-11.355-26.741 0-15.52 11.355-26.875t26.985-11.475q15.63-.119 26.725 11.236l122.616 122.805v-71.268q0-16 10.972-26.939 10.972-10.938 27.022-10.938 16.05 0 26.984 10.938 10.935 10.939 10.935 26.939v163.333q0 16-11.018 26.938-11.018 10.939-27.018 10.939H605.486Z"/></svg>