<svg xmlns="http://www.w3.org/2000/svg" height="40" viewBox="0 -960 960 960" width="40"><path d="M189.058-113.304q-30.994 0-53.374-22.38-22.38-22.38-22.38-53.374v-581.884q0-31.06 22.38-53.486 22.38-22.427 53.374-22.427h187.384q4.848-36.747 34.391-63.707 29.544-26.96 69.167-26.96 39.623 0 69.167 26.96 29.543 26.96 34.391 63.707h187.384q31.06 0 53.486 22.427 22.427 22.426 22.427 53.486v581.884q0 30.994-22.427 53.374-22.426 22.38-53.486 22.38H189.058ZM479.985-809.74q13.812 0 22.711-8.883 8.898-8.884 8.898-22.696 0-13.812-8.883-22.711-8.884-8.898-22.696-8.898-13.812 0-22.711 8.884-8.898 8.883-8.898 22.695 0 13.812 8.883 22.711 8.884 8.898 22.696 8.898Zm1.329 399.726q58.816 0 99.548-40.712 40.732-40.713 40.732-99.529 0-58.817-40.712-99.429-40.713-40.612-99.529-40.612-58.817 0-99.549 40.593-40.731 40.593-40.731 99.409 0 58.817 40.712 99.548 40.713 40.732 99.529 40.732ZM189.058-189.058h581.884v-44.463q-58-53.964-131.304-86.055-73.305-32.09-159.638-32.09t-159.638 32.329q-73.304 32.33-131.304 86.294v43.985Z"/></svg>