<svg xmlns="http://www.w3.org/2000/svg" height="40" viewBox="0 -960 960 960" width="40"><path d="M297.63-250.195q-94.466 0-160.313-66.558Q71.471-383.31 71.471-477.84q0-94.53 65.245-161.135 65.245-66.605 159.581-66.605h429.855q67.315 0 114.687 47.824 47.371 47.823 47.371 115.05 0 67.228-47.371 114.981-47.372 47.754-114.687 47.754H334.558q-41.167 0-69.855-28.355-28.689-28.355-28.689-69.522 0-41.166 29.276-69.521 29.275-28.355 70.601-28.355H699.87q11.061 0 18.672 7.61 7.61 7.61 7.61 18.672 0 11.062-7.61 18.672-7.611 7.61-18.672 7.61H335.224q-18.989 0-32.697 13.115-13.709 13.114-13.709 32.21t13.376 32.078q13.375 12.982 32.364 12.982h391.661q45.972 0 77.62-32 31.647-32 31.647-78 0-45.841-31.667-77.921-31.667-32.08-77.667-32.08H295.019q-71.515 0-121.129 51.379-49.615 51.379-49.615 123.529 0 72.817 50.265 123.763 50.265 50.946 122.424 50.946H699.87q11.061 0 18.672 7.724 7.61 7.723 7.61 18.751 0 10.909-7.61 18.699-7.611 7.79-18.672 7.79H297.63Z"/></svg>