<svg xmlns="http://www.w3.org/2000/svg" height="40" viewBox="0 -960 960 960" width="40"><path d="M229.058-73.304q-30.994 0-53.374-22.38-22.38-22.38-22.38-53.374v-661.884q0-31.06 22.38-53.486 22.38-22.427 53.374-22.427h316.24q15.145 0 29.369 6.09 14.225 6.091 24.58 16.446l185.072 185.072q10.355 10.355 16.446 24.58 6.09 14.224 6.09 29.369v476.24q0 30.994-22.427 53.374-22.426 22.38-53.486 22.38H229.058Zm309.218-584.849q0 16.167 10.855 27.022 10.855 10.855 27.022 10.855h154.789L538.276-810.942v152.789ZM427.92-193.072q40.638 0 69.156-28.099 28.518-28.099 28.518-68.51v-187.936h84q14.334 0 23.834-9.5t9.5-23.833q0-14.333-9.5-23.833-9.5-9.5-23.834-9.5h-90.667q-14.333 0-23.833 9.5-9.5 9.5-9.5 23.771v145.215q-11.239-8.906-26.235-13.685-14.995-4.779-31.359-4.779-39.384 0-66.489 27.438-27.105 27.439-27.105 66.743 0 39.971 27.105 68.49 27.105 28.518 66.409 28.518Z"/></svg>