<svg xmlns="http://www.w3.org/2000/svg" height="40" viewBox="0 -960 960 960" width="40"><path d="M228.818-73.304q-31.254 0-53.384-22.25-22.13-22.249-22.13-53.264v-501.629q0-55.539 33.203-97.216 33.203-41.678 84.725-53.25v-47.906q0-15.98 10.938-27.008 10.938-11.028 26.938-11.028h39.124q16 0 26.938 11.028 10.938 11.028 10.938 27.008v41.964h187.704v-41.964q0-15.98 10.938-27.008 10.939-11.028 26.939-11.028h39.203q15.999 0 26.938 11.028 10.938 11.028 10.938 27.008v47.906q51.49 11.527 84.789 53.227 33.298 41.7 33.298 97.239v501.629q0 31.015-22.296 53.264-22.297 22.25-53.377 22.25H228.818ZM599.972-405.87v44.595q0 14.577 9.884 24.473 9.884 9.896 24.443 9.896 14.626 0 24.439-9.896t9.813-24.473v-76.015q0-16-10.938-26.938-10.939-10.939-26.939-10.939H326.057q-14.816 0-24.712 9.976-9.896 9.976-9.896 24.767 0 14.791 9.97 24.673 9.97 9.881 24.718 9.881h273.835Z"/></svg>