<svg xmlns="http://www.w3.org/2000/svg" height="40" viewBox="0 -960 960 960" width="40"><path d="M298.138-340.384h363.724V-308q0 12.834 8.585 21.225 8.584 8.391 21.318 8.391 12.735 0 21.152-8.571 8.416-8.57 8.416-21.284v-137.855q0-29.301-17.5-51.776-17.5-22.475-45.166-29.463v-70q0-31.744-21.936-53.68t-53.68-21.936H376.949q-31.744 0-53.68 21.936t-21.936 53.68v70q-27.666 7-45.166 29.5-17.5 22.5-17.5 51.833v138q0 12.834 8.584 21.225 8.584 8.391 21.318 8.391 12.735 0 21.152-8.571 8.417-8.57 8.417-21.284v-32.145Zm0-59.232V-446q0-14 9.333-23.333 9.333-9.334 23.333-9.334h298.392q14 0 23.333 9.334Q661.862-460 661.862-446v46.384H298.138Zm62.666-131.717v-82.384h238.392v82.384H360.804ZM149.058-73.304q-30.994 0-53.374-22.38-22.38-22.38-22.38-53.374v-661.884q0-31.06 22.38-53.486 22.38-22.427 53.374-22.427h661.884q31.06 0 53.486 22.427 22.427 22.426 22.427 53.486v661.884q0 30.994-22.427 53.374-22.426 22.38-53.486 22.38H149.058Zm0-75.754h661.884v-661.884H149.058v661.884Zm0 0v-661.884 661.884Z"/></svg>