<svg xmlns="http://www.w3.org/2000/svg" height="40" viewBox="0 -960 960 960" width="40"><path d="M233.333-117.051q-15.587 0-25.934-10.338-10.348-10.338-10.348-25.911 0-15.572 10.348-25.944 10.347-10.372 25.934-10.372h169.051v-90.101h-10q-82.145-1.116-138.739-58.693-56.594-57.577-56.594-139.59 0-59.648 32.721-108.752 32.721-49.103 87.004-71.726-2.747 19.166 1.55 37.84 4.297 18.674 14.638 34.978-30.324 14.343-46.836 43.791Q269.616-512.42 269.616-478q0 52.105 36.806 88.911 36.807 36.807 88.911 36.807h304.668q15.586 0 25.934 10.338t10.348 25.911q0 15.572-10.348 25.944t-25.934 10.372H514.949v90.101h211.718q15.587 0 25.934 10.339 10.348 10.338 10.348 25.91 0 15.573-10.348 25.945-10.347 10.371-25.934 10.371H233.333Zm326.964-392.92-1.333-4-10.094 3.333q-14.303 5.812-27.365-.126-13.063-5.939-18.715-20.468l-11.442-30.167q19.507-14.188 30.192-35.587 10.685-21.398 10.685-46.347 0-45.812-32.479-77-32.478-31.189-77.905-29.87l-8.124-22.609q-5.557-14.688.53-27.845 6.088-13.156 20.637-19.111l8.761-3.334-.667-2.666q-5.333-14.094 1.345-27.834 6.677-13.739 26.141-20.666 14.32-5.16 27.962.753 13.641 5.913 18.85 20.58l1.333 3.333 8-2.666q13.464-4.986 26.833 1.024 13.37 6.009 19.022 19.664l91.138 240.471q5.652 14.609-.739 28.051-6.392 13.442-20.86 18.935l-9.409 3.333 1.334 3.334q5.333 14.666-1.757 28.358-7.091 13.692-26.156 20.46-13.906 5.239-27.192-1.047t-18.526-20.286ZM424-584.885q-24.598 0-41.523-16.925-16.926-16.926-16.926-41.523 0-24.598 16.926-41.603 16.925-17.006 41.523-17.006 24.598 0 41.603 17.039 17.005 17.038 17.005 41.57 0 24.597-17.038 41.523-17.039 16.925-41.57 16.925Z"/></svg>