<svg xmlns="http://www.w3.org/2000/svg" height="40" viewBox="0 -960 960 960" width="40"><path d="M405.615-191.557 656.87-493.812H485.609l32.87-260.516-227.067 327.981h147.646l-33.443 234.79Zm-51.514-160.95H222.217q-22.784 0-33.642-20.225-10.858-20.224 2.736-39.282L526.356-895.11q9.224-12.797 23.395-17.456 14.17-4.66 28.554.993 14.384 5.492 22.315 18.776 7.931 13.284 5.851 28.267l-37.224 296.878h164.536q24.444 0 34.392 21.63 9.949 21.63-5.392 40.449L395.499-64.579q-9.852 11.734-24.168 15.178-14.317 3.445-27.686-2.787-13.211-6.072-20.656-18.873-7.446-12.8-5.366-27.923l36.478-253.523Zm119.587-120.029Z"/></svg>