<svg xmlns="http://www.w3.org/2000/svg" height="40" viewBox="0 -960 960 960" width="40"><path d="M644.544-771.413q57.985 58.435 89.789 133.808 31.805 75.373 31.805 157.38 0 82.544-31.805 157.033-31.804 74.489-89.789 133.083-53.652 54.689-122.33 85.033T371.819-74.732q-4.08 0-8.373-.333-4.293-.333-8.373-1.333-12.311-1.066-20.239-9.979-7.927-8.913-7.927-21.304 0-9.246 4.822-16.953 4.822-7.707 13.069-11.837 83.384-58.812 126.474-150.192 43.09-91.381 43.09-193.562 0-101.739-43.09-193.876-43.09-92.138-126.474-150.95-8.247-4.13-13.069-11.837-4.822-7.706-4.822-17.112 0-12.391 7.927-21.178 7.928-8.786 20.239-10.011 4.08-1 8.373-1.333 4.293-.333 8.373-.333 81.717 0 150.395 30.377 68.678 30.377 122.33 85.065Z"/></svg>