<svg xmlns="http://www.w3.org/2000/svg" height="40" viewBox="0 -960 960 960" width="40"><path d="M189.058-113.304q-30.994 0-53.374-22.38-22.38-22.38-22.38-53.374v-581.884q0-31.06 22.38-53.486 22.38-22.427 53.374-22.427h581.884q31.06 0 53.486 22.427 22.427 22.426 22.427 53.486v581.884q0 30.994-22.427 53.374-22.426 22.38-53.486 22.38H189.058Zm41.761-335.536 139.804-139.645q11.457-11.356 26.732-11.356 15.275 0 26.63 11.356l138.79 138.63 141.051-140.891q10.547-10.718 25.087-10.718 14.541 0 25.087 10.718l16.942 16.942v-197.138H189.058v280.421l41.761 41.681Zm-41.761 259.782h581.884V-465.92l-42.427-42.588L589.536-369.29q-11.601 11.515-26.876 11.515-15.276 0-26.645-11.515l-138.79-138.631-141.24 141.24q-10.869 10.797-25.362 10.797-14.493 0-25.29-10.797l-16.275-16.276v193.899Zm0 0V-465.92v75.753-380.775 581.884Z"/></svg>