<svg xmlns="http://www.w3.org/2000/svg" height="40" viewBox="0 -960 960 960" width="40"><path d="M394.927-493.804v-138.464q0-14.725-10.055-24.826t-24.989-10.101q-14.934 0-24.872 10.101t-9.938 24.826v150.659q0 7.413 2.692 14.149 2.692 6.735 8.583 12.627l106.739 106.739q10.225 10.224 24.409 10.184 14.185-.039 24.41-10.424 10.384-10.224 10.384-24.329t-10.384-24.489l-96.979-96.652Zm489.32 13.471q0-72.138-34.471-133.693-34.472-61.554-93.624-99.771-12.852-9.304-16.998-24.315-4.147-15.011 2.795-29.526 7.276-14.688 22.87-19.3 15.594-4.613 28.63 4.409 76.334 49.319 121.442 128.859Q960-574.13 960-480.667q0 93.624-45.109 173.417-45.108 79.793-121.442 129.112-13.036 9.022-28.511 4.41-15.474-4.613-22.749-19.46-6.942-14.355-2.916-29.627 4.027-15.271 16.879-24.88 59.152-38.058 93.624-99.359 34.471-61.301 34.471-133.279ZM360-120.667q-75 0-140.5-28.5t-114-77q-48.5-48.5-77-114T0-480.667q0-75 28.5-140.5t77-114q48.5-48.5 114-77t140.5-28.5q75 0 140.5 28.5t114 77q48.5 48.5 77 114t28.5 140.5q0 75-28.5 140.5t-77 114q-48.5 48.5-114 77t-140.5 28.5Z"/></svg>