<svg xmlns="http://www.w3.org/2000/svg" height="40" viewBox="0 -960 960 960" width="40"><path d="M480.019-113.304q-67.417 0-125.081-32.729-57.663-32.728-86.967-92.373h-79.678q-15.041 0-25.015-10.007-9.974-10.008-9.974-25.037t9.974-24.92q9.974-9.89 24.954-9.89h54.167q-5.488-23.177-5.625-46.798-.136-23.621-.136-47.348h-49.073q-14.98 0-24.954-10.007-9.973-10.008-9.973-25.037 0-15.03 9.973-24.92 9.974-9.891 24.954-9.891h49.073q0-25.282.47-50.126.47-24.843 6.624-49.353h-55.5q-14.98 0-24.954-10.007-9.974-10.008-9.974-25.037t9.974-24.92q9.974-9.89 24.954-9.89h83.283q13.362-27.131 34.728-48.156 21.366-21.026 47.939-35.678l-49.261-48.689q-9.754-9.753-9.635-23.708.12-13.955 10.212-24.147 9.53-9.622 23.628-9.622t23.867 9.742l67.5 67.367q28.906-10.783 59.152-11.022 30.246-.239 59.522 10.464l68.536-68.204q9.493-9.717 23.59-9.717t24.175 10.092q9.518 9.531 9.518 23.687t-9.558 23.757l-48.407 48.406q27.45 15.13 48.425 37.383Q676.42-667.387 691.607-640h81.785q14.246 0 24.188 9.93 9.942 9.93 9.942 24.317 0 14.388-9.942 24.201-9.942 9.812-24.188 9.812h-57.124q6.821 24.457 6.704 49.438-.117 24.981-.117 50.041h49.74q14.844 0 24.885 10.008 10.042 10.007 10.042 25.037 0 15.029-10.042 24.92-10.041 9.89-24.885 9.89h-49.74q0 23.95.047 47.419.047 23.47-5.38 46.727h55.073q14.844 0 24.885 10.007 10.042 10.007 10.042 25.037 0 15.029-10.042 24.92-10.041 9.89-24.885 9.89h-79.74q-28.956 60.152-86.941 92.627-57.985 32.475-125.895 32.475Zm-45.092-205.102h90.146q14.844 0 24.885-10.007Q560-338.421 560-353.45t-9.974-24.92q-9.974-9.89-24.953-9.89h-90.146q-14.844 0-24.885 10.007Q400-368.246 400-353.216q0 15.029 9.974 24.92 9.974 9.89 24.953 9.89Zm0-168.667h90.146q14.844 0 24.885-10.007Q560-507.088 560-522.117t-9.974-24.92q-9.974-9.89-24.953-9.89h-90.146q-14.844 0-24.885 10.007Q400-536.912 400-521.883t9.974 24.92q9.974 9.89 24.953 9.89Z"/></svg>