<svg xmlns="http://www.w3.org/2000/svg" height="40" viewBox="0 -960 960 960" width="40"><path d="M273.304-191.181v-48.79h-43.717q-16 0-26.939-10.938-10.938-10.939-10.938-26.939v-404.304q0-15.98 10.938-27.008 10.939-11.028 26.939-11.028h43.717v-48.631q0-15.98 10.972-27.008 10.972-11.028 27.022-11.028 16.05 0 26.905 11.028t10.855 27.008v48.631h43.717q16 0 26.938 11.028 10.939 11.028 10.939 27.008v404.304q0 16-10.939 26.939-10.938 10.938-26.938 10.938h-43.717v48.79q0 16-10.972 26.938-10.972 10.939-27.022 10.939-16.05 0-26.905-10.939-10.855-10.938-10.855-26.938Zm337.638 0v-168.79h-43.717q-16 0-26.939-10.938-10.938-10.939-10.938-26.939v-204.304q0-15.98 10.938-27.008 10.939-11.028 26.939-11.028h43.717v-128.631q0-15.98 10.972-27.008 10.972-11.028 27.008-11.028t26.984 11.028q10.949 11.028 10.949 27.008v128.631h43.558q15.98 0 27.008 11.028 11.028 11.028 11.028 27.008v204.304q0 16-11.028 26.939-11.028 10.938-27.008 10.938h-43.558v168.79q0 16-11.066 26.938-11.065 10.939-27.101 10.939t-26.891-10.939q-10.855-10.938-10.855-26.938Z"/></svg>