<svg xmlns="http://www.w3.org/2000/svg" height="40" viewBox="0 -960 960 960" width="40"><path d="M30.913-188.26v-374.689q0-15.98 10.972-27.008 10.972-11.028 27.021-11.028 16.05 0 26.905 11.028t10.855 27.008v41.964h92.508v-288.631q0-15.98 10.972-27.008 10.972-11.028 27.022-11.028 16.049 0 26.904 11.028t10.855 27.008v41.964h85.602v-41.964q0-15.98 10.972-27.008 10.972-11.028 27.022-11.028 16.049 0 26.904 11.028t10.855 27.008v41.964h87.436v-41.964q0-15.98 10.972-27.008 10.972-11.028 27.021-11.028 16.05 0 26.905 11.028t10.855 27.008v41.964h85.602v-41.964q0-15.98 10.972-27.008 10.972-11.028 27.007-11.028 16.036 0 26.985 11.028 10.948 11.028 10.948 27.008v288.631h92.349v-41.964q0-15.98 10.972-27.008 10.972-11.028 27.007-11.028 16.036 0 26.985 11.028 10.949 11.028 10.949 27.008v374.689q0 31.493-22.177 53.623t-53.736 22.13h-248.79q-16 0-26.939-10.938-10.938-10.939-10.938-26.939V-240q0-36.333-25.167-61.5T480-326.667q-36.333 0-61.5 25.167T393.333-240v89.616q0 16-10.938 26.939-10.939 10.938-26.939 10.938h-248.79q-31.493 0-53.623-22.13t-22.13-53.623Zm344.102-298.407h47.322q4.462 0 6.932-2.938 2.47-2.939 2.47-7.004v-70.058q0-14.166-9.617-23.75Q412.505-600 398.289-600q-14.216 0-23.716 9.583-9.5 9.584-9.5 23.75v70.047q0 4.156 2.938 7.055 2.938 2.898 7.004 2.898Zm163.188 0h47.323q4.461 0 6.931-2.938 2.47-2.939 2.47-7.004v-70.058q0-14.166-9.617-23.75Q575.694-600 561.477-600q-14.216 0-23.716 9.583-9.5 9.584-9.5 23.75v70.047q0 4.156 2.939 7.055 2.938 2.898 7.003 2.898Z"/></svg>