<svg xmlns="http://www.w3.org/2000/svg" height="40" viewBox="0 -960 960 960" width="40"><path d="M189.058-113.304q-30.994 0-53.374-22.38-22.38-22.38-22.38-53.374V-316.79q0-16 10.972-26.938 10.972-10.939 27.022-10.939 16.05 0 26.905 10.939 10.855 10.938 10.855 26.938v127.732H316.79q16 0 26.938 10.972 10.939 10.972 10.939 27.022 0 16.05-10.939 26.905-10.938 10.855-26.938 10.855H189.058Zm581.884 0H643.21q-16 0-26.938-10.972-10.939-10.972-10.939-27.022 0-16.05 10.939-26.905 10.938-10.855 26.938-10.855h127.732V-316.79q0-16 10.972-26.938 10.972-10.939 27.008-10.939t26.984 10.939q10.949 10.938 10.949 26.938v127.732q0 30.994-22.427 53.374-22.426 22.38-53.486 22.38ZM113.304-643.21v-127.732q0-31.06 22.38-53.486 22.38-22.427 53.374-22.427H316.79q16 0 26.938 11.066 10.939 11.065 10.939 27.101t-10.939 26.891q-10.938 10.855-26.938 10.855H189.058v127.732q0 16-10.972 26.938-10.972 10.939-27.022 10.939-16.05 0-26.905-10.939-10.855-10.938-10.855-26.938Zm657.638 0v-127.732H643.21q-16 0-26.938-10.972-10.939-10.972-10.939-27.008t10.939-26.984q10.938-10.949 26.938-10.949h127.732q31.06 0 53.486 22.427 22.427 22.426 22.427 53.486v127.732q0 16-11.066 26.938-11.065 10.939-27.101 10.939t-26.891-10.939q-10.855-10.938-10.855-26.938ZM479.987-326.232q-66.165 0-109.96-43.795-43.795-43.795-43.795-109.96 0-66.165 43.795-110.053 43.795-43.887 109.96-43.887 66.165 0 110.053 43.887 43.887 43.888 43.887 110.053 0 66.165-43.887 109.96-43.888 43.795-110.053 43.795Z"/></svg>