<svg xmlns="http://www.w3.org/2000/svg" height="40" viewBox="0 -960 960 960" width="40"><path d="M195.456-193.333V-349.92l-26.812 26.812q-10.463 10.463-25.046 10.384-14.584-.08-25.366-10.743-10.942-10.663-10.823-25.605.12-14.942 10.823-25.486l255.007-255.167q11.442-11.355 26.804-11.355 15.363 0 26.718 11.355l255.167 255.167q10.782 10.783 10.663 25.479-.12 14.695-11.381 26.05-10.605 10.718-25.331 10.718-14.726 0-25.284-10.718l-26.051-25.891v155.587q0 16.166-10.855 27.022-10.856 10.855-27.022 10.855H436.282v-156.522q0-15.539-10.371-25.911Q415.539-348.26 400-348.26q-15.539 0-25.911 10.371-10.371 10.372-10.371 25.911v156.522H233.333q-16.166 0-27.022-10.855-10.855-10.856-10.855-27.022Zm511.211-473.334h-39.631l-46.608 46.449q-5.537 5.653-12.232 5.399-6.696-.254-12.348-6.099-5.652-5.527-5.652-12.544 0-7.016 5.652-12.668l20.536-20.537h-36q-7.336 0-12.679-5.484t-5.343-12.742q0-7.259 5.415-12.658 5.414-5.398 12.846-5.398h35.761l-21.203-21.203q-5.652-5.696-5.652-12.725t5.652-12.681q5.652-5.652 13.022-5.652t13.13 5.652l45.703 45.703h39.631v-38.884l-46.449-46.45q-5.653-5.695-5.399-12.644.254-6.95 6.065-12.761 5.493-5.493 12.544-5.613 7.05-.119 12.702 5.533l20.537 21.203v-36q0-7.336 5.484-12.759 5.484-5.422 12.742-5.422 7.259 0 12.658 5.422 5.398 5.423 5.398 12.759v36l21.203-21.203q5.653-5.652 12.703-5.612 7.051.04 12.703 5.726 5.493 5.686 5.493 12.703 0 7.016-5.493 12.668l-46.609 46.45v39.79h39.79l46.45-46.609q5.695-5.493 12.644-5.572 6.95-.08 12.761 5.572 5.493 5.652 5.613 12.703.119 7.05-5.533 12.703l-21.203 21.203h36q7.336 0 12.759 5.432 5.422 5.433 5.422 12.624 0 7.19-5.422 12.708-5.423 5.518-12.759 5.518h-36l21.203 21.203q5.652 5.652 5.612 12.29-.04 6.638-5.726 12.29-5.686 5.652-12.703 5.652-7.016 0-12.668-5.652l-46.45-45.783h-39.79v39.631l46.609 46.608q5.493 5.537 5.572 12.232.08 6.696-5.606 12.348-5.686 5.652-12.703 5.652-7.016 0-12.669-5.652l-21.203-20.536v36q0 7.336-5.432 12.679-5.433 5.343-12.624 5.343-7.19 0-12.708-5.415-5.518-5.414-5.518-12.846v-35.761l-21.203 21.203q-5.696 5.652-12.312 5.319-6.616-.334-12.268-6.02-5.652-5.527-5.652-12.623 0-7.097 5.652-12.589l45.783-45.942v-39.631Z"/></svg>