<svg xmlns="http://www.w3.org/2000/svg" height="40" viewBox="0 -960 960 960" width="40"><path d="m418-450.334 56.667 56.667q9 9 23 9t23.666-9L646.667-519v40q0 13.667 9.5 23T680-446.667q13.667 0 23.5-9.5T713.333-480v-120q0-13.667-9.833-23.5t-23.5-9.833H559q-13.667 0-23 9.833t-9.333 23.5q0 14.333 9.5 23.833 9.5 9.5 23.833 9.5h39L498-464.666l-56.667-56.667q-9.666-10-23.666-10t-23 10l-122 122q-10 9.666-10 23.666t10 23q9.666 10 23.666 10t23-10L418-450.334Zm-228.942 337.03q-30.994 0-53.374-22.38-22.38-22.38-22.38-53.374v-581.884q0-31.06 22.38-53.486 22.38-22.427 53.374-22.427h581.884q31.06 0 53.486 22.427 22.427 22.426 22.427 53.486v581.884q0 30.994-22.427 53.374-22.426 22.38-53.486 22.38H189.058Z"/></svg>