<svg xmlns="http://www.w3.org/2000/svg" height="40" viewBox="0 -960 960 960" width="40"><path d="M385.82-113.304q-115.5 0-196.689-81.189-81.188-81.188-81.188-196.761 0-105.829 68.753-183.454 68.754-77.625 171.247-91.219v-72.979q0-61.241 43.246-104.595 43.247-43.354 104.61-43.354 33.636 0 63.506 14.478 29.87 14.478 50.761 40.688L817.769-569.21q10.985-6.602 23.637-4.783 12.653 1.819 21.066 12.391l62.594 78.674q10.116 12.515 7.99 27.824-2.125 15.309-14.454 25.459l-47 37q-12.514 10.116-27.721 8.583-15.206-1.533-25.322-14.047l-61.636-78.973q-8.292-10.513-7.904-23.252.388-12.739 9.482-22.058L550.559-784.87q-10.029-12.536-24.27-19.304-14.241-6.768-30.556-6.768-30.436 0-51.237 20.789-20.8 20.79-20.8 51.209v73.017q102.334 13.594 171.167 91.219t68.833 183.454q0 115.573-81.188 196.761-81.189 81.189-196.688 81.189Zm0-75.754q83.911 0 143.017-58.772 59.106-58.773 59.106-143.351 0-83.911-59.106-143.017-59.106-59.106-143.017-59.106-84.579 0-143.351 59.106-58.773 59.106-58.773 143.017 0 84.578 58.773 143.351 58.772 58.772 143.351 58.772Z"/></svg>