<svg xmlns="http://www.w3.org/2000/svg" height="40" viewBox="0 -960 960 960" width="40"><path d="m149.058-846.855 75.999 154.666h126.667l-76-154.666h86.001l76 154.666h126.666l-75.999-154.666h86l76 154.666h126.666l-75.999-154.666h109.883q31.06 0 53.486 22.427 22.427 22.426 22.427 53.486v581.884q0 30.994-22.427 53.374-22.426 22.38-53.486 22.38H149.058q-30.994 0-53.374-22.145-22.38-22.145-22.38-53.051v-582.442q0-31.06 22.38-53.486 22.38-22.427 53.374-22.427Zm174.928 604.464h312.028v-30.74q0-41.207-41.963-64.835Q552.087-361.594 480-361.594t-114.051 23.628q-41.963 23.628-41.963 64.835v30.74Zm156.055-172.537q30.829 0 52.437-21.55 21.609-21.55 21.609-52.478t-21.603-52.457q-21.603-21.529-52.478-21.529-30.876 0-52.404 21.564-21.529 21.564-21.529 52.384 0 31.008 21.569 52.537 21.57 21.529 52.399 21.529Z"/></svg>