<svg xmlns="http://www.w3.org/2000/svg" height="40" viewBox="0 -960 960 960" width="40"><path d="m178.666-481.239 165.812 165.812q11.102 11.261 10.649 26.641-.453 15.38-11.634 26.641-11.182 11.261-26.855 11.141-15.674-.119-26.776-11.141L97.195-454.573q-5.876-5.917-8.568-12.625-2.692-6.707-2.692-14.153 0-7.446 2.692-14.141t8.568-12.602l194.667-194.667q11.419-11.355 27.054-11.355 15.635 0 26.99 11.355 11.355 11.355 11.355 27.109 0 15.754-11.355 27.173l-167.24 167.24Zm602.827-.189L615.681-647.24q-11.261-11.26-10.808-26.641.453-15.38 11.634-26.641 11.182-11.261 26.855-11.141 15.674.119 26.776 11.141l192.667 192.428q5.876 5.918 8.568 12.625 2.692 6.707 2.692 14.153 0 7.446-2.692 14.141t-8.568 12.602L668.138-259.906q-11.37 11.355-26.569 10.975-15.199-.38-26.554-11.895-11.515-11.376-11.515-27.072t11.515-27.051l166.478-166.479Z"/></svg>