<svg xmlns="http://www.w3.org/2000/svg" height="40" viewBox="0 -960 960 960" width="40"><path d="M480-275.456q-73.526 0-128.958-45.5-55.433-45.5-70.549-114.5H117.848q-18.834 0-31.689-12.856Q73.304-461.167 73.304-480t12.855-31.688q12.855-12.856 31.689-12.856h162.645q15.116-69 70.549-114.5 55.432-45.5 128.958-45.5t128.958 45.5q55.433 45.5 70.709 114.5h162.485q18.814 0 31.758 12.856 12.945 12.855 12.945 31.688t-12.945 31.688q-12.944 12.856-31.758 12.856H679.667q-15.276 69-70.709 114.5-55.432 45.5-128.958 45.5Zm-.213-75.754q53.713 0 91.358-37.551 37.645-37.552 37.645-91.026 0-53.713-37.465-91.358-37.464-37.645-91.224-37.645-53.521 0-91.206 37.465-37.685 37.464-37.685 91.224 0 53.521 37.551 91.206 37.552 37.685 91.026 37.685Z"/></svg>