<svg xmlns="http://www.w3.org/2000/svg" height="40" viewBox="0 -960 960 960" width="40"><path d="M560.442-282.749q-12.978-5.425-18.525-17.468-5.547-12.044-.547-25.261 7.507-19.319 12.185-38.468 4.677-19.15 8.054-38.648l56.413 56.333q-2.747 11.051-6.16 22.203-3.413 11.152-8.065 22.71-5 12.694-17.754 18.394-12.753 5.7-25.601.205ZM430.036-337q-13-4.667-18.5-16.833-5.5-12.167-1.166-25.833 7.666-24.334 11.166-49.667 3.5-25.334 3.5-50.667 0-16.458-1.159-32.685-1.159-16.228-4.065-31.945l71.891 71.891q-.254 30.05-4.754 59.029-4.5 28.978-13.913 57.377-4.333 12.333-17 18.5-12.666 6.166-26 .833Zm-133.145-55.667q-13.174-5.094-19.134-16.761-5.96-11.666-1.626-25.586 3.333-10.747 5.101-22.08 1.769-11.333 1.769-22.906 0-11.573-1.102-22.573t-4.435-21.905q-4.333-14.412 1.253-26.347 5.587-11.936 17.508-16.269 13.239-5.239 25.691.254 12.453 5.492 16.453 18.435 5.334 16.613 8.334 33.725 3 17.111 3 34.68t-3 34.307q-3 16.738-8.334 33.313-4 13.061-16.159 18.887-12.159 5.826-25.319.826Zm334.718-39.485-65.942-65.115q-.667-35.341-6.388-69.635-5.721-34.294-17.909-67.113-5-13.159.833-25.191 5.833-12.033 18.073-17.366 13.427-5.761 25.99.127 12.563 5.888 17.531 18.3 15.333 42.826 22.62 87.43 7.286 44.605 7.286 90.715 0 11.739-.413 23.924-.413 12.185-1.681 23.924ZM480.047-73.304q-85.815 0-160.088-31.372-74.272-31.371-129.092-86.191-54.82-54.82-86.191-129.092-31.372-74.273-31.372-160.088 0-67.107 19.32-126.744 19.318-59.637 54.702-109.767l-96.66-97.74q-10.478-10.443-10.478-24.885 0-14.443 10.504-24.854 10.436-10.478 24.87-10.478 14.432 0 24.843 10.478l756.487 756.486q10.478 10.443 10.478 24.886 0 14.442-10.504 24.853-10.436 10.478-24.869 10.478t-24.844-10.478l-90.595-89.514q-50.13 35.384-109.767 54.703-59.637 19.319-126.744 19.319ZM480-149.058q50.881 0 96.604-13.934 45.723-13.935 85.005-39.283L202.275-661.848q-25.348 39.282-39.283 84.988-13.934 45.706-13.934 96.86 0 140.242 95.468 235.592 95.468 95.35 235.474 95.35Zm335.319-98.384-55.428-55.028q24.274-38.311 37.663-83.084 13.388-44.772 13.388-94.446 0-140.242-95.468-235.592-95.468-95.35-235.474-95.35-49.674 0-94.446 13.388-44.773 13.389-83.084 37.663l-55.028-55.428q49.49-34.036 108.171-52.786 58.681-18.75 124.357-18.75 85.321 0 159.526 31.686 74.204 31.687 129.095 86.578 54.891 54.891 86.578 129.095 31.686 74.205 31.686 159.526 0 65.676-18.75 124.357t-52.786 108.171ZM531.427-531.427Zm-99.318 99.318Z"/></svg>