<svg xmlns="http://www.w3.org/2000/svg" height="40" viewBox="0 -960 960 960" width="40"><path d="M598.891-523.225h192.022q16 0 26.938-10.938 10.939-10.939 10.939-27.098v-112.601q0-16-10.939-26.939-10.938-10.938-26.938-10.938H598.891q-16 0-26.938 10.938-10.938 10.939-10.938 26.939v112.601q0 16.159 10.938 27.098 10.938 10.938 26.938 10.938Zm96.051-81.253 76.845-56.905q7.566-5.95 16.415-1.45t8.849 14.5q0 1-6.334 13.333l-72.811 54.181q-10.275 7.384-22.332 7.384-12.056 0-22.262-7.384l-74.19-54.224q-1.622-1.624-6.289-13.29 0-10 9.08-14.5t16.92 1.5l76.109 56.855ZM75.912-117.051q-31.058 0-53.485-22.38T0-192.804v-574.392q0-30.993 22.427-53.373t53.486-22.38h808.334q30.826 0 53.289 22.38Q960-798.189 960-767.196v574.392q0 30.993-22.464 53.373-22.463 22.38-53.289 22.38H75.913Zm536.225-72.565h275.059v-580.768H72.804v580.768h6q43.333-70.84 113.667-111.753 70.333-40.913 152.999-40.913 82.826 0 153.08 40.913 70.253 40.913 113.587 111.753ZM344.913-401.594q50.823 0 86.089-35.359t35.266-86.076q0-50.717-35.261-86.116-35.26-35.399-86.076-35.399-50.816 0-86.214 35.386-35.399 35.385-35.399 86.209 0 50.637 35.386 85.996 35.385 35.359 86.209 35.359ZM169.789-189.616h350.167q-34.207-37.868-79.773-58.985-45.567-21.116-95.27-21.116-49.703 0-95.138 21.112-45.435 21.113-79.986 58.989ZM344.913-471.21q-21.956 0-36.968-14.943-15.011-14.943-15.011-36.876 0-22.035 15.01-36.967 15.011-14.932 36.964-14.932 21.954 0 36.849 14.943 14.895 14.942 14.895 37.031 0 21.954-14.943 36.849-14.943 14.895-36.796 14.895ZM480-480Z"/></svg>