<svg xmlns="http://www.w3.org/2000/svg" height="40" viewBox="0 -960 960 960" width="40"><path d="m846.855-216.369-75.913-75.753v-478.82h-65.311v65.311q0 16-10.938 26.938-10.939 10.938-26.938 10.938H394.564l-178.862-179.1h156.197q9.449-35.399 39.71-58.138Q441.87-927.732 480-927.732q38.37 0 68.558 22.739 30.188 22.739 40.036 58.138h182.348q32.233 0 54.073 21.84 21.84 21.84 21.84 54.073v554.573ZM480-773.892q17 0 28.5-11.579 11.5-11.58 11.5-28.421 0-17-11.5-28.5t-28.5-11.5q-17 0-28.5 11.5t-11.5 28.5q0 16.841 11.5 28.421 11.5 11.579 28.5 11.579Zm195.37 584.834L189.058-675.37v486.312H675.37Zm-486.312 75.754q-32.074 0-53.914-21.76-21.84-21.761-21.84-53.994V-751.283L74.92-789.508q-10.319-10.395-10.398-24.828-.08-14.433 10.458-24.911 10.539-10.319 24.87-10.319 14.331 0 24.809 10.319l713.87 714.03q10.319 10.362 10.399 24.311.08 13.95-10.459 24.268-10.538 10.479-24.79 10.479-14.251 0-24.729-10.479l-37.667-36.666H189.058Z"/></svg>