<svg xmlns="http://www.w3.org/2000/svg" height="40" viewBox="0 -960 960 960" width="40"><path d="M662.949-119.174q-74.115 0-125.996-51.887-51.88-51.887-51.88-126.012 0-74.124 51.92-125.989 51.92-51.865 126.091-51.865 74.171 0 126.036 51.88 51.865 51.881 51.865 125.996 0 25.841-6.514 50.855-6.515 25.015-21.703 45.682l90.276 90.275q11.261 11.261 11.261 26.602 0 15.34-11.261 26.521-11.261 11.181-26.641 11.181-15.381 0-26.642-11.26l-90.275-90.037q-21.334 15.188-46.015 21.623-24.681 6.435-50.522 6.435Zm-.151-75.753q42.905 0 72.59-29.572 29.685-29.572 29.685-72.401 0-42.828-29.572-72.551T663.1-399.174q-42.904 0-72.509 29.572-29.606 29.572-29.606 72.4t29.454 72.552q29.454 29.723 72.359 29.723Zm-473.74 81.623q-32.082 0-53.918-21.76-21.836-21.761-21.836-53.994v-581.884q0-32.233 21.76-54.073 21.761-21.84 53.994-21.84h182.841q9.449-35.399 39.699-58.138 30.251-22.739 68.402-22.739 38.37 0 68.558 22.739 30.188 22.739 40.036 58.138h182.348q32.233 0 54.073 21.84 21.84 21.84 21.84 54.073v191.472q0 16-11.066 26.938-11.065 10.938-27.101 10.938t-26.891-10.938q-10.855-10.938-10.855-26.938v-191.472h-65.311v65.311q0 16-10.938 26.938-10.939 10.938-26.938 10.938h-375.51q-15.999 0-26.938-10.938-10.938-10.938-10.938-26.938v-65.311h-65.311v581.884H380.53q16 0 26.938 10.972 10.938 10.972 10.938 27.022 0 16.05-10.938 26.905t-26.938 10.855H189.058ZM480-773.892q17 0 28.5-11.579 11.5-11.58 11.5-28.421 0-17-11.5-28.5t-28.5-11.5q-17 0-28.5 11.5t-11.5 28.5q0 16.841 11.5 28.421 11.5 11.579 28.5 11.579Z"/></svg>