<svg xmlns="http://www.w3.org/2000/svg" height="40" viewBox="0 -960 960 960" width="40"><path d="M354.319-238.406q-31.06 0-53.486-22.427-22.427-22.426-22.427-53.486v-496.623q0-31.06 22.427-53.486 22.426-22.427 53.486-22.427h376.623q31.06 0 53.486 22.427 22.427 22.426 22.427 53.486v496.623q0 31.06-22.427 53.486-22.426 22.427-53.486 22.427H354.319ZM151.064-707.444q-16.05 0-26.905-10.972t-10.855-27.101q0-16.13 10.972-26.985t27.022-10.855q16.05 0 26.905 10.972t10.855 27.102q0 16.129-10.972 26.984t-27.022 10.855Zm0 158.435q-16.05 0-26.905-10.972t-10.855-27.021q0-16.05 10.972-26.905t27.022-10.855q16.05 0 26.905 10.972t10.855 27.022q0 16.049-10.972 26.904t-27.022 10.855Zm0 158.675q-16.05 0-26.905-11.012t-10.855-27.141q0-16.13 10.972-26.985t27.022-10.855q16.05 0 27.024 10.972 10.975 10.972 10.975 27.102 0 16.129-11.092 27.024-11.091 10.895-27.141 10.895Zm0 158.594q-16.05 0-26.905-10.972-10.855-10.971-10.855-27.007t10.972-26.985q10.972-10.948 27.022-10.948 16.05 0 26.905 11.065 10.855 11.066 10.855 27.102 0 16.035-10.972 26.89t-27.022 10.855Zm0 158.436q-16.05 0-26.905-10.972t-10.855-27.022q0-16.05 10.972-26.905t27.022-10.855q16.05 0 26.905 10.972t10.855 27.022q0 16.05-10.972 26.905t-27.022 10.855Zm158.421 0q-16.035 0-26.89-10.972t-10.855-27.022q0-16.05 10.971-26.905 10.973-10.855 27.008-10.855 16.036 0 26.985 10.972 10.948 10.972 10.948 27.022 0 16.05-11.065 26.905-11.066 10.855-27.102 10.855Zm158.609 0q-16.05 0-26.905-10.972t-10.855-27.022q0-16.05 10.972-26.905t27.022-10.855q16.05 0 26.905 10.972t10.855 27.022q0 16.05-10.972 26.905t-27.022 10.855Zm158.421 0q-16.035 0-26.89-10.972-10.856-10.972-10.856-27.022 0-16.05 10.972-26.905 10.973-10.855 27.008-10.855 16.036 0 26.985 10.972 10.948 10.972 10.948 27.022 0 16.05-11.065 26.905-11.066 10.855-27.102 10.855Z"/></svg>