<svg xmlns="http://www.w3.org/2000/svg" height="40" viewBox="0 -960 960 960" width="40"><path d="M149.616-110.913q-31.326 0-53.54-22.13t-22.214-53.623v-580.53q0-31.326 22.214-53.54 22.214-22.213 53.54-22.213h254.102q31.326 0 53.539 22.213 22.214 22.214 22.214 53.54v87.58h330.913q31.326 0 53.54 22.214t22.214 53.539v417.197q0 31.493-22.214 53.623t-53.54 22.13H149.616Zm-2.95-72.804h260.001v-96.667H146.666v96.667Zm0-163.333h260.001v-96.668H146.666v96.668Zm0-163.334h260.001v-96.667H146.666v96.667Zm0-163.333h260.001v-96.667H146.666v96.667Zm326.667 490h340.001v-423.334H473.333v423.334Zm113.333-260.001q-14.166 0-23.75-9.616-9.583-9.617-9.583-23.834 0-14.216 9.583-23.716 9.584-9.5 23.75-9.5h96.667q14.167 0 23.75 9.617 9.584 9.617 9.584 23.833 0 14.217-9.584 23.717-9.583 9.499-23.75 9.499h-96.667Zm0 163.334q-14.166 0-23.75-9.617-9.583-9.617-9.583-23.833 0-14.217 9.583-23.716 9.584-9.5 23.75-9.5h96.667q14.167 0 23.75 9.617 9.584 9.616 9.584 23.833 0 14.216-9.584 23.716-9.583 9.5-23.75 9.5h-96.667Z"/></svg>