<svg xmlns="http://www.w3.org/2000/svg" height="40" viewBox="0 -960 960 960" width="40"><path d="m873.855-188.811-62.913-62.753v-243.661H567.043L427.71-634.558h383.232v-96.384H331.564l-75.753-75.913h555.131q31.06 0 53.486 22.427 22.427 22.426 22.427 53.486v501.974q0 11.294-3.413 21.447-3.413 10.152-9.587 18.71Zm-478.746-280.87Zm176.224-21.652Zm-202.927-3.892H149.058v266.167h485.754L368.406-495.225ZM149.058-153.304q-30.994 0-53.374-22.38-22.38-22.38-22.38-53.374v-501.884q0-29.344 20.67-51.313 20.671-21.97 49.504-23.883h13.334l75.195 75.196h-82.949v96.384h80.015l-179.74-179.74q-10.319-10.363-10.279-24.812.04-14.448 10.579-24.927 10.41-10.318 24.726-10.318 14.315 0 24.793 10.318l744.312 744.153q10.318 10.521 10.318 24.39 0 13.87-10.437 24.349-10.438 10.478-24.79 10.478-14.352 0-24.83-10.461l-83-82.176H149.058Z"/></svg>