<svg xmlns="http://www.w3.org/2000/svg" height="40" viewBox="0 -960 960 960" width="40"><path d="M319.761-285.073h80.478q14.243 0 24.465-10.223 10.223-10.222 10.223-24.465v-80.478q0-14.243-10.223-24.465-10.222-10.223-24.465-10.223h-80.478q-14.243 0-24.465 10.223-10.223 10.222-10.223 24.465v80.478q0 14.243 10.223 24.465 10.222 10.223 24.465 10.223Zm240 0h80.478q14.243 0 24.465-10.223 10.223-10.222 10.223-24.465v-80.478q0-14.243-10.223-24.465-10.222-10.223-24.465-10.223h-80.478q-14.243 0-24.465 10.223-10.223 10.222-10.223 24.465v80.478q0 14.243 10.223 24.465 10.222 10.223 24.465 10.223Zm-240-240h80.478q14.909 0 24.799-9.889 9.889-9.89 9.889-24.799v-80.478q0-14.909-9.889-24.799-9.89-9.889-24.799-9.889h-80.478q-14.909 0-24.799 9.889-9.889 9.89-9.889 24.799v80.478q0 14.909 9.889 24.799 9.89 9.889 24.799 9.889Zm240 0h80.478q14.909 0 24.799-9.889 9.889-9.89 9.889-24.799v-80.478q0-14.909-9.889-24.799-9.89-9.889-24.799-9.889h-80.478q-14.909 0-24.799 9.889-9.889 9.89-9.889 24.799v80.478q0 14.909 9.889 24.799 9.89 9.889 24.799 9.889ZM189.058-113.304q-30.994 0-53.374-22.38-22.38-22.38-22.38-53.374v-581.884q0-31.06 22.38-53.486 22.38-22.427 53.374-22.427h581.884q31.06 0 53.486 22.427 22.427 22.426 22.427 53.486v581.884q0 30.994-22.427 53.374-22.426 22.38-53.486 22.38H189.058Z"/></svg>