<svg xmlns="http://www.w3.org/2000/svg" height="40" viewBox="0 -960 960 960" width="40"><path d="M750.182-198.935H519.71q-15.502 0-26.171-10.703-10.67-10.703-10.67-26.254 0-15.731 10.67-26.307 10.669-10.576 26.171-10.576h230.472l-40.435-40.942q-10.783-11.037-10.91-26.011-.127-14.975 10.91-26.011 11.036-11.036 25.992-11.036 14.957 0 25.935 11.036l103.203 103.203q11.355 11.456 11.355 26.732 0 15.275-11.355 26.63L761.674-105.971q-10.978 11.196-25.935 11.076-14.956-.12-25.992-11.156-11.037-11.036-10.91-26.224.127-15.189 10.91-26.225l40.435-40.435ZM143.21-440.797h-41.276q-16 0-26.938-10.938-10.938-10.939-10.938-26.939v-41.275q0-16 10.938-26.938 10.938-10.939 26.938-10.939h41.276q16 0 26.938 10.939 10.938 10.938 10.938 26.938v41.275q0 16-10.938 26.939-10.938 10.938-26.938 10.938Zm240.814 0q-59.305 0-101.266-41.934-41.961-41.934-41.961-101.255v-160q0-59.321 41.922-101.254 41.923-41.934 101.228-41.934 59.304 0 101.266 41.934 41.961 41.933 41.961 101.254v160q0 59.321-41.923 101.255-41.922 41.934-101.227 41.934Zm366.377 0q-59.305 0-101.266-41.934-41.961-41.934-41.961-101.255v-160q0-59.321 41.922-101.254 41.923-41.934 101.227-41.934 59.305 0 101.266 41.934 41.962 41.933 41.962 101.254v160q0 59.321-41.923 101.255-41.922 41.934-101.227 41.934Zm-366.526-73.84q28.849 0 49.154-20.227 20.304-20.227 20.304-49.122v-160q0-28.895-20.194-49.121-20.195-20.227-49.044-20.227-28.849 0-49.154 20.227-20.304 20.226-20.304 49.121v160q0 28.895 20.195 49.122 20.194 20.227 49.043 20.227Zm366.377 0q28.849 0 49.154-20.227 20.304-20.227 20.304-49.122v-160q0-28.895-20.194-49.121-20.195-20.227-49.044-20.227-28.849 0-49.154 20.227-20.304 20.226-20.304 49.121v160q0 28.895 20.194 49.122 20.195 20.227 49.044 20.227Z"/></svg>