<svg xmlns="http://www.w3.org/2000/svg" height="40" viewBox="0 -960 960 960" width="40"><path d="M259.557-480 365.5-374.137q10.478 10.478 10.098 24.529-.381 14.05-10.265 24.608-10.478 10.559-24.826 10.859-14.348.3-24.826-10.178l-128.92-128.92q-11.355-11.5-11.355-26.833 0-15.334 11.355-26.689l128.92-128.92q10.523-10.478 24.932-10.098 14.409.38 24.887 10.859 9.884 10.478 10.181 24.529.297 14.05-10.181 24.528L259.557-480Zm-65.695 207.739h75.754v62.646h420.768v-62.646h75.754v162.645q0 30.994-22.38 53.374-22.38 22.38-53.374 22.38H269.616q-30.994 0-53.374-22.38-22.38-22.38-22.38-53.374v-162.645Zm75.754-423.479h-75.754v-154.644q0-30.994 22.38-53.374 22.38-22.38 53.374-22.38h420.768q30.994 0 53.374 22.38 22.38 22.38 22.38 53.374v154.644h-75.754v-54.645H269.616v54.645Zm0 552.791v33.333h420.768v-33.333H269.616Zm0-674.102h420.768v-33.333H269.616v33.333ZM700.443-480 594.5-585.863q-10.478-10.478-10.098-24.528.381-14.051 10.265-24.609 10.478-10.559 24.826-10.859 14.348-.3 24.826 10.178l128.92 128.92q11.355 11.5 11.355 26.833 0 15.334-11.355 26.689l-128.92 128.92q-10.523 10.478-24.932 10.098-14.409-.38-24.887-10.859-9.884-10.478-10.181-24.528-.297-14.051 10.181-24.529L700.443-480ZM269.616-817.051v-33.333 33.333Zm0 674.102v33.333-33.333Z"/></svg>