<svg xmlns="http://www.w3.org/2000/svg" height="40" viewBox="0 -960 960 960" width="40"><path d="M480.134-34.181q-31.596 0-54.006-22.472t-22.41-54.029q0-31.589 22.446-54.026 22.447-22.437 53.968-22.437 31.716 0 53.933 22.488 22.217 22.487 22.217 54.065t-22.276 53.994Q511.73-34.18 480.134-34.18ZM232.413-773.015q-31.578 0-53.988-22.464-22.411-22.463-22.411-54.111 0-31.648 22.447-53.938 22.447-22.291 53.968-22.291 31.62 0 54.005 22.35 22.384 22.349 22.384 53.997t-22.413 54.052q-22.414 22.405-53.992 22.405Zm0 245.834q-31.578 0-53.988-22.504-22.411-22.504-22.411-54.105 0-31.601 22.447-53.898 22.447-22.297 53.968-22.297 31.62 0 54.005 22.316 22.384 22.317 22.384 53.918t-22.413 54.085q-22.414 22.485-53.992 22.485Zm0 246.5q-31.578 0-53.988-22.447-22.411-22.447-22.411-53.968 0-31.62 22.447-54.005 22.447-22.384 53.968-22.384 31.62 0 54.005 22.414 22.384 22.414 22.384 53.991 0 31.578-22.413 53.989-22.414 22.41-53.992 22.41Zm495.338-492.334q-31.601 0-54.085-22.464-22.484-22.463-22.484-54.111 0-31.648 22.503-53.938 22.504-22.291 54.105-22.291 31.601 0 53.899 22.35 22.297 22.349 22.297 53.997t-22.317 54.052q-22.317 22.405-53.918 22.405ZM480.134-280.681q-31.596 0-54.006-22.447t-22.41-53.968q0-31.62 22.446-54.005 22.447-22.384 53.968-22.384 31.716 0 53.933 22.414t22.217 53.991q0 31.578-22.276 53.989-22.276 22.41-53.872 22.41Zm247.617 0q-31.601 0-54.085-22.447t-22.484-53.968q0-31.62 22.503-54.005 22.504-22.384 54.105-22.384 31.601 0 53.899 21.896 22.297 21.897 22.297 53.528 0 31.5-22.317 54.44-22.317 22.94-53.918 22.94Zm0-246.5q-31.601 0-54.085-22.504t-22.484-54.105q0-31.601 22.503-53.898 22.504-22.297 54.105-22.297 31.601 0 53.899 22.316 22.297 22.317 22.297 53.918t-22.317 54.085q-22.317 22.485-53.918 22.485Zm-247.617 0q-31.596 0-54.006-22.504t-22.41-54.105q0-31.601 22.446-53.898 22.447-22.297 53.968-22.297 31.716 0 53.933 22.316 22.217 22.317 22.217 53.918t-22.276 54.085q-22.276 22.485-53.872 22.485Zm0-245.834q-31.596 0-54.006-22.464-22.41-22.463-22.41-54.111 0-31.648 22.446-53.938 22.447-22.291 53.968-22.291 31.716 0 53.933 22.35 22.217 22.349 22.217 53.997t-22.276 54.052q-22.276 22.405-53.872 22.405Z"/></svg>