<svg xmlns="http://www.w3.org/2000/svg" height="40" viewBox="0 -960 960 960" width="40"><path d="M68.26-123.718v48.79q0 16-10.972 26.939-10.971 10.938-27.021 10.938T3.362-47.989Q-7.493-58.927-7.493-74.927V-851.74q0-31.32 22.25-53.616t53.503-22.296h287.196q31.255 0 53.504 22.296 22.25 22.296 22.25 53.616v776.813q0 16-10.972 26.938-10.972 10.938-27.022 10.938-16.049 0-26.905-10.938-10.855-10.938-10.855-26.938v-48.791H68.26Zm711.653-200.478-94.24 85.829v165.034q0 15.33-10.532 25.806T649.196-37.05q-15.414 0-25.83-10.476-10.417-10.476-10.417-25.806v-220.931l89.203-82.12-19.058-121.457q-36.128 47.433-77.535 68.086t-88.407 26.226q-13.942 2.08-24.072-8.464-10.131-10.543-10.131-25.485t9.943-25.825q9.943-10.882 25.593-13.921 40.616-7.145 70.555-29.113 29.938-21.967 51.663-56.96l35.203-56.87q15.797-25.181 44.764-34.326 28.968-9.145 57.649 2.812l172.602 72.051q10.681 4.817 16.934 14.1 6.254 9.283 6.254 21.11v119.753q0 15.331-10.5 25.807-10.5 10.476-25.866 10.476t-26.116-10.668q-10.75-10.668-10.75-26.281v-95.735l-84.37-37.534L919.304-80.558q3.653 17.022-7.293 30.265-10.946 13.242-30.07 13.242-12.955 0-22.659-7.643-9.704-7.643-12.463-19.523l-66.906-259.979Zm-601.29-135.34 82.444-46.726q8.136-4.724 8.136-13.537 0-8.814-8.189-13.976l-82.391-46.689q-8.188-4.934-15.87-.123-7.681 4.812-7.681 13.899v93.376q0 9.087 7.681 13.899 7.682 4.811 15.87-.123Zm509.306-224.406q-32.494 0-55.378-22.831t-22.884-55.325q0-32.494 22.831-55.571 22.831-23.077 55.325-23.077t55.452 23.024q22.957 23.023 22.957 55.518 0 32.494-22.904 55.378-22.905 22.884-55.399 22.884Z"/></svg>