<svg xmlns="http://www.w3.org/2000/svg" height="40" viewBox="0 -960 960 960" width="40"><path d="m846.855-215.572-71.927-71.768v-483.552q0-15.159 10.445-25.561t25.666-10.402q15.222 0 25.519 10.402 10.297 10.402 10.297 25.561v555.32ZM349.297-712.464l-71.13-70.97v-30.885q1.275-13.688 11.186-22.873 9.912-9.185 24.033-9.185 15.317 0 25.614 10.402 10.297 10.403 10.297 25.562v97.949Zm166.022 165.515-71.768-71.261v-273.798q0-15.159 10.334-25.561t25.556-10.402q15.222 0 25.55 10.402 10.328 10.402 10.328 25.561v345.059Zm166.022 70.398h-63.558l-8.21-8.051v-366.29q0-15.159 10.436-25.561t25.644-10.402q15.141 0 25.414 10.402 10.274 10.402 10.274 25.561v374.341Zm59.921 353.848L349.297-514.827v167.675q0 23.536-20.638 33.938-20.638 10.402-39.536-3.192l-100.138-72.645 176.804 264.322q6.124 9.309 15.441 14.363 9.317 5.055 20.77 5.055h288.892q13.751 0 27.006-4.475t23.364-12.917ZM402.06-33.383q-28.618 0-54.375-13.193-25.757-13.192-41.504-37.417L66.631-442.536q-6.667-10.319-4.721-22.678 1.945-12.358 11.365-20.358 18.761-16.334 43.345-20.04 24.583-3.707 49.008 14.186l111.742 82.738v-177.907L49.666-814.298q-10.318-10.363-10.398-24.812-.08-14.448 10.434-24.927 10.446-10.478 24.869-10.478t24.834 10.478l757.487 757.486q10.318 10.479 10.278 24.49-.039 14.01-10.792 24.568-10.354 10.478-24.511 10.478-14.156 0-24.475-10.478l-15.051-14.13q-20.239 17.746-46.225 27.993-25.985 10.246-55.294 10.246H402.06Zm143.679-285.762Zm40.043-157.406Z"/></svg>