<svg xmlns="http://www.w3.org/2000/svg" height="40" viewBox="0 -960 960 960" width="40"><path d="M448.094-75.732Q288.717-89.05 181.511-205.004 74.304-320.956 74.304-480q0-159.71 107.207-275.489 107.206-115.779 266.583-129.257v114.376q-111.652 11.841-186.438 94.906-74.787 83.065-74.787 195.971 0 113.066 74.787 195.638 74.786 82.573 186.438 93.747v114.376Zm66.667 0v-114.376q102.398-9.334 173.971-81.747 71.573-72.413 84.399-174.812h112.724q-12.239 149.71-116.811 254.537Q664.471-87.304 514.761-75.732Zm258.37-437.601q-12-102.399-83.986-175.051-71.986-72.653-174.384-82.653v-114.376q149.282 12.239 253.989 117.264 104.707 105.026 117.105 254.816H773.131Z"/></svg>