<svg xmlns="http://www.w3.org/2000/svg" height="40" viewBox="0 -960 960 960" width="40"><path d="M480.058-273.717q-17.026 0-28.734-11.503-11.708-11.502-11.708-28.505 0-17.106 11.649-28.813 11.65-11.708 28.677-11.708 17.026 0 28.734 11.619 11.708 11.619 11.708 28.68 0 17.06-11.649 28.645-11.65 11.585-28.677 11.585ZM480-61.667q-88.102 0-150.149-62.047t-62.047-150.148v-412.276q0-88.101 62.047-150.148Q391.898-898.334 480-898.334t150.149 62.048q62.047 62.047 62.047 150.148v412.276q0 88.101-62.047 150.148Q568.102-61.666 480-61.666Zm-.032-169.246q34.307 0 58.644-24.314 24.337-24.315 24.337-58.562 0-34.345-24.257-58.804-24.258-24.458-58.653-24.458-34.394 0-58.691 24.429-24.297 24.428-24.297 58.732 0 34.303 24.305 58.64 24.305 24.337 58.612 24.337Zm-.007-332.036q34.394 0 58.691-24.429 24.297-24.428 24.297-58.732 0-34.303-24.305-58.72t-58.612-24.417q-34.307 0-58.644 24.414-24.337 24.413-24.337 58.695 0 34.315 24.257 58.752 24.258 24.437 58.653 24.437Zm288.153 198.913q-15.296 0-25.893-10.348-10.597-10.347-10.597-25.643 0-7.198 2.875-13.806 2.876-6.609 7.589-11.334 11.108-11.108 17.155-25.038 6.047-13.93 6.047-29.7 0-15.769-6.047-29.795-6.047-14.025-17.155-25.133-5.276-5.621-7.87-11.945-2.594-6.324-2.594-13.445 0-15.133 10.507-25.437 10.507-10.304 26.039-10.304 7.309 0 13.834 2.7 6.525 2.699 11.417 8.097 20.905 21.066 32.351 48.036 11.446 26.971 11.446 57.044 0 30.072-11.446 57.13-11.446 27.058-32.351 48.124-4.892 5.398-11.5 8.097-6.609 2.7-13.807 2.7Zm108.009 83.507q-15.241 0-25.798-10.624-10.556-10.624-10.556-25.77 0-7.2 3.036-13.793 3.036-6.593 7.761-11.262 26.855-27.971 41.427-63.828 14.573-35.857 14.573-74.312t-14.826-74.074q-14.826-35.62-41.094-63.83-4.566-4.669-7.562-11.314-2.996-6.645-2.996-13.733 0-15.061 10.652-25.692 10.652-10.63 25.622-10.63 7.694 0 14.857 3.674 7.163 3.674 11.593 8.956 35.949 38.16 55.735 86.102Q978.334-532.717 978.334-480q0 52.717-19.826 100.768-19.827 48.051-55.935 86.072-4.669 5.443-11.713 9.037-7.043 3.594-14.737 3.594Z"/></svg>