<svg xmlns="http://www.w3.org/2000/svg" height="40" viewBox="0 -960 960 960" width="40"><path d="M367.276-446q-15.16 0-25.913-10.833-10.754-10.834-10.754-25.834t10.754-25.833q10.753-10.833 25.913-10.833 15 0 25.833 10.833 10.833 10.833 10.833 25.833 0 15-10.833 25.834Q382.276-446 367.276-446Zm226.275 0q-15.16 0-25.913-10.833-10.754-10.834-10.754-25.834t10.754-25.833q10.753-10.833 25.913-10.833 14.999 0 25.833 10.833 10.833 10.833 10.833 25.833 0 15-10.833 25.834Q608.55-446 593.551-446ZM145.123-113.304q-16 0-26.938-10.939-10.939-10.938-10.939-26.928 0-16.082 11.297-26.227t26.58-11.66h12.181v-581.884q0-31.06 22.38-53.486 22.38-22.427 53.374-22.427h493.884q31.059 0 53.486 22.427 22.427 22.426 22.427 53.486v581.884h12.022q16 0 26.938 10.972 10.939 10.972 10.939 27.022 0 16.05-10.939 26.905-10.938 10.855-26.938 10.855H145.123Zm87.935-75.754h213.609v-581.884H233.058v581.884Zm280.275 0h213.609v-581.884H513.333v581.884ZM480-519.21Z"/></svg>