<svg xmlns="http://www.w3.org/2000/svg" height="40" viewBox="0 -960 960 960" width="40"><path d="M33.216-280Q19-280 9.5-289.583 0-299.167 0-313.333v-213.334q0-14.166 9.617-23.75Q19.234-560 33.45-560q14.216 0 23.716 9.583 9.5 9.584 9.5 23.75v213.334q0 14.166-9.617 23.75Q47.432-280 33.216-280Zm118.406-120q-14.216 0-23.716-9.583-9.5-9.584-9.5-23.75v-213.334q0-14.166 9.617-23.75Q137.64-680 151.856-680q14.216 0 23.716 9.583 9.5 9.584 9.5 23.75v213.334q0 14.166-9.617 23.75Q165.838-400 151.622-400ZM313.471-77.05q-30.994 0-53.374-22.38-22.38-22.381-22.38-53.374v-654.392q0-30.993 22.38-53.373t53.374-22.38h333.725q30.993 0 53.373 22.38t22.38 53.373v654.392q0 30.993-22.38 53.373t-53.373 22.38H313.471Zm333.725-109.087H313.471v33.333h333.725v-33.333ZM313.471-773.863h333.725v-33.333H313.471v33.333ZM808.144-280q-14.216 0-23.716-9.583-9.5-9.584-9.5-23.75v-213.334q0-14.166 9.617-23.75Q794.162-560 808.378-560q14.216 0 23.716 9.583 9.5 9.584 9.5 23.75v213.334q0 14.166-9.617 23.75Q822.36-280 808.144-280ZM926.55-400q-14.216 0-23.716-9.583-9.5-9.584-9.5-23.75v-213.334q0-14.166 9.617-23.75Q912.568-680 926.784-680q14.216 0 23.716 9.583 9.5 9.584 9.5 23.75v213.334q0 14.166-9.617 23.75Q940.766-400 926.55-400ZM313.471-773.863v-33.333 33.333Zm0 587.726v33.333-33.333Zm0-66.666h333.725v-454.394H313.471v454.394Z"/></svg>