<svg xmlns="http://www.w3.org/2000/svg" height="40" viewBox="0 -960 960 960" width="40"><path d="m546.261-575.406-50.855-50.855-135.87 135.109q-5.891 5.857-8.583 12.465-2.692 6.607-2.692 14.151v17.456q0 7.544 5.781 13.181 5.781 5.638 13.277 5.638h17.217q7.544 0 14.151-2.692 6.608-2.692 12.465-8.583l135.109-135.87Zm31.666-31.667 27.334-27.333q3.666-3.666 3.666-8.5 0-4.833-3.666-8.5l-33.855-33.855q-3.667-3.666-8.5-3.666-4.834 0-8.5 3.666l-27.333 27.334 50.854 50.854Zm-97.984 510.32q-12.581 0-25.026-4.239-12.445-4.24-21.96-13.225-51.101-45.891-101.232-98.13-50.13-52.239-89.735-108.471-39.606-56.232-64.146-114.982t-24.54-116.997q0-152.643 98.554-243.351Q350.411-886.855 480-886.855t228.222 90.707q98.633 90.708 98.633 243.351 0 58.247-24.62 116.997-24.619 58.75-64.225 114.982-39.605 56.232-89.735 108.471-50.131 52.239-101.072 98.13-9.707 8.985-22.193 13.225-12.487 4.239-25.067 4.239Z"/></svg>