<svg xmlns="http://www.w3.org/2000/svg" height="40" viewBox="0 -960 960 960" width="40"><path d="M228.79-266.666h502.42q16 0 27.018 10.972 11.019 10.972 11.019 27.021 0 16.05-11.019 26.905-11.018 10.855-27.018 10.855H228.79q-16 0-26.939-10.972-10.938-10.972-10.938-27.022 0-16.049 10.938-26.904 10.939-10.855 26.939-10.855Zm8.478-147.174 211.319-317.392q5.588-8.544 13.791-12.895 8.202-4.352 17.622-4.352t17.622 4.352q8.203 4.351 13.791 12.895L722.732-413.84q12.848 19.058 1.739 39.116-11.108 20.057-33.485 20.057H269.014q-22.377 0-33.485-20.057-11.109-20.058 1.739-39.116Zm243.399-16.739Zm-142.791 0h284.248L480-641.059l-142.124 210.48Z"/></svg>