<svg xmlns="http://www.w3.org/2000/svg" height="40" viewBox="0 -960 960 960" width="40"><path d="M196.927-278.406q-83.05 0-140.322-57.605Q-.667-393.616-.667-476.667q0-82.572 58.058-140.083 58.058-57.511 140.203-57.511 72.203 0 126.167 45.667 53.963 45.667 66.442 115h39.239l-77.63-218.146h-37.551q-14.892 0-24.91-9.938t-10.018-24.989q0-15.051 9.939-24.989 9.938-9.938 24.989-9.938h125.094q14.891 0 24.909 10.137 10.018 10.138 10.018 26.145 0 14.493-9.539 24.033-9.54 9.539-23.873 9.539h-15.204l21.203 57.479h205.624l-65.87-177.479H518q-14.891 0-24.909-9.938-10.018-9.938-10.018-24.989t9.938-24.989q9.938-9.938 24.989-9.938h65.739q25.145 0 43.536 12.279 18.392 12.279 26.725 35.424l72.775 198.964h34.964q82.464 0 140.029 57.232 57.565 57.231 57.565 139.028 0 82.718-57.438 141.25-57.438 58.533-140.156 58.533-72.159 0-126.645-46.761-54.485-46.761-67.804-118.094H390.203q-12.479 71-66.344 118.167-53.866 47.166-126.932 47.166Zm122.276-165.333v-69.855h-80.942q-14.891 0-24.909 9.938-10.019 9.939-10.019 24.989 0 15.051 9.939 24.989 9.938 9.939 24.989 9.939h80.942Zm183.166-69.855h65.588q4.174-22.123 14.355-46.58 10.181-24.456 27.145-44.232H471l31.369 90.812Zm182.146-67.029 29.442 77.848q5.159 13.384 17.804 19.21 12.645 5.826 26.536.92 14.051-4.746 19.917-17.931 5.866-13.185 1.119-26.569l-26.964-77.022-67.854 23.544ZM518.37-116.348v47.609q0 10.275-8.99 15.873-8.989 5.598-18.771.866l-169.573-85.833q-6.623-3.573-5.137-10.776 1.485-7.202 9.029-7.202h114.514v-48.276q0-10.116 8.909-15.793 8.91-5.678 18.852-.787l172.239 86.501q6.464 3.572 4.725 10.695-1.74 7.123-9.283 7.123H518.37Z"/></svg>