<svg xmlns="http://www.w3.org/2000/svg" height="40" viewBox="0 -960 960 960" width="40"><path d="M116.014-400q0-114.705 70.001-222.584 70-107.88 192.572-186.25 21.058-14.007 43.228-1.072 22.171 12.935 22.171 39.282v62.552q0 32.336 22.343 54.211 22.344 21.875 54.671 21.875 16.949 0 31.731-7.211t26.225-21.339q8.609-10.29 20.653-13.656 12.043-3.366 22.666 3.859 66.138 46.279 103.924 117.781 37.787 71.501 37.787 152.486 0 93.392-47.001 169.102-47 75.71-123.906 116.356 21.791-25.915 33.653-57.738 11.862-31.823 11.862-66.842 0-39.941-14.728-75.013-14.728-35.071-42.798-63.118L440-515.195l-139.84 137.84q-29.051 28.384-43.823 63.386-14.772 35.002-14.772 74.814 0 34.916 11.783 66.763 11.782 31.848 33.573 57.784-76.906-40.645-123.906-116.355-47.001-75.71-47.001-169.037ZM440-409.029l86.943 85.153q17.122 17.151 26.43 38.731 9.308 21.58 9.308 45.87 0 50.011-35.851 85.346t-86.877 35.335q-51.026 0-86.83-35.335-35.804-35.335-35.804-85.346 0-24.124 9.046-45.824t26.838-38.734L440-409.029Zm412.791-113.094q-15.486 0-26.675-11.189Q814.928-544.5 814.928-560q0-16.167 11.188-27.022 11.189-10.855 26.675-10.855 16.152 0 27.101 10.855 10.949 10.855 10.949 27.022 0 15.5-10.949 26.688-10.949 11.189-27.101 11.189Zm0-129.087q-16.153 0-27.008-10.855t-10.855-27.182v-126.666q0-16.167 10.855-27.022 10.855-10.855 27.008-10.855 16.152 0 27.101 10.855 10.949 10.855 10.949 27.022v126.666q0 16.327-10.949 27.182-10.949 10.855-27.101 10.855Z"/></svg>