<svg xmlns="http://www.w3.org/2000/svg" height="40" viewBox="0 -960 960 960" width="40"><path d="M443.215-70.913q-16.845 0-28.367-11.513-11.522-11.514-11.522-28.364v-205.036q0-6.295.786-12.35.787-6.056 3.106-12.027l43.869-127.514q7.783-23.018 27.515-37.125 19.731-14.107 44.347-14.107h244.363q24.503 0 44.411 14.226 19.907 14.227 27.451 37.245l43.63 127.275q2.319 5.971 3.185 12.027.866 6.055.866 12.35v205.036q0 16.85-11.604 28.364-11.603 11.513-28.434 11.513-16.831 0-28.353-11.513-11.522-11.514-11.522-28.364v-25.667H483.08v25.667q0 16.85-11.51 28.364-11.51 11.513-28.355 11.513Zm28.249-292.137h347.334l-34.667-103.334H506.13L471.464-363.05Zm-15.334 46.666v128-128Zm64.667 104q16.717 0 28.025-11.308 11.308-11.309 11.308-28.025 0-16.557-11.308-27.945-11.308-11.389-28.025-11.389t-28.025 11.389q-11.308 11.388-11.308 27.945 0 16.716 11.308 28.025 11.308 11.308 28.025 11.308Zm248.667 0q16.717 0 28.025-11.308 11.308-11.309 11.308-28.025 0-16.557-11.308-27.945-11.308-11.389-28.025-11.389t-28.025 11.389q-11.308 11.388-11.308 27.945 0 16.716 11.308 28.025 11.308 11.308 28.025 11.308ZM239.203-387.456v-78.283h78.522v78.283h-78.522ZM443.87-640.123v-78.283h78.282v78.283H443.87ZM239.203-231.456v-78.283h78.522v78.283h-78.522Zm0 156v-78.283h78.522v78.282h-78.522Zm-165.899 0v-480.667q0-31.326 22.13-53.54t53.624-22.214h128.913V-808.79q0-31.326 22.13-53.54t53.623-22.214h258.813q31.559 0 53.736 22.214 22.176 22.214 22.176 53.54v200h-75.912v-200H353.724v252.667H149.058v480.667H73.304ZM456.13-188.385h378.001v-128H456.13v128Z"/></svg>