<svg xmlns="http://www.w3.org/2000/svg" height="40" viewBox="0 -960 960 960" width="40"><path d="m434.667-324.26 154.19-154.191q10.491-10.491 24.735-10.158 14.244.334 24.623 10.812 10.379 10.478 10.379 24.816t-10.319 24.43L461.188-251.703q-11.413 11.276-26.55 11.276-15.138 0-26.493-11.276l-90.261-89.514q-10.478-10.093-10.478-24.431 0-14.337 10.398-24.816 10.399-10.478 24.623-10.144 14.225.333 24.732 10.173l67.508 66.175ZM189.058-73.304q-30.994 0-53.374-22.38-22.38-22.38-22.38-53.374v-595.218q0-31.059 22.38-53.486 22.38-22.427 53.374-22.427h54.275v-29.688q0-15.554 10.795-26.266 10.794-10.712 26.294-10.712 15.783 0 26.619 10.712t10.836 26.266v29.688h324.246v-29.688q0-15.554 10.795-26.266 10.794-10.712 26.294-10.712 15.783 0 26.619 10.712t10.836 26.266v29.688h54.275q31.06 0 53.486 22.427 22.427 22.427 22.427 53.486v595.218q0 30.994-22.427 53.374-22.426 22.38-53.486 22.38H189.058Zm0-75.754h581.884v-417.609H189.058v417.609Z"/></svg>