<svg xmlns="http://www.w3.org/2000/svg" height="40" viewBox="0 -960 960 960" width="40"><path d="M186.666-113.304q-30.616 0-51.989-21.373-21.373-21.373-21.373-51.989v-171.667q43.102-3.174 74.188-32.171Q218.579-419.5 218.579-462t-31.087-71.496q-31.086-28.997-74.188-32.33v-171.508q0-15.609 5.772-28.677 5.772-13.069 15.808-23.105l654.232 654.232q-10.036 10.036-23.105 15.808-13.068 5.772-28.677 5.772H565.826q-3.333-43.102-32.33-74.188Q504.5-218.579 462-218.579t-71.496 31.087q-28.997 31.086-32.171 74.188H186.666Zm624.189-138.507L251.811-810.855h100.37q9.486-41.783 39.587-69.569 30.102-27.786 71.565-27.786 41.464 0 71.566 27.786 30.101 27.786 39.587 69.569h162.848q29.71 0 51.616 21.905 21.905 21.906 21.905 51.616v162.848q41.783 9.486 68.569 40.921t26.786 72.898q0 41.464-26.786 70.565-26.786 29.102-68.569 38.588v99.703ZM788.95-75.841 74.92-788.95q-10.319-10.319-9.898-24.71.42-14.391 10.898-24.869 10.478-10.479 24.87-10.479 14.391 0 24.869 10.479l712.87 713.87q10.319 10.319 10.399 24.29.08 13.97-10.399 24.449-10.478 10.478-24.789 10.518-14.312.04-24.79-10.438Z"/></svg>