<svg xmlns="http://www.w3.org/2000/svg" height="40" viewBox="0 -960 960 960" width="40"><path d="m819.429-88.253-78.298-78.059q-55 44.732-119.609 68.87-64.609 24.138-139.174 24.138-84.848 0-159.044-31.725-74.195-31.725-129.279-86.808-55.083-55.083-86.808-129.279Q75.493-395.312 75.493-480q0-76.058 25.416-141.754 25.417-65.696 67.751-117.362l-78.965-78.871q-10.224-10.224-9.851-24.369.373-14.145 10.598-24.369 10.224-10.066 24.369-10.066t24.369 10.066l729.734 729.892q10.224 10.225 9.891 24.29-.333 14.065-10.558 24.29-10.224 10.384-24.409 10.384-14.185 0-24.409-10.384Zm12.556-184.558-56.412-56.493q17.391-30.195 27.594-69.297 10.203-39.102 10.203-81.08 0-26.507-3.333-48.022-3.334-21.514-10.667-45.848-21.667 5.16-42.975 7.247-21.308 2.086-46.308 2.086-67.674 0-136.298-23.427-68.624-23.428-121.718-65.161L274.905-829.971q44.24-26.427 96.787-41.656 52.547-15.228 110.656-15.228 84.355 0 158.424 32.098t129.272 87.054q55.202 54.957 87.221 129.152Q889.283-564.355 889.283-480q0 59.42-15.287 111.681-15.286 52.261-42.011 95.508Zm-472.84-111.964q-22.652 0-38.018-15.286-15.366-15.287-15.366-37.939t15.366-37.938q15.366-15.287 38.018-15.287 22.493 0 37.859 15.287Q412.37-460.652 412.37-438t-15.366 37.939q-15.366 15.286-37.859 15.286Zm123.203 235.717q58.333 0 110.964-19.141t92.964-52.301L311.558-595.964q-31.333 35.333-73.156 63.482-41.823 28.149-86.997 45.815V-480q0 136.79 97.077 233.866 97.076 97.076 233.866 97.076Z"/></svg>