<svg xmlns="http://www.w3.org/2000/svg" height="40" viewBox="0 -960 960 960" width="40"><path d="M356.493-193.304q-119.815 0-203.335-83.466-83.52-83.466-83.52-203.203 0-119.737 83.498-203.31 83.499-83.572 203.283-83.572 119.784 0 203.157 83.572 83.373 83.573 83.373 203.31 0 119.737-83.354 203.203-83.354 83.466-203.102 83.466Zm347.558-21.863q-20.457 8.232-36.881-2.553-16.423-10.785-16.423-33.874 0-9.717 6.818-19.047 6.819-9.33 16.537-12.953 62.971-20.638 101.739-75.377Q814.609-413.71 814.609-482q0-68.29-38.768-122.696-38.768-54.406-101.739-75.203-9.718-3.464-16.537-12.787-6.818-9.323-6.818-19.72 0-22.696 16.257-33.344 16.257-10.649 37.271-2.178 81.892 27.797 133.99 100.656Q890.362-574.413 890.362-482t-52.257 165.105q-52.257 72.692-134.054 101.728Z"/></svg>