<svg xmlns="http://www.w3.org/2000/svg" height="40" viewBox="0 -960 960 960" width="40"><path d="M481.71-387.833q29.652 0 49.754-20.351 20.101-20.352 20.101-49.504v-187.203q0-29.152-20.101-49.504-20.102-20.351-49.754-20.351h-60.109q-29.152 0-49.384 20.351-20.232 20.352-20.232 49.504v58.754q0 29.152 20.232 49.503 20.232 20.352 49.384 20.352h60.109v58.594h-52.051q-14.878 0-24.943 10.076-10.064 10.075-10.064 24.969 0 15.029 9.974 24.92 9.974 9.89 24.906 9.89h52.178Zm0-198.304h-60.109v-58.754h60.109v58.754Zm333.776-229.349ZM670.377-519.21v49.739q0 14.167 9.617 23.75 9.617 9.584 23.833 9.584 14.216 0 23.716-9.584 9.5-9.583 9.5-23.75v-49.739h71.109v-66.666h-71.109v-47.073q0-14.167-9.617-23.75t-23.833-9.583q-14.216 0-23.716 9.583-9.5 9.583-9.5 23.75v47.073h-45q-14.167 0-23.75 9.617-9.583 9.616-9.583 23.833 0 14.216 9.583 23.716 9.583 9.5 23.75 9.5h45ZM286.934-211.18q-30.994 0-53.374-22.38-22.38-22.38-22.38-53.374v-528.552q0-31.059 22.38-53.486 22.38-22.427 53.374-22.427h528.552q31.059 0 53.486 22.427 22.427 22.427 22.427 53.486v528.552q0 30.994-22.427 53.374-22.427 22.38-53.486 22.38H286.934Zm0-75.754h528.552v-528.552H286.934v528.552ZM144.514-68.601q-31.059 0-53.486-22.427-22.427-22.427-22.427-53.486v-566.429q0-16 10.972-26.938 10.972-10.939 27.102-10.939 16.129 0 26.984 10.939 10.855 10.938 10.855 26.938v566.429h566.429q16 0 26.938 10.972 10.939 10.972 10.939 27.101 0 16.13-10.939 26.985-10.938 10.855-26.938 10.855H144.514Zm142.42-746.885v528.552-528.552Z"/></svg>