<svg xmlns="http://www.w3.org/2000/svg" height="40" viewBox="0 -960 960 960" width="40"><path d="M274.667-479.917q0 15.366-10.477 25.783-10.476 10.416-25.806 10.416H70.144q-15.33 0-25.806-10.5t-10.476-25.865q0-15.366 10.476-25.783 10.476-10.416 25.807-10.416h168.239q15.33 0 25.806 10.5 10.477 10.5 10.477 25.865ZM334-626q-10.783 10.782-25.486 10.782-14.702 0-25.485-10.782l-34.667-34.906q-10.703-10.544-10.703-25.225 0-14.682 10.783-25.666 10.745-10.544 25.427-10.544 14.681 0 25.225 10.544L334-677.13q10.543 10.745 10.543 25.666 0 14.92-10.543 25.464Zm109.718-95.616v-168.239q0-15.331 10.5-25.807 10.5-10.476 25.865-10.476 15.366 0 25.783 10.476 10.416 10.476 10.416 25.807v168.239q0 15.33-10.5 25.806-10.5 10.477-25.865 10.477-15.366 0-25.783-10.477-10.416-10.476-10.416-25.806ZM626-626q-10.782-10.783-10.782-25.464 0-14.682 10.782-25.666l34.906-34.667q10.544-10.544 25.225-10.544 14.682 0 25.666 10.783 10.544 10.745 10.544 25.427 0 14.681-10.544 25.225L677.13-626q-10.745 10.543-25.666 10.543-14.92 0-25.464-10.543Zm59.333 145.917q0-15.366 10.477-25.783 10.476-10.416 25.806-10.416h168.239q15.331 0 25.807 10.5 10.476 10.5 10.476 25.865 0 15.366-10.476 25.783-10.476 10.416-25.807 10.416H721.616q-15.33 0-25.806-10.5-10.477-10.5-10.477-25.865ZM480-369.051q-46.275 0-78.612-32.337-32.337-32.337-32.337-78.612 0-46.275 32.337-78.612 32.337-32.337 78.612-32.337 46.275 0 78.612 32.337 32.337 32.337 32.337 78.612 0 46.275-32.337 78.612-32.337 32.337-78.612 32.337ZM626-334q10.783-10.782 25.464-10.782 14.682 0 25.666 10.782l38.001 38.24q10.543 10.543 10.543 25.246t-10.782 25.485q-10.746 10.703-25.427 10.703-14.682 0-25.225-10.703l-38.24-38q-10.543-10.544-10.543-25.485 0-14.942 10.543-25.486Zm-292 0q10.782 10.783 10.782 25.486 0 14.702-10.782 25.485l-38.24 38q-10.543 10.703-25.246 10.703t-25.485-10.782q-10.703-10.746-10.703-25.427 0-14.682 10.703-25.225l38-38.24q10.544-10.543 25.485-10.543 14.942 0 25.486 10.543Zm146.083 59.333q15.366 0 25.783 10.477 10.416 10.476 10.416 25.806v168.24q0 15.33-10.5 25.806t-25.865 10.476q-15.366 0-25.783-10.476-10.416-10.476-10.416-25.807v-168.239q0-15.33 10.5-25.806 10.5-10.477 25.865-10.477Z"/></svg>