<svg xmlns="http://www.w3.org/2000/svg" height="40" viewBox="0 -960 960 960" width="40"><path d="M875.594-190.623 259.456-806.855h121.523q15.167 0 29.301 6.09 14.134 6.091 24.648 16.446l47.08 47.239h328.934q30.319 0 53.116 22.717t22.797 53.036v432.269q0 10.276-2.851 20.131-2.852 9.855-8.41 18.304Zm-726.536 37.319q-30.986 0-53.37-22.718-22.384-22.717-22.384-53.036v-501.884q0-28.725 20.511-50.884 20.511-22.16 49.344-24.232h22.667l74.957 75.116h-97.558l-76.413-76.414Q56.587-817.58 56.54-831.678q-.047-14.098 10.272-24.416 10.225-10.225 24.41-10.225 14.184 0 24.409 10.225l759.37 759.21q10.319 10.479 10.152 24.45-.167 13.97-10.486 24.29-10.478 10.224-24.449 10.271-13.971.047-24.289-10.272L720.928-153.304h-571.87Z"/></svg>