<svg xmlns="http://www.w3.org/2000/svg" height="40" viewBox="0 -960 960 960" width="40"><path d="M434.949-813.892v417.131q0 15.442-10.533 25.863-10.534 10.42-25.866 10.42-15.492 0-25.948-10.54-10.457-10.54-10.457-25.982v-177.37q-67.036-.797-114.315-45.768Q200.551-665.109 200.551-730q0-65.45 45.862-111.152 45.863-45.703 111.536-45.703h265.58q15.442 0 25.942 10.533 10.5 10.534 10.5 26.026 0 15.491-10.5 25.948-10.5 10.456-25.942 10.456h-50.943V-397q0 15.442-10.573 25.982-10.574 10.54-26.065 10.54-15.492 0-25.948-10.54-10.457-10.54-10.457-25.982v-416.892h-64.594Zm273.363 619.189H149.587q-15.442 0-25.863-10.533-10.42-10.534-10.42-26.026 0-15.332 10.42-25.748 10.421-10.417 25.863-10.417H709.03l-45.74-45.74q-10.703-10.543-10.703-25.246t10.703-25.406q10.544-10.543 25.246-10.423 14.703.119 25.406 10.663l106.152 106.152q11.355 11.355 11.355 26.761 0 15.405-11.355 26.76L714.5-98.311q-10.782 10.782-25.565 10.663-14.782-.12-25.565-10.903-10.783-10.782-10.783-25.604 0-14.823 10.783-25.605l44.942-44.943Z"/></svg>