<svg xmlns="http://www.w3.org/2000/svg" height="40" viewBox="0 -960 960 960" width="40"><path d="m324.485-352.688 121.03-322.61q2.572-7.717 9.304-12.449t15.179-4.732h19.497q8.288 0 15.019 4.732 6.732 4.732 9.305 12.449L636.5-350.246q5.319 13.116-2.732 25.032-8.05 11.917-23.076 11.917-9.127 0-16.761-5.404-7.634-5.405-10.293-14.081l-28.848-80.791H408.652l-28.928 80.776q-2.966 8.927-10.637 14.213-7.671 5.287-16.65 5.287-15.582 0-24.426-12.489-8.844-12.489-3.526-26.902Zm99.182-111.276h112.826l-53.826-154.848h-6l-53 154.848ZM33.862-71.739v-155.333q0-16 10.939-26.938 10.938-10.939 26.938-10.939h41.457v-430.102H71.739q-16 0-26.938-10.939-10.939-10.938-10.939-26.938v-155.333q0-16 10.939-26.938 10.938-10.939 26.938-10.939h155.333q16 0 26.938 10.939 10.939 10.938 10.939 26.938v41.457h430.102v-41.457q0-16 10.939-26.938 10.938-10.939 26.938-10.939h155.333q16 0 26.938 10.939 10.939 10.938 10.939 26.938v155.333q0 16-10.939 26.938-10.938 10.939-26.938 10.939h-41.457v430.102h41.457q16 0 26.938 10.939 10.939 10.938 10.939 26.938v155.333q0 16-10.939 26.938-10.938 10.939-26.938 10.939H732.928q-16 0-26.938-10.939-10.939-10.938-10.939-26.938v-41.457H264.949v41.457q0 16-10.939 26.938-10.938 10.939-26.938 10.939H71.739q-16 0-26.938-10.939-10.939-10.938-10.939-26.938Zm231.087-117.21h430.102v-38.123q0-16 10.939-26.938 10.938-10.939 26.938-10.939h38.123v-430.102h-38.123q-16 0-26.938-10.939-10.939-10.938-10.939-26.938v-38.123H264.949v38.123q0 16-10.939 26.938-10.938 10.939-26.938 10.939h-38.123v430.102h38.123q16 0 26.938 10.939 10.939 10.938 10.939 26.938v38.123ZM103.717-764.667h91.616v-91.616h-91.616v91.616Zm660.95 0h91.616v-91.616h-91.616v91.616Zm0 660.95h91.616v-91.616h-91.616v91.616Zm-660.95 0h91.616v-91.616h-91.616v91.616Zm91.616-660.95Zm569.334 0Zm0 569.334Zm-569.334 0Z"/></svg>