<svg xmlns="http://www.w3.org/2000/svg" height="40" viewBox="0 -960 960 960" width="40"><path d="M679.883-123.123q-16.05 0-26.905-10.939Q642.123-145 642.123-161v-82.123H560q-16 0-26.938-10.972-10.939-10.972-10.939-27.022 0-16.05 10.939-26.905Q544-318.877 560-318.877h82.123V-401q0-16 10.972-26.938 10.972-10.939 27.022-10.939 16.05 0 26.905 10.939Q717.877-417 717.877-401v82.123H800q16 0 26.938 10.972 10.939 10.972 10.939 27.022 0 16.05-10.939 26.905Q816-243.123 800-243.123h-82.123V-161q0 16-10.972 26.938-10.972 10.939-27.022 10.939ZM294.318-226.21q-16.159 0-27.098-10.972-10.938-10.972-10.938-27.181 0-16.05 10.938-26.905 10.939-10.855 27.098-10.855h148.994q-.283 20.964.681 37.529.964 16.565 6.435 38.384h-156.11Zm0-170.297q-16.159 0-27.098-10.972-10.938-10.972-10.938-27.022 0-16.05 10.938-26.905 10.939-10.855 27.098-10.855H538.42q-20.761 15.118-36.855 34.414-16.094 19.296-27.775 41.34H294.318Zm0-170.566q-16.159 0-27.098-10.972-10.938-10.972-10.938-27.021 0-16.05 10.938-26.985 10.939-10.934 27.098-10.934h433.943q16 0 26.938 11.051 10.939 11.052 10.939 27.102 0 16.049-10.939 26.904-10.938 10.855-26.938 10.855H294.318Zm0-170.804q-16.159 0-27.098-10.972-10.938-10.972-10.938-27.181 0-16.05 10.938-26.905 10.939-10.855 27.098-10.855h433.943q16 0 26.938 10.972 10.939 10.972 10.939 27.022 0 16.209-10.939 27.064-10.938 10.855-26.938 10.855H294.318Zm-142.696 0q-16.05 0-26.905-10.972t-10.855-27.181q0-16.05 10.972-26.905t27.022-10.855q16.05 0 26.905 10.972t10.855 27.022q0 16.209-10.972 27.064t-27.022 10.855Zm0 170.804q-16.05 0-26.905-10.972t-10.855-27.021q0-16.05 10.972-26.985 10.972-10.934 27.022-10.934 16.05 0 26.905 11.051 10.855 11.052 10.855 27.102 0 16.049-10.972 26.904t-27.022 10.855Zm0 170.566q-16.05 0-26.905-10.972t-10.855-27.022q0-16.05 10.972-26.905t27.022-10.855q16.05 0 26.905 10.972t10.855 27.022q0 16.05-10.972 26.905t-27.022 10.855Zm0 170.297q-16.05 0-26.905-10.972t-10.855-27.181q0-16.05 10.972-26.905t27.022-10.855q16.05 0 26.905 10.972t10.855 27.022q0 16.209-10.972 27.064t-27.022 10.855Z"/></svg>