<svg xmlns="http://www.w3.org/2000/svg" height="40" viewBox="0 -960 960 960" width="40"><path d="M480.07-72.029q-76.425 0-143.223-28.651-66.798-28.651-116.637-78.486-49.839-49.836-78.492-116.58-28.653-66.744-28.653-143.168 0-76.492 28.685-143.224 28.685-66.732 78.514-116.522 49.83-49.789 116.648-78.474 66.818-28.685 143.327-28.685h17.334l-46.385-46.384q-9.811-9.653-9.804-24.116.007-14.464 9.333-24.275 10.044-9.892 24.261-10.272 14.217-.381 24.029 9.272l105.717 105.717q11.355 11.457 11.355 26.732 0 15.275-11.355 26.63l-105.05 104.908q-10.479 10.462-24.696 10.415-14.217-.047-24.956-10.526-9.964-10.478-10.091-24.409-.127-13.931 10.352-24.409l43.529-43.37h-16.906q-121.457 0-204.772 84.626-83.316 84.626-83.316 206.239t84.747 206.356q84.746 84.743 206.406 84.743 121.661 0 206.436-84.625 84.775-84.626 84.775-206.317 0-16 10.972-26.938 10.972-10.939 27.021-10.939 16.05 0 26.905 10.939 10.855 10.938 10.855 26.938 0 76.435-28.647 143.169-28.646 66.733-78.474 116.525t-116.573 78.476Q556.496-72.029 480.07-72.029ZM356.572-512.276h-28.166q-11.418 0-18.988-7.891t-7.57-19.7q0-11.809 7.869-19.12 7.869-7.31 19.595-7.31h56.427q11.978 0 19.268 7.324 7.29 7.325 7.29 19.234v201.573q0 11.895-7.966 19.839-7.965 7.943-19.894 7.943-11.998 0-19.932-7.943-7.933-7.944-7.933-19.839v-174.11Zm147.059 201.892q-18.134 0-30.401-12.244-12.266-12.243-12.266-30.343V-523.71q0-18.1 12.266-30.344 12.267-12.243 30.401-12.243h87.021q18.134 0 30.4 12.243 12.267 12.244 12.267 30.344v170.739q0 18.1-12.267 30.343-12.266 12.244-30.4 12.244h-87.021Zm13.296-54.688h60.668v-147.204h-60.668v147.204Z"/></svg>