<svg xmlns="http://www.w3.org/2000/svg" height="40" viewBox="0 -960 960 960" width="40"><path d="M185.362-177.579h419.471q14.892 0 24.87 9.978 9.978 9.978 9.978 24.869 0 14.892-9.978 24.91t-24.87 10.018h-419.71q-14.891 0-24.79-10.018-9.898-10.018-9.898-24.91 0-14.891 10.018-24.869t24.909-9.978Zm140.37-189.602-123.29-123.211q-21.71-21.71-22.171-52.916-.46-31.207 21.41-53.583l28.761-29.667 231.71 229.71-29.667 29.667q-21.71 21.71-53.297 21.71-31.587 0-53.456-21.71Zm315.826-209.312-229.71-231.71 29.666-29q22.377-21.471 53.464-21.091 31.087.381 52.956 22.091l123.291 123.29q21.949 21.87 21.949 53.456 0 31.587-21.949 53.297l-29.667 29.667Zm165.254 397.942L295.623-689.739l53.043-53.283 511.189 511.428q11.022 11.022 11.022 26.522 0 15.5-11.022 26.521-11.021 11.022-26.521 11.022t-26.522-11.022Z"/></svg>