<svg xmlns="http://www.w3.org/2000/svg" height="40" viewBox="0 -960 960 960" width="40"><path d="M357.645-156.493q-135.391 0-229.587-94.086-94.196-94.087-94.196-229.432 0-135.344 94.206-229.5 94.207-94.156 229.551-94.156 135.345 0 229.501 94.12 94.155 94.119 94.155 229.51 0 135.392-94.119 229.468t-229.511 94.076Zm-.036-72.565q104.217 0 177.46-73.362 73.243-73.362 73.243-177.58 0-104.218-73.243-177.58-73.243-73.362-177.46-73.362-104.218 0-177.58 73.362-73.363 73.362-73.363 177.58 0 104.218 73.363 177.58 73.362 73.362 177.58 73.362Zm-36.522-313.065v160.768q0 15.698 10.457 25.99 10.456 10.292 26.065 10.292 15.608 0 25.945-10.456 10.337-10.457 10.337-26.065v-160.529h53.718q11.061 0 18.672-7.79 7.61-7.79 7.61-18.732t-7.61-18.612q-7.611-7.67-18.672-7.67H267.37q-11.062 0-18.672 7.61-7.611 7.611-7.611 18.672 0 10.942 7.79 18.732 7.79 7.79 18.732 7.79h53.478Zm406.754-196.802-65.826-29.474q-11.355-4.925-11.355-17.463 0-12.537 11.355-17.428l65.826-29.559 29.399-65.666q4.924-11.355 17.462-11.355t17.429 11.355l29.583 65.716 65.88 29.509q11.355 4.922 11.236 17.5-.12 12.579-11.475 17.47l-65.702 29.334-29.283 65.811q-4.948 11.355-17.594 11.475-12.645.119-17.536-11.236l-29.399-65.989Zm0 611.535-65.826-29.559q-11.355-4.899-11.355-17.369 0-12.471 11.355-17.522l65.826-29.474 29.399-65.989q4.948-11.355 17.593-11.236 12.646.12 17.537 11.475l29.283 65.811 65.702 29.333q11.355 4.923 11.475 17.501.119 12.579-11.236 17.47l-65.88 29.509-29.583 65.716q-4.925 11.514-17.462 11.514-12.538 0-17.429-11.514l-29.399-65.666ZM357.609-480Z"/></svg>