<svg xmlns="http://www.w3.org/2000/svg" height="40" viewBox="0 -960 960 960" width="40"><path d="m809.674-51.622-62.282-61.682H646.724v-100.668l-66.666-66.666v167.334H379.942v-200.211h167.239l-66.748-66.748H380.024v-100.743l-66.748-66.748v167.573H113.304v-199.638h167.747l-66.666-66.666H113.304v-101.24l-72.072-72.073q-10.225-10.065-10.018-24.416.206-14.352 10.684-24.83 10.225-10.225 24.743-10.225 14.518 0 24.742 10.225l768.139 768.646q10.319 10.391 10.272 24.326-.047 13.934-10.526 24.413-10.478 10.224-24.822 10.351-14.344.127-24.772-10.314Zm-620.616-61.682q-31.66 0-53.707-22.047t-22.047-53.707v-124.457h199.972v200.211H189.058Zm657.797-95.282L741.927-313.515h104.928v104.929ZM675.021-380.181l-28.297-28.297v-171.341h200.131v199.638H675.021Zm-94.963-95.202L475.383-579.819h104.675v104.436ZM408.956-646.485l-29.014-28.775v-171.595h200.116v200.37H408.956Zm237.768 0v-200.37h124.218q31.726 0 53.82 22.093 22.093 22.094 22.093 53.82v124.457H646.724Zm-333.448-95.681L208.507-846.855h104.769v104.689Z"/></svg>