<svg xmlns="http://www.w3.org/2000/svg" height="40" viewBox="0 -960 960 960" width="40"><path d="M480-411.16q-99.711 0-169.536-69.756-69.826-69.757-69.826-169.409 0-99.719 69.797-169.599 69.798-69.881 169.509-69.881 99.711 0 169.644 69.831 69.934 69.83 69.934 169.588t-69.906 169.492Q579.711-411.16 480-411.16Zm-33.333-205.79v49.334q0 14.166 9.617 23.75 9.617 9.583 23.833 9.583 14.216 0 23.716-9.583 9.5-9.584 9.5-23.75v-49.334h49.334q14.166 0 23.75-9.617Q596-636.184 596-650.4q0-14.216-9.583-23.716-9.584-9.5-23.75-9.5h-49.334v-49.334q0-14.166-9.617-23.749-9.617-9.584-23.833-9.584-14.216 0-23.716 9.584-9.5 9.583-9.5 23.749v49.334h-49.334q-14.166 0-23.75 9.617Q364-664.382 364-650.166q0 14.216 9.583 23.716 9.584 9.5 23.75 9.5h49.334Zm380.667 451.754h-49.457q-11.957 0-19.776-8.025-7.818-8.025-7.818-20.298 0-12.274 8.007-19.903t20.254-7.629h48.79v-49.456q0-11.854 8.025-19.605 8.025-7.75 20.298-7.75 12.17 0 19.731 7.641 7.561 7.64 7.561 19.714v49.456h49.457q11.957 0 19.776 7.614Q960-205.823 960-193.549q0 12.273-7.618 20.313-7.619 8.04-19.976 8.04h-49.457v49.457q0 11.853-7.544 19.604-7.545 7.75-19.713 7.75-12.167 0-20.263-8.007-8.095-8.007-8.095-20.253v-48.551Zm-302.667 62.145v-192.384q0-11.854 7.818-19.604 7.819-7.751 19.776-7.751h114.406q24.564 0 40.09 15.304 15.526 15.305 15.526 39.645v46.62q0 21.54-10.649 34.464-10.648 12.924-28.982 21.242l21.978 52.762q5.812 13.623-1.797 25.46-7.609 11.837-22.827 11.837-8.622 0-15.274-4.613-6.652-4.612-9.971-12.185L627.66-157.79h-48.044v54.979q0 11.853-7.745 19.604-7.745 7.75-19.59 7.75-11.845 0-19.729-7.818-7.885-7.818-7.885-19.776Zm54.949-108.811h87.718v-55.979h-87.718v55.979ZM54.949-183.971v81.16q0 11.853-7.745 19.604-7.745 7.75-19.59 7.75-11.845 0-19.73-7.75Q0-90.957 0-102.811v-192.624q0-11.854 7.814-19.604 7.814-7.751 19.765-7.751 11.848 0 19.609 7.751 7.761 7.75 7.761 19.604v57.87h85.718v-57.87q0-11.854 7.814-19.604 7.814-7.751 19.765-7.751 11.847 0 19.609 7.751 7.761 7.75 7.761 19.604v192.624q0 11.853-7.745 19.604-7.745 7.75-19.59 7.75-11.845 0-19.73-7.818-7.884-7.818-7.884-19.776v-80.92H54.949ZM262-103.051v-192.384q0-11.854 7.818-19.604 7.819-7.751 19.776-7.751H402q24.564 0 39.756 15.304 15.193 15.305 15.193 39.645v137.435q0 24.564-15.193 39.757Q426.564-75.457 402-75.457H289.594q-11.957 0-19.776-7.818Q262-91.093 262-103.05Zm54.949-27.355H402v-137.435h-85.051v137.435Z"/></svg>