<svg xmlns="http://www.w3.org/2000/svg" height="40" viewBox="0 -960 960 960" width="40"><path d="m823.117-666.703-26.493 25.667q-9.522 9.427-9.855 22.71-.334 13.282 9.094 22.804 12.616 12.869 27.431 13.261 14.815.391 25.612-10.312l84.333-83.333q11.355-11.355 11.355-26.761 0-15.406-11.355-26.761l-83.333-83.333q-10.842-10.797-25.689-10.797t-25.905 10.692q-11.08 11.329-11.359 24.855-.279 13.525 9.149 22.793l26.428 26.588h-63.74q-48.259 0-82.111 33.852-33.853 33.853-33.853 82.111v280.203q0 18.66-12.631 31.671-12.63 13.01-31.337 13.01-18.706 0-31.717-13.01-13.011-13.011-13.011-31.671v-238.203q0-48.852-33.729-83.408-33.729-34.555-82.21-34.555-48.64 0-82.546 34.555-33.906 34.556-33.906 83.408v238.203q0 18.66-12.631 31.671-12.63 13.01-31.337 13.01-18.706 0-31.717-13.01-13.011-13.011-13.011-31.671v-320.203q0-15.203-10.414-25.583-10.414-10.38-25.666-10.38-15.253 0-25.47 10.38-10.218 10.38-10.218 25.583v318.848q0 48.853 33.787 83.408 33.787 34.556 82.623 34.556 48.837 0 82.409-34.556 33.572-34.555 33.572-83.408v-238.203q0-18.659 13.011-31.67 13.011-13.011 31.718-13.011 18.546 0 31.257 13.011 12.71 13.011 12.71 31.67v238.203q0 48.853 33.787 83.408 33.787 34.556 82.623 34.556 48.837 0 82.409-34.556 33.572-34.555 33.572-83.408v-278.848q0-18.717 12.66-31.377 12.659-12.659 31.377-12.659h64.327ZM107.942-90.101q-31.486 0-53.7-22.134-22.213-22.134-22.213-53.62v-295.551q0-16 10.938-26.938 10.939-10.939 26.939-10.939h814.13q16 0 27.018 10.939 11.019 10.938 11.019 26.938v295.551q0 31.486-22.214 53.62-22.214 22.134-53.699 22.134H107.942Z"/></svg>