<svg xmlns="http://www.w3.org/2000/svg" height="40" viewBox="0 -960 960 960" width="40"><path d="M518.667-32.029q-75.631 0-121.403-62.315-45.771-62.315-45.771-142.866 0-80.551 45.771-142.866 45.772-62.315 121.403-62.315 75.63 0 121.402 62.315 45.772 62.315 45.772 142.866 0 80.551-45.772 142.866Q594.297-32.03 518.667-32.03ZM218.159-480q0 94.478-11.612 187.083-11.613 92.605-36.946 183.845-4.554 16.255-18.335 25.743t-29.143 4.09q-15.768-5.399-21.779-20.547-6.011-15.149-1.359-31.917 23-85.761 34.167-172.522 11.167-86.76 11.167-176.03t-11.167-176.109q-11.167-86.839-34.167-172.6-4.652-16.768 1.359-31.916 6.011-15.149 21.612-20.548 15.362-5.398 29.143 4.027 13.781 9.426 18.502 25.807 24.667 91.239 36.612 184.177Q218.159-574.478 218.159-480Zm594.856.041q0 88.895 11.166 175.695 11.167 86.8 34.167 172.561 4.652 16.768-1.359 31.917-6.01 15.148-21.612 20.547-15.362 5.398-29.143-4.027t-18.502-25.806q-25.333-91.24-36.945-183.845Q739.174-385.522 739.174-480t11.946-187.417q11.946-92.938 36.612-184.177 4.554-16.256 18.335-25.744t29.143-4.09q15.769 5.399 21.779 20.548 6.011 15.148 1.359 31.916-23 85.814-34.167 172.605-11.166 86.791-11.166 176.4ZM486.296-163.835q9.574 8.618 22.371 8.578 12.797-.04 22.355-9.518 14.478-14.192 22.098-33.108 7.619-18.916 7.619-39.327 0-20.411-7.239-39.207-7.239-18.797-21.478-33.228-8.602-9.558-21.877-9.558-13.275 0-22.833 8.558-9.718 8.718-10.218 22.435-.5 13.717 8.218 23.435.876.877 6.159 8.799 5.283 7.923 5.283 18.686 0 10.829-5.283 18.918-5.283 8.089-6.159 8.966-9.479 9.605-9.098 23.28.38 13.674 10.082 22.291Zm-47.629-353.774q-75.631 0-121.403-62.315-45.771-62.315-45.771-142.866 0-80.551 45.771-142.866 45.772-62.315 121.403-62.315 75.63 0 121.402 62.315 45.772 62.315 45.772 142.866 0 80.551-45.772 142.866-45.772 62.315-121.402 62.315Zm31.355-131.746q9.717-8.718 10.217-22.435.5-13.717-8.217-23.435-4.841-5.761-8.062-12.886-3.221-7.126-3.221-14.759 0-7.577 3.221-14.77t8.062-12.954q8.717-9.605 8.717-22.905 0-13.301-9.703-22.666-9.591-8.618-22.379-8.618-12.787 0-22.345 9.558-14.479 14.479-22.019 33.234-7.539 18.755-7.539 39.121 0 20.423 7.039 39.23 7.04 18.807 21.519 33.285 9.478 9.478 22.315 9.518 12.837.04 22.395-8.518Z"/></svg>