<svg xmlns="http://www.w3.org/2000/svg" height="40" viewBox="0 -960 960 960" width="40"><path d="M320.667-150.435q-30.986 0-53.37-22.463-22.384-22.464-22.384-53.449v-70.942q0-16.167 10.855-27.022 10.855-10.855 27.022-10.855h87.181v-114.667q-33.362.775-65.279-10.765-31.917-11.54-57.917-33.474-5.652-5.413-8.818-11.939-3.167-6.525-3.167-14.177v-36.74H202.5q-7.544 0-14.134-2.732-6.591-2.731-12.482-8.623l-94.297-94.456q-11.145-10.986-10.732-26.116.413-15.131 12.304-24.942 32.674-26.841 77.718-41.46 45.043-14.62 86.84-14.62 27.645 0 60.935 7.547 33.29 7.547 61.319 24.417v-9.333q0-26.167 18.196-44.363 18.196-18.196 44.203-18.196h338.572q31.652 0 53.783 22.131 22.13 22.13 22.13 53.782v466.602q0 48.631-34.112 82.743-34.112 34.112-82.743 34.112H320.667Zm125.058-184.731h205.457q16.166 0 27.021 10.855t10.855 27.022v29.999q0 18.124 11.489 29.533 11.489 11.41 29.453 11.41t29.453-11.41q11.489-11.409 11.489-29.533v-466.602H445.725v46.559l223.507 223.587q8.652 8.652 10.105 18.79 1.453 10.137-2.214 19.376-3.826 9.239-11.931 15.471-8.105 6.232-20.424 6.232-7.145 0-13.55-2.58-6.406-2.579-11.725-7.898L511.717-522.37l-12.884 14.884q-12.536 13.87-25.293 22.352-12.757 8.482-27.815 14.909v135.059ZM217.609-626.543h48.92q16.166 0 27.021 10.855t10.855 27.021v50.682q14.856 9.601 29.95 14.188t30.696 4.587q23.775 0 46.917-11.293 23.141-11.294 36.344-25.83l13.442-15.283-63.312-63.551q-31-31-69.268-48.047-38.268-17.047-81.457-17.047-24.029 0-43.938 5.174-19.91 5.174-40.446 14.268l54.276 54.276Z"/></svg>