<svg xmlns="http://www.w3.org/2000/svg" height="40" viewBox="0 -960 960 960" width="40"><path d="M692.689-615.334h66.666V-682h-66.666v66.666Zm0 167.334h66.666v-66.667h-66.666V-448Zm0 166.667h66.666V-348h-66.666v66.667Zm155.862 164.282H691.796q-15.488 0-25.965-10.455t-10.477-25.911q0-15.455 10.477-25.827 10.477-10.372 25.965-10.372H851.74v-580.768H474.464v91.421l-72.725-52.036v-46.668q0-26.623 19.309-45.953 19.308-19.329 46.172-19.329h381.331q31.559 0 53.736 22.213 22.177 22.214 22.177 53.54v574.392q0 31.326-22.177 53.54-22.177 22.213-53.736 22.213Zm-737.421 0q-31.559 0-53.736-22.213-22.177-22.214-22.177-53.54v-283.008q0-18.426 8.29-34.948 8.29-16.522 23.457-27.037l201.434-143.63q20.1-14.087 44.029-14.087 23.928 0 43.986 14.087l200.529 143.63q15.152 10.419 23.449 27.046 8.297 16.628 8.297 34.939v283.008q0 31.326-22.214 53.54-22.213 22.213-53.539 22.213H398.949q-16 0-26.938-10.938-10.938-10.938-10.938-26.938v-168.689h-97.334v168.689q0 16-10.939 26.938-10.938 10.938-26.938 10.938H111.13ZM108.021-477.4v287.784h89.051v-162.79q0-16 10.939-26.938 10.938-10.938 26.938-10.938h154.913q16 0 26.938 10.938 10.939 10.938 10.939 26.938v162.79h88.145V-477.4L312.406-623.348 108.021-477.4Zm515.254-96.346Zm-195.536 384.13v-200.666H197.072v200.666-200.666h230.667v200.666Z"/></svg>