<svg xmlns="http://www.w3.org/2000/svg" height="40" viewBox="0 -960 960 960" width="40"><path d="M197.051-194.927v-282.124H121.42q-13.261 0-17.946-12.141-4.684-12.141 5.352-20.844l345.891-311.24q10.48-9.876 25.345-9.876 14.865 0 25.221 9.876l346.051 311.24q9.876 8.703 5.192 20.844-4.685 12.141-17.787 12.141h-75.79v282.124q0 16-11.49 26.938-11.49 10.938-30.808 10.938-14.375 0-23.915-9.623t-9.54-23.949v-45.363H272.804v45.363q0 14.326-10.175 23.949-10.175 9.623-27.819 9.623-16.049 0-26.904-10.938t-10.855-26.938Zm163.789-440h238.48L480-741.79 360.84-634.927Zm-88.036 161.594h414.392v-78.957l-7.645-6.884H280.449l-7.645 6.884v78.957Zm0 161.594h414.392v-85.841H272.804v85.841Z"/></svg>