<svg xmlns="http://www.w3.org/2000/svg" height="40" viewBox="0 -960 960 960" width="40"><path d="M234.392-30.913q-51.124 0-86.504-35.514-35.381-35.514-35.381-86.638 0-51.123 35.44-86.504 35.441-35.38 86.459-35.38 14 0 25.637 2.547 11.638 2.547 22.399 7.308l72-90.588q-21.202-25.347-31.576-57.775-10.373-32.427-5.279-65.963l-103.123-36.095q-16.145 25.24-42.164 39.852-26.02 14.612-59.249 14.612-51.118 0-86.628-35.44t-35.51-86.458q0-51.118 35.514-86.708 35.514-35.589 86.638-35.589 51.123 0 86.504 35.589 35.38 35.59 35.38 86.708v4.616l103.472 37.253q18.666-32.775 46.713-52.322 28.047-19.547 61.917-26.786v-110.776q-39-11.239-64.094-44.388-25.095-33.148-25.095-73.192 0-51.117 35.514-86.707 35.514-35.59 86.638-35.59t86.624 35.59q35.5 35.59 35.5 86.707 0 40.044-25.475 73.192-25.475 33.149-63.714 44.388v110.776q33.87 7.319 62.25 26.946 28.38 19.626 47.206 52.242l102.646-37.333v-4.616q0-51.118 35.44-86.708 35.44-35.589 86.458-35.589 51.118 0 86.708 35.593 35.59 35.594 35.59 86.718 0 51.123-35.59 86.504-35.59 35.38-86.708 35.38-33.211 0-59.739-14.652-26.529-14.652-41.913-40.051L642.333-479.42q4.616 33.855-5.105 65.916-9.721 32.062-31.67 57.822l72.239 90.733q10.761-5 22.279-7.5t25.518-2.5q51.018 0 86.538 35.44 35.52 35.44 35.52 86.458 0 51.118-35.52 86.628t-86.538 35.51q-51.117 0-86.627-35.51t-35.51-86.628q0-20.847 5.992-38.452 5.993-17.605 16.326-32.845l-71.761-90.428q-34.84 18.283-74.514 18.283-39.674 0-74.355-18.283l-70.92 91.095q10.333 15.239 16.326 32.511 5.992 17.272 5.992 38.119 0 51.118-35.514 86.628t-86.637 35.51Z"/></svg>