<svg xmlns="http://www.w3.org/2000/svg" height="40" viewBox="0 -960 960 960" width="40"><path d="M480-93.304q-135.63 0-231.163-93.56-95.533-93.559-95.533-228.15 0-64.638 25.018-123.605t71.134-104.069L480-869.565l230.544 226.877q46.115 45.102 71.213 104.069 25.098 58.967 25.098 123.605 0 134.591-95.612 228.15Q615.63-93.304 480-93.304Zm-.157-75.754q104.375 0 177.737-71.294 73.362-71.295 73.362-174.851 0-48.852-18.88-93.361-18.881-44.509-53.268-78.164L480-763.24 301.206-586.728q-34.387 33.655-53.268 78.161-18.88 44.506-18.88 93.389 0 103.62 73.205 174.87 73.206 71.25 177.58 71.25Z"/></svg>