<svg xmlns="http://www.w3.org/2000/svg" height="40" viewBox="0 -960 960 960" width="40"><path d="M189.058-113.304q-31.249 0-53.501-22.253-22.253-22.252-22.253-53.501v-556.573q0-.797.04-1.634.04-.837.04-1.315l-58.572-58.826q-10.225-10.065-10.272-24.497-.047-14.431 10.265-24.742 10.231-10.232 24.75-10.232 14.517 0 24.742 10.225L863.558-97.55q10.319 10.521 10.232 24.39-.087 13.87-10.565 24.61-10.319 9.963-24.703 10.01-14.384.047-24.702-10.271l-65.24-64.493H189.058Zm0-75.754h483.769L568.63-293.334H279.877q-12.102 0-17.366-10.549-5.265-10.549 2.359-20.451l79.963-96.608q6.131-7.036 14.834-6.957 8.703.08 14.833 7.624L440-331l41.681-50.109-292.623-292.385v484.436Zm657.797-19.767-75.913-75.754v-486.363H284.579l-75.754-75.913h562.117q31.314 0 53.614 22.299 22.299 22.3 22.299 53.614v562.117ZM530.594-524.927Zm-98.913 94.485Z"/></svg>