<svg xmlns="http://www.w3.org/2000/svg" height="40" viewBox="0 -960 960 960" width="40"><path d="M482.083-277.051q15.456 0 25.828-10.431t10.372-25.851v-170.385q0-15.42-10.456-25.851Q497.372-520 481.917-520q-15.456 0-25.828 10.431-10.371 10.431-10.371 25.851v170.385q0 15.42 10.455 25.851t25.91 10.431Zm-2.081-314.963q16.712 0 28.014-11.113 11.303-11.112 11.303-27.539 0-17.174-11.301-28.58-11.301-11.406-28.006-11.406-16.885 0-28.108 11.406-11.223 11.406-11.223 28.5 0 16.527 11.305 27.629 11.305 11.103 28.016 11.103Zm.197 518.71q-84.439 0-158.475-31.959-74.037-31.958-129.27-87.191-55.233-55.233-87.191-129.298-31.959-74.064-31.959-158.559 0-84.496 31.959-158.582 31.958-74.087 87.166-128.995t129.284-86.937q74.076-32.03 158.585-32.03 84.509 0 158.614 32.017 74.105 32.018 129.001 86.905 54.897 54.886 86.919 129.086 32.023 74.199 32.023 158.67 0 84.461-32.03 158.495-32.029 74.034-86.937 129.124-54.908 55.091-129.079 87.173-74.171 32.08-158.61 32.08Z"/></svg>