<svg xmlns="http://www.w3.org/2000/svg" height="40" viewBox="0 -960 960 960" width="40"><path d="M768.043-282.753 480-570.796v-212.683L373.224-677.478l-53.949-53.79 120.609-118.848q8.544-8.544 19.152-12.522 10.609-3.978 20.964-3.978 10.355 0 21.083 3.978 10.728 3.978 19.272 12.522l190.189 187.427q47.384 46.479 71.847 107.453 24.464 60.975 24.464 120.888 0 41.384-10.906 82.323-10.906 40.939-27.906 69.272ZM480-113.304q-134.964 0-230.83-93.373-95.866-93.374-95.866-228.337 0-51.558 16.12-100.848 16.119-49.29 51.96-95.863L72.587-780.522q-10.225-10.225-10.225-24.623 0-14.399 10.225-24.783 10.384-10.224 24.822-10.224 14.438 0 24.822 10.224l708.443 708.602q10.225 10.225 10.225 24.37 0 14.145-10.225 24.37-10.224 10.224-24.742 10.224t-24.743-10.225L675.725-177.384q-43.761 32.522-93.66 48.301Q532.167-113.304 480-113.304Zm0-75.754v-184.384L275.811-577.79q-26.203 34.775-36.478 71.04-10.275 36.264-10.275 71.736 0 103.55 73.695 174.753Q376.449-189.058 480-189.058Z"/></svg>