<svg xmlns="http://www.w3.org/2000/svg" height="40" viewBox="0 -960 960 960" width="40"><path d="M189.058-73.304q-31.494 0-53.624-22.13-22.13-22.13-22.13-53.624v-470.978q-17.572-8.911-28.786-26.254-11.214-17.343-11.214-39.29v-125.362q0-31.56 22.13-53.736 22.13-22.177 53.624-22.177h661.884q31.56 0 53.736 22.177 22.177 22.176 22.177 53.736v125.362q0 21.947-11.293 39.274-11.294 17.328-28.707 26.27v470.978q0 31.494-22.177 53.624-22.176 22.13-53.736 22.13H189.058Zm-40-612.276h662.124v-125.362H149.058v125.362Zm243.478 277.029h175.167q15.159 0 25.561-10.445 10.403-10.445 10.403-25.666 0-15.222-10.403-25.519-10.402-10.297-25.561-10.297H392.536q-15.159 0-25.561 10.444-10.403 10.445-10.403 25.667 0 15.222 10.403 25.519 10.402 10.297 25.561 10.297Z"/></svg>