<svg xmlns="http://www.w3.org/2000/svg" height="40" viewBox="0 -960 960 960" width="40"><path d="M479.963-113.304q-134.927 0-230.793-93.6-95.866-93.599-95.866-228.067 0-67.399 25.439-125.326 25.438-57.928 70.713-102.725L439.884-850.45q8.544-8.449 19.152-12.427 10.609-3.978 20.964-3.978 10.355 0 20.964 3.978 10.608 3.978 19.152 12.427l190.428 187.428q45.285 44.736 70.798 102.7 25.513 57.965 25.513 125.308 0 133.819-95.649 227.764-95.649 93.946-231.243 93.946Zm.037-75.754V-783.24L301.166-606.834q-35.268 34.761-53.688 77.609-18.42 42.848-18.42 94.211 0 102.733 73.576 174.345Q376.21-189.058 480-189.058Z"/></svg>