<svg xmlns="http://www.w3.org/2000/svg" height="40" viewBox="0 -960 960 960" width="40"><path d="M394.174-480.667 227.696-647.479q-11.181-11.021-11.229-26.395-.047-15.373 11.229-26.648 11.021-11.022 26.442-11.022 15.42 0 26.601 11.022l193.094 193.095q5.892 5.891 8.577 12.594 2.684 6.703 2.684 14.166 0 7.464-2.684 14.167-2.685 6.703-8.577 12.594L280.739-260.811q-11.181 11.021-26.554 11.148-15.373.127-26.489-11.148-11.181-11.022-11.181-26.522 0-15.5 11.181-26.522l166.478-166.812Zm259.138 0L486.753-647.479q-11.181-11.021-11.228-26.395-.047-15.373 11.228-26.648 11.022-11.022 26.442-11.022 15.421 0 26.602 11.022l193.094 193.095q5.892 5.891 8.576 12.594 2.685 6.703 2.685 14.166 0 7.464-2.685 14.167-2.684 6.703-8.576 12.594L539.797-260.811q-11.181 11.021-26.554 11.148-15.374.127-26.49-11.148-11.181-11.022-11.181-26.522 0-15.5 11.181-26.522l166.559-166.812Z"/></svg>