<svg xmlns="http://www.w3.org/2000/svg" height="40" viewBox="0 -960 960 960" width="40"><path d="M67.804-143.717v-106.812l166.058 53.406 444.493-147.392 116.863 155.219q28.601 37.876 7.464 79.684-21.138 41.808-68.21 41.808H143.717q-31.652 0-53.783-22.13-22.13-22.131-22.13-53.783Zm166.058-129.116L67.804-329.145v-85.928l166.058 53.247 274.935-89.247 116.573 46.87-391.508 131.37ZM774.043-410.42l118.109-52.5q15.5-6.718 24.743-20.638 9.243-13.92 9.243-31.166v-82.088q0-20.058-12.308-35.384t-32.033-20.217l-112.884-24.884q-12.688-2.652-25.116-.247-12.427 2.406-22.703 10.855L661.63-619q-10.434 8.449-16.032 20.011Q640-587.428 640-573.833v67.666q0 13.595 5.598 25.156 5.598 11.562 16.032 19.852l54.24 43.195q12.688 10.276 28.347 12.221 15.66 1.946 29.826-4.677Zm-540.181-27.116L67.804-493.688v-71.914q0-30.934 21.732-52.666Q111.268-640 142.362-640h136.812q17.819 0 34.025 8.123 16.207 8.123 26.562 22.29l81.898 109.638-187.797 62.413Zm275.254-210.551 138.435-55.275q16.246-6.464 25.822-20.551 9.576-14.087 9.576-31.826v-117.363q0-20.231-12.641-35.891-12.641-15.659-32.699-19.804l-133.384-26.551q-11.355-2.159-22.29-.293-10.935 1.866-20.718 8.329l-75.934 51.37q-12.356 7.783-18.819 20.384Q360-862.957 360-849.029v101.007q0 14.167 6.464 26.649 6.463 12.482 18.819 20.264l71.123 47.558q11.594 7.703 25.355 9.482 13.761 1.779 27.355-4.018Z"/></svg>