<svg xmlns="http://www.w3.org/2000/svg" height="40" viewBox="0 -960 960 960" width="40"><path d="M410.29-480 247.478-642.812q-11.022-11.022-10.688-26.521.333-15.5 11.355-26.522 11.022-11.022 26.855-11.022t26.855 11.022l189.094 189.094q5.891 5.891 8.576 12.594 2.685 6.703 2.685 14.167 0 7.464-2.685 14.167-2.685 6.703-8.576 12.594L301.188-263.478q-11.022 11.022-26.521 10.688-15.5-.333-26.522-11.355-11.022-11.022-11.022-26.855t11.022-26.855L410.29-480Zm276.377-246.377q16.166 0 27.022 10.855 10.855 10.855 10.855 27.022v417q0 16.167-10.855 27.022-10.856 10.855-27.022 10.855-16.167 0-27.022-10.855-10.855-10.855-10.855-27.022v-417q0-16.167 10.855-27.022 10.855-10.855 27.022-10.855Z"/></svg>