<svg xmlns="http://www.w3.org/2000/svg" height="40" viewBox="0 -960 960 960" width="40"><path d="M146.984-144.616q-14.82 0-24.25-10.203t-9.43-24.75q0-14.546 10.303-24.445 10.302-9.898 24.897-9.898 14.728 0 24.333 10.271 9.605 10.272 9.605 24.795 0 14.523-10.385 24.377-10.385 9.853-25.073 9.853Zm166.254 0q-14.68 0-24.166-10.203-9.485-10.203-9.485-24.75 0-14.546 10.302-24.445 10.303-9.898 24.898-9.898 14.658 0 24.258 10.271 9.6 10.272 9.6 24.795 0 14.523-10.363 24.377-10.363 9.853-25.044 9.853Zm165.964 0q-14.68 0-24.166-10.203-9.485-10.203-9.485-24.75 0-14.546 9.933-24.445 9.933-9.898 24.616-9.898 14.684 0 24.596 10.002 9.913 10.003 9.913 24.79 0 14.787-10.363 24.646-10.363 9.858-25.044 9.858Zm166.804 0q-14.724 0-24.568-10.029-9.843-10.03-9.843-24.713 0-14.785 10.329-24.67 10.33-9.884 24.964-9.884 14.634 0 24.199 10.271 9.565 10.272 9.565 24.763 0 14.49-9.96 24.376-9.961 9.886-24.686 9.886Zm166.107 0q-14.785 0-24.67-10.029-9.885-10.03-9.885-24.713 0-14.785 10.003-24.67 10.003-9.884 24.79-9.884 14.787 0 24.646 10.002 9.858 10.003 9.858 24.79 0 14.787-10.029 24.646-10.03 9.858-24.713 9.858ZM150.181-277.39q-15.5 0-26.188-11.189-10.689-11.188-10.689-27.007 0-15.82 10.939-26.768 10.938-10.949 26.938-10.949h135.79q15.402 0 26.14 11.282 10.737 11.282 10.737 27.101 0 15.82-10.938 26.675-10.939 10.855-26.939 10.855h-135.79Zm261.21 0q-15.5 0-26.188-11.189-10.689-11.188-10.689-27.007 0-15.82 10.939-26.768 10.938-10.949 26.938-10.949h136.218q15.5 0 26.188 11.282 10.689 11.282 10.689 27.101 0 15.82-10.939 26.675-10.938 10.855-26.938 10.855H411.391Zm261.797 0q-15.471 0-26.254-11.189-10.782-11.188-10.782-27.007 0-15.82 10.938-26.768 10.939-10.949 27.098-10.949h135.631q15.471 0 26.254 11.282 10.782 11.282 10.782 27.101 0 15.82-11.028 26.675t-27.008 10.855H673.188ZM150.181-416.861q-15.5 0-26.188-11.282-10.689-11.282-10.689-27.101 0-15.819 10.939-26.674 10.938-10.855 26.938-10.855H409.79q15.5 0 26.189 11.232 10.688 11.232 10.688 26.978 0 15.992-10.938 26.847-10.939 10.855-26.939 10.855H150.181Zm400.029 0q-15.5 0-26.189-11.282-10.688-11.282-10.688-27.101 0-15.819 10.938-26.674 10.939-10.855 26.939-10.855h258.609q15.471 0 26.254 11.232 10.782 11.232 10.782 26.978 0 15.992-11.028 26.847t-27.008 10.855H550.21ZM151.181-559.44q-15.659 0-26.768-11.188t-11.109-26.722v-180.124q0-15.534 11.109-26.722t26.768-11.188h657.638q15.659 0 26.848 11.188 11.188 11.188 11.188 26.722v180.124q0 15.534-11.188 26.722-11.189 11.188-26.848 11.188H151.181Z"/></svg>