<svg xmlns="http://www.w3.org/2000/svg" height="40" viewBox="0 -960 960 960" width="40"><path d="M357.29-153.304H189.058q-30.994 0-53.374-22.714-22.38-22.713-22.38-53.04v-581.884q0-31.06 22.38-53.486 22.38-22.427 53.374-22.427h581.884q30.393 0 53.153 22.427 22.76 22.426 22.76 53.486v581.884q0 30.327-22.76 53.04-22.76 22.714-53.153 22.714H602.87l-96.109 96.109q-11.413 11.355-26.79 11.355-15.377 0-26.732-11.355l-95.949-96.109Zm-168.232-75.754h198.893L480-136.999l92.218-92.059h198.724v-581.884H189.058v581.884ZM480-518Zm3.722 234.906q18.285 0 31.209-12.93t12.924-31.4q0-18.286-12.943-31.21-12.942-12.924-31.307-12.924-18.366 0-31.21 12.943-12.844 12.943-12.844 31.308 0 18.365 12.884 31.289 12.883 12.924 31.287 12.924ZM549.906-637.1q0 18.549-10.88 36.825-10.881 18.275-34.25 40.217-18.464 17.21-29.203 30.421-10.74 13.21-16.834 26.589-3.761 7.787-5.721 16.787t-3.8 19.428q-2.24 13.16 7.478 23.45 9.717 10.289 23.985 10.289 12.365 0 22.364-8.951 10-8.95 14.288-24.549 3.826-15.522 13.068-29.278 9.242-13.755 28.121-32.367 31.753-31.754 45.253-56.756 13.5-25.003 13.5-54.831 0-54.065-34.989-85.572-34.99-31.508-93.786-31.508-44.08 0-77.631 18.815-33.55 18.814-53.869 51.555-6.891 11.464-1.446 23.34 5.446 11.877 18.754 17.037 12.192 5.318 24.562 1 12.369-4.319 21.007-14.544 12.419-15.259 29.423-23.626 17.004-8.367 37.925-8.367 28.804 0 45.743 14.961 16.938 14.96 16.938 39.635Z"/></svg>