<svg xmlns="http://www.w3.org/2000/svg" height="40" viewBox="0 -960 960 960" width="40"><path d="m432.536-379.333 176-112.906q16.131-10.479 16.131-29.196 0-18.717-16.131-29.195l-176-112.906q-17.225-11.319-35.355-1.131-18.13 10.188-18.13 30.978v224.667q0 20.725 18.128 30.946 18.127 10.221 35.357-1.257ZM149.058-193.304q-30.994 0-53.374-22.38-22.38-22.38-22.38-53.374v-501.884q0-31.06 22.38-53.486 22.38-22.427 53.374-22.427h661.884q31.06 0 53.486 22.427 22.427 22.426 22.427 53.486v501.884q0 30.994-22.427 53.374-22.426 22.38-53.486 22.38H637v42.123q0 16.167-10.945 27.022-10.945 10.855-27.091 10.855H361.036q-16.166 0-27.021-10.855t-10.855-27.022v-42.123H149.058Z"/></svg>