<svg xmlns="http://www.w3.org/2000/svg" height="40" viewBox="0 -960 960 960" width="40"><path d="M356.667-509.686q0 58.019 39 101.186 39 43.166 84.333 79.833 45.333-36.667 84.333-79.958t39-101.33q0-51.378-36.072-87.378-36.073-36-87.333-36-51.261 0-87.261 36.143-36 36.143-36 87.504ZM480-480q-17 0-28.5-11.5T440-520q0-17 11.5-28.5T480-560q17 0 28.5 11.5T520-520q0 17-11.5 28.5T480-480ZM320-193.384q-119.66 0-203.138-83.488-83.478-83.489-83.478-203.164 0-119.674 83.478-203.127T320-766.616h320q119.66 0 203.138 83.488 83.478 83.489 83.478 203.164 0 119.674-83.478 203.127T640-193.384H320Zm0-75.913h320q87.909 0 149.306-61.389 61.397-61.389 61.397-149.286 0-87.897-61.397-149.314Q727.909-690.703 640-690.703H320q-87.909 0-149.306 61.389-61.397 61.389-61.397 149.286 0 87.897 61.397 149.314Q232.091-269.297 320-269.297ZM480-480Z"/></svg>