<svg xmlns="http://www.w3.org/2000/svg" height="40" viewBox="0 -960 960 960" width="40"><path d="M480-846.855q96.392 0 186.844 32.369 90.453 32.37 167.511 88.928 14.131 10.797 21.689 26.19t7.558 31.563q0 10.269-2.993 20.468-2.993 10.2-9.138 19.713L543.319-163.442q-11.515 16.913-28.48 25.569-16.964 8.656-34.972 8.656-18.007 0-34.839-8.449-16.832-8.449-28.187-25.776L108.529-627.624q-6.402-9.565-9.22-19.553-2.816-9.989-2.816-19.978 0-16.431 7.557-31.971 7.558-15.541 21.848-26.338 77.058-56.304 167.384-88.848Q383.608-846.855 480-846.855Zm-.116 75.913q-88.406 0-161.051 29.934-72.645 29.935-146.5 74.124L480-203.557l307.827-463.327q-74.044-44.353-146.543-74.206-72.498-29.852-161.4-29.852ZM370.962-561.181q24.444 0 41.222-16.919 16.779-16.919 16.779-41.363 0-24.443-16.799-41.341-16.799-16.899-41.243-16.899-24.443 0-41.341 16.919-16.899 16.919-16.899 41.362 0 24.444 16.919 41.342 16.919 16.899 41.362 16.899ZM480.02-354.927q24.444 0 41.342-16.8 16.899-16.799 16.899-41.242 0-24.444-16.919-41.342-16.919-16.899-41.362-16.899-24.444 0-41.342 16.919-16.899 16.919-16.899 41.362 0 24.444 16.919 41.223t41.362 16.779Zm-.02 151.37Z"/></svg>