<svg xmlns="http://www.w3.org/2000/svg" height="40" viewBox="0 -960 960 960" width="40"><path d="M320-193.384q-119.66 0-203.138-83.488-83.478-83.489-83.478-203.164 0-119.674 83.478-203.127T320-766.616h320q119.66 0 203.138 83.488 83.478 83.489 83.478 203.164 0 119.674-83.478 203.127T640-193.384H320Zm36.667-316.302q0 58.019 39 101.186 39 43.166 84.333 79.833 45.333-36.667 84.333-79.958t39-101.33q0-51.378-36.072-87.378-36.073-36-87.333-36-51.261 0-87.261 36.143-36 36.143-36 87.504ZM480-480q-17 0-28.5-11.5T440-520q0-17 11.5-28.5T480-560q17 0 28.5 11.5T520-520q0 17-11.5 28.5T480-480Z"/></svg>