<svg xmlns="http://www.w3.org/2000/svg" height="40" viewBox="0 -960 960 960" width="40"><path d="m784.855-269.181-55.84-55.84q20.391-31.819 32.493-71.037 12.101-39.217 12.101-81.942 0-121.203-86.203-207.406T480-771.609q-41.87 0-82.102 12.101-40.232 12.102-70.877 32.493l-55.174-55.173q35.109-26.761 80.41-42.522 45.301-15.761 91.461-20.761v-40.623q0-15.45 10.416-25.866 10.417-10.417 25.866-10.417t25.866 10.417q10.416 10.416 10.416 25.866v40.623q133.479 14.239 225.215 105.974 91.735 91.736 105.974 225.215h40.623q15.45 0 25.866 10.416 10.417 10.417 10.417 25.866t-10.417 25.866q-10.416 10.416-25.866 10.416h-40.623q-5 45.334-20.054 88.714-15.055 43.381-42.562 83.823ZM443.718-69.906v-40.623q-133.479-14.239-225.215-105.974-91.735-91.736-105.974-225.215H71.906q-15.45 0-25.866-10.416Q35.623-462.551 35.623-478t10.417-25.866q10.416-10.416 25.866-10.416h40.623q5.666-48.16 20.308-89.968 14.641-41.808 39.801-79.475l-98.863-98.942Q63.55-792.892 63.67-807.37q.12-14.478 10.344-24.703 10.225-10.065 24.703-10.065t24.703 10.065l710.32 710.32q10.318 10.478 10.318 24.656 0 14.177-10.318 24.655-10.479 10.225-24.989 10.232-14.511.007-24.989-10.47l-98.943-98.704q-38.014 25.935-79.554 40.562-41.54 14.627-88.983 20.293v40.623q0 15.45-10.416 25.866Q495.449-33.623 480-33.623T454.134-44.04q-10.416-10.416-10.416-25.866ZM480-184.39q40.167 0 77.2-10.489 37.032-10.489 72.018-31.598l-400.74-400.74q-20.203 33.334-31.145 69.674-10.942 36.341-10.942 79.544 0 121.203 86.203 207.406T480-184.391Z"/></svg>