<svg xmlns="http://www.w3.org/2000/svg" height="40" viewBox="0 -960 960 960" width="40"><path d="M110.913-186.666V-612q0-31.56 22.13-53.736 22.13-22.177 53.623-22.177H355.58v-50.848q0-15.144 5.558-28.971 5.558-13.826 16.5-23.942l48.985-47.812q21.78-21.71 53.332-21.71t53.422 21.71l48.667 47.334q11.021 10.514 16.779 24.539 5.757 14.025 5.757 29.41v214.29h168.754q31.559 0 53.736 22.177 22.177 22.177 22.177 53.736v261.334q0 31.493-22.177 53.623t-53.736 22.13H186.666q-31.493 0-53.623-22.13t-22.13-53.623Zm75.753 0H284V-284h-97.334v97.334Zm0-164H284V-448h-97.334v97.334Zm0-164.001H284V-612h-97.334v97.333Zm244.667 328.001h97.334V-284h-97.334v97.334Zm0-164h97.334V-448h-97.334v97.334Zm0-164.001h97.334V-612h-97.334v97.333Zm0-164h97.334V-776h-97.334v97.333ZM676-186.666h97.334V-284H676v97.334Zm0-164h97.334V-448H676v97.334Z"/></svg>