<svg xmlns="http://www.w3.org/2000/svg" height="40" viewBox="0 -960 960 960" width="40"><path d="M234.101-74.101V-249.37q-56.92-52.797-88.46-123.094-31.54-70.297-31.54-147.536 0-152.524 106.692-259.291Q327.484-886.058 479.9-886.058q127.013 0 225.107 74.895 98.095 74.895 127.812 194.808l54.319 215.341q4.891 17.978-6.435 32.445-11.326 14.468-30.203 14.468h-84.442v124.246q0 31.494-22.177 53.624-22.177 22.13-53.736 22.13h-84.087v80H234.101ZM474.139-405.87q14.949 0 24.919-9.974 9.971-9.974 9.971-25.003v-196.762q0-14.844-10.076-24.885-10.075-10.042-24.969-10.042-15.029 0-24.919 9.974-9.891 9.974-9.891 25.003v196.762q0 14.844 10.007 24.886 10.008 10.041 24.958 10.041Zm123.188-62.072q14.95 0 24.92-9.974 9.97-9.974 9.97-24.954v-94.739q0-14.844-10.075-24.885-10.075-10.042-24.969-10.042-15.03 0-24.92 9.974-9.891 9.974-9.891 24.953v94.739q0 14.98 10.008 24.954 10.007 9.974 24.957 9.974ZM350.95-485.87q14.95 0 24.92-9.974 9.97-9.974 9.97-24.953v-76.812q0-14.844-10.075-24.885-10.075-10.042-24.969-10.042-15.029 0-24.92 9.974-9.89 9.974-9.89 24.953v76.812q0 14.844 10.007 24.886 10.008 10.041 24.957 10.041Z"/></svg>