<svg xmlns="http://www.w3.org/2000/svg" height="40" viewBox="0 -960 960 960" width="40"><path d="M237.899-270.116H185.55q-31.559 0-53.736-22.13-22.176-22.13-22.176-53.623V-677h-6.667q-15.181 0-26.011-10.83t-10.83-26.266q0-15.436 10.83-26.09 10.83-10.655 26.011-10.655h134.928v-69.348h-26.667q-15.181 0-26.011-10.83-10.83-10.829-10.83-26.265 0-15.437 10.83-26.091 10.83-10.654 25.972-10.654h127.213q15.569 0 26.284 10.737 10.716 10.738 10.716 26.341 0 15.103-10.716 25.932-10.715 10.83-26.284 10.83h-26.667v69.348h134.928q15.569 0 26.285 10.738 10.715 10.738 10.715 26.34 0 15.103-10.715 25.933Q462.236-677 446.667-677H440v331.131q0 31.493-22.214 53.623-22.213 22.13-53.539 22.13h-52.508v183.53q0 11.1-10.161 16.532-10.161 5.431-20.013-1.525l-28.5-21.116q-7.623-5.558-11.395-13.301-3.771-7.743-3.771-17.112v-147.008ZM685.181-80.478q-68.311 0-116.746-48.346Q520-177.171 520-245.58v-320q0-68.391 48.435-116.826 48.435-48.435 116.746-48.435 68.312 0 116.747 48.435 48.434 48.435 48.434 116.826v320q0 68.409-48.434 116.756-48.435 48.346-116.747 48.346ZM183.478-343.956H366.16v-69.348h-78.79q-13.818 0-24.181-10.353-10.363-10.353-10.363-24.157 0-13.803 10.363-24.19t24.181-10.387h78.79v-56.015h-78.79q-13.818 0-24.181-10.353-10.363-10.352-10.363-24.156 0-13.868 10.363-24.303 10.363-10.434 24.181-10.434h78.79V-677H183.478v333.044Zm410.362 19.782h182.682v-162.971H593.84v162.971Z"/></svg>