<svg xmlns="http://www.w3.org/2000/svg" height="40" viewBox="0 -960 960 960" width="40"><path d="M479.535-263.073q74.037 0 124.715-50.548 50.677-50.549 50.677-124.576 0-74.028-50.659-124.379t-124.695-50.351q-74.037 0-124.269 50.281-50.231 50.282-50.231 124.256 0 74.107 50.213 124.712 50.213 50.605 124.249 50.605Zm.037-71.927q-44.058 0-73.315-29.59Q377-394.181 377-438.333q0-44.153 29.303-73.49 29.302-29.336 73.369-29.336t73.777 29.336q29.711 29.337 29.711 73.49 0 44.152-29.677 73.743Q523.806-335 479.572-335ZM149.058-113.304q-30.994 0-53.374-22.38-22.38-22.38-22.38-53.374v-497.218q0-30.392 22.38-53.152t53.374-22.76h134.101l53.653-60.486q10.275-12.131 24.797-18.156 14.521-6.025 30.797-6.025h175.348q16.096 0 30.627 6.025 14.532 6.025 24.807 18.156L677-762.188h133.942q30.393 0 53.153 22.76 22.76 22.76 22.76 53.152v497.218q0 30.994-22.76 53.374-22.76 22.38-53.153 22.38H149.058ZM480-189.058h330.942v-497.218H643.225l-75.152-84.666H480v581.884ZM480-438Z"/></svg>