<svg xmlns="http://www.w3.org/2000/svg" height="40" viewBox="0 -960 960 960" width="40"><path d="M149.058-229.058v-347.218 347.218Zm0 75.754q-30.994 0-53.374-22.145-22.38-22.145-22.38-53.051v-502.442q0-31.06 22.38-53.486 22.38-22.427 53.374-22.427l75.999 154.666h126.667l-76-154.666h86.001l76 154.666h126.666l-75.999-154.666h86l76 154.666h126.666l-75.999-154.666h109.883q31.06 0 53.486 22.427 22.427 22.426 22.427 53.486v186.667h-75.913v-32.001H149.058v347.218h343.16v75.754h-343.16Zm409.826 2.123v-75.203q0-7.544 2.732-14.1T570.239-253L781-463q9.579-9.675 21.286-13.975 11.707-4.3 23.584-4.3 12.637 0 24.406 4.858 11.769 4.859 21.304 14.417l37 37q9.182 9.558 13.729 21.275 4.546 11.718 4.546 23.435 0 12.036-4.692 24.174t-14.25 21.696l-209.333 210q-5.926 5.891-12.499 8.503-6.574 2.613-14.117 2.613h-75.203q-16.167 0-27.022-10.855-10.855-10.855-10.855-27.022ZM862.87-380.29l-37-37 37 37Zm-240 203h38l120.203-121.166-18-19.019-19-18.018L622.87-215.328v38.038Zm140.203-140.203-19-18 37 37-18-19Z"/></svg>