<svg xmlns="http://www.w3.org/2000/svg" height="40" viewBox="0 -960 960 960" width="40"><path d="M442.123-149.616v-165.282H360q-85.896 0-146.296-60.4-60.4-60.4-60.4-146.312 0-61.091 33.04-112.632 33.04-51.541 89.518-75.896 10.355-76.275 68.482-127.174Q402.472-888.21 480-888.21t135.656 50.898q58.127 50.899 68.482 127.174 56.478 24.355 89.598 75.896 33.119 51.541 33.119 112.632 0 85.912-60.505 146.312-60.505 60.4-146.35 60.4h-82.123v165.282h197.05q16 0 26.939 10.972 10.938 10.972 10.938 27.022 0 16.05-10.938 26.905-10.939 10.855-26.939 10.855H251.74q-16 0-26.939-10.972-10.938-10.972-10.938-27.022 0-16.05 10.938-26.905 10.939-10.855 26.939-10.855h190.383ZM360-390.652h240q54.559 0 92.751-38.174 38.191-38.173 38.191-92.707 0-39.264-22.458-71.715t-58.187-48.194l-36.449-15.573-4.906-40.26q-6.666-49.377-43.238-82.2-36.571-32.822-85.704-32.822-49.133 0-85.704 32.822-36.572 32.823-43.238 82.2l-4.906 40.26-36.449 15.573q-35.729 15.721-58.187 48.274t-22.458 71.616q0 54.255 38.191 92.578 38.192 38.322 92.751 38.322Zm120-210.942Z"/></svg>