<svg xmlns="http://www.w3.org/2000/svg" height="40" viewBox="0 -960 960 960" width="40"><path d="M315.456-270.435q-101.226 0-172.885-69.42-71.658-69.42-71.658-169.732v-99.471q0-100.631 71.37-170.569 71.369-69.938 173.173-69.938 49.116 0 83.496 34.798 34.381 34.799 34.381 84.512 0 49.214-34.381 83.586-34.38 34.372-83.496 34.372h-33.383q-16.16 0-27.098-10.973-10.939-10.972-10.939-27.101 0-16.129 10.939-26.984 10.938-10.855 27.098-10.855h32.825q18.14 0 30.411-12.347t12.271-30.377q0-18.03-12.271-30.454t-30.411-12.424q-69.905 0-119.069 47.935-49.163 47.935-49.163 116.819v99.71q0 68.351 49.212 115.676t119.02 47.325q18.14 0 30.411-12.268 12.271-12.267 12.271-30.376 0-18.11-12.271-30.454-12.271-12.345-30.411-12.345h-32.825q-16.16 0-27.098-10.972-10.939-10.972-10.939-27.101 0-16.129 10.939-26.984 10.938-10.856 27.098-10.856h33.383q48.983 0 83.271 34.371 34.287 34.371 34.606 83.506v240q0 16.16-10.972 27.098-10.972 10.938-27.022 10.938-16.049 0-26.904-10.938t-10.855-27.098v-129.826q-9.746 4.798-20.406 7.008-10.66 2.209-21.718 2.209Zm329.088 0q-11.118 0-21.706-2.209-10.588-2.21-20.258-7.008v129.826q0 16.16-11.066 27.098-11.066 10.938-27.101 10.938-16.036 0-26.891-10.938-10.855-10.938-10.855-27.098v-240q.319-49.135 34.606-83.506 34.288-34.371 83.271-34.371h33.543q16 0 26.938 10.972 10.939 10.972 10.939 27.102 0 16.129-10.939 26.984-10.938 10.855-26.938 10.855h-32.826q-18.279 0-30.48 12.095-12.201 12.096-12.201 30.218t12.201 30.586q12.201 12.464 30.48 12.464 69.507 0 118.79-47.233t49.283-115.688v-99.71q0-68.884-49.163-116.819t-118.91-47.935q-18.279 0-30.48 12.237t-12.201 30.327q0 18.11 12.201 30.574 12.201 12.464 30.48 12.464h32.826q16 0 26.938 10.972 10.939 10.972 10.939 27.101 0 16.129-10.939 26.984-10.938 10.856-26.938 10.856h-33.543q-49.116 0-83.496-34.451-34.381-34.45-34.381-83.664 0-49.713 34.381-84.433 34.38-34.72 83.496-34.72 101.724 0 173.213 69.938 71.49 69.938 71.49 170.569v99.471q0 100.312-71.779 169.732-71.778 69.42-172.924 69.42ZM146.666-514.369v-91.262 91.262Zm666.668-91.262v96.283-96.283Z"/></svg>