<svg xmlns="http://www.w3.org/2000/svg" height="40" viewBox="0 -960 960 960" width="40"><path d="M726.608-229.319q-32.271 0-55.045-22.832-22.773-22.832-22.773-55.103t22.832-55.045q22.833-22.773 55.104-22.773t55.044 22.832q22.774 22.833 22.774 55.104t-22.833 55.044q-22.832 22.773-55.103 22.773ZM568.79-61.666V-80.95q0-43.124 43.022-69.08 43.022-25.956 114.855-25.956t114.855 25.956q43.022 25.956 43.022 69.08v19.283H568.79ZM479.968-562.95q34.307 0 58.644-24.53 24.337-24.53 24.337-58.764t-24.305-58.619q-24.305-24.385-58.612-24.385t-58.644 24.404q-24.337 24.404-24.337 58.674 0 34.203 24.305 58.711 24.305 24.509 58.612 24.509ZM480-480Zm-82.949 166.11q0 34.303 24.305 58.64 24.305 24.337 58.612 24.337t58.644-24.314q24.337-24.315 24.337-58.562 0-34.345-24.257-58.804-24.258-24.458-58.653-24.458-34.394 0-58.691 24.429-24.297 24.428-24.297 58.732Zm83.007 40.173q-17.026 0-28.734-11.503-11.708-11.502-11.708-28.505 0-17.106 11.649-28.813 11.65-11.708 28.677-11.708 17.026 0 28.734 11.619 11.708 11.619 11.708 28.68 0 17.06-11.649 28.645-11.65 11.585-28.677 11.585ZM267.804-686.138q0-90.183 61.097-151.189 61.097-61.007 151.149-61.007 90.052 0 151.099 61.007 61.047 61.006 61.047 151.189v168.261q0 16-10.972 26.939Q670.252-480 654.122-480q-16.129 0-26.984-10.938-10.855-10.939-10.855-26.939v-168.261q0-57.872-40.551-97.157Q535.18-822.58 480-822.58t-95.731 39.285q-40.552 39.285-40.552 97.152v412.281q0 46.956 30.185 84.42t74.967 48.116q13.412 3.004 22.413 13.406 9 10.403 9 23.968 0 19.235-14.673 30.213-14.674 10.978-32.906 6.834-72.206-16.452-118.553-73.074-46.346-56.623-46.346-133.883v-412.276Z"/></svg>