<svg xmlns="http://www.w3.org/2000/svg" height="40" viewBox="0 -960 960 960" width="40"><path d="M357.29-153.304H189.058q-30.994 0-53.374-22.714-22.38-22.713-22.38-53.04v-581.884q0-31.06 22.38-53.486 22.38-22.427 53.374-22.427h581.884q30.393 0 53.153 22.427 22.76 22.426 22.76 53.486v581.884q0 30.327-22.76 53.04-22.76 22.714-53.153 22.714H602.87l-96.109 96.109q-11.413 11.355-26.79 11.355-15.377 0-26.732-11.355l-95.949-96.109Zm122.471-172.805q83.145 0 138.598-58.191 55.452-58.191 55.452-135.7v-193.891h-194.05q-78.573 0-136.232 55.407Q285.87-603.076 285.87-520q0 29.094 8.833 55.88 8.833 26.787 24.928 51.787l-19.761 19.522Q289.391-382.572 289.471-369q.08 13.572 10.399 23.891 10.318 10.319 23.724 10.278 13.406-.04 23.978-10.278l18.583-17.761q25.432 17.587 54.334 27.174 28.902 9.587 59.272 9.587Zm46.13-244.623q10.319 10.399 10.319 24.352 0 13.952-10.319 24.271l-85.942 85.942q-10.261 10.261-23.942 10.142-13.68-.12-23.877-10.199-9.906-10.24-10.239-23.859-.333-13.619 9.573-23.605l86.884-87.123q10.319-10.319 23.772-10.319 13.452 0 23.771 10.398Z"/></svg>