<svg xmlns="http://www.w3.org/2000/svg" height="40" viewBox="0 -960 960 960" width="40"><path d="M320-32.029q-18.833 0-31.688-12.855-12.856-12.855-12.856-31.688v-80q0-85.515 59.816-145.109Q395.087-361.275 480-361.275q13.645 0 25.544 1.587 11.898 1.587 24.116 4.949l21.5-33.131-81.921-7.775q-99.261-10.08-165.964-83.456-66.703-73.377-66.703-172.972 0-101.021 66.576-174.597 66.577-73.576 166.33-82.91l177.595-17.761q33.224-2.811 57.84 19.486 24.616 22.297 24.616 56.029v397.841q0 34.13-24.616 56.427-24.616 22.297-58.079 19.246l-14.762-1.333-35.847 54.051q40.166 27.478 64.242 71.833 24.077 44.355 24.077 97.189v80q0 18.833-12.856 31.688Q658.833-32.029 640-32.029H320Z"/></svg>