<svg xmlns="http://www.w3.org/2000/svg" height="40" viewBox="0 -960 960 960" width="40"><path d="M360-336.014h250q47.667 0 80.826-33.58 33.16-33.58 33.16-80.406 0-45.797-30.66-78.373-30.659-32.576-76.377-35.373-13.797-45.479-51.608-72.859-37.811-27.381-85.264-27.381-41.396 0-76.073 21.54-34.678 21.54-52.395 59.7-48.797 3.116-82.196 38.391-33.399 35.276-33.399 84.355 0 51.661 36.163 87.823 36.162 36.163 87.823 36.163Zm0-73.841q-20.978 0-35.562-14.583-14.583-14.584-14.583-35.562 0-20.978 14.108-35.055 14.109-14.076 34.276-15.09h41.913l16.797-39.739q8.775-18.551 25.856-29.406 17.08-10.855 37.197-10.855 23.629 0 42.005 13.609 18.377 13.608 25.377 36.333l13.971 50.058H611q16.904 0 28.025 11.58 11.12 11.581 11.12 28.508 0 16.035-11.596 28.119-11.597 12.083-28.549 12.083H360Zm120.022 336.55q-83.95 0-158.142-31.958-74.193-31.958-129.426-87.191-55.233-55.233-87.191-129.404-31.959-74.171-31.959-158.12 0-84.616 31.959-158.809 31.958-74.193 87.166-129.101t129.39-86.937q74.183-32.03 158.146-32.03 84.629 0 158.841 32.017 74.211 32.018 129.107 86.905 54.897 54.886 86.919 129.086Q886.855-564.648 886.855-480q0 83.972-32.03 158.162-32.029 74.19-86.937 129.403-54.908 55.214-129.079 87.172-74.171 31.959-158.787 31.959Z"/></svg>