<svg xmlns="http://www.w3.org/2000/svg" height="40" viewBox="0 -960 960 960" width="40"><path d="M480.071-188.79q82.148 0 139.977-57.879 57.829-57.878 57.829-139.997v-186.668q0-82.119-57.9-139.998-57.9-57.878-140.048-57.878t-139.977 57.878q-57.829 57.879-57.829 139.998v186.668q0 82.119 57.9 139.997 57.9 57.879 140.048 57.879Zm.007-75.753q-50.991 0-86.596-35.549-35.605-35.55-35.605-86.574v-186.668q0-51.024 35.526-86.573 35.527-35.55 86.519-35.55 50.991 0 86.596 35.55 35.605 35.549 35.605 86.573v186.668q0 51.024-35.526 86.574-35.527 35.549-86.519 35.549Zm.039-310.914q14.216 0 23.716-9.617 9.5-9.617 9.5-23.833 0-14.216-9.617-23.716-9.617-9.5-23.833-9.5-14.216 0-23.716 9.617-9.5 9.617-9.5 23.833 0 14.216 9.617 23.716 9.617 9.5 23.833 9.5ZM189.058-33.304q-31.494 0-53.624-22.13-22.13-22.13-22.13-53.624v-741.884q0-31.56 22.13-53.736 22.13-22.177 53.624-22.177h581.884q31.56 0 53.736 22.177 22.177 22.176 22.177 53.736v741.884q0 31.494-22.177 53.624-22.176 22.13-53.736 22.13H189.058Zm0-75.754h581.884v-741.884H189.058v741.884Zm0 0v-741.884 741.884Z"/></svg>