<svg xmlns="http://www.w3.org/2000/svg" height="40" viewBox="0 -960 960 960" width="40"><path d="M315.551-113.304q-84.494 0-143.37-58.877-58.877-58.876-58.877-143.37v-329.058q0-84.752 58.877-143.499 58.876-58.747 143.37-58.747h329.058q84.752 0 143.499 58.747t58.747 143.499v329.058q0 84.494-58.747 143.37-58.747 58.877-143.499 58.877H315.551Zm.079-75.754h328.74q53.656 0 90.114-36.445 36.458-36.446 36.458-90.127v-328.74q0-53.656-36.458-90.114-36.458-36.458-90.114-36.458H315.63q-53.681 0-90.127 36.458-36.445 36.458-36.445 90.114v328.74q0 53.681 36.445 90.127 36.446 36.445 90.127 36.445Zm164.262-92.681q-82.689 0-140.421-57.791t-57.732-140.743q0-83.111 57.791-140.549 57.791-57.439 140.743-57.439 83.111 0 140.549 57.46 57.439 57.46 57.439 140.909 0 82.689-57.46 140.421t-140.909 57.732Zm.108-75.913q51.982 0 87.245-35.161 35.262-35.161 35.262-87.187 0-51.982-35.262-87.245-35.263-35.262-87.365-35.262-51.942 0-87.085 35.262-35.143 35.263-35.143 87.365 0 51.942 35.161 87.085 35.161 35.143 87.187 35.143Z"/></svg>