<svg xmlns="http://www.w3.org/2000/svg" height="40" viewBox="0 -960 960 960" width="40"><path d="M308.558-190.413v29.16q0 21.912-15.143 37.043-15.142 15.13-37.07 15.13-21.809 0-37.091-15.31-15.283-15.31-15.283-37.102v-66.479q-25.493-17.936-38.08-46.899t-12.587-61.611v-374.167L49.666-814.298q-10.318-10.395-10.398-24.828-.08-14.432 10.459-24.911 10.471-10.478 24.87-10.478 14.397 0 24.808 10.478l757.487 757.486q10.318 10.522 10.398 24.392.08 13.87-10.459 24.347-10.471 10.478-24.869 10.478t-24.809-10.478L658.5-205.624h99.318v43.69q0 21.813-15.544 37.334-15.544 15.52-37.391 15.52-21.846 0-37.643-15.716-15.798-15.717-15.798-37.805v-27.812H308.558Zm482.413-81.217L526.16-536.441h204.782v-155.335H370.825L221.369-841.391q38.971-21.95 102.899-32.79 63.927-10.841 156.399-10.841 171.684 0 248.936 36.585 77.252 36.586 77.252 118.27v393.725q0 17.043-4.029 33.478-4.029 16.435-11.855 31.334Zm-458.99-40.087q23.468 0 40.048-16.539 16.579-16.54 16.579-40.167 0-23.468-16.619-40.048-16.618-16.579-40.166-16.579t-40.048 16.619q-16.5 16.619-16.5 40.166 0 23.548 16.539 40.048 16.54 16.5 40.167 16.5ZM229.058-536.441h98.465l-98.465-98.386v98.386Z"/></svg>