<svg xmlns="http://www.w3.org/2000/svg" height="40" viewBox="0 -960 960 960" width="40"><path d="M119.463-480q0 65.261 21.732 124.913 21.732 59.653 62.754 107.153 8.638 9.862 9.018 22.271.381 12.41-8.83 21.62-9.21 9.21-21.865 8.25-12.656-.96-21.548-10.917-47.181-55.072-73.916-124.895Q60.072-401.427 60.072-480q0-78.573 26.736-148.395 26.735-69.823 73.916-124.895 8.892-9.957 21.548-10.87 12.655-.913 21.865 8.297 9.211 9.211 8.83 21.573-.38 12.362-9.018 22.224-41.022 47.501-62.754 107.153Q119.463-545.261 119.463-480Zm122.421 0q0 38.848 13.126 77.442 13.127 38.595 37.222 68.008 7.891 10.195 8.358 22.177.468 11.982-8.503 20.953-9.21 9.21-21.406 8.417-12.196-.794-20.21-10.595-30.919-38.548-49.369-86.451-18.45-47.902-18.45-99.937 0-52.036 18.45-99.947t49.369-86.467q8.014-9.803 19.877-10.263 11.862-.46 21.072 8.75 8.971 8.971 8.837 20.619-.134 11.649-8.025 21.685-24.095 29.572-37.222 68.167-13.126 38.594-13.126 77.442Zm198.315 183.507q0-22.222-15.676-45.067-15.675-22.846-34.273-47.103-18.598-24.257-34.203-50.848-15.605-26.59-15.605-56.213 0-57.822 40.99-98.81 40.99-40.987 98.576-40.987 57.825 0 98.688 40.987 40.862 40.988 40.862 98.81 0 29.623-15.605 56.213-15.605 26.591-34.203 50.848-18.598 24.257-34.203 47.103-15.605 22.845-15.605 45.067h-79.743Zm-1.315 55.406v-13.891h82.391v13.891q0 17.343-11.978 29.229-11.978 11.887-29.314 11.887-17.335 0-29.217-11.887-11.882-11.886-11.882-29.229ZM718.356-480q0-38.848-13.127-77.442-13.127-38.595-37.221-68.167-7.892-9.995-8.439-21.878-.547-11.883 8.504-20.854 9.29-9.21 21.605-8.536 12.315.674 20.366 10.536 30.732 38.449 49.257 86.368T777.826-480q0 52.054-18.525 99.973t-49.257 86.368q-8.051 9.862-20.033 10.203-11.982.34-21.272-8.87-9.05-8.971-8.837-20.5.214-11.529 8.106-21.724 24.094-29.413 37.221-68.008 13.127-38.594 13.127-77.442Zm122.42 0q0-65.181-21.613-124.634-21.612-59.453-62.395-107.113-8.814-9.924-9.306-22.462-.491-12.538 8.719-21.748 9.211-9.21 21.946-8.25 12.735.96 21.627 10.917 47.022 55.072 73.837 124.895Q900.406-558.573 900.406-480q0 78.573-26.815 148.395-26.815 69.823-73.837 124.895-8.892 9.957-21.747 10.87-12.855.913-21.985-8.297-9.13-9.211-8.591-21.692.54-12.482 9.337-22.424 40.783-47.66 62.395-107.113Q840.776-414.819 840.776-480Z"/></svg>