<svg xmlns="http://www.w3.org/2000/svg" height="40" viewBox="0 -960 960 960" width="40"><path d="M480.022-73.304q-83.95 0-158.145-31.939-74.196-31.938-129.446-87.188t-87.188-129.424q-31.939-74.174-31.939-158.123 0-84.616 31.939-158.812 31.938-74.196 87.163-129.121 55.225-54.925 129.41-86.934 74.186-32.01 158.149-32.01 84.629 0 158.844 31.997 74.214 31.998 129.127 86.902 54.914 54.903 86.916 129.106 32.003 74.202 32.003 158.85 0 83.972-32.01 158.165-32.009 74.193-86.934 129.423-54.925 55.231-129.099 87.169-74.174 31.939-158.79 31.939ZM479-195.333q12.59 0 21.925-9.047 9.336-9.047 9.336-22.323v-18.848q56.348-7.507 91.507-39.84 35.16-32.334 35.16-87.937 0-49.266-27.24-82.1-27.239-32.833-98.536-56.833-61.688-20.666-84.623-39.254-22.935-18.587-22.935-48.789 0-28.151 20.569-44.127 20.569-15.975 56.721-15.975 22.746 0 40.294 8.174 17.547 8.174 30.373 24.493 8.638 10.13 20.109 13.231 11.471 3.102 21.695-2.456 12.812-6.131 16.739-18.656 3.928-12.525-3.724-23.322-16.827-23.747-40.515-38.13-23.688-14.382-53.594-17.537v-18.688q0-13.515-9.455-22.109Q493.351-764 481-764t-22.139 8.594q-9.788 8.594-9.788 22.109v18.688q-51.464 8.812-80.066 40.222-28.601 31.409-28.601 74.991 0 49.193 26.924 78.751 26.924 29.558 95.062 54.688 65.703 24.551 88.525 43.406 22.822 18.855 22.822 49.218 0 32.208-24.876 51.973-24.877 19.766-62.196 19.766-30.29 0-55.227-14.435-24.937-14.435-39.419-41.543-6.558-10.718-17.076-15.743t-21.648-1.04q-14.21 5.399-19.217 17.783-5.008 12.384 2.137 24.688 18.906 33.732 46.399 54.565 27.493 20.834 64.457 29.768v21.196q0 12.877 9.668 21.949 9.669 9.073 22.259 9.073Z"/></svg>