<svg xmlns="http://www.w3.org/2000/svg" height="40" viewBox="0 -960 960 960" width="40"><path d="M177.876-124.245v21.47q0 16-10.938 26.938-10.939 10.939-26.939 10.939h-30.651q-16 0-26.939-10.939-10.938-10.938-10.938-26.938v-46.013q0-16 10.938-26.939 10.939-10.938 26.939-10.938h741.304q16 0 26.939 10.938 10.938 10.939 10.938 26.939v46.013q0 16-10.938 26.938-10.939 10.939-26.939 10.939h-30.651q-16 0-26.939-10.939-10.938-10.938-10.938-26.938v-21.47H533.282v21.47q0 16-10.938 26.938-10.938 10.939-26.938 10.939h-30.652q-16.16 0-27.098-10.939-10.938-10.938-10.938-26.938v-21.47H177.876Zm55.457-191.211q-16 0-26.938-10.939-10.939-10.938-10.939-26.938v-493.334q0-16 10.939-26.938 10.938-10.939 26.938-10.939h493.334q16 0 26.938 10.939 10.939 10.938 10.939 26.938v500.001q0 13.326-8.942 22.268t-22.268 8.942H233.333Zm338.885-332.059q13.166 0 22.188-9.021 9.022-9.022 9.022-22.348 0-13.167-9.022-22.188-9.022-9.022-22.188-9.022H387.942q-13.326 0-22.348 9.022-9.022 9.021-9.022 22.188 0 13.326 9.022 22.348 9.022 9.021 22.348 9.021h184.276Z"/></svg>