<svg xmlns="http://www.w3.org/2000/svg" height="40" viewBox="0 -960 960 960" width="40"><path d="M412.573-225.971H179.014q-22.71 0-33.906-20.058-11.195-20.057 2.16-39.115l139.551-203.494H261.71q-20.574 0-30.399-17.993-9.826-17.992 2.414-34.898l214.862-305.609q5.668-7.861 14.21-12.133 8.542-4.273 17.203-4.273t17.203 4.273q8.542 4.272 14.21 12.133l215.022 305.609q12.08 16.906 2.254 34.898-9.825 17.993-30.399 17.993h-24.443l138.885 203.494q13.355 19.058 2.16 39.115-11.196 20.058-33.906 20.058H548.094v114.79q0 16-10.855 26.938-10.855 10.939-26.701 10.939h-60.25q-16.005 0-26.86-10.939-10.855-10.938-10.855-26.938v-114.79Z"/></svg>