<svg xmlns="http://www.w3.org/2000/svg" height="40" viewBox="0 -960 960 960" width="40"><path d="M549.616-432.804q-50 0-85-35t-35-85q0-50 35-85t85-35q50 0 85 35t35 85q0 50-35 85t-85 35ZM249.245-293.333q-31.399 0-53.656-22.256-22.256-22.257-22.256-53.656v-367.038q0-31.314 22.256-53.613 22.257-22.3 53.656-22.3h601.139q31.249 0 53.501 22.3 22.253 22.299 22.253 53.613v367.038q0 31.399-22.253 53.656-22.252 22.256-53.501 22.256H249.245Zm90.225-72.804H760q0-39 27.167-66.167 27.167-27.166 66.167-27.166v-186.668q-39 0-66.167-27.246Q760-700.631 760-739.471H339.47q0 38.84-27.166 66.087-27.167 27.246-66.167 27.246v186.668q39 0 66.167 27.166 27.166 27.167 27.166 66.167Zm422.653 212.275H109.616q-31.249 0-53.501-22.253-22.253-22.252-22.253-53.501v-412.507q0-16 10.972-26.939Q55.806-680 71.856-680q16.05 0 26.904 10.938 10.856 10.939 10.856 26.939v412.507h652.507q16 0 26.939 10.972Q800-207.672 800-191.622q0 16.05-10.938 26.905-10.939 10.855-26.939 10.855ZM246.137-366.137v-373.334 373.334Z"/></svg>