<svg xmlns="http://www.w3.org/2000/svg" height="40" viewBox="0 -960 960 960" width="40"><path d="M291.703-191.21h376.203L795.421-572.5 480-792.421 164.579-572.5l127.124 381.29Zm-.515 75.754q-24.595 0-44.576-14.209-19.982-14.208-27.525-37.596L92.239-548.457q-7.783-24.043-.047-47.877 7.735-23.835 28.808-38.151l315.899-220.921q19.778-13.514 43.081-13.514 23.303 0 43.281 13.514L839-634.485q21.073 14.316 28.808 38.151 7.736 23.834-.047 47.877L740.913-167.261q-7.543 23.388-27.525 37.596-19.981 14.209-44.576 14.209H291.188ZM480-492.015Z"/></svg>