<svg xmlns="http://www.w3.org/2000/svg" height="40" viewBox="0 -960 960 960" width="40"><path d="M113.304-151.181v-697.638q0-15.98 10.972-27.008 10.972-11.028 27.022-11.028 16.05 0 26.905 11.028t10.855 27.008v41.964h581.884v-41.964q0-15.98 10.972-27.008 10.972-11.028 27.008-11.028t26.984 11.028q10.949 11.028 10.949 27.008v697.638q0 16-11.066 26.938-11.065 10.939-27.101 10.939t-26.891-10.939q-10.855-10.938-10.855-26.938v-410.674H189.058v410.674q0 16-10.972 26.938-10.972 10.939-27.022 10.939-16.05 0-26.905-10.939-10.855-10.938-10.855-26.938Zm75.754-486.428h581.884v-93.333H189.058v93.333Zm253.065 486.428v-83.768h-81.645q-16.159 0-27.097-10.972-10.939-10.972-10.939-27.022 0-16.05 10.939-26.905 10.938-10.855 27.097-10.855h239.203q16 0 26.939 10.972 10.938 10.972 10.938 27.022 0 16.05-10.938 26.905-10.939 10.855-26.939 10.855h-81.804v83.768q0 16-10.972 26.938-10.972 10.939-27.022 10.939-16.05 0-26.905-10.939-10.855-10.938-10.855-26.938ZM189.058-637.609v-93.333 93.333Z"/></svg>