<svg xmlns="http://www.w3.org/2000/svg" height="40" viewBox="0 -960 960 960" width="40"><path d="M167.739-484.616q-39.863 0-67.268-27.551-27.406-27.551-27.406-67.452 0-39.902 27.49-67.377 27.49-27.475 67.302-27.475 39.947 0 67.385 27.489 27.439 27.49 27.439 67.453 0 39.963-27.49 67.438-27.489 27.475-67.452 27.475Zm186.699-169.298q-39.801 0-67.206-27.484-27.406-27.485-27.406-67.29 0-39.805 27.485-67.323 27.484-27.518 67.289-27.518 39.806 0 67.324 27.489t27.518 67.452q0 39.863-27.551 67.269-27.551 27.405-67.453 27.405Zm250.944 0q-39.788 0-67.306-27.489-27.518-27.49-27.518-67.303 0-39.946 27.551-67.385 27.551-27.438 67.453-27.438 39.801 0 67.286 27.556t27.485 67.465q0 39.809-27.582 67.202-27.582 27.392-67.369 27.392Zm186.761 169.298q-39.947 0-67.385-27.556-27.439-27.557-27.439-67.465 0-40.043 27.49-67.439 27.489-27.395 67.452-27.395 39.863 0 67.268 27.551 27.406 27.551 27.406 67.452 0 39.902-27.49 67.377-27.49 27.475-67.302 27.475ZM264.167-70.776q-44.116 0-72.921-33.19-28.804-33.19-28.804-78.701 0-46.043 29.471-81.068t60.471-68.473q24.094-25.813 44.079-54.352 19.986-28.54 41.384-56.938 27.032-38.484 61.181-69.801t80.959-31.317q46.81 0 81.293 31.058 34.482 31.057 61.779 70.06 20.949 28.129 40.619 56.796 19.669 28.667 43.938 54.478 31 33.464 60.471 68.489 29.471 35.025 29.471 81.068 0 45.511-28.804 78.701-28.805 33.19-72.921 33.19-54.637 0-107.916-9.119-53.28-9.12-107.917-9.12t-107.917 9.12q-53.279 9.12-107.916 9.12Z"/></svg>