<svg xmlns="http://www.w3.org/2000/svg" height="40" viewBox="0 -960 960 960" width="40"><path d="M269.616-33.862q-30.994 0-53.374-22.38-22.38-22.38-22.38-53.374v-740.768q0-30.994 22.38-53.374 22.38-22.38 53.374-22.38h420.768q30.994 0 53.374 22.38 22.38 22.38 22.38 53.374v740.768q0 30.994-22.38 53.374-22.38 22.38-53.374 22.38H269.616ZM480-126.282q14.333 0 23.833-9.5 9.5-9.5 9.5-23.833 0-14.334-9.5-23.833-9.5-9.5-23.833-9.5-14.333 0-23.833 9.5-9.5 9.499-9.5 23.833 0 14.333 9.5 23.833 9.5 9.5 23.833 9.5ZM269.616-276.281h420.768v-474.104H269.616v474.104Z"/></svg>