<svg xmlns="http://www.w3.org/2000/svg" height="40" viewBox="0 -960 960 960" width="40"><path d="M269.616-33.862q-30.994 0-53.374-22.38-22.38-22.38-22.38-53.374v-740.768q0-30.994 22.38-53.374 22.38-22.38 53.374-22.38h420.768q30.994 0 53.374 22.38 22.38 22.38 22.38 53.374v740.768q0 30.994-22.38 53.374-22.38 22.38-53.374 22.38H269.616Zm0-175.753v99.999h420.768v-99.999H269.616Zm210.501 83.333q14.216 0 23.716-9.617 9.5-9.617 9.5-23.833 0-14.217-9.617-23.716-9.617-9.5-23.833-9.5-14.216 0-23.716 9.616-9.5 9.617-9.5 23.834 0 14.216 9.617 23.716 9.617 9.5 23.833 9.5ZM269.616-276.281h420.768v-474.104H269.616v474.104Zm0-540.77h420.768v-33.333H269.616v33.333Zm0 607.436v99.999-99.999Zm0-607.436v-33.333 33.333Z"/></svg>