<svg xmlns="http://www.w3.org/2000/svg" height="40" viewBox="0 -960 960 960" width="40"><path d="M229.058-73.304q-30.994 0-53.374-22.38-22.38-22.38-22.38-53.374v-661.884q0-31.06 22.38-53.486 22.38-22.427 53.374-22.427h501.884q31.06 0 53.486 22.427 22.427 22.426 22.427 53.486v661.884q0 30.994-22.427 53.374-22.426 22.38-53.486 22.38H229.058Zm216.275-201.363L391.5-341.942q-6.184-7.543-15.027-7.543-8.842 0-14.973 7.543l-56.297 73.862q-7.29 9.845-2.192 19.962Q308.109-238 320.21-238h322.58q11.424 0 16.527-10.148 5.103-10.149-1.36-19.518l-93.124-123.943q-6.142-7.543-15.212-7.543t-15.201 7.543l-89.087 116.942Zm25.893-536.275v238.347q0 10.609 9.066 16.12 9.066 5.511 19.028.127l50.514-29.573q8.99-5.225 18.948-5.225t19.501 5.225l50.008 29.573q9.913 5.384 19.423-.127 9.511-5.511 9.511-16.12v-238.347H471.226Z"/></svg>