<svg xmlns="http://www.w3.org/2000/svg" height="40" viewBox="0 -960 960 960" width="40"><path d="M184.536-201.957h251.073q11.34 0 16.612-10.16 5.272-10.161-1.446-20.013l-68.753-91.624q-5.971-7.543-15.087-7.877-9.116-.333-15.087 7.211l-48.087 61.956q-5.971 7.544-15.087 7.544t-15.087-7.544l-26.942-34.572q-6.131-7.703-15.167-7.243-9.036.46-15.167 8.003l-47.275 64.146q-6.717 9.852-1.406 20.013 5.312 10.16 16.906 10.16Zm4.522 88.653q-31.494 0-53.624-22.13-22.13-22.13-22.13-53.624v-253.065q0-31.326 22.13-53.54t53.624-22.214h253.065q31.326 0 53.54 22.214t22.214 53.54v253.065q0 31.494-22.214 53.624-22.214 22.13-53.54 22.13H189.058Zm-38.056-657.638q-15.988 0-26.843-11.034-10.855-11.033-10.855-27.022 0-15.988 11.002-26.922 11.001-10.935 26.942-10.935 15.94 0 26.875 11.062 10.935 11.061 10.935 27.091 0 15.962-11.034 26.861-11.033 10.899-27.022 10.899Zm164.511 0q-15.962 0-26.86-11.034-10.899-11.033-10.899-27.022 0-15.988 11.033-26.922 11.034-10.935 27.022-10.935 15.988 0 26.923 11.062 10.934 11.061 10.934 27.091 0 15.962-11.061 26.861-11.062 10.899-27.092 10.899Zm164.37 0q-16.05 0-26.905-11.034-10.855-11.033-10.855-27.022 0-15.988 10.972-26.922 10.972-10.935 27.022-10.935 16.05 0 26.905 11.062 10.855 11.061 10.855 27.091 0 15.962-10.972 26.861-10.972 10.899-27.022 10.899Zm164.547 0q-15.988 0-26.923-11.034-10.934-11.033-10.934-27.022 0-15.988 11.061-26.922 11.062-10.935 27.092-10.935 15.962 0 26.861 11.062 10.898 11.061 10.898 27.091 0 15.962-11.033 26.861-11.034 10.899-27.022 10.899Zm164.272 0q-15.962 0-26.861-11.034-10.899-11.033-10.899-27.022 0-15.988 11.034-26.922 11.033-10.935 27.022-10.935 15.988 0 26.922 11.062 10.935 11.061 10.935 27.091 0 15.962-11.062 26.861-11.061 10.899-27.091 10.899ZM644.43-113.304q-15.988 0-26.923-11.002-10.934-11.001-10.934-26.942 0-15.94 11.061-26.875 11.062-10.935 27.092-10.935 15.962 0 26.861 11.034 10.898 11.033 10.898 27.022 0 15.988-11.033 26.843-11.034 10.855-27.022 10.855ZM151.002-606.573q-15.988 0-26.843-11.061-10.855-11.062-10.855-27.092 0-15.962 11.002-26.861 11.001-10.898 26.942-10.898 15.94 0 26.875 11.033 10.935 11.034 10.935 27.022 0 15.988-11.034 26.923-11.033 10.934-27.022 10.934Zm657.7 0q-15.962 0-26.861-11.061-10.899-11.062-10.899-27.092 0-15.962 11.034-26.861 11.033-10.898 27.022-10.898 15.988 0 26.922 11.033 10.935 11.034 10.935 27.022 0 15.988-11.062 26.923-11.061 10.934-27.091 10.934Zm0 164.45q-15.962 0-26.861-10.972-10.899-10.972-10.899-27.022 0-16.05 11.034-26.905 11.033-10.855 27.022-10.855 15.988 0 26.922 10.972 10.935 10.972 10.935 27.022 0 16.05-11.062 26.905-11.061 10.855-27.091 10.855Zm0 164.369q-15.962 0-26.861-11.033-10.899-11.034-10.899-27.022 0-15.988 11.034-26.923 11.033-10.934 27.022-10.934 15.988 0 26.922 11.061 10.935 11.062 10.935 27.092 0 15.962-11.062 26.86-11.061 10.899-27.091 10.899Zm0 164.45q-15.962 0-26.861-11.002-10.899-11.001-10.899-26.942 0-15.94 11.034-26.875 11.033-10.935 27.022-10.935 15.988 0 26.922 11.034 10.935 11.033 10.935 27.022 0 15.988-11.062 26.843-11.061 10.855-27.091 10.855Z"/></svg>