<svg xmlns="http://www.w3.org/2000/svg" height="40" viewBox="0 -960 960 960" width="40"><path d="M448-189.058h64v-80.369l138.942-148.277v-185.905H309.058v185.906L448-269.627v80.569Zm-75.754 37.877v-87.167L254.348-364.754q-10.137-10.328-15.591-23.768-5.453-13.441-5.453-28.181v-186.906q0-31.493 22.13-53.743 22.13-22.249 53.624-22.249h59.5l-37.876 37.637v-166.855q0-15.98 10.972-27.008 10.972-11.028 27.007-11.028 16.036 0 26.985 11.028 10.948 11.028 10.948 27.008v129.297h146.971v-129.297q0-15.98 10.972-27.008 10.972-11.028 27.022-11.028 16.049 0 26.904 11.028t10.855 27.008v166.855l-37.876-37.637h59.5q31.56 0 53.736 22.249 22.177 22.25 22.177 53.743v186.906q0 14.764-5.54 28.227-5.539 13.462-15.663 23.722L587.913-238.348v87.167q0 16-11.028 26.938-11.028 10.939-27.008 10.939H410.165q-16.042 0-26.98-10.939-10.939-10.938-10.939-26.938ZM480-396.667Z"/></svg>