<svg xmlns="http://www.w3.org/2000/svg" height="40" viewBox="0 -960 960 960" width="40"><path d="M345.072-153.304H229.058q-31.494 0-53.624-22.13-22.13-22.13-22.13-53.624v-115.63l-81.66-82.269q-11.021-11.275-16.325-24.982-5.305-13.707-5.305-27.937 0-14.229 5.305-28.06 5.304-13.832 16.326-25.107l81.659-82.269v-115.63q0-31.56 22.13-53.736 22.13-22.177 53.624-22.177h115.63l82.269-81.5q11.355-11.022 25.454-16.326 14.1-5.305 28.393-5.305 14.292 0 27.936 5.768 13.643 5.768 24.97 16.529l81.326 80.834h115.906q31.56 0 53.736 22.177 22.177 22.176 22.177 53.736v115.63l81.5 82.269q11.022 11.355 16.326 24.997 5.305 13.642 5.305 27.927 0 14.286-5.305 28.046-5.304 13.761-16.326 25.116l-81.5 82.269v115.63q0 31.494-22.177 53.624-22.176 22.13-53.736 22.13H615.036L533.71-72.978q-11.247 10.601-24.961 16.116-13.714 5.514-27.951 5.514-14.236 0-28.043-5.514-13.808-5.515-25.132-16.116l-82.551-80.326Zm175.37-346.377 58.166-42.345 57.165 42.345-22.57-67.141 58.167-42.345h-71.166l-21.559-68.123-21.835 68.123h-72.049l58.442 42.345-22.761 67.141Zm-40.52 217.051q82.042 0 139.705-57.243 57.663-57.243 57.663-140.099 0-8.028-.58-15.869-.58-7.84-2.345-15.84-11.027 46.646-48.52 76.645-37.493 30-87.658 30-58.948 0-99.549-40.507-40.602-40.506-40.602-99.463 0-45.639 25.761-81.581t66.964-50.703H480q-82.884 0-140.127 57.663-57.243 57.663-57.243 139.705 0 82.806 57.243 140.049 57.243 57.243 140.049 57.243Z"/></svg>