<svg xmlns="http://www.w3.org/2000/svg" height="40" viewBox="0 -960 960 960" width="40"><path d="M180.818-115.456q-48.077 0-81.342-33.214-33.266-33.214-33.266-81.214V-399.32q0-6.695 1.286-13.397t3.765-13.102l102.427-267.775q12.61-33.049 42.324-51.999 29.714-18.951 64.981-18.951 37.326 0 64.968 24.559 27.641 24.558 32.083 60.689v78.557l-78.682 78.681q-9.557 9.587-9.057 22.37.5 12.782 10.076 22.34 9.577 9.718 22.799 9.718t22.798-9.718l96.145-95.985v-273.334q0-16.166 10.855-27.022 10.855-10.855 27.022-10.855 16.167 0 27.022 10.855 10.855 10.856 10.855 27.022v273.334l97.05 96.891q9.544 9.717 22.721 9.264 13.178-.452 22.895-10.17 9.558-9.543 9.558-22.721 0-13.177-9.558-22.895l-78.681-77.775v-78.557q4.442-36.131 32.015-60.689 27.572-24.559 64.753-24.559 35.305 0 65.041 18.964 29.735 18.964 42.547 51.986l102.427 267.775q2.478 6.4 3.765 13.102 1.286 6.702 1.286 13.397v169.436q0 48-33.359 81.214-33.358 33.214-81.25 33.214H634.355q-47.917 0-81.136-33.22Q520-181.896 520-229.906v-66.596q0-2.729.5-5.601.5-2.871.739-5.469l18.319-136.421-59.559-60.717-60.557 60.717 19.319 136.421q.239 2.622.739 5.409.5 2.788.5 5.649v66.608q0 48.01-33.266 81.23-33.265 33.22-81.183 33.22H180.818Z"/></svg>