<svg xmlns="http://www.w3.org/2000/svg" height="40" viewBox="0 -960 960 960" width="40"><path d="M189.058-73.304q-30.994 0-53.374-22.38-22.38-22.38-22.38-53.374v-595.218q0-31.059 22.38-53.486 22.38-22.427 53.374-22.427h54.275v-66.666h74.544v66.666h324.246v-66.666h74.544v66.666h54.275q31.06 0 53.486 22.427 22.427 22.427 22.427 53.486v595.218q0 30.994-22.427 53.374-22.426 22.38-53.486 22.38H189.058Zm0-75.754h581.884v-595.218H189.058v595.218Zm167.196 0v-81.587l-71.203-82.964q-11.239-11.558-20.138-31.127-8.899-19.569-8.899-45.319 0-12.945 2.446-25.445t8.315-24.5q-4.84-11-7.8-23.62-2.961-12.619-2.961-26.38 0-25.728 8.899-45.28 8.899-19.553 20.138-31.111l70.963-82.964v-94.921h69.247V-637q0 6.594-8.036 22.188l-80.239 94.24q-6.203 7.043-8.964 14.733t-2.761 15.832q0 17.616 11.326 30.681 11.326 13.065 29.196 13.065 7.551 0 14.794-2.632 7.244-2.632 12.677-8.774 17.792-17.877 40.241-27.235 22.448-9.359 46.463-9.359 24.014 0 46.503 9.359 22.488 9.358 40.285 27.235 6.219 6.455 13.343 8.93 7.124 2.476 13.889 2.476 17.693 0 29.187-12.946 11.494-12.945 11.494-29.786 0-8.147-3.129-15.841-3.129-7.695-8.516-14.738l-80-94.914q-3.76-3.768-6.058-9.578-2.297-5.81-2.297-12.936v-107.276h69.087v94.921l72.178 84.939q14.504 16.503 21.163 35.685 6.659 19.181 6.659 39.731 0 13-3.221 25.5t-8.061 23.5q5.761 12 8.641 24.5 2.881 12.5 2.881 25.5 0 25.728-8.899 45.28-8.899 19.553-20.138 31.111l-70.963 82.964v81.587h-69.088V-243q0-7.355 7.877-22.188l78.087-91.848q5.486-6.406 7.928-13.573 2.442-7.166 2.442-14.492-8.928 4.123-17.642 6.105-8.714 1.982-18.59 1.982-20.797 0-41.594-8.279T517-410.29q-6.471-7.282-16.098-11.003-9.627-3.721-20.81-3.721-10.203 0-19.943 3.641-9.739 3.641-17.2 11.083-15.319 16.239-35.617 24.757-20.298 8.519-41.571 8.519-9.688 0-18.877-1.982-9.188-1.982-18.116-6.105 0 7.326 2.442 14.492 2.442 7.167 7.928 13.573l78.087 91.848q3.341 5.31 5.728 10.616 2.388 5.305 2.388 11.572v93.942h-69.087Zm-167.196 0v-595.218 595.218Z"/></svg>