<svg xmlns="http://www.w3.org/2000/svg" height="40" viewBox="0 -960 960 960" width="40"><path d="M403.467-276.667q23.468 0 40.047-16.539 16.58-16.539 16.58-40.166 0-23.628-16.619-40.128T403.388-390q-23.627 0-40.127 16.539-16.5 16.54-16.5 40.167 0 23.627 16.539 40.127 16.539 16.5 40.167 16.5ZM76.572-304.225v-377.05q0-87.493 80.095-127.214 80.094-39.721 247.877-39.721 17.182 0 44.229.906 27.047.905 45.365 2.318-24.123 43.145-28.703 94.018-4.579 50.874 7.587 98.75H152.485v143.334h422.712q30.587 24.565 73.315 36.474 42.728 11.909 81.611 10.076v158.109q0 60.595-40.5 103.845t-99.5 45.96l73.457 49.109q11.435 7.543 7.29 20.97-4.145 13.428-18.232 13.428H154.217q-14.087 0-18.311-13.427-4.225-13.428 7.369-20.971l73.297-49.109q-59-2.71-99.5-45.96t-40.5-103.845Zm646.856-218.724q-83 0-141.5-58.5t-58.5-141.5q0-83 58.5-141.5t141.5-58.5q83 0 141.5 58.5t58.5 141.5q0 83-58.5 141.5t-141.5 58.5ZM727.286-695q7.939 0 13.79-5.815 5.852-5.814 5.852-13.819v-113.439q0-7.837-5.805-13.716-5.804-5.878-13.742-5.878-7.939 0-13.79 5.878-5.852 5.879-5.852 13.716v113.439q0 8.005 5.805 13.819Q719.348-695 727.286-695Zm.048 91.5q10.182 0 17.62-7.438 7.438-7.438 7.438-17.62 0-10.183-7.438-17.621-7.438-7.437-17.62-7.437-10.183 0-17.621 7.437-7.438 7.438-7.438 17.621 0 10.182 7.438 17.62 7.438 7.438 17.621 7.438Z"/></svg>