<svg xmlns="http://www.w3.org/2000/svg" height="40" viewBox="0 -960 960 960" width="40"><path d="M786.812-78.297 89.551-774.145q-10.225-10.225-10.304-24.41-.08-14.184 10.225-24.409 10.306-10.384 24.782-10.384 14.477 0 24.782 10.384l696.595 695.928q10.225 10.225 10.304 24.29.08 14.065-10.304 24.45-10.225 10.224-24.409 10.224-14.185 0-24.41-10.225Zm-62.283-403.326-30.616 113.979-78.499-78.311-31.131-122.473q-3.319-12.717 5.1-22.942 8.418-10.224 21.844-10.224 9.208 0 16.543 5.724 7.334 5.725 9.556 14.725l28.776 112.863 27.536-114.407q2-8.746 8.486-13.826 6.487-5.079 15.345-5.079h12.082q8.725 0 15.304 4.797 6.58 4.797 8.58 13.521l29.442 114.994 27.109-112.196q2.08-8.986 9.557-15.051 7.477-6.065 16.74-6.065 13.268 0 21.786 10.558t5.105 23.355l-46.667 188.906q-2.239 9.145-9.534 14.757-7.294 5.612-16.551 5.612H776.93q-9.223 0-17.001-5.768-7.778-5.768-9.994-14.84l-25.406-102.609Zm-366.584 88.671 37.091-139.751 43.913 43.913-5.333 20.667h26l52 52h-92l-9.392 37.348q-2.224 9.072-9.519 14.721-7.295 5.648-16.7 5.648-13.4 0-21.525-10.558-8.125-10.558-4.535-23.988ZM118.406-386v-187.5q0-11.819 8.471-19.956 8.471-8.138 20.29-8.138h115.5q23.971 0 38.782 14.811 14.812 14.812 14.812 38.783v55.334q0 19.652-11.167 31.445-11.167 11.794-27.928 16.446l22.189 50.884q5.652 12.717-2.1 24.101-7.752 11.384-21.922 11.384-8.398 0-14.717-4.279-6.319-4.279-9.638-12.09l-26.681-64.297h-50.703V-386q0 11.691-7.947 19.643-7.948 7.951-19.632 7.951-11.685 0-19.647-7.951-7.962-7.952-7.962-19.643Zm55.188-105.072h87.479v-55.334h-87.479v55.334Z"/></svg>