<svg xmlns="http://www.w3.org/2000/svg" height="40" viewBox="0 -960 960 960" width="40"><path d="M926.138-608.109q0 76.938-24.5 139.48-24.5 62.542-68.58 115.542-10.906 12.986-27.09 13.946-16.185.96-28.185-11.279-11.746-11.863-11.319-28.164.428-16.3 11-29.539 33.761-42 52.087-89.962 18.326-47.961 18.326-110.065 0-61.626-17.927-109.133-17.928-47.507-51.689-89.439-10.666-13.213-10.927-29.539-.261-16.326 11.443-28.326 11.705-12 27.819-11.087 16.114.913 27.02 13.898 43.841 53 68.181 115.167 24.341 62.167 24.341 138.5Zm-196.711.278q0 31.777-9.637 60.78t-26.532 54.464q-8.939 13.239-24.559 13.833-15.619.594-27.619-11.485-11.729-11.885-12.571-27.694-.842-15.81 7.252-30.581 6.855-12.522 10.957-27.565 4.101-15.043 4.101-31.705 0-16.303-4.141-31.213-4.142-14.909-10.917-27.605-8.094-14.652-7.101-30.503.992-15.852 12.898-27.681 12-12.156 27.797-11.447 15.797.709 24.761 14.037 16.616 25.348 25.963 54.194 9.348 28.847 9.348 60.171Zm-368.67 160.229q-69.148 0-114.688-45.619-45.54-45.62-45.54-114.601 0-68.982 45.507-114.489 45.508-45.508 114.49-45.508 68.981 0 114.601 45.508 45.619 45.507 45.619 114.489 0 68.981-45.421 114.601-45.421 45.619-114.568 45.619ZM33.862-189.536v-31.022q0-39.282 20.207-68.05 20.206-28.769 50.206-43.769 51-26 120.142-43.612 69.141-17.612 136.141-17.612 67 0 135.808 17.453 68.808 17.453 119.967 43.293 30 15.16 50.54 44.087 20.54 28.928 20.54 68.21v31.022q0 31.726-22.093 53.819-22.094 22.094-53.82 22.094H109.616q-31.493 0-53.623-22.094-22.13-22.093-22.13-53.819Zm75.754 0H611.5v-30.145q0-14.174-7.5-25.878-7.5-11.703-21.167-19.405-44-24-103.101-38.442-59.102-14.442-119.174-14.442-60.072 0-119.427 15.228-59.356 15.229-103.515 37.708-12.174 6.282-20.087 18.669-7.913 12.388-7.913 26.562v30.145ZM360.55-523.514q36.131 0 60.207-24.068t24.076-60.12q0-36.052-24.067-60.208-24.068-24.155-60.12-24.155-36.052 0-60.208 24.128t-24.156 60.139q0 36.131 24.129 60.208 24.128 24.076 60.139 24.076Zm.008-84.276Zm0 418.254Z"/></svg>