<svg xmlns="http://www.w3.org/2000/svg" height="40" viewBox="0 -960 960 960" width="40"><path d="m385.558-626.725 71.123-116.5-59.797-99.594q-12.478-20-35.217-20-22.74 0-34.819 20l-80.203 132.978q-8.449 13.674-4.431 28.515 4.018 14.84 17.692 23.29l73.848 44.906q13.674 7.782 28.514 3.931 14.841-3.852 23.29-17.526Zm373.667 308.877-70.218-117.406q-8.543-13.674-4.311-28.967 4.232-15.293 17.905-23.076l74.769-43.239q13.674-7.544 28.8-4.145 15.127 3.398 22.91 17.072l45.978 76.928q11 17.478 11.92 38.717.921 21.239-8.92 39.558-10.239 20.479-29.978 32.518-19.739 12.04-43.058 12.04h-45.797ZM609.739-66.275 506.761-169.254q-11.355-11.355-11.355-26.76 0-15.406 11.355-26.761l102.978-102.979q9.036-9.036 20.844-4.398 11.808 4.637 11.808 17.326v35.536h192.95l-58.877 117.834q-11.16 20.478-30.478 32.518-19.319 12.04-42.558 12.04h-61.037v35.695q0 12.689-11.808 17.326-11.808 4.638-20.844-4.398Zm-360.246-48.623q-20.239 0-36.979-10.54-16.739-10.54-24.818-28.018-8.16-16.24-7.7-33.899.46-17.659 9.7-33.138l34.558-56.797h136.594q16.167 0 27.101 10.935 10.935 10.935 10.935 27.101v86.479q0 16.166-10.935 27.021-10.934 10.856-27.101 10.856H249.493ZM148.978-230.493 83.101-362.406q-9.478-18.319-8.819-39.058.66-20.739 11.82-39.217l16.318-27.558-29.92-17.848q-10.355-6.464-8.862-19.359 1.492-12.895 14.007-15.706l141.29-35.406q15.246-3.812 28.554 4.272 13.308 8.083 17.12 23.329l35.405 142.211q2.812 12.355-7.384 19.605-10.195 7.25-20.71.786l-30.427-18.609-92.515 154.471ZM660.551-586.87 519.34-622.275q-12.355-2.653-14.134-15.627-1.779-12.975 9.243-19.439l30.587-17.847-127.072-211.189h143.311q21.319 0 39.939 10.739 18.619 10.739 29.938 28.819l52.797 88.355 29.827-18.355q10.355-6.623 20.55 1.08 10.196 7.703 7.544 20.058l-35.645 141.21q-4.051 15.246-17.239 23.33-13.189 8.083-28.435 4.271Z"/></svg>