<svg xmlns="http://www.w3.org/2000/svg" height="40" viewBox="0 -960 960 960" width="40"><path d="M753.522-300.514 695.63-359.26q16.856-33.442 26.084-79.388 9.228-45.946 9.228-82.685v-191.718L480-806.29l-168.74 62.659-58.746-58.746 200.964-75.348q13.355-4.732 26.522-4.811 13.167-.08 26.522 4.811l250.942 93.123q22.036 8.499 35.714 27.907 13.677 19.408 13.677 43.528v191.834q0 58.303-13.993 114.061-13.992 55.758-39.34 106.758ZM480.076-77.384q-7.112 0-23.706-4.717-140.008-48.732-221.537-170.479-81.529-121.746-81.529-268.904v-181.574l-78.862-78.943q-10.225-10.224-10.105-24.702.12-14.479 10.344-24.623 10.225-10.145 24.703-10.145t24.703 10.065L830.073-125.42q10.065 10.225 9.732 24.703-.334 14.478-10.479 24.703-10.145 10.224-24.409 10.344-14.264.12-24.489-10.105L669.725-185.304q-35.616 36.442-76.381 62.348-40.764 25.905-89.047 41.76-5.971 1.747-11.977 2.78-6.005 1.032-12.244 1.032Zm-56.112-354.189Zm82.188-117.912Zm-26.213 397.333q39.775-13.73 74.052-36.195 34.277-22.464 62.451-50.873L229.058-627.305v105.972q0 125.235 70.973 228.555 70.973 103.32 179.908 140.626Z"/></svg>