<svg xmlns="http://www.w3.org/2000/svg" height="40" viewBox="0 -960 960 960" width="40"><path d="M360.066-482.681q32.101 0 54.677-22.642t22.576-54.743q0-32.101-22.642-54.677-22.643-22.576-54.743-22.576-32.101 0-54.677 22.642t-22.576 54.743q0 32.101 22.642 54.677 22.643 22.576 54.743 22.576Zm240 0q32.101 0 54.677-22.642t22.576-54.743q0-32.101-22.642-54.677t-54.743-22.576q-32.101 0-54.677 22.642t-22.576 54.743q0 32.101 22.642 54.677t54.743 22.576ZM355.724-116.014v-173.044h88.312v173.044h-88.312Zm160.24 0v-173.044h88.312v173.044h-88.312Zm-324.037 0q-31.559 0-53.736-22.177-22.177-22.177-22.177-53.736V-600q0-101.661 71.163-172.823Q258.339-843.986 360-843.986h240q101.661 0 172.823 71.163Q843.986-701.661 843.986-600v408.073q0 31.559-22.214 53.736-22.214 22.177-53.54 22.177h-92.029v-171.131q0-31.326-22.177-53.54-22.177-22.213-53.736-22.213H358.913q-31.559 0-53.258 22.213-21.698 22.214-21.698 53.54v171.131h-92.03Z"/></svg>