<svg xmlns="http://www.w3.org/2000/svg" height="40" viewBox="0 -960 960 960" width="40"><path d="M397.239-397.478q-31.848-31.848-58.42-67.417-26.573-35.569-48.203-75.46-6.123 15.13-8.931 30.8-2.808 15.671-2.808 31.468.797 82.478 58.645 140.446 57.848 57.967 140.326 58.764 15.797 0 31.134-2.934 15.337-2.935 30.468-8.805-39.892-21.63-75.127-48.322-35.236-26.692-67.084-58.54Zm54.283-53.044q51.13 51.131 112.873 87.337 61.742 36.207 133.257 55.569-39.145 50.268-95.924 77.88Q544.949-202.123 481-202.123q-115.5 0-196.688-81.189Q203.123-364.5 203.123-480q0-63.949 27.613-120.728 27.612-56.779 77.88-95.924 19.362 71.515 55.569 133.257 36.206 61.743 87.337 112.873ZM733.724-367q-19.058-4.333-37.789-10.01-18.732-5.678-36.312-13.46 10.964-20.646 16.732-43.258 5.768-22.612 5.768-46.272 0-84.5-58.811-143.312Q564.5-682.123 480-682.123q-23.66 0-46.272 5.648-22.612 5.649-43.258 16.772-7.275-17.739-12.706-35.771-5.431-18.033-9.764-37.25 26.536-12.283 54.873-18.718 28.337-6.435 58.127-6.435 115.5 0 196.688 81.189Q758.877-595.5 758.877-480q0 29.79-6.435 58.127-6.435 28.337-18.718 54.873ZM442.123-844.544v-120h75.754v120h-75.754Zm0 849.088v-120h75.754v120h-75.754ZM764.71-710.428l-54.043-54.282 85-84.239 54.043 53.282-85 85.239ZM164.333-111.051l-54.043-53.282 85-85.239 54.043 54.282-85 84.239Zm680.211-331.072v-75.754h120v75.754h-120Zm-849.088 0v-75.754h120v75.754h-120ZM795.667-110.29l-85-84.761 54.282-54.043 84 84.761-53.282 54.043ZM195.29-710.667l-84.239-85 53.282-54.043 85.239 85-54.282 54.043Zm201.949 313.189Z"/></svg>