<svg xmlns="http://www.w3.org/2000/svg" height="40" viewBox="0 -960 960 960" width="40"><path d="M191.645-113.304q-32.544 0-55.442-23.114-22.899-23.113-22.899-55.641t23-55.546q22.999-23.018 55.368-23.018 32.565 0 55.758 22.978 23.193 22.979 23.193 55.602t-23.179 55.681q-23.179 23.058-55.799 23.058Zm570.099 0q-23.142 0-38.33-16.501-15.188-16.501-17.551-39.542-10.225-107.392-55.084-200.155-44.86-92.763-116.634-164.484-71.708-71.853-164.557-116.713-92.849-44.86-200.241-55.084-23.041-2.354-39.542-17.429-16.501-15.076-16.501-38.426 0-23.084 16.837-37.89 16.837-14.806 40.018-12.726 129.174 10.225 240.917 63.279t198.373 139.526q86.472 86.63 139.526 198.373 53.054 111.743 63.279 240.917 2.08 23.181-12.644 40.018t-37.866 16.837Zm-264.011 0q-22.08 0-38.041-15.511-15.96-15.511-19.438-38.293-8.652-54.095-32.3-100.595-23.648-46.5-60.258-83.326-36.667-36.77-82.167-61.338-45.5-24.568-99.087-33.22-22.116-3.986-37.627-19.55-15.511-15.565-15.511-37.812 0-22.557 15.837-37.666 15.837-15.109 37.284-12.218 75.29 9.108 140.536 42.165 65.246 33.058 116.096 84.582 50.876 51.43 83.279 117.899 32.403 66.47 41.388 141.84 2.906 22.036-12.248 37.539-15.154 15.504-37.743 15.504Z"/></svg>