<svg xmlns="http://www.w3.org/2000/svg" height="40" viewBox="0 -960 960 960" width="40"><path d="M242.391-489.609q95.334 0 161.667-66.5t66.333-161.5h-58.666q0 70.667-49.225 120-49.225 49.334-120.109 49.334v58.666Zm0-132.667q40.334 0 68.834-27.958t28.5-67.375h-97.334v95.333Zm-53.333 508.972q-30.994 0-53.374-22.38-22.38-22.38-22.38-53.374v-581.884q0-31.06 22.38-53.486 22.38-22.427 53.374-22.427h581.884q31.06 0 53.486 22.427 22.427 22.426 22.427 53.486v581.884q0 30.994-22.427 53.374-22.426 22.38-53.486 22.38H189.058Zm0-75.754h581.884v-581.884H189.058v581.884Zm0 0v-581.884 581.884Zm82.406-86.551h417.739q11.341 0 16.612-10.215 5.272-10.216-1.445-20.118l-113.87-153q-5.94-7.543-15.191-7.663-9.251-.12-15.222 7.583L447.333-311.985l-76.594-104.37q-6.18-7.703-15.43-7.583-9.251.119-15.142 7.663l-83.203 110.333q-7.384 9.902-2.113 20.118 5.272 10.215 16.613 10.215Z"/></svg>