<svg xmlns="http://www.w3.org/2000/svg" height="40" viewBox="0 -960 960 960" width="40"><path d="M230.739-113.304q-25.672 0-48.503-17.154-22.832-17.153-30.214-41.948-24.921-84.935-41.043-146.675-16.123-61.74-25.718-108.523-9.595-46.784-13.566-82.919-3.97-36.134-3.97-69.477 0-94.71 65.978-160.783 65.978-66.072 160.732-66.072h206.601q27.877-36 70.234-58t92.955-22q28.826 0 47.721 19.4 18.895 19.399 18.895 46.977 0 6.436-1.5 12.754-1.5 6.317-3.5 11.76-3.681 10.044-6.942 20.288-3.261 10.243-5.261 22.524l86.217 86.297h54.464q16 0 26.938 11.028 10.939 11.028 10.939 27.008v224.841q0 12.761-7.083 22.659-7.084 9.899-19.439 13.805l-89.059 29.053-51.122 171.034q-7.437 24.436-27.435 39.279-19.999 14.844-45.666 14.844h-98.871q-29.843 0-51.802-19.464-21.958-19.464-24.11-47.203v-13.333h-76.812v13.333q-2.152 27.739-24.064 47.203-21.912 19.464-51.689 19.464h-94.305Zm408.942-399.203q18.746 0 31.645-12.855 12.899-12.855 12.899-31.689 0-18.833-12.917-31.688t-31.688-12.855q-18.772 0-31.707 12.855-12.935 12.855-12.935 31.688 0 18.834 12.945 31.689t31.758 12.855Zm-156.513-91.022q15.513 0 26.013-10.574 10.5-10.573 10.5-26.034 0-15.461-10.5-25.908-10.5-10.448-26.013-10.448H347.586q-15.514 0-25.934 10.565-10.42 10.564-10.42 26.025 0 15.461 10.54 25.917 10.539 10.457 26.053 10.457h135.343Z"/></svg>