<svg xmlns="http://www.w3.org/2000/svg" height="40" viewBox="0 -960 960 960" width="40"><path d="M189.058-113.304q-31.249 0-53.501-22.253-22.253-22.252-22.253-53.501v-581.884q0-31.314 22.253-53.614 22.252-22.299 53.501-22.299h581.884q12.247 0 23.838 4.819 11.59 4.819 19.387 11.312l-62.448 62.448v-2.666H189.058v581.884h581.884V-501.61l75.913-75.913v388.465q0 31.249-22.299 53.501-22.3 22.253-53.614 22.253H189.058Zm273.536-271.181L817.95-739.841q10.302-10.224 24.2-10.224t24.331 10.224q10.432 10.225 10.432 24.523 0 14.297-10.319 24.39L489.355-313.689q-11.5 11.356-26.833 11.356-15.334 0-26.689-11.356L263.63-485.892q-10.224-10.224-10.224-24.369t10.224-24.369q10.225-10.225 24.29-10.225t24.29 10.225l150.384 150.145Z"/></svg>