<svg xmlns="http://www.w3.org/2000/svg" height="40" viewBox="0 -960 960 960" width="40"><path d="M442.123-536.189v-310.478q0-16 10.972-26.938 10.972-10.939 27.022-10.939 16.05 0 26.905 10.939 10.855 10.938 10.855 26.938v310.478q0 16.16-10.972 27.098-10.972 10.938-27.022 10.938-16.05 0-26.905-10.938t-10.855-27.098Zm37.544 317.399q-132.964 0-225.997-92.902-93.032-92.901-93.032-226.461 0-68.256 26.916-128.153 26.917-59.897 76.642-106.231 13.036-12.101 30.362-11.775 17.326.326 29.886 12.885 10.737 10.738 8.824 26.158-1.913 15.421-13.551 26.254-38.275 35.442-60.8 81.475-22.526 46.032-22.526 99.387 0 100.805 71.323 172.207Q379.036-294.544 480-294.544t172.286-71.402q71.323-71.402 71.323-172.207 0-53.833-21.805-102.384-21.804-48.551-61.195-82.551-11.957-10.434-13.949-25.482-1.993-15.047 8.439-25.479 12.039-12.198 29.325-12.763 17.286-.565 30.561 11.029 51 45.558 77.769 107.315 26.768 61.757 26.768 130.315 0 133.56-93.446 226.461-93.446 92.902-226.409 92.902ZM309.893 1.333q-18.053 0-30.43-12.86-12.376-12.859-12.376-31.355 0-18.177 12.376-30.158 12.377-11.982 30.43-11.982 18.62 0 31.084 11.982 12.465 11.981 12.465 30.158 0 18.496-12.465 31.356-12.464 12.86-31.084 12.86Zm170.614 0q-18.523 0-30.924-12.544-12.402-12.544-12.402-31.004 0-18.053 12.402-30.43 12.401-12.377 31.044-12.377 17.917 0 30.174 12.377 12.257 12.377 12.257 30.43 0 18.46-12.245 31.004-12.246 12.544-30.306 12.544Zm170.112 0q-18.62 0-31.101-12.544-12.482-12.544-12.482-31.004 0-18.053 12.465-30.43 12.464-12.377 31.084-12.377 18.053 0 30.31 12.377 12.257 12.377 12.257 30.43 0 18.46-12.24 31.004T650.619 1.333Z"/></svg>