<svg xmlns="http://www.w3.org/2000/svg" height="40" viewBox="0 -960 960 960" width="40"><path d="M568.74-75.251q-19.61 5.186-35.628-6.835t-16.018-32.605v-212.508q0-20.584 16.133-32.562 16.133-11.978 36.503-6.739 37.995 10.239 76.193 14.398 38.199 4.16 77.392 4.16 39.192 0 77.888-3.826 38.696-3.826 76.732-14.971 19.558-5.08 35.576 6.941t16.018 32.605v212.508q0 20.584-15.999 32.602-15.999 12.018-35.595 6.779-37.971-10.986-76.679-14.892-38.707-3.905-77.912-3.905-39.204 0-77.912 4.358-38.707 4.36-76.692 14.492Zm-131.646 1.947h-27.927q-14.162 0-24.813-9.116-10.651-9.116-12.731-23.203l-14.427-96.5q-15.406-5.616-32.004-15.232t-29.656-19.913l-89.167 40.109q-13.435 5.971-27.228 1.539-13.793-4.431-21.257-17.692l-70.58-124.666q-7.623-12.634-4.264-26.559 3.358-13.924 14.713-22.593l80.74-59.725q-1.428-7.542-1.761-16.572-.333-9.031-.333-16.573t.333-16.573q.333-9.03 1.761-16.572l-80.74-59.645q-11.355-8.642-14.713-22.64-3.359-13.998 4.264-26.592l70.58-124.427q7.481-12.964 21.266-17.504 13.784-4.54 27.219 1.352l89.609 39.949q12.935-10.138 29.5-19.634 16.566-9.497 31.718-14.605l14.427-97.645q2.08-13.928 12.731-23.124 10.651-9.195 24.813-9.195h141.666q14.162 0 24.813 9.195 10.651 9.196 12.731 23.124l14.427 96.978q15.375 5.784 32.242 14.943 16.867 9.159 29.418 19.963l89.167-39.949q13.435-5.892 27.219-1.352 13.785 4.54 21.266 17.504l70.739 123.76q7.464 12.576 4.439 26.886-3.026 14.31-15.287 23.013l-80.739 58.277q.761 8.556 1.174 18.071.413 9.514.413 17.435v18.249q0 8.683-.348 18.367H608q2.761-9.442 4.101-18.384 1.341-8.942 1.341-19.225 0-55.333-39-94.333t-94.333-39q-55.587 0-94.46 39-38.873 39-38.873 94.333 0 44.667 25.241 78.786 25.241 34.12 65.077 47.88v280.03Z"/></svg>