<svg xmlns="http://www.w3.org/2000/svg" height="40" viewBox="0 -960 960 960" width="40"><path d="m701.058-737.942-60.594-26.297q-11.276-4.891-11.276-17.486 0-12.594 11.276-17.485l60.594-26.457 26.536-60.833q4.892-11.116 17.446-11.116 12.554 0 17.446 11.116l26.536 60.833 60.594 26.457q11.276 4.891 11.276 17.485 0 12.595-11.276 17.486l-60.594 26.297-26.536 60.993q-4.892 11.116-17.446 11.116-12.554 0-17.446-11.116l-26.536-60.993ZM309.072-320.384q-115.485 0-195.348-79.862-79.862-79.863-79.862-195.348 0-115.486 79.862-195.348 79.863-79.862 195.348-79.862 115.486 0 195.348 79.862 79.862 79.862 79.862 195.348 0 115.485-79.862 195.348-79.862 79.862-195.348 79.862Zm92.58 249.471q-31.652 0-53.782-22.05-22.131-22.051-22.131-53.703v-109.719q18.261 0 36.442-2.221t36.362-7.112q89.551-22.319 153.692-87.289 64.141-64.971 89.38-154.188 5.319-17.515 7.659-36.029 2.341-18.515 2.341-36.775h148.124q31.652 0 53.783 22.13 22.13 22.13 22.13 53.623v357.58q0 31.652-22.13 53.703-22.131 22.05-53.783 22.05H401.652Z"/></svg>