<svg xmlns="http://www.w3.org/2000/svg" height="40" viewBox="0 -960 960 960" width="40"><path d="M501-326.667q36 0 70.167-15 34.166-15 60.499-44.333 6.334-7.333 4.667-13.333-1.666-6-11-8-38.666-7.334-73.333-30.5-34.667-23.167-57-60.834-20.667-35.666-24.5-76.833-3.834-41.167 10.166-79.833 3.334-9.334-1.5-14Q474.333-674 464-672q-64.333 13.667-101.333 63.333-37 49.667-37 108.667 0 72.333 51.166 122.833Q428-326.667 501-326.667ZM480-77.623q-6.384 0-12.181-1.12-5.797-1.12-11.768-3.358-139.022-46.493-220.884-170.305-81.863-123.811-81.863-268.261V-712.5q0-23.949 13.681-43.42t35.551-28.015l250.942-93.79q13.355-4.891 26.522-4.891 13.167 0 26.522 4.891l250.942 93.79q21.87 8.544 35.63 28.015 13.761 19.471 13.761 43.42v191.833q0 144.45-81.942 268.261-81.942 123.812-220.964 170.305-5.971 2.239-11.768 3.358-5.797 1.12-12.181 1.12Z"/></svg>