<svg xmlns="http://www.w3.org/2000/svg" height="40" viewBox="0 -960 960 960" width="40"><path d="M188.232-38.696q-15.147 0-25.037-9.89-9.891-9.89-9.891-25.037 0-15.146 9.891-25.037 9.89-9.89 25.037-9.89h166.935v-53.334H108.115q-14.934 0-24.872-9.891-9.939-9.89-9.939-25.037 0-15.146 9.89-25.036 9.891-9.891 25.038-9.891h246.935v-53.334H66.841q-14.935 0-24.874-9.89Q32.03-304.854 32.03-320q0-15.146 9.89-25.037 9.89-9.89 25.037-9.89h288.211v-53.334H148.226q-15.045 0-24.983-9.891-9.939-9.89-9.939-25.036 0-15.147 9.891-25.037 9.89-9.891 25.037-9.891H419.37l-41.609-73.109q-9.971-17.022-7.525-36.369 2.445-19.348 16.561-33.464l8.537-7.616q9-9.159 21.166-10.08 12.167-.92 22.167 6.747L675.942-455.13q21.906 16.572 33.899 40.558 11.992 23.985 11.992 51.384v209.565q0 48.13-33.398 81.529-33.399 33.398-81.529 33.398H188.232Zm122.726-481.043-62.799-46.559q-12.558-8.985-14.391-22.654-1.833-13.669 7.152-26.164 8.963-12.585 22.692-14.358 13.728-1.773 26.286 7.213l37.066 28.189q-1.347 18.667 3.113 37.5t13.127 36.833h-32.246Zm37.688-125.652-90.748-67.537q-12.584-8.963-14.357-22.612-1.773-13.649 7.194-26.222 8.967-12.573 22.623-14.264 13.656-1.692 26.314 7.294l113.568 84.486q-19.688.478-37.641 12.308-17.953 11.829-26.953 26.547Zm419.52 274.442q-2.427-36.478-18.604-67.931-16.177-31.452-45.62-53.583L508.739-638.319l20-26.667-230.043-171.21q-12.585-8.963-14.691-22.692-2.106-13.729 6.879-26.286 8.985-12.399 22.654-14.232 13.669-1.834 26.165 7.152l231.521 172.877 32.001-43.428-166.486-123.986q-12.558-8.985-14.272-22.702-1.713-13.718 7.254-26.291 8.967-12.413 22.623-14.184 13.656-1.772 26.214 7.214l218.073 162.022 10.203-83.312q2.413-19.594 15.902-33.55 13.489-13.957 32.989-16.863l11.391-1.587q12.415-1.84 22.814 4.826 10.398 6.667 14.092 18.508l84.239 283.847q7.841 26.54 3.161 52.839-4.679 26.299-21.067 48.277L768.166-370.949Z"/></svg>