<svg xmlns="http://www.w3.org/2000/svg" height="40" viewBox="0 -960 960 960" width="40"><path d="M422.08-166.203 52.406-544.696q-10.812-11.13-15.924-25.366-5.113-14.235-3.873-28.699 1.08-14.623 6.937-28.132 5.857-13.51 17.736-23.534 88.703-74.283 197.598-113.642 108.895-39.359 225.166-39.359 128.679 0 236.374 43.569 107.696 43.569 204.697 126.192 8.108 6.667 11.901 15.834 3.794 9.166 4.54 18.833.906 9.667-2.554 19.12-3.46 9.452-10.634 16.786-26.028-28.76-61.664-44.702-35.635-15.943-77.539-15.943-79.905 0-136.072 56.047-56.166 56.047-56.166 135.953 0 43.531 17.583 79.24 17.583 35.709 49.177 62.057L537.84-166.203q-12.072 12.711-27.068 18.692-14.997 5.982-30.772 5.982-15.775 0-30.891-5.982-15.116-5.981-27.029-18.692Zm363.406 20.363q-16.463 0-28.029-11.424-11.565-11.424-11.565-27.91 0-16.485 11.544-28.05 11.543-11.565 28.029-11.565 16.485 0 28.01 11.55 11.526 11.55 11.526 28.044t-11.526 27.924q-11.525 11.431-27.989 11.431Zm119.725-302.877q0 28.493-11.986 49.478-11.985 20.986-39.608 45.116-20.124 17.457-28.424 30.044-8.301 12.587-10.54 30.268-1.652 11.225-9.647 18.79-7.994 7.565-19.248 7.565-11.815 0-19.507-7.835-7.692-7.836-6.359-19.092 2.413-28.573 12.08-48.399 9.666-19.826 35.507-41.16 24.094-19.427 32.254-32.713 8.159-13.287 8.159-30.729 0-22.935-15.703-37.837-15.704-14.902-41.224-14.902-20.414 0-35.682 8.293-15.268 8.294-25.616 22.816-6.811 8.652-16.75 11.851-9.938 3.199-19.416-1.88-10.384-5.319-14.497-16.211-4.112-10.891 1.443-19.99 16.859-28.778 45.181-45.303 28.322-16.525 65.082-16.525 48.668 0 81.584 30.453 32.917 30.452 32.917 77.902Z"/></svg>