<svg xmlns="http://www.w3.org/2000/svg" height="40" viewBox="0 -960 960 960" width="40"><path d="M430.051-156.876 53.739-544.029Q43.26-554.721 38.14-568.165q-5.12-13.444-5.12-26.926 0-15.481 6.4-29.805 6.398-14.323 19.195-25.437 88.797-73.616 197.311-113.355 108.515-39.74 224.073-39.74t224.073 39.74q108.514 39.739 197.311 113.355 12.797 11.055 19.196 25.301 6.398 14.246 6.398 29.764 0 13.514-5.119 27.01-5.12 13.496-15.438 24.229l-59.574 60.848q-19.501-8.346-40.675-12.235-21.174-3.888-42.839-3.888-94.166 0-160.083 65.917-65.916 65.916-65.916 160.083 0 23.674 4.344 46.67 4.344 22.996 14.141 43.887l-25.87 25.871q-10.478 11.036-23.402 16.101-12.924 5.065-26.547 5.065-13.623 0-26.547-5.065-12.924-5.065-23.402-16.101Zm250.166 43.572q-16.549 0-27.716-11.011-11.168-11.011-11.168-27.447v-121.591q0-16.437 11.168-27.527 11.167-11.091 27.716-11.091H682v-39.333q0-33.391 23.916-57.362 23.916-23.972 57.5-23.972t57.417 23.972q23.834 23.971 23.834 57.362v39.333h1.942q16.39 0 27.557 11.091 11.167 11.09 11.167 27.527v121.591q0 16.436-11.167 27.447t-27.557 11.011H680.217ZM722-311.971h82.667v-39.333q0-18.174-11.5-29.754-11.5-11.58-29.834-11.58-18.333 0-29.833 11.58T722-351.304v39.333Z"/></svg>