<svg xmlns="http://www.w3.org/2000/svg" height="40" viewBox="0 -960 960 960" width="40"><path d="M517.058-412.912v-147.907q0-15.154-10.208-25.399-10.209-10.246-25.308-10.246-15.1 0-25.397 10.246-10.297 10.245-10.297 25.399v147.907l-50.145-49.812q-10.504-10.225-24.781-10.345-14.277-.119-24.828 10.464-10.471 10.5-10.471 25.266 0 14.767 10.464 25.23l108.486 109.312q11.413 11.355 26.789 11.355 15.377 0 26.732-11.355l109.312-109.312q10.304-10.463 10.431-25.134.127-14.67-10.431-25.387-10.504-10.477-25.234-10.398-14.73.079-25.288 10.543l-49.826 49.573Zm-288 339.608q-30.994 0-53.374-22.38-22.38-22.38-22.38-53.374v-462.906q0-15.121 6.004-29.323 6.004-14.203 16.373-24.626l198.406-198.406q10.355-10.355 24.579-16.446 14.225-6.09 29.37-6.09h302.906q31.06 0 53.486 22.427 22.427 22.426 22.427 53.486v661.884q0 30.994-22.427 53.374-22.426 22.38-53.486 22.38H229.058Z"/></svg>