<svg xmlns="http://www.w3.org/2000/svg" height="40" viewBox="0 -960 960 960" width="40"><path d="M99.13-237.877h221.906q33.544 0 56.797-24.561 23.254-24.562 23.254-59.04l-110.399-33.834L96.464-251.21q-2 1.174-3 2.92t-1 3.746q0 2.667 2 4.667t4.667 2ZM947.08-240q0 6.797-2.24 13.101-2.239 6.305-6.891 11.863-16.638 23.543-41.83 38.228-25.192 14.685-55.083 14.685h-200q-16.166 0-27.021-10.855T603.16-200q0-16.167 10.855-27.022 10.855-10.855 27.021-10.855h81.841l-84.247-84.246H478.594q0 66.558-46.46 113.279-46.46 46.721-111.098 46.721h-240q-36.978 0-57.427-24.395Q3.159-210.913 3.159-240q0-19.275 9.892-37.645 9.891-18.369 31.167-30.34l144.195-78.899-119.022-35.109q-25.521-7.464-36.55-31.58-11.03-24.115 1.326-48.224l30.66-60.428q7.622-16.166 23.456-24.782 15.833-8.616 33.572-6.536l319.826 35.427 127.24-94.609-35.776-32.348h-53.703q-15.609 0-25.946-10.456-10.336-10.457-10.336-26.065 0-15.609 10.456-25.946 10.457-10.337 26.065-10.337h52.283q14.166 0 27.8 5.011t23.91 15.127l262.645 243.978q18.623 17.131 25.608 33.174 6.986 16.044 6.986 30.587 0 39.427-29.612 69.739-29.612 30.311-82.996 35.877l-27.334 1.333 90.804 85.174h8.631q11.203 0 21.112-4.808 9.91-4.808 15.257-13.931 5.225-9.464 14.388-15.362 9.163-5.899 19.946-5.899 16.166 0 27.068 10.855Q947.08-256.167 947.08-240Z"/></svg>