<svg xmlns="http://www.w3.org/2000/svg" height="40" viewBox="0 -960 960 960" width="40"><path d="M148.232-820.189q-16.16 0-27.098-10.972-10.939-10.972-10.939-27.022 0-16.049 10.939-26.904 10.938-10.855 27.098-10.855h53.333q16 0 26.939 10.972 10.938 10.972 10.938 27.021 0 16.05-10.938 26.905-10.939 10.855-26.939 10.855h-53.333Zm38.55 576.153-18.406 92.109h275.66v-92.109H186.782Zm26.196-435.384 37.573-37.334q11.022-11.022 26.38-11.141 15.359-.12 26.768 10.641 11.25 11.616 11.29 27.38.04 15.764-11.315 27.163l-37.413 37.334q-11.182 11.022-26.54 11.141-15.359.12-26.609-10.641-11.409-11.616-11.449-27.38-.04-15.764 11.315-27.163Zm-11.826 363.456h242.884v-92.268H219.558l-18.406 92.268ZM480-708.718q-77.319 0-130.938-54.619-53.619-54.62-56.286-132.605h75.753q2 46.492 33.906 78.981 31.906 32.49 77.565 32.49t77.565-32.49q31.906-32.489 33.906-78.981h75.753q-2.667 77.985-56.286 132.605Q557.319-708.718 480-708.718Zm0-187.224Zm-37.877 332.804v-53.333q0-16 10.972-26.939 10.972-10.938 27.022-10.938 16.05 0 26.905 10.938 10.855 10.939 10.855 26.939v53.333q0 16-10.972 26.939-10.972 10.938-27.022 10.938-16.05 0-26.905-10.938-10.855-10.939-10.855-26.939Zm73.841 411.211h275.66l-18.406-92.109H515.964v92.109Zm0-164.037h242.884l-18.406-92.268H515.964v92.268ZM693.66-626.805l-38.001-37.572q-11.021-11.022-11.148-26.355-.127-15.334 11.388-26.689 11.021-11.021 26.441-10.688 15.421.333 26.602 10.688l38.333 37.573q11.355 11.022 11.729 26.355.373 15.333-11.017 26.688-11.39 11.355-27.181 11.355t-27.146-11.355Zm118.268-193.384h-91.37v-75.753h91.37q16 0 26.938 10.972 10.939 10.972 10.939 27.021 0 16.05-10.939 26.905-10.938 10.855-26.938 10.855ZM93.036-166.934l51.421-256.305q5.637-26.761 26.195-43.754t48.239-16.993h522.218q27.681 0 48.239 16.993 20.558 16.993 26.196 43.754l51.42 256.305q6.797 35.557-15.707 63.239-22.503 27.68-58.967 27.68H167.71q-36.464 0-58.967-27.68-22.504-27.682-15.707-63.239Z"/></svg>