<svg xmlns="http://www.w3.org/2000/svg" height="40" viewBox="0 -960 960 960" width="40"><path d="M484.022-247.696 365.007-128.442q-21.71 21.71-53.583 21.71-31.873 0-53.583-21.71L129.442-257.507q-21.71-21.71-21.71-53.417 0-31.706 21.71-53.416l118.254-118.682v-148.537q0-25.282 23.329-34.891 23.33-9.608 41.308 8.37l346.508 345.747q17.978 17.978 7.989 41.308-9.989 23.329-35.271 23.329H484.022ZM691-692q-63.348-63.189-149.116-79.522-85.768-16.334-167.529 16.442-13.131 5.239-26.895.127-13.765-5.112-18.496-18.163-5.653-14.812.387-28.989 6.04-14.178 20.852-19.75 99.797-40 205.848-19.102 106.05 20.899 184.529 99.377 77.413 77.413 98.724 181.381 21.312 103.967-15.985 202.953-5.573 15.623-20.13 23.721-14.558 8.098-30.182 2.431-13.557-4.667-18.242-18.185-4.685-13.518.648-28.076 32.109-81.094 15.109-166.529T691-692Zm-74.667 75.667q25.826 25.985 37.982 59.638 12.156 33.652 11.04 69.674-.739 8.55-10.261 13.565-9.522 5.014-21.355 2.753-14.13-4.652-25.518-15.913t-17.243-25.391q-2.536-14.406-8.666-27.812-6.131-13.406-17.348-24.623-10.899-10.899-24.145-17.616-13.247-6.717-27.906-9.254-14.797-5.855-25.772-16.782-10.974-10.928-15.308-25.978-1.942-12.406 3.439-22.102 5.38-9.695 14.344-9.768 35.036-.543 68.17 11.906t58.547 37.703Z"/></svg>