<svg xmlns="http://www.w3.org/2000/svg" height="40" viewBox="0 -960 960 960" width="40"><path d="M515.775-384.384q-87.362 0-136.587 12.971-49.224 12.971-81.891 45.638L152.036-180.514q-10.703 10.703-25.367 10.369-14.663-.333-25.524-10.775-10.877-11.058-10.837-26.184.04-15.127 10.837-25.968l144.42-144.261q32.39-32.533 45.967-81.212 13.577-48.68 13.577-136.506 0-59.469 25.692-116.206 25.692-56.736 76.25-106.895 89.558-89.718 197.637-101.757 108.079-12.04 177.842 58.422 69.97 69.893 58.01 178.501-11.96 108.609-101.265 198.471-50.239 50.319-107.058 75.225-56.82 24.906-116.442 24.906ZM413.942-494.152q47.297 46.964 128.928 34.471 81.63-12.493 146.192-77.055 64.631-64.595 77.506-145.078 12.874-80.483-34.184-127.273-47.311-47.391-128.054-34.939-80.743 12.453-145.817 77.167-64.455 64.562-77.955 145.084t33.384 127.623ZM734.334-35.457q-62.891 0-106.869-44.045-43.979-44.045-43.979-106.862 0-62.817 43.959-106.762 43.959-43.946 106.822-43.946 62.864 0 106.929 43.926 44.065 43.926 44.065 106.743 0 62.816-44.051 106.881-44.051 44.066-106.876 44.066Zm.051-69.615q34.297 0 57.699-23.436 23.402-23.435 23.402-57.876 0-34.442-23.402-57.757-23.403-23.315-57.798-23.315-34.394 0-57.71 23.386-23.315 23.385-23.315 57.757 0 34.371 23.38 57.806 23.38 23.435 57.744 23.435Zm-.051-81.312Z"/></svg>