<svg xmlns="http://www.w3.org/2000/svg" height="40" viewBox="0 -960 960 960" width="40"><path d="M301.333-93.304q-61.891 0-108.224-11.558-46.334-11.558-62.744-28.132-16.995-16.486-27.028-62.275-10.033-45.789-10.033-108.746 0-116.154 41.304-223.831 41.304-107.678 115.704-184.698 70.902-76.286 180.871-115.298 109.969-39.013 231.484-39.013 61.463 0 108.011 10.558 46.547 10.558 62.344 25.942 16.21 14.463 25.022 58.938 8.811 44.474 8.811 112.096 0 119.533-40.192 227.087-40.192 107.553-113.641 181.922-74.454 76.4-183.922 116.704-109.468 40.304-227.767 40.304Zm-133.609-201.97q32.015-81.711 82.736-157.773 50.721-76.062 117.482-143.25 56.044-58.203 130.946-105.924 74.902-47.721 168.664-90.722-100.203-2.333-199.653 35.008-99.45 37.34-162.383 100.196-63.27 64.761-101.198 161.839-37.927 97.078-36.594 200.626Zm129.203 127.55q108.87-4.334 205.606-41.322 96.736-36.988 156.381-96.608 62.84-64.621 98.768-162.078 35.927-97.457 35.261-201.153-39.428 93.682-87.776 166.838-48.348 73.156-108.87 134.344-55.377 58.044-129.159 105.844-73.783 47.801-170.211 94.135Z"/></svg>