<svg xmlns="http://www.w3.org/2000/svg" height="40" viewBox="0 -960 960 960" width="40"><path d="M141.349-729.377v-93.131q0-10.275 8.989-15.873 8.989-5.598 18.771-.866l92.37 46.645q10.275 5.797 10.275 16.739t-10.275 16.58l-92.37 46.645q-9.782 4.732-18.771-.866t-8.989-15.873Zm566.136 0v-93.131q0-10.275 8.989-15.873 8.989-5.598 18.772-.866l92.369 46.645q10.276 5.797 10.276 16.739t-10.276 16.58l-92.369 46.645q-9.783 4.732-18.772-.866-8.989-5.598-8.989-15.873Zm-266.912-38.449v-93.29q0-10.116 8.989-15.714 8.989-5.598 18.771-.866l92.37 46.645q10.275 5.638 10.275 16.58 0 10.942-10.275 16.739l-92.37 46.485q-9.782 4.892-18.771-.706-8.989-5.598-8.989-15.873ZM401.224-73.935q-142.84-8.616-235.779-42.112-92.938-33.496-92.938-79.409V-560q0-26.833 32.297-49.808t87.493-40.391q55.196-17.417 129.431-27.435Q395.964-687.652 480-687.652q84.036 0 158.272 10.018 74.235 10.018 129.431 27.435 55.196 17.416 87.572 40.391 32.377 22.975 32.377 49.808v364.544q0 46.833-92.637 79.51-92.638 32.678-236.145 42.011-14.239 1-24.018-8.112t-9.779-23.351v-133.776h-90.146v133.203q0 13.652-10.025 23.225-10.025 9.572-23.678 8.811ZM480-509.616q94.051 0 165.293-12.942 71.243-12.942 132.606-36.478-22.189-18.783-101.066-35.743Q597.956-611.74 480-611.74t-196.953 16.961q-78.996 16.96-100.946 35.743 61.363 23.536 132.606 36.478Q385.949-509.616 480-509.616ZM359.174-154.152v-85.022q0-31.493 22.051-53.623 22.05-22.13 53.702-22.13h90.146q31.652 0 53.782 22.13 22.13 22.13 22.13 53.623v85.022q75.457-5.761 128.946-20.971 53.489-15.21 81.809-33.558v-282.276q-56.653 24.667-144.178 40.881Q580.036-433.862 480-433.862q-100.036 0-187.562-16.214-87.525-16.214-144.178-40.881v282.276q28.32 18.348 81.889 33.558 53.569 15.21 129.025 20.971ZM480-322.848Z"/></svg>