<svg xmlns="http://www.w3.org/2000/svg" height="40" viewBox="0 -960 960 960" width="40"><path d="M109.616-193.862q-30.994 0-53.374-22.38-22.38-22.38-22.38-53.374v-420.768q0-30.994 22.38-53.374 22.38-22.38 53.374-22.38h740.768q30.994 0 53.374 22.38 22.38 22.38 22.38 53.374v420.768q0 30.994-22.38 53.374-22.38 22.38-53.374 22.38H109.616Zm33.333-75.754v-420.768h-33.333v420.768h33.333Zm66.666 0h540.77v-420.768h-540.77v420.768Zm607.436 0h33.333v-420.768h-33.333v420.768ZM142.949-690.384h-33.333 33.333Zm674.102 0h33.333-33.333Z"/></svg>