<svg xmlns="http://www.w3.org/2000/svg" height="40" viewBox="0 -960 960 960" width="40"><path d="M742.935-113.529H68.55q-14.915 0-24.801-10.001-9.887-10.001-9.887-24.909 0-14.909 10.006-24.887t24.922-9.978h603.957l-44-44H153.724q-30.993 0-53.373-22.38t-22.38-53.373v-464.849q0-1.594.279-4.641.279-3.047.598-4.881l-28.37-28.464q-10.224-10.319-10.185-24.623.04-14.304 10.519-24.782 10.224-10.225 24.702-10.225 14.478 0 24.703 10.225L856.609-99.144q10.065 10.224 10.145 24.369.08 14.145-10.211 24.37-10.29 10.224-24.742 10.224-14.453 0-24.837-10.225l-64.029-63.123ZM396.927-459.348l-61.84-62.094q-4.396 10.112-6.205 21.679-1.809 11.567-1.809 21.205v53.892q0 14.915 10.297 24.921t27.5 10.006q13.775 0 22.916-9.141t9.141-23.111v-37.357Zm423.71 225.501L564.079-491.072l57.732-57.334q5.971-5.92 5.971-13.728t-5.971-13.699l-80.333-80.094q-5.05-4.892-10.728-2.433-5.677 2.459-5.677 8.896v52.537h-66.849L211.63-842.855h595.312q31.059 0 53.486 22.427 22.427 22.427 22.427 53.486v463.831q0 27.01-17.808 46.626-17.808 19.616-44.41 22.638Z"/></svg>