<svg xmlns="http://www.w3.org/2000/svg" height="40" viewBox="0 -960 960 960" width="40"><path d="M193.333-809.247H768q16 0 26.939 11.052 10.938 11.052 10.938 27.102 0 16.049-10.938 26.904Q784-733.334 768-733.334H193.333q-16 0-26.938-10.972-10.939-10.972-10.939-27.021 0-16.05 10.939-26.985 10.938-10.935 26.938-10.935Zm3.334 658.334q-16 0-26.939-10.938-10.938-10.939-10.938-26.939v-214.123h-17.645q-17.832 0-28.742-13.522t-7.099-31.022l43.783-202.449q2.652-13.435 13.094-21.764 10.442-8.33 23.703-8.33h589.058q13.102 0 23.544 8.33 10.442 8.329 13.094 21.764l43.942 202.449q3.652 17.5-7.258 31.022-10.91 13.522-28.742 13.522h-17.645v214.123q0 16-10.972 26.939-10.972 10.938-27.022 10.938-16.05 0-26.905-10.938-10.855-10.939-10.855-26.939v-214.123H555.877v214.123q0 16-10.939 26.939Q534-150.913 518-150.913H196.667Zm37.876-75.753h245.58v-176.247h-245.58v176.247Zm-46.558-252.001h584.697-584.697Zm0 0h584.697l-27.073-125.58H215.058l-27.073 125.58Z"/></svg>