<svg xmlns="http://www.w3.org/2000/svg" height="40" viewBox="0 -960 960 960" width="40"><path d="m640-360-47.348 47.348q-9.036 9.036-20.844 4.371Q560-312.947 560-325.58v-276.543q0-16 10.938-26.939Q581.877-640 597.877-640h284.246q16 0 26.939 10.938Q920-618.123 920-602.123v204.246q0 16-10.938 26.939Q898.123-360 882.123-360H640ZM269.616-33.862q-31.247 0-53.5-22.254-22.254-22.253-22.254-53.5v-740.768q0-31.247 22.254-53.5 22.253-22.254 53.5-22.254h420.768q31.247 0 53.5 22.254 22.254 22.253 22.254 53.5v147.717h-75.754v-47.718H269.616v540.77h420.768v-47.718h75.754v147.717q0 31.247-22.254 53.5-22.253 22.254-53.5 22.254H269.616Z"/></svg>