<svg xmlns="http://www.w3.org/2000/svg" height="40" viewBox="0 -960 960 960" width="40"><path d="M149.058-73.304q-30.994 0-53.374-22.38-22.38-22.38-22.38-53.374v-421.884q0-31.06 22.38-53.486 22.38-22.427 53.374-22.427h661.884q31.06 0 53.486 22.427 22.427 22.426 22.427 53.486v421.884q0 30.994-22.427 53.374-22.426 22.38-53.486 22.38H149.058ZM434-227.391 608.29-344.5q8.543-6 8.543-15.554 0-9.555-8.543-15.446L434-491.942q-9.942-6.464-19.638-1.316-9.695 5.149-9.695 16.562v233.899q0 11.587 9.695 16.728 9.696 5.141 19.638-1.322ZM186-700.189q-14.334 0-23.834-9.5t-9.5-23.753q0-14.254 9.5-23.834 9.5-9.579 23.834-9.579h588q14.334 0 23.834 9.579 9.5 9.58 9.5 23.834 0 14.253-9.5 23.753t-23.834 9.5H186Zm127.333-120q-14.333 0-23.833-9.5-9.5-9.5-9.5-23.753 0-14.254 9.5-23.834 9.5-9.579 23.833-9.579h333.334q14.333 0 23.833 9.579 9.5 9.58 9.5 23.834 0 14.253-9.5 23.753t-23.833 9.5H313.333Z"/></svg>