<svg xmlns="http://www.w3.org/2000/svg" height="40" viewBox="0 -960 960 960" width="40"><path d="M149.058-153.304q-30.994 0-53.374-22.13-22.38-22.13-22.38-53.624v-501.884q0-28.036 18.917-49.105 18.916-21.069 45.677-24.178h14.667l73.282 73.283h-76.789v501.884h480.878L517.829-340.001H273.333q-14.166 0-23.75-9.616Q240-359.234 240-373.451q0-14.216 9.583-23.716 9.584-9.5 23.75-9.5h178.566L55.109-803.566q-10.225-10.224-10.352-24.402-.126-14.177 10.352-24.655 10.306-10.225 24.57-10.225 14.263 0 24.488 10.225l744.811 745.398q10.384 10.28 10.431 24.46.047 14.18-10.431 24.544-10.267 10.279-24.47 10.279t-24.587-10.225l-95.406-95.137H149.058Zm726.073-26.819-64.189-64.028v-486.791H325.485l-75.754-75.913h561.211q30.393 0 53.153 22.76 22.76 22.76 22.76 53.153v501.193q0 13.519-2.837 25.808t-8.887 23.818Zm-291.922-293.21-66.781-66.666h170.239q14.166 0 23.75 9.617Q720-520.766 720-506.549q0 14.216-9.583 23.716-9.584 9.5-23.75 9.5H583.209Zm-18.383-18.428Zm-174.797 22.398Zm-116.813-3.97q-14.216 0-23.716-9.617-9.5-9.617-9.5-23.833 0-14.217 9.617-23.716 9.617-9.5 23.833-9.5 14.216 0 23.716 9.617 9.5 9.616 9.5 23.833 0 14.216-9.617 23.716-9.617 9.5-23.833 9.5Z"/></svg>