<svg xmlns="http://www.w3.org/2000/svg" height="40" viewBox="0 -960 960 960" width="40"><path d="M688.884-370.015q-42.233 0-71.428-29.195t-29.195-71.428q0-42.233 29.195-71.428t71.428-29.195q42.233 0 71.428 29.195t29.195 71.428q0 42.233-29.195 71.428t-71.428 29.195ZM486.928-187.753v-19.334q0-24.532 12.177-45.599 12.178-21.067 34.453-32.198 36.478-17.652 75.473-26.199t79.83-8.547q40.835 0 80.067 8.46 39.232 8.46 75.043 26.286 22.942 10.464 34.906 31.741 11.964 21.278 11.964 46.056v19.334q0 16-11.028 26.938-11.028 10.938-27.008 10.938H524.804q-16 0-26.938-10.938-10.938-10.938-10.938-26.938Zm-90.946-296.341q-68.982 0-114.489-45.508-45.507-45.507-45.507-114.489t45.507-114.481q45.507-45.5 114.489-45.5t114.601 45.5q45.62 45.499 45.62 114.481t-45.62 114.489q-45.619 45.508-114.601 45.508Zm.032-160.029ZM69.319-257.05q0-35.756 18.103-65.876 18.104-30.12 52.088-45.943 65.686-30.319 128.894-45.772t127.44-15.453q34.339 0 63.603 4.12 29.263 4.119 61.219 11.105-16 16.159-32.08 32.358-16.079 16.199-32.079 32.199-13.909-2.382-28.913-3.125-15.004-.744-31.58-.744-56.447 0-110.354 11.975-53.906 11.974-112.588 40.75-12.587 6.333-20.293 19.11-7.707 12.778-7.707 26.376v30.34h275.189v35.924q0 12.134 5.045 22.436 5.044 10.303 12.774 17.393H145.072q-31.493 0-53.623-22.213-22.13-22.214-22.13-53.54v-31.42Zm350.942 31.42Zm-24.282-334.218q35.999 0 60.155-24.128 24.156-24.129 24.156-60.139 0-36.076-24.121-60.14-24.12-24.064-60.119-24.064-35.999 0-60.155 24.086t-24.156 60.036q0 36.05 24.12 60.2 24.121 24.149 60.12 24.149Z"/></svg>