<svg xmlns="http://www.w3.org/2000/svg" height="40" viewBox="0 -960 960 960" width="40"><path d="m441.833-114.181 74.507-73.84h330.327q15.569 0 26.285 10.703 10.715 10.703 10.715 26.254 0 15.731-10.715 26.307-10.716 10.576-26.285 10.576H441.833Zm62.935-231.58-158.21-158.21L688.247-845.66q11.463-11.355 27.195-11.355 15.732 0 27.087 11.355l103.928 103.928q11.355 11.463 11.355 27.195 0 15.732-11.355 27.087L504.768-345.761Zm0-104.47 264.834-264.74-53.834-53.834-264.739 264.834 53.739 53.74ZM203-114.181q-48.63 0-92.964-19.953Q65.703-154.087 31.79-188L305-460.21l108.179 107.939q14.843 14.843 23.241 33.999 8.399 19.156 8.399 40.272t-8.393 40.758q-8.394 19.641-23.201 34.467l-19 19q-33.039 33.045-76.527 51.32Q274.21-114.181 227-114.181h-24Zm0-73.761h24.035q32.421 0 62.545-12.346 30.125-12.346 52.717-35.176l21.74-21.739q8.724-8.782 7.724-20.826t-9.725-20.928L305-356.073 144.963-196.558q14.062 4.428 28.685 6.522 14.623 2.094 29.352 2.094Zm566.602-527.029-53.834-53.834 53.834 53.834ZM305-356.073Z"/></svg>