<svg xmlns="http://www.w3.org/2000/svg" height="40" viewBox="0 -960 960 960" width="40"><path d="M187.007-337.949V-641.5q0-68.841 48.018-116.978 48.018-48.138 116.859-48.138 68.84 0 116.859 48.138 48.018 48.137 48.018 116.978v282.891q0 37.479 26.819 64.098 26.819 26.62 64.297 26.62 37.478 0 64.377-26.62 26.899-26.619 26.899-64.098v-303.442l-42.457 42.297q-11.036 11.196-26.678 11.069-15.641-.127-26.677-11.163-10.783-11.036-10.71-26.964.072-15.927 10.949-26.804l105.812-106.478q5.732-5.892 12.434-8.577 6.703-2.684 14.167-2.684 7.623 0 14.246 2.684 6.624 2.685 12.515 8.577l106.558 106.558q11.036 11.036 10.909 26.71-.127 15.674-10.909 26.55-11.036 11.037-26.931 11.044-15.895.007-26.931-11.189l-42.457-41.63v303.442q0 68.841-48.138 116.74-48.137 47.898-116.978 47.898t-116.899-47.898q-48.058-47.899-48.058-116.74V-641.5q0-37.478-26.779-64.377-26.779-26.899-64.257-26.899-37.479 0-64.258 26.899-26.779 26.899-26.779 64.377v303.551l42.457-42.457q11.036-11.036 27.011-10.869 15.975.167 27.011 11.203 10.782 11.195 10.71 27.123-.073 15.927-10.949 26.804L250.768-219.826q-5.892 5.891-12.594 8.576-6.703 2.685-14.167 2.685-7.623 0-14.246-2.685-6.624-2.685-12.515-8.576L90.688-326.384q-11.036-11.036-10.656-26.884.38-15.848 11.323-26.884 11.036-11.036 26.931-11.163 15.895-.127 27.09 10.909l41.631 42.457Z"/></svg>