<svg xmlns="http://www.w3.org/2000/svg" height="40" viewBox="0 -960 960 960" width="40"><path d="M602.152-275.456q-79.526 0-132.958-48.834-53.433-48.833-68.549-117.833H217.92l52.471 52.551q11.022 11.261 11.062 26.541.04 15.281-11.315 26.502-11.102 11.261-26.562 11.261t-26.561-11.261L99.905-453.478q-5.876-5.918-8.449-12.595-2.572-6.676-2.572-14.034 0-7.357 2.572-13.932 2.573-6.575 8.45-12.483l117.109-116.949q11.101-11.261 26.508-11.261 15.406 0 26.72 10.761 11.25 11.679 11.25 27.167 0 15.488-11.355 26.709l-52.218 52.218h182.725q15.116-69 68.528-117.833 53.412-48.834 132.91-48.834 85.142 0 144.957 59.816Q806.855-564.913 806.855-480q0 84.913-59.821 144.728-59.821 59.816-144.882 59.816Zm-.157-75.754q53.737 0 91.342-37.448t37.605-91.185q0-53.737-37.432-91.342-37.431-37.605-91.145-37.605-53.713 0-91.278 37.448-37.566 37.448-37.566 91.185t37.402 91.342q37.402 37.605 91.072 37.605Zm.157-128.79Z"/></svg>