<svg xmlns="http://www.w3.org/2000/svg" height="40" viewBox="0 -960 960 960" width="40"><path d="M315.513-770.942q-15.962 0-26.86-11.034-10.899-11.033-10.899-27.022 0-15.988 11.033-26.922 11.034-10.935 27.022-10.935 15.988 0 26.923 11.062 10.934 11.061 10.934 27.091 0 15.962-11.061 26.861-11.062 10.899-27.092 10.899Zm328.917 0q-15.988 0-26.923-11.034-10.934-11.033-10.934-27.022 0-15.988 11.061-26.922 11.062-10.935 27.092-10.935 15.962 0 26.861 11.062 10.898 11.061 10.898 27.091 0 15.962-11.033 26.861-11.034 10.899-27.022 10.899ZM151.002-606.573q-15.988 0-26.843-11.061-10.855-11.062-10.855-27.092 0-15.962 11.002-26.861 11.001-10.898 26.942-10.898 15.94 0 26.875 11.033 10.935 11.034 10.935 27.022 0 15.988-11.034 26.923-11.033 10.934-27.022 10.934Zm657.7 0q-15.962 0-26.861-11.061-10.899-11.062-10.899-27.092 0-15.962 11.034-26.861 11.033-10.898 27.022-10.898 15.988 0 26.922 11.033 10.935 11.034 10.935 27.022 0 15.988-11.062 26.923-11.061 10.934-27.091 10.934Zm-657.7 328.819q-15.988 0-26.843-11.033-10.855-11.034-10.855-27.022 0-15.988 11.002-26.923 11.001-10.934 26.942-10.934 15.94 0 26.875 11.061 10.935 11.062 10.935 27.092 0 15.962-11.034 26.86-11.033 10.899-27.022 10.899Zm657.7 0q-15.962 0-26.861-11.033-10.899-11.034-10.899-27.022 0-15.988 11.034-26.923 11.033-10.934 27.022-10.934 15.988 0 26.922 11.061 10.935 11.062 10.935 27.092 0 15.962-11.062 26.86-11.061 10.899-27.091 10.899Zm-493.189 164.45q-15.962 0-26.86-11.002-10.899-11.001-10.899-26.942 0-15.94 11.033-26.875 11.034-10.935 27.022-10.935 15.988 0 26.923 11.034 10.934 11.033 10.934 27.022 0 15.988-11.061 26.843-11.062 10.855-27.092 10.855Zm328.917 0q-15.988 0-26.923-11.002-10.934-11.001-10.934-26.942 0-15.94 11.061-26.875 11.062-10.935 27.092-10.935 15.962 0 26.861 11.034 10.898 11.033 10.898 27.022 0 15.988-11.033 26.843-11.034 10.855-27.022 10.855Zm-290.764-164.45q-31.559 0-53.736-22.176-22.176-22.177-22.176-53.736v-252.907q0-31.559 22.176-53.736 22.177-22.176 53.736-22.176h252.907q31.559 0 53.736 22.176 22.176 22.177 22.176 53.736v252.907q0 31.559-22.176 53.736-22.177 22.176-53.736 22.176H353.666Z"/></svg>