<svg xmlns="http://www.w3.org/2000/svg" height="40" viewBox="0 -960 960 960" width="40"><path d="M540.015-267.116q31.232 0 50.46-19.058t19.228-49.34v-54.109q0-23-10.543-38.5-10.544-15.5-29.268-15.5 18.724 0 29.268-16 10.543-16 10.543-39v-37.225q0-30.282-19.667-49.253-19.666-18.971-50.818-18.971h-144.29q-14.211 0-24.062 9.851t-9.851 24.062q0 14.369 9.971 24.34t24.181 9.971h144.051v59.667h-60.646q-13.572 0-23.065 9.453-9.492 9.453-9.492 23.105 0 13.652 9.452 23.105 9.453 9.453 23.105 9.453h60.646v75.551H395.167q-14.21 0-24.181 9.971t-9.971 24.181q0 14.543 9.851 24.395 9.851 9.851 24.395 9.851h144.754Zm-149.87-586.218q-15.442 0-25.863-10.573-10.42-10.574-10.42-26.065 0-15.492 10.42-25.829 10.421-10.337 25.863-10.337h179.71q15.442 0 25.863 10.454 10.42 10.454 10.42 25.946 0 15.491-10.42 25.948-10.421 10.456-25.863 10.456h-179.71ZM480-68.471q-75.594 0-142.29-29.018t-116.612-78.815q-49.917-49.797-78.855-116.493-28.939-66.696-28.939-142.29t28.939-142.29q28.938-66.695 78.855-116.612 49.916-49.917 116.612-78.935T480-801.942q65.812 0 124.529 21.333 58.718 21.334 106.29 60.906l29.572-29.572q10.783-10.783 25.939-10.783 15.155 0 25.938 10.783 10.783 10.942 10.783 26.097 0 15.156-10.783 25.939l-29.413 29.413q36.906 43.732 60.453 101.329 23.547 57.598 23.547 131.41 0 75.594-29.018 142.29t-78.935 116.493q-49.916 49.797-116.612 78.815T480-68.471Z"/></svg>