<svg xmlns="http://www.w3.org/2000/svg" height="40" viewBox="0 -960 960 960" width="40"><path d="M280-233.862q-102.557 0-174.348-71.805-71.79-71.806-71.79-174.385 0-102.578 71.79-174.332Q177.443-726.138 280-726.138h400q102.557 0 174.348 71.805 71.79 71.806 71.79 174.385 0 102.578-71.79 174.332Q782.557-233.862 680-233.862H280Zm0-72.804h400q72 0 122.667-50.667T853.334-480q0-72-50.667-122.667T680-653.334H280q-72 0-122.667 50.667T106.666-480q0 72 50.667 122.667T280-306.666Zm-.706-66.001q44.706 0 76.039-31.294t31.333-76q0-44.706-31.294-76.039t-75.999-31.333q-44.706 0-76.039 31.294-31.334 31.294-31.334 76T203.294-404q31.294 31.333 76 31.333ZM480-480Z"/></svg>