<svg xmlns="http://www.w3.org/2000/svg" height="40" viewBox="0 -960 960 960" width="40"><path d="M275.087-25.95q-19.116-40.31-28.634-95.858-9.518-55.547-10.185-120.047 0-91.108 19.946-158.576 19.945-67.467 58.684-114.467v-206.457l122.153-203.906H460V-714q-9.333 5-14.667 14Q440-691 440-680q0 17 11.5 28.5T480-640q17 0 28.5-11.5T520-680q0-11-5-20t-15-14v-211.261h22.949l122.312 203.906v206.457q39.58 47 59.025 113.522 19.446 66.521 19.446 153.796 0 62.689-10.091 121.243-10.09 58.555-28.728 100.388-40.442-14.942-65.768-49.917-25.326-34.974-25.739-77.047-.667-27.08 6.953-56.253 7.62-29.174 7.62-66.624 0-59.036-30.609-118.174-30.609-59.137-97.37-101.543-65.761 42.406-96.87 101.543-31.109 59.138-31.109 118.841 0 36.116 7.667 65.543 7.667 29.428 7.921 56.001 0 42.898-26.04 79.08-26.04 36.18-66.482 48.55Z"/></svg>