<svg xmlns="http://www.w3.org/2000/svg" height="40" viewBox="0 -960 960 960" width="40"><path d="m257.586-520.79 54.733 54.573q11.101 11.261 10.982 26.721-.12 15.46-11.221 26.562-11.261 11.26-26.641 11.26-15.381 0-26.642-11.26L139.906-531.906q-11.355-11.355-11.355-26.761 0-15.405 11.355-26.76l119.13-118.972q11.102-11.261 26.562-11.261t26.721 11.261q11.101 11.102 11.101 26.562t-11.101 26.561l-54.733 54.733H608.79q31.246 0 53.5 22.253 22.254 22.254 22.254 53.5v329.609q0 16-10.972 26.938-10.972 10.939-27.022 10.939-16.05 0-26.905-10.939-10.855-10.938-10.855-26.938V-520.79H257.586Z"/></svg>