<svg xmlns="http://www.w3.org/2000/svg" height="40" viewBox="0 -960 960 960" width="40"><path d="M568.144-153.304q-16.05 0-26.905-10.939-10.855-10.938-10.855-26.938v-266.188L309.855-677.66v76.631q0 16.16-10.972 27.098-10.972 10.938-27.022 10.938-16.05 0-26.905-10.938t-10.855-27.098v-167.79q0-16 10.939-27.018 10.938-11.018 26.938-11.018h167.95q16 0 26.938 11.052 10.939 11.051 10.939 27.101 0 16.05-10.939 26.905-10.938 10.855-26.938 10.855h-76.791l220.624 220.863q10.275 10.275 16.326 24.166 6.051 13.89 6.051 28.957v265.775q0 16-10.972 26.938-10.972 10.939-27.022 10.939Z"/></svg>