<svg xmlns="http://www.w3.org/2000/svg" height="40" viewBox="0 -960 960 960" width="40"><path d="m225.283-193.304-22.058 66.732q-2.319 5.782-6.795 9.246-4.475 3.464-10.667 3.464h-4.988q-7.673 0-13.163-5.489-5.489-5.489-5.489-13.163v-66.45l-12.507 5.66q-31.732 0-54.022-22.047t-22.29-53.707v-461.645q0-31.726 22.047-53.82 22.047-22.093 53.707-22.093h661.884q31.726 0 53.82 22.093 22.093 22.094 22.093 53.82v461.645q0 31.726-22.369 53.7-22.37 21.974-53.862 22.054l-12.747-5.66v67.689q0 7.577-4.902 12.495-4.902 4.918-12.456 4.918h-6.36q-6.072 0-10.402-3.297-4.329-3.297-5.982-9.08l-22.058-67.065H225.283Z"/></svg>