<svg xmlns="http://www.w3.org/2000/svg" height="40" viewBox="0 -960 960 960" width="40"><path d="M480.148-270.095q15.222 0 25.519-10.402 10.297-10.402 10.297-25.561V-450.53l50.739 50.74q9.721 9.797 24.223 9.677 14.502-.119 24.538-10.22 9.797-9.861 9.677-24.399-.119-14.537-9.916-24.377L506.761-557.718q-11.435-11.116-26.681-11.116-15.247 0-26.602 11.355L344.775-448.87q-9.797 9.721-9.916 24.342-.12 14.622 10.06 24.817 9.388 9.718 23.963 9.718 14.575 0 24.415-9.797l50.739-50.74v144.472q0 15.159 10.445 25.561t25.667 10.402Zm-291.09-383.246v464.283h581.884v-464.283H189.058Zm0 540.037q-31.494 0-53.624-22.13-22.13-22.13-22.13-53.624v-509.435q0-12.929 4.178-24.934 4.177-12.005 12.213-22.124l56.993-73.326q10.236-13.281 25.689-20.629 15.453-7.349 32.478-7.349h469.783q16.86 0 32.315 7.349 15.455 7.348 25.692 20.629l57.819 73.326q7.877 10.119 12.134 22.124 4.257 12.005 4.257 24.934v509.435q0 31.494-22.177 53.624-22.176 22.13-53.736 22.13H189.058Zm21.21-613.877h538.797l-35.605-44.001H245.601l-35.333 44.001ZM480-421.239Z"/></svg>