<svg xmlns="http://www.w3.org/2000/svg" height="40" viewBox="0 -960 960 960" width="40"><path d="M480.047-73.304q-85.815 0-160.088-31.372-74.272-31.371-129.092-86.191-54.82-54.82-86.191-129.092-31.372-74.273-31.372-160.088 0-67.107 19.32-126.744 19.318-59.637 54.702-109.767l-97.66-97.74q-10.318-10.35-10.065-24.805.254-14.455 10.757-24.934 10.437-10.478 24.87-10.478 14.433 0 24.844 10.478l756.82 757.486q10.318 10.479 10.278 24.49-.039 14.01-10.492 24.489-10.368 10.318-24.708 10.318-14.339 0-24.817-10.319l-90.595-89.753q-50.13 35.384-109.767 54.703-59.637 19.319-126.744 19.319ZM480-149.058q50.881 0 96.604-13.934 45.723-13.935 85.005-39.219l-166-166.065-47.406 47.407q-11.499 11.355-26.869 11.688-15.371.333-26.747-11.022L277.181-438.275q-10.384-10.29-10.051-25.649.334-15.358 10.658-25.887 10.207-10.305 25.709-10.305 15.503 0 25.967 10.305l89.347 90.014 22.631-22.725-239.231-239.326q-25.284 39.282-39.219 84.988-13.934 45.706-13.934 96.86 0 140.242 95.468 235.592 95.468 95.35 235.474 95.35Zm335.319-98.384-55.428-55.028q24.274-38.311 37.663-83.084 13.388-44.772 13.388-94.446 0-140.242-95.468-235.592-95.468-95.35-235.474-95.35-49.674 0-94.446 13.388-44.773 13.389-83.084 37.663l-55.028-55.428q49.49-34.036 108.171-52.786 58.681-18.75 124.357-18.75 85.321 0 159.526 31.686 74.204 31.687 129.095 86.578 54.891 54.891 86.578 129.095 31.686 74.205 31.686 159.526 0 65.676-18.75 124.357t-52.786 108.171ZM595.688-467.594l-54.674-54.246 84.501-84.66q10.906-10.783 26.851-10.783 15.946 0 27.395 10.783 11.609 11.573 11.489 27.518-.12 15.946-11.569 27.395l-83.993 83.993Zm-64.261-63.833Zm-99.318 99.318Z"/></svg>