<svg xmlns="http://www.w3.org/2000/svg" height="40" viewBox="0 -960 960 960" width="40"><path d="M315.333-406H560q15.017 0 25.175-10.35 10.158-10.35 10.158-25.65v-88.667l68.421 68.261q4.891 5.051 10.569 2.698Q680-462.06 680-468.909v-185.714q0-6.624-5.677-8.99-5.678-2.365-10.569 2.526l-68.421 68.421V-682q0-15.017-10.158-25.175-10.158-10.158-25.175-10.158H315.333q-15.016 0-25.175 10.158Q280-697.017 280-682v240q0 15.3 10.158 25.65Q300.317-406 315.333-406Zm-82.029 172.696-95.362 95.362q-17.978 17.978-41.308 8.224-23.33-9.755-23.33-34.84v-646.384q0-31.06 22.38-53.486 22.38-22.427 53.374-22.427h661.884q31.06 0 53.486 22.427 22.427 22.426 22.427 53.486v501.884q0 30.994-22.427 53.374-22.426 22.38-53.486 22.38H233.304Zm-28.666-75.754h606.304v-501.884H149.058v561.211l55.58-59.327Zm-55.58 0v-501.884 501.884Z"/></svg>