<svg xmlns="http://www.w3.org/2000/svg" height="40" viewBox="0 -960 960 960" width="40"><path d="M189.058-538.087q-30.994 0-53.374-22.38-22.38-22.38-22.38-53.373v-157.342q0-30.993 22.38-53.373t53.374-22.38h157.341q30.993 0 53.373 22.38t22.38 53.373v157.342q0 30.993-22.38 53.373t-53.373 22.38H189.058Zm0 424.783q-30.994 0-53.374-22.38-22.38-22.38-22.38-53.374v-157.341q0-30.993 22.38-53.373t53.374-22.38h157.341q30.993 0 53.373 22.38t22.38 53.373v157.341q0 30.994-22.38 53.374-22.38 22.38-53.373 22.38H189.058ZM613.84-538.087q-30.993 0-53.373-22.38t-22.38-53.373v-157.342q0-30.993 22.38-53.373t53.373-22.38h157.342q30.993 0 53.373 22.38t22.38 53.373v157.342q0 30.993-22.38 53.373t-53.373 22.38H613.84Zm0 424.783q-30.993 0-53.373-22.38t-22.38-53.374v-157.341q0-30.993 22.38-53.373t53.373-22.38h157.342q30.993 0 53.373 22.38t22.38 53.373v157.341q0 30.994-22.38 53.374-22.38 22.38-53.373 22.38H613.84Z"/></svg>