<svg xmlns="http://www.w3.org/2000/svg" height="40" viewBox="0 -960 960 960" width="40"><path d="M180.528-193.304q-28.275 0-48.945-20.67-20.67-20.671-20.67-48.946v-434.399q0-28.355 20.67-48.946 20.67-20.59 48.945-20.59h81.943q28.355 0 48.866 20.59 20.511 20.591 20.511 48.946v434.399q0 28.275-20.511 48.946-20.511 20.67-48.866 20.67h-81.943Zm258.493 0q-28.115 0-48.865-20.67-20.75-20.671-20.75-48.946v-434.399q0-28.355 20.75-48.946 20.75-20.59 48.865-20.59h81.943q28.355 0 48.946 20.59 20.59 20.591 20.59 48.946v434.399q0 28.275-20.59 48.946-20.591 20.67-48.946 20.67h-81.943Zm258.413 0q-28.275 0-48.945-20.67-20.67-20.671-20.67-48.946v-434.399q0-28.355 20.67-48.946 20.67-20.59 48.945-20.59h81.943q28.355 0 48.946 20.59 20.59 20.591 20.59 48.946v434.399q0 28.275-20.59 48.946-20.591 20.67-48.946 20.67h-81.943Z"/></svg>