<svg xmlns="http://www.w3.org/2000/svg" height="40" viewBox="0 -960 960 960" width="40"><path d="m635.275-425.427-57.355-57.196q18.232-54.602-22.315-94.855-40.547-40.254-94.576-22.036l-55.602-55.761q16.95-9.442 36.033-13.75 19.083-4.308 38.54-4.308 72.333 0 122.833 50.5T653.333-500q0 19.457-4.188 38.659-4.189 19.203-13.87 35.914Zm133.768 133.579-49.985-49.637q41.551-31.587 75.341-70.902 33.79-39.316 53.949-87.613-49.834-106.094-147.018-169.714-97.184-63.62-214.663-63.62-35.457 0-70.08 4.388-34.624 4.388-66.921 17.91l-56.594-57.102q45.068-19.906 92.967-28.953t97.294-9.047q138.314 0 252.523 75.25t174.927 199.62q3.572 7.355 5.732 15.204 2.159 7.849 2.159 16.069 0 8.22-1.54 16.183-1.54 7.964-5.112 15.189-24.945 52.401-60.86 97.095-35.916 44.695-82.119 79.68Zm-289.059 97.986q-136.593 0-249.241-75.232-112.649-75.232-178.301-195.921-4.652-8.449-6.725-16.865-2.072-8.417-2.072-18.112 0-9.694 2.239-18.192 2.24-8.497 6.224-17.041 22.349-44.616 51.801-84.329 29.452-39.713 66.381-72.946l-95.594-95.849q-10.225-10.393-9.845-24.374.38-13.98 9.939-24.205 10.224-10.225 24.742-10.225t24.743 10.225l705.037 705.037q9.558 9.558 9.525 23.243-.032 13.684-9.594 23.996-9.489 10.898-23.967 10.898-14.478 0-24.703-10.224l-139.297-136.87q-39.239 14.145-79.671 20.565-40.431 6.421-81.621 6.421ZM220.792-641.848q-36.002 28-63.952 63.775-27.949 35.776-45.616 78.073 51.356 108.334 152.327 170.834 100.97 62.5 221.782 62.5 25.124 0 49.834-1.594 24.711-1.595 47.993-11.182l-54.667-55.334q-12.123 4.761-24.247 6.435-12.123 1.674-24.246 1.674-72.333 0-122.833-50.5T306.667-500q0-12.123 1.888-24.246 1.887-12.124 5.742-24.247l-93.505-93.355Zm314.49 121.921Zm-133.325 66.615Z"/></svg>