<svg xmlns="http://www.w3.org/2000/svg" height="40" viewBox="0 -960 960 960" width="40"><path d="M788.711-75.84 497.509-366.232h-4q-28.668 58.478-82.473 95.424-53.806 36.946-131.023 36.946-102.404 0-174.278-71.9Q33.862-377.662 33.862-480q0-66.957 34.2-125.5 34.199-58.544 97.583-92.454L74.92-788.711q-10.319-10.393-10.319-24.827 0-14.433 10.32-24.832 10.318-10.398 24.869-10.398 14.55 0 24.869 10.318L838.45-124.659q10.318 10.391 10.318 24.445 0 14.055-10.395 24.374-10.395 10.478-24.831 10.478T788.711-75.84Zm13.238-179.254-302.312-302.71h352.581q30.783 0 52.351 21.648 21.569 21.648 21.569 52.431v7.45q0 28.613-19.261 49.513-19.261 20.899-47.406 23.052h-30.667v91.783q-.16 18.355-8.156 33.101-7.996 14.746-18.699 23.732ZM280-405.051q30.333 0 52.083-20.554t22.786-51.685q-.239-7.761-3.119-16.689-2.881-8.927-10.214-16.609l-30.948-30.948q-7.015-7.174-16.316-10.254-9.301-3.079-16.982-3.079-31.131 1.036-51.685 22.786-20.554 21.75-20.554 52.083 0 31.505 21.722 53.227 21.722 21.722 53.227 21.722Z"/></svg>