<svg xmlns="http://www.w3.org/2000/svg" height="40" viewBox="0 -960 960 960" width="40"><path d="M303.569-366.667q13.953 0 23.293-9.544 9.341-9.543 9.341-22.942 0-14.064-9.275-23.325t-23.275-9.261q-13.334 0-22.928 9.211-9.594 9.21-9.594 23.275 0 13.398 9.576 22.992 9.576 9.594 22.862 9.594Zm58.772-117.609q14.065 0 23.326-9.543 9.26-9.544 9.26-22.942 0-14.065-9.21-23.326-9.211-9.261-23.275-9.261-13.398 0-22.993 9.211-9.594 9.21-9.594 23.275 0 13.398 9.544 22.992 9.544 9.594 22.942 9.594Zm0 235.218q14.065 0 23.326-9.544 9.26-9.544 9.26-22.942 0-14.065-9.21-23.325-9.211-9.261-23.275-9.261-13.398 0-22.993 9.21-9.594 9.211-9.594 23.275 0 13.398 9.544 22.993 9.544 9.594 22.942 9.594Zm58.836-117.609q13.953 0 23.294-9.544 9.34-9.543 9.34-22.942 0-14.064-9.274-23.325-9.275-9.261-23.276-9.261-13.333 0-22.927 9.211-9.595 9.21-9.595 23.275 0 13.398 9.576 22.992 9.576 9.594 22.862 9.594Zm0-235.217q13.953 0 23.294-9.544 9.34-9.544 9.34-22.942 0-14.065-9.274-23.325-9.275-9.261-23.276-9.261-13.333 0-22.927 9.21-9.595 9.211-9.595 23.275 0 13.399 9.576 22.993t22.862 9.594Zm58.773 117.608q14.064 0 23.325-9.543 9.261-9.544 9.261-22.942 0-14.065-9.21-23.326-9.211-9.261-23.276-9.261-13.398 0-22.992 9.211-9.594 9.21-9.594 23.275 0 13.398 9.544 22.992 9.544 9.594 22.942 9.594Zm0 235.218q14.064 0 23.325-9.544t9.261-22.942q0-14.065-9.21-23.325-9.211-9.261-23.276-9.261-13.398 0-22.992 9.21-9.594 9.211-9.594 23.275 0 13.398 9.544 22.993 9.544 9.594 22.942 9.594Zm58.836-117.609q13.953 0 23.294-9.544 9.34-9.543 9.34-22.942 0-14.064-9.275-23.325t-23.275-9.261q-13.334 0-22.928 9.211-9.594 9.21-9.594 23.275 0 13.398 9.576 22.992 9.576 9.594 22.862 9.594Zm0-235.217q13.953 0 23.294-9.544 9.34-9.544 9.34-22.942 0-14.065-9.275-23.325-9.275-9.261-23.275-9.261-13.334 0-22.928 9.21-9.594 9.211-9.594 23.275 0 13.399 9.576 22.993t22.862 9.594Zm58.772 117.608q14.065 0 23.326-9.543 9.261-9.544 9.261-22.942 0-14.065-9.211-23.326-9.21-9.261-23.275-9.261-13.398 0-22.992 9.211-9.594 9.21-9.594 23.275 0 13.398 9.543 22.992 9.544 9.594 22.942 9.594Zm0 235.218q14.065 0 23.326-9.544 9.261-9.544 9.261-22.942 0-14.065-9.211-23.325-9.21-9.261-23.275-9.261-13.398 0-22.992 9.21-9.594 9.211-9.594 23.275 0 13.398 9.543 22.993 9.544 9.594 22.942 9.594Zm58.837-117.609q13.953 0 23.293-9.544 9.341-9.543 9.341-22.942 0-14.064-9.275-23.325t-23.275-9.261q-13.334 0-22.928 9.211-9.594 9.21-9.594 23.275 0 13.398 9.576 22.992 9.576 9.594 22.862 9.594ZM479.984-73.304q-139.86 0-233.27-95.919T153.304-408q0-60.623 26.714-121.576 26.714-60.953 68.638-118.779 41.924-57.826 93.079-110.631 51.156-52.804 100.388-96.797 8.45-7.464 18.083-10.695 9.634-3.232 19.822-3.232 10.188 0 19.793 3.232 9.606 3.231 18.056 10.695 49.232 43.993 100.388 96.797 51.155 52.805 93.079 110.631 41.924 57.826 68.718 118.779Q806.855-468.623 806.855-408q0 142.858-93.506 238.777-93.506 95.919-233.365 95.919Z"/></svg>