<svg xmlns="http://www.w3.org/2000/svg" height="40" viewBox="0 -960 960 960" width="40"><path d="M769.218-73.862q-40.58 0-69.189-28.689-28.608-28.688-28.608-68.862 0-19.282 6.633-35.815 6.634-16.533 18.483-29.793L748-294.724q8.715-9.783 21.303-9.783 12.589 0 21.291 9.783l51.464 57.703q11.677 13.256 18.396 29.734 6.72 16.477 6.72 35.828 0 40.22-28.422 68.908-28.421 28.689-69.534 28.689ZM359.471-643.413h241.058v-84.811q0-50.663-35.011-85.893-35.011-35.231-85.402-35.231t-85.518 35.231q-35.127 35.23-35.127 85.893v84.811Zm120.641 362.855q32.221 0 55.055-22.521Q558-325.6 558-357.225q0-30.999-22.945-55.166-22.946-24.167-55.167-24.167-32.221 0-55.055 24.167Q402-388.224 402-356.891t22.945 53.833q22.946 22.5 55.167 22.5ZM229.058-73.862q-31.249 0-53.501-22.253-22.253-22.252-22.253-53.501V-567.5q0-31.314 22.253-53.614 22.252-22.299 53.501-22.299h54.66v-84.848q0-81.882 57.329-139.441t138.985-57.559q81.656 0 138.953 57.559t57.297 139.441v84.848h54.66q31.314 0 53.614 22.299 22.299 22.3 22.299 53.614v182.095q-9.797-2.399-19.569-3.305-9.773-.906-19.989-.906-81.12 0-138.498 57.213-57.378 57.213-57.378 139.663 0 32.424 10.344 63.038 10.344 30.615 29.714 55.84H229.058Z"/></svg>