<svg xmlns="http://www.w3.org/2000/svg" height="40" viewBox="0 -960 960 960" width="40"><path d="M685.551-31.935q-15.659 0-26.848-11.235-11.188-11.236-11.188-26.736 0-16.166 10.855-27.1 10.855-10.936 27.181-10.936 69.841 0 118.254-48.666 48.413-48.667 48.413-118.001 0-16.166 10.902-27.068 10.902-10.902 27.069-10.902 15.5 0 26.688 11.235 11.188 11.236 11.188 26.735 0 101.08-71.05 171.877-71.051 70.797-171.464 70.797ZM69.905-646.848q-15.5 0-26.735-11.188-11.235-11.189-11.235-26.848 0-100.921 71.05-172.051 71.051-71.13 171.624-71.13 16.166 0 27.402 11.188 11.235 11.188 11.235 26.688 0 16.167-10.902 27.069-10.902 10.902-27.069 10.902-69.333 0-118.333 48.747-49 48.746-49 117.92 0 16.326-10.935 27.515-10.935 11.188-27.102 11.188Zm123.348 451.819q-92.913-93.072-93.645-222.916-.732-129.845 92.102-222.519l68.783-68.877q13.21-13.21 25.978-7.623 12.768 5.587 22.805 15.624 23.666 23.666 23.601 56.594-.065 32.927-24.319 57.021L270.833-550q-11.355 11.515-11.355 26.768 0 15.254 11.355 26.609l16.731 17.398q25.392 25.391 25.392 61.518t-25.392 61.518q-8.144 8.145-8.144 19.895t8.144 19.735q7.986 8.145 19.736 8.145t19.735-8.145q41.761-41.76 41.841-100.688.08-58.927-41.935-100.942l-4.383-4.383 24.87-25.378q23.464-23.623 33.569-53.119 10.105-29.497 5.786-58.533l165.181-165.101q10.797-10.797 25.546-10.837 14.75-.04 25.547 10.598 10.798 10.797 10.798 25.667 0 14.869-10.798 25.666l-209.37 209.37 52.196 52.037 265.211-264.689q10.797-10.797 25.286-10.797t25.286 10.797q10.638 10.797 10.598 25.087-.04 14.29-10.837 25.087L496.818-461.775l51.718 52.464 236.37-236.37q10.797-10.637 25.587-10.598 14.789.04 25.587 10.837 10.797 10.797 10.797 25.094t-10.797 25.094L599.63-358.883l52.036 52.703 178.406-178.406q10.797-10.797 25.547-10.797t25.547 10.797q10.797 10.797 10.797 25.213 0 14.417-10.797 25.214L639.463-192.71q-92.674 92.674-222.692 91.848-130.018-.826-223.518-94.167Z"/></svg>