<svg xmlns="http://www.w3.org/2000/svg" height="40" viewBox="0 -960 960 960" width="40"><path d="M435.392-150.739 53.739-544.029Q43.26-554.667 38.14-568.21q-5.12-13.544-5.12-26.754 0-15.608 6.4-29.971 6.398-14.362 19.195-25.398 88.797-73.616 197.311-113.355 108.515-39.74 224.073-39.74t224.073 39.74q108.514 39.739 197.311 113.355 12.797 11.036 19.196 25.398 6.398 14.363 6.398 29.971 0 13.21-5.119 26.754-5.12 13.543-15.438 24.181l-63.422 63.979q-24.188-7.812-46.152-10.507-21.963-2.696-47.34-.623-85.347 6.732-145.231 68.21-59.884 61.478-64.464 147.622-.876 25.377 2.935 47.699 3.812 22.323 12.899 45.794l-30.001 30q-9.203 10.24-20.852 15.026-11.648 4.786-23.996 4.866-12.348.239-24.116-4.308-11.768-4.547-21.289-14.468Zm240.572 32.652q-16.167 0-27.022-10.855-10.855-10.855-10.855-27.022v-208.072q0-16.167 10.855-27.102 10.855-10.935 27.022-10.935h98.072q16.167 0 27.102 10.935 10.935 10.935 10.935 27.102v71.963h71.963q16.167 0 27.102 10.935 10.935 10.935 10.935 27.102v98.072q0 16.167-10.935 27.022-10.935 10.855-27.102 10.855H675.964Zm26.109-63.985h46.014v-46.015h-46.014v46.015Zm0-110.001h46.014v-46.014h-46.014v46.014Zm110 110.001h46.014v-46.015h-46.014v46.015Z"/></svg>