<svg xmlns="http://www.w3.org/2000/svg" height="40" viewBox="0 -960 960 960" width="40"><path d="M425.268-162.456 52.594-545.015q-10.572-11.13-15.565-25.253t-3.993-28.746q1-14.464 6.779-27.968 5.779-13.503 17.67-23.3 88.066-73.442 197.533-113.294Q364.485-803.428 480-803.428q115.609 0 224.877 39.74 109.268 39.739 197.159 113.261 11.892 9.797 17.87 23.547 5.978 13.75 7.058 28.119 1.239 14.37-3.92 28.493-5.16 14.123-15.877 25.253l-35.798 35.798q-27.92-48.652-78.018-79.717Q743.253-619.999 680-619.999q-92 0-156 63.999-63.999 64-63.999 156 0 65.203 32.931 115.739t84.373 78.101l-42.653 43.465q-11.514 12.072-25.714 17.648-14.199 5.576-28.938 5.576-14.739 0-29.058-5.456-14.319-5.457-25.674-17.529Zm418.58-25.972-82.87-82.536q-17.761 11.855-38.228 18.076-20.467 6.221-42.75 6.221-64 0-108.667-44.666Q526.667-336 526.667-400t44.666-108.667Q616-553.333 680-553.333t108.667 44.666Q833.333-464 833.333-400q0 23-6.007 43.428-6.007 20.427-18.29 35.202l83.631 83.964q10.224 10.225 10.232 24.363.007 14.137-10.471 24.615-10.225 10.225-24.29 10.225t-24.29-10.225ZM680-316.282q34.725 0 59.221-24.497 24.497-24.496 24.497-59.221 0-34.725-24.497-59.221-24.496-24.497-59.221-24.497-34.725 0-59.221 24.497-24.497 24.496-24.497 59.221 0 34.725 24.497 59.221 24.496 24.497 59.221 24.497Z"/></svg>