<svg xmlns="http://www.w3.org/2000/svg" height="40" viewBox="0 -960 960 960" width="40"><path d="M480.239-70.993q-34.036 0-58.214-24.137-24.177-24.138-24.177-58.174h164.543q0 34.036-24.137 58.174-24.138 24.137-58.015 24.137ZM230.913-269.058v-289.304q0-86.138 50.663-154.403 50.663-68.264 133.88-86.982v-22.405q0-27.073 18.816-45.888 18.815-18.815 45.728-18.815t45.728 18.815q18.816 18.815 18.816 45.888v22.405q30.833 6.732 57.594 21.182 26.761 14.449 49.464 36.123-56.87 10.725-107.946 34.076-51.076 23.352-96.989 57.185-30.072 22.631-31.453 61.837-1.38 39.206 27.598 68.025l252.022 252.261h73.985q16.167 0 27.101 10.855 10.935 10.855 10.935 27.022 0 16.167-10.935 27.022-10.934 10.855-27.101 10.855H191.181q-16.167 0-27.022-10.855-10.855-10.855-10.855-27.022 0-16.167 10.855-27.022 10.855-10.855 27.022-10.855h39.732ZM693-618.087q-45.203 0-85.685 14.841-40.482 14.84-73.721 40.84-10.797 8.558-24.094 8.518-13.297-.039-22.855-9.757-9.718-9.558-8.757-23.196.96-13.637 11.518-22.195 42.558-34.319 94.576-53.678Q636-682.073 694-682.073t109.518 19.359q51.518 19.359 94.076 53.678 10.558 8.558 11.018 22.195.461 13.638-9.257 23.196-9.558 9.478-22.355 9.638-12.797.159-23.594-8.399-33.239-26-74.221-40.84-40.982-14.841-86.185-14.841Zm1 120q-20.442 0-39.543 5.841-19.102 5.84-35.863 16.601-11.558 7.478-24.014 6.978-12.457-.5-21.935-9.978-9.718-9.558-9.257-22.475.46-12.916 11.257-21.235 25.319-18.319 55.217-29.018 29.899-10.7 63.138-10.7t63.899 10.7q30.659 10.699 56.376 29.018 10.638 8.319 11.218 21.235.58 12.917-9.138 22.475-9.478 9.478-22.435 9.518-12.956.04-24.514-7.279-16.761-10.761-35.363-16.221-18.601-5.46-39.043-5.46Zm0 140.797q-18.036 0-30.214-12.177-12.177-12.178-12.177-30.214 0-17.877 12.177-30.134 12.178-12.258 30.214-12.258 18.036 0 30.214 12.258 12.177 12.257 12.177 30.134 0 18.036-12.177 30.214Q712.036-357.29 694-357.29Z"/></svg>