<svg xmlns="http://www.w3.org/2000/svg" height="40" viewBox="0 -960 960 960" width="40"><path d="M412.269-32.029q0-29.26 20.938-50.076 20.938-20.815 50.829-21.851v-240.892q8.225 3.145 17.262 5.091 9.037 1.945 18.782 1.945 43.13 0 72.619-29.456 29.489-29.457 29.489-72.739 0-2.71-.119-5.689-.12-2.978-.199-5.695l125.927 30.203q16.558 4.079 30.076 14.438 13.518 10.359 21.997 25.156l91 164q15.318 27.998 11.079 58.973-4.239 30.976-26.741 53.789-27.933 28.02-66.708 28.02t-66.652-28.036L555.964-291.16v187.204q30.057 1.036 50.912 21.94 20.855 20.903 20.855 49.987H412.269Zm-258.936-92.007q-15.159 0-25.561-10.445t-10.402-25.667q0-15.222 10.402-25.519 10.402-10.297 25.561-10.297h133.334q15.159 0 25.561 10.445t10.402 25.667q0 15.222-10.402 25.519-10.402 10.297-25.561 10.297H153.333Zm131.87-163.015-180-51q-30.116-8.319-49.254-33.61-19.137-25.291-19.137-57.277 0-39.417 27.39-66.834 27.39-27.416 66.798-27.416h328.964q-19.797 14.239-30.975 35.714-11.177 21.475-11.177 47.402 0 24.427 9.787 44.568 9.788 20.14 27.162 34.49L351.833-295.29q-14.575 8.478-31.744 10.978t-34.886-2.739Zm234.955-88.355q-27.028 0-45.89-18.797-18.862-18.797-18.862-45.719 0-27.107 18.797-45.969 18.797-18.863 45.719-18.863 27.107 0 45.969 18.784 18.863 18.784 18.863 45.812t-18.784 45.89q-18.784 18.862-45.812 18.862Zm95.27-102.355q-11.16-28.594-36.656-46.511-25.497-17.916-58.694-17.916-11.875 0-22.667 2.279-10.791 2.279-20.599 6.836V-689q0-17.602 6.779-33.218 6.779-15.615 19.257-27.173l137-128q23.782-22.832 55.365-25.934 31.584-3.103 58.381 13.455 33.116 20.957 42.895 58.692 9.779 37.736-10.619 70.772L615.428-477.761ZM73.333-604.036q-15.159 0-25.561-10.445T37.37-640.148q0-15.222 10.402-25.519 10.402-10.297 25.561-10.297h133.334q15.159 0 25.561 10.445t10.402 25.667q0 15.222-10.402 25.519-10.402 10.297-25.561 10.297H73.333Zm120-160q-15.159 0-25.561-10.445t-10.402-25.667q0-15.222 10.402-25.519 10.402-10.297 25.561-10.297h173.334q15.159 0 25.561 10.445t10.402 25.667q0 15.222-10.402 25.519-10.402 10.297-25.561 10.297H193.333Z"/></svg>