<svg xmlns="http://www.w3.org/2000/svg" height="40" viewBox="0 -960 960 960" width="40"><path d="M480.027-484.754q31.343 0 53.361-21.965 22.018-21.965 22.018-53.308t-21.999-53.361q-21.998-22.018-53.387-22.018-31.39 0-53.328 21.999-21.938 21.998-21.938 53.387 0 31.39 21.965 53.328 21.965 21.938 53.308 21.938ZM480-886.855q19.257 0 38.632 2.348 19.376 2.348 37.876 7.442l97.789 98.029L624.261-749q-22.116 22.27-21.735 54.041.38 31.771 22.576 53.886 22.195 22.116 54.525 22.116t54.561-22.116l29.037-29.036 32.877 32.971q4.568 24.27 7.66 42.504 3.093 18.234 3.093 41.837 0 98.065-70.315 206.703T527.203-114.217q-9.718 8.985-22.142 13.225-12.423 4.239-25.061 4.239t-25.061-4.239q-12.424-4.24-21.982-13.225-51.101-45.891-101.232-98.13-50.13-52.239-89.735-108.471-39.606-56.232-64.146-114.982t-24.54-116.997q0-152.71 98.578-243.384Q350.461-886.855 480-886.855Zm283.225 159.746-58.037 58.036q-10.906 10.942-25.946 10.942-15.039 0-25.981-10.913-10.942-10.914-10.942-25.964 0-15.05 10.942-25.992l58.036-58.036-58.036-58.037q-10.942-10.906-10.942-25.946 0-15.039 10.942-25.901 10.942-10.863 25.981-10.863 15.04 0 25.946 10.783l58.037 58.196L821.261-889q10.907-10.783 25.946-10.783 15.039 0 25.981 10.783 10.783 10.907 10.783 25.946 0 15.039-10.783 25.981l-58.195 58.037L873.188-721q10.783 10.907 10.783 25.946 0 15.039-10.862 25.981-10.863 10.942-25.902 10.942-15.039 0-25.946-10.942l-58.036-58.036Z"/></svg>