<svg xmlns="http://www.w3.org/2000/svg" viewBox="0 0 243.601 55.38">
  <defs>
    <clipPath id="a">
      <path d="M0 0h243.601v55.38H0z"/>
    </clipPath>
  </defs>
  <g clip-path="url(#a)">
    <path d="M0 0h243.601v55.38H0V0z" fill="none"/>
    <path d="M10.265 30.756c-4.852 0-8.696-1.12-9.406-1.343-.373-.15-.56-.448-.56-.783v-.187l.486-2.464c.074-.373.336-.484.634-.484.075 0 .15 0 .262.037.784.149 4.591 1.232 8.173 1.232 3.06 0 5.786-.895 5.786-4.068 0-3.21-2.799-3.546-6.42-4.069C5.189 18.029 0 16.947 0 10.602c0-6.531 4.852-8.249 10.6-8.249 4.367 0 7.988 1.045 8.809 1.269.448.112.672.411.672.784v.186l-.522 2.426c-.037.262-.299.523-.598.523-.037 0-.075-.037-.112-.037-1.791-.374-4.553-1.12-7.838-1.12-2.762 0-5.673.523-5.673 3.658 0 3.098 3.135 3.546 6.456 4.03 4.367.673 9.332 1.307 9.332 8.25.001 6.531-5.299 8.434-10.861 8.434zm47.424-.447c-1.306.299-3.098.522-5.188.522-4.03 0-8.995-.41-8.995-6.345 0-4.815 3.023-5.336 6.01-5.822l6.643-1.082v-1.194c0-1.046-.113-1.792-1.045-2.203-.598-.261-1.493-.373-2.837-.373-2.539 0-5.3.746-6.42 1.044-.112 0-.186.038-.261.038-.187 0-.373-.074-.411-.336l-.523-2.314v-.15c0-.336.262-.484.448-.559.896-.336 4.329-1.269 8.137-1.269 2.65 0 4.441.373 5.635 1.045 1.903 1.045 2.278 2.799 2.278 4.815v10.302c.001 2.798-.933 3.284-3.471 3.881zm-1.531-9.48l-4.628.747c-1.53.223-2.949.446-2.949 2.872 0 2.912 2.351 3.135 4.144 3.135 1.455 0 2.65-.26 3.433-.522v-6.232zm18.319-6.719c-2.277 0-4.217.225-5.263.485v15.192c0 .336-.224.559-.559.559h-3.808c-.224 0-.634-.223-.634-.559V13.662c0-1.455.858-1.903 2.65-2.425 1.642-.523 4.292-.896 6.42-.934h.634c.523 0 .523 0 .784.112.15.075.336.224.336.597v2.426c-.001.374-.038.672-.56.672zm19.535 7.875c0 .41-.225.859-.784.859H80.725c0 1.718.485 2.651 1.493 3.434.971.783 2.389 1.12 4.404 1.12 2.314 0 4.068-.56 5.225-.896.075-.037.113-.037.187-.037.224 0 .411.15.522.523l.485 1.903c0 .037.038.113.038.187 0 .299-.187.447-.448.559-1.269.523-3.807 1.195-6.756 1.195-7.315 0-10.189-2.874-10.189-10.189 0-7.017 1.941-10.377 9.22-10.377 3.769 0 6.083.971 7.427 2.762 1.269 1.68 1.68 4.068 1.68 7.166v1.791h-.001zm-5.262-5.56c-.486-2.053-1.605-2.726-3.808-2.726-2.5 0-3.546.747-3.957 2.613-.261 1.045-.261 2.127-.298 3.359l8.361-.038c0-1.193-.038-2.201-.298-3.208zm47.722 13.884c-1.306.299-3.098.522-5.188.522-4.031 0-8.995-.41-8.995-6.345 0-4.815 3.024-5.336 6.01-5.822l6.644-1.082v-1.194c0-1.046-.113-1.792-1.045-2.203-.597-.261-1.493-.373-2.836-.373-2.539 0-5.301.746-6.421 1.044-.112 0-.186.038-.26.038-.187 0-.373-.074-.411-.336l-.522-2.314v-.15c0-.336.261-.484.447-.559.896-.336 4.33-1.269 8.138-1.269 2.649 0 4.441.373 5.635 1.045 1.904 1.045 2.278 2.799 2.278 4.815v10.302c-.002 2.798-.936 3.284-3.474 3.881zm-1.53-9.48l-4.628.747c-1.531.223-2.949.446-2.949 2.872 0 2.912 2.351 3.135 4.143 3.135 1.455 0 2.65-.26 3.434-.522v-6.232zm24.962 9.517h-3.845c-.336 0-.597-.223-.597-.559V16.611c0-2.164-.821-2.912-2.799-2.912-2.239 0-4.665.635-4.665.635v15.452c0 .336-.224.559-.559.559h-3.809c-.373 0-.633-.223-.633-.559V13.699c0-1.418.708-1.903 2.799-2.463 1.903-.523 5.038-.971 7.427-.971 4.665 0 7.241 1.195 7.241 5.673v13.848c0 .337-.224.56-.56.56zm21.642-.336c0 .15-.148.336-.373.336h-5.001c-.186 0-.373 0-.56-.223l-5.785-7.876h-1.27v7.54c0 .336-.186.559-.559.559h-3.845c-.335 0-.597-.223-.597-.559V3.697c0-.448.186-.672.635-.783l3.657-.635h.15c.336 0 .559.225.559.635v15.973h1.27l5.897-7.875c.149-.223.298-.26.485-.26l4.553.112c.262 0 .374.186.374.336 0 .075-.037.111-.075.186l-7.054 8.884 7.465 9.554c.046.051.073.117.074.186zM33.795 10.266c-2.501 0-5.375.411-7.614 1.195-1.68.523-2.351 1.082-2.351 3.023v21.45c0 .373.292.679.831.582.537-.097 3.536-.652 3.536-.652.448-.074.634-.298.634-.746v-4.853c1.589.379 3.218.57 4.852.567 6.942 0 8.249-4.367 8.249-10.264-.001-5.935-.935-10.302-8.137-10.302zm-1.419 17.132c-2.015 0-3.546-.447-3.546-.447V14.372s2.203-.598 3.919-.598c2.837 0 4.069.635 4.069 6.681 0 5.673-1.045 6.943-4.442 6.943zm78.04 2.948H97.987c-.337 0-.635-.261-.635-.596V3.361c0-.337.298-.598.635-.598h12.466c6.311 0 8.883 2.475 8.883 6.956 0 3.956-2.198 5.373-5.599 6.346 3.775.623 6.531 2.673 6.531 7.077.001 5.002-3.508 7.204-9.852 7.204zm-.486-23.738h-7.203v7.987l6.942-.298c2.837-.112 4.292-1.119 4.292-3.956 0-2.614-1.269-3.733-4.031-3.733zm-.186 11.608l-7.017-.223v8.509h7.017c3.769 0 5.001-1.642 5.001-3.919 0-3.06-1.007-4.255-5.001-4.367zM127.344 52.196h-1.897c-.184 0-.285-.084-.285-.234l-.168-2.799c-.083-1.391-1.156-1.726-2.647-1.777l-2.631-.067v4.626c0 .15-.118.251-.286.251h-1.86c-.151 0-.268-.101-.268-.251V40.08c0-.151.133-.269.285-.269h5.664c2.546 0 4.105.924 4.105 3.522 0 1.854-1.297 2.743-2.799 3.103 1.592.267 2.799.766 2.916 3.179l.101 2.312c.007.182-.055.269-.23.269zm-4.477-10.658h-3.15v4.239l2.698-.117c1.525-.067 2.497-.419 2.497-2.028-.001-1.424-.538-2.094-2.045-2.094zM24.366 52.417c-4.859 0-5.865-2.564-5.865-6.402 0-3.854 1.006-6.419 5.865-6.419 4.86 0 5.866 2.564 5.866 6.419-.001 3.837-1.006 6.402-5.866 6.402zm0-11.06c-3.05 0-3.385 1.607-3.385 4.641 0 3.05.318 4.658 3.369 4.658 3.066 0 3.401-1.625 3.401-4.658 0-3.049-.335-4.641-3.385-4.641zm13.44 11.026c-2.179 0-3.905-.486-4.223-.603-.183-.067-.302-.201-.251-.436l.218-1.106c.033-.2.201-.234.402-.2.352.066 2.06.553 3.67.553 1.375 0 2.597-.402 2.597-1.827 0-1.441-1.256-1.592-2.881-1.827-1.811-.268-4.14-.754-4.14-3.601 0-2.934 2.18-3.704 4.759-3.704 1.961 0 3.587.452 3.955.569.201.067.352.218.302.436l-.234 1.09c-.051.218-.184.251-.369.218-.804-.168-1.994-.503-3.469-.503-1.24 0-2.548.234-2.548 1.642 0 1.392 1.408 1.593 2.9 1.81 1.96.302 4.188.587 4.188 3.703 0 2.931-2.38 3.786-4.876 3.786zm16.388-.185h-7.775c-.151 0-.269-.101-.269-.251V40.083c0-.151.101-.218.252-.235l1.91-.251c.168-.017.251.118.251.234v10.474h5.631c.151 0 .268.117.268.268v1.358c.001.071-.027.14-.077.19-.051.05-.12.078-.191.077zm7.843.219c-4.859 0-5.865-2.564-5.865-6.402 0-3.854 1.006-6.419 5.865-6.419 4.86 0 5.866 2.564 5.866 6.419 0 3.837-1.006 6.402-5.866 6.402zm0-11.06c-3.05 0-3.385 1.607-3.385 4.641 0 3.05.318 4.658 3.368 4.658 3.067 0 3.402-1.625 3.402-4.658.001-3.049-.334-4.641-3.385-4.641zm12.803 7.288h-2.983c-.406-.004-.734-.331-.738-.737v-2.982c0-.402.336-.738.738-.738h2.983c.401 0 .72.336.72.738v2.982c0 .403-.319.737-.72.737zm14.763 3.353c0 .133-.084.2-.218.2h-1.977c-.15 0-.251-.084-.302-.234l-1.391-4.39h-4.441L79.9 51.998c-.034.116-.167.2-.285.2h-1.977c-.117 0-.218-.067-.218-.184 0-.017 0-.051.017-.118l4.005-11.864c.034-.118.186-.219.303-.219h3.585c.118 0 .27.101.303.219l3.955 11.847c.015.051.015.101.015.119zm-5.765-10.492h-.72l-1.342 4.29h3.436l-1.374-4.29zm18.719 10.34c.033.05.033.084.033.117 0 .117-.101.234-.185.234h-2.496c-.115-.002-.224-.051-.303-.134l-4.105-5.195h-.737v5.078c0 .15-.117.251-.285.251h-1.86c-.151 0-.268-.101-.268-.251v-11.88c0-.151.116-.252.268-.252h1.86c.168 0 .285.101.285.252v4.943h.737l3.955-5.06c.062-.086.162-.136.268-.135l2.295.033c.102 0 .202.118.202.235-.002.044-.02.086-.051.117l-4.658 5.664 5.045 5.983zm10.909.352h-8.026c-.151 0-.285-.117-.285-.268V40.083c0-.151.134-.269.285-.269h8.009c.168 0 .27.117.27.252v1.308c.003.072-.024.142-.075.193-.052.052-.122.079-.195.075h-5.898v3.251h5.647c.151 0 .268.117.268.269v1.324c0 .133-.116.251-.268.251h-5.647v3.653h5.915c.151 0 .27.116.27.251v1.291c0 .071-.028.139-.079.19-.051.05-.119.077-.191.076zm21.985.185c-2.179 0-3.904-.486-4.222-.603-.184-.067-.302-.201-.252-.436l.219-1.106c.033-.2.2-.234.402-.2.352.066 2.06.553 3.669.553 1.375 0 2.598-.402 2.598-1.827 0-1.441-1.258-1.592-2.883-1.827-1.809-.268-4.138-.754-4.138-3.601 0-2.934 2.178-3.704 4.758-3.704 1.961 0 3.586.452 3.955.569.201.067.352.218.302.436l-.235 1.09c-.051.218-.183.251-.368.218-.805-.168-1.995-.503-3.469-.503-1.24 0-2.548.234-2.548 1.642 0 1.392 1.408 1.593 2.899 1.81 1.961.302 4.19.587 4.19 3.703 0 2.931-2.379 3.786-4.877 3.786zm18.903-.185h-1.86c-.151 0-.268-.117-.268-.251v-5.195h-6.016v5.195c0 .15-.117.251-.286.251h-1.859c-.15 0-.268-.101-.268-.251V40.083c0-.151.101-.218.251-.235l1.91-.251c.168-.017.252.118.252.234v5.061h6.016v-4.809c0-.151.1-.218.234-.235l1.927-.251c.168-.017.234.118.234.234v12.116c.001.134-.117.251-.267.251zm9.417.219c-3.602 0-5.26-1.392-5.26-4.525v-7.809c0-.134.1-.201.251-.218l1.91-.269c.168-.017.252.118.252.234v8.195c0 1.66.518 2.631 2.865 2.631 2.061 0 2.848-.771 2.848-2.48v-8.093c0-.134.1-.201.235-.218l1.927-.269c.167-.017.234.118.234.234v8.01c.001 2.9-1.39 4.577-5.262 4.577zm13.255-.034c-2.179 0-3.904-.486-4.222-.603-.185-.067-.302-.201-.252-.436l.219-1.106c.033-.2.2-.234.402-.2.352.066 2.06.553 3.669.553 1.375 0 2.598-.402 2.598-1.827 0-1.441-1.258-1.592-2.883-1.827-1.809-.268-4.138-.754-4.138-3.601 0-2.934 2.178-3.704 4.759-3.704 1.961 0 3.586.452 3.955.569.201.067.353.218.302.436l-.235 1.09c-.051.218-.184.251-.368.218-.805-.168-1.995-.503-3.469-.503-1.241 0-2.548.234-2.548 1.642 0 1.392 1.408 1.593 2.899 1.81 1.961.302 4.19.587 4.19 3.703 0 2.931-2.38 3.786-4.878 3.786z" fill="#002776"/>
    <path d="M215.911 0c-2.926 0-5.743.457-8.39 1.298 11.141-2.417 22.183 2.172 26.161 11.571 4.597 10.865-1.984 24.036-14.7 29.417-11.407 4.827-23.871 1.743-29.636-6.785 3.372 11.488 13.985 19.879 26.565 19.879 15.292 0 27.69-12.397 27.69-27.69 0-15.293-12.398-27.69-27.69-27.69z" fill="#E60000"/>
    <path d="M218.983 42.286c12.717-5.381 19.298-18.551 14.7-29.417-3.978-9.4-15.021-13.988-26.161-11.571-11.191 3.554-19.3 14.024-19.3 26.392 0 2.714.397 5.334 1.125 7.811 5.764 8.528 18.229 11.613 29.636 6.785z" fill="#B20F0B"/>
    <path d="M223.009 40.204V11.772c-.002-.566-.461-1.024-1.027-1.024h-6.437c-.46 0-.719.102-1.13.256l-8.307 4.276c-.511.207-.717.513-.717 1.027v4.659c0 .548.444.99.991.99h5.316v22.352c2.506-.352 4.955-1.032 7.284-2.022a29.331 29.331 0 0 0 4.027-2.082z" fill="#FFF"/>
    <path d="M212.723 48.847h9.259c.566 0 1.027-.464 1.027-1.027v-7.616c-1.287.798-2.633 1.494-4.027 2.082-2.329.99-4.778 1.669-7.284 2.022v3.512c0 .563.463 1.027 1.025 1.027z" fill="none"/>
  </g>
</svg>