<svg xmlns="http://www.w3.org/2000/svg" viewBox="0 0 280.481 55.358">
  <defs>
    <clipPath id="a">
      <path d="M0 0h280.481v55.358H0z"/>
    </clipPath>
  </defs>
  <g clip-path="url(#a)">
    <path d="M0 0h280.481v55.358H0V0z" fill="none"/>
    <path d="M47.079 30.721c-4.887 0-8.677-1.097-9.376-1.296-.399-.2-.598-.399-.598-.798v-.2l.499-2.493c.099-.399.299-.499.598-.499h.299c.798.199 4.589 1.197 8.179 1.197 3.092 0 5.785-.898 5.785-4.09 0-3.192-2.792-3.591-6.383-4.089-3.99-.599-9.177-1.696-9.177-7.98 0-6.483 4.888-8.279 10.573-8.279 4.389 0 7.98.998 8.778 1.297.399.1.698.399.698.798v.299l-.499 2.394c0 .299-.299.499-.598.499h-.1c-1.795-.399-4.588-1.097-7.88-1.097-2.793 0-5.685.498-5.685 3.69 0 3.092 3.092 3.591 6.483 3.99 4.389.698 9.376 1.297 9.376 8.279-.1 6.483-5.386 8.378-10.972 8.378zm47.379-.498c-1.297.299-3.092.498-5.187.498-3.99 0-8.977-.399-8.977-6.383 0-4.788 2.992-5.387 5.985-5.786l6.683-1.097v-1.197c0-.997-.1-1.795-.998-2.194-.598-.299-1.496-.399-2.793-.399-2.493 0-5.286.698-6.383.997h-.3c-.199 0-.398-.099-.398-.299l-.499-2.294v-.1c0-.299.299-.498.399-.598.897-.299 4.289-1.297 8.179-1.297 2.693 0 4.488.399 5.685.998 1.895.997 2.294 2.792 2.294 4.787v10.274c-.199 3.092-1.097 3.491-3.69 4.09zm-1.496-9.476l-4.589.698c-1.496.2-2.992.399-2.992 2.893 0 2.892 2.394 3.092 4.189 3.092 1.496 0 2.693-.3 3.392-.499v-6.184zm18.353-6.683c-2.295 0-4.19.199-5.287.499v15.161c0 .299-.199.598-.598.598h-3.791c-.199 0-.598-.199-.598-.598V13.665c0-1.496.898-1.895 2.693-2.394 1.596-.499 4.289-.898 6.384-.898h.598c.499 0 .499 0 .798.1.1.1.299.2.299.599v2.393c0 .3 0 .599-.498.599zm19.549 7.88c0 .399-.199.897-.798.897h-12.468c0 1.696.499 2.694 1.497 3.392.997.798 2.393 1.097 4.388 1.097 2.294 0 4.09-.599 5.187-.898h.2c.199 0 .399.2.498.499l.499 1.895v.2c0 .299-.199.399-.399.598-1.297.499-3.79 1.197-6.783 1.197-7.281 0-10.173-2.893-10.173-10.174 0-6.982 1.895-10.373 9.176-10.373 3.79 0 6.084.997 7.381 2.792 1.297 1.696 1.696 4.09 1.696 7.182v1.696h.099zm-5.286-5.586c-.499-2.095-1.596-2.693-3.79-2.693-2.494 0-3.591.698-3.99 2.593-.299.998-.299 2.095-.299 3.392h8.378c0-1.297-.1-2.295-.299-3.292zm47.678 13.865c-1.297.299-3.092.498-5.187.498-3.99 0-8.977-.399-8.977-6.383 0-4.788 2.992-5.387 5.985-5.786l6.683-1.097v-1.197c0-.997-.1-1.795-.998-2.194-.598-.299-1.496-.399-2.793-.399-2.493 0-5.286.698-6.383.997h-.3c-.199 0-.399-.099-.399-.299l-.498-2.294v-.1c0-.299.299-.498.399-.598.897-.299 4.289-1.297 8.179-1.297 2.693 0 4.488.399 5.685.998 1.895.997 2.294 2.792 2.294 4.787v10.274c-.199 3.092-1.097 3.491-3.69 4.09zm-1.496-9.476l-4.589.698c-1.496.2-2.992.399-2.992 2.893 0 2.892 2.394 3.092 4.189 3.092 1.496 0 2.693-.3 3.392-.499v-6.184zm24.936 9.575h-3.89c-.3 0-.599-.199-.599-.598V16.558c0-2.195-.798-2.893-2.793-2.893-2.194 0-4.688.598-4.688.598v15.461c0 .299-.199.598-.598.598h-3.691c-.399 0-.598-.199-.598-.598V13.665c0-1.396.698-1.895 2.793-2.494 1.895-.498 5.087-.997 7.381-.997 4.688 0 7.281 1.197 7.281 5.685v13.865c0 .399-.299.598-.598.598zm21.644-.399c0 .2-.1.3-.399.3h-4.987c-.2 0-.399 0-.599-.2l-5.785-7.88h-1.197v7.581c0 .299-.199.598-.598.598h-3.89c-.299 0-.599-.199-.599-.598V3.691c0-.399.2-.699.599-.798l3.69-.599h.2c.299 0 .598.2.598.599v15.959h1.297l5.885-7.88c.1-.2.299-.299.499-.299l4.588.099c.299 0 .399.2.399.3 0 .099 0 .099-.1.199l-7.082 8.877 7.481 9.576v.199zM70.619 10.174c-2.494 0-5.386.399-7.581 1.197-1.695.499-2.393 1.097-2.393 2.992v21.445c0 .399.299.698.797.599l3.492-.699c.398-.099.598-.299.598-.698v-4.887c1.297.299 2.992.598 4.887.598 6.983 0 8.279-4.389 8.279-10.273 0-5.885-.897-10.274-8.079-10.274zM69.223 27.33c-1.995 0-3.591-.399-3.591-.399V14.363s2.194-.598 3.89-.598c2.793 0 4.089.598 4.089 6.683 0 5.685-.997 6.882-4.388 6.882zm78 2.992h-12.469c-.299 0-.598-.299-.598-.598V3.292c0-.3.299-.599.598-.599h12.469c6.283 0 8.877 2.494 8.877 6.982 0 3.99-2.195 5.386-5.586 6.384 3.79.598 6.483 2.693 6.483 7.082.1 4.987-3.391 7.181-9.774 7.181zm-.499-23.739h-7.182v7.98l6.982-.3c2.793-.099 4.289-1.097 4.289-3.989 0-2.594-1.296-3.691-4.089-3.691zm-.2 11.57l-6.982-.199v8.478h6.982c3.791 0 4.988-1.596 4.988-3.89 0-3.092-.998-4.289-4.988-4.389zM76.005 52.166H74.11c-.2 0-.299-.1-.299-.199l-.1-2.893c-.1-1.396-1.197-1.695-2.693-1.795l-2.593-.1v4.588c0 .2-.1.299-.3.299H66.23c-.199 0-.299-.099-.299-.299v-11.77c0-.199.1-.299.299-.299h5.686c2.593 0 4.089.898 4.089 3.491 0 1.895-1.297 2.793-2.793 3.092 1.596.3 2.793.798 2.893 3.192l.1 2.294c.099.299 0 .399-.2.399zm-4.389-10.672h-3.191v4.289l2.693-.1c1.496-.1 2.493-.399 2.493-1.995 0-1.496-.498-2.194-1.995-2.194zm132.56 10.672h-1.895c-.199 0-.299-.1-.299-.199l-.199-2.793c-.1-1.397-1.197-1.696-2.693-1.795l-2.594-.1v4.588c0 .199-.1.299-.299.299h-1.795c-.2 0-.3-.1-.3-.299v-11.87c0-.199.1-.299.3-.299h5.685c2.593 0 4.089.898 4.089 3.491 0 1.895-1.296 2.793-2.792 3.092 1.596.3 2.792.798 2.892 3.192l.1 2.294c.1.299 0 .399-.2.399zm-4.488-10.672h-3.192v4.289l2.693-.1c1.496-.1 2.494-.399 2.494-1.995.1-1.496-.499-2.194-1.995-2.194zm-25.435 10.672h-5.585c-.2 0-.3-.1-.3-.299v-11.87c0-.199.1-.299.3-.299h5.585c2.793 0 3.99 1.097 3.99 3.092 0 1.796-.997 2.394-2.494 2.893 1.696.299 2.893 1.197 2.893 3.192 0 2.294-1.496 3.291-4.389 3.291zm-.199-10.672h-3.192v3.59l3.092-.099c1.297-.1 1.895-.499 1.895-1.796 0-1.197-.598-1.695-1.795-1.695zm-.1 5.186l-3.192-.099v3.89h3.192c1.696 0 2.294-.699 2.294-1.796 0-1.396-.499-1.895-2.294-1.995zM10.972 52.166h-3.79c-.2 0-.3-.1-.3-.299L2.793 41.593h-.599l.2 10.274c0 .199-.1.299-.299.299H.299c-.199 0-.299-.1-.299-.299v-11.87c0-.099.1-.299.299-.299h3.99c.199 0 .299.1.299.2L8.777 50.57h.2l-.1-10.573c0-.199.2-.299.299-.299h1.696c.2 0 .299.1.299.299v11.87c.1.199 0 .299-.199.299zm14.563-10.772c.797 1.097 1.097 2.693 1.097 4.588 0 3.79-.998 6.384-5.885 6.384-1.696 0-2.993-.3-3.79-.898l-1.098 1.197c0 .1-.099.1-.199.1s-.1 0-.2-.1l-.798-.599-.099-.099s0-.1.099-.2l1.197-1.396c-.798-1.097-.997-2.693-.997-4.489 0-3.89.997-6.383 5.885-6.383 1.695 0 2.892.299 3.79.897l1.097-1.296c.1 0 .1-.1.2-.1s.1 0 .199.1l.798.598c.1.1.1.1.1.2 0 .099 0 .099-.1.199l-1.296 1.297zm-4.788-.1c-3.092 0-3.392 1.596-3.392 4.688 0 .998.1 1.895.3 2.593l5.585-6.483c-.598-.598-1.296-.798-2.493-.798zm3.092 1.995l-5.586 6.583c.499.499 1.297.698 2.494.698 3.092 0 3.391-1.596 3.391-4.688 0-.997 0-1.895-.299-2.593zm14.962-1.696H34.91v10.274c0 .199-.099.299-.299.299h-1.795c-.2 0-.299-.1-.299-.299V41.593h-3.89c-.2 0-.3-.099-.3-.299v-1.297c0-.099.1-.299.3-.299h10.174c.199 0 .299.1.299.299v1.297c0 .2-.1.299-.299.299zm12.168 0h-3.89v10.274c0 .199-.099.299-.299.299h-1.895c-.2 0-.299-.1-.299-.299V41.593h-3.89c-.2 0-.3-.099-.3-.299v-1.297c0-.099.1-.299.3-.299H50.77c.199 0 .299.1.299.299v1.297c.2.2.1.299-.1.299zm11.172 10.573h-7.98c-.199 0-.299-.1-.299-.299v-11.87c0-.199.1-.299.299-.299h7.98c.199 0 .299.1.299.299v1.297c0 .2-.1.299-.299.299h-5.885v3.292h5.685c.2 0 .299.1.299.299v1.297c0 .1-.099.299-.299.299h-5.685v3.691h5.885c.199 0 .299.099.299.299v1.296s-.1.1-.299.1zm28.128-10.772c.797 1.097 1.097 2.693 1.097 4.588 0 3.79-.998 6.384-5.885 6.384-1.696 0-2.993-.3-3.79-.898l-1.098 1.297c-.099.099-.099.099-.199.099s-.1 0-.2-.099l-.798-.599-.099-.1s0-.099.099-.199l1.197-1.396c-.798-1.098-.997-2.694-.997-4.489 0-3.89.997-6.384 5.885-6.384 1.695 0 2.892.3 3.79.898l1.097-1.297s.1-.099.2-.099c0 0 .1 0 .199.099l.798.599c0 .1.1.1.1.199 0 .1 0 .1-.1.2l-1.296 1.197zm-4.788-.1c-3.092 0-3.391 1.596-3.391 4.688 0 .998 0 1.895.299 2.593l5.585-6.483c-.598-.598-1.296-.798-2.493-.798zm3.092 1.995l-5.586 6.583c.499.499 1.297.698 2.494.698 3.092 0 3.391-1.596 3.391-4.688 0-.997-.1-1.895-.299-2.593zm11.67 4.09v4.588c0 .199-.1.299-.299.299h-1.895c-.2 0-.3-.1-.3-.299v-4.489l-4.688-7.281c-.099-.1 0-.399.2-.399h2.294c.199 0 .299.1.399.199l3.192 5.387 3.092-5.387c.1-.199.199-.199.299-.199h2.095c.199 0 .299.199.199.399l-4.588 7.182zm10.772-.599h-4.488c-.2 0-.399-.1-.399-.299v-.998c0-.199.199-.299.399-.299h4.488c.2 0 .3.1.3.299v.998c.099.199-.1.299-.3.299zm12.169-5.187h-3.89v10.274c0 .199-.1.299-.299.299H117.1c-.2 0-.299-.1-.299-.299V41.593h-3.891c-.199 0-.299-.099-.299-.299v-1.297c0-.099.1-.299.299-.299h10.075c.199 0 .299.1.299.299v1.297c.1.2 0 .299-.1.299zm12.668-.199c.798 1.097 1.097 2.693 1.097 4.588 0 3.79-.998 6.384-5.885 6.384-1.696 0-2.992-.3-3.79-.898l-1.098 1.297c-.099.099-.099.099-.199.099s-.1 0-.2-.099l-.797-.599-.1-.1s0-.099.1-.199l1.196-1.396c-.797-1.098-.997-2.694-.997-4.489 0-3.89.997-6.384 5.885-6.384 1.696 0 2.893.3 3.79.898l1.097-1.297c.1 0 .1-.099.2-.099s.1 0 .199.099l.798.599c.1.1.1.1.1.199 0 .1 0 .1-.1.2l-1.296 1.197zm-4.788-.1c-3.092 0-3.391 1.596-3.391 4.688 0 .998 0 1.895.299 2.593l5.586-6.483c-.499-.598-1.297-.798-2.494-.798zm3.192 1.995l-5.586 6.583c.499.499 1.297.698 2.494.698 3.092 0 3.391-1.596 3.391-4.688-.1-.997-.1-1.895-.299-2.593zm17.355 8.877h-3.79c-.2 0-.299-.1-.299-.299l-4.09-10.274h-.598l.199 10.274c0 .199-.099.299-.299.299h-1.795c-.2 0-.3-.1-.3-.299v-11.87c0-.099.1-.299.3-.299h3.989c.2 0 .3.1.3.2l4.189 10.672h.199l-.099-10.573c0-.199.199-.299.299-.299h1.696c.199 0 .299.1.299.299v11.87c.099.199 0 .299-.2.299zm8.479.2c-2.195 0-3.891-.499-4.19-.599-.199-.099-.299-.199-.299-.399l.2-1.097c0-.199.199-.199.398-.199.399.099 2.095.598 3.691.598 1.396 0 2.593-.399 2.593-1.795 0-1.397-1.296-1.596-2.892-1.796-1.796-.299-4.09-.798-4.09-3.591 0-2.892 2.195-3.69 4.788-3.69 1.995 0 3.591.499 3.99.598.199.1.399.2.299.399l-.199 1.098c-.1.199-.2.299-.399.199-.798-.199-1.995-.499-3.492-.499-1.196 0-2.593.2-2.593 1.596 0 1.397 1.397 1.596 2.893 1.796 1.995.299 4.189.598 4.189 3.69 0 2.793-2.394 3.691-4.887 3.691zm30.222-.2h-7.98c-.199 0-.299-.1-.299-.299v-11.87c0-.199.1-.299.299-.299h7.98c.2 0 .299.1.299.299v1.297c0 .2-.099.299-.299.299h-5.885v3.292h5.686c.199 0 .299.1.299.299v1.297c0 .1-.1.299-.299.299h-5.686v3.691h5.885c.2 0 .299.099.299.299v1.296s-.099.1-.299.1zm27.829-10.373c0 .199-.1.199-.3.199h-.199c-.499-.099-1.895-.598-3.691-.598-2.892 0-3.89.997-3.89 4.688 0 3.69.998 4.588 3.89 4.588.898 0 1.796-.199 1.995-.199V46.88l-1.995-.299c-.099 0-.199-.1-.199-.2v-1.297c0-.099.1-.199.199-.199h4.09c.199 0 .299.1.299.199v5.187c0 .898-.1 1.297-.997 1.596-.798.299-2.394.399-3.392.399-4.787 0-6.283-1.696-6.283-6.384 0-4.488 1.595-6.383 5.984-6.383 2.394 0 4.189.598 4.489.698.199.1.299.199.299.299v.2l-.299 1.097z" fill="#002776"/>
    <path d="M252.752 0c-2.893 0-5.785.499-8.379 1.297 11.172-2.394 22.144 2.194 26.133 11.57 4.589 10.872-1.994 24.038-14.662 29.425-11.371 4.787-23.839 1.695-29.624-6.783 3.391 11.471 13.964 19.849 26.532 19.849 15.261 0 27.729-12.368 27.729-27.729C280.481 12.269 268.013 0 252.752 0z" fill="#E60000"/>
    <path d="M255.744 42.292c12.668-5.387 19.251-18.553 14.663-29.425-3.99-9.376-15.062-13.964-26.133-11.57-11.172 3.59-19.251 14.064-19.251 26.432 0 2.693.399 5.286 1.097 7.78 5.785 8.478 18.253 11.57 29.624 6.783z" fill="#AF0000"/>
    <path d="M259.834 40.197V11.77c0-.599-.499-.998-.998-.998h-6.483c-.499 0-.698.1-1.097.3l-8.279 4.289c-.499.199-.698.498-.698.997v4.688c0 .499.399.997.997.997h5.287v22.343c2.394-.299 4.887-.997 7.281-1.995 1.396-.798 2.693-1.496 3.99-2.194z" fill="#FFF"/>
    <path d="M249.56 48.775h9.276c.599 0 .998-.499.998-.998v-7.58c-1.297.798-2.594 1.496-3.99 2.095-2.394.997-4.887 1.695-7.281 1.994v3.491c-.1.599.399.998.997.998z" fill="none"/>
  </g>
</svg>