<svg xmlns="http://www.w3.org/2000/svg" height="40" viewBox="0 -960 960 960" width="40"><path d="M214.155-420.001q-10.699 0-17.913-7.25-7.215-7.249-7.215-17.999t7.215-17.878q7.214-7.128 17.913-7.128h151.127q5.385 0 8.847-3.462 3.462-3.462 3.462-8.847v-79.999q0-5.385-3.462-8.847-3.462-3.462-8.847-3.462H213.488q-10.698 0-17.913-7.249-7.214-7.249-7.214-17.999t7.214-17.878q7.215-7.128 17.913-7.128h151.794q5.385 0 8.847-3.462 3.462-3.462 3.462-8.847v-79.999q0-5.385-3.462-8.847-3.462-3.462-8.847-3.462H214.155q-10.699 0-17.913-7.249-7.215-7.25-7.215-17.999 0-10.751 7.215-17.879 7.214-7.128 17.913-7.128h151.127q25.788 0 44.176 18.388t18.388 44.176v65.794q0 21.25-14.68 36.445Q398.487-600 381.231-600q17.256 0 31.935 16.244 14.68 16.243 14.68 37.294v63.897q0 25.788-18.388 44.176t-44.176 18.388H214.155Zm381.383 0q-25.788 0-44.175-18.388-18.388-18.388-18.388-44.176v-234.87q0-25.788 18.388-44.176 18.387-18.388 44.175-18.388h113.538q25.788 0 44.176 18.388 18.387 18.388 18.387 44.176v234.87q0 25.788-18.387 44.176-18.388 18.388-44.176 18.388H595.538Zm0-50.255h113.538q5.128 0 8.718-3.462t3.59-8.847v-234.87q0-5.385-3.59-8.847-3.59-3.462-8.718-3.462H595.538q-5.128 0-8.718 3.462t-3.59 8.847v234.87q0 5.385 3.59 8.847 3.59 3.462 8.718 3.462ZM161.93-90.001q-10.75 0-17.878-7.214-7.128-7.215-7.128-17.913v-123.795q0-10.698 7.25-17.913 7.249-7.215 17.999-7.215t17.878 7.215q7.128 7.215 7.128 17.913v123.795q0 10.698-7.249 17.913-7.25 7.214-18 7.214Zm128.204 0q-10.75 0-17.878-7.214-7.128-7.215-7.128-17.913v-123.795q0-10.698 7.25-17.913 7.249-7.215 17.999-7.215t17.878 7.215q7.128 7.215 7.128 17.913v123.795q0 10.698-7.249 17.913-7.25 7.214-18 7.214Zm128.205 0q-10.75 0-17.878-7.214-7.128-7.215-7.128-17.913v-123.795q0-10.698 7.249-17.913 7.25-7.215 18-7.215t17.878 7.215q7.128 7.215 7.128 17.913v123.795q0 10.698-7.25 17.913-7.249 7.214-17.999 7.214Zm128.325 0q-10.698 0-17.913-7.214-7.214-7.215-7.214-17.913v-123.795q0-10.698 7.214-17.913 7.215-7.215 17.913-7.215h251.284q10.699 0 17.913 7.215 7.215 7.215 7.215 17.913v123.795q0 10.698-7.215 17.913-7.214 7.214-17.913 7.214H546.664Z"/></svg>