<svg xmlns="http://www.w3.org/2000/svg" viewBox="0 -960 960 960" width="32" height="32"><path d="m560.51-458.46 81.75 85.49q1.74 2.2 14.82 6.82 13.64 0 19.29-12.8 5.65-12.79-3.81-22.61l-75.69-79.21 76.28-79.05q9.21-9.69 3.49-21.86-5.72-12.17-19.18-12.17-4.26 0-7.73 1.82-3.47 1.83-6.7 5l-82.52 84.72v-70.25q0-9.23-6.02-15.26-6.03-6.03-15.26-6.03-9.49 0-15.51 6.03-6.03 6.03-6.03 15.26v184.87q0 9.48 6.03 15.51 6.02 6.03 15.51 6.03 9.23 0 15.26-6.03 6.02-6.03 6.02-15.51v-70.77Zm-178.82-92.57-52.87 154.49q-3.85 11.46 3.04 20.92 6.88 9.47 18.68 9.47 7.61 0 13.49-4.56 5.87-4.55 8.48-11.75L430-551.44q5.36-16.1-5.19-29.25-10.55-13.16-26.66-13.16H287.08q-9.23 0-15.26 6.03-6.02 6.03-6.02 15.26 0 9.48 6.02 15.51 6.03 6.02 15.26 6.02h94.61ZM202.57-140q-25.85 0-44.21-18.36T140-202.57v-554.86q0-25.85 18.36-44.21T202.57-820h554.86q25.85 0 44.21 18.36T820-757.43v554.86q0 25.85-18.36 44.21T757.43-140H202.57Z"/></svg>