<svg xmlns="http://www.w3.org/2000/svg" height="40" viewBox="0 -960 960 960" width="40"><path d="m560.512-458.462 81.744 85.487q1.744 2.205 14.82 6.821 13.641 0 19.295-12.795 5.654-12.795-3.808-22.615l-75.693-79.205 76.283-79.052q9.205-9.692 3.487-21.858-5.718-12.167-19.179-12.167-4.256 0-7.73 1.821-3.475 1.82-6.705 5l-82.514 84.718v-70.257q0-9.231-6.026-15.256-6.025-6.026-15.256-6.026-9.487 0-15.512 6.026-6.026 6.025-6.026 15.256v184.872q0 9.487 6.026 15.512 6.025 6.026 15.512 6.026 9.231 0 15.256-6.026 6.026-6.025 6.026-15.512v-70.77Zm-262.307 92.308h98.41q13.59 0 22.795-9.205 9.205-9.205 9.205-22.795v-163.282q0-13.589-9.205-23-9.205-9.41-22.795-9.41h-98.41q-13.589 0-22.999 9.41-9.411 9.411-9.411 23v163.282q0 13.59 9.411 22.795 9.41 9.205 22.999 9.205Zm10.41-129.641v-66.051h77.18v66.051h-77.18Zm0 97.641v-65.641h77.18v65.641h-77.18Zm-106.05 258.153q-25.846 0-44.205-18.359-18.359-18.359-18.359-44.205v-554.87q0-25.846 18.359-44.205 18.359-18.359 44.205-18.359h554.87q25.846 0 44.205 18.359 18.359 18.359 18.359 44.205v554.87q0 25.846-18.359 44.205-18.359 18.359-44.205 18.359h-554.87Z"/></svg>