<svg xmlns="http://www.w3.org/2000/svg" height="40" viewBox="0 -960 960 960" width="40"><path d="M401.923-366.154q-6.307 0-11.038-4.731t-4.731-11.038v-196.41q0-6.205 4.731-10.859t11.038-4.654H544.82q13.762 0 23.086 9.491 9.324 9.491 9.324 22.919v50.565q0 12.274-7.978 21.188T548.667-480q12.274 1.154 20.419 9.876 8.144 8.721 8.144 20.995v50.565q0 13.428-9.324 22.919t-23.086 9.491H401.923Zm25.974-134.717h107.591v-51.232H427.897v51.232Zm0 92.974h107.591v-51.232H427.897v51.232Zm-280.15 41.743q-9.039 0-14.931-5.927-5.892-5.926-5.892-14.945v-174.41q0-13.428 9.491-22.919 9.49-9.491 22.918-9.491H285.59q13.761 0 23.085 9.491Q318-574.864 318-561.436v174.795q0 8.634-5.94 14.56-5.94 5.927-14.979 5.927-9.04 0-14.932-5.927-5.892-5.926-5.892-14.945v-51.231H168.666v51.616q0 8.634-5.94 14.56-5.94 5.927-14.979 5.927Zm20.919-114.102h107.591v-71.847H168.666v71.847ZM674.41-366.154q-13.761 0-23.085-9.491Q642-385.136 642-398.564v-162.872q0-13.428 9.325-22.919 9.324-9.491 23.085-9.491h126.257q13.428 0 22.918 9.491 9.491 9.491 9.491 22.919v27.616q0 8.634-5.939 14.56-5.94 5.927-14.98 5.927-9.039 0-14.931-5.927-5.892-5.926-5.892-14.945v-17.898H683.743v144.206h107.591v-17.898q0-9.019 5.94-14.945 5.94-5.927 14.979-5.927 9.039 0 14.931 5.927 5.892 5.926 5.892 14.945v27.231q0 13.428-9.491 22.919-9.49 9.491-22.918 9.491H674.41Z"/></svg>