<svg xmlns="http://www.w3.org/2000/svg" height="40" viewBox="0 -960 960 960" width="40"><path d="M479.875-859.999q79.304 0 148.547 29.629 69.244 29.628 120.782 81.166t81.166 120.735q29.629 69.197 29.629 148.591 0 78.852-29.629 148.198-29.628 69.346-81.166 120.884T628.469-129.63q-69.197 29.629-148.591 29.629-78.852 0-148.144-29.567-69.291-29.566-120.945-81.221-51.655-51.654-81.221-120.945-29.567-69.292-29.567-148.144 0-79.394 29.629-148.591 29.628-69.197 81.166-120.735t120.927-81.166q69.388-29.629 148.152-29.629Zm-76.695 192.41q0 33.257 21.782 55.039 21.782 21.781 55.038 21.781t55.038-21.781q21.782-21.782 21.782-55.039 0-32.999-21.782-54.91-21.782-21.91-55.038-21.91t-55.038 21.91q-21.782 21.911-21.782 54.91Zm76.764 113.743q-64.328 0-120.084 20.91-55.756 20.911-55.756 76.404v147.012q0 55.493 55.839 75.788 55.839 20.295 120.198 20.295 15.705 0 26.038-10.411 10.334-10.41 10.334-26.102t-10.411-26.102q-10.41-10.411-26.102-10.411-20.743-.282-40.359-4.833-19.615-4.551-38.435-12.987-8.616-3.821-11.834-11.667t1.526-15.461q14.72-20.115 39.401-26.327 24.681-6.211 49.701-6.211 34.59 0 65.679 8.089 31.09 8.09 31.09 38.064v49q0 10.41 7.08 17.974t17.714 7.564q24.18 0 39.257-20.141 15.076-20.141 15.076-45.987v-147.111q0-55.528-55.812-76.439-55.812-20.91-120.14-20.91Zm.002 170.615q-20.895 0-34.984-14.272-14.09-14.272-14.09-34.91 0-20.895 14.144-34.985 14.144-14.089 35.038-14.089 20.895 0 34.984 14.144 14.09 14.143 14.09 35.038 0 20.638-14.144 34.856t-35.038 14.218Z"/></svg>