<svg xmlns="http://www.w3.org/2000/svg" height="40" viewBox="0 -960 960 960" width="40"><path d="M223.012-120.001q-12.855 0-26.831-7.859-13.975-7.859-20.287-19.284L78.98-316.806q-6.543-11.681-6.735-27.297-.192-15.615 6.603-26.974l257.179-441.845q6.538-11.359 20.217-19.218 13.68-7.859 26.577-7.859h194.358q12.897 0 26.577 7.859 13.679 7.859 20.474 19.218l148.889 256.247q7.495 13.112-.09 25.727t-22.799 11.512q-6.204-.615-11.619-3.564-5.414-2.949-8.88-8.579L579.282-789.744H380.718L120.769-344l99.282 173.744h314.154q6.146 0 11.099 2.5 4.952 2.499 8.747 7.474 9.077 12.692 2.359 26.486-6.718 13.795-22.205 13.795H223.012Zm88.552-170q-7.205 0-13.884-3.628t-10.115-10.218l-6.667-11.64q-3.948-7.03-3.743-15.451.205-8.421 4.153-15.831l161.411-281.564q3.838-7.058 11.245-11.285 7.406-4.228 15.831-4.228h21.948q7.579 0 14.255 3.805 6.675 3.804 10.176 10.208l83.84 145.464q4.037 7.278 2.914 15.444-1.123 8.166-7.449 14.885-8.735 9.219-20.684 7.527-11.948-1.692-18.624-12.684L480-591.489 335.768-340.256H498.59q11.912 0 19.187 8.449 7.274 8.448 5.402 20.233-1.435 9.086-8.501 15.33-7.066 6.243-16.043 6.243H311.564Zm423.309 35.128H640q-10.852 0-17.99-7.141-7.137-7.141-7.137-17.999 0-10.858 7.137-17.986 7.138-7.128 17.99-7.128h94.873V-400q0-10.852 7.141-17.99 7.142-7.137 17.999-7.137 10.858 0 17.986 7.137 7.128 7.138 7.128 17.99v94.873H880q10.852 0 17.99 7.141 7.137 7.141 7.137 17.999 0 10.858-7.137 17.986-7.138 7.128-17.99 7.128h-94.873V-160q0 10.852-7.141 17.99-7.142 7.137-17.999 7.137-10.858 0-17.986-7.137-7.128-7.138-7.128-17.99v-94.873Z"/></svg>