<svg xmlns="http://www.w3.org/2000/svg" height="40" viewBox="0 -960 960 960" width="40"><path d="M414.462-544.361 187.333-317.898q-7.231 7.231-17.5 7.423-10.269.192-17.884-7.423t-7.615-17.897q0-10.282 7.615-17.897l226.053-226.052H235.128q-10.685 0-17.906-7.259-7.221-7.258-7.221-17.999t7.221-17.869q7.221-7.128 17.906-7.128h198.307q13.045 0 22.164 8.99 9.118 8.99 9.118 22.291v198.308q0 10.685-7.258 17.906-7.259 7.221-18 7.221t-17.869-7.221q-7.128-7.221-7.128-17.906v-143.951Zm-91.897 484.36q-25.609 0-44.086-18.478-18.478-18.477-18.478-44.086v-114.256q0-10.686 7.259-17.907 7.258-7.221 17.999-7.221t17.869 7.221q7.128 7.221 7.128 17.907v31.181h419.488v-548.72H310.256v31.181q0 10.686-7.258 17.907t-18 7.221q-10.741 0-17.869-7.221t-7.128-17.907v-114.256q0-25.609 18.478-44.086 18.477-18.478 44.086-18.478h394.87q25.609 0 44.086 18.478 18.478 18.477 18.478 44.086v714.87q0 25.609-18.478 44.086-18.477 18.477-44.086 18.477h-394.87Z"/></svg>