<svg xmlns="http://www.w3.org/2000/svg" height="40" viewBox="0 -960 960 960" width="40"><path d="M490.257-290.001H157.949q-25.705 0-44.134-18.429-18.43-18.429-18.43-44.134v-452.308q0-10.698 7.25-17.913 7.25-7.214 18-7.214t17.878 7.214q7.128 7.215 7.128 17.913v452.308q0 4.615 3.846 8.462 3.847 3.846 8.462 3.846h332.308q10.698 0 17.913 7.25 7.214 7.249 7.214 17.999t-7.214 17.878q-7.215 7.128-17.913 7.128Zm120.41-104.87H333.076q-43.461 0-74.294-30.833t-30.833-74.295v-298.719q0-13.39 8.945-22.336 8.946-8.945 22.337-8.945h147.691q13.391 0 22.336 8.945 8.946 8.946 8.946 22.336v233.592h143.335q19.031 0 34.284 10.538 15.253 10.539 24.023 27.103l135.486 278.05 61.796-27.59q16.487-6.82 33.281-3.103 16.795 3.718 25.436 20.271 9.025 16.241 2.465 33.298-6.56 17.057-23.542 25.019L763.64-151.027q-11.564 5.41-23.73 1.128-12.167-4.282-17.321-15.641L610.667-394.871Z"/></svg>