<svg xmlns="http://www.w3.org/2000/svg" height="40" viewBox="0 -960 960 960" width="40"><path d="m699.282-220.486-21.615-21.616q-7.077-6.821-16.885-6.821-9.807 0-16.884 6.821-7.077 7.077-7.077 16.705 0 9.628 7.077 16.448l39 39.256q7.41 7.154 16.577 7.154 9.166 0 16.32-7.154l93.025-91.41q7.077-6.82 7.141-16.563.064-9.744-7.141-17.205-7.077-6.82-17.077-6.82-9.999 0-17.076 6.82l-75.385 74.385Zm27.077 162.382q-72.358 0-123.204-51.179-50.846-51.179-50.846-122.46 0-72.615 50.846-123.666t123.204-51.051q71.948 0 122.999 51.051t51.051 123.666q0 71.281-51.051 122.46-51.051 51.18-122.999 51.18ZM208.181-220q-18.974 0-27.73-16.244-8.757-16.243 1.602-31.756l131.41-205.46q1.923-3.077 1.923-6.539 0-3.462-1.923-6.539l-131.41-205.46q-10.359-15.513-1.602-31.756 8.756-16.244 27.73-16.244H580.46q21.846 0 40.449 10.539 18.603 10.538 31.192 27.974l139.257 195.769q7.718 10.975.025 22-7.692 11.026-21.025 7.718-11.23-4.205-22.153-6.308-10.923-2.102-22.564-2.102-51.769.154-96.73 19.679-44.961 19.526-79.192 52.679-34.461 34.718-53.59 78.179-19.128 43.461-20.205 92.102-.564 8.974-6.654 15.371-6.089 6.398-14.448 6.398H208.181Z"/></svg>