<svg xmlns="http://www.w3.org/2000/svg" viewBox="0 -960 960 960" width="32" height="32"><path d="M122.57-180q-25.78 0-44.17-18.4Q60-216.79 60-242.57v-474.86q0-25.78 18.4-44.17Q96.79-780 122.57-780h714.86q25.78 0 44.17 18.4 18.4 18.39 18.4 44.17v474.86q0 25.78-18.4 44.17-18.39 18.4-44.17 18.4H122.57Zm83.07-50.26h548.72v-499.48H205.64v499.48Zm143.33-280.77q-8.02 0-13.5-5.47-5.47-5.46-5.47-13.48t5.47-13.51q5.48-5.48 13.5-5.48h262.06q8.02 0 13.5 5.47 5.47 5.46 5.47 13.48t-5.47 13.51q-5.48 5.48-13.5 5.48H348.97Zm40 120q-8.02 0-13.5-5.47-5.47-5.46-5.47-13.48t5.47-13.51q5.48-5.48 13.5-5.48h182.06q8.02 0 13.5 5.47 5.47 5.46 5.47 13.48t-5.47 13.51q-5.48 5.48-13.5 5.48H388.97Z"/></svg>