<svg xmlns="http://www.w3.org/2000/svg" height="40" viewBox="0 -960 960 960" width="40"><path d="M684.155-577.437h-401.59q-5.385 0-8.847 3.59-3.462 3.59-3.462 8.719v359.999q0 10.705-7.245 17.916-7.245 7.212-17.999 7.212-10.755 0-17.883-7.212-7.128-7.211-7.128-17.916v-359.999q0-25.705 18.43-44.134 18.429-18.43 44.134-18.43h400.924L544.872-766.308q-7.435-7.435-7.73-17.602-.295-10.166 7.56-17.986 7.856-7.564 18-7.564t17.964 7.564l177.41 178.486q4.948 4.949 7.179 10.448 2.231 5.499 2.231 11.564 0 6.321-2.231 11.603t-7.179 10.231L580.871-402.36q-7.435 7.436-17.499 7.192-10.064-.243-17.889-7.807-7.354-7.821-7.457-18.025-.102-10.205 7.718-17.769l138.411-138.668Z"/></svg>