<svg xmlns="http://www.w3.org/2000/svg" height="40" viewBox="0 -960 960 960" width="40"><path d="M202.565-140.001q-25.788 0-44.176-18.388t-18.388-44.176v-554.87q0-25.788 18.388-44.176t44.176-18.388h554.87q25.788 0 44.176 18.388t18.388 44.176v554.87q0 25.788-18.388 44.176t-44.176 18.388h-554.87ZM313.641-289.59h207.436q10.679 0 17.903-7.263 7.224-7.263 7.224-18 0-10.736-7.224-17.864t-17.903-7.128H313.641q-10.679 0-17.903 7.263-7.224 7.262-7.224 17.999 0 10.737 7.224 17.865 7.224 7.128 17.903 7.128Zm0-165.283h332.718q10.679 0 17.903-7.262 7.224-7.263 7.224-18 0-10.736-7.224-17.864t-17.903-7.128H313.641q-10.679 0-17.903 7.262-7.224 7.263-7.224 18 0 10.736 7.224 17.864t17.903 7.128Zm0-165.282h332.718q10.679 0 17.903-7.263 7.224-7.262 7.224-17.999 0-10.737-7.224-17.865-7.224-7.128-17.903-7.128H313.641q-10.679 0-17.903 7.263-7.224 7.263-7.224 18 0 10.736 7.224 17.864t17.903 7.128Z"/></svg>