<svg xmlns="http://www.w3.org/2000/svg" viewBox="0 -960 960 960" width="32" height="32"><path d="M202.57-140q-25.79 0-44.18-18.39T140-202.57v-554.86q0-25.79 18.39-44.18T202.57-820h554.86q25.79 0 44.18 18.39T820-757.43v554.86q0 25.79-18.39 44.18T757.43-140H202.57Zm111.07-149.59h207.44q10.68 0 17.9-7.26 7.22-7.27 7.22-18 0-10.74-7.22-17.87-7.22-7.13-17.9-7.13H313.64q-10.68 0-17.9 7.27-7.23 7.26-7.23 18 0 10.73 7.23 17.86 7.22 7.13 17.9 7.13Zm0-165.28h332.72q10.68 0 17.9-7.27 7.23-7.26 7.23-17.99 0-10.74-7.23-17.87-7.22-7.13-17.9-7.13H313.64q-10.68 0-17.9 7.27-7.23 7.26-7.23 17.99 0 10.74 7.23 17.87 7.22 7.13 17.9 7.13Zm0-165.28h332.72q10.68 0 17.9-7.27 7.23-7.26 7.23-18 0-10.73-7.23-17.86-7.22-7.13-17.9-7.13H313.64q-10.68 0-17.9 7.26-7.23 7.27-7.23 18 0 10.74 7.23 17.87 7.22 7.13 17.9 7.13Z"/></svg>