<svg xmlns="http://www.w3.org/2000/svg" height="40" viewBox="0 -960 960 960" width="40"><path d="M475.694-100.001q-97.139 0-164.749-67.62t-67.61-164.713V-696.82q0-67.991 47.538-115.585 47.538-47.594 115.221-47.594t115.409 47.594q47.727 47.594 47.727 115.585v291.18q0 10.679-7.386 17.903-7.387 7.224-18 7.224t-17.741-7.224q-7.128-7.224-7.128-17.903v-291.565q-.205-47.026-32.87-79.782-32.665-32.757-80.032-32.757-47.18 0-79.832 32.887-32.651 32.886-32.651 80.037v364.486q-.205 76.18 52.978 129.129 53.184 52.949 129.15 52.949 21.462 0 41.77-4.988 20.307-4.987 38.077-14.166 9.461-5.128 19.243-2.045 9.781 3.083 14.91 12.531 4.999 9.462 1.73 19.179-3.269 9.718-12.73 14.846-23.231 12.205-49.244 18.551-26.012 6.347-53.78 6.347Zm206.087-40q-10.685 0-17.899-7.138-7.215-7.138-7.215-17.99v-87.18h-87.179q-10.68 0-17.904-7.263-7.224-7.262-7.224-17.999 0-10.737 7.224-17.865 7.224-7.128 17.904-7.128h87.179v-87.179q0-10.679 7.263-17.903 7.263-7.225 18-7.225 10.736 0 17.864 7.225 7.128 7.224 7.128 17.903v87.179h87.18q10.679 0 17.903 7.263 7.224 7.263 7.224 18 0 10.736-7.224 17.864t-17.903 7.128h-87.18v87.18q0 10.442-7.228 17.785t-17.913 7.343ZM406.019-277.436q-10.736 0-17.864-7.224t-7.128-17.904v-375.025q0-10.68 7.263-17.904t17.999-7.224q10.737 0 17.865 7.224 7.128 7.224 7.128 17.904v375.025q0 10.68-7.263 17.904t-18 7.224ZM681.66-492.82q-10.737 0-17.865-7.224-7.128-7.224-7.128-17.903v-159.642q0-10.68 7.263-17.904t18-7.224q10.736 0 17.864 7.224t7.128 17.904v159.642q0 10.679-7.263 17.903-7.263 7.224-17.999 7.224Z"/></svg>