<svg xmlns="http://www.w3.org/2000/svg" height="40" viewBox="0 -960 960 960" width="40"><path d="m383.924-439.539 25.855 63.013q3.606 9.499 14.478 9.499 10.871 0 14.477-9.499l26.112-63.013 65.32-27.343q9.756-3.862 9.756-14.605 0-10.744-9.756-14.606l-65.32-26.676-26.112-61.782q-3.606-9.499-14.477-9.499-10.872 0-14.478 9.499l-25.855 61.782-65.577 26.676q-9.5 3.862-9.5 14.606 0 10.743 9.5 14.605l65.577 27.343ZM202.565-220.001q-25.775 0-44.169-18.395-18.395-18.394-18.395-44.169v-394.87q0-25.775 18.395-44.169 18.394-18.395 44.169-18.395h389.742q21.975 0 40.385 10.924 18.41 10.923 31.256 28.769l130.589 183.819q11.564 16.758 11.564 36.482 0 19.723-11.564 36.492L663.948-258.925q-12.846 17.847-31.285 28.385-18.44 10.539-40.356 10.539H202.565Z"/></svg>