<svg xmlns="http://www.w3.org/2000/svg" height="40" viewBox="0 -960 960 960" width="40"><path d="m298.489-718.849-53.001-24.562q-5.923-2.316-5.923-8.337t5.923-8.38l53.001-24.305 24.306-53.258q2.572-5.667 8.465-5.667t8.509 5.667l24.305 53.258 53.002 24.305q5.922 2.316 5.922 8.337t-5.922 8.38l-53.002 24.562-24.305 53.002q-2.573 5.666-8.466 5.666-5.893 0-8.508-5.666l-24.306-53.002Zm270.657 134.215-40.068-18.777q-5.462-2.316-5.462-8.337t5.462-8.38l40.068-18.52 18.521-40.069q2.572-5.461 8.465-5.461t8.508 5.461l18.521 40.069 40.068 18.52q5.462 2.316 5.462 8.337t-5.462 8.38l-40.068 18.777-18.521 39.812q-2.572 5.718-8.465 5.718t-8.508-5.718l-18.521-39.812Zm-451.23 80-39.813-18.777q-5.717-2.316-5.717-8.337t5.717-8.38l39.813-18.52 18.52-40.069q2.572-5.461 8.465-5.461t8.509 5.461l18.52 40.069 40.069 18.52q5.461 2.316 5.461 8.337t-5.461 8.38l-40.069 18.777-18.52 39.812q-2.573 5.718-8.466 5.718-5.893 0-8.508-5.718l-18.52-39.812Zm31.007 294.019 222.769-222.769q17.975-17.974 44.256-18.179 26.282-.205 44.256 18.179l106.718 106.718q3.847 3.846 9.232 3.654 5.385-.192 8.846-4.423l262.974-297.436q6.564-8.026 16.949-8.564 10.384-.539 18.117 6.81 6.908 6.907 7.408 16.735.5 9.827-6.321 17.531L620.769-291.821q-17.975 20.718-44.974 21.307-27 .59-46.051-18.717L425-393.308q-3.461-3.462-8.846-3.462t-8.847 3.462L186.768-172.77q-8.022 8.051-18.716 8.244-10.693.192-19.129-8.221-8.435-8.414-8.435-18.923 0-10.509 8.435-18.945Z"/></svg>