<svg xmlns="http://www.w3.org/2000/svg" viewBox="0 -960 960 960" width="32" height="32"><path d="M480-60q-117 0-217.22-65.34-100.22-65.33-154.45-162.64v94.13H58.08v-180h180v50.26H146q44.87 89.95 137.46 151.64 92.59 61.69 196.54 61.69 74.95 0 141.19-27.89 66.25-27.9 116.04-76.35 49.8-48.45 79.81-114.31 30.01-65.86 32.32-141.19h50.25q-1.92 85.23-35.65 159.85-33.73 74.61-90.46 130.38Q716.77-124 641.19-92 565.61-60 480-60ZM291.08-797.54l-26.26-43.54q47.92-28.94 101.86-43.93Q420.62-900 480-900q115.85 0 217.22 65.53 101.37 65.52 154.45 163.99v-95.67h50.25v180h-180v-50.26H814q-43.72-88.15-136.17-150.74-92.44-62.59-197.83-62.59-51.9 0-99.38 13.68-47.49 13.68-89.54 38.52ZM160-512.1l-38.92-88.98-90.87-40.41 90.87-39.74L160-767.9l38.92 86.67 90.87 39.74-90.87 40.41L160-512.1Zm157 198.87 144.41-375.44h36.51l146.11 375.44h-45.18l-40.67-106H404.54l-40.67 106H317Zm100.31-145.03h125.38l-60.66-163.23h-5.49l-59.23 163.23Z"/></svg>