<svg xmlns="http://www.w3.org/2000/svg" height="40" viewBox="0 -960 960 960" width="40"><path d="M328.975-100.001q-13.301 0-22.291-8.991-8.99-8.99-8.99-22.291v-635.665q0-13.045 8.99-22.164 8.99-9.118 22.291-9.118h77.179v-30.487q0-13.301 8.991-22.291 8.99-8.991 22.291-8.991h85.128q13.301 0 22.291 8.991 8.991 8.99 8.991 22.291v30.487h77.258q13.318 0 22.26 9.118 8.942 9.119 8.942 22.164v273.795q0 10.686-7.258 17.907-7.259 7.22-17.999 7.22-10.742 0-17.87-7.22-7.127-7.221-7.127-17.907V-748.36H347.949v507.616h82.487q10.228 0 17.229 7.167 7.002 7.167 8.207 17.705 2.359 21.666 9.363 41.567 7.003 19.901 17.637 37.663 6.846 12.487.192 24.564t-19.962 12.077H328.975Zm332.564-103.076h-43.692q-9.491 0-13.809-7.795-4.319-7.795.45-15.944l79.464-133.827q3.356-5.125 8.933-3.715 5.576 1.41 5.576 7.916v79.519h43.692q9.491 0 13.809 7.795 4.319 7.795-.45 15.944l-79.464 134.237q-3.356 5.126-8.933 3.715-5.576-1.41-5.576-7.66v-80.185Z"/></svg>