<svg xmlns="http://www.w3.org/2000/svg" height="40" viewBox="0 -960 960 960" width="40"><path d="M806.54-93.206 98.898-800.18q-7.23-7.231-7.423-17.705-.192-10.474 7.423-18.089 7.615-7.615 18.025-7.615 10.41 0 17.769 7.615l707.642 707.386q7.231 7.538 7.423 17.653.192 10.115-7.423 17.73t-17.897 7.615q-10.282 0-17.897-7.615ZM401.077-100q-8.667 0-14.667-5.962-6-5.961-6-14.576 0-8.616 6-14.577 6-5.962 14.667-5.962 8.41 0 14.41 5.962 6 5.961 6 14.577 0 8.615-6 14.576-6 5.962-14.41 5.962Zm160.82 0q-8.41 0-14.41-5.962-6-5.961-6-14.576 0-8.616 6-14.577 6-5.962 14.41-5.962 8.667 0 14.667 5.962 6 5.961 6 14.577 0 8.615-6 14.576-6 5.962-14.667 5.962ZM240.07-204.154q-15.205 0-25.56-10.286-10.356-10.285-10.356-25.49 0-15.205 10.286-25.56 10.285-10.356 25.49-10.356 15.205 0 25.56 10.286 10.356 10.285 10.356 25.49 0 15.205-10.286 25.56-10.285 10.356-25.49 10.356Zm160.974 0q-15.249 0-25.659-10.286-10.41-10.285-10.41-25.49 0-15.205 10.359-25.56 10.359-10.356 25.673-10.356 15.204 0 25.56 10.286 10.356 10.285 10.356 25.49 0 15.205-10.315 25.56-10.316 10.356-25.564 10.356Zm157.949 0q-15.204 0-25.56-10.286-10.356-10.285-10.356-25.49 0-15.205 10.315-25.56 10.316-10.356 25.564-10.356 15.249 0 25.659 10.286 10.41 10.285 10.41 25.49 0 15.205-10.359 25.56-10.359 10.356-25.673 10.356ZM401.077-349.949q-21.959 0-36.543-14.585-14.585-14.584-14.585-36.415 0-21.83 14.585-36.415 14.584-14.584 36.415-14.584 21.83 0 36.415 14.618 14.584 14.619 14.584 36.253 0 21.959-14.618 36.543-14.619 14.585-36.253 14.585ZM240.07-364.975q-15.205 0-25.56-10.359-10.356-10.359-10.356-25.673 0-15.204 10.286-25.56 10.285-10.356 25.49-10.356 15.205 0 25.56 10.315 10.356 10.316 10.356 25.564 0 15.249-10.286 25.659-10.285 10.41-25.49 10.41Zm478.802-.205-34.769-34.769q-.564-15.538 10.005-26.256 10.57-10.718 25.901-10.718 15.231 0 25.534 10.303 10.303 10.303 10.303 25.534 0 15.332-10.59 25.901-10.589 10.569-26.384 10.005ZM120.41-380.41q-8.41 0-14.41-5.962-6-5.961-6-14.577 0-8.615 6-14.577 6-5.961 14.41-5.961 8.667 0 14.667 5.961 6 5.962 6 14.577 0 8.616-6 14.577-6 5.962-14.667 5.962Zm719.18 0q-8.667 0-14.667-5.962-6-5.961-6-14.577 0-8.615 6-14.577 6-5.961 14.667-5.961 8.41 0 14.41 5.961 6 5.962 6 14.577 0 8.616-6 14.577-6 5.962-14.41 5.962ZM574.18-510.334l-63.846-63.846q5.025-15.911 18.333-25.891 13.308-9.98 30.444-9.98 21.771 0 36.355 14.585 14.585 14.584 14.585 36.355 0 17.136-10.038 30.547-10.039 13.41-25.833 18.23Zm-334.11-12.743q-15.205 0-25.56-10.315-10.356-10.316-10.356-25.564 0-15.249 10.286-25.659 10.285-10.41 25.49-10.41 15.205 0 25.56 10.359 10.356 10.359 10.356 25.673 0 15.204-10.286 25.56-10.285 10.356-25.49 10.356Zm480 0q-15.205 0-25.56-10.315-10.356-10.316-10.356-25.564 0-15.249 10.286-25.659 10.285-10.41 25.49-10.41 15.205 0 25.56 10.359 10.356 10.359 10.356 25.673 0 15.204-10.286 25.56-10.285 10.356-25.49 10.356Zm-599.66-15.436q-8.41 0-14.41-5.961-6-5.962-6-14.577 0-8.616 6-14.577 6-5.962 14.41-5.962 8.667 0 14.667 5.962 6 5.961 6 14.577 0 8.615-6 14.577-6 5.961-14.667 5.961Zm719.18 0q-8.667 0-14.667-5.961-6-5.962-6-14.577 0-8.616 6-14.577 6-5.962 14.667-5.962 8.41 0 14.41 5.962 6 5.961 6 14.577 0 8.615-6 14.577-6 5.961-14.41 5.961ZM558.993-684.154q-15.204 0-25.56-10.286-10.356-10.285-10.356-25.49 0-15.205 10.315-25.56 10.316-10.356 25.564-10.356 15.249 0 25.659 10.286 10.41 10.285 10.41 25.49 0 15.205-10.359 25.56-10.359 10.356-25.673 10.356Zm-158.839.051-34.974-34.974q-.359-15.795 10.084-26.282 10.442-10.487 26.107-10.487 14.84 0 25.196 10.303 10.356 10.303 10.356 25.534 0 15.584-10.615 25.925-10.616 10.34-26.154 9.981Zm319.916-.051q-15.205 0-25.56-10.286-10.356-10.285-10.356-25.49 0-15.205 10.286-25.56 10.285-10.356 25.49-10.356 15.205 0 25.56 10.286 10.356 10.285 10.356 25.49 0 15.205-10.286 25.56-10.285 10.356-25.49 10.356ZM401.077-818.923q-8.667 0-14.667-5.962-6-5.961-6-14.577 0-8.615 6-14.576 6-5.962 14.667-5.962 8.41 0 14.41 5.962 6 5.961 6 14.576 0 8.616-6 14.577-6 5.962-14.41 5.962Zm157.846 0q-8.41 0-14.41-5.962-6-5.961-6-14.577 0-8.615 6-14.576 6-5.962 14.41-5.962 8.667 0 14.667 5.962 6 5.961 6 14.576 0 8.616-6 14.577-6 5.962-14.667 5.962Z"/></svg>