<svg xmlns="http://www.w3.org/2000/svg" height="40" viewBox="0 -960 960 960" width="40"><path d="m700.255-673.306 126.693-127.077q7.436-7.82 17.602-7.82 10.167 0 17.987 7.82 7.564 7.564 7.564 17.871 0 10.308-7.564 17.871l-140.359 140.41q-9.359 9.359-21.923 9.359-12.564 0-21.922-9.359l-56.154-56.41q-7.231-7.23-7.231-17.268t7.231-17.474q7.436-7.82 17.999-7.628 10.564.192 18 7.628l42.077 42.077ZM480-261.54l-172.307 74.102q-31.538 13.308-59.615-5.307-28.077-18.616-28.077-52.102v-515.152q0-25.872 18.346-44.218 18.346-18.346 44.218-18.346h246.461q14.307 0 21.192 12.372 6.884 12.372.038 25.525-8.128 16.667-11.884 34.539-3.757 17.871-3.757 37.564 0 68.538 44.603 118.987 44.603 50.448 110.526 59.499 5.897.821 10.589 1.128 4.692.308 9.153.308 12.385.385 21.449 8.641 9.064 8.256 9.064 20.436v258.717q0 33.486-28.077 52.102-28.077 18.615-59.615 5.307L480-261.54Z"/></svg>