<svg xmlns="http://www.w3.org/2000/svg" viewBox="0 -960 960 960" width="32" height="32"><path d="M274.62-100q-38.85 0-66.73-25.63Q180-151.26 180-189.13v-549.05q0-33.84 21.68-60.07 21.68-26.23 55.24-33.26l290.34-60.54q29.07-6.41 52.19 12.34 23.11 18.74 23.11 48.63v474.82q0 22.24-13.83 39.34-13.83 17.1-35.37 21.84l-308.15 66.44q-14.69 3.25-24.82 14.34t-10.13 25.17q0 17.1 13.19 27.99 13.19 10.88 31.17 10.88h442.81q5.39 0 8.85-3.46t3.46-8.85v-592.3q0-10.71 7.25-17.92 7.24-7.21 18-7.21 10.75 0 17.88 7.21 7.13 7.21 7.13 17.92v592.3q0 25.71-18.43 44.14T717.43-100H274.62Zm43.3-190.21q8.68-1.94 14.35-8.54 5.68-6.61 5.68-15.66v-451.82q0-11.91-9.16-19.3-9.15-7.39-21.07-4.9-8.68 1.94-14.35 8.54-5.68 6.61-5.68 15.66v451.82q0 11.91 9.16 19.3 9.15 7.39 21.07 4.9Z"/></svg>