<svg xmlns="http://www.w3.org/2000/svg" viewBox="0 -960 960 960" width="32" height="32"><path d="M202.57-140q-25.71 0-44.14-18.43T140-202.57v-482.07q0-10.61 3.37-20.49 3.37-9.87 10.12-18.33l57.23-72.8q8.36-11.1 21.4-17.42Q245.15-820 259.8-820h439.22q14.65 0 27.88 6.32 13.23 6.32 21.59 17.42l58.02 73.57q6.75 8.46 10.12 18.52Q820-694.1 820-683.49v480.92q0 25.71-18.43 44.14T757.43-140H202.57Zm3.71-570.61h546.39l-44.71-54.9q-1.93-1.93-4.43-3.08-2.5-1.15-5.19-1.15H260.59q-2.69 0-5.32 1.15-2.63 1.15-4.29 3.08l-44.7 54.9ZM620-660.36H340v255.33q0 18.05 14.64 27.14t30.41.94L480-424.03l95.2 47.08q15.52 8.15 30.16-.94T620-405.03v-255.33Z"/></svg>