<svg xmlns="http://www.w3.org/2000/svg" height="40" viewBox="0 -960 960 960" width="40"><path d="M202.565-140.001q-25.705 0-44.134-18.43-18.43-18.429-18.43-44.134V-684.64q0-10.613 3.372-20.487 3.372-9.874 10.116-18.333l57.231-72.795q8.359-11.103 21.396-17.423 13.038-6.321 27.68-6.321h439.228q14.643 0 27.873 6.321 13.229 6.32 21.588 17.423l58.026 73.565q6.744 8.458 10.116 18.524 3.372 10.067 3.372 20.68v108.973q0 9.044-6.168 15.372-6.167 6.327-15.191 7.551-20.569 2.698-38.387 10.798t-33.894 23.74l-106.36 106.361v-249.668H340.001v255.332q0 18.051 14.641 27.141 14.641 9.089 30.41.935L480-424.027l101.872 51.052-76.488 76.282q-8.525 8.815-13.621 20.333-5.097 11.518-5.097 24.129v80.948q0 13.397-8.942 22.339-8.942 8.943-22.339 8.943h-252.82Zm362.051-31.282v-61.897q0-5.864 2.205-11.393 2.205-5.53 7.154-10.478l207.536-206.644q7.536-7.157 16.32-10.423t17.476-3.266q9.308 0 18.192 3.538 8.885 3.539 15.961 10.615l37 37.385q6.872 7.461 10.205 16.153 3.334 8.693 3.334 17.385 0 8.692-3.372 17.692t-10.632 16.544L679.666-149.36q-4.949 4.948-10.478 7.153-5.53 2.206-11.394 2.206h-61.897q-13.397 0-22.339-8.943-8.942-8.942-8.942-22.339Zm250.691-180.41 37-38.615-37-37.385-38 38 38 38ZM206.282-710.614h546.385l-44.71-54.899q-1.923-1.923-4.423-3.077t-5.193-1.154h-437.75q-2.692 0-5.321 1.154-2.628 1.154-4.295 3.077l-44.693 54.899Z"/></svg>