<svg xmlns="http://www.w3.org/2000/svg" height="40" viewBox="0 -960 960 960" width="40"><path d="M495.539-298.36q75.744 0 129.025-53.163 53.281-53.164 53.281-128.923t-53.281-129.015q-53.281-53.256-129.025-53.256-8.846 0-16.969.334-8.123.333-16.339 2.743-11.592 2.748-13.565 15.284-1.973 12.536 8.093 20.062 34.501 25.762 52.525 63.564t18.024 80.086q0 42.682-18.397 80.688-18.398 38.006-51.987 63.072-10.846 7.627-9.021 20.098 1.825 12.472 13.944 15.4 8.307 2 16.577 2.513 8.269.513 17.115.513Zm-141.11 118.359H242.565q-25.609 0-44.086-18.478-18.478-18.477-18.478-44.086v-111.48l-81.487-82.109q-9.41-9.359-13.692-20.625-4.282-11.265-4.282-23.025 0-11.76 4.282-23.221 4.282-11.462 13.692-20.821l81.487-82.109v-111.48q0-25.609 18.478-44.086 18.477-18.478 44.086-18.478h111.48l82.109-81.743q9.359-9.154 20.954-13.436t23.362-4.282q11.767 0 23.111 4.618 11.344 4.617 20.675 13.767l81.424 81.076h111.755q25.609 0 44.086 18.478 18.478 18.477 18.478 44.086v111.48l81.743 82.109q9.154 9.359 13.436 20.625 4.282 11.265 4.282 23.025 0 11.76-4.282 23.221-4.282 11.462-13.436 20.821l-81.743 82.109v111.48q0 25.609-18.478 44.086-18.477 18.478-44.086 18.478H605.68l-81.424 80.666q-9.331 8.83-20.603 13.274-11.272 4.444-23.04 4.444-11.767 0-23.076-4.444-11.308-4.443-20.716-13.274l-82.392-80.666Z"/></svg>