<svg xmlns="http://www.w3.org/2000/svg" height="40" viewBox="0 -960 960 960" width="40"><path d="M480-140.001q-59.861 0-110.571-28.898-50.71-28.897-77.838-81.102h-86.462q-10.679 0-17.903-7.263-7.225-7.263-7.225-17.999 0-10.737 7.225-17.865 7.224-7.128 17.903-7.128h65.744q-7.718-27.59-8.013-55.966-.294-28.377-.294-56.753h-57.847q-10.68 0-17.904-7.263t-7.224-18q0-10.736 7.224-17.864t17.904-7.128h57.847q0-29.59.115-59.039t9.269-57.475h-66.821q-10.679 0-17.903-7.263-7.225-7.263-7.225-18 0-10.736 7.225-17.864 7.224-7.128 17.903-7.128h88.359q14.642-27.103 36.898-47.706 22.257-20.602 49.872-34.038l-57.513-57.052q-6.821-6.692-6.821-16.587 0-9.896 7.252-17.135 6.647-6.636 16.569-6.636 9.922 0 16.742 6.821l72.385 72.128q25.559-8.256 51.728-8.256t51.861 8.256l73.308-72.333q6.628-6.821 16.428-6.821 9.799 0 17.272 7.373 6.658 6.31 6.658 16.283 0 9.973-6.82 16.907l-57.052 57.052q27.615 13.436 48.931 34.368 21.316 20.932 36.813 47.376h87.282q10.68 0 17.904 7.263t7.224 17.999q0 10.737-7.224 17.865-7.224 7.128-17.904 7.128H688.05q9.82 28.026 9.397 57.65-.423 29.624-.423 58.864h58.257q10.68 0 17.904 7.263t7.224 17.999q0 10.737-7.224 17.865-7.224 7.128-17.904 7.128h-58.257q0 28.385-.09 56.757-.089 28.372-7.807 55.962h66.154q10.68 0 17.904 7.263t7.224 18q0 10.736-7.224 17.864t-17.904 7.128h-86.462q-26.718 52.872-77.686 81.436Q540.164-140.001 480-140.001Zm-48.718-190h97.436q10.679 0 17.904-7.263 7.224-7.263 7.224-17.999 0-10.737-7.224-17.865-7.225-7.128-17.904-7.128h-97.436q-10.679 0-17.904 7.263-7.224 7.263-7.224 18 0 10.736 7.224 17.864 7.225 7.128 17.904 7.128Zm0-166.359h97.436q10.679 0 17.904-7.263 7.224-7.263 7.224-17.999 0-10.737-7.224-17.865-7.225-7.128-17.904-7.128h-97.436q-10.679 0-17.904 7.263-7.224 7.263-7.224 18 0 10.736 7.224 17.864 7.225 7.128 17.904 7.128Z"/></svg>