<svg xmlns="http://www.w3.org/2000/svg" height="40" viewBox="0 -960 960 960" width="40"><path d="M678.128-657.026q6.948 0 11.641-4.751 4.692-4.751 4.692-11.974v-98.812q0-6.821-4.898-11.513-4.897-4.692-11.974-4.692t-11.641 4.897q-4.564 4.897-4.564 12.095v98.424q0 7.198 4.898 11.762 4.897 4.564 11.846 4.564Zm-1.375 148.358q-72.975 0-124.376-51.404-51.402-51.403-51.402-124.86 0-72.467 51.297-123.767 51.296-51.3 124.654-51.3 73.404 0 124.392 50.989 50.988 50.987 50.988 124.548 0 73.436-51.289 124.615-51.289 51.179-124.264 51.179Zm1.169-68.871q8.488 0 14.244-5.744 5.756-5.743 6.141-14.308 0-8.794-6.015-14.551-6.016-5.756-14.036-5.756-9.487.41-14.898 6.026-5.41 5.615-5.41 14.23 0 8.616 5.744 14.359 5.743 5.744 14.23 5.744ZM253.406-283.898q20.761 0 35.164-14.533 14.404-14.533 14.404-35.294 0-20.762-14.533-35.339-14.533-14.576-35.295-14.576-20.761 0-35.338 14.706-14.577 14.707-14.577 35.468 0 20.761 14.707 35.165 14.706 14.403 35.468 14.403Zm293.448 0q20.761 0 35.338-14.533 14.577-14.533 14.577-35.294 0-20.762-14.707-35.339-14.706-14.576-35.468-14.576-20.761 0-35.164 14.706-14.404 14.707-14.404 35.468 0 20.761 14.533 35.165 14.533 14.403 35.295 14.403ZM192.583-100.001q-14.223 0-24.094-9.932-9.871-9.931-9.871-24.118v-69.591q-24.898-12.255-41.757-41.961-16.86-29.705-16.86-62.5v-380.564q0-63.512 65.269-92.794 65.269-29.281 226.5-34.845 21.076-1.205 32.512 16.243 11.436 17.449 4.231 37.859-5.538 17.615-8.705 35.979-3.167 18.363-3.551 37.096-.385 11.32-7.778 19.788-7.394 8.469-19.068 8.469H150.256v175.079h344.516q7.909 0 15.681 2.916 7.772 2.917 14.37 7.801 14.197 10.925 29.892 19.516 15.694 8.591 32.876 15.021 20.256 8.205 41.314 12.32t43.216 3.885q11.648.384 19.763 7.684 8.115 7.3 8.115 18.803v89.844q0 32.695-16.86 62.4-16.859 29.706-41.757 41.961v69.591q0 14.187-9.956 24.118-9.955 9.932-24.178 9.932t-24.094-9.932q-9.872-9.931-9.872-24.118v-47.027H226.718v47.027q0 14.187-9.956 24.118-9.956 9.932-24.179 9.932Z"/></svg>