<svg xmlns="http://www.w3.org/2000/svg" height="40" viewBox="0 -960 960 960" width="40"><path d="M134.616-100.001q-14.711 0-24.663-10.347-9.952-10.346-9.952-25.038v-191.898q0-25.608 18.478-44.086 18.477-18.477 44.086-18.477h554.87q25.609 0 44.086 18.477 18.478 18.478 18.478 44.086v191.898q0 14.692-10.347 25.038-10.346 10.347-25.038 10.347H134.616Zm48.77-340.101v-136.206q0-25.808 18.477-44.186 18.478-18.378 44.087-18.378h168.923v-61.743q-18.436-12.436-29.424-27.899-10.987-15.463-10.987-36.826 0-13.352 4.991-25.508 4.991-12.157 14.305-21.436l34.883-35.945q1.205-.949 11.623-4.949 1.736 0 11.095 4.949l34.883 35.945q9.314 9.279 14.638 21.436 5.324 12.156 5.324 25.508 0 21.363-11.32 36.826-11.321 15.463-29.757 27.899v61.743H634.05q25.609 0 44.086 18.378 18.478 18.378 18.478 44.186v136.206H183.386Zm611.35-202.462q-10.736 0-17.864-7.224t-7.128-17.904v-59.744h-59.745q-10.442 0-17.784-7.262-7.343-7.261-7.343-17.996 0-10.484 7.224-17.741 7.224-7.256 17.903-7.256h59.745v-59.744q0-10.429 7.263-17.779 7.263-7.349 17.999-7.349 10.737 0 17.865 7.349 7.128 7.35 7.128 17.779v59.744h59.744q10.679 0 17.903 7.387 7.224 7.386 7.224 17.999t-7.224 17.741q-7.224 7.128-17.903 7.128h-59.744v59.744q0 10.442-7.263 17.785t-18 7.343Z"/></svg>