<svg xmlns="http://www.w3.org/2000/svg" height="40" viewBox="0 -960 960 960" width="40"><path d="M174.616-100.001q-14.711 0-24.663-10.347-9.952-10.346-9.952-25.038v-191.898q0-25.608 18.478-44.086 18.477-18.477 44.086-18.477h554.87q25.609 0 44.086 18.477 18.478 18.478 18.478 44.086v191.898q0 14.692-10.347 25.038-10.346 10.347-25.038 10.347H174.616Zm48.77-340.101v-136.206q0-25.865 18.477-44.214 18.478-18.35 44.087-18.35h168.923v-61.743q-18.436-12.436-29.424-27.908-10.987-15.471-10.987-36.922 0-13.247 4.991-25.388 4.991-12.141 14.305-21.451l34.883-35.945q1.205-.949 11.659-4.949 1.7 0 11.059 4.949l34.883 35.945q9.314 9.31 14.638 21.451t5.324 25.388q0 21.451-11.32 36.922-11.321 15.472-29.757 27.908v61.743H674.05q25.609 0 44.086 18.35 18.478 18.349 18.478 44.214v136.206H223.386Z"/></svg>