<svg xmlns="http://www.w3.org/2000/svg" height="40" viewBox="0 -960 960 960" width="40"><path d="M202.565-100.001q-25.788 0-44.176-18.388t-18.388-44.176v-564.614q0-25.788 18.388-44.176 18.388-18.387 44.176-18.387h67.693v-47.899q0-11.399 7.637-19.186 7.636-7.787 19.058-7.787 11.706 0 19.556 7.787 7.851 7.787 7.851 19.186v47.899h312.819v-48.596q0-11.343 7.496-18.81 7.495-7.466 18.609-7.466 11.398 0 19.056 7.524 7.658 7.524 7.658 18.68v48.668h67.437q25.788 0 44.176 18.387 18.388 18.388 18.388 44.176v564.614q0 25.788-18.388 44.176t-44.176 18.388h-554.87Zm0-50.255h554.87q4.616 0 8.462-3.847 3.847-3.846 3.847-8.462v-389.998H190.256v389.998q0 4.616 3.847 8.462 3.846 3.847 8.462 3.847Z"/></svg>