<svg xmlns="http://www.w3.org/2000/svg" height="40" viewBox="0 -960 960 960" width="40"><path d="M776.359-793.025q-7.077 0-11.846 4.718t-4.769 11.897v120q0 6.482 4.564 11.344 4.564 4.861 11.513 4.861 6.948 0 11.846-4.564 4.897-4.564 4.897-11.641v-120q0-7.077-4.564-11.846t-11.641-4.769Zm-102.436 0q-6.949 0-11.846 4.718t-4.897 11.897v120q0 7.077 4.897 11.641t11.846 4.564q6.949 0 11.641-4.564t4.692-11.641v-120q0-7.077-4.692-11.846t-11.641-4.769Zm50.949 329.691q25.799 0 50.681-5.653 24.882-5.654 47.805-15.91 12.854-5.795 24.953 1.384 12.098 7.18 12.098 20.982v219.966q0 25.609-18.378 44.086-18.378 18.478-44.186 18.478H615.768q-11.132 0-18.686-8.208-7.553-8.208-8.442-19.536-4.41-89.256-39.461-168.23-35.051-78.974-92.869-140.421-57.817-61.448-134.268-100.987-76.452-39.539-164.374-49.744-24.497-3.024-40.877-18.724-16.379-15.699-16.379-39.771 0-23.975 16.909-39.176t41.142-15.201h288.025q13.334 0 21.103 10.1 7.769 10.099 5.654 23.334-.449 4.002-.757 8.181-.308 4.179-.308 8.64-6.154 108.436 68.78 187.423t183.912 78.987Zm-.017-77.949q-72.342 0-123.726-50.984-51.384-50.983-51.384-123.999 0-72.628 51.401-123.949 51.402-51.321 123.743-51.321t123.725 51.233q51.385 51.233 51.385 124.304 0 72.904-51.402 123.81-51.401 50.906-123.742 50.906ZM144.613-180.001q-18.868 0-31.945-13.17-13.077-13.169-13.077-32.422 0-18.869 13.234-31.946 13.233-13.076 32.23-13.076 18.997 0 32.073 13.233 13.077 13.234 13.077 32.231 0 18.996-13.169 32.073-13.17 13.077-32.423 13.077Zm166.799 0q-10.109 0-17.412-6.514-7.302-6.514-8.999-16.999-7.872-64.179-53.295-109.256t-109.32-53.718q-9.677-1.243-15.826-8.982-6.148-7.739-6.148-17.645 0-10.525 6.908-17.859 6.908-7.333 16.527-6.384 84.743 8.461 144.063 68.525 59.32 60.064 67.756 144.55 1.359 10.116-6.077 17.199-7.436 7.083-18.177 7.083Zm155.688 0q-10.613 0-17.882-7.718-7.269-7.718-8.218-18.692-10.205-127.513-99.282-217.243-89.076-89.731-216.307-99.218-10.622-.651-17.811-8.211-7.188-7.561-7.188-17.641 0-10.711 8.512-17.942 8.513-7.23 19.769-6.41 146.752 10.19 249.696 114.172Q481.332-354.923 491.64-207.59q.564 11.791-6.634 19.69-7.198 7.899-17.906 7.899Z"/></svg>