<svg xmlns="http://www.w3.org/2000/svg" height="40" viewBox="0 -960 960 960" width="40"><path d="M680-332.18q-44.23 0-75.192-30.961-30.961-30.962-30.961-75.192 0-44.23 30.961-75.191Q635.77-544.486 680-544.486q44.23 0 75.192 30.962 30.961 30.961 30.961 75.191 0 44.23-30.961 75.192Q724.23-332.18 680-332.18ZM368.205-176.258v36.257H202.748q-25.888 0-44.317-18.478-18.43-18.477-18.43-44.086v-554.87q0-25.609 18.478-44.086 18.477-18.478 44.086-18.478h554.87q25.609 0 44.086 18.478 18.478 18.477 18.478 44.086v196.716q-24.513-32.743-60.987-51.076-36.474-18.333-79.012-18.333-2.693 0-5 .193-2.308.192-5.001.576v-25.513q0-4.467-3.022-7.489-3.022-3.023-7.49-3.023H315.128q-10.679 0-17.903 7.263-7.224 7.263-7.224 18 0 10.736 7.224 17.864t17.903 7.128h292.976q-37.129 14.923-65.27 43.616-28.142 28.693-42.552 66.386H315.128q-10.679 0-17.903 7.262-7.224 7.263-7.224 18 0 10.736 7.224 17.864t17.903 7.128h175q-1.923 27.795 3.872 54.219 5.795 26.423 18.666 50.013-3.461 1.539-6.731 2.885-3.269 1.346-6.346 2.885H315.128q-10.679 0-17.903 7.263-7.224 7.263-7.224 17.999 0 10.737 7.224 17.865 7.224 7.128 17.903 7.128h109.128q-26.615 21.512-41.333 53.092-14.718 31.579-14.718 65.266ZM485.129-74.105q-13.295 0-22.288-8.993-8.994-8.994-8.994-22.288v-70.872q0-17.371 8.279-32.674 8.28-15.303 23.182-24.402 27.795-16.769 47.551-24.089 19.757-7.321 51.777-14.173 9.911-1.84 19.714.112 9.804 1.953 15.957 9.792L680-184.846l59.103-76.846q6.577-8.059 16.1-9.902 9.524-1.842 19.864.062 32.163 6.898 51.426 14.124 19.262 7.226 47.583 24.074 14.923 9.077 23.308 24.308 8.384 15.23 8.769 32.384v71.256q0 13.294-8.994 22.288-8.993 8.993-22.288 8.993H485.129Z"/></svg>