<svg xmlns="http://www.w3.org/2000/svg" height="40" viewBox="0 -960 960 960" width="40"><path d="M220.256-476.974q0 62.309 26.59 114.629 26.589 52.32 89.873 101.013v-97.129q0-10.853 7.141-17.99 7.142-7.138 18-7.138t17.986 7.138q7.128 7.137 7.128 17.99v154.101q0 13.468-8.907 22.375t-22.375 8.907H201.59q-10.852 0-17.99-7.141-7.137-7.142-7.137-18t7.137-17.986q7.138-7.128 17.99-7.128h101.335q-67.488-55.129-100.206-115.616t-32.718-137.846q0-88.743 46.282-164.294 46.282-75.551 126.64-115.218 9.436-4.846 18.936-1t13.346 13.435q3.435 9.846-.564 19.295-4 9.448-13.051 14.038-62.565 32.179-101.95 94.718-39.384 62.539-39.384 138.847ZM600-170.001q-45.384 0-77.692-32.307-32.307-32.308-32.307-77.692 0-44.055 30.115-75.925 30.115-31.869 76.577-33.869 15.846-35.872 48.192-58.039 32.346-22.166 75.115-22.166 51.077 0 88.423 33.538 37.346 33.539 44.192 86.462h7.231q37.769 0 63.961 26.461t26.192 62.386q0 37.905-26.1 64.528Q897.8-170.001 860-170.001H600Zm24.769-528.283v96.745q0 10.853-7.142 17.99-7.141 7.138-17.999 7.138-10.858 0-17.986-7.138-7.128-7.137-7.128-17.99V-755.64q0-13.468 8.907-22.375t22.374-8.907h154.102q10.852 0 17.99 7.141 7.138 7.142 7.138 18t-7.138 17.986q-7.138 7.128-17.99 7.128H657.896q48.334 41.308 77.732 85.578 29.397 44.269 43.371 90.884 3.18 9.872-2.423 18.846-5.602 8.974-16.089 10.923-10.076 2.205-18.961-3.612-8.884-5.816-12.012-15.875-12.539-40.359-36.539-74.975-24-34.616-68.206-73.386Z"/></svg>