<svg xmlns="http://www.w3.org/2000/svg" height="40" viewBox="0 -960 960 960" width="40"><path d="M207.693-429.489q-11.519 0-19.605-8.09-8.087-8.09-8.087-19.615 0-11.268 8.087-19.345 8.086-8.077 19.605-8.077h544.87q11.263 0 19.349 8.09 8.087 8.091 8.087 19.359 0 11.525-8.087 19.601-8.086 8.077-19.349 8.077h-544.87Zm-2.564-115.795q-10.852 0-17.99-7.141-7.138-7.141-7.138-17.999 0-10.858 7.138-17.986t17.99-7.128h549.742q10.852 0 17.99 7.141 7.138 7.142 7.138 18t-7.138 17.986q-7.138 7.127-17.99 7.127H205.129Zm274.447 445.283q-10.858 0-17.986-7.138t-7.128-17.99V-261.08l-62.668 62.258q-7.23 6.82-17.499 7.218-10.269.397-17.884-7.218t-7.615-17.692q0-10.076 7.615-17.692l101.123-100.713q5.082-5.081 10.415-7.184 5.333-2.102 11.692-2.102 6.103 0 11.513 2.102 5.41 2.103 10.492 7.184l100.046 100.713q6.82 7.231 7.32 17.397.5 10.167-7.404 18.071-7.531 7.531-17.505 7.505-9.974-.025-17.795-7.64l-61.591-62.053v135.797q0 10.852-7.141 17.99-7.142 7.138-18 7.138Zm-.038-580.411q-6.358 0-11.64-2.102-5.282-2.103-10.364-7.185L356.821-790.411q-6.82-6.821-7.218-17.295-.397-10.474 7.218-18.089 7.615-7.615 17.692-7.615 10.076 0 17.692 7.615l61.591 62.258v-135.951q0-10.853 7.141-17.99 7.142-7.138 18-7.138t17.986 7.138q7.128 7.137 7.128 17.99v135.951l62.667-62.258q7.231-6.82 17.5-7.218 10.269-.397 17.884 7.218t7.615 17.692q0 10.076-7.615 17.692L501.646-689.699q-5.082 5.082-10.544 7.185-5.461 2.102-11.564 2.102Z"/></svg>