<svg xmlns="http://www.w3.org/2000/svg" height="40" viewBox="0 -960 960 960" width="40"><path d="M194.258-184.027q-79.129-44.256-126.693-123.118-47.563-78.861-47.563-173.438 0-94.827 47.974-173.288 47.974-78.461 127.615-123.077 15.769-8.692 28.396-1.448 12.628 7.243 12.628 24.14 0 5.226-3.391 11.307-3.392 6.082-9.044 8.667-70.898 37.102-112.411 105.22-41.513 68.117-41.513 148.571 0 81.256 41.513 149.258 41.513 68.003 112.411 104.849 5.652 2.786 9.044 8.669 3.391 5.883 3.391 11.766 0 16.256-12.704 23.82-12.705 7.564-29.653-1.898Zm405.764 43.615q-70.791 0-132.637-26.897-61.846-26.897-107.846-72.769-45.999-45.872-72.768-107.824-26.77-61.952-26.77-132.615 0-70.662 26.77-132.508 26.769-61.846 72.768-107.846 46-46 107.824-72.769 61.824-26.769 132.615-26.769 70.791 0 132.637 26.769 61.846 26.769 107.846 72.769 45.999 46 72.768 107.824 26.77 61.824 26.77 132.615 0 70.534-26.77 132.508-26.769 61.974-72.768 107.846-46 45.872-107.824 72.769-61.824 26.897-132.615 26.897Zm.523-197.23q10.737 0 17.865-7.224 7.128-7.224 7.128-17.904v-93.179h92.513q10.679 0 17.903-7.263 7.224-7.263 7.224-18 0-10.736-7.224-17.864t-17.903-7.128h-92.513v-92.514q0-10.429-7.263-17.778-7.263-7.349-18-7.349-10.736 0-17.864 7.349t-7.128 17.778v92.514h-92.924q-10.679 0-17.903 7.263-7.224 7.262-7.224 17.999 0 10.737 7.224 17.865 7.224 7.128 17.903 7.128h92.924v93.179q0 10.68 7.263 17.904t17.999 7.224Z"/></svg>