<svg xmlns="http://www.w3.org/2000/svg" viewBox="0 -960 960 960" width="32" height="32"><path d="M288.56-335.64h185.25q13.43 0 22.37-9 8.95-8.99 8.95-22.28v-27.75q0-13.29-9-22.28-8.99-9-22.28-9H288.6q-13.18 0-22.25 9-9.07 8.99-9.07 22.28v27.75q0 13.29 9.12 22.28 9.12 9 22.16 9Zm354.88 0h28q13.04 0 22.16-9 9.12-8.99 9.12-22.28v-225.75q0-13.29-9.12-22.28-9.12-9-22.16-9h-28q-13.05 0-22.17 9-9.12 8.99-9.12 22.28v225.75q0 13.29 9.12 22.28 9.12 9 22.17 9Zm-354.88-198h185.25q13.43 0 22.37-9 8.95-8.99 8.95-22.28v-27.75q0-13.29-9-22.28-8.99-9-22.28-9H288.6q-13.18 0-22.25 9-9.07 8.99-9.07 22.28v27.75q0 13.29 9.12 22.28 9.12 9 22.16 9ZM162.57-180q-25.79 0-44.18-18.39T100-242.57v-474.86q0-25.79 18.39-44.18T162.57-780h634.86q25.79 0 44.18 18.39T860-717.43v474.86q0 25.79-18.39 44.18T797.43-180H162.57Z"/></svg>