<svg xmlns="http://www.w3.org/2000/svg" viewBox="0 -960 960 960" width="32" height="32"><path d="M479.95-421.9q45.93 0 77.45-31.55 31.52-31.55 31.52-77.58 0-45.92-31.48-77.44Q525.97-640 480.05-640q-45.93 0-77.45 31.51-31.52 31.51-31.52 77.48 0 45.96 31.48 77.54 31.47 31.57 77.39 31.57ZM158.77-180q-25.79 0-44.18-18.39-18.38-18.39-18.38-44.18v-474.86q0-26.93 18.38-44.75Q132.98-780 158.77-780h642.46q25.79 0 44.18 18.39 18.38 18.39 18.38 44.18v474.86q0 25.79-18.38 44.18Q827.02-180 801.23-180H158.77Zm92.51-50.26h457.44q-46.9-51.69-107.31-77.33-60.41-25.64-121.28-25.64-61.54 0-121.21 25.64-59.66 25.64-107.64 77.33Zm-64 157.95q-10.84 0-17.98-7.15-7.15-7.14-7.15-18 0-10.85 7.15-17.98 7.14-7.13 17.98-7.13h585.44q10.84 0 17.98 7.15 7.15 7.15 7.15 18t-7.15 17.98q-7.14 7.13-17.98 7.13H187.28Zm0-765.12q-10.84 0-17.98-7.15-7.15-7.15-7.15-18t7.15-17.98q7.14-7.13 17.98-7.13h585.44q10.84 0 17.98 7.15 7.15 7.14 7.15 18 0 10.85-7.15 17.98-7.14 7.13-17.98 7.13H187.28Z"/></svg>