<svg xmlns="http://www.w3.org/2000/svg" height="40" viewBox="0 -960 960 960" width="40"><path d="M294.873-165.129v-95.898h-59.745q-10.679 0-17.903-7.263-7.224-7.263-7.224-17.999 0-10.737 7.224-17.865 7.224-7.128 17.903-7.128h59.745v-109.232h-59.745q-10.679 0-17.903-7.263-7.224-7.263-7.224-17.999 0-10.737 7.224-17.865 7.224-7.128 17.903-7.128h59.745v-317.948q0-13.295 8.993-22.288 8.994-8.994 22.288-8.994h224.103q83.291 0 141.516 58.23 58.226 58.229 58.226 141.524 0 83.296-58.226 141.514-58.225 58.217-141.516 58.217h-205.13v109.232h139.745q10.679 0 17.903 7.263 7.224 7.263 7.224 18 0 10.736-7.224 17.864t-17.903 7.128H345.127v95.898q0 10.679-7.262 17.903-7.263 7.225-18 7.225-10.736 0-17.864-7.225-7.128-7.224-7.128-17.903Zm50.254-305.64h205.13q62.502 0 105.995-43.489 43.492-43.49 43.492-105.988 0-62.497-43.492-105.998-43.493-43.5-105.995-43.5h-205.13v298.975Z"/></svg>