<svg xmlns="http://www.w3.org/2000/svg" height="40" viewBox="0 -960 960 960" width="40"><path d="M480.385-519.615q147.204 0 243.601-45 96.397-45 96.397-105 0-60.666-96.397-105.332-96.397-44.667-243.601-44.667-147.205 0-243.794 44.667-96.59 44.666-96.59 105.332 0 60 96.59 105 96.589 45 243.794 45ZM480-438.848q49.052 0 105.308-8.115 56.256-8.115 106.165-24.782 49.91-16.666 85.564-42.179 35.653-25.512 43.346-60.05v109.231q-7.693 34.538-43.346 60.051-35.654 25.512-85.564 42.179-49.909 16.666-106.165 24.782-56.256 8.115-105.308 8.115-48.641 0-105.102-8.115-56.462-8.116-106.179-24.987-49.718-16.872-85.371-42.385-35.654-25.512-43.347-59.64v-109.231q7.693 34.127 43.347 59.64 35.653 25.512 85.371 42.384 49.717 16.872 106.179 24.987 56.461 8.115 105.102 8.115Zm0 190q49.052 0 105.308-8.116 56.256-8.115 106.165-24.782 49.91-16.666 85.564-42.179 35.653-25.512 43.346-60.05v108.847q-7.693 34.538-43.346 60.05-35.654 25.513-85.564 42.179-49.909 16.667-106.165 24.782-56.256 8.116-105.308 8.116-48.641 0-105.102-8.116-56.462-8.115-106.179-24.987-49.718-16.871-85.371-42.384-35.654-25.513-43.347-59.64v-108.847q7.693 34.128 43.347 59.64 35.653 25.513 85.371 42.384 49.717 16.872 106.179 24.987 56.461 8.116 105.102 8.116Z"/></svg>