<svg xmlns="http://www.w3.org/2000/svg" height="40" viewBox="0 -960 960 960" width="40"><path d="M202.565-140.001q-25.846 0-44.205-18.359-18.359-18.359-18.359-44.205v-554.87q0-25.846 18.359-44.205 18.359-18.359 44.205-18.359h554.87q25.846 0 44.205 18.359 18.359 18.359 18.359 44.205v554.87q0 25.846-18.359 44.205-18.359 18.359-44.205 18.359h-554.87Zm287.436-629.743v234.153q0 9.359 7.884 13.936 7.885 4.577 16.039-.372l49.281-29.897q7.769-4.949 15.718-4.949t15.974 4.949l49.282 29.897q8.154 4.949 16.038.372 7.885-4.577 7.885-13.936v-234.153H490.001Z"/></svg>