<svg xmlns="http://www.w3.org/2000/svg" height="40" viewBox="0 -960 960 960" width="40"><path d="M860.383-620.513v335.025q0 10.882-5.474 17.877-5.474 6.995-13.833 10.277-8.359 3.282-16.91 2.308-8.552-.975-16.577-8.129L564.898-495.59q-8.928-8.754-14.156-20.598-5.229-11.843-5.229-24.863v-79.462q0-13.294 8.994-22.288 8.993-8.993 22.288-8.993h252.306q13.295 0 22.289 8.993 8.993 8.994 8.993 22.288ZM576.795-180.001q-13.295 0-22.288-8.994-8.994-8.993-8.994-22.288v-131.642L230.256-657.771v402.387h192.052q15.651 0 26.607 11.01t10.956 26.739q0 15.835-10.956 26.734-10.956 10.9-26.607 10.9H137.821q-15.758 0-26.789-11.054-11.031-11.054-11.031-26.846 0-15.791 11.031-26.637t26.789-10.846h42.18v-452.642l-72.641-72.641q-7.23-7.231-7.217-17.705.013-10.474 7.628-18.089 7.615-7.615 17.692-7.615 10.076 0 17.691 7.615l682.769 682.358q7.23 7.231 7.218 17.705-.013 10.474-7.628 18.089-7.616 7.615-17.692 7.615-10.077 0-17.692-7.615l-81.693-81.692H576.795Zm218.076-549.743H329.948q-12.563 0-18.845-7.792-6.282-7.793-6.282-17.144 0-9.351 6.282-17.335t18.845-7.984h464.923q10.679 0 17.903 7.263 7.225 7.263 7.225 18 0 10.736-7.225 17.864-7.224 7.128-17.903 7.128Z"/></svg>