<svg xmlns="http://www.w3.org/2000/svg" height="40" viewBox="0 -960 960 960" width="40"><path d="M140.001-171.131v-108.004q0-13.237 8.991-22.179 8.99-8.942 22.291-8.942h113.436L454.873-480.41v-132q-34.821-10.41-57.411-38.267-22.589-27.858-22.589-63.425 0-43.824 30.661-74.476 30.661-30.651 74.499-30.651 43.838 0 74.466 30.651 30.628 30.652 30.628 74.476 0 35.567-22.589 63.425-22.59 27.857-57.411 38.267v132l170.154 170.154h113.436q13.301 0 22.291 8.946 8.991 8.947 8.991 22.183v108.005q0 13.236-8.947 22.178-8.947 8.943-22.183 8.943H680.865q-13.237 0-22.179-8.991-8.942-8.99-8.942-22.291v-90.052L480-431.079 310.256-261.335v90.052q0 13.301-8.946 22.291-8.947 8.991-22.183 8.991H171.122q-13.236 0-22.178-8.947-8.943-8.947-8.943-22.183Z"/></svg>