<svg xmlns="http://www.w3.org/2000/svg" height="40" viewBox="0 -960 960 960" width="40"><path d="M346.669-202.77q9.284 0 15.256-5.987 5.972-5.987 5.972-15.294V-471.18q28.641-4.948 48.295-26.397 19.654-21.449 19.654-50.792v-149.272q0-8.051-5.667-13.615-5.666-5.564-13.923-5.564-8.051 0-13.615 5.564t-5.564 13.615v123.591h-29.795v-123.591q0-8.051-5.564-13.615t-13.744-5.564q-8.179 0-13.615 5.564t-5.436 13.615v123.591h-33.436v-123.591q0-8.051-5.41-13.615t-13.769-5.564q-8.051 0-13.616 5.564-5.564 5.564-5.564 13.615v149.272q0 29.343 19.449 50.792t48.5 26.397v247.129q0 9.307 6.154 15.294t15.438 5.987Zm246.305 0q9.308 0 15.295-5.987t5.987-15.294v-236.36q33.586-12.712 53.075-47.157 19.489-34.446 19.489-81.252 0-55.077-26.359-91.539-26.359-36.461-66.128-36.461t-65.794 36.461q-26.026 36.462-26.026 91.539 0 48.384 18.359 82.23 18.359 33.846 50.564 46.179v236.36q0 9.307 6.06 15.294t15.478 5.987ZM162.565-100.001q-25.788 0-44.176-18.388t-18.388-44.176v-634.87q0-25.788 18.388-44.176t44.176-18.388h634.87q25.788 0 44.176 18.388t18.388 44.176v634.87q0 25.788-18.388 44.176t-44.176 18.388h-634.87Z"/></svg>