<svg xmlns="http://www.w3.org/2000/svg" height="40" viewBox="0 -960 960 960" width="40"><path d="M481.442-250.001q95.814 0 163.673-67.813 67.859-67.814 67.859-163.628T645.16-645.115q-67.813-67.859-163.628-67.859-95.814 0-163.673 67.814-67.858 67.813-67.858 163.628 0 95.814 67.813 163.673 67.814 67.858 163.628 67.858ZM398.103-456.36q-10.686 0-17.907-7.258-7.221-7.259-7.221-18t7.221-17.869q7.221-7.128 17.907-7.128h163.384q10.686 0 17.907 7.259 7.221 7.258 7.221 17.999t-7.221 17.869q-7.221 7.128-17.907 7.128H398.103Zm82.141 356.359q-78.915 0-147.999-29.92-69.084-29.92-120.731-81.544-51.647-51.624-81.58-120.727-29.933-69.103-29.933-148.074 0-78.715 29.92-147.978 29.92-69.262 81.544-120.575 51.624-51.314 120.727-81.247 69.103-29.933 148.074-29.933 78.715 0 147.978 29.92 69.262 29.92 120.575 81.21 51.314 51.291 81.247 120.629 29.933 69.337 29.933 147.996 0 78.915-29.92 147.999-29.92 69.084-81.21 120.608-51.291 51.524-120.629 81.58-69.337 30.056-147.996 30.056Z"/></svg>