<svg xmlns="http://www.w3.org/2000/svg" viewBox="0 -960 960 960" width="32" height="32"><path d="m438-392.61-66.46-66.47q-7.84-7.82-18.32-7.82t-18.3 7.84q-7.82 7.84-7.62 18.5.19 10.66 7.62 18.1l81.16 81.15q9.4 9.36 21.94 9.36 12.54 0 21.9-9.36l165.16-165.15q7.82-7.84 7.82-18.32t-7.84-18.3q-7.84-7.82-18.5-7.62-10.66.19-18.1 7.62L438-392.61ZM150.26-647.85h659.48v-69.58q0-4.62-3.84-8.47-3.85-3.84-8.47-3.84H162.57q-4.62 0-8.47 3.84-3.84 3.85-3.84 8.47v69.58ZM162.57-180q-25.79 0-44.18-18.39T100-242.57v-474.86q0-25.79 18.39-44.18T162.57-780h634.86q25.79 0 44.18 18.39T860-717.43v474.86q0 25.79-18.39 44.18T797.43-180H162.57Z"/></svg>