<svg xmlns="http://www.w3.org/2000/svg" height="40" viewBox="0 -960 960 960" width="40"><path d="M518.692-820.563q0-15.687 11.833-25.485 11.834-9.797 26.603-6.592 113.358 22.462 193.679 103.795 80.32 81.333 102.371 194.692 2.795 14.102-6.189 24.692-8.984 10.589-24.888 10.589H594.384q-2.949 0-5.25-1.602-2.301-1.603-3.442-4.808-8.59-20.256-24.623-35.644-16.034-15.389-36.223-23.227-2.949-1.38-4.551-3.413-1.603-2.033-1.603-5.203v-227.794ZM401.18-108.36q-130.128-27.18-215.153-130.484-85.026-103.305-85.026-239.669 0-137.061 84.693-241.389Q270.386-824.23 401.18-851.64q16.179-3.153 28.615 7.356 12.436 10.51 12.436 26.926v225.712q0 .552-4.538 7.287-31.667 13.231-51.103 42.285-19.436 29.054-19.436 63.641 0 33.92 19.436 61.138 19.436 27.218 50.692 40.064.949.461 4.949 7.205v227.384q0 16.416-12.436 26.926-12.436 10.509-28.615 7.356Zm152.794 1.205q-14.103 2.154-24.692-6.909-10.59-9.062-10.59-23.219v-230.538q0-3.205 1.808-5.712 1.807-2.506 5.013-3.647 20.846-7.949 36.429-23.162 15.582-15.213 23.75-35.145-.051-.411 8.715-6.411h227.694q14.198 0 23.945 11.962 9.747 11.961 6.799 26.73-22.641 113.359-104.077 193.679-81.435 80.321-194.794 102.372Z"/></svg>