<svg xmlns="http://www.w3.org/2000/svg" height="40" viewBox="0 -960 960 960" width="40"><path d="M285.129-54.617q-60.666 0-102.897-42.23-42.231-42.231-42.231-102.897v-121.795h195.87q3.077 0 5.706 1.347 2.628 1.346 4.295 3.654l81.256 108.487q17.513 22.923 45.718 25 28.204 2.076 48.922-18.641l128.281-128.691 123.156-73.822q16.307-9.307 35.551-8.102 19.243 1.205 34.217 12.307l1.488 1.488q18.945 14.674 20.934 38.272 1.988 23.598-15.088 40.675L616.196-85.455q-15.197 15.198-34.3 23.018-19.104 7.82-40.14 7.82H285.129ZM140.001-371.793v-387.694q0-10.679 7.263-17.903 7.263-7.224 18-7.224 10.736 0 17.864 7.224t7.128 17.903v269.999h106.591v-349.999q0-10.679 7.263-17.903 7.263-7.224 18-7.224 10.736 0 17.864 7.224t7.128 17.903v349.999h105.796v-389.999q0-10.679 7.263-17.903 7.263-7.224 17.999-7.224 10.737 0 17.865 7.224 7.128 7.224 7.128 17.903v389.999h106.591v-309.999q0-10.679 7.263-17.903 7.263-7.224 17.999-7.224 10.737 0 17.865 7.224 7.128 7.224 7.128 17.903v388.772L485.359-236.64q-4.231 4.231-9.616 3.654t-8.847-5.192l-81.025-108.487q-8.622-12.084-21.795-18.606-13.173-6.522-28.205-6.522h-195.87Z"/></svg>