<svg xmlns="http://www.w3.org/2000/svg" height="40" viewBox="0 -960 960 960" width="40"><path d="M50.379-290.001q-10.737 0-17.864-7.224-7.128-7.224-7.128-17.903v-209.744q0-10.679 7.262-17.903 7.263-7.224 18-7.224 10.736 0 17.864 7.224t7.128 17.903v209.744q0 10.679-7.263 17.903-7.263 7.224-17.999 7.224Zm115.384-120q-10.736 0-17.864-7.224t-7.128-17.903v-209.744q0-10.679 7.263-17.903 7.263-7.224 17.999-7.224 10.737 0 17.865 7.224 7.128 7.224 7.128 17.903v209.744q0 10.679-7.263 17.903-7.263 7.224-18 7.224Zm152.956 310q-25.789 0-44.176-18.388-18.388-18.388-18.388-44.176v-634.87q0-25.788 18.388-44.176 18.387-18.388 44.176-18.388h322.562q25.789 0 44.176 18.388 18.388 18.388 18.388 44.176v634.87q0 25.788-18.388 44.176-18.387 18.388-44.176 18.388H318.719Zm475.248-190q-10.737 0-17.865-7.224-7.128-7.224-7.128-17.903v-209.744q0-10.679 7.263-17.903 7.263-7.224 18-7.224 10.736 0 17.864 7.224t7.128 17.903v209.744q0 10.679-7.263 17.903-7.263 7.224-17.999 7.224Zm115.384-120q-10.736 0-17.864-7.224t-7.128-17.903v-209.744q0-10.679 7.263-17.903 7.263-7.224 17.999-7.224 10.737 0 17.865 7.224 7.128 7.224 7.128 17.903v209.744q0 10.679-7.263 17.903-7.263 7.224-18 7.224ZM306.41-245.64h347.18v-468.72H306.41v468.72Z"/></svg>