<svg xmlns="http://www.w3.org/2000/svg" height="40" viewBox="0 -960 960 960" width="40"><path d="M640-100.001q-62 0-93.807-21.347-31.808-21.346-53.884-44.422-20.539-21.924-40.539-38.078-20-16.153-52.77-16.153-41.923 0-93.653-14.731-51.731-14.731-97.154-47.923-45.423-33.192-76.499-86.346Q100.617-422.154 100.001-499q-1.23-156.23 78.077-258.614Q257.385-859.999 399-859.999q65.23 0 110.961 18.77 45.73 18.769 78.923 47.653 33.192 28.885 56.73 63.884 23.538 35 44 67.692 13.538 22.308 26.885 41.308 13.346 19.001 29.269 34.924 57.308 57.307 85.769 99.615Q859.999-443.846 859.999-359q0 111.153-68.346 185.076Q723.307-100.001 640-100.001ZM480.171-369.745q45.572 0 77.828-32.427t32.256-77.999q0-45.572-32.427-77.828t-77.999-32.256q-45.572 0-77.828 32.427t-32.256 77.999q0 45.572 32.427 77.828t77.999 32.256Z"/></svg>