<svg xmlns="http://www.w3.org/2000/svg" height="40" viewBox="0 -960 960 960" width="40"><path d="M384.489-436.565V-320q0 10.852 7.141 17.99 7.142 7.137 18 7.137t17.986-7.137q7.128-7.138 7.128-17.99v-116.565l108.437 62.308q9.051 5 18.845 2.521 9.795-2.478 14.73-11.807 5.193-8.816 2.437-19.034-2.756-10.218-11.5-15.115L459.871-480l107.822-62.308q8.744-4.897 11.5-14.987 2.756-10.089-2.437-19.418-4.935-9.073-14.73-11.551-9.794-2.479-18.845 2.521l-108.437 62.308V-640q0-10.852-7.142-17.99-7.141-7.137-17.999-7.137-10.858 0-17.986 7.137-7.128 7.138-7.128 17.99v116.565l-107.796-62.308q-9.308-5-19.102-2.521-9.795 2.478-14.731 11.551-5.192 9.329-2.564 19.418 2.627 10.09 11.885 14.987L359.361-480l-107.18 62.308q-9.258 4.897-11.885 14.987-2.628 10.089 2.564 19.162 4.936 9.329 14.731 11.807 9.794 2.479 19.102-2.521l107.796-62.308ZM172.181-180.001q-25.846 0-44.205-18.359-18.358-18.359-18.358-44.205v-474.87q0-25.846 18.358-44.205 18.359-18.359 44.205-18.359h474.87q25.846 0 44.205 18.359 18.359 18.359 18.359 44.205v200l113.758-113.758q7.24-7.24 17.125-3.545 9.884 3.695 9.884 14.227v281.022q0 10.532-9.884 14.227-9.885 3.695-17.125-3.545L709.615-442.822v200.257q0 25.846-18.359 44.205-18.359 18.359-44.205 18.359h-474.87Z"/></svg>