<svg xmlns="http://www.w3.org/2000/svg" height="40" viewBox="0 -960 960 960" width="40"><path d="M770.59-255.103v75.385q0 6.256 4.692 10.82t10.692 4.564q6 0 10.564-4.564t4.564-10.82v-111.923q0-6.154-4.679-10.833-4.68-4.679-10.833-4.679H673.667q-6 0-10.692 4.564t-4.692 10.564q0 6.256 4.692 10.82t10.692 4.564h75.641l-98.205 97.948q-4.564 4.821-4.756 10.705-.192 5.885 4.756 10.834 4.704 4.564 10.839 4.564 6.135 0 10.699-4.564l97.949-97.949Zm-44.231 197q-72.358 0-123.204-51.18-50.846-51.179-50.846-122.46 0-72.615 50.846-123.666t123.204-51.051q71.948 0 122.999 51.051t51.051 123.666q0 71.281-51.051 122.46-51.051 51.18-122.999 51.18ZM315.128-615.13h329.744q10.852 0 17.99-7.141 7.137-7.142 7.137-18t-7.137-17.986q-7.138-7.128-17.99-7.128H315.128q-10.852 0-17.99 7.142-7.137 7.141-7.137 17.999 0 10.858 7.137 17.986 7.138 7.128 17.99 7.128ZM202.565-140.001q-25.775 0-44.169-18.395-18.395-18.394-18.395-44.169v-554.87q0-25.775 18.395-44.169 18.394-18.395 44.169-18.395h554.87q25.775 0 44.169 18.395 18.395 18.394 18.395 44.169v244.743q0 14.389-11.18 22.425-11.179 8.036-24.871 3.985-13.795-3.589-28.355-5.654Q741.034-494 726.359-494q-17.103 0-33.103 2.385-16.001 2.385-31.719 6.718v-4.871q-2.288-6.359-9.589-10.859t-15.538-4.5H315.128q-10.852 0-17.99 7.141-7.137 7.142-7.137 17.999 0 10.858 7.137 17.986 7.138 7.128 17.99 7.128H592.54q-33.077 19.334-58.578 47.501-25.5 28.167-41.808 62.501H315.128q-10.852 0-17.99 7.141-7.137 7.142-7.137 18t7.137 17.986q7.138 7.128 17.99 7.128h158.847q-3.564 14.949-5.436 29.987-1.872 15.039-1.872 30.988 0 14.333 1.641 28.999 1.641 14.667 5.102 28.974 3.052 13.308-4.859 24.487-7.91 11.18-21.166 11.18h-244.82Z"/></svg>