<svg xmlns="http://www.w3.org/2000/svg" height="40" viewBox="0 -960 960 960" width="40"><path d="M356.875-306.615q-21.67 0-36.708-15.189-15.039-15.189-15.039-36.987 0-21.799 15.189-36.709 15.189-14.91 36.987-14.91 21.799 0 36.709 15.094 14.91 15.093 14.91 36.953 0 21.671-15.094 36.709-15.094 15.039-36.954 15.039Zm246.359 0q-21.67 0-36.708-15.189-15.039-15.189-15.039-36.987 0-21.799 15.189-36.709 15.189-14.91 36.987-14.91 21.799 0 36.709 15.094 14.91 15.093 14.91 36.953 0 21.671-15.094 36.709-15.094 15.039-36.954 15.039ZM479.975-70.256q138.07 0 233.919-95.926 95.85-95.925 95.85-234.14 0-24.755-3.539-48.409-3.538-23.654-10.346-44.654-20.705 5-42.7 7.295-21.995 2.295-46.336 2.295-93.848 0-177.579-39.538-83.731-39.539-142.629-111.436-32.82 79.23-94.346 138.346-61.525 59.115-142.013 90.027V-400q0 138.08 95.825 233.912 95.824 95.832 233.894 95.832Zm.092 50.255q-78.836 0-148.204-29.925-69.369-29.925-120.682-81.225-51.314-51.3-81.247-120.65Q100.001-321.15 100.001-400q0-22.385 2.654-44.384t8.346-42.23q-44.923-25.615-72.192-70.953-27.27-45.338-27.27-100.354 0-83 58-141t141-58q51.852 0 95.387 24.538 43.536 24.538 70.536 66.846 24.462-7.231 50.667-10.846 26.206-3.616 52.871-3.616 78.85 0 148.199 29.92 69.35 29.92 120.65 81.21 51.3 51.291 81.225 120.629 29.925 69.337 29.925 148.173t-29.92 148.204q-29.92 69.369-81.21 120.682-51.291 51.314-120.629 81.247-69.337 29.932-148.173 29.932Z"/></svg>