<svg xmlns="http://www.w3.org/2000/svg" viewBox="0 -960 960 960" width="32" height="32"><path d="M273.64-456.77h290.15q10.68 0 17.91-7.26 7.22-7.27 7.22-18 0-10.74-7.22-17.87-7.23-7.12-17.91-7.12H273.64q-10.68 0-17.9 7.26-7.23 7.26-7.23 18 0 10.73 7.23 17.86 7.22 7.13 17.9 7.13Zm0-124.46h290.15q10.68 0 17.91-7.26 7.22-7.27 7.22-18 0-10.74-7.22-17.87-7.23-7.13-17.91-7.13H273.64q-10.68 0-17.9 7.27-7.23 7.26-7.23 18 0 10.73 7.23 17.86 7.22 7.13 17.9 7.13ZM162.57-180q-25.79 0-44.18-18.39T100-242.57v-474.86q0-25.79 18.39-44.18T162.57-780h634.86q25.79 0 44.18 18.39T860-717.43v474.86q0 25.79-18.39 44.18T797.43-180H162.57Z"/></svg>