<svg xmlns="http://www.w3.org/2000/svg" height="40" viewBox="0 -960 960 960" width="40"><path d="M620.41-541.334q-67.102 0-114.371-47.141-47.269-47.141-47.269-114.499 0-67.359 47.269-114.5 47.269-47.14 114.371-47.14 67.359 0 114.628 47.14 47.269 47.141 47.269 114.5 0 27-8.526 51.307-8.526 24.308-22.5 43.513l114.513 114.77q7.231 7.23 7.423 17.499.193 10.269-7.423 17.628-7.615 7.615-17.897 7.615-10.281 0-17.897-7.615L714.82-572.771q-20.282 16.231-44.628 23.834-24.346 7.603-49.782 7.603Zm0-50.255q46.898 0 79.27-32.244 32.372-32.244 32.372-79.141 0-46.642-32.372-79.013-32.372-32.372-79.27-32.372-46.641 0-79.013 32.372-32.372 32.371-32.372 79.013 0 46.897 32.372 79.141 32.372 32.244 79.013 32.244ZM161.078-100.001q-25.846 0-44.205-18.359-18.359-18.359-18.359-44.205v-549.998q0-25.846 18.359-44.205 18.359-18.359 44.205-18.359h190.487q13.564 0 21.718 11.077t5.769 24.641q-1.436 8.641-1.846 16.948-.41 8.307-.41 17.102 0 104.23 68.769 168.55 68.769 64.321 174.615 64.321 17.153 0 34.294-1.962 17.141-1.961 35.551-6.09l64.333 62.127q9.128 8.616 14.205 20.667 5.077 12.051 5.077 24.743v210.438q0 25.846-18.359 44.205-18.359 18.359-44.205 18.359H161.078Z"/></svg>