<svg xmlns="http://www.w3.org/2000/svg" viewBox="0 -960 960 960" width="32" height="32"><path d="M122.57-180q-25.79 0-44.18-18.39T60-242.57v-474.86q0-25.79 18.39-44.18T122.57-780h714.86q26.26 0 44.41 18.39Q900-743.22 900-717.43v474.86q0 25.79-18.16 44.18Q863.69-180 837.43-180H122.57Zm59.48-349.28L288.46-373.1q2.62 4.23 6.63 6.33 4 2.1 8.55 2.1h9.75q8.02 0 13.52-5.47t5.5-13.58v-192.33q0-8.03-5.47-13.66-5.47-5.62-13.64-5.62-8.17 0-14.02 5.62-5.84 5.63-5.84 13.66v145.33L189.82-586.49q-3.08-4.36-7.85-6.6-4.77-2.24-9.43-2.24h-9.32q-8.44 0-14.42 5.84t-5.98 14.21v191.33q0 8.03 5.8 13.66 5.81 5.62 13.98 5.62 8.17 0 13.81-5.81 5.64-5.82 5.64-14.14v-144.66Zm219.21 164.61h111.41q8.03 0 13.65-5.8 5.63-5.8 5.63-13.97 0-8.18-5.63-13.82-5.62-5.64-13.65-5.64h-84.11v-55.02h84.11q8.03 0 13.65-5.68 5.63-5.67 5.63-13.97t-5.63-13.81q-5.62-5.52-13.65-5.52h-84.11v-57.79H512q8.7 0 14.32-5.62 5.63-5.61 5.63-14.29 0-8.56-5.63-14.15-5.62-5.58-14.32-5.58H401.26q-6.21 0-10.86 4.73-4.66 4.73-4.66 11.04v199.12q0 6.31 4.66 11.04 4.65 4.73 10.86 4.73Zm220.59 0h164.87q13.13 0 22-8.61t8.87-21.85v-180.92q0-8.03-5.47-13.66-5.47-5.62-13.64-5.62-8.17 0-14.02 5.62-5.84 5.63-5.84 13.66v168.56h-55.39v-128.15q0-8.03-5.47-13.66-5.47-5.62-13.77-5.62t-14.02 5.62q-5.71 5.63-5.71 13.66v128.15h-53.64v-168.56q0-8.03-5.62-13.66-5.61-5.62-13.62-5.62-8.3 0-14.15 5.62-5.85 5.63-5.85 13.66v180.92q0 13.24 8.62 21.85 8.61 8.61 21.85 8.61Z"/></svg>