<svg xmlns="http://www.w3.org/2000/svg" height="40" viewBox="0 -960 960 960" width="40"><path d="M242.565-100.001q-25.788 0-44.176-18.388t-18.388-44.176v-634.87q0-25.788 18.388-44.176t44.176-18.388h315.742q13.867 0 26.318 5.782t21.066 16.731l159.128 186.23q7.821 8.616 11.5 18.962 3.68 10.346 3.68 21.73v380.641q0 15.769-14.27 21.82-14.269 6.052-25.371-5.051L589.742-364.308q11.821-15.821 17.859-34.675 6.039-18.854 6.039-40.607 0-56.025-38.808-94.832-38.807-38.807-94.832-38.807-56.025 0-94.832 38.807-38.808 38.807-38.808 94.832 0 56.025 38.808 94.833Q423.975-305.95 480-305.95q21.17 0 39.188-4.975 18.017-4.974 36.459-17.025l174.738 174.744q14.769 14.769 6.906 33.987-7.863 19.218-28.829 19.218H242.565Zm237.424-256.204q-34.476 0-58.925-24.46-24.449-24.46-24.449-58.936t24.46-58.925q24.46-24.448 58.936-24.448t58.925 24.46q24.449 24.46 24.449 58.936 0 34.475-24.46 58.924-24.461 24.449-58.936 24.449Z"/></svg>