<svg xmlns="http://www.w3.org/2000/svg" viewBox="0 -960 960 960" width="32" height="32"><path d="M419.13-255.64q13.41 10.74 28.32 15.58 14.91 4.83 29.58 4.83 30.42 0 54.7-19.24Q556-273.72 560-308.72q5-47.82-30.08-71.27-35.07-23.44-53.3-60.52-5 14.41-4.8 26 .21 11.59 2.8 26.82 3 18.49 7.41 33.28 4.41 14.8 1 32.87-5 20.31-22.41 39.11-17.41 18.79-41.49 26.79ZM100-162.57v-634.86q0-25.71 18.43-44.14T162.57-860h634.86q25.71 0 44.14 18.43T860-797.43v634.86q0 25.71-18.43 44.14T797.43-100H162.57q-25.71 0-44.14-18.43T100-162.57Zm62.57 12.31h91.28v-19.86q0-12.67 8.94-21.53 8.94-8.86 21.57-8.86h77.08q-26.05-24.44-40.57-57.4-14.51-32.96-14.51-67.99 0-84.33 41.08-146.02 41.07-61.69 110.15-105.74 6.56-4.54 13.82-4.73 7.25-.2 13.71 2.16 6.47 2.36 11.67 7.35 5.21 4.99 7.39 12.29 13.72 42.72 34.68 70.09 20.96 27.37 56.01 54.66 29.56 23.59 43.96 50.74 14.4 27.15 14.4 61.61 0 35.57-13.3 67.4-13.29 31.84-40.03 55.58h75.74q12.63 0 21.57 8.94t8.94 21.57v19.74h91.28q5.39 0 8.85-3.46t3.46-8.85v-634.86q0-5.39-3.46-8.85t-8.85-3.46H162.57q-5.39 0-8.85 3.46t-3.46 8.85v634.86q0 5.39 3.46 8.85t8.85 3.46Z"/></svg>