<svg xmlns="http://www.w3.org/2000/svg" height="40" viewBox="0 -960 960 960" width="40"><path d="M275.115-250.001q-10.858 0-17.986-7.137-7.128-7.138-7.128-17.99v-409.744q0-10.852 7.141-17.99 7.142-7.137 18-7.137t17.986 7.137q7.128 7.138 7.128 17.99v409.744q0 10.852-7.142 17.99-7.141 7.137-17.999 7.137Zm256.679-228.512L701.487-308.82q7.23 7.231 7.217 17.5-.012 10.268-7.628 17.884-7.615 7.615-17.896 7.615-10.282 0-17.897-7.615L482.129-456.59q-4.949-4.949-7.179-10.41-2.231-5.462-2.231-11.564 0-6.359 2.231-11.641 2.23-5.282 7.179-10.231l183.564-183.563q7.23-7.231 17.704-7.423 10.474-.193 18.09 7.423 7.615 7.358 7.615 17.768t-7.615 18.025L531.794-478.513Z"/></svg>