<svg xmlns="http://www.w3.org/2000/svg" viewBox="0 -960 960 960" width="32" height="32"><path d="M260-751.9v-45.53q0-25.61 18.48-44.09Q296.96-860 322.57-860h314.86q25.61 0 44.09 18.48Q700-823.04 700-797.43v45.53H260Zm219.84 408.67q19.03 0 32.36-13.17 13.34-13.17 13.34-32.21 0-19.03-13.17-32.36-13.17-13.34-32.21-13.34-19.03 0-32.36 13.17-13.34 13.17-13.34 32.21 0 19.03 13.17 32.37 13.17 13.33 32.21 13.33ZM344.87-162.57v-365.07l-74.51-110.18q-5.67-7.97-8.01-16.7-2.35-8.73-2.35-18.2v-28.92h440v28.92q0 9.47-2.35 18.2-2.34 8.73-8.01 16.7l-74.51 110.18v365.07q0 25.61-18.48 44.09Q578.17-100 552.56-100H407.44q-25.61 0-44.09-18.48-18.48-18.48-18.48-44.09Z"/></svg>