<svg xmlns="http://www.w3.org/2000/svg" height="40" viewBox="0 -960 960 960" width="40"><path d="m663.794-624.924-36.462 93.565q-2.615 6.462-7.974 10.398-5.359 3.935-12.41 3.935-11.641 0-18-9.589-6.359-9.59-2.128-20.231l113.282-290.461q4.641-12.769 15.154-20.564t23.82-8.59q13.769-.795 24.679 7.782 10.911 8.577 15.936 21.346l114 290.718q4.231 11.026-2.217 20.308-6.449 9.281-18.09 9.281-7.051 0-12.705-3.743-5.654-3.744-8.012-10.538l-36.719-93.617H663.794Zm14.103-39.691h123.795l-57.641-154.308h-9.129l-57.025 154.308ZM236.771-196.081q-7.411-2.205-12.09-8.051-4.68-5.846-4.68-14.462v-201.407h-49.743q-25.872 0-44.218-18.346-18.346-18.346-18.346-44.218v-314.87q0-25.872 18.346-44.218 18.346-18.346 44.218-18.346h214.997q25.231 0 41.538 19.321 16.308 19.32 9.359 43.243l-56.153 193.204h68.821q28.076 0 41.422 24.936 13.346 24.935-2.782 48.602L262.847-205.03q-4.948 7.154-11.936 9.154-6.987 2-14.14-.205Z"/></svg>