<svg xmlns="http://www.w3.org/2000/svg" height="40" viewBox="0 -960 960 960" width="40"><path d="M595.974-464.103 326.489-733.331q-10.487-10.487-15.487-23t-5-26.18v-12.308q0-26 18.256-45.59 18.257-19.59 47.667-19.59h213.33q25.897 0 41.871 19.321 15.975 19.32 9.026 43.243l-56.153 193.204h68.821q28.282 0 41.551 24.936 13.269 24.935-2.911 48.602l-43.436 62.641q-8.615 11.564-23.051 13.038-14.436 1.475-24.999-9.089Zm189.309 360.512L552.59-335.413 462.847-205.03q-4.205 6.154-11.589 8.654-7.385 2.5-14.487.295-7.744-2.205-12.257-8.282t-4.513-14.231v-201.407h-49.743q-25.872 0-44.218-18.346-18.346-18.346-18.346-44.218v-97.743L102.976-785.283q-7.436-7.435-7.32-17.807.115-10.371 7.935-18.192 7.564-7.564 17.871-7.564 10.308 0 18.128 7.564l681.692 682.307q7.179 7.436 7.371 17.628.193 10.192-7.371 17.756-7.821 7.82-18.128 7.82t-17.871-7.82Z"/></svg>