<svg xmlns="http://www.w3.org/2000/svg" height="40" viewBox="0 -960 960 960" width="40"><path d="M162.565-180.001q-25.846 0-44.205-18.564-18.359-18.564-18.359-44v-474.87q0-25.436 18.359-44t44.205-18.564h213.64q12.564 0 24.294 5.077 11.731 5.077 20.346 13.436l51.488 51.744h325.102q25.436 0 44 18.564t18.564 43.999v99.615q0 14.307-11.872 21.179-11.872 6.872-24.769.436-25.564-11.692-53.205-18-27.641-6.307-56.23-6.307-112.205 0-186.256 77.756t-74.051 182.679q0 18.948 2.653 37.397 2.654 18.449 8.347 35.987 3.974 13.897-3.782 25.166-7.757 11.27-21.321 11.27H162.565Zm430.666 0q-10.872 0-18-7.128t-7.128-18q0-28.743 38.769-48.628 38.769-19.884 107.384-19.884 68.871 0 107.512 19.884 38.641 19.885 38.641 48.628 0 10.872-7.128 18t-18 7.128h-242.05Zm121.025-159.077q-27.41 0-47.012-19.474-19.603-19.474-19.603-47.14 0-27.667 19.603-47.141 19.602-19.474 47.012-19.474 27.666 0 47.14 19.474 19.475 19.474 19.475 47.141 0 27.666-19.475 47.14-19.474 19.474-47.14 19.474Z"/></svg>