<svg xmlns="http://www.w3.org/2000/svg" height="40" viewBox="0 -960 960 960" width="40"><path d="M242.565-140.001q-25.775 0-44.169-18.395-18.395-18.394-18.395-44.169v-356.153q0-14.865 6.606-28.204 6.606-13.34 18.522-21.795l237.435-178.589q16.39-12.564 37.374-12.564 20.985 0 37.498 12.564l237.435 178.589q11.916 8.455 18.522 21.795 6.606 13.339 6.606 28.204v356.153q0 25.775-18.395 44.169-18.394 18.395-44.169 18.395h-474.87Zm182.051-113.077q7.615 0 13.038-5.423t5.423-13.038v-129.23q23.077 0 39.231-16.154 16.153-16.154 16.153-39.231v-92.307q0-7.615-5.423-13.038T480-566.922q-7.615 0-13.038 5.423t-5.423 13.038v92.307h-18.462v-92.307q0-7.615-5.423-13.038t-13.038-5.423q-7.616 0-13.039 5.423t-5.423 13.038v92.307h-18.461v-92.307q0-7.615-5.423-13.038t-13.039-5.423q-7.615 0-13.038 5.423t-5.423 13.038v92.307q0 23.077 16.154 39.231t39.23 16.154v129.23q0 7.615 5.423 13.038t13.039 5.423Zm147.691 0q7.615 0 13.039-5.423 5.423-5.423 5.423-13.038v-271.383q0-10.154-6.956-17.077-6.956-6.923-17.158-6.923-25.04 0-37.386 23.077-12.346 23.076-12.346 50.769v79.422q0 13.423 9.218 21.641 9.217 8.218 22.064 9.705h5.641v110.769q0 7.615 5.423 13.038t13.038 5.423Z"/></svg>