<svg xmlns="http://www.w3.org/2000/svg" height="40" viewBox="0 -960 960 960" width="40"><path d="M405.692-208.924q-10.679 0-17.903-7.263-7.224-7.263-7.224-17.999 0-10.737 7.224-17.865 7.224-7.128 17.903-7.128h389.179q10.679 0 17.903 7.263 7.225 7.263 7.225 18 0 10.736-7.225 17.864-7.224 7.128-17.903 7.128H405.692Zm0-245.949q-10.679 0-17.903-7.262-7.224-7.263-7.224-18 0-10.736 7.224-17.864t17.903-7.128h389.179q10.679 0 17.903 7.262 7.225 7.263 7.225 18 0 10.736-7.225 17.864-7.224 7.128-17.903 7.128H405.692Zm0-246.359q-10.679 0-17.903-7.263-7.224-7.262-7.224-17.999 0-10.736 7.224-17.864t17.903-7.128h389.179q10.679 0 17.903 7.262 7.225 7.263 7.225 18t-7.225 17.865q-7.224 7.127-17.903 7.127H405.692ZM201.28-173.873q-25.195 0-43.032-17.443-17.836-17.442-17.836-42.658t17.648-42.864q17.648-17.648 42.864-17.648 25.215 0 42.658 17.964 17.443 17.965 17.443 43.009 0 24.494-17.55 42.067t-42.195 17.573Zm0-245.949q-25.195 0-43.032-17.768-17.836-17.769-17.836-42.41t17.888-42.41q17.889-17.768 43.009-17.768 24.57 0 42.143 17.768 17.573 17.769 17.573 42.41t-17.55 42.41q-17.55 17.768-42.195 17.768Zm-.69-246.359q-24.641 0-42.41-17.768-17.768-17.769-17.768-42.41t17.768-42.41q17.769-17.768 42.538-17.768 24.77 0 42.538 17.768 17.769 17.769 17.769 42.41t-17.753 42.41q-17.752 17.768-42.682 17.768Z"/></svg>