<svg xmlns="http://www.w3.org/2000/svg" height="40" viewBox="0 -960 960 960" width="40"><path d="M161.147-290.001q-10.736 0-17.864-7.224t-7.128-17.903v-329.744q0-10.679 7.263-17.903 7.263-7.224 17.999-7.224 10.737 0 17.865 7.224 7.128 7.224 7.128 17.903v139.745h189.745v-139.745q0-10.679 7.263-17.903 7.263-7.224 17.999-7.224 10.737 0 17.865 7.224 7.128 7.224 7.128 17.903v329.744q0 10.679-7.263 17.903-7.263 7.224-18 7.224-10.736 0-17.864-7.224t-7.128-17.903v-139.745H186.41v139.745q0 10.679-7.263 17.903-7.263 7.224-18 7.224Zm389.877 0q-10.679 0-17.903-7.263-7.224-7.263-7.224-17.999 0-10.737 7.224-17.865 7.224-7.128 17.903-7.128h202.564q5.129 0 8.719-3.461 3.59-3.462 3.59-8.847v-102.309H631.024q-10.679 0-17.903-7.262-7.224-7.263-7.224-18 0-10.736 7.224-17.864t17.903-7.128h134.873v-102.309q0-5.385-3.59-8.847-3.59-3.461-8.719-3.461H551.024q-10.679 0-17.903-7.263-7.224-7.263-7.224-18 0-10.736 7.224-17.864t17.903-7.128h202.564q25.609 0 44.086 18.477 18.478 18.478 18.478 44.086v254.872q0 25.608-18.478 44.086-18.477 18.477-44.086 18.477H551.024Z"/></svg>