<svg xmlns="http://www.w3.org/2000/svg" viewBox="0 -960 960 960" width="32" height="32"><path d="M202.57-140h130.79v-192.98H140v130.41q0 25.61 18.48 44.09Q176.96-140 202.57-140Zm181.05 0h192.76v-192.98H383.62V-140Zm243.02 0h130.79q25.61 0 44.09-18.48Q820-176.96 820-202.57v-130.41H626.64V-140ZM140-383.23h193.36v-193.54H140v193.54Zm243.62 0h192.76v-193.54H383.62v193.54Zm243.02 0H820v-193.54H626.64v193.54ZM140-627.02h193.36V-820H202.57q-25.61 0-44.09 18.48Q140-783.04 140-757.43v130.41Zm243.62 0h192.76V-820H383.62v192.98Zm243.02 0H820v-130.41q0-25.61-18.48-44.09Q783.04-820 757.43-820H626.64v192.98Z"/></svg>