<svg xmlns="http://www.w3.org/2000/svg" height="40" viewBox="0 -960 960 960" width="40"><path d="M477.846-125.77q-15.846 0-27.359-10.794-11.513-10.794-11.513-27.804 0-7.431 3.192-15.942 3.193-8.511 9.577-14.639l155.615-155.862q4.922-4.932 4.922-10.727 0-5.794-4.948-10.743-4.949-4.949-10.936-4.782-5.987.167-10.808 4.987L430.211-216.739q-6.466 6.465-14.198 9.64-7.731 3.176-16.116 3.176-16.23 0-27.346-11.116-11.115-11.115-11.115-27.346 0-9.615 3.384-17.269 3.385-7.654 8.845-13.114l155.539-155.539q4.923-4.923 4.923-10.743 0-5.821-4.949-10.769-4.948-4.949-10.961-4.757-6.013.193-10.555 4.732l-155.44 154.871q-6.061 6.064-14.094 9.48-8.033 3.416-17 3.416-15.615 0-27.038-11.423t-11.423-27.038q0-8.385 3.192-16.154 3.193-7.769 9.577-14.154l150.803-150.803q4.913-4.913 4.913-10.836t-4.948-10.872q-4.949-4.949-10.833-4.756-5.885.192-10.435 4.731L274.47-372.5q-5.444 5.437-13.488 8.853-8.044 3.417-17.636 3.417-16.576 0-27.499-10.86-10.923-10.86-10.923-27.017 0-8.303 3.32-16.2 3.321-7.898 9.449-14.026L406.589-617.23q9.129-9.128 21.93-8.589 12.801.538 21.762 9.41l84.562 84.562q11 11 24.68 17.076 13.679 6.077 30.448 6.077 30.462 0 51.205-19.82 20.744-19.82 20.744-52.128 0-14.126-5.526-27.876-5.526-13.75-17.756-26.098L496.179-777.075l22.591-23.001q15.077-14.462 34.923-22.385 19.846-7.923 39.692-7.923 22.923 0 43.384 7.923 20.462 7.923 36.154 23.615l170.154 170.77q15.307 15.307 23.23 35.384 7.923 20.077 7.923 45.615 0 20-8.23 39.154-8.231 19.153-22.923 33.845L508.154-138.539q-7.231 7.231-14.577 10-7.347 2.769-15.731 2.769ZM168.001-423l-47.231-47.231q-17-16.385-25.808-39.154-8.808-22.769-8.808-46 0-24.846 8.846-45.5T117.308-635l163.23-163.846q14.462-14.461 33.384-23 18.923-8.538 38.769-8.538 23.539 0 42.423 7.308 18.885 7.307 35.807 24.23l185.768 185.768q7.487 7.487 11.077 15.952 3.59 8.466 3.59 16.279 0 17.897-11.59 29.859-11.589 11.961-29.846 11.961-9 0-17.846-3.833t-16.667-11.91l-83.972-83.767q-18.056-17.718-44.01-17.718-25.955 0-43.63 17.718L168.001-423Z"/></svg>