<svg xmlns="http://www.w3.org/2000/svg" viewBox="0 -960 960 960" width="32" height="32"><path d="M340.26-630.77h279.48v-86.66q0-4.62-3.84-8.47-3.85-3.84-8.46-3.84H352.56q-4.61 0-8.46 3.84-3.84 3.85-3.84 8.47v86.66ZM131.28-180q-13.29 0-22.29-8.99-8.99-9-8.99-22.29v-168.98h147.69v24.62q0 10.68 7.27 17.9 7.26 7.23 18 7.23 10.73 0 17.86-7.23 7.13-7.22 7.13-17.9v-24.62h364.1v24.62q0 10.68 7.27 17.9 7.26 7.23 17.99 7.23 10.74 0 17.87-7.23 7.13-7.22 7.13-17.9v-24.62H860v168.98q0 13.29-8.99 22.29-9 8.99-22.29 8.99H131.28ZM100-425.39v-142.69q0-25.91 18.39-44.3 18.39-18.39 44.18-18.39H290v-86.66q0-25.79 18.39-44.18T352.56-780h254.88q25.78 0 44.17 18.39T670-717.43v86.66h127.43q25.79 0 44.18 18.39t18.39 44.3v142.69H712.31v-29.74q0-10.68-7.27-17.9-7.26-7.23-18-7.23-10.73 0-17.86 7.23-7.13 7.22-7.13 17.9v29.74h-364.1v-29.86q0-10.73-7.27-17.87-7.26-7.14-17.99-7.14-10.74 0-17.87 7.23-7.13 7.22-7.13 17.9v29.74H100Z"/></svg>