<svg xmlns="http://www.w3.org/2000/svg" height="40" viewBox="0 -960 960 960" width="40"><path d="M420-447.18q12.384 0 21.448-8.671t9.064-21.846q0-12.123-9.064-21.316-9.064-9.192-21.32-9.192-13.307 0-21.974 9.197-8.666 9.197-8.666 21.32 0 13.175 8.669 21.842 8.67 8.666 21.843 8.666Zm-120 0q12.384 0 21.448-8.671t9.064-21.846q0-12.123-9.064-21.316-9.064-9.192-21.32-9.192-13.307 0-21.974 9.197-8.666 9.197-8.666 21.32 0 13.175 8.669 21.842 8.67 8.666 21.843 8.666Zm240 0q12.384 0 21.448-8.671t9.064-21.846q0-12.123-9.064-21.316-9.064-9.192-21.32-9.192-13.307 0-21.974 9.197-8.666 9.197-8.666 21.32 0 13.175 8.669 21.842 8.67 8.666 21.843 8.666Zm120 0q12.384 0 21.448-8.671t9.064-21.846q0-12.123-9.064-21.316-9.064-9.192-21.32-9.192-13.307 0-21.974 9.197-8.666 9.197-8.666 21.32 0 13.175 8.669 21.842 8.67 8.666 21.843 8.666ZM300.001-215.13h-99.744q-58.769 0-99.512-40.743-40.744-40.743-40.744-99.512v-244.358q0-58.769 40.744-99.512 40.743-40.744 99.512-40.744h559.486q58.769 0 99.512 40.744 40.744 40.743 40.744 99.512v244.358q0 58.769-40.744 99.512-40.743 40.743-99.512 40.743h-99.744q0 12.795-8.863 21.654-8.862 8.859-21.65 8.859H330.514q-12.788 0-21.65-8.862-8.863-8.862-8.863-21.651Z"/></svg>