<svg xmlns="http://www.w3.org/2000/svg" height="40" viewBox="0 -960 960 960" width="40"><path d="M202.565-140.001q-25.788 0-44.176-18.388t-18.388-44.176v-554.87q0-25.788 18.388-44.176t44.176-18.388h554.87q25.788 0 44.176 18.388t18.388 44.176v554.87q0 25.788-18.388 44.176t-44.176 18.388h-554.87Zm96.822-148.513h364.97q9.487 0 13.705-8.487t-1.397-16.641l-98.768-131.972q-4.949-6.411-12.436-6.411t-12.436 6.411l-105.692 135.05-68.922-89.691q-4.949-6.026-12.372-6.026t-12.372 6.41l-66.05 86.229q-6.153 8.154-1.935 16.641 4.217 8.487 13.705 8.487Zm40.628-286.359q18.856 0 31.984-13.143t13.128-31.999q0-18.856-13.143-31.984t-31.999-13.128q-18.856 0-31.984 13.143t-13.128 31.999q0 18.856 13.143 31.984t31.999 13.128Z"/></svg>