<svg xmlns="http://www.w3.org/2000/svg" height="40" viewBox="0 -960 960 960" width="40"><path d="M202.565-140.001q-25.788 0-44.176-18.388t-18.388-44.176v-554.87q0-25.788 18.388-44.176t44.176-18.388h554.87q25.788 0 44.176 18.388t18.388 44.176v554.87q0 25.788-18.388 44.176t-44.176 18.388h-554.87Zm277.408-154.562q33.514 0 61.842-17.026 28.328-17.025 44.595-46.333 5.616-10.205 16.295-14.167 10.68-3.961 22.273-3.961h144.766v-381.385q0-5.385-3.462-8.847-3.462-3.462-8.847-3.462h-554.87q-5.385 0-8.847 3.462-3.462 3.462-3.462 8.847v381.385h144.949q11.41 0 22.09 3.961 10.679 3.962 16.295 14.167 16.254 29.308 44.562 46.333 28.308 17.026 61.821 17.026Z"/></svg>