<svg xmlns="http://www.w3.org/2000/svg" height="40" viewBox="0 -960 960 960" width="40"><path d="M785.283-103.591 596.948-291.31l-87.668 91.924q-8.615 9.41-20.141 14.397-11.525 4.988-24.704 4.988H206.743q-12.564 0-24.295-4.872-11.73-4.872-20.346-13.898l-50.101-51.588q-18.77-18.103-18.73-43.59.038-25.487 17.73-44.179l213.078-225.796-221.103-221.359q-7.436-7.435-7.628-17.807-.192-10.371 7.628-18.192 7.564-7.564 17.871-7.564 10.307 0 18.128 7.564l682.307 682.307q7.179 7.436 7.371 17.628.193 10.192-7.371 17.756-7.821 7.82-18.128 7.82t-17.871-7.82Zm47.458-461.178q.667 11.769-3.705 23.294-4.372 11.526-13.987 20.885L701.485-400.77q-8.718 8.974-21.076 9.179-12.359.205-21.077-8.769l-231.87-231.87q-8.359-8.103-8.667-20.257-.307-12.153 7.795-20.871l116.153-124.41q8.949-9.743 20.179-14.025 11.231-4.282 22.795-4.282 11.769 0 23.436 4.372 11.666 4.371 20.41 13.987L813.844-608.82q9.358 9 14.128 20.641 4.769 11.641 4.769 23.41Z"/></svg>