<svg xmlns="http://www.w3.org/2000/svg" height="40" viewBox="0 -960 960 960" width="40"><path d="M822.564-307.949q-19.948 0-33.82-13.744-13.871-13.743-13.871-33.691v-100q0-19.949 13.871-33.82 13.872-13.872 33.82-13.872 19.692 0 33.564 13.872 13.871 13.871 13.871 33.82v100q0 19.948-13.871 33.691-13.872 13.744-33.564 13.744ZM559.587-502.052q-56.435 0-95.781-39.474Q424.46-581 424.46-637.179q0-56.179 39.346-95.653 39.346-39.474 95.781-39.474 56.179 0 95.653 39.474 39.474 39.474 39.474 95.653 0 56.179-39.474 95.653-39.474 39.474-95.653 39.474ZM321.382-187.694q-24.717 0-42.102-17.385-17.384-17.384-17.384-42.102v-20.563q0-29.794 16.397-54.935 16.398-25.141 44.782-38.192 47.308-22.539 107.948-39.808 60.641-17.269 128.564-17.269 9.436 0 19.514 1.346 10.078 1.347 19.899 3.27 11.307.769 17.256 10.192t3.18 20.987q-5.641 23.436-4.346 47.281 1.295 23.846 7.987 46.41 4.923 15.615 12.064 30.409 7.14 14.795 17.14 28.308 9.436 13.538 2.782 27.794-6.654 14.257-21.808 14.257H321.382Zm501.182 25.386q-6.41 0-10.897-4.487t-4.487-10.897v-48.129q-44-6.615-75.59-36.423-31.589-29.807-38.384-73.807-.744-6.82 3.41-11.923t10.974-5.103q6.026 0 10.603 3.603 4.576 3.603 5.525 9.628 4.949 36.692 33.115 60.577 28.167 23.885 65.731 23.885 36.692 0 64.526-23.808 27.833-23.808 33.859-60.5 1.205-6.026 6.089-9.705 4.885-3.68 10.91-3.68 6.154 0 10.641 4.18 4.487 4.179 3.487 10.205-5.589 44.666-37.653 75.461t-76.731 37.41v48.129q0 6.41-4.487 10.897t-10.641 4.487ZM242.412-637.179q0-25.82 9.512-49.409 9.513-23.589 27.358-41.666 17.59-18.461 40.358-28.5 22.769-10.038 47.948-10.705 9.846-.718 14.166 7.923 4.321 8.64-1.448 17.589-13.538 21.743-19.82 48.14-6.282 26.398-6.282 56.628 0 30.025 6.474 56.641 6.474 26.615 19.628 48.512 5.154 8.564 1.141 17.012-4.013 8.449-13.192 8.526-25.436-.667-48.41-10.462-22.973-9.795-40.563-28.923-17.845-18.487-27.358-41.986-9.512-23.5-9.512-49.32Zm-183.95 398.46v-29.025q0-28.948 14.321-51.845 14.32-22.897 43.013-39.795 18.666-10.666 43.832-19.127 25.166-8.462 55.985-14.179 10.18-3.308 16.539 6.769 6.359 10.076-2.282 19.897-20.282 21.128-29.256 45.973-8.974 24.846-8.974 52.307v29.025q0 6.051.923 11.859.923 5.807 2.358 11.858 2.052 10.308-3.923 18.808-5.974 8.5-16.333 8.5h-65.178q-21.256 0-36.14-14.885-14.884-14.884-14.884-36.14Z"/></svg>