<svg xmlns="http://www.w3.org/2000/svg" height="40" viewBox="0 -960 960 960" width="40"><path d="M480-140.001q-124.256 0-212.127-85.705-87.872-85.705-87.872-209.038 0-62.794 23.654-115.255 23.654-52.462 64.192-94.154l179.256-175.871q7.154-6.949 15.846-10.256 8.692-3.308 17.051-3.308 8.359 0 17.051 3.308 8.692 3.307 15.846 10.256l179.256 175.871q40.538 41.692 64.192 94.731 23.654 53.038 23.654 114.678 0 122.923-87.538 208.833-87.539 85.91-212.461 85.91Zm0-50.255v-591.283l-177.846 175.18q-35.41 34.487-53.654 77.564-18.244 43.077-18.244 94.051 0 101.616 73.18 173.052Q376.615-190.256 480-190.256Z"/></svg>