<svg xmlns="http://www.w3.org/2000/svg" viewBox="0 -960 960 960" width="32" height="32"><path d="M173.98-335.54q-10.85 0-18.18-7.4-7.34-7.41-7.34-17.97v-14.3q0-4.97 1.7-9.6 1.69-4.63 5.74-8.42l64.1-62.62v-313.89h-19.74q-10.68 0-17.91-7.27-7.22-7.26-7.22-18 0-10.73 7.22-17.86 7.23-7.13 17.91-7.13h212.15q16.02 0 22.98 14.35 6.97 14.34-2.75 27.8-18.74 30.47-28.51 63.7-9.77 33.23-9.77 68.87 0 73.03 38.47 133.22 38.48 60.19 102.81 90.57 13.31 5.23 22.42 15.81 9.12 10.57 9.12 24.65v16.51q0 12.23-8.3 20.61-8.29 8.37-20.42 8.37H385.13v216.36q0 10.68-7.27 17.9-7.26 7.23-17.99 7.23-10.74 0-17.87-7.23-7.13-7.22-7.13-17.9v-216.36H173.98ZM646.23-820q72.5 0 123.34 50.91 50.84 50.9 50.84 123.68 0 72.22-50.83 123-50.83 50.77-123.33 50.77-72.51 0-123.22-50.77-50.72-50.78-50.72-123 0-72.78 50.71-123.68Q573.73-820 646.23-820Zm.07 174.05q26.49 0 44.97-18.5 18.47-18.5 18.47-44.94 0-26.43-18.48-44.67-18.49-18.25-44.9-18.25t-44.69 18.42q-18.29 18.42-18.29 44.73 0 26.31 18.35 44.76t44.57 18.45Zm.05 126.36q27.29 0 51.87-11.17 24.57-11.16 42.65-31.57 3.95-4.79 2.37-10.78-1.57-5.99-7.19-9.2-21.26-10.2-43.64-15.84-22.38-5.64-45.91-5.64-23.53 0-45.94 5.64-22.41 5.64-43.89 15.84-5.62 2.59-7.2 8.81-1.57 6.22 2.38 11.17 18.07 20.41 42.64 31.57 24.56 11.17 51.86 11.17Z"/></svg>