<svg xmlns="http://www.w3.org/2000/svg" height="40" viewBox="0 -960 960 960" width="40"><path d="M165.129-140.001q-10.679 0-17.903-7.263-7.225-7.263-7.225-18 0-10.736 7.225-17.864 7.224-7.128 17.903-7.128h49.744q10.679 0 17.903 7.263Q240-175.73 240-164.994q0 10.737-7.224 17.865-7.224 7.128-17.903 7.128h-49.744Zm0-157.564q-10.679 0-17.903-7.262-7.225-7.262-7.225-17.996 0-10.485 7.225-17.741 7.224-7.256 17.903-7.256h244.282q10.679 0 17.903 7.387 7.224 7.386 7.224 17.999t-7.224 17.741q-7.224 7.128-17.903 7.128H165.129Zm0-157.308q-10.679 0-17.903-7.262-7.225-7.263-7.225-18 0-10.736 7.225-17.864 7.224-7.128 17.903-7.128h629.742q10.679 0 17.903 7.262 7.225 7.263 7.225 18 0 10.736-7.225 17.864-7.224 7.128-17.903 7.128H165.129Zm0-157.563q-10.679 0-17.903-7.262-7.225-7.262-7.225-17.996 0-10.485 7.225-17.741 7.224-7.256 17.903-7.256h244.282q10.679 0 17.903 7.386 7.224 7.387 7.224 18t-7.224 17.741q-7.224 7.128-17.903 7.128H165.129Zm0-157.308q-10.679 0-17.903-7.263-7.225-7.263-7.225-17.999 0-10.737 7.225-17.865 7.224-7.128 17.903-7.128h49.744q10.679 0 17.903 7.263 7.224 7.263 7.224 18 0 10.736-7.224 17.864t-17.903 7.128h-49.744Zm194.538 629.743q-10.679 0-17.903-7.263-7.225-7.263-7.225-18 0-10.736 7.225-17.864 7.224-7.128 17.903-7.128h49.744q10.679 0 17.903 7.263 7.224 7.263 7.224 17.999 0 10.737-7.224 17.865-7.224 7.128-17.903 7.128h-49.744Zm-1.077-629.743q-10.679 0-17.903-7.263-7.224-7.263-7.224-17.999 0-10.737 7.224-17.865 7.224-7.128 17.903-7.128h49.744q10.679 0 17.903 7.263 7.224 7.263 7.224 18 0 10.736-7.224 17.864t-17.903 7.128H358.59Zm194.564 629.743q-10.68 0-17.904-7.263t-7.224-18q0-10.736 7.224-17.864t17.904-7.128h47.179q10.679 0 17.903 7.263 7.225 7.263 7.225 17.999 0 10.737-7.225 17.865-7.224 7.128-17.903 7.128h-47.179Zm-1.488-157.564q-10.679 0-17.903-7.262-7.224-7.262-7.224-17.996 0-10.485 7.224-17.741t17.903-7.256h243.205q10.679 0 17.903 7.387 7.225 7.386 7.225 17.999t-7.225 17.741q-7.224 7.128-17.903 7.128H551.666Zm0-314.871q-10.679 0-17.903-7.262-7.224-7.262-7.224-17.996 0-10.485 7.224-17.741t17.903-7.256h243.205q10.679 0 17.903 7.386 7.225 7.387 7.225 18t-7.225 17.741q-7.224 7.128-17.903 7.128H551.666Zm0-157.308q-10.679 0-17.903-7.263-7.224-7.263-7.224-17.999 0-10.737 7.224-17.865 7.224-7.128 17.903-7.128h49.744q10.679 0 17.903 7.263 7.224 7.263 7.224 18 0 10.736-7.224 17.864t-17.903 7.128h-49.744Zm193.461 629.743q-10.679 0-17.903-7.263-7.224-7.263-7.224-18 0-10.736 7.224-17.864t17.903-7.128h49.744q10.679 0 17.903 7.263 7.225 7.263 7.225 17.999 0 10.737-7.225 17.865-7.224 7.128-17.903 7.128h-49.744Zm0-629.743q-10.679 0-17.903-7.263Q720-784.27 720-795.006q0-10.737 7.224-17.865 7.224-7.128 17.903-7.128h49.744q10.679 0 17.903 7.263 7.225 7.263 7.225 18 0 10.736-7.225 17.864-7.224 7.128-17.903 7.128h-49.744Z"/></svg>