<svg xmlns="http://www.w3.org/2000/svg" height="40" viewBox="0 -960 960 960" width="40"><path d="M355.128-494.873h249.744q10.846 0 17.986-7.146 7.141-7.145 7.141-17.999 0-10.853-7.141-17.981-7.14-7.128-17.986-7.128H355.128q-10.846 0-17.986 7.146-7.141 7.145-7.141 17.999 0 10.853 7.141 17.981 7.14 7.128 17.986 7.128Zm0-160h249.744q10.846 0 17.986-7.146 7.141-7.145 7.141-17.999 0-10.853-7.141-17.981-7.14-7.128-17.986-7.128H355.128q-10.846 0-17.986 7.146-7.141 7.145-7.141 17.999 0 10.853 7.141 17.981 7.14 7.128 17.986 7.128Zm422.101 511.359L623.966-342.801q-15.274-19.916-37.039-31.121-21.764-11.205-46.927-11.205H180.001v-412.308q0-25.788 18.388-44.176t44.176-18.388h474.87q25.788 0 44.176 18.388t18.388 44.176v634.87q0 5.018-.693 9.8-.692 4.783-2.077 9.251Zm-534.664 43.513q-25.788 0-44.176-18.388t-18.388-44.176v-172.308H540q13.285 0 24.777 6.057t19.711 16.687L742-106.438q-5.488 3.129-11.545 4.783-6.058 1.654-13.02 1.654h-474.87Z"/></svg>