<svg xmlns="http://www.w3.org/2000/svg" viewBox="0 -960 960 960" width="32" height="32"><path d="M100-244.1v-502.56q0-25.61 18.48-44.09 18.48-18.48 44.09-18.48h634.86q25.61 0 44.09 18.48Q860-772.27 860-746.66v502.56h54.87q10.68 0 17.9 7.26 7.23 7.26 7.23 18t-7.23 17.86q-7.22 7.13-17.9 7.13H45.13q-10.68 0-17.9-7.26-7.23-7.26-7.23-18t7.23-17.87q7.22-7.12 17.9-7.12H100Zm315.93 0h129.22q7.21 0 12.52-5.27 5.3-5.27 5.3-12.96 0-7.7-5.3-12.97-5.31-5.26-12.52-5.26H415.93q-7.21 0-12.52 5.26-5.31 5.27-5.31 12.97 0 7.69 5.31 12.96 5.31 5.27 12.52 5.27Z"/></svg>