<svg xmlns="http://www.w3.org/2000/svg" height="40" viewBox="0 -960 960 960" width="40"><path d="M180.001-171.283v-586.152q0-25.788 18.388-44.176t44.176-18.388h229.588q25.788 0 44.176 18.388 18.387 18.388 18.387 44.176v263.793h50.513q23.628 0 40.66 17.032 17.032 17.032 17.032 40.66v200.51q0 21.761 15.321 36.651 15.32 14.891 37.192 14.891t37.193-14.942q15.321-14.942 15.321-36.494v-283.692q-10.077 5.795-21.08 8.615-11.002 2.821-22.305 2.821-35.581 0-60.149-24.568-24.568-24.568-24.568-60.149 0-29.435 17.128-52.423 17.128-22.987 45.384-29.679l-80.154-80.155q-6.41-6.167-6.603-14.968-.192-8.8 6.716-15.708 6.476-6.733 15.066-6.502 8.59.23 15.384 6.82l129.898 129.539q12.794 12.794 20.448 28.832t7.654 34.244v356.973q0 40.039-27.581 67.686-27.58 27.647-67.525 27.647-39.945 0-67.752-27.647-27.808-27.647-27.808-67.686v-203.179q0-5.129-3.461-8.719-3.462-3.59-8.847-3.59h-53.077v279.539q0 13.295-9.074 22.288-9.075 8.994-22.054 8.994H211.122q-13.23 0-22.175-8.994-8.946-8.993-8.946-22.288Zm50.255-374.921h254.206v-211.231q0-4.616-3.847-8.462-3.846-3.847-8.462-3.847H242.565q-4.616 0-8.462 3.847-3.847 3.846-3.847 8.462v211.231Zm474.356-4.206q17.361 0 29.605-12.293 12.243-12.293 12.243-29.654 0-17.36-12.293-29.604t-29.654-12.244q-17.36 0-29.604 12.294-12.244 12.293-12.244 29.653 0 17.361 12.293 29.605 12.294 12.243 29.654 12.243Z"/></svg>