<svg xmlns="http://www.w3.org/2000/svg" height="40" viewBox="0 -960 960 960" width="40"><path d="m480-439.744 71.614 54.691q4.949 3.795 9.629.423 4.679-3.371 2.935-8.782l-29.204-89.511 77.153-57.102q4.743-3.41 2.679-8.795-2.064-5.385-7.218-5.385h-91.947l-28.282-89.793q-1.744-5.411-7.359-5.411t-7.359 5.411l-28.282 89.793h-91.947q-5.154 0-7.321 5.385-2.166 5.385 2.577 8.795l75.358 57.102-29.615 90.486q-2 5.41 2.68 8.987 4.679 3.577 9.628-.218L480-439.744Zm0 334.589q-5.41 0-10.538-1-5.129-1-10.334-3-128.691-45.821-203.909-160.526-75.218-114.704-75.218-249.704v-183.537q0-19.718 11.462-35.885 11.461-16.166 29.179-23.32l237.435-88.384q11.359-4.205 21.923-4.205 10.564 0 21.923 4.205l237.435 88.384q17.718 7.154 29.179 23.32 11.462 16.167 11.462 35.885v183.537q0 135-75.218 249.704-75.218 114.705-203.909 160.526-5.205 2-10.334 3-5.128 1-10.538 1Z"/></svg>