<svg xmlns="http://www.w3.org/2000/svg" viewBox="0 -960 960 960" width="32" height="32"><path d="M202.57-100q-25.79 0-44.18-18.39T140-162.57v-479.74q0-25.79 18.39-44.17 18.39-18.39 44.18-18.39h102.3q0-73.03 49.9-124.08T477.56-880q72.9 0 125.23 51.07 52.34 51.06 52.34 124.06h102.3q25.79 0 44.18 18.39Q820-668.1 820-642.31v479.74q0 25.79-18.39 44.18T757.43-100H202.57Zm152.56-604.87h249.74q0-52.31-36.28-88.59T480-829.74q-52.31 0-88.59 36.28t-36.28 88.59Zm124.74 270.25q67.25 0 121.34-47.2 54.1-47.21 53.89-106.74 0-9.67-7.23-16.71-7.23-7.04-18.07-7.04-9.15 0-16.27 6.53-7.12 6.52-9.09 16.81-8.29 45.15-43.7 74.62-35.41 29.48-80.82 29.48T399-514.35q-35.51-29.47-43.59-74.62-1.97-10.24-9.3-16.79-7.33-6.55-16.29-6.55-10.2 0-17.66 7.04-7.47 7.04-7.47 16.71 0 59.53 53.63 106.74 53.63 47.2 121.55 47.2Z"/></svg>