<svg xmlns="http://www.w3.org/2000/svg" height="40" viewBox="0 -960 960 960" width="40"><path d="M242.565-100.001q-25.609 0-44.086-18.478-18.478-18.477-18.478-44.086v-634.87q0-25.609 18.478-44.086 18.477-18.478 44.086-18.478h474.87q25.609 0 44.086 18.478 18.478 18.477 18.478 44.086v634.87q0 25.609-18.478 44.086-18.477 18.478-44.086 18.478h-474.87ZM480-214.975q75.468 0 128.554-53.087 53.086-53.086 53.086-128.553 0-75.468-53.086-128.554T480-578.255q-75.468 0-128.554 53.086T298.36-396.615q0 75.467 53.086 128.553Q404.532-214.975 480-214.975Zm0-60.461q-24.3 0-47.164-8.82-22.863-8.821-40.118-26.206l173.026-173.025q17.794 16.718 26.615 39.645 8.82 22.927 8.82 47.227 0 50.427-35.376 85.803T480-275.436ZM312.271-693.539q14.985 0 24.998-10.258 10.013-10.258 10.013-24.987 0-14.985-10.13-24.998-10.13-10.013-25.115-10.013-14.729 0-24.87 10.13-10.141 10.13-10.141 25.115 0 14.729 10.258 24.87 10.258 10.141 24.987 10.141Zm126.769 0q14.986 0 24.998-10.258 10.013-10.258 10.013-24.987 0-14.985-10.13-24.998-10.129-10.013-25.115-10.013-14.729 0-24.87 10.13-10.141 10.13-10.141 25.115 0 14.729 10.258 24.87 10.258 10.141 24.987 10.141Z"/></svg>