<svg xmlns="http://www.w3.org/2000/svg" height="40" viewBox="0 -960 960 960" width="40"><path d="M355.128-617.024h249.744v-86.359q0-52.65-36.394-89.504-36.394-36.855-88.384-36.855-51.991 0-88.479 36.855-36.487 36.854-36.487 89.504v86.359ZM242.565-100.001q-25.609 0-44.086-18.478-18.478-18.477-18.478-44.086v-391.896q0-25.807 18.478-44.185 18.477-18.378 44.086-18.378h62.308v-86.359q0-73.518 51.139-125.066t124.076-51.548q72.937 0 123.988 51.548t51.051 125.066v86.359h62.308q25.609 0 44.086 18.378 18.478 18.378 18.478 44.185v31.975q0 13.379-10.257 22.035-10.256 8.657-23.769 7.093-5.663-.615-11.963-.513-6.3.103-12.344.103-100.974 2.154-170.55 73.961Q481.539-348 481.539-247.283q0 29.203 6.808 56.947 6.808 27.745 19.731 53.284 6.436 12.512-.359 24.781-6.795 12.27-20.359 12.27H242.565ZM728.41-70.669q-73.025 0-124.82-51.794-51.794-51.795-51.794-124.691 0-72.897 51.794-124.82 51.795-51.923 124.82-51.923 73.025 0 124.819 51.913 51.795 51.914 51.795 124.701 0 73.025-51.795 124.82-51.794 51.794-124.819 51.794Zm16.205-180.708v-98.168q0-7.532-5.253-12.968t-12.923-5.436q-7.67 0-12.978 5.436-5.307 5.436-5.307 12.972v97.387q0 6.032 2.538 11.96 2.538 5.928 7.487 10.578l68.231 65.256q4.634 4.821 11.765 4.68 7.132-.141 12.081-5.145 5.615-5.67 5.282-12.589-.334-6.92-5.786-11.822l-65.137-62.141Z"/></svg>