<svg xmlns="http://www.w3.org/2000/svg" height="40" viewBox="0 -960 960 960" width="40"><path d="M760.045-710.358q-43.916 0-74.544-30.583t-30.628-74.499q0-43.917 30.582-74.545 30.583-30.628 74.5-30.628 43.916 0 74.544 30.582 30.628 30.583 30.628 74.5t-30.582 74.545q-30.583 30.628-74.5 30.628ZM241.539-260.001l-88.333 88.332q-14.769 14.769-33.987 6.85-19.218-7.919-19.218-28.978v-603.638q0-25.846 18.359-44.205 18.359-18.359 44.205-18.359H547.95q12.683 0 20.905 9.577 8.223 9.577 6.428 22.423-2.308 42.385 13.051 80.231t44.512 65.717q24.974 24.052 57.628 37.872 32.654 13.821 69.526 13.821 16.859 0 32.307-3.061t30.436-9.477q13.692-4.667 25.474 2.602t11.782 20.99v296.728q0 25.857-18.359 44.216t-44.205 18.359H241.539Z"/></svg>