<svg xmlns="http://www.w3.org/2000/svg" height="40" viewBox="0 -960 960 960" width="40"><path d="M759.985-639.487q-43.856 0-74.484-30.643-30.628-30.643-30.628-74.499 0-43.857 30.643-74.485t74.499-30.628q43.856 0 74.484 30.643 30.628 30.643 30.628 74.5 0 43.856-30.643 74.484-30.643 30.628-74.499 30.628Zm-597.42 459.486q-25.788 0-44.176-18.388t-18.388-44.176v-474.87q0-25.788 18.388-44.176t44.176-18.388h383.949q12.76 0 21.059 9.137 8.3 9.136 7.3 21.857 0 5.211.205 9.698t.769 9.563q2.82 32.718 16.115 61.513 13.294 28.795 35.064 51L480-521.077 185.461-712.642q-9.82-6.435-20.397-1.426-10.577 5.009-11.73 16.848-1.539 5.885 1.089 11.667t7.987 9.192l300.693 196.693Q471-474.463 480-474.463q9 0 17.154-5.205l166.768-109.076q20.709 14.052 44.97 21.654 24.261 7.603 51.236 7.603 16.59 0 32.08-3.076 15.49-3.076 30.535-9.462 13.692-4.667 25.474 2.603 11.782 7.269 11.782 20.576v306.281q0 25.788-18.388 44.176t-44.176 18.388h-634.87Z"/></svg>