<svg xmlns="http://www.w3.org/2000/svg" height="40" viewBox="0 -960 960 960" width="40"><path d="M245.128-386.104 208.513-281.18q-2.154 6.538-7.885 10.577-5.73 4.038-12.935 4.038-12.051 0-18.423-9.525-6.372-9.526-1.987-20.5l138.769-380.025q2.821-6.949 8.641-10.757 5.82-3.807 12.769-3.807h16.999q7.205 0 13.128 3.807 5.923 3.808 8.487 10.757l140.59 379.846q4.384 11.23-2.616 20.717-6.999 9.487-18.589 9.487-7.461 0-13.448-4t-8.141-11.205l-36.667-104.334H245.128Zm15-40.409h152.257l-75.359-212.642h-2.154l-74.744 212.642ZM655.794-256.95q-48.692 0-78.884-26.115t-30.192-67.371q0-44.718 34.333-71.68 34.333-26.961 89.051-26.961 23.718 0 46.051 4.526 22.334 4.525 38.718 12.064v-20.488q0-38.462-20.115-58.898t-58.603-20.436q-16.846 0-33.269 5.218t-30.269 15.039q-7.616 5.794-14.795 3.384-7.179-2.41-11.564-8.59-4.641-6.179-3.512-13.845 1.128-7.667 9.128-13.051 19.102-12.59 40.564-18.577 21.461-5.987 43.922-5.987 59.59 0 89.359 30.218 29.769 30.217 29.769 90.653v161.026q0 8.41-5.898 14.333-5.897 5.923-14.307 5.923t-14.205-5.897q-5.795-5.897-5.795-14.308v-21.282h-4q-16.615 25.897-41.73 38.5-25.116 12.602-53.757 12.602Zm1.692-35.64q38.488 0 68.244-29.667 29.757-29.667 29.757-74.334-15.334-8-36.821-12.833t-42.333-4.833q-40.719 0-64.052 16.654-23.334 16.654-23.334 47.167 0 25.282 19.449 41.564t49.09 16.282Z"/></svg>