<svg xmlns="http://www.w3.org/2000/svg" height="40" viewBox="0 -960 960 960" width="40"><path d="M200.514-676.717q-12.282-14-17.551-31.154-5.269-17.153-5.269-35.461 0-44.7 31.287-76.068 31.288-31.367 75.692-31.367 44.661 0 75.865 31.367 31.205 31.368 31.205 76.068 0 18.308-5.269 35.461-5.269 17.154-17.294 31.154H200.514ZM401.99-109.233q-59.409 0-101.648-41.984-42.238-41.983-42.238-101.861h-4.333q-11.77 0-20.811-8.208-9.042-8.209-10.471-19.869l-31.282-319.127q-2-13.781 7.75-24.006 9.75-10.224 23.532-10.224h124.716q13.782 0 23.403 10.224 9.622 10.225 7.879 24.006l-31.539 319.127q-1.173 11.66-10.343 19.869-9.17 8.208-20.939 8.208h-7.307q0 38.667 27.45 66.129 27.45 27.461 66.052 27.461 38.601 0 65.806-27.476 27.206-27.476 27.206-66.114v-454.1q0-59.622 41.971-101.605 41.972-41.984 101.833-41.984 59.604 0 101.617 41.984 42.012 41.983 42.012 101.605v572.818q0 10.685-7.258 17.906-7.259 7.221-17.999 7.221-10.742 0-17.87-7.221-7.127-7.221-7.127-17.906v-572.818q0-38.382-27.451-65.858-27.45-27.476-65.795-27.476-38.601 0-66.14 27.476t-27.539 65.858v454.1q0 59.878-42.13 101.861-42.13 41.984-101.007 41.984Z"/></svg>