<svg xmlns="http://www.w3.org/2000/svg" height="40" viewBox="0 -960 960 960" width="40"><path d="M480.135-414.873q10.736 0 17.864-7.224T505.127-440v-200q0-10.679-7.262-17.903-7.263-7.224-18-7.224-10.736 0-17.864 7.224T454.873-640v200q0 10.679 7.262 17.903 7.263 7.224 18 7.224Zm120-60q10.736 0 17.864-7.224T625.127-500v-100q0-10.679-7.262-17.903-7.263-7.224-18-7.224-10.736 0-17.864 7.224T574.873-600v100q0 10.679 7.262 17.903 7.263 7.224 18 7.224Zm-240-20q10.736 0 17.864-7.224T385.127-520v-80q0-10.679-7.262-17.903-7.263-7.224-18-7.224-10.736 0-17.864 7.224T334.873-600v80q0 10.679 7.262 17.903 7.263 7.224 18 7.224Zm-75.006 394.872q-10.679 0-17.903-7.225-7.225-7.224-7.225-17.903v-136.102q-57-52-88.5-119.193-31.5-67.192-31.5-139.854 0-141.55 99.167-240.635Q338.334-859.999 480-859.999q116.538 0 208.422 69.654t119.346 180.73l48.223 190.942q3.828 14.8-5.403 26.736t-25 11.936h-85.589v137.436q0 25.609-18.478 44.086-18.477 18.478-44.086 18.478h-97.436v54.872q0 10.679-7.225 17.903-7.224 7.225-17.903 7.225H285.129Z"/></svg>