<svg xmlns="http://www.w3.org/2000/svg" height="40" viewBox="0 -960 960 960" width="40"><path d="M140.052-107.949h118.667v-94.872q0-10.679 7.263-17.903 7.263-7.225 17.999-7.225 10.737 0 17.865 7.225 7.128 7.224 7.128 17.903v94.872h145.899v-94.872q0-10.679 7.262-17.903 7.263-7.225 18-7.225 10.736 0 17.864 7.225 7.128 7.224 7.128 17.903v94.872h145.899v-94.872q0-10.679 7.263-17.903 7.263-7.225 18-7.225 10.736 0 17.864 7.225 7.128 7.224 7.128 17.903v94.872h118.667q6.154 0 9.872-4.808 3.719-4.808 2.052-10.577l-49.488-184.103H177.616l-49.488 184.103q-1.667 5.769 2.052 10.577 3.718 4.808 9.872 4.808Zm670.255 50.255H149.693q-34 0-55.307-27.153-21.308-27.154-12.077-60.538l55.385-205.768V-440q0-29.154 20.422-49.576 20.423-20.423 49.577-20.423h166.154v-286.155q0-44.23 30.961-75.191Q435.77-902.306 480-902.306q44.23 0 75.192 30.961 30.961 30.961 30.961 75.191v286.155h166.154q29.154 0 49.577 20.423 20.422 20.422 20.422 49.576v88.847l55.385 206.537q9.59 33-11.692 59.961t-55.692 26.961Z"/></svg>