<svg xmlns="http://www.w3.org/2000/svg" height="40" viewBox="0 -960 960 960" width="40"><path d="m291.001-462.537 40.59-82.359q8.154-16.385 23.089-25.744 14.936-9.359 32.654-9.359h67.539v-248.718q0-13.564 8.858-22.423 8.859-8.859 22.423-8.859h184.973q8.359 0 12.91 7.385 4.552 7.385.603 15.538l-18.128 35.051q-1.744 3.154-1.744 7.154t1.744 7.154l18.128 35.05q3.949 8.154-.603 15.539-4.551 7.384-12.91 7.384h-166v149.745h64.129q17.718 0 32.782 9.359 15.064 9.359 23.423 25.128l41.128 84.36-108.82 72.64L480-428.563l-78.18 39.384-110.819-73.358Zm-78.077 362.536q-34.435 0-52.986-29.577-18.551-29.577-2.782-61.115l111.948-226.845 129.076 86.05L480-371.437l81.82 40.616 128.127-84.717 112.949 224.896q15.512 31.282-2.834 60.961-18.346 29.68-53.576 29.68H212.924Z"/></svg>