<svg xmlns="http://www.w3.org/2000/svg" viewBox="0 -960 960 960" width="32" height="32"><path d="m162.57-780 51.61 104.72q7.41 14.41 20.95 22.95t29.36 8.54q31.07 0 47.48-26.45 16.41-26.45 2.67-54.53L287.44-780h84.46l51.61 104.72q7.41 14.41 20.95 22.95t29.36 8.54q31.08 0 47.49-26.45 16.41-26.45 2.41-54.53L496.77-780h84.21l51.61 104.72q7.41 14.41 20.95 22.95t29.61 8.54q31.08 0 47.49-26.45 16.41-26.45 2.41-54.53L705.85-780h91.58q25.85 0 44.21 18.36T860-717.43v474.86q0 25.85-18.36 44.21T797.43-180H162.57q-25.85 0-44.21-18.36T100-242.57v-474.86q0-25.85 18.36-44.21T162.57-780Z"/></svg>