<svg xmlns="http://www.w3.org/2000/svg" height="40" viewBox="0 -960 960 960" width="40"><path d="M492.565-194.744h50.255v102.82h-50.255v-102.82Zm155.511-67.948 72.153 72.153-34.999 34.999-72.153-72.153 34.999-34.999ZM30.002-948.076H95.13q27.256 0 46.191 18.936 18.936 18.935 18.936 46.191v96.951q26.666-52.616 77.153-84.782 50.487-32.167 112.974-32.167h199.871q25.872 0 44.218 18.346 18.346 18.346 18.346 44.217v200.744l-70.41-69.538q-37.436-37.436-86.384-59.192-48.949-21.756-102.846-21.756-56.897 0-106.961 22.551t-85.961 60.859v78.82q27.359-51.026 78.923-83.038 51.564-32.013 113.999-32.013 44.154 0 84.384 17.859 40.231 17.859 71.795 49.166l137.076 137.333q17.974 17.718 17.974 43.794 0 26.077-17.974 44.051L423.23-227.489q-17.974 17.718-44.051 17.718-26.076 0-43.794-17.718L198.052-364.027q-11.256-11.256-20.82-23.705-9.565-12.449-16.975-26.5v91.283q0 27-18.936 46.064-18.935 19.064-46.191 19.064H30.002v-690.255Zm651.023 564.872h102.82v50.255h-102.82v-50.255Z"/></svg>