<svg xmlns="http://www.w3.org/2000/svg" height="40" viewBox="0 -960 960 960" width="40"><path d="M352.744-345.82q26.71-20.503 59.296-31.893t67.93-11.39q35.343 0 68.009 11.417t59.277 31.866l250.283-250.283q-82.462-63.205-177.27-98.423Q585.462-729.744 480-729.744t-200.269 35.218q-94.808 35.218-177.269 98.423L352.744-345.82Zm91.539 161.383L68.847-559.616q-7.82-7.903-11.538-17.556-3.718-9.653-3.718-19.306 0-11.086 4.718-21.253 4.718-10.166 14.154-18.037 87.615-70.231 191.294-107.231 103.679-37 216.243-37t216.243 37q103.679 37 191.294 107.231 9.436 7.844 14.154 17.975 4.718 10.132 4.718 21.244 0 9.805-3.718 19.411-3.718 9.606-11.538 17.522l-375.18 375.179q-7.82 7.82-17.076 11.333T480-169.591q-9.641 0-18.897-3.513-9.256-3.513-16.82-11.333Z"/></svg>