<svg xmlns="http://www.w3.org/2000/svg" viewBox="0 -960 960 960" width="32" height="32"><path d="M202.57-140q-25.79 0-44.18-18.39T140-202.57v-554.86q0-25.79 18.39-44.18T202.57-820h403.92q13.03 0 24.65 5.08 11.63 5.08 19.99 13.43l150.36 150.36q8.35 8.36 13.43 19.99 5.08 11.62 5.08 24.65v403.92q0 25.79-18.39 44.18T757.43-140H202.57Zm401.89-629.74v134q0 13.29 9 22.28 8.99 9 22.28 9h134L604.46-769.74Zm40.82 464.46q10.68 0 17.91-7.27 7.22-7.26 7.22-18 0-10.73-7.22-17.86-7.23-7.13-17.91-7.13H314.72q-10.68 0-17.91 7.26-7.22 7.27-7.22 18 0 10.74 7.22 17.87 7.23 7.13 17.91 7.13h330.56ZM454.87-604.46q10.68 0 17.91-7.26 7.22-7.27 7.22-18 0-10.74-7.22-17.87-7.23-7.13-17.91-7.13H314.72q-10.68 0-17.91 7.27-7.22 7.26-7.22 18 0 10.73 7.22 17.86 7.23 7.13 17.91 7.13h140.15Zm190.41 149.59q10.68 0 17.91-7.27 7.22-7.26 7.22-17.99 0-10.74-7.22-17.87-7.23-7.13-17.91-7.13H314.72q-10.68 0-17.91 7.27-7.22 7.26-7.22 17.99 0 10.74 7.22 17.87 7.23 7.13 17.91 7.13h330.56Z"/></svg>