<svg xmlns="http://www.w3.org/2000/svg" height="40" viewBox="0 -960 960 960" width="40"><path d="M760.281-299.973q-8.359 3.153-17.244 2.051-8.884-1.103-16.243-8.462L469.358-563.82q-7.359-7.358-8.462-16.243-1.102-8.885 2.052-17.243 3.41-8.359 10.692-14.039 7.282-5.679 17.589-5.679h113.643v-87.436q0-51.898-37.308-88.59t-90.795-36.692q-44.846 0-77.949 26.18t-42.975 69.411q-3.205 10.871-11.435 16.82t-17.82 4.026q-11.538-2.179-17.589-10.82-6.051-8.641-3.462-18.897 11.666-60.077 59.576-98.526 47.911-38.449 111.654-38.449 74.23 0 126.294 51.448 52.064 51.448 52.064 124.089v87.436h62.308q26.256 0 44.41 18.154 18.154 18.153 18.154 44.409v226.206q0 10.308-5.808 17.59-5.808 7.281-13.91 10.692ZM242.565-100.001q-26.256 0-44.41-18.154-18.154-18.154-18.154-44.41v-391.896q0-23.025 15.077-40.474 15.077-17.448 37.641-20.756L25.128-823.283q-7.231-7.23-7.09-17.499.141-10.269 7.756-17.884 7.36-7.615 17.564-7.615 10.205 0 17.563 7.615L860.974-58.614q7.23 7.23 7.218 17.5-.013 10.269-7.628 17.884-7.616 7.615-17.692 7.615-10.077 0-17.692-7.615l-81.899-82.156q-7.513 3-15.205 4.192-7.693 1.193-18.334 1.193H242.565Zm191.307-314.281q-9.846 9.847-14.871 22.077-5.026 12.231-5.026 26.513 0 28.743 19.474 48.012 19.474 19.269 47.961 19.269 14.282 0 26.436-4.82 12.154-4.821 21.743-14.667l-95.717-96.384Z"/></svg>