<svg xmlns="http://www.w3.org/2000/svg" height="40" viewBox="0 -960 960 960" width="40"><path d="M769.258-290.001H606.769q-10.871 0-17.999-7.128-7.128-7.128-7.128-17.999 0-10.872 7.128-18t17.999-7.128h162.489l-60.129-61.565q-6.821-7.231-6.962-17.397-.141-10.166 7.295-17.602 7.231-7.231 17.5-7.231 10.268 0 17.499 7.231l99.384 99.769q4.744 4.744 7.077 10.128 2.334 5.385 2.334 11.795t-2.334 11.795q-2.333 5.384-7.077 10.128l-99.769 99.769q-7.23 7.23-17.397 7.14-10.166-.089-17.602-7.525-7.23-7.231-7.025-17.307.205-10.077 7.025-17.307l60.181-61.566ZM416-538.257l283.744-188.361q0-1.154-.577-9.525-.577-8.372-1.538-17.679-.962-9.308-1.923-17.423-.962-8.115-2.116-8.499h-1.282L416-599.23 147.487-779.744h-1.077q-1.154.384-2.116 8.576-.961 8.192-1.923 18.346-.961 10.153-1.538 18.832-.577 8.68-.577 10.09L416-538.257ZM152.052-290.001q-25.975 0-44.013-18.038-18.038-18.038-18.038-44.013v-416.153q0-25.718 18.038-43.756t44.013-18.038h536.153q25.718 0 43.756 18.038t18.038 43.756v197.18q0 11.359-8.295 18.705-8.294 7.346-19.397 7.398-46.564-.436-87.679 15.282t-74.448 48.794q-33.077 33.077-49.641 74.833t-15.461 88.32q.615 11.103-7.064 19.397-7.68 8.295-19.039 8.295H152.052Z"/></svg>