<svg xmlns="http://www.w3.org/2000/svg" height="40" viewBox="0 -960 960 960" width="40"><path d="M122.436-765.128q-10.685 0-17.906-7.258-7.221-7.259-7.221-18t7.221-17.869q7.221-7.128 17.906-7.128h389.743q10.685 0 17.906 7.259 7.221 7.258 7.221 17.999t-7.221 17.869q-7.221 7.128-17.906 7.128H122.436Zm195.04 492.563q19.6 0 33.434-13.953Q364.743-300.47 364.743-320v-52.565h52.564q19.53 0 33.483-14.002 13.953-14.002 13.953-33.602 0-19.6-13.953-33.433-13.953-13.833-33.483-13.833h-52.564V-520q0-19.53-14.002-33.482-14.002-13.953-33.602-13.953-19.6 0-33.434 13.953Q269.872-539.53 269.872-520v52.565h-52.565q-19.529 0-33.482 14.002t-13.953 33.602q0 19.6 13.953 33.433 13.953 13.833 33.482 13.833h52.565V-320q0 19.53 14.002 33.482 14.002 13.953 33.602 13.953ZM119.872-140.001q-25.846 0-44.204-18.359-18.359-18.359-18.359-44.205v-434.87q0-25.846 18.359-44.205 18.358-18.359 44.204-18.359h394.871q25.845 0 44.204 18.359t18.359 44.205v434.87q0 25.846-18.359 44.205-18.359 18.359-44.204 18.359H119.872Zm638.769-231.433q-7.564-7.715-7.564-17.986 0-10.272 7.564-17.836l48.386-47.617H671.641q-10.293 0-17.313-7.168t-7.02-17.397q0-10.228 7.415-17.561 7.415-7.334 17.328-7.334h134.566L759-551.693q-7.82-7.82-7.884-17.82-.064-10 7.563-17.563 7.883-7.821 18.386-7.821t18.095 7.821l85.965 85.711q9.387 9.575 9.387 21.957 0 12.382-9.359 21.741l-86.128 86.128q-7.608 7.82-18.086 7.82-10.477 0-18.298-7.715Z"/></svg>