<svg xmlns="http://www.w3.org/2000/svg" viewBox="0 -960 960 960" width="32" height="32"><path d="M202.57-140q-25.85 0-44.21-18.36T140-202.57v-554.86q0-25.85 18.36-44.21T202.57-820h554.86q25.85 0 44.21 18.36T820-757.43v554.86q0 25.85-18.36 44.21T757.43-140H202.57ZM480-389.46l76.74 46.69q8.36 5.41 16.81-.9 8.45-6.31 6.24-16.66l-20.33-86.52 67.85-58.56q8.15-7.41 4.55-16.87-3.6-9.46-13.91-10.46l-88.8-7.41-34.59-81.98q-4.2-9.36-14.56-9.36t-14.56 9.36l-34.59 81.98-88.8 7.41q-10.31 1-13.91 10.46-3.6 9.46 4.55 16.87l67.85 58.56-20.33 86.52q-2.21 10.35 6.24 16.66 8.45 6.31 16.81.9L480-389.46Z"/></svg>