<svg xmlns="http://www.w3.org/2000/svg" height="40" viewBox="0 -960 960 960" width="40"><path d="M162.565-140.001q-25.846 0-44.205-18.359-18.359-18.359-18.359-44.205V-674.05q0-25.436 18.359-44t44.205-18.564h132.307l54.872-62.641q8.359-10.18 20.628-15.462 12.27-5.282 26.244-5.282h166.768q13.975 0 26.244 5.282t20.628 15.462l54.872 62.641h132.307q25.436 0 44 18.564t18.564 44v471.485q0 25.846-18.564 44.205-18.564 18.359-44 18.359h-634.87Zm317.64-138.359q65.513 0 112.525-44.744 47.012-44.743 47.012-109.871 0-10.872-7.128-18t-17.999-7.128q-10.871 0-17.999 7.128-7.128 7.128-7.128 18 0 44.052-31.693 74.206-31.692 30.154-76.513 30.154h-75.537q-9.769 0-12.256 10.192t7.103 16.756q17.589 11.948 37.896 17.628 20.307 5.679 41.717 5.679ZM345.59-418.103q10.872 0 18-7.128t7.128-17.999q0-44.052 31.692-74.206 31.693-30.154 76.513-30.154h75.537q9.769 0 12.256-10.064t-7.359-16.884q-17.333-11.692-37.768-17.5-20.436-5.807-41.589-5.807-65.512 0-112.525 44.743-47.012 44.744-47.012 109.872 0 10.871 7.128 17.999 7.128 7.128 17.999 7.128Z"/></svg>