<svg xmlns="http://www.w3.org/2000/svg" height="40" viewBox="0 -960 960 960" width="40"><path d="M407.366-330.411q10.737 0 17.865-7.224 7.128-7.224 7.128-17.903v-248.924q0-10.679-7.263-17.903-7.263-7.224-18-7.224-10.736 0-17.864 7.224t-7.128 17.903v248.924q0 10.679 7.263 17.903 7.263 7.224 17.999 7.224Zm145.538 0q10.736 0 17.864-7.224t7.128-17.903v-248.924q0-10.679-7.263-17.903-7.263-7.224-17.999-7.224-10.737 0-17.865 7.224-7.128 7.224-7.128 17.903v248.924q0 10.679 7.263 17.903 7.263 7.224 18 7.224Zm-390.339 150.41q-25.788 0-44.176-18.388t-18.388-44.176v-474.87q0-25.788 18.388-44.176t44.176-18.388h634.87q25.788 0 44.176 18.388t18.388 44.176v474.87q0 25.788-18.388 44.176t-44.176 18.388h-634.87Z"/></svg>