<svg xmlns="http://www.w3.org/2000/svg" viewBox="0 -960 960 960" width="32" height="32"><path d="M162.57-180q-25.85 0-44.21-18.36T100-242.57v-474.86q0-25.85 18.36-44.21T162.57-780h634.86q25.85 0 44.21 18.36T860-717.43v474.86q0 25.85-18.36 44.21T797.43-180H162.57ZM400-447l124.08 124.08q9.36 9.35 21.92 9.35 12.56 0 21.92-9.35l156.77-156.77q7.23-7.23 7.23-17.4 0-10.17-7.23-17.99-7.43-7.82-17.81-7.62-10.37.19-17.8 7.62L546-372 421.92-496.08q-9.36-9.35-21.92-9.15-12.56.21-21.92 9.56L235.31-353.31q-7.23 7.23-7.23 17.59t7.23 17.8q7.43 7.43 17.81 7.43 10.37 0 17.8-7.43L400-447Zm134.41-117.02 18.92 40.84q2.21 4.95 7.29 4.95 5.07 0 7.28-4.95l17.48-40.84 41.23-18.93q4.95-2.2 4.76-7.28-.19-5.08-5.14-7.28l-40.85-17.87-17.48-40.85q-2.21-4.95-7.28-4.95-5.08 0-7.29 4.95l-18.92 40.85-40.85 17.87q-4.94 2.2-4.94 7.28t4.94 7.28l40.85 18.93Z"/></svg>