<svg xmlns="http://www.w3.org/2000/svg" viewBox="0 -960 960 960" width="32" height="32"><path d="M122.57-144.62q-25.71 0-44.14-18.43T60-207.18v-475.9q0-10.7 7.25-17.91 7.24-7.21 18-7.21 10.75 0 17.88 7.21 7.13 7.21 7.13 17.91v475.9q0 5.38 3.46 8.85 3.46 3.46 8.85 3.46h651.79q10.7 0 17.91 7.24 7.22 7.25 7.22 18 0 10.76-7.22 17.88-7.21 7.13-17.91 7.13H122.57Zm120.51-120.51q-25.71 0-44.14-18.43t-18.43-44.13v-469.74q0-25.71 18.43-44.14T243.08-860h192.59q12.86 0 24.57 5.08t20.32 13.43L541.79-780h295.64q25.71 0 44.14 18.43T900-717.43v389.74q0 25.7-18.43 44.13-18.43 18.43-44.14 18.43H243.08Zm268.05-192.05-56.16-66.36q-4.94-5.61-12.03-5.28-7.09.33-12.04 6.08l-54 66.95q-6.41 8.15-2.15 16.84t14.33 8.69h315.74q9.7 0 13.94-8.48 4.24-8.49-1.38-16.64l-89.94-119.67q-4.95-6.41-12.44-6.41-7.49 0-12.44 6.41l-91.43 117.87Z"/></svg>