<svg xmlns="http://www.w3.org/2000/svg" height="40" viewBox="0 -960 960 960" width="40"><path d="M762.025-95.437 654.998-202.259v14.975H106.025q-21.089 0-36.056-14.839Q55-216.963 55-238.308v-29.641q0-29.795 16.167-54.833 16.166-25.038 44.346-38.089 65.256-30.308 123.166-43.692 57.91-13.385 116.32-13.385 24.872 0 48.411 2.564 23.539 2.565 46.694 8.232l-85.541-85.541q-3.487.384-4.59.384H355q-57.75 0-96.438-38.893-38.689-38.894-38.689-96.644v-4.863q0-2.479.385-4.957L83.872-774.051q-7.435-7.18-7.525-17.346-.09-10.166 7.625-17.987 7.459-7.82 17.666-7.82 10.208 0 17.772 7.82l678.204 678.82q7.436 7.179 7.628 17.371.192 10.192-7.523 17.756-7.715 7.82-17.794 7.82t-17.9-7.82Zm-32.153-439.436h-99.744q-10.686 0-17.907-7.258T605-560.13q0-10.741 7.221-17.869t17.907-7.128h99.744v-99.745q0-10.685 7.259-17.906 7.258-7.221 17.999-7.221t17.869 7.221q7.128 7.221 7.128 17.906v99.745h99.744q10.686 0 17.907 7.258t7.221 17.999q0 10.741-7.221 17.869t-17.907 7.128h-99.744v99.745q0 10.685-7.258 17.906-7.259 7.221-18 7.221T737-417.222q-7.128-7.221-7.128-17.906v-99.745Zm-259.027-22.922L284.949-743.69q13.897-9.436 32.383-14.359 18.485-4.923 37.668-4.923 57.749 0 96.438 38.56 38.688 38.561 38.688 96.566 0 19.719-4.923 37.936-4.923 18.218-14.358 32.115Z"/></svg>