<svg xmlns="http://www.w3.org/2000/svg" height="40" viewBox="0 -960 960 960" width="40"><path d="M202.565-140.001q-25.788 0-44.176-18.388t-18.388-44.176v-554.87q0-25.788 18.388-44.176t44.176-18.388h358.206q10.449 0 17.788 7.25 7.34 7.249 7.34 17.999t-7.34 17.878q-7.339 7.128-17.788 7.128H202.565q-4.616 0-8.462 3.847-3.847 3.846-3.847 8.462v554.87q0 4.616 3.847 8.462 3.846 3.847 8.462 3.847h554.87q4.616 0 8.462-3.847 3.847-3.846 3.847-8.462v-358.206q0-10.449 7.249-17.788 7.25-7.34 17.999-7.34 10.751 0 17.879 7.34 7.128 7.339 7.128 17.788v358.206q0 25.788-18.388 44.176t-44.176 18.388h-554.87Zm232.293-295.934-83.242-37.732q-4.948-2.343-4.948-7.415t4.948-7.149l83.242-37.732 37.988-83.241q2.472-4.949 7.287-4.949 4.816 0 7.021 4.949l37.988 83.241 83.242 37.732q4.948 2.344 4.948 7.416 0 5.071-4.948 7.148l-83.242 37.732-37.988 83.242q-2.472 4.948-7.287 4.948-4.816 0-7.021-4.948l-37.988-83.242Zm217.04-215.578-55.487-26.744q-5.205-2.471-5.205-7.415t5.205-7.149l55.487-26.999 26.743-55.487q2.344-4.949 7.416-4.949 5.071 0 7.148 4.949l27 55.487 55.487 26.999q4.948 2.344 4.948 7.416 0 5.071-4.948 7.148l-55.487 26.744-27 55.486q-2.471 5.205-7.415 5.205t-7.149-5.205l-26.743-55.486Z"/></svg>