<svg xmlns="http://www.w3.org/2000/svg" viewBox="0 -960 960 960" width="32" height="32"><path d="M567.64-507.64q18.9 0 31.14-12.37 12.25-12.37 12.25-31.27v-10l10 3.59q19.87 7.07 35.78 3.54 15.91-3.54 23.91-17.54 8.59-14.59 6.33-33.08t-22.23-27.34l-10.41-4.38 10.41-4.79q19.97-9.52 22.13-27.65 2.15-18.12-6.23-32.51-8.21-14.2-23.96-17.7-15.76-3.5-35.73 3.7l-10 3.59v-10q0-18.89-12.25-31.14-12.24-12.24-31.14-12.24t-31.47 12.24q-12.58 12.25-12.58 31.14v10l-10-3.59q-20.39-7.2-35.73-3.7-15.35 3.5-23.96 17.7-9.05 14.39-6.57 32.51 2.49 18.13 22.46 27.65l10.41 4.79-10.41 4.38q-19.97 8.85-22.23 27.47-2.25 18.61 6.34 32.95 8 14.25 24.11 17.66 16.12 3.41 35.58-3.66l10-3.59v10q0 18.9 12.58 31.27 12.57 12.37 31.47 12.37Zm0-85.54q-18.49 0-30.94-12.45-12.44-12.45-12.44-30.93 0-18.49 12.44-30.94 12.45-12.45 30.94-12.45 18.23 0 30.81 12.45 12.58 12.45 12.58 30.94 0 18.48-12.58 30.93t-30.81 12.45Zm0 212.31q35.9-1.08 67.66-14.73 31.76-13.66 56.8-37.14 21.75-20.08 36.28-45.84 14.53-25.75 20.13-55.29 1.75-8-3.83-14.07-5.58-6.06-13.73-5.11-29.75 3.61-57.14 16.69-27.4 13.08-48.89 33.15-25.31 23.9-40.63 55.13-15.32 31.23-16.65 67.21Zm0 0q-1.59-35.98-16.78-67.21-15.19-31.23-40.76-55.13-21.49-20.07-48.88-33.15-27.4-13.08-56.89-16.69-8.15-.95-13.73 5.11-5.57 6.07-3.83 14.07 5.41 29.54 20.23 55.29 14.82 25.76 36.31 45.84 24.89 23.48 56.66 37.14 31.77 13.65 67.67 14.73Zm-337.2 276.61q-26.13 3.41-46.56-12.22-20.44-15.63-23.62-41.32L103.9-600.46q-3.21-25.87 12.76-46.91 15.96-21.04 41.83-23.6l51.2-5.13v333.59q0 54.98 38.72 93.9 38.71 38.92 93.69 38.92h426.67q.05 17.1-10.94 29.65-10.98 12.55-28.5 14.5l-498.89 61.28Zm112.07-175.69q-25.84 0-44.2-18.36-18.36-18.36-18.36-44.2v-454.92q0-25.85 18.36-44.21t44.2-18.36h454.92q25.85 0 44.21 18.36T860-797.43v454.92q0 25.84-18.36 44.2-18.36 18.36-44.21 18.36H342.51Z"/></svg>