<svg xmlns="http://www.w3.org/2000/svg" height="40" viewBox="0 -960 960 960" width="40"><path d="M242.565-100.001q-25.846 0-44.205-18.359-18.359-18.359-18.359-44.205v-634.87q0-25.846 18.359-44.205 18.359-18.359 44.205-18.359h474.87q25.846 0 44.205 18.359 18.359 18.359 18.359 44.205v634.87q0 25.846-18.359 44.205-18.359 18.359-44.205 18.359h-474.87Zm204.307-175.435-55.026-66.461q-4.948-5.769-12.333-5.577-7.384.192-12.333 5.961l-51.897 68.077q-6.205 8.153-2.026 16.538 4.18 8.384 14.59 8.384h309.742q9.359 0 13.667-8.384 4.307-8.385-1.103-16.077L561.718-390.41q-4.949-6.41-12.436-6.41t-12.692 6.41l-89.718 114.974Zm35.591-534.308v228.871q0 8.949 7.385 13.397 7.384 4.449 15.487.167l49.538-28.897q7.487-4.539 15.602-4.539 8.116 0 16.013 4.539l48.871 28.897q8.359 4.282 16.244-.167 7.884-4.448 7.884-13.397v-228.871H482.463Z"/></svg>