<svg xmlns="http://www.w3.org/2000/svg" height="40" viewBox="0 -960 960 960" width="40"><path d="M480-171.078q-37.59 0-63.077 20.539-25.487 20.538-71.641 20.538-46.153 0-71.846-20.538-25.692-20.539-63.282-20.539-29.744 0-49.641 12.577-19.898 12.577-43.975 21.244-9.461 3.897-17.999-2.462-8.538-6.358-8.538-17.64 0-11.41 7.628-20.076 7.628-8.667 18.73-13.128 20.051-8.359 38.859-19.77 18.808-11.41 54.936-11.41 46.512 0 72.205 20.744 25.692 20.743 64.821 20.743 39.384 0 62.846-20.743 23.462-20.744 69.974-20.744t72.589 20.744q26.078 20.743 65.206 20.743 39.385 0 62.795-20.743 23.41-20.744 69.666-20.744 36.128 0 54.936 11.41 18.808 11.411 38.449 19.77 11.102 4.461 18.73 13.128 7.628 8.666 7.628 20.076 0 11.282-8.538 17.64-8.538 6.359-17.999 2.462-24.077-8.667-43.436-21.244-19.359-12.577-49.77-12.577-37.589 0-61.949 20.539-24.359 20.538-70.512 20.538-46.154 0-73.179-20.538Q517.59-171.078 480-171.078Zm0-183.795q-38 0-62.154 20.539-24.154 20.538-70.666 20.538-46.513 0-72.975-20.538-26.461-20.539-64.051-20.539-30.41 0-50.385 12.782-19.974 12.782-44.051 21.449-9.461 3.641-17.59-2.795-8.127-6.435-8.127-16.64 0-11.256 7.628-19.384t18.063-12.589q20.308-7.949 39.321-19.565 19.013-11.615 55.141-11.615 46.512 0 71.23 19.59 24.718 19.589 63.898 19.589 39.385 0 63.795-19.589 24.411-19.59 70.923-19.59t71.128 19.59q24.615 19.589 64 19.589 39.385 0 64.129-19.589 24.743-19.59 70.999-19.59 36.385 0 55.27 11.615 18.884 11.616 39.192 19.565 10.436 4.461 17.858 12.589 7.423 8.128 7.423 19.384 0 10.205-7.923 16.64-7.922 6.436-17.127 2.795-24.333-8.667-44.308-21.449-19.974-12.782-50.385-12.782-37.589 0-61.769 20.539-24.18 20.538-70.692 20.538-46.102 0-73.154-20.538Q517.59-354.873 480-354.873ZM299.642-514.564 431.54-646.462 374-704.001q-27.23-27.231-54.32-39.808-27.09-12.577-64.885-16.91-14.282-1.769-24.41-11.936-10.128-10.166-10.128-24.448 0-14.23 10.038-23.576 10.039-9.346 24.32-7.731 52.077 4.744 89.539 21.616 37.461 16.872 73.897 53.307l242.973 242.974q-9.41 7.615-20.948 11.423-11.538 3.807-24.563 3.807-32.205 0-58.885-20.538Q529.949-536.36 480-536.36t-76.295 20.539q-26.346 20.538-58.808 20.538-14.512 0-25.922-5.295-11.41-5.294-19.333-13.986Zm362.973-310.102q37.718 0 63.859 26.116 26.14 26.115 26.14 63.627 0 37.718-26.14 63.859-26.141 26.141-63.859 26.141t-63.73-26.141q-26.013-26.141-26.013-63.859 0-37.512 26.013-63.627 26.012-26.116 63.73-26.116Z"/></svg>