<svg xmlns="http://www.w3.org/2000/svg" height="40" viewBox="0 -960 960 960" width="40"><path d="M785.283-103.591 659.437-228.565h39.485v26q0 25.609-18.378 44.086-18.378 18.478-44.186 18.478H323.642q-25.808 0-44.186-18.478-18.378-18.477-18.378-44.086v-105.283h-86.974q-25.608 0-44.086-18.378-18.477-18.378-18.477-44.185v-168.102q0-39.302 26.935-66.138 26.936-26.835 66.294-26.835h51.746l-153.54-153.797q-7.436-7.514-7.628-17.846-.192-10.332 7.663-18.153 7.599-7.564 17.82-7.564t18.144 7.564l682.307 682.307q7.179 7.552 7.371 17.686.193 10.134-7.406 17.698-7.958 7.82-18.179 7.82-10.221 0-17.785-7.82Zm-461.641-86.665h312.716q5.385 0 8.847-3.462 3.462-3.462 3.462-8.847v-36.77L511.54-376.719H323.642q-5.385 0-8.847 3.59-3.462 3.59-3.462 8.719v161.845q0 5.385 3.462 8.847 3.462 3.462 8.847 3.462Zm428.203-117.592L427.949-631.486H755.23q39.622 0 66.426 26.835 26.803 26.836 26.803 66.138v168.871q0 25.49-18.152 43.642-18.152 18.152-43.642 18.152h-34.82Zm-52.923-354.151H397.437L252.002-807.69h384.356q25.808 0 44.186 18.477 18.378 18.478 18.378 44.087v83.127Zm22.59 178.203q14.564 0 24.91-10.35 10.347-10.351 10.347-24.782 0-14.432-10.35-24.778-10.349-10.346-24.778-10.346-14.693 0-24.911 10.351-10.218 10.35-10.218 24.782 0 14.431 10.218 24.777 10.218 10.346 24.782 10.346Z"/></svg>