<svg xmlns="http://www.w3.org/2000/svg" viewBox="0 -960 960 960" width="32" height="32"><path d="M180-427.95v-147.44q0-52.38 33.04-90.34t82.35-46.58v-85.12q0-25.71 18.43-44.14Q332.24-860 357.95-860h244.1q25.71 0 44.13 18.43 18.43 18.43 18.43 44.14v85.12q49.31 8.62 82.35 46.58Q780-627.77 780-575.39v147.44H180ZM320-100q-57.92 0-98.96-41.04Q180-182.08 180-240v-137.69h600V-240q0 57.92-41.04 98.96Q697.92-100 640-100H320Zm25.64-615.38h98.98q0-14.7 10.34-25.04 10.35-10.35 25.04-10.35t25.04 10.35q10.34 10.34 10.34 25.04h98.98v-82.05q0-5.39-3.46-8.85t-8.85-3.46h-244.1q-5.39 0-8.85 3.46t-3.46 8.85v82.05Z"/></svg>