<svg xmlns="http://www.w3.org/2000/svg" height="40" viewBox="0 -960 960 960" width="40"><path d="M480-100.001q-78.769 0-148.115-29.962-69.346-29.961-120.653-81.269-51.308-51.307-81.269-120.653Q100.001-401.231 100.001-480q0-65.462 20.283-123.769 20.282-58.308 57.538-106.616L68.514-819.95q-7.436-7.179-7.628-17.679-.192-10.499 7.628-18.063 7.564-7.82 17.871-7.82 10.308 0 17.872 7.82L856.77-103.435q7.435 7.435 7.628 17.627.192 10.192-7.628 17.756-7.821 7.82-18 7.82t-17.999-7.82l-110.386-109.77q-48.308 37.256-106.616 57.538Q545.462-100.001 480-100.001Zm-41.487-51.845v-79.898q-34.077 0-57.782-24.653-23.705-24.654-23.705-58.731v-41.898L158.667-555.385q-3.821 18.821-6.116 37.564-2.295 18.744-2.295 37.821 0 125.462 81.936 219.308 81.936 93.846 206.321 108.846ZM859.999-480q0 50.692-12.424 96.987-12.423 46.295-34.782 87.039-5.051 9.307-14.999 11.166-9.949 1.859-19-3.808-8.641-5.666-11.32-15.602-2.679-9.935 2.372-19.191 19.513-36.385 29.705-75.796 10.193-39.41 10.193-80.795 0-102.18-56-186.141-56-83.962-150.359-121.859v17.846q0 34.077-23.705 58.731-23.706 24.654-57.783 24.654h-63.384v47.949q0 10.564-9.885 14.243-9.884 3.68-16.987-3.679L302.616-757.025q-14.308-14.564-11.884-34.282 2.423-19.717 20.14-29.153 38.462-19.231 80.808-29.385 42.346-10.154 88.32-10.154 78.769 0 148.115 29.962 69.346 29.961 120.653 81.269 51.308 51.307 81.269 120.653Q859.999-558.769 859.999-480Z"/></svg>