<svg xmlns="http://www.w3.org/2000/svg" height="40" viewBox="0 -960 960 960" width="40"><path d="M784.204-242.488 242.873-783.819q29.897-34.333 66.614-60.038 36.718-25.705 76.384-42.295 17.128-6.898 32.115 2.602 14.987 9.5 15.141 27.218-.923 84.23 30.462 161.448 31.385 77.218 91.462 137.551Q615.384-497 692.833-465.641q77.448 31.36 161.627 31.103 17.205-.512 27.167 14.795 9.961 15.308 3.115 31.513-16.333 42.538-41.654 79.191-25.32 36.654-58.884 66.551ZM769.898-86.386l-91.231-89.949q-34.359 14.384-71.077 21.641-36.718 7.256-76.154 7.256-79.768 0-149.614-30.269t-121.846-82.269q-52-52-82.269-121.846-30.269-69.846-30.269-149.614 0-39.052 7.449-75.769 7.448-36.718 21.833-71.334l-89.129-89.128q-7.435-7.436-7.628-18.115-.192-10.679 7.628-18.5 7.564-7.564 18.179-7.564 10.615 0 18.436 7.564l681.076 682.307q7.23 7.487 7.397 17.654.167 10.166-7.397 17.73-7.616 7.615-17.718 7.512-10.102-.102-17.666-7.307Z"/></svg>