<svg xmlns="http://www.w3.org/2000/svg" height="40" viewBox="0 -960 960 960" width="40"><path d="M202.565-100.001q-25.788 0-44.176-18.388t-18.388-44.176v-564.614q0-25.788 18.388-44.176 18.388-18.387 44.176-18.387h67.693v-47.899q0-11.589 7.557-19.281 7.557-7.692 19.192-7.692t19.494 7.692q7.859 7.692 7.859 19.281v47.899h312.819v-48.596q0-11.591 7.376-18.934 7.376-7.342 18.743-7.342 11.367 0 19.034 7.4 7.666 7.401 7.666 18.804v48.668h67.437q25.788 0 44.176 18.387 18.388 18.388 18.388 44.176v564.614q0 25.788-18.388 44.176t-44.176 18.388h-554.87Zm193.571-50.255q10.326 0 17.095-6.757Q420-163.769 420-174.102v-72.744q0-6-7-19l-80-94q-7.769-9.154-10.769-19.885-3-10.731-1.077-21.27 10.231 5.77 21.346 8.654 11.115 2.885 23.115 2.885 17.784 0 35.123-7.039 17.338-7.038 30.415-21.115 9.539-9.923 22.539-14.885 13-4.961 26.208-4.961 14.408 0 27.216 4.961 12.808 4.962 21.731 14.885 13.461 14.077 31.025 21.115 17.564 7.039 35.128 7.039 11.864 0 22.74-2.885 10.875-2.884 21.106-8.654 1.923 10.539-1.077 21.27T627-359.846l-80 94q-3 5-5 9.5t-2 9.5v72.744q0 10.333 6.751 17.089 6.751 6.757 17.077 6.757 10.325 0 17.094-6.757 6.769-6.756 6.769-17.089v-65.976l75.078-88.231q9.846-10.23 17.384-26.91t7.538-38.627q0-12.079-2.807-23.694-2.808-11.614-8.423-22.41 5-9.896 8.115-21.51 3.115-11.615 3.115-23.694 0-17.84-5.923-34.343-5.923-16.502-18.384-30.579l-75.693-89.462v-76.104q0-10.333-6.751-17.089-6.751-6.756-17.076-6.756-10.326 0-17.095 6.756Q540-725.975 540-715.642v82.488q0 5 1.5 10t5.5 9l80 95q6 8 9.5 16.5t3.5 17.5q0 19-13 33.5t-33 14.5q-8 0-16-3t-15-10q-17-17-38.5-26t-44.5-9q-23 0-44.5 9t-38.5 26q-6.385 7-14.262 10-7.876 3-16.738 3-20 0-33-14.5t-13-34.5q0-9 3-17.5t10-16.5l80-94q3-5 5-9.5t2-9.5v-82.488q0-10.333-6.751-17.089-6.751-6.756-17.077-6.756-10.325 0-17.094 6.756-6.769 6.756-6.769 17.089v75.72l-75.078 88.231q-9.846 10.23-17.384 26.91t-7.538 38.627q0 12.923 2.895 24.462 2.895 11.538 7.72 21.692-5.615 10.846-8.115 22.46-2.5 11.615-2.5 23.694 0 21.947 7.538 38.627 7.538 16.68 17.384 26.91l75.078 88.231v65.976q0 10.333 6.751 17.089 6.751 6.757 17.076 6.757Z"/></svg>