<svg xmlns="http://www.w3.org/2000/svg" height="40" viewBox="0 -960 960 960" width="40"><path d="M231.026-187.694q-21.256 0-36.14-14.885-14.885-14.884-14.885-36.14v-29.23q0-31.282 16.705-55.576 16.705-24.295 43.808-37.346 61.871-28.41 121.064-42.744Q420.77-417.948 480-417.948q20.5 0 40.289 1.616 19.789 1.615 40.276 5.384 11.863 2.103 19.88 11.436 8.018 9.334 8.018 21.897v158.639q0 13.468-8.907 22.375t-22.375 8.907H231.026ZM480-492.719q-57.749 0-96.438-38.689-38.689-38.688-38.689-96.438 0-58.005 38.689-96.566 38.689-38.56 96.438-38.56t96.438 38.56q38.689 38.561 38.689 96.566 0 57.75-38.689 96.438-38.689 38.689-96.438 38.689Zm254.873 274h-37.179q-13.468 0-22.375-8.871-8.907-8.872-8.907-22.287v-144.118q0-13.415 8.907-22.274 8.907-8.858 22.375-8.858h119.869q13.165 0 20.121 11.358 6.956 11.359 1.212 22.923L779.461-272.82h35.487q13.307 0 20.423 11.769 7.115 11.769.295 23.333L749.642-82.977q-3.205 5.41-8.987 4-5.782-1.41-5.782-7.564V-218.72Z"/></svg>