<svg xmlns="http://www.w3.org/2000/svg" height="40" viewBox="0 -960 960 960" width="40"><path d="M454.873-290.001v25q0 6 4.463 10.5 4.464 4.5 10.416 4.5h19.757q6.26 0 10.939-4.73 4.679-4.731 4.679-11.039v-24.231h59.745q10.679 0 17.903-7.224 7.224-7.224 7.224-17.903V-440q0-10.679-7.224-17.903-7.224-7.224-17.903-7.224H420.256v-74.617h144.616q10.679 0 17.903-7.263 7.224-7.263 7.224-18 0-10.736-7.224-17.864t-17.903-7.128h-59.745v-25.257q0-5.897-4.448-10.32-4.449-4.423-10.38-4.423h-19.657q-6.308 0-11.039 4.654-4.73 4.653-4.73 10.858v24.488h-59.745q-10.679 0-17.903 7.224-7.224 7.224-7.224 17.903V-440q0 10.679 7.224 17.903 7.224 7.224 17.903 7.224h144.616v74.617H395.128q-10.679 0-17.903 7.263-7.224 7.263-7.224 18 0 10.736 7.224 17.864t17.903 7.128h59.745Zm-212.308 190q-25.788 0-44.176-18.388t-18.388-44.176v-634.87q0-25.788 18.388-44.176t44.176-18.388h283.512q13.031 0 24.528 5.077 11.497 5.077 20.112 13.436l190.769 190.769q8.359 8.615 13.436 20.112 5.077 11.497 5.077 24.528v443.512q0 25.788-18.388 44.176t-44.176 18.388h-474.87Z"/></svg>