<svg xmlns="http://www.w3.org/2000/svg" viewBox="0 -960 960 960" width="32" height="32"><path d="M247.69-507.13q83.54-4.23 142.24-62.94 58.71-58.7 62.94-142.24h-45.84q-4.24 64.64-49.47 109.87-45.23 45.23-109.87 49.47v45.84Zm0-123.69q33.41-2.31 57.17-25.53 23.75-23.21 26.06-55.96h-83.23v81.49ZM202.57-140q-25.85 0-44.21-18.36T140-202.57v-554.86q0-25.85 18.36-44.21T202.57-820h554.86q25.85 0 44.21 18.36T820-757.43v554.86q0 25.85-18.36 44.21T757.43-140H202.57Zm96.82-148.51h364.97q9.36 0 13.64-8.49 4.28-8.49-1.34-16.64L577.9-445.61q-4.95-6.41-12.44-6.41-7.49 0-12.43 6.41l-105.7 135.05-68.92-89.7q-4.95-6.02-12.37-6.02-7.42 0-12.37 6.41l-66.05 86.23q-6.16 8.15-1.87 16.64 4.28 8.49 13.64 8.49Z"/></svg>