<svg xmlns="http://www.w3.org/2000/svg" height="40" viewBox="0 -960 960 960" width="40"><path d="M244.77-140.001q-20.769 0-38.956-13.909-18.187-13.908-24.197-33.86-25-87.129-40.785-147.601-15.785-60.471-24.794-104.249-9.01-43.778-12.523-76.497-3.514-32.72-3.514-63.883 0-83.636 58.182-141.817Q216.364-779.999 300-779.999h210.001q27-36 66-58 38.999-22 83.999-22 16.666 0 28.332 11.687 11.667 11.687 11.667 28.382 0 4.007-1.116 7.891-1.115 3.885-2.346 7.731-4.385 11.769-8.461 25.462-4.077 13.692-7.616 34.77l104.078 104.077h44.179q13.301 0 22.291 8.991 8.991 8.99 8.991 22.291v190.178q0 10.613-5.782 18.768-5.782 8.155-16.141 11.308l-87.182 28.891-52.331 174.725q-6.438 20.312-22.759 32.579-16.322 12.267-37.6 12.267h-75.639q-25.609 0-44.086-18.478-18.478-18.477-18.478-44.086v-17.436H379.999v17.436q0 25.609-18.478 44.086-18.477 18.478-44.086 18.478H244.77ZM640-524.616q14.692 0 25.038-10.346T675.384-560q0-14.692-10.346-25.038T640-595.384q-14.692 0-25.038 10.346T604.616-560q0 14.692 10.346 25.038T640-524.616Zm-145.127-95.128q10.685 0 17.906-7.259Q520-634.261 520-645.002t-7.221-17.869q-7.221-7.128-17.906-7.128H345.127q-10.685 0-17.906 7.258-7.221 7.259-7.221 18t7.221 17.869q7.221 7.128 17.906 7.128h149.746Z"/></svg>