<svg xmlns="http://www.w3.org/2000/svg" height="40" viewBox="0 -960 960 960" width="40"><path d="M828.204-338.925v-232.307L509.666-398.796q-14.175 8.153-30.01 7.82-15.835-.333-30.399-8.487l-317.331-173.46q-8.103-4.949-12-11.86-3.898-6.911-3.898-15.243 0-8.333 3.898-15.217 3.897-6.885 12-11.834l317.316-173.514q7.231-3.858 14.835-5.915 7.605-2.056 15.513-2.056 7.908 0 15.507 2.102 7.6 2.103 14.569 6.051l352.28 191.255q7.497 3.799 12.005 11.4 4.507 7.602 4.507 16.472v242.357q0 10.686-7.258 17.907t-17.999 7.221q-10.741 0-17.869-7.221t-7.128-17.907ZM449.257-182.926 246.95-293.054q-14.718-8.615-23.474-23.391-8.757-14.775-8.757-32.019v-148.717l234.538 127.846q14.201 8.154 30.152 8.154 15.95 0 30.257-8.154L744.46-497.181v148.788q0 17.365-8.756 32.044-8.757 14.68-23.731 23.295L509.666-182.926q-7.015 4.205-14.662 6.307-7.648 2.103-15.414 2.103-7.767 0-15.414-2.103-7.647-2.102-14.919-6.307Z"/></svg>