<svg xmlns="http://www.w3.org/2000/svg" viewBox="0 -960 960 960" width="32" height="32"><path d="M715.9-364.1h-86.93q-8.02 0-13.5 5.47-5.47 5.47-5.47 13.48 0 8.02 5.47 13.51 5.48 5.49 13.5 5.49h93.59q13.47 0 22.38-8.91 8.91-8.91 8.91-22.38v-93.59q0-8.02-5.47-13.5-5.47-5.47-13.49-5.47t-13.51 5.47q-5.48 5.48-5.48 13.5v86.93ZM244.1-675.9h86.93q8.02 0 13.5-5.47 5.47-5.47 5.47-13.48 0-8.02-5.47-13.51-5.48-5.49-13.5-5.49h-93.59q-13.47 0-22.38 8.91-8.91 8.91-8.91 22.38v93.59q0 8.02 5.47 13.5 5.47 5.47 13.49 5.47t13.51-5.47q5.48-5.48 5.48-13.5v-86.93ZM162.57-220q-25.85 0-44.21-18.36T100-282.57v-474.86q0-25.85 18.36-44.21T162.57-820h634.86q25.85 0 44.21 18.36T860-757.43v474.86q0 25.85-18.36 44.21T797.43-220h-182.3v48.72q0 13.46-8.91 22.37T583.84-140H376.16q-13.47 0-22.38-8.91-8.91-8.91-8.91-22.37V-220h-182.3Z"/></svg>