<svg xmlns="http://www.w3.org/2000/svg" height="40" viewBox="0 -960 960 960" width="40"><path d="M499.154-120.309 221.078-397.385q-4.051-4.103-5.743-8.667-1.692-4.564-1.692-9.153 0-9.74 6.923-17.677 6.922-7.938 18.045-7.938 5.228 0 9.821 1.821 4.594 1.82 8.645 5.615l278.076 278.076q3.462 3.846 8.847 3.654 5.385-.193 8.847-3.654l228.616-228.36H671.846q-10.68 0-17.904-7.263t-7.224-17.999q0-10.737 7.224-17.865 7.224-7.128 17.904-7.128h163.589q13.045 0 22.163 8.994 9.119 8.993 9.119 22.288v163.589q0 10.68-7.263 17.904t-18 7.224q-10.736 0-17.864-7.224t-7.128-17.904v-109.873L587.846-120.309q-8.838 8.752-19.986 13.235-11.148 4.482-23.623 4.482-11.696 0-23.635-4.482-11.939-4.483-21.448-13.235ZM124.565-526.462q-13.045 0-22.163-8.993-9.119-8.994-9.119-22.289v-163.589q0-10.679 7.263-17.903 7.263-7.225 18-7.225 10.736 0 17.864 7.225 7.128 7.224 7.128 17.903v109.874l228.616-228.616q9.437-9.244 21.234-13.481 11.797-4.237 23.593-4.237 12.583 0 23.785 4.248t20.08 13.47l278.076 277.076q4.051 4.102 5.743 8.666 1.692 4.564 1.692 9.154 0 9.739-6.923 17.677-6.923 7.937-18.045 7.937-5.228 0-9.821-1.82-4.594-1.821-8.645-5.872L424.847-805.076q-3.462-3.847-8.847-3.654-5.385.192-8.847 3.654L178.537-576.717h109.618q10.679 0 17.903 7.263 7.224 7.263 7.224 18 0 10.736-7.224 17.864t-17.903 7.128h-163.59Z"/></svg>