<svg xmlns="http://www.w3.org/2000/svg" height="40" viewBox="0 -960 960 960" width="40"><path d="M268.666-530.524q0-5.501-4.679-7.476-4.679-1.974-8.771 2.117l-44.934 44.524q-5.205 4.809-5.205 11.289 0 6.48 5.205 11.429l44.934 44.524q4.092 4.091 8.771 2.166 4.679-1.924 4.679-7.425v-101.148Zm261.958 181.447H429.886q-5.501 0-7.68 4.68-2.18 4.679 1.911 8.77l44.524 44.934q4.809 4.949 11.289 4.949 6.48 0 11.429-4.949l44.524-44.934q4.091-4.091 2.166-8.77-1.924-4.68-7.425-4.68Zm-.1-261.846q5.501 0 7.476-4.68 1.974-4.679-2.117-8.77l-44.524-44.524q-4.809-4.949-11.289-4.949-6.48 0-11.429 4.949l-44.113 44.524q-4.092 4.091-2.167 8.77 1.924 4.68 7.425 4.68h100.738Zm161.887 80.299v101.558q0 5.501 4.679 7.476 4.679 1.974 8.771-1.861l44.523-44.78q4.949-4.809 5.154-11.289.205-6.48-4.743-11.429l-44.934-44.934q-4.092-4.091-8.771-2.166-4.679 1.924-4.679 7.425ZM162.565-180.001q-25.846 0-44.205-18.359-18.359-18.359-18.359-44.205v-474.87q0-25.846 18.359-44.205 18.359-18.359 44.205-18.359h634.87q25.846 0 44.205 18.359 18.359 18.359 18.359 44.205v474.87q0 25.846-18.359 44.205-18.359 18.359-44.205 18.359h-634.87Z"/></svg>