<svg xmlns="http://www.w3.org/2000/svg" height="40" viewBox="0 -960 960 960" width="40"><path d="M479.231-140.001q-128.872 0-223.705-83.013T143.437-430.821q-1.743-10.436 5.046-18.757 6.788-8.321 17.639-8.846 10.212-.525 17.711 6.142 7.5 6.666 9.859 17.717 16.487 105.001 97.064 174.655t188.475 69.654q121.071 0 205.407-84.329 84.336-84.328 84.336-205.388t-84.336-205.415q-84.336-84.356-205.407-84.356-65.632 0-123.021 28.372Q298.821-713 255.795-663.898h76.514q10.679 0 17.903 7.263 7.224 7.263 7.224 17.999 0 10.737-7.224 17.865-7.224 7.128-17.903 7.128H201.336q-13.295 0-22.288-8.994-8.994-8.993-8.994-22.288v-131.229q0-10.429 7.263-17.778 7.263-7.35 18-7.35 10.736 0 17.864 7.35 7.128 7.349 7.128 17.778v75.59q49.513-56.384 116.964-87.909 67.452-31.526 141.958-31.526 70.798 0 132.629 26.77 61.831 26.769 107.831 72.768 46 46 72.769 107.824 26.769 61.824 26.769 132.615 0 70.791-26.769 132.637-26.769 61.846-72.769 107.846-46 45.999-107.831 72.768-61.831 26.77-132.629 26.77Zm-.093-282.565q-23.625 0-40.483-16.888-16.859-16.888-16.859-40.512t16.888-40.675q16.888-17.05 40.513-17.05 23.624 0 40.674 17.08 17.051 17.08 17.051 40.704 0 23.624-17.08 40.483-17.08 16.858-40.704 16.858Z"/></svg>