<svg xmlns="http://www.w3.org/2000/svg" height="40" viewBox="0 -960 960 960" width="40"><path d="M675.384-100.001q-76.461 0-130.537-54.077-54.077-54.077-54.077-130.538 0-76.461 54.077-130.537 54.076-54.077 130.537-54.077 76.461 0 130.538 54.077 54.077 54.076 54.077 130.537 0 76.461-54.077 130.538-54.077 54.077-130.538 54.077Zm81.077-105.154q4.615-5 2.307-11.23-2.307-6.231-8.538-7.231-24.077-4.231-44.846-17.769-20.769-13.539-33.615-36-12.846-22.461-14.538-47.154-1.693-24.692 6.923-47.768 2-6.231-2.308-11.347-4.308-5.115-10.539-3.5-61.999 11.231-84.384 70.231-22.384 58.999 18.154 109.768 32.308 40.539 84.884 41.539 52.577 1 86.5-39.539ZM428.462-100.001q-13.487 0-23.91-9.218-10.422-9.218-12.576-23.166l-12.744-88.385q-19.051-6.462-40.475-18.59-21.423-12.129-37.295-25.77l-80.95 36.488q-13.563 5.743-27.191 1.089-13.628-4.653-21.192-17.012l-50.615-88.974q-7.564-12.359-4.384-26.256 3.179-13.897 14.974-22.871l73.051-54.333q-1.795-10.821-2.577-21.116t-.782-21.5q0-11.206.782-21.693.782-10.487 2.577-21.693l-73.051-54.333q-11.795-8.974-14.782-22.871-2.987-13.897 4.577-26.641l50.23-87.82q7.564-12.358 21.192-17.012t27.191 1.09l80.565 35.846q17.436-14.18 36.898-25.513 19.462-11.334 40.873-18.308l13.128-89.052q2.154-13.897 13.012-23.14 10.859-9.244 24.756-9.244h100.512q13.897 0 24.756 9.244 10.858 9.243 13.012 23.14l12.744 88.77q21.026 7.641 40.295 18.577 19.27 10.936 36.321 25.526l82.488-35.846q13.564-5.744 26.987-1.09 13.422 4.654 20.986 17.012l50.641 88.205q7.564 12.359 4.384 26.589-3.179 14.23-14.974 22.538l-41.719 29.898q-6.025 4.154-12.781 5.372-6.757 1.218-13.526-1.193-18.307-6.41-37.128-9.628-18.82-3.217-38.615-3.833-27.308-1.23-53.603 4.475t-51.654 14.167q-15.487-26.308-41.986-41.679-26.5-15.372-57.5-15.372-47.768 0-81.447 33.551T364.258-480q0 30.743 15.102 57.153t41.358 42.307q-8.948 27.847-13.307 56.514t-3.539 58.052q1.077 36.64 13.615 70.986 12.539 34.346 33.821 65.167 6.205 9.281 1.205 19.551-5 10.269-16.205 10.269h-7.846Z"/></svg>