<svg xmlns="http://www.w3.org/2000/svg" height="40" viewBox="0 -960 960 960" width="40"><path d="M139.565-60.002v-173.692q-33.435-10.615-56.5-38.013-23.063-27.397-23.063-62.576v-93.693h209.382v93.693q0 35.179-22.859 62.576-22.859 27.398-56.705 38.013v173.692h-50.255Zm315.308 0v-173.692q-33.436-10.615-56.5-38.013-23.064-27.397-23.064-62.576v-93.693h209.382v93.693q0 35.179-22.859 62.576-22.858 27.398-56.705 38.013v173.692h-50.254Zm315.307 0v-173.692q-33.436-10.615-56.5-38.013-23.064-27.397-23.064-62.576v-93.693h209.383v93.693q0 35.179-23.065 62.576-23.064 27.398-56.499 38.013v173.692H770.18ZM60.002-478.23v-204.718q0-13.211 8.906-22.246 8.907-9.036 22.375-9.036h48.282v-160.64q0-11.263 6.937-18.195 6.936-6.933 18.204-6.933 11.269 0 18.191 6.933 6.923 6.932 6.923 18.195v160.64h48.283q13.211 0 22.246 9.036 9.035 9.035 9.035 22.246v204.718H60.001Zm315.307 0v-204.718q0-13.211 8.907-22.246 8.906-9.036 22.374-9.036h48.283v-160.64q0-11.263 6.936-18.195 6.936-6.933 18.204-6.933 11.269 0 18.192 6.933 6.922 6.932 6.922 18.195v160.64h48.283q13.468 0 22.374 9.036 8.907 9.035 8.907 22.246v204.718H375.309Zm315.307 0v-204.718q0-13.211 9.035-22.246 9.035-9.036 22.246-9.036h48.283v-160.64q0-11.263 6.936-18.195 6.936-6.933 18.205-6.933 11.268 0 18.191 6.933 6.923 6.932 6.923 18.195v160.64h48.282q13.468 0 22.375 9.036 8.907 9.035 8.907 22.246v204.718H690.616Z"/></svg>