<svg xmlns="http://www.w3.org/2000/svg" viewBox="0 -960 960 960" width="32" height="32"><path d="m700.97-739.49-58.56-25.54q-9.36-3.94-9.36-14.43t9.36-14.69l58.56-25.29L726.51-878q3.95-9.36 14.44-9.36 10.49 0 14.43 9.36l25.54 58.56 58.57 25.29q9.36 4.2 9.36 14.69 0 10.49-9.36 14.43l-58.57 25.54-25.54 58.57q-3.94 9.36-14.43 9.36t-14.44-9.36l-25.54-58.57ZM313.23-342.57q-106.02 0-179.63-73.6Q60-489.77 60-595.54q0-106.02 73.6-179.63 73.61-73.6 179.63-73.6 106.03 0 179.63 73.6 73.6 73.61 73.6 179.63 0 105.77-73.6 179.37-73.6 73.6-179.63 73.6ZM407.85-100q-25.87 0-44.22-18.35-18.35-18.34-18.35-44.22v-71.23q0-11.56 7.7-19.44 7.69-7.89 18.87-10.27 5.41-1.23 11.71-2.35 6.31-1.11 11.98-2.29 91.31-23.29 156.32-89.71 65.01-66.42 90.65-157.27 1.44-5.66 2.76-11.97 1.32-6.31 2.55-12.39 2.38-10.92 10.04-18.41 7.65-7.48 19.01-7.48h111.9q25.87 0 44.22 18.34 18.34 18.35 18.34 44.22v340.25q0 25.88-18.34 44.22Q814.64-100 788.77-100H407.85Z"/></svg>