<svg xmlns="http://www.w3.org/2000/svg" height="40" viewBox="0 -960 960 960" width="40"><path d="m700.975-739.487-58.564-25.539q-9.359-3.948-9.359-14.436 0-10.487 9.359-14.692l58.564-25.282L726.513-878q3.949-9.359 14.436-9.359T755.384-878l25.539 58.564 58.564 25.282q9.359 4.205 9.359 14.692 0 10.488-9.359 14.436l-58.564 25.539-25.539 58.564q-3.948 9.358-14.435 9.358t-14.436-9.358l-25.538-58.564ZM313.231-342.566q-106.025 0-179.627-73.602-73.603-73.602-73.603-179.37 0-106.025 73.603-179.628 73.602-73.602 179.627-73.602t179.627 73.602q73.602 73.603 73.602 179.628 0 105.768-73.602 179.37t-179.627 73.602Zm94.616 242.565q-25.872 0-44.217-18.346-18.346-18.346-18.346-44.218v-71.231q0-11.564 7.692-19.448 7.692-7.885 18.871-10.269 5.41-1.231 11.718-2.346 6.307-1.116 11.973-2.295 91.308-23.282 156.321-89.705 65.012-66.423 90.653-157.269 1.436-5.667 2.757-11.974 1.32-6.307 2.551-12.384 2.385-10.923 10.038-18.41 7.654-7.487 19.013-7.487h111.897q25.872 0 44.218 18.346 18.346 18.346 18.346 44.217v340.255q0 25.872-18.346 44.218-18.346 18.346-44.218 18.346H407.847Z"/></svg>