<svg xmlns="http://www.w3.org/2000/svg" height="40" viewBox="0 -960 960 960" width="40"><path d="M253.282-111.334 145-219.359q-9.359-9.406-9.359-21.947 0-12.54 9.359-21.899l108.282-108.026q10.974-11.23 25.949-11.23 14.974 0 26.205 11.551 10.974 10.91 10.645 26.077-.329 15.166-10.645 26.499l-39.873 39.873h495.206q15.821 0 26.5 10.658 10.679 10.659 10.679 26.449 0 15.79-10.679 26.52-10.679 10.731-26.5 10.731H265.563l39.873 39.872q10.23 11.231 10.602 26.398.372 15.166-10.731 26.499-11.009 11.231-26.03 11.231t-25.995-11.231Zm-42.505-330.461q-19.324 0-32.999-13.675t-13.675-33.119v-378.206q0-19.593 13.675-33.194 13.675-13.6 32.999-13.6h538.326q19.593 0 33.194 13.6 13.6 13.601 13.6 33.194v378.206q0 19.444-13.6 33.119-13.601 13.675-33.194 13.675H210.777Zm27.684-273.076h204.36v-124.36H247.693q-3.847 0-6.539 2.693-2.693 2.692-2.693 6.539v115.128Zm278.718 0h204.36v-115.128q0-3.847-2.693-6.539-2.692-2.693-6.539-2.693H517.179v124.36Zm-74.358 198.718v-124.36h-204.36v115.128q0 3.847 2.693 6.539 2.692 2.693 6.539 2.693h195.128Zm74.358 0h195.128q3.847 0 6.539-2.693 2.693-2.692 2.693-6.539v-115.128h-204.36v124.36Z"/></svg>