<svg xmlns="http://www.w3.org/2000/svg" height="40" viewBox="0 -960 960 960" width="40"><path d="M423.846-346.411h112.308L480-458.718l-56.154 112.307Zm-83.699-111.025q27.878 0 47.583-19.853 19.705-19.852 19.705-47.73 0-27.878-19.852-47.583-19.853-19.705-47.73-19.705-27.878 0-47.583 19.852-19.705 19.853-19.705 47.731t19.852 47.583q19.853 19.705 47.73 19.705Zm280.001 0q27.877 0 47.582-19.853 19.705-19.852 19.705-47.73 0-27.878-19.852-47.583-19.853-19.705-47.731-19.705-27.877 0-47.582 19.852-19.705 19.853-19.705 47.731t19.852 47.583q19.853 19.705 47.731 19.705ZM260.001-100.001v-163.077q-36.615-15.564-65.987-41.718-29.371-26.153-50.397-59.897-21.026-33.743-32.321-73.359-11.295-39.615-11.295-81.948 0-149.538 106.391-244.768 106.391-95.231 273.576-95.231t273.608 95.231Q859.999-669.538 859.999-520q0 42.333-11.295 81.948-11.295 39.616-32.321 73.359-21.026 33.744-50.397 59.897-29.372 26.154-65.987 41.788v163.007H591.538v-97.949h-61.025v97.949H429.487v-97.949h-61.025v97.949H260.001Z"/></svg>