<svg xmlns="http://www.w3.org/2000/svg" viewBox="0 -960 960 960" width="32" height="32"><path d="M483-100q-79.77 0-149.61-30.27-69.85-30.27-121.85-82.27t-82.27-121.85Q99-404.23 99-484q0-117.33 65-213.88T338.05-838.1q9.05-3.44 17.91-2.31t15.47 6q5.39 4 8.71 12.14 3.32 8.14 2.65 20.04.85 84.28 32.2 159.95 31.34 75.67 90.78 135.1Q565.2-448 641.18-416.32q75.97 31.68 160.26 32.53 11.84-.67 19.6 2.57 7.75 3.25 12.42 9.04 4.62 6.62 5.95 15.35t-2.1 17.57q-43.47 108.39-140.02 173.82Q600.74-100 483-100Zm201.15-601.08-59.69-26.38q-7.82-3.44-7.82-11.87 0-8.44 7.82-11.88l59.69-26.64 26.39-59.69q3.43-7.56 11.87-7.56t11.87 7.56l26.64 59.69 59.69 26.64q7.57 3.44 7.57 11.88 0 8.43-7.57 11.87l-59.69 26.38-26.64 59.69q-3.43 7.82-11.87 7.82t-11.87-7.82l-26.39-59.69Z"/></svg>