<svg xmlns="http://www.w3.org/2000/svg" viewBox="0 -960 960 960" width="32" height="32"><path d="M122.57-220q-25.79 0-44.18-18.39T60-282.57v-394.86q0-25.79 18.39-44.18T122.57-740h714.86q25.79 0 44.18 18.39T900-677.43v394.86q0 25.79-18.39 44.18T837.43-220H122.57Zm83.07-50.26h548.72v-419.48H205.64v419.48Zm326.39-183.12q-11.06 0-18.9-7.85-7.85-7.85-7.85-18.77t7.85-18.77q7.84-7.85 18.9-7.85 11.05 0 18.89 7.85 7.85 7.85 7.85 18.77t-7.85 18.77q-7.84 7.85-18.89 7.85Zm-207.85 0q-11.05 0-18.9-7.85-7.84-7.85-7.84-18.77t7.84-18.77q7.85-7.85 18.9-7.85 11.05 0 18.9 7.85 7.84 7.85 7.84 18.77t-7.84 18.77q-7.85 7.85-18.9 7.85Zm311.64 0q-11.05 0-18.9-7.85-7.84-7.85-7.84-18.77t7.84-18.77q7.85-7.85 18.9-7.85 11.05 0 18.9 7.85 7.84 7.85 7.84 18.77t-7.84 18.77q-7.85 7.85-18.9 7.85Zm-207.85 0q-11.05 0-18.89-7.85-7.85-7.85-7.85-18.77t7.85-18.77q7.84-7.85 18.89-7.85 11.06 0 18.9 7.85 7.85 7.85 7.85 18.77t-7.85 18.77q-7.84 7.85-18.9 7.85Z"/></svg>