<svg xmlns="http://www.w3.org/2000/svg" height="40" viewBox="0 -960 960 960" width="40"><path d="M390-90q-96.487 0-170.974-65.731t-89.025-160.833q-1.616-11.872 5.423-20.218 7.038-8.345 19.704-8.345H599.18l45.564-432.181q4.616-38.999 34.141-65.845 29.526-26.846 69.987-26.846 43.871 0 74.499 30.628 30.628 30.628 30.628 74.499v11.564q0 10.872-7.128 18t-17.999 7.128q-10.872 0-18-7.128t-7.128-18v-11.564q0-23-15.936-38.936t-38.936-15.936q-22 0-37.437 14.282-15.436 14.282-17.436 35.026l-46 439.872q-10.615 102.153-83.935 171.358Q490.743-90.001 390-90.001ZM245.154-426.155q-11.795 0-16.513-7.167-4.717-7.166-2.307-19.423 1.538-6.358 1.961-13.307.423-6.949.423-13.949 0-34.487-20-74.064-20-39.577-20-70.936 0-8.231.872-17.372t5.359-18.833q2.154-4.974 7.603-8.807 5.448-3.834 12.294-3.834 11.59 0 16.949 7.372 5.358 7.372 2.538 19.218-1.205 4.769-2.795 22.256 0 31.359 20 70.359 20 39 20 74.641 0 12.667-1.795 22.628-1.795 9.962-4.82 18.577-2.411 4.974-7.872 8.807-5.461 3.834-11.897 3.834Zm260 0q-11.795 0-16.513-7.167-4.717-7.166-2.307-19.423 1.538-6.358 1.961-13.307.423-6.949.423-13.949 0-34.487-20-74.064-20-39.577-20-70.936 0-8.231.872-17.372t5.359-18.833q2.154-4.974 7.603-8.807 5.448-3.834 12.294-3.834 11.59 0 16.949 7.372 5.358 7.372 2.538 19.218-1.205 4.769-2.795 22.256 0 31.359 20 70.359 20 39 20 74.641 0 12.667-1.795 22.628-1.795 9.962-4.82 18.577-2.411 4.974-7.872 8.807-5.461 3.834-11.897 3.834Zm-130 0q-11.795 0-16.513-7.167-4.717-7.166-2.307-19.423 1.538-6.358 1.961-13.307.423-6.949.423-13.949 0-34.487-20-74.064-20-39.577-20-70.936 0-8.231.872-17.372t5.359-18.833q2.154-4.974 7.603-8.807 5.448-3.834 12.294-3.834 11.59 0 16.949 7.372 5.358 7.372 2.538 19.218-1.205 4.769-2.795 22.256 0 31.359 20 70.359 20 39 20 74.641 0 12.667-1.795 22.628-1.795 9.962-4.82 18.577-2.411 4.974-7.872 8.807-5.461 3.834-11.897 3.834Z"/></svg>