<svg xmlns="http://www.w3.org/2000/svg" viewBox="0 -960 960 960" width="32" height="32"><path d="M162.57-180q-25.85 0-44.21-18.57-18.36-18.56-18.36-44v-474.86q0-25.44 18.36-44Q136.72-780 162.5-780h213.62q13.06 0 24.59 5.08 11.52 5.08 20.19 13.49l51.43 51.69h325.1q25.44 0 44 18.56 18.57 18.57 18.57 44v404.61q0 25.44-18.57 44-18.56 18.57-44 18.57H162.57ZM280-339.74h240q10.69 0 17.91-7.26 7.22-7.26 7.22-18t-7.22-17.87Q530.69-390 520-390H280q-10.69 0-17.91 7.26-7.22 7.26-7.22 18t7.22 17.87q7.22 7.13 17.91 7.13Zm0-160h400q10.69 0 17.91-7.26 7.22-7.26 7.22-18t-7.22-17.87Q690.69-550 680-550H280q-10.69 0-17.91 7.26-7.22 7.26-7.22 18t7.22 17.87q7.22 7.13 17.91 7.13Z"/></svg>