<svg xmlns="http://www.w3.org/2000/svg" viewBox="0 -960 960 960" width="32" height="32"><path d="M769.74-140h-59.48q-10.68 0-17.91-7.26-7.22-7.27-7.22-18 0-10.74 7.22-17.87 7.23-7.13 17.91-7.13h59.48v-59.48q0-10.68 7.27-17.91 7.26-7.22 18-7.22 10.73 0 17.86 7.22 7.13 7.23 7.13 17.91v59.48h59.49q10.68 0 17.9 7.27 7.22 7.26 7.22 18 0 10.73-7.22 17.86-7.22 7.13-17.9 7.13H820v59.49q0 10.68-7.26 17.9-7.27 7.22-18 7.22-10.74 0-17.87-7.22-7.13-7.22-7.13-17.9V-140Zm-567.17 0q-25.61 0-44.09-18.48Q140-176.96 140-202.57v-554.86q0-25.61 18.48-44.09Q176.96-820 202.57-820h161.2q25.81 0 44.18 18.48 18.38 18.48 18.38 44.09v554.86q0 25.61-18.38 44.09Q389.58-140 363.77-140h-161.2Zm397.33-3.46q-26.93-3.08-46.59-18.3-19.67-15.22-19.67-40.81v-554.86q0-25.61 18.38-44.09Q570.4-820 596.21-820h161.22q25.61 0 44.09 18.48Q820-783.04 820-757.43v397.71q-8.08-1.42-16.16-2.13-8.07-.72-16.15-.72-76.48 0-130.97 52.72-54.49 52.72-58.52 129.05-.77 9.14-.15 18.6.62 9.45 1.85 18.74Z"/></svg>