<svg xmlns="http://www.w3.org/2000/svg" height="40" viewBox="0 -960 960 960" width="40"><path d="M480-100.001q-78.359 0-147.705-29.962-69.345-29.961-120.858-81.474-51.513-51.513-81.474-120.858Q100.001-401.641 100.001-480q0-64.846 20.616-123.154 20.616-58.308 57.872-106.615l-75.513-75.514q-7.436-7.435-7.32-17.807.115-10.371 7.935-18.192 7.564-7.564 17.871-7.564 10.308 0 18.128 7.564l681.692 682.307q7.179 7.436 7.371 17.628.193 10.192-7.371 17.756-7.821 7.82-18.128 7.82t-17.871-7.82l-75.514-74.898q-48.82 37.641-107.256 58.064Q544.077-100.001 480-100.001Zm-.359-50.46q54.18 0 103.129-16.667 48.949-16.667 90.642-47.719l-74.128-73.871q-48.436 12.308-94.975 45.564-46.539 33.257-77.436 88.308 12.999 1.949 26.076 3.167 13.077 1.218 26.692 1.218Zm-135.052-29.18q27.487-59.025 63.679-92.512 36.192-33.487 62.372-53.026-20.513-7.487-46.436-11.282t-51.05-3.795q-36.898 0-71.962 7.847-35.064 7.846-67.602 22.718-11.103 5-13.59 16.961-2.487 11.961 5.052 21.525 23.666 29.718 53.974 52.718 30.307 23 65.563 38.846ZM480-859.999q78.769 0 147.91 29.962 69.14 29.961 120.653 81.474 51.513 51.513 81.474 120.653 29.962 69.141 29.962 147.91 0 45.564-10.154 87.884-10.154 42.321-29.795 80.782-4.949 10.282-14.167 15.59-9.217 5.307-19.91 5.307-8.153 0-15.346-2.91-7.192-2.91-13.602-9.064l-78.384-78.64q37.102-4.359 62.949-32.411 25.846-28.051 25.846-66.538 0-41.923-29.372-71.295t-71.295-29.372q-38.487 0-66.538 25.847-28.051 25.846-32.41 63.205l-63.873-64.129q3.128-55.051-35.987-94.473-39.115-39.423-94.781-36.039l-70.769-70.769q-6.154-6.41-8.731-13.5-2.577-7.089-2.577-15.243 0-10.692 4.975-20.013 4.974-9.32 15.256-14.269 37.795-19.897 80.448-29.923 42.654-10.026 88.218-10.026ZM376.615-430.001q17.437 0 33.796-4.577 16.359-4.577 29.795-13.218L265.488-622.77q-8.641 13.692-13.218 29.923-4.577 16.231-4.577 33.924 0 53.487 37.718 91.205 37.718 37.717 91.204 37.717Z"/></svg>