<svg xmlns="http://www.w3.org/2000/svg" height="40" viewBox="0 -960 960 960" width="40"><path d="M679.59-397.848q-36.218 0-61.621-25.404-25.404-25.404-25.404-61.878 0-36.217 25.404-61.62 25.403-25.404 61.621-25.404 36.473 0 61.749 25.404 25.275 25.403 25.275 61.62 0 36.474-25.275 61.878-25.276 25.404-61.749 25.404ZM522.769-187.694q-13.044 0-22.163-8.991-9.118-8.99-9.118-22.291v-12.41q0-20.569 10.153-38.014 10.154-17.444 28.975-26.088 35.23-16.436 72.576-24.525 37.346-8.09 76.398-8.09 39.307 0 76.858 8.051 37.552 8.051 72.372 24.564 18.974 8.233 28.923 25.76 9.948 17.527 9.948 38.342v12.41q0 13.301-8.99 22.291-8.99 8.991-22.291 8.991H522.769ZM392.307-492.719q-57.749 0-96.438-38.689-38.689-38.688-38.689-96.438 0-58.005 38.689-96.566 38.689-38.56 96.438-38.56 57.75 0 96.438 38.56 38.689 38.561 38.689 96.566 0 57.75-38.689 96.438-38.688 38.689-96.438 38.689ZM92.309-267.993q0-30.37 16.192-55.483 16.192-25.113 44.32-37.395 56.795-26.718 116.874-41.897 60.08-15.18 122.612-15.18 24.91 0 49.82 2.939 24.909 2.938 49.819 7.112l-48.076 47.948q-22.589 23.487-30.307 54.961-7.717 31.475-7.717 64.09v21.281q0 9.406 3.147 17.443 3.147 8.038 10.083 14.48H143.333q-21.089 0-36.057-14.968-14.967-14.967-14.967-36.057v-29.274Z"/></svg>