<svg xmlns="http://www.w3.org/2000/svg" height="40" viewBox="0 -960 960 960" width="40"><path d="M171.283-140.001q-13.295 0-22.288-8.994-8.994-8.993-8.994-22.288v-129.052q0-13.295 8.994-22.288 8.993-8.994 22.288-8.994h617.434q13.295 0 22.288 8.994 8.994 8.993 8.994 22.288v129.052q0 13.295-8.994 22.288-8.993 8.994-22.288 8.994H171.283Zm0-241.871q-13.295 0-22.288-9.118-8.994-9.119-8.994-22.163v-133.899q0-13.044 8.994-22.163 8.993-9.118 22.288-9.118h617.434q13.295 0 22.288 9.118 8.994 9.119 8.994 22.163v133.899q0 13.044-8.994 22.163-8.993 9.118-22.288 9.118H171.283Zm0-246.716q-13.295 0-22.288-8.994-8.994-8.993-8.994-22.288v-128.847q0-13.295 8.994-22.288 8.993-8.994 22.288-8.994h617.434q13.295 0 22.288 8.994 8.994 8.993 8.994 22.288v128.847q0 13.295-8.994 22.288-8.993 8.994-22.288 8.994H171.283Z"/></svg>