<svg xmlns="http://www.w3.org/2000/svg" height="40" viewBox="0 -960 960 960" width="40"><path d="M480.067-100.001q-78.836 0-148.204-29.92-69.369-29.92-120.682-81.21-51.314-51.291-81.247-120.629-29.933-69.337-29.933-148.173t29.92-148.204q29.92-69.369 81.21-120.682 51.291-51.314 120.629-81.247 69.337-29.933 148.173-29.933t148.204 29.92q69.369 29.92 120.682 81.21 51.314 51.291 81.247 120.629 29.933 69.337 29.933 148.173t-29.92 148.204q-29.92 69.369-81.21 120.682-51.291 51.314-120.629 81.247-69.337 29.933-148.173 29.933Zm-25.194-51.076v-657.846q-128.975 15.102-216.796 107.91Q150.256-608.205 150.256-480q0 128.205 87.821 220.808 87.821 92.602 216.796 108.115Zm50.254 0q41.488-3.179 80.732-16.064t73.27-36.911H505.127v52.975Zm0-103.23h215.231q15.975-17.026 29.539-35.539 13.565-18.513 23.796-39.744H505.127v75.283Zm0-125.538h288.565q7.282-18.129 10.052-37.052 2.769-18.924 4.359-37.976H505.127v75.028Zm0-125.282h302.976q-1.59-19.052-4.359-37.976-2.77-18.923-10.052-37.052H505.127v75.028Zm0-125.283h268.566q-9.821-21.231-23.59-39.744-13.77-18.513-29.745-35.539H505.127v75.283Zm0-125.538h154.002q-34.026-24.026-73.27-37.116-39.244-13.09-80.732-15.859v52.975Z"/></svg>