<svg xmlns="http://www.w3.org/2000/svg" height="40" viewBox="0 -960 960 960" width="40"><path d="M162.565-180.001q-25.846 0-44.205-18.359-18.359-18.359-18.359-44.205v-474.87q0-25.846 18.359-44.205 18.359-18.359 44.205-18.359h17.642l232.409 232.41q-14.718 28.846-22.641 61.012-7.923 32.167-7.923 66.577v120q0 21.846 3.475 42.397 3.474 20.551 10.628 41.166 4.23 13.692-3.641 25.064-7.872 11.372-21.564 11.372H162.565ZM660-697.948q-61.769 0-114.859 25.218-53.089 25.218-91.063 67.167L332.847-726.794q-14.769-14.769-6.91-33.987 7.859-19.218 29.038-19.218h442.46q25.846 0 44.205 18.359 18.359 18.359 18.359 44.205v58.794q0 13.282-12.436 18.949-12.436 5.667-22.974-3.102-35.18-26.795-77.449-40.974-42.269-14.18-87.14-14.18Zm25.127 272.821v-194.102q73.693 9.897 123.154 64.692 49.461 54.794 51.718 129.41H685.127Zm-50.254-194.102v187.435h-6.77L508.668-550.973q23.538-27.41 55.923-45.077 32.384-17.667 70.282-23.179Zm206.895 401.356-157-157h175.231V-300q0 22.128-4.731 42.91-4.731 20.782-13.5 39.217ZM660-100.001q-83.538 0-141.768-58.231-58.231-58.23-58.231-141.768v-74.873h53.334L68.515-819.95q-7.437-7.179-7.629-17.679-.192-10.499 7.628-18.063 7.564-7.82 17.871-7.82 10.308 0 17.872 7.82L856.77-103.435Q864.205-96 864.398-85.5q.192 10.5-7.628 18.064-7.821 7.82-18 7.82t-17.999-7.82l-60.027-60.027q-21.898 13.077-47.462 20.269-25.564 7.193-53.282 7.193Z"/></svg>