<svg xmlns="http://www.w3.org/2000/svg" viewBox="0 -960 960 960" width="32" height="32"><path d="M697.02-140v-560h100.41q25.79 0 44.18 18.39T860-637.43v434.86q0 25.79-18.39 44.18T797.43-140H697.02ZM390.26-700h179.48v-77.43q0-4.62-3.84-8.47-3.85-3.84-8.47-3.84H402.57q-4.62 0-8.47 3.84-3.84 3.85-3.84 8.47V-700Zm-77.03 560v-560H340v-77.43q0-25.79 18.39-44.18T402.57-840h154.86q25.79 0 44.18 18.39T620-777.43V-700h26.77v560H313.23Zm-150.66 0q-25.79 0-44.18-18.39T100-202.57v-434.86q0-25.79 18.39-44.18T162.57-700h100.41v560H162.57Z"/></svg>