<svg xmlns="http://www.w3.org/2000/svg" viewBox="0 -960 960 960" width="32" height="32"><path d="M202.57-540q-25.85 0-44.21-18.36T140-602.56v-154.87q0-25.85 18.36-44.21T202.57-820h154.87q25.84 0 44.2 18.36Q420-783.28 420-757.43v154.87q0 25.84-18.36 44.2Q383.28-540 357.44-540H202.57Zm0 400q-25.85 0-44.21-18.36T140-202.57v-154.87q0-25.84 18.36-44.2Q176.72-420 202.57-420h154.87q25.84 0 44.2 18.36Q420-383.28 420-357.44v154.87q0 25.85-18.36 44.21T357.44-140H202.57Zm399.99-400q-25.84 0-44.2-18.36Q540-576.72 540-602.56v-154.87q0-25.85 18.36-44.21t44.2-18.36h154.87q25.85 0 44.21 18.36T820-757.43v154.87q0 25.84-18.36 44.2Q783.28-540 757.43-540H602.56Zm0 400q-25.84 0-44.2-18.36Q540-176.72 540-202.57v-154.87q0-25.84 18.36-44.2Q576.72-420 602.56-420h154.87q25.85 0 44.21 18.36t18.36 44.2v154.87q0 25.85-18.36 44.21T757.43-140H602.56Z"/></svg>