<svg xmlns="http://www.w3.org/2000/svg" height="40" viewBox="0 -960 960 960" width="40"><path d="M240-180.001q-57.922 0-98.961-41.038-41.038-41.039-41.038-98.961v-320q0-57.922 41.038-98.961 41.039-41.038 98.961-41.038h480q57.922 0 98.961 41.038 41.038 41.039 41.038 98.961v320q0 57.922-41.038 98.961-41.039 41.038-98.961 41.038H240Zm0-445.126h480q26.154 0 48.987 8.564 22.834 8.564 40.757 24.59V-640q0-37.462-26.141-63.603T720-729.744H240q-37.462 0-63.603 26.141T150.256-640v48.027q17.923-16.026 40.757-24.59 22.833-8.564 48.987-8.564Zm-87.539 122.589L617.385-390q7.154 1.744 14.833.269 7.679-1.474 13.038-6.679l154.411-129.667q-10.923-21.872-32.244-35.334-21.32-13.462-47.423-13.462H240q-32.769 0-57.205 20.501-24.436 20.5-30.334 51.834Z"/></svg>