<svg xmlns="http://www.w3.org/2000/svg" height="40" viewBox="0 -960 960 960" width="40"><path d="M100.001-202.565v-421.332q0-19.718 10.859-35.358 10.859-15.641 28.577-23.052l317.435-126.794q11.359-4.949 23.128-4.949t23.128 4.949l317.435 126.794q17.718 7.411 28.577 23.052 10.859 15.64 10.859 35.358v421.332q0 25.872-18.346 44.218-18.346 18.346-44.218 18.346H640v-307.692q0-5.385-3.462-8.847-3.462-3.461-8.847-3.461H332.309q-5.385 0-8.847 3.461-3.462 3.462-3.462 8.847v307.692H162.565q-25.872 0-44.218-18.346-18.346-18.346-18.346-44.218Zm276.025 62.564v-61.025h61.025v61.025h-61.025Zm73.462-120v-61.025h61.024v61.025h-61.024Zm73.461 120v-61.025h61.025v61.025h-61.025Z"/></svg>