<svg xmlns="http://www.w3.org/2000/svg" height="40" viewBox="0 -960 960 960" width="40"><path d="M245.129-100.001q-60.666 0-102.897-39.923-42.231-39.923-42.231-100.589v-206.769q0-26.915 12.745-50.451 12.745-23.537 35.332-38.292l307.616-198.666q7.922-5.487 16.679-3.808 8.756 1.679 15.422 8.346 14.744 14.743 15.526 33.666.782 18.923-10.013 36.486l-63.309 103.592h324.872q10.852 0 17.99 7.141 7.138 7.142 7.138 18 0 10.448-7.138 17.781-7.138 7.333-17.99 7.333h-254.87v85.129h334.87q10.852 0 17.99 7.142 7.138 7.141 7.138 17.999 0 10.448-7.138 17.781-7.138 7.333-17.99 7.333h-334.87v85.129h294.87q10.852 0 17.99 7.142 7.138 7.141 7.138 17.999 0 10.448-7.138 17.781-7.138 7.333-17.99 7.333h-294.87v85.13h214.87q10.852 0 17.99 7.141 7.138 7.142 7.138 18 0 10.447-7.138 17.78-7.138 7.334-17.99 7.334H245.129Zm465.089-549.358q-33.217 0-59.153-26.019t-25.936-59.294q0-39.096 24.846-77.339 24.846-38.244 47.923-67.936 4.852-6.154 12.311-6.154 7.458 0 12.407 6.154 23.076 29.692 47.922 67.884 24.846 38.191 24.846 77.577 0 33.202-25.974 59.164-25.975 25.963-59.192 25.963Z"/></svg>