<svg xmlns="http://www.w3.org/2000/svg" viewBox="0 -960 960 960" width="32" height="32"><path d="M775.54-95.44 621.13-248.98l-2.31 1.54-30.77 110.64q-5.26 16.88-18.63 26.84T538.79-100H420.21q-17.26 0-30.63-9.96-13.37-9.96-18.63-26.84l-24.85-89.12q-4.28-16.57-14.79-31.62-10.51-15.05-27.21-29.54-40.35-34.66-62.23-84.77Q220-421.95 220-480q0-34.46 9.01-69.45 9.02-34.99 27.12-64.52l-160.9-160.9q-7.02-7.03-7.09-17.4-.06-10.37 7.09-17.52 7.16-7.41 17.46-7.41 10.31 0 17.46 7.41l680.31 680.05q6.77 7.02 6.96 17.09.19 10.06-6.96 17.21-7.41 7.41-17.59 7.41t-17.33-7.41ZM480-270.26q25.59 0 50.12-5.93 24.52-5.94 45.65-17.55L293.74-575.77q-12 22.69-17.74 46.83-5.74 24.15-5.74 48.94 0 87.46 61.14 148.6T480-270.26Zm132.9-462.82q4.28 16.57 14.79 31.62 10.51 15.05 27.21 29.54 40.35 34.66 62.73 84.56Q740-537.46 740-480q0 29.72-5.95 56.87-5.95 27.16-17.72 52.57-4.1 9.46-14.25 12.71-10.16 3.26-19.57-1.59-9.25-4.64-12.78-14.5-3.53-9.85.99-19.52 9.48-19.59 14.25-41.18t4.77-45.36q0-43.9-16.41-81.79-16.41-37.9-44.89-66.65-47.44-47.18-110.99-57.94-63.55-10.77-123.96 15.48-7.21 3.03-15.57 2.04-8.36-.99-14.41-7.04l-14.82-14.82q-5.77-5.77-7.1-12.79-1.33-7.03.87-14.62l28.49-104.07q5.26-16.88 18.63-27.34T420.21-860h118.58q17.26 0 30.63 10.46 13.37 10.46 18.63 27.34l24.85 89.12Z"/></svg>