<svg xmlns="http://www.w3.org/2000/svg" height="40" viewBox="0 -960 960 960" width="40"><path d="M345.718-131.488q-48 0-71.436-23.385-23.436-23.384-62.179-23.384-16.206 0-30.578 5.731-14.371 5.73-54.269 29.192-12.025 6.82-23.884.231-11.859-6.59-11.859-21.102 0-6.564 3.41-11.795 3.41-5.23 8.821-8.41 50.59-29.641 68-36.871 17.41-7.231 40.359-7.231 47.589 0 70.499 23.385 22.911 23.384 62.706 23.384 40.205 0 63.449-23.384Q432-228.512 480-228.512q47.846 0 70.936 23.385 23.089 23.384 62.936 23.384 40.205 0 63.115-23.384 22.911-23.385 70.91-23.385 22.949 0 40.475 7.231 17.525 7.23 68.294 36.871 5.41 3.18 8.615 8.41 3.205 5.231 3.205 11.795 0 14.512-11.961 21.102-11.961 6.589-23.986-.231-39.513-23.077-53.975-29-14.461-5.923-30.667-5.923-38.743 0-62.179 23.384-23.436 23.385-71.692 23.385-47.59 0-71.115-23.385-23.526-23.384-62.911-23.384-39.539 0-62.91 23.384-23.372 23.385-71.372 23.385Zm0-160q-48 0-71.436-23.385-23.436-23.384-62.179-23.384-16.206 0-30.501 5.628-14.295 5.628-53.936 29.09-12.025 6.82-23.986.231-11.961-6.59-11.961-20.846 0-6.82 3.41-12.051 3.41-5.23 8.82-8.41 50.59-29.384 67.897-36.641 17.308-7.256 40.257-7.256 47.589 0 70.499 23.385 22.911 23.384 62.706 23.384 40.205 0 63.449-23.384Q432-388.512 480-388.512q47.846 0 70.936 23.385 23.089 23.384 62.936 23.384 40.205 0 63.115-23.384 22.911-23.385 70.91-23.385 22.949 0 40.398 7.256 17.448 7.257 68.218 36.641 5.41 3.18 8.486 8.41 3.077 5.231 3.077 12.051 0 14.256-11.833 20.846-11.833 6.589-23.858-.231-39.513-23.077-53.898-28.898-14.384-5.82-30.59-5.82-38.743 0-62.179 23.384-23.436 23.385-71.692 23.385-47.59 0-71.115-23.385-23.526-23.384-62.911-23.384-39.539 0-62.91 23.384-23.372 23.385-71.372 23.385ZM480-648.974q-60.512 0-106.935-38.308-46.423-38.307-59.653-98.153-3.026-13.615 6.269-24.089 9.294-10.475 23.653-10.475h273.332q14.23 0 23.487 10.475 9.256 10.474 6.435 24.089-13.23 59.846-59.653 98.153Q540.512-648.974 480-648.974ZM248.078-794.871q0 10.871-7.128 17.999-7.128 7.128-18 7.128h-63.975q-10.872 0-18-7.128t-7.128-17.999q0-10.872 7.128-18t18-7.128h63.975q10.872 0 18 7.128t7.128 18Zm51.794 145.795q7.564 7.435 7.5 17.999-.064 10.564-7.5 18l-45.155 45.154q-7.23 7.231-17.397 7.231-10.166 0-17.602-7.231-7.82-7.436-7.628-17.999.193-10.564 7.628-18l45.155-45.154q7.23-7.231 17.397-7.231 10.166 0 17.602 7.231ZM480-590.384q10.871 0 17.999 7.128 7.128 7.128 7.128 18v63.975q0 10.871-7.128 17.999-7.128 7.128-17.999 7.128-10.871 0-17.999-7.128-7.128-7.128-7.128-17.999v-63.975q0-10.872 7.128-18T480-590.384Zm180.103-58.385q7.23-7.23 17.307-7.217 10.076.012 17.307 6.833l46.334 45.154q7.82 7.436 8.128 17.628.308 10.192-7.513 17.756-7.564 7.82-17.871 7.82-10.307 0-18.128-7.82l-45.949-45.539q-7.231-7.436-7.141-17.308.09-9.871 7.526-17.307Zm166.05-146.102q0 10.871-7.128 17.999-7.128 7.128-18 7.128H737.05q-10.872 0-18-7.128t-7.128-17.999q0-10.872 7.128-18t18-7.128h63.975q10.872 0 18 7.128t7.128 18Z"/></svg>