<svg xmlns="http://www.w3.org/2000/svg" height="40" viewBox="0 -960 960 960" width="40"><path d="M479.929-100.001q-128.467 0-214.197-88.253-85.731-88.252-85.731-219.691 0-59.029 26.901-118.148 26.9-59.119 67.251-113.523 40.35-54.405 87.124-102.098 46.775-47.693 87.057-83.9 6.948-6.153 14.951-9.243 8.004-3.09 16.715-3.09t16.715 3.09q8.003 3.09 14.951 9.243 40.282 36.207 87.057 83.9 46.774 47.693 87.124 102.098 40.351 54.404 67.251 113.523 26.901 59.119 26.901 118.148 0 131.439-85.801 219.691-85.802 88.253-214.269 88.253Zm-25.056-311.025v146.769q0 9.54 9.204 12.231 9.205 2.691 14.077-5.385L589.968-445.2q4.748-8.184-.077-15.979t-13.526-7.795h-71.238v-146.769q0-9.54-9.204-12.231-9.205-2.691-14.077 5.385L370.032-434.8q-4.748 8.184.077 15.979t13.526 7.795h71.238Z"/></svg>