<svg xmlns="http://www.w3.org/2000/svg" height="40" viewBox="0 -960 960 960" width="40"><path d="M614.795-83.231q-7.205 3.025-14.692.436-7.487-2.59-10.256-9.795l-4.616-10.615q-7.615-16.616-10.91-33.914-3.295-17.299-3.295-34.881 0-21.39 5.398-42.413 5.397-21.023 15.012-41.023 8.257-17 13.923-34.972 5.667-17.973 5.667-37.592 0-16.443-3.5-31.824t-10.295-29.766l-1.384-2.667q-3.436-7.205-.512-14.607 2.923-7.403 9.999-10.231 7.076-3.084 14.23-.494 7.154 2.589 10.589 9.794l4.206 9.795q7.615 16.616 11.115 34.203 3.5 17.588 3.5 35.797 0 21.184-5.192 41.4-5.193 20.215-14.398 39.549-8.267 17.402-14.338 36.356-6.072 18.954-6.072 38.819 0 15.056 3.333 29.863 3.334 14.808 9.462 28.418l2.384 5.185q3.436 7.205.541 14.715-2.894 7.51-9.899 10.464Zm120 0q-7.205 3.025-14.692.436-7.487-2.59-10.256-9.795l-4.616-10.615q-7.615-16.616-10.91-33.914-3.295-17.299-3.295-34.881 0-21.39 5.398-42.413 5.397-21.023 15.012-41.023 8.257-17 13.923-34.972 5.667-17.973 5.667-37.592 0-16.443-3.5-31.824t-10.295-29.766l-1.384-2.667q-3.436-7.205-.512-14.607 2.923-7.403 9.999-10.231 7.076-3.084 14.23-.494 7.154 2.589 10.589 9.794l4.359 9.163q7.052 17.171 10.757 34.889 3.705 17.717 3.705 35.743 0 20.8-4.808 40.887-4.807 20.087-14.013 38.908-8.651 18.171-14.915 37.19-6.264 19.018-6.264 39.139 0 15.056 3.333 29.863 3.334 14.808 9.462 28.418l2.384 5.185q3.436 7.205.541 14.715-2.894 7.51-9.899 10.464Zm110.539-333.864q7.076-3.084 14.23-.494 7.154 2.589 10.589 9.794l4.616 9.385q8 16.615 11.102 34.375 3.103 17.759 3.103 36.285 0 20.57-4.808 40.75-4.807 20.179-14.013 38.743-8.651 18.57-14.915 37.278-6.264 18.708-6.264 38.987 0 15.172 3.333 29.979 3.334 14.808 9.462 28.418l2.384 5.185q1.411 2.949-1.564 7.936-2.974 4.987-5.948 9.435-2.975 4.449-4.449 7.039-1.474 2.59 2.603.769-7.205 3.025-14.692.436-7.487-2.59-10.256-9.795l-4.616-10.615q-7.615-16.616-10.91-33.914-3.295-17.299-3.295-34.881 0-21.39 5.398-42.413 5.397-21.023 15.012-41.023 8.257-17 13.923-34.972 5.667-17.973 5.667-37.592 0-16.443-3.5-31.824t-10.295-29.766l-1.384-2.667q-3.436-7.205-.512-14.607 2.923-7.403 9.999-10.231ZM479.778-843.101q5.837 0 11.166 1.911 5.329 1.91 9.774 6.243 67 60.744 136.448 135.115 69.449 74.372 109.474 159.756 7.949 15.795-2.154 30.526-10.102 14.73-27.82 14.73H563.333q-25.705 0-44.134 18.301-18.429 18.301-18.429 44.263v298.614q0 18.461-12.641 25.692-12.641 7.231-28.897 7.231-133.923 0-206.577-84.5T180.001-408q0-60.769 28.064-121.153 28.064-60.385 70.05-115.726 41.986-55.342 90.808-104.026 48.821-48.683 90.154-86.042 4.615-4.333 10.064-6.243 5.449-1.911 10.637-1.911Z"/></svg>