<svg xmlns="http://www.w3.org/2000/svg" height="40" viewBox="0 -960 960 960" width="40"><path d="M259.895-213.334q-15.151 0-25.856-10.81-10.705-10.809-10.705-25.961 0-15.151 10.81-25.856 10.809-10.705 25.961-10.705 15.151 0 25.856 10.81 10.705 10.809 10.705 25.961 0 15.151-10.81 25.856-10.809 10.705-25.961 10.705Zm120 124.872q-15.151 0-25.856-10.81-10.705-10.81-10.705-25.961 0-15.151 10.81-25.856 10.809-10.705 25.961-10.705 15.151 0 25.856 10.809 10.705 10.81 10.705 25.962 0 15.151-10.81 25.856-10.809 10.705-25.961 10.705Zm120-124.872q-15.151 0-25.856-10.81-10.705-10.809-10.705-25.961 0-15.151 10.81-25.856 10.809-10.705 25.961-10.705 15.151 0 25.856 10.81 10.705 10.809 10.705 25.961 0 15.151-10.81 25.856-10.809 10.705-25.961 10.705Zm240 0q-15.151 0-25.856-10.81-10.705-10.809-10.705-25.961 0-15.151 10.81-25.856 10.809-10.705 25.961-10.705 15.151 0 25.856 10.81 10.705 10.809 10.705 25.961 0 15.151-10.81 25.856-10.809 10.705-25.961 10.705Zm-120 124.872q-15.151 0-25.856-10.81-10.705-10.81-10.705-25.961 0-15.151 10.81-25.856 10.809-10.705 25.961-10.705 15.151 0 25.856 10.809 10.705 10.81 10.705 25.962 0 15.151-10.81 25.856-10.809 10.705-25.961 10.705ZM295.128-379.744q-84.909 0-145.018-60.077Q90-499.899 90-584.762q0-78.52 54.27-137.699 54.269-59.179 135.859-66.718 30.846-56.205 82.935-88.513 52.09-32.307 117.11-32.307 88.313 0 150.069 57.307Q692-795.384 704.076-710.179q76.436 4.154 121.18 52.295 44.743 48.141 44.743 112.865 0 68.608-48.194 116.942-48.194 48.333-116.933 48.333H295.128Z"/></svg>