<svg xmlns="http://www.w3.org/2000/svg" height="40" viewBox="0 -960 960 960" width="40"><path d="M760.126-147.694q-10.741 0-17.869-7.221t-7.128-17.907v-94.872h-94.873q-10.686 0-17.906-7.259-7.221-7.258-7.221-17.999t7.221-17.869q7.22-7.128 17.906-7.128h94.873v-94.873q0-10.685 7.258-17.906 7.259-7.221 18-7.221t17.869 7.221q7.128 7.221 7.128 17.906v94.873h94.872q10.686 0 17.907 7.258 7.221 7.259 7.221 18t-7.221 17.869q-7.221 7.128-17.907 7.128h-94.872v94.872q0 10.686-7.259 17.907-7.258 7.221-17.999 7.221Zm-279.97-24.821q-11.105 0-21.566-3.91-10.462-3.91-18.707-12.155l-360.6-360.856q-9.563-9.308-14.576-21.474-5.013-12.167-5.013-24.936 0-14.359 5.887-27.608t18.19-22.828q86.051-64.768 186.538-99.242 100.486-34.475 209.627-34.475 109.14 0 209.691 34.475 100.551 34.474 186.505 99.146 12.174 9.122 18.366 22.148 6.192 13.025 6.192 27.384 0 12.769-4.911 25.087-4.912 12.318-14.806 22.323l-40.359 40.358q-5.159 5.284-12.31 7.117-7.151 1.832-14.305-.578-14.974-4.359-30.299-6.128-15.325-1.77-30.777-1.77-91.332 1.077-155.461 65.334-64.129 64.257-65.206 155.333 0 15.453 1.77 30.777 1.769 15.325 6.128 30.299 1.948 7.154.312 14.419-1.636 7.265-6.851 12.196l-13.384 13.385q-8.359 8.359-18.665 12.269-10.305 3.91-21.41 3.91Z"/></svg>