<svg xmlns="http://www.w3.org/2000/svg" height="40" viewBox="0 -960 960 960" width="40"><path d="M869.878-604.872q-10.75 0-17.878-7.214-7.128-7.215-7.128-17.913v-160q0-10.699 7.249-17.913 7.25-7.215 18-7.215t17.878 7.215q7.128 7.214 7.128 17.913v160q0 10.698-7.25 17.913-7.249 7.214-17.999 7.214ZM140.001-202.565v-554.87q0-25.705 18.43-44.134 18.429-18.43 44.134-18.43h474.87q25.705 0 44.134 18.43 18.43 18.429 18.43 44.134v554.87q0 25.705-18.43 44.134-18.429 18.43-44.134 18.43h-474.87q-25.705 0-44.134-18.43-18.43-18.429-18.43-44.134Zm80.768-302.562h183.847v-19.872q0-6.205 4.73-10.859 4.731-4.654 11.039-4.654h39.487q6.205 0 10.858 4.654 4.654 4.654 4.654 10.859v19.872h183.847v-221.796q0-5.385-3.462-8.846-3.461-3.462-8.846-3.462H233.077q-5.385 0-8.846 3.462-3.462 3.461-3.462 8.846v221.796Zm12.308 284.358h413.846q5.385 0 8.846-3.462 3.462-3.461 3.462-8.846v-221.796H220.769v221.796q0 5.385 3.462 8.846 3.461 3.462 8.846 3.462Zm-30.512 30.513h474.87q5.385 0 8.847-3.462 3.462-3.462 3.462-8.847v-554.87q0-5.385-3.462-8.847-3.462-3.462-8.847-3.462h-474.87q-5.385 0-8.847 3.462-3.462 3.462-3.462 8.847v554.87q0 5.385 3.462 8.847 3.462 3.462 8.847 3.462Z"/></svg>