<svg xmlns="http://www.w3.org/2000/svg" height="40" viewBox="0 -960 960 960" width="40"><path d="M820.771-118.052 523.359-415.054l-25.001 113.053H366.873l43.487-223.231-108.617 47.308v106.334q0 10.699-7.25 17.913-7.249 7.215-17.999 7.215t-17.878-7.215q-7.128-7.214-7.128-17.913v-119.64q0-9.565 5.288-17.281 5.289-7.716 13.814-11.591l104.335-43.18L68.515-869.95q-7.437-7.179-7.526-17.679-.09-10.499 7.509-18.063 7.89-7.82 18.016-7.82 10.127 0 17.948 7.82L856.77-153.435q7.435 7.552 7.628 17.686.192 10.133-7.663 17.825-7.856 7.692-17.983 7.692t-17.981-7.82Zm-658.206-33.949q-25.788 0-44.176-18.388t-18.388-44.176v-88.513q0-10.698 7.25-17.913 7.249-7.214 17.999-7.214t17.878 7.214q7.128 7.215 7.128 17.913v88.513q0 4.616 3.847 8.462 3.846 3.847 8.462 3.847h88.513q10.698 0 17.913 7.249 7.214 7.25 7.214 18t-7.214 17.878q-7.215 7.128-17.913 7.128h-88.513Zm647.179-608.921v-88.513q0-4.616-3.847-8.462-3.846-3.847-8.462-3.847h-88.513q-10.698 0-17.913-7.249-7.214-7.25-7.214-17.999 0-10.751 7.214-17.879 7.215-7.128 17.913-7.128h88.513q25.788 0 44.176 18.388t18.388 44.176v88.513q0 10.698-7.25 17.913-7.249 7.214-17.999 7.214t-17.878-7.214q-7.128-7.215-7.128-17.913Zm-709.743 25.127v-111.077q0-12.886 4.605-24.269 4.604-11.384 11.934-20.166l35.717 36.178q-1.154 1.667-2.116 3.911-.962 2.244-.962 4.552v110.871h-49.178Zm608.921 583.794q-10.698 0-17.913-7.25-7.214-7.249-7.214-17.999t7.214-17.878q7.215-7.128 17.913-7.128h76.462q2.308 0 4.423-.962 2.116-.962 3.27-2.885l35.717 35.768q-7.445 8.483-18.375 13.408-10.93 4.926-24.009 4.926h-77.488ZM247.897-861.744l-50.255-50.255h78.563q10.699 0 17.913 7.25 7.215 7.249 7.215 17.999t-7.215 17.878q-7.214 7.128-17.913 7.128h-28.308Zm612.102 612.102-50.255-50.255v-28.308q0-10.699 7.249-17.913 7.25-7.215 17.999-7.215 10.751 0 17.879 7.215 7.128 7.214 7.128 17.913v78.563ZM540.064-644.924q-29.269 0-49.897-20.563-20.628-20.564-20.628-49.833 0-29.27 20.564-49.898 20.563-20.628 49.833-20.628 29.269 0 49.897 20.564t20.628 49.833q0 29.269-20.564 49.897-20.563 20.628-49.833 20.628Z"/></svg>