<svg xmlns="http://www.w3.org/2000/svg" height="40" viewBox="0 -960 960 960" width="40"><path d="M304.873-269.079 177.334-141.54q-7.231 7.231-17.5 7.218-10.269-.013-17.884-7.628t-7.615-17.897q0-10.282 7.615-17.897l127.129-127.129h-103.95q-10.679 0-17.903-7.263-7.225-7.263-7.225-18 0-10.736 7.225-17.864 7.224-7.128 17.903-7.128h158.717q13.295 0 22.289 8.993 8.993 8.994 8.993 22.289v158.717q0 10.679-7.263 17.903-7.263 7.225-17.999 7.225-10.737 0-17.865-7.225-7.128-7.224-7.128-17.903v-103.95Zm350.254 0v103.95q0 10.679-7.263 17.903-7.263 7.225-18 7.225-10.736 0-17.864-7.225-7.128-7.224-7.128-17.903v-158.717q0-13.295 8.993-22.289 8.994-8.993 22.289-8.993h158.717q10.679 0 17.903 7.263 7.225 7.263 7.225 17.999 0 10.737-7.225 17.865-7.224 7.128-17.903 7.128h-103.95L818.46-177.334q7.231 7.231 7.423 17.5.193 10.269-7.423 17.884-7.615 7.615-17.897 7.615-10.281 0-17.896-7.615l-127.54-127.129ZM269.079-655.127 141.54-782.667q-7.231-7.23-7.218-17.704.013-10.474 7.628-18.089 7.615-7.616 17.897-7.616 10.282 0 17.897 7.616l127.129 127.539v-103.95q0-10.679 7.263-17.903 7.263-7.225 18-7.225 10.736 0 17.864 7.225 7.128 7.224 7.128 17.903v158.717q0 13.295-8.993 22.289-8.994 8.993-22.289 8.993H165.129q-10.679 0-17.903-7.263-7.225-7.263-7.225-17.999 0-10.737 7.225-17.865 7.224-7.128 17.903-7.128h103.95Zm421.842 0h103.95q10.679 0 17.903 7.263 7.225 7.263 7.225 18 0 10.736-7.225 17.864-7.224 7.128-17.903 7.128H636.154q-13.295 0-22.289-8.993-8.993-8.994-8.993-22.289v-158.717q0-10.679 7.263-17.903 7.263-7.225 17.999-7.225 10.737 0 17.865 7.225 7.128 7.224 7.128 17.903v103.95l127.95-127.95q7.23-7.23 17.833-7.422 10.602-.193 17.961 7.422 7.615 7.359 7.615 17.769 0 10.41-7.615 18.025l-127.95 127.95Z"/></svg>