<svg xmlns="http://www.w3.org/2000/svg" height="48" viewBox="0 -960 960 960" width="48"><path d="m726-728-72-32q-5-2-7-5t-2-8q0-5 2-8.5t7-5.5l72-31 29-69q2-5 5.5-7.5t8.5-2.5q5 0 8.5 2.5t5.5 7.5l29 69 72 31q5 2 7 5.5t2 8.5q0 5-2 8t-7 5l-72 32-29 65q-2 5-5.5 7t-8.5 2q-5 0-8.5-2t-5.5-7l-29-65ZM240-391 85-460q-7-3-10.5-9T71-481q0-6 3.5-12t10.5-9l155-69 72-153q3-7 8.5-10t11.5-3q6 0 11.5 2.5t8.5 9.5l73 154 155 69q7 3 10.5 9t3.5 12q0 6-3.5 12t-10.5 9l-155 69-73 154q-3 7-8.5 10t-11.5 3q-6 0-11.5-3t-8.5-10l-72-154Zm92 49 48-96 98-43-98-43-48-96-47 96-99 43 99 43 47 96Zm397 206-72-31q-5-2-7-5.5t-2-8.5q0-5 2-8.5t7-5.5l72-31 29-69q2-5 5.5-7t8.5-2q5 0 8.5 2t5.5 7l29 69 72 31q5 2 7 5.5t2 8.5q0 5-2 8.5t-7 5.5l-72 31-29 66q-2 5-5.5 7t-8.5 2q-5 0-8.5-2t-5.5-7l-29-66ZM332-481Z"/></svg>