<svg xmlns="http://www.w3.org/2000/svg" height="48" viewBox="0 -960 960 960" width="48"><path d="m671-717-54-27q-8-4-8-13t8-13l54-27 27-54q4-8 13-8t13 8l27 54 54 27q8 4 8 13t-8 13l-54 27-27 54q-4 8-13 8t-13-8l-27-54ZM561-80q-51 0-85.5-35.5T441-208q0-50 23.5-86t58.5-60q35-24 74.5-36.5T669-406q-3-57-24.5-82T584-513q-39 0-73 23.5T420-388q-63 84-101.5 113T234-246q-43 0-78.5-29T120-374q0-32 22.5-82.5T220-596q26-38 37.5-63t11.5-42q0-11-6-17.5t-18-6.5q-9 0-19.5 4.5T202-705q-11 10-25 10t-24-10q-11-11-11-25.5t11-25.5q23-20 46-30t46-10q42 0 68.5 28t26.5 70q0 35-18.5 70T263-532q-45 67-58.5 99T191-369q0 32 16.5 42t34.5 10q24 0 49-23t77-91q68-88 118-120.5T593-584q66 0 104 48.5T740-409h65q15 0 25 10.5t10 25.5q0 15-10 25t-25 10h-65q-10 155-69 206.5T561-80Zm3-71q31 0 66.5-40T671-336q-49 5-104 40t-55 95q0 23 13.5 36.5T564-151Z"/></svg>