<?xml version="1.0" encoding="utf-8"?>
<!-- Generator: Adobe Illustrator 18.0.0, SVG Export Plug-In . SVG Version: 6.00 Build 0)  -->
<!DOCTYPE svg PUBLIC "-//W3C//DTD SVG 1.1//EN" "http://www.w3.org/Graphics/SVG/1.1/DTD/svg11.dtd">
<svg version="1.1" id="Layer_1" xmlns="http://www.w3.org/2000/svg" xmlns:xlink="http://www.w3.org/1999/xlink" x="0px" y="0px"
	 width="180.365px" height="180.365px" viewBox="0 0 180.365 180.365" enable-background="new 0 0 180.365 180.365"
	 xml:space="preserve">
<path fill="#002776" d="M136.763,121.324H43.601c-3.131,0-5.669-2.538-5.669-5.669V59.249c0-3.131,2.538-5.669,5.669-5.669h93.161
	c3.131,0,5.669,2.538,5.669,5.669v56.406C142.432,118.785,139.894,121.324,136.763,121.324z M44.432,114.824h91.5V60.079h-91.5
	V114.824z"/>
<g>
	<path fill="#002776" d="M63.132,96.601c0-1.212,0.641-1.853,1.853-1.853h3.267V84.713c0-0.909,0.033-1.853,0.033-1.853h-0.066
		c0,0-0.337,0.741-0.741,1.078l-0.303,0.269c-0.876,0.808-1.785,0.774-2.594-0.101l-0.875-0.942
		c-0.842-0.876-0.809-1.785,0.067-2.627l4.176-3.906c0.707-0.64,1.347-0.909,2.29-0.909h1.919c1.213,0,1.853,0.64,1.853,1.852
		v17.175h3.3c1.213,0,1.853,0.641,1.853,1.853v1.347c0,1.213-0.64,1.853-1.853,1.853H64.985c-1.212,0-1.853-0.64-1.853-1.853V96.601
		z"/>
	<path fill="#002776" d="M81.08,87.71c0-6.903,2.223-12.393,9.059-12.393c6.836,0,9.059,5.489,9.059,12.393
		c0,6.903-2.223,12.494-9.059,12.494C83.302,100.204,81.08,94.614,81.08,87.71z M93.135,87.71c0-3.906-0.673-7.005-2.997-7.005
		c-2.323,0-2.997,3.099-2.997,7.005c0,3.94,0.674,7.105,2.997,7.105C92.462,94.816,93.135,91.651,93.135,87.71z"/>
	<path fill="#002776" d="M102.224,87.71c0-6.903,2.223-12.393,9.059-12.393s9.059,5.489,9.059,12.393
		c0,6.903-2.223,12.494-9.059,12.494S102.224,94.614,102.224,87.71z M114.28,87.71c0-3.906-0.673-7.005-2.997-7.005
		c-2.323,0-2.997,3.099-2.997,7.005c0,3.94,0.674,7.105,2.997,7.105C113.607,94.816,114.28,91.651,114.28,87.71z"/>
</g>
</svg>
