<?xml version="1.0" encoding="utf-8"?>
<!-- Generator: Adobe Illustrator 18.0.0, SVG Export Plug-In . SVG Version: 6.00 Build 0)  -->
<!DOCTYPE svg PUBLIC "-//W3C//DTD SVG 1.1//EN" "http://www.w3.org/Graphics/SVG/1.1/DTD/svg11.dtd">
<svg version="1.1" id="Layer_1" xmlns="http://www.w3.org/2000/svg" xmlns:xlink="http://www.w3.org/1999/xlink" x="0px" y="0px"
	 width="180.4px" height="180.4px" viewBox="0 0 180.4 180.4" enable-background="new 0 0 180.4 180.4" xml:space="preserve">
<path fill="#002776" d="M90.2,38.2c-28.1,0-51,22.9-51,51s22.9,51,51,51s51-22.9,51-51S118.3,38.2,90.2,38.2z M90.2,133.2
	c-24.3,0-44-19.7-44-44s19.7-44,44-44s44,19.7,44,44C134.2,113.4,114.4,133.2,90.2,133.2z"/>
<g>
	<path fill="#002776" d="M106.1,68.6L84.9,105L74.3,90.4c-0.3-0.4-0.8-0.7-1.3-0.7h-1.6c-1.3,0-2.1,1.5-1.3,2.5l12.3,17.1
		c1.4,1.9,4.2,1.7,5.4-0.3l22.6-38.9c0.6-1.1-0.2-2.4-1.4-2.4h-1.5C106.9,67.8,106.4,68.1,106.1,68.6z"/>
	<path fill="#002776" d="M85,112.3c-1.5,0-3-0.7-3.9-2L68.8,93.2c-0.7-1-0.8-2.3-0.3-3.3c0.6-1.1,1.6-1.7,2.9-1.7H73
		c1,0,2,0.5,2.6,1.4l9.1,12.6l20-34.3c0.5-0.9,1.5-1.5,2.6-1.6h0.2h1.5c1.2,0,2.2,0.6,2.8,1.6c0.6,1,0.6,2.2,0,3.2l-22.6,38.9
		C88.3,111.4,86.7,112.3,85,112.3z M71.4,91.3l12.3,17.1c0.3,0.4,0.8,0.7,1.3,0.7c0.3,0,1-0.1,1.4-0.8L109,69.3h-1.5
		c-0.1,0-0.1,0-0.1,0L85.1,108L73,91.3L71.4,91.3z"/>
</g>
</svg>
