<?xml version="1.0" encoding="utf-8"?>
<!-- Generator: Adobe Illustrator 18.0.0, SVG Export Plug-In . SVG Version: 6.00 Build 0)  -->
<!DOCTYPE svg PUBLIC "-//W3C//DTD SVG 1.1//EN" "http://www.w3.org/Graphics/SVG/1.1/DTD/svg11.dtd">
<svg version="1.1" id="Layer_4" xmlns="http://www.w3.org/2000/svg" xmlns:xlink="http://www.w3.org/1999/xlink" x="0px" y="0px"
	 width="180.365px" height="180.365px" viewBox="0 0 180.365 180.365" enable-background="new 0 0 180.365 180.365"
	 xml:space="preserve">
<path fill="#002776" d="M122.136,125.285H58.412c-3.131,0-5.669-2.538-5.669-5.669V77.943h6.5v40.842h62.063V77.943h6.5v41.673
	C127.806,122.747,125.267,125.285,122.136,125.285z"/>
<path fill="#002776" d="M132.461,73.888H48.133v-8.392c0-5.203,4.232-9.436,9.436-9.436h65.457c5.203,0,9.436,4.232,9.436,9.436
	V73.888z M54.633,67.388h71.328v-1.892c0-1.619-1.316-2.936-2.936-2.936H57.568c-1.619,0-2.936,1.316-2.936,2.936V67.388z"/>
<path fill="#002776" d="M139.35,93.529h-14.794v-7h14.794c1.566,0,2.835,1.269,2.835,2.835v1.331
	C142.185,92.26,140.915,93.529,139.35,93.529z"/>
<path fill="#002776" d="M55.814,93.529H41.019c-1.565,0-2.835-1.269-2.835-2.835v-1.331c0-1.566,1.269-2.835,2.835-2.835h14.795
	V93.529z"/>
<path fill="#002776" d="M102.988,60.808h-6.5v-4.37c0-3.414-2.777-6.191-6.191-6.191c-3.414,0-6.191,2.777-6.191,6.191v4.37h-6.5
	v-4.37c0-6.998,5.693-12.691,12.691-12.691c6.998,0,12.691,5.693,12.691,12.691V60.808z"/>
</svg>
