<?xml version="1.0" encoding="utf-8"?>
<!-- Generator: Adobe Illustrator 18.0.0, SVG Export Plug-In . SVG Version: 6.00 Build 0)  -->
<!DOCTYPE svg PUBLIC "-//W3C//DTD SVG 1.1//EN" "http://www.w3.org/Graphics/SVG/1.1/DTD/svg11.dtd">
<svg version="1.1" id="Layer_4" xmlns="http://www.w3.org/2000/svg" xmlns:xlink="http://www.w3.org/1999/xlink" x="0px" y="0px"
	 width="180.365px" height="180.365px" viewBox="0 0 180.365 180.365" enable-background="new 0 0 180.365 180.365"
	 xml:space="preserve">
<path fill="#002776" d="M140.683,119.272H39.685c-4.22,0-8.05-2.753-9.121-6.835c-1.147-4.371,0.839-8.674,4.87-10.632
	l39.848-18.964c1.414-0.673,3.105-0.072,3.778,1.342l0.679,1.427c0.673,1.414,0.072,3.105-1.342,3.778L38.575,108.34
	c-1.23,0.598-1.124,1.72-1.02,2.173c0.104,0.454,0.498,1.51,1.896,1.51h101.467c1.381,0,1.782-1.04,1.891-1.487
	c0.108-0.447,0.229-1.556-0.999-2.188L90.605,81.948c-2.883-1.485-4.673-4.423-4.673-7.666v-7.96c0-3.79,2.397-7.085,5.967-8.199
	c3.575-1.116,5.869-4.648,5.454-8.4c-0.396-3.595-3.293-6.491-6.887-6.888c-2.281-0.257-4.457,0.44-6.142,1.948
	c-1.151,1.031-1.962,2.371-2.352,3.838c-0.32,1.206-1.463,2.01-2.71,2.01h-1.631c-1.805,0-3.187-1.673-2.775-3.431
	c0.7-2.992,2.305-5.733,4.632-7.818c4.55-4.076,11.332-5.126,17.183-2.115c3.197,1.645,5.697,4.472,6.965,7.836
	c3.198,8.479-1.486,17.416-9.579,19.941c-0.517,0.16-0.877,0.687-0.877,1.278v7.96c0,0.515,0.287,0.987,0.745,1.223l51.204,26.398
	c3.949,2.036,5.843,6.364,4.633,10.683C148.642,116.596,144.847,119.272,140.683,119.272z"/>
</svg>
