<?xml version="1.0" encoding="utf-8"?>
<!-- Generator: Adobe Illustrator 17.1.0, SVG Export Plug-In . SVG Version: 6.00 Build 0)  -->
<!DOCTYPE svg PUBLIC "-//W3C//DTD SVG 1.1//EN" "http://www.w3.org/Graphics/SVG/1.1/DTD/svg11.dtd">
<svg version="1.1" id="prod" xmlns="http://www.w3.org/2000/svg" xmlns:xlink="http://www.w3.org/1999/xlink" x="0px" y="0px"
	 width="180.4px" height="180.4px" viewBox="0 0 180.4 180.4" enable-background="new 0 0 180.4 180.4" xml:space="preserve">
<g>
	<path fill="#002776" d="M90.2,138.8c-0.3,0-0.7,0-1,0c-25.8-0.5-46.5-21.2-47.6-46.6c-0.1-1.6,1.3-3,2.9-2.9l1.3,0
		c1.5,0,2.7,1.2,2.8,2.7c0.9,21.7,18.7,39.3,40.7,39.8c11.7,0.2,22.7-4.3,30.8-12.7c7.2-7.5,11.4-17.5,11.6-27.9
		c0.3-11.2-3.8-21.8-11.6-29.8c-7.7-8-18-12.6-29.2-12.8c-12.8-0.3-24.8,5.3-33,15.1l-5.4-4.5c9.5-11.5,23.5-18,38.5-17.7
		c13,0.3,25.1,5.6,34.1,14.9c9,9.4,13.8,21.7,13.5,34.6c-0.3,13-5.6,25.1-14.9,34.1C114.7,134,102.8,138.8,90.2,138.8z"/>
</g>
<g>
	<path fill="#002776" d="M60.9,72.4H47.2c-1.6,0-2.8-1.3-2.8-2.8V55.8c0-2.5,3.1-3.8,4.8-2l13.7,13.7C64.7,69.4,63.5,72.4,60.9,72.4
		z"/>
</g>
<g>
	<g>
		<path fill="#002776" d="M70.4,80.7c0-1.2,0.6-1.9,1.9-1.9h2.2c1.2,0,1.9,0.6,1.9,1.9v7.5h2.5l4.3-8.1c0.5-0.9,1.2-1.3,2.2-1.3h2.3
			c1.5,0,2,1,1.3,2.2l-5.3,9.4v0.1l5.7,10.4c0.7,1.3,0.2,2.2-1.3,2.2h-2.6c-1,0-1.7-0.4-2.2-1.3l-4.4-8.6h-2.5v8
			c0,1.2-0.6,1.9-1.9,1.9h-2.2c-1.2,0-1.9-0.6-1.9-1.9V80.7z"/>
		<path fill="#002776" d="M92.8,80.7c0-1.2,0.6-1.9,1.9-1.9h6.6c2.5,0,3.7,0.2,4.7,0.6c2.8,1.1,4.5,3.5,4.5,7.1
			c0,2.6-1.2,5.4-3.6,6.6v0.1c0,0,0.3,0.4,0.9,1.5l3.5,6.3c0.8,1.3,0.2,2.2-1.3,2.2h-2.6c-1,0-1.7-0.4-2.2-1.3l-3.6-6.9h-2.8v6.3
			c0,1.2-0.6,1.9-1.9,1.9h-2.2c-1.2,0-1.9-0.6-1.9-1.9V80.7z M101.4,89.9c1.9,0,3.1-1.1,3.1-3c0-1.2-0.3-2.1-1.4-2.6
			c-0.5-0.2-1.3-0.3-2.2-0.3h-2v5.9H101.4z"/>
	</g>
</g>
</svg>
