<?xml version="1.0" encoding="utf-8"?>
<!-- Generator: Adobe Illustrator 17.1.0, SVG Export Plug-In . SVG Version: 6.00 Build 0)  -->
<!DOCTYPE svg PUBLIC "-//W3C//DTD SVG 1.1//EN" "http://www.w3.org/Graphics/SVG/1.1/DTD/svg11.dtd">
<svg version="1.1" xmlns="http://www.w3.org/2000/svg" xmlns:xlink="http://www.w3.org/1999/xlink" x="0px" y="0px" width="180.4px"
	 height="180.4px" viewBox="0 0 180.4 180.4" enable-background="new 0 0 180.4 180.4" xml:space="preserve">
<g id="sirkel" display="none">
	<circle display="inline" fill="#FFFFFF" cx="90.2" cy="90.2" r="90.2"/>
</g>
<g id="prod">
	<g>
		<g>
			<path fill="#002776" d="M87.2,137.1c-18.1,0-32.8-14.7-32.8-32.8c0-18.1,14.7-32.8,32.8-32.8s32.8,14.7,32.8,32.8
				C119.9,122.3,105.2,137.1,87.2,137.1z M87.2,78.5c-14.2,0-25.8,11.6-25.8,25.8c0,14.2,11.6,25.8,25.8,25.8s25.8-11.6,25.8-25.8
				C112.9,90,101.4,78.5,87.2,78.5z"/>
		</g>
		<g>
			<g>
				<path fill="#002776" d="M66.2,40.4c0-1.3,0.7-2,2-2h2.3c1.3,0,2,0.7,2,2v8h2.6l4.6-8.5c0.5-1,1.3-1.4,2.3-1.4h2.5
					c1.6,0,2.2,1,1.4,2.4l-5.6,10v0.1l6.1,11c0.8,1.4,0.2,2.4-1.4,2.4h-2.8c-1.1,0-1.8-0.4-2.3-1.4l-4.7-9.1h-2.6v8.5
					c0,1.3-0.7,2-2,2h-2.3c-1.3,0-2-0.7-2-2V40.4z"/>
				<path fill="#002776" d="M90,40.4c0-1.3,0.7-2,2-2h7c2.6,0,3.9,0.2,5,0.6c2.9,1.1,4.8,3.8,4.8,7.5c0,2.7-1.3,5.7-3.9,7v0.1
					c0,0,0.4,0.5,1,1.6l3.7,6.6c0.8,1.4,0.2,2.4-1.4,2.4h-2.7c-1.1,0-1.8-0.4-2.3-1.4l-3.8-7.3h-3v6.7c0,1.3-0.7,2-2,2H92
					c-1.3,0-2-0.7-2-2V40.4z M99,50.1c2,0,3.3-1.1,3.3-3.2c0-1.3-0.3-2.3-1.5-2.7c-0.6-0.3-1.3-0.4-2.4-0.4h-2.1v6.3H99z"/>
			</g>
		</g>
		<g>
			<path fill="#002776" d="M85,115.3c-12.3,0-23.8-1.2-32.6-3.4C42.2,109.3,37,105.7,37,101c0-6.3,8.9-9.1,23.3-11.4l1,5.9
				c-16.4,2.6-18.1,5-18.3,5.5c0.4,2.2,13.9,8.3,42,8.3c13.2,0,36.2-3,45.9-11.3l3.9,4.6C127.5,108.9,109.2,115.3,85,115.3z"/>
		</g>
		<g>
			<path fill="#002776" d="M128.9,93.5l8.6,1.6c1.5,0.3,2.6,1.8,2.3,3.3l-1.6,8.6c-0.5,2.5-3.7,3.2-5.1,1.1l-7-10.2
				C124.6,95.8,126.4,93,128.9,93.5z"/>
		</g>
	</g>
</g>
</svg>
