<?xml version="1.0" encoding="utf-8"?>
<!-- Generator: Adobe Illustrator 18.0.0, SVG Export Plug-In . SVG Version: 6.00 Build 0)  -->
<!DOCTYPE svg PUBLIC "-//W3C//DTD SVG 1.1//EN" "http://www.w3.org/Graphics/SVG/1.1/DTD/svg11.dtd">
<svg version="1.1" id="Sparebanken_1_Hedmark" xmlns="http://www.w3.org/2000/svg" xmlns:xlink="http://www.w3.org/1999/xlink"
	 x="0px" y="0px" width="261.757px" height="78.197px" viewBox="0 0 261.757 78.197" enable-background="new 0 0 261.757 78.197"
	 xml:space="preserve">
<g>
	<rect x="0" y="0" fill="none" width="261.757" height="78.208"/>
	<g>
		<g>
			<g>
				<path fill="#002776" d="M170.683,61.558h-2.882c-0.216,0-0.366-0.107-0.366-0.28l-0.216-3.764
					c-0.086-1.701-1.592-1.96-3.248-2.002l-2.886-0.086v5.809c0,0.194-0.15,0.323-0.345,0.323h-2.86
					c-0.194,0-0.345-0.129-0.345-0.323V45.999c0-0.192,0.173-0.343,0.366-0.343h7.402c3.359,0,5.444,1.055,5.444,4.41
					c0,2.261-0.896,3.713-3.995,4.163c3.012,0.162,3.988,0.849,4.117,3.819l0.137,3.164
					C171.006,61.343,170.877,61.558,170.683,61.558z M164.553,48.109h-3.468v5.122l3.079-0.15c1.872-0.087,2.947-0.581,2.947-2.432
					C167.112,48.906,166.444,48.109,164.553,48.109z"/>
				<path fill="#002776" d="M82.422,61.558h-2.863c-0.193,0-0.366-0.129-0.366-0.323v-6.519h-7.08v6.519
					c0,0.194-0.151,0.323-0.345,0.323h-2.862c-0.193,0-0.344-0.129-0.344-0.323V46.042c0-0.171,0.129-0.278,0.323-0.3l2.905-0.365
					h0.043c0.194,0,0.28,0.151,0.28,0.301v6.369h7.08v-6.005c0-0.171,0.151-0.278,0.344-0.3l2.906-0.365h0.043
					c0.171,0,0.28,0.151,0.28,0.301v15.557C82.766,61.429,82.615,61.558,82.422,61.558z"/>
				<path fill="#002776" d="M97.229,61.558H86.705c-0.194,0-0.366-0.15-0.366-0.345V45.999c0-0.192,0.172-0.343,0.366-0.343h10.524
					c0.193,0,0.344,0.129,0.344,0.321v1.958c0,0.194-0.151,0.346-0.344,0.346H89.89v3.809h7.016c0.194,0,0.345,0.129,0.345,0.323
					v1.979c0,0.194-0.151,0.323-0.345,0.323H89.89v4.262h7.339c0.215,0,0.365,0.13,0.365,0.323v1.934
					C97.594,61.429,97.444,61.558,97.229,61.558z"/>
				<path fill="#002776" d="M107.642,61.558h-6.715c-0.193,0-0.344-0.15-0.344-0.345V45.999c0-0.192,0.151-0.343,0.344-0.343h6.715
					c5.509,0,7.294,2.388,7.294,7.94C114.937,59.172,113.151,61.558,107.642,61.558z M107.254,48.109h-3.12v10.978h3.12
					c2.991,0,4.024-1.035,4.024-5.489C111.279,49.121,110.267,48.109,107.254,48.109z"/>
				<path fill="#002776" d="M136.837,61.192c0,0.216-0.191,0.366-0.428,0.366h-2.713c-0.238,0-0.431-0.172-0.431-0.388l-0.438-13.04
					h-0.668l-2.928,13.04c-0.064,0.194-0.193,0.388-0.451,0.388h-3.356c-0.259,0-0.41-0.193-0.475-0.409l-2.733-13.019h-0.688
					l-0.591,13.04c-0.021,0.216-0.193,0.388-0.43,0.388h-2.517c-0.237,0-0.453-0.15-0.453-0.366V61.17l0.956-15.106
					c0.021-0.235,0.215-0.407,0.452-0.407h5.708c0.236,0,0.409,0.193,0.474,0.407l2.103,10.599h0.13l2.124-10.599
					c0.064-0.214,0.216-0.407,0.474-0.407h5.429c0.237,0,0.429,0.172,0.45,0.407l1,15.106V61.192z"/>
				<path fill="#002776" d="M155.271,61.278c0,0.151-0.151,0.28-0.323,0.28h-2.991c-0.173,0-0.346-0.172-0.407-0.323l-1.573-5.314
					h-5.552l-1.57,5.357c-0.043,0.151-0.215,0.28-0.388,0.28h-2.95c-0.172,0-0.342-0.129-0.342-0.28
					c0-0.021,0.019-0.064,0.019-0.086l4.995-15.257c0.043-0.149,0.215-0.278,0.366-0.278h5.357c0.173,0,0.323,0.107,0.388,0.257
					l4.95,15.278C155.249,61.235,155.271,61.256,155.271,61.278z M147.652,48.087h-0.945l-1.594,5.295h4.152L147.652,48.087z"/>
				<path fill="#002776" d="M187.843,61.235c0,0.151-0.15,0.323-0.277,0.323h-3.639c-0.194,0-0.367-0.107-0.432-0.193l-4.842-6.497
					h-1.01v6.367c0,0.194-0.151,0.323-0.345,0.323h-2.862c-0.194,0-0.345-0.129-0.345-0.323V45.978c0-0.192,0.15-0.321,0.345-0.321
					h2.862c0.193,0,0.345,0.129,0.345,0.321v6.263h1.01l4.694-6.391c0.064-0.086,0.169-0.193,0.342-0.193h0.021l3.402,0.043
					c0.129,0,0.28,0.172,0.28,0.321c0,0.064-0.021,0.13-0.064,0.173l-5.661,7.253l6.111,7.616
					C187.822,61.106,187.843,61.17,187.843,61.235z"/>
			</g>
			<g>
				<path fill="#002776" d="M25.38,39.452c-3.957,0-7.093-0.913-7.671-1.096c-0.304-0.122-0.457-0.365-0.457-0.639v-0.152
					l0.396-2.009c0.061-0.304,0.274-0.396,0.517-0.396c0.061,0,0.122,0,0.213,0.03c0.639,0.122,3.744,1.005,6.667,1.005
					c2.496,0,4.719-0.731,4.719-3.318c0-2.618-2.283-2.892-5.236-3.318c-3.288-0.488-7.519-1.37-7.519-6.545
					c0-5.327,3.957-6.728,8.645-6.728c3.562,0,6.515,0.852,7.184,1.035c0.365,0.091,0.548,0.335,0.548,0.639v0.152l-0.426,1.979
					c-0.031,0.213-0.244,0.426-0.487,0.426c-0.03,0-0.061-0.03-0.091-0.03c-1.461-0.305-3.714-0.914-6.393-0.914
					c-2.253,0-4.627,0.427-4.627,2.983c0,2.527,2.557,2.892,5.266,3.288c3.562,0.548,7.61,1.065,7.61,6.728
					C34.238,37.9,29.916,39.452,25.38,39.452z"/>
				<path fill="#002776" d="M63.417,39.088c-1.065,0.243-2.527,0.426-4.231,0.426c-3.288,0-7.336-0.335-7.336-5.175
					c0-3.927,2.466-4.353,4.901-4.749l5.419-0.883v-0.974c0-0.853-0.092-1.461-0.853-1.796c-0.487-0.213-1.217-0.304-2.313-0.304
					c-2.07,0-4.323,0.609-5.236,0.852c-0.091,0-0.152,0.031-0.213,0.031c-0.152,0-0.305-0.061-0.335-0.274l-0.426-1.887v-0.122
					c0-0.274,0.213-0.396,0.365-0.457c0.73-0.274,3.531-1.035,6.636-1.035c2.161,0,3.623,0.304,4.597,0.852
					c1.552,0.852,1.857,2.283,1.857,3.927v8.402C66.248,38.205,65.487,38.6,63.417,39.088z M62.169,31.356l-3.775,0.609
					c-1.248,0.182-2.405,0.365-2.405,2.343c0,2.375,1.918,2.557,3.379,2.557c1.187,0,2.161-0.212,2.801-0.426V31.356z"/>
				<path fill="#002776" d="M76.755,25.876c-1.857,0-3.44,0.183-4.292,0.396v12.39c0,0.274-0.183,0.457-0.457,0.457h-3.105
					c-0.183,0-0.518-0.182-0.518-0.457V25.51c0-1.187,0.7-1.552,2.161-1.978c1.339-0.426,3.501-0.731,5.236-0.761h0.518
					c0.426,0,0.426,0,0.639,0.091c0.122,0.061,0.274,0.183,0.274,0.487v1.979C77.211,25.632,77.181,25.876,76.755,25.876z"/>
				<path fill="#002776" d="M92.392,32.299c0,0.334-0.183,0.7-0.639,0.7H81.555c0,1.401,0.396,2.162,1.218,2.8
					c0.792,0.639,1.948,0.913,3.592,0.913c1.887,0,3.318-0.457,4.261-0.731c0.061-0.03,0.092-0.03,0.152-0.03
					c0.183,0,0.335,0.122,0.426,0.426l0.396,1.552c0,0.03,0.031,0.092,0.031,0.152c0,0.244-0.152,0.366-0.365,0.457
					c-1.035,0.426-3.105,0.974-5.51,0.974c-5.967,0-8.311-2.344-8.311-8.31c0-5.723,1.583-8.463,7.519-8.463
					c3.074,0,4.962,0.792,6.058,2.253c1.035,1.37,1.37,3.318,1.37,5.844V32.299z M88.1,27.763c-0.396-1.674-1.309-2.222-3.105-2.222
					c-2.04,0-2.892,0.609-3.227,2.131c-0.213,0.853-0.213,1.736-0.243,2.74l6.819-0.031C88.343,29.407,88.313,28.585,88.1,27.763z"
					/>
				<path fill="#002776" d="M171.749,32.299c0,0.334-0.183,0.7-0.639,0.7h-10.198c0,1.401,0.396,2.162,1.218,2.8
					c0.792,0.639,1.948,0.913,3.592,0.913c1.887,0,3.318-0.457,4.262-0.731c0.061-0.03,0.092-0.03,0.152-0.03
					c0.183,0,0.335,0.122,0.426,0.426l0.396,1.552c0,0.03,0.031,0.092,0.031,0.152c0,0.244-0.152,0.366-0.365,0.457
					c-1.035,0.426-3.105,0.974-5.51,0.974c-5.967,0-8.311-2.344-8.311-8.31c0-5.723,1.583-8.463,7.519-8.463
					c3.074,0,4.962,0.792,6.058,2.253c1.035,1.37,1.37,3.318,1.37,5.844V32.299z M167.457,27.763
					c-0.396-1.674-1.309-2.222-3.105-2.222c-2.04,0-2.892,0.609-3.227,2.131c-0.213,0.853-0.213,1.736-0.243,2.74l6.819-0.031
					C167.7,29.407,167.67,28.585,167.457,27.763z"/>
				<path fill="#002776" d="M121.352,39.088c-1.065,0.243-2.527,0.426-4.231,0.426c-3.288,0-7.337-0.335-7.337-5.175
					c0-3.927,2.466-4.353,4.901-4.749l5.419-0.883v-0.974c0-0.853-0.092-1.461-0.853-1.796c-0.487-0.213-1.217-0.304-2.313-0.304
					c-2.07,0-4.323,0.609-5.237,0.852c-0.091,0-0.152,0.031-0.212,0.031c-0.152,0-0.304-0.061-0.335-0.274l-0.426-1.887v-0.122
					c0-0.274,0.213-0.396,0.365-0.457c0.731-0.274,3.532-1.035,6.637-1.035c2.161,0,3.623,0.304,4.597,0.852
					c1.553,0.852,1.857,2.283,1.857,3.927v8.402C124.183,38.205,123.421,38.6,121.352,39.088z M120.104,31.356l-3.775,0.609
					c-1.248,0.182-2.405,0.365-2.405,2.343c0,2.375,1.918,2.557,3.379,2.557c1.187,0,2.162-0.212,2.801-0.426V31.356z"/>
				<path fill="#002776" d="M140.108,39.118h-3.136c-0.274,0-0.487-0.182-0.487-0.457V27.915c0-1.766-0.67-2.375-2.283-2.375
					c-1.826,0-3.805,0.518-3.805,0.518v12.603c0,0.274-0.183,0.457-0.457,0.457h-3.106c-0.304,0-0.517-0.182-0.517-0.457v-13.12
					c0-1.157,0.578-1.553,2.283-2.009c1.552-0.426,4.109-0.792,6.058-0.792c3.805,0,5.906,0.974,5.906,4.627v11.294
					C140.564,38.936,140.382,39.118,140.108,39.118z"/>
				<path fill="#002776" d="M187.181,39.118h-3.136c-0.274,0-0.487-0.182-0.487-0.457V27.915c0-1.766-0.67-2.375-2.283-2.375
					c-1.826,0-3.805,0.518-3.805,0.518v12.603c0,0.274-0.183,0.457-0.457,0.457h-3.106c-0.304,0-0.517-0.182-0.517-0.457v-13.12
					c0-1.157,0.578-1.553,2.283-2.009c1.552-0.426,4.109-0.792,6.058-0.792c3.805,0,5.906,0.974,5.906,4.627v11.294
					C187.637,38.936,187.455,39.118,187.181,39.118z"/>
				<path fill="#002776" d="M157.409,38.844c0,0.122-0.121,0.274-0.304,0.274h-4.079c-0.152,0-0.304,0-0.457-0.182l-4.718-6.424
					h-1.035v6.15c0,0.274-0.152,0.457-0.457,0.457h-3.135c-0.273,0-0.487-0.182-0.487-0.457V17.382c0-0.365,0.152-0.548,0.518-0.639
					l2.982-0.518h0.122c0.274,0,0.457,0.183,0.457,0.518v13.028h1.035l4.81-6.423c0.121-0.183,0.244-0.213,0.396-0.213l3.714,0.091
					c0.213,0,0.304,0.152,0.304,0.274c0,0.061-0.03,0.092-0.061,0.152l-5.753,7.246l6.089,7.792
					C157.379,38.722,157.409,38.783,157.409,38.844z"/>
				<path fill="#002776" d="M40.521,36.348"/>
				<path fill="#002776" d="M44.213,22.74c-2.04,0-4.384,0.335-6.21,0.974c-1.37,0.426-1.918,0.883-1.918,2.466v17.495
					c0,0.304,0.239,0.553,0.677,0.474c0.439-0.079,2.884-0.531,2.884-0.531c0.365-0.061,0.518-0.243,0.518-0.609V39.05
					c1.08,0.263,2.443,0.463,3.957,0.463c5.662,0,6.728-3.562,6.728-8.372C50.849,26.302,50.088,22.74,44.213,22.74z M43.056,36.713
					c-1.644,0-2.892-0.365-2.892-0.365V26.089c0,0,1.796-0.487,3.196-0.487c2.313,0,3.318,0.517,3.318,5.449
					C46.679,35.678,45.826,36.713,43.056,36.713z"/>
				<path fill="#002776" d="M102.223,22.74c-1.585,0-3.34,0.428-4.079,0.629v-6.655c0-0.305-0.213-0.488-0.487-0.488h-0.122
					l-2.984,0.519c-0.365,0.06-0.517,0.274-0.517,0.64v18.842c0,1.31,0.091,2.04,1.734,2.558c1.127,0.396,3.198,0.731,5.512,0.731
					c6.118,0,7.488-2.74,7.488-8.585C108.768,24.963,107.002,22.74,102.223,22.74z M101.005,36.682
					c-1.644,0-2.892-0.305-2.892-0.305V26.09c0,0,1.858-0.488,3.257-0.488c2.618,0,3.258,0.914,3.258,5.419
					C104.628,35.648,103.744,36.682,101.005,36.682z"/>
			</g>
		</g>
		<g>
			<path fill="#E60000" d="M222.669,11.357c-2.933,0-5.757,0.458-8.411,1.301c11.169-2.423,22.239,2.178,26.227,11.601
				c4.609,10.892-1.989,24.096-14.737,29.491c-11.436,4.839-23.931,1.747-29.711-6.802c3.381,11.517,14.021,19.929,26.632,19.929
				c15.331,0,27.76-12.428,27.76-27.76S238,11.357,222.669,11.357z"/>
			<path fill="#AF0000" d="M225.748,53.75c12.749-5.395,19.347-18.598,14.737-29.491c-3.988-9.424-15.059-14.024-26.227-11.601
				c-11.219,3.563-19.349,14.06-19.349,26.459c0,2.721,0.398,5.347,1.128,7.831C201.817,55.497,214.312,58.59,225.748,53.75z"/>
			<g>
				<path fill="#FFFFFF" d="M229.785,51.663V23.159c0-0.566-0.462-1.027-1.029-1.027h-6.454c-0.461,0-0.72,0.102-1.132,0.257
					l-8.328,4.287c-0.513,0.207-0.719,0.514-0.719,1.029v4.671c0,0.549,0.445,0.992,0.993,0.992h5.33v22.409
					c2.433-0.338,4.891-1.006,7.302-2.027C227.173,53.147,228.521,52.447,229.785,51.663z"/>
				<path fill="none" d="M219.472,60.327h9.283c0.567,0,1.029-0.465,1.029-1.029v-7.635c-1.264,0.784-2.612,1.485-4.037,2.087
					c-2.411,1.02-4.869,1.688-7.302,2.027v3.521C218.446,59.862,218.91,60.327,219.472,60.327z"/>
			</g>
		</g>
	</g>
</g>
</svg>
