<?xml version="1.0" encoding="utf-8"?>
<!-- Generator: Adobe Illustrator 17.1.0, SVG Export Plug-In . SVG Version: 6.00 Build 0)  -->
<!DOCTYPE svg PUBLIC "-//W3C//DTD SVG 1.1//EN" "http://www.w3.org/Graphics/SVG/1.1/DTD/svg11.dtd">
<svg version="1.1" id="prod" xmlns="http://www.w3.org/2000/svg" xmlns:xlink="http://www.w3.org/1999/xlink" x="0px" y="0px"
	 width="180.4px" height="180.4px" viewBox="0 0 180.4 180.4" enable-background="new 0 0 180.4 180.4" xml:space="preserve">
<g>
	<g>
		<g>
			<rect x="68.6" y="78.1" fill="#002776" width="9.6" height="5"/>
		</g>
		<g>
			<rect x="68.6" y="92.7" fill="#002776" width="9.6" height="5"/>
		</g>
		<g>
			<rect x="68.6" y="100.1" fill="#002776" width="9.6" height="5"/>
		</g>
		<g>
			<rect x="82.5" y="85.4" fill="#002776" width="9.6" height="5"/>
		</g>
		<g>
			<rect x="82.5" y="92.7" fill="#002776" width="9.6" height="5"/>
		</g>
		<g>
			<rect x="96.5" y="78.1" fill="#002776" width="9.6" height="5"/>
		</g>
		<g>
			<rect x="96.5" y="85.4" fill="#002776" width="9.6" height="5"/>
		</g>
		<g>
			<rect x="96.5" y="100.1" fill="#002776" width="9.6" height="5"/>
		</g>
	</g>
</g>
<g>
	<path fill="#002776" d="M116.4,31.2c-6.9-0.2-13.7,2.6-18.6,7.5c-2.9,2.9-5,6.4-6.2,10.2H62c-3.1,0-5.7,2.5-5.7,5.7v81.1
		c0,3.1,2.5,5.7,5.7,5.7h50.7c3.1,0,5.7-2.5,5.7-5.7V82c12.7-1.3,22.7-12,22.9-25C141.4,43.1,130.2,31.5,116.4,31.2z M91.4,135.6
		h-8.1v-8.1h8.1V135.6z M111.8,123.1h-49V55.5h27.6c0,0.4,0,0.8,0,1.2c0,12.6,9.3,23.3,21.5,25.2V123.1z M115.7,75.1l-0.3,0
		c-10-0.2-18-8.5-18-18.5c0-4.9,1.9-9.5,5.4-12.9c3.5-3.5,8.2-5.5,13.1-5.5l0.4,0c10,0.2,18.1,8.6,18,18.7
		C134.1,67,125.8,75.1,115.7,75.1z"/>
	<path fill="#002776" d="M114.9,50.1h1.8c1.1,0,1.6-0.6,1.6-1.6v-0.8c0-1.1-0.6-1.7-1.6-1.7h-1.8c-1.1,0-1.6,0.6-1.6,1.7v0.8
		C113.3,49.5,113.8,50.1,114.9,50.1z"/>
	<path fill="#002776" d="M116.8,52h-1.9c-1.1,0-1.7,0.6-1.7,1.6v12.1c0,1.1,0.6,1.7,1.7,1.7h1.9c1.1,0,1.6-0.6,1.6-1.7V53.7
		C118.4,52.6,117.8,52,116.8,52z"/>
</g>
</svg>
