<?xml version="1.0" encoding="utf-8"?>
<!-- Generator: Adobe Illustrator 17.1.0, SVG Export Plug-In . SVG Version: 6.00 Build 0)  -->
<!DOCTYPE svg PUBLIC "-//W3C//DTD SVG 1.1//EN" "http://www.w3.org/Graphics/SVG/1.1/DTD/svg11.dtd">
<svg version="1.1" id="prod" xmlns="http://www.w3.org/2000/svg" xmlns:xlink="http://www.w3.org/1999/xlink" x="0px" y="0px"
	 width="180.4px" height="180.4px" viewBox="0 0 180.4 180.4" enable-background="new 0 0 180.4 180.4" xml:space="preserve">
<g>
	<path fill="#002776" d="M81.7,90.9L81.7,90.9l4.4-7.9c0.6-1.1,0.1-1.9-1.1-1.9h-1.9c-0.9,0-1.4,0.3-1.9,1.1L77.6,89h-2.1v-6.3
		c0-1-0.5-1.6-1.6-1.6h-1.9c-1,0-1.6,0.5-1.6,1.6V100c0,1,0.5,1.6,1.6,1.6H74c1,0,1.6-0.5,1.6-1.6v-6.7h2.1l3.7,7.2
		c0.4,0.8,1,1.1,1.9,1.1h2.2c1.3,0,1.7-0.8,1.1-1.9L81.7,90.9z"/>
	<path fill="#002776" d="M90.9,81.1c-1,0-1.6,0.5-1.6,1.6V100c0,1,0.5,1.6,1.6,1.6h1.9c1,0,1.6-0.5,1.6-1.6v-5.3h2.3l3,5.8
		c0.4,0.8,1,1.1,1.9,1.1h2.2c1.2,0,1.7-0.8,1.1-1.9l-2.9-5.2c-0.5-0.9-0.8-1.2-0.8-1.2v-0.1c2-1,3.1-3.4,3.1-5.6c0-3-1.5-5-3.8-5.9
		c-0.9-0.3-1.9-0.5-4-0.5H90.9z M99.1,87.9c0,1.6-1,2.5-2.6,2.5h-2.2v-5H96c0.8,0,1.4,0.1,1.9,0.3C98.8,86.1,99.1,86.8,99.1,87.9z"
		/>
	<path fill="#002776" d="M116.4,31.2c-6.9-0.2-13.7,2.6-18.6,7.5c-2.9,2.9-5,6.4-6.2,10.2H62c-3.1,0-5.7,2.5-5.7,5.7v81.1
		c0,3.1,2.5,5.7,5.7,5.7h50.7c3.1,0,5.7-2.5,5.7-5.7V82c12.7-1.3,22.7-12,22.9-25C141.4,43.1,130.2,31.5,116.4,31.2z M91.4,135.6
		h-8.1v-8.1h8.1V135.6z M111.8,123.1h-49V55.5h27.6c0,0.4,0,0.8,0,1.2c0,12.6,9.3,23.3,21.5,25.2V123.1z M115.7,75.1l-0.3,0
		c-10-0.2-18-8.5-18-18.5c0-4.9,1.9-9.5,5.4-12.9c3.5-3.5,8.2-5.5,13.1-5.5l0.4,0c10,0.2,18.1,8.6,18,18.7
		C134.1,67,125.8,75.1,115.7,75.1z"/>
	<path fill="#002776" d="M114.9,50.1h1.8c1.1,0,1.6-0.6,1.6-1.6v-0.8c0-1.1-0.6-1.7-1.6-1.7h-1.8c-1.1,0-1.6,0.6-1.6,1.7v0.8
		C113.3,49.5,113.8,50.1,114.9,50.1z"/>
	<path fill="#002776" d="M116.8,52h-1.9c-1.1,0-1.7,0.6-1.7,1.6v12.1c0,1.1,0.6,1.7,1.7,1.7h1.9c1.1,0,1.6-0.6,1.6-1.7V53.7
		C118.4,52.6,117.8,52,116.8,52z"/>
</g>
</svg>
