<?xml version="1.0" encoding="utf-8"?>
<!-- Generator: Adobe Illustrator 17.1.0, SVG Export Plug-In . SVG Version: 6.00 Build 0)  -->
<!DOCTYPE svg PUBLIC "-//W3C//DTD SVG 1.1//EN" "http://www.w3.org/Graphics/SVG/1.1/DTD/svg11.dtd">
<svg version="1.1" id="prod" xmlns="http://www.w3.org/2000/svg" xmlns:xlink="http://www.w3.org/1999/xlink" x="0px" y="0px"
	 width="180.4px" height="180.4px" viewBox="0 0 180.4 180.4" enable-background="new 0 0 180.4 180.4" xml:space="preserve">
<g>
	<path fill="#002776" d="M74.4,85.9c0-0.7,0.4-1.1,1.1-1.1h1.9v-6c0-0.5,0-1.1,0-1.1h0c0,0-0.2,0.4-0.4,0.6l-0.2,0.2
		c-0.5,0.5-1.1,0.5-1.5-0.1L74.7,78c-0.5-0.5-0.5-1.1,0-1.6l2.5-2.3c0.4-0.4,0.8-0.5,1.4-0.5h1.1c0.7,0,1.1,0.4,1.1,1.1v10.2h2
		c0.7,0,1.1,0.4,1.1,1.1v0.8c0,0.7-0.4,1.1-1.1,1.1h-7.3c-0.7,0-1.1-0.4-1.1-1.1V85.9z"/>
	<path fill="#002776" d="M85.8,86.3c0-5.3,6.2-6.2,6.2-8.3c0-1-0.8-1.4-1.5-1.4c-0.6,0-1.2,0.3-1.5,0.7c-0.5,0.5-1,0.7-1.6,0.2
		l-0.8-0.6c-0.6-0.4-0.7-0.9-0.3-1.5c0.7-0.9,2.1-2.1,4.5-2.1c2.3,0,4.9,1.3,4.9,4.4c0,4.5-5.8,5.3-6,7.2h5.1c0.7,0,1.1,0.4,1.1,1.1
		v0.8c0,0.7-0.4,1.1-1.1,1.1H87c-0.7,0-1.2-0.4-1.2-1.1V86.3z"/>
	<path fill="#002776" d="M98.6,85.3l0.5-0.9c0.4-0.6,0.9-0.7,1.5-0.3c0.5,0.3,1.2,0.6,2,0.6c1.3,0,2-0.6,2-1.4
		c0-1.1-1.1-1.6-2.7-1.6h-0.1c-0.6,0-1-0.2-1.2-0.8l-0.1-0.2c-0.2-0.5-0.1-1,0.3-1.4l1.3-1.6c0.7-0.8,1.2-1.3,1.2-1.3v0
		c0,0-0.5,0.1-1.4,0.1h-2.3c-0.7,0-1.1-0.4-1.1-1.1v-0.8c0-0.7,0.4-1.1,1.1-1.1h6.8c0.7,0,1.1,0.4,1.1,1.1v0.3
		c0,0.6-0.1,0.9-0.5,1.4l-2.4,2.8c2.1,0.5,3.5,2.1,3.5,4.1c0,2.4-1.7,4.9-5.3,4.9c-1.9,0-3.3-0.7-4.1-1.2
		C98.2,86.5,98.2,85.9,98.6,85.3z"/>
</g>
<path fill="#002776" d="M59.2,43.3v81.1c0,3.1,2.5,5.7,5.7,5.7h50.7c3.1,0,5.7-2.5,5.7-5.7V43.3c0-3.1-2.5-5.7-5.7-5.7H64.9
	C61.7,37.6,59.2,40.2,59.2,43.3z M93.7,123.8h-7.1v-7.1h7.1V123.8z M114.7,111.7h-49V44.1h49V111.7z"/>
</svg>
