<?xml version="1.0" encoding="utf-8"?>
<!-- Generator: Adobe Illustrator 18.0.0, SVG Export Plug-In . SVG Version: 6.00 Build 0)  -->
<!DOCTYPE svg PUBLIC "-//W3C//DTD SVG 1.1//EN" "http://www.w3.org/Graphics/SVG/1.1/DTD/svg11.dtd">
<svg version="1.1" id="Layer_1" xmlns="http://www.w3.org/2000/svg" xmlns:xlink="http://www.w3.org/1999/xlink" x="0px" y="0px"
	 width="180.365px" height="180.365px" viewBox="0 0 180.365 180.365" enable-background="new 0 0 180.365 180.365"
	 xml:space="preserve">
<path fill="#002776" d="M96.982,42.014v-7.368c0-1.566-1.269-2.835-2.834-2.835h-1.331c-1.566,0-2.835,1.269-2.835,2.835v7.368
	c-24.975,1.731-45.204,21.8-46.744,47.129c-0.096,1.57,0.948,2.983,2.477,3.355c0.257,0.062,0.515,0.092,0.769,0.092
	c1.263,0,2.442-0.738,2.972-1.937c2.255-5.103,7.299-8.399,12.851-8.399c5.356,0,10.323,3.143,12.658,8.005
	c0.541,1.127,1.68,1.844,2.93,1.844s2.39-0.717,2.93-1.844c1.813-3.778,5.218-6.509,9.158-7.543v39.948
	c0,7.134-7.003,7.34-7.802,7.34c-2.058,0-4.689-0.74-6.305-2.707c-0.759-0.925-2.062-1.198-3.173-0.753l-1.285,0.515
	c-1.718,0.688-2.363,2.839-1.238,4.309c2.684,3.504,7.083,5.637,12.002,5.637c7.355,0,14.802-4.926,14.802-14.34V82.717
	c3.939,1.035,7.345,3.766,9.159,7.543c0.541,1.127,1.68,1.844,2.93,1.844s2.389-0.717,2.93-1.844
	c2.335-4.862,7.303-8.005,12.658-8.005c5.552,0,10.596,3.297,12.851,8.399c0.635,1.439,2.207,2.217,3.74,1.845
	c1.528-0.372,2.572-1.785,2.477-3.355C142.188,63.814,121.959,43.744,96.982,42.014z M124.659,75.755
	c-6.034,0-11.729,2.719-15.588,7.21c-3.858-4.491-9.555-7.21-15.589-7.21c-6.035,0-11.73,2.719-15.588,7.209
	c-3.858-4.49-9.554-7.209-15.588-7.209c-3.78,0-7.399,1.043-10.521,2.909c5.74-17.64,22.351-30.285,41.697-30.285
	c19.348,0,35.958,12.645,41.696,30.285C132.059,76.798,128.439,75.755,124.659,75.755z"/>
</svg>
