<?xml version="1.0" encoding="utf-8"?>
<!-- Generator: Adobe Illustrator 18.0.0, SVG Export Plug-In . SVG Version: 6.00 Build 0)  -->
<!DOCTYPE svg PUBLIC "-//W3C//DTD SVG 1.1//EN" "http://www.w3.org/Graphics/SVG/1.1/DTD/svg11.dtd">
<svg version="1.1" id="Layer_1" xmlns="http://www.w3.org/2000/svg" xmlns:xlink="http://www.w3.org/1999/xlink" x="0px" y="0px"
	 width="180.365px" height="180.365px" viewBox="0 0 180.365 180.365" enable-background="new 0 0 180.365 180.365"
	 xml:space="preserve">
<g>
	<path fill="#002776" d="M110.847,48.598h-8.83l5.906-15.049h5.188c1.565,0,2.834-1.269,2.834-2.835v-0.331
		c0-1.566-1.269-2.835-2.834-2.835H67.206c-1.565,0-2.834,1.269-2.834,2.835v0.331c0,1.566,1.269,2.835,2.834,2.835h5.188
		L78.3,48.598h-8.829c-9.761,0-17.674,7.913-17.674,17.674v53.958c0,3.131,2.538,5.67,5.669,5.67h4.021l-4.917,10.144
		c-0.913,1.883,0.458,4.071,2.55,4.071H60.6c1.086,0,2.077-0.621,2.551-1.598l6.116-12.617h41.783l6.116,12.617
		c0.474,0.978,1.464,1.598,2.551,1.598h1.478c2.092,0,3.463-2.189,2.55-4.071l-4.917-10.144h4.021c3.131,0,5.669-2.538,5.669-5.67
		V66.271C128.52,56.511,120.607,48.598,110.847,48.598z M79.377,33.549h21.563l-5.906,15.049h-9.751L79.377,33.549z M69.47,55.598
		h41.377c5.885,0,10.673,4.788,10.673,10.674v26.837H58.797V66.272C58.797,60.386,63.585,55.598,69.47,55.598z M58.797,118.9
		v-18.791h62.723V118.9H58.797z"/>
	<path fill="#002776" d="M70.607,105.379H67.69c-1.566,0-2.835,1.269-2.835,2.835v2.917c0,1.566,1.269,2.835,2.835,2.835h2.917
		c1.565,0,2.835-1.269,2.835-2.835v-2.917C73.442,106.648,72.172,105.379,70.607,105.379z"/>
	<path fill="#002776" d="M112.626,105.379h-2.917c-1.566,0-2.835,1.269-2.835,2.835v2.917c0,1.566,1.269,2.835,2.835,2.835h2.917
		c1.566,0,2.835-1.269,2.835-2.835v-2.917C115.461,106.648,114.192,105.379,112.626,105.379z"/>
</g>
</svg>
