<?xml version="1.0" encoding="utf-8"?>
<!-- Generator: Adobe Illustrator 18.0.0, SVG Export Plug-In . SVG Version: 6.00 Build 0)  -->
<!DOCTYPE svg PUBLIC "-//W3C//DTD SVG 1.1//EN" "http://www.w3.org/Graphics/SVG/1.1/DTD/svg11.dtd">
<svg version="1.1" id="Layer_1" xmlns="http://www.w3.org/2000/svg" xmlns:xlink="http://www.w3.org/1999/xlink" x="0px" y="0px"
	 width="180.365px" height="180.365px" viewBox="0 0 180.365 180.365" enable-background="new 0 0 180.365 180.365"
	 xml:space="preserve">
<g>
	<path fill="#002776" d="M59.112,128.726c-7.535,0-13.666-6.131-13.666-13.666c0-7.535,6.131-13.666,13.666-13.666
		c7.535,0,13.666,6.131,13.666,13.666C72.778,122.595,66.647,128.726,59.112,128.726z M59.112,108.394
		c-3.676,0-6.666,2.99-6.666,6.666c0,3.676,2.99,6.666,6.666,6.666s6.666-2.99,6.666-6.666
		C65.778,111.384,62.788,108.394,59.112,108.394z"/>
	<path fill="#002776" d="M127.748,128.726c-7.536,0-13.667-6.131-13.667-13.666c0-7.535,6.131-13.666,13.667-13.666
		c7.535,0,13.665,6.131,13.665,13.666C141.413,122.595,135.283,128.726,127.748,128.726z M127.748,108.394
		c-3.676,0-6.667,2.99-6.667,6.666c0,3.676,2.991,6.666,6.667,6.666c3.675,0,6.665-2.99,6.665-6.666
		C134.413,111.384,131.423,108.394,127.748,108.394z"/>
	<rect x="72.064" y="111.591" fill="#002776" width="44.128" height="7"/>
	<path fill="#002776" d="M135.752,88.207H114.93c-3.131,0-5.669-2.538-5.669-5.669v-9.646c0-3.131,2.538-5.669,5.669-5.669h13.957v7
		h-12.626v6.984h19.491V88.207z"/>
	<path fill="#002776" d="M141.744,118.591h-2.441v-7h2.441c3.387,0,5.327-1.535,5.537-1.71l0.183-0.16
		c0.305-0.296,1.827-1.931,1.827-4.958V94.701l-17.266-7.977l-9.743-23.516H42.957c-3.681,0-6.666,2.984-6.666,6.666v41.717H46.97v7
		H34.96c-3.131,0-5.669-2.538-5.669-5.669V69.875c0-7.548,6.118-13.666,13.666-13.666h80.215c2.293,0,4.36,1.381,5.237,3.499
		l9.036,21.809l15.554,7.186c2.007,0.927,3.292,2.936,3.292,5.146v10.913c0,5.695-3.021,9.076-3.947,9.977l-0.515,0.5l-0.234,0.156
		C150.454,116.299,147.038,118.591,141.744,118.591z"/>
	<path fill="#002776" d="M98.097,88.463h-1.331c-1.565,0-2.835-1.269-2.835-2.835v-4.843c0-1.565,1.269-2.835,2.835-2.835h1.331
		c1.565,0,2.835,1.269,2.835,2.835v4.843C100.932,87.193,99.662,88.463,98.097,88.463z"/>
</g>
</svg>
