<?xml version="1.0" encoding="utf-8"?>
<!-- Generator: Adobe Illustrator 17.1.0, SVG Export Plug-In . SVG Version: 6.00 Build 0)  -->
<!DOCTYPE svg PUBLIC "-//W3C//DTD SVG 1.1//EN" "http://www.w3.org/Graphics/SVG/1.1/DTD/svg11.dtd">
<svg version="1.1" id="prod" xmlns="http://www.w3.org/2000/svg" xmlns:xlink="http://www.w3.org/1999/xlink" x="0px" y="0px"
	 width="180.4px" height="180.4px" viewBox="0 0 180.4 180.4" enable-background="new 0 0 180.4 180.4" xml:space="preserve">
<g>
	<path fill="#002776" d="M155.8,98.1h-2.3V80.6c0-3.1-2.5-5.7-5.7-5.7h-35.6V58.5c0-4.5-3.6-9.3-9.3-9.3H42.4c-6,0-9.7,4.8-9.7,9.3
		v39.7h-3.2c-3.1,0-5.7,2.5-5.7,5.7v6.8c0,3.1,2.5,5.7,5.7,5.7h16.3c2.2,5.5,7.5,9.4,13.8,9.4c6.2,0,11.6-3.9,13.8-9.3h37.9
		c2.2,5.5,7.5,9.3,13.8,9.3c6.2,0,11.6-3.9,13.8-9.3h16.8c3.1,0,5.7-2.5,5.7-5.7v-7C161.4,100.7,158.9,98.1,155.8,98.1z M59.6,118.8
		c-4.3,0-7.9-3.5-7.9-7.9s3.5-7.9,7.9-7.9s7.9,3.5,7.9,7.9S64,118.8,59.6,118.8z M125.2,118.8c-4.3,0-7.9-3.5-7.9-7.9
		s3.5-7.9,7.9-7.9s7.9,3.5,7.9,7.9S129.5,118.8,125.2,118.8z M154.4,109.5h-14.5c-0.7-7.5-7.1-13.4-14.8-13.4
		c-7.7,0-14.1,5.9-14.8,13.4H74.4c-0.7-7.5-7.1-13.4-14.8-13.4c-7.7,0-14,5.9-14.8,13.3h-14v-4.2h8.9V58.5c0-1,0.9-2.3,2.7-2.3h60.5
		c1.8,0,2.3,1.7,2.3,2.3v23.4h41.3v23.3h7.9V109.5z"/>
	<path fill="#002776" d="M73.5,81.9h23.9c1.6,0,2.8-1.3,2.8-2.8V64.9c0-1.6-1.3-2.8-2.8-2.8H73.5c-1.6,0-2.8,1.3-2.8,2.8V79
		C70.7,80.6,71.9,81.9,73.5,81.9z M75.7,67.1h19.5v9.8H75.7V67.1z"/>
	<path fill="#002776" d="M47.3,81.9h14.9c1.6,0,2.8-1.3,2.8-2.8V64.9c0-1.6-1.3-2.8-2.8-2.8H47.3c-1.6,0-2.8,1.3-2.8,2.8V79
		C44.4,80.6,45.7,81.9,47.3,81.9z M49.4,67.1H60v9.8H49.4V67.1z"/>
</g>
</svg>
