<svg xmlns="http://www.w3.org/2000/svg" height="40" viewBox="0 -960 960 960" width="40"><path d="M332.821-217.694H130.256q-13.632 0-23.097-9.52-9.465-9.52-9.465-23.229 0-13.71 9.465-23.043 9.465-9.333 23.097-9.333h202.565q5.129 0 8.719-3.462t3.59-8.847v-140.001q0-5.385-3.59-8.846-3.59-3.462-8.719-3.462H131.744q-13.632 0-23.098-9.52-9.465-9.52-9.465-23.23t9.465-23.043q9.466-9.333 23.098-9.333h201.077q5.129 0 8.719-3.462 3.59-3.461 3.59-8.846v-140.001q0-5.385-3.59-8.847-3.59-3.462-8.719-3.462H130.256q-13.632 0-23.097-9.52-9.465-9.52-9.465-23.23t9.465-23.042q9.465-9.333 23.097-9.333h202.565q32.478 0 54.956 22.392 22.478 22.393 22.478 55.042v125.745q0 23.991-16.41 42.097-16.41 18.107-38.947 18.107 22.537 0 38.947 17.051 16.41 17.051 16.41 40.742v126.002q0 32.649-22.478 55.042-22.478 22.392-54.956 22.392Zm253.127-65.125h198.924q5.385 0 8.847-3.462 3.462-3.462 3.462-8.847v-369.744q0-5.385-3.462-8.847-3.462-3.462-8.847-3.462H585.948q-5.385 0-8.846 3.462-3.462 3.462-3.462 8.847v369.744q0 5.385 3.462 8.847 3.461 3.462 8.846 3.462Zm0 65.125q-32.649 0-55.041-22.392-22.393-22.393-22.393-55.042v-369.744q0-32.649 22.393-55.042 22.392-22.392 55.041-22.392h198.924q32.649 0 55.042 22.392 22.392 22.393 22.392 55.042v369.744q0 32.649-22.392 55.042-22.393 22.392-55.042 22.392H585.948Z"/></svg>