<svg xmlns="http://www.w3.org/2000/svg" height="40" viewBox="0 -960 960 960" width="40"><path d="M300.962-82.308q-6.782 0-11.436-4.73-4.654-4.731-4.654-11.424v-118.461q0-6.59 4.654-11.244 4.654-4.653 11.243-4.653H380q6 0 10.692 4.538t4.692 10.59q0 6.153-4.692 10.769Q386-202.308 380-202.308h-64.616v29.488h63.847q6.538 0 11.346 4.653 4.807 4.654 4.807 11.386v58.178q0 6.834-4.807 11.564-4.808 4.731-11.539 4.731h-78.076Zm194.422-60v44.616q0 6.153-4.692 10.769-4.692 4.615-10.729 4.615-6.036 0-10.564-4.615-4.527-4.615-4.527-10.77v-119.615q0-6.205 4.654-10.859 4.654-4.653 10.859-4.653H540q6 0 10.692 4.538t4.692 10.59q0 6.153-4.692 10.769Q546-202.308 540-202.308h-44.616v29.488H520q6 0 10.692 4.538t4.692 10.59q0 6.153-4.692 10.769Q526-142.308 520-142.308h-24.616Zm129.488-60H600q-6.051 0-10.59-4.582-4.538-4.583-4.538-10.692 0-6.11 4.538-10.674 4.539-4.564 10.59-4.564h80q6 0 10.692 4.538t4.692 10.59q0 6.153-4.692 10.769Q686-202.308 680-202.308h-24.616v104.616q0 6.153-4.692 10.769-4.692 4.615-10.729 4.615-6.036 0-10.564-4.615-4.527-4.615-4.527-10.77v-104.615ZM315.384-112.82h49.488v-29.488h-49.488v29.488ZM184.487-379.796l41.001 41.258q6.205 6.41 6.397 14.551.192 8.14-6.603 14.935-6.794 6.795-15.076 6.795t-15.077-6.795L120.77-383q-9.358-9.336-9.358-21.784 0-12.447 9.358-22.062l74.359-74.359q6.667-6.41 15.013-6.397 8.346.012 15.14 6.935 6.795 6.923 6.795 14.872 0 7.948-6.795 14.743l-41.001 41.001H775.77l-41.258-41.001q-6.205-6.077-6.397-14.884-.192-8.808 6.603-15.269Q741.512-508 749.794-508t15.077 6.795l74.359 74.359q9.359 9.615 9.359 22.062 0 12.448-9.359 21.784l-74.359 74.615q-6.667 6.41-14.808 6.269-8.14-.141-14.935-6.936t-6.795-15.077q0-8.281 6.795-15.076l40.591-40.591H184.487Zm-84.486-197.641v-9.281q0-19.618 10.673-35.24 10.672-15.621 29.199-23.913 24.488-10.04 50.752-15.93 26.265-5.891 54.602-5.891 28.338 0 54.518 5.891 26.18 5.89 50.64 15.93 18.527 8.292 29.199 23.913 10.672 15.622 10.672 35.24v9.281H100.001Zm469.743 0v-9.281q0-19.618 10.672-35.24 10.672-15.621 29.199-23.913 24.488-10.04 50.752-15.93 26.265-5.891 54.602-5.891 28.338 0 54.518 5.891 26.18 5.89 50.64 15.93 18.527 8.292 29.199 23.913 10.673 15.622 10.673 35.24v9.281H569.744ZM245.056-727.18q-28.09 0-47.726-19.837t-19.636-47.756q0-27.918 19.665-47.726 19.666-19.807 47.756-19.807 28.091 0 47.898 19.837 19.807 19.837 19.807 47.755 0 27.919-19.836 47.727-19.837 19.807-47.928 19.807Zm469.742 0q-28.09 0-47.726-19.837t-19.636-47.756q0-27.918 19.666-47.726 19.665-19.807 47.755-19.807 28.091 0 47.898 19.837 19.808 19.837 19.808 47.755 0 27.919-19.837 47.727-19.837 19.807-47.928 19.807Z"/></svg>