<svg xmlns="http://www.w3.org/2000/svg" height="40" viewBox="0 -960 960 960" width="40"><path d="M276.308-366.154h94.359q13.774 0 23.092-9.2t9.318-22.8v-65.641q0-13.6-9.318-22.8-9.318-9.2-23.092-9.2h-83.539v-55.231h94.668q9.222 0 15.251-6.119 6.03-6.12 6.03-15.479 0-9.248-6.03-15.235-6.029-5.987-15.251-5.987H276.308q-13.824 0-22.912 9.318t-9.088 23.092v163.282q0 13.6 9.088 22.8 9.088 9.2 22.912 9.2Zm10.82-32v-65.641h73.13v65.641h-73.13Zm218.795-60.308 81.488 85.487q1.697 2.327 15.077 6.821 13.64 0 19.166-12.795t-3.68-22.615l-75.693-79.205 76.027-79.052q9.461-9.692 3.743-21.858-5.717-12.167-19.179-12.167-4.293 0-7.774 1.856-3.482 1.855-6.918 4.965l-82.257 84.718v-70.257q0-9.222-6.119-15.252-6.12-6.03-15.479-6.03-9.248 0-15.235 6.03t-5.987 15.252v184.872q0 9.333 6.083 15.435 6.082 6.103 15.384 6.103t15.327-6.103q6.026-6.102 6.026-15.435v-70.77Zm166.539-5.333v43.547q0 7.325 5.308 12.632 5.307 5.308 12.384 5.308t12.385-5.308q5.307-5.307 5.307-12.632v-43.547h46.103q6.718 0 11.256-4.901 4.539-4.901 4.539-11.436t-4.539-11.099q-4.538-4.564-11.256-4.564h-46.103v-44.333q0-6.949-5.307-12.257-5.308-5.307-12.385-5.307t-12.384 5.307q-5.308 5.308-5.308 12.257v44.333h-45.693q-6.717 0-11.256 4.528-4.538 4.527-4.538 11.135t4.861 11.473q4.862 4.864 11.344 4.864h45.282ZM202.565-140.001q-25.788 0-44.176-18.388t-18.388-44.176v-554.87q0-25.788 18.388-44.176t44.176-18.388h554.87q25.788 0 44.176 18.388t18.388 44.176v554.87q0 25.788-18.388 44.176t-44.176 18.388h-554.87Z"/></svg>