<svg xmlns="http://www.w3.org/2000/svg" height="40" viewBox="0 -960 960 960" width="40"><path d="M440-438.513ZM122.565-140.001q-25.788 0-44.176-18.388-18.387-18.388-18.387-44.176V-674.05q0-25.436 18.387-44 18.388-18.564 44.176-18.564h132.307l54.872-62.641q8.438-10.091 20.668-15.417 12.23-5.327 26.204-5.327h187.077q10.679 0 17.903 7.263 7.224 7.263 7.224 18 0 10.736-7.224 17.864t-17.903 7.128H351.231l-73.385 83.385H122.565q-5.385 0-8.847 3.59-3.462 3.59-3.462 8.719v471.485q0 5.385 3.462 8.847 3.462 3.462 8.847 3.462h634.87q5.385 0 8.847-3.462 3.462-3.462 3.462-8.847v-341.128q0-10.679 7.263-17.903 7.263-7.224 17.999-7.224 10.737 0 17.865 7.224 7.128 7.224 7.128 17.903v341.128q0 25.788-18.564 44.176t-44 18.388h-634.87Zm647.179-629.743h-57.847q-10.679 0-17.904-7.263-7.224-7.263-7.224-17.999 0-10.737 7.224-17.865 7.225-7.128 17.904-7.128h57.847v-58.257q0-10.679 7.263-17.903 7.263-7.224 17.999-7.224 10.737 0 17.865 7.224 7.128 7.224 7.128 17.903v58.257h58.257q10.679 0 17.903 7.263 7.224 7.263 7.224 18 0 10.736-7.224 17.864t-17.903 7.128h-58.257v57.847q0 10.679-7.263 17.904-7.263 7.224-18 7.224-10.736 0-17.864-7.224-7.128-7.225-7.128-17.904v-57.847ZM439.795-278.77q67.564 0 113.755-46.192 46.192-46.192 46.192-113.756t-46.192-113.55q-46.191-45.987-113.755-45.987t-113.551 45.987q-45.986 45.986-45.986 113.55t45.986 113.756q45.987 46.192 113.551 46.192Zm0-50.255q-46.821 0-78.052-31.436-31.231-31.436-31.231-78.257 0-46.821 31.231-78.051Q392.974-548 439.795-548q46.821 0 78.257 31.231 31.436 31.23 31.436 78.051t-31.436 78.257q-31.436 31.436-78.257 31.436Z"/></svg>