<svg xmlns="http://www.w3.org/2000/svg" height="40" viewBox="0 -960 960 960" width="40"><path d="M242.343-236.156q-41.278 0-70.079-28.868-28.801-28.867-28.801-70.106h-15.898q-25.608 0-44.086-18.477-18.477-18.477-18.477-44.086v-279.585q0-25.862 18.477-44.291 18.478-18.43 44.086-18.43h516.588q12.531 0 23.887 4.832 11.355 4.832 19.6 12.912l188.461 183.076q8.743 8.359 13.82 20.108t5.077 24.917v96.461q0 25.609-18.477 44.086-18.478 18.477-44.086 18.477h-9.744q0 41.372-28.894 70.173-28.895 28.801-70.173 28.801-41.277 0-70.078-28.868-28.801-28.867-28.801-70.106H341.41q0 41.179-28.895 70.076-28.894 28.898-70.172 28.898Zm342.656-312.305h205.746L648.308-686.282q-1.667-1.538-3.911-2.5-2.243-.962-4.551-.962h-54.847v141.283Zm-234.871 0h184.616v-141.283H350.128v141.283Zm-234.871 0h184.616v-141.283H127.565q-5.385 0-8.846 3.462-3.462 3.462-3.462 8.847v128.974Zm127.075 268.203q23.002 0 38.989-15.882 15.987-15.883 15.987-38.885t-15.882-38.989q-15.883-15.987-38.885-15.987t-38.989 15.882q-15.987 15.882-15.987 38.885 0 23.002 15.882 38.989 15.882 15.987 38.885 15.987Zm481.281 0q23.002 0 38.99-15.882 15.987-15.883 15.987-38.885t-15.883-38.989q-15.882-15.987-38.884-15.987-23.003 0-38.99 15.882-15.987 15.882-15.987 38.885 0 23.002 15.883 38.989 15.882 15.987 38.884 15.987ZM327.616-385.385H638.89q12.674-21.794 35.789-35.256 23.116-13.462 49.039-13.462 25.923 0 48.461 12.885 22.539 12.885 36.718 35.833h23.538q5.385 0 8.846-3.461 3.462-3.462 3.462-8.847v-100.513H115.257v100.513q0 5.385 3.462 8.847 3.461 3.461 8.846 3.461h29.949q12.769-22.051 35.884-35.384 23.115-13.334 49.038-13.334t48.462 12.757q22.538 12.756 36.718 35.961Zm517.127-112.821H115.257h729.486Z"/></svg>