<svg xmlns="http://www.w3.org/2000/svg" height="40" viewBox="0 -960 960 960" width="40"><path d="m771.204-282.052-37.435-37.435q13.59-28.898 20.051-59.308 6.462-30.41 6.462-61.308 1.077-122.077-85.193-205.653-86.269-83.577-206.859-83.577-30.974 0-60.564 6.384-29.589 6.385-56.692 19.949l-37.794-37.537q35.256-19.103 73.589-29.077t81.461-9.974q70.564 0 132.949 26.256 62.384 26.256 109.102 72.128 46.717 45.871 73.82 107.82 27.102 61.948 26.436 133.281-.411 41.077-10.09 81.025-9.679 39.949-29.243 77.026Zm-65.948-510.41q-7.23-7.23-7.218-17.704.013-10.474 8.705-18.089 7.616-6.949 17.359-6.744 9.743.205 16.948 7.154l116.256 113.949q7.897 7.23 7.962 18.037.064 10.808-7.962 18.833-8.025 8.026-18.64 8.026t-18.641-8.026L705.256-792.462ZM471.205-100.001q-70.154 0-131.795-26.59-61.64-26.59-107.409-72.692-45.769-46.103-72.333-108.179-26.564-62.077-26.564-133.051 0-62.82 21.769-119.564 21.769-56.744 63.923-105.051l-55.359-55.36-41.719 41.719q-7.487 7.23-18.167 7.217-10.679-.012-18.294-7.628-7.615-7.615-7.615-18.435 0-10.82 7.615-18.435l41.309-41.309-50.95-50.949q-7.23-7.231-7.422-17.5-.192-10.268 7.423-17.627 7.615-7.615 17.897-7.615 10.281 0 17.897 7.615L845.82-108.206q7.23 7.231 7.295 17.5.064 10.269-7.295 17.628-7.615 7.615-18.025 7.615-10.41 0-18.025-7.615L697.307-185.13q-43.076 39.333-101.743 62.231-58.667 22.898-124.359 22.898Zm0-51.127q52.385-.41 100.885-18.718 48.5-18.308 88.193-52.719l-407.18-406.77q-34.821 39.642-53.026 88.103-18.206 48.462-18.206 101.129 0 120.846 83.706 205.449 83.705 84.603 205.628 83.526Zm-14.307-275.027Zm85.538-85.153Z"/></svg>