<svg xmlns="http://www.w3.org/2000/svg" height="40" viewBox="0 -960 960 960" width="40"><path d="M321.52-481.077q-10.75 0-17.878 7.215-7.128 7.214-7.128 17.913v142.308q0 10.698 7.249 17.913 7.25 7.214 18 7.214t17.878-7.214q7.128-7.215 7.128-17.913v-142.308q0-10.699-7.25-17.913-7.249-7.215-17.999-7.215Zm316.717-207.179q-10.75 0-17.878 7.214-7.128 7.215-7.128 17.913v349.488q0 10.698 7.25 17.913 7.249 7.214 17.999 7.214t17.878-7.214q7.128-7.215 7.128-17.913v-349.488q0-10.698-7.249-17.913-7.25-7.214-18-7.214ZM479.879-397.692q-10.75 0-17.878 7.339-7.128 7.34-7.128 17.788v58.924q0 10.698 7.249 17.913 7.249 7.214 17.999 7.214t17.878-7.214q7.128-7.215 7.128-17.913v-58.924q0-10.448-7.249-17.788-7.249-7.339-17.999-7.339ZM202.565-140.001q-25.788 0-44.176-18.388t-18.388-44.176v-554.87q0-25.788 18.388-44.176t44.176-18.388h554.87q25.788 0 44.176 18.388t18.388 44.176v554.87q0 25.788-18.388 44.176t-44.176 18.388h-554.87Zm0-50.255h554.87q4.616 0 8.462-3.847 3.847-3.846 3.847-8.462v-554.87q0-4.616-3.847-8.462-3.846-3.847-8.462-3.847h-554.87q-4.616 0-8.462 3.847-3.847 3.846-3.847 8.462v554.87q0 4.616 3.847 8.462 3.846 3.847 8.462 3.847Zm-12.309-579.488V-190.256-769.744Zm289.865 278.666q10.75 0 17.878-7.249 7.128-7.25 7.128-18t-7.249-17.878q-7.249-7.128-17.999-7.128t-17.878 7.25q-7.128 7.249-7.128 17.999t7.249 17.878q7.249 7.128 17.999 7.128Z"/></svg>