<svg xmlns="http://www.w3.org/2000/svg" height="40" viewBox="0 -960 960 960" width="40"><path d="M368.462-180.001H202.565q-25.788 0-44.176-18.564t-18.388-44v-554.87q0-25.788 18.388-44.176t44.176-18.388h554.87q25.436 0 44 18.388t18.564 44.176v554.87q0 25.436-18.564 44t-44 18.564H591.538l-89.615 89.615q-9.406 9.358-21.946 9.358-12.541 0-21.9-9.358l-89.615-89.615Zm-165.897-50.255h186.409L480-139.231l91.026-91.025h186.409q5.385 0 8.847-3.462 3.462-3.462 3.462-8.847v-554.87q0-5.385-3.462-8.847-3.462-3.462-8.847-3.462h-554.87q-5.385 0-8.847 3.462-3.462 3.462-3.462 8.847v554.87q0 5.385 3.462 8.847 3.462 3.462 8.847 3.462Zm225.718-236.539 37.82 88.153q3.862 9.359 14.392 9.359 10.531 0 14.479-9.359l37.41-88.153 88.153-37.154q9.359-4.111 9.359-14.645 0-10.534-9.359-14.483l-88.153-37.153-37.41-88.153q-3.862-9.359-14.393-9.359-10.53 0-14.478 9.359l-37.82 88.153-87.743 37.153q-9.359 3.863-9.359 14.397t9.359 14.731l87.743 37.154ZM480-518.513Z"/></svg>