<svg xmlns="http://www.w3.org/2000/svg" height="40" viewBox="0 -960 960 960" width="40"><path d="m197.282-116.617-82.203-82.204q-5.231-5.359-7.846-11.425-2.616-6.066-2.616-12.564t2.616-12.968q2.615-6.471 7.846-11.555l427.023-426.52q5.719-5.453 12.195-8.004 6.476-2.551 13.384-2.551 6.909 0 13.639 2.551 6.731 2.551 11.962 7.91l79.896 79.896q5.358 4.564 7.576 11.628t2.218 13.972q0 6.908-2.218 13.385-2.218 6.476-7.68 12.185l-427.28 426.264q-5.084 5.231-11.554 7.846-6.471 2.615-12.969 2.615-6.498 0-12.564-2.615t-11.425-7.846Zm369.667-392.896 58.974-58.974-58.974-58.975-58.975 58.975 58.975 58.974Zm198.235-257.21-53.056-24.123q-1.615-.615-4.538-7.251 0-.788 4.538-7.313l53.056-24.123 24.123-53.055q.615-1.616 7.252-4.539.787 0 7.312 4.539l24.123 53.055 53.056 24.123q1.615.616 4.538 6.996 0 1.043-4.538 7.568l-53.056 24.123-24.123 53.056q-.615 1.615-6.995 4.538-1.044 0-7.569-4.538l-24.123-53.056Z"/></svg>