<svg xmlns="http://www.w3.org/2000/svg" height="40" viewBox="0 -960 960 960" width="40"><path d="M202.565-140.001h69.873v-132.437H140.001v69.873q0 25.609 18.478 44.086 18.477 18.478 44.086 18.478Zm120.128 0h132.18v-132.437h-132.18v132.437Zm182.434 0h132.437v-132.437H505.127v132.437Zm182.692 0h69.616q25.609 0 44.086-18.478 18.478-18.477 18.478-44.086v-69.873h-132.18v132.437ZM140.001-687.819h132.437v-132.18h-69.873q-25.609 0-44.086 18.478-18.478 18.477-18.478 44.086v69.616Zm0 182.692h132.437v-132.437H140.001v132.437Zm0 182.434h132.437v-132.18H140.001v132.18Zm182.692-365.126h132.18v-132.18h-132.18v132.18Zm0 182.692h132.18v-132.437h-132.18v132.437Zm0 182.434h132.18v-132.18h-132.18v132.18Zm182.434-365.126h132.437v-132.18H505.127v132.18Zm0 182.692h132.437v-132.437H505.127v132.437Zm0 182.434h132.437v-132.18H505.127v132.18Zm182.692-365.126h132.18v-69.616q0-25.609-18.478-44.086-18.477-18.478-44.086-18.478h-69.616v132.18Zm0 182.692h132.18v-132.437h-132.18v132.437Zm0 182.434h132.18v-132.18h-132.18v132.18Z"/></svg>