<svg xmlns="http://www.w3.org/2000/svg" height="40" viewBox="0 -960 960 960" width="40"><path d="M655.129-214.873h-87.18q-10.679 0-17.903-7.261-7.224-7.262-7.224-17.997 0-10.484 7.224-17.74 7.224-7.257 17.903-7.257h87.18v-87.179q0-10.429 7.261-17.779 7.262-7.349 17.997-7.349 10.484 0 17.741 7.349 7.256 7.35 7.256 17.779v87.179h89.487q10.679 0 17.903 7.387 7.225 7.387 7.225 18 0 10.612-7.225 17.74-7.224 7.128-17.903 7.128h-89.487v89.744q0 10.679-7.387 17.903-7.387 7.225-17.999 7.225-10.613 0-17.741-7.225-7.128-7.224-7.128-17.903v-89.744ZM328.975-100.001q-13.294 0-22.288-8.994-8.993-8.993-8.993-22.288v-635.665q0-13.045 8.993-22.164 8.994-9.118 22.288-9.118h77.179v-30.487q0-13.295 8.994-22.288 8.993-8.994 22.288-8.994h85.128q13.295 0 22.288 8.994 8.994 8.993 8.994 22.288v30.487h77.258q13.312 0 22.257 9.118 8.945 9.119 8.945 22.164v303.923q-86.999 5.59-147.319 69.383-60.32 63.793-60.32 152.898 0 40.923 14.23 76.923 14.231 35.999 39.359 63.82H328.975Z"/></svg>