<svg xmlns="http://www.w3.org/2000/svg" height="40" viewBox="0 -960 960 960" width="40"><path d="M160.257-217.694q-25.788 0-44.176-18.387-18.387-18.388-18.387-44.176v-399.486q0-25.788 18.387-44.176 18.388-18.387 44.176-18.387h639.486q25.788 0 44.176 18.387 18.387 18.388 18.387 44.176v399.486q0 25.788-18.387 44.176-18.388 18.387-44.176 18.387H160.257Zm381.024-287.433h270.771v-174.616q0-4.616-3.847-8.462-3.846-3.847-8.462-3.847H541.281v186.925ZM160.257-267.949h330.769v-424.103H160.257q-4.616 0-8.462 3.847-3.846 3.846-3.846 8.462v399.486q0 4.616 3.846 8.462t8.462 3.846ZM320-434.103q-18.846 0-32.371-13.526-13.526-13.525-13.526-32.576 0-19.051 13.526-32.371 13.525-13.321 32.576-13.321 19.051 0 32.371 13.387 13.321 13.386 13.321 32.51 0 18.846-13.387 32.371-13.386 13.526-32.51 13.526Zm221.281 166.154h258.462q4.616 0 8.462-3.846 3.847-3.846 3.847-8.462v-174.616H541.281v186.924Z"/></svg>