<svg xmlns="http://www.w3.org/2000/svg" height="40" viewBox="0 -960 960 960" width="40"><path d="M165.129-140.001q-43.803 0-74.465-30.663Q60-201.326 60-245.129v-469.742q0-43.803 30.663-74.465 30.662-30.663 74.465-30.663h304.87q43.803 0 74.466 30.663 30.662 30.662 30.662 74.465v266.615h62.821q27.144 0 46.136 18.992 18.992 18.992 18.992 46.136v124.923q0 15.308 10.551 25.859 10.552 10.552 25.86 10.552t25.859-10.552q10.552-10.551 10.552-25.859v-281.539q-30.795 0-53.09-20.064-22.294-20.064-22.294-50.449v-99.742h35.384v-72.307h37.948v72.307h54.359v-72.307h37.948v72.307h35.384v99.742q0 30.385-22.295 50.449-22.294 20.064-53.089 20.064v279.077q0 36.108-25.31 61.387-25.31 25.279-61.461 25.279-36.151 0-61.356-25.279t-25.205-61.387v-129.025q0-5.385-3.462-8.847-3.462-3.462-8.847-3.462h-65.385v179.436q0-58-37.602-95.41-37.602-37.409-95.217-37.409H246.666q-33.169 0-56.071 22.932-22.902 22.933-22.902 56.146 0 33.212 22.902 56.04 22.902 22.828 56.071 22.828h195.642q10.679 0 17.903-7.263 7.224-7.263 7.224-17.999 0-10.737-7.224-17.865-7.224-7.128-17.903-7.128H246.666q-12.231 0-20.475-8.244-8.243-8.243-8.243-20.474t8.243-20.475q8.244-8.243 20.475-8.243h195.642q34.356 0 58.46 24.104t24.104 58.46q0 34.355-24.104 58.459-24.104 24.105-58.46 24.105H165.129Z"/></svg>