<svg xmlns="http://www.w3.org/2000/svg" height="40" viewBox="0 -960 960 960" width="40"><path d="M479.929-100.001q-128.467 0-214.197-88.253-85.731-88.252-85.731-219.691 0-59.029 26.901-118.176 26.9-59.147 67.251-113.523 40.35-54.377 87.124-102.07 46.775-47.693 87.057-83.9 6.948-6.153 14.998-9.243 8.05-3.09 16.715-3.09 8.664 0 16.668 3.09 8.003 3.09 14.951 9.243 40.282 36.207 87.133 84.034 46.852 47.827 87.125 102.098 40.274 54.27 67.174 113.389 26.901 59.119 26.901 118.148 0 131.439-85.801 219.691-85.802 88.253-214.269 88.253Zm-84.801-159.743h169.744q10.679 0 17.903-7.263 7.224-7.263 7.224-18 0-10.736-7.224-17.864t-17.903-7.128H395.128q-10.679 0-17.903 7.263-7.224 7.263-7.224 17.999 0 10.737 7.224 17.865 7.224 7.128 17.903 7.128Zm59.745-195.129v59.745q0 10.679 7.262 17.903 7.263 7.224 18 7.224 10.736 0 17.864-7.224t7.128-17.903v-59.745h59.745q10.679 0 17.903-7.262 7.224-7.263 7.224-18 0-10.736-7.224-17.864t-17.903-7.128h-59.745v-59.745q0-10.679-7.262-17.903-7.263-7.224-18-7.224-10.736 0-17.864 7.224t-7.128 17.903v59.745h-59.745q-10.679 0-17.903 7.262-7.224 7.263-7.224 18 0 10.736 7.224 17.864t17.903 7.128h59.745Z"/></svg>