<svg xmlns="http://www.w3.org/2000/svg" height="40" viewBox="0 -960 960 960" width="40"><path d="M665.898-126.154v-199.872q-9-5.384-14.5-14.372-5.5-8.987-5.5-19.602 0-16.518 11.567-27.746 11.567-11.228 27.331-11.228 16.486 0 27.768 11.228T723.846-360q0 10.615-4.898 19.513-4.897 8.897-15.102 14.461v199.872h-37.948Zm-565.897-53.847v-449.998L400-854.998l254.024 189.717q-17.974 1.384-34.473 4.679-16.5 3.295-32.653 8.705Q495.103-621.025 436-541.846 376.898-462.667 376.898-360q0 48.589 15.418 94.8t44.761 85.199H100.001Zm416.795 2.052Q478.103-213.308 457-260.888q-21.102-47.58-21.102-99.112 0-104.522 72.691-176.748 72.69-72.226 176.204-72.226 104.489 0 176.771 72.226Q933.846-464.522 933.846-360q0 51.667-20.526 99.038-20.526 47.372-59.757 82.013l-25.948-26.589q33.616-29.385 50.949-69.652 17.334-40.268 17.334-84.81 0-88.482-61.3-149.754-61.301-61.272-149.824-61.272-87.492 0-149.21 61.272T473.846-360q0 44.667 17.936 84.975 17.936 40.308 51.346 70.077l-26.332 26.999Zm70.615-71.667q-23.872-21.538-37.692-50.166Q535.898-328.41 535.898-360q0-62.525 43.809-105.75 43.81-43.224 105.083-43.224 62.492 0 105.774 43.224 43.282 43.225 43.282 105.75 0 31.795-13.013 60.808-13.013 29.012-37.218 50.423l-27.384-26.769q18.615-15.974 29.141-37.974 10.526-21.999 10.526-46.488 0-46.482-32.272-78.754-32.272-32.272-78.754-32.272-45.795 0-78.411 32.272-32.615 32.272-32.615 78.754 0 24.095 11.025 45.766 11.026 21.67 28.847 37.901l-26.307 26.717Z"/></svg>