<svg xmlns="http://www.w3.org/2000/svg" height="40" viewBox="0 -960 960 960" width="40"><path d="M235.642-146.207q-28.967 0-57.29-10-28.323-9.999-49.631-30.357 27.385-12.232 42.025-34.783 14.641-22.551 14.641-58.089 0-38.825 26.894-65.694 26.895-26.869 65.756-26.869 38.86 0 65.796 26.869 26.935 26.869 26.935 65.694 0 56.928-39.432 95.079-39.432 38.15-95.694 38.15Zm0-50.255q33.82 0 59.346-24.199 25.525-24.198 25.525-58.775 0-18.231-12.038-30.27-12.039-12.038-30.58-12.038-18.541 0-30.397 12.038-11.856 12.039-11.856 30.27 0 30.846-6.988 49.641-6.987 18.794-22.756 29.436 5.154 1.333 14.744 2.615 9.589 1.282 15 1.282Zm212.306-170.564-79.486-82.05 351.281-351.281q12.231-12.487 29.064-12.987 16.834-.5 30.321 12.987l21.178 20.921q13.231 13.488 13.025 30.231-.205 16.744-13.025 29.821L447.948-367.026Zm-169.999 87.59Z"/></svg>