<svg xmlns="http://www.w3.org/2000/svg" height="40" viewBox="0 -960 960 960" width="40"><path d="M242.565-190.256h474.87q5.385 0 8.847-3.462 3.462-3.462 3.462-8.847v-92.821H230.256v92.821q0 5.385 3.462 8.847 3.462 3.462 8.847 3.462Zm-12.309-155.385h499.488V-450.77H230.256v105.129Zm0-155.384h499.488v-60.257l-58.642-44.872H289.565l-59.309 44.872v60.257Zm125.23-155.384h249.823l-118.001-89.539q-3.077-2.693-7.308-2.693t-7.308 2.693l-117.206 89.539ZM180.001-202.565v-320.539l-60.513 46.898q-8.385 6.616-18.384 5-10-1.615-16.615-10.256-6.615-8.384-5.192-18.256 1.423-9.871 9.858-16.743l90.846-69.538v-89.641q0-10.872 7.128-18t18-7.128q10.871 0 17.999 7.128 7.128 7.128 7.128 18v50.821l212.103-161.103q17.103-12.512 37.833-12.512 20.731 0 37.449 12.512l353.614 270.128q8.435 6.615 9.653 16.487 1.218 9.871-5.397 18.512-6.615 8.179-16.281 9.589-9.667 1.41-18.102-5.205l-61.129-46.693v320.539q0 25.872-18.346 44.218-18.346 18.346-44.218 18.346h-474.87q-25.872 0-44.218-18.346-18.346-18.346-18.346-44.218Zm28.743-542.049q-12.282 0-19.897-9.308-7.615-9.307-3.692-20.152 9.025-31.308 35.538-50.411 26.513-19.102 59.051-19.102 15.18 0 28.052-8.167 12.871-8.167 17.512-22.347 3.462-7.461 9.821-12.833t15.051-5.372q12.409 0 20.243 9.5 7.833 9.499 3.91 20.73-9.82 31.179-36.064 49.961-26.243 18.782-58.525 18.782-15.18 0-27.847 7.821-12.666 7.821-17.718 21.539-3.846 7.846-10.102 13.602-6.256 5.757-15.333 5.757Z"/></svg>