<svg xmlns="http://www.w3.org/2000/svg" height="40" viewBox="0 -960 960 960" width="40"><path d="M481.59-168.924q-128.282 0-219.731-91.051-91.448-91.051-91.448-218.948v-49.899l-64.976 65.232q-6.82 6.82-16.55 6.884-9.73.064-16.936-6.884-6.948-7.205-6.948-17.077 0-9.871 6.948-16.82L173.616-599.82q9.615-9.359 22.051-9.359 12.435 0 21.794 9.359l102.333 102.333q6.821 6.821 6.885 16.551.064 9.73-6.885 16.679-7.205 7.205-17.076 7.205-9.872 0-16.82-7.205l-65.232-64.565v49.899q0 107.616 76.359 183.68 76.359 76.064 184.565 76.064 19.436 0 38.551-2.718 19.116-2.718 37.116-8.487 10.205-2.769 19.858 1.141 9.654 3.91 13.859 13.166 4.205 9.462-.013 18.756-4.218 9.295-14.423 12.731-23.282 8-47.102 11.833-23.821 3.833-47.846 3.833Zm-2.513-569.743q-19.436 0-38.68 2.589-19.244 2.59-36.987 8.359-10.462 3.026-20.295-.884-9.833-3.91-14.294-13.423-4.205-9.256-.179-18.884 4.025-9.628 13.871-13.064 23.641-7.743 47.654-11.346 24.013-3.602 48.91-3.602 128.282 0 219.602 90.923 91.32 90.922 91.32 219.076v48.566l65.232-64.976q6.564-6.82 16.295-7.012 9.73-.193 16.935 7.012 7.205 7.205 7.205 16.948 0 9.744-7.205 16.949L786.795-359.36q-9.359 9.359-21.923 9.359-12.564 0-21.923-9.359L641.283-461.026q-6.821-6.82-7.013-16.961-.192-10.141 7.013-17.346t17.153-7.205q9.948 0 17.153 7.205l64.155 64.155v-47.745q0-107.616-76.359-183.68-76.359-76.064-184.308-76.064Z"/></svg>