<svg xmlns="http://www.w3.org/2000/svg" height="40" viewBox="0 -960 960 960" width="40"><path d="M769.744-727.436h-59.745q-10.679 0-17.903-7.262-7.224-7.261-7.224-17.996 0-10.484 7.224-17.741 7.224-7.256 17.903-7.256h59.745v-59.744q0-10.429 7.263-17.779 7.263-7.349 17.999-7.349 10.737 0 17.865 7.349 7.128 7.35 7.128 17.779v59.744h59.744q10.679 0 17.903 7.387 7.224 7.386 7.224 17.999t-7.224 17.741q-7.224 7.128-17.903 7.128h-59.744v59.744q0 10.68-7.263 17.904t-18 7.224q-10.736 0-17.864-7.224t-7.128-17.904v-59.744ZM134.616-100.001q-14.711 0-24.663-10.347-9.952-10.346-9.952-25.038v-204.717q0-25.609 18.478-44.087 18.477-18.477 44.086-18.477h20.821v-173.641q0-25.808 18.477-44.186 18.478-18.378 44.087-18.378h168.923v-61.743q-18.436-12.436-29.424-27.899-10.987-15.463-10.987-36.826 0-13.352 4.991-25.508 4.991-12.157 14.305-21.436l34.883-35.945q1.205-.949 11.623-4.949 1.736 0 11.095 4.949l34.883 35.945q9.314 9.279 14.638 21.436 5.324 12.156 5.324 25.508 0 21.363-11.32 36.826-11.321 15.463-29.757 27.899v61.743H634.05q25.609 0 44.086 18.378 18.478 18.378 18.478 44.186v173.641h20.821q25.609 0 44.086 18.477 18.478 18.478 18.478 44.087v204.717q0 14.692-10.347 25.038-10.346 10.347-25.038 10.347H134.616Zm99.025-302.666h412.718v-173.641q0-5.385-3.59-8.847-3.59-3.462-8.719-3.462h-388.1q-5.129 0-8.719 3.462t-3.59 8.847v173.641Zm-83.385 252.411h579.488v-189.847q0-5.129-3.462-8.719t-8.847-3.59h-554.87q-5.385 0-8.847 3.59-3.462 3.59-3.462 8.719v189.847Zm83.385-252.411h412.718-412.718Zm-83.385 252.411H729.744 150.256Zm559.486-252.411H170.258h539.484Z"/></svg>