<svg xmlns="http://www.w3.org/2000/svg" height="40" viewBox="0 -960 960 960" width="40"><path d="m480-444.616 129.283 129.282q7.23 7.231 17.499 7.423 10.269.192 17.884-7.423t7.615-17.692q0-10.076-7.615-17.691L515.384-480l129.282-129.283q7.231-7.23 7.423-17.499.192-10.269-7.423-17.884t-17.692-7.615q-10.076 0-17.691 7.615L480-515.384 350.717-644.666q-7.23-7.231-17.499-7.423-10.269-.192-17.884 7.423t-7.615 17.692q0 10.076 7.615 17.691L444.616-480 315.334-350.717q-7.231 7.23-7.423 17.499-.192 10.269 7.423 17.884t17.692 7.615q10.076 0 17.691-7.615L480-444.616Zm.067 344.615q-78.426 0-147.666-29.92t-120.887-81.544q-51.647-51.624-81.58-120.833-29.933-69.21-29.933-147.635 0-78.836 29.92-148.204 29.92-69.369 81.544-120.682 51.624-51.314 120.833-81.247 69.21-29.933 147.635-29.933 78.836 0 148.204 29.92 69.369 29.92 120.682 81.21 51.314 51.291 81.247 120.629 29.933 69.337 29.933 148.173 0 78.426-29.92 147.666t-81.21 120.887q-51.291 51.647-120.629 81.58-69.337 29.933-148.173 29.933Z"/></svg>