<svg xmlns="http://www.w3.org/2000/svg" height="40" viewBox="0 -960 960 960" width="40"><path d="M150.256-286.975v84.41q0 4.616 3.847 8.462 3.846 3.847 8.462 3.847h634.87q4.616 0 8.462-3.847 3.847-3.846 3.847-8.462v-84.41H150.256Zm12.309-412.254h128.694q-5-9-8.205-20.693-3.205-11.692-3.205-22.8 0-40.467 28.153-68.486 28.153-28.02 68.05-28.02 25.391 0 47.191 13.071 21.801 13.071 35.642 32.877l20.583 29.847 20.583-29.847q14.231-20.564 35.46-33.256t46.089-12.692q40.834 0 68.924 27.884 28.089 27.885 28.089 68.971 0 10.503-2.808 21.169-2.808 10.667-8.192 21.975h129.822q25.788 0 44.176 18.387 18.388 18.388 18.388 44.176v434.101q0 25.788-18.388 44.176t-44.176 18.388h-634.87q-25.788 0-44.176-18.388t-18.388-44.176v-434.101q0-25.788 18.388-44.176 18.388-18.387 44.176-18.387Zm-12.309 315.537h659.488v-252.974q0-4.615-3.847-8.462-3.846-3.846-8.462-3.846H557.024l74.82 103.872q6.487 8.51 4.731 18.536-1.756 10.027-10.269 16.258-8.512 6.23-18.539 4.649-10.026-1.581-16.126-10.316l-112.41-154.281-112.41 154.281q-5.938 8.735-15.84 10.316-9.903 1.581-18.621-4.649-8.717-6.231-10.448-16.258-1.731-10.026 4.5-18.536l74.872-103.872H162.565q-4.616 0-8.462 3.846-3.847 3.847-3.847 8.462v252.974Zm226.175-312.563q19.339 0 32.865-13.494 13.526-13.494 13.526-32.833 0-19.34-13.495-32.865-13.494-13.526-32.833-13.526t-32.865 13.494q-13.525 13.494-13.525 32.834 0 19.339 13.494 32.864 13.494 13.526 32.833 13.526Zm205.158 0q19.684 0 33.227-13.494 13.542-13.494 13.542-32.833 0-19.34-13.542-32.865-13.543-13.526-33.227-13.526-18.795 0-32.372 13.494-13.577 13.494-13.577 32.834 0 19.339 13.577 32.864 13.577 13.526 32.372 13.526Z"/></svg>