<svg xmlns="http://www.w3.org/2000/svg" height="40" viewBox="0 -960 960 960" width="40"><path d="M306.36-699.999v-82.05q0-25.814 18.247-44.189t44.317-18.375h221.742q25.814 0 44.188 18.375 18.375 18.375 18.375 44.189v82.05h144.206q25.814 0 44.189 18.375t18.375 44.189v434.87q0 25.814-18.375 44.189t-44.189 18.375h-634.87q-25.814 0-44.189-18.375t-18.375-44.189v-434.87q0-25.814 18.375-44.189t44.189-18.375H306.36Zm50.255 0h246.359v-82.05q0-5.129-3.59-8.719t-8.718-3.59H368.924q-5.129 0-8.719 3.59t-3.59 8.719v82.05ZM150.256-286.975h659.488v-97.383H150.256v97.383Z"/></svg>