<svg xmlns="http://www.w3.org/2000/svg" height="40" viewBox="0 -960 960 960" width="40"><path d="M50-180.256V-560q0-10.679 7.264-17.903 7.263-7.224 18-7.224 10.736 0 17.864 7.224T100.256-560v54.873h114.617v-299.745q0-10.679 7.262-17.903 7.263-7.224 18-7.224 10.736 0 17.864 7.224t7.128 17.903v54.873h109.746v-54.873q0-10.679 7.262-17.903 7.263-7.224 18-7.224 10.736 0 17.864 7.224t7.128 17.903v54.873h109.746v-54.873q0-10.679 7.262-17.903 7.263-7.224 18-7.224 10.736 0 17.864 7.224t7.128 17.903v54.873h109.746v-54.873q0-10.679 7.262-17.903 7.263-7.224 18-7.224 10.736 0 17.864 7.224t7.128 17.903v299.745h114.617V-560q0-10.679 7.263-17.903 7.263-7.224 18-7.224 10.736 0 17.864 7.224T909.999-560v379.744q0 20.519-14.868 35.387-14.868 14.868-35.387 14.868h-253.59q-13.294 0-22.288-8.993-8.993-8.994-8.993-22.288V-240q0-39.923-27.475-67.398-27.475-27.475-67.398-27.475-39.923 0-67.398 27.475-27.475 27.475-27.475 67.398v78.527q0 13.581-8.993 22.527-8.994 8.945-22.288 8.945h-253.59q-20.519 0-35.387-14.868Q50-159.737 50-180.256Zm333.026-314.617h34.493q3.804 0 5.706-2.564 1.902-2.564 1.902-5.589v-65.692q0-10.679-7.262-17.904-7.263-7.224-18-7.224-10.736 0-17.864 7.224-7.128 7.225-7.128 17.904v65.692q0 3.025 2.564 5.589 2.564 2.564 5.589 2.564Zm160 0h34.494q3.803 0 5.705-2.564 1.902-2.564 1.902-5.589v-65.692q0-10.679-7.262-17.904-7.263-7.224-18-7.224-10.736 0-17.864 7.224-7.128 7.225-7.128 17.904v65.692q0 3.025 2.564 5.589 2.564 2.564 5.589 2.564Z"/></svg>