<svg xmlns="http://www.w3.org/2000/svg" height="40" viewBox="0 -960 960 960" width="40"><path d="M235.769-290.001 157-211.232q-7.23 7.23-17.115 3.55-9.884-3.681-9.884-13.986v-545.768q0-25.608 18.477-44.086 18.478-18.477 44.086-18.477h494.872q25.608 0 44.086 18.477 18.477 18.478 18.477 44.086v209.282q-7.5-1.231-14.999-1.538-7.5-.308-15-.308-4.936 0-10.128.214-5.192.213-10.128.555v-208.205q0-5.385-3.461-8.847-3.462-3.461-8.847-3.461H192.564q-5.385 0-8.847 3.461-3.461 3.462-3.461 8.847v427.18h300.513q-.342 4.936-.555 10.128Q480-324.936 480-320q0 7.5.308 15 .307 7.499 1.538 14.999H235.769Zm71.666-329.743h265.13q10.679 0 17.903-7.263 7.224-7.263 7.224-18 0-10.736-7.224-17.864t-17.903-7.128h-265.13q-10.679 0-17.903 7.263-7.224 7.263-7.224 17.999 0 10.737 7.224 17.865 7.224 7.128 17.903 7.128Zm0 164.871h145.13q10.679 0 17.903-7.262 7.224-7.263 7.224-18 0-10.736-7.224-17.864t-17.903-7.128h-145.13q-10.679 0-17.903 7.262-7.224 7.263-7.224 18 0 10.736 7.224 17.864t17.903 7.128Zm387.438 160H600q-10.679 0-17.903-7.262-7.224-7.263-7.224-18 0-10.736 7.224-17.864T600-345.127h94.873V-440q0-10.679 7.262-17.903 7.263-7.224 18-7.224 10.736 0 17.864 7.224T745.127-440v94.873H840q10.679 0 17.903 7.262 7.224 7.263 7.224 18 0 10.736-7.224 17.864T840-294.873h-94.873V-200q0 10.679-7.262 17.903-7.263 7.224-18 7.224-10.736 0-17.864-7.224T694.873-200v-94.873Zm-514.617-45.383v-439.488V-340.256Z"/></svg>