<svg xmlns="http://www.w3.org/2000/svg" height="40" viewBox="0 -960 960 960" width="40"><path d="M480-444.616 270.307-234.924q-7.23 7.231-17.499 7.423-10.269.193-17.884-7.423-7.616-7.615-7.616-17.691 0-10.077 7.616-17.692L444.616-480 234.924-689.693q-7.231-7.23-7.423-17.499-.193-10.269 7.423-17.884 7.615-7.616 17.691-7.616 10.077 0 17.692 7.616L480-515.384l209.693-209.692q7.23-7.231 17.499-7.423 10.269-.193 17.884 7.423 7.616 7.615 7.616 17.691 0 10.077-7.616 17.692L515.384-480l209.692 209.693q7.231 7.23 7.423 17.499.193 10.269-7.423 17.884-7.615 7.616-17.691 7.616-10.077 0-17.692-7.616L480-444.616Z"/></svg>