<svg xmlns="http://www.w3.org/2000/svg" height="40" viewBox="0 -960 960 960" width="40"><path d="M849.744-153.746v-613.69q0-5.385-3.462-8.847-3.462-3.461-8.847-3.461h-714.87q-5.385 0-8.847 3.461-3.462 3.462-3.462 8.847v282.564q0 10.679-7.263 17.903-7.262 7.225-17.999 7.225-10.737 0-17.865-7.225-7.128-7.224-7.128-17.903v-282.564q0-25.608 18.478-44.086 18.477-18.477 44.086-18.477h714.87q25.609 0 44.086 18.477 18.478 18.478 18.478 44.086v551.666q0 22.573-14.167 40.004-14.166 17.43-36.088 22.02ZM360-412.719q-57.749 0-96.438-38.689-38.689-38.688-38.689-96.566 0-57.877 38.689-96.438 38.689-38.56 96.438-38.56t96.438 38.56q38.689 38.561 38.689 96.438 0 57.878-38.689 96.566-38.689 38.689-96.438 38.689Zm0-50.255q35.974 0 60.423-24.448 24.449-24.449 24.449-60.424 0-35.974-24.449-60.423-24.449-24.448-60.423-24.448-35.974 0-60.423 24.448-24.449 24.449-24.449 60.423 0 35.975 24.449 60.424 24.449 24.448 60.423 24.448Zm-248.974 355.28q-21.09 0-36.057-14.968-14.967-14.967-14.967-36.057v-29.23q0-31.282 16.705-55.576 16.705-24.295 43.807-37.346 61.872-28.41 121.056-42.744 59.184-14.333 118.422-14.333t118.225 14.539q58.987 14.538 120.692 42.72 27.813 13.028 44.451 37.243 16.639 24.215 16.639 55.497v29.23q0 21.09-14.968 36.057-14.968 14.968-36.057 14.968H111.026Zm-.77-50.255h499.488v-30q0-14.462-8.936-27.449-8.936-12.987-23.578-20.603-56.564-27.615-109.34-39.653-52.777-12.039-107.89-12.039t-108.428 12.039q-53.315 12.038-109.213 39.653-14.641 7.616-23.372 20.603-8.731 12.987-8.731 27.449v30ZM360-547.846Zm0 389.897Z"/></svg>