<svg xmlns="http://www.w3.org/2000/svg" height="40" viewBox="0 -960 960 960" width="40"><path d="M162.565-260.001q-25.436 0-44-18.564t-18.564-44v-457.948q0-1.923.193-3.59.192-1.667.577-3.333L68.514-819.95q-7.436-7.223-7.628-17.701-.192-10.477 7.663-18.041 7.6-7.82 17.871-7.82 10.273 0 17.837 7.82L856.77-103.435q7.435 7.552 7.628 17.686.192 10.133-7.663 17.825-7.856 7.692-17.983 7.692t-17.981-7.82L628.206-260H162.565Zm697.434 60.359L749.385-310.256h60.359v-487.179q0-5.385-3.462-8.847-3.462-3.462-8.847-3.462H249.897l-50.255-50.255h597.793q25.788 0 44.176 18.564t18.388 44v597.793ZM162.565-310.256h415.386l-99.745-99.745H275.128q-10.679 0-17.903-7.263-7.224-7.263-7.224-17.999 0-10.737 7.224-17.865 7.224-7.128 17.903-7.128h152.824l-74.617-74.617h-78.207q-10.679 0-17.903-7.262-7.224-7.263-7.224-18 0-10.736 7.224-17.864t17.903-7.128h52.489v24.537L150.256-737.951v415.386q0 5.385 3.462 8.847 3.462 3.462 8.847 3.462Zm487.075-99.745-50.255-50.255h85.487q10.679 0 17.903 7.263 7.224 7.263 7.224 18 0 10.736-7.224 17.864t-17.903 7.128H649.64ZM524.768-534.873l-50.255-50.254h210.359q10.679 0 17.903 7.262 7.224 7.263 7.224 18 0 10.736-7.224 17.864t-17.903 7.128H524.768ZM399.897-659.744l-50.255-50.255h335.23q10.679 0 17.903 7.263 7.224 7.263 7.224 17.999 0 10.737-7.224 17.865-7.224 7.128-17.903 7.128H399.897Zm-35.691 135.538Zm144.666-26.563Z"/></svg>