<svg xmlns="http://www.w3.org/2000/svg" height="40" viewBox="0 -960 960 960" width="40"><path d="M430.822-140.001H202.565q-25.788 0-44.176-18.388t-18.388-44.176v-554.87q0-25.788 18.388-44.176t44.176-18.388h228.257v-59.488q0-10.698 7.249-17.913 7.25-7.214 18-7.214t17.878 7.214q7.128 7.215 7.128 17.913v798.974q0 10.698-7.249 17.913-7.25 7.214-18 7.214T437.95-62.6q-7.128-7.215-7.128-17.913v-59.488Zm-240.566-91.332h240.566v-281.848L190.256-231.333Zm361.077 91.332v-347.435l218.411 256.103v-526.102q0-4.616-3.847-8.462-3.846-3.847-8.462-3.847H551.333v-50.255h206.102q25.788 0 44.176 18.388t18.388 44.176v554.87q0 25.788-18.388 44.176t-44.176 18.388H551.333Z"/></svg>