<svg xmlns="http://www.w3.org/2000/svg" height="40" viewBox="0 -960 960 960" width="40"><path d="m819.999-239.694-50.255-50.255v-467.486q0-4.616-3.847-8.462-3.846-3.847-8.462-3.847h-77.949v58.717q0 13.391-8.946 22.337-8.945 8.945-22.336 8.945H379.281L239.027-819.999h156.949q6.154-29.23 29.704-48.46Q449.231-887.69 480-887.69q31.306 0 54.691 19.231 23.385 19.23 29.538 48.46h193.206q26.538 0 44.551 18.013t18.013 44.551v517.741ZM480-765.128q15.461 0 25.807-10.346 10.347-10.346 10.347-25.807 0-15.462-10.347-25.808-10.346-10.346-25.807-10.346-15.461 0-25.807 10.346-10.347 10.346-10.347 25.808 0 15.461 10.347 25.807 10.346 10.346 25.807 10.346Zm217.746 574.872-507.49-507.49v495.181q0 4.616 3.847 8.462 3.846 3.847 8.462 3.847h495.181Zm-495.181 50.255q-26.538 0-44.551-18.013t-18.013-44.551v-537.743q0-1.923.193-3.397.192-1.475.961-3.142l-38.179-38.436q-7.436-7.514-7.628-17.846-.192-10.332 7.663-18.153 7.599-7.564 17.82-7.564t18.144 7.564l682.307 682.307q7.179 7.552 7.371 17.686.193 10.134-7.406 17.698-7.958 7.82-18.179 7.82-10.221 0-17.785-7.82l-38.436-37.564q-1.667.769-3.142.961-1.474.193-3.397.193H202.565Z"/></svg>