<svg xmlns="http://www.w3.org/2000/svg" height="40" viewBox="0 -960 960 960" width="40"><path d="M480-140.001q-145.615 0-242.807-41.115-97.192-41.115-97.192-102.73V-680q0-57.922 99.538-98.961Q339.078-819.999 480-819.999q140.922 0 240.461 41.038 99.538 41.039 99.538 98.961v396.154q0 61.615-97.192 102.73T480-140.001Zm0-466.153q85.974 0 174.961-25.141 88.987-25.141 110.244-55.91-21.539-30.872-110.038-56.705-88.5-25.834-175.167-25.834-87.59 0-175.833 24.936-88.244 24.936-110.552 56.064 21.924 32.564 109.244 57.577Q390.18-606.154 480-606.154Zm-.41 207.59q41.615 0 82.487-4.334 40.872-4.333 78.115-12.769 37.244-8.436 70.372-20.769 33.128-12.333 59.18-27.539v-159.104q-26.718 15.462-59.718 27.795-33 12.333-70.577 20.769-37.577 8.436-77.911 12.975-40.333 4.538-81.948 4.538-42.385 0-83.654-4.731-41.269-4.73-78.449-13.166-37.179-8.436-69.551-20.577-32.372-12.141-57.68-27.603v159.104q25.052 15.206 57.346 27.347 32.295 12.141 69.475 20.705 37.179 8.564 78.32 12.961 41.141 4.398 84.193 4.398Zm.41 208.308q49.769 0 98.385-7.167 48.615-7.167 88.359-19.436 39.743-12.269 67.32-28.243 27.577-15.975 35.68-33.616v-134.591q-26.052 15.461-59.18 27.461-33.128 12-70.372 20.436-37.243 8.436-77.91 12.769-40.667 4.334-82.692 4.334-43.052 0-84.193-4.398-41.141-4.397-78.32-12.833-37.18-8.436-69.346-20.5-32.167-12.064-57.475-27.269v135.206q7.693 17.616 34.962 33.501 27.269 15.884 67.218 27.948 39.949 12.064 88.666 19.231 48.718 7.167 98.898 7.167Z"/></svg>