<svg xmlns="http://www.w3.org/2000/svg" height="40" viewBox="0 -960 960 960" width="40"><path d="m158.361-819.076 49.332 49.332h-45.128q-4.616 0-8.462 3.847-3.847 3.846-3.847 8.462v434.87q0 5.385 3.462 8.847 3.462 3.462 8.847 3.462h433.438L67.232-838.617q-7.23-7.231-7.218-17.705.013-10.474 7.628-18.089 7.615-7.615 17.692-7.615 10.076 0 17.692 7.615l733.486 732.82q7.231 7.231 7.295 17.5.064 10.268-7.423 17.884-7.487 7.615-17.897 7.615-10.41 0-17.769-7.615l-154.46-153.794H530.255v89.743h57.847q10.698 0 17.913 7.25 7.214 7.249 7.214 17.999t-7.214 17.878q-7.215 7.128-17.913 7.128H371.898q-10.698 0-17.913-7.249-7.214-7.25-7.214-18t7.214-17.878q7.215-7.128 17.913-7.128h57.847v-89.743h-267.18q-25.788 0-44.176-18.388t-18.388-44.176v-434.87q0-26.41 18.564-44.025 18.564-17.616 39.796-17.616ZM813.82-263.694l-47.23-46.562h33.178q3.847-.77 7.116-3.847 3.27-3.077 3.27-8.462v-434.87q0-5.385-3.462-8.847-3.462-3.462-8.847-3.462H307.103l-50.255-50.255h540.997q25.436 0 44 18.564t18.564 44v434.87q0 21.751-13.333 38.734-13.334 16.983-33.256 20.137ZM537.513-540Zm-159.947 11.307Z"/></svg>