<svg xmlns="http://www.w3.org/2000/svg" height="40" viewBox="0 -960 960 960" width="40"><path d="M60.256-134.873v59.745q0 10.698-7.25 17.913-7.25 7.214-18 7.214T17.13-57.215Q10-64.43 10-75.128v-772.308q0-25.705 18.429-44.134 18.43-18.429 44.134-18.429h285.128q25.705 0 44.134 18.429 18.43 18.429 18.43 44.134v772.308q0 10.698-7.25 17.913-7.249 7.214-17.999 7.214t-17.878-7.214q-7.128-7.215-7.128-17.913v-59.745H60.256Zm716-214L665.383-245.308v170.18q0 10.698-7.373 17.913-7.373 7.214-17.999 7.214-10.627 0-17.755-7.214-7.128-7.215-7.128-17.913v-217.436l88.718-83.179-27.257-148.951q-36.384 53.898-77.769 77.18-41.384 23.282-88.769 29.257-9.846 1.615-16.871-5.601-7.026-7.215-7.026-17.322 0-10.461 7.103-18.015t18.256-9.522q43.769-6.923 73.179-28.192 29.41-21.27 52.41-58.193l37.667-60.744q14.826-23.046 39.875-29.651 25.048-6.605 50.253 4.139l166 69.154q8.483 4.088 13.792 11.817 5.31 7.729 5.31 17.311v119.691q0 10.699-7.249 17.913-7.25 7.215-18 7.215t-18.083-7.333q-7.333-7.332-7.333-18.205v-106.436l-107.9-46.745L897.922-79.743q2.564 11.478-5.166 20.61Q885.025-50 872.167-50q-9.039 0-15.741-5.266-6.703-5.265-8.759-13.4l-71.411-280.206Zm-716 163.746H370v-662.309q0-5.385-3.462-8.847-3.462-3.461-8.847-3.461H72.564q-5.385 0-8.847 3.461-3.461 3.462-3.461 8.847v662.309Zm122.616-276.745 78.846-44.564q8.154-4.615 8.154-13.397t-8.154-13.731l-78.846-44.82q-8.154-4.949-15.513-.195T160-564.82v89.64q0 9.005 7.359 13.759t15.513-.451Zm498.258-226.18q-29.514 0-50.014-20.563-20.5-20.564-20.5-49.833 0-29.27 20.447-49.898 20.446-20.628 49.833-20.628 29.386 0 50.014 20.564 20.628 20.563 20.628 49.833 0 29.269-20.567 49.897t-49.841 20.628ZM60.256-185.127H370 60.256Z"/></svg>