<svg xmlns="http://www.w3.org/2000/svg" height="40" viewBox="0 -960 960 960" width="40"><path d="M180.001-347.693V-720q0-73.384 71.231-106.691 71.23-33.308 228.768-33.308 161.23 0 230.614 32.385Q779.999-795.23 779.999-720v372.307q0 53.615-37.039 90.653-37.038 37.039-90.653 37.039l60.999 40.948q9.359 6.154 5.885 17.218t-15.038 11.064H255.847q-11.564 0-15.038-11.064t5.885-17.218l60.999-40.948q-53.615 0-90.653-37.039-37.039-37.038-37.039-90.653Zm50.255-185.126h499.488v-166.156H230.256v166.156Zm249.738 207.434q20.852 0 35.429-14.443 14.576-14.442 14.576-35.294 0-20.852-14.616-35.429-14.616-14.577-35.467-14.577-20.852 0-35.256 14.616-14.403 14.616-14.403 35.468 0 20.852 14.442 35.256 14.443 14.403 35.295 14.403Z"/></svg>