<svg xmlns="http://www.w3.org/2000/svg" height="40" viewBox="0 -960 960 960" width="40"><path d="M320.121-689.488q12.674 0 21.533-8.98 8.858-8.98 8.858-21.653 0-12.674-8.98-21.533-8.98-8.858-21.653-8.858-12.674 0-21.533 8.98-8.858 8.98-8.858 21.653 0 12.674 8.98 21.533 8.98 8.858 21.653 8.858Zm120 0q12.674 0 21.533-8.98 8.858-8.98 8.858-21.653 0-12.674-8.98-21.533-8.98-8.858-21.653-8.858-12.674 0-21.533 8.98-8.858 8.98-8.858 21.653 0 12.674 8.98 21.533 8.98 8.858 21.653 8.858Zm39.882 434.615q56.868 0 96.996-38.67 40.128-38.67 40.128-94.355 0-26.102-9.435-50.653-9.436-24.551-28.282-43.141l-77.487-77.487q-9.406-9.359-21.946-9.359-12.541 0-21.9 9.359l-73.871 73.872q-19.385 19.641-30.859 44.769T342.873-388q1.656 55.745 41.444 94.436 39.788 38.691 95.686 38.691Zm.091-47.049q-36.223 0-61.595-25.03-25.372-25.029-25.372-61.17 0-17.494 6.975-33.494 6.974-16 19.949-28.564L480-509.719l63.18 62.77q11.641 11.385 17.667 26.705 6.026 15.32 6.026 32.175 0 36.119-25.279 61.133-25.278 25.014-61.5 25.014ZM242.565-100.001q-25.705 0-44.134-18.43-18.43-18.429-18.43-44.134v-634.87q0-25.705 18.43-44.134 18.429-18.43 44.134-18.43h474.87q25.705 0 44.134 18.43 18.43 18.429 18.43 44.134v634.87q0 25.705-18.43 44.134-18.429 18.43-44.134 18.43h-474.87Zm0-50.255h474.87q5.385 0 8.847-3.462 3.462-3.462 3.462-8.847v-634.87q0-5.385-3.462-8.847-3.462-3.462-8.847-3.462h-474.87q-5.385 0-8.847 3.462-3.462 3.462-3.462 8.847v634.87q0 5.385 3.462 8.847 3.462 3.462 8.847 3.462Zm-12.309 0V-809.744-150.256Z"/></svg>