<svg xmlns="http://www.w3.org/2000/svg" height="40" viewBox="0 -960 960 960" width="40"><path d="M293.593-696.203q-18.823 0-31.951 13.176t-13.128 31.999q0 18.823 13.176 31.951t31.999 13.128q18.823 0 31.951-13.176t13.128-31.999q0-18.824-13.176-31.952-13.176-13.127-31.999-13.127Zm0 382.152q-18.823 0-31.951 13.176t-13.128 31.999q0 18.824 13.176 31.952 13.176 13.127 31.999 13.127t31.951-13.176q13.128-13.176 13.128-31.999t-13.176-31.951q-13.176-13.128-31.999-13.128ZM172.411-807.28h614.814q14.325 0 23.549 9.197 9.225 9.197 9.225 23.992v241.27q0 16.771-9.225 27.565-9.224 10.794-23.549 10.794H172.411q-13.961 0-23.185-10.794-9.225-10.794-9.225-27.565v-241.27q0-14.795 9.225-23.992 9.224-9.197 23.185-9.197Zm17.845 50.255v212.308h579.488v-212.308H190.256Zm-17.845 331.487h611.844q14.769 0 25.256 11.208 10.488 11.209 10.488 26.143v237.005q0 18.231-10.488 28.551-10.487 10.321-25.256 10.321h-608.51q-15.436 0-25.59-10.321-10.154-10.32-10.154-28.551v-237.005q0-14.934 8.821-26.143 8.82-11.208 23.589-11.208Zm17.845 50.255v212.718h579.488v-212.718H190.256Zm0-381.742v212.308-212.308Zm0 381.742v212.718-212.718Z"/></svg>