<svg xmlns="http://www.w3.org/2000/svg" height="40" viewBox="0 -960 960 960" width="40"><path d="M460.719-480 291.744-710.616q-9.051-12.025-2.333-25.704t22.534-13.679q5.926 0 11.111 2.841 5.185 2.842 8.892 7.364L522.461-480 331.948-220.462q-3.718 4.778-8.923 7.62-5.205 2.841-11.153 2.841-15.128 0-21.948-13.474t2.231-25.909L460.719-480Zm241.692 0L533.436-710.616q-9.051-12.025-2.333-25.704t22.534-13.679q5.926 0 11.111 2.841 5.185 2.842 8.892 7.364L764.153-480 573.64-220.462q-3.718 4.778-8.923 7.62-5.204 2.841-11.153 2.841-15.128 0-21.948-13.474t2.487-25.909L702.411-480Z"/></svg>