<svg xmlns="http://www.w3.org/2000/svg" height="40" viewBox="0 -960 960 960" width="40"><path d="M228.36-189.629q-41.37-42.5-64.864-97.739-23.495-55.238-23.495-113.555 0-64.025 23.398-121.846 23.397-57.82 72.448-106.871 36.539-36.644 91.834-59.707 55.295-23.062 124.833-35.036 69.539-11.975 150.833-14.218 81.294-2.244 169.882 3.577 6.205 87.075 4.372 168.395-1.833 81.32-13.859 151.307-12.025 69.987-35.371 126.055-23.346 56.068-60.219 92.961-48.358 48.895-104.576 72.6-56.217 23.705-116.668 23.705-62.549 0-118.984-22.821-56.436-22.82-99.564-66.807Zm85.229 1.27q28.257 18.923 62.988 28.513 34.731 9.59 70.325 9.59 49.768 0 97.459-20.129 47.69-20.128 88.306-61.666 22.389-22.462 41.02-60.372 18.631-37.91 31.333-93.795 12.703-55.885 18.316-130.59 5.613-74.705 1.792-171.346-70.795-2-139.167.782-68.371 2.782-127.923 13.462-59.551 10.679-107.461 29.551t-77.551 48.923q-43.129 43.538-62.949 91.295-19.821 47.757-19.821 92.962 0 51.41 21.167 101.179 21.167 49.769 51.449 78.77 38.564-84.308 101.858-155.807 63.294-71.5 151.987-122.039-77.641 67.41-128.077 144.871-50.436 77.462-75.051 175.846Zm0 0Zm0 0Z"/></svg>