<svg xmlns="http://www.w3.org/2000/svg" height="40" viewBox="0 -960 960 960" width="40"><path d="M479.932-92.309q-29.855 0-51.047-21.24-21.192-21.24-21.192-51.067h144.614q0 29.923-21.26 51.115-21.26 21.192-51.115 21.192Zm274.939-112.307H205.129q-10.852 0-17.99-7.141-7.138-7.142-7.138-18t7.138-17.986q7.138-7.128 17.99-7.128h47.18v-310.104q0-81.102 49.474-144.179 49.474-63.076 128.218-78.897v-21.948q0-20.833 14.57-35.416 14.57-14.584 35.384-14.584t35.429 14.584q14.615 14.583 14.615 35.416v21.948q16.693 3.41 31.565 9.103 14.872 5.692 28.974 13.487l-38.588 38.64q-16.744-7.692-34.68-11.641T480-742.411q-73.667 0-125.552 51.885-51.884 51.885-51.884 125.551v310.104h354.873v-146.643l50.254-50.255v196.898h47.18q10.852 0 17.99 7.142 7.138 7.141 7.138 17.999 0 10.858-7.138 17.986t-17.99 7.128Zm-270.255-240Zm0-31.281v-61.897q0-5.987 2.205-11.455t7.154-10.417L701.769-766.46q7.462-7.462 16.111-10.5 8.65-3.039 17.299-3.039 9.436 0 18.252 3.539 8.816 3.538 16.029 10.615l37 37.385q6.872 7.461 10.205 16.153 3.334 8.692 3.334 17.385 0 8.692-3.565 17.691-3.564 9-10.384 16.462L599.666-453.975q-4.949 4.949-10.417 7.154t-11.455 2.205h-61.897q-13.467 0-22.374-8.907-8.907-8.907-8.907-22.374Zm287.691-219.025-37-37.385 37 37.385Zm-240 202.615h38l129.847-130.462-18.385-19-18.615-18.77-130.847 130.232v38Zm149.462-149.462-18.615-18.77 37 37.77-18.385-19Z"/></svg>