<svg xmlns="http://www.w3.org/2000/svg" height="40" viewBox="0 -960 960 960" width="40"><path d="M479.932-92.309q-29.855 0-51.047-21.24-21.192-21.24-21.192-51.067h144.614q0 29.923-21.26 51.115-21.26 21.192-51.115 21.192Zm274.939-112.307H205.129q-10.686 0-17.907-7.258-7.221-7.259-7.221-18t7.221-17.869q7.221-7.128 17.907-7.128h47.18v-310.104q0-81.102 49.474-144.179 49.474-63.076 128.218-78.897v-21.948q0-20.833 14.57-35.416 14.57-14.584 35.384-14.584t35.429 14.584q14.615 14.583 14.615 35.416v21.948q16.693 3.41 31.511 9.047 14.818 5.637 29.028 13.543L425.384-601.307q-8.621 8.855-13.67 20.393-5.048 11.538-5.048 24.068v127.616q0 25.609 18.478 44.086 18.477 18.478 44.086 18.478h127.616q12.613 0 24.229-5.077t20.232-13.693l66.384-66.333v196.898h47.18q10.686 0 17.907 7.259 7.221 7.258 7.221 17.999t-7.221 17.869q-7.221 7.128-17.907 7.128ZM484.616-475.897v-61.897q0-6.154 2.205-11.641t7.154-10.231l207.536-206.643q7.536-7.157 16.277-10.423 8.742-3.267 17.391-3.267 9.436 0 18.252 3.539 8.816 3.538 16.029 10.615l37 37.385q6.872 7.461 10.205 16.153 3.334 8.692 3.334 17.385 0 8.692-3.372 17.691-3.372 9-10.631 16.543L599.632-453.956q-4.71 4.725-10.197 7.033-5.487 2.307-11.641 2.307h-61.897q-13.301 0-22.291-8.99t-8.99-22.291Zm250.691-180.41 37-38.615-37-37.385-38 38 38 38Z"/></svg>