<svg xmlns="http://www.w3.org/2000/svg" height="40" viewBox="0 -960 960 960" width="40"><path d="M529.41-754q-28.974 0-49.718-20.616-20.743-20.615-20.743-49.846 0-4.615 3.615-20.999-9.436-4.206-15.218-12.815-5.782-8.61-5.782-19.078 0-14.697 10.077-24.825t24.949-10.128q10.44 0 19.027 5.782 8.588 5.782 12.828 15.218 4.914-1.744 10.544-2.68 5.631-.936 10.466-.936 29.032 0 49.724 20.744 20.692 20.743 20.692 49.717 0 29.231-20.615 49.846Q558.641-754 529.41-754Zm162.513 340.794q-6.257 0-10.821-4.564t-4.564-10.564v-25.77q-42.538-19.102-85.359-55-42.82-35.898-66.692-76.257l-36.693 140.874 93.102 220.563v177.77h-50.255V-211.54H414.05L309.178-66.666q-6.487 8.64-16.744 10.256-10.256 1.615-18.64-4.616-8.641-6.487-10.064-16.55-1.423-10.064 4.808-18.449l82.821-115.514h-56.011q-14.296 0-22.873-11.641-8.577-11.641-7.397-26.615 5.795-81.31 21.923-149.156t46.897-140.515q30.513-73.15 67.769-119.56 37.256-46.409 76.743-46.409 27.153 0 43.333 19.166 16.179 19.167 36.333 58.602 26.307 49.949 59.5 78.616 33.192 28.666 80.244 49.539 7.179-7.257 15.91-10.667 8.731-3.411 18.731-3.411 23.154 0 40.538 17.18 17.385 17.179 17.385 39.743v395.128q0 6.257-4.564 10.82-4.564 4.565-10.564 4.565-6.256 0-10.821-4.564-4.564-4.564-4.564-10.82v-395.129q0-10.513-7.948-18.461-7.949-7.949-18.462-7.949t-18.462 7.949q-7.948 7.948-7.948 18.461v28.333q0 6-4.564 10.564t-10.564 4.564Z"/></svg>