<svg xmlns="http://www.w3.org/2000/svg" height="40" viewBox="0 -960 960 960" width="40"><path d="M606.462-133.847q-113.23 0-202.384-63.756-89.154-63.756-122.692-175.782H160.513q-10.871 0-17.999-7.128-7.128-7.128-7.128-18 0-10.871 7.128-17.999 7.128-7.128 17.999-7.128H269.13q-2.385-12.052-3.5-27.924-1.116-15.872-1.116-28.436t1.116-27.859q1.115-15.295 3.5-28.501H160.513q-10.871 0-17.999-7.128-7.128-7.128-7.128-17.999 0-10.872 7.128-18t17.999-7.128h120.873q33.102-109.692 121.128-174.615 88.025-64.923 203.948-64.923 55.41 0 103.115 14.769t91.987 44.923q10.076 7.102 10.64 18.884.565 11.782-8.102 20.448-8.794 8.795-20.768 9.513t-22.794-5.975q-35.437-22.307-74.783-33.384-39.346-11.077-79.295-11.077-96.565 0-165.912 50.5-69.346 50.501-96.448 130.937h227.642q10.871 0 17.999 7.128 7.128 7.128 7.128 18 0 10.871-7.128 17.999-7.128 7.128-17.999 7.128H328.82q-3.564 13.206-4.757 28.501-1.192 15.295-1.192 27.859 0 12.564 1.577 28.757 1.577 16.192 4.372 27.603h242.924q10.871 0 17.999 7.128 7.128 7.128 7.128 17.999 0 10.872-7.128 18t-17.999 7.128H343.717q29.769 89.206 102.667 135.322 72.898 46.115 160.078 46.115 39.564 0 79.68-11.166 40.115-11.167 74.398-33.347 10.409-6.82 22.794-6.41 12.384.41 21.178 9.205 8.667 8.795 7.564 20.704-1.102 11.91-10.512 18.346-45.898 31.205-93.526 45.987-47.628 14.782-101.576 14.782Z"/></svg>