<svg xmlns="http://www.w3.org/2000/svg" height="40" viewBox="0 -960 960 960" width="40"><path d="M579.999-479.693 479.283-580.41l178.28-96.717q10.308-5 18.039 2.692 7.73 7.692 2.346 17.692l-97.949 177.05Zm205.284 376.102-74.693-73.821q-48.256 36.59-106.564 57Q545.718-100.001 480-100.001q-79.67 0-149.02-29.387-69.35-29.386-120.778-80.814-51.428-51.428-80.814-120.778-29.387-69.35-29.387-149.02 0-65.718 20.411-124.026 20.41-58.308 57-106.564l-74.436-74.693q-7.436-7.435-7.628-17.807-.192-10.371 7.628-18.192 7.564-7.564 17.871-7.564 10.307 0 18.128 7.564l682.307 682.307q7.179 7.436 7.371 17.628.193 10.192-7.371 17.756-7.821 7.82-18.128 7.82t-17.871-7.82Zm9.229-161.589-36.332-36.333q24.717-39.128 38.141-84.077 13.423-44.948 13.423-94.41 0-138.692-95.526-234.218Q618.692-809.744 480-809.744q-49.462 0-94.41 13.423-44.949 13.424-84.077 38.141l-36.333-36.332q46.23-31.286 100.359-48.386Q419.667-859.999 480-859.999q79.26 0 148.61 29.592 69.349 29.592 120.777 81.02t81.02 120.777q29.592 69.35 29.592 148.61 0 60.333-17.101 114.461-17.1 54.129-48.386 100.359ZM529.846-529.846Zm-85.845 85.845ZM480-150.256q54.847 0 104.026-16.565 49.18-16.564 90.616-46.795L499.898-388.104 302.847-280.565q-10.384 5.385-18.077-2.308-7.692-7.692-2.307-18.077l109.282-195.307-178.129-178.385q-30.231 41.436-46.795 90.616Q150.256-534.847 150.256-480q0 138.692 95.526 234.218Q341.308-150.256 480-150.256Z"/></svg>