<svg xmlns="http://www.w3.org/2000/svg" height="40" viewBox="0 -960 960 960" width="40"><path d="M806.026-220.771H523.001q-8.474 0-14.314-5.794-5.839-5.795-5.839-14.205v-29.435q0-2.975 5.666-14.18l185.41-189.46q34.436-35.77 50.038-62.295 15.603-26.526 15.603-57.193 0-41.513-26.667-67.346-26.667-25.834-73.18-25.834-29.795 0-53.244 11.68-23.449 11.679-38.423 32.474-6.484 9.179-16.844 12.154-10.361 2.974-19.907-1.018-10.607-4.315-15.248-13.738-4.641-9.423 1.026-18.474 21.436-34.179 58.242-54.987 36.806-20.807 84.808-20.807 69.615 0 111.576 41.615 41.962 41.615 41.962 104.281 0 39.757-19.09 74.417-19.09 34.66-60.807 77.224L570.076-273.846l1.231 2.82h234.719q10.852 0 17.99 7.142 7.137 7.141 7.137 17.999 0 10.858-7.137 17.986-7.138 7.128-17.99 7.128ZM363.718-417.18H153.974q-10.852 0-17.99-7.142-7.137-7.141-7.137-17.999 0-10.858 7.137-17.986 7.138-7.128 17.99-7.128h209.744q10.852 0 17.99 7.141 7.137 7.142 7.137 18t-7.137 17.986q-7.138 7.128-17.99 7.128Z"/></svg>