<svg xmlns="http://www.w3.org/2000/svg" height="40" viewBox="0 -960 960 960" width="40"><path d="M479.824-230.256q137.971 0 233.945-96.371 95.975-96.37 95.975-233.373 0-38.709-8.424-74.035-8.423-35.325-23.628-67.479-26.128 18.385-56.008 28.154-29.88 9.769-61.684 9.769-55.949 0-103.231-28.5T480-768.284q-29.102 47.693-76.577 76.193-47.474 28.5-103.423 28.5-31.804 0-61.491-9.769-29.688-9.769-55.816-27.769-15.206 32.282-23.821 67.846-8.616 35.565-8.616 73.283 0 137.003 96.319 233.373 96.319 96.371 233.249 96.371ZM357.176-466.615q21.927 0 36.837-15.189 14.91-15.189 14.91-36.859 0-21.927-15.06-36.837-15.061-14.91-36.988-14.91-21.67 0-36.708 15.06-15.039 15.061-15.039 36.987 0 21.671 15.189 36.709 15.189 15.039 36.859 15.039Zm246.359 0q21.927 0 36.837-15.189 14.91-15.189 14.91-36.859 0-21.927-15.06-36.837-15.061-14.91-36.988-14.91-21.67 0-36.708 15.06-15.039 15.061-15.039 36.987 0 21.671 15.189 36.709 15.189 15.039 36.859 15.039Zm-505.2 366.614q-27.173 0-45.971-20.321-18.798-20.32-16.593-47.397l35.923-392.358q7.616-79.769 42.423-149.307 34.808-69.538 89.461-120.73 54.654-51.192 125.538-80.538Q400-939.999 480-939.999q80 0 150.884 29.347 70.884 29.346 125.538 80.538 54.653 51.192 89.461 120.73 34.807 69.538 42.423 149.307l35.923 392.358q2.205 27.077-16.593 47.397-18.798 20.321-45.971 20.321H98.335Z"/></svg>