<svg xmlns="http://www.w3.org/2000/svg" height="40" viewBox="0 -960 960 960" width="40"><path d="M396.026-53.385q-46.051 0-83.295-27.436-37.243-27.436-52.243-72.359-8.667-27.974-27.269-46.757-18.603-18.782-44.501-18.782-17.564 0-34.064 7.872t-29.833 21.718L88.95-223.384q19.487-21.795 45.551-33.693 26.064-11.897 54.217-11.897 42.18 0 74.025 28.705 31.846 28.705 46.846 73.038 9.462 28.796 33.436 46.193Q367-103.64 396.026-103.64q22.846 0 41.09-11.398 18.244-11.398 31.167-27.988l.974-1.564L191.591-541q-6.026-8.615-8.808-17.846t-2.782-18.846q0-12.179 4.68-23.512 4.679-11.334 13.654-20.693l258.973-260.768q8.616-8.359 19.667-13.039 11.051-4.679 23.025-4.679 11.974 0 23.025 4.679 11.051 4.68 19.667 13.039l258.973 260.768q8.975 9.359 13.654 20.693 4.68 11.333 4.68 23.512 0 10.026-2.782 19.179-2.782 9.154-8.398 17.513L511.693-117.361q-21.103 30.667-51.052 47.322-29.949 16.654-64.615 16.654Z"/></svg>