<svg xmlns="http://www.w3.org/2000/svg" height="40" viewBox="0 -960 960 960" width="40"><path d="M585.384-359.18q25.589 0 44.076-18.388 18.487-18.387 18.487-44.176v-257.435q0-25.789-18.487-44.176-18.487-18.388-44.076-18.388h-90q-25.788 0-44.176 18.388-18.388 18.387-18.388 44.176v91.487q0 25.788 18.388 44.175 18.388 18.388 44.176 18.388h102.308v103.385q0 5.129-3.59 8.719t-8.718 3.59h-85.539q-10.698 0-17.913 7.249-7.214 7.25-7.214 18t7.214 17.878q7.215 7.128 17.913 7.128h85.539Zm12.308-216.204H495.384q-5.385 0-8.847-3.462-3.462-3.461-3.462-8.846v-91.487q0-5.129 3.462-8.719t8.847-3.59h90q5.128 0 8.718 3.59t3.59 8.719v103.795Zm-304.615 334.87q-25.788 0-44.176-18.388-18.388-18.387-18.388-44.176v-494.357q0-25.788 18.388-44.176t44.176-18.388h494.357q25.789 0 44.176 18.388 18.388 18.388 18.388 44.176v494.357q0 25.789-18.388 44.176-18.387 18.388-44.176 18.388H293.077ZM172.566-120.003q-25.789 0-44.176-18.388-18.388-18.387-18.388-44.175v-519.485q0-10.699 7.25-17.913 7.249-7.215 17.999-7.215t17.878 7.215q7.128 7.214 7.128 17.913v519.485q0 4.615 3.847 8.462 3.846 3.846 8.462 3.846H692.05q10.699 0 17.913 7.25 7.215 7.249 7.215 17.999t-7.215 17.878q-7.214 7.128-17.913 7.128H172.566Z"/></svg>