<svg xmlns="http://www.w3.org/2000/svg" height="40" viewBox="0 -960 960 960" width="40"><path d="M156.872-414.078q7.461 32.078 18.974 60.693 11.513 28.616 27.488 53.642 6.794 10.051 5.576 21.512-1.217 11.461-9.243 19.077-8.025 7.615-18.717 7.064-10.692-.552-17.102-9.987-21.411-32.77-36.052-70.154-14.641-37.385-22.641-80.616-2.154-10.666 4.359-18.91 6.513-8.243 17-8.243 11.281 0 19.435 7.154 8.153 7.153 10.923 18.768Zm46.18-246.282q-16.103 24.77-27.219 53.578-11.115 28.808-18.577 60.86-2.769 11.615-11.115 18.768Q137.795-520 126.514-520q-10.462 0-16.782-8.359t-4.295-18.615q8.026-42.769 23.218-80.705 15.193-37.936 36.962-70.167 6-9.102 16.602-9.679t17.833 6.654q8.025 7.358 8.846 18.768.82 11.41-5.846 21.743Zm95.973 455.693q26.821 16.975 55.308 28.859 28.488 11.885 58.36 18.552 11 2.769 18.153 11.012Q438-138 438-127.129q0 10.077-8.025 16.487-8.026 6.41-18.282 4.205-41.026-7.359-78.398-21.885-37.371-14.526-70.936-36.295-9.692-6.41-10.871-17.102-1.18-10.692 6.051-18.923 8.231-8.23 19.499-9.525 11.269-1.295 21.987 5.5Zm116.489-598.872q-31.565 6.795-60.078 18.642-28.513 11.846-54.18 28.564-10.923 6.666-22.705 5.743-11.781-.923-20.012-9.153-8.231-7.846-7.154-18.243 1.077-10.397 10.385-16.807 33.795-21.385 72.295-36.411 38.5-15.025 81.038-23.025 10.051-1.949 17.679 4.666 7.628 6.615 7.628 16.692 0 10.871-6.82 18.717-6.82 7.846-18.076 10.615Zm64.896 413.794q-37.871 0-64.063-26.192T390.155-480q0-37.871 26.192-64.063t64.063-26.192q37.871 0 64.063 26.192T570.665-480q0 37.871-26.192 64.063t-64.063 26.192Zm179.334 185.411q10.333-6.41 22.448-5.487t20.346 9.154q8.231 7.846 7.025 18.615-1.205 10.769-10.256 16.435-33.846 21.795-72.654 36.693-38.807 14.897-82.551 23.153-10.256 1.949-18.179-4.666Q518-117.052 518-127.129q0-10.871 7.115-18.922t18.782-10.821q31.744-6.794 60.552-18.5 28.808-11.705 55.295-28.962Zm-114.437-598.41q-11-2.769-17.948-11.012-6.949-8.244-6.949-19.115 0-10.077 7.628-16.692t17.936-5.051q41.077 8 79.346 22.82 38.269 14.821 72.91 37.001 9.308 6.41 10.59 17.012t-5.949 18.833q-7.974 8.23-19.179 9.448-11.205 1.218-21.871-5.448Q634-772.333 604.59-784.141q-29.411-11.808-59.283-18.603Zm258.232 388.718q2.769-11.667 10.922-18.82Q822.615-440 833.897-440q10.461 0 16.781 8.038 6.321 8.038 4.551 18.705-8.692 42.974-23.653 80.756-14.962 37.782-36.783 69.757-5.999 9.102-16.268 9.974-10.269.872-17.5-6.359-8.025-8.025-9.051-19.397-1.025-11.371 5.385-21.038 16.359-24.974 27.667-53.487t18.513-60.975Zm-45.796-246.231q-6.794-10.051-5.577-21.512 1.218-11.461 9.244-19.487 7.359-7.615 17.756-6.551t17.063 10.551q21.616 32.769 36.423 70.039 14.808 37.269 22.808 80.243 1.949 10.923-4.564 18.949Q844.384-520 833.897-520q-11.282 0-19.436-7.359-8.153-7.359-10.922-19.23-7.205-32.077-18.513-60.36-11.308-28.282-27.283-53.308Z"/></svg>