<svg xmlns="http://www.w3.org/2000/svg" height="40" viewBox="0 -960 960 960" width="40"><path d="M255.538-180.001q-81.64 0-138.588-56.949-56.949-56.948-56.949-138.588 0-73.718 48.231-128.974 48.231-55.256 122.077-64.615 16.23-92.026 87.358-151.449 71.128-59.423 162.743-59.423 105.974 0 179.807 75.744 73.833 75.743 73.833 183.178v31.899h12.308q66.538.872 110.089 45.692 43.552 44.82 43.552 108.435 0 63.691-45.385 109.37-45.384 45.68-109.332 45.68H255.538Zm0-50.255h489.744q43.487 0 73.974-30.488 30.488-30.487 30.488-73.974 0-43.231-30.488-73.718-30.487-30.487-73.974-30.487h-61.487v-82.154q0-85.308-58.91-146.987-58.911-61.68-144.475-61.68-69.846 0-126.859 44.026-57.013 44.026-73.09 116.207 64.897 9.435 111.807 52.551 46.91 43.115 55.551 110.448 1.769 10.487-5.641 18.499-7.41 8.013-19.05 8.013-9.308 0-16.756-6.641-7.449-6.641-9.218-16.692-8.282-51.846-48.41-84.795-40.128-32.949-94.693-32.949-60.307 0-102.051 42.487t-41.744 103.052q0 60.307 42.488 102.794 42.487 42.488 102.794 42.488Z"/></svg>