<svg xmlns="http://www.w3.org/2000/svg" height="40" viewBox="0 -960 960 960" width="40"><path d="m634.155-150.256 50.255 50.255H242.565q-25.788 0-44.176-18.388t-18.388-44.176v-634.87q0-25.788 18.388-44.176t44.176-18.388h315.742q13.889 0 26.234 5.809 12.345 5.809 21.15 16.704l159.128 186.23q7.679 8.74 11.429 19.074 3.751 10.334 3.751 21.618v441.23q0 11.64-6.231 23.538-6.231 11.897-15.872 19.897L555.692-327.95q-18.487 12.051-36.648 17.025-18.16 4.975-39.044 4.975-55.852 0-94.746-38.894T346.36-439.59q0-55.852 38.894-94.746 38.894-38.893 94.746-38.893t94.746 38.893q38.894 38.894 38.894 94.746 0 21.753-6.039 40.607-6.038 18.854-17.859 34.675l140.002 140.925v-393.489l-164.77-192.872H242.565q-4.616 0-8.462 3.847-3.847 3.846-3.847 8.462v634.87q0 4.616 3.847 8.462 3.846 3.847 8.462 3.847h391.59ZM480-356.205q35.564 0 59.474-26.346 23.911-26.346 23.911-62.321 0-33-24.654-55.551-24.654-22.551-58.731-22.551t-58.731 22.551q-24.654 22.551-24.654 55.551 0 35.975 23.911 62.321 23.91 26.346 59.474 26.346Zm0-98.668Zm0 0Z"/></svg>