<svg xmlns="http://www.w3.org/2000/svg" height="40" viewBox="0 -960 960 960" width="40"><path d="M162.565-180.001q-25.846 0-44.205-18.564-18.359-18.564-18.359-44v-474.87q0-25.436 18.359-44t44.205-18.564h213.64q12.564 0 24.294 5.077 11.731 5.077 20.346 13.436l51.488 51.744h325.102q25.436 0 44 18.564t18.564 43.999v404.614q0 25.436-18.564 44t-44 18.564h-634.87ZM596-367.77l62.256 45.282q4.949 3.41 9.128.333 4.179-3.076 2.436-8.487l-23.102-77.307 64.64-53.923q3.949-3.564 2.077-8.538-1.872-4.974-7.282-4.974h-77.64l-25.154-75.102q-1.744-5.41-7.359-5.41t-7.359 5.41l-25.564 75.102H485.18q-5.41 0-7.282 4.974-1.872 4.974 2.334 8.538l64.64 53.923-23.769 77.307q-1.743 5.411 2.641 8.693 4.385 3.282 9.333-.129L596-367.77Z"/></svg>