<svg xmlns="http://www.w3.org/2000/svg" height="40" viewBox="0 -960 960 960" width="40"><path d="M328.231-342.794 457.411-678q1.683-4.78 5.983-7.724 4.301-2.943 9.634-2.943h13.409q5.486 0 9.774 2.943 4.289 2.944 5.968 7.724l130.769 336.667q4.231 10.205-1.82 19.154-6.051 8.948-17.397 8.948-6.808 0-12.467-3.677-5.659-3.676-7.853-10.194l-35.231-92.129H404.538l-35.231 91.924q-2.342 6.445-8.077 10.261-5.734 3.815-12.309 3.815-11.69 0-18.306-9.364-6.615-9.365-2.384-20.199Zm89.076-115.462h125.386l-60.667-163.231h-5.488l-59.231 163.231ZM67.694-98.976v-128.921q0-13.295 8.994-22.288 8.993-8.994 22.288-8.994h40.615v-441.642H98.909q-13.324 0-22.27-8.994-8.945-8.993-8.945-22.288v-128.921q0-13.295 8.994-22.288 8.993-8.994 22.288-8.994h128.921q13.295 0 22.288 8.994 8.994 8.993 8.994 22.288v40.615h441.642v-40.682q0-13.324 8.994-22.269 8.993-8.946 22.288-8.946h128.921q13.295 0 22.288 8.994 8.994 8.993 8.994 22.288v128.921q0 13.295-8.994 22.288-8.993 8.994-22.288 8.994h-40.615v441.642h40.682q13.324 0 22.269 8.994 8.946 8.993 8.946 22.288v128.92q0 13.296-8.994 22.29-8.993 8.993-22.288 8.993H732.103q-13.295 0-22.288-8.994-8.994-8.993-8.994-22.288v-40.615H259.179v40.682q0 13.324-8.994 22.27-8.993 8.945-22.288 8.945H98.977q-13.296 0-22.29-8.994-8.993-8.993-8.993-22.288Zm191.485-90.87h441.642v-38.119q0-13.323 8.994-22.268 8.993-8.946 22.288-8.946h38.051v-441.642h-38.119q-13.323 0-22.268-8.994-8.946-8.993-8.946-22.288v-38.051H259.179v38.119q0 13.323-8.994 22.268-8.993 8.946-22.288 8.946h-38.051v441.642h38.119q13.323 0 22.268 8.994 8.946 8.993 8.946 22.288v38.051Zm-141.23-561.23h90.975v-90.975h-90.975v90.975Zm633.127 0h90.975v-90.975h-90.975v90.975Zm0 633.127h90.975v-90.975h-90.975v90.975Zm-633.127 0h90.975v-90.975h-90.975v90.975Zm90.975-633.127Zm542.152 0Zm0 542.152Zm-542.152 0Z"/></svg>