<svg xmlns="http://www.w3.org/2000/svg" height="40" viewBox="0 -960 960 960" width="40"><path d="M130.255 0q-20.743 0-35.499-14.897Q80-29.794 80-50.665q0-20.743 14.961-35.5 14.961-14.755 35.704-14.755h699.08q20.743 0 35.499 14.564Q880-71.793 880-50.666q0 20.744-14.961 35.705Q850.078 0 829.335 0h-699.08Zm295.258-615.922 180.459 180.665-163.64 163.384q-19.128 19.385-48.897 19.385t-48.897-19.385l-9.385-9.128-25.899 25.693q-8.359 8.205-20.038 13.205t-23.833 5h-70.382q-10.308 0-14.09-9.884-3.782-9.885 3.577-17.244l83.589-83.64-4.974-4.975q-20.615-20.615-20.487-50.461.128-29.846 20.743-50.717l162.154-161.898Zm35.794-35.999 185.36-185.154q18.307-18.308 44.23-18.308t44.23 18.308l91.127 90.922q18.308 18.307 18.103 45.512-.205 27.205-18.513 45.512L641.971-471.256 461.307-651.921Z"/></svg>