<svg xmlns="http://www.w3.org/2000/svg" height="40" viewBox="0 -960 960 960" width="40"><path d="M130.255 0q-20.743 0-35.499-14.897Q80-29.794 80-50.665q0-20.743 14.961-35.5 14.961-14.755 35.704-14.755h699.08q20.743 0 35.499 14.564Q880-71.793 880-50.666q0 20.744-14.961 35.705Q850.078 0 829.335 0h-699.08Zm440.334-471.256L461.307-580.794 292.794-412.282q-3.462 3.462-3.462 8.462 0 5.001 3.462 8.463L385.203-303q3.462 3.462 8.462 3.462 5.001 0 8.463-3.462l168.461-168.256Zm-73.283-145.332 109.077 109.333 183.488-183.283q3.462-3.462 3.462-8.847t-3.462-8.846l-91.589-91.589q-3.462-3.462-8.847-3.462t-8.846 3.462L497.306-616.588Zm-53.486-17.641 180.46 180.46-181.948 181.896q-19.128 19.385-48.897 19.385t-48.897-19.385l-9.385-9.128-25.899 25.693q-8.359 8.205-20.038 13.205t-23.833 5h-70.382q-10.308 0-14.09-9.884-3.782-9.885 3.577-17.244l83.589-83.64-4.974-4.975q-20.615-20.615-20.487-50.461.128-29.846 20.743-50.717L443.82-634.229Zm0 0 202.847-202.846q18.307-18.308 44.23-18.308t44.23 18.308l91.127 90.922q18.308 18.307 18.103 45.512-.205 27.205-18.513 45.512L624.28-453.769l-180.46-180.46Z"/></svg>