<svg xmlns="http://www.w3.org/2000/svg" height="40" viewBox="0 -960 960 960" width="40"><path d="M518.16-889.998q10.737 0 17.865 7.224 7.128 7.225 7.128 17.904V-520q0 10.679-7.263 17.903-7.263 7.224-18 7.224-10.736 0-17.864-7.224T492.898-520v-344.87q0-10.679 7.263-17.904 7.263-7.224 17.999-7.224Zm-156.845 40q10.736 0 17.864 7.224 7.128 7.225 7.128 17.904V-520q0 10.679-7.263 17.903-7.263 7.224-17.999 7.224-10.737 0-17.865-7.224-7.128-7.224-7.128-17.903v-304.87q0-10.679 7.263-17.904 7.263-7.224 18-7.224ZM497.81-60.001q-132.668 0-225.238-92.228-92.571-92.227-92.571-224.797v-377.845q0-10.679 7.263-17.903 7.263-7.225 18-7.225 10.736 0 17.864 7.225 7.128 7.224 7.128 17.903v377.845q0 111.631 77.62 189.2 77.62 77.57 189.681 77.57 111.845 0 190.119-77.936 78.273-77.936 82.068-189.911v-156.77h-14.873q-23.167 0-39.02 15.853-15.852 15.853-15.852 39.02v102.306q0 13.295-8.994 22.289-8.993 8.993-22.288 8.993H606.41q-39.923 0-67.398 27.475-27.474 27.474-27.474 67.398v25.127q0 10.679-7.263 17.903-7.263 7.225-18 7.225-10.736 0-17.864-7.225-7.128-7.224-7.128-17.903v-25.127q0-60.667 42.23-102.897 42.231-42.231 102.897-42.231h43.334V-784.87q0-10.679 7.263-17.904 7.263-7.224 17.999-7.224 10.737 0 17.865 7.224 7.128 7.225 7.128 17.904v216.743q11.564-8.077 25.558-12.539 13.993-4.461 29.314-4.461h33.846q13.295 0 22.288 8.993 8.994 8.994 8.994 22.288v175.743q-3.795 133.237-96.765 225.669-92.97 92.433-225.424 92.433Zm27.317-287.819Z"/></svg>