<svg xmlns="http://www.w3.org/2000/svg" height="40" viewBox="0 -960 960 960" width="40"><path d="M274.823-274.823H165.129q-10.679 0-17.903-7.263-7.225-7.263-7.225-17.999 0-10.737 7.225-17.865 7.224-7.128 17.903-7.128h128.667q13.295 0 22.288 8.994 8.994 8.993 8.994 22.288v128.667q0 10.679-7.263 17.903-7.263 7.225-18 7.225-10.736 0-17.864-7.225-7.128-7.224-7.128-17.903v-109.694Zm410.739 0v109.694q0 10.679-7.263 17.903-7.263 7.225-17.999 7.225-10.737 0-17.865-7.225-7.128-7.224-7.128-17.903v-128.667q0-13.295 8.994-22.288 8.993-8.994 22.288-8.994h128.667q10.679 0 17.903 7.263 7.224 7.263 7.224 18 0 10.736-7.224 17.864t-17.903 7.128H685.562ZM274.823-685.177v-109.694q0-10.679 7.263-17.903 7.263-7.225 17.999-7.225 10.737 0 17.865 7.225 7.128 7.224 7.128 17.903v128.667q0 13.294-8.994 22.288-8.993 8.994-22.288 8.994H165.129q-10.679 0-17.903-7.263-7.225-7.263-7.225-18 0-10.736 7.225-17.864 7.224-7.128 17.903-7.128h109.694Zm410.739 0h109.694q10.679 0 17.903 7.263 7.224 7.263 7.224 17.999 0 10.737-7.224 17.865-7.224 7.128-17.903 7.128H666.589q-13.295 0-22.288-8.994-8.994-8.994-8.994-22.288v-128.667q0-10.679 7.263-17.903 7.263-7.225 18-7.225 10.736 0 17.864 7.225 7.128 7.224 7.128 17.903v109.694Z"/></svg>