<svg xmlns="http://www.w3.org/2000/svg" height="40" viewBox="0 -960 960 960" width="40"><path d="M170.899-90q-13.398 0-22.34-8.943-8.942-8.942-8.942-22.339V-320q0-43.76 30.683-74.444 30.684-30.683 74.444-30.683h80q66.539 0 100.706-36.937 34.167-36.936 34.167-88.192 0-28.283-17.257-46.45-17.256-18.167-42.488-18.167-24.935 0-42.595-17.66t-17.66-42.595v-163.59q0-13.397 8.942-22.339 8.942-8.942 22.34-8.942h137.818q13.397 0 22.339 8.942 8.943 8.942 8.943 22.339v34.743q0 7.693 5.577 13.27 5.577 5.578 13.27 5.578 107.897 0 184.525 78.038T819.999-520v40q0 110.205-77.462 187.666-77.461 77.461-187.666 77.461h-160q-23.167 0-39.02 15.853-15.852 15.853-15.852 39.02v38.718q0 13.397-8.943 22.34-8.942 8.941-22.339 8.941H170.899Z"/></svg>