<svg xmlns="http://www.w3.org/2000/svg" height="40" viewBox="0 -960 960 960" width="40"><path d="M238.155-862.743h49.69l131.616 329.87h-49.768l-30.436-77.666H186.743l-30.436 77.666h-49.768l131.616-329.87ZM229-465.999q37.769 0 63.884 26.115 26.115 26.115 26.115 63.884 0 20.384-8.359 38.577-8.359 18.192-23.923 31.448l-23.41 20.924L313-235.23l63.769-62.769L412.768-262l-62.769 63.154 56 56.615L370-107.232l-56-56-45.539 45.924q-14.538 14.538-32.218 22.423-17.679 7.884-37.833 7.884-36.974 0-62.692-25.666-25.717-25.667-25.717-63.025 0-19.308 7.577-36.962 7.576-17.653 22.32-30.499L189.616-288l-24.692-24.308q-12.846-12.846-19.885-29.128-7.038-16.282-7.038-33.974 0-37.769 26.615-64.179 26.615-26.41 64.384-26.41Zm-3.795 213.972-49.923 44.847q-6.719 6.051-10.372 14.116-3.654 8.064-3.654 17.372 0 15.615 11.359 26.526 11.359 10.91 26.975 10.91 9.308 0 16.974-4.295 7.667-4.295 14.513-11.141l46.539-45.923-52.411-52.412ZM228-415.744q-16.436 0-27.795 11.654-11.36 11.654-11.36 28.09 0 7.821 3.116 15.141 3.115 7.321 8.346 12.552l27.231 27.667 21.796-20.308q8.333-6.846 13.577-15.59t5.244-18.872q0-16.821-11.667-28.578-11.667-11.756-28.488-11.756Zm33-386.974-57.129 147.411h118.258L265-802.718h-4Zm436.82-80.383q5.769 10.666 9.898 21.615 4.128 10.949 6.948 22.615l-40.589 11.872h188.229v50.255h-61.563q-10.487 38.385-32.346 71.487-21.859 33.103-49.552 60.77 28.59 20.769 60.782 34.59 32.193 13.82 66.244 22.077l-11.436 48.409q-41.743-10.231-80.115-28.103-38.371-17.872-72.371-44.385-34.385 26.564-73.731 44.026-39.346 17.462-81.602 28.077l-11.461-47.64q34.872-8.256 67.897-22.41 33.026-14.154 62.257-35.052-27.18-28.051-48.257-60.949-21.077-32.897-31.513-70.897h-67.845v-50.255h163.665q-2.359-10.41-5.589-20.923-3.231-10.513-7.846-19.923l49.896-15.256Zm108.975 439.307 35.999 34.999-297.179 297.179-35.999-34.999 297.179-297.179ZM580-423.127q18.871 0 31.999 13.128T625.127-378q0 18.871-13.128 31.999T580-332.873q-18.871 0-31.999-13.128T534.873-378q0-18.871 13.128-31.999T580-423.127Zm38.871-353.617q7.744 29.59 24.052 55.026 16.308 25.437 39.693 45.385 23.102-19.948 39.654-45.718 16.552-25.77 25.141-54.693h-128.54ZM780-223.127q18.871 0 31.999 13.128T825.127-178q0 18.871-13.128 31.999T780-132.873q-18.871 0-31.999-13.128T734.873-178q0-18.871 13.128-31.999T780-223.127Z"/></svg>