<svg xmlns="http://www.w3.org/2000/svg" height="40" viewBox="0 -960 960 960" width="40"><path d="m438.41-432.512-74.923-74.923q-7.18-7.436-17.782-7.628-10.602-.193-18.423 7.628-7.82 7.82-7.82 18.332 0 10.513 7.82 18.077l87.975 88.589q9.359 9.359 21.794 9.359 12.436 0 21.795-9.359l173.615-173.615q7.436-7.435 7.628-17.807.192-10.371-7.628-17.782-7.154-7.153-17.666-6.948-10.513.205-17.666 7.615L438.41-432.512ZM480-105.155q-5.41 0-10.538-1-5.129-1-10.334-3-128.691-45.821-203.909-160.526-75.218-114.704-75.218-249.704v-183.537q0-19.718 11.462-35.885 11.461-16.166 29.179-23.32l237.435-88.384q11.359-4.205 21.923-4.205 10.564 0 21.923 4.205l237.435 88.384q17.718 7.154 29.179 23.32 11.462 16.167 11.462 35.885v183.537q0 135-75.218 249.704-75.218 114.705-203.909 160.526-5.205 2-10.334 3-5.128 1-10.538 1Z"/></svg>