<svg xmlns="http://www.w3.org/2000/svg" height="40" viewBox="0 -960 960 960" width="40"><path d="m480-445.335 70.77 69.283q7.23 7.231 17.909 7.423 10.68.192 18.295-7.423 8.025-8.025 8.025-18.64t-8.025-17.974l-69.693-69.283 69.693-69.949q7.897-7.231 7.961-17.91.064-10.679-7.961-18.704-7.615-7.616-18.102-7.616t-18.102 7.616L480-519.23l-70.77-69.282q-7.23-7.231-17.704-7.628-10.474-.398-18.5 7.628-7.615 7.615-7.82 18.435-.205 10.82 7.82 18.179l69.693 69.949-69.693 69.283q-7.897 7.23-7.961 17.909-.064 10.68 7.961 18.705 7.615 7.615 18.102 7.615t18.102-7.615L480-445.335Zm0 340.18q-5.41 0-10.538-1-5.129-1-10.334-3-128.691-45.821-203.909-160.526-75.218-114.704-75.218-249.704v-183.537q0-19.718 11.462-35.885 11.461-16.166 29.179-23.32l237.435-88.384q11.359-4.205 21.923-4.205 10.564 0 21.923 4.205l237.435 88.384q17.718 7.154 29.179 23.32 11.462 16.167 11.462 35.885v183.537q0 135-75.218 249.704-75.218 114.705-203.909 160.526-5.205 2-10.334 3-5.128 1-10.538 1Zm0-48.691q109.282-35.308 179.513-137.487 70.231-102.18 70.231-228.052v-183.922q0-3.847-2.116-6.924-2.115-3.077-5.962-4.615l-237.435-89.051q-1.923-.77-4.231-.77t-4.231.77l-237.435 89.051q-3.847 1.538-5.962 4.615-2.116 3.077-2.116 6.924v183.922q0 125.872 70.231 228.052Q370.718-189.154 480-153.846Zm0-325.385Z"/></svg>