<svg xmlns="http://www.w3.org/2000/svg" height="40" viewBox="0 -960 960 960" width="40"><path d="M682.308-347.95q18.205 0 31.666-13.026 13.461-13.025 13.461-32.102 0-18.205-13.461-31.666-13.461-13.461-31.666-13.461-19.077 0-32.102 13.461-13.026 13.461-13.026 31.666 0 19.077 13.026 32.102 13.025 13.026 32.102 13.026ZM100.001-572.307 229.36-717.819q8.359-9.154 20.012-14.128 11.654-4.974 24.167-4.974h411.922q12.513 0 24.167 4.974 11.653 4.974 20.012 14.128l130.359 145.512H100.001Zm62.564 340.766q-26.872 0-44.718-17.846-17.846-17.846-17.846-44.717v-227.948h759.998v227.948q0 26.871-18.346 44.717t-44.218 17.846h-634.87Z"/></svg>