<svg xmlns="http://www.w3.org/2000/svg" height="40" viewBox="0 -960 960 960" width="40"><path d="m436.923-634.974 40.967-112.923h4.528l41.069 112.923h-86.564Zm43.168 204.152q-89.599 0-152.203-62.386-62.604-62.385-62.604-151.984 0-89.598 62.513-152.202 62.514-62.605 152.112-62.605 89.599 0 152.203 62.514t62.604 152.112q0 89.599-62.513 152.075-62.514 62.476-152.112 62.476Zm-54.207-172.512h108.577l21.385 58.436q2 5.821 6.78 8.744 4.779 2.923 10.636 2.923 10.04 0 15.479-7.744 5.438-7.743 1.618-16.923l-90.36-232.999q-1.597-4.111-5.588-6.889-3.991-2.778-9.174-2.778h-11.294q-5.02 0-9.144 2.778-4.124 2.778-5.722 6.889l-87.82 233.769q-3.487 8.6 1.822 16.248 5.31 7.649 14.384 7.649 6.05 0 10.563-3.004 4.513-3.003 6.154-8.227l21.704-58.872Zm405.552 428.923h-58.872q-9.369 0-15.248-6.119-5.88-6.119-5.88-15.478 0-9.171 6.103-14.992 6.102-5.82 15.435-5.82h58.462v-59.129q0-9.044 6.12-14.958 6.119-5.913 15.478-5.913 9.171 0 14.991 5.807 5.821 5.808 5.821 15.064v59.129h59.128q9.045 0 14.958 5.802 5.914 5.803 5.914 15.102t-5.808 15.402q-5.807 6.103-15.064 6.103h-59.128v59.129q0 9.044-5.803 14.958-5.802 5.913-15.101 5.913-9.3 0-15.403-6.102-6.103-6.103-6.103-15.436v-58.462Zm-301.897 67.385v-191.23q0-9.045 5.914-14.958 5.913-5.914 14.957-5.914h108.308q22.923 0 38.82 15.18 15.897 15.179 15.897 38.871v33.641q0 20.025-11.038 34.397t-31.423 22.372l25.385 60.129q4.435 10.487-1.449 19.435-5.885 8.949-17.654 8.949-6.205 0-11.656-3.436-5.45-3.436-7.651-9.487l-30.154-71.539h-56.257v63.59q0 9.045-5.973 14.958-5.972 5.914-15.107 5.914-9.135 0-15.027-5.914-5.892-5.913-5.892-14.958Zm41.999-105.333h87.59q4.615 0 8.462-3.846 3.846-3.846 3.846-8.462v-40.41q0-4.615-3.846-8.462-3.847-3.846-8.462-3.846h-87.59v65.026ZM47.897-194v86.974q0 9.045-5.922 14.958-5.922 5.914-14.98 5.914-9.056 0-14.949-5.914-5.892-5.913-5.892-14.958v-191.23q0-9.045 5.922-14.958 5.922-5.914 14.98-5.914 9.057 0 14.949 5.914 5.892 5.913 5.892 14.958v62.513h98.668v-62.513q0-9.045 5.874-14.958 5.874-5.914 15.107-5.914t15.125 5.914q5.893 5.913 5.893 14.958v191.23q0 9.045-5.909 14.958-5.908 5.914-14.945 5.914-9.361 0-15.253-5.914-5.892-5.913-5.892-14.958V-194H47.897Zm219.744 86.974v-191.23q0-9.045 5.914-14.958 5.914-5.914 14.958-5.914h106.82q22.923 0 38.487 15.564 15.564 15.564 15.564 38.487v124.871q0 22.924-15.564 38.488t-38.487 15.564h-106.82q-9.044 0-14.958-5.914-5.914-5.913-5.914-14.958Zm41.743-20.871h85.949q4.616 0 8.462-3.846 3.846-3.847 3.846-8.463v-124.871q0-4.615-3.846-8.462-3.846-3.846-8.462-3.846h-85.949v149.488Z"/></svg>