<svg xmlns="http://www.w3.org/2000/svg" height="40" viewBox="0 -960 960 960" width="40"><path d="M594-323.847h-44q-8.436 0-14.243-5.879-5.808-5.879-5.808-14.307t6.013-14.249q6.013-5.82 14.448-5.82H594v-44.001q0-8.435 6.008-14.115 6.008-5.679 14.436-5.679t14.12 5.679q5.692 5.68 5.692 14.115v44.001h44q8.436 0 14.244 5.802 5.807 5.803 5.807 14.231t-5.807 14.325q-5.808 5.897-14.244 5.897h-44v44.001q0 8.436-5.674 14.243-5.675 5.808-14.103 5.808-8.427 0-14.453-6.013T594-280.256v-43.591ZM324.512-594v83.59q0 8.435-5.674 14.115-5.674 5.679-14.102 5.679t-14.454-5.679q-6.025-5.68-6.025-14.115v-187.846q0-8.436 6.007-14.244 6.008-5.807 14.436-5.807t14.12 5.807q5.692 5.808 5.692 14.244v64h104.617v-64q0-8.436 6.007-14.244 6.008-5.807 14.436-5.807t14.12 5.807q5.692 5.808 5.692 14.244v187.846q0 8.435-5.674 14.115-5.674 5.679-14.102 5.679t-14.454-6.013q-6.025-6.012-6.025-14.448V-594H324.512Zm208.001 82.923v-187.179q0-8.436 6.013-14.244 6.013-5.807 14.448-5.807h92.513q22.205 0 37.513 15.307 15.307 15.308 15.307 37.513v122.307q0 22.205-15.307 37.385-15.308 15.179-37.513 15.179h-92.513q-8.435 0-14.448-6.013-6.013-6.012-6.013-14.448ZM413.435-321.794q7.693 0 12.847-5.154 5.154-5.155 5.154-12.847v-29.179q0-7.693-5.154-12.975t-12.847-5.282h-85.948v65.437h85.948Zm-85.948 39.435v64q0 8.436-5.469 13.91-5.47 5.474-13.898 5.474-8.427 0-14.248-5.679-5.82-5.679-5.82-14.115v-187.846q0-8.436 6.012-14.244 6.013-5.807 14.449-5.807h110.615q21.615 0 36.679 15.192 15.064 15.192 15.064 36.551v40.82q0 18.435-11.679 32.128-11.68 13.693-29.295 18.539l23.974 58.513q4.026 9.41-1.814 17.679-5.839 8.269-15.801 8.269-5.769 0-10.589-3.192-4.821-3.192-7.026-8.577l-28.949-71.615h-62.205Zm245.282-248.512h67.025q7.693 0 12.847-5.283 5.154-5.282 5.154-12.975v-110.665q0-7.693-5.154-12.847t-12.847-5.154h-67.025v146.924Zm-92.702 430.87q-79.656 0-149.025-29.382-69.368-29.381-120.81-80.8-51.442-51.419-80.836-120.756-29.395-69.338-29.395-148.994 0-79.246 29.382-148.614 29.381-69.369 80.8-120.811 51.419-51.441 120.756-81.041 69.338-29.6 148.994-29.6 79.246 0 148.614 29.587 69.369 29.586 120.811 81.005 51.441 51.419 81.041 120.756 29.6 69.338 29.6 148.584 0 79.656-29.587 149.025-29.586 69.368-81.005 120.81-51.419 51.442-120.756 80.836-69.338 29.395-148.584 29.395ZM480-150.256q138.692 0 234.218-95.526Q809.744-341.308 809.744-480t-95.526-234.218Q618.692-809.744 480-809.744t-234.218 95.526Q150.256-618.692 150.256-480t95.526 234.218Q341.308-150.256 480-150.256ZM480-480Z"/></svg>