<svg xmlns="http://www.w3.org/2000/svg" height="40" viewBox="0 -960 960 960" width="40"><path d="M784.513-104.72 109.694-779.129q-7.231-7.23-7.525-17.602-.295-10.371 7.525-18.191 7.615-7.616 17.897-7.616 10.282 0 17.897 7.616l675.024 674.614q7.436 7.435 7.526 17.499.089 10.064-7.526 17.884-7.82 7.82-17.999 7.795-10.179-.026-18-7.59ZM686-446.565v72.359l-41.743-41.999v-154.513q0-9.564 7.179-16.346 7.18-6.782 16.744-6.782h110.948q23.59 0 39.154 15.564 15.564 15.564 15.564 39.154v37.846q0 18.743-11.667 32.346-11.667 13.602-28.898 18.064l24.565 57.411q4.435 9.82-1.616 18.563-6.051 8.744-16.82 8.744-6.051 0-11.5-3.231-5.448-3.231-7.653-9.282l-28-67.898H686Zm0-41.999h93.794q4.616 0 8.463-3.846 3.846-3.847 3.846-8.462v-38.922q0-4.616-3.846-8.463-3.847-3.846-8.463-3.846H686v63.539Zm-111.077 3.025L466.616-593.846h53.589q22.948 0 38.833 15.564 15.885 15.564 15.885 39.154v53.589Zm-407.026 17.898v80.615q0 8.821-6.026 14.846-6.025 6.026-14.845 6.026-8.821 0-14.846-6.026-6.026-6.025-6.026-14.846v-185.948q0-8.821 6.026-14.846 6.025-6.026 14.846-6.026 8.82 0 14.845 6.026 6.026 6.025 6.026 14.846v63.59h101.232v-63.59q0-8.821 6.025-14.846 6.026-6.026 14.846-6.026t14.846 6.026q6.025 6.025 6.025 14.846v185.948q0 8.821-6.025 14.846-6.026 6.026-14.846 6.026t-14.846-6.026q-6.025-6.025-6.025-14.846v-80.615H167.897Zm217.18-65.949 41.999 41.742v83.951h71.591q2.308 0 4.424-1.09 2.115-1.09 4.038-2.756l37.743 37.691q-5.333 3.897-11.693 5.898-6.359 2-12.974 2H409q-9.564 0-16.743-7.18-7.18-7.179-7.18-16.743V-533.59Z"/></svg>