<svg xmlns="http://www.w3.org/2000/svg" height="40" viewBox="0 -960 960 960" width="40"><path d="M222.975-123.335 122.95-223.359q-18.794-17.839-18.794-44.189 0-26.349 18.794-44.323l527.358-527.102q18.249-18.384 44.188-18.179 25.94.205 44.324 18.179l99.768 99.768q17.974 18.506 18.179 44.445.206 25.939-18.179 44.067L311.487-123.335q-18.095 18.795-44.445 18.795-26.349 0-44.067-18.795Zm280.05-148.052 187.768-187.767 147.41 147.667q18.77 18.289 18.77 44.529 0 26.24-18.385 44.368L737.795-121.797q-18.103 18.103-43.551 17.141-25.449-.961-43.551-19.064L503.025-271.387Zm-21.47-105.024q15.219 0 25.447-10.296 10.229-10.295 10.229-25.515 0-15.11-10.296-25.265-10.296-10.154-25.515-10.154-15.22 0-25.448 10.222-10.228 10.221-10.228 25.332t10.295 25.393q10.296 10.283 25.516 10.283Zm-69.333-69.333q15.11 0 25.265-10.295 10.154-10.296 10.154-25.516 0-15.219-10.222-25.447-10.221-10.229-25.332-10.229t-25.393 10.296q-10.283 10.296-10.283 25.515 0 15.22 10.296 25.448 10.295 10.228 25.515 10.228Zm138.255 0q15.22 0 25.448-10.295 10.228-10.296 10.228-25.516 0-15.219-10.296-25.447-10.295-10.229-25.515-10.229-15.219 0-25.447 10.296-10.229 10.296-10.229 25.515 0 15.22 10.296 25.448t25.515 10.228Zm-278.628-57.179L122.617-651.898q-17.718-17.974-18.641-42.692-.923-24.717 17.051-42.435l101.948-101.948q17.964-18.384 44.062-18.384 26.097 0 44.45 18.384l147.667 147.411-187.305 188.639Zm209.706-11.743q15.219 0 25.447-10.296 10.229-10.296 10.229-25.515 0-15.22-10.296-25.448t-25.515-10.228q-15.22 0-25.448 10.296-10.228 10.295-10.228 25.515 0 15.219 10.295 25.447 10.296 10.229 25.516 10.229Z"/></svg>