<svg xmlns="http://www.w3.org/2000/svg" height="40" viewBox="0 -960 960 960" width="40"><path d="M437.334-161.847Q335.03-262.623 269.516-330.927q-65.515-68.304-103.053-118.65-37.538-50.346-52-89.295-14.462-38.949-14.462-80.989 0-87.876 61.091-149.007t148.909-61.131q41.645 0 80.514 14.769 38.87 14.769 69.946 42.692l-51.205 179.052q-5 16.135 4.4 29.811 9.399 13.676 24.907 13.676h79.539L489.82-285.89q-1 8.198 6.372 9.198t9.628-6L592-565.898q5.205-16.257-3.927-30.18-9.133-13.923-24.995-13.923h-80.001l65.23-195.075q23.148-12.462 48.61-18.693 25.462-6.23 52.313-6.23 87.769 0 149.269 61.09 61.5 61.091 61.5 148.909 0 41.491-15.103 81.194t-53.038 90.562q-37.936 50.859-103.051 119.077-65.116 68.218-165.089 167.32-8.576 8.538-19.57 13.346t-23.134 4.808q-12.14 0-23.731-5-11.591-5-19.949-13.154ZM150.256-619.901q0 32.542 12.106 64.029 12.105 31.486 42.859 72.705 30.754 41.219 83.523 97.771 52.77 56.552 134.052 138.86 3.744 4 8.359 2.5 4.616-1.5 5.641-6.5l26.18-249.208h-28.207q-38.355 0-63.587-28.346-25.232-28.346-12.052-74.525l43.436-151.052q-21.667-11.026-44.856-18.552-23.189-7.525-47.709-7.525-66.385 0-113.065 46.679-46.68 46.68-46.68 113.164Zm658.718-.027q0-66.457-46.679-113.137-46.68-46.679-113.065-46.679-15.428 0-30.47 3.077-15.043 3.077-29.454 8.128l-35.462 108.283h18.463q36.948 1.436 58.807 31.679t8.962 73.55l-79.053 263.286q-2 5.385 3.5 8.693 5.5 3.307 10.5-1.693 71.411-71.565 116.976-121.078 45.564-49.513 71.641-86.847 26.078-37.333 35.706-66.821 9.628-29.487 9.628-60.441Zm-168.898 64.901ZM359.13-602.615Z"/></svg>