<svg xmlns="http://www.w3.org/2000/svg" height="40" viewBox="0 -960 960 960" width="40"><path d="M482.553-258.77q14.549 0 24.665-10.284 10.115-10.284 10.115-24.833 0-14.293-10.156-24.536-10.156-10.243-24.704-10.243-14.549 0-24.793 10.283-10.243 10.284-10.243 24.577 0 14.549 10.284 24.792 10.283 10.244 24.832 10.244Zm-2.309 158.769q-78.915 0-147.999-29.92-69.084-29.92-120.731-81.544-51.647-51.624-81.58-120.727-29.933-69.103-29.933-148.074 0-78.715 29.92-147.978 29.92-69.262 81.544-120.575 51.624-51.314 120.727-81.247 69.103-29.933 148.074-29.933 78.715 0 147.978 29.92 69.262 29.92 120.575 81.21 51.314 51.291 81.247 120.629 29.933 69.337 29.933 147.996 0 78.915-29.92 147.999-29.92 69.084-81.21 120.608-51.291 51.524-120.629 81.58-69.337 30.056-147.996 30.056Zm2.43-555.025q30.147 0 52.608 18.583 22.462 18.582 22.462 47.087 0 24.1-13.97 42.591t-31.876 34.663q-21.78 18.911-38.146 41.686-16.367 22.775-17.521 50.98-.384 9.436 6.677 15.333 7.062 5.898 16.477 5.898 10.051 0 16.813-6.616 6.763-6.615 8.494-16.538 3.589-20.359 16.089-36.807 12.5-16.449 28.532-30.427 22.789-20.637 38.763-46.214 15.974-25.577 15.974-56.294 0-47.129-35.435-78.244-35.436-31.115-83.839-31.115-34.314 0-65.314 15.269-31 15.269-50.102 43.679-5.462 8.231-4.327 17.567 1.134 9.337 8.383 14.67 9.995 6.095 20.199 3.608 10.205-2.487 17.051-11.794 13.064-17.192 31.699-27.378 18.635-10.187 40.309-10.187Z"/></svg>