<svg xmlns="http://www.w3.org/2000/svg" height="40" viewBox="0 -960 960 960" width="40"><path d="m644.152-347.693 155.205-133.666 9.64.564q11.288 1.157 17.708 9.138 6.42 7.981 6.42 17.206 0 5.236-2.341 10.372t-7.095 9.257L701.996-329.873l37.026 160.564q.616 1.249.616 3.066v2.809q0 11.381-7.801 18.497-7.801 7.115-18.244 7.115-3.36 0-7.01-.718t-6.919-2.667l-8.871-5.692-46.641-200.794Zm-84.743-262.434-47.641-112.512 3.641-8.256q2.919-7.688 9.69-11.959 6.771-4.271 14.089-4.271 7.062 0 14.07 4.102 7.009 4.102 10.278 12.179l53.307 125.922-57.434-5.205ZM219.771-193.464l40.538-174.844L125.054-486.23q-5.615-4.949-8.384-11.009-2.769-6.059-2.769-11.863 0-11.283 7.782-20.808t21.089-10.473l178.93-15.859 69.221-164.883q3.686-9.359 11.939-14.038 8.253-4.68 16.875-4.68t17.087 4.68q8.466 4.679 12.253 14.038l69.221 164.883 178.93 15.859q13.307.948 21.218 10.444 7.91 9.496 7.91 20.746 0 6.245-2.898 12.13-2.897 5.884-8.512 10.833L579.691-368.308l40.922 174.862q.872 2.364.872 6.833 0 13.43-9.452 22.507-9.452 9.078-21.597 9.078-2.438 0-17.002-4.949L420-252.463l-153.434 92.486q-3.949 2.205-8.388 3.577-4.439 1.372-8.125 1.372-14.038 0-24.263-11.462-10.224-11.461-6.019-26.974Z"/></svg>