<svg xmlns="http://www.w3.org/2000/svg" height="40" viewBox="0 -960 960 960" width="40"><path d="M197.949-95.386q-25.846 0-44.204-18.359-18.359-18.358-18.359-44.204V-320.87l131.539-146.642 35.742 35.999-116.103 129.206h586.872L661.64-429.103l35.999-35.999L824.614-320.87v162.921q0 25.846-18.359 44.204-18.358 18.36-44.204 18.36H197.949Zm0-50.255h564.102q5 0 8.654-3.654t3.654-8.654v-94.103H185.641v94.103q0 5 3.654 8.654t8.654 3.654Zm240.692-248.59L299.745-533.897q-19.18-19.18-17.936-44.346 1.244-25.167 19.756-43.936l193.461-193.46q18.059-17.809 43.901-18.238 25.842-.429 44.355 18.084l139.537 139.281q18.103 18.359 18.513 43.23.41 24.872-19.179 44.462L527.359-394.026q-18.103 18.102-43.821 18.538-25.717.436-44.897-18.743Zm243.949-230.87q3.333-3.078 3.333-8.847 0-5.77-3.333-8.847L548.539-777.102q-3.333-3.077-8.975-3.077-5.641 0-8.718 3.077L339.128-585.385q-3.333 3.334-3.333 8.975 0 5.642 3.333 8.719l134.051 134.307q3.333 3.077 8.975 3.077 5.641 0 8.718-3.077L682.59-625.101Zm-496.949 479.46v-106.411V-145.641Z"/></svg>