<svg xmlns="http://www.w3.org/2000/svg" height="40" viewBox="0 -960 960 960" width="40"><path d="M202.565-140.001q-25.872 0-44.218-18.346-18.346-18.346-18.346-44.218v-536.461q0-1.923.193-3.461.192-1.539.961-3.078l-55.204-55.409q-7.23-7.231-7.526-17.602-.294-10.372 7.526-18.192 7.615-7.615 17.897-7.615 10.281 0 17.897 7.615L841.64-116.873q7.436 7.436 7.525 17.5.09 10.063-7.73 17.884-7.564 7.615-17.769 7.59-10.205-.026-18.025-7.59l-59.692-59.282q-1.666.385-3.333.577-1.667.193-3.59.193H202.565Zm90.205-159.743h294.206l-93.565-93.847L447.693-336l-65.539-84.615q-5.205-6.026-12.294-6.026-7.09 0-12.039 6l-77.615 95.358q-6.025 8.154-1.615 16.846 4.41 8.693 14.179 8.693Zm527.229 61.768L237.976-819.999h519.459q25.872 0 44.218 18.346 18.346 18.346 18.346 44.218v519.459Z"/></svg>