<svg xmlns="http://www.w3.org/2000/svg" height="40" viewBox="0 -960 960 960" width="40"><path d="M120-50h-4.872q-10.871 0-18-7.129-7.127-7.128-7.127-18 0-10.87 7.128-17.999 7.128-7.128 17.999-7.128H120q26.769 0 52.641-7.282t50.436-23.436q7.051-5.051 16.923-5.051 9.872 0 16.923 5.051 24.564 16.154 50.436 23.436T360-100.256q26.359 0 52.436-7.487 26.077-7.487 50.641-23.231 7.462-4.641 17.231-4.641 9.769 0 16.615 4.641 24.564 16.154 50.436 23.436T600-100.256q26.359 0 52.436-7.487 26.077-7.487 50.641-23.231 6.846-4.641 16.923-4.641 10.077 0 16.923 4.641 24.564 15.744 50.641 23.231 26.077 7.487 52.436 7.487h4.872q10.871 0 17.999 7.128 7.128 7.128 7.128 18 0 10.871-7.128 18-7.128 7.127-17.999 7.127H840q-28.769 0-59.102-8.102Q750.564-66.206 720-86.026q-30.564 19.82-60.898 27.923-30.333 8.102-59.102 8.102t-59.102-8.102Q510.564-66.206 480-86.026q-30.564 19.82-60.898 27.923-30.333 8.102-59.102 8.102t-59.102-8.102Q270.564-66.206 240-86.026q-30.564 19.82-60.898 27.923-30.333 8.102-59.102 8.102Zm360-542.924q-29.077 0-49.769-20.82-20.692-20.82-20.692-49.641 0-29.076 20.692-49.769 20.692-20.692 49.769-20.692 29.077 0 49.769 20.692 20.692 20.693 20.692 49.769 0 28.821-20.692 49.641-20.692 20.82-49.769 20.82ZM360-195.795q-25.513 0-51.039-8.897-25.525-8.897-47.449-27.103-9.922-7.897-21.832-8.102-11.91-.205-21.423 7.282-7.256 5.82-14.782 10.961-7.525 5.141-15.525 9.372-15.154-3.206-31.243-7-16.09-3.795-32.065-8.795-36.102-9.821-36.102-31.731 0-21.91 36.102-31.73 42.103-11.769 86.513-21.885 44.41-10.115 85.333-16.935l58.923-182.309q7.974-25.256 31.628-35.422 23.653-10.167 46.371 1.5l108.513 56.205 119.872-65.744 70.847-160.539-15.847-40.641q-2-6.154-1.602-12.231.397-6.077 2.602-11.692l27.333-60.076q5.154-11.769 17.218-16.321 12.064-4.551 23.628.603l50.564 23.077q11.769 5.41 16.513 17.346 4.743 11.935-.154 23.5l-26.923 60.076q-2.205 5.615-7.282 9.564T808-717.308l-40.436 15.846-159.103 363.719q57.923 6.615 116.333 19.102 58.41 12.488 110.564 27.103 34.82 9.82 34.82 31.538t-34.82 31.538q-16.744 5.256-32.744 9.115t-30.949 7.065q-8-4.103-15.435-9.141-7.436-5.039-14.436-10.808-9.512-7.871-21.448-7.666-11.936.205-21.858 8.102-22.308 18.206-47.642 27.103-25.333 8.897-50.846 8.897-25.513 0-50.846-8.897-25.334-8.897-47.642-27.487Q492-240.077 480-240.077t-21.512 7.898q-22.308 18.59-47.642 27.487-25.333 8.897-50.846 8.897Zm207.898-145.948 60.924-140.618-86.899 48.027-78.744-39.898-42.565 131.028q14.411-.77 28.693-1.346 14.282-.577 30.693-.577 21.051 0 43.154.692 22.102.692 44.744 2.692Z"/></svg>