<svg xmlns="http://www.w3.org/2000/svg" height="40" viewBox="0 -960 960 960" width="40"><path d="M763.104-220.001H600.615q-10.698 0-17.913-7.25-7.215-7.249-7.215-17.999t7.215-17.878q7.215-7.128 17.913-7.128h162.489l-60.13-61.181q-6.82-7.231-7.153-17.538-.334-10.307 7.102-17.846 7.231-7.23 17.692-7.23t17.692 7.23l99.384 99.769q9.359 9.406 9.359 21.946 0 12.541-9.359 21.9l-99.384 99.769q-7.231 7.23-17.589 7.141-10.359-.09-17.795-7.526-7.23-7.23-7.025-17.499.205-10.269 7.025-17.5l60.181-61.18ZM236.737-572.052q12.673 0 21.532-8.847 8.859-8.848 8.859-21.654t-8.981-21.665q-8.98-8.859-21.653-8.859-12.673 0-21.532 8.979-8.859 8.98-8.859 21.651 0 12.934 8.98 21.665 8.981 8.73 21.654 8.73Zm121.897 0q12.674 0 21.532-8.847 8.859-8.848 8.859-21.654t-8.98-21.665q-8.98-8.859-21.654-8.859-12.673 0-21.532 8.979-8.859 8.98-8.859 21.651 0 12.934 8.981 21.665 8.98 8.73 21.653 8.73Zm121.487 0q12.674 0 21.533-8.847 8.858-8.848 8.858-21.654t-8.98-21.665q-8.98-8.859-21.653-8.859-12.674 0-21.533 8.979-8.858 8.98-8.858 21.651 0 12.934 8.98 21.665 8.98 8.73 21.653 8.73Zm121.898 0q12.673 0 21.532-8.847 8.859-8.848 8.859-21.654t-8.98-21.665q-8.981-8.859-21.654-8.859t-21.532 8.979q-8.859 8.98-8.859 21.651 0 12.934 8.98 21.665 8.981 8.73 21.654 8.73Zm121.487 0q12.673 0 21.532-8.847 8.859-8.848 8.859-21.654t-8.98-21.665q-8.981-8.859-21.654-8.859t-21.532 8.979q-8.859 8.98-8.859 21.651 0 12.934 8.981 21.665 8.98 8.73 21.653 8.73ZM236.737-449.488q12.673 0 21.532-8.98t8.859-21.653q0-12.674-8.981-21.533-8.98-8.858-21.653-8.858-12.673 0-21.532 8.98t-8.859 21.653q0 12.674 8.98 21.533 8.981 8.858 21.654 8.858Zm121.897 0q12.674 0 21.532-8.98 8.859-8.98 8.859-21.653 0-12.674-8.98-21.533-8.98-8.858-21.654-8.858-12.673 0-21.532 8.98T328-479.879q0 12.674 8.981 21.533 8.98 8.858 21.653 8.858Zm121.487 0q12.674 0 21.533-8.98 8.858-8.98 8.858-21.653 0-12.674-8.98-21.533-8.98-8.858-21.653-8.858-12.674 0-21.533 8.98-8.858 8.98-8.858 21.653 0 12.674 8.98 21.533 8.98 8.858 21.653 8.858Zm121.776-61.024q-12.621 0-21.567 8.945-8.945 8.945-8.945 21.567 0 11.025 6.795 19.141 6.794 8.115 17.435 10.012 11.436-3.23 21-9.999 9.564-6.77 15.436-15.821.359-6.692-1.769-12.564-2.129-5.872-6.077-10.82-4.205-4.692-9.872-7.577-5.666-2.884-12.436-2.884ZM483.923-220.001H162.565q-25.788 0-44.176-18.564t-18.388-44v-394.87q0-25.788 18.388-44.176t44.176-18.388h634.87q25.788 0 44.176 18.388t18.388 44.176v238.973q-23.59-17.282-50.654-27.923-27.064-10.641-55.448-14.295V-481.923q-.513-12.244-9.373-20.417-8.861-8.172-21.256-8.172-11.902 0-20.188 7.811-8.285 7.812-9.439 19.309l-.256.991-.256.99q-48.999 4.99-91.193 29.816-42.193 24.826-71.039 63.39H345.385q-12.622 0-21.567 8.912-8.946 8.912-8.946 21.718 0 12.934 8.946 21.664 8.945 8.731 21.567 8.731h151.923q-7.308 19.333-10.859 39.648-3.552 20.314-3.552 42.403 0 6.916.103 12.714t.923 12.414Z"/></svg>