<svg xmlns="http://www.w3.org/2000/svg" height="40" viewBox="0 -960 960 960" width="40"><path d="M703.306-315.692 278.871-739.999h313.436q23.359 0 40.962 10.603 17.602 10.603 30.679 29.09l129.923 183.819q11.82 16.769 11.82 36.487 0 19.718-11.82 36.487l-90.565 127.821Zm-500.741 95.691q-25.436 0-44-18.564t-18.564-44v-385.126q0-9.923 2.257-17.551 2.256-7.629 5.436-15.064l-58.616-58.616q-7.231-7.231-7.423-17.5-.193-10.269 7.422-17.884 7.616-7.615 17.692-7.615 10.077 0 17.692 7.615l662.152 661.742q7.231 7.23 7.423 17.499.192 10.269-7.423 17.884t-17.897 7.615q-10.281 0-17.897-7.615L620.306-227.694q-4.794 3.846-14.576 5.77-9.782 1.923-19.116 1.923H202.565Z"/></svg>