<svg xmlns="http://www.w3.org/2000/svg" height="40" viewBox="0 -960 960 960" width="40"><path d="M480-111.156q-76.296 0-130.07-53.775-53.775-53.774-53.775-130.07v-357.308q-29.923 0-51.115-21.24-21.192-21.24-21.192-51.067v-66.922q0-29.827 21.24-51.067t51.067-21.24h367.69q29.827 0 51.067 21.24t21.24 51.067v66.922q0 29.827-21.24 51.067t-51.067 21.24v362.693q-2.308 74.538-55.407 126.499-53.1 51.961-128.438 51.961ZM286.411-702.563h387.178q5.385 0 8.846-3.462 3.462-3.462 3.462-8.847v-86.409q0-5.386-3.462-8.847-3.461-3.462-8.846-3.462H286.411q-5.385 0-8.846 3.462-3.462 3.461-3.462 8.847v86.409q0 5.385 3.462 8.847 3.461 3.462 8.846 3.462ZM480-161.411q49.308 0 85.603-30.859 36.295-30.86 45.192-77.604h-95.667q-10.679 0-17.903-7.263-7.224-7.263-7.224-17.999 0-10.737 7.224-17.865 7.224-7.128 17.903-7.128h98.462v-69.745h-98.462q-10.679 0-17.903-7.263-7.224-7.263-7.224-17.999 0-10.737 7.224-17.865 7.224-7.128 17.903-7.128h98.462v-69.745h-98.462q-10.679 0-17.903-7.263-7.224-7.263-7.224-17.999 0-10.737 7.224-17.865 7.224-7.128 17.903-7.128h98.462v-92.18H346.41v357.308q0 55.876 38.857 94.733 38.857 38.857 94.733 38.857ZM274.103-702.563V-813.59v111.027Z"/></svg>