<svg xmlns="http://www.w3.org/2000/svg" height="40" viewBox="0 -960 960 960" width="40"><path d="M194.298-194.618q-10.577 0-17.436-7.347-6.858-7.346-6.858-17.999 0-10.653 7.598-17.781 7.598-7.128 18.362-7.128 10.577 0 17.436 7.347 6.859 7.346 6.859 17.999 0 10.653-7.599 17.781-7.598 7.128-18.362 7.128Zm142.562 0q-10.576 0-17.435-7.347-6.859-7.346-6.859-17.999 0-10.653 7.604-17.781 7.603-7.128 18.375-7.128 10.302 0 17.289 7.347 6.987 7.346 6.987 17.999 0 10.653-7.714 17.781-7.714 7.128-18.247 7.128Zm142.307 0q-10.577 0-17.436-7.347-6.858-7.346-6.858-17.999 0-10.653 7.262-17.781 7.263-7.128 18-7.128 10.736 0 17.864 7.263t7.128 18q0 10.736-7.598 17.864t-18.362 7.128Zm143.137 0q-10.613 0-17.741-7.263t-7.128-17.999q0-10.737 7.604-17.865 7.603-7.128 18.375-7.128 10.302 0 17.289 7.347 6.987 7.346 6.987 17.999 0 10.653-7.387 17.781-7.386 7.128-17.999 7.128Zm142.43 0q-10.737 0-17.865-7.263-7.128-7.263-7.128-17.999 0-10.737 7.263-17.865 7.263-7.128 18-7.128 10.736 0 17.864 7.263t7.128 18q0 10.736-7.263 17.864t-17.999 7.128ZM194.131-315.129q-10.076 0-17.102-7.347-7.025-7.346-7.025-17.999 0-10.653 7.224-17.781 7.224-7.128 17.903-7.128h121.743q10.076 0 17.102 7.346 7.025 7.347 7.025 18 0 10.653-7.224 17.781-7.224 7.128-17.903 7.128H194.131Zm224.228 0q-10.076 0-17.102-7.347-7.025-7.346-7.025-17.999 0-10.653 7.224-17.781 7.224-7.128 17.903-7.128h122.153q9.834 0 16.981 7.346 7.147 7.347 7.147 18 0 10.653-7.349 17.781-7.35 7.128-17.779 7.128H418.359Zm224.383 0q-10.077 0-17.102-7.347-7.026-7.346-7.026-17.999 0-10.653 7.224-17.781 7.224-7.128 17.904-7.128h122.127q10.076 0 17.102 7.346 7.025 7.347 7.025 18 0 10.653-7.224 17.781-7.224 7.128-17.903 7.128H642.742ZM194.131-435.641q-10.076 0-17.102-7.346-7.025-7.347-7.025-18 0-10.652 7.224-17.78 7.224-7.128 17.903-7.128h225.613q10.077 0 17.102 7.346 7.026 7.347 7.026 18 0 10.653-7.224 17.781-7.224 7.127-17.904 7.127H194.131Zm345.125 0q-10.077 0-17.102-7.346-7.026-7.347-7.026-18 0-10.652 7.224-17.78 7.224-7.128 17.904-7.128h225.613q10.076 0 17.102 7.346 7.025 7.347 7.025 18 0 10.653-7.224 17.781-7.224 7.127-17.903 7.127H539.256ZM201.285-556.152q-12.794 0-22.038-9.243-9.243-9.244-9.243-22.039V-734.1q0-12.795 9.243-22.039 9.244-9.243 22.038-9.243h557.43q12.794 0 22.038 9.243 9.243 9.244 9.243 22.039v146.666q0 12.795-9.243 22.039-9.244 9.243-22.038 9.243h-557.43Z"/></svg>