<svg xmlns="http://www.w3.org/2000/svg" height="40" viewBox="0 -960 960 960" width="40"><path d="m121.077-264.717 222.77-223.026q17.974-17.718 44.256-17.923 26.281-.205 44.256 17.923l106.717 106.974q3.847 3.847 9.232 3.654 5.385-.192 8.847-4.423l84.718-96.078-241.821-227.667q-3.846-3.462-8.847-3.269-5 .192-8.462 3.654l-223.82 223.821q-8.106 8.051-18.758 8.243-10.652.192-19.088-8.286-8.435-8.479-8.435-18.923 0-10.444 8.435-18.879l224.59-224.59q17.974-17.974 42.889-18.333 24.915-.359 43.598 17.41L676-516.204l144.129-163.642q6.82-7.769 17.076-8.307 10.256-.539 18.076 6.897 6.778 6.778 7.299 16.568.522 9.79-6.299 17.61L712.332-482.231l140.36 131.873q7.974 7.563 8.166 18.05.193 10.487-7.597 18.277-7.415 7.415-17.684 7.402-10.269-.013-18.038-6.833L678.41-443.437l-85.487 97.308q-17.974 20.718-44.846 21.282-26.871.564-46.179-18.744L397.155-447.667q-3.462-3.462-8.847-3.462t-8.847 3.462L158.923-226.872q-8.106 7.794-18.758 7.987-10.652.192-19.088-8.116-8.435-8.307-8.435-18.922t8.435-18.794Z"/></svg>