<svg xmlns="http://www.w3.org/2000/svg" height="40" viewBox="0 -960 960 960" width="40"><path d="M323.077-607.436q-10.679 0-17.903-7.263-7.224-7.263-7.224-17.999 0-10.737 7.224-17.865 7.224-7.128 17.903-7.128h471.794q10.679 0 17.903 7.263 7.225 7.263 7.225 18 0 10.736-7.225 17.864-7.224 7.128-17.903 7.128H323.077Zm0 152.563q-10.679 0-17.903-7.262-7.224-7.263-7.224-18 0-10.736 7.224-17.864t17.903-7.128h471.794q10.679 0 17.903 7.262 7.225 7.263 7.225 18 0 10.736-7.225 17.864-7.224 7.128-17.903 7.128H323.077Zm0 152.564q-10.679 0-17.903-7.263-7.224-7.263-7.224-18 0-10.736 7.224-17.864t17.903-7.128h471.794q10.679 0 17.903 7.263 7.225 7.263 7.225 17.999 0 10.737-7.225 17.865-7.224 7.128-17.903 7.128H323.077ZM167.432-605.128q-11.162 0-19.296-8.117-8.135-8.117-8.135-19.908 0-11.464 8.139-19.155 8.139-7.691 19.635-7.691 11.495 0 19.296 7.778 7.801 7.777 7.801 19.273 0 11.586-7.889 19.703-7.889 8.117-19.551 8.117Zm0 152.179q-11.162 0-19.296-8.027-8.135-8.027-8.135-19.357 0-11.821 8.139-19.654t19.635-7.833q11.495 0 19.296 7.917 7.801 7.916 7.801 20.031 0 10.875-7.889 18.899-7.889 8.024-19.551 8.024Zm0 152.948q-11.162 0-19.296-8.117-8.135-8.117-8.135-19.909 0-11.464 8.139-19.155 8.139-7.69 19.635-7.69 11.495 0 19.296 7.777t7.801 19.274q0 11.586-7.889 19.703-7.889 8.117-19.551 8.117Z"/></svg>