<svg xmlns="http://www.w3.org/2000/svg" height="40" viewBox="0 -960 960 960" width="40"><path d="m480-411.693 52.974 41.666q9.153 7.154 18.717.372 9.564-6.782 6.154-17.885l-20.974-66.665 57.358-46.179q8.359-7.154 4.949-17.616-3.41-10.461-14.513-10.461h-67.127l-22.769-67.743q-3.82-10.948-14.769-10.948t-14.513 10.948l-23.025 67.743h-67.461q-11.359 0-14.666 10.461-3.308 10.462 5.307 17.616l56.564 46.179-21.231 67.383q-3.153 11.359 6.013 18.141 9.167 6.782 18.526-.371L480-411.693ZM162.565-180.001q-25.872 0-44.218-18.346-18.346-18.346-18.346-44.218v-108.126q0-9.18 4.911-16.718 4.91-7.539 13.551-10.718 29.692-13.462 47.103-41.257 17.41-27.795 17.41-60.616 0-32.411-17.41-60.411-17.411-28-47.103-41.462-8.641-3.179-13.551-10.718-4.911-7.538-4.911-16.718v-108.126q0-25.872 18.346-44.218 18.346-18.346 44.218-18.346h634.87q25.872 0 44.218 18.346 18.346 18.346 18.346 44.218v108.126q0 9.18-4.911 16.718-4.91 7.539-13.294 10.718-29.949 13.462-47.36 41.462-17.41 28-17.41 60.411 0 32.821 17.41 60.616 17.411 27.795 47.36 41.257 8.384 3.179 13.294 10.718 4.911 7.538 4.911 16.718v108.126q0 25.872-18.346 44.218-18.346 18.346-44.218 18.346h-634.87Z"/></svg>