<svg xmlns="http://www.w3.org/2000/svg" height="40" viewBox="0 -960 960 960" width="40"><path d="M481.578-762.923q-21.988 0-37.757-15.688-15.769-15.687-15.769-37.323 0-15.879 7.23-28.729 7.231-12.849 34.257-44.31 4.852-5.359 11.9-5.359t11.997 5.359q26.769 31.461 34.128 44.31 7.359 12.85 7.359 28.729 0 21.636-15.679 37.323-15.679 15.688-37.666 15.688Zm-200.795 0q-21.785 0-37.591-15.688-15.807-15.687-15.807-37.323 0-15.835 7.231-28.706 7.231-12.872 34.256-44.333 4.853-5.359 11.773-5.359 6.919 0 11.868 5.359 27.025 31.461 34.256 44.31Q334-831.813 334-815.934q0 21.636-15.716 37.323-15.716 15.688-37.501 15.688Zm400.512 0q-21.784 0-37.591-15.688-15.806-15.687-15.806-37.323 0-15.835 7.23-28.706 7.231-12.872 34.256-44.333 4.853-5.359 11.773-5.359t11.868 5.359q27.026 31.461 34.256 44.31 7.231 12.85 7.231 28.729 0 21.636-15.716 37.323-15.716 15.688-37.501 15.688ZM205.127-141.899v49.335q0 13.568-9.565 23.065-9.565 9.497-23.23 9.497-13.665 0-22.998-9.497-9.333-9.497-9.333-23.065v-290.82q0-5.188.603-10.376t2.499-10.114l73.129-213.869q6.113-19.042 22.513-30.649 16.4-11.607 36.461-11.607h409.588q20.061 0 36.461 11.607t22.513 30.649l73.129 213.869q1.896 4.926 2.499 10.114.603 5.188.603 10.376v290.82q0 13.568-9.566 23.065-9.565 9.497-23.23 9.497-13.664 0-23.202-9.617-9.538-9.617-9.538-23.356v-48.924H205.127Zm4.975-302.304h539.796l-53.744-157.463q-1.539-3.847-4.744-5.962-3.205-2.116-7.18-2.116H275.77q-3.975 0-7.18 2.116-3.205 2.115-4.744 5.962l-53.744 157.463Zm81.479 201.023q20.957 0 35.2-14.501 14.244-14.5 14.244-35.05 0-21.106-14.501-35.649-14.5-14.542-34.968-14.542-21.022 0-35.648 14.587-14.626 14.587-14.626 35.628 0 21.04 14.671 35.284 14.67 14.243 35.628 14.243Zm377.454 0q20.947 0 35.52-14.501 14.573-14.5 14.573-35.05 0-21.106-14.618-35.649-14.617-14.542-35.499-14.542t-35.254 14.587q-14.372 14.587-14.372 35.628 0 21.04 14.629 35.284 14.629 14.243 35.021 14.243Z"/></svg>