<svg xmlns="http://www.w3.org/2000/svg" height="40" viewBox="0 -960 960 960" width="40"><path d="M355.128-617.024h249.744v-86.458q0-53.286-36.282-89.773-36.282-36.487-88.59-36.487-52.308 0-88.59 36.487-36.282 36.487-36.282 89.773v86.458Zm175.95 517.023H242.565q-25.436 0-44-18.564t-18.564-44v-391.896q0-25.435 18.564-43.999 18.564-18.564 44-18.564h62.308v-86.359q0-74.121 50.846-125.368Q406.565-879.997 480-879.997t124.281 51.246q50.846 51.247 50.846 125.368v86.359h62.308q25.436 0 44 18.564t18.564 43.999v66.616q-10.436-2.718-22.807-4.128-12.372-1.411-27.448-1.411v-61.077q0-5.385-3.462-8.846-3.462-3.462-8.847-3.462h-474.87q-5.385 0-8.847 3.462-3.462 3.461-3.462 8.846v391.896q0 5.385 3.462 8.847 3.462 3.462 8.847 3.462h260.052q5.025 14.326 11.487 25.957 6.461 11.631 16.974 24.298ZM728.41-70.669q-73.025 0-124.82-51.794-51.794-51.795-51.794-124.691 0-72.897 51.794-124.82 51.795-51.923 124.82-51.923 73.025 0 124.819 51.913 51.795 51.914 51.795 124.701 0 73.025-51.795 124.82-51.794 51.794-124.819 51.794Zm16.205-180.87v-98.006q0-7.686-5.176-13.045t-13-5.359q-7.824 0-13.055 5.359-5.23 5.359-5.23 13.049v97.387q0 6.199 2.538 12.044 2.538 5.844 7.487 10.494l68.231 65.256q4.634 4.821 11.765 4.68 7.132-.141 12.081-5.145 5.615-5.67 5.282-12.589-.334-6.92-5.786-11.822l-65.137-62.303ZM230.256-451.376v301.12V-566.769v115.393Z"/></svg>