<svg xmlns="http://www.w3.org/2000/svg" height="40" viewBox="0 -960 960 960" width="40"><path d="M355.128-617.024h249.744v-86.359q0-52.65-36.394-89.504-36.394-36.855-88.384-36.855-51.991 0-88.479 36.855-36.487 36.854-36.487 89.504v86.359ZM728.41-70.669q-73.846 0-125.23-51.384t-51.384-125.23q0-73.845 51.384-125.229 51.384-51.385 125.23-51.385 73.845 0 125.23 51.385 51.384 51.384 51.384 125.229 0 73.846-51.384 125.23-51.385 51.384-125.23 51.384ZM531.078-100H242.565q-25.609 0-44.086-18.478-18.478-18.477-18.478-44.086v-391.896q0-25.807 18.478-44.185 18.477-18.378 44.086-18.378h62.308v-86.359q0-73.518 51.139-125.066t124.076-51.548q72.937 0 123.988 51.548t51.051 125.066v86.359h62.308q25.609 0 44.086 18.378 18.478 18.378 18.478 44.185v66.616q-14.616-4.154-29.103-5.244-14.487-1.09-29.23-.679-100.974 2.154-170.55 73.961Q481.539-348 481.539-247.155q0 40.462 11.936 78.462t37.603 68.692Zm197.271-152.153q26.492 0 44.969-18.503 18.476-18.503 18.476-44.936t-18.487-44.677q-18.487-18.243-44.897-18.243t-44.693 18.418q-18.282 18.419-18.282 44.731t18.35 44.761q18.35 18.449 44.564 18.449Zm-.058 126.359q31.606 0 58.965-14.744t45.026-40.564q-24.488-14-50.381-21.577-25.893-7.577-53.436-7.577-27.542 0-53.619 7.577-26.077 7.577-50.308 21.577 17.362 25.849 44.754 40.578 27.393 14.73 58.999 14.73Z"/></svg>