<svg xmlns="http://www.w3.org/2000/svg" height="40" viewBox="0 -960 960 960" width="40"><path d="M495.949-621.232v307.591q0 10.865 7.133 17.996 7.132 7.131 17.999 7.131 10.867 0 17.995-7.131t7.128-17.996v-326.564q0-13.557-8.987-22.419t-22.294-8.862H439.59q-10.865 0-17.997 7.132-7.131 7.133-7.131 18t7.131 17.995q7.132 7.127 17.997 7.127h56.359ZM202.565-140.001q-25.788 0-44.176-18.388t-18.388-44.176v-554.87q0-25.788 18.388-44.176t44.176-18.388h554.87q25.788 0 44.176 18.388t18.388 44.176v554.87q0 25.788-18.388 44.176t-44.176 18.388h-554.87Z"/></svg>