<svg xmlns="http://www.w3.org/2000/svg" height="40" viewBox="0 -960 960 960" width="40"><path d="M261.54-414.873h139.999v-50.254H261.54v50.254Zm490.734-80q-43.838 0-74.466-30.661-30.628-30.661-30.628-74.499 0-43.838 30.651-74.466 30.652-30.628 74.476-30.628 15.321 0 28.981 4.654 13.661 4.654 25.892 12.705v-222.231h135.126v50.255h-84.871V-600q0 43.825-30.662 74.476-30.661 30.651-74.499 30.651Zm-490.734-40h259.999v-50.254H261.54v50.254Zm0-120h259.999v-50.254H261.54v50.254Zm-18.463 394.872L111.541-128.465v-668.97q0-25.609 18.477-44.086 18.478-18.478 44.086-18.478h434.87q25.609 0 44.086 18.478 18.478 18.477 18.478 44.086v34.102q-46.282 23.359-74.038 67.18-27.756 43.82-27.756 96.153 0 52.333 27.756 96.153 27.756 43.821 74.038 67.18v114.102q0 25.609-18.478 44.086-18.477 18.478-44.086 18.478H243.077Z"/></svg>