<svg xmlns="http://www.w3.org/2000/svg" height="40" viewBox="0 -960 960 960" width="40"><path d="M238.308-373.796H636.41q13.307 0 22.294-8.987 8.988-8.987 8.988-22.294v-236.615q0-13.307-8.988-22.295-8.987-8.987-22.294-8.987H238.308q-13.307 0-22.295 8.987-8.987 8.988-8.987 22.295v236.615q0 13.307 8.987 22.294 8.988 8.987 22.295 8.987Zm-75.743 193.795q-25.846 0-44.205-18.359-18.359-18.359-18.359-44.205v-474.87q0-25.846 18.359-44.205 18.359-18.359 44.205-18.359h634.87q25.846 0 44.205 18.359 18.359 18.359 18.359 44.205v474.87q0 25.846-18.359 44.205-18.359 18.359-44.205 18.359h-634.87Z"/></svg>