<svg xmlns="http://www.w3.org/2000/svg" height="40" viewBox="0 -960 960 960" width="40"><path d="M789.999-758.718v153.846q0 10.679-7.263 17.903-7.263 7.225-17.999 7.225-10.737 0-17.865-7.225-7.128-7.224-7.128-17.903v-98.489l-194.13 192.746q20.462 28.794 32.424 62.031 11.961 33.237 11.961 68.584 0 87.818-61.08 148.909-61.081 61.09-148.884 61.09-87.804 0-148.919-61.08-61.115-61.081-61.115-148.884 0-87.804 61.09-148.919Q292.182-589.999 380-589.999q35.333 0 68.051 11.987t61.564 32.398l194.13-194.13h-98.873q-10.679 0-17.903-7.263-7.225-7.263-7.225-18 0-10.736 7.225-17.864 7.224-7.128 17.903-7.128h153.846q13.294 0 22.288 8.993 8.993 8.994 8.993 22.288ZM380.073-539.744q-66.355 0-113.086 46.658-46.731 46.659-46.731 113.013 0 66.355 46.658 113.086 46.659 46.731 113.013 46.731 66.355 0 113.086-46.658 46.731-46.659 46.731-113.013 0-66.355-46.658-113.086-46.659-46.731-113.013-46.731Z"/></svg>