<svg xmlns="http://www.w3.org/2000/svg" height="40" viewBox="0 -960 960 960" width="40"><path d="M125.129-220.771q-10.679 0-17.903-7.263-7.225-7.263-7.225-17.999 0-10.737 7.225-17.865 7.224-7.128 17.903-7.128h340.898q10.679 0 17.904 7.263 7.224 7.263 7.224 18 0 10.736-7.224 17.864-7.225 7.128-17.904 7.128H125.129Zm0-200.64q-10.679 0-17.903-7.263-7.225-7.263-7.225-18 0-10.736 7.225-17.864 7.224-7.128 17.903-7.128h138.975q10.679 0 17.903 7.263 7.224 7.262 7.224 17.999 0 10.737-7.224 17.865-7.224 7.128-17.903 7.128H125.129Zm0-200.641q-10.679 0-17.903-7.263-7.225-7.263-7.225-18 0-10.736 7.225-17.864 7.224-7.128 17.903-7.128h138.975q10.679 0 17.903 7.263 7.224 7.263 7.224 17.999 0 10.737-7.224 17.865-7.224 7.128-17.903 7.128H125.129Zm433.332 282.435q-75.178 0-128.165-52.538-52.987-52.538-52.987-127.653 0-75.114 53.014-127.653 53.013-52.538 128.229-52.538 75.217 0 128.139 52.538Q739.614-594.922 739.614-520q0 29.333-9.436 57.038t-27.923 50.987l140.052 138.898q7.615 7.103 7.615 17.436t-7.615 17.948q-7.103 7.23-17.436 7.23t-17.948-7.23L666.871-376.591q-23.666 18.102-51.371 27.538-27.705 9.436-57.039 9.436Zm-.156-50.255q54.689 0 92.871-37.787 38.183-37.787 38.183-91.962 0-54.174-38.026-92.148-38.026-37.975-92.715-37.975t-92.871 37.788q-38.183 37.787-38.183 91.961 0 54.175 38.026 92.149 38.026 37.974 92.715 37.974Z"/></svg>