<svg xmlns="http://www.w3.org/2000/svg" height="40" viewBox="0 -960 960 960" width="40"><path d="M759.985-710.358q-43.856 0-74.484-30.643-30.628-30.643-30.628-74.5 0-43.856 30.643-74.484 30.643-30.628 74.499-30.628 43.856 0 74.484 30.643 30.628 30.643 30.628 74.499 0 43.857-30.643 74.485t-74.499 30.628ZM241.539-260.001l-88.333 88.332q-14.769 14.769-33.987 6.862-19.218-7.907-19.218-28.99v-603.638q0-25.788 18.388-44.176t44.176-18.388H580.36q-3.231 12.026-4.5 24.73-1.269 12.705-.423 25.525 1.589 28.642 9.871 53.783 8.282 25.141 23.41 46.372H250.001v50.255h417.048q19.667 14.103 43.321 21.539 23.655 7.437 49.63 7.437 26.897 0 52.371-7.91 25.474-7.91 47.628-23.577v339.28q0 25.788-18.388 44.176t-44.176 18.388H241.539Zm8.462-274.461h459.998v-50.255H250.001v50.255Zm0 124.872h296.614v-50.255H250.001v50.255Z"/></svg>