<svg xmlns="http://www.w3.org/2000/svg" height="40" viewBox="0 -960 960 960" width="40"><path d="M388.258-419.54v-120.51q0-13.045 8.993-22.163 8.994-9.119 22.289-9.119h120.51q13.045 0 22.163 9.119 9.119 9.118 9.119 22.163v120.51q0 13.295-9.119 22.289-9.118 8.993-22.163 8.993H419.54q-13.295 0-22.289-8.993-8.993-8.994-8.993-22.289Zm-18.257 245.18v-45.641h-87.436q-25.788 0-44.176-18.388t-18.388-44.176v-87.436H174.36q-10.679 0-17.903-7.263-7.224-7.263-7.224-17.999 0-10.737 7.224-17.865 7.224-7.128 17.903-7.128h45.641v-121.386H174.36q-10.679 0-17.903-7.263-7.224-7.263-7.224-17.999 0-10.737 7.224-17.865 7.224-7.128 17.903-7.128h45.641v-87.435q0-25.789 18.388-44.176 18.388-18.388 44.176-18.388h87.436v-43.744q0-10.679 7.263-17.903 7.263-7.224 17.999-7.224 10.737 0 17.865 7.224 7.128 7.224 7.128 17.903v43.744h121.386v-43.744q0-10.679 7.263-17.903 7.263-7.224 17.999-7.224 10.737 0 17.865 7.224 7.128 7.224 7.128 17.903v43.744h87.435q25.789 0 44.176 18.388 18.388 18.387 18.388 44.176v87.435h43.744q10.679 0 17.903 7.263 7.224 7.263 7.224 18 0 10.736-7.224 17.864t-17.903 7.128h-43.744v121.386h43.744q10.679 0 17.903 7.263 7.224 7.263 7.224 18 0 10.736-7.224 17.864t-17.903 7.128h-43.744v87.436q0 25.788-18.388 44.176-18.387 18.388-44.176 18.388h-87.435v45.641q0 10.679-7.263 17.903-7.263 7.224-18 7.224-10.736 0-17.864-7.224t-7.128-17.903v-45.641H420.256v45.641q0 10.679-7.263 17.903-7.263 7.224-18 7.224-10.736 0-17.864-7.224t-7.128-17.903Zm309.331-95.896q4.616 0 8.463-3.847 3.846-3.846 3.846-8.462v-396.767q0-4.616-3.846-8.463-3.847-3.846-8.463-3.846H282.565q-4.616 0-8.462 3.846-3.847 3.847-3.847 8.463v396.767q0 4.616 3.847 8.462 3.846 3.847 8.462 3.847h396.767Z"/></svg>