<svg xmlns="http://www.w3.org/2000/svg" height="40" viewBox="0 -960 960 960" width="40"><path d="m480-189.181-63.589 47.615q-9.359 7.154-18.32.372-8.962-6.782-5.552-17.885l24.487-78.871-62.999-45.512q-9.359-6.821-5.502-17.577 3.857-10.756 15.117-10.756h76.717l27.282-95.846-137.845-80.616q-20.092-11.468-31.098-30.554-11.005-19.087-11.005-41.702v-245.384q0-25.705 18.429-44.134 18.43-18.43 44.134-18.43h259.488q25.704 0 44.134 18.43 18.429 18.429 18.429 44.134v245.384q0 22.231-11.262 40.932-11.262 18.702-31.353 30.555l-137.744 81.385 27.693 95.846h76.306q11.111 0 14.915 10.756 3.803 10.756-5.556 17.577l-62.999 45.512 24.743 78.871q3.411 11.103-5.551 17.679-8.961 6.577-18.577-.576L480-189.181ZM337.948-805.897v245.384q0 9.154 5.115 16.937 5.116 7.782 14.321 13.167l99.386 56.462v-344.259H350.256q-5.385 0-8.846 3.462-3.462 3.462-3.462 8.847Zm271.796-12.309H507.025v344.259l95.591-56.462q9.205-5.385 14.321-13.167 5.115-7.783 5.115-16.937v-245.384q0-5.385-3.462-8.847-3.461-3.462-8.846-3.462ZM481.897-639.051Zm-25.127-7.025Zm50.255 0Z"/></svg>