<svg xmlns="http://www.w3.org/2000/svg" height="40" viewBox="0 -960 960 960" width="40"><path d="M856.152-439.386q0 49.846-28.538 77.308-28.538 27.462-67.923 27.462-17.667 0-38.309-7.539-20.641-7.539-34.231-20.437L336.36-711.588q-1.103-65.769 55.82-105.167 56.923-39.397 141.512-39.397 43.692 0 67.692 25.884 24 25.884 24 60.423 0 23.692-10.347 45.615-10.346 21.923-30.884 35.999Q560.256-673 545.256-645.91q-15 27.09-19.667 59.27 7.18 2.282 12.077 4.884 4.898 2.603 8.487 7.065l104.001-38.846q15.846-5.616 29.999-8.731 14.154-3.116 29.616-3.116 70.614 0 108.499 56.038 37.884 56.038 37.884 129.96ZM427.846-103.848q-43.691 0-68.46-26.269-24.77-26.269-24.77-61.422 0-23.692 10.347-45.308 10.346-21.615 30.884-35.307 22.384-14.385 37.192-39.115 14.808-24.731 21.782-61.68-6.128-3.103-11.026-5.706-4.897-2.602-9.538-5.987l-104.411 37.179q-15.846 5.616-30.499 9.231-14.654 3.616-30.116 3.616-61.846 0-103.614-49.423-41.769-49.423-41.769-136.575 0-51.385 28-78.077 28-26.693 67.153-26.693 20.565 0 43.168 6.885 22.603 6.885 36.296 21.065L55.821-819.95q-7.436-7.179-7.628-17.679-.192-10.499 7.628-18.063 7.564-7.82 17.871-7.82 10.308 0 17.871 7.82l752.513 752.257q7.436 7.435 7.436 17.691t-7.436 17.692q-7.435 7.436-17.807 7.436-10.371 0-17.807-7.436L624.255-252.259q.513 1.924.641 3.847.129 1.923.129 3.846-3.538 58.18-54.884 99.449-51.346 41.269-142.295 41.269Z"/></svg>