<svg xmlns="http://www.w3.org/2000/svg" height="40" viewBox="0 -960 960 960" width="40"><path d="M334.001-359.436q18.923 43.462 48.577 68.205 29.654 24.743 72.499 35.384v28.027q0 9.692 7.244 16.602 7.243 6.91 16.679 6.91 9.436 0 16.474-7.244 7.038-7.243 7.038-16.679v-25.616q51.821-4.974 88.603-33.961t36.782-83.423q0-46.461-27.205-77.282-27.205-30.82-97.718-58.307-62.257-23.436-84.436-41.103-22.18-17.667-22.18-48.949 0-30.615 23.219-49.795 23.218-19.18 62.423-19.18 30.41 0 51.462 13.987 21.051 13.988 34.743 38.526l41.538-18.359q-15.513-31.922-43.116-51.807-27.602-19.884-62.115-22.91v-25.359q0-9.436-7.038-16.474T481-755.281q-9.436 0-16.679 7.038-7.244 7.038-7.244 16.474v25.359q-51.564 7.949-79.73 38.449-28.167 30.5-28.167 71.089 0 46.154 28.462 73.615 28.461 27.462 90.82 51.513 65.667 25.949 89.218 46.628 23.551 20.68 23.551 53.885 0 37.206-28.513 56.142t-66.115 18.936q-36.68 0-65.77-20.923-29.09-20.923-43.398-58.769l-43.434 16.409Zm146.066 259.435q-78.426 0-147.666-29.92t-120.887-81.544q-51.647-51.624-81.58-120.833-29.933-69.21-29.933-147.635 0-78.836 29.92-148.204 29.92-69.369 81.544-120.682 51.624-51.314 120.833-81.247 69.21-29.933 147.635-29.933 78.836 0 148.204 29.92 69.369 29.92 120.682 81.21 51.314 51.291 81.247 120.629 29.933 69.337 29.933 148.173 0 78.426-29.92 147.666t-81.21 120.887q-51.291 51.647-120.629 81.58-69.337 29.933-148.173 29.933Z"/></svg>