<svg xmlns="http://www.w3.org/2000/svg" height="40" viewBox="0 -960 960 960" width="40"><path d="M417.898-431.488h124.871l26.667 72.154q1.948 6.436 7.06 9.628 5.112 3.193 11.251 3.193 10.456 0 16.521-8.286 6.065-8.285 2.09-18.381L505.153-640.666q-2.205-5.641-6.996-8.846t-10.604-3.205h-14.534q-6.198 0-10.878 3.192-4.679 3.192-6.628 9.243L354.642-372.18q-3.436 9.411 2.077 17.539 5.512 8.128 15.892 8.128 5.876 0 10.748-3.334 4.872-3.333 6.821-9.102l27.718-72.539Zm11.435-36.922 49.077-134.975h3.18l49.743 134.975h-102ZM480-100.001q-78.769 0-148.115-29.77-69.346-29.769-120.653-81.076-51.308-51.308-81.269-120.461-29.962-69.154-29.962-147.923 0-32.393 5.206-63.742 5.205-31.348 15.487-61.975 3.179-9.59 12.602-13.18 9.423-3.589 18.063 1.481 9.451 4.557 13.366 15.038 3.916 10.481 1.147 20.942-7.026 24.769-11.321 49.956-4.295 25.187-4.295 50.711 0 138.08 95.825 233.912 95.824 95.832 233.894 95.832t233.919-95.825q95.85-95.824 95.85-233.894t-95.832-233.919Q618.08-809.744 480-809.744q-26.459 0-52.19 3.898-25.732 3.897-50.887 11.949-10.461 3.179-20.512-.936-10.051-4.116-14.564-13.372t.244-18.486q4.756-9.231 14.217-12.667 28.872-9.82 58.949-15.23 30.076-5.411 60.538-5.411 79.153 0 149.04 29.77 69.887 29.769 122.079 81.268 52.193 51.5 82.639 120.846Q859.999-558.769 859.999-480t-29.962 148.115q-29.961 69.346-81.269 120.653-51.307 51.308-120.653 81.269Q558.769-100.001 480-100.001ZM224.984-693.18q-17.624 0-30.175-12.644-12.551-12.645-12.551-30.269t12.644-30.175q12.645-12.551 30.269-12.551t30.175 12.645q12.551 12.644 12.551 30.268 0 17.624-12.644 30.175-12.645 12.551-30.269 12.551Zm-4.471 213.083q0-108.159 75.712-183.775 75.712-75.615 183.872-75.615 108.159 0 183.775 75.712 75.615 75.712 75.615 183.872 0 108.159-75.712 183.775-75.712 75.615-183.872 75.615-108.159 0-183.775-75.712-75.615-75.712-75.615-183.872Z"/></svg>