<svg xmlns="http://www.w3.org/2000/svg" height="40" viewBox="0 -960 960 960" width="40"><path d="M321.796-100.001q-25.609 0-44.086-18.478-18.478-18.477-18.478-44.086v-316.409q0-25.608 18.478-44.086 18.477-18.477 44.086-18.477h316.408q25.609 0 44.086 18.477 18.478 18.478 18.478 44.086v316.409q0 25.609-18.478 44.086-18.477 18.478-44.086 18.478H321.796Zm351.415-545.896q-11.712 0-19.513-7.923-7.801-7.922-7.801-19.634t7.923-19.513q7.922-7.801 19.634-7.801t19.513 7.923q7.801 7.922 7.801 19.634t-7.923 19.513q-7.922 7.801-19.634 7.801Zm0-159.231q-11.712 0-19.513-7.923-7.801-7.922-7.801-19.634 0-11.711 7.923-19.512 7.922-7.802 19.634-7.802t19.513 7.923q7.801 7.923 7.801 19.634 0 11.712-7.923 19.513-7.922 7.801-19.634 7.801Zm-193.332 0q-11.712 0-19.513-7.923-7.801-7.922-7.801-19.634 0-11.711 7.922-19.512 7.923-7.802 19.634-7.802 11.712 0 19.513 7.923 7.801 7.923 7.801 19.634 0 11.712-7.922 19.513-7.923 7.801-19.634 7.801Zm-193.333 0q-11.712 0-19.513-7.923-7.801-7.922-7.801-19.634 0-11.711 7.923-19.512 7.922-7.802 19.634-7.802t19.513 7.923q7.801 7.923 7.801 19.634 0 11.712-7.923 19.513-7.922 7.801-19.634 7.801Zm0 159.231q-11.712 0-19.513-7.923-7.801-7.922-7.801-19.634t7.923-19.513q7.922-7.801 19.634-7.801t19.513 7.923q7.801 7.922 7.801 19.634t-7.923 19.513q-7.922 7.801-19.634 7.801Z"/></svg>