<svg xmlns="http://www.w3.org/2000/svg" height="40" viewBox="0 -960 960 960" width="40"><path d="M330.001-749.999v-47.436q0-25.609 18.477-44.086 18.478-18.478 44.086-18.478h174.872q25.608 0 44.086 18.478 18.477 18.477 18.477 44.086v47.436h127.436q25.609 0 44.086 18.477 18.478 18.478 18.478 44.086v72.309H140.001v-72.309q0-25.608 18.478-44.086 18.477-18.477 44.086-18.477h127.436ZM202.565-140.001q-25.609 0-44.086-18.478-18.478-18.477-18.478-44.086v-362.307h150v84.615q0 25.609 18.477 44.086 18.478 18.477 44.086 18.477h254.872q25.608 0 44.086-18.477 18.477-18.477 18.477-44.086v-84.615h150v362.307q0 25.609-18.478 44.086-18.477 18.478-44.086 18.478h-554.87ZM315.25-257.18q12.673 0 21.532-8.981 8.859-8.98 8.859-21.653 0-12.674-8.981-21.532-8.98-8.859-21.653-8.859-12.674 0-21.532 8.98-8.859 8.98-8.859 21.654 0 12.673 8.98 21.532t21.654 8.859Zm164.871 0q12.674 0 21.533-8.981 8.858-8.98 8.858-21.653 0-12.674-8.98-21.532-8.98-8.859-21.653-8.859-12.674 0-21.533 8.98-8.858 8.98-8.858 21.654 0 12.673 8.98 21.532t21.653 8.859Zm164.872 0q12.674 0 21.532-8.981 8.859-8.98 8.859-21.653 0-12.674-8.98-21.532-8.98-8.859-21.654-8.859-12.673 0-21.532 8.98t-8.859 21.654q0 12.673 8.981 21.532 8.98 8.859 21.653 8.859ZM352.564-467.949q-5.385 0-8.847-3.461-3.461-3.462-3.461-8.847v-84.615h279.488v84.615q0 5.385-3.461 8.847-3.462 3.461-8.847 3.461H352.564Zm27.692-282.05h199.488v-47.436q0-5.385-3.461-8.847-3.462-3.462-8.847-3.462H392.564q-5.385 0-8.847 3.462-3.461 3.462-3.461 8.847v47.436Z"/></svg>