<svg xmlns="http://www.w3.org/2000/svg" height="40" viewBox="0 -960 960 960" width="40"><path d="M480-100.001q-78.85 0-148.199-29.92-69.35-29.92-120.65-81.21-51.3-51.291-81.225-120.629-29.925-69.337-29.925-148.173t29.925-148.204q29.925-69.369 81.225-120.682 51.3-51.314 120.65-81.247Q401.15-859.999 480-859.999q78.011 0 146.736 29.616 68.724 29.615 120.147 80.499t81.538 119.73q30.116 68.846 31.193 146.691-26.128-19.486-56.794-28.973-30.667-9.487-63.23-9.487-19.199 0-37.571 3.384-18.372 3.385-35.917 9.744-6.189-41.697-29.979-68.272-23.79-26.574-62.705-26.574-45.735 0-69.961 35.218T479.231-480q0 41.051 14.615 71.757 14.616 30.705 42.411 43.576-3.308 12.75-5.167 26.252-1.859 13.502-1.859 27.671 0 55.82 26.09 104.038 26.09 48.217 74.859 75.371-35.616 15.821-73.499 23.577-37.883 7.757-76.681 7.757Zm66.821-294.64q-16.975-9.256-26.744-30.653-9.77-21.398-9.77-54.706 0-41.103 16.475-67.013 16.474-25.91 46.768-25.91 27.706 0 43.796 21.679t18.885 56.757q-30.026 16.641-52.757 42.256-22.73 25.616-36.653 57.59Zm193.179 244q-66.513 0-113.513-47-47.001-47-47.001-113.514 0-66.513 47.001-113.513 47-47 113.513-47t113.513 47q47.001 47 47.001 113.513 0 66.514-47.001 113.514-47 47-113.513 47ZM424.615-362.026q6.114 0 10.647-4.564t4.533-10.564q0-6.37-4.533-10.774-4.533-4.405-10.647-4.405h-96.231l-.615-1.641q18.359-17.282 37.205-33.551 18.846-16.27 29.821-26.834 22.487-20.59 32.359-39.962 9.871-19.371 9.871-41.059 0-25.799-20.256-47.03t-54.657-21.231q-26.855 0-48.163 13.974-21.308 13.975-30.59 37.744-.795 1.59-.949 6.154 0 6.358 4.309 10.846 4.309 4.487 10.563 4.487 5.026 0 9-2.59t5.718-7.743q6.282-15.18 19.141-23.667 12.859-8.487 29.885-8.487 21.333 0 33.051 11.525 11.718 11.526 11.718 27.013 0 15.513-7.5 28.706-7.5 13.192-29.654 34.013-12.231 11.359-27.397 25.038-15.167 13.679-33.68 29.936l-17.384 16.564q-1.206.949-5.206 10.974v11.616q0 6.153 4.68 10.833 4.679 4.679 11.09 4.679h123.871Z"/></svg>