<svg xmlns="http://www.w3.org/2000/svg" height="40" viewBox="0 -960 960 960" width="40"><path d="M612.819-572.409 509.358-675.922q-31.564-31.307-71.75-49.166-40.186-17.859-84.429-17.859-62.743 0-113.948 32.013-51.205 32.012-78.974 83.038 27.359-51.026 78.769-83.038 51.41-32.013 114.153-32.013 44.243 0 84.429 17.859t71.75 49.166l103.461 103.513ZM30.002-257.821v-690.255H95.21q27.177 0 46.112 18.992 18.936 18.991 18.936 46.135v96.951q26.666-52.616 77.153-84.782 50.487-32.167 112.974-32.167h199.871q25.705 0 44.135 18.429 18.429 18.429 18.429 44.134v267.975l33.615 33.82q17.974 17.685 17.974 43.778t-17.974 44.067L423.23-227.489q-17.93 17.718-44.023 17.718-26.093 0-43.822-17.718L198.052-364.027q-11.256-11.256-20.82-23.705-9.565-12.449-16.975-26.5v91.283q0 26.917-18.992 46.022-18.991 19.106-46.135 19.106H30.002Zm320.382-594.871q-68.282 0-115.833 48.641t-48.679 117.513q0 5.001.705 9.616.705 4.616 1.987 9.232 30.102-34.283 72.769-54.77 42.667-20.487 91.846-20.487 44.243 0 84.429 17.859t71.75 49.166l53.206 53.258v-217.72q0-5.385-3.462-8.846-3.462-3.462-8.847-3.462H350.384Zm-167.307 332.58q0 34.259 13.233 65.006t37.741 55.337l136.281 136.486q3.847 3.462 9.04 3.462 5.192 0 8.654-3.462L610.64-485.948q3.846-3.59 3.846-8.911t-3.846-8.783L472.512-641.718q-24.23-24.487-55.038-37.731-30.808-13.243-64.295-13.243-71.795 0-120.948 51.098-49.154 51.099-49.154 121.482Zm600.768 187.163h-102.82v-50.255h102.82v50.255ZM685.23-155.54l-72.153-72.153 34.999-34.999 72.153 72.153-34.999 34.999ZM492.565-91.924v-102.82h50.255v102.82h-50.255Zm-93.77-384.05Z"/></svg>