<svg xmlns="http://www.w3.org/2000/svg" height="40" viewBox="0 -960 960 960" width="40"><path d="m586.717-511.487-178.23-178.23q14.077-10.564 32.282-16.372t40-5.808q53.974 0 90.859 37.077 36.884 37.077 36.884 91.435 0 20.385-5.872 39.68-5.872 19.295-15.923 32.218ZM234.975-258.153q58.103-40.923 116.359-63Q409.59-343.23 480-343.23q41.693 0 75.297 8.398 33.603 8.398 57.373 18.577L473.898-455.026q-51.026-2.949-84.321-35.641-33.294-32.692-37.089-83.462L229.847-696.77q-36.616 43.154-58.103 97.013Q150.256-545.898 150.256-480q0 63.923 21.283 118.436 21.282 54.513 63.436 103.411Zm496.922-7.693q34.257-41.41 56.052-95.038T809.744-480q0-138.692-95.526-234.218Q618.692-809.744 480-809.744q-65.718 0-119.244 21.026-53.526 21.026-95.321 56.154l466.462 466.718ZM480-100.001q-78.538 0-147.884-29.77-69.346-29.769-120.961-81.384-51.615-51.615-81.384-120.961-29.77-69.346-29.77-147.884 0-79.154 29.77-148.192 29.769-69.038 81.384-120.653 51.615-51.615 120.961-81.384 69.346-29.77 147.884-29.77 79.154 0 148.192 29.77 69.038 29.769 120.653 81.384 51.615 51.615 81.384 120.653 29.77 69.038 29.77 148.192 0 78.538-29.77 147.884-29.769 69.346-81.384 120.961-51.615 51.615-120.653 81.384-69.038 29.77-148.192 29.77Zm0-50.255q57.513 0 109.282-18.424 51.77-18.423 97.488-53.679-44.949-33.539-99.154-52.078Q533.41-292.975 480-292.975t-106.654 17.962q-53.244 17.961-99.859 52.654 45.461 35.256 97.436 53.679Q422.897-150.256 480-150.256Zm0-71.36Z"/></svg>