<svg xmlns="http://www.w3.org/2000/svg" height="40" viewBox="0 -960 960 960" width="40"><path d="M800.385-68.052 542.847-324.974H106.848q-14.744 0-24.41-11.448-9.667-11.449-6.487-25.962 9.718-42.435 35.23-73.537 25.513-31.102 62.461-51.114 36.949-20.013 83.038-29.59 46.09-9.577 96.372-9.577 17.385 0 33.783 1.244 16.397 1.243 31.269 3.5v71.793L48.128-819.95q-7.436-7.223-7.628-17.701-.192-10.477 7.663-18.041 7.599-7.82 17.871-7.82 10.273 0 17.837 7.82l752.513 752.257q7.435 7.435 7.628 17.627.192 10.192-7.664 17.756-7.855 7.82-17.999 7.82-10.144 0-17.964-7.82ZM95.873-192.616q-11.562 0-19.294-7.607-7.73-7.607-7.73-19.431 0-11.568 7.73-19.29 7.732-7.722 19.294-7.722h514.358q11.819 0 19.422 7.735 7.603 7.736 7.603 19.304 0 11.824-7.603 19.418-7.603 7.593-19.422 7.593H95.873Zm0 132.615q-11.562 0-19.294-7.736-7.73-7.735-7.73-19.303 0-11.825 7.73-19.418 7.732-7.593 19.294-7.593h514.358q11.819 0 19.422 7.607 7.603 7.606 7.603 19.431 0 11.568-7.603 19.29-7.603 7.721-19.422 7.721H95.873Zm741.484-141.897-368.69-369.125-14.615-116.719q-2-14.154 7.398-24.487 9.397-10.333 23.935-10.333h158.743v-144.616q0-10.686 7.259-17.907 7.258-7.221 17.999-7.221t17.869 7.221q7.128 7.221 7.128 17.907v144.616h162.282q14.038 0 23.66 10.224t7.622 24.263l-50.59 486.177Z"/></svg>