<svg xmlns="http://www.w3.org/2000/svg" height="40" viewBox="0 -960 960 960" width="40"><path d="m739.999-331.182-50.255-50.255v-267.537q0-5.385-3.462-8.847-3.462-3.462-8.847-3.462H409.897l-53.332-53.332h16.77v-111.538q0-13.91 9.871-23.878 9.872-9.968 23.974-9.968h148.974q13.91 0 23.878 9.968 9.967 9.968 9.967 23.878v114.615h87.436q25.609 0 44.086 18.483 18.478 18.483 18.478 44.1v317.773ZM628.205-442.976l-37.948-37.947v-101.642q0-8.025 5.469-13.499 5.469-5.475 13.487-5.475t13.505 5.475q5.487 5.474 5.487 13.499v139.589ZM411.282-711.538h140.77v-110.513h-140.77v110.513Zm-93.36 611.537q-15.05 0-25.203-10.173-10.154-10.173-10.154-25.212v-4.615q-25.609 0-44.086-18.478-18.478-18.477-18.478-44.086v-442.307q0-20.307 10.359-36.371 10.359-16.064 25.769-22.833l44.716 44.716h-30.589v456.795q0 5.385 3.462 8.847 3.462 3.462 8.847 3.462h394.87q5.385 0 8.847-3.462 3.462-3.462 3.462-8.847v-67.896l50.255 50.254v17.642q0 25.609-18.478 44.086-18.477 18.478-44.086 18.478v4.615q0 15.039-10.181 25.212-10.18 10.173-25.23 10.173t-25.204-10.173q-10.153-10.173-10.153-25.212v-4.615H353.334v4.615q0 15.039-10.181 25.212t-25.231 10.173Zm32.865-155.385q-8.018 0-13.505-5.474t-5.487-13.5v-314.563h37.948v314.563q0 8.026-5.469 13.5t-13.487 5.474Zm129.231 0q-8.018 0-13.505-5.474t-5.487-13.5v-224.819l37.948 38.153v186.666q0 8.026-5.469 13.5t-13.487 5.474Zm129.231 0q-8.018 0-13.505-5.474t-5.487-13.5v-95.383l37.948 37.948v57.435q0 8.026-5.47 13.5-5.469 5.474-13.486 5.474Zm-59.198-266.205Zm-73.538 109.692ZM820.771-68.052 68.514-819.95q-7.436-7.223-7.628-17.701-.192-10.477 7.663-18.041 7.6-7.82 17.871-7.82 10.273 0 17.837 7.82L856.77-103.435q7.435 7.552 7.628 17.686.192 10.133-7.663 17.825-7.856 7.692-17.983 7.692t-17.981-7.82Z"/></svg>