<svg xmlns="http://www.w3.org/2000/svg" height="40" viewBox="0 -960 960 960" width="40"><path d="M139.617-320q0-43.824 30.651-74.476 30.652-30.651 74.476-30.651h80q66.475 0 100.674-36.969 34.199-36.968 34.199-88.16 0-28.283-17.257-46.45-17.256-18.167-42.488-18.167-24.935 0-42.595-17.66t-17.66-42.595v-169.744q0-10.685 7.365-17.906 7.365-7.221 18.264-7.221 10.735 0 17.873 7.221 7.137 7.221 7.137 17.906v169.744q0 4.231 2.283 7.116 2.282 2.885 7.333 2.885 45.834 0 77.917 32.698 32.083 32.699 32.083 82.173 0 72.08-48.883 123.732-48.882 51.651-136.245 51.651h-80q-23.167 0-39.019 15.853-15.853 15.853-15.853 39.02v204.872q0 10.685-7.259 17.906Q175.355-90 164.614-90t-17.869-7.22q-7.128-7.222-7.128-17.907V-320Zm250.639-355.128v-194.871 194.871q0 4.231 2.283 7.116 2.282 2.885 7.333 2.885 45.834 0 77.917 32.698 32.083 32.699 32.083 82.173 0 72.08-48.883 123.732-48.882 51.651-136.245 51.651h-80q-23.167 0-39.019 15.853-15.853 15.853-15.853 39.02v230-230q0-23.167 15.853-39.02 15.852-15.853 39.019-15.853h80q87.363 0 136.245-51.651 48.883-51.652 48.883-123.732 0-49.474-32.083-82.173-32.083-32.698-77.917-32.698-5.051 0-7.333-2.885-2.283-2.885-2.283-7.116ZM819.999-458q-11.667-9.462-23.902-17.536-12.235-8.075-26.353-14.233V-520q0-88.641-61.705-151.757-61.706-63.116-149.193-63.116-28.306 0-48.704-20.544-20.398-20.545-20.398-48.558v-40.897q0-10.685 7.258-17.906 7.259-7.221 18-7.221t17.869 7.221q7.128 7.221 7.128 17.906v40.897l18.847 18.848q107.897 0 184.525 78.038T819.999-520v62Zm-480 298v44.872q0 10.685-7.259 17.906Q325.482-90 314.741-90t-17.869-7.22q-7.128-7.222-7.128-17.907V-160q0-43.824 30.651-74.476 30.652-30.651 74.476-30.651h57.565q.769 13.435 2.949 25.878 2.179 12.443 6.154 24.376h-66.668q-23.167 0-39.02 15.853-15.852 15.853-15.852 39.02Zm334.872-38.744q36.516 0 61.848-25.332t25.332-61.848q0-36.516-25.332-61.848-25.332-25.331-61.848-25.331t-61.848 25.331q-25.332 25.332-25.332 61.848t25.332 61.848q25.332 25.332 61.848 25.332Zm0 50.255q-57.333 0-97.384-40.051-40.05-40.051-40.05-97.384 0-57.589 40.05-97.512 40.051-39.922 97.384-39.922t97.384 39.922q40.051 39.923 40.051 97.512 0 22.771-7.116 43.168-7.115 20.396-19.705 37.242l80.513 80.129q7.231 7.196 7.231 17.674 0 10.479-7.203 17.71-7.203 7.23-17.692 7.23t-17.719-7.23l-80.514-80.77q-16.051 10.615-34.791 16.448-18.74 5.834-40.439 5.834Z"/></svg>