<svg xmlns="http://www.w3.org/2000/svg" height="40" viewBox="0 -960 960 960" width="40"><path d="M180.001-202.565v-320.539l-60.513 46.898q-8.616 6.616-18.5 5-9.884-1.615-16.5-10.128-6.614-8.512-5.147-18.523 1.467-10.011 10.02-16.604l352.614-269.461q8.615-6.153 18.271-9.564 9.656-3.41 19.744-3.41t19.562 3.41q9.473 3.411 18.089 9.564l353.614 270.128q8.396 6.361 9.634 16.36 1.237 9.998-5.378 18.886-6.615 7.932-16.281 9.342-9.667 1.41-18.102-5.205l-61.129-46.693v320.539q0 25.705-18.43 44.134-18.429 18.43-44.134 18.43h-474.87q-25.705 0-44.134-18.43-18.43-18.429-18.43-44.134Zm62.564 12.309h474.87q5.385 0 8.847-3.462 3.462-3.462 3.462-8.847v-358.717L487.308-745.948q-3.077-2.693-7.308-2.693t-7.308 2.693L230.256-561.282v358.717q0 5.385 3.462 8.847 3.462 3.462 8.847 3.462ZM320-364.616q14.692 0 25.038-10.346T355.384-400q0-14.692-10.346-25.038T320-435.384q-14.692 0-25.038 10.346T284.616-400q0 14.692 10.346 25.038T320-364.616Zm160 0q14.692 0 25.038-10.346T515.384-400q0-14.692-10.346-25.038T480-435.384q-14.692 0-25.038 10.346T444.616-400q0 14.692 10.346 25.038T480-364.616Zm160 0q14.692 0 25.038-10.346T675.384-400q0-14.692-10.346-25.038T640-435.384q-14.692 0-25.038 10.346T604.616-400q0 14.692 10.346 25.038T640-364.616Zm-397.435 174.36h-12.309H729.744 242.565Z"/></svg>