<svg xmlns="http://www.w3.org/2000/svg" height="40" viewBox="0 -960 960 960" width="40"><path d="M91.418-140.001q-13.692 0-22.554-8.911Q60-157.822 60-171.283v-617.434q0-13.461 8.91-22.371 8.91-8.911 22.372-8.911h458.972q13.462 0 22.372 8.911 8.91 8.91 8.91 22.371v617.434q0 13.461-8.91 22.371-8.91 8.911-22.372 8.911H391.692v-175.897H250.513v175.897H91.418Zm121.147-311.025h59.486v-59.486h-59.486v59.486Zm0-156.923h59.486v-59.486h-59.486v59.486Zm156.923 156.923h59.486v-59.486h-59.486v59.486Zm0-156.923h59.486v-59.486h-59.486v59.486Zm275.128 127.931q0-10.853 7.141-17.981 7.14-7.128 17.986-7.128h134.515l-40.514-41.181q-6.821-7.231-7.218-17.589-.397-10.359 7.061-17.75 7.336-7.275 17.669-7.275t17.435 7.23l79.769 79.769q9.359 9.406 9.359 21.946 0 12.541-9.359 21.9l-79.769 79.769q-7.134 7.102-17.348 7.269-10.215.166-17.651-7.269-7.615-7.231-7.192-17.589.423-10.359 7.244-17.795l40.514-41.181H669.743q-10.846 0-17.986-7.146-7.141-7.145-7.141-17.999Z"/></svg>