<svg xmlns="http://www.w3.org/2000/svg" height="40" viewBox="0 -960 960 960" width="40"><path d="M315.949-615.846q12.384 0 21.448-9.064t9.064-21.449q0-12.384-9.064-21.448t-21.448-9.064q-12.385 0-21.449 9.064-9.064 9.064-9.064 21.448 0 12.385 9.064 21.449 9.064 9.064 21.449 9.064Zm164.051 0q12.384 0 21.448-9.064t9.064-21.449q0-12.384-9.064-21.448T480-676.871q-12.384 0-21.448 9.064t-9.064 21.448q0 12.385 9.064 21.449 9.064 9.064 21.448 9.064Zm164.051 0q12.385 0 21.449-9.064 9.064-9.064 9.064-21.449 0-12.384-9.064-21.448t-21.449-9.064q-12.384 0-21.448 9.064t-9.064 21.448q0 12.385 9.064 21.449 9.064 9.064 21.448 9.064ZM202.565-140.001q-25.788 0-44.176-18.388t-18.388-44.176v-554.87q0-25.788 18.388-44.176t44.176-18.388h554.87q25.788 0 44.176 18.388t18.388 44.176v554.87q0 25.788-18.388 44.176t-44.176 18.388h-554.87Z"/></svg>