<svg xmlns="http://www.w3.org/2000/svg" height="40" viewBox="0 -960 960 960" width="40"><path d="M480-289.539q-29.077 0-49.769-20.692-20.692-20.692-20.692-49.769 0-29.077 20.692-49.769 20.692-20.692 49.769-20.692 29.077 0 49.769 20.692 20.692 20.692 20.692 49.769 0 29.077-20.692 49.769-20.692 20.692-49.769 20.692ZM374.873-10.001v-139.41q-76.18-24.076-113.295-81.961-37.116-57.884-44.911-130.859-1.358-9.64 6.052-16.268t17.666-6.628q10.256 0 17.691 6.935 7.436 6.936 8.641 17.372 8.769 90.154 62.924 132.923 54.154 42.77 150.359 42.77 95.59 0 149.436-42.565 53.847-42.564 63.437-131.282 1.615-11.256 8.743-18.705 7.128-7.448 17.999-7.448 10.462 0 17.795 7.217 7.333 7.218 5.717 17.474-7.41 72.616-44.653 129.782-37.244 57.167-113.347 81.243v139.41H374.873ZM204.052-461.949l-82.847-182.514q-12.59 5.36-24.654 11.129-12.064 5.769-21.423 5.769-10.076 0-17.602-6.923-7.525-6.923-7.525-18.205v-142.179q0-63.307 125.333-109.217T480-949.999q179.333 0 304.666 45.91t125.333 109.217v142.179q0 11.282-7.525 18.205-7.526 6.923-17.602 6.923-9.359 0-21.423-5.769-12.064-5.769-24.654-11.129l-82.437 181.309q-3.435 7.846-10.115 11.91-6.679 4.064-14.474 4.064h-16.615q-9.795 0-17.218-5.512-7.423-5.513-9.371-15.308l-56.693-236.308q-38.743-5.385-76.615-7.975-37.872-2.59-75.257-2.59-37.385 0-75.257 2.59-37.872 2.59-76.615 7.975l-56.693 237.924q-1.949 8.794-9.064 13.999t-15.91 5.205h-19.435q-7.59 0-13.564-3.987t-9.41-10.782Zm32.435-29.281 45.206-205.822q-35.872 7.59-62.616 15.32-26.744 7.731-58.103 20.526l75.513 169.976Zm487.026-.205 75.513-169.771q-31.744-12.41-58.295-20.333-26.551-7.923-62.424-15.513l45.206 205.617ZM100.256-691.178Q180-725.717 278.59-745.422T480-765.127q102.82 0 201.41 19.705t178.334 54.244v-105.079q-5.795-14-33.602-31.91-27.808-17.911-76.077-33.898-48.27-15.987-116.193-26.833Q565.949-899.744 480-899.744q-85.949 0-153.872 10.846-67.923 10.846-116.193 26.833-48.269 15.987-76.077 33.898-27.807 17.91-33.602 31.91v105.079ZM480-899.744Z"/></svg>