<svg xmlns="http://www.w3.org/2000/svg" height="40" viewBox="0 -960 960 960" width="40"><path d="M480-492.719q-57.922 0-96.525-38.602-38.602-38.602-38.602-96.525 0-58.178 38.602-96.652 38.603-38.474 96.525-38.474 57.922 0 96.525 38.474 38.602 38.474 38.602 96.652 0 57.923-38.602 96.525-38.603 38.602-96.525 38.602Zm-299.999 254v-29.23q0-31.282 16.705-55.576 16.705-24.295 43.808-37.346 61.871-28.41 121.064-42.744Q420.77-417.948 480-417.948t118.217 14.539q58.987 14.538 120.859 42.538 27.513 13.051 44.218 37.346 16.705 24.294 16.705 55.576v29.23q0 21.256-14.885 36.14-14.884 14.885-36.14 14.885H231.026q-21.256 0-36.14-14.885-14.885-14.884-14.885-36.14Z"/></svg>