<svg xmlns="http://www.w3.org/2000/svg" height="40" viewBox="0 -960 960 960" width="40"><path d="m785.283-103.591-84.975-84.103H231.026q-21.256 0-36.14-14.885-14.885-14.884-14.885-36.14v-29.23q0-31.282 16.705-55.576 16.705-24.295 43.808-37.346 56.282-26.052 110.193-40.077 53.91-14.026 108.269-16.026h6.219q3.141 0 6.475.385L102.976-785.283q-7.436-7.435-7.32-17.807.115-10.371 7.935-18.192 7.564-7.564 17.871-7.564 10.308 0 18.128 7.564l681.692 682.307q7.179 7.436 7.371 17.628.193 10.192-7.371 17.756-7.821 7.82-18.128 7.82t-17.871-7.82ZM727.538-356.64q18.666 8.615 30.076 25.537 11.409 16.922 11.615 39.537v3.795l-86.92-86.663q11.077 3.641 22.384 8.282 11.307 4.64 22.845 9.512Zm-178.59-154.104-186.049-186.05q18.025-31.666 49.217-48.922 31.192-17.256 67.884-17.256 56.435 0 95.781 39.345 39.346 39.346 39.346 95.781 0 36.692-17.257 67.884-17.256 31.192-48.922 49.218Z"/></svg>