<svg xmlns="http://www.w3.org/2000/svg" height="40" viewBox="0 -960 960 960" width="40"><path d="M117.025-522.82h89.386q8.025 0 13.499 5.47 5.475 5.469 5.475 13.486 0 8.018-5.475 13.505-5.474 5.487-13.499 5.487H83.591q-13.468 0-22.375-8.907t-8.907-22.375v-122.82q0-8.025 5.469-13.5 5.469-5.474 13.487-5.474 8.017 0 13.504 5.474 5.487 5.475 5.487 13.5v89.386L207.59-666.922q5.73-5.333 13.455-5.333 7.724 0 13.314 5.333 5.333 5.589 5.333 13.314t-5.333 13.454L117.025-522.82ZM437.18-842.975 319.846-725.897q-5.729 5.589-13.454 5.589-7.725 0-13.058-5.589-5.589-5.334-5.589-13.058 0-7.725 5.589-13.455l117.078-117.334h-89.386q-8.025 0-13.5-5.469-5.474-5.469-5.474-13.487 0-8.017 5.474-13.504 5.475-5.487 13.5-5.487h122.82q13.468 0 22.375 8.907 8.907 8.906 8.907 22.374v122.821q0 8.025-5.469 13.499-5.469 5.475-13.487 5.475t-13.505-5.475q-5.487-5.474-5.487-13.499v-89.386ZM576.127-64.617q-21 0-39.936-7.82-18.935-7.821-34.371-23L317.512-279.567q-7.795-7.794-7.795-18.845 0-11.052 7.103-19.667 9.974-12.153 24.576-16.653 14.602-4.5 29.91-.449l103.309 26.616v-336.052q0-10.852 7.141-17.99 7.142-7.137 18-7.137t17.986 7.137q7.128 7.138 7.128 17.99v290.257h69.668V-504.36q0-10.852 7.141-17.99 7.142-7.138 18-7.138t17.986 7.138q7.128 7.138 7.128 17.99v150.001h69.642V-464.36q0-10.852 7.142-17.99 7.141-7.138 17.999-7.138 10.858 0 17.986 7.138t7.128 17.99v110.001h69.668v-30.001q0-10.852 7.141-17.99 7.142-7.138 18-7.138t17.986 7.138q7.128 7.138 7.128 17.99v169.744q0 62.153-43.923 106.076-43.923 43.923-106.001 43.923H576.127Z"/></svg>