<svg xmlns="http://www.w3.org/2000/svg" height="40" viewBox="0 -960 960 960" width="40"><path d="M117.025-522.82h89.386q8.025 0 13.499 5.47 5.475 5.469 5.475 13.486 0 8.018-5.475 13.505-5.474 5.487-13.499 5.487H83.591q-13.295 0-22.289-8.993-8.993-8.994-8.993-22.289v-122.82q0-8.025 5.469-13.5 5.469-5.474 13.487-5.474 8.017 0 13.504 5.474 5.487 5.475 5.487 13.5v89.386L207.59-666.922q5.777-5.333 13.478-5.333t13.291 5.333q5.333 5.636 5.333 13.337 0 7.702-5.333 13.431L117.025-522.82ZM437.18-842.975 319.846-725.897q-5.776 5.589-13.477 5.589-7.702 0-13.035-5.589-5.589-5.334-5.589-13.035 0-7.701 5.589-13.478l117.078-117.334h-89.386q-8.025 0-13.5-5.469-5.474-5.469-5.474-13.487 0-8.017 5.474-13.504 5.475-5.487 13.5-5.487h122.82q13.295 0 22.289 8.993 8.993 8.994 8.993 22.288v122.821q0 8.025-5.469 13.499-5.469 5.475-13.487 5.475t-13.505-5.475q-5.487-5.474-5.487-13.499v-89.386ZM576.127-64.617q-20.921 0-40.025-7.82-19.103-7.821-34.282-23L317.512-279.567q-8.179-7.794-8.498-19.231-.319-11.437 7.806-19.281 11.461-11.333 25.525-16.243 14.064-4.91 28.961-.859l103.309 26.616v-336.052q0-10.679 7.263-17.903 7.263-7.224 17.999-7.224 10.737 0 17.865 7.224 7.128 7.224 7.128 17.903v362.332q0 15.676-12.436 25.082-12.436 9.405-27.205 5.2l-94.72-25.565 147.495 147.111q7.43 7.43 17.517 11.507 10.086 4.077 20.606 4.077h158.487q41.82 0 70.782-28.962 28.962-28.962 28.962-70.782V-384.36q0-10.679 7.263-17.903 7.263-7.225 17.999-7.225 10.737 0 17.865 7.225 7.128 7.224 7.128 17.903v169.744q0 62.153-43.923 106.076-43.923 43.923-106.001 43.923H576.127Zm102.82-170.127ZM619.8-529.488q10.737 0 17.865 7.225 7.128 7.224 7.128 17.903v139.744q0 10.679-7.263 17.904-7.263 7.224-18 7.224-10.736 0-17.864-7.224-7.128-7.225-7.128-17.904V-504.36q0-10.679 7.263-17.903 7.263-7.225 17.999-7.225Zm119.897 40q10.737 0 17.865 7.225 7.128 7.224 7.128 17.903v99.744q0 10.679-7.263 17.904-7.263 7.224-17.999 7.224-10.737 0-17.865-7.224-7.128-7.225-7.128-17.904v-99.744q0-10.679 7.263-17.903 7.263-7.225 17.999-7.225Z"/></svg>