<svg xmlns="http://www.w3.org/2000/svg" height="40" viewBox="0 -960 960 960" width="40"><path d="M202.565-140.001q-25.788 0-44.176-18.388t-18.388-44.176v-554.87q0-25.788 18.388-44.176t44.176-18.388h554.87q25.788 0 44.176 18.388t18.388 44.176v554.87q0 25.788-18.388 44.176t-44.176 18.388h-554.87Zm118.941-406.203q-10.736 0-17.864 7.224t-7.128 17.903v207.436q0 10.679 7.263 17.903 7.263 7.224 17.999 7.224 10.737 0 17.865-7.224 7.128-7.224 7.128-17.903v-207.436q0-10.679-7.263-17.903-7.263-7.224-18-7.224Zm158.359-125.282q-10.736 0-17.864 7.224t-7.128 17.903v332.718q0 10.679 7.262 17.903 7.263 7.224 18 7.224 10.736 0 17.864-7.224t7.128-17.903v-332.718q0-10.679-7.262-17.903-7.263-7.224-18-7.224ZM638.224-422.82q-10.737 0-17.865 7.349-7.128 7.35-7.128 17.779v84.051q0 10.679 7.263 17.903 7.263 7.224 18 7.224 10.736 0 17.864-7.224t7.128-17.903v-84.051q0-10.429-7.263-17.779-7.263-7.349-17.999-7.349Z"/></svg>