<svg xmlns="http://www.w3.org/2000/svg" height="40" viewBox="0 -960 960 960" width="40"><path d="M455.283-528.412v166.053q0 10.461 7.461 17.589 7.461 7.128 17.666 7.128 10.461 0 17.589-7.461 7.128-7.462 7.128-17.667v-165.437l63.745 63.95q7.18 7.231 17.372 7.731t17.755-7.064q7.821-7.821 7.821-18t-7.821-17.999L501.513-602.333q-9.616-9.358-22.051-9.358-12.436 0-21.795 9.358L354.924-499.589q-7.436 7.435-7.321 17.499.116 10.064 7.936 17.884 7.82 7.616 17.897 7.59 10.076-.026 17.897-7.59l63.95-64.206ZM162.565-180.001q-25.846 0-44.205-18.359-18.359-18.359-18.359-44.205v-474.87q0-25.846 18.359-44.205 18.359-18.359 44.205-18.359h634.87q25.846 0 44.205 18.359 18.359 18.359 18.359 44.205v474.87q0 25.846-18.359 44.205-18.359 18.359-44.205 18.359h-634.87Z"/></svg>