<svg xmlns="http://www.w3.org/2000/svg" height="40" viewBox="0 -960 960 960" width="40"><path d="M480-220.001q-101.718 0-175.615-67.693-73.897-67.692-82.948-167.179H112.82q-10.679 0-17.903-7.262-7.224-7.263-7.224-18 0-10.736 7.224-17.864t17.903-7.128h108.617q9.051-99.487 82.948-167.179Q378.282-739.999 480-739.999t175.615 67.693q73.897 67.692 82.948 167.179H847.18q10.679 0 17.903 7.262 7.224 7.263 7.224 18 0 10.736-7.224 17.864t-17.903 7.128H738.563q-9.051 99.487-82.948 167.179Q581.718-220.001 480-220.001ZM401.593-347.18h156.845q15.684 0 26.315-10.446 10.631-10.447 10.631-26.062v-117.149q0-15.616-10.6-26.236-10.601-10.619-26.271-10.619h-2.718v-36q0-32.466-21.761-55.925-21.761-23.46-54.286-23.46-31.568 0-53.556 22.822-21.987 22.823-21.987 54.46v38.103h-2.718q-15.709 0-26.162 10.563t-10.453 26.178v117.15q0 15.615 10.519 26.118 10.518 10.503 26.202 10.503ZM480-413.077q-12.231 0-20.731-8.5-8.5-8.5-8.5-20.731 0-12.231 8.5-20.731 8.5-8.5 20.731-8.5 12.231 0 20.731 8.5 8.5 8.5 8.5 20.731 0 12.231-8.5 20.731-8.5 8.5-20.731 8.5Zm-45.282-124.615v-38.103q0-19.256 13.109-33.013 13.109-13.756 32.119-13.756 19.01 0 32.173 13.756 13.163 13.757 13.163 33.013v38.103h-90.564Z"/></svg>