<svg xmlns="http://www.w3.org/2000/svg" height="40" viewBox="0 -960 960 960" width="40"><path d="M103.898-249.257q-9.256-4.461-12.461-14.282-3.205-9.82 1.256-19.076l210.744-417.718q4.205-9.256 14.038-11.936 9.833-2.679 19.089 1.526 9.256 4.461 12.461 14.282 3.205 9.82-1 19.076L137.282-259.923q-4.462 9.512-14.295 12.192-9.833 2.679-19.089-1.526Zm252.461 0q-9.256-4.461-12.461-14.282-3.206-9.82 1.256-19.076l210.743-417.718q4.205-9.256 14.038-11.936 9.833-2.679 19.09 1.526 9.256 4.461 12.461 14.282 3.205 9.82-1 19.076L389.742-259.923q-4.461 9.512-14.294 12.192-9.833 2.679-19.089-1.526Zm252.46 0q-9.256-4.461-12.461-14.282-3.205-9.82 1.257-19.076l210.743-417.718q4.205-9.256 14.038-11.936 9.833-2.679 19.089 1.526 9.256 4.461 12.461 14.282 3.205 9.82-.999 19.076L642.203-259.923q-4.461 9.512-14.295 12.192-9.833 2.679-19.089-1.526Z"/></svg>