<svg xmlns="http://www.w3.org/2000/svg" height="40" viewBox="0 -960 960 960" width="40"><path d="M410.847-641.18q-56.262 0-95.694-39.432-39.433-39.432-39.433-95.694t39.433-95.695q39.432-39.432 95.694-39.432 56.519 0 95.823 39.432 39.304 39.433 39.304 95.695 0 56.262-39.304 95.694t-95.823 39.432Zm190.767 0q-.153-8.846-4.588-20.219-4.436-11.372-11.615-25.835 16.615-29.743 19.999-63.384 3.384-33.641-3.796-67.23 0-24.358-7.641-47.408t-23.178-41.921q24.847-2.41 44.629 8.655 19.783 11.065 27.731 28.631 39.126 17.308 54.368 56.654 15.241 39.346-2.324 78.472 0 39.127-27.23 66.356-27.229 27.229-66.355 27.229Zm155.067 445.152q-73.234 0-124.701-51.467-51.466-51.466-51.466-124.7 0-73.728 51.466-125.254 51.467-51.525 124.701-51.525 73.728 0 125.253 51.525 51.526 51.526 51.526 125.254 0 73.234-51.526 124.7-51.525 51.467-125.253 51.467Zm-30.451-86.229 122.999-123.204-21.538-21.154L726.23-325.539l-50.82-51.23-21.538 21.743 72.358 72.769Zm-615.382-53.898v-80.255q0-31.076 16.295-55.474 16.295-24.397 44.453-37.481 55.944-25.582 113.059-41.313 57.115-15.73 126.192-15.73 47.205 0 90.153 8.115 42.949 8.115 83.077 22.295-40.692 38.538-58.794 91.114-18.103 52.576-12.769 108.729H110.848Z"/></svg>