<svg xmlns="http://www.w3.org/2000/svg" height="40" viewBox="0 -960 960 960" width="40"><path d="M201.026-100.001q-24.32 0-42.672-18.466-18.353-18.465-18.353-42.944v-484.871q0-24.479 18.353-42.944 18.352-18.465 42.672-18.465h60.385v-114.358q0-25.609 18.478-44.086 18.477-18.478 44.086-18.478H636.41q25.608 0 44.086 18.478 18.477 18.477 18.477 44.086v114.358h60.001q24.666 0 42.845 18.465 18.18 18.465 18.18 42.944v484.871q0 24.479-18.18 42.944-18.179 18.466-42.845 18.466H201.026Zm110.64-607.69h337.052v-114.358q0-5.385-3.462-8.847-3.461-3.462-8.846-3.462H323.975q-5.385 0-8.847 3.462-3.462 3.462-3.462 8.847v114.358Zm-110.64 557.435h557.948q4.231 0 7.5-3.462 3.27-3.462 3.27-7.693v-484.871q0-4.231-3.27-7.693-3.269-3.462-7.5-3.462H201.026q-4.231 0-7.5 3.462-3.27 3.462-3.27 7.693v484.871q0 4.231 3.27 7.693 3.269 3.462 7.5 3.462Zm278.58-67.694q77.303 0 131.925-54.491 54.622-54.491 54.622-131.248 0-76.865-54.657-131.588-54.657-54.722-131.96-54.722-76.984 0-131.208 54.723-54.225 54.723-54.225 131.538 0 76.814 54.26 131.301 54.26 54.487 131.243 54.487Zm.178-42.05q-59.63 0-101.438-41.84t-41.808-101.526q0-59.686 41.807-101.75t101.193-42.064q59.704 0 101.942 42.031 42.238 42.03 42.238 101.716 0 59.685-42.152 101.559Q539.414-260 479.784-260Zm17.523-151.077v-70.846q0-6.923-5.175-12.115-5.176-5.193-12.077-5.193t-12.132 5.193q-5.23 5.192-5.23 12.115v72.538q0 5.976 2.205 11.578 2.205 5.601 7.094 10.491l40.452 40.452q5.206 5.171 12.227 5.171t12.252-5.176q5.231-5.175 5.231-12.076 0-6.901-5.231-12.132l-39.616-40ZM480-403.846Z"/></svg>