<svg xmlns="http://www.w3.org/2000/svg" height="40" viewBox="0 -960 960 960" width="40"><path d="M66.154-305.128 212.54-539.409q8.359-13.308 24.294-14.539 15.936-1.23 26.5 10.334l91.872 107.718L488.564-651.64q8.744-14.769 25.962-15.038 17.217-.27 26.576 14.038l68.461 102.332q-13.589 1.795-26.191 5.141-12.603 3.346-25.038 7.961l-42.078-63.411L386-387.693q-8.616 13.307-24.654 14.641-16.038 1.333-26.346-10.436l-92.923-108.77-133.36 214.078q-5.615 9.256-16.256 11.654-10.64 2.397-19.691-4.423-8.436-5.616-10.154-15.705t3.538-18.474ZM869.77-54.232 734.41-189.078q-19.513 14.282-42.282 21.692-22.769 7.41-47.231 7.41-64.768 0-109.947-45.179t-45.179-109.948q0-64.768 45.179-109.947t109.947-45.179q64.769 0 109.948 45.179 45.179 45.179 45.179 109.947 0 24.846-7.808 47.808-7.807 22.961-22.064 42.833L905.768-90.231l-35.999 36ZM644.897-210.23q43.898 0 74.385-30.487 30.487-30.487 30.487-74.385 0-43.897-30.487-74.384-30.487-30.487-74.385-30.487-43.897 0-74.384 30.487-30.487 30.487-30.487 74.384 0 43.898 30.487 74.385 30.487 30.487 74.384 30.487Zm74.128-330.718q-12.487-4.872-25.499-7.038-13.013-2.167-26.679-3.577l184.436-291.513q5.615-9.051 16.153-11.345 10.538-2.295 19.589 4.525 8.436 5.872 10.461 15.833 2.026 9.961-3.384 18.346L719.025-540.949Z"/></svg>