<svg xmlns="http://www.w3.org/2000/svg" height="40" viewBox="0 -960 960 960" width="40"><path d="M868.924-235.128 766.36-337.693q-7.795-8.077-7.987-18.743-.193-10.666 7.964-19.102 8.539-8.179 19.114-8.179 10.574 0 18.754 8.179l118.897 118.487q9.615 9.405 9.615 21.946 0 12.541-9.615 21.9L804.205-94.308q-8.078 8.05-18.744 8.243-10.666.192-18.973-8.365-8.308-8.558-8.308-19.136t8.18-18.998l102.564-102.564Zm-492.677 95.127q-13.483 0-22.428-8.994-8.946-8.993-8.946-22.288v-48.718H162.565q-25.788 0-44.176-18.388t-18.388-44.176v-474.87q0-25.788 18.388-44.176t44.176-18.388h634.87q25.788 0 44.176 18.388t18.388 44.176v250.82q0 10.68-7.263 17.904t-18 7.224q-10.736 0-17.864-7.224t-7.128-17.904v-250.82q0-4.616-3.847-8.462-3.846-3.847-8.462-3.847h-634.87q-4.616 0-8.462 3.847-3.847 3.846-3.847 8.462v474.87q0 4.616 3.847 8.462 3.846 3.847 8.462 3.847h495.282q10.679 0 17.903 7.263 7.224 7.263 7.224 17.999 0 10.737-7.224 17.865-7.224 7.128-17.903 7.128H610v48.718q0 13.295-8.994 22.288-8.993 8.994-22.288 8.994H376.247Zm78.215-359.333v99.744q0 10.679 7.263 17.904 7.263 7.224 18 7.224 10.736 0 17.864-7.224 7.128-7.225 7.128-17.904v-99.744h99.745q10.679 0 17.903-7.263 7.224-7.263 7.224-17.999 0-10.737-7.224-17.865-7.224-7.128-17.903-7.128h-99.745v-99.744q0-10.68-7.263-17.904t-17.999-7.224q-10.737 0-17.865 7.224-7.128 7.224-7.128 17.904v99.744h-99.744q-10.679 0-17.903 7.263-7.225 7.263-7.225 17.999 0 10.737 7.225 17.865 7.224 7.128 17.903 7.128h99.744ZM150.256-270.256v-499.488V-270.256Z"/></svg>