<svg xmlns="http://www.w3.org/2000/svg" height="40" viewBox="0 -960 960 960" width="40"><path d="m241.539-260.001-88.333 88.332q-14.769 14.769-33.987 6.758-19.218-8.011-19.218-28.886v-603.638q0-25.788 18.388-44.176t44.176-18.388h634.87q25.788 0 44.176 18.388t18.388 44.176v214.358q0 10.699-7.25 17.913-7.249 7.215-17.999 7.215t-17.878-7.215q-7.128-7.214-7.128-17.913v-214.358q0-4.616-3.847-8.462-3.846-3.847-8.462-3.847h-634.87q-4.616 0-8.462 3.847-3.847 3.846-3.847 8.462v559.487l69.54-72.308h376q10.698 0 17.912 7.249 7.215 7.25 7.215 18t-7.215 17.878q-7.214 7.128-17.912 7.128H241.539Zm519.897 0h-23.711q-13.442 0-22.301-8.946-8.859-8.945-8.859-22.336v-149.742q0-13.391 8.981-22.337 8.982-8.945 22.425-8.945h64.849q11.511 0 18.883 9.743 7.372 9.744 3.218 21.308l-41.102 118.435h43.333q12.513 0 19.667 10.436 7.153 10.435 2.051 21.999l-72.922 170.049q-2.41 6.206-8.461 4.706t-6.051-7.911v-136.459Zm-611.18-50.255v27.694-527.182 499.488Z"/></svg>