<svg xmlns="http://www.w3.org/2000/svg" height="40" viewBox="0 -960 960 960" width="40"><path d="M202.565-100.001q-25.788 0-44.176-18.388t-18.388-44.176v-564.614q0-25.788 18.388-44.176 18.388-18.387 44.176-18.387h67.693v-74.872h54.102v74.872h312.819v-74.872h52.819v74.872h67.437q25.788 0 44.176 18.387 18.388 18.388 18.388 44.176v564.614q0 25.788-18.388 44.176t-44.176 18.388h-554.87Zm-12.309-62.564q0 4.616 3.847 8.462 3.846 3.847 8.462 3.847h554.87q4.616 0 8.462-3.847 3.847-3.846 3.847-8.462v-564.614q0-4.615-3.847-8.462-3.846-3.846-8.462-3.846h-554.87q-4.616 0-8.462 3.846-3.847 3.847-3.847 8.462v564.614Zm182.053 12.309v-89.822l-75.078-88.231q-9.846-10.23-17.384-26.922-7.538-16.693-7.538-38.615 0-12.231 2.5-23.77 2.5-11.538 8.115-22.384-5-10.231-7.808-21.769-2.807-11.538-2.807-24.385 0-21.922 7.538-38.615 7.538-16.692 17.384-26.922l75.078-88.231v-99.565H420v106.333q0 5-7 19l-80 94q-7 8-10 16.5t-3 17.5q0 20 13 34.5t33 14.5q9 0 16.808-3 7.807-3 14.192-10 17-17 38.5-26t44.5-9q23 0 44.5 9t38.5 26q7 7 15 10t16 3q20 0 33-14.5t13-33.5q0-9-3.5-17.5t-9.5-16.5l-80-95q-4-4-5.5-9t-1.5-10v-106.333h47.691v99.949l75.693 89.462q12.461 14.077 18.384 30.654 5.923 16.576 5.923 34.268 0 12.231-3.115 23.77-3.115 11.538-8.115 21.384 5.615 10.846 8.423 22.384 2.807 11.539 2.807 23.77 0 21.922-7.538 38.615-7.538 16.692-17.384 26.922l-75.078 88.231v89.822H540v-96.59q0-6 7-19l80-94q7.769-9.154 10.769-19.885 3-10.731 1.077-21.27-10.231 5.77-21.038 8.654Q607-389.462 595-389.462q-17.692 0-35.192-7.039-17.5-7.038-30.961-21.115-8.923-9.923-21.731-14.885-12.808-4.961-27.116-4.961-13.308 0-26.308 4.961-13 4.962-22.539 14.885-13.077 14.077-30.461 21.115-17.385 7.039-35.077 7.039-12 0-23.115-2.885-11.115-2.884-21.346-8.654-1.923 10.539 1.077 21.27T333-359.846l80 94q3 5 5 9.5t2 9.5v96.59h-47.691Zm-182.053-12.309v12.309-589.231 576.922Z"/></svg>