<svg xmlns="http://www.w3.org/2000/svg" height="40" viewBox="0 -960 960 960" width="40"><path d="M335.796-167.642q-88.794-32.589-156.14-96.23-67.346-63.64-76.193-155.101-1.154-12.622 7.022-21.952 8.177-9.33 20.798-9.33h48.718v-306.667q0-11.934 7.757-20.505 7.756-8.572 19.32-9.777l629.024-69.564q9.82-1.615 16.858 4.757 7.039 6.372 7.039 16.284 0 8.497-5.69 14.508-5.689 6.012-14.028 7.04L413.59-767.487v85.411h425.127q9.222 0 15.252 6.082 6.03 6.082 6.03 15.385 0 9.302-6.03 15.327-6.03 6.026-15.252 6.026H413.59v189.001h415.127q12.477 0 20.918 9.33 8.44 9.33 7.286 21.952-8.846 91.845-76.59 155.345-67.743 63.499-157.307 95.986v36.211q0 13.539-8.993 22.484-8.994 8.946-22.288 8.946H367.078q-13.295 0-22.288-8.994-8.994-8.993-8.994-22.288v-36.359Zm-17.591-514.434h52.565v-80.36l-52.565 5.793v74.567Zm-95.384 0h52.565v-69.744l-52.565 5.179v64.565Zm95.384 231.821h52.565v-189.001h-52.565v189.001Zm-95.384 0h52.565v-189.001h-52.565v189.001Z"/></svg>