<svg xmlns="http://www.w3.org/2000/svg" height="40" viewBox="0 -960 960 960" width="40"><path d="M420.053-146.669v-92.537q0-6.172 2.205-11.573 2.205-5.401 7.111-10.307L710.54-542.308q7.585-7.435 17.061-10.948 9.476-3.513 18.938-3.513 9.461 0 18.654 3.654t16.678 10.833l63.102 62.538q7.616 7.564 11.128 17.296 3.513 9.731 3.898 19.444.384 9.713-3.231 18.934-3.615 9.222-11.231 17.042L563.828-124.703q-4.906 4.906-10.411 7.111-5.506 2.205-11.469 2.205h-90.613q-13.295 0-22.288-8.994-8.994-8.993-8.994-22.288Zm389.332-295.999-63.051-64.256 63.051 64.256ZM470.308-165.642h63.077l180.744-180.745-31.743-31.461-32.898-32.231-179.18 178.77v65.667Zm212.078-212.206-32.898-32.231 32.898 32.231 31.743 31.461-31.743-31.461Zm-466.91 262.461q-41.628 0-70.858-29.166-29.231-29.167-29.231-70.833 0-34.94 21.167-61.546 21.166-26.607 53.704-35.042v-335.847q-32.538-8.435-53.704-35.007-21.167-26.571-21.167-61.786 0-41.666 29.166-70.833 29.167-29.166 70.833-29.166 35.215 0 61.786 21.167 26.572 21.166 35.007 53.704h170.695l-70.566-70.18q-7.82-7.518-7.82-17.541t7.715-17.843q7.715-7.82 17.743-7.82 10.028 0 17.951 7.82l109.179 108.769q9.359 9.405 9.359 21.946 0 12.541-9.359 21.9L447.692-613.717q-7.436 6.769-17.5 7.166-10.063.397-17.884-7.189-7.82-7.587-7.82-17.615 0-10.028 7.82-17.951l70.566-70.181H312.179q-6.794 26.41-26.025 45.641-19.231 19.231-45.641 26.052v335.615q32.538 8.435 53.705 35.007 21.166 26.571 21.166 61.786 0 41.666-29.14 70.833-29.139 29.166-70.768 29.166Zm529.048-729.226q41.628 0 70.858 29.14 29.231 29.14 29.231 70.768 0 41.629-29.14 70.859-29.14 29.23-70.768 29.23-41.629 0-70.859-29.14-29.23-29.139-29.23-70.768 0-41.628 29.14-70.858 29.139-29.231 70.768-29.231ZM215.377-165.642q21.137 0 35.445-14.299 14.307-14.299 14.307-35.436t-14.298-35.445q-14.299-14.307-35.436-14.307t-35.445 14.298q-14.308 14.299-14.308 35.436t14.299 35.445q14.299 14.308 35.436 14.308Zm0-529.229q21.137 0 35.445-14.298 14.307-14.299 14.307-35.436t-14.298-35.445q-14.299-14.308-35.436-14.308t-35.445 14.299q-14.308 14.299-14.308 35.436t14.299 35.445q14.299 14.307 35.436 14.307Zm529.228 0q21.137 0 35.445-14.298 14.308-14.299 14.308-35.436t-14.299-35.445q-14.299-14.308-35.436-14.308t-35.445 14.299q-14.307 14.299-14.307 35.436t14.298 35.445q14.299 14.307 35.436 14.307ZM215.386-215.386Zm0-529.228Zm529.228 0Z"/></svg>