<svg xmlns="http://www.w3.org/2000/svg" height="40" viewBox="0 -960 960 960" width="40"><path d="M479.734-87.182q-21.836 0-37.195-15.468-15.359-15.469-15.359-37.351H125.129q-10.679 0-17.903-7.263-7.225-7.263-7.225-18 0-10.736 7.225-17.864 7.224-7.128 17.903-7.128h54.872v-567.179q0-25.609 18.478-44.086 18.477-18.478 44.086-18.478h474.87q25.609 0 44.086 18.478 18.478 18.477 18.478 44.086v567.179h54.872q10.679 0 17.903 7.263 7.225 7.263 7.225 17.999 0 10.737-7.225 17.865-7.224 7.128-17.903 7.128H532.82q0 22.102-15.625 37.46-15.624 15.36-37.461 15.36ZM230.256-190.256h224.617v-102.693H230.256v102.693Zm274.871 0h224.617v-102.693H505.127v102.693Z"/></svg>