<svg xmlns="http://www.w3.org/2000/svg" height="40" viewBox="0 -960 960 960" width="40"><path d="M789.846-482.872q-8.231 0-15.487-5.641t-8.82-14.076q-5.385-25.154-15.308-49.283-9.923-24.128-24.257-46.923-4.641-7.231-3.82-16.115.82-8.885 7.23-15.551 9.256-8.795 21.115-7.705 11.859 1.09 18.474 11.576 16.41 25.18 27.91 53.449 11.5 28.27 17.911 60.116 2.769 12.026-4.769 21.089-7.539 9.064-20.179 9.064ZM523.897-130.539q0-8.231 5.834-15.679 5.833-7.449 14.268-9.013 24.616-5.256 48.616-14.859 24.001-9.602 46.796-24.192 7.23-4.385 15.91-3.769 8.679.615 15.089 7.025 9.051 9 7.961 20.794-1.09 11.795-11.576 18.41-26.308 16.821-54.642 28.218-28.333 11.398-57.718 18.398-12.025 2.769-21.281-4.667-9.257-7.436-9.257-20.666Zm205.487-119.872q-5.615-5.666-6.628-15.051-1.013-9.384 3.628-16.614 14.59-22.796 24.18-46.924t14.975-49.283q1.564-8.179 8.512-13.948Q781-398 789.846-398q12.845 0 19.948 8.73 7.102 8.731 4.589 20.756-7.282 30.872-18.487 59.539-11.205 28.667-27.334 54.693-6.615 10.487-18.268 11.576-11.654 1.09-20.91-7.705ZM409.488-105.412q-117.051-25.486-192.269-118.614t-75.218-216.538q0-141.948 98.897-240.973Q339.795-780.563 482-780.563h25.078l-62.873-62.873q-7.615-7.615-7.615-18.23t7.563-18.179q7.616-7.615 18.231-7.615 10.615 0 18.179 7.615l102.794 102.743q4.949 4.949 7.051 10.231 2.103 5.282 2.103 11.436 0 6.41-2.103 11.692-2.102 5.282-7.051 10.231L480.614-630.769q-7.615 7.615-18.23 7.615t-18.231-7.615q-7.615-7.615-7.615-18.102t7.615-18.102l63.335-63.335H482q-121.872 0-205.808 84.064-83.936 84.064-83.936 205.68 0 105.154 64.09 183.782 64.09 78.628 163.372 101.91 8.436 1.564 14.205 8.718t5.769 16q0 12.64-8.961 20.076t-21.243 4.666Z"/></svg>