<svg xmlns="http://www.w3.org/2000/svg" height="40" viewBox="0 -960 960 960" width="40"><path d="M354.999-140.412q-37.23 0-67.076-22.936-29.846-22.936-38.282-60.038h-42.717q-47.257 0-78.628-31.372-31.372-31.371-31.372-78.627v-155.538q0-25.705 18.43-44.134 18.429-18.429 44.134-18.429h167.077v-128.257H122.052q-10.699 0-17.913-7.249-7.215-7.25-7.215-18t7.215-17.878q7.214-7.128 17.913-7.128h462.562q25.788 0 44.176 18.388 18.388 18.387 18.388 44.176v393.793H805.95l-45.232-45.489q-7.435-7.179-7.525-17.371-.09-10.192 7.264-17.756 8.082-7.82 18.261-7.923 10.179-.102 17.999 7.718l84.436 84.026q9.359 9.405 9.359 21.946 0 12.54-9.359 21.899l-84.641 84.641q-7.231 7.231-17.499 7.09-10.269-.141-17.885-7.628-7.615-7.487-7.615-17.897 0-10.41 7.615-18.025l45.233-44.976H460.153q-7.846 37.102-37.885 60.038-30.038 22.936-67.269 22.936Zm23.359-411.074h218.565v-115.948q0-4.616-3.847-8.462-3.846-3.847-8.462-3.847H378.358v128.257Zm-23.169 360.819q24.6 0 41.552-17.189 16.952-17.19 16.952-41.898 0-24.6-17.143-41.552-17.143-16.952-41.783-16.952-24.639 0-41.652 17.143t-17.013 41.783q0 24.639 17.189 41.652 17.19 17.013 41.898 17.013Zm-105.548-82.974q8.436-37.103 38.31-60.987 29.874-23.885 67.102-23.885 37.229 0 67.241 23.885 30.013 23.884 37.859 60.987h136.77v-227.591H159.488q-5.385 0-8.847 3.59-3.462 3.59-3.462 8.719v155.538q0 25.718 17.013 42.731t42.732 17.013h42.717Zm0-227.591H147.179h449.744-347.282Z"/></svg>