<svg xmlns="http://www.w3.org/2000/svg" height="40" viewBox="0 -960 960 960" width="40"><path d="M514.206-210.309 209.54-514.975q-18.769-19.855-18.769-45.979 0-26.123 18.769-45.713l146.101-145.947q18.923-19.589 45.505-19.589 26.581 0 46.443 19.589l304.666 304.922q19.179 19.334 19.179 45.923 0 26.59-19.179 45.769L605.897-210.309q-18.923 19.846-45.518 19.846-26.595 0-46.173-19.846Zm37.127-34.051q3.462 3.462 8.847 3.462t8.847-3.462l148.511-148.767q3.462-3.462 3.462-8.847t-3.462-8.847L410.462-718.307q-3.462-3.462-8.847-3.462t-8.847 3.462L244.001-569.796q-3.462 3.462-3.462 8.847t3.462 8.847L551.333-244.36Zm-70.23-237.102Zm33.305-403.564 115.079 115.079q7.23 7.23 7.423 17.499.192 10.269-7.423 17.884-7.616 7.616-17.897 7.616-10.282 0-17.897-7.616L426.001-901.845q-9.667-9.41-5.256-21.169 4.412-11.758 16.883-14.338 10.398-1.647 20.856-2.147 10.459-.5 20.439-.5 95.564 0 179.346 36.167 83.781 36.167 146.589 98.974 62.807 62.808 98.974 146.589 36.167 83.782 36.167 179.346 0 10.679-7.263 17.903-7.263 7.224-18 7.224-10.736 0-17.864-7.224t-7.128-17.903q0-80.077-28.783-151.334-28.782-71.257-79.218-125.923-50.436-54.667-119.155-88.834-68.718-34.166-148.18-40.012ZM447.079-74.154 330.924-190.053q-7.231-7.23-7.218-17.499.013-10.269 7.628-17.884 7.615-7.616 18.025-7.616 10.41 0 17.769 7.616L533.589-59.232q9.666 9.667 5.333 22.27-4.333 12.602-17.493 14.602-11.02 1.846-21.253 2.307-10.233.462-21.253.462-94.611 0-178.233-35.89-83.621-35.892-146.217-98.581-62.597-62.689-98.534-146.412Q20-384.197 20-478.923q0-10.679 7.263-17.903 7.263-7.225 18-7.225 10.736 0 17.864 7.225 7.128 7.224 7.128 17.903 0 79.821 29.116 151.077 29.116 71.257 79.757 125.719 50.641 54.461 119.565 88.294 68.923 33.834 148.385 39.68Z"/></svg>