<svg xmlns="http://www.w3.org/2000/svg" height="40" viewBox="0 -960 960 960" width="40"><path d="m216.924-227.102 38.949-188.949q3.692-19.564 16.153-34.192 12.462-14.628 33.154-20.269l385.128-117.231L769.488-755q-.411-.077 6.153-9.154l89.231-88.845q6.205-6.205 14.795-6.103 8.589.103 15.589 6.718 6.846 6.461 7.051 15.23.205 8.77-5.846 15.359l-83.795 91.026-64.282 172.461q-1.744 4.82-4.359 8.269t-6.564 6.269L553.487-413.693l-238.975 75.821-53 133.59q-1 1.948-1.897 3.743-.898 1.795-2.231 3.539L165.102-73.975q-6.615 8.641-16.487 10.256-9.871 1.616-18.256-5-8.64-6.615-10.256-16.999-1.615-10.384 5-18.769l91.821-122.615Zm-100.309-138.59q-29.076 0-49.768-20.693-20.693-20.692-20.693-49.769 0-29.076 20.693-49.768 20.692-20.693 49.768-20.693 28.821 0 49.641 20.693 20.82 20.692 20.82 49.768 0 29.077-20.82 49.769-20.82 20.693-49.641 20.693Zm226.616-179.462q-19.41 5.821-36.962-4.384-17.551-10.205-23.371-30-5.154-19.41 4.577-37.064 9.73-17.654 29.397-23.269l145.564-43.205q12.564-3.949 24.32 2.615t14.91 19.513l9.051 34.564q3.411 12.564-2.743 23.128t-18.333 14.512l-146.41 43.59Z"/></svg>