<svg xmlns="http://www.w3.org/2000/svg" height="40" viewBox="0 -960 960 960" width="40"><path d="M266.718-173.847q-24.256 0-40.282-15.256-16.025-15.256-16.025-39.256 0-16.82 8.974-31.038t24.667-20.397l169.744-67.282v-143.285q-63.565 75.591-121.873 113.565-58.307 37.975-132.795 47.103-10.204 1.615-18.127-5.846-7.923-7.461-7.923-18.076 0-10.846 7.346-18.282 7.346-7.435 17.935-9.051 56.103-7.333 104.616-36.32 48.513-28.988 89.128-78.116l56.154-63.641q9.128-11.256 22.051-18.09 12.923-6.833 27.795-6.833h43.794q14.872 0 28 6.833 13.128 6.834 22.513 18.09l55.897 63.641q41.693 48.308 89.667 77.705 47.974 29.398 103.667 36.731 10.589 1.616 17.935 9.051 7.346 7.436 7.346 18.282 0 10.615-7.923 18.076t-18.127 5.846q-74.488-9.128-132.795-47.103-58.308-37.974-121.873-113.565v143.285l169.744 67.282q15.693 6.179 24.667 20.397 8.974 14.218 8.974 31.038 0 24-16.025 39.256-16.026 15.256-40.282 15.256H398.103v-8.615q0-24.846 14.73-39.705 14.731-14.859 39.577-14.859h130.975q8.589 0 14.295-5.705 5.705-5.705 5.705-14.295t-5.705-14.295q-5.706-5.705-14.295-5.705H452.41q-41.667 0-67.577 26.321-25.91 26.32-25.91 68.243v8.615h-92.205ZM480-641.384q-29.205 0-49.833-20.628t-20.628-49.833q0-29.205 20.628-49.833T480-782.306q29.205 0 49.833 20.628t20.628 49.833q0 29.205-20.628 49.833T480-641.384Z"/></svg>