<svg xmlns="http://www.w3.org/2000/svg" height="40" viewBox="0 -960 960 960" width="40"><path d="M730.104-455.283H515.128q-10.852 0-17.99-7.141-7.137-7.142-7.137-18t7.137-17.986q7.138-7.128 17.99-7.128h214.976l-65.027-64.821q-7.23-6.564-7.422-17.064-.193-10.5 7.711-18.147 7.532-7.532 17.608-7.532 10.077 0 17.692 7.615L803.82-502.333q9.359 9.359 9.359 21.795 0 12.435-9.359 22.051L700.666-355.334q-6.82 6.82-17.192 7.192-10.371.372-18.275-7.275-7.532-7.532-7.634-17.506-.103-9.974 7.512-17.794l65.027-64.566ZM282.565-60.002q-25.775 0-44.169-18.393-18.395-18.395-18.395-44.17v-714.87q0-25.775 18.395-44.169 18.394-18.395 44.169-18.395h394.87q25.775 0 44.169 18.395 18.395 18.394 18.395 44.169v139.384h-50.255v-56.309H270.256v548.72h419.488v-56.309h50.255v139.201q0 26.055-18.395 44.4-18.394 18.346-44.169 18.346h-394.87Z"/></svg>