<svg xmlns="http://www.w3.org/2000/svg" height="40" viewBox="0 -960 960 960" width="40"><path d="M480.067-100.001q-78.836 0-148.204-29.92-69.369-29.92-120.682-81.544-51.314-51.624-81.247-120.833-29.933-69.21-29.933-147.635 0-78.836 29.92-148.204 29.92-69.369 81.21-120.682 51.291-51.314 120.629-81.247 69.337-29.933 148.173-29.933t147.871 29.92q69.035 29.92 120.682 81.21 51.647 51.291 81.58 120.629 29.933 69.337 29.933 148.173 0 78.426-29.92 147.666t-81.544 120.887q-51.624 51.647-120.628 81.58-69.004 29.933-147.84 29.933ZM480-150.256q136.795 0 233.269-96.475Q809.744-343.205 809.744-480q0-137.462-96.475-233.603Q616.795-809.744 480-809.744q-137.462 0-233.603 96.141Q150.256-617.462 150.256-480q0 136.795 96.141 233.269Q342.538-150.256 480-150.256Zm136.154-343.796q20.717 0 35.025-14.307 14.307-14.308 14.307-35.026 0-13.153-6.448-24.346-6.449-11.192-17.757-17.653l14.795-8.077q6.846-3.821 8.654-10.423 1.808-6.603-2.423-13.705-4.231-6.846-11.051-9.052-6.821-2.205-13.667 2.026L548-573q-6.846 4.026-8.551 10.961-1.705 6.936 2.859 15.27 3.282 6.025 9.667 7.794 6.384 1.77 12.41-1.384l3.231-2.129q-.026 20.18 14.102 34.308t34.436 14.128Zm-272.308 0q20.308 0 34.436-14.128t14.102-34.308l3.616 2.129q6.025 3.154 12.218 1.282 6.192-1.872 10.551-9.385 3.487-6.846 1.679-13.577-1.807-6.73-8.653-10.961l-90.179-51.615q-6.436-3.615-13.269-1.949-6.834 1.667-10.654 8.769-4.231 6.847-2.218 13.68 2.013 6.833 8.859 10.654l14.385 8.077q-11.308 6.461-17.757 17.653-6.448 11.193-6.448 24.346 0 20.718 14.307 35.026 14.308 14.307 35.025 14.307Zm136.239 55.539q-65.264 0-114.533 42.038-49.269 42.039-72.397 104.166h373.69q-23.538-61.717-72.646-103.96-49.107-42.244-114.114-42.244ZM480-480Z"/></svg>