<svg xmlns="http://www.w3.org/2000/svg" height="40" viewBox="0 -960 960 960" width="40"><path d="M456.717-527.18q-14.949 0-25.166-10.218-10.218-10.218-10.218-25.038t10.218-25.166q10.217-10.346 25.038-10.346 14.82 0 25.166 10.346t10.346 25.038q0 14.948-10.346 25.166t-25.038 10.218Zm167.103 0q-14.485 0-25.102-10.218-10.616-10.218-10.616-25.038t10.616-25.166q10.617-10.346 25.102-10.346 15.052 0 25.872 10.346t10.82 25.038q0 14.948-10.82 25.166T623.82-527.18Zm168.333 0q-15.232 0-26.052-10.218t-10.82-25.038q0-14.82 10.82-25.166t25.924-10.346q14.537 0 25.101 10.346 10.565 10.346 10.565 25.038 0 14.948-10.565 25.166-10.564 10.218-24.973 10.218Zm-16.026 387.179q-108.615 0-221.986-53.321-113.371-53.32-210.435-150.576-97.064-97.256-150.384-210.435-53.321-113.179-53.321-221.794 0-18.802 12.425-31.337t31.063-12.535h119.568q15.481 0 26.519 10.09 11.039 10.09 15.013 25.706l23.542 110.682q2.176 15.547-1.004 27.521-3.179 11.974-11.844 20.125l-93.719 91.259q25.282 44.231 54.679 82.475 29.398 38.244 63.603 72.218 35.898 36.564 76.359 67.103 40.462 30.539 86.847 55.923l90.436-92.435q9.795-10.59 22.501-14.436 12.706-3.846 26.473-1.846l101.741 21.794q15.821 3.744 25.808 15.997 9.988 12.254 9.988 27.773v116.561q0 18.638-12.535 31.063-12.535 12.425-31.337 12.425ZM237.436-580.973l78.565-76.154q1.923-1.539 2.5-4.232.577-2.692-.193-5l-20.564-97.23q-.513-3.078-2.564-4.616-2.051-1.539-5.129-1.539h-93.999q-2.308 0-3.847 1.539-1.538 1.538-1.538 3.846.769 40.18 12.474 85.667 11.705 45.488 34.295 97.719Zm353.281 347.4q40.59 19.548 87.454 30.594 46.864 11.046 86.188 12.569 2.308 0 3.846-1.539 1.539-1.538 1.539-3.846v-93.487q0-3.077-1.539-5.129-1.538-2.051-4.616-2.564l-88.461-18.359q-2.307-.769-4.038-.192-1.731.577-3.654 2.5l-76.719 79.453Zm-353.281-347.4q-21.564-50.18-32.885-94.77-11.32-44.59-12.602-84.513 0-2.051 1.154-3.205t2.949-1.154h93.487q2.307 0 3.974 1.282 1.667 1.282 2.18 3.59l20.051 96.974q.513 1.795.064 3.975-.449 2.179-1.859 3.205l-76.513 74.616Zm353.281 347.332 74.924-77.077q1.666-1.41 3.013-1.987 1.346-.577 3.141-.064l89.743 18.615q2.308.513 3.59 2.179 1.282 1.667 1.282 3.975v92.718q0 2.051-1.154 3.205t-2.949 1.154q-39.948-1.692-85.602-12.654-45.654-10.961-85.988-30.064Z"/></svg>