<svg xmlns="http://www.w3.org/2000/svg" height="40" viewBox="0 -960 960 960" width="40"><path d="M364.689-335.386q-108.611 0-184.341-75.656-75.731-75.657-75.731-184.269 0-108.611 75.657-184.341 75.657-75.731 184.268-75.731 108.612 0 184.342 75.657 75.73 75.657 75.73 184.268 0 108.612-75.656 184.342-75.657 75.73-184.269 75.73Zm-29.303 168.205v-83.793q7.307 1.025 14.615 1.128 7.307.102 14.615.102 143.803 0 244.722-100.918 100.918-100.919 100.918-244.722 0-7.308-.102-14.615-.103-7.308-1.128-14.615h83.793q25.609 0 44.086 18.477 18.478 18.478 18.478 44.086v394.87q0 25.609-18.478 44.086-18.477 18.478-44.086 18.478h-394.87q-25.608 0-44.086-18.478-18.477-18.477-18.477-44.086Z"/></svg>