<svg xmlns="http://www.w3.org/2000/svg" height="40" viewBox="0 -960 960 960" width="40"><path d="M164.994-58.078q-10.737 0-17.865-7.224-7.128-7.224-7.128-17.904V-876.41q0-10.679 7.263-17.903 7.263-7.224 18-7.224 10.736 0 17.864 7.224t7.128 17.903v56.796h579.488v-56.796q0-10.679 7.263-17.903 7.263-7.224 17.999-7.224 10.737 0 17.865 7.224 7.128 7.224 7.128 17.903v793.204q0 10.68-7.263 17.904t-18 7.224q-10.736 0-17.864-7.224t-7.128-17.904V-140H190.256v56.795q0 10.68-7.263 17.904t-17.999 7.224Zm25.262-456.64H297.18V-638.82q0-13.045 8.994-22.164 8.993-9.118 22.288-9.118h143.076q13.295 0 22.288 9.118 8.994 9.119 8.994 22.164v124.102h266.924v-254.641H190.256v254.641Zm0 324.462H457.18v-124.103q0-13.295 8.994-22.288 8.993-8.994 22.288-8.994h143.076q13.295 0 22.288 8.994 8.994 8.993 8.994 22.288v124.103h106.924v-274.207H190.256v274.207Z"/></svg>