<svg xmlns="http://www.w3.org/2000/svg" height="40" viewBox="0 -960 960 960" width="40"><path d="M175.334-100.001q-14.564 0-23.025-9.757-8.462-9.756-8.462-21.525 0-5.616 2.205-11.295t7.154-10.628l653.383-653.383q4.948-4.948 10.756-7.282 5.808-2.333 11.167-2.333 11.769 0 21.628 8.487t9.859 22.795v347.101q-23.975-13.666-48.102-19.653-24.128-5.987-51.897-5.987-93.487 0-158.474 64.987T536.539-240q0 39.384 13.628 75.243 13.628 35.858 39.653 64.756H175.334Zm517.973-38.307q-7.23 6.82-17.204 6.935-9.974.116-17.41-7.32-7.231-7.23-7.231-17.499 0-10.269 7.231-17.5L725.001-240l-66.693-66.693q-7.23-7.23-7.038-17.499.192-10.269 7.423-17.5 7.23-7.23 17.499-7.23 10.269 0 17.5 7.23L760-274.999l66.693-66.693q7.23-7.23 17.397-7.141 10.166.09 17.602 7.526 7.23 7.23 7.025 17.307-.205 10.077-7.025 17.307L795.999-240l65.693 66.693q6.82 7.23 6.935 17.397.116 10.166-7.32 17.602-7.23 7.23-17.307 7.025-10.077-.205-17.307-7.025L760-204.001l-66.693 65.693Z"/></svg>