<svg xmlns="http://www.w3.org/2000/svg" height="40" viewBox="0 -960 960 960" width="40"><path d="m153.206-153.206 653.588-653.588q14.769-14.769 33.987-6.754 19.218 8.015 19.218 28.626v358.77q0 10.679-7.263 17.903-7.263 7.225-18 7.225-10.736 0-17.864-7.225-7.128-7.224-7.128-17.903v-312.209L220.972-150.256h320.569q10.679 0 17.903 7.263 7.224 7.263 7.224 17.999 0 10.737-7.224 17.865-7.224 7.128-17.903 7.128H175.334q-20.755 0-28.826-19.218-8.071-19.218 6.698-33.987Zm526.148 53.205q-10.737 0-17.865-7.225-7.128-7.224-7.128-17.903v-163.075q0-10.679 7.263-17.903 7.263-7.225 18-7.225 10.736 0 17.864 7.225 7.128 7.224 7.128 17.903v163.075q0 10.679-7.263 17.903-7.263 7.225-17.999 7.225Zm130.255 0q-10.737 0-17.865-7.225-7.128-7.224-7.128-17.903v-163.075q0-10.679 7.263-17.903 7.263-7.225 18-7.225 10.736 0 17.864 7.225 7.128 7.224 7.128 17.903v163.075q0 10.679-7.263 17.903-7.263 7.225-17.999 7.225Zm-294.02-344.615Z"/></svg>