<svg xmlns="http://www.w3.org/2000/svg" height="40" viewBox="0 -960 960 960" width="40"><path d="M695.999-364.463 304.001-755.46q43.461-12.359 87.256-18.449 43.795-6.09 88.743-6.09 117.615 0 225.601 41.705 107.987 41.705 198.859 116.371 11 8.359 11.756 22.423.756 14.064-8.987 23.807l-211.23 211.23ZM806.385-82.694 609.974-278.438 501.923-170.386q-9.359 9.358-21.923 9.358-12.564 0-21.923-9.358L53.156-575.308q-9.744-9.743-9.154-23.769.59-14.025 11.333-23.051Q87.772-649 118.502-669.525q30.731-20.526 62.911-37.269l-99.924-99.924q-7.436-7.436-7.525-17.833-.09-10.397 7.73-17.961 7.564-7.82 17.871-7.82 10.308 0 17.872 7.82l724.69 724.691q7.436 7.179 7.628 17.371.193 10.192-7.628 17.756-7.563 7.82-17.871 7.82-10.307 0-17.871-7.82Z"/></svg>