<svg xmlns="http://www.w3.org/2000/svg" height="40" viewBox="0 -960 960 960" width="40"><path d="M79.23-225.127H300q48.257 0 79.642-30.36 31.385-30.359 31.385-78.668l-121.821-36.051L76.179-255.642q-4.949 3-8.385 6.59T64.358-240q0 6.129 4.372 10.501t10.5 4.372Zm858.59-18.719q0 4.461-1.551 8.91-1.552 4.448-4.987 8.294-14.975 23.436-39.423 37.603-24.449 14.166-52.628 14.166h-200q-10.872 0-18-7.128T614.103-200q0-10.871 7.128-17.999 7.128-7.128 18-7.128h113.643L639.282-334.873H461.281q0 69.078-46.077 114.539t-115.205 45.461H79.231q-30.82 0-47.974-20.435Q14.103-215.744 14.103-240q0-16.205 8.5-31.551t26.192-25.141l172.463-94.257-153.36-44.334q-18.36-5.384-26.397-22.833-8.039-17.448.782-34.858l32.846-65.103q5.769-11.897 17.012-18.179 11.244-6.282 24.474-4.666l326.795 36.564 141.053-105.078-46.027-41.975q-1.666-1.923-3.91-2.692-2.244-.77-4.552-.77h-58.436q-10.872 0-18-7.128T446.41-720q0-10.871 7.128-17.999 7.128-7.128 18-7.128h58.641q11.564 0 22.923 4.205 11.359 4.205 19.718 12.307l267.334 248.539q13.692 12.487 18.948 25.281Q864.358-442 864.358-430q0 36.846-28.051 64.499-28.051 27.654-83.358 30.218l-43.746.821 117.284 109.335h12.744q14.949 0 28.5-7.347 13.552-7.346 21.27-21.449 3.384-6.615 9.628-10.833 6.243-4.218 13.858-4.218 10.872 0 18.102 7.128 7.231 7.128 7.231 18Z"/></svg>