<svg xmlns="http://www.w3.org/2000/svg" height="40" viewBox="0 -960 960 960" width="40"><path d="M480-150.256q78.795 0 134.269-55.475Q669.744-261.205 669.744-340q0-78.795-55.475-134.269Q558.795-529.744 480-529.744q-78.795 0-134.269 55.475Q290.256-418.795 290.256-340q0 78.795 55.475 134.269Q401.205-150.256 480-150.256ZM355.513-544.844q23.41-14.744 50.192-23.308t55.731-10.924L360.975-778.972H238.513l117 234.128Zm-74.717 351.588q-11.948-19.743-17.717-43.524-5.769-23.781-3.461-50.524-9.231-37.128-6.347-74.179 2.884-37.051 17.14-72.052 0-15.001 5.192-28.463 5.193-13.463 14.425-24.233-35.333 6.589-59.666 32.037-24.332 25.448-26.64 60.729-22.309 35.28-15.863 76.627 6.447 41.346 39.472 70.116 0 22.566 15.578 38.016t37.887 15.45Zm398.408 0q55.334-6.461 92.937-47.808Q809.744-282.41 809.744-340q0-57.59-37.603-98.936-37.603-41.347-92.937-48.064-2.308 0-4.616.32-2.308.321-4.616.449 23.488 30.769 36.757 67.692 13.27 36.924 13.27 78.539t-13.27 78.539q-13.269 36.923-36.757 67.436 2.308.384 4.616.576 2.308.193 4.616.193ZM480-100.001q-39.231 0-74.577-11.693-35.346-11.692-64.807-32.846-9.77 2.769-20.116 3.654-10.346.885-21.5.885-82.538 0-140.768-58.231-58.231-58.23-58.231-140.768 0-80.076 54.539-137.076 54.538-57 133.384-61.307 4.231 0 8.077.577 3.847.577 7.693 1.346L179.849-784.433q-8.154-15.512 1.102-30.153 9.257-14.641 26.974-14.641h145.947q17.717 0 32.589 9.359t23.231 25.128L480-653.841l70.565-140.899q8.102-15.769 22.974-25.128t32.589-9.359h145.947q17.717 0 26.974 14.641 9.256 14.641 1.102 30.153l-122.46 246.588q3.461-.769 7.116-1.154 3.654-.384 7.5-.384 79.23 4.923 133.461 61.922 54.231 57 54.231 137.461 0 83.538-58.231 141.768-58.23 58.231-141.768 58.231-10.539 0-21-.885-10.462-.885-20.231-3.654-29.462 20.769-64.5 32.654-35.038 11.885-74.269 11.885ZM480-340ZM355.513-544.844l-117-234.128 117 234.128ZM480-291l-48.897 36.999q-4.949 3.411-9.436.231-4.487-3.179-2.744-8.589l18.539-60.949-48.513-34.589q-4.948-3.411-3.077-8.795 1.872-5.385 7.487-5.385h59.949l19.333-63.769q1.744-5.41 7.359-5.41t7.359 5.41l19.333 63.769h59.949q5.615 0 7.487 5.385 1.871 5.384-3.077 8.795l-48.513 34.589 18.539 60.949q1.743 5.41-2.744 8.589-4.487 3.18-9.436-.231L480-291Zm124.487-253.844 117.59-234.128H599.025l-85.077 170.051 16.974 34.204q20.026 4.411 38.398 11.744 18.372 7.333 35.167 18.129Z"/></svg>