<svg xmlns="http://www.w3.org/2000/svg" height="40" viewBox="0 -960 960 960" width="40"><path d="M663.82-668.052q-44.307-44.307-70.051-100.076-25.743-55.77-30.769-117.205-.948-11.257 6.476-19.5 7.424-8.243 18.397-8.243 10.972 0 18.203 7.653 7.23 7.654 8.461 18.654 4.18 52.102 26.192 99.077 22.013 46.975 58.885 83.847 36.872 36.872 83.847 58.756 46.974 21.885 99.077 26.526 11 1.231 18.654 8.359 7.653 7.128 7.653 18.1 0 10.973-8.243 18.192-8.243 7.219-19.5 6.014-61.435-4.769-117.205-30.308-55.769-25.538-100.077-69.846Zm127.539-126.872q-18.81-19.005-30.891-42.784-12.082-23.78-16.057-50.01-1.82-10.308 5.398-17.833 7.217-7.525 18.075-7.525 10.108 0 17.753 7.051t10.029 17.307q3.436 15.974 11.039 30.769 7.602 14.795 19.782 27.231 12.436 12.18 27.128 20.013 14.692 7.834 31.334 11.269 10.256 2.385 17.281 9.874 7.026 7.488 7.026 17.896 0 10.819-7.628 18.037-7.628 7.217-17.885 5.653-26.281-4.435-49.832-16.487-23.552-12.051-42.552-30.461ZM401.923-460.412q-57.749 0-96.438-38.688-38.688-38.689-38.688-96.438 0-58.006 38.688-96.567 38.689-38.56 96.438-38.56 57.75 0 96.438 38.56 38.689 38.561 38.689 96.567 0 57.749-38.689 96.438-38.688 38.688-96.438 38.688ZM101.925-206.411v-29.231q0-32.615 16.41-55.91 16.41-23.294 44.102-37.012 49.846-24.846 114.308-40.961 64.461-16.116 125.178-16.116t124.845 16.116q64.129 16.115 114.231 40.961 27.692 13.718 44.308 37.012 16.615 23.295 16.615 55.91v29.231q0 21.255-14.884 36.14-14.885 14.884-36.14 14.884H152.949q-21.256 0-36.14-14.884-14.884-14.885-14.884-36.14Zm50.255.769h499.487v-30q0-16-8.911-28-8.91-12-23.602-20.052-42.462-22.974-101.193-37.333-58.731-14.359-116.038-14.359-57.307 0-116.243 14.769-58.936 14.769-101.397 36.923-13.872 6.975-22.988 19.513-9.115 12.539-9.115 28.539v30Zm249.743-305.025q35.975 0 60.423-24.448 24.449-24.449 24.449-60.423 0-35.975-24.449-60.424-24.448-24.448-60.423-24.448-35.974 0-60.423 24.448-24.449 24.449-24.449 60.424 0 35.974 24.449 60.423 24.449 24.448 60.423 24.448Zm0-84.871Zm0 389.896Z"/></svg>