<svg xmlns="http://www.w3.org/2000/svg" height="40" viewBox="0 -960 960 960" width="40"><path d="M518.461-404.771q-85.512 0-131.23 11.372-45.717 11.372-77.358 43.013L150.615-191.129q-7.231 7.231-17.397 7.218-10.166-.013-17.987-7.395-7.82-8.053-7.82-18.193t7.82-18.039L273.874-386.18q31.307-31.308 43-76.233 11.692-44.925 11.692-131.484 0-55.131 24.307-108.36 24.308-53.229 71.487-100.409 83.359-83.358 182.547-95.358t163.395 52.287q64.338 64.501 52.21 164.055-12.129 99.553-95.282 182.707-46.923 46.922-100.017 70.563-53.095 23.641-108.752 23.641Zm-102.974-87.742q48.077 47.872 130.021 35.253 81.943-12.618 147.04-77.764 65.339-65.193 77.909-146.174 12.569-80.982-35.123-128.135-48.026-47.641-128.693-35.244-80.666 12.398-146.487 77.691-64.897 64.706-78.59 145.578-13.692 80.871 33.923 128.795ZM730.839-60.002q-54.947 0-93.508-38.644-38.56-38.644-38.56-93.592 0-54.947 38.591-93.508 38.591-38.56 93.464-38.56 54.872 0 93.561 38.591 38.689 38.591 38.689 93.464 0 54.872-38.645 93.56Q785.787-60 730.839-60Zm.084-50.254q34.488 0 58.193-23.706 23.705-23.705 23.705-58.192t-23.705-58.192q-23.705-23.705-58.193-23.705-34.487 0-58.192 23.705t-23.705 58.192q0 34.487 23.705 58.192 23.705 23.706 58.192 23.706Zm0-81.898Z"/></svg>