<svg xmlns="http://www.w3.org/2000/svg" height="40" viewBox="0 -960 960 960" width="40"><path d="M327.052-190.256h277.82q5.385 0 8.847-3.462 3.461-3.462 3.461-8.847v-402.307h-87.179q-30.965 0-50.906 15.321-19.941 15.32-45.813 44.244-29.898 33.077-58.885 53.333t-59.653 26.692v262.717q0 5.385 3.461 8.847 3.462 3.462 8.847 3.462Zm-62.563-12.309v-263.704q-52-12.602-88.244-50.166-36.244-37.564-36.244-93.637 0-49.992 29.154-88.93 29.154-38.938 77.154-54.574 22.231-47.293 65.038-76.755 42.808-29.462 98.654-29.462 32.692 0 62.423 11.23 29.73 11.231 56.269 33.949 9.231-2.769 17.654-4.269t18.653-1.5q61 0 103.192 44.5 42.192 44.499 42.192 105.499 0 20.462-5.654 38.846-5.654 18.384-15.448 31.538h64.307q27.243 0 46.826 19.391 19.584 19.391 19.584 46.634v244.102q0 27.442-19.484 46.926t-46.926 19.484h-86.154v20.898q0 25.705-18.429 44.134-18.429 18.43-44.134 18.43h-277.82q-25.705 0-44.134-18.43-18.429-18.429-18.429-44.134Zm-74.233-407.434q0 39.538 30.103 67.205t69.642 27.667q33.923 0 59.077-18.923 25.154-18.923 50.641-48.307 25.462-29.334 55.949-51.052t74.717-21.718h129.744q2.308-47.539-24.41-81.27-26.718-33.731-70.719-33.731-16.23 0-30.486 4.038t-18.231 6.346l-21.077-17.666q-15.282-13.154-37.09-22.641-21.807-9.488-48.115-9.488-36.18 0-67.629 18.885-31.449 18.885-47.398 52.193l-12.461 26.153-28.154 9.462q-28.743 9.564-46.423 36.064-17.68 26.5-17.68 56.783Zm477.179 336.281h86.154q6.539 0 11.347-4.808t4.808-11.347v-244.102q0-6.923-4.616-11.347-4.616-4.423-11.539-4.423h-86.154v276.027Zm-340.383 83.462h-12.308H617.18 327.052Z"/></svg>