<svg xmlns="http://www.w3.org/2000/svg" height="40" viewBox="0 -960 960 960" width="40"><path d="M370.769-728.205h67.179v-67.179h-67.179v67.179Zm134.358 0v-67.179h67.18v67.179h-67.18ZM370.769-459.488v-67.179h67.179v67.179h-67.179Zm268.717-134.359v-67.179h67.179v67.179h-67.179Zm0 134.359v-67.179h67.179v67.179h-67.179Zm-134.359 0v-67.179h67.18v67.179h-67.18Zm134.359-268.717v-67.179h67.179v67.179h-67.179Zm-201.538 67.179v-67.179h67.179v67.179h-67.179ZM278.327-170.77q-10.736 0-17.864-7.224t-7.128-17.903v-574.36q0-10.679 7.263-17.903 7.263-7.224 17.999-7.224 10.737 0 17.932 7.224 7.195 7.224 7.195 17.903v42.052h67.045v67.179H303.59v67.179h67.179v67.18H303.59v330.77q0 10.679-7.263 17.903-7.263 7.224-18 7.224Zm293.98-355.897v-67.18h67.179v67.18h-67.179Zm-134.359 0v-67.18h67.179v67.18h-67.179Zm-67.179-67.18v-67.179h67.179v67.179h-67.179Zm134.358 0v-67.179h67.18v67.179h-67.18Zm67.18-67.179v-67.179h67.179v67.179h-67.179Z"/></svg>