<svg xmlns="http://www.w3.org/2000/svg" height="40" viewBox="0 -960 960 960" width="40"><path d="M730.872-153.336H80.513q-10.871 0-18-7.128-7.127-7.128-7.127-17.999 0-10.615 7.128-17.871 7.128-7.257 18-7.257h599.898l-42.975-42.717H165.95q-25.846 0-44.205-18.359-18.359-18.359-18.359-44.205v-437.075q0-6.539 3.59-12.808 3.59-6.27 8.719-9.347l-54.464-54.412q-7.23-7.436-7.423-17.705-.192-10.269 7.628-18.089 7.616-7.615 17.897-7.615 10.282 0 17.897 7.615L860.206-95.333q7.23 7.23 7.423 17.5.192 10.269-7.423 17.884-7.616 7.615-17.897 7.615-10.282 0-17.897-7.615l-93.54-93.387ZM398.154-486.028l-41.409-41.613q-6.795 10.076-10.897 23.538-4.103 13.462-4.103 27.898v59.744q0 10.872 7.128 18t17.999 7.128q10.872 0 18-7.128t7.128-18v-53.027q0-5.129 1.538-9.103 1.539-3.975 4.616-7.437ZM805.23-250.36 557.256-498.744l48.435-49.076q4.949-4.949 4.949-11.167t-4.949-11.167l-61.87-61.87q-4.205-4.205-8.885-2.231-4.679 1.975-4.679 7.385v42.563h-58.564L247.541-807.793h546.92q25.846 0 44.204 18.359 18.359 18.359 18.359 44.205v436.357q0 21.384-14.064 38.218-14.064 16.833-37.73 20.294Z"/></svg>