<svg xmlns="http://www.w3.org/2000/svg" height="40" viewBox="0 -960 960 960" width="40"><path d="M162.565-260.001q-25.788 0-44.176-18.388t-18.388-44.304v-314.614q0-25.564 18.388-44.128t44.176-18.564h122.564v179.486q0 10.846 7.146 17.986 7.146 7.141 17.999 7.141 10.854 0 17.982-7.141 7.128-7.14 7.128-17.986v-179.486h119.489v179.486q0 10.846 7.146 17.986 7.145 7.141 17.999 7.141 10.853 0 17.981-7.141 7.128-7.14 7.128-17.986v-179.486h119.489v179.486q0 10.846 7.146 17.986 7.146 7.141 18 7.141 10.853 0 17.981-7.141 7.128-7.14 7.128-17.986v-179.486h122.564q25.788 0 44.176 18.564t18.388 44.128v314.614q0 25.916-18.388 44.304t-44.176 18.388h-634.87Z"/></svg>