<svg xmlns="http://www.w3.org/2000/svg" height="40" viewBox="0 -960 960 960" width="40"><path d="M494.667-172.309q-71.436 0-128.256-38.307-56.82-38.307-83.538-104.05l54.819-23.153q19.667 47.102 60.59 76.256 40.923 29.154 96.795 29.154 51.487 0 89.385-26.847 37.898-26.846 37.898-78.847 0-25.179-8.474-46.795-8.475-21.615-23.936-39.718h68.459q11.513 17.692 17.782 39.205 6.27 21.513 6.27 47.308 0 76.436-54.295 121.115-54.295 44.679-133.499 44.679ZM115.128-494.873q-10.871 0-18-7.128-7.127-7.128-7.127-17.999 0-10.871 7.128-17.999 7.128-7.128 17.999-7.128h729.744q10.871 0 17.999 7.128 7.128 7.128 7.128 17.999 0 10.871-7.128 17.999-7.128 7.128-17.999 7.128H115.128Zm363.077-297.28q59.846 0 104.384 26.949 44.538 26.948 70.307 78.383l-54.69 24.82q-14.385-30.795-45.116-50.423t-74.731-19.628q-55.18 0-87.514 29.154-32.334 29.155-29.615 72.899 0 3.795.41 7.307.41 3.513 1.487 7.308h-59.024q-1.077-3.795-1.615-7.718t-.538-7.974q-3.052-67.051 46.012-114.064 49.064-47.013 130.243-47.013Z"/></svg>