<svg xmlns="http://www.w3.org/2000/svg" height="40" viewBox="0 -960 960 960" width="40"><path d="M100.001-162.565v-447.23q0-76.461 40.372-134.204 40.372-57.743 111.935-86.615 52.128-19.846 112.538-24.615 60.411-4.77 115.154-4.77 54.743 0 115.359 4.77 60.615 4.769 112.743 24.615 71.82 28.872 111.858 86.615 40.039 57.743 40.039 134.204v447.23q0 25.775-18.395 44.169-18.394 18.395-44.169 18.395h-634.87q-25.775 0-44.169-18.395-18.395-18.394-18.395-44.169ZM292.82-429.436v-172.051h374.616v172.051H292.82Zm318.65 125.949q-15.394 0-25.535-10.209-10.14-10.208-10.14-25.602t10.208-25.535q10.208-10.141 25.602-10.141t25.535 10.208q10.141 10.209 10.141 25.603 0 15.394-10.208 25.535-10.209 10.141-25.603 10.141Zm-263.075 0q-15.394 0-25.535-10.209-10.141-10.208-10.141-25.602t10.208-25.535q10.209-10.141 25.603-10.141 15.394 0 25.535 10.208 10.14 10.209 10.14 25.603 0 15.394-10.208 25.535t-25.602 10.141Zm70.579 80h121.642l63.769 66.461q3.436 3.565 7.278 5.167 3.841 1.603 8.433 1.603 14.93 0 20.327-13.449 5.397-13.448-4.166-23.653l-35.386-37.309q45.872-3.026 76.346-34.038 30.474-31.013 30.474-81.295v-261.487q0-64.64-66.281-85.807-66.282-21.167-161.41-21.167-98.18 0-162.935 21.167-64.756 21.167-64.756 85.807V-340q0 52.436 32.705 82.692 32.705 30.257 74.115 32.641l-35.334 37.514q-9.821 10.205-4.26 23.551 5.56 13.346 20.473 13.346 4.376 0 8.274-2 3.897-2 6.922-4.77l63.77-66.461Z"/></svg>