<svg xmlns="http://www.w3.org/2000/svg" height="40" viewBox="0 -960 960 960" width="40"><path d="M679.718-397.848q-36.346 0-61.749-25.404-25.404-25.404-25.404-61.749 0-36.346 25.445-61.749 25.445-25.404 61.58-25.404 36.473 0 61.749 25.445 25.275 25.444 25.275 61.579 0 36.474-25.275 61.878-25.276 25.404-61.621 25.404Zm-188.23 178.872v-12.41q0-20.569 10.153-38.014 10.154-17.444 28.975-26.088 35.23-16.307 72.576-24.461t76.526-8.154q39.179 0 76.73 8.051 37.552 8.051 72.372 24.564 18.974 8.233 28.923 25.713 9.948 17.479 9.948 38.389v12.41q0 13.295-8.993 22.288-8.994 8.994-22.288 8.994H522.769q-13.044 0-22.163-8.994-9.118-8.993-9.118-22.288Zm-99.181-273.743q-57.749 0-96.438-38.689-38.689-38.688-38.689-96.566 0-57.877 38.689-96.438 38.689-38.56 96.438-38.56 57.75 0 96.438 38.56 38.689 38.561 38.689 96.438 0 57.878-38.689 96.566-38.688 38.689-96.438 38.689Zm0-135.127ZM92.309-267.993q0-29.959 15.653-55.073 15.654-25.113 44.637-37.805Q213-389.076 272.214-403.512q59.214-14.436 119.908-14.436 28.313 0 53.056 2.782t51.384 8.038q-10.705 10.641-21.41 21.666-10.705 11.026-21.409 21.666-14.282-2.294-29.641-3.096-15.359-.801-31.795-.801-55.425 0-108.956 11.692-53.531 11.693-108.684 40-13.436 6.975-22.77 19.911-9.333 12.936-9.333 28.141v30h263.282v17.652q0 9.8 3.692 18.268 3.692 8.467 9.538 14.335H143.333q-21.089 0-36.057-14.968-14.967-14.967-14.967-36.057v-29.274Zm313.537 30.044Zm-13.539-305.025q35.974 0 60.423-24.448 24.449-24.449 24.449-60.424 0-35.974-24.449-60.423-24.449-24.448-60.423-24.448-35.974 0-60.423 24.448-24.449 24.449-24.449 60.423 0 35.975 24.449 60.424 24.449 24.448 60.423 24.448Z"/></svg>