<svg xmlns="http://www.w3.org/2000/svg" height="40" viewBox="0 -960 960 960" width="40"><path d="M370.001-290.001q-78.769 0-134.384-55.615Q180.001-401.231 180.001-480q0-78.769 55.616-134.384 55.615-55.615 134.384-55.615 75.923 0 126.82 47.936 50.897 47.936 62.205 116.936h205.129l-68.616-68.617q-7.231-7.231-7.423-17.397-.193-10.166 7.628-17.73 7.615-7.616 17.691-7.616 10.077 0 17.692 7.616l106.949 106.948q4.948 4.949 7.179 10.231T847.486-480q0 6.41-2.231 11.692t-7.179 10.231L731.127-351.129q-7.23 7.231-17.525 7.423-10.294.192-17.858-7.423-7.821-7.564-7.821-17.538t7.821-17.794l68.411-68.412H559.026q-11.308 69-62.205 116.936-50.897 47.936-126.82 47.936Z"/></svg>