<svg xmlns="http://www.w3.org/2000/svg" height="40" viewBox="0 -960 960 960" width="40"><path d="M204.846-828.847q-9.205 33.001-14.333 67.091-5.128 34.09-5.128 69.141 0 63.257 18.782 122.757 18.782 59.5 53.833 111.885 4.974 7.204 4.974 15.602 0 8.397-6.384 14.781-5.718 5.718-13.859 4.257-8.141-1.462-13.115-8.923-39.641-57.769-60.91-123.769t-21.269-136.59q0-33.795 4.308-67.269 4.307-33.475 12.666-66.629l-63.128 62.718q-5.59 5.59-13.385 5.782-7.794.193-13.384-5.782-5.59-5.589-5.397-13.384.192-7.795 5.782-13.384l89.076-89.077q9.359-9.359 21.923-9.359 12.564 0 21.923 9.359l89.462 89.461q5.589 5.59 5.589 13.192 0 7.603-5.589 13.192-5.59 5.975-13.385 5.68-7.794-.295-13.384-5.68l-65.668-65.052Zm444.128 681.871q-19.205 7.231-40.102 6.526-20.897-.705-40.154-10.141L331.872-260.155q-9.743-4.769-13.654-14.667-3.91-9.897.039-20.051l.154-1.384q5.512-14.974 17.576-24.192t28.243-10.833l106.104-10.077-115.718-316.052q-4.051-10.256.603-19.204 4.654-8.949 14.91-12.743 9.999-4.052 19.153.474 9.154 4.525 13.205 14.782l124.256 339.691q5.41 14.512-3.077 27.576t-24 15.064l-97.951 8.385 188.49 87.591q9.615 4.436 20.68 4.667 11.064.231 21.064-3.077l148.204-54.205q39.026-14.026 56.578-51.372 17.551-37.347 3.525-76.373l-58.384-159.333q-4.051-10.256.282-19.282 4.333-9.025 14.589-13.076t19.41.282q9.153 4.333 13.205 14.589l57.718 159.334q21.846 59.153-4.116 114.999-25.961 55.846-85.115 77.307l-148.871 54.359Zm-117.769-451.87q10-4.051 18.948.602 8.949 4.654 13 14.654l47.846 131.359q4.051 9.462-.474 18.782-4.526 9.32-14.397 13.371-9.461 4.052-18.974-.871-9.512-4.923-13.564-14.385l-47.897-131.564q-4.051-10.257.602-19.077 4.654-8.82 14.91-12.871Zm126.026-3.333q10.256-3.795 19.204.538 8.949 4.333 12.743 14.589l34.513 93.309q4.052 9.871-.705 19.409-4.756 9.539-15.012 13.59-9.872 3.384-18.987-1-9.115-4.385-13.166-14.513l-33.846-93.693q-4.052-10.256.474-19.217 4.525-8.961 14.782-13.012Zm21.846 254Z"/></svg>