<svg xmlns="http://www.w3.org/2000/svg" height="40" viewBox="0 -960 960 960" width="40"><path d="M550.133-491.281q45.482 0 77.264-31.658 31.782-31.659 31.782-77.111 0-45.452-31.658-77.392-31.659-31.94-77.141-31.94-45.482 0-77.264 31.816-31.782 31.817-31.782 77.269 0 45.452 31.658 77.234 31.658 31.782 77.141 31.782Zm-247.825 199.64q46.564-55.23 111.103-86.666 64.538-31.436 136.845-31.436 72.308 0 136.846 31.436t111.102 86.666q5.001 0 8.27-3.654 3.27-3.654 3.27-8.654v-493.486q0-5.385-3.462-8.847-3.462-3.462-8.847-3.462H303.078q-5.385 0-8.847 3.462-3.462 3.462-3.462 8.847v493.486q0 5 3.27 8.654 3.269 3.654 8.269 3.654Zm.77 51.127q-25.609 0-44.086-18.478-18.478-18.477-18.478-44.086v-494.357q0-25.609 18.478-44.086 18.477-18.478 44.086-18.478h494.357q25.609 0 44.086 18.478 18.478 18.477 18.478 44.086v494.357q0 25.609-18.478 44.086-18.477 18.478-44.086 18.478H303.078ZM162.565-100.001q-25.609 0-44.086-18.478-18.478-18.477-18.478-44.086v-507.434q0-10.679 7.263-17.904 7.263-7.224 18-7.224 10.736 0 17.864 7.224 7.128 7.225 7.128 17.904v507.434q0 5.385 3.462 8.847 3.462 3.462 8.847 3.462h507.434q10.679 0 17.904 7.263 7.224 7.263 7.224 17.999 0 10.737-7.224 17.865-7.225 7.128-17.904 7.128H162.565Zm387.691-441.535q-24.231 0-41.449-17.218-17.218-17.219-17.218-41.578t17.218-41.577q17.218-17.219 41.449-17.219 24.231 0 41.45 17.219 17.218 17.218 17.218 41.577 0 24.359-17.218 41.578-17.219 17.218-41.45 17.218ZM376.973-290.769h346.823q-34.692-33.693-79.577-51.206-44.885-17.513-93.963-17.513-49.077 0-93.962 17.513-44.885 17.513-79.321 51.206Zm173.283-260.256Z"/></svg>