<svg xmlns="http://www.w3.org/2000/svg" height="40" viewBox="0 -960 960 960" width="40"><path d="M761.154-110.283 638.076-233.155l-88 88-26.717-26.974q-17.974-17.718-17.974-43.795 0-26.076 17.974-44.05l180.923-180.923q17.718-17.718 43.794-17.718 26.077 0 44.051 17.718l26.718 26.973-88 88 122.461 123.078q9.359 9.358 9.359 21.922t-9.359 21.923l-48.307 48.718q-9.359 9.615-21.923 9.615-12.564 0-21.922-9.615Zm98.845-622.179-447.436 447.82 24.334 24.283q17.718 17.974 17.718 44.051 0 26.076-17.718 43.794l-26.973 26.974-88-88-123.078 122.872q-9.358 9.615-21.922 9.615t-21.923-9.615l-48.718-48.717q-9.615-9.359-9.615-21.923 0-12.564 9.615-21.923l122.872-123.077-88-88 26.974-26.974Q185.847-459 211.924-459q26.076 0 44.05 17.718l24.668 24.719 447.82-447.436h131.537v131.537ZM327.231-575.82l30.384-30.565 30.436-30.769-30.436 30.769-30.384 30.565Zm-35.384 35.588-191.846-192.23v-131.537h131.537l191.461 191.846-34.948 34.999-177.256-176.59h-60.539v60.539L327.231-575.82l-35.384 35.588Zm84.512 219.591 433.385-432.564v-60.539h-60.539L315.82-381.436l60.539 60.795Zm0 0-29.974-30.821-30.565-29.974 30.565 29.974 29.974 30.821Z"/></svg>