<svg xmlns="http://www.w3.org/2000/svg" height="40" viewBox="0 -960 960 960" width="40"><path d="M734.357-625.127v-49.488q0-35.641 23.364-59.103 23.364-23.461 59.201-23.461 35.73 0 59.019 23.461 23.288 23.462 23.288 59.103v49.488H734.357Zm-673.586 0v-49.488q0-35.641 23.364-59.103 23.363-23.461 59.2-23.461 35.731 0 59.019 23.461 23.289 23.462 23.289 59.103v49.488H60.771Zm0 434.101v-403.589h164.872v453.844H111.026q-20.519 0-35.387-14.868-14.868-14.868-14.868-35.387Zm195.384 50.255v-483.074l191.897-161.513q6.839-5.754 14.839-8.915 8-3.161 17.138-3.161 9.137 0 17.109 3.161 7.971 3.161 14.81 8.915l191.897 161.513v483.074H585.127q-13.294 0-22.288-8.993-8.993-8.994-8.993-22.289v-147.794q0-32.435-20.782-53.217-20.782-20.782-53.064-20.782t-53.064 20.782q-20.782 20.782-20.782 53.217v147.794q0 13.295-8.993 22.289-8.994 8.993-22.288 8.993H256.155Zm478.202 0v-453.844h164.872v403.589q0 20.519-14.868 35.387-14.868 14.868-35.387 14.868H734.357ZM480.084-510.257q20.762 0 35.339-14.533 14.576-14.533 14.576-35.295 0-20.761-14.706-35.338-14.707-14.576-35.468-14.576-20.761 0-35.165 14.706-14.403 14.707-14.403 35.468 0 20.761 14.533 35.165 14.533 14.403 35.294 14.403Z"/></svg>