<svg xmlns="http://www.w3.org/2000/svg" height="40" viewBox="0 -960 960 960" width="40"><path d="M809.258-168.103H646.769q-10.846 0-17.986-7.146-7.141-7.146-7.141-18 0-10.853 7.141-17.981 7.14-7.128 17.986-7.128h162.489l-60.129-61.566q-6.821-7.23-6.962-17.345-.141-10.115 7.295-17.72 7.102-7.164 17.435-7.164 10.333 0 17.564 7.23l99.384 99.769q9.359 9.406 9.359 21.947 0 12.54-9.359 21.899l-99.769 99.769q-7.23 7.23-17.397 7.14-10.166-.089-17.668-7.591-7.164-7.164-6.959-17.24.205-10.077 7.025-17.308l60.181-61.565Zm-354.385-286.77v139.745q0 10.846 7.146 17.986 7.145 7.141 17.999 7.141 10.853 0 17.981-7.141 7.128-7.14 7.128-17.986v-139.745h139.745q10.846 0 17.986-7.146 7.141-7.145 7.141-17.999 0-10.853-7.141-17.981-7.14-7.128-17.986-7.128H505.127v-139.745q0-10.846-7.146-17.986-7.145-7.141-17.999-7.141-10.853 0-17.981 7.141-7.128 7.14-7.128 17.986v139.745H315.128q-10.846 0-17.986 7.146-7.141 7.145-7.141 17.999 0 10.853 7.141 17.981 7.14 7.128 17.986 7.128h139.745ZM202.565-140.001q-25.788 0-44.176-18.388t-18.388-44.176v-554.87q0-25.788 18.388-44.176t44.176-18.388h554.87q25.788 0 44.176 18.388t18.388 44.176v354.358q-13.142-3.615-26.578-5.756-13.437-2.141-27.267-2.141-90.442 0-153.785 65.026-63.343 65.025-63.343 155.692.41 13.185 2.346 25.877 1.936 12.692 5.551 24.378H202.565Z"/></svg>