<svg xmlns="http://www.w3.org/2000/svg" height="40" viewBox="0 -960 960 960" width="40"><path d="M545.127-130.001q-10.679 0-17.903-7.263Q520-144.527 520-155.263q0-10.737 7.224-17.865 7.224-7.128 17.903-7.128h249.744q10.679 0 17.903 7.263 7.225 7.263 7.225 18 0 10.736-7.225 17.864-7.224 7.128-17.903 7.128H545.127Zm-330.665-455.64h169.129v-171.794q0-5.385-3.462-8.847-3.462-3.462-8.847-3.462h-68.563q-3.846 0-6.731 1.924-2.885 1.923-4.423 5.385l-77.103 176.794Zm455.402 350q-10.736 0-17.864-7.225-7.128-7.224-7.128-17.903v-377.692q0-23.167-15.853-39.02-15.853-15.853-39.02-15.853H433.846v126.667q0 13.294-8.994 22.288-8.993 8.993-22.288 8.993H185.515q-17.55 0-26.826-14.038t-2.122-29.808l88.999-203.331q7.897-17.513 23.216-27.474 15.32-9.962 33.937-9.962h68.563q25.649 0 43.914 18.138t18.65 43.657v14.615h156.153q43.803 0 74.466 30.662 30.662 30.663 30.662 74.466v377.692q0 10.679-7.263 17.903-7.263 7.225-18 7.225Zm-455.402-350h169.129-169.129Z"/></svg>