<svg xmlns="http://www.w3.org/2000/svg" height="40" viewBox="0 -960 960 960" width="40"><path d="M362.565-140.001q-25.609 0-44.086-18.478-18.478-18.477-18.478-44.086v-394.87q0-25.609 18.478-44.086 18.477-18.478 44.086-18.478h394.87q25.609 0 44.086 18.478 18.478 18.477 18.478 44.086v394.87q0 25.609-18.478 44.086-18.477 18.478-44.086 18.478h-394.87Zm30.973-363.947h332.924q18.045 0 30.663-12.609 12.619-12.61 12.619-30.641v-19.232q0-18.032-12.619-30.673-12.618-12.641-30.663-12.641H393.538q-18.045 0-30.663 12.61-12.619 12.609-12.619 30.641v19.232q0 18.031 12.619 30.672 12.618 12.641 30.663 12.641Zm112.769 157.641h107.386v-107.386H506.307v107.386Zm0 156.051h107.386v-105.796H506.307v105.796ZM350.256-346.307h105.796v-107.386H350.256v107.386Zm313.692 0h105.796v-107.386H663.948v107.386ZM362.565-190.256h93.487v-105.796H350.256v93.487q0 5.385 3.462 8.847 3.462 3.462 8.847 3.462Zm301.383 0h93.487q5.385 0 8.847-3.462 3.462-3.462 3.462-8.847v-93.487H663.948v105.796ZM202.565-300.001q-25.609 0-44.086-18.478-18.478-18.477-18.478-44.086v-394.87q0-25.609 18.478-44.086 18.477-18.478 44.086-18.478h394.87q25.609 0 44.086 18.478 18.478 18.477 18.478 44.086v62.308h-50.255v-62.308q0-5.385-3.462-8.847-3.462-3.462-8.847-3.462h-394.87q-5.385 0-8.847 3.462-3.462 3.462-3.462 8.847v394.87q0 5.385 3.462 8.847 3.462 3.462 8.847 3.462h62.308v50.255h-62.308Z"/></svg>