<svg xmlns="http://www.w3.org/2000/svg" height="40" viewBox="0 -960 960 960" width="40"><path d="M528.152-559.232q-10.679 0-17.904-7.263-7.224-7.263-7.224-17.999 0-10.737 7.224-17.865 7.225-7.128 17.904-7.128h161.283q10.679 0 17.903 7.263 7.225 7.263 7.225 18 0 10.736-7.225 17.864-7.224 7.128-17.903 7.128H528.152Zm0-135.897q-10.679 0-17.904-7.263-7.224-7.263-7.224-17.999 0-10.737 7.224-17.865 7.225-7.128 17.904-7.128H794.82q10.679 0 17.903 7.263 7.224 7.263 7.224 18 0 10.736-7.224 17.864t-17.903 7.128H528.152Zm-216.72 554.717q-71.22 0-121.274-50.003t-50.054-121.329q0-45.04 22.487-84.391 22.488-39.352 62.385-64.428v-272.976q0-36.452 25.026-61.456 25.026-25.004 61.217-25.004t61.306 25.004q25.115 25.004 25.115 61.456v272.976q39.897 25.076 62.384 64.428 22.488 39.351 22.488 84.391 0 71.326-49.93 121.329-49.929 50.003-121.15 50.003ZM190.359-311.744h241.898q0-34.666-17.411-64.192-17.41-29.526-48.077-47.346l-19.384-11.436v-298.821q0-15.246-10.48-25.725-10.479-10.48-25.597-10.48-15.118 0-25.598 10.48-10.479 10.479-10.479 25.725v298.821l-19.128 11.436q-30.923 17.82-48.333 47.551-17.411 29.731-17.411 63.987Z"/></svg>