<svg xmlns="http://www.w3.org/2000/svg" height="40" viewBox="0 -960 960 960" width="40"><path d="M415.539-217.694H210.256q-13.632 0-23.097-9.52-9.465-9.52-9.465-23.229 0-13.71 9.465-23.043 9.465-9.333 23.097-9.333h205.283q5.385 0 8.847-3.462 3.461-3.462 3.461-8.847v-140.001q0-5.385-3.461-8.846-3.462-3.462-8.847-3.462H211.333q-13.632 0-23.097-9.52-9.465-9.52-9.465-23.23t9.465-23.043q9.465-9.333 23.097-9.333h204.206q5.385 0 8.847-3.462 3.461-3.461 3.461-8.846v-140.001q0-5.385-3.461-8.847-3.462-3.462-8.847-3.462H210.256q-13.632 0-23.097-9.52-9.465-9.52-9.465-23.23t9.465-23.042q9.465-9.333 23.097-9.333h205.283q32.264 0 54.849 22.585 22.585 22.585 22.585 54.849v125.745q0 24.589-15.743 42.397-15.743 17.807-38.948 17.807 23.205 0 38.948 17.017 15.743 17.016 15.743 40.776v126.002q0 32.264-22.585 54.849-22.585 22.585-54.849 22.585Zm368.717 0H627.435q-10.698 0-17.913-7.249-7.214-7.249-7.214-18 0-10.75 7.214-17.878 7.215-7.128 17.913-7.128h144.617v-74.616H640.358q-15.41 0-26.73-11.321-11.32-11.32-11.32-26.73v-99.026q0-15.41 11.32-26.73t26.73-11.32h156.821q10.698 0 17.913 7.249 7.214 7.25 7.214 18t-7.214 17.878q-7.215 7.128-17.913 7.128H652.563v74.617h131.693q15.41 0 26.73 11.32t11.32 26.73v99.026q0 15.41-11.32 26.73t-26.73 11.32Z"/></svg>