<svg xmlns="http://www.w3.org/2000/svg" height="40" viewBox="0 -960 960 960" width="40"><path d="M575.588-219.694 535.46-115.873q-2.564 6.821-9.038 11.346-6.475 4.526-14.038 4.526-13.231 0-20.897-10.962-7.667-10.961-2.41-23.396l159.256-407.59q3.18-8.308 10.282-13.179Q665.717-560 674.23-560h21.897q8.256 0 15.487 4.872 7.23 4.871 10.41 13.179L881.28-134.411q5.257 12.487-2.307 23.448-7.564 10.962-20.795 10.962-8.435 0-14.807-4.526-6.372-4.525-9.141-11.961l-40.128-103.206H575.588Zm-215.87-196.692-180.565 180.59q-7.487 6.949-17.653 7.257-10.166.307-17.73-7.257-7.615-7.615-7.615-17.691 0-10.077 7.615-17.692l180.821-181.206q-42.462-43.666-76.629-96.41t-51.346-100.949h54.281q15.41 38.205 43.807 80.873 28.398 42.667 65.68 80.692 48.976-50.18 88.668-116.603 39.693-66.423 54.718-124.962H92.822q-10.872 0-18-7.128t-7.128-17.999q0-10.872 7.128-18t18-7.128h242.051v-39.486q0-10.872 7.128-18T360-844.613q10.871 0 17.999 7.128 7.128 7.128 7.128 18v39.486h242.051q10.872 0 18 7.128t7.128 18q0 10.871-7.128 17.999-7.128 7.128-18 7.128h-71.307q-17.564 70.359-61.423 146.628-43.859 76.269-98.936 131.552l101.666 104.051-19.717 52.281-117.743-121.154Zm233.203 151.052h183.848L684.973-504.95l-92.052 239.616Z"/></svg>