<svg xmlns="http://www.w3.org/2000/svg" height="40" viewBox="0 -960 960 960" width="40"><path d="M100.001-480q0-78.769 29.962-148.115 29.961-69.346 81.269-120.653 51.307-51.308 120.653-81.269Q401.231-859.999 480-859.999q136.539 0 239.154 83.552 102.615 83.552 131.025 211.552 2.538 10.769-3.488 19.551-6.025 8.782-16.739 9.681-10.927.28-19.285-6.758-8.359-7.039-11.359-17.68-18.102-76.795-69.615-137.219Q678.18-757.743 603.385-788v17.846q0 34.077-23.705 58.731-23.706 24.654-57.783 24.654h-83.384v83.384q0 16.717-12.449 28.154-12.449 11.436-29.449 11.436h-81.487V-480h60.257q13.397 0 22.339 8.942 8.942 8.942 8.942 22.34v91.026h-50.051L158.667-555.385q-3.821 18.821-6.116 37.676-2.295 18.854-2.295 37.709 0 127.039 83.949 220.968 83.949 93.93 210.924 106.468 10.424 1.017 17.237 8.79 6.813 7.774 6.813 18.568 0 10.538-7.811 17.333-7.812 6.795-18.675 5.564-145.051-14.231-243.871-121.679Q100.001-331.436 100.001-480Zm727.743 343.128L709.461-253.976Q690-240.104 667.205-232.489q-22.795 7.616-46.915 7.616-64.778 0-110.098-45.258-45.319-45.257-45.319-109.947 0-64.691 45.258-109.87 45.257-45.179 109.947-45.179 64.691 0 109.87 45.319 45.179 45.32 45.179 110.098 0 24.505-8.013 47.492t-21.859 42.859l117.873 117.103q7.615 7.231 7.82 17.499.205 10.269-7.41 17.885-7.231 7.23-17.705 7.23-10.474 0-18.089-7.23ZM619.906-275.128q43.991 0 74.479-30.393 30.487-30.394 30.487-74.385 0-43.991-30.393-74.479-30.394-30.487-74.385-30.487-43.991 0-74.479 30.393-30.487 30.394-30.487 74.385 0 43.991 30.393 74.479 30.394 30.487 74.385 30.487Z"/></svg>