<svg xmlns="http://www.w3.org/2000/svg" height="40" viewBox="0 -960 960 960" width="40"><path d="M846.717-246.746 273.464-819.999h523.971q25.846 0 44.205 18.359 18.359 18.359 18.359 44.205v473.383q0 10.692-3.641 20.102t-9.641 17.204ZM174.72-819.076v71.588l-99.385-99.385q-7.23-7.231-7.09-17.705.141-10.474 7.757-18.089 7.358-7.615 17.435-7.615 10.077 0 17.692 7.615l741.743 741.076q7.23 7.231 7.423 17.5.192 10.268-7.423 17.884-7.615 7.615-17.897 7.615-10.282 0-17.897-7.615L702.874-220.001h-86.978v48.718q0 13.564-8.859 22.423-8.859 8.859-22.423 8.859H376.155q-13.564 0-22.423-8.859-8.859-8.859-8.859-22.423v-48.718H162.565q-25.846 0-44.205-18.359-18.359-18.359-18.359-44.205v-474.87q0-26.41 18.564-44.025 18.564-17.616 39.796-17.616h16.359Z"/></svg>