<svg xmlns="http://www.w3.org/2000/svg" height="40" viewBox="0 -960 960 960" width="40"><path d="M158.513-210.001q-61.487 0-105-43.179-43.512-43.179-43.512-105.333 0-60.82 41.795-103.769 41.795-42.948 102.461-44.179h14.617l-55.027-44.565H31.539q-9.487 0-15.513-6.026-6.025-6.025-6.025-15.512 0-9.231 6.025-15.256 6.026-6.026 15.513-6.026h139.64l108.052 64.616 151.333-56.564q5.411-2.257 10.962-3.231 5.551-.974 11.166-.974H593.13l-82.155-105.13q-1.667-2.308-4.295-3.461-2.629-1.154-5.706-1.154h-59.897q-10.872 0-18-7.128t-7.128-18q0-10.871 7.128-17.999 7.128-7.128 18-7.128h60.743q14.513 0 27.577 6.256 13.064 6.256 21.423 17.872l61.487 79.205 101.846-44.154q8.154-3.435 15.154 1.18 6.999 4.615 6.999 12.718v47.716q0 6.154-4.679 10.834-4.679 4.679-11.09 4.679h-82.282l95.129 122.463q15.821-7.949 32.834-11.667 17.013-3.718 34.859-3.718 61.897 0 105.41 43.308Q949.999-420 949.999-358.103q0 62.154-43.512 105.128-43.513 42.974-105.41 42.974-61.743 0-104.923-43.179-43.179-43.179-43.179-104.923 0-29 10.475-55.179 10.474-26.18 30.5-47.026l-41.027-52.616-135.359 206.462q-5 6.154-11.487 10.359-6.488 4.205-14.641 4.205h-77.923q-5.615 0-11-1.91-5.384-1.911-10-6.116l-85.488-75.001v17.694q-.513 61.538-43.615 104.384-43.103 42.846-104.897 42.846Zm0-50.255q41.41 0 69.834-28.756 28.423-28.757 28.423-69.501 0-41-28.423-69.629-28.424-28.628-69.834-28.628-40.744 0-69.5 28.423-28.757 28.424-28.757 69.834 0 41.411 28.756 69.834 28.757 28.423 69.501 28.423Zm642.564 0q41.154 0 69.911-28.423 28.756-28.423 28.756-69.424 0-41.41-28.756-70.039-28.757-28.628-69.911-28.628-41 0-69.424 28.628-28.423 28.629-28.423 70.039 0 41.001 28.423 69.424 28.424 28.423 69.424 28.423Z"/></svg>