<svg xmlns="http://www.w3.org/2000/svg" height="40" viewBox="0 -960 960 960" width="40"><path d="M860.768-186.924v-586.152 586.152ZM99.232-598.153v-174.923h168.769v174.923H99.232Zm199.282 0v-174.923h166.358v174.923H298.514Zm196.87 0v-174.923h166.102v174.923H495.384Zm196.615 0v-174.923h168.769v174.923H691.999Zm0 205.794v-175.282h168.769v175.282H691.999Zm-196.615 0v-175.282h166.102v175.282H495.384Zm-196.87 0v-175.282h166.358v175.282H298.514Zm-199.282 0v-175.282h168.769v175.282H99.232ZM692-186.924v-174.923h168.769v174.923H691.999Zm-196.615 0v-174.923h166.102v174.923H495.384Zm-196.87 0v-174.923h166.358v174.923H298.514Zm-199.282 0v-174.923h168.769v174.923H99.232Z"/></svg>