<svg xmlns="http://www.w3.org/2000/svg" height="40" viewBox="0 -960 960 960" width="40"><path d="m447.641-181.154-207.435-121q-14.459-8.92-22.537-23.365-8.079-14.444-8.079-30.84v-241.59q0-16.396 8.079-30.84 8.078-14.444 22.537-23.364L448.308-774.23q14.895-8.359 31.755-8.359t31.629 8.359l208.102 122.077q14.459 8.92 22.537 23.364 8.079 14.444 8.079 30.84v241.59q0 16.396-8.125 30.84-8.125 14.445-23.157 23.365l-208.923 121q-15.114 8.615-31.454 8.615-16.341 0-31.11-8.615ZM124.994-660.155q-10.737 0-17.865-7.224-7.128-7.224-7.128-17.903v-112.153q0-25.609 18.478-44.086 18.477-18.478 44.086-18.478h112.153q10.679 0 17.903 7.263 7.224 7.263 7.224 18 0 10.736-7.224 17.864t-17.903 7.128H162.565q-5.385 0-8.847 3.462-3.462 3.462-3.462 8.847v112.153q0 10.679-7.263 17.903-7.263 7.224-17.999 7.224Zm37.571 560.154q-25.609 0-44.086-18.478-18.478-18.477-18.478-44.086v-112.153q0-10.679 7.263-17.903 7.263-7.224 18-7.224 10.736 0 17.864 7.224t7.128 17.903v112.153q0 5.385 3.462 8.847 3.462 3.462 8.847 3.462h112.153q10.679 0 17.903 7.263 7.224 7.263 7.224 17.999 0 10.737-7.224 17.865-7.224 7.128-17.903 7.128H162.565Zm634.87 0H685.282q-10.679 0-17.903-7.263-7.224-7.263-7.224-18 0-10.736 7.224-17.864t17.903-7.128h112.153q5.385 0 8.847-3.462 3.462-3.462 3.462-8.847v-112.153q0-10.679 7.263-17.903 7.263-7.224 17.999-7.224 10.737 0 17.865 7.224 7.128 7.224 7.128 17.903v112.153q0 25.609-18.478 44.086-18.477 18.478-44.086 18.478Zm12.309-585.281v-112.153q0-5.385-3.462-8.847-3.462-3.462-8.847-3.462H685.282q-10.679 0-17.903-7.263-7.224-7.263-7.224-17.999 0-10.737 7.224-17.865 7.224-7.128 17.903-7.128h112.153q25.609 0 44.086 18.478 18.478 18.477 18.478 44.086v112.153q0 10.679-7.263 17.903-7.263 7.224-18 7.224-10.736 0-17.864-7.224t-7.128-17.903ZM285.537-620.41l-25.281 15.128v30.563l194.617 111.231v228.105L480-220.46l25.127-14.923v-228.105l195.028-111.231v-30.563l-25.692-15.128L480-507.743 285.537-620.41Z"/></svg>