<svg xmlns="http://www.w3.org/2000/svg" height="40" viewBox="0 -960 960 960" width="40"><path d="M280-421.335q24.5 0 41.583-17.082Q338.665-455.5 338.665-480t-17.082-41.583Q304.5-538.666 280-538.666t-41.583 17.083Q221.334-504.5 221.334-480t17.083 41.583Q255.5-421.335 280-421.335Zm0 161.334q-91.666 0-155.832-64.14-64.167-64.14-64.167-155.768 0-91.629 64.167-155.859Q188.334-699.999 280-699.999q79.461 0 135.858 46.231 56.398 46.231 75.918 112.538H741.64v281.229h-26.563q-13.045 0-22.164-8.994-9.118-8.993-9.118-22.288V-418.77H491.649q-19.393 66.307-75.791 112.538Q359.461-260.001 280-260.001Zm579.126 4.615q-12.435 0-21.037-8.706-8.603-8.706-8.603-21.14 0-12.435 8.706-21.038 8.706-8.602 21.141-8.602 12.435 0 21.037 8.706 8.602 8.706 8.602 21.141 0 12.434-8.706 21.037-8.705 8.602-21.14 8.602Zm-.032-118.972q-10.736 0-17.864-7.225-7.128-7.224-7.128-17.903v-147.129q0-10.679 7.263-17.903 7.263-7.224 17.999-7.224 10.737 0 17.865 7.224 7.128 7.224 7.128 17.903v147.129q0 10.679-7.263 17.903-7.263 7.225-18 7.225Z"/></svg>