<svg xmlns="http://www.w3.org/2000/svg" height="40" viewBox="0 -960 960 960" width="40"><path d="M480.41-100.001q-79.358 0-148.704-29.564t-120.961-80.974q-51.616-51.411-81.18-120.756Q100.001-400.641 100.001-480q0-79.564 29.564-148.807t80.641-120.654q51.077-51.41 119.807-80.974 68.731-29.564 146.602-29.564 38.103 0 75.782 6.783 37.68 6.782 64.116 16.859v66.613q0 33.411-24.859 58.398-24.859 24.987-58.526 24.987h-96.513v80q0 17.82-12.577 30.397-12.577 12.577-30.397 12.577h-80V-480H560q18.487 0 30.936 12.577 12.449 12.577 12.449 30.808v123.384h40q28.077 0 49.525 16 21.449 16 29.449 41.077 41.974-46.615 64.68-103.397 22.705-56.782 22.705-118.552 0-12.897-.616-28.051-.615-15.154-2.615-26.974h50.409q2 10.333 2.538 24.333.539 14 .539 28.385 0 79.358-29.564 148.909-29.564 69.551-80.974 120.962-51.411 51.41-120.449 80.974-69.038 29.564-148.602 29.564Zm-43.795-48.871v-84.359q-33 0-56.5-23.5t-23.5-56.5v-40L157.846-552q-3.667 20.564-5.628 36.744-1.962 16.179-1.962 33.769 0 128.359 81.654 222.243 81.654 93.885 204.705 110.372Zm281.436-454.513q-13.308 0-22.295-8.859-8.987-8.858-8.987-22.422v-131.18q0-13.564 8.987-22.423 8.987-8.859 22.295-8.859h11.693v-40q0-31.461 21.551-53.627 21.551-22.167 52.346-22.167 31.051 0 52.474 22.167 21.423 22.166 21.423 53.627v40h12.103q13.564 0 22.423 8.859 8.858 8.859 8.858 22.423v131.18q0 13.564-8.858 22.422-8.859 8.859-22.423 8.859h-171.59Zm44.103-193.743h82.974v-40q0-17.82-11.833-30.602-11.834-12.782-29.654-12.782-17.821 0-29.654 12.782-11.833 12.782-11.833 30.602v40Z"/></svg>