<svg xmlns="http://www.w3.org/2000/svg" height="40" viewBox="0 -960 960 960" width="40"><path d="M207.302-100.001q-10.737 0-17.865-7.225-7.128-7.224-7.128-17.903v-684.615h-54.872q-10.442 0-17.785-7.346-7.343-7.347-7.343-18 0-10.653 7.343-17.781 7.343-7.128 17.785-7.128h73.655q13.581 0 22.527 8.994 8.945 8.993 8.945 22.288v703.588q0 10.679-7.263 17.903-7.263 7.225-17.999 7.225Zm152.955 0q-25.609 0-44.086-18.478-18.477-18.477-18.477-44.086v-634.87q0-25.609 18.477-44.086 18.477-18.478 44.086-18.478h354.87q25.609 0 44.086 18.478 18.478 18.477 18.478 44.086v634.87q0 25.609-18.478 44.086-18.477 18.478-44.086 18.478h-354.87Zm-12.308-406.843q17.923-16.026 40.706-24.59 22.784-8.565 49.037-8.565h200q26.253 0 49.037 8.565 22.784 8.564 40.707 24.59v-290.591q0-5.385-3.462-8.847-3.462-3.462-8.847-3.462h-354.87q-5.385 0-8.847 3.462-3.461 3.462-3.461 8.847v290.591Zm189.664-98.028q-27.177 0-46.113-19.015-18.935-19.015-18.935-46.192 0-27.176 19.015-46.112 19.015-18.936 46.192-18.936 27.176 0 46.112 19.015 18.936 19.015 18.936 46.192t-19.015 46.113q-19.016 18.935-46.192 18.935Zm-25.048 309.999V-240q0 10.679 7.263 17.903 7.263 7.224 17.999 7.224 10.737 0 17.865-7.224 7.128-7.224 7.128-17.903v-54.873h54.872q10.679 0 17.903-7.262 7.225-7.263 7.225-18 0-10.736-7.225-17.864-7.224-7.128-17.903-7.128H562.82V-400q0-10.679-7.263-17.903-7.263-7.224-18-7.224-10.736 0-17.864 7.224T512.565-400v54.873h-54.873q-10.679 0-17.903 7.262-7.224 7.263-7.224 18 0 10.736 7.224 17.864t17.903 7.128h54.873Z"/></svg>