<svg xmlns="http://www.w3.org/2000/svg" height="40" viewBox="0 -960 960 960" width="40"><path d="M480.079-383.617q27.177 0 46.113-18.991 18.935-18.992 18.935-46.136 0-19.487-6.807-35.371-6.808-15.885-29.243-49.141l-16.308-24.205q-5.333-7.153-13.025-7.153-7.693 0-12.641 7.153l-16.556 24.027q-22.444 34.46-29.059 49.614-6.615 15.153-6.615 35.233 0 26.8 19.015 45.885 19.015 19.085 46.191 19.085Zm-.12 145.155q-100.497 0-170.997-70.541-70.5-70.541-70.5-171.038 0-100.497 70.541-170.997 70.541-70.5 171.038-70.5 100.497 0 170.997 70.541 70.5 70.541 70.5 171.038 0 100.497-70.541 170.997-70.541 70.5-171.038 70.5Zm359.784-281.282v-10.257h-75.822q-11.538-68.384-52.73-123.921-41.192-55.538-104.345-86.077h232.897v-10.256q0-10.68 7.263-17.904t17.999-7.224q10.737 0 17.865 7.224 7.128 7.224 7.128 17.904v230.511q0 10.679-7.263 17.903-7.263 7.225-18 7.225-10.531 0-16.249-8.096-5.718-8.096-8.743-17.032ZM70.003-209.745v-230.511q0-10.679 7.262-17.903 7.263-7.225 18-7.225 10.736 0 17.864 7.225 7.128 7.224 7.128 17.903v10.257h75.822q11.538 68.384 52.73 123.921 41.192 55.538 104.345 86.077H120.257v10.256q0 10.68-7.263 17.904t-18 7.224q-10.736 0-17.864-7.224t-7.128-17.904Z"/></svg>