<svg xmlns="http://www.w3.org/2000/svg" height="40" viewBox="0 -960 960 960" width="40"><path d="M277.692-242.105q-52.436 0-83.333 25.949-30.898 25.949-78.641 36.846-10.461 2.616-18.09-3.679-7.627-6.295-7.627-16.782 0-10.871 7.32-18.743 7.32-7.871 18.192-11.717 39.538-13.308 70.372-37.257 30.833-23.949 91.807-23.949 35.026 0 59.885 10.526 24.859 10.526 46.641 23.257 21.782 12.73 44.09 23.294 22.307 10.565 51.692 10.565t51.692-10.565q22.308-10.564 44.09-23.294 21.782-12.731 46.808-23.257 25.026-10.526 59.974-10.526 60.718 0 91.013 23.949t70.5 37.257q10.871 3.846 18.397 11.512 7.525 7.667 7.525 18.948 0 10.487-7.833 16.782t-18.294 3.679q-47.744-10.897-78.436-36.846-30.692-25.949-82.872-25.949-29.077 0-51.487 10.526t-44.218 23.128q-21.808 12.603-46.923 23.295Q514.82-174.464 480-174.464t-59.936-10.692q-25.115-10.692-46.923-23.295-21.808-12.602-44.051-23.128-22.244-10.526-51.398-10.526Zm0-164.871q-52.436 0-83.333 26.077-30.898 26.077-78.641 36.975-10.461 2.615-18.09-3.808-7.627-6.423-7.627-16.91 0-10.871 7.32-18.743 7.32-7.871 18.192-11.717 39.538-13.308 70.372-37.128 30.833-23.821 91.807-23.821 35.026 0 59.885 10.526 24.859 10.525 46.641 23.128 21.782 12.602 44.09 23.295Q450.615-388.41 480-388.41t51.692-10.692q22.308-10.693 44.09-23.295Q597.564-435 622.59-445.525q25.026-10.526 59.974-10.526 60.718 0 91.013 23.821 30.295 23.82 70.5 37.128 10.871 3.846 18.397 11.512 7.525 7.667 7.525 18.948 0 10.077-8.166 16.372-8.167 6.294-17.961 3.935-47.744-11.974-78.436-37.307-30.692-25.334-82.872-25.334-29.282 0-51.487 10.526-22.205 10.526-44.09 23.257-21.885 12.73-47.026 23.423Q514.82-339.078 480-339.078t-59.936-10.692q-25.115-10.693-46.923-23.423-21.808-12.731-44.051-23.257-22.244-10.526-51.398-10.526Zm0-164.614q-52.436 0-83.333 25.949-30.898 25.948-78.641 37.102-10.461 2.359-18.09-3.935-7.627-6.295-7.627-16.782 0-10.872 7.525-18.333 7.526-7.461 17.987-11.051 39.538-12.487 70.372-37.384 30.833-24.898 91.807-24.898 35.026 0 59.885 10.526 24.859 10.525 46.641 23.256 21.782 12.731 44.09 23.423 22.307 10.693 51.692 10.693t51.692-10.693q22.308-10.692 44.09-23.423 21.782-12.731 46.808-23.256 25.026-10.526 59.974-10.526 60.718 0 91.013 24.898 30.295 24.897 70.5 37.384 10.871 3.59 18.397 11.051 7.525 7.461 7.525 18.333 0 10.487-7.833 16.782-7.833 6.294-18.294 3.935-47.744-11.154-78.436-37.102-30.692-25.949-82.872-25.949-29.077 0-51.487 10.526-22.41 10.525-44.218 23.128-21.808 12.602-46.923 23.295Q514.82-503.949 480-503.949t-59.936-10.692q-25.115-10.693-46.923-23.295-21.808-12.603-44.051-23.128-22.244-10.526-51.398-10.526Zm0-164.615q-52.436 0-83.333 25.949-30.898 25.949-78.641 36.846-10.461 2.616-18.09-3.679-7.627-6.295-7.627-17.038 0-10.615 7.32-18.615 7.32-8 18.192-11.589 39.538-13.564 70.372-37.385 30.833-23.82 91.807-23.82 35.026 0 59.885 10.525 24.859 10.526 46.641 23.128 21.782 12.603 44.09 23.295 22.307 10.693 51.692 10.693t51.692-10.693q22.308-10.692 44.09-23.295 21.782-12.602 46.808-23.128 25.026-10.525 59.974-10.525 60.718 0 91.013 23.82 30.295 23.821 70.5 37.385 10.871 3.589 18.397 11.256 7.525 7.666 7.525 18.948 0 10.743-7.833 17.038t-18.294 3.679q-47.744-10.897-78.436-36.846-30.692-25.949-82.872-25.949-29.077 0-51.487 10.398-22.41 10.397-44.218 23.128-21.808 12.731-46.923 23.423Q514.82-668.563 480-668.563t-59.936-10.693q-25.115-10.692-46.923-23.423-21.808-12.731-44.051-23.128-22.244-10.398-51.398-10.398Z"/></svg>