<svg xmlns="http://www.w3.org/2000/svg" height="40" viewBox="0 -960 960 960" width="40"><path d="M162.565-180.001q-25.705 0-44.134-18.43-18.43-18.429-18.43-44.134v-474.87q0-25.705 18.43-44.134 18.429-18.43 44.134-18.43h17.436v71.998L68.309-819.95q-7.436-7.223-7.628-17.701-.192-10.477 7.663-18.041 7.856-7.82 18-7.82t17.964 7.82l752.257 752.257Q864-96 864.193-85.808q.192 10.192-7.664 17.756-7.599 7.82-17.871 7.82-10.272 0-17.836-7.82L708.001-180H162.565Zm0-50.255h495.181l-417.334-417.59h-90.156v405.281q0 5.385 3.462 8.847 3.462 3.462 8.847 3.462Zm686.998 20.383-39.819-40.076v-397.897H411.846L279.694-779.999h517.741q25.705 0 44.134 18.43 18.43 18.429 18.43 44.134v474.979q0 8.763-2.757 17.122-2.756 8.358-7.679 15.461Z"/></svg>