<svg xmlns="http://www.w3.org/2000/svg" height="40" viewBox="0 -960 960 960" width="40"><path d="M156.205-669.024q0-39.444 27.303-66.747 27.303-27.303 66.747-27.303h459.49q39.444 0 66.747 27.303 27.303 27.303 27.303 66.747v73.794q40.845-2.308 68.524 22.397 27.68 24.705 27.68 65.96v222.052q0 39.444-27.303 66.747-27.303 27.303-66.747 27.303H154.051q-39.444 0-66.747-27.303-27.303-27.303-27.303-66.747v-222.052q0-41.255 27.885-65.96 27.884-24.705 68.319-22.397v-73.794Zm50.255 0v94.306q15.846 12.051 25.487 28.128 9.641 16.077 9.641 39.717v111.386h476.824v-111.386q0-23.64 9.641-39.717 9.641-16.077 25.487-28.128v-94.306q0-19.013-12.391-31.404-12.391-12.391-31.404-12.391h-459.49q-19.013 0-31.404 12.391-12.391 12.391-12.391 31.404Zm562.207 323.792H191.333v-161.604q0-9.114-2.795-16.485-2.794-7.372-8.294-12.872t-13-8.295q-7.5-2.795-16.239-2.795-18.569 0-29.659 11.09t-11.09 29.4v221.999q0 18.87 12.391 31.319 12.391 12.449 31.404 12.449h651.898q19.013 0 31.404-12.391 12.391-12.391 12.391-31.297v-222.072q0-18.317-11.09-29.407t-29.659-11.09q-8.739 0-16.239 2.795t-12.912 8.295q-5.413 5.5-8.295 12.833-2.882 7.332-2.882 16.487v161.641Zm-288.667 0Zm0 104.206Zm0-154.461Z"/></svg>