<svg xmlns="http://www.w3.org/2000/svg" height="40" viewBox="0 -960 960 960" width="40"><path d="M236.539-182.539q-7.82 7.82-19.025 7.436-11.205-.385-18.154-8.821-46.487-51.487-72.923-116.307T100.001-440q0-78.769 29.962-148.115 29.961-69.346 81.269-120.653 51.307-51.308 120.653-81.269Q401.231-819.999 480-819.999t148.115 29.962q69.346 29.961 120.653 81.269 51.308 51.307 81.269 120.653Q859.999-518.769 859.999-440q0 74.564-26.436 139.577-26.436 65.012-72.923 116.499-7.205 8.436-18.308 9.128-11.102.693-18.666-7.128-7.615-7.615-6.628-18.679.987-11.063 8.603-19.499 39.666-43.872 61.885-99.846Q809.744-375.923 809.744-440q0-137.795-95.975-233.769Q617.795-769.744 480-769.744q-137.795 0-233.769 95.975Q150.256-577.795 150.256-440q0 64.077 22.026 119.949t62.026 99.744q7.615 8.692 8.833 19.32t-6.602 18.448Zm113-113q-7.82 7.82-18.5 7.602-10.679-.218-17.679-8.602-24.871-29.487-39.115-65.5-14.244-36.012-14.244-77.961 0-91.538 64.231-155.768 64.23-64.231 155.768-64.231t155.768 64.231q64.231 64.23 64.231 155.768 0 41.564-14.244 77.872-14.244 36.307-39.115 65.589-7 8.436-17.474 8.936t-18.295-7.321q-7.358-7.615-7.397-18.23-.038-10.615 6.833-18.999 18.257-22 28.847-49.385 10.59-27.385 10.59-58.462 0-70.462-49.641-120.103Q550.462-609.744 480-609.744q-70.462 0-120.103 49.641Q310.256-510.462 310.256-440q0 31.282 10.59 58.564 10.59 27.283 28.847 49.283 6.871 8.641 7.166 18.82.295 10.179-7.32 17.794ZM480-380.001q-24.538 0-42.268-17.731-17.731-17.73-17.731-42.268t17.731-42.268q17.73-17.731 42.268-17.731t42.268 17.731q17.731 17.73 17.731 42.268t-17.731 42.268q-17.73 17.731-42.268 17.731Z"/></svg>