<svg xmlns="http://www.w3.org/2000/svg" height="40" viewBox="0 -960 960 960" width="40"><path d="M859.999-206.412 340.001-726.409v-51.025q0-25.435 18.564-43.999 18.564-18.564 44-18.564h154.87q25.846 0 44.205 18.564 18.359 18.564 18.359 43.999v77.435h177.436q25.436 0 44 18.359t18.564 44.205v431.023ZM390.256-699.999h179.488v-77.435q0-4.615-3.847-8.462-3.846-3.846-8.462-3.846h-154.87q-4.616 0-8.462 3.846-3.847 3.847-3.847 8.462v77.435ZM162.565-140.001q-25.846 0-44.205-18.359-18.359-18.359-18.359-44.205v-434.87q0-25.846 18.359-44.205 18.359-18.359 44.205-18.359h87.283v64.819L97.643-787.795q-7.23-7.23-7.423-17.499-.192-10.269 7.423-17.884 7.615-7.359 17.897-7.359 10.282 0 17.897 7.359L856.564-99.641q7.231 7.23 7.09 17.5-.141 10.268-7.757 17.884-7.358 7.615-17.563 7.615-10.205 0-17.564-7.615l-75.744-75.744H162.565Z"/></svg>