<svg xmlns="http://www.w3.org/2000/svg" height="40" viewBox="0 -960 960 960" width="40"><path d="M390.256-699.999h179.488v-77.435q0-5.385-3.462-8.846-3.462-3.462-8.847-3.462h-154.87q-5.385 0-8.847 3.462-3.462 3.461-3.462 8.846v77.435ZM720-63.386q-73.025 0-124.819-51.795Q543.386-166.975 543.386-240t51.795-124.819Q646.975-416.614 720-416.614t124.819 51.795Q896.614-313.025 896.614-240t-51.795 124.819Q793.025-63.386 720-63.386Zm-557.435-76.615q-25.788 0-44.176-18.388t-18.388-44.176v-434.87q0-25.788 18.388-44.176t44.176-18.388h177.436v-77.435q0-25.435 18.388-43.999 18.388-18.564 44.176-18.564h154.87q25.788 0 44.176 18.564t18.388 43.999v77.435h177.436q25.788 0 44.176 18.388t18.388 44.176v195.718q-30.487-22-66.423-33.577Q757.641-486.87 720-486.87q-101.941 0-174.406 72.464Q473.13-341.941 473.13-240q0 27.512 5.371 51.127 5.372 23.615 16.987 48.872H162.565Zm542.307-49.255-60.154-60.154q-4.82-4.564-10.5-4.756-5.679-.193-10.628 4.756-4.948 4.949-4.948 10.769 0 5.821 4.912 10.714l74.523 74.952q9.406 9.359 21.946 9.359 12.541 0 21.9-9.359l74.952-74.952q4.509-4.509 4.701-10.522.193-6.012-4.756-10.961-4.949-4.949-10.769-4.949-5.821 0-10.769 4.949l-59.898 60.154V-333.82q0-6.205-4.615-10.667-4.615-4.461-10.806-4.461-6.19 0-10.64 4.461-4.451 4.462-4.451 10.667v144.564Z"/></svg>