<svg xmlns="http://www.w3.org/2000/svg" height="40" viewBox="0 -960 960 960" width="40"><path d="M100.001-748.922v-88.513q0-25.788 18.388-44.176t44.176-18.388h88.513q10.679 0 17.903 7.263 7.224 7.263 7.224 18 0 10.736-7.224 17.864t-17.903 7.128h-88.513q-4.616 0-8.462 3.847-3.847 3.846-3.847 8.462v88.513q0 10.679-7.263 17.903-7.263 7.224-17.999 7.224-10.737 0-17.865-7.224-7.128-7.224-7.128-17.903Zm62.564 608.921q-25.788 0-44.176-18.388t-18.388-44.176v-88.513q0-10.679 7.263-17.903 7.263-7.224 18-7.224 10.736 0 17.864 7.224t7.128 17.903v88.513q0 4.616 3.847 8.462 3.846 3.847 8.462 3.847h88.513q10.679 0 17.903 7.263 7.224 7.263 7.224 17.999 0 10.737-7.224 17.865-7.224 7.128-17.903 7.128h-88.513Zm647.179-608.921v-88.513q0-4.616-3.847-8.462-3.846-3.847-8.462-3.847h-88.513q-10.679 0-17.903-7.263-7.224-7.263-7.224-17.999 0-10.737 7.224-17.865 7.224-7.128 17.903-7.128h88.513q25.788 0 44.176 18.388t18.388 44.176v88.513q0 10.679-7.263 17.903-7.263 7.224-18 7.224-10.736 0-17.864-7.224t-7.128-17.903Zm-269.68 115.998q-29.269 0-49.897-20.563-20.628-20.564-20.628-49.833 0-29.27 20.564-49.898 20.563-20.628 49.833-20.628 29.269 0 49.897 20.564t20.628 49.833q0 29.269-20.564 49.897-20.563 20.628-49.833 20.628ZM366.873-290.001l43.487-223.641-108.617 47.718v106.334q0 10.679-7.263 17.904-7.263 7.224-18 7.224-10.736 0-17.864-7.224-7.128-7.225-7.128-17.904v-119.64q0-9.677 5.288-17.337 5.289-7.66 13.814-11.535l142.642-59.487q28.64-12.282 41.635-15.859 12.994-3.577 24.906-3.577 17.868 0 32.406 8.5t24.329 23.797l41.132 65.6q13.206 20.308 30.468 38.195 17.263 17.886 39.148 30.626l-25.718 42.793q-23.461-15.231-44.731-36.487-21.269-21.257-40.32-49.411l-38.129 173.411H366.873Zm230.306 190q-14.256 0-21.384-13.295-7.128-13.294-.308-25.32l160-279.205q6.974-13.307 21.564-13.435 14.589-.129 22.871 12.64l160 280q7.769 12.82-.495 25.717-8.263 12.898-22.248 12.898h-320Zm159.963-32.308q6.037 0 10.729-4.582 4.692-4.582 4.692-10.692t-4.692-10.674q-4.692-4.564-10.729-4.564-6.036 0-10.564 4.538-4.527 4.539-4.527 10.59 0 6.154 4.527 10.769 4.528 4.615 10.564 4.615Zm0-72.82q6.037 0 10.729-4.538 4.692-4.539 4.692-10.59v-127.436q0-6.051-4.692-10.59-4.692-4.538-10.729-4.538-6.036 0-10.564 4.538-4.527 4.539-4.527 10.59v127.436q0 6.051 4.527 10.59 4.528 4.538 10.564 4.538Z"/></svg>