<svg xmlns="http://www.w3.org/2000/svg" height="40" viewBox="0 -960 960 960" width="40"><path d="M312-408.97v-54.83h88q13.64 0 22.82-9.06 9.18-9.07 9.18-22.93v-65.65q0-13.81-9.18-23.11-9.18-9.3-22.82-9.3H290.46q-9.19 0-15.24 6.1-6.04 6.1-6.04 15.39 0 9.28 6.04 15.31 6.05 6.02 15.24 6.02h98.72v55.24h-88q-13.86 0-22.93 9.18t-9.07 22.81v76.11q0 9.31 6.04 15.42 6.05 6.12 15.24 6.12h120q9.31 0 15.42-6.14 6.12-6.14 6.12-15.48 0-9.23-6.12-15.22-6.11-5.98-15.42-5.98H312Zm226.46 42.82h115.72q19.55 0 33.3-13.68 13.75-13.67 13.75-33.38v-133.84q0-19.6-13.75-33.2-13.75-13.6-33.3-13.6H538.46q-9.31 0-15.42 6.05-6.12 6.04-6.12 15.24v184.87q0 9.31 6.12 15.42 6.11 6.12 15.42 6.12Zm21.28-42.82v-142.06h92.52q2.3 0 4.23 1.93 1.92 1.92 1.92 4.23v129.74q0 2.31-1.92 4.23-1.93 1.93-4.23 1.93h-92.52ZM202.57-140q-25.79 0-44.18-18.39T140-202.57v-554.86q0-25.79 18.39-44.18T202.57-820h554.86q25.79 0 44.18 18.39T820-757.43v554.86q0 25.79-18.39 44.18T757.43-140H202.57Zm0-50.26h554.86q4.62 0 8.47-3.84 3.84-3.85 3.84-8.47v-554.86q0-4.62-3.84-8.47-3.85-3.84-8.47-3.84H202.57q-4.62 0-8.47 3.84-3.84 3.85-3.84 8.47v554.86q0 4.62 3.84 8.47 3.85 3.84 8.47 3.84Zm-12.31-579.48v579.48-579.48Z"/></svg>