<svg xmlns="http://www.w3.org/2000/svg" height="40" viewBox="0 -960 960 960" width="40"><path d="m350.15-551.03-52.87 154.49q-3.84 11.46 2.81 20.92 6.66 9.47 18.76 9.47 7.77 0 13.45-4.58 5.69-4.57 8.42-11.73l57.48-168.98q5.62-16.41-5.06-29.41t-26.78-13H255.54q-9.31 0-15.42 6.1-6.12 6.1-6.12 15.39 0 9.28 6.12 15.31 6.11 6.02 15.42 6.02h94.61Zm148.46 92.57 81.54 85.49q2 2.2 15.03 6.82 13.85 0 19.37-12.88 5.53-12.87-3.94-22.69l-75.64-79.05 76.03-78.9q9.46-9.43 3.74-21.8-5.71-12.38-19.18-12.38-4.11 0-7.76 1.82-3.65 1.83-6.88 5l-82.31 84.72v-70.25q0-9.2-6.13-15.24-6.14-6.05-15.48-6.05-9.23 0-15.22 6.05-5.98 6.04-5.98 15.24v184.87q0 9.31 6.1 15.42 6.1 6.12 15.38 6.12 9.28 0 15.31-6.12 6.02-6.11 6.02-15.42v-70.77Zm173.85-5.34v43.55q0 7.48 5.23 12.71t12.46 5.23q7.23 0 12.47-5.23 5.23-5.23 5.23-12.71v-43.55h46.1q6.87 0 11.33-4.82t4.46-11.51q0-6.69-4.46-11.18-4.46-4.48-11.33-4.48h-46.1v-44.34q0-7.1-5.23-12.33-5.24-5.23-12.47-5.23t-12.46 5.23q-5.23 5.23-5.23 12.33v44.34h-45.69q-6.87 0-11.33 4.45-4.47 4.45-4.47 11.21 0 6.76 4.79 11.55 4.78 4.78 11.42 4.78h45.28ZM202.57-140q-25.79 0-44.18-18.39T140-202.57v-554.86q0-25.79 18.39-44.18T202.57-820h554.86q25.79 0 44.18 18.39T820-757.43v554.86q0 25.79-18.39 44.18T757.43-140H202.57Zm0-50.26h554.86q4.62 0 8.47-3.84 3.84-3.85 3.84-8.47v-554.86q0-4.62-3.84-8.47-3.85-3.84-8.47-3.84H202.57q-4.62 0-8.47 3.84-3.84 3.85-3.84 8.47v554.86q0 4.62 3.84 8.47 3.85 3.84 8.47 3.84Zm-12.31-579.48v579.48-579.48Z"/></svg>