<svg xmlns="http://www.w3.org/2000/svg" height="40" viewBox="0 -960 960 960" width="40"><path d="m746.63-216.89-52.07-23.67q-8.94-4.07-8.94-14.5t8.94-14.63l52.07-23.68 23.68-52.07q4.07-8.94 14.49-8.94 10.43 0 14.64 8.94l23.67 52.07 52.07 23.68q8.95 4.07 8.95 14.49 0 10.43-8.95 14.64l-52.07 23.67-23.67 52.07q-4.07 8.95-14.5 8.95t-14.63-8.95l-23.68-52.07ZM437.64-437.64l27.8 62.13q4.07 9.61 14.49 9.61 10.43 0 14.63-9.61l27.8-62.13 62.38-27.8q9.36-4.07 9.36-14.49 0-10.43-9.36-14.63l-62.38-27.8-27.8-62.38q-4.07-9.36-14.49-9.36-10.43 0-14.63 9.36l-27.8 62.38-62.13 27.8q-9.61 4.07-9.61 14.49 0 10.43 9.61 14.63l62.13 27.8ZM162.57-180q-25.79 0-44.18-18.39T100-242.57v-474.86q0-25.79 18.39-44.18T162.57-780h634.86q25.79 0 44.18 18.39T860-717.43v265.25h-50.26v-265.25q0-4.62-3.84-8.47-3.85-3.84-8.47-3.84H162.57q-4.62 0-8.47 3.84-3.84 3.85-3.84 8.47v474.86q0 4.62 3.84 8.47 3.85 3.84 8.47 3.84h425.25V-180H162.57Zm-12.31-50.26v-499.48 499.48-24.87V-230.26Z"/></svg>