<svg xmlns="http://www.w3.org/2000/svg" height="40" viewBox="0 -960 960 960" width="40"><path d="M348.97-511.03q-8.02 0-13.5-5.47-5.47-5.46-5.47-13.48t5.47-13.51q5.48-5.48 13.5-5.48h262.06q8.02 0 13.5 5.47 5.47 5.46 5.47 13.48t-5.47 13.51q-5.48 5.48-13.5 5.48H348.97Zm40 120q-8.02 0-13.5-5.47-5.47-5.46-5.47-13.48t5.47-13.51q5.48-5.48 13.5-5.48h182.06q8.02 0 13.5 5.47 5.47 5.46 5.47 13.48t-5.47 13.51q-5.48 5.48-13.5 5.48H388.97ZM122.57-180q-25.61 0-44.09-18.48Q60-216.96 60-242.57v-474.86q0-25.61 18.48-44.09Q96.96-780 122.57-780h714.86q25.61 0 44.09 18.48Q900-743.04 900-717.43v474.86q0 25.61-18.48 44.09Q863.04-180 837.43-180H122.57Zm32.82-549.74h-32.82q-5.39 0-8.85 3.46t-3.46 8.85v474.86q0 5.39 3.46 8.85t8.85 3.46h32.82v-499.48Zm50.25 499.48h548.72v-499.48H205.64v499.48Zm598.97-499.48v499.48h32.82q5.39 0 8.85-3.46t3.46-8.85v-474.86q0-5.39-3.46-8.85t-8.85-3.46h-32.82Zm0 0h45.13H804.61Zm-649.22 0h-45.13H155.39Z"/></svg>