<svg xmlns="http://www.w3.org/2000/svg" height="40" viewBox="0 -960 960 960" width="40"><path d="m422.82-408.2-99.69-99.7q-7.54-7.23-17.66-7.42-10.11-.19-17.73 7.42-7.61 7.62-7.41 17.69.21 10.08 7.41 17.7L400.9-358.28q9.33 9.36 21.78 9.36 12.45 0 22.06-9.36l226.75-227q7.23-7.23 7.42-17.71.19-10.47-7.42-18.09-7.62-7.61-17.9-7.61-10.28 0-17.9 7.61L422.82-408.2ZM202.57-140q-25.71 0-44.14-18.43T140-202.57v-554.86q0-25.71 18.43-44.14T202.57-820h196q-.03-32.64 23.58-56.32Q445.77-900 480-900q34.62 0 58.23 23.68 23.62 23.68 23.2 56.32h196q25.71 0 44.14 18.43T820-757.43v554.86q0 25.71-18.43 44.14T757.43-140H202.57Zm0-50.26h554.86q4.62 0 8.47-3.84 3.84-3.85 3.84-8.47v-554.86q0-4.62-3.84-8.47-3.85-3.84-8.47-3.84H202.57q-4.62 0-8.47 3.84-3.84 3.85-3.84 8.47v554.86q0 4.62 3.84 8.47 3.85 3.84 8.47 3.84Zm277.38-599.28q13.35 0 22.98-9.45t9.63-22.98q0-13.54-9.63-22.99t-22.98-9.45q-13.36 0-22.81 9.45t-9.45 22.99q0 13.53 9.45 22.98 9.45 9.45 22.81 9.45ZM190.26-190.26v-579.48 579.48Z"/></svg>