<svg xmlns="http://www.w3.org/2000/svg" height="40" viewBox="0 -960 960 960" width="40"><path d="m724.1-741.03-60.3-26.43q-7.57-3.36-7.57-11.84 0-8.47 7.57-11.91l60.3-27.1 26.44-59.64q3.36-7.82 11.83-7.82 8.48 0 11.91 7.82l27.1 59.64 59.64 27.1q7.82 3.37 7.82 11.84 0 8.47-7.82 11.91l-59.64 26.43-27.1 60.31q-3.36 7.56-11.83 7.56-8.48 0-11.91-7.56l-26.44-60.31Zm.05 598.88-60.39-26.76q-7.53-3.3-7.53-11.77 0-8.47 7.57-11.86l60.3-27.1 26.44-59.64q3.36-7.56 11.83-7.56 8.48 0 11.91 7.56l27.1 59.64 59.64 27.1q7.82 3.36 7.82 11.84 0 8.47-7.82 11.91l-59.69 26.64-27.05 60.1q-3.36 7.82-11.83 7.82-8.48 0-11.91-7.82l-26.39-60.1ZM305.62-423.51h136.46l25.36 67.3q2.15 5.75 6.55 9.22 4.4 3.48 10.51 3.48 10.32 0 16.01-8.13 5.7-8.13 2.34-17.49L399.33-648.9q-2.41-5.71-7.42-9.09-5.01-3.37-10.76-3.37h-14.68q-5.85 0-10.84 3.6-4.99 3.59-7.27 9.25L244.85-369.13q-3.36 9.36 2.41 17.49 5.77 8.13 15.84 8.13 6.21 0 10.8-3.48 4.59-3.47 6.74-9.22l24.98-67.3Zm11.92-32.11 56.31-162.59 56.31 162.59H317.54Zm56.28 225.36q104.49 0 177.13-72.61t72.64-177.1q0-104.49-72.61-177.13t-177.1-72.64q-104.49 0-177.14 72.61-72.64 72.61-72.64 177.1t72.61 177.13q72.62 72.64 177.11 72.64Zm.09 50.26q-125.6 0-212.83-87.17-87.23-87.17-87.23-212.77 0-125.6 87.17-212.83Q248.19-780 373.79-780q125.6 0 212.83 87.17 87.23 87.17 87.23 212.77 0 125.6-87.17 212.83Q499.51-180 373.91-180Zm-.06-300Z"/></svg>