<svg xmlns="http://www.w3.org/2000/svg" height="40" viewBox="0 -960 960 960" width="40"><path d="M428.51-202.36q36.8 0 62.55-25.3 25.76-25.29 25.76-62.34v-180.05h82.21q12.62 0 21.56-8.79 8.95-8.79 8.95-21.85 0-12.67-8.95-21.53-8.94-8.86-21.56-8.86h-87.08q-12.62 0-21.57 8.95-8.94 8.94-8.94 21.57v144.41q-10.23-9.57-23.78-14.58t-29.15-5.01q-35.93 0-60.63 25.06-24.7 25.06-24.7 61.06t24.7 61.63q24.7 25.63 60.63 25.63ZM242.57-100q-25.79 0-44.18-18.39T180-162.57v-634.86q0-25.79 18.39-44.18T242.57-860h311.71q12.86 0 24.45 5.08 11.58 5.08 20.19 13.43l162.57 162.57q8.35 8.61 13.43 20.19 5.08 11.59 5.08 24.45v471.71q0 25.79-18.39 44.18T717.43-100H242.57Zm312.46-567.8v-141.94H242.57q-4.62 0-8.47 3.84-3.84 3.85-3.84 8.47v634.86q0 4.62 3.84 8.47 3.85 3.84 8.47 3.84h474.86q4.62 0 8.47-3.84 3.84-3.85 3.84-8.47v-473.94H586.31q-13.14 0-22.21-9.07-9.07-9.08-9.07-22.22ZM230.26-809.74v173.23-173.23 659.48-659.48Z"/></svg>