<svg xmlns="http://www.w3.org/2000/svg" height="48" viewBox="0 -960 960 960" width="48"><path d="m709.46-723.384-65.076-28.538q-3.531-1.298-5.112-3.704-1.58-2.407-1.58-6.236 0-3.829 1.58-6.383 1.581-2.553 5.112-4.139l65.076-28.307 26.308-62.076q1.682-3.847 4.396-5.77 2.714-1.923 6.543-1.923 3.83 0 6.383 1.923t4.139 5.77l26.632 62.136 64.367 28.247q3.846 1.616 5.462 4.218 1.615 2.603 1.615 6.321 0 3.824-1.615 6.226-1.616 2.402-5.462 3.697l-64.307 28.538-26.692 59.999q-1.615 3.916-4.218 5.304-2.602 1.388-6.32 1.388-3.825 0-6.534-1.388-2.71-1.388-4.389-5.304l-26.308-59.999ZM247.693-403.309l-134.614-59.768q-5.756-2.575-8.916-7.441-3.161-4.867-3.161-10.097 0-5.231 3.161-10.097 3.16-4.867 8.916-7.826l134.614-59.384 61.999-133.383q2.575-5.756 7.134-8.416 4.558-2.661 9.789-2.661 4.846 0 9.405 2.353 4.558 2.353 7.518 7.724l62.614 134.383 134.614 59.384q5.756 2.959 8.724 7.826 2.968 4.866 2.968 10.097 0 5.23-2.968 10.097-2.968 4.866-8.724 7.441l-134.614 59.768-62.614 133.999q-2.96 5.755-7.518 8.416-4.559 2.661-9.405 2.661-5.231 0-9.789-2.661-4.559-2.661-7.134-8.416l-61.999-133.999Zm78.922 58.232 45.692-93.308 94.923-42.23-94.923-42.231-45.692-93.308-45.077 93.308L186-480.615l95.538 42.23 45.077 93.308Zm385.076 189.845-64.692-27.923q-3.846-1.231-5.461-3.961-1.616-2.731-1.616-6.577t1.616-6.769q1.615-2.923 5.461-4.154l64.692-27.923L737.999-295q1.23-3.461 4.153-5.269 2.923-1.808 6.769-1.808t6.577 1.808q2.731 1.808 3.962 5.269l26.692 62.461 64.307 27.923q3.846 1.231 5.461 4.154 1.616 2.923 1.616 6.769t-1.616 6.577q-1.615 2.73-5.461 3.961l-64.307 27.923-26.692 60.23q-1.231 3.846-3.962 5.462-2.731 1.615-6.577 1.615t-6.769-1.615q-2.923-1.616-4.153-5.462l-26.308-60.23ZM326.615-480.615Z"/></svg>