<svg xmlns="http://www.w3.org/2000/svg" height="40" viewBox="0 -960 960 960" width="40"><path d="M150.26-623.84h659.48v-93.59q0-4.62-3.84-8.47-3.85-3.84-8.47-3.84H162.57q-4.62 0-8.47 3.84-3.84 3.85-3.84 8.47v93.59ZM100-717.43q0-25.79 18.39-44.18T162.57-780h634.86q25.79 0 44.18 18.39T860-717.43v179.84q0 13.14-8.95 22.21-8.94 9.07-22.33 9.07H150.26v263.74q0 4.62 3.84 8.47 3.85 3.84 8.47 3.84h183.71q10.7 0 17.92 7.25 7.21 7.25 7.21 18t-7.21 17.88q-7.22 7.13-17.92 7.13H162.57q-25.79 0-44.18-18.39T100-242.57v-474.86Zm50.26 0v487.17-138.69 77.74V-729.74v12.31ZM591.85-121.8q-5.62 0-11.3-2.2-5.68-2.21-10.63-7.16L453.38-247.69q-7.23-7.23-7.19-17.73.04-10.5 7.76-18.34 7.23-7.34 17.65-7.34 10.42 0 17.99 7.61l102.26 102.26 215.23-215.23q7.51-7.44 17.84-7.32 10.34.11 18.16 7.97 7.32 7.86 7.57 17.69.25 9.84-7.57 17.66L613.7-131.09q-4.88 4.88-10.25 7.09-5.36 2.2-11.6 2.2Z"/></svg>