<svg xmlns="http://www.w3.org/2000/svg" height="40" viewBox="0 -960 960 960" width="40"><path d="M202.57-140q-25.79 0-44.18-18.39T140-202.57v-554.86q0-25.79 18.39-44.18T202.57-820h554.86q25.79 0 44.18 18.39T820-757.43v554.86q0 25.79-18.39 44.18T757.43-140H202.57Zm-12.31-617.43v554.86q0 4.62 3.84 8.47 3.85 3.84 8.47 3.84h554.86q4.62 0 8.47-3.84 3.84-3.85 3.84-8.47v-554.86q0-4.62-3.84-8.47-3.85-3.84-8.47-3.84H668.1v234.15q0 9.51-7.88 14.01-7.89 4.5-16.04-.45l-49.28-29.89q-8.16-4.95-16.04-4.95-7.89 0-15.65 4.95l-49.29 29.89q-8.15 4.95-16.03.45-7.89-4.5-7.89-14.01v-234.15H202.57q-4.62 0-8.47 3.84-3.84 3.85-3.84 8.47Zm0 567.17v-579.48 579.48Z"/></svg>