<svg xmlns="http://www.w3.org/2000/svg" height="40" viewBox="0 -960 960 960" width="40"><path d="M594.87-234.1q-10.7 0-17.92-7.25-7.21-7.24-7.21-18 0-10.75 7.21-17.88 7.22-7.13 17.92-7.13h240q10.71 0 17.92 7.25 7.21 7.24 7.21 17.99 0 10.76-7.21 17.89-7.21 7.13-17.92 7.13h-240ZM461.26-100q-70.11 0-135.14-30.69-65.04-30.7-114.89-80.54-53.92-53.92-82.57-123.46Q100-404.23 100-480q0-78.77 29.96-148.11 29.96-69.35 81.27-120.66 51.31-51.31 120.66-81.27Q401.23-860 480-860q75.64 0 142.24 27.21 66.6 27.2 117.51 74.97 50.92 47.77 82.47 112.39 31.55 64.61 37.01 138.71.56 10.82-6.77 18.77-7.33 7.95-18.41 7.95-10.46 0-17.92-7.18-7.46-7.18-8.03-17.64-3.02-35.13-12.13-68.39-9.1-33.25-26.51-64.18L414.44-282.26q18.3 23.93 39.61 43.91 21.31 19.99 46.39 36.43 15.3 9.95 20.26 27.48 4.97 17.54-1.03 35.8-5.77 17.61-21.55 28.13Q482.33-100 461.26-100Zm-74.85-225.02 355.41-355.8q-14.41-18.15-30.73-34.04-16.32-15.88-34.68-29.96L352.23-420.69q5.05 25.87 13.53 49.45 8.47 23.57 20.65 46.22Zm-39-161.52 284.98-285.64q-12.85-6.79-25.52-12.45-12.66-5.65-26.69-9.88-101.51 31.02-166.32 115.52-64.81 84.5-66.45 192.45Zm-197.15 6.59q0 133.36 91.68 228.73 91.68 95.37 224.68 100.76 1.92 0 3.27-1.03 1.34-1.02 2.11-3.2.51-2.31-.32-4.23-.83-1.93-2.76-3.47-78.64-51.25-125.38-134.24Q296.8-379.62 296.8-480q0-106.41 53.1-192.85 53.1-86.43 139.44-135.38-4.24-.51-8.47-.83-4.23-.32-8.46-.32-134.72 3.07-228.44 98.38-93.71 95.31-93.71 231.05Zm431.48-17.95Z"/></svg>