<svg xmlns="http://www.w3.org/2000/svg" height="40" viewBox="0 -960 960 960" width="40"><path d="M162.57-180q-25.79 0-44.18-18.57-18.39-18.56-18.39-44v-474.86q0-25.44 18.39-44Q136.78-780 162.57-780H376.2q12.87 0 24.45 5.08t20.25 13.49l51.43 51.69h325.1q25.44 0 44 18.56 18.57 18.57 18.57 44v404.61q0 25.44-18.57 44-18.56 18.57-44 18.57H162.57Zm0-50.26h634.86q5.39 0 8.85-3.46t3.46-8.85v-404.61q0-5.38-3.46-8.85-3.46-3.46-8.85-3.46H451.85l-66.8-66.79q-1.92-1.93-4.04-2.69-2.11-.77-4.42-.77H162.57q-5.39 0-8.85 3.46t-3.46 8.85v474.86q0 5.39 3.46 8.85t8.85 3.46Zm-12.31 0v-499.48 499.48Zm445.41-137.51 62.59 45.28q4.94 3.41 9.12.38 4.18-3.03 2.44-8.53l-23.1-77.31 64.66-53.96q3.93-3.27 2.06-8.37-1.88-5.1-7.29-5.1h-77.64l-25.15-75.11q-1.74-5.41-7.36-5.41t-7.36 5.41l-25.56 75.11h-77.9q-5.41 0-7.28 5.1t2.33 8.41l64.64 53.92-23.77 77.31q-1.74 5.41 2.64 8.69 4.39 3.28 9.34-.13l62.59-45.69Z"/></svg>