<svg xmlns="http://www.w3.org/2000/svg" height="40" viewBox="0 -960 960 960" width="40"><path d="M373.91-180q-125.6 0-212.83-87.17-87.23-87.17-87.23-212.77 0-125.6 87.17-212.83Q248.19-780 373.79-780q125.6 0 212.83 87.17 87.23 87.17 87.23 212.77 0 125.6-87.17 212.83Q499.51-180 373.91-180Zm-.09-50.26q103.82 0 176.8-72.94 72.97-72.94 72.97-176.77 0-103.82-72.94-176.8-72.95-72.97-176.77-72.97-103.83 0-176.8 72.94-72.98 72.94-72.98 176.77 0 103.82 72.95 176.8 72.94 72.97 176.77 72.97Zm-28.95-320.77V-380q0 12.48 8.24 20.73 8.23 8.24 20.69 8.24t20.74-8.24q8.28-8.25 8.28-20.73v-171.03h61.03q8.02 0 13.5-5.47 5.47-5.46 5.47-13.48t-5.47-13.51q-5.48-5.48-13.5-5.48h-180q-8.03 0-13.5 5.47-5.48 5.46-5.48 13.48t5.48 13.51q5.47 5.48 13.5 5.48h61.02Zm379.23-190-59.64-26.43q-7.82-3.36-7.82-11.84 0-8.47 7.82-11.91l59.69-26.64 26.39-59.69q3.36-7.56 11.83-7.56 8.48 0 11.79 7.53l26.76 59.72 59.72 26.76q7.54 3.3 7.54 11.77 0 8.47-7.57 11.86l-59.69 26.38-26.64 59.69q-3.36 7.82-11.83 7.82-8.48 0-11.91-7.82l-26.44-59.64Zm.05 598.88-59.69-26.64q-7.82-3.37-7.82-11.84 0-8.47 7.82-11.91l59.64-26.43 26.44-59.64q3.36-7.82 11.83-7.82 8.48 0 11.91 7.82l26.64 59.69 59.69 26.38q7.57 3.36 7.57 11.84 0 8.47-7.54 11.79l-59.72 26.76-26.76 59.72q-3.29 7.53-11.76 7.53-8.48 0-11.86-7.56l-26.39-59.69ZM373.85-480Z"/></svg>