<svg xmlns="http://www.w3.org/2000/svg" height="40" viewBox="0 -960 960 960" width="40"><path d="M263.28-140h-60.71q-25.79 0-44.18-18.39T140-202.57V-480q0-70.77 26.77-132.61 26.77-61.85 72.77-107.85 46-46 107.85-72.77Q409.23-820 480-820q70.77 0 132.61 26.77 61.85 26.77 107.85 72.77 46 46 72.77 107.85Q820-550.77 820-480v277.43q0 25.79-18.39 44.18T757.43-140h-60.71q-25.9 0-44.23-18.43t-18.33-44.14v-146.3q0-25.71 18.33-44.14 18.33-18.42 44.23-18.42h73.02V-480q0-121.07-84.32-205.41-84.33-84.33-205.39-84.33-121.06 0-205.42 84.33-84.35 84.34-84.35 205.41v68.57h73.02q25.9 0 44.23 18.42 18.33 18.43 18.33 44.14v146.3q0 25.71-18.33 44.14T263.28-140Zm0-221.18h-73.02v158.61q0 4.62 3.84 8.47 3.85 3.84 8.47 3.84h60.71q5.39 0 8.85-3.46t3.46-8.85v-146.3q0-5.13-3.46-8.72-3.46-3.59-8.85-3.59Zm421.13 12.31v146.3q0 5.39 3.46 8.85t8.85 3.46h60.71q4.62 0 8.47-3.84 3.84-3.85 3.84-8.47v-158.61h-73.02q-5.39 0-8.85 3.59t-3.46 8.72Zm-421.13-12.31H275.59h-85.33 73.02Zm421.13 0h85.33H684.41Z"/></svg>