<svg xmlns="http://www.w3.org/2000/svg" height="40" viewBox="0 -960 960 960" width="40"><path d="M592.56-364.67v41.03q0 9.2 6.05 15.24 6.05 6.04 15.26 6.04t15.36-6.04q6.15-6.04 6.15-15.24v-41.03h33.75q16.12 0 27.34-11.1 11.22-11.1 11.22-27.05v-153.95q0-16.12-11.22-27.34-11.22-11.22-27.34-11.22H561.54q-15.9 0-28.72 11.22Q520-572.89 520-556.77v153.95q0 15.95 12.82 27.05 12.82 11.1 28.72 11.1h31.02Zm-297.43-84.46h102.05v62.92q0 9.31 6.14 15.43 6.13 6.11 15.48 6.11 9.23 0 15.21-6.11 5.99-6.12 5.99-15.43v-187.58q0-9.31-6.1-15.43-6.1-6.11-15.38-6.11-9.29 0-15.31 6.11-6.03 6.12-6.03 15.43v81.84H295.13v-81.84q0-9.31-6.1-15.43-6.1-6.11-15.39-6.11-9.28 0-15.31 6.11-6.02 6.12-6.02 15.43v187.58q0 9.31 6.14 15.43 6.13 6.11 15.47 6.11 9.23 0 15.22-6.11 5.99-6.12 5.99-15.43v-62.92Zm273.84 41.64q-2.3 0-4.23-1.92-1.92-1.92-1.92-4.23v-132.72q0-2.31 1.92-4.23 1.93-1.92 4.23-1.92h89.75q2.31 0 4.23 1.92 1.92 1.92 1.92 4.23v132.72q0 2.31-1.92 4.23-1.92 1.92-4.23 1.92h-89.75ZM162.57-180q-25.79 0-44.18-18.39T100-242.57v-474.86q0-25.79 18.39-44.18T162.57-780h634.86q25.79 0 44.18 18.39T860-717.43v474.86q0 25.79-18.39 44.18T797.43-180H162.57Zm0-50.26h634.86q4.62 0 8.47-3.84 3.84-3.85 3.84-8.47v-474.86q0-4.62-3.84-8.47-3.85-3.84-8.47-3.84H162.57q-4.62 0-8.47 3.84-3.84 3.85-3.84 8.47v474.86q0 4.62 3.84 8.47 3.85 3.84 8.47 3.84Zm-12.31 0v-499.48 499.48Z"/></svg>