<svg xmlns="http://www.w3.org/2000/svg" height="40" viewBox="0 -960 960 960" width="40"><path d="M434.87-394.87V-340q0 18.8 13.18 31.97 13.18 13.16 32 13.16T512-308.03q13.13-13.17 13.13-31.97v-54.87H580q18.8 0 31.97-13.18 13.16-13.18 13.16-32T611.97-472Q598.8-485.13 580-485.13h-54.87V-540q0-18.8-13.18-31.97-13.18-13.16-32-13.16T448-571.97Q434.87-558.8 434.87-540v54.87H380q-18.8 0-31.97 13.18-13.16 13.18-13.16 32T348.03-408q13.17 13.13 31.97 13.13h54.87ZM242.57-140q-25.61 0-44.09-18.48Q180-176.96 180-202.57v-356.15q0-15.03 6.52-28.2 6.53-13.18 18.61-21.8l237.43-178.59q16.18-12.56 37.27-12.56 21.09 0 37.61 12.56l237.43 178.59q12.08 8.62 18.61 21.8 6.52 13.17 6.52 28.2v356.15q0 25.61-18.48 44.09Q743.04-140 717.43-140H242.57Zm0-50.26h474.86q5.39 0 8.85-3.46t3.46-8.85v-358.04q0-3.08-1.34-5.71-1.35-2.63-3.66-4.3L487.31-745.85q-3.08-2.69-7.31-2.69-4.23 0-7.31 2.69L235.26-570.62q-2.31 1.67-3.66 4.3-1.34 2.63-1.34 5.71v358.04q0 5.39 3.46 8.85t8.85 3.46ZM480-469.92Z"/></svg>