<svg xmlns="http://www.w3.org/2000/svg" height="48" viewBox="0 -960 960 960" width="48"><path d="M197.694-140.001q-23.596 0-40.645-17.048-17.048-17.049-17.048-40.645v-547.152q0-1.923.193-3.461.192-1.539.961-3.078l-54.46-54.461q-6.693-6.692-6.885-16.115-.192-9.423 6.884-16.499 7.077-7.077 16.308-7.077 9.23 0 16.307 7.077l726.459 726.459q6.692 6.692 6.884 15.807.193 9.115-6.884 16.583-6.692 6.686-16.08 6.493-9.388-.192-16.535-6.884l-61.384-60.769q-1.538.385-3.269.577-1.731.193-3.654.193H197.694Zm0-45.384h509.461L587.924-304.616H291.078q-9.23 0-13.23-8.115t1.615-15.731l79.307-94.076q4.615-5.385 10.923-5.385t11.308 5.616L447.693-336l48.692-61.155-311-311v510.461q0 5.385 3.462 8.847 3.462 3.462 8.847 3.462Zm622.305-576.921v478.151q0 11.346-7.083 17.019-7.082 5.673-15.427 5.673-8.346 0-15.61-5.68-7.264-5.68-7.264-16.627v-478.536q0-5.385-3.462-8.847-3.462-3.462-8.847-3.462H274.77q-11.346 0-17.019-7.082-5.673-7.083-5.673-15.428t5.673-15.609q5.673-7.265 17.019-7.265h487.536q23.596 0 40.645 17.048 17.048 17.049 17.048 40.645ZM528.231-522.231Zm-81.076 76.461Z"/></svg>