<svg xmlns="http://www.w3.org/2000/svg" height="40" viewBox="0 -960 960 960" width="40"><path d="M669.23-140q-14.69 0-25.04-10.35-10.34-10.34-10.34-25.04v-311.99q0-14.7 10.34-25.04 10.35-10.35 25.04-10.35h155.38q14.7 0 25.04 10.35Q860-502.08 860-487.38v311.99q0 14.7-10.35 25.04Q839.31-140 824.61-140H669.23Zm0-65.64h155.38v-251.49H669.23v251.49ZM348.2-140q-10.67 0-17.9-7.26-7.22-7.27-7.22-18 0-10.74 7.22-17.87 7.23-7.13 17.9-7.13h66.67V-300h-252.3q-25.61 0-44.09-18.48Q100-336.96 100-362.57v-394.86q0-25.61 18.48-44.09Q136.96-820 162.57-820h554.45q26.19 0 44.58 18.48 18.4 18.48 18.4 44.09v139.28q0 10.68-7.26 17.9-7.27 7.22-18 7.22-10.74 0-17.87-7.22-7.13-7.22-7.13-17.9v-139.28q.41-5.39-3.25-8.85-3.67-3.46-9.06-3.46H162.57q-5.39 0-8.85 3.46t-3.46 8.85v394.86q0 5.39 3.46 8.85t8.85 3.46h375.89q10.68 0 17.91 7.27 7.22 7.26 7.22 18 0 10.73-7.22 17.86-7.23 7.13-17.91 7.13h-73.33v109.74h66.67q10.67 0 17.9 7.27 7.22 7.26 7.22 18 0 10.73-7.22 17.86-7.23 7.13-17.9 7.13H348.2Zm91.81-349.59 61.22 47.5q4.77 3.58 9.35.57 4.57-3.01 2.83-8.56l-22.69-77.67 63.82-51.51q4.36-3.41 2.48-8.59-1.87-5.18-7.41-5.18h-78.17l-24.22-73.43q-1.6-5.23-7.22-5.23-5.62 0-7.22 5.23l-24.22 73.43h-78.17q-5.54 0-7.41 5.18-1.88 5.18 2.74 8.59l63.56 51.51-22.69 77.67q-1.74 5.55 2.83 8.56 4.58 3.01 9.37-.57l61.22-47.5Zm.4-70.41Z"/></svg>