<svg xmlns="http://www.w3.org/2000/svg" height="40" viewBox="0 -960 960 960" width="40"><path d="M162.57-180q-25.61 0-44.09-18.48Q100-216.96 100-242.57v-474.86q0-25.61 18.48-44.09Q136.96-780 162.57-780h439.25q15.03 0 28.21 6.42 13.17 6.42 22.05 18.32l179.87 237.44q12.95 16.68 12.95 37.71t-12.95 37.93L652.49-204.74q-8.88 11.9-21.93 18.32-13.04 6.42-28.07 6.42H162.57Zm0-50.26h439.25q3.08 0 5.71-1.15 2.62-1.15 4.29-3.46l180.13-237.44q2.69-3.46 2.69-7.69t-2.69-7.69L611.82-725.13q-1.67-2.31-4.29-3.46-2.63-1.15-5.71-1.15H162.57q-5.39 0-8.85 3.46t-3.46 8.85v474.86q0 5.39 3.46 8.85t8.85 3.46ZM472.64-480Z"/></svg>