<svg xmlns="http://www.w3.org/2000/svg" height="40" viewBox="0 -960 960 960" width="40"><path d="m728.28-305.28-36-36 99.67-131.03q2.69-3.46 2.69-7.69t-2.69-7.69L611.82-725.13q-1.67-2.31-4.29-3.46-2.63-1.15-5.71-1.15H306.13L255.87-780h345.95q14.94 0 28.21 6.38 13.26 6.38 22.05 18.36l179.87 237.44q12.95 16.68 12.95 37.71t-12.95 37.93l-103.67 136.9Zm-565.71 75.02h455.58L150.26-698.15v455.58q0 5.39 3.46 8.85t8.85 3.46Zm0 50.26q-25.71 0-44.14-18.43T100-242.57v-474.86q0-7.05 1.58-13.45 1.58-6.4 4.19-12.02l-80.64-80.38q-7.23-7.23-7.09-17.5.14-10.27 7.63-17.89 7.48-7.61 17.69-7.61 10.2 0 17.56 7.61L860.97-58.61q7.23 7.23 7.32 17.39.09 10.17-7.88 17.93-7.46 7.26-17.54 7.26-10.07 0-17.69-7.2L647.51-198.59q-6.49 8.46-16.29 13.52-9.81 5.07-20.71 5.07H162.57Zm221.84-284.41Zm166.56-71.44Z"/></svg>