<svg xmlns="http://www.w3.org/2000/svg" height="40" viewBox="0 -960 960 960" width="40"><path d="M190.26-190.26v-579.48 579.48ZM202.57-140q-25.79 0-44.18-18.39T140-202.57v-554.86q0-25.79 18.39-44.18T202.57-820h554.86q25.79 0 44.18 18.39T820-757.43v328.12q0 10.98-7.26 18.08-7.27 7.1-18 7.1-10.74 0-17.87-7.22-7.13-7.23-7.13-17.91v-328.17q0-4.62-3.84-8.47-3.85-3.84-8.47-3.84H202.57q-4.62 0-8.47 3.84-3.84 3.85-3.84 8.47v554.86q0 4.62 3.84 8.47 3.85 3.84 8.47 3.84h267.12q10.68 0 17.91 7.27 7.22 7.26 7.22 18 0 10.73-7.22 17.86-7.23 7.13-17.91 7.13H202.57Zm110.02-152.21q12.74 0 21.62-8.89 8.87-8.9 8.87-21.65 0-12.74-8.9-21.61t-21.64-8.87q-12.74 0-21.62 8.9-8.87 8.9-8.87 21.64t8.9 21.61q8.9 8.87 21.64 8.87Zm0-157.28q12.74 0 21.62-8.9 8.87-8.89 8.87-21.64 0-12.74-8.9-21.61t-21.64-8.87q-12.74 0-21.62 8.9-8.87 8.89-8.87 21.64 0 12.74 8.9 21.61t21.64 8.87Zm0-157.28q12.74 0 21.62-8.9 8.87-8.9 8.87-21.64t-8.9-21.61q-8.9-8.87-21.64-8.87t-21.62 8.89q-8.87 8.9-8.87 21.65 0 12.74 8.9 21.61t21.64 8.87Zm331.92 151.9q10.68 0 17.91-7.27 7.22-7.26 7.22-17.99 0-10.74-7.22-17.87-7.23-7.13-17.91-7.13H465.18q-10.68 0-17.9 7.27-7.23 7.26-7.23 17.99 0 10.74 7.23 17.87 7.22 7.13 17.9 7.13h179.33Zm0-157.28q10.68 0 17.91-7.27 7.22-7.26 7.22-18 0-10.73-7.22-17.86-7.23-7.13-17.91-7.13H465.18q-10.68 0-17.9 7.26-7.23 7.27-7.23 18 0 10.74 7.23 17.87 7.22 7.13 17.9 7.13h179.33ZM440.05-322.58q0 10.73 7.23 17.86 7.22 7.13 17.9 7.13h48.36q10.68 0 17.9-7.26 7.23-7.27 7.23-18 0-10.74-7.23-17.87-7.22-7.13-17.9-7.13h-48.36q-10.68 0-17.9 7.27-7.23 7.26-7.23 18ZM698.21-170h-94.88q-10.68 0-17.9-7.26-7.22-7.27-7.22-18 0-10.74 7.22-17.87 7.22-7.13 17.9-7.13h94.88v-94.87q0-10.68 7.26-17.9 7.26-7.23 18-7.23 10.73 0 17.86 7.23 7.13 7.22 7.13 17.9v94.87h94.87q10.68 0 17.91 7.27 7.22 7.26 7.22 18 0 10.73-7.22 17.86-7.23 7.13-17.91 7.13h-94.87v94.87q0 10.68-7.26 17.91-7.27 7.22-18 7.22-10.74 0-17.87-7.22-7.12-7.23-7.12-17.91V-170Z"/></svg>