<svg xmlns="http://www.w3.org/2000/svg" height="40" viewBox="0 -960 960 960" width="40"><path d="M202.57-140q-25.79 0-44.18-18.39T140-202.57v-554.86q0-25.79 18.39-44.18T202.57-820h224.1q10.68 0 17.9 7.26 7.22 7.27 7.22 18 0 10.74-7.22 17.87-7.22 7.13-17.9 7.13h-224.1q-4.62 0-8.47 3.84-3.84 3.85-3.84 8.47v554.86q0 4.62 3.84 8.47 3.85 3.84 8.47 3.84h554.86q4.62 0 8.47-3.84 3.84-3.85 3.84-8.47v-224.1q0-10.68 7.27-17.9 7.26-7.22 18-7.22 10.73 0 17.86 7.22 7.13 7.22 7.13 17.9v224.1q0 25.79-18.39 44.18T757.43-140H202.57Zm447.17-509.74h-94.87q-10.68 0-17.9-7.27-7.23-7.26-7.23-18 0-10.73 7.23-17.86 7.22-7.13 17.9-7.13h94.87v-94.87q0-10.68 7.27-17.9 7.26-7.23 18-7.23 10.73 0 17.86 7.23 7.13 7.22 7.13 17.9V-700h94.87q10.68 0 17.9 7.26 7.23 7.27 7.23 18 0 10.74-7.23 17.87-7.22 7.13-17.9 7.13H700v94.87q0 10.68-7.26 17.9-7.27 7.23-18 7.23-10.74 0-17.87-7.23-7.13-7.22-7.13-17.9v-94.87Z"/></svg>