<svg xmlns="http://www.w3.org/2000/svg" height="40" viewBox="0 -960 960 960" width="40"><path d="m456.36-612.67-63.54 63.54q-7.44 7.44-17.6 7.53-10.17.09-17.99-7.48-7.36-7.82-7.46-18.02-.1-10.21 7.72-17.77l102.13-102.8q4.89-4.89 10.29-7.12 5.39-2.23 11.67-2.23 6.06 0 11.47 2.23 5.41 2.23 10.3 7.12l102.8 102.8q7.18 7.18 7.27 17.37.09 10.19-7.01 17.76-8.08 7.82-18.38 7.92-10.31.1-17.88-7.72l-63.54-63.13v162.87q0 10.7-7.24 17.92-7.25 7.21-18 7.21t-17.88-7.21q-7.13-7.22-7.13-17.92v-162.87ZM202.57-140q-25.79 0-44.18-18.39T140-202.57v-554.86q0-25.79 18.39-44.18T202.57-820h554.86q25.79 0 44.18 18.39T820-757.43v554.86q0 25.79-18.39 44.18T757.43-140H202.57Zm0-50.26h554.86q5.39 0 8.85-3.46t3.46-8.85V-325.8H625.49q-24 39.08-62.99 60.29-38.99 21.2-82.55 21.2-43.57 0-82.5-21.2-38.94-21.21-62.94-60.29H190.26v123.23q0 5.39 3.46 8.85t8.85 3.46Zm277.48-104.3q33.44 0 61.98-16.85 28.53-16.85 44.38-46.51 6.03-9.8 16.5-13.96 10.47-4.17 22.07-4.17h144.76v-381.38q0-5.39-3.46-8.85t-8.85-3.46H202.57q-5.39 0-8.85 3.46t-3.46 8.85v381.38h144.95q11.41 0 21.88 4.17 10.47 4.16 16.5 13.96 15.85 29.66 44.44 46.51 28.59 16.85 62.02 16.85Zm-277.48 104.3H190.26h579.48-567.17Z"/></svg>