<svg xmlns="http://www.w3.org/2000/svg" height="40" viewBox="0 -960 960 960" width="40"><path d="M162.57-180q-25.79 0-44.18-18.39T100-242.57v-474.86q0-25.79 18.39-44.18T162.57-780h634.86q25.79 0 44.18 18.39T860-717.43v474.86q0 25.79-18.39 44.18T797.43-180H162.57Zm0-50.26h634.86q4.62 0 8.47-3.84 3.84-3.85 3.84-8.47v-474.86q0-4.62-3.84-8.47-3.85-3.84-8.47-3.84H162.57q-4.62 0-8.47 3.84-3.84 3.85-3.84 8.47v474.86q0 4.62 3.84 8.47 3.85 3.84 8.47 3.84Zm284.76-111.79-68.51-90.1q-4.95-6.03-12.37-6.23-7.42-.21-12.37 5.95l-66.46 87.3q-6.16 8.16-1.67 16.64 4.49 8.49 13.85 8.49h363.89q9.03 0 13.6-8.49 4.58-8.48-1.04-16.64l-98.76-133.46q-4.95-6.41-12.57-6.41-7.61 0-12.56 6.41L447.33-342.05ZM150.26-230.26v-499.48 499.48Z"/></svg>