<svg xmlns="http://www.w3.org/2000/svg" height="40" viewBox="0 -960 960 960" width="40"><path d="M162.57-140q-25.79 0-44.18-18.39T100-202.57v-471.48q0-25.44 18.39-44t44.18-18.56h132.3l54.87-62.65q8.36-10.17 20.57-15.46 12.21-5.28 26.31-5.28h166.76q14.1 0 26.31 5.28 12.21 5.29 20.57 15.46l54.87 62.65h132.3q25.44 0 44 18.56 18.57 18.56 18.57 44v471.48q0 25.79-18.57 44.18-18.56 18.39-44 18.39H162.57Zm0-50.26h634.86q5.39 0 8.85-3.46t3.46-8.85v-471.48q0-5.13-3.46-8.72-3.46-3.59-8.85-3.59H642.15l-73.38-83.38H391.23l-73.38 83.38H162.57q-5.39 0-8.85 3.59t-3.46 8.72v471.48q0 5.39 3.46 8.85t8.85 3.46ZM480-438.51Zm.21 160.15q65.61 0 112.57-44.74 46.96-44.75 46.96-109.88 0-10.69-7.25-17.91-7.25-7.21-18-7.21t-17.87 7.21q-7.13 7.22-7.13 17.91 0 44.06-31.69 74.21-31.7 30.15-76.52 30.15h-75.53q-9.67 0-12.21 10.2-2.54 10.19 7.05 16.75 17.59 11.95 37.86 17.63t41.76 5.68ZM345.71-418.1q10.75 0 17.88-7.22 7.13-7.21 7.13-17.91 0-44.05 31.69-74.21 31.69-30.15 76.51-30.15h75.54q9.66 0 12.2-10.06 2.54-10.07-7.3-16.89-17.34-11.69-37.7-17.5-20.37-5.81-41.66-5.81-65.62 0-112.58 44.75-46.96 44.74-46.96 109.87 0 10.7 7.25 17.91 7.25 7.22 18 7.22Z"/></svg>