<svg xmlns="http://www.w3.org/2000/svg" height="40" viewBox="0 -960 960 960" width="40"><path d="M162.57-180q-25.79 0-44.18-18.39T100-242.57v-474.86q0-25.79 18.39-44.18T162.57-780h634.86q25.79 0 44.18 18.39T860-717.43v474.86q0 25.79-18.39 44.18T797.43-180H162.57Zm0-50.26h634.86q4.62 0 8.47-3.84 3.84-3.85 3.84-8.47v-474.86q0-4.62-3.84-8.47-3.85-3.84-8.47-3.84H162.57q-4.62 0-8.47 3.84-3.84 3.85-3.84 8.47v474.86q0 4.62 3.84 8.47 3.85 3.84 8.47 3.84Zm-12.31 0v-499.48 499.48ZM400-447l124.08 124.08q9.4 9.35 21.94 9.35 12.54 0 21.9-9.35l156.77-156.77q7.23-7.23 7.23-17.45 0-10.22-6.97-18.04-7.73-7.72-18.06-7.52-10.33.19-17.81 7.62L546-372 421.92-496.08q-9.36-9.35-21.92-9.15-12.56.21-21.92 9.56L235.31-353.31q-7.23 7.23-7.23 17.65 0 10.41 6.97 17.84 7.73 7.33 18.06 7.33 10.33 0 17.81-7.43L400-447Zm134.29-116.9 19.04 40.72q2.35 4.95 7.42 4.95t7.15-4.95l17.48-40.84 41.23-18.93q4.95-2.34 4.76-7.41-.19-5.08-5.14-7.15l-40.85-17.87-17.48-40.85q-2.35-4.95-7.42-4.95t-7.15 4.95l-18.92 40.85-40.85 17.87q-4.94 2.34-4.94 7.41 0 5.08 4.94 7.15l40.73 19.05Z"/></svg>