<svg xmlns="http://www.w3.org/2000/svg" height="40" viewBox="0 -960 960 960" width="40"><path d="M455.28-528.41v166.05q0 10.68 7.46 17.7 7.47 7.02 17.89 7.02 10.43 0 17.47-7.47 7.03-7.46 7.03-17.66v-165.44l63.74 63.95q7.18 7.34 17.37 7.79 10.2.44 17.76-7.16 7.82-7.88 7.82-18.01 0-10.13-7.82-17.95L501.51-602.33q-9.61-9.36-22.06-9.36t-21.78 9.36L354.92-499.59q-7.43 7.48-7.32 17.52.12 10.04 7.94 18.01 7.82 7.47 17.91 7.44 10.09-.02 17.88-7.59l63.95-64.2ZM162.57-180q-25.79 0-44.18-18.39T100-242.57v-474.86q0-25.79 18.39-44.18T162.57-780h634.86q25.79 0 44.18 18.39T860-717.43v474.86q0 25.79-18.39 44.18T797.43-180H162.57Zm0-50.26h634.86q4.62 0 8.47-3.84 3.84-3.85 3.84-8.47v-474.86q0-4.62-3.84-8.47-3.85-3.84-8.47-3.84H162.57q-4.62 0-8.47 3.84-3.84 3.85-3.84 8.47v474.86q0 4.62 3.84 8.47 3.85 3.84 8.47 3.84Zm-12.31 0v-499.48 499.48Z"/></svg>