<svg xmlns="http://www.w3.org/2000/svg" height="40" viewBox="0 -960 960 960" width="40"><path d="M162.57-180q-25.79 0-44.18-18.39T100-242.57v-474.86q0-25.79 18.39-44.18T162.57-780h634.86q25.79 0 44.18 18.39T860-717.43v474.86q0 25.79-18.39 44.18T797.43-180H162.57Zm0-50.26h634.86q4.62 0 8.47-3.84 3.84-3.85 3.84-8.47v-474.86q0-4.62-3.84-8.47-3.85-3.84-8.47-3.84H162.57q-4.62 0-8.47 3.84-3.84 3.85-3.84 8.47v474.86q0 4.62 3.84 8.47 3.85 3.84 8.47 3.84Zm-12.31 0v-499.48 499.48Zm263.13-149.59H273.64q-10.7 0-17.91 7.25-7.22 7.25-7.22 18t7.22 17.88q7.21 7.13 17.91 7.13h58.26v17.44q0 10.69 7.25 17.91 7.25 7.21 18 7.21t17.88-7.21q7.12-7.22 7.12-17.91v-17.44h48.67q14.41 0 23.62-10.36 9.2-10.36 9.2-24.27v-106.93q0-14.75-9.2-24.9-9.21-10.15-23.62-10.15H298.77v-73.95h139.74q10.7 0 17.92-7.25 7.21-7.25 7.21-18t-7.21-17.88q-7.22-7.13-17.92-7.13h-56.36v-17.44q0-10.69-7.25-17.91-7.25-7.21-18-7.21t-17.87 7.21q-7.13 7.22-7.13 17.91v17.44h-48.41q-14.67 0-24.82 10.36-10.16 10.36-10.16 25.02v106.27q0 14.66 10.16 23.73 10.15 9.08 24.82 9.08h129.9v76.1Zm236.8 59.55 42.31-42.3q4.04-3.78 2.15-8.59-1.89-4.81-7.46-4.81h-84.47q-5.57 0-7.54 4.81-1.97 4.81 2.06 8.59l42.31 42.3q2.37 2.38 5.32 2.38t5.32-2.38ZM602.55-574h84.47q5.57 0 7.54-4.81 1.98-4.81-2.06-8.59l-42.31-42.3q-2.37-2.38-5.32-2.38t-5.32 2.38l-42.31 42.3q-4.03 3.78-2.15 8.59 1.89 4.81 7.46 4.81Z"/></svg>