<svg xmlns="http://www.w3.org/2000/svg" height="40" viewBox="0 -960 960 960" width="40"><path d="M202.57-190.26h554.86q4.62 0 8.47-3.84 3.84-3.85 3.84-8.47V-558q-19.42 12.46-41.49 18.74-22.08 6.28-45.28 6.28-62.44 0-106.76-44.16-44.31-44.16-44.31-106.65 0-22.88 6.28-44.65t18.74-41.3H202.57q-4.62 0-8.47 3.84-3.84 3.85-3.84 8.47v554.86q0 4.62 3.84 8.47 3.85 3.84 8.47 3.84Zm0 50.26q-25.79 0-44.18-18.39T140-202.57v-554.86q0-25.79 18.39-44.18T202.57-820h554.86q25.79 0 44.18 18.39T820-757.43v554.86q0 25.79-18.39 44.18T757.43-140H202.57Zm-12.31-629.74v579.48-579.48Z"/></svg>