<svg xmlns="http://www.w3.org/2000/svg" height="40" viewBox="0 -960 960 960" width="40"><path d="M397.49-326.92q-14.04 0-23.46-9.42-9.41-9.42-9.41-23.46v-125.02q0-14.04 9.41-23.45 9.42-9.42 23.46-9.42H405v-40q0-31.46 21.96-53.42 21.96-21.97 53.42-21.97 31.47 0 53.43 21.97 21.96 21.96 21.96 53.42v40h7.51q13.65 0 22.88 9.42 9.22 9.41 9.22 23.45v125.43q0 13.44-9.53 22.95-9.54 9.52-23.34 9.52H397.49Zm38.02-190.77h89.75v-40q0-18.49-13.2-30.94-13.19-12.45-31.68-12.45-18.48 0-31.67 12.48-13.2 12.47-13.2 30.91v40ZM282.57-60q-25.79 0-44.18-18.39T220-122.57v-714.86q0-25.79 18.39-44.18T282.57-900h394.86q25.79 0 44.18 18.39T740-837.43v714.86q0 25.79-18.39 44.18T677.43-60H282.57Zm-12.31-95.39v32.82q0 4.62 3.84 8.47 3.85 3.84 8.47 3.84h394.86q4.62 0 8.47-3.84 3.84-3.85 3.84-8.47v-32.82H270.26Zm0-50.25h419.48v-548.72H270.26v548.72Zm0-598.97h419.48v-32.82q0-4.62-3.84-8.47-3.85-3.84-8.47-3.84H282.57q-4.62 0-8.47 3.84-3.84 3.85-3.84 8.47v32.82Zm0 0V-849.74v45.13Zm0 649.22V-110.26v-45.13Z"/></svg>