<svg xmlns="http://www.w3.org/2000/svg" height="40" viewBox="0 -960 960 960" width="40"><path d="M408.02-528.41q10.75 0 17.88-7.22 7.13-7.21 7.13-17.91v-96.97q0-10.45-7.25-17.79t-18-7.34q-10.75 0-17.88 7.34-7.13 7.34-7.13 17.79v96.97q0 10.7 7.25 17.91 7.25 7.22 18 7.22Zm115.74 0q10.75 0 17.88-7.22 7.13-7.21 7.13-17.91v-96.97q0-10.45-7.25-17.79t-18-7.34q-10.75 0-17.88 7.34-7.13 7.34-7.13 17.79v96.97q0 10.7 7.25 17.91 7.25 7.22 18 7.22Zm115.49 0q10.75 0 17.88-7.22 7.13-7.21 7.13-17.91v-96.97q0-10.45-7.25-17.79t-18-7.34q-10.75 0-17.88 7.34-7.13 7.34-7.13 17.79v96.97q0 10.7 7.25 17.91 7.25 7.22 18 7.22ZM242.57-100q-25.79 0-44.18-18.39T180-162.57v-443.51q0-12.86 5.08-24.44 5.08-11.58 13.69-20.2l190.51-190.77q8.62-8.35 20.2-13.43t24.44-5.08h283.51q25.79 0 44.18 18.39T780-797.43v634.86q0 25.79-18.39 44.18T717.43-100H242.57Zm0-50.26h474.86q4.62 0 8.47-3.84 3.84-3.85 3.84-8.47v-634.86q0-4.62-3.84-8.47-3.85-3.84-8.47-3.84H430.21l-199.95 199.9v447.27q0 4.62 3.84 8.47 3.85 3.84 8.47 3.84Zm0 0h-12.31 499.48-487.17Z"/></svg>