<svg xmlns="http://www.w3.org/2000/svg" height="40" viewBox="0 -960 960 960" width="40"><path d="M640.15-150.26q5.13 0 8.72-3.46 3.59-3.46 3.59-8.85v-358.76q0-5.13-3.59-8.72-3.59-3.59-8.72-3.59H162.57q-5.39 0-8.85 3.59t-3.46 8.72v358.76q0 5.39 3.46 8.85t8.85 3.46h477.58Zm62.57-225.84v-50.26h94.71q5.39 0 8.85-3.59t3.46-8.72v-358.76q0-5.39-3.46-8.85t-8.85-3.46H319.85q-5.13 0-8.72 3.46-3.59 3.46-3.59 8.85v213.53h-50.26v-213.53q0-25.79 18.39-44.18T319.85-860h477.58q25.79 0 44.18 18.39T860-797.43v358.76q0 25.79-18.39 44.18t-44.18 18.39h-94.71ZM162.57-100q-25.79 0-44.18-18.39T100-162.57v-358.76q0-25.79 18.39-44.18t44.18-18.39h474.71q27.21 0 46.32 18.99 19.12 18.99 19.12 45.65v356.69q0 25.79-18.39 44.18T640.15-100H162.57Zm396.2-595.92ZM401.23-341.95Z"/></svg>