<svg xmlns="http://www.w3.org/2000/svg" height="40" viewBox="0 -960 960 960" width="40"><path d="M402.57-100q-25.71 0-44.14-18.43T340-162.57v-44.35l-113.84-226.8q-3.16-6.15-4.66-13.62-1.5-7.47-1.5-14.46v-149.48q0-20.1 11.21-36.25 11.2-16.14 28.79-23.7v-124.28q0-26.21 18.57-45.35 18.56-19.14 44-19.14h314.86q25.44 0 44 19.14Q700-821.72 700-795.51v124.28q17.59 7.56 28.79 23.7Q740-631.38 740-611.28v149.48q0 6.99-1.5 14.46-1.5 7.47-4.66 13.62L620-206.92v44.35q0 25.71-18.43 44.14T557.43-100H402.57Zm-92.31-575.77h90.97v-67.65q0-6.34 4.89-11.23 4.89-4.89 11.67-4.89 6.47 0 11.29 4.89 4.82 4.89 4.82 11.23v67.65h92.2v-67.65q0-6.34 4.89-11.23 4.89-4.89 11.67-4.89 6.47 0 11.29 4.89 4.82 4.89 4.82 11.23v67.65h90.97v-119.74q0-6.16-3.46-10.19-3.46-4.04-8.85-4.04H322.57q-5.39 0-8.85 4.04-3.46 4.03-3.46 10.19v119.74Zm92.31 525.51h154.86q5.39 0 8.85-3.46t3.46-8.85V-220l120-241.18v-152.03q0-5.38-3.46-8.84t-8.85-3.46H282.57q-5.39 0-8.85 3.46t-3.46 8.84v152.03l120 241.18v57.43q0 5.39 3.46 8.85t8.85 3.46ZM480-461.18Z"/></svg>