<svg xmlns="http://www.w3.org/2000/svg" height="40" viewBox="0 -960 960 960" width="40"><path d="M581.18-63.08q-23.33 0-39.36-16.15-16.02-16.16-16.02-39.23v-258.46q0-23.08 16.02-39.23 16.03-16.16 39.36-16.16h258.46q23.08 0 39.23 16.16 16.15 16.15 16.15 39.23v258.46q0 23.07-16.15 39.23-16.15 16.15-39.23 16.15H581.18ZM438.1-257v157h-9.64q-14.1 0-24.22-9.24-10.11-9.25-12.26-23.14l-12.75-88.39q-19.05-6.46-40.47-18.59-21.43-12.13-37.3-25.77l-80.95 36.49q-13.56 5.74-27.19 1.28t-21.19-17.2l-50.62-88.98q-7.56-12.74-4.38-26.45 3.18-13.7 14.97-22.68L205.16-437q-1.8-10-2.58-21.31-.78-11.31-.78-21.31 0-9.61.78-20.85.78-11.25 2.58-22.53l-73.06-54.33q-11.79-8.98-14.78-22.88-2.99-13.89 4.58-26.64l50.23-87.82q7.56-12.35 21.19-17.01 13.63-4.65 27.19 1.09l80.57 35.85q17.02-13.77 37.78-25.71 20.76-11.93 39.99-18.11l13.13-89.05q2.15-13.9 12.91-23.15 10.75-9.24 24.85-9.24h100.52q14.1 0 24.85 9.24 10.76 9.25 12.91 23.15l12.75 88.76q20.72 7.62 40.29 18.58 19.58 10.96 36.32 25.53l82.49-35.85q13.57-5.74 26.99-1.09 13.42 4.66 20.98 17.01l50.65 88.21q7.56 12.74 4.38 26.75-3.18 14.02-14.97 22.38l-54.31 39.53q-8.39 5.95-18.08 5.66-9.69-.3-16.9-8.07-7.61-8.84-6.38-19.64 1.23-10.79 10.08-17.2l46.31-33.82-39.8-69.9-103.92 44.28q-20.75-22.95-49.94-40.48-29.19-17.54-59.78-22.65L521.9-809.74h-83.59L425.08-700q-32.36 6.82-59.64 22.49-27.29 15.66-51.23 40.43l-103.03-43.69-39.8 69.9 90.44 66.69q-4.59 15.31-6.79 31.31-2.21 16-2.21 33.25 0 16.29 2.21 31.9 2.2 15.62 6.41 31.31l-90.06 67.28 39.8 69.9 102.64-43.9q25.49 25.69 56.94 42.55 31.45 16.86 67.34 23.58Zm41.28-223Zm0-115.13q-47.76 0-81.44 33.45T364.26-480q0 20.92 6.93 39.79 6.94 18.88 20.4 34.54 7.62 9.67 18.73 11.18 11.12 1.51 19.91-5.69 8.39-7 9.12-17.17.73-10.16-6.48-17.19-9.05-8.66-13.7-20.42-4.66-11.76-4.66-25.04 0-26.9 18.99-45.88 18.99-18.99 45.88-18.99 12.93 0 24.56 4.82 11.62 4.82 20.7 13.87 6.77 6.8 16.55 5.8 9.78-1 16.78-9.39 7-9.05 5.39-19.86-1.62-10.8-10.67-18.83-14.31-12.82-33.23-19.74-18.92-6.93-40.08-6.93Zm0 115.13Zm231.03 269.23q-27.56 0-53.22 8.56-25.65 8.57-47.11 25.93-13.31 10.28-19.82 20.23-6.52 9.95-6.52 19.97 0 6.49 4.29 10.77 4.28 4.28 10.76 4.28h227.65q4.61 0 7.62-4.21 3.02-4.22 3.02-10.84 0-10.02-6.52-19.97-6.51-9.95-19.82-20.23-21.71-17.36-47.37-25.93-25.65-8.56-52.96-8.56Zm0-36.92q23.08 0 39.23-16.16 16.15-16.15 16.15-39.23 0-23.07-16.15-39.23-16.15-16.15-39.23-16.15-23.33 0-39.36 16.15-16.02 16.16-16.02 39.23 0 23.08 16.02 39.23 16.03 16.16 39.36 16.16Z"/></svg>