<svg xmlns="http://www.w3.org/2000/svg" height="40" viewBox="0 -960 960 960" width="40"><path d="M202.57-140q-25.79 0-44.18-18.39T140-202.57v-554.86q0-25.79 18.39-44.18T202.57-820h554.86q25.79 0 44.18 18.39T820-757.43v554.86q0 25.79-18.39 44.18T757.43-140H202.57Zm0-50.26h554.86q4.62 0 8.47-3.84 3.84-3.85 3.84-8.47v-554.86q0-4.62-3.84-8.47-3.85-3.84-8.47-3.84H202.57q-4.62 0-8.47 3.84-3.84 3.85-3.84 8.47v554.86q0 4.62 3.84 8.47 3.85 3.84 8.47 3.84Zm-12.31-579.48v579.48-579.48ZM480-280q14.69 0 25.04-10.35 10.34-10.34 10.34-25.03 0-14.7-10.34-25.04-10.35-10.35-25.04-10.35t-25.04 10.35q-10.34 10.34-10.34 25.04 0 14.69 10.34 25.03Q465.31-280 480-280Zm-160 0q14.69 0 25.04-10.35 10.34-10.34 10.34-25.03 0-14.7-10.34-25.04-10.35-10.35-25.04-10.35t-25.04 10.35q-10.34 10.34-10.34 25.04 0 14.69 10.34 25.03Q305.31-280 320-280Zm320 0q14.69 0 25.04-10.35 10.34-10.34 10.34-25.03 0-14.7-10.34-25.04-10.35-10.35-25.04-10.35t-25.04 10.35q-10.34 10.34-10.34 25.04 0 14.69 10.34 25.03Q625.31-280 640-280Z"/></svg>