<svg xmlns="http://www.w3.org/2000/svg" height="40" viewBox="0 -960 960 960" width="40"><path d="m439.9-292.31 156.53-100.95q14.31-9.47 14.31-26.24 0-16.77-14.31-26.17L440.56-547.28q-15.76-10.36-32.21-1.65-16.45 8.72-16.45 27.52v203.23q0 18.8 16.24 27.52 16.25 8.71 31.76-1.65ZM162.57-140q-25.79 0-44.18-18.39T100-202.57v-466.15q0-13.39 8.95-22.33 8.94-8.95 22.33-8.95H340v-77.43q0-25.79 18.39-44.18T402.57-840h154.86q25.79 0 44.18 18.39T620-777.43V-700h208.72q13.39 0 22.33 8.95 8.95 8.94 8.95 22.33v466.15q0 25.79-18.39 44.18T797.43-140H162.57Zm0-50.26h634.86q4.62 0 8.47-3.84 3.84-3.85 3.84-8.47v-447.17H150.26v447.17q0 4.62 3.84 8.47 3.85 3.84 8.47 3.84ZM390.26-700h179.48v-77.43q0-4.62-3.84-8.47-3.85-3.84-8.47-3.84H402.57q-4.62 0-8.47 3.84-3.84 3.85-3.84 8.47V-700Zm-240 509.74v-459.48 459.48Z"/></svg>