<svg xmlns="http://www.w3.org/2000/svg" height="40" viewBox="0 -960 960 960" width="40"><path d="M612.56-416.41h232.57V-575.9H612.56v159.49Zm19.36 50.26-42.48 42.48q-7.36 7.36-17.25 3.68-9.88-3.68-9.88-13.99v-260.73q0-13.55 8.99-22.5 8.99-8.94 22.29-8.94H864.1q13.3 0 22.29 8.99 8.99 8.99 8.99 22.29v197.43q0 13.3-8.99 22.29-8.99 9-22.29 9H631.92ZM270.26-155.39v32.82q0 4.62 3.84 8.47 3.85 3.84 8.47 3.84h394.86q4.62 0 8.47-3.84 3.84-3.85 3.84-8.47v-32.82H270.26Zm0-649.22h419.48v-32.82q0-4.62-3.84-8.47-3.85-3.84-8.47-3.84H282.57q-4.62 0-8.47 3.84-3.84 3.85-3.84 8.47v32.82Zm0 0V-849.74v45.13Zm0 649.22V-110.26v-45.13Zm342.3-261.02V-575.9v159.49ZM282.57-60q-25.61 0-44.09-18.48Q220-96.96 220-122.57v-714.86q0-25.61 18.48-44.09Q256.96-900 282.57-900h394.86q25.61 0 44.09 18.48Q740-863.04 740-837.43v114.25q0 10.68-7.26 17.9-7.27 7.23-18 7.23-10.74 0-17.87-7.23-7.13-7.22-7.13-17.9v-31.18H270.26v548.72h419.48v-31.18q0-10.68 7.27-17.9 7.26-7.23 18-7.23 10.73 0 17.86 7.23 7.13 7.22 7.13 17.9v114.25q0 25.61-18.48 44.09Q703.04-60 677.43-60H282.57Z"/></svg>