<svg xmlns="http://www.w3.org/2000/svg" height="40" viewBox="0 -960 960 960" width="40"><path d="M162.57-300q-25.71 0-44.14-18.43T100-362.57v-234.86q0-25.71 18.43-44.14T162.57-660h634.86q25.71 0 44.14 18.43T860-597.43v234.86q0 25.71-18.43 44.14T797.43-300H162.57Zm0-50.26h634.86q5.39 0 8.85-3.46t3.46-8.85v-234.86q0-5.39-3.46-8.85t-8.85-3.46H676.2q11.11 14.71 17.45 32.6Q700-559.26 700-540q0 48.54-35.54 84.27T580-420H380q-48.54 0-84.27-35.73T260-540q0-19.26 6.35-37.14 6.34-17.89 17.45-32.6H162.57q-5.39 0-8.85 3.46t-3.46 8.85v234.86q0 5.39 3.46 8.85t8.85 3.46Zm217.43-120h74.87v-139.48H380q-27.9 0-48.82 20.9t-20.92 48.77q0 27.86 20.92 48.84 20.92 20.97 48.82 20.97Zm125.13 0H580q28.05 0 48.9-20.95 20.84-20.96 20.84-48.9 0-27.94-20.84-48.79-20.85-20.84-48.9-20.84h-74.87v139.48Zm292.3 120H150.26 162.57h-12.31 659.48-12.31H809.74 797.43Z"/></svg>