<svg xmlns="http://www.w3.org/2000/svg" height="40" viewBox="0 -960 960 960" width="40"><path d="M202.57-140q-25.79 0-44.18-18.39T140-202.57v-554.86q0-25.79 18.39-44.18T202.57-820h554.86q25.79 0 44.18 18.39T820-757.43v554.86q0 25.79-18.39 44.18T757.43-140H202.57Zm0-50.26h554.86q4.62 0 8.47-3.84 3.84-3.85 3.84-8.47v-554.86q0-4.62-3.84-8.47-3.85-3.84-8.47-3.84H202.57q-4.62 0-8.47 3.84-3.84 3.85-3.84 8.47v554.86q0 4.62 3.84 8.47 3.85 3.84 8.47 3.84Zm-12.31-579.48v579.48-579.48Zm148.97 204.1v201.28q0 10.7 7.25 17.91 7.25 7.22 18 7.22t17.88-7.22q7.13-7.21 7.13-17.91v-201.28H493.8l79.69 210.77q2.54 7.11 8.58 11.38 6.03 4.26 13.88 4.26h18.72q7.97 0 14.02-4.26 6.06-4.27 8.59-11.38l85.51-224.23q4.62-13.46-3.26-25.13-7.88-11.67-22.57-11.67-8.94 0-15.47 4.75-6.54 4.74-9.72 13.13l-66.39 177.48-64.89-174.84q-2.95-9.62-11.19-15.07-8.23-5.45-18.1-5.45H243.85q-10.7 0-17.92 7.25-7.21 7.25-7.21 18t7.21 17.88q7.22 7.13 17.92 7.13h95.38Z"/></svg>