<svg xmlns="http://www.w3.org/2000/svg" height="40" viewBox="0 -960 960 960" width="40"><path d="m710.77-517.43 113.76-113.76q7.24-7.24 17.12-3.51 9.89 3.73 9.89 14.19v281.02q0 10.46-9.89 14.19-9.88 3.73-17.12-3.51L710.77-442.82v47.44q0 10.68-7.26 17.9-7.27 7.22-18 7.22-10.74 0-17.87-7.22-7.13-7.22-7.13-17.9v-322.05q0-5.39-3.46-8.85t-8.84-3.46H326.82q-12.56 0-18.85-7.8-6.28-7.79-6.28-17.14 0-9.35 6.28-17.33 6.29-7.99 18.85-7.99h321.39q25.78 0 44.17 18.39t18.39 44.18v200ZM793.95-91.8 85.44-800.31q-7.23-7.23-7.42-17.5-.2-10.27 7.42-17.88 7.61-7.62 17.69-7.62 10.08 0 17.69 7.62l708.51 708.51q7.23 7.23 7.42 17.5.2 10.27-7.42 17.88-7.61 7.62-17.69 7.62-10.08 0-17.69-7.62ZM495.46-560.9Zm-87.95 82.44ZM177.28-779.23l49.49 49.49h-53.43q-5.39 0-8.85 3.46t-3.46 8.85v474.86q0 5.39 3.46 8.85t8.85 3.46h474.87q5.38 0 8.84-3.46t3.46-8.85V-296L710-246.51v9.33q-1.92 23.48-19.76 40.33Q672.4-180 648.21-180H173.34q-25.79 0-44.18-18.39t-18.39-44.18v-474.86q0-24.2 16.69-42.04 16.7-17.84 40.49-19.76h9.33Z"/></svg>