<svg xmlns="http://www.w3.org/2000/svg" height="40" viewBox="0 -960 960 960" width="40"><path d="M719.79-134.51q8.62 0 14.57-5.62 5.95-5.61 5.95-14.43 0-8.83-6.02-14.57-6.01-5.74-14.16-5.74-8.95 0-14.69 5.74-5.75 5.74-5.75 14.57 0 8.82 5.75 14.43 5.74 5.62 14.35 5.62Zm.21-79.23q7.23 0 11.72-4.82 4.48-4.83 4.48-12.18v-98.42q0-7.35-4.64-11.84t-11.97-4.49q-7.23 0-11.72 4.68-4.49 4.67-4.49 12.05v98.81q0 6.98 4.65 11.59 4.64 4.62 11.97 4.62Zm-569.74 11.17v-7.38 19.69-459.48 447.17ZM162.57-140q-25.79 0-44.18-18.39T100-202.57v-434.86q0-25.79 18.39-44.18T162.57-700H340v-77.43q0-25.44 18.39-44Q376.78-840 402.57-840h154.86q25.79 0 44.18 18.57 18.39 18.56 18.39 44V-700h177.43q25.79 0 44.18 18.39T860-637.43v158.12q0 10.65-7.25 17.39t-18 6.74q-10.75 0-17.88-7.21-7.13-7.22-7.13-17.92v-157.12q0-5.39-3.46-8.85t-8.85-3.46H162.57q-5.39 0-8.85 3.46t-3.46 8.85v434.86q0 5.39 3.46 8.85t8.85 3.46H455.1q10.7 0 17.92 7.25 7.21 7.25 7.21 18t-7.21 17.88Q465.8-140 455.1-140H162.57Zm227.69-560h179.48v-77.43q0-5.39-3.46-8.85t-8.85-3.46H402.57q-5.39 0-8.85 3.46t-3.46 8.85V-700ZM720-63.39q-73.03 0-124.82-51.79-51.79-51.79-51.79-124.82t51.79-124.82q51.79-51.79 124.82-51.79t124.82 51.79q51.79 51.79 51.79 124.82t-51.79 124.82Q793.03-63.39 720-63.39Z"/></svg>