<svg xmlns="http://www.w3.org/2000/svg" height="24" viewBox="0 -960 960 960" width="24"><path d="M200-396.413q-18.524 0-31.056-12.531-12.531-12.532-12.531-31.056t12.531-31.056q12.532-12.531 31.056-12.531h152.587v-74.5H198.326q-17.813 0-29.863-12.05T156.413-600q0-17.813 12.05-29.863t29.863-12.05h154.261v-74.5H200q-18.524 0-31.056-12.531-12.531-12.532-12.531-31.056t12.531-31.056q12.532-12.531 31.056-12.531h152.587q36.587 0 62 25.293Q440-753 440-716.413V-660q0 25.067-15.206 41.458-15.207 16.39-39.772 18.542 24.565 2.152 39.772 18.542Q440-565.067 440-540v56.413q0 36.587-25.413 61.881-25.413 25.293-62 25.293H200Zm407.413 0q-36.587 0-62-25.293Q520-447 520-483.587v-232.826q0-36.587 25.413-61.881 25.413-25.293 62-25.293h116.174q36.587 0 62 25.293Q811-753 811-716.413v232.826q0 36.587-25.413 61.881-25.413 25.293-62 25.293H607.413Zm0-87.174h116.174v-232.826H607.413v232.826ZM149-80q-17.813 0-29.863-12.05t-12.05-29.863v-116.174q0-17.813 12.05-29.863T149-280q17.813 0 29.863 12.05t12.05 29.863v116.174q0 17.813-12.05 29.863T149-80Zm163.822 0q-17.713 0-29.811-12.05-12.098-12.05-12.098-29.863v-116.413q0-17.711 12.05-29.693Q295.013-280 312.826-280q17.711 0 29.693 12.05Q354.5-255.9 354.5-238.087v116.413q0 17.711-11.983 29.693Q330.535-80 312.822-80Zm163.587 0q-17.713 0-29.811-12.05Q434.5-104.1 434.5-121.913v-116.413q0-17.711 12.05-29.693Q458.6-280 476.413-280q17.711 0 29.693 12.05 11.981 12.05 11.981 29.863v116.413q0 17.711-11.983 29.693Q494.122-80 476.409-80ZM640-80q-17.813 0-29.863-12.05t-12.05-29.863v-116.413q0-17.711 12.05-29.693Q622.187-280 640-280h171.239q17.712 0 29.693 11.981 11.981 11.982 11.981 29.693v116.413q0 17.813-11.981 29.863T811.239-80H640Z"/></svg>