<svg xmlns="http://www.w3.org/2000/svg" height="24" viewBox="0 -960 960 960" width="24"><path d="M202.87-111.869q-37.783 0-64.392-26.609-26.609-26.609-26.609-64.392v-554.26q0-37.783 26.609-64.392 26.609-26.609 64.392-26.609h554.26q37.783 0 64.392 26.609 26.609 26.609 26.609 64.392H520.478q-69.565 0-113.587 44.021-44.021 44.022-44.021 113.587V-360q0 69.565 44.021 113.348 44.022 43.782 113.587 43.782h327.653q0 37.783-26.609 64.392-26.609 26.609-64.392 26.609H202.87ZM520.478-280q-32.761 0-56.619-23.62Q440-327.239 440-360v-239.522q0-32.761 23.859-56.619Q487.717-680 520.478-680h287.174q32.761 0 56.62 23.859 23.859 23.858 23.859 56.619V-360q0 32.761-23.859 56.38Q840.413-280 807.652-280H520.478ZM640-420q26 0 43-17t17-43q0-26-17-43t-43-17q-26 0-43 17t-17 43q0 26 17 43t43 17Z"/></svg>