<svg xmlns="http://www.w3.org/2000/svg" height="24" viewBox="0 -960 960 960" width="24"><path d="M724.065-600q-17.717 0-29.815-12.098-12.098-12.098-12.098-29.815v-41.674h-41.674q-17.717 0-29.815-12.098-12.098-12.098-12.098-29.815 0-17.718 12.098-29.815 12.098-12.098 29.815-12.098h41.674v-41.674q0-17.718 12.098-29.815Q706.348-851 724.065-851q17.718 0 29.816 12.098 12.097 12.097 12.097 29.815v41.674h41.674q17.718 0 29.816 12.098 12.097 12.097 12.097 29.815 0 17.717-12.097 29.815-12.098 12.098-29.816 12.098h-41.674v41.674q0 17.717-12.097 29.815Q741.783-600 724.065-600Zm-440 320h389q13.913 0 20.511-12.435 6.598-12.435-2.359-23.869l-104.5-139.587q-6.956-9.196-18.152-9.196-11.195 0-18.152 9.196L448.565-320l-71.848-95.891q-6.956-9.196-18.152-9.196-11.195 0-18.152 9.196l-74.5 99.587q-8.956 11.434-2.359 23.869Q270.152-280 284.065-280Zm-82.63 168.131q-37.783 0-64.392-26.609-26.608-26.609-26.608-64.392v-554.26q0-37.783 26.608-64.392 26.609-26.609 64.392-26.609h304.217q19.152 0 32.326 13.174t13.174 32.327v120.717q0 19.152 13.174 32.326t32.326 13.174h38.326v38.326q0 19.152 13.174 32.326t32.326 13.174h120.718q19.152 0 32.326 13.174t13.174 32.326v304.217q0 37.783-26.609 64.392-26.609 26.609-64.391 26.609H201.435Z"/></svg>