<svg xmlns="http://www.w3.org/2000/svg" height="24" viewBox="0 -960 960 960" width="24"><path d="M454.5-136.086q-32.718 0-61.294-15.761-28.576-15.761-47.011-43.522-14.587-22.391-2.532-46.218 12.054-23.826 38.359-23.826 13 0 23.358 7.642 10.359 7.641 18.837 17.163 5.239 6.521 13.381 10.021 8.141 3.5 16.902 3.5 16.282 0 27.185-11.021 10.902-11.022 10.902-27.305 0-16.282-10.902-27.184Q470.782-303.5 454.5-303.5H121.913q-19.152 0-32.326-13.174T76.413-349q0-19.152 13.174-32.326t32.326-13.174H454.5q53.826 0 91.457 37.631 37.63 37.63 37.63 91.456t-37.63 91.577q-37.631 37.75-91.457 37.75ZM121.913-565.5q-19.152 0-32.326-13.174T76.413-611q0-19.152 13.174-32.326t32.326-13.174H614.5q24.282 0 41.185-16.903 16.902-16.902 16.902-41.184 0-24.283-16.902-41.305-16.903-17.021-41.185-17.021-14.804 0-27.967 6.782-13.163 6.783-20.924 19.587-8.196 12.478-19.511 22.218-11.316 9.739-26.511 9.739-23.826 0-37.522-18.826-13.696-18.827-4.587-39.175 16.391-41.76 53.848-66.543 37.456-24.783 83.174-24.783 61.826 0 105.457 43.631 43.63 43.63 43.63 105.696 0 61.826-43.63 105.456Q676.326-565.5 614.5-565.5H121.913Zm679.674 322.587q-22.87 11.631-44.978-1.185-22.109-12.815-22.109-37.924 0-15.195 9.859-26.011 9.858-10.815 22.337-19.489 12.565-8 19.228-21.043 6.663-13.044 6.663-27.848 0-24.283-16.902-41.185Q758.782-434.5 734.5-434.5H121.913q-19.152 0-32.326-13.174T76.413-480q0-19.152 13.174-32.326t32.326-13.174H734.5q61.826 0 105.457 43.63 43.63 43.631 43.63 105.457 0 42.957-21.88 78.891-21.881 35.935-60.12 54.609Z"/></svg>