<svg xmlns="http://www.w3.org/2000/svg" height="24" viewBox="0 -960 960 960" width="24"><path d="M93.695-95.369v-640.616q0-53.385 37.631-91.015 37.63-37.631 90.978-37.631h173.152q53.348 0 90.859 37.631 37.511 37.63 37.511 91.015v640.616H93.696ZM392.826-357.37h40v-207.652h-40v207.652ZM184.695-186.369h248.131v-80h-40q-37.538 0-64.269-26.732-26.731-26.731-26.731-64.269v-207.652q0-37.537 26.731-64.269 26.731-26.731 64.269-26.731h40v-80q0-15.804-10.744-26.707-10.744-10.902-26.626-10.902H222.304q-15.804 0-26.707 10.902-10.902 10.903-10.902 26.707v549.653Zm510.718-224.174q-27.435 0-54.706-7.957-27.272-7.956-53.903-19.913l28.348-86.522q22.152 9.957 43.087 16.554 20.935 6.598 38.174 6.837 11.761 0 23.761-4t24.761-12q25.435-17.717 50.989-24.195 25.555-6.479 48.786-6.479 26.399 0 55.051 7.337t54.522 19.294l-28.348 86.283q-25.152-9.196-45.728-15.674t-35.533-6.478q-11.93 0-26.345 4.619-14.416 4.62-30.416 15.62-22.327 14.937-45.187 20.805-22.859 5.869-47.313 5.869Zm.961-169.153q-27.396 0-55.548-7.956-28.152-7.957-54.022-19.913l28.348-86.522q28.631 12.195 47.826 17.793 19.196 5.598 33.435 5.598 11.841 0 23.681-3.62 11.841-3.619 24.841-12.38 26.435-17.717 51.401-24.076 24.966-6.359 48.338-6.359 26.196 0 53.587 7.098 27.392 7.098 56.261 19.293l-28.587 86.044q-28.391-9.956-47.826-15.695-19.435-5.74-33.373-5.74-12.942 0-26.382 4.12-13.441 4.12-30.441 15.88-19.23 13.746-43.267 20.091-24.037 6.344-48.272 6.344Zm.097 338.066q-27.493 0-55.264-7.837-27.772-7.837-54.403-19.793l28.348-86.522q24.392 10.956 44.707 16.934 20.315 5.979 36.554 6.218 11.761 0 23.881-3.62 12.119-3.619 24.641-12.38 24.375-16.924 51.929-23.799 27.555-6.875 48.75-6.875 26.495 0 54.767 7.837 28.272 7.837 53.902 19.032l-28.348 86.044q-28.391-9.956-48.326-15.935-19.935-5.978-32.705-5.978-13.752 0-28.332 4.5-14.581 4.5-28.659 15.5-17.956 12.717-42.011 19.696-24.054 6.978-49.431 6.978Zm-263.645 55.261V-743.924v7.902-7.902V-186.369Z"/></svg>