<svg xmlns="http://www.w3.org/2000/svg" height="24" viewBox="0 -960 960 960" width="24"><path d="M803.739-268.087 308.978-767.652q37.522-19.522 80.218-30 42.695-10.479 88.413-10.479 75.674 0 142.608 28.718 66.935 28.717 117.131 79.293 50.196 50.576 79.293 118.131Q845.739-514.435 845.739-436q0 45.478-11.239 87.696-11.239 42.217-30.761 80.217Zm-95.978-519.891q-11.718-11.718-11.718-29.435 0-17.718 11.718-29.435 11.717-11.717 29.435-11.598 17.717.12 29.434 11.837l117.827 117.826q11.717 11.718 11.717 29.316 0 17.597-11.717 29.315-11.718 11.717-29.435 11.717-17.718 0-29.435-11.717L707.761-787.978ZM477.609-71.869q-75.674 0-142.609-28.718-66.935-28.717-117.131-78.032-50.195-49.316-79.293-115.87-29.098-66.554-29.098-142.228 0-62.24 18.38-116.859 18.381-54.62 52.663-100.098l-32.804-32.804-18.326 18.087q-11.717 11.717-29.196 11.597Q82.717-656.913 71-668.63q-11.718-11.718-11.718-29.316T71-727.261l18.087-18.087L50.5-783.935q-11.957-11.956-11.957-29.913 0-17.956 11.957-29.913 11.956-11.956 30.032-11.956 18.077 0 30.033 11.956l734.326 734.326q11.957 11.957 11.837 29.913-.119 17.957-12.076 29.913-11.956 11.957-29.913 11.957T784.826-49.61l-92.022-91.782Q647.326-108.63 592.467-90.25q-54.858 18.38-114.858 18.38Z"/></svg>