<svg xmlns="http://www.w3.org/2000/svg" height="24" viewBox="0 -960 960 960" width="24"><path d="M320.957-395.696q18.673 0 31.489-12.815 12.815-12.815 12.815-31.489t-12.815-31.489q-12.816-12.815-31.489-12.815-18.674 0-31.49 12.815-12.815 12.815-12.815 31.489t12.815 31.489q12.816 12.815 31.49 12.815Zm159.043 0q18.674 0 31.489-12.815 12.815-12.815 12.815-31.489t-12.815-31.489Q498.674-484.304 480-484.304t-31.489 12.815Q435.696-458.674 435.696-440t12.815 31.489q12.815 12.815 31.489 12.815Zm159.043 0q18.674 0 31.49-12.815 12.815-12.815 12.815-31.489t-12.815-31.489q-12.816-12.815-31.49-12.815-18.673 0-31.489 12.815-12.815 12.815-12.815 31.489t12.815 31.489q12.816 12.815 31.489 12.815ZM480-71.869q-76.435 0-143.489-29.098-67.055-29.098-116.75-78.794-49.696-49.695-78.794-116.75Q111.869-363.565 111.869-440t29.098-143.489q29.098-67.055 78.794-116.75 49.695-49.696 116.75-78.794Q403.565-808.131 480-808.131t143.489 29.098q67.055 29.098 116.75 78.794 49.696 49.695 78.794 116.75Q848.131-516.435 848.131-440t-29.098 143.489q-29.098 67.055-78.794 116.75-49.695 49.696-116.75 78.794Q556.435-71.869 480-71.869ZM480-440ZM73.152-670.152q-11.717-11.718-11.598-29.435.12-17.717 11.837-29.435l117.826-117.826q11.718-11.717 29.316-11.717 17.597 0 29.315 11.717 11.717 11.717 11.717 29.435 0 17.717-11.717 29.435L132.022-670.152q-11.718 11.717-29.435 11.717-17.718 0-29.435-11.717Zm813.696 0q-11.717 11.717-29.435 11.717-17.717 0-29.435-11.717L710.152-787.978q-11.717-11.718-11.717-29.435 0-17.718 11.717-29.435 11.718-11.717 29.435-11.598 17.717.12 29.435 11.837l117.826 117.826q11.717 11.718 11.717 29.316 0 17.597-11.717 29.315ZM480-162.87q115.804 0 196.467-80.663Q757.13-324.196 757.13-440q0-115.804-80.663-196.467Q595.804-717.13 480-717.13q-115.804 0-196.467 80.663Q202.87-555.804 202.87-440q0 115.804 80.663 196.467Q364.196-162.87 480-162.87Z"/></svg>