<svg xmlns="http://www.w3.org/2000/svg" height="24" viewBox="0 -960 960 960" width="24"><path d="M550-279.283q20 0 39-8t33-22l18-18q9-9 9-21t-9-21q-9-9-21-9t-21 9l-18 18q-6 6-14 8.5t-16 2.5q-8 0-16-2.5t-14-8.5l-38-38q-14-14-33-21.5t-39-7.5q-20 0-39 7.5t-33 21.5l-18 18q-9 9-9 21t9 21q9 9 21 9t21-9l18-18q6-6 14-8.5t16-2.5q8 0 16 2.5t14 8.5l38 38q14 14 33 22t39 8Zm0-120q20 0 39-8t33-22l18-18q9-9 9-21t-9-21q-9-9-21-9t-21 9l-18 18q-6 6-14 8.5t-16 2.5q-8 0-16-2.5t-14-8.5l-38-38q-14-14-33-21.5t-39-7.5q-20 0-39 7.5t-33 21.5l-18 18q-9 9-9 21t9 21q9 9 21 9t21-9l18-18q6-6 14-8.5t16-2.5q8 0 16 2.5t14 8.5l38 38q14 14 33 22t39 8Zm0-120q20 0 39-8t33-22l18-18q9-9 9-21t-9-21q-9-9-21-9t-21 9l-18 18q-6 6-14 8.5t-16 2.5q-8 0-16-2.5t-14-8.5l-38-38q-14-14-33-21.5t-39-7.5q-20 0-39 7.5t-33 21.5l-18 18q-9 9-9 21t9 21q9 9 21 9t21-9l18-18q6-6 14-8.5t16-2.5q8 0 16 2.5t14 8.5l38 38q14 14 33 22t39 8ZM242.87-151.869q-37.783 0-64.392-26.609-26.609-26.609-26.609-64.392v-355.695q0-21.572 9.576-40.873 9.577-19.301 26.729-31.975l237.13-177.848q24.109-18.391 54.696-18.391 30.587 0 54.696 18.391l237.13 177.848q17.152 12.674 26.729 31.975 9.576 19.301 9.576 40.873v355.695q0 37.783-26.609 64.392-26.609 26.609-64.392 26.609H242.87Zm0-91.001h474.26v-355.695L480-776.413 242.87-598.565v355.695ZM480-509.761Z"/></svg>