<svg xmlns="http://www.w3.org/2000/svg" height="24" viewBox="0 -960 960 960" width="24"><path d="M633.848-434.5H197.37q-19.153 0-32.327-13.174T151.869-480q0-19.152 13.174-32.326T197.37-525.5h436.478L447.174-712.174q-13.674-13.674-13.294-32.065.381-18.391 14.055-32.065 13.674-12.674 32.065-13.055 18.391-.38 32.065 13.294l264 264q6.718 6.717 9.816 14.913 3.097 8.195 3.097 17.152t-3.097 17.152q-3.098 8.196-9.816 14.913L511.826-183.696q-12.913 12.914-31.565 12.914t-32.326-12.914q-13.674-13.674-13.674-32.445 0-18.772 13.674-32.446L633.848-434.5Z"/></svg>