<svg xmlns="http://www.w3.org/2000/svg" height="24" viewBox="0 -960 960 960" width="24"><path d="M480-480Zm277.13 368.131H446.457q-19.153 0-32.327-13.174-13.173-13.174-13.173-32.327 0-19.152 13.173-32.326 13.174-13.174 32.327-13.174H757.13v-554.26H202.87v113.065q0 19.152-13.174 32.326t-32.326 13.174q-19.153 0-32.327-13.174t-13.174-32.326V-757.13q0-37.783 26.609-64.392 26.609-26.609 64.392-26.609h554.26q37.783 0 64.392 26.609 26.609 26.609 26.609 64.392v554.26q0 37.783-26.609 64.392-26.609 26.609-64.392 26.609Zm-496.674 40q-80.434 0-136.771-56.059-56.337-56.059-56.337-135.854 0-55.566 28.184-100.087 28.185-44.522 74.511-68.479h-54.587q-18.195 0-30.652-12.456-12.456-12.457-12.456-30.652 0-18.196 12.456-30.653 12.457-12.456 30.652-12.456h160q19.153 0 32.327 13.174t13.174 32.326v160q0 18.196-12.457 30.652-12.457 12.457-30.652 12.457-18.196 0-30.652-12.457-12.457-12.456-12.457-30.652v-53.652q-35.326 8.239-58.25 36.862t-22.924 65.833q0 44.087 31.582 75.011 31.581 30.924 75.309 30.924 18.196 0 30.653 12.457 12.456 12.456 12.456 30.652 0 18.195-12.456 30.652-12.457 12.457-30.653 12.457Zm180.572-209.566h80.335q17.072 0 28.572-11.5t11.5-28.5q0-17-11.5-28.5t-28.572-11.5h-80.335q-17.071 0-28.571 11.5t-11.5 28.5q0 17 11.5 28.5t28.571 11.5ZM440.957-440h197.608q17 0 28.5-11.5t11.5-28.5q0-17-11.5-28.5t-28.5-11.5H440.957q-17 0-28.5 11.5t-11.5 28.5q0 17 11.5 28.5t28.5 11.5ZM321.435-598.565h317.13q17 0 28.5-11.5t11.5-28.5q0-17-11.5-28.5t-28.5-11.5h-317.13q-17 0-28.5 11.5t-11.5 28.5q0 17 11.5 28.5t28.5 11.5Z"/></svg>