<svg xmlns="http://www.w3.org/2000/svg" height="24" viewBox="0 -960 960 960" width="24"><path d="M480.717-165.565q-11.956 0-23.174-3.12-11.217-3.119-20.934-8.597-40.522-24.522-84.924-37.522-44.402-13-91.685-13-41.283 0-80.946 11t-76.184 30.522q-24.348 12.674-47.316-1.12-22.967-13.793-22.967-40.38v-481.522q0-14.348 6.815-27.098 6.815-12.75 20.446-19.185 46.478-23.761 96.717-35.402 50.239-11.641 102.718-11.641 58.478 0 114.217 15T480-741.913v491.891q51-31.76 106.761-48.478Q642.522-315.217 700-315.217q36 0 70.62 6.358Q805.239-302.5 840-290.5v-489.565q15.478 5 30.696 10.858 15.217 5.859 29.934 13.62 13.87 5.957 20.327 18.946 6.456 12.989 6.456 27.337v485.109q0 25.63-22.848 38.228-22.848 12.598-47.435-.315-36.521-19.522-76.184-30.522t-80.946-11q-47.043 0-90.967 13t-84.207 37.522q-9.478 5.478-20.815 8.597-11.337 3.12-23.294 3.12Zm117.305-223.239q-11.435 10.434-24.728 4.098Q560-391.043 560-405.957v-326.76q0-4.479 1.62-8.457 1.619-3.978 5.097-7.456l154.261-155.457q11.196-11.435 25.109-5.598Q760-903.848 760-887.935v342.283q0 5.478-2.12 9.456-2.119 3.979-5.597 7.457L598.022-388.804Z"/></svg>