<svg xmlns="http://www.w3.org/2000/svg" height="24" viewBox="0 -960 960 960" width="24"><path d="M277.37-111.869q-37.783 0-64.392-26.609-26.609-26.609-26.609-64.392v-514.5q-19.152 0-32.326-13.173-13.174-13.174-13.174-32.327 0-19.152 13.174-32.326t32.326-13.174H354.5q0-19.152 13.174-32.326T400-853.87h159.522q19.152 0 32.326 13.174t13.174 32.326h168.37q19.152 0 32.326 13.174t13.174 32.326q0 19.153-13.174 32.327-13.174 13.173-32.326 13.173v172.718q-21.674-9.109-44.783-13.065-23.109-3.957-46.218-3.957-19.521 0-39.043 2.391-19.522 2.392-39.044 8.131v-46.218q0-17.956-12.337-30.293T561.554-640q-18.076 0-30.413 12.337t-12.337 30.293v87.131q-23.293 16.458-43.19 37.272-19.897 20.815-34.657 45.619V-597.37q0-17.956-12.337-30.293T398.206-640q-18.076 0-30.413 12.337t-12.337 30.293v274.5q0 18.22 12.325 30.545Q380.106-280 398.326-280q-.239 45.63 14.076 88.783 14.315 43.152 41.185 79.348H277.37Zm403.347 34.978q-84.195 0-143.293-59.098-59.098-59.098-59.098-143.294 0-84.195 59.098-143.413 59.098-59.217 143.293-59.217 84.196 0 143.413 59.269 59.218 59.27 59.218 143.361 0 84.196-59.27 143.294-59.269 59.098-143.361 59.098Zm21.674-211.21v-91.421q0-8.669-6.512-15.171-6.512-6.503-15.196-6.503-8.683 0-15.281 6.503-6.598 6.502-6.598 15.171v89.805q0 9.195 3.359 17.549t10.076 15.038l59.283 59.282q6.478 6.478 15.195 6.359 8.718-.12 15.196-6.632 6.478-6.513 6.478-15.196t-6.478-15.161l-59.522-59.623Z"/></svg>