<svg xmlns="http://www.w3.org/2000/svg" height="24" viewBox="0 -960 960 960" width="24"><path d="m222.391-587.087-47.348-103.174-103.174-47.348 103.174-47.348 47.348-103.174 47.348 103.174 103.174 47.348-103.174 47.348-47.348 103.174ZM111.869-157.37v-81.782q0-18.152 6.837-34.685t19.511-29.207l275.652-275.652 164.827 164.827-275.652 275.652q-12.674 12.674-29.207 19.511t-34.685 6.837H157.37q-19.153 0-32.327-13.174t-13.174-32.327Zm509.066-298.739L456.109-620.935l213.76-213.761q6.718-6.717 14.913-10.195 8.196-3.479 17.153-3.479 8.956 0 17.152 3.479 8.196 3.478 14.913 10.195L834.696-734q6.717 6.717 10.195 14.913 3.479 8.196 3.479 17.152 0 8.957-3.479 17.153-3.478 8.195-10.195 14.913l-213.761 213.76Z"/></svg>