<svg xmlns="http://www.w3.org/2000/svg" height="24" viewBox="0 -960 960 960" width="24"><path d="M340.506-277.13q26.407 0 44.864-18.485 18.456-18.485 18.456-44.891 0-26.407-18.485-44.864-18.484-18.456-44.891-18.456-26.407 0-44.863 18.485-18.457 18.484-18.457 44.891 0 26.407 18.485 44.863 18.485 18.457 44.891 18.457Zm0-279.044q26.407 0 44.864-18.485 18.456-18.484 18.456-44.891 0-26.407-18.485-44.863-18.484-18.457-44.891-18.457-26.407 0-44.863 18.485-18.457 18.485-18.457 44.891 0 26.407 18.485 44.864 18.485 18.456 44.891 18.456ZM619.311-277.13q26.406 0 44.863-18.485 18.456-18.485 18.456-44.891 0-26.407-18.484-44.864-18.485-18.456-44.892-18.456-26.406 0-44.863 18.485-18.456 18.484-18.456 44.891 0 26.407 18.484 44.863 18.485 18.457 44.892 18.457Zm.239-279.044q26.407 0 44.863-18.485 18.457-18.484 18.457-44.891 0-26.407-18.485-44.863-18.485-18.457-44.891-18.457-26.407 0-44.864 18.485-18.456 18.485-18.456 44.891 0 26.407 18.485 44.864 18.484 18.456 44.891 18.456ZM202.87-111.869q-37.783 0-64.392-26.609-26.609-26.609-26.609-64.392v-554.26q0-37.783 26.609-64.392 26.609-26.609 64.392-26.609h554.26q37.783 0 64.392 26.609 26.609 26.609 26.609 64.392v554.26q0 37.783-26.609 64.392-26.609 26.609-64.392 26.609H202.87Z"/></svg>