<svg xmlns="http://www.w3.org/2000/svg" height="24" viewBox="0 -960 960 960" width="24"><path d="M679.283-359.978q-12.479 0-22.577 5.858-10.097 5.859-17.355 15.239-6.221 8.337-15.579 11.577-9.359 3.239-18.076-1-9.479-4.24-14.098-13.598-4.62-9.359.646-17.821 13.691-22.212 36.772-35.31 23.082-13.098 50.36-13.098 38.82 0 67.635 25.209 28.815 25.208 28.815 63.02 0 11.554-3 21.413t-9.478 18.576q-11.718 16.956-27.435 30.174-15.717 13.217-25.196 30.935-.717 1.956-5 14.478-2.114 10.498-8.987 17.847-6.873 7.349-17.447 7.349-11.572 0-18.884-7.826-7.312-7.827-6.312-18.261 1-8.348 2.619-15.326 1.62-6.979 5.825-14.327 10.512-17.847 26.73-30.326 16.217-12.478 27.935-29.434 3-4 7.478-24.196 0-17.718-13.723-29.435-13.723-11.717-31.668-11.717Zm-.005 288.109q-14.713 0-25.191-10.051-10.478-10.05-10.478-24.862 0-14.718 10.498-25.077 10.498-10.358 25.195-10.358 14.698 0 24.676 10.358 9.979 10.359 9.979 25.077 0 14.717-9.984 24.815-9.983 10.098-24.695 10.098ZM361.196-162.87Zm-45.5 91q-19.153 0-32.327-13.173-13.174-13.174-13.174-32.327v-645.26q0-19.153 13.174-32.327t32.327-13.174H394.5v-34.499q0-19.153 13.174-32.327T440-888.131h80q19.152 0 32.326 13.174T565.5-842.63v34.499h78.804q19.153 0 32.327 13.174t13.174 32.327v275.217q-23.631-1.196-46.501 2.065-22.869 3.261-44.5 10.978v-242.76H361.196v554.26h83.478q8.478 26.348 21.532 49.098 13.055 22.75 31.446 41.903H315.696Z"/></svg>