<svg xmlns="http://www.w3.org/2000/svg" height="24" viewBox="0 -960 960 960" width="24"><path d="M0-198.087v-83.826h158.978q10.283-68.239 56.978-120.913 46.696-52.674 113.174-71.957l-56.326-243.304H160q-17.813 0-29.863-12.05T118.087-760q0-17.813 12.05-29.863T160-801.913h112.804q28.674 0 52.011 18.217 23.337 18.218 29.815 47.131l76.805 334.652h-32.152q-66.718 0-113.957 47.478Q238.087-306.957 238.087-240v41.913H0Zm400 80q-50.957 0-86.435-35.478T278.087-240q0-50.957 35.478-86.435T400-361.913q50.957 0 86.435 35.478T521.913-240q0 50.957-35.478 86.435T400-118.087Zm0-83.826q16.043 0 27.065-11.022 11.022-11.022 11.022-27.065t-11.022-27.065Q416.043-278.087 400-278.087t-27.065 11.022Q361.913-256.043 361.913-240t11.022 27.065q11.022 11.022 27.065 11.022Zm358.087-36.652q-72 0-126.978-44.739-54.979-44.739-70.457-114.783H472.63l-18.717-83.826h106.739q5-21.804 13.022-40.848 8.022-19.043 20.826-35.326H436.63l-18.717-83.826h219.783L595.13-758.087H534q-17.813 0-29.863-12.05T492.087-800q0-17.813 12.05-29.863T534-841.913h62.087q26.478 0 47.696 14.359Q665-813.196 674-788.717l53.283 144.804h30.804q84.196 0 143.054 58.859Q960-526.196 960-442q0 85.478-59.217 144.457-59.218 58.978-142.696 58.978Zm0-83.348q50.288 0 84.307-34.522 34.019-34.522 34.019-83.565 0-50.283-33.663-83.826-33.663-33.544-82.272-34.022h-3.282L782-491.717q6.239 16.717-1.088 31.894-7.328 15.176-24.076 21.456-16.749 6.28-32.347-.999-15.598-7.279-21.837-23.917l-23.282-65.369q-18.748 16.419-29.059 38.633Q640-467.804 640-440q0 49.043 33.95 83.565t84.137 34.522ZM400-240Zm358.087-199.761Z"/></svg>