<svg xmlns="http://www.w3.org/2000/svg" height="24" viewBox="0 -960 960 960" width="24"><path d="m480-231.152-161.065 68.891q-45.5 19.152-86.283-7.594-40.783-26.747-40.783-75.689V-757.13q0-37.783 26.609-64.392 26.609-26.609 64.392-26.609h235.934v91.001H282.87v510.826L480-330.87l197.13 84.566v-274.174h91.001v274.934q0 48.942-40.783 75.689-40.783 26.746-86.283 7.594L480-231.152Zm0-525.978H282.87h235.934H480Zm237.065 33.369 110.37-110.609q13.02-13.195 30.923-13.195t31.099 13.195q13.195 13.196 13.076 31.011-.12 17.815-13.076 31.011L749.131-632.544q-13.761 13.674-32.109 13.674-18.348 0-32.022-13.674l-55.565-55.565Q617-700.544 617-718.359q0-17.815 12.435-31.011 13.195-13.195 31.011-13.195 17.815 0 31.011 13.195l25.608 25.609Z"/></svg>