<svg xmlns="http://www.w3.org/2000/svg" height="24" viewBox="0 -960 960 960" width="24"><path d="M384.065-71.87q-37.391 0-74.424-7.956-37.032-7.957-71.185-23.391-12.434-5.718-20.032-17.033-7.598-11.315-7.598-24.75 0-10.435 4.717-19.75 4.718-9.315 13.674-16.033 69.761-53.804 108.239-132.489Q375.935-391.957 375.935-480t-38.859-166.228q-38.859-78.185-108.62-132.989-8.195-6.718-12.913-16.033-4.717-9.315-4.717-19.75 0-13.435 7.217-24.63 7.218-11.196 19.653-16.914 34.913-15.434 71.945-23.511 37.033-8.076 74.424-8.076 84.674 0 159.109 32.098t129.631 87.294q55.195 55.195 87.293 129.63Q792.196-564.674 792.196-480t-32.098 159.109Q728-246.456 672.805-191.261q-55.196 55.196-129.631 87.294T384.065-71.869Z"/></svg>