<svg xmlns="http://www.w3.org/2000/svg" height="24" viewBox="0 -960 960 960" width="24"><path d="M202.87-111.869q-37.783 0-64.392-26.609-26.609-26.609-26.609-64.392v-264.478l98.457 98.457q13.674 13.674 32.065 13.674 18.392 0 32.066-13.674l126.26-126.261 126.5 126.5q13.674 13.674 32.066 13.674 18.391 0 32.065-13.674L717.37-494.913l130.761 130.761v161.282q0 37.783-26.609 64.392-26.609 26.609-64.392 26.609H202.87Zm0-736.262h554.26q37.783 0 64.392 26.609 26.609 26.609 26.609 64.392v263.717l-98.218-98.217q-13.674-13.674-32.065-13.674-18.392 0-32.066 13.674L559.283-465.131l-126.5-126.499q-13.674-13.674-32.066-13.674-18.391 0-32.065 13.674L242.63-465.609 111.869-596.37v-160.76q0-37.783 26.609-64.392 26.609-26.609 64.392-26.609Z"/></svg>