<svg xmlns="http://www.w3.org/2000/svg" height="24" viewBox="0 -960 960 960" width="24"><path d="M155.696-72.587q-21.305 0-36.153-14.848-14.848-14.848-14.848-36.152v-189q0-34.435 23.142-59.848 23.141-25.413 56.858-28.761v-151.391q0-37.783 26.609-64.391 26.609-26.609 64.392-26.609H434.5v-52.5q-18-12.499-29-30.206t-11-42.903q0-16.195 6.119-31.413 6.12-15.217 19.316-28.413l44.152-43.913q2.269-2.239 15.883-6.717 2.269 0 15.943 6.717l44.152 43.913q13.196 13.196 19.316 28.413 6.119 15.218 6.119 31.413 0 25.089-11 42.86t-29 30.249v52.5h158.804q37.783 0 64.392 26.609 26.609 26.608 26.609 64.391v151.391q33.717 3.348 56.858 28.761 23.142 25.413 23.142 59.848v189q0 21.304-14.848 36.152-14.848 14.848-36.153 14.848H155.696Zm120-331h408.608v-149H275.696v149Zm-80 240h568.608v-149H195.696v149Zm80-240h408.608-408.608Zm-80 240h568.608-568.608Zm579.609-240h-590.61 590.61Z"/></svg>