<svg xmlns="http://www.w3.org/2000/svg" height="24" viewBox="0 -960 960 960" width="24"><path d="M758.239-71.87q-126.435 0-249.869-55.097-123.435-55.098-224.87-156.294Q182.065-384.696 126.967-508.25 71.869-631.804 71.869-758.239q0-21.348 14.153-35.62 14.152-14.272 35.5-14.272h161.761q19.5 0 33.369 11.533 13.87 11.533 17.305 29.555l25.761 134.978q2.956 19.587-.881 33.217-3.837 13.631-14.706 23.783l-98.435 96.087q19.043 34.369 45.108 66.956 26.066 32.587 58.109 63.631 29.804 29.804 61.413 54.63 31.609 24.826 66.261 44.913l95.674-94.957q11.63-11.391 28.522-16.369 16.891-4.978 34.478-2.022l131.543 27.283q19.022 5.434 30.055 18.445 11.032 13.011 11.032 31.033v163.674q0 21.348-14.271 35.62-14.272 14.272-35.381 14.272ZM521.435-799.521q-18.674 0-31.489-12.815-12.816-12.815-12.816-31.489t12.816-31.489q12.815-12.816 31.489-12.816h322.391q18.674 0 31.489 12.816 12.816 12.815 12.816 31.489t-12.816 31.489q-12.815 12.815-31.489 12.815H521.435Zm0 162.631q-18.674 0-31.489-12.815-12.816-12.816-12.816-31.49t12.816-31.489q12.815-12.815 31.489-12.815h322.391q18.674 0 31.489 12.815 12.816 12.815 12.816 31.489t-12.816 31.49q-12.815 12.815-31.489 12.815H521.435Zm0 162.63q-18.674 0-31.489-12.815-12.816-12.815-12.816-31.489t12.816-31.489q12.815-12.816 31.489-12.816h322.391q18.674 0 31.489 12.816 12.816 12.815 12.816 31.489t-12.816 31.489q-12.815 12.815-31.489 12.815H521.435Z"/></svg>