<svg xmlns="http://www.w3.org/2000/svg" height="24" viewBox="0 -960 960 960" width="24"><path d="M271.869-197.37v-34.499h-36.413q-19.152 0-32.326-13.174t-13.174-32.327v-405.26q0-19.153 13.174-32.327t32.326-13.174h36.413v-34.499q0-19.153 13.174-32.327t32.327-13.174q19.152 0 32.326 13.174t13.174 32.327v34.499h36.413q19.152 0 32.326 13.174t13.174 32.327v405.26q0 19.153-13.174 32.327t-32.326 13.174H362.87v34.499q0 19.153-13.174 32.327t-32.326 13.174q-19.153 0-32.327-13.174t-13.174-32.327Zm5.501-121.913h80v-321.434h-80v321.434ZM597.13-197.37v-154.499h-36.413q-19.152 0-32.326-13.174t-13.174-32.327v-205.26q0-19.153 13.174-32.327t32.326-13.174h36.413V-762.63q0-19.153 13.174-32.327t32.326-13.174q19.153 0 32.327 13.174t13.174 32.327v114.499h36.413q19.152 0 32.326 13.174t13.174 32.327v205.26q0 19.153-13.174 32.327t-32.326 13.174h-36.413v154.499q0 19.153-13.174 32.327t-32.327 13.174q-19.152 0-32.326-13.174T597.13-197.37Zm5.5-241.913h80v-121.434h-80v121.434ZM317.37-480Zm325.26-20Z"/></svg>