<svg xmlns="http://www.w3.org/2000/svg" height="24" viewBox="0 -960 960 960" width="24"><path d="M423.283-416.37 343.5-496.152q-12.435-12.435-31.348-12.435-18.913 0-31.348 12.435-12.434 12.435-12.315 31.348.12 18.913 12.554 31.348l110.174 110.173q13.761 13.674 32.109 13.674 18.348 0 32.022-13.674l222.413-222.413q12.435-12.434 12.435-31.228 0-18.793-12.435-31.228-12.435-12.435-31.348-12.435-18.913 0-31.348 12.435L423.283-416.37ZM480-71.87q-84.913 0-159.345-32.117-74.432-32.118-129.491-87.177-55.059-55.059-87.177-129.491Q71.869-395.087 71.869-480t32.118-159.345q32.118-74.432 87.177-129.491 55.059-55.059 129.491-87.177Q395.087-888.131 480-888.131t159.345 32.118q74.432 32.118 129.491 87.177 55.059 55.059 87.177 129.491Q888.131-564.913 888.131-480t-32.118 159.345q-32.118 74.432-87.177 129.491-55.059 55.059-129.491 87.177Q564.913-71.869 480-71.869Zm0-91q133.043 0 225.087-92.043Q797.13-346.957 797.13-480t-92.043-225.087Q613.043-797.13 480-797.13t-225.087 92.043Q162.87-613.043 162.87-480t92.043 225.087Q346.957-162.87 480-162.87ZM480-480Z"/></svg>