<svg xmlns="http://www.w3.org/2000/svg" height="24" viewBox="0 -960 960 960" width="24"><path d="M240-189.717q-19.033 0-31.908-12.875T195.217-234.5q0-19.033 12.875-31.908T240-279.283q19.033 0 31.908 12.875t12.875 31.908q0 19.033-12.875 31.908T240-189.717Zm480 0q-19.033 0-31.908-12.875T675.217-234.5q0-19.033 12.875-31.908T720-279.283q19.033 0 31.908 12.875t12.875 31.908q0 19.033-12.875 31.908T720-189.717ZM360-31.63q-19.033 0-31.908-12.875t-12.875-31.908q0-19.033 12.875-31.908T360-121.196q19.033 0 31.908 12.875t12.875 31.908q0 19.033-12.875 31.908T360-31.63Zm120-158.087q-19.033 0-31.908-12.875T435.217-234.5q0-19.033 12.875-31.908T480-279.283q19.033 0 31.908 12.875t12.875 31.908q0 19.033-12.875 31.908T480-189.717ZM600-31.63q-19.033 0-31.908-12.875t-12.875-31.908q0-19.033 12.875-31.908T600-121.196q19.033 0 31.908 12.875t12.875 31.908q0 19.033-12.875 31.908T600-31.63ZM300-318.087q-93.152 0-159.326-66.174Q74.5-450.435 74.5-543.587q0-84.435 55.478-147.75t137.435-75.272q32.957-57 89.413-89.739 56.457-32.739 123.165-32.739 90.966 0 158.542 57.5 67.576 57.5 83.011 143.978 69.717 7.435 116.837 59.631Q885.5-575.783 885.5-503.587q0 77.152-54.104 131.326Q777.292-318.087 700-318.087H300Z"/></svg>