<svg xmlns="http://www.w3.org/2000/svg" height="24" viewBox="0 -960 960 960" width="24"><path d="M245.022-479.522q0 52.326 20.782 95.794 20.783 43.467 55.631 75.75v-50.348q0-17.711 12.05-29.693Q345.535-400 363.348-400q17.711 0 29.693 11.981 11.981 11.982 11.981 29.693v157.609q0 19.152-13.174 32.326t-32.326 13.174h-157.37q-17.711 0-29.692-12.05-11.982-12.05-11.982-29.863 0-17.712 12.05-29.693 12.05-11.981 29.863-11.981h59.435q-50.522-44.957-79.163-106.881-28.641-61.925-28.641-133.837 0-97.575 51.293-175.635 51.294-78.061 133.642-118.539 15.673-8.478 31.989.576 16.315 9.055 21.554 27.087 5.239 18.033-1.978 34.707-7.218 16.674-23.131 25.63-54.804 30.044-88.587 84.654-33.782 54.61-33.782 121.52ZM605.5-147.087q-53.089 0-90.251-37.162-37.162-37.162-37.162-90.251 0-50.158 33.717-86.21 33.718-36.051 83.153-39.486 18.434-36.478 52.89-59.098 34.455-22.619 77.653-22.619 55.535 0 95.876 34.978 40.342 34.978 48.103 85.739 42.717 1.913 73.076 31.99 30.358 30.076 30.358 73.793 0 44.783-31.271 76.555-31.272 31.771-76.142 31.771h-260ZM710.978-520q-7.239-39.804-26.282-73.13-19.044-33.326-46.131-58.892v50.348q0 17.711-11.982 29.693Q614.6-560 596.887-560t-29.811-12.05q-12.098-12.05-12.098-29.863v-157.37q0-19.152 13.174-32.326t32.326-13.174h157.37q17.711 0 29.692 11.983 11.982 11.982 11.982 29.695 0 17.714-11.982 29.811-11.981 12.098-29.692 12.098h-59.674Q741.413-682 768.196-631q26.782 51 34.782 111h-92ZM605.5-234.5h260q8 0 14-6t6-14q0-8-6-14t-14-6h-70v-50q0-29-20.5-49.5t-49.5-20.5q-29 0-49.5 20.5t-20.5 49.5v10h-50q-17 0-28.5 11.5t-11.5 28.5q0 17 11.5 28.5t28.5 11.5Zm120-80Z"/></svg>