<svg xmlns="http://www.w3.org/2000/svg" height="24" viewBox="0 -960 960 960" width="24"><path d="M328.37-237.37q-37.783 0-64.392-26.608-26.608-26.609-26.608-64.392v-474.26q0-37.783 26.608-64.392 26.609-26.609 64.392-26.609h474.26q37.783 0 64.392 26.609 26.609 26.609 26.609 64.392v474.26q0 37.783-26.609 64.392-26.609 26.608-64.392 26.608H328.37Zm-171 171q-37.783 0-64.392-26.608-26.609-26.609-26.609-64.392v-519.76q0-19.153 13.174-32.327 13.174-13.173 32.326-13.173 19.153 0 32.327 13.173 13.174 13.174 13.174 32.327v519.76h519.76q19.153 0 32.327 13.174 13.173 13.174 13.173 32.327 0 19.152-13.173 32.326Q696.283-66.37 677.13-66.37H157.37Zm368.848-496.282q0 13.434 11.434 19.891 11.435 6.457 22.87-.5l42.065-25.696q11.196-6.717 23.631-6.717 12.434 0 23.63 6.717l42.065 25.696q11.435 6.957 22.87.5t11.435-19.891V-802.63h-200v239.978Z"/></svg>