<svg xmlns="http://www.w3.org/2000/svg" height="24" viewBox="0 -960 960 960" width="24"><path d="M202.87-322.87h83.826q0-34.434-24.696-59.13-24.696-24.696-59.13-24.696v83.826Zm142 0h61.826q0-84.674-59.619-144.25-59.62-59.576-144.207-59.576v61.826q59 0 100.5 41.5t41.5 100.5Zm120 0h61.826q0-66.717-25.306-125.933-25.306-59.216-69.339-103.248-44.032-44.033-103.248-69.339-59.216-25.306-125.933-25.306v61.826q109 0 185.5 76.5t76.5 185.5Zm-302 131.001q-37.783 0-64.392-26.609Q71.87-245.087 71.87-282.87v-474.26q0-37.783 26.61-64.392 26.608-26.609 64.391-26.609h634.26q37.783 0 64.392 26.609 26.609 26.609 26.609 64.392v474.26q0 37.783-26.609 64.392-26.609 26.609-64.392 26.609H644.304v34.499q0 19.153-13.174 32.327-13.173 13.174-32.326 13.174H361.196q-19.153 0-32.326-13.174-13.174-13.174-13.174-32.327v-34.499H162.87Zm0-91.001h634.26v-474.26H162.87v474.26Zm0 0v-474.26 474.26Z"/></svg>