<svg xmlns="http://www.w3.org/2000/svg" height="24" viewBox="0 -960 960 960" width="24"><path d="M480-403.587q34.435 0 59.011-24.696 24.576-24.695 24.576-59.13t-24.576-59.011Q514.435-571 480-571t-59.011 24.576q-24.576 24.576-24.576 59.011t24.576 59.13q24.576 24.696 59.011 24.696ZM316.413-236.413h327.174V-263q0-24.957-13.717-46.033-13.718-21.076-37.435-31.315-26.239-11.239-54.098-17.239-27.859-6-58.337-6t-58.337 6q-27.859 6-54.098 17.239-23.717 10.239-37.435 31.315-13.717 21.076-13.717 46.033v26.587ZM717.13-71.869H242.87q-37.783 0-64.392-26.61-26.609-26.608-26.609-64.391v-634.26q0-37.783 26.609-64.392 26.609-26.609 64.392-26.609h282.934q18.153 0 34.685 6.837 16.533 6.837 29.207 19.511l192.087 192.087q12.674 12.674 19.511 29.207 6.837 16.532 6.837 34.685v442.934q0 37.783-26.609 64.392Q754.913-71.87 717.13-71.87Z"/></svg>