<svg xmlns="http://www.w3.org/2000/svg" height="24" viewBox="0 -960 960 960" width="24"><path d="M192.587-32.587q-17 0-28.5-11.5t-11.5-28.5q0-17 11.5-28.5t28.5-11.5h574.826q17 0 28.5 11.5t11.5 28.5q0 17-11.5 28.5t-28.5 11.5H192.587Zm0-814.826q-17 0-28.5-11.5t-11.5-28.5q0-17 11.5-28.5t28.5-11.5h574.826q17 0 28.5 11.5t11.5 28.5q0 17-11.5 28.5t-28.5 11.5H192.587Zm287.413 411q50.957 0 86.435-35.359 35.478-35.358 35.478-86.315 0-50.956-35.478-86.435Q530.957-680 480-680t-86.435 35.478q-35.478 35.479-35.478 86.435 0 50.957 35.478 86.315 35.478 35.359 86.435 35.359ZM163.587-152.587q-37.783 0-64.391-26.609-26.61-26.608-26.61-64.391v-472.826q0-37.783 26.61-64.391 26.608-26.609 64.391-26.609h632.826q37.783 0 64.391 26.609 26.609 26.608 26.609 64.391v472.826q0 37.783-26.609 64.391-26.608 26.609-64.391 26.609H163.587ZM226.413-240q43.565-56.239 108.761-89.913T480-363.587q79.63 0 144.826 33.674T733.587-240H800v-480H160v480h66.413ZM348-240h264q-29-20-62.5-30T480-280q-36 0-69.5 10T348-240Zm132-280q-16.187 0-27.137-10.95t-10.95-27.137q0-16.288 10.95-27.307 10.95-11.019 27.137-11.019t27.137 11.018q10.95 11.017 10.95 27.304t-10.95 27.189Q496.187-520 480-520Zm0 40Z"/></svg>