<svg xmlns="http://www.w3.org/2000/svg" height="24" viewBox="0 -960 960 960" width="24"><path d="M605.022-520.717H789q19.152 0 32.326-13.174t13.174-32.327v-106.369q0-19.152-13.174-32.326T789-718.087H605.022q-19.152 0-32.326 13.174t-13.174 32.326v106.369q0 19.153 13.174 32.327t32.326 13.174Zm92.108-89.761 73.353-51.571q7.93-5.951 16.93-1.451t9 14.5q0 1-7 14l-66.174 46.37q-12.503 8.717-26.143 8.717t-26.074-8.717l-66.228-46.423q-.946-.947-6.946-13.947 0-10 9-14.5t17 1.5l73.282 51.522ZM91-116.413q-37.782 0-64.391-26.609Q0-169.63 0-207.413v-545.174q0-37.783 26.609-64.391Q53.217-843.587 91-843.587h778q37.782 0 64.391 26.609Q960-790.37 960-752.587v545.174q0 37.783-26.609 64.391-26.609 26.609-64.391 26.609H91Zm552.413-87.174h229.174v-552.826H87.413v552.826h4q42-75 116-117.5t160-42.5q86 0 160 42.5t116 117.5ZM366.696-401.913q50.956 0 86.315-35.359 35.359-35.358 35.359-86.315t-35.359-86.435Q417.652-645.5 366.696-645.5q-50.957 0-86.435 35.478t-35.478 86.435q0 50.957 35.478 86.315 35.478 35.359 86.435 35.359ZM198.5-203.587h336.152Q501.848-238 458.199-257.206q-43.649-19.207-91.522-19.207-47.872 0-91.242 19.207Q232.066-238 198.5-203.587ZM366.696-485.5q-16.289 0-27.308-10.95-11.018-10.95-11.018-27.137 0-16.289 11.017-27.307 11.018-11.019 27.305-11.019 16.286 0 27.189 11.017 10.902 11.018 10.902 27.305t-10.95 27.189q-10.95 10.902-27.137 10.902ZM480-480Z"/></svg>