<svg xmlns="http://www.w3.org/2000/svg" height="24" viewBox="0 -960 960 960" width="24"><path d="M153.543-207.413v-284l-34.978 27.174q-14.956 10.956-32.75 8.837-17.793-2.12-28.75-17.315-10.956-14.957-8.598-32.511 2.359-17.555 16.555-28.511l88.521-68v-83.522q0-18.435 12.696-31.011t31.848-12.576q18.196 0 30.533 12.337t12.337 30.533v17.499l183.347-139.782q12.435-9.196 26.609-13.794 14.174-4.597 28.848-4.597t28.848 4.597q14.174 4.598 26.609 13.794L894.5-533.739q14.196 10.956 16.435 28.511 2.239 17.554-8.717 32.511-10.957 14.195-28.392 16.434-17.435 2.24-31.63-8.717l-36.218-26.413v284q0 37.783-26.608 64.391-26.609 26.609-64.392 26.609H545.261q-9.196 0-15.913-6.717-6.718-6.718-6.718-15.913V-320q0-18.435-12.576-31.011t-31.011-12.576q-18.434 0-31.13 12.696-12.696 12.695-12.696 31.13v180.718q0 9.195-6.717 15.913-6.718 6.717-15.913 6.717H244.544q-37.783 0-64.392-26.609-26.609-26.608-26.609-64.391Zm55.827-561.435q-24.435 0-37.892-20.076-13.456-20.076-2.217-41.272 18.435-32.826 49.163-52.076 30.728-19.25 68.033-19.25 12.195 0 23.152-5.859 10.956-5.859 16.674-16.815 5.956-10.435 16.011-16.631 10.054-6.195 22.489-6.195 24.435 0 37.272 20.076t1.358 41.511q-18.195 32.826-49.043 51.956-30.848 19.131-67.913 19.131-12.196 0-23.153 5.598-10.956 5.598-16.674 17.315-5.956 10.435-15.391 16.511-9.435 6.076-21.869 6.076Z"/></svg>