<svg xmlns="http://www.w3.org/2000/svg" height="24" viewBox="0 -960 960 960" width="24"><path d="M480-71.87q-84.913 0-159.345-32.117-74.432-32.118-129.491-87.177-55.059-55.059-87.177-129.491Q71.869-395.087 71.869-480t32.118-159.345q32.118-74.432 87.177-129.491 55.059-55.059 129.491-87.177Q395.087-888.131 480-888.131t159.345 32.118q74.432 32.118 129.491 87.177 55.059 55.059 87.177 129.491Q888.131-564.913 888.131-480t-32.118 159.345q-32.118 74.432-87.177 129.491-55.059 55.059-129.491 87.177Q564.913-71.869 480-71.869Zm0-91q133.043 0 225.087-92.043Q797.13-346.957 797.13-480t-92.043-225.087Q613.043-797.13 480-797.13t-225.087 92.043Q162.87-613.043 162.87-480t92.043 225.087Q346.957-162.87 480-162.87ZM480-480Zm-41.674 200H520q35.63 0 59.609-23.978 23.978-23.979 23.978-59.609v-232.826q0-35.63-23.978-59.609Q555.63-680 520-680h-80q-35.63 0-59.609 23.978-23.978 23.979-23.978 59.609v74.5q0 35.63 23.978 59.728Q404.37-438.087 440-438.087h80v74.5h-81.913q-17.712 0-29.693 11.982-11.981 11.983-11.981 29.696t12.05 29.811Q420.513-280 438.326-280ZM520-521.913h-80v-74.5h80v74.5Z"/></svg>