<svg xmlns="http://www.w3.org/2000/svg" height="24" viewBox="0 -960 960 960" width="24"><path d="M162.87-151.869q-37.783 0-64.392-26.609Q71.87-205.087 71.87-242.87v-474.26q0-37.783 26.61-64.392 26.608-26.609 64.391-26.609h634.26q37.783 0 64.392 26.609 26.609 26.609 26.609 64.392v251.956q-35.913-21.587-78.522-17.185-42.609 4.402-73.761 35.555L601.587-311.783l-23.543-22.782Q541.609-371 490.696-370.739q-50.913.261-87.348 36.696-37.435 37.195-37.435 88.228 0 51.033 36.435 87.467l6.478 6.479H162.87Zm0-488.848v160h634.26v-160H162.87Zm438.717 441.934 191.022-191.021Q805.804-403 824.337-402.62q18.533.381 31.728 13.577 12.435 13.195 12.816 31.347.38 18.153-12.816 31.348L633.652-103.935q-13.674 13.674-32.065 13.674t-32.065-13.674L459.348-214.348q-12.435-12.434-12.815-30.967-.381-18.533 12.815-31.728 12.435-12.435 30.967-12.316 18.533.12 31.729 12.555l79.543 78.021Z"/></svg>