<svg xmlns="http://www.w3.org/2000/svg" height="24" viewBox="0 -960 960 960" width="24"><path d="M480.028-71.87q-72.798 0-139.794-24.912-66.995-24.914-123.386-70.022-16.153-12.435-17.392-32.305-1.239-19.869 12.674-33.782 13.674-13.674 32.446-14.055 18.772-.38 33.967 12.533 8.663 7.528 18.408 13.982 9.745 6.453 19.462 12.17v-109.348H242.63q-37.438 0-64.1-26.661-26.661-26.661-26.661-64.1v-232.347q0-68.87 49.389-118.142Q250.646-808.131 320-808.131h120.717q19.153 0 32.327 13.174t13.174 32.327v152.347H717.37q37.438 0 64.1 26.661 26.661 26.661 26.661 64.1v111.152q0 37.439-26.661 64.1-26.662 26.661-64.1 26.661h-73.783v109.348q10.478-6.478 20.196-12.957 9.717-6.478 19.195-13.956 14.435-12.913 33.207-12.152 18.772.761 31.602 13.59 13.996 13.997 13.137 33.486-.858 19.489-16.25 31.924-56.391 45.87-124.119 71.163-67.729 25.294-140.527 25.294Zm-.088-91q18.147 0 36.353-2.021 18.207-2.022 36.294-6.305v-146.413H407.413v146.413q18.087 4.283 36.234 6.305 18.147 2.021 36.293 2.021ZM242.87-408.609h474.26v-110.674H395.217V-717.13H320q-32.043 0-54.587 22.446-22.543 22.446-22.543 53.967v232.108Zm152.347-110.674Z"/></svg>