<svg xmlns="http://www.w3.org/2000/svg" height="24" viewBox="0 -960 960 960" width="24"><path d="M674.5-83.587V-194.5h-389q-37.783 0-64.391-26.609Q194.5-247.717 194.5-285.5v-389H83.587q-19.152 0-32.326-13.174T38.087-720q0-19.152 13.174-32.326T83.587-765.5H194.5v-110.913q0-19.152 13.174-32.326T240-921.913q19.152 0 32.326 13.174t13.174 32.326V-285.5h590.913q19.152 0 32.326 13.174T921.913-240q0 19.152-13.174 32.326T876.413-194.5H765.5v110.913q0 19.152-13.174 32.326T720-38.087q-19.152 0-32.326-13.174T674.5-83.587Zm0-281.913v-309h-309v-91h309q37.783 0 64.391 26.609Q765.5-712.283 765.5-674.5v309h-91Z"/></svg>