<svg xmlns="http://www.w3.org/2000/svg" height="24" viewBox="0 -960 960 960" width="24"><path d="M151.152-518.087q-19.152 0-32.326-13.174t-13.174-32.326v-245.261q0-19.152 13.174-32.326t32.326-13.174h245.261q19.152 0 32.326 13.174t13.174 32.326v245.261q0 19.152-13.174 32.326t-32.326 13.174H151.152Zm412.435 0q-19.152 0-32.326-13.174t-13.174-32.326v-245.261q0-19.152 13.174-32.326t32.326-13.174h245.261q19.152 0 32.326 13.174t13.174 32.326v245.261q0 19.152-13.174 32.326t-32.326 13.174H563.587ZM151.152-105.652q-19.152 0-32.326-13.174t-13.174-32.326v-245.261q0-19.152 13.174-32.326t32.326-13.174h245.261q19.152 0 32.326 13.174t13.174 32.326v245.261q0 19.152-13.174 32.326t-32.326 13.174H151.152Zm535.066 0q-19.153 0-32.327-13.174t-13.174-32.326v-77.13h-78.13q-19.152 0-31.826-13.174t-12.674-32.326q0-19.153 13.174-32.327t32.326-13.174h77.13v-78.13q0-19.152 13.174-31.826t32.327-12.674q19.152 0 32.326 13.174t13.174 32.326v77.13h78.13q19.152 0 31.826 13.174t12.674 32.327q0 19.152-13.174 32.326t-32.326 13.174h-77.13v78.13q0 19.152-13.174 31.826t-32.326 12.674Z"/></svg>