<svg xmlns="http://www.w3.org/2000/svg" height="24" viewBox="0 -960 960 960" width="24"><path d="M160-144.934q-19.152 0-32.326-13.174T114.5-190.435q0-19.152 13.174-32.326T160-235.935h400q19.152 0 32.326 13.174t13.174 32.326q0 19.153-13.174 32.327T560-144.934H160Zm480-288.848q-85.63 0-145.924-60.294Q433.782-554.37 433.782-640q0-85.63 60.294-145.924Q554.37-846.218 640-846.218q85.63 0 145.924 60.294Q846.218-725.63 846.218-640q0 85.63-60.294 145.924Q725.63-433.782 640-433.782ZM160-474.5q-19.152 0-32.326-13.174T114.5-520q0-19.152 13.174-32.326T160-565.5h204.109q7 25.109 17.315 47.859 10.315 22.75 24.989 43.141H160Zm0 164.783q-19.152 0-32.326-13.174T114.5-355.217q0-19.153 13.174-32.326 13.174-13.174 32.326-13.174h324.282q26.348 17.826 56.653 29.239 30.304 11.413 64.565 15.174v2.282q0 18.913-13.174 31.609-13.174 12.696-32.326 12.696H160Zm480-294.587q9.913 0 17.109-7.196 7.195-7.196 7.195-17.109V-740q0-9.913-7.195-17.109-7.196-7.195-17.109-7.195-9.913 0-17.109 7.195-7.195 7.196-7.195 17.109v111.391q0 9.913 7.195 17.109 7.196 7.196 17.109 7.196Zm0 88.608q9.913 0 17.109-7.195 7.195-7.196 7.195-17.109 0-9.913-7.195-17.109-7.196-7.195-17.109-7.195-9.913 0-17.109 7.195-7.195 7.196-7.195 17.109 0 9.913 7.195 17.109 7.196 7.195 17.109 7.195Z"/></svg>