<svg xmlns="http://www.w3.org/2000/svg" height="24" viewBox="0 -960 960 960" width="24"><path d="m279.022-480 90.826 90.587q12.478 12.478 12.098 29.435-.381 16.956-12.098 29.434-12.478 12.479-29.815 12.859-17.337.381-29.816-12.098L192.065-447.935q-13.674-13.761-13.674-32.108 0-18.348 13.674-32.022l118.152-118.152q12.479-12.479 29.816-12.098 17.337.38 29.815 12.859 11.717 12.478 12.098 29.434.38 16.957-12.098 29.435L279.022-480Zm-86.435 198.087h91v38.326h392.826v-38.326h91v158.326q0 37.783-26.609 64.391-26.608 26.61-64.391 26.61H283.587q-37.783 0-64.391-26.61-26.609-26.608-26.609-64.391v-158.326Zm91-396.174h-91v-158.326q0-37.783 26.609-64.391 26.608-26.609 64.391-26.609h392.826q37.783 0 64.391 26.609 26.609 26.608 26.609 64.391v158.326h-91v-38.326H283.587v38.326Zm0 514.5v40h392.826v-40H283.587Zm0-632.826h392.826v-40H283.587v40ZM680.978-480l-90.826-90.587q-12.478-12.478-12.098-29.435.381-16.956 12.098-29.434 12.478-12.479 29.815-12.859 17.337-.381 29.816 12.098l118.152 118.152q13.674 13.761 13.674 32.108 0 18.348-13.674 32.022L649.783-329.783q-12.479 12.479-29.816 12.098-17.337-.38-29.815-12.859-11.717-12.478-12.098-29.434-.38-16.957 12.098-29.435L680.978-480ZM283.587-796.413v-40 40Zm0 632.826v40-40Z"/></svg>