<svg xmlns="http://www.w3.org/2000/svg" height="24" viewBox="0 -960 960 960" width="24"><path d="M161.196-111.869q-37.783 0-64.392-26.609-26.609-26.609-26.609-64.392v-554.26q0-37.783 26.61-64.392 26.608-26.609 64.391-26.609h554.021q37.783 0 64.392 26.609 26.609 26.609 26.609 64.392V-680h41.913q17.717 0 29.695 11.978 11.979 11.979 11.979 29.696 0 17.717-11.979 29.815-11.978 12.098-29.695 12.098h-41.913v74.5h41.673q17.718 0 29.816 12.098 12.098 12.098 12.098 29.815t-12.098 29.815q-12.098 12.098-29.816 12.098h-41.673v74.5h41.913q17.717 0 29.695 11.978 11.979 11.979 11.979 29.696 0 17.717-11.979 29.815Q865.848-280 848.131-280h-41.913v77.13q0 37.783-26.609 64.392-26.609 26.609-64.392 26.609H161.196Zm0-91.001h554.021v-554.26H161.196v554.26ZM283.587-280h109q19.152 0 32.326-13.174t13.174-32.326v-69q0-19.152-13.174-32.326T392.587-440h-109q-19.152 0-32.326 13.174T238.087-394.5v69q0 19.152 13.174 32.326T283.587-280Zm238.565-280h71.87q18.434 0 31.25-12.815 12.815-12.815 12.815-31.25V-634.5q0-19.152-13.174-32.326T592.587-680h-69q-19.152 0-32.326 13.174T478.087-634.5v30.435q0 18.435 12.815 31.25Q503.717-560 522.152-560Zm-238.565 80h109q19.152 0 32.326-13.174t13.174-32.326v-109q0-19.152-13.174-32.326T392.587-680h-109q-19.152 0-32.326 13.174T238.087-634.5v109q0 19.152 13.174 32.326T283.587-480Zm240 200h69q19.152 0 32.326-13.174t13.174-32.326v-149q0-19.152-13.174-32.326T592.587-520h-69q-19.152 0-32.326 13.174T478.087-474.5v149q0 19.152 13.174 32.326T523.587-280ZM161.196-757.13v554.26-554.26Z"/></svg>