<svg xmlns="http://www.w3.org/2000/svg" height="24" viewBox="0 -960 960 960" width="24"><path d="M410.283-476.891h123.499v49.608q0 15.674 13.794 21.392 13.794 5.717 24.989-5.479l76.805-76.804q13.673-13.674 13.554-31.946-.12-18.271-13.554-31.945l-76.805-76.805q-11.195-11.195-24.989-5.478-13.794 5.718-13.794 21.391v49.848H367.174q-18.196 0-30.652 12.457-12.457 12.456-12.457 30.652v119.522q0 18.195 12.457 30.652 12.456 12.456 30.652 12.456t30.652-12.456q12.457-12.457 12.457-30.652v-76.413Zm69.81 404.065q-17.006 0-33.539-6.717-16.532-6.718-30.206-20.392L99.935-416.348Q86.26-430.022 79.543-446.52q-6.717-16.498-6.717-33.565 0-17.067 6.717-33.48 6.718-16.413 20.392-30.087l316.413-316.413q13.657-13.674 30.159-20.511t33.574-6.837q17.071 0 33.516 6.837 16.446 6.837 30.055 20.511l316.413 316.413q13.674 13.616 20.511 30.07 6.837 16.453 6.837 33.474 0 17.021-6.837 33.551t-20.511 30.209L543.652-99.935q-13.674 13.674-30.113 20.392-16.439 6.717-33.446 6.717ZM322.152-322.152 480-164.065 795.935-480 480-795.935 164.065-480l158.087 157.848ZM480-480Z"/></svg>