<svg xmlns="http://www.w3.org/2000/svg" height="24" viewBox="0 -960 960 960" width="24"><path d="M240.717-191.869v15.695q0 26.794-18.755 45.549-18.756 18.756-45.549 18.756-26.674 0-45.609-18.935-18.935-18.935-18.935-45.609v-289.348q0-7.956 1.12-15.674 1.12-7.717 3.598-14.674l74.282-210.848q9.435-27.347 32.946-44.261 23.511-16.913 53.098-16.913h406.174q29.587 0 53.098 16.913 23.511 16.914 32.946 44.261l74.282 210.848q2.478 6.957 3.598 14.674 1.12 7.718 1.12 15.674v289.587q0 26.794-18.756 45.549-18.755 18.756-45.549 18.756-26.674 0-45.609-18.935-18.934-18.935-18.934-45.609v-15.456H240.717ZM235.348-560h489.304l-40.804-117.13H276.152L235.348-560Zm-32.478 80v197.13V-480Zm98.565 158.565q25 0 42.5-17.5t17.5-42.5q0-25-17.5-42.5t-42.5-17.5q-25 0-42.5 17.5t-17.5 42.5q0 25 17.5 42.5t42.5 17.5Zm357.13 0q25 0 42.5-17.5t17.5-42.5q0-25-17.5-42.5t-42.5-17.5q-25 0-42.5 17.5t-17.5 42.5q0 25 17.5 42.5t42.5 17.5ZM202.87-282.87h554.26V-480H202.87v197.13Z"/></svg>