<svg xmlns="http://www.w3.org/2000/svg" height="24" viewBox="0 -960 960 960" width="24"><path d="M148.913-202.152 77.935-454.848q-4.435-17.261 1.782-36.608 6.218-19.348 26.848-26.544l45.304-15.848V-720q0-36.109 25.892-61.761 25.891-25.652 62.239-25.652h111.869v-74.5q0-19.152 13.174-32.326t32.327-13.174h165.26q19.153 0 32.327 13.174t13.174 32.326v74.5H720q36.348 0 62.239 25.652 25.892 25.652 25.892 61.761v186.152L853.435-518q21.956 8.239 27.63 26.848 5.674 18.609 1 36.304l-70.978 252.696q-42.869 0-79.261-14.902-36.391-14.903-65.348-37.946-11.239-10.761-26.358-10.641-15.12.119-26.12 11.119-28 23.522-62 37.946t-72 14.424q-10 0-19-.881-9-.88-18-2.88-29-5.761-55-19.924t-48-33.685q-8.239-8-20.5-8.239Q307.239-268 298.761-260q-29.435 27-69.783 42.424t-80.065 15.424ZM480-32.587q-41 0-81.5-10t-78.5-30q-38 20-78 30t-82 10h-34.5q-19.152 0-32.326-13.174T80-78.087q0-19.152 13.174-32.326t32.326-13.174H160q35.761 0 71.761-9.88 36-9.881 66.522-28.642 10.239-6.239 21.717-6.239 11.478 0 21.717 6.239 22.479 14 50.261 22.761 27.783 8.761 54.022 11.761 8 1 17 1.5t17 .5q35.522 0 70.685-8.641 35.163-8.642 66.163-27.163 10.956-6.479 23.152-6.479 12.196 0 23.152 6.479 31 19.282 66.163 28.543T800-123.587h34.5q19.152 0 32.326 13.174T880-78.087q0 19.152-13.174 32.326T834.5-32.587H800q-42 0-82-10t-78-30q-38 20-78.5 30t-81.5 10ZM242.87-562.478l209.021-67.848q13.674-4.478 28.109-4.478 14.435 0 28.109 4.478l209.021 67.848v-153.935H242.87v153.935Z"/></svg>