<svg xmlns="http://www.w3.org/2000/svg" height="24" viewBox="0 -960 960 960" width="24"><path d="M793.391-52.935 645.022-201.304l-101.37 101.37q-13.674 13.673-30.113 20.39-16.439 6.718-33.446 6.718-17.006 0-33.539-6.717-16.532-6.718-30.206-20.392L99.935-416.348Q86.26-430.022 79.543-446.52q-6.717-16.498-6.717-33.565 0-17.067 6.717-33.48 6.718-16.413 20.392-30.087l101.608-101.609L55-790.804q-12.478-12.51-11.978-29.712.5-17.201 13.003-29.68 12.504-12.478 29.696-12.478t29.67 12.478l737.392 738.392q12.478 12.478 12.478 29.434 0 16.957-12.503 29.435-12.504 12.479-29.696 12.479t-29.671-12.479ZM581.37-265.196 265.196-581.37 164.065-480 480-164.065l101.37-101.131Zm182.435-54.891-63.892-63.891L795.935-480 480-795.935l-96.022 96.022-63.891-63.892 96.261-96.26q13.657-13.674 30.159-20.511t33.574-6.837q17.071 0 33.516 6.837 16.446 6.837 30.055 20.511l316.413 316.413q13.674 13.616 20.511 30.07 6.837 16.453 6.837 33.474 0 17.021-6.837 33.551t-20.511 30.209l-96.26 96.261Zm-221.74-221.978ZM423.283-423.283Zm-99.218 22.805V-520q0-18.196 12.457-30.652 12.456-12.457 30.652-12.457h34.304l86.218 86.218h-77.413v76.413q0 18.195-12.457 30.652-12.456 12.456-30.652 12.456t-30.652-12.456q-12.457-12.457-12.457-30.652Zm298.479-60.87 26.826-26.826q13.673-13.674 13.554-31.946-.12-18.271-13.554-31.945l-76.805-76.805q-11.195-11.195-24.989-5.478-13.794 5.718-13.794 21.391v44.587h-18.26l107.022 107.022Z"/></svg>