<svg xmlns="http://www.w3.org/2000/svg" height="24" viewBox="0 -960 960 960" width="24"><path d="M350-59.891q-46.478 0-83.576-24.12-37.098-24.119-57.576-66.119-16.239 22.913-41.935 35.489-25.696 12.576-53.37 12.576-52.195 0-87.652-35.957-35.456-35.956-35.456-87.152 0-45.152 29.913-80.848 29.913-35.695 75.304-39.5-14-20.239-21.38-42.858-7.38-22.62-7.38-47.859 0-41.435 21.456-77.511 21.456-36.076 60.369-58.315 5 19.195 14.337 41.25 9.337 22.054 21.055 38.25-14 10.522-22 25.663t-8 31.902q0 54.804 46.119 67.087 46.12 12.283 85.685 20.043l20.435 34.631q-10.283 29.369-18.761 52.228t-8.478 42.294q0 29.043 20.424 50.826 20.424 21.782 50.467 21.782 30.565 0 52.728-23.304t37.185-58.25q15.022-34.946 24.402-74.511 9.381-39.565 15.381-71.848 3.478-18.195 18.315-28.174 14.837-9.978 32.032-4.739 18.435 5.239 27.533 21.555 9.098 16.315 4.859 34.75-9.239 46-23.598 97.163-14.359 51.163-38.098 94.206Q477-116.217 440.38-88.054 403.761-59.891 350-59.891Zm74.869-323.283q-13.717 13.956-33.293 12.696-19.576-1.261-34.294-14.979-68.63-62.347-114.51-119.586-45.881-57.24-45.881-123.957 0-66.196 45.457-111.652Q287.804-786.109 354-786.109q3.522 0 6.402.381 2.881.38 6.402.38-4.956-10.956-7.434-22.033-2.479-11.076-2.479-23.271 0-51.196 35.957-87.153 35.956-35.956 87.152-35.956t87.152 35.956q35.957 35.957 35.957 87.153 0 12.195-2.479 22.891-2.478 10.696-7.434 21.652H606q61.913 0 105.109 40.174 43.195 40.174 50.239 99.326-19.435-3.717-43.609-3.717-24.174 0-44.369 2.239-6.522-22.522-24.305-37.163-17.782-14.641-43.065-14.641-35 0-55.457 22.413-20.456 22.413-51.108 57.587h-39.87q-31.413-36.696-51.75-58.348T354-699.891q-30.565 0-50.728 20.163T283.109-629q0 40.804 38.304 85.228 38.304 44.424 96.935 97.772 14.717 12.717 17.097 31.293 2.381 18.576-10.576 31.533ZM609-59.891q-22.957 0-45.533-6.479-22.576-6.478-43.293-20.434Q532.13-102 544.087-122.435q11.956-20.435 21.196-37.869 10.76 7.717 22 11.076 11.239 3.358 22.478 3.358 31.043 0 51.467-22.021 20.424-22.022 20.424-51.826 0-20.196-8.359-42.674-8.358-22.479-18.641-51.848l20.196-34.391q40.565-7.761 86.304-20.164 45.739-12.402 45.739-67.206 0-38.804-28.902-55.848-28.902-17.043-62.706-17.043-35.24 0-80.283 11.641t-97.826 28.728q-17.956 5.718-34.793-1.619t-22.077-25.294q-5.239-18.435 5.24-34.391 10.478-15.957 28.913-21.674 57.26-18.326 107.184-30.967 49.924-12.642 94.402-12.642 70.435 0 123.751 41.718Q893.109-511.674 893.109-436q0 25-7.381 47.62-7.38 22.619-21.38 42.858 45.391 3.565 75.424 39.261 30.033 35.696 30.033 81.087 0 51.196-35.457 87.152-35.457 35.957-87.652 35.957-27.674 0-53.489-12.696-25.816-12.695-42.055-35.609-20.717 42.24-57.695 66.36Q656.478-59.892 609-59.892Z"/></svg>