<svg xmlns="http://www.w3.org/2000/svg" height="24" viewBox="0 -960 960 960" width="24"><path d="M520-116.413q-18.435 0-31.011-12.576T476.413-160q0-18.435 12.576-31.011T520-203.587h101.521l-82.434-58.304q-15.196-10.957-18.174-27.892-2.978-16.934 6.978-32.13 9.957-15.196 27.392-18.174 17.434-2.978 32.63 6.978l83.674 57.544-35.174-95.239q-6.478-16.435 1.239-32.87 7.718-16.435 25.152-22.913 17.435-6.478 33.87 1.239 16.435 7.718 22.913 25.152l33.935 95 26.891-97.761q5.239-17.434 20.174-26.652 14.935-9.217 32.37-3.978 17.434 5.239 27.152 20.174 9.717 14.935 4.478 32.37l-62 232q-4.239 14.956-15.815 23.793T760-116.413H520ZM158.087-223.5q-19.152 0-32.326-13.174T112.587-269q0-19.152 13.174-32.326t32.326-13.174h238.935q-2.283 24.109-.826 45.739 1.456 21.631 7.565 45.261H158.087Zm0-167.413q-19.152 0-32.326-13.174t-13.174-32.326q0-19.152 13.174-32.326t32.326-13.174h341.217Q474.391-464 455.054-441.13q-19.337 22.869-32.859 50.217H158.087Zm0-167.174q-19.152 0-32.326-13.174t-13.174-32.326q0-19.152 13.174-32.326t32.326-13.174h523.826q19.152 0 32.326 13.174t13.174 32.326q0 19.152-13.174 32.326t-32.326 13.174H158.087Zm0-167.413q-19.152 0-32.326-13.174T112.587-771q0-19.152 13.174-32.326t32.326-13.174h523.826q19.152 0 32.326 13.174T727.413-771q0 19.152-13.174 32.326T681.913-725.5H158.087Z"/></svg>