<svg xmlns="http://www.w3.org/2000/svg" height="24" viewBox="0 -960 960 960" width="24"><path d="M162.87-151.869q-37.783 0-64.392-26.609Q71.87-205.087 71.87-242.87v-474.26q0-37.783 26.61-64.392 26.608-26.609 64.391-26.609h195.999q18.211 0 34.714 6.837 16.504 6.837 29.178 19.511L480-724.544h317.13q37.783 0 64.392 26.609 26.609 26.609 26.609 64.392v390.673q0 37.783-26.609 64.392-26.609 26.609-64.392 26.609H162.87Zm0-91.001h634.26v-390.673H442.456l-83.587-83.587H162.87v474.26Zm0 0v-474.26 474.26ZM480-278.565q18.196 0 30.652-12.457 12.457-12.456 12.457-30.652V-431.5l27.391 27.391q11.717 11.718 29.435 11.718 17.717 0 30.152-12.435 11.956-11.956 11.956-30.152t-11.956-30.152l-98.022-98.022q-13.761-13.674-32.108-13.674-18.348 0-32.022 13.674l-98.022 98.022q-11.956 11.956-11.956 30.152t12.673 30.869q11.718 11.718 29.435 11.718 17.718 0 29.435-11.718l27.391-27.391v109.826q0 18.196 12.457 30.652 12.456 12.457 30.652 12.457Z"/></svg>