<svg xmlns="http://www.w3.org/2000/svg" height="24" viewBox="0 -960 960 960" width="24"><path d="M202.87-71.87q-37.783 0-64.392-26.608-26.609-26.609-26.609-64.392v-554.26q0-37.783 26.609-64.392 26.609-26.609 64.392-26.609H240V-845.5q0-17.957 12.457-30.294 12.456-12.337 30.413-12.337 17.956 0 30.293 12.337T325.5-845.5v37.369h309V-845.5q0-17.957 12.456-30.294 12.457-12.337 30.414-12.337 17.956 0 30.293 12.337T720-845.5v37.369h37.13q37.783 0 64.392 26.609 26.609 26.609 26.609 64.392V-559q0 19.152-13.174 32.326T802.63-513.5q-19.152 0-32.326-13.174T757.13-559v-1H202.87v397.13h230.195q19.152 0 32.326 13.174t13.174 32.326q0 19.153-13.174 32.327T433.065-71.87H202.87Zm355.695-45.5v-65.043q0-9.196 3.478-17.533 3.479-8.337 10.196-15.054L781-423q9.717-9.717 21.554-14.076 11.837-4.359 23.794-4.359 12.956 0 24.793 4.859T872.696-422l37 37q8.717 9.717 13.576 21.554 4.859 11.837 4.859 23.794 0 12.196-4.359 24.413t-14.076 21.935l-208 208q-6.718 6.717-15.055 10.076-8.337 3.359-17.532 3.359h-65.044q-19.152 0-32.326-13.174t-13.174-32.327Zm270.174-185.673 34.609-36.609-37-37-35.609 35.609 38 38Z"/></svg>