<svg xmlns="http://www.w3.org/2000/svg" height="24" viewBox="0 -960 960 960" width="24"><path d="M480.239-69.239q-34.196 0-58.533-24.217-24.336-24.218-24.336-58.413h165.5q0 34.195-24.218 58.413-24.217 24.217-58.413 24.217Zm282.391-122.63H197.37q-19.153 0-32.327-13.174t-13.174-32.327q0-19.152 13.174-32.326t32.327-13.174H229v-271.869q0-86.109 51.315-153.598 51.315-67.489 134.185-88.207v-26.086q0-27.392 19.054-46.446 19.055-19.055 46.446-19.055t46.446 19.055Q545.5-850.022 545.5-822.63v26.086q9.565 2.761 18.63 5.663 9.066 2.903 17.87 7.185L425.674-628.37Q413-615.696 405.783-598.902q-7.218 16.793-7.218 35.185v114.152q0 37.782 26.609 64.391 26.609 26.609 64.391 26.609h109.848q18.152 0 35.065-6.837 16.913-6.837 29.587-19.511L731-452.609v169.739h31.63q19.153 0 32.327 13.174t13.174 32.326q0 19.153-13.174 32.327t-32.327 13.174ZM478.565-484.065v-65.044q0-9.195 3.478-17.913 3.479-8.717 10.196-14.674l208.761-208q9.717-9.717 21.554-14.076 11.837-4.359 23.794-4.359 12.956 0 24.793 4.859t21.555 14.576l37 37q8.956 9.718 13.695 21.555 4.74 11.837 4.74 23.793 0 12.196-4.359 24.413-4.359 12.218-14.076 21.935l-208 208q-5.957 5.957-14.674 9.696-8.718 3.739-17.913 3.739h-65.044q-19.152 0-32.326-13.174t-13.174-32.326Zm270.174-185.674 34.609-36.609-37-37-35.609 35.609 38 38Z"/></svg>