<svg xmlns="http://www.w3.org/2000/svg" height="24" viewBox="0 -960 960 960" width="24"><path d="m428.282-369-231.978-29.761q-28.348-3.478-37.043-30.706-8.696-27.229 11.934-46.859l418.088-400.848q5.478-5.478 13.195-8.217 7.718-2.74 21.152-2.74 21.914 0 33.37 18.674 11.457 18.674.739 38.348L530.522-589.326l232.217 29.282q28.587 3.479 37.163 30.707 8.577 27.228-12.054 46.859L370.717-82.826q-5.478 5.478-13.195 8.217-7.718 2.74-21.152 2.74-21.914 0-33.49-18.555-11.576-18.554-.858-38.228L428.282-369Zm75.153 40.087 162.913-156.152-269.478-34 58.695-110.783-162.63 157.109 268.478 33.478-57.978 110.348Zm-23.674-150.848Z"/></svg>