<svg xmlns="http://www.w3.org/2000/svg" height="24" viewBox="0 -960 960 960" width="24"><path d="M480-112.587q-76.435 0-143.25-28.978t-116.511-78.674q-49.696-49.696-78.674-116.511-28.978-66.815-28.978-143.25t28.978-143.25q28.978-66.815 78.674-116.511 49.696-49.696 116.511-78.674 66.815-28.978 143.25-28.978t143.25 28.978q66.815 28.978 116.511 78.674 49.696 49.696 78.674 116.511 28.978 66.815 28.978 143.25t-28.978 143.25q-28.978 66.815-78.674 116.511-49.696 49.696-116.511 78.674-66.815 28.978-143.25 28.978ZM203.587-480q0 77.5 39.956 142.435 39.957 64.934 108.544 99.413-37.457-49.327-56.565-114.142-19.109-64.815-19.109-137.554 0-62.891 14.685-119.5 14.684-56.608 42.293-103.413-60.5 37.761-95.152 99.533T203.587-480Zm353.5 264.587q67.826-19 118.163-69.217 50.337-50.218 69.337-118.044l-187.5 187.261Zm-76.565-13.696 274.891-274.413q-1.761-12.804-3.641-26.228-1.881-13.424-6.163-26.228L447.587-257.957q7.283 8.283 15.587 15.305 8.304 7.022 17.348 13.543Zm-70.413-81.63 308.304-308.304q-5.761-9.044-11.163-17.827-5.402-8.782-12.685-17.065L390.5-350.63q4.522 10.282 9.424 19.945 4.902 9.663 10.185 19.946Zm-37.131-111.109 275.957-276.717q-9.044-7.283-17.826-13.185-8.783-5.902-18.826-11.424l-244.87 244.87q.761 14.804 1.902 28.608 1.142 13.805 3.663 27.848Zm5.501-157.022 168.738-169.5q-13.326-3.521-26.532-5.163-13.207-1.641-26.533-2.641-44.217 26.848-73.706 72.185-29.489 45.337-41.967 105.119Zm-102.066 89.022Z"/></svg>