<svg xmlns="http://www.w3.org/2000/svg" height="24" viewBox="0 -960 960 960" width="24"><path d="m480-301.37-61.609 61.609q-11.717 11.718-29.195 11.598Q371.717-228.283 360-240q-11.717-11.717-11.717-29.315T360-298.63L421.37-360l-61.609-61.609q-11.718-11.717-11.598-29.315.12-17.598 11.837-29.315 11.717-11.718 29.315-11.718t29.315 11.718L480-418.63l61.609-61.609q11.717-11.718 29.315-11.718t29.315 11.718q11.718 11.717 11.718 29.315t-11.718 29.315L538.63-360l61.609 61.609q11.718 11.717 11.718 29.195 0 17.479-11.718 29.196-11.717 11.717-29.315 11.717T541.609-240L480-301.37ZM202.87-71.87q-37.783 0-64.392-26.608-26.609-26.609-26.609-64.392v-554.26q0-37.783 26.609-64.392 26.609-26.609 64.392-26.609H240V-845.5q0-17.957 12.457-30.294 12.456-12.337 30.413-12.337 17.956 0 30.293 12.337T325.5-845.5v37.369h309V-845.5q0-17.957 12.456-30.294 12.457-12.337 30.414-12.337 17.956 0 30.293 12.337T720-845.5v37.369h37.13q37.783 0 64.392 26.609 26.609 26.609 26.609 64.392v554.26q0 37.783-26.609 64.392Q794.913-71.87 757.13-71.87H202.87Zm0-91h554.26V-560H202.87v397.13Zm0-477.13h554.26v-77.13H202.87V-640Zm0 0v-77.13V-640Z"/></svg>