<svg xmlns="http://www.w3.org/2000/svg" height="24" viewBox="0 -960 960 960" width="24"><path d="m480-459.457-91.891-91.891q-12.315-12.435-30.788-12.435t-31.669 12.435q-13.435 13.196-13.315 31.848.119 18.652 13.315 31.848L448.174-365.37q13.63 13.435 31.804 13.435t31.848-13.435l123.283-123.282q13.195-13.196 12.935-31.348-.261-18.152-13.696-31.348-13.196-12.435-31.348-12.696-18.152-.26-31.348 12.935L480-459.457Zm0 387.588q-84.913 0-159.345-32.118t-129.491-87.177q-55.059-55.059-87.177-129.491Q71.869-395.087 71.869-480t32.118-159.345q32.118-74.432 87.177-129.491 55.059-55.059 129.491-87.177Q395.087-888.131 480-888.131t159.345 32.118q74.432 32.118 129.491 87.177 55.059 55.059 87.177 129.491Q888.131-564.913 888.131-480t-32.118 159.345q-32.118 74.432-87.177 129.491-55.059 55.059-129.491 87.177Q564.913-71.869 480-71.869Z"/></svg>