<svg xmlns="http://www.w3.org/2000/svg" height="24" viewBox="0 -960 960 960" width="24"><path d="M480.04-71.87q-84.953 0-159.385-32.117-74.432-32.118-129.491-87.177-55.059-55.059-87.177-129.491-32.118-74.432-32.118-159.385 0-61.413 17.36-118.219 17.358-56.806 50.314-107.002l-65.41-65.611q-12.46-12.498-12.46-29.621 0-17.123 12.504-29.576t29.696-12.453q17.192 0 29.67 12.478l696.74 696.501q12.478 12.478 12.359 29.315-.12 16.837-12.573 29.315-12.453 12.478-29.576 12.478t-29.621-12.504l-65.611-64.604q-50.196 32.956-107.002 50.315Q541.453-71.87 480.04-71.87Zm2.917-290.217L360.326-484.478 272.092-291.98q-4.744 9.871 2.636 17.252 7.381 7.38 17.142 2.619l191.087-89.978Zm340.13 102.804L600.065-482.304l87.826-185.826q4.761-9.761-2.619-17.142-7.381-7.38-17.142-2.619l-185.826 87.826-223.021-223.022q49.478-31.522 105.056-48.283Q419.916-888.131 480-888.131q84.913 0 159.345 32.118t129.491 87.177q55.059 55.059 87.177 129.491Q888.131-564.913 888.131-480q0 60.084-16.761 115.661-16.761 55.578-48.283 105.056Z"/></svg>