<svg xmlns="http://www.w3.org/2000/svg" height="24" viewBox="0 -960 960 960" width="24"><path d="M200-111.869q-36.587 0-62.359-25.772T111.869-200v-156.304q45.609 0 79.218-29.424 33.608-29.424 33.608-74.272 0-44.848-33.608-74.272-33.609-29.424-79.218-29.424V-720q0-18.435 6.598-34.489 6.598-16.055 18.794-28.25l645.478 645.478q-12.195 12.196-28.25 18.794-16.054 6.598-34.489 6.598H563.696q0-45.609-29.424-79.218-29.424-33.608-74.272-33.608-44.848 0-74.272 33.608-29.424 33.609-29.424 79.218H200Zm608.131-162.609L274.478-808.131h78.587q2.631-43.434 33.305-72.554 30.673-29.12 73.63-29.12 42.957 0 73.63 29.12 30.674 29.12 33.305 72.554H720q36.348 0 62.239 25.892 25.892 25.891 25.892 62.239v153.065q43.434 2.631 72.554 33.305 29.12 30.673 29.12 73.63 0 42.957-29.12 73.63-29.12 30.674-72.554 33.305v78.587Zm-37.24 199.565L74.152-770.89q-12.478-12.479-11.978-29.696.5-17.218 12.978-29.696 12.478-12.478 29.696-12.478 17.217 0 29.695 12.478l695.74 696.74q12.478 12.478 12.478 29.195 0 16.718-12.478 29.196-12.478 12.478-29.696 12.598-17.217.12-29.696-12.359Z"/></svg>