<svg xmlns="http://www.w3.org/2000/svg" height="24" viewBox="0 -960 960 960" width="24"><path d="M163.587-72.587q-37.783 0-64.391-26.609-26.61-26.608-26.61-64.391v-342.022q0-27.348 14.914-50.098 14.913-22.75 40.783-33.945l178.587-75.674q21.674-8.718 41.108 3.478 19.435 12.196 19.435 35.87v15.217l137.348-55.13q22.63-9.196 42.641 4.358 20.011 13.555 20.011 37.663v56.457h320v403.826q0 37.783-26.609 64.391-26.608 26.61-64.391 26.61H163.587ZM436.413-240h87.174v-160h-87.174v160Zm-163.826 0H360v-160h-87.413v160ZM600-240h87.413v-160H600v160Zm279.174-387.413H686.043l28.283-218.304q2.239-16.913 15.174-28.348 12.935-11.435 30.087-11.435h47.087q16.913 0 29.707 11.315 12.793 11.315 15.032 28.228l27.761 218.544Z"/></svg>