<svg xmlns="http://www.w3.org/2000/svg" height="24" viewBox="0 -960 960 960" width="24"><path d="M480.239-157.848q-134.717 0-228.554-93.837-93.837-93.837-93.837-228.554 0-134.718 93.837-228.555 93.837-93.836 228.554-93.836 134.718 0 228.555 93.836 93.836 93.837 93.836 228.555 0 134.717-93.836 228.554-93.837 93.837-228.555 93.837Zm.239-86.217q97.848 0 166.892-68.805 69.043-68.804 69.043-167.369 0-17-2.38-32.304-2.381-15.305-7.62-30.827-15.717 3.479-30.359 4.979-14.641 1.5-29.402 1.5-62.522 0-120.478-24.479-57.957-24.478-101.283-70.956-26.326 55.804-73.293 96.13-46.968 40.326-107.054 60.283 2.282 96.804 70.706 164.326 68.424 67.522 165.228 67.522Zm-96.413-158.087q-17 0-28.619-11.62-11.62-11.619-11.62-28.619t11.62-28.859q11.619-11.859 28.619-11.859t28.859 11.859q11.859 11.859 11.859 28.859t-11.859 28.619q-11.859 11.62-28.859 11.62Zm191.87 0q-17 0-28.739-11.62-11.74-11.619-11.74-28.619t11.74-28.739q11.739-11.74 28.739-11.74t28.739 11.74q11.739 11.739 11.739 28.739t-11.739 28.619q-11.739 11.62-28.739 11.62ZM31.869-765.5v-71.63q0-37.783 26.61-64.392 26.608-26.609 64.391-26.609h71.63q19.152 0 32.326 13.174T240-882.63q0 19.152-13.174 32.326T194.5-837.13h-71.63v71.63q0 19.152-13.174 32.326T77.37-720q-19.153 0-32.327-13.174T31.87-765.5ZM194.5-31.87h-71.63q-37.783 0-64.392-26.608Q31.87-85.087 31.87-122.87v-71.63q0-19.152 13.174-32.326T77.37-240q19.152 0 32.326 13.174T122.87-194.5v71.63h71.63q19.152 0 32.326 13.174T240-77.37q0 19.153-13.174 32.327T194.5-31.87Zm642.63 0H765.5q-19.152 0-32.326-13.173Q720-58.217 720-77.37q0-19.152 13.174-32.326T765.5-122.87h71.63V-240h91.001v117.13q0 37.783-26.609 64.392Q874.913-31.87 837.13-31.87Zm0-733.63v-71.63H765.5q-19.152 0-32.326-13.174T720-882.63q0-19.153 13.174-32.327t32.326-13.174h71.63q37.783 0 64.392 26.609 26.609 26.609 26.609 64.392v71.63q0 19.152-13.174 32.326T882.63-720q-19.152 0-32.326-13.174T837.13-765.5Z"/></svg>