<svg xmlns="http://www.w3.org/2000/svg" height="24" viewBox="0 -960 960 960" width="24"><path d="M534.5-436.413q18.435 0 30.772-12.457 12.337-12.456 12.337-30.652 0-6.761-1.381-12.38-1.38-5.62-4.141-10.62 11.239-4.717 18.739-15.195 7.5-10.479 7.5-23.957 0-18.435-12.337-30.772t-30.772-12.337q-13.478 0-23.956 7.12-10.479 7.119-15.196 19.119l-138.587-66.413q2-4.239 2.62-8.478.619-4.239.619-8.478 0-18.435-12.337-30.772t-30.771-12.337q-18.196 0-30.653 12.337-12.456 12.337-12.456 30.772 0 5.761 1.761 11.022t4.521 10.261q-11.956 4.478-20.315 15.315-8.358 10.837-8.358 25.554 0 18.196 12.456 30.652 12.457 12.457 30.652 12.457 14.479 0 24.957-7.62 10.478-7.619 15.196-19.619L495.391-497l-4 17.478q0 18.196 12.457 30.652 12.456 12.457 30.652 12.457ZM387.304-80.239q-15.761-45.565-23.402-89.989-7.641-44.424-9.641-84.207-2-39.782-.5-73.543 1.5-33.761 4.261-58h-.12.12q-22.24-5.239-50.62-12.978-28.38-7.74-60.402-20.74-32.022-13-65.424-31.38-33.402-18.38-65.685-43.663L169.478-570q38.761 35 81.261 55.5 42.5 20.5 78.381 32Q365-471 389-467.5l24 3.5q18 1.239 28.5 15.12Q452-435 449-417l-4.5 33.5q-4.5 33.5-5 83.5t7.5 109q8 59 33 111l-92.696-.24ZM766.218-80H680v-423q0-48-25.5-87T586-649L312.522-771.522l52.826-72.978L621.63-727.739q65.914 29.717 105.251 90.391Q766.218-576.674 766.218-503v423ZM480-80q-25-52-33-111t-7.5-109q.5-50 5-83.5L449-417q3-18-7.5-31.88Q431-462.761 413-464l-24-3.5q-24-3.5-59.88-15-35.881-11.5-78.381-32T169.478-570q38.761 35 81.261 55.5 42.5 20.5 78.381 32Q365-471 389-467.5l24 3.5q18 1.239 28.5 15.12Q452-435 449-417l-4.5 33.5q-4.5 33.5-5 83.5t7.5 109q8 59 33 111Z"/></svg>