<svg xmlns="http://www.w3.org/2000/svg" height="24" viewBox="0 -960 960 960" width="24"><path d="M355.66-191.869q-120.312 0-204.204-83.857-83.891-83.856-83.891-204.239 0-120.383 83.856-204.274 83.857-83.892 204.24-83.892 120.382 0 204.154 83.857 83.772 83.856 83.772 204.239 0 120.383-83.807 204.274-83.808 83.892-204.12 83.892ZM355.696-480Zm362.717 263.152q-26.108 10.87-47.837-.185-21.728-11.054-21.728-40.88 0-11.717 7.978-23.033 7.979-11.315 19.696-16.272 56.174-20.956 90.543-71.043 34.37-50.087 34.37-111.739t-34.37-111.739q-34.369-50.087-90.543-71.043-11.717-4.957-19.696-16.153-7.978-11.195-7.978-23.152 0-28.853 21.228-40.394 21.229-11.541 48.055-.432 77.413 29.956 125.858 101.815Q892.435-569.239 892.435-480q0 89.239-48.685 160.598-48.684 71.359-125.337 102.554ZM355.692-282.87q81.808 0 139.351-57.659 57.544-57.66 57.544-139.468 0-81.807-57.591-139.47t-139.3-57.663q-81.81 0-139.47 57.659-57.661 57.66-57.661 139.468 0 81.807 57.66 139.47 57.659 57.663 139.467 57.663Z"/></svg>