<svg xmlns="http://www.w3.org/2000/svg" height="24" viewBox="0 -960 960 960" width="24"><path d="m382-449.305 333.935-333.934q13.674-13.674 32.445-13.674 18.772 0 32.446 13.674t13.674 32.445q0 18.772-13.674 32.446L414.065-351.587Q400.391-337.913 382-337.913t-32.065-13.674L179.174-522.348q-13.674-13.674-13.294-32.446.381-18.771 14.055-32.445t32.445-13.674q18.772 0 32.446 13.674L382-449.305ZM237.37-151.869q-19.153 0-32.327-13.174t-13.174-32.327q0-19.152 13.174-32.326t32.327-13.174h485.26q19.153 0 32.327 13.174t13.174 32.326q0 19.153-13.174 32.327t-32.327 13.174H237.37Z"/></svg>