<svg xmlns="http://www.w3.org/2000/svg" height="24" viewBox="0 -960 960 960" width="24"><path d="M158.087-71.87q-35.565 0-60.891-25.326-25.327-25.326-25.327-60.891v-563.826q0-35.565 25.327-60.891 25.326-25.327 60.891-25.327h157.609l133.195-128.413q13.435-12.717 31.109-12.717t31.109 12.717l133.195 128.413h157.609q35.565 0 60.891 25.327 25.327 25.326 25.327 60.891v563.826q0 35.565-25.327 60.891-25.326 25.327-60.891 25.327H158.087Zm4.783-91h634.26v-554.26H162.87v554.26Zm80-125.5v-303.26q0-19.152 13.174-32.326t32.326-13.174h383.26q19.152 0 32.326 13.174t13.174 32.326v303.26q0 19.152-13.174 32.326T671.63-242.87H288.37q-19.152 0-32.326-13.174T242.87-288.37Zm86.217-40.717h301.826v-221.826H329.087v221.826ZM480-440Z"/></svg>