<svg xmlns="http://www.w3.org/2000/svg" height="24" viewBox="0 -960 960 960" width="24"><path d="M316.174-162.87V-522.5L78.739-762.804Q67.261-774.522 67.38-792q.12-17.478 11.837-29.196 11.718-11.717 29.316-11.717 17.597 0 29.315 11.717l686.935 686.935q11.717 11.718 11.717 29.196t-11.717 29.196q-11.718 11.717-29.316 11.837-17.597.12-29.315-11.598L652.196-189.587v36.522q0 33.478-23.859 57.337Q604.479-71.87 571-71.87H407.174q-37.783 0-64.391-26.61-26.609-26.608-26.609-64.391Zm416.022-594.26H319.5l-75.457-76.892q10.914-24.435 32.946-39.152 22.033-14.717 50.185-14.717h314.022q37.782 0 64.391 26.608 26.609 26.609 26.609 64.392v39.761Zm-80 332.695L399.5-677.13h332.696v15.282q0 13.674-3.478 26.229-3.479 12.554-11.435 23.989l-65.087 97.13v90.065Z"/></svg>