<svg xmlns="http://www.w3.org/2000/svg" height="24" viewBox="0 -960 960 960" width="24"><path d="M416.696-133.369q-10.196-3.479-17.033-11.935-6.837-8.457-6.837-20.891V-383.26h-34.5q-35.87 0-61.283-25.414-25.413-25.413-25.413-61.282v-326.218q0-37.783 26.609-64.391 26.609-26.609 64.391-26.609h232.566q36.543 0 59.391 28.467 22.848 28.468 12.696 62.533L613.631-616.74h42.608q40.305 0 58.522 34.392 18.218 34.391-5.652 68.696l-253.87 366.848q-6.956 10.196-17.652 13.554-10.696 3.359-20.891-.119Z"/></svg>