<svg xmlns="http://www.w3.org/2000/svg" height="24" viewBox="0 -960 960 960" width="24"><path d="M480-200.239q-19.152 0-32.326-13.174T434.5-245.739V-520H240.957q-22.87 0-36.544-18.272-13.674-18.272-6.717-40.902l76.326-246.5q8.956-28.587 32.826-46.239 23.869-17.652 53.696-17.652h238.912q29.827 0 53.696 17.652 23.87 17.652 32.826 46.239l76.326 246.5q6.957 22.63-6.717 40.902Q741.913-520 719.043-520H525.5v274.261q0 19.152-13.174 32.326T480-200.239Zm-120 131q-19.152 0-32.326-13.174T314.5-114.739q0-19.152 13.174-32.326T360-160.239h240q19.152 0 32.326 13.174t13.174 32.326q0 19.152-13.174 32.326T600-69.239H360Z"/></svg>