<svg xmlns="http://www.w3.org/2000/svg" height="24" viewBox="0 -960 960 960" width="24"><path d="M162.87-151.869q-37.783 0-64.392-26.609Q71.87-205.087 71.87-242.87v-474.26q0-37.783 26.61-64.392 26.608-26.609 64.391-26.609h634.26q37.544 0 64.153 26.609 26.608 26.609 26.848 64.152H611q-70.782 0-120.891 50.229Q440-616.913 440-546.13v191.869q0 57 20.043 109.479 20.044 52.478 59.848 92.913H162.87ZM772.913-17.043q-37.782 0-64.391-26.609-26.609-26.608-26.609-64.391v-41.609q-69.956-15.435-115.935-71.489Q520-277.195 520-354.261V-546.13q0-37.783 26.228-64.392Q572.457-637.13 611-637.13h230.435q37.783 0 64.391 26.608 26.609 26.609 26.609 64.392v195.217q0 74.435-45.978 130.131-45.978 55.695-115.935 71.13v44h75.696q18.673 0 31.489 12.815 12.815 12.816 12.815 31.49t-12.815 31.489q-12.816 12.815-31.489 12.815h-73.305Zm23.305-376.979h47.608v-154.499H608.609v74.499h27.609q33.717 0 63.815 15.24 30.098 15.239 50.576 41.956 7.761 11.283 20.043 17.044 12.283 5.76 25.566 5.76Zm-399.327-125.5q18.196 0 30.652-12.456Q440-544.435 440-562.63q0-18.196-12.457-30.653-12.456-12.456-30.652-12.456H284.544q-18.196 0-30.653 12.456-12.456 12.457-12.456 30.653 0 18.195 12.456 30.652 12.457 12.456 30.653 12.456h112.347Zm0 165.261q18.196 0 30.652-12.456Q440-379.174 440-397.37q0-18.195-12.457-30.652-12.456-12.456-30.652-12.456H284.544q-18.196 0-30.653 12.456-12.456 12.457-12.456 30.652 0 18.196 12.456 30.653 12.457 12.456 30.653 12.456h112.347Z"/></svg>