<svg xmlns="http://www.w3.org/2000/svg" height="24" viewBox="0 -960 960 960" width="24"><path d="M520-32.108q-35.391 0-60.446-25.055Q434.5-82.217 434.5-117.609v-83.956q-102.761-15.913-171.022-95.011t-68.261-185.815v-353.783q0-37.783 26.609-64.391 26.609-26.609 64.392-26.609h387.564q37.783 0 64.392 26.609 26.609 26.608 26.609 64.391v353.783q0 106.717-68.261 185.815T525.5-201.565v78.456H720q19.152 0 32.326 13.174T765.5-77.609q0 19.153-13.174 32.326Q739.152-32.108 720-32.108H520Zm25.217-415.544h127.674q1.761-8.805 2.522-16.989.761-8.185.761-17.75v-38.087H565.5q-18.196 0-30.652-12.457-12.457-12.456-12.457-30.652t12.457-30.652q12.456-12.457 30.652-12.457h110.674v-72.826H515.935q-18.196 0-30.653-12.456-12.456-12.457-12.456-30.652 0-18.196 12.456-30.653 12.457-12.456 30.653-12.456h160.239v-72.826H283.826v310.913h96.609q32.282 0 61.423 13.804 29.142 13.804 49.859 38.369 10.152 11.718 23.989 19.772 13.837 8.055 29.511 8.055Z"/></svg>