<svg xmlns="http://www.w3.org/2000/svg" height="24" viewBox="0 -960 960 960" width="24"><path d="M725.5-190.674q-19.033 0-31.908-12.875t-12.875-31.907q0-19.033 12.875-31.908t31.908-12.875q19.033 0 31.908 12.875t12.875 31.908q0 19.032-12.875 31.907T725.5-190.674ZM277.382-64.217q-18.926 0-31.86-12.875Q232.587-89.967 232.587-109q0-19.032 12.875-31.907t31.908-12.875q18.931 0 31.737 12.875 12.806 12.875 12.806 31.907 0 19.033-12.803 31.908-12.802 12.875-31.728 12.875ZM240-190.674q-19.033 0-31.908-12.875t-12.875-31.907q0-19.033 12.875-31.908T240-280.239h360q19.033 0 31.908 12.875t12.875 31.908q0 19.032-12.875 31.907T600-190.674H240ZM402.87-64.217q-19.033 0-31.908-12.875T358.087-109q0-19.032 12.875-31.907t31.908-12.875h280q18.931 0 31.737 12.875 12.806 12.875 12.806 31.907 0 19.033-12.806 31.908T682.87-64.217h-280ZM300-318.087q-93.152 0-159.326-66.174Q74.5-450.435 74.5-543.587q0-84.435 55.478-147.75t137.435-75.272q32.957-57 89.413-89.739 56.457-32.739 123.165-32.739 90.966 0 158.542 57.5 67.576 57.5 83.011 143.978 69.717 7.435 116.837 59.631Q885.5-575.783 885.5-503.587q0 77.152-54.104 131.326Q777.292-318.087 700-318.087H300Z"/></svg>