<svg xmlns="http://www.w3.org/2000/svg" height="24" viewBox="0 -960 960 960" width="24"><path d="M234.5-273.065q-19.152 0-32.326-13.174T189-318.565v-322.631q0-19.152 13.174-32.326t32.326-13.174q19.152 0 32.326 13.174T280-641.196V-525.5h149v-115.696q0-19.152 13.174-32.326t32.326-13.174q19.152 0 32.326 13.174T520-641.196v322.631q0 19.152-13.174 32.326T474.5-273.065q-19.152 0-32.326-13.174T429-318.565V-434.5H280v115.935q0 19.152-13.174 32.326T234.5-273.065Zm491 0q-19.152 0-32.326-13.174T680-318.565v-277.131h-34.5q-19.152 0-32.326-13.174Q600-622.043 600-641.196q0-19.152 13.174-32.326t32.326-13.174h80q19.152 0 32.326 13.174T771-641.196v322.631q0 19.152-13.174 32.326T725.5-273.065Z"/></svg>