<svg xmlns="http://www.w3.org/2000/svg" height="24" viewBox="0 -960 960 960" width="24"><path d="M457.935-800.717v396.652q0 18.435-12.576 31.011t-31.011 12.576q-18.435 0-31.13-12.696-12.696-12.696-12.696-31.13v-156.892q-67.196-.956-114.554-48.674-47.359-47.717-47.359-114.434 0-67.435 48.435-115.631t116.587-48.196h286.696q18.434 0 31.01 12.576 12.577 12.577 12.577 31.011 0 18.435-12.577 31.131-12.576 12.696-31.01 12.696h-37.131v396.413q0 18.434-12.696 31.13-12.695 12.696-31.13 12.696t-31.13-12.696q-12.696-12.696-12.696-31.13v-396.413h-77.609ZM278.696-196.891l33.13 33.13q12.435 12.435 12.435 30.87 0 18.435-12.435 30.869-12.435 12.435-30.75 12.435-18.315 0-30.75-12.435L144.413-207.935q-13.674-13.674-13.674-31.945 0-18.272 13.674-31.946l106.87-106.87q12.195-12.195 30.391-12.195 18.196 0 30.391 12.195 12.196 12.196 12.196 30.272t-12.196 30.272l-34.087 34.087h526.566q18.434 0 31.011 12.576 12.576 12.576 12.576 31.011t-12.576 31.011q-12.577 12.576-31.011 12.576H278.696Z"/></svg>