<svg xmlns="http://www.w3.org/2000/svg" height="24" viewBox="0 -960 960 960" width="24"><path d="M425.891-800.717v396.652q0 18.524-12.531 31.055-12.532 12.532-31.056 12.532-18.435 0-31.131-12.696-12.695-12.696-12.695-31.13v-156.892q-67.196-.956-114.555-48.674-47.358-47.717-47.358-114.434 0-67.435 48.475-115.631t116.547-48.196h286.695q18.525 0 31.056 12.532 12.531 12.531 12.531 31.055 0 18.435-12.531 31.131-12.531 12.696-31.056 12.696h-37.13v396.413q0 18.434-12.696 31.13-12.695 12.696-31.13 12.696t-31.131-12.696Q503.5-385.87 503.5-404.304v-396.413h-77.609Zm-87.413 152.826v-152.826q-31.326 0-52.913 22.446-21.587 22.446-21.587 53.967 0 31.804 21.587 54.108 21.587 22.305 52.913 22.305Zm0-76.413Zm343.544 527.413H155.456q-18.524 0-31.055-12.532-12.532-12.531-12.532-31.055 0-18.525 12.532-31.056 12.531-12.531 31.055-12.531h527.283l-34.087-34.087q-12.196-12.196-12.196-30.392 0-18.195 12.196-30.391 12.196-12.196 30.391-12.076 18.196.12 30.392 12.315l106.63 106.631q13.674 13.761 13.674 32.108 0 18.348-13.674 32.022L710.152-102.022q-12.435 12.435-30.63 12.316-18.196-.12-30.631-12.555-12.435-12.435-12.435-30.75 0-18.315 12.435-30.75l33.131-33.13Z"/></svg>