<svg xmlns="http://www.w3.org/2000/svg" height="24" viewBox="0 -960 960 960" width="24"><path d="M480-422.804 534.804-368q11.718 11.717 29.316 11.598 17.597-.12 29.315-11.837 11.717-11.718 11.717-29.315 0-17.598-11.717-29.316l-54.805-54.565 54.805-54.804q11.717-11.718 11.717-29.315 0-17.598-11.717-29.316-11.718-11.717-29.315-11.717-17.598 0-29.316 11.717L480-540.065l-54.804-54.805Q413.478-606.587 396-606.587t-29.196 11.717q-11.717 11.718-11.717 29.316 0 17.597 11.717 29.315l54.566 54.804-54.805 54.805q-11.717 11.717-11.598 29.195.12 17.478 11.837 29.196 11.718 11.717 29.316 11.717 17.597 0 29.315-11.717L480-422.804Zm0 346.456q-7.717 0-14.674-1.12-6.956-1.119-13.913-3.358-136.674-45.478-218.109-169.609Q151.869-374.565 151.869-516v-186.848q0-28.587 16.413-51.456 16.414-22.87 42.761-33.066l237.131-88.804q15.674-5.717 31.826-5.717t31.826 5.717l237.131 88.804q26.347 10.196 42.761 33.066 16.413 22.869 16.413 51.456V-516q0 141.435-81.435 265.565-81.435 124.131-218.109 169.61-6.957 2.238-13.913 3.358-6.957 1.12-14.674 1.12Zm0-90.282q102.326-34.435 169.728-132Q717.13-396.196 717.13-516v-186.848L480-791.652l-237.13 88.804V-516q0 119.804 67.402 217.37 67.402 97.565 169.728 132Zm0-312.892Z"/></svg>