<svg xmlns="http://www.w3.org/2000/svg" height="24" viewBox="0 -960 960 960" width="24"><path d="M200.957-154.5q-19.153 0-32.327-13.174T155.456-200v-400q0-19.152 13.174-32.326t32.327-13.174h78.565q19.152 0 32.326 13.174T325.022-600v400q0 19.152-13.174 32.326T279.522-154.5h-78.565Zm207.174 0q-19.153 0-32.327-13.174T362.63-200v-200q0-19.152 13.174-32.326t32.327-13.174h78.565q19.152 0 32.326 13.174T532.196-400v200q0 19.152-13.174 32.326T486.696-154.5h-78.565Zm272.826 0q-19.153 0-32.327-13.174T635.456-200v-560q0-19.152 13.174-32.326t32.327-13.174h78.565q19.152 0 32.326 13.174T805.022-760v560q0 19.152-13.174 32.326T759.522-154.5h-78.565Z"/></svg>