<svg xmlns="http://www.w3.org/2000/svg" height="24" viewBox="0 -960 960 960" width="24"><path d="M793.63-53.174 631.848-213.956h57q0 26.956-19.598 46.554-19.598 19.598-46.554 19.598H123.587q-37.783 0-64.391-26.609-26.61-26.609-26.61-64.391v-29.609q0-36.152 18.697-66.565 18.695-30.413 49.847-46.37 62.718-31.239 127.674-46.978 64.957-15.739 131.913-15.739 10.566 0 21.272.5 10.707.5 21.272 1.261l-42-42H355.696q-64.566-1.674-110.729-47.837-46.163-46.163-47.837-110.729v-5.804L55-790.804Q42.522-803.283 42.522-820.5q0-17.217 12.478-29.696 12.478-12.478 29.696-12.478 17.217 0 29.695 12.478l738.631 738.631Q865.5-99.087 865.5-82.37q0 16.718-12.478 29.196-12.478 12.478-29.696 12.478-17.217 0-29.696-12.478ZM678.196-436.63q48.369 6.478 91.456 20.619t81.131 34.424q36.956 20 56.793 47.25 19.837 27.25 19.837 59.359V-160h-4.282L767.674-315.696q-8.761-33.956-31.261-64.891-22.5-30.935-58.217-56.043Zm-110.218-78.522q20.196-28.957 30.294-62.75 10.098-33.794 10.098-70.229 0-42.956-14.62-82.913-14.619-39.956-42.098-72.435 14.239-5.239 28.239-6.978 14-1.739 28.479-1.739 67.674 0 115.869 48.196 48.196 48.195 48.196 115.869 0 68.87-52.489 118.022t-121.359 45.326l-30.609-30.369Zm-60.391-60.392L288.13-795q16.718-8.479 34.674-12.837 17.957-4.359 37.913-4.359 67.913 0 115.99 48.076 48.076 48.076 48.076 115.989 0 19.957-4.359 37.913-4.359 17.957-12.837 34.674Z"/></svg>