<svg xmlns="http://www.w3.org/2000/svg" height="24" viewBox="0 -960 960 960" width="24"><path d="M481.37-106.848q-17 0-28.859-11.739-11.859-11.739-11.859-28.739 0-8.195 3.359-16.413 3.359-8.217 10.076-14.935l167.652-167.413q6-6 6-14.38 0-8.381-6-14.381t-14.38-5.739q-8.381.261-14.381 6.261L426.087-207.435q-6.717 6.718-14.435 9.718-7.717 3-16.674 3-17 0-28.739-11.739T354.5-235.195q0-10.718 3.119-17.935 3.12-7.218 9.077-13.174l167.413-167.413q6-6 6-14t-6-14q-6-6-14-6t-14 6L340.37-296.978q-6.479 6.478-14.316 9.717-7.837 3.239-17.793 3.239-16.239 0-28.239-12.119-12-12.12-12-28.359 0-8.956 3.239-16.674 3.239-7.717 9.717-14.196l165.217-165.456q6-6 6-14.38 0-8.381-6-14.381t-14-6q-8 0-14 6L252.978-383.37q-5.717 5.718-13.554 8.837-7.837 3.12-18.555 3.12-17 0-28.739-11.739t-11.739-28.739q0-8.957 3.598-17.152 3.598-8.196 10.315-14.914l186.674-186.912q14.348-14.348 35.152-12.75 20.805 1.597 35.392 16.184L555.587-523.37q12.913 12.913 28.63 20.131 15.717 7.217 33.348 7.217 34.152 0 58.75-23.456 24.598-23.457 24.598-59.892 0-16.869-5.957-32.228-5.956-15.359-20.391-29.794L505.848-810.109l2.63-2.869q17.957-16.957 39.913-26.055 21.957-9.098 46.305-9.098 26.717 0 49.674 9.218 22.956 9.217 41.435 27.695l162.543 163.305Q868.261-628 878.315-603.37q10.055 24.631 10.055 56.5 0 24.544-10.674 48.272-10.674 23.729-29.348 42.403L512.957-119.804q-8.24 8.239-15.435 10.598-7.196 2.358-16.152 2.358Zm-344.674-336.5L108.543-471.5q-17.239-16.239-26.956-38.957-9.718-22.717-9.718-48.63 0-27.913 10.24-51.109 10.239-23.196 26.434-39.391l160.87-161.631q16.717-16.717 39.076-26.815 22.359-10.098 45.989-10.098 29.152 0 51.109 8.098 21.956 8.098 42.674 28.815l198.304 197.826q7.435 7.435 11.272 15.75 3.837 8.316 3.837 17.511 0 17.196-13.076 30.272-13.077 13.076-30.272 13.076-10.196 0-17.511-3.337-7.315-3.337-15.75-11.771L479.043-657.152Q452.696-683.5 414.772-683.5T350.5-657.152L136.696-443.348Z"/></svg>