<svg xmlns="http://www.w3.org/2000/svg" height="24" viewBox="0 -960 960 960" width="24"><path d="M764.283-64.021q-8.957 0-17.033-2.979-8.076-2.978-14.793-9.695L523.674-285.478q-6.717-6.717-9.696-14.794Q511-308.348 511-317.304q0-8.957 2.978-17.152 2.979-8.196 9.696-14.914l85.478-85.717q6.718-6.717 14.913-9.815Q632.261-448 641.218-448q8.956 0 17.152 3.098 8.195 3.098 14.913 9.815l208.783 209.022q6.717 6.717 9.695 14.793 2.979 8.077 2.979 17.033 0 8.957-3.098 17.152-3.098 8.196-9.816 14.913l-85.478 85.479q-6.717 6.717-14.913 9.695-8.196 2.979-17.152 2.979Zm.239-103.131 27.087-27.087-149.631-149.63-27.087 27.087 149.631 149.63ZM195.195-63.261q-8.956 0-17.532-3.358-8.576-3.359-15.294-10.076l-84.717-84.479q-6.718-6.717-10.076-15.174-3.359-8.456-3.359-17.413 0-8.956 3.359-17.152 3.358-8.196 10.076-14.913L296.826-445h88.109l33.043-33.043L249.152-646.87h-58.913L62.304-774.565 182.717-894.74l127.696 127.696v58.913l168.826 168.827 116.957-116.957-44.435-44.674 55.761-55.761H494.761l-31.109-31.109 150.37-150.608 31.348 31.347v112.761l55.761-56L849.826-701.37q17.718 17.718 27.435 40.294 9.718 22.576 9.718 47.772 0 25.913-10.196 49.587-10.196 23.674-28.631 42.108l-88.108-88.108-57.913 58.152-43.435-43.674-212.5 212.5v87.109L227.022-76.695q-6.718 6.717-14.794 10.076-8.076 3.358-17.033 3.358Zm0-103.652 173.109-173.109v-27.087h-27.087L168.109-194l27.086 27.087Zm0 0L168.109-194l14.043 13.044 13.043 14.043Zm569.327-.239 27.087-27.087-27.087 27.087Z"/></svg>