<svg xmlns="http://www.w3.org/2000/svg" height="24" viewBox="0 -960 960 960" width="24"><path d="M480-395.696q-103.109 0-175.62-72.391-72.511-72.391-72.511-175.5t72.511-175.62q72.511-72.511 175.62-72.511 103.109 0 175.62 72.511 72.511 72.511 72.511 175.62 0 103.109-72.511 175.5T480-395.696Zm340 243.109h-44.5q-13.829 0-22.871-9.042-9.042-9.042-9.042-22.871 0-13.829 9.042-22.871 9.042-9.042 22.871-9.042H820v-44.5q0-13.725 9.042-22.699 9.042-8.975 22.871-8.975 13.725 0 22.7 8.975 8.974 8.974 8.974 22.699v44.5h44.5q13.829 0 22.871 9.042Q960-198.329 960-184.5q0 13.829-9.042 22.871-9.042 9.042-22.871 9.042h-44.5v44.5q0 13.725-8.973 22.7-8.972 8.974-22.695 8.974t-22.821-9.042Q820-94.497 820-108.326v-44.261Zm-300 46.174v-176.413q0-13.725 9.042-22.7 9.042-8.974 22.871-8.974H660q26.152 0 44.87 18.718 18.717 18.717 18.717 44.869v38.33q0 22.04-9.902 34.54t-24.902 20.978l18.326 41.456q6.478 14.957-2.06 28.033T679.435-74.5q-8.718 0-15.957-4.359-7.239-4.358-10.717-12.597l-26.848-58.739h-42.326v44.021q0 13.726-8.973 22.7-8.972 8.974-22.695 8.974t-22.821-9.042Q520-92.584 520-106.413Zm63.587-106.174H660v-38.326h-76.413v38.326Zm-520 40.718v65.695q0 13.726-8.973 22.7Q45.642-74.5 31.92-74.5T9.098-83.474Q0-92.448 0-106.174v-176.652q0-13.725 9.042-22.7 9.042-8.974 22.871-8.974 13.726 0 22.7 8.974 8.974 8.975 8.974 22.7v49.044H140v-49.044q0-13.725 9.042-22.7 9.042-8.974 22.871-8.974 13.725 0 22.7 8.974 8.974 8.975 8.974 22.7v176.652q0 13.726-8.973 22.7-8.972 8.974-22.695 8.974t-22.821-9.042Q140-92.584 140-106.413v-65.456H63.587ZM260-106.413v-176.413q0-13.725 9.042-22.7 9.042-8.974 22.871-8.974H400q26.152 0 44.87 18.718 18.717 18.717 18.717 44.869v112.826q0 26.152-18.717 44.87Q426.152-74.5 400-74.5H291.913q-13.829 0-22.871-9.042Q260-92.584 260-106.413Zm63.587-31.674H400v-112.826h-76.413v112.826Z"/></svg>