<svg xmlns="http://www.w3.org/2000/svg" height="24" viewBox="0 -960 960 960" width="24"><path d="M579.522-320v30q0 13 8.5 21.5t21.5 8.5q13 0 21.5-8.5t8.5-21.5v-30h30q13 0 21.5-8.5t8.5-21.5q0-13-8.5-21.5t-21.5-8.5h-30v-30q0-13-8.5-21.5t-21.5-8.5q-13 0-21.5 8.5t-8.5 21.5v30h-30q-13 0-21.5 8.5t-8.5 21.5q0 13 8.5 21.5t21.5 8.5h30ZM340.478-578.565h80v69.282q0 13 8.5 21.5t21.5 8.5q13 0 21.5-8.5t8.5-21.5v-178.565q0-13-8.5-21.5t-21.5-8.5q-13 0-21.5 8.5t-8.5 21.5v49.283h-80v-49.283q0-13-8.5-21.5t-21.5-8.5q-13 0-21.5 8.5t-8.5 21.5v178.565q0 13 8.5 21.5t21.5 8.5q13 0 21.5-8.5t8.5-21.5v-69.282Zm179.044 69.282q0 13 8.5 21.5t21.5 8.5h90q24 0 42-18t18-42v-118.565q0-24-18-42t-42-18h-90q-13 0-21.5 8.5t-8.5 21.5v178.565Zm-99.044 168.566h-80V-380h80v39.283Zm-80 60h44l27 62.282q3.239 8 10.5 12.5t15.261 4.5q15 0 23.5-13t2.5-27l-18.761-43.282q15-9 25.5-23.5t10.5-32.5V-380q0-25-17.5-42.5t-42.5-17.5h-110q-13 0-21.5 8.5t-8.5 21.5v178.565q0 13 8.5 21.5t21.5 8.5q13 0 21.5-8.5t8.5-21.5v-49.282Zm239.044-258.566v-118.565h60v118.565h-60ZM480-71.869q-84.913 0-159.345-32.118t-129.491-87.177q-55.059-55.059-87.177-129.491Q71.869-395.087 71.869-480t32.118-159.345q32.118-74.432 87.177-129.491 55.059-55.059 129.491-87.177Q395.087-888.131 480-888.131t159.345 32.118q74.432 32.118 129.491 87.177 55.059 55.059 87.177 129.491Q888.131-564.913 888.131-480t-32.118 159.345q-32.118 74.432-87.177 129.491-55.059 55.059-129.491 87.177Q564.913-71.869 480-71.869Z"/></svg>