<svg xmlns="http://www.w3.org/2000/svg" height="24" viewBox="0 -960 960 960" width="24"><path d="M209.869-100.413 100.413-209.869q-26.348-26.348-26.348-63.892 0-37.543 26.348-63.891l521.935-521.935q26.348-26.348 63.891-26.348 37.544 0 63.892 26.348l109.456 109.456q26.348 26.348 26.348 63.892 0 37.543-26.348 63.891L337.652-100.413q-26.348 26.348-63.891 26.348-37.544 0-63.892-26.348ZM508-214.521 745.479-452l114.108 114.348q26.348 26.348 26.348 63.891 0 37.544-26.348 63.892L750.131-100.413q-26.348 26.348-63.892 26.348-37.543 0-63.891-26.348L508-214.521Zm-28-137.827q17.813 0 29.863-11.982 12.05-11.983 12.05-29.696t-12.05-29.811q-12.05-12.098-29.863-12.098t-29.863 12.05q-12.05 12.05-12.05 29.863 0 17.712 12.05 29.693 12.05 11.981 29.863 11.981Zm-85.974-85.739q17.713 0 29.811-12.05 12.098-12.05 12.098-29.863t-12.05-29.863q-12.05-12.05-29.863-12.05-17.712 0-29.693 12.05-11.981 12.05-11.981 29.863t11.982 29.863q11.983 12.05 29.696 12.05Zm171.952 0q17.712 0 29.693-12.05 11.981-12.05 11.981-29.863t-11.982-29.863q-11.983-12.05-29.696-12.05t-29.811 12.05q-12.098 12.05-12.098 29.863t12.05 29.863q12.05 12.05 29.863 12.05Zm-352.217-70.674L100.413-622.348q-26.348-26.348-26.348-63.891 0-37.544 26.348-63.892l109.456-109.456q26.348-26.348 63.892-26.348 37.543 0 63.891 26.348L452-745.479 213.761-508.761ZM480-524.065q17.813 0 29.863-12.05t12.05-29.863q0-17.712-12.05-29.693-12.05-11.981-29.863-11.981t-29.863 11.982q-12.05 11.983-12.05 29.696t12.05 29.811q12.05 12.098 29.863 12.098Z"/></svg>