<svg xmlns="http://www.w3.org/2000/svg" height="24" viewBox="0 -960 960 960" width="24"><path d="M360-73.782q-37.783 0-64.391-26.609Q269-127 269-164.783V-269H164.783q-37.783 0-64.392-26.609Q73.782-322.217 73.782-360v-75.456h264.935l64.892 98.173q5.478 8.718 14.956 14.077 9.478 5.358 20.435 5.358 13.957 0 25.674-8.478 11.717-8.478 16.196-21.674l52.087-153.63 30.652 46.739q6.478 8.717 15.956 14.076T600-435.456h286.218V-360q0 37.783-26.609 64.391Q833-269 795.217-269H691v104.217q0 37.783-26.609 64.392Q637.783-73.782 600-73.782H360ZM427.043-455.5l-31.413-46.739q-5.717-8.718-15.195-14.076-9.478-5.359-20.435-5.359H73.783V-600q0-37.783 26.608-64.391Q127-691 164.783-691H269v-104.217q0-37.783 26.609-64.392 26.608-26.609 64.391-26.609h240q37.783 0 64.391 26.609Q691-833 691-795.217V-691h104.217q37.783 0 64.392 26.609 26.609 26.608 26.609 64.391v78.326H620.283l-64.653-98.174q-5.478-8.717-15.076-14.076-9.597-5.359-20.554-5.359-13.957 0-25.174 8.479-11.217 8.478-15.696 21.674L427.043-455.5Z"/></svg>