<svg xmlns="http://www.w3.org/2000/svg" height="24" viewBox="0 -960 960 960" width="24"><path d="M704.934-274.5v-120h-120v-91h120v-120h91.001v120h120v91h-120v120h-91.001ZM439.761-109l-116-104.195q-79.891-72.174-135.457-127.359-55.565-55.185-90.5-102.576-34.935-47.392-50.554-90.551-15.62-43.158-15.62-90.428 0-97.695 65.392-162.652 65.391-64.957 162.739-64.957 51.744 0 98.513 20.663 46.769 20.663 81.487 59.468 34.956-38.805 81.648-59.468 46.693-20.663 98.352-20.663 89.543 0 150.63 55.207 61.088 55.207 73.414 132.098-21.587-11.065-44.729-16.837-23.141-5.772-46.12-6.011-103.087 0-175.554 72.033Q504.934-543.196 504.934-440q0 56.544 24.468 106.391 24.467 49.848 68.446 83.566-18.522 16.761-45.794 40.75-27.271 23.989-48.793 43.271L439.761-109Z"/></svg>