<svg xmlns="http://www.w3.org/2000/svg" height="24" viewBox="0 -960 960 960" width="24"><path d="M438.152-350.674 374.587-69.37q-3.478 15.435-15.815 25.153-12.337 9.717-28.67 9.717-21.776 0-34.972-16.315-13.195-16.315-8.956-36.99l113.239-572.76q6.269-30.435 28.211-45.652 21.941-15.218 46.376-15.218 23.717 0 44.294 10.478 20.576 10.479 33.054 31.196l39.761 64q18 29.239 44.587 51.424 26.587 22.185 60.717 32.467v-37.891q0-14.554 9.516-24.071 9.517-9.516 24.071-9.516 14.554 0 24.071 9.516 9.516 9.517 9.516 24.071v501.674q0 14.555-9.516 24.07Q744.554-34.5 730-34.5q-14.554 0-24.071-9.516-9.516-9.517-9.516-24.07v-372.892q-45.37-10.283-84.815-32.967-39.446-22.685-69.446-56.25l-22.087 111.152 69.609 65.847q6.956 6.82 10.435 15.345 3.478 8.525 3.478 17.721v242.043q0 18.525-12.531 31.056Q578.524-34.5 560-34.5T528.944-47.03q-12.531-12.531-12.531-31.056v-198.087l-78.261-74.5Zm-194.739-82.717-41.935-8.283q-18.138-3.43-28.341-18.867-10.203-15.437-6.724-34.35l30-157q6.478-35.913 37.793-54.968 31.315-19.054 67.989-11.576 18.196 3.478 27.653 18.055 9.456 14.576 5.978 32.771l-38.957 198.153q-3.43 19.206-18.867 29.375-15.437 10.168-34.589 6.69Zm296.619-310.196q-34.467 0-59.043-24.696-24.576-24.695-24.576-59.162 0-34.466 24.544-59.011Q505.502-911 539.968-911q34.467 0 59.043 24.544 24.576 24.545 24.576 59.011 0 34.467-24.544 59.162-24.545 24.696-59.011 24.696Z"/></svg>