<svg xmlns="http://www.w3.org/2000/svg" height="24" viewBox="0 -960 960 960" width="24"><path d="M171.822-110.435q-25.67 0-43.648-18.023-17.979-18.023-17.979-43.77V-250.5L274.5-396.326v285.891H171.822Zm143.395 0v-164.543h329.566v164.543H315.217Zm370.283 0v-337.087L509.478-604.065l124.348-109.87 195.5 174.022q10.239 9.478 15.359 21.207 5.12 11.73 5.12 24.989v321.628q0 25.69-17.919 43.672-17.918 17.982-43.516 17.982H685.5ZM110.195-305.696v-187.912q0-13.349 5.12-25.588t15.359-20.717l308.13-273.174q8.479-8.239 19.212-11.859 10.734-3.619 21.978-3.619 11.245 0 21.984 3.619 10.739 3.62 19.218 11.859l82.152 72.674-493.153 434.717Z"/></svg>