<svg xmlns="http://www.w3.org/2000/svg" height="24" viewBox="0 -960 960 960" width="24"><path d="M196.413-201.913v-274.5h-66.804q-15.913 0-21.511-14.793-5.598-14.794 6.598-24.99l334.717-301.239Q462.087-829.63 480-829.63t30.587 12.195l334.717 301.239q12.196 10.196 6.598 24.99-5.598 14.793-21.511 14.793h-66.804v274.5q0 19.152-13.772 32.326t-36.989 13.174q-17 0-28.62-11.62-11.619-11.619-11.619-28.619v-30.435H287.413v30.435q0 17-12.217 28.619-12.218 11.62-33.283 11.62-19.152 0-32.326-13.174t-13.174-32.326Zm194.5-440h178.174L480-722.195l-89.087 80.282ZM287.413-480h385.174v-64.348l-7.326-6.565H294.739l-7.326 6.565V-480Zm0 161.913h385.174V-389H287.413v70.913Z"/></svg>