<svg xmlns="http://www.w3.org/2000/svg" height="24" viewBox="0 -960 960 960" width="24"><path d="M400.717-314.261q17.718 0 30.174-11.978 12.457-11.978 12.935-29.696v-3.043q0-1.522-.761-3.044h.957q18.196 0 31.033-12.456 12.836-12.457 12.836-30.652 0-18.196-12.456-30.653-12.457-12.456-30.652-12.456-8 0-15.62 3.261-7.619 3.261-13.098 8.261l-103.239-116q5.718-5.718 8.957-13.696 3.239-7.978 3.239-16.696 0-18.195-12.457-30.652-12.456-12.457-30.652-12.457-17.956 0-30.293 12.098t-12.816 29.816v3.043q0 1.522.761 3.043H238.37q-18.196 0-31.033 12.457T194.5-535.109q0 18.196 12.456 30.652Q219.413-492 237.609-492q9 0 16.739-3.5 7.739-3.5 13.217-9.261l103.239 116q-6.478 5.718-9.837 14.196-3.358 8.478-3.358 17.195 0 18.196 12.456 30.653 12.457 12.456 30.652 12.456ZM76.652-443.978 124-519l316 297q11.761 11 26.261 16.5T495-200q12 0 23-3.5t20-8.5l342-216v101.652L583.109-139.261q-19 12-41.935 18.739-22.935 6.74-46.935 6.74-30 0-59.674-11.74-29.674-11.739-53.63-33.934L76.652-443.978ZM257.24-732l46.348-73.261q74.283 36.522 137.565 100.185 63.283 63.663 95.761 132.706 35.761-37.282 79.022-59.304Q659.196-653.696 736-674.457q46-13 79.5-25t64.5-27V-632q-27 11-56.5 21T757-591q-84 22-125.5 49T554-458q-5 8-14 13t-20 5q-14 0-25-9t-14-22q-18-76-80.5-149T257.239-732ZM124-519q72 67 158 148.5T440-222q11.761 11 26.261 16.5T495-200q12 0 23-3.5t20-8.5q65.87-40.913 166.196-104.337Q804.522-379.761 880-428L538-212q-9 5-20 8.5t-23 3.5q-14.239 0-28.739-5.5T440-222L124-519Z"/></svg>