<svg xmlns="http://www.w3.org/2000/svg" height="24" viewBox="0 -960 960 960" width="24"><path d="M608.131-32.348H438.804q-17.478 0-29.456-11.978Q397.37-56.304 397.37-73.72v-245.865q0-17.415 11.978-29.393 11.978-11.979 29.549-11.979h41.342v-112.347H157.848q-35.87 0-60.924-25.174-25.055-25.174-25.055-60.805v-159.76q0-35.631 25.055-60.805 25.054-25.174 60.924-25.174h81.435v-41.913q0-17.508 11.843-29.352 11.844-11.844 29.352-11.844h486.467q17.229 0 29.207 11.844 11.979 11.844 11.979 29.352v169.805q0 17.478-11.979 29.456-11.978 11.978-29.207 11.978H280.478q-17.508 0-29.352-11.946-11.843-11.947-11.843-29.608v-41.554h-81.196v159.282h322.391q35.631 0 60.805 25.174t25.174 60.805v112.586h41.674q17.508 0 29.352 11.979 11.843 11.978 11.843 29.393V-73.72q0 17.416-11.843 29.394-11.844 11.978-29.352 11.978Z"/></svg>