<svg xmlns="http://www.w3.org/2000/svg" height="24" viewBox="0 -960 960 960" width="24"><path d="M480-276.413q18.524 0 31.056-12.531 12.531-12.532 12.531-31.056v-156.413q0-18.524-12.531-31.056Q498.524-520 480-520t-31.056 12.531q-12.531 12.532-12.531 31.056V-320q0 18.524 12.531 31.056 12.532 12.531 31.056 12.531Zm0-318.804q19.033 0 31.908-12.875T524.783-640q0-19.033-12.875-31.908T480-684.783q-19.033 0-31.908 12.875T435.217-640q0 19.033 12.875 31.908T480-595.217Zm0 523.348q-84.913 0-159.345-32.118t-129.491-87.177q-55.059-55.059-87.177-129.491Q71.869-395.087 71.869-480t32.118-159.345q32.118-74.432 87.177-129.491 55.059-55.059 129.491-87.177Q395.087-888.131 480-888.131t159.345 32.118q74.432 32.118 129.491 87.177 55.059 55.059 87.177 129.491Q888.131-564.913 888.131-480t-32.118 159.345q-32.118 74.432-87.177 129.491-55.059 55.059-129.491 87.177Q564.913-71.869 480-71.869Z"/></svg>