<svg xmlns="http://www.w3.org/2000/svg" height="24" viewBox="0 -960 960 960" width="24"><path d="M280-271.869q-86.374 0-147.252-60.873-60.879-60.873-60.879-147.239 0-86.367 60.879-147.258Q193.626-688.131 280-688.131h110.913q19.152 0 32.326 13.174t13.174 32.327q0 19.152-13.174 32.326t-32.326 13.174H280q-48.804 0-82.967 34.163T162.87-480q0 48.804 34.163 82.967T280-362.87h110.913q19.152 0 32.326 13.174t13.174 32.326q0 19.153-13.174 32.327t-32.326 13.174H280Zm76.413-166.218q-17.813 0-29.863-12.05T314.5-480q0-17.813 12.05-29.863t29.863-12.05h247.174q17.813 0 29.863 12.05T645.5-480q0 17.813-12.05 29.863t-29.863 12.05H356.413Zm212.674 166.218q-19.152 0-32.326-13.174t-13.174-32.327q0-19.152 13.174-32.326t32.326-13.174H680q48.804 0 82.967-34.163T797.13-480q0-48.804-34.163-82.967T680-597.13H569.087q-19.152 0-32.326-13.174t-13.174-32.326q0-19.153 13.174-32.327t32.326-13.174H680q86.374 0 147.252 60.873 60.879 60.873 60.879 147.239 0 86.367-60.879 147.258Q766.374-271.869 680-271.869H569.087Z"/></svg>