<svg xmlns="http://www.w3.org/2000/svg" height="24" viewBox="0 -960 960 960" width="24"><path d="M283.587-32.587q-37.783 0-64.391-26.609-26.609-26.608-26.609-64.391v-712.826q0-37.783 26.609-64.391 26.608-26.609 64.391-26.609h272.826v91H283.587v40h272.826v80H283.587v472.826h392.826V-320h91v196.413q0 37.783-26.609 64.391-26.608 26.61-64.391 26.61H283.587Zm394.5-522.043v-243.457q0-17.813 12.05-29.863T720-840q17.813 0 29.863 12.05t12.05 29.863v243.457l72.891-72.892q11.718-11.717 29.196-11.717t29.196 11.717q11.717 11.718 11.717 29.316 0 17.597-11.717 29.315l-141.37 141.369q-13.63 13.435-31.804 13.435t-31.848-13.435l-141.37-141.369q-11.717-11.718-11.717-29.315 0-17.598 11.717-29.316 11.718-11.717 29.316-11.717 17.597 0 29.315 11.717l72.652 72.892ZM556.413-796.413H283.587v-40h272.826v40Z"/></svg>