<svg xmlns="http://www.w3.org/2000/svg" height="24" viewBox="0 -960 960 960" width="24"><path d="M360-280h240q17 0 28.5-11.5T640-320q0-17-11.5-28.5T600-360H360q-17 0-28.5 11.5T320-320q0 17 11.5 28.5T360-280ZM162.87-151.869q-37.783 0-64.392-26.609Q71.87-205.087 71.87-242.87v-474.26q0-37.783 26.61-64.392 26.608-26.609 64.391-26.609h634.26q37.783 0 64.392 26.609 26.609 26.609 26.609 64.392v474.26q0 37.783-26.609 64.392-26.609 26.609-64.392 26.609H162.87Zm0-454.349h634.26V-717.13H162.87v110.912ZM240-400q17 0 28.5-11.5T280-440q0-17-11.5-28.5T240-480q-17 0-28.5 11.5T200-440q0 17 11.5 28.5T240-400Zm120 0q17 0 28.5-11.5T400-440q0-17-11.5-28.5T360-480q-17 0-28.5 11.5T320-440q0 17 11.5 28.5T360-400Zm120 0q17 0 28.5-11.5T520-440q0-17-11.5-28.5T480-480q-17 0-28.5 11.5T440-440q0 17 11.5 28.5T480-400Zm120 0q17 0 28.5-11.5T640-440q0-17-11.5-28.5T600-480q-17 0-28.5 11.5T560-440q0 17 11.5 28.5T600-400Zm120 0q17 0 28.5-11.5T760-440q0-17-11.5-28.5T720-480q-17 0-28.5 11.5T680-440q0 17 11.5 28.5T720-400Z"/></svg>