<svg xmlns="http://www.w3.org/2000/svg" height="24" viewBox="0 -960 960 960" width="24"><path d="M159.283-67.565q-19.153 0-32.327-13.174t-13.174-32.326q0-19.152 13.174-32.326t32.327-13.174h240q19.152 0 32.326 13.174t13.174 32.326q0 19.152-13.174 32.326t-32.326 13.174h-240Zm525.5-46.217q-37.066 0-63.316-26.251-26.25-26.25-26.25-63.315H485.5q-19.152 0-32.326-13.174T440-248.848q-1.522-90.239 56-156.717 57.522-66.479 143.283-82.153v-359.456q0-19.152 13.174-32.326 13.173-13.174 32.326-13.174 19.152 0 32.326 13.174t13.174 32.326v359.456q86.522 15.674 143.782 82.153 57.261 66.478 55.5 156.717 0 19.152-13.174 32.326-13.173 13.174-32.326 13.174H774.348q0 37.065-25.75 63.315-25.75 26.251-63.815 26.251Zm-405.5-89.566q-19.153 0-32.327-13.174t-13.174-32.326v-274.261H80.239q-22.63 0-35.924-17.652-13.293-17.652-7.576-39.283L111.5-858.609q4.239-14.913 16.174-24.489 11.935-9.576 27.848-9.576h248.521q15.914 0 27.848 9.576 11.935 9.576 16.174 24.489l74.761 278.565q5.718 21.631-7.576 39.283-13.293 17.652-35.924 17.652H324.783v274.261q0 19.152-13.174 32.326t-32.326 13.174Z"/></svg>