<svg xmlns="http://www.w3.org/2000/svg" height="24" viewBox="0 -960 960 960" width="24"><path d="M320-326.218q63.609 0 108.696-45.086Q473.782-416.391 473.782-480q0-63.609-45.086-108.696Q383.609-633.782 320-633.782q-63.609 0-108.696 45.086Q166.218-543.609 166.218-480q0 63.609 45.086 108.696Q256.391-326.218 320-326.218Zm0 91.001q-102.152 0-173.467-71.316Q75.217-377.848 75.217-480q0-102.152 71.316-173.467Q217.848-724.783 320-724.783q90.478 0 157.696 56.761 67.217 56.761 82.891 142.522H840q19.152 0 32.326 13.174T885.5-480q0 19.152-13.174 32.326T840-434.5H560.587q-15.674 85.761-82.891 142.522Q410.478-235.217 320-235.217ZM320-480Z"/></svg>