<svg xmlns="http://www.w3.org/2000/svg" height="24" viewBox="0 -960 960 960" width="24"><path d="M562.391-560q0-34.196-24.097-58.294-24.098-24.097-58.294-24.097-8.804 0-16.728 1.641-7.924 1.641-15.207 5.685l107 107q4.044-7.283 5.685-15.207T562.391-560Zm174.696 213.957-65.891-65.892q23.087-39.369 34.51-74.315 11.424-34.946 11.424-66.707 0-107.318-68.669-175.746Q579.792-797.13 480-797.13q-41.913 0-78.587 12.424-36.674 12.423-66.717 36.271l-64.892-64.891q43.718-36.283 97.873-55.544Q421.833-888.131 480-888.131q130.227 0 229.179 90.947t98.952 244.227q0 49.435-17.642 100.414-17.641 50.978-53.402 106.5Zm-169.674 67.652L246.391-599.413q-1.761 10.931-2.641 22.773-.88 11.842-.88 23.683 0 73.392 58.402 161.783Q359.674-302.783 480-192.457q24.804-22.043 46.467-43.587 21.663-21.543 40.946-42.347Zm-87.47 178.087q-14.9 0-29.758-5.239-14.858-5.239-26.533-15.718-66.435-60.717-117.391-117.956-50.957-57.239-85.055-111.218-34.097-53.978-51.717-104.554-17.62-50.576-17.62-97.968 0-33.19 5.359-63.269 5.359-30.078 15.076-57.274L55-790.804q-12.478-12.51-12.478-29.712 0-17.201 12.503-29.68 12.504-12.478 29.696-12.478t29.67 12.478l738.631 738.631Q865.5-99.043 865-82.348q-.5 16.696-13.003 29.174-12.504 12.478-29.696 12.478T792.63-53.174L631.544-214.26q-17.479 18.479-38.837 39.479-21.359 21-56.359 53.521-11.707 10.479-26.606 15.718-14.9 5.239-29.799 5.239Zm-72.66-338.218Zm95.782-141.543Z"/></svg>