<svg xmlns="http://www.w3.org/2000/svg" height="24" viewBox="0 -960 960 960" width="24"><path d="M434.5-205.5v-188.522L132.261-734.5q-8.718-9.196-14.076-21.011-5.359-11.815-5.359-24.25 0-29.109 20.272-48.739 20.272-19.631 49.38-19.631h595.044q29.108 0 49.38 19.631 20.272 19.63 20.272 48.739 0 12.435-5.359 24.25-5.358 11.815-14.076 21.011L525.5-394.022V-205.5H680q19.152 0 32.326 13.174T725.5-160q0 19.152-13.174 32.326T680-114.5H280q-19.152 0-32.326-13.174T234.5-160q0-19.152 13.174-32.326T280-205.5h154.5ZM302.065-680h355.87l69.369-77.13H232.696L302.065-680ZM480-480.304 586.935-600h-213.87L480-480.304Zm0 0Z"/></svg>