<svg xmlns="http://www.w3.org/2000/svg" height="24" viewBox="0 -960 960 960" width="24"><path d="M440-363.587v-74.5h80q35.63 0 59.609-24.098 23.978-24.098 23.978-59.728v-74.5q0-35.63-23.978-59.609Q555.63-680 520-680H398.087q-17.717 0-29.696 11.978-11.978 11.979-11.978 29.696 0 17.717 12.098 29.815 12.098 12.098 29.815 12.098H520v74.5h-80q-35.63 0-59.609 24.098-23.978 24.098-23.978 59.728V-325.5q0 19.152 13.174 32.326T401.913-280h160q17.717 0 29.696-12.098 11.978-12.098 11.978-29.815t-11.978-29.696q-11.979-11.978-29.696-11.978H440ZM202.87-111.869q-37.783 0-64.392-26.609-26.609-26.609-26.609-64.392v-554.26q0-37.783 26.609-64.392 26.609-26.609 64.392-26.609h554.26q37.783 0 64.392 26.609 26.609 26.609 26.609 64.392v554.26q0 37.783-26.609 64.392-26.609 26.609-64.392 26.609H202.87Z"/></svg>