<svg xmlns="http://www.w3.org/2000/svg" height="24" viewBox="0 -960 960 960" width="24"><path d="M520-438.087v116.413q0 17.711 12.05 29.693Q544.1-280 561.913-280q17.712 0 29.693-11.981 11.981-11.982 11.981-29.693v-316.652q0-17.711-11.982-29.693Q579.622-680 561.909-680t-29.811 11.981Q520-656.037 520-638.326v116.413h-80v-116.413q0-17.711-11.982-29.693Q416.035-680 398.322-680t-29.811 11.981q-12.098 11.982-12.098 29.693v154.739q0 19.152 13.174 32.326t32.326 13.174H520ZM202.87-111.869q-37.783 0-64.392-26.609-26.609-26.609-26.609-64.392v-554.26q0-37.783 26.609-64.392 26.609-26.609 64.392-26.609h554.26q37.783 0 64.392 26.609 26.609 26.609 26.609 64.392v554.26q0 37.783-26.609 64.392-26.609 26.609-64.392 26.609H202.87Zm0-91.001h554.26v-554.26H202.87v554.26Zm0-554.26v554.26-554.26Z"/></svg>