<svg xmlns="http://www.w3.org/2000/svg" height="24" viewBox="0 -960 960 960" width="24"><path d="M436.413-436.413v114.739q0 18.525 12.531 31.056 12.532 12.531 31.056 12.531t31.056-12.531q12.531-12.531 12.531-31.056v-114.739h114.739q18.525 0 31.056-12.531 12.531-12.532 12.531-31.056t-12.531-31.056q-12.531-12.531-31.056-12.531H523.587v-114.739q0-18.525-12.531-31.056-12.532-12.531-31.056-12.531t-31.056 12.531q-12.531 12.531-12.531 31.056v114.739H321.674q-18.525 0-31.056 12.531-12.531 12.532-12.531 31.056t12.531 31.056q12.531 12.531 31.056 12.531h114.739ZM480-71.869q-84.647 0-159.095-32.098-74.449-32.098-129.644-87.294-55.196-55.195-87.294-129.65-32.098-74.455-32.098-159.109 0-84.654 32.098-159.089t87.294-129.63q55.195-55.196 129.65-87.294 74.455-32.098 159.109-32.098 84.654 0 159.089 32.098t129.63 87.294q55.196 55.195 87.294 129.644Q888.131-564.647 888.131-480v317.13q0 37.783-26.609 64.392Q834.913-71.87 797.13-71.87H480Zm0-91.001q132.565 0 224.848-92.282Q797.13-347.435 797.13-480t-92.282-224.848Q612.565-797.13 480-797.13t-224.848 92.282Q162.87-612.565 162.87-480t92.282 224.848Q347.435-162.87 480-162.87ZM480-480Z"/></svg>