<svg xmlns="http://www.w3.org/2000/svg" height="24" viewBox="0 -960 960 960" width="24"><path d="M162.87-151.869q-37.783 0-64.392-26.609Q71.87-205.087 71.87-242.87v-474.26q0-37.783 26.61-64.392 26.608-26.609 64.391-26.609h397.782q-5.674 22.392-6.152 45.381-.478 22.989 4.478 45.62H162.87v474.26h634.26v-315.152q26.348-5 49.218-15.554 22.87-10.554 41.783-26.185v356.891q0 37.783-26.609 64.392-26.609 26.609-64.392 26.609H162.87Zm0-565.261v474.26-474.26Zm317.13 200 142.413-89.566q15.435 13.957 33.848 24.174 18.413 10.218 38.326 17.218L504.109-444.869q-11.495 6.956-24.139 6.956t-24.079-6.956L162.87-629.717v-87.413l317.13 200ZM760-634.5q-52.292 0-88.896-36.604T634.5-760q0-52.292 36.604-88.896T760-885.5q52.292 0 88.896 36.604T885.5-760q0 52.292-36.604 88.896T760-634.5Z"/></svg>