<svg xmlns="http://www.w3.org/2000/svg" height="24" viewBox="0 -960 960 960" width="24"><path d="M163.109-274.739q-37.783 0-64.511-26.609-26.729-26.609-26.729-64.391v-303.239q0-19.544 10.533-37.272Q92.935-723.978 112-734.131l264.109-133.13q19.391-9.435 41.261-9.815 21.869-.381 41.26 9.815L716.5-734.848q17.022 8.63 27.196 25.337 10.174 16.707 12.934 34.772H635.326L417.609-785.696l-254.5 127.326v383.631Zm131 162.87q-37.783 0-64.391-26.609-26.609-26.609-26.609-64.392v-340.869q0-37.782 26.609-64.391 26.608-26.609 64.391-26.609H797.13q37.783 0 64.392 26.609 26.609 26.609 26.609 64.391v340.869q0 37.783-26.609 64.392-26.609 26.609-64.392 26.609H294.109Zm251.63-234.566q11.196 0 21.772-2.358 10.576-2.359 20.011-7.837l189.891-97.587q9.239-5 14.478-13.739 5.239-8.739 5.239-18.978 0-20.718-17.478-31.077-17.478-10.358-35.956-1.119L545.5-417.391 347.305-519.13q-18.479-9.239-35.837 1.119-17.359 10.359-17.359 31.077 0 10.239 5.239 18.978t14.478 13.739l189.891 97.587q9.435 5.478 20.131 7.837 10.696 2.358 21.891 2.358Z"/></svg>