<svg xmlns="http://www.w3.org/2000/svg" height="24" viewBox="0 -960 960 960" width="24"><path d="M480-193.782q-64.239 0-127.478-5.5-63.239-5.5-126.479-14.74-31.152-5.239-51.706-29.532-20.555-24.294-20.555-55.685V-319.5q-56.108-14.717-92.358-58.793Q25.174-422.37 25.174-480q0-56.87 36.37-100.946 36.369-44.076 92.238-58.793V-680q0-35.63 24.674-60.924Q203.13-766.218 238-766.218q29.239 0 58.739 5.5 29.5 5.5 58.739 7.5 31.761 2.761 62.261 3.881 30.5 1.119 62.261 1.119 31.761 0 62.261-1.119 30.5-1.12 62.261-3.881 29-2 57.739-7.5 28.739-5.5 57.739-5.5 35.87 0 61.044 25.174T806.218-680v40.261q55.869 14.717 92.239 58.413Q934.826-537.63 934.826-480q0 57.63-36.369 101.207-36.37 43.576-92.239 58.293v20.5q0 32.152-20.935 56.446-20.935 24.293-52.087 29.532-63.239 10-126.479 15.12-63.239 5.12-126.717 5.12Zm-1.435-141.914q42.283 0 83.946-5.119 41.663-5.12 82.945-16.12 18.435-5.478 27.272-21.152 8.837-15.674 3.598-33.348-5.478-17.674-21.152-26.891-15.674-9.218-33.348-3.978-35.565 9.76-71.13 13.88-35.566 4.12-72.131 4.12-35.848 0-71.076-3.62-35.228-3.62-69.837-14.38-17.674-5.718-33.467 3.358-15.794 9.076-21.272 26.75-5.717 17.674 3.859 33.229 9.576 15.554 27.25 21.032 40.326 12.522 81.272 17.381 40.945 4.858 83.271 4.858Zm-324.783-77.695v-132.457q-19 10.283-29.5 27.685T113.782-480q0 21.522 10.5 39.163t29.5 27.446Zm652.436 0q18-9.805 29-27.446 11-17.641 11-39.163 0-20.761-11-38.163-11-17.402-29-27.685v132.457Zm-327.653-82.305q42.283 0 83.946-5.119 41.663-5.12 82.945-16.12 18.435-5.478 27.272-21.152 8.837-15.674 3.598-33.348-5.478-17.674-21.152-26.891-15.674-9.218-33.348-3.978-35.565 9.76-71.13 13.88-35.566 4.12-72.131 4.12-35.848 0-71.076-4.24-35.228-4.239-69.837-13.76-17.913-5.479-33.587 3.478-15.674 8.956-21.152 27.391-5.478 17.674 3.478 33.348 8.957 15.674 27.631 21.152 40.326 11 81.272 16.12 40.945 5.119 83.271 5.119Z"/></svg>