<svg xmlns="http://www.w3.org/2000/svg" height="24" viewBox="0 -960 960 960" width="24"><path d="M280-354.5q19.152 0 32.326-13.174T325.5-400v-160q0-19.152-13.174-32.326T280-605.5q-19.152 0-32.326 13.174T234.5-560v160q0 19.152 13.174 32.326T280-354.5Zm200 0q19.152 0 32.326-13.174T525.5-400v-160q0-19.152-13.174-32.326T480-605.5q-19.152 0-32.326 13.174T434.5-560v160q0 19.152 13.174 32.326T480-354.5Zm200 0q19.152 0 32.326-13.174T725.5-400v-160q0-19.152-13.174-32.326T680-605.5q-19.152 0-32.326 13.174T634.5-560v160q0 19.152 13.174 32.326T680-354.5ZM162.87-191.869q-37.783 0-64.392-26.609Q71.87-245.087 71.87-282.87v-394.26q0-37.783 26.61-64.392 26.608-26.609 64.391-26.609h31.63v-45.5q0-19.152 13.174-32.326T240-859.131q19.152 0 32.326 13.174t13.174 32.326v45.5h149v-45.5q0-19.152 13.174-32.326T480-859.131q19.152 0 32.326 13.174t13.174 32.326v45.5h149v-45.5q0-19.152 13.174-32.326T720-859.131q19.152 0 32.326 13.174t13.174 32.326v45.5h31.63q37.783 0 64.392 26.609 26.609 26.609 26.609 64.392v394.26q0 37.783-26.609 64.392-26.609 26.609-64.392 26.609H765.5v45.5q0 19.152-13.174 32.326T720-100.869q-19.152 0-32.326-13.174T674.5-146.369v-45.5h-149v45.5q0 19.152-13.174 32.326T480-100.869q-19.152 0-32.326-13.174T434.5-146.369v-45.5h-149v45.5q0 19.152-13.174 32.326T240-100.869q-19.152 0-32.326-13.174T194.5-146.369v-45.5h-31.63Z"/></svg>