<svg xmlns="http://www.w3.org/2000/svg" height="24" viewBox="0 -960 960 960" width="24"><path d="M77.609-864.783V-480q0 93.87 38.511 173.261 38.51 79.391 105.098 134.63-28.87-39.195-45.044-86.728Q160-306.37 160-360q0-74.239 30.859-155.337 30.858-81.098 102.576-187.815L77.609-864.783ZM480-823Q347-663 293.5-547.5T240-360q0 100 70 170t170 70q100 0 170-70t70-170q0-72-54-188.5T480-823Zm402.391-41.783L666.804-703.152q71.718 106.717 102.457 187.815Q800-434.239 800-360q0 53.63-16.174 101.163-16.174 47.533-45.044 86.728 66.588-55.239 105.098-134.63Q882.391-386.13 882.391-480v-384.783Z"/></svg>