<svg xmlns="http://www.w3.org/2000/svg" height="24" viewBox="0 -960 960 960" width="24"><path d="M480-340.652 283.043-143.696q-12.673 12.674-31.445 13.055-18.772.38-32.207-13.055-12.674-12.674-12.674-31.826t12.674-31.826l169.783-170.783q22.043-22.043 33.685-50.206Q434.5-456.5 434.5-487.304v-186.783l-32.174 32.174Q389.652-629.239 371-629.239t-32.326-13.674Q326-655.587 326-674.739t12.674-31.826l109.261-109.261Q461.609-829.5 480-829.5t32.065 13.674l109.261 109.261Q634-693.891 634.5-675.239t-13.174 32.326q-12.674 12.674-31.826 12.794-19.152.119-31.826-12.555L525.5-674.087v186.783q0 30.804 11.641 58.967 11.642 28.163 33.685 50.206l169.783 170.783q12.674 12.674 13.054 31.446.381 18.772-13.054 32.206-12.674 12.674-31.826 12.674-19.153 0-31.826-12.674L480-340.652Z"/></svg>