<svg xmlns="http://www.w3.org/2000/svg" height="24" viewBox="0 -960 960 960" width="24"><path d="M422.087-61.347q-54.87 0-83.381-32.892-28.511-32.891-28.511-75.478 0-27.658 12.218-53.721 12.217-26.062 38.13-43.258 21.522-13.76 34.783-35.043 13.261-21.283 18.739-45.565-5.043-2.761-10.206-5.163-5.163-2.402-9.446-5.924l-93.435 33.478q-17.956 6.478-35.033 10.598-17.076 4.12-35.086 4.12-66.745 0-118.128-57.984-51.384-57.984-51.384-169.734 0-54.587 32.772-83.239 32.772-28.653 73.896-28.653 28.137 0 54.811 12.218 26.674 12.217 43.87 38.13 13.76 21.522 35.043 34.783 21.283 13.261 45.565 18.739 2.761-5.043 5.163-10.206 2.402-5.163 5.924-9.446l-33.478-93.435q-6.478-17.717-10.598-34.674-4.12-16.956-4.12-33.913 0-67.826 57.87-119.435 57.87-51.609 169.848-51.609 54.587 0 83.239 32.772 28.653 32.772 28.653 73.881 0 27.674-12.218 54.587-12.217 26.913-38.13 44.109-21.522 13.76-34.783 35.043-13.261 21.283-18.739 45.565 5.043 2.761 10.206 5.163 5.163 2.402 9.446 5.924l93.435-34.478q17.717-6.478 34.293-10.098 16.576-3.62 34.294-3.62 86.261 0 128.652 70.635 42.392 70.635 42.392 157.083 0 54.826-34.452 83.478-34.451 28.653-76.438 28.653-26.915 0-52.089-12.457-25.174-12.456-42.37-38.13-13.76-21.522-35.043-34.783-21.283-13.261-45.565-18.739-2.761 5.043-5.163 10.206-2.402 5.163-5.924 9.446l33.478 93.435q6.478 16.956 10.598 32.533 4.12 15.576 4.12 32.52.76 68.838-57.149 121.708-57.909 52.87-170.569 52.87Zm58.026-360.566q24.156 0 41.065-17.022t16.909-41.178q0-24.156-16.909-41.065t-41.065-16.909q-24.156 0-41.178 16.909t-17.022 41.065q0 24.156 17.022 41.178t41.178 17.022Zm-45.635-200.609q5.044-1.761 10.228-2.902 5.185-1.141 10.229-1.902 8.239-41.044 31.217-78.598 22.978-37.555 63.326-63.707 4.348-3.478 6.957-8.695 2.608-5.218 2.608-13.044 0-6.956-5.282-11.619-5.283-4.663-15.848-4.663-38 0-86.359 16.38-48.358 16.381-50.358 63.575 0 8.849 2.5 16.849t4.45 14.857l26.332 73.469ZM231.127-401.196q13.786 0 32.786-7l73.565-26.282q-1.761-5.044-2.902-10.228-1.141-5.185-1.902-10.229-42.718-8.717-79.913-32.174-37.196-23.456-62.153-61.891-3.502-4.456-9.194-7.13-5.692-2.674-12.697-2.674-7.565 0-11.967 5.222-4.402 5.223-4.402 15.669 0 54.285 20.187 95.501 20.187 41.216 58.592 41.216Zm190.96 248.848q46.761 0 92.619-18.88 45.859-18.881 44.098-64.685 0-8-2.5-14.761-2.5-6.761-4.5-13.239l-26.282-73.565q-5.044 1.761-10.228 2.902-5.185 1.141-10.229 1.902-8.717 43.196-32.413 80.272-23.695 37.076-62.13 62.033-4.203 3.437-7.145 9.023-2.942 5.585-2.181 11.693.761 6.979 5.282 12.142 4.522 5.163 15.609 5.163Zm365.865-248.848q7.853 0 13.776-4.521 5.924-4.522 5.924-16.37 0-38.135-16-86.806-16-48.672-63.99-49.911-8.814 0-16.814 2t-14.761 4l-73.804 27.282q1.761 5.044 2.902 10.228 1.141 5.185 1.902 10.229 43.435 8.717 80.392 32.174 36.956 23.456 61.913 61.891 2.665 4.457 7.995 7.13 5.331 2.674 10.565 2.674ZM627.087-505.065ZM454.935-627.326ZM332.674-454.935Zm172.391 122.261Z"/></svg>