<svg xmlns="http://www.w3.org/2000/svg" height="24" viewBox="0 -960 960 960" width="24"><path d="M162.87-151.869q-37.783 0-64.392-26.609Q71.87-205.087 71.87-242.87V-440H295l69 138q5 11 15 16.5t21 5.5q11 0 21-5.5t15-16.5l124-248 44 88q5 11 15 16.5t21 5.5h248.131v197.13q0 37.783-26.609 64.392-26.609 26.609-64.392 26.609H162.87ZM71.87-520v-197.13q0-37.783 26.608-64.392 26.609-26.609 64.392-26.609h634.26q37.783 0 64.392 26.609 26.609 26.609 26.609 64.392V-520H665l-69-138q-5-11-15-15.5t-21-4.5q-11 0-21 4.5T524-658L400-410l-44-88q-5-11-15-16.5t-21-5.5H71.87Z"/></svg>