<svg xmlns="http://www.w3.org/2000/svg" height="24" viewBox="0 -960 960 960" width="24"><path d="M618.087-518.087q25.956 0 43.935-17.978Q680-554.043 680-580t-17.978-43.935q-17.979-17.978-43.816-17.978-25.836 0-43.815 18.041-17.978 18.042-17.978 43.816 0 25.773 17.988 43.871 17.988 18.098 43.686 18.098Zm-276.293 0q25.836 0 43.815-18.041 17.978-18.042 17.978-43.816 0-25.773-17.988-43.871-17.988-18.098-43.686-18.098-25.956 0-43.935 17.978Q280-605.957 280-580t17.978 43.935q17.979 17.978 43.816 17.978ZM479.98-71.869q-84.654 0-159.089-32.098t-129.63-87.294q-55.196-55.195-87.294-129.65-32.098-74.455-32.098-159.109 0-84.654 32.098-159.089t87.294-129.63q55.195-55.196 129.65-87.294 74.455-32.098 159.109-32.098 84.654 0 159.089 32.098t129.63 87.294q55.196 55.195 87.294 129.65 32.098 74.455 32.098 159.109 0 84.654-32.098 159.089t-87.294 129.63q-55.195 55.196-129.65 87.294-74.455 32.098-159.109 32.098ZM480-480Zm0 317.13q132.565 0 224.848-92.282Q797.13-347.435 797.13-480t-92.282-224.848Q612.565-797.13 480-797.13t-224.848 92.282Q162.87-612.565 162.87-480t92.282 224.848Q347.435-162.87 480-162.87ZM480-420q-57 0-106.641 27.88-49.642 27.881-78.685 76.881-6.239 12.239.88 23.739 7.12 11.5 21.359 11.5h324.696q14 0 21.239-11.5 7.239-11.5 1.239-23.739Q634.804-364 585.684-392 536.563-420 480-420Z"/></svg>