<svg xmlns="http://www.w3.org/2000/svg" height="24" viewBox="0 -960 960 960" width="24"><path d="M283.587-283.587h314.5q19.152 0 32.326 13.174t13.174 32.326q0 19.152-13.174 32.326t-32.326 13.174h-360q-19.152 0-32.326-13.174t-13.174-32.326v-360q0-19.152 13.174-32.326t32.326-13.174q19.152 0 32.326 13.174t13.174 32.326v314.5Zm203.826-203.826h314.5q19.152 0 32.326 13.174t13.174 32.326q0 19.152-13.174 32.326t-32.326 13.174h-360q-19.152 0-32.326-13.174t-13.174-32.326v-360q0-19.152 13.174-32.326t32.326-13.174q19.152 0 32.326 13.174t13.174 32.326v314.5Z"/></svg>