<svg xmlns="http://www.w3.org/2000/svg" height="24" viewBox="0 -960 960 960" width="24"><path d="M840.957-240q-18.525 0-31.056-12.531-12.531-12.532-12.531-31.056v-232.826q0-18.524 12.531-31.056Q822.432-560 840.957-560q18.524 0 31.055 12.531 12.532 12.532 12.532 31.056v232.826q0 18.524-12.532 31.056Q859.481-240 840.957-240Zm0 164.783q-19.033 0-31.908-12.875T796.174-120q0-19.033 12.875-31.908t31.908-12.875q19.032 0 31.907 12.875T885.739-120q0 19.033-12.875 31.908t-31.907 12.875Zm-360.264 1.195q-17.128 0-33.658-6.837-16.529-6.837-30.209-20.511L101.609-416.348q-13.674-13.674-20.392-30.231-6.717-16.557-6.717-33.684 0-17.128 6.717-33.661 6.718-16.533 20.392-30.207l315.217-314.978q13.674-13.674 30.231-20.391 16.557-6.718 33.685-6.718 17.128 0 33.66 6.837 16.533 6.837 30.207 20.272l176.348 175.63v159.544l-240-239.761L197.022-480l283.935 283.696 240-239.761V-277L544.609-101.13q-13.674 13.434-30.231 20.271-16.557 6.837-33.685 6.837Zm-31.802-262.282-111.63-111.631q-13.674-13.761-13.674-32.108 0-18.348 13.674-32.022l111.63-111.631q13.674-13.434 31.946-13.554 18.272-.12 31.946 13.554l111.63 111.631q13.674 13.761 13.674 32.108 0 18.348-13.674 32.022l-111.63 111.631q-13.674 13.674-31.946 13.554-18.272-.12-31.946-13.554Z"/></svg>