<svg xmlns="http://www.w3.org/2000/svg" height="24" viewBox="0 -960 960 960" width="24"><path d="M357.444-111.869q-102.227 0-173.901-71.674t-71.674-173.901v-245.343q0-102.227 71.674-173.785 71.674-71.559 173.901-71.559h245.343q102.227 0 173.785 71.559 71.559 71.558 71.559 173.785v245.343q0 102.227-71.559 173.901-71.558 71.674-173.785 71.674H357.444ZM202.87-369.326h554.26V-602.87q0-63.847-45.384-109.054-45.384-45.206-109.116-45.206h-245.5q-63.847 0-109.054 45.206-45.206 45.207-45.206 109.054v233.544Zm20.326 87.413q19.565 35.043 54.489 57.043 34.924 22 79.445 22h245.5q44.522 0 79.566-22 35.043-22 54.608-57.043H223.196ZM480-369.326Z"/></svg>