<svg xmlns="http://www.w3.org/2000/svg" height="24" viewBox="0 -960 960 960" width="24"><path d="M320-30.435q-19.152 0-32.326-13.174Q274.5-56.782 274.5-75.934v-80q0-85.674 60.054-145.587Q394.609-361.435 480-361.435q9.326 0 17.652.761t16.891 2.283l19.848-30.652-65.152-6.283q-98.913-10.239-166.109-83.696-67.195-73.456-67.195-173.369 0-100.674 66.815-174.49 66.815-73.815 166.728-83.815l162.609-15.761q40.022-3.478 69.609 23.631 29.587 27.109 29.587 67.13v365.609q0 40.261-29.587 67.37-29.587 27.108-69.848 23.391h-.761l-35.37 53.413q41.153 27.478 65.468 72.152 24.315 44.674 24.315 97.826v80q0 19.153-13.174 32.327Q659.152-30.435 640-30.435H320Z"/></svg>