<svg xmlns="http://www.w3.org/2000/svg" height="24" viewBox="0 -960 960 960" width="24"><path d="M479.283-71.87q-84.674 0-159.109-32.097-74.435-32.098-129.631-87.294-55.195-55.195-87.293-129.63Q71.152-395.326 71.152-480t32.098-159.109q32.098-74.435 87.293-129.63 55.196-55.196 129.631-87.294t159.109-32.098q85.195 0 160.271 32.62t130.653 88.598q55.576 55.978 87.032 131.456 31.457 75.479 30.174 160.674-30.717-23.239-67.315-36.739-36.598-13.5-75.315-13.5-19 0-36.881 2.881-17.88 2.88-34.88 8.641-8.196-40.283-33.772-65.544-25.576-25.26-63.815-25.26-46.913 0-73.848 36.054-26.935 36.054-26.935 88.25 0 38 14.239 67.337 14.239 29.337 40.479 44.293-5 16.761-8.142 34.022-3.141 17.261-3.141 35.783 0 61.152 30.196 113.326 30.195 52.174 83.108 83.652-36.478 14.718-74.815 22.218-38.337 7.5-77.293 7.5Zm69.478-340.478q-12.565-10-18.348-27.804-5.783-17.805-5.783-39.848 0-25.435 11-51.5t39.805-26.065q26.087 0 37.087 21.728 11 21.728 13.478 44.489-24 14.239-43.5 34.62-19.5 20.38-33.739 44.38ZM744.783-162.87q-56.326 0-96.011-39.684-39.685-39.685-39.685-96.011 0-56.326 39.685-95.891 39.685-39.566 96.011-39.566 56.326 0 96.011 39.566 39.684 39.565 39.684 95.891 0 56.326-39.684 96.011-39.685 39.684-96.011 39.684ZM422.609-360.696q9.195 0 15.532-6.837t6.337-16.032q0-9.196-6.337-15.533t-15.532-6.337h-68.261l-.761-1.761q16.891-16.891 30.033-29.532 13.141-12.642 21.858-21.359 18-18.478 27.62-36.478 9.619-18 9.619-37.957 0-29.391-21.695-50.587-21.696-21.195-58.174-21.195-27.435 0-49.75 16.076-22.316 16.076-30.272 40.989-.478 1.196-2 8.956 0 10.196 7.217 17.033 7.218 6.837 17.413 6.837 7.957 0 14.174-5.217 6.218-5.218 8.696-13.174 3.761-11 13.141-18 9.381-7 20.381-7 20.608 0 25.348 11.304 4.739 11.304 4.739 15.5 0 9.196-4.196 18.772-4.196 9.576-20.391 26.815-7.479 8-23.5 23.663-16.022 15.663-35.544 34.946L292.5-411.239q-2.478 2.239-6.957 16.152v11.761q0 9.196 6.837 15.913 6.837 6.717 16.033 6.717h114.196Z"/></svg>