<svg xmlns="http://www.w3.org/2000/svg" height="24" viewBox="0 -960 960 960" width="24"><path d="M369.009-61.587q-62.553 0-106.781-44.221Q218-150.03 218-212.587v-594.826q0-37.538 26.731-64.269 26.731-26.731 64.269-26.731h120q37.537 0 64.269 26.731Q520-844.951 520-807.413v594.826q0 62.557-44.219 106.779-44.218 44.222-106.772 44.222Zm-60.009-288q14-7 28.5-10.53 14.5-3.53 31.5-3.53t31.5 3.53q14.5 3.53 28.5 10.53v-457.826H309v457.826Zm60 197q25 0 42.5-17.5t17.5-42.5q0-25-17.5-42.5t-42.5-17.5q-25 0-42.5 17.5t-17.5 42.5q0 25 17.5 42.5t42.5 17.5Zm322-69q-37.537 0-64.269-26.731Q600-275.049 600-312.587v-334.826q0-37.538 26.731-64.269 26.732-26.731 64.269-26.731h40q37.538 0 64.269 26.731Q822-684.951 822-647.413v334.826q0 37.538-26.731 64.269-26.731 26.731-64.269 26.731h-40Zm0-91h40v-334.826h-40v334.826ZM309-807.413h120-120Zm382 494.826h40-40Z"/></svg>