<svg xmlns="http://www.w3.org/2000/svg" height="24" viewBox="0 -960 960 960" width="24"><path d="M480-194.5q85.391 0 145.446-60.054Q685.5-314.609 685.5-400v-160q0-85.391-60.054-145.446Q565.391-765.5 480-765.5q-85.391 0-145.446 60.054Q274.5-645.391 274.5-560v160q0 85.391 60.054 145.446Q394.609-194.5 480-194.5Zm0-91q-47.848 0-81.174-33.326Q365.5-352.152 365.5-400v-160q0-47.848 33.326-81.174Q432.152-674.5 480-674.5q47.848 0 81.174 33.326Q594.5-607.848 594.5-560v160q0 47.848-33.326 81.174Q527.848-285.5 480-285.5Zm0-269q17 0 28.5-11.5t11.5-28.5q0-17-11.5-28.5T480-634.5q-17 0-28.5 11.5T440-594.5q0 17 11.5 28.5t28.5 11.5ZM202.87-31.87q-37.783 0-64.392-26.608-26.609-26.609-26.609-64.392v-714.26q0-37.783 26.609-64.392 26.609-26.609 64.392-26.609h554.26q37.783 0 64.392 26.609 26.609 26.609 26.609 64.392v714.26q0 37.783-26.609 64.392Q794.913-31.87 757.13-31.87H202.87Z"/></svg>