<svg xmlns="http://www.w3.org/2000/svg" height="24" viewBox="0 -960 960 960" width="24"><path d="M822.63-437.13q-27.391 0-46.445-19.055-19.055-19.054-19.055-46.445v-240q0-27.392 19.055-46.446 19.054-19.055 46.445-19.055 27.392 0 46.446 19.055 19.055 19.054 19.055 46.446v240q0 27.391-19.055 46.445-19.054 19.055-46.446 19.055ZM323.217-121.435q-18.478 0-36.978-6.619-18.5-6.62-30.217-18.337L97.435-311.304Q85-324.5 84.76-343.033q-.24-18.532 12.195-31.446L102.24-380q7.956-8.435 18.772-11.196 10.815-2.761 23.967-.043l131.435 31.195v-424.26q0-26.674 18.457-45.131 18.456-18.456 45.13-18.456 26.674 0 45.13 18.456 18.457 18.457 18.457 45.131v237.847h36q8.478 0 18.359 1.881 9.88 1.88 18.119 6.119l160.652 80.087q24.435 11.718 36.316 36.294 11.88 24.576 7.641 51.25l-25.957 178q-5.239 31.196-28.434 51.293-23.196 20.098-54.392 20.098H323.217ZM302-205.022l-152-152 170 36v-426.869q0-9 5.5-14.5t14.5-5.5q9 0 14.5 5.5t5.5 14.5v242.869h70l166 82-38 218H302Z"/></svg>