<svg xmlns="http://www.w3.org/2000/svg" height="24" viewBox="0 -960 960 960" width="24"><path d="M479.905-270.435q-47.514 0-80.959 33.305-33.446 33.304-33.446 81.195v34.5h229v-34.5q0-47.891-33.065-81.195-33.065-33.305-81.53-33.305Zm-152.97-381.883q0 64.535 43.446 111.622 43.445 47.087 108.054 54.37l161.848 17v-366.37l-161.848 16q-64.609 6.522-108.054 54.201-43.446 47.679-43.446 113.177ZM320-30.435q-19.152 0-32.326-13.174Q274.5-56.782 274.5-75.934v-80q0-85.674 60.109-145.587Q394.717-361.435 480-361.435q9.218 0 17.598.761 8.38.761 16.945 2.283l19.848-30.652-65.152-6.283q-98.913-10.239-166.109-83.696-67.195-73.456-67.195-173.369 0-100.747 66.815-174.526 66.815-73.779 166.728-83.779l162.609-15.761q40.022-3.478 69.609 23.631 29.587 27.109 29.587 67.13v365.609q0 40.261-29.587 67.37-29.587 27.108-70.609 23.391l-35.37 53.413q41.153 27.478 65.468 72.205 24.315 44.726 24.315 97.773v80q0 19.153-13.174 32.327Q659.152-30.435 640-30.435H320ZM640.283-652.63ZM480-121.435Z"/></svg>