<svg xmlns="http://www.w3.org/2000/svg" height="24" viewBox="0 -960 960 960" width="24"><path d="M822.63-437.13q-27.291 0-46.395-19.105-19.105-19.104-19.105-46.395v-240q0-27.292 19.105-46.396 19.104-19.105 46.395-19.105 27.292 0 46.396 19.105 19.105 19.104 19.105 46.396v240q0 27.291-19.105 46.395-19.104 19.105-46.396 19.105ZM303.87-121.435q-17.813 0-32.483-6.619-14.67-6.62-26.387-18.337L69.196-323.239q-12.913-13.435-12.913-31.783t12.674-32.109l26.804-27.804q14.717-14.717 33.435-20.956 18.717-6.24 38.674-2l71.173 15.282v-321.695q0-43.507 30.026-73.547t73.511-30.04q43.485 0 73.561 30.04 30.077 30.04 30.077 73.547v176.173h22.412q5.479 0 10.077 1 4.597 1 9.837 3.24l151.521 67q25.196 11.535 37.794 36.702 12.598 25.167 7.359 52.602l-37.24 216.522q-5.239 30.435-28.576 50.032-23.337 19.598-53.772 19.598H303.87Zm.76-83.587h261l37-217.282-170-75h-70v-247q0-9-5.5-14.5t-14.5-5.5q-9 0-14.5 5.5t-5.5 14.5v424l-167.239-35.24L304.63-205.022Zm0 0h261-261Z"/></svg>