<svg xmlns="http://www.w3.org/2000/svg" height="24" viewBox="0 -960 960 960" width="24"><path d="M360-109q-70.538 0-120.769-50.231Q189-209.462 189-280v-360q0-87.565 61.717-149.283Q312.435-851 400-851h160q87.565 0 149.283 61.717Q771-727.565 771-640v360q0 70.538-50.231 120.769Q670.538-109 600-109H360Zm0-91h240q33 0 56.5-23.5T680-280v-360q0-50-35-85t-85-35H400q-50 0-85 35t-35 85v360q0 33 23.5 56.5T360-200Zm0-240q17 0 28.5-11.5T400-480q0-17-11.5-28.5T360-520q-17 0-28.5 11.5T320-480q0 17 11.5 28.5T360-440Zm120 0q17 0 28.5-11.5T520-480q0-17-11.5-28.5T480-520q-17 0-28.5 11.5T440-480q0 17 11.5 28.5T480-440Zm120 0q17 0 28.5-11.5T640-480q0-17-11.5-28.5T600-520q-17 0-28.5 11.5T560-480q0 17 11.5 28.5T600-440Zm-120-40Z"/></svg>