<svg xmlns="http://www.w3.org/2000/svg" height="24" viewBox="0 -960 960 960" width="24"><path d="M520-271.109q0 27.674 5.837 53.609 5.837 25.935 17.793 49.652l-3.043 3.044q-12.478 13.196-28.054 19.674-15.576 6.478-32.533 6.478t-32.533-6.478q-15.576-6.478-28.054-19.674L63.391-533.739q-12.478-12.957-18.597-28.913-6.12-15.957-6.12-32.152 0-18.435 7.478-35.37t22.435-30.13q82.957-70.283 193.326-107.022Q372.283-804.065 480-804.065q107.717 0 218.087 36.739 110.369 36.739 193.326 107.022 14.957 13.195 22.435 30.13 7.478 16.935 7.478 35.37 0 16.195-6.12 32.152-6.119 15.956-18.597 28.913l-40.239 41.674q-21.522-9.522-44.403-14.283-22.88-4.761-47.402-5.521-4.783 0-9.087.717-4.304.717-8.609 2.152l83.261-87.087q-77.282-57.804-165.956-87.391Q575.5-713.065 480-713.065t-184.174 29.587q-88.674 29.587-165.956 87.391l118.152 122.696q50.13-35.848 109.304-55.554Q416.5-548.652 480-548.652q52.652 0 102.38 13.783 49.729 13.782 93.815 39.065-68.934 24.913-112.565 85.739Q520-349.239 520-271.109Zm158.565 159.24q-16.282 0-27.424-11.142Q640-134.152 640-150.435v-122.869q0-16.283 11.141-27.424 11.142-11.141 27.424-11.141H680v-40q0-33 23.5-56.5t56.5-23.5q33 0 56.5 23.5t23.5 56.5v40h1.435q16.282 0 27.424 11.141Q880-289.587 880-273.304v122.869q0 16.283-11.141 27.424-11.142 11.142-27.424 11.142h-162.87Zm41.435-200h80v-40q0-17-11.5-28.5t-28.5-11.5q-17 0-28.5 11.5t-11.5 28.5v40Z"/></svg>