<svg xmlns="http://www.w3.org/2000/svg" height="24" viewBox="0 -960 960 960" width="24"><path d="M797.218-49.348 485.804-359.043H88.283q-21.63 0-35.685-16.533-14.055-16.533-9.576-37.924 9.521-48.848 39.239-84.033 29.717-35.184 70.195-57.967 40.479-22.783 87.62-33.043 47.141-10.261 92.511-10.261 8.587 0 17.815.858 9.228.859 17.816 1.816v117.782L55-790.804q-12.478-12.447-12.478-29.561 0-17.113 12.503-29.592 12.504-12.478 29.696-12.478t29.67 12.478l742.218 742.218q12.478 12.522 12.478 29.217 0 16.696-12.503 29.174-12.504 12.479-29.696 12.479t-29.67-12.479ZM76.174-196.413q-18.525 0-31.056-12.531Q32.587-221.476 32.587-240t12.531-31.056q12.531-12.531 31.056-12.531H589q18.524 0 31.056 12.531 12.531 12.532 12.531 31.056t-12.531 31.056Q607.524-196.413 589-196.413H76.174Zm0 163.826q-18.525 0-31.056-12.695-12.531-12.696-12.531-31.131 0-18.435 12.531-31.011T76.174-120H589q18.524 0 31.056 12.531 12.531 12.531 12.531 31.056 0 18.435-12.531 31.13Q607.524-32.587 589-32.587H76.174ZM871.457-206.89 452.5-624.131l-11.044-92.304q-2.239-20.391 10.938-35.685 13.177-15.293 33.802-15.293h149.021v-116.413q0-18.525 12.696-31.056 12.696-12.531 31.13-12.531 18.435 0 31.011 12.531t12.576 31.056v116.413h154.566q20.459 0 34.099 14.793 13.64 14.794 11.401 35.185l-51.239 510.544Z"/></svg>