<svg xmlns="http://www.w3.org/2000/svg" height="24" viewBox="0 -960 960 960" width="24"><path d="M480-71.87q-51.435 0-92.63-9.619-41.196-9.62-79.153-27.337-17.913-8.956-24.032-27.728-6.12-18.772 3.315-35.685 9.435-16.913 28.587-20.772 19.152-3.859 37.304 4.098 29.283 12.522 60.805 19.283 31.521 6.76 65.804 6.76t65.804-6.76q31.522-6.761 60.805-19.283 18.152-7.957 37.304-4.098t28.587 20.772q9.435 16.913 3.315 35.685-6.119 18.772-24.032 27.728-37.957 17.717-79.153 27.337-41.195 9.62-92.63 9.62ZM162.87-480q0 34.283 6.76 65.804 6.761 31.522 19.283 60.805 7.957 18.152 4.098 37.304T172.239-287.5q-16.913 9.435-35.685 3.315-18.772-6.119-27.728-24.032-17.717-37.957-27.337-79.153-9.62-41.195-9.62-92.63 0-51.435 9.62-92.63 9.62-41.196 27.337-79.153 8.956-17.913 27.728-24.032 18.772-6.12 35.685 3.315 16.913 9.435 20.772 28.587 3.859 19.152-4.098 37.304-12.522 29.283-19.283 60.805-6.76 31.521-6.76 65.804Zm634.26 0q0-34.283-6.76-65.804-6.761-31.522-19.283-60.805-7.957-18.152-4.098-37.304t20.772-28.587q16.913-9.435 35.685-3.315 18.772 6.119 27.728 24.032 17.717 37.957 27.337 79.153 9.62 41.195 9.62 92.63 0 51.435-9.62 92.63-9.62 41.196-27.337 79.153-8.956 17.913-27.728 24.032-18.772 6.12-35.685-3.315-16.913-9.435-20.772-28.587-3.859-19.152 4.098-37.304 12.522-29.283 19.283-60.805 6.76-31.521 6.76-65.804ZM480-797.13q-34.283 0-65.804 6.76-31.522 6.761-60.805 19.283-18.152 7.957-37.304 4.098T287.5-787.761q-9.435-16.913-3.315-35.685 6.119-18.772 24.032-27.728 37.957-17.717 79.153-27.337 41.195-9.62 92.63-9.62 51.435 0 92.63 9.62 41.196 9.62 79.153 27.337 17.913 8.956 24.032 27.728 6.12 18.772-3.315 35.685-9.435 16.913-28.587 20.772-19.152 3.859-37.304-4.098-29.283-12.522-60.805-19.283-31.521-6.76-65.804-6.76Zm39 560.239q-40.196 0-71.913-24.479-31.717-24.478-45.957-63.434-2.76-7.761-6.141-15.022-3.38-7.261-9.141-13.022l-50-51q-26.478-26.717-42.718-61.195-16.239-34.479-16.239-72.957 0-76.435 53.337-130.772Q383.565-723.109 460-723.109q52.957 0 97.294 27.859 44.336 27.859 67.576 75.815 10.717 21.674-1.859 42.109-12.576 20.435-37.011 20.435-12.957 0-23.174-6.979-10.217-6.978-15.696-18.695-12.521-25.283-35.804-39.805-23.283-14.521-51.326-14.521-40.565 0-68.728 28.163-28.163 28.163-28.163 68.728 0 20.283 7.141 38.804 7.141 18.522 21.902 33.044l55 54q14.239 14 22.859 30.858 8.619 16.859 14.859 35.337 4.521 11.044 13.804 17.946 9.283 6.902 21.326 6.902 10.283 0 18.946-5.021 8.663-5.022 13.184-14.305 5.24-9.956 15.196-15.315 9.957-5.359 21.674-5.359 24.674 0 37.511 20.555 12.837 20.554 1.119 41.989-16.239 29.717-45.456 46.695-29.217 16.979-63.174 16.979ZM541.196-400q25 0 42.5-17.5t17.5-42.5q0-25-17.5-42.5t-42.5-17.5q-25 0-42.5 17.5t-17.5 42.5q0 25 17.5 42.5t42.5 17.5Z"/></svg>