<svg xmlns="http://www.w3.org/2000/svg" height="24" viewBox="0 -960 960 960" width="24"><path d="M607.13-204.739q12 0 21-9t9-21q0-12-9-21t-21-9q-12 0-21 9t-9 21q0 12 9 21t21 9Zm110 0q12 0 21-9t9-21q0-12-9-21t-21-9q-12 0-21 9t-9 21q0 12 9 21t21 9Zm110 0q12 0 21-9t9-21q0-12-9-21t-21-9q-12 0-21 9t-9 21q0 12 9 21t21 9Zm-110 170q-83 0-141.5-58.5t-58.5-141.5q0-83 58.5-141.5t141.5-58.5q83 0 141.5 58.5t58.5 141.5q0 83-58.5 141.5t-141.5 58.5ZM322.87-596.413h314.26q17 0 28.5-11.5t11.5-28.5q0-17-11.5-28.5t-28.5-11.5H322.87q-17 0-28.5 11.5t-11.5 28.5q0 17 11.5 28.5t28.5 11.5Zm142.934 485.261H202.87q-37.538 0-64.269-26.731-26.732-26.732-26.732-64.269v-554.261q0-37.538 26.732-64.269 26.731-26.731 64.269-26.731h554.26q37.538 0 64.269 26.731 26.732 26.731 26.732 64.269v276.131q-31.153-17.109-63.403-25.663-32.25-8.555-67.598-8.555-11 0-20.5.46t-19.5 2.301q-8.282-3.913-19.282-5.728-11-1.816-20.718-1.816H322.87q-17 0-28.5 11.5t-11.5 28.5q0 17 11.5 28.5t28.5 11.5h204.521q-18 16.283-32.739 35.566-14.739 19.282-26.217 41.565H322.87q-17 0-28.5 11.5t-11.5 28.5q0 17 11.5 28.5t28.5 11.5h118.695q-2.717 11.674-3.576 23.206-.859 11.533-.859 24.446 0 33.718 6.598 63.294 6.598 29.576 22.076 60.054Z"/></svg>