<svg xmlns="http://www.w3.org/2000/svg" height="24" viewBox="0 -960 960 960" width="24"><path d="M720-152.348 656.348-216l57.5-58.5H554.5v-91h159.348l-57.5-58.5L720-487.652 887.652-320 720-152.348ZM416-518.087 674.5-660.13V-754.5h-12.391L416-620.891 177.131-754.5H165.5v97.087L416-518.087ZM161.696-274.5q-36.261 0-61.729-25.467Q74.5-325.435 74.5-361.696v-396.608q0-36.261 25.467-61.729 25.468-25.467 61.729-25.467h516.608q36.261 0 61.729 25.467 25.467 25.468 25.467 61.729v197.76q-11.435-2.478-22.75-3.717Q731.435-565.5 720-565.5q-100.391 0-172.946 71.935Q474.5-421.63 474.5-320q0 11.435 1.239 22.75t3.478 22.75H161.696Z"/></svg>