<svg xmlns="http://www.w3.org/2000/svg" height="24" viewBox="0 -960 960 960" width="24"><path d="M162.87-111.869q-37.783 0-64.392-26.609Q71.87-165.087 71.87-202.87v-474.26q0-37.783 26.61-64.392 26.608-26.609 64.391-26.609h118.826l50.478-52.326q12.435-12.956 29.609-20.315 17.174-7.359 35.608-7.359h165.218q18.434 0 35.608 7.359 17.174 7.359 29.609 20.315l50.478 52.326H797.13q37.783 0 64.392 26.609 26.609 26.609 26.609 64.392v474.26q0 37.783-26.609 64.392-26.609 26.609-64.392 26.609H520V-241.37q78.478-12 132.859-68.358 54.38-56.359 65.141-133.598 2-14-9.62-24.022Q696.761-477.37 680-477.37q-15 0-27.5 8.62t-15.739 22.62q-11.239 54.043-55.12 90.087Q537.761-320 480-320q-57.522 0-101.022-35.424-43.5-35.424-54.978-88.706-3.239-15-15.62-24.12-12.38-9.12-28.38-9.12-17 0-28.5 10.5t-9.5 24.5q11 77 65.5 133t132.5 68v129.501H162.87ZM480-397.37q33 0 56.5-23.5t23.5-56.5v-160q0-33-23.5-56.5t-56.5-23.5q-33 0-56.5 23.5t-23.5 56.5v160q0 33 23.5 56.5t56.5 23.5Z"/></svg>