<svg xmlns="http://www.w3.org/2000/svg" height="24" viewBox="0 -960 960 960" width="24"><path d="m760.652-83.087-72.282-71.282v6.565H124.304q-37.782 0-64.391-26.609-26.609-26.609-26.609-64.391v-29.609q0-36.224 18.743-66.589 18.742-30.365 49.801-46.346 62.239-31.239 126.712-46.978 64.474-15.739 130.962-15.739 10.848 0 20.956.5 10.109.5 19.957 1.261l-43.196-43.435H350.674q-63.131-2.631-108.098-47.718t-47.598-107.978V-648L83.283-759.696q-12.479-12.478-12.098-29.815.38-17.337 12.858-29.815 12.479-12.478 29.816-12.359 17.337.12 29.815 12.598l676.369 677.13q12.479 12.479 12.359 29.435-.119 16.957-12.573 29.435-12.453 12.478-29.576 12.478t-29.601-12.478ZM724.304-528.37h-76.173q-17.813 0-29.863-12.05t-12.05-29.863q0-17.813 12.05-29.863t29.863-12.05h76.173v-76.174q0-17.813 12.05-29.863t29.864-12.05q17.813 0 29.863 12.05t12.05 29.863v76.174h76.173q17.813 0 29.863 12.05 12.051 12.05 12.051 29.863t-12.051 29.863q-12.05 12.05-29.863 12.05h-76.173v76.174q0 17.813-12.05 29.863t-29.863 12.05q-17.814 0-29.864-12.05t-12.05-29.863v-76.174Zm-218.63-41.717L279.565-796.196q16.913-11.587 38.361-17.739 21.448-6.152 43.509-6.152 69.587 0 118.859 49.152 49.271 49.152 49.271 118.739 0 22.065-6.271 43.87-6.272 21.804-17.62 38.239Z"/></svg>