<svg xmlns="http://www.w3.org/2000/svg" height="24" viewBox="0 -960 960 960" width="24"><path d="M687.413-615.783h160q18.435 0 31.011 12.576T891-572.196q0 18.435-12.576 31.131-12.576 12.695-31.011 12.695H687.174q-18.435 0-31.011-12.695-12.576-12.696-12.576-31.131 0-18.435 12.696-31.011 12.695-12.576 31.13-12.576ZM360.717-484.065q-69.587 0-118.858-49.272-49.272-49.272-49.272-118.859 0-69.587 49.272-118.739 49.271-49.152 118.858-49.152t118.859 49.152q49.272 49.152 49.272 118.739t-49.272 118.859q-49.272 49.272-118.859 49.272ZM32.587-238.804v-29.609q0-36.152 18.695-66.565 18.696-30.413 49.848-46.37 62.718-31.239 127.674-46.978 64.957-15.739 131.913-15.739 67.435 0 132.392 15.619 64.956 15.62 127.195 46.859 31.153 15.957 49.848 46.25 18.696 30.294 18.696 66.924v29.609q0 37.782-26.609 64.391-26.609 26.609-64.391 26.609H123.587q-37.783 0-64.391-26.609-26.61-26.609-26.61-64.391Z"/></svg>