<svg xmlns="http://www.w3.org/2000/svg" height="24" viewBox="0 -960 960 960" width="24"><path d="M283.587-32.587q-37.544 0-64.272-26.728-26.728-26.728-26.728-64.272v-712.826q0-37.544 26.728-64.272 26.728-26.728 64.272-26.728h392.826q37.544 0 64.272 26.728 26.728 26.728 26.728 64.272V-680h-91v-36.413H283.587v472.826h392.826V-280h91v156.413q0 37.544-26.728 64.272-26.728 26.728-64.272 26.728H283.587ZM675.913-370q-8-2.761-14-6.38-6-3.62-12-9.62l-27.609 12.043q-7.956 3.479-16.032.62t-12.555-10.815l-19.608-34.696q-4.479-7.956-2.859-15.913 1.62-7.956 8.576-13.674L603.913-466q-2-8-2-15t2-15l-23.087-17.565q-6.956-5.718-8.696-14.055-1.739-8.337 2.979-16.293l20.608-33.935q4.479-6.956 12.435-9.815 7.957-2.859 15.913.62L649.913-576q6-5 12-8.12 6-3.119 14-5.88l3.761-29.609q1.239-8.956 7.456-14.674Q693.348-640 702.304-640h39.218q8.956 0 15.174 5.717 6.217 5.718 7.456 14.674L767.913-590q8 2.761 14 5.88 6 3.12 12 8.12l25.848-11.043q7.956-3.479 15.913-.62 7.956 2.859 12.435 9.815l20.608 33.935q4.718 7.956 2.979 16.293-1.739 8.337-8.696 14.055L839.913-496q2 8 2 15t-2 15L864-448.435q6.957 5.718 8.576 13.674 1.62 7.957-2.859 15.913l-19.608 34.696q-4.479 7.956-12.555 10.815-8.076 2.859-16.032-.62L793.913-386q-6 6-12 9.62-6 3.619-14 6.38l-3.761 29.609q-1.239 8.956-7.456 14.674Q750.478-320 741.522-320h-39.218q-8.956 0-15.174-5.717-6.217-5.718-7.456-14.674L675.913-370Zm46-50q26 0 43-17t17-43q0-26-17-43t-43-17q-26 0-43 17t-17 43q0 26 17 43t43 17Z"/></svg>