<svg xmlns="http://www.w3.org/2000/svg" height="24" viewBox="0 -960 960 960" width="24"><path d="M798.218-52.174 50.261-799.89q-11.718-11.718-11.718-29.196t11.718-29.196Q61.978-870 79.576-870t29.315 11.717l747.718 747.718q11.717 11.717 11.717 29.195 0 17.479-11.717 29.196-11.718 11.718-29.196 11.718t-29.195-11.718ZM192.587-715.196l91 91v380.609h381.609L767.413-141.37v18.261q0 37.544-26.731 64.033-26.731 26.49-64.269 26.49H283.587q-37.783 0-64.391-26.61-26.609-26.608-26.609-64.391v-591.609Zm171.174-1.217L205.522-875.174q11.195-23.717 32.25-37.978 21.054-14.261 47.011-14.261h391.63q37.783 0 64.391 26.609 26.609 26.608 26.609 64.391V-680h-91v-36.413H363.761ZM927.696-480q0 50-16 96.5t-46 85.5q-10 13-26.5 13.5t-28.5-11.5q-11-11-11.5-28t9.5-31q19-27 29-59t10-66q0-34-10-66t-29-59q-10-14-9.5-31t11.5-28q12-12 28.5-11.5t26.5 13.5q30 39 46 85.5t16 96.5Zm-140.239 0q0 32-12.437 61.5-12.436 29.5-34.324 52.5-5 5-13 8.5t-16 3.5q-17 0-29-12t-12-29q0-8 3.5-16t8.5-13q11.761-11.761 18.261-25.334 6.5-13.574 6.5-30.666 0-15-6.933-30t-17.828-26q-5-5-8.5-13t-3.5-16q0-17 12-29t29-12q8 0 16 3.5t13 8.5q22 23 34.38 52.5 12.381 29.5 12.381 61.5Z"/></svg>