<svg xmlns="http://www.w3.org/2000/svg" height="24" viewBox="0 -960 960 960" width="24"><path d="M798.478-111.869q-126.435 0-249.869-55.098-123.435-55.098-224.87-156.294Q222.304-424.696 167.206-548.25q-55.097-123.554-55.097-249.989 0-21.348 14.152-35.62 14.152-14.272 35.5-14.272h161.761q19.5 0 33.369 11.533 13.87 11.533 17.305 29.555l25.761 134.978q2.956 19.587-.881 33.217-3.837 13.631-14.706 23.783l-98.435 96.087q19.043 34.369 45.109 66.956 26.065 32.587 58.108 63.631 29.805 29.804 61.413 54.63 31.609 24.826 66.261 44.913l95.674-94.957q11.63-11.391 28.522-16.369 16.891-4.978 34.478-2.022l131.543 27.283q19.022 5.434 30.055 18.445 11.033 13.011 11.033 31.033v163.674q0 21.348-14.272 35.62-14.272 14.272-35.381 14.272ZM668.674-609.805h59.935q17.717 0 29.696 11.979 11.978 11.978 11.978 29.695 0 17.718-11.978 29.816-11.979 12.097-29.696 12.097H571.957q-19.152 0-32.326-13.173-13.174-13.174-13.174-32.327v-156.173q0-17.718 12.098-29.816 12.097-12.098 29.815-12.098 17.717 0 29.815 12.098 12.098 12.098 12.098 29.816v59.456l168.891-168.891q11.717-11.718 29.196-11.718 17.478 0 29.195 11.718 11.718 11.717 11.718 29.315t-11.718 29.315L668.674-609.805Z"/></svg>