<svg xmlns="http://www.w3.org/2000/svg" height="24" viewBox="0 -960 960 960" width="24"><path d="M202.87-111.869q-37.783 0-64.392-26.609-26.609-26.609-26.609-64.392v-554.26q0-37.783 26.609-64.392 26.609-26.609 64.392-26.609h554.26q37.783 0 64.392 26.609 26.609 26.609 26.609 64.392v554.26q0 37.783-26.609 64.392-26.609 26.609-64.392 26.609H202.87Zm0-91.001h123.304v-175.217h-8.087q-17.813 0-29.863-12.05T276.174-420v-337.13H202.87v554.26Zm430.956 0H757.13v-554.26h-73.304V-420q0 17.813-12.05 29.863t-29.863 12.05h-8.087v175.217Zm-240.239 0h172.826v-175.217h-8.087q-17.813 0-29.863-12.05T516.413-420v-337.13h-72.826v337.369q0 17.712-12.05 29.693-12.05 11.981-29.863 11.981h-8.087v175.217Z"/></svg>