<svg xmlns="http://www.w3.org/2000/svg" height="24" viewBox="0 -960 960 960" width="24"><path d="M322.87-107.804q-37.783 0-64.392-26.609-26.609-26.609-26.609-64.391v-74.5H162.87q-37.783 0-64.392-26.609-26.609-26.609-26.609-64.391V-520q0-54.109 37.163-91.12 37.162-37.011 90.251-37.011h561.434q54.151 0 90.782 37.011 36.632 37.011 36.632 91.12v155.696q0 37.782-26.609 64.391-26.609 26.609-64.392 26.609h-68.999v74.5q0 37.782-26.609 64.391-26.609 26.609-64.392 26.609H322.87Zm-160-256.5h83.108q3.348-27.261 25.413-46.337 22.066-19.076 51.479-19.076h314.26q29.413 0 51.479 19.076 22.065 19.076 25.413 46.337h83.108v-156.174q0-15.577-10.537-26.115-10.538-10.537-26.115-10.537H199.283q-15.476 0-25.945 10.782Q162.87-535.565 162.87-520v155.696Zm474.26-283.827V-757.13H322.87v108.999h-91.001V-757.13q0-37.783 26.609-64.392 26.609-26.609 64.392-26.609h314.26q37.783 0 64.392 26.609 26.609 26.609 26.609 64.392v108.999H637.13Zm77.609 198.414q18.435 0 31.011-12.531 12.576-12.532 12.576-31.056 0-18.435-12.531-31.131-12.532-12.695-31.056-12.695-18.435 0-31.13 12.695-12.696 12.696-12.696 31.131 0 18.435 12.696 31.011 12.695 12.576 31.13 12.576ZM637.13-197.13v-141.587H322.87v141.587h314.26Zm-474.26-360H797.13 162.87Z"/></svg>