<svg xmlns="http://www.w3.org/2000/svg" height="24" viewBox="0 -960 960 960" width="24"><path d="m718-273.652 109.174-109.174Q839.848-395.5 858.5-395.62q18.652-.119 32.326 12.555 13.674 13.674 13.794 32.445.119 18.772-13.555 32.446l-141.239 141Q736.152-163.739 718-163.739t-31.826-13.435l-57-56.761Q615.5-247.609 615.5-266t13.674-32.065q13.435-12.674 31.826-12.674t31.826 12.674L718-273.652ZM277.37-107.804q-19.153 0-32.327-13.174t-13.174-32.326v-120H117.37q-19.153 0-32.327-13.174T71.87-318.804V-520q0-54.109 37.153-91.12 37.152-37.011 90.261-37.011h561.434q54.109 0 90.761 37.011 36.653 37.011 36.653 91.12v31.435q-28.913-16.152-60.446-24.989-31.533-8.837-65.163-8.837-85.653 0-153.337 51.413-67.685 51.413-90.664 132.261H322.87v141.587h192.521q7.239 24.869 18.435 47.141 11.196 22.272 27.109 42.185H277.37Zm-45.501-580.327v-68.999q0-37.783 26.609-64.392 26.609-26.609 64.392-26.609h314.26q37.783 0 64.392 26.609 26.609 26.609 26.609 64.392v68.999H231.869Z"/></svg>