<svg xmlns="http://www.w3.org/2000/svg" height="24" viewBox="0 -960 960 960" width="24"><path d="M202.63-71.87q-37.782 0-64.271-26.66-26.49-26.662-26.49-64.1v-484.305q0-37.783 26.49-64.272 26.489-26.489 64.271-26.489h33.783v-100.869q0-37.783 26.609-64.392 26.608-26.608 64.391-26.608h304.935q37.782 0 64.391 26.608 26.609 26.609 26.609 64.392v100.869h34.022q37.438 0 64.1 26.489 26.661 26.489 26.661 64.272v484.305q0 37.438-26.661 64.1-26.662 26.66-64.1 26.66H202.63Zm124.783-665.826h304.935v-100.869H327.413v100.869ZM202.87-162.87h554.26v-483.826H202.87v483.826Zm277.076-40q83.771 0 142.869-58.978t59.098-142.935q0-83.478-59.044-142.695-59.043-59.218-142.815-59.218-83.771 0-142.869 59.218-59.098 59.217-59.098 142.695 0 83.957 59.044 142.935 59.043 58.978 142.815 58.978Zm.054-62.869q-57.761 0-98.402-40.642-40.641-40.641-40.641-98.402 0-57.282 40.641-97.924 40.641-40.641 98.282-40.641 57.642 0 98.163 40.641 40.522 40.642 40.522 97.924 0 57.761-40.58 98.402-40.579 40.642-97.985 40.642Zm21.674-147.795v-70.77q0-8.67-6.513-15.172-6.512-6.502-15.195-6.502t-15.281 6.574q-6.598 6.573-6.598 15.339v68.847q0 9.196 3.359 17.55 3.358 8.354 10.076 15.038l38.804 38.804q6.522 6.478 15.217 6.478 8.696 0 15.174-6.512 6.479-6.513 6.479-15.196t-6.479-15.162l-39.043-39.316ZM480-404.783Z"/></svg>