<svg xmlns="http://www.w3.org/2000/svg" height="24" viewBox="0 -960 960 960" width="24"><path d="M281.196-227.565q-19.631 0-32.566-13.081-12.934-13.082-12.934-32.419v-85.5H762.63v-366.457h85.501q19.337 0 32.418 13.081 13.082 13.082 13.082 32.419v503.957q0 30.497-27.968 42.357-27.967 11.86-49.598-9.77l-84.586-84.587H281.196Zm-51.001-211-86.499 86.261q-21.631 21.63-49.479 9.77T66.37-384.891v-464.196q0-19.338 13.082-32.419 13.08-13.081 32.418-13.081H637.13q19.338 0 32.419 13.081 13.081 13.081 13.081 32.419v365.022q0 19.337-13.081 32.419-13.081 13.081-32.419 13.081H230.195Zm361.435-91v-274.022H157.37v274.022h434.26Zm-434.26 0v-274.022 274.022Z"/></svg>