<svg xmlns="http://www.w3.org/2000/svg" height="24" viewBox="0 -960 960 960" width="24"><path d="m842.152-239.043-89.043-89.044q-13.239-13.239-13.12-31.076.12-17.837 13.359-31.076t30.956-13.239q17.718 0 30.957 13.239l119.369 119.13q13.674 13.761 13.674 32.109 0 18.348-13.674 32.022L815.5-87.848q-13.239 13.24-31.196 13.24-17.956 0-31.195-13.24-13.239-13.239-13.12-31.195.12-17.957 13.359-31.196l88.804-88.804ZM361.196-111.869q-19.153 0-32.326-13.174-13.174-13.174-13.174-32.327v-34.499H162.87q-37.783 0-64.392-26.609Q71.87-245.087 71.87-282.87v-474.26q0-37.783 26.61-64.392 26.608-26.609 64.391-26.609h634.26q37.783 0 64.392 26.609 26.609 26.609 26.609 64.392v231.63q0 19.152-13.174 32.326T842.63-480q-19.152 0-32.326-13.174T797.13-525.5v-231.63H162.87v474.26h473.782q19.152 0 32.326 13.174t13.174 33.044q0 19.033-12.875 31.908t-31.907 12.875h-30.435v34.499q0 19.153-13.174 32.327t-32.326 13.174H361.196Zm76.891-366.457v76.413q0 17.813 12.05 29.863T480-360q17.813 0 29.863-12.05t12.05-29.863v-76.413h76.413q17.711 0 29.693-12.05Q640-502.426 640-520.239q0-17.712-11.981-29.693-11.982-11.981-29.693-11.981h-76.413v-76.174q0-17.813-12.05-29.863T480-680q-17.813 0-29.863 12.05t-12.05 29.863v76.174h-76.413q-17.711 0-29.693 11.982Q320-537.948 320-520.235t12.05 29.811q12.05 12.098 29.863 12.098h76.174ZM162.87-282.87v-474.26 474.26Z"/></svg>