<svg xmlns="http://www.w3.org/2000/svg" height="24" viewBox="0 -960 960 960" width="24"><path d="M665.204-200q39.666 0 67.111-27.388 27.446-27.389 27.446-67.055 0-39.666-27.389-67.111Q704.984-389 665.318-389t-67.111 27.389q-27.446 27.388-27.446 67.054t27.388 67.111Q625.538-200 665.204-200ZM901.087-58.674Q888.413-46 869.261-46t-31.826-12.674l-77.131-76.891q-21 13.283-45.187 19.924Q690.929-109 665.261-109q-77.292 0-131.396-54.104-54.104-54.104-54.104-131.396 0-77.292 54.104-131.396Q587.969-480 665.261-480q77.292 0 131.396 54.104 54.104 54.104 54.104 131.396 0 25.669-6.641 49.856-6.641 24.188-19.924 45.188l76.891 77.13q12.674 12.674 12.674 31.826t-12.674 31.826ZM202.87-71.869q-37.783 0-64.392-26.61-26.609-26.608-26.609-64.391v-634.26q0-37.783 26.609-64.392 26.609-26.609 64.392-26.609h282.934q18.211 0 34.714 6.837 16.504 6.837 29.178 19.511l192.087 192.087q12.674 12.674 19.511 29.178 6.837 16.503 6.837 34.714v66.521q-24.479-10.239-50.265-15.478Q692.079-560 665.261-560q-55.387 0-103.357 20.283-47.969 20.282-83.686 56.847H321.674q-17.711 0-29.693 11.983Q280-458.905 280-441.191q0 17.713 12.05 29.811 12.05 12.097 29.863 12.097h99.522q-8 18.044-12.62 37.207-4.619 19.163-7.098 39.206h-80.043q-17.711 0-29.693 11.983Q280-298.905 280-281.191q0 17.713 11.981 29.811 11.982 12.097 29.693 12.097h84.13q10.283 51.913 39.522 95.327 29.239 43.413 74.957 72.087H202.87ZM477.13-797.13v154.5q0 19.152 13.174 32.326t32.326 13.174h154.5l-200-200 200 200-200-200Z"/></svg>