<svg xmlns="http://www.w3.org/2000/svg" height="24" viewBox="0 -960 960 960" width="24"><path d="M283.587-398.087h64.283q9.195 0 17.549-3.359 8.354-3.358 15.038-10.076L560.565-591.63q9.718-9.718 14.457-21.935 4.739-12.217 4.739-24.294 0-12.076-5.239-23.532-5.239-11.457-13.957-21.174l-36.239-37.761q-9.717-9.717-21.594-14.576t-24.834-4.859q-11.876 0-24.094 4.859-12.217 4.859-21.935 14.337L251.761-540.457q-6.718 6.718-10.196 15.055-3.478 8.337-3.478 17.532v64.283q0 19.152 13.174 32.326t32.326 13.174Zm231.391-239.891-37-37 37 37ZM302.87-462.87v-38l92.391-92.152 19.761 18 18 19.761-92.152 92.391h-38Zm112.152-112.152 18 19.761-37.761-37.761 19.761 18Zm37 176.935h229.891q17 0 28.5-11.5t11.5-28.5q0-17-11.5-28.5t-28.5-11.5H532.022l-80 80ZM231.869-231.869l-82.434 82.434q-21.631 21.631-49.598 9.771-27.968-11.86-27.968-42.358V-797.13q0-37.783 26.61-64.392 26.608-26.609 64.391-26.609h634.26q37.783 0 64.392 26.609 26.609 26.609 26.609 64.392v474.26q0 37.783-26.609 64.392-26.609 26.609-64.392 26.609H231.869Zm-34-91.001H797.13v-474.26H162.87v508.499l34.999-34.239Zm-34.999 0v-474.26 474.26Z"/></svg>