<svg xmlns="http://www.w3.org/2000/svg" height="24" viewBox="0 -960 960 960" width="24"><path d="M315.696-157.37v-34.499H162.87q-37.544 0-64.272-26.729-26.729-26.728-26.729-64.272v-474.26q0-37.544 26.729-64.272 26.728-26.729 64.272-26.729h634.26q37.544 0 64.272 26.729 26.729 26.728 26.729 64.272v195.217H516.304l42.892-42.891q11.717-11.718 11.837-29.316.119-17.597-11.598-29.315-11.718-11.717-29.315-11.717-17.598 0-29.316 11.717l-111.369 111.37Q375.761-538.391 375.761-520t13.674 32.065l111.369 111.37q11.718 11.717 29.196 11.717t29.196-11.717q11.717-11.718 11.717-29.315 0-17.598-11.717-29.316l-42.892-42.891h371.827v195.217q0 37.544-26.729 64.272-26.728 26.729-64.272 26.729H644.304v34.499q0 19.153-13.174 32.327-13.173 13.174-32.326 13.174H361.196q-19.153 0-32.326-13.174-13.174-13.174-13.174-32.327Z"/></svg>