<svg xmlns="http://www.w3.org/2000/svg" height="24" viewBox="0 -960 960 960" width="24"><path d="M167.848-475.37q-23.631 0-37.805-16.913t-8.217-38.826q5.761-23.565 15.402-45.369 9.641-21.805 21.685-42.609 10.956-19.152 32.848-21.391 21.891-2.239 38.804 13.674 10.435 10.195 12.794 25.848 2.358 15.652-5.359 28.804-8.565 14.609-14.989 30.239-6.424 15.63-10.707 32-4.195 14.913-17.369 24.728-13.174 9.815-27.087 9.815ZM438-125.456q0 24.391-16.794 38.184-16.793 13.794-38.945 7.837-22.805-6.521-44.728-15.782-21.924-9.261-43.49-21.304-19.152-10.957-21.271-32.848-2.12-21.892 14.032-38.805 10.435-10.435 26.087-12.674 15.653-2.239 28.805 5.478 14.369 8.566 29.88 14.87 15.511 6.304 31.641 10.587 14.913 4.196 24.848 17.37Q438-139.37 438-125.456ZM230.326-244.174q-16.913 16.152-38.685 13.913-21.772-2.239-32.728-21.391-12.044-21.565-21.185-43.489-9.141-21.924-15.663-44.728-5.956-22.153 7.717-38.827 13.674-16.674 38.066-16.674 14.674 0 27.467 9.816 12.794 9.815 16.989 24.728 4.283 16.13 10.468 31.641t14.75 29.881q7.717 13.152 5.358 29.424-2.358 16.271-12.554 25.706ZM572.978-80.913q-22.152 5.957-38.565-7.478Q518-101.826 518-125.456q0-14.914 9.696-27.707 9.695-12.794 24.848-16.989 89.13-25.196 145.858-98.142 56.728-72.945 56.728-167.076 0-113.652-78.391-193.717-78.391-80.065-192.043-82.935h-6.565l29.304 29.305q10.282 11.956 9.924 29.913-.359 17.956-13.033 30.63T472.5-609.5q-19.152 0-31.826-12.674l-104-104q-6.718-6.717-9.696-14.793Q324-749.043 324-758t2.978-17.033q2.978-8.076 9.696-14.793l103.239-104Q453.348-906.5 472.5-906.5t31.826 12.674q13.435 13.435 13.674 31.511.239 18.076-10.522 30.511l-28.543 28.782h5.043q151.435 1.913 256.794 108.826Q846.131-587.283 846.131-435.37q0 125.674-76.479 223.348-76.478 97.674-196.674 131.11Z"/></svg>