<svg xmlns="http://www.w3.org/2000/svg" height="24" viewBox="0 -960 960 960" width="24"><path d="M516.413-234.5v-144.196l-42.13-45.891-20.761 104.565-153.587-31.956 8.717-42.587 111 23 38.044-190.739L400-540.978v66.478h-43.587v-97.109l132.196-48.478q15.478-5.239 30.652 1.037 15.174 6.276 22.5 20.92 24.522 50.282 55.261 65.163 30.739 14.88 42.978 14.88v43.587q-21.478 0-55.478-15.902t-61.239-51.707l-16.044 89.218L560-396.13v161.63h-43.587ZM540-638.087q-17.813 0-29.863-12.05T498.087-680q0-17.813 12.05-29.863T540-721.913q17.813 0 29.863 12.05T581.913-680q0 17.813-12.05 29.863T540-638.087ZM480-71.869q-84.913 0-159.345-32.118t-129.491-87.177q-55.059-55.059-87.177-129.491Q71.869-395.087 71.869-480t32.118-159.345q32.118-74.432 87.177-129.491 55.059-55.059 129.491-87.177Q395.087-888.131 480-888.131t159.345 32.118q74.432 32.118 129.491 87.177 55.059 55.059 87.177 129.491Q888.131-564.913 888.131-480t-32.118 159.345q-32.118 74.432-87.177 129.491-55.059 55.059-129.491 87.177Q564.913-71.869 480-71.869Zm0-91.001q133.043 0 225.087-92.043Q797.13-346.957 797.13-480t-92.043-225.087Q613.043-797.13 480-797.13t-225.087 92.043Q162.87-613.043 162.87-480t92.043 225.087Q346.957-162.87 480-162.87Z"/></svg>