<svg xmlns="http://www.w3.org/2000/svg" height="24" viewBox="0 -960 960 960" width="24"><path d="M162.87-71.87q-37.783 0-64.392-26.608Q71.87-125.087 71.87-162.87v-634.26q0-37.783 26.61-64.392 26.608-26.609 64.391-26.609h634.26q37.783 0 64.392 26.609 26.609 26.609 26.609 64.392v634.26q0 37.783-26.609 64.392Q834.913-71.87 797.13-71.87H162.87Zm0-241.912v150.912H240V-240h-17.37q-9.195 0-15.913-6.861Q200-253.722 200-262.87v-50.912h-37.13Zm0-86.218H200q0-17 11.5-28.5T240-440v-100q0-25 17.5-42.5T300-600h80q25 0 42.5 17.5T440-540v100q17 0 28.5 11.5T480-400h317.13v-397.13H162.87V-400ZM340-640q-25 0-42.5-17.5T280-700q0-25 17.5-42.5T340-760q25 0 42.5 17.5T400-700q0 25-17.5 42.5T340-640Zm-20 477.13h40V-240h-40v77.13Zm120 0h357.13v-150.912H480v51.152q0 9.195-6.717 15.913Q466.565-240 457.37-240H440v77.13ZM470-641q-15-19-22.5-38t-7.5-39v-12q1-13 10.5-21.5T474-760q11 0 19 9t7 21v12q0 11 4.5 21.5T520-674q18 22 26 41.5t8 40.5q0 14-10 23t-24 9q-12 0-19.5-9.5T493-592q0-12-4.5-22T470-641Zm100 0q-15-19-22.5-38t-7.5-39v-12q1-13 10.5-21.5T574-760q11 0 19 9t7 21v12q0 11 4.5 21.5T620-674q18 22 26 41.5t8 40.5q0 14-10 23t-24 9q-12 0-19.5-9.5T593-592q0-12-4.5-22T570-641Zm102 0q-15-19-22.5-38t-7.5-39v-12q1-13 10.5-21.5T676-760q11 0 19 9t7 21v12q0 11 4.5 21.5T722-674q18 22 26 41.5t8 40.5q0 14-10 23t-24 9q-12 0-19.5-9.5T695-592q0-12-4.5-22T672-641Z"/></svg>