<svg xmlns="http://www.w3.org/2000/svg" height="24" viewBox="0 -960 960 960" width="24"><path d="M202.87-111.869q-37.783 0-64.392-26.609-26.609-26.609-26.609-64.392v-554.26q0-37.783 26.609-64.392 26.609-26.609 64.392-26.609h554.26q37.783 0 64.392 26.609 26.609 26.609 26.609 64.392v554.26q0 37.783-26.609 64.392-26.609 26.609-64.392 26.609H202.87ZM520-295.696l237.13-236.891V-757.13H202.87v458.565L327.935-423.63q13.761-13.674 32.108-13.674 18.348 0 32.022 13.674L520-295.696ZM510-477.13q-13 0-21.5-8.5t-8.5-21.5v-180q0-13 8.5-21.5t21.5-8.5q13 0 21.5 8.5t8.5 21.5v180q0 13-8.5 21.5t-21.5 8.5Zm98-120 51 76q9 14 1 29t-25 15q-7 0-13-3.5t-10-9.5l-72-107 72-107q4-6 10-9.5t13-3.5q17 0 25.5 15t-1.5 29l-51 76Zm-268 60h70q13 0 21.5 8.5t8.5 21.5q0 13-8.5 21.5t-21.5 8.5H310q-13 0-21.5-8.5t-8.5-21.5v-90q0-13 8.5-21.5t21.5-8.5h70v-30h-70q-13 0-21.5-8.5t-8.5-21.5q0-13 8.5-21.5t21.5-8.5h100q13 0 21.5 8.5t8.5 21.5v90q0 13-8.5 21.5t-21.5 8.5h-70v30Zm20 186.695L212.435-202.87H757.13v-227.565l-206.5 206.5q-13.76 13.674-32.108 13.674T486.5-223.935L360-350.435ZM202.87-202.87v-554.26 554.26Z"/></svg>