<svg xmlns="http://www.w3.org/2000/svg" height="24" viewBox="0 -960 960 960" width="24"><path d="M202.87-111.869q-37.538 0-64.269-26.732-26.732-26.731-26.732-64.269v-554.26q0-37.538 26.732-64.269 26.731-26.732 64.269-26.732h554.26q8.479 0 17.272 1.74 8.794 1.739 16.75 5.217l-84.043 84.044H202.87v554.26h554.26v-260.26l91.001-91.001v351.261q0 37.538-26.732 64.269-26.731 26.732-64.269 26.732H202.87Zm260.043-287.066 341.674-341.674q11.717-11.717 28.401-11.717 16.683 0 29.195 11.717 12.513 11.718 12.513 29.336 0 17.619-12.478 30.055l-367.24 367.24q-13.761 13.674-32.108 13.674-18.348 0-32.022-13.674L266.109-478.717q-11.718-11.718-11.718-29.196t11.718-29.196q11.717-11.717 29.195-11.717 17.479 0 29.196 11.717l138.413 138.174Z"/></svg>