<svg xmlns="http://www.w3.org/2000/svg" height="24" viewBox="0 -960 960 960" width="24"><path d="M152.587-480q0 56.478 17.119 106.457 17.12 49.978 49.12 90.934 11.717 15.196 11.717 33.25 0 18.055-13.195 31.25-13.196 13.196-31.511 12.457-18.316-.739-30.033-15.696-42.956-53.674-66.674-119.087Q65.413-405.848 65.413-480T89.13-620.065q23.718-65.913 66.674-118.826 11.717-14.957 30.033-15.577 18.315-.619 31.511 12.577 13.195 13.195 13.195 31.25 0 18.054-11.717 33.25-32 41.717-49.12 91.695Q152.587-535.717 152.587-480Zm163.826 0q0 22.761 5.761 43.261 5.761 20.5 16.282 38.5 9.479 15.435 8.859 33.869-.619 18.435-13.576 31.392-13.196 13.196-31.391 12.576-18.196-.62-28.153-15.576-21.478-30.435-33.337-67.392Q229-440.326 229-480q0-40.435 11.858-77.13 11.859-36.696 33.337-66.892 10.479-14.956 28.414-15.196 17.934-.239 31.13 12.957 12.957 12.957 13.576 31.011.62 18.054-8.859 33.489-10.521 18-16.282 38.5-5.761 20.5-5.761 43.261ZM480-392.587q-36.109 0-61.761-25.652T392.587-480q0-36.109 25.652-61.761T480-567.413q36.109 0 61.761 25.652T567.413-480q0 36.109-25.652 61.761T480-392.587ZM643.587-480q0-22.761-5.761-43.38Q632.065-544 621.304-562q-9.478-15.435-8.358-33.75 1.119-18.315 14.076-31.272 13.196-13.196 30.63-12.576 17.435.62 28.153 15.576 21.478 30.196 33.337 66.892Q731-520.435 731-480q0 39.674-11.858 76.63-11.859 36.957-33.337 67.392-9.957 14.956-28.153 15.196-18.195.239-31.391-12.957-12.957-12.957-13.696-30.891-.739-17.935 8.739-33.37 10.761-18 16.522-38.62 5.761-20.619 5.761-43.38Zm163.826 0q0-56.717-17.239-106.815t-49.239-91.055q-11.717-15.195-11.859-33.13-.141-17.935 12.815-30.891 13.196-13.196 32.011-12.577 18.816.62 30.533 15.577 42.957 52.913 66.554 118.826Q894.587-554.152 894.587-480t-23.598 139.565q-23.597 65.413-66.554 119.087-11.717 14.957-30.152 15.696-18.435.739-31.631-12.457-12.956-12.956-13.195-30.891-.239-17.935 11.478-33.13 32-41.718 49.239-91.935Q807.413-424.283 807.413-480Z"/></svg>