<svg xmlns="http://www.w3.org/2000/svg" height="24" viewBox="0 -960 960 960" width="24"><path d="M618.087-518.087q25.956 0 43.935-17.978Q680-554.043 680-580t-17.978-43.935q-17.979-17.978-43.816-17.978-25.836 0-43.815 18.041-17.978 18.042-17.978 43.816 0 25.773 17.988 43.871 17.988 18.098 43.686 18.098Zm-276.293 0q25.836 0 43.815-18.041 17.978-18.042 17.978-43.816 0-25.773-17.988-43.871-17.988-18.098-43.686-18.098-25.956 0-43.935 17.978Q280-605.957 280-580t17.978 43.935q17.979 17.978 43.816 17.978Zm50.119 180h176.174q13.829 0 22.871-9.042Q600-356.171 600-370q0-13.829-9.042-22.871-9.042-9.042-22.871-9.042H391.913q-13.829 0-22.871 9.042Q360-383.829 360-370q0 13.829 9.042 22.871 9.042 9.042 22.871 9.042ZM479.98-71.869q-84.654 0-159.089-32.098t-129.63-87.294q-55.196-55.195-87.294-129.65-32.098-74.455-32.098-159.109 0-84.654 32.098-159.089t87.294-129.63q55.195-55.196 129.65-87.294 74.455-32.098 159.109-32.098 84.654 0 159.089 32.098t129.63 87.294q55.196 55.195 87.294 129.65 32.098 74.455 32.098 159.109 0 84.654-32.098 159.089t-87.294 129.63q-55.195 55.196-129.65 87.294-74.455 32.098-159.109 32.098Z"/></svg>