<svg xmlns="http://www.w3.org/2000/svg" height="24" viewBox="0 -960 960 960" width="24"><path d="M720-720q17 0 28.5-11.5T760-760q0-17-11.5-28.5T720-800q-17 0-28.5 11.5T680-760q0 17 11.5 28.5T720-720Zm0 560q17 0 28.5-11.5T760-200q0-17-11.5-28.5T720-240q-17 0-28.5 11.5T680-200q0 17 11.5 28.5T720-160Zm0-600Zm0 560ZM240-40q-83 0-141.5-58.5T40-240q0-83 58.5-141.5T240-440q83 0 141.5 58.5T440-240q0 83-58.5 141.5T240-40ZM113.348-488.935q3.804-49.304 39.815-83.891 36.011-34.587 86.837-34.587 24.269 0 46.428 8.978t39.876 24.935l270.283-157.304q-2-6.479-3-14.223-1-7.745-1-14.973 0-53.089 37.166-90.251 37.166-37.162 90.261-37.162t90.247 37.166q37.152 37.166 37.152 90.261t-37.162 90.247Q773.089-632.587 720-632.587q-24.269 0-46.428-8.739t-39.876-24.696L363.413-509.196q1.239 5.674 1.859 10.37.619 4.696 1.38 9.891-28.434-14.913-60.348-22.989Q274.391-520 240-520q-34.391 0-66.304 8.076-31.914 8.076-60.348 22.989ZM719.986-72.587q-53.095 0-90.247-37.162T592.587-200q0-7.228 1-14.973 1-7.744 3-14.223l-79.109-45.695q-3.761-29.631-13.337-56.663-9.576-27.033-24.25-51.468l153.805 89.044q17.717-15.957 39.876-24.696T720-327.413q53.089 0 90.251 37.166 37.162 37.166 37.162 90.261t-37.166 90.247q-37.166 37.152-90.261 37.152ZM239.761-206.739l53.369 54.13q7.109 7.196 16.587 7.196 9.479 0 16.674-7.196 7.196-7.195 7.196-17.011 0-9.815-7.196-17.01l-53.13-53.131 54.369-54.369q7.196-7.109 7.196-16.587 0-9.479-7.196-16.674-7.195-7.196-16.673-7.196-9.479 0-16.587 7.196l-54.131 54.13-54.369-54.369q-7.109-7.196-16.587-7.196-9.479 0-16.674 7.196-7.196 7.195-7.196 16.673 0 9.479 7.196 16.587l54.13 54.131-54.369 54.369q-7.196 7.109-7.196 16.587 0 9.479 7.196 16.674 7.195 7.196 16.673 7.196 9.479 0 16.587-7.196l54.131-54.13Z"/></svg>