<svg xmlns="http://www.w3.org/2000/svg" height="24" viewBox="0 -960 960 960" width="24"><path d="M242.87-71.87q-37.783 0-64.392-26.608-26.609-26.609-26.609-64.392v-470.434q0-37.783 26.609-64.392 26.609-26.608 64.392-26.608h71.63q.717-67.914 49.152-115.87Q412.087-888.131 480-888.131t116.348 47.957q48.435 47.956 49.152 115.87h71.63q37.783 0 64.392 26.608 26.609 26.609 26.609 64.392v470.434q0 37.783-26.609 64.392Q754.913-71.87 717.13-71.87H242.87Zm162.869-652.434h148.522q-.718-30.131-22.305-51.479Q510.37-797.13 480-797.13q-30.37 0-51.956 21.347-21.587 21.348-22.305 51.479Zm194.261 211q19.152 0 32.326-13.174t13.174-32.326v-74.5h-91v74.5q0 19.152 13.174 32.326T600-513.304Zm-240 0q19.152 0 32.326-13.174t13.174-32.326v-74.5h-91v74.5q0 19.152 13.174 32.326T360-513.304Z"/></svg>