<svg xmlns="http://www.w3.org/2000/svg" height="24" viewBox="0 -960 960 960" width="24"><path d="M115.935-31.87q-34.674 0-59.37-24.695-24.696-24.696-24.696-59.37v-728.13q0-34.913 24.696-59.49 24.696-24.576 59.37-24.576h728.13q34.913 0 59.49 24.576 24.576 24.577 24.576 59.49v728.13q0 34.674-24.576 59.37-24.577 24.696-59.49 24.696h-728.13Zm543.282-207.173h-57.065q-18.435 0-31.011 12.576t-12.576 31.011q0 18.434 12.576 31.011 12.576 12.576 31.011 12.576H762.63q19.153 0 32.327-13.174t13.174-32.327v-160q0-18.434-12.576-31.01-12.577-12.577-31.011-12.577-18.435 0-31.131 12.577-12.696 12.576-12.696 31.01v54.826L598.304-424.239l-62.261 62.022 123.174 123.174Zm61.608-420.413v56.826q0 18.434 12.665 31.13 12.665 12.696 31.054 12.696 18.434 0 31.011-12.576 12.576-12.577 12.576-31.011V-762.63q0-19.153-13.174-32.327t-32.327-13.174H602.391q-18.434 0-31.13 12.576-12.696 12.577-12.696 31.011 0 18.435 12.576 31.131 12.576 12.696 31.011 12.696h57.065L182.114-243.608q-11.81 11.804-11.929 30.238-.12 18.435 12.076 30.631 12.195 12.435 30.63 12.315 18.435-.119 30.631-12.315l477.303-476.717Zm-357.173 124.13 61.5-61.261-181.63-181.152q-12.435-12.196-30.536-12.196-18.1 0-30.486 12.435-12.196 12.435-12.196 30.63 0 18.196 12.196 30.392l181.152 181.152Z"/></svg>