<svg xmlns="http://www.w3.org/2000/svg" height="24" viewBox="0 -960 960 960" width="24"><path d="m742.87-155.348-52.174 51.413Q678.022-91.261 659.37-91q-18.653.261-32.327-13.174Q614.13-116.848 614.13-136t12.913-32.065L678.978-220l-52.174-52.174q-12.913-12.913-12.793-31.946.119-19.032 13.032-31.945 12.914-12.913 31.946-12.913 19.033 0 31.946 12.913l51.935 52.174 52.173-52.174q12.914-12.913 31.566-13.174 18.652-.261 32.326 13.413 12.674 12.674 12.674 31.826t-12.674 31.826L807.522-220l51.413 52.174q12.674 12.674 13.054 31.326.381 18.652-13.293 32.326Q846.022-91.5 826.87-91.38q-19.153.12-31.827-12.555l-52.173-51.413Zm-292.783 22.414L63.391-533.739q-12.478-12.957-18.597-28.913-6.12-15.957-6.12-32.152 0-18.435 7.478-35.37t22.435-30.13q82.957-70.283 193.326-107.022Q372.283-804.065 480-804.065q107.717 0 218.087 36.739 110.369 36.739 193.326 107.022 14.957 13.195 22.435 30.13 7.478 16.935 7.478 35.37 0 16.195-6.12 32.152-6.119 15.956-18.597 28.913l-75.283 76.717q-18.435-5.956-38.108-9.435-19.674-3.478-40.348-3.478-103.87 0-176.903 72.652Q492.935-324.63 492.935-220q0 23.304 4.554 45.131 4.554 21.826 12.424 41.935Q498.196-120.5 480-120.5q-18.196 0-29.913-12.434Z"/></svg>