<svg xmlns="http://www.w3.org/2000/svg" height="24" viewBox="0 -960 960 960" width="24"><path d="M678.565-111.869q-16.39 0-27.477-11.088Q640-134.044 640-150.435v-122.869q0-16.39 11.088-27.478 11.087-11.087 27.477-11.087H680v-40q0-33 23.5-56.5t56.5-23.5q33 0 56.5 23.5t23.5 56.5v40h1.435q16.39 0 27.477 11.087Q880-289.694 880-273.304v122.869q0 16.391-11.088 27.478-11.087 11.088-27.477 11.088h-162.87Zm41.435-200h80v-40q0-17-11.5-28.5t-28.5-11.5q-17 0-28.5 11.5t-11.5 28.5v40ZM419.413-164.804 63.391-533.739q-12.478-12.957-18.597-28.913-6.12-15.957-6.12-32.19 0-18.397 7.478-35.363 7.478-16.965 22.435-30.099 82.957-70.283 193.326-107.022Q372.283-804.065 480-804.065q107.717 0 218.087 36.739 110.369 36.739 193.326 107.022 14.957 13.134 22.435 30.099 7.478 16.966 7.478 35.363 0 16.233-6.12 32.19-6.119 15.956-18.597 28.913l-40.239 41.674q-20.779-9.522-44.031-14.283-23.252-4.761-47.774-5.521-4.783 0-9.207.717T746.63-509l83.261-86.848q-76.13-57.608-165.482-87.413-89.351-29.804-184.467-29.804-95.116 0-184.409 29.804-89.294 29.805-165.424 87.413L480-235.196l40.957-42.391q-.479 2.63-.718 5.141t-.239 5.142q.761 26.913 6.598 52.087 5.837 25.174 17.032 47.369l-3.043 3.044q-12.478 13.196-28.054 19.674-15.576 6.478-32.533 6.478t-32.533-6.478q-15.576-6.478-28.054-19.674ZM480-474.13Z"/></svg>