<svg xmlns="http://www.w3.org/2000/svg" height="24" viewBox="0 -960 960 960" width="24"><path d="m721.544-352.935-64.892-64.652 173.239-178.261q-75.938-57.648-165.333-87.432Q575.163-713.065 480-713.065q-27.565 0-54.812 2.804-27.246 2.805-54.492 7.479l-75.087-75.088q45.478-12.717 91.195-19.456 45.718-6.739 93.196-6.739 124.493 0 238.529 43.978T925.37-631.109q14.195 12.435 14.934 31.729.739 19.293-12.456 32.967L721.544-352.935ZM480-235.196l62.935-63.847-342.348-342.348q-18.369 9.804-35.739 21.511-17.369 11.706-34.739 24.032L480-235.196ZM796.5-46.478 607.826-234.913l-95.043 98.87Q499.109-121.652 480-121.652t-32.783-14.391L32.152-566.413q-13.196-13.674-12.837-33.348T33.87-631.87q23.847-21.565 49.054-40.608 25.206-19.044 51.772-34.805l-89.979-89.978Q32.24-809.739 32.62-826.576q.38-16.837 12.884-29.315Q58.007-868.37 75.2-868.37t29.67 12.479l751.022 751.022q12.479 12.521 12.479 29.217 0 16.696-12.504 29.174Q843.363-34 826.171-34q-17.193 0-29.671-12.478ZM513.674-560.565Zm-141.913 90.348Z"/></svg>