<svg xmlns="http://www.w3.org/2000/svg" height="24" viewBox="0 -960 960 960" width="24"><path d="M409.848-176.043 63.391-533.739q-13.478-13.957-19.337-30.511-5.858-16.554-4.62-34.511 1.24-17.956 7.838-34.033 6.598-16.076 21.315-28.271 82.196-70.283 192.946-106.642Q372.283-804.065 480-804.065q125.478 0 234.957 42.554 109.478 42.554 203 124.511 8.76 8 13.141 17.5 4.38 9.5 4.619 20.5.24 11-3.141 21.12-3.38 10.119-11.38 18.119-28-35.282-69.261-56.804-41.261-21.522-89.783-21.522-83.239 0-141.739 58.381-58.5 58.38-58.5 141.619 0 50.435 23.076 93.011 23.076 42.576 60.989 70.098l-96.065 98.935q-14.391 15.347-32.358 22.902-17.968 7.554-37.555 7.554t-37.674-7.554q-18.087-7.555-32.478-22.902Zm352.782 25.13q-17.956 0-30.934-12.859-12.979-12.858-12.979-30.815 0-17.956 12.979-30.935Q744.674-238.5 762.63-238.5q17.957 0 30.816 12.978 12.858 12.979 12.858 30.935 0 17.957-12.858 30.815-12.859 12.859-30.816 12.859Zm118.87-302.5q0 23-10.478 41.478-10.478 18.479-39.435 47.435-15.804 15.804-23.185 26.804-7.38 11-9.619 24.522-2.479 12.718-12.576 21.696-10.098 8.978-22.816 8.978-13.956 0-23.315-9.598-9.359-9.598-7.359-22.315 3.24-23.239 14.24-40.478t36.521-43.239q20.761-20.761 27-31.381 6.239-10.619 6.239-25.902 0-17.761-13.282-30.424-13.283-12.663-35.326-12.663-15.239 0-28.761 6.881-13.522 6.88-23.044 19.402-7.478 9.478-18.576 13.598-11.098 4.119-22.576-.881-11.717-5.239-17.576-15.956-5.859-10.718.381-21.196 16.239-28.239 44.978-44.837 28.739-16.598 64.935-16.598 49.478 0 81.554 29.12 32.076 29.119 32.076 75.554Z"/></svg>