<svg xmlns="http://www.w3.org/2000/svg" height="24" viewBox="0 -960 960 960" width="24"><path d="M522.87-440.696V-562.63q0-17.957-12.337-30.294t-30.294-12.337q-17.956 0-30.413 12.337-12.456 12.337-12.456 30.294v121.934l-32.174-31.174q-11.957-11.717-29.413-11.837-17.457-.119-30.174 12.598-11.957 11.957-11.957 29.913 0 17.957 11.957 29.913l102.326 102.326q13.674 13.674 32.065 13.674t32.065-13.674l102.326-102.326q11.957-11.956 12.337-29.532.381-17.576-12.337-30.294-11.956-11.956-29.532-12.217-17.576-.261-30.294 11.696l-31.695 30.934Zm-280 368.827q-37.783 0-64.392-26.61-26.609-26.608-26.609-64.391v-442.934q0-18.153 6.837-34.685 6.837-16.533 19.511-29.207l192.087-192.087q12.674-12.674 29.207-19.511 16.532-6.837 34.685-6.837H717.13q37.783 0 64.392 26.609 26.609 26.609 26.609 64.392v634.26q0 37.783-26.609 64.392Q754.913-71.87 717.13-71.87H242.87Z"/></svg>