<svg xmlns="http://www.w3.org/2000/svg" height="24" viewBox="0 -960 960 960" width="24"><path d="M480-360q16.187 0 27.137-10.95t10.95-27.137v-163.826q0-16.187-10.95-27.137T480-600q-16.187 0-27.137 10.95t-10.95 27.137v163.826q0 16.187 10.95 27.137T480-360Zm108.087 0q13 0 21.5-8.5t8.5-21.5v-50h100q17 0 28.5-11.5t11.5-28.5v-80q0-17-11.5-28.5t-28.5-11.5h-137.37q-9.195 0-15.913 6.717-6.717 6.718-6.717 15.913V-390q0 13 8.5 21.5t21.5 8.5Zm-356.174 0h130q17 0 28.5-11.5t11.5-28.5v-70q0-17-11.5-28.5t-28.5-11.5h-100v-30h110q13 0 21.5-8.5t8.5-21.5q0-13-8.5-21.5t-21.5-8.5h-130q-17 0-28.5 11.5t-11.5 28.5v70q0 17 11.5 28.5t28.5 11.5h100v30h-110q-13 0-21.5 8.5t-8.5 21.5q0 13 8.5 21.5t21.5 8.5Zm386.174-140v-40h80v40h-80ZM162.87-151.869q-37.783 0-64.392-26.609Q71.87-205.087 71.87-242.87v-474.26q0-37.783 26.61-64.392 26.608-26.609 64.391-26.609h634.26q37.783 0 64.392 26.609 26.609 26.609 26.609 64.392v474.26q0 37.783-26.609 64.392-26.609 26.609-64.392 26.609H162.87Z"/></svg>