<svg xmlns="http://www.w3.org/2000/svg" height="24" viewBox="0 -960 960 960" width="24"><path d="m430.544-330.717 188.304-120.696q15.913-10.196 15.913-28.587t-15.913-28.587L430.544-629.283q-16.914-11.195-34.685-1.5-17.772 9.696-17.772 30.087v241.392q0 20.391 17.772 30.087 17.771 9.695 34.685-1.5ZM118.609-440q19.152 0 34.445 12.315 15.294 12.315 21.011 31.468 5.283 19.891 12.587 37.641 7.305 17.75 16.87 35.119 9.717 17.153 7.978 36.424-1.739 19.272-15.413 32.946-12.674 12.674-30.826 11.674t-28.109-15.913q-20.804-30.522-35.446-65.185-14.64-34.663-22.64-71.467-3.718-17.913 8.336-31.468Q99.456-440 118.609-440Zm77.478-266.152q13.674 13.674 15.033 33.065 1.358 19.391-7.598 35.783-9.565 17.369-16.87 35.5-7.304 18.13-12.587 37.782-5.956 19.152-21.011 31.587Q138-520 118.609-520q-19.153 0-31.087-14.174-11.935-14.174-7.457-32.087 8-36.565 22.522-71.228 14.522-34.663 34.565-64.946 9.957-14.913 28.109-15.652 18.152-.739 30.826 11.935Zm56 509.065q13.674-14.435 33.207-15.913 19.532-1.478 36.924 8.239 17.369 9.565 35.239 17.25 17.869 7.685 36.999 12.967 19.153 5.718 31.587 20.75 12.435 15.033 12.435 34.424 0 19.153-14.054 30.707-14.054 11.554-31.968 7.837-36.804-8-70.065-22.641-33.261-14.642-64.543-33.924-15.674-9.957-17.055-28.109-1.38-18.152 11.294-31.587ZM440-840.63q0 19.391-11.815 34.304-11.815 14.913-30.968 20.63-19.891 5.283-38.021 12.587-18.131 7.305-35.5 17.631-17.392 9.717-37.163 7.978-19.772-1.739-33.685-15.652-13.674-13.674-12.055-32.207 1.62-18.532 17.533-28.489 31.044-19.283 64.946-33.424 33.902-14.141 70.706-22.141 17.913-3.718 31.968 7.956Q440-859.783 440-840.63ZM797.13-480q0-110.609-67.467-195.793-67.467-85.185-172.837-112.142-16.913-4.956-26.869-19.75Q520-822.478 520-840.63q0-18.153 11.957-30.327 11.956-12.174 27.869-8.695 142.152 28.956 235.229 140.108Q888.131-628.391 888.131-480q0 148.391-93.076 259.544-93.077 111.152-235.229 140.108-15.913 3.479-27.869-8.695Q520-101.217 520-119.37q0-18.152 9.957-32.945 9.956-14.794 26.869-19.75 105.37-26.957 172.837-112.142Q797.13-369.391 797.13-480Z"/></svg>