<svg xmlns="http://www.w3.org/2000/svg" height="24" viewBox="0 -960 960 960" width="24"><path d="M102.957-245.5h218.239q29.891 0 51-20.75 21.108-20.75 21.108-49.924l-101.63-30.848L102.957-245.5Zm851.587 5.5q0 6.957-2.24 13.674-2.239 6.717-5.717 12.435-16.957 27.195-44.815 43.293-27.859 16.098-60.576 16.098h-200q-19.153 0-32.326-13.174-13.174-13.174-13.174-32.326t13.174-32.326q13.173-13.174 32.326-13.174h63.608l-69-69H486.218q0 66.718-49.033 113.359Q388.152-154.5 321.196-154.5h-240q-40.63 0-63.066-26.793Q-4.304-208.087-4.304-240q0-21.435 10.717-41.63 10.717-20.196 34.152-33.153l128.283-69.782-96.978-28.978q-30.827-8.957-43.761-38.044-12.935-29.087 1.739-57.674l26.848-54.456q9.434-19.153 28.587-29.087 19.152-9.935 40.543-7.696l313.696 34.761 117.934-88.131-26.978-24.217h-51.195q-18.435 0-31.011-12.696-12.576-12.695-12.576-31.13t12.695-31.011q12.696-12.576 31.131-12.576h50.282q17.153 0 33.185 5.837 16.033 5.837 28.468 18.272l260.326 242.326q19.956 17.956 27.435 35.413 7.478 17.456 7.478 33.652 0 42.761-33.359 76.739t-96.772 36.848l75.718 70.913h5.804q9.043 0 17.206-3.902t12.685-11.185q6.718-10.957 17.294-17.935 10.576-6.978 23.011-6.978 19.152 0 32.706 13.174 13.555 13.174 13.555 32.326Z"/></svg>