<svg xmlns="http://www.w3.org/2000/svg" height="24" viewBox="0 -960 960 960" width="24"><path d="M291.826-116.174q-92.674 0-157.75-65.076T69-339q0-87.913 58.935-151.728 58.934-63.816 146.847-70.337l-127.934-256.87q-11.435-22.869 1.739-44.38 13.174-21.511 39.043-21.511h158.826q26.109 0 47.479 13.674 21.369 13.674 33.565 36.543l52.5 105 52.5-105q12.196-22.869 33.565-36.543 21.37-13.674 47.479-13.674H772.37q25.869 0 39.043 21.511t1.739 44.38l-126.934 254.87q87.152 7.521 145.967 71.337Q891-427.913 891-340q0 93.435-65.195 158.63-65.196 65.196-158.631 65.196-10.196 0-20.772-.859-10.576-.858-20.772-3.097 56.914-34.805 87.555-93.74 30.641-58.934 30.641-126.13 0-110.435-76.696-187.13-76.695-76.696-187.13-76.696T292.87-527.13Q216.174-450.435 216.174-340q0 68.957 28.359 129.794 28.358 60.836 89.076 90.076-10.196 2.478-20.892 3.217-10.695.739-20.891.739Zm188.174-40q-76.435 0-130.13-53.696-53.696-53.695-53.696-130.13t53.696-130.13q53.695-53.696 130.13-53.696t130.13 53.696q53.696 53.695 53.696 130.13T610.13-209.87Q556.435-156.174 480-156.174Zm0-131.022 44.456 33.652q6.718 5.479 13.555.5 6.837-4.978 4.598-12.934l-17.326-55.5L569.5-353.13q6.717-5.479 4.359-12.935-2.359-7.457-11.077-7.457h-54.26l-17.326-59.021Q488.717-440.5 480-440.5q-8.717 0-11.196 7.957l-17.326 59.021h-54.26q-8.718 0-11.077 7.457-2.358 7.456 4.359 12.935l44.217 31.652-17.326 55.5q-2.239 7.956 4.598 12.934 6.837 4.979 13.555-.5L480-287.196Z"/></svg>