<svg xmlns="http://www.w3.org/2000/svg" height="24" viewBox="0 -960 960 960" width="24"><path d="M669.544-669.304q-44-44-70.62-98.881-26.62-54.88-33.859-115.88-2.239-18.196 10.226-30.772 12.465-12.576 30.891-12.576 18.427 0 31.264 12.217 12.837 12.218 15.554 30.652 6.479 43.326 26.62 83.011 20.141 39.685 51.304 70.968 31.163 31.282 70.728 51.304 39.566 20.022 82.892 27.261 18.434 2.717 30.652 15.182 12.217 12.465 12.217 30.891 0 18.427-12.456 30.883-12.457 12.457-30.653 10.218-60.76-7.239-115.76-33.805-55-26.565-99-70.673Zm114.869-114.764q-21.282-21.389-35.163-47.171-13.88-25.783-19.359-54.826-3.478-16.196 8.598-28.772 12.076-12.576 30.511-12.576 17.626 0 30.846 11.576 13.22 11.576 20.133 28.533 4.37 11.596 10.489 21.95 6.119 10.354 15.206 19.56 9.087 9.207 19.054 14.989 9.968 5.783 21.576 10.065 16.957 6.914 29.033 20.229t12.076 31.75q0 18.435-13.076 30.63-13.076 12.196-30.272 8.479-28.282-6.239-53.326-20.12-25.043-13.88-46.326-34.296ZM395.337-448.37q-69.707 0-118.979-49.272-49.271-49.271-49.271-118.858t49.271-118.859q49.272-49.272 118.859-49.272 69.587 0 118.859 49.272 49.272 49.272 49.272 118.859 0 69.587-49.152 118.858-49.153 49.272-118.859 49.272ZM67.087-203.348v-29.369q0-36.587 19.272-67.261 19.271-30.674 49.271-45.674 51-26 116.794-44.359 65.793-18.359 142.793-18.359t142.794 18.12q65.793 18.119 116.793 44.119 30 15 49.272 45.913 19.272 30.914 19.272 67.501v29.369q0 37.783-26.609 64.392-26.609 26.608-64.391 26.608H158.087q-37.783 0-64.392-26.608-26.608-26.609-26.608-64.392Zm91 0h474.261v-28.174q0-11-5.5-19.641-5.5-8.641-14.5-13.641-36-18-92.022-35.283-56.022-17.283-125.109-17.283-69.087 0-125.108 17.403-56.022 17.402-92.022 35.215-9 4.948-14.5 13.589t-5.5 19.641v28.174ZM395.209-539.37q31.813 0 54.476-22.655 22.663-22.654 22.663-54.467t-22.655-54.476q-22.654-22.663-54.467-22.663t-54.476 22.655q-22.663 22.654-22.663 54.467t22.654 54.476q22.655 22.663 54.468 22.663Zm.008-77.13Zm0 413.152Z"/></svg>