<svg xmlns="http://www.w3.org/2000/svg" height="24" viewBox="0 -960 960 960" width="24"><path d="M418-340q23.885 24 61.703 23.5Q517.522-317 536-344l164.935-245.109q10.435-15.913-2.739-29.087t-29.087-2.739L424-456q-27 18.478-28.5 55.298Q394-363.883 418-340Zm62-468.131q34.804 0 68.967 5.642 34.163 5.641 66.685 17.684 18.152 6.24 34 24.653 15.848 18.413 6.891 35.326-8.956 16.913-36.478 22.989-27.522 6.076-46.674.076-22.848-7.804-46.076-11.587-23.228-3.782-47.315-3.782-131.326 0-224.228 92.661Q162.87-531.807 162.87-400q0 42 11.26 81.685 11.261 39.685 31.783 75.445h548.174q23-38 33.022-77.565Q797.13-360 797.13-404q0-23.709-3.782-46.507-3.783-22.797-11.587-45.123-6-19.392-1.163-37.903 4.837-18.51 20.945-30.763 14.957-11.139 32.609-6.661 17.653 4.479 24.131 20.631 14.074 34.69 21.58 70.867 7.507 36.176 8.268 73.459.76 57.717-13.483 110.87-14.243 53.153-41.713 101.195-12.435 20.153-33.206 31.109-20.771 10.957-43.729 10.957H204q-22.913 0-44.065-11.196-21.153-11.196-32.87-30.87-26.239-45.717-40.717-97.413-14.479-51.695-14.479-108.659 0-84.428 32.116-158.459 32.116-74.032 87.682-129.683 55.565-55.651 129.993-87.816 74.427-32.166 158.34-32.166Zm11.544 316.587Z"/></svg>