<svg xmlns="http://www.w3.org/2000/svg" height="24" viewBox="0 -960 960 960" width="24"><path d="M480-151.869q-17.813 0-29.863-12.05t-12.05-29.863v-160q0-17.814 12.05-29.864T480-395.696h100q17.813 0 29.863 12.05t12.05 29.864v160q0 17.813-12.05 29.863T580-151.869H480Zm21.913-63.827h56.174v-116.173h-56.174v116.173Zm327.13 137.61h-110q-17.813 0-29.863-12.05-12.05-12.051-12.05-29.864v-66.174q0-17.813 12.05-29.863t29.863-12.05h78.087v-30h-88.087q-13.829 0-22.871-9.042-9.042-9.042-9.042-22.871 0-13.829 9.042-22.871 9.042-9.042 22.871-9.042h110q17.814 0 29.863 12.05 12.051 12.05 12.051 29.863v66.174q0 17.813-12.051 29.863-12.049 12.05-29.863 12.05h-78.086v30h88.086q13.829 0 22.871 9.042 9.043 9.042 9.043 22.871 0 13.829-9.043 22.871-9.042 9.042-22.871 9.042ZM358.087-74.11Q232.935-88.826 152.402-181.64T71.869-403.696q0-67.152 29.24-132.087 29.239-64.934 73.597-123.869 44.359-58.935 96.696-111.011 52.337-52.076 98.011-92.511 6.717-5.717 14.293-8.576 7.577-2.859 16.294-2.859t16.294 2.859q7.576 2.859 14.293 8.576 41.478 36.717 86.674 81.033 45.196 44.315 85.391 93.608 40.196 49.294 71.294 103.087 31.098 53.794 45.38 109.75h-94.239q-20.804-62.043-77.326-135.923Q491.239-685.5 400-769.696 281.239-659.978 222.054-568.815q-59.184 91.163-59.184 164.641 0 91.696 54.424 157.522 54.423 65.826 140.793 80.304v92.24Zm36.391-330.065Z"/></svg>