<svg xmlns="http://www.w3.org/2000/svg" height="24" viewBox="0 -960 960 960" width="24"><path d="m511.239-474.022-18 363.674q-1 17.435-13.695 29.392Q466.848-69 445.413-69q-17.435 0-29.891-11.956-12.457-11.957-13.696-29.392l-17.761-323.195L255.391-507.5l-12.565 46.022 60.522 105.565q8.717 15.435 3.978 32.75-4.739 17.315-20.174 26.272-15.435 8.717-32.989 4.358-17.554-4.358-26.272-19.793L158.13-432.609q-4.717-7.956-5.956-17.032-1.239-9.076 1.239-18.272l43.478-156.478 227.131-130.326-78.652-78.892q-12.196-12.195-12.577-30.011-.38-17.815 12.816-31.01 12.195-12.196 30.391-12.196 18.196 0 30.391 12.196l117.326 116.326q16.153 15.913 13.174 38.043-2.978 22.131-22.369 33.565l-92.304 53.174 49.434 41.044L769.5-855.804q12.196-10.957 29.011-9.218 16.815 1.739 30.011 17.174 9.957 11.957 9.337 27.272-.62 15.315-11.576 27.033L511.239-474.022Zm-319.37-204.065q-34.434 0-59.13-24.696-24.696-24.695-24.696-59.13t24.696-59.011q24.696-24.576 59.13-24.576 34.435 0 59.011 24.576t24.576 59.011q0 34.435-24.576 59.13-24.576 24.696-59.011 24.696Z"/></svg>