<svg xmlns="http://www.w3.org/2000/svg" height="24" viewBox="0 -960 960 960" width="24"><path d="M115.217-723.957v-92.652q0-12.435 10.816-19.272 10.815-6.837 22.25-1.119l91.891 46.326q12.435 5.956 12.435 20.391 0 14.435-12.435 20.392l-91.891 46.326q-11.435 5.717-22.25-1.12-10.816-6.837-10.816-19.272Zm607.413 0v-92.652q0-12.435 10.816-19.272 10.815-6.837 22.25-1.119l91.891 46.326q12.435 5.956 12.435 20.391 0 14.435-12.435 20.392l-91.891 46.326q-11.435 5.717-22.25-1.12-10.816-6.837-10.816-19.272Zm-286.695-41.435v-92.652q0-12.435 10.815-19.271 10.815-6.837 22.25-1.12l91.891 46.326q12.435 5.957 12.435 20.391 0 14.435-12.435 20.392L469-745q-11.435 5.717-22.25-1.12t-10.815-19.272ZM331.217-78.195Q222.695-88 146.804-118.054 70.913-148.109 70.913-194.5V-560q0-27.152 32.456-50.446 32.457-23.293 87.892-40.869 55.435-17.576 129.989-27.674 74.554-10.098 158.75-10.098t158.75 10.098q74.554 10.098 129.989 27.674t87.892 40.869q32.456 23.294 32.456 50.446v365.5q0 47.152-76.391 76.848-76.391 29.696-185.152 39.978-10.196 1-17.914-6.217-7.717-7.218-7.717-17.413v-54.87q0-50.956-35.478-86.435-35.478-35.478-86.435-35.478t-86.435 35.478q-35.478 35.479-35.478 86.435v53.631q0 10.956-7.957 18.152-7.956 7.196-18.913 6.196ZM480-523.587q93.413 0 160.924-10.783 67.511-10.782 108.554-24.826-8.131-6.434-80.783-22.663Q596.043-598.087 480-598.087q-116.043 0-188.815 16.228-72.772 16.229-80.663 22.663 41.043 14.044 108.554 24.826Q386.587-523.587 480-523.587Z"/></svg>