<svg xmlns="http://www.w3.org/2000/svg" height="24" viewBox="0 -960 960 960" width="24"><path d="M216-580H82.978q4.24-14.717 10.978-28.054 6.74-13.337 16.218-25.816l154-206q18.196-24.434 48.369-32.293 30.174-7.859 57.609 6.859l28 14q22.196 11.478 34.413 31.674 12.218 20.195 12.218 44.63v77.782l68.26-17.326q31.914-8.239 61.348 7.979 29.435 16.217 40.153 47.13l64.521 195.044 169.283 169.043q20.717 20.718 28.576 44.674 7.859 23.957 7.859 50.674 0 37.957-20.239 67.913-20.24 29.957-52.718 44.674L354-525q-29-27-64-41t-74-14ZM566-75.217q-30.957 0-58.913-11.24-27.957-11.239-51.435-31.956l-324.761-295q-19.717-17.717-32.315-40.054Q85.978-475.804 80.978-500H216q23 0 44.5 8t38.5 25L708.022-75.217H566Z"/></svg>