<svg xmlns="http://www.w3.org/2000/svg" height="24" viewBox="0 -960 960 960" width="24"><path d="M202.913-109q-37.783 0-64.391-26.609-26.609-26.608-26.609-64.391v-315.37q-23.24-22.913-34.902-57.108-11.663-34.196.337-73.674l42-136q8.717-28.392 31.369-47.185Q173.37-848.131 203-848.131h556q29.63 0 51.902 18.174 22.272 18.174 31.75 47.805l42 136q12 39 .218 72.076-11.783 33.076-34.783 57.511V-200q0 37.783-26.609 64.391Q796.87-109 759.087-109H202.913ZM569-562.87q25.565 0 38.848-17.424 13.282-17.423 10.282-39.228L596.37-757.13h-72.5V-612q0 20.043 13.163 34.587Q550.196-562.87 569-562.87Zm-180 0q21.565 0 35.348-14.543Q438.13-591.957 438.13-612v-145.13h-72.5l-21.76 137.608q-3.761 22.326 9.663 39.489Q366.957-562.87 389-562.87Zm-178 0q17.043 0 29.706-12.521 12.664-12.522 15.424-31.087l21.522-150.652h-72.5L165.87-625.283q-5.761 19.283 5.782 40.848Q183.196-562.87 211-562.87Zm540 0q27.804 0 39.728-21.565 11.924-21.565 5.402-40.848L754.848-757.13h-70.5l21.522 150.652q2.76 18.565 15.424 31.087Q733.957-562.87 751-562.87ZM202.913-200h556.174v-273.63q-4.044 1.521-5.304 1.641-1.261.12-2.783.12-25.326 0-46.304-8.403-20.979-8.402-41.696-27.445-18.478 17.043-41.478 26.445-23 9.403-48.522 9.403-26.522 0-50.022-9.403-23.5-9.402-41.978-26.445-17.478 17.043-39.978 26.445-22.5 9.403-48.022 9.403-28.283 0-51.902-9.403-23.62-9.402-42.098-26.445-21.957 20.043-43.054 27.945-21.098 7.903-44.946 7.903-1.522 0-3.543-.12-2.022-.12-4.544-1.641V-200Zm556.174 0H202.913 759.087Z"/></svg>