<svg xmlns="http://www.w3.org/2000/svg" height="24" viewBox="0 -960 960 960" width="24"><path d="M162.87-71.87q-37.783 0-64.392-26.608Q71.87-125.087 71.87-162.87v-394.26q0-37.783 26.61-64.392 26.608-26.609 64.391-26.609h634.26q37.783 0 64.392 26.609 26.609 26.609 26.609 64.392v394.26q0 37.783-26.609 64.392Q834.913-71.87 797.13-71.87H162.87Zm272.434-152 176.348-116.978q10.196-6.768 10.196-19.178 0-12.409-10.196-19.126L435.304-496.13q-11.434-7.957-23.369-1.656Q400-491.486 400-477.739v235.478q0 13.747 11.935 20.047 11.935 6.301 23.369-1.656ZM200-688.131q-17 0-28.5-11.5t-11.5-28.5q0-17 11.5-28.5t28.5-11.5h560q17 0 28.5 11.5t11.5 28.5q0 17-11.5 28.5t-28.5 11.5H200Zm120-120q-17 0-28.5-11.5t-11.5-28.5q0-17 11.5-28.5t28.5-11.5h320q17 0 28.5 11.5t11.5 28.5q0 17-11.5 28.5t-28.5 11.5H320Z"/></svg>