<svg xmlns="http://www.w3.org/2000/svg" height="24" viewBox="0 -960 960 960" width="24"><path d="M480-91.022q-8.957 0-17.033-2.978t-14.793-9.696L340.587-211.283q-12.913-12.913-12.913-31.565t12.674-32.326q13.674-13.674 32.445-13.674 18.772 0 32.446 13.674l29.261 29.261v-156.174q-69-15.435-114.5-71.011-45.5-55.576-45.5-129.293 0-85.392 60.054-145.446Q394.609-807.891 480-807.891q85.391 0 145.446 60.054Q685.5-687.783 685.5-602.391q0 73.717-45.5 129.293-45.5 55.576-114.5 71.011v156.174l30.261-30.022q12.913-12.674 31.446-12.793 18.532-.12 32.206 13.554 12.913 12.913 12.913 31.946 0 19.032-12.913 31.945L511.826-103.696q-6.717 6.718-14.793 9.696-8.076 2.978-17.033 2.978Z"/></svg>