<svg xmlns="http://www.w3.org/2000/svg" height="24" viewBox="0 -960 960 960" width="24"><path d="M357.37-274.5q-85.392 0-145.446-60.054Q151.869-394.609 151.869-480q0-85.391 60.055-145.446Q271.978-685.5 357.37-685.5q73.717 0 129.293 45.5 55.576 45.5 71.011 114.5h156.174l-30.022-30.261q-12.674-12.913-12.794-31.446-.119-18.532 13.555-32.206 12.913-12.913 31.946-12.913 19.032 0 31.945 12.913l107.587 107.587q6.718 6.717 9.696 14.793 2.978 8.076 2.978 17.033t-2.978 17.033q-2.978 8.076-9.696 14.793L748.478-340.587q-12.913 12.913-31.565 12.913t-32.326-12.674q-13.674-13.674-13.674-32.445 0-18.772 13.674-32.446l29.261-29.261H557.674q-15.435 69-71.011 114.5-55.576 45.5-129.293 45.5Z"/></svg>