<svg xmlns="http://www.w3.org/2000/svg" height="24" viewBox="0 -960 960 960" width="24"><path d="M727.413-403.587h-40.717q-17 0-28.5-11.5t-11.5-28.5q0-17 11.5-28.5t28.5-11.5h40.717v-40.717q0-17 11.5-28.5t28.5-11.5q17 0 28.5 11.5t11.5 28.5v40.717h40.718q17 0 28.5 11.5t11.5 28.5q0 17-11.5 28.5t-28.5 11.5h-40.718v40.717q0 17-11.5 28.5t-28.5 11.5q-17 0-28.5-11.5t-11.5-28.5v-40.717ZM514.978-733.413q-52.217 49.326-80.728 114.12-28.511 64.793-28.511 136.25 0 88.91 42.305 166.585 42.304 77.675 118.152 124.958 15.913 10.196 22.011 27.728 6.097 17.533-2.859 34.446-9.208 17.069-26.474 23.328-17.265 6.259-33.418-3.176-98.478-59.956-154.597-159.136-56.12-99.179-56.12-214.973 0-89.804 34.804-170.706 34.805-80.902 98.892-143.141h-88.674q-19.152 0-32.326-13.174t-13.174-32.326q0-19.153 13.174-32.327t32.326-13.174h200.717q19.152 0 32.326 13.174t13.174 32.327v200.717q0 19.152-13.174 32.326t-32.326 13.174q-19.152 0-32.326-13.174t-13.174-32.326v-91.5Z"/></svg>