<svg xmlns="http://www.w3.org/2000/svg" height="24" viewBox="0 -960 960 960" width="24"><path d="m304.587-689.087 45.326-150.217v-44.283q0-19.152 13.174-32.326t32.326-13.174q19.152 0 32.326 13.174t13.174 32.326v34.5h77.174v-34.5q0-19.152 13.174-32.326t32.326-13.174q19.152 0 32.326 13.174t13.174 32.326v39.283l46.326 155.217H304.587ZM69-156.413v-327.174q0-19.152 13.174-32.326t32.326-13.174q19.152 0 32.326 13.174T160-483.587V-440h69.717l1.196-3.587h498.174l1.196 3.587H800v-43.587q0-19.152 13.174-32.326t32.326-13.174q19.152 0 32.326 13.174T891-483.587v327.174q0 37.783-26.609 64.392Q837.783-65.413 800-65.413H567.413q-19.152 0-32.326-13.174t-13.174-32.326v-125.261q0-17.717-12.098-29.815-12.098-12.098-29.815-12.098t-29.815 12.098q-12.098 12.098-12.098 29.815v125.261q0 19.152-13.174 32.326t-32.326 13.174H160q-37.783 0-64.391-26.609-26.61-26.608-26.61-64.391Zm185.913-367.174 25.674-85.5h398.826l25.674 85.5H254.913Z"/></svg>