<svg xmlns="http://www.w3.org/2000/svg" height="24" viewBox="0 -960 960 960" width="24"><path d="M154.022-116.413q-51.674 0-87.63-35.957Q30.434-188.326 30.434-240q0-51.674 35.956-87.63 35.957-35.957 87.631-35.957 8.043 0 15.587 1.141 7.543 1.142 14.826 2.902l163.434-224.913q-14.847-20.043-23.152-44.369-8.304-24.326-8.304-51.174 0-67.674 47.957-115.63 47.956-47.957 115.63-47.957 67.674 0 115.63 47.957 47.957 47.956 47.957 115.63 0 26.848-8.685 51.293-8.684 24.446-23.532 44.489l164.195 224.674q7.283-1.76 14.826-2.902 7.544-1.141 15.587-1.141 51.674 0 87.631 35.957 35.956 35.956 35.956 87.63 0 51.674-35.956 87.63-35.957 35.957-87.631 35.957t-87.63-35.957q-35.957-35.956-35.957-87.63 0-18.283 4.903-35.065 4.902-16.783 14.184-30.783L540.674-527.891q-4.044 1.521-7.587 2.402-3.543.88-7.587 2.402v168.413q34.283 13.196 56.185 44.435Q603.587-279 603.587-240q0 51.674-35.957 87.63-35.956 35.957-87.63 35.957-51.674 0-87.63-35.957-35.957-35.956-35.957-87.63 0-39 21.902-69.859 21.902-30.858 56.185-44.815v-168.413q-4.044-1.522-7.587-2.402-3.543-.881-7.587-2.402L258.283-306.087q9.282 14 14.304 30.783 5.022 16.782 5.022 35.304 0 51.674-35.957 87.63-35.956 35.957-87.63 35.957Z"/></svg>