<svg xmlns="http://www.w3.org/2000/svg" height="24" viewBox="0 -960 960 960" width="24"><path d="M336.23-151.869q-26.618 0-45.25-18.457-18.632-18.456-18.632-45.13v-465.022H135.696q-26.595 0-45.21-18.633-18.617-18.632-18.617-45.25 0-26.617 18.616-45.194 18.616-18.576 45.211-18.576h400.956q26.594 0 45.21 18.633 18.616 18.632 18.616 45.25t-18.616 45.194q-18.616 18.576-45.21 18.576H399.761v464.782q0 26.595-18.457 45.211-18.456 18.616-45.074 18.616Zm368.131 0q-26.618 0-45.25-18.457-18.633-18.456-18.633-45.13v-257.37h-56.413q-26.594 0-45.21-18.632-18.616-18.633-18.616-45.25 0-26.618 18.457-45.075 18.456-18.456 45.13-18.456h240.718q26.674 0 45.13 18.456 18.457 18.457 18.457 45.075 0 26.617-18.457 45.25-18.456 18.632-45.13 18.632h-56.653v257.13q0 26.595-18.456 45.211-18.457 18.616-45.074 18.616Z"/></svg>