<svg xmlns="http://www.w3.org/2000/svg" height="24" viewBox="0 -960 960 960" width="24"><path d="m650.957-533.196-22.609 67.978q-3.239 8.957-11.337 15.055-8.098 6.098-18.054 6.098-16.435 0-25.772-13.457-9.337-13.456-3.859-28.891l107.978-294.348q3.24-9.717 11.718-15.196 8.478-5.478 18.435-5.478h22.956q9.957 0 18.435 5.478 8.478 5.479 11.717 15.196l109.979 295.109q5.478 15.434-3.479 28.511-8.956 13.076-25.391 13.076-10.196 0-19.033-6.218-8.837-6.217-12.076-16.413l-22.369-66.5H650.957Zm17.522-54.869h100.912L720.935-731.13h-2.239l-50.217 143.065ZM312.587-111.869q-86.348 0-147.12-60.892Q104.695-233.652 104.695-320q0-48.717 21-91.174 21-42.456 59-72.413V-720q0-53.348 37.272-90.739 37.272-37.392 90.62-37.392 53.348 0 90.739 37.392 37.391 37.391 37.391 90.739v236.413q38 29.957 59 72.413 21 42.457 21 91.174 0 86.348-60.891 147.239-60.891 60.892-147.239 60.892ZM195.696-320h234.021q0-29.957-13.337-55.554-13.337-25.598-37.293-42.359l-29.37-21.37V-720q0-15.565-10.782-26.348-10.783-10.782-26.348-10.782t-26.228 10.782Q275.696-735.565 275.696-720v280.717l-29.131 21.37q-24.195 17-37.532 42.598-13.337 25.598-13.337 55.315Z"/></svg>