<svg xmlns="http://www.w3.org/2000/svg" height="24" viewBox="0 -960 960 960" width="24"><path d="M480-65.413q-75.913 0-142.848-29.098-66.935-29.097-117.011-79.054-50.076-49.956-79.174-116.891-29.098-66.935-29.098-142.848 0-60.478 18.5-116.696 18.5-56.217 53.5-102.413L82.565-753.717q-11.717-11.718-11.598-29.196.12-17.478 11.837-29.196Q94.522-823.826 112-823.826t29.196 11.717L820-133.543q11.717 11.717 11.717 29.195 0 17.479-11.717 29.196-11.717 11.717-29.315 11.717T761.37-75.152l-62.5-62.261q-48 35-104.098 53.5T480-65.413Zm-83.587-862h167.413q18.435 0 31.011 12.576t12.576 31.011q0 18.435-12.576 31.13Q582.261-840 563.826-840H396.174q-18.435 0-31.011-12.696-12.576-12.695-12.576-31.13t12.695-31.011q12.696-12.576 31.131-12.576ZM480-801.435q61.435 0 119.652 20 58.218 20 108.978 58.239l28.24-28.239q12.434-12.435 30.75-12.435 18.315 0 30.75 12.435 12.435 12.435 12.435 30.75 0 18.315-12.435 30.75l-28.239 28.239q38 50.522 58 108.74 20 58.217 20 119.652 0 43.435-10.5 85.413-10.5 41.978-31.5 82.978L523.587-547.217v-46.805q0-17-11.5-28.5t-28.5-11.5q-9.761 0-18.141 3.881-8.381 3.88-13.381 11.402L310.609-760.196q38.478-20.239 81.456-30.739t87.935-10.5Z"/></svg>