<svg xmlns="http://www.w3.org/2000/svg" height="24" viewBox="0 -960 960 960" width="24"><path d="M526.522-259.043q37.869 0 62.272-22.218 24.402-22.217 24.402-55.804v-51.283q0-23-17.305-38.5-17.304-15.5-41.869-15.5 24.565 0 41.869-16 17.305-16 17.305-39v-32.717q0-33.587-25-55.305-25-21.717-62.631-21.717H395.913q-16.196 0-27.293 11.098-11.098 11.098-11.098 27.293 0 16.196 11.217 27.414 11.218 11.217 27.413 11.217h129.413v51h-46.326q-15.239 0-25.978 10.62-10.739 10.619-10.739 26.097 0 15.479 10.619 26.098 10.62 10.62 26.098 10.62h46.326v68.565H396.152q-16.195 0-27.413 11.217-11.217 11.218-11.217 27.413 0 16.196 11.598 27.794 11.597 11.598 27.793 11.598h129.609ZM396.174-840q-18.435 0-31.011-12.696-12.576-12.695-12.576-31.13t12.576-31.011q12.576-12.576 31.011-12.576h167.652q18.435 0 31.011 12.576t12.576 31.011q0 18.435-12.576 31.13Q582.261-840 563.826-840H396.174ZM480-65.413q-75.913 0-142.848-29.098-66.935-29.097-117.011-79.054-50.076-49.956-79.174-116.891-29.098-66.935-29.098-142.848 0-75.913 29.098-142.848 29.098-66.935 79.174-117.011 50.076-50.076 117.011-79.174Q404.087-801.435 480-801.435q62.478 0 120.435 20 57.956 20 108.195 58.239l28.24-28.239q12.434-12.435 30.75-12.435 18.315 0 30.75 12.435 12.435 12.435 12.435 30.75 0 18.315-12.435 30.75l-28.239 28.239q38.239 50.24 58.119 108.077 19.881 57.837 19.881 120.315 0 75.913-29.098 142.848-29.098 66.935-79.174 116.891-50.076 49.957-117.011 79.054Q555.913-65.413 480-65.413Z"/></svg>