<svg xmlns="http://www.w3.org/2000/svg" height="24" viewBox="0 -960 960 960" width="24"><path d="M417-344.978h124l15 46q4 11 13 17.5t20 6.5q19 0 29.5-15.5t4.5-32.5l-94-265q-4-11-14-18t-22-7h-26q-12 0-22 7t-14 18l-95 267q-6 17 4.5 31.5t28.5 14.5q11 0 20-6.5t13-17.5l15-46Zm19-58 44-132 43 132h-87ZM396.174-840q-18.525 0-31.056-12.696-12.531-12.695-12.531-31.13t12.531-31.011q12.531-12.576 31.056-12.576h167.652q18.525 0 31.056 12.531 12.531 12.531 12.531 31.056 0 18.435-12.531 31.13Q582.351-840 563.826-840H396.174ZM480-65.413q-75.913 0-142.849-29.071-66.937-29.072-117.011-79.055-50.075-49.982-79.173-116.917t-29.098-142.848q0-75.913 29.12-142.837 29.12-66.924 79.185-116.989 50.065-50.066 116.989-79.185 66.924-29.12 142.837-29.12 62.478 0 120.435 20 57.956 20 108.195 58.239l28.24-28.239q12.434-12.435 30.75-12.435 18.315 0 30.75 12.435 12.435 12.435 12.435 30.75 0 18.315-12.435 30.75l-28.239 28.239q38.239 50.24 58.119 108.077 19.881 57.837 19.881 120.315 0 75.913-29.098 142.848-29.098 66.935-79.173 116.917-50.074 49.983-117.011 79.055Q555.913-65.413 480-65.413Z"/></svg>