<svg xmlns="http://www.w3.org/2000/svg" height="24" viewBox="0 -960 960 960" width="24"><path d="M480-238.087q26.829 0 44.371-17.542T541.913-300q0-26.829-17.542-44.371T480-361.913q-26.829 0-44.371 17.542T418.087-300q0 26.829 17.542 44.371T480-238.087Zm0-180q26.829 0 44.371-17.542T541.913-480q0-26.829-17.542-44.371T480-541.913q-26.829 0-44.371 17.542T418.087-480q0 26.829 17.542 44.371T480-418.087Zm0-180q26.829 0 44.371-17.542T541.913-660q0-26.829-17.542-44.371T480-721.913q-26.829 0-44.371 17.542T418.087-660q0 26.829 17.542 44.371T480-598.087Zm-211 234.5v-39.783q-41.239-11.717-72.141-42.423-30.901-30.706-41.866-73.382-1.993-17.695 9.479-31.053 11.472-13.359 29.202-13.359H269v-39.783q-41.239-11.717-72.141-42.423-30.901-30.706-41.866-73.382-1.993-17.695 9.479-31.053 11.472-13.359 29.202-13.359H269v-3.826q0-34.674 24.553-59.131Q318.107-851 352.587-851h254.826q34.674 0 59.131 24.456Q691-802.087 691-767.413v3.826h75.326q17.73 0 29.202 13.359 11.472 13.358 9.479 31.053-10.965 42.676-41.866 73.382Q732.239-615.087 691-603.37v39.783h75.326q17.73 0 29.202 13.359 11.472 13.358 9.479 31.053-10.965 42.676-41.866 73.382Q732.239-415.087 691-403.37v39.783h75.326q17.73 0 29.202 13.359 11.472 13.358 9.479 31.053-10.965 42.676-41.866 73.382Q732.239-215.087 691-203.37v10.783q0 34.48-24.456 59.034Q642.087-109 607.413-109H352.587q-34.48 0-59.034-24.553Q269-158.107 269-192.587v-10.543q-41.239-11.718-72.138-42.347-30.898-30.628-41.862-73.197-2-17.756 9.581-31.335 11.582-13.578 29.571-13.578H269Z"/></svg>