<svg xmlns="http://www.w3.org/2000/svg" height="24" viewBox="0 -960 960 960" width="24"><path d="M600-274.5q-73.717 0-129.294-45.5-55.576-45.5-71.01-114.5H200q-19.152 0-32.326-13.174T154.5-480q0-19.152 13.174-32.326T200-525.5h199.696q4.282-19.652 11.586-36.902 7.305-17.25 19.153-32.098H280q-19.152 0-32.326-13.174T234.5-640q0-19.152 13.174-32.326T280-685.5h320q85.391 0 145.446 60.054Q805.5-565.391 805.5-480q0 85.152-60.054 145.326Q685.391-274.5 600-274.5Zm0-91q47.848 0 81.174-33.446Q714.5-432.391 714.5-480q0-47.848-33.326-81.174Q647.848-594.5 600-594.5q-47.609 0-81.054 33.326Q485.5-527.848 485.5-480q0 47.609 33.446 81.054Q552.391-365.5 600-365.5Zm-280 91q-19.152 0-32.326-13.174T274.5-320q0-19.152 13.174-32.326T320-365.5h32.348q19.152 0 32.326 13.174T397.848-320q0 19.152-13.174 32.326T352.348-274.5H320ZM600-480Z"/></svg>