<svg xmlns="http://www.w3.org/2000/svg" height="24" viewBox="0 -960 960 960" width="24"><path d="M758.087-320q-72 0-127.359-44.88-55.358-44.881-70.076-114.642h-66.326q-17.813 0-29.863-12.05t-12.05-29.863q0-17.813 12.05-29.863t29.863-12.05h66.326q4.728-20.812 12.766-39.732 8.038-18.92 21.082-36.442H399q-17.813 0-29.863-12.05t-12.05-29.863q0-17.813 12.05-29.863T399-723.348h238.696L595.13-839.522H484.544q-17.813 0-29.863-12.05-12.051-12.05-12.051-29.863t12.051-29.863q12.05-12.05 29.863-12.05h105.565q29.347 0 52.178 16.528 22.831 16.528 33.104 43.885l51.131 139.348h31.565q84.196 0 143.054 58.859Q960-605.87 960-521.435q0 83.596-59.217 142.515Q841.565-320 758.087-320Zm-.12-83.587q49.403 0 83.924-34.163 34.522-34.163 34.522-83.685 0-48.565-33.565-82.967t-82.37-34.881h-2.521L782-573.152q6.239 16.717-1.12 32.695-7.358 15.979-24.076 21.457-16.717 5.478-32.315-1.801-15.598-7.279-21.837-23.916l-23.217-64.609q-19.348 17-29.392 39.924Q640-546.478 640-521.435q0 49.522 34.283 83.685 34.282 34.163 83.684 34.163ZM280-38.087q-49.522 0-84.402-33.804-34.881-33.805-36.794-82.609H43.587q-18.525 0-31.056-12.696Q0-179.891 0-198.326v-163.587q0-18.525 12.696-31.056Q25.39-405.5 43.826-405.5h32.587v-116.413H43.587q-18.525 0-31.056-12.531Q0-546.976 0-565.5q0-18.525 12.531-31.056 12.531-12.531 31.056-12.531h213.652q12.503 0 23.301 5.818 10.799 5.818 16.482 16.291L403.587-405.5h67.326q37.537 0 64.269 26.731 26.731 26.732 26.731 64.269v69q0 37.537-26.731 64.269Q508.45-154.5 470.913-154.5h-69.717q-1.913 49.044-37.033 82.728Q329.043-38.087 280-38.087ZM163.587-405.5h139.109l-68.892-116.413h-70.217V-405.5Zm116.48 283.587q16.216 0 27.118-10.969 10.902-10.97 10.902-27.185 0-16.216-10.921-27.118-10.921-10.902-27.065-10.902-16.144 0-27.166 10.921-11.022 10.921-11.022 27.065 0 16.144 10.969 27.166 10.97 11.022 27.185 11.022Z"/></svg>