<svg xmlns="http://www.w3.org/2000/svg" height="24" viewBox="0 -960 960 960" width="24"><path d="M808.848-273.782H238.804q-37.782 0-64.391-26.609-26.609-26.609-26.609-64.392v-398.565h-31.869q-19.153 0-32.326-13.174-13.174-13.174-13.174-32.326t13.174-32.326q13.174-13.174 32.326-13.174h31.869q37.783 0 64.392 26.609 26.608 26.608 26.608 64.391v398.565h570.044q19.152 0 32.326 13.174t13.174 32.326q0 19.153-13.174 32.327t-32.326 13.174ZM233.304-65.652q-35.391 0-60.446-25.054-25.054-25.055-25.054-60.446t25.054-60.446q25.055-25.054 60.446-25.054 35.392 0 60.446 25.054 25.054 25.055 25.054 60.446T293.75-90.706q-25.054 25.054-60.446 25.054Zm91-339.131q-19.152 0-32.326-13.174t-13.174-32.326v-156.652q0-19.152 13.174-32.326t32.326-13.174h156.653q19.152 0 32.326 13.174t13.174 32.326v156.652q0 19.152-13.174 32.326t-32.326 13.174H324.304Zm287.653 0q-19.152 0-32.326-13.174t-13.174-32.326v-156.652q0-19.152 13.174-32.326t32.326-13.174h156.652q19.152 0 32.326 13.174t13.174 32.326v156.652q0 19.152-13.174 32.326t-32.326 13.174H611.957ZM768.609-65.652q-35.391 0-60.326-25.054-24.935-25.055-24.935-60.446t24.935-60.446q24.935-25.054 60.326-25.054 35.391 0 60.565 25.054 25.174 25.055 25.174 60.446t-25.174 60.446Q804-65.652 768.609-65.652Z"/></svg>