<svg xmlns="http://www.w3.org/2000/svg" height="24" viewBox="0 -960 960 960" width="24"><path d="m76.652-443.978 226.935-361.283q74.205 36.52 137.526 100.184 63.322 63.664 95.8 132.707 35.761-37.282 79.022-59.685Q659.196-654.457 736-674.457q46-13 79.5-25t64.5-27v400.109L583.109-139.261q-19 12-41.935 18.739-22.935 6.74-46.935 6.74-30 0-59.674-11.74-29.674-11.739-53.63-33.934L76.652-443.978Zm437.174 187.565q18.196 0 30.652-12.457 12.457-12.456 12.457-30.652 0-2.717-4.478-18.674l136.739-85.891q5.717 8.478 14.818 12.957 9.1 4.478 19.807 4.478 18.201 0 30.657-12.457 12.457-12.456 12.457-30.607 0-14.947-9.359-26.692-9.358-11.744-24.076-15.175 1-2.287 1.381-5.287.38-3 .38-6 0-18.195-12.457-30.652-12.456-12.456-30.652-12.456-18.195 0-30.652 12.456-12.457 12.457-12.457 30.652 0 3.761 6.761 22.718l-137.695 85.369q-5.718-9.478-15.457-15.098-9.739-5.619-21.49-5.619-18.162 0-30.619 12.417-12.456 12.416-12.456 30.771 0 15.116 9.672 26.958 9.673 11.842 24.719 15.071-.88 2-1.32 5-.441 3-.441 5.761 0 18.196 12.457 30.652 12.456 12.457 30.652 12.457Z"/></svg>