<svg xmlns="http://www.w3.org/2000/svg" height="24" viewBox="0 -960 960 960" width="24"><path d="M246.5-320h307q14.674 0 20.891-12.554 6.218-12.555-2.739-23.99l-91.5-119.586q-3.478-4.479-8.076-6.837-4.598-2.359-10.076-2.359-5.478 0-10.076 2.359-4.598 2.358-8.076 6.837l-55.696 72.5q-3.478 4.478-8.076 6.717-4.598 2.239-10.076 2.239-5.478 0-10.076-2.239-4.598-2.239-8.076-6.717l-25.696-33.5q-3.478-4.479-8.076-6.337-4.598-1.859-10.076-1.859-5.478 0-10.076 1.859-4.598 1.858-8.076 6.337l-61.5 80.586q-8.957 11.435-2.739 23.99Q231.826-320 246.5-320Zm-83.63 168.131q-37.783 0-64.392-26.609Q71.87-205.087 71.87-242.87v-474.26q0-37.783 26.61-64.392 26.608-26.609 64.391-26.609h474.26q37.783 0 64.392 26.609 26.609 26.609 26.609 64.392V-540l121.217-121.217q11.196-11.196 24.989-5.479 13.794 5.718 13.794 21.392v330.608q0 15.674-13.794 21.392-13.793 5.717-24.989-5.479L728.131-420v177.13q0 37.783-26.609 64.392-26.609 26.609-64.392 26.609H162.87Z"/></svg>