<svg xmlns="http://www.w3.org/2000/svg" height="24" viewBox="0 -960 960 960" width="24"><path d="M360-440.239v80q0 17 11.5 28.5t28.5 11.5q17 0 28.5-11.5t11.5-28.5v-80h80q17 0 28.5-11.5t11.5-28.5q0-17-11.5-28.5t-28.5-11.5h-80v-80q0-17-11.5-28.5t-28.5-11.5q-17 0-28.5 11.5t-11.5 28.5v80h-80q-17 0-28.5 11.5t-11.5 28.5q0 17 11.5 28.5t28.5 11.5h80Zm-197.13 288.37q-37.783 0-64.392-26.609Q71.87-205.087 71.87-242.87v-474.26q0-37.783 26.61-64.392 26.608-26.609 64.391-26.609h474.26q37.783 0 64.392 26.609 26.609 26.609 26.609 64.392V-540l121.217-121.217q11.196-11.196 24.989-5.479 13.794 5.718 13.794 21.392v330.608q0 15.674-13.794 21.392-13.793 5.717-24.989-5.479L728.131-420v177.13q0 37.783-26.609 64.392-26.609 26.609-64.392 26.609H162.87Z"/></svg>