<svg xmlns="http://www.w3.org/2000/svg" height="24" viewBox="0 -960 960 960" width="24"><path d="M72.348-160.674v-638.652h815.304v638.652H72.348Zm91-448.848h98.804v-98.804h-98.804v98.804Zm178.804 0H440v-98.804h-97.848v98.804Zm177.848 0h97.848v-98.804H520v98.804Zm177.848 0h98.804v-98.804h-98.804v98.804Zm0 179.044h98.804v-99.044h-98.804v99.044Zm-177.848 0h97.848v-99.044H520v99.044Zm-177.848 0H440v-99.044h-97.848v99.044Zm-80-99.044h-98.804v99.044h98.804v-99.044Zm435.696 277.848h98.804v-98.804h-98.804v98.804Zm-177.848 0h97.848v-98.804H520v98.804Zm-177.848 0H440v-98.804h-97.848v98.804Zm-178.804 0h98.804v-98.804h-98.804v98.804Z"/></svg>