<svg xmlns="http://www.w3.org/2000/svg" height="24" viewBox="0 -960 960 960" width="24"><path d="M845.739-480ZM159.761-605.022q-19.152 0-32.326-13.174t-13.174-32.326v-71.63q0-19.152 13.174-32.326t32.326-13.174h71.869q19.152 0 32.326 13.174t13.174 32.326v71.63q0 19.152-13.174 32.326t-32.326 13.174h-71.869Zm210.044 0q-19.153 0-32.327-13.174t-13.174-32.326v-71.63q0-19.152 13.174-32.326t32.327-13.174h430.434q19.152 0 32.326 13.174t13.174 32.326v71.63q0 19.152-13.174 32.326t-32.326 13.174H369.805Zm0 206.218q-19.153 0-32.327-13.174t-13.174-32.326v-71.392q0-19.152 13.174-32.326t32.327-13.174h430.434q19.152 0 32.326 13.174t13.174 32.326v71.392q0 19.152-13.174 32.326t-32.326 13.174H369.805Zm0 206.456q-19.153 0-32.327-13.174t-13.174-32.326v-71.63q0-19.152 13.174-32.326t32.327-13.174h430.434q19.152 0 32.326 13.174t13.174 32.326v71.63q0 19.152-13.174 32.326t-32.326 13.174H369.805Zm-210.044 0q-19.152 0-32.326-13.174t-13.174-32.326v-71.63q0-19.152 13.174-32.326t32.326-13.174h71.869q19.152 0 32.326 13.174t13.174 32.326v71.63q0 19.152-13.174 32.326t-32.326 13.174h-71.869Zm0-206.456q-19.152 0-32.326-13.174t-13.174-32.326v-71.392q0-19.152 13.174-32.326t32.326-13.174h71.869q19.152 0 32.326 13.174t13.174 32.326v71.392q0 19.152-13.174 32.326t-32.326 13.174h-71.869Z"/></svg>