<svg xmlns="http://www.w3.org/2000/svg" height="24" viewBox="0 -960 960 960" width="24"><path d="M148.282-151.869q-31.52 0-53.966-22.447-22.447-22.446-22.447-53.966v-503.436q0-31.52 22.447-53.966 22.446-22.447 53.966-22.447h65.675q31.52 0 53.966 22.447 22.447 22.446 22.447 53.966v503.436q0 31.52-22.447 53.966-22.446 22.447-53.966 22.447h-65.675Zm299.022 0q-31.565 0-53.869-22.447-22.305-22.446-22.305-53.966v-503.436q0-31.52 22.305-53.966 22.304-22.447 53.869-22.447h66.153q31.565 0 53.869 22.447 22.304 22.446 22.304 53.966v503.436q0 31.52-22.304 53.966-22.304 22.447-53.869 22.447h-66.153Zm298.739 0q-31.565 0-53.869-22.447-22.304-22.446-22.304-53.966v-503.436q0-31.52 22.304-53.966 22.304-22.447 53.869-22.447h65.675q31.52 0 53.966 22.447 22.447 22.446 22.447 53.966v503.436q0 31.52-22.447 53.966-22.446 22.447-53.966 22.447h-65.675Z"/></svg>