<svg xmlns="http://www.w3.org/2000/svg" height="24" viewBox="0 -960 960 960" width="24"><path d="M320-192.109q-120.298 0-204.094-83.807-83.798-83.807-83.798-204.12 0-120.312 83.798-204.084Q199.702-767.891 320-767.891h320q120.297 0 204.094 83.807t83.797 204.12q0 120.312-83.797 204.084Q760.297-192.109 640-192.109H320Zm0-91h320q81.71 0 139.301-57.59 57.59-57.591 57.59-139.301 0-81.71-57.59-139.301-57.591-57.59-139.301-57.59H320q-81.71 0-139.301 57.59-57.59 57.591-57.59 139.301 0 81.71 57.59 139.301 57.591 57.59 139.301 57.59Zm3.543-162.108v52.108q0 14.913 9.935 24.848 9.935 9.935 24.848 9.935 14.913 0 24.848-9.935 9.935-9.935 9.935-24.848v-52.108h52.108q14.913 0 24.848-9.935Q480-465.087 480-480q0-14.913-9.935-24.848-9.935-9.935-24.848-9.935h-52.108v-52.108q0-14.913-9.935-24.848-9.935-9.935-24.848-9.935-14.913 0-24.848 9.935-9.935 9.935-9.935 24.848v52.108h-52.108q-14.913 0-24.848 9.935-9.935 9.935-9.935 24.848 0 14.913 9.935 24.848 9.935 9.935 24.848 9.935h52.108Zm291.674-86.892v139q0 14.913 9.935 24.848 9.935 9.935 24.848 9.935 14.913 0 24.848-9.935 9.935-9.935 9.935-24.848v-163.065q0-19.152-13.174-32.326t-32.326-13.174H590q-14.913 0-24.848 9.935-9.935 9.935-9.935 24.848 0 14.913 9.935 24.848 9.935 9.934 24.848 9.934h25.217ZM480-480Z"/></svg>