<svg xmlns="http://www.w3.org/2000/svg" height="24" viewBox="0 -960 960 960" width="24"><path d="M280-396.413q34.674 0 59.13-24.554Q363.587-445.52 363.587-480q0-34.674-24.457-59.13-24.456-24.457-59.01-24.457-34.555 0-59.131 24.457-24.576 24.456-24.576 59.01 0 34.555 24.554 59.131Q245.52-396.413 280-396.413Zm0 163.826q-102.87 0-175.141-72.272Q32.587-377.13 32.587-480q0-102.87 72.272-175.141Q177.13-727.413 280-727.413q84.348 0 145.685 46.576T511.978-565.5H760v329.087h-34.5q-19.152 0-32.326-13.174T680-281.913V-394.5H511.978q-24.956 68.761-86.293 115.337Q364.348-232.587 280-232.587Zm603.587-3.826q-18.524 0-31.056-12.531Q840-261.476 840-280t12.531-31.056q12.532-12.531 31.056-12.531 18.525 0 31.056 12.531 12.531 12.532 12.531 31.056t-12.531 31.056q-12.531 12.531-31.056 12.531Zm0-163.587q-18.524 0-31.056-12.531Q840-425.063 840-443.587V-560q0-18.524 12.531-31.056 12.532-12.531 31.056-12.531 18.525 0 31.056 12.531 12.531 12.532 12.531 31.056v116.413q0 18.524-12.531 31.056Q902.112-400 883.587-400Z"/></svg>