<svg xmlns="http://www.w3.org/2000/svg" height="24" viewBox="0 -960 960 960" width="24"><path d="M234.978-71.87q-67.435 0-115.272-47.836-47.837-47.837-47.837-115.272v-227.479q0-31.717 14.86-59.054 14.858-27.337 41.575-44.576l308.392-200.435q11-7 23-5.739 12 1.261 21.239 10.022 23.587 21.913 28.641 53.119 5.054 31.207-11.141 59.033l-36.87 60.522h303.218q18.195 0 30.652 12.456 12.456 12.457 12.456 30.652 0 18.196-12.456 30.653-12.457 12.456-30.652 12.456H471.869v57.609h372.914q18.195 0 30.652 12.456 12.456 12.457 12.456 30.653 0 18.195-12.456 30.652-12.457 12.456-30.652 12.456H471.869v57.609h333.153q18.196 0 30.652 12.456 12.457 12.457 12.457 30.653 0 18.195-12.457 30.652-12.456 12.456-30.652 12.456H471.869v57.609h252.914q18.195 0 30.652 12.457 12.456 12.456 12.456 30.652 0 18.195-12.456 30.652-12.457 12.457-30.652 12.457H234.978ZM705.5-648.13q-40.196 0-71.293-31.217-31.098-31.217-31.098-71.413 0-45 29-86.663t56.717-73.185q6.718-8.239 16.674-8.239 9.957 0 16.674 8.239 27.717 31.283 56.837 73.065 29.12 41.783 29.12 86.783 0 40.196-31.218 71.413-31.217 31.217-71.413 31.217Z"/></svg>