<svg xmlns="http://www.w3.org/2000/svg" height="24" viewBox="0 -960 960 960" width="24"><path d="M358.087-74.109q-124.87-14.717-205.544-107.809Q71.869-275.011 71.869-408q0-64.962 29.598-129.416t74.315-123.649q44.718-59.196 96.935-111.033 52.218-51.837 96.696-91.315 6.717-5.718 14.293-8.576 7.577-2.859 16.294-2.859t16.294 2.978q7.576 2.979 14.293 8.696 45.478 40.478 97.315 91.935 51.837 51.456 96.555 110.293 44.717 58.837 74.195 122.863Q728.131-474.058 728.131-408v6.152q0 2.957-.24 6.152h-91q.239-3.195.239-6.152V-408q0-71.326-59.543-162.011Q518.043-660.696 400-769.696q-118.043 109-177.587 199.685Q162.87-479.326 162.87-408q0 95.087 54.565 161.13Q272-180.826 358.087-166.348v92.24ZM400-468.282Zm178.087 318.088h-76.174v46.413q0 13.828-9.042 22.87-9.042 9.043-22.871 9.043-13.829 0-22.871-9.042-9.042-9.043-9.042-22.871V-281.63q0-14.762 9.652-24.414 9.652-9.652 24.413-9.652h105.935q26.152 0 44.989 18.837 18.837 18.837 18.837 44.99v38.087q0 25.913-18.837 44.75t-44.989 18.837Zm163.826-21.674v68.087q0 13.828-9.042 22.87-9.042 9.043-22.871 9.043-13.829 0-22.871-9.042-9.042-9.043-9.042-22.871v-180q0-13.829 9.042-22.872 9.042-9.042 22.871-9.042 13.829 0 22.871 9.042 9.042 9.043 9.042 22.872v48.086h76.174v-48.086q0-13.829 9.042-22.872 9.042-9.042 22.871-9.042 13.829 0 22.871 9.042 9.042 9.043 9.042 22.872v180q0 13.828-9.042 22.87-9.042 9.043-22.871 9.043-13.829 0-22.871-9.042-9.042-9.043-9.042-22.871v-68.087h-76.174Zm-240-41.913h76.174v-38.087h-76.174v38.087Z"/></svg>