<svg xmlns="http://www.w3.org/2000/svg" height="24" viewBox="0 -960 960 960" width="24"><path d="M617.565-70.848q-11.956 5.478-24.293.62-12.337-4.859-17.816-16.816l-5-10.76q-8-17.239-11.619-36.098-3.62-18.859-3.62-38.098 0-22.478 5.239-44.337 5.24-21.859 15.479-42.337 8-16.522 13.641-33.663T595.217-328q0-14.761-3.38-28.522-3.381-13.761-9.381-27.521l-1-2q-5.478-11.957-.619-24.794t16.815-18.315q11.957-5.478 24.294-.62 12.337 4.859 17.815 16.815l5 9.24q8 17.478 11.619 36.597Q660-348 660-328q0 22.239-5.12 43.598-5.119 21.359-15.119 41.598-8 16.761-13.881 34.402Q620-190.761 620-172q0 13.761 3 27.022t8.761 26.021l2.239 5q5.478 11.957.5 24.794t-16.935 18.315Zm122.392 0q-11.957 5.478-24.294.62-12.337-4.859-17.815-16.816l-5-10.76q-8-17.239-11.62-36.098-3.619-18.859-3.619-38.098 0-22.478 5.239-44.337t15.478-42.337q8-16.522 13.641-33.663 5.642-17.141 5.642-35.663 0-14.761-3.381-28.522-3.38-13.761-9.38-27.521l-1-2q-5.478-11.957-.62-24.794 4.859-12.837 16.815-18.315 11.957-5.478 24.294-.62 12.337 4.859 17.815 16.815l5 9.24q8 18.239 11.62 36.978Q782.391-348 782.391-328q0 22.239-5.119 43.598-5.12 21.359-15.12 41.598-8 16.761-13.88 34.402-5.881 17.641-5.881 36.402 0 13.761 3 27.022t8.761 26.021l2.239 5q5.479 11.957.5 24.794-4.978 12.837-16.934 18.315Zm102.478-358.304q11.956-5.478 24.293-.62 12.337 4.859 17.816 16.815l5 9.24q8 17.478 11.619 36.597 3.62 19.12 3.62 39.12 0 22.239-5.12 43.978-5.119 21.739-15.119 41.979-8 16.76-13.881 34.021-5.88 17.261-5.88 36.022 0 13.761 3 27.022t8.761 26.021l2.239 5q3 6.24 3 12.718t-2.239 12.076q-2.24 5.598-6.479 10.456-4.239 4.86-10.717 7.86-11.957 5.477-24.294.619-12.337-4.859-17.815-16.816l-5-10.76q-8-17.239-11.619-36.098Q800-152.761 800-172q0-22.478 5.239-44.337t15.478-42.337q8-16.522 13.642-33.663Q840-309.478 840-328q0-14.761-3.38-28.522-3.381-13.761-9.381-27.521l-1-2q-5.478-11.957-.619-24.794 4.858-12.837 16.815-18.315Zm-58.022-92.957H566.218q-37.783 0-64.392 26.609-26.609 26.609-26.609 64.391v359q-138.674-1.913-231.011-97.826Q151.869-265.848 151.869-408q0-65.717 29.598-130.174 29.598-64.456 74.315-123.652 44.718-59.196 96.935-111.033 52.218-51.837 96.696-91.315 6.717-5.717 14.674-8.576 7.956-2.859 15.913-2.859 8.717 0 16.294 2.859 7.576 2.859 13.532 8.576Q588.544-794.457 667-708.022q78.457 86.435 117.413 185.913Z"/></svg>