<svg xmlns="http://www.w3.org/2000/svg" height="24" viewBox="0 -960 960 960" width="24"><path d="M196.413-201.913v-274.5h-66.804q-15.913 0-21.511-14.793-5.598-14.794 6.598-24.99l334.717-301.239Q462.087-829.63 480-829.63t30.587 12.195l334.717 301.239q12.196 10.196 6.598 24.99-5.598 14.793-21.511 14.793h-66.804v274.5q0 19.152-13.174 32.326t-32.326 13.174H241.913q-19.152 0-32.326-13.174t-13.174-32.326Zm91-45.5h385.174v-301.478L480-722.195 287.413-548.891v301.478ZM480-319.043q34.435 0 59.011-24.577 24.576-24.576 24.576-59.01 0-27.479-15.717-59.294-15.718-31.815-67.87-106.924-52.152 75.109-67.87 106.924-15.717 31.815-15.717 59.294 0 34.434 24.576 59.01 24.576 24.577 59.011 24.577ZM480-486Z"/></svg>