<svg xmlns="http://www.w3.org/2000/svg" height="24" viewBox="0 -960 960 960" width="24"><path d="m259.065-385.848 24.761 222.978h392.587l25.761-233.782h-7.087q-37.044-.239-68.902-5.978-31.859-5.74-85.142-21.261-23-6.761-47.88-9.881-24.88-3.119-49.402-3.119-48.37 0-94.913 12.761-46.544 12.76-89.783 38.282Zm-11.195-97.239q47-22.283 96.543-33.424 49.544-11.141 100.348-11.141 30.478 0 60.576 4.119 30.098 4.12 59.576 12.359 50 14 76.381 19 26.38 5 56.141 5h14.935l33.565-309.956h-531.87l33.805 314.043Zm34.717 411.218q-35.065 0-60.674-23.13-25.609-23.131-29.087-57.436l-69.522-634.5q-4.478-40.261 22.25-70.728 26.729-30.468 67.75-30.468h533.392q41.021 0 67.869 30.468 26.848 30.467 22.37 70.728l-69.522 634.5Q763.935-118.13 738.326-95q-25.609 23.13-60.674 23.13H282.587Zm1.239-91.001q23.718 0 67.641.12 43.924.12 92.294.12H541.043q53.283 0 82.783-.12t52.587-.12H283.826Z"/></svg>