<svg xmlns="http://www.w3.org/2000/svg" height="24" viewBox="0 -960 960 960" width="24"><path d="M678.565-29.674q-19.152 0-32.326-13.554t-13.174-32.707q0-19.152 13.174-32.326t32.326-13.174q66 0 113-47t47-113q0-19.152 13.555-32.706 13.554-13.555 32.706-13.555t32.326 13.555q13.174 13.554 13.174 32.706 0 104.544-73.608 178.153-73.609 73.608-178.153 73.608ZM75.935-633.065q-19.153 0-32.707-13.174-13.554-13.174-13.554-32.326 0-104.544 73.608-178.153 73.609-73.608 178.153-73.608 19.152 0 32.706 13.174 13.555 13.174 13.555 32.326t-13.555 32.706q-13.554 13.555-32.706 13.555-66 0-113 47t-47 113q0 19.152-13.174 32.326t-32.326 13.174Zm127.217 431.63q-93.391-93.391-93.87-224.38-.478-130.989 92.674-224.142l63.74-64.5q6.195-6.195 14.869-6.195t14.87 6.195q29 29 28.522 70.261-.479 41.261-29.24 70.022l-16.869 16.87q-13.674 13.674-13.674 32.326t13.674 32.326l31.934 31.935q24.566 24.565 24.566 59.293 0 34.728-24.566 59.293-9.478 9.479-9.478 23.055t9.478 23.054q9.479 9.478 23.055 9.478t23.054-9.478q43.761-43.761 43.761-105.022 0-61.26-44.522-105.782l-18.413-18.413 3.348-3.348q26.957-26.957 38.555-60.772 11.598-33.815 9.119-69.011l172.065-171.826q12.957-12.956 30.533-13.076 17.576-.119 30.533 12.837 12.956 12.957 12.956 30.652 0 17.696-12.956 30.653L432.674-580.935l38.891 38.892 242.196-241.674q12.956-12.957 30.272-12.957 17.315 0 30.271 12.957 12.957 12.956 12.837 30.152-.119 17.195-13.076 30.152L532.63-480.978l38.413 38.652 213.196-213.196q12.957-12.956 30.652-12.837 17.696.12 30.653 13.076Q858.5-642.326 858.5-624.87q0 17.457-12.956 30.414L632.109-381.261 671-342.37l160.087-160.086q12.956-12.957 30.533-12.957 17.576 0 30.532 12.957 12.957 12.956 12.957 30.532t-12.957 30.533L650.957-200.956q-93.153 93.152-223.903 92.913-130.75-.239-223.902-93.392Z"/></svg>