<svg xmlns="http://www.w3.org/2000/svg" height="24" viewBox="0 -960 960 960" width="24"><path d="M260-191.869q-23.152 0-39.326-16.174T204.5-247.37q0-23.152 16.174-39.326T260-302.87q23.152 0 39.326 16.174T315.5-247.37q0 23.153-16.174 39.327T260-191.869Zm120 131q-23.152 0-39.326-16.174T324.5-116.37q0-23.152 16.174-39.326T380-171.869q23.152 0 39.326 16.174t16.174 39.326q0 23.152-16.174 39.326T380-60.87Zm120-131q-23.152 0-39.326-16.174T444.5-247.37q0-23.152 16.174-39.326T500-302.87q23.152 0 39.326 16.174T555.5-247.37q0 23.153-16.174 39.327T500-191.869Zm240 0q-23.152 0-39.326-16.174T684.5-247.37q0-23.152 16.174-39.326T740-302.87q23.152 0 39.326 16.174T795.5-247.37q0 23.153-16.174 39.327T740-191.869Zm-120 131q-23.152 0-39.326-16.174T564.5-116.37q0-23.152 16.174-39.326T620-171.869q23.152 0 39.326 16.174t16.174 39.326q0 23.152-16.174 39.326T620-60.87ZM300-358.087q-93.152 0-159.326-66.174Q74.5-490.435 74.5-583.587q0-84.435 55.478-147.75t137.435-75.272q32.957-57 89.413-89.739 56.457-32.739 123.165-32.739 90.966 0 158.542 57.5 67.576 57.5 83.011 143.978 69.717 7.435 116.837 59.631Q885.5-615.783 885.5-543.587q0 77.152-54.104 131.326Q777.292-358.087 700-358.087H300Zm0-91h400q39.69 0 67.095-27.389Q794.5-503.864 794.5-543.53t-27.405-67.111Q739.69-638.087 700-638.087h-65.5v-45.5q0-63.731-45.379-109.116-45.379-45.384-109.103-45.384-46.344 0-84.529 25.163-38.185 25.163-57.467 67.489l-11.367 27.348h-28.416q-54.827 1.92-93.783 40.806-38.956 38.886-38.956 93.614 0 55.689 39.389 95.134 39.39 39.446 95.111 39.446Zm180-94.5Z"/></svg>