<svg xmlns="http://www.w3.org/2000/svg" height="24" viewBox="0 -960 960 960" width="24"><path d="M162.87-202.87v-14.043 14.043-430.434 430.434Zm0 91.001q-37.783 0-64.392-26.609Q71.87-165.087 71.87-202.87v-430.434q0-37.783 26.61-64.392 26.608-26.608 64.391-26.608h149.717v-80q0-37.783 26.609-64.392 26.608-26.609 64.391-26.609h152.826q37.783 0 64.391 26.609 26.609 26.609 26.609 64.392v80H797.13q37.783 0 64.392 26.608 26.609 26.609 26.609 64.392v171q-19.913-15.87-42.783-27.522t-48.218-19.131v-124.347H162.87v430.434h279.652q3.239 24.348 10.435 47.098 7.195 22.75 18.587 43.903H162.87Zm240.717-612.435h152.826v-80H403.587v80ZM720-40q-83 0-141.5-58.5T520-240q0-83 58.5-141.5T720-440q83 0 141.5 58.5T920-240q0 83-58.5 141.5T720-40Zm0-76.652q9.435 0 16.152-6.718 6.718-6.717 6.718-16.152 0-9.435-6.718-16.272-6.717-6.836-16.152-6.836-9.435 0-16.152 6.836-6.718 6.837-6.718 16.272 0 9.435 6.718 16.152 6.717 6.718 16.152 6.718Zm-.12-86.696q8.837 0 15.435-6.574 6.598-6.574 6.598-15.339v-116.174q0-8.765-6.478-15.339t-15.315-6.574q-8.837 0-15.435 6.574-6.598 6.574-6.598 15.339v116.174q0 8.765 6.478 15.339t15.315 6.574Z"/></svg>