<svg xmlns="http://www.w3.org/2000/svg" height="24" viewBox="0 -960 960 960" width="24"><path d="M162.87-202.87v-430.434 430.434-14.043 14.043Zm0 91.001q-37.783 0-64.392-26.609Q71.87-165.087 71.87-202.87v-430.434q0-37.783 26.61-64.392 26.608-26.608 64.391-26.608h149.717v-80q0-37.783 26.609-64.392 26.608-26.609 64.391-26.609h152.826q37.783 0 64.391 26.609 26.609 26.609 26.609 64.392v80H797.13q37.783 0 64.392 26.608 26.609 26.609 26.609 64.392v171q-19.913-15.87-42.783-27.522t-48.218-19.131v-124.347H162.87v430.434h279.652q3.239 24.348 10.435 47.098 7.195 22.75 18.587 43.903H162.87Zm240.717-612.435h152.826v-80H403.587v80ZM720-40q-83 0-141.5-58.5T520-240q0-83 58.5-141.5T720-440q83 0 141.5 58.5T920-240q0 83-58.5 141.5T720-40Zm21.674-208.818v-91.421q0-8.67-6.513-15.172-6.512-6.502-15.195-6.502t-15.281 6.574q-6.598 6.574-6.598 15.339v89.565q0 9.196 3.359 17.55 3.358 8.354 10.076 15.037l59.282 59.283q6.479 6.478 15.196 6.359 8.717-.12 15.196-6.632 6.478-6.513 6.478-15.196t-6.478-15.162l-59.522-59.622Z"/></svg>