<svg xmlns="http://www.w3.org/2000/svg" height="24" viewBox="0 -960 960 960" width="24"><path d="M236.413-111.869q-69.587 0-118.859-49.272Q68.282-210.413 68.282-280q0-69.587 49.272-118.859 49.272-49.272 118.859-49.272 69.587 0 118.739 49.272T404.304-280q0 69.587-49.152 118.859Q306-111.869 236.413-111.869Zm487.174 0q-69.587 0-118.739-49.272T555.696-280q0-69.587 49.152-118.859Q654-448.131 723.587-448.131t118.859 49.272Q891.718-349.587 891.718-280q0 69.587-49.272 118.859-49.272 49.272-118.859 49.272ZM480-519.283q-69.587 0-118.859-49.271-49.272-49.272-49.272-118.859 0-69.587 49.272-118.739Q410.413-855.305 480-855.305q69.587 0 118.859 49.153Q648.131-757 648.131-687.413t-49.272 118.859Q549.587-519.283 480-519.283Z"/></svg>