<svg xmlns="http://www.w3.org/2000/svg" height="24" viewBox="0 -960 960 960" width="24"><path d="M480-477.609q34.196 0 58.294-24.097 24.097-24.098 24.097-58.294t-24.097-58.294Q514.196-642.391 480-642.391t-58.294 24.097Q397.609-594.196 397.609-560t24.097 58.294q24.098 24.097 58.294 24.097Zm0-410.522q14.848 0 30.456 1.522 15.609 1.522 30.457 3.283l103.891 104.13-24.891 24.892q-24.435 24.434-24.054 59.108.38 34.674 24.815 59.109 24.435 24.435 59.728 24.435 35.294 0 59.729-24.435l23.891-23.891 36.5 37.261q3.043 17.13 5.326 34.88 2.283 17.75 2.283 34.88 0 99.022-69.555 206.74Q669.022-238.5 536.348-121.261q-11.718 10.479-26.554 15.718-14.837 5.239-29.794 5.239t-29.794-5.239q-14.836-5.239-26.554-15.718-66.435-60.717-117.391-117.956-50.957-57.239-85.055-111.218-34.097-53.978-51.717-104.554-17.62-50.576-17.62-97.968 0-153.347 99.011-244.261 99.011-90.913 229.12-90.913Zm284.022 171.153-52.891 52.891q-12.435 12.435-31.109 12.435t-31.109-12.435q-12.435-12.435-12.435-31.109t12.435-31.108l52.891-52.892-52.891-52.891q-12.435-12.435-12.435-31.109t12.435-31.108q12.435-12.435 31.109-12.435t31.109 12.435l52.891 52.891 52.891-52.891q12.435-12.435 31.109-12.435t31.109 12.435q12.434 12.434 12.434 31.108t-12.434 31.109l-52.892 52.891 52.892 52.892q12.434 12.434 12.434 31.108t-12.434 31.109q-12.435 12.435-31.109 12.435t-31.109-12.435l-52.891-52.891Z"/></svg>