<svg xmlns="http://www.w3.org/2000/svg" height="24" viewBox="0 -960 960 960" width="24"><path d="M621.539-366.154h-97.308q-7.231 0-12.654-5.423t-5.423-12.654v-191.538q0-7.231 5.423-12.654t12.654-5.423h97.308q17 0 28.5 11.5t11.5 28.5v147.692q0 17-11.5 28.5t-28.5 11.5Zm-201.539 0h-97.693q-10.333 0-17.089-6.752-6.757-6.751-6.757-17.076t6.757-17.095q6.756-6.769 17.089-6.769h83.847v-48.462h-50q-7.077 0-12.385-5.308-5.308-5.307-5.308-12.384t5.308-12.384q5.308-5.308 12.385-5.308h50v-48.462h-83.847q-10.333 0-17.089-6.752-6.757-6.751-6.757-17.076t6.757-17.095q6.756-6.769 17.089-6.769H420q14.384 0 24.115 9.731 9.731 9.731 9.731 24.115v160q0 14.384-9.731 24.115-9.731 9.731-24.115 9.731Zm133.846-47.692h55.385q2.308 0 3.462-1.154 1.154-1.154 1.154-3.461v-123.078q0-2.307-1.154-3.461t-3.462-1.154h-55.385v132.308Zm276.14-36.155q-12.756 0-21.371-8.625Q800-467.25 800-480q0-120-78.077-209.539-78.078-89.539-196.847-106.769l39.231 39.232q8.308 8.307 8.5 20.884.192 12.576-8.5 21.268-8.692 8.693-21.076 8.693-12.385 0-21.077-8.693L408.925-828.153q-6.077-6.077-3.782-15t11.474-11.153q15.273-3.558 31.31-4.625 16.036-1.068 32.073-1.068 78.85 0 148.199 29.925 69.35 29.925 120.65 81.225 51.3 51.3 81.225 120.65Q859.999-558.85 859.999-480q0 12.75-8.629 21.374-8.629 8.625-21.384 8.625ZM480-100.001q-78.85 0-148.199-29.925-69.35-29.925-120.65-81.225-51.3-51.3-81.225-120.65Q100.001-401.15 100.001-480q0-12.75 8.629-21.374 8.629-8.625 21.384-8.625 12.756 0 21.371 8.625Q160-492.75 160-480q0 120 78.077 209.539 78.078 89.539 196.847 106.769l-39.231-39.232q-8.308-8.307-8.5-20.884-.192-12.576 8.5-21.268 8.692-8.693 21.076-8.693 12.385 0 21.077 8.693l113.229 113.229q6.077 6.077 3.782 15t-11.474 11.153q-15.273 3.558-31.31 4.625-16.036 1.068-32.073 1.068Z"/></svg>