<svg xmlns="http://www.w3.org/2000/svg" height="24" viewBox="0 -960 960 960" width="24"><path d="M221.54-516.154v-36.977q0-66.56 30-121.252 30-54.692 80.769-90l-69.231-69.23 32.308-33.308 78.461 78.461q23.692-11.23 50.999-17.153 27.307-5.923 55.076-5.923 27.77 0 55.155 5.923 27.384 5.923 51.076 17.153l78.461-78.461 32.308 33.308-69.231 69.23q50.769 35.308 80.769 90 30 54.692 30 121.252v36.977H221.54Zm369.229-73.845q15.692 0 26.307-10.616 10.615-10.615 10.615-26.307 0-15.692-10.615-26.308-10.615-10.615-26.307-10.615-15.693 0-26.308 10.615-10.615 10.616-10.615 26.308t10.615 26.307q10.615 10.616 26.308 10.616Zm-221.538 0q15.693 0 26.308-10.616 10.615-10.615 10.615-26.307 0-15.692-10.615-26.308-10.615-10.615-26.308-10.615-15.692 0-26.307 10.615-10.615 10.616-10.615 26.308t10.615 26.307q10.615 10.616 26.307 10.616ZM480-73.079q-107.999 0-183.23-75.231-75.23-75.23-75.23-183.229v-147.692h516.92v147.781q0 108.064-75.23 183.217Q587.999-73.079 480-73.079Z"/></svg>