<svg xmlns="http://www.w3.org/2000/svg" height="24" viewBox="0 -960 960 960" width="24"><path d="M406.924-420.001q-15.366 0-25.76-10.395-10.394-10.394-10.394-25.759v-143.076q0-25.307 17.73-43.037 17.731-17.731 43.038-17.731H709.23q57.749 0 98.874 41.125 41.125 41.125 41.125 98.874v63.845q0 15.365-10.395 25.759-10.394 10.395-25.759 10.395H406.924ZM430.769-600v120-120Zm388.46 295.383H140.771q-12.75 0-21.375-8.629t-8.625-21.384q0-12.755 8.625-21.371 8.625-8.615 21.375-8.615h678.458q12.75 0 21.375 8.629t8.625 21.384q0 12.755-8.625 21.371-8.625 8.615-21.375 8.615ZM213.078-420.001q-43.077 0-72.692-29.615-29.615-29.615-29.615-72.692 0-43.076 29.615-72.691 29.615-29.615 72.692-29.615 43.076 0 72.691 29.615 29.615 29.615 29.615 72.691 0 43.077-29.615 72.692-29.615 29.615-72.691 29.615Zm0-59.999q17.981 0 30.144-12.164 12.164-12.163 12.164-30.144 0-17.981-12.164-30.144-12.163-12.164-30.144-12.164-17.981 0-30.144 12.164-12.164 12.163-12.164 30.144 0 17.981 12.164 30.144Q195.097-480 213.078-480Zm217.691 0H789.23v-40q0-33-23.5-56.5t-56.5-23.5H430.769v120Zm-217.691-42.308Z"/></svg>