<svg xmlns="http://www.w3.org/2000/svg" height="24" viewBox="0 -960 960 960" width="24"><path d="M480-100.001q-78.85 0-148.199-29.92-69.35-29.92-120.65-81.21-51.3-51.291-81.225-120.629-29.925-69.337-29.925-148.173t29.92-148.204q29.92-69.369 81.21-120.682 51.291-51.314 120.629-81.247 69.337-29.933 148.173-29.933t148.204 29.925q69.369 29.925 120.682 81.225 51.314 51.3 81.247 120.65Q859.999-558.85 859.999-480v48.769q0 54.768-37.607 92.999-37.607 38.231-92.393 38.231-35.384 0-65.615-17.308-30.231-17.308-47.769-47.616-25.923 30.923-61.269 47.923Q520-300.001 480-300.001q-74.922 0-127.461-52.538Q300.001-405.078 300.001-480t52.538-127.461Q405.078-659.999 480-659.999t127.461 52.538Q659.999-554.922 659.999-480v48.769q0 29.461 20.269 50.346Q700.537-360 729.999-360q29.462 0 49.732-20.885Q800-401.77 800-431.231V-480q0-134-93-227t-227-93q-134 0-227 93t-93 227q0 134 93 227t227 93h170.001q12.749 0 21.374 8.629Q680-142.743 680-129.987q0 12.755-8.625 21.37-8.625 8.616-21.374 8.616H480ZM480-360q50 0 85-35t35-85q0-50-35-85t-85-35q-50 0-85 35t-35 85q0 50 35 85t85 35Z"/></svg>