<svg xmlns="http://www.w3.org/2000/svg" height="24" viewBox="0 -960 960 960" width="24"><path d="M335.994-180.001q-15.3 0-25.646-10.395-10.347-10.394-10.347-25.759v-527.69q0-15.365 10.351-25.759 10.35-10.395 25.65-10.395h288.004q15.3 0 25.646 10.395 10.347 10.394 10.347 25.759v527.69q0 15.365-10.351 25.759-10.35 10.395-25.65 10.395H335.994Zm-183.684-110v-380.998q0-12.385 8.629-20.692 8.628-8.308 21.384-8.308 12.755 0 21.37 8.625 8.616 8.625 8.616 21.375v380.998q0 12.385-8.629 20.692-8.629 8.308-21.384 8.308-12.756 0-21.371-8.625-8.615-8.625-8.615-21.375Zm595.381 0v-380.998q0-12.385 8.629-20.692 8.629-8.308 21.384-8.308 12.756 0 21.371 8.625 8.615 8.625 8.615 21.375v380.998q0 12.385-8.629 20.692-8.628 8.308-21.384 8.308-12.755 0-21.37-8.625-8.616-8.625-8.616-21.375ZM360-240h240v-480H360v480Zm0 0v-480 480Z"/></svg>