<svg xmlns="http://www.w3.org/2000/svg" height="24" viewBox="0 -960 960 960" width="24"><path d="M127.693-220.001q-30.308 0-51.307-21-21-21-21-51.308v-375.382q0-30.308 21-51.308t51.307-21h375.383q30.307 0 51.307 21 21 21 21 51.308v375.382q0 30.308-21 51.308t-51.307 21H127.693Zm0-59.999h375.383q4.615 0 8.462-3.846 3.846-3.847 3.846-8.463v-375.382q0-4.616-3.846-8.463-3.847-3.846-8.462-3.846H127.693q-4.616 0-8.462 3.846-3.847 3.847-3.847 8.463v375.382q0 4.616 3.847 8.463 3.846 3.846 8.462 3.846Zm167.691-112.307-41.538-54.923q-5.616-7.231-14.462-6.923-8.846.307-14.461 7.538l-39.615 53.076q-6.846 9.231-1.115 19.077 5.73 9.846 16.576 9.846h229.23q10.846 0 16.077-9.846 5.231-9.846-1.615-19.077l-58.615-79.691q-5.616-7.231-14.462-7.231t-14.461 7.231l-61.539 80.923Zm414.615 172.306q-12.769 0-21.384-8.616Q680-237.232 680-250.001v-459.998q0-12.769 8.615-21.384 8.615-8.616 21.384-8.616t21.384 8.616q8.616 8.615 8.616 21.384v459.998q0 12.769-8.616 21.384-8.615 8.616-21.384 8.616Zm164.616 0q-12.769 0-21.384-8.616-8.615-8.615-8.615-21.384v-459.998q0-12.769 8.615-21.384 8.615-8.616 21.384-8.616t21.384 8.616q8.615 8.615 8.615 21.384v459.998q0 12.769-8.615 21.384-8.615 8.616-21.384 8.616ZM115.384-280V-680-280Z"/></svg>