<svg xmlns="http://www.w3.org/2000/svg" height="24" viewBox="0 -960 960 960" width="24"><path d="M252.309-100.001q-29.827 0-51.067-21-21.241-21-21.241-50.154v-460.767q0-53.385 34-93.423 34-40.039 86-50.577v-47.923q0-15.365 10.395-25.759 10.394-10.395 25.759-10.395h27.691q15.366 0 25.76 10.395Q400-839.21 400-823.845v43.846h160v-43.846q0-15.365 10.394-25.759 10.394-10.395 25.76-10.395h27.691q15.365 0 25.759 10.395 10.395 10.394 10.395 25.759v47.923q52 10.538 86 50.577 34 40.038 34 93.423v460.767q0 29.154-21.241 50.154-21.24 21-51.067 21H252.309Zm0-59.999h455.382q5.385 0 8.847-3.269 3.462-3.27 3.462-7.886v-460.767q0-36.332-26.438-62.205Q667.125-720 629.999-720H330.001q-37.126 0-63.563 25.873Q240-668.254 240-631.922v460.767q0 4.616 3.462 7.886 3.462 3.269 8.847 3.269Zm340-246.924v48.463q0 12.749 8.628 21.374 8.629 8.625 21.384 8.625 12.756 0 21.371-8.625 8.615-8.625 8.615-21.374v-72.308q0-15.365-10.394-25.759t-25.759-10.394H337.692q-12.75 0-21.374 8.629-8.625 8.628-8.625 21.384 0 12.755 8.625 21.37 8.624 8.615 21.374 8.615h254.617ZM480-440Z"/></svg>