<svg xmlns="http://www.w3.org/2000/svg" height="24" viewBox="0 -960 960 960" width="24"><path d="M240.035-150.771q-50.034 0-79.572-38.808-29.538-38.807-17.231-86.191l73.923-278.539q-32.615-15.999-54.884-49.499-22.27-33.5-22.27-76.192 0-57.749 41.125-98.874 41.125-41.125 98.874-41.125h299.999q40.625 0 61.389 34.346 20.764 34.346 2.687 70.5L576.384-579.77q-9.928 18.076-26.624 28.922-16.696 10.847-37.453 10.847h-91.77l-12.923 48.077h7.384q15.077.385 25.423 10.668 10.346 10.284 10.346 25.486v67.691q0 15.365-10.394 25.759-10.394 10.395-25.759 10.395h-44L336.768-223.77q-9.173 32.351-35.858 52.675-26.685 20.324-60.875 20.324ZM240-210.77q14 0 24-8t14-21l80.308-300.231h-83L201-260.77q-5 19 7 34.5t32 15.5ZM280-600h232.307q3.462 0 6.539-1.923 3.077-1.923 4.616-5.001l67.691-135.382q3.077-6.155-.577-11.924-3.654-5.77-10.577-5.77H280q-33 0-56.5 23.5T200-680q0 33 23.5 56.5T280-600Zm571.998-217.616L761.614-777q-9.077 4.23-18.524.509-9.446-3.721-13.553-12.817-4.231-9.077-.878-18.523 3.352-9.446 12.57-13.553L831.614-862q9.077-4.23 18.848-.509 9.772 3.721 13.844 12.817 4.23 9.077.509 18.523-3.721 9.446-12.817 13.553Zm-109.769 280q-9.186-4.138-13.362-14.068-4.176-9.931.055-18.908 4.23-9.792 14.115-13.215 9.884-3.423 19.577.807l90 42q9.076 4.231 12.307 13.423t-1 18.269q-4.231 9.077-13.423 12.615-9.192 3.539-18.269-.307l-90-40.616Zm124.692-117.769h-100q-10.666 0-17.64-6.979-6.975-6.98-6.975-17.654t6.975-17.636q6.974-6.961 17.64-6.961h100q10.667 0 17.641 6.979 6.974 6.98 6.974 17.654t-6.974 17.636q-6.974 6.961-17.641 6.961ZM397.692-680Zm-80.769 139.999Z"/></svg>