<svg xmlns="http://www.w3.org/2000/svg" height="24" viewBox="0 -960 960 960" width="24"><path d="M480-601.539q-13.731 0-23.019-9.288-9.288-9.288-9.288-23.019 0-13.73 9.288-23.019 9.288-9.288 23.019-9.288 13.731 0 23.019 9.288 9.288 9.289 9.288 23.019 0 13.731-9.288 23.019-9.288 9.288-23.019 9.288ZM326.154-447.693q-13.73 0-23.019-9.288-9.288-9.288-9.288-23.019 0-13.731 9.288-23.019 9.289-9.288 23.019-9.288 13.731 0 23.019 9.288 9.288 9.288 9.288 23.019 0 13.731-9.288 23.019-9.288 9.288-23.019 9.288Zm153.846 0q-13.731 0-23.019-9.288-9.288-9.288-9.288-23.019 0-13.731 9.288-23.019 9.288-9.288 23.019-9.288 13.731 0 23.019 9.288 9.288 9.288 9.288 23.019 0 13.731-9.288 23.019-9.288 9.288-23.019 9.288Zm153.846 0q-13.731 0-23.019-9.288-9.288-9.288-9.288-23.019 0-13.731 9.288-23.019 9.288-9.288 23.019-9.288 13.73 0 23.019 9.288 9.288 9.288 9.288 23.019 0 13.731-9.288 23.019-9.289 9.288-23.019 9.288ZM480-293.847q-13.731 0-23.019-9.288-9.288-9.289-9.288-23.019 0-13.731 9.288-23.019 9.288-9.288 23.019-9.288 13.731 0 23.019 9.288 9.288 9.288 9.288 23.019 0 13.73-9.288 23.019-9.288 9.288-23.019 9.288ZM326.154-755.384q-13.73 0-23.019-9.289-9.288-9.288-9.288-23.018 0-13.731 9.288-23.019 9.289-9.289 23.019-9.289 13.731 0 23.019 9.289 9.288 9.288 9.288 23.019 0 13.73-9.288 23.018-9.288 9.289-23.019 9.289Zm153.846 0q-13.731 0-23.019-9.289-9.288-9.288-9.288-23.018 0-13.731 9.288-23.019 9.288-9.289 23.019-9.289 13.731 0 23.019 9.289 9.288 9.288 9.288 23.019 0 13.73-9.288 23.018-9.288 9.289-23.019 9.289Zm153.846 0q-13.731 0-23.019-9.289-9.288-9.288-9.288-23.018 0-13.731 9.288-23.019 9.288-9.289 23.019-9.289 13.73 0 23.019 9.289 9.288 9.288 9.288 23.019 0 13.73-9.288 23.018-9.289 9.289-23.019 9.289Zm153.845 0q-13.73 0-23.018-9.289-9.289-9.288-9.289-23.018 0-13.731 9.289-23.019 9.288-9.289 23.018-9.289 13.731 0 23.019 9.289 9.289 9.288 9.289 23.019 0 13.73-9.289 23.018-9.288 9.289-23.019 9.289Zm0 153.845q-13.73 0-23.018-9.288-9.289-9.288-9.289-23.019 0-13.73 9.289-23.019 9.288-9.288 23.018-9.288 13.731 0 23.019 9.288 9.289 9.289 9.289 23.019 0 13.731-9.289 23.019-9.288 9.288-23.019 9.288Zm0 153.846q-13.73 0-23.018-9.288-9.289-9.288-9.289-23.019 0-13.731 9.289-23.019 9.288-9.288 23.018-9.288 13.731 0 23.019 9.288 9.289 9.288 9.289 23.019 0 13.731-9.289 23.019-9.288 9.288-23.019 9.288Zm0 153.846q-13.73 0-23.018-9.288-9.289-9.289-9.289-23.019 0-13.731 9.289-23.019 9.288-9.288 23.018-9.288 13.731 0 23.019 9.288 9.289 9.288 9.289 23.019 0 13.73-9.289 23.019-9.288 9.288-23.019 9.288ZM326.154-140.001q-13.73 0-23.019-9.289-9.288-9.288-9.288-23.019 0-13.73 9.288-23.018 9.289-9.289 23.019-9.289 13.731 0 23.019 9.289 9.288 9.288 9.288 23.018 0 13.731-9.288 23.019-9.288 9.289-23.019 9.289Zm153.846 0q-13.731 0-23.019-9.289-9.288-9.288-9.288-23.019 0-13.73 9.288-23.018 9.288-9.289 23.019-9.289 13.731 0 23.019 9.289 9.288 9.288 9.288 23.018 0 13.731-9.288 23.019-9.288 9.289-23.019 9.289Zm153.846 0q-13.731 0-23.019-9.289-9.288-9.288-9.288-23.019 0-13.73 9.288-23.018 9.288-9.289 23.019-9.289 13.73 0 23.019 9.289 9.288 9.288 9.288 23.018 0 13.731-9.288 23.019-9.289 9.289-23.019 9.289Zm153.845 0q-13.73 0-23.018-9.289-9.289-9.288-9.289-23.019 0-13.73 9.289-23.018 9.288-9.289 23.018-9.289 13.731 0 23.019 9.289 9.289 9.288 9.289 23.018 0 13.731-9.289 23.019-9.288 9.289-23.019 9.289Zm-647.69-30v-619.998q0-12.75 8.629-21.375t21.384-8.625q12.756 0 21.371 8.625Q200-802.749 200-789.999v619.998q0 12.75-8.629 21.375-8.628 8.625-21.384 8.625-12.755 0-21.37-8.625-8.616-8.625-8.616-21.375Z"/></svg>