<svg xmlns="http://www.w3.org/2000/svg" height="24" viewBox="0 -960 960 960" width="24"><path d="M613.615-116.847q-10.231 10.231-23.577 15.654-13.346 5.423-27.423 5.423-14.076 0-27.538-5.423-13.461-5.423-23.692-15.654l-52.923-52.538q-10.231-10.231-15.154-22.769-4.923-12.539-5.538-25.385-.615-12.846 3.885-25.692t13.115-23.692l8.308-9.923-326-466L280-885.768l500.153 500.153q10.231 10.231 15.654 23.577 5.423 13.346 5.423 27.423 0 14.076-5.423 27.538-5.423 13.461-15.654 23.692L613.615-116.847ZM505.461-319.614 634.232-447 280-801.232l-65.078 65.078 290.539 416.54Zm49.077 159.999q3.846 3.462 8.847 3.462 5 0 8.462-3.462l165.538-165.538q3.462-3.462 3.462-8.462 0-5.001-3.462-8.847L676-405.232 500.615-229.847q-3.846 3.847-3.846 9.039 0 5.193 3.846 8.655l53.923 52.538Zm-49.077-159.999L634.232-447 505.461-319.614Z"/></svg>