<svg xmlns="http://www.w3.org/2000/svg" height="24" viewBox="0 -960 960 960" width="24"><path d="m653.461-547 105.384-60.923q9.231-5.615 9.231-15.461t-9.231-15.462l-105.384-60.923q-8.231-4.615-18.077-4.615-9.846 0-18.077 4.615l-105.384 60.923q-9.23 5.616-9.23 15.462t9.23 15.461L617.307-547q8.231 4.615 18.077 4.615 9.846 0 18.077-4.615Zm0 117.923 70.769-40.385q8.231-4.615 13.154-13.154 4.923-8.538 4.923-18.384v-56.384l-88.846 51.615q-8.231 5-18.077 5-9.846 0-18.077-5l-88.846-51.615V-501q0 9.846 4.923 18.384 4.923 8.539 13.154 13.154l70.769 40.385q8.231 4.615 18.077 4.615 9.846 0 18.077-4.615Zm-504.23 249.076q-20.768 0-34.999-14.231-14.231-14.231-14.231-34.999 0-20.769 14.231-35 14.231-14.23 34.999-14.23 20.769 0 35 14.23 14.23 14.231 14.23 35 0 20.768-14.23 34.999-14.231 14.231-35 14.231Zm166.923 0q-12.154 0-21.077-7.577-8.923-7.577-11.153-19.731-8.693-61.461-53.039-104.307-44.346-42.846-106.192-52.308-11.538-1.615-18.115-10.845-6.577-9.231-6.577-21.385 0-12.768 8.385-21.384 8.384-8.615 19.923-6.999 85.153 9.692 145.422 69.96 60.268 60.269 70.191 145.422 1.615 12.154-6.692 20.654-8.308 8.5-21.076 8.5Zm155.384 0q-13.154 0-21.577-9.077-8.422-9.077-10.038-22.615-11.692-124.538-99.692-211.423-88-86.884-212.922-97.192-12.154-1.231-19.731-10.153-7.577-8.923-7.577-21.077 0-12.769 8.385-21.692 8.384-8.922 20.307-7.692 149.846 10.308 254.96 115.307 105.115 105 116.653 254.23 1.231 13.153-7.384 22.268-8.615 9.116-21.384 9.116Zm117.692 0q0-102.077-38.192-191-38.192-88.922-104.654-155.383-66.461-66.462-155.691-104.654-89.23-38.192-190.692-38.192v-38.461q0-29.923 21.193-51.115 21.192-21.193 51.115-21.193h615.382q29.923 0 51.115 21.193 21.193 21.192 21.193 51.115v455.382q0 29.923-21.193 51.115-21.192 21.193-51.115 21.193H589.23Z"/></svg>