<svg xmlns="http://www.w3.org/2000/svg" height="24" viewBox="0 -960 960 960" width="24"><path d="M607.307-502.077 712.692-563q9.23-5.423 9.23-15.365t-9.23-15.558l-105.385-60.923q-8.106-4.615-18.014-4.615t-18.139 4.615L465.77-593.923q-9.231 5.423-9.231 15.365 0 9.943 9.231 15.558l105.384 60.923q8.107 4.615 18.015 4.615 9.908 0 18.138-4.615Zm0 117.923 70.77-40.385q8.134-4.505 13.105-13.066 4.972-8.56 4.972-18.472v-56.384l-88.847 51.615q-8.134 5-18.076 5-9.943 0-18.077-5l-88.846-51.615v56.384q0 9.912 4.971 18.472 4.971 8.561 13.106 13.066l70.769 40.385q8.107 4.615 18.015 4.615 9.908 0 18.138-4.615ZM480-480Zm307.691 299.999H589.23q0-15-1.019-30Q587.192-225 585.153-240h202.538q5.385 0 8.847-3.462 3.462-3.462 3.462-8.847v-455.382q0-5.385-3.462-8.847-3.462-3.462-8.847-3.462H172.309q-5.385 0-8.847 3.462-3.462 3.462-3.462 8.847v42.538q-15-2.039-29.999-3.058-15-1.019-30-1.019v-38.461q0-29.827 21.241-51.067 21.24-21.241 51.067-21.241h615.382q29.827 0 51.067 21.241 21.241 21.24 21.241 51.067v455.382q0 29.827-21.241 51.067-21.24 21.241-51.067 21.241Zm-471.607 0q-12.084 0-21.007-7.577-8.923-7.577-11.153-19.731-8.693-61.461-53.039-104.499-44.346-43.039-106.192-52.116-11.574-1.5-18.133-10.874-6.559-9.375-6.559-21.375 0-12.749 8.693-21.365 8.692-8.615 20.23-6.999 85.153 9.692 145.114 69.96 59.961 60.269 69.884 145.422 1.615 12.154-6.692 20.654-8.308 8.5-21.146 8.5Zm155.454 0q-13.154 0-21.577-9.077-8.422-9.077-10.038-22.615-11.692-124.538-99.692-211.423-88-86.884-212.922-97.192-12.154-1.231-19.731-10.234-7.577-9.004-7.577-21.009 0-12.756 8.385-21.679 8.384-8.922 20.307-7.692 149.846 10.308 254.96 115.307 105.115 105 116.653 254.23 1.231 13.153-7.394 22.268-8.624 9.116-21.374 9.116Zm-330.79 0q-17.132 0-28.939-11.83-11.808-11.829-11.808-28.961 0-17.132 11.83-28.939 11.829-11.808 28.961-11.808 17.132 0 28.939 11.83 11.808 11.829 11.808 28.961 0 17.132-11.83 28.939-11.829 11.808-28.961 11.808Z"/></svg>