<svg xmlns="http://www.w3.org/2000/svg" height="24" viewBox="0 -960 960 960" width="24"><path d="M461.539-443.077h-44.923q-9.846 0-15.077-8.539-5.231-8.538-1-17.769l80.846-168.769q3.23-6.23 10.153-4.73t6.923 8.73v117.231h44.923q9.846 0 15.077 8.539 5.231 8.538 1 17.769l-80.846 168.769q-3.23 6.23-10.153 4.73t-6.923-8.73v-117.231ZM292.309-60.002q-30.308 0-51.308-21-21-20.999-21-51.307v-695.382q0-30.308 21-51.308t51.308-21h375.382q30.308 0 51.308 21t21 51.308v695.382q0 30.308-21 51.308t-51.308 21H292.309ZM280-170v37.692q0 4.616 3.846 8.463 3.847 3.846 8.463 3.846h375.382q4.616 0 8.463-3.846 3.846-3.847 3.846-8.463v-37.692H280Zm0-59.998h400v-500.002H280v500.002Zm0-560h400v-37.692q0-4.616-3.846-8.463-3.847-3.846-8.463-3.846H292.309q-4.616 0-8.463 3.846-3.846 3.847-3.846 8.463v37.692Zm0 0V-840v50.001Zm0 619.998V-120v-50.001Z"/></svg>