<svg xmlns="http://www.w3.org/2000/svg" height="24" viewBox="0 -960 960 960" width="24"><path d="M352.398-115.387q-22.628 0-37.512-14.795-14.885-14.795-14.885-37.423t14.795-37.512q14.795-14.884 37.423-14.884t37.512 14.795q14.885 14.795 14.885 37.422 0 22.628-14.795 37.512-14.795 14.885-37.423 14.885Zm389.227 0q-22.628 0-37.512-14.795t-14.884-37.423q0-22.628 14.795-37.512t37.422-14.884q22.628 0 37.512 14.795 14.885 14.795 14.885 37.422 0 22.628-14.795 37.512-14.795 14.885-37.423 14.885ZM525.384-642.922 384.769-812.459q34.462-15.308 72.231-22.577 37.769-7.269 79.614-7.269 37.538 0 71.5 7.654 33.961 7.654 63.098 22.991 10.017 6.816 12.017 18.585 2 11.769-7.847 19.615L525.384-642.922ZM480-320h154L360-652v212q0 50 35 85t85 35Zm17-166ZM131.526-700.769q-12.756 0-21.371-8.625-8.615-8.625-8.615-21.375 0-48.856 34.361-84.427 34.361-35.571 83.945-35.571 28.847 0 52.308 14.577T322-790.459l391.844 472.15q15.076 17.693 5.538 38-9.538 20.308-32.461 20.308H480q-74.922 0-127.461-52.538Q300.001-365.078 300.001-440v-284.152l-23.846-28.616q-17.846-22-30.616-30-12.769-8.001-26.462-8.001-24.659 0-41.099 17.616-16.439 17.615-16.439 42.384 0 12.75-8.629 21.375t-21.384 8.625Z"/></svg>