<svg xmlns="http://www.w3.org/2000/svg" height="24" viewBox="0 -960 960 960" width="24"><path d="M795.384-390.001v-179.998h111.538v179.998H795.384ZM240-290.001q-69.922 0-124.961-40.423-55.038-40.423-55.038-93.422v-112.308q0-53.999 55.038-93.922Q170.078-669.999 240-669.999q28.807 0 54.826 6.308 26.02 6.308 63.096 22.154 13.154 6 24.424 9.885 11.269 3.884 20.885 6.659 9.617 2.775 18.668 3.885 9.05 1.109 18.101 1.109h307.691v279.998H440q-9.051 0-18.101 1.109-9.051 1.11-18.668 3.885-9.616 2.775-20.885 6.659-11.27 3.885-24.424 9.885-37.076 15.846-63.096 22.154-26.019 6.308-54.826 6.308ZM107.693-462.308h33.846q7.076 0 12.384-5.308 5.308-5.307 5.308-12.384t-5.308-12.384q-5.308-5.308-12.384-5.308h-33.846q-7.077 0-12.385 5.308-5.307 5.307-5.307 12.384t5.307 12.384q5.308 5.308 12.385 5.308Z"/></svg>