<svg xmlns="http://www.w3.org/2000/svg" height="24" viewBox="0 -960 960 960" width="24"><path d="M441.539-366.154q-14.693 0-25.039-10.346-10.346-10.346-10.346-25.039v-156.922q0-14.693 10.346-25.039 10.346-10.346 25.039-10.346h116.922q14.693 0 25.039 10.346 10.346 10.346 10.346 25.039v156.922q0 14.693-10.346 25.039-10.346 10.346-25.039 10.346H441.539Zm12.307-47.692h92.308v-132.308h-92.308v132.308ZM686.154-270v-72.308q0-14.692 10.346-25.038t25.039-10.346h84.615v-48.462H709q-9.307 0-16.077-6.769-6.769-6.77-6.769-17.077 0-9.307 6.769-16.577 6.77-7.269 17.077-7.269h108.461q14.693 0 25.039 10.346 10.346 10.346 10.346 25.039v60.769q0 14.692-10.346 25.038t-25.039 10.346h-84.615v48.462H830q9.307 0 16.577 7.269 7.269 7.27 7.269 16.577 0 10.307-7.269 17.077-7.27 6.769-16.577 6.769H710q-10.307 0-17.077-6.769-6.769-6.77-6.769-17.077Zm-524.615-96.154q-15.077 0-25.231-10.154-10.154-10.154-10.154-25.231v-156.922q0-14.693 10.154-25.039 10.154-10.346 25.231-10.346h116.922q14.693 0 25.039 10.346 10.346 10.346 10.346 25.039v27.154q0 9.692-7.269 16.269-7.27 6.577-16.577 6.577-10.307 0-17.077-6.77-6.769-6.769-6.769-17.076v-13.847h-92.308v132.308h92.308v-13.847q0-9.307 6.769-16.576 6.77-7.27 17.077-7.27 9.307 0 16.577 7.27 7.269 7.269 7.269 16.576v26.154q0 15.077-10.346 25.231-10.346 10.154-25.039 10.154H161.539Z"/></svg>