<svg xmlns="http://www.w3.org/2000/svg" height="24" viewBox="0 -960 960 960" width="24"><path d="M206.154-326.154h67.692q-1.924-27.231-21.192-46.5-19.269-19.268-46.5-21.192v67.692Zm142 0h46.461q0-78.385-55.125-133.423t-133.336-55.038v46.461q59 0 100.5 41.5t41.5 100.5Zm120.77 0h46.46q0-63.692-24.158-120.243-24.159-56.552-66.195-98.602-42.036-42.051-98.567-66.218-56.531-24.167-120.31-24.167v46.46q109.385 0 186.077 76.725 76.693 76.725 76.693 186.045ZM172.309-220.001q-30.308 0-51.308-21t-21-51.308v-455.382q0-30.308 21-51.308t51.308-21h615.382q30.308 0 51.308 21t21 51.308v455.382q0 30.308-21 51.308t-51.308 21H619.999v43.846q0 15.365-10.395 25.759-10.394 10.395-25.759 10.395h-207.69q-15.365 0-25.759-10.395-10.395-10.394-10.395-25.759v-43.846H172.309Z"/></svg>