<svg xmlns="http://www.w3.org/2000/svg" height="24" viewBox="0 -960 960 960" width="24"><path d="M676.154-100.001q-15.462 0-25.808-10.347Q640-120.694 640-136.155v-51.154q-40.154-11.461-71.539-37.961-31.384-26.5-49-63.885-5.692-11.154 0-22.692 5.693-11.538 17.461-16.615 10.539-4.461 21.077.808 10.538 5.269 16.23 15.807Q590.999-279 622.076-259.5t67.923 19.5h120q20.769 0 35.384 14.615 14.616 14.615 14.616 35.384v53.846q0 15.461-10.347 25.807-10.346 10.347-25.807 10.347H676.154Zm73.845-200q-29.153 0-49.576-20.423Q680-340.847 680-370.001q0-29.153 20.423-49.576Q720.846-440 749.999-440q29.154 0 49.577 20.423t20.423 49.576q0 29.154-20.423 49.577t-49.577 20.423Zm-83.923-367.614q-90.539 9.308-154.731 73.808T437.23-438.769Q436-426 427.077-418.001q-8.923 8-21.692 8t-21.576-9q-8.808-8.999-7.193-21.153 10.923-115.691 92.577-196.229 81.653-80.538 197.344-90.846 11.923-1.615 20 7t8.077 21.384q0 12.154-8.193 20.884-8.192 8.731-20.345 10.346Zm4.461 141.23q-35.231 6.846-60.347 31.654-25.115 24.807-31.961 60.038-2.846 10.539-12.269 17.615-9.423 7.077-20.576 7.077-12.769 0-21.077-8.192-8.307-8.192-6.692-18.73 8.692-59.154 50.73-100.269 42.039-41.115 101.192-49.807 10.923-1.616 18 7 7.077 8.615 7.077 20.768 0 11.538-6.577 20.769-6.577 9.231-17.5 12.077ZM136.155-520q-15.461 0-25.807-10.346-10.347-10.346-10.347-25.808v-53.845q0-20.769 14.616-35.384 14.615-14.616 35.384-14.616h120q36.846 0 67.923-19.5 31.077-19.5 47.847-52.346 5.692-10.539 16.23-17.115 10.538-6.577 22.077-2.731 12.768 3.846 18.653 14.577 5.884 10.73 1.423 21.268-16.615 40.385-49.385 68.231Q362-619.769 320-607.307v51.153q0 15.462-10.346 25.808T283.846-520H136.155Zm73.846-200q-29.154 0-49.577-20.423t-20.423-49.576q0-29.154 20.423-49.577t49.577-20.423q29.153 0 49.576 20.423Q280-819.153 280-789.999q0 29.153-20.423 49.576Q239.154-720 210.001-720Z"/></svg>