<svg xmlns="http://www.w3.org/2000/svg" height="24" viewBox="0 -960 960 960" width="24"><path d="M172.309-180.001q-30.308 0-51.308-21t-21-51.308v-455.382q0-30.308 21-51.308t51.308-21h615.382q30.308 0 51.308 21t21 51.308v220.228q-30.923-13-65.423-6.653-34.5 6.346-60.038 31.884L591.846-318.539l-31.154-30.924q-34.616-34.615-82.846-34.307-48.231.307-82.846 34.923-34.846 34.846-35.039 82.884-.192 48.039 33.654 82.269l3.692 3.693H172.309ZM160-623.845v127.69h640v-127.69H160Zm431.846 429.076 205.077-205.078q8.923-8.923 21.192-8.807 12.269.115 21.576 9.423 8.693 9.307 9 21.076.308 11.769-9 21.076L617.153-134.54q-10.846 10.846-25.307 10.846-14.462 0-25.308-10.846L456.769-244.309q-8.307-8.308-8.807-20.577-.5-12.269 8.807-21.576 8.692-8.692 20.769-8.692 12.077 0 21.384 8.692l92.924 91.693Z"/></svg>