<svg xmlns="http://www.w3.org/2000/svg" height="24" viewBox="0 -960 960 960" width="24"><path d="M240-363.077q-15.692 0-26.308-10.615-10.615-10.616-10.615-26.308t10.615-26.308q10.616-10.615 26.308-10.615t26.308 10.615q10.615 10.616 10.615 26.308t-10.615 26.308Q255.692-363.077 240-363.077Zm0 160q-15.692 0-26.308-10.615-10.615-10.616-10.615-26.308t10.615-26.308q10.616-10.615 26.308-10.615t26.308 10.615q10.615 10.616 10.615 26.308t-10.615 26.308Q255.692-203.077 240-203.077Zm0-320q-15.692 0-26.308-10.616-10.615-10.615-10.615-26.307 0-15.692 10.615-26.307 10.616-10.616 26.308-10.616t26.308 10.616q10.615 10.615 10.615 26.307 0 15.692-10.615 26.307-10.616 10.616-26.308 10.616ZM120-540q-8 0-14-6t-6-14q0-8 6-14t14-6q8 0 14 6t6 14q0 8-6 14t-14 6Zm120-143.077q-15.692 0-26.308-10.616-10.615-10.615-10.615-26.307 0-15.692 10.615-26.307 10.616-10.616 26.308-10.616t26.308 10.616q10.615 10.615 10.615 26.307 0 15.692-10.615 26.307-10.616 10.616-26.308 10.616ZM120-380q-8 0-14-6t-6-14q0-8 6-14t14-6q8 0 14 6t6 14q0 8-6 14t-14 6Zm280 280q-8 0-14-6t-6-14q0-8 6-14t14-6q8 0 14 6t6 14q0 8-6 14t-14 6Zm0-720q-8 0-14-6t-6-14q0-8 6-14t14-6q8 0 14 6t6 14q0 8-6 14t-14 6Zm0 136.923q-15.692 0-26.308-10.616-10.615-10.615-10.615-26.307 0-15.692 10.615-26.307 10.616-10.616 26.308-10.616t26.308 10.616q10.615 10.615 10.615 26.307 0 15.692-10.615 26.307-10.616 10.616-26.308 10.616Zm.091 336.923q-22.398 0-38.168-15.679-15.769-15.679-15.769-38.076 0-22.398 15.679-38.168 15.679-15.769 38.076-15.769 22.398 0 38.168 15.679 15.769 15.679 15.769 38.076 0 22.398-15.679 38.168-15.679 15.769-38.076 15.769Zm0-160q-22.398 0-38.168-15.679-15.769-15.678-15.769-38.076t15.679-38.168q15.679-15.769 38.076-15.769 22.398 0 38.168 15.679 15.769 15.678 15.769 38.076t-15.679 38.168q-15.679 15.769-38.076 15.769ZM400-203.077q-15.692 0-26.308-10.615-10.615-10.616-10.615-26.308t10.615-26.308q10.616-10.615 26.308-10.615t26.308 10.615q10.615 10.616 10.615 26.308t-10.615 26.308Q415.692-203.077 400-203.077Zm90.001 72.692v-59.999q116-3.077 198-86.808 82-83.731 82-202.808t-82-202.808q-82-83.731-198-86.808v-59.999q70.538 1.539 132.576 29.654 62.038 28.116 108.154 75.577 46.115 47.462 72.691 110.381Q829.999-551.084 829.999-480q0 71.084-26.577 134.003-26.576 62.919-72.691 110.381-46.116 47.461-108.154 75.577-62.038 28.115-132.576 29.654Zm0-349.615Z"/></svg>