<svg xmlns="http://www.w3.org/2000/svg" height="24" viewBox="0 -960 960 960" width="24"><path d="M720-237.692q25 0 42.5-17.5t17.5-42.5q0-25-17.5-42.5t-42.5-17.5q-25 0-42.5 17.5t-17.5 42.5q0 25 17.5 42.5t42.5 17.5Zm0 120q30 0 56-14t43-39q-23-14-48-20.5t-51-6.5q-26 0-51 6.5t-48 20.5q17 25 43 39t56 14Zm0 59.998q-74.922 0-127.461-52.538-52.538-52.538-52.538-127.46 0-74.923 52.538-127.461Q645.078-417.691 720-417.691t127.461 52.538q52.538 52.538 52.538 127.461 0 74.922-52.538 127.46Q794.922-57.694 720-57.694ZM320-605.385h320q12.75 0 21.375-8.629 8.624-8.628 8.624-21.384 0-12.755-8.624-21.37-8.625-8.616-21.375-8.616H320q-12.75 0-21.374 8.629-8.625 8.629-8.625 21.384 0 12.756 8.625 21.371 8.624 8.615 21.374 8.615Zm143.923 465.384H212.309q-29.827 0-51.067-21.241-21.241-21.24-21.241-51.067v-535.382q0-29.827 21.241-51.067 21.24-21.241 51.067-21.241h535.382q29.827 0 51.067 21.241 21.241 21.24 21.241 51.067v252.998q-24.385-10.153-49.077-15.422-24.692-5.269-50.922-5.269-15.616 0-29.924 1.846t-28.539 5.769q-6.75-1.487-15-1.859-8.249-.371-14.999-.371H320q-12.75 0-21.374 8.628-8.625 8.629-8.625 21.384 0 12.756 8.625 21.371 8.624 8.615 21.374 8.615h224.232q-24.154 18.923-42.885 42.962-18.731 24.039-31.654 52.424H320q-12.75 0-21.374 8.629-8.625 8.628-8.625 21.384 0 12.755 8.625 21.37 8.624 8.616 21.374 8.616h130.693q-3.154 13.461-4.616 26.808-1.461 13.346-1.461 27.808 0 25.692 4.077 50.922 4.076 25.231 15.23 49.077Z"/></svg>