<svg xmlns="http://www.w3.org/2000/svg" height="24" viewBox="0 -960 960 960" width="24"><path d="M152.002-815.691 207.693-760h-35.384q-4.616 0-8.463 3.846-3.846 3.847-3.846 8.463v415.382q0 5.385 3.462 8.847 3.462 3.462 8.847 3.462h391.078L70.617-812.771q-8.308-8.307-8.5-20.884-.193-12.576 8.5-21.269 8.692-8.692 21.076-8.692t21.076 8.692l727.538 727.538q8.308 8.308 8.5 20.884.192 12.577-8.5 21.27-8.692 8.691-21.076 8.691-12.385 0-21.077-8.692L623.386-260h-83.387v80h50q12.769 0 21.384 8.615 8.616 8.615 8.616 21.384t-8.616 21.384q-8.615 8.615-21.384 8.615H370.001q-12.769 0-21.384-8.615-8.616-8.615-8.616-21.384t8.616-21.384q8.615-8.615 21.384-8.615h50v-80H172.309q-30.308 0-51.308-21t-21-51.308v-415.382q0-32.769 21-50.385 21-17.615 31.001-17.615Zm663.305 549.69L761.308-320h28.307q3.846-.769 7.116-3.846 3.269-3.078 3.269-8.463v-415.382q0-5.385-3.462-8.847-3.462-3.462-8.847-3.462H321.308l-59.998-59.999h526.381q30.308 0 51.308 21t21 51.308v415.382q0 22.923-12.385 40.808-12.384 17.884-32.307 25.5ZM541.308-540Zm-175.383 22.537Z"/></svg>