<svg xmlns="http://www.w3.org/2000/svg" height="24" viewBox="0 -960 960 960" width="24"><path d="M339.846-553.846q-23.352 0-42.214-13.576-18.862-13.577-26.477-35.885l-21.924-65.923h-36.922q-29.827 0-51.067-21.24-21.241-21.24-21.241-51.067v-103.076h679.998v103.076q0 29.827-21.241 51.067-21.24 21.24-51.067 21.24h-36.922l-26.385 68.385q-8.158 20.788-26.287 33.894-18.129 13.105-40.79 13.105H339.846ZM312.461-669.23l15.846 47.308q1.539 3.847 4.616 5.962 3.077 2.116 6.923 2.116h280.308q3.846 0 6.923-2.116 3.077-2.115 4.616-5.962l15.846-47.308H312.461Zm28.738 289.613q-20.814 0-35.429-14.57-14.615-14.57-14.615-35.384T305.725-465q14.569-14.615 35.384-14.615 20.814 0 35.429 14.57 14.615 14.569 14.615 35.384 0 20.814-14.57 35.429-14.57 14.615-35.384 14.615Zm139.231 120q-20.814 0-35.429-14.57-14.616-14.57-14.616-35.384T444.955-345q14.57-14.615 35.384-14.615 20.815 0 35.43 14.57 14.615 14.569 14.615 35.384 0 20.814-14.57 35.429-14.57 14.615-35.384 14.615Zm-139.231 120q-20.814 0-35.429-14.57-14.615-14.57-14.615-35.384T305.725-225q14.569-14.615 35.384-14.615 20.814 0 35.429 14.57 14.615 14.569 14.615 35.384 0 20.814-14.57 35.429-14.57 14.615-35.384 14.615Zm278.077-240q-20.814 0-35.429-14.57-14.616-14.57-14.616-35.384T583.801-465q14.57-14.615 35.384-14.615 20.815 0 35.43 14.57 14.615 14.569 14.615 35.384 0 20.814-14.57 35.429-14.57 14.615-35.384 14.615Zm.769 240q-20.814 0-35.429-14.57-14.615-14.57-14.615-35.384T584.571-225q14.57-14.615 35.384-14.615t35.429 14.57q14.615 14.569 14.615 35.384 0 20.814-14.57 35.429-14.57 14.615-35.384 14.615Zm138.077-120q-20.814 0-35.429-14.57-14.615-14.57-14.615-35.384T722.647-345q14.57-14.615 35.385-14.615 20.814 0 35.429 14.57 14.615 14.569 14.615 35.384 0 20.814-14.57 35.429-14.57 14.615-35.384 14.615Zm-555.769 0q-20.814 0-35.429-14.57-14.615-14.57-14.615-35.384T166.879-345q14.569-14.615 35.384-14.615 20.814 0 35.429 14.57 14.615 14.569 14.615 35.384 0 20.814-14.57 35.429-14.57 14.615-35.384 14.615Z"/></svg>