<svg xmlns="http://www.w3.org/2000/svg" height="24" viewBox="0 -960 960 960" width="24"><path d="M810.617-65.078 639.615-236.079l-109 109q-10.83 10.846-23.916 16.269-13.086 5.424-26.623 5.424t-26.677-5.424q-13.14-5.423-24.014-16.269L127.079-429.385q-10.846-10.83-16.269-23.916-5.424-13.086-5.424-26.623t5.424-26.677q5.423-13.14 16.269-24.014l109-109L72.309-802.77q-8.923-8.923-8.807-21.192.115-12.269 9.422-21.576 9.308-9.308 21.384-9.308 12.077 0 21.385 9.308L853.385-107.23q8.923 8.922 9.115 20.884.193 11.961-9.115 21.269-9.307 9.307-21.384 9.307t-21.384-9.307Zm-212.77-212.769-320-320-109.385 109.385Q165-485 165-480t3.462 8.462l303.076 303.076Q475-165 480-165t8.462-3.462l109.385-109.385Zm141.152-57.616-41.768-41.768 94.307-94.307Q795-475 795-480t-3.462-8.462L488.462-791.538Q485-795 480-795t-8.462 3.462l-94.307 94.307-41.768-41.768 93.922-93.922q10.83-10.846 23.916-16.269 13.086-5.424 26.623-5.424t26.677 5.424q13.14 5.423 24.014 16.269l302.306 302.306q10.846 10.83 16.269 23.916 5.424 13.086 5.424 26.623t-5.424 26.677q-5.423 13.14-16.269 24.014l-93.922 93.922ZM537.231-537.231Zm-99.384 99.384ZM330.001-400v-113.846q0-15.365 10.394-25.759t25.759-10.394h44.462l59.999 59.998h-80.616V-400q0 12.75-8.628 21.374-8.629 8.625-21.384 8.625-12.756 0-21.371-8.625-8.615-8.624-8.615-21.374Zm279.921-64.539 30.589-30.304q10.796-10.696 10.796-25.297t-10.846-25.552L579-606.768q-8.461-8.461-18.73-4.263-10.269 4.199-10.269 15.955v45.077h-25.539l85.46 85.46Z"/></svg>