<svg xmlns="http://www.w3.org/2000/svg" height="24" viewBox="0 -960 960 960" width="24"><path d="M358.462-77.617q-46 0-81.538-25.923-35.539-25.923-52.077-68.692-14.077 20.615-37.038 31.731-22.961 11.115-47.808 11.115-46.384 0-78.191-32.115-31.808-32.115-31.808-77.884 0-39.923 26.846-72.308 26.846-32.384 67.923-35.076Q107.694-366 98.078-390.231 88.463-414.462 88.463-441q0-36.539 18.384-68.654 18.385-32.115 51.538-52.576 3.846 13.384 10.423 28.691 6.577 15.308 14.5 26.846-16.308 12.538-25.077 29.962-8.77 17.423-8.77 36.731 0 59.077 46 74.577t90.847 24.269l13.999 23.923q-11 32-18.423 54.308-7.423 22.307-7.423 40.692 0 33.846 24.385 59.039Q323.231-138 358.078-138q35.461 0 60-25.654 24.538-25.653 41-63.307t26.346-79.808q9.885-42.154 16.27-75.154 2.615-13.538 13.153-21.115 10.538-7.577 22.692-3.731 13.154 3.846 19.346 15.577 6.192 11.73 2.961 25.268-8.615 43.308-21.654 93.769-13.038 50.462-35.384 93.692-22.346 43.231-57.115 72.039-34.769 28.808-87.231 28.808Zm66.845-294.921q-9.923 9.923-23.999 8.23-14.077-1.692-25-11.615Q301.231-444 255.616-499.269q-45.615-55.269-45.615-119.73 0-60.769 41.615-102.384Q293.231-762.999 354-762.999q7.462 0 13.347.885 5.884.885 11.808 2.039-4.385-9.616-6.77-19.423-2.384-9.808-2.384-20.808 0-45.769 32.115-77.884T480-910.305q45.769 0 77.884 32.115t32.115 77.884q0 11-2.384 20.5-2.385 9.5-6.77 19.115 5.924-1.154 11.808-1.731 5.885-.577 13.347-.577 52.692 0 90.653 32.154 37.961 32.153 48.269 80.691-13.769-2.231-30.884-2.231-17.115 0-31.499 1.616-8.923-23-29.154-37.616Q633.154-703 606-703q-36.154 0-57 19.923-20.846 19.923-55.616 60.077h-27.768q-35.77-41.769-56.616-60.885Q388.154-703 354-703q-36.231 0-60.116 23.885-23.885 23.885-23.885 60.116 0 43.154 39.693 90.385 39.692 47.23 109 110.538 10.923 9.308 13.423 22.769 2.5 13.461-6.808 22.769ZM599.769-77.232q-18.154 0-35.808-4.461-17.653-4.462-34.191-14.385 8.307-10.538 16.615-24.922 8.307-14.384 14.999-26.538 9.846 5.462 19.885 7.692 10.038 2.231 19.884 2.231 35.462 0 60.039-25.192 24.577-25.193 24.577-60.039 0-19-7.423-40.808t-18.423-53.808l14.384-23.922q45.847-8.77 91.347-24.462 45.5-15.693 45.5-74.77 0-44.231-31.808-64.923-31.808-20.693-70.654-20.693-35.77 0-82.731 11.808-46.962 11.808-107.116 31.192-13.538 3.846-25.884-.731-12.346-4.576-16.192-17.73-3.846-13.153 4.039-24.499 7.884-11.346 21.038-15.192Q563.692-561 613.73-574q50.039-13 93.269-13 64.769 0 114.461 38.308 49.692 38.307 49.692 108.076 0 26.539-9.423 50.193-9.423 23.654-26.5 43.654 41.077 3.076 67.923 35.076 26.846 32 26.846 72.308 0 45.384-31.808 77.691-31.807 32.308-78.191 32.308-24.847 0-47.808-11.115-22.961-11.116-37.038-31.731-16.538 42.769-52.461 68.885-35.923 26.115-82.923 26.115Z"/></svg>