<svg xmlns="http://www.w3.org/2000/svg" height="24" viewBox="0 -960 960 960" width="24"><path d="m792.154-82.31-90.231-90.23Q654.077-137.848 598-118.925q-56.077 18.924-118 18.924-78.85 0-148.199-29.925-69.35-29.925-120.65-81.225-51.3-51.3-81.225-120.65Q100.001-401.15 100.001-480q0-61.923 18.924-118 18.923-56.077 53.615-103.923l-90.23-90.231 42.768-42.768 709.844 709.844-42.768 42.768Zm-427.69-427.689H320q-12.75 0-21.374 8.628-8.625 8.629-8.625 21.384 0 12.756 8.307 21.371 8.308 8.615 20.692 8.615h105.463l-59.999-59.998Zm434.92 236.152L623.23-450.001H640q12.75 0 21.375-8.628 8.624-8.629 8.624-21.384 0-12.756-8.307-21.371-8.308-8.615-20.692-8.615h-77.769L273.847-799.384q45.82-29.389 97.717-45.002Q423.462-859.999 480-859.999q78.85 0 148.199 29.925 69.35 29.925 120.65 81.225 51.3 51.3 81.225 120.65Q859.999-558.85 859.999-480q0 56.538-15.613 108.436-15.613 51.897-45.002 97.717Z"/></svg>