<svg xmlns="http://www.w3.org/2000/svg" height="24" viewBox="0 -960 960 960" width="24"><path d="M55.372-290.001q-12.755 0-21.37-8.625-8.616-8.624-8.616-21.374v-200q0-12.75 8.63-21.375 8.628-8.624 21.383-8.624 12.756 0 21.37 8.624 8.616 8.625 8.616 21.375v200q0 12.75-8.629 21.374-8.628 8.625-21.384 8.625Zm115.385-120q-12.756 0-21.371-8.625-8.615-8.624-8.615-21.374v-200q0-12.75 8.628-21.375 8.629-8.624 21.385-8.624 12.755 0 21.37 8.624 8.615 8.625 8.615 21.375v200q0 12.75-8.628 21.374-8.629 8.625-21.384 8.625Zm157.705 310q-30.307 0-51.307-21-21-21-21-51.308v-615.382q0-30.308 21-51.308t51.307-21h303.076q30.307 0 51.307 21 21 21 21 51.308v615.382q0 30.308-21 51.308t-51.307 21H328.462Zm315.384-110H316.154v37.692q0 4.616 3.846 8.463 3.846 3.846 8.462 3.846h303.076q4.616 0 8.462-3.846 3.846-3.847 3.846-8.463v-37.692ZM316.154-749.999h327.692v-37.692q0-4.616-3.846-8.463-3.846-3.846-8.462-3.846H328.462q-4.616 0-8.462 3.846-3.846 3.847-3.846 8.463v37.692Zm473.062 459.998q-12.755 0-21.37-8.625-8.615-8.624-8.615-21.374v-200q0-12.75 8.628-21.375 8.629-8.624 21.384-8.624 12.756 0 21.371 8.624 8.615 8.625 8.615 21.375v200q0 12.75-8.628 21.374-8.629 8.625-21.385 8.625Zm115.385-120q-12.756 0-21.371-8.625-8.615-8.624-8.615-21.374v-200q0-12.75 8.629-21.375 8.628-8.624 21.384-8.624 12.755 0 21.37 8.624 8.616 8.625 8.616 21.375v200q0 12.75-8.629 21.374-8.629 8.625-21.384 8.625ZM316.154-749.999V-800v50.001Zm0 539.998V-160v-50.001Zm0-59.998h327.692v-420.002H316.154v420.002Z"/></svg>