<svg xmlns="http://www.w3.org/2000/svg" height="24" viewBox="0 -960 960 960" width="24"><path d="M252.309-100.001q-30.308 0-51.308-21t-21-51.308v-615.382q0-30.308 21-51.308t51.308-21h287.769q14.632 0 27.893 5.616 13.26 5.615 23.107 15.461l167.844 167.844q9.846 9.847 15.461 23.107 5.616 13.261 5.616 27.893v98.155q-21.462 3.846-40.112 14.086-18.651 10.241-34.503 26.067L487.076-263.846Q477.23-254 471.307-240.74q-5.923 13.261-5.923 27.893v112.846H252.309Zm300.767-36.154v-54.461q0-7.063 2.616-13.685 2.615-6.622 8.23-12.238L770.23-421.846q7.461-7.077 16.111-10.308 8.649-3.23 17.299-3.23 9.435 0 18.252 3.538 8.816 3.539 16.029 10.615l37 37.385q6.461 7.461 10 16.153 3.538 8.693 3.538 17.385 0 8.692-3.23 17.692-3.231 9-10.308 16.461L669.614-110.848q-5.616 5.616-12.238 8.231-6.622 2.616-13.685 2.616H589.23q-15.365 0-25.759-10.395-10.395-10.394-10.395-25.759Zm250.692-175.538 37-38.615-37-37.385-38 38 38 38ZM576.001-620.001H720L540.001-800 720-620.001 540.001-800v143.999q0 15.3 10.35 25.65 10.35 10.35 25.65 10.35Z"/></svg>