<svg xmlns="http://www.w3.org/2000/svg" height="24" viewBox="0 -960 960 960" width="24"><path d="M297.694-406.154v120q0 15.461 10.346 25.807 10.346 10.346 25.807 10.346h27.692q15.461 0 25.807-10.346 10.346-10.346 10.346-25.807v-120h3.847q11.769-6.769 23.961-14.039 12.192-7.269 12.192-22.115v-65.385q0-29.153-20.423-49.576-20.423-20.423-49.576-20.423h-40q-29.154 0-49.577 20.423-20.422 20.423-20.422 49.576v65.385q0 14.846 12.192 22.115 12.192 7.27 23.961 14.039h3.847Zm49.999-210q19.461 0 32.807-13.346 13.346-13.346 13.346-32.807 0-19.462-13.346-32.808t-32.807-13.346q-19.462 0-32.808 13.346t-13.346 32.808q0 19.461 13.346 32.807 13.346 13.346 32.808 13.346Zm214.077 86.153h108.767q9.308 0 13.462-7.807 4.153-7.808-.308-15.5l-54.769-87.383q-4.461-7.693-12.768-7.693-8.308 0-12.769 7.693l-54.769 87.383q-4.461 7.692-.308 15.5 4.154 7.807 13.462 7.807Zm67.152 210.692 54.769-87.383q4.461-7.692.308-15.5-4.154-7.807-13.462-7.807H561.77q-9.308 0-13.462 7.807-4.153 7.808.308 15.5l54.769 87.383q4.461 7.693 12.769 7.693 8.307 0 12.768-7.693ZM212.309-140.001q-30.308 0-51.308-21t-21-51.308v-535.382q0-30.308 21-51.308t51.308-21h535.382q30.308 0 51.308 21t21 51.308v535.382q0 30.308-21 51.308t-51.308 21H212.309Z"/></svg>