<svg xmlns="http://www.w3.org/2000/svg" height="24" viewBox="0 -960 960 960" width="24"><path d="M460-290.001q70.833 0 120.416-49.583T629.999-460v-169.999H460q-70.833 0-120.416 49.583T290.001-460q0 26.811 7.384 51.559 7.385 24.749 23.308 45.98l-21.769 21.385q-8.693 8.692-8.693 21.076t8.693 21.076q8.692 8.693 21.076 8.693t21.076-8.693l21.385-21.769q21.616 15.538 46.385 23.115 24.769 7.577 51.154 7.577Zm0-59.998q-14 0-27.424-3.539-13.423-3.538-25.5-10.769l94-94.617q8.693-8.692 8.693-21.076t-8.693-21.076q-8.692-8.693-21.076-8.693t-21.076 8.693l-94.617 94q-7.231-12.077-10.769-25.5Q349.999-446 349.999-460q0-46.2 31.9-78.101 31.901-31.9 78.101-31.9h110.001V-460q0 46.2-31.9 78.101-31.901 31.9-78.101 31.9Zm20 281.535L350.927-169.477l-161.808-19.642-19.642-161.808L68.464-480l101.013-129.073 19.642-161.808 161.808-19.642L480-891.536l129.073 101.013 161.808 19.642 19.642 161.808L891.536-480 790.523-350.927l-19.642 161.808-161.808 19.642L480-68.464Zm0-76.613 105.035-81.254 132.78-16.845 15.854-131.789L814.923-480l-81.254-105.035-16.845-131.789-131.789-16.845L480-814.923l-105.035 81.254-132.78 16.845-15.854 131.789L145.077-480l81.254 105.035 16.845 132.78 131.789 15.854L480-145.077ZM480-480Zm0 0Z"/></svg>