<svg xmlns="http://www.w3.org/2000/svg" height="24" viewBox="0 -960 960 960" width="24"><path d="M761.923-254.693V-185q0 7.076 5.308 12.384 5.308 5.308 12.384 5.308 7.077 0 12.385-5.308 5.307-5.308 5.307-12.384v-111.923q0-7.231-5.423-12.654T779.231-315H667.308q-7.077 0-12.384 5.308-5.308 5.308-5.308 12.385 0 7.076 5.308 12.384 5.307 5.308 12.384 5.308H737l-94.153 94.153q-5.231 5.231-5.423 12.269-.193 7.039 5.423 12.654 5.37 5.231 12.531 5.231 7.161 0 12.392-5.231l94.153-94.154ZM720-57.693q-74.922 0-127.461-52.539-52.538-52.538-52.538-127.46 0-74.923 52.538-127.461Q645.078-417.691 720-417.691t127.461 52.538q52.538 52.538 52.538 127.461 0 74.922-52.538 127.46Q794.922-57.694 720-57.694ZM320-605.386h320q12.75 0 21.375-8.629 8.624-8.628 8.624-21.384 0-12.755-8.624-21.37-8.625-8.616-21.375-8.616H320q-12.75 0-21.374 8.629-8.625 8.629-8.625 21.384 0 12.756 8.625 21.371 8.624 8.615 21.374 8.615Zm143.923 465.384H212.309q-29.827 0-51.067-21.241-21.241-21.24-21.241-51.067v-535.382q0-29.827 21.241-51.067 21.24-21.241 51.067-21.241h535.382q29.827 0 51.067 21.241 21.241 21.24 21.241 51.067v252.998q-24.385-10.153-49.077-15.422-24.692-5.269-50.922-5.269-15.616 0-29.924 1.846t-28.539 5.769q-6.75-1.487-15-1.859-8.249-.371-14.999-.371H320q-12.75 0-21.374 8.628-8.625 8.629-8.625 21.384 0 12.756 8.625 21.371 8.624 8.615 21.374 8.615h224.232q-24.154 18.923-42.885 42.962-18.731 24.039-31.654 52.424H320q-12.75 0-21.374 8.629-8.625 8.628-8.625 21.384 0 12.755 8.625 21.37 8.624 8.616 21.374 8.616h130.693q-3.154 13.461-4.616 26.808-1.461 13.346-1.461 27.808 0 25.692 4.077 50.922 4.076 25.231 15.23 49.077Z"/></svg>