<svg xmlns="http://www.w3.org/2000/svg" height="24" viewBox="0 -960 960 960" width="24"><path d="M480-60.002q-22.231 0-45.423-3.192t-51.193-9.346Q302.308-9.463 201.808-24.694 101.309-39.924 50.694-125.847 8.77-195.616 24.386-275.423q15.616-79.807 76.615-133.961-.384-4.846-.384-10.731v-10.732Q40.925-482.462 25.54-561.923q-15.385-79.461 23.769-147.692 36.23-61.846 101.423-89.73 65.192-27.884 134.884-12.884 25.077-58.154 77.5-92.962T480-939.999q64.461 0 116.884 34.808t77.5 92.962q69.692-15 135.076 12.884 65.385 27.884 101.231 89.73 39.154 67.846 23.769 147.307-15.385 79.462-75.077 131.461v10.732q0 5.885-.384 10.731 61 54.154 76.615 133.769Q951.229-196 909.306-125.847 858.691-39.924 758.192-24.694q-100.5 15.23-181.576-47.846-28.001 6.154-51.193 9.346Q502.231-60 480-60Zm-170.46-41.537q-34.308-17.616-65.039-41.308t-55.5-53.231q-24.769-29.538-43.269-63.577t-29.731-71.346q-30 37.923-33.847 85.346-3.846 47.424 20.231 88.578 30.923 51.847 91.693 68.5 60.77 16.654 115.462-12.962Zm340.92 0q54.692 29.616 115.462 12.962 60.77-16.653 91.693-68.5 24.078-41.154 20.231-88.578-3.846-47.423-33.847-85.346-10.846 37.307-29.538 71.346-18.693 34.039-43.462 63.577-24.769 29.539-55 53.231t-65.539 41.308ZM480-120q134 0 227-93t93-227q0-31.308-5.462-60.308-5.461-29-16.384-55.923-27.874 19.633-61.514 30.432Q683-515.001 645-515.001q-97.836 0-166.418-68.581Q410.001-652.164 410.001-750v-2.308q-107.847 23.692-178.924 110.654Q160-554.693 160-440q0 134 93 227t227 93ZM360-350q-21 0-35.5-14.5T310-400q0-21 14.5-35.5T360-450q21 0 35.5 14.5T410-400q0 21-14.5 35.5T360-350Zm240 0q-21 0-35.5-14.5T550-400q0-21 14.5-35.5T600-450q21 0 35.5 14.5T650-400q0 21-14.5 35.5T600-350ZM109.77-520.537q7.462-36.077 21.462-69.269 14-33.193 34.154-62.501 20.154-29.308 45.346-55.039 25.193-25.73 55.039-45.73-48.385-8.847-93.539 10.23-45.155 19.076-70.617 62.615-22.307 37.001-19.5 80.655 2.809 43.655 27.655 79.039Zm740.46 0q25.231-35.384 27.847-79.039 2.616-43.654-19.692-80.655-25.462-43.539-70.617-62.808-45.154-19.269-93.539-10.037 29.846 20 55.039 45.73 25.192 25.731 45.346 55.039 20.154 29.308 34.154 62.501 14 33.192 21.462 69.269ZM645-574.999q31.308 0 57.654-9.193 26.346-9.192 48.116-25.577-20.616-34.307-49.808-61.538Q671.77-698.538 637-718.692q-34.769-20.154-74.131-30.731Q523.506-760 480-760q-2.693 1.231-5 3.077-2.308 1.846-5.001 3.461V-750q0 72.846 51.077 123.924Q572.154-574.999 645-574.999Zm-40.537-222.845q-16.539-36.77-49.962-59.463Q521.078-880 480-880t-74.116 22.501q-33.039 22.5-48.039 58.501 28.308-10.308 59.222-15.654 30.915-5.347 62.933-5.347 32.674 0 64.222 5.539 31.548 5.539 60.241 16.616ZM165.386-652.307Zm629.228 0ZM469.999-753.462ZM480-819.999ZM189.001-196.078Zm581.998 0Z"/></svg>