<svg xmlns="http://www.w3.org/2000/svg" height="24" viewBox="0 -960 960 960" width="24"><path d="M360-310q-21 0-35.5-14.5T310-360q0-21 14.5-35.5T360-410q21 0 35.5 14.5T410-360q0 21-14.5 35.5T360-310Zm240 0q-21 0-35.5-14.5T550-360q0-21 14.5-35.5T600-410q21 0 35.5 14.5T650-360q0 21-14.5 35.5T600-310ZM480-80q134 0 227-93t93-227q0-24-3-46.5T786-490q-21 5-42 7.5t-44 2.5q-91 0-172-39T390-628q-32 78-91.5 135.5T160-406v6q0 134 93 227t227 93Zm.067 59.998q-78.836 0-148.204-29.924-69.369-29.925-120.682-81.225-51.314-51.3-81.247-120.65Q100.001-321.15 100.001-400q0-22.385 2.654-44.384t8.346-42.23q-44.923-25.615-72.192-70.953-27.27-45.338-27.27-100.354 0-83 58-141t141-58q51.852 0 95.387 24.538 43.536 24.538 70.536 66.846 24.462-7.231 50.667-10.846 26.206-3.616 52.871-3.616 78.85 0 148.199 29.92 69.35 29.92 120.65 81.21 51.3 51.291 81.225 120.629 29.925 69.337 29.925 148.173t-29.92 148.204q-29.92 69.369-81.21 120.682-51.291 51.314-120.629 81.247-69.337 29.932-148.173 29.932Z"/></svg>