<svg xmlns="http://www.w3.org/2000/svg" height="24" viewBox="0 -960 960 960" width="24"><path d="M172.309-100.001q-29.827 0-51.067-21.241-21.241-21.24-21.241-51.067v-327.229q0-21.836 11.654-40.033 11.654-18.197 32.346-27.043l145.383-61.307q18.076-7.231 34.345 2.712 16.27 9.942 16.27 29.826v25.001l150.385-60.308q18.076-7.231 33.845 3.641 15.77 10.871 15.77 29.897v57.153h320v367.69q0 29.827-21.241 51.067-21.24 21.241-51.067 21.241H172.309Zm272.307-149.23h70.768v-141.538h-70.768v141.538Zm-160 0h70.768v-141.538h-70.768v141.538Zm320 0h70.768v-141.538h-70.768v141.538ZM853.537-587.69H703.54l30.923-229.616q1.615-11.923 10.671-19.615 9.055-7.692 20.867-7.692h30.152q11.154 0 19.333 7.473 8.179 7.472 9.666 18.68l28.385 230.77Z"/></svg>