<svg xmlns="http://www.w3.org/2000/svg" height="24" viewBox="0 -960 960 960" width="24"><path d="M536.154-448.462q14.692 0 25.038-10.346t10.346-25.038q0-5.847-1.116-10.385-1.115-4.538-3.73-8.769 10.615-3.231 17.73-12.269 7.116-9.038 7.116-20.885 0-14.692-10.346-25.038t-25.038-10.346q-11.462 0-20.693 6.616-9.23 6.615-12.461 17.846l-146.385-70.385q3.154-4.385 4.808-8.962t1.654-9.731q0-14.692-10.346-25.038t-25.038-10.346q-14.692 0-25.038 10.346t-10.346 25.038q0 4.847 1.615 9.385 1.615 4.538 4.231 8.769-10.616 3.231-18.231 12.269-7.615 9.038-7.615 21.885 0 14.692 10.346 25.038t25.038 10.346q12.077 0 20.923-6.539 8.846-6.538 12.461-16.999l146 69.615q-.769.769-6.308 18.539 0 14.692 10.346 25.038t25.039 10.346ZM415.54-80.385q-19.077-49.692-26.885-99.231-7.807-49.539-8.846-92.731-1.038-43.193 1.616-77.193t4.5-52.615q-.616-2.308-.577-4.231.038-1.923-3.27-2.308-14.307-3.076-41.845-9.038-27.539-5.961-62.347-18.577-34.807-12.615-73.615-32.461-38.808-19.846-76.04-50.078L165.154-570q40.153 35 83.615 55.5 43.462 20.5 79.846 32Q365-471 389-467.5l24 3.5q19.923 1.385 29.269 16.154T449-417l-4.5 33.5q-4.5 33.5-5 83.5t7.5 109q8 59 33 111l-64.46-.385ZM739.999-80H680v-423q0-48-25.5-87T586-649L312.615-771.231l37.846-51.229 260.461 118.538q59 26.692 94.038 80.692 35.039 54 35.039 120.23v423ZM480-80q-25-52-33-111t-7.5-109q.5-50 5-83.5L449-417q2.615-16.077-6.731-30.846Q432.923-462.615 413-464l-24-3.5q-24-3.5-60.385-15-36.384-11.5-79.846-32T165.154-570q40.153 35 83.615 55.5 43.462 20.5 79.846 32Q365-471 389-467.5l24 3.5q19.923 1.385 29.269 16.154T449-417l-4.5 33.5q-4.5 33.5-5 83.5t7.5 109q8 59 33 111Z"/></svg>