<svg xmlns="http://www.w3.org/2000/svg" height="24" viewBox="0 -960 960 960" width="24"><path d="M522.615-801.152q30.154 36.307 57.5 74 27.346 37.692 52.885 77l169.153-126.461q8.231-6.231 18.077-7.231 9.846-1 19.692 3.712 9.846 4.519 14.961 13.527 5.116 9.007 5.116 18.915V-480q0 78.85-29.92 148.199-29.92 69.35-81.21 120.65-51.291 51.3-120.629 81.225-69.337 29.925-148.173 29.925t-148.204-29.925q-69.369-29.925-120.682-81.225-51.314-51.3-81.247-120.65Q100.001-401.15 100.001-480v-267.72q0-9.816 5.116-18.854 5.115-9.039 14.961-13.558 9.846-4.712 19.692-3.712 9.846 1 18.077 7.231L326-650.152q25.539-39.308 53.578-76.808 28.038-37.5 58.192-73.808 8.077-9.692 19-15.038t23.23-5.346q12.307 0 23.473 5.2 11.166 5.2 19.142 14.8ZM480-160q134 0 227-93t93-227v-220L616-562q-45-72-73-114t-63-84q-35 43-65 87t-71 111L160-700v220q0 134 93 227t227 93Zm0-300Z"/></svg>