<svg xmlns="http://www.w3.org/2000/svg" height="24" viewBox="0 -960 960 960" width="24"><path d="M174.614-90q-29.614 0-47.46-23.846t-11.384-54.076q13.308-56.769 18.077-113.924 4.769-57.154 6.154-115.078-42.154-14.461-66.077-51.192Q50-484.847 50-530.001v-19.538q0-19.538 11.192-35.268 11.192-15.731 29.73-23.192 98.847-38.385 185.731-96.5 86.885-58.116 166.039-128.347 8.308-7.077 17.538-10.423 9.231-3.346 19.769-3.346 10.538 0 19.769 3.346 9.23 3.346 17.538 10.423 79.154 70.231 166.039 128.347 86.884 58.115 185.731 96.5 18.538 7.461 29.73 23.192 11.192 15.73 11.192 35.268v19.538q0 45.154-23.923 81.885t-66.077 51.192q1.385 57.924 6.154 115.078 4.769 57.155 18.077 113.924 6.462 30.23-11.384 54.076Q815-90.001 785.386-90.001H174.614ZM192.92-590h574.16q-79.078-38.539-150.348-87.885Q545.462-727.231 480-785.847q-65.462 58.616-136.732 107.963-71.27 49.346-150.348 87.885Zm387.08 140q30.77 0 50.385-23.847 19.616-23.847 19.616-56.155H509.999q0 32.308 19.616 56.155Q549.23-449.999 580-449.999Zm-200 0q30.77 0 50.385-23.847 19.616-23.847 19.616-56.155H309.999q0 32.308 19.616 56.155Q349.23-449.999 380-449.999Zm-200 0q30.77 0 50.385-23.847 19.616-23.847 19.616-56.155H109.999q0 32.308 19.616 56.155Q149.23-449.999 180-449.999Zm-7.078 300h128.925q9.769-63.847 14.961-126.885 5.193-63.039 7.808-127.27-13.846-6.154-25.039-15.693-11.192-9.539-19.577-22.154-13.615 19.769-34.5 33.039-20.885 13.269-45.501 17.115-2 61.616-7.384 121.924-5.385 60.308-19.693 119.924Zm189.539 0h235.078Q588.385-210 583.501-269.808q-4.885-59.808-7.5-120.808-29.616-.077-55.078-14.231-25.462-14.154-40.923-38.078-15.461 23.924-40.923 38.078-25.462 14.154-55.078 14.231-2.615 61-7.5 120.808-4.884 59.808-14.038 119.809Zm295.692 0h128.925q-14.308-59.616-19.693-119.924-5.384-60.308-7.384-121.924-24.616-3.846-45.885-17-21.27-13.154-34.116-33.924-8 13.001-19.193 22.539-11.192 9.539-25.423 16.078 2.615 64.231 8.115 127.27 5.5 63.038 14.654 126.885Zm121.847-300q30.77 0 50.385-23.847 19.616-23.847 19.616-56.155H709.999q0 32.308 19.616 56.155Q749.23-449.999 780-449.999Z"/></svg>