<svg xmlns="http://www.w3.org/2000/svg" height="24" viewBox="0 -960 960 960" width="24"><path d="M60.002-136.155v-259.229q0-15.366 10.394-25.76 10.394-10.394 25.759-10.394h143.076q15.365 0 25.759 10.394t10.394 25.76v259.229q0 15.365-10.394 25.759-10.394 10.395-25.759 10.395H96.155q-15.365 0-25.76-10.395-10.393-10.394-10.393-25.759Zm312.307 0v-259.229q0-15.366 10.394-25.76 10.394-10.394 25.759-10.394h143.076q15.365 0 25.759 10.394t10.394 25.76v259.229q0 15.365-10.394 25.759-10.394 10.395-25.759 10.395H408.462q-15.365 0-25.759-10.395-10.394-10.394-10.394-25.759Zm312.307 0v-259.229q0-15.366 10.394-25.76 10.394-10.394 25.759-10.394h143.076q15.365 0 25.759 10.394 10.395 10.394 10.395 25.76v259.229q0 15.365-10.395 25.759-10.394 10.395-25.759 10.395H720.769q-15.365 0-25.759-10.395-10.394-10.394-10.394-25.759ZM432.307-160h95.386v-211.539h-95.386V-160ZM60.002-564.616v-259.229q0-15.365 10.394-25.759 10.394-10.395 25.759-10.395h143.076q15.365 0 25.759 10.395 10.394 10.394 10.394 25.759v259.229q0 15.366-10.394 25.76-10.394 10.394-25.759 10.394H96.155q-15.365 0-25.76-10.394-10.393-10.394-10.393-25.76Zm312.307 0v-259.229q0-15.365 10.394-25.759 10.394-10.395 25.759-10.395h143.076q15.365 0 25.759 10.395 10.394 10.394 10.394 25.759v259.229q0 15.366-10.394 25.76-10.394 10.394-25.759 10.394H408.462q-15.365 0-25.759-10.394t-10.394-25.76Zm312.307 0v-259.229q0-15.365 10.394-25.759 10.394-10.395 25.759-10.395h143.076q15.365 0 25.759 10.395 10.395 10.394 10.395 25.759v259.229q0 15.366-10.395 25.76-10.394 10.394-25.759 10.394H720.769q-15.365 0-25.759-10.394t-10.394-25.76ZM120-588.461h95.386V-800H120v211.539Zm628.461 0H840V-800h-91.539v211.539Z"/></svg>