<svg xmlns="http://www.w3.org/2000/svg" height="24" viewBox="0 -960 960 960" width="24"><path d="M624.154-438.616q-5.23 59.923-45.384 102.347-40.154 42.423-98.77 42.423-8.385 0-16.769-1.192-8.385-1.192-16.77-3.192-7.23-1.616-15.076.384t-12.308 7.616q-7.538 8.692-4.73 20.153 2.807 11.461 13.346 15.307 12.846 5 25.961 6.808 13.115 1.808 26.346 1.808 79 0 133.5-56.577 54.5-56.578 58.346-137.116l19.385 17.616q7.462 6.461 16.961 6.269 9.5-.192 15.962-6.654 7.461-7.461 7.769-17.076.307-9.615-7.154-17.077l-49.462-49.461q-10.23-10.231-25.307-10.231-15.077 0-25.307 10.231l-49.462 49.461q-7.461 7.462-7.461 16.769 0 9.307 7.461 16.769 7.462 7.461 16.769 7.461 9.307 0 16.769-7.461l15.385-15.385Zm-336-1.537-19.385-17.616q-7.462-6.461-16.961-6.269-9.5.192-15.962 6.654-7.461 7.461-7.769 17.076-.307 9.615 7.154 17.077l49.462 49.461q10.23 10.231 25.307 10.231 15.077 0 25.307-10.231l49.462-49.461q7.461-7.462 7.461-16.769 0-9.307-7.461-16.769-7.462-7.461-16.769-7.461-9.307 0-16.769 7.461l-15.385 15.385q5.23-59.923 45.384-102.347 40.154-42.423 98.77-42.423 8.385 0 16.769 1.192 8.385 1.192 16.385 3.192 7.231 2 15.269 0t12.5-8q7.538-8.692 4.923-20.153-2.616-11.461-13.154-15.307-13.231-4.231-26.154-6.423-12.923-2.193-26.538-2.193-79 0-133.5 56.577-54.5 56.578-58.346 137.116ZM172.309-140.001q-30.308 0-51.308-21t-21-51.308v-455.382q0-30.308 21-51.308t51.308-21h122.153l52.308-56.692q9.846-10.846 23.808-17.077 13.961-6.231 29.422-6.231h160q15.461 0 29.422 6.231 13.962 6.231 23.808 17.077l52.308 56.692h122.153q30.308 0 51.308 21t21 51.308v455.382q0 30.308-21 51.308t-51.308 21H172.309Zm0-59.999h615.382q5.385 0 8.847-3.462 3.462-3.462 3.462-8.847v-455.382q0-5.385-3.462-8.847-3.462-3.462-8.847-3.462H638.769l-73.384-80h-170.77l-73.384 80H172.309q-5.385 0-8.847 3.462-3.462 3.462-3.462 8.847v455.382q0 5.385 3.462 8.847 3.462 3.462 8.847 3.462ZM480-440Z"/></svg>