<svg xmlns="http://www.w3.org/2000/svg" height="24" viewBox="0 -960 960 960" width="24"><path d="M520-70.387q-29.154 0-49.576-20.423-20.423-20.423-20.423-49.576v-81.846q-98-10.538-164-84.038t-66-173.73v-347.691q0-29.923 21.193-51.115 21.192-21.193 51.115-21.193h375.382q29.923 0 51.115 21.193 21.193 21.192 21.193 51.115V-480q0 100.23-66 173.73-66 73.5-164 84.038v79.538q0 5.385 3.462 8.847 3.462 3.462 8.847 3.462h189.999q12.769 0 21.384 8.615t8.615 21.384q0 12.769-8.615 21.384t-21.384 8.615H520Zm30-359.612h123.307q3.154-12.308 4.924-24.501Q680-466.692 680-480v-50.001H560q-12.769 0-21.384-8.615T530.001-560q0-12.769 8.615-21.384T560-589.999h120v-100.002H520q-12.769 0-21.384-8.615T490.001-720q0-12.769 8.615-21.384T520-749.999h160v-77.692q0-5.385-3.462-8.847-3.462-3.462-8.847-3.462H292.309q-5.385 0-8.847 3.462-3.462 3.462-3.462 8.847v317.692h110q30.692 0 58.077 13.846 27.384 13.846 45.845 38.307 9.539 13.308 24.655 20.577 15.115 7.27 31.423 7.27Z"/></svg>