<svg xmlns="http://www.w3.org/2000/svg" height="24" viewBox="0 -960 960 960" width="24"><path d="M170.001-140.001q-12.75 0-21.375-8.629t-8.625-21.384q0-12.756 8.625-21.371Q157.251-200 170.001-200h619.998q12.75 0 21.375 8.629 8.625 8.628 8.625 21.384 0 12.755-8.625 21.37-8.625 8.616-21.375 8.616H170.001Zm160-155q-12.75 0-21.375-8.629-8.625-8.628-8.625-21.384 0-12.755 8.625-21.37Q317.251-355 330.001-355h299.998q12.75 0 21.375 8.629t8.625 21.384q0 12.756-8.625 21.371-8.625 8.615-21.375 8.615H330.001Zm-160-155q-12.75 0-21.375-8.628-8.625-8.629-8.625-21.384 0-12.756 8.625-21.371 8.625-8.615 21.375-8.615h619.998q12.75 0 21.375 8.628 8.625 8.629 8.625 21.384 0 12.756-8.625 21.371-8.625 8.615-21.375 8.615H170.001Zm160-154.999q-12.75 0-21.375-8.629t-8.625-21.384q0-12.756 8.625-21.371 8.625-8.615 21.375-8.615h299.998q12.75 0 21.375 8.629 8.625 8.628 8.625 21.384 0 12.755-8.625 21.37Q642.749-605 629.999-605H330.001Zm-160-155q-12.75 0-21.375-8.629-8.625-8.628-8.625-21.384 0-12.755 8.625-21.37 8.625-8.616 21.375-8.616h619.998q12.75 0 21.375 8.629t8.625 21.384q0 12.756-8.625 21.371Q802.749-760 789.999-760H170.001Z"/></svg>