<svg xmlns="http://www.w3.org/2000/svg" height="24" viewBox="0 -960 960 960" width="24"><path d="m514.922-553.693-65.306-65.306 15.771-38.079h-54.62l-85.228-85.228H740q17.692 0 29.999 12.307 12.307 12.307 12.307 29.999t-12.307 29.999Q757.692-657.694 740-657.694H559.153l-44.231 104.001Zm246.77 439.691L457.307-418.771l-74.77 176.386q-5.076 12-15.768 19.115-10.692 7.115-23.692 7.115-22.768 0-35.383-19.115-12.615-19.115-3.462-40.268l88.385-207.924-282.461-282.077q-8.308-8.307-8.5-20.884-.192-12.576 8.5-21.268 8.692-8.693 21.076-8.693t21.077 8.693l651.536 651.536q8.307 8.307 8.5 20.884.192 12.577-8.5 21.269-8.692 8.692-21.076 8.692-12.385 0-21.077-8.692Z"/></svg>