<svg xmlns="http://www.w3.org/2000/svg" height="24" viewBox="0 -960 960 960" width="24"><path d="M800-720H160v467.691q0 5.385 3.462 8.847 3.462 3.462 8.847 3.462h357.692V-180.001H172.309q-30.308 0-51.308-21t-21-51.308v-455.382q0-30.308 21-51.308t51.308-21h615.382q30.308 0 51.308 21t21 51.308v277.692H800V-720Zm-640 0V-240-429.999v4.923V-720Zm320 200 320-200v57.691L499.077-473.771q-9.231 5.616-19.077 5.616-9.846 0-19.077-5.616L160-659.232V-720l320 200Zm303.155 339.999H632.307q-12.769 0-21.384-8.616-8.615-8.615-8.615-21.384t8.615-21.384Q619.538-240 632.307-240H783.54l-52.925-52.924q-8.922-8.923-8.807-21.077.115-12.153 9.423-21.076 8.923-8.308 21.076-8.423 12.154-.115 21.077 8.807l99.384 99.385q10.846 10.846 10.846 25.307 0 14.462-10.846 25.308l-99.769 99.769q-8.308 8.307-20.577 8.423-12.268.115-21.191-8.808-8.308-8.308-8.308-20.692t8.308-20.692l51.924-53.308Z"/></svg>