<svg xmlns="http://www.w3.org/2000/svg" height="24" viewBox="0 -960 960 960" width="24"><path d="M810.001-65.078 774.462-100H669.999q-12.749 0-21.374-8.629Q640-117.259 640-130.014q0-12.756 8.625-21.371Q657.25-160 669.999-160h44.465l-97.694-97.694H286.154q-15.365 0-25.759-10.394t-10.394-25.759v-29.846q0-18.541 9.361-34.876 9.36-16.334 25.408-26.046 35.231-20.693 74.116-33.193 38.885-12.5 79.27-16.192h2.308L160-715.079v45.08q0 12.749-8.629 21.374Q142.743-640 129.987-640q-12.755 0-21.37-8.625-8.616-8.625-8.616-21.374v-104.463L71.694-802.77q-8.923-8.923-8.808-21.192.115-12.269 9.423-21.576 9.308-9.308 21.384-9.308 12.077 0 21.384 9.308L852.77-107.23q8.923 8.922 9.115 20.884.192 11.961-9.115 21.269-9.308 9.307-21.384 9.307-12.077 0-21.385-9.307ZM557.156-317.307l-59.617-59.617v-.77q-55.77 0-100.193 11.539-44.424 11.539-83.655 33.846v15.002h243.465Zm32.843-275q0 22.538-8.577 42.346-8.576 19.807-23.268 34.884l-42.769-42.768q7-6.154 10.808-15.116 3.808-8.961 3.808-19.346 0-20.847-14.577-35.424-14.578-14.577-35.424-14.577-10.385 0-19.346 3.808-8.962 3.807-15.116 10.807l-42.768-42.768q15.077-14.692 34.884-23.269 19.808-8.576 42.346-8.576 45.384 0 77.692 32.307 32.307 32.308 32.307 77.692Zm270 302.306v76.769L800-273.231v-16.77q0-12.749 8.629-21.374Q817.257-320 830.013-320q12.755 0 21.37 8.625 8.616 8.625 8.616 21.374Zm-687.69 190q-30.308 0-51.308-21t-21-51.308v-117.692q0-12.749 8.629-21.374Q117.259-320 130.014-320q12.756 0 21.371 8.625Q160-302.75 160-290.001v117.692q0 4.616 3.846 8.463 3.847 3.846 8.463 3.846h117.692q12.749 0 21.374 8.629Q320-142.743 320-129.987q0 12.755-8.625 21.37-8.625 8.616-21.374 8.616H172.309ZM800-669.999v-117.692q0-4.616-3.846-8.463-3.847-3.846-8.463-3.846H669.999q-12.749 0-21.374-8.629Q640-817.257 640-830.013q0-12.755 8.625-21.37 8.625-8.616 21.374-8.616h117.692q30.308 0 51.308 21t21 51.308v117.692q0 12.749-8.629 21.374Q842.741-640 829.986-640q-12.756 0-21.371-8.625Q800-657.25 800-669.999Zm-319.538 77.23Zm17.077 275.462ZM213.232-859.999h76.769q12.749 0 21.374 8.629Q320-842.741 320-829.986q0 12.756-8.625 21.371Q302.75-800 290.001-800h-16.77l-59.999-59.999Z"/></svg>