<svg xmlns="http://www.w3.org/2000/svg" height="24" viewBox="0 -960 960 960" width="24"><path d="M373.908-180.001q-125.599 0-212.829-87.17-87.23-87.169-87.23-212.768t87.169-212.829q87.169-87.231 212.768-87.231t212.829 87.17q87.231 87.169 87.231 212.768t-87.17 212.829q-87.169 87.231-212.768 87.231Zm-33.907-366.153V-380q0 14.384 9.716 24.115 9.715 9.731 24.076 9.731 14.362 0 24.131-9.731T407.693-380v-166.154h56.154q10.333 0 17.09-6.752 6.756-6.751 6.756-17.076t-6.756-17.095q-6.757-6.769-17.09-6.769h-180q-10.333 0-17.089 6.752-6.757 6.751-6.757 17.076t6.757 17.095q6.756 6.769 17.089 6.769h56.154Zm368.46-179.232-63.076-28.538q-9.307-3.821-9.307-13.756 0-9.936 9.307-13.782L708.461-810 737-873.076q3.821-9.308 13.756-9.308t13.781 9.308L793.076-810l63.076 28.538q9.308 3.821 9.308 13.757 0 9.935-9.308 13.781l-63.076 28.538-28.539 63.077q-3.821 9.307-13.756 9.307T737-662.309l-28.539-63.077Zm0 575.386-63.076-28.538q-9.307-3.821-9.307-13.757 0-9.935 9.307-13.781l63.076-28.538L737-297.691q3.821-9.307 13.756-9.307t13.781 9.307l28.539 63.077 63.076 28.538q9.308 3.821 9.308 13.756 0 9.936-9.308 13.782L793.076-150l-28.539 63.076q-3.821 9.308-13.756 9.308T737-86.924L708.461-150Z"/></svg>