<svg xmlns="http://www.w3.org/2000/svg" height="24" viewBox="0 -960 960 960" width="24"><path d="M140.771-190.771q-12.769 0-21.384-8.616-8.616-8.615-8.616-21.384t8.616-21.384q8.615-8.615 21.384-8.615h182.307q-15.846-60.692-51.577-105.538-35.73-44.846-87.268-76.846-19.693-12.23-18.5-25.615 1.192-13.384 24.884-13.538 118.307-1.077 203.845 79.806Q480-311.617 480-190.771H140.771Zm399.228 0q0-31.23-6.116-63.114-6.115-31.884-18.499-61.807 38.153-68.23 104.615-111.615 66.461-43.385 148.999-45 23.231-.615 24.423 13.769 1.193 14.384-17.654 25.384-50.768 30.077-86.691 75.885-35.923 45.807-52.154 106.499h182.307q12.769 0 21.384 8.615 8.616 8.615 8.616 21.384t-8.616 21.384q-8.615 8.616-21.384 8.616h-279.23Zm-55.383-182.843q-7.309-106 47.037-187.73 54.346-81.731 145.115-114.116 23-8.384 33.231 3.27 10.23 11.653-9.385 31.038-33.154 32.308-55.115 70.654-21.962 38.346-34.885 79.577-38.23 19.077-72.038 50.923-33.807 31.846-53.96 66.384Zm-56.461-64.999q-12.769-13.231-29-25.847-16.231-12.615-33.462-21.769 1.154-7.154 2.346-16.347 1.192-9.192 1.192-17.885 0-47.999-10.346-91.768t-30.038-84.538q-11-22 1.692-31.154 12.693-9.154 31.539 6.462 35.615 29 62.346 68.115 26.731 39.116 41.423 87.347-15.308 28.461-24.846 61.769t-12.846 65.615Z"/></svg>