<svg xmlns="http://www.w3.org/2000/svg" height="24" viewBox="0 -960 960 960" width="24"><path d="M480-281.694 324.615-126.309q-20.813 20.692-50.675 20.692-29.863 0-50.555-20.692l-97.46-97.461q-20.692-20.813-20.692-50.675T125.925-325l155.769-155.769-154.615-154.616Q106.386-656.077 106.002-686q-.385-29.923 20.307-50.615l97.076-97.076q20.813-20.692 50.676-20.692 29.862 0 50.554 20.692l155 155.001 155.001-155.001q20.813-20.692 50.675-20.692 29.863 0 50.555 20.692l97.46 97.461q20.692 20.813 20.692 50.675T833.306-635L677.921-479.615l155 155q21.077 20.913 21.077 50.918 0 30.004-20.692 50.697l-95.922 95.921q-21.077 21.077-51.192 21.269-30.115.193-51.192-20.884l-155-155Zm.067-234.46q15.394 0 25.74-10.413 10.347-10.414 10.347-25.808t-10.414-25.74q-10.414-10.346-25.807-10.346-15.394 0-25.74 10.414-10.347 10.413-10.347 25.807 0 15.394 10.414 25.74 10.414 10.346 25.807 10.346Zm-156.604-6.383 114-114-155.001-155.001Q279-795 274-795t-8.462 3.462l-97.076 97.076Q165-691 165-686t3.462 8.462l155.001 155.001Zm84.297 78.691q15.394 0 25.74-10.414 10.346-10.414 10.346-25.807 0-15.394-10.413-25.74-10.414-10.347-25.808-10.347t-25.74 10.414q-10.346 10.414-10.346 25.807 0 15.394 10.414 25.74 10.413 10.347 25.807 10.347Zm72.307 72.307q15.394 0 25.74-10.414 10.347-10.413 10.347-25.807 0-15.394-10.414-25.74-10.414-10.346-25.807-10.346-15.394 0-25.74 10.413-10.347 10.414-10.347 25.808t10.414 25.74q10.414 10.346 25.807 10.346Zm72.308-72.307q15.394 0 25.74-10.414 10.346-10.414 10.346-25.807 0-15.394-10.414-25.74-10.413-10.347-25.807-10.347-15.394 0-25.74 10.414-10.346 10.414-10.346 25.807 0 15.394 10.413 25.74 10.414 10.347 25.808 10.347Zm-30.222 119.999 155.385 155.385Q681-165 686-165t8.462-3.462l97.076-97.076Q795-269 795-274t-3.462-8.462L636.153-437.847l-114 114ZM355.54-604.46Zm248.536 248.536Z"/></svg>