<svg xmlns="http://www.w3.org/2000/svg" height="24" viewBox="0 -960 960 960" width="24"><path d="M440-501Zm0 354.075-86.612-77.844Q271.771-299 215.656-354.616q-56.116-55.615-90.77-101.577-34.654-45.962-49.77-86.423Q60.003-583.078 60.003-626q0-85.154 57.422-142.269Q174.847-825.384 260-825.384q52.385 0 99 24.501 46.615 24.5 81 70.269 34.385-45.769 81-70.269 46.615-24.501 99-24.501 77.461 0 139.537 54.385 62.077 54.384 62.077 144.614 0 15.923-2.962 33.346-2.961 17.424-8.885 35.347h-64.229q6.923-19.923 10.5-37.654 3.577-17.731 3.577-33.27 0-72.692-48.846-104.73-48.846-32.039-90.769-32.039-49.846 0-88.192 27.5-38.347 27.5-72.27 77.885h-39.076q-33.693-50.77-73.385-78.077-39.692-27.308-87.077-27.308-57.769 0-98.885 39.692Q120-686 120-626q0 33.384 14 67.769 14 34.385 50 79.269 36 44.885 98 105.154T440-228q28.308-25.308 60.615-53.769 32.308-28.462 54.462-49.616l6.692 6.692 14.692 14.692 14.692 14.692 6.692 6.693q-22.769 21.153-54.269 48.923-31.5 27.769-59.423 53.077L440-146.925Zm154.615-263.076v-59.998h299.999v59.998H594.615Z"/></svg>