<svg xmlns="http://www.w3.org/2000/svg" height="24" viewBox="0 -960 960 960" width="24"><path d="M324.616-184.617q-24.923 0-42.461-17.538t-17.538-42.461v-63.845q0-15.461 10.346-25.807 10.346-10.346 25.808-10.346h79.23v-110.002q-31.538 2.231-64.5-6.345-32.962-8.577-57.27-30.346-5.615-5.616-8.923-12.347-3.307-6.73-3.307-14.346v-34.308h-36.308q-7.231 0-13.77-2.615-6.538-2.616-12.153-8.231l-83.461-83.461q-11.231-11.231-10.654-26.077.577-14.846 12.192-25.307 29-24.769 72.231-36.538 43.23-11.769 81.922-11.769 32.77 0 63.655 7.461 30.885 7.462 60.346 24.616v-7.308q0-23.769 16.577-40.346 16.577-16.577 40.347-16.577h310.766q29.923 0 51.115 21.192 21.193 21.192 21.193 51.115v421.537q0 41.923-29.038 70.961-29.039 29.038-70.961 29.038H324.616ZM440-344.614h204.616q14.692 0 25.038 10.346T680-309.23v24.614q0 17 11.5 28.5t28.5 11.5q17 0 28.5-11.5t11.5-28.5v-421.537q0-5.385-3.462-8.847-3.462-3.461-8.847-3.461H452.309q-5.385 0-8.847 3.461-3.462 3.462-3.462 8.847v31.693l221.692 221.692q6.692 6.692 8.307 15.307 1.616 8.615-2.23 16.923-3.847 8.307-10.539 13.269-6.692 4.961-17.23 4.961-6.077 0-11.654-2.538-5.576-2.539-9.422-6.385L510-520.154l-15.308 15.308Q481.846-492 468.461-482.539q-13.384 9.462-28.461 15.462v122.463ZM220.154-612.306h49.692q15.461 0 25.807 10.346 10.346 10.346 10.346 25.807v46q16.231 10.308 31.539 14.077 15.308 3.77 30.462 3.77 25.308 0 45.731-8.154 20.423-8.154 39.193-26.924l14.923-14.923-62.923-62.924q-30.539-30.538-68.462-45.808-37.923-15.269-80.462-15.269-24.616 0-47.424 5.308t-42.731 14.385l54.309 54.309Z"/></svg>