<svg xmlns="http://www.w3.org/2000/svg" height="24" viewBox="0 -960 960 960" width="24"><path d="M200.003-180.001q-29.827 0-51.067-21.241-21.24-21.24-21.24-51.067v-269.306q0-14.632 5.615-27.893 5.616-13.261 15.462-23.107l147.691-147.691q10.846-10.846 24.307-16.077 13.462-5.231 26.923-5.231 13.462 0 26.923 5.231 13.462 5.231 24.308 16.077l147.691 147.691q9.846 9.846 15.462 23.107 5.615 13.261 5.615 27.893v269.306q0 29.827-21.24 51.067-21.241 21.241-51.067 21.241h-94.231q-7.23 0-12.653-5.423-5.423-5.424-5.423-12.654v-112.691q0-14.692-10.173-25.038t-25.212-10.346q-14.692 0-25.038 10.346t-10.346 25.038v112.691q0 7.23-5.423 12.654-5.423 5.423-12.654 5.423h-94.23ZM640-209.616V-576.46q0-2.308-.769-4.424-.77-2.115-2.693-4.038L501-720.461q-14.384-14.384-6.832-32.73 7.552-18.345 27.943-18.345 6.042 0 11.991 2.602 5.948 2.603 9.666 6.32L678.922-627.46q9.846 9.846 15.461 23.107 5.616 13.26 5.616 27.893v366.844q0 12.75-8.629 21.374-8.629 8.625-21.384 8.625-12.756 0-21.371-8.625Q640-196.866 640-209.616Zm132.306 0v-421.69q0-2.308-.77-4.423-.769-2.116-2.692-4.039l-80.308-80.308q-14.385-14.384-6.832-32.922 7.552-18.538 27.943-18.538 6.042 0 11.99 2.602 5.949 2.603 9.667 6.32l80.308 80.309q9.896 10.017 15.294 23.223 5.398 13.205 5.398 27.776v421.69q0 12.75-8.628 21.374-8.629 8.625-21.385 8.625-12.755 0-21.37-8.625-8.615-8.624-8.615-21.374Zm-424.612-235q14.692 0 25.039-10.346 10.346-10.346 10.346-25.038t-10.346-25.038q-10.347-10.346-25.039-10.346-14.692 0-25.038 10.346T312.31-480q0 14.692 10.346 25.038t25.038 10.346Z"/></svg>