<svg xmlns="http://www.w3.org/2000/svg" height="24" viewBox="0 -960 960 960" width="24"><path d="m644.152-347.693 145.461-125 15.999 1.231q13.186 1.567 20.555 10.971 7.368 9.404 7.368 20.375 0 6.269-2.341 12.311-2.34 6.041-8.582 10.573l-107.077 93.308 32.154 140q.615 1.556.615 3.501v3.502q0 13.227-9.115 22.035-9.115 8.807-21.653 8.807-3.919 0-8.229-.923-4.31-.923-8.156-3.538l-12.922-8-44.077-189.153Zm-85.153-263.921-40.462-94.923 5.539-13.538q3.816-9.415 11.831-14.515 8.014-5.1 16.653-5.1 8.638 0 16.884 4.846 8.246 4.847 12.092 14.154l48.846 115.768-71.383-6.692Zm-336.92 406.919 38.23-163.613-126.998-110.076q-6.846-5.615-9.539-12.718-2.692-7.102-2.692-14.205 0-12.724 8.731-23.631t24.192-12.522l167.647-14.72 64.812-154.125q4.519-10.846 14.009-16.269 9.491-5.423 19.433-5.423t19.51 5.423q9.568 5.423 14.124 16.269L518.35-556.18l167.647 14.72q15.461 1.615 24.192 12.511 8.731 10.897 8.731 23.609 0 7.264-2.692 14.302-2.693 7.039-9.539 12.654L579.691-368.308l38.358 163.631q.872 2.598.872 8.046 0 15.436-10.819 25.878-10.819 10.443-25.245 10.443-2.705 0-19.166-5.616L420-252.463l-143.691 86.537q-4.615 2.616-9.586 4.116-4.971 1.5-9.49 1.5-16.27 0-28.019-13.154-11.75-13.154-7.135-31.231Z"/></svg>