<svg xmlns="http://www.w3.org/2000/svg" height="24" viewBox="0 -960 960 960" width="24"><path d="M207.693-95.386q-30.308 0-51.307-21-21-20.999-21-51.307v-155.075L240.77-441.229l42.768 42.768-83.846 93.847h560.616l-82.615-92.616 42.768-42.768 104.153 117.23v155.075q0 30.308-21 51.307-20.999 21-51.307 21H207.693Zm222.077-298.23-129-130.999q-21.076-21.077-20.884-51.423.192-30.346 21.269-51.423L486.77-813.075q21.076-21.077 51.23-21.077 30.154 0 51.23 21.077l130.615 129.384q21.077 21.076 21.384 50.922.308 29.846-20.769 50.923L531.615-393.001q-21.077 21.077-50.923 20.769-29.846-.307-50.922-21.384ZM677.307-624.23q3.078-3.077 3.078-8.846 0-5.77-3.078-8.847l-130.46-129.23q-3.077-3.077-8.847-3.077t-8.847 3.077L342.308-584.308q-3.077 3.077-3.077 8.847t3.077 8.847l130.461 129.23q3.077 3.077 8.846 3.077 5.77 0 8.847-3.077L677.307-624.23Z"/></svg>