<svg xmlns="http://www.w3.org/2000/svg" height="24" viewBox="0 -960 960 960" width="24"><path d="M54.617-390v-180q0-10.333 6.75-17.089 6.752-6.757 17.077-6.757 10.326 0 17.095 6.757 6.769 6.756 6.769 17.089v56.154h92.308V-570q0-10.333 6.752-17.089 6.751-6.757 17.076-6.757 10.326 0 17.095 6.757 6.769 6.756 6.769 17.089v180q0 10.333-6.751 17.089-6.752 6.757-17.077 6.757-10.325 0-17.094-6.757-6.77-6.756-6.77-17.089v-76.154h-92.308V-390q0 10.333-6.751 17.089-6.752 6.757-17.077 6.757-10.325 0-17.094-6.757-6.77-6.756-6.77-17.089ZM350-390v-156.154H310q-10.333 0-17.089-6.752-6.757-6.751-6.757-17.076t6.757-17.095q6.756-6.769 17.089-6.769h127.693q10.333 0 17.089 6.752 6.757 6.751 6.757 17.076t-6.757 17.095q-6.756 6.769-17.089 6.769h-40.001V-390q0 10.333-6.751 17.089-6.751 6.757-17.077 6.757-10.325 0-17.094-6.757-6.769-6.756-6.769-17.089Zm212.307 0v-156.154h-40.001q-10.333 0-17.089-6.752-6.757-6.751-6.757-17.076t6.757-17.095q6.756-6.769 17.089-6.769H650q10.333 0 17.089 6.752 6.757 6.751 6.757 17.076t-6.757 17.095q-6.756 6.769-17.089 6.769h-40.001V-390q0 10.333-6.751 17.089-6.751 6.757-17.077 6.757-10.325 0-17.094-6.757-6.769-6.756-6.769-17.089Zm155.384 0v-176.923q0-11.461 7.923-19.192T745-593.846h100.384q24 0 42 18t18 42v27.692q0 24-18 42t-42 18h-80V-390q0 10.333-6.752 17.089-6.751 6.757-17.076 6.757-10.326 0-17.095-6.757-6.769-6.756-6.769-17.089Zm47.692-103.846h80q4.615 0 8.462-3.846 3.846-3.847 3.846-8.462v-27.692q0-4.615-3.846-8.462-3.847-3.846-8.462-3.846h-80v52.308Z"/></svg>