<svg xmlns="http://www.w3.org/2000/svg" height="24" viewBox="0 -960 960 960" width="24"><path d="M240.045-50q-45.814 0-77.929-32.07-32.115-32.071-32.115-77.885 0-45.814 32.086-77.929 32.087-32.115 77.924-32.115 12.835 0 25.22 3.192 12.384 3.192 23.384 8.577l79.31-98.694q-24.923-27.154-34.385-60.769-9.461-33.615-3.846-67.614l-115.233-38.155q-15.077 24.231-39.648 38.846-24.571 14.615-54.813 14.615-45.833 0-77.916-32.07T10-579.955q0-45.814 32.07-77.929t77.884-32.115q45.814 0 77.929 32.083T229.999-580q0 3.539-.192 5.923-.192 2.385-.192 4.77l114.848 39.923q16.538-30.615 45.423-52.537 28.884-21.923 66.268-28.154v-122.772q-38.615-9.077-62.384-39.038t-23.769-68.274q0-45.61 32.07-77.725 32.07-32.115 77.884-32.115t77.929 32.083q32.115 32.083 32.115 77.916 0 38.154-24.077 68.115-24.076 29.961-62.076 39.038v122.772q37.384 6.231 66.076 28.154 28.692 21.922 45.615 52.537l114.848-39.923q-.384-2.77-.384-4.962V-580q0-45.833 32.07-77.916t77.884-32.083q45.814 0 77.929 32.07t32.115 77.884q0 45.814-32.083 77.929T840-470.001q-30.117 0-55.059-14.615-24.941-14.615-39.402-38.846l-115.233 38.155q5.615 33.999-3.846 67.306-9.462 33.308-34.385 60.692l79.31 98.079q11-5 23.384-7.885 12.385-2.884 25.22-2.884 45.837 0 77.924 32.07 32.086 32.07 32.086 77.884t-32.07 77.93q-32.07 32.114-77.884 32.114t-77.929-32.083Q610.001-114.167 610.001-160q0-18.92 6.115-36.422 6.115-17.501 18.269-32.116l-79.309-99.464Q521-307.694 479.885-307.694t-75.576-20.308l-78.694 99.464q11.769 14.615 18.077 32.116 6.307 17.502 6.307 36.422 0 45.833-32.07 77.916T240.045-50Z"/></svg>