<svg xmlns="http://www.w3.org/2000/svg" height="24" viewBox="0 -960 960 960" width="24"><path d="M683.077-293.847q-69.307 0-120.461-43.769-51.153-43.769-63.23-112.385H269.692q-9.307 27-32.576 44.654-23.27 17.654-54.039 17.654-38.538 0-65.423-26.884Q90.77-441.462 90.77-480t26.884-65.423q26.885-26.884 65.423-26.884 30.769 0 54.039 17.654 23.269 17.654 32.576 44.654h229.694q12.077-68.616 63.23-112.385 51.154-43.769 120.461-43.769 77.23 0 131.692 54.846 54.461 54.846 54.461 132.076 0 76.461-54.461 130.923-54.462 54.461-131.692 54.461Zm0-59.999q52.308 0 89.231-36.923 36.923-36.923 36.923-89.231 0-52.308-36.923-89.231-36.923-36.923-89.231-36.923-52.308 0-89.231 36.923-36.923 36.923-36.923 89.231 0 52.308 36.923 89.231 36.923 36.923 89.231 36.923Z"/></svg>