<svg xmlns="http://www.w3.org/2000/svg" height="24" viewBox="0 -960 960 960" width="24"><path d="M212.309-100.001q-29.923 0-51.115-21.193-21.193-21.192-21.193-51.115v-455.382q0-29.923 21.193-51.115 21.192-21.193 51.115-21.193h87.692q0-74.922 52.538-127.46Q405.078-879.997 480-879.997t127.461 52.538q52.538 52.538 52.538 127.46h87.692q29.923 0 51.115 21.193 21.193 21.192 21.193 51.115v455.382q0 29.923-21.193 51.115-21.192 21.193-51.115 21.193H212.309Zm0-59.999h535.382q4.616 0 8.463-3.846 3.846-3.847 3.846-8.463v-455.382q0-4.616-3.846-8.463-3.847-3.846-8.463-3.846H212.309q-4.616 0-8.463 3.846-3.846 3.847-3.846 8.463v455.382q0 4.616 3.846 8.463 3.847 3.846 8.463 3.846ZM360-699.999h240q0-50-35-85t-85-35q-50 0-85 35t-35 85ZM200-160V-640-160Zm279.385-260.001q67.845 0 121.883-45.923t53.423-104.231q0-12.384-8.307-21.114Q638.076-600 625.307-600q-10.538 0-18.846 7.269-8.307 7.269-11.768 20.269-8.693 40.692-41.462 66.577Q520.462-480 479.385-480q-41.078 0-74.154-25.885-33.077-25.885-41.154-66.577-3.462-13.615-11.154-20.577-7.692-6.961-18.23-6.961-12.769 0-21.384 8.731-8.615 8.73-8.615 21.114 0 58.308 53.422 104.231 53.423 45.923 121.269 45.923Z"/></svg>