<svg xmlns="http://www.w3.org/2000/svg" height="24" viewBox="0 -960 960 960" width="24"><path d="M171.539-320V-800v480Zm-59.998 191.535v-659.226q0-29.923 21.192-51.115 21.192-21.193 51.115-21.193h415.383q29.923 0 51.115 21.193 21.192 21.192 21.192 51.115v13.538q-17.846 8.307-32.653 19.884-14.807 11.576-27.346 25.807v-59.229q0-5.385-3.461-8.847-3.462-3.462-8.847-3.462H183.848q-5.385 0-8.847 3.462-3.462 3.462-3.462 8.847V-320h427.692q5.385 0 8.847-3.462 3.461-3.462 3.461-8.847v-139.229q12.539 14.231 27.346 25.807 14.807 11.577 32.653 19.884v93.538q0 29.923-21.192 51.115-21.192 21.193-51.115 21.193H243.077L111.541-128.465ZM261.54-410.001h139.999v-59.998H261.54v59.998Zm490.767-80q-45.769 0-77.884-32.115T642.308-600q0-45.769 32.115-77.884t77.884-32.115q15.231 0 26.962 3.731t23.039 11.731v-215.462h139.998v59.998h-80V-600q0 45.769-32.115 77.884t-77.884 32.115Zm-490.767-40h259.999v-59.998H261.54v59.998Zm0-120h259.999v-59.998H261.54v59.998Z"/></svg>