<svg xmlns="http://www.w3.org/2000/svg" height="24" viewBox="0 -960 960 960" width="24"><path d="m689.614-392.771-44.153-44.923q5.692-10.922 10.461-24.192 4.769-13.269 7-28.345Q665.768-503 674.383-511.5q8.616-8.5 21.384-8.5 12.769 0 21.077 9.307 8.307 9.308 7.077 22.077-3.846 27.384-12.577 51.115-8.73 23.73-21.73 44.73Zm-128.77-130.001L365.77-718.616V-760q0-41.922 29.038-70.961 29.038-29.038 70.96-29.038 41.923 0 70.961 29.038 29.038 29.039 29.038 70.961v213.844q0 6.769-1.539 12.307-1.538 5.539-3.384 11.077ZM435.769-160v-101.694q-89.308-10.461-153.077-73.538Q218.923-398.309 208-489.001q-1.615-12.769 6.693-21.884Q223-520 235.769-520t21.384 8.807q8.615 8.808 11.461 21.577 10.923 73.462 67.192 121.539Q392.076-320 465.768-320q38.616 0 72.578-13.769 33.961-13.77 60.115-38.155l42.769 42.768q-29 27.231-66.001 44.847-37 17.615-79.462 22.615V-160q0 12.769-8.615 21.384t-21.384 8.615q-12.769 0-21.384-8.615T435.769-160Zm337.847 47.536L88.231-797.849q-8.307-8.307-8.5-20.884-.192-12.576 8.5-21.268 8.692-8.693 21.076-8.693 12.385 0 21.077 8.693l685.385 685.385q8.307 8.307 8.5 20.884.192 12.576-8.5 21.268-8.692 8.693-21.076 8.693-12.385 0-21.077-8.693Z"/></svg>