<svg xmlns="http://www.w3.org/2000/svg" height="24" viewBox="0 -960 960 960" width="24"><path d="M172.309-180.001q-29.923 0-51.115-21.193-21.193-21.192-21.193-51.115v-455.382q0-29.923 21.193-51.115 21.192-21.193 51.115-21.193h615.382q29.923 0 51.115 21.193 21.193 21.192 21.193 51.115v455.382q0 29.923-21.193 51.115-21.192 21.193-51.115 21.193H172.309Zm0-59.999h615.382q5.385 0 8.847-3.462 3.462-3.462 3.462-8.847v-455.382q0-5.385-3.462-8.847-3.462-3.462-8.847-3.462H172.309q-5.385 0-8.847 3.462-3.462 3.462-3.462 8.847v455.382q0 5.385 3.462 8.847 3.462 3.462 8.847 3.462Zm45.385-57.694h364.612v-364.612H217.694v364.612Zm494.613 0q14.692 0 25.038-10.346t10.346-25.038q0-14.692-10.346-25.038t-25.038-10.346q-14.692 0-25.038 10.346t-10.346 25.038q0 14.692 10.346 25.038t25.038 10.346Zm-434.615-59.998v-244.616h244.616v244.616H277.692Zm434.615-86.924q14.692 0 25.038-10.346T747.691-480q0-14.692-10.346-25.038t-25.038-10.346q-14.692 0-25.038 10.346T676.923-480q0 14.692 10.346 25.038t25.038 10.346Zm0-146.922q14.692 0 25.038-10.346t10.346-25.038q0-14.692-10.346-25.038t-25.038-10.346q-14.692 0-25.038 10.346t-10.346 25.038q0 14.692 10.346 25.038t25.038 10.346ZM160-240v-480 480Z"/></svg>