<svg xmlns="http://www.w3.org/2000/svg" height="24" viewBox="0 -960 960 960" width="24"><path d="M420.001-530.001q-18.846 0-35.385-7.5-16.538-7.5-32.384-17.73-7.769-5.385-15.423-10.077-7.654-4.693-16.808-4.693-11 0-19.385 4.923-8.385 4.923-15.769 12.154-4.462 5.692-10.346 9.038-5.885 3.346-13.192 3.346-12.769 0-21.576-8.807-8.808-8.808-8.808-21.577 0-6.461 2.615-12.422 2.616-5.962 7.231-9.808 16.308-16 36.269-26.422 19.961-10.423 42.961-10.423 18.461 0 34.615 7.807 16.154 7.808 32 17.654 8.154 5.769 16.192 10.154 8.039 4.385 17.193 4.385 14.923 0 37.615-20.154 4.462-4.461 9.731-6.884t11.346-2.423q12.768 0 21.576 8.807 8.807 8.808 8.807 21.577 0 6.461-2.615 12.422-2.615 5.962-7.231 9.808-16.307 16-36.268 26.422-19.962 10.423-42.961 10.423Zm0 200q-18.846 0-35.385-7.5-16.538-7.5-32.384-17.73-7.769-5.385-15.423-10.077-7.654-4.693-16.808-4.693-11 0-19.385 4.923-8.385 4.923-15.769 12.154-4.462 5.692-10.346 9.038-5.885 3.346-13.192 3.346-12.769 0-21.576-8.807-8.808-8.808-8.808-21.577 0-6.461 2.615-12.422 2.616-5.962 7.231-9.808 16.308-16 36.269-26.422 19.961-10.423 42.961-10.423 18.461 0 34.615 7.807 16.154 7.808 32 17.654 8.154 5.769 16.192 10.154 8.039 4.385 17.193 4.385 12.769 0 21.961-8.577 9.193-8.577 19.501-13.5 6-3.692 12.038-3.807 6.038-.116 10.961 2.192 10.461 1.154 17.153 9.192 6.692 8.039 5.923 19.269-.385 5.308-2.616 10.115-2.23 4.808-5.692 8.269-16.307 16-36.268 26.422-19.962 10.423-42.961 10.423Zm-247.692 150q-30.308 0-51.308-21t-21-51.308v-455.382q0-30.308 21-51.308t51.308-21h615.382q30.308 0 51.308 21t21 51.308v455.382q0 30.308-21 51.308t-51.308 21H172.309Zm0-59.999h407.692v-480H172.309q-4.616 0-8.463 3.846-3.846 3.847-3.846 8.463v455.382q0 4.616 3.846 8.463 3.847 3.846 8.463 3.846ZM640-240h147.691q4.616 0 8.463-3.846 3.846-3.847 3.846-8.463v-455.382q0-4.616-3.846-8.463-3.847-3.846-8.463-3.846H640v480Zm64.231-366.154h31.538q7.231 0 12.654-5.423t5.423-12.654v-31.538q0-7.231-5.423-12.654t-12.654-5.423h-31.538q-7.231 0-12.654 5.423t-5.423 12.654v31.538q0 7.231 5.423 12.654t12.654 5.423ZM720-444.616q14.692 0 25.038-10.346T755.384-480q0-14.692-10.346-25.038T720-515.384q-14.692 0-25.038 10.346T684.616-480q0 14.692 10.346 25.038T720-444.616Zm0 160q14.692 0 25.038-10.346T755.384-320q0-14.692-10.346-25.038T720-355.384q-14.692 0-25.038 10.346T684.616-320q0 14.692 10.346 25.038T720-284.616ZM640-240v-480 480Z"/></svg>