<svg xmlns="http://www.w3.org/2000/svg" height="24" viewBox="0 -960 960 960" width="24"><path d="M552.307-101.54q-8.25 0-14.625-4.188-6.374-4.189-10.874-11.042-3.75-6.854-4.125-14.85-.375-7.996 3.471-15.304l160-279.615q4.461-7.077 11.644-11.538 7.183-4.462 15.5-4.462t15.059 4.09q6.742 4.09 10.488 11.525l160 280q4.461 6.693 4.09 14.963-.372 8.27-4.09 15.037-4.549 6.923-11.373 11.153-6.824 4.231-15.165 4.231h-320Zm160-32.307q7.077 0 12.385-5.308 5.307-5.307 5.307-12.384t-5.307-12.385q-5.308-5.307-12.385-5.307t-12.384 5.307q-5.308 5.308-5.308 12.385t5.308 12.384q5.307 5.308 12.384 5.308Zm0-80q7.077 0 12.385-5.308 5.307-5.307 5.307-12.384v-120q0-7.077-5.307-12.385-5.308-5.307-12.385-5.307t-12.384 5.307q-5.308 5.308-5.308 12.385v120q0 7.077 5.308 12.384 5.307 5.308 12.384 5.308ZM172.309-100.001q-30.308 0-51.308-21t-21-51.308v-117.692q0-12.749 8.629-21.374Q117.259-320 130.014-320q12.756 0 21.371 8.625Q160-302.75 160-290.001v117.692q0 4.616 3.846 8.463 3.847 3.846 8.463 3.846h117.692q12.749 0 21.374 8.629Q320-142.743 320-129.987q0 12.755-8.625 21.37-8.625 8.616-21.374 8.616H172.309Zm-72.308-569.998v-117.692q0-30.308 21-51.308t51.308-21h117.692q12.749 0 21.374 8.629Q320-842.741 320-829.986q0 12.756-8.625 21.371Q302.75-800 290.001-800H172.309q-4.616 0-8.463 3.846-3.846 3.847-3.846 8.463v117.692q0 12.749-8.629 21.374Q142.743-640 129.987-640q-12.755 0-21.37-8.625-8.616-8.625-8.616-21.374ZM480-410.001q-29.154 0-49.576-20.423-20.423-20.422-20.423-49.444 0-29.901 20.423-50.016 20.422-20.115 49.444-20.115 29.901 0 50.016 20.124Q549.999-509.75 549.999-480q0 29.154-20.124 49.576Q509.75-410.001 480-410.001Zm320-259.998v-117.692q0-4.616-3.846-8.463-3.847-3.846-8.463-3.846H669.999q-12.749 0-21.374-8.629Q640-817.257 640-830.013q0-12.755 8.625-21.37 8.625-8.616 21.374-8.616h117.692q30.308 0 51.308 21t21 51.308v117.692q0 12.749-8.629 21.374Q842.741-640 829.986-640q-12.756 0-21.371-8.625Q800-657.25 800-669.999ZM247.385-436.154q-13.628 0-21.198 11.654-7.571 11.654-3.725 25.422 18.231 63 64.846 109.193 46.616 46.192 109.616 66.423 14.153 4.461 26.384-3.769 12.23-8.231 12.23-23 0-10.507-7.461-19.137-7.462-8.631-18-12.477-45.154-16.154-79.501-49.193-34.346-33.039-49.115-79.193-3.846-11.154-13.063-18.538-9.216-7.385-21.013-7.385Zm.615-87.692q-13.627 0-21.198-11.654t-3.724-25.422q18.23-63 65.153-109.193 46.923-46.192 109.923-66.423 14.154-4.461 26.077 3.769 11.923 8.231 11.923 23 0 10.507-7.27 19.138-7.269 8.63-17.807 12.476-45.154 16.154-79.693 49.193-34.539 33.039-49.308 79.193-3.846 11.154-13.062 18.538-9.217 7.385-21.014 7.385Zm465.231 0q13.627 0 21.198-11.654 7.57-11.654 3.724-25.422-18.231-63-65.154-109.193-46.923-46.192-109.923-66.423-14.153-4.461-26.076 3.769-11.923 8.231-11.923 23 0 10.507 7.462 19.138 7.461 8.63 17.999 12.476 45.155 16.154 79.501 49.193 34.346 33.039 49.116 79.193 3.846 11.154 13.062 18.538 9.217 7.385 21.014 7.385Z"/></svg>