<svg xmlns="http://www.w3.org/2000/svg" height="24" viewBox="0 -960 960 960" width="24"><path d="m771.078-104.001-69.155-68.539Q654.077-137.848 598-118.925q-56.077 18.924-118 18.924-78.769 0-148.115-29.962-69.346-29.961-120.653-81.269-51.308-51.307-81.269-120.653Q100.001-401.231 100.001-480q0-61.923 18.924-118 18.923-56.077 53.615-103.923l-69.154-69.155q-8.923-8.922-9.115-21.191-.192-12.269 9.115-21.577 9.308-9.307 21.384-9.307 12.077 0 21.384 9.307l667.692 667.692q8.923 8.923 9.115 20.884.192 11.961-9.115 21.269-9.308 9.307-21.384 9.307-12.077 0-21.384-9.307Zm28.306-169.846L273.847-799.384q45.923-29.307 97.769-44.961Q423.462-859.999 480-859.999q78.769 0 148.115 29.962 69.346 29.961 120.653 81.269 51.308 51.307 81.269 120.653Q859.999-558.769 859.999-480q0 56.538-15.654 108.384-15.654 51.846-44.961 97.769Z"/></svg>