<svg xmlns="http://www.w3.org/2000/svg" height="24" viewBox="0 -960 960 960" width="24"><path d="M480-100.001q-107.922 0-183.961-76.038Q220.001-252.078 220.001-360v-238.461q0-107.923 76.038-183.961Q372.078-858.46 480-858.46q107.922 0 183.961 76.038 76.038 76.038 76.038 183.961V-360q0 107.922-76.038 183.961Q587.922-100.001 480-100.001Zm29.999-498.46H680q0-75.462-48.962-131.232Q582.076-785.462 509.999-796v197.539Zm-229.999 0h170.001V-796q-72.077 10.538-121.039 66.307Q280-673.923 280-598.461ZM480-160q83 0 141.5-58.5T680-360v-178.463H280V-360q0 83 58.5 141.5T480-160Zm0-378.463Zm29.999-59.998Zm-59.998 0ZM480-538.463Z"/></svg>