<svg xmlns="http://www.w3.org/2000/svg" height="24" viewBox="0 -960 960 960" width="24"><path d="M828.076-308.001q0 12.769-8.615 21.384-8.615 8.616-21.384 8.616t-21.384-8.616q-8.615-8.615-8.615-21.384-6.77-48.077-23.001-95.692-16.231-47.616-41.923-93.231l-112.001 125q-20.692 23.308-51.615 24.116-30.923.807-53.23-20.885l-98.615-98q-3.847-3.846-9.039-3.846-5.193 0-8.655 3.846L158.846-254.77q-8.923 9.308-21.192 9-12.269-.308-21.576-9.615-8.693-9.308-8.808-21.076-.115-11.769 8.808-21.077l211.538-211.923q20.692-21.076 51.422-20.884 30.731.192 51.423 20.884l98.384 98.385q3.847 3.846 9.232 3.846t8.847-4.231L668.693-548q-55.231-64.616-127.5-102.308-72.27-37.693-157.578-37.693-70.23 0-132.846 25.346-62.615 25.346-114.384 68.808-4.462 3.846-9.731 6.077-5.269 2.23-11.346 2.23-12.769 0-21.384-8.615t-8.615-21.384q0-6.077 2.23-11.961 2.231-5.885 6.693-9.731 59.077-51.153 133.038-80.961 73.961-29.807 156.345-29.807 95.692 0 178.308 40.654 82.615 40.654 146.923 113.961l93.078-105.462q8.307-10.538 21.691-10.846 13.385-.307 22.692 9.616 8.308 8.307 8.615 20.076.308 11.769-8 21.076L745.768-544.769q29.769 47.384 54.116 113.999 24.346 66.615 28.192 122.769Z"/></svg>