<svg xmlns="http://www.w3.org/2000/svg" height="24" viewBox="0 -960 960 960" width="24"><path d="M326.154-296.155q-93.845 0-158.076-67.5-64.23-67.5-64.23-162.499v-67.692q0-94.999 64.23-162.499 64.231-67.5 158.076-67.5 45.833 0 77.916 32.07 32.084 32.07 32.084 77.884t-32.084 77.929q-32.083 32.116-77.916 32.116h-40q-12.749 0-21.374-8.629-8.625-8.629-8.625-21.384 0-12.756 8.625-21.371 8.625-8.615 21.374-8.615h40q20.847 0 35.424-14.577 14.577-14.577 14.577-35.424 0-20.846-14.577-35.423-14.577-14.577-35.424-14.577-68.308 0-115.308 50.269-47 50.27-47 119.731v67.692q0 69.461 47 119.731 47 50.269 115.308 50.269 20.847 0 35.424-14.577 14.577-14.577 14.577-35.423 0-20.847-14.577-35.424-14.577-14.577-35.424-14.577h-40q-12.749 0-21.374-8.629-8.625-8.628-8.625-21.384 0-12.755 8.625-21.37 8.625-8.616 21.374-8.616h40q45.833 0 77.916 32.084 32.084 32.083 32.084 77.916v240q0 12.749-8.629 21.374-8.629 8.625-21.384 8.625-12.756 0-21.371-8.625-8.615-8.625-8.615-21.374v-144.694q-11.539 7.462-23.718 11.077-12.18 3.616-26.283 3.616Zm307.692 0q-14.103 0-26.283-3.616-12.179-3.615-23.718-11.077v144.694q0 12.749-8.629 21.374-8.628 8.625-21.384 8.625-12.755 0-21.37-8.625-8.616-8.625-8.616-21.374v-240q0-45.833 32.084-77.916 32.083-32.084 77.916-32.084h40q12.749 0 21.374 8.629 8.625 8.629 8.625 21.384 0 12.756-8.625 21.371-8.625 8.615-21.374 8.615h-40q-20.847 0-35.424 14.577-14.577 14.577-14.577 35.424 0 20.846 14.577 35.423 14.577 14.577 35.424 14.577 68.308 0 115.308-50.269 47-50.27 47-119.731v-67.692q0-69.461-47-119.731-47-50.269-115.308-50.269-20.847 0-35.424 14.577-14.577 14.577-14.577 35.423 0 20.847 14.577 35.424 14.577 14.577 35.424 14.577h40q12.749 0 21.374 8.629 8.625 8.628 8.625 21.384 0 12.755-8.625 21.37-8.625 8.616-21.374 8.616h-40q-45.833 0-77.916-32.07-32.084-32.07-32.084-77.884 0-45.815 32.084-77.93 32.083-32.115 77.916-32.115 93.845 0 158.076 67.5 64.23 67.5 64.23 162.499v67.692q0 94.999-64.23 162.499-64.231 67.5-158.076 67.5Zm-470-229.999v-67.692 67.692Zm632.308-67.692v67.692-67.692Z"/></svg>