<svg xmlns="http://www.w3.org/2000/svg" height="24" viewBox="0 -960 960 960" width="24"><path d="M779.999-266.307 720-326.306v-221.385q0-5.385-3.462-8.847-3.462-3.462-8.847-3.462H486.306l-59.999-59.999H600v-80q0-50.384-35.269-85.192-35.27-34.808-85.654-34.808-50.385 0-85.346 34.693-34.962 34.692-34.962 85.307v10.154l-54.922-54.921q15.461-59.462 64.422-97.346 48.962-37.885 110.808-37.885 75.307 0 128.114 52.538 52.808 52.538 52.808 127.46v80h47.692q30.308 0 51.308 21t21 51.308v281.384Zm-527.69 166.306q-30.308 0-51.308-21t-21-51.308v-375.382q0-23.846 14.308-42.923t36.923-26.154L49.076-798.924q-8.307-8.307-8.5-20.884-.192-12.576 8.5-21.268 8.693-8.693 21.077-8.693 12.384 0 21.076 8.693L841.076-91.229q8.308 8.307 8.5 20.884.193 12.576-8.5 21.269-8.692 8.692-21.076 8.692t-21.076-8.692l-58.618-58.618q-10.23 4.231-19.615 5.962-9.385 1.731-20.692 1.731h-447.69ZM686-160 532.076-315.924q-9.846 9.846-22.615 15.077-12.769 5.231-27.461 5.231-29.154 0-49.576-20.423-20.423-20.423-20.423-49.576 0-14.692 5.23-27.462 5.231-12.769 15.077-22.615L286-560h-33.691q-5.385 0-8.847 3.462-3.462 3.462-3.462 8.847v375.382q0 5.385 3.462 8.847 3.462 3.462 8.847 3.462H686ZM486-360Zm117.153-83.153Z"/></svg>