<svg xmlns="http://www.w3.org/2000/svg" height="24" viewBox="0 -960 960 960" width="24"><path d="M408.001-140.001q-24.677 0-47.069-10.539-22.392-10.538-38.238-30L99.002-453.846q-8.461-10.461-7.654-23.346.808-12.884 10.654-21.961 14.769-14.384 34.999-16.038 20.231-1.654 36.615 9.5l126.385 82.923v-407.616q0-12.75 8.629-21.374 8.629-8.625 21.384-8.625 12.756 0 21.371 8.625Q360-843.134 360-830.384v453.844q0 21.308-19.192 31.846-19.192 10.539-37.269-1.538l-83.387-54.002L369.63-218.63q7.601 8.707 17.447 13.668Q396.924-200 408.001-200h261.998q37.616 0 63.808-26.193Q760-252.385 760-290.001v-280q0-12.749 8.629-21.374Q777.257-600 790.013-600q12.755 0 21.37 8.625 8.616 8.625 8.616 21.374v280q0 62.154-43.923 106.077-43.923 43.923-106.077 43.923H408.001Zm82.383-214.614ZM483.475-720q12.756 0 21.371 8.625 8.615 8.625 8.615 21.374v200q0 12.75-8.629 21.375-8.628 8.625-21.384 8.625-12.755 0-21.37-8.625t-8.615-21.375v-200q0-12.749 8.628-21.374Q470.72-720 483.475-720Zm153.461 43.846q12.756 0 21.371 8.625 8.615 8.625 8.615 21.375v156.153q0 12.75-8.629 21.375-8.628 8.625-21.384 8.625-12.755 0-21.37-8.625t-8.615-21.375v-156.153q0-12.75 8.628-21.375 8.629-8.625 21.384-8.625Z"/></svg>