<svg xmlns="http://www.w3.org/2000/svg" height="24" viewBox="0 -960 960 960" width="24"><path d="M419.309-70.002q-27.467 0-51.272-12.346-23.804-12.346-39.651-35.423L91.232-465.31q-5.692-8.153-4.884-17.73.808-9.576 8.346-16.499 15.923-15.923 37.692-17.962 21.769-2.038 39.692 10.654l127.923 89.078v-361.076q0-12.749 8.629-21.374 8.629-8.625 21.384-8.625 12.756 0 21.371 8.625Q360-791.594 360-778.845v288.844h93.463v-368.844q0-12.749 8.628-21.374 8.629-8.625 21.384-8.625 12.756 0 21.371 8.625 8.615 8.625 8.615 21.374v368.844h93.463v-328.844q0-12.749 8.628-21.374 8.629-8.625 21.384-8.625 12.756 0 21.371 8.625 8.615 8.625 8.615 21.374v328.844H760v-259.998q0-12.75 8.629-21.375 8.628-8.625 21.384-8.625 12.755 0 21.37 8.625 8.616 8.625 8.616 21.375v529.998q0 62.153-43.923 106.076-43.923 43.923-106.077 43.923h-250.69Z"/></svg>