<svg xmlns="http://www.w3.org/2000/svg" height="24" viewBox="0 -960 960 960" width="24"><path d="M440-492.309q-57.922 0-98.961-41.038-41.038-41.038-41.038-98.96 0-57.923 41.038-98.961 41.039-41.038 98.961-41.038t98.961 41.038q41.038 41.038 41.038 98.961 0 57.922-41.038 98.96-41.039 41.038-98.961 41.038ZM845.23-72.617l-96.154-96.154q-20.23 12.77-42.692 20-22.461 7.231-46.384 7.231-66.153 0-112.307-46.153Q501.54-233.847 501.54-300q0-66.153 46.153-112.307Q593.847-458.46 660-458.46q66.153 0 112.307 46.153Q818.46-366.153 818.46-300q0 23.923-7.231 46.384-7.23 22.462-20 42.692l96.154 96.154q8.307 8.307 8.5 20.884.192 12.577-8.5 21.269-8.692 8.692-21.077 8.692-12.384 0-21.076-8.692ZM660-201.54q41.615 0 70.038-28.423 28.423-28.423 28.423-70.038 0-41.615-28.423-70.038-28.423-28.423-70.038-28.423-41.615 0-70.038 28.423-28.423 28.423-28.423 70.038 0 41.615 28.423 70.038 28.423 28.423 70.038 28.423ZM457.924-426.922q-33.922 54.692-36.23 119.229-2.308 64.538 29.307 119.999H200.769q-25.307 0-43.037-17.731-17.731-17.73-17.731-43.037V-276q0-29.769 15.654-54.731 15.654-24.961 42.961-38.807 47.154-23.692 113.654-42.077 66.5-18.384 145.654-15.307Z"/></svg>