<svg xmlns="http://www.w3.org/2000/svg" height="24" viewBox="0 -960 960 960" width="24"><path d="M634.152-424.462 352.848-705.767q8.846-7.23 20.499-8.538 11.654-1.308 22.5 5.923l279.228 197.459q17.076 10.846 16.576 30.731-.5 19.884-17.576 30.73l-39.923 25Zm93.23 291.997L513.846-347.232 395.847-271.31q-18.077 11.846-36.961 1.308-18.885-10.539-18.885-32.231v-218.843L131.696-729.382q-8.308-8.308-8.5-20.884-.192-12.577 8.5-21.269 8.692-8.692 21.076-8.692t21.077 8.692L770.15-175.233q8.923 8.923 9.115 21.191.193 12.269-9.115 21.577-9.307 8.692-21.384 9-12.076.307-21.384-9Z"/></svg>