<svg xmlns="http://www.w3.org/2000/svg" height="24" viewBox="0 -960 960 960" width="24"><path d="M350.462-100.001q-25.692 0-44.961-15.654t-26.269-39.961l-43.846-174.385h488.459l-43.846 174.385q-7 24.307-26.269 39.961t-44.961 15.654H350.462Zm129.153-537.691q3.847-81.923 59.462-141.768 55.615-59.846 137.5-74.923 4.499-1.077 8.306.538 3.808 1.616 7.423 4.616 3.616 3 4.923 7.129 1.308 4.129.308 8.717-13.692 72.846-64.5 126.153-50.807 53.307-123.422 66.692v90.923h274.23q15.365 0 25.759 10.395 10.395 10.394 10.395 25.759v73.653q0 30.382-21.693 52.018-21.692 21.636-52.153 21.636H213.847q-30.461 0-52.153-21.611-21.693-21.61-21.693-51.957v-73.567q0-15.633 10.395-25.98 10.394-10.346 25.759-10.346h273.461v-90.923q-72.615-13.385-123.422-66.692-50.808-53.307-64.5-126.153-1-4.588.307-8.717 1.308-4.129 4.923-7.129 3.616-3 7.616-4.616 4-1.615 8.499-.512 81.885 15.436 137.115 75.281 55.23 59.846 59.461 141.384Z"/></svg>