<svg xmlns="http://www.w3.org/2000/svg" height="24" viewBox="0 -960 960 960" width="24"><path d="M455.384-200h49.232v-78.616L640-414v-173.691q0-4.616-3.846-8.463-3.847-3.846-8.463-3.846H332.309q-4.616 0-8.463 3.846-3.846 3.847-3.846 8.463V-414l135.384 135.384V-200Zm-59.998 23.845v-76.923L281.078-367.385q-9.846-9.846-15.461-23.107-5.616-13.261-5.616-27.893v-169.22q0-29.862 21.241-51.128 21.24-21.266 51.067-21.266h44.615l-29.999 30v-160q0-12.75 8.629-21.375 8.628-8.625 21.384-8.625 12.755 0 21.37 8.625 8.616 8.625 8.616 21.375v130h146.152v-130q0-12.75 8.629-21.375t21.384-8.625q12.756 0 21.371 8.625 8.615 8.625 8.615 21.375v160l-29.999-30h44.615q29.827 0 51.067 21.265 21.241 21.264 21.241 51.124v169.209q0 14.477-5.616 27.823-5.615 13.347-15.461 23.193L564.614-253.078v76.923q0 15.365-10.394 25.759-10.394 10.395-25.759 10.395h-96.922q-15.365 0-25.759-10.395-10.394-10.394-10.394-25.759ZM480-400Z"/></svg>