<svg xmlns="http://www.w3.org/2000/svg" height="24" viewBox="0 -960 960 960" width="24"><path d="M220.923-150.771q-19.23 0-32.691-13.462-13.462-13.461-13.462-32.691 0-19.231 13.462-32.692 13.461-13.461 32.691-13.461h76.309L194.463-579.385q-26.616-13.846-43.154-40.154-16.539-26.307-16.539-58.153 0-45.769 32.116-77.884 32.115-32.115 77.884-32.115 37.846 0 66.23 22.5 28.385 22.5 38.846 57.5h137.232v-50.001q0-12.769 8.615-21.384t21.384-8.615q7.846 0 14.615 4t10.461 11.23v5.385l70.308-65.538q8.615-8.616 19.961-10.731 11.347-2.115 22.193 3.5l153.692 71.231q9.692 4.846 13.807 14.038 4.116 9.192-.115 18.269-4.846 9.692-14.038 12.423-9.192 2.73-18.269-1.5l-147.847-68.308-94.769 88v56l94.769 86L789.692-632q9.077-4.231 18.576-1.192 9.5 3.038 13.731 12.115 4.846 9.692.423 18.576-4.423 8.885-14.115 13.731l-153.692 72.461q-10.846 5.616-22.193 3.308-11.346-2.308-19.961-10.538l-70.308-64.77v5.385q-3.692 6-10.461 10.616-6.769 4.615-14.615 4.615-12.769 0-21.384-8.615t-8.615-21.384v-50.001H349.846q-3 10.693-8.231 20.77t-12.385 18.462l196.923 365.384h102.463q19.23 0 32.692 13.461 13.461 13.461 13.461 32.692 0 19.23-13.461 32.691-13.462 13.462-32.692 13.462H220.923Zm23.847-476.92q20.846 0 35.423-14.578 14.577-14.577 14.577-35.423 0-20.847-14.577-35.424-14.577-14.577-35.423-14.577-20.847 0-35.424 14.577-14.577 14.577-14.577 35.424 0 20.846 14.577 35.423 14.577 14.578 35.424 14.578Zm114.46 384.614h98.002L280.616-571.539q-3.077 1.923-9.693 3.269t-11.231.577l99.538 324.616Zm98.002 0Z"/></svg>