<svg xmlns="http://www.w3.org/2000/svg" height="24" viewBox="0 -960 960 960" width="24"><path d="M332.309-140.001q-29.827 0-51.067-21.241-21.241-21.24-21.241-51.067v-87.692h-76.153q-29.827 0-51.067-21.241-21.24-21.24-21.24-51.067v-155.384q0-42.499 29.038-71.249 29.038-28.749 70.96-28.749h536.922q42.499 0 71.249 28.749 28.749 28.75 28.749 71.249v155.384q0 29.827-21.24 51.067-21.24 21.241-51.067 21.241h-76.153v87.692q0 29.827-21.241 51.067-21.24 21.241-51.067 21.241H332.309Zm367.69-523.075H260.001v-72.375q0-29.855 21.241-51.047 21.24-21.192 51.067-21.192h295.382q29.827 0 51.067 21.24 21.241 21.241 21.241 51.067v72.307Zm12.308 195.383q17 0 28.5-11.5t11.5-28.5q0-17-11.5-28.5t-28.5-11.5q-17 0-28.5 11.5t-11.5 28.5q0 17 11.5 28.5t28.5 11.5ZM332.309-200h295.382q5.385 0 8.847-3.462 3.462-3.462 3.462-8.847v-146.152q0-5.385-3.462-8.847-3.462-3.462-8.847-3.462H332.309q-5.385 0-8.847 3.462-3.462 3.462-3.462 8.847v146.152q0 5.385 3.462 8.847 3.462 3.462 8.847 3.462Z"/></svg>