<svg xmlns="http://www.w3.org/2000/svg" height="24" viewBox="0 -960 960 960" width="24"><path d="M480-163.08q-24.749 0-42.374-17.625-17.625-17.624-17.625-42.374 0-24.749 17.625-42.374 17.625-17.624 42.374-17.624 24.749 0 42.374 17.624 17.625 17.625 17.625 42.374 0 24.75-17.625 42.374Q504.749-163.08 480-163.08Zm-.061-196.151q-22.554 0-38.553-16.042-16-16.043-16-38.571v-348.464q0-22.528 16.061-38.571 16.061-16.042 38.614-16.042 22.554 0 38.553 16.042 16 16.043 16 38.571v348.464q0 22.528-16.061 38.571-16.061 16.042-38.614 16.042Z"/></svg>