<svg xmlns="http://www.w3.org/2000/svg" height="24" viewBox="0 -960 960 960" width="24"><path d="M398.231-672.076q3.154-.77 6.077-1.27t6.462-.5q30.308 0 52.077 21.769 21.769 21.77 21.769 52.077v14.308l-86.385-86.384Zm422.383 346.535L710.769-435.386v75.847l-59.999-59.998v-288.154q0-5.385-3.462-8.847-3.462-3.462-8.847-3.462H350.307l-59.998-59.999h348.152q30.308 0 51.308 21t21 51.308v183.077l109.845-109.845q8.846-8.846 19.884-4.423t11.038 16.884v283.996q0 12.461-11.038 16.884t-19.884-4.423Zm-182.153 145.54H183.079q-30.308 0-51.308-21t-21-51.308v-455.382q0-28.769 19.462-49.192 19.461-20.423 47.461-22.346L236.923-720h-53.844q-5.385 0-8.847 3.462-3.462 3.462-3.462 8.847v455.382q0 5.385 3.462 8.847 3.462 3.462 8.847 3.462h205.845v-52.001q-65.538-8.077-111.192-53.307-45.653-45.231-54.423-109.153-1.615-8.693 5.462-14.039t15.769-5.346q9.076 0 16.346 5.039 7.269 5.038 8.884 14.115 8.385 50.615 47.885 84.346t93.115 33.731q33 0 62.885-14.308 29.884-14.308 49.884-40.308l32.538 32.538q-23.615 28.615-55.423 45.539-31.808 16.923-68.038 21.153V-240h205.845q5.385 0 8.847-3.462 3.462-3.462 3.462-8.847v-53.844l59.229 59.229q-1.923 28-22.346 47.461-20.423 19.462-49.192 19.462Zm139.384 85.229L452.001-420.616q-9 7.308-19.346 10.885t-21.885 3.577q-30.307 0-52.077-21.769-21.769-21.77-21.769-52.077v-55.693L82.464-790.154q-8.308-8.307-8.5-20.884-.192-12.576 8.5-21.268 8.692-8.693 21.076-8.693t21.076 8.693l695.382 695.381q8.307 8.307 8.5 20.884.192 12.577-8.5 21.269-8.692 8.692-21.077 8.692-12.384 0-21.076-8.692ZM404.001-468.616Zm96.845-101.46ZM388.924-240h43.692-43.692Z"/></svg>