<svg xmlns="http://www.w3.org/2000/svg" height="24" viewBox="0 -960 960 960" width="24"><path d="M660.076-193.846q44.617 0 75.347-30.806 30.731-30.807 30.731-75.424 0-44.617-30.806-75.347-30.807-30.731-75.424-30.731-44.617 0-75.347 30.806-30.731 30.807-30.731 75.424 0 44.617 30.806 75.347 30.807 30.731 75.424 30.731ZM885.104-74.924q-8.28 8.308-21.077 8.308-12.796 0-21.103-8.308l-88.463-88.846q-20.23 14.769-44.346 22.346Q686-133.847 660-133.847q-69.23 0-117.692-48.461Q493.847-230.77 493.847-300q0-69.23 48.461-117.692Q590.77-466.153 660-466.153q69.23 0 117.692 48.461Q826.153-369.23 826.153-300q0 26-7.577 50.115-7.577 24.116-22.346 44.346l88.846 88.463q8.308 8.273 8.308 21.059 0 12.786-8.28 21.093ZM212.24-100q-30.239 0-51.239-21-21-21-21-51.308v-615.382q0-30.308 21-51.308t51.308-21h287.769q14.632 0 27.893 5.616 13.26 5.615 23.107 15.461l167.844 167.844q9.846 9.847 15.461 23.107 5.616 13.261 5.616 27.893v80.463q-19.385-6.923-39.324-10.577-19.939-3.654-40.675-3.654-56.769 0-105.462 22.347-48.692 22.346-83.476 61.5H320q-12.75 0-21.374 8.628-8.625 8.629-8.625 21.384 0 12.756 8.625 21.371 8.624 8.615 21.374 8.615h111.924q-11.846 23.231-18.077 48.424-6.231 25.193-7.077 51.578H320q-12.75 0-21.374 8.628-8.625 8.629-8.625 21.384 0 12.756 8.625 21.371 8.624 8.615 21.374 8.615h91.231q8.692 45.385 33.076 84 24.385 38.615 62.077 66H212.24ZM500.001-800v143.999q0 15.3 10.35 25.65 10.35 10.35 25.65 10.35H680L500.001-800 680-620.001 500.001-800Z"/></svg>