<svg xmlns="http://www.w3.org/2000/svg" height="24" viewBox="0 -960 960 960" width="24"><path d="M638.769-279.463 508-148.694q-8.693 8.693-21.269 8.5-12.577-.192-21.269-8.5-8.692-8.307-8.5-20.884.193-12.576 8.885-21.268l130.769-130.77-130.769-130.769q-8.692-8.692-8.5-21.076.192-12.385 8.5-21.077 8.307-8.692 20.884-8.692 12.576 0 21.269 8.692l130.769 130.769 130.769-130.769q8.692-8.692 21.077-8.307 12.384.384 21.076 8.692 8.692 8.307 8.692 20.692 0 12.384-8.692 21.076L680.922-321.616l130.769 130.77q8.692 8.692 8.308 21.268-.385 12.577-8.693 21.269-8.307 8.692-20.691 8.5-12.385-.192-21.077-8.885L638.769-279.463Zm-466.46-475.921q-13.731 0-23.019-9.289-9.289-9.288-9.289-23.018 0-13.731 9.289-23.019 9.288-9.289 23.019-9.289 13.73 0 23.018 9.289 9.289 9.288 9.289 23.019 0 13.73-9.289 23.018-9.288 9.289-23.018 9.289Zm153.845 0q-13.73 0-23.019-9.289-9.288-9.288-9.288-23.018 0-13.731 9.288-23.019 9.289-9.289 23.019-9.289 13.731 0 23.019 9.289 9.288 9.288 9.288 23.019 0 13.73-9.288 23.018-9.288 9.289-23.019 9.289Zm153.846 0q-13.731 0-23.019-9.289-9.288-9.288-9.288-23.018 0-13.731 9.288-23.019 9.288-9.289 23.019-9.289 13.731 0 23.019 9.289 9.288 9.288 9.288 23.019 0 13.73-9.288 23.018-9.288 9.289-23.019 9.289Zm153.846 0q-13.731 0-23.019-9.289-9.288-9.288-9.288-23.018 0-13.731 9.288-23.019 9.288-9.289 23.019-9.289 13.73 0 23.019 9.289 9.288 9.288 9.288 23.019 0 13.73-9.288 23.018-9.289 9.289-23.019 9.289Zm153.845 0q-13.73 0-23.018-9.289-9.289-9.288-9.289-23.018 0-13.731 9.289-23.019 9.288-9.289 23.018-9.289 13.731 0 23.019 9.289 9.289 9.288 9.289 23.019 0 13.73-9.289 23.018-9.288 9.289-23.019 9.289ZM326.154-140.001q-13.73 0-23.019-9.289-9.288-9.288-9.288-23.019 0-13.73 9.288-23.018 9.289-9.289 23.019-9.289 13.731 0 23.019 9.289 9.288 9.288 9.288 23.018 0 13.731-9.288 23.019-9.288 9.289-23.019 9.289ZM172.309-601.539q-13.731 0-23.019-9.288-9.289-9.288-9.289-23.019 0-13.73 9.289-23.019 9.288-9.288 23.019-9.288 13.73 0 23.018 9.288 9.289 9.289 9.289 23.019 0 13.731-9.289 23.019-9.288 9.288-23.018 9.288Zm0 153.846q-13.731 0-23.019-9.288-9.289-9.288-9.289-23.019 0-13.731 9.289-23.019 9.288-9.288 23.019-9.288 13.73 0 23.018 9.288 9.289 9.288 9.289 23.019 0 13.731-9.289 23.019-9.288 9.288-23.018 9.288Zm0 153.846q-13.731 0-23.019-9.288-9.289-9.289-9.289-23.019 0-13.731 9.289-23.019 9.288-9.288 23.019-9.288 13.73 0 23.018 9.288 9.289 9.288 9.289 23.019 0 13.73-9.289 23.019-9.288 9.288-23.018 9.288Zm0 153.846q-13.731 0-23.019-9.289-9.289-9.288-9.289-23.019 0-13.73 9.289-23.018 9.288-9.289 23.019-9.289 13.73 0 23.018 9.289 9.289 9.288 9.289 23.018 0 13.731-9.289 23.019-9.288 9.289-23.018 9.289Zm615.382-461.538q-13.73 0-23.018-9.288-9.289-9.288-9.289-23.019 0-13.73 9.289-23.019 9.288-9.288 23.018-9.288 13.731 0 23.019 9.288 9.289 9.289 9.289 23.019 0 13.731-9.289 23.019-9.288 9.288-23.019 9.288Z"/></svg>