<svg xmlns="http://www.w3.org/2000/svg" height="24" viewBox="0 -960 960 960" width="24"><path d="M737.845-329.539 283.539-785.076l171.154-63.538q12.461-4.615 25.307-4.615 12.846 0 25.307 4.615l227.692 85q20.692 8.23 33.846 26.5 13.154 18.269 13.154 40.961V-516q0 46-10.154 92.538t-32 93.923Zm-76.614 115.075q-32.616 36.924-71.923 63.039-39.308 26.116-85.462 42.654-5.615 2-11.615 3t-12.231 1q-2.846 0-23.846-4-127.307-45-201.73-159.576Q180.001-382.924 180.001-516v-179.693l-73.692-73.692q-8.307-8.308-8.5-20.884-.192-12.577 8.5-21.269 8.692-8.692 21.077-8.692 12.384 0 21.076 8.692l664.614 664.614q8.308 8.308 8.5 20.885.193 12.576-8.5 21.268-8.692 8.692-21.076 8.692t-21.076-8.692L661.231-214.464Z"/></svg>