<svg xmlns="http://www.w3.org/2000/svg" height="24" viewBox="0 -960 960 960" width="24"><path d="M264.617-297.694v-364.612q0-12.75 8.629-21.375t21.384-8.625q12.755 0 21.371 8.625 8.615 8.625 8.615 21.375v364.612q0 12.75-8.629 21.375t-21.384 8.625q-12.755 0-21.371-8.625-8.615-8.625-8.615-21.375Zm202.537-2.539 247.767-148.844q9.19-5.457 13.326-13.643 4.135-8.185 4.135-17.28t-4.135-17.28q-4.136-8.186-13.326-13.643L467.154-659.767q-4.615-2.616-9.346-3.616-4.73-1-9.26-1-14.496 0-25.368 10.154-10.871 10.154-10.871 26v296.458q0 15.846 10.871 26 10.872 10.154 25.368 10.154 4.53 0 9.26-1 4.731-1 9.346-3.616Zm5.153-74.228v-211.078L648.462-480 472.307-374.461Zm0-105.539Z"/></svg>