<svg xmlns="http://www.w3.org/2000/svg" height="24" viewBox="0 -960 960 960" width="24"><path d="M479.93-82.31q-23.93 0-40.776-16.895-16.845-16.896-16.845-40.796H130.001q-12.75 0-21.375-8.629t-8.625-21.384q0-12.756 8.625-21.371Q117.251-200 130.001-200h50v-547.691q0-29.827 21.241-51.067 21.24-21.241 51.067-21.241h455.382q29.827 0 51.067 21.241 21.241 21.24 21.241 51.067V-200h50q12.75 0 21.375 8.629 8.625 8.628 8.625 21.384 0 12.755-8.625 21.37-8.625 8.616-21.375 8.616H537.691q0 23.999-16.915 40.845Q503.86-82.31 479.93-82.31ZM240-200h210.001v-88.078H240V-200Zm269.999 0H720v-88.078H509.999V-200Z"/></svg>