<svg xmlns="http://www.w3.org/2000/svg" height="24" viewBox="0 -960 960 960" width="24"><path d="M360-130.001q-62.154 0-106.076-43.923Q210.001-217.846 210.001-280v-333.924q-35-13-57.5-41.576-22.5-28.577-22.5-64.369 0-45.888 32.07-78.009t77.884-32.121q45.814 0 77.929 32.121t32.115 78.009q0 35.792-22.5 64.369-22.5 28.576-57.5 41.576V-280q0 37.125 26.46 63.563 26.46 26.438 63.616 26.438t63.541-26.438q26.385-26.438 26.385-63.563v-400q0-62.154 43.923-106.076Q537.846-829.999 600-829.999q62.154 0 106.076 43.923Q749.999-742.154 749.999-680v333.924q35 13 57.5 41.576 22.5 28.577 22.5 64.369 0 45.888-32.07 78.009t-77.884 32.121q-45.814 0-77.929-32.121t-32.115-78.009q0-35.792 22.5-64.869 22.5-29.076 57.5-41.076V-680q0-37.125-26.46-63.563-26.46-26.438-63.616-26.438t-63.541 26.438Q509.999-717.125 509.999-680v400q0 62.154-43.923 106.076Q422.154-130.001 360-130.001Z"/></svg>