<svg xmlns="http://www.w3.org/2000/svg" height="24" viewBox="0 -960 960 960" width="24"><path d="M480-343.539q-7.231 0-13.461-2.308-6.231-2.307-11.846-7.923L330.309-478.153q-8.923-8.923-8.807-20.884.115-11.961 8.807-21.269 9.308-9.307 21.384-9.615 12.077-.308 21.385 9l76.923 76.923v-306.001q0-12.769 8.615-21.384 8.615-8.616 21.384-8.616t21.384 8.616q8.615 8.615 8.615 21.384v306.001l76.923-76.923q8.923-8.923 21.192-8.808 12.269.116 21.577 9.423 8.692 9.308 8.999 21.077.308 11.769-8.999 21.076L505.307-353.77q-5.615 5.616-11.846 7.923-6.23 2.308-13.461 2.308ZM252.309-180.001q-30.308 0-51.308-21t-21-51.308v-78.461q0-12.769 8.616-21.384 8.615-8.615 21.384-8.615t21.384 8.615Q240-343.539 240-330.77v78.461q0 4.616 3.846 8.463 3.847 3.846 8.463 3.846h455.382q4.616 0 8.463-3.846 3.846-3.847 3.846-8.463v-78.461q0-12.769 8.615-21.384t21.384-8.615q12.769 0 21.384 8.615 8.616 8.615 8.616 21.384v78.461q0 30.308-21 51.308t-51.308 21H252.309Z"/></svg>