<svg xmlns="http://www.w3.org/2000/svg" height="24" viewBox="0 -960 960 960" width="24"><path d="M675.384-144.617q-57.749 0-98.874-41.125-41.124-41.124-41.124-98.874 0-57.749 41.124-98.874 41.125-41.124 98.874-41.124 57.75 0 98.874 41.124 41.125 41.125 41.125 98.874 0 57.75-41.125 98.874-41.124 41.125-98.874 41.125Zm0-59.999q33 0 56.5-23.5t23.5-56.5q0-33-23.5-56.5t-56.5-23.5q-33 0-56.5 23.5t-23.5 56.5q0 33 23.5 56.5t56.5 23.5Zm-390.768-60.001q-57.75 0-98.874-41.125-41.125-41.124-41.125-98.874 0-57.749 41.125-98.874 41.124-41.124 98.874-41.124 57.749 0 98.874 41.124 41.124 41.125 41.124 98.874 0 57.75-41.124 98.874-41.125 41.125-98.874 41.125Zm0-59.999q33 0 56.5-23.5t23.5-56.5q0-33-23.5-56.5t-56.5-23.5q-33 0-56.5 23.5t-23.5 56.5q0 33 23.5 56.5t56.5 23.5ZM440-572.309q-57.749 0-98.874-41.124-41.125-41.125-41.125-98.874 0-57.75 41.125-98.874 41.125-41.125 98.874-41.125 57.749 0 98.874 41.125 41.125 41.124 41.125 98.874 0 57.749-41.125 98.874-41.125 41.124-98.874 41.124Zm0-59.998q33 0 56.5-23.5t23.5-56.5q0-33-23.5-56.5t-56.5-23.5q-33 0-56.5 23.5t-23.5 56.5q0 33 23.5 56.5t56.5 23.5Zm235.384 347.691Zm-390.768-120ZM440-712.307Z"/></svg>