<svg xmlns="http://www.w3.org/2000/svg" height="24" viewBox="0 -960 960 960" width="24"><path d="M675.384-144.617q-57.749 0-98.874-41.125-41.124-41.124-41.124-98.874 0-57.749 41.124-98.874 41.125-41.124 98.874-41.124 57.75 0 98.874 41.124 41.125 41.125 41.125 98.874 0 57.75-41.125 98.874-41.124 41.125-98.874 41.125Zm-390.768-120q-57.75 0-98.874-41.125-41.125-41.124-41.125-98.874 0-57.749 41.125-98.874 41.124-41.124 98.874-41.124 57.749 0 98.874 41.124 41.124 41.125 41.124 98.874 0 57.75-41.124 98.874-41.125 41.125-98.874 41.125ZM440-572.309q-57.749 0-98.874-41.124-41.125-41.125-41.125-98.874 0-57.75 41.125-98.874 41.125-41.125 98.874-41.125 57.749 0 98.874 41.125 41.125 41.124 41.125 98.874 0 57.749-41.125 98.874-41.125 41.124-98.874 41.124Z"/></svg>