<svg xmlns="http://www.w3.org/2000/svg" height="24" viewBox="0 -960 960 960" width="24"><path d="M212.309-140.001q-30.308 0-51.308-21t-21-51.308v-535.382q0-30.308 21-51.308t51.308-21h535.382q30.308 0 51.308 21t21 51.308v535.382q0 30.308-21 51.308t-51.308 21H212.309ZM760-447.693v-76.921l-240 240-134.693-134.693Q374.461-430.153 360-430.153q-14.461 0-25.307 10.846L200-284.614v76.921l160-160L494.693-233q10.846 10.846 25.307 10.846 14.461 0 25.307-10.846L760-447.693Zm-250.018-38.461q10.325 0 17.095-6.757 6.769-6.756 6.769-17.089v-180q0-10.333-6.752-17.089-6.751-6.757-17.076-6.757t-17.095 6.757q-6.769 6.756-6.769 17.089v180q0 10.333 6.752 17.089 6.751 6.757 17.076 6.757ZM589.537-600l57.924-77.923q8.461-11.308 1.636-23.615-6.826-12.308-20.476-12.308-5.621 0-10.323 2.672-4.702 2.671-7.837 7.251L533.846-600l76.615 103.923q3.131 4.58 7.826 7.251 4.696 2.672 10.174 2.672 13.83 0 20.338-12.115 6.508-12.116-1.338-23.423L589.537-600Zm-255.691 66.154v-42.308H410q10.333 0 17.089-6.757 6.757-6.756 6.757-17.089v-90q0-10.333-6.757-17.089-6.756-6.757-17.089-6.757H310q-10.333 0-17.089 6.752-6.757 6.751-6.757 17.076t6.757 17.095q6.756 6.769 17.089 6.769h76.154v42.308H310q-10.333 0-17.089 6.757-6.757 6.756-6.757 17.089v90q0 10.333 6.757 17.089 6.756 6.757 17.089 6.757h100q10.333 0 17.089-6.752 6.757-6.751 6.757-17.076t-6.757-17.095q-6.756-6.769-17.089-6.769h-76.154Z"/></svg>