<svg xmlns="http://www.w3.org/2000/svg" height="24" viewBox="0 -960 960 960" width="24"><path d="m492.338-127.119-303.874-302.88h85.537l261.152 261.152q3.462 3.847 8.847 3.654 5.385-.192 8.847-3.654l206.154-206.154h-88.232q-12.75 0-21.375-8.629-8.625-8.628-8.625-21.384 0-12.755 8.625-21.37Q658.019-435 670.769-435h153.845q15.365 0 25.76 10.395 10.394 10.394 10.394 25.759V-245q0 12.749-8.629 21.374-8.629 8.625-21.384 8.625t-21.371-8.625q-8.615-8.625-8.615-21.374v-88.233L594.615-127.079q-20.837 20.693-51.188 20.693-30.35 0-51.089-20.733ZM135.386-525.385q-15.366 0-25.76-10.394-10.394-10.394-10.394-25.76v-153.845q0-12.75 8.629-21.375t21.384-8.625q12.755 0 21.371 8.625 8.615 8.625 8.615 21.375v88.232l206.154-206.154q20.837-20.692 51.188-20.692 30.35 0 51.089 20.733l303.874 302.88h-85.537L424.847-791.538q-3.462-3.846-8.847-3.654-5.385.192-8.847 3.654L200.999-585.384h88.232q12.75 0 21.375 8.629t8.625 21.384q0 12.756-8.625 21.371-8.625 8.615-21.375 8.615H135.386Z"/></svg>