<svg xmlns="http://www.w3.org/2000/svg" height="24" viewBox="0 -960 960 960" width="24"><path d="M616.244-527.693q21.832 0 37.025-15.283 15.192-15.282 15.192-37.115 0-21.832-15.283-37.024t-37.115-15.192q-21.832 0-37.024 15.283-15.193 15.282-15.193 37.115 0 21.832 15.283 37.024t37.115 15.192Zm-272.307 0q21.832 0 37.024-15.283 15.193-15.282 15.193-37.115 0-21.832-15.283-37.024t-37.115-15.192q-21.832 0-37.025 15.283-15.192 15.282-15.192 37.115 0 21.832 15.283 37.024t37.115 15.192Zm42.986 181.539h186.154q10.333 0 17.09-6.752 6.756-6.751 6.756-17.076t-6.756-17.095q-6.757-6.769-17.09-6.769H386.923q-10.333 0-17.09 6.752-6.756 6.751-6.756 17.076t6.756 17.095q6.757 6.769 17.09 6.769Zm93.144 246.153q-78.836 0-148.204-29.92-69.369-29.92-120.682-81.21-51.314-51.291-81.247-120.629-29.933-69.337-29.933-148.173t29.92-148.204q29.92-69.369 81.21-120.682 51.291-51.314 120.629-81.247 69.337-29.933 148.173-29.933t148.204 29.92q69.369 29.92 120.682 81.21 51.314 51.291 81.247 120.629 29.933 69.337 29.933 148.173t-29.92 148.204q-29.92 69.369-81.21 120.682-51.291 51.314-120.629 81.247-69.337 29.933-148.173 29.933Z"/></svg>