<svg xmlns="http://www.w3.org/2000/svg" height="24" viewBox="0 -960 960 960" width="24"><path d="M480.173-272.309q50.904 0 96.096-23t73.038-65.461q8.692-13.154 2.039-26.192Q644.692-400 630.154-400q-5.949 0-10.782 2.731-4.833 2.73-8.064 7.807-23 32.539-57.385 51Q519.539-320 480-320t-73.923-18.462q-34.385-18.461-57.385-51-3.846-5.077-8.679-7.807Q335.18-400 329.231-400q-14.538 0-21.192 12.538t2.039 25.461q27.846 43.077 73.038 66.385 45.192 23.307 97.057 23.307Zm136.071-255.384q21.832 0 37.025-15.283 15.192-15.282 15.192-37.115 0-21.832-15.283-37.024t-37.115-15.192q-21.832 0-37.024 15.283-15.193 15.282-15.193 37.115 0 21.832 15.283 37.024t37.115 15.192Zm-272.307 0q21.832 0 37.024-15.283 15.193-15.282 15.193-37.115 0-21.832-15.283-37.024t-37.115-15.192q-21.832 0-37.025 15.283-15.192 15.282-15.192 37.115 0 21.832 15.283 37.024t37.115 15.192Zm136.13 427.692q-78.836 0-148.204-29.92-69.369-29.92-120.682-81.21-51.314-51.291-81.247-120.629-29.933-69.337-29.933-148.173t29.92-148.204q29.92-69.369 81.21-120.682 51.291-51.314 120.629-81.247 69.337-29.933 148.173-29.933t148.204 29.92q69.369 29.92 120.682 81.21 51.314 51.291 81.247 120.629 29.933 69.337 29.933 148.173t-29.92 148.204q-29.92 69.369-81.21 120.682-51.291 51.314-120.629 81.247-69.337 29.933-148.173 29.933ZM480-480Zm0 320q134 0 227-93t93-227q0-134-93-227t-227-93q-134 0-227 93t-93 227q0 134 93 227t227 93Z"/></svg>