<svg xmlns="http://www.w3.org/2000/svg" height="24" viewBox="0 -960 960 960" width="24"><path d="M480-803.846q-30.692 0-52.269-21.577-21.577-21.577-21.577-52.269 0-30.692 21.577-52.269 21.577-21.577 52.269-21.577 30.692 0 52.269 21.577 21.577 21.577 21.577 52.269 0 30.692-21.577 52.269-21.577 21.577-52.269 21.577ZM376.155-232.307v-459.232q-52.462-4.385-103.808-11.385-51.346-7-99.346-18-13.154-3.231-21.346-14.384-8.192-11.154-4.346-23.923 3.846-13.153 16-19.038 12.153-5.884 25.922-2.653 70.385 15.384 143.385 22.384 72.999 7 147.384 7 74.385 0 147.384-7 73-7 143.385-22.384 13.769-3.231 25.922 2.653 12.154 5.885 16 19.038 3.846 12.769-4.346 23.923-8.192 11.153-21.346 14.384-48 11-99.346 18-51.346 7-103.808 11.385v459.232q0 12.769-8.615 21.384t-21.384 8.615q-12.769 0-21.384-8.615-8.616-8.615-8.616-21.384v-210.77h-87.692v210.77q0 12.769-8.616 21.384-8.615 8.615-21.384 8.615t-21.384-8.615q-8.615-8.615-8.615-21.384ZM320-4.616q-14.692 0-25.038-10.346T284.616-40q0-14.692 10.346-25.038T320-75.384q14.692 0 25.038 10.346T355.384-40q0 14.692-10.346 25.038T320-4.616Zm160 0q-14.692 0-25.038-10.346T444.616-40q0-14.692 10.346-25.038T480-75.384q14.692 0 25.038 10.346T515.384-40q0 14.692-10.346 25.038T480-4.616Zm160 0q-14.692 0-25.038-10.346T604.616-40q0-14.692 10.346-25.038T640-75.384q14.692 0 25.038 10.346T675.384-40q0 14.692-10.346 25.038T640-4.616Z"/></svg>