<svg xmlns="http://www.w3.org/2000/svg" height="24" viewBox="0 -960 960 960" width="24"><path d="M240.114-540.001q-74.652 0-127.382-52.637-52.73-52.637-52.73-127.319 0-75.581 52.636-127.811 52.637-52.231 127.319-52.231 75.581 0 127.811 52.167 52.231 52.166 52.231 127.718 0 74.652-52.167 127.382-52.166 52.731-127.718 52.731ZM240-600q51 0 85.5-35t34.5-85q0-51-34.5-85.5T240-840q-50 0-85 34.5T120-720q0 50 35 85t85 35ZM652.309-60.001q-29.827 0-51.067-21.24-21.241-21.241-21.241-51.068v-175.382q0-29.827 21.241-51.067 21.24-21.241 51.067-21.241h175.382q29.827 0 51.067 21.241 21.241 21.24 21.241 51.067v175.382q0 29.827-21.241 51.067-21.24 21.24-51.067 21.24H652.309Zm0-59.999h175.382q5.385 0 8.847-3.462 3.462-3.462 3.462-8.847v-175.382q0-5.385-3.462-8.847-3.462-3.462-8.847-3.462H652.309q-5.385 0-8.847 3.462-3.462 3.462-3.462 8.847v175.382q0 5.385 3.462 8.847 3.462 3.462 8.847 3.462ZM740-220ZM240-720Zm458.999 63.769-395.23 394.23q5 10.462 8.308 22.212 3.307 11.75 3.307 24.403 0 41.666-28.723 70.833-28.724 29.166-71.185 29.166-41.628 0-70.858-29.174-29.231-29.174-29.231-70.852 0-42.511 29.166-71.241 29.167-28.73 70.833-28.73 12.653 0 24.403 3.307 11.75 3.308 22.212 8.308l394.23-395.23q-5-10.462-8.308-21.729-3.307-11.267-3.307-23.886 0-42.5 29.174-71.249 29.174-28.75 70.851-28.75 42.511 0 71.241 28.724 28.731 28.723 28.731 71.184 0 41.629-28.75 70.859-28.749 29.23-71.249 29.23-12.619 0-23.886-3.307-11.267-3.308-21.729-8.308Z"/></svg>