<svg xmlns="http://www.w3.org/2000/svg" height="24" viewBox="0 -960 960 960" width="24"><path d="M240-67.694q-74.922 0-127.461-52.538-52.538-52.538-52.538-127.461 0-74.922 52.538-127.46Q165.078-427.691 240-427.691t127.461 52.538q52.538 52.538 52.538 127.46 0 74.923-52.538 127.461Q314.922-67.694 240-67.694ZM131.001-491.846q4.615-41.154 35.23-69.653 30.615-28.5 73.769-28.5 22.615 0 42.846 8.884 20.231 8.885 36.077 24.654L614.77-729.692q-2.385-6.769-3.577-14.846-1.192-8.077-1.192-15.462 0-45.769 32.115-77.884T720-869.999q45.769 0 77.884 32.115T829.999-760q0 45.769-32.115 77.884T720-650.001q-22.615 0-42.846-8.884-20.231-8.885-36.077-24.654L345.23-510.308q1.385 4.385 2.077 8.846.692 4.462 1.692 9.616-25.077-11.461-52.384-17.5-27.308-6.038-56.615-6.038-29.307 0-56.615 6.038-27.307 6.039-52.384 17.5ZM720-90.001q-45.769 0-77.884-32.115T610.001-200q0-7.385 1.192-15.462t3.577-14.846l-112.002-65.386q-3.615-20.845-10.192-40.076-6.577-19.23-16.5-37.23l165.001 96.539q15.846-15.769 36.077-24.654 20.231-8.884 42.846-8.884 45.769 0 77.884 32.115T829.999-200q0 45.769-32.115 77.884T720-90.001ZM240-222.77l57.539 58.154q5.23 5.231 12.269 5.423 7.038.192 12.653-5.423 5.616-5.615 5.616-12.769t-5.616-12.769l-57.538-57.539 58.154-58.154q5.23-5.231 5.423-12.269.192-7.038-5.423-12.654-5.616-5.615-12.462-5.615t-12.461 5.615L240-272.616l-58.154-58.154q-5.231-5.23-12.269-5.423-7.038-.192-12.654 5.423-5.615 5.616-5.615 12.462t5.615 12.461l58.154 58.154-58.154 58.154q-5.23 5.231-5.423 12.269-.192 7.039 5.423 12.654 5.616 5.615 12.462 5.615t12.461-5.615L240-222.77Z"/></svg>