<svg xmlns="http://www.w3.org/2000/svg" height="24" viewBox="0 -960 960 960" width="24"><path d="m779.999-288.001-472.46-471.075 79.846-79.846q9.846-9.846 23.193-15.461 13.346-5.616 27.807-5.616h269.306q30.308 0 51.308 21t21 51.308v499.69Zm-527.69 188q-30.308 0-51.308-21t-21-51.308v-429.306q0-14.461 5.616-27.807 5.615-13.347 15.461-23.193l8.308-8.308L76.001-794.308q-8.922-8.923-8.807-20.884.115-11.961 9.423-21.269 9.307-8.692 21.076-9 11.769-.307 21.077 9l720.768 720.768q8.307 8.308 8.5 20.577.192 12.269-8.5 21.576-9.308 9.308-21.384 9.308-12.077 0-21.384-9.308L635.694-234.615l42.769-42.153 101.536 101.536v2.923q0 30.308-21 51.308t-51.308 21H252.309Z"/></svg>