<svg xmlns="http://www.w3.org/2000/svg" height="24" viewBox="0 -960 960 960" width="24"><path d="M172.309-180.001q-29.923 0-51.115-21.193-21.193-21.192-21.193-51.115v-389.999q0-12.769 8.616-21.384 8.615-8.615 21.384-8.615t21.384 8.615Q160-655.077 160-642.308v389.999q0 5.385 3.462 8.847 3.462 3.462 8.847 3.462h517.692q12.769 0 21.384 8.615T720-210.001q0 12.769-8.615 21.384-8.615 8.616-21.384 8.616H172.309ZM312.307-320q-29.923 0-51.115-21.192Q240-362.384 240-392.307v-315.384q0-29.923 21.192-51.115 21.192-21.193 51.115-21.193h286.769L539.077-720h-226.77q-5.385 0-8.847 3.462-3.461 3.462-3.461 8.847v315.384q0 5.385 3.461 8.847 3.462 3.461 8.847 3.461h475.384q5.385 0 8.847-3.461 3.462-3.462 3.462-8.847v-226.77l59.999-59.999v286.769q0 29.923-21.193 51.115Q817.614-320 787.691-320H312.307Zm217.308-166.539q-15.539 0-29.961-5.154-14.423-5.153-25.731-15.461-3.846-3.846-2.23-8.577 1.615-4.73 6.23-5.961 9.846-1.846 16.154-10.154 6.308-8.307 6.308-18.538 0-20 14.038-33.845 14.038-13.846 34.038-13.846 19.615 0 33.653 14.038t14.038 33.653q0 26.846-19.653 45.345-19.654 18.5-46.884 18.5Zm112.921-99.614-56.768-56.768 169.385-168.385q5.616-5.615 12.846-5.615 7.231 0 12.846 5.615l30.461 30.461q5.615 5.615 5.615 12.846 0 7.23-5.615 12.846l-168.77 169Z"/></svg>