<svg xmlns="http://www.w3.org/2000/svg" height="24" viewBox="0 -960 960 960" width="24"><path d="M454.153-382.461 569.23-511.692q.616-.615 4.616-12.409v-14.514q0-10.333-6.757-17.089-6.756-6.757-17.089-6.757H410q-10.333 0-17.089 6.752-6.757 6.751-6.757 17.076 0 10.326 6.757 17.095 6.756 6.769 17.089 6.769h97.847L390.77-383.538q-.616.616-4.616 12.319v12.604q0 10.333 6.757 17.089 6.756 6.757 17.089 6.757h140q10.333 0 17.089-6.752 6.757-6.751 6.757-17.076t-6.757-17.095q-6.756-6.769-17.089-6.769h-95.847Zm25.869 282.46q-70.791 0-132.637-26.77-61.846-26.769-107.846-72.768-45.999-46-72.768-107.824-26.77-61.824-26.77-132.615 0-70.791 26.77-132.637 26.769-61.846 72.768-107.846 46-45.999 107.824-72.768 61.824-26.77 132.615-26.77 70.791 0 132.637 26.77 61.846 26.769 107.846 72.768 45.999 46 72.768 107.824 26.77 61.824 26.77 132.615 0 70.791-26.77 132.637-26.769 61.846-72.768 107.846-46 45.999-107.824 72.768-61.824 26.77-132.615 26.77ZM480-440ZM96.616-668.769q-8.692-8.692-8.692-21.077 0-12.384 8.692-21.076l112.462-112.462q8.307-8.307 20.884-8.499 12.577-.193 21.269 8.499 8.692 8.693 8.692 21.077 0 12.384-8.692 21.076L138.769-668.769q-8.307 8.307-20.884 8.5-12.576.192-21.269-8.5Zm766.768 0q-8.693 8.692-21.077 8.692-12.384 0-21.076-8.692L708.769-781.231q-8.307-8.307-8.5-20.884-.192-12.576 8.5-21.269 8.692-8.692 21.077-8.692 12.384 0 21.076 8.692l112.462 112.462q8.307 8.307 8.499 20.884.193 12.577-8.499 21.269ZM480-160q116.615 0 198.308-81.692Q760-323.385 760-440t-81.692-198.308Q596.615-720 480-720t-198.308 81.692Q200-556.615 200-440t81.692 198.308Q363.385-160 480-160Z"/></svg>