<svg xmlns="http://www.w3.org/2000/svg" height="24" viewBox="0 -960 960 960" width="24"><path d="M299-140.001q-82.538 0-140.768-58.231-58.231-58.23-58.231-140.768 0-79.461 54.231-136.768 54.231-57.308 133.692-61.615 3.846 0 7.692.577 3.847.577 7.693 1.346L183.233-776.997q-9.23-18.076 1.116-35.153 10.346-17.077 31.038-17.077h132.536q20.692 0 37.653 10.846 16.962 10.846 26.808 28.923L480-653.841l67.616-135.617q9.846-18.077 26.808-28.923 16.961-10.846 37.653-10.846h132.152q20.692 0 31.23 17.077t1.308 35.153L657.691-537.845q3.461-.769 7.116-1.154 3.654-.384 7.5-.384 79.23 4.923 133.461 62.23Q859.999-419.846 859.999-340q0 83.538-58.231 141.768-58.23 58.231-141.768 58.231-10.154 0-20.808-.885t-20.423-3.654q51.153-28.307 76.192-81.768Q719.999-279.77 719.999-340q0-100.538-69.731-170.268-69.73-69.731-170.268-69.731t-170.268 69.731Q240.001-440.538 240.001-340q0 61.461 22.808 116.845 22.807 55.385 77.807 78.615-10.154 2.769-20.616 3.654-10.461.885-21 .885ZM480-160q-75 0-127.5-52.5T300-340q0-75 52.5-127.5T480-520q75 0 127.5 52.5T660-340q0 75-52.5 127.5T480-160Zm0-131 45.923 34.692q5.615 4.23 10.846.307Q542-259.924 540-266.154l-17.462-57.154L568.076-356q5.616-4.231 3.616-10.154-2-5.923-8.846-5.923h-56.154l-17.846-60.384q-2-6.231-8.846-6.231t-8.846 6.231l-17.846 60.384h-56.154q-6.846 0-8.846 5.923T391.924-356l45.538 32.692L420-266.154q-2 6.23 3.231 10.153t10.846-.307L480-291Z"/></svg>