<svg xmlns="http://www.w3.org/2000/svg" height="24" viewBox="0 -960 960 960" width="24"><path d="m92.309-288.462 141.923-363.999q3.846-8.923 13.999-14 10.154-5.077 36.355-5.077 9.49 0 16.798 5.077 7.307 5.077 11.153 14l126.001 324.538q5.314 14.887-3.403 27.174-8.717 12.287-24.022 12.287H411q-9.331 0-17.011-5.577-7.681-5.577-10.911-14.269l-9.154-24.462q-8.385-22.769-35.231-36.846-26.847-14.077-94.386-14.077-24.077 0-43.961 13.692-19.885 13.693-28.654 36.693l-16.154 44.846h-63.23ZM209.23-435.538h125.54l-59.539-166.924H270l-60.77 166.924Zm416.461 92.769h178.694q11.313 0 19.233 7.92t7.92 19.234q0 11.313-7.92 19.233t-19.233 7.92H573.923q-7.275 0-12.368-5.046t-5.093-12.254v-27.391q0-6.058 1.808-11.683t5.654-10.24l197.615-262.155H591.615q-11.313 0-19.233-7.92t-7.92-19.234q0-11.313 7.92-19.233t19.233-7.92h220.462q7.275 0 12.368 5.046t5.093 12.254v27.391q0 6.058-1.808 11.683t-5.654 10.24L625.691-342.769ZM384.712-779.327l82.496-82.496q5.561-5.561 12.862-5.561t12.776 5.615l82.445 82.445q4.631 4.631 2.372 10.055-2.26 5.423-8.587 5.423H390.924q-6.327 0-8.587-5.423-2.259-5.424 2.375-10.058Zm82.442 681.096-82.445-82.445q-4.631-4.631-2.372-10.055 2.26-5.423 8.587-5.423h178.152q6.327 0 8.587 5.423 2.259 5.424-2.375 10.058l-82.496 82.496q-5.561 5.561-12.862 5.561t-12.776-5.615Z"/></svg>