<svg xmlns="http://www.w3.org/2000/svg" height="24" viewBox="0 -960 960 960" width="24"><path d="M356.154-718.461h76.922v-76.923h-76.922v76.923Zm153.845 0v-76.923h76.923v76.923h-76.923ZM356.154-410.77v-76.923h76.922v76.923h-76.922Zm307.691-153.846v-76.923h76.923v76.923h-76.923Zm0 153.846v-76.923h76.923v76.923h-76.923Zm-153.846 0v-76.923h76.923v76.923h-76.923Zm153.846-307.691v-76.923h76.923v76.923h-76.923Zm-230.769 76.922v-76.922h76.923v76.922h-76.923ZM249.218-170.77q-12.755 0-21.371-8.625-8.615-8.625-8.615-21.374v-564.616q0-12.75 8.629-21.375 8.629-8.624 21.384-8.624t21.371 8.624q8.615 8.625 8.615 21.375v46.924h76.923v76.922h-76.923v76.923h76.923v76.923h-76.923v286.924q0 12.749-8.629 21.374-8.629 8.625-21.384 8.625Zm337.704-316.923v-76.923h76.923v76.923h-76.923Zm-153.846 0v-76.923h76.923v76.923h-76.923Zm-76.922-76.923v-76.923h76.922v76.923h-76.922Zm153.845 0v-76.923h76.923v76.923h-76.923Zm76.923-76.923v-76.922h76.923v76.922h-76.923Z"/></svg>