<svg xmlns="http://www.w3.org/2000/svg" height="24" viewBox="0 -960 960 960" width="24"><path d="M101.617-510.615q3.846-52.923 20.615-100.154 16.769-47.231 46.308-88 36.154 37.154 59.846 86.577 23.693 49.423 29.154 101.577H101.617Zm600.843 0q5.461-52.154 28.077-100.5Q753.152-659.461 791.46-697q29.539 40.154 46.308 87.501 16.769 47.346 20.615 98.884H702.46ZM168.54-263q-29.539-40.154-45.923-86.808-16.385-46.654-21-99.577H257.54q-5.461 52.154-29.154 100.5Q204.694-300.539 168.54-263Zm622.92 0q-38.308-37.539-60.923-85.885-22.616-48.346-28.077-100.5h155.923q-3.846 51.538-20.615 98.884Q820.999-303.154 791.46-263ZM318.539-510.615q-6.077-68.153-35.154-126.845-29.077-58.692-77.154-106.154 47.231-49.154 109.5-78.923 62.27-29.769 133.654-35.846v347.768H318.539Zm192.076 0v-347.768q71.384 6.077 133.654 35.846 62.269 29.769 109.5 78.923-49.077 45.692-77.654 105.269-28.577 59.577-34.654 127.73H510.615Zm-61.23 408.998q-72.769-6.077-134.346-36.538-61.577-30.462-108.808-79.616 49.077-46.077 77.654-104.576 28.577-58.5 34.654-127.038h130.846v347.768Zm61.23 0v-347.768h130.846q6.077 68.538 34.654 127.922 28.577 59.385 77.654 105.077-47.231 49.154-109.5 78.923-62.27 29.769-133.654 35.846Z"/></svg>