<svg xmlns="http://www.w3.org/2000/svg" height="24" viewBox="0 -960 960 960" width="24"><path d="m586.153-395.077-101.23 101.23Q474.077-283.001 460-283.001q-14.077 0-24.923-10.846l-329.999-329.23Q94.232-633.923 94.232-647q0-13.077 10.982-24.059l102.497-102.497q10.982-10.981 25.289-10.981 14.307 0 25.154 10.846l327.999 329.537q10.846 10.847 10.846 24.539 0 13.692-10.846 24.538Zm136.771 280.153L572.461-265.386l42.153-42.153 150.462 150.463q8.308 8.307 8.5 20.884.193 12.576-8.5 21.268-8.692 8.693-21.076 8.693t-21.076-8.693Zm17.146-499.692q-51.916 0-88.685-36.699-36.769-36.699-36.769-88.615t36.699-88.685q36.699-36.769 88.615-36.769t88.685 36.699q36.769 36.699 36.769 88.615t-36.699 88.685q-36.699 36.769-88.615 36.769Z"/></svg>