<svg xmlns="http://www.w3.org/2000/svg" height="24" viewBox="0 -960 960 960" width="24"><path d="M406.999-383.001H480q12.75 0 21.374-8.625 8.625-8.624 8.625-21.374v-103.001H583q12.75 0 21.375-8.624 8.624-8.625 8.624-21.375v-104.001H680q12.75 0 21.375-8.628 8.624-8.629 8.624-21.384 0-12.756-8.624-21.371-8.625-8.615-21.375-8.615h-97q-12.75 0-21.375 8.624-8.624 8.625-8.624 21.375v103.001H480q-12.75 0-21.374 8.624-8.625 8.625-8.625 21.375v103.001H377q-12.75 0-21.374 8.625-8.625 8.624-8.625 21.374v104.001H280q-12.75 0-21.374 8.628-8.625 8.629-8.625 21.384 0 12.756 8.625 21.371 8.624 8.615 21.374 8.615h97q12.75 0 21.374-8.625 8.625-8.624 8.625-21.374v-103.001Zm-194.69 243q-30.308 0-51.308-21t-21-51.308v-535.382q0-30.308 21-51.308t51.308-21h535.382q30.308 0 51.308 21t21 51.308v535.382q0 30.308-21 51.308t-51.308 21H212.309Z"/></svg>