<svg xmlns="http://www.w3.org/2000/svg" height="24" viewBox="0 -960 960 960" width="24"><path d="M172.309-180.001q-30.308 0-51.308-21t-21-51.308v-455.382q0-30.308 21-51.308t51.308-21h615.382q30.308 0 51.308 21t21 51.308v455.382q0 30.308-21 51.308t-51.308 21H172.309Zm109.23-151.538h256.924q12.75 0 21.374-8.629 8.625-8.629 8.625-21.384t-8.625-21.371q-8.624-8.615-21.374-8.615H281.539q-12.75 0-21.375 8.629-8.625 8.628-8.625 21.384 0 12.755 8.625 21.371 8.625 8.615 21.375 8.615Zm139.998-151.538h256.924q12.75 0 21.375-8.629 8.625-8.628 8.625-21.384 0-12.755-8.625-21.371-8.625-8.615-21.375-8.615H421.537q-12.75 0-21.374 8.629-8.625 8.629-8.625 21.384 0 12.756 8.625 21.371 8.624 8.615 21.374 8.615Zm-139.985 0q12.755 0 21.371-8.629 8.615-8.628 8.615-21.384 0-12.755-8.629-21.371-8.628-8.615-21.384-8.615-12.755 0-21.371 8.629-8.615 8.629-8.615 21.384 0 12.756 8.629 21.371 8.629 8.615 21.384 8.615Zm396.923 151.538q12.755 0 21.371-8.629 8.615-8.629 8.615-21.384t-8.629-21.371q-8.629-8.615-21.384-8.615t-21.371 8.629q-8.615 8.628-8.615 21.384 0 12.755 8.629 21.371 8.628 8.615 21.384 8.615Z"/></svg>