<svg xmlns="http://www.w3.org/2000/svg" height="24" viewBox="0 -960 960 960" width="24"><path d="M100.001-172.309V-606q0-77.692 41.116-135.768 41.115-58.077 114.576-87.769Q307-849.383 366.462-854.691q59.461-5.308 113.538-5.308t113.538 5.308q59.462 5.308 110.769 25.154 73.461 29.692 114.576 87.769Q859.999-683.692 859.999-606v433.691q0 29.827-21.241 51.067-21.24 21.241-51.067 21.241H172.309q-29.827 0-51.067-21.241-21.241-21.24-21.241-51.067ZM300-435.384V-600h360v164.616H300Zm311.47 132.307q-15.394 0-25.74-10.414-10.346-10.413-10.346-25.807 0-15.394 10.414-25.74 10.413-10.346 25.807-10.346 15.394 0 25.74 10.413 10.346 10.414 10.346 25.808t-10.413 25.74q-10.414 10.346-25.808 10.346Zm-263.075 0q-15.394 0-25.74-10.414-10.346-10.413-10.346-25.807 0-15.394 10.413-25.74 10.414-10.346 25.808-10.346t25.74 10.413q10.346 10.414 10.346 25.808t-10.414 25.74q-10.413 10.346-25.807 10.346Zm68.681 80h124.617l52.538 55.231q3.847 4.231 8.432 6.038Q607.248-160 612.25-160q16.673 0 23.019-15.346t-4.961-27.038l-20.77-22.693q44.384-6 71.269-37.962Q707.691-295 707.691-340v-260q0-67.615-63.845-88.038Q580-708.461 480-708.461q-91 0-159.346 20.423-68.345 20.423-68.345 88.038v260q0 45 26.884 77.154 26.885 32.153 71.269 37.769l-21.385 23.308q-11.308 11.693-5.004 26.731Q330.377-160 347.187-160q5.043 0 9.274-2 4.231-2 8.077-5.846l52.538-55.231Z"/></svg>