<svg xmlns="http://www.w3.org/2000/svg" height="24" viewBox="0 -960 960 960" width="24"><path d="M372.309-140.001q-29.827 0-51.067-21.241-21.241-21.24-21.241-51.067v-375.382q0-29.827 21.241-51.067 21.24-21.241 51.067-21.241h375.382q29.827 0 51.067 21.241 21.241 21.24 21.241 51.067v375.382q0 29.827-21.241 51.067-21.24 21.241-51.067 21.241H372.309Zm24.614-366.921h326.154q15.692 0 26.308-10.615Q760-528.153 760-543.845v-19.232q0-15.692-10.615-26.308Q738.769-600 723.077-600H396.923q-15.692 0-26.308 10.615Q360-578.769 360-563.077v19.232q0 15.692 10.615 26.308 10.616 10.615 26.308 10.615Zm116.153 153.846h93.848v-93.848h-93.848v93.848Zm0 153.076h93.848v-93.078h-93.848V-200ZM360-353.076h93.078v-93.848H360v93.848Zm306.922 0H760v-93.848h-93.078v93.848ZM372.309-200h80.769v-93.078H360v80.769q0 5.385 3.462 8.847 3.462 3.462 8.847 3.462Zm294.613 0h80.769q5.385 0 8.847-3.462 3.462-3.462 3.462-8.847v-80.769h-93.078V-200ZM212.309-300.001q-29.827 0-51.067-21.241-21.241-21.24-21.241-51.067v-375.382q0-29.827 21.241-51.067 21.24-21.241 51.067-21.241h375.382q29.827 0 51.067 21.241 21.241 21.24 21.241 51.067v47.692H600v-47.692q0-5.385-3.462-8.847-3.462-3.462-8.847-3.462H212.309q-5.385 0-8.847 3.462-3.462 3.462-3.462 8.847v375.382q0 5.385 3.462 8.847 3.462 3.462 8.847 3.462h47.692v59.999h-47.692Z"/></svg>