<svg xmlns="http://www.w3.org/2000/svg" height="24" viewBox="0 -960 960 960" width="24"><path d="M463.848-669.614v-79.998q0-33.6 23.199-56.799 23.2-23.2 56.799-23.2h79.999v79.999q0 33.599-23.2 56.799-23.199 23.199-56.799 23.199h-79.998ZM256.009-449.615q-49.775 0-84.813-35.038-35.038-35.038-35.038-84.813v-120.146h120.146q49.775 0 84.813 35.038 35.038 35.038 35.038 84.812v120.147H256.009ZM640-110.001q-37.364 0-71.374-12t-61.472-33l-46.078 46.077q-8.307 8.308-20.884 8.5-12.576.193-21.268-8.5-8.693-8.692-8.5-21.268.192-12.577 8.5-20.884l46.077-46.078q-21-27.462-33-61.472-12-34.01-12-71.374 0-91.541 64.167-156.077Q548.334-550.614 640-550.614h220.229v220.612q0 91.54-64.424 155.77Q731.381-110.001 640-110.001ZM640-170q67 0 113-47t46-113v-160H640q-66 0-113 46.5T480-330q0 25.308 7.231 48.116t20.539 41.962l111.154-111.154q8.692-8.693 21.076-8.693t21.076 8.693q8.693 8.692 8.693 21.076t-8.693 21.076L549.922-197.77q19.154 13.308 41.872 20.539Q614.512-170 640-170Zm1-161Z"/></svg>