<svg xmlns="http://www.w3.org/2000/svg" height="24" viewBox="0 -960 960 960" width="24"><path d="M480-755.384q-13.731 0-23.019-9.289-9.288-9.288-9.288-23.018 0-13.731 9.288-23.019 9.288-9.289 23.019-9.289 13.731 0 23.019 9.289 9.288 9.288 9.288 23.019 0 13.73-9.288 23.018-9.288 9.289-23.019 9.289Zm153.846 0q-13.731 0-23.019-9.289-9.288-9.288-9.288-23.018 0-13.731 9.288-23.019 9.288-9.289 23.019-9.289 13.73 0 23.019 9.289 9.288 9.288 9.288 23.019 0 13.73-9.288 23.018-9.289 9.289-23.019 9.289Zm153.845 0q-13.73 0-23.018-9.289-9.289-9.288-9.289-23.018 0-13.731 9.289-23.019 9.288-9.289 23.018-9.289 13.731 0 23.019 9.289 9.289 9.288 9.289 23.019 0 13.73-9.289 23.018-9.288 9.289-23.019 9.289ZM480-140.001q-13.731 0-23.019-9.289-9.288-9.288-9.288-23.019 0-13.73 9.288-23.018 9.288-9.289 23.019-9.289 13.731 0 23.019 9.289 9.288 9.288 9.288 23.018 0 13.731-9.288 23.019-9.288 9.289-23.019 9.289Zm153.846 0q-13.731 0-23.019-9.289-9.288-9.288-9.288-23.019 0-13.73 9.288-23.018 9.288-9.289 23.019-9.289 13.73 0 23.019 9.289 9.288 9.288 9.288 23.018 0 13.731-9.288 23.019-9.289 9.289-23.019 9.289Zm153.845 0q-13.73 0-23.018-9.289-9.289-9.288-9.289-23.019 0-13.73 9.289-23.018 9.288-9.289 23.018-9.289 13.731 0 23.019 9.289 9.289 9.288 9.289 23.018 0 13.731-9.289 23.019-9.288 9.289-23.019 9.289Zm-617.69 0q-12.75 0-21.375-8.629t-8.625-21.384q0-12.756 8.625-21.371Q157.251-200 170.001-200h50v-560h-50q-12.75 0-21.375-8.629-8.625-8.628-8.625-21.384 0-12.755 8.625-21.37 8.625-8.616 21.375-8.616h160q12.749 0 21.374 8.629Q360-802.741 360-789.986q0 12.756-8.625 21.371Q342.75-760 330.001-760H280v560h50.001q12.749 0 21.374 8.629Q360-182.743 360-169.987q0 12.755-8.625 21.37-8.625 8.616-21.374 8.616h-160Zm535.077-310h-252q-12.75 0-21.375-8.628-8.624-8.629-8.624-21.384 0-12.756 8.624-21.371 8.625-8.615 21.375-8.615h252l-52.539-52.925q-8.308-8.307-8.5-20.768-.193-12.462 8.998-21.451 8.424-8.241 21.193-8.049 12.769.193 21.077 8.5l99.384 99.385q10.846 10.846 10.846 25.307 0 14.461-10.846 25.307l-99.769 99.769q-8.307 8.308-20.384 8.616-12.077.307-21.468-8.682-8.608-8.241-8.416-21.01.192-12.769 8.5-21.076l51.924-52.925Z"/></svg>