<svg xmlns="http://www.w3.org/2000/svg" height="24" viewBox="0 -960 960 960" width="24"><path d="M240-209.231q-12.769 0-21.384-8.616-8.615-8.615-8.615-21.384t8.615-21.384q8.615-8.615 21.384-8.615h480q12.769 0 21.384 8.615t8.615 21.384q0 12.769-8.615 21.384-8.615 8.616-21.384 8.616H240Zm64.001-192.23 139.692-371.462q3.231-8.307 10.231-13.076 7-4.77 15.922-4.77h21.077q8.923 0 15.923 4.962 6.999 4.961 10.23 13.269L655.23-400.846q4.461 13.154-3.038 24.692-7.5 11.538-21.654 11.538-8.692 0-15.692-4.769t-10.23-13.461l-33.462-94.539H389.307l-34.692 95.154q-3.231 8.308-9.923 12.962-6.692 4.653-15.384 4.653-14.769 0-22.577-11.846-7.807-11.845-2.73-24.999Zm102.691-125.308h145.847l-70.154-196.616h-4l-71.693 196.616Z"/></svg>