<svg xmlns="http://www.w3.org/2000/svg" height="24" viewBox="0 -960 960 960" width="24"><path d="M290.091-100.001q-91.628 0-155.858-64.167Q70.003-228.334 70.003-320v-187.691q0-29.827 21.24-51.067 21.24-21.241 51.066-21.241h295.383q29.827 0 51.067 21.241 21.24 21.24 21.24 51.067V-320q0 91.666-64.14 155.832-64.139 64.167-155.768 64.167Zm-80.09-283.845q15.077 0 25.615-10.539 10.538-10.538 10.538-25.615 0-15.077-10.538-25.615-10.538-10.539-25.615-10.539-15.077 0-25.615 10.539-10.539 10.538-10.539 25.615 0 15.077 10.539 25.615 10.538 10.539 25.615 10.539Zm160 0q15.077 0 25.615-10.539 10.538-10.538 10.538-25.615 0-15.077-10.538-25.615-10.538-10.539-25.615-10.539-15.077 0-25.615 10.539-10.539 10.538-10.539 25.615 0 15.077 10.539 25.615 10.538 10.539 25.615 10.539Zm299.998 3.845q-26.384 0-52.846-6.462-26.462-6.462-47.154-18.616v-127.228q0-44.872-31.41-76.282-31.41-31.41-76.281-31.41h-12.307v-147.692q0-29.827 21.24-51.067 21.24-21.241 51.067-21.241h295.383q29.826 0 51.067 21.241 21.24 21.24 21.24 51.067V-600q0 91.666-64.166 155.832-64.167 64.167-155.833 64.167Zm-80-283.845q15.077 0 25.615-10.539 10.539-10.538 10.539-25.615 0-15.077-10.539-25.615-10.538-10.539-25.615-10.539-15.077 0-25.615 10.539-10.538 10.538-10.538 25.615 0 15.077 10.538 25.615 10.538 10.539 25.615 10.539Zm160 0q15.077 0 25.615-10.539 10.539-10.538 10.539-25.615 0-15.077-10.539-25.615-10.538-10.539-25.615-10.539-15.077 0-25.615 10.539-10.538 10.538-10.538 25.615 0 15.077 10.538 25.615 10.538 10.539 25.615 10.539Zm-80.021 67.692q-26.286 0-50.478 9.77-24.193 9.769-36.962 32.307-5.384 9.231 1.346 17.731 6.731 8.5 18.731 8.5h134.769q11.615 0 18.346-8.5 6.73-8.5 1.346-17.731-12.77-22.538-36.79-32.307-24.021-9.77-50.308-9.77ZM290.001-247.846q25.692 0 48.961-9.462 23.269-9.461 37.269-30.769 6-9.359.192-18.718-5.807-9.359-17.807-9.359h-137.23q-11.808 0-17.712 9.423-5.904 9.424.096 18.654 14 21.308 37.269 30.769 23.27 9.462 48.962 9.462Z"/></svg>