<svg xmlns="http://www.w3.org/2000/svg" height="24" viewBox="0 -960 960 960" width="24"><path d="M827.691-619.999q28.539 0 50.423 21.885 21.885 21.884 21.885 50.423v64.614q0 6.231-1.308 13.461-1.308 7.231-3.923 13.462l-114.615 270.46q-8.616 19.231-28.846 32.462-20.231 13.231-42.077 13.231H385.384q-29.923 0-51.115-21.193-21.193-21.192-21.193-51.115v-377.767q0-14.461 5.923-27.807 5.923-13.346 15.77-23.192l211.615-210.231q11.922-11.307 27.614-13.923 15.692-2.615 30.077 4.693 14.384 7.307 20.768 21.461 6.385 14.153 2.539 30.076l-43.077 189h243.386ZM172.309-140.001q-29.923 0-51.115-21.193-21.193-21.192-21.193-51.115v-335.382q0-29.923 21.193-51.115 21.192-21.193 51.115-21.193h8.462q29.923 0 51.115 21.193 21.192 21.192 21.192 51.115v335.767q0 29.923-21.192 50.923-21.192 21-51.115 21h-8.462Z"/></svg>