<svg xmlns="http://www.w3.org/2000/svg" height="24" viewBox="0 -960 960 960" width="24"><path d="M537.001-279.847q25.972 0 44.523-16.515 18.552-16.516 18.552-39.56v-72.002q0-15.692-12.346-26.768-12.345-11.077-31.037-11.846 18.692-1.154 31.037-12.538 12.346-11.385 12.346-26.692v-59.694q0-22.948-18.653-39.012-18.654-16.064-44.422-16.064H390.538q-11.474 0-19.506 8.045T363-572.955q0 11.493 8.032 19.493 8.032 8 19.506 8h146.463v71.386h-65.309q-11.474 0-19.506 8.045t-8.032 19.538q0 11.493 8.032 19.493 8.032 8 19.506 8h65.309v83.078H390.538q-11.474 0-19.506 8.045T363-308.339q0 11.493 8.485 19.992 8.484 8.5 20.053 8.5h145.463ZM397.692-850.001q-12.75 0-21.374-8.628-8.625-8.629-8.625-21.384 0-12.756 8.625-21.371 8.624-8.615 21.374-8.615h164.616q12.75 0 21.374 8.628 8.625 8.629 8.625 21.384 0 12.756-8.625 21.371-8.624 8.615-21.374 8.615H397.692Zm82.308 750q-69.973 0-131.909-26.77-61.936-26.769-108.244-73.076-46.307-46.308-73.076-108.244-26.77-61.936-26.77-131.909 0-69.973 26.77-131.909 26.769-61.936 73.076-108.244 46.308-46.307 108.244-73.076 61.936-26.77 131.909-26.77 60.077 0 115.731 20.385 55.653 20.385 103.345 58.385l28.77-28.77q8.307-8.307 20.884-8.499 12.576-.193 21.269 8.499 8.692 8.693 8.692 21.077 0 12.384-8.692 21.076l-28.77 28.77q38 47.692 58.385 103.345Q819.999-500.077 819.999-440q0 69.973-26.77 131.909-26.769 61.936-73.076 108.244-46.308 46.307-108.244 73.076-61.936 26.77-131.909 26.77ZM480-160q116 0 198-82t82-198q0-116-82-198t-198-82q-116 0-198 82t-82 198q0 116 82 198t198 82Zm0-280Z"/></svg>