<svg xmlns="http://www.w3.org/2000/svg" height="24" viewBox="0 -960 960 960" width="24"><path d="M180.001-347.693V-720q0-46.076 25-73.73 25-27.654 66.731-42.23 41.73-14.577 95.961-19.308 54.23-4.731 112.307-4.731 62.154 0 116.807 4.731 54.654 4.731 95.461 19.308 40.808 14.576 64.269 42.23 23.462 27.654 23.462 73.73v372.307q0 53.615-37.039 90.653-37.038 37.039-90.653 37.039l33.847 33.847q13.154 13.153 6.269 29.653-6.884 16.5-25.499 16.5-5.461 0-10.423-1.923-4.961-1.924-8.807-5.77l-72.308-72.307H384.614l-72.308 72.307q-3.846 3.846-8.807 5.77-4.962 1.923-10.423 1.923-18 0-25.192-16.5t5.962-29.653l33.847-33.847q-53.615 0-90.653-37.039-37.039-37.038-37.039-90.653ZM480-800q-111.77 0-163.078 14.039-51.307 14.038-65.846 36.731h460.309q-12.692-23.924-64.308-37.347Q595.462-800 480-800ZM240-539.999h210.001v-149.232H240v149.232ZM652.307-480H240h480-67.693Zm-142.308-59.999H720v-149.232H509.999v149.232ZM340-327.693q22.538 0 37.423-14.884 14.884-14.885 14.884-37.423 0-22.538-14.884-37.423-14.885-14.884-37.423-14.884-22.538 0-37.423 14.884-14.884 14.885-14.884 37.423 0 22.538 14.884 37.423 14.885 14.884 37.423 14.884Zm280 0q22.538 0 37.423-14.884 14.884-14.885 14.884-37.423 0-22.538-14.884-37.423-14.885-14.884-37.423-14.884-22.538 0-37.423 14.884-14.884 14.885-14.884 37.423 0 22.538 14.884 37.423 14.885 14.884 37.423 14.884ZM307.693-280h344.614Q681-280 700.5-299.5 720-319 720-347.693V-480H240v132.307Q240-319 259.5-299.5 279-280 307.693-280ZM480-749.23h231.385-460.309H480Z"/></svg>