<svg xmlns="http://www.w3.org/2000/svg" height="24" viewBox="0 -960 960 960" width="24"><path d="M172.309-180.001q-30.308 0-51.308-21t-21-51.308v-455.382q0-30.308 21-51.308t51.308-21h615.382q30.308 0 51.308 21t21 51.308v228.769q-13-6.308-28.5-10.577Q816-493.768 800-496.383v-165.542L499.461-469.924q-4.615 2.615-9.538 4.115t-9.923 1.5q-5 0-9.923-1.5t-9.538-4.115L160-661.925v409.616q0 5.385 3.462 8.847 3.462 3.462 8.847 3.462h327.692q0 16 1.847 30.307 1.846 14.307 6.307 29.692H172.309ZM480-520l313.846-200H166.154L480-520ZM160-240v-259.999 3-164.926 9.231-45.691.769V-720v22.769-1.462V-652.694v-9.231V-240ZM760-60.001q-74.922 0-127.461-52.538Q580.001-165.078 580.001-240t52.538-127.461Q685.078-419.999 760-419.999t127.461 52.538Q939.999-314.922 939.999-240t-52.538 127.461Q834.922-60.001 760-60.001Zm-89.23-162.307h178.46q7.231 0 12.461-5.231 5.231-5.23 5.231-12.461t-5.231-12.461q-5.23-5.231-12.461-5.231H670.77q-7.231 0-12.461 5.231-5.231 5.23-5.231 12.461t5.231 12.461q5.23 5.231 12.461 5.231Z"/></svg>