<svg xmlns="http://www.w3.org/2000/svg" height="24" viewBox="0 -960 960 960" width="24"><path d="M250.001-290.001h-60.002q-25.692 0-42.845-17.153t-17.153-42.845v-320.002H120q-12.75 0-21.374-8.628Q90-687.258 90-700.013q0-12.756 8.624-21.371 8.625-8.615 21.375-8.615h130.001v-80.002H220q-12.75 0-21.374-8.628-8.625-8.629-8.625-21.384 0-12.756 8.625-21.371 8.624-8.615 21.374-8.615h120q12.75 0 21.374 8.628 8.625 8.629 8.625 21.384 0 12.756-8.625 21.371-8.624 8.615-21.374 8.615h-30.001v80.002H440q12.75 0 21.374 8.628 8.625 8.629 8.625 21.384 0 12.756-8.625 21.371-8.624 8.615-21.374 8.615h-10.001v320.002q0 25.692-17.153 42.845t-42.845 17.153h-60.002v180q0 12.75-8.628 21.375-8.629 8.625-21.384 8.625-12.756 0-21.371-8.625-8.615-8.625-8.615-21.375v-180Zm-60.002-59.998h180.002v-76.155H290q-9.538 0-16.692-7.154T266.154-450q0-9.538 7.154-16.692T290-473.846h80.001v-72.308H290q-9.538 0-16.692-7.154T266.154-570q0-9.538 7.154-16.692T290-593.846h80.001v-76.155H189.999v320.002Zm400 259.998q-25.692 0-42.845-17.153t-17.153-42.845V-420q0-28.834 11.154-47.724 11.154-18.891 22.154-32.122 10.615-12.846 18.653-21.538 8.039-8.693 8.039-18.616v-30.001H580q-12.75 0-21.375-8.628-8.624-8.629-8.624-21.384 0-12.756 8.624-21.371 8.625-8.615 21.375-8.615h200q12.75 0 21.375 8.628 8.624 8.629 8.624 21.384 0 12.756-8.624 21.371-8.625 8.615-21.375 8.615h-10.001V-540q0 9.923 8.654 19.539 8.654 9.615 19.884 22.461 11 13.231 21.231 32.038 10.231 18.808 10.231 45.822v270.141q0 25.692-17.153 42.845t-42.845 17.153H589.999Zm0-303.845h180.002V-420q0-17.308-9-29.462T740.231-475q-10.727-12.111-20.478-27.017-9.752-14.906-9.752-37.983v-30.001h-60.002V-540q0 22.352-9.5 37.253t-20.115 27.131q-11.769 13.385-21.077 25.847-9.308 12.461-9.308 29.769v26.154Zm0 120h180.002v-72.308H589.999v72.308Zm0 123.847h180.002v-76.155H589.999v76.155Zm0-123.847h180.002-180.002Z"/></svg>