<svg xmlns="http://www.w3.org/2000/svg" height="24" viewBox="0 -960 960 960" width="24"><path d="M332.309-207.693v-104.614h472.305q21.795 0 37.051 15.283 15.256 15.282 15.256 37.115 0 21.832-15.256 37.024t-37.051 15.192H332.309ZM833.094-360q-10.326 0-17.095-6.756-6.769-6.757-6.769-17.09V-450q0-66-46-110.923t-114-44.923q-10.333 0-17.089-6.751-6.757-6.751-6.757-17.077 0-10.325 6.757-17.094 6.756-6.769 17.089-6.769 30 0 51.615-21.615 21.616-21.616 21.616-51.616 0-30.769-21.616-52.769-21.615-22-51.615-22-10.333 0-17.089-6.751-6.757-6.752-6.757-17.077 0-10.325 6.757-17.094 6.756-6.77 17.089-6.77 50.535 0 85.728 35.923 35.194 35.923 35.194 86.538 0 29-11.385 51.154-11.384 22.154-29.384 38.642 54.077 21.434 90.807 70.818Q856.921-516.769 856.921-450v66.154q0 10.333-6.751 17.09Q843.419-360 833.094-360Zm-87.692 0q-10.325 0-17.094-6.756-6.769-6.757-6.769-17.09V-412q0-37.461-23-59.115-23-21.654-55-21.654h-62q-50.615 0-86.154-35.866-35.538-35.865-35.538-87.364 0-50.213 35.538-85.183 35.539-34.97 86.154-34.97 10.333 0 17.089 6.751 6.756 6.751 6.756 17.077 0 10.325-6.756 17.094-6.756 6.769-17.089 6.769-30 0-52 20.543t-22 51.846q0 31.303 22 53.457t52 22.154h62q51.384 0 88.537 34.654 37.154 34.654 37.154 85.192v36.769q0 10.333-6.751 17.09Q755.728-360 745.402-360ZM292.309-207.693q-36.308-9.231-72-13.654t-72.615-4.423h-2.692q-14.548 0-24.389-9.841-9.842-9.841-9.842-24.389 0-14.077 11.616-20.769 11.615-6.692 22.615-13.461h2.692q36.923 0 72.615-4.423 35.692-4.423 72-13.654v104.614ZM420-240q8 0 14-6t6-14q0-8-6-14t-14-6q-8 0-14 6t-6 14q0 8 6 14t14 6Z"/></svg>