<svg xmlns="http://www.w3.org/2000/svg" height="24" viewBox="0 -960 960 960" width="24"><path d="M379.617-450.001V-360q0 12.769 8.615 21.384t21.384 8.615q12.769 0 21.384-8.615T439.615-360v-90.001h90.001q12.769 0 21.384-8.615T559.615-480q0-12.769-8.615-21.384t-21.384-8.615h-90.001V-600q0-12.769-8.615-21.384t-21.384-8.615q-12.769 0-21.384 8.615T379.617-600v90.001h-90.001q-12.769 0-21.384 8.615T259.617-480q0 12.769 8.615 21.384t21.384 8.615h90.001Zm-197.692 270q-30.308 0-51.308-21-20.999-21-20.999-51.308v-455.382q0-30.308 20.999-51.308 21-21 51.308-21h455.382q30.308 0 51.308 21t21 51.308v183.077L819.46-634.459q8.846-8.846 19.884-4.423t11.038 16.884v283.996q0 12.461-11.038 16.884t-19.884-4.423L709.615-435.386v183.077q0 30.308-21 51.308t-51.308 21H181.925Zm0-59.999h455.382q5.386 0 8.847-3.462 3.462-3.462 3.462-8.847v-455.382q0-5.385-3.462-8.847-3.461-3.462-8.847-3.462H181.925q-5.385 0-8.847 3.462-3.462 3.462-3.462 8.847v455.382q0 5.385 3.462 8.847Q176.54-240 181.925-240Zm-12.309 0v-480 480Z"/></svg>