<svg xmlns="http://www.w3.org/2000/svg" height="24" viewBox="0 -960 960 960" width="24"><path d="m443.846-187.924-197.692-114.23q-17.173-9.958-26.663-26.705-9.49-16.746-9.49-35.756v-228.462q0-19.01 9.49-35.756 9.49-16.747 26.663-26.705l197.692-114.231q17.203-9.846 36.217-9.846t36.091 9.846l197.692 114.231q17.173 9.958 26.663 26.705 9.49 16.746 9.49 35.756v228.462q0 19.01-9.49 35.756-9.49 16.747-26.663 26.705l-197.692 114.23q-17.203 9.846-36.217 9.846t-36.091-9.846ZM129.987-650.001q-12.755 0-21.37-8.624-8.616-8.625-8.616-21.375v-107.691q0-29.827 21.241-51.067 21.24-21.241 51.067-21.241H280q12.75 0 21.374 8.629 8.625 8.629 8.625 21.384 0 12.756-8.625 21.371Q292.75-800 280-800H172.309q-5.385 0-8.847 3.462-3.462 3.462-3.462 8.847V-680q0 12.75-8.629 21.375-8.628 8.624-21.384 8.624Zm42.322 550q-29.827 0-51.067-21.241-21.241-21.24-21.241-51.067V-280q0-12.75 8.629-21.374 8.629-8.625 21.384-8.625 12.756 0 21.371 8.625Q160-292.75 160-280v107.691q0 5.385 3.462 8.847 3.462 3.462 8.847 3.462H280q12.75 0 21.374 8.629 8.625 8.628 8.625 21.384 0 12.755-8.625 21.37-8.624 8.616-21.374 8.616H172.309Zm615.382 0H680q-12.75 0-21.375-8.629-8.624-8.629-8.624-21.384 0-12.756 8.624-21.371Q667.25-160 680-160h107.691q5.385 0 8.847-3.462 3.462-3.462 3.462-8.847V-280q0-12.75 8.629-21.374 8.628-8.625 21.384-8.625 12.755 0 21.37 8.625 8.616 8.624 8.616 21.374v107.691q0 29.827-21.241 51.067-21.24 21.241-51.067 21.241ZM800-680v-107.691q0-5.385-3.462-8.847-3.462-3.462-8.847-3.462H680q-12.75 0-21.375-8.629-8.624-8.628-8.624-21.384 0-12.755 8.624-21.37 8.625-8.616 21.375-8.616h107.691q29.827 0 51.067 21.241 21.241 21.24 21.241 51.067V-680q0 12.75-8.629 21.375-8.629 8.624-21.384 8.624-12.756 0-21.371-8.624Q800-667.25 800-680Zm-498.771 62.154L269.999-600v34.614L450.001-462v208.617L480-236.153l29.999-17.23V-462l180.002-103.386V-600l-31.23-17.846L480-513.691 301.229-617.846Z"/></svg>