<svg xmlns="http://www.w3.org/2000/svg" height="24" viewBox="0 -960 960 960" width="24"><path d="M267.693-335.386q-68.589 0-116.602-47.986-48.012-47.986-48.012-116.537 0-68.552 47.986-116.629 47.986-48.076 116.537-48.076 68.552 0 116.629 48.012Q432.307-568.589 432.307-500q0 29.693-10.308 56.616t-29.693 48h175.388q-19.385-21.077-29.693-48T527.693-500q0-68.589 47.986-116.602 47.986-48.012 116.538-48.012 68.551 0 116.628 47.986 48.076 47.986 48.076 116.537 0 68.552-48.012 116.629-48.013 48.076-116.602 48.076H267.693Zm-.011-59.998q43.934 0 74.28-30.336 30.347-30.335 30.347-74.269 0-43.934-30.336-74.28-30.335-30.347-74.269-30.347-43.934 0-74.281 30.336-30.346 30.335-30.346 74.269 0 43.934 30.336 74.28 30.335 30.347 74.269 30.347Zm424.614 0q43.934 0 74.281-30.336 30.346-30.335 30.346-74.269 0-43.934-30.336-74.28-30.335-30.347-74.269-30.347-43.934 0-74.28 30.336-30.347 30.335-30.347 74.269 0 43.934 30.336 74.28 30.335 30.347 74.269 30.347Z"/></svg>