<svg xmlns="http://www.w3.org/2000/svg" height="24" viewBox="0 -960 960 960" width="24"><path d="M220.001-216.155v-281.923l-48.383 5.769q-12.461 3.078-19-8.769-6.538-11.846 4.462-21.23l298.613-269.075q9.846-9.846 24.307-9.846 14.461 0 24.307 9.846L802.92-522.308q11.385 9.769 4.654 21.807-6.731 12.039-19.192 8.577l-48.383-6.154v281.923q0 15.461-10.347 25.807-10.346 10.347-25.807 10.347h-447.69q-15.461 0-25.807-10.347-10.347-10.346-10.347-25.807ZM280-240h400v-312L480-732 280-552v312Zm200-90.001q29.154 0 49.576-20.423 20.423-20.422 20.423-49.576 0-23.154-12.884-48.846Q524.23-474.537 480-538.46q-45 65.076-57.499 89.999-12.5 24.923-12.5 48.461 0 29.154 20.423 49.576 20.422 20.423 49.576 20.423ZM480-486Z"/></svg>