<svg xmlns="http://www.w3.org/2000/svg" height="24" viewBox="0 -960 960 960" width="24"><path d="M321.001-525.538q0 44.231 22.384 80.077 22.385 35.846 57.77 56.538-9.616-12.846-15.116-27.615-5.5-14.769-5.5-31.384 0-20.473 7.731-38.275t21.808-31.263L480-586.767l70.364 69.273q14.251 13.495 21.674 31.297t7.423 38.275q0 16.593-5.299 31.343-5.298 14.75-14.932 27.656 35.385-20.692 57.577-56.538t22.192-80.077q0-43.538-22.115-81.076t-59.115-59l-11.461 13.538q-5.385 5.385-12.114 8.885-6.728 3.5-14.579 3.5-15.692 0-26.808-10.898-11.115-10.899-11.115-26.641v-66.537q-2.308 1.538-27.808 17.153-25.5 15.616-54.846 43.808-29.345 28.192-53.691 68.013-24.346 39.822-24.346 89.255ZM480-519.692l-37 36q-8 8-11.385 16.885-3.384 8.885-3.384 19.009 0 21.26 15.226 35.76 15.226 14.5 36.543 14.5t36.543-14.5q15.226-14.5 15.226-35.752 0-11.132-3.384-19.517Q525-475.692 517-483.692l-37-36ZM242.308-90.001q-29.827 0-51.067-21.24t-21.24-51.067V-720q0-62.154 43.923-106.076Q257.846-869.999 320-869.999h320q62.154 0 106.076 43.923Q789.999-782.154 789.999-720v557.692q0 29.827-21.24 51.067t-51.067 21.24H242.308ZM360-269.999q36.077 0 52.577-20t67.615-20q51.115 0 68.923 20t50.693 20q32.885 0 51.846-20 18.962-20 78.347-20V-720q0-37.125-26.438-63.563-26.438-26.438-63.563-26.438H320q-37.125 0-63.563 26.438-26.438 26.438-26.438 63.563v410.001q59.001 0 76.751 20 17.75 20 53.25 20Z"/></svg>