<svg xmlns="http://www.w3.org/2000/svg" height="24" viewBox="0 -960 960 960" width="24"><path d="M810.617-115.078 523.769-401.925l-19.462 97.616H364.309l40.769-208.615-95.079 38.385V-372q0 12.769-8.615 21.384T280-342.001q-12.769 0-21.384-8.615T250.001-372v-118.154q0-10.846 6.115-19.576 6.115-8.731 15.962-13.346l91.616-38.309L72.309-852.77q-8.923-8.923-8.807-21.192.115-12.269 9.422-21.576 9.308-9.308 21.384-9.308 12.077 0 21.385 9.308L853.385-157.23q8.923 8.923 9.115 20.884.193 11.961-9.115 21.268-9.307 9.308-21.384 9.308t-21.384-9.308Zm-638.308-36.923q-30.308 0-51.308-21t-21-51.308v-77.692q0-12.769 8.616-21.384Q117.232-332 130.001-332t21.384 8.615Q160-314.77 160-302.001v77.692q0 4.616 3.846 8.463 3.847 3.846 8.463 3.846h77.692q12.769 0 21.384 8.615T280-182.001q0 12.769-8.615 21.384-8.615 8.616-21.384 8.616h-77.692ZM800-761.999v-77.692q0-4.616-3.846-8.463-3.847-3.846-8.463-3.846h-77.692q-12.769 0-21.384-8.615T680-881.999q0-12.769 8.615-21.384 8.615-8.616 21.384-8.616h77.692q30.308 0 51.308 21t21 51.308v77.692q0 12.769-8.616 21.384Q842.768-732 829.999-732t-21.384-8.615Q800-749.23 800-761.999ZM100.001-732v-95.384q0-15.462 5.539-28.615 5.538-13.154 14.384-23l43.153 43.768q-1.154 1.923-2.115 4.039-.962 2.115-.962 4.423V-732h-59.999Zm609.998 579.999q-12.769 0-21.384-8.616Q680-169.232 680-182.001t8.615-21.384Q697.23-212 709.999-212h70.923q2.308 0 4.424-.962 2.115-.961 3.269-2.884l43.153 42.537q-8.846 9.846-21.807 15.577-12.962 5.731-28.423 5.731h-71.539ZM271.846-852l-59.998-59.999H280q12.769 0 21.384 8.616 8.615 8.615 8.615 21.384t-8.615 21.384Q292.769-852 280-852h-8.154Zm588.153 588.152L800-323.846V-332q0-12.769 8.615-21.384t21.384-8.615q12.769 0 21.384 8.615 8.616 8.615 8.616 21.384v68.152ZM540-638.154q-30.692 0-52.269-21.577-21.577-21.577-21.577-52.269 0-30.692 21.577-52.269 21.577-21.577 52.269-21.577 30.692 0 52.269 21.577 21.577 21.577 21.577 52.269 0 30.692-21.577 52.269-21.577 21.577-52.269 21.577Z"/></svg>