<svg xmlns="http://www.w3.org/2000/svg" height="20" viewBox="0 -960 960 960" width="20"><path d="M505.999-506.154v-187.847q0-11.049-7.418-18.524Q491.163-720 480.197-720q-10.966 0-18.581 7.475t-7.615 18.524v197.078q0 7.063 2.615 12.685 2.615 5.622 7.231 10.238l138.846 138.846q8.462 8.461 18.538 8.154 10.077-.308 18.769-9 8.692-8.692 8.692-18.576 0-9.885-9.028-18.829L505.999-506.154Zm-25.932 390.153q-75.211 0-141.392-28.42t-115.994-78.21q-49.814-49.791-78.247-116.087t-28.433-141.673q0-75.378 28.42-141.746 28.42-66.369 78.21-115.682 49.791-49.314 116.087-77.747t141.673-28.433q75.378 0 141.753 28.66 66.374 28.66 115.473 77.79 49.099 49.131 77.74 115.549 28.642 66.417 28.642 141.933 0 75.211-28.42 141.392t-77.71 115.994q-49.291 49.814-115.76 78.247-66.468 28.433-142.042 28.433Z"/></svg>