<svg xmlns="http://www.w3.org/2000/svg" height="20" viewBox="0 -960 960 960" width="20"><path d="M216-263.003V-216v-528V-263.003Zm12.309 99.002q-26.623 0-45.465-18.843-18.843-18.842-18.843-45.465v-503.382q0-26.623 18.843-45.465 18.842-18.843 45.465-18.843h503.382q26.623 0 45.465 18.843 18.843 18.842 18.843 45.465v106.846H744v-106.846q0-5.385-3.462-8.847-3.462-3.462-8.847-3.462H228.309q-5.385 0-8.847 3.462-3.462 3.462-3.462 8.847v503.382q0 5.385 3.462 8.847 3.462 3.462 8.847 3.462h503.382q5.385 0 8.847-3.462 3.462-3.462 3.462-8.847v-107.846h51.999v107.846q0 26.623-18.843 45.465-18.842 18.843-45.465 18.843H228.309Zm288-144q-26.623 0-45.465-18.843-18.843-18.842-18.843-45.465v-215.382q0-26.623 18.843-45.465 18.842-18.843 45.465-18.843h263.382q26.623 0 45.465 18.843 18.843 18.842 18.843 45.465v215.382q0 26.623-18.843 45.465-18.842 18.843-45.465 18.843H516.309ZM779.691-360q5.385 0 8.847-3.462 3.462-3.462 3.462-8.847v-215.382q0-5.385-3.462-8.847-3.462-3.462-8.847-3.462H516.309q-5.385 0-8.847 3.462-3.462 3.462-3.462 8.847v215.382q0 5.385 3.462 8.847 3.462 3.462 8.847 3.462h263.382ZM648-420q25 0 42.5-17.5T708-480q0-25-17.5-42.5T648-540q-25 0-42.5 17.5T588-480q0 25 17.5 42.5T648-420Z"/></svg>