<svg xmlns="http://www.w3.org/2000/svg" height="20" viewBox="0 -960 960 960" width="20"><path d="M608.268-212.001q-111.642 0-189.878-78.236-78.235-78.235-78.235-189.877 0-110.808 78.235-189.347 78.236-78.538 189.878-78.538 110.808 0 189.346 78.538 78.538 78.539 78.538 189.347 0 111.642-78.538 189.877-78.538 78.236-189.346 78.236ZM607.654-264q90.5 0 153.5-62.5t63-153q0-90.5-63-153.5t-153-63q-91 0-153.5 63t-62.5 153q0 91 62.5 153.5t153 62.5Zm26.559-225.863v-101.898q0-11.086-7.496-18.585-7.496-7.5-18.577-7.5-11.055 0-18.52 7.4-7.466 7.4-7.466 18.339v109.267q0 6.211 1.923 12.333t7.024 11.242l84.871 84.353q7.874 8.142 18.31 8.142t18.41-8.307q8.307-7.974 8.307-18.218 0-10.243-8.125-18.376l-78.661-78.192ZM170.11-610.001q-11.013 0-18.637-7.418-7.625-7.418-7.625-18.384 0-10.966 7.45-18.581 7.449-7.615 18.462-7.615h84.133q11.012 0 18.637 7.418t7.625 18.384q0 10.966-7.45 18.581-7.449 7.615-18.462 7.615H170.11Zm-48.263 156q-11.05 0-18.524-7.418-7.475-7.418-7.475-18.384 0-10.966 7.475-18.581 7.474-7.615 18.524-7.615h132.309q11.049 0 18.524 7.418 7.475 7.418 7.475 18.384 0 10.966-7.475 18.581t-18.524 7.615H121.847Zm48.263 156q-11.013 0-18.637-7.418-7.625-7.418-7.625-18.384 0-10.966 7.45-18.581 7.449-7.615 18.462-7.615h84.133q11.012 0 18.637 7.418t7.625 18.384q0 10.966-7.45 18.581-7.449 7.615-18.462 7.615H170.11ZM608.154-480Z"/></svg>