<svg xmlns="http://www.w3.org/2000/svg" height="20" viewBox="0 -960 960 960" width="20"><path d="M650.308-266.308v42.615q0 8.677 6.508 15.185 6.507 6.507 15.184 6.507t15.184-6.507q6.508-6.508 6.508-15.185v-42.615h42.615q8.677 0 15.185-6.507 6.507-6.508 6.507-15.185t-6.507-15.185q-6.508-6.507-15.185-6.507h-42.615v-42.615q0-8.677-6.508-15.185-6.507-6.507-15.184-6.507t-15.184 6.507q-6.508 6.508-6.508 15.185v42.615h-42.615q-8.677 0-15.185 6.507-6.507 6.508-6.507 15.185t6.507 15.185q6.508 6.507 15.185 6.507h42.615Zm21.466 150.307q-71.696 0-121.735-50.265-50.038-50.264-50.038-121.96t50.265-121.735q50.264-50.038 121.96-50.038t121.735 50.265q50.038 50.264 50.038 121.96t-50.265 121.735q-50.264 50.038-121.96 50.038Zm-191.803-.77q-133.74-34.384-212.855-145.768-79.115-111.385-79.115-252.355v-171.259q0-20.483 11.106-36.87 11.106-16.387 29.894-23.591l227.692-87q11.846-4.615 23.307-4.615 11.461 0 23.307 4.615l227.692 87q18.788 7.204 29.894 23.591 11.106 16.387 11.106 36.87v176.616q-24.385-9.923-48.565-16.192-24.181-6.27-51.434-6.27-101.922 0-172.961 71.038Q428.001-389.922 428.001-288q0 43.615 16.692 87.23t50.461 79.691q-1.538.77-7.077 2.154-5.538 1.385-8.106 2.154Z"/></svg>