<svg xmlns="http://www.w3.org/2000/svg" height="20" viewBox="0 -960 960 960" width="20"><path d="M276.309-68.001q-26.623 0-45.465-18.843-18.843-18.842-18.843-45.465v-695.382q0-26.623 18.843-45.465 18.842-18.843 45.465-18.843h407.382q26.623 0 45.465 18.843 18.843 18.842 18.843 45.465v154.152H696v-56.462H264v500.002h432v-56.462h51.999v154.152q0 26.623-18.843 45.465Q710.314-68 683.691-68H276.309Zm0-51.999h407.382q4.616 0 8.463-3.846 3.846-3.847 3.846-8.463v-45.692H264v45.692q0 4.616 3.846 8.463 3.847 3.846 8.463 3.846Zm446.19-222.154q-58.192 0-98.269-40.077-40.076-40.077-40.076-97.769 0-57.692 40.076-97.769 40.077-40.077 98.269-40.077 58.192 0 97.769 40.077 39.577 40.077 39.577 97.769 0 57.692-39.577 97.769-39.577 40.077-97.769 40.077Zm-.5-35.692q17.077 0 30.885-4.404T780-395.461l-142.668-142.54q-8.179 13.308-12.833 27.116T619.845-480q0 42.628 29.763 72.391 29.763 29.763 72.391 29.763Zm84.667-44.153q8.949-13.693 13.218-27.308 4.27-13.616 4.27-30.693 0-42.628-29.764-72.391-29.763-29.763-72.391-29.763-17.077 0-30.885 4.404t-27.115 13.211l142.667 142.54ZM264-781.999h432v-45.692q0-4.616-3.846-8.463-3.847-3.846-8.463-3.846H276.309q-4.616 0-8.463 3.846-3.846 3.847-3.846 8.463v45.692Zm0 0V-840v58.001ZM264-120v-58.001V-120Z"/></svg>