<svg xmlns="http://www.w3.org/2000/svg" height="20" viewBox="0 -960 960 960" width="20"><path d="M263.788-207.386q-23.441 0-39.922-16.693-16.48-16.692-16.48-40.133 0-23.441 16.693-39.922 16.692-16.48 40.133-16.48 23.441 0 39.922 16.693 16.48 16.692 16.48 40.133 0 23.441-16.693 39.922-16.692 16.48-40.133 16.48Zm0-216q-23.441 0-39.922-16.693-16.48-16.692-16.48-40.133 0-23.441 16.693-39.922 16.692-16.48 40.133-16.48 23.441 0 39.922 16.693 16.48 16.692 16.48 40.133 0 23.441-16.693 39.922-16.692 16.48-40.133 16.48Zm0-216q-23.441 0-39.922-16.693-16.48-16.692-16.48-40.133 0-23.441 16.693-39.922 16.692-16.48 40.133-16.48 23.441 0 39.922 16.693 16.48 16.692 16.48 40.133 0 23.441-16.693 39.922-16.692 16.48-40.133 16.48Zm216 0q-23.441 0-39.922-16.693-16.48-16.692-16.48-40.133 0-23.441 16.693-39.922 16.692-16.48 40.133-16.48 23.441 0 39.922 16.693 16.48 16.692 16.48 40.133 0 23.441-16.693 39.922-16.692 16.48-40.133 16.48Zm216 0q-23.441 0-39.922-16.693-16.48-16.692-16.48-40.133 0-23.441 16.693-39.922 16.692-16.48 40.133-16.48 23.441 0 39.922 16.693 16.48 16.692 16.48 40.133 0 23.441-16.693 39.922-16.692 16.48-40.133 16.48Zm-216 216q-23.441 0-39.922-16.693-16.48-16.692-16.48-40.133 0-23.441 16.693-39.922 16.692-16.48 40.133-16.48 23.441 0 39.922 16.693 16.48 16.692 16.48 40.133 0 23.441-16.693 39.922-16.692 16.48-40.133 16.48Zm52.828 183.847v-50.893q0-6.631 2.615-12.253t7.231-10.238L738.769-508.23q5.72-5.489 12.24-8.014 6.521-2.525 12.929-2.525 6.991 0 13.567 2.539 6.575 2.538 11.955 7.615l44 45.385q5.05 5.719 7.794 12.282 2.745 6.563 2.745 13.015 0 6.451-2.333 13.108-2.333 6.658-8.206 12.286L638.153-217.232q-4.616 4.616-10.238 7.231t-12.253 2.615h-50.893q-13.665 0-22.909-9.244t-9.244-22.909Zm230.691-152.538 45-45.616-45-45.384-45 46 45 45Z"/></svg>