<svg xmlns="http://www.w3.org/2000/svg" height="20" viewBox="0 -960 960 960" width="20"><path d="M648.463-454.001H238.05q-11.09 0-18.569-7.404-7.48-7.405-7.48-18.384 0-10.98 7.48-18.595 7.479-7.615 18.569-7.615h410.413l-97.694-97.694q-7.923-7.923-8.307-18.384-.385-10.461 7.829-18.769 8.786-8.307 18.862-8.115 10.077.192 18.384 8.5l138.487 138.487q4.282 4.282 6.59 9.813 2.308 5.53 2.308 11.961t-2.308 11.961q-2.308 5.531-6.923 10.546L587.537-319.539q-7.922 7.923-17.691 7.808-9.769-.116-18.555-8.423-8.214-8.308-8.022-18.577.193-10.269 8.5-18.576l96.694-96.694Z"/></svg>