<svg xmlns="http://www.w3.org/2000/svg" height="20" viewBox="0 -960 960 960" width="20"><path d="M444-164.001H228.309q-26.308 0-45.308-19t-19-45.308v-503.382q0-27.008 19-45.658 19-18.65 45.308-18.65H444v631.998ZM392.001-216v-528H228.309q-5.385 0-8.847 3.462-3.462 3.462-3.462 8.847v503.382q0 5.385 3.462 8.847 3.462 3.462 8.847 3.462h163.692ZM516-516v-279.999h215.691q27.008 0 45.658 18.65 18.65 18.65 18.65 45.658V-516H516Zm51.999-51.999H744v-163.692q0-5.385-3.462-8.847-3.462-3.462-8.847-3.462H567.999v176.001ZM516-164.001V-444h279.999v215.691q0 26.308-18.65 45.308t-45.658 19H516ZM569.999-216h161.692q5.385 0 8.847-3.462 3.462-3.462 3.462-8.847v-162.692H569.999V-216ZM391.001-480Zm176.998-87.999Zm2 176.998Z"/></svg>