<svg xmlns="http://www.w3.org/2000/svg" height="20" viewBox="0 -960 960 960" width="20"><path d="m480.135-398.462 66.75 41.307q9.576 5.231 18.307-1.192 8.73-6.423 6.115-17.269l-17.846-76.179 60.167-51.235q8.448-7.816 5.186-18.008-3.262-10.192-13.815-11.116l-78.234-6.574-30.879-71.865q-4.306-10.252-15.504-10.252-11.197 0-15.572 10.252l-31.05 72.125-78.671 6.597q-10.641.915-13.903 11.006-3.262 10.092 5.185 17.835l60.168 51.235-17.846 76.179q-2.615 10.846 5.949 17.269 8.564 6.423 18.743 1.192l66.75-41.307ZM368.32-212.001h-91.753q-26.633 0-45.6-18.966-18.966-18.967-18.966-45.6v-91.753l-66.307-66.065q-10.231-9.846-14.461-21.61-4.231-11.764-4.231-23.933 0-12.17 4.231-24.005 4.23-11.836 14.461-21.682l66.307-66.065v-91.753q0-26.634 18.966-45.6 18.967-18.966 45.6-18.966h91.753l66.065-66.307q9.846-10.231 21.61-14.461 11.764-4.231 23.933-4.231 12.17 0 24.005 4.231 11.836 4.23 21.682 14.461l66.065 66.307h91.753q26.634 0 45.6 18.966t18.966 45.6v91.753l66.307 66.065q10.231 9.846 14.461 21.61 4.231 11.764 4.231 23.933 0 12.17-4.231 24.005-4.23 11.836-14.461 21.682l-66.307 66.065v91.753q0 26.633-18.966 45.6-18.966 18.966-45.6 18.966H591.68l-66.065 66.307q-9.846 10.231-21.61 14.461-11.764 4.231-23.933 4.231-12.17 0-24.005-4.231-11.836-4.23-21.682-14.461l-66.065-66.307Z"/></svg>