<svg xmlns="http://www.w3.org/2000/svg" height="20" viewBox="0 -960 960 960" width="20"><path d="M164.001-587.924v-67.691l155.77-155.769h67.691l-223.461 223.46Zm0-173.46v-38.461l11.54-11.539h38.46l-50 50Zm445.92 72.153q-7.461-8.308-17.038-16.307-9.577-8-20.269-14.077l90.77-91.769h67.691L609.921-689.231ZM195.537-343.538l125.848-125.848q6.846 10.846 16.615 22.692 9.769 11.846 15.846 18.693l-47.848 38.848q-25.384 6.231-55.115 18.538-29.731 12.308-55.346 27.077Zm465.154-227.156q0-1-3-3.616-3-2.615-3-4.615-.769-11.615.538-26.269 1.308-14.653-2.923-24.037l143.693-141.693v66.922L660.691-570.694Zm-246.615-160.69 77.617-80h67.691l-65.155 69.154q-4.769-1.231-9.422-1.346-4.654-.115-8.423-.115-17 .384-33.154 3.654-16.154 3.269-29.154 8.653ZM164.001-415.618v-67.691l143.615-139.615q-5.769 14.77-6.346 32.847T300.693-557q0 3.769-.884 1.422-.885-2.346.346 2.807L164.001-415.618Zm595.226 85.539q-7.615-8.539-15.576-16.269-7.962-7.731-20.423-14.807l72.771-65.771v67.691l-36.772 29.156Zm-90.921-78.77q-1.385-3.923-5.346-8.846-3.961-4.923-7.115-9.231-2.999-5.308-7.961-10.116-4.961-4.808-9.73-9.116l157.845-153.459v67.691L668.306-408.849ZM480-428.001q-54.922 0-89.461-35.538-34.538-35.539-34.538-88.461 0-53.922 35.038-94.461 35.039-40.538 89.961-40.538 53.922 0 88.461 40.538 34.538 40.539 34.538 94.461 0 52.922-35.038 88.461-35.039 35.538-88.961 35.538ZM212.001-196.155v-28.538q0-25.923 14.539-48.5 14.538-22.576 37.076-35.038 52.847-26.846 107.385-37Q425.539-355.384 480-355.384q53.461 0 107.999 10.153 54.538 10.154 107.385 37 22.153 12.077 37.384 35.038 15.231 22.962 15.231 48.5v28.538q0 13.461-9.347 22.807-9.346 9.347-22.807 9.347h-471.69q-13.461 0-22.807-9.347-9.347-9.346-9.347-22.807Z"/></svg>