<svg xmlns="http://www.w3.org/2000/svg" height="20" viewBox="0 -960 960 960" width="20"><path d="M638.308-564q11.05 0 18.524-7.418 7.475-7.418 7.475-18.384 0-10.966-7.475-18.581-7.474-7.616-18.524-7.616H505.999q-11.049 0-18.524 7.419Q480-601.162 480-590.196q0 10.966 7.475 18.581T505.999-564h132.309Zm0 219.999q11.05 0 18.524-7.419 7.475-7.418 7.475-18.384 0-10.966-7.475-18.581Q649.358-396 638.308-396H505.999q-11.049 0-18.524 7.418Q480-381.164 480-370.198q0 10.966 7.475 18.581 7.475 7.616 18.524 7.616h132.309ZM360.212-533.385q23.441 0 39.922-16.693 16.48-16.693 16.48-40.134t-16.693-39.921q-16.692-16.481-40.133-16.481-23.441 0-39.922 16.693-16.48 16.693-16.48 40.134t16.693 39.922q16.692 16.48 40.133 16.48Zm0 219.999q23.441 0 39.922-16.693 16.48-16.693 16.48-40.134t-16.693-39.922q-16.692-16.48-40.133-16.48-23.441 0-39.922 16.693-16.48 16.693-16.48 40.134t16.693 39.921q16.692 16.481 40.133 16.481ZM228.309-164.001q-27.008 0-45.658-18.65-18.65-18.65-18.65-45.658v-503.382q0-27.008 18.65-45.658 18.65-18.65 45.658-18.65h503.382q27.008 0 45.658 18.65 18.65 18.65 18.65 45.658v503.382q0 27.008-18.65 45.658-18.65 18.65-45.658 18.65H228.309Z"/></svg>