<svg xmlns="http://www.w3.org/2000/svg" height="20" viewBox="0 -960 960 960" width="20"><path d="M255.944-174.771q-45.943 0-72.981-35.808-27.038-35.807-15.731-80.191l71.923-266.539q-31.615-12.999-53.384-44.037-21.77-31.039-21.77-70.654 0-51.749 36.125-87.874 36.125-36.125 87.874-36.125h291.999q36.174 0 54.663 30.346 18.49 30.346 2.413 62.5L577.384-583.77q-7.928 16.076-23.624 25.922-15.696 9.847-33.453 9.847h-93.77l-14.923 56.077h7.384q13.377.385 22.573 9.493t9.196 22.573v59.516q0 13.628-9.244 23.022-9.244 9.395-22.909 9.395h-41.428L344.768-242.77q-8.423 30.135-32.926 49.067t-55.898 18.932Zm569.054-627.845L736.614-762q-6.813 4.23-13.891 1.009-7.079-3.221-10.686-10.317-3.731-7.077-.878-14.023 2.852-6.946 10.07-11.053L809.614-837q7.077-4.23 13.848-1.009 6.772 3.221 10.344 10.317 3.73 7.077 1.009 14.023t-9.817 11.053Zm-103.769 267q-7.186-4.138-9.862-11.068-2.676-6.931.555-13.908 4.23-7.792 11.448-10.715T737.614-570l87 41q7.076 4.231 10.307 11.076 3.231 6.845-1 13.677-3.842 6.832-10.798 9.962-6.956 3.131-13.894-.715l-88-40.616Zm119.692-117.769h-96q-8.066 0-13.34-5.279-5.275-5.28-5.275-13.354 0-8.074 5.275-13.336 5.274-5.261 13.34-5.261h96q8.067 0 13.341 5.279 5.274 5.28 5.274 13.354 0 8.074-5.274 13.336-5.274 5.261-13.341 5.261Z"/></svg>