<svg xmlns="http://www.w3.org/2000/svg" height="20" viewBox="0 -960 960 960" width="20"><path d="M349.911-116.001q-18.925 0-31.571-12.695-12.646-12.694-12.646-31.459V-738.23q0-18.766 12.694-31.46 12.694-12.694 31.459-12.694h64.307v-17.461q0-18.765 12.694-31.459 12.695-12.695 31.46-12.695h43.384q18.765 0 31.46 12.695 12.694 12.694 12.694 31.459v17.461h64.386q18.782 0 31.428 12.694t12.646 31.46v578.075q0 18.765-12.694 31.459-12.694 12.695-31.459 12.695H349.911ZM357.692-168h244.616v-562.77H357.692V-168Zm0 0h244.616-244.616Zm122.111-232.616q10.966 0 18.581-7.475 7.615-7.474 7.615-18.524v-168q0-11.05-7.418-18.524-7.418-7.475-18.384-7.475-10.966 0-18.581 7.475-7.615 7.474-7.615 18.524v168q0 11.05 7.418 18.524 7.418 7.475 18.384 7.475Zm-.027 122.46q12.916 0 21.878-8.737 8.961-8.738 8.961-21.654t-8.737-21.877q-8.738-8.962-21.654-8.962t-21.878 8.738q-8.961 8.737-8.961 21.653 0 12.916 8.737 21.878 8.738 8.961 21.654 8.961Z"/></svg>