<svg xmlns="http://www.w3.org/2000/svg" height="20" viewBox="0 -960 960 960" width="20"><path d="M312-348.309h336v19.693q0 12.308 8.769 21.077 8.769 8.769 21.077 8.769 12.307 0 21.076-8.769t8.769-21.077v-129.692q0-20.307-13.5-38.038-13.5-17.731-34.5-23.808v-62.922q0-27.007-18.649-45.657-18.65-18.65-45.658-18.65H482.308q-2.308 0-2.885 1.346-.577 1.347.577 3.27 1.154-1.923.577-3.27-.577-1.346-2.885-1.346H364.984q-27.676 0-46.176 18.65-18.499 18.65-18.499 45.657v62.922q-21 6.077-34.5 23.808t-13.5 38.038v129.692q0 12.308 8.769 21.077 8.769 8.769 21.076 8.769 12.308 0 21.077-8.769Q312-316.308 312-328.616v-19.693ZM312-408v-48h336v48H312Zm48-107.691v-59.692q0-5.385 3.462-8.847 3.462-3.461 8.847-3.461h65.537q5.385 0 8.847 3.461 3.461 3.462 3.461 8.847v59.692H360Zm149.846 0v-59.692q0-5.385 3.461-8.847 3.462-3.461 8.847-3.461h65.537q5.385 0 8.847 3.461 3.462 3.462 3.462 8.847v59.692h-90.154Zm-329.537 399.69q-27.008 0-45.658-18.65-18.65-18.65-18.65-45.658v-599.382q0-27.008 18.65-45.658 18.65-18.65 45.658-18.65h599.382q27.008 0 45.658 18.65 18.65 18.65 18.65 45.658v599.382q0 27.008-18.65 45.658-18.65 18.65-45.658 18.65H180.309Zm0-51.999h599.382q4.616 0 8.463-3.846 3.846-3.847 3.846-8.463v-599.382q0-4.616-3.846-8.463-3.847-3.846-8.463-3.846H180.309q-4.616 0-8.463 3.846-3.846 3.847-3.846 8.463v599.382q0 4.616 3.846 8.463 3.847 3.846 8.463 3.846ZM168-168V-792-168Z"/></svg>