<svg xmlns="http://www.w3.org/2000/svg" height="20" viewBox="0 -960 960 960" width="20"><path d="m437-249 183-231H471l26-221-173 269h146l-33 183Zm-29.921-131.001H283.386q-17.153 0-25.038-14.846-7.884-14.846.808-29.384L493.23-795.305q6.077-11.307 17.615-14.461 11.539-3.154 23.077.693 11.538 3.846 18.307 14.076 6.769 10.231 5.154 22.769l-28.077 240.229h136.23q18.385 0 26.154 16.154 7.769 16.154-3.154 30.692L431.77-157.08q-7.692 9.308-18.731 12.346-11.038 3.039-21.961-2.423-10.923-5.461-16.499-15.692-5.577-10.23-2.962-21.769l35.462-195.383ZM472-475Z"/></svg>