<svg xmlns="http://www.w3.org/2000/svg" height="20" viewBox="0 -960 960 960" width="20"><path d="M264-164.001q-21.538 0-36.768-15.231-15.231-15.23-15.231-36.768v-332.539q-42.076-12.846-69.038-46.5-26.962-33.654-26.962-76.961 0-51.922 36.038-87.961 36.039-36.038 87.961-36.038h480q51.922 0 87.961 36.038 36.038 36.039 36.038 87.961 0 43.307-26.962 76.961-26.962 33.654-69.038 46.5V-216q0 21.538-15.231 36.768-15.23 15.231-36.768 15.231H264Zm188.154-143.384q11.308 11.692 27.654 11.692t28.038-11.692l97.538-96.769q11.308-11.308 11.308-27.654t-11.308-28.038l-97.538-97.538q-11.692-11.308-28.038-11.308t-27.654 11.308l-96.769 97.538q-11.692 11.692-11.692 28.038t11.692 27.654l96.769 96.769ZM480-353.845 401.845-432 480-510.924 558.924-432 480-353.845Z"/></svg>