<svg xmlns="http://www.w3.org/2000/svg" height="20" viewBox="0 -960 960 960" width="20"><path d="M116.001-168H613.23v20.404q0 12.902-9.196 22.248-9.196 9.347-22.188 9.347h-434.46q-12.992 0-22.188-9.197-9.197-9.196-9.197-22.188V-168Zm0-79.693v-20.404q0-12.902 9.197-22.248 9.196-9.346 22.188-9.346h145.23v-22.712q0-13.672 9.171-23.018 9.17-9.346 22.895-9.346h79.517q13.725 0 23.071 9.196 9.346 9.196 9.346 22.957v22.923h145.23q12.992 0 22.188 9.196 9.196 9.196 9.196 22.188v20.614H116.001Zm599.692-117.616q-36.154-15.307-57-53.192-20.846-37.884-20.846-78.115v-315.229q0-13.761 9.196-22.957 9.196-9.197 22.958-9.197h141.844q13.761 0 22.957 9.197 9.197 9.196 9.197 22.957v315.229q0 40.231-20.27 77.923-20.269 37.692-56.038 53.384V-168h50.308q11.069 0 18.534 7.405 7.466 7.404 7.466 18.384 0 10.979-7.466 18.594-7.465 7.616-18.534 7.616h-70.153q-13.761 0-22.957-9.197-9.196-9.196-9.196-22.957v-217.154Zm-25.847-250.998H792V-792H689.846v175.693Z"/></svg>