<svg xmlns="http://www.w3.org/2000/svg" height="20" viewBox="0 -960 960 960" width="20"><path d="M264.091-295.693q16.832 0 28.524-11.783 11.692-11.782 11.692-28.615 0-16.832-11.783-28.524-11.782-11.692-28.615-11.692-16.832 0-28.524 11.783-11.692 11.782-11.692 28.615 0 16.832 11.783 28.524 11.782 11.692 28.615 11.692Zm240 0q16.832 0 28.524-11.783 11.692-11.782 11.692-28.615 0-16.832-11.783-28.524-11.782-11.692-28.615-11.692-16.832 0-28.524 11.783-11.692 11.782-11.692 28.615 0 16.832 11.783 28.524 11.782 11.692 28.615 11.692ZM235.384-188.001v41.693q0 12.628-8.852 21.467-8.853 8.84-21.499 8.84-12.647 0-21.454-8.84-8.808-8.839-8.808-21.467v-65.616q-23.769-13.23-41.269-41.769-17.501-28.538-17.501-66V-672q0-40.461 23.039-66 23.039-25.538 67.462-39.576t110.307-17.73q65.884-3.693 151.96-.382-6.056 8.132-13.22 24.218-7.164 16.086-10.779 27.47-146.54-3.769-203.694 10.193-57.154 13.961-75 48.577h270.54q-1 24 1.134 34.999 2.135 11 2.404 17H168v149.232h373.849q23.614 19.307 52.113 31.961 28.499 12.653 58.037 14.653v117.692q0 36.18-17.501 65.359-17.5 29.18-41.269 42.41v65.616q0 12.628-8.853 21.467-8.853 8.84-21.499 8.84-12.647 0-21.454-8.84-8.807-8.839-8.807-21.467v-41.693H235.384ZM527-432H168h432-73Zm149.095-84.309q-66.71 0-113.248-46.75-46.538-46.75-46.538-113.46 0-66.711 46.75-113.249t113.46-46.538q66.711 0 113.249 46.75t46.538 113.461q0 66.71-46.75 113.248-46.75 46.538-113.461 46.538ZM678.307-684q8.677 0 15.185-6.508 6.507-6.507 6.507-15.184v-32.614q0-8.677-6.507-15.185-6.508-6.508-15.185-6.508t-15.184 6.508q-6.508 6.508-6.508 15.185v32.614q0 8.677 6.508 15.184Q669.63-684 678.307-684Zm0 92.923q9.6 0 16.415-6.816 6.816-6.815 6.816-16.415 0-9.6-6.816-16.415-6.815-6.816-16.415-6.816-9.6 0-16.415 6.816-6.816 6.815-6.816 16.415 0 9.6 6.816 16.415 6.815 6.816 16.415 6.816ZM240.055-240h288.222Q558-240 579-261.15T600-312v-120H168v120q0 30 21.166 51 21.167 21 50.889 21Zm196.561-445.23h-270.54 270.54Z"/></svg>