<svg xmlns="http://www.w3.org/2000/svg" height="20" viewBox="0 -960 960 960" width="20"><path d="M240-154.001q-16.169 0-27.084-10.915T202.001-192v-26.308h-15.847q-15.769 4.231-23.961-7.038-8.192-11.269-8.192-25.115v-125.846q0-16.169 10.915-27.084T192-414.306h46.001V-672q2-56.154 40.423-95.076 38.422-38.923 93.859-38.923t94.577 38.923q39.139 38.922 39.139 95.076v384q0 34.316 23.697 58.158 23.697 23.843 57.808 23.843 34.112 0 57.804-23.693 23.693-23.692 24.693-58.308v-257.694H624q-15.744 0-26.372-11.115-10.627-11.115-11.627-26.884v-125.846q0-13.846 8.192-25.115 8.192-11.269 23.961-7.038h15.847V-768q0-16.169 10.915-27.084T672-805.999h48q16.169 0 27.084 10.915T757.999-768v26.308h15.847q15.769-4.231 23.961 7.038 8.192 11.269 8.192 25.115v125.846q0 16.169-10.915 27.084T768-545.694h-46.001V-288q-2 56.154-40.423 95.076-38.422 38.923-93.859 38.923t-94.577-38.923Q454.001-231.846 454.001-288v-384q0-34.316-23.697-58.158-23.697-23.843-57.808-23.843-34.112 0-57.804 23.693-23.693 23.692-24.693 58.308v257.694H336q15.744 0 26.372 11.115 10.627 11.115 11.627 26.884v125.846q0 13.846-8.192 25.115-8.192 11.269-23.961 7.038h-15.847V-192q0 16.169-10.915 27.084T288-154.001h-48Z"/></svg>