<svg xmlns="http://www.w3.org/2000/svg" height="20" viewBox="0 -960 960 960" width="20"><path d="M482.888-591.384h289.42q-25.833-68.948-80.686-120.167Q636.769-762.769 565-780l-95.846 163.924q-4.616 8.23-.517 16.461 4.098 8.231 14.251 8.231Zm-128.426 52.308q5.588 8.23 15.832 8.23 10.245 0 14.86-8.23l144.231-248.932q-11-2.024-24.692-3.008Q491-792 480-792q-64.533 0-120.267 23.5Q304-745 261-704l93.462 164.924ZM177.975-402h189.388q10.064 0 14.543-8.231 4.479-8.23-1.016-17.344L238.077-676.846q-33.538 40.153-51.808 90.513Q168-535.973 168-479.727q0 20.727 2.5 39.227 2.5 18.5 7.475 38.5Zm218.794 222L491-344.924q4.616-8.23.637-16.461-3.98-8.231-13.986-8.231H188.692q25.833 68.948 81.07 120.167Q325-198.231 396.769-180ZM480-168q66 0 121.557-24.185T700-257l-94.462-163.924q-4.588-9.23-14.626-9.23t-15.541 9.075L431.384-172.738q11 2.353 23.808 3.546Q468-168 480-168Zm242.923-116.154q30-39 49.538-90.423Q792-426 792-480q0-20.737-2.474-39.994-2.474-19.256-7.422-39.006H593.692q-10.119 0-14.598 8.731-4.479 8.73.136 16.961l143.693 249.154ZM480-480Zm-.122 363.999q-74.752 0-141.123-28.64t-115.923-78.191q-49.551-49.552-78.191-115.923-28.64-66.371-28.64-141.123 0-75.664 28.702-141.756 28.701-66.091 78.136-115.527 49.436-49.435 115.904-78.136 66.469-28.702 141.132-28.702 75.574 0 141.712 28.702 66.138 28.701 115.574 78.136 49.435 49.436 78.136 115.527 28.702 66.092 28.702 141.756 0 74.752-28.702 141.177-28.701 66.426-78.136 115.862-49.436 49.435-115.527 78.136-66.092 28.702-141.756 28.702Z"/></svg>