<svg xmlns="http://www.w3.org/2000/svg" height="20" viewBox="0 -960 960 960" width="20"><path d="M180.309-92.001q-26.527 0-45.417-18.891-18.891-18.89-18.891-45.417v-551.382q0-26.527 18.891-45.417 18.89-18.891 45.417-18.891h55.692v-27.077q0-19.092 12.916-32.007 12.915-12.916 32.007-12.916h110.152q19.092 0 32.007 12.916 12.916 12.915 12.916 32.007v27.077h55.692q26.527 0 45.417 18.891 18.891 18.89 18.891 45.417v31.692h223.692q26.527 0 45.417 18.891 18.891 18.89 18.891 45.417v359.382q0 26.527-18.891 45.417-18.89 18.891-45.417 18.891H555.229v31.692q0 26.527-18.664 45.417t-44.874 18.89H180.309Zm243.327-417.384q12.903 0 22.249-9.136 9.346-9.135 9.346-22.038 0-12.902-9.136-22.248-9.135-9.347-22.038-9.347t-22.249 9.136q-9.346 9.136-9.346 22.038 0 12.903 9.136 22.249 9.135 9.346 22.038 9.346Zm142.461 0q12.903 0 22.249-9.136 9.346-9.135 9.346-22.038 0-12.902-9.135-22.248-9.136-9.347-22.039-9.347-12.902 0-22.248 9.136-9.346 9.136-9.346 22.038 0 12.903 9.135 22.249 9.136 9.346 22.038 9.346Zm142.462 0q12.902 0 22.248-9.136 9.347-9.135 9.347-22.038 0-12.902-9.136-22.248-9.135-9.347-22.038-9.347t-22.249 9.136q-9.346 9.136-9.346 22.038 0 12.903 9.136 22.249 9.135 9.346 22.038 9.346ZM423.636-291.846q12.903 0 22.249-9.136 9.346-9.136 9.346-22.038 0-12.903-9.136-22.249-9.135-9.346-22.038-9.346t-22.249 9.136q-9.346 9.135-9.346 22.038 0 12.902 9.136 22.248 9.135 9.347 22.038 9.347Zm142.461 0q12.903 0 22.249-9.136 9.346-9.136 9.346-22.038 0-12.903-9.135-22.249-9.136-9.346-22.039-9.346-12.902 0-22.248 9.136-9.346 9.135-9.346 22.038 0 12.902 9.135 22.248 9.136 9.347 22.038 9.347Zm142.462 0q12.902 0 22.248-9.136 9.347-9.136 9.347-22.038 0-12.903-9.136-22.249-9.135-9.346-22.038-9.346t-22.249 9.136q-9.346 9.135-9.346 22.038 0 12.902 9.136 22.248 9.135 9.347 22.038 9.347Z"/></svg>