<svg xmlns="http://www.w3.org/2000/svg" height="20" viewBox="0 -960 960 960" width="20"><path d="M168-296.462v68.153q0 4.616 3.846 8.463 3.847 3.846 8.463 3.846h599.382q4.616 0 8.463-3.846 3.846-3.847 3.846-8.463v-68.153H168Zm140.001-403.537v-64.519q0-27.095 18.65-45.595t45.658-18.5h215.382q27.008 0 45.658 18.65 18.65 18.65 18.65 45.657v64.307h127.692q27.008 0 45.658 18.65 18.65 18.65 18.65 45.658v407.382q0 27.008-18.65 45.658-18.65 18.65-45.658 18.65H180.309q-27.008 0-45.658-18.65-18.65-18.65-18.65-45.658v-407.382q0-27.008 18.65-45.658 18.65-18.65 45.658-18.65h127.692ZM168-394.538h624v-241.153q0-4.616-3.846-8.463-3.847-3.846-8.463-3.846H651.999v38.308q0 11.069-7.405 18.534-7.405 7.465-18.384 7.465-10.98 0-18.595-7.465Q600-598.623 600-609.692V-648H360v38.097q0 10.98-7.405 18.595-7.404 7.615-18.384 7.615-10.979 0-18.594-7.465-7.616-7.465-7.616-18.534V-648H180.309q-4.616 0-8.463 3.846-3.846 3.847-3.846 8.463v241.153Zm192-305.461h240v-64.307q0-4.615-3.846-8.462-3.847-3.846-8.463-3.846H372.309q-4.616 0-8.463 3.846-3.846 3.847-3.846 8.462v64.307Zm-192 471.69V-648v78.307V-648v78.307V-648h12.309q-4.616 0-8.463 3.846-3.846 3.847-3.846 8.463v407.382q0 4.616 3.846 8.463 3.847 3.846 8.463 3.846H168v-12.309Z"/></svg>