<svg xmlns="http://www.w3.org/2000/svg" height="20" viewBox="0 -960 960 960" width="20"><path d="M106.001-169.999v-161.463q0-21.359 12.27-38.713 12.271-17.353 32.806-22.824l98.924-34.385v-109.847q0-17.593 8.139-31.743 8.14-14.15 21.706-22.564l174.155-103.769v-73.771H396q-11.05 0-18.524-7.418-7.475-7.418-7.475-18.384 0-10.966 7.475-18.581 7.474-7.615 18.524-7.615h58.001v-58.001q0-11.05 7.418-18.525 7.418-7.474 18.384-7.474 10.966 0 18.581 7.474 7.615 7.475 7.615 18.525v58.001H564q11.05 0 18.524 7.418 7.475 7.418 7.475 18.384 0 10.966-7.475 18.581-7.474 7.615-18.524 7.615h-58.001v73.771l174.155 103.769q13.566 8.414 21.706 22.564 8.139 14.15 8.139 31.743v109.847l98.924 34.385q20.535 5.471 32.806 22.824 12.27 17.354 12.27 38.713v161.463q0 26.188-18.905 45.093-18.905 18.905-45.093 18.905H602.769q-13.666 0-22.91-9.244t-9.244-22.909v-70.77q0-37.379-26.6-63.997-26.6-26.618-63.954-26.618-37.766 0-64.721 26.418-26.955 26.418-25.955 64.197v70.77q0 13.665-9.244 22.909t-22.91 9.244H169.999q-26.188 0-45.093-18.905-18.905-18.905-18.905-45.093Zm374.09-257.694q19.832 0 36.024-16.283 16.192-16.282 16.192-36.115 0-19.832-16.283-36.024-16.282-16.192-36.115-16.192-19.832 0-36.024 16.283-16.192 16.282-16.192 36.115 0 19.832 16.283 36.024 16.282 16.192 36.115 16.192Z"/></svg>