<svg xmlns="http://www.w3.org/2000/svg" height="20" viewBox="0 -960 960 960" width="20"><path d="m762.617-124.078-88.539-87.923H228.309q-32.308 0-48.308-16t-16-48.308v-406.382q0-9.231 2.231-17.386 2.231-8.154 6.308-13.462l-40.231-40.231q-7.923-7.59-8.115-18.025-.193-10.436 8.115-18.743 8.307-8.308 18.551-8.308 10.243 0 18.217 8.308L799.385-160.23q7.923 7.559 8.115 17.702.193 10.143-8.115 18.45-8.307 8.308-18.551 8.308-10.243 0-18.217-8.308ZM296.944-367.154h101.498q16.943 0 30.02-13.077 13.077-13.077 13.077-30.188v-16.904q0-6.717-5.639-12.043-5.638-5.326-14.054-5.326h-9.307q-8.415 0-14.053 5.423-5.639 5.423-5.639 12.269v5q0 2.308-1.923 4.231t-4.231 1.923h-78q-2.308 0-4.231-1.923T302.539-422v-117.462h44.078l-37.461-37.461-21.154-15.384q-14.231 3.076-24.193 14.846-9.962 11.769-9.962 27.154v140.094q0 16.905 13.077 29.982 13.077 13.077 30.02 13.077Zm499.055 103.306L691.461-368.385v-16q6.461-4 11.076-9.462 4.616-5.461 4.616-14.559V-422.308q0-7.646-5.831-13.477-5.831-5.83-13.861-5.83h-9.489q-7.574 0-13.542 4.538-5.969 4.538-5.969 12.384v20.232h1.924l-101.232-97.232V-531q0-2.308 1.923-4.231t4.231-1.923h75q2.308 0 4.231 1.923t1.923 4.231v5q0 6.846 5.639 12.077 5.638 5.23 14.054 5.23h9.307q8.415 0 14.053-5.83 5.639-5.831 5.639-13.477v-14.307q0-17.385-13.077-30.462-13.077-13.077-30.462-13.077H554.5q-14.784 0-25.565 9.484-10.781 9.483-12.704 23.67v8.077L312.848-747.999h418.843q32.308 0 48.308 16t16 48.308v419.843Z"/></svg>