<svg xmlns="http://www.w3.org/2000/svg" height="20" viewBox="0 -960 960 960" width="20"><path d="m429.385-400.999-50.693-50.693q-7.923-7.923-18.384-8.115-10.462-.192-18.769 8.115-8.308 8.308-8.308 18.384 0 10.077 8.308 18.384l65.154 64.769q9.846 9.846 22.307 9.846 12.461 0 22.307-9.846l150.154-150.153q7.923-7.923 8.115-18 .193-10.076-8.115-18.384-8.307-8.307-18.192-8.307-9.884 0-18.191 8.307L429.385-400.999ZM240-212.001q-71.922 0-121.961-50.615-50.038-50.615-50.038-122.538 0-71.384 52-123.038 52-51.653 123.923-50.114 17.231-82.693 82.692-136.193 65.461-53.5 153.384-53.5 94.538 0 164.768 63.731 70.231 63.73 79.231 156.268v20.001h12.308q64.23-3.077 109.961 40.346Q891.999-424.23 891.999-360q0 61.922-43.038 104.961Q805.922-212.001 744-212.001H240Z"/></svg>