<svg xmlns="http://www.w3.org/2000/svg" height="20" viewBox="0 -960 960 960" width="20"><path d="M457.539-390.154q-7.893 0-13.639-5.746-5.746-5.746-5.746-13.639v-140.922q0-7.893 5.746-13.639 5.746-5.746 13.639-5.746h92.922q7.893 0 13.639 5.746 5.746 5.746 5.746 13.639v140.922q0 7.893-5.746 13.639-5.746 5.746-13.639 5.746h-92.922Zm16.307-35.692h60.308v-108.308h-60.308v108.308ZM678.154-312v-74.308q0-7.892 5.746-13.638 5.746-5.746 13.639-5.746h76.615v-32.462h-79.099q-7.362 0-12.132-4.769-4.769-4.77-4.769-12.997 0-7.772 4.769-12.849 4.77-5.077 13.386-5.077h94.152q7.468 0 12.926 5.846 5.459 5.846 6.459 13.539v72.769q1 7.692-5.034 13.538-6.033 5.846-14.351 5.846h-76.615v32.462H792q7.292 0 12.569 5.277 5.277 5.277 5.277 12.569 0 8.307-5.277 13.077-5.277 4.769-12.569 4.769h-96q-8.307 0-13.077-4.769-4.769-4.77-4.769-13.077Zm-460.615-78.154q-8.693 0-14.039-5.346t-5.346-14.039v-140.922q0-7.893 5.346-13.639 5.346-5.746 14.039-5.746h92.922q7.893 0 13.639 5.746 5.746 5.746 5.746 13.639v31.154q0 6.825-5.277 11.835-5.277 5.011-12.569 5.011-8.307 0-13.077-4.77-4.769-4.769-4.769-13.076v-13.847h-60.308v108.308h60.308v-13.847q0-7.292 4.769-12.569 4.77-5.277 12.997-5.277 7.772 0 12.849 5.277t5.077 12.569v30.154q0 8.693-5.746 14.039t-13.639 5.346h-92.922Z"/></svg>