<svg xmlns="http://www.w3.org/2000/svg" height="20" viewBox="0 -960 960 960" width="20"><path d="M180.309-212.001q-26.527 0-45.417-18.849-18.891-18.849-18.891-45.317v-95.875q0-8.726 5.083-15.726 5.082-7 13.646-9.616 24.348-11.615 38.81-33.209 14.461-21.593 14.461-49.423 0-27.83-14.461-49.408-14.462-21.577-38.81-33.159-8.564-2.607-13.646-9.574-5.083-6.967-5.083-15.921v-95.799q0-26.45 18.891-45.286 18.89-18.836 45.417-18.836h599.382q26.527 0 45.417 18.849 18.891 18.849 18.891 45.317v95.875q0 8.726-5.083 15.726-5.082 7-13.646 9.616-24.348 11.615-38.81 33.209-14.461 21.593-14.461 49.423 0 27.83 14.461 49.408 14.462 21.577 38.81 33.159 8.564 2.607 13.646 9.574 5.083 6.967 5.083 15.921v95.799q0 26.45-18.891 45.286-18.89 18.836-45.417 18.836H180.309Zm0-51.999h599.382q5.385 0 8.847-3.462 3.462-3.462 3.462-8.847V-355q-32-19-52-52t-20-73q0-40 20-73t52-52v-78.691q0-5.385-3.462-8.847-3.462-3.462-8.847-3.462H180.309q-5.385 0-8.847 3.462-3.462 3.462-3.462 8.847V-605q32 19 52 52t20 73q0 40-20 73t-52 52v78.691q0 5.385 3.462 8.847 3.462 3.462 8.847 3.462Zm299.494-61.847q10.966 0 18.581-7.418t7.615-18.384q0-10.966-7.418-18.582-7.418-7.615-18.384-7.615-10.966 0-18.581 7.418-7.615 7.419-7.615 18.385 0 10.965 7.418 18.581 7.418 7.615 18.384 7.615Zm0-128.154q10.966 0 18.581-7.418t7.615-18.384q0-10.966-7.418-18.581t-18.384-7.615q-10.966 0-18.581 7.418t-7.615 18.384q0 10.966 7.418 18.581t18.384 7.615Zm0-128.153q10.966 0 18.581-7.418 7.615-7.419 7.615-18.385 0-10.965-7.418-18.581-7.418-7.615-18.384-7.615-10.966 0-18.581 7.418t-7.615 18.384q0 10.966 7.418 18.582 7.418 7.615 18.384 7.615ZM480-480Z"/></svg>