<svg xmlns="http://www.w3.org/2000/svg" height="20" viewBox="0 -960 960 960" width="20"><path d="M656.154-116.001q-13.762 0-22.958-9.197Q624-134.394 624-148.155v-44.805q-37.154-9.81-65.539-34.31-28.384-24.5-43-59.885-3.692-11.154 1-21.692 4.693-10.538 16.461-15.615 8.539-3.461 17.577 1.308 9.038 4.769 12.064 14.33Q573.999-278 601.615-259q27.617 19 60.384 19h120q25.769 0 43.884 18.115 18.116 18.115 18.116 43.884v29.846q0 13.761-9.197 22.957-9.196 9.197-22.957 9.197H656.154Zm77.633-192q-25.941 0-43.864-18.136Q672-344.272 672-370.213t18.135-43.864Q708.271-432 734.212-432t43.864 18.135q17.923 18.135 17.923 44.077 0 25.941-18.136 43.864-18.135 17.923-44.076 17.923ZM624.258-611.757q-77.721 8.45-132.913 62.95-55.192 54.5-63.115 132.038-1.077 10.084-9.076 16.426-8 6.342-18.269 6.342-10.269 0-18.076-7.5-7.808-7.499-6.463-17.551 9.027-98.88 78.428-167.728 69.401-68.848 167.763-77.449 10.923-1.615 17.5 7t6.577 18.809q0 9.729-6.193 17.459-6.192 7.731-16.163 9.204Zm2.279 125.372q-27.231 5.846-46.347 24.654-19.115 18.807-25.961 46.038-2.483 9.226-10.769 15.459-8.287 6.233-18.076 6.233-11.026 0-18.205-6.692-7.179-6.692-5.564-16.23 7.692-47.154 41.162-81.158t80.76-40.918q10.048-1.616 16.562 5.99 6.515 7.605 6.515 18.221 0 10.095-5.077 17.826t-15 10.577ZM148.155-528q-13.761 0-22.957-9.196-9.197-9.196-9.197-22.958v-29.845q0-25.769 18.116-43.884 18.115-18.116 43.884-18.116h120q33.846 0 61.423-19.5 27.577-19.5 39.013-51.672 3.026-10.213 10.564-15.289 7.538-5.077 18.077-2.231 11.768 3.846 18.153 13.577 6.384 9.73 2.923 20.268-13.615 38.385-43.385 64.731Q375-615.769 336-605.036v44.981q0 13.363-9.196 22.709T303.846-528H148.155Zm77.633-192q-25.941 0-43.864-18.135-17.923-18.136-17.923-44.077t18.136-43.864q18.135-17.923 44.076-17.923t43.864 18.136Q288-807.728 288-781.787t-18.135 43.864Q251.73-720 225.788-720Z"/></svg>