<svg xmlns="http://www.w3.org/2000/svg" height="20" viewBox="0 -960 960 960" width="20"><path d="M479.955-274.001q85.814 0 145.929-60.57 60.115-60.57 60.115-145.384 0-85.814-60.07-145.929-60.07-60.115-145.884-60.115-84.814 0-145.429 60.07-60.615 60.07-60.615 145.884 0 84.814 60.57 145.429 60.57 60.615 145.384 60.615Zm-.03-51.998q-64.156 0-109.041-44.96-44.885-44.96-44.885-109.116t44.96-109.041q44.96-44.885 109.116-44.885t109.041 44.96q44.885 44.96 44.885 109.116t-44.96 109.041q-44.96 44.885-109.116 44.885Zm-18.001-135.925q8.692 7.693 18.076 7.693t18.076-7.693l36-36q8.693-8.692 8.693-18.076t-8.693-18.076q-8.692-8.693-18.076-8.693t-18.076 8.693l-36 36q-7.693 8.692-7.693 18.076t7.693 18.076ZM228.309-164.001q-27.308 0-45.808-18.5t-18.5-45.808v-503.382q0-27.308 18.5-45.808t45.808-18.5h503.382q27.308 0 45.808 18.5t18.5 45.808v503.382q0 27.308-18.5 45.808t-45.808 18.5H228.309Z"/></svg>