<svg xmlns="http://www.w3.org/2000/svg" height="20" viewBox="0 -960 960 960" width="20"><path d="M84.309-171.694q-27.008 0-45.658-18.65-18.65-18.65-18.65-45.657v-487.998q0-27.007 18.65-45.657 18.65-18.65 45.658-18.65H875.69q27.008 0 45.658 18.65 18.65 18.65 18.65 45.657v487.998q0 27.007-18.65 45.657-18.65 18.65-45.658 18.65H84.309Zm486.193-51.999h305.189q4.616 0 8.463-3.846 3.846-3.847 3.846-8.462v-487.998q0-4.615-3.846-8.462-3.847-3.846-8.463-3.846H84.309q-4.616 0-8.463 3.846Q72-728.614 72-723.999v487.998q0 4.615 3.846 8.462 3.847 3.846 8.463 3.846h10q52-45.614 113.077-72.806 61.076-27.192 128.114-27.192 67.038 0 125.614 27.692 58.577 27.692 109.388 72.306ZM336-379.384q45.769 0 77.884-32.115 32.115-32.116 32.115-77.885 0-45.768-32.115-77.884-32.115-32.115-77.884-32.115t-77.884 32.115q-32.115 32.116-32.115 77.884 0 45.769 32.115 77.885 32.115 32.115 77.884 32.115ZM185-223.693h299q-33.385-22-70.692-35-37.308-13-77.808-13-40.5 0-79.5 11.5t-71 36.5Zm151-207.69q-24.246 0-41.124-16.877-16.877-16.877-16.877-41.124 0-24.246 16.877-41.123 16.878-16.877 41.124-16.877 24.246 0 41.124 16.877 16.877 16.877 16.877 41.123 0 24.247-16.877 41.124-16.878 16.877-41.124 16.877ZM480-480Zm222.154-75.77V-504q0 7.707 5.069 12.777 5.069 5.069 12.777 5.069 7.708 0 12.777-5.069 5.069-5.07 5.069-12.777v-51.77l49.231 25.385q5.692 3.846 12.192.923t10.346-9.115q3.846-6.192 1.423-13.192t-9.115-10.846L755.691-587l47.232-25.385q6.751-3.846 8.644-11.346 1.894-7.5-1.952-13.692t-10.846-8.615q-7-2.423-12.692 1.423l-48.231 25.385V-672q0-7.708-5.069-12.777-5.069-5.069-12.777-5.069-7.708 0-12.777 5.069-5.069 5.069-5.069 12.777v52.77l-48.231-25.385q-5.692-3.846-12.192-.923t-10.346 9.115q-3.846 6.192-1.952 13.692 1.893 7.5 8.644 11.346L685.309-587l-46.232 24.385q-6.692 3.846-9.115 10.846t1.423 13.192q3.846 6.192 10.846 9.115t12.692-.923l47.231-25.385Z"/></svg>