<svg xmlns="http://www.w3.org/2000/svg" height="20" viewBox="0 -960 960 960" width="20"><path d="M163.384-160.924q-22.007 0-37.387-15.391-15.381-15.391-15.381-37.413V-736.44q0-22.022 15.381-37.253 15.38-15.23 37.387-15.23h258.463q22.007 0 37.388 15.381 15.38 15.38 15.38 37.387v91.232h322.001q22.007 0 37.387 15.394 15.381 15.394 15.381 37.421v378.697q0 22.026-15.381 37.256-15.38 15.231-37.387 15.231H163.384Zm-.769-51.999h260.001v-92.001H162.615v92.001Zm0-144h260.001v-92.001H162.615v92.001Zm0-144h260.001v-92.001H162.615v92.001Zm0-144h260.001v-92.001H162.615v92.001Zm312 432h322.77v-380.001h-322.77v380.001Zm105.692-236.001q-11.05 0-18.524-7.418-7.475-7.419-7.475-18.385 0-10.966 7.475-18.581 7.474-7.615 18.524-7.615H684q11.05 0 18.524 7.418 7.475 7.418 7.475 18.384 0 10.966-7.475 18.582-7.474 7.615-18.524 7.615H580.307Zm0 144q-11.05 0-18.524-7.418-7.475-7.419-7.475-18.385 0-10.966 7.475-18.581 7.474-7.615 18.524-7.615H684q11.05 0 18.524 7.418 7.475 7.418 7.475 18.384 0 10.966-7.475 18.582-7.474 7.615-18.524 7.615H580.307Z"/></svg>