<svg xmlns="http://www.w3.org/2000/svg" height="20" viewBox="0 -960 960 960" width="20"><path d="M228.309-164.001q-26.923 0-45.615-18.693-18.693-18.692-18.693-45.615v-503.382q0-26.923 18.693-45.615 18.692-18.693 45.615-18.693h503.382q26.923 0 45.615 18.693 18.693 18.692 18.693 45.615v503.382q0 26.923-18.693 45.615-18.692 18.693-45.615 18.693H228.309ZM441-536.232l49.693 49.693q9.846 9.846 22.307 9.846 12.461 0 22.307-9.846l115.769-116.769q8.308-8.308 8.308-18.192t-8.308-18.192q-7.922-7.923-17.691-8.307-9.769-.385-18.077 7.923L513-537.768l-49.693-49.693q-9.846-9.846-22.307-9.846-12.461 0-22.307 9.846L309.308-477.076q-8.307 8.307-8.307 18.384 0 10.076 8.307 18.384 7.923 7.923 17.5 8.307 9.576.385 17.884-7.923L441-536.232ZM347.924-336 216-204.076V-216h45.23l120-120h-33.306Zm114 0-120 120h33.306l120-120h-33.306Zm117.461 0-120 120h33.306l120-120h-33.306Zm117.077 0-120 120h33.306L744-350.232V-336h-47.538Z"/></svg>