<svg xmlns="http://www.w3.org/2000/svg" height="20" viewBox="0 -960 960 960" width="20"><path d="M428.001-216.767V-289H180.309q-27.008 0-45.658-18.65-18.65-18.65-18.65-45.657v-379.384q0-27.008 18.65-45.658 18.65-18.65 45.658-18.65h599.382q27.008 0 45.658 18.65 18.65 18.65 18.65 45.658v379.384q0 27.007-18.65 45.657Q806.699-289 779.691-289H531.999v72h46q11.069 0 18.534 7.405 7.466 7.404 7.466 18.384 0 10.979-7.454 18.594-7.454 7.616-18.505 7.616H382.284q-11.052 0-18.667-7.405-7.616-7.405-7.616-18.384 0-10.98 7.466-18.478 7.465-7.499 18.534-7.499h46ZM180.309-340.999h599.382q4.616 0 8.463-3.846 3.846-3.846 3.846-8.462v-379.384q0-4.616-3.846-8.463-3.847-3.846-8.463-3.846H180.309q-4.616 0-8.463 3.846-3.846 3.847-3.846 8.463v379.384q0 4.616 3.846 8.462 3.847 3.846 8.463 3.846Zm-12.309 0V-745-340.999Z"/></svg>