<svg xmlns="http://www.w3.org/2000/svg" height="20" viewBox="0 -960 960 960" width="20"><path d="M798.972-93.122 101.338-791.11q-8.26-8.274-7.952-18.043.308-9.769 8.615-18.077 8.308-8.307 17.885-8.307 9.576 0 18.22 8.644L835.741-129.26q8.259 8.26 8.452 18.403.192 10.143-8.115 18.087-7.975 8.307-18.218 8.307t-18.888-8.659ZM272.156-795.999h415.69q27.769 0 46.268 19 18.5 19 18.5 45.803v74.582h60.77q11.049 0 18.524 7.418 7.475 7.418 7.475 18.384 0 10.966-7.475 18.581t-18.524 7.615h-60.77v95.155h60.77q11.049 0 18.524 7.418 7.475 7.418 7.475 18.384 0 10.966-7.475 18.581t-18.524 7.615h-60.77v95.155h60.77q11.049 0 18.524 7.418 7.475 7.418 7.475 18.384 0 10.966-7.475 18.582-7.475 7.615-18.524 7.615H758.23l-57.614-57.614v-363.768q0-4.616-3.847-8.463-3.846-3.846-8.462-3.846H324.154l-51.998-51.999Zm216.152 216.153.154.346v-44.961q0-13.665 9.219-22.909t22.847-9.244h60.286q13.628 0 23.022 9.244 9.394 9.244 9.394 22.909V-612q0 13.665-9.244 22.909-9.244 9.245-22.91 9.245h-92.768ZM613.23-448.001l-76.153-76.153h43.999q13.666 0 22.91 9.245 9.244 9.244 9.244 22.909v43.999Zm-158.536 16.616Zm59.075-121.231ZM260.001-335.452v-60.285q0-13.628 9.245-23.022 9.244-9.395 22.909-9.395h109.893q13.868 0 23.064 9.219t9.196 22.847v60.286q0 13.628-9.244 23.022-9.244 9.394-22.91 9.394H292.262q-13.868 0-23.064-9.219-9.197-9.219-9.197-22.847Zm-87.307-456.854L221-744h-32.229q-7.693 0-11.924 3.654t-4.231 8.655v503.382q0 4.616 3.846 8.463 3.847 3.846 8.462 3.846h504.383q5.385 0 8.847-4.808 3.462-4.808 3.462-11.347v-31.23l50.614 50.614q-5.539 19-24.57 33.885-19.031 14.885-39.353 14.885H184.924q-26.307 0-45.307-19-19-19-19-45.308v-503.382q0-20.733 15.731-37.251 15.731-16.518 36.346-23.364Zm315.768 315.768L629.23-335.77v4.231q0 11.965-8.094 20.059-8.094 8.094-20.06 8.094h-80.46q-13.666 0-22.91-9.271-9.244-9.272-9.244-22.978v-140.903ZM308.386-656.614l139.922 139.921V-514q0 12.815-8.669 21.484-8.669 8.67-21.485 8.67H292.262q-13.868 0-23.064-9.251-9.197-9.25-9.197-22.925v-108.526q0-13.674 9.245-22.87 9.244-9.196 22.909-9.196h16.231Z"/></svg>