<svg xmlns="http://www.w3.org/2000/svg" height="20" viewBox="0 -960 960 960" width="20"><path d="m232.153-480 100.923 100.924q7.923 7.922 8.308 18.384.385 10.461-7.829 18.768-8.786 8.308-18.863 8.116-10.076-.193-18.669-8.785L181.209-457.408q-10.131-10.131-10.131-22.774t9.846-22.125l115.075-115.075q8.232-8.233 18.501-8.617 10.269-.385 19.055 7.923 8.214 8.307 8.021 18.576-.192 10.269-8.5 18.576L232.153-480Zm-20.152 192H264v58.001h432V-288h51.999v155.691q0 27.008-18.65 45.658-18.65 18.65-45.658 18.65H276.309q-27.008 0-45.658-18.65-18.65-18.65-18.65-45.658V-288ZM264-672h-51.999v-155.691q0-27.008 18.65-45.658 18.65-18.65 45.658-18.65h407.382q27.008 0 45.658 18.65 18.65 18.65 18.65 45.658V-672H696v-58.001H264V-672Zm463.847 192L626.924-580.924q-7.923-7.922-8.308-18.384-.385-10.461 7.829-18.768 8.786-8.308 18.863-8.116 10.076.193 18.669 8.785l114.814 114.815q10.131 10.131 10.131 22.774t-9.846 22.125L664.001-342.618q-8.232 8.233-18.001 8.117-9.769-.115-18.555-8.423-8.214-8.307-8.021-18.576.192-10.269 8.845-18.922L727.847-480Z"/></svg>