<svg xmlns="http://www.w3.org/2000/svg" height="20" viewBox="0 -960 960 960" width="20"><path d="M479.788-71.079q-25.942 0-43.864-18.135-17.923-18.135-17.923-44.076t18.135-43.864q18.135-17.923 44.076-17.923 25.942 0 43.864 18.135 17.923 18.135 17.923 44.077 0 25.941-18.135 43.864-18.135 17.922-44.076 17.922ZM268.403-771.077q-25.941 0-43.864-18.135-17.923-18.136-17.923-44.077t18.136-43.864q18.135-17.923 44.076-17.923t43.864 18.136q17.923 18.135 17.923 44.076T312.48-789q-18.135 17.923-44.077 17.923Zm0 235.384q-25.941 0-43.864-18.135t-17.923-44.077q0-25.941 18.136-43.864 18.135-17.922 44.076-17.922t43.864 18.135q17.923 18.135 17.923 44.076t-18.135 43.864q-18.135 17.923-44.077 17.923Zm0 235.384q-25.941 0-43.864-18.135t-17.923-44.076q0-25.941 18.136-43.864 18.135-17.923 44.076-17.923t43.864 18.135q17.923 18.135 17.923 44.077 0 25.941-18.135 43.864-18.135 17.922-44.077 17.922Zm422.769-470.768q-25.941 0-43.864-18.135-17.923-18.136-17.923-44.077t18.135-43.864q18.136-17.923 44.077-17.923t43.864 18.136q17.923 18.135 17.923 44.076T735.248-789q-18.135 17.923-44.076 17.923ZM479.788-300.309q-25.942 0-43.864-18.135-17.923-18.135-17.923-44.076t18.135-43.864q18.135-17.923 44.076-17.923 25.942 0 43.864 18.135 17.923 18.135 17.923 44.077 0 25.941-18.135 43.864-18.135 17.922-44.076 17.922Zm211.384 0q-25.941 0-43.864-18.135t-17.923-44.076q0-25.941 18.135-43.864 18.136-17.923 44.077-17.923t43.864 18.135q17.923 18.135 17.923 44.077 0 25.941-18.136 43.864-18.135 17.922-44.076 17.922Zm0-235.384q-25.941 0-43.864-18.135t-17.923-44.077q0-25.941 18.135-43.864 18.136-17.922 44.077-17.922t43.864 18.135q17.923 18.135 17.923 44.076t-18.136 43.864q-18.135 17.923-44.076 17.923Zm-211.384 0q-25.942 0-43.864-18.135-17.923-18.135-17.923-44.077 0-25.941 18.135-43.864 18.135-17.922 44.076-17.922 25.942 0 43.864 18.135 17.923 18.135 17.923 44.076t-18.135 43.864q-18.135 17.923-44.076 17.923Zm0-235.384q-25.942 0-43.864-18.135-17.923-18.136-17.923-44.077t18.135-43.864q18.135-17.923 44.076-17.923 25.942 0 43.864 18.136 17.923 18.135 17.923 44.076T523.864-789q-18.135 17.923-44.076 17.923Z"/></svg>