<svg xmlns="http://www.w3.org/2000/svg" height="20" viewBox="0 -960 960 960" width="20"><path d="M346.001-106.112q0-10.966 7.463-18.581 7.463-7.616 18.496-7.616h215.757q11.033 0 18.658 7.419 7.624 7.418 7.624 18.384 0 10.966-7.463 18.58-7.463 7.616-18.496 7.616H372.283q-11.033 0-18.657-7.418-7.625-7.418-7.625-18.384Zm-21.565-98.197q-27.135 0-45.785-18.649-18.65-18.65-18.65-45.658v-551.383q0-27.007 18.65-45.657 18.65-18.65 45.785-18.65h311.128q27.135 0 45.785 18.65 18.65 18.65 18.65 45.657v551.383q0 27.008-18.65 45.658-18.65 18.649-45.785 18.649H324.436ZM312-366.306h336v-356.002H312v356.002Z"/></svg>