<svg xmlns="http://www.w3.org/2000/svg" height="20" viewBox="0 -960 960 960" width="20"><path d="M163.384-160.924q-22.007 0-37.387-15.381-15.381-15.38-15.381-37.387v-546.463q0-22.007 15.381-37.387 15.38-15.381 37.387-15.381h258.463q22.007 0 37.388 15.381 15.38 15.38 15.38 37.387v91.232h322.001q22.007 0 37.387 15.381 15.381 15.38 15.381 37.387v239.387q0 11.05-7.419 18.525-7.418 7.474-18.384 7.474-10.966 0-18.581-7.474-7.615-7.475-7.615-18.525v-240.156h-322.77v100.001h79.693v51.999h-79.693v100.001h79.693v51.999h-79.693v100.001h157.386q11.05 0 18.525 7.418 7.475 7.418 7.475 18.384 0 10.966-7.475 18.582-7.475 7.615-18.525 7.615H163.384Zm-.769-51.999h92.001v-92.001h-92.001v92.001Zm0-152h92.001v-92.001h-92.001v92.001Zm0-152h92.001v-92.001h-92.001v92.001Zm0-152h92.001v-92.001h-92.001v92.001Zm168 456h92.001v-92.001h-92.001v92.001Zm0-152h92.001v-92.001h-92.001v92.001Zm0-152h92.001v-92.001h-92.001v92.001Zm0-152h92.001v-92.001h-92.001v92.001ZM823.581-88.924q-10.966 0-18.464-7.475-7.499-7.475-7.499-18.525v-46h-46.117q-11.099 0-18.608-7.479-7.508-7.479-7.508-18.534 0-11.056 7.508-18.521 7.509-7.465 18.608-7.465h46.117v-46.001q0-11.049 7.512-18.524 7.512-7.475 18.478-7.475 10.966 0 18.371 7.475 7.405 7.475 7.405 18.524v46.001h45.79q10.96 0 18.585 7.418t7.625 18.384q0 10.966-7.475 18.432-7.475 7.465-18.525 7.465h-46v46q0 11.05-7.419 18.675-7.418 7.625-18.384 7.625Zm-165.58-376v-51.999h51.998v51.999h-51.998Zm0 152v-51.999h51.998v51.999h-51.998Z"/></svg>