<svg xmlns="http://www.w3.org/2000/svg" height="20" viewBox="0 -960 960 960" width="20"><path d="M797.001-89.078 674.462-212H180.309q-26.923 0-45.615-18.693-18.693-18.692-18.693-45.615v-407.382q0-26.923 19.693-45.615 19.692-18.693 47.615-18.693h18.692v62.537L98.694-788.77q-7.923-7.923-7.808-17.692.115-9.769 8.423-18.076 8.307-8.308 17.884-8.308t17.884 8.308L833.77-126.23q7.923 7.923 8.115 17.884.192 9.961-8.115 18.269-8.308 8.307-18.384 8.807-10.077.5-18.385-7.808ZM180.309-264h442.155l-360-360H168v347.691q0 5.385 3.462 8.847 3.462 3.462 8.847 3.462Zm647.228 30.306L792-269.231V-624H437.231L313.232-747.999h466.459q26.923 0 45.615 18.693 18.693 18.692 18.693 45.615v407.382q0 12.462-4.808 24.116-4.808 11.653-11.654 18.499Zm-237.23-237.23-36.383-36.383 36.154-36.154q7.922-7.923 17.999-8.115 10.077-.193 18.384 8.115 8.308 8.307 8.308 17.692 0 9.384-8.308 17.691l-36.154 37.154Zm-50.615 50.616-79.385 78.384q-9.846 9.846-22.807 9.846-12.961 0-22.807-9.846l-81.154-81.154q-7.923-7.922-7.615-17.999.307-10.077 8.615-18.384 8.307-8.308 18.192-8.308 9.884 0 18.191 8.308L438-391.384l65.308-65.308 36.384 36.384Z"/></svg>