<svg xmlns="http://www.w3.org/2000/svg" height="20" viewBox="0 -960 960 960" width="20"><path d="M398.386-111.617q-34.078 0-60.355-21.41-26.277-21.41-32.799-55.435-5.538-27.077-24.116-42.116-18.577-15.039-41.668-15.039h-6.696q-3.445 0-6.598 1.385-42.769 8.077-76.653-19.935-33.884-28.011-33.884-71.448 0-35.461 22.076-60.692 22.077-25.23 56.384-32.076l112.462-19.154 142.616-205.539q4.616-6.924 3.846-13.847-.769-6.924-6.538-12.309-9.693-14.692-14.269-23.538-4.577-8.846-4.577-27.23 0-28.538 20.538-51.076t53.46-22.538q18 0 28.115 5.077 10.115 5.077 23.346 14.692 7.615 4.231 22.116 10.039 14.5 5.807 37.269 5.807.846-21.23 14.769-39.884t37.154-27.269q30.922-10.539 63.114 3.307 32.192 13.846 44.114 48.538l45.616 128.615q10.538 32.153-3.231 63.153-13.769 30.999-48.23 43.076-31 11.846-60.576-1.923-29.577-13.769-43.192-41.615h3.232q-5.77-.77-11.347 1.346-5.577 2.115-9.424 7.116L469.845-333.231l19.538 112.077q7.077 43.769-19.961 76.653-27.038 32.884-71.036 32.884Zm-.065-51.998q19.679 0 31.679-14.5T438-213l-20-113q-2-9 .5-18.5T426-362l183-262q5.739-8.941 14.87-13.971Q633-643 644-644l-27-72q-29-.385-53.5-6.885T522-742q-6-5-12.192-6.808-6.193-1.807-11.193-1.807-8 0-13 4.307-5 4.308-5 12.308 0 6 4 14T499-702q7.28 7.8 10.64 16.692 3.36 8.893 3.36 17.893 0 7.8-2.192 14.607Q508.615-646 504-640L348-417q-5 8-14 13t-18 7l-113 20q-16.385 3.385-25.885 14.885t-9.5 26.5q0 18.615 15 31.307 15 12.693 34.385 8.308 5.923-1.333 11.423-1.474 5.5-.141 10.577-.141 21.922 0 41.461 7 19.539 7 35.539 21t26.577 31.479Q353.154-220.656 357-198q3 15.385 14.911 24.885 11.91 9.5 26.41 9.5ZM749.46-598q11.615-5 17.615-16.667 6-11.666 1.385-23.333l-46-129q-5.385-13-16.692-18.5-11.308-5.5-24.308-.5-13 5.385-18.692 16.885-5.693 11.5-.308 24.115l46 128q5 13.385 16.5 18.885 11.5 5.5 24.5.115ZM466-493Zm249.075-198.615Z"/></svg>