<svg xmlns="http://www.w3.org/2000/svg" height="20" viewBox="0 -960 960 960" width="20"><path d="M276.309-116.001q-27.008 0-45.658-18.65-18.65-18.65-18.65-45.658v-599.382q0-27.008 18.65-45.658 18.65-18.65 45.658-18.65H540.23q12.862 0 24.123 4.231 11.262 4.231 20.649 14.18l143.92 141.435q10.23 9.846 14.654 21.692 4.423 11.846 4.423 24.692v435.615l-164-163.231q10-14.231 15-32t5-36.615q0-51.922-36.038-87.961-36.039-36.038-87.961-36.038t-87.961 36.038Q356.001-485.922 356.001-434t36.038 87.961q36.039 36.038 87.961 36.038 18.077 0 35.346-4.308 17.269-4.308 32.269-14.692l185.307 186.076q-13.923 15.692-28.884 21.308-14.962 5.616-46.192 5.616H276.309ZM479.788-362Q450-362 429-383.212q-21-21.213-21-51Q408-464 429.212-485q21.213-21 51-21Q510-506 531-484.788q21 21.213 21 51Q552-404 530.788-383q-21.213 21-51 21Z"/></svg>