<svg xmlns="http://www.w3.org/2000/svg" height="20" viewBox="0 -960 960 960" width="20"><path d="M827.922-234.078 792-270v-317.691q0-5.385-3.462-8.847-3.462-3.462-8.847-3.462H462l-96-96-51.999-51.999h34.614q12.684 0 24.419 4.616 11.735 4.615 21.581 14.461l76.923 76.923h308.153q27.008 0 45.658 18.65 18.65 18.65 18.65 45.658v311.382q0 12.011-4.616 22.698-4.615 10.687-11.461 19.533Zm-647.613 22.077q-26.308 0-45.308-19t-19-45.308v-407.382q0-27.008 19-45.658 19-18.65 45.308-18.65h31.692L264-696h-83.691q-5.385 0-8.847 3.462-3.462 3.462-3.462 8.847v407.382q0 5.385 3.462 8.847 3.462 3.462 8.847 3.462h442.77L111.002-774.692q-8.307-8.308-8.307-18.077 0-9.768 8.307-18.076 8.692-8.692 18.577-8.692 9.884 0 18.576 8.692l678.733 678.733q8.266 8.266 8.65 18.227.385 9.961-7.923 18.747-8.307 8.214-18.076 8.021-9.769-.192-18.076-8.5L675.078-212H180.309ZM405.694-480ZM579-483Z"/></svg>