<svg xmlns="http://www.w3.org/2000/svg" height="20" viewBox="0 -960 960 960" width="20"><path d="M827.922-234.078 314.001-747.999h34.614q12.461 0 24.307 4.616 11.847 4.615 21.693 14.461l76.923 76.923h308.153q27.308 0 45.808 18.5t18.5 45.808v311.382q0 12.077-4.616 22.731-4.615 10.654-11.461 19.5Zm-647.613 22.077q-26.308 0-45.308-19t-19-45.308v-407.382q0-27.308 19-45.808t45.308-18.5h31.692l64.308 64.308h-74.306l-91.001-91.001q-8.307-8.308-8.307-18.077 0-9.768 8.307-18.076 8.692-8.692 18.577-8.692 9.884 0 18.576 8.692l679.076 679.076q7.923 7.923 8.307 17.884.385 9.961-7.923 18.269-8.307 8.692-18.076 8.5-9.769-.193-18.076-8.5L675.078-212.002H180.309Z"/></svg>