<svg xmlns="http://www.w3.org/2000/svg" height="20" viewBox="0 -960 960 960" width="20"><path d="M607.693-212.001v-26.308q0-34.489 34.384-54.09Q676.461-312 737.846-312q61.384 0 95.768 19.601 34.385 19.601 34.385 54.09v26.308H607.693Zm129.94-136.308q-25.941 0-43.864-18.135t-17.923-44.076q0-25.941 18.136-43.864 18.135-17.923 44.076-17.923t43.864 18.135q17.923 18.135 17.923 44.077 0 25.941-18.135 43.864-18.136 17.922-44.077 17.922ZM180.309-212.001q-26.308 0-45.308-19t-19-45.308v-407.382q0-27.008 19-45.658 19-18.65 45.308-18.65h168.333q12.811 0 24.661 4.616 11.85 4.615 21.696 14.461l76.923 76.923h307.769q27.008 0 45.658 18.65 18.65 18.65 18.65 45.658v59.383q-26.693-11.538-54.038-17.615Q762.615-552 734.846-552q-113.923 0-188.154 84.192-74.23 84.192-62.23 194.577 2 15.922 5.538 31.23 3.539 15.307 8.615 30H180.309Z"/></svg>