<svg xmlns="http://www.w3.org/2000/svg" height="20" viewBox="0 -960 960 960" width="20"><path d="M178.001-212.001q-28.154 0-45.077-18.085t-16.923-43.955v-409.934q0-25.87 18.077-44.947t46.231-19.077h168.333q12.811 0 24.661 4.616 11.85 4.615 21.696 14.461l76.923 76.923h343.615q11.069 0 18.535 7.405 7.465 7.405 7.465 18.384 0 10.98-7.465 18.595Q826.606-600 815.537-600H451.385l-96-96H180.309q-5.385 0-8.847 3.462-3.462 3.462-3.462 8.847V-264q0-5.385 2.116-4.039 2.115 1.346 5.577 3.27l61.846-208.923q6.231-20.308 23.115-33.461 16.885-13.154 38.577-13.154h537.461q31.769 0 51.846 25.73 20.077 25.731 9.846 57.269l-53.923 181.615q-6.846 19.538-17.154 31.615-10.307 12.077-32.23 12.077H178.001ZM229.537-264h553.002q4.231 0 7.5-2.308 3.27-2.308 4.424-6.539l55.153-179.691q1.923-6.155-1.923-10.963-3.847-4.808-10.001-4.808H299.231q-4.231 0-7.501 2.308-3.269 2.308-4.423 6.539L229.537-264ZM168-475.077V-696v220.923ZM229.537-264l57.77-195.462q1.154-4.231 1.923-6.539l.769-2.308-1.346 4.808q-1.346 4.808-3.269 10.963L232.23-272.847q-1.154 4.231-1.923 6.539l-.77 2.308Z"/></svg>