<svg xmlns="http://www.w3.org/2000/svg" height="20" viewBox="0 -960 960 960" width="20"><path d="M265.923-207.001q-14.344 0-24.248-9.881-9.905-9.881-9.905-24.192 0-14.31 9.905-24.272 9.904-9.961 24.248-9.961h118.539l133.616-409.386H395.539q-14.344 0-24.248-9.881-9.905-9.881-9.905-24.192 0-14.31 9.905-24.272 9.904-9.961 24.248-9.961h305.846q14.344 0 24.249 9.881 9.904 9.881 9.904 24.192 0 14.31-9.904 24.272-9.905 9.961-24.249 9.961H587.153L453.537-275.307h118.232q14.344 0 24.248 9.881 9.905 9.881 9.905 24.192 0 14.31-9.905 24.272-9.904 9.961-24.248 9.961H265.923Z"/></svg>