<svg xmlns="http://www.w3.org/2000/svg" height="20" viewBox="0 -960 960 960" width="20"><path d="M455.231-116.001q-21.45 0-36.724-15.275-15.275-15.275-15.275-36.724v-191.233H276.693q-27.007 0-45.849-18.649-18.843-18.65-18.843-45.273v-256.923q0-49.417 33.978-82.669 33.978-33.252 82.713-33.252h387.153q13.665 0 22.909 9.245 9.245 9.244 9.245 22.909v340.69q0 26.623-19.467 45.273-19.466 18.649-45.61 18.649H556.383V-168q0 21.449-15.624 36.724-15.625 15.275-36.374 15.275h-49.154ZM264-542.769h432V-744h-60.693v111.968q0 11.013-7.418 18.638-7.418 7.624-18.384 7.624-10.966 0-18.582-7.474-7.615-7.475-7.615-18.525V-744h-64.924v46.231q0 11.05-7.418 18.525-7.418 7.475-18.384 7.475-10.966 0-18.581-7.619-7.616-7.618-7.616-18.881V-744H328.692q-27.008 0-45.85 17.807Q264-708.385 264-680.078v137.309Z"/></svg>