<svg xmlns="http://www.w3.org/2000/svg" height="20" viewBox="0 -960 960 960" width="20"><path d="M792-696H168v419.691q0 5.385 3.462 8.847 3.462 3.462 8.847 3.462h381.692V-212.001H180.309q-26.308 0-45.308-19t-19-45.308v-407.382q0-26.308 19-45.308t45.308-19h599.382q27.008 0 45.658 19 18.65 19 18.65 45.308v261.692H792V-696Zm-624 0V-264v-168.615 2.539V-696Zm312 179 312-179v62.691L497.077-463.771q-7.981 4.616-16.452 4.616-8.471 0-16.702-4.616L168-630.232V-696l312 179Zm310.155 304.999h-137.92q-11.038 0-18.483-7.405-7.444-7.405-7.444-18.384 0-10.98 7.444-18.595Q641.197-264 652.235-264H790.54l-49.175-49.174q-7.672-7.673-8.057-18.327-.385-10.653 7.923-19.054 7.923-7.83 18.576-7.445 10.654.385 18.452 8.182l89.634 89.635q9.721 9.721 9.721 22.364t-9.846 22.126l-89.769 89.769q-8.308 8.307-18.077 7.423-9.768-.885-17.691-8.808-8.308-8.307-8.308-18.192 0-9.884 8.308-18.192l47.924-48.308Z"/></svg>