<svg xmlns="http://www.w3.org/2000/svg" height="20" viewBox="0 -960 960 960" width="20"><path d="M228.309-164.001h111.692v-175.616h-176v111.308q0 26.527 18.891 45.417 18.89 18.891 45.417 18.891Zm163.691 0h176v-175.616H392v175.616Zm227.999 0h111.692q26.527 0 45.417-18.891 18.891-18.89 18.891-45.417v-111.308h-176v175.616ZM164.001-391.615h176v-176.77h-176v176.77Zm227.999 0h176v-176.77H392v176.77Zm227.999 0h176v-176.77h-176v176.77ZM164.001-620.383h176v-175.616H228.309q-26.527 0-45.417 18.891-18.891 18.89-18.891 45.417v111.308Zm227.999 0h176v-175.616H392v175.616Zm227.999 0h176v-111.308q0-26.527-18.891-45.417-18.89-18.891-45.417-18.891H619.999v175.616Z"/></svg>