<svg xmlns="http://www.w3.org/2000/svg" height="20" viewBox="0 -960 960 960" width="20"><path d="M178.77-399.538 259-479.767l-80.23-80.23-80.23 80.23 80.23 80.229Zm521.846 4.616 81.383-144.922 81.768 144.922H700.616Zm-220.48-41.077q-43.212 0-73.597-30.288-30.384-30.288-30.384-73.557 0-43.134 30.288-73.489 30.288-30.355 73.557-30.355 43.134 0 73.49 30.316 30.355 30.316 30.355 73.393 0 43.212-30.316 73.596-30.317 30.384-73.393 30.384ZM20.001-255.077v-15.153q0-49.539 46.83-73.385 46.828-23.846 111.565-23.846 14.22 0 28.451 1.693 14.231 1.692 28.461 4.692-15.307 15.692-23.153 40.157-7.846 24.465-7.846 45.034v51.423H50.617q-12.712 0-21.664-8.952-8.951-8.952-8.951-21.663Zm240-1.539v-17.845q0-51.308 55.488-82.423 55.487-31.115 164.617-31.115 109.047 0 164.47 31.115t55.423 82.423v17.845q0 13.366-9.395 22.76-9.394 9.394-22.759 9.394H292.314q-13.62 0-22.966-9.394-9.347-9.394-9.347-22.76Zm521.998-110.845q64.5 0 111.25 23.846t46.75 73.385v15.153q0 12.711-8.952 21.663t-21.663 8.952H755.691v-51.483q0-20.593-7.346-45.016t-24.038-40.115q14.231-3 28.725-4.692 14.495-1.693 28.967-1.693Z"/></svg>