<svg xmlns="http://www.w3.org/2000/svg" height="20" viewBox="0 -960 960 960" width="20"><path d="M428.771-164.001q-18.092 0-30.738-12.647-12.647-12.646-12.647-30.738v-436.615H269.618q-14.868 0-23.741-12.231-8.874-12.231-4.72-26.923 16.077-50.614 59.038-81.729 42.961-31.115 96.883-31.115h120.921q18.092 0 30.738 12.647 12.647 12.646 12.647 30.738v74.308L666.007-782.93q6.992-6.992 13.992-10.03 7-3.039 15.617-3.039h7.887q11.631 0 19.601 7.454 7.97 7.454 7.97 18.505v211.142q0 11.052-7.97 18.667-7.97 7.615-19.601 7.615h-7.887q-8.617 0-15.617-3.038-7-3.039-13.992-10.03L561.384-650.308v442.922q0 18.092-12.647 30.738-12.646 12.647-30.738 12.647h-89.228ZM437.385-216h72v-237.616h-72V-216Zm0-289.999h72V-744H397.078q-27.806 0-52.595 13.308-24.79 13.307-43.79 34.692h136.692v190.001Zm35 25.999Z"/></svg>