<svg xmlns="http://www.w3.org/2000/svg" height="20" viewBox="0 -960 960 960" width="20"><path d="M431.887-536.001q15.882 0 26.997-11.003 11.115-11.002 11.115-26.884t-11.002-26.997Q447.994-612 432.113-612q-15.882 0-26.997 11.003-11.115 11.002-11.115 26.884 0 15.881 11.002 26.996 11.003 11.116 26.884 11.116Zm21.805 169.077 186-186q7.923-7.59 8.115-18.025.192-10.436-8.115-18.744Q631.384-598 621.141-598q-10.243 0-18.217 8.307L416.308-403.077q-7.923 7.559-7.807 17.702.115 10.143 8.423 18.451 8.307 8.307 18.55 8.307 10.244 0 18.218-8.307Zm170.195 22.923q15.882 0 26.997-11.003 11.115-11.002 11.115-26.884t-11.002-26.997Q639.994-420 624.113-420q-15.882 0-26.997 11.003-11.115 11.002-11.115 26.884 0 15.881 11.002 26.996 11.003 11.116 26.884 11.116Zm107.804 132H324.309q-26.308 0-45.308-19t-19-45.308v-551.382q0-26.308 19-45.308t45.308-19h282.769q12.684 0 24.418 4.616 11.735 4.615 21.582 14.461l123.844 123.844q9.846 9.847 14.461 21.582 4.616 11.734 4.616 24.418v426.769q0 26.308-19 45.308t-45.308 19Zm12.309-480H638.462q-17.884 0-30.172-12.289-12.289-12.288-12.289-30.172V-840H324.309q-4.616 0-8.463 3.846-3.846 3.847-3.846 8.463v551.382q0 4.616 3.846 8.463 3.847 3.846 8.463 3.846h407.382q4.616 0 8.463-3.846 3.846-3.847 3.846-8.463v-415.692Zm-563.691 624q-26.308 0-45.308-19t-19-45.308v-493.69q0-11.069 7.405-18.534 7.405-7.466 18.384-7.466 10.98 0 18.595 7.466Q168-637.068 168-625.999v493.69q0 4.616 3.846 8.463 3.847 3.846 8.463 3.846h397.69q11.069 0 18.534 7.405 7.466 7.404 7.466 18.384t-7.466 18.594Q589.068-68 577.999-68h-397.69ZM312-840v174.999V-840v576V-840Z"/></svg>