<svg xmlns="http://www.w3.org/2000/svg" height="20" viewBox="0 -960 960 960" width="20"><path d="M726.615-322.001v-108h-108v-51.998h108v-108h51.999v108h108v51.998h-108v108h-51.999ZM432-170.925l-67.612-60.844Q275.771-311 218.156-368.616q-57.616-57.615-90.77-103.077-33.154-45.462-46.27-83.923Q68.002-594.078 68.002-634q0-80.154 55.423-135.769Q178.847-825.384 259-825.384q49.385 0 95 23.693 45.615 23.692 78 67.462 32.385-43.77 78-67.462 45.615-23.693 95-23.693 71.846 0 125.999 46.193 54.154 46.192 64.307 120.807-25.461-3.231-30.076-3.538-4.616-.308-12.77-.308-86.384 0-146.114 60.231-59.731 60.23-59.731 146.999 0 38.615 12.615 73.076 12.615 34.461 37 61.308-19.154 18.153-62.654 57.615-43.5 39.461-67.423 61.385L432-170.925Z"/></svg>