<svg xmlns="http://www.w3.org/2000/svg" height="20" viewBox="0 -960 960 960" width="20"><path d="M437.462-193.616Q356.693-266.77 296.347-330.27q-60.346-63.5-100.384-117.884-40.038-54.385-60-100.116-19.962-45.73-19.962-82.591 0-83.876 59.091-141.507t143.909-57.631q41.645 0 78.014 13.769 36.37 13.769 66.446 39.692l-51.307 171.693q-5 16.23 4.368 30.038t25.4 13.808h78.77l-24.077 223.397q-1 7.91 6 8.91t9-6l76.001-244.847q4.615-17.231-4.346-31.346-8.962-14.116-25.039-14.116h-77.154l62.23-182.075q22.148-11.462 46.61-17.193 24.462-5.73 49.313-5.73 85.769 0 144.884 57.59Q843.229-714.818 843.229-631q0 35.875-20.192 81.284-20.192 45.408-59.846 100.023-39.654 54.615-99.692 118.615-60.038 64-139.73 137.462-8.807 7.615-19.673 11.923-10.865 4.308-23.082 4.308t-23.461-4.5q-11.245-4.5-20.091-11.731Z"/></svg>