<svg xmlns="http://www.w3.org/2000/svg" height="20" viewBox="0 -960 960 960" width="20"><path d="m846.617-635.923-45.693 45.924q-7.923 8.308-8.116 18.577-.192 10.269 8.116 18.259 8.307 8.24 18.268 8.24 9.962 0 17.884-8.307l86.385-86.385q9.846-9.482 9.846-22.125 0-12.644-9.846-22.49l-85.769-86.769q-7.59-7.922-18.218-8.115-10.628-.192-19.029 8.115-7.829 7.923-8.329 18.192-.5 10.269 7.808 18.577l46.309 46.309H732q-40.833 0-69.416 28.583t-28.583 69.416v251.383q0 19.146-13.367 32.573-13.366 13.427-32.423 13.427-19.057 0-32.635-13.427-13.577-13.427-13.577-32.573v-251.383q0-40.833-28.57-69.416t-69.384-28.583q-40.814 0-69.429 28.583-28.615 28.583-28.615 69.416v251.383q0 19.146-13.367 32.573t-32.423 13.427q-19.057 0-32.635-13.427-13.577-13.427-13.577-32.573v-323.383q0-11.05-7.418-18.525-7.418-7.474-18.384-7.474-10.966 0-18.581 7.474-7.615 7.475-7.615 18.525v323.383q0 40.833 28.57 69.416t69.384 28.583q40.814 0 69.429-28.583 28.615-28.583 28.615-69.416v-251.383q0-19.147 13.367-32.574t32.423-13.427q19.057 0 32.635 13.427 13.577 13.427 13.577 32.574v251.383q0 40.833 28.57 69.416t69.384 28.583q40.814 0 69.429-28.583 28.615-28.583 28.615-69.416v-251.383q0-19.147 13.427-32.574 13.428-13.427 32.574-13.427h114.617ZM132.309-131.001q-26.527 0-45.417-18.891-18.89-18.89-18.89-45.417v-256.767q0-13.666 9.244-22.91t22.909-9.244h759.69q13.665 0 22.909 9.244 9.245 9.244 9.245 22.91v256.767q0 26.527-18.891 45.417-18.89 18.891-45.417 18.891H132.309Z"/></svg>