<svg xmlns="http://www.w3.org/2000/svg" height="20" viewBox="0 -960 960 960" width="20"><path d="M202.001-312h555.998q33.931 0 57.966-24.035Q840-360.07 840-394.001v-219.998q0-33.931-24.035-57.966Q791.93-696 757.999-696H202.001q-33.931 0-57.966 24.035Q120-647.93 120-613.999v219.998q0 33.931 24.035 57.966Q168.07-312 202.001-312Zm106 63.999v-12h-106q-56.154 0-95.077-38.923-38.923-38.923-38.923-95.077v-219.998q0-56.154 38.923-95.077 38.923-38.923 95.077-38.923h555.998q56.154 0 95.077 38.923 38.923 38.923 38.923 95.077v219.998q0 56.154-38.923 95.077-38.923 38.923-95.077 38.923h-106v12q0 12.992-9.197 22.188-9.196 9.196-22.188 9.196H339.386q-12.992 0-22.188-9.196-9.197-9.196-9.197-22.188ZM480-504Z"/></svg>