<svg xmlns="http://www.w3.org/2000/svg" height="20" viewBox="0 -960 960 960" width="20"><path d="m109.463-451.232 194.383-291.766q73.77 34.308 132.847 97.231 59.076 62.923 88.461 138.692 38.692-46.154 81.807-71 43.116-24.846 131.732-49.385 35.384-9.461 63.691-19.115 28.308-9.654 51.231-21.731v326.228l-281 176.923q-15.846 10.23-36.5 16.346-20.654 6.115-42.115 6.115-27.077 0-51.846-9.731-24.769-9.73-44.23-28.576L109.463-451.232Zm297.691 110.231q11.692 0 21.038-8.846t10.346-20.538v.385q1.154.769 2.308.961 1.154.193 2.308.193 11.692-1 19.845-10.347 8.154-9.346 8.154-21.038t-9.846-21.538q-9.846-9.846-21.538-9.846-7 0-12.423 2.192-5.423 2.193-10.039 7.577L306.923-532.23q6.154-4.231 10.115-10.539Q321-549.076 321-557.461q0-11.692-9.846-21.538t-21.538-9.846q-12.692 0-22.038 8.846-9.347 8.846-9.347 21.538l.193-.385q.192-.384-.193-.384-1.153-.77-2.307-.962-1.154-.192-2.308-.192-11.692 1-19.846 10.346T225.616-529q0 11.692 9.846 21.538T257-497.616q7.616 0 13.231-2.692t10.231-8.077l109.769 110.769q-6.154 3.846-10.308 10.154t-4.154 15.077q0 11.692 9.846 21.538t21.539 9.846Z"/></svg>