<svg xmlns="http://www.w3.org/2000/svg" height="20" viewBox="0 -960 960 960" width="20"><path d="M180.309-212.001q-27.008 0-45.658-18.662-18.65-18.662-18.65-45.686v-407.626q0-27.024 18.65-45.524t45.658-18.5h599.382q27.008 0 45.658 18.662 18.65 18.662 18.65 45.686v407.626q0 27.024-18.65 45.524t-45.658 18.5H180.309ZM299.857-480q13.604 0 22.95-9.203 9.347-9.203 9.347-22.808 0-13.604-9.203-22.95t-22.808-9.346q-13.604 0-22.95 9.203-9.347 9.203-9.347 22.807 0 13.605 9.203 22.951T299.857-480Zm140.153 0q13.605 0 22.951-9.203t9.346-22.808q0-13.604-9.203-22.95t-22.807-9.346q-13.605 0-22.951 9.203T408-512.297q0 13.605 9.203 22.951T440.01-480Zm140.154 0q13.605 0 22.951-9.203t9.346-22.808q0-13.604-9.203-22.95t-22.808-9.346q-13.604 0-22.95 9.203t-9.346 22.807q0 13.605 9.203 22.951T580.164-480Zm0 140.154q13.605 0 22.951-9.203t9.346-22.808q0-13.604-9.203-22.95-9.203-9.347-22.808-9.347-13.604 0-22.95 9.203t-9.346 22.808q0 13.604 9.203 22.95 9.203 9.347 22.807 9.347Z"/></svg>