<svg xmlns="http://www.w3.org/2000/svg" height="20" viewBox="0 -960 960 960" width="20"><path d="M276.309-116.001q-25.827 0-45.067-18.891-19.241-18.89-19.241-45.417v-85.538q0-13.665 9.239-22.91 9.239-9.244 22.896-9.244h471.417q13.657 0 23.051 9.244 9.395 9.245 9.395 22.91v85.538q0 26.527-19.241 45.417-19.24 18.891-45.067 18.891H276.309ZM548.001-792v115.999q0 13.6 9.2 22.8 9.2 9.2 22.8 9.2H696L548.001-792Zm-336 12.309q0-26.527 19.241-45.417 19.24-18.891 45.067-18.891h282.769q12.854 0 24.504 4.616 11.649 4.615 21.496 14.461l123.844 123.844q9.846 9.847 14.461 21.496 4.616 11.65 4.616 24.504v104.925q0 13.665-9.239 22.91-9.239 9.244-22.896 9.244H244.447q-13.657 0-23.051-9.244-9.395-9.245-9.395-22.91v-229.538Zm201.845 409.69q-11.05 0-18.525-7.418-7.475-7.418-7.475-18.384 0-10.966 7.475-18.581t18.525-7.615h132.308q11.05 0 18.525 7.418 7.475 7.418 7.475 18.384 0 10.966-7.475 18.581t-18.525 7.615H413.846Zm280.307 0q-11.05 0-18.525-7.418-7.474-7.418-7.474-18.384 0-10.966 7.474-18.581 7.475-7.615 18.525-7.615h132.308q11.05 0 18.525 7.418 7.475 7.418 7.475 18.384 0 10.966-7.475 18.581t-18.525 7.615H694.153Zm-560.614 0q-11.05 0-18.525-7.418-7.475-7.418-7.475-18.384 0-10.966 7.475-18.581t18.525-7.615h132.308q11.05 0 18.525 7.418 7.474 7.418 7.474 18.384 0 10.966-7.474 18.581-7.475 7.615-18.525 7.615H133.539Z"/></svg>