<svg xmlns="http://www.w3.org/2000/svg" height="20" viewBox="0 -960 960 960" width="20"><path d="M166.198-250.001q-10.966 0-18.581-7.475-7.616-7.474-7.616-18.524v-408q0-11.05 7.419-18.524 7.418-7.475 18.384-7.475 10.966 0 18.581 7.475Q192-695.05 192-684v408q0 11.05-7.418 18.524-7.418 7.475-18.384 7.475Zm205.031-204 96.308 97.309q7.923 7.59 8.116 18.218.192 10.628-8.116 19.029-7.922 7.829-17.691 7.829-9.769 0-18.077-8.308L294-457.693q-4.615-5.015-6.923-10.597-2.307-5.582-2.307-11.961 0-6.38 2.307-11.91 2.308-5.531 6.923-10.146l136.385-136.769q8.179-8.308 18.32-8.308 10.14 0 18.381 8.241 7.99 7.989 8.874 17.758.885 9.769-7.423 18.077l-96.924 97.309h422.411q11.039 0 18.507 7.418 7.468 7.418 7.468 18.384 0 10.966-7.468 18.581t-18.507 7.615H371.229Z"/></svg>