<svg xmlns="http://www.w3.org/2000/svg" height="20" viewBox="0 -960 960 960" width="20"><path d="M479.955-394.001q40.814 0 69.429-28.57 28.615-28.57 28.615-69.384t-28.57-69.429q-28.57-28.615-69.384-28.615t-69.429 28.57q-28.615 28.57-28.615 69.384t28.57 69.429q28.57 28.615 69.384 28.615Zm-1.109 56.462q-51 0-100 15.27-49 15.269-91.231 43.808-10.461 6.615-17.038 16.692Q264-251.693 264-239.231v14.769q0 3.846 2.885 6.154t7.116 2.308h411.998q4.231 0 7.116-2.5t2.885-6.347v-14.384q0-12.093-7.077-22.046-7.077-9.954-16.538-17.569-42.616-30.539-92.243-44.616-49.628-14.077-101.296-14.077ZM276.025-164.001q-26.543 0-45.283-18.891-18.741-18.89-18.741-45.417v-329.537q0-15.022 6.683-28.462 6.683-13.441 19.24-23.383l203.692-153.154q17.953-12.461 38.322-12.461 20.369 0 38.446 12.461l203.692 153.154q12.557 9.942 19.24 23.383 6.683 13.44 6.683 28.462v329.537q0 26.527-18.903 45.417-18.902 18.891-45.445 18.891H276.025Z"/></svg>