<svg xmlns="http://www.w3.org/2000/svg" height="20" viewBox="0 -960 960 960" width="20"><path d="M525.692-298.001q27.008 0 45.657-18.65 18.65-18.649 18.65-45.657v-79.384q0-27.008-18.65-45.657-18.649-18.65-45.657-18.65H421.999v-104.002H564q11.069 0 18.534-7.404 7.465-7.405 7.465-18.384 0-10.98-7.465-18.595-7.465-7.615-18.534-7.615H402.154q-13.761 0-22.957 9.196-9.196 9.196-9.196 22.957v143.692q0 13.761 9.196 22.957 9.196 9.196 22.957 9.196h123.538q5.385 0 8.847 3.462 3.462 3.462 3.462 8.847v79.384q0 5.385-3.462 8.847-3.462 3.462-8.847 3.462H396q-11.069 0-18.534 7.404-7.465 7.405-7.465 18.384 0 10.98 7.465 18.595 7.465 7.615 18.534 7.615h129.692Zm-297.383 134q-27.008 0-45.658-18.65-18.65-18.65-18.65-45.658v-503.382q0-27.008 18.65-45.658 18.65-18.65 45.658-18.65h503.382q27.008 0 45.658 18.65 18.65 18.65 18.65 45.658v503.382q0 27.008-18.65 45.658-18.65 18.65-45.658 18.65H228.309Z"/></svg>