<svg xmlns="http://www.w3.org/2000/svg" height="20" viewBox="0 -960 960 960" width="20"><path d="M454.001-454.001V-324q0 11.05 7.418 18.524 7.418 7.475 18.384 7.475 10.966 0 18.581-7.475 7.615-7.474 7.615-18.524v-130.001H636q11.05 0 18.524-7.418 7.475-7.418 7.475-18.384 0-10.966-7.475-18.581-7.474-7.615-18.524-7.615H505.999V-636q0-11.05-7.418-18.524-7.418-7.475-18.384-7.475-10.966 0-18.581 7.475-7.615 7.474-7.615 18.524v130.001H324q-11.05 0-18.524 7.418-7.475 7.418-7.475 18.384 0 10.966 7.475 18.581 7.474 7.615 18.524 7.615h130.001Zm37.999 338q-76.85 0-145.199-28.42-68.35-28.42-119.65-77.372-51.3-48.952-81.225-115.128-29.925-66.176-29.925-141.82 0-75.643 28.42-142.204t78.21-115.874q49.791-49.314 115.941-78.247t141.361-28.933q76.836 0 143.043 30.11 66.207 30.109 115.182 81.724 48.975 51.616 77.408 120.328T843.999-465v284.691q0 26.527-18.891 45.417-18.89 18.891-45.417 18.891H492ZM480-168q130 0 221-91t91-221q0-130-91-221t-221-91q-130 0-221 91t-91 221q0 130 91 221t221 91Zm0-312Z"/></svg>