<svg xmlns="http://www.w3.org/2000/svg" height="20" viewBox="0 -960 960 960" width="20"><path d="M167.079-371.96v-215.757q0-11.033 7.418-18.658 7.418-7.624 18.384-7.624 10.966 0 18.581 7.475 7.615 7.474 7.615 18.524v190.001h94.001q11.05 0 18.524 7.418 7.475 7.418 7.475 18.384 0 10.966-7.475 18.581-7.474 7.615-18.524 7.615h-120q-11.05 0-18.525-7.463-7.474-7.463-7.474-18.496Zm267.537-190.041h-58q-11.05 0-18.525-7.418-7.475-7.418-7.475-18.384 0-10.966 7.475-18.581t18.525-7.615h168q11.049 0 18.524 7.418 7.475 7.418 7.475 18.384 0 10.966-7.475 18.581t-18.524 7.615h-58.001v189.725q0 11.026-7.418 18.65-7.418 7.625-18.384 7.625-10.966 0-18.581-7.475-7.616-7.474-7.616-18.524v-190.001ZM634.001-371.96v-215.757q0-11.033 7.475-18.658 7.474-7.624 18.524-7.624h120q11.05 0 18.524 7.418 7.475 7.418 7.475 18.384 0 10.966-7.475 18.581-7.474 7.615-18.524 7.615h-94.001v56.002H780q11.05 0 18.524 7.418 7.475 7.418 7.475 18.384 0 10.966-7.475 18.581-7.474 7.615-18.524 7.615h-94.001v56.002H780q11.05 0 18.524 7.418 7.475 7.418 7.475 18.384 0 10.966-7.475 18.581-7.474 7.615-18.524 7.615H660q-11.05 0-18.524-7.463-7.475-7.463-7.475-18.496Z"/></svg>