<svg xmlns="http://www.w3.org/2000/svg" height="20" viewBox="0 -960 960 960" width="20"><path d="M116.001-272.462v-16.154q0-23.307 10.962-40.384 10.961-17.076 30.653-28.538 53.847-30.846 108.692-46.5Q321.154-419.691 384-419.691q9.461 0 18.192.5t18.962.73q-16.231 41.153-10.577 100.922 5.654 59.769 29.653 97.845H168.769q-22.307 0-37.537-15.231-15.231-15.23-15.231-37.537Zm548.306-10.001q28.462 0 48.308-19.846t19.846-48.307q0-28.462-19.846-48.308t-48.308-19.846q-28.461 0-48.307 19.846-19.846 19.846-19.846 48.308 0 28.461 19.846 48.307 19.846 19.846 48.307 19.846ZM384-492.309q-51.922 0-87.961-36.038-36.038-36.038-36.038-87.96 0-51.923 36.038-87.961 36.039-36.038 87.961-36.038t87.961 36.038q36.038 36.038 36.038 87.961 0 51.922-36.038 87.96-36.039 36.038-87.961 36.038Zm256.154 294.076-5.846-32.923q-16.308-4.231-30.923-12.577-14.616-8.346-26-19.654l-32.77 11.923q-7.538 2.231-13.384-.423t-8.922-8.577l-5.308-8.384q-3.077-5.538-2.654-12.192.423-6.653 5.346-11.961l25.923-23q-6.307-15.538-5.807-33.615.5-18.078 5.807-33.616l-24.538-22.769q-4.923-5.308-6.038-11.462-1.116-6.153 1.961-12.691l4.923-8q3.077-6.923 9.807-9.577 6.731-2.653 14.269-.423l30.385 10.924q11-12.308 26.308-20.962 15.307-8.654 31.615-11.885l5.846-33.538q.846-7.154 6.962-11.346 6.115-4.192 13.268-4.192h8.615q7.154 0 13.269 4 6.115 3.999 6.961 11.153l5.462 33.923q16.308 4.231 31.615 12.193 15.308 7.961 26.308 19.884l32.154-10.923q7.154-1.846 12.807 1.308 5.654 3.154 8.731 8.692l5.692 8.384q3.077 5.538 1.961 12-1.115 6.461-6.038 11.768l-23.539 21.77q4.308 17.307 4.308 35 0 17.692-5.308 34l24.924 22q4.923 5.308 5.846 12.154t-2.154 12.384l-4.923 7.999q-3.077 5.923-9.115 8.577t-13.576.423l-32.77-10.923q-11.384 11.308-26 20.154-14.615 8.846-30.923 12.077l-6.462 33.538q-.846 7.154-6.461 11.346t-12.769 4.192h-9.615q-7.153 0-12.768-4.5-5.616-4.499-6.462-11.653Z"/></svg>