<svg xmlns="http://www.w3.org/2000/svg" height="20" viewBox="0 -960 960 960" width="20"><path d="M276-394.001h264q11.05 0 18.524-7.418 7.475-7.418 7.475-18.384 0-10.966-7.475-18.581-7.474-7.615-18.524-7.615H276q-11.05 0-18.524 7.418-7.475 7.418-7.475 18.384 0 10.966 7.475 18.581 7.474 7.615 18.524 7.615Zm0-132h408q11.05 0 18.524-7.418 7.475-7.418 7.475-18.384 0-10.966-7.475-18.581-7.474-7.615-18.524-7.615H276q-11.05 0-18.524 7.418-7.475 7.418-7.475 18.384 0 10.966 7.475 18.581 7.474 7.615 18.524 7.615Zm.333-132h368.511v1.539q-17.845-10.616-31.037-23.615-13.192-13-23.653-29.922H276q-11.05 0-18.524 7.418-7.475 7.418-7.475 18.384 0 10.966 7.57 18.581 7.571 7.615 18.762 7.615Zm-34.794 398-70.959 70.958q-15.194 15.194-34.886 6.882-19.693-8.312-19.693-29.687v-567.843q0-26.308 18.65-45.308t45.658-19h384.692q-2.231 13-2.423 25.807-.193 12.808.884 26.192H180.309q-4.616 0-8.463 3.846-3.846 3.847-3.846 8.463v520.076L220.001-312h559.69q4.616 0 8.463-3.846 3.846-3.847 3.846-8.463v-308.844q12.23-3.846 26.538-11.346 14.307-7.5 25.461-14.269v334.641q0 26.826-19 45.476t-45.308 18.65H241.539Zm502.506-438.768q-45.814 0-77.929-32.07-32.115-32.069-32.115-77.884 0-45.814 32.07-77.929t77.884-32.115q45.814 0 77.929 32.07t32.115 77.884q0 45.814-32.07 77.929t-77.884 32.115ZM168-779.691v495.385V-792v12.309Z"/></svg>