<svg xmlns="http://www.w3.org/2000/svg" height="20" viewBox="0 -960 960 960" width="20"><path d="m241.539-260.001-70.959 70.958q-15.194 15.194-34.886 6.942-19.693-8.252-19.693-29.747v-567.843q0-26.308 18.65-45.308t45.658-19h384.692q-2.231 13-2.423 25.807-.193 12.808.884 26.192H180.309q-4.616 0-8.463 3.846-3.846 3.847-3.846 8.463v520.076L220.001-312h559.69q4.616 0 8.463-3.846 3.846-3.847 3.846-8.463v-308.844q12.23-3.846 26.538-11.346 14.307-7.5 25.461-14.269v334.459q0 27.008-19 45.658-19 18.65-45.308 18.65H241.539ZM744-698.769q-45.769 0-77.884-32.115t-32.115-77.884q0-45.769 32.115-77.884T744-918.767q45.769 0 77.884 32.115t32.115 77.884q0 45.769-32.115 77.884T744-698.769Zm-576-80.922v495.385V-792v12.309Z"/></svg>