<svg xmlns="http://www.w3.org/2000/svg" height="20" viewBox="0 -960 960 960" width="20"><path d="M180.309-212.001q-26.923 0-45.615-18.693-18.693-18.692-18.693-45.615v-407.382q0-26.923 18.693-45.615 18.692-18.693 45.615-18.693h599.382q26.923 0 45.615 18.693 18.693 18.692 18.693 45.615v219.539l-179.615 177.23-40.385-39.385q-18.692-18.692-45.23-18.692-26.539 0-45.231 18.692l-58.461 60.461q-14.692 14.692-14.692 33.461t14.692 33.461l-13.078-13.077h-281.69ZM480-517 213.384-673.616q-14.384-7.923-27.769-.385-13.384 7.538-14.538 22.769-1.538 8.461 3 16.192t11.384 11.961l278.078 164.155q7.23 4.615 16.461 4.615 9.231 0 16.461-4.615l279.078-164.155q6.846-4.23 10.884-12.153t2.5-16.385q-1.154-15.23-14.538-22.576-13.385-7.346-27.769.577L480-517Zm184.769 332.078 169.692-168.693q8.308-8.307 17.885-8.5 9.576-.192 18.268 8.5t8.692 18.576q0 9.885-8.692 18.577L688.076-133.924q-9.846 9.846-22.807 9.846-12.962 0-22.808-9.846l-80.769-80.769q-8.307-8.307-8.5-17.884-.192-9.577 8.5-18.269 8.692-8.692 18.577-8.692 9.884 0 18.576 8.692l65.924 65.924Z"/></svg>