<svg xmlns="http://www.w3.org/2000/svg" height="20" viewBox="0 -960 960 960" width="20"><path d="M180.309-116.001q-26.308 0-45.308-19t-19-45.308v-359.382q0-27.008 19-45.658 19-18.65 45.803-18.65h71.505v-207.846q0-13.665 9.266-22.909 9.266-9.245 22.963-9.245h193.379q13.697 0 23.043 9.219t9.346 22.847v71.825q0 13.628-9.244 22.872-9.244 9.245-22.909 9.245H304.307v235.845q0 16.934 11.376 28.54Q327.059-432 343.876-432q16.816 0 28.47-11.456T384-471.846v-132.153h395.691q26.308 0 45.308 18.65t19 45.658v359.382q0 26.308-19 45.308t-45.308 19H180.309Z"/></svg>