<svg xmlns="http://www.w3.org/2000/svg" height="20" viewBox="0 -960 960 960" width="20"><path d="M744-618.615q-45.769 0-77.884-32.115t-32.115-77.884q0-45.769 32.115-77.884 32.115-32.116 77.884-32.116t77.884 32.116q32.115 32.115 32.115 77.884t-32.115 77.884Q789.769-618.615 744-618.615ZM180.309-212.001q-27.008 0-45.658-18.662-18.65-18.662-18.65-45.686v-407.626q0-27.024 18.65-45.524t45.658-18.5h381.922q-.846 12-.038 24.807.808 12.808 4.269 27.192 4.308 26.231 17.307 51.538 13 25.308 33.692 45.693L480-517 213.384-673.616q-14.384-7.923-27.769-.568-13.384 7.354-14.538 23.217-1.538 8.196 3 15.927t11.384 11.961l278.078 164.155q7.23 4.615 16.461 4.615 9.231 0 16.461-4.615l182.307-107.154q11.308 8.155 28.597 13.809 17.288 5.654 36.635 5.654 26.23 0 48.038-7 21.807-7 51.961-24.999v302.305q0 26.308-18.65 45.308t-45.658 19H180.309Z"/></svg>