<svg xmlns="http://www.w3.org/2000/svg" height="20" viewBox="0 -960 960 960" width="20"><path d="M552-667.693h96q7.733 0 12.789-5.051 5.057-5.051 5.057-12.777 0-7.725-5.057-12.794-5.056-5.069-12.789-5.069h-96q-7.733 0-12.789 5.051-5.057 5.051-5.057 12.777 0 7.725 5.057 12.794 5.056 5.069 12.789 5.069ZM132.309-69.925q-26.527 0-45.417-18.89t-18.89-45.417V-461q0-26.527 18.89-45.417t45.417-18.89h455.382q26.527 0 45.417 18.89 18.891 18.89 18.891 45.417v326.768q0 26.527-18.891 45.417-18.89 18.89-45.417 18.89H132.309Zm575.382-356.153v-35.128q0-47.333-27.538-81.718-27.539-34.384-73.462-38.307H684q42.436 0 72.141-31 29.705-31 29.705-73.398 0-42.398-29.705-72.077-29.705-29.678-72.141-29.678h-36q-7.733 0-12.789 5.051-5.057 5.051-5.057 12.777 0 7.725 5.057 12.794 5.056 5.069 12.789 5.069h36q27.564 0 46.859 19.322 19.295 19.321 19.295 46.923t-19.295 46.833Q711.564-619.384 684-619.384h-36q-7.733 0-12.789 5.056-5.057 5.056-5.057 12.789 0 7.308 5.269 13.808 5.27 6.5 12.577 6.5h-25.154q-6.077 0-17.898.115-11.82.116-17.257.116h-17.845v-20.539q0-7.733-5.057-12.789-5.056-5.056-12.789-5.056h-36q-27.564 0-46.859-19.322-19.295-19.321-19.295-46.923t19.295-46.833q19.295-19.231 46.859-19.231h36q7.733 0 12.789-5.051 5.057-5.051 5.057-12.777 0-7.725-5.057-12.794-5.056-5.069-12.789-5.069h-36q-42.436 0-72.141 29.705-29.705 29.705-29.705 72.14 0 43.846 31.5 74.77 31.5 30.923 76.5 29.769H308.001v-244.768q0-26.527 18.891-45.417 18.89-18.89 45.417-18.89h455.382q26.527 0 45.417 18.89 18.891 18.89 18.891 45.417v335.383q0 26.526-18.891 45.417-18.89 18.89-45.417 18.89h-120ZM420.769-284.155q6.846-4.78 6.846-13.543 0-8.764-6.846-13.38l-102.846-65.23q-8.263-5.616-16.593-.723T293-361.847v128.462q0 10.29 8.33 15.183 8.33 4.893 16.593-.722l102.846-65.231Z"/></svg>