<svg xmlns="http://www.w3.org/2000/svg" height="20" viewBox="0 -960 960 960" width="20"><path d="M480-116.001q-111.538 0-189.768-78.231-78.231-78.23-78.231-189.768 0-81.461 46.038-171.191t128.037-164.345q24.308-22.231 49.5-13.846 25.192 8.384 25.192 36.922v7.922q0 32.693 27.346 58.116 27.347 25.423 63.886 25.423 15.769 0 29.923-4.423 14.154-4.423 24.077-13.269 10-10.076 23.962-10.923 13.961-.846 23.423 8.385 43.768 43.308 69.191 108.192Q747.999-452.153 747.999-384q0 111.538-78.231 189.768-78.23 78.231-189.768 78.231ZM264-384q0 53.462 26.385 99.539 26.385 46.078 74.925 78.001-4.462-9.462-6.885-18.886-2.424-9.423-2.424-17.654 0-20.769 8.154-41.307 8.154-20.538 23.077-37.461L480-427.921l93.153 106.153q14.923 16.923 22.884 37.461 7.962 20.538 7.962 41.307 0 9.231-2.424 18.654-2.423 9.424-6.885 18.886 46.54-25.923 73.925-74.001Q696-327.538 696-384q0-53-17.5-102T628-576q-17 11-36.5 17t-39.5 6q-52.385 0-91.885-32-39.5-32-49.115-83.769-72 66.615-109.5 139.192Q264-457 264-384Zm216 36-53 60q-9 11-14 23t-5 25q0 30 21 51t51 21q30 0 51-21t21-51q0-13-4.5-25T533-288l-53-60Z"/></svg>