<svg xmlns="http://www.w3.org/2000/svg" height="20" viewBox="0 -960 960 960" width="20"><path d="M228.309-747.999 290.308-624h96l-61.999-123.999h72L458.308-624h96l-61.999-123.999h72L626.308-624h96l-61.999-123.999h119.382q27.008 0 45.658 19 18.65 19 18.65 45.308v407.382q0 26.308-18.65 45.308t-45.658 19H180.309q-26.308 0-45.308-19t-19-45.308v-407.382q0-26.308 18-45.308t46.308-19h48ZM168-572.001v295.692q0 5.385 3.462 8.847 3.462 3.462 8.847 3.462h599.382q5.385 0 8.847-3.462 3.462-3.462 3.462-8.847v-295.692H168Zm0 0V-264-572.001Z"/></svg>