<svg xmlns="http://www.w3.org/2000/svg" height="20" viewBox="0 -960 960 960" width="20"><path d="M556.615-209.463q-17.308 20.308-43.038 23.038-25.731 2.731-46.038-14.576l-157-132.923q-22.23-19.615-39.846-42.846-17.615-23.231-27.077-50.846-9.23 16.769-24.653 26.346-15.423 9.577-34.039 9.577h-63.538v-309.844h63.538q31.231 0 49.308 25.654 18.077 25.654 16.153 58.654 27.385-61 85.077-95.116 57.692-34.115 124.769-34.115 41.538 0 80.153 13.846 38.615 13.846 70.307 40.538l157 131.923q20.307 18.077 22.615 43.615t-14.769 45.845l-218.922 261.23Z"/></svg>