<svg xmlns="http://www.w3.org/2000/svg" height="20" viewBox="0 -960 960 960" width="20"><path d="M480.276-116.001q-75.43 0-141.775-28.27-66.346-28.269-116.154-78.076-49.807-49.808-78.076-116.112-28.27-66.304-28.27-141.999 0-75.696 28.27-141.541 28.269-65.846 78.076-115.654 49.808-49.807 116.112-78.076 66.304-28.27 141.999-28.27 75.696 0 141.541 28.27 65.846 28.269 115.654 78.076 49.807 49.808 78.076 115.878 28.27 66.07 28.27 141.499 0 75.43-28.27 141.775-28.269 66.346-78.076 116.154-49.808 49.807-115.878 78.076-66.07 28.27-141.499 28.27ZM480-168q57.97 0 108.947-19.923 50.977-19.923 91.746-54.616L563.232-360h73.921l80.693 80.693q34.692-41.142 54.423-92T792-480q0-129.675-91.162-220.838Q609.675-792 480-792q-57.835 0-108.693 19.731t-92 54.808L396.384-600h-73.537l-80.693-80.693q-34.692 41.142-54.423 92T168-480q0 129.675 91.163 220.837Q350.325-168 480-168ZM247.693-411.846 293-480l-45.307-68.154h38.384L312-509.461l25.923-38.693h38.384L331.384-480l44.923 68.154h-38.384L312-450.539l-25.923 38.693h-38.384Zm168 0L461-480l-45.307-68.154h38.384L480-509.461l25.923-38.693h38.384L499.384-480l44.923 68.154h-38.384L480-450.539l-25.923 38.693h-38.384Zm180 0L641-480l-45.307-68.154h38.384L660-509.461l25.923-38.693h38.384L679.384-480l44.923 68.154h-38.384L660-450.539l-25.923 38.693h-38.384Z"/></svg>