<svg xmlns="http://www.w3.org/2000/svg" height="20" viewBox="0 -960 960 960" width="20"><path d="M843.999-216.848 792-268.846v-366.845q0-5.385-3.462-8.847-3.462-3.462-8.847-3.462H636.769l-72.483-96H395.615l-33.384 45.385-37.768-37.769 24.307-33.307q9.846-12.846 23.485-19.577 13.638-6.731 28.745-6.731h158.181q15.28 0 28.741 6.731 13.462 6.731 23.308 19.577l52.308 69.692h116.153q27.008 0 45.658 19 18.65 19 18.65 45.308v418.843Zm-663.69 52.847q-26.308 0-45.308-19t-19-45.308v-407.382q0-26.308 19-45.308t45.308-19h79.308L311.615-648H180.309q-5.385 0-8.847 3.462-3.462 3.462-3.462 8.847v407.382q0 5.385 3.462 8.847 3.462 3.462 8.847 3.462h563.306l51.999 51.999H180.309ZM609.845-349.77q-19.692 32.077-53.499 51.231-33.808 19.153-76.346 19.153-65.846 0-109.23-44.384T327.386-432q0-40.538 18.653-74.846 18.654-34.307 51.731-54.999l38.384 38.383q-26.385 11.385-41.577 35.653-15.193 24.268-15.193 54.809 0 43.048 28.154 72.332 28.154 29.284 72.462 29.284 32.154 0 56.116-15.693 23.961-15.692 35.346-41.077l38.383 38.384Zm-21.366-189.812q20.289 20.044 31.635 46.082T632.23-437v3.884q0 1.192-.616 3.884L477.232-583.614q2.692-.616 3.884-.616H485q30.901.77 57.321 12.405 26.419 11.636 46.158 32.243ZM796.28-90.429 98.646-788.418q-8.26-8.275-7.952-18.044.307-9.769 8.615-18.076 8.307-8.308 17.884-8.308t18.221 8.645l697.634 697.634q8.26 8.26 8.452 18.403.193 10.143-8.115 18.087-7.974 8.307-18.217 8.307-10.244 0-18.888-8.66ZM455.079-432Zm121.536-52.231Z"/></svg>