<svg xmlns="http://www.w3.org/2000/svg" height="20" viewBox="0 -960 960 960" width="20"><path d="m187.308-127.693 54.462-236.768q1.588-5.793 6.442-9.589 4.854-3.796 11.033-3.796 7.864 0 12.848 6.692 4.983 6.693 3.368 15L221-119.385q-1.589 5.792-6.443 9.588-4.854 3.796-11.033 3.796-7.864 0-12.847-6.692-4.984-6.692-3.369-15Zm129.077-8.614 87.693-452.617-102.079 43.385V-468q0 11.05-7.418 18.524-7.418 7.475-18.384 7.475-10.966 0-18.581-7.475-7.615-7.474-7.615-18.524v-90.154q0-9.886 5.568-17.713 5.568-7.826 14.489-11.995l155.327-64.983q32.23-13.616 63.269-5.039 31.038 8.577 50.884 41.269L554.153-591q18.154 30.539 45.154 58.385 27 27.846 84.308 36.616 10.769 1.615 18.577 9.143 7.807 7.527 7.807 18.192 0 10.664-7.333 17.779t-17.435 5.5q-49.154-7-90.454-35.295-41.301-28.294-70.777-74.63l-28.77 150.387 61 61.119q4.539 4.804 7.154 10.552 2.615 5.747 2.615 12.945V-132q0 11.05-7.418 18.524-7.418 7.475-18.384 7.475-10.966 0-18.581-7.475-7.615-7.474-7.615-18.524v-180.462l-92.155-91.77-54.893 277.653q-1.55 9.122-8.819 14.85-7.269 5.728-16.749 5.728-12.378 0-19.804-9.153-7.426-9.154-5.196-21.153Zm211.367-565.847q-32.213 0-54.906-22.94-22.692-22.94-22.692-55.154 0-32.213 22.94-54.906 22.94-22.692 55.154-22.692 32.213 0 54.906 22.94 22.692 22.94 22.692 55.154 0 32.213-22.94 54.906-22.94 22.692-55.154 22.692Zm150.402 578.343v-235.804q0-7.718 5.052-12.974 5.051-5.257 12.776-5.257 7.726 0 12.795 5.047 5.069 5.046 5.069 12.764v235.804q0 7.718-5.052 12.974-5.051 5.256-12.776 5.256-7.726 0-12.795-5.046t-5.069-12.764Z"/></svg>