<svg xmlns="http://www.w3.org/2000/svg" height="20" viewBox="0 -960 960 960" width="20"><path d="M212.001-228.202v-268.184l-45.584 35.682q-8.724 6.473-19.493 4.857-10.769-1.615-17.461-10.153-6.692-8.539-5.461-19.307 1.231-10.769 9.86-17.444L440.616-737.46q8.846-7.231 19.192-9.846T480-749.921q9.846 0 20 2.615t19 9.846l306.784 234.709q8.599 6.675 10.022 17.444 1.423 10.768-5.269 19.751-6.692 8.478-17.395 10.094-10.702 1.615-19.758-5.077l-45.385-35.847v268.184q0 26.579-18.854 45.39-18.855 18.811-45.494 18.811H276.025q-26.639 0-45.331-18.811-18.693-18.811-18.693-45.39ZM276.309-216h407.382q5.385 0 8.847-3.462 3.462-3.462 3.462-8.847v-308.025L487.308-695.23q-3.077-2.693-7.308-2.693t-7.308 2.693L264-537v308.691q0 5.385 3.462 8.847 3.462 3.462 8.847 3.462Zm59.48-148.616q12.903 0 22.249-9.135 9.346-9.136 9.346-22.038 0-12.903-9.135-22.249-9.136-9.346-22.038-9.346-12.903 0-22.249 9.135-9.346 9.136-9.346 22.038 0 12.903 9.135 22.249 9.136 9.346 22.038 9.346Zm144 0q12.903 0 22.249-9.135 9.346-9.136 9.346-22.038 0-12.903-9.135-22.249-9.136-9.346-22.038-9.346-12.903 0-22.249 9.135-9.346 9.136-9.346 22.038 0 12.903 9.135 22.249 9.136 9.346 22.038 9.346Zm144 0q12.903 0 22.249-9.135 9.346-9.136 9.346-22.038 0-12.903-9.135-22.249-9.136-9.346-22.038-9.346-12.903 0-22.249 9.135-9.346 9.136-9.346 22.038 0 12.903 9.135 22.249 9.136 9.346 22.038 9.346ZM276.309-216H264h432H276.309Z"/></svg>