<svg xmlns="http://www.w3.org/2000/svg" height="20" viewBox="0 -960 960 960" width="20"><path d="m430.77-353.386 166.229-105.922q11.846-7.497 11.846-20.825t-11.846-20.559L430.77-606.614q-12.462-7.231-24.616-.45-12.153 6.782-12.153 21.142v211.844q0 14.36 12.153 21.142 12.154 6.781 24.616-.45Zm49.573 237.385q-75.112 0-141.48-28.42-66.369-28.42-116.182-78.21-49.814-49.791-78.247-116.087t-28.433-141.673q0-75.378 28.42-141.246 28.42-65.869 78.21-115.682 49.791-49.814 116.087-78.247t141.673-28.433q75.378 0 141.246 28.42 65.869 28.42 115.682 78.21 49.814 49.791 78.247 115.853t28.433 141.173q0 75.112-28.42 141.48-28.42 66.369-78.21 116.182-49.791 49.814-115.853 78.247t-141.173 28.433Z"/></svg>