<svg xmlns="http://www.w3.org/2000/svg" height="20" viewBox="0 -960 960 960" width="20"><path d="M216-261.307q56-46 124-68.5t140-22.5q72 0 140 22t124 69v-470.384q0-4.616-3.846-8.463-3.847-3.846-8.463-3.846H228.309q-4.616 0-8.463 3.846-3.846 3.847-3.846 8.463v470.384Zm264.242-145.154q55.912 0 94.834-39.166 38.923-39.165 38.923-95.076 0-55.911-39.165-94.834t-95.076-38.923q-55.912 0-94.834 39.165-38.923 39.166-38.923 95.077t39.165 94.834q39.165 38.923 95.076 38.923Zm-251.933 242.46q-27.008 0-45.658-18.65-18.65-18.65-18.65-45.658v-503.382q0-27.008 18.65-45.658 18.65-18.65 45.658-18.65h503.382q27.008 0 45.658 18.65 18.65 18.65 18.65 45.658v503.382q0 27.008-18.65 45.658-18.65 18.65-45.658 18.65H228.309ZM242.691-216h474.618V-214.461q-51.385-42.309-111.962-64.078-60.577-21.77-125.347-21.77-64 0-124.27 21.578-60.27 21.577-113.039 63.5V-216ZM480-458.46q-33.846 0-57.924-24.077-24.077-24.077-24.077-57.924 0-33.846 24.077-57.923 24.078-24.077 57.924-24.077 33.846 0 57.924 24.077 24.077 24.077 24.077 57.923 0 33.847-24.077 57.924Q513.846-458.46 480-458.46Zm0-89.694Z"/></svg>