<svg xmlns="http://www.w3.org/2000/svg" height="20" viewBox="0 -960 960 960" width="20"><path d="M189.767-394.001q-10.516 0-18.141-7.418-7.625-7.418-7.625-18.384 0-10.966 7.475-18.581t18.525-7.615h105.387q10.516 0 18.141 7.418 7.625 7.418 7.625 18.384 0 10.966-7.475 18.581t-18.524 7.615H189.767Zm236.845 0q-10.516 0-18.14-7.418-7.625-7.418-7.625-18.384 0-10.966 7.475-18.581 7.474-7.615 18.524-7.615h106.542q10.516 0 18.14 7.418 7.625 7.418 7.625 18.384 0 10.966-7.475 18.581-7.474 7.615-18.524 7.615H426.612Zm238 0q-10.516 0-18.141-7.418-7.625-7.418-7.625-18.384 0-10.966 7.475-18.581t18.524-7.615h105.388q10.516 0 18.141 7.418 7.625 7.418 7.625 18.384 0 10.966-7.475 18.581t-18.525 7.615H664.612Zm-474.611-144q-10.75 0-18.375-7.418t-7.625-18.384q0-10.966 7.475-18.581t18.525-7.615h579.998q10.75 0 18.375 7.418t7.625 18.384q0 10.966-7.475 18.581t-18.525 7.615H190.001Z"/></svg>