<svg xmlns="http://www.w3.org/2000/svg" height="20" viewBox="0 -960 960 960" width="20"><path d="M368.32-212.001h-91.753q-26.633 0-45.6-18.966-18.966-18.967-18.966-45.6v-91.753l-66.307-66.065q-10.231-9.846-14.461-21.61-4.231-11.764-4.231-23.933 0-12.17 4.231-24.005 4.23-11.836 14.461-21.682l66.307-66.065v-91.753q0-26.634 18.966-45.6 18.967-18.966 45.6-18.966h91.753l66.065-66.307q9.846-10.231 21.61-14.461 11.764-4.231 23.933-4.231 12.17 0 24.005 4.231 11.836 4.23 21.682 14.461l66.065 66.307h91.753q26.634 0 45.6 18.966t18.966 45.6v91.753l66.307 66.065q10.231 9.846 14.461 21.61 4.231 11.764 4.231 23.933 0 12.17-4.231 24.005-4.23 11.836-14.461 21.682l-66.307 66.065v91.753q0 26.633-18.966 45.6-18.966 18.966-45.6 18.966H591.68l-66.065 66.307q-9.846 10.231-21.61 14.461-11.764 4.231-23.933 4.231-12.17 0-24.005-4.231-11.836-4.23-21.682-14.461l-66.065-66.307Zm149.603-290.46L568.307-539l49.384 36.539-19.076-59 50.384-35.154h-62.615l-18.077-59.999-18.918 59.999h-62.774L537-561.461l-19.077 59Zm-37.806 199.075q73.344 0 124.921-51.268 51.576-51.268 51.576-125.519 0-7.071-.5-14.143-.5-7.071-2.5-13.991-9.766 41.576-43.503 68.557-33.736 26.98-78.017 26.98-52.094 0-89.017-36.19-36.923-36.191-36.923-88.655 0-41.923 23.769-74.038 23.77-32.115 60.308-44.961h-10.158q-74.209 0-125.448 51.718-51.239 51.718-51.239 125.095 0 74.262 51.252 125.339 51.252 51.076 125.479 51.076Z"/></svg>