<svg xmlns="http://www.w3.org/2000/svg" height="20" viewBox="0 -960 960 960" width="20"><path d="M164.001-560.113v-203.449q0-13.648 9.233-23.042 9.233-9.395 22.881-9.395h203.449q13.648 0 23.042 9.233Q432-777.533 432-763.885v203.449q0 13.648-9.233 23.042-9.232 9.394-22.88 9.394H196.438q-13.648 0-23.042-9.233-9.395-9.232-9.395-22.88ZM216-579.999h164.001V-744H216v164.001Zm-51.999 383.884v-203.449q0-13.648 9.233-23.042Q182.467-432 196.115-432h203.449q13.648 0 23.042 9.233 9.394 9.232 9.394 22.88v203.449q0 13.648-9.233 23.042-9.232 9.395-22.88 9.395H196.438q-13.648 0-23.042-9.233-9.395-9.233-9.395-22.881ZM216-216h164.001v-164.001H216V-216Zm312-344.113v-203.449q0-13.648 9.233-23.042 9.232-9.395 22.88-9.395h203.449q13.648 0 23.042 9.233 9.395 9.233 9.395 22.881v203.449q0 13.648-9.233 23.042Q777.533-528 763.885-528H560.436q-13.648 0-23.042-9.233-9.394-9.232-9.394-22.88Zm51.999-19.886H744V-744H579.999v164.001Zm149 415.998v-67h67v67h-67ZM528-365v-67h67v67h-67Zm67 66.999V-365h66.999v66.999H595Zm-67 67v-67h67v67h-67Zm67 67v-67h66.999v67H595Zm66.999-67v-67h67v67h-67Zm0-133.999v-67h67v67h-67Zm67 66.999V-365h67v66.999h-67Z"/></svg>