<svg xmlns="http://www.w3.org/2000/svg" height="20" viewBox="0 -960 960 960" width="20"><path d="M462.233-205.386H327.216q-7.447 31.384-34.831 52.691-27.384 21.308-60.999 21.308-41.666 0-70.833-29.166-29.166-29.167-29.166-70.833 0-33.615 21.308-60.999 21.307-27.384 52.691-35.996v-304.927q-32.384-6.923-53.191-34.807-20.808-27.884-20.808-60.499 0-42.666 29.166-71.333 29.167-28.666 70.833-28.666 33.615 0 60.499 20.808 26.884 20.807 35.807 53.191h134.541l-61.506-61.12q-8.496-8.015-7.996-18.332t8.631-18.625q8.869-8.307 19.112-8.307 10.244 0 18.218 8.307l100.633 101.537q9.982 10.078 9.982 22.722 0 12.643-9.846 22.125L438.076-604.922q-3.899 3.461-8.449 5.192-4.55 1.73-9.627 1.923-5.077.192-9.791-2.039-4.714-2.23-8.285-5.692-8.693-8.307-8.5-18.576.192-10.269 8.5-18.577l60.309-59.924H327.692q-7.461 26.692-25.538 43.769-18.077 17.077-44.769 25.538v305.616q25.692 9.461 43.769 27.038 18.077 17.577 26.538 43.269h134.156l-61.121-61.505q-8.111-8.015-7.611-18.332.5-10.317 8.329-18.24 8.401-8.308 19.029-8.115 10.628.192 18.218 8.115l100.633 101.537q9.982 10.078 9.982 22.721t-9.846 22.126L438.076-107.694q-3.899 3.461-8.449 5.192-4.55 1.731-9.819 1.923-5.269.193-9.876-2.038-4.607-2.231-8.093-5.692-8.223-7.923-7.838-18.577.384-10.653 8.307-18.576l59.925-59.924Zm266.472 73.999q-42.629 0-71.359-28.666-28.73-28.667-28.73-71.333 0-32.059 20.307-59.029 20.308-26.97 53.692-36.277v-306.76q-33.384-8.163-53.692-35.633-20.307-27.47-20.307-59.529 0-42.666 28.64-71.333 28.639-28.666 71.268-28.666 42.628 0 71.358 28.666 28.731 28.667 28.731 71.333 0 32.059-20.308 59.529-20.307 27.47-53.691 35.598v305.795q32.134 10.038 53.066 36.192 20.933 26.154 20.933 60.114 0 41.666-28.64 70.833-28.64 29.166-71.268 29.166Zm-497.319-51.999q20.4 0 34.2-13.8 13.8-13.8 13.8-34.2 0-20.4-13.8-34.2-13.8-13.8-34.2-13.8-20.4 0-34.2 13.8-13.8 13.8-13.8 34.2 0 20.4 13.8 34.2 13.8 13.8 34.2 13.8Zm497.228 0q20.4 0 34.2-13.8 13.8-13.8 13.8-34.2 0-20.4-13.8-34.2-13.8-13.8-34.2-13.8-20.4 0-34.2 13.8-13.8 13.8-13.8 34.2 0 20.4 13.8 34.2 13.8 13.8 34.2 13.8ZM231.386-680.614q20.4 0 34.2-13.8 13.8-13.8 13.8-34.2 0-20.4-13.8-34.2-13.8-13.8-34.2-13.8-20.4 0-34.2 13.8-13.8 13.8-13.8 34.2 0 20.4 13.8 34.2 13.8 13.8 34.2 13.8Zm497.228 0q20.4 0 34.2-13.8 13.8-13.8 13.8-34.2 0-20.4-13.8-34.2-13.8-13.8-34.2-13.8-20.4 0-34.2 13.8-13.8 13.8-13.8 34.2 0 20.4 13.8 34.2 13.8 13.8 34.2 13.8ZM231.386-231.386Zm497.228 0ZM231.386-728.614Zm497.228 0Z"/></svg>