<svg xmlns="http://www.w3.org/2000/svg" height="20" viewBox="0 -960 960 960" width="20"><path d="M139.232-212.001q-32.777 0-54.312-21.535-21.534-21.535-21.534-54.312v-384.304q0-32.777 21.534-54.312 21.535-21.535 54.312-21.535h384.304q32.778 0 54.312 21.535 21.535 21.535 21.535 54.312v384.304q0 32.777-21.535 54.312-21.534 21.535-54.312 21.535H139.232Zm-23.848-103.46q46-33.154 101-51.616 55-18.462 115-18.462t115 18.462q55 18.462 101 51.616v-356.691q0-10.001-6.923-16.924Q533.537-696 523.536-696H139.232q-10.001 0-16.924 6.924-6.924 6.923-6.924 16.924v356.691Zm216.212-122.693q-47.519 0-80.788-33.057t-33.269-80.577q0-47.519 33.057-80.789 33.057-33.269 80.576-33.269 47.52 0 80.789 33.057t33.269 80.577q0 47.519-33.057 80.789-33.057 33.269-80.577 33.269Zm390.6 226.153q-10.966 0-18.581-7.475T696-238.001v-483.998q0-11.05 7.418-18.525 7.418-7.475 18.384-7.475 10.966 0 18.581 7.475 7.616 7.475 7.616 18.525v483.998q0 11.05-7.419 18.525-7.418 7.475-18.384 7.475Zm148.616 0q-10.966 0-18.581-7.475t-7.615-18.525v-483.998q0-11.05 7.418-18.525 7.418-7.475 18.384-7.475 10.966 0 18.581 7.475t7.615 18.525v483.998q0 11.05-7.418 18.525-7.418 7.475-18.384 7.475Z"/></svg>