<svg xmlns="http://www.w3.org/2000/svg" height="20" viewBox="0 -960 960 960" width="20"><path d="M849.768-575q0 52.721-20.593 100.029t-55.345 85.188q-7.677 7.782-17.061 6.474-9.384-1.307-15.994-9.917-6.851-8.852-5.559-18.736 1.293-9.884 9.015-18.038 27.07-29.84 42.227-66.95 15.158-37.11 15.158-78.05 0-41.371-15.158-78.489-15.157-37.119-42.227-67.281-7.307-7.153-8.807-18.11-1.5-10.956 5.546-18.422 6.799-7.466 16.491-8.582 9.692-1.115 17.444 6.408 35.017 36.938 54.94 84.311Q849.768-627.792 849.768-575Zm-147.077 0q0 19.619-6.231 38.501-6.23 18.883-18.347 33.931-5.652 7.028-15.152 5.528T647-506.557q-6-7.444-5.807-16.943.192-9.5 4.269-18.884 4.923-8.154 7.385-16.02 2.461-7.866 2.461-16.337 0-9.182-2.035-16.972-2.036-7.789-6.811-14.518-4.077-9.384-4.769-19.576Q641-635.999 647-643.925q6.461-8.535 15.961-9.535t15.152 6.028q12.198 15.149 18.388 33.637 6.19 18.488 6.19 38.795ZM378.23-452.001q-51.749 0-87.874-35.625-36.124-35.625-36.124-87.241 0-51.617 36.124-88.374 36.125-36.758 87.874-36.758 51.75 0 87.874 36.758 36.125 36.757 36.125 88.374 0 51.616-36.125 87.241-36.124 35.625-87.874 35.625ZM110.232-232.155v-21.154q0-21.307 11.461-36.884 11.462-15.576 30.154-27.038 53.846-31.846 112.538-47.5 58.692-15.653 113.845-15.653 55.154 0 113.846 15.653 58.692 15.654 112.538 47.5 17.692 11.462 29.653 27.038 11.962 15.577 11.962 36.884v21.154q0 22.007-15.392 37.387-15.393 15.381-37.416 15.381H162.716q-22.023 0-37.254-15.381-15.23-15.38-15.23-37.387Zm51.998.769h432v-21.923q0-7.244-4.923-11.737-4.923-4.494-12.231-8.648-47.769-29.769-99.769-42.23-52-12.462-99.077-12.462-47.076 0-99.076 12.462-52 12.461-99.769 42.23-7.308 4.154-12.231 8.648-4.924 4.493-4.924 11.737v21.923ZM378.443-504q29.787 0 50.787-20.5t21-50.58q0-30.079-21.212-51.5-21.212-21.42-51-21.42t-50.788 21.42q-21 21.421-21 51.5 0 30.08 21.213 50.58 21.212 20.5 51 20.5Zm-.213-71Zm0 343.614Z"/></svg>