<svg xmlns="http://www.w3.org/2000/svg" height="20" viewBox="0 -960 960 960" width="20"><path d="M479.231-164.001q-126.615 0-216.115-84.616-89.5-84.615-99.422-208.384-1.231-10.923 6.384-17.922 7.615-7 18.592-6.616 10.33.385 18.061 6.846 7.73 6.462 8.576 17Q225.154-356 300.231-286q75.076 70 179 70 109 0 186.5-77.5t77.5-186.5q0-109-77.5-186.5t-186.5-77.5q-58.538 0-108.393 22.715-49.854 22.715-86.145 62.515h75.616q11.049 0 18.524 7.418 7.475 7.418 7.475 18.384 0 10.966-7.475 18.581-7.475 7.616-18.524 7.616H215.387q-13.665 0-22.909-9.245-9.244-9.244-9.244-22.909v-144.921q0-11.05 7.418-18.525 7.418-7.475 18.384-7.475 10.966 0 18.581 7.475t7.615 18.525v104.77q43.692-53.461 106.615-85.192 62.923-31.731 137.384-31.731 65.798 0 123.263 24.87 57.464 24.869 100.231 67.635 42.766 42.767 67.635 100.224 24.869 57.457 24.869 123.248t-24.869 123.27q-24.869 57.479-67.635 100.246-42.767 42.766-100.231 67.635-57.465 24.87-123.263 24.87Zm27.153-342.153 100.001 100.001q8.307 8.308 7.999 17.884-.307 9.577-8.999 18.269-8.692 8.692-18.577 8.692-9.884 0-18.576-8.692L464.52-473.712q-4.904-4.904-7.519-10.715-2.616-5.811-2.616-12.01v-149.888q0-10.912 7.629-18.293Q469.643-672 480.398-672q10.756 0 18.371 7.475 7.615 7.475 7.615 18.524v139.847Z"/></svg>