<svg xmlns="http://www.w3.org/2000/svg" height="20" viewBox="0 -960 960 960" width="20"><path d="M264.617-293.694v-372.612q0-11.05 7.418-18.525 7.418-7.475 18.384-7.475 10.966 0 18.582 7.475 7.615 7.475 7.615 18.525v372.612q0 11.05-7.418 18.525-7.419 7.475-18.384 7.475-10.966 0-18.582-7.475-7.615-7.475-7.615-18.525Zm180.537-4.539 245.767-153.844q7.19-4.457 11.326-12 4.135-7.542 4.135-15.923t-4.135-15.923q-4.136-7.543-11.326-12L445.154-661.767q-4.123-2.616-8.313-3.616t-8.228-1q-12.922 0-22.613 8.654-9.691 8.654-9.691 23.5v308.458q0 14.846 9.691 23.5t22.613 8.654q4.038 0 8.228-1 4.19-1 8.313-3.616Zm3.153-65.228v-233.078L635.462-480 448.307-363.461Zm0-116.539Z"/></svg>