<svg xmlns="http://www.w3.org/2000/svg" height="20" viewBox="0 -960 960 960" width="20"><path d="M455.692-455.692q50.077 50.077 110.884 88Q627.384-329.769 695.922-307q-39.077 50.077-95.577 77.538Q543.846-202.001 480-202.001q-115.769 0-196.884-81.115Q202.001-364.231 202.001-480q0-63.846 27.961-120.845 27.961-57 78.038-96.077 22.769 69.538 60.192 130.346 37.423 60.807 87.5 110.884Zm282.538 78.307q-13-3.846-25.692-7.999-12.692-4.154-25.076-9.846 8.385-21.154 12.962-42.885 4.577-21.731 4.577-43.885 0-93.231-64.885-158.116Q575.231-705.001 482-705.001q-21.154 0-43.385 3.885-22.231 3.885-42.385 12.269-5.692-12.384-9.846-24.384-4.153-11.999-7.999-24.999Q403-747.615 428.5-752.807q25.5-5.192 51.5-5.192 115.769 0 196.884 81.115Q757.999-595.769 757.999-480q0 26-4.692 52t-15.077 50.615Zm-284.229-457.23v-107.691h51.998v107.691h-51.998Zm0 816.921v-107.691h51.998v107.691h-51.998ZM749.23-712.462l-36.768-36.768 75.384-75.769 36.768 37.153-75.384 75.384ZM172.154-135.001l-36.768-37.153 75.384-75.384 36.768 36.768-75.384 75.769Zm662.461-319v-51.998h107.691v51.998H834.615Zm-816.921 0v-51.998h107.691v51.998H17.694Zm770.152 318.615-75.384-75.384 36.768-36.768 75.769 75.384-37.153 36.768ZM210.77-712.462l-75.769-75.384 37.153-36.768 75.384 75.384-36.768 36.768Z"/></svg>