<svg xmlns="http://www.w3.org/2000/svg" height="20" viewBox="0 -960 960 960" width="20"><path d="m675.231-135.693-77.846-77.846q-4.615-4.615-7.23-10.154-2.616-5.538-2.616-12.769v-55.923L334.385-545.539q-10 2-18.846 3t-20.615 1.769v-48.921q76.846-3.078 128.692-41.424 51.847-38.346 69.923-63.039l11.462-14.922q8.077-12.462 20.916-19.693 12.839-7.23 27.622-7.23 24.63 0 41.776 17.146 17.146 17.145 17.146 41.776V-458q0 12.458-4.347 21.806-4.346 9.348-10.115 15.425l-106.46-107.229v-93.619q-25.077 22.231-50.462 37.039-25.386 14.808-50.54 23.962l232.617 232.617h55.923q7.23 0 12.769 2.615 5.538 2.615 10.154 7.231l77.845 77.846q9.846 9.482 9.846 22.125t-9.846 22.489l-59.999 60q-9.482 9.846-22.126 9.846-12.643 0-22.489-9.846ZM359.154-396.001 236.307-273.154q-7.923 7.923-18.076 7.423-10.154-.5-18.077-8.473-7.923-7.973-7.923-18.577 0-10.603 7.923-18.526L348.77-459.923l63.923 63.922h-53.539Zm192.598-380.614q-30.906 0-52.328-21.671-21.423-21.67-21.423-52.576t21.67-52.329q21.671-21.423 52.577-21.423t52.328 21.671q21.423 21.671 21.423 52.577 0 30.905-21.67 52.328-21.671 21.423-52.577 21.423ZM294.73-540.77q-10.191 0-17.229-7.232-7.038-7.232-7.038-17.422 0-10.191 7.232-17.229 7.231-7.038 17.422-7.038t17.229 7.231q7.038 7.232 7.038 17.423 0 10.191-7.231 17.229-7.232 7.038-17.423 7.038Z"/></svg>