<svg xmlns="http://www.w3.org/2000/svg" height="20" viewBox="0 -960 960 960" width="20"><path d="M480.211-250.001q-10.98 0-18.595-7.465-7.615-7.465-7.615-18.534v-408q0-11.069 7.404-18.534 7.405-7.465 18.384-7.465 10.98 0 18.595 7.465 7.615 7.465 7.615 18.534v408q0 11.069-7.404 18.534-7.405 7.465-18.384 7.465Zm-422.21-96v-24.922q0-18.538 10.461-32.769 10.462-14.23 27.568-22.124 21.663-9.953 45.763-15.068 24.1-5.115 50.077-5.115 25.976 0 49.991 5.093 24.014 5.094 46.293 15.137 16.922 7.847 27.384 22.077 10.461 14.231 10.461 32.769v24.922H58.001Zm576 0v-24.922q0-18.538 10.461-32.769 10.462-14.23 27.568-22.124 21.663-9.953 45.763-15.068 24.1-5.115 50.077-5.115 25.976 0 49.991 5.093 24.014 5.094 46.293 15.137 16.922 7.847 27.384 22.077 10.461 14.231 10.461 32.769v24.922H634.001Zm-442.213-144q-25.942 0-43.864-18.135-17.923-18.135-17.923-44.076 0-25.942 18.135-43.864 18.135-17.923 44.076-17.923 25.942 0 43.864 18.135 17.923 18.135 17.923 44.076 0 25.942-18.135 43.864-18.135 17.923-44.076 17.923Zm576 0q-25.942 0-43.864-18.135-17.923-18.135-17.923-44.076 0-25.942 18.135-43.864 18.135-17.923 44.076-17.923 25.942 0 43.864 18.135 17.923 18.135 17.923 44.076 0 25.942-18.135 43.864-18.135 17.923-44.076 17.923Z"/></svg>