<svg xmlns="http://www.w3.org/2000/svg" height="20" viewBox="0 -960 960 960" width="20"><path d="M479.929-116.001q-121.467 0-206.697-85.268Q188.001-286.537 188.001-408h583.998q0 121.538-85.301 206.768-85.302 85.231-206.769 85.231ZM219.596-473.076q-12.902 0-22.248-9.136-9.347-9.136-9.347-22.038 0-12.903 9.136-22.249 9.136-9.346 22.038-9.346 12.903 0 22.249 9.136 9.346 9.135 9.346 22.038 0 12.902-9.136 22.249-9.135 9.346-22.038 9.346Zm172.307 0q-12.902 0-22.248-9.136-9.346-9.136-9.346-22.038 0-12.903 9.135-22.249 9.136-9.346 22.038-9.346 12.903 0 22.249 9.136 9.346 9.135 9.346 22.038 0 12.902-9.135 22.249-9.136 9.346-22.039 9.346Zm176.615 0q-12.903 0-22.249-9.136-9.346-9.136-9.346-22.038 0-12.903 9.135-22.249 9.136-9.346 22.039-9.346 12.902 0 22.248 9.136 9.346 9.135 9.346 22.038 0 12.902-9.135 22.249-9.136 9.346-22.038 9.346Zm172.307 0q-12.903 0-22.249-9.136-9.346-9.136-9.346-22.038 0-12.903 9.135-22.249 9.136-9.346 22.039-9.346 12.902 0 22.248 9.136 9.347 9.135 9.347 22.038 0 12.902-9.136 22.249-9.136 9.346-22.038 9.346ZM299.75-565.23q-12.903 0-22.249-9.135-9.346-9.136-9.346-22.039 0-12.902 9.136-22.248 9.135-9.347 22.038-9.347 12.902 0 22.249 9.136 9.346 9.136 9.346 22.038 0 12.903-9.136 22.249-9.136 9.346-22.038 9.346Zm361.921 0q-12.902 0-22.249-9.135-9.346-9.136-9.346-22.039 0-12.902 9.136-22.248 9.135-9.347 22.038-9.347t22.249 9.136q9.346 9.136 9.346 22.038 0 12.903-9.136 22.249-9.135 9.346-22.038 9.346Zm-181.46 3.846q-12.903 0-22.249-9.135-9.346-9.136-9.346-22.038 0-12.903 9.135-22.249 9.136-9.346 22.038-9.346 12.903 0 22.249 9.135 9.346 9.136 9.346 22.039 0 12.902-9.135 22.248-9.136 9.346-22.038 9.346Zm-88.308-96q-12.902 0-22.248-9.135-9.346-9.136-9.346-22.038 0-12.903 9.135-22.249 9.136-9.346 22.038-9.346 12.903 0 22.249 9.135 9.346 9.136 9.346 22.039 0 12.902-9.135 22.248-9.136 9.346-22.039 9.346Zm177.615 0q-12.903 0-22.249-9.135-9.346-9.136-9.346-22.038 0-12.903 9.135-22.249 9.136-9.346 22.039-9.346 12.902 0 22.248 9.135 9.346 9.136 9.346 22.039 0 12.902-9.135 22.248-9.136 9.346-22.038 9.346Zm-89.307-92.153q-12.903 0-22.249-9.136-9.346-9.135-9.346-22.038t9.135-22.249q9.136-9.346 22.038-9.346 12.903 0 22.249 9.136 9.346 9.135 9.346 22.038t-9.135 22.249q-9.136 9.346-22.038 9.346Z"/></svg>