<svg xmlns="http://www.w3.org/2000/svg" height="20" viewBox="0 -960 960 960" width="20"><path d="M271.693-474.463q86.922-4.231 148.268-65.576 61.345-61.346 65.576-148.268h-56.614q-4.231 63.461-48.837 108.23-44.606 44.769-108.393 49v56.614Zm0-133.999q32.778-2.308 55.542-25.077 22.764-22.769 25.072-54.768h-80.614v79.845Zm-43.384 444.461q-27.008 0-45.658-19-18.65-19-18.65-45.308v-503.382q0-26.308 18.65-45.308t45.658-19h503.382q27.008 0 45.658 19 18.65 19 18.65 45.308v503.382q0 26.308-18.65 45.308t-45.658 19H228.309Zm97.847-134h310.96q9.651 0 13.882-8.846t-1.615-17.077l-93.384-124.767q-4.865-7.231-12.461-7.231t-12.462 7.231l-87.845 113.46-49.538-61.999q-4.865-6.846-12.269-6.846t-12.269 7.231l-54.894 72.947q-6.413 8.205-1.932 17.051 4.481 8.846 13.827 8.846Z"/></svg>