<svg xmlns="http://www.w3.org/2000/svg" height="20" viewBox="0 -960 960 960" width="20"><path d="M276.025-116.001q-27.024 0-45.524-18.65t-18.5-45.658v-431.382q0-27.008 18.65-45.658 18.65-18.65 45.658-18.65h69.692v-26q0-56.154 37.423-99.077 37.422-42.923 96.576-42.923 56.154 0 95.076 38.923 38.923 38.923 38.923 95.077v34h69.692q27.008 0 45.658 18.65 18.65 18.65 18.65 45.658v431.382q0 27.008-18.662 45.658-18.662 18.65-45.686 18.65H276.025Zm121.974-559.998h164.002v-34q0-34.316-23.905-58.158Q514.191-792 479.788-792q-34.404 0-58.096 23.843-23.693 23.842-23.693 58.158v34ZM587.789-528q10.98 0 18.595-7.465 7.615-7.465 7.615-18.534V-624h-51.998v70.001q0 11.069 7.404 18.534Q576.81-528 587.789-528Zm-216 0q10.98 0 18.595-7.465 7.615-7.465 7.615-18.534V-624h-51.998v70.001q0 11.069 7.404 18.534Q360.81-528 371.789-528Z"/></svg>