<svg xmlns="http://www.w3.org/2000/svg" height="20" viewBox="0 -960 960 960" width="20"><path d="M193.385-116.001q-15.461 0-23.807-10.039-8.346-10.038-8.346-22.115 0-5.846 2.307-11.769 2.308-5.923 6.924-10.539l619.074-619.459q4.616-4.615 10.539-6.731 5.923-2.115 11.769-2.115 12.077 0 22.115 8.346 10.039 8.346 10.039 23.807v335.384q-12.769-4.538-25.077-8.615-12.307-4.077-26.922-5.308v-273.31L241.921-168h333.31q5.692 14.23 13.23 27.038 7.539 12.807 17.308 24.961H193.385ZM768-203.232l-51.308 51.308q-8.308 8.308-17.884 7.423-9.577-.884-17.5-8.807-8.307-8.308-8.307-18.384 0-10.077 8.307-18.384L731.232-240l-51.308-51.308q-8.308-8.308-7.616-18.384.693-10.077 9-18.384 8.308-8.308 18.384-8.308 10.077 0 18.384 8.308L768-276.768l51.308-51.308q8.308-8.308 18.577-7.923 10.269.384 18.191 8.307 8.308 8.308 8.308 18.192t-8.308 18.192L804.768-240l51.308 51.308q8.308 8.308 7.923 18.077-.384 9.769-8.307 17.691-8.308 8.308-18.192 8.308t-18.192-8.308L768-203.232ZM241.921-168 792-718.464Q689.691-616.155 617.229-543.501q-72.462 72.655-132.462 132.655L368.652-294.731 241.921-168Z"/></svg>