<svg xmlns="http://www.w3.org/2000/svg" height="20" viewBox="0 -960 960 960" width="20"><path d="M311.846-839.539q-7.538-7.692-8.653-17.961-1.115-10.269 6.577-17.807 7.692-7.538 18.653-8.461 10.961-.923 18.499 6.769l201 172q7.539 7.692 8.462 17.961.923 10.269-6.769 17.807-7.693 7.538-18.461 8.654-10.769 1.115-18.308-6.577l-201-172.385ZM272.539-720q-7.538-7.693-8.154-18.654-.615-10.961 7.077-18.499 7.692-7.538 18.154-8.654 10.461-1.115 17.999 6.577l107.307 90.692q-11.768 7.231-20.96 17.346t-14.5 20.73L272.539-720Zm358.922 155ZM459.769-863.692q-7.538-7.692-7.769-18.461-.23-10.769 7.462-18.307 7.692-7.539 17.961-8.154 10.269-.615 17.807 7.077l192.385 162.693 15.693-80.232q4.615-17.615 18.769-29.961 14.153-12.346 32.946-13.592l3.899-.216q12.692-1.615 22.731 7.116 10.038 8.73 11.269 21.192l41.923 279.384q4.615 24.077-2.308 46.384-6.923 22.308-22.769 40.384l-34.23 37.23q-7-10.846-15.384-20.384-8.385-9.538-18.538-17.538l29.307-33.999q8.538-9.923 12.308-21.731 3.769-11.808.615-25.116l-40.539-224.695-13.462 79.772q-4.718 17.842-21.643 23.997-16.926 6.156-31.587-6.69L459.769-863.692ZM314.693-534.154l-43.462-36.693q-7.598-7.527-8.991-18.071-1.393-10.543 6.299-18.082 7.692-7.538 18.654-8.461 10.961-.923 18.499 6.769l57.616 46.924q1.308 6.781 2.616 13.698 1.307 6.916 4.769 13.916h-56ZM118.001-308.386q-11.05 0-18.525-7.418-7.475-7.418-7.475-18.384 0-10.966 7.475-18.581 7.475-7.616 18.525-7.616h264q11.049 0 18.524 7.419Q408-345.548 408-334.582q0 10.966-7.475 18.581t-18.524 7.615h-264Zm48 115.384q-11.05 0-18.525-7.418-7.475-7.418-7.475-18.384 0-10.966 7.475-18.581T166.001-245h216q11.049 0 18.524 7.418Q408-230.164 408-219.198q0 10.966-7.475 18.581t-18.524 7.615h-216Zm95.798 115.384q-10.548 0-18.173-7.418-7.625-7.418-7.625-18.384 0-10.966 7.475-18.581t18.525-7.615h340.307q33.846 0 57.923-24.077 24.078-24.077 24.078-57.924V-351.77q0-13.558-4.962-24.865-4.962-11.308-14.885-19.212L488.921-542.31l39.386 70.925q8.846 16.076-1 31.846-9.846 15.769-27.538 15.769H214.001q-11.05 0-18.525-7.419-7.475-7.418-7.475-18.384 0-10.966 7.475-18.581t18.525-7.615h252.078l-39.616-72.309q-8.308-16.384-6.077-34.691 2.23-18.308 15.769-31.077l3.846-3.846q9.211-8.461 21.336-8.769 12.125-.308 21.894 7.539l214.923 184.23q18.076 15.846 28.115 37.538 10.038 21.692 10.038 45.384v140.153q0 55.833-39.083 94.916t-94.916 39.083H261.799Zm266.355-197.306Z"/></svg>