<svg xmlns="http://www.w3.org/2000/svg" height="20" viewBox="0 -960 960 960" width="20"><path d="m170.463-170.463 619.074-619.074q15.077-15.077 34.769-6.765 19.693 8.313 19.693 29.687v299.232q0 11.05-7.475 18.525-7.475 7.474-18.525 7.474h-114.19q-44.353 0-74.926 30.629-30.574 30.629-30.574 75.064v193.69q0 11.05-7.474 18.525-7.475 7.475-18.525 7.475H193.385q-21.374 0-29.687-19.693-8.312-19.692 6.765-34.769Zm631.538 28.462v-193.69q0-11.05 7.418-18.525 7.418-7.475 18.384-7.475 10.966 0 18.581 7.475t7.615 18.525v193.69q0 11.05-7.418 18.525-7.418 7.475-18.384 7.475-10.966 0-18.581-7.475t-7.615-18.525Zm-123.999 0v-193.69q0-11.05 7.418-18.525 7.419-7.475 18.384-7.475 10.966 0 18.582 7.475 7.615 7.475 7.615 18.525v193.69q0 11.05-7.418 18.525-7.419 7.475-18.385 7.475-10.965 0-18.581-7.475-7.615-7.475-7.615-18.525Z"/></svg>