<svg xmlns="http://www.w3.org/2000/svg" height="20" viewBox="0 -960 960 960" width="20"><path d="M347.803-247.693q10.966 0 18.581-7.414t7.615-18.375v-8.462q0-10.96-7.418-18.585t-18.384-7.625q-10.966 0-18.581 7.415-7.615 7.414-7.615 18.374v8.462q0 10.961 7.418 18.585 7.418 7.625 18.384 7.625Zm0-140.153q10.966 0 18.581-7.45t7.615-18.462v-80.287q0-11.013-7.418-18.637-7.418-7.625-18.384-7.625-10.966 0-18.581 7.449-7.615 7.45-7.615 18.463v80.287q0 11.012 7.418 18.637t18.384 7.625Zm132 140.153q10.966 0 18.581-7.449 7.615-7.45 7.615-18.463v-80.287q0-11.012-7.418-18.637t-18.384-7.625q-10.966 0-18.581 7.45t-7.615 18.462v80.287q0 11.013 7.418 18.637 7.418 7.625 18.384 7.625Zm0-212.153q10.966 0 18.581-7.415 7.615-7.414 7.615-18.374v-8.462q0-10.961-7.418-18.585-7.418-7.625-18.384-7.625-10.966 0-18.581 7.414t-7.615 18.375v8.462q0 10.96 7.418 18.585t18.384 7.625Zm132 212.153q10.966 0 18.581-7.414t7.615-18.375v-8.462q0-10.96-7.418-18.585t-18.384-7.625q-10.966 0-18.581 7.415-7.615 7.414-7.615 18.374v8.462q0 10.961 7.418 18.585 7.418 7.625 18.384 7.625Zm0-140.153q10.966 0 18.581-7.45t7.615-18.462v-80.287q0-11.013-7.418-18.637-7.418-7.625-18.384-7.625-10.966 0-18.581 7.449-7.615 7.45-7.615 18.463v80.287q0 11.012 7.418 18.637t18.384 7.625ZM276.025-116.001q-27.024 0-45.524-18.65t-18.5-45.658v-456.306q0-12.855 4.616-24.504 4.615-11.65 14.461-21.496l142.307-142.307q9.846-9.846 21.496-14.461 11.649-4.616 24.504-4.616h264.306q27.008 0 45.658 18.65 18.65 18.65 18.65 45.658v599.382q0 27.008-18.662 45.658-18.662 18.65-45.686 18.65H276.025Z"/></svg>