<svg xmlns="http://www.w3.org/2000/svg" height="20" viewBox="0 -960 960 960" width="20"><path d="M480.082-696q-27.775 0-53.698 8.039-25.923 8.038-49.692 21.346-10.538 5.077-21.807 3.654-11.269-1.423-19.577-9.731-8.307-8.307-6.423-18.076 1.885-9.769 10.423-15.846 31.077-20.385 66.598-30.885 35.52-10.5 74.038-10.5 38.517 0 74.094 10.5 35.577 10.5 66.654 30.885 8.538 6.077 10.423 15.846 1.884 9.769-6.423 18.076-8.308 8.308-19.577 9.731-11.269 1.423-21.807-3.654-22.769-13.308-48.885-21.346Q508.308-696 480.082-696Zm-.289-144q-55.716 0-108.139 17.346-52.424 17.347-97.707 49.508-9.409 6.223-20.835 6.339-11.426.115-20.188-8.269-8.308-8.241-7.116-19.428 1.193-11.187 10.116-16.879 52.692-40 114.91-60.308 62.218-20.308 129.23-20.308 67.013 0 129.167 20.308 62.153 20.308 114.845 60.308 8.923 5.692 10.616 16.846 1.692 11.153-6.616 19.461-8.307 8.307-20.461 8.23-12.153-.077-21.562-6.3-45.283-32.161-97.913-49.508Q535.51-840 479.793-840Zm-88.1 728.614q-30.308 0-47.307-17-17-16.999-17-47.307v-320.614q0-30.308 17-47.307 16.999-17 47.307-17h176.614q30.308 0 47.307 17 17 16.999 17 47.307v320.614q0 30.308-17 47.307-16.999 17-47.307 17H391.693Zm176.614-51.998q4.616 0 8.462-3.847 3.847-3.846 3.847-8.462v-320.614q0-4.616-3.847-8.462-3.846-3.847-8.462-3.847H391.693q-4.616 0-8.462 3.847-3.847 3.846-3.847 8.462v320.614q0 4.616 3.847 8.462 3.846 3.847 8.462 3.847h176.614Zm0 0H379.384h201.232-12.309Z"/></svg>