<svg xmlns="http://www.w3.org/2000/svg" height="20" viewBox="0 -960 960 960" width="20"><path d="M279.288-388.616q-12.903 0-22.249-8.943-9.346-8.943-9.346-22.23 0-13.288 9.135-22.442 9.136-9.153 22.039-9.153 12.902 0 22.248 8.943 9.346 8.943 9.346 22.23 0 13.288-9.135 22.442-9.136 9.153-22.038 9.153Zm517.711 125.922L750-312h29.691q5.385 0 8.847-3.462 3.462-3.462 3.462-8.847v-455.382q0-5.385-3.462-8.847-3.462-3.462-8.847-3.462H270l-51.999-51.999h561.69q27.008 0 45.658 18.65 18.65 18.65 18.65 45.658v455.382q0 24.4-12 40.777-12 16.377-35 20.838Zm-261-263.307-51.998-51.998H684q11.069 0 18.534 7.404 7.465 7.405 7.465 18.384 0 10.98-7.465 18.595-7.465 7.615-18.534 7.615H535.999Zm-294.46 266-70.959 70.958q-15.194 15.194-34.886 6.942-19.693-8.252-19.693-29.747v-558.845l-35.77-35.771q-8.308-8.307-8.5-17.884-.192-9.576 8.5-18.268 8.692-8.693 18.576-8.693t18.577 8.693l699.077 699.077q8.307 8.307 8.307 18.076t-8.307 18.077q-8.692 8.692-18.577 9.192-9.884.5-18.576-8.192L626.462-260.001H241.539ZM507-554Zm-228.011 33.384q-12.604 0-21.95-9.004-9.346-9.003-9.346-22.38 0-12.077 9.135-21.231 9.136-9.153 22.039-9.153 12.902 0 21.748 9.153 8.846 9.154 8.846 21.731 0 12.577-8.933 21.731-8.934 9.153-21.539 9.153Zm125.01-137.385-21.153-21.574v-4.214q0-10.98 7.465-18.595 7.465-7.615 18.534-7.615H684q11.069 0 18.534 7.404 7.465 7.405 7.465 18.384 0 10.98-7.465 18.595-7.465 7.615-18.534 7.615H403.999Zm-36.152 141.154ZM168-718.694v459.079L220.001-312h353.693L168-718.694Z"/></svg>