<svg xmlns="http://www.w3.org/2000/svg" height="20" viewBox="0 -960 960 960" width="20"><path d="m241.539-260.001-70.959 70.958q-15.194 15.194-34.886 6.942-19.693-8.252-19.693-29.747v-558.845h74.306l250.077 250.077h-74.305L80.231-806.464q-8.308-8.307-8.5-17.884-.192-9.576 8.5-18.268 8.692-8.693 18.576-8.693t18.577 8.693l699.077 699.077q8.307 8.307 8.307 18.076t-8.307 18.077q-8.692 8.692-18.577 9.192-9.884.5-18.576-8.192L626.462-260.001H241.539Zm555.46-2.693L534.845-526.001H684q11.069 0 18.534-7.404 7.465-7.405 7.465-18.384 0-10.98-7.465-18.595-7.465-7.615-18.534-7.615H482.847l-78.848-80.002H684q11.069 0 18.534-7.404 7.465-7.405 7.465-18.384 0-10.98-7.465-18.595-7.465-7.615-18.534-7.615H408.845q-11.069 0-18.534 7.465-7.465 7.465-7.465 18.534v4.846L218.001-843.999h561.69q27.008 0 45.658 18.65 18.65 18.65 18.65 45.658v455.382q0 24.4-12 40.777-12 16.377-35 20.838ZM278.867-388.616q12.902 0 22.248-9.135 9.346-9.136 9.346-22.038 0-12.903-9.135-22.249-9.136-9.346-22.038-9.346-12.903 0-22.249 9.135-9.346 9.136-9.346 22.038 0 12.903 9.135 22.249 9.136 9.346 22.039 9.346Zm0-132q12.902 0 21.748-9.135 8.846-9.136 8.846-22.038 0-12.903-8.933-21.749-8.934-8.846-21.539-8.846-12.604 0-21.95 8.933-9.346 8.934-9.346 21.539 0 12.604 9.135 21.95 9.136 9.346 22.039 9.346Z"/></svg>