<svg xmlns="http://www.w3.org/2000/svg" height="20" viewBox="0 -960 960 960" width="20"><path d="M563.539-164.001q-7.892 0-13.638-5.747-5.746-5.746-5.746-13.638v-140.923q0-7.892 5.746-13.638 5.746-5.746 13.638-5.746h92.923q7.892 0 13.638 5.746 5.746 5.746 5.746 13.638v140.923q0 7.892-5.746 13.638-5.746 5.747-13.638 5.747h-92.923Zm16.307-35.692h60.309v-108.308h-60.309v108.308Zm258.615 97.539h-95.23q-8.239 0-13.812-5.573-5.573-5.573-5.573-13.812v-68.922q0-8.239 5.573-13.812 5.573-5.573 13.812-5.573h77.385v-36.308h-78.924q-7.733 0-12.789-5.052-5.057-5.051-5.057-12.776t5.057-12.795q5.056-5.069 12.789-5.069h95.231q8.238 0 13.811 5.573t5.573 13.812v68.922q0 8.239-5.573 13.812-5.573 5.573-13.811 5.573h-77.385v36.308h78.923q7.734 0 12.79 5.052 5.056 5.051 5.056 12.776t-5.056 12.795q-5.056 5.069-12.79 5.069Zm-373.999-13.463q-124.615 2.693-212.538-83.115Q164.001-284.539 164.001-408q0-58.399 27.654-115.93 27.654-57.531 68.654-110.838 41-53.308 87.73-99.615 46.731-46.308 86.684-83.262 4.585-4.738 9.835-6.545 5.251-1.808 11.27-1.808 6.018 0 11.623 1.808 5.606 1.807 10.241 6.423 36.769 33.922 82.153 79.691 45.385 45.769 85.538 97.769 40.154 52 67.538 107.73 27.385 55.73 28.539 109.191h-51.614q-2.308-64.307-55.077-142.768Q582-644.616 456-769 324-638 270-557t-54 149q0 102.048 72.5 172.755t175.962 68.014v51.614ZM452.923-408Z"/></svg>