<svg xmlns="http://www.w3.org/2000/svg" height="20" viewBox="0 -960 960 960" width="20"><path d="M217.706-202.001q-51.244 0-86.463-35.788-35.218-35.788-36.242-87.236 0-7.59.72-14.893.719-7.303 2.542-14.99l76.588-301.352q11.897-44.999 47.229-73.369 35.332-28.37 81.64-28.37h352.56q46.308 0 81.64 28.37t47.241 73.372l76.66 301.378q1.825 7.687 3.002 15.439 1.176 7.752 1.176 15.281 0 51.463-35.923 86.811-35.922 35.347-87.72 35.347-35.663 0-64.971-18.153-29.307-18.154-45.538-49.462l-25.839-51.561q-5.7-11.324-16.508-18.074-10.807-6.75-24.5-6.75H394q-13.593 0-23.951 6.654-10.357 6.654-16.217 18.215l-26.738 51.818q-15.787 31.39-44.858 49.352-29.07 17.961-64.53 17.961Zm322.083-318.615q12.903 0 22.249-9.135 9.346-9.136 9.346-22.038 0-12.903-9.135-22.249-9.136-9.346-22.038-9.346-12.903 0-22.249 9.135-9.346 9.136-9.346 22.038 0 12.903 9.135 22.249 9.136 9.346 22.038 9.346Zm72-72q12.903 0 22.249-9.135 9.346-9.136 9.346-22.038 0-12.903-9.135-22.249-9.136-9.346-22.038-9.346-12.903 0-22.249 9.135-9.346 9.136-9.346 22.038 0 12.903 9.135 22.249 9.136 9.346 22.038 9.346Zm0 144q12.903 0 22.249-9.135 9.346-9.136 9.346-22.038 0-12.903-9.135-22.249-9.136-9.346-22.038-9.346-12.903 0-22.249 9.135-9.346 9.136-9.346 22.038 0 12.903 9.135 22.249 9.136 9.346 22.038 9.346Zm72-72q12.903 0 22.249-9.135 9.346-9.136 9.346-22.038 0-12.903-9.135-22.249-9.136-9.346-22.038-9.346-12.903 0-22.249 9.135-9.346 9.136-9.346 22.038 0 12.903 9.135 22.249 9.136 9.346 22.038 9.346Zm-323.807 46.462q7.725 0 12.795-5.057 5.069-5.056 5.069-12.789v-42.154H420q7.733 0 12.789-5.052 5.057-5.051 5.057-12.776 0-7.726-5.057-12.795-5.056-5.069-12.789-5.069h-42.154V-612q0-7.733-5.052-12.789-5.051-5.057-12.776-5.057t-12.795 5.057q-5.069 5.056-5.069 12.789v42.154H300q-7.733 0-12.789 5.052-5.057 5.051-5.057 12.776 0 7.726 5.057 12.795 5.056 5.069 12.789 5.069h42.154V-492q0 7.733 5.052 12.789 5.051 5.057 12.776 5.057Z"/></svg>