<svg xmlns="http://www.w3.org/2000/svg" height="20" viewBox="0 -960 960 960" width="20"><path d="M409.999-394.001H480q11.05 0 18.524-7.5 7.475-7.501 7.475-18.589v-93.911H576q11.05 0 18.524-7.423 7.475-7.423 7.475-18.397v-94.18H660q11.05 0 18.524-7.418 7.475-7.418 7.475-18.384 0-10.966-7.475-18.581-7.474-7.615-18.524-7.615h-84.237q-10.513 0-18.138 7.5-7.624 7.501-7.624 18.589v93.911H480q-11.05 0-18.524 7.5-7.475 7.501-7.475 18.589v93.911H384q-11.05 0-18.524 7.423-7.475 7.423-7.475 18.397v94.18H300q-11.05 0-18.524 7.418-7.475 7.418-7.475 18.384 0 10.966 7.475 18.581 7.474 7.615 18.524 7.615h84.237q10.513 0 18.137-7.5 7.625-7.501 7.625-18.589v-93.911Zm-181.69 230q-27.008 0-45.658-18.65-18.65-18.65-18.65-45.658v-503.382q0-27.008 18.65-45.658 18.65-18.65 45.658-18.65h503.382q27.008 0 45.658 18.65 18.65 18.65 18.65 45.658v503.382q0 27.008-18.65 45.658-18.65 18.65-45.658 18.65H228.309Z"/></svg>