<svg xmlns="http://www.w3.org/2000/svg" height="20" viewBox="0 -960 960 960" width="20"><path d="m552-216 192-192H584.154q-13.666 0-22.91 9.244T552-375.846V-216Zm-324.028 51.999q-26.49 0-45.23-18.891-18.741-18.89-18.741-45.417v-503.382q0-26.527 18.891-45.417 18.89-18.891 45.417-18.891h503.382q26.527 0 45.417 18.855 18.891 18.855 18.891 45.332v306.282q0 13.008-4.616 24.768-4.615 11.761-14.665 21.811L581.049-183.282q-10.05 10.05-21.844 14.665-11.795 4.616-24.809 4.616H227.972ZM331.693-418.77h122.308q11.049 0 18.524-7.418Q480-433.606 480-444.572q0-10.966-7.475-18.581-7.475-7.616-18.524-7.616H331.693q-11.05 0-18.525 7.419-7.474 7.418-7.474 18.384 0 10.966 7.474 18.581 7.475 7.615 18.525 7.615Zm0-143.231h296.614q11.05 0 18.525-7.418 7.474-7.418 7.474-18.384 0-10.966-7.474-18.581-7.475-7.615-18.525-7.615H331.693q-11.05 0-18.525 7.418-7.474 7.418-7.474 18.384 0 10.966 7.474 18.581 7.475 7.615 18.525 7.615Z"/></svg>