<svg xmlns="http://www.w3.org/2000/svg" height="20" viewBox="0 -960 960 960" width="20"><path d="M721.142-113.694q-10.681 0-15.373-10.307-4.693-10.308-.847-21.23 21.154-59.001 26.77-120.886 5.615-61.885.307-123.885-26.692 81.077-96.499 129.539-69.808 48.462-155.5 48.462-82 0-139.999-41.154-58-41.154-95.461-104.769t-54.769-140.961q-17.307-77.346-17.307-148.346 0-43.279 6.192-85.447t19.808-83.244q3.846-13.444 14.999-21.914 11.154-8.47 25.395-8.47 10.681 0 15.373 10.307 4.693 10.308.847 21.23-21.154 59.001-27.27 120.705-6.115 61.704.193 124.066 26.692-81.077 96.499-129.539 69.808-48.462 155.5-48.462 80 0 137.999 40.154 58 40.154 95.961 102.769t55.769 139.769q17.807 77.153 17.807 152.521 0 43.285-6.692 85.459-6.692 42.173-19.308 83.249-3.846 13.444-14.999 21.914-11.154 8.47-25.395 8.47ZM480-356.001q51.922 0 87.961-36.038 36.038-36.039 36.038-87.961t-36.038-87.961Q531.922-603.999 480-603.999t-87.961 36.038Q356.001-531.922 356.001-480t36.038 87.961q36.039 36.038 87.961 36.038ZM479.788-408Q450-408 429-429.212q-21-21.213-21-51Q408-510 429.212-531q21.213-21 51-21Q510-552 531-530.788q21 21.213 21 51Q552-450 530.788-429q-21.213 21-51 21Z"/></svg>