<svg xmlns="http://www.w3.org/2000/svg" height="20" viewBox="0 -960 960 960" width="20"><path d="M287.922-382.001 403.21-266.712q7.789 7.789 7.789 18.25t-8.307 18.769q-8.308 8.307-18.551 8.307-10.243 0-18.217-8.307L210.709-385.414q-5.015-5.048-7.323-10.618-2.308-5.57-2.308-12.045 0-6.476 2.308-12.045 2.308-5.57 6.923-10.185l155.448-155.449q7.705-7.704 18.166-8.089 10.461-.385 19.247 7.923 8.214 8.307 8.022 18.576-.193 10.269-8.281 18.358L287.922-433.999h347.769q5.385 0 8.847-3.462 3.462-3.462 3.462-8.847v-323.691q0-11.069 7.405-18.534 7.404-7.466 18.384-7.466 10.979 0 18.594 7.466 7.616 7.465 7.616 18.534v323.691q0 26.623-18.843 45.465-18.842 18.842-45.465 18.842H287.922Z"/></svg>