<svg xmlns="http://www.w3.org/2000/svg" height="20" viewBox="0 -960 960 960" width="20"><path d="M175-699.999h102.847q7.733 0 12.79 5.052 5.056 5.051 5.056 12.776 0 7.726-5.056 12.795-5.057 5.069-12.79 5.069H148.155q-13.665 0-22.909-9.244-9.245-9.244-9.245-22.91v-129.692q0-7.733 5.052-12.789 5.051-5.057 12.776-5.057 7.726 0 12.795 5.057 5.069 5.056 5.069 12.789v97.771q60.846-74.154 144.769-114.077t182.692-39.923q114.615 0 209.768 53.384t143.846 142.23q4.615 7.853 1.558 15.157-3.058 7.304-10.395 7.304-9.893 0-17.489-6.462-7.596-6.461-13.442-14.768-46.924-73.077-131.077-117.116-84.154-44.038-182.769-44.038-91.692 0-170.038 37.5Q230.77-771.691 175-699.999Zm268 583.998q-22.077 0-41.961-8.231-19.885-8.231-35.731-24.077L190.593-322.312q-8.708-8.843-8.612-19.958.097-11.115 9.558-19.808l4.846-4.846q10.538-10.153 23.538-13.115 12.999-2.961 27.384.5l98.694 23.232V-684q0-11.05 7.418-18.524 7.418-7.475 18.384-7.475 10.966 0 18.581 7.475 7.615 7.474 7.615 18.524v257.385h64.54v-123.123q0-11.012 7.418-18.637T488.341-576q10.966 0 18.581 7.475t7.615 18.524v123.386h64.925v-75.386q0-11.049 7.418-18.524Q594.298-528 605.264-528q10.966 0 18.581 7.475t7.615 18.524v75.386H696v-27.386q0-11.049 7.418-18.524Q710.836-480 721.802-480q10.966 0 18.581 7.475 7.616 7.475 7.616 18.524v180q0 66.154-45.923 112.077t-112.001 45.923H443Z"/></svg>