<svg xmlns="http://www.w3.org/2000/svg" height="20" viewBox="0 -960 960 960" width="20"><path d="M336.365-739.384q-11.941 0-20.23-8.078-8.288-8.078-8.288-20.019 0-11.941 8.078-20.229 8.078-8.289 20.019-8.289 11.941 0 20.229 8.078 8.288 8.078 8.288 20.019 0 11.941-8.077 20.229-8.078 8.289-20.019 8.289Zm287.691 0q-11.941 0-20.229-8.078-8.288-8.078-8.288-20.019 0-11.941 8.077-20.229 8.078-8.289 20.019-8.289 11.941 0 20.23 8.078 8.288 8.078 8.288 20.019 0 11.941-8.078 20.229-8.078 8.289-20.019 8.289ZM192.519-595.539q-11.941 0-20.229-8.077-8.289-8.078-8.289-20.019 0-11.941 8.078-20.23 8.078-8.288 20.019-8.288 11.941 0 20.229 8.078 8.289 8.078 8.289 20.019 0 11.941-8.078 20.229-8.078 8.288-20.019 8.288Zm575.383 0q-11.941 0-20.229-8.077-8.289-8.078-8.289-20.019 0-11.941 8.078-20.23 8.078-8.288 20.019-8.288 11.941 0 20.229 8.078 8.289 8.078 8.289 20.019 0 11.941-8.078 20.229-8.078 8.288-20.019 8.288ZM192.519-307.847q-11.941 0-20.229-8.078-8.289-8.078-8.289-20.019 0-11.941 8.078-20.229 8.078-8.288 20.019-8.288 11.941 0 20.229 8.077 8.289 8.078 8.289 20.019 0 11.941-8.078 20.23-8.078 8.288-20.019 8.288Zm575.383 0q-11.941 0-20.229-8.078-8.289-8.078-8.289-20.019 0-11.941 8.078-20.229 8.078-8.288 20.019-8.288 11.941 0 20.229 8.077 8.289 8.078 8.289 20.019 0 11.941-8.078 20.23-8.078 8.288-20.019 8.288ZM336.365-164.001q-11.941 0-20.23-8.078-8.288-8.078-8.288-20.019 0-11.941 8.078-20.229 8.078-8.289 20.019-8.289 11.941 0 20.229 8.078 8.288 8.078 8.288 20.019 0 11.941-8.077 20.229-8.078 8.289-20.019 8.289Zm287.691 0q-11.941 0-20.229-8.078-8.288-8.078-8.288-20.019 0-11.941 8.077-20.229 8.078-8.289 20.019-8.289 11.941 0 20.23 8.078 8.288 8.078 8.288 20.019 0 11.941-8.078 20.229-8.078 8.289-20.019 8.289ZM372.154-307.847q-26.526 0-45.417-18.89-18.89-18.891-18.89-45.417v-215.692q0-26.526 18.89-45.417 18.891-18.89 45.417-18.89h215.692q26.526 0 45.417 18.89 18.89 18.891 18.89 45.417v215.692q0 26.526-18.89 45.417-18.891 18.89-45.417 18.89H372.154Zm0-51.999h215.692q5.385 0 8.847-3.461 3.461-3.462 3.461-8.847v-215.692q0-5.385-3.461-8.847-3.462-3.461-8.847-3.461H372.154q-5.385 0-8.847 3.461-3.461 3.462-3.461 8.847v215.692q0 5.385 3.461 8.847 3.462 3.461 8.847 3.461ZM480-480Z"/></svg>