<svg xmlns="http://www.w3.org/2000/svg" height="20" viewBox="0 -960 960 960" width="20"><path d="m437-487.537-60.924-60.923q-8.307-8.308-20.076-8.308t-20.076 8.308q-8.693 8.495-8.693 20.576 0 12.081 8.693 20.577l78.769 77.999q9.482 9.846 22.125 9.846t22.489-9.846l173.615-164.384q1.923-10.341.193-20.709-1.731-10.367-10.423-19.059-8.774-8.308-20.118-8.308-11.343 0-19.65 8.308L437-487.537ZM63.386-174.771v-51.999h807.229q11.069 0 18.534 7.405 7.465 7.404 7.465 18.384 0 10.979-7.465 18.594-7.465 7.616-18.534 7.616H63.385Zm116.923-99.999q-27.008 0-45.658-18.65-18.65-18.65-18.65-45.657V-722.46q0-27.007 18.65-45.657 18.65-18.65 45.658-18.65h599.382q27.008 0 45.658 18.65 18.65 18.65 18.65 45.657v383.383q0 27.007-18.65 45.657-18.65 18.65-45.658 18.65H180.309Z"/></svg>