<svg xmlns="http://www.w3.org/2000/svg" height="20" viewBox="0 -960 960 960" width="20"><path d="M150.387-260.001q-20.692 0-29.538-17.885-8.846-17.884 3.615-33.961L264-498.537q4.616-7.23 11.654-9.846 7.039-2.615 14.269-2.615 7.231 0 14.269 2.615 7.039 2.616 11.654 9.846L455.152-312h314.771l-216-288-112.001 149.847-32.691-43.845L528-653.152q4.616-7.23 11.654-9.846 7.039-2.615 14.269-2.615 7.231 0 14.269 2.615 7.039 2.616 11.654 9.846l255.69 341.305q12.461 16.077 3.615 33.961-8.846 17.885-29.538 17.885H150.387ZM441.922-312h328.001H446.845 509.23h-67.308Zm-249.845 0h197.077l-99.231-133.77L192.077-312Zm0 0h197.077-197.077Z"/></svg>