<svg xmlns="http://www.w3.org/2000/svg" height="20" viewBox="0 -960 960 960" width="20"><path d="M424.54-96.385q-19.077-47.692-25.285-96.437-6.207-48.745-6.846-91.232-.638-42.486 2.516-74.986 3.154-32.5 5-47.804-.616-2.308-.577-4.231.038-1.924-3.27-2.308-13.307-2.387-39.21-8.166-25.903-5.778-58.846-18.077-32.943-12.298-70.251-32.644-37.308-20.346-74.54-50.578L178.154-565q41.153 35 84.615 55 43.462 20 78.846 30.5Q377-469 399.5-465.5L422-462q18.923.385 27.269 14.241T455-419l-4.5 30.5Q446-358 445-311t6 104q7 57 29 111l-55.46-.385ZM699.999-96H648v-400.548Q648-542 624-579.5T558-636L297.615-754.231l26.846-45.229 255.461 115.538q54.915 24.839 87.496 75.066Q699.999-558.628 699.999-497v401ZM530.226-196.616q7.697 0 12.62-2.5 4.923-2.5 9.154-7.5 4.231 5 9.461 7.5 5.231 2.5 12.398 2.5 13.306 0 22.262-9.135 8.955-9.136 8.955-22.038 0-13.288-9.003-22.367-9.004-9.08-22.381-9.08h-3.846v-153.38h3.846q13.377 0 22.381-9.135 9.003-9.136 9.003-22.038 0-13.288-8.955-22.442-8.956-9.153-22.262-9.153-7.167 0-12.398 2-5.23 2-9.461 7-4.231-5-9.154-7t-12.62-2q-12.957 0-22.13 8.943-9.172 8.943-9.172 22.23 0 12.903 9.196 22.175t22.188 9.272h3.846v153.38h-3.846q-12.992 0-22.188 8.943-9.196 8.943-9.196 22.23 0 12.903 9.172 22.249 9.173 9.346 22.13 9.346ZM480-96q-22-54-29-111t-6-104q1-47 5.5-77.741l4.5-30.741q2.615-14.595-5.731-28.364T422-462l-22.5-3.5q-22.5-3.5-57.885-14-35.384-10.5-78.846-30.5t-84.615-55q41.153 35 84.615 55 43.462 20 78.846 30.5Q377-469 399.5-465.5L422-462q18.923.385 27.269 14.241T455-419l-4.5 30.5Q446-358 445-311t6 104q7 57 29 111Z"/></svg>