<svg xmlns="http://www.w3.org/2000/svg" height="20" viewBox="0 -960 960 960" width="20"><path d="M379.591-164.001q-11.052 0-18.667-7.405-7.615-7.405-7.615-18.384 0-10.98 7.454-18.595Q368.216-216 379.268-216h201.141q11.052 0 18.667 7.405 7.615 7.404 7.615 18.384 0 10.979-7.454 18.594-7.453 7.616-18.505 7.616H379.591Zm.256-99.999q-11.586 0-20.495-7.613-8.908-7.613-10.658-19.31l-37.308-199.46q-2-8.231-1.192-16.462.807-8.23 3.807-15.461L392.54-753.69q3.615-9.461 11.961-15.884t18.202-6.423h114.594q9.856 0 18.202 6.423 8.346 6.423 11.961 15.884l78.539 231.384q3 7.231 3.807 15.461.808 8.231-1.192 16.462l-37.308 199.46q-1.75 11.697-10.658 19.31Q591.739-264 580.153-264H379.847Zm-10.155-257.998h220.616L524-723.999h-88l-66.308 202.001Z"/></svg>