<svg xmlns="http://www.w3.org/2000/svg" height="20" viewBox="0 -960 960 960" width="20"><path d="M180.309-308.001q-26.623 0-45.465-18.843-18.843-18.842-18.843-45.465v-215.382q0-26.623 18.843-45.465 18.842-18.843 45.465-18.843h599.382q26.623 0 45.465 18.843 18.843 18.842 18.843 45.465v215.382q0 26.623-18.843 45.465-18.842 18.843-45.465 18.843H180.309Zm0-51.999h599.382q5.385 0 8.847-3.462 3.462-3.462 3.462-8.847v-215.382q0-5.385-3.462-8.847-3.462-3.462-8.847-3.462h-98.539q8.539 13.231 13.693 28.423 5.154 15.192 5.154 31.577 0 46.538-32.538 79.268-32.539 32.731-79.461 32.731H372q-46.538 0-79.268-32.731-32.731-32.73-32.731-79.706 0-15.947 4.904-31.139T278.848-600h-98.539q-5.385 0-8.847 3.462-3.462 3.462-3.462 8.847v215.382q0 5.385 3.462 8.847 3.462 3.462 8.847 3.462ZM372-480h82.001v-120H372q-25 0-42.5 17.5T312-540q0 25 17.5 42.5T372-480Zm133.999 0H588q25 0 42.5-17.5T648-540q0-25-17.5-42.5T588-600h-82.001v120Zm273.692 120H168h12.309H168h624-12.309H792h-12.309Z"/></svg>