<svg xmlns="http://www.w3.org/2000/svg" height="20" viewBox="0 -960 960 960" width="20"><path d="M260.771-259.849h206.151q3.847 0 6.539-2.693 2.693-2.692 2.693-6.539v-41.076q0-3.847-2.693-6.539-2.692-2.693-6.539-2.693H260.771q-3.847 0-6.539 2.693-2.693 2.692-2.693 6.539v41.076q0 3.847 2.693 6.539 2.692 2.693 6.539 2.693Zm16.048-305.152h167.838q8.497 0 15.266-6.626t6.769-15.077q0-8.45-6.661-15.219t-15.158-6.769H277.036q-8.497 0-15.266 6.626t-6.769 15.077q0 8.45 6.661 15.219t15.157 6.769Zm0-85.307h167.838q8.497 0 15.266-6.626t6.769-15.077q0-8.45-6.661-15.219t-15.158-6.769H277.036q-8.497 0-15.266 6.626t-6.769 15.077q0 8.45 6.661 15.219t15.157 6.769Zm327.18 130.153v-51.999h35.691q5.385 0 8.847-3.461 3.462-3.462 3.462-8.847v-79.076q0-5.385-3.462-8.847-3.462-3.461-8.847-3.461h-35.691v-51.999h35.691q26.527 0 45.417 18.89t18.89 45.417v13.539h125.846q11.049 0 18.524 7.418 7.475 7.418 7.475 18.384 0 10.966-7.475 18.581t-18.524 7.615H703.997v13.539q0 26.527-18.89 45.417t-45.417 18.89h-35.691ZM463.845-371.387h-51.999v-136.459h127.845q5.385 0 8.847-3.462Q552-514.77 552-520.155v-207.69q0-5.385-3.462-8.847-3.462-3.462-8.847-3.462H247.693q-29.7 0-50.85 21.15-21.15 21.15-21.15 50.85v88.308q0 29.7 21.15 50.85 21.15 21.15 50.85 21.15h68.153v136.459h-51.998v-84.461h-16.155q-51.75 0-87.874-36.124-36.125-36.125-36.125-87.874v-88.308q0-51.749 36.125-87.874 36.124-36.124 87.874-36.124h291.998q26.527 0 45.417 18.89 18.891 18.89 18.891 45.417v207.69q0 26.527-18.891 45.417-18.89 18.89-45.417 18.89h-75.846v84.461ZM241.771-207.851q-17.596 0-29.913-12.317t-12.317-29.913v-79.076q0-21.596 20.817-31.913t45.413-10.317h220.151q17.596 0 29.913 12.317t12.317 29.913v79.076q0 17.596-12.317 29.913t-29.913 12.317H241.771ZM366.846-630Zm100.076 370.151H251.539h224.615-9.232Z"/></svg>