<svg xmlns="http://www.w3.org/2000/svg" height="20" viewBox="0 -960 960 960" width="20"><path d="M322.077-212.001q-10.769 0-18.384-7.616-7.615-7.615-7.615-18.384t7.615-18.384Q311.308-264 322.077-264h265.078q49.615 0 83.269-36.346 33.654-36.347 33.654-87.116t-33.654-86.923q-33.654-36.154-83.269-36.154H312.306l81.232 82.232q8.692 8.692 8.692 18.576 0 9.885-8.692 18.577-8.692 8.692-18.269 8.5-9.576-.193-17.884-8.5L234.309-514.231q-4.615-4.615-6.923-10.346-2.308-5.73-2.308-11.961t2.308-11.962q2.308-5.73 6.923-10.346l122.076-122.076q8.693-8.692 18.577-8.692 9.884 0 18.576 8.692t9 18.269q.308 9.576-8 17.884l-82.232 82.232h274.849q70.768 0 119.845 51.576 49.076 51.577 49.076 123.499 0 71.923-49.076 123.692-49.077 51.769-119.845 51.769H322.077Z"/></svg>