<svg xmlns="http://www.w3.org/2000/svg" height="20" viewBox="0 -960 960 960" width="20"><path d="M454.001-425.003v134.458q0 11.039 7.404 18.483 7.405 7.445 18.384 7.445 10.98 0 18.595-7.445 7.615-7.444 7.615-18.483v-134.458l48.639 48.639q3.747 3.747 8.824 5.478 5.077 1.731 9.653 1.923 4.577.192 10.039-1.538 5.461-1.731 8.922-5.193 8.693-8.307 8.5-18.576-.192-10.269-8.362-18.438l-89.907-89.907q-4.715-5.07-9.896-7.151-5.18-2.08-12.411-2.08t-12.411 2.08q-5.181 2.081-9.896 7.151l-89.907 89.907q-7.785 7.784-7.708 17.927.077 10.144 8.461 18.087 8.307 8.693 18.576 8.5 10.269-.192 18.3-8.223l48.586-48.586ZM276.025-116.001q-27.024 0-45.524-18.65t-18.5-45.658v-599.382q0-27.008 18.65-45.658 18.65-18.65 45.658-18.65h282.769q12.684 0 24.418 4.616 11.735 4.615 21.582 14.461l123.844 123.844q9.846 9.847 14.461 21.582 4.616 11.734 4.616 24.418v474.769q0 27.008-18.662 45.658-18.662 18.65-45.686 18.65H276.025Zm271.976-560.154V-792H276.309q-4.616 0-8.463 3.846-3.846 3.847-3.846 8.463v599.382q0 4.616 3.846 8.463 3.847 3.846 8.463 3.846h407.382q4.616 0 8.463-3.846 3.846-3.847 3.846-8.463v-463.692H580.155q-13.761 0-22.957-9.197-9.197-9.196-9.197-22.957ZM264-792v147.999V-792v624V-792Z"/></svg>