<svg xmlns="http://www.w3.org/2000/svg" height="20" viewBox="0 -960 960 960" width="20"><path d="M737.846-480.657q0-77.958-43.193-142.074-43.192-64.115-113.419-96.072-10.696-5.12-16.157-14.966-5.462-9.846-.231-19.999 4.846-11.154 17.077-14.846 12.23-3.692 23.777 1.349 84.452 38.497 134.298 116.035 49.846 77.538 49.846 171.36 0 93.821-49.846 170.73-49.846 76.908-134.298 115.405-11.547 5.041-23.777 1.349-12.231-3.692-17.077-14.846-5.231-10.153.231-19.999 5.461-9.846 16.157-14.966 70.227-31.957 113.419-96.229 43.193-64.272 43.193-142.231Zm-435.23 76.656H202.309q-13.761 0-22.957-9.197-9.196-9.196-9.196-22.957v-87.69q0-13.761 9.196-22.957 9.196-9.197 22.957-9.197h100.307L421.308-674.69q12.384-12.384 28.614-5.625 16.231 6.76 16.231 24.526v351.482q0 17.766-16.231 24.574-16.23 6.807-28.614-5.577L302.616-404.001ZM634.153-480q0 32.384-14.538 67.346-14.539 34.961-42.923 53.807-7.461 4.615-15.307 1.077-7.846-3.539-7.846-13.474v-217.512q0-9.935 7.846-13.474 7.846-3.538 15.307 1.077 28.384 17.462 42.923 53.115 14.538 35.654 14.538 68.038Z"/></svg>