<svg xmlns="http://www.w3.org/2000/svg" height="20" viewBox="0 -960 960 960" width="20"><path d="M454.001-820.307V-876q0-11.05 7.418-18.524 7.418-7.475 18.384-7.475 10.966 0 18.581 7.475 7.615 7.474 7.615 18.524v55.693q0 11.05-7.418 18.524-7.418 7.475-18.384 7.475-10.966 0-18.581-7.475-7.615-7.474-7.615-18.524Zm0 736.307v-55.693q0-11.05 7.418-18.524 7.418-7.475 18.384-7.475 10.966 0 18.581 7.475 7.615 7.474 7.615 18.524V-84q0 11.05-7.418 18.525-7.418 7.474-18.384 7.474-10.966 0-18.581-7.474-7.615-7.475-7.615-18.525ZM876-454.001h-55.693q-11.05 0-18.524-7.418-7.475-7.418-7.475-18.384 0-10.966 7.475-18.581 7.474-7.615 18.524-7.615H876q11.05 0 18.524 7.418 7.475 7.418 7.475 18.384 0 10.966-7.475 18.581-7.474 7.615-18.524 7.615Zm-736.307 0H84q-11.05 0-18.525-7.418-7.474-7.418-7.474-18.384 0-10.966 7.474-18.581 7.475-7.615 18.525-7.615h55.693q11.05 0 18.524 7.418 7.475 7.418 7.475 18.384 0 10.966-7.475 18.581-7.474 7.615-18.524 7.615Zm638.383-285.307-41.692 39.693q-8.308 8.307-18.577 7.999-10.269-.307-18.66-8.698-8.608-8.609-8.416-18.185.192-9.577 8.884-17.885l40.309-42.308q8.307-7.923 19.392-8.115 11.086-.192 19.341 8.288 8.342 8.48 8.035 19.691-.308 11.212-8.616 19.52ZM260.385-223.616l-39.309 41.308q-8.307 7.923-19.392 8.115-11.086.192-19.341-8.288-8.342-8.48-8.035-19.691.308-11.212 8.616-19.52l40.692-38.693q8.308-8.307 18.577-7.999 10.269.307 18.66 8.698 8.608 8.609 8.416 18.185-.192 9.577-8.884 17.885Zm478.923 40.692-39.693-40.692q-8.307-8.308-7.999-18.577.307-10.269 8.698-18.66 8.609-8.608 18.185-8.916 9.577-.308 17.885 8.384l42.308 40.309q7.923 8.307 8.115 19.392.192 11.086-8.288 19.341-8.48 8.342-19.691 8.035-11.212-.308-19.52-8.616ZM223.616-699.615l-41.308-40.309q-7.923-8.307-8.615-18.884-.692-10.576 7.615-18.884 8.308-8.307 20.192-9 11.884-.692 20.192 8.616l39.693 41.692q7.307 8.308 6.999 18.577-.307 10.269-8.698 18.66-8.609 8.608-18.185 8.416-9.577-.192-17.885-8.884Zm256.475 439.614q-91.629 0-155.859-64.14-64.231-64.14-64.231-155.768 0-91.629 64.14-155.859 64.14-64.231 155.768-64.231 91.629 0 155.859 64.14 64.231 64.14 64.231 155.768 0 91.629-64.14 155.859-64.14 64.231-155.768 64.231ZM479.753-311Q550-311 599-360.5t49-119.747q0-70.246-48.753-119Q550.493-648 480.247-648 410-648 361-599.247q-49 48.754-49 119Q312-410 360.753-360.5q48.754 49.5 119 49.5ZM481-481Z"/></svg>