<svg xmlns="http://www.w3.org/2000/svg" height="20" viewBox="0 -960 960 960" width="20"><path d="m480-488-64.307 49.461q-4.616 3.231-9.539-.192t-2.923-8.654l24.846-80.692-65.153-48.615q-5-3.231-2.808-8.846 2.192-5.616 8.423-5.616h78.769l24.846-80.461q2-5.231 7.846-5.231t7.846 5.231l24.846 80.461h79.154q6.23 0 8.23 5.616 2 5.615-3 8.846l-64.769 48.615 24.847 80.692q2 5.231-2.923 8.654-4.924 3.423-9.539.192L480-488Zm0 371.229L321.232-86.079q-14.692 3.23-26.461-6.808-11.77-10.038-11.77-25.115v-218.076q-43-34.692-69-94.768-26-60.077-26-121.154 0-121.538 85.231-206.768 85.23-85.231 206.768-85.231t206.768 85.231q85.231 85.23 85.231 206.768 0 62.077-24 121.654-24 59.576-72 95.268v217.076q0 15.077-11.77 25.115-11.769 10.039-26.461 6.808L480-116.771ZM480-312q100 0 170-70t70-170q0-100-70-170t-170-70q-100 0-170 70t-70 170q0 100 70 170t170 70ZM335-137.615l145-33.924 144 33.924v-162.618q-32.231 20.308-68.923 30.27T480-260.001q-38.385 0-75.577-9.462T335-300.233v162.618Zm145-82.309Z"/></svg>