<svg xmlns="http://www.w3.org/2000/svg" height="20" viewBox="0 -960 960 960" width="20"><path d="M168-228.309V-216v-432V-228.309Zm12.309 64.308q-27.008 0-45.658-18.65-18.65-18.65-18.65-45.658v-407.382q0-27.008 18.65-45.658 18.65-18.65 45.658-18.65h175.692v-59.903q0-27.095 18.676-45.595t45.72-18.5h119.558q27.044 0 45.544 18.65 18.5 18.65 18.5 45.657v59.691h175.692q27.008 0 45.658 18.65 18.65 18.65 18.65 45.658v185.461q-12.769-7.538-25.077-13.538-12.307-6-26.922-9.461v-162.462q0-5.385-3.462-8.847-3.462-3.462-8.847-3.462H180.309q-5.385 0-8.847 3.462-3.462 3.462-3.462 8.847v407.382q0 5.385 3.462 8.847 3.462 3.462 8.847 3.462h296.692q1.616 13.934 3.885 26.774 2.269 12.84 6.577 25.225H180.309ZM408-699.999h144v-59.691q0-5.385-3.462-8.847-3.462-3.462-8.847-3.462H420.309q-5.385 0-8.847 3.462Q408-765.075 408-759.69v59.691ZM719.774-68.001q-71.696 0-121.735-50.265-50.038-50.264-50.038-121.96t50.265-121.735q50.264-50.038 121.96-50.038t121.735 50.265q50.038 50.264 50.038 121.96t-50.265 121.735q-50.264 50.038-121.96 50.038ZM720-155.54q9.6 0 16.415-6.816 6.816-6.815 6.816-16.415 0-9.6-6.816-16.415-6.815-6.816-16.415-6.816-9.6 0-16.415 6.816-6.816 6.815-6.816 16.415 0 9.6 6.816 16.415 6.815 6.816 16.415 6.816Zm0-92.923q8.831 0 15.261-6.431 6.431-6.431 6.431-15.261v-32.615q0-8.83-6.431-15.261-6.43-6.431-15.261-6.431t-15.261 6.431q-6.431 6.431-6.431 15.261v32.615q0 8.83 6.431 15.261 6.43 6.431 15.261 6.431Z"/></svg>