<svg xmlns="http://www.w3.org/2000/svg" height="20" viewBox="0 -960 960 960" width="20"><path d="M116.001-745.999v-81.692q0-27.42 18.5-46.364 18.5-18.944 45.808-17.944h81.692q11.049 0 18.524 7.419Q288-877.162 288-866.196q0 10.966-7.475 18.581T262.001-840h-81.692q-4.616 0-8.463 3.846-3.846 3.847-3.846 8.463v81.692q0 11.049-7.418 18.524Q153.164-720 142.198-720q-10.966 0-18.581-7.475-7.616-7.475-7.616-18.524Zm64.308 581.998q-27.008 0-45.658-18.65-18.65-18.65-18.65-45.658v-81.692q0-11.049 7.419-18.524Q130.838-336 141.804-336q10.966 0 18.581 7.475T168-310.001v81.692q0 4.616 3.846 8.463 3.847 3.846 8.463 3.846h81.692q11.049 0 18.524 7.418Q288-201.164 288-190.198q0 10.966-7.475 18.581-7.475 7.616-18.524 7.616h-81.692ZM792-745.999v-81.692q0-4.616-3.846-8.463-3.847-3.846-8.463-3.846h-81.692q-11.049 0-18.524-7.418Q672-854.836 672-865.802q0-10.966 7.475-18.581 7.475-7.616 18.524-7.616h81.692q27.008 0 45.658 18.65 18.65 18.65 18.65 45.658v81.692q0 11.049-7.419 18.524Q829.162-720 818.196-720q-10.966 0-18.581-7.475T792-745.999ZM527.752-606.154q-32.444 0-55.021-22.825-22.577-22.824-22.577-55.269 0-32.444 22.825-55.021 22.824-22.577 55.269-22.577 32.444 0 55.021 22.825 22.577 22.824 22.577 55.269 0 32.444-22.825 55.021-22.824 22.577-55.269 22.577ZM366.309-300.309l37.769-192.615-102.079 44.385V-372q0 11.05-7.418 18.524-7.418 7.475-18.384 7.475-10.966 0-18.581-7.475-7.615-7.474-7.615-18.524v-90.154q0-9.957 5.573-17.841 5.574-7.883 14.504-12.081l132.692-55q14.384-5.693 28.738-12.308 14.353-6.615 32.532-6.615 20.267 0 39.96 10.153 19.692 10.154 30.538 28.231l35 56q9.231 14.846 20.917 26.938 11.686 12.092 27.621 20.754l-20.999 38.537q-21.77-13.923-40.039-32.308Q538.769-436.079 524-459.31l-30.693 159.001H366.309Zm199.998 184.308q-20.23 0-31.345-17.692-11.116-17.692.192-35.692l171-292.615q9.538-18.385 29.768-18 20.231.385 30.923 17.615l171 293q10.923 18.384.048 35.884t-31.586 17.5h-340Zm170-64.308q8.677 0 15.185-6.507 6.507-6.508 6.507-15.185t-6.507-15.184q-6.508-6.508-15.185-6.508t-15.184 6.508q-6.508 6.507-6.508 15.184t6.508 15.185q6.507 6.507 15.184 6.507Zm0-96q8.677 0 15.185-6.507 6.507-6.508 6.507-15.185v-48q0-8.677-6.507-15.184-6.508-6.508-15.185-6.508t-15.184 6.508q-6.508 6.507-6.508 15.184v48q0 8.677 6.508 15.185 6.507 6.507 15.184 6.507Z"/></svg>