<svg xmlns="http://www.w3.org/2000/svg" height="40" viewBox="0 -960 960 960" width="40"><path d="M480-480ZM189.06-113.3q-31 0-53.38-22.38-22.38-22.38-22.38-53.38v-581.88q0-31.06 22.38-53.49 22.38-22.43 53.38-22.43h309.17q16 0 26.94 11.07 10.94 11.07 10.94 27.1 0 16.04-10.94 26.89-10.94 10.86-26.94 10.86H189.06v581.88h581.88v-309.17q0-16 10.97-26.94 10.98-10.94 27.01-10.94 16.04 0 26.99 10.94t10.95 26.94v309.17q0 31-22.43 53.38Q802-113.3 770.94-113.3H189.06ZM240-281.33h480L574-476 449.33-311.33 356.67-434 240-281.33Zm450.24-408.25h-52.71q-14.77 0-24.76-10.09-9.99-10.1-9.99-24.99 0-14.78 10.06-24.67 10.06-9.88 24.94-9.88h52.48v-52.73q0-14.79 10.08-24.85 10.07-10.07 24.97-10.07 14.79 0 24.68 10.07 9.89 10.06 9.89 24.85v52.73h52.06q14.79 0 24.85 10.01 10.07 10.01 10.07 24.8 0 14.79-10.07 24.8-10.06 10.01-24.85 10.01h-52.06v52.05q0 14.77-10.01 24.77-10 9.99-24.79 9.99-14.78 0-24.81-10.06t-10.03-24.93v-51.81Z"/></svg>