<svg xmlns="http://www.w3.org/2000/svg" height="40" viewBox="0 -960 960 960" width="40"><path d="m558.78-625.67 307.48 213.59q9.46 6.89 15.03 16.98 5.57 10.09 5.57 22.3v21.6q0 25.91-21.1 39.69-21.09 13.77-44.5 4.15l-125.63-48.72-294.41-294.3v-157.69q0-32.25 23.19-55.52 23.18-23.27 55.59-23.27 32.41 0 55.59 23.27 23.19 23.27 23.19 55.52v182.4ZM480-134.23 329.3-88.66q-19.68 5.81-35.61-6.31-15.94-12.12-15.94-32.12v-22.34q0-9.62 4.69-18.41 4.68-8.79 12.81-14.44l105.97-73.79v-154.7L138.74-305.12q-23.41 9.46-44.42-4.57-21.02-14.03-21.02-39.94v-20.93q0-12.21 5.49-22.3T93.9-410l206.41-145.43L77.5-778.24q-10.22-10.22-10.34-24.41-.12-14.18 10.26-24.41 10.22-10.22 24.33-10.22 14.1 0 24.49 10.22L827.3-125.33q10.22 10.22 10.1 24.7-.12 14.48-10.34 23.88-9.56 9.55-24.37 9.22-14.81-.33-24.21-9.89L563.01-292.65v37.06L664-178.94q7.97 5.65 12.66 14.44 4.68 8.79 4.68 18.41v23.17q0 19.83-15.93 31.62-15.94 11.79-35.61 5.98L480-134.23Z"/></svg>