<svg xmlns="http://www.w3.org/2000/svg" height="40" viewBox="0 -960 960 960" width="40"><path d="m560.24-429.91 79.86 79.71q10.31 10.46 24.89 10.42 14.58-.04 25.05-10.54 10.46-10.49 10.46-25.38 0-14.88-10.46-25.34L610.33-480l79.04-79.2q10.46-10.5 10.46-25.06 0-14.57-10.46-24.95-10.46-10.38-25.38-10.38-14.92 0-25.22 10.3l-78.53 79.2-79.86-79.87q-10.51-10.3-24.95-10.3t-24.91 10.38q-10.46 10.39-10.46 25.28 0 14.9 10.46 25.4l79.63 79.2-79.87 79.2q-10.46 10.5-10.34 24.94.12 14.45 10.62 24.91 10.49 10.46 25.38 10.46 14.88 0 25.34-10.46l78.96-78.96ZM355.72-153.3q-18.21 0-34.31-8.08-16.09-8.08-26.51-22.34L107.29-434.66q-15.17-19.92-15.17-45.23 0-25.31 15.17-45.45l186.94-250.94q10.42-14.33 26.52-22.45 16.1-8.13 34.31-8.13h456.55q31.56 0 53.74 22.18 22.17 22.18 22.17 53.74v501.88q0 31.5-22.17 53.63-22.18 22.13-53.74 22.13H355.72Zm-.31-75.52h456.44v-502.36H355.41L167.8-480l187.61 251.18ZM489.94-480Z"/></svg>