<svg xmlns="http://www.w3.org/2000/svg" height="40" viewBox="0 -960 960 960" width="40"><path d="M480.17-66.21q-117.31 0-191.61-35.44-74.31-35.44-74.31-91.13 0-24.23 14.37-44.69 14.36-20.46 43.58-36.96 13.68-7.15 28.44-3.33 14.76 3.83 21.9 17.58 7.15 13.75 3.28 28.51-3.87 14.76-17.54 21.91-5.5 4-10.08 8.33-4.59 4.34-8.59 8.34 16.9 20.45 73.55 35.71 56.66 15.26 116.92 15.26 60.26 0 116.94-15.26t73.61-35.71q-4-4-8.59-8.34-4.58-4.33-10.08-8.33-13.67-7.15-17.54-21.91-3.87-14.76 3.28-28.59 6.98-13.67 21.74-17.5 14.76-3.82 28.6 3.33 29.06 16.5 43.5 36.96 14.45 20.46 14.45 44.69 0 55.69-74.26 91.13-74.25 35.44-191.56 35.44Zm1.31-221.59q104.31-76.82 157.01-155.87 52.69-79.06 52.69-151.43 0-106.91-68.22-161.38-68.22-54.46-142.71-54.46-74.12 0-142.66 54.46-68.53 54.46-68.53 161.41 0 70 52.44 145.99 52.44 76 159.98 161.28Zm-1.24 76.92q-11.36 0-22.63-3.74-11.28-3.73-20.82-11.19-122.45-96.88-182.93-188.84-60.48-91.97-60.48-180.39 0-72.11 26.16-126.74 26.16-54.63 67.42-91.39 41.25-36.76 92.21-55.22 50.95-18.47 101.02-18.47 50.07 0 101.33 18.47 51.26 18.46 92.15 55.22 40.9 36.76 67.04 91.39 26.15 54.63 26.15 126.74 0 88.27-60.52 180.07T523.02-226.05q-9.65 7.58-20.5 11.37-10.86 3.8-22.28 3.8Zm-.07-308.32q33.87 0 57.92-24.04 24.06-24.04 24.06-57.8 0-33.87-24.07-57.89-24.07-24.02-57.87-24.02-33.9 0-58.01 24.02t-24.11 57.85q0 33.84 24.11 57.86 24.11 24.02 57.97 24.02Zm.07-81.84Z"/></svg>