<svg xmlns="http://www.w3.org/2000/svg" height="40" viewBox="0 -960 960 960" width="40"><path d="M153.3-552.8q0-150.79 96.38-241.15 96.39-90.35 223.94-92.67 16.86 0 33.05 2.34 16.19 2.33 31.71 7 15.5 2.35 24.73 14.81 9.22 12.47 6.72 27.97-2.67 15.66-14.98 24.77t-27.81 6.44q-13.01-4-26.37-5.67-13.37-1.66-27.05-1.66-103.14 2.15-173.85 73.96-70.71 71.81-70.71 183.86 0 75.74 62.48 169.28Q354.02-289.99 480-173.34q125.67-114.33 187.07-206.75 61.4-92.42 63.55-166.33 0-12-1-23.33-1-11.34-1-22-1.68-15.5 7.67-27.75 9.35-12.24 25.01-13.92 15.5-1.52 27.74 7.82 12.24 9.35 13.76 25.01 1.34 13.18 2.34 27.38 1 14.2 1 28.7-2.47 96-72.84 203.06-70.37 107.07-206.1 227.23-9.71 8.99-22.14 13.23-12.42 4.24-25.06 4.24-12.64 0-25.06-4.24-12.43-4.24-21.98-13.23-51.1-45.89-101.23-98.13-50.14-52.24-89.74-108.47-39.61-56.23-64.15-114.98-24.54-58.75-24.54-117Zm326.7 0Zm51.83 10.45L754.7-765.22q5.89-5.89 5.89-13.59t-5.89-13.6l-40.29-40.29q-5.9-5.89-13.6-5.89-7.7 0-13.59 5.89L464.35-609.83q-5.89 5.89-8.59 12.48-2.69 6.59-2.69 14.13v23.39q0 11.68 8.21 20.22 8.2 8.54 19.89 8.54h24.05q7.54 0 14.13-2.69 6.59-2.7 12.48-8.59Zm255.85-282.8q5.73 5.9 13.52 5.9 7.78 0 13.67-5.9L831.72-842q9.56-9.72 9.56-23.28 0-13.55-9.56-23.11l-21.33-21.33q-9.4-9.4-22.95-9.64-13.56-.24-22.96 9.16l-17.33 17.33q-5.9 5.89-5.9 13.67 0 7.79 5.9 13.52l40.53 40.53Z"/></svg>