<svg xmlns="http://www.w3.org/2000/svg" height="40" viewBox="0 -960 960 960" width="40"><path d="M480-886.86q44.51 0 83.28 8.26 38.76 8.26 85.1 27.39l-100.42 45.06q-16.03-3.6-30.89-5.39-14.87-1.79-37.07-1.79-18 0-39.33 2.45-21.34 2.45-40 7.88 64 80 140.33 128.83 76.33 48.84 199.67 40.84H743.74l27.56 64.7q-119.79 15.24-217.28-23.67-97.5-38.9-168.13-122.88-33.61 81.46-96.63 140.28-63.02 58.83-140.2 88.55 0 141.65 96.49 239.47T480-149.06q139.31 0 235.42-97.37 96.11-97.38 95.76-233.57 0-17.5-1.88-31.27t-3.56-26.03l46.8-106.5q18.03 43.54 26.21 81.52t8.18 82.28q0 83.67-31.51 157.82-31.51 74.15-86.54 129.36-55.02 55.21-129.22 87.36Q565.46-73.3 480-73.3q-84.69 0-158.88-31.73-74.2-31.72-129.28-86.81-55.09-55.08-86.81-129.28Q73.3-395.31 73.3-480q0-85.46 31.95-159.75 31.95-74.28 87.24-129.23 55.3-54.95 129.32-86.41 74.02-31.47 158.19-31.47ZM357.04-491.22q22.65 0 37.93 15.28 15.29 15.29 15.29 37.94t-15.29 37.94q-15.28 15.28-37.93 15.28-22.66 0-37.94-15.28-15.29-15.29-15.29-37.94t15.29-37.94q15.28-15.28 37.94-15.28ZM573.22-718Zm30.41 226.78q22.65 0 38.02 15.28 15.36 15.29 15.36 37.94t-15.36 37.94q-15.37 15.28-38.02 15.28-22.65 0-37.94-15.28-15.28-15.29-15.28-37.94t15.28-37.94q15.29-15.28 37.94-15.28Zm147.46-259.45-67.02-29.29q-8.71-3.99-8.71-13.37 0-9.39 8.71-13.37l67.02-28.63 31.46-70.52q3.83-8.56 13.21-8.22 9.39.33 13.37 8.89l30.63 69.85 67.18 28.63q8.56 3.98 8.56 13.37 0 9.38-8.56 13.37l-67.18 29.29-30.63 69.85q-3.98 8.56-13.37 8.89-9.38.34-13.21-8.22l-31.46-70.52ZM159-567q49-21.67 102.67-79 53.66-57.33 77.33-136.33-75 35.66-117.33 91Q179.33-636 159-567Zm180-215.33Z"/></svg>