<svg xmlns="http://www.w3.org/2000/svg" height="48" viewBox="0 -960 960 960" width="48"><path d="M479.891-194.022H222.152q-28.349 0-48.24-19.89-19.89-19.891-19.89-48.24v-386.891q0-16.171 7.133-30.558 7.134-14.386 19.975-23.899l257.848-193.565q9.491-6.718 19.874-10.076 10.384-3.359 21.364-3.359t21.209 3.359q10.23 3.358 19.597 10.076l258.565 194.043q12.446 9.207 19.538 23.247 7.093 14.041 7.093 30.014v129.652q0 14.424-9.988 24.245-9.988 9.82-25.21 9.82-14.259 0-23.716-9.581-9.456-9.582-9.456-23.767v-129.651L480-842.37 222.152-648.964v386.812h257.739q14.424 0 24.245 9.871 9.82 9.871 9.82 24.37 0 14.498-9.82 24.194-9.821 9.695-24.245 9.695ZM480-552.761ZM740-93.956l-51.109-114.935L573.956-260l114.935-51.348L740-426.044l51.348 114.696L906.044-260l-114.696 51.109L740-93.956Z"/></svg>