<svg xmlns="http://www.w3.org/2000/svg" height="40" viewBox="0 -960 960 960" width="40"><path d="M152.67-722.43H432.63 152.67Zm18.5 650.4q-9.17 0-15.19-5.3-6.01-5.31-8.61-12.91-2.44-7.44-.02-15.02 2.41-7.58 10.16-12.99l55.79-37.45q-59.27-2.94-99.63-46.38Q73.3-245.51 73.3-305.34v-389.05q0-76.67 72.03-110.48 72.02-33.8 251.6-39.45 16.13-.32 27.22 9.92 11.09 10.25 11.33 26.5.24 16.24-10.22 27.31t-26.75 11.39q-119.48 2.13-174.9 13.07-55.42 10.94-70.94 33.7H387.8q14.01 0 23.67 9.62 9.66 9.62 9.66 23.83 0 14.22-9.66 23.72-9.66 9.5-23.67 9.5H149.06v155.89h405.73q14.49 0 23.87 9.62 9.37 9.61 9.37 23.83 0 14.22-9.66 23.72-9.67 9.5-23.67 9.5H149.06v127.86q0 31.73 22.27 54.01 22.28 22.27 54.01 22.27h348.28q32.23 0 54.78-22.54 22.54-22.55 22.54-54.78v-74.73q0-16 10.97-26.94 10.98-10.94 27.03-10.94t26.98 10.94q10.94 10.94 10.94 26.94v75.77q0 59.83-40.45 103.26-40.44 43.44-99.55 46.38l55.63 37.45q7.75 5.41 10.16 12.99 2.42 7.58-.02 15.02-2.6 7.6-8.61 12.91-6.02 5.3-15.19 5.3H171.17Zm521.81-426.83q-80.62 0-137.37-56.76t-56.75-137.56q0-79.76 56.7-136.72 56.71-56.96 137.3-56.96 80.84 0 137.42 56.58 56.58 56.58 56.58 137.42 0 81-56.71 137.5t-137.17 56.5Zm1.88-163.05q8.71 0 14.31-5.86 5.6-5.85 5.6-14.72v-108.02q0-8.87-5.93-14.47-5.93-5.6-14.65-5.6-8.88 0-14.48 5.93-5.59 5.93-5.59 14.81v108.01q0 8.88 5.93 14.4t14.81 5.52Zm-.34 88.35q9.88 0 16.73-6.4t6.85-16.77q0-10.21-6.92-16.84-6.91-6.64-16.32-6.64-10.88.67-17.15 7.3-6.26 6.64-6.26 16.52 0 10.03 6.52 16.43t16.55 6.4ZM400.04-275.7q23.63 0 40.13-16.54 16.5-16.54 16.5-40.17 0-23.47-16.54-40.05t-40.17-16.58q-23.63 0-40.13 16.62-16.5 16.62-16.5 40.09 0 23.63 16.54 40.13 16.54 16.5 40.17 16.5Zm250.9-157.5H149.06h501.88Z"/></svg>