<svg xmlns="http://www.w3.org/2000/svg" height="20" viewBox="0 -960 960 960" width="20"><path d="M380.413-238.087H192q-21.674 0-36.63-15.116-14.957-15.116-14.957-36.71v-380.174q0-21.594 14.957-36.71 14.956-15.116 36.63-15.116h166.087q20.956 0 35.435 14.478Q408-692.957 408-672t-14.478 35.435q-14.479 14.478-35.435 14.478H240v92.174h140.413q21.674-1 36.63 14.408Q432-500.098 432-478.087v188.174q0 21.594-14.957 36.71-14.956 15.116-36.63 15.116ZM240-430.087v92.174h92.413v-92.174H240Zm339.587 92.174H720v-284.174H579.587v284.174Zm0 99.826q-41.674 0-70.63-29.116Q480-296.319 480-337.913v-284.174q0-41.594 28.957-70.71 28.956-29.116 70.63-29.116H720q41.674 0 70.63 29.116 28.957 29.116 28.957 70.71v284.174q0 41.594-28.957 70.71-28.956 29.116-70.63 29.116H579.587Z"/></svg>