<svg xmlns="http://www.w3.org/2000/svg" height="20" viewBox="0 -960 960 960" width="20"><path d="M218.87-135.869q-34.238 0-58.619-24.382-24.382-24.381-24.382-58.619v-498.239q0-.956.12-2.032.12-1.077.12-1.555l-24.696-24.695q-11.717-11.718-11.717-26.332 0-14.613 11.478-26.06 11.717-11.717 26.815-11.717t26.815 11.717l634.137 634.137q11.559 11.668 11.559 26.45 0 14.783-11.478 26.74-11.478 11.239-26.196 11.12-14.717-.12-26.196-11.599l-25.934-24.934H218.87Zm0-83.001h418.826L218.87-637.696v418.826Zm565.261-70.565q-15.001 0-27.566-10.176T744-329.5v-295.935H474.935q-16.433 0-31.325-5.837-14.893-5.837-27.658-18.602L312.261-753.565q-9.196-9.196-11.054-21.239-1.859-12.044 3.048-23.729 4.049-11.685 13.984-18.641 9.935-6.957 23.609-6.957H741.13q34.238 0 58.619 24.382 24.382 24.381 24.382 58.619v411.63q0 20.033-12.5 30.049-12.5 10.016-27.5 10.016Z"/></svg>