<svg xmlns="http://www.w3.org/2000/svg" height="20" viewBox="0 -960 960 960" width="20"><path d="M438.5-438.5H273.37q-17.453 0-29.477-11.963-12.024-11.964-12.024-29.326 0-17.363 12.024-29.537T273.37-521.5H438.5v-165.13q0-17.453 11.963-29.477 11.964-12.024 29.326-12.024 17.363 0 29.537 12.024T521.5-686.63v165.13h165.13q17.453 0 29.477 11.963 12.024 11.964 12.024 29.326 0 17.363-12.024 29.537T686.63-438.5H521.5v165.13q0 17.453-11.963 29.477-11.964 12.024-29.326 12.024-17.363 0-29.537-12.024T438.5-273.37V-438.5Z"/></svg>