<svg xmlns="http://www.w3.org/2000/svg" height="20" viewBox="0 -960 960 960" width="20"><path d="M233.674-113.304q-19.152 0-36.163-9.815-17.011-9.816-26-25.554l-95.74-166.719q-8.989-15.738-9.108-35.369-.12-19.63 9.315-35.783l246.326-424.608q9.435-16.152 26.326-25.848 16.892-9.696 35.608-9.696h191.524q18.716 0 35.608 9.696 16.891 9.696 26.536 26.277l142.051 244.766q12.673 20.631.5 41.381-12.174 20.75-36.522 20.75-11.435 0-20.631-5.837-9.195-5.837-14.913-15.033l-139.782-239H391.391L151.022-351l89.369 154.696h307.326q9.196 0 18.011 4.097 8.815 4.098 14.533 11.294 16.152 21.307 4.858 44.458-11.293 23.151-37.402 23.151H233.674Zm87.565-177.218q-10.729 0-19.919-5.717-9.19-5.718-14.907-14.674l-5.565-9.37q-5.718-9.295-5.718-20.63 0-11.335 5.718-20.631l151.326-262.891q5.717-9.435 15.146-15.152 9.429-5.717 20.397-5.717h24.566q10.968 0 20.397 5.717 9.429 5.717 15.146 15.152l83.457 144.63q5.717 11.435 4.978 23.25-.739 11.816-8.935 21.772-13.435 16.196-33.967 15.196-20.533-1-31.49-19.913L480-547.391l-101.435 177.26H514.63q18.717 0 30.25 14.424 11.533 14.424 7.816 33.316-2.718 14.434-13.555 23.152-10.837 8.717-25.272 8.717h-192.63Zm405.261 43.77H660q-17.452 0-29.476-12.048-12.024-12.048-12.024-29.434 0-17.386 12.024-29.365T660-329.578h66.5v-66.188q0-17.386 11.963-29.56 11.964-12.174 29.326-12.174 17.363 0 29.411 12.024 12.048 12.024 12.048 29.476v66.5h66.668q17.488 0 29.536 12.024Q917.5-305.452 917.5-288q0 17.452-12.048 29.476-12.048 12.024-29.536 12.024h-66.668v66.5q0 17.452-12.048 29.476Q785.152-138.5 768-138.5q-17.452 0-29.476-12.048-12.024-12.048-12.024-29.536v-66.668Z"/></svg>