<svg xmlns="http://www.w3.org/2000/svg" height="20" viewBox="0 -960 960 960" width="20"><path d="M265.913-192q-47.848 0-82.13-32.609-34.283-32.608-36.913-79.978h-24q-33.287 0-56.829-23.541Q42.5-351.669 42.5-384.957v-283.456q0-34.483 24.259-58.741 24.258-24.259 58.741-24.259h513.152q16.433 0 31.325 5.837 14.893 5.837 27.77 18.714l195.202 195.441q12.877 12.877 18.714 27.77 5.837 14.892 5.837 31.325v87.369q0 33.288-23.541 56.829-23.542 23.541-56.829 23.541h-24q-2.63 47.37-36.913 79.978Q741.935-192 694.087-192t-82.011-32.609q-34.163-32.608-36.793-79.978H384.717q-2.63 47.37-36.793 79.978Q313.761-192 265.913-192Zm284.174-360h205.935L639.848-668.413h-89.761V-552Zm-212.174 0h140.174v-116.413H337.913V-552ZM125.5-552h140.413v-116.413H125.5V-552Zm140.3 288q20.113 0 34.113-13.887 14-13.888 14-34 0-20.113-13.887-34.113-13.888-14-34-14-20.113 0-34.113 13.887-14 13.888-14 34Q217.913-292 231.8-278q13.888 14 34 14Zm428.174 0q20.113 0 34.113-13.887 14-13.888 14-34Q742.087-332 728.2-346q-13.888-14-34-14-20.113 0-34.113 13.887-14 13.888-14 34 0 20.113 13.887 34.113 13.888 14 34 14ZM361.913-384h236.174q17-23 42-35.5t54-12.5q29 0 53.5 12.5t42.5 35.5H834.5v-96h-709v96h44.413q18-23 42.5-35.5t53.5-12.5q29 0 54 12.5t42 35.5ZM834.5-480h-709 709Z"/></svg>