<svg xmlns="http://www.w3.org/2000/svg" height="20" viewBox="0 -960 960 960" width="20"><path d="M746.826-623.131q-25.956 25.957-59.674 39.696-33.717 13.739-69.913 13.739t-70.152-13.859q-33.957-13.858-59.913-39.576l-74-74q-14.283-14.282-33.207-21.304-18.924-7.022-38.967-7.022-19.043 0-36.967 7.522t-32.207 20.804l-50 49q-12.674 12.674-28.946 12.294-16.271-.381-28.945-13.054-12.674-12.674-12.674-28.946 0-16.272 12.674-28.946l49.239-49q25.717-25.717 58.554-39.696 32.837-13.978 69.033-13.978t70.272 13.978q34.076 13.979 59.793 39.696l74 74q15.044 14.043 33.087 22.185 18.044 8.141 39.087 8.141 20.043 0 38.587-8.641 18.543-8.642 32.587-21.685l49-49q12.674-12.674 29.326-12.674t29.326 12.674q12.674 12.674 12.674 29.446 0 16.772-12.674 29.446l-49 48.76Zm0 208.957q-26.956 25.957-60.293 40.315Q653.196-359.5 617-359.5t-69.533-14.359q-33.337-14.358-60.293-40.315l-74-74q-14.283-15.282-33.207-21.804Q361.043-516.5 341-516.5q-19.043 0-37.467 7.522t-31.707 20.804l-49 49Q210.152-426.5 194-426.619q-16.152-.12-28.826-12.555Q152.5-451.848 152.5-468.5t12.674-29.326l48-48q25.717-25.718 58.554-40.196 32.837-14.478 69.033-14.478t70.272 14.478q34.076 14.478 59.793 40.196l74 74q15.044 14.043 33.587 21.685Q596.957-442.5 617-442.5q20.043 0 38.587-8.141 18.543-8.142 32.587-21.185l50-49Q750.848-533.5 767-533.5t28.826 12.674Q808.5-508.152 808.5-491.88q0 16.271-12.674 28.945l-49 48.761Zm1 209.957q-26.717 26.717-60.174 40.196-33.456 13.478-70.652 13.478-36.196 0-70.033-13.978-33.837-13.979-59.793-39.696l-74-74q-14.283-15.283-33.207-21.804-18.924-6.522-39.967-6.522-19.043 0-36.967 7.522-17.924 7.521-31.207 20.804l-49 49Q210.152-216.304 194-216.924q-16.152-.619-28.826-13.293T152.5-259.043q0-16.152 12.674-28.826l48-49q25.717-25.957 58.554-39.816 32.837-13.858 69.033-13.858t70.272 13.978q34.076 13.978 59.793 39.696l74 74q15.044 14.043 33.587 21.684 18.544 7.642 39.587 7.642 20.043 0 38.087-8.142 18.043-8.141 32.087-21.184l49.761-49q12.674-12.674 29.065-12.174 16.391.5 28.826 13.174 12.674 12.674 12.555 28.945-.12 16.272-12.555 28.707l-48 49Z"/></svg>