<svg xmlns="http://www.w3.org/2000/svg" height="20" viewBox="0 -960 960 960" width="20"><path d="M438.5-129.37v-175.217H297.37q-22.292 0-37.896-15.604-15.605-15.604-15.605-37.896t15.605-37.896q15.604-15.604 37.896-15.604H438.5v-160.826H188.891q-22.092 0-37.557-15.435-15.465-15.435-15.465-37.706 0-22.272 15.465-38.066 15.465-15.793 37.557-15.793H438.5V-830.63q0-17.453 11.963-29.477 11.964-12.024 29.326-12.024 17.363 0 29.537 12.024T521.5-830.63v151.217h249.609q22.092 0 37.557 15.674 15.465 15.674 15.465 38.065 0 22.192-15.465 37.727-15.465 15.534-37.557 15.534H521.5v160.826h141.13q22.292 0 37.896 15.604 15.605 15.604 15.605 37.896t-15.605 37.896q-15.604 15.604-37.896 15.604H521.5v175.217q0 17.453-11.963 29.477-11.964 12.024-29.326 12.024-17.363 0-29.537-12.024T438.5-129.37Z"/></svg>