<svg xmlns="http://www.w3.org/2000/svg" height="20" viewBox="0 -960 960 960" width="20"><path d="M438.5-844.783v-48.435q0-17.452 11.963-29.476 11.964-12.024 29.326-12.024 17.363 0 29.537 12.024t12.174 29.476v48.435q0 17.452-11.963 29.476-11.964 12.024-29.326 12.024-17.363 0-29.537-12.024T438.5-844.783Zm-191.37 74.391-56.065-56.065q-12.674-12.594-12.674-28.786t12.674-28.866q12.674-12.674 29.204-12.674 16.529 0 28.927 12.674l55.586 55.826q12.674 12.332 12.674 28.775 0 16.442-12.674 29.116-12.673 12.674-28.866 12.674-16.192 0-28.786-12.674ZM135.869-417.65q0-7.66 1.62-15.081 1.62-7.421 4.098-15.378l72.761-181.521q8.956-22.631 29.032-36.566 20.076-13.935 45.62-13.935h93.087v-33.876q0-17.363 12.024-29.537t29.476-12.174h30.283q13.612 0 20.86 12.294 7.248 12.293 1.053 24.728-6.479 17.478-9.957 36.848-3.478 19.37-5.956 38.087-1.24 8.957-7.098 16.055-5.859 7.097-14.815 9.576H291.152l-40.978 126.651h232.065q16.974 0 28.639 11.605t11.665 28.489q0 16.885-11.665 28.7-11.665 11.815-28.639 11.815H218.87v168h522.26v-81.608q0-17.452 11.964-29.476 11.963-12.024 29.326-12.024t29.537 12.024q12.174 12.024 12.174 29.476v184.304q0 21.794-15.256 37.049-15.255 15.256-37.049 15.256-21.674 0-37.109-15.435-15.434-15.435-15.434-37.109v-19.456H240.717v19.695q0 21.794-15.255 37.049-15.256 15.256-37.049 15.256-21.674 0-37.109-15.435-15.435-15.435-15.435-37.109V-417.65Zm238.738 126.78q15.263 0 25.763-10.289 10.5-10.29 10.5-25.5 0-15.211-10.325-25.711-10.325-10.5-25.588-10.5h-71.825q-15.262 0-25.762 10.29-10.5 10.289-10.5 25.5 0 15.21 10.324 25.71 10.325 10.5 25.588 10.5h71.825Zm210.436 0h71.825q15.262 0 25.762-10.289 10.5-10.29 10.5-25.5 0-15.211-10.324-25.711-10.325-10.5-25.588-10.5h-71.825q-15.263 0-25.763 10.29-10.5 10.289-10.5 25.5 0 15.21 10.325 25.71t25.588 10.5Zm-366.173-120v168-168Zm476-199.804-24.196-23.196q-7.239-7.239-17.717-7.358-10.479-.12-17.718 7.119Q628-626.87 628-616.617t7.239 17.943l30.326 29.326q12.67 12.674 29.564 12.674 16.893 0 29.567-12.674l85.087-90.326q7.239-8.261 7.239-18.037 0-9.777-8.239-17.087-8.239-7.311-18.098-7.43-9.859-.12-17.098 8.358l-78.717 83.196Zm27.987-208.196q79.773 0 135.773 56.227 56 56.226 56 136 0 79.773-56.226 135.773t-136 56q-79.774 0-135.774-56.226t-56-136q0-79.774 56.227-135.774 56.226-56 136-56Z"/></svg>