<svg xmlns="http://www.w3.org/2000/svg" height="20" viewBox="0 -960 960 960" width="20"><path d="M42.87-259.456q9.193-106.962 69.912-194.612 60.718-87.649 154.153-140.606L189.5-727.826q-5-9.239-2.256-18.559 2.745-9.319 11.495-14.159 8.478-5.239 18.57-3.143t15.147 11.383l78.196 136.391Q392.087-650.63 480.5-650.63q88.413 0 169.848 34.717l77.106-136.458q5.09-9.173 15.209-11.292 10.12-2.12 18.598 3.119 8.75 4.84 11.495 14.159 2.744 9.32-2.256 18.559l-77.435 133.152q93.435 52.957 154.153 140.606 60.719 87.65 69.913 194.612H42.869Zm241.484-54.914q20.537 0 34.657-14.18 14.119-14.18 14.119-34.717t-14.007-34.776q-14.006-14.24-34.543-14.24-20.538 0-34.831 14.181-14.293 14.18-14.293 34.717t14.181 34.776q14.18 14.239 34.717 14.239Zm391.174 0q20.537 0 34.776-14.18 14.24-14.18 14.24-34.717t-14.181-34.776q-14.18-14.24-34.717-14.24t-34.776 14.181q-14.24 14.18-14.24 34.717t14.181 34.776q14.18 14.239 34.717 14.239Z"/></svg>