<svg xmlns="http://www.w3.org/2000/svg" height="20" viewBox="0 -960 960 960" width="20"><path d="M360-90.978q-55.196 0-103.413-19.739t-87.174-58.696q-38.957-38.957-58.696-87.174Q90.978-304.804 90.978-360q0-77.674 39.359-142.011 39.359-64.337 108.359-98.337 17-37 48.978-68.978 31.978-31.978 71.978-51.978 34.478-68 99.413-107.859Q524-869.022 600-869.022q55.196 0 103.413 19.739t87.174 58.696q38.957 38.957 58.696 87.413 19.739 48.457 19.739 103.652 0 75.326-37.663 139.022T721.304-359.652q-17.804 37.848-50.858 71.119-33.055 33.272-70.098 49.598-35 68-98.978 107.979Q437.391-90.978 360-90.978Zm.478-79.174q30.848.239 62.435-11.424 31.587-11.663 55.435-32.989-53.566 1.043-101.75-19.098-48.185-20.141-86.468-58.185-38.282-38.043-57.924-85.369-19.641-47.326-18.358-100.652-20.848 24.565-32.272 55.913-11.424 31.347-11.424 61.956 0 38.522 13.761 72.043 13.761 33.522 41.522 61.283 27.761 27.761 62.022 41.902 34.26 14.142 73.021 14.62Zm120-120q31.609 0 62.218-11.424Q573.304-313 598.63-333.848q-52.565 1.044-101.25-18.478-48.684-19.522-87.967-58.804-39.283-39.283-58.424-86.229-19.141-46.945-17.619-100.51-20.848 24.565-32.033 54.793-11.185 30.228-11.185 63.076 0 38.522 14 72.163t41.522 61.402q27.761 27.522 62.022 41.902 34.261 14.381 72.782 14.381Zm116.522-121q17 0 32.783-2.381 15.782-2.38 29.782-7.38 16.805-52.044 4.924-103.467-11.88-51.424-50.402-89.707-38.283-38.522-89.707-50.402-51.423-11.881-103.467 4.924-5 14.239-7.38 30.022-2.381 15.782-2.381 32.543 0 36.522 14.381 70.163 14.38 33.641 39.902 59.402 26.761 26.522 61.402 41.402 34.641 14.881 70.163 14.881Zm149.87-71.696q20.369-22.848 31.673-53.576 11.305-30.728 11.305-63.576 0-37.522-14.261-72.163t-41.783-62.402q-27.761-27.522-61.282-41.402-33.522-13.881-72.044-13.881-31.13 0-61.956 11.424Q507.696-767 482.848-746.63q55.087-.566 101.533 18.695 46.445 19.261 85.728 58.305 39.282 39.043 58.424 85.369 19.141 46.326 18.337 101.413Z"/></svg>