<svg xmlns="http://www.w3.org/2000/svg" height="20" viewBox="0 -960 960 960" width="20"><path d="m539.11-459.35 143.74-93.58q16.04-10.18 16.04-28.28 0-18.09-16.04-28.38l-143.74-93.58q-17.04-11.29-34.97-1.94-17.92 9.34-17.92 30.02v187.66q0 20.68 17.92 30.02 17.93 9.34 34.97-1.94Zm-170.5 174.22q-37.78 0-60.39-22.61t-22.61-60.39v-426.02q0-37.78 22.61-60.39t60.39-22.61h426.26q37.78 0 60.39 22.61t22.61 60.39v426.02q0 37.78-22.61 60.39t-60.39 22.61H368.61Zm0-83h426.26v-426.02H368.61v426.02Zm213.13-213.13ZM221.09-165.37Zm13.19 82.52q-33.54 4.48-60.89-16.77t-32.06-54.79L83.8-577.43q-4.71-34.44 16.54-61.94t55.79-31.26l18.72-2q19.39-1.76 31.94 10.29 12.56 12.06 12.56 31.33 0 16.06-9.94 27.84-9.93 11.78-26.08 13.54l-16.76 2 56.28 422.26 454.58-61.28q17.65-2.24 31.25 8.01 13.61 10.26 15.7 27.5 2.27 17.18-8.08 31.13-10.36 13.95-27.67 16.12L234.28-82.85Z"/></svg>