<svg xmlns="http://www.w3.org/2000/svg" height="20" viewBox="0 -960 960 960" width="20"><path d="M734.413-336q-60.5 0-102.5-42t-42-102q0-60 42-102t102.5-42q60.5 0 102 42t41.5 102q0 60-41.5 102t-102 42Zm-.5-48q14 0 25.5-3.25t22.5-9.75L650.785-528q-5.872 11-9.372 22.5t-3.5 25.5q0 40.32 27.84 68.16 27.84 27.84 68.16 27.84Zm83.129-48q5.871-11 9.371-22.5t3.5-25.5q0-40.32-27.84-68.16-27.84-27.84-68.16-27.84-14 0-25.5 3.25t-22.5 9.75l131.129 131ZM267.587-40.587q-34.238 0-58.619-24.381t-24.381-58.619v-712.826q0-34.238 24.381-58.619t58.619-24.381h424.826q34.238 0 58.619 24.381t24.381 58.619v132q0 17.452-11.963 29.476-11.964 12.024-29.326 12.024-17.363 0-29.537-12.024t-12.174-29.476v-12H267.587v472.826h424.826v-12q0-17.452 11.963-29.476 11.964-12.024 29.327-12.024 17.362 0 29.536 12.024 12.174 12.024 12.174 29.476v132q0 34.238-24.381 58.619t-58.619 24.381H267.587Zm0-131v48h424.826v-48H267.587Zm0-616.826h424.826v-48H267.587v48Zm0 0v-48 48Zm0 616.826v48-48Z"/></svg>