<svg xmlns="http://www.w3.org/2000/svg" height="20" viewBox="0 -960 960 960" width="20"><path d="M315.109-631.608V-324q0 17.452-11.964 29.476-11.963 12.024-29.326 12.024t-29.537-12.024Q232.109-306.548 232.109-324v-408q0-17.452 12.023-29.476 12.024-12.024 29.477-12.024h408q17.452 0 29.476 11.963 12.024 11.964 12.024 29.326 0 17.363-12.024 29.537T681.609-690.5H374l370.674 370.674q12.913 12.913 12.913 28.826t-12.913 28.826q-12.913 12.913-29.446 12.913-16.532 0-29.446-12.913L315.109-631.608Z"/></svg>