<svg xmlns="http://www.w3.org/2000/svg" height="20" viewBox="0 -960 960 960" width="20"><path d="M675.762-179.804q-41.711 0-70.736-28.97Q576-237.745 576-279.455q0-41.711 28.88-70.737 28.88-29.025 70.707-29.025 12.248 0 23.309 3.761 11.061 3.76 21.104 8.043v-154.926q0-16.792 12.024-28.966t29.476-12.174h46.326q16.825 0 28.206 11.321t11.381 28.056q0 16.645-11.381 28.341-11.381 11.696-28.206 11.696h-32.413v204.435q0 41.755-28.97 70.79-28.97 29.036-70.681 29.036Zm-500.919 0q-17.495 0-29.669-12.024T133-221.304v-59.109q0-28.152 13.576-51.565 13.576-23.413 37.728-37.37 55.478-32.239 117.583-49.478 62.104-17.239 127.243-17.239 19.435 0 38.392 1.739 18.956 1.739 38.391 5.217 21.689 4.093 29.758 17.818 8.068 13.726 5.351 29.639-2.718 15.913-14.772 26.489t-31.446 7.098q-16.478-2.239-32.956-3.62-16.478-1.38-32.718-1.38-53.275 0-104.681 13.402T227-298.5q-4.95 2.836-7.975 7.94Q216-285.456 216-279.217v16.413h260.373q20.833 0 31.209 12.934 10.375 12.935 10.375 28.457t-10.401 28.565q-10.401 13.044-31.202 13.044H174.843ZM429.13-484.065q-63.587 0-107.858-44.272Q277-572.609 277-636.196q0-63.587 44.272-107.739 44.271-44.152 107.858-44.152t107.74 44.152q44.152 44.152 44.152 107.739T536.87-528.337q-44.153 44.272-107.74 44.272Zm.204-83.001q28.601 0 48.644-20.366 20.044-20.367 20.044-48.968 0-28.6-20.3-48.644-20.299-20.043-48.804-20.043-28.604 0-48.761 20.299Q360-664.489 360-635.984q0 28.604 20.367 48.761 20.367 20.157 48.967 20.157Zm-.204-69.13Zm0 373.392Z"/></svg>