<svg xmlns="http://www.w3.org/2000/svg" height="20" viewBox="0 -960 960 960" width="20"><path d="M458.152-87.87q-94.587 0-160.196-66.815-65.608-66.815-65.608-161.924V-710.87q0-67.63 48.13-114.445 48.131-46.816 116.239-46.816 69.109 0 116.501 49.316 47.391 49.315 47.391 118.945v267.087q0 16.974-11.605 28.639-11.605 11.666-28.489 11.666-16.885 0-28.7-11.666Q480-419.809 480-436.783V-710.63q.239-34.044-24.38-57.587-24.62-23.544-59.1-23.544-34.48 0-59.022 24.424-24.541 24.424-24.541 58.467v399.261q.239 59.522 42.837 99.946 42.597 40.424 102.597 41.424 20.017 0 37.889-4.261 17.872-4.261 33.872-14.261 14.674-8.478 30.109-3.402 15.435 5.076 23.913 19.75t3.402 30.109q-5.076 15.435-19.75 23.913-24.478 14-52.228 21.26-27.75 7.262-57.446 7.262Zm222.189-52.304q-16.884 0-28.574-11.665-11.689-11.665-11.689-28.639v-63.391h-63.559q-17.01 0-28.699-11.666-11.689-11.665-11.689-28.639t11.689-28.639q11.689-11.665 28.699-11.665h63.559v-63.391q0-16.974 11.689-28.64 11.69-11.665 28.597-11.665 16.908 0 28.529 11.665 11.62 11.666 11.62 28.64v63.391h63.079q16.908 0 28.723 11.604 11.816 11.605 11.816 28.49 0 16.884-11.666 28.549-11.665 11.666-28.639 11.666h-63.391v63.391q0 16.974-11.605 28.789-11.604 11.815-28.489 11.815Zm-283.652-144q-16.885 0-28.7-11.665-11.815-11.665-11.815-28.639v-353.065q0-16.974 11.605-28.639 11.604-11.666 28.489-11.666 16.884 0 28.699 11.666 11.816 11.665 11.816 28.639v353.065q0 16.974-11.605 28.639t-28.489 11.665Zm247.652-216q-16.884 0-28.7-11.665-11.815-11.665-11.815-28.639V-686.63q0-16.974 11.605-28.64 11.605-11.665 28.489-11.665 16.885 0 28.7 11.665 11.815 11.666 11.815 28.64v146.152q0 16.974-11.605 28.639-11.604 11.665-28.489 11.665Z"/></svg>