<svg xmlns="http://www.w3.org/2000/svg" height="20" viewBox="0 -960 960 960" width="20"><path d="m230.39-587.09-44.35-98.17-98.17-44.35 98.17-44.35 44.35-98.17 44.35 98.17 98.17 44.35-98.17 44.35-44.35 98.17Zm-94.52 409.72v-69.78q0-16.15 5.84-31.19 5.83-15.03 18.51-27.7L406.87-551.7 551.7-406.87 306.04-160.22q-12.67 12.68-27.7 18.51-15.04 5.84-31.19 5.84h-69.78q-17.15 0-29.33-12.17-12.17-12.18-12.17-29.33Zm83-41.5h28.28l188-188-13.52-14.76-14.76-13.52-188 188v28.28Zm384.06-239.24L458.11-602.93 663.87-808.7q7.72-7.71 17.41-11.69 9.7-3.98 19.65-3.98 9.96 0 20.16 3.98 10.19 3.98 17.91 11.69l69.7 69.7q7.71 7.72 11.69 17.91 3.98 10.2 3.98 20.16 0 9.95-3.48 20.15-3.48 10.19-12.19 17.91L602.93-458.11Zm-181.3 36.48-14.76-13.52 14.76 13.52 13.52 14.76-13.52-14.76Z"/></svg>