<svg xmlns="http://www.w3.org/2000/svg" height="20" viewBox="0 -960 960 960" width="20"><path d="m433.63-303.07-81.54-37.17q-5.72-2.38-5.72-9.15 0-6.76 5.72-9.24l81.54-37.17 37.41-81.79q2.48-5.71 9.2-5.59 6.72.11 9.19 5.83l37.16 81.56 81.56 37.16q5.72 2.38 5.72 9.15 0 6.76-5.72 9.24l-81.56 37.16-37.16 81.56q-2.47 5.72-9.19 5.84-6.72.11-9.2-5.6l-37.41-81.79ZM218.87-87.87q-34.48 0-58.74-24.61-24.26-24.61-24.26-58.39v-522.26q0-33.78 24.26-58.39t58.74-24.61H288v-57.37q0-16.26 11.25-27.44 11.24-11.19 27.41-11.19t27.5 11.19q11.34 11.18 11.34 27.44v57.37h229v-57.37q0-16.26 11.25-27.44 11.24-11.19 27.41-11.19t27.5 11.19Q672-849.76 672-833.5v57.37h69.13q34.48 0 58.74 24.61 24.26 24.61 24.26 58.39v522.26q0 33.78-24.26 58.39t-58.74 24.61H218.87Zm0-83h522.26V-528H218.87v357.13Zm0-429.13h522.26v-93.13H218.87V-600Zm0 0v-93.13V-600Z"/></svg>