<svg xmlns="http://www.w3.org/2000/svg" height="20" viewBox="0 -960 960 960" width="20"><path d="M132-360q-17.452 0-29.476-11.963Q90.5-383.927 90.5-401.29q0-17.362 12.024-29.536Q114.548-443 132-443h48q17.452 0 29.476 11.963 12.024 11.964 12.024 29.326 0 17.363-12.024 29.537T180-360h-48Zm174.065-215.674q-12.913 12.913-29.445 12.913-16.533 0-29.446-12.913l-35.239-34q-12.913-12.913-12.294-29.446.62-16.532 13.533-29.445 12.913-12.914 29.446-12.914 16.532 0 29.445 12.914l34 35.239q12.674 12.913 12.794 28.826.119 15.913-12.794 28.826ZM348-229q-27.391 0-46.446-19.054Q282.5-267.109 282.5-294.5t19.054-46.446Q320.609-360 348-360h264q27.391 0 46.446 19.054Q677.5-321.891 677.5-294.5t-19.054 46.446Q639.391-229 612-229H348Zm132.211-419q-17.363 0-29.537-12.024T438.5-689.5v-48q0-17.452 11.963-29.476Q462.427-779 479.789-779q17.363 0 29.537 12.024T521.5-737.5v48q0 17.452-11.963 29.476Q497.573-648 480.211-648Zm174.245 71.326q-12.195-12.674-12.076-29.446.12-16.771 12.555-29.206l34-34Q701.609-682 718.5-682q16.891 0 30.044 12.674 12.195 12.674 11.956 29.445-.239 16.772-12.674 29.207l-34.761 34.761q-12.31 12.674-28.883 12.293-16.573-.38-29.726-13.054ZM780-360q-17.452 0-29.476-11.963Q738.5-383.927 738.5-401.29q0-17.362 12.024-29.536Q762.548-443 780-443h48q17.452 0 29.476 11.963 12.024 11.964 12.024 29.326 0 17.363-12.024 29.537T828-360h-48Z"/></svg>