<svg xmlns="http://www.w3.org/2000/svg" height="20" viewBox="0 -960 960 960" width="20"><path d="M246.344-130.608q-58.779 0-93.692-46.011-34.913-46.011-20.196-102.881l70.478-262.391q-32.478-18.957-53.239-53.332-20.761-34.376-20.761-76.777 0-62.072 43.476-105.547 43.475-43.475 105.546-43.475h309.37q46.767 0 70.84 39.142 24.073 39.141 3.204 80.641l-66.022 132.043q-10.196 20.87-30.565 33.544-20.37 12.674-43.479 12.674H442.37l-13 48.478h9.13q17.213.478 28.759 12.358 11.545 11.879 11.545 29.055v69.433q0 17.415-12.024 29.589t-29.476 12.174H387.55l-26.898 102.543q-10.728 39.176-42.22 63.958-31.492 24.782-72.088 24.782Zm.091-83.001q12.326 0 21.63-7.163 9.304-7.163 12.826-19.489l75.239-282.717h-72.124L211.978-257.63q-4.282 16.848 6.283 30.434 10.565 13.587 28.174 13.587Zm31.521-392.369h243.587l66.022-132.044H277.956q-27.234 0-46.627 19.472-19.394 19.472-19.394 46.815 0 27.344 19.394 46.55 19.393 19.207 46.627 19.207Zm578.501-192.979-88 41q-9.692 5.479-19.708 1.102-10.017-4.377-14.901-14.297-4.978-9.957-1.126-19.841t13.822-15.268l88-41q9.956-5.478 19.847-1.102 9.89 4.377 14.761 14.298 4.979 9.956 1.102 19.84t-13.797 15.268ZM746.544-525.739q-9.957-5.478-13.816-15.196-3.858-9.717.62-19.632 5.478-10.998 15.648-14.976 10.171-3.979 20.461 1.5l87 41q9.717 5.478 14.195 15.468 4.479 9.99-1 19.702-5.089 9.711-15.19 14.162-10.101 4.45-19.918-1.028l-88-41Zm124.63-119.87h-96q-11.436 0-18.914-7.461-7.477-7.462-7.477-18.874 0-11.413 7.477-18.93 7.478-7.517 18.914-7.517h96q11.436 0 18.914 7.461 7.477 7.462 7.477 18.874 0 11.413-7.477 18.93-7.478 7.517-18.914 7.517ZM399.869-672Zm-79.956 149.022Z"/></svg>