<svg xmlns="http://www.w3.org/2000/svg" height="20" viewBox="0 -960 960 960" width="20"><path d="m638-238.652 89.935-90.174q12.31-12.674 28.764-12.555 16.453.12 29.127 12.555 12.674 12.674 12.674 29.493t-12.674 29.159l-119 119q-12.34 12.674-29.159 12.674t-29.293-12.506l-50.639-51.451q-12.474-12.506-12.474-29.22t12.674-29.388q12.435-12.435 28.826-12.555 16.391-.119 29.065 12.555L638-238.652ZM361.196-170.87Zm-29.5 83q-22.553 0-38.027-15.473-15.474-15.474-15.474-38.027v-605.26q0-22.553 15.474-38.027t38.027-15.474H402.5v-18.499q0-22.553 15.474-38.027T456-872.131h48q22.552 0 38.026 15.474Q557.5-841.183 557.5-818.63v18.499h70.804q22.553 0 38.027 15.474t15.474 38.027v240.76q0 17.452-11.964 29.476-11.963 12.024-29.326 12.024t-29.537-12.024q-12.174-12.024-12.174-29.476v-211.26H361.196v546.26h73.956q17.452 0 29.476 11.964 12.024 11.963 12.024 29.326t-12.024 29.537q-12.024 12.174-29.476 12.174H331.696Z"/></svg>