<svg xmlns="http://www.w3.org/2000/svg" height="20" viewBox="0 -960 960 960" width="20"><path d="M140-380.087q-8.957 0-15.435-6.178T118.087-401q0-8.957 6.478-15.435T140-422.913q8.957 0 14.935 6.478T160.913-401q0 8.957-6.178 14.935T140-380.087Zm0-157q-8.957 0-15.435-6.478T118.087-559q0-8.957 6.478-14.935T140-579.913q8.957 0 14.935 6.178T160.913-559q0 8.957-6.178 15.435T140-537.087Zm104 334q-17.813 0-29.363-11.762-11.55-11.763-11.55-29.151 0-17.813 11.762-29.863 11.763-12.05 29.151-12.05 17.813 0 29.863 12.05T285.913-244q0 17.813-12.05 29.363T244-203.087Zm0-157q-17.813 0-29.363-11.762-11.55-11.763-11.55-29.151 0-17.813 11.762-29.863 11.763-12.05 29.151-12.05 17.813 0 29.863 12.05T285.913-401q0 17.813-12.05 29.363T244-360.087Zm0-157q-17.813 0-29.363-12.05T203.087-559q0-17.813 11.762-29.363 11.763-11.55 29.151-11.55 17.813 0 29.863 11.762 12.05 11.763 12.05 29.151 0 17.813-12.05 29.863T244-517.087Zm0-157q-17.813 0-29.363-12.05T203.087-716q0-17.813 11.762-29.363 11.763-11.55 29.151-11.55 17.813 0 29.863 11.762 12.05 11.763 12.05 29.151 0 17.813-12.05 29.863T244-674.087Zm157.059 327q-23.016 0-38.494-15.713-15.478-15.714-15.478-38.435 0-22.722 15.713-38.7 15.714-15.978 38.435-15.978 22.722 0 38.7 15.919 15.978 15.92 15.978 38.935 0 23.016-15.919 38.494-15.92 15.478-38.935 15.478Zm0-157q-23.016 0-38.494-15.919-15.478-15.92-15.478-38.935 0-23.016 15.713-38.494 15.714-15.478 38.435-15.478 22.722 0 38.7 15.713 15.978 15.714 15.978 38.435 0 22.722-15.919 38.7-15.92 15.978-38.935 15.978Zm-.059 301q-17.813 0-29.363-11.762-11.55-11.763-11.55-29.151 0-17.813 11.762-29.863 11.763-12.05 29.151-12.05 17.813 0 29.863 12.05T442.913-244q0 17.813-12.05 29.363T401-203.087Zm0-471q-17.813 0-29.363-12.05T360.087-716q0-17.813 11.762-29.363 11.763-11.55 29.151-11.55 17.813 0 29.863 11.762 12.05 11.763 12.05 29.151 0 17.813-12.05 29.863T401-674.087Zm0 556q-8.957 0-14.935-6.478T380.087-140q0-8.957 6.178-14.935T401-160.913q8.957 0 15.435 6.178T422.913-140q0 8.957-6.478 15.435T401-118.087Zm0-681q-8.957 0-14.935-6.178T380.087-820q0-8.957 6.178-15.435T401-841.913q8.957 0 15.435 6.478T422.913-820q0 8.957-6.478 14.935T401-799.087Zm157.765 452q-22.722 0-38.7-15.713-15.978-15.714-15.978-38.435 0-22.722 15.919-38.7 15.92-15.978 38.935-15.978 23.016 0 38.494 15.919 15.478 15.92 15.478 38.935 0 23.016-15.713 38.494-15.714 15.478-38.435 15.478Zm0-157q-22.722 0-38.7-15.919-15.978-15.92-15.978-38.935 0-23.016 15.919-38.494 15.92-15.478 38.935-15.478 23.016 0 38.494 15.713 15.478 15.714 15.478 38.435 0 22.722-15.713 38.7-15.714 15.978-38.435 15.978Zm.235 301q-17.813 0-29.863-11.762-12.05-11.763-12.05-29.151 0-17.813 12.05-29.863T559-285.913q17.813 0 29.363 12.05T599.913-244q0 17.813-11.762 29.363-11.763 11.55-29.151 11.55Zm0-471q-17.813 0-29.863-12.05T517.087-716q0-17.813 12.05-29.363T559-756.913q17.813 0 29.363 11.762 11.55 11.763 11.55 29.151 0 17.813-11.762 29.863-11.763 12.05-29.151 12.05Zm0 556q-8.957 0-15.435-6.478T537.087-140q0-8.957 6.478-14.935T559-160.913q8.957 0 14.935 6.178T579.913-140q0 8.957-6.178 15.435T559-118.087Zm0-681q-8.957 0-15.435-6.178T537.087-820q0-8.957 6.478-15.435T559-841.913q8.957 0 14.935 6.478T579.913-820q0 8.957-6.178 14.935T559-799.087Zm157 596q-17.813 0-29.863-11.762-12.05-11.763-12.05-29.151 0-17.813 12.05-29.863T716-285.913q17.813 0 29.363 12.05T756.913-244q0 17.813-11.762 29.363-11.763 11.55-29.151 11.55Zm0-157q-17.813 0-29.863-11.762-12.05-11.763-12.05-29.151 0-17.813 12.05-29.863T716-442.913q17.813 0 29.363 12.05T756.913-401q0 17.813-11.762 29.363-11.763 11.55-29.151 11.55Zm0-157q-17.813 0-29.863-12.05T674.087-559q0-17.813 12.05-29.363T716-599.913q17.813 0 29.363 11.762 11.55 11.763 11.55 29.151 0 17.813-11.762 29.863-11.763 12.05-29.151 12.05Zm0-157q-17.813 0-29.863-12.05T674.087-716q0-17.813 12.05-29.363T716-756.913q17.813 0 29.363 11.762 11.55 11.763 11.55 29.151 0 17.813-11.762 29.863-11.763 12.05-29.151 12.05Zm104 294q-8.957 0-14.935-6.178T799.087-401q0-8.957 6.178-15.435T820-422.913q8.957 0 15.435 6.478T841.913-401q0 8.957-6.478 14.935T820-380.087Zm0-157q-8.957 0-14.935-6.478T799.087-559q0-8.957 6.178-14.935T820-579.913q8.957 0 15.435 6.178T841.913-559q0 8.957-6.478 15.435T820-537.087Z"/></svg>