<svg xmlns="http://www.w3.org/2000/svg" height="20" viewBox="0 -960 960 960" width="20"><path d="M480.211-589.935q-17.363 0-29.537-11.963-12.174-11.964-12.174-29.326 0-17.363 11.963-29.537 11.964-12.174 29.326-12.174 17.363 0 29.537 11.963 12.174 11.964 12.174 29.327 0 17.362-11.963 29.536-11.964 12.174-29.326 12.174ZM329.015-438.5q-17.363 0-29.537-11.963-12.174-11.964-12.174-29.326 0-17.363 11.964-29.537 11.963-12.174 29.326-12.174t29.536 11.963q12.174 11.964 12.174 29.326 0 17.363-11.963 29.537T329.015-438.5Zm151.196 0q-17.363 0-29.537-11.963-12.174-11.964-12.174-29.326 0-17.363 11.963-29.537 11.964-12.174 29.326-12.174 17.363 0 29.537 11.963 12.174 11.964 12.174 29.326 0 17.363-11.963 29.537-11.964 12.174-29.326 12.174Zm151.434 0q-17.362 0-29.536-11.963-12.174-11.964-12.174-29.326 0-17.363 11.963-29.537 11.964-12.174 29.326-12.174 17.363 0 29.537 11.963 12.174 11.964 12.174 29.326 0 17.363-11.963 29.537-11.964 12.174-29.327 12.174ZM480.211-287.304q-17.363 0-29.537-11.964-12.174-11.963-12.174-29.326t11.963-29.536q11.964-12.174 29.326-12.174 17.363 0 29.537 11.963t12.174 29.326q0 17.363-11.963 29.537-11.964 12.174-29.326 12.174ZM177.58-741.13q-17.363 0-29.537-11.964-12.174-11.963-12.174-29.326t11.964-29.537q11.963-12.174 29.326-12.174t29.537 11.964q12.174 11.963 12.174 29.326t-11.964 29.537q-11.963 12.174-29.326 12.174Zm151.435 0q-17.363 0-29.537-11.964-12.174-11.963-12.174-29.326t11.964-29.537q11.963-12.174 29.326-12.174t29.536 11.964q12.174 11.963 12.174 29.326t-11.963 29.537q-11.963 12.174-29.326 12.174Zm151.196 0q-17.363 0-29.537-11.964Q438.5-765.057 438.5-782.42t11.963-29.537q11.964-12.174 29.326-12.174 17.363 0 29.537 11.964 12.174 11.963 12.174 29.326t-11.963 29.537q-11.964 12.174-29.326 12.174Zm151.434 0q-17.362 0-29.536-11.964-12.174-11.963-12.174-29.326t11.963-29.537q11.964-12.174 29.326-12.174 17.363 0 29.537 11.964 12.174 11.963 12.174 29.326t-11.963 29.537q-11.964 12.174-29.327 12.174ZM177.58-589.935q-17.363 0-29.537-11.963-12.174-11.964-12.174-29.326 0-17.363 11.964-29.537 11.963-12.174 29.326-12.174t29.537 11.963q12.174 11.964 12.174 29.327 0 17.362-11.964 29.536-11.963 12.174-29.326 12.174Zm0 151.435q-17.363 0-29.537-11.963-12.174-11.964-12.174-29.326 0-17.363 11.964-29.537 11.963-12.174 29.326-12.174t29.537 11.963q12.174 11.964 12.174 29.326 0 17.363-11.964 29.537Q194.943-438.5 177.58-438.5Zm0 151.196q-17.363 0-29.537-11.964-12.174-11.963-12.174-29.326t11.964-29.536q11.963-12.174 29.326-12.174t29.537 11.963q12.174 11.963 12.174 29.326t-11.964 29.537q-11.963 12.174-29.326 12.174Zm0 151.435q-17.363 0-29.537-11.964-12.174-11.963-12.174-29.326t11.964-29.537q11.963-12.174 29.326-12.174t29.537 11.964q12.174 11.963 12.174 29.326t-11.964 29.537q-11.963 12.174-29.326 12.174Zm151.435 0q-17.363 0-29.537-11.964-12.174-11.963-12.174-29.326t11.964-29.537q11.963-12.174 29.326-12.174t29.536 11.964q12.174 11.963 12.174 29.326t-11.963 29.537q-11.963 12.174-29.326 12.174Zm151.196 0q-17.363 0-29.537-11.964-12.174-11.963-12.174-29.326t11.963-29.537q11.964-12.174 29.326-12.174 17.363 0 29.537 11.964Q521.5-194.943 521.5-177.58t-11.963 29.537q-11.964 12.174-29.326 12.174Zm151.434 0q-17.362 0-29.536-11.964-12.174-11.963-12.174-29.326t11.963-29.537q11.964-12.174 29.326-12.174 17.363 0 29.537 11.964 12.174 11.963 12.174 29.326t-11.963 29.537q-11.964 12.174-29.327 12.174ZM741.13-177.37v-605.26q0-17.453 11.964-29.477 11.963-12.024 29.326-12.024t29.537 12.024q12.174 12.024 12.174 29.477v605.26q0 17.453-11.964 29.477-11.963 12.024-29.326 12.024t-29.537-12.024q-12.174-12.024-12.174-29.477Z"/></svg>