<svg xmlns="http://www.w3.org/2000/svg" height="20" viewBox="0 -960 960 960" width="20"><path d="M416.783-419.37H542.5l21.446 62.979q3.099 8.674 10.848 14.293 7.749 5.62 17.287 5.62 15.576 0 24.291-12.696t3.237-28.13L519.4-649.81q-3.009-9.081-10.606-14.56-7.598-5.478-17.316-5.478h-22.956q-9.957 0-17.435 5.478-7.478 5.479-10.487 14.616l-99.97 274.645q-5.478 13.796 3.108 26.213 8.586 12.418 23.858 12.418 9.904 0 17.408-5.548 7.503-5.548 10.409-14.604l21.37-62.74Zm17.521-52.108L479-603.304h2l44.696 131.826h-91.392Zm-75.5 287.609h-91.676q-34.589 0-58.924-24.335t-24.335-58.924v-91.676l-62.543-62.544q-12.674-12.434-18.391-27.649-5.718-15.214-5.718-31.003t5.718-31.003q5.717-15.215 18.391-27.649l62.543-62.544v-91.676q0-34.589 24.335-58.924t58.924-24.335h91.676l62.544-62.543q12.674-12.674 27.769-18.391 15.094-5.718 30.883-5.718t30.883 5.718q15.095 5.717 27.769 18.391l62.544 62.543h91.676q34.589 0 58.924 24.335t24.335 58.924v91.676l62.543 62.544q12.674 12.674 18.391 27.769 5.718 15.094 5.718 30.883t-5.718 30.883q-5.717 15.095-18.391 27.769l-62.543 62.544v91.676q0 34.589-24.335 58.924t-58.924 24.335h-91.676l-62.544 62.543q-12.434 12.674-27.649 18.391-15.214 5.718-31.003 5.718t-31.003-5.718q-15.215-5.717-27.649-18.391l-62.544-62.543Zm34.544-83.001L480-180.218l86.652-86.652H693.13v-126.478L779.782-480l-86.652-86.652V-693.13H566.652L480-779.782l-86.652 86.652H266.87v126.478L180.218-480l86.652 86.652v126.478h126.478ZM480-480Z"/></svg>