<svg xmlns="http://www.w3.org/2000/svg" height="20" viewBox="0 -960 960 960" width="20"><path d="M480.276-87.87q-80.95 0-152.385-30.597-71.435-30.598-125.13-84.294-53.696-53.695-84.294-125.089-30.598-71.393-30.598-152.608 0-81.216 30.598-152.151 30.598-70.935 84.294-124.63 53.695-53.696 124.942-84.294Q398.951-872.131 480-872.131q6.848 0 15.743.381 8.895.38 16.547 1.141 19.058 1.522 28.71 14.174 9.652 12.652 9.652 32.044 0 15.913-14.293 27.348-14.294 11.434-31.557 9.673-6.737-.76-12.585-1.38-5.847-.62-12.695-.62-26.283 39.761-38.345 80.845-12.061 41.084-19.981 85.721h77.261q15.061 0 25.411 10.17 10.35 10.169 10.35 25.38 0 15.211-10.231 25.591-10.23 10.38-25.53 10.38h-86.261q-1.5 17.761-2.25 35.522t-.75 35.761q0 18 .75 35.761.75 17.761 2.25 35.522h135.17q2.199-16.761 2.46-33.855.261-17.095.261-34.428v-17.804q0-8.522-.761-17.805-.761-15.239 9.593-25.88 10.353-10.641 24.925-10.641 15.482 0 26.482 11.358 11 11.359 11.761 26.359.761 7.854.88 16.635.12 8.781.12 16.635 0 17.143-.381 34.784-.38 17.642-2.141 34.642h159.087q4.375-17.692 6.688-35.384 2.312-17.692 2.312-35.623v-12.312q0-5.498-1.522-12.312-1.76-16.391 9.397-30.587 11.157-14.195 27.625-14.195 19.631 0 32.163 10.032 12.533 10.033 14.294 28.27.761 7.028 1.141 15.414.381 8.386.381 15.414 0 81.049-30.598 152.297-30.598 71.247-84.294 124.942-53.695 53.696-124.855 84.294-71.159 30.598-152.108 30.598ZM179.87-408.716h159.326q-2-18.761-2.5-36.522t-.5-36.761q0-17 .5-34.761.5-17.761 2.5-34.522H179.87q-4 17.761-6.5 35.522T170.87-480q0 18 2.5 35.761 2.5 17.761 6.5 35.522Zm26.76-214.087h141.566q6.25-39.948 15.146-78.615 8.897-38.668 27.375-74.951-60.521 17.761-108.043 57.522-47.522 39.761-76.044 96.044Zm470.87 1.674q-23.348 0-39.859-16.511-16.511-16.511-16.511-39.859V-816q0-23.348 16.511-39.739 16.511-16.392 39.859-16.392H816q23.348 0 39.739 16.392 16.392 16.391 16.392 39.739v138.5q0 23.348-16.392 39.859Q839.348-621.13 816-621.13H677.5Zm90-129.088h26.674q9.196 0 14.913-5.837 5.717-5.836 5.717-15.032v-26.435q0-8-4.641-12.641t-12.641-4.641h-26.435q-9.196 0-15.032 5.717-5.837 5.717-5.837 14.913v26.674q0 8 4.641 12.641t12.641 4.641ZM389.717-183.63q-16.478-36.522-26-75.283-9.521-38.761-15.521-78.522H206.63q28.522 56.522 75.924 96.283 47.403 39.761 107.163 57.522Zm89.805 10q24.282-37 37.663-78.522 13.38-41.522 21.38-85.283H421.196q8.761 43.522 21.402 85.283 12.641 41.761 36.924 78.522Zm90.043-10q59.761-17.761 107.402-57.522 47.642-39.761 76.163-96.283H611.565q-6 39.761-15.761 78.522t-26.239 75.283Z"/></svg>