<svg xmlns="http://www.w3.org/2000/svg" height="20" viewBox="0 -960 960 960" width="20"><path d="M87.87-588v-152.985q0-36.928 25.672-60.037t62.14-23.109h608.763q36.468 0 62.077 23.109 25.609 23.109 25.609 60.037V-588H789.13v-153.13H170.87V-588h-83Zm87.685 332.131q-36.468 0-62.077-23.109-25.609-23.109-25.609-59.892V-516h83.001v177.13h618.26V-516h83.001v177.13q0 36.783-25.673 59.892-25.672 23.109-62.14 23.109H175.555ZM78.261-132.282q-16.012 0-26.843-10.84-10.831-10.839-10.831-26.863 0-15.922 10.9-26.903 10.9-10.981 27.013-10.981h803.239q16.012 0 26.843 10.772 10.831 10.771 10.831 26.695t-10.9 27.022q-10.9 11.098-27.013 11.098H78.26ZM480-540ZM87.87-516v-72H329q14 0 25 6.88 11 6.881 17 18.12l39 72.239 111.522-175.761q5-8.239 12.664-12.619 7.664-4.381 16.739-4.381 9.075 0 17.075 3.381 8 3.38 13 10.141l61 82h230.131v72H632.348q-12.674 0-23.87-5.957-11.195-5.956-18.913-16.152L554-584.761 438.239-401.478q-5 8.239-13.064 12.858-8.065 4.62-16.936 4.62-9.9 0-18.569-5.38Q381-394.761 376-403l-62-113H87.87Z"/></svg>