<svg xmlns="http://www.w3.org/2000/svg" height="20" viewBox="0 -960 960 960" width="20"><path d="M170.87-183.869q-33.783 0-58.392-24.609T87.869-266.87v-426.26q0-33.783 24.609-58.392t58.392-24.609h618.26q34.483 0 58.742 24.609t24.259 58.392v426.26q0 33.783-24.259 58.392t-58.742 24.609H170.87Zm0-332.131h158.087v-177.13H170.87V-516Zm230.087 0h158.086v-177.13H400.957V-516Zm230.086 0H789.13v-177.13H631.043V-516ZM328.957-266.87V-444H170.87v177.13h158.087Zm72 0h158.086V-444H400.957v177.13Zm230.086 0H789.13V-444H631.043v177.13Z"/></svg>