<svg xmlns="http://www.w3.org/2000/svg" height="20" viewBox="0 -960 960 960" width="20"><path d="M170.87-135.87q-33.78 0-58.39-24.61t-24.61-58.39v-426.26q0-33.78 24.61-58.39t58.39-24.61H283.7l50.47-65.33q12.44-14.95 29.29-22.81 16.85-7.86 34.93-7.86h163.4q18.25 0 34.93 7.86 16.67 7.86 29.11 22.81l50.47 65.33h112.83q34.48 0 58.74 24.61 24.26 24.61 24.26 58.39v426.26q0 33.78-24.26 58.39t-58.74 24.61H170.87Zm0-83h618.26v-426.26H636.72l-74.73-96H398.63l-76.06 96h-151.7v426.26ZM480-433Zm-37.03 38.03-67.12-29.99q-4.28-2.25-4.28-7.17 0-4.91 4.28-6.91l67.12-29.99 29.99-67.12q2.25-4.28 7.17-4.28 4.91 0 6.91 4.28l29.99 67.12 67.12 29.99q4.28 2.25 4.28 7.17 0 4.91-4.28 6.91l-67.12 29.99-29.99 67.12q-2.25 4.28-7.17 4.28-4.91 0-6.91-4.28l-29.99-67.12Zm36.97 132.88q72.78 0 121.38-49.54 48.59-49.54 48.59-120.31 0-69.78-48.54-119.88-48.54-50.09-121.31-50.09-72.78 0-121.38 50.04-48.59 50.04-48.59 120.31 0 70.28 48.54 119.88 48.54 49.59 121.31 49.59Z"/></svg>