<svg xmlns="http://www.w3.org/2000/svg" height="20" viewBox="0 -960 960 960" width="20"><path d="M531.105-43.217q-81.481 0-152.778-31.04-71.296-31.042-124.162-83.908t-83.907-124.162q-31.041-71.297-31.041-152.778 0-142.765 90.392-251.939Q320-796.218 462.391-822.457q-14.847 99.957 12.935 189.913 27.783 89.957 97.022 159.196 67.239 67.239 159.076 94.163 91.837 26.924 186.554 13.75-24 140.152-134.054 231.185Q673.87-43.217 531.105-43.217ZM531-126.218q83.696 0 156.706-41.891Q760.717-210 799.478-282.217q-81.087-6.435-154.913-40.935-73.826-34.5-131.869-92.544-59.044-59.043-93.044-132.249-34-73.207-41.674-155.294-71.739 41-113.75 112.956-42.01 71.956-42.01 155.283 0 128.859 89.961 218.821Q402.141-126.218 531-126.218Zm-18.304-289.478Z"/></svg>