<svg xmlns="http://www.w3.org/2000/svg" height="20" viewBox="0 -960 960 960" width="20"><path d="M218.87-183.869q-34.483 0-58.742-24.271t-24.259-58.77v-426.504q0-34.499 24.259-58.608 24.259-24.109 58.742-24.109h522.26q34.483 0 58.742 24.271t24.259 58.77v426.504q0 34.499-24.259 58.608-24.259 24.109-58.742 24.109H218.87Zm0-83.001h522.26v-426.26H218.87v426.26ZM301.37-368h101.992q18.16 0 30.334-12.341 12.174-12.34 12.174-30.261v-14.963q0-8.348-6-14.348t-14-6h-19.587q-8 0-14 6t-6 14h-67.587v-108.174h67.587q0 8 6 14t14 6h19.587q8 0 14-6t6-14.348v-14.963q0-17.921-12.312-30.261Q421.247-592 403.37-592H301.377q-18.159 0-30.333 12.379t-12.174 30.356v137.94q0 17.977 12.311 30.651Q283.493-368 301.37-368Zm357.26-224H556.638q-18.16 0-30.334 12.599T514.13-548.5v137.8q0 17.962 12.312 30.331Q538.753-368 556.63-368h101.993q18.159 0 30.333-12.341 12.174-12.34 12.174-30.261v-14.963q0-8.348-6-14.348t-14-6h-19.587q-8 0-14 6t-6 14h-67.586v-108.174h67.586q0 8 6 14t14 6h19.587q8 0 14-6t6-14.348v-14.963q0-17.921-12.311-30.261Q676.507-592 658.63-592ZM218.87-266.87v-426.26 426.26Z"/></svg>