<svg xmlns="http://www.w3.org/2000/svg" height="20" viewBox="0 -960 960 960" width="20"><path d="m428.043-420.783-41.804-41.804q-11.478-11.478-26.935-11.478-15.456 0-26.934 11.503-11.479 11.504-11.479 26.696 0 15.192 11.479 26.67l66.369 66.37q12.761 12.674 29.109 12.674 16.348 0 29.022-12.674l151.369-151.37q11.478-11.499 11.478-26.706 0-15.207-11.494-26.685-11.495-11.478-26.696-11.478-15.201 0-26.679 11.478L428.043-420.783ZM240.717-183.869q-83.363 0-141.747-58.153-58.383-58.152-58.383-141.261 0-78.391 52.358-136.163 52.359-57.772 129.033-63.25 24.435-85.956 95.131-139.695 70.695-53.74 162.891-53.74 104.196 0 181.75 69.74 77.554 69.739 89.185 171.695 70.717 2.631 119.598 53.305 48.88 50.674 48.88 122.108 0 73.089-51.162 124.251Q817.089-183.869 744-183.869H240.717Zm0-83.001h502.566q38.565 0 65.847-27.282 27.283-27.283 27.283-65.848t-27.283-65.848q-27.282-27.282-65.847-27.282h-68.87l-6-68.587q-7-72.512-60.951-121.963Q553.511-693.13 480-693.13q-63.043 0-112.228 38.739-49.185 38.739-67.185 101.261l-14 49-53.87 3q-46.811 3-77.97 36.658-31.16 33.658-31.16 80.467 0 48.809 34.16 82.972 34.159 34.163 82.97 34.163ZM480-480Z"/></svg>