<svg xmlns="http://www.w3.org/2000/svg" height="20" viewBox="0 -960 960 960" width="20"><path d="M838.087-155v-600H121.913v325.913q0 17.452-11.963 29.476-11.964 12.024-29.326 12.024-17.363 0-29.537-12.024t-12.174-29.476V-755q0-34.238 24.381-58.619Q87.676-838 121.913-838h716.174q34.238 0 58.619 24.381T921.087-755v522.5q0 31.268-24.381 54.384T838.087-155ZM334.804-382.565q-63.587 0-107.739-44.272t-44.152-107.859q0-63.587 44.152-107.739t107.739-44.152q63.587 0 107.859 44.152 44.272 44.152 44.272 107.739t-44.272 107.859q-44.272 44.272-107.859 44.272Zm.213-83q28.604 0 48.761-20.367 20.157-20.367 20.157-48.968 0-28.6-20.367-48.644-20.367-20.043-48.968-20.043-28.6 0-48.643 20.299-20.044 20.299-20.044 48.805 0 28.603 20.299 48.761 20.299 20.157 48.805 20.157ZM121.63-78.304q-34.5 0-58.608-24.259-24.11-24.258-24.11-58.741v-17.609q0-28.234 13.577-51.106 13.576-22.872 37.728-37.829 54.718-33.239 117.355-49.978 62.638-16.739 127.232-16.739 65.435 0 127.011 16.619 61.576 16.62 117.815 49.859 24.153 13.957 37.729 37.36t13.576 51.814v17.609q0 34.483-24.271 58.741-24.27 24.259-58.77 24.259H121.63Zm.283-83h426.022v-20.413q0-4.945-3.025-8.99T536.935-197q-46.565-26.043-97.348-40.304-50.783-14.261-104.783-14.261-53.596 0-105.2 14.261Q178-223.043 132.913-197q-5 2.895-8 6.739-3 3.845-3 8.544v20.413Zm212.891-373.392Zm0 373.392Z"/></svg>