<svg xmlns="http://www.w3.org/2000/svg" height="20" viewBox="0 -960 960 960" width="20"><path d="m202.304-480.239 160.174 160.174q12.913 12.913 12.794 29.445-.12 16.533-13.033 29.446t-29.326 12.794q-16.413-.12-29.665-13.132L113.587-450.935q-5.718-6.117-8.815-13.613-3.098-7.495-3.098-15.652t3.098-15.652q3.097-7.496 8.815-13.213l190-190q12.34-12.674 29.159-12.674t29.493 12.674q12.674 12.674 12.674 29.612 0 16.939-12.674 29.279L202.304-480.239Zm555.392.478L597.522-639.935q-12.913-12.913-12.794-29.445.12-16.533 13.033-29.446t29.326-12.794q16.413.12 29.665 13.132l189.661 189.423q5.718 6.117 8.815 13.613 3.098 7.495 3.098 15.652t-3.098 15.652q-3.097 7.496-8.815 13.213l-190 190q-12.31 12.674-28.764 12.294-16.453-.381-29.127-13.055t-12.674-29.612q0-16.938 12.674-29.279l159.174-159.174Z"/></svg>