<svg xmlns="http://www.w3.org/2000/svg" height="20" viewBox="0 -960 960 960" width="20"><path d="M782.739-297.087q-15.522 0-28.565-10.415-13.044-10.416-13.044-30.846V-741.13h-70.326v82.326q0 17.452-12.024 29.476-12.024 12.024-29.476 12.024H488.327q-16.614 0-31.416-5.837t-27.568-18.603l-120.191-120.43q-5.239-5.557-7.739-11.762t-2.5-13.295q0-14.469 9.5-25.684 9.5-11.216 26.978-11.216h45.391q12.435-32.717 37.436-52.956 25-20.239 61.782-20.239 36.196 0 61.87 19.739t37.348 53.456H741.13q34.238 0 58.619 24.382 24.382 24.381 24.382 58.619v402.543q0 20.75-12.935 31.125t-28.457 10.375Zm-302.95-447.63q15.211 0 25.711-10.29 10.5-10.289 10.5-25.5 0-15.21-10.289-25.71-10.29-10.5-25.5-10.5-15.211 0-25.711 10.289-10.5 10.29-10.5 25.5 0 15.211 10.289 25.711 10.29 10.5 25.5 10.5ZM638.891-218.87 218.87-638.891v420.021h420.021ZM218.87-135.869q-34.238 0-58.619-24.382-24.382-24.381-24.382-58.619v-503.021l-29.717-29.718q-11.478-11.177-11.478-26.545 0-15.368 11.503-26.846 11.504-11.479 26.862-11.479 15.359 0 26.504 11.479l644.659 644.658q11.559 11.603 11.559 26.48 0 14.878-11.503 25.993-11.17 11.478-26.529 11.478t-26.838-11.478l-29-28H218.87Z"/></svg>