<svg xmlns="http://www.w3.org/2000/svg" height="20" viewBox="0 -960 960 960" width="20"><path d="M779.87-77.935 81-776.804Q69.522-788.283 70.141-803q.62-14.717 12.098-26.196 11.478-11.478 26.076-11.478t26.076 11.478l698.87 698.631q11.478 11.478 11.359 26.315-.12 14.837-11.598 26.315-11.478 11.479-26.576 11.479T779.87-77.935ZM396-226.087q-55.717 0-94.815-39.098T262.087-360q0-55.957 39.098-94.935T396-493.913h73.674l76.065 75.826H396q-24.043 0-41.065 16.902T337.913-360q0 24.043 17.022 41.065T396-301.913h265.913l146.739 146.739q-14.434 8.913-30.467 13.75T744-136.587q-44.587 0-77.141-25.913-32.555-25.913-44.033-63.587H396Zm438.261-128.174q24.239 24.239 32.717 56 8.479 31.761-.326 64.478-1.282 8.196-9.978 9.674-8.696 1.479-14.413-4.239l-70.196-70.196-63.478-63.478q-5.717-5.717-3.859-14.413 1.859-8.696 10.055-10.217 32.478-8.566 64.478.413 32 8.978 55 31.978ZM216-568.587q-53.109 0-90.261-37.152Q88.587-642.891 88.587-696q0-36.391 18.576-66.185 18.576-29.793 48.489-45.75l172.283 172.044q-15.717 29.435-44.772 48.369-29.054 18.935-67.163 18.935Zm396.152 101.87q-15.717 0-26.815-11.098t-11.098-26.815q0-7 8.283-23.761 7.043-10.761 11.304-22.544 4.261-11.782 4.261-25.065 0-34.283-23.902-58.185T516-658.087h-87.761q-18.956 0-28.434-11.598-9.479-11.598-9.479-26.315t9.479-26.315q9.478-11.598 28.434-11.598H516q65.957 0 111.935 45.978Q673.913-641.957 673.913-576q0 24.804-7.663 47.587-7.663 22.783-20.467 42.543-5.479 8.957-14.076 14.055-8.598 5.098-19.555 5.098Z"/></svg>