<svg xmlns="http://www.w3.org/2000/svg" height="20" viewBox="0 -960 960 960" width="20"><path d="M171.587-133q-34.483 0-58.741-24.269-24.26-24.269-24.26-58.767v-496.836q0-34.498 24.26-58.606 24.258-24.109 58.741-24.109h232.826q34.483 0 58.741 24.259 24.259 24.258 24.259 58.741v61h301q34.483 0 58.741 24.272 24.259 24.273 24.259 58.775v352.821q0 34.502-24.259 58.61Q822.896-133 788.413-133H171.587ZM168-212.413h240v-72H168v72Zm0-144h240v-72H168v72Zm0-144h240v-72H168v72Zm0-144h240v-72H168v72Zm312 432h312v-360H480v360Zm108-216q-15.3 0-25.65-10.289-10.35-10.29-10.35-25.5 0-15.211 10.35-25.711 10.35-10.5 25.65-10.5h96q15.3 0 25.65 10.29Q720-479.834 720-464.624q0 15.211-10.35 25.711-10.35 10.5-25.65 10.5h-96Zm0 144q-15.3 0-25.65-10.289-10.35-10.29-10.35-25.5 0-15.211 10.35-25.711 10.35-10.5 25.65-10.5h96q15.3 0 25.65 10.29Q720-335.834 720-320.624q0 15.211-10.35 25.711-10.35 10.5-25.65 10.5h-96Z"/></svg>