<svg xmlns="http://www.w3.org/2000/svg" height="20" viewBox="0 -960 960 960" width="20"><path d="M438.5-177.37V-402.5H300.271q-17.423 0-29.597-11.963-12.174-11.964-12.174-29.326 0-17.363 11.957-29.537t29.31-12.174h123.189L245.782-759.761q-12.673-20.869-1.619-42.62 11.054-21.75 36.402-21.75 10.435 0 20.239 5.191 9.805 5.192 15.544 14.44L480-550.283l163.652-255.456q5.739-8.775 15.544-13.583 9.804-4.809 20.239-4.809 25.348 0 36.783 21.75 11.434 21.751-2.24 42.62L537.044-485.5h123.189q17.353 0 29.31 11.963 11.957 11.964 11.957 29.326 0 17.363-12.024 29.537T660-402.5H521.5v225.13q0 17.453-11.963 29.477-11.964 12.024-29.326 12.024-17.363 0-29.537-12.024T438.5-177.37Z"/></svg>