<svg xmlns="http://www.w3.org/2000/svg" height="20" viewBox="0 -960 960 960" width="20"><path d="m616.283-194.674 24.826 24.826q12.435 12.196 12.315 28.37-.12 16.174-12.315 28.369-12.196 12.196-28.656 12.316-16.46.119-28.323-12.076l-92.43-93.182q-12.526-12.536-12.526-29.109t12.674-28.883l92.43-93.182q12.048-12.058 28.389-12.058 16.34 0 28.203 12.196 12.195 12.196 12.434 28.489.24 16.294-12.195 28.489l-24.826 24.826h200.956q16.974 0 28.639 11.605 11.666 11.605 11.666 28.489 0 16.885-11.666 28.7-11.665 11.815-28.639 11.815H616.283ZM143.804-432.957h-25.435q-17.452 0-29.476-12.023-12.024-12.024-12.024-29.477v-25.434q0-17.453 12.024-29.477 12.024-12.024 29.476-12.024h25.435q17.452 0 29.476 12.024 12.024 12.024 12.024 29.477v25.434q0 17.453-12.024 29.477-12.024 12.023-29.476 12.023Zm249.104 0q-56.452 0-96.028-39.733-39.576-39.733-39.576-96.093v-168q0-56.359 39.799-96.093 39.798-39.733 96.25-39.733 56.451 0 96.027 39.733 39.577 39.734 39.577 96.093v168q0 56.36-39.799 96.093-39.798 39.733-96.25 39.733Zm.222-80.608q23.087 0 39.152-16.066 16.066-16.065 16.066-39.152v-168q0-23.087-16.066-39.152Q416.217-792 393.13-792t-39.152 16.065q-16.065 16.065-16.065 39.152v168q0 23.087 16.065 39.152 16.065 16.066 39.152 16.066Z"/></svg>