<svg xmlns="http://www.w3.org/2000/svg" height="20" viewBox="0 -960 960 960" width="20"><path d="M373.873-239.283h212.17q15.994 0 26.976-10.839Q624-260.962 624-276.985q0-15.922-10.82-26.903-10.819-10.982-26.814-10.982H373.957q-15.994 0-26.976 10.772Q336-293.326 336-277.402q0 15.924 10.888 27.022 10.889 11.097 26.985 11.097Zm0-144h212.17q15.994 0 26.976-10.839Q624-404.962 624-420.985q0-15.922-10.82-26.903-10.819-10.982-26.814-10.982H373.957q-15.994 0-26.976 10.772Q336-437.326 336-421.402q0 15.924 10.888 27.022 10.889 11.097 26.985 11.097ZM266.586-87.869q-34.499 0-58.608-24.259-24.109-24.259-24.109-58.742v-618.26q0-34.483 24.259-58.742t58.742-24.259h277.934q16.433 0 31.326 5.837 14.892 5.837 27.566 18.511l148.087 148.087q12.674 12.674 18.511 27.566 5.837 14.893 5.837 31.326v469.934q0 34.483-24.271 58.742t-58.77 24.259H266.586ZM525.13-662.63v-126.5H266.87v618.26h426.26v-450.26h-126.5q-17.452 0-29.476-12.024-12.024-12.024-12.024-29.476Zm-258.26-126.5v168-168 618.26-618.26Z"/></svg>