<svg xmlns="http://www.w3.org/2000/svg" height="20" viewBox="0 -960 960 960" width="20"><path d="M479.929-126.304q-82.364 0-156.82-31.696-74.457-31.695-132.413-89.413-5.718-5.717-8.837-12.456-3.12-6.739-3.12-15.352 0-16.6 11.766-28.027 11.767-11.426 28.436-11.426 8.624 0 14.983 3.239 6.359 3.24 12.076 8.718 48 47 108.099 72.598 60.099 25.598 125.662 25.598 66.055 0 126.147-25.598t108.36-72.955q5.449-5.361 12.558-8.361 7.109-3 14.907-3 16.57 0 27.929 11.36 11.36 11.359 11.36 28.056 0 7.857-3.173 15.021-3.174 7.164-8.425 12.419Q711.587-189.695 636.939-158q-74.647 31.696-157.01 31.696Zm-.021-150.217q-50.669 0-97.549-19.5-46.881-19.5-83.513-54.54-5.715-5.247-9.356-12.899-3.642-7.652-3.642-15.814 0-16.595 11.426-27.671 11.426-11.077 28.027-11.077 8.612 0 14.971 2.62 6.358 2.62 12.076 8.337 25.522 24.565 59.185 35.446 33.663 10.88 68.467 10.88T547.848-372q33.043-11.261 58.845-35.289 5.207-5.108 12.301-8.301 7.093-3.192 15.731-3.192 16.655 0 27.921 11.456 11.267 11.457 11.267 27.952 0 8.396-3.478 15.863-3.478 7.468-9.674 13.185-37.478 33.805-83.831 53.805-46.352 20-97.022 20ZM209.304-750.696v48h541.392v-48H209.304Zm106.5 131 19.761 48h288.87l18.761-48H315.804Zm18.761 131.001q-27.485 0-49.123-14.75-21.638-14.75-29.116-40.055l-28.044-76.196h-18.978q-34.483 0-58.741-24.258-24.259-24.259-24.259-58.742v-48q0-34.483 24.259-58.741 24.258-24.259 58.741-24.259h541.392q34.483 0 58.741 24.259 24.259 24.258 24.259 58.741v48q0 34.483-24.259 58.742-24.258 24.258-58.741 24.258h-18.978l-27.848 75.479q-8.744 24.686-30.459 40.104t-48.259 15.418H334.565ZM209.304-750.696v48-48Z"/></svg>