<svg xmlns="http://www.w3.org/2000/svg" height="20" viewBox="0 -960 960 960" width="20"><path d="M169.196-135.869q-33.783 0-58.392-24.609T86.195-218.87v-522.26q0-34.483 24.609-58.742t58.392-24.259h522.021q33.783 0 58.392 24.259t24.609 58.742V-672h61.913q16.017 0 26.845 10.768 10.829 10.767 10.829 26.695t-10.829 27.026q-10.828 11.098-26.845 11.098h-61.913v78.5h61.673q16.018 0 26.966 10.887 10.948 10.888 10.948 26.815 0 15.928-10.948 27.026-10.948 11.098-26.966 11.098h-61.673v78.5h61.913q16.017 0 26.845 10.768 10.829 10.767 10.829 26.695t-10.829 27.026Q852.148-288 836.131-288h-61.913v68.635q0 34.278-24.609 58.887t-58.392 24.609H169.196Zm0-83.001h522.021v-522.26H169.196v522.26ZM279.587-288h109q17.452 0 29.476-11.999 12.024-11.999 12.024-29.414v-60.824q0-17.415-12.024-29.589T388.587-432h-109q-17.452 0-29.476 11.999-12.024 11.999-12.024 29.414v60.824q0 17.415 12.024 29.589T279.587-288Zm238.478-288h63.694q16.697 0 28.513-11.665 11.815-11.666 11.815-28.4V-630.5q0-17.452-11.999-29.476Q598.089-672 580.674-672H519.85q-17.415 0-29.589 12.024T478.087-630.5v14.435q0 16.734 11.64 28.4Q501.367-576 518.065-576Zm-238.478 96h109q17.452 0 29.476-12.024 12.024-12.024 12.024-29.476v-109q0-17.452-12.024-29.476Q406.039-672 388.587-672h-109q-17.452 0-29.476 12.024-12.024 12.024-12.024 29.476v109q0 17.452 12.024 29.476Q262.135-480 279.587-480Zm239.912 192h60.825q17.415 0 29.589-12.024t12.174-29.476v-157q0-17.452-11.999-29.476Q598.089-528 580.674-528H519.85q-17.415 0-29.589 12.024T478.087-486.5v157q0 17.452 11.999 29.476Q502.084-288 519.499-288ZM169.196-741.13v522.26-522.26Z"/></svg>