<svg xmlns="http://www.w3.org/2000/svg" height="20" viewBox="0 -960 960 960" width="20"><path d="M774.511-83.308 76.554-781.235Q64.74-793.097 65.24-807.799q.5-14.701 12.004-26.179 11.503-11.479 26.195-11.479t26.507 11.815l697.957 697.957q11.815 11.859 11.815 26.736 0 14.878-11.503 25.992-11.17 11.479-26.529 11.479t-27.174-11.83ZM246.478-824.131h444.278q35.244 0 59.353 24.609t24.109 58.887V-672h61.845q16.085 0 26.913 10.772 10.829 10.772 10.829 26.696 0 15.923-10.866 27.021t-26.928 11.098h-61.793v78.5h61.678q16.013 0 26.961 10.839 10.948 10.84 10.948 26.863 0 16.024-10.9 27.074t-27.014 11.05h-61.673v78.5h61.793q16.062 0 26.928 10.772t10.866 26.696q0 15.923-10.832 27.021Q852.142-288 836.131-288h-53.522l-91.392-91.392V-741.13H329.479l-83.001-83.001ZM494.609-576l-16.522-16.522v-42.761q0-15.604 10.531-26.161Q499.149-672 514.717-672h65.607q17.415 0 29.589 12.024t12.174 29.476v14.435q0 16.734-11.665 28.4Q598.756-576 582.022-576h-87.413Zm127.478 127.717L542.37-528h43q15.604 0 26.161 10.556 10.556 10.557 10.556 26.161v43ZM430.804-426Zm85.544-127.022ZM238.087-329.413v-60.824q0-17.415 12.024-29.589T279.587-432h109q17.452 0 29.476 11.999 12.024 11.999 12.024 29.414v60.824q0 17.415-12.024 29.589T388.587-288h-109q-17.452 0-29.476-11.999-12.024-11.999-12.024-29.414Zm-91.674-487.761 76.044 76.044h-53.261v522.26h523.021v-52.5l79.37 79.37q-9.239 22.587-32.13 39.359-22.892 16.772-48.24 16.772H169.196q-33.783 0-58.392-24.609T86.195-218.87v-522.26q0-25.765 18.174-46.187 18.174-20.422 42.044-29.857ZM478.087-485.5l160 160q0 15.752-10.874 26.626T600.587-288h-81q-17.452 0-29.476-12.024-12.024-12.024-12.024-29.476v-156ZM291.587-672l152.5 152.534v-.034q0 16.602-11.449 28.051Q421.189-480 404.587-480h-125q-17.452 0-29.476-12.024-12.024-12.024-12.024-29.476v-109q0-17.452 12.024-29.476Q262.135-672 279.467-672h12.12Z"/></svg>