<svg xmlns="http://www.w3.org/2000/svg" height="20" viewBox="0 -960 960 960" width="20"><path d="M418.283-476.891h103.499v38.608q0 13.341 13.294 18.225 13.294 4.884 22.671-4.493l62.623-62.623q12.673-12.31 12.554-28.764-.12-16.453-12.554-29.127l-62.623-62.623q-9.377-9.377-22.671-4.493-13.294 4.884-13.294 18.224v38.848H378.93q-15.952 0-27.408 11.307-11.457 11.306-11.457 27.802v95.522q0 16.495 11.246 27.802 11.246 11.306 27.653 11.306 16.406 0 27.862-11.306 11.457-11.307 11.457-27.802v-56.413Zm61.81 388.065q-15.642 0-30.857-5.717-15.214-5.718-27.888-18.392L112.935-421.348q-12.674-12.674-18.392-27.854-5.717-15.18-5.717-30.883 0-15.704 5.717-30.798 5.718-15.095 18.392-27.769l308.413-308.413q12.657-12.674 27.841-18.511 15.184-5.837 30.892-5.837t30.835 5.837q15.127 5.837 27.736 18.511l308.413 308.413q12.674 12.616 18.511 27.752 5.837 15.135 5.837 30.792 0 15.657-5.837 30.869t-18.511 27.891L538.652-112.935q-12.674 12.674-27.795 18.392-15.121 5.717-30.764 5.717ZM326.152-326.152 480-172.065 787.935-480 480-787.935 172.065-480l154.087 153.848ZM480-480Z"/></svg>