<svg xmlns="http://www.w3.org/2000/svg" height="20" viewBox="0 -960 960 960" width="20"><path d="M481.674-288q80 0 136-56t56-136q0-80-56-136t-136-56q-80 0-136 56t-56 136q0 80 56 136t136 56Zm0-144q-20.4 0-34.2-13.8-13.8-13.8-13.8-34.2 0-20.4 13.8-34.2 13.8-13.8 34.2-13.8 20.4 0 34.2 13.8 13.8 13.8 13.8 34.2 0 20.4-13.8 34.2-13.8 13.8-34.2 13.8Zm-.478 344.13q-80.964 0-152.173-30.639-71.208-30.639-124.741-84.235-53.533-53.597-84.136-125.037-30.603-71.44-30.603-152.666 0-81.227 30.598-152.162t84.294-124.63q53.695-53.696 124.956-84.294t152.283-30.598q96.068 0 179.393 42.403 83.324 42.402 137.52 117.206 9.674 13.435 6.054 30.707-3.619 17.271-19.771 25.706-16.153 8.435-32.424 3.457-16.272-4.978-27.185-19.413-41.522-56.652-106.37-86.859-64.848-30.206-137.217-30.206-128.565 0-218.848 90.282Q172.544-608.565 172.544-480t90.282 218.848q90.283 90.282 218.848 90.282 41.325 0 79.321-10.724 37.995-10.725 72.287-31.297 15.631-8.239 32.783-5.163 17.152 3.076 27.609 17.228 10.456 14.152 7.38 30.685-3.076 16.533-18.467 25.011-45.565 27.369-96.054 42.315-50.49 14.946-105.337 14.946ZM829.884-240q-16.735 0-28.266-11.381-11.531-11.382-11.531-28.206v-256.826q0-16.824 11.321-28.206Q812.728-576 829.463-576t28.267 11.381q11.531 11.382 11.531 28.206v256.826q0 16.824-11.321 28.206Q846.62-240 829.884-240Zm0 148.783q-17.243 0-29.118-11.665-11.875-11.664-11.875-28.907 0-17.244 11.665-29.119 11.664-11.875 28.907-11.875 17.244 0 29.119 11.665 11.875 11.664 11.875 28.907 0 17.244-11.665 29.119-11.664 11.875-28.908 11.875ZM481.674-480Z"/></svg>