<svg xmlns="http://www.w3.org/2000/svg" height="20" viewBox="0 -960 960 960" width="20"><path d="m656.37-708.87-47.96-21.48q-12.43-5.72-12.31-19.01.12-13.29 12.55-19.01l47.72-21.48 21.48-46.95q5.72-12.44 18.51-12.32 12.79.12 18.51 12.55l21.48 46.72 47.72 21.48q12.43 5.72 12.55 19.01.12 13.29-12.32 19.01l-47.95 21.48-21.48 46.72q-5.72 12.43-18.51 12.55-12.79.12-18.51-12.31l-21.48-46.96ZM541.02-91.22q-46.91 0-79.97-34.27Q428-159.76 428-210.87q0-33.52 17-67.64t45.38-62.98q28.38-28.86 66.38-49.34 38-20.47 81-26.47-6.76-45.37-23.78-65.58-17.02-20.21-46.35-20.21-32 0-72.62 30.88-40.62 30.88-85.62 102.6-37.65 60.61-79.04 95.93-41.39 35.31-88.31 35.31-47.39 0-78.56-31.7-31.18-31.69-31.18-86.08 0-45.33 19.26-89.39 19.27-44.07 59.83-100.2 33.07-45.02 47.92-74.78 14.86-29.76 14.86-50 0-12.24-4.5-18.36-4.5-6.12-12.26-6.12-7.52 0-19.52 6.76t-30 23.52q-12.19 10.52-28.03 11.38-15.84.86-28.03-11.57-12.2-12.2-11.44-28.87.76-16.68 13.2-28.39 32-29.05 56.07-40.55 24.08-11.5 47.8-11.5 38.91 0 66.9 29.04 27.99 29.03 27.99 69.79 0 36.87-19.48 80.68-19.48 43.82-56.87 93.45-33.96 45.96-49.62 77.35-15.66 31.39-15.66 63.52 0 19.56 8 30.73 8 11.16 22.52 11.16 20.76 0 45.54-23.16 24.78-23.17 52.15-66.77 60.48-93.2 112.78-133.75 52.29-40.56 115.92-40.56 61.67 0 102.87 43.74t47.67 119.7h56.81q16.43 0 28.01 11.57 11.58 11.58 11.58 28.01 0 16.44-11.58 28.01-11.58 11.58-28.01 11.58h-53.81q-.47 96.43-55.55 172.67-55.08 76.24-124.6 76.24Zm3.24-79.37q33.85 0 64.94-55.08 31.08-55.09 31.56-111.98-52.09 9-93.22 50.2-41.13 41.21-41.13 75.54 0 17.28 10.91 29.3 10.9 12.02 26.94 12.02Z"/></svg>