<svg xmlns="http://www.w3.org/2000/svg" height="20" viewBox="0 -960 960 960" width="20"><path d="M275.773-430.804q16.423 0 27.76-11.11 11.337-11.11 11.337-27.533 0-16.423-11.11-27.76-11.11-11.337-27.533-11.337-16.423 0-27.76 11.11-11.337 11.11-11.337 27.533 0 16.423 11.11 27.76 11.11 11.337 27.533 11.337Zm0-120q16.423 0 27.76-11.11 11.337-11.11 11.337-27.533 0-16.423-11.11-27.76-11.11-11.337-27.533-11.337-16.423 0-27.76 11.11-11.337 11.11-11.337 27.533 0 16.423 11.11 27.76 11.11 11.337 27.533 11.337Zm149.01 119.043h257.304q16.113 0 27.013-10.839 10.9-10.84 10.9-26.863 0-16.024-10.9-27.074t-27.013-11.05H424.783q-16.113 0-27.013 10.839-10.9 10.84-10.9 26.864 0 16.023 10.9 27.073t27.013 11.05Zm0-120h257.304q16.113 0 27.013-10.839 10.9-10.84 10.9-26.863 0-16.024-10.9-27.074t-27.013-11.05H424.783q-16.113 0-27.013 10.839-10.9 10.84-10.9 26.864 0 16.023 10.9 27.073t27.013 11.05ZM170.87-231.869q-34.483 0-58.742-24.271t-24.259-58.77v-426.504q0-34.499 24.259-58.608 24.259-24.109 58.742-24.109h618.26q34.483 0 58.742 24.271t24.259 58.77v426.504q0 34.499-24.259 58.608-24.259 24.109-58.742 24.109H628.304v54.499q0 17.453-12.012 29.477-12.012 12.024-29.447 12.024H373.479q-17.436 0-29.609-12.024-12.174-12.024-12.174-29.477v-54.499H170.87Zm0-83.001h618.26v-426.26H170.87v426.26Zm0 0v-426.26 426.26Z"/></svg>