<svg xmlns="http://www.w3.org/2000/svg" height="20" viewBox="0 -960 960 960" width="20"><path d="M480-480ZM170.87-776.131h618.26q34.483 0 58.742 24.235t24.259 58.685v171.428q0 17.435-11.964 29.609Q848.204-480 830.841-480t-29.537-12.024Q789.13-504.048 789.13-521.5v-171.63H170.87v71.325q0 17.453-11.964 29.477-11.963 12.024-29.326 12.024t-29.537-12.024q-12.174-12.024-12.174-29.477v-71.325q0-34.483 24.259-58.742t58.742-24.259Zm0 592.262q-34.483 0-58.742-24.259T87.869-266.87v-71.325q0-17.453 11.964-29.477 11.963-12.024 29.326-12.024t29.537 12.024q12.174 12.024 12.174 29.477v71.325H402.5q17.452 0 29.476 11.964Q444-242.943 444-225.58t-12.024 29.537q-12.024 12.174-29.476 12.174H170.87ZM545-278.696q0-42 29.412-71.5t71.691-29.5q23.897 0 45.397 11.5t36.5 31.5q15-20 36.723-31.5 21.722-11.5 46.68-11.5 41.597 0 71.097 29.5 29.5 29.5 29.5 71.167 0 33.333-24.5 64.833t-103.5 99.5l-29.541 24.425q-5.829 5.423-12.725 7.662-6.897 2.24-13.794 2.24t-13.669-2.36q-6.772-2.358-12.858-8.075L673-114.696q-81-70-104.5-100.572-23.5-30.573-23.5-63.428Zm183 108.783 24.898-20.748q50.515-43.143 66.417-59.806 15.902-16.663 15.902-29.229 0-9.286-6.565-16.252-6.565-6.965-16.652-6.965-6.345 0-11.501 2.721-5.155 2.721-12.151 10.083L728-233l-59.119-57.478q-7.251-6.993-13.044-9.714-5.794-2.721-11.789-2.721-9.135 0-16.2 6.915-7.065 6.914-7.065 16.134 0 11.553 15.31 28.732t67.103 59.936L728-169.913ZM300-307.696q-12.296 0-21.322-6.217t-14.743-14.935L203.13-439.696h-74.956q-16.974 0-28.64-11.604-11.665-11.605-11.665-28.489 0-16.885 11.666-28.7 11.665-11.815 28.639-11.815H228q10.761 0 20.054 5.717 9.294 5.717 14.772 15.674l36.935 66.348 108.413-198.348q5.478-9.957 15.144-15.174 9.667-5.217 20.562-5.217 11.316 0 20.272 5.217 8.957 5.217 14.674 15.174l61.044 110.609H636q16.974 0 28.639 11.604 11.665 11.605 11.665 28.489 0 16.885-11.665 28.7-11.665 11.815-28.639 11.815H516q-12.296 0-21.322-6.217t-14.504-14.935L444-527.435 334.826-329.087q-5.478 8.957-14.668 15.174-9.19 6.217-20.158 6.217Zm428 71.283Z"/></svg>