<svg xmlns="http://www.w3.org/2000/svg" height="20" viewBox="0 -960 960 960" width="20"><path d="M524.413-687.587q-36.435 0-62.131-25.696-25.695-25.695-25.695-62.13 0-11.152 4.239-25.957-12.239-3.239-20.717-13.217-8.479-9.978-8.479-23.457 0-15.717 11.098-26.815t26.815-11.098q11.479 0 21.076 6.359 9.598 6.359 13.598 16.837 9.479-5 19.098-7.62 9.62-2.619 21.098-2.619 36.435 0 62.011 25.576T612-775.413q0 36.435-25.576 62.13-25.576 25.696-62.011 25.696Zm135.369 293q-10.152 0-16.467-6.315Q637-407.217 637-417.37v-13.5q-34.044-9.369-70.087-32.858-36.044-23.489-59-50.141l-4.304 94.956 73.108 189.717v148.783h-79.413V-228H429.37l-97.914 118.152Q320.5-97.891 304.065-97.152q-16.435.739-28.63-11.218-9.957-9.956-10.816-24.391-.858-14.435 8.098-25.391L329.043-228h-23.152q-19.63 0-30.685-15.533-11.054-15.532-9.576-34.924 5.196-69.956 16.196-121.5 11-51.543 37.761-116.63 26.761-64.848 61.206-107.5 34.446-42.652 73.098-42.652 28.63 0 48.946 17.195 20.315 17.196 45.945 54.261 24.327 34.131 49.935 55.913 25.609 21.783 65.718 32.435 7.282-6.804 17.402-10.685 10.12-3.88 20.88-3.88 26.348 0 43.881 18.13 17.533 18.131 17.533 45.435v354.739q0 10.153-6.316 16.468-6.315 6.315-16.467 6.315-10.152 0-16.468-6.315-6.315-6.316-6.315-16.468v-354.739q0-8-5-13t-13-5q-8 0-13 5t-5 13v40.565q0 10.153-6.315 16.468-6.315 6.315-16.468 6.315Z"/></svg>