<svg xmlns="http://www.w3.org/2000/svg" height="20" viewBox="0 -960 960 960" width="20"><path d="M266.87-423.869v246.499q0 17.453-11.964 29.477-11.963 12.024-29.326 12.024t-29.537-12.024q-12.174-12.024-12.174-29.477v-605.26q0-17.453 12.024-29.477 12.024-12.024 29.477-12.024h276.526q15.408 0 26.523 8.909t14.233 22.635l16.044 64.456H734.63q17.453 0 29.477 12.024 12.024 12.024 12.024 29.477v317.26q0 17.453-12.024 29.477-12.024 12.024-29.477 12.024H553.848q-14.717 0-26.023-8.909-11.307-8.909-14.477-22.635l-16.044-64.456H266.87Zm319.76 12.999h106.5v-234.26H525.913q-14.716 0-26.023-8.909-11.306-8.909-14.477-22.635L469.37-741.13h-202.5v234.26h263.217q14.716 0 26.023 8.909 11.306 8.909 14.477 22.635l16.043 64.456ZM480-576Z"/></svg>