<svg xmlns="http://www.w3.org/2000/svg" height="20" viewBox="0 -960 960 960" width="20"><path d="M573.37-140.413q-110.435 0-197.914-63.337-87.478-63.337-123.434-166.337h-72.739q-15.813 0-26.863-11.05-11.05-11.05-11.05-26.863 0-15.813 11.05-26.863 11.05-11.05 26.863-11.05h55.782q-1-7.283-1.5-16.163-.5-8.881-.5-16.924t.5-17.065q.5-9.022 1.5-18.022h-55.782q-15.813 0-26.863-11.05-11.05-11.05-11.05-26.863 0-15.813 11.05-26.863 11.05-11.05 26.863-11.05h72.499q35.957-103.239 123.555-166.457 87.598-63.217 198.033-63.217 58.239 0 113.695 19.239 55.457 19.239 101.413 57.196 12.718 10.717 13.837 27.652 1.12 16.935-11.076 29.13-12.196 12.196-28.511 11.457-16.315-.739-29.75-10.217-35-26.761-75.282-41.022-40.283-14.261-84.326-14.261-76.566 0-140.033 40.804-63.467 40.805-95.467 109.696h197.586q15.813 0 26.863 11.05Q573.37-567.813 573.37-552q0 15.813-11.051 26.863-11.05 11.05-26.863 11.05H315.38q-.945 7.283-1.206 16.044-.261 8.76-.261 17.043t.261 17.543q.261 9.261 1.206 17.544h220.076q15.813 0 26.863 11.05Q573.37-423.813 573.37-408q0 15.813-11.051 26.863-11.05 11.05-26.863 11.05H337.87q32 68.891 95.467 109.696 63.467 40.804 140.033 40.804 44.097 0 84.233-14.5t74.897-41.022q13.435-9.717 29.37-10.098 15.934-.38 28.13 11.816 12.196 12.195 11.576 29.13-.619 16.935-13.815 27.652-45.957 37.718-101.174 56.957-55.217 19.239-113.217 19.239Z"/></svg>