<svg xmlns="http://www.w3.org/2000/svg" height="20" viewBox="0 -960 960 960" width="20"><path d="M572.891-135.869q-112.717 0-199.554-62.924T251.782-363.869h-72.978q-17.152 0-29.326-12.174t-12.174-29.327q0-17.152 12.174-29.326t29.326-12.174h56.022q-1.761-11.369-1.761-28.293t1.761-37.967h-56.022q-17.152 0-29.326-12.174t-12.174-29.326q0-17.153 12.174-29.327 12.174-12.174 29.326-12.174h72.978q35.435-100 121.914-164 86.478-64 199.195-64 62.913 0 118.109 20.718 55.196 20.717 100.63 57.435 12.435 10.956 13.555 27.728 1.119 16.772-11.555 29.446-12.673 12.674-30.445 12.793-17.772.12-31.924-11.076-33.761-25.761-73.544-39.902-39.782-14.141-84.826-14.141-76.456 0-138.684 40.75-62.229 40.75-91.794 104.249h196.391q17.153 0 29.326 12.174 12.174 12.174 12.174 29.327 0 17.152-12.174 29.326-12.173 12.174-29.326 12.174H317.587q-1.522 8.369-2.261 25.315-.739 16.945 2.261 40.945h221.217q17.153 0 29.326 12.174 12.174 12.174 12.174 29.326 0 17.153-12.174 29.327-12.173 12.174-29.326 12.174H341.218q30.521 65.413 92.869 105.206 62.348 39.793 138.804 39.793 45.044 0 84.826-14.141 39.783-14.141 73.544-39.902 14.152-11.196 31.424-11.576 17.272-.381 29.945 12.293 12.674 12.674 12.055 29.826-.62 17.153-13.055 28.109-45.434 36.957-100.63 57.674-55.196 20.718-118.109 20.718Z"/></svg>