<svg xmlns="http://www.w3.org/2000/svg" height="20" viewBox="0 -960 960 960" width="20"><path d="M387.95-350.35 716.7-679.96q-10.29-12.01-21.07-22.57-10.78-10.56-23.59-20.84L366-417.57q3.76 17.81 9.3 34.63 5.53 16.81 12.65 32.59Zm327.07 68.98q28.56-33.56 46.64-73.25 18.08-39.68 24.51-86.97L541.91-195.85q6.33 3.28 13.14 6.33 6.8 3.04 12.97 4.56 44.24-13.62 81.15-38.36 36.92-24.74 65.85-58.05ZM170.63-479.88q0 114.9 73.54 199.17 73.55 84.27 183.18 101.82-66.74-53.48-106.39-131.09Q281.3-387.59 281.3-480q0-92.41 39.78-170.52 39.77-78.11 106.51-131.59-109.63 17.55-183.3 102.44-73.66 84.89-73.66 199.79Zm304.22 242.4 307.52-307.76q-3.76-17.56-9.3-33.84-5.53-16.29-12.79-32.14L430.43-282.37q10.29 12.8 20.57 22.71 10.28 9.9 23.85 22.18Zm5.41 149.61q-80.93 0-152.37-30.6-71.43-30.6-125.13-84.29-53.69-53.7-84.29-125.11-30.6-71.41-30.6-152.61 0-81.19 30.6-152.13 30.6-70.93 84.29-124.63 53.7-53.69 125.11-84.29 71.41-30.6 152.61-30.6 81.19 0 152.13 30.6 70.93 30.6 124.63 84.29 53.69 53.7 84.29 124.88 30.6 71.17 30.6 152.1 0 80.93-30.6 152.37-30.6 71.43-84.29 125.13-53.7 53.69-124.88 84.29-71.17 30.6-152.1 30.6ZM363.67-526.33l238.92-237.91q-7.52-3.76-15.79-6.28-8.26-2.52-16.87-5.52-81.84 28.24-137.71 95.13-55.87 66.89-68.55 154.58ZM574.57-481Z"/></svg>