<svg xmlns="http://www.w3.org/2000/svg" height="20" viewBox="0 -960 960 960" width="20"><path d="M722.84-88.83q-17.36 0-29.41-12.02t-12.05-29.48v-66.5h-66.67q-17.48 0-29.53-12.02t-12.05-29.48q0-17.45 12.05-29.47 12.05-12.03 29.53-12.03h66.67v-66.5q0-17.45 12.05-29.47 12.05-12.03 29.43-12.03 17.39 0 29.37 12.03 11.98 12.02 11.98 29.47v66.5h66.19q17.38 0 29.56 11.97 12.17 11.96 12.17 29.32 0 17.37-12.02 29.39-12.03 12.02-29.48 12.02h-66.5v66.5q0 17.46-11.96 29.63-11.97 12.17-29.33 12.17Zm-268.25-1.43q-68.92-.72-135.41-32.14-66.48-31.43-115.92-80.86-54.96-54.96-85.17-126.68-30.22-71.72-30.22-150.28 0-81.45 30.6-152.39 30.6-70.93 84.29-124.63 53.7-53.69 125.04-84.29 71.34-30.6 152.5-30.6 75.66 0 142.69 26.63 67.02 26.64 118.65 73.58 51.62 46.94 85.08 110.66 33.45 63.72 42.93 137.43 2.48 17.92-9.48 31.11-11.96 13.2-30.21 13.2-16.24 0-28.04-10.7-11.79-10.69-14.27-27-1.52-22.41-10.02-48-8.5-25.58-17.35-46L430.43-282.37q13.57 17.8 30.25 31.99 16.69 14.18 35.02 27.23 21.19 16.67 28.05 40.27 6.86 23.6-4.62 48.51-10.48 21.44-26.55 33.01-16.08 11.58-37.99 11.1Zm-66.64-260.09L716.7-679.96q-10.29-12.04-21.07-22.58-10.78-10.55-23.59-20.83L366-417.57q3.76 17.81 9.28 34.61 5.52 16.81 12.67 32.61Zm-24.28-175.98 238.92-237.91q-7.52-3.76-15.79-6.28-8.26-2.52-16.78-5.52-81.93 28.24-137.8 95.13-55.87 66.89-68.55 154.58ZM170.63-480q0 112.83 73.78 198.08 73.79 85.25 183.18 104.7-66.74-53.71-106.51-132.04Q281.3-387.59 281.3-480q0-92.41 39.78-170.52 39.77-78.11 106.51-131.59-109.63 17.55-183.3 102.44-73.66 84.89-73.66 199.67Zm406.22-26Z"/></svg>