<svg xmlns="http://www.w3.org/2000/svg" height="20" viewBox="0 -960 960 960" width="20"><path d="m777.065-140.456-42.804-42.566q-51 45.718-116.935 70.435-65.935 24.718-137.804 24.718-80.394 0-151.909-30.958-71.515-30.957-124.911-84.353-53.396-53.396-84.353-124.911Q87.391-399.606 87.391-480q0-74.87 24.576-139.804 24.576-64.935 69.576-114.935l-41.804-43.044q-11.717-11.717-11.598-26.195.12-14.479 11.837-26.196 11.718-11.717 26.696-11.717 14.978 0 26.696 11.717l637.326 637.326q11.717 11.718 11.217 26.196-.5 14.478-12.217 26.196-11.718 11.717-26.315 11.717-14.598 0-26.316-11.717ZM871.891-480q0 30.032-4.402 57.886-4.402 27.853-11.665 54.676-2.063 7.981-7.526 14.234-5.463 6.252-12.696 9.674-7.232 3.421-15.189 3.78-7.956.359-16.217-2.581-15.609-6.778-23.142-22.035-7.532-15.257-2.532-31.808 5.326-19.13 7.848-41.054 2.521-21.924 2.521-42.294 0-27-4.5-53.021-4.5-26.022-13.5-50.022-18 4-37.641 5.5t-40.641 1.5q-50.065 0-97.065-11.609-47-11.608-88.457-35.543L353.652-777.152q-19.391-19.392-13.7-45.366 5.692-25.975 31.194-33.961 25.985-8.326 53.354-11.989 27.37-3.663 55.022-3.663 81.397 0 152.59 30.598Q703.304-810.935 757-757.239q53.696 53.695 84.294 124.63Q871.891-561.674 871.891-480ZM583-710ZM186.522-585q25.761-12.761 47-28.761t37-33l-31-30q-22 28-34.5 50T186.522-585ZM425-787q51 67 120.5 103T696-648q11 0 22-.5t22-2.5q-47-66-116-103.5T479.941-792q-11.941 0-25.916 1.5T425-787ZM226.522-630.761Zm134.069 223.478q-20.591 0-34.711-14.006-14.119-14.007-14.119-34.598t14.007-34.711q14.007-14.119 34.598-14.119t34.71 14.006q14.12 14.007 14.12 34.598t-14.007 34.711q-14.007 14.119-34.598 14.119ZM479.522-170.87q54 0 104.304-18.141t91.304-52.141L322.717-594.804q-32 34-70.163 57.402T172.391-500q-1 5-1.5 10t-.5 10q0 128.479 90.326 218.805 90.325 90.325 218.805 90.325Z"/></svg>