<svg xmlns="http://www.w3.org/2000/svg" height="20" viewBox="0 -960 960 960" width="20"><path d="M521.5-665.565v116.695l-83-83v-60l-30 30-45.5-45.261 87.935-87.934q6.117-5.718 13.613-8.816 7.495-3.097 15.652-3.097t15.652 3.097q7.496 3.098 13.213 8.816l145.587 145.587q12.435 12.435 12.555 28.826.119 16.391-12.076 28.826-13.153 12.674-29.805 12.554-16.652-.119-29.326-12.793l-74.5-73.5Zm-83 140.239 83 82.864v61.821q0 17.423-11.963 29.597-11.964 12.174-29.326 12.174-17.363 0-29.537-12.024T438.5-380.37v-144.956Zm234.674 341.457H266.961q-34.52 0-58.806-24.259-24.286-24.259-24.286-58.742v-30.5q0-17.452 11.964-29.476 11.963-12.024 29.326-12.024t29.537 12.024q12.174 12.024 12.174 29.476v30.5h323.304L106.143-750.901q-11.47-11.469-11.47-26.853 0-15.384 11.479-26.529 11.145-11.478 26.529-11.478t26.942 11.558l644.58 644.58q11.558 11.558 11.558 26.457 0 14.899-11.478 26.014-11.145 11.478-26.529 11.478t-26.863-11.478l-77.717-76.717Zm102.957-112.088-45.066-45.304q2 .957 2.142 1.674.141.717 1.423.717 17.453 0 29.477 12.024 12.024 12.024 12.024 29.476v1.413Z"/></svg>