<svg xmlns="http://www.w3.org/2000/svg" height="20" viewBox="0 -960 960 960" width="20"><path d="M266.87-87.87q-34.483 0-58.742-24.258-24.259-24.259-24.259-58.742v-618.26q0-34.483 24.259-58.742t58.742-24.259h277.456q16.791 0 31.744 6.076 14.952 6.077 27.167 18.854L752.5-699.457q12.196 12.435 17.913 27.229 5.718 14.793 5.718 30.945v457.653q0 27.587-25.468 38.521-25.467 10.935-45.108-8.886l-150.642-150.94q-15 10.239-34.239 14.739-19.239 4.5-40.674 4.5-62.152 0-105.228-43.076Q331.696-371.848 331.696-434q0-62.152 43.076-105.228Q417.848-582.304 480-582.304q62.152 0 105.228 43.076Q628.304-496.152 628.304-434q0 21.913-5.119 41.413-5.12 19.5-14.881 34.5l84.826 84.109V-642L546-789.13H266.87v618.26h297.456q19.391 0 30.206 12.924 10.816 12.924 11.055 28.576.239 15.414-10.076 28.457-10.316 13.044-31.185 13.044H266.87Zm213.13-277q31.043 0 50.087-23.543Q549.13-411.957 549.13-444q0-26.043-20.543-42.587Q508.043-503.13 480-503.13q-28.043 0-48.587 16.543Q410.87-470.043 410.87-444q0 32.043 19.043 55.587Q448.957-364.87 480-364.87Zm0-79.13Zm0 0Z"/></svg>