<svg xmlns="http://www.w3.org/2000/svg" height="20" viewBox="0 -960 960 960" width="20"><path d="M232.319-140.413q-16.645 0-28.341-11.546-11.696-11.545-11.696-28.28v-330.413q-26.478-5.435-43.478-25.54t-17-47.748v-210.69q0-10.696 7.135-17.827 7.135-7.13 17.837-7.13t18.061 7.13q7.358 7.131 7.358 17.827V-624h24.718v-170.63q0-10.696 7.087-17.827 7.087-7.13 17.717-7.13 10.631 0 17.989 7.13 7.359 7.131 7.359 17.827V-624h24.717v-170.63q0-10.696 7.135-17.827 7.135-7.13 17.837-7.13t17.942 7.13q7.239 7.131 7.239 17.827v210.69q0 27.643-16.881 47.748-16.88 20.105-43.358 26.54V-180q0 16.824-11.321 28.206-11.321 11.381-28.056 11.381Zm271.174 0q-16.735 0-28.266-11.506-11.531-11.507-11.531-28.517v-329.412q-36-15.717-60-56.179t-24-93.973q0-66.674 36.076-113.13 36.076-46.457 87.511-46.457 51.434 0 87.511 46.457Q626.87-726.674 626.87-660q0 53.511-24 93.973-24 40.462-60 56.179v329.412q0 17.01-11.321 28.517-11.321 11.506-28.056 11.506Zm212.905 0q-16.645 0-28.13-11.546-11.485-11.545-11.485-28.28v-594.239q0-17.957 10.828-31.413 10.828-13.457 27.563-13.457 47.868 0 80.445 41.957Q828.196-735.435 828.196-672v202.087q0 17.452-12.058 29.476-12.057 12.024-29.559 12.024h-30.616V-180q0 16.824-11.415 28.206-11.415 11.381-28.15 11.381Z"/></svg>