<svg xmlns="http://www.w3.org/2000/svg" height="20" viewBox="0 -960 960 960" width="20"><path d="M38.435-324.239v-311.522q0-17.452 12.023-29.476 12.025-12.024 29.477-12.024H246.5q17.452 0 29.476 12.024Q288-653.213 288-635.761v311.522q0 17.452-12.024 29.476-12.024 12.024-29.476 12.024H79.935q-17.453 0-29.477-12.024-12.023-12.024-12.023-29.476Zm316.782 0v-311.522q0-17.452 12.024-29.476 12.024-12.024 29.476-12.024h166.566q17.452 0 29.476 12.024 12.024 12.024 12.024 29.476v311.522q0 17.452-12.024 29.476-12.024 12.024-29.476 12.024H396.717q-17.452 0-29.476-12.024-12.024-12.024-12.024-29.476Zm316.783 0v-311.522q0-17.452 12.024-29.476 12.024-12.024 29.476-12.024h166.565q17.453 0 29.477 12.024 12.023 12.024 12.023 29.476v311.522q0 17.452-12.023 29.476-12.024 12.024-29.477 12.024H713.5q-17.452 0-29.476-12.024Q672-306.787 672-324.239Zm-552.957-39.109h88.348v-233.304h-88.348v233.304Zm633.566 0h88.348v-233.304h-88.348v233.304Z"/></svg>