<svg xmlns="http://www.w3.org/2000/svg" height="20" viewBox="0 -960 960 960" width="20"><path d="M177.13-135.87q-17.15 0-29.21-12.17-12.05-12.18-12.05-29.33t12.17-29.21q12.18-12.05 29.33-12.05h605.5q17.15 0 29.21 12.17 12.05 12.18 12.05 29.33t-12.17 29.21q-12.18 12.05-29.33 12.05h-605.5Zm546.83-192.2L195-486.07q-26.59-7.71-42.86-29.82t-16.27-49.7v-166.56q0-22.15 17.17-34.97 17.18-12.81 38.09-7.1l24.63 6.96q9.96 3.24 17.56 10.96 7.59 7.71 11.07 17.67l39.52 117.56 122.63 37.61-23.52-258.45q-2.24-28.39 19.94-46.45 22.17-18.05 49.56-9.57l22.15 6.47q13.2 4.48 22.66 13.08 9.45 8.6 13.69 21.79l108 336 150.05 43.76q24.67 7.24 39.86 28.3 15.2 21.05 15.2 45.96 0 37.64-31.15 62.05-31.15 24.41-69.02 12.45Z"/></svg>