<svg xmlns="http://www.w3.org/2000/svg" height="20" viewBox="0 -960 960 960" width="20"><path d="M352-168q33.326 0 54.38-19 21.055-19 73.62-19 53.565 0 74.5 19 20.935 19 54.5 19 33.326 0 53.5-19t75.5-19q36.804 0 53.043 10.38 16.24 10.381 36.957 18.381 15.674 7.478 27.63 19.554 11.957 12.076 11.957 29.511 0 17.674-12.815 28.511t-28.011 6.359q-28.283-8.239-45.881-20.761-17.597-12.522-44.88-12.522-34.522 0-54.478 19-19.957 19-73.522 19-52.326 0-72.902-19t-55.098-19q-34.283 0-54.478 19-20.196 19-73.522 19-53.326 0-72.522-19-19.195-19-53.478-19-28.283 0-45.5 12.522T133-93.305q-15.196 3.48-27.891-6.858-12.696-10.337-12.696-28.011 0-17.435 11.696-30.13 11.695-12.696 27.369-19.174 20.718-8 38.337-18.261Q187.435-206 223-206q52.565 0 74.12 19 21.554 19 54.88 19Zm0-68.413q-54.565 0-73.902-19-19.337-19-54.098-19-27.522 0-44.12 13.141-16.597 13.142-48.119 20.381-15.196 3.478-27.272-7.598Q92.413-259.565 92.413-276q0-17.435 11.457-29.891 11.456-12.457 27.13-19.935 18.717-7.761 36.217-17.641 17.5-9.881 48.305-10.12 7.043 0 8.728.38 1.685.381 2.967.142l-35.891-132.522-13.935 17.5q-9.956 12.957-25.891 14.576-15.935 1.62-29.13-8.098-12.957-9.717-15.316-26.391-2.358-16.674 7.598-29.87l238.609-301.456q17.152-21.87 42.88-29.207 25.729-7.337 52.077 2.859l358.217 143.609q15.674 5.478 21.652 20.413 5.978 14.935-.5 30.609-5.478 15.434-20.293 21.532-14.816 6.098-30.251.62l-21.543-8.131 85.087 318.109q-.957-.478-1.913-1.076-.957-.598-1.674-1.076 13.913 6 21.75 18.315 7.837 12.315 7.837 26.75 0 17.674-12.315 28.511t-27.511 7.359q-31.283-7.24-47.5-20.761-16.218-13.522-44.261-13.522-34.283 0-51.978 19-17.696 19-76.022 19-52.565 0-72.402-19-19.837-19-54.598-19-34.283 0-53.978 19-19.696 19-74.022 19Zm.522-79.174q23.848.478 40.761-11.739 16.913-12.218 37.76-20.261l-34.956-135.304q-2.239-9.196 1.859-16.153 4.097-6.956 13.293-9.195l145.5-37.566q9.196-2.239 16.033 1.74 6.837 3.978 9.315 13.174l55.435 210.304q17.369-9.522 42.804-23.163 25.435-13.641 69.37-7.12L663.13-673.13l-245.934-99.566-163.892 209.413 63.566 236.935q7.282 4.761 16.326 7.761 9.043 3 19.326 3Zm122.239-226.696Z"/></svg>