<svg xmlns="http://www.w3.org/2000/svg" height="20" viewBox="0 -960 960 960" width="20"><path d="M872.131-593.703v300.612q0 20.71-12.935 31.085-12.935 10.376-28.457 10.376t-28.565-10.416q-13.044-10.415-13.044-30.845v-300.652H506.026q-16.606 0-31.609-5.837-15.004-5.837-27.678-18.511l-98.261-98.261q-12.195-12.457-10.456-26.522 1.739-14.065 10.456-22.783 8.718-8.717 22.663-10.456 13.946-1.739 26.403 10.456l88.913 88.913H789.13q34.483 0 58.742 24.212t24.259 58.629ZM170.87-183.869q-33.783 0-58.392-24.609T87.869-266.87v-426.26q0-32.57 22.337-56.111 22.337-23.542 53.49-25.933h24l82.043 82.044H170.87v426.26h419.347L77.174-778.674q-11.718-11.717-11.598-26.315.12-14.598 11.598-26.076 11.717-11.718 26.815-11.718t26.815 11.718l701.158 701.158q11.821 11.864 11.821 26.559 0 14.696-11.479 26.652-11.478 11.24-26.195 11.12-14.718-.12-26.196-11.598L673.218-183.869H170.87ZM375.848-480Zm203.391-5.63Z"/></svg>