<svg xmlns="http://www.w3.org/2000/svg" height="20" viewBox="0 -960 960 960" width="20"><path d="M707.044-444.826v112.935q0 16.195-11.457 27.652-11.456 11.456-27.652 11.456t-27.652-11.456q-11.457-11.457-11.457-27.652v-92.261l-36.739-69.196q-14.435 4.283-23.891 15.261-9.457 10.978-9.457 25.935v207.217l55.522 98.283q11.957 19.435.62 39.109-11.337 19.674-34.251 19.674-10.717 0-19.315-5.479-8.598-5.478-14.315-14.195l-66.478-116.718v-227.891q0-36.391 20.174-66.424 20.174-30.033 52.804-44.033L490.913-675.63q-18.956-33.957-11.598-72.533 7.359-38.576 37.076-64.294L553-845.544q12.674-11.674 30.185-9.934 17.511 1.739 29.185 14.413L829.5-591.696q9.196 10.196 14.294 23.37 5.097 13.174 6.337 26.848l21 412.261q1 16.435-10.457 28.891-11.456 12.457-28.891 12.457-15.196 0-26.653-10.837-11.456-10.837-12.456-26.033l-20.761-413.935-193.609-222.848-11.565 9.565q-8.565 7.283-10.826 18.468-2.261 11.185 4.261 20.989l146.87 267.674Zm-453.566 0L400.348-712.5q6.521-9.804 4.261-20.989-2.261-11.185-10.827-18.468l-11.565-9.565-193.608 222.848-20.761 413.696q-1 14.956-12.457 26.032-11.456 11.077-26.652 11.077-17.435 0-28.891-11.957-11.457-11.956-10.457-29.391l21-412.261q1.239-13.674 5.718-26.848 4.478-13.174 13.673-23.37l217.37-249.369q11.674-12.674 28.946-14.413 17.272-1.74 29.945 9.934l38.087 33.087q29.718 25.718 37.076 64.294 7.359 38.576-11.597 72.533l-61.587 113.021q32.63 14 52.304 44.033T480-452.152v227.891l-66.478 116.718q-5.718 8.717-14.196 14.195-8.478 5.479-19.196 5.479-22.913 0-34.369-19.794-11.457-19.793.5-39.228l55.521-98.044v-207.217q0-14.957-8.956-25.935-8.957-10.978-23.391-15.261l-37.739 69.196v92.261q0 16.195-11.457 27.652-11.457 11.456-27.652 11.456-16.196 0-27.652-11.456-11.457-11.457-11.457-27.652v-112.935Z"/></svg>