<svg xmlns="http://www.w3.org/2000/svg" height="20" viewBox="0 -960 960 960" width="20"><path d="M211.722-182.674q-31.07 0-52.983-22.109-21.913-22.109-21.913-53.156v-36.079q0-31.047 22.126-52.96 22.125-21.913 53.195-21.913t52.983 22.109q21.913 22.109 21.913 53.156v36.079q0 31.047-22.125 52.96-22.126 21.913-53.196 21.913ZM830-188.891h-55.159q-10.471 0-16.254-8.576-5.783-8.576-3.304-17.772l11-39.741q2.239-8.172 8.434-12.15 6.196-3.979 14.153-2.979l46.844 7.2q13.96 2.279 22.677 12.466 8.718 10.188 8.718 23.975 0 15.756-10.742 26.666-10.742 10.911-26.367 10.911Zm-138.065-13.435L594-235.174q-9.435-2.239-12.913-10.935-3.478-8.695 0-17.891l28.478-61.717q3.478-9.435 12.174-11.555 8.696-2.119 16.883 2.942l82.465 46.743q5.811 3.205 8.504 9.497 2.692 6.292.692 13.373l-12 47.239q-2.24 9.435-9.696 13.413-7.457 3.978-16.652 1.739Zm-168.039-64.33-72.939-19.235q-8.718-2.239-14.555-9.496-5.837-7.256-5.837-16.613v-42q0-20.067 6.978-37.251 6.979-17.184 21.457-29.662 5.717-5.478 13.674-4.978 7.956.5 15.674 3.978l82.224 44.514q6.993 3.812 9.613 11.149 2.619 7.337-.859 15.293l-31.555 72.369q-3.088 7.25-9.462 10.637-6.374 3.386-14.413 1.295ZM346-296.891q-9.957 0-17.753-6.084-7.796-6.083-9.356-15.547-8.239-36.565-37.08-61.467-28.842-24.902-66.235-24.902H198q-9.435 0-15.272-5.837T176.891-426q0-9.435 5.837-15.272t15.09-5.837H233q17.522 0 34.283-4.5 16.76-4.5 31.282-14.021 5.718-4.479 13.794-4.479t13.793 4.479q15.941 10.618 31.439 14.569 15.498 3.952 33.865 3.952 12.344 0 17.607 10.696t.263 22.609q-7.522 16-11.141 30.109-3.62 14.11-3.62 30.695v35.239q0 9.148-5.717 15.009-5.718 5.861-14.913 5.861H346ZM229.652-483.109q-38.332 0-65.22-27.027-26.889-27.028-26.889-65.56 0-18.862 6.739-36.732 6.74-17.869 20.218-31.333l45.043-43.953v-44.604q0-15.878 11.246-27.334 11.246-11.457 27.653-11.457 16.406 0 27.862 11.307 11.457 11.306 11.457 27.802v60.391q0 7.758-3.238 14.788-3.239 7.031-8.719 12.364l-55.158 54.865q-2.163 2.11-3.643 5.72-1.481 3.61-1.481 7.22 0 6.113 4.296 10.48 4.297 4.367 10.312 4.367 5.326 0 15.848-7.565 14.57-11.425 30.742-19.191 16.171-7.765 36.407-7.765 20.235 0 35.612 7.765 15.377 7.766 29.805 19.191 3.521 2.761 6.995 5.163t7.816 2.402q6.08 0 10.362-4.367 4.283-4.367 4.283-10.48 0-3.489-1.468-6.977-1.468-3.489-3.425-5.815l-54.911-55.013q-5.759-5.628-9.097-12.46-3.338-6.832-3.338-14.692V-732q0-16.496 11.246-27.802 11.246-11.307 27.652-11.307t27.863 11.307q11.456 11.306 11.456 27.802v44.43l45.044 43.809q13.478 13.621 20.217 31.365 6.739 17.744 6.739 36.465 0 39.234-26.858 66.028-26.858 26.794-65.146 26.794-18.507 0-35.053-7.205-16.546-7.205-30.964-18.712-4.24-3.039-7.718-5.92-3.478-2.88-8.478-2.88-6.283 0-17.196 9-14.478 11.478-30.952 18.59-16.474 7.112-33.961 7.127Zm82.109-288Z"/></svg>