<svg xmlns="http://www.w3.org/2000/svg" height="20" viewBox="0 -960 960 960" width="20"><path d="m325.891-480 52.174 52.174q12.674 12.674 12.555 29.493-.12 16.819-12.794 29.159-12.101 12.674-29.04 12.794-16.938.119-29.855-12.798l-81.514-81.513Q224.5-463.609 224.5-480.182t12.674-28.883l81.601-81.601Q331.609-603.5 348.5-603.5q16.891 0 30.044 12.674 12.195 12.674 12.076 29.446-.12 16.771-12.879 29.53L325.891-480Zm308.218 0-52.174-52.174q-12.674-12.674-12.555-29.493.12-16.819 12.794-29.159 12.101-12.674 29.04-12.794 16.938-.119 29.855 12.798l81.514 81.513q12.917 12.918 12.917 29.491t-12.674 28.883l-81.601 81.601q-12.834 12.834-29.407 12.373-16.573-.462-28.883-13.213-12.674-12.674-12.555-29.446.12-16.771 12.71-29.361L634.109-480ZM218.87-135.869q-34.483 0-58.742-24.259t-24.259-58.742V-342.5q0-17.452 11.964-29.476Q159.796-384 177.159-384t29.537 12.024q12.174 12.024 12.174 29.476v123.63H342.5q17.452 0 29.476 11.964Q384-194.943 384-177.58t-12.024 29.537q-12.024 12.174-29.476 12.174H218.87Zm522.26 0H617.5q-17.452 0-29.476-11.964Q576-159.796 576-177.159t12.024-29.537q12.024-12.174 29.476-12.174h123.63V-342.5q0-17.452 11.964-29.476Q765.057-384 782.42-384t29.537 12.024q12.174 12.024 12.174 29.476v123.63q0 34.483-24.259 58.742t-58.742 24.259ZM135.869-617.5v-123.63q0-34.483 24.259-58.742t58.742-24.259H342.5q17.452 0 29.476 11.964Q384-800.204 384-782.841t-12.024 29.537Q359.952-741.13 342.5-741.13H218.87v123.63q0 17.452-11.964 29.476Q194.943-576 177.58-576t-29.537-12.024q-12.174-12.024-12.174-29.476Zm605.261 0v-123.63H617.5q-17.452 0-29.476-11.964Q576-765.057 576-782.42t12.024-29.537q12.024-12.174 29.476-12.174h123.63q34.483 0 58.742 24.259t24.259 58.742v123.63q0 17.452-11.964 29.476Q800.204-576 782.841-576t-29.537-12.024Q741.13-600.048 741.13-617.5Z"/></svg>