<svg xmlns="http://www.w3.org/2000/svg" height="20" viewBox="0 -960 960 960" width="20"><path d="M364.544-288q-33.287 0-56.351-23.063-23.063-23.063-23.063-56.35v-225.174q0-33.287 23.063-56.35Q331.257-672 364.544-672h222.499q16.825 0 28.206 11.321 11.381 11.32 11.381 28.056 0 16.645-11.381 28.341-11.381 11.695-28.206 11.695H364.544v225.174h182.912v-85.239H513.37q-16.114 0-27.014-10.84-10.9-10.839-10.9-26.863 0-16.023 10.875-27.073t26.951-11.05h73.499q16.787 0 28.318 11.381 11.531 11.381 11.531 28.206v121.478q0 33.287-22.943 56.35Q580.743-288 547.456-288H364.544Z"/></svg>