<svg xmlns="http://www.w3.org/2000/svg" height="20" viewBox="0 -960 960 960" width="20"><path d="M479.899-646.087q-26.334 0-44.91-18.797-18.576-18.796-18.576-45.13 0-26.334 18.677-44.91 18.677-18.576 45.011-18.576 26.334 0 44.91 18.677 18.576 18.677 18.576 45.011 0 26.334-18.677 45.029-18.677 18.696-45.011 18.696ZM404.413-228v-104.413h-14.181q-21.189 0-32.884-17.652-11.696-17.652-3.978-37.805l70.043-175.652q7.239-18.195 22.935-28.293 15.695-10.098 33.652-10.098t33.652 10.098q15.696 10.098 22.935 28.293L606.63-387.87q7.718 20.153-3.978 37.805-11.695 17.652-33.049 17.652H555.25V-228q0 17.452-11.927 29.476-11.927 12.024-29.236 12.024h-68.174q-17.452 0-29.476-12.024-12.024-12.024-12.024-29.476Z"/></svg>