<svg xmlns="http://www.w3.org/2000/svg" height="20" viewBox="0 -960 960 960" width="20"><path d="M254.7-181q-31.461 0-53.537-22.169t-22.076-53.63q0-31.462 22.288-53.538 22.289-22.076 53.75-22.076 31.462 0 53.418 22.289 21.957 22.288 21.957 53.75 0 31.461-22.169 53.418Q286.162-181 254.7-181Zm302.588 0q-31.462 0-53.418-22.169-21.957-22.169-21.957-53.63 0-31.462 22.169-53.538 22.169-22.076 53.631-22.076 31.461 0 53.418 22.289 21.956 22.288 21.956 53.75 0 31.461-22.169 53.418Q588.749-181 557.288-181ZM405.875-328.587q-31.462 0-53.419-22.288-21.956-22.289-21.956-53.75 0-31.462 22.169-53.418Q374.838-480 406.299-480q31.462 0 53.538 22.169 22.076 22.169 22.076 53.63 0 31.462-22.288 53.538-22.289 22.076-53.75 22.076Zm299 0q-31.462 0-53.418-22.288-21.957-22.289-21.957-53.75 0-31.462 22.169-53.418Q673.838-480 705.3-480q31.461 0 53.537 22.169t22.076 53.63q0 31.462-22.288 53.538-22.289 22.076-53.75 22.076ZM254.7-480q-31.461 0-53.537-22.169t-22.076-53.63q0-31.462 22.288-53.538 22.289-22.076 53.75-22.076 31.462 0 53.418 22.288 21.957 22.289 21.957 53.75 0 31.462-22.169 53.418Q286.162-480 254.7-480Zm302.588 0q-31.462 0-53.418-22.169-21.957-22.169-21.957-53.63 0-31.462 22.169-53.538 22.169-22.076 53.631-22.076 31.461 0 53.418 22.288 21.956 22.289 21.956 53.75 0 31.462-22.169 53.418Q588.749-480 557.288-480ZM405.875-627.587q-31.462 0-53.419-22.289-21.956-22.288-21.956-53.75 0-31.461 22.169-53.418Q374.838-779 406.299-779q31.462 0 53.538 22.169 22.076 22.169 22.076 53.63 0 31.462-22.288 53.538-22.289 22.076-53.75 22.076Zm299 0q-31.462 0-53.418-22.289-21.957-22.288-21.957-53.75 0-31.461 22.169-53.418Q673.838-779 705.3-779q31.461 0 53.537 22.169t22.076 53.63q0 31.462-22.288 53.538-22.289 22.076-53.75 22.076Z"/></svg>