<svg xmlns="http://www.w3.org/2000/svg" height="20" viewBox="0 -960 960 960" width="20"><path d="M216-598.348q0 55.631 18.133 108.827 18.134 53.197 52.041 98.804 10.717 14.152 10.478 31.635-.239 17.483-12.489 30.046-12.654 12.601-29.789 11.221-17.135-1.38-27.853-14.815-45.478-57.392-69.5-124.902Q133-525.042 133-598.804q0-72.239 24.021-140.413 24.022-68.174 69.5-125.805 10.718-13.435 27.751-14.435 17.032-1 29.668 11.383 11.995 12.382 12.473 29.706.478 17.325-10.239 31.238-33.804 45.956-51.989 98.978Q216-655.13 216-598.348Zm341.725 95.544q-40.225 0-68.225-28-28-28-28-67.546 0-40.511 27.775-68.483 27.774-27.971 68-27.971 40.225 0 68.225 27.971 28 27.972 28 68.483 0 39.546-27.775 67.546-27.774 28-68 28ZM744-244.344q0-17.113 11.963-29.287 11.964-12.174 29.327-12.174 17.362 0 29.536 11.981Q827-261.843 827-244.455q0 66.564-43.386 110.857Q740.227-89.304 679.5-89.304q-67.913 0-103.848-42.435t-53.066-97.047q-14.108-46.627-30.847-77.986-16.739-31.358-64.261-56.88-65.043-34.044-102.261-98.239Q288-526.087 288-599.804q0-112.153 78.674-190.326 78.674-78.174 190.826-78.174 112.152 0 190.826 80.108Q827-708.087 827-593.304q0 17.452-11.963 29.476-11.964 12.024-29.326 12.024-17.363 0-29.537-12.024T744-593.304q0-80-54.446-136-54.445-56-132.054-56-77.609 0-132.054 53.945Q371-677.413 371-599.804q0 52.043 26.761 96.608 26.761 44.566 72.761 68.566 61.283 31.521 83.663 68.782 22.38 37.261 45.38 107.5 16 48.239 35.805 67.141 19.804 18.903 43.652 18.903 27.201 0 46.089-20.903Q744-214.109 744-244.344Z"/></svg>