<svg xmlns="http://www.w3.org/2000/svg" height="20" viewBox="0 -960 960 960" width="20"><path d="M408.881-466.087q15.923 0 27.021-10.9T447-504q0-14.813-10.839-26.363-10.84-11.55-26.864-11.55-15.922 0-26.903 11.55-10.981 11.55-10.981 26.863 0 15.313 10.772 26.363 10.772 11.05 26.696 11.05Zm-138.381 0q14.813 0 26.363-10.9 11.55-10.9 11.55-27.013 0-14.813-11.55-26.363-11.55-11.55-26.863-11.55-15.313 0-26.363 11.55-11.05 11.55-11.05 26.863 0 15.313 10.9 26.363 10.9 11.05 27.013 11.05Zm279.203 0q15.922 0 26.903-10.9 10.981-10.9 10.981-27.013 0-14.813-10.772-26.363-10.772-11.55-26.696-11.55-15.923 0-27.021 11.55T512-503.5q0 15.313 10.839 26.363 10.84 11.05 26.864 11.05Zm139.797 0q14.813 0 26.363-10.9 11.55-10.9 11.55-27.013 0-14.813-11.55-26.363-11.55-11.55-26.863-11.55-15.313 0-26.363 11.55-11.05 11.55-11.05 26.863 0 15.313 10.9 26.363 10.9 11.05 27.013 11.05ZM189.37-314.87h581.26q27.432 0 46.966-19.595 19.534-19.596 19.534-46.905v-245.26q0-27.432-19.534-46.966-19.534-19.534-46.966-19.534H189.37q-27.309 0-46.905 19.534-19.595 19.534-19.595 46.966v245.26q0 27.309 19.595 46.905 19.596 19.595 46.905 19.595Zm90.499 95.001v-12H189.37q-62.269 0-105.885-43.616-43.616-43.616-43.616-105.885v-245.26q0-62.392 43.616-105.946 43.616-43.555 105.885-43.555h581.26q62.392 0 105.946 43.555 43.555 43.554 43.555 105.946v245.26q0 62.269-43.555 105.885-43.554 43.616-105.946 43.616h-90.499v12q0 15.3-10.35 25.65-10.35 10.35-25.65 10.35H315.869q-15.3 0-25.65-10.35-10.35-10.35-10.35-25.65ZM480-504Z"/></svg>