<svg xmlns="http://www.w3.org/2000/svg" height="20" viewBox="0 -960 960 960" width="20"><path d="M218.87-135.87q-34.24 0-58.62-24.38-24.38-24.38-24.38-58.62v-498.24q0-.96.12-2.03.12-1.08.12-1.56l-59.08-58.98q-11.57-11.43-11.45-26.03.12-14.59 11.59-26.07 11.72-11.72 27.32-11.72t27.31 11.72l700.9 701.87q11.8 11.87 11.8 26.56 0 14.7-11.48 26.65-11.48 11.24-26.19 11.12-14.72-.12-26.2-11.59l-59.93-58.7H218.87Zm0-83H637.7L573.8-283H285.5q-12.91 0-19.01-11.43-6.1-11.44 1.86-21.87l77.5-102.83q6.2-9.2 16.15-9.2t16.15 9.2L451-322l35.52-48.28L218.87-637.7v418.83Zm605.26-522.26v408.04q0 20.75-12.93 31.13-12.94 10.37-28.46 10.37-15.52 0-28.57-10.41-13.04-10.42-13.04-30.85v-408.28H332.85q-20.75 0-31.13-12.99-10.37-12.99-10.37-28.58 0-15.58 10.37-28.51 10.38-12.92 31.13-12.92h408.28q34.24 0 58.62 24.38 24.38 24.38 24.38 58.62ZM531.91-527.91ZM426.52-426.28Z"/></svg>