<svg xmlns="http://www.w3.org/2000/svg" height="20" viewBox="0 -960 960 960" width="20"><path d="M234.5-301.87v-415.26l-58.041-90.833q-13.437-21.146-2.053-42.657 11.384-21.511 36.833-21.511h421.5q37.172 0 63.292 26.121 26.121 26.121 26.121 63.293v30.586h67.43q34.57 0 58.559 24.14 23.99 24.139 23.99 58.621v187.218q0 34.483-24.14 58.622-24.139 24.139-58.621 24.139h-67.218v97.521q0 34.483-24.259 58.742-24.258 24.258-58.741 24.258H317.5q-34.483 0-58.741-24.258Q234.5-267.387 234.5-301.87Zm82.761.239h322.13V-789.37H287.326l29.935 47.292v440.447Zm404.891-180.521h67.218V-669.37h-67.218v187.218ZM533.586-741.37q-24.086 0-40.988 16.849-16.902 16.85-16.902 40.92v276.096q0 24.07 16.86 40.972 16.859 16.902 40.945 16.902t40.988-16.849q16.902-16.849 16.902-40.919v-276.096q0-24.07-16.86-40.972-16.86-16.903-40.945-16.903ZM186.935-87.87q-17.452 0-29.476-11.963-12.024-11.963-12.024-29.326t12.024-29.537q12.024-12.174 29.476-12.174H782.63q17.453 0 29.477 11.964 12.024 11.963 12.024 29.326t-12.024 29.537q-12.024 12.174-29.477 12.174H186.935ZM463.478-545.5Z"/></svg>