<svg xmlns="http://www.w3.org/2000/svg" height="20" viewBox="0 -960 960 960" width="20"><path d="M37.913-136.587q-16.113 0-27.013-10.839Q0-158.266 0-174.289q0-16.024 10.9-27.074t27.013-11.05h54.5V-741.13q0-34.483 24.259-58.742 24.258-24.259 58.741-24.259h609.174q34.483 0 58.741 24.259 24.259 24.259 24.259 58.742v528.717h54.5q16.113 0 27.013 10.84Q960-190.734 960-174.71q0 16.023-10.9 27.073t-27.013 11.05H37.913Zm370.141-99.826h144.324q9.622 0 16.622-7.2t7-16.8q0-9.6-7.216-16.8-7.216-7.2-16.838-7.2H407.622q-9.622 0-16.622 7.2t-7 16.8q0 9.6 7.216 16.8 7.216 7.2 16.838 7.2ZM175.413-336h609.174v-405.13H175.413V-336ZM480-538.565Z"/></svg>