<svg xmlns="http://www.w3.org/2000/svg" height="20" viewBox="0 -960 960 960" width="20"><path d="m118.174-267.804 207.174-207.174q24.348-24.348 58.652-24.228 34.304.119 58.652 24.467l97.87 97.869 59.5-66.782-216.979-218.044-207.217 207.218q-12.435 12.435-28.706 12.054-16.272-.38-28.946-13.054-12.435-12.435-12.435-29.326 0-16.892 12.435-29.327L324.63-720.587q24.348-24.348 59.25-24.728 34.903-.381 59.011 24.206l212.544 215.087 127.261-143.543q11.674-12.674 28.326-13.913 16.652-1.239 29.565 10.435 12.674 11.434 13.794 28.826 1.119 17.391-10.316 30.065L713.848-447.413l131.456 133.848q12.435 12.913 12.316 28.946-.12 16.032-12.794 28.706Q831.913-243 815.761-243t-28.826-13.152L658.196-385.043l-55.065 62.347q-24.109 26.827-59.892 27.707-35.783.88-61.13-24.228L384-417.087 175.826-208.913Q163.152-196.239 147-196.358q-16.152-.12-28.826-12.794-12.435-12.674-12.435-29.446 0-16.772 12.435-29.206Z"/></svg>