<svg xmlns="http://www.w3.org/2000/svg" height="20" viewBox="0 -960 960 960" width="20"><path d="M342.804-470.761ZM170.87-135.869q-34.483 0-58.742-24.259T87.869-218.87v-343.695q0-19.421 8.576-36.798 8.577-17.376 24.729-30.05l213.13-159.848q11.435-9.196 24.229-12.674 12.793-3.478 25.467-3.478t25.467 3.478q12.794 3.478 24.229 12.674l110.826 82.739q16.27 12.341 16.711 28.92.441 16.58-8.836 29.48-9.278 12.9-25.229 16.891-15.951 3.992-32.103-8.682L384-722.413 170.87-562.565v343.695h144.521q17.452 0 29.476 12.083 12.024 12.083 11.785 29.446-.239 17.363-12.102 29.417-11.862 12.055-29.398 12.055H170.87ZM648-335.283q52.239 0 98.814 12.622 46.575 12.622 85.099 38.857 16.957 11.478 26.315 28.9 9.359 17.422 9.359 37.198v6q0 31.761-22.038 53.799t-53.788 22.038H504.239q-31.75 0-53.788-22.038-22.038-22.038-22.038-53.798v-6q0-20.947 9.513-38.237 9.512-17.291 26.161-27.862 42.478-26 89.076-38.739 46.598-12.74 94.837-12.74ZM512.37-213.37h271.499v-6q-29.565-18.086-63.87-28.249-34.306-10.163-71.999-10.163-35.611 0-70.338 9.663T512.37-220.37v7Zm135.672-143.043q-51.477 0-87.553-36.034t-36.076-87.511q0-51.477 36.034-87.553t87.511-36.076q51.477 0 87.553 36.034t36.076 87.511q0 51.477-36.034 87.553t-87.511 36.076Zm-.042-77.5q19.587 0 32.837-13.25 13.25-13.25 13.25-32.837 0-19.587-13.25-32.837-13.25-13.25-32.837-13.25-19.587 0-32.837 13.25-13.25 13.25-13.25 32.837 0 19.587 13.25 32.837 13.25 13.25 32.837 13.25Zm.239 220.543Z"/></svg>