<svg xmlns="http://www.w3.org/2000/svg" height="20" viewBox="0 -960 960 960" width="20"><path d="M365.5-632.848h225.413v-89.065q0-48.087-32.908-80.696-32.907-32.608-79.918-32.608-46.911 0-79.749 32.608Q365.5-770 365.5-721.913v89.065ZM265.196-88.587q-34.483 0-58.742-24.259-24.259-24.258-24.259-58.741v-378.261q0-34.483 24.259-58.741 24.259-24.259 58.742-24.259H282.5v-89.065q0-82.311 57.183-139.308 57.182-56.997 138.63-56.997t138.524 56.997q57.076 56.997 57.076 139.308v89.065h17.304q34.483 0 58.742 24.259 24.259 24.258 24.259 58.741v10.565q0 20.75-12.935 31.125-12.935 10.376-28.457 10.376t-28.565-10.376q-13.044-10.375-13.044-31.125v-10.565H265.196v378.261h132.717q17.536 0 29.399 11.963 11.862 11.964 11.862 29.327 0 17.362-11.862 29.536-11.863 12.174-29.399 12.174H265.196Zm413.991 45.37q-79.774 0-135.774-56.226-56-56.227-56-136 0-79.774 56.226-135.774t136-56q79.774 0 135.774 56.226t56 136q0 79.774-56.226 135.774t-136 56Zm25.9-202.818v-61.421q0-10.27-7.712-17.972-7.713-7.702-17.996-7.702-10.283 0-18.081 7.774-7.798 7.773-7.798 18.139v65.565q0 9.196 3.359 16.55 3.359 7.354 9.167 13.128l50.192 50.192q7.841 7.478 18.377 7.358 10.536-.119 18.014-7.632 7.478-7.512 7.478-18.014 0-10.501-7.478-18.343l-47.522-47.622ZM265.196-549.848V-171.587v-378.261Z"/></svg>