<svg xmlns="http://www.w3.org/2000/svg" height="20" viewBox="0 -960 960 960" width="20"><path d="M519.587-135.869q-17.452 0-29.476-11.964-12.024-11.963-12.024-29.326t12.024-29.537q12.024-12.174 29.476-12.174H741.13v-522.26H519.587q-17.452 0-29.476-11.964-12.024-11.963-12.024-29.326t12.024-29.537q12.024-12.174 29.476-12.174H741.13q34.483 0 58.742 24.259t24.259 58.742v522.26q0 34.483-24.259 58.742t-58.742 24.259H519.587ZM419.347-438.5H177.333q-17.437 0-29.45-11.963-12.014-11.964-12.014-29.326 0-17.363 12.014-29.537 12.013-12.174 29.45-12.174h242.014L368.848-572q-12.674-12.674-12.674-29.637t12.674-29.326q12.673-12.602 29.206-12.483 16.533.12 29.207 12.794l121.826 121.826q12.435 12.31 12.435 28.644 0 16.334-12.435 29.008L427.261-329.348q-12.435 12.674-28.707 12.294-16.272-.381-29.185-13.055-12.195-12.434-12.315-29.206-.12-16.772 12.554-29.446l49.739-49.739Z"/></svg>