<svg xmlns="http://www.w3.org/2000/svg" height="20" viewBox="0 -960 960 960" width="20"><path d="M848.261-391.587 569.413-111.739q-12.503 12.435-27.382 18.152-14.879 5.718-31.031 5.718t-31.031-5.718q-14.879-5.717-27.382-18.152L111.915-452.411q-12.133-12.132-18.09-27.025-5.956-14.892-5.956-31.325V-789.37q0-34.138 24.311-58.45 24.312-24.311 58.45-24.311h278.609q15.993 0 30.986 5.718 14.993 5.717 27.155 18.089l340.881 340.433q12.674 12.673 18.511 27.087 5.837 14.413 5.837 30.541 0 16.127-5.859 31.27-5.859 15.142-18.489 27.406ZM511-170.87l278.37-278.369L449-789.13H170.87v278.369L511-170.87ZM266.363-634.087q24.789 0 42.17-17.352 17.38-17.353 17.38-42.142t-17.352-42.169q-17.353-17.38-42.142-17.38t-42.169 17.352q-17.38 17.352-17.38 42.141 0 24.789 17.352 42.17 17.352 17.38 42.141 17.38ZM480-480Zm60.065 179.5 105.739-105.978q10-9.91 15-22.749 5-12.839 5-27.39 0-28.905-19.439-49.785-19.439-20.881-46.978-20.881-20.222 0-39.805 11.761-19.582 11.761-48.471 42.761-31.747-31.844-49.731-43.183-17.984-11.339-37.902-11.339-28.131 0-48.207 20.661-20.075 20.661-20.075 49.699 0 13.799 5.568 27.158 5.568 13.36 15.193 23.287L481.935-300.5q12.397 12.674 28.927 12.674 16.529 0 29.203-12.674Z"/></svg>