<svg xmlns="http://www.w3.org/2000/svg" height="20" viewBox="0 -960 960 960" width="20"><path d="M574.413-143.826 360-207.63l-169.478 56.478q-10.435 3.478-19.75 1.859-9.316-1.62-17.272-7.337-7.957-5.718-12.794-14.413-4.837-8.696-4.837-19.131V-709q0-18.63 11.055-33.283 11.054-14.652 27.446-20.369l160.043-53.522q5.957-2.239 12.793-2.978 6.837-.739 12.794-.739 5.957 0 12.794.619 6.836.62 12.793 3.098L600-752.37l169.478-56.478q10.435-3.478 19.75-1.859 9.316 1.62 17.272 7.337 7.957 5.718 12.794 14.413 4.837 8.696 4.837 19.131V-251q0 18.63-10.555 33.783-10.554 15.152-27.946 19.869l-160.043 53.522q-5.957 2.239-12.793 2.978-6.837.739-12.794.739-5.957 0-12.794-.619-6.836-.62-12.793-3.098ZM564-233.348v-443.304l-168-50v443.304l168 50Zm72-2 105.13-34.804v-441.544L636-676.652v441.304Zm-417.13-12.956L324-283.348v-441.304l-105.13 34.804v441.544ZM636-676.652v441.304-441.304Zm-312-48v441.304-441.304Z"/></svg>