<svg xmlns="http://www.w3.org/2000/svg" height="20" viewBox="0 -960 960 960" width="20"><path d="m480-179.065-77.587 58.63q-12.435 9.196-24.609.62-12.174-8.576-7.695-23.489l30.195-96.544-76.587-53.63q-12.674-9.435-8.196-23.729Q320-331.5 336.016-331.5h92.919l23-75.375L314.13-510.304q-14.983-10.38-23.306-27.364-8.324-16.984-8.324-35.419v-222.5q0-34.483 24.259-58.741 24.258-24.259 58.741-24.259h229q34.483 0 58.741 24.259Q677.5-830.07 677.5-795.587v222.5q0 18.435-8.192 35.717t-23.438 27.066L508.065-406.875l23 75.375h92.919q16.016 0 20.495 14.293 4.478 14.294-8.196 23.729l-76.587 53.63 30.195 96.544q4.479 14.913-7.695 23.489t-24.609-.62L480-179.065ZM361.913-799.413v225.608q0 1-.5.5t.5-.5L444-512v-287.413h-82.087Zm236.174 0H516V-512l82.087-61.805q2 0 1 .5t-1-.5v-225.608ZM480-648.326Zm-36-11Zm72 0Z"/></svg>