<svg xmlns="http://www.w3.org/2000/svg" height="20" viewBox="0 -960 960 960" width="20"><path d="m375.587-332.87 23.652-23.652q12.891-12.652 29.304-12.293 16.414.359 28.848 12.554 12.674 12.913 12.555 29.685-.12 16.772-12.703 29.398l-93.636 94.008q-6.172 6.194-13.732 8.954-7.559 2.76-15.788 2.76t-15.669-2.76q-7.44-2.76-13.612-8.954l-93.875-94.247q-12.822-12.865-11.883-29.923.94-17.058 13.93-29.399 12.196-12.435 28.37-12.315 16.174.119 28.326 12.532l22.913 23.652v-278.282L105.913-797.826q-11.718-11.718-11.718-26.815 0-15.098 11.718-26.816 11.717-11.717 26.815-11.717t26.815 11.717l640.914 640.914q11.717 11.717 11.717 26.195 0 14.479-11.717 26.196-11.718 11.717-26.816 11.717-15.097 0-27.02-11.893L375.587-528.152v195.282Zm250.326-171.608q-17.452 0-29.476-12.091-12.024-12.091-12.024-29.17V-726.13l-23.391 23.391q-12.913 12.913-29.087 12.315-16.174-.598-28.848-13.033-12.913-12.674-12.913-29.326t12.913-29.565l93.631-93.361q6.133-6.117 13.647-9.096 7.514-2.978 15.691-2.978t15.572 2.978q7.394 2.979 13.111 8.696l94 94q13.152 13.152 12.674 29.304-.478 16.153-13.391 29.066-12.435 12.435-28.609 12.435t-28.609-12.435l-23.391-22.391v180.152q0 19.63-12.593 30.565-12.594 10.935-28.907 10.935Z"/></svg>