<svg xmlns="http://www.w3.org/2000/svg" height="20" viewBox="0 -960 960 960" width="20"><path d="M519.587-255.935V-132q0 16.735-11.366 28.161-11.365 11.426-28.01 11.426-16.646 0-28.222-11.426T440.413-132v-120.152l-97.022 96.782q-11.09 11.196-26.338 10.696-15.249-.5-28.444-10.696-13.196-10.195-12.696-27.01.5-16.816 12.479-28.724L426.37-349.152l-76.979-76.978-139.144 138.976q-12.051 11.98-27.486 11.741-15.435-.239-27.391-12.196-12.196-12.195-12.316-27.891-.119-15.696 12.374-27.989l96.724-96.924H132q-16.735 0-28.161-11.366-11.426-11.365-11.426-28.01 0-16.646 11.426-28.222T132-519.587h124.935L89.022-687.5q-11.479-11.478-11.598-26.196-.12-14.717 11.306-26.195 11.425-11.479 27.196-11.479 15.77 0 27.326 11.558l631.626 632.385q11.557 11.557 11.557 26.576t-11.478 26.134q-11.145 11.478-26.41 11.478-15.264 0-27.067-11.8L519.587-255.935Zm64.065-197.391h-51.239l-78.848-79.848v-50.239L288.044-748.934q-11.87-11.87-11.631-27.805.239-15.935 12.196-27.891 12.195-12.196 27.891-12.316 15.696-.119 27.891 12.374l96.022 96.724V-828q0-16.735 11.366-28.161 11.365-11.426 28.01-11.426 16.646 0 28.222 11.426T519.587-828v120.152l97.022-96.782q11.956-12.196 27.891-12.696 15.935-.5 28.13 11.696 12.196 12.195 12.196 28.01 0 15.816-11.935 27.751L519.587-596.565v76.978h76.978l152.369-152.369q11.87-11.87 29.305-12.631 17.435-.761 26.391 12.196 9.196 13.195 10.316 28.891 1.119 15.696-10.076 26.891l-97.022 97.022H828q16.735 0 28.161 11.366 11.426 11.365 11.426 28.01 0 16.646-11.426 28.222T828-440.413H707.848l96.782 97.022q3.479 3.478-1.782 18.576t-10.261 28.695q-5 13.598-4.239 18.816.761 5.217 17.282-11.305-12.195 12.196-28.01 12.196-15.816 0-27.751-11.87L583.652-453.326Z"/></svg>