<svg xmlns="http://www.w3.org/2000/svg" height="20" viewBox="0 -960 960 960" width="20"><path d="M480.211-480q-17.363 0-29.537-12.024T438.5-521.5v-309.13q0-17.453 11.963-29.477 11.964-12.024 29.326-12.024 17.363 0 29.537 12.024T521.5-830.63v309.13q0 17.452-11.963 29.476Q497.573-480 480.211-480ZM480-135.869q-71.674 0-134.242-27.198-62.568-27.198-109.031-73.66-46.462-46.463-73.66-109.031Q135.869-408.326 135.869-480q0-58.335 19.283-113.548T210.717-694q11.196-15.152 28.826-17.13 17.631-1.979 30.544 10.695Q281.761-688 283.12-671.228q1.358 16.772-7.598 29.685-27.781 35.043-42.217 76.13Q218.87-524.326 218.87-480q0 109.119 75.941 185.125 75.941 76.005 184.967 76.005 109.026 0 185.189-76.006Q741.13-370.881 741.13-480q0-45.087-15.282-85.674-15.283-40.587-42.37-76.63-9.956-13.152-8.717-29.924Q676-689 688.674-701.435q12.152-12.913 29.783-10.554 17.63 2.359 29.845 17.111Q785.805-649 804.968-593.88q19.163 55.119 19.163 113.88 0 71.674-27.198 134.242-27.198 62.568-73.66 109.031-46.463 46.462-109.031 73.66Q551.674-135.869 480-135.869Z"/></svg>