<svg xmlns="http://www.w3.org/2000/svg" height="20" viewBox="0 -960 960 960" width="20"><path d="M374.87-183.87q-19.55 0-37.04-8.71-17.49-8.7-30.05-24.83L148.65-430.54Q132.5-453.65 132.5-480t16.15-49.46l159.13-213.13q12.56-16.13 30.05-24.83 17.49-8.71 37.04-8.71h414.26q34.48 0 58.74 24.27 24.26 24.27 24.26 58.77v426.5q0 34.5-24.26 58.61t-58.74 24.11H374.87Zm-.48-82.76h414.98v-426.74H374.39L215.26-480l159.13 213.37Zm66.79-174.5q16.42 0 27.74-11.11 11.32-11.11 11.32-27.53 0-16.43-11.11-27.76-11.11-11.34-27.53-11.34-16.43 0-27.88 11.11-11.46 11.11-11.46 27.53 0 16.43 11.25 27.76 11.24 11.34 27.67 11.34Zm122.35 0q16.43 0 27.88-11.11 11.46-11.11 11.46-27.53 0-16.43-11.25-27.76-11.24-11.34-27.67-11.34-16.42 0-27.74 11.11-11.32 11.11-11.32 27.53 0 16.43 11.11 27.76 11.11 11.34 27.53 11.34Zm122.63 0q16.43 0 27.76-11.11 11.34-11.11 11.34-27.53 0-16.43-11.11-27.76-11.11-11.34-27.53-11.34t-27.76 11.11q-11.34 11.11-11.34 27.53 0 16.43 11.11 27.76 11.11 11.34 27.53 11.34ZM502.43-480Z"/></svg>