<svg xmlns="http://www.w3.org/2000/svg" height="20" viewBox="0 -960 960 960" width="20"><path d="M739.91-246.26h-97.76q-17.32 0-29.26-11.96-11.93-11.97-11.93-29.33t11.93-29.54q11.94-12.17 29.26-12.17h97.76l-22.39-23.39q-12.43-12.44-12.31-28.35.12-15.91 13.03-28.83 12.91-12.91 29.44-12.91 16.54 0 29.45 12.91l90.76 93q12.68 12.31 12.68 28.89 0 16.57-12.68 29.24l-91 93q-12.91 12.92-29.68 12.56-16.78-.36-29.93-13.51-12.43-12.44-12.43-28.11t12.43-28.11l22.63-23.39Zm-331.7-332.13q29.79 0 50.79-21.21 21-21.22 21-51 0-29.79-21.21-50.79t-51-21q-29.79 0-50.79 21.21t-21 51q0 29.79 21.21 50.79t51 21Zm-.21 84.48ZM87.87-549.96q0-137.34 91.51-229.76 91.51-92.41 228.62-92.41 70.66 0 128.33 24.52Q594-823.09 634.7-780.3q40.69 42.78 64.48 101.44 23.8 58.66 27.23 126.19 1.48 17.45-10.39 29.47-11.88 12.03-29.21 12.03t-29.07-12.03q-11.73-12.02-13.57-29.47-5.39-97.98-72.94-167.22t-163.72-69.24q-101.31 0-168.98 67.92-67.66 67.93-67.66 171.25 0 73.39 59.9 160.29 59.9 86.89 177.23 192.21 12.57-11.8 25.23-22.72 12.66-10.93 24.94-21.73 12.92-12.44 29.57-12.94t29.33 12.42q12.67 12.91 12.43 29.68-.24 16.77-12.91 29.21-15.4 14.79-30.34 27.68-14.95 12.88-27.9 24.6-11.72 9.48-24.06 14.22-12.33 4.74-26.29 4.74-13.96 0-26.29-4.74-12.34-4.74-24.06-14.22-42.91-37.2-90.25-84.56-47.33-47.35-87.21-101.65-39.88-54.3-66.1-113.32-26.22-59.01-26.22-119.17ZM408-386.39q36.33 0 70.25-11.81 33.92-11.8 60.45-36.89 5.71-5.71 8.81-11.81 3.1-6.1 3.1-13.67 0-11.82-6.46-21.4-6.45-9.57-15.65-15.05-27.8-15.81-58.3-24.59-30.49-8.78-62.01-8.78t-62.2 8.9q-30.69 8.9-58.49 24.47-9.3 5.06-15.08 14.39-5.79 9.32-5.79 20.6 0 8.05 2.48 14.97 2.48 6.91 8.19 11.97 26.29 25.33 60.33 37.01 34.04 11.69 70.37 11.69Z"/></svg>