<svg xmlns="http://www.w3.org/2000/svg" height="20" viewBox="0 -960 960 960" width="20"><path d="m347.024-371.024 27.78 62.394q2.383 5.717 9.148 5.717t9.244-5.717l27.78-62.394 62.394-27.78q5.717-2.383 5.717-9.148t-5.717-9.244l-62.394-27.78-27.78-62.394q-2.383-5.717-9.148-5.717t-9.244 5.717l-27.78 62.394-62.394 27.78q-5.717 2.383-5.717 9.148t5.717 9.244l62.394 27.78Zm253.953-61.953-29.586-13.827q-5.717-2.383-5.717-9.148t5.717-9.244l29.586-13.827 13.827-29.586q2.383-5.717 9.148-5.717t9.244 5.717l13.827 29.586 29.586 13.827q5.717 2.383 5.717 9.148t-5.717 9.244l-29.586 13.827-13.827 29.586q-2.383 5.717-9.148 5.717t-9.244-5.717l-13.827-29.586ZM218.87-776.131l60 120q5 11 16 17.5t23 6.5q24 0 36.5-20t1.5-42l-41-82h72l60 120q5 11 16 17.5t23 6.5q24 0 36.5-20t1.5-42l-41-82h72l60 120q5 11 16 17.5t23 6.5q24 0 36.5-20t1.5-42l-41-82h138.26q34.783 0 58.892 24.609t24.109 58.392v426.26q0 33.783-24.109 58.392t-58.892 24.609H170.87q-33.783 0-58.392-24.37t-24.609-57.913V-693.13q0-33.783 23.609-58.392t59.392-24.609h48Zm-48 227.001v282.26h618.26v-282.26H170.87Zm0 0v282.26-282.26Z"/></svg>