<svg xmlns="http://www.w3.org/2000/svg" height="20" viewBox="0 -960 960 960" width="20"><path d="M336.717-528h26v74q0 9 6.5 15.5t15.5 6.5q9 0 15.5-6.5t6.5-15.5v-74h26v120q0 10.4 6.8 17.2 6.8 6.8 17.2 6.8 10.4 0 17.2-6.816 6.8-6.815 6.8-17.239v-136.314q0-13.631-9-22.631t-21.392-9H319.11q-12.393 0-21.393 9.179-9 9.18-9 22.749v135.695q0 10.377 6.8 17.377 6.8 7 17.2 7 10.4 0 17.2-6.8 6.8-6.8 6.8-17.2v-120Zm238.566 96.289h64q13.6 0 22.8-9.144 9.2-9.145 9.2-22.788v-80.255q0-13.643-9.23-22.873Q652.824-576 639.181-576h-80.255q-13.643 0-22.643 9.179-9 9.18-9 22.749v135.695q0 10.377 6.8 17.377 6.8 7 17.2 7 10.4 0 17.2-6.759 6.8-6.759 6.8-17.096v-23.856Zm0-48.289v-48h48v48h-48ZM218.87-135.869q-34.483 0-58.742-24.259t-24.259-58.742v-522.26q0-34.483 24.259-58.742t58.742-24.259h522.26q34.483 0 58.742 24.259t24.259 58.742v522.26q0 34.483-24.259 58.742t-58.742 24.259H218.87Zm0-83.001h522.26v-522.26H218.87v522.26Zm0-522.26v522.26-522.26Z"/></svg>