<svg xmlns="http://www.w3.org/2000/svg" height="20" viewBox="0 -960 960 960" width="20"><path d="M480-129.413q-62.391 0-105.946-43.554Q330.5-216.521 330.5-278.913q0-62.391 43.554-105.946Q417.609-428.413 480-428.413t105.946 43.554Q629.5-341.304 629.5-278.913q0 62.392-43.554 105.946Q542.391-129.413 480-129.413Zm.212-83q27.397 0 46.842-19.658 19.446-19.658 19.446-47.054t-19.658-46.842q-19.658-19.446-47.054-19.446-27.397 0-46.842 19.658Q413.5-306.097 413.5-278.7q0 27.396 19.658 46.841 19.658 19.446 47.054 19.446Zm-.712-535.174q-86.652 0-163.228 29.717-76.576 29.718-138.294 81.674-11.956 10.957-27.859 11.076-15.903.12-27.924-12.315Q110-649.87 110.739-665.804q.739-15.935 12.696-26.892 72.434-64.913 162.467-99.609Q375.935-827 479.5-827q103.565 0 193.598 34.695 90.033 34.696 162.467 99.131 11.957 10.956 12.696 27.511.739 16.554-11.016 28.989-12.397 12.435-28.832 11.815-16.435-.619-28.391-11.576-61.718-51.956-137.794-81.554-76.076-29.598-162.728-29.598Zm.5 199.174q-46.957 0-86.457 14.978-39.5 14.979-72.782 39.979-13.685 9.956-29.995 9.576-16.31-.381-28.266-12.576-12.196-12.435-11.576-28.609.619-16.174 12.987-26.297 43.828-35.312 98.382-55.768 54.555-20.457 117.207-20.457 62.652 0 117.191 20.407 54.539 20.408 99.474 56.083 12.65 10.219 13.09 26.832.441 16.613-11.755 28.569-12.196 12.674-28.511 12.435-16.315-.239-29.511-10.195-33.282-25-73.492-39.979-40.21-14.978-85.986-14.978Zm0 269.5Z"/></svg>