<svg xmlns="http://www.w3.org/2000/svg" height="20" viewBox="0 -960 960 960" width="20"><path d="M818.63-429.13q-22.291 0-37.895-15.605-15.605-15.604-15.605-37.895v-240q0-22.292 15.605-37.896 15.604-15.605 37.895-15.605 22.292 0 37.896 15.605 15.605 15.604 15.605 37.896v240q0 22.291-15.605 37.895-15.604 15.605-37.896 15.605ZM320.87-145.435q-14.813 0-28.483-5.119-13.67-5.12-25.387-16.837L74.196-359.239q-12.913-12.149-12.913-28.783 0-16.633 12.674-29.109l40.804-40.804q14.717-14.717 33.435-19.956 18.717-5.24 37.674 0l53.173 13.282v-259.695q0-41.827 28.801-70.707 28.8-28.88 70.511-28.88 41.71 0 70.786 28.88 29.077 28.88 29.077 70.707v140.173h45.489q.597 0 .837.24l138.521 65q30.196 14.535 44.794 42.702 14.598 28.167 9.359 61.602l-29.24 205.522q-4.239 27.435-25.751 45.532-21.513 18.098-49.597 18.098H320.87Zm-.24-75.587h252l32-222.282-139-65h-103v-216q0-10-7-17t-17-7q-10 0-17 7t-7 17v356l-146.239-36.24-16 16L320.63-221.022Zm0 0h252-252Z"/></svg>