<svg xmlns="http://www.w3.org/2000/svg" height="20" viewBox="0 -960 960 960" width="20"><path d="M173.5-134.913q-34.543 0-58.772-24.228Q90.5-183.37 90.5-217.913V-802.37q0-6.956 5.837-10.315 5.837-3.359 11.554 2.12l48.283 47.804 50.043-49.804q5.718-5.718 14.913-5.718 9.196 0 14.913 5.718l49.805 49.804 49.804-49.804q5.718-5.718 14.913-5.718 9.196 0 14.913 5.718L415.283-763l49.804-49.326q5.717-5.957 14.913-5.957 9.196 0 14.913 5.957L544.717-763l49.805-49.565q5.717-5.718 14.913-5.718 9.195 0 14.913 5.718l49.804 49.804 49.805-49.804q5.717-5.718 14.913-5.718 9.195 0 14.913 5.718l50.043 49.804 48.283-47.804q5.717-5.479 11.554-2.12 5.837 3.359 5.837 10.315v584.457q0 34.543-24.228 58.772-24.229 24.228-58.772 24.228h-613Zm0-83h266.913v-216H173.5v216Zm346.087 0H786.5v-68.174H519.587v68.174Zm0-147.587H786.5v-68.413H519.587v68.413ZM173.5-513.087h613v-136.826h-613v136.826Z"/></svg>