<svg xmlns="http://www.w3.org/2000/svg" height="20" viewBox="0 -960 960 960" width="20"><path d="m914.696-729.435-42.805 439.304q-2.278 26.206-26.987 35.093-24.708 8.886-44.649-11.054-6.646-6.647-9.625-15.243-2.978-8.595-1.739-17.752l38.326-393.326H474.196q-17.028 0-28.764-11.963-11.736-11.964-11.736-29.327 0-17.362 12.024-29.536 12.023-12.174 29.476-12.174h156.021v-104.15q0-16.788 11.485-28.319 11.486-11.531 28.131-11.531t28.221 11.381q11.576 11.381 11.576 28.206v104.413h162.805q18.557 0 31.029 13.611 12.471 13.612 10.232 32.367Zm-290 272.022ZM791.218-65.348 70-786.804q-11.478-11.113-11.478-26.394 0-15.28 11.503-26.759 11.504-11.478 26.862-11.478 15.359 0 26.504 11.478l721.218 721.218q11.478 11.158 11.478 26.036 0 14.877-11.503 26.355-11.504 11.479-26.696 11.979-15.192.5-26.67-10.979ZM78.261-190.326q-16.012 0-26.843-10.84-10.831-10.839-10.831-26.863 0-15.922 10.831-26.903 10.831-10.981 26.843-10.981h500.652q16.011 0 26.842 10.772 10.832 10.772 10.832 26.696 0 15.923-10.832 27.021-10.831 11.098-26.842 11.098H78.261Zm0 149.74q-16.012 0-26.843-10.84T40.587-78.29q0-15.922 10.831-26.904 10.831-10.981 26.843-10.981h500.652q16.011 0 26.842 10.772 10.832 10.772 10.832 26.696 0 15.924-10.832 27.021-10.831 11.098-26.842 11.098H78.261Zm314.761-529.979v75.826q-14.109-2.957-28.837-4.315-14.729-1.359-31.598-1.359-56.732 0-107.92 27.207-51.189 27.206-80.189 61.619h407.283L627.348-336H91.044q-19.472 0-31.986-15.033-12.515-15.032-9.036-34.424 9.521-48.087 37.739-83.771 28.217-35.685 67.695-59.468 39.479-23.782 85.62-35.543Q287.217-576 332.587-576q17.348 0 32.337 1.359 14.989 1.358 28.098 4.076Zm-50.435 138.978Z"/></svg>