<svg xmlns="http://www.w3.org/2000/svg" height="20" viewBox="0 -960 960 960" width="20"><path d="M225.661-207.869q-17.444 0-29.618-11.964-12.174-11.963-12.174-29.326t12.024-29.537q12.024-12.174 29.477-12.174H229v-231.869q0-90.109 54.815-159.098 54.815-68.989 142.685-85.707v-51.086q0-22.392 15.554-37.946 15.555-15.555 37.946-15.555t37.946 15.555Q533.5-841.022 533.5-818.63v51.086q88.109 16.718 142.805 85.587Q731-613.087 731-522.739v231.869h3.63q17.453 0 29.477 11.964 12.024 11.963 12.024 29.326t-12.019 29.537q-12.018 12.174-29.462 12.174H225.661ZM480-490.804Zm.027 405.565q-30.984 0-52.821-21.867-21.836-21.868-21.836-52.763h149.5q0 31.195-21.93 52.913-21.93 21.717-52.913 21.717ZM312-290.87h336v-231.869q0-70-49-119t-119-49q-70 0-119 49t-49 119v231.869ZM119.513-522.5q-16.861 0-28.437-12.684t-9.337-29.381q7.717-67.913 35.435-126.587 27.717-58.674 72.84-106.721 11.79-12.062 28.823-12.203 17.032-.142 28.989 12.293 11.956 12.435 10.598 28.848-1.359 16.413-13.531 28.793-33.408 34.722-54.977 80.388-21.568 45.667-28.207 96.505-2.079 16.597-13.946 28.673-11.867 12.076-28.25 12.076Zm721.133 0q-16.646 0-28.461-12.076-11.815-12.076-14.294-28.511-6.239-52-28.239-97t-55.761-81.239q-11.956-12.196-13.315-28.609-1.358-16.413 10.598-28.848 11.957-12.435 29.489-12.793 17.533-.359 29.489 12.076 44.957 46.674 72.674 106.848 27.718 60.174 35.635 128.119 2.039 16.642-9.326 29.337-11.366 12.696-28.489 12.696Z"/></svg>