<svg xmlns="http://www.w3.org/2000/svg" height="20" viewBox="0 -960 960 960" width="20"><path d="M218.87-135.869q-34.483 0-58.742-24.259t-24.259-58.742v-522.26q0-34.483 24.259-58.742t58.742-24.259h522.26q34.483 0 58.742 24.259t24.259 58.742v522.26q0 34.483-24.259 58.742t-58.742 24.259H623q-17.452 0-29.476-11.964-12.024-11.963-12.024-29.326t12.024-29.537Q605.548-218.87 623-218.87h118.13v-446.434H218.87v446.434H337q17.452 0 29.476 11.964Q378.5-194.943 378.5-177.58t-12.024 29.537Q354.452-135.869 337-135.869H218.87ZM438.5-177.37v-200.195l-24.847 24.847q-12.414 12.414-29.186 12.533-16.771.12-29.685-12.554-12.195-12.435-12.076-29.326.12-16.892 12.388-29.193l95.563-95.847q6.134-6.15 13.649-9.012 7.515-2.861 15.694-2.861 8.179 0 15.694 2.861 7.515 2.862 13.649 9.012l95.563 95.847q12.268 12.301 12.388 28.573.119 16.272-12.076 28.946-12.914 12.674-29.685 12.554-16.772-.119-29.425-12.517L521.5-377.565v200.195q0 17.453-11.963 29.477-11.964 12.024-29.326 12.024-17.363 0-29.537-12.024T438.5-177.37Z"/></svg>