<svg xmlns="http://www.w3.org/2000/svg" height="20" viewBox="0 -960 960 960" width="20"><path d="M750.891-106.913 677-179.804H266.961q-34.52 0-58.806-24.259-24.286-24.259-24.286-58.741v-17.609q0-28.005 13.743-51.479 13.742-23.475 37.801-37.456 42.761-25.761 90.522-41.761 47.761-16 98.761-21.239L106.152-750.891q-11.478-11.177-10.978-26.545.5-15.369 12.003-26.847 11.504-11.478 26.862-11.478 15.359 0 26.504 11.478l643.66 644.659q11.558 11.559 11.439 26.578-.12 15.019-11.573 26.133-11.12 11.478-26.41 11.478-15.289 0-26.768-11.478ZM266.87-262.804H594l-88.782-89.783q-6.435-.239-12.609-.358-6.174-.12-12.609-.12-53.522 0-105.283 13.761-51.76 13.761-96.847 40.804-4.95 2.836-7.975 7.94-3.025 5.104-3.025 11.343v16.413Zm458.717-106.783q20.957 11.717 34.033 31.196 13.076 19.478 16.032 43.674L674.5-395.87q13.39 6.061 26.076 12.216 12.687 6.154 25.011 14.067Zm-163-139.196-63.326-62.326q21.913-6.409 35.891-24.582 13.978-18.173 13.978-40.866 0-28.357-20.195-48.443-20.195-20.087-48.554-20.087-22.62 0-40.831 13.858-18.211 13.859-24.637 35.772l-62.326-63.326q20.717-33.152 54.828-51.228 34.112-18.076 72.585-18.076 63.587 0 107.859 44.152 44.272 44.152 44.272 107.84 0 38.29-18.196 72.443-18.196 34.152-51.348 54.869ZM594-262.804H266.87 594ZM460.087-610.283Z"/></svg>