<svg xmlns="http://www.w3.org/2000/svg" height="20" viewBox="0 -960 960 960" width="20"><path d="m740.913-429-86 85q-11 11-25 11t-25-11q-11-11-11-25.5t11-25.5l85-85-85-85q-11-11-11-25.5t11-25.5q11-11 25-11t25 11l86 85 85-85q11-11 25.5-11t25.5 11q11 11 11 25.5t-11 25.5l-85 85 85 85q11 11 11 25t-11 25q-11 11-25.5 11t-25.5-11l-85-84ZM267.587-171.587v48h424.826v-48H267.587Zm0-616.826h424.826v-48H267.587v48Zm0 0v-48 48Zm0 616.826v48-48Zm0 131q-34.238 0-58.619-24.381t-24.381-58.619v-712.826q0-34.238 24.381-58.619t58.619-24.381h424.826q34.238 0 58.619 24.381t24.381 58.619V-713.5q0 17.452-11.963 29.476Q751.486-672 734.124-672q-14.733 0-25.591-9.274-10.859-9.274-13.011-23.139v-12H267.587v472.826h427.935v-12q1.913-13.865 12.561-23.139t25.62-9.274q17.362 0 29.536 12.024 12.174 12.024 12.174 29.476v122.913q0 34.238-24.381 58.619t-58.619 24.381H267.587Z"/></svg>