<svg xmlns="http://www.w3.org/2000/svg" height="20" viewBox="0 -960 960 960" width="20"><path d="M215.816-212.652h213.542q12.685 0 18.164-11.435 5.478-11.435-2.239-21.87l-56.609-70.652q-6.264-8.195-16.306-8.195-10.042 0-15.998 8.195l-41.609 46.652q-6.264 8.196-16.306 8.196-10.042 0-15.999-8.196l-16.13-20.934q-5.956-8.196-16.652-7.815-10.696.38-16.652 8.576l-33.131 44.173q-7.717 10.435-2.239 21.87t18.164 11.435Zm3.054 76.783q-34.483 0-58.742-24.259t-24.259-58.742V-438.5q0-34.483 24.259-58.741Q184.387-521.5 218.87-521.5H438.5q34.483 0 58.741 24.259Q521.5-472.983 521.5-438.5v219.63q0 34.483-24.259 58.742-24.258 24.259-58.741 24.259H218.87ZM177.58-741.13q-17.363 0-29.537-11.964-12.174-11.963-12.174-29.326t11.964-29.537q11.963-12.174 29.326-12.174t29.537 11.964q12.174 11.963 12.174 29.326t-11.964 29.537q-11.963 12.174-29.326 12.174Zm151.435 0q-17.363 0-29.537-11.964-12.174-11.963-12.174-29.326t11.964-29.537q11.963-12.174 29.326-12.174t29.536 11.964q12.174 11.963 12.174 29.326t-11.963 29.537q-11.963 12.174-29.326 12.174Zm151.196 0q-17.363 0-29.537-11.964Q438.5-765.057 438.5-782.42t11.963-29.537q11.964-12.174 29.326-12.174 17.363 0 29.537 11.964 12.174 11.963 12.174 29.326t-11.963 29.537q-11.964 12.174-29.326 12.174Zm151.434 0q-17.362 0-29.536-11.964-12.174-11.963-12.174-29.326t11.963-29.537q11.964-12.174 29.326-12.174 17.363 0 29.537 11.964 12.174 11.963 12.174 29.326t-11.963 29.537q-11.964 12.174-29.327 12.174Zm151.196 0q-17.363 0-29.537-11.964-12.174-11.963-12.174-29.326t11.964-29.537q11.963-12.174 29.326-12.174t29.537 11.964q12.174 11.963 12.174 29.326t-11.964 29.537q-11.963 12.174-29.326 12.174ZM631.645-135.869q-17.362 0-29.536-11.964-12.174-11.963-12.174-29.326t11.963-29.537q11.964-12.174 29.326-12.174 17.363 0 29.537 11.964 12.174 11.963 12.174 29.326t-11.963 29.537q-11.964 12.174-29.327 12.174ZM177.58-589.935q-17.363 0-29.537-11.963-12.174-11.964-12.174-29.326 0-17.363 11.964-29.537 11.963-12.174 29.326-12.174t29.537 11.963q12.174 11.964 12.174 29.327 0 17.362-11.964 29.536-11.963 12.174-29.326 12.174Zm605.261 0q-17.363 0-29.537-11.963-12.174-11.964-12.174-29.326 0-17.363 11.964-29.537 11.963-12.174 29.326-12.174t29.537 11.963q12.174 11.964 12.174 29.327 0 17.362-11.964 29.536-11.963 12.174-29.326 12.174Zm0 151.435q-17.363 0-29.537-11.963-12.174-11.964-12.174-29.326 0-17.363 11.964-29.537Q765.057-521.5 782.42-521.5t29.537 11.963q12.174 11.964 12.174 29.326 0 17.363-11.964 29.537-11.963 12.174-29.326 12.174Zm0 151.196q-17.363 0-29.537-11.964-12.174-11.963-12.174-29.326t11.964-29.536q11.963-12.174 29.326-12.174t29.537 11.963q12.174 11.963 12.174 29.326t-11.964 29.537q-11.963 12.174-29.326 12.174Zm0 151.435q-17.363 0-29.537-11.964-12.174-11.963-12.174-29.326t11.964-29.537q11.963-12.174 29.326-12.174t29.537 11.964q12.174 11.963 12.174 29.326t-11.964 29.537q-11.963 12.174-29.326 12.174Z"/></svg>