<svg xmlns="http://www.w3.org/2000/svg" height="20" viewBox="0 -960 960 960" width="20"><path d="m674.39-615.5-62.26 62.26q-12.67 12.67-28.83 12.17-16.15-.5-28.82-13.17-12.68-12.67-12.68-29.33 0-16.65 12.68-29.32l61.26-61.26-62.5-62.5q-12.67-12.68-12.17-29.33t13.17-29.32q12.67-12.68 29.33-12.68 16.65 0 29.32 12.68l61.5 62.5 62.26-62.5q12.68-12.92 29.33-12.8 16.65.12 29.32 12.8 12.68 12.67 12.68 29.32t-12.68 29.33l-62.26 62.5 62.26 62.26q12.68 12.67 12.68 28.82 0 16.16-12.68 28.83-12.67 12.67-29.32 12.67t-29.33-12.67l-62.26-61.26Zm-388.54 91.33q-62.63 0-106.31-43.92-43.67-43.91-43.67-105.83 0-62.86 43.67-106.54 43.68-43.67 106.31-43.67t106.3 43.67q43.68 43.68 43.68 106.31t-43.68 106.3q-43.67 43.68-106.3 43.68Zm.21-83q27.87 0 47.32-19.66t19.45-47.53q0-27.88-19.66-47.32-19.66-19.45-47.53-19.45-27.88 0-47.32 19.66-19.45 19.66-19.45 47.53t19.66 47.32q19.66 19.45 47.53 19.45Zm-.21 379.97-62.5 62.5q-12.68 12.68-28.83 12.18T165.7-165.7q-12.68-12.67-12.68-29.32t12.68-29.33l61.5-61.5-62.5-62.5q-12.68-12.67-12.06-29.32.62-16.66 13.29-29.33 12.68-12.67 29.33-12.79 16.65-.12 29.33 12.79l61.26 62.5 62.26-62.26q12.67-12.67 29.32-12.67 16.66 0 29.33 12.67 12.67 12.67 12.67 29.33 0 16.65-12.67 29.32l-62.26 62.26 62.5 62.5q12.67 12.68 12.67 28.83T407-165.7q-12.67 12.68-29.33 12.68-16.65 0-29.32-12.68l-62.5-61.5Zm388.3 91.33q-62.63 0-106.3-43.67-43.68-43.68-43.68-106.31t43.68-106.3q43.67-43.68 106.3-43.68 62.63 0 106.31 43.65 43.67 43.65 43.67 106.78 0 62.18-43.67 105.86-43.68 43.67-106.31 43.67Zm.21-83q27.88 0 47.32-19.66 19.45-19.66 19.45-47.53t-19.66-47.32q-19.66-19.45-47.53-19.45t-47.32 19.66q-19.45 19.66-19.45 47.53 0 27.88 19.66 47.32 19.66 19.45 47.53 19.45ZM285.85-674.15Zm388.3 388.3Z"/></svg>