<svg xmlns="http://www.w3.org/2000/svg" height="20" viewBox="0 -960 960 960" width="20"><path d="m576.587-250.304 161.022-160.783q12.434-12.435 28.228-12.435 15.793 0 28.228 12.435 12.435 12.435 12.435 28.848 0 16.413-12.435 28.848L605.652-163.978q-12.31 12.674-28.883 12.674t-29.581-13.007l-103.84-104.08q-12.435-12.435-11.935-28.848.5-16.413 12.935-28.848 12.435-12.435 28.848-12.315 16.413.119 28.848 12.554l74.543 75.544Zm-248-145.457v-12h-56.413q-16.735 0-28.161-11.485-11.426-11.485-11.426-28.13 0-16.646 11.545-28.222 11.546-11.576 28.281-11.576h152.174v-64.587H284.413q-21.835 0-36.831-14.996-14.995-14.995-14.995-36.83v-120q0-21.835 14.995-36.711 14.996-14.876 36.831-14.876h44.174v-12q0-16.735 11.485-28.161 11.485-11.426 28.13-11.426 16.646 0 28.222 11.426T408-787.174v12h56.413q16.735 0 28.161 11.366Q504-752.443 504-735.798q0 16.646-11.426 28.341-11.426 11.696-28.161 11.696H312v64.587h140.413q21.835 0 36.711 14.876Q504-601.422 504-579.587v120q0 21.835-14.876 36.83-14.876 14.996-36.711 14.996H408v12q0 16.735-11.485 28.161-11.485 11.426-28.131 11.426-16.645 0-28.221-11.426t-11.576-28.161Z"/></svg>