<svg xmlns="http://www.w3.org/2000/svg" height="20" viewBox="0 -960 960 960" width="20"><path d="M87.87-528q0-43.109 30.162-73.62 30.162-30.511 73.251-30.511H830.63q17.453 0 29.477 11.964 12.024 11.963 12.024 29.326t-12.024 29.537q-12.024 12.174-29.477 12.174H205.283q-14.626 0-24.52 10.322-9.893 10.323-9.893 25.208v149.296h60.999q3.348-24.439 22.585-40.926 19.237-16.487 45.111-16.487H601q17.452 0 29.476 11.963Q642.5-397.79 642.5-380.428q0 17.363-12.024 29.537T601-338.717H314.87v125.587h287.086q17.231 0 28.888 11.592Q642.5-189.946 642.5-172.81q0 17.136-11.656 29.071-11.657 11.935-28.888 11.935h-294.5q-31.179 0-53.383-22.17-22.204-22.169-22.204-53.301v-73.797h-68.413q-31.179 0-53.383-22.17-22.204-22.17-22.204-53.649V-528Zm143.999-104.131V-741.13q0-34.783 24.259-58.892t58.742-24.109h330.26q34.483 0 58.742 24.259t24.259 58.742v108.999H645.13V-741.13H314.87v108.999h-83.001Zm524.342 500.327q-17.363 0-29.537-11.964-12.174-11.963-12.174-29.326 0-17.362 11.963-29.536 11.964-12.174 29.326-12.174 17.363 0 29.537 11.963 12.174 11.964 12.174 29.326 0 17.363-11.963 29.537-11.964 12.174-29.326 12.174Zm-41.711-185.5V-459.63q0-17.452 11.963-29.476 11.964-12.024 29.326-12.024 17.363 0 29.537 12.024T797.5-459.63v142.326q0 17.452-11.963 29.476-11.964 12.024-29.326 12.024-17.363 0-29.537-12.024T714.5-317.304ZM170.87-549.13H725.5 170.87Z"/></svg>