<svg xmlns="http://www.w3.org/2000/svg" height="20" viewBox="0 -960 960 960" width="20"><path d="m438.5-510.565-74.5 74.5q-12.435 12.674-29.087 12.913-16.652.239-29.804-12.435-12.435-12.673-12.316-29.445.12-16.772 12.794-29.446l145.348-145.587q6.117-5.717 13.613-8.815 7.495-3.098 15.652-3.098t15.652 3.098q7.496 3.098 13.213 8.815l145.587 145.587q12.435 12.435 12.555 28.826.119 16.392-12.076 28.826-13.153 12.674-29.805 12.555-16.652-.12-29.326-12.794l-74.5-73.5v285.195q0 17.453-11.963 29.477-11.964 12.024-29.326 12.024-17.363 0-29.537-12.024T438.5-225.37v-285.195ZM183.869-710.63v-30.5q0-34.483 24.271-58.742t58.77-24.259h426.504q34.499 0 58.608 24.259 24.109 24.259 24.109 58.742v30.5q0 17.452-11.964 29.476-11.963 12.024-29.326 12.024t-29.537-12.024q-12.174-12.024-12.174-29.476v-30.5H266.87v30.5q0 17.452-11.964 29.476-11.963 12.024-29.326 12.024t-29.537-12.024q-12.174-12.024-12.174-29.476Z"/></svg>