<svg xmlns="http://www.w3.org/2000/svg" height="20" viewBox="0 -960 960 960" width="20"><path d="m860.152-263.043-91.043-91.044q-11.239-11.303-11.12-26.608.12-15.305 11.409-26.544 11.289-11.239 26.456-11.239 15.168 0 26.407 11.239l115.369 115.13q12.674 12.397 12.674 28.927t-12.674 29.204L822.5-118.848q-11.239 11.239-26.196 10.739-14.956-.5-26.195-11.789t-11.12-26.695q.12-15.407 11.359-26.646l89.804-89.804ZM373.196-135.869q-17.453 0-29.476-12.024-12.024-12.024-12.024-29.477v-54.499H170.87q-33.783 0-58.892-24.109T87.869-314.87v-426.26q1-34.783 24.965-58.892t58.036-24.109h618.26q33.783 0 58.392 24.259t24.609 58.742v219.63q0 17.452-11.964 29.476Q848.204-480 830.841-480t-29.537-12.024Q789.13-504.048 789.13-521.5v-219.63H170.87v426.26h461.782q17.452 0 29.476 11.964 12.024 11.963 12.024 30.043 0 17.244-11.725 29.119t-29.057 11.875h-50.435v54.499q0 17.453-12.024 29.477-12.024 12.024-29.476 12.024H373.196Zm69.143-354.457v68.413q0 16.113 10.924 27.013 10.924 10.9 26.971 10.9t26.902-10.9q10.855-10.9 10.855-27.013v-68.413h68.101q15.945 0 26.927-10.84Q624-512.005 624-528.029q0-15.922-10.831-26.777-10.832-10.855-26.843-10.855h-68.413v-68.342q0-16.149-10.9-27.073T480-672q-16.113 0-27.013 10.924-10.9 10.924-10.9 27.073v68.342h-68.413q-16.011 0-26.843 10.856Q336-543.948 336-528.235q0 16.013 10.924 26.961 10.924 10.948 27.073 10.948h68.342ZM170.87-314.87v-426.26 426.26Z"/></svg>