<svg xmlns="http://www.w3.org/2000/svg" height="20" viewBox="0 -960 960 960" width="20"><path d="M479.769-140.891q-17.486 0-33.584-6.859-16.098-6.859-27.337-19.098L206.87-362.826q-11.718-11.956-12.337-27.772-.62-15.815 11.337-27.532 11.956-11.718 27.771-12.098 15.816-.381 27.533 11.576l208.509 193.177q1.513 1.366 4.654 2.747 3.141 1.38 5.663 1.38 2.522 0 5.663-1.38 3.141-1.381 4.581-2.68l255.604-237.744q22.282-21.522 33.543-51.305 11.261-29.782 10.261-61.473.478-66.353-42.519-115.896Q704.137-741.37 640-741.37q-29.339 0-56.593 12.881-27.255 12.88-47.817 34.757l-26.199 27.884q-5.241 5.555-12.957 8.756-7.717 3.201-16.434 3.201-8.717 0-15.785-3.219-7.067-3.219-12.367-8.738l-27-28.442q-20.761-22.319-47.766-34.46-27.005-12.141-57.082-12.141-52.804 0-91.706 33.902-38.903 33.902-52.664 85.663-4.393 15.256-18.012 23.324-13.618 8.067-28.814 4.067-15.195-4-23.793-17.641-8.598-13.641-4.598-28.946 19.761-76.674 79.401-127.63 59.64-50.957 139.722-50.957 45.747 0 86.866 18.642 41.12 18.641 73.598 51.163 31.478-33.522 72.978-51.663 41.5-18.142 86.987-18.142 96.477 0 162.31 71.995 65.834 71.995 65.834 172.02 0 48.051-16.359 91.648-16.359 43.598-50.598 75.598l-260 242q-12.436 12.239-28.166 18.598-15.73 6.359-33.217 6.359Zm4.666-336.435H149.609q-15.3 0-25.65-10.29-10.35-10.289-10.35-25.5 0-15.21 10.35-25.71t25.65-10.5h484.348q15.3 0 25.65-10.289 10.35-10.29 10.35-25.501 0-15.21-10.277-25.71t-25.468-10.5q-6.255 0-11.755 1.5-5.5 1.5-10.223 5.214-12.277 9.286-27.277 7.786-15-1.5-23.75-13.398-9.25-11.899-7.25-27 2-15.102 13.757-24.22 14.471-10.941 31.202-16.411 16.732-5.471 34.82-5.471 45.221 0 76.721 31.5 31.5 31.5 31.5 76.5t-30 76.5q-30 31.5-75 31.5h-50.522q3 8 4.5 16.867 1.5 8.866 1.5 19.133 0 45-31.5 76.5t-76.5 31.5q-19 0-35.5-5.5t-30.5-16.5q-12.235-9.286-14.118-24.143-1.882-14.857 7.118-26.857t24-13.5q15-1.5 27 7.5 5 3 10.621 5 5.622 2 11.676 2 14.703 0 25.203-10.29 10.5-10.289 10.5-25.5 0-15.21-10.35-25.71t-25.65-10.5Zm-.674-3.913Z"/></svg>