<svg xmlns="http://www.w3.org/2000/svg" height="20" viewBox="0 -960 960 960" width="20"><path d="M115.935-39.87q-31.374 0-53.72-22.345-22.346-22.346-22.346-53.72v-728.13q0-31.613 22.346-53.84 22.346-22.226 53.72-22.226h728.13q31.613 0 53.84 22.226 22.226 22.227 22.226 53.84v728.13q0 31.374-22.226 53.72-22.227 22.346-53.84 22.346h-728.13Zm173.956-157.434H693.13q34.483 0 58.742-24.259t24.259-58.741v-113.305q0-16.974-11.605-28.639t-28.489-11.665q-16.885 0-28.7 11.665-11.815 11.665-11.815 28.639v115.696H289.891l23.87-24.37q12.152-12.413 12.391-28.826.239-16.413-11.717-28.608-12.674-12.196-28.468-12.196-15.793 0-27.941 12.105l-93.291 92.679q-6.193 6.172-8.953 13.732-2.76 7.559-2.76 15.788 0 8.174 2.76 15.684t8.953 13.64l93.052 91.96q12.148 12.021 28.561 12.021t29.087-12.196q11.956-12.196 11.717-27.989-.239-15.794-12.652-28.207l-24.609-24.608Zm380.457-482.392-23.87 24.37q-12.152 12.413-12.391 28.826-.239 16.413 11.717 28.609 12.674 12.195 28.468 12.195 15.793 0 27.941-12.104l93.291-92.68q6.194-6.172 8.954-13.731 2.76-7.56 2.76-15.789t-2.741-15.789q-2.74-7.559-8.886-13.731l-92.234-92.68q-12.053-12.104-28.466-12.104t-29.087 12.195q-11.956 12.196-12.217 28.535-.261 16.339 11.935 28.444l24.826 24.826H266.87q-34.483 0-58.742 24.258-24.259 24.259-24.259 58.742V-564q0 16.974 11.605 28.639t28.489 11.665q16.885 0 28.7-11.665 11.815-11.665 11.815-28.639v-115.696h405.87Zm-192.5 153.547v117.776q0 11.09 7.398 18.688 7.397 7.598 18.515 7.598 11.117 0 18.396-7.278 7.278-7.278 7.278-18.396v-128.652q0-17.452-12.024-29.476-12.024-12.024-29.476-12.024h-30.739q-11.118 0-18.516 7.398-7.397 7.398-7.397 18.515 0 11.09 7.397 18.471 7.398 7.38 18.516 7.38h20.652Z"/></svg>