<svg xmlns="http://www.w3.org/2000/svg" height="20" viewBox="0 -960 960 960" width="20"><path d="M587.804-824.131q16.433 0 31.326 5.837 14.892 5.837 27.566 18.511l153.087 153.087q12.674 12.674 18.511 27.566 5.837 14.893 5.837 31.326v214.847q0 17.453-11.964 29.477-11.963 12.024-29.326 12.024t-29.537-12.024q-12.174-12.024-12.174-29.477v-214.742L587.797-741.13H373.196q-17.453 0-29.476-11.964-12.024-11.963-12.024-29.326t12.024-29.537q12.023-12.174 29.476-12.174h214.608Zm-69.891 274.783v-89.043q0-16.113-10.839-27.013-10.84-10.9-26.863-10.9-15.211 0-26.07 10.11-10.858 10.111-11.815 25.411v16.087l75.587 75.348ZM372.196-135.869q-16.614 0-31.416-5.718-14.802-5.717-27.476-18.391L160.217-313.065q-12.674-12.674-18.511-27.566-5.837-14.893-5.837-31.326v-215.847q0-16.433 5.837-31.326 5.837-14.892 18.511-27.566l23.652-23.652-72.695-72.456q-11.718-11.718-12.098-26.316-.38-14.597 11.098-26.076 11.717-11.717 26.815-11.717t26.815 11.717l632.631 631.631q11.717 11.717 11.598 26.195-.12 14.479-11.837 26.196Q784.478-99.456 770-99.456q-14.478 0-26.196-11.718l-73.456-71.456-23.891 22.652q-11.333 11.515-26.412 17.812-15.078 6.297-31.241 6.297H372.196ZM530.63-530.63ZM372.186-218.87h215.618l23.413-22.413-369.934-369.934-22.413 23.413v216.143L372.186-218.87Zm107.726-75.63q-16.436 0-27.968-11.321-11.531-11.32-11.531-28.055t11.321-28.267q11.32-11.531 28.055-11.531t27.767 11.321q11.031 11.321 11.031 28.056t-11.119 28.266Q496.349-294.5 479.912-294.5ZM423.13-424.37Z"/></svg>