<svg xmlns="http://www.w3.org/2000/svg" height="20" viewBox="0 -960 960 960" width="20"><path d="M480.45-673.196q-16.646 0-28.341-11.545-11.696-11.546-11.696-28.281v-119.761q0-16.735 11.485-28.161 11.485-11.426 28.131-11.426 16.645 0 28.221 11.546t11.576 28.28v119.761q0 16.735-11.365 28.161-11.366 11.426-28.011 11.426Zm184.92 80.044q-11.957-12.196-11.837-28.131.119-15.935 12.315-28.13l85.239-85.239q11.956-11.957 27.272-11.576 15.315.38 27.989 12.337 11.956 11.956 11.837 28.13-.12 16.174-12.315 28.37l-85 85q-11.957 11.956-27.392 11.576-15.435-.381-28.108-12.337Zm-369.5 0q-12.674 11.956-28.49 11.956-15.815 0-28.01-12.195l-86-85.239q-12.196-11.833-11.696-27.449.5-15.617 12.456-27.812 12.674-11.957 28.609-11.718 15.935.239 27.891 12.196l85 85q12.196 12.195 12.196 27.63 0 15.435-11.956 27.631ZM138.283-138.717l-78.761-79.761q-15.913-16.152-16.533-40.196-.62-24.043 15.533-39.956 80.435-84.044 186.641-132.707Q351.37-480 480-480t234.957 48.304q106.326 48.305 186.521 133.066 16.152 15.913 15.652 39.956-.5 24.044-16.652 40.196l-78.761 79.761q-11.956 11.956-31.945 14.956-19.99 3-39.142-10.674l-111.891-79.369q-9.957-7.717-16.054-19.533-6.098-11.815-6.098-23.656V-380.5q-33.805-10.522-67.27-15.424-33.466-4.902-69.317-4.902-35.851 0-69.317 4.902-33.465 4.902-67.27 15.424v123.507q0 11.841-6.098 23.656-6.097 11.816-16.054 19.533L209.37-134.435q-18.435 13.196-39.283 9.935-20.848-3.261-31.804-14.217ZM264-359.587q-35.804 17.522-69.467 41.685-33.663 24.163-63.468 52.206l48.283 48.283L264-277.543v-82.044Zm432-.239v82.283l84.652 60.13 48.283-48.761q-29.805-28.804-62.968-52.587-33.163-23.782-69.967-41.065Zm-432 .239Zm432-.239Z"/></svg>