<svg xmlns="http://www.w3.org/2000/svg" height="20" viewBox="0 -960 960 960" width="20"><path d="M407.935-408.174q-33.37-33.369-61.957-71.88-28.587-38.511-51.391-80.924-9.804 18.652-14.946 39.185-5.141 20.532-5.141 42.184.957 85.013 60.407 144.583 59.449 59.569 144.463 60.526 21.652 0 41.452-5.022 19.8-5.022 38.917-15.065-42.413-22.804-80.424-51.511-38.011-28.706-71.38-62.076ZM480-186.5q-57.957 0-111.828-21.99-53.872-21.991-95.998-63.684-41.693-42.126-63.684-95.998Q186.5-422.043 186.5-480q0-55.921 20.03-106.971 20.03-51.049 58.926-93.138 16.153-16.869 38.501-13.891 22.347 2.978 30.065 23.848 22.761 57.761 55.822 108.732 33.06 50.972 76.982 94.594 43.522 43.522 94.725 77.407 51.204 33.886 108.601 56.397 19.87 7.718 22.468 30.446 2.598 22.728-14.841 39.293-40.909 37.305-91.985 57.044Q534.717-186.5 480-186.5Zm232.387-199.63q-15.974-6.435-22.952-22.592-6.979-16.158-4.218-33.778 9.565-50.609-3.695-99.098-13.261-48.489-52.348-87.576-35.609-35.608-85.478-51.108-49.87-15.5-99.239-6.174-17.788 2.521-33.884-4.465-16.096-6.987-22.725-23.122-6.196-15.914 1.298-31.742 7.495-15.829 24.615-19.715 74.196-17.239 146.391 2.478 72.196 19.718 127.703 75.225 54.689 54.688 74.786 128.623 20.098 73.935 2.62 147.37-4.125 17.091-19.954 24.6-15.829 7.508-32.92 1.074ZM478.776-845.5q-16.646 0-28.461-11.665-11.815-11.666-11.815-28.4V-924q0-17.452 11.963-29.476 11.964-12.024 29.326-12.024 17.363 0 29.537 12.024T521.5-924v38.435q0 16.734-11.844 28.4-11.844 11.665-30.88 11.665Zm0 851q-16.646 0-28.461-11.665Q438.5-17.83 438.5-34.565V-73q0-17.452 11.963-29.476 11.964-12.024 29.326-12.024 17.363 0 29.537 12.024T521.5-73v38.435q0 16.735-11.844 28.4T478.776 5.5ZM737.63-739.783q-12.195-12.195-12.076-28.656.12-16.46 12.316-28.322l27.304-27.304q12.913-12.913 29.065-12.294 16.152.62 28.826 13.055 12.435 12.913 12.435 29.731 0 16.819-12.435 29.16l-27.304 27.543q-12.196 12.196-28.348 11.457-16.152-.739-29.783-14.37Zm-601.413 602.37q-12.195-12.674-12.315-29.134-.12-16.46 12.076-28.323l27.304-27.304q12.674-12.674 29.066-12.174 16.391.5 29.065 13.174 12.435 12.674 12.435 29.613 0 16.938-12.674 29.279l-27.304 27.304q-12.435 12.435-28.229 11.696-15.793-.74-29.424-14.131ZM885.565-438.5q-16.734 0-28.4-11.844-11.665-11.844-11.665-30.88 0-16.646 11.665-28.461 11.666-11.815 28.4-11.815H924q17.452 0 29.476 11.963 12.024 11.964 12.024 29.326 0 17.363-12.024 29.537T924-438.5h-38.435Zm-851 0q-16.735 0-28.4-11.844T-5.5-481.224q0-16.646 11.665-28.461Q17.83-521.5 34.565-521.5H73q17.452 0 29.476 11.963 12.024 11.964 12.024 29.326 0 17.363-12.024 29.537T73-438.5H34.565Zm788.783 302.522q-12.674 12.196-28.895 12.315-16.221.12-28.083-12.076l-28.305-27.304q-12.674-12.674-12.174-29.066.5-16.391 13.174-29.065 12.674-12.435 29.613-12.435 16.938 0 29.279 12.674l27.304 27.305q12.435 12.434 12.076 28.108-.359 15.674-13.989 29.544ZM221.217-737.63q-12.195 12.195-28.656 12.076-16.46-.12-28.322-12.316l-28.304-27.304q-12.913-12.913-12.294-29.065.62-16.152 13.055-28.826 12.913-12.435 29.732-12.435 16.818 0 29.159 12.435l27.543 27.304q12.196 11.832 11.957 28.166-.239 16.334-13.87 29.965Zm186.718 329.456Z"/></svg>