<svg xmlns="http://www.w3.org/2000/svg" height="20" viewBox="0 -960 960 960" width="20"><path d="M170.87-87.87q-34.483 0-58.742-24.258-24.259-24.259-24.259-58.742v-618.26q0-34.483 24.259-58.742t58.742-24.259h618.26q34.483 0 58.742 24.259t24.259 58.742v618.26q0 34.483-24.259 58.742T789.13-87.869H170.87Zm0-217.912v134.912H240V-240h-15.37q-9.195 0-14.913-5.837Q204-251.674 204-260.87v-44.912h-33.13Zm0-78.218H204q0-17 10-29.5t26-17.5v-121q0-20 14-34t34-14h96q20 0 34 14t14 34v121q16 5 26 17.5t10 29.5h321.13v-405.13H170.87V-384Zm85.913 91.217h158.434v-86.434H256.783v86.434ZM336-624q-25 0-42.5-17.5T276-684q0-25 17.5-42.5T336-744q25 0 42.5 17.5T396-684q0 25-17.5 42.5T336-624Zm-24 453.13h48V-240h-48v69.13Zm120 0h357.13v-134.912H468v45.152q0 9.195-5.717 14.913Q456.565-240 447.37-240H432v69.13ZM489-627q-17-20-25-40.638-8-20.638-8-42.362v-9q1-11.239 9.153-18.12 8.153-6.88 19.804-6.88 9.166 0 15.605 7.62Q507-728.761 505-719.25q0 2.25-.5 4.75t-.5 4.5q0 14 5.5 26.5T527-657q15 18 22 38t7 46q-2 13.239-9.739 23.12-7.739 9.88-20.978 9.88-10.761 0-15.522-10.5Q505-561 507-573q11 0-2-25t-16-29Zm91 0q-17-20-25-40.638-8-20.638-8-42.362v-9q1-11.239 9.153-18.12 8.153-6.88 19.804-6.88 9.166 0 15.605 7.62Q598-728.761 596-719.25q0 2.25-.5 4.75t-.5 4.5q0 14 5.5 26.5T618-657q15 18 22.5 38t7.5 46q-2 14.239-10.239 23.62-8.239 9.38-21.478 9.38-10.761 0-15.522-10.5Q596-561 598-573q11 0-2-25t-16-29Zm94 0q-17-20-25-40.638-8-20.638-8-42.362v-9q1-11.239 9.153-18.12 8.153-6.88 19.804-6.88 9.166 0 15.605 7.62Q692-728.761 690-719.25q0 2.25-.5 4.75t-.5 4.5q0 14 5.5 26.5T712-657q15 18 22 38t7 46q-2 13.239-9.739 23.12-7.739 9.88-20.978 9.88-10.761 0-15.522-10.5Q690-561 692-573q11 0-2-25t-16-29ZM256.783-292.783v-86.434 86.434Z"/></svg>