<svg xmlns="http://www.w3.org/2000/svg" height="20" viewBox="0 -960 960 960" width="20"><path d="M603.587-380.891q-10.439 0-17.698-7.259t-7.259-17.698v-144.717q0-10.439 7.259-17.698t17.698-7.259h96.239q10.439 0 17.698 7.259t7.259 17.698v144.717q0 10.439-7.259 17.698t-17.698 7.259h-96.239Zm24.717-50.152h46.566v-94.087h-46.566v94.087Zm-342.217 0h70.326q10.639 0 17.798 7.158 7.159 7.159 7.159 17.798t-7.159 17.918q-7.159 7.278-17.798 7.278h-96.239q-10.439 0-17.698-7.259t-7.259-17.698v-71.282q0-10.44 7.259-17.698 7.259-7.259 17.698-7.259H330.5v-23.283h-70.326q-10.639 0-17.798-7.278-7.159-7.278-7.159-17.917 0-10.639 7.279-17.798 7.278-7.159 17.917-7.159h96q10.439 0 17.698 7.259t7.259 17.698v71.282q0 10.44-7.259 17.698-7.259 7.259-17.698 7.259h-70.326v23.283Zm-121.674 253.63q-33.783 0-58.392-24.608-24.608-24.609-24.608-58.392V-696q0-33.783 24.608-58.391Q130.63-779 164.413-779h110.674v-35.79q0-16.735 11.485-28.266 11.485-11.531 28.13-11.531 16.646 0 28.222 11.381T354.5-815v36h251v-35.79q0-16.645 11.485-28.221t28.131-11.576q16.645 0 28.221 11.381T684.913-815v36h110.674q34.483 0 58.741 24.609 24.259 24.608 24.259 58.391v435.587q0 33.783-24.259 58.392-24.258 24.608-58.741 24.608H164.413Zm-3.826-79.174H450.5v-23.721q0-12.431 8.474-21.105 8.474-8.674 21.026-8.674t21.026 8.474q8.474 8.474 8.474 21.026v24h289.913v-443H509.5v23.721q0 12.431-8.474 21.105-8.474 8.674-21.026 8.674t-21.026-8.474q-8.474-8.474-8.474-21.026v-24H160.587v443Zm0 0v-443 443ZM480-516.413q-11.357 0-18.994-7.756-7.636-7.757-7.636-19.114 0-11.356 7.636-18.993 7.637-7.637 18.994-7.637t19.113 7.637q7.757 7.637 7.757 18.993 0 11.357-7.757 19.114-7.756 7.756-19.113 7.756Zm0 129.913q-11.357 0-18.994-7.756-7.636-7.757-7.636-19.114 0-11.356 7.636-18.993Q468.643-440 480-440t19.113 7.637q7.757 7.637 7.757 18.993 0 11.357-7.757 19.114Q491.357-386.5 480-386.5Z"/></svg>