<svg xmlns="http://www.w3.org/2000/svg" height="20" viewBox="0 -960 960 960" width="20"><path d="M571-159.869H309.609q-32.092 0-54.796-22.705-22.704-22.704-22.704-54.796v-311.086q0-19.631 12.593-30.565 12.594-10.935 28.907-10.935 17.452 0 29.476 12.091 12.024 12.091 12.024 29.17v305.825H571l-22.674-22.673q-5.956-5.718-8.815-13.674-2.859-7.957-2.859-16.113 0-8.157 2.859-15.533 2.859-7.376 8.608-13.333 6.181-5.956 14.088-9.315 7.906-3.359 16.149-3.359 8.242 0 15.693 3.359 7.451 3.359 13.161 9.068l94.016 94.016q5.948 5.71 9.307 13.205 3.358 7.496 3.358 15.652 0 8.157-3.358 15.533-3.359 7.376-9.315 13.733l-94.05 93.81q-5.668 5.668-12.691 8.527-7.023 2.858-15.152 2.858t-15.752-3.2q-7.623-3.2-14.008-9.234-5.717-5.957-8.695-14.033-2.979-8.076-2.979-16.144 0-8.067 2.979-15.366 2.978-7.298 8.695-13.349L571-159.869ZM727.891-722.63v311.086q0 19.631-12.593 30.565-12.594 10.935-28.907 10.935-17.452 0-29.476-12.091-12.024-12.091-12.024-29.17V-717.13H389l22.674 22.673q12.913 12.913 12.674 29.732-.239 16.819-12.913 28.921-12.102 12.674-29.04 12.674-16.939 0-29.613-12.435l-94.008-94.009q-5.709-5.948-8.687-13.324-2.978-7.376-2.978-15.532 0-8.157 2.978-15.653 2.978-7.495 8.695-13.613l94-93.761q12.674-12.434 29.446-12.674 16.772-.239 29.924 12.435 12.435 12.674 12.315 29.446-.119 16.772-12.793 29.446L389-800.131h261.391q32.092 0 54.796 22.705 22.704 22.704 22.704 54.796Z"/></svg>