<svg xmlns="http://www.w3.org/2000/svg" height="20" viewBox="0 -960 960 960" width="20"><path d="M480-528q-50.957 0-86.674-35.717-35.717-35.718-35.717-86.674 0-50.957 35.717-86.674 35.717-35.718 86.674-35.718 50.957 0 86.674 35.718 35.717 35.717 35.717 86.674 0 50.956-35.717 86.674Q530.957-528 480-528Zm0-76.783q19.443 0 32.526-13.202 13.083-13.202 13.083-32.406 0-19.444-13.083-32.526Q499.443-696 480-696q-19.204 0-32.406 13.083-13.203 13.082-13.203 32.526 0 19.204 13.203 32.406 13.202 13.202 32.406 13.202ZM237.609-357q0-21.116 10.858-40.015 10.859-18.898 28.337-30.137 45.718-29.239 97.696-42.239 51.978-13 105.5-13 53.761 0 105.62 12.88 51.858 12.881 97.576 42.359 17.478 11.239 28.337 30.018 10.858 18.779 10.858 40.134 0 29.77-20.81 50.581-20.811 20.81-50.581 20.81H309q-29.77 0-50.581-20.81-20.81-20.811-20.81-50.581Zm242.235-48.609q-41.735 0-81.485 10.305-39.75 10.304-75.598 32.913h314.478Q601.391-383 561.485-394.304q-39.906-11.305-81.641-11.305ZM674.87-831.152q-15.674-9.435-22.653-25.467-6.978-16.033-.26-31.946 6.956-15.913 22.989-21.75 16.032-5.837 31.945 2.358 64.077 33.779 114.691 83.999 50.614 50.219 84.896 113.588 9.435 16.275 3.598 33.627-5.837 17.352-21.989 24.308-15.913 6.957-32.685-.641-16.772-7.598-26.207-23.511-27.565-50.174-66.217-88.826-38.652-38.652-88.108-65.739Zm-390.218.239q-49.935 27.326-88.587 66.098t-65.978 88.467q-9.435 15.913-25.587 23.511-16.152 7.598-32.065.641-16.152-6.956-22.49-24.308-6.336-17.352 3.099-33.627Q87.326-773.5 137.82-823.719q50.495-50.219 114.81-84.238 15.913-8.195 31.814-2.469 15.901 5.725 23.121 21.861 6.718 15.913-.261 32.065-6.978 16.152-22.652 25.587ZM130.326-284.652q27.087 49.456 65.239 88.108 38.152 38.653 87.848 65.979 15.913 9.434 23.63 25.706 7.718 16.272.761 32.185-6.956 16.152-24.489 22.49-17.533 6.336-33.206-3.099-63.37-34.282-113.837-84.75-50.468-50.467-83.99-114.836-8.434-15.913-2.097-31.946t22.489-22.989q15.913-6.718 32.065.261 16.152 6.978 25.587 22.891Zm700.109.717q9.434-15.913 25.587-23.011 16.152-7.097 32.065-.38 15.913 6.956 21.75 22.989t-2.359 31.946q-33.779 64.076-83.998 114.69-50.219 50.614-113.589 84.897-16.274 9.434-33.626 3.098-17.352-6.337-24.308-22.49-6.957-15.913.88-32.065 7.837-16.152 23.75-25.826 49.456-27.326 88.109-65.859 38.652-38.532 65.739-87.989ZM480-650.391Zm0 288h157.239-314.478H480Z"/></svg>