<svg xmlns="http://www.w3.org/2000/svg" height="20" viewBox="0 -960 960 960" width="20"><path d="M708.957-87.87q-83.109 0-141.261-58.152t-58.152-141.261q0-83.108 58.152-141.141 58.152-58.033 141.261-58.033t141.141 58.033q58.033 58.033 58.033 141.141 0 83.109-58.033 141.261-58.032 58.153-141.141 58.153Zm91.109-110.065q5-5.239 2.5-11.978t-9.74-8.739q-26.956-5-50.174-20.218-23.217-15.217-37.934-41.173Q690-306 688.381-332.837q-1.62-26.837 7.858-52.793 2.24-7.24-2.38-12.479-4.62-5.239-11.859-4.239-69.63 12.478-95.467 79.37-25.837 66.891 20.837 122.804 36.195 45.674 95.228 46.794 59.033 1.119 97.468-44.555ZM437.848-87.869q-18.196 0-32.229-10.598-14.032-10.598-17.032-27.794l-15-78.239q-21.087-8.282-41.033-19.326-19.945-11.043-37.511-25.848l-74.76 26q-15.957 5.239-32.653-.38-16.695-5.62-25.174-20.815l-44.543-78.37q-8.478-14.957-5.359-31.533 3.12-16.576 16.076-28.054l58.761-52q-1.761-11.044-2.761-22.087-1-11.044-1-23.087t1-23.087q1-11.043 2.761-22.087l-58.761-51.761q-13.195-11.478-16.195-28.054t5.478-31.772l44.543-78.13q8.479-14.957 25.055-20.696 16.576-5.739 32.532-.5l75.479 26q17.565-14.804 37.152-25.728 19.587-10.924 40.913-19.207l15-78.478q3-17.435 15.837-28.033 12.837-10.598 31.032-10.598h89.088q18.195 0 31.032 10.598t15.837 28.033l15 78.478q21.087 8.283 41.033 19.207 19.945 10.924 37.511 25.728l74.76-26q15.957-5.239 32.653.5 16.695 5.739 25.174 20.696l47.413 82.913q7.282 13.043 3.685 28.185-3.598 15.141-15.12 24.467l-41.739 36.935q-12.913 11-28.968 11.021-16.054.022-27.532-12.652-9.37-7.891-8.848-21.065.522-13.174 10.413-20.543l26.456-23.652-23.739-38.131-95.522 32q-24-29.717-57.597-49.076-33.598-19.359-72.076-26.12l-19-98.521h-30.979l-18.521 98.282q-38.718 6.761-72.435 26.12-33.718 19.358-57.957 49.315l-95.282-32-15.37 25.696 75.044 66.282q-6 17.478-9.74 36.337-3.739 18.859-3.739 39.098 0 20.239 3.739 39.217 3.74 18.979 9.74 36.457l-75.044 66.043 15.37 25.696 95.282-31.761q23.718 27.957 55.413 46.935 31.696 18.978 67.653 26.978 2.76 35.761 13.782 69t29.304 61.718q11.435 17.347 3.718 34.598-7.718 17.25-25.631 17.25h-21.869ZM480-480Zm0 0Zm.283-144q-61 0-103 42.12-42 42.119-42 101.88 0 35 11.619 61.12 11.62 26.119 35.859 46.119 17.717 14.957 37.793 14.837 20.076-.119 28.794-14.837 8.717-14.956 6.717-30.033-2-15.076-14.956-22.793-14.522-7.043-21.544-21.065-7.021-14.022-7.021-33.587.239-27.848 19.565-47.174t48.174-19.326q13.804 0 24.989 4.783 11.184 4.782 21.467 15.826 10.435 9.043 24.294 7.869 13.858-1.174 25.38-9.652 13.522-10.717 12.283-28.957-1.24-18.239-16.479-31.521-19.761-17.805-43.065-26.707Q505.848-624 480.283-624Z"/></svg>