<svg xmlns="http://www.w3.org/2000/svg" height="20" viewBox="0 -960 960 960" width="20"><path d="M708.957-87.87v-398.587q13.478 0 25.956 2.239 12.479 2.24 24.196 5.24v383.63q-11.717 3-24.196 5.24-12.478 2.239-25.956 2.239Zm-99.826-26.956V-459.5q11.478-7.239 24.076-11.859 12.598-4.619 26.076-7.859v384.11q-13.478-3.24-26.076-7.859-12.598-4.62-24.076-11.859Zm199.413-1V-459.5q44.674 26.956 72.13 71.75 27.457 44.793 27.457 100.707 0 55.913-27.457 100.587-27.456 44.674-72.13 70.63Zm-248.848-39.956q-22.957-26.957-36.555-60.392-13.597-33.435-13.597-71.109 0-37.674 13.597-70.75 13.598-33.076 36.555-60.271v262.522ZM437.848-87.869q-18.196 0-32.229-10.598-14.032-10.598-17.032-27.794l-15-78.239q-21.087-8.282-41.033-19.326-19.945-11.043-37.511-25.848l-74.76 26q-15.957 5.239-32.653-.38-16.695-5.62-25.174-20.815l-44.543-78.37q-8.478-14.957-5.359-31.533 3.12-16.576 16.076-28.054l58.761-52q-1.761-11.044-2.761-22.087-1-11.044-1-23.087t1-23.087q1-11.043 2.761-22.087l-58.761-51.761q-13.195-11.478-16.195-28.054t5.478-31.772l44.543-78.13q8.479-14.957 25.055-20.696 16.576-5.739 32.532-.5l75.479 26q17.565-14.804 37.152-25.728 19.587-10.924 40.913-19.207l15-78.478q3-17.435 15.837-28.033 12.837-10.598 31.032-10.598h89.088q18.195 0 31.032 10.598t15.837 28.033l15 78.478q21.087 8.283 41.033 19.207 19.945 10.924 37.511 25.728l74.76-26q15.957-5.239 32.653.5 16.695 5.739 25.174 20.696l47.413 82.913q7.282 13.043 3.685 28.185-3.598 15.141-15.12 24.467l-41.739 36.935q-12.913 11-28.968 11.021-16.054.022-27.532-12.652-9.37-7.891-8.848-21.065.522-13.174 10.413-20.543l26.456-23.652-23.739-38.131-95.522 32q-24-29.717-57.597-49.076-33.598-19.359-72.076-26.12l-19-98.521h-30.979l-18.521 98.282q-38.718 6.761-72.435 26.12-33.718 19.358-57.957 49.315l-95.282-32-15.37 25.696 75.044 66.282q-6 17.478-9.74 36.337-3.739 18.859-3.739 39.098 0 20.239 3.739 39.217 3.74 18.979 9.74 36.457l-75.044 66.043 15.37 25.696 95.282-31.761q23.718 27.957 55.413 46.935 31.696 18.978 67.653 26.978 2.76 35.761 13.782 69t29.304 61.718q11.435 17.347 3.718 34.598-7.718 17.25-25.631 17.25h-21.869ZM480-480Zm0 0Zm.283-144q-61 0-103 42.12-42 42.119-42 101.88 0 35 11.619 61.12 11.62 26.119 35.859 46.119 17.717 14.957 37.793 14.837 20.076-.119 28.794-14.837 8.717-14.956 6.717-30.033-2-15.076-14.956-22.793-14.522-7.043-21.544-21.065-7.021-14.022-7.021-33.587.239-27.848 19.565-47.174t48.174-19.326q13.804 0 24.989 4.783 11.184 4.782 21.467 15.826 10.435 9.043 24.294 7.869 13.858-1.174 25.38-9.652 13.522-10.717 12.283-28.957-1.24-18.239-16.479-31.521-19.761-17.805-43.065-26.707Q505.848-624 480.283-624Z"/></svg>