<svg xmlns="http://www.w3.org/2000/svg" height="20" viewBox="0 -960 960 960" width="20"><path d="m431.652-340.928 6.761 30.363q2.608 11.556 11.734 18.854t21.244 7.298h16.218q12.265 0 21.502-7.038 9.237-7.038 11.476-18.875l7.761-31.044q13.043-4.76 25.065-11.021 12.022-6.261 22.304-15.544l31.044 8.522q11.956 3.239 22.168-1.048 10.212-4.286 15.919-14.044l8.522-14.086q5.456-9.931 3.717-21.507-1.739-11.576-10.457-20.293l-22.043-21.044q1.522-12.043 2.522-28.065 1-16.022-1.522-28.065l21.283-20.283q8.717-8.717 10.456-20.174 1.739-11.456-3.739-21.413l-8.478-13.956q-5.54-9.877-16.466-14.776-10.926-4.898-21.882-1.659l-30.044 8.761q-10.282-9.283-22.804-16.044-12.522-6.761-25.565-11.816l-6.761-29.51q-2.239-11.717-12.076-19.435-9.837-7.717-22.357-7.717h-14.308q-12.52 0-22.357 7.538t-12.076 19.375l-6.761 29.589q-13.043 5.215-25.565 11.976-12.522 6.761-22.804 16.044l-29.044-8.522q-11.956-3.239-22.793 1t-16.294 15.092l-8.522 13.086q-5.456 10.931-3.717 22.507 1.739 11.576 10.457 20.293l22.043 20.044q-2.522 13.043-2.522 28.065 0 15.022 2.522 28.065l-22.283 21.283q-8.717 8.717-10.456 19.674-1.739 10.956 3.913 22.334l7.13 13.983q5.714 10.429 17.14 14.828 11.426 4.398 23.382 1.159l30.044-9.761q10.282 8.283 22.304 15.044 12.022 6.761 25.065 11.963Zm48.085-68.985q-29.02 0-49.422-20.665-20.402-20.666-20.402-49.685 0-29.02 20.665-49.422 20.666-20.402 49.685-20.402 29.02 0 49.422 20.665 20.402 20.666 20.402 49.685 0 29.02-20.665 49.422-20.666 20.402-49.685 20.402ZM218.87-135.869q-34.483 0-58.742-24.259t-24.259-58.742v-522.26q0-34.483 24.259-58.742t58.742-24.259h522.26q34.483 0 58.742 24.259t24.259 58.742v522.26q0 34.483-24.259 58.742t-58.742 24.259H218.87Zm0-83.001h522.26v-522.26H218.87v522.26Zm0-522.26v522.26-522.26Z"/></svg>