<svg xmlns="http://www.w3.org/2000/svg" height="20" viewBox="0 -960 960 960" width="20"><path d="m699.37-696.5-54.28-24.52q-12.68-5.73-12.68-18.64t12.68-18.62l54.28-24.52 24.76-54.53q5.69-12.43 18.5-12.43 12.81 0 18.52 12.43l24.76 54.53 54.29 24.52q12.67 5.73 12.67 18.64 0 12.9-12.67 18.62l-54.29 24.52-24.76 54.52q-5.69 12.44-18.5 12.44-12.8 0-18.52-12.44l-24.76-54.52Zm96.94 301.89-45.4-20.78q-5.71-2.38-5.71-9.15 0-6.76 5.71-9.24l45.4-20.78 20.78-45.4q2.38-5.71 9.14-5.71 6.77 0 9.25 5.71l20.78 45.4 45.39 20.78q5.72 2.38 5.72 9.15 0 6.76-5.72 9.24l-45.39 20.78-20.78 45.39q-2.38 5.72-9.15 5.72-6.76 0-9.24-5.72l-20.78-45.39ZM318.37-85q-16.13 0-27.7-10.93-11.56-10.94-12.8-26.85l-4.52-60.13q-6.81-1.52-14.25-5.95-7.45-4.42-13.73-8.7L192.96-172q-14.92 6.96-30.45 1.62t-23.49-19.01L75.11-300.26q-7.96-13.67-4.6-29.83 3.36-16.15 16.27-25.34l48.13-32.85q0-6.51.5-16.01.5-9.51.5-16.01l-48.13-32.85q-13.91-9.2-17.27-25.35-3.36-16.15 4.6-29.83l63.91-110.87q7.96-13.67 23.49-19.01 15.53-5.33 30.45 1.62l52.41 25.57q6.28-4.28 13.73-8.83 7.44-4.54 14.25-6.06l4.52-59.89q1.24-15.92 12.8-26.85 11.57-10.94 27.7-10.94H448.2q16.13 0 27.69 10.94 11.57 10.93 12.81 26.85l4.52 59.89q6.8 1.52 14.25 6.06 7.44 4.55 13.73 8.83l52.41-25.57q14.91-6.95 30.44-1.62 15.54 5.34 23.49 19.01l63.92 110.87q7.95 13.68 4.59 29.83-3.35 16.15-16.27 25.35l-48.13 32.85q0 6.5-.5 16.01-.5 9.5-.5 16.01l48.13 32.85q13.92 9.19 17.27 25.34 3.36 16.16-4.59 29.83l-63.92 110.87q-7.95 13.67-23.49 19.01-15.53 5.34-30.44-1.62l-53.41-25.56q-6.29 4.28-13.23 8.7-6.95 4.43-13.75 5.95l-4.52 60.13q-1.24 15.91-12.81 26.85Q464.33-85 448.2-85H318.37Zm64.95-197.02q50.92 0 86.52-35.69 35.59-35.69 35.59-86.67 0-50.99-35.64-86.59t-86.55-35.6q-50.91 0-86.51 35.64-35.6 35.64-35.6 86.56 0 50.91 35.64 86.63t86.55 35.72Zm-29.04 117.61h58l6-75q29-6 49-18.5t41-33.5l68 32 30-50-63-43q8.24-21 8.24-51.5t-8.24-52.5l62-43-29-50-68 32q-21-21-41-32.5t-49-19.5l-6-75h-58l-6 76q-29 8-50 19t-40 32l-68-32-30 50 63 43q-8.24 22-8.12 52.5.12 30.5 8.12 51.5l-63 43 30 50 68-32q19 21 41.5 33.5t48.5 18.5l6 75Zm29-240Z"/></svg>