<svg xmlns="http://www.w3.org/2000/svg" height="20" viewBox="0 -960 960 960" width="20"><path d="M661.479-147.869q-17.436 0-29.609-11.964-12.174-11.963-12.174-29.326t12.012-29.537q12.012-12.174 29.447-12.174h218.627q17.436 0 29.609 11.964 12.174 11.963 12.174 29.326t-12.012 29.537q-12.012 12.174-29.447 12.174H661.479ZM390.5-819.587q-16.113 0-27.013-10.84-10.9-10.839-10.9-26.863 0-16.023 10.9-27.073t27.013-11.05h179q16.113 0 27.013 10.839 10.9 10.84 10.9 26.863 0 16.024-10.9 27.074t-27.013 11.05h-179ZM492.804-501.37h237.37q-18.239-53.086-54.022-96.749-35.782-43.663-89.739-67.424L492.804-501.37Zm-69.956 25.674 117.565-205.608q-15.283-4.522-30.496-5.783-15.214-1.261-30.678-1.261-41.021 0-79.608 12.598-38.588 12.598-71.392 36.12l94.609 163.934Zm-202.73 73.674h189.686L291.478-607.391q-39.761 42.478-58.445 95.402-18.685 52.924-12.915 109.967Zm152.991 212.413 94.087-164.413H229.587q17.717 55.522 54.12 98.087 36.402 42.565 89.402 66.326Zm107.652-238.087ZM524.978-167.5ZM744-435.261ZM479.761-83.565q-71.435 0-134.123-27.198-62.687-27.198-109.008-73.634-46.321-46.437-73.541-109.15-27.22-62.714-27.22-134.149 0-71.434 27.238-134.079 27.237-62.645 73.589-109.031 46.351-46.385 109.08-73.583t134.211-27.198q60.204 0 114.046 19.432 53.843 19.431 98.402 53.611l49.239-49.239q12.435-12.435 28.37-12.195 15.934.239 28.13 12.434 12.196 12.435 12.076 28.25-.119 15.816-12.315 28.011l-49 48.761q31.848 40.37 53.141 94.511 21.294 54.141 22.294 111.75 0 17.25-11.964 28.918-11.963 11.669-28.608 11.669-16.646 0-28.222-11.381Q744-418.437 744-435.261q0-4.643-.047-9.054-.047-4.411-.236-9.055H580.87L417.196-170.323q14.326 3.106 28.75 5.106t29.989 2.239q13.723.239 26.459-1.5 12.736-1.739 24.736-3.261 15.957-2.761 29.435 5.815 13.478 8.576 16.718 24.533 3.239 16.435-5.718 30.87-8.956 14.434-25.391 17.674-15.044 4-30.576 4.64-15.533.642-31.837.642Z"/></svg>