<svg xmlns="http://www.w3.org/2000/svg" height="20" viewBox="0 -960 960 960" width="20"><path d="M483-91.22q-81.42 0-152.67-31.01-71.24-31.01-124.16-83.94-52.93-52.92-83.94-124.16Q91.22-401.58 91.22-483q0-122.97 69.65-223.33 69.65-100.37 184.76-144.6 13-5 25.5-3.89 12.5 1.12 22.18 9.12 8.04 7.24 12.04 18.62t4.24 28.38q.48 80.63 29.36 150.73t85.4 126.62q53.12 52.88 123.08 81.72 69.96 28.85 150.55 30.04 16.76.48 28.62 4.84 11.86 4.36 19.1 12.39 8 9.69 9.26 22.19 1.26 12.5-3.45 25.43-43.53 114.94-144.53 184.23Q605.99-91.22 483-91.22Zm0-83q83.7 0 156.71-41.89t111.77-114.11q-81.09-6.43-154.91-40.93-73.83-34.5-131.87-92.55-59.05-59.04-93.05-132.25-34-73.2-41.67-155.29-71.74 41-113.75 112.96-42.01 71.95-42.01 155.28 0 128.86 89.96 218.82 89.96 89.96 218.82 89.96ZM464.7-463.7Zm206.45-220.47-63.93-29.16q-12.68-5.71-12.68-18.51 0-12.79 12.52-18.04l63.72-29.25 29.15-63.94q5.72-12.67 18.52-12.67 12.79 0 18.04 12.52l29.25 63.72 64.17 29.15q12.68 5.72 12.56 18.63-.12 12.92-12.64 18.17l-63.72 29-28.91 63.94q-5.72 12.68-18.63 12.79-12.92.12-18.17-12.39l-29.25-63.96Z"/></svg>