<svg xmlns="http://www.w3.org/2000/svg" height="20" viewBox="0 -960 960 960" width="20"><path d="M479.8-105.022q-8.157 0-15.533-2.978-7.376-2.978-13.093-8.696L237.696-330.174q-12.674-12.674-12.674-29.326t12.674-29.326q12.434-12.674 28.706-13.294 16.272-.619 28.682 12.095L438.5-246.435v-583.717q0-17.452 11.963-29.476 11.964-12.024 29.326-12.024 17.363 0 29.537 12.024t12.174 29.476v583.717l143.391-143.391q12.341-12.674 29.16-12.674 16.819 0 29.971 12.674 12.435 12.674 12.315 29.326-.119 16.652-12.793 29.326L509.065-116.696q-6.117 5.718-13.613 8.696-7.495 2.978-15.652 2.978Z"/></svg>