<svg xmlns="http://www.w3.org/2000/svg" height="20" viewBox="0 -960 960 960" width="20"><path d="M276.211-384Q261-384 250.5-394.289q-10.5-10.29-10.5-25.5Q240-435 250.289-445.5q10.29-10.5 25.5-10.5Q291-456 301.5-445.711q10.5 10.29 10.5 25.5Q312-405 301.711-394.5q-10.29 10.5-25.5 10.5Zm595.68-405.13v484.325q0 17.028-12.128 28.764-12.129 11.737-29.743 11.737-15.542 0-28.335-10.435-12.794-10.435-12.794-31.305V-789.13H295.044q-20.75 0-31.125-12.99-10.375-12.989-10.375-28.576t10.375-28.511q10.375-12.924 31.125-12.924h493.847q34.483 0 58.742 24.259 24.258 24.259 24.258 58.742ZM684-516H566.022q-18 0-27-11.25t-9-24.75q0-13.5 9-24.75t27-11.25H684q15.3 0 25.65 10.289 10.35 10.29 10.35 25.5Q720-537 709.65-526.5 699.3-516 684-516ZM231.869-231.869l-73.317 73.317q-19.748 19.748-45.215 8.981-25.468-10.766-25.468-38.451V-765.87L70.24-783.5Q58.52-795.218 58.64-809.696q.12-14.478 11.837-26.195 11.717-11.718 26.696-11.718 14.978 0 26.695 11.718l705.327 705.326q11.717 11.717 11.598 26.315-.12 14.598-11.598 26.076-11.718 11.718-26.696 12.218-14.978.5-26.696-11.218L621.109-231.869h-389.24ZM533.391-533.63ZM275.912-516Q261-516 250.5-526.35 240-536.7 240-552q0-14 10.289-24.5 10.29-10.5 25.5-10.5Q291-587 301-576.5q10 10.5 10 25t-10.088 25q-10.087 10.5-25 10.5ZM684.03-648H420.449q-15.271 0-25.621-10.289-10.35-10.29-10.35-25.5 0-15.211 10.35-25.711 10.35-10.5 25.621-10.5H684.03q15.27 0 25.62 10.289 10.35 10.29 10.35 25.5Q720-669 709.65-658.5 699.3-648 684.03-648ZM351.37-500.37Zm-180.5-182.499v399.238l30.999-31.239h336L170.87-682.869Z"/></svg>