<svg xmlns="http://www.w3.org/2000/svg" height="20" viewBox="0 -960 960 960" width="20"><path d="M429-358q22.885 22 56.703 20.5Q519.522-339 536-363l152.935-225.109q9.435-13.913-2.739-26.087t-26.087-2.739l-225.23 153.186Q410-446.522 408-413.202q-2 33.319 21 55.202Zm52-418.131q36.804 0 68.967 6.142 32.163 6.141 60.644 16.132 16.193 5.292 17.541 20.955 1.348 15.663-7.609 30.076-9.956 14.913-23.978 20.489-14.022 5.576-30.745.776-19.277-6.004-40.005-8.787-20.728-2.782-44.324-2.782-128.817 0-219.719 92.661Q170.87-507.807 170.87-384q0 38 5.26 61.185 5.261 23.185 16.783 55.945h573.174q13-33 18.022-59.065Q789.13-352 789.13-384q0-29.709-6.282-61.007-6.283-31.297-19.087-59.623-7-16.392-3.163-33.903 3.837-17.51 18.908-28.192 13.994-9.71 30.646-5.732 16.653 3.979 24.131 20.131 19.074 38.69 28.58 80.867 9.507 42.176 9.268 85.459-.24 51.717-8.983 90.87-8.743 39.153-28.213 72.195-11.435 19.153-28.706 29.109-17.271 9.957-38.229 9.957H192q-20.913 0-38.565-10.196-17.653-10.196-28.37-28.87-19.239-32.717-28.217-71.913-8.979-39.195-8.979-91.159 0-81.152 31.116-152.321 31.116-71.17 84.182-123.821 53.065-52.651 124.931-83.316Q399.964-776.131 481-776.131Zm3.544 282.587Z"/></svg>