<svg xmlns="http://www.w3.org/2000/svg" height="20" viewBox="0 -960 960 960" width="20"><path d="M332.652-128.695q-20.4 0-34.2-13.8-13.8-13.8-13.8-34.2v-103.174h394.283v103.174q0 20.4-13.8 34.2-13.8 13.8-34.2 13.8H332.652ZM778.522-624v110q0 9-2.5 17.5t-4.5 16.5l-26.717 94.87q-7.479 25.152-28.392 41.206-20.913 16.055-47.065 16.055H290.652q-27.152 0-48.565-16.055-21.413-16.054-26.892-41.206l-30.672-108.779Q181.478-502 181.478-511v-230.13q0-34.483 24.259-58.742t58.741-24.259h327.87q34.482 0 58.741 24.259t24.259 58.742v108.282q1.674-19.204 15.713-31.928t33.961-12.724q22.552 0 38.026 15.474 15.474 15.474 15.474 38.026ZM294-410.87h372L695.522-514v-59.13H592.348v-168h-327.87V-514L294-410.87ZM480-576Zm-95.522 2.87h87.87q20 0 34-14t14-34q0-20-14-34t-34-14h-87.87q-20 0-34 14t-14 34q0 20 14 34t34 14Z"/></svg>