<svg xmlns="http://www.w3.org/2000/svg" height="20" viewBox="0 -960 960 960" width="20"><path d="M480-674.109v301.522l124.456 73.13-33.043-138.5 107.174-91.652-141.739-12.521L480-674.109Zm0 398.196-164.717 98.478q-12.674 6.957-24.848 5.837-12.174-1.119-21.37-8.076-9.196-6.956-13.793-19.011-4.598-12.054-1.12-24.728l43.239-183.717-145.717-123.718q-10.435-9.195-12.794-21.25-2.359-12.054.881-23.489 3.239-11.435 12.793-19.131 9.555-7.695 23.228-8.695l190.718-17 75.478-174.957q5.718-12.913 16.033-19.13 10.315-6.218 21.989-6.218 11.674 0 21.989 6.218 10.315 6.217 16.033 19.13L593.5-619.413l190.718 16q13.673 1 23.228 9.195 9.554 8.196 12.793 19.631 3.24 11.435.381 22.989-2.859 11.555-13.294 20.75L662.609-407.13l43.239 183.717q3.478 12.674-1.12 24.728-4.597 12.055-13.793 19.011-9.196 6.957-21.37 8.076-12.174 1.12-24.848-5.837L480-275.913Z"/></svg>