<svg xmlns="http://www.w3.org/2000/svg" height="20" viewBox="0 -960 960 960" width="20"><path d="m159.869-172.13-30-14q-28-12-38-40t3-56l65-140v250Zm148 79q-31 0-53.5-20.5t-22.5-51.5v-288l134 360h-58Zm217.522-.218q-31.108 12.196-61.217-1.62-30.109-13.814-42.305-46.162l-171-469q-12.195-31.109 2.12-61.098 14.315-29.99 45.424-41.424l294-107q31.109-11.957 60.837 2.239 29.728 14.195 41.924 45.543l172 471.24q11.957 32.108-2.598 61.478-14.554 29.37-46.663 41.804l-292.522 104Zm-76.13-451.717q16.435 0 28.13-11.531 11.696-11.532 11.696-28.056 0-16.435-11.696-28.131-11.695-11.695-28.13-11.695t-28.011 11.695q-11.576 11.696-11.576 28.131 0 16.435 11.531 28.011 11.532 11.576 28.056 11.576Zm49.935 373.478 288.5-103.326-169.087-465.5-288.5 105.326 169.087 463.5Zm-169.087-463.5 288.5-105.326-288.5 105.326Z"/></svg>