<svg xmlns="http://www.w3.org/2000/svg" height="20" viewBox="0 -960 960 960" width="20"><path d="M170.87-183.869q-34.483 0-58.742-24.271t-24.259-58.77v-426.504q0-34.499 24.259-58.608 24.259-24.109 58.742-24.109h618.26q34.483 0 58.742 24.271t24.259 58.77v426.504q0 34.499-24.259 58.608-24.259 24.109-58.742 24.109H170.87Zm0-83.001h618.26v-426.26H170.87v426.26Zm0 0v-426.26 426.26Zm108-71.76h258.26q15.3 0 25.65-10.29 10.35-10.289 10.35-25.5 0-15.21-10.35-25.71t-25.65-10.5H278.87q-15.3 0-25.65 10.289-10.35 10.289-10.35 25.5t10.35 25.711q10.35 10.5 25.65 10.5Zm144-144h258.26q15.3 0 25.65-10.29 10.35-10.289 10.35-25.5 0-15.21-10.35-25.71t-25.65-10.5H422.87q-15.3 0-25.65 10.289-10.35 10.289-10.35 25.5t10.35 25.711q10.35 10.5 25.65 10.5Zm-144.211 0q15.211 0 25.711-10.29 10.5-10.289 10.5-25.5 0-15.21-10.29-25.71-10.289-10.5-25.5-10.5-15.21 0-25.71 10.289t-10.5 25.5q0 15.211 10.289 25.711 10.29 10.5 25.5 10.5Zm402.261 144q15.21 0 25.71-10.29 10.5-10.289 10.5-25.5 0-15.21-10.289-25.71-10.29-10.5-25.5-10.5-15.211 0-25.711 10.289-10.5 10.289-10.5 25.5t10.29 25.711q10.289 10.5 25.5 10.5Z"/></svg>