<svg xmlns="http://www.w3.org/2000/svg" height="20" viewBox="0 -960 960 960" width="20"><path d="M378-372h113.855q15.362 0 25.753-10.289Q528-392.579 528-407.789 528-423 517.608-433.5 507.217-444 491.855-444H378l24-24q11-11 11-25.667 0-14.666-11-25.333-11-11-25.5-11T351-519l-81.935 81.935q-12.674 12.397-12.674 28.927 0 16.529 12.674 29.203L351-297q11 11 25.5 10.5T402-298q11-11 11-25.5T402-349l-24-23Zm204-144-24 24q-11 11-11 25.667 0 14.666 11 25.333 11 11 25.5 11t25.5-11l81.935-81.935q12.674-12.397 12.674-28.927 0-16.529-12.674-29.203L609-663q-11-11-25-11t-25 11q-11 11-11 25.5t11 25.5l23 24H468.145q-15.362 0-25.753 10.289Q432-567.421 432-552.211 432-537 442.392-526.5q10.391 10.5 25.753 10.5H582ZM480.276-87.87q-81.189 0-152.621-30.617-71.432-30.618-124.991-84.177-53.559-53.559-84.177-124.949-30.618-71.391-30.618-152.845 0-81.455 30.618-152.387t84.177-124.491q53.559-53.559 124.949-84.177 71.391-30.618 152.845-30.618 81.455 0 152.387 30.618t124.491 84.177q53.559 53.559 84.177 124.716 30.618 71.156 30.618 152.344 0 81.189-30.618 152.621-30.618 71.432-84.177 124.991-53.559 53.559-124.716 84.177-71.156 30.618-152.344 30.618Zm-.276-83q129.043 0 219.087-90.043Q789.13-350.957 789.13-480t-90.043-219.087Q609.043-789.13 480-789.13t-219.087 90.043Q170.87-609.043 170.87-480t90.043 219.087Q350.957-170.87 480-170.87ZM480-480Z"/></svg>