<svg xmlns="http://www.w3.org/2000/svg" height="20" viewBox="0 -960 960 960" width="20"><path d="M872.131-830.63v95.239q0 9.195-3.479 16.532-3.478 7.337-9.195 13.055L664.044-510.391q-12.196 12.195-28.109 11.815-15.913-.381-28.109-12.576-12.435-12.196-12.315-28.609.119-16.413 12.315-28.609l183.696-183.695v-39.457h-37.457L569.37-607.065q-12.435 12.435-28.729 12.435-16.293 0-28.489-12.435-12.195-12.196-12.195-27.99 0-15.793 12.195-27.989l195.652-196.652q5.718-5.717 13.055-9.076 7.337-3.359 16.532-3.359h93.239q17.153 0 29.327 12.174 12.174 12.174 12.174 29.327Zm-716.74 725.848-50.087-50.087Q92.63-167.543 92.63-184.435q0-16.891 12.674-29.565l112.174-112.935-60.674-61.674q-10.522-10.521-10.522-23.326 0-12.804 10.522-23.326l8-8q22.435-22.435 53.631-24.489 31.195-2.054 55.065 17.511l13.043 12.804 12.044-12.043q12.435-12.435 29.228-12.435 16.794 0 28.989 12.435Q369-437.283 368.38-420.489q-.619 16.793-12.815 28.989l-9.848 9.848 37.696 37.695 10.848-10.847Q406.456-367 422.75-367.12q16.293-.119 28.489 12.077 12.435 12.195 12.315 28.608-.119 16.413-12.315 28.609l-12.043 12.044L450-274.739q19.326 23.87 17.772 54.946-1.555 31.076-23.99 53.511l-9 9q-10.521 10.521-23.326 10.521-12.804 0-23.326-10.521l-60.674-60.674-112.934 113.174q-12.674 12.673-29.566 12.673-16.891 0-29.565-12.673Zm684.761-266.196q4.522-22.609-.641-44.717-5.163-22.109-13.728-43.196-17.087 16.804-29.913 35.011-12.826 18.206-17.348 39.815-4.761 22.848-.217 44.576 4.543 21.728 14.586 42.576 14.848-15.804 28.674-33.511 13.826-17.706 18.587-40.554ZM201.891-630.304q19.044 19.043 44.228 25.26 25.185 6.218 49.468-1.63l-24.435-24.435q-18.326-18.326-42.315-22.108Q204.848-657 183-649.196l18.891 18.892Zm72.522-183.087-79.065 79.065q35.565-3.805 70.772 7.315 35.206 11.12 63.01 38.924l23.196 23.196q7.848-24.283 2.13-49.229-5.717-24.945-24.521-43.989l-55.522-55.282ZM804.674-98.587 356.717-545.543q-50.63 30.239-109.641 23.304-59.011-6.935-102.163-51.087l-82.435-82.196q-5.717-5.717-9.196-13.913-3.478-8.195-3.478-16.152 0-7.957 3.478-15.652 3.479-7.696 9.196-13.413l182.87-183.109q5.717-5.718 13.413-8.696 7.695-2.978 15.652-2.978 7.957 0 15.533 2.978t13.293 8.696l83.674 82.674q42.913 43.913 49.968 103.043 7.054 59.131-22.185 109.522l288.826 288.826q-5.326-20.369-7.109-41.761-1.783-21.391 2.739-44.282 13-64.717 61.098-106.837 48.098-42.12 72.576-58.554 6.435-3.957 14.609-2.479 8.174 1.479 13.37 7.913 32.239 46.435 50.978 96.794 18.739 50.359 7.739 108.076-10.761 52.761-45.783 90.402-35.021 37.642-63.065 57.881l50.978 50.978q12.435 12.435 11.696 28.609-.739 16.174-12.935 28.37-12.435 12.434-27.869 12.434-15.435 0-27.87-12.435ZM324.13-635.87Z"/></svg>