<svg xmlns="http://www.w3.org/2000/svg" height="20" viewBox="0 -960 960 960" width="20"><path d="M325.63-87.87q-37.78 0-60.39-22.61t-22.61-60.39v-463.5q0-37.78 22.61-60.39t60.39-22.61h463.5q37.78 0 60.39 22.61t22.61 60.39v463.5q0 37.78-22.61 60.39t-60.39 22.61h-463.5Zm0-83h192.76v-120.04H325.63v120.04Zm270.98 0h192.52v-120.04H596.61v120.04Zm-467.03-62.2q-17.36 0-29.54-12.02-12.17-12.02-12.17-29.48v-514.8q0-37.54 22.61-60.15t60.15-22.61h514.8q17.46 0 29.48 11.96 12.02 11.97 12.02 29.33t-12.02 29.54q-12.02 12.17-29.48 12.17H170.87v514.56q0 17.46-11.96 29.48-11.97 12.02-29.33 12.02Zm196.05-136.06h192.76v-120.04H325.63v120.04Zm270.98 0h192.52v-120.04H596.61v120.04ZM325.63-567.39h463.5v-67.22h-463.5v67.22Z"/></svg>