<svg xmlns="http://www.w3.org/2000/svg" height="20" viewBox="0 -960 960 960" width="20"><path d="M267.587-788.413h424.826v-48H267.587v48Zm0 0v-48 48ZM222.71-40.587q-16.023 0-27.073-10.84-11.05-10.839-11.05-26.862 0-16.024 10.839-27.074 10.84-11.05 26.863-11.05 16.024 0 27.074 10.84 11.05 10.839 11.05 26.863 0 16.023-10.84 27.073-10.839 11.05-26.863 11.05Zm44.877-675.826v178.326q0 17.452-11.963 29.476-11.964 12.024-29.327 12.024-17.362 0-29.536-12.024-12.174-12.024-12.174-29.476v-298.326q0-34.483 24.259-58.741 24.258-24.259 58.741-24.259h424.826q34.483 0 58.741 24.259 24.259 24.258 24.259 58.741v754.326q0 17.452-11.963 29.476-11.964 12.024-29.326 12.024-17.363 0-29.537-12.024t-12.174-29.476v-634.326H267.587Zm36 556.826q-16.761-16.761-37.663-28.022-20.902-11.26-43.424-16.5-15.813-3.298-26.863-14.986-11.05-11.687-11.05-27.313 0-15.625 11.598-26.196 11.597-10.57 26.315-8.331 37.951 6.479 72.214 23.979 34.264 17.5 61.503 44.739 27.239 27.239 44.739 61.503 17.5 34.263 23.979 72.214 2.239 14.718-8.331 26.315-10.571 11.598-26.196 11.598-15.626 0-27.313-11.05-11.688-11.05-14.986-26.863-5.24-22.522-16.5-43.424-11.261-20.902-28.022-37.663Zm102-102q-37.522-37.522-84.044-59.902-46.521-22.38-99.043-28.62-16.018-2.048-26.965-13.17-10.948-11.123-10.948-27.243 0-15.949 11.026-26.801 11.027-10.851 26.648-8.851 67.239 6.239 128.062 35.116 60.824 28.876 108.894 76.841 48.239 48.239 76.718 107.858 28.478 59.62 34.478 126.86 2 16.134-9.098 27.523-11.098 11.39-26.885 11.39-15.788 0-26.932-10.949-11.145-10.948-13.15-26.965-6.239-52.522-28.739-99.043-22.5-46.522-60.022-84.044Z"/></svg>