<svg xmlns="http://www.w3.org/2000/svg" height="20" viewBox="0 -960 960 960" width="20"><path d="M480-87.87q-80.913 0-152.348-30.597-71.435-30.598-125.011-84.174-53.576-53.576-84.174-125.011Q87.869-399.087 87.869-480q0-81.913 30.598-152.848 30.598-70.935 84.174-124.511 53.576-53.576 125.011-84.174Q399.087-872.131 480-872.131q45.609 0 90.315 10.424 44.707 10.424 85.272 31.511 15.913 8 19.63 24.152 3.718 16.153-6.239 31.066-9.956 15.152-27.348 19.108-17.391 3.957-33.782-4.043-29.131-14.609-61.783-21.913T480-789.13q-128.804 0-218.967 90.043Q170.87-609.043 170.87-480t90.163 219.087Q351.196-170.87 480-170.87q128.565 0 218.848-89.924 90.282-89.923 90.282-218.249 0-9.087-.38-19.294-.38-10.206-2.141-19.293-1.522-17.631 7.413-32.185 8.935-14.555 25.087-19.033 17.391-4.239 32.065 5.696 14.674 9.935 16.674 27.326 1.761 13.326 3.022 27.533 1.261 14.206 1.261 28.293 0 80.913-30.598 152.348-30.598 71.435-84.174 125.011-53.576 53.576-124.511 84.174Q561.913-87.869 480-87.869Zm-54.717-330.5 360.804-360.804q12.435-12.435 28.967-12.315 16.533.119 28.729 12.315 12.435 12.435 12.435 28.848 0 16.413-12.435 28.848L453.348-331.283q-12.674 12.674-29.065 12.674-16.392 0-29.066-12.674L288.804-437.696q-12.434-12.434-12.434-29.228 0-16.793 12.434-29.228 12.435-12.435 29.348-12.435 16.913 0 29.348 12.435l77.783 77.782Z"/></svg>