<svg xmlns="http://www.w3.org/2000/svg" height="20" viewBox="0 -960 960 960" width="20"><path d="m744.48-570.07-55.39-119.78L569.3-744l119.79-55.15 55.39-119.78 54.15 119.78L918.41-744l-119.78 54.15-54.15 119.78Zm0 528-54.39-120.78L569.3-217l120.79-54.15 54.39-120.78 54.15 120.78L919.41-217l-120.78 54.15-54.15 120.78ZM361.43-160.15l-99.86-220.98L40.59-481l220.98-99.87 99.86-220.98 99.87 220.98L682.28-481 461.3-381.13l-99.87 220.98Zm0-182.85 43-95 95-43-95-43-43-95-43 95-95 43 95 43 43 95Zm-6-137Z"/></svg>