<svg xmlns="http://www.w3.org/2000/svg" height="20" viewBox="0 -960 960 960" width="20"><path d="M162.022-140.413q-51.674 0-87.63-35.957Q38.434-212.326 38.434-264q0-51.674 35.956-87.63 35.957-35.957 87.631-35.957 13.199 0 25.664 2.641 12.466 2.642 23.749 8.402l151.434-207.548Q348.022-602.5 340.217-624.9q-7.804-22.4-7.804-47.1 0-61.674 42.957-104.63 42.956-42.957 104.63-42.957 61.674 0 104.63 42.957 42.957 42.956 42.957 105.072 0 24.406-7.685 46.851-7.684 22.446-22.532 40.854l151.195 207.309q11.283-5.76 23.749-8.402 12.465-2.641 25.664-2.641 51.674 0 87.631 35.957 35.956 35.956 35.956 87.63 0 51.674-35.956 87.63-35.957 35.957-87.631 35.957t-87.63-35.957q-35.957-35.956-35.957-87.63 0-15.243 3.403-28.545 3.402-13.303 9.684-26.303L531.674-533.891q-2.993 1.601-5.301 1.902-2.308.301-4.873.902V-379.5q36.283 12.022 59.185 43.261Q603.587-305 603.587-264q0 51.674-35.957 87.63-35.956 35.957-87.63 35.957-51.674 0-87.63-35.957-35.957-35.956-35.957-87.63 0-41 22.902-72.359 22.902-31.358 59.185-43.315v-151.413q-2.922-.601-5.551-.902-2.63-.301-4.623-1.902L273.283-319.087q6.282 13 9.304 26.283 3.022 13.282 3.022 28.804 0 51.674-35.957 87.63-35.956 35.957-87.63 35.957Zm1.195-79.174q18.876 0 31.645-12.769Q207.63-245.124 207.63-264q0-18.875-12.768-31.644-12.769-12.769-31.645-12.769-18.875 0-31.644 12.769-12.769 12.769-12.769 31.644 0 18.876 12.769 31.644 12.769 12.769 31.644 12.769ZM480-672Zm0 452.413q18.875 0 31.644-12.769 12.769-12.768 12.769-31.644 0-18.875-12.769-31.644-12.769-12.769-31.644-12.769t-31.644 12.769Q435.587-282.875 435.587-264q0 18.876 12.769 31.644 12.769 12.769 31.644 12.769Zm317.978 0q18.876 0 31.645-12.769 12.768-12.768 12.768-31.644 0-18.875-12.768-31.644-12.769-12.769-31.645-12.769-18.875 0-31.644 12.769-12.769 12.769-12.769 31.644 0 18.876 12.769 31.644 12.769 12.769 31.644 12.769ZM163.217-264ZM480-264Zm317.978 0ZM480.212-603.826q28.21 0 48.086-20.089 19.876-20.088 19.876-48.297 0-28.21-20.089-48.086-20.088-19.876-48.297-19.876-28.21 0-48.086 20.089-19.876 20.088-19.876 48.297 0 28.21 20.089 48.086 20.088 19.876 48.297 19.876Z"/></svg>