<svg xmlns="http://www.w3.org/2000/svg" height="20" viewBox="0 -960 960 960" width="20"><path d="M177.58-741.13q-17.363 0-29.537-11.964-12.174-11.963-12.174-29.326t11.964-29.537q11.963-12.174 29.326-12.174t29.537 11.964q12.174 11.963 12.174 29.326t-11.964 29.537q-11.963 12.174-29.326 12.174Zm151.435 0q-17.363 0-29.537-11.964-12.174-11.963-12.174-29.326t11.964-29.537q11.963-12.174 29.326-12.174t29.536 11.964q12.174 11.963 12.174 29.326t-11.963 29.537q-11.963 12.174-29.326 12.174Zm151.196 0q-17.363 0-29.537-11.964Q438.5-765.057 438.5-782.42t11.963-29.537q11.964-12.174 29.326-12.174 17.363 0 29.537 11.964 12.174 11.963 12.174 29.326t-11.963 29.537q-11.964 12.174-29.326 12.174Zm151.434 0q-17.362 0-29.536-11.964-12.174-11.963-12.174-29.326t11.963-29.537q11.964-12.174 29.326-12.174 17.363 0 29.537 11.964 12.174 11.963 12.174 29.326t-11.963 29.537q-11.964 12.174-29.327 12.174ZM177.58-135.869q-17.363 0-29.537-11.964-12.174-11.963-12.174-29.326t11.964-29.537q11.963-12.174 29.326-12.174t29.537 11.964q12.174 11.963 12.174 29.326t-11.964 29.537q-11.963 12.174-29.326 12.174Zm151.435 0q-17.363 0-29.537-11.964-12.174-11.963-12.174-29.326t11.964-29.537q11.963-12.174 29.326-12.174t29.536 11.964q12.174 11.963 12.174 29.326t-11.963 29.537q-11.963 12.174-29.326 12.174Zm151.196 0q-17.363 0-29.537-11.964-12.174-11.963-12.174-29.326t11.963-29.537q11.964-12.174 29.326-12.174 17.363 0 29.537 11.964Q521.5-194.943 521.5-177.58t-11.963 29.537q-11.964 12.174-29.326 12.174Zm151.434 0q-17.362 0-29.536-11.964-12.174-11.963-12.174-29.326t11.963-29.537q11.964-12.174 29.326-12.174 17.363 0 29.537 11.964 12.174 11.963 12.174 29.326t-11.963 29.537q-11.964 12.174-29.327 12.174ZM741.13-177.37v-605.26q0-17.453 11.964-29.477 11.963-12.024 29.326-12.024t29.537 12.024q12.174 12.024 12.174 29.477v605.26q0 17.453-11.964 29.477-11.963 12.024-29.326 12.024t-29.537-12.024q-12.174-12.024-12.174-29.477Zm-564-261.13q-17.452 0-29.356-11.963-11.905-11.964-11.905-29.326 0-17.363 12.024-29.418 12.024-12.054 29.477-12.054h191.456l-23.391-23.391Q333-557.087 333.5-573.38q.5-16.294 13.413-29.207 12.674-12.913 29.326-12.913t29.565 12.913l91.089 93.66q12.433 12.536 12.433 29.109t-12.674 28.883l-90.848 93.761q-12.913 12.913-29.565 12.913t-29.326-12.913Q334-370.087 333.5-386.38q-.5-16.294 11.935-28.729l23.391-23.391H177.13Z"/></svg>