<svg xmlns="http://www.w3.org/2000/svg" height="20" viewBox="0 -960 960 960" width="20"><path d="M669.152-218.195H228q-16.735 0-28.161-11.366-11.426-11.366-11.426-28.011t11.426-28.221Q211.265-297.37 228-297.37h441.152l-5.37-5.369q-12.195-12.196-12.315-28.011-.119-15.815 12.315-28.25 12.435-12.435 28.131-12.435T720.043-359l72.153 72.391q12.434 12.311 12.434 28.645t-12.434 29.008l-72.153 72.391q-12.195 12.435-27.51 11.935-15.316-.5-27.751-12.935-12.434-12.435-12.434-28.13 0-15.696 12.434-28.131l4.37-4.369Zm-294.735-277.24-28.101 79.759q-4.141 12.238-14.114 18.968t-22.137 6.73q-21.391 0-33.206-17.159-11.816-17.159-4.098-36.272l132.928-353.597q4.441-11.777 14.778-18.375 10.337-6.597 22.371-6.597h28.237q12.273 0 22.61 6.946 10.337 6.947 14.815 18.445l132.652 352.674q8.196 19.63-3.861 36.782-12.056 17.153-33.4 17.153-12.828 0-23.364-7.577-10.536-7.576-14.897-20.489l-27.891-77.391H374.417Zm22.605-68.261h119.434L458.18-731.935h-3.941l-57.217 168.239Z"/></svg>