<svg xmlns="http://www.w3.org/2000/svg" height="20" viewBox="0 -960 960 960" width="20"><path d="M148.782-148.782q-11.434-11.674-13.413-28.185-1.978-16.511 13.277-31.766L752.13-812.218q15.153-15.152 31.664-13.413 16.51 1.74 27.945 13.413 11.674 11.435 13.652 27.946 1.979 16.511-14.173 32.902L207.87-147.782q-14.597 14.152-31.005 12.293-16.409-1.859-28.083-13.293Zm466.131-47.087q-17.435 0-29.609-11.964-12.174-11.963-12.174-29.326t12.013-29.537q12.012-12.174 29.447-12.174h215.758q17.435 0 29.609 11.964 12.174 11.963 12.174 29.326t-12.013 29.537q-12.012 12.174-29.447 12.174H614.913Zm-466.37-240.674q-11.195-11.435-13.054-27.348-1.859-15.913 12.921-30.693L465.416-811.59q15.019-15.019 31.168-13.414 16.148 1.606 27.362 13.058 11.452 11.214 13.058 27.363 1.605 16.148-13.421 31.174L205.717-435.543q-14.118 13.674-29.928 11.934-15.811-1.739-27.246-12.934Zm560.936 73.239q-14.43 14.674-30.465 12.815-16.036-1.859-27.59-13.017-11.555-11.158-13.294-27.109-1.739-15.95 13.174-30.864l102.979-102.978q14.64-14.913 30.309-12.674 15.669 2.24 26.985 13.637 11.315 11.397 13.054 27.347 1.739 15.951-12.935 30.625L709.479-363.304ZM171.777-700.799q-9.321 9.321-22.614 4.541-13.294-4.78-13.294-17.829v-68.543q0-17.453 12.024-29.477 12.024-12.024 29.477-12.024h68.543q13.049 0 17.829 13.294 4.78 13.293-4.541 22.614l-87.424 87.424Zm293.325 564.93q-17.363 0-29.417-11.725-12.055-11.724-12.055-29.087 0-17.362 12.055-29.417 12.054-12.054 29.417-12.054t29.087 12.054q11.724 12.055 11.724 29.417 0 17.363-11.724 29.087-11.724 11.725-29.087 11.725Z"/></svg>