<svg xmlns="http://www.w3.org/2000/svg" height="20" viewBox="0 -960 960 960" width="20"><path d="m651.957-519.196-21.446 63.218q-3.1 8.434-10.849 14.174-7.749 5.739-17.047 5.739-15.337 0-24.052-12.457-8.715-12.456-3.237-27.891l100.185-272.985q3.033-9.08 10.511-14.559 7.478-5.478 17.435-5.478h22.956q9.957 0 17.435 5.478 7.478 5.479 10.474 14.561L854.95-475.665q5.072 14.447-3.685 27.024-8.756 12.576-24.816 12.576-9.971 0-17.545-5.668-7.573-5.667-10.339-14.963l-21.369-62.5H651.957Zm17.522-51.869h90.912L715.789-703.13h-2.093l-44.217 132.065ZM328.361-135.869q-83.122 0-141.394-58.552Q128.695-252.972 128.695-336q0-50.717 22.5-93.674 22.5-42.956 61.5-68.913V-708q0-48.348 33.772-82.239 33.772-33.892 82.12-33.892 48.348 0 82.239 33.892 33.891 33.891 33.891 82.239v209.413q39 25.957 61.5 68.913 22.5 42.957 22.5 93.674 0 83.028-58.617 141.579-58.618 58.552-141.739 58.552ZM211.696-336h234.021q0-25.957-11.337-49.054-11.337-23.098-32.293-39.859l-40.37-30.37V-708q0-13.865-9.572-23.498-9.572-9.632-23.348-9.632-13.775 0-23.438 9.632-9.663 9.633-9.663 23.498v252.717l-39.131 30.37q-21.195 18-33.032 41.598-11.837 23.598-11.837 47.315Z"/></svg>