<svg xmlns="http://www.w3.org/2000/svg" height="20" viewBox="0 -960 960 960" width="20"><path d="M514.087-265.717q30.478 0 52.674-20.761 22.196-20.761 22.196-52.076v-37.315q0-19.725-13.044-33.504-13.043-13.779-31.848-15.453 18.805-1.674 31.848-15.435 13.044-13.761 13.044-33.761v-38.63q0-31.435-22.555-52.076-22.554-20.642-53.272-20.642H409.196q-16.113 0-27.013 10.84-10.9 10.839-10.9 26.863t10.9 27.074q10.9 11.05 27.013 11.05h105.13v46.804h-57.13q-16.113 0-27.013 10.839-10.9 10.84-10.9 26.864 0 16.023 10.9 27.073t27.013 11.05h57.13v45.37h-105.13q-16.113 0-27.013 10.839-10.9 10.84-10.9 26.863 0 16.024 10.9 27.074t27.013 11.05h104.891ZM392.174-816q-16.825 0-28.206-11.485t-11.381-28.131q0-16.645 11.545-28.221 11.546-11.576 28.281-11.576h175.413q16.825 0 28.206 11.321 11.381 11.32 11.381 28.055 0 16.646-11.381 28.341Q584.651-816 567.826-816H392.174ZM480-81.413q-71.913 0-134.269-27.078-62.356-27.079-109.004-73.635-46.648-46.556-73.753-108.911-27.105-62.354-27.105-134.267t27.127-134.257q27.127-62.343 73.765-108.982 46.639-46.639 108.982-73.765 62.344-27.127 133.817-27.127 58.758 0 113.295 19.5 54.536 19.5 100.775 54.739l27.522-27.521q12.152-12.153 27.468-11.653 15.315.5 27.75 12.935t12.435 27.75q0 15.315-12.435 27.75l-26.239 27.239q35.239 45.24 54.619 99.885 19.381 54.645 19.381 113.651 0 71.769-27.105 134.123-27.105 62.355-73.753 108.911-46.648 46.556-109.004 73.635Q551.913-81.413 480-81.413Zm0-83q109.043 0 185.087-75.924 76.043-75.924 76.043-184.967 0-109.044-76.043-185.087Q589.043-686.435 480-686.435q-109.043 0-185.087 76.044-76.043 76.043-76.043 185.087 0 109.043 76.043 184.967Q370.957-164.413 480-164.413Zm0-260.891Z"/></svg>