<svg xmlns="http://www.w3.org/2000/svg" height="20" viewBox="0 -960 960 960" width="20"><path d="m866.69-619.28-34.41-15.94q-5.71-2.38-5.71-9.15 0-6.76 5.71-9.24l34.39-15.72 15.72-34.39q2.38-5.71 9.15-5.71 6.76 0 9.24 5.71l15.94 34.41 34.17 15.7q5.72 2.38 5.72 9.15 0 6.76-5.72 9.24l-34.17 15.94-15.94 34.17q-2.38 5.72-9.15 5.72-6.76 0-9.24-5.72l-15.7-34.17ZM707.48-807.07l-69.78-31.15q-5.72-2.38-5.72-9.15 0-6.76 5.72-9.24l69.78-30.91 30.91-69.78q2.38-5.72 9.15-5.72 6.76 0 9.24 5.72l31.15 69.78 69.79 30.91q5.72 2.38 5.72 9.15 0 6.76-5.72 9.24l-69.73 31.21-31.21 69.73q-2.38 5.71-9.15 5.71-6.76 0-9.24-5.71l-30.91-69.79ZM352.37-81.41q-30.97 0-52.81-22.71-21.84-22.7-21.84-55.03H427.7q0 32.63-22.13 55.18-22.13 22.56-53.2 22.56ZM244.39-209.07q-15.99 0-26.97-10.83-10.99-10.84-10.99-26.87 0-15.92 10.82-26.9 10.82-10.98 26.82-10.98h216.95q16 0 26.98 10.77t10.98 26.7q0 15.92-10.82 27.02-10.82 11.09-26.82 11.09H244.39Zm-52.96-125.5Q129.28-375 92.99-441.03 56.7-507.07 56.7-582.7q0-123.28 86.31-209.59 86.31-86.3 209.62-86.3 123.3 0 209.7 86.3 86.39 86.31 86.39 209.59 0 75.87-36.3 141.79-36.29 65.91-98.44 106.34H191.43Zm26.35-83h268.85q37.28-31.52 58.19-74.56 20.9-43.04 20.9-90.51 0-89.43-61.82-151.19-61.81-61.76-151.08-61.76-89.28 0-151.2 61.76-61.92 61.76-61.92 151.19 0 48.47 20.4 91.01 20.4 42.54 57.68 74.06Zm134.81 0Z"/></svg>