<svg xmlns="http://www.w3.org/2000/svg" height="20" viewBox="0 -960 960 960" width="20"><path d="M177.37-271.5q-17.453 0-29.477-11.963-12.024-11.963-12.024-29.326t12.024-29.537Q159.917-354.5 177.37-354.5h452.891q17.452 0 29.476 11.964 12.024 11.963 12.024 29.326 0 17.362-12.024 29.536-12.024 12.174-29.476 12.174H177.37Zm0-167q-17.453 0-29.477-11.963-12.024-11.964-12.024-29.326 0-17.363 12.024-29.537T177.37-521.5h452.891q17.452 0 29.476 11.963 12.024 11.964 12.024 29.326 0 17.363-12.024 29.537T630.261-438.5H177.37Zm0-167q-17.453 0-29.477-11.964-12.024-11.963-12.024-29.326 0-17.362 12.024-29.536Q159.917-688.5 177.37-688.5h452.891q17.452 0 29.476 11.963 12.024 11.963 12.024 29.326t-12.024 29.537Q647.713-605.5 630.261-605.5H177.37Zm605.058 334q-16.711 0-29.004-12-12.294-12-12.294-29.739 0-16.236 12.144-28.748 12.143-12.513 29.654-12.513 16.211 0 28.707 12.544 12.496 12.544 12.496 29.326t-12.496 28.956Q799.139-271.5 782.428-271.5Zm0-167q-16.711 0-29.004-11.846-12.294-11.845-12.294-29.356 0-16.211 12.144-29.005 12.143-12.793 29.654-12.793 16.211 0 28.707 12.793 12.496 12.794 12.496 29.505t-12.496 28.706Q799.139-438.5 782.428-438.5Zm0-166.761q-16.711 0-29.004-12-12.294-12-12.294-29.739 0-16.236 12.144-28.749 12.143-12.512 29.654-12.512 16.211 0 28.707 12.544 12.496 12.544 12.496 29.326t-12.496 28.956q-12.496 12.174-29.207 12.174Z"/></svg>