<svg xmlns="http://www.w3.org/2000/svg" height="20" viewBox="0 -960 960 960" width="20"><path d="M480-764.696q-81.891 81.848-130.717 140.576-48.826 58.729-75.065 107.576-8.435 16.153-24.088 21.631-15.652 5.478-31.804-.478-16.152-5.957-23.25-20.99-7.098-15.032.098-30.945 41.196-87.283 114.217-164.305 73.022-77.021 140.783-137.782 5.717-5.718 14.293-8.076 8.576-2.359 15.533-2.359 7.957 0 15.913 2.359 7.957 2.358 13.913 8.076 62.761 58.761 137.62 139.239 74.858 80.478 118.054 166.717 6.957 14.674 0 29.348-6.956 14.674-23.109 20.152-16.63 5.479-32.402-.358-15.772-5.837-24.207-21.989-26.239-49.087-75.184-107.816Q561.652-682.848 480-764.696Zm321.326 341.913q2.153 40.739-7.043 79.359t-27.022 73.446l-151 150q-34.826 17.826-73.326 26.402-38.5 8.576-78.24 6.663l336.631-335.87ZM576.869-408h114.24L383.696-101.587q-20.914-6.478-40.087-15.674-19.174-9.195-37.609-20.63L576.869-408Zm-210.434 0h114L253.978-181.543q-15.674-14.196-27.75-29.87-12.076-15.674-22.793-33.587l163-163ZM271-408l-96.218 96.218q-4.239-11.761-6.478-23.642-2.239-11.88-4.478-23.88-2.717-19.631 11.196-34.163Q188.935-408 208.804-408H271Zm209-72Z"/></svg>