<svg xmlns="http://www.w3.org/2000/svg" height="20" viewBox="0 -960 960 960" width="20"><path d="M651.826-353.261Zm0 0ZM779.294-78.526 81.337-776.453q-11.815-11.861-11.315-26.563.5-14.701 12.003-26.18 11.504-11.478 26.196-11.478 14.692 0 26.507 11.815l697.957 697.957q11.815 11.859 11.815 26.736t-11.503 25.992q-11.17 11.478-26.529 11.478t-27.174-11.83ZM651.826-353.26Zm0 0Zm0 265.392q-92.8 0-156.552-63.753-63.752-63.752-63.752-156.552v-92.652q0-28.152 6.837-54.804 6.837-26.653 19.511-50.087l157.435 157.435h-104.37v40.108q0 59.08 41.29 99.985 41.291 40.906 99.702 40.906 29.849 0 56.096-11.358Q734.27-190 753.348-210.239l56.261 56.261q-29.901 30.512-70.499 48.31-40.597 17.799-87.284 17.799Zm180.45-156.196q-16.634 0-28.096-11.313-11.463-11.312-11.463-28.035v-64.869h-70.63l-109.37-109.37v-80.978q-8.369 2.282-16.097 5.467-7.729 3.185-15.337 8.75-12.718 8-27.696 2.685-14.978-5.315-22.753-19.354-7.747-14.114-3.051-29.212 4.696-15.097 18.891-22.619 23.565-14.848 50.648-21.533 27.083-6.684 54.504-6.684 92.8 0 156.552 63.752 63.753 63.752 63.753 156.552v117.174q0 16.824-11.459 28.205-11.458 11.382-28.396 11.382ZM690.935-426.5h99.782q-6.521-41.326-33.108-71.369-26.587-30.044-66.674-41.761v113.13ZM405.348-558.239ZM170.87-183.869q-34.483 0-58.742-24.609T87.869-266.87v-426.26q0-32.109 22.226-56.12 22.227-24.011 54.318-26.163h23.761l82.283 82.283H170.87v426.26h146.195q17.452 0 29.476 11.964 12.024 11.963 12.024 29.326t-12.024 29.537q-12.024 12.174-29.476 12.174H170.87ZM353.5-693.13q-17.452 0-29.476-11.964Q312-717.057 312-734.42t12.024-29.537q12.024-12.174 29.476-12.174h477.13q17.453 0 29.477 11.964 12.024 11.963 12.024 29.326t-12.024 29.537q-12.024 12.174-29.477 12.174H353.5Zm101.196 77.695Z"/></svg>