<svg xmlns="http://www.w3.org/2000/svg" height="20" viewBox="0 -960 960 960" width="20"><path d="M314.09-210.5q-41.177 0-71.775-26.5-30.598-26.5-38.032-66.5-31.674-16.956-48.37-48.169-16.696-31.213-16.696-68.331 0-40.522 19.924-74.761t56.489-48.152L169.304-588l-7 6q-11 9-25 9.5t-25-10q-11-10.5-11-25t11-25.5l64-65q11-11 25.5-11t25.5 11q11 11 11 25.5t-11 25.5l-7 7 49.196 49.196L295.978-670q11.799-35.542 41.575-57.521 29.775-21.979 67.164-21.979h152q36.947 0 66.485 22.174 29.537 22.174 42.494 57.326l37.326 114.217q51.717 5.435 85.456 44.511 33.74 39.076 33.74 91.272 0 37.33-16.591 68.721-16.591 31.391-48.475 48.257-8.195 40-38.824 66.261Q687.7-210.5 647.283-210.5q-35.024 0-63.349-19.88-28.325-19.881-40.282-52.12H417.783q-11.957 32.239-40.301 52.12-28.345 19.88-63.392 19.88Zm28.214-347h102.413v-112.587h-38.804q-11 0-20.5 6.5t-13.5 17.5L342.304-557.5Zm174.413 0H619.13l-29.608-88.587q-4-11-13.5-17.5t-20.5-6.5h-38.805V-557.5Zm-98.934 195.587h125.869q12.718-33.239 40.854-52.62 28.137-19.38 62.677-19.38 26.299 0 48.058 11.261t39.237 31.022q4.522-6.522 6.424-13.716 1.902-7.194 1.902-14.654 0-23.961-17.063-41.024-17.063-17.063-41.024-17.063h-408q-23.96 0-41.023 17.063Q218.63-443.961 218.63-420q0 7.542 2.022 14.814 2.022 7.273 6.544 14.034 17.478-19.761 39.13-31.261 21.651-11.5 48.297-11.5 34.007 0 61.725 19.38 27.717 19.381 41.435 52.62Zm-103.841 75.826q15.21 0 25.71-10.289 10.5-10.29 10.5-25.5 0-15.211-10.289-25.711-10.29-10.5-25.5-10.5-15.211 0-25.711 10.29-10.5 10.289-10.5 25.5 0 15.21 10.29 25.71 10.289 10.5 25.5 10.5Zm333.13 0q15.211 0 25.711-10.289 10.5-10.29 10.5-25.5 0-15.211-10.29-25.711-10.289-10.5-25.5-10.5-15.21 0-25.71 10.29-10.5 10.289-10.5 25.5 0 15.21 10.289 25.71 10.29 10.5 25.5 10.5ZM480.717-432Z"/></svg>