<svg xmlns="http://www.w3.org/2000/svg" height="20" viewBox="0 -960 960 960" width="20"><path d="M713.087-438.5H177.37q-17.453 0-29.477-11.963-12.024-11.964-12.024-29.326 0-17.363 12.024-29.537T177.37-521.5h535.717l-50.261-50.022q-12.674-12.674-12.794-29.565-.119-16.891 12.555-30.044 12.674-12.434 29.446-12.195 16.771.239 29.684 12.913l121.587 121.587q12.435 12.31 12.435 28.644 0 16.334-12.435 29.008L721.717-329.587q-12.913 12.913-29.065 12.413t-28.826-12.695q-12.674-13.153-12.674-30.091 0-16.939 12.674-29.279l49.261-49.261Z"/></svg>