<svg xmlns="http://www.w3.org/2000/svg" height="20" viewBox="0 -960 960 960" width="20"><path d="m295.152-523.5 27.935 27.935q12.913 12.913 12.794 29.446-.12 16.532-13.033 29.445t-29.446 12.913q-16.532 0-29.445-12.913l-99.16-99.399q-12.536-12.536-12.536-29.109t12.674-28.883l99.261-99.261q12.913-12.913 29.445-12.913 16.533 0 29.446 12.913T336-663.881q0 16.533-12.913 29.446L295.152-606.5h275.583q34.147 0 58.456 24.378Q653.5-557.743 653.5-523.5v298.13q0 17.453-11.963 29.477-11.964 12.024-29.326 12.024-17.363 0-29.537-12.024T570.5-225.37V-523.5H295.152Z"/></svg>