<svg xmlns="http://www.w3.org/2000/svg" height="20" viewBox="0 -960 960 960" width="20"><path d="m263.587-231.869-26.565 79.934q-2.278 6.578-7.974 10.963-5.695 4.385-13.271 4.385h-6.494q-10.153 0-16.468-6.315-6.315-6.315-6.315-16.468v-79.434l-14.913 6.935q-34.722 0-59.22-24.259-24.498-24.259-24.498-58.742v-378.021q0-34.483 24.259-58.742 24.259-24.258 58.742-24.258h618.26q34.483 0 58.742 24.258 24.259 24.259 24.259 58.742v378.207q0 33.597-24.348 57.586-24.348 23.989-59.131 25.229l-15.152-6.935v80.674q0 8.579-6.291 15.061-6.292 6.482-15.443 6.482h-8.007q-7.103 0-12.723-4.401-5.619-4.402-8.058-10.947l-26.565-79.934H263.587ZM170.87-314.87h618.26v-378.021H170.87v378.021ZM480-503.761Z"/></svg>