<svg xmlns="http://www.w3.org/2000/svg" height="20" viewBox="0 -960 960 960" width="20"><path d="M288.913-378.065q-17.452 0-29.476-11.963-12.024-11.964-12.024-29.326 0-17.363 12.024-29.537t29.476-12.174h103.739q17.452 0 29.476 11.963 12.024 11.964 12.024 29.327 0 17.362-12.024 29.536-12.024 12.174-29.476 12.174H288.913Zm0-161q-17.452 0-29.476-11.964-12.024-11.963-12.024-29.326 0-17.362 12.024-29.536 12.024-12.174 29.476-12.174h390.783q17.452 0 29.476 11.963 12.024 11.964 12.024 29.326 0 17.363-12.024 29.537t-29.476 12.174H288.913Zm0-161q-17.452 0-29.476-11.964-12.024-11.963-12.024-29.326t12.024-29.537q12.024-12.174 29.476-12.174h390.783q17.452 0 29.476 11.964 12.024 11.963 12.024 29.326t-12.024 29.537q-12.024 12.174-29.476 12.174H288.913Zm363.692 451.043q-8.157 0-15.533-3.478-7.376-3.478-13.094-9.196L522.87-362.804Q510.674-375 510.555-390.793q-.12-15.794 12.076-27.989 12.195-12.196 28.656-12.196 16.46 0 28.322 12.196l73.196 72.956 181.999-182q11.863-12.196 28.323-11.815 16.46.38 29.134 12.576 11.957 12.196 11.837 28.728-.12 16.533-12.315 28.729L682.87-261.696q-5.718 5.718-13.913 9.196-8.196 3.478-16.352 3.478ZM129.58-700.065q-17.363 0-29.537-11.964-12.174-11.963-12.174-29.326t11.964-29.537q11.963-12.174 29.326-12.174t29.537 11.964q12.174 11.963 12.174 29.326t-11.964 29.537q-11.963 12.174-29.326 12.174Zm0 161q-17.363 0-29.537-11.964-12.174-11.963-12.174-29.326 0-17.362 11.964-29.536 11.963-12.174 29.326-12.174t29.537 11.963q12.174 11.964 12.174 29.326 0 17.363-11.964 29.537-11.963 12.174-29.326 12.174Zm0 161q-17.363 0-29.537-11.963-12.174-11.964-12.174-29.326 0-17.363 11.964-29.537 11.963-12.174 29.326-12.174t29.537 11.963q12.174 11.964 12.174 29.327 0 17.362-11.964 29.536-11.963 12.174-29.326 12.174Z"/></svg>