<svg xmlns="http://www.w3.org/2000/svg" height="20" viewBox="0 -960 960 960" width="20"><path d="M872.131-741.13v406.606q0 20.99-12.935 31.485-12.935 10.495-28.457 10.495t-28.565-10.415q-13.044-10.415-13.044-30.846V-741.13H358.285q-21.23 0-31.606-12.99-10.375-12.989-10.375-28.576t10.375-28.511q10.376-12.924 31.126-12.924H789.13q33.783 0 58.392 24.609t24.609 58.392Zm-727.392-74.131 74.131 74.131h-48v426.26h367.478L77.174-775.804q-11.718-11.718-11.598-26.316.12-14.597 11.598-26.076 11.717-11.717 26.815-11.717t26.815 11.717l698.631 698.631q11.717 11.717 11.598 26.195-.12 14.479-11.837 26.196Q817.478-65.456 803-65.456q-14.478 0-26.196-11.718L626.87-225.869h1.434v48.499q0 17.453-12.012 29.477-12.012 12.024-29.447 12.024H373.479q-17.436 0-29.609-12.024-12.174-12.024-12.174-29.477v-54.499H170.87q-33.783 0-58.392-24.609T87.869-314.87v-426.521q0-36.429 28.435-55.149l28.435-18.721Zm229.87 336.652Zm177.782-34.782Z"/></svg>