<svg xmlns="http://www.w3.org/2000/svg" height="20" viewBox="0 -960 960 960" width="20"><path d="M295.314-297.5q-8.178 0-15.692-3.098-7.513-3.098-13.231-8.815l-99.261-99.261Q154.456-421.348 154.956-438t13.174-29.326Q180.804-480 197.456-480q16.653 0 29.326 12.674l27.174 28.174v-112.37q0-93.587 65.511-159.098 65.511-65.511 159.098-65.511 93.587 0 159.098 65.511 65.511 65.511 65.511 159.098v364.826q0 17.452-11.963 29.476-11.964 12.024-29.327 12.024-17.362 0-29.536-12.024-12.174-12.024-12.174-29.476v-364.826q0-59.282-41.163-100.445T478.565-693.13q-59.282 0-100.445 41.163t-41.163 100.445v112.37l28.652-28.413q12.674-12.435 28.848-11.816 16.173.62 29.087 13.294 12.913 12.674 12.913 29.206 0 16.533-12.674 29.207l-99.131 97.916q-6.133 6.062-13.647 9.16t-15.691 3.098Z"/></svg>