<svg xmlns="http://www.w3.org/2000/svg" height="20" viewBox="0 -960 960 960" width="20"><path d="m480-295.348-82.174 82.174Q385.152-200.5 368.5-200.5t-29.326-12.674Q326.5-225.848 326.5-242.5t12.674-29.326l111.761-111.761q5.717-5.717 13.413-8.815Q472.043-395.5 480-395.5q7.957 0 15.652 3.098 7.696 3.098 13.413 8.815l111.761 111.761Q633.5-259.152 633.5-243t-12.674 28.826Q608.152-201.5 591.5-201.5t-29.326-12.674L480-295.348Zm0-369.304 82.174-82.174Q574.848-759.5 591.5-759.5t29.326 12.674Q633.5-734.152 633.5-717.5t-12.674 29.326L509.065-576.413q-5.717 5.717-13.413 8.815Q487.957-564.5 480-564.5q-7.957 0-15.652-3.098-7.696-3.098-13.413-8.815L339.174-688.174Q326.5-700.848 327-717.5t13.174-29.326Q352.848-759.5 369.5-759.5t29.326 12.674L480-664.652Z"/></svg>