<svg xmlns="http://www.w3.org/2000/svg" height="20" viewBox="0 -960 960 960" width="20"><path d="m480-110.761-84.326 84.326q-11.957 11.718-27.294 11.598-15.337-.12-27.054-11.837-11.717-11.956-11.717-27.294 0-15.336 11.717-27.054l109.33-109.33q5.996-5.996 13.492-9.094 7.495-3.098 15.652-3.098t15.652 3.098q7.496 3.098 13.613 8.816L618.913-80.783q11.957 11.957 11.837 26.794-.12 14.837-11.598 26.554-12.195 11.718-27.699 11.718-15.504 0-26.888-11.718L480-110.76Zm0-191.761-84.326 84.326q-11.957 11.718-27.294 11.598-15.337-.119-27.054-11.837-11.717-11.956-11.717-27.293t11.717-27.055l109.33-109.33q5.996-5.996 13.492-9.094 7.495-3.097 15.652-3.097t15.652 3.097q7.496 3.098 13.613 8.816l109.848 109.847q11.957 11.957 11.837 26.794-.12 14.837-11.598 26.554-12.195 11.718-27.699 11.718-15.504 0-26.888-11.718L480-302.522Zm0-354.956 84.326-84.326q11.145-11.479 26.768-11.479 15.623 0 27.341 11.407 11.717 11.407 11.717 27.174t-11.717 27.485l-109.331 109.13q-5.995 5.957-13.491 9.054-7.496 3.098-15.652 3.098-8.157 0-15.652-3.098-7.496-3.097-13.613-8.815l-109.37-109.369q-11.717-11.384-11.217-27.008.5-15.623 12.217-27.34 11.717-11.718 27.221-11.598 15.504.12 26.888 11.598L480-657.478ZM480-849l84.326-84.326q11.145-11.478 26.768-11.478 15.623 0 27.341 11.407 11.717 11.406 11.717 27.173 0 15.768-11.717 27.485L509.104-769.608q-5.995 5.956-13.491 9.054-7.496 3.098-15.652 3.098-8.157 0-15.652-3.098-7.496-3.098-13.613-8.816l-109.37-109.369q-11.717-11.384-11.217-27.007.5-15.624 12.217-27.341t27.221-11.598q15.504.12 26.888 11.598L480-849Z"/></svg>