<svg xmlns="http://www.w3.org/2000/svg" height="20" viewBox="0 -960 960 960" width="20"><path d="M479.788-88.587q-31.223 0-53.299-22.345-22.076-22.346-22.076-53.481 0-20.005 9.38-36.981 9.381-16.976 26.62-26.693v-100.5H324q-32.809 0-56.111-23.193t-23.302-55.848v-80.22q-17-9.956-26.5-26.935-9.5-16.978-9.5-37.217 0-31.374 22.408-53.48 22.408-22.107 53.63-22.107 31.462 0 53.418 22.107Q360-583.374 360-552q0 20.478-9.5 37.457-9.5 16.978-26.5 26.456V-408h116.413v-312h-44.326q-12.413 0-18.261-11.935-5.848-11.935 3.2-22.429l82.822-99.332q6.264-8.195 16.306-8.195 10.042 0 15.998 8.195l82.822 99.332q9.048 10.494 3.2 22.429Q576.326-720 563.913-720h-44.326v312H636v-68.413h-15.37q-9.195 0-14.913-5.837Q600-488.087 600-497.283v-109.674q0-9.195 5.837-14.913 5.837-5.717 15.033-5.717h109.913q9.195 0 14.913 5.837 5.717 5.837 5.717 15.033v109.674q0 9.195-5.717 14.913-5.718 5.717-14.913 5.717h-15.37V-408q0 32.809-23.302 56.111T636-328.587H519.587v100.022q17.1 10.065 26.55 26.94 9.45 16.874 9.45 37.153 0 31.494-22.288 53.69-22.289 22.195-53.511 22.195Z"/></svg>