<svg xmlns="http://www.w3.org/2000/svg" height="20" viewBox="0 -960 960 960" width="20"><path d="M480-88.587q-31.435 0-53.511-22.195-22.076-22.196-22.076-53.631 0-20.478 9.38-36.717 9.381-16.24 26.62-26.957v-100.5H324q-33.109 0-56.261-23.152T244.587-408v-79.848q-17-9.956-26.5-26.935-9.5-16.978-9.5-37.217 0-18.196 8.717-34.772 8.718-16.576 23.674-28.054L104.913-750.891q-11.718-11.718-11.098-26.816.62-15.098 12.098-26.576 11.478-11.478 26.696-11.478 15.217 0 26.695 11.478l655.979 655.979q11.717 11.717 10.978 26.815-.739 15.098-12.217 25.576-11.479 11.478-26.696 11.478-15.217 0-26.696-11.478L528.218-328.587h-8.631v100.022q17 8.956 26.5 26.435 9.5 17.478 9.5 37.717 0 31.435-22.076 53.631Q511.435-88.587 480-88.587Zm271.413-518.13v109.434q0 9.435-5.837 15.153-5.837 5.717-15.272 5.717h-15.13v24.065q0 19.913-12.076 29.75t-27.511 9.837q-15.196 0-27.391-9.717Q636-432.196 636-452.109v-24.304h-15.37q-9.195 0-14.913-5.837Q600-488.087 600-497.283v-109.434q0-9.435 5.717-15.153 5.718-5.717 15.153-5.717h109.434q9.435 0 15.272 5.717 5.837 5.718 5.837 15.153ZM324-408h116.413v-18.63L348-509.804q-5 6-11 11.739-6 5.739-13 9.978V-408Zm116.413-312h-44.326q-12.913 0-18.511-11.935-5.598-11.935 3.359-22.369l82.674-99.392q2.239-3.239 16.391-8.195 4.717 0 9.315 1.858 4.598 1.859 7.076 6.337l82.435 98.913q7.957 10.435 2.739 22.609Q576.348-720 563.435-720h-43.848v66.152q0 19.913-12.076 29.63Q495.435-614.5 480-614.5q-15.196 0-27.391-9.718-12.196-9.717-12.196-29.63V-720Z"/></svg>