<svg xmlns="http://www.w3.org/2000/svg" height="20" viewBox="0 -960 960 960" width="20"><path d="m438.5-219.695-23.391 23.391q-12.435 12.435-28.609 12.435t-29.326-13.152Q344.5-209.695 344.5-226.348q0-16.652 12.674-29.326l93.631-93.361q6.133-6.117 13.647-9.215t15.691-3.098q8.177 0 15.691 3.098 7.514 3.098 13.231 8.815l93.761 93.761Q615.5-243 615.381-226.728q-.12 16.272-13.272 29.424-12.435 12.435-28.609 12.435t-28.609-12.435L521.5-219.695v117.326q0 17.452-11.963 29.476-11.964 12.024-29.326 12.024-17.363 0-29.537-12.024T438.5-102.37v-117.326ZM225.661-426.5q-17.444 0-29.618-11.963-12.174-11.964-12.174-29.326 0-17.363 12.019-29.537Q207.906-509.5 225.35-509.5h508.989q17.444 0 29.618 11.963 12.174 11.964 12.174 29.326 0 17.363-12.019 29.537Q752.094-426.5 734.65-426.5H225.661ZM438.5-740.305v-101.611q0-17.331 11.963-29.273 11.964-11.942 29.326-11.942 17.363 0 29.537 11.942t12.174 29.273v101.611l23.391-23.391q12.435-12.435 28.609-12.435t29.326 13.152q12.674 12.674 12.674 29.327 0 16.652-12.674 29.326l-93.631 93.361q-6.133 6.117-13.647 9.215t-15.691 3.098q-8.177 0-15.691-3.098-7.514-3.098-13.231-8.815l-93.761-93.761Q344.5-717 345.119-733.772q.62-16.772 13.772-29.924 12.435-12.435 28.609-12.435t28.609 12.435l22.391 23.391Z"/></svg>