<svg xmlns="http://www.w3.org/2000/svg" height="20" viewBox="0 -960 960 960" width="20"><path d="M284.413-332.413h295.174v-22.674q0-39.779-40.676-64.346T432-444q-65.435 0-106.511 24.567-41.076 24.567-41.076 64.346v22.674ZM432.496-480q30.452 0 51.934-21.978 21.483-21.979 21.483-52.431 0-30.452-21.483-51.815-21.482-21.363-51.934-21.363-30.453 0-52.431 21.363-21.978 21.363-21.978 51.815 0 30.452 21.978 52.431Q402.043-480 432.496-480ZM218.87-183.869q-33.783 0-58.392-24.609t-24.609-58.392v-426.26q0-34.483 24.609-58.742t58.392-24.259h426.26q34.483 0 58.742 24.259t24.259 58.742V-528l108.217-108.217q9.196-9.196 22.489-4.312 13.294 4.884 13.294 18.225v284.485q0 13.797-13.294 18.515-13.293 4.717-22.489-4.479L728.131-432v165.13q0 33.783-24.259 58.392t-58.742 24.609H218.87Zm0-83.001h426.26v-426.26H218.87v426.26Zm0 0v-426.26 426.26Z"/></svg>