<svg xmlns="http://www.w3.org/2000/svg" height="20" viewBox="0 -960 960 960" width="20"><path d="M312-384h240q20.4 0 34.2-13.8Q600-411.6 600-432v-86l78.609 70.609q5.717 4.717 11.554 2.077Q696-447.955 696-455.348v-193.304q0-7.393-5.837-10.034-5.837-2.64-11.554 2.077L600-586v-86q0-20.4-13.8-34.2Q572.4-720 552-720H312q-20.4 0-34.2 13.8Q264-692.4 264-672v240q0 20.4 13.8 34.2Q291.6-384 312-384Zm-80.131 152.131-73.317 73.317q-19.748 19.748-45.215 8.981-25.468-10.766-25.468-38.451V-789.13q0-34.483 24.259-58.742t58.742-24.259h618.26q34.483 0 58.742 24.259t24.259 58.742v474.26q0 34.483-24.259 58.742t-58.742 24.259H231.869Zm-30-83.001H789.13v-474.26H170.87v505.499l30.999-31.239Zm-30.999 0v-474.26 474.26Z"/></svg>