<svg xmlns="http://www.w3.org/2000/svg" height="20" viewBox="0 -960 960 960" width="20"><path d="M480.042-389.022q-37.89 0-64.455-26.523-26.565-26.523-26.565-64.413t26.523-64.455q26.523-26.565 64.413-26.565t64.455 26.523q26.565 26.523 26.565 64.413t-26.523 64.455q-26.523 26.565-64.413 26.565ZM480-184.587q-132.627 0-246.987-70.076Q118.652-324.739 58.5-443.456q-4.478-8.726-6.598-17.829t-2.12-18.742q0-9.639 2.12-18.715t6.598-17.802q60.152-118.717 174.513-188.793Q347.373-775.413 480-775.413q117.223 0 217.72 53.532 100.498 53.533 167.454 145.924 9.717 13.196 6.239 28.392-3.478 15.195-17.793 23.913-14.316 8.717-30.346 4.402-16.031-4.315-26.035-17.315-55.761-75-139-117.218Q575-696 480.11-696q-111.871 0-206.632 58.12Q178.717-579.761 127.717-480q51 99.761 145.776 157.88Q368.268-264 480-264q14.283 0 28.565-1.19 14.283-1.19 28.565-3.571 16.074-2 27.95 8.025 11.877 10.025 11.877 25.084 0 18.913-11.077 32.109-11.076 13.195-28.75 15.195-14.282 1.881-28.565 2.821-14.282.94-28.565.94ZM480-312q26.994 0 52.148-8.252 25.154-8.251 45.526-22.705 2.717-41.608 21.12-72.934 18.402-31.326 48.728-52.763.478-3.281.478-5.796V-480q0-70-49-119t-119-49q-70 0-119 49t-49 119q0 70 49 119t119 49Zm-6.804-168Zm199.761 340.544q-10.2 0-17.1-6.9-6.9-6.9-6.9-17.1v-144q0-10 7-17.5t17-6.5h24v-48q0-29.7 21.212-50.85 21.212-21.15 51-21.15t50.788 21.15q21 21.15 21 50.85v48h24q10.2 0 17.1 6.9 6.9 6.9 6.9 17.1v144q0 10.2-6.9 17.1-6.9 6.9-17.1 6.9h-192Zm60-192h72v-48q0-15.3-10.29-25.65-10.289-10.35-25.5-10.35-15.21 0-25.71 10.35t-10.5 25.65v48Z"/></svg>