<svg xmlns="http://www.w3.org/2000/svg" height="20" viewBox="0 -960 960 960" width="20"><path d="M247.304-322.869q-70.288 0-118.09-51.864-47.801-51.863-47.801-124.739t51.314-124.267q51.314-51.392 124.619-51.392 73.306 0 124.697 51.372Q433.435-572.388 433.435-499q0 25.92-7.641 50.279-7.642 24.358-21.642 46.438h151.696q-14-22.08-21.642-46.438-7.641-24.359-7.641-50.279 0-73.388 51.363-124.759 51.364-51.372 124.74-51.372t124.647 51.364q51.272 51.363 51.272 124.739 0 72.376-47.301 124.267-47.302 51.892-117.59 51.892H247.304Zm9.852-83.001q38.953 0 66.116-26.944 27.163-26.944 27.163-65.967 0-39.023-26.938-66.186-26.938-27.163-65.89-27.163t-66.073 27.057q-27.121 27.057-27.121 65.848 0 38.79 26.896 66.073 26.895 27.282 65.847 27.282Zm445.237 0q38.952 0 66.073-27.057 27.121-27.057 27.121-65.848 0-38.79-26.896-66.073-26.895-27.282-65.847-27.282-38.953 0-66.116 26.944-27.163 26.944-27.163 65.967 0 39.023 26.938 66.186 26.938 27.163 65.89 27.163Z"/></svg>