<svg xmlns="http://www.w3.org/2000/svg" height="20" viewBox="0 -960 960 960" width="20"><path d="m448.87-536.63-25.044-24.044q-11.478-11.478-25.956-11.478-14.479 0-25.957 11.478-11.478 11.478-11.478 26.457 0 14.978 11.478 26.456l46.891 47.891q12.674 12.674 29.566 12.674 16.891 0 29.565-12.674L590-573.174q11.478-11.478 11.359-25.837-.12-14.359-11.598-25.837-11.478-11.478-25.837-11.478t-25.837 11.478L448.87-536.63ZM480-197.457q117.326-105.087 177.228-192.097 59.902-87.011 59.902-160.403 0-103.326-67.663-171.249Q581.804-789.13 480-789.13q-101.804 0-169.467 67.924-67.663 67.923-67.663 171.249 0 73.392 59.902 160.283Q362.674-302.783 480-197.457Zm0 85.153q-13.957 0-26.294-4.739-12.336-4.739-24.054-14.218-41.435-35.717-88.891-82.956-47.457-47.239-88.055-101.718-40.597-54.478-66.717-114.054-26.12-59.576-26.12-119.968 0-137.347 91.511-229.761 91.511-92.413 228.62-92.413 136.109 0 228.12 92.413 92.011 92.414 92.011 229.761 0 60.392-26.62 120.468t-66.717 114.554q-40.098 54.479-87.555 101.218-47.456 46.739-88.891 82.456-11.718 9.479-24.054 14.218-12.337 4.739-26.294 4.739ZM480-552Z"/></svg>