<svg xmlns="http://www.w3.org/2000/svg" height="20" viewBox="0 -960 960 960" width="20"><path d="M722.391-236.652h43.218v-43.217h-43.218v43.217Zm0-96h43.218v-43.217h-43.218v43.217Zm96 96h43.218v-43.217h-43.218v43.217Zm-100.065 52.783q-20.299 0-34.508-14.21-14.209-14.209-14.209-34.508v-147.348q0-20.299 14.209-34.508 14.209-14.209 34.508-14.209h51.348q20.299 0 34.508 14.209 14.209 14.209 14.209 34.508v47.283h47.283q20.299 0 34.508 14.209 14.209 14.209 14.209 34.508v51.348q0 20.299-14.209 34.508-14.209 14.21-34.508 14.21H718.326ZM479.943-820.065q116.268 0 220.152 36.38 103.883 36.381 190.927 100.496 15.616 11.577 23.099 26.996 7.484 15.42 8.605 32.502 1.122 17.082-4.856 34.495-5.979 17.414-18.696 31.087l-54.435 54.196q-12.195 13.152-29.087 13.511-16.891.359-29.804-11.837t-13.392-28.348q-.478-16.152 11.718-29.065l55.717-57.196q-78.13-58.608-169.482-89.413-91.351-30.804-190.467-30.804-99.116 0-190.409 30.804-91.294 30.805-169.424 89.413L480-247.196l20.37-20.369q9.71-10.044 24.137-9.207 14.428.837 29.493 16.381 12.196 12.435 12.435 29.014.239 16.58-11.957 28.921l-20.369 20.369q-11.479 11.957-25.196 17.316-13.717 5.358-28.913 5.358t-28.794-5.478q-13.597-5.478-25.076-17.435L62.783-558.109q-12.957-13.673-19.055-30.363-6.098-16.689-4.858-33.826 1.239-17.137 8.695-32.869 7.457-15.732 21.892-27.811 87.043-64.566 190.63-100.826 103.587-36.261 219.856-36.261ZM480-492.13Z"/></svg>