<svg xmlns="http://www.w3.org/2000/svg" height="20" viewBox="0 -960 960 960" width="20"><path d="M406.565-134.87v-149.543h-59.021q-22.502 0-35.36-18.391-12.858-18.392-3.901-39.022l103.282-240.087q8.23-20.442 27.213-32.699Q457.761-626.87 480-626.87t41.222 12.258q18.983 12.257 27.213 32.699l103.282 240.087q8.957 20.812-3.701 39.113-12.658 18.3-35.56 18.3h-59.021v149.543q0 17.453-11.999 29.477-11.999 12.023-29.414 12.023h-63.694q-17.415 0-29.589-12.023-12.174-12.024-12.174-29.477Zm73.219-563.043q-36.219 0-61.795-25.792t-25.576-62.011q0-36.219 25.792-61.795t62.011-25.576q36.219 0 61.795 25.792t25.576 62.011q0 36.219-25.792 61.795t-62.011 25.576Z"/></svg>