<svg xmlns="http://www.w3.org/2000/svg" height="20" viewBox="0 -960 960 960" width="20"><path d="M236.413-135.869q-63.587 0-107.859-44.272Q84.282-224.413 84.282-288q0-63.587 44.272-107.859 44.272-44.272 107.859-44.272 63.587 0 107.739 44.272T388.304-288q0 63.587-44.152 107.859Q300-135.869 236.413-135.869Zm487.174 0q-63.587 0-107.739-44.272T571.696-288q0-63.587 44.152-107.859Q660-440.131 723.587-440.131t107.859 44.272Q875.718-351.587 875.718-288q0 63.587-44.272 107.859-44.272 44.272-107.859 44.272Zm-486.97-83.001q28.6 0 48.644-20.367 20.043-20.367 20.043-48.967 0-28.6-20.299-48.763-20.299-20.163-48.804-20.163-28.604 0-48.761 20.367-20.157 20.367-20.157 48.967 0 28.6 20.367 48.763 20.366 20.163 48.967 20.163Zm487.182 0q28.604 0 48.761-20.367 20.157-20.367 20.157-48.967 0-28.6-20.367-48.763-20.367-20.163-48.967-20.163-28.6 0-48.644 20.367-20.043 20.367-20.043 48.967 0 28.6 20.299 48.763 20.299 20.163 48.804 20.163ZM480-527.283q-63.587 0-107.859-44.271-44.272-44.272-44.272-107.859 0-63.587 44.272-107.739Q416.413-831.305 480-831.305q63.587 0 107.859 44.153Q632.131-743 632.131-679.413t-44.272 107.859Q543.587-527.283 480-527.283Zm.204-83q28.6 0 48.763-20.367 20.163-20.367 20.163-48.967 0-28.601-20.367-48.644t-48.967-20.043q-28.6 0-48.763 20.299-20.163 20.299-20.163 48.804 0 28.604 20.367 48.761 20.367 20.157 48.967 20.157Zm-.204-69.13ZM723.826-288Zm-487.413 0Z"/></svg>