<svg xmlns="http://www.w3.org/2000/svg" height="20" viewBox="0 -960 960 960" width="20"><path d="M225.357-502.826q-17.549 0-29.518-11.963-11.97-11.964-11.97-29.327 0-17.362 12.089-29.417 12.089-12.054 29.638-12.054H669.37q64.784 0 109.772 44.988 44.989 44.989 44.989 109.773 0 64.785-44.989 109.892-44.988 45.108-109.772 45.108h-85.022l20.739 20.739q10.044 12.196 9.207 27.174-.837 14.979-12.076 26.457-13.392 12.913-30.642 13.391-17.25.478-30.163-12.435l-87.761-87.76q-6.172-5.818-9.042-12.844-2.871-7.026-2.871-16.222 0-9.195 2.871-16.222 2.87-7.026 9.042-12.843l88.239-88q12.913-12.913 29.544-12.196 16.63.718 30.022 13.631 11.239 11.478 11.956 26.337.718 14.858-9.326 27.054l-20.739 20.739h86.022q29.828 0 50.914-21.121 21.086-21.121 21.086-51t-21.086-50.879q-21.086-21-50.914-21H225.357Zm.013 227q-17.453 0-29.477-11.963-12.024-11.964-12.024-29.326 0-17.363 12.024-29.537t29.477-12.174h116.891q17.452 0 29.476 11.964 12.024 11.963 12.024 29.326 0 17.362-12.024 29.536-12.024 12.174-29.476 12.174H225.37Zm.052-453.761q-17.444 0-29.498-11.963-12.055-11.964-12.055-29.327 0-17.362 12.019-29.417 12.018-12.054 29.462-12.054h509.228q17.444 0 29.498 11.844 12.055 11.844 12.055 29.206 0 17.363-12.019 29.537-12.018 12.174-29.462 12.174H225.422Z"/></svg>