<svg xmlns="http://www.w3.org/2000/svg" height="20" viewBox="0 -960 960 960" width="20"><path d="M87.87-761.5v-75.63q0-34.896 24.108-59.448 24.109-24.553 58.892-23.553h75.63q17.452 0 29.476 11.964Q288-896.204 288-878.841t-12.024 29.537Q263.952-837.13 246.5-837.13h-75.63v75.63q0 17.452-11.964 29.476Q146.943-720 129.58-720t-29.537-12.024Q87.869-744.048 87.869-761.5Zm83 625.631q-34.483 0-58.742-24.259T87.869-218.87v-75.63q0-17.452 11.964-29.476Q111.796-336 129.159-336t29.537 12.024q12.174 12.024 12.174 29.476v75.63h75.63q17.452 0 29.476 11.964Q288-194.943 288-177.58t-12.024 29.537q-12.024 12.174-29.476 12.174h-75.63ZM789.13-761.5v-75.63H713.5q-17.452 0-29.476-11.964Q672-861.057 672-878.42t12.024-29.537q12.024-12.174 29.476-12.174h75.63q34.483 0 58.742 24.259t24.259 58.742v75.63q0 17.452-11.964 29.476Q848.204-720 830.841-720t-29.537-12.024Q789.13-744.048 789.13-761.5ZM527.035-603.587q-36.426 0-62.002-25.824-25.577-25.824-25.577-62.25t25.824-61.883Q491.104-779 527.53-779q36.427 0 61.883 25.704 25.457 25.704 25.457 62.131 0 36.426-25.705 62.002-25.704 25.576-62.13 25.576Zm-177.818 314.87L385.022-470.5l-72.783 31.37v65.217q0 16.735-11.365 28.161-11.366 11.426-28.011 11.426-16.646 0-28.341-11.546-11.696-11.545-11.696-28.28v-89.935q0-12.913 7.034-23.056 7.035-10.143 18.792-15.444L389.37-556.87q19.717-8 36.456-15.239 16.739-7.239 36.978-7.239 24.196 0 46.674 12.218 22.479 12.217 35.196 32.934l35.478 56q9.283 14.566 20.946 26.468 11.663 11.902 26.75 20.184l-34.587 63.457q-18.848-10.804-34.794-24.989-15.945-14.185-28.51-31.272L503.87-288.717H349.217ZM574-87.869q-29.109 0-44.783-25.131-15.674-25.13 0-51l171-293.239q14.196-26.109 43.544-25.511 29.348.598 44.022 25.75l171 293q15.195 25.87-.12 51T914-87.87H574Zm170-71.522q11.035 0 19.311-8.276t8.276-19.311q0-11.035-8.276-19.311T744-214.565q-11.035 0-19.311 8.276t-8.276 19.311q0 11.035 8.276 19.311T744-159.391Zm0-103.652q11.035 0 19.311-8.277 8.276-8.276 8.276-19.31v-42.74q0-11.034-8.276-19.31-8.276-8.277-19.311-8.277t-19.311 8.277q-8.276 8.276-8.276 19.31v42.74q0 11.034 8.276 19.31 8.276 8.277 19.311 8.277Z"/></svg>