<svg xmlns="http://www.w3.org/2000/svg" height="20" viewBox="0 -960 960 960" width="20"><path d="m307.696-248.804-82.674 82.674q-12.913 12.913-28.826 12.293-15.913-.619-28.826-13.533-12.914-12.913-12.914-29.445 0-16.533 12.914-29.446l81.434-81.435H225.37q-17.453 0-29.477-11.963-12.024-11.963-12.024-29.326t12.024-29.537q12.024-12.174 29.477-12.174h123.826q17.452 0 29.476 12.024 12.024 12.024 12.024 29.476v123.826q0 17.453-11.964 29.477-11.963 12.024-29.326 12.024t-29.536-12.024q-12.174-12.024-12.174-29.477v-23.434Zm344.608 0v23.434q0 17.453-11.963 29.477-11.963 12.024-29.326 12.024t-29.537-12.024q-12.174-12.024-12.174-29.477v-123.826q0-17.452 12.024-29.476 12.024-12.024 29.476-12.024H734.63q17.453 0 29.477 11.964 12.024 11.963 12.024 29.326t-12.024 29.536q-12.024 12.174-29.477 12.174h-23.434l82.674 82.674q12.913 12.913 12.913 28.826T793.87-167.37q-12.913 12.914-29.446 12.914t-29.446-12.914l-82.674-81.434Zm-403.5-403.5-82.674-82.674q-12.913-12.913-12.293-29.446.619-16.533 13.533-29.446 12.913-12.913 29.445-12.913 16.533 0 29.446 12.913l81.435 82.674v-23.434q0-17.453 11.963-29.477 11.963-12.024 29.326-12.024t29.537 12.024q12.174 12.024 12.174 29.477v123.826q0 17.452-12.024 29.476-12.024 12.024-29.476 12.024H225.37q-17.453 0-29.477-11.964-12.024-11.963-12.024-29.326t12.024-29.536q12.024-12.174 29.477-12.174h23.434Zm462.392 0h23.434q17.453 0 29.477 11.963 12.024 11.963 12.024 29.326t-12.024 29.537q-12.024 12.174-29.477 12.174H610.804q-17.452 0-29.476-12.024-12.024-12.024-12.024-29.476V-734.63q0-17.453 11.964-29.477 11.963-12.024 29.326-12.024t29.536 12.024q12.174 12.024 12.174 29.477v23.434l82.674-82.674q12.913-12.913 29.446-12.913t29.446 12.913q12.913 12.913 12.913 29.446t-12.913 29.446l-82.674 82.674Z"/></svg>