<svg xmlns="http://www.w3.org/2000/svg" height="40" viewBox="0 -960 960 960" width="40"><path d="M480.053-729.334q-31.053 0-53.22-22.113-22.166-22.114-22.166-53.167t22.113-53.219Q448.894-880 479.947-880t53.22 22.114q22.166 22.113 22.166 53.166 0 31.053-22.113 53.22-22.114 22.166-53.167 22.166ZM368-113.333v-495.334H153.333q-14.166 0-23.75-9.617Q120-627.901 120-642.117q0-14.216 9.583-23.716 9.584-9.5 23.75-9.5h653.334q14.166 0 23.75 9.617Q840-656.099 840-641.883q0 14.216-9.583 23.716-9.584 9.5-23.75 9.5H592v495.334q0 14.166-9.617 23.75Q572.766-80 558.55-80q-14.217 0-23.717-9.583-9.5-9.584-9.5-23.75v-220.001h-90.666v220.001q0 14.166-9.617 23.75Q415.433-80 401.216-80 387-80 377.5-89.583q-9.5-9.584-9.5-23.75Z"/></svg>