<svg xmlns="http://www.w3.org/2000/svg" height="40" viewBox="0 -960 960 960" width="40"><path d="M350.666-653.335q-14.166 0-23.749-9.617-9.584-9.617-9.584-23.833 0-14.216 9.584-23.716 9.583-9.5 23.749-9.5h258.668q14.166 0 23.749 9.617 9.584 9.617 9.584 23.833 0 14.216-9.584 23.716-9.583 9.5-23.749 9.5H350.666ZM266.666-40q-27 0-46.833-19.833T200-106.666v-746.668q0-27 19.833-46.833T266.666-920h426.668q27 0 46.833 19.833T760-853.334v746.668q0 27-19.833 46.833T693.334-40H266.666Zm0-99.999v33.333h426.668v-33.333H266.666Zm0-66.667h426.668v-546.668H266.666v546.668Zm0-613.335h426.668v-33.333H266.666v33.333Zm0 0v-33.333 33.333Zm0 680.002v33.333-33.333Z"/></svg>