<svg xmlns="http://www.w3.org/2000/svg" height="40" viewBox="0 -960 960 960" width="40"><path d="M733.334-472.666v-294.001q0-14.166 9.617-23.75Q752.568-800 766.784-800q14.216 0 23.716 9.583 9.5 9.584 9.5 23.75v294.001q0 14.166-9.617 23.749-9.617 9.584-23.833 9.584-14.216 0-23.716-9.584-9.5-9.583-9.5-23.749ZM160-193.333v-573.334q0-14.166 9.617-23.75Q179.234-800 193.45-800q14.216 0 23.716 9.583 9.5 9.584 9.5 23.75v573.334q0 14.166-9.617 23.75Q207.432-160 193.216-160 179-160 169.5-169.583q-9.5-9.584-9.5-23.75ZM446.667-682v-84.667q0-14.166 9.617-23.75Q465.901-800 480.117-800q14.216 0 23.716 9.583 9.5 9.584 9.5 23.75V-682q0 14.167-9.617 23.75t-23.833 9.583q-14.216 0-23.716-9.583-9.5-9.583-9.5-23.75Zm0 244v-84.667q0-14.166 9.617-23.75Q465.901-556 480.117-556q14.216 0 23.716 9.583 9.5 9.584 9.5 23.75V-438q0 14.167-9.617 23.75t-23.833 9.583q-14.216 0-23.716-9.583-9.5-9.583-9.5-23.75Zm0 244.667v-85.334q0-14.166 9.617-23.749Q465.901-312 480.117-312q14.216 0 23.716 9.584 9.5 9.583 9.5 23.749v85.334q0 14.166-9.617 23.75Q494.099-160 479.883-160q-14.216 0-23.716-9.583-9.5-9.584-9.5-23.75ZM733.334-160h-86.667q-14.167 0-23.75-9.617t-9.583-23.833q0-14.216 9.583-23.716 9.583-9.5 23.75-9.5h86.667v-86.667q0-14.167 9.617-23.75t23.833-9.583q14.216 0 23.716 9.583 9.5 9.583 9.5 23.75v86.667h86.667q14.166 0 23.75 9.617Q920-207.432 920-193.216q0 14.216-9.583 23.716-9.584 9.5-23.75 9.5H800v86.667q0 14.166-9.617 23.75Q780.766-40 766.55-40q-14.216 0-23.716-9.583-9.5-9.584-9.5-23.75V-160Z"/></svg>