<svg xmlns="http://www.w3.org/2000/svg" height="40" viewBox="0 -960 960 960" width="40"><path d="M213.333-100q-13.666 0-28.5-8.5Q170-117 163.333-129L56.667-315.333Q50-327.333 50-344.167 50-361 56.667-373l266.666-458q6.667-12 21.5-20.5 14.834-8.5 28.5-8.5h213.334q13.666 0 28.5 8.5Q630-843 636.667-831l152.666 262.334q10 17.666-.5 34.833-10.499 17.166-31.166 15.166-8-1-14.833-5.166Q736-528 731.667-535L581.334-793.334H378.666L116.666-344 218-166.666h314.667q8 0 14.333 3.333T558.667-154q12.666 16.667 3.833 35.333Q553.667-100 532.667-100H213.333ZM309-280q-9 0-16.833-4.333-7.834-4.334-12.167-12.334l-10-17.666Q265.667-322 266-331q.333-9 4.667-16.667L434-633.333q4.333-7.667 12.167-12.167Q454-650 463-650h34q9 0 16.833 4.5 7.834 4.5 12.167 12.167L604.667-496q5.666 9.667 4.166 20.5T599-456q-12 12.333-27.666 10-15.667-2.333-24.334-16.667l-67-116-133.334 232.001h145.001q15.666 0 25.166 11.333t7.167 27q-2 12-11.333 20.166Q503.333-280 491.333-280H309Zm417.667 33.333H640q-14.333 0-23.833-9.5-9.5-9.5-9.5-23.833 0-14.333 9.5-23.833 9.5-9.5 23.833-9.5h86.667V-400q0-14.333 9.5-23.833 9.5-9.5 23.833-9.5 14.333 0 23.833 9.5 9.5 9.5 9.5 23.833v86.667H880q14.333 0 23.833 9.5 9.5 9.5 9.5 23.833 0 14.333-9.5 23.833-9.5 9.5-23.833 9.5h-86.667V-160q0 14.333-9.5 23.833-9.5 9.5-23.833 9.5-14.333 0-23.833-9.5-9.5-9.5-9.5-23.833v-86.667Z"/></svg>