<svg xmlns="http://www.w3.org/2000/svg" height="40" viewBox="0 -960 960 960" width="40"><path d="M446.667-266.666Q436.667-405 344.5-504.167t-225.833-113.5q-15.334-2-27-11.334Q80-638.334 80-653.334q0-14.333 10.333-23.833 10.334-9.5 24.667-8.167Q237.333-675 335.167-602 433-529 480-414q36-91 101.667-161.167Q647.333-645.334 733-693.334H606.667q-14.333 0-23.833-9.5-9.5-9.5-9.5-23.833 0-14.333 9.5-23.833 9.5-9.5 23.833-9.5h200q14.333 0 23.833 9.5 9.5 9.5 9.5 23.833v200q0 14.333-9.5 23.833-9.5 9.5-23.833 9.5-14.333 0-23.833-9.5-9.5-9.5-9.5-23.833v-112.667q-107.001 58.333-178.667 155Q523-387.667 513.333-266.666H560q14.333 0 23.833 9.5 9.5 9.5 9.5 23.833 0 14.333-9.5 23.833-9.5 9.5-23.833 9.5H400q-14.333 0-23.833-9.5-9.5-9.5-9.5-23.833 0-14.333 9.5-23.833 9.5-9.5 23.833-9.5h46.667Z"/></svg>