<svg xmlns="http://www.w3.org/2000/svg" viewBox="0 -960 960 960" width="32" height="32"><path d="m554-622 307 213.67q8.67 6.33 13.83 15.66Q880-383.33 880-372v20q0 24-19.5 36.5t-40.83 3.83L678.33-367 406-638.67V-806q0-30.33 21.83-52.17Q449.67-880 480-880q30.33 0 52.17 21.83Q554-836.33 554-806v184Zm-74 482.67L330.33-94q-18 5.33-32.5-5.83-14.5-11.17-14.5-29.17v-20.67q0-8.66 4.17-16.5 4.17-7.83 11.5-13.16L406-254v-162.67l-265.67 107Q119-301 99.5-313.83 80-326.67 80-350.67V-370q0-11.33 5.17-20.67Q90.33-400 99-406.33L305.33-552l-226-226q-9.66-9.67-9.66-23.33 0-13.67 9.66-23.34 9.67-9.66 23.34-9.66 13.66 0 23.33 9.66l698.67 699.34q9.66 9.66 9.66 23.66t-9.66 23q-9 9-23.34 8.67Q787-70.33 778-79.33l-224-224V-254l106.33 72.67q7.34 5.33 11.5 13.16 4.17 7.84 4.17 16.5v21.34q0 18-14.5 28.83Q647-90.67 629-96l-149-43.33Z"/></svg>