<svg xmlns="http://www.w3.org/2000/svg" height="40" viewBox="0 -960 960 960" width="40"><path d="M386.667-512v232q0 14.333 9.5 23.833 9.5 9.5 23.833 9.5 14.333 0 23.833-9.5 9.5-9.5 9.5-23.833v-236.333q0-5.667-1.5-11.334-1.5-5.666-3.833-11l-60.333-120.666q-6-12.334-19.334-16.834Q355-680.666 342.667-674q-12.334 6-16.5 19.167-4.167 13.166 1.833 25.5L386.667-512Zm186.666 0L632-629.667Q638-642 633.833-655q-4.166-13-16.5-19-12.333-6-25.833-1.833-13.5 4.166-19.5 16.5l-60 120.666q-2.333 5.334-3.833 11-1.5 5.667-1.5 11.334V-280q0 14.333 9.5 23.833 9.5 9.5 23.833 9.5 14.333 0 23.833-9.5 9.5-9.5 9.5-23.833v-232Zm69.334 66q12.333 6 25.833 1.833 13.5-4.166 19.5-16.5l44-88.666q6-12.334 1.5-25.5Q729-588 716.667-594q-12.334-6-25.5-1.5Q678-591 672-578.667l-44 88.334Q622-478 626.167-465q4.166 13 16.5 19Zm-326 0Q329-452 333.5-465.167q4.5-13.166-1.5-25.5l-44-88.666q-6-12.334-19.5-16.5Q255-600 242.667-594q-12.334 6-16.5 19.167-4.167 13.166 1.833 25.5l44 88.666q6 12.334 19.167 16.5 13.166 4.167 25.5-1.833ZM480-80q-82.333 0-155.333-31.5t-127.334-85.833Q143-251.667 111.5-324.667T80-480q0-83 31.5-156t85.833-127q54.334-54 127.334-85.5T480-880q83 0 156 31.5T763-763q54 54 85.5 127T880-480q0 82.333-31.5 155.333T763-197.333Q709-143 636-111.5T480-80Zm0-66.666q139.333 0 236.334-97.334 97-97.333 97-236 0-139.333-97-236.334-97.001-97-236.334-97-138.667 0-236 97Q146.666-619.333 146.666-480q0 138.667 97.334 236 97.333 97.334 236 97.334ZM480-480Z"/></svg>