<svg xmlns="http://www.w3.org/2000/svg" height="40" viewBox="0 -960 960 960" width="40"><path d="m256-120 35-80q-16-11.667-29.333-22.833Q248.333-234 235-247.333q-8 3.666-16.833 5.5Q209.333-240 201-240q-32.333 0-55.167-22.833Q123-285.667 123-318q0-20 9.167-37.167 9.166-17.166 23.5-26.166-7.334-24.334-11-48.834-3.667-24.5-3.667-50.5 0-26.666 3.333-50.833 3.334-24.167 11.334-48.5-14.334-10.333-23.5-26.833-9.167-16.5-9.167-36.5 0-32.334 22.833-55.167 22.834-22.833 55.167-22.833 8.333 0 16.833 1.833 8.5 1.833 16.5 5.5 34.334-36 76.167-60t91.833-36.667q5-31.333 26.834-50.333 21.833-19 51.166-19 29.334 0 51.5 19.5 22.167 19.5 26.5 49.833 50 12.667 94.167 34.834 44.167 22.166 77.833 59.166 7.334-2.333 14.334-3.833T759-722q32.333 0 55.167 22.833Q837-676.333 837-644q0 21.333-9 37.167-9 15.833-23 25.5 8 25.333 11.333 49.666 3.334 24.334 3.334 51 0 26-3.334 50.5Q813-405.667 805-381.333q16 11 24 28.166Q837-336 837-318q0 32.333-22.833 55.167Q791.333-240 759-240q-8 0-16.667-1.833-8.666-1.834-16-5.5-12.666 13.333-26.166 25.166-13.5 11.834-29.167 22.834l34.333 79.667q6 14.333-2.5 27Q694.333-80 678.333-80q-9 0-16-4.667Q655.334-89.333 652-97l-33-73.667q-16 6-30.333 10.834-14.334 4.833-30.334 9.166-5 31.667-26.833 50.5-21.833 18.834-51.167 18.834-29.333 0-51.166-18.667-21.834-18.667-26.834-50.667Q386-155 371.167-159.833q-14.834-4.834-28.834-11.5L308-96.667Q304.666-89 297.5-84.5q-7.167 4.5-15.833 4.5-15.334 0-23.5-12.833Q250-105.667 256-120Zm57-131.333 68-150.001Q367-418 359.667-437.667q-7.333-19.666-7.333-42.333 0-52.333 38.833-90.166Q430-608 482.333-608q52.334 0 89.167 37.834 36.833 37.833 36.833 90.166 0 22.667-7.167 42.667Q594-417.334 579-400.667l68 149.334q10.333-8 20.833-16.5 10.5-8.5 19.834-18.834-3-6.666-4.834-14.833Q681-309.667 681-318q0-28.667 19.333-51 19.334-22.333 51.334-27 6.666-20 10-41.167 3.333-21.166 3.333-43.5 0-23-3.333-44.166Q758.333-546 752.333-566q-30.666-3.333-51-25.667Q681-614 681-644q0-9 1.833-16.5 1.834-7.5 4.834-15.5-31-30.333-66-50.333T544.333-758q-9 14.333-25.666 24.167Q502-724 480.333-724q-21.666 0-38-9.833-16.333-9.834-26-24.167-43 11.667-79 31.833-36 20.167-65 52.167 3.667 8 5.167 15.167 1.5 7.166 1.5 15.5 0 32-20.667 53.166Q237.667-569 209-565.333q-6.667 20-10 40.833t-3.333 43.833q0 22.334 3.333 43.5Q202.333-416 209-396q32 4.667 51 27t19 51q0 9-1.5 16.5T273-288q9.333 10.333 19.167 19.167Q302-260 313-251.333ZM363-222q11.667 5 25.167 10 13.5 5 28.166 8.667 11-15 26.667-24.5 15.667-9.5 37.333-9.5 21.667 0 38.334 9.5 16.666 9.5 25.666 24.5 15.334-3.667 27.834-8.334 12.5-4.666 23.5-9.666L533-365.334q-12 7-25.667 10.167Q493.667-352 479.667-352q-14.334 0-28.167-3.667-13.833-3.667-25.833-11L363-222Zm117.333-196.667q25.334 0 43.334-17.666 18-17.667 18-43.667 0-25.333-18-43.333t-43.334-18q-26 0-43.666 18Q419-505.333 419-480q0 26 17.667 43.667 17.666 17.666 43.666 17.666Zm0-61.333Z"/></svg>