<svg xmlns="http://www.w3.org/2000/svg" viewBox="0 -960 960 960" width="32" height="32"><path d="m719.33-720.67-71.33-32q-5.33-2.33-7.5-6-2.17-3.66-2.17-8.66t2.17-9q2.17-4 7.5-6.34L719.33-814l30-69.33q2.34-5.34 6.34-8 4-2.67 9-2.67t9 2.67q4 2.66 6.33 8L810-814l71.33 31.33q5.34 2.34 7.67 6.34t2.33 9q0 5-2.33 8.66-2.33 3.67-7.67 6l-71.33 32L780-654q-2.33 5.33-6.33 7.5t-9 2.17q-5 0-9-2.17t-6.34-7.5l-30-66.67ZM246.67-387.33 90-457.67q-7.67-3.33-11.33-9.83Q75-474 75-480.67q0-6.66 3.67-13.16 3.66-6.5 11.33-9.84L246.67-574 319-729.33q3.33-7.67 9.5-11 6.17-3.34 12.83-3.34 6.67 0 12.84 3 6.16 3 9.5 10.67l73 156 156.66 70.33q7.67 3.34 11.34 9.84 3.66 6.5 3.66 13.16 0 6.67-3.66 13.17-3.67 6.5-11.34 9.83l-156.66 70.34-73 156q-3.34 7.66-9.5 11Q348-217 341.33-217q-6.66 0-12.83-3.33-6.17-3.34-9.5-11l-72.33-156ZM341.33-346l45.34-92.67 94-42-94-42-45.34-92.66-44.66 92.66-94.67 42 94.67 42L341.33-346Zm381.34 205.33L651.33-172q-5.33-2.33-7.66-6.33-2.34-4-2.34-9t2.34-9q2.33-4 7.66-6.34L722.67-234l30-69.33Q755-308.67 759-311t9-2.33q5 0 9 2.33t6.33 7.67l30 69.33 71.34 31.33q5.33 2.34 7.66 6.34 2.34 4 2.34 9t-2.34 9q-2.33 4-7.66 6.33l-71.34 31.33-30 67.34Q781-68 777-65.67q-4 2.34-9 2.34t-9-2.34q-4-2.33-6.33-7.66l-30-67.34Zm-381.34-340Z"/></svg>