<svg xmlns="http://www.w3.org/2000/svg" height="40" viewBox="0 -960 960 960" width="40"><path d="M680-354q-12 0-21.5 5.5T642-334q-5.333 8-14.505 11-9.171 3-17.324-1-9.171-4-13.338-13-4.166-9 .834-17 12.895-21 34.719-33.5Q654.209-400 680-400q37 0 64.5 24t27.5 60q0 11-3 20.5t-9 17.5q-11 16-26 28.5T710-220q0 1-5 14-2 10-8.5 17t-16.5 7q-11 0-18-7.5t-6-17.5q1-8 2.5-14.5T664-235q10-17 25.5-29t26.5-28q3-4 7-23 0-17-13-28t-30-11Zm0 274q-14 0-24-9.5T646-113q0-14 10-24t24-10q14 0 23.5 10t9.5 24q0 14-9.5 23.5T680-80Zm-333.334-66.666ZM313.333-80q-14.166 0-23.75-9.583Q280-99.167 280-113.333v-664.001q0-14.166 9.583-23.75 9.584-9.583 23.75-9.583H400v-36q0-14.166 9.583-23.75 9.584-9.583 23.75-9.583h93.334q14.166 0 23.75 9.583 9.583 9.584 9.583 23.75v36h86.667q14.166 0 23.75 9.583Q680-791.5 680-777.334v278.668q0 14.167-9.617 23.75t-23.833 9.583q-14.216 0-23.716-9.583-9.5-9.583-9.5-23.75v-245.335H346.666v597.335h146.335q14.167 0 23.75 9.617t9.583 23.833q0 14.216-9.583 23.716-9.583 9.5-23.75 9.5H313.333Z"/></svg>