<svg xmlns="http://www.w3.org/2000/svg" height="40" viewBox="0 -960 960 960" width="40"><path d="M740.667-120H186.666q-27 0-46.833-19.833T120-186.666v-554.001l-78-78q-10-9.867-10-23.433 0-13.567 9.895-23.567 9.894-10 23.5-10 13.605 0 23.605 10l780 780q10 10 10 23.334Q879-49 869.106-39q-9.895 10-23.5 10Q832-29 822.001-39l-81.334-81Zm-378-343.334L186.666-287.333v100.667h486.668l-123-123.001q-9.334 5.333-20.334 4-11-1.333-19.333-9.666l-148-148.001ZM186.666-674.001V-382l146.001-146-146.001-146.001ZM840-773.334v496.002q0 16.667-10.379 25-10.378 8.333-22.833 8.333-12.454 0-22.954-8.622t-10.5-25.044v-263.001l-106.668 110q-9.666 10.333-23.499 10.167-13.834-.167-23.834-10.167-9.666-9.667-10-23-.333-13.333 9.334-23.333l154.667-160.333v-136.002H276.665q-16.666 0-25-10.378-8.333-10.379-8.333-22.834 0-12.454 8.333-22.954 8.334-10.5 25-10.5h496.669q27 0 46.833 19.833T840-773.334ZM441.667-418.333ZM332.667-528Zm22.666 72Zm169.333-68.666Z"/></svg>