<svg xmlns="http://www.w3.org/2000/svg" height="40" viewBox="0 -960 960 960" width="40"><path d="M400-512ZM146.666-160q-27.5 0-47.083-19.583T80-226.666v-380.001q0-15.833 7.083-30 7.084-14.166 19.584-23.333L360-850q9.197-6.667 19.23-10 10.032-3.333 20.901-3.333T420.943-860q9.943 3.333 19.057 10l176.334 132q13.49 10.14 13.912 23.237.421 13.097-7.246 23.096-7.666 10-20.833 13.5-13.166 3.5-26.5-6.5L400-796.667l-253.334 190v380.001h238.001q14.167 0 23.75 9.617 9.584 9.617 9.584 23.833 0 14.216-9.584 23.716-9.583 9.5-23.75 9.5H146.666Zm540.072-406.667q-85.738 0-146.238 59.934Q480-446.8 480-360q0 36.406 12.667 70.536Q505.333-255.333 529-228q6.667 7.667 6.5 17.334-.166 9.666-6.833 16.666t-16 7.167q-9.333.166-16-7.167-30-34.333-46.667-76.993-16.666-42.66-16.666-89.007 0-106.205 74.077-179.769 74.078-73.564 179.346-73.564 106.243 0 179.743 73.564T940-360q0 46.112-16.333 88.556Q907.333-229 877-194.667q-6.667 7.334-16 7.167-9.333-.167-15.667-7.167-6.333-7-6.5-16.833-.166-9.833 6.5-17.5 23.667-27.333 35.834-61.166Q893.334-324 893.334-360q0-86.8-59.913-146.733-59.913-59.934-146.683-59.934Zm-.071 100q-44 0-75.334 30.934Q580-404.8 580-360q0 16.941 5.667 32.471Q591.333-312 601.334-299q5.333 7.913 5.333 17.623T600-264.667q-6.666 7-16.166 6.834-9.5-.167-15.167-7.834-16.666-20-26-43.833-9.333-23.833-9.333-50.5 0-64.208 45.067-108.771 45.068-44.562 108.354-44.562 64.245 0 108.745 44.562Q840-424.208 840-360q0 25.667-8.167 50.333Q823.667-285 807-265q-5.667 7.333-15.667 7.5-10 .167-16.333-7.5-6.333-7.667-6.167-17.333.167-9.667 5.5-18 9.001-13 14.001-28.333 5-15.334 5-31.334 0-44.8-30.934-75.733-30.933-30.934-75.733-30.934Zm0 346.667q-9.667 0-16.5-6.833-6.833-6.834-6.833-16.5v-180q-9-6.667-14.5-16.167-5.5-9.5-5.5-20.5 0-18.2 12.666-30.767 12.667-12.566 30.39-12.566 18.61 0 31.11 12.566Q730-378.2 730-360q0 11-4.833 20.667-4.834 9.666-15.167 16v180q0 9.666-6.833 16.5-6.834 6.833-16.5 6.833Z"/></svg>