<svg xmlns="http://www.w3.org/2000/svg" height="40" viewBox="0 -960 960 960" width="40"><path d="M223.333-118q-37.556 0-74.278-15-36.722-15-62.388-44.333 32-8 51-30.167 19-22.166 19-61.166 0-45.834 32.117-77.917 32.118-32.083 78-32.083t77.882 32.083q32 32.083 32 77.917 0 64.666-44.667 107.666-44.666 43-108.666 43Zm0-66.666q34.333 0 60.5-24.5t26.167-59.5q0-19-12.167-31.167Q285.666-312 266.666-312T235.5-299.833q-12.167 12.167-12.167 31.167 0 33.667-7.5 52.333-7.5 18.667-25.834 27 5.667 1.333 16.667 3 11 1.667 16.667 1.667Zm230-171.334-96.666-100 370-370q13-13 29.833-13.5 16.834-.5 30.834 13.5l37.333 37.333q14 14 13.666 31-.333 17-13.666 30.333L453.333-356Zm-186.667 87.334Z"/></svg>