<svg xmlns="http://www.w3.org/2000/svg" height="40" viewBox="0 -960 960 960" width="40"><path d="M756-80q-119 0-240-55.5T293-293Q191-395 135.5-516T80-756q0-18.857 12.571-31.429Q105.143-800 124-800h147.333q14 0 24.333 9.833Q306-780.333 309.333-766l26.619 130.427q2.048 14.906-.619 26.239-2.667 11.334-10.819 19.485L225.666-490q24 41.667 52.5 78.5T341-341.333q35 35.667 73.667 65.5T496-222.666l94.667-96.667q9.667-10.333 23.267-14.5Q627.535-338 640.667-336L766-309.333q14.667 4 24.333 15.53Q800-282.274 800-268v144q0 18.857-12.571 31.429Q774.857-80 756-80ZM193-552l76-76.667-21-104.667H147q3 41.667 13.666 86Q171.333-603 193-552Zm365.333 361.334q40.334 18.333 85.834 29.666 45.5 11.334 89.167 13.667V-248l-100-20.333-75.001 77.667ZM193-552Zm365.333 361.334Zm128.263-302.668q-80.262 0-136.762-56.57-56.5-56.571-56.5-136.834 0-80.262 56.57-136.762Q606.475-880 686.738-880 767-880 823.5-823.429q56.5 56.57 56.5 136.833 0 80.262-56.571 136.762-56.57 56.5-136.833 56.5Zm.071-73.333q8 0 14-6t6-14v-120q0-8-6-14t-14-6q-8 0-14 6t-6 14v120q0 8 6 14t14 6Zm0-200q8 0 14-6t6-14q0-8-6-14t-14-6q-8 0-14 6t-6 14q0 8 6 14t14 6Z"/></svg>