<svg xmlns="http://www.w3.org/2000/svg" height="40" viewBox="0 -960 960 960" width="40"><path d="M280-193.333v-53.334h-46.667q-14.166 0-23.75-9.583Q200-265.833 200-280v-400q0-14.167 9.583-23.75 9.584-9.583 23.75-9.583H280v-53.334q0-14.166 9.617-23.75Q299.234-800 313.45-800q14.216 0 23.716 9.583 9.5 9.584 9.5 23.75v53.334h46.667q14.167 0 23.75 9.583t9.583 23.75v400q0 14.167-9.583 23.75t-23.75 9.583h-46.667v53.334q0 14.166-9.617 23.75Q327.432-160 313.216-160 299-160 289.5-169.583q-9.5-9.584-9.5-23.75Zm-13.334-120H360v-333.334h-93.334v333.334Zm346.668 120v-173.334h-46.667q-14.167 0-23.75-9.583T533.334-400v-200q0-14.167 9.583-23.75t23.75-9.583h46.667v-133.334q0-14.166 9.617-23.75Q632.568-800 646.784-800q14.216 0 23.716 9.583 9.5 9.584 9.5 23.75v133.334h46.667q14.166 0 23.75 9.583Q760-614.167 760-600v200q0 14.167-9.583 23.75-9.584 9.583-23.75 9.583H680v173.334q0 14.166-9.617 23.75Q660.766-160 646.55-160q-14.216 0-23.716-9.583-9.5-9.584-9.5-23.75Zm-13.334-240h93.334v-133.334H600v133.334ZM313.333-480Zm333.334-20Z"/></svg>