<svg xmlns="http://www.w3.org/2000/svg" height="40" viewBox="0 -960 960 960" width="40"><path d="M293.333-840q55.334 0 103.334 25.333 48 25.334 83.333 72.667 39.333-49.333 86.333-73.667Q613.333-840 666.667-840q90.666 0 152 61.333Q880-717.333 880-626q0 11.667-1.167 23-1.166 11.334-3.833 23.001h-68q3.667-11.667 5-23.001 1.334-11.333 1.334-23 0-64-41.334-105.667-41.333-41.667-105.333-41.667-49.667 0-92.334 29.834-42.666 29.833-65.667 81.5h-57.999q-22.334-51-65-81.167-42.667-30.167-92.334-30.167-64 0-105.333 41.667Q146.666-690 146.666-626q0 11.667 1.334 23 1.333 11.334 5 23.001H85Q82.333-591.666 81.167-603 80-614.333 80-626q0-91.333 61.333-152.667Q202.667-840 293.333-840ZM480-129.667q-12 0-23.667-4-11.666-4-20.666-12.999Q396.333-183 361.833-215T298-276q-29.334-29-54.167-55-24.833-26.001-45.167-49.001h89.333q36 38.334 83 83.334Q418-251.667 480-195.333q62-56.334 108.667-101.334t82.667-83.334h90.333q-20.333 23-45.167 49.001-24.833 26-54.167 55-29.333 29-64 61-34.666 32-74 68.334-9 8.999-20.666 12.999-11.667 4-23.667 4Zm-38-197q10.333 0 18.167-6.166Q468-339 471.333-349L530-524l42.333 62.667q5 6.666 12 10.666t15.667 4h280q14.333 0 23.833-9.5 9.5-9.5 9.5-23.833 0-14.333-9.5-23.833-9.5-9.5-23.833-9.5H619L548-618q-5.333-7.667-13.167-11.167Q527-632.666 518-632.666q-10.333 0-18.5 6.166-8.167 6.167-11.5 16.167l-58 174.667-42.667-63.001q-5-6.666-11.666-10.666-6.667-4-15.334-4H80q-14.333 0-23.833 9.5-9.5 9.5-9.5 23.833 0 14.333 9.5 23.833 9.5 9.5 23.833 9.5h260.333l71 105.334q5.334 7.666 13.5 11.166 8.167 3.5 17.167 3.5Zm38-157.666Z"/></svg>