<svg xmlns="http://www.w3.org/2000/svg" height="40" viewBox="0 -960 960 960" width="40"><path d="m291.667-575 161-259Q458-842 465-845.834q7-3.833 15.667-3.833 8.666 0 15.666 3.833 7 3.834 12.334 11.834l161 259q5.333 8.667 5 17.667-.334 9-4.667 16.666-4.333 7.667-11.733 12.167T641-524H320.333q-9.943 0-17.4-4.583-7.457-4.584-11.6-12.084-4.333-7.666-4.666-16.666-.334-9 5-17.667ZM704-80q-74.333 0-125.167-50.833Q528-181.667 528-256t50.833-125.166Q629.667-432 704-432t125.167 50.834Q880-330.333 880-256t-50.833 125.167Q778.333-80 704-80Zm-584-56.667v-242.666q0-14.167 9.583-23.75 9.584-9.583 23.75-9.583H396q14.166 0 23.75 9.583 9.583 9.583 9.583 23.75v242.666q0 14.167-9.583 23.75-9.584 9.584-23.75 9.584H153.333q-14.166 0-23.75-9.584Q120-122.5 120-136.667Zm584.056-9.999q45.944 0 77.611-31.723t31.667-77.667q0-45.944-31.723-77.611-31.723-31.666-77.667-31.666t-77.611 31.723q-31.666 31.723-31.666 77.666 0 45.944 31.723 77.611t77.666 31.667ZM186.666-170h176.001v-176H186.666v176Zm193.333-420.666h201.335L480.667-753.334 379.999-590.666Zm100.668 0ZM362.667-346ZM704-256Z"/></svg>