<svg xmlns="http://www.w3.org/2000/svg" height="40" viewBox="0 -960 960 960" width="40"><path d="M271.333-362h269.668q16.667 0 25-10.379 8.333-10.379 8.333-22.833 0-12.454-8.333-22.954t-25-10.5H271.333q-14.166 0-23.75 9.617Q238-409.433 238-395.216q0 14.216 9.583 23.716 9.584 9.5 23.75 9.5Zm0-172h167.334q14.166 0 23.749-9.617Q472-553.234 472-567.451q0-14.216-9.584-23.716-9.583-9.5-23.749-9.5H271.333q-14.166 0-23.75 9.617Q238-581.433 238-567.217q0 14.217 9.583 23.717 9.584 9.5 23.75 9.5ZM146.666-200q-27.5 0-47.083-19.583T80-266.666v-426.668q0-27.5 19.583-47.083T146.666-760h666.668q27.5 0 47.083 19.583T880-693.334v86.001q0 14.167-9.617 23.75T846.55-574q-14.216 0-23.716-9.583-9.5-9.583-9.5-23.75v-86.001H146.666v426.001h280.001q14.167 0 23.75 9.617 9.584 9.617 9.584 23.833 0 14.216-9.584 24.05-9.583 9.833-23.75 9.833H146.666Zm768.667-276q5 5 5 12t-5.081 12.081l-36.585 36.586L822-472l38-38q4.849-5 10.667-5t10.667 5l33.999 34Zm-62 86-260 260q-5.333 5.333-11.315 7.667Q576.036-120 569.655-120h-26.322q-6.666 0-11.666-5t-5-11.667v-26.321q0-6.381 2.333-12.363 2.333-5.982 7.667-11.315l260-260L853.333-390ZM146.666-693.334V-267.333v-426.001Z"/></svg>