<svg xmlns="http://www.w3.org/2000/svg" height="40" viewBox="0 -960 960 960" width="40"><path d="M186.666-40q-27.5 0-47.083-19.583T120-106.666v-220.001q0-80.233 56.55-136.783Q233.1-520 313.333-520h53.334v-333.334q0-27.5 19.583-47.083T433.333-920h93.334q27.5 0 47.083 19.583t19.583 47.083V-520h53.334q80.233 0 136.783 56.55Q840-406.9 840-326.667v220.001q0 27.5-19.583 47.083T773.334-40H186.666Zm0-66.666h96.667v-126.667q0-14.167 9.617-23.75t23.834-9.583q14.216 0 23.716 9.583 9.5 9.583 9.5 23.75v126.667h96.667v-126.667q0-14.167 9.617-23.75t23.833-9.583q14.216 0 23.716 9.583 9.5 9.583 9.5 23.75v126.667H610v-126.667q0-14.167 9.617-23.75t23.833-9.583q14.217 0 23.717 9.583 9.5 9.583 9.5 23.75v126.667h96.667v-220.001q0-52.778-36.945-89.722-36.944-36.945-89.722-36.945H313.333q-52.778 0-89.722 36.945-36.945 36.944-36.945 89.722v220.001ZM526.667-520v-333.334h-93.334V-520h93.334Zm0 0h-93.334 93.334Z"/></svg>