<svg xmlns="http://www.w3.org/2000/svg" height="40" viewBox="0 -960 960 960" width="40"><path d="M174.999-481 344-312q9.667 9.667 9.667 23.334 0 13.666-9.667 23.333-9.667 9.666-23.667 9.666-14 0-23.666-9.666L103.333-458q-5.333-5.333-7.5-11-2.166-5.667-2.166-12.333 0-6.667 2.166-12.334 2.167-5.666 7.5-11L231.667-633 82.333-782.334q-10-10-10-23.833 0-13.833 10-23.833 10-10 23.834-10Q120-840 130-830l700 700q10 10 10 23.333 0 13.334-10 23.334t-23.833 10q-13.833 0-23.833-10L279.333-585.334 174.999-481Zm528.668 128.334q-10-10-10-23.833 0-13.834 10-23.834l81.334-81.334-169.001-169q-9.667-9.667-9.333-23.333.333-13.667 10-23.333Q626.333-707 640.333-707T664-697.333l192.667 192.666q5.333 5.334 7.5 11 2.166 5.667 2.166 12.334 0 6.666-2.166 12.333-2.167 5.667-7.5 11L750.333-351.666q-10 10-23.333 9.5-13.334-.5-23.333-10.5Z"/></svg>