<svg xmlns="http://www.w3.org/2000/svg" height="40" viewBox="0 -960 960 960" width="40"><path d="M731.334-153.333 523.666-360.334l66-65.999 207.667 207.667Q811-204.999 811-185.999q0 18.999-13.667 32.666-13.666 13.666-32.999 13.666-19.334 0-33-13.666Zm-571.334 0q-13.667-13.667-13.667-33t13.667-33l252-252-94-94.001-1.334 1.334q-9.666 9.666-23.333 9.666-13.666 0-23.333-9.666l-23-23v94.666Q247-481 236.667-477q-10.334 4-18.334-4l-115-115.001q-8-8-4-18.333 4-10.333 15.334-10.333H210l-25.333-25.334q-10-9.999-10-23.333 0-13.333 10-23.333L296-808q18-18 39-25t45-7q20.666 0 36.5 5.667 15.833 5.666 32.833 18.333 6 5 6.5 12t-5.167 12.667l-88.667 88.667 25.334 25.333q9.666 9.667 9.666 23.333 0 13.667-9.666 23.333l-2 2 92 92.001L588.667-648q-6.667-12.333-10.5-27.667-3.833-15.333-3.833-32 0-55 39.166-94.166Q652.667-841 707.667-841q8 0 14.666.5 6.667.5 12.334 2.5 7 3 8.833 10.5 1.833 7.5-3.833 13.167L677.333-752Q672-746.667 672-740q0 6.666 5.333 12l50.001 50q5.333 5.333 12 5.333 6.666 0 12-5.333l60.999-61q5.667-5.667 14.167-4.333Q835-742 838-734q2 6.333 2.5 13t.5 14.667q0 54.999-39.167 94.166Q762.667-573 707.667-573q-16 0-28.667-2.334-12.667-2.333-23.667-7.333l-430 430.001Q211.666-139 192.666-139.333q-18.999-.334-32.666-14Z"/></svg>