<svg xmlns="http://www.w3.org/2000/svg" height="40" viewBox="0 -960 960 960" width="40"><path d="M160-455.333q0-66 24.833-122.5Q209.667-634.333 254-678l190.667-187.667q7.666-7.333 17-10.833Q471-880 480-880q9 0 18.333 3.5 9.334 3.5 17 10.833L706-678q31 31 52.5 67.667 21.5 36.666 32.5 80 3.333 12.667-4.833 22.167Q778-498.667 766-496.333 754-494 741.667-500.5q-12.333-6.5-18.666-25.5-8.334-29-23.834-54.667-15.5-25.666-38.5-48L480-806.667l-180.667 178q-35.667 35-54.167 78.167t-18.5 95.167q0 86 53.501 152 53.5 66 133.5 87.667 18.333 5.333 24.667 18Q444.667-185 442.667-173T431.5-152.833q-9.166 8.166-23.166 4.833-107.667-24.333-178.001-109.833Q160-343.333 160-455.333ZM478.667-508Zm217.666 158q-18-8-37.166-14Q640-370 620-370q-16 0-31.333 3.833-15.334 3.833-30 9.833-10.334 4.334-21 1-10.667-3.333-15-13.666-5-10.667-.334-21 4.667-10.333 15.334-15.333 20-8 40.666-13 20.667-5 41.667-5 23 0 44.833 5.5 21.834 5.5 42.834 13.5 18 8 37.166 14 19.167 6 39.167 6 16 0 31.333-3.834 15.334-3.833 30-9.833 10.334-4.333 21-1 10.667 3.333 15 13.667 5 10.666.334 20.999Q877-354 866.333-349q-20 8-40.666 13Q805-331 784-331q-23 0-44.833-5.5-21.834-5.5-42.834-13.5Zm0 126.667q-18-8-37.166-14-19.167-6-39.167-6-16 0-31.333 3.833-15.334 3.833-30 9.833-10.334 4.334-21 1-10.667-3.333-15-13.666-5-10.667-.334-21 4.667-10.334 15.334-15.334 20-8 40.666-13 20.667-5 41.667-5 23 0 44.833 5.5 21.834 5.5 42.834 13.5 18 8 37.166 14 19.167 6 39.167 6 16 0 31.333-3.833 15.334-3.833 30-9.833 10.334-4.334 21-1 10.667 3.333 15 13.666 5 10.667.334 21-4.667 10.334-15.334 15.334-20 8-40.666 13-20.667 5-41.667 5-23 0-44.833-5.5-21.834-5.5-42.834-13.5Zm0 126.666q-18-8-37.166-14-19.167-6-39.167-6-16 0-31.333 3.834-15.334 3.833-30 9.833-10.334 4.333-21 .667-10.667-3.667-15-13.334-5-10.666-.334-20.999Q527-147 537.667-152q20-8 40.666-13Q599-170 620-170q23 0 44.833 5.5 21.834 5.5 42.834 13.5 18 8 37.166 14Q764-131 784-131q16 0 31.333-3.833 15.334-3.833 30-9.833 10.334-4.334 21-1 10.667 3.333 15 13.666 5 10.667.334 21-4.667 10.333-15.334 15.333-20 8-40.666 13-20.667 5-41.667 5-23 0-44.833-5.5-21.834-5.5-42.834-13.5Z"/></svg>