<svg xmlns="http://www.w3.org/2000/svg" height="40" viewBox="0 -960 960 960" width="40"><path d="m867-188.333-53.666-53.666v-252.668H560.666L421.333-634h392.001v-99.334H321.999L255.333-800h558.001q27 0 46.833 19.833T880-733.334v506.777q0 10.557-3.333 20.391-3.334 9.833-9.667 17.833ZM395.667-470Zm171.999-17.666ZM370-494.667H146.666v268.001h491.335L370-494.667ZM146.666-160q-27 0-46.833-19.833T80-226.666v-506.668q0-27 19.833-46.833T146.666-800H160l66.666 66.666h-80V-634h84.001L49.333-815.334q-10-10.044-10-23.855T49.368-863q10.035-10 23.833-10Q87-873 97-863l742 742q10 10 10 23.333 0 13.333-10.035 23.333-10.035 10-23.834 10-13.798 0-23.798-9.983L704.667-160H146.666Z"/></svg>