<svg xmlns="http://www.w3.org/2000/svg" height="40" viewBox="0 -960 960 960" width="40"><path d="M446.667-153.333v-241.334H273.333q-14.166 0-23.75-9.616Q240-413.9 240-428.117q0-14.216 9.583-23.716 9.584-9.5 23.75-9.5H441L232.333-788.667q-11-16.667-1.294-34Q240.744-840 261-840q9.058 0 16.47 4.123 7.412 4.123 11.529 11.544l191.001 301 191.001-301q4.137-7.421 11.586-11.544Q690.035-840 699.138-840q19.862 0 29.695 17.333 9.834 17.333-1.166 34L519-461.333h167.667q14.166 0 23.75 9.617Q720-442.099 720-427.883q0 14.217-9.583 23.717-9.584 9.499-23.75 9.499H513.333v241.334q0 14.166-9.617 23.75Q494.099-120 479.883-120q-14.216 0-23.716-9.583-9.5-9.584-9.5-23.75Z"/></svg>