<svg xmlns="http://www.w3.org/2000/svg" height="40" viewBox="0 -960 960 960" width="40"><path d="M357.667-120q-13.334 0-25.834-5.333-12.5-5.334-21.5-14.334L139.667-310.333q-9-9-14.334-21.5-5.333-12.5-5.333-25.834v-244.666q0-13.334 5.333-25.834 5.334-12.5 14.334-21.5l170.666-170.666q9-9 21.5-14.334 12.5-5.333 25.834-5.333h244.666q13.334 0 25.834 5.333 12.5 5.334 21.5 14.334l170.666 170.666q9 9 14.334 21.5 5.333 12.5 5.333 25.834v244.666q0 13.334-5.333 25.834-5.334 12.5-14.334 21.5L649.667-139.667q-9 9-21.5 14.334-12.5 5.333-25.834 5.333H357.667Zm.333-66.666h244L773.334-358v-244L602-773.334H358L186.666-602v244L358-186.666Zm122-246.668 96.667 96.667Q586.334-327 600-327q13.667 0 23.333-9.667Q633-346.333 633-360q0-13.666-9.667-23.333L526.666-480l96.667-96.667Q633-586.334 633-600q0-13.667-9.667-23.333Q613.667-633 600-633q-13.666 0-23.333 9.667L480-526.666l-96.667-96.667Q373.666-633 360-633q-13.667 0-23.333 9.667Q327-613.667 327-600q0 13.666 9.667 23.333L433.334-480l-96.667 96.667Q327-373.666 327-360q0 13.667 9.667 23.333Q346.333-327 360-327q13.666 0 23.333-9.667L480-433.334ZM480-480Z"/></svg>