<svg xmlns="http://www.w3.org/2000/svg" height="40" viewBox="0 -960 960 960" width="40"><path d="M480-120q-150.333 0-255.167-104.833Q120-329.667 120-480q0-136 83-232.5t215.666-120.167q17.667-4 30.334.5 12.666 4.5 20 14.834 7.333 9.666 7.166 23.666Q476-779.666 468-762.666q-11.667 24-17.833 49.666Q444-687.333 444-660q0 90 63 153t153 63q27 0 52.833-6t48.5-16.666q18.333-7.667 32.834-6.834 14.5.834 24.166 7.834 10 7 13.834 20.333 3.833 13.334-.167 32-22.667 126.667-119.834 210Q615-120 480-120Zm0-66.666q102 0 179.334-61.167t101.333-147.834q-23.333 9-49 13.667Q686-377.334 660-377.334q-117.667 0-200.166-82.5-82.5-82.499-82.5-200.166 0-22.667 4.333-47.667t14.667-55q-91.334 28.666-150.501 107Q186.666-577.334 186.666-480q0 122 85.667 207.667T480-186.666Zm-6-288.001Z"/></svg>