<svg xmlns="http://www.w3.org/2000/svg" height="40" viewBox="0 -960 960 960" width="40"><path d="M480.667-80q-83 0-156-31.5t-127.334-85.833q-54.333-54.334-85.833-127Q80-397 80-479.333 80-614 161.334-721.667 242.667-829.334 372.667-865q27-7.333 48.167 8Q442-841.667 442-814.667 442-796 431.5-781.5T403.667-763q-93.334 20.999-154.5 101.166Q188-581.667 188-479.333q0 121 85.166 206.167Q358.333-188 480.667-188 538-188 591.5-210t96.834-64q13-12.667 31.5-14 18.5-1.333 32.166 10 21 17 22.667 41.833 1.667 24.833-17.333 44.833-52 53.667-123.167 82.501Q563-80 480.667-80Zm292-400q0-100-59.667-178.5-59.667-78.501-154.334-103.167-17.333-4.667-28.166-19.5Q519.666-796 519.666-814q0-26.333 21.5-42 21.5-15.667 48.5-8.333Q718.666-829 799.667-722q81 107 81 239.333 0 24.667-2.834 49.167-2.833 24.5-9.5 49.834-6.333 25.666-28.5 36.5-22.166 10.833-47.166-.167Q775-355 766.5-371.5t-3.833-32.499q5-17 7.5-35.001 2.5-18 2.5-41Z"/></svg>