<svg xmlns="http://www.w3.org/2000/svg" height="40" viewBox="0 -960 960 960" width="40"><path d="M310.666-396q-17 0-28.5-11.5t-11.5-28.5q0-17 11.5-28.5t28.5-11.5q17 0 28.5 11.5t11.5 28.5q0 17-11.5 28.5t-28.5 11.5ZM482-396q-17 0-28.5-11.5T442-436q0-17 11.5-28.5T482-476q17 0 28.5 11.5T522-436q0 17-11.5 28.5T482-396Zm166.667 0q-17 0-28.5-11.5t-11.5-28.5q0-17 11.5-28.5t28.5-11.5q17 0 28.5 11.5t11.5 28.5q0 17-11.5 28.5t-28.5 11.5ZM186.666-80q-27 0-46.833-19.833T120-146.666v-600.001q0-27 19.833-46.833 19.833-19.834 46.833-19.834h56.667v-31.999q0-14.734 9.967-24.7Q263.267-880 278-880q15.017 0 25.175 9.967 10.158 9.966 10.158 24.7v31.999h333.334v-31.999q0-14.734 9.966-24.7Q666.6-880 681.333-880q15.017 0 25.175 9.967 10.159 9.966 10.159 24.7v31.999h56.667q27 0 46.833 19.834Q840-773.667 840-746.667v600.001q0 27-19.833 46.833T773.334-80H186.666Zm0-66.666h586.668v-420.001H186.666v420.001Zm0-486.667h586.668v-113.334H186.666v113.334Zm0 0v-113.334 113.334Z"/></svg>