<svg xmlns="http://www.w3.org/2000/svg" height="40" viewBox="0 -960 960 960" width="40"><path d="M153.333-120q-14.166 0-23.75-9.617Q120-139.234 120-153.45q0-14.216 9.583-23.716 9.584-9.5 23.75-9.5h653.334q14.166 0 23.75 9.617Q840-167.432 840-153.216q0 14.216-9.583 23.716-9.584 9.5-23.75 9.5H153.333Zm0-653.334q-14.166 0-23.75-9.617Q120-792.568 120-806.784q0-14.216 9.583-23.716 9.584-9.5 23.75-9.5h653.334q14.166 0 23.75 9.617Q840-820.766 840-806.55q0 14.216-9.583 23.716-9.584 9.5-23.75 9.5H153.333Z"/></svg>