<svg xmlns="http://www.w3.org/2000/svg" height="40" viewBox="0 -960 960 960" width="40"><path d="M153.333-80q-14.166 0-23.75-9.617Q120-99.234 120-113.45q0-14.216 9.583-23.716 9.584-9.5 23.75-9.5h653.334q14.166 0 23.75 9.617Q840-127.432 840-113.216 840-99 830.417-89.5q-9.584 9.5-23.75 9.5H153.333Zm0-244.667q-14.166 0-23.75-9.617Q120-343.901 120-358.117q0-14.216 9.583-23.716 9.584-9.5 23.75-9.5h653.334q14.166 0 23.75 9.617Q840-372.099 840-357.883q0 14.216-9.583 23.716-9.584 9.5-23.75 9.5H153.333Zm0-244q-14.166 0-23.75-9.617Q120-587.901 120-602.117q0-14.216 9.583-23.716 9.584-9.5 23.75-9.5h653.334q14.166 0 23.75 9.617Q840-616.099 840-601.883q0 14.216-9.583 23.716-9.584 9.5-23.75 9.5H153.333Zm0-244.667q-14.166 0-23.75-9.617Q120-832.568 120-846.784q0-14.216 9.583-23.716 9.584-9.5 23.75-9.5h653.334q14.166 0 23.75 9.617Q840-860.766 840-846.55q0 14.216-9.583 23.716-9.584 9.5-23.75 9.5H153.333Z"/></svg>