<svg xmlns="http://www.w3.org/2000/svg" height="40" viewBox="0 -960 960 960" width="40"><path d="M152.666-722.667H430.001 152.666ZM228-434h-81.334 506.668H228ZM179.294-80Q159-80 144.834-94.194q-14.167-14.195-14.167-34.472v-66q-24-17-37.334-45.167Q80-268 80-300.667V-692q0-76.667 73.5-109t251.167-35.667q14.45 0 24.225 9.167 9.775 9.167 9.775 23.582 0 14.415-9.027 24.166Q420.614-770 406-770q-122.667 1.333-180.001 12.833-57.333 11.5-73.333 34.5h230.668q14.167 0 23.75 9.617t9.583 23.833q0 14.217-9.583 23.717-9.583 9.5-23.75 9.5H146.666v155.334h394.336q14.384 0 23.692 9.617t9.308 23.833q0 14.216-9.584 23.716-9.583 9.5-23.749 9.5H146.666v120q0 35 24.167 60.5T228-228h344q33 0 57.167-25.5t24.167-60.5v-67.667q0-14.167 9.617-23.75T686.784-415q14.216 0 23.716 9.583 9.5 9.583 9.5 23.75v81q0 32.667-13.333 60.834-13.334 28.167-37.334 45.167v66q0 20.277-14.206 34.472Q640.921-80 620.627-80t-34.46-14.194Q572-108.39 572-128.666v-32.667H228v32.667q0 20.277-14.206 34.472Q199.588-80 179.294-80Zm506.831-412q-80.458 0-137.291-56.841Q492-605.681 492-686.326 492-766 548.667-823T686-880q81 0 137.5 56.5T880-686q0 81-56.708 137.5Q766.583-492 686.125-492ZM250.706-274.667q23.627 0 40.127-16.539 16.5-16.539 16.5-40.166 0-23.628-16.539-40.128T250.627-388Q227-388 210.5-371.46 194-354.921 194-331.294q0 23.628 16.539 40.128 16.539 16.499 40.167 16.499Zm298.667 0q23.627 0 40.127-16.539 16.5-16.539 16.5-40.166Q606-355 589.461-371.5T549.294-388q-23.627 0-40.127 16.54-16.5 16.539-16.5 40.166 0 23.628 16.539 40.128 16.539 16.499 40.167 16.499Zm155.96-416.666V-792q0-8-5.333-13t-13.333-5q-8 0-13 5t-5 13v98.667q0 6.376 2.333 12.354Q673.334-675 677.667-670l64 67Q747-597.667 755-597.667T768.334-603q5.333-5.333 5.333-13.333t-5.333-13.334l-63.001-61.666Z"/></svg>