<svg xmlns="http://www.w3.org/2000/svg" height="40" viewBox="0 -960 960 960" width="40"><path d="M424.666-373.334 353.666-66q-2.333 12-11.718 19t-21.626 7Q304-40 293.667-52.333q-10.334-12.334-7-28l106.666-538.334-91.334 38V-480q0 14.167-9.616 23.75-9.617 9.583-23.834 9.583-14.216 0-24.049-9.775t-9.833-24.225v-122q0-10.222 5.416-18.314 5.417-8.093 14.583-12.352l175.528-74.146q13.806-5.854 29.306-7.188 15.5-1.333 30.166 2.334 16 3.666 28.5 11.916t20.5 21.084L580-614q15 22.667 33.833 41.333 18.834 18.667 41.5 32.334 16 9.333 33.334 15.5 17.333 6.167 35.666 9.167 13.406 2.5 22.203 12.083 8.797 9.583 8.797 23.75 0 14.166-9.853 23.5Q735.626-447 721.667-449q-58-7.333-103.834-35.334-45.833-28-82.166-75.333L502-417.333l78.666 72q5.334 5.034 8 11.327 2.667 6.293 2.667 13.006v247.667q0 14.166-9.617 23.75Q572.099-40 557.883-40q-14.216 0-23.716-9.583-9.5-9.584-9.5-23.75v-213.333l-100.001-86.668Zm115.387-376q-31.053 0-53.22-22.113-22.166-22.114-22.166-53.167t22.113-53.219Q508.894-900 539.947-900t53.22 22.114q22.166 22.113 22.166 53.166 0 31.053-22.113 53.22-22.114 22.166-53.167 22.166Z"/></svg>