<svg xmlns="http://www.w3.org/2000/svg" viewBox="0 -960 960 960" width="32" height="32"><path d="M480-80.33q-36 0-71.5-9T335-116.67q-51 23-91.5 29.34-40.5 6.33-90.17 7-13.66.33-23.5-9.25-9.83-9.59-9.83-23.75 0-13.67 9.83-23.5 9.84-9.84 23.5-10.17 24.74-.6 45.87-1.8 21.13-1.2 41.8-5.7 20.67-4.5 41.67-12.17 21-7.66 45-20.33 4-2 8-2t8 2q33.66 19 66.16 29T480-148q37.67 0 70.17-10t66.16-29q4-2 8-2t8 2q24 11.67 45 19.83 21 8.17 41.67 12.34 20.67 4.16 42 5.83t45.67 2q14.33.33 23.83 9.92 9.5 9.58 9.5 23.75 0 14.16-9.83 23.75-9.84 9.58-23.5 9.25-49.67-.67-90.5-7-40.84-6.34-90.17-29.34-38.67 19-74.33 27.67Q516-80.33 480-80.33Zm.33-152.34q-43.66 0-85-27-41.33-27-64.66-51.66Q307-288 280.83-271.83q-26.16 16.16-53.16 25.83-16.34 6-31.17-3-14.83-9-20.17-25.67L111.67-490q-4.34-13.67 2.21-25.4 6.54-11.74 20.45-15.93l56.34-16v-171.34q0-27.5 19.58-47.08t47.08-19.58h121.34v-62q0-14.17 9.58-23.75 9.58-9.59 23.75-9.59h136q14.17 0 23.75 9.59 9.58 9.58 9.58 23.75v62h121.34q27.5 0 47.08 19.58t19.58 47.08v171.34l56.34 16q13.91 4.19 20.45 15.93 6.55 11.73 2.21 25.4l-64 215.33Q779-258 764.17-249q-14.84 9-31.17 3.67-28-9.67-53.83-26.17Q653.33-288 630-311.33q-23.33 24.66-64.67 51.66-41.33 27-85 27Zm-223-486V-567l204-60q8.67-2.33 18.67-2.67 10-.33 18.67 2.67l204 60.67v-152.34H257.33ZM480-562.33l-295.33 85.66L232-321q23-14 39.83-29.17 16.84-15.16 35.5-34.5 10-11 24.84-10.83 14.83.17 24.5 12.17 24.33 28.33 54 56.16 29.66 27.84 70.66 27.84 40.67 0 69.34-28 28.66-28 53-56 9.66-12 24.5-12.17 14.83-.17 24.83 10.83 18 18.67 35.5 34.5Q706-334.33 728.33-321l47.34-155.67L480-562.33Zm.33 131.33Z"/></svg>