<svg xmlns="http://www.w3.org/2000/svg" height="40" viewBox="0 -960 960 960" width="40"><path d="M680-146.666q62.333 0 117.167-30.667Q852-208 886-260q-34-52-88.833-82.667Q742.333-373.334 680-373.334t-117.167 30.667Q508-312 474-260q34 52 88.833 82.667Q617.667-146.666 680-146.666ZM680-80q-80.667 0-147.667-36.667-67-36.666-107.333-97-6.667-10-10.167-21.5t-3.5-23.5q0-12 3.334-24.333Q418-295.333 425-306.333q39.333-61 106.833-97.334Q599.333-440 680-440t147.667 36.667q67 36.666 107.333 97 6.667 10 10.167 21.5t3.5 23.5q0 12-3.334 24.333Q942-224.667 935-213.667q-39.333 61-106.833 97.334Q760.667-80 680-80Zm0-120q-25 0-42.5-17.5T620-260q0-25 17.5-42.5T680-320q25 0 42.5 17.5T740-260q0 25-17.5 42.5T680-200Zm-340.333 95.667Q221-147 150.5-249T80-480q0-83.667 30.833-156.667 30.834-73 84.834-127t127-85.166Q395.667-880 480-880q159.667 0 273.833 106Q868-668 879-509q1.333 16.667-8.333 25.167-9.667 8.5-22 9.833-12.333 1.334-23.5-6.166t-12.5-24.167q-8.666-133-104-221Q613.334-813.334 480-813.334q-62.667 0-117.167 20.334-54.5 20.333-96.167 55.667l235.001 235q11.333 11.334 10.167 23.167-1.167 11.833-10.167 20.833-9 8.333-21.167 9.833-12.166 1.5-23.499-9.833L222-693.334Q186.666-651 166.666-596.5t-20 116.5q0 109.667 60 193.834 60.001 84.167 156.334 118.5 16.667 6 21 18.833Q388.334-136 383.667-124 379-112 367.5-105.166q-11.499 6.833-27.833.833Z"/></svg>