<svg xmlns="http://www.w3.org/2000/svg" viewBox="0 -960 960 960" width="32" height="32"><path d="M480-80q-106 0-173-31.83-67-31.84-67-81.5 0-21 13.17-39.34 13.16-18.33 38.16-33 12-6.66 25.17-4Q329.67-267 336.33-255q6.67 12 3.84 25.17-2.84 13.16-14.84 19.83-5.33 4-10 8.33-4.66 4.34-8.66 8.34 15.66 18.66 67 32.66 51.33 14 106.33 14t106.33-14q51.34-14 67-32.66-4-4-8.66-8.34-4.67-4.33-10-8.33-12-6.67-14.84-19.83Q617-243 623.67-255q6.66-12 19.83-14.67 13.17-2.66 25.17 4 25 14.67 38.16 33Q720-214.33 720-193.33q0 49.66-67 81.5Q586-80 480-80Zm1-203.33q105.67-78.34 159-158.17 53.33-79.83 53.33-152.5 0-108.67-69-164T480-813.33q-74.67 0-144 55.33t-69.33 164q0 71 53 147.83 53 76.84 161.33 162.84Zm-1 67.66q-10 0-20-3.33t-18.67-10Q320-325 260-415.83 200-506.67 200-594q0-71 25.5-124.5t65.83-89.5q40.34-36 90-54Q431-880 480-880t99 18q50 18 90 54t65.5 89.5Q760-665 760-594q0 87.33-60 178.17Q640-325 518-229q-8.67 6.67-18.33 10-9.67 3.33-19.67 3.33ZM480-520q33 0 56.5-23.5T560-600q0-33-23.5-56.5T480-680q-33 0-56.5 23.5T400-600q0 33 23.5 56.5T480-520Zm0-80Z"/></svg>