<svg xmlns="http://www.w3.org/2000/svg" height="40" viewBox="0 -960 960 960" width="40"><path d="M773.334-295.666v-471.001q0-14.166 9.617-23.75Q792.568-800 806.784-800q14.216 0 23.716 9.583 9.5 9.584 9.5 23.75v471.335q0 16.666-10.379 25-10.378 8.333-22.833 8.333-12.454 0-22.954-8.622t-10.5-25.045ZM280-776.666v-50.001q0-14.166 9.617-23.75Q299.234-860 313.45-860q14.216 0 23.716 9.583 9.5 9.584 9.5 23.75v50.001q0 14.166-9.617 23.75-9.617 9.583-23.833 9.583-14.216 0-23.716-9.583-9.5-9.584-9.5-23.75Zm164.667 156v-266.001q0-14.166 9.617-23.75Q463.901-920 478.117-920q14.216 0 23.716 9.583 9.5 9.584 9.5 23.75v267.001q0 14.094-9.833 23.213-9.833 9.12-23.5 9.12t-23.5-9.833q-9.833-9.834-9.833-23.5Zm164.667 130.333v-356.334q0-14.166 9.617-23.75Q628.567-880 642.784-880q14.216 0 23.716 9.583 9.5 9.584 9.5 23.75v356.334q0 14.166-9.617 23.75Q656.766-457 642.55-457q-14.217 0-23.716-9.583-9.5-9.584-9.5-23.75Zm130.333 365L346.666-518.334v177.001q0 20.666-18.166 29.833-18.167 9.166-34.833-2.834l-112.335-81.334 182.335 268.335Q370-117.333 380-112q10 5.334 22 5.334h284.667q14.598 0 28.466-4.834 13.868-4.833 24.534-13.833ZM402-40q-28 0-53-12.833-25-12.834-40.667-36.5l-240.666-354q-6.667-10-5-22 1.666-12 10.666-20 17.667-16.334 41.334-20 23.666-3.667 45.382 12.791L280-403.666v-181.335L49.666-815.334q-10-10.044-10-23.855T49.703-863q10.035-10 23.833-10 13.798 0 23.798 10l755.334 755.333q10 10 10 23.334Q862.667-71 852.632-61q-10.035 10-23.833 10Q815-51 805-61l-18-17q-20 17.667-45.706 27.833Q715.587-40 686.667-40H402Zm141.667-282.334Zm33.666-155.333Z"/></svg>