<svg xmlns="http://www.w3.org/2000/svg" height="40" viewBox="0 -960 960 960" width="40"><path d="M521-838q0-16.667 13-27 13-10.333 29-6.667 118 23.334 202.167 109Q849.333-677 872.667-558q2.666 15-6.834 26.167-9.5 11.166-26.166 11.166h-239q-3.334 0-5.667-1.666-2.333-1.667-3.667-5Q583-549 566-565.167q-17-16.166-38.333-24.5-3.334-1.333-5-3.5-1.667-2.166-1.667-5.5V-838Zm66.666 44.666V-632q13 9 25 20T633-587.333h160.667Q769-660.667 715-715q-54-54.334-127.334-78.334ZM395.667-89Q259-117.333 170-226T81-478q0-144 88.667-253.833 88.666-109.834 226-139.167 17.333-3.667 30.666 7.333 13.334 11 13.334 28.333v238.001q0 .333-4.667 7.333-33.333 14-53.667 44.833Q361-514.333 361-478q0 35.667 20.333 64.167 20.334 28.5 53 42.5 1.334.333 5.334 7.333v240q0 17.333-13.334 28Q413-85.333 395.667-89ZM373-793.334Q270-761.667 208.833-674q-61.167 87.666-61.167 196 0 107 62.167 193Q272-198.999 373-165.333v-162.001q-37.333-26.333-58-65.499Q294.334-432 294.334-478t20.333-86.5Q335-605 373-632v-161.334Zm188 705q-16 3-28-6.666-12-9.667-12-25.666v-241.001q0-3.333 2-6 2-2.666 5.333-4 22-8.333 38.334-24 16.333-15.666 24.666-37 .334-.666 9-6.666h239.334q15.333 0 25.666 12.666 10.334 12.667 7 28.333-23.666 119.001-109 203.001-85.333 84-202.333 107Zm72-284.333q-9.334 13-20.5 25-11.167 12-24.834 20.333v160.668Q661-189.999 715-244.666t78.667-128.001H633ZM294.334-479ZM633-587.333Zm0 214.666Z"/></svg>