<svg xmlns="http://www.w3.org/2000/svg" height="40" viewBox="0 -960 960 960" width="40"><path d="M740.667-40Q716-40 691.833-44q-24.166-4-47.166-11.333L102-253q-9-3.667-13.167-12.167-4.166-8.5-.833-17.833 3.667-9.333 12.333-13.5 8.667-4.166 18-.5l262.334 95.334 69.666-180L296.667-542q-24.334-26.667-19.167-61.5 5.167-34.833 35.833-52.833L463-743q15-8.666 31.5-9.5 16.5-.833 31.5 4.834 15 5.333 26.833 16.999Q564.667-719 570-703l13 43q15.667 50.334 47.167 83.334t76.5 49.333l14-42.667q2.666-9.333 10.833-13.5 8.167-4.166 17.5-1.5 9.333 2.667 14 11.333 4.666 8.667 2 18l-34 104.333q-70-13.333-123-55.333t-80-110l-121.667 70.001L516-419.333q6 6.667 7.833 16 1.833 9.333-1.5 18.333L443-179.333l136.667 49.667L670.334-410q11.333 3.666 21.999 6.666Q703-400.334 714-398l-91 284.667 37.667 13q18.666 6.667 38.5 10.167 19.833 3.5 41.5 3.5 21.666 0 41.667-3 20-3 39.333-10 9.333-3.334 18.5 0 9.167 3.333 12.167 12.333 3.666 10-1.334 19.166-5 9.167-15 12.5-22.666 7.334-46.5 11.5Q765.667-40 740.667-40Zm-75.334-669.334q-30.999 0-53.166-22.166Q590-753.667 590-784.667t22.167-53.166Q634.334-860 665.333-860q31 0 53.167 22.167 22.167 22.166 22.167 53.166 0 31-22.167 53.167-22.167 22.166-53.167 22.166Z"/></svg>