<svg xmlns="http://www.w3.org/2000/svg" height="40" viewBox="0 -960 960 960" width="40"><path d="M750-360q-14.334 0-23.833-9.5-9.5-9.5-9.5-23.833 0-14.333 9.5-23.833 9.499-9.5 23.833-9.5h56.667q14.333 0 23.833 9.5 9.5 9.5 9.5 23.833 0 13.666-9.5 23.5Q821-360 806.667-360H750Zm0 160q-14.334 0-23.833-9.5-9.5-9.5-9.5-23.833 0-14.333 9.5-23.833 9.499-9.5 23.833-9.5h56.667q14.333 0 23.833 9.5 9.5 9.5 9.5 23.833 0 13.666-9.5 23.5Q821-200 806.667-200H750Zm-190 40q-30.333 0-51.833-23.5t-21.5-56.5H430q-14.334 0-23.833-9.5-9.5-9.5-9.5-23.833v-80q0-14.333 9.5-23.833 9.499-9.5 23.833-9.5h56.667q0-33 21.5-56.5t51.833-23.5h90q14.334 0 23.833 9.5 9.5 9.5 9.5 23.833v240q0 14.333-9.5 23.833Q664.334-160 650-160h-90ZM276.667-280Q210-280 165-324.667q-45-44.666-45-112 0-67.333 45-112 45-44.666 111.667-44.666H340q30.333 0 50.167-19.834Q410-633 410-663.333q0-30.334-19.833-50.167-19.834-19.834-50.167-19.834H193.333q-13.666 0-23.5-9.833Q160-753 160-766.667q0-14.333 9.833-23.833 9.834-9.5 23.5-9.5H340q58 0 97.333 39.333 39.334 39.334 39.334 97.334T437.333-566Q398-526.667 340-526.667h-63.333q-39.001 0-64.501 25.167-25.5 25.167-25.5 64.833 0 39.667 25.5 64.834t64.501 25.167H330q14.334 0 23.833 9.5 9.5 9.5 9.5 23.833 0 14.333-9.5 23.833Q344.334-280 330-280h-53.333Z"/></svg>