<svg xmlns="http://www.w3.org/2000/svg" height="40" viewBox="0 -960 960 960" width="40"><path d="M366.667-422.334V-320q0 14.167 9.617 23.75t23.833 9.583q14.216 0 23.716-9.583 9.5-9.583 9.5-23.75v-102.334l96 55.001q12 6.666 25.111 3.259 13.111-3.408 19.667-15.334 6.555-11.925 3.056-25.425-3.5-13.5-15.5-20.167l-95.001-55 95.001-55q12-6.667 15.5-20.167 3.499-13.5-3.056-25.425-6.556-11.926-19.667-15.334-13.111-3.407-25.111 3.259l-96 55.001V-640q0-14.167-9.617-23.75t-23.833-9.583q-14.216 0-23.716 9.583-9.5 9.583-9.5 23.75v102.334l-96-55.001q-12-6.666-25.111-3.259-13.111 3.408-19.667 15.334-6.555 11.925-3.055 25.425 3.499 13.5 15.499 20.167l95.001 55-95.001 55q-12 6.667-15.499 20.167-3.5 13.5 3.055 25.425 6.556 11.926 19.667 15.334 13.111 3.407 25.111-3.259l96-55.001ZM146.666-160q-27 0-46.833-19.833T80-226.666v-506.668q0-27 19.833-46.833T146.666-800h506.668q27 0 46.833 19.833T720-733.334V-530l131.333-131.333q8-8 18.334-3.972Q880-661.278 880-650v340q0 11.278-10.333 15.305-10.334 4.028-18.334-3.972L720-430v203.334q0 27-19.833 46.833T653.334-160H146.666Zm0-66.666h506.668v-506.668H146.666v506.668Zm0 0v-506.668 506.668Z"/></svg>