<svg xmlns="http://www.w3.org/2000/svg" height="40" viewBox="0 -960 960 960" width="40"><path d="M480-199.999q116.667 0 198.001-81.667t82-198.334v-280.001H480q-116.667.666-198.334 82T199.999-480q0 116.667 81.667 198.334T480-199.999Zm-51-92.334 199.334-178Q638-479 634-491q-4-12-17.333-14l-156-15.333L554-648.667q3.667-5 3.5-10.167-.167-5.166-4.167-9.833-4.666-5-11-4.833-6.333.166-11.333 4.833l-198.334 178Q323-482 327-470q4 12 17.333 14l156 15.333L406-312.333q-3.667 5-3.334 10.167.334 5.166 5.001 9.833 4.666 4.667 10.5 4.667 5.833 0 10.833-4.667Zm51 159q-63.334 0-119.167-20.833-55.834-20.833-101.5-58.167l-69.001 69.001q-5.333 5.333-11.166 7.666-5.834 2.333-12.5 2.333-13.667 0-23.5-9.833t-9.833-23.5q0-6.666 2.333-12.5 2.333-5.833 7.666-11.166l69.001-69.001q-37.334-45.666-58.167-101.5Q133.333-416.666 133.333-480q0-144.667 101-245.667t245.667-101h280.001q27.667 0 47.167 19.499 19.499 19.5 19.499 47.167V-480q0 144.667-101 245.667T480-133.333ZM480-480Z"/></svg>