<svg xmlns="http://www.w3.org/2000/svg" height="40" viewBox="0 -960 960 960" width="40"><path d="M246.667-406.667h-93.334q-14.166 0-23.75-9.617Q120-425.901 120-440.117q0-14.216 9.583-23.716 9.584-9.5 23.75-9.5h93.334v-93.334q0-14.166 9.617-23.75Q265.901-600 280.117-600q14.216 0 23.716 9.583 9.5 9.584 9.5 23.75v93.334h93.334q14.166 0 23.75 9.617Q440-454.099 440-439.883q0 14.216-9.583 23.716-9.584 9.5-23.75 9.5h-93.334v93.334q0 14.166-9.617 23.75Q294.099-280 279.883-280q-14.216 0-23.716-9.583-9.5-9.584-9.5-23.75v-93.334Zm396.667-250.667L576.333-609q-12 9-26.499 5.833-14.5-3.167-23.097-15.753-7.737-11.747-5.403-25.247 2.333-13.5 14.333-22.166l121.667-88.334q3.333-2.333 7.333-3.833t8.444-1.5h19.556q11.958 0 19.645 7.688Q720-744.625 720-732.667v494.334q0 15.666-11.333 27-11.334 11.333-27 11.333-15.667 0-27-11.333-11.333-11.334-11.333-27v-419.001Z"/></svg>