<svg xmlns="http://www.w3.org/2000/svg" height="40" viewBox="0 -960 960 960" width="40"><path d="M270-346.666q33.667 0 60.833-20.334Q358-387.333 370-420.333L385-465q19.334-55.333-6.666-101.834-26.001-46.5-76.334-46.5H146.333L166.666-439q5 39.667 34.167 66Q230-346.666 270-346.666Zm420 0q40 0 69.167-26.667t34.167-66.334l20.333-173.667H659q-50.333 0-76.334 46.667-26 46.667-7.333 102.667L590-420.333q11.333 33 38.833 53.333 27.5 20.334 61.167 20.334ZM270.667-280q-65.334 0-113.5-43.167Q109-366.333 101-432.333L78.667-613.334h-5.334q-14.333 0-23.833-9.5-9.5-9.5-9.5-23.833Q40-661 49.5-670.5 59-680 73.333-680H300q41.333 0 77.833 22.167 36.5 22.166 60.834 61.833h83.666q24.334-39.667 60.834-61.833Q619.667-680 661-680h225.667q14.333 0 23.833 9.5 9.5 9.5 9.5 23.833 0 14.333-9.5 23.833-9.5 9.5-23.833 9.5h-5.334L859-432.333q-8 66-56.167 109.166Q754.667-280 689.333-280 635-280 590.5-312.167q-44.5-32.166-63.833-86.166l-15-42.334q-2.667-8.333-5-18.166-2.334-9.834-4.334-23.834h-44.666q-2 12.667-4.334 22.167-2.333 9.5-5 17.833l-15 43.334q-19.333 54-63.833 86.666Q325-280 270.667-280Z"/></svg>