<svg xmlns="http://www.w3.org/2000/svg" viewBox="0 -960 960 960" width="32" height="32"><path d="M480-880q41 0 78.33 7.5 37.34 7.5 83.67 25.83l-91.33 41q-16.67-4-32.17-5.83t-38.5-1.83q-18 0-39.33 2.33-21.34 2.33-40 8 64 80 140.33 128.83 76.33 48.84 199.67 40.84h4.66l27 63.66q-118.66 15-217-23.66-98.33-38.67-170-124Q351-635 288.5-576.33q-62.5 58.66-141.83 89.66 0 143 97.16 241.5Q341-146.67 480-146.67q140.67 0 237.33-98.33 96.67-98.33 96-235 0-19.33-2-34.5-2-15.17-4-29.5L848-637.67q16.67 42.67 24.33 78.34Q880-523.67 880-480q0 82-30.83 154.83Q818.33-252.33 764.5-198t-126.83 86.17Q564.67-80 480-80q-83.33 0-156.33-31.17-73-31.16-127.17-85.33t-85.33-127.17Q80-396.67 80-480q0-84.67 31.67-157.83 31.66-73.17 86.16-127 54.5-53.84 127.17-84.5Q397.67-880 480-880ZM356-490.67q22.33 0 37.5 15.17 15.17 15.17 15.17 37.5t-15.17 37.5q-15.17 15.17-37.5 15.17t-37.5-15.17q-15.17-15.17-15.17-37.5t15.17-37.5q15.17-15.17 37.5-15.17ZM574.33-718Zm30.34 227.33q22.33 0 37.5 15.17 15.16 15.17 15.16 37.5t-15.16 37.5q-15.17 15.17-37.5 15.17-22.34 0-37.5-15.17Q552-415.67 552-438t15.17-37.5q15.16-15.17 37.5-15.17Zm146.66-260L682-781q-8-3.67-8-12.33 0-8.67 8-12.34l69.33-29.66L783.67-908q3.66-8 12.33-7.67 8.67.34 12.33 8.34l31.67 72 69.33 29.66q8 3.67 8 12.34 0 8.66-8 12.33L840-750.67l-31.67 72q-3.66 8-12.33 8.34-8.67.33-12.33-7.67l-32.34-72.67ZM159-567q49-21.67 102.67-79 53.66-57.33 77.33-136.33-75 35.66-117.33 91Q179.33-636 159-567Zm180-215.33Z"/></svg>