<svg xmlns="http://www.w3.org/2000/svg" height="40" viewBox="0 -960 960 960" width="40"><path d="M271.333-449.334h294q14.167 0 23.75-9.617 9.584-9.616 9.584-23.833 0-14.216-9.584-23.716-9.583-9.5-23.75-9.5h-294q-14.166 0-23.75 9.617Q238-496.766 238-482.55q0 14.217 9.583 23.716 9.584 9.5 23.75 9.5Zm0-126h294q14.167 0 23.75-9.617 9.584-9.617 9.584-23.833 0-14.216-9.584-23.716-9.583-9.5-23.75-9.5h-294q-14.166 0-23.75 9.617Q238-622.766 238-608.55q0 14.216 9.583 23.716 9.584 9.5 23.75 9.5ZM146.666-160q-27 0-46.833-19.833T80-226.666v-506.668q0-27 19.833-46.833T146.666-800h666.668q27 0 46.833 19.833T880-733.334v506.668q0 27-19.833 46.833T813.334-160H146.666Zm0-66.666h666.668v-506.668H146.666v506.668Zm0 0v-506.668 506.668Z"/></svg>