<svg xmlns="http://www.w3.org/2000/svg" height="40" viewBox="0 -960 960 960" width="40"><path d="M229.333-405.333h294q14.167 0 23.75-9.584 9.584-9.583 9.584-23.75v-212q0-14.167-9.584-23.75Q537.5-684 523.333-684h-294q-14.167 0-23.75 9.583T196-650.667v212q0 14.167 9.583 23.75 9.583 9.584 23.75 9.584ZM146.666-160q-27 0-46.833-19.833T80-226.666v-506.668q0-27 19.833-46.833T146.666-800h666.668q27 0 46.833 19.833T880-733.334v506.668q0 27-19.833 46.833T813.334-160H146.666Zm0-66.666h666.668v-506.668H146.666v506.668Zm0 0v-506.668 506.668Z"/></svg>