<svg xmlns="http://www.w3.org/2000/svg" height="40" viewBox="0 -960 960 960" width="40"><path d="M240-160q-14.167 0-23.75-9.583-9.583-9.584-9.583-23.75v-133.334h-53.334q-13.666 0-23.5-9.583Q120-345.833 120-360t9.5-23.75q9.5-9.583 23.833-9.583h53.334v-93.334h-53.334q-13.666 0-23.5-9.583Q120-505.833 120-520t9.5-23.75q9.5-9.583 23.833-9.583h53.334v-119.001q0-6.608 2.333-12.804 2.333-6.195 7.667-11.529l80-80q10-10 23.333-10 13.333 0 23.333 10L400-720l56.667-56.667q10.044-10 23.855-10t23.811 10L561-720l55.667-56.667q10.044-10 23.855-10t23.811 10l80 80q5.334 5.334 7.667 11.529 2.333 6.196 2.333 12.804v119.001h52.334q14.166 0 23.75 9.617Q840-534.099 840-519.883q0 14.216-9.583 23.716-9.584 9.5-23.75 9.5h-52.334v93.334h52.334q14.166 0 23.75 9.617Q840-374.099 840-359.883q0 14.216-9.583 23.716-9.584 9.5-23.75 9.5h-52.334v133.334q0 14.166-9.583 23.75Q735.167-160 721-160H240Zm33.333-393.333h93.334V-659L320-705.667 273.333-659v105.667Zm160 0h93.334V-659L480-705.667 433.333-659v105.667Zm161 0h92.334V-659L640-705.667 594.333-660v106.667Zm-321 160h93.334v-93.334h-93.334v93.334Zm160 0h93.334v-93.334h-93.334v93.334Zm161 0h92.334v-93.334h-92.334v93.334Zm-321 166.667h93.334v-100.001h-93.334v100.001Zm160 0h93.334v-100.001h-93.334v100.001Zm161 0h92.334v-100.001h-92.334v100.001Z"/></svg>