<svg xmlns="http://www.w3.org/2000/svg" height="40" viewBox="0 -960 960 960" width="40"><path d="M773.334-173.333H279.999q-27 0-46.833-19.833t-19.833-46.833v-613.335q0-27 19.833-46.833T279.999-920h297.668q13.63 0 25.981 5.333Q616-909.333 625-900.333L820.333-705q9 9 14.334 21.352Q840-671.297 840-657.667v417.668q0 27-19.833 46.833t-46.833 19.833Zm0-481.334H622q-20.833 0-35.416-14.583Q572-683.834 572-704.667v-148.667H279.999v613.335h493.335v-414.668ZM146.666-40q-27 0-46.833-19.833T80-106.666v-566.002q0-14.166 9.617-23.749 9.617-9.584 23.833-9.584 14.216 0 23.716 9.584 9.5 9.583 9.5 23.749v566.002h445.335q14.167 0 23.75 9.617t9.583 23.833q0 14.216-9.583 23.716-9.583 9.5-23.75 9.5H146.666Zm133.333-813.334v198.667-198.667 613.335-613.335Z"/></svg>