<svg xmlns="http://www.w3.org/2000/svg" height="40" viewBox="0 -960 960 960" width="40"><path d="m584-470.333-47.667-47.666 169.668-215.335H320.999L254.333-800H768q22.333 0 32.667 20 10.333 20-4 38L584-470.333Zm-24 165.332V-200q0 17-11.5 28.5T520-160h-80q-17 0-28.5-11.5T400-200v-265.001L82.667-782.334Q73-792.001 73-805.834t9.667-23.833q10-10 23.833-10 13.833 0 23.833 10L830-130q10 10 9.834 23.333-.167 13.334-10.167 23.334-10 9.666-23.667 9.833-13.666.167-23.666-9.833L560-305.001Zm-23.667-212.998Z"/></svg>