<svg xmlns="http://www.w3.org/2000/svg" height="40" viewBox="0 -960 960 960" width="40"><path d="M186.666-120q-27 0-46.833-19.833T120-186.666v-134.667q0-14.167 9.617-23.75 9.617-9.584 23.833-9.584 14.216 0 23.716 9.584 9.5 9.583 9.5 23.75v134.667h134.667q14.167 0 23.75 9.617 9.584 9.617 9.584 23.833 0 14.216-9.584 23.716-9.583 9.5-23.75 9.5H186.666Zm586.668 0H638.667q-14.167 0-23.75-9.617-9.584-9.617-9.584-23.833 0-14.216 9.584-23.716 9.583-9.5 23.75-9.5h134.667v-134.667q0-14.167 9.617-23.75 9.617-9.584 23.833-9.584 14.216 0 23.716 9.584 9.5 9.583 9.5 23.75v134.667q0 27-19.833 46.833T773.334-120ZM120-638.667v-134.667q0-27 19.833-46.833T186.666-840h134.667q14.167 0 23.75 9.617 9.584 9.617 9.584 23.833 0 14.216-9.584 23.716-9.583 9.5-23.75 9.5H186.666v134.667q0 14.167-9.617 23.75-9.617 9.584-23.833 9.584-14.216 0-23.716-9.584-9.5-9.583-9.5-23.75Zm653.334 0v-134.667H638.667q-14.167 0-23.75-9.617-9.584-9.617-9.584-23.833 0-14.216 9.584-23.716 9.583-9.5 23.75-9.5h134.667q27 0 46.833 19.833T840-773.334v134.667q0 14.167-9.617 23.75-9.617 9.584-23.833 9.584-14.216 0-23.716-9.584-9.5-9.583-9.5-23.75ZM480-370.667q-46.667 0-78-31.333t-31.333-78q0-46.667 31.333-78t78-31.333q46.667 0 78 31.333t31.333 78q0 46.667-31.333 78t-78 31.333Zm0-66.666q17.667 0 30.167-12.5t12.5-30.167q0-17.667-12.5-30.167T480-522.667q-17.667 0-30.167 12.5T437.333-480q0 17.667 12.5 30.167t30.167 12.5Z"/></svg>