<svg xmlns="http://www.w3.org/2000/svg" height="40" viewBox="0 -960 960 960" width="40"><path d="M417.333-273.333q13.667 11 28.5 15.833 14.834 4.834 30.167 4.834 30.272 0 54.803-19.167Q555.333-291 560-326.666q5-48.334-30.333-72.167-35.334-23.834-54.334-61.167-5 15.333-5.333 26.667-.333 11.333 3.333 26.666 3 19 7.667 33.667 4.667 14.667 1 33-5 20-22.333 39.334-17.334 19.333-42.334 27.333ZM80-146.666v-666.668q0-27.5 19.583-47.083T146.666-880h666.668q27.5 0 47.083 19.583T880-813.334v666.668q0 27.5-19.583 47.083T813.334-80H146.666q-27.5 0-47.083-19.583T80-146.666Zm400.039-66.667q51.961 0 87.961-36.166 36-36.167 36-87.834 0-23.333-10.333-41.333-10.334-18-27-30-40.667-26.333-65.5-62.5-24.834-36.167-37.167-66.167-50.667 35-79.667 84.5t-29 112.834q0 59 37.412 92.833t87.294 33.833Zm-333.373 66.667H240v-33.45q0-14.217 9.583-23.717 9.584-9.5 23.75-9.5H334q-22.333-26.999-33.833-58.999t-11.5-67.667q0-97.667 48-164.167t129-115.167q7.333-4.666 15.228-4.666 7.894 0 15 3 7.105 3 12.438 9.333t7 14.666q10 44.001 31.667 74.001 21.666 30 56.333 57.667 33.667 26.666 50.5 56.833 16.833 30.167 16.833 71.166 0 37.234-12.333 68.617Q646-237.332 624-213.333h62.667q14.166 0 23.75 9.584 9.583 9.583 9.583 23.75v33.333h93.334v-666.668H146.666v666.668ZM480-213.333Z"/></svg>