<svg xmlns="http://www.w3.org/2000/svg" height="40" viewBox="0 -960 960 960" width="40"><path d="M661.667-813.334 600-600h64.334q29.915 0 44.457 26.667 14.543 26.666-3.124 51.999L658-452.666q-9.284 12.368-24.475 14.017Q618.333-437 607-448.333q-8.667-8.666-9.5-20-.833-11.333 5.833-21.333l30.001-43.668h-77.667q-16.97 0-27.151-13.166-10.182-13.167-5.182-29.167l68.667-237.667H313.333q-14.166 0-23.75-9.617Q280-832.568 280-846.784q0-14.216 9.583-23.716 9.584-9.5 23.75-9.5H610q26 0 42.5 20.667 16.5 20.666 9.167 45.999Zm120.667 730-225-224-111.668 161.668Q440.333-138 432.833-136t-15.1-.437q-7.6-2.438-12.666-8.531Q400-151.062 400-160v-240h-53.334q-27.5 0-47.083-19.583T280-466.666v-118.001L82.333-782.334q-10-10.044-10-23.855T82.368-830q10.035-10 23.834-10Q120-840 130-830l700 700q10 10 10 23.333 0 13.334-10.035 23.334t-23.833 10q-13.798 0-23.798-10ZM456.667-640.666Z"/></svg>