<svg xmlns="http://www.w3.org/2000/svg" height="40" viewBox="0 -960 960 960" width="40"><path d="M40-113.333v-293.334q0-14.166 9.583-23.75Q59.167-440 73.333-440h173.334q14.166 0 23.75 9.583 9.583 9.584 9.583 23.75v293.334q0 14.166-9.583 23.75Q260.833-80 246.667-80H73.333q-14.166 0-23.75-9.583Q40-99.167 40-113.333Zm320 0v-293.334q0-14.166 9.583-23.75 9.584-9.583 23.75-9.583h173.334q14.166 0 23.75 9.583 9.583 9.584 9.583 23.75v293.334q0 14.166-9.583 23.75Q580.833-80 566.667-80H393.333q-14.166 0-23.75-9.583Q360-99.167 360-113.333Zm320 0v-293.334q0-14.166 9.583-23.75 9.584-9.583 23.75-9.583h173.334q14.166 0 23.75 9.583 9.583 9.584 9.583 23.75v293.334q0 14.166-9.583 23.75Q900.833-80 886.667-80H713.333q-14.166 0-23.75-9.583Q680-99.167 680-113.333Zm-253.334-33.333h106.668v-226.668H426.666v226.668ZM40-553.333v-293.334q0-14.166 9.583-23.75Q59.167-880 73.333-880h173.334q14.166 0 23.75 9.583 9.583 9.584 9.583 23.75v293.334q0 14.166-9.583 23.75-9.584 9.583-23.75 9.583H73.333q-14.166 0-23.75-9.583Q40-539.167 40-553.333Zm320 0v-293.334q0-14.166 9.583-23.75 9.584-9.583 23.75-9.583h173.334q14.166 0 23.75 9.583 9.583 9.584 9.583 23.75v293.334q0 14.166-9.583 23.75-9.584 9.583-23.75 9.583H393.333q-14.166 0-23.75-9.583-9.583-9.584-9.583-23.75Zm320 0v-293.334q0-14.166 9.583-23.75 9.584-9.583 23.75-9.583h173.334q14.166 0 23.75 9.583 9.583 9.584 9.583 23.75v293.334q0 14.166-9.583 23.75-9.584 9.583-23.75 9.583H713.333q-14.166 0-23.75-9.583-9.583-9.584-9.583-23.75Zm-573.334-33.333h106.668v-226.668H106.666v226.668Zm640 0h106.668v-226.668H746.666v226.668Z"/></svg>