<svg xmlns="http://www.w3.org/2000/svg" height="40" viewBox="0 -960 960 960" width="40"><path d="M628.667-438q-6 61.667-47.333 105.5Q540-288.666 480-288.666q-9.333 0-18.333-1.334-9-1.333-18.334-3.333-7.333-2-14.666-.333-7.334 1.666-12.667 7-10.333 10.333-7.667 23.833 2.667 13.5 15.334 18.5 14 5 28.166 7 14.167 2 28.167 2 83 0 139.667-59.167 56.666-59.167 61.666-142.834l16.334 16.001q8.333 8 19 8.333 10.667.333 18.667-7.667 8.333-8.333 8.499-19.166.167-10.834-8.166-19.167L678-516q-9.667-9.667-23.333-9.667-13.667 0-23.333 9.667l-57.001 57Q566-450.667 566-440t8.333 19q8.334 8.333 18.667 8.333 10.333 0 18.667-8.333l17-17ZM280-438l-16.334-16q-8.333-8-19-8Q234-462 226-454q-8.333 8.334-8.5 18.833-.167 10.5 8.167 18.834l57 57q9.666 9.667 23.666 9.667T330-359.333l57-57q8.333-8.334 8.333-19 0-10.667-8.333-19t-18.667-8.333q-10.333 0-18.666 8.333l-17.001 17q6-61.667 47.334-105.5 41.333-43.834 101.333-43.834 9.334 0 18.334 1.334Q508.667-584 518-582q7.333 2 14.667.333 7.333-1.666 12.666-7Q555.667-599 553-612.5q-2.667-13.5-15.333-18.5-14-5-28.167-7-14.167-2-28.167-2-83 0-139.666 59.167Q285-521.666 280-438ZM146.666-120q-27 0-46.833-19.833T80-186.666v-502.001q0-26.333 19.833-46.5 19.833-20.166 46.833-20.166h140.001l53.333-62q9-11.334 22.167-17Q375.333-840 390.333-840h179.334q15 0 28.166 5.667 13.167 5.666 22.167 17l53.333 62h140.001q26.333 0 46.499 20.166Q880-715 880-688.667v502.001q0 27-20.167 46.833Q839.667-120 813.334-120H146.666Zm0-66.666h666.668v-502.001H642.667l-73-84.667H390.333l-73 84.667H146.666v502.001ZM480-438Z"/></svg>