<svg xmlns="http://www.w3.org/2000/svg" height="40" viewBox="0 -960 960 960" width="40"><path d="M146.666-160q-27 0-46.833-20.167Q80-200.333 80-226.666v-506.668q0-26.333 19.833-46.499Q119.666-800 146.666-800h239.668q13.629 0 25.981 5.333 12.352 5.334 21.411 14.392l46.941 46.941h332.667q26.333 0 46.499 20.167Q880-693.001 880-666.667v440.001q0 26.333-20.167 46.499Q839.667-160 813.334-160H146.666Zm0-66.666h666.668v-440.001H453l-66.666-66.667H146.666v506.668Zm0 0v-506.668 506.668ZM595.667-362l69 49q5.333 3.667 9.833.378 4.5-3.289 2.5-9.045l-25.667-85L722-465.333q4.333-4.074 2.333-9.371-2-5.296-7.666-5.296h-85.334L604-562.667q-2-5.666-8-5.666t-8 5.666L560-480h-85.333Q469-480 467-474.704q-2 5.297 2.333 9.371L540-406.667l-26.333 85q-2 5.667 2.833 9.334 4.833 3.666 10.167 0l69-49.667Z"/></svg>