<svg xmlns="http://www.w3.org/2000/svg" height="40" viewBox="0 -960 960 960" width="40"><path d="M805-60.943 785.001-80H149.333q-28.6 0-48.966-20.171Q80-120.341 80-148.666v-636.335l-30.334-30.333q-10-10.044-10-23.855T49.703-863q10.035-10 23.833-10 13.798 0 23.798 10l755.334 755.333q10 10 10 23.334Q862.667-71 852.632-61q-10.035 10-23.833 10Q815-51 805-60.943Zm-657.667-85.723h571.001L147.333-717.668v571.002ZM880-810.667v555.668q0 22.404-20.167 30.702-20.166 8.298-35.833-7.369-5.333-5.333-7.666-11.311Q814-248.955 814-255.332v-558.002H255.999q-6.377 0-12.355-2.333-5.978-2.333-11.312-7.667Q216.666-839 225.27-859.5q8.604-20.5 30.729-20.5h555.335q28.325 0 48.495 20.367Q880-839.267 880-810.667ZM626.667-428.999 519.334-536.332l-38.001-106.335h-2.666L461-594.666l-46.667-46.667 21.667-57Q439.667-708 448.161-714q8.495-6 18.689-6h25.483Q503-720 511-714.333q8 5.666 12.333 15.333l103.334 270.001Zm-193.333-3.668ZM528.666-528Zm45.001 141.334 109 108.999q3.333 14-6.5 25.834Q666.333-240 649.667-240q-10.667 0-19-6.067-8.333-6.066-11.667-15.6l-45.333-124.999Zm-195 23.333-37.001 101.666q-3.481 9.534-12.185 15.6Q320.778-240 310.333-240q-18 0-28.166-14.5-10.167-14.5-3.5-31.166L388-572.333l48.667 48.666-36.001 100.334H537l60 60H378.667Z"/></svg>