<svg xmlns="http://www.w3.org/2000/svg" height="40" viewBox="0 -960 960 960" width="40"><path d="m525.333-713.001-58 58.001q-10 10-23.333 9.833-13.334-.166-23.334-10.166-9.666-10-9.833-23.334Q410.667-692 420.666-702l114.667-114.667q10-10 23.334-10 13.333 0 23.333 10L696.667-702q9.666 9.667 9.833 23.167.167 13.5-9.833 23.5-9.667 9.666-23.333 9.666-13.667 0-23.334-9.666l-58-57.668v559.668q0 14.333-9.5 23.833-9.5 9.5-23.833 9.5-14.334 0-23.834-9.5t-9.5-23.833v-133.334q-18.666-63.333-65.5-96.167Q413-415.667 357-415.667q-19 0-37.334 2.5-18.333 2.5-32.667 6.5L345-348.666q9.667 9.666 9.667 23.166t-10 23.5q-9.667 9.667-23.334 9.667-13.666 0-23.333-9.667L183.333-416.667q-10-10-10-23.333 0-13.333 10-23.333L298-578q9.667-9.667 23.167-9.833 13.5-.167 23.5 9.833 9.666 9.666 9.666 23.333 0 13.667-9.666 23.333l-57.668 58.001q15.667-4 33.667-6.334Q338.667-482 353-482q56 0 98.334 18.5 42.333 18.5 73.999 50.834v-300.335Z"/></svg>