<svg xmlns="http://www.w3.org/2000/svg" height="40" viewBox="0 -960 960 960" width="40"><path d="M113.333 0Q99 0 89.5-9.5 80-19 80-33.333v-93.334Q80-141 89.5-150.5q9.5-9.5 23.833-9.5h733.334q14.333 0 23.833 9.5 9.5 9.5 9.5 23.833v93.334Q880-19 870.5-9.5 861 0 846.667 0H113.333Zm162.333-280q-20.333 0-31.499-16.833-11.167-16.834-3.834-35.5L427-814q5-12 15-19t22-7h32q12.333 0 22.167 7Q528-826 533-814l187 482.667q7.333 18.666-4.167 35Q704.333-280 684.667-280q-12 0-22-6.667-10-6.666-14.333-18.666l-45-122.667H357.333L311-304.333Q306.666-293 297.166-286.5q-9.5 6.5-21.5 6.5Zm107-217.333h194.668L482-755.334h-4l-95.334 258.001Z"/></svg>