<svg xmlns="http://www.w3.org/2000/svg" viewBox="0 -960 960 960" width="32" height="32"><path d="M846.89-127.33q-6.22 0-12.22-2.34-6-2.33-11.34-7.66L720.67-240h-414q-27.5 0-47.09-19.58Q240-279.17 240-306.67v-66.66h440q27.5 0 47.08-19.59 19.59-19.58 19.59-47.08v-280h66.66q27.5 0 47.09 19.58Q880-680.83 880-653.33V-161q0 15.33-10.33 24.5-10.34 9.17-22.78 9.17ZM146.67-441l65.66-65.67h401v-306.66H146.67V-441Zm-33.56 114.33q-12.44 0-22.78-9.16Q80-345 80-360.33v-453q0-27.5 19.58-47.09Q119.17-880 146.67-880h466.66q27.5 0 47.09 19.58Q680-840.83 680-813.33v306.66q0 27.5-19.58 47.09Q640.83-440 613.33-440H240L136.67-336.67q-5.34 5.34-11.34 7.67t-12.22 2.33Zm33.56-180v-306.66 306.66Z"/></svg>