<svg xmlns="http://www.w3.org/2000/svg" height="40" viewBox="0 -960 960 960" width="40"><path d="m804.667-60.943-20-19.057h-106q-14.167 0-23.75-9.617-9.584-9.617-9.584-23.833 0-14.216 9.584-23.716 9.583-9.5 23.75-9.5h39.334L624.667-240H273.333q-14.166 0-23.75-9.583-9.583-9.584-9.583-23.75V-316q0-20.333 10.167-37.5 10.166-17.167 27.5-29.5Q310-406.333 352.5-419.5q42.501-13.167 75.5-17.167L146.666-718.334v39.667q0 14.167-9.617 23.75-9.617 9.584-23.833 9.584-14.216 0-23.716-9.584-9.5-9.583-9.5-23.75v-106l-30.667-30.667q-10-10.044-9.5-23.855T50.368-863q10.035-10 23.833-10Q88-873 98-863l754.333 755.333q10 10 10 23.334Q862.333-71 852.298-61q-10.035 10-23.833 10-13.798 0-23.798-9.943ZM558.001-306.666l-66.668-66.668q-53.666 0-98.333 12t-84.334 36.001v18.667h249.335ZM600-600q0 30-13.5 54.833Q573-520.333 551.333-504L503-552.333q13.667-6.333 22-18.667 8.334-12.333 8.334-29 0-22.667-15.334-38-15.333-15.334-38-15.334-16.667 0-29 8.334-12.334 8.333-18.667 22L384-671.333Q400.333-693 425.166-706.5 450-720 480-720q50 0 85 35t35 85Zm280 318.667v106l-66.666-66.666v-39.334q0-14.167 9.617-23.75 9.617-9.584 23.833-9.584 14.216 0 23.716 9.584 9.5 9.583 9.5 23.75ZM146.666-80q-27 0-46.833-19.833T80-146.666v-134.667q0-14.167 9.617-23.75 9.617-9.584 23.833-9.584 14.216 0 23.716 9.584 9.5 9.583 9.5 23.75v134.667h134.667q14.167 0 23.75 9.617 9.584 9.617 9.584 23.833 0 14.216-9.584 23.716-9.583 9.5-23.75 9.5H146.666Zm666.668-598.667v-134.667H678.667q-14.167 0-23.75-9.617-9.584-9.617-9.584-23.833 0-14.216 9.584-23.716 9.583-9.5 23.75-9.5h134.667q27 0 46.833 19.833T880-813.334v134.667q0 14.167-9.617 23.75-9.617 9.584-23.833 9.584-14.216 0-23.716-9.584-9.5-9.583-9.5-23.75Zm-345.668 91.001Zm23.667 281ZM175.333-880h106q14.167 0 23.75 9.617 9.584 9.617 9.584 23.833 0 14.216-9.584 23.716-9.583 9.5-23.75 9.5h-39.334L175.333-880Z"/></svg>