<svg xmlns="http://www.w3.org/2000/svg" height="40" viewBox="0 -960 960 960" width="40"><path d="M360-160q-134 0-227-93T40-480q0-134 93-227t227-93q134 0 227 93t93 227q0 134-93 227t-227 93Zm0-66.666q105.333 0 179.334-74 74-74.001 74-179.334t-74-179.334q-74.001-74-179.334-74t-179.334 74q-74 74.001-74 179.334t74 179.334q74.001 74 179.334 74Zm-33.333-320.001V-380q0 14.333 9.5 23.833 9.5 9.5 23.833 9.5 14.333 0 23.833-9.5 9.5-9.5 9.5-23.833v-166.667H450q9.667 0 16.5-6.833t6.833-16.5q0-9.667-6.833-16.5t-16.5-6.833H270q-9.667 0-16.5 6.833t-6.833 16.5q0 9.667 6.833 16.5t16.5 6.833h56.667Zm404.667-184.667-65.333-29.333q-10-4.334-10-15.333 0-11 10-15.334l65.333-29.333L760.667-886q4.334-10 15.333-10 11 0 15.334 10l29.333 65.333L886-791.334Q896-787 896-776q0 10.999-10 15.333l-65.333 29.333-29.333 65.333q-4.334 10-15.334 10-10.999 0-15.333-10l-29.333-65.333Zm0 592.001-65.333-29.333q-10-4.334-10-15.334 0-10.999 10-15.333l65.333-29.333 29.333-65.333q4.334-10 15.333-10 11 0 15.334 10l29.333 65.333L886-199.333q10 4.334 10 15.333 0 11-10 15.334l-65.333 29.333L791.334-74Q787-64 776-64q-10.999 0-15.333-10l-29.333-65.333ZM360-480Z"/></svg>