<svg xmlns="http://www.w3.org/2000/svg" viewBox="0 -960 960 960" width="32" height="32"><path d="M474-360q11.27 0 18.63-7.37Q500-374.73 500-386v-188q0-11.27-7.37-18.63Q485.27-600 474-600t-18.63 7.37Q448-585.27 448-574v188q0 11.27 7.37 18.63Q462.73-360 474-360Zm-198 0h82.67q15.3 0 25.65-10.35 10.35-10.35 10.35-25.65v-58q0-11.27-7.37-18.63-7.37-7.37-18.63-7.37-11.27 0-18.64 7.37-7.36 7.36-7.36 18.63v42H292v-136h76.67q11.26 0 18.63-7.37 7.37-7.36 7.37-18.63t-7.37-18.63q-7.37-7.37-18.63-7.37H276q-15.3 0-25.65 10.35Q240-579.3 240-564v168q0 15.3 10.35 25.65Q260.7-360 276-360Zm310 0q11.27 0 18.63-7.37Q612-374.73 612-386v-56.67h47.33q11.27 0 18.64-7.36 7.36-7.37 7.36-18.64 0-11.26-7.36-18.63-7.37-7.37-18.64-7.37H612V-548h88.67q11.26 0 18.63-7.37 7.37-7.36 7.37-18.63t-7.37-18.63q-7.37-7.37-18.63-7.37H586q-11.27 0-18.63 7.37Q560-585.27 560-574v188q0 11.27 7.37 18.63Q574.73-360 586-360ZM186.67-120q-27 0-46.84-19.83Q120-159.67 120-186.67v-586.66q0-27 19.83-46.84Q159.67-840 186.67-840h586.66q27 0 46.84 19.83Q840-800.33 840-773.33v586.66q0 27-19.83 46.84Q800.33-120 773.33-120H186.67Zm0-66.67h586.66v-586.66H186.67v586.66Zm0 0v-586.66 586.66Z"/></svg>