<svg xmlns="http://www.w3.org/2000/svg" height="40" viewBox="0 -960 960 960" width="40"><path d="M190-326.667q-62.667 0-106.333-43.666Q40-414 40-476.667 40-540 83.667-583.333 127.333-626.666 190-626.666q63.333 0 106.666 43.333t43.333 106.666q0 62.667-43.333 106.334Q253.333-326.667 190-326.667Zm0-66.666q37 0 60.166-23.167 23.167-23.166 23.167-60.167 0-37-23.167-60.166Q227-560 190-560t-60.167 23.167q-23.167 23.166-23.167 60.166 0 37.001 23.167 60.167Q153-393.333 190-393.333ZM680-240q-99.333 0-169.667-70.333Q440-380.667 440-480t70.333-169.667Q580.667-720 680-720t169.667 70.333Q920-579.333 920-480t-70.333 169.667Q779.333-240 680-240Z"/></svg>