<svg xmlns="http://www.w3.org/2000/svg" height="40" viewBox="0 -960 960 960" width="40"><path d="M390.667-400h178.666l36 95q3.334 9 11 14.333 7.667 5.334 17.334 5.334 16.333 0 25.166-13.167 8.834-13.167 3.167-28.167l-140.334-370q-3.333-9-11.499-14.833Q502-717.333 492-717.333h-24q-10 0-18.167 5.833-8.166 5.833-11.499 14.833L298-326.333q-5.667 15 3.5 28t25.5 13q9.667 0 17.333-5.5 7.667-5.5 11-14.5L390.667-400ZM410-454l68.667-188h2.666l69.334 188H410Zm70 374q-84.333 0-157.333-30.833-73-30.834-127-84.834t-84.834-127Q80-395.667 80-480q0-83.667 30.833-156.667 30.834-73 84.834-127t127-85.166Q395.667-880 480-880q83.667 0 156.667 31.167 73 31.166 127 85.166t85.166 127Q880-563.667 880-480q0 84.333-31.167 157.333-31.166 73-85.166 127t-127 84.834Q563.667-80 480-80Zm0-400Zm0 333.334q141 0 237.167-96.167T813.334-480q0-141-96.167-237.167T480-813.334q-141 0-237.167 96.167T146.666-480q0 141 96.167 237.167T480-146.666Z"/></svg>