<svg xmlns="http://www.w3.org/2000/svg" height="40" viewBox="0 -960 960 960" width="40"><path d="M193.333-240h-40q-30.25 0-51.791-21.542Q80-283.083 80-313.333V-480q0-100 70-170t170-70q100 0 170 70t70 170v166.667q0 30.25-21.542 51.791Q516.917-240 486.667-240h-40q-14.167 0-23.75-9.583-9.583-9.584-9.583-23.75v-120q0-14.167 9.583-23.75t23.75-9.583h66.667V-480q0-80.556-56.344-136.945-56.343-56.389-136.833-56.389t-136.991 56.389q-56.5 56.389-56.5 136.945v53.334h66.667q14.167 0 23.75 9.583t9.583 23.75v120q0 14.166-9.583 23.75Q207.5-240 193.333-240Zm538.001-444.667v-18.666q0-6.667 5-11.667T748-720h33.333Q788-720 793-715t5 11.667v18.666h46.667q15.016 0 25.175 10.158Q880-664.35 880-649.334v374.001q0 15.016-10.158 25.175Q859.683-240 844.667-240H688q-15.016 0-25.175-10.158-10.158-10.159-10.158-25.175v-374.001q0-15.016 10.158-25.175 10.159-10.158 25.175-10.158h43.334Zm-12.001 378.001h94.001-94.001Zm0 0h94.001v-311.335h-94.001v311.335Z"/></svg>