<svg xmlns="http://www.w3.org/2000/svg" height="40" viewBox="0 -960 960 960" width="40"><path d="M370.667-324.001 190.333-143.333q-10 10-23.333 10-13.334 0-23.333-9.895-10-9.895-10-23.5t10-23.605l180.334-180.334H244q-14.166 0-23.75-9.617-9.583-9.617-9.583-23.833 0-14.216 9.583-23.716 9.584-9.5 23.75-9.5h160q14.167 0 23.75 9.583t9.583 23.75v160q0 14.166-9.617 23.75-9.617 9.583-23.833 9.583-14.216 0-23.716-9.583-9.5-9.584-9.5-23.75v-80.001ZM636.666-590h80.001q14.166 0 23.749 9.617Q750-570.766 750-556.55q0 14.217-9.584 23.717-9.583 9.5-23.749 9.5h-160q-14.167 0-23.75-9.584-9.584-9.583-9.584-23.75v-160q0-14.166 9.617-23.749Q542.567-750 556.784-750q14.216 0 23.716 9.584 9.5 9.583 9.5 23.749v80.001l179.667-180.001q10-10 23.333-10 13.334 0 23.333 9.895 10 9.895 10 23.5t-10 23.605L636.666-590Z"/></svg>