<svg xmlns="http://www.w3.org/2000/svg" height="40" viewBox="0 -960 960 960" width="40"><path d="M425.333-372.667 357.666-67.333q-2.333 12-12.166 19.666Q335.666-40 323.333-40q-16.666 0-27-12.667Q286-65.333 289.333-81L403-660.667q5.333-25.666 24.333-39.166 19-13.5 40-13.5T506.5-704q18.166 9.333 29.5 27.333l39.333 64q18.667 31 50.5 55.5 31.834 24.501 74.167 37.501V-570q0-9.667 6.833-16.5 6.834-6.833 16.5-6.833 9.667 0 16.5 6.833t6.833 16.5v506.667q0 9.666-6.833 16.5Q733-40 723.333-40q-9.666 0-16.5-6.833Q700-53.667 700-63.333v-388q-50-11-93.667-37.667t-77-65.667L502-418l74.666 70.667q5.334 5.333 7.667 11.5 2.333 6.166 2.333 12.833v249.667q0 14.333-9.5 23.833-9.5 9.5-23.833 9.5Q539-40 529.5-49.5 520-59 520-73.333v-209.334l-94.667-90ZM266-446l-46-9q-13.333-2.333-20.666-13.833-7.334-11.5-5-25.167l30-157q5.333-30.666 32.666-46.833 27.334-16.167 59.667-9.833 13.666 2.333 21.166 14.166T343-668l-38 195.333q-2.333 13.667-13.833 21.334-11.5 7.666-25.167 5.333Zm267.333-303.334q-31 0-53.166-22.166Q458-793.667 458-824.667t22.167-53.166Q502.333-900 533.333-900q31 0 53.167 22.167 22.166 22.166 22.166 53.166 0 31-22.166 53.167-22.167 22.166-53.167 22.166Z"/></svg>