<svg xmlns="http://www.w3.org/2000/svg" height="40" viewBox="0 -960 960 960" width="40"><path d="M219.585-706.667q-14.415 0-24.167-9.667-9.751-9.666-9.751-23.883 0-14.216 9.751-23.833 9.752-9.617 24.167-9.617 14.415 0 24.081 9.617 9.667 9.617 9.667 23.833 0 14.217-9.667 23.883-9.666 9.667-24.081 9.667ZM385-801q-13.667 0-23.667-9.854-10-9.854-10-23.813 0-13.666 9.854-23.5Q371.041-868 385-868q13.667 0 23.5 9.833 9.833 9.834 9.833 23.5 0 13.667-9.833 23.667-9.833 10-23.5 10Zm190.117 0q-14.216 0-23.833-9.667-9.617-9.667-9.617-23.883t9.617-23.833Q560.901-868 575.117-868q14.216 0 23.883 9.617t9.667 23.833q0 14.216-9.667 23.883T575.117-801Zm165.1 94.333q-14.217 0-23.883-9.667-9.667-9.666-9.667-23.999 0-14.334 9.667-24Q726-774 740.217-774q14.216 0 23.833 9.667 9.617 9.666 9.617 24 0 14.333-9.617 23.999-9.617 9.667-23.833 9.667Zm94.333 165q-14.216 0-23.883-9.617T801-575.117q0-14.216 9.667-23.716 9.667-9.5 23.883-9.5t23.833 9.617Q868-589.099 868-574.883q0 14.216-9.617 23.716-9.617 9.5-23.833 9.5Zm.117 190.334q-13.667 0-23.667-9.854-10-9.854-10-23.813 0-13.667 9.854-23.5t23.813-9.833q13.666 0 23.5 9.833Q868-398.667 868-385t-9.833 23.667q-9.834 10-23.5 10Zm-94.252 165.666q-14.415 0-24.081-9.751-9.667-9.752-9.667-24.167 0-14.415 9.667-24.081 9.666-9.667 24.081-9.667 14.416 0 24.167 9.667 9.751 9.666 9.751 24.081t-9.751 24.167q-9.751 9.751-24.167 9.751ZM575-92q-13.667 0-23.5-9.833-9.833-9.834-9.833-23.5 0-13.667 9.833-23.667 9.833-10 23.5-10t23.667 9.854q10 9.854 10 23.813 0 13.666-9.854 23.5Q588.959-92 575-92Zm-190 0q-13.667 0-23.667-9.833-10-9.834-10-23.5 0-13.667 9.854-23.667 9.854-10 23.813-10 13.667 0 23.5 9.854t9.833 23.813q0 13.666-9.833 23.5Q398.667-92 385-92Zm-165.918-94.667q-14.415 0-23.915-9.617-9.5-9.616-9.5-23.833 0-14.216 9.617-24.049Q204.9-254 219.117-254q14.216 0 24.049 9.752Q253-234.497 253-220.082q0 14.415-9.752 23.915-9.751 9.5-24.166 9.5ZM125.45-352.333q-14.216 0-23.833-9.667Q92-371.667 92-385.883t9.617-23.833q9.617-9.617 23.833-9.617 14.216 0 23.883 9.617T159-385.883q0 14.216-9.667 23.883t-23.883 9.667Zm-.117-189.334q-13.666 0-23.5-9.833Q92-561.333 92-575t9.833-23.667q9.834-10 23.5-10 13.667 0 23.667 9.854 10 9.854 10 23.813 0 13.667-9.854 23.5t-23.813 9.833Zm388 48.213 122 122.121Q645-361.667 645-348q0 13.667-9.667 23.333Q625.667-315 612-315q-13.667 0-23.333-9.667l-132-132Q451.333-462 449-467.978q-2.333-5.979-2.333-12.355V-640q0-14.167 9.617-23.75t23.833-9.583q14.216 0 23.716 9.583 9.5 9.583 9.5 23.75v146.546Z"/></svg>