<svg xmlns="http://www.w3.org/2000/svg" height="40" viewBox="0 -960 960 960" width="40"><path d="M468-52 356.667-163.333q-8-8-3.834-18.333Q357-192 368.667-192H592q11.278 0 15.305 10.334 4.028 10.333-3.972 18.333L492-52q-5.091 5.333-11.879 5.333-6.788 0-12.121-5.333ZM146.666-280q-27 0-46.833-19.833T80-346.666v-426.668q0-27 19.833-46.833T146.666-840h666.668q27 0 46.833 19.833T880-773.334v426.668q0 27-19.833 46.833T813.334-280H146.666Zm0-66.666h666.668v-426.668H146.666v426.668ZM356-403.333h248.667q14.166 0 23.75-9.617Q638-422.567 638-436.784q0-14.216-9.583-23.716-9.584-9.5-23.75-9.5H356q-14.167 0-23.75 9.617t-9.583 23.833q0 14.217 9.583 23.717 9.583 9.5 23.75 9.5Zm-209.334 56.667v-426.668 426.668ZM231.45-650q14.216 0 23.716-9.617 9.5-9.617 9.5-23.833 0-14.217-9.617-23.717-9.617-9.5-23.833-9.5-14.216 0-23.716 9.617-9.5 9.617-9.5 23.834 0 14.216 9.617 23.716 9.617 9.5 23.833 9.5Zm124.667 0q14.216 0 23.716-9.617 9.5-9.617 9.5-23.833 0-14.217-9.617-23.717-9.617-9.5-23.833-9.5-14.216 0-23.716 9.617-9.5 9.617-9.5 23.834 0 14.216 9.617 23.716 9.617 9.5 23.833 9.5Zm124 0q14.216 0 23.716-9.617 9.5-9.617 9.5-23.833 0-14.217-9.617-23.717-9.617-9.5-23.833-9.5-14.216 0-23.716 9.617-9.5 9.617-9.5 23.834 0 14.216 9.617 23.716 9.617 9.5 23.833 9.5Zm124.667 0q14.216 0 23.716-9.617 9.5-9.617 9.5-23.833 0-14.217-9.617-23.717-9.617-9.5-23.833-9.5-14.216 0-23.716 9.617-9.5 9.617-9.5 23.834 0 14.216 9.617 23.716 9.617 9.5 23.833 9.5Zm124 0q14.216 0 23.716-9.617 9.5-9.617 9.5-23.833 0-14.217-9.617-23.717-9.617-9.5-23.833-9.5-14.216 0-23.716 9.617-9.5 9.617-9.5 23.834 0 14.216 9.617 23.716 9.617 9.5 23.833 9.5ZM231.45-526.667q14.216 0 23.716-9.617 9.5-9.617 9.5-23.833 0-14.216-9.617-23.716-9.617-9.5-23.833-9.5-14.216 0-23.716 9.617-9.5 9.617-9.5 23.833 0 14.216 9.617 23.716 9.617 9.5 23.833 9.5Zm124.667 0q14.216 0 23.716-9.617 9.5-9.617 9.5-23.833 0-14.216-9.617-23.716-9.617-9.5-23.833-9.5-14.216 0-23.716 9.617-9.5 9.617-9.5 23.833 0 14.216 9.617 23.716 9.617 9.5 23.833 9.5Zm124 0q14.216 0 23.716-9.617 9.5-9.617 9.5-23.833 0-14.216-9.617-23.716-9.617-9.5-23.833-9.5-14.216 0-23.716 9.617-9.5 9.617-9.5 23.833 0 14.216 9.617 23.716 9.617 9.5 23.833 9.5Zm124.667 0q14.216 0 23.716-9.617 9.5-9.617 9.5-23.833 0-14.216-9.617-23.716-9.617-9.5-23.833-9.5-14.216 0-23.716 9.617-9.5 9.617-9.5 23.833 0 14.216 9.617 23.716 9.617 9.5 23.833 9.5Zm124 0q14.216 0 23.716-9.617 9.5-9.617 9.5-23.833 0-14.216-9.617-23.716-9.617-9.5-23.833-9.5-14.216 0-23.716 9.617-9.5 9.617-9.5 23.833 0 14.216 9.617 23.716 9.617 9.5 23.833 9.5Z"/></svg>