<svg xmlns="http://www.w3.org/2000/svg" height="40" viewBox="0 -960 960 960" width="40"><path d="M226.666-346.666H370v-266.668H226.666v266.668ZM193.333-280q-14.166 0-23.75-9.583-9.583-9.584-9.583-23.75v-333.334q0-14.166 9.583-23.75 9.584-9.583 23.75-9.583H370q27.5 0 47.083 19.583t19.583 47.083v266.668q0 27.5-19.583 47.083T370-280H193.333Zm461.404 0q-10.737 0-19.348-6.538-8.611-6.539-12.055-16.129L507-638.667Q501.667-654 510.901-667q9.235-13 26.025-13 10.074 0 18.407 6.154T567-658.667l100 284.001 99.334-284.001q3.333-9.025 11.666-15.179Q786.334-680 796.334-680q15.999 0 25.666 13.167 9.667 13.166 4.333 28.833l-117 335.333q-3.481 9.59-12.185 16.129Q688.444-280 678-280h-23.263Z"/></svg>