<svg xmlns="http://www.w3.org/2000/svg" height="40" viewBox="0 -960 960 960" width="40"><path d="M782-100 650-231l-33.333 101q-4.334 12-16.334 11.5T584.667-131L489-450q-2.667-9 4.667-16.333Q501-473.667 510-471l319 95.667q12 3.666 12.5 15.666T830-343.333L729-310l132 132q17 17 17 39t-17 39q-17 17-39.5 17T782-100ZM240-480q0-100 70-170t170-70q79.667 0 140.833 45.167 61.167 45.166 85.834 116.5 4.666 13.333-1.167 25.666-5.833 12.334-19.167 17-13.333 4.667-25.499-1.5-12.167-6.166-16.834-19.5-17-51-61.666-83.833Q537.667-653.334 480-653.334q-72 0-122.667 50.667T306.666-480q0 57 32.834 102 32.833 45 83.833 62 13.334 4.667 19.5 17 6.167 12.334 1.5 25.667-4.666 13.333-17 19.333-12.333 6-25.666 1.333-72.334-24.666-117-87.166Q240-402.333 240-480Z"/></svg>