<svg xmlns="http://www.w3.org/2000/svg" height="40" viewBox="0 -960 960 960" width="40"><path d="M479.843-346.666q55.49 0 94.491-38.844 39-38.843 39-94.333 0-55.49-38.844-94.491-38.843-39-94.333-39-55.49 0-94.491 38.844-39 38.843-39 94.333 0 55.49 38.844 94.491 38.843 39 94.333 39ZM480-280q-83 0-141.5-58.5T280-480q0-83 58.5-141.5T480-680q83 0 141.5 58.5T680-480q0 83-58.5 141.5T480-280ZM73.333-446.667q-14.166 0-23.75-9.617Q40-465.901 40-480.117q0-14.216 9.583-23.716 9.584-9.5 23.75-9.5h93.334q14.166 0 23.75 9.617Q200-494.099 200-479.883q0 14.216-9.583 23.716-9.584 9.5-23.75 9.5H73.333Zm720 0q-14.166 0-23.75-9.617Q760-465.901 760-480.117q0-14.216 9.583-23.716 9.584-9.5 23.75-9.5h93.334q14.166 0 23.75 9.617Q920-494.099 920-479.883q0 14.216-9.583 23.716-9.584 9.5-23.75 9.5h-93.334ZM479.883-760q-14.216 0-23.716-9.583-9.5-9.584-9.5-23.75v-93.334q0-14.166 9.617-23.75Q465.901-920 480.117-920q14.216 0 23.716 9.583 9.5 9.584 9.5 23.75v93.334q0 14.166-9.617 23.75Q494.099-760 479.883-760Zm0 720q-14.216 0-23.716-9.583-9.5-9.584-9.5-23.75v-93.334q0-14.166 9.617-23.75Q465.901-200 480.117-200q14.216 0 23.716 9.583 9.5 9.584 9.5 23.75v93.334q0 14.166-9.617 23.75Q494.099-40 479.883-40ZM235.334-678 183-729.334q-10-9.666-9.586-23.735.414-14.069 9.517-24 9.931-9.931 24-9.931t23.735 10L282-724.666q9 10 9 23.333 0 13.333-9 23-9 9.666-22.833 9.5Q245.334-669 235.334-678Zm494 495L678-235.334q-9-10-9-23.749 0-13.75 9.333-22.917 9.334-10 22.834-9.833 13.499.166 23.499 9.833L777-230.666q10 9.666 9.586 23.735-.414 14.069-9.517 24-9.931 9.931-24 9.931t-23.735-10ZM678-678q-10-9.667-9.833-23.167.166-13.499 9.833-23.499L729.334-777q9.666-10 23.735-9.586 14.069.414 24 9.517 9.931 9.931 9.931 24t-10 23.735L724.666-678q-9.333 9-22.909 9-13.575 0-23.757-9ZM182.931-182.931q-9.931-9.931-9.931-24t10-23.735L235.334-282q9.866-9.667 23.433-9.667 13.566 0 22.972 9.667 10.261 9.667 10.094 23.167-.166 13.499-9.833 23.499L230.666-183q-9.666 10-23.735 9.586-14.069-.414-24-9.517ZM480-480Z"/></svg>