<svg xmlns="http://www.w3.org/2000/svg" height="40" viewBox="0 -960 960 960" width="40"><path d="m520-810 253.333 190q12.5 9.167 19.584 23.333 7.083 14.167 7.083 30v380.001q0 27.5-19.583 47.083T733.334-120H226.666q-27.5 0-47.083-19.583T160-186.666v-380.001q0-15.833 7.083-30 7.084-14.166 19.584-23.333L440-810q17.453-13.333 39.893-13.333T520-810Zm-39.922 443.333q47.255 0 80.255-33.078 33-33.079 33-80.333 0-47.255-33.078-80.255-33.079-33-80.333-33-47.255 0-80.255 33.078-33 33.079-33 80.333 0 47.255 33.078 80.255 33.079 33 80.333 33Zm.039-66.666q-19.784 0-33.284-13.383t-13.5-33.167q0-19.784 13.383-33.284t33.167-13.5q19.784 0 33.284 13.383t13.5 33.167q0 19.784-13.383 33.284t-33.167 13.5Zm-.784 186.666q-50.333 0-97.667 15.334-47.333 15.333-87.667 44.667h371.335Q624.334-216 577-231.333q-47.333-15.334-97.667-15.334ZM226.666-569.334v350.001q53.334-45 118.011-69.5 64.677-24.5 134.656-24.5 70.447 0 135.557 24.833 65.11 24.834 118.444 69.834v-350.668L480-755.334l-253.334 186ZM480-480Z"/></svg>