<svg xmlns="http://www.w3.org/2000/svg" height="40" viewBox="0 -960 960 960" width="40"><path d="M226.666-80q-27.5 0-47.083-19.583T160-146.666v-422.668q0-27.499 19.583-47.083Q199.166-636 226.666-636h380.001v-90.667q0-52.778-36.945-89.722-36.944-36.945-89.722-36.945-45.733 0-80.034 28.5-34.3 28.5-43.966 71.167-2.667 12-12.833 19.5-10.167 7.5-22.979 7.5-14.521 0-23.688-10.333-9.166-10.333-6.833-24 12-67.667 65.333-113.333Q408.333-920 480-920q80.233 0 136.783 56.55 56.55 56.55 56.55 136.783V-636h60.001q27.5 0 47.083 19.583Q800-596.833 800-569.334v422.668q0 27.5-19.583 47.083T733.334-80H226.666Zm0-66.666h506.668v-422.668H226.666v422.668ZM480.112-280q32.221 0 55.055-22.521Q558-325.042 558-356.667q0-31-22.945-55.166Q512.109-436 479.888-436q-32.221 0-55.055 24.167Q402-387.667 402-356.333 402-325 424.945-302.5q22.946 22.5 55.167 22.5ZM226.666-146.666v-422.668 422.668Z"/></svg>