<svg xmlns="http://www.w3.org/2000/svg" height="40" viewBox="0 -960 960 960" width="40"><path d="M424-80q-51 0-77.5-30.5T320-180q0-26 11.5-50.5T367-271q22-14 36.167-37 14.166-23 20.5-58.667-2.667-1-4.667-2.333l-5-3.333L306-334q-17 6-33 10t-33 4q-63 0-111.5-55T80-536q0-51 30.5-77.5T179-640q26 0 51 11.5t41 35.5q14 22 38.333 36.833 24.334 14.834 57.334 19.834l2.889-5.333q1.444-2.667 2.777-5L334-654q-6-17-10-33t-4-32q0-64 55-112.5T536-880q51 0 77.5 30.5T640-781q0 26-11.5 51T593-689q-24.667 16-38.833 42Q540-621 537-592.666q2.667 1.666 5 2.333 2.333.667 4.666 3.333L654-627q17-6 32.5-9.5T719-640q81 0 121 67t40 149q0 51-32 77.5T777-320q-25 0-48.5-11.5T689-367q-14-22-37-36.167-23-14.166-58.667-21.166-1.667 3.333-3.067 6.039-1.4 2.705-3.266 4.96L626-306q6 16 10 30.5t4 30.5q1 65-54 115T424-80Zm56-340q25 0 42.5-17.5T540-480q0-25-17.5-42.5T480-540q-25 0-42.5 17.5T420-480q0 25 17.5 42.5T480-420Zm-54-173.999q10-4.001 21.5-7.167 11.5-3.167 22.834-4.834 8-44 29.833-80t56.167-58.666q8.333-6 12.666-15.001 4.334-9 4.334-21.333 0-13.614-9-22.974T536-813.334q-41.333 0-94.334 19.198-53 19.199-55 75.048 0 10.472 2.5 19.78 2.5 9.308 5.167 16.975L426-593.999ZM240-386.666q14 0 37.667-7.667L366.001-426q-6.001-11.333-8.834-22.833-2.833-11.501-3.167-21.501-44-8-80-29.833t-58.666-56.167q-6-8.333-16.167-12.666Q189-573.334 179-573.334q-15.667 0-24 9-8.334 9-8.334 28.334 0 59.294 23.917 104.314 23.917 45.02 69.417 45.02Zm184 240q51.087 0 100.544-21.667Q574-190 573.334-243q0-10-2.167-17.667-2.167-7.666-5.5-17L534-366.001q-10.667 4.667-21.833 7.834Q501-355 489.666-354q-8 44-29.833 80t-56.167 58.666Q396-210 391.166-199.5q-4.833 10.5-4.5 20.167 1 12.666 9.334 22.667 8.333 10 28 10Zm353-240q14.218 0 25.276-7.778T813.334-424q0-42-19-94.834-19-52.833-75.886-54.5-10.448 0-19.448 2t-16.667 4.667L593.999-534q4.001 7.333 7.834 21.167Q605.666-499 606-489.666q44 8 80 29.833t58.666 56.167q5 7 14.112 12 9.111 5 18.222 5Zm-171-103ZM470.334-606ZM354-470.334ZM489.666-354Z"/></svg>