<svg xmlns="http://www.w3.org/2000/svg" height="40" viewBox="0 -960 960 960" width="40"><path d="M480-264.667q73 0 123.167-50.166Q653.333-365 653.333-438q0-73.667-50.166-123.5Q553-611.333 480-611.333q-73.667 0-123.5 49.833T306.667-438q0 73 49.833 123.167 49.833 50.166 123.5 50.166Zm0-66.666q-46 0-76.333-30.667-30.334-30.667-30.334-76 0-46 30.334-76.333Q434-544.667 480-544.667q45.333 0 76 30.334Q586.667-484 586.667-438q0 45.333-30.667 76t-76 30.667ZM146.666-120q-27 0-46.833-19.833T80-186.666v-502.001q0-26.333 19.833-46.5 19.833-20.166 46.833-20.166h140.001l53.333-62q9-11.334 22.167-17Q375.333-840 390.333-840h179.334q15 0 28.166 5.667 13.167 5.666 22.167 17l53.333 62h140.001q26.333 0 46.499 20.166Q880-715 880-688.667v502.001q0 27-20.167 46.833Q839.667-120 813.334-120H146.666ZM480-186.666h333.334v-502.001H642.667l-73-84.667H480v586.668Z"/></svg>