<svg xmlns="http://www.w3.org/2000/svg" height="40" viewBox="0 -960 960 960" width="40"><path d="M469.333-491.333 578-382.666q9.667 9.666 9.667 23.333 0 13.666-9.667 23.333-9.667 9.667-23.333 9.667-13.667 0-23.333-9.667L412.667-454.667Q407.333-460 405-465.978t-2.333-12.355v-168.334q0-14.166 9.617-23.75Q421.901-680 436.117-680q14.216 0 23.716 9.583 9.5 9.584 9.5 23.75v155.334Zm260.001-238.001h-90.667q-14.167 0-23.75-9.617-9.584-9.616-9.584-23.833 0-14.216 9.584-23.716 9.583-9.5 23.75-9.5h90.667v-90.667q0-14.166 9.617-23.75Q748.567-920 762.784-920q14.216 0 23.716 9.583 9.5 9.584 9.5 23.75V-796h90.667q14.166 0 23.75 9.617Q920-776.766 920-762.55q0 14.217-9.583 23.716-9.584 9.5-23.75 9.5H796v90.001q0 14.166-9.617 23.75Q776.766-606 762.55-606q-14.217 0-23.716-9.583-9.5-9.584-9.5-23.75v-90.001ZM440-120q-75 0-140.5-28.333-65.5-28.334-114.167-77-48.666-48.667-77-114.167Q80-405 80-480t28.333-140.5q28.334-65.5 77.334-114.167 49-48.666 114.5-77Q365.667-840 440.667-840q13.2 0 24.6.833 11.4.834 24.4 2.834Q504-835 513.833-825.608q9.834 9.391 9.834 23.275 0 14.733-9.834 24.699Q504-767.667 489.667-769q-13-1.334-24.4-2.834-11.4-1.5-24.6-1.5Q318-773.334 232.333-688q-85.667 85.333-85.667 208T232-272q85.333 85.334 208 85.334T648-272q85.334-85.333 85.334-208 0-14.167 9.617-23.75t23.833-9.583q14.216 0 23.716 9.583 9.5 9.583 9.5 23.75 0 75-28.333 140.5-28.334 65.5-77 114.167-48.667 48.666-114.167 77Q515-120 440-120Z"/></svg>