<svg xmlns="http://www.w3.org/2000/svg" height="40" viewBox="0 -960 960 960" width="40"><path d="M306.666-400q-27.5 0-47.083-19.583T240-466.666v-346.668q0-27.5 19.583-47.083T306.666-880h346.668q27.5 0 47.083 19.583T720-813.334v346.668q0 27.5-19.583 47.083T653.334-400H306.666Zm0-66.666h346.668v-346.668H306.666v346.668ZM273.216-240Q259-240 249.5-249.617q-9.5-9.617-9.5-23.833 0-14.216 9.617-23.716 9.617-9.5 23.833-9.5 14.216 0 23.716 9.617 9.5 9.617 9.5 23.833 0 14.216-9.617 23.716-9.617 9.5-23.833 9.5Zm0 160Q259-80 249.5-89.617q-9.5-9.617-9.5-23.833 0-14.216 9.617-23.716 9.617-9.5 23.833-9.5 14.216 0 23.716 9.617 9.5 9.617 9.5 23.833 0 14.216-9.617 23.716-9.617 9.5-23.833 9.5Zm206.667 0q-14.216 0-23.716-9.617-9.5-9.617-9.5-23.833 0-14.216 9.617-23.716 9.617-9.5 23.833-9.5 14.216 0 23.716 9.617 9.5 9.617 9.5 23.833 0 14.216-9.617 23.716-9.617 9.5-23.833 9.5Zm206.667 0q-14.216 0-23.716-9.617-9.5-9.617-9.5-23.833 0-14.216 9.617-23.716 9.617-9.5 23.833-9.5 14.216 0 23.716 9.617 9.5 9.617 9.5 23.833Q720-99 710.383-89.5 700.766-80 686.55-80Zm0-160q-14.216 0-23.716-9.617-9.5-9.617-9.5-23.833 0-14.216 9.617-23.716 9.617-9.5 23.833-9.5 14.216 0 23.716 9.617 9.5 9.617 9.5 23.833 0 14.216-9.617 23.716-9.617 9.5-23.833 9.5ZM480-640Z"/></svg>