<svg xmlns="http://www.w3.org/2000/svg" height="40" viewBox="0 -960 960 960" width="40"><path d="M346.666-80q-27.5 0-47.083-19.583T280-146.666h166.667v-175.001q-106-14.333-176.334-93.166Q200-493.667 200-600q0-117 81.5-198.5T480-880q117 0 198.5 81.5T760-600q0 106.333-70.333 185.167Q619.333-336 513.333-321.667v175.001H680q0 27.5-19.583 47.083T613.334-80H346.666ZM480-386.666q89 0 151.167-62.167T693.334-600q0-89-62.167-151.167T480-813.334q-89 0-151.167 62.167T266.666-600q0 89 62.167 151.167T480-386.666Zm0-120q-39 0-66.167-27.167T386.666-600q0-39 27.167-66.167T480-693.334q39 0 66.167 27.167T573.334-600q0 39-27.167 66.167T480-506.666Z"/></svg>