<svg xmlns="http://www.w3.org/2000/svg" height="40" viewBox="0 -960 960 960" width="40"><path d="M480-733.334q-107 0-202.834 36.5-95.833 36.501-179.833 101.501l111.333 110.666q59-45.333 126.667-70.5T480-580.334q55.667 0 106.334 14 50.667 14.001 97.334 39.334 12.667 6 11.167 20.5T679.001-487q-62.333 24.666-102 80.833t-39.667 127.834q0 10.333 1.666 19.666 1.667 9.334 3.667 19.667 2 10.333 3.333 20 1.334 9.667 1.334 20 0 25.333-18 40.167Q511.334-144 487-144q-14 0-28-5.5T433-167L51.666-548.334q-9-9-14.5-21.666-5.5-12.667-5.5-26 0-15 6.167-28t17.833-22.666Q145-722.333 254.167-761.167 363.333-800 480-800t225.833 38.833Q815-722.333 904.334-646.666 916-637 922.167-624q6.166 13 6.166 28 0 13.333-5.5 26-5.499 12.666-14.499 21.666l-47.001 46.668q-9.333 9-23.166 9.166-13.834.167-23.167-9.166Q805.667-511 805.667-525q0-13.999 9.333-22.999l47.667-47.334q-84-65-179.833-101.501Q587-733.334 480-733.334ZM681.333-120q-17 0-28.5-11.5t-11.5-28.5v-118.667q0-17 11.5-28.5t28.5-11.5H682V-358q0-33.667 23.833-57.5 23.834-23.833 57.5-23.833 33.667 0 57.5 23.833 23.834 23.833 23.834 57.5v39.333h.666q17 0 28.5 11.5t11.5 28.5V-160q0 17-11.5 28.5t-28.5 11.5h-164ZM722-318.667h82.667V-358q0-18.333-11.5-29.833t-29.834-11.5q-18.333 0-29.833 11.5T722-358v39.333Z"/></svg>