<svg xmlns="http://www.w3.org/2000/svg" height="40" viewBox="0 -960 960 960" width="40"><path d="m480-812.667 124-124q9.667-9.666 23.333-9.666 13.667 0 23.334 9.666 9.666 9.667 9.666 23.333 0 13.667-9.666 23.334L503.333-742.667q-10 10-23.333 10-13.333 0-23.333-10L395-803.334Q385-813 385.167-826.5q.166-13.5 9.572-23.5 10.261-10 24.072-10t23.855 10L480-812.667Zm-360 766v-298q0-5.444.667-10.888.666-5.445 2.666-10.778l77-228.334q6.667-20.666 24.167-33Q242-640 263.666-640h432.668Q718-640 735.5-627.667q17.5 12.334 24.167 33l77 228.334q2 5.333 2.666 10.778.667 5.444.667 10.888v298q0 19.445-13.657 33.056Q812.687 0 793.177 0q-19.51 0-33.01-13.611-13.5-13.611-13.5-33.055v-36H213.333v36q0 19.444-13.657 33.055T166.509 0Q147 0 133.5-13.611T120-46.666Zm92.666-375.999h534.668l-50.667-150.668H263.333l-50.667 150.668Zm-26 66.666v206.667V-356ZM290.51-196q23.823 0 39.99-16.333 16.166-16.333 16.166-39.667 0-23.889-16.333-40.611-16.333-16.722-39.667-16.722-23.888 0-40.611 16.676-16.722 16.677-16.722 40.5 0 23.824 16.677 39.99Q266.686-196 290.51-196ZM670-196q23.889 0 40.611-16.333 16.723-16.333 16.723-39.667 0-23.889-16.677-40.611-16.676-16.722-40.5-16.722-23.823 0-39.99 16.676Q614-275.98 614-252.157q0 23.824 16.334 39.99Q646.667-196 670-196Zm-483.334 46.667h586.668V-356H186.666v206.667Z"/></svg>