<svg xmlns="http://www.w3.org/2000/svg" height="40" viewBox="0 -960 960 960" width="40"><path d="M308-201.333v32.667q0 20.277-14.206 34.472Q279.588-120 259.294-120t-34.46-14.194q-14.167-14.195-14.167-34.472v-66q-25.334-17.334-38-45.5Q160-308.333 160-340.667v-364.334L59.333-805.668q-10-10.044-10-23.855t10.035-23.811q10.035-10 23.833-10 13.798 0 23.798 10l736.335 736.668q10 10 10 23.333 0 13.334-10.035 23.333-10.035 10-23.833 10-13.798 0-23.798-10L656.667-208.334H752v38.668q0 20.497-14.62 35.081Q722.76-120 702.213-120q-20.546 0-35.379-14.78Q652-149.561 652-170.333v-31H308ZM308-268h289.001l-206-206H226.666v120q0 34.334 23.5 60.167T308-268Zm172.667-612q168 0 243.666 35Q800-810 800-732v420.667q0 14.166-9.617 23.75Q780.766-278 766.55-278q-14.216 0-23.716-9.583-9.5-9.584-9.5-23.75V-474H578.667q-16.666 0-25-10.379-8.333-10.378-8.333-22.833 0-12.454 8.333-22.954 8.334-10.5 25-10.5h154.667V-696H361.332q-16.333 0-24.5-10.379-8.166-10.379-8.166-22.833 0-12.455 8.166-22.955 8.167-10.5 24.5-10.5h367.335q-21-23-82.834-36.833-61.833-13.834-164.5-13.834-72.66 0-121.497 4.167t-79.17 14.5q-13 4.333-22.5-2.666-9.5-7-12.833-18.334-3.334-11.333 1.833-24.166t22.833-18.5q37.667-12.334 90-17Q412.333-880 480.667-880ZM330.706-314.667q23.627 0 40.127-16.539 16.5-16.539 16.5-40.166 0-23.628-16.539-40.128T330.627-428Q307-428 290.5-411.46 274-394.921 274-371.294q0 23.628 16.539 40.128 16.539 16.499 40.167 16.499Zm-104.04-225.999h97.668l-97.668-97.668v97.668Zm66.333-222.001h435.668-435.668ZM391.001-474Zm190.665 0Z"/></svg>