<svg xmlns="http://www.w3.org/2000/svg" height="40" viewBox="0 -960 960 960" width="40"><path d="M480-813.334q-13.667 0-23.5-9.833T446.667-847q0-14 9.833-23.5t23.833-9.5q14 0 23.5 9.583 9.5 9.584 9.5 23.75 0 13.667-9.583 23.5T480-813.334ZM480-80q-13.667 0-23.5-9.833-9.833-9.834-9.833-23.833 0-14 9.833-23.5t23.833-9.5q14 0 23.5 9.583t9.5 23.75q0 13.666-9.583 23.5Q494.167-80 480-80ZM192.333-673.667q-13.666 0-23.5-9.833Q159-693.333 159-707.333q0-14 9.833-23.5 9.834-9.5 23.833-9.5 14 0 23.5 9.583t9.5 23.75q0 13.667-9.583 23.5t-23.75 9.833Zm575.334 454q-13.667 0-23.5-9.833t-9.833-23.833q0-14 9.833-23.5t23.833-9.5q14 0 23.5 9.583T801-253q0 13.667-9.583 23.5-9.584 9.833-23.75 9.833Zm-645.334-147q-13.666 0-23.5-9.833Q89-386.333 89-400.333q0-14 9.833-23.5 9.834-9.5 23.833-9.5 14 0 23.5 9.583t9.5 23.75q0 13.667-9.583 23.5t-23.75 9.833Zm715.334-160q-13.667 0-23.5-9.833t-9.833-23.833q0-14 9.833-23.5t23.833-9.5q14 0 23.5 9.583T871-560q0 13.667-9.583 23.5-9.584 9.833-23.75 9.833ZM324-115q-13.667 0-23.5-9.833-9.833-9.834-9.833-23.833 0-14 9.833-23.5t23.833-9.5q14 0 23.5 9.583t9.5 23.75q0 13.666-9.583 23.5Q338.167-115 324-115Zm312-663.334q-13.667 0-23.5-9.833T602.667-812q0-14 9.833-23.5t23.833-9.5q14 0 23.5 9.583 9.5 9.584 9.5 23.75 0 13.667-9.583 23.5T636-778.334ZM636-116q-13.667 0-23.5-9.833-9.833-9.834-9.833-23.833 0-14 9.833-23.5t23.833-9.5q14 0 23.5 9.583t9.5 23.75q0 13.666-9.583 23.5Q650.167-116 636-116ZM324-778.334q-13.667 0-23.5-9.833T290.667-812q0-14 9.833-23.5t23.833-9.5q14 0 23.5 9.583 9.5 9.584 9.5 23.75 0 13.667-9.583 23.5T324-778.334Zm513.667 411.667q-13.667 0-23.5-9.833t-9.833-23.833q0-14 9.833-23.5t23.833-9.5q14 0 23.5 9.583T871-400q0 13.667-9.583 23.5-9.584 9.833-23.75 9.833Zm-716.334-160q-13.666 0-23.5-9.833Q88-546.333 88-560.333q0-14 9.833-23.5 9.834-9.5 23.833-9.5 14 0 23.5 9.583t9.5 23.75q0 13.667-9.583 23.5t-23.75 9.833Zm646.334-147q-13.667 0-23.5-9.833t-9.833-23.833q0-14 9.833-23.5t23.833-9.5q14 0 23.5 9.583T801-707q0 13.667-9.583 23.5-9.584 9.833-23.75 9.833Zm-575.334 454q-13.666 0-23.5-9.833Q159-239.333 159-253.333q0-14 9.833-23.5 9.834-9.5 23.833-9.5 14 0 23.5 9.583t9.5 23.75q0 13.667-9.583 23.5t-23.75 9.833Zm326.651-27q-36.984 0-66.352-22.884-29.369-22.883-42.632-59.116-3.25-8.551-7.042-16.569-3.791-8.017-10.291-14.431l-50-51q-25.104-25.262-40.552-58.298Q286.667-502 286.667-538q0-73 50.539-124.167 50.538-51.166 122.737-51.166 50.057 0 92.224 26.166Q594.333-661 616-615.333q8.666 16.666-1 32.666-9.667 16-29 16-10 0-17.917-5.416-7.916-5.417-12.083-14.584-13.853-27.857-39.429-43.928-25.576-16.072-56.48-16.072-44.758 0-75.758 30.918-31 30.917-31 75.694 0 22.388 8.167 42.722 8.167 20.333 23.833 36l55 54q13.496 13.425 21.689 29.248Q470.216-362.261 476-345q5 14 17 22.833 12 8.834 27.016 8.834 12.705 0 23.678-6.834Q554.667-327 561-338.333q3.667-7.667 11.167-11.334 7.5-3.666 16.666-3.666 19.167 0 29.167 16t1 32q-14.667 27.666-41.694 43.166-27.027 15.5-58.322 15.5Zm21.094-160q22.255 0 37.755-15.578 15.5-15.579 15.5-37.833 0-22.255-15.578-37.755-15.579-15.5-37.833-15.5-22.255 0-37.755 15.578-15.5 15.579-15.5 37.833 0 22.255 15.578 37.755 15.579 15.5 37.833 15.5Z"/></svg>