<svg xmlns="http://www.w3.org/2000/svg" viewBox="0 -960 960 960" width="32" height="32"><path d="M479.83-102.33q-11.83 0-23.5-4-11.66-4-20.66-12.67-49.67-45.33-99-97.33-49.34-52-88.5-107.84Q209-380 184.5-437.83 160-495.67 160-552q0-150 96.5-239T480-880q127 0 223.5 89T800-552q0 56.33-24.5 114.17Q751-380 711.83-324.17q-39.16 55.84-88.5 107.84-49.33 52-99 97.33-9 8.67-20.83 12.67-11.83 4-23.67 4Zm.18-221q15.66 0 27.16-11.51 11.5-11.52 11.5-27.17 0-15.66-11.51-27.16-11.52-11.5-27.17-11.5-15.66 0-27.16 11.51-11.5 11.52-11.5 27.17 0 15.66 11.51 27.16 11.52 11.5 27.17 11.5Zm1.18-124q10.48 0 17.98-7.5t7.5-19.16q0-7.78 4-17.01t11-17q4.82-4.81 11.58-11.07 6.75-6.26 14.08-12.93 23-21.67 33.17-41.67 10.17-20 10.17-44.33 0-43-32.47-70.83-32.47-27.84-76.4-27.84-32.47 0-60.97 16.17T377-654.67q-5 9.71-1.67 19.86 3.34 10.14 13 15.14 9.67 5 19.84 1.34Q418.33-622 423.33-631q8.67-16.33 24.43-25.33t34.24-9q22.33 0 38.83 13.94t16.5 35.39q0 17-8 30t-29 31.33q-10 8-17.33 15.67-7.33 7.67-12.33 15Q463-513 459-502t-4 21.67q0 12.48 6.98 22.74 6.99 10.26 19.21 10.26ZM480-168q129.33-118 191.33-214.17 62-96.16 62-169.83 0-114.86-73.36-188.1-73.36-73.23-179.97-73.23T300.03-740.1q-73.36 73.24-73.36 188.1 0 73.67 63 169.83Q352.67-286 480-168Zm0-392Z"/></svg>