<svg xmlns="http://www.w3.org/2000/svg" height="40" viewBox="0 -960 960 960" width="40"><path d="M710-143.333q-63 0-106.5-43.5t-43.5-106.5q0-63 43.5-106.5t106.5-43.5q63 0 106.5 43.5t43.5 106.5q0 63-43.5 106.5t-106.5 43.5Zm0-66.666q35 0 59.167-24.167t24.167-59.167q0-35-24.167-59.167T710-376.667q-35 0-59.167 24.167t-24.167 59.167q0 35 24.167 59.167T710-209.999ZM446.667-260H166.666q-14.167 0-23.75-9.617t-9.583-23.833q0-14.216 9.583-23.716 9.583-9.5 23.75-9.5h280.001q14.166 0 23.75 9.617Q480-307.432 480-293.216q0 14.216-9.583 23.716-9.584 9.5-23.75 9.5ZM250-516.667q-63 0-106.5-43.5t-43.5-106.5q0-63 43.5-106.5t106.5-43.5q63 0 106.5 43.5t43.5 106.5q0 63-43.5 106.5t-106.5 43.5Zm0-66.666q35 0 59.167-24.167t24.167-59.167q0-35-24.167-59.167T250-750.001q-35 0-59.167 24.167t-24.167 59.167q0 35 24.167 59.167T250-583.333Zm543.334-50.001H513.333q-14.166 0-23.75-9.617Q480-652.568 480-666.784q0-14.216 9.583-23.716 9.584-9.5 23.75-9.5h280.001q14.167 0 23.75 9.617t9.583 23.833q0 14.216-9.583 23.716-9.583 9.5-23.75 9.5ZM710-293.333ZM250-666.667Z"/></svg>