<svg xmlns="http://www.w3.org/2000/svg" height="40" viewBox="0 -960 960 960" width="40"><path d="M398-120.667q-25.342 0-48.338-10.833-22.995-10.833-39.329-31.167L73-453.667q-8.666-10.666-6-24Q69.667-491 79.334-502q19-19.667 46.333-21.667 27.333-1.999 49.667 14.334L280-437v-409.667q0-14.166 9.617-23.75Q299.234-880 313.45-880q14.216 0 23.716 9.583 9.5 9.584 9.5 23.75v474q0 19.915-17.833 29.457-17.833 9.543-34.5-2.457l-106.668-74.001L363-204.333q6.774 7.933 15.806 12.467 9.033 4.533 19.194 4.533h288.667q36.333 0 61.5-25.167 25.167-25.166 25.167-61.5v-280q0-14.166 9.617-23.75 9.617-9.583 23.833-9.583 14.216 0 23.716 9.583 9.5 9.584 9.5 23.75v280q0 64-44.667 108.667-44.666 44.666-108.666 44.666H398ZM480.999-344Zm-2.882-389.334q14.216 0 23.716 9.584 9.5 9.583 9.5 23.749V-474q0 14.167-9.617 23.75t-23.833 9.583q-14.216 0-23.716-9.583-9.5-9.583-9.5-23.75v-226.001q0-14.166 9.617-23.749 9.617-9.584 23.833-9.584ZM642.784-680q14.216 0 23.716 9.583 9.5 9.584 9.5 23.75V-474q0 14.167-9.617 23.75t-23.833 9.583q-14.217 0-23.716-9.583-9.5-9.583-9.5-23.75v-172.667q0-14.166 9.617-23.75Q628.567-680 642.784-680Z"/></svg>