<svg xmlns="http://www.w3.org/2000/svg" height="40" viewBox="0 -960 960 960" width="40"><path d="M546.666-426.666q-50 0-85-35t-35-85q0-50 35-85t85-35q50 0 85 35t35 85q0 50-35 85t-85 35ZM239.999-293.333q-27.5 0-47.083-19.583t-19.583-47.083v-373.335q0-27.5 19.583-47.083T239.999-800h613.335q27.5 0 47.083 19.583T920-733.334v373.335q0 27.5-19.583 47.083t-47.083 19.583H239.999Zm93.334-66.666H760q0-39 27.167-66.167t66.167-27.167V-640q-39 0-66.167-27.167T760-733.334H333.333q0 39-27.167 66.167T239.999-640v186.667q39 0 66.167 27.167t27.167 66.167ZM766.667-160H106.666q-27.5 0-47.083-19.583T40-226.666v-420.001q0-14.166 9.617-23.75Q59.234-680 73.45-680q14.216 0 23.716 9.583 9.5 9.584 9.5 23.75v420.001h660.001q14.166 0 23.75 9.617Q800-207.432 800-193.216q0 14.216-9.583 23.716-9.584 9.5-23.75 9.5ZM239.999-359.999v-373.335 373.335Z"/></svg>