<svg xmlns="http://www.w3.org/2000/svg" height="40" viewBox="0 -960 960 960" width="40"><path d="M266.666-40q-27.5 0-47.083-19.583T200-106.666v-746.668q0-27.5 19.583-47.083T266.666-920h426.668q27.5 0 47.083 19.583T760-853.334V-736q0 14.166-9.617 23.749-9.617 9.584-23.833 9.584-14.216 0-23.716-9.584-9.5-9.583-9.5-23.749v-17.334H266.666v546.668h426.668V-224q0-14.166 9.617-23.749 9.617-9.584 23.833-9.584 14.216 0 23.716 9.584Q760-238.166 760-224v117.334q0 27.5-19.583 47.083T693.334-40H266.666Zm0-99.999v33.333h426.668v-33.333H266.666Zm0-680.002h426.668v-33.333H266.666v33.333Zm0 0v-33.333 33.333Zm0 680.002v33.333-33.333ZM920.333-480.37q0 51.037-17 98.537-17 47.5-49 85.833-8.666 11-22.166 11.167-13.5.166-23.413-10.094-9.087-9.406-9.587-23.101-.5-13.694 8.166-24.972 22.573-29.717 34.454-64.937 11.88-35.22 11.88-72.642 0-37.421-12-72.088-12-34.667-35.667-63-9.333-11.333-9.833-26-.5-14.666 9.224-24.391Q816-676.667 830.5-676.5q14.5.167 23.833 11.833 32 38.334 49 85.797 17 47.464 17 98.5ZM793.667-482q0 34.246-13.564 65.816T742.667-360q-4.058 4.167-10.551 7.083Q725.624-350 719.131-350q-13.797 0-23.797-9.877-10-9.878-10-23.871 0-6.585 2.833-12.918Q691.001-403 696.001-408q15.333-15.333 23.166-33.833 7.834-18.5 7.834-39.5 0-20.334-8-40.001-8-19.666-23-34.667-5-4.333-7.5-10.772t-2.5-12.878q0-13.683 9.877-23.349 9.878-9.667 23.871-9.667 6.585 0 12.918 2.5 6.333 2.5 10.667 7.5 24 24.333 37.166 55.562 13.167 31.229 13.167 65.105Z"/></svg>