<svg xmlns="http://www.w3.org/2000/svg" height="40" viewBox="0 -960 960 960" width="40"><path d="M266.666-40q-27 0-46.833-19.833T200-106.666v-746.668q0-27 19.833-46.833T266.666-920h426.668q27 0 46.833 19.833T760-853.334v746.668q0 27-19.833 46.833T693.334-40H266.666Zm0-166.666v100h426.668v-100H266.666Zm213.451 83.333q14.216 0 23.716-9.617 9.5-9.617 9.5-23.833 0-14.216-9.617-23.716-9.617-9.5-23.833-9.5-14.216 0-23.716 9.617-9.5 9.617-9.5 23.833 0 14.216 9.617 23.716 9.617 9.5 23.833 9.5ZM266.666-273.332h426.668v-480.002H266.666v480.002Zm0-546.669h426.668v-33.333H266.666v33.333Zm0 613.335v100-100Zm0-613.335v-33.333 33.333Z"/></svg>