<svg xmlns="http://www.w3.org/2000/svg" height="40" viewBox="0 -960 960 960" width="40"><path d="M206.666-120q-14.167 0-23.75-9.583-9.583-9.584-9.583-23.75V-200h-66.667q-27 0-46.833-19.833T40-266.666v-466.668q0-27 19.833-46.833T106.666-800h746.668q27 0 46.833 19.833T920-733.334v466.668q0 27-19.833 46.833T853.334-200h-66.667v46.667q0 14.166-9.583 23.75-9.583 9.583-23.75 9.583H206.666Zm-100-146.666h746.668v-466.668H106.666v466.668Zm141.001-100.001h465.666q9.667 0 14.5-9t-1.167-17.666L593.333-571.666Q588-578.333 580-578.333t-13.333 6.667L440-409.333l-86.667-104.333q-5.333-6-12.833-5.834-7.5.167-12.833 6.834l-93.333 119.333q-6.667 8.666-1.834 17.666 4.834 9 15.167 9ZM106.666-266.666v-466.668 466.668Z"/></svg>