<svg xmlns="http://www.w3.org/2000/svg" height="40" viewBox="0 -960 960 960" width="40"><path d="M185.333-204.667H438q9.667 0 14.5-9t-1.167-17.666l-70.666-94.334q-5.334-6.666-13.334-7-8-.333-13.333 6.333l-50 64.667Q298.667-255 290.667-255t-13.334-6.667l-29.333-38q-5.333-6.666-13.333-6.166t-13.334 7.166l-49.666 67.334q-6 8.666-1.167 17.666t14.833 9ZM186.666-120q-27.5 0-47.083-19.583T120-186.666v-260.001q0-27.5 19.583-47.083t47.083-19.583h260.001q27.5 0 47.083 19.583t19.583 47.083v260.001q0 27.5-19.583 47.083T446.667-120H186.666Zm-33.45-653.334q-14.216 0-23.716-9.617-9.5-9.617-9.5-23.833 0-14.216 9.617-23.716 9.617-9.5 23.833-9.5 14.216 0 23.716 9.617 9.5 9.617 9.5 23.833 0 14.216-9.617 23.716-9.617 9.5-23.833 9.5Zm163.334 0q-14.217 0-23.717-9.617-9.5-9.617-9.5-23.833 0-14.216 9.617-23.716 9.617-9.5 23.834-9.5 14.216 0 23.716 9.617 9.5 9.617 9.5 23.833 0 14.216-9.617 23.716-9.617 9.5-23.833 9.5Zm163.333 0q-14.216 0-23.716-9.617-9.5-9.617-9.5-23.833 0-14.216 9.617-23.716 9.617-9.5 23.833-9.5 14.216 0 23.716 9.617 9.5 9.617 9.5 23.833 0 14.216-9.617 23.716-9.617 9.5-23.833 9.5Zm163.333 0q-14.216 0-23.716-9.617-9.5-9.617-9.5-23.833 0-14.216 9.617-23.716 9.617-9.5 23.833-9.5 14.217 0 23.717 9.617 9.5 9.617 9.5 23.833 0 14.216-9.617 23.716-9.617 9.5-23.834 9.5Zm163.334 0q-14.216 0-23.716-9.617-9.5-9.617-9.5-23.833 0-14.216 9.617-23.716 9.617-9.5 23.833-9.5 14.216 0 23.716 9.617 9.5 9.617 9.5 23.833 0 14.216-9.617 23.716-9.617 9.5-23.833 9.5ZM643.216-120Q629-120 619.5-129.617q-9.5-9.617-9.5-23.833 0-14.216 9.617-23.716 9.617-9.5 23.833-9.5 14.217 0 23.717 9.617 9.5 9.617 9.5 23.833 0 14.216-9.617 23.716-9.617 9.5-23.834 9.5Zm-490-490Q139-610 129.5-619.617q-9.5-9.617-9.5-23.833 0-14.217 9.617-23.717 9.617-9.5 23.833-9.5 14.216 0 23.716 9.617 9.5 9.617 9.5 23.834 0 14.216-9.617 23.716-9.617 9.5-23.833 9.5Zm653.334 0q-14.216 0-23.716-9.617-9.5-9.617-9.5-23.833 0-14.217 9.617-23.717 9.617-9.5 23.833-9.5 14.216 0 23.716 9.617 9.5 9.617 9.5 23.834 0 14.216-9.617 23.716-9.617 9.5-23.833 9.5Zm0 163.333q-14.216 0-23.716-9.617-9.5-9.617-9.5-23.833 0-14.216 9.617-23.716 9.617-9.5 23.833-9.5 14.216 0 23.716 9.617 9.5 9.617 9.5 23.833 0 14.216-9.617 23.716-9.617 9.5-23.833 9.5Zm0 163.334q-14.216 0-23.716-9.617-9.5-9.617-9.5-23.834 0-14.216 9.617-23.716 9.617-9.5 23.833-9.5 14.216 0 23.716 9.617 9.5 9.617 9.5 23.833 0 14.217-9.617 23.717-9.617 9.5-23.833 9.5Zm0 163.333q-14.216 0-23.716-9.617-9.5-9.617-9.5-23.833 0-14.216 9.617-23.716 9.617-9.5 23.833-9.5 14.216 0 23.716 9.617 9.5 9.617 9.5 23.833 0 14.216-9.617 23.716-9.617 9.5-23.833 9.5Z"/></svg>