<svg xmlns="http://www.w3.org/2000/svg" height="40" viewBox="0 -960 960 960" width="40"><path d="M840-615q0 45-17 86t-49 73l-66.667 66.667q-9.667 9.667-23.333 9.667-13.667 0-23.333-9.667Q651-399 651-412.666q0-13.667 9.667-23.333l66.667-66.667q21.904-21.813 33.952-51.259 12.048-29.447 12.048-61.075 0-66-46.167-112.167t-112.01-46.167q-31.824 0-61.256 12.048-29.433 12.048-51.235 33.952l-66.667 66.667Q426.333-651 412.666-651q-13.666 0-23.333-9.667-9.667-9.666-9.667-23.333 0-13.666 9.667-23.333L456-774q32-32 73-49t86-17q94 0 159.5 65.5T840-615ZM345-186.666q31 0 60.676-12.048 29.676-12.048 51.658-33.952l85.667-85.667-224.668-224.668-85.467 85.468q-22.2 22.199-34.2 51.585-12 29.386-12 60.948 0 66 46.167 112.167T345-186.666Zm244.667-85.001L504-186q-32 32-73 49t-86 17q-94 0-159.5-65.5T120-345q0-45 17-86t49-73l85.667-85.667-187-187Q75-786.334 75-800q0-13.667 9.667-23.334Q94.333-833 108.333-833T132-823.334l698 698.001q9.667 9.667 9.334 23.333-.334 13.667-10 23.333Q819.667-69 806-69q-13.666 0-23.333-9.667l-193-193Zm-159-159ZM525-525Z"/></svg>