<svg xmlns="http://www.w3.org/2000/svg" height="40" viewBox="0 -960 960 960" width="40"><path d="M119.333-533.333h77.333q9.667 0 16.5 6.833t6.833 16.5q0 9.667-6.833 16.5t-16.5 6.833H73.333q-14.166 0-23.75-9.583Q40-505.833 40-520v-123.333q0-9.667 6.833-16.5 6.834-6.833 16.5-6.833 9.667 0 16.5 6.833t6.833 16.5V-566l110.667-110.667q7-7 16.334-7 9.333 0 16.333 7 7 7 7 16.334Q237-651 230-644L119.333-533.333Zm307.334-307.334L316-730q-7 7-16.333 7-9.334 0-16.334-7t-7-16.333q0-9.334 7-16.334L394-873.334h-77.333q-9.667 0-16.5-6.833t-6.833-16.5q0-9.666 6.833-16.5Q307-920 316.667-920H440q14.167 0 23.75 9.583 9.583 9.584 9.583 23.75v123.333q0 9.667-6.833 16.5t-16.5 6.833q-9.667 0-16.5-6.833t-6.833-16.5v-77.333ZM591-40q-22.588 0-43.294-8.333Q527-56.667 510.667-73L325.333-258.667q-9.333-9.333-10-23.166Q314.666-295.667 324-305q14.666-14.666 32.833-21.5 18.166-6.833 37.166-1.5L480-304.333V-640q0-14.167 9.617-23.75t23.833-9.583q14.216 0 23.716 9.583 9.5 9.583 9.5 23.75v380.667q0 16.666-13.333 26.666t-29 5.667l-72.667-19.667 126.786 126.786q6.215 6.215 14.801 9.715 8.587 3.5 17.747 3.5h169q39 0 66.167-27.167T853.334-200v-173.334q0-14.166 9.617-23.75 9.617-9.583 23.833-9.583 14.216 0 23.716 9.583 9.5 9.584 9.5 23.75V-200q0 66-47 113T760-40H591Zm108.333-190Zm-61.216-296.667q14.216 0 23.716 9.583 9.5 9.584 9.5 23.75V-360q0 14.167-9.617 23.75t-23.833 9.583q-14.216 0-23.716-9.583-9.5-9.583-9.5-23.75v-133.334q0-14.166 9.617-23.75 9.617-9.583 23.833-9.583Zm124 40q14.216 0 23.716 9.583 9.5 9.584 9.5 23.75V-360q0 14.167-9.617 23.75t-23.833 9.583q-14.216 0-23.716-9.583-9.5-9.583-9.5-23.75v-93.334q0-14.166 9.617-23.75 9.617-9.583 23.833-9.583Z"/></svg>