<svg xmlns="http://www.w3.org/2000/svg" viewBox="0 -960 960 960" width="32" height="32"><path d="m679.33-634-90.66 90.67q-9.67 9.66-23.34 9.66-13.66 0-23.33-9.66-9.67-9.67-9.67-23.34 0-13.66 9.67-23.33l90.67-90.67-90-89.33q-9.67-9.67-9.67-23.33 0-13.67 9.67-23.34 9.66-9.66 23.33-9.66 13.67 0 23.33 9.66l90 89.34L770-818q9.67-9.67 23.33-9.67 13.67 0 23.34 9.67 9.66 9.67 9.66 23.33 0 13.67-9.66 23.34L726-680.67 816.67-590q9.66 9.67 9.66 23.33 0 13.67-9.66 23.34-9.67 9.66-23.34 9.66-13.66 0-23.33-9.66L679.33-634ZM280-520q-66 0-113-47t-47-113q0-67 47-113.5T280-840q66 0 113 47t47 113q0 66-47 113t-113 47Zm0-66.67q39 0 66.17-27.16Q373.33-641 373.33-680t-27.16-66.17Q319-773.33 280-773.33t-66.17 27.16Q186.67-719 186.67-680t27.16 66.17Q241-586.67 280-586.67Zm.67 352.67L190-143.33q-9.67 9.66-23.33 9.66-13.67 0-23.34-9.66-9.66-9.67-9.66-23.34 0-13.66 9.66-23.33L234-280.67l-90.67-90.66q-9.66-9.67-9.66-23.34 0-13.66 9.66-23.33 9.67-9.67 23.34-9.67 13.66 0 23.33 9.67l90.67 90.67 90-89.34q9.66-9 23.33-9.33 13.67-.33 23.33 9.33Q427-407 427-393.33q0 13.66-9.67 23.33l-90 89.33L418-190q9.67 9.67 9.67 23.33 0 13.67-9.67 23.34-9.67 9.66-23.33 9.66-13.67 0-23.34-9.66L280.67-234ZM680-120q-66 0-113-47t-47-113q0-66 47-113t113-47q66 0 113 46.5T840-280q0 66-47 113t-113 47Zm0-66.67q39 0 66.17-27.16Q773.33-241 773.33-280t-27.16-66.17Q719-373.33 680-373.33t-66.17 27.16Q586.67-319 586.67-280t27.16 66.17Q641-186.67 680-186.67ZM280-680Zm400 400Z"/></svg>