<svg xmlns="http://www.w3.org/2000/svg" height="40" viewBox="0 -960 960 960" width="40"><path d="M320-80q-66 0-113-47t-47-113v-320q0-57 34-99t86-56v-98.334q0-27.5 19.583-47.083T346.666-880h266.668q27.5 0 47.083 19.583T680-813.334V-715q52 14 86 56t34 99v320q0 66-47 113T640-80H320Zm-93.334-346.666h506.668V-560q0-39-27.167-66.167T640-653.334H320q-39 0-66.167 27.167T226.666-560v133.334Zm93.334 280h320q39 0 66.167-27.167T733.334-240v-120H226.666v120q0 39 27.167 66.167T320-146.666Zm160-280ZM480-360Zm0-33.333ZM520-720h93.334v-93.334H346.666V-720H440q0-17 11.5-28.5T480-760q17 0 28.5 11.5T520-720Z"/></svg>