<svg xmlns="http://www.w3.org/2000/svg" viewBox="0 -960 960 960" width="32" height="32"><path d="M65.37-428.94q-11.1-7.59-13.23-20.66Q50-462.67 56.67-474l130.66-210q18.16-29.17 51.58-31.25 33.42-2.08 55.42 23.58l64.34 75 109-177.33q19.23-31.5 55.61-31.92 36.39-.41 56.39 29.92l65.66 98 121.34-192q7.36-12.27 21.68-15.14 14.32-2.86 26.24 6.31 11.08 7.5 12.91 20.33 1.83 12.83-4.83 24.17l-121.34 192q-19 31-55.16 31.33-36.17.33-56.17-29.67L524.33-758l-109 176.67q-17.57 28.74-51.45 31.2-33.88 2.46-55.88-23.2L244-648 113.33-438.33q-7.66 12.33-21.83 15.5-14.17 3.16-26.13-6.11Zm516.49 202.27q46.14 0 78.81-31.99 32.66-32 32.66-78.34 0-46.33-32.28-78.67Q628.76-448 582-448q-46.2 0-78.1 32.67-31.9 32.66-31.9 78.8 0 46.15 31.86 78 31.86 31.86 78 31.86ZM582-160q-73.61 0-125.14-51.54t-51.53-125.17q0-73.62 51.53-125.79T582-514.67q74.17 0 126.08 51.92Q760-410.83 760-336.67q0 28-8 53.17t-23.33 46.83L816-150q9.67 9.67 9.67 23.33 0 13.67-9.67 23.34-9.67 9.66-23.33 9.66-13.67 0-23.34-9.66L682-190.67Q660.33-176 635.17-168 610-160 582-160Z"/></svg>