<svg xmlns="http://www.w3.org/2000/svg" height="40" viewBox="0 -960 960 960" width="40"><path d="M480-40q-112 0-212.667-61-100.667-61.001-160.667-146.001v93.668q0 14.333-9.5 23.833-9.5 9.5-23.833 9.5Q59-120 49.5-129.5 40-139 40-153.333v-173.334Q40-341 49.5-350.5 59-360 73.333-360h173.334q14.333 0 23.833 9.5 9.5 9.5 9.5 23.833 0 14.333-9.5 23.833-9.5 9.5-23.833 9.5h-91.001q50 75.334 139.167 131.001T480-106.666q147 0 253.167-98.667T852-447.667q1.334-14 11-23.166Q872.667-480 886.667-480q13.666 0 23.666 9.167 10 9.166 8.667 22.166Q912.667-363 876-288.5t-95.667 129.667q-59 55.166-136.166 87Q567-40 480-40Zm0-813.334q-147 0-253.167 98.667T108-512.333q-1.334 14-11 23.166Q87.333-480 73.333-480q-13.666 0-23.666-9.167-10-9.166-8.667-22.166Q47.333-597 84-671.5t95.667-129.667q59-55.166 136.166-87Q393-920 480-920q112 0 212.667 61 100.667 61.001 160.667 146.001v-93.668q0-14.333 9.5-23.833 9.5-9.5 23.833-9.5 14.333 0 23.833 9.5 9.5 9.5 9.5 23.833v173.334q0 14.333-9.5 23.833-9.5 9.5-23.833 9.5H713.333Q699-600 689.5-609.5q-9.5-9.5-9.5-23.833 0-14.333 9.5-23.833 9.5-9.5 23.833-9.5h91.001Q754.334-742 665.5-797.667q-88.833-55.667-185.5-55.667ZM478-244q17.667 0 29.833-12.167Q520-268.333 520-286q0-17.666-12.167-30-12.166-12.333-29.833-12.333-17.667 0-29.833 12.167Q436-304 436-286.333q0 17.666 12.167 30Q460.333-244 478-244Zm72.666-245.333q33.667-33.667 46.167-57.834 12.5-24.166 12.5-52.833 0-53.333-37.333-85.333t-92.667-32q-40.666 0-72.666 16.166-32 16.167-52 48.167-7.334 11.667-2.834 24.333 4.5 12.667 16.5 18 12 5.334 24.333 0 12.334-5.333 21-16 12.667-14 29.334-22t36.333-8q28.334 0 47.834 15.834 19.5 15.833 19.5 43.166 0 19-10 37t-36 42.334q-27.667 25.333-39.5 46-11.834 20.666-15.5 46.333-2 13 7.333 22.833 9.333 9.834 22.667 9.834 12.999 0 21.666-9.5t12-22.5q4-17.667 13.833-32 9.834-14.334 27.5-32Z"/></svg>