<svg xmlns="http://www.w3.org/2000/svg" height="40" viewBox="0 -960 960 960" width="40"><path d="M590-643.417q0-46.583-30.327-74.25t-80.34-27.667q-30.871 0-55.887 13.521-25.016 13.52-43.113 39.479-12.666 18.334-34.166 22.167-21.5 3.833-39.5-8.167Q289.334-690 286.167-707q-3.167-17 8.5-35.333Q325.333-789 373.58-814.5T479.333-840q95 0 153.167 53.157 58.166 53.158 58.166 139.176Q690.666-602 671-564q-19.667 38-67.333 84.333-37 35-50 55.313-13 20.312-17 46.354-3.334 22-18.834 36.667-15.5 14.666-36.365 14.666-20.865 0-35.833-14.166-14.968-14.167-14.968-33.834 0-35.666 17.666-67.833 17.667-32.167 55.909-66.981Q553-553 571.5-582.5 590-612 590-643.417ZM479.274-80Q449-80 427.5-101.559T406-153.392q0-30.274 21.559-51.774t51.833-21.5q30.275 0 51.775 21.559 21.499 21.559 21.499 51.833 0 30.274-21.559 51.774Q509.549-80 479.274-80Z"/></svg>