<svg xmlns="http://www.w3.org/2000/svg" viewBox="0 -960 960 960" width="32" height="32"><path d="M152.67-722.67H430 152.67ZM182.33-80q-8.93 0-15.03-5.07-6.09-5.06-8.53-12.66-2.44-7.6-.1-15.1 2.33-7.5 10-12.84L220-160q-58 0-99-41t-41-99v-392q0-76.67 73.5-109t251.17-35.67q14.45 0 24.22 9.17 9.78 9.17 9.78 23.58 0 14.42-9.03 24.17Q420.61-770 406-770q-122.67 1.33-180 12.83t-73.33 34.5h230.66q14.17 0 23.75 9.62 9.59 9.62 9.59 23.83 0 14.22-9.59 23.72-9.58 9.5-23.75 9.5H146.67v155.33H541q14.39 0 23.69 9.62 9.31 9.62 9.31 23.83 0 14.22-9.58 23.72-9.58 9.5-23.75 9.5h-394v134q0 30.56 21.39 51.94 21.38 21.39 51.94 21.39h360q30.56 0 51.94-21.39 21.39-21.38 21.39-51.94v-81.67q0-14.16 9.62-23.75 9.62-9.58 23.83-9.58 14.22 0 23.72 9.58 9.5 9.59 9.5 23.75V-300q0 58-41 99t-99 41l51.33 34.33q7.67 5.34 10 12.84 2.34 7.5-.1 15.1t-8.53 12.66Q626.6-80 617.67-80H182.33Zm503.8-412q-80.46 0-137.3-56.84Q492-605.68 492-686.33 492-766 548.67-823q56.66-57 137.33-57 81 0 137.5 56.5T880-686q0 81-56.71 137.5T686.13-492ZM688-652.67q8 0 13-5.33t5-13.33v-112q0-8-5.33-13-5.34-5-13.34-5t-13 5.33q-5 5.33-5 13.33v112q0 8 5.34 13 5.33 5 13.33 5Zm-.33 83.34q9 0 15.33-6t6.33-15.34q0-9.33-6.4-15.33T688-612q-10 .67-15.67 6.67-5.66 6-5.66 15t6 15q6 6 15 6ZM400.04-274.67q23.63 0 40.13-16.54 16.5-16.53 16.5-40.16 0-23.63-16.54-40.13-16.54-16.5-40.17-16.5-23.63 0-40.13 16.54-16.5 16.54-16.5 40.17 0 23.62 16.54 40.12 16.54 16.5 40.17 16.5ZM653.33-434H146.67h506.66Z"/></svg>