<svg xmlns="http://www.w3.org/2000/svg" height="40" viewBox="0 -960 960 960" width="40"><path d="M478.667-120q-14.334 0-23.834-9.5t-9.5-23.833V-382q-28.666 39.333-69.5 76.333Q335-268.667 284-237q-14 9-29.5 8t-26.833-12.333q-9.667-9.667-5.5-23.5 4.166-13.834 17.166-22.5 92.335-59.334 149.168-129.5Q445.333-487 445.333-586.666v-126.335l-58 57.668q-9.667 9.666-23.333 9.666-13.667 0-23.334-9.666-9.999-10-9.833-23.5.167-13.5 9.833-23.167l114.667-114.667q5.334-5.333 11-7.5 5.667-2.166 12.334-2.166 6.666 0 12.333 2.166 5.667 2.167 11 7.5L616.667-702q9.666 9.667 9.666 23.333 0 13.667-9.666 23.334-10 10-23.5 10T570-655l-58-58.001v559.668q0 14.333-9.5 23.833-9.5 9.5-23.833 9.5Z"/></svg>