<svg xmlns="http://www.w3.org/2000/svg" height="40" viewBox="0 -960 960 960" width="40"><path d="M360-257.334h226.667q15 0 26.166-6.833Q624-271 630.667-284l80-186.667q2-5 3.333-13.333 1.333-8.334 1.333-13.334V-524q0-15-8.166-23.167Q699-555.333 684-555.333H480l27.333-137.334q2-8.666-.333-16.333-2.334-7.666-8-13.333l-23.667-24.333L306.667-564q-5.333 8-9.333 16.667-4 8.666-4 18.666V-324q0 26.333 19.833 46.5Q333-257.334 360-257.334ZM480-80q-82.333 0-155.333-31.5t-127.334-85.833Q143-251.667 111.5-324.667T80-480q0-83 31.5-156t85.833-127q54.334-54 127.334-85.5T480-880q83 0 156 31.5T763-763q54 54 85.5 127T880-480q0 82.333-31.5 155.333T763-197.333Q709-143 636-111.5T480-80Zm0-66.666q139.333 0 236.334-97.334 97-97.333 97-236 0-139.333-97-236.334-97.001-97-236.334-97-138.667 0-236 97Q146.666-619.333 146.666-480q0 138.667 97.334 236 97.333 97.334 236 97.334ZM480-480Z"/></svg>