<svg xmlns="http://www.w3.org/2000/svg" height="40" viewBox="0 -960 960 960" width="40"><path d="M360-514.667h-30q-11.267 0-18.633-7.578Q304-529.822 304-541.411t7.556-18.756q7.555-7.167 19.111-7.167h56.666q11.667 0 18.834 7.167 7.166 7.167 7.166 18.833V-340q0 11.556-7.577 19.111-7.578 7.556-19.167 7.556-11.589 0-19.089-7.556Q360-328.444 360-340v-174.667Zm144.667 201.334q-18.134 0-30.4-12.267Q462-337.867 462-356v-168.667q0-18.133 12.267-30.4 12.266-12.267 30.4-12.267h82q18.133 0 30.4 12.267t12.267 30.4V-356q0 18.133-12.267 30.4t-30.4 12.267h-82Zm10.666-53.333H576v-148.001h-60.667v148.001ZM480-80q-75 0-140.5-28.167-65.5-28.166-114.333-77-48.834-48.833-77-114.333Q120-365 120-440q0-14.167 9.617-23.75t23.833-9.583q14.216 0 23.716 9.583 9.5 9.583 9.5 23.75 0 122.572 85.381 207.953T480-146.666q122.572 0 207.953-85.381T773.334-440q0-122.572-83.834-207.953-83.833-85.381-206.167-85.381h-16.667l46.001 46.001q10 10 9.833 23.333-.167 13.333-9.572 23.333-10.261 10-23.761 10.167-13.5.166-23.5-9.834L361.334-744.667q-10-10-10-23.333 0-13.333 10-23.333l105-105q9.333-9.334 23.166-9.167 13.834.167 23.399 9.5 8.768 9.333 8.934 23 .167 13.666-9.166 23l-50.001 50H480q75 0 140.5 28.167 65.5 28.166 114.333 77 48.834 48.833 77 114.333Q840-515 840-440t-28.167 140.5q-28.166 65.5-77 114.333-48.833 48.834-114.333 77Q555-80 480-80Z"/></svg>