<svg xmlns="http://www.w3.org/2000/svg" height="40" viewBox="0 -960 960 960" width="40"><path d="M606.667-153.333v-209.334q0-25 15.333-43.666 15.333-18.667 40.333-22.333 65-8.334 108.001-56.834 43-48.5 43-114.5 0-72-50.667-122.667T640-773.334q-66 0-114.834 43.334Q476.333-686.667 468-621.667q-3.667 23-23.334 39-19.666 16-42.666 16H206.999L265-508.666q10 10 9.833 23.333Q274.667-472 264.667-462q-10 9.667-23.334 9.833Q228-452 218-462L103.333-576.667q-5.333-5.333-7.5-11-2.166-5.666-2.166-12.333t2.166-12.333q2.167-5.667 7.5-11L218-738q9.667-9.667 23.167-9.833 13.5-.167 23.5 9.833 9.666 9.666 9.666 23.333 0 13.667-9.666 23.333l-57.668 58.001h195.334q12-89.334 79.834-148Q550-840 640-840q100 0 170 70t70 170q0 90-58.667 157.833-58.666 67.834-148 79.834v209q0 14.333-9.5 23.833-9.5 9.5-23.833 9.5-14.333 0-23.833-9.5-9.5-9.5-9.5-23.833Z"/></svg>