<svg xmlns="http://www.w3.org/2000/svg" height="40" viewBox="0 -960 960 960" width="40"><path d="M844.55-231.333q-14.216 0-23.716-9.583-9.5-9.584-9.5-23.75v-258.001q0-14.166 9.617-23.75Q830.568-556 844.784-556q14.216 0 23.716 9.583 9.5 9.584 9.5 23.75v258.001q0 14.166-9.617 23.75-9.617 9.583-23.833 9.583Zm2.129 146.666q-15.012 0-25.179-10.155-10.166-10.155-10.166-25.166 0-15.012 10.155-25.179 10.155-10.166 25.166-10.166 15.012 0 25.178 10.155Q882-135.023 882-120.012q0 15.012-10.155 25.179-10.155 10.166-25.166 10.166ZM478.667-80q-83 0-156-31.5t-127-85.5q-54-54-85.5-127t-31.5-156q0-83 31.5-156t85.5-127q54-54 127-85.5t156-31.5q78.333 0 150.5 29.333 72.166 29.334 128.166 85.334 10 10 10 23.333 0 13.333-10 23.333l-222 222.001q-15.667 15.666-36.166 7.062-20.5-8.604-20.5-30.729v-293.001q-139.334 0-236.334 96.875-97 96.876-97 236.459t96.875 236.459q96.875 96.875 236.459 96.875 62.667 0 120-22.834 57.334-22.833 104.667-63.5 10.667-9 24-8t22 11.666q8.666 10.667 7.833 24.167-.833 13.5-11.5 22.166-56 49.334-124.659 76.168Q552.349-80 478.667-80Z"/></svg>