<svg xmlns="http://www.w3.org/2000/svg" height="40" viewBox="0 -960 960 960" width="40"><path d="M479.883-200q-14.216 0-23.716-9.583-9.5-9.584-9.5-23.75v-493.334q0-14.166 9.617-23.75Q465.901-760 480.117-760q14.216 0 23.716 9.583 9.5 9.584 9.5 23.75v493.334q0 14.166-9.617 23.75Q494.099-200 479.883-200ZM40-326.667V-343q0-22.054 11.939-40.432Q63.877-401.811 84.999-411q25.386-10.681 52.236-16.507 26.85-5.826 56.141-5.826 29.29 0 56.111 5.826 26.821 5.826 52.179 16.507 21.123 9.189 33.062 27.568 11.938 18.378 11.938 40.432v16.333H40Zm573.334 0V-343q0-22.054 11.938-40.432 11.939-18.379 33.062-27.568 25.385-10.681 52.235-16.507 26.85-5.826 56.14-5.826 29.291 0 56.112 5.826T875-411q21.122 9.189 33.061 27.568Q920-365.054 920-343v16.333H613.334Zm-420.03-156.666q-31.637 0-54.137-22.53-22.5-22.529-22.5-54.166 0-31.638 22.529-54.138 22.53-22.5 54.167-22.5t54.137 22.53q22.5 22.529 22.5 54.166 0 31.638-22.53 54.138-22.529 22.5-54.166 22.5Zm573.333 0q-31.637 0-54.137-22.53-22.5-22.529-22.5-54.166 0-31.638 22.53-54.138 22.529-22.5 54.166-22.5 31.637 0 54.137 22.53 22.5 22.529 22.5 54.166 0 31.638-22.529 54.138-22.53 22.5-54.167 22.5Z"/></svg>