<svg xmlns="http://www.w3.org/2000/svg" height="40" viewBox="0 -960 960 960" width="40"><path d="M120-210v-540q0-18 14.833-27.5 14.834-9.5 31.5-2.833l587.002 247h-43.334q-27.667 0-52.333 3.334-24.666 3.333-45 9.999L186.666-700.001v158.668L428-480l-241.334 60v158.001l260.002-109.334q-8 19-13 41.5T427.334-290v.666L166.666-179.667Q150-173 135-182.5T120-210ZM686.667-80q-79.667 0-136.5-56.5t-56.833-136.166q0-80.334 56.833-137.167t136.5-56.833q79.666 0 136.5 56.833Q880-353 880-272.666 880-193 823.167-136.5 766.333-80 686.667-80Zm18-202v-97.333q0-8-6-14t-14-6q-8 0-14.334 6.333Q664-386.667 664-378.667v101.001q0 6.666 2.333 12.5Q668.667-259.333 674-254l66.667 66.667q6 6 14.667 6Q764-181.333 770-188q6-6 5.667-14.666-.333-8.667-6.333-14.667L704.667-282Zm-518.001-89.333v-328.668V-261.999v-109.334Z"/></svg>