<svg xmlns="http://www.w3.org/2000/svg" height="40" viewBox="0 -960 960 960" width="40"><path d="M773.334-481q0-89.667-49.667-162.834Q674-717 592.667-751q-13-5.667-18.667-17.75-5.667-12.084-.667-24.584 6-13.333 19.334-18.666 13.333-5.333 27.333.333Q719-770 779.5-681T840-481q0 111-60.5 200T620-150.333q-14 5.666-27.333.333-13.334-5.333-19.334-18.666-5-12.5.667-24.584 5.667-12.083 18.667-17.75 81.333-34 131-107.166Q773.334-391.333 773.334-481ZM280-360H153.333q-14.166 0-23.75-9.583-9.583-9.584-9.583-23.75v-173.334q0-14.166 9.583-23.75 9.584-9.583 23.75-9.583H280l143.334-143.334Q439-759 459.5-750.396q20.5 8.604 20.5 30.729v479.334q0 22.125-20.5 30.729t-36.166-7.062L280-360Zm380-119.96q0 44.293-20.167 82.793-20.166 38.501-55.167 62.834-8.333 4.666-23.166 7.167-14.834 2.5-14.834-15.5v-276.001q0-18 15.167-15.5t23.5 7.167q35 24.333 54.834 63Q660-525.333 660-479.96ZM413.334-325.332v-308.669L309.333-533.334H186.666v106.668h122.667l104.001 101.334ZM73.216-685.333q-14.216 0-23.716-9.584-9.5-9.583-9.5-23.75v-134.667q0-27.5 19.583-47.083T106.666-920h134.667q14.167 0 23.75 9.617 9.584 9.617 9.584 23.833 0 14.216-9.584 23.716-9.583 9.5-23.75 9.5H106.666v134.667q0 14.167-9.617 23.75-9.617 9.584-23.833 9.584ZM718.667-40q-14.167 0-23.75-9.617-9.584-9.617-9.584-23.833 0-14.216 9.584-23.716 9.583-9.5 23.75-9.5h134.667v-134.667q0-14.167 9.617-23.75 9.617-9.584 23.833-9.584 14.216 0 23.716 9.584 9.5 9.583 9.5 23.75v134.667q0 27.5-19.583 47.083T853.334-40H718.667ZM300-480Z"/></svg>