<svg xmlns="http://www.w3.org/2000/svg" height="40" viewBox="0 -960 960 960" width="40"><path d="m350-530 25 26q7.333 7.333 18.167 7 10.833-.333 18.499-8.667 6.667-7.333 6.667-17.5 0-10.166-7.333-17.833l-26.334-27 26.667-27q7.333-7.334 7.167-17.5-.167-10.167-6.834-17.833-7.666-8-18.499-8.334Q382.333-639 374.333-631L350-606.667l-30-26q-8-7.333-18.5-6.5-10.5.834-18.167 9.167-6.666 7.333-6.833 17.5-.167 10.166 7.5 17.5l27.333 27L284-540.667q-7.333 7.334-7.333 17.5 0 10.167 7.666 18.5 6.667 8 17.5 8.5t18.833-7.166L350-530Zm260 0 29.667 27.667q8 7.333 18.5 6.166 10.5-1.166 18.167-9.5Q683-513 683-523.167q0-10.166-7.333-17.833l-26.334-27L676-595q7.333-7.334 7.167-17.5-.167-10.167-7.833-18.5-6.667-8-17.5-8.5Q647-640 639-633l-29 26.333L584.667-631q-7.334-8-18.167-7.667-10.833.334-18.5 8.667-6.666 7.333-6.833 17.5-.167 10.166 7.5 17.5l26.667 27-26.667 27.333q-7.333 7.334-7.333 17.5 0 10.167 7 17.5 7.333 8.334 18.166 8.667 10.833.333 19.167-8L610-530ZM480-80q-83 0-156-31.5T197-197q-54-54-85.5-127T80-480q0-83 31.5-155.5t85.5-127q54-54.5 127-86T480-880q83 0 155.5 31.5t127 86q54.5 54.5 86 127T880-480q0 83-31.5 156t-86 127q-54.5 54-127 85.5T480-80Zm0-400Zm0 333.334q138.333 0 235.834-97 97.5-97.001 97.5-236.334 0-138.333-97.5-235.834-97.501-97.5-235.834-97.5-139.333 0-236.334 97.5-97 97.501-97 235.834 0 139.333 97 236.334 97.001 97 236.334 97ZM480-418q-57 0-105.667 28-48.666 28-79.333 75.667-6.667 12 .333 23.166 7 11.167 20.334 11.167h327.666q13.334 0 20.334-11.167 7-11.166 1-23.166-30.667-48.334-79.5-76Q536.333-418 480-418Z"/></svg>