<svg xmlns="http://www.w3.org/2000/svg" viewBox="0 -960 960 960" width="32" height="32"><path d="M684.02-146.67q20.98 0 35.15-14.19 14.16-14.19 14.16-35.16 0-20.98-14.19-35.15-14.19-14.16-35.16-14.16-20.98 0-35.15 14.19-14.16 14.19-14.16 35.16 0 20.98 14.19 35.15 14.19 14.16 35.16 14.16Zm0-568q20.98 0 35.15-14.19 14.16-14.19 14.16-35.16 0-20.98-14.19-35.15-14.19-14.16-35.16-14.16-20.98 0-35.15 14.19-14.16 14.19-14.16 35.16 0 20.98 14.19 35.15 14.19 14.16 35.16 14.16ZM684-648q-23.52 0-44.09-8.83-20.58-8.84-36.58-23.84L286-501.33q-9.33 5-18.5 8T248-491q-5.33-1.33-10.5-1.83t-10.83-.5q-30 0-56.17 6.83t-53.17 20.83q-6.66 3.67-13.5 2.34Q97-464.67 92-469.67t-8.17-12.5q-3.16-7.5-1.5-16.16 6.34-42 39-69.84Q154-596 196-596q24 0 45 9.03T278-562l294.33-170q-2-7.67-3.16-15.5Q568-755.33 568-764q0-48.33 33.83-82.17Q635.67-880 684-880t82.17 33.83Q800-812.33 800-764t-33.83 82.17Q732.33-648 684-648Zm0 568q-48.33 0-82.17-33.83Q568-147.67 568-196q0-7.33 4.33-32l-74.66-44q-10.67-6.67-14.17-18.17-3.5-11.5 3.17-22.16 6.66-10.67 18.16-14.17T527-324l77 44q16-15 36.4-23.5 20.39-8.5 43.7-8.5 48.57 0 82.23 33.83Q800-244.33 800-196t-33.83 82.17Q732.33-80 684-80ZM233.33-40q-79.66 0-136.5-56.83Q40-153.67 40-233.33q0-79.67 56.83-136.5 56.84-56.84 136.5-56.84 79.67 0 136.5 56.84 56.84 56.83 56.84 136.5 0 79.66-56.84 136.5Q313-40 233.33-40Zm0-167.33 56.67 57q5.33 5.33 12.33 5 7-.34 12.34-5.51 5.33-5.17 5.33-12.5T314.67-176l-57.34-56.67 59-59q5.34-5.27 5.34-12.3 0-7.03-5.29-12.36-5.28-5.34-12.33-5.34t-12.38 5.34L233.33-258 175-316.33q-5.09-5.34-11.88-5.34-6.79 0-12.12 5.29-5.33 5.28-5.33 12.33t5.33 12.38l57.67 58.34L151-175.67q-5.33 5.46-5.33 12.73 0 7.27 5.43 12.61 5.42 5.33 12.66 5.33t12.57-5.33l57-57ZM684-196Zm0-568Z"/></svg>