<svg xmlns="http://www.w3.org/2000/svg" height="40" viewBox="0 -960 960 960" width="40"><path d="M211-120q-22.333 0-40.333-13.5t-24-35.5L39.333-557.667q-4.333-15.666 5.384-29Q54.434-600 71.333-600h198l182-267.333q5-6.667 12-10.667T479-882q8.667 0 15.667 4t12 10.667L688-600h201.334q16.899 0 26.616 13.333 9.717 13.334 5.383 29L813.333-169q-6 22-24 35.5T749-120H211Zm-.334-66.666h538.668l96.667-346.668H114.666l96 346.668Zm269.452-106.668q27.549 0 47.048-19.618 19.5-19.617 19.5-47.166 0-27.549-19.618-47.048-19.617-19.5-47.166-19.5-27.549 0-47.048 19.618-19.5 19.617-19.5 47.166 0 27.549 19.618 47.048 19.617 19.5 47.166 19.5ZM350.333-600h257.001L479-789.334 350.333-600Zm130.334 240Z"/></svg>