<svg xmlns="http://www.w3.org/2000/svg" height="40" viewBox="0 -960 960 960" width="40"><path d="M480-688.668V-394l123.334 94.001L554.667-456l114.001-76H530.667L480-688.668ZM480-308 315.333-182.333q-9.667 7.667-20 6.833-10.333-.833-19-6.5-8.667-5.666-12.833-15.333-4.167-9.666-.5-21.666L326-424 164.333-539.667q-10-6.667-12.667-17.333-2.666-10.667.667-19.667 3.333-9 11.333-16.166 8-7.167 20-7.167H384l64-213.334q3.667-12 12.833-18.167Q470-837.667 480-837.667q10 0 19.167 6.166 9.166 6.167 12.833 18.167L576-600h200.334q12 0 20 7.167 8 7.166 11.333 16.166t.667 19.667q-2.667 10.666-12.667 17.333L634-424l63 205.001q3.667 12-.5 21.666-4.166 9.667-12.833 15.333-8.667 5.667-19 6.5-10.333.834-20-6.833L480-308Z"/></svg>