<svg xmlns="http://www.w3.org/2000/svg" height="40" viewBox="0 -960 960 960" width="40"><path d="M186.333-120q-27 0-46.833-19.833t-19.833-46.833v-332.001q-26.334-23-36.5-57.333Q73-610.333 84.333-646.667L127-782q8-26.667 28.167-42.333Q175.333-840 201.667-840h554q27.666 0 48.333 15.833 20.667 15.834 29 42.167l43.333 135.333q11.334 36.334.834 70.334t-36.834 57.666v332.001q0 27-19.833 46.833T773.667-120H186.333Zm383.334-433.333q28.333 0 46.333-18.834 18-18.833 14.334-44.5l-24-156.667h-92.668V-614q0 24.333 16.001 42.5 16 18.167 40 18.167Zm-184.667 0q26.333 0 44.167-17.834Q447-589 447-614v-159.334h-92.667l-24 156.667q-4 25.334 12.833 44.334 16.834 19 41.834 19Zm-180.667 0q22 0 38.167-15.334 16.167-15.333 19.167-38l24.666-166.667h-92.667l-44 142.001Q141-604 157.166-578.667q16.167 25.334 47.167 25.334Zm551.334 0q31 0 47.667-25 16.666-25 7.666-53l-44.666-142.001h-92.001L699-606.667q3 22.667 19.167 38 16.166 15.334 37.5 15.334ZM186.333-186.666h587.334V-488q-1 1.333-6.5 1.333h-11.5q-25.667 0-47.5-10-21.834-10-43.167-31.333-16.667 19.333-40.333 30.333-23.667 11-51.667 11-29 0-51.167-9-22.166-9-41.5-28.333-15.666 18-38.5 27.666Q419-486.667 391-486.667q-30.333 0-54.167-10.667Q313-508 295.667-528q-23 21-45.167 31.166-22.167 10.167-46.167 10.167h-10.5q-5.167 0-7.5-1.333v301.334Zm587.334 0H186.333 773.667Z"/></svg>