<svg xmlns="http://www.w3.org/2000/svg" height="40" viewBox="0 -960 960 960" width="40"><path d="m154.333-152.666-26.666-9.333q-31.667-13.667-42.834-47-11.166-33.334 5.5-65.667l64-142.666v264.666Zm177.334 81.333q-33.667 0-57.5-23.833-23.833-23.834-23.833-57.5v-218L347-98q2.333 7.667 6 13.834 3.667 6.166 9.333 12.833h-30.666Zm194-17.334q-24.667 10-50-3.666-25.333-13.667-36-39.667L253-640.667q-10.666-26 2-50.833 12.667-24.833 40-35.167L607.667-840q26-9.333 50.666 3.667 24.667 13 35.334 39.666L880.333-292q8.667 27.333-2.666 53.5-11.333 26.166-38.667 35.833l-313.333 114Zm-83.334-488.667q13.667 0 23.5-9.833 9.834-9.833 9.834-23.5t-9.834-23.5Q456-644 442.333-644q-13.666 0-23.499 9.833-9.834 9.833-9.834 23.5t9.834 23.5q9.833 9.833 23.499 9.833Zm61.334 424.668 312.667-114.001L629.667-776 317-662.667l186.667 510.001ZM317-662.667 629.667-776 317-662.667Z"/></svg>