<svg xmlns="http://www.w3.org/2000/svg" height="40" viewBox="0 -960 960 960" width="40"><path d="M146.666-160q-27 0-46.833-19.583T80-226.666v-506.668q0-27 19.833-46.833T146.666-800h14.667L228-733.334h-81.334v506.668h494.668L526.667-340.001H273.333q-14.166 0-23.75-9.616Q240-359.234 240-373.451q0-14.216 9.583-23.716 9.584-9.5 23.75-9.5h187.334l-401.333-402q-9.667-9.667-9.834-23.167-.166-13.5 9.834-23.499Q69-865 82.666-865q13.666 0 23.333 9.667l748 748.666Q863.667-97 863.833-83.5 864-70 854-60q-9.667 9.666-23.333 9.666-13.667 0-23.333-9.666L706.667-160H146.666ZM880-733.334v478.002q0 16.666-10.417 25-10.416 8.333-22.916 8.333-15 0-24.167-9.333-9.166-9.334-9.166-24.334v-477.668H336.999q-16.667 0-25-10.453-8.333-10.453-8.333-22.997 0-14.216 9.583-23.716 9.583-9.5 23.75-9.5h476.335q26.333 0 46.499 20.167Q880-759.667 880-733.334ZM686.667-473.333H597q-16.667 0-25-10.379-8.334-10.379-8.334-22.833 0-12.455 8.334-22.954 8.333-10.5 25-10.5h89.667q14.166 0 23.75 9.617Q720-520.766 720-506.549q0 14.216-9.583 23.716-9.584 9.5-23.75 9.5Zm-118.334-15Zm-173.999 14.666Zm-121.118.334q-14.216 0-23.716-9.617-9.5-9.617-9.5-23.833 0-14.217 9.617-23.716 9.617-9.5 23.833-9.5 14.216 0 23.716 9.617 9.5 9.616 9.5 23.833 0 14.216-9.617 23.716-9.617 9.5-23.833 9.5Z"/></svg>