<svg xmlns="http://www.w3.org/2000/svg" height="40" viewBox="0 -960 960 960" width="40"><path d="M335.999-359.333h150.668q14.333 0 23.833-9.5 9.5-9.5 9.5-23.833 0-14.334-9.5-23.834t-23.833-9.5H335.999l53.668-54q9.666-9.667 9.666-23.5t-10-23.833Q379.667-537 365.667-537T342-527.333L230.667-416q-10 10-10 23.334 0 13.333 10 23.333L342-258q9.667 9.667 23.5 9.5 13.833-.166 23.833-10.166 9.667-9.667 9.834-23.5.166-13.834-9.5-23.833l-53.668-53.334Zm288.002-169.334-53.668 54.001q-9.666 9.666-9.666 23.499 0 13.834 10 23.834 9.666 9.666 23.666 9.666T618-427.333l111.333-111.334q10-10 10-23.333 0-13.333-10-23.333L618.666-696q-9.666-9.667-23.499-10.167-13.834-.5-23.834 9.5-9.666 9.667-9.833 23.833-.167 14.167 9.5 24.167l53.001 53.334H473.333q-14.333 0-23.833 9.5-9.5 9.5-9.5 23.833 0 14.333 9.5 23.833 9.5 9.5 23.833 9.5h150.668ZM480-80q-82.333 0-155.333-31.5t-127.334-85.833Q143-251.667 111.5-324.667T80-480q0-83 31.5-156t85.833-127q54.334-54 127.334-85.5T480-880q83 0 156 31.5T763-763q54 54 85.5 127T880-480q0 82.333-31.5 155.333T763-197.333Q709-143 636-111.5T480-80Zm0-66.666q139.333 0 236.334-97.334 97-97.333 97-236 0-139.333-97-236.334-97.001-97-236.334-97-138.667 0-236 97Q146.666-619.333 146.666-480q0 138.667 97.334 236 97.333 97.334 236 97.334ZM480-480Z"/></svg>