<svg xmlns="http://www.w3.org/2000/svg" height="40" viewBox="0 -960 960 960" width="40"><path d="M483.618-716.667q-6.951 0-11.951-5-5-5-5-11.951v-69.503q0-36.489 25.195-61.684T553.547-890h69.503q6.95 0 11.95 5 5 5 5 11.95v69.503q0 36.49-25.195 61.685t-61.684 25.195h-69.503Zm-276.952 240q-52.476 0-89.571-37.096Q80-550.858 80-603.334v-93.333q0-14.166 9.583-23.75Q99.167-730 113.333-730h93.333q52.476 0 89.571 37.095 37.096 37.095 37.096 89.571v93.333q0 14.167-9.584 23.75-9.583 9.584-23.75 9.584h-93.333ZM640-90q-40.684 0-77.716-13.067Q525.252-116.133 495-139l-31.667 31.667q-9.666 9.666-23 9.666-13.333 0-23-9.666-9.666-9.667-9.666-23 0-13.334 9.666-23L449-185q-22.867-30.252-35.933-67.284Q400-289.316 400-330q0-100 70-170.5T640-571h174.334q27.5 0 47.083 19.583T881-504.334V-330q0 100-70.5 170T640-90Zm0-66.666q72.619 0 122.476-51.113 49.858-51.113 49.858-122.888v-172.667H640.667q-71.775 0-122.888 50.375Q466.666-402.583 466.666-330q0 27.313 7.834 51.656 7.833 24.344 22.167 45.678l120.666-120.667Q627-363 640.333-363q13.334 0 23 9.667 9.667 9.666 9.667 23 0 13.333-9.667 23L542.666-186.667Q564-172.333 588.344-164.5q24.343 7.834 51.656 7.834Zm.333-173.667Z"/></svg>