<svg xmlns="http://www.w3.org/2000/svg" height="40" viewBox="0 -960 960 960" width="40"><path d="M186.666-186.666h586.668V-559L559-773.334H186.666v586.668Zm0 66.666q-27.5 0-47.083-19.583T120-186.666v-586.668q0-27.5 19.583-47.083T186.666-840H559q13.629 0 25.981 5.333 12.352 5.334 21.352 14.334l214 214q9 9 14.334 21.352Q840-572.629 840-559v372.334q0 27.5-19.583 47.083T773.334-120H186.666Zm126-167.334h334.668q14.166 0 23.749-9.616 9.584-9.617 9.584-23.834 0-14.216-9.584-23.716-9.583-9.5-23.749-9.5H312.666q-14.166 0-23.749 9.617-9.584 9.617-9.584 23.833 0 14.217 9.584 23.717 9.583 9.499 23.749 9.499Zm0-159.333h334.668q14.166 0 23.749-9.617 9.584-9.617 9.584-23.833 0-14.216-9.584-23.716-9.583-9.5-23.749-9.5H312.666q-14.166 0-23.749 9.617-9.584 9.617-9.584 23.833 0 14.216 9.584 23.716 9.583 9.5 23.749 9.5Zm0-159.333h210.667q14.167 0 23.75-9.617 9.584-9.617 9.584-23.833 0-14.217-9.584-23.717-9.583-9.499-23.75-9.499H312.666q-14.166 0-23.749 9.616-9.584 9.617-9.584 23.834 0 14.216 9.584 23.716 9.583 9.5 23.749 9.5Zm-126 419.334v-586.668 586.668Z"/></svg>