<svg xmlns="http://www.w3.org/2000/svg" height="40" viewBox="0 -960 960 960" width="40"><path d="M479.883-773.334q-14.216 0-23.716-9.617-9.5-9.617-9.5-23.833 0-14.216 9.617-23.716 9.617-9.5 23.833-9.5 14.216 0 23.716 9.617 9.5 9.617 9.5 23.833 0 14.216-9.617 23.716-9.617 9.5-23.833 9.5Zm163.333 0q-14.216 0-23.716-9.617-9.5-9.617-9.5-23.833 0-14.216 9.617-23.716 9.617-9.5 23.833-9.5 14.217 0 23.717 9.617 9.5 9.617 9.5 23.833 0 14.216-9.617 23.716-9.617 9.5-23.834 9.5Zm163.334 0q-14.216 0-23.716-9.617-9.5-9.617-9.5-23.833 0-14.216 9.617-23.716 9.617-9.5 23.833-9.5 14.216 0 23.716 9.617 9.5 9.617 9.5 23.833 0 14.216-9.617 23.716-9.617 9.5-23.833 9.5ZM479.883-120q-14.216 0-23.716-9.617-9.5-9.617-9.5-23.833 0-14.216 9.617-23.716 9.617-9.5 23.833-9.5 14.216 0 23.716 9.617 9.5 9.617 9.5 23.833 0 14.216-9.617 23.716-9.617 9.5-23.833 9.5Zm163.333 0Q629-120 619.5-129.617q-9.5-9.617-9.5-23.833 0-14.216 9.617-23.716 9.617-9.5 23.833-9.5 14.217 0 23.717 9.617 9.5 9.617 9.5 23.833 0 14.216-9.617 23.716-9.617 9.5-23.834 9.5Zm163.334 0q-14.216 0-23.716-9.617-9.5-9.617-9.5-23.833 0-14.216 9.617-23.716 9.617-9.5 23.833-9.5 14.216 0 23.716 9.617 9.5 9.617 9.5 23.833 0 14.216-9.617 23.716-9.617 9.5-23.833 9.5Zm-653.217 0q-14.166 0-23.75-9.617Q120-139.234 120-153.45q0-14.216 9.583-23.716 9.584-9.5 23.75-9.5H202v-586.668h-48.667q-14.166 0-23.75-9.617Q120-792.568 120-806.784q0-14.216 9.583-23.716 9.584-9.5 23.75-9.5h163.334q14.166 0 23.749 9.617Q350-820.766 350-806.55q0 14.216-9.584 23.716-9.583 9.5-23.749 9.5h-48.001v586.668h48.001q14.166 0 23.749 9.617Q350-167.432 350-153.216q0 14.216-9.584 23.716-9.583 9.5-23.749 9.5H153.333Zm559.001-326.667H466.667q-14.166 0-23.749-9.617-9.584-9.617-9.584-23.833 0-14.216 9.584-23.716 9.583-9.5 23.749-9.5h245.667l-46.667-47.334q-9-9.666-9.333-23.166-.334-13.5 9.666-23.5Q675.667-617 689.334-617q13.666 0 23.333 9.667l104 104q10 10 10 23.333 0 13.333-10 23.333l-104 104Q703-343 689.5-342.834q-13.5.167-23.5-9.833-9.666-9.666-9.333-23.333.333-13.667 9.333-23.333l46.334-47.334Z"/></svg>