<svg xmlns="http://www.w3.org/2000/svg" height="40" viewBox="0 -960 960 960" width="40"><path d="M146.666-80q-27.5 0-47.083-19.583T80-146.666v-666.668q0-27.5 19.583-47.083T146.666-880h260.001q14.166 0 23.75 9.617Q440-860.766 440-846.55q0 14.216-9.583 23.716-9.584 9.5-23.75 9.5H146.666v666.668h466.668v-66.668q0-14.166 9.617-23.75 9.617-9.583 23.833-9.583 14.216 0 23.716 9.583 9.5 9.584 9.5 23.75v66.668q0 27.5-19.583 47.083T613.334-80H146.666Zm126.667-166.667q-14.166 0-23.75-9.617Q240-265.901 240-280.117q0-14.216 9.583-23.716 9.584-9.5 23.75-9.5h213.334q14.166 0 23.75 9.617Q520-294.099 520-279.883q0 14.216-9.583 23.716-9.584 9.5-23.75 9.5H273.333Zm0-120q-14.166 0-23.75-9.617Q240-385.901 240-400.117q0-14.216 9.583-23.716 9.584-9.5 23.75-9.5h133.334q14.166 0 23.75 9.617Q440-414.099 440-399.883q0 14.216-9.583 23.716-9.584 9.5-23.75 9.5H273.333ZM359.999-520q-16.666 0-28.332-11.667Q320-543.333 320-559.999v-120.002q0-16.666 11.667-28.332Q343.333-720 359.999-720h93.335l103.333-103.334q5-5 10.979-7.5 5.978-2.5 12.355-2.5 14.166 0 23.749 9.667 9.584 9.667 9.584 24v359.334q0 14.333-9.584 24-9.583 9.667-23.749 9.667-6.667 0-12.5-2.5-5.834-2.5-10.834-7.5L453.334-520h-93.335Zm426.668-100q0 41.667-19 78-19 36.334-52.334 60.667Q704-473.999 692-478.854q-12-4.855-12-17.479v-252.668q0-12.667 12-17.833 12-5.167 23.333 2.833 34.667 25 53.001 63Q786.667-663 786.667-620Zm66.667 0q0-72.667-38.834-133.667-38.833-61-104.167-93.667-12.333-6-17.666-18.833-5.334-12.833 0-24.93Q698-904 711.167-909.5q13.166-5.5 25.166.5 84.334 40.667 134 118.335Q920-712.996 920-619.998t-49.667 170.665q-49.666 77.666-134 118.333-12 6-25.166.5-13.167-5.5-18.5-18.403-5.334-12.097 0-24.93 5.333-12.833 17.666-18.833 65.334-32.667 104.167-93.667 38.834-61 38.834-133.667Z"/></svg>