<svg xmlns="http://www.w3.org/2000/svg" height="40" viewBox="0 -960 960 960" width="40"><path d="M555.333-560.001q-14.166 0-23.75-9.617Q522-579.235 522-593.451q0-14.217 9.583-23.717 9.584-9.499 23.75-9.499h153.335q14.166 0 23.749 9.616 9.584 9.617 9.584 23.834 0 14.216-9.584 23.716-9.583 9.5-23.749 9.5H555.333Zm0-133.333q-14.166 0-23.75-9.617Q522-712.568 522-726.784q0-14.216 9.583-23.716 9.584-9.5 23.75-9.5h253.334q14.166 0 23.75 9.617Q842-740.766 842-726.55q0 14.216-9.583 23.716-9.584 9.5-23.75 9.5H555.333ZM304-120.667q-78.02 0-133.01-54.99Q116-230.646 116-308.666q0-48 23-90.167T202.667-468v-270.667q0-42.222 29.509-71.778Q261.686-840 303.843-840q42.156 0 71.823 29.555 29.666 29.556 29.666 71.778V-468q40.667 27 63.667 69.167t23 90.167q0 78.02-54.99 133.009-54.99 54.99-133.009 54.99ZM182.666-308.666h242.667q0-36.334-16.834-65.667-16.833-29.334-45.833-44.334l-24-13.999v-306.001q0-14.734-9.967-24.7-9.966-9.967-24.699-9.967-14.734 0-24.7 9.967-9.967 9.966-9.967 24.7v306.001l-24 13.999q-29 15-45.833 44.667-16.834 29.667-16.834 65.334Z"/></svg>