<svg xmlns="http://www.w3.org/2000/svg" height="40" viewBox="0 -960 960 960" width="40"><path d="M364.667-391q-22-5-50.834-12.5-28.833-7.5-61.5-21.167-26-10.666-52.833-24.333-26.833-13.667-53.834-32-12.333-8.667-14.499-23.167Q129-518.667 138-531q8.666-12 22.666-13.667 14-1.666 26 7 26 19.334 54.5 33.834 28.499 14.5 55.333 24.166Q323.332-470 346.832-464t40.167 9.334q22 3.666 35.167 21 13.167 17.333 10.167 39.333-2.667 21.334-4.667 53.668-2 32.333-.333 69.666 1.667 37.334 7.833 78.167 6.167 40.833 18.167 79.499 4.333 12-4.333 21.166Q440.333-83 428-81t-25.5-4.667q-13.167-6.666-18.833-27.999Q372-156 366.333-196.5q-5.666-40.5-6.666-76.5t.666-66.167Q362-369.333 364.667-391h-.334.334Zm357-243Q740-605 750-572t10 69v389.667Q760-99 750.5-89.5 741-80 726.667-80q-14.333 0-23.833-9.5-9.5-9.5-9.5-23.833V-503q0-52-27.5-94.334-27.5-42.333-73.834-64.333L357.333-766q-15-6.667-19-22.334-4-15.666 5.667-28.999 7.333-10 18.667-13.167Q374-833.667 386-828.333L619.667-722q32 14 57.833 36.5t44.167 51.5ZM543.333-201q8.334 0 15.334-4T570-215q5.333 6 12 10t14.667 4q14.333 0 23.833-9.833 9.5-9.834 9.5-23.5 0-14.333-9.5-23.833-9.5-9.5-23.833-9.5h-3.334v-185.668h3.334q14.333 0 23.833-9.833 9.5-9.833 9.5-23.5 0-14.333-9.5-23.833-9.5-9.5-23.833-9.5-8 0-14.667 3.5t-12 9.5q-4.333-6-11.333-9.5t-15.334-3.5q-13.666 0-23.499 9.5Q510-501 510-486.667q0 13.667 9.834 23.5 9.833 9.833 23.499 9.833h3.334v185.668h-3.334q-13.666 0-23.499 9.5-9.834 9.5-9.834 23.833 0 13.666 9.834 23.5Q529.667-201 543.333-201Zm-78 121Q447.666-121.333 439-166.666q-8.667-45.333-11.167-87.999-2.5-42.667-.667-79.167t5.167-60.501q3-22-10.167-39.333-13.167-17.334-35.167-21-19.334-3.334-47-10.834-27.667-7.5-58.667-20t-62.5-30.667Q187.333-534.333 159-560q28.333 25.667 59.832 43.833 31.5 18.167 62.5 30.667t58.667 20q27.666 7.5 47 10.834 22 3.666 35.167 21 13.167 17.333 10.167 39.333-3.334 24.001-5.167 60.501-1.833 36.5.667 79.167 2.5 42.666 11.167 87.999 8.666 45.333 26.333 86.666Z"/></svg>