<svg xmlns="http://www.w3.org/2000/svg" viewBox="0 -960 960 960" width="32" height="32"><path d="M442.33-546.67 179-659.33q-21.26-9.9-26.13-31.95-4.87-22.05 11.96-39.24L179-745q8-8 18.19-11 10.18-3 20.81-1l369.33 64.67 130-130.34q21.67-21.66 52.5-21.66 30.84 0 52.5 21.66Q844-801 844-770.17q0 30.84-21.67 52.5l-130 130.34 64.34 369q2 10.44-.84 20.89Q753-187 745-179l-14.48 13.53Q713.33-148.33 691-153q-22.33-4.67-32-26L546.67-442.33 432-327.33l22.67 128.66q2 8.91-.78 17.37-2.78 8.46-9 14.69l-15.11 15.14q-12.45 12.47-30.53 9.8-18.09-2.66-26.92-18.66l-73.66-138.34-138.34-73.66q-16-8.83-18.66-26.92-2.67-18.08 9.8-30.53l15.14-15.11q6.23-6.22 14.69-9 8.46-2.78 17.37-.78L327-432.33l115.33-114.34Z"/></svg>