<svg xmlns="http://www.w3.org/2000/svg" height="40" viewBox="0 -960 960 960" width="40"><path d="M270-326.667q-14.167 0-23.75-9.617t-9.583-23.833q0-14.216 9.583-23.716 9.583-9.5 23.75-9.5h94q14.167 0 23.75 9.617t9.583 23.833q0 14.216-9.583 23.716-9.583 9.5-23.75 9.5h-94ZM270-490q-14.167 0-23.75-9.617t-9.583-23.833q0-14.217 9.583-23.717 9.583-9.5 23.75-9.5h467.334q14.166 0 23.75 9.617 9.583 9.617 9.583 23.834 0 14.216-9.583 23.716-9.584 9.5-23.75 9.5H270Zm0-163.334q-14.167 0-23.75-9.617t-9.583-23.833q0-14.216 9.583-23.716 9.583-9.5 23.75-9.5h467.334q14.166 0 23.75 9.617 9.583 9.617 9.583 23.833 0 14.216-9.583 23.716-9.584 9.5-23.75 9.5H270Zm369.911 479.001q-6.578 0-12.244-2.167-5.667-2.167-11-7.5l-120-121.333q-10-10-9.834-23.5.167-13.5 10.202-23.5t23.833-10q13.798 0 23.798 10l96.001 97L849-463.666q10-10 23.5-9.834 13.5.167 23.761 10.167 9.406 10 9.572 23.666Q906-426 896-416L663.333-183.333Q658-178 652.244-176.167q-5.755 1.834-12.333 1.834ZM113.216-653.334q-14.216 0-23.716-9.617-9.5-9.617-9.5-23.833Q80-701 89.617-710.5q9.617-9.5 23.833-9.5 14.216 0 23.716 9.617 9.5 9.617 9.5 23.833 0 14.216-9.617 23.716-9.617 9.5-23.833 9.5Zm0 163.334Q99-490 89.5-499.617 80-509.234 80-523.45q0-14.217 9.617-23.717 9.617-9.5 23.833-9.5 14.216 0 23.716 9.617 9.5 9.617 9.5 23.834 0 14.216-9.617 23.716-9.617 9.5-23.833 9.5Zm0 163.333q-14.216 0-23.716-9.617-9.5-9.617-9.5-23.833 0-14.216 9.617-23.716 9.617-9.5 23.833-9.5 14.216 0 23.716 9.617 9.5 9.617 9.5 23.833 0 14.216-9.617 23.716-9.617 9.5-23.833 9.5Z"/></svg>