<svg xmlns="http://www.w3.org/2000/svg" height="40" viewBox="0 -960 960 960" width="40"><path d="M299.333-200q-14.334 0-23.833-9.5-9.5-9.5-9.5-23.833 0-14.333 9.5-23.833 9.499-9.5 23.833-9.5h268q67.667 0 116.834-44.334 49.167-44.333 49.167-110.333 0-66.001-49.167-110.334T567.333-576H286.666L374-488.667q9.666 9.667 9.666 23.333 0 13.667-9.666 23.334-9.667 9.666-23.334 9.666-13.666 0-23.333-9.666l-144-144q-5.333-5.334-7.5-11-2.166-5.667-2.166-12.334 0-6.666 2.166-12.333 2.167-5.666 7.5-11l144-144q9.667-9.666 23.333-9.666 13.667 0 23.334 9.666 9.666 9.667 9.666 23.333 0 13.667-9.666 23.334l-87.334 87.333h280.001q95.666 0 164.5 63.667Q800-515.333 800-421.333t-68.833 157.666Q662.333-200 566.667-200H299.333Z"/></svg>