<svg xmlns="http://www.w3.org/2000/svg" height="40" viewBox="0 -960 960 960" width="40"><path d="M482-120q-75 0-140.833-28.5-65.834-28.5-115-77.333Q177-274.667 148.5-340.5T120-481.333q0-75 28.5-140.167t77.667-113.667q49.166-48.5 115-76.666Q407-840 482-840q80.667 0 152.833 35Q707-770 758.667-708v-68.667q0-14.333 9.5-23.833 9.5-9.5 23.833-9.5 14.333 0 23.833 9.5 9.5 9.5 9.5 23.833v152q0 14.333-9.5 23.833-9.5 9.5-23.833 9.5H639.333q-14.333 0-23.833-9.5-9.5-9.5-9.5-23.833 0-14.334 9.5-23.834t23.833-9.5h73.334Q669.667-710.667 610-742q-59.667-31.334-128-31.334-122.333 0-208.834 84.167-86.5 84.167-86.5 205.834 0 123.666 85.834 210.167 85.833 86.5 209.5 86.5 109.667 0 190.667-71.001 81.001-71 96.334-177.667 3-14 12.999-22.334 10-8.333 23.334-7.666 14.333.666 23.333 10.833 9 10.167 7 23.166-17 133.001-117 222.168T482-120Zm32-374.667L624-386q9.667 9.667 9.667 23.667 0 14-9.667 23.666Q614.333-329 600.667-329q-13.667 0-23.333-9.667L457.333-457.333q-5.333-5.334-7.666-11.5-2.333-6.167-2.333-12.834v-167q0-14.333 9.499-23.833 9.5-9.5 23.834-9.5 14.333 0 23.833 9.5 9.5 9.5 9.5 23.833v154Z"/></svg>