<svg xmlns="http://www.w3.org/2000/svg" height="40" viewBox="0 -960 960 960" width="40"><path d="M446.667-406.667v149.333q0 12.334 11.833 16 11.833 3.667 18.5-6.333l133.333-200q5.667-8.666.833-17.166-4.833-8.5-14.833-8.5h-83v-149.333q0-12.334-11.833-16-11.833-3.667-18.5 6.333l-133.333 200q-5.667 8.666-.833 17.166 4.833 8.5 14.833 8.5h83ZM480-80q-137 0-228.5-94T160-408q0-63.333 28.667-126 28.666-62.667 71.666-120.333 43-57.667 93-108 50-50.334 93.334-88.667 7.333-6.667 15.833-9.5t17.5-2.833q9 0 17.5 2.833t15.833 9.5q43.334 38.333 93.334 88.667 50 50.333 93 108 43 57.666 71.666 120.333Q800-471.333 800-408q0 140-91.5 234T480-80Zm0-66.666q109.333 0 181.334-74.5 72-74.501 72-186.834 0-77-64.5-174.667Q604.333-680.334 480-791.334q-124.333 111-188.834 208.667Q226.666-485 226.666-408q0 112.333 72 186.834 72.001 74.5 181.334 74.5ZM480-480Z"/></svg>