<svg xmlns="http://www.w3.org/2000/svg" height="40" viewBox="0 -960 960 960" width="40"><path d="M160-408q0-65 29.667-129.167 29.666-64.166 74.281-122.521 44.614-58.355 96.833-109.667 52.219-51.312 96.886-90.978 5-4.334 10.833-6.5Q474.333-869 479.778-869q6.222 0 12 2.167 5.777 2.166 10.222 6.5 41 36 83.759 77.28 42.758 41.281 81.241 87.387 29 33.666 53.334 69.833 24.333 36.167 42 74.167 6 12 .666 24.334-5.333 12.333-18.333 17.666-13 5.333-26 .333t-18.999-17q-29.334-60-84.167-126.5-54.834-66.5-135.501-138.501-124.333 111-188.834 208.667Q226.666-485 226.666-408q0 109 68.501 181.834 68.5 72.833 171.834 78.166 17 1 25 12.167t7.333 23.5q-.667 12.333-9.167 22.666-8.5 10.334-24.5 9.667-132-4.333-218.833-99.166Q160-274 160-408Zm315.333-65.333ZM616.333-79q-9 3.666-17.833.5-8.833-3.167-12.5-12.167l-5-11q-8-17-11.167-34.619-3.166-17.619-3.166-35.714 0-21.774 5.333-43.054 5.334-21.279 15.334-41.279 8-17 13.666-34.716 5.667-17.716 5.667-36.951 0-15.93-3.5-30.799-3.5-14.868-10.167-28.868l-1-2.666q-4.333-9-.704-17.941 3.629-8.942 12.5-12.667 8.871-3.725 17.371-.559 8.5 3.167 12.833 12.167l4.333 9.666q8 17 11.5 34.908t3.5 36.759q0 21.312-5 41.656-5 20.344-14.333 39.677-8.267 17.659-14.467 36.357-6.2 18.698-6.2 38.434 0 14.543 3.334 28.709Q620-129 626-115.518l2 5.185q4.333 9 .733 18.241T616.333-79Zm120 0q-9 3.666-17.833.5-8.833-3.167-12.5-12.167l-5-11q-8-17-11.167-34.619-3.166-17.619-3.166-35.714 0-21.774 5.333-43.054 5.334-21.279 15.334-41.279 8-17 13.666-34.716 5.667-17.716 5.667-36.951 0-15.93-3.5-30.799-3.5-14.868-10.167-28.868l-1-2.666q-4.333-9-.704-17.941 3.629-8.942 12.5-12.667 8.871-3.725 17.371-.559 8.5 3.167 12.833 12.167l4.487 8.778Q765.666-383 769.5-364.833q3.833 18.166 3.833 36.833 0 21.312-5 41.656-5 20.344-14.333 39.677-8.267 17.659-14.467 36.357-6.2 18.698-6.2 38.434 0 14.543 3.334 28.709Q740-129 746-115.518l2 5.185q4.333 9 .733 18.241T736.333-79Zm107.463-341.941q8.871-3.725 17.371-.559 8.5 3.167 12.833 12.167l5 9q8 17 11.167 35.208 3.166 18.208 3.166 37.375 0 21.083-5 41.583T874-246.333q-8.267 17.8-14.467 36.123-6.2 18.324-6.2 38.218 0 14.659 3.334 28.825Q860-129 866-115.518l2 5.185q1.666 3.333-2.334 9.666-4 6.334-8 12-4 5.667-5.666 8.834-1.667 3.166 4.333.833-9 3.666-17.833.5-8.833-3.167-12.5-12.167l-5-11q-8-17-11.167-34.619-3.166-17.619-3.166-35.714 0-21.774 5.333-43.054 5.334-21.279 15.334-41.279 8-17 13.666-34.716 5.667-17.716 5.667-36.951 0-15.93-3.5-30.799-3.5-14.868-10.167-28.868l-1-2.666q-4.333-9-.704-17.941 3.629-8.942 12.5-12.667Z"/></svg>