<svg xmlns="http://www.w3.org/2000/svg" height="40" viewBox="0 -960 960 960" width="40"><path d="M693.334-146.666v-666.668q29.666 0 48.166 17.5 18.5 17.5 18.5 49.167v533.334q0 31.667-18.5 49.167t-48.166 17.5ZM146.666-80q-27.5 0-47.083-19.583T80-146.666v-666.668q0-27.5 19.583-47.083T146.666-880h386.668q27.5 0 47.083 19.583T600-813.334v666.668q0 27.5-19.583 47.083T533.334-80H146.666Zm706.668-133.999v-531.335q21.666 0 34.166 11.5 12.5 11.5 12.5 35.166v438.003q0 23.666-12.5 35.166-12.5 11.5-34.166 11.5Zm-706.668 67.333h386.668v-666.668H146.666v666.668Zm0-666.668v666.668-666.668Z"/></svg>