<svg xmlns="http://www.w3.org/2000/svg" height="40" viewBox="0 -960 960 960" width="40"><path d="M756 0q-17 0-28.5-11.5T716-40v-118.667q0-17 11.5-28.5t28.5-11.5h.667V-238q0-34.333 23.5-57.833t57.833-23.5q34.333 0 57.833 23.5t23.5 57.833v39.333H920q17 0 28.5 11.5t11.5 28.5V-40q0 17-11.5 28.5T920 0H756Zm40.667-198.667h82.666V-238q0-18.333-11.5-29.833T838-279.333q-18.333 0-29.833 11.5T796.667-238v39.333Zm-316.667 74q-38 0-65.667-27.666Q386.667-180 386.667-218t27.666-65.666Q442-311.333 480-311.333t65.667 27.667Q573.333-256 573.333-218t-27.666 65.667Q518-124.667 480-124.667ZM480-560q77 0 144.833 26.333Q692.667-507.333 753-457.333q16 13 16.833 33.5.834 20.5-14.499 35.833-15 15-35.334 14.5-20.333-.5-36.999-13.167-48.001-38-99.001-55.667-51-17.667-104-17.667t-104 17.667q-51 17.667-99.001 55.667-16.666 12.667-36.999 13-20.334.334-35.334-14.666-14.999-15.334-14.333-35.833.667-20.5 16.667-33.5 60.333-50.001 128.167-76.167Q403-560 480-560Zm0-240q127 0 239.5 46T922-629q16 14.334 17.333 35 1.334 20.667-13.999 36-15 15-36.334 14.833-21.333-.166-37.999-14.166-79.334-66.334-172.501-104.501T480-700.001q-105.333 0-198.5 38.167T108.999-557.333q-16.666 14-37.666 14.166-21 .167-36-14.833Q20-573.333 21-594q1-20.666 17-35 90-79 202.5-125T480-800Z"/></svg>