<svg xmlns="http://www.w3.org/2000/svg" height="40" viewBox="0 -960 960 960" width="40"><path d="M782.334-83.333 319.667-545.001q-6.001 14.667-9.501 31.001-3.5 16.333-3.5 34 0 30 9.5 56T342-376q8.666 11.334 8.5 25.5-.167 14.167-9.833 23.833-10 10-24 9.834-14-.167-22.667-11.5Q269-360 254.5-398T240-480q0-31.333 7.667-60.333 7.666-29.001 22-54.667l-68.334-68.334q-25.667 40-40.167 86.167T146.666-480q0 62.667 21 117.834Q188.666-307 227-263q9.666 11 10.5 24.834.833 13.833-9.167 23.833-10 10-24.666 10-14.667 0-23.667-11Q133-269 106.5-336T80-480q0-65.333 19.333-123.667Q118.667-662 153.334-711.334l-71-71q-10-10-10-23.833 0-13.833 10-23.833 10-10 23.833-10Q120-840 130-830l700 700q10 10 10 23.333 0 13.334-10 23.334t-23.833 10q-13.833 0-23.833-10Zm31-396.667q0-66.667-25.167-127.833Q763-669 716-716t-108.167-72.167Q546.667-813.334 480-813.334q-46 0-90.167 12.334-44.167 12.333-82.834 37-12 7.667-25.666 5.167-13.667-2.5-22-13.834-8.334-11.333-6-24.666 2.333-13.333 14.333-20.667 48-31 101.834-46.5Q423.333-880 480-880q80 0 153 30t130 87q57 57 87 130t30 153q0 56.334-15.333 110.5-15.334 54.167-46.334 101.501-7.333 11.333-20.167 13.833-12.833 2.5-24.166-4.833-12-8-15.167-21.334-3.166-13.333 4.167-25.666 25.333-39.334 37.834-83.334 12.5-44 12.5-90.667ZM603-603q-25-25-56.667-37.667-31.666-12.667-66.333-12.667-17 0-33.334 3.5-16.333 3.5-31.667 9.501-13 4.666-25.5-.834t-17.166-18.5q-4.667-12.999.833-25.499 5.5-12.5 18.5-17.167 20.667-8.667 43-13.167Q457-720 480-720q48 0 92 18t78 52q34 34 52 78t18 92q0 23-4.5 45.334-4.5 22.333-13.167 43-4.667 13-17.167 18.5-12.5 5.5-25.499.833-13-4.666-18.5-17.166t-.834-25.5q6.001-15.334 9.501-31.667 3.5-16.334 3.5-33.334 0-34.667-12.667-66.333Q628-578 603-603Z"/></svg>