<svg viewBox="0 0 200 200" xmlns="http://www.w3.org/2000/svg"><path d="m69.047284,-0.000342c-14.531112,0 -26.272769,11.77557 -26.272769,26.348651c0,8.674453 4.17337,16.492303 10.919958,21.523486c-1.383916,4.684204 -2.108309,9.346723 -2.108309,14.204416c0,9.021431 2.627277,17.901897 7.297991,25.535421l-32.21928,13.336968l-0.162177,0.16265c-10.033388,4.85769 -14.358123,16.99108 -9.514419,27.05345c3.286799,6.93956 10.552355,11.49365 18.16389,11.49365c2.94082,0 5.730274,-0.69396 8.325116,-1.73489l7.406109,-2.43969l0,10.02983c-5.535661,7.63352 -7.752088,18.40069 -4.811268,29.3305c3.978757,14.74657 16.098828,25.15591 29.246024,25.15591c2.248863,0 4.303112,-0.34698 6.378985,-0.86744c8.649472,-2.25536 15.22307,-9.20577 18.16389,-18.05371c0.345975,1.04094 0.670335,2.10356 1.189305,3.14449c3.45979,7.63352 9.53604,12.82735 16.97458,14.90922c2.07587,0.52046 4.30311,0.86744 6.37898,0.86744c13.32019,0 25.26727,-10.40934 29.24603,-25.15591c2.94082,-10.75632 0.72439,-21.69698 -4.81127,-29.3305l0,-10.02983l7.40611,2.43969c2.59484,1.21442 5.3843,1.73489 8.32512,1.73489c7.78452,0 14.87709,-4.55409 18.16389,-11.49365c2.59484,-5.03118 2.91919,-10.58283 1.1893,-15.61402c-1.7299,-5.03118 -5.53566,-9.18407 -10.37937,-11.43943l-32.3274,-13.499618c4.67072,-7.633524 7.24394,-16.51399 7.24394,-25.535421c0,-4.857693 -0.67034,-9.693701 -2.05425,-14.204416c6.74658,-4.857694 10.86589,-12.849033 10.86589,-21.523486c0,-14.573081 -11.74165,-26.348651 -26.27276,-26.348651c-9.8604,0 -18.85585,5.529964 -23.35357,14.204417c-5.18968,-0.867446 -10.228001,-0.867446 -15.244694,0c-4.497725,-8.500964 -13.320186,-14.204417 -23.353572,-14.204417zm0.378414,10.897282c8.476482,0 15.406871,6.950405 15.406871,15.451369l0,1.192737c4.843704,-2.081869 10.033386,-3.25292 15.569051,-3.25292c5.53566,0 10.89833,1.171051 15.56904,3.25292l0,-1.192737c0,-8.500964 6.87633,-15.451369 15.35281,-15.451369s15.40687,6.950405 15.40687,15.451369c0,8.153985 -6.36817,14.930902 -14.32569,15.451369c3.80577,5.898628 6.05463,13.011679 6.05463,20.818687c0,11.970745 -5.5789,22.716218 -14.05539,29.655785l44.6529,18.54164c2.24886,1.04094 3.78414,2.99269 4.64909,5.42154c0.86495,2.25535 0.71358,4.84685 -0.32436,7.1022c-1.5569,3.2963 -4.85451,5.36732 -8.48729,5.36732c-1.38391,0 -2.73539,-0.34698 -3.94632,-0.86744l-22.48863,-7.26486l0,16.2646c-1.03793,-0.34698 -2.09749,-0.8566 -3.13543,-1.03009c-2.07587,-0.52047 -4.30311,-0.86744 -6.37898,-0.86744c-12.80122,0 -24.26177,9.55274 -28.75949,23.25837c-4.497725,-13.87912 -16.077205,-23.25837 -28.705432,-23.25837c-2.248863,0 -4.303112,0.34697 -6.378985,0.86744l-3.135434,1.03009l0,-16.2646l-21.785855,7.10221l-0.70277,0.32529c-1.210926,0.69396 -2.562406,0.86745 -3.946321,0.86745c-3.632778,0 -6.930389,-2.07103 -8.487293,-5.36732c-2.248864,-4.6842 -0.345979,-10.21417 4.324735,-12.46953l44.97725,-18.7585c-8.649471,-6.939567 -14.001331,-17.68504 -14.001331,-29.655785c0,-7.633519 2.248862,-14.74657 6.054629,-20.818687c-7.957513,-0.520467 -14.379745,-7.297384 -14.379745,-15.451369c0,-8.500964 6.930388,-15.451369 15.40687,-15.451369zm29.732557,47.221552c-4.448779,0.453103 -7.946701,4.255928 -7.946701,8.837099c0,4.886583 3.939138,8.837099 8.811646,8.837099c4.87251,0 8.81165,-3.950516 8.81165,-8.837099s-3.93914,-8.837099 -8.81165,-8.837099c-0.30453,0 -0.56836,-0.03021 -0.864945,0zm-27.840485,87.395108c8.303492,0 16.271818,7.29739 18.866659,17.18626c3.11381,11.62377 -1.913696,23.26922 -11.082135,25.69807c-1.210926,0.34698 -2.41104,0.48794 -3.621966,0.48794c-8.303492,0 -16.271818,-7.24317 -18.866659,-17.13205c-3.11381,-11.62376 1.913696,-23.26922 11.082135,-25.69806c1.210926,-0.34698 2.41104,-0.54216 3.621966,-0.54216zm57.41086,0c1.21093,0 2.4651,0.19518 3.67602,0.54216c9.34143,2.42884 14.35813,14.0743 11.24432,25.69806c-2.59484,9.88888 -10.56317,17.13205 -18.86666,17.13205c-1.21093,0 -2.41104,-0.14096 -3.62197,-0.48794c-4.32473,-1.21442 -7.80615,-4.36975 -10.05501,-9.05396c-2.24886,-5.03118 -2.7462,-10.91897 -1.1893,-16.64411c2.59484,-9.88887 10.50911,-17.18626 18.8126,-17.18626z"/></svg>