<svg width="200.00001" height="200.00001" xmlns="http://www.w3.org/2000/svg"><path d="m188.388482,167.00001l-176.977065,0c-6.206209,0 -11.411417,-5.007474 -11.411417,-11.41704l0,-111.165917c0,-6.209267 5.005007,-11.41704 11.411417,-11.41704l177.177266,0c6.206209,0 11.411417,5.007474 11.411417,11.41704l0,111.165917c-0.2002,6.409566 -5.205208,11.41704 -11.611617,11.41704zm-174.374461,-14.020926l171.771857,0l0,-105.757846l-171.771857,0l0,105.757846z"/><path d="m98.298347,136.554569l-58.858888,0c-3.203205,0 -5.605608,-2.603886 -5.605608,-5.608371l0,-2.603886c0,-3.204783 2.602604,-5.608371 5.605608,-5.608371l59.059089,0c3.203205,0 5.605608,2.603886 5.605608,5.608371l0,2.603886c0,3.004484 -2.602604,5.608371 -5.805809,5.608371z"/><path d="m144.945017,85.278038c0,12.942777 -10.487032,23.434977 -23.423435,23.434977s-23.423435,-10.4922 -23.423435,-23.434977c0,-12.942777 10.487032,-23.434977 23.423435,-23.434977s23.423435,10.4922 23.423435,23.434977z"/><path d="m148.348422,74.061297c6.206209,0 11.411417,5.007474 11.411417,11.41704c0,6.209267 -5.005007,11.41704 -11.411417,11.41704c-6.206209,0 -11.411417,-5.007474 -11.411417,-11.41704s5.205208,-11.41704 11.411417,-11.41704m0,-12.017937c-12.812819,0 -23.423435,10.415545 -23.423435,23.434977c0,12.819133 10.410416,23.434977 23.423435,23.434977c12.812819,0 23.423435,-10.415545 23.423435,-23.434977c-0.2002,-13.019432 -10.610616,-23.434977 -23.423435,-23.434977z"/></svg>