<svg viewBox="0 0 200 200" xmlns="http://www.w3.org/2000/svg"><path d="m97.65869,0c-18.487268,0 -36.366403,5.062367 -51.934628,14.602982c-2.72444,1.557652 -3.332574,5.257074 -1.581148,7.788257l1.581148,2.190448c1.751425,2.336477 4.828582,3.078795 7.358419,1.521144c13.427595,-8.17767 28.618777,-12.473381 44.576209,-12.473381c15.95743,0 31.33105,4.283541 44.75865,12.655918c2.52984,1.557651 5.66781,0.815333 7.41923,-1.521144l1.52034,-2.129602c1.94602,-2.531183 1.2041,-6.035899 -1.52034,-7.788257c-15.76283,-9.735321 -33.69061,-14.846365 -52.17788,-14.846365zm-0.18244,23.364771c-13.622198,0 -26.891678,3.711592 -38.373244,10.526317c-2.72444,1.752358 -3.27176,5.439611 -1.520335,7.970794l1.520335,2.190448c1.751425,2.336477 4.889396,3.078795 7.419232,1.521144c9.340936,-5.45178 19.861651,-8.335869 30.954012,-8.335869c11.09236,0 21.79552,2.871919 31.13645,8.518406c2.52984,1.362945 5.607,0.815333 7.35842,-1.521144l1.58115,-2.129602c1.94603,-2.72589 1.14329,-6.473988 -1.58115,-8.03164c-11.67617,-7.009431 -24.87267,-10.708854 -38.49487,-10.708854zm0,24.338304c-8.562525,0 -16.748006,1.995741 -24.142913,6.084576c-2.919042,1.752358 -3.892056,5.427442 -1.946028,8.153332l1.581148,2.129601c1.556822,2.141771 4.658305,3.127472 6.993539,1.764527c5.254276,-2.920596 11.286963,-4.502586 17.514254,-4.502586c6.22729,0 12.24781,1.58199 17.69669,4.502586c2.33524,1.168239 5.43672,0.377244 6.99354,-1.764527l1.58115,-1.947064c1.94603,-2.72589 0.97301,-6.59568 -1.94603,-8.153332c-7.3949,-4.088835 -15.76283,-6.267113 -24.32535,-6.267113zm-66.3474,47.520535c-6.22729,0 -11.128849,5.09888 -11.128849,11.13478l0,82.50685c0,6.2306 5.096161,11.13477 11.128849,11.13477l137.74231,0c6.03269,0 10.93425,-5.09887 11.12885,-11.13477l0,-82.50685c0,-6.23061 -5.09616,-11.13478 -11.12885,-11.13478l-137.74231,0zm1.520334,12.65592l134.458386,0l0,79.46456l-134.458386,0l0,-79.46456zm67.320414,21.41771c-10.313949,0 -13.622197,8.36021 -13.622197,18.67965s3.308248,18.74049 13.622197,18.74049c10.313952,0 13.622202,-8.42105 13.622202,-18.74049c0,-10.51415 -3.30825,-18.67965 -13.622202,-18.67965zm31.744582,0c-10.31395,0 -13.62219,8.36021 -13.62219,18.67965s3.30824,18.74049 13.62219,18.74049s13.6222,-8.42105 13.6222,-18.74049c0,-10.51415 -3.30825,-18.67965 -13.6222,-18.67965zm-61.908019,0.97353c-1.556823,0 -2.493349,0.42592 -3.466363,1.39945l-6.263778,5.8412c-1.36222,1.16823 -1.350057,2.53118 -0.18244,3.89412l1.398707,1.33861c1.167617,1.36295 2.529837,1.35078 3.892057,0.18254l0.36488,-0.36508c0.583809,-0.38941 1.155454,-1.58199 1.155454,-1.58199l0.182441,0l0,2.73806l0,14.96806l-4.865071,0c-1.751425,0 -2.675789,0.9857 -2.675789,2.73806l-0.243253,0l0,2.1296c0,1.75236 0.985176,2.73806 2.736602,2.73806l18.487268,0c1.751425,0 2.736602,-0.9857 2.736602,-2.73806l0,-1.94706c0,-1.75236 -0.985177,-2.67722 -2.736602,-2.67722l-4.865071,0l0,-25.92029c0,-1.75236 -0.985176,-2.73806 -2.736602,-2.73806l-2.919042,0zm29.555303,7.24065c0.199544,-0.0357 0.389206,0 0.608134,0c3.502852,0 4.500192,4.62427 4.500192,10.46547c0,5.84119 -1.19194,10.70885 -4.500192,10.70885c-3.50285,0 -4.439377,-4.86766 -4.439377,-10.70885c0,-5.47612 0.838085,-9.93069 3.831243,-10.46547zm31.744586,0c0.19955,-0.0357 0.38921,0 0.60813,0c3.50285,0 4.50019,4.62427 4.50019,10.46547c0,5.84119 -0.99734,10.70885 -4.50019,10.70885s-4.50019,-4.86766 -4.50019,-10.70885c0,-5.47612 0.89889,-9.93069 3.89206,-10.46547z"/></svg>