<svg viewBox="0 0 200 200" xmlns="http://www.w3.org/2000/svg"><path d="M24.82 129.572H2.72c-.914 0-1.654-.745-1.654-1.663v-1.368c0-.918.74-1.663 1.654-1.663H24.82v4.692zM197.585 129.572h-56.513v-4.693h56.513c.914 0 1.654.744 1.654 1.662v1.367c0 .917-.74 1.662-1.655 1.662" fill="#002776" fill-rule="evenodd"/><path d="M106.743 72.47H2.723c-.915 0-1.655-.743-1.655-1.66V69.44c0-.918.74-1.663 1.654-1.663h104.02v4.69zM197.585 72.47h-19.797v-4.69h19.797c.914 0 1.654.744 1.654 1.662v1.367c0 .917-.74 1.66-1.655 1.66M122.697 54.62h15.64v-4.456h-14.523l-1.117 4.455zm17 4.69h-18.745c-2.156 0-3.736-2.037-3.21-4.136l1.803-7.19c.37-1.478 1.693-2.512 3.21-2.512h16.943c1.828 0 3.31 1.488 3.31 3.324v7.19c0 1.836-1.482 3.325-3.31 3.325z" fill="#a20076" fill-rule="evenodd"/><path d="M171.624 79.84h-1.454v-4.693h1.454c1.96 0 3.09-.926 3.138-.965l.09-.08c.173-.17 1.016-1.078 1.016-2.79v-7.537l-2.88-1.043-9.48-3.943-.185-1.33c-.558-3.995-1.222-8.912-1.222-9.643v-.72h4.67v.72c.027.484.498 4.077.992 7.664l6.912 2.878 3.675 1.33c1.312.475 2.187 1.726 2.187 3.128v8.497c0 3.508-1.858 5.595-2.427 6.15l-.48.42c-.716.568-2.8 1.957-6.006 1.957M123.628 71.69c-2.508 0-4.547 2.05-4.547 4.57 0 2.517 2.04 4.568 4.548 4.568 2.506 0 4.546-2.05 4.546-4.57 0-2.52-2.04-4.568-4.546-4.568m0 13.83c-5.083 0-9.216-4.155-9.216-9.26 0-5.108 4.133-9.262 9.216-9.262 5.08 0 9.216 4.154 9.216 9.26 0 5.107-4.135 9.262-9.216 9.262" fill="#a20076" fill-rule="evenodd"/><path d="M163.29 71.69c-2.507 0-4.548 2.05-4.548 4.57 0 2.517 2.04 4.568 4.547 4.568 2.506 0 4.546-2.05 4.546-4.57 0-2.52-2.04-4.568-4.547-4.568m0 13.83c-5.082 0-9.217-4.155-9.217-9.26 0-5.108 4.135-9.262 9.216-9.262 5.08 0 9.215 4.154 9.215 9.26 0 5.107-4.134 9.262-9.216 9.262" fill="#a20076" fill-rule="evenodd"/><path mask="url(#mask-2)" transform="translate(1.068 35.964) scale(2.91828)" fill="#a20076" fill-rule="evenodd" d="M53.23 15.035v-1.608h-8.59v1.608M39.52 15.035h-2.975c-.626 0-1.134-.51-1.134-1.14V9.302c0-.112.018-.223.05-.33L37.928.807c.145-.48.586-.808 1.085-.808h19.653c.508 0 .955.34 1.092.832l.72 2.587c.203.726-.34 1.445-1.09 1.445H52.85v1.528h3.524V8h-3.99c-.625 0-1.133-.51-1.133-1.14V4.398c0-.63.51-1.14 1.135-1.14h6.387l-.46-1.65H39.36l-2.35 7.765v4.055h2.51v1.608z"/><path mask="url(#mask-2)" d="M46.575 31.728c0 .966-.474 1.477-.57 1.57l-.05.045c-.026.02-.637.517-1.702.54-.346-3.045-2.923-5.42-6.044-5.42-3.124 0-5.703 2.377-6.047 5.424H23.78c-.346-3.047-2.924-5.423-6.047-5.423-3.123 0-5.7 2.376-6.046 5.423H10.66v-6.975c0-.72.246-1.272.822-1.85.69-.693 1.45-1.486 2.14-2.203 1.158-1.206 2.252-2.343 3.1-3.13.485-.45 1.045-.68 1.664-.68h10.172c1.52 0 1.85.333 2.202.685.377.378 2.593 2.396 3.977 3.58 1.465 1.25 3.726 2.114 5.106 2.292l.053.007c1.42.183 2.83.364 3.92.51 1.552.204 1.917.59 2.134.82.067.07.126.13.184.184.244.23.434 1.06.44 1.634v2.966zm-8.366 6.157c-1.814 0-3.29-1.482-3.29-3.303 0-1.823 1.476-3.305 3.29-3.305 1.81 0 3.286 1.482 3.286 3.305 0 1.82-1.475 3.303-3.287 3.303zm-20.477 0c-1.813 0-3.288-1.482-3.288-3.303 0-1.823 1.475-3.305 3.288-3.305 1.813 0 3.288 1.482 3.288 3.305 0 1.82-1.474 3.303-3.287 3.303zm30.31-12.816l-.064-.066c-.626-.66-1.567-1.376-3.797-1.67-1.094-.146-2.508-.328-3.928-.51l-.053-.007c-.98-.126-2.68-.818-3.65-1.647-1.42-1.213-3.555-3.166-3.812-3.424-1.08-1.087-2.253-1.51-4.182-1.51H18.386c-1.678 0-2.865.777-3.566 1.428-.905.84-2.025 2.006-3.226 3.255-.664.69-1.414 1.47-2.092 2.15-1.105 1.112-1.642 2.368-1.642 3.842v7.51c0 1.26 1.016 2.28 2.268 2.28h1.902c.86 2.33 3.09 3.997 5.703 3.997 2.614 0 4.843-1.67 5.703-4h9.07c.86 2.33 3.088 4 5.703 4 2.613 0 4.84-1.67 5.702-4h.267c1.865 0 3.08-.81 3.497-1.138l.09-.06.192-.187c.33-.325 1.415-1.543 1.415-3.587v-2.98c-.007-.578-.122-2.547-1.333-3.68z" transform="translate(1.068 35.964) scale(2.91828)" fill="#002776" fill-rule="evenodd"/></svg>