<svg viewBox="0 0 200 200" xmlns="http://www.w3.org/2000/svg">
 <path d="m28.948,15.918c-3.1932,0-5.7641,2.6199-5.7641,5.8152v16.629h-16.68c-3.1932,0-5.7641,2.6199-5.7641,5.8152v0.66314c0,3.1953,2.5709,5.7642,5.7641,5.7642h16.68v16.68c0,3.1953,2.5709,5.7642,5.7641,5.7642h0.71414c3.1953,0,5.7641-2.5689,5.7641-5.7642v-16.68h16.68c3.1953,0,5.7641-2.5689,5.7641-5.7642v-0.66314c0-3.1953-2.5689-5.8152-5.7641-5.8152h-16.68v-16.629c0-3.1953-2.5689-5.8152-5.7641-5.8152h-0.714zm93.808,11.936c-2.9724,0-5.9508,1.1406-8.2126,3.4177l-65.548,66.007c-7.2496,7.2985-2.0731,19.69,8.2126,19.69h4.0808v52.949c0,6.3885,5.1908,11.579,11.579,11.579h99.776c6.3885,0,11.579-5.1908,11.579-11.579v-52.949h4.0808c10.288,0,15.462-12.391,8.2126-19.69l-65.55-66.03c-2.2618-2.2771-5.2403-3.4177-8.2126-3.4177zm0,13.977,61.467,61.875-13.263,0,0,64.528-96.409,0,0-64.528-13.263,0,61.467-61.875z" />
</svg>
