<?xml version="1.0" encoding="utf-8"?>
<!-- Generator: Adobe Illustrator 18.0.0, SVG Export Plug-In . SVG Version: 6.00 Build 0)  -->
<!DOCTYPE svg PUBLIC "-//W3C//DTD SVG 1.1//EN" "http://www.w3.org/Graphics/SVG/1.1/DTD/svg11.dtd">
<svg version="1.1" id="Layer_1" xmlns="http://www.w3.org/2000/svg" xmlns:xlink="http://www.w3.org/1999/xlink" x="0px" y="0px"
	 width="180.4px" height="180.4px" viewBox="0 0 180.4 180.4" enable-background="new 0 0 180.4 180.4" xml:space="preserve">
<g enable-background="new    ">
	<g>
		<defs>
			<rect id="SVGID_1_" x="38.3" y="37.9" width="104.7" height="104.7"/>
		</defs>
		<clipPath id="SVGID_2_">
			<use xlink:href="#SVGID_1_"  overflow="visible"/>
		</clipPath>
		<g clip-path="url(#SVGID_2_)">
			<defs>
				<rect id="SVGID_3_" x="-403.5" y="-2814.2" width="985.1" height="3684.9"/>
			</defs>
			<clipPath id="SVGID_4_">
				<use xlink:href="#SVGID_3_"  overflow="visible"/>
			</clipPath>
			<g clip-path="url(#SVGID_4_)">
				<defs>
					<path id="SVGID_5_" d="M137.7,143.2c3.2,0,5.8-2.6,5.8-5.8V43.7c0-3.2-2.6-5.8-5.8-5.8H44.1c-3.2,0-5.8,2.6-5.8,5.8v93.7
						c0,3.2,2.6,5.8,5.8,5.8H137.7"/>
				</defs>
				<clipPath id="SVGID_6_">
					<use xlink:href="#SVGID_5_"  overflow="visible"/>
				</clipPath>
				<g clip-path="url(#SVGID_6_)">
					<defs>
						<rect id="SVGID_7_" x="38.3" y="37.9" width="104.7" height="104.7"/>
					</defs>
					<clipPath id="SVGID_8_">
						<use xlink:href="#SVGID_7_"  overflow="visible"/>
					</clipPath>
					<rect x="22.9" y="22.5" clip-path="url(#SVGID_8_)" fill="#3E5193" width="136.1" height="136.1"/>
				</g>
			</g>
		</g>
		<g clip-path="url(#SVGID_2_)">
			<defs>
				<rect id="SVGID_9_" x="-403.5" y="-2814.2" width="985.1" height="3684.9"/>
			</defs>
			<clipPath id="SVGID_10_">
				<use xlink:href="#SVGID_9_"  overflow="visible"/>
			</clipPath>
			<g clip-path="url(#SVGID_10_)">
				<defs>
					<path id="SVGID_11_" d="M110.9,143.2v-40.8h13.7l2-15.9h-15.7V76.4c0-4.6,1.3-7.7,7.9-7.7l8.4,0V54.4
						c-1.5-0.2-6.5-0.6-12.3-0.6c-12.1,0-20.4,7.4-20.4,21v11.7H80.8v15.9h13.7v40.8H110.9"/>
				</defs>
				<clipPath id="SVGID_12_">
					<use xlink:href="#SVGID_11_"  overflow="visible"/>
				</clipPath>
				<g clip-path="url(#SVGID_12_)">
					<defs>
						<rect id="SVGID_13_" x="38.3" y="37.9" width="104.7" height="104.7"/>
					</defs>
					<clipPath id="SVGID_14_">
						<use xlink:href="#SVGID_13_"  overflow="visible"/>
					</clipPath>
					<rect x="65.4" y="38.4" clip-path="url(#SVGID_14_)" fill="#FFFFFF" width="77.2" height="120.2"/>
				</g>
			</g>
		</g>
	</g>
</g>
</svg>
