<svg width="200" height="200" xmlns="http://www.w3.org/2000/svg"><path d="m57.5,8.75l0,45l86.25,0l0,-45c0,-5 -3.75,-8.75 -8.75,-8.75l-68.75,0c-5,0 -8.75,3.75 -8.75,8.75zm-32.5,27.5l0,37.5l-7.5,0c-10,0 -17.5,8.75 -17.5,17.5l0,52.5c0,10 7.5,17.5 17.5,17.5l11.25,0c5,0 8.75,-3.75 8.75,-8.75l0,-20c0,-5 3.75,-8.75 8.75,-8.75l107.5,0c5,0 8.75,3.75 8.75,8.75l0,20c0,5 3.75,8.75 8.75,8.75l11.25,0c10,0 17.5,-7.5 17.5,-17.5l0,-52.5c0,-10 -7.5,-17.5 -17.5,-17.5l-7.5,0l0,-37.5l-12.5,0l0,37.5l-125,0l0,-37.5l-12.5,0zm148.75,50c8.75,0 13.75,6.25 13.75,13.75c0,8.75 -6.25,13.75 -13.75,13.75c-8.75,0 -13.75,-6.25 -13.75,-13.75s5,-13.75 13.75,-13.75zm-116.25,66.25l0,38.75c0,5 3.75,8.75 8.75,8.75l67.5,0c5,0 8.75,-3.75 8.75,-8.75l0,-38.75c0,-5 -3.75,-8.75 -8.75,-8.75l-67.5,0c-5,0 -8.75,3.75 -8.75,8.75z"/></svg>