<?xml version="1.0" encoding="utf-8"?>
<!-- Generator: Adobe Illustrator 18.0.0, SVG Export Plug-In . SVG Version: 6.00 Build 0)  -->
<!DOCTYPE svg PUBLIC "-//W3C//DTD SVG 1.1//EN" "http://www.w3.org/Graphics/SVG/1.1/DTD/svg11.dtd">
<svg version="1.1" id="Layer_4" xmlns="http://www.w3.org/2000/svg" xmlns:xlink="http://www.w3.org/1999/xlink" x="0px" y="0px"
	 width="180.37px" height="180.37px" viewBox="0 0 180.37 180.37" enable-background="new 0 0 180.37 180.37" xml:space="preserve">
<g>
	<path fill="#002776" d="M132.031,123.631h-15.558v-7H130.7V75.905h-78v40.726h14.226v7H51.369c-3.131,0-5.669-2.538-5.669-5.669
		V74.574c0-3.131,2.538-5.669,5.669-5.669h80.661c3.131,0,5.669,2.538,5.669,5.669v43.388
		C137.7,121.093,135.162,123.631,132.031,123.631z"/>
	<path fill="#002776" d="M119.723,72.405h-6.5V49.29H70.177v23.114h-6.5V48.459c0-3.131,2.538-5.669,5.669-5.669h44.707
		c3.131,0,5.669,2.538,5.669,5.669V72.405z"/>
	<path fill="#002776" d="M114.053,134.745H69.346c-3.131,0-5.669-2.538-5.669-5.669v-28.149h56.046v28.149
		C119.723,132.207,117.184,134.745,114.053,134.745z M70.177,128.245h43.046v-20.818H70.177V128.245z"/>
</g>
<circle fill="#002776" cx="117.249" cy="88.13" r="4.722"/>
</svg>
