<?xml version="1.0" encoding="utf-8"?>
<!-- Generator: Adobe Illustrator 18.0.0, SVG Export Plug-In . SVG Version: 6.00 Build 0)  -->
<!DOCTYPE svg PUBLIC "-//W3C//DTD SVG 1.1//EN" "http://www.w3.org/Graphics/SVG/1.1/DTD/svg11.dtd">
<svg version="1.1" id="Layer_1" xmlns="http://www.w3.org/2000/svg" xmlns:xlink="http://www.w3.org/1999/xlink" x="0px" y="0px"
	 width="180.365px" height="180.365px" viewBox="0 0 180.365 180.365" enable-background="new 0 0 180.365 180.365"
	 xml:space="preserve">
<g>
	<path fill="#002776" d="M89.208,98.683h-0.171c-6.431,0-11.663-5.232-11.663-11.663v-3.437c0-6.432,5.232-11.664,11.663-11.664
		h0.171c6.432,0,11.664,5.232,11.664,11.664v3.437C100.872,93.451,95.639,98.683,89.208,98.683z M89.037,78.42
		c-2.847,0-5.163,2.316-5.163,5.164v3.437c0,2.847,2.316,5.163,5.163,5.163h0.171c2.848,0,5.164-2.316,5.164-5.163v-3.437
		c0-2.848-2.316-5.164-5.164-5.164H89.037z"/>
	<path fill="#002776" d="M105.272,131.376H72.974c-3.131,0-5.669-2.538-5.669-5.669v-8.756c0-5.996,3.163-11.528,8.136-14.646
		c1.535-0.962,3.565-0.305,4.199,1.392l0.296,0.793c0.474,1.269-0.035,2.668-1.174,3.403c-3.035,1.959-4.958,5.368-4.958,9.059
		v7.925h30.637v-7.925c0-3.69-1.923-7.1-4.958-9.059c-1.139-0.735-1.648-2.133-1.174-3.403l0.296-0.793
		c0.634-1.697,2.665-2.354,4.199-1.392c4.972,3.118,8.136,8.65,8.136,14.646v8.756C110.941,128.838,108.403,131.376,105.272,131.376
		z"/>
	<path fill="#002776" d="M59.733,79.48h-0.262c-8.888,0-16.118-7.23-16.118-16.118v-5.256c0-8.888,7.23-16.118,16.118-16.118h0.262
		c8.887,0,16.117,7.23,16.117,16.118v5.256C75.85,72.25,68.62,79.48,59.733,79.48z M59.471,48.488c-5.304,0-9.618,4.314-9.618,9.618
		v5.256c0,5.304,4.315,9.618,9.618,9.618h0.262c5.303,0,9.617-4.314,9.617-9.618v-5.256c0-5.304-4.315-9.618-9.617-9.618H59.471z"/>
	<path fill="#002776" d="M56.768,131.376H36.542c-3.131,0-5.669-2.538-5.669-5.669v-21.051c0-8.25,4.6-15.826,11.719-19.732
		c1.5-0.823,3.386-0.087,3.986,1.515l0.295,0.788c0.489,1.308-0.049,2.776-1.267,3.457c-5.005,2.795-8.233,8.148-8.233,13.972
		v20.221h19.395c1.565,0,2.835,1.269,2.835,2.835v0.831C59.602,130.107,58.333,131.376,56.768,131.376z"/>
	<path fill="#002776" d="M118.774,79.48h-0.262c-8.887,0-16.117-7.23-16.117-16.118v-5.256c0-8.888,7.23-16.118,16.117-16.118h0.262
		c8.888,0,16.118,7.23,16.118,16.118v5.256C134.892,72.25,127.662,79.48,118.774,79.48z M118.512,48.488
		c-5.303,0-9.617,4.314-9.617,9.618v5.256c0,5.304,4.314,9.618,9.617,9.618h0.262c5.304,0,9.618-4.314,9.618-9.618v-5.256
		c0-5.304-4.315-9.618-9.618-9.618H118.512z"/>
	<path fill="#002776" d="M141.703,131.376h-20.226c-1.565,0-2.835-1.269-2.835-2.835v-0.831c0-1.565,1.269-2.835,2.835-2.835h19.395
		v-20.221c0-5.824-3.228-11.177-8.233-13.972c-1.219-0.681-1.757-2.148-1.268-3.456l0.295-0.788
		c0.599-1.603,2.486-2.339,3.986-1.516c7.12,3.906,11.72,11.482,11.72,19.732v21.051
		C147.373,128.838,144.835,131.376,141.703,131.376z"/>
</g>
</svg>
