<svg xmlns="http://www.w3.org/2000/svg" xmlns:svg="http://www.w3.org/2000/svg" width="180.4" height="180.4"><title>Layer 1</title><g stroke="null"><path stroke="null" d="m90.3 108.8l-0.3 0c-10 0-18-8.1-18-18l0-5.3c0-10 8.1-18 18-18l0.3 0c10 0 18 8.1 18 18l0 5.3c0 10-8.1 18-18 18zm-0.3-31.4c-4.4 0-8 3.6-8 8l0 5.3c0 4.4 3.6 8 8 8l0.3 0c4.4 0 8-3.6 8-8l0-5.3c0-4.4-3.6-8-8-8l-0.3 0zM115.2 159.3l-50 0c-4.8 0-8.8-3.9-8.8-8.8l0-13.5c0-9.3 4.9-17.8 12.6-22.7 2.4-1.5 5.5-0.5 6.5 2.2l0.5 1.2c0.7 2-0.1 4.1-1.8 5.3 -4.7 3-7.7 8.3-7.7 14l0 12.3 47.4 0 0-12.3c0-5.7-3-11-7.7-14 -1.8-1.1-2.6-3.3-1.8-5.3l0.5-1.2c1-2.6 4.1-3.6 6.5-2.2 7.7 4.8 12.6 13.4 12.6 22.7l0 13.5c0 4.8-3.9 8.8-8.8 8.8zM44.7 79l-0.4 0c-13.8 0-24.9-11.2-24.9-24.9l0-8.1c0-13.8 11.2-24.9 24.9-24.9l0.4 0c13.8 0 24.9 11.2 24.9 24.9l0 8.1c0 13.8-11.2 24.9-24.9 24.9zm-0.4-48c-8.2 0-14.9 6.7-14.9 14.9l0 8.1c0 8.2 6.7 14.9 14.9 14.9l0.4 0c8.2 0 14.9-6.7 14.9-14.9l0-8.1c0-8.2-6.7-14.9-14.9-14.9l-0.4 0zM40.1 159.3l-31.3 0c-4.8 0-8.8-3.9-8.8-8.8l0-32.6c0-12.8 7.1-24.5 18.1-30.5 2.3-1.3 5.2-0.1 6.2 2.3l0.5 1.2c0.8 2-0.1 4.3-2 5.3 -7.7 4.3-12.7 12.6-12.7 21.6l0 31.3 30 0c2.4 0 4.4 2 4.4 4.4l0 1.3c0 2.4-2 4.4-4.4 4.4zM136.1 79l-0.4 0c-13.8 0-24.9-11.2-24.9-24.9l0-8.1c0-13.8 11.2-24.9 24.9-24.9l0.4 0c13.8 0 24.9 11.2 24.9 24.9l0 8.1c0 13.8-11.2 24.9-24.9 24.9zm-0.4-48c-8.2 0-14.9 6.7-14.9 14.9l0 8.1c0 8.2 6.7 14.9 14.9 14.9l0.4 0c8.2 0 14.9-6.7 14.9-14.9l0-8.1c0-8.2-6.7-14.9-14.9-14.9l-0.4 0zM171.5 159.3l-31.3 0c-2.4 0-4.4-2-4.4-4.4l0-1.3c0-2.4 2-4.4 4.4-4.4l30 0 0-31.3c0-9-5-17.3-12.7-21.6 -1.9-1.1-2.7-3.3-2-5.3l0.5-1.2c0.9-2.5 3.8-3.6 6.2-2.3 11 6 18.1 17.8 18.1 30.5l0 32.6c0 4.8-3.9 8.8-8.8 8.8z"/></g></svg>
