<?xml version="1.0" encoding="utf-8"?>
<!-- Generator: Adobe Illustrator 17.1.0, SVG Export Plug-In . SVG Version: 6.00 Build 0)  -->
<!DOCTYPE svg PUBLIC "-//W3C//DTD SVG 1.1//EN" "http://www.w3.org/Graphics/SVG/1.1/DTD/svg11.dtd">
<svg version="1.1" id="prod" xmlns="http://www.w3.org/2000/svg" xmlns:xlink="http://www.w3.org/1999/xlink" x="0px" y="0px"
	 width="180.4px" height="180.4px" viewBox="0 0 180.4 180.4" enable-background="new 0 0 180.4 180.4" xml:space="preserve">
<path fill="#002776" d="M135,120.3h-7.6V70.9c0-3.1-2.5-5.7-5.7-5.7h-11c-3.1,0-5.7,2.5-5.7,5.7v49.4h-4.5V91.6
	c0-3.1-2.5-5.7-5.7-5.7h-11c-3.1,0-5.7,2.5-5.7,5.7v28.7h-4.5v-12.4c0-3.1-2.5-5.7-5.7-5.7h-11c-3.1,0-5.7,2.5-5.7,5.7v12.4h-7.8
	c-1.6,0-2.8,1.3-2.8,2.8v1.3c0,1.6,1.3,2.8,2.8,2.8H135c1.6,0,2.8-1.3,2.8-2.8v-1.3C137.8,121.6,136.5,120.3,135,120.3z M58.4,109.3
	h8.3v11.1h-8.3V109.3z M85.2,93h8.3v27.4h-8.3V93z M112,72.2h8.3v48.1H112V72.2z"/>
<path fill="#002776" d="M124.5,31.5h-8.7c-2.2,0-3.2,2.6-1.7,4.1l2,2L81.4,70.1L69.8,59.4c-1.1-1-2.8-1-3.8,0l-23.9,22
	C41.4,82.1,41,83,41,84V84c0,3,3.6,4.6,5.8,2.5l21.1-19.5l11.6,10.7c1.1,1,2.8,1,3.9,0l37.8-35.2l1.7,1.7c1.5,1.5,4.1,0.5,4.1-1.7
	v-8.7C126.9,32.6,125.9,31.5,124.5,31.5z"/>
</svg>
