<?xml version="1.0" encoding="utf-8"?>
<!-- Generator: Adobe Illustrator 17.1.0, SVG Export Plug-In . SVG Version: 6.00 Build 0)  -->
<!DOCTYPE svg PUBLIC "-//W3C//DTD SVG 1.1//EN" "http://www.w3.org/Graphics/SVG/1.1/DTD/svg11.dtd">
<svg version="1.1" id="prod" xmlns="http://www.w3.org/2000/svg" xmlns:xlink="http://www.w3.org/1999/xlink" x="0px" y="0px"
	 width="180.4px" height="180.4px" viewBox="0 0 180.4 180.4" enable-background="new 0 0 180.4 180.4" xml:space="preserve">
<g>
	<path fill="#002776" d="M88.1,67.2l9.1,8.4c1.1,1,2.8,1,3.9,0l31-28.9l2.1,2.1c0.9,0.9,2.4,0.3,2.4-1v-9.1c0-0.8-0.6-1.4-1.4-1.4
		h-9.1c-1.3,0-1.9,1.5-1,2.4l2,2l-28,26.1L90,59.5c-1.1-1-2.8-1-3.8,0L63.5,80.4c-1.1,1.1-1.2,2.9-0.2,4l0.9,1
		c1.1,1.1,2.9,1.2,4,0.2L88.1,67.2z"/>
	<path fill="#002776" d="M68.8,125.4l-3-8.7h53.8c2.5,0,4.7-1.6,5.4-4l10-32c1.1-3.6-1.6-7.4-5.4-7.4h-8.3c-1.6,0-2.8,1.3-2.8,2.8
		v1.3c0,1.6,1.3,2.8,2.8,2.8h6.5l-9.1,29.4H63.4l-16-46.5c-0.4-1.1-1.5-1.9-2.7-1.9H30.3c-1.6,0-2.8,1.3-2.8,2.8v1.3
		c0,1.6,1.3,2.8,2.8,2.8h11.4l20.3,59c-3,2-5,5.3-5,9.1c-0.1,6.1,4.8,11.3,10.8,11.5c6.4,0.2,11.7-4.9,11.7-11.3
		c0-1.5-0.3-2.9-0.8-4.2h22.7c-0.8,2.1-1,4.4-0.4,6.9c1.1,4.3,4.7,7.7,9.1,8.4c7.3,1.2,13.6-4.7,13.2-11.9c-0.3-4-2.8-7.6-6.4-9.4
		c-2.5-1.3-4.8-1.4-7-1H69.6C69.3,125.4,69,125.4,68.8,125.4z M68.2,141.4c-2.6,0-4.8-2.1-4.8-4.8s2.1-4.8,4.8-4.8
		c2.6,0,4.8,2.1,4.8,4.8S70.9,141.4,68.2,141.4z M116.7,136.5c0,2.6-2.1,4.8-4.8,4.8c-2.6,0-4.8-2.1-4.8-4.8s2.1-4.8,4.8-4.8
		C114.6,131.7,116.7,133.9,116.7,136.5z"/>
</g>
</svg>
