<?xml version="1.0" encoding="utf-8"?>
<!-- Generator: Adobe Illustrator 18.1.1, SVG Export Plug-In . SVG Version: 6.00 Build 0)  -->
<svg version="1.1" id="Layer_1" xmlns="http://www.w3.org/2000/svg" xmlns:xlink="http://www.w3.org/1999/xlink" x="0px" y="0px"
	 width="170.1px" height="170.1px" viewBox="0 0 170.1 170.1" enable-background="new 0 0 170.1 170.1" xml:space="preserve">
<path fill="#008A00" d="M120.3,121.1h-4v-9.3h-5.6v9.3h-4v-10.4c0-1.6,1.3-2.8,2.8-2.8h7.9c1.6,0,2.8,1.3,2.8,2.8V121.1z"/>
<path fill="#008A00" d="M137.7,121.1h-4v-19.4h-5.6v19.4h-4v-20.6c0-1.6,1.3-2.8,2.8-2.8h7.9c1.6,0,2.8,1.3,2.8,2.8V121.1z"/>
<path fill="#008A00" d="M155,121.1h-4V88.7h-5.6v32.4h-4V87.5c0-1.6,1.3-2.8,2.8-2.8h7.9c1.6,0,2.8,1.3,2.8,2.8V121.1z"/>
<path fill="#008A00" d="M150.1,65.2l-24.3,22.6l-6.5-6c-1.1-1-2.8-1-3.8,0l-8.2,7.6c-0.3,0.3-0.5,0.6-0.5,1V92c0,1.2,1.5,1.9,2.4,1
	l8.2-7.6l6.5,6c1.1,1,2.8,1,3.9,0l25.1-23.4L150.1,65.2z"/>
<path fill="#008A00" d="M154.7,71v-5.8c0-0.8-0.6-1.4-1.4-1.4h-5.8c-1.3,0-1.9,1.5-1,2.4l5.8,5.8C153.2,72.9,154.7,72.2,154.7,71z"
	/>
<path fill="#008A00" d="M33.3,122.2H1.4c-0.8,0-1.4-0.6-1.4-1.4v-1.2c0-0.8,0.6-1.4,1.4-1.4h31.9V122.2z"/>
<path fill="#008A00" d="M168.7,122.2H73.4v-4h95.2c0.8,0,1.4,0.6,1.4,1.4v1.2C170.1,121.5,169.4,122.2,168.7,122.2z"/>
<path fill="#002776" d="M48.6,57.5c-5.8,0-10.5-4.7-10.5-10.5s4.7-10.5,10.5-10.5c5.8,0,10.5,4.7,10.5,10.5S54.4,57.5,48.6,57.5z
	 M48.6,43c-2.2,0-4,1.8-4,4c0,2.2,1.8,4,4,4c2.2,0,4-1.8,4-4C52.6,44.8,50.9,43,48.6,43z"/>
<path fill="#002776" d="M68.1,127.3h-4.3c-3.3,0-6.1-1.9-7.5-4.7c-0.8,0-1.5,0-2.1,0c-0.7,0-2.4,0-4.3-0.1c-1.3,2.8-4.2,4.8-7.5,4.8
	h-4.3c-4.6,0-8.3-3.7-8.3-8.3v-2.7c-9.4-6-14.8-14.9-14.8-24.7c0-15.2,9.1-26.1,25.5-30.7c3.6-1,7.5-1.5,11.6-1.5
	c7.3,0,13.4,1.6,16.1,2.5l15-7.4l2,18.5l0.5,0.7c0.9,1.1,3.1,4.6,3.6,5.4l0,0h1c4.7,0,8.5,3.8,8.5,8.5v9.5c0,4.7-3.8,8.5-8.5,8.5
	h-2.3c-1.6,2.7-5.2,7.6-11.6,11.4v2C76.4,123.6,72.6,127.3,68.1,127.3z M62.5,114.7v4.3c0,0.7,0.6,1.3,1.3,1.3h4.3
	c0.7,0,1.3-0.6,1.3-1.3v-6.1l1.8-1c8.3-4.5,11.4-11.2,11.5-11.2l0.9-2.1l6.6,0c0.8,0,1.5-0.7,1.5-1.5v-9.5c0-0.8-0.7-1.5-1.5-1.5
	h-4.9l-2.1-3.4c-0.6-1.1-2.6-4-3.1-4.7l-1.8-2.2l-1.1-10.5l-8.6,4.3L67.2,69c-0.1,0-6.7-2.5-15.1-2.5c-3.5,0-6.7,0.4-9.8,1.3
	C33.1,70.3,22,76.5,22,91.6c0,7.8,4.8,15,13,19.6l1.8,1v6.7c0,0.7,0.6,1.3,1.3,1.3h4.3c0.7,0,1.3-0.6,1.3-1.3v-4.7l4.2,0.9
	c1.2,0.3,3.7,0.4,6.3,0.4c2.1,0,3.5-0.1,4.2-0.2L62.5,114.7z"/>
<path fill="#002776" d="M38,82.8l-4.3-5.6c2.6-2,6-3.6,9.9-4.7c2.6-0.7,5.4-1.1,8.4-1.1c4,0,7.5,0.6,9.8,1.2l-1.6,6.8
	c-1.9-0.4-4.9-1-8.2-1c-2.4,0-4.6,0.3-6.6,0.8C42.5,80.2,39.9,81.4,38,82.8z"/>
</svg>
