<?xml version="1.0" encoding="utf-8"?>
<!-- Generator: Adobe Illustrator 18.0.0, SVG Export Plug-In . SVG Version: 6.00 Build 0)  -->
<!DOCTYPE svg PUBLIC "-//W3C//DTD SVG 1.1//EN" "http://www.w3.org/Graphics/SVG/1.1/DTD/svg11.dtd">
<svg version="1.1" xmlns="http://www.w3.org/2000/svg" xmlns:xlink="http://www.w3.org/1999/xlink" x="0px" y="0px"
	 width="180.365px" height="180.365px" viewBox="0 0 180.365 180.365" enable-background="new 0 0 180.365 180.365"
	 xml:space="preserve">
<g id="Layer_2">
</g>
<g id="Layer_1">
	<g>
		<path fill="#002776" d="M75.222,63.576c-1.3,1.552-3.74,1.272-4.692-0.514c-0.59-1.107-1.077-2.476-1.174-4.068
			c-0.122-1.998,0.363-5.055,3.368-8.272c2.125-2.274,1.789-4.483,1.123-5.947c-0.518-1.139-0.309-2.474,0.606-3.328l0.621-0.58
			c1.396-1.304,3.645-0.879,4.489,0.835c1.731,3.516,2.402,8.647-2.089,13.457c-1.146,1.227-1.695,2.384-1.631,3.438
			c0.029,0.469,0.175,0.906,0.36,1.284c0.483,0.982,0.301,2.162-0.402,3.002L75.222,63.576z"/>
		<path fill="#002776" d="M88.943,63.576c-1.3,1.552-3.74,1.272-4.692-0.514c-0.59-1.107-1.077-2.476-1.174-4.068
			c-0.122-1.998,0.363-5.055,3.368-8.272c2.125-2.274,1.789-4.483,1.123-5.947c-0.518-1.139-0.309-2.474,0.606-3.328l0.621-0.58
			c1.396-1.304,3.645-0.879,4.489,0.835c1.731,3.516,2.402,8.647-2.089,13.457c-1.146,1.227-1.695,2.384-1.631,3.438
			c0.029,0.469,0.174,0.906,0.36,1.284c0.483,0.982,0.301,2.162-0.402,3.002L88.943,63.576z"/>
		<path fill="#002776" d="M102.664,63.577c-1.3,1.551-3.74,1.271-4.691-0.514c-0.59-1.107-1.077-2.476-1.174-4.068
			c-0.122-1.998,0.363-5.055,3.368-8.272c2.125-2.274,1.789-4.483,1.123-5.946c-0.518-1.139-0.309-2.474,0.605-3.328l0.621-0.58
			c1.396-1.304,3.646-0.879,4.49,0.835c1.732,3.516,2.402,8.648-2.09,13.457c-1.146,1.227-1.694,2.384-1.63,3.438
			c0.029,0.469,0.175,0.906,0.36,1.284c0.483,0.982,0.301,2.162-0.403,3.001L102.664,63.577z"/>
		<path fill="#002776" d="M119.736,130.221H56.406c-1.566,0-2.835-1.269-2.835-2.835v-1.331c0-1.565,1.269-2.835,2.835-2.835h63.331
			c1.566,0,2.835,1.269,2.835,2.835v1.331C122.571,128.952,121.302,130.221,119.736,130.221z"/>
		<path fill="#002776" d="M120.575,104.319l-2.01-6.705c2.987-0.896,12.734-4.51,12.734-13.439c0-2.812-1.002-5.104-2.82-6.458
			c-1.99-1.482-4.8-1.784-7.904-0.855l-2.01-6.705c5.202-1.56,10.337-0.851,14.094,1.944c3.638,2.708,5.641,6.995,5.641,12.074
			C138.299,93.324,131.508,101.043,120.575,104.319z"/>
		<path fill="#002776" d="M107.983,120.721H68.156c-1.691,0-3.293-0.756-4.371-2.059c-0.277-0.335-0.511-0.62-0.628-0.767
			c-6.784-8.552-10.087-17.132-10.087-26.174V75.225c0-3.131,2.538-5.669,5.669-5.669h64.33v22.166c0,9-3.272,17.542-9.992,26.055
			c-0.135,0.171-0.409,0.505-0.727,0.889C111.275,119.967,109.672,120.721,107.983,120.721z M68.782,113.721h38.577
			c5.858-7.332,8.711-14.543,8.711-22V76.555H60.071v15.166C60.071,99.178,62.924,106.389,68.782,113.721z"/>
	</g>
</g>
</svg>
