<svg xmlns="http://www.w3.org/2000/svg" xmlns:svg="http://www.w3.org/2000/svg" width="180.4" height="180.4"><title>Layer 1</title><g stroke="null"><path d="m55.8 128.1l-1.7-1.7c-2.1-2.1-2.1-5.4 0-7.4l63.1-63.1c2.1-2.1 5.4-2.1 7.4 0l1.7 1.7c2.1 2.1 2.1 5.4 0 7.4l-63.1 63.1c-2.1 2.1-5.4 2.1-7.4 0z"/><g stroke="null"><path d="m90.2 180c-49.5 0-89.8-40.3-89.8-89.8 0-49.5 40.3-89.8 89.8-89.8s89.8 40.3 89.8 89.8c0 49.5-40.3 89.8-89.8 89.8zm0-166.7c-42.4 0-76.9 34.5-76.9 76.9 0 42.4 34.5 76.9 76.9 76.9s76.9-34.5 76.9-76.9c0-42.4-34.5-76.9-76.9-76.9zM117.2 128.1l-63.1-63.1c-2.1-2.1-2.1-5.4 0-7.4l1.7-1.7c2.1-2.1 5.4-2.1 7.4 0l63.1 63.1c2.1 2.1 2.1 5.4 0 7.4l-1.7 1.7c-2.1 2.1-5.4 2.1-7.4 0z"/></g></g></svg>