<?xml version="1.0" encoding="utf-8"?>
<!-- Generator: Adobe Illustrator 18.0.0, SVG Export Plug-In . SVG Version: 6.00 Build 0)  -->
<!DOCTYPE svg PUBLIC "-//W3C//DTD SVG 1.1//EN" "http://www.w3.org/Graphics/SVG/1.1/DTD/svg11.dtd">
<svg version="1.1" id="SB1_Oslo_Akershus" xmlns="http://www.w3.org/2000/svg" xmlns:xlink="http://www.w3.org/1999/xlink" x="0px"
	 y="0px" width="272.54px" height="78.197px" viewBox="0 0 272.54 78.197" enable-background="new 0 0 272.54 78.197"
	 xml:space="preserve">
<g>
	<rect x="0" y="0" fill="none" width="272.54" height="78.208"/>
	<g>
		<g>
			<g>
				<path fill="#002776" d="M27.292,42.191c-4.864,0-8.718-1.123-9.43-1.347c-0.374-0.15-0.561-0.449-0.561-0.785v-0.187l0.487-2.47
					c0.074-0.374,0.337-0.486,0.636-0.486c0.075,0,0.15,0,0.262,0.037c0.786,0.15,4.603,1.236,8.194,1.236
					c3.068,0,5.8-0.898,5.8-4.079c0-3.218-2.806-3.555-6.436-4.079c-4.041-0.599-9.243-1.684-9.243-8.045
					c0-6.548,4.864-8.27,10.627-8.27c4.378,0,8.008,1.048,8.831,1.272c0.449,0.112,0.674,0.412,0.674,0.786v0.187l-0.524,2.432
					c-0.037,0.262-0.299,0.524-0.599,0.524c-0.037,0-0.075-0.037-0.112-0.037c-1.796-0.375-4.565-1.123-7.858-1.123
					c-2.769,0-5.688,0.524-5.688,3.667c0,3.106,3.143,3.555,6.473,4.041c4.378,0.674,9.355,1.31,9.355,8.27
					C38.181,40.283,32.868,42.191,27.292,42.191z"/>
				<path fill="#002776" d="M74.836,41.743c-1.31,0.299-3.106,0.523-5.201,0.523c-4.041,0-9.018-0.411-9.018-6.361
					c0-4.827,3.031-5.35,6.025-5.837l6.66-1.085v-1.197c0-1.048-0.113-1.796-1.048-2.208c-0.599-0.262-1.497-0.374-2.844-0.374
					c-2.545,0-5.313,0.748-6.436,1.047c-0.112,0-0.187,0.038-0.262,0.038c-0.187,0-0.374-0.075-0.412-0.337l-0.524-2.32v-0.15
					c0-0.337,0.262-0.486,0.449-0.561c0.898-0.337,4.34-1.272,8.157-1.272c2.657,0,4.453,0.374,5.65,1.048
					c1.908,1.047,2.283,2.806,2.283,4.827v10.328C78.316,40.657,77.38,41.144,74.836,41.743z M73.301,32.239l-4.64,0.748
					c-1.534,0.224-2.956,0.448-2.956,2.88c0,2.919,2.357,3.143,4.154,3.143c1.459,0,2.657-0.261,3.442-0.524V32.239z"/>
				<path fill="#002776" d="M91.666,25.503c-2.283,0-4.228,0.225-5.276,0.486v15.23c0,0.337-0.225,0.561-0.561,0.561h-3.817
					c-0.225,0-0.636-0.224-0.636-0.561V25.054c0-1.459,0.86-1.908,2.657-2.432c1.646-0.524,4.303-0.898,6.436-0.936h0.636
					c0.524,0,0.524,0,0.786,0.112c0.15,0.075,0.337,0.225,0.337,0.599v2.432C92.227,25.204,92.189,25.503,91.666,25.503z"/>
				<path fill="#002776" d="M111.25,33.398c0,0.411-0.225,0.861-0.786,0.861H97.93c0,1.722,0.486,2.657,1.497,3.442
					c0.973,0.785,2.395,1.123,4.415,1.123c2.32,0,4.078-0.561,5.238-0.898c0.075-0.037,0.113-0.037,0.187-0.037
					c0.225,0,0.412,0.15,0.524,0.524l0.486,1.908c0,0.037,0.038,0.113,0.038,0.187c0,0.3-0.187,0.449-0.449,0.561
					c-1.272,0.524-3.817,1.198-6.773,1.198c-7.334,0-10.215-2.881-10.215-10.215c0-7.035,1.946-10.403,9.243-10.403
					c3.779,0,6.099,0.973,7.446,2.769c1.272,1.684,1.684,4.078,1.684,7.184V33.398z M105.975,27.823
					c-0.487-2.058-1.609-2.732-3.817-2.732c-2.507,0-3.555,0.748-3.967,2.619c-0.262,1.048-0.262,2.133-0.299,3.368l8.382-0.038
					C106.274,29.844,106.236,28.833,105.975,27.823z"/>
				<path fill="#002776" d="M153.818,41.743c-1.31,0.299-3.106,0.523-5.201,0.523c-4.042,0-9.018-0.411-9.018-6.361
					c0-4.827,3.031-5.35,6.025-5.837l6.661-1.085v-1.197c0-1.048-0.113-1.796-1.048-2.208c-0.598-0.262-1.497-0.374-2.843-0.374
					c-2.545,0-5.314,0.748-6.437,1.047c-0.112,0-0.187,0.038-0.261,0.038c-0.187,0-0.374-0.075-0.412-0.337l-0.523-2.32v-0.15
					c0-0.337,0.261-0.486,0.448-0.561c0.898-0.337,4.341-1.272,8.158-1.272c2.656,0,4.453,0.374,5.65,1.048
					c1.909,1.047,2.283,2.806,2.283,4.827v10.328C157.298,40.657,156.362,41.144,153.818,41.743z M152.284,32.239l-4.64,0.748
					c-1.535,0.224-2.956,0.448-2.956,2.88c0,2.919,2.357,3.143,4.153,3.143c1.459,0,2.657-0.261,3.443-0.524V32.239z"/>
				<path fill="#002776" d="M177.309,41.78h-3.855c-0.337,0-0.598-0.224-0.598-0.561V28.01c0-2.17-0.823-2.919-2.806-2.919
					c-2.245,0-4.677,0.636-4.677,0.636v15.491c0,0.337-0.225,0.561-0.561,0.561h-3.818c-0.374,0-0.635-0.224-0.635-0.561V25.091
					c0-1.422,0.71-1.908,2.806-2.47c1.908-0.524,5.051-0.973,7.446-0.973c4.677,0,7.259,1.198,7.259,5.687v13.883
					C177.87,41.556,177.646,41.78,177.309,41.78z"/>
				<path fill="#002776" d="M199.006,41.443c0,0.15-0.149,0.337-0.374,0.337h-5.014c-0.187,0-0.374,0-0.561-0.224l-5.8-7.896h-1.273
					v7.559c0,0.337-0.187,0.561-0.561,0.561h-3.854c-0.336,0-0.599-0.224-0.599-0.561V15.063c0-0.449,0.187-0.673,0.637-0.785
					l3.666-0.636h0.15c0.337,0,0.561,0.225,0.561,0.636v16.014h1.273l5.912-7.895c0.149-0.224,0.299-0.261,0.486-0.261l4.565,0.112
					c0.262,0,0.374,0.187,0.374,0.337c0,0.075-0.037,0.112-0.075,0.187l-7.072,8.906l7.484,9.578
					C198.969,41.294,199.006,41.369,199.006,41.443z"/>
				<path fill="#002776" d="M45.904,38.375"/>
				<path fill="#002776" d="M50.881,21.649c-2.507,0-5.388,0.412-7.633,1.198c-1.684,0.524-2.357,1.085-2.357,3.031v21.504
					c0,0.374,0.293,0.68,0.833,0.583c0.539-0.097,3.545-0.653,3.545-0.653c0.449-0.075,0.636-0.299,0.636-0.748v-4.866
					c1.328,0.324,3.002,0.569,4.864,0.569c6.96,0,8.27-4.378,8.27-10.29C59.038,26.027,58.102,21.649,50.881,21.649z M49.459,38.824
					c-2.02,0-3.555-0.448-3.555-0.448V25.765c0,0,2.208-0.599,3.929-0.599c2.844,0,4.079,0.636,4.079,6.698
					C53.912,37.551,52.864,38.824,49.459,38.824z"/>
				<path fill="#002776" d="M127.696,41.78h-12.461c-0.337,0-0.636-0.262-0.636-0.598V14.726c0-0.337,0.299-0.599,0.636-0.599
					h12.498c6.327,0,8.905,2.481,8.905,6.974c0,3.966-2.203,5.386-5.613,6.362c3.785,0.624,6.548,2.679,6.548,7.094
					C137.574,39.572,134.056,41.78,127.696,41.78z M127.209,17.982h-7.222v8.007l6.96-0.299c2.844-0.112,4.303-1.122,4.303-3.966
					C131.25,19.104,129.978,17.982,127.209,17.982z M127.022,29.619l-7.035-0.224v8.531h7.035c3.779,0,5.014-1.646,5.014-3.929
					C132.036,30.929,131.026,29.731,127.022,29.619z"/>
			</g>
			<g>
				<path fill="#002776" d="M144.667,63.685h-1.902c-0.185,0-0.286-0.084-0.286-0.235l-0.168-2.806
					c-0.084-1.394-1.159-1.73-2.654-1.781l-2.638-0.067v4.637c0,0.151-0.118,0.252-0.286,0.252h-1.865
					c-0.151,0-0.269-0.101-0.269-0.252V51.538c0-0.151,0.134-0.269,0.286-0.269h5.678c2.553,0,4.116,0.926,4.116,3.53
					c0,1.859-1.301,2.75-2.806,3.111c1.596,0.268,2.806,0.768,2.923,3.187l0.101,2.318
					C144.904,63.598,144.842,63.685,144.667,63.685z M140.178,53h-3.158v4.25l2.705-0.118c1.529-0.067,2.503-0.42,2.503-2.033
					C142.227,53.672,141.689,53,140.178,53z"/>
				<path fill="#002776" d="M41.429,63.906c-4.872,0-5.88-2.57-5.88-6.418c0-3.864,1.008-6.435,5.88-6.435s5.88,2.57,5.88,6.435
					C47.308,61.335,46.301,63.906,41.429,63.906z M41.429,52.818c-3.058,0-3.394,1.612-3.394,4.653c0,3.058,0.319,4.67,3.377,4.67
					c3.074,0,3.41-1.629,3.41-4.67C44.822,54.414,44.486,52.818,41.429,52.818z"/>
				<path fill="#002776" d="M54.902,63.872c-2.184,0-3.914-0.487-4.233-0.604c-0.184-0.067-0.303-0.202-0.252-0.437l0.219-1.109
					c0.033-0.201,0.201-0.235,0.403-0.201c0.353,0.067,2.065,0.555,3.679,0.555c1.378,0,2.604-0.403,2.604-1.832
					c0-1.444-1.26-1.596-2.889-1.831c-1.815-0.269-4.15-0.756-4.15-3.611c0-2.941,2.185-3.713,4.771-3.713
					c1.966,0,3.596,0.453,3.965,0.571c0.201,0.067,0.353,0.218,0.303,0.437l-0.235,1.092c-0.051,0.219-0.184,0.252-0.37,0.219
					c-0.806-0.168-1.999-0.504-3.478-0.504c-1.243,0-2.554,0.234-2.554,1.646c0,1.395,1.411,1.597,2.907,1.814
					c1.965,0.303,4.199,0.589,4.199,3.713C59.791,63.015,57.405,63.872,54.902,63.872z"/>
				<path fill="#002776" d="M71.332,63.687h-7.795c-0.151,0-0.269-0.101-0.269-0.252V51.541c0-0.151,0.101-0.218,0.252-0.235
					l1.915-0.252c0.168-0.017,0.252,0.118,0.252,0.235v10.5h5.645c0.151,0,0.269,0.117,0.269,0.269v1.361
					C71.601,63.57,71.483,63.687,71.332,63.687z"/>
				<path fill="#002776" d="M79.195,63.906c-4.872,0-5.88-2.57-5.88-6.418c0-3.864,1.008-6.435,5.88-6.435s5.88,2.57,5.88,6.435
					C85.075,61.335,84.067,63.906,79.195,63.906z M79.195,52.818c-3.058,0-3.394,1.612-3.394,4.653c0,3.058,0.319,4.67,3.377,4.67
					c3.074,0,3.41-1.629,3.41-4.67C82.589,54.414,82.253,52.818,79.195,52.818z"/>
				<path fill="#002776" d="M92.03,60.125h-2.991c-0.403,0-0.739-0.336-0.739-0.739v-2.99c0-0.403,0.336-0.739,0.739-0.739h2.991
					c0.402,0,0.722,0.336,0.722,0.739v2.99C92.752,59.79,92.432,60.125,92.03,60.125z"/>
				<path fill="#002776" d="M106.83,63.486c0,0.134-0.084,0.201-0.218,0.201h-1.982c-0.151,0-0.252-0.084-0.303-0.235l-1.395-4.401
					H98.48l-1.377,4.435c-0.034,0.117-0.168,0.201-0.286,0.201h-1.982c-0.117,0-0.218-0.067-0.218-0.185
					c0-0.017,0-0.051,0.017-0.118l4.015-11.894c0.034-0.118,0.186-0.219,0.303-0.219h3.595c0.118,0,0.27,0.101,0.303,0.219
					l3.965,11.877C106.83,63.418,106.83,63.468,106.83,63.486z M101.051,52.968h-0.722l-1.345,4.301h3.444L101.051,52.968z"/>
				<path fill="#002776" d="M119.817,63.334c0.033,0.05,0.033,0.084,0.033,0.117c0,0.118-0.101,0.235-0.185,0.235h-2.503
					c-0.118,0-0.252-0.067-0.303-0.135l-4.116-5.208h-0.739v5.091c0,0.151-0.117,0.252-0.285,0.252h-1.865
					c-0.151,0-0.269-0.101-0.269-0.252V51.524c0-0.151,0.117-0.252,0.269-0.252h1.865c0.168,0,0.285,0.101,0.285,0.252v4.956h0.739
					l3.965-5.073c0.051-0.067,0.135-0.135,0.269-0.135l2.301,0.033c0.102,0,0.202,0.118,0.202,0.235
					c0,0.034-0.017,0.084-0.051,0.118l-4.67,5.678L119.817,63.334z"/>
				<path fill="#002776" d="M130.754,63.687h-8.047c-0.151,0-0.285-0.117-0.285-0.269V51.541c0-0.151,0.134-0.269,0.285-0.269h8.03
					c0.168,0,0.27,0.117,0.27,0.252v1.311c0,0.151-0.102,0.269-0.27,0.269h-5.913v3.259h5.661c0.151,0,0.269,0.118,0.269,0.27v1.327
					c0,0.134-0.117,0.252-0.269,0.252h-5.661v3.662h5.93c0.151,0,0.27,0.117,0.27,0.252v1.294
					C131.023,63.57,130.905,63.687,130.754,63.687z"/>
				<path fill="#002776" d="M152.794,63.872c-2.184,0-3.914-0.487-4.233-0.604c-0.184-0.067-0.302-0.202-0.252-0.437l0.219-1.109
					c0.033-0.201,0.201-0.235,0.403-0.201c0.353,0.067,2.066,0.555,3.679,0.555c1.378,0,2.604-0.403,2.604-1.832
					c0-1.444-1.261-1.596-2.89-1.831c-1.814-0.269-4.149-0.756-4.149-3.611c0-2.941,2.184-3.713,4.77-3.713
					c1.966,0,3.596,0.453,3.965,0.571c0.202,0.067,0.353,0.218,0.303,0.437l-0.235,1.092c-0.051,0.219-0.184,0.252-0.369,0.219
					c-0.807-0.168-2-0.504-3.478-0.504c-1.243,0-2.554,0.234-2.554,1.646c0,1.395,1.411,1.597,2.906,1.814
					c1.966,0.303,4.2,0.589,4.2,3.713C157.683,63.015,155.298,63.872,152.794,63.872z"/>
				<path fill="#002776" d="M171.745,63.687h-1.865c-0.151,0-0.269-0.117-0.269-0.252v-5.208h-6.031v5.208
					c0,0.151-0.117,0.252-0.286,0.252h-1.864c-0.151,0-0.269-0.101-0.269-0.252V51.541c0-0.151,0.101-0.218,0.252-0.235l1.915-0.252
					c0.168-0.017,0.252,0.118,0.252,0.235v5.073h6.031v-4.821c0-0.151,0.101-0.218,0.235-0.235l1.932-0.252
					c0.168-0.017,0.235,0.118,0.235,0.235v12.146C172.014,63.57,171.895,63.687,171.745,63.687z"/>
				<path fill="#002776" d="M181.186,63.906c-3.611,0-5.274-1.395-5.274-4.536v-7.829c0-0.134,0.101-0.201,0.252-0.218l1.915-0.27
					c0.168-0.017,0.252,0.118,0.252,0.235v8.215c0,1.664,0.52,2.638,2.873,2.638c2.066,0,2.855-0.773,2.855-2.486v-8.114
					c0-0.134,0.1-0.201,0.235-0.218l1.932-0.27c0.168-0.017,0.235,0.118,0.235,0.235v8.03
					C186.462,62.225,185.067,63.906,181.186,63.906z"/>
				<path fill="#002776" d="M194.474,63.872c-2.184,0-3.914-0.487-4.233-0.604c-0.185-0.067-0.302-0.202-0.252-0.437l0.219-1.109
					c0.033-0.201,0.201-0.235,0.403-0.201c0.353,0.067,2.066,0.555,3.679,0.555c1.378,0,2.604-0.403,2.604-1.832
					c0-1.444-1.261-1.596-2.89-1.831c-1.814-0.269-4.149-0.756-4.149-3.611c0-2.941,2.184-3.713,4.771-3.713
					c1.966,0,3.596,0.453,3.965,0.571c0.202,0.067,0.354,0.218,0.303,0.437l-0.235,1.092c-0.051,0.219-0.185,0.252-0.369,0.219
					c-0.807-0.168-2-0.504-3.478-0.504c-1.244,0-2.554,0.234-2.554,1.646c0,1.395,1.411,1.597,2.906,1.814
					c1.966,0.303,4.2,0.589,4.2,3.713C199.364,63.015,196.978,63.872,194.474,63.872z"/>
			</g>
		</g>
		<g>
			<path fill="#E60000" d="M233.457,11.357c-2.933,0-5.757,0.458-8.411,1.301c11.169-2.423,22.239,2.178,26.227,11.601
				c4.609,10.892-1.989,24.096-14.737,29.491c-11.436,4.839-23.931,1.747-29.711-6.802c3.381,11.517,14.021,19.929,26.632,19.929
				c15.331,0,27.76-12.428,27.76-27.76S248.788,11.357,233.457,11.357z"/>
			<path fill="#B20F0B" d="M236.537,53.75c12.749-5.395,19.347-18.598,14.737-29.491c-3.988-9.424-15.059-14.024-26.227-11.601
				c-11.219,3.563-19.349,14.06-19.349,26.459c0,2.721,0.398,5.347,1.128,7.831C212.605,55.497,225.101,58.59,236.537,53.75z"/>
			<g>
				<path fill="#FFFFFF" d="M240.573,51.663V23.159c0-0.566-0.462-1.027-1.029-1.027h-6.454c-0.461,0-0.72,0.102-1.132,0.257
					l-8.328,4.287c-0.513,0.207-0.719,0.514-0.719,1.029v4.671c0,0.549,0.445,0.992,0.993,0.992h5.33v22.409
					c2.433-0.338,4.891-1.006,7.302-2.027C237.961,53.147,239.309,52.447,240.573,51.663z"/>
				<path fill="none" d="M230.261,60.327h9.283c0.567,0,1.029-0.465,1.029-1.029v-7.635c-1.264,0.784-2.612,1.485-4.037,2.087
					c-2.411,1.02-4.869,1.688-7.302,2.027v3.521C229.234,59.862,229.698,60.327,230.261,60.327z"/>
			</g>
		</g>
	</g>
</g>
</svg>
