<?xml version="1.0" encoding="utf-8"?>
<!-- Generator: Adobe Illustrator 18.0.0, SVG Export Plug-In . SVG Version: 6.00 Build 0)  -->
<!DOCTYPE svg PUBLIC "-//W3C//DTD SVG 1.1//EN" "http://www.w3.org/Graphics/SVG/1.1/DTD/svg11.dtd">
<svg version="1.1" id="SpareBank_1" xmlns="http://www.w3.org/2000/svg" xmlns:xlink="http://www.w3.org/1999/xlink" x="0px"
	 y="0px" width="281.633px" height="78.197px" viewBox="0 0 281.633 78.197" enable-background="new 0 0 281.633 78.197"
	 xml:space="preserve">
<g>
	<rect x="0.009" y="0.011" fill="none" width="281.633" height="78.208"/>
	<g>
		<g>
			<path fill="#002776" d="M27.867,54.834c-5.129,0-9.193-1.184-9.943-1.42c-0.395-0.158-0.592-0.474-0.592-0.828v-0.197
				l0.513-2.605c0.079-0.394,0.355-0.513,0.67-0.513c0.079,0,0.158,0,0.276,0.039c0.829,0.158,4.853,1.303,8.641,1.303
				c3.235,0,6.116-0.947,6.116-4.301c0-3.393-2.959-3.748-6.786-4.301c-4.261-0.632-9.746-1.775-9.746-8.483
				c0-6.904,5.129-8.72,11.205-8.72c4.617,0,8.444,1.105,9.311,1.342c0.474,0.118,0.711,0.434,0.711,0.829v0.197l-0.552,2.564
				c-0.04,0.276-0.316,0.552-0.631,0.552c-0.04,0-0.079-0.039-0.119-0.039c-1.894-0.395-4.814-1.184-8.286-1.184
				c-2.919,0-5.997,0.553-5.997,3.867c0,3.275,3.314,3.749,6.826,4.261c4.616,0.71,9.864,1.381,9.864,8.72
				C39.348,52.822,33.746,54.834,27.867,54.834z"/>
			<path fill="#002776" d="M77.998,54.361c-1.381,0.315-3.275,0.552-5.484,0.552c-4.261,0-9.509-0.434-9.509-6.707
				c0-5.09,3.196-5.642,6.352-6.155l7.023-1.144v-1.262c0-1.105-0.119-1.894-1.105-2.328c-0.631-0.276-1.578-0.395-2.998-0.395
				c-2.683,0-5.603,0.789-6.786,1.104c-0.119,0-0.197,0.04-0.276,0.04c-0.197,0-0.395-0.079-0.434-0.355l-0.552-2.446v-0.158
				c0-0.355,0.276-0.513,0.474-0.592c0.947-0.355,4.577-1.341,8.601-1.341c2.801,0,4.695,0.395,5.958,1.105
				c2.012,1.104,2.407,2.959,2.407,5.089v10.89C81.668,53.217,80.681,53.73,77.998,54.361z M76.381,44.34l-4.893,0.789
				c-1.618,0.236-3.117,0.473-3.117,3.037c0,3.078,2.486,3.314,4.38,3.314c1.539,0,2.801-0.275,3.63-0.553V44.34z"/>
			<path fill="#002776" d="M95.744,37.237c-2.407,0-4.459,0.237-5.563,0.513v16.059c0,0.355-0.237,0.592-0.592,0.592h-4.024
				c-0.237,0-0.671-0.236-0.671-0.592V36.764c0-1.539,0.907-2.012,2.801-2.564c1.736-0.552,4.538-0.947,6.786-0.986h0.671
				c0.552,0,0.552,0,0.829,0.118c0.158,0.079,0.355,0.237,0.355,0.631v2.564C96.336,36.922,96.297,37.237,95.744,37.237z"/>
			<path fill="#002776" d="M116.395,45.563c0,0.434-0.237,0.907-0.829,0.907h-13.217c0,1.815,0.513,2.802,1.578,3.63
				c1.026,0.828,2.525,1.184,4.656,1.184c2.446,0,4.3-0.592,5.523-0.947c0.079-0.039,0.119-0.039,0.197-0.039
				c0.237,0,0.434,0.158,0.553,0.553l0.513,2.012c0,0.039,0.04,0.119,0.04,0.197c0,0.316-0.197,0.474-0.474,0.592
				c-1.341,0.553-4.025,1.263-7.141,1.263c-7.733,0-10.771-3.038-10.771-10.771c0-7.418,2.052-10.969,9.746-10.969
				c3.985,0,6.431,1.026,7.851,2.92c1.341,1.775,1.775,4.3,1.775,7.575V45.563z M110.832,39.684c-0.513-2.17-1.697-2.88-4.024-2.88
				c-2.644,0-3.749,0.789-4.183,2.762c-0.276,1.105-0.276,2.249-0.315,3.551l8.838-0.04
				C111.148,41.815,111.108,40.749,110.832,39.684z"/>
			<path fill="#002776" d="M161.279,54.361c-1.381,0.315-3.275,0.552-5.484,0.552c-4.262,0-9.509-0.434-9.509-6.707
				c0-5.09,3.196-5.642,6.353-6.155l7.023-1.144v-1.262c0-1.105-0.119-1.894-1.105-2.328c-0.631-0.276-1.578-0.395-2.998-0.395
				c-2.684,0-5.604,0.789-6.787,1.104c-0.118,0-0.197,0.04-0.275,0.04c-0.197,0-0.395-0.079-0.435-0.355l-0.552-2.446v-0.158
				c0-0.355,0.275-0.513,0.473-0.592c0.947-0.355,4.577-1.341,8.602-1.341c2.801,0,4.695,0.395,5.958,1.105
				c2.013,1.104,2.407,2.959,2.407,5.089v10.89C164.949,53.217,163.962,53.73,161.279,54.361z M159.662,44.34l-4.893,0.789
				c-1.618,0.236-3.117,0.473-3.117,3.037c0,3.078,2.485,3.314,4.379,3.314c1.539,0,2.802-0.275,3.631-0.553V44.34z"/>
			<path fill="#002776" d="M186.049,54.401h-4.064c-0.355,0-0.631-0.236-0.631-0.592V39.881c0-2.289-0.868-3.078-2.959-3.078
				c-2.367,0-4.932,0.671-4.932,0.671v16.334c0,0.355-0.237,0.592-0.592,0.592h-4.025c-0.395,0-0.67-0.236-0.67-0.592V36.803
				c0-1.499,0.749-2.012,2.959-2.604c2.012-0.552,5.326-1.026,7.852-1.026c4.932,0,7.654,1.263,7.654,5.997v14.638
				C186.641,54.164,186.404,54.401,186.049,54.401z"/>
			<path fill="#002776" d="M208.928,54.045c0,0.158-0.157,0.355-0.395,0.355h-5.287c-0.197,0-0.395,0-0.592-0.236l-6.115-8.326
				h-1.342v7.971c0,0.355-0.197,0.592-0.592,0.592h-4.064c-0.354,0-0.632-0.236-0.632-0.592v-27.58c0-0.473,0.197-0.71,0.672-0.828
				l3.865-0.671h0.158c0.355,0,0.592,0.237,0.592,0.671v16.886h1.342l6.234-8.325c0.157-0.237,0.316-0.276,0.513-0.276l4.814,0.118
				c0.276,0,0.395,0.197,0.395,0.355c0,0.079-0.039,0.119-0.079,0.197l-7.457,9.391l7.892,10.1
				C208.889,53.888,208.928,53.967,208.928,54.045z"/>
			<path fill="#002776" d="M47.492,50.811"/>
			<path fill="#002776" d="M52.739,33.174c-2.644,0-5.682,0.434-8.049,1.263c-1.776,0.552-2.486,1.144-2.486,3.196v24.423
				c0,0.395,0.309,0.717,0.878,0.615c0.569-0.103,3.738-0.688,3.738-0.688c0.474-0.079,0.671-0.315,0.671-0.789v-6.879
				c1.401,0.341,3.166,0.6,5.129,0.6c7.339,0,8.72-4.616,8.72-10.851C61.34,37.79,60.354,33.174,52.739,33.174z M51.24,51.283
				c-2.13,0-3.748-0.473-3.748-0.473V37.514c0,0,2.328-0.631,4.143-0.631c2.999,0,4.301,0.67,4.301,7.063
				C55.935,49.942,54.83,51.283,51.24,51.283z"/>
			<path fill="#002776" d="M133.736,54.401h-13.139c-0.355,0-0.671-0.276-0.671-0.631V25.874c0-0.355,0.315-0.631,0.671-0.631
				h13.178c6.671,0,9.39,2.616,9.39,7.354c0,4.182-2.323,5.679-5.918,6.708c3.991,0.658,6.905,2.825,6.905,7.48
				C144.152,52.072,140.443,54.401,133.736,54.401z M133.222,29.307h-7.615v8.443l7.339-0.315c2.999-0.118,4.537-1.184,4.537-4.182
				C137.484,30.49,136.142,29.307,133.222,29.307z M133.025,41.577l-7.417-0.236v8.995h7.417c3.985,0,5.287-1.735,5.287-4.143
				C138.312,42.959,137.247,41.695,133.025,41.577z"/>
		</g>
		<g>
			<path fill="#E60000" d="M242.543,11.35c-2.933,0-5.757,0.458-8.411,1.301c11.169-2.423,22.239,2.178,26.227,11.601
				c4.609,10.892-1.989,24.096-14.737,29.491c-11.436,4.839-23.931,1.747-29.711-6.802c3.381,11.517,14.021,19.929,26.632,19.929
				c15.331,0,27.76-12.428,27.76-27.76S257.874,11.35,242.543,11.35z"/>
			<path fill="#AF0000" d="M245.622,53.743c12.749-5.395,19.347-18.598,14.737-29.491c-3.988-9.424-15.059-14.024-26.227-11.601
				c-11.219,3.563-19.349,14.06-19.349,26.459c0,2.72,0.398,5.347,1.128,7.831C221.691,55.49,234.186,58.582,245.622,53.743z"/>
			<g>
				<path fill="#FFFFFF" d="M249.659,51.655V23.152c0-0.566-0.462-1.027-1.029-1.027h-6.454c-0.461,0-0.72,0.102-1.132,0.257
					l-8.328,4.287c-0.513,0.207-0.719,0.514-0.719,1.029v4.671c0,0.549,0.445,0.992,0.993,0.992h5.33v22.409
					c2.433-0.338,4.891-1.006,7.302-2.027C247.047,53.14,248.395,52.439,249.659,51.655z"/>
				<path fill="none" d="M239.347,60.319h9.283c0.567,0,1.029-0.465,1.029-1.029v-7.635c-1.264,0.784-2.612,1.485-4.037,2.087
					c-2.411,1.02-4.87,1.688-7.302,2.027v3.521C238.32,59.855,238.784,60.319,239.347,60.319z"/>
			</g>
		</g>
	</g>
</g>
</svg>
