<?xml version="1.0" encoding="utf-8"?>
<!-- Generator: Adobe Illustrator 19.1.0, SVG Export Plug-In . SVG Version: 6.00 Build 0)  -->
<svg version="1.1" id="SB1_Hallingdal_Valdres" xmlns="http://www.w3.org/2000/svg" xmlns:xlink="http://www.w3.org/1999/xlink"
	 x="0px" y="0px" viewBox="0 0 308.6 78.2" style="enable-background:new 0 0 308.6 78.2;" xml:space="preserve">
<style type="text/css">
	.st0{fill:none;}
	.st1{fill:#002776;}
	.st2{fill:#E60000;}
	.st3{fill:#AF0000;}
	.st4{fill:#FFFFFF;}
</style>
<g>
	<rect x="0" y="0" class="st0" width="308.6" height="78.2"/>
	<g>
		<g>
			<g>
				<path class="st1" d="M63.3,42.2c-4.9,0-8.7-1.1-9.4-1.3c-0.4-0.2-0.6-0.4-0.6-0.8v-0.2l0.5-2.5c0.1-0.4,0.3-0.5,0.6-0.5
					c0.1,0,0.1,0,0.3,0c0.8,0.2,4.6,1.2,8.2,1.2c3.1,0,5.8-0.9,5.8-4.1c0-3.2-2.8-3.6-6.4-4.1c-4-0.6-9.2-1.7-9.2-8
					c0-6.5,4.9-8.3,10.6-8.3c4.4,0,8,1,8.8,1.3c0.4,0.1,0.7,0.4,0.7,0.8V16l-0.5,2.4c0,0.3-0.3,0.5-0.6,0.5c0,0-0.1,0-0.1,0
					c-1.8-0.4-4.6-1.1-7.9-1.1c-2.8,0-5.7,0.5-5.7,3.7c0,3.1,3.1,3.6,6.5,4c4.4,0.7,9.4,1.3,9.4,8.3C74.2,40.3,68.9,42.2,63.3,42.2z
					"/>
				<path class="st1" d="M110.9,41.7c-1.3,0.3-3.1,0.5-5.2,0.5c-4,0-9-0.4-9-6.4c0-4.8,3-5.4,6-5.8l6.7-1.1v-1.2c0-1-0.1-1.8-1-2.2
					c-0.6-0.3-1.5-0.4-2.8-0.4c-2.5,0-5.3,0.7-6.4,1c-0.1,0-0.2,0-0.3,0c-0.2,0-0.4-0.1-0.4-0.3l-0.5-2.3v-0.1
					c0-0.3,0.3-0.5,0.4-0.6c0.9-0.3,4.3-1.3,8.2-1.3c2.7,0,4.5,0.4,5.7,1c1.9,1,2.3,2.8,2.3,4.8v10.3
					C114.4,40.7,113.4,41.1,110.9,41.7z M109.3,32.2l-4.6,0.7c-1.5,0.2-3,0.4-3,2.9c0,2.9,2.4,3.1,4.2,3.1c1.5,0,2.7-0.3,3.4-0.5
					V32.2z"/>
				<path class="st1" d="M127.7,25.5c-2.3,0-4.2,0.2-5.3,0.5v15.2c0,0.3-0.2,0.6-0.6,0.6h-3.8c-0.2,0-0.6-0.2-0.6-0.6V25.1
					c0-1.5,0.9-1.9,2.7-2.4c1.6-0.5,4.3-0.9,6.4-0.9h0.6c0.5,0,0.5,0,0.8,0.1c0.1,0.1,0.3,0.2,0.3,0.6v2.4
					C128.3,25.2,128.2,25.5,127.7,25.5z"/>
				<path class="st1" d="M147.3,33.4c0,0.4-0.2,0.9-0.8,0.9H134c0,1.7,0.5,2.7,1.5,3.4c1,0.8,2.4,1.1,4.4,1.1c2.3,0,4.1-0.6,5.2-0.9
					c0.1,0,0.1,0,0.2,0c0.2,0,0.4,0.2,0.5,0.5l0.5,1.9c0,0,0,0.1,0,0.2c0,0.3-0.2,0.4-0.4,0.6c-1.3,0.5-3.8,1.2-6.8,1.2
					c-7.3,0-10.2-2.9-10.2-10.2c0-7,1.9-10.4,9.2-10.4c3.8,0,6.1,1,7.4,2.8c1.3,1.7,1.7,4.1,1.7,7.2V33.4z M142,27.8
					c-0.5-2.1-1.6-2.7-3.8-2.7c-2.5,0-3.6,0.7-4,2.6c-0.3,1-0.3,2.1-0.3,3.4l8.4,0C142.3,29.8,142.3,28.8,142,27.8z"/>
				<path class="st1" d="M189.9,41.7c-1.3,0.3-3.1,0.5-5.2,0.5c-4,0-9-0.4-9-6.4c0-4.8,3-5.4,6-5.8l6.7-1.1v-1.2c0-1-0.1-1.8-1-2.2
					c-0.6-0.3-1.5-0.4-2.8-0.4c-2.5,0-5.3,0.7-6.4,1c-0.1,0-0.2,0-0.3,0c-0.2,0-0.4-0.1-0.4-0.3l-0.5-2.3v-0.1
					c0-0.3,0.3-0.5,0.4-0.6c0.9-0.3,4.3-1.3,8.2-1.3c2.7,0,4.5,0.4,5.7,1c1.9,1,2.3,2.8,2.3,4.8v10.3
					C193.3,40.7,192.4,41.1,189.9,41.7z M188.3,32.2l-4.6,0.7c-1.5,0.2-3,0.4-3,2.9c0,2.9,2.4,3.1,4.2,3.1c1.5,0,2.7-0.3,3.4-0.5
					V32.2z"/>
				<path class="st1" d="M213.4,41.8h-3.9c-0.3,0-0.6-0.2-0.6-0.6V28c0-2.2-0.8-2.9-2.8-2.9c-2.2,0-4.7,0.6-4.7,0.6v15.5
					c0,0.3-0.2,0.6-0.6,0.6H197c-0.4,0-0.6-0.2-0.6-0.6V25.1c0-1.4,0.7-1.9,2.8-2.5c1.9-0.5,5.1-1,7.4-1c4.7,0,7.3,1.2,7.3,5.7v13.9
					C213.9,41.6,213.7,41.8,213.4,41.8z"/>
				<path class="st1" d="M235,41.4c0,0.2-0.1,0.3-0.4,0.3h-5c-0.2,0-0.4,0-0.6-0.2l-5.8-7.9H222v7.6c0,0.3-0.2,0.6-0.6,0.6h-3.9
					c-0.3,0-0.6-0.2-0.6-0.6V15.1c0-0.4,0.2-0.7,0.6-0.8l3.7-0.6h0.2c0.3,0,0.6,0.2,0.6,0.6v16h1.3l5.9-7.9c0.1-0.2,0.3-0.3,0.5-0.3
					l4.6,0.1c0.3,0,0.4,0.2,0.4,0.3c0,0.1,0,0.1-0.1,0.2l-7.1,8.9l7.5,9.6C235,41.3,235,41.4,235,41.4z"/>
				<path class="st1" d="M81.9,38.4"/>
				<path class="st1" d="M86.9,21.6c-2.5,0-5.4,0.4-7.6,1.2c-1.7,0.5-2.4,1.1-2.4,3v21.5c0,0.4,0.3,0.7,0.8,0.6
					c0.5-0.1,3.5-0.7,3.5-0.7c0.4-0.1,0.6-0.3,0.6-0.7v-4.9c1.3,0.3,3,0.6,4.9,0.6c7,0,8.3-4.4,8.3-10.3
					C95.1,26,94.1,21.6,86.9,21.6z M85.5,38.8c-2,0-3.6-0.4-3.6-0.4V25.8c0,0,2.2-0.6,3.9-0.6c2.8,0,4.1,0.6,4.1,6.7
					C90,37.6,88.9,38.8,85.5,38.8z"/>
				<path class="st1" d="M163.7,41.8h-12.5c-0.3,0-0.6-0.3-0.6-0.6V14.7c0-0.3,0.3-0.6,0.6-0.6h12.5c6.3,0,8.9,2.5,8.9,7
					c0,4-2.2,5.4-5.6,6.4c3.8,0.6,6.5,2.7,6.5,7.1C173.6,39.6,170.1,41.8,163.7,41.8z M163.3,18H156v8l7-0.3c2.8-0.1,4.3-1.1,4.3-4
					C167.3,19.1,166,18,163.3,18z M163.1,29.6l-7-0.2v8.5h7c3.8,0,5-1.6,5-3.9C168.1,30.9,167.1,29.7,163.1,29.6z"/>
			</g>
			<g>
				<path class="st1" d="M210,63.7h-1.9c-0.2,0-0.3-0.1-0.3-0.2l-0.2-2.8c-0.1-1.4-1.2-1.7-2.7-1.8l-2.6-0.1v4.6
					c0,0.2-0.1,0.3-0.3,0.3h-1.9c-0.2,0-0.3-0.1-0.3-0.3V51.5c0-0.2,0.1-0.3,0.3-0.3h5.7c2.6,0,4.1,0.9,4.1,3.5
					c0,1.9-1.3,2.8-2.8,3.1c1.6,0.3,2.8,0.8,2.9,3.2l0.1,2.3C210.2,63.6,210.1,63.7,210,63.7z M205.5,53h-3.2v4.3l2.7-0.1
					c1.5-0.1,2.5-0.4,2.5-2C207.5,53.7,207,53,205.5,53z"/>
				<path class="st1" d="M27.6,63.7h-1.9c-0.2,0-0.3-0.1-0.3-0.3v-5.2h-6v5.2c0,0.2-0.1,0.3-0.3,0.3h-1.9c-0.2,0-0.3-0.1-0.3-0.3
					V51.5c0-0.2,0.1-0.2,0.3-0.2l1.9-0.3c0.2,0,0.3,0.1,0.3,0.2v5.1h6v-4.8c0-0.2,0.1-0.2,0.2-0.2l1.9-0.3c0.2,0,0.2,0.1,0.2,0.2
					v12.1C27.9,63.6,27.7,63.7,27.6,63.7z"/>
				<path class="st1" d="M42.8,63.5c0,0.1-0.1,0.2-0.2,0.2h-2c-0.2,0-0.3-0.1-0.3-0.2l-1.4-4.4h-4.5l-1.4,4.4c0,0.1-0.2,0.2-0.3,0.2
					h-2c-0.1,0-0.2-0.1-0.2-0.2c0,0,0-0.1,0-0.1l4-11.9c0-0.1,0.2-0.2,0.3-0.2h3.6c0.1,0,0.3,0.1,0.3,0.2l4,11.9
					C42.8,63.4,42.8,63.5,42.8,63.5z M37,53h-0.7L35,57.3h3.4L37,53z"/>
				<path class="st1" d="M53.6,63.7h-7.8c-0.2,0-0.3-0.1-0.3-0.3V51.5c0-0.2,0.1-0.2,0.3-0.2l1.9-0.3c0.2,0,0.3,0.1,0.3,0.2v10.5
					h5.6c0.2,0,0.3,0.1,0.3,0.3v1.4C53.9,63.6,53.8,63.7,53.6,63.7z"/>
				<path class="st1" d="M64.5,63.7h-7.8c-0.2,0-0.3-0.1-0.3-0.3V51.5c0-0.2,0.1-0.2,0.3-0.2l1.9-0.3c0.2,0,0.3,0.1,0.3,0.2v10.5
					h5.6c0.2,0,0.3,0.1,0.3,0.3v1.4C64.7,63.6,64.6,63.7,64.5,63.7z"/>
				<path class="st1" d="M69.7,63.7h-1.9c-0.2,0-0.3-0.1-0.3-0.3V51.5c0-0.2,0.1-0.2,0.3-0.2l1.9-0.3c0.2,0,0.3,0.1,0.3,0.2v12.1
					C69.9,63.6,69.8,63.7,69.7,63.7z"/>
				<path class="st1" d="M85.1,63.7h-3.8c-0.2,0-0.3-0.1-0.3-0.3l-4.1-10.3h-0.6l0.2,10.3c0,0.2-0.1,0.3-0.3,0.3h-1.8
					c-0.2,0-0.3-0.1-0.3-0.3V51.5c0-0.1,0.1-0.3,0.3-0.3h4c0.2,0,0.3,0.1,0.3,0.2l4.2,10.7h0.2L83,51.5c0-0.2,0.2-0.3,0.3-0.3h1.7
					c0.2,0,0.3,0.1,0.3,0.3v11.9C85.4,63.6,85.3,63.7,85.1,63.7z"/>
				<path class="st1" d="M99.4,53.3c0,0.2-0.1,0.2-0.3,0.2c0,0-0.1,0-0.2,0c-0.5-0.1-1.9-0.6-3.7-0.6c-2.9,0-3.9,1-3.9,4.7
					s1,4.6,3.9,4.6c0.9,0,1.8-0.2,2-0.2v-3.6l-2-0.3c-0.1,0-0.2-0.1-0.2-0.2v-1.3c0-0.1,0.1-0.2,0.2-0.2h4.1c0.2,0,0.3,0.1,0.3,0.2
					v5.2c0,0.9-0.1,1.3-1,1.6c-0.8,0.3-2.4,0.4-3.4,0.4c-4.8,0-6.3-1.7-6.3-6.4c0-4.5,1.6-6.4,6-6.4c2.4,0,4.2,0.6,4.5,0.7
					c0.2,0.1,0.3,0.2,0.3,0.3c0,0,0,0.1,0,0.2L99.4,53.3z"/>
				<path class="st1" d="M108.8,63.7h-5c-0.2,0-0.3-0.1-0.3-0.3V51.5c0-0.2,0.1-0.3,0.3-0.3h5c4.1,0,5.7,1.6,5.7,6.2
					C114.5,62.1,112.9,63.7,108.8,63.7z M108.5,53h-2.6v8.9h2.6c2.5,0,3.5-0.7,3.5-4.5C112,53.7,111,53,108.5,53z"/>
				<path class="st1" d="M128.5,63.5c0,0.1-0.1,0.2-0.2,0.2h-2c-0.2,0-0.3-0.1-0.3-0.2l-1.4-4.4h-4.5l-1.4,4.4
					c0,0.1-0.2,0.2-0.3,0.2h-2c-0.1,0-0.2-0.1-0.2-0.2c0,0,0-0.1,0-0.1l4-11.9c0-0.1,0.2-0.2,0.3-0.2h3.6c0.1,0,0.3,0.1,0.3,0.2
					l4,11.9C128.5,63.4,128.5,63.5,128.5,63.5z M122.7,53H122l-1.3,4.3h3.4L122.7,53z"/>
				<path class="st1" d="M139.3,63.7h-7.8c-0.2,0-0.3-0.1-0.3-0.3V51.5c0-0.2,0.1-0.2,0.3-0.2l1.9-0.3c0.2,0,0.3,0.1,0.3,0.2v10.5
					h5.6c0.2,0,0.3,0.1,0.3,0.3v1.4C139.6,63.6,139.5,63.7,139.3,63.7z"/>
				<path class="st1" d="M154.7,63.4c0,0.2-0.2,0.3-0.3,0.3h-3.6c-0.2,0-0.3-0.1-0.3-0.3l-3.8-11.8c0-0.1,0-0.1,0-0.1
					c0-0.1,0.1-0.2,0.2-0.2h2c0.2,0,0.3,0.1,0.4,0.2l3,10.5h0.7l2.9-10.5c0.1-0.2,0.2-0.2,0.4-0.2h1.9c0.1,0,0.2,0.1,0.2,0.2
					c0,0,0,0.1,0,0.1L154.7,63.4z"/>
				<path class="st1" d="M171.5,63.5c0,0.1-0.1,0.2-0.2,0.2h-2c-0.2,0-0.3-0.1-0.3-0.2l-1.4-4.4h-4.5l-1.4,4.4
					c0,0.1-0.2,0.2-0.3,0.2h-2c-0.1,0-0.2-0.1-0.2-0.2c0,0,0-0.1,0-0.1l4-11.9c0-0.1,0.2-0.2,0.3-0.2h3.6c0.1,0,0.3,0.1,0.3,0.2
					l4,11.9C171.5,63.4,171.5,63.5,171.5,63.5z M165.7,53H165l-1.3,4.3h3.4L165.7,53z"/>
				<path class="st1" d="M182.3,63.7h-7.8c-0.2,0-0.3-0.1-0.3-0.3V51.5c0-0.2,0.1-0.2,0.3-0.2l1.9-0.3c0.2,0,0.3,0.1,0.3,0.2v10.5
					h5.6c0.2,0,0.3,0.1,0.3,0.3v1.4C182.6,63.6,182.5,63.7,182.3,63.7z"/>
				<path class="st1" d="M190.7,63.7h-5c-0.2,0-0.3-0.1-0.3-0.3V51.5c0-0.2,0.1-0.3,0.3-0.3h5c4.1,0,5.7,1.6,5.7,6.2
					C196.4,62.1,194.8,63.7,190.7,63.7z M190.4,53h-2.6v8.9h2.6c2.5,0,3.5-0.7,3.5-4.5C193.9,53.7,193,53,190.4,53z"/>
				<path class="st1" d="M222.1,63.7h-8c-0.2,0-0.3-0.1-0.3-0.3V51.5c0-0.2,0.1-0.3,0.3-0.3h8c0.2,0,0.3,0.1,0.3,0.3v1.3
					c0,0.2-0.1,0.3-0.3,0.3h-5.9v3.3h5.7c0.2,0,0.3,0.1,0.3,0.3V58c0,0.1-0.1,0.3-0.3,0.3h-5.7v3.7h5.9c0.2,0,0.3,0.1,0.3,0.3v1.3
					C222.4,63.6,222.3,63.7,222.1,63.7z"/>
				<path class="st1" d="M230.5,63.9c-2.2,0-3.9-0.5-4.2-0.6c-0.2-0.1-0.3-0.2-0.3-0.4l0.2-1.1c0-0.2,0.2-0.2,0.4-0.2
					c0.4,0.1,2.1,0.6,3.7,0.6c1.4,0,2.6-0.4,2.6-1.8c0-1.4-1.3-1.6-2.9-1.8c-1.8-0.3-4.1-0.8-4.1-3.6c0-2.9,2.2-3.7,4.8-3.7
					c2,0,3.6,0.5,4,0.6c0.2,0.1,0.4,0.2,0.3,0.4l-0.2,1.1c-0.1,0.2-0.2,0.3-0.4,0.2c-0.8-0.2-2-0.5-3.5-0.5c-1.2,0-2.6,0.2-2.6,1.6
					c0,1.4,1.4,1.6,2.9,1.8c2,0.3,4.2,0.6,4.2,3.7C235.4,63,233,63.9,230.5,63.9z"/>
			</g>
		</g>
		<g>
			<path class="st2" d="M269.5,11.4c-2.9,0-5.8,0.5-8.4,1.3c11.2-2.4,22.2,2.2,26.2,11.6c4.6,10.9-2,24.1-14.7,29.5
				c-11.4,4.8-23.9,1.7-29.7-6.8c3.4,11.5,14,19.9,26.6,19.9c15.3,0,27.8-12.4,27.8-27.8S284.8,11.4,269.5,11.4z"/>
			<path class="st3" d="M272.6,53.8c12.7-5.4,19.3-18.6,14.7-29.5c-4-9.4-15.1-14-26.2-11.6c-11.2,3.6-19.3,14.1-19.3,26.5
				c0,2.7,0.4,5.3,1.1,7.8C248.6,55.5,261.1,58.6,272.6,53.8z"/>
			<g>
				<path class="st4" d="M276.6,51.7V23.2c0-0.6-0.5-1-1-1h-6.5c-0.5,0-0.7,0.1-1.1,0.3l-8.3,4.3c-0.5,0.2-0.7,0.5-0.7,1v4.7
					c0,0.5,0.4,1,1,1h5.3v22.4c2.4-0.3,4.9-1,7.3-2C274,53.1,275.3,52.4,276.6,51.7z"/>
				<path class="st0" d="M266.3,60.3h9.3c0.6,0,1-0.5,1-1v-7.6c-1.3,0.8-2.6,1.5-4,2.1c-2.4,1-4.9,1.7-7.3,2v3.5
					C265.3,59.9,265.7,60.3,266.3,60.3z"/>
			</g>
		</g>
	</g>
</g>
</svg>
