<svg xmlns="http://www.w3.org/2000/svg" xmlns:svg="http://www.w3.org/2000/svg" width="180.4" height="180.4"><title>Layer 1</title><g stroke="null"><g stroke="null"><path stroke="null" d="m69.2 142.6c-5 0-9.1-3.9-9.5-8.9 0 0 0-0.1 0-0.1 -0.4-4.9-1.6-14.6-5.6-22.9 -3.1-6.3-6.4-11.1-9.6-15.8 -6.9-10.1-13.4-19.7-13.4-38.8 0-30.2 27-55.7 58.9-55.7 32 0 58.9 25.5 58.9 55.7 0 19.1-6.5 28.7-13.4 38.8 -3.2 4.7-6.5 9.5-9.6 15.8 -4.1 8.2-5.3 18-5.6 22.9 0 0 0 0 0 0.1 -0.3 5-4.5 8.9-9.5 8.9l-41.7 0zm2.1-11.8l37.4 0c0.6-6.2 2.2-16.3 6.7-25.3 3.5-7 7.2-12.5 10.4-17.2 6.6-9.7 11.4-16.7 11.4-32.2 0-23.4-22-43.9-47.2-43.9 -25.1 0-47.2 20.5-47.2 43.9 0 15.5 4.8 22.5 11.4 32.2 3.3 4.8 6.9 10.2 10.4 17.2 4.4 9 6.1 19.1 6.7 25.3zM118.5 161.9l-55.9 0c-2.6 0-4.8-2.1-4.8-4.8l0-2.2c0-2.6 2.1-4.8 4.8-4.8l55.9 0c2.6 0 4.8 2.1 4.8 4.8l0 2.2c0 2.6-2.1 4.8-4.8 4.8zM111.2 180.4l-41.3 0c-2.6 0-4.8-2.1-4.8-4.8l0-2.2c0-2.6 2.1-4.8 4.8-4.8l41.3 0c2.6 0 4.8 2.1 4.8 4.8l0 2.2c0 2.6-2.1 4.8-4.8 4.8z"/><rect stroke="null" height="6" width="32.2" transform="matrix(0.0012752068345422882,1.6817840036746468,-1.6817840036746468,0.0012752068345422882,256.92368219161517,-46.07213118740133) " y="96.3" x="74.1"/><path stroke="null" d="m86.5 82.2l-14.9-15.4c-1.8-1.9-1.8-4.9 0.1-6.7l0.4-0.4c1.9-1.8 4.9-1.8 6.7 0.1l14.9 15.4 -7.3 7zM93.7 82.2l-7.3-7 14.9-15.4c1.8-1.9 4.8-2 6.7-0.1l0.4 0.4c1.9 1.8 2 4.8 0.1 6.7l-14.9 15.4z"/></g></g></svg>