<svg xmlns="http://www.w3.org/2000/svg" viewBox="0 0 200 200"><path d="M139.573913 41.2903226c-1.608696-2.0967742-5.469565-5.3225807-13.513043-3.064516-2.734783.8064515-21.0739135 4.516129-25.739131 5.4838708-9.6521738-2.0967742-24.4521738-5.1612903-25.9-5.483871-8.043478-2.2580645-11.9043477.967742-13.5130433 3.0645162-2.0913044 2.7419355-2.4130435 6.935484-.804348 9.516129 1.126087 1.935484 7.078261 13.8709678 10.6173914 20.967742 1.6086958 3.064516 4.6652175 5 8.204348 5h42.952174c3.3782607 0 6.595652-1.935484 8.204348-5 3.53913-6.935484 9.491304-19.032258 10.617391-20.967742 1.447826-2.7419355 1.126087-6.7741935-1.126087-9.516129zm-17.8565217 26.1290322H78.926087c-2.573913-5.3225806-8.3652174-16.7741935-10.4565218-20.6451613.4826087-.1612903 1.6086957-.1612903 3.5391305.3225807.1608695 0 20.5913043 4.3548387 26.8652173 5.6451613 1.2869566.3225806 2.4130435.3225806 3.7 0 5.7913044-1.1290323 23.1652174-4.8387097 26.06087-5.6451613 2.091304-.6451613 3.217391-.483871 3.53913-.3225807-2.252174 4.032258-7.8826087 15.3225807-10.4565217 20.6451613zM100.321739 198.709677c-30.4043477 0-50.3521738-.806451-55.0173912-2.096774-10.7782608-3.064516-16.5695652-9.677419-17.8565217-20.16129-.6434782-6.290323-.321739-12.903226 1.2869566-20.16129 3.378261-16.129033 10.2956522-31.935484 20.1086957-46.612904 4.6652174-6.935484 14.3173913-16.7741932 19.1434782-21.4516125 1.7695652-1.6129033 4.0217392-2.5806452 6.4347826-2.5806452h52.121739c2.413044 0 4.665218.967742 6.434783 2.5806452 4.665217 4.6774193 14.478261 14.5161285 19.143478 21.4516125 9.973913 14.83871 16.730435 30.483871 20.108696 46.612904 1.608695 7.096774 1.930435 13.709677 1.286956 20.16129-1.126087 10.483871-6.917391 17.096774-17.856521 20.16129-4.986957 1.290323-24.934783 2.096774-55.339131 2.096774zm-52.2826086-11.451612c.9652174.16129 9.3304348 1.774193 52.2826087 1.774193 43.113044 0 51.8-1.612903 51.8-1.612903l.482609-.16129c7.078261-2.096775 10.134782-5.322581 10.93913-11.935484.643479-5.322581.16087-10.967742-1.126087-17.096775-3.217391-15-9.491304-29.516129-18.660869-43.225806-5.308696-8.064516-11.1-14.516129-17.534783-19.6774194H74.2608696C67.9869566 100.483871 62.1956522 106.935484 56.8869566 115c-9.1695653 13.709677-15.604348 28.225806-18.6608696 43.225806C36.9391304 164.354839 36.6173913 170 37.1 175.322581c.8043478 6.612903 3.7 9.838709 10.9391304 11.935484z"/><path d="M84.3956522 124.032258c0-2.096774 1.2869565-3.064516 3.7-3.064516h16.0869565c9.3304348 0 15.4434783 5.806452 15.4434783 13.870968 0 8.225806-6.273913 14.032258-15.4434783 14.032258h-8.0434783v9.354838c0 2.096775-1.2869565 3.064517-3.7 3.064517h-4.3434782c-2.4130435 0-3.7-1.129033-3.7-3.064517v-34.193548zm17.373913 16.290323c4.021739 0 6.1130435-2.258065 6.1130435-5.483871 0-3.225807-1.9304348-5.483871-5.7913044-5.483871h-5.952174v10.967742h5.630435zM95.978261 28.7096774l5.7913042-4.032258 5.7913044 4.032258c2.252174 1.7741936 5.4695652-.6451613 4.5043478-3.3870968l-2.0913044-6.6129032 5.6304348-4.1935484c2.252174-1.7741935 1.126087-5.483871-1.7695652-5.483871l-6.9173913-.1612903-2.252174-6.6129032c-.9652173-2.7419355-4.826087-2.7419355-5.7913043 0L96.7826087 9.032258l-6.9173913.1612904c-2.8956522 0-4.021739 3.7096774-1.7695652 5.483871l5.6304348 4.1935483-2.0913044 6.6129033c-.9652174 2.7419355 2.0913044 5 4.3434783 3.2258064z"/></svg>