<?xml version="1.0" encoding="UTF-8"?>
<svg width="90" height="100" viewBox="0 0 90 100" xmlns="http://www.w3.org/2000/svg">

<path fill="#002776" d="M68.7,99L68.7,99c-7.4,0-14.9-3.8-20.4-10.4L7.6,39.2C3.2,33.9,0.9,27.6,1,21.4c0.1-6.4,2.7-12,7.3-15.8
	C12,2.6,16.5,1,21.4,1c7.4,0,14.8,3.8,20.4,10.4l40.8,49.5c9,11,8.7,25.7-0.8,33.5C78.1,97.4,73.6,99,68.7,99z M21.4,7.8
	c-3.3,0-6.3,1.1-8.8,3.1c-3.1,2.5-4.8,6.3-4.9,10.7c-0.1,4.6,1.7,9.3,5,13.4l40.7,49.4c4.3,5.1,9.8,8,15.3,8c3.3,0,6.3-1.1,8.7-3.1
	c6.6-5.4,6.5-16-0.1-24L36.6,15.7C32.3,10.7,26.8,7.8,21.4,7.8z"/>
<g>
	<path fill="#002776" d="M43.1,40.5l10.6,12.8l-7.4,6.1L35.8,46.6L43.1,40.5 M43.9,32.4L27.7,45.8l17.9,21.6L61.8,54L43.9,32.4
		L43.9,32.4z"/>
</g>
</svg>
