<?xml version="1.0" encoding="utf-8"?>
<!-- Generator: Adobe Illustrator 18.0.0, SVG Export Plug-In . SVG Version: 6.00 Build 0)  -->
<!DOCTYPE svg PUBLIC "-//W3C//DTD SVG 1.1//EN" "http://www.w3.org/Graphics/SVG/1.1/DTD/svg11.dtd">
<svg version="1.1" id="prod" xmlns="http://www.w3.org/2000/svg" xmlns:xlink="http://www.w3.org/1999/xlink" x="0px" y="0px"
	 width="180.4px" height="180.4px" viewBox="0 0 180.4 180.4" enable-background="new 0 0 180.4 180.4" xml:space="preserve">
<g>
	<path fill="#002776" d="M108.2,100.462c-8.4,0-15.1,6.7-15.1,14.8c0,8.2,6.7,14.8,15.1,14.8s15.2-6.6,15.2-14.8
		C123.4,107.162,116.6,100.462,108.2,100.462z M108.2,122.662c-4.1,0-7.3-3.2-7.3-7.4c0-4.1,3.2-7.5,7.3-7.5c4.2,0,7.4,3.4,7.4,7.5
		C115.6,119.462,112.4,122.662,108.2,122.662z"/>
	<path fill="#002776" d="M72,86.662c8.3,0,15.2-6.6,15.2-14.8c0-8.1-6.9-14.8-15.2-14.8c-8.4,0-15.2,6.7-15.2,14.8
		C56.8,80.062,63.6,86.662,72,86.662z M72,64.362c4.1,0,7.4,3.4,7.4,7.5c0,4.2-3.3,7.4-7.4,7.4c-4.2,0-7.4-3.2-7.4-7.4
		C64.6,67.762,67.8,64.362,72,64.362z"/>
	<path fill="#002776" d="M125,63.862l-1.7-11.1c-0.2-1.5-1.7-2.6-3.2-2.4l-11.1,1.7c-2.5,0.4-3.3,3.6-1.2,5.1l3.6,2.6
		c-0.1,0.1-0.2,0.3-0.3,0.4l-49.4,64.7c-1.7,2.2-0.8,4,2,4h1.8c1.8,0,2.9-0.6,4-2l47.9-62.7l3.3,2.4
		C122.6,68.062,125.4,66.262,125,63.862z"/>
</g>
</svg>
