<?xml version="1.0" encoding="utf-8"?>
<!-- Generator: Adobe Illustrator 18.0.0, SVG Export Plug-In . SVG Version: 6.00 Build 0)  -->
<!DOCTYPE svg PUBLIC "-//W3C//DTD SVG 1.1//EN" "http://www.w3.org/Graphics/SVG/1.1/DTD/svg11.dtd">
<svg version="1.1" id="Layer_4" xmlns="http://www.w3.org/2000/svg" xmlns:xlink="http://www.w3.org/1999/xlink" x="0px" y="0px"
	 width="180.365px" height="180.365px" viewBox="0 0 180.365 180.365" enable-background="new 0 0 180.365 180.365"
	 xml:space="preserve">
<path fill="#002776" d="M126.152,70.214H72.791c-1.566,0-2.835-1.269-2.835-2.835v-1.331c0-1.565,1.269-2.835,2.835-2.835h53.361
	c1.565,0,2.835,1.269,2.835,2.835v1.331C128.987,68.945,127.718,70.214,126.152,70.214z"/>
<path fill="#002776" d="M126.152,93.683H72.791c-1.566,0-2.835-1.269-2.835-2.835v-1.331c0-1.565,1.269-2.835,2.835-2.835h53.361
	c1.565,0,2.835,1.269,2.835,2.835v1.331C128.987,92.413,127.718,93.683,126.152,93.683z"/>
<path fill="#002776" d="M126.152,117.15H72.791c-1.566,0-2.835-1.269-2.835-2.835v-1.331c0-1.565,1.269-2.835,2.835-2.835h53.361
	c1.565,0,2.835,1.269,2.835,2.835v1.331C128.987,115.881,127.718,117.15,126.152,117.15z"/>
<path fill="#002776" d="M55.214,70.173h-1.331c-1.566,0-2.835-1.269-2.835-2.835v-1.331c0-1.565,1.269-2.835,2.835-2.835h1.331
	c1.565,0,2.835,1.269,2.835,2.835v1.331C58.049,68.904,56.779,70.173,55.214,70.173z"/>
<path fill="#002776" d="M55.214,93.683h-1.331c-1.566,0-2.835-1.269-2.835-2.835v-1.331c0-1.565,1.269-2.835,2.835-2.835h1.331
	c1.565,0,2.835,1.269,2.835,2.835v1.331C58.049,92.413,56.779,93.683,55.214,93.683z"/>
<path fill="#002776" d="M55.214,117.151h-1.331c-1.566,0-2.835-1.269-2.835-2.835v-1.331c0-1.565,1.269-2.835,2.835-2.835h1.331
	c1.565,0,2.835,1.269,2.835,2.835v1.331C58.049,115.882,56.779,117.151,55.214,117.151z"/>
</svg>
