<?xml version="1.0"?>
<svg width="139.7" height="139.7" xmlns="http://www.w3.org/2000/svg" xmlns:svg="http://www.w3.org/2000/svg">
 <g>
  <title>Layer 1</title>
  <g id="seilbaat">
   <path id="svg_1" d="m127.950005,44.649998c-0.900002,-1.299999 -2.599998,-1.599998 -4,-0.900002c-7.800003,4.100002 -32.200005,5.900002 -49.799995,6.5l-2.5,0.100002l4.699997,-7.200001c0.5,-0.799999 0.699997,-1.799999 0.5,-2.799999c-0.199997,-1 -0.800003,-1.800003 -1.599998,-2.399998c-0.599998,-0.400005 -1.300003,-0.600002 -2,-0.600002c-1.300003,0 -2.5,0.600002 -3.200005,1.699997l-7.400002,11.500004l-0.900002,0l-2.299999,0c-0.299999,0 -0.5,0 -0.700001,0.099998l-47.999998,0.900002l0,28.999996l30.4,0c-3.200001,1.5 -6.700001,4.700005 -9.5,9l-0.400002,0.600006c-1.099998,1.699997 -1.199999,3.799995 -0.299999,5.899994c0.700001,1.800003 2.200001,3.400002 4,4.600006c1.700001,1.099998 3.700001,1.699997 5.599998,1.699997c0,0 0,0 0,0c2.400002,0 4.400002,-1 5.5,-2.699997l0.400002,-0.600006c3.099998,-4.799995 5.200001,-11 3.799999,-15.199997l2.100002,-3.199997l44.100002,0c0.199997,0 0.400002,0.099998 0.5,0.099998c0.800003,0 1.699997,-0.400002 2.300003,-1l28.399994,-30.799999c1.199989,-1.400005 1.299995,-3.100002 0.300003,-4.300003zm-85.800003,51.600002l-0.400002,0.599998c-0.199997,0.300003 -0.699997,0.400002 -1.299999,0.400002c-0.899998,0 -1.899998,-0.300003 -2.899998,-0.900002c-1,-0.599998 -1.700001,-1.5 -2.100002,-2.299995c-0.200001,-0.5 -0.299999,-1 -0.099998,-1.200005l0.399998,-0.599998c3.300003,-5.199997 7.200001,-7.5 8.800003,-7.5c0.099998,0 0.099998,0 0.199997,0l0.300003,0l0.099998,0.199997c1,1.300003 0.399998,6 -3,11.300003zm5.200001,-22l-30.300001,0l0,-16.500004l40.300001,-0.799999l1.200001,0l-11.200001,17.300003zm48.299999,0l-39.400002,0l11.300003,-17.5l2.099998,0c12,-0.299999 32,-1.200001 45.800003,-3.900002l-19.800003,21.400002z" fill="#002776"/>
  </g>
 </g>
</svg>