<?xml version="1.0" encoding="utf-8"?>
<!-- Generator: Adobe Illustrator 18.0.0, SVG Export Plug-In . SVG Version: 6.00 Build 0)  -->
<!DOCTYPE svg PUBLIC "-//W3C//DTD SVG 1.1//EN" "http://www.w3.org/Graphics/SVG/1.1/DTD/svg11.dtd">
<svg version="1.1" id="Layer_1" xmlns="http://www.w3.org/2000/svg" xmlns:xlink="http://www.w3.org/1999/xlink" x="0px" y="0px"
	 width="180.4px" height="180.4px" viewBox="0 0 180.4 180.4" enable-background="new 0 0 180.4 180.4" xml:space="preserve">
<g>
	<path fill="#002776" d="M121.7,101.85H50.8c-3.1,0-5.7-2.5-5.7-5.7v-33.1c0-3.1,2.5-5.7,5.7-5.7h70.9c1.5,0,2.9,0.6,4,1.7
		l16.5,16.6c2.2,2.2,2.2,5.8,0,8l-16.6,16.6C124.7,101.25,123.2,101.85,121.7,101.85z M52.2,94.85h69l15.2-15.3l-15.2-15.2h-69
		C52.2,64.35,52.2,94.85,52.2,94.85z"/>
	<path fill="#002776" d="M88.6,138.95h-1.3c-1.6,0-2.8-1.3-2.8-2.8v-27.4h7v27.3C91.4,137.65,90.2,138.95,88.6,138.95z"/>
	<path fill="#002776" d="M91.4,50.45h-7v-6.2c0-1.6,1.3-2.8,2.8-2.8h1.3c1.6,0,2.8,1.3,2.8,2.8v6.2H91.4z"/>
</g>
</svg>
