<svg xmlns="http://www.w3.org/2000/svg" viewBox="0 0 200 200"><path d="M166.2,0.0023216c-18.89-0.12046-34.63,4.4456-47.09,13.551-21.947,16.02-24.758,40.384-24.971,41.452-0.02792,0.25175,0.0046,0.48672,0,0.73426-3.358-4.578-7.668-9.122-13.187-13.15-18.116-13.243-43.252-16.888-74.794-10.479-1.9181,0.427-3.8629,1.695-4.9285,3.404-1.0657,1.922-1.4919,3.871-1.0657,6.007,0.42626,1.282,7.2464,31.801,34.101,47.394,10.23,5.7673,21.513,8.8111,34.3,8.8111,8.8068,0,18.111-1.3517,27.906-4.1386v100.46c0,3.4176,2.7973,5.9408,5.9942,5.9408h2.7973c3.1969,0.2136,5.9276-2.5232,5.9276-5.9408v-127.49c7.1246,1.5675,13.923,2.3363,20.447,2.3363,12.574,0,24.083-3.0305,34.1-9.0114,26.854-15.593,33.887-46.112,34.1-47.393,0.42625-2.136,0-4.2988-1.0656-6.0076s-2.7307-2.9771-4.862-3.4043c-9.8571-2.0025-19.118-3.0158-27.706-3.0705zm-0.4,15.82c5.1384,0.03338,10.63,0.48061,16.384,1.335-3.1969,8.3305-10.47,21.601-24.11,29.504-12.574,7.2625-28.333,8.5041-47.088,3.8048,2.1313-6.4081,6.8201-16.621,17.05-24.097,9.7506-7.0489,22.348-10.647,37.763-10.547zm-131.54,28.837c15.325-0.15019,27.946,3.3375,37.697,10.547,7.0291,5.032,11.463,11.294,14.253,16.888-7.117-4.188-18.25-9.765-34.501-15.62l-2.7307,8.1436c17.536,6.223,28.544,12.14,34.967,16.153-16.256,3.197-30.204,1.485-41.56-5.073-13.64-7.903-20.9-21.16-24.31-29.704,5.701-0.855,11.076-1.285,16.185-1.335z"/></svg>