<?xml version="1.0" encoding="utf-8"?><!DOCTYPE svg PUBLIC "-//W3C//DTD SVG 1.1//EN" "http://www.w3.org/Graphics/SVG/1.1/DTD/svg11.dtd"><svg version="1.1" xmlns="http://www.w3.org/2000/svg" xmlns:xlink="http://www.w3.org/1999/xlink" viewBox="0 0 122 118.7" xml:space="preserve"><path d="M62.6,118.7c-12.3,0-24-3.7-34.1-10.7l-24.7,2.3c-1.2,0.1-2.4-0.4-3.1-1.4 c-0.7-1-0.9-2.2-0.5-3.4l8.4-21.4C5,76.3,3.2,68,3.2,59.4C3.2,26.6,29.9,0,62.6,0C95.3,0,122,26.6,122,59.4 C122,92.1,95.3,118.7,62.6,118.7z M29.5,100.9c0.7,0,1.5,0.2,2.1,0.7c9,6.6,19.8,10.2,31,10.2c28.9,0,52.4-23.5,52.4-52.4 S91.5,7,62.6,7C33.7,7,10.2,30.5,10.2,59.4c0,8.1,1.8,15.8,5.3,23c0.4,0.9,0.5,1.9,0.1,2.8l-6.9,17.6l20.4-1.9 C29.3,100.9,29.4,100.9,29.5,100.9z"/><g><path d="M24.3,65.8h-2.8c-1.1,0-2-0.9-2-2v-8.5c0-1.1,0.9-2,2-2h2.8c1.1,0,2,0.9,2,2v8.5 C26.3,64.9,25.4,65.8,24.3,65.8z"/><path d="M34.4,68.6h-2.8c-1.1,0-2-0.9-2-2V52.4c0-1.1,0.9-2,2-2h2.8c1.1,0,2,0.9,2,2v14.2 C36.5,67.7,35.6,68.6,34.4,68.6z"/><g><path d="M47.7,75.9H42c-1.2,0-2.2-1-2.2-2.2V45.3c0-1.2,1-2.2,2.2-2.2h5.7c1.2,0,2.2,1,2.2,2.2v28.3 C49.9,74.9,48.9,75.9,47.7,75.9z M44.2,71.4h1.2V47.5h-1.2V71.4z"/><rect xmlns="http://www.w3.org/2000/svg" id="XMLID_1017_" x="42" y="45.3" class="st0" width="5.7" height="28.3"/></g><path d="M58.2,70h-2.8c-1.1,0-2-0.9-2-2V51c0-1.1,0.9-2,2-2h2.8c1.1,0,2,0.9,2,2v17 C60.2,69.1,59.3,70,58.2,70z"/><path d="M68.2,72.1h-2.8c-1.1,0-2-0.9-2-2V48.8c0-1.1,0.9-2,2-2h2.8c1.1,0,2,0.9,2,2v21.3 C70.2,71.2,69.3,72.1,68.2,72.1z"/><g><path d="M81.5,80.1h-5.7c-1.2,0-2.2-1-2.2-2.2V41.1c0-1.2,1-2.2,2.2-2.2h5.7c1.2,0,2.2,1,2.2,2.2 v36.9C83.8,79.1,82.8,80.1,81.5,80.1z M78.1,75.7h1.2V43.3h-1.2V75.7z"/><rect xmlns="http://www.w3.org/2000/svg" id="XMLID_1009_" x="75.9" y="41.1" class="st0" width="5.7" height="36.9"/></g><path d="M92.1,70h-2.8c-1.1,0-2-0.9-2-2V51c0-1.1,0.9-2,2-2h2.8c1.1,0,2,0.9,2,2v17 C94.2,69.1,93.3,70,92.1,70z"/><path d="M102.1,65.8h-2.8c-1.1,0-2-0.9-2-2v-8.5c0-1.1,0.9-2,2-2h2.8c1.1,0,2,0.9,2,2v8.5 C104.2,64.9,103.3,65.8,102.1,65.8z"/></g></svg>
