<svg width="200" height="200" xmlns="http://www.w3.org/2000/svg">
    <path d="m59.045579,56.441716l82.520111,0c3.260054,0 5.705094,-2.658487 5.705094,-5.725971l0,-1.635992c0,-3.271984 -2.648794,-5.725971 -5.705094,-5.725971l-82.520111,0c-3.260054,0 -5.705094,2.658487 -5.705094,5.725971l0,1.635992c0,3.271984 2.648794,5.725971 5.705094,5.725971z"/>
    <path d="m59.045579,91.206549l82.520111,0c3.260054,0 5.705094,-2.658487 5.705094,-5.725971l0,-1.635992c0,-3.27199 -2.648794,-5.725978 -5.705094,-5.725978l-82.520111,0c-3.260054,0 -5.705094,2.658487 -5.705094,5.725978l0,1.635992c0,3.271984 2.648794,5.725971 5.705094,5.725971z"/>
    <path d="m59.045579,125.971375l82.520111,0c3.260054,0 5.705094,-2.658487 5.705094,-5.725971l0,-1.635992c0,-3.271984 -2.648794,-5.725971 -5.705094,-5.725971l-82.520111,0c-3.260054,0 -5.705094,2.658487 -5.705094,5.725971l0,1.635992c0,3.271984 2.648794,5.725971 5.705094,5.725971z"/>
    <path d="m59.045579,160.940701l82.520111,0c3.260054,0 5.705094,-2.658487 5.705094,-5.725971l0,-1.635992c0,-3.271984 -2.648794,-5.725971 -5.705094,-5.725971l-82.520111,0c-3.260054,0 -5.705094,2.658487 -5.705094,5.725971l0,1.635992c0,3.067485 2.648794,5.725971 5.705094,5.725971z"/>
    <path d="m164.386066,-0.000003l-128.772124,0c-6.316354,0 -11.613942,5.112475 -11.613942,11.656442l0,176.687125c0,6.339468 5.093834,11.656442 11.613942,11.656442l128.772124,0c6.316354,0 11.613942,-5.112475 11.613942,-11.656442l0,-176.687125c-0.203753,-6.339468 -5.297587,-11.656442 -11.613942,-11.656442zm-1.83378,186.503076l-125.308316,0l0,-173.210642l125.308316,0l0,173.210642z"/>
</svg>