<svg xmlns="http://www.w3.org/2000/svg" width="200" height="200" viewBox="40.5 35 100 105"><path d="M90 138.9h-1.3c-1.6 0-2.8-1.3-2.8-2.8V72.5c0-1.6 1.3-2.8 2.8-2.8H90c1.6 0 2.8 1.3 2.8 2.8v63.5C92.9 137.6 91.6 138.9 90 138.9z"/><path d="M111 118.3h-3.4c-1.6 0-2.8-1.3-2.8-2.8v-1.3c0-1.6 1.3-2.8 2.8-2.8h3.4c13.4 0 24.3-10.8 24.3-24 0-13.2-10.9-24-24.3-24h-3.5v-3.1c0-9.7-8-18-17.7-17.9 -9.5 0.2-17.1 7.9-17.1 17.4v3.5h-3c-13.4 0-24.8 11-24.5 24.4 0.2 13 10.9 23.6 24 23.6h2.5c1.6 0 2.8 1.3 2.8 2.8v1.3c0 1.6-1.3 2.8-2.8 2.8h-1.8c-16.9 0-31.2-13.3-31.6-30.3C37.7 71.8 50 58.2 65.8 56.5 67.5 44.6 77.7 35.4 90 35.4c12.3 0 22.6 9.2 24.2 21.1 15.7 1.6 28 14.8 28 30.8C142.3 104.4 128.2 118.3 111 118.3z"/><path d="M91.5 98l-4.2-5.6 13.6-10.3c1.2-0.9 3-0.7 4 0.5l0.8 1.1c0.9 1.2 0.7 3-0.5 4L91.5 98zM87 108.9L74.9 97.6c-1.1-1.1-1.2-2.9-0.1-4l0.9-1c1.1-1.1 2.9-1.2 4-0.1l12.1 11.3L87 108.9z"/></svg>
