<svg xmlns="http://www.w3.org/2000/svg" role="img" viewBox="35.91 36.29 108.42 107.67"><path d="M90.022 141.909H88.69a2.834 2.834 0 0 1-2.834-2.835V75.543a2.834 2.834 0 0 1 2.834-2.834h1.33a2.834 2.834 0 0 1 2.836 2.834v63.53a2.835 2.835 0 0 1-2.835 2.836"/><path d="M110.951 121.35h-3.41a2.834 2.834 0 0 1-2.834-2.836v-1.33a2.834 2.834 0 0 1 2.834-2.835h3.41c13.403 0 24.308-10.769 24.308-24.005 0-13.236-10.899-24.005-24.294-24.005h-3.5v-3.053c0-9.747-7.976-18.043-17.723-17.875-9.472.164-17.126 7.92-17.126 17.428v3.5h-2.954c-13.43 0-24.774 10.99-24.547 24.417.22 13.047 10.902 23.593 24.001 23.593h2.465a2.835 2.835 0 0 1 2.835 2.835v1.33a2.835 2.835 0 0 1-2.835 2.835h-1.825c-16.949 0-31.246-13.333-31.636-30.278-.376-16.315 11.924-29.895 27.722-31.56C67.472 47.61 77.705 38.41 90.048 38.41c12.335 0 22.562 9.198 24.19 21.098 15.723 1.628 28.021 14.836 28.021 30.837 0 17.096-14.045 31.005-31.308 31.005"/><path d="M91.469 100.982l-4.225-5.58 13.646-10.331a2.835 2.835 0 0 1 3.97.549l.803 1.06a2.835 2.835 0 0 1-.55 3.971L91.47 100.982zm-4.5 10.918l-12.072-11.267a2.835 2.835 0 0 1-.138-4.006l.908-.973a2.835 2.835 0 0 1 4.006-.138l12.07 11.267-4.774 5.117z"/></svg>