<svg xmlns="http://www.w3.org/2000/svg" role="img" viewBox="39.68 44.30 101.27 90.64"><path d="M90.093 82.929a5.896 5.896 0 0 0-5.89 5.888v3.63a5.896 5.896 0 0 0 5.89 5.889h.18a5.895 5.895 0 0 0 5.888-5.888v-3.631a5.895 5.895 0 0 0-5.887-5.888h-.181zm.18 21.407h-.18c-6.556 0-11.89-5.333-11.89-11.888v-3.631c0-6.555 5.334-11.888 11.89-11.888h.18c6.555 0 11.888 5.333 11.888 11.888v3.63c0 6.556-5.333 11.889-11.887 11.889zm14.84 28.795H75.252a5.669 5.669 0 0 1-5.67-5.669v-9.433c0-4.64 2.002-9.032 5.377-12.092 1.334-1.208 3.45-.86 4.35.697l.167.288c.68 1.177.397 2.635-.598 3.562a10.337 10.337 0 0 0-3.295 7.545v9.102h29.199v-9.102c0-2.884-1.223-5.616-3.294-7.545-.995-.927-1.28-2.385-.598-3.562l.166-.288c.9-1.557 3.018-1.904 4.35-.696a16.359 16.359 0 0 1 5.376 12.091v9.433a5.669 5.669 0 0 1-5.67 5.67"/><path d="M133.347 120.433h-17.68v-6h17.35v-62.1h-85.35v62.1h16.95v6h-17.28a5.669 5.669 0 0 1-5.67-5.67v-62.76a5.669 5.669 0 0 1 5.67-5.67h86.01a5.669 5.669 0 0 1 5.67 5.67v62.762a5.669 5.669 0 0 1-5.67 5.669"/></svg>