<svg xmlns="http://www.w3.org/2000/svg" role="img" viewBox="46.45 46.95 87.36 87.36"><path d="M68.685 55.656c-7.444 0-13.5 6.056-13.5 13.5v43c0 7.444 6.056 13.5 13.5 13.5h43c7.444 0 13.5-6.056 13.5-13.5v-43c0-7.444-6.056-13.5-13.5-13.5h-43zm43 77h-43c-11.304 0-20.5-9.196-20.5-20.5v-43c0-11.304 9.196-20.5 20.5-20.5h43c11.304 0 20.5 9.196 20.5 20.5v43c0 11.304-9.196 20.5-20.5 20.5z"/><path d="M102.803 84.231h25.882v-7h-25.882zm-51.119 0h25.883v-7H51.684z"/><path d="M90.185 79.014c-7.922 0-14.367 6.445-14.367 14.367 0 7.922 6.445 14.367 14.367 14.367 7.923 0 14.368-6.445 14.368-14.367 0-7.922-6.445-14.367-14.368-14.367m0 35.734c-11.782 0-21.367-9.585-21.367-21.367s9.585-21.367 21.367-21.367 21.368 9.585 21.368 21.367-9.586 21.367-21.368 21.367m24.398-42.542h-4.781a2.834 2.834 0 0 1-2.834-2.835v-4.78a2.834 2.834 0 0 1 2.834-2.835h4.781a2.835 2.835 0 0 1 2.835 2.835v4.78a2.835 2.835 0 0 1-2.835 2.835"/></svg>