<svg xmlns="http://www.w3.org/2000/svg" role="img" viewBox="29.26 45.51 122.85 88.97"><path d="M58.784 103.48c-5.985 0-10.855 4.87-10.855 10.855 0 5.987 4.87 10.857 10.855 10.857s10.856-4.87 10.856-10.857c0-5.985-4.87-10.855-10.856-10.855zm0 28.712c-9.846 0-17.855-8.011-17.855-17.857 0-9.845 8.01-17.855 17.855-17.855 9.846 0 17.856 8.01 17.856 17.855 0 9.846-8.01 17.857-17.856 17.857zm44.474-18.861c-3.27 0-5.93 2.66-5.93 5.93 0 3.27 2.66 5.93 5.93 5.93 3.27 0 5.93-2.66 5.93-5.93 0-3.27-2.66-5.93-5.93-5.93m0 18.86c-7.13 0-12.93-5.8-12.93-12.93s5.8-12.93 12.93-12.93 12.93 5.8 12.93 12.93-5.8 12.93-12.93 12.93"/><path d="M71.641 122.79h22.72v-7h-22.72z"/><path d="M46.478 122.79h-9.097a5.67 5.67 0 0 1-5.67-5.669V93.323c0-7.141 5.79-12.93 12.931-12.93h33.976a5.67 5.67 0 0 1 5.67 5.669v8.675h38.734v7H77.288V87.393H44.643a5.93 5.93 0 0 0-5.932 5.93v22.467h7.768v7z"/><path d="M102.72 99.01L91.79 54.406H61.407v31.42h-6.5V53.574a5.669 5.669 0 0 1 5.669-5.67h31.866a5.668 5.668 0 0 1 5.506 4.32l11.084 45.24-6.312 1.547zm44.214 23.53h-20.55a5.669 5.669 0 0 1-5.668-5.669V59.135a2.834 2.834 0 0 1 2.835-2.834h.83a2.834 2.834 0 0 1 2.835 2.834v56.905h19.718a2.835 2.835 0 0 1 2.835 2.835v.83a2.835 2.835 0 0 1-2.835 2.835"/></svg>