<svg xmlns="http://www.w3.org/2000/svg" role="img" viewBox="49.30 56.92 82.16 66.66"><path d="M127.15 63.377h-6.375a8.277 8.277 0 0 0-7.502-4.786 8.279 8.279 0 0 0-7.503 4.786H53.716a2.835 2.835 0 0 0-2.835 2.835v1.33a2.835 2.835 0 0 0 2.835 2.835h52.054a8.279 8.279 0 0 0 7.503 4.786 8.277 8.277 0 0 0 7.502-4.786h6.375a2.834 2.834 0 0 0 2.834-2.835v-1.33a2.834 2.834 0 0 0-2.834-2.835m0 23.468H79.025a8.277 8.277 0 0 0-7.502-4.786 8.279 8.279 0 0 0-7.503 4.786H53.716a2.835 2.835 0 0 0-2.835 2.835v1.33a2.835 2.835 0 0 0 2.835 2.835H64.02a8.279 8.279 0 0 0 7.503 4.786 8.277 8.277 0 0 0 7.502-4.786h48.125a2.834 2.834 0 0 0 2.834-2.835v-1.33a2.834 2.834 0 0 0-2.834-2.835m0 23.469h-6.375a8.277 8.277 0 0 0-7.502-4.786 8.279 8.279 0 0 0-7.503 4.786H53.716a2.835 2.835 0 0 0-2.835 2.835v1.33a2.835 2.835 0 0 0 2.835 2.835h52.054a8.279 8.279 0 0 0 7.503 4.786 8.277 8.277 0 0 0 7.502-4.786h6.375a2.834 2.834 0 0 0 2.834-2.835v-1.33a2.834 2.834 0 0 0-2.834-2.835"/><path d="M127.15 63.377h-6.375a8.277 8.277 0 0 0-7.502-4.786 8.279 8.279 0 0 0-7.503 4.786H53.716a2.835 2.835 0 0 0-2.835 2.835v1.33a2.835 2.835 0 0 0 2.835 2.835h52.054a8.279 8.279 0 0 0 7.503 4.786 8.277 8.277 0 0 0 7.502-4.786h6.375a2.834 2.834 0 0 0 2.834-2.835v-1.33a2.834 2.834 0 0 0-2.834-2.835m0 23.468H79.025a8.277 8.277 0 0 0-7.502-4.786 8.279 8.279 0 0 0-7.503 4.786H53.716a2.835 2.835 0 0 0-2.835 2.835v1.33a2.835 2.835 0 0 0 2.835 2.835H64.02a8.279 8.279 0 0 0 7.503 4.786 8.277 8.277 0 0 0 7.502-4.786h48.125a2.834 2.834 0 0 0 2.834-2.835v-1.33a2.834 2.834 0 0 0-2.834-2.835m0 23.469h-6.375a8.277 8.277 0 0 0-7.502-4.786 8.279 8.279 0 0 0-7.503 4.786H53.716a2.835 2.835 0 0 0-2.835 2.835v1.33a2.835 2.835 0 0 0 2.835 2.835h52.054a8.279 8.279 0 0 0 7.503 4.786 8.277 8.277 0 0 0 7.502-4.786h6.375a2.834 2.834 0 0 0 2.834-2.835v-1.33a2.834 2.834 0 0 0-2.834-2.835"/><path d="M127.15 63.377h-6.375a8.277 8.277 0 0 0-7.502-4.786 8.279 8.279 0 0 0-7.503 4.786H53.716a2.835 2.835 0 0 0-2.835 2.835v1.33a2.835 2.835 0 0 0 2.835 2.835h52.054a8.279 8.279 0 0 0 7.503 4.786 8.277 8.277 0 0 0 7.502-4.786h6.375a2.834 2.834 0 0 0 2.834-2.835v-1.33a2.834 2.834 0 0 0-2.834-2.835m0 23.468H79.025a8.277 8.277 0 0 0-7.502-4.786 8.279 8.279 0 0 0-7.503 4.786H53.716a2.835 2.835 0 0 0-2.835 2.835v1.33a2.835 2.835 0 0 0 2.835 2.835H64.02a8.279 8.279 0 0 0 7.503 4.786 8.277 8.277 0 0 0 7.502-4.786h48.125a2.834 2.834 0 0 0 2.834-2.835v-1.33a2.834 2.834 0 0 0-2.834-2.835m0 23.469h-6.375a8.277 8.277 0 0 0-7.502-4.786 8.279 8.279 0 0 0-7.503 4.786H53.716a2.835 2.835 0 0 0-2.835 2.835v1.33a2.835 2.835 0 0 0 2.835 2.835h52.054a8.279 8.279 0 0 0 7.503 4.786 8.277 8.277 0 0 0 7.502-4.786h6.375a2.834 2.834 0 0 0 2.834-2.835v-1.33a2.834 2.834 0 0 0-2.834-2.835"/></svg>