<svg xmlns="http://www.w3.org/2000/svg" role="img" viewBox="52.76 38.26 75.98 103.61"><path d="M90.664 47.288c-7.12 0-12.913 5.793-12.913 12.913v6.704c0 7.121 5.793 12.914 12.913 12.914h.334c7.12 0 12.913-5.793 12.913-12.914v-6.704c0-7.12-5.793-12.913-12.913-12.913h-.334zm.334 39.531h-.334c-10.98 0-19.913-8.933-19.913-19.914v-6.704c0-10.98 8.933-19.913 19.913-19.913h.334c10.98 0 19.913 8.933 19.913 19.913v6.704c0 10.981-8.933 19.914-19.913 19.914zm-2.924 7.604l-2.34 23.228c-.069.67.104 1.34.486 1.894l2.955 4.281c1.127 1.633 3.54 1.633 4.666 0l2.954-4.28a2.832 2.832 0 0 0 .488-1.895l-2.34-23.228a2.835 2.835 0 0 0-2.822-2.55h-1.227a2.834 2.834 0 0 0-2.82 2.55"/><path d="M121.162 139.995H60.5a5.67 5.67 0 0 1-5.67-5.669v-20.179c0-8.926 4.3-17.316 11.397-22.572a2.838 2.838 0 0 1 4.14.867l.67 1.157c.712 1.23.414 2.81-.723 3.66-5.285 3.951-8.484 10.221-8.484 16.888v18.848h58v-18.848c0-6.667-3.197-12.938-8.483-16.888-1.137-.85-1.435-2.43-.724-3.66l.67-1.157c.846-1.463 2.783-1.873 4.14-.867 7.098 5.256 11.397 13.646 11.397 22.572v20.179a5.669 5.669 0 0 1-5.67 5.669"/></svg>