<svg xmlns="http://www.w3.org/2000/svg" role="img" viewBox="42.17 44.17 95.16 90.91"><path d="M122.358 117.941a3.72 3.72 0 0 1-3.716 3.715H84.059c-4.945 0-10.354-1.438-13.174-2.308V90.451c6.025-2.204 17.335-8.996 21.24-23.316 1.931-7.085 2.109-12.378 2.125-13.46C94.463 52 95.232 52 95.526 52c1.829 0 3.398.614 4.537 1.776 1.34 1.365 2.053 3.436 2.007 5.834-.118 6.17-2.12 14.746-2.14 14.832l-.868 3.687h23.784a2.676 2.676 0 0 1 2.673 2.673v1.681a2.116 2.116 0 0 1-2.113 2.114h-14.379v6h18.053a2.485 2.485 0 0 1 2.482 2.482v1.576a2.823 2.823 0 0 1-2.819 2.819h-17.716v6h14.847a2.727 2.727 0 0 1 2.724 2.724v1.304a2.852 2.852 0 0 1-2.848 2.848h-14.723v6h13.331v1.591zm-72.359 9.368h14.886v-40.48H49.999v40.48zm80.923-41.782a8.072 8.072 0 0 0 .597-3.044v-1.681a8.673 8.673 0 0 0-8.673-8.673h-16.299c.635-3.301 1.442-8.242 1.521-12.405.077-4.02-1.244-7.625-3.722-10.15-2.26-2.305-5.393-3.574-8.82-3.574-3.952 0-6.801 2.817-7.258 7.178l-.016.319c0 .051-.021 5.107-1.916 12.06-2.955 10.836-10.798 16.087-15.451 18.318v-.212a2.834 2.834 0 0 0-2.834-2.834H49.669A5.669 5.669 0 0 0 44 86.498v41.142a5.669 5.669 0 0 0 5.669 5.669h15.547a5.669 5.669 0 0 0 5.669-5.669v-2.036c3.369.939 8.365 2.052 13.174 2.052h34.583c5.366 0 9.716-4.35 9.716-9.715v-2.9c2.538-1.557 4.24-4.349 4.24-7.539v-1.304a8.674 8.674 0 0 0-1.054-4.155c2.415-1.575 4.018-4.296 4.018-7.388v-1.576c0-3.293-1.891-6.147-4.64-7.552z"/></svg>