<svg xmlns="http://www.w3.org/2000/svg" role="img" viewBox="50.82 39.82 78.61 100.49"><path d="M83.228 106.829v-.07l5.461-9.662c.734-1.33.175-2.31-1.365-2.31h-2.38c-1.05 0-1.75.42-2.276 1.365l-4.446 8.297h-2.519v-7.737c0-1.26-.665-1.925-1.926-1.925h-2.276c-1.259 0-1.924.665-1.924 1.925v21.178c0 1.26.665 1.924 1.924 1.924h2.276c1.261 0 1.926-.664 1.926-1.923v-8.228h2.52l4.55 8.787c.525.944 1.225 1.364 2.275 1.364h2.696c1.54 0 2.1-.98 1.365-2.31l-5.88-10.675zm17.815-.701h-2.66v-6.09h2.064c1.016 0 1.75.105 2.31.35 1.156.455 1.472 1.4 1.472 2.66 0 1.995-1.226 3.08-3.186 3.08zm6.615 4.936c-.595-1.05-.945-1.505-.945-1.505v-.07c2.486-1.26 3.746-4.166 3.746-6.826 0-3.64-1.785-6.196-4.621-7.28-1.084-.42-2.31-.596-4.865-.596h-6.791c-1.26 0-1.925.665-1.925 1.925v21.178c0 1.26.665 1.925 1.925 1.925h2.275c1.26 0 1.926-.666 1.926-1.925v-6.51h2.87l3.71 7.07c.525.945 1.225 1.365 2.275 1.365h2.66c1.506 0 2.1-.98 1.33-2.31l-3.57-6.44z"/><path d="M59.788 131.437h60.789V82.243H59.788v49.194zm12.699-68.513c0-9.679 9.173-14.089 17.695-14.089 8.523 0 17.696 4.41 17.696 14.089v12.319H72.487V62.924zm42.391 12.319V62.924c0-13.845-12.423-21.089-24.696-21.089-12.272 0-24.695 7.244-24.695 21.089v12.319h-7.03a5.669 5.669 0 0 0-5.669 5.669v51.856a5.669 5.669 0 0 0 5.669 5.669h63.451a5.669 5.669 0 0 0 5.669-5.669V80.912a5.669 5.669 0 0 0-5.669-5.669h-7.03z"/></svg>