<svg xmlns="http://www.w3.org/2000/svg" role="img" viewBox="35.52 57.02 109.20 66.20"><path d="M45.185 66.185a.5.5 0 0 0-.5.5v47a.5.5 0 0 0 .5.5h90a.5.5 0 0 0 .5-.5v-47a.5.5 0 0 0-.5-.5h-90zm90 55h-90c-4.136 0-7.5-3.365-7.5-7.5v-47c0-4.136 3.364-7.5 7.5-7.5h90c4.137 0 7.5 3.364 7.5 7.5v47c0 4.135-3.363 7.5-7.5 7.5z"/><path d="M103.812 117.685h6v-55h-6zm14.618-19.282a2.115 2.115 0 0 1 0-2.99l5.229-5.228-5.228-5.227a2.116 2.116 0 0 1 2.99-2.992l6.724 6.723a2.115 2.115 0 0 1 0 2.991l-6.723 6.723a2.117 2.117 0 0 1-2.991 0m-37.66-14.357a6.056 6.056 0 0 0-6.049 6.05 6.056 6.056 0 0 0 6.049 6.047 6.056 6.056 0 0 0 6.049-6.048 6.056 6.056 0 0 0-6.049-6.049m0 17.98c-6.579 0-11.931-5.353-11.931-11.93 0-6.58 5.352-11.933 11.931-11.933 6.579 0 11.932 5.353 11.932 11.932 0 6.578-5.353 11.931-11.932 11.931"/><path d="M67.771 78.343c-6.579 0-11.931 5.353-11.931 11.932 0 6.578 5.352 11.931 11.931 11.931 6.579 0 11.931-5.353 11.931-11.93 0-6.58-5.352-11.933-11.931-11.933"/></svg>