<svg xmlns="http://www.w3.org/2000/svg" role="img" viewBox="48.06 39.06 83.38 100.88"><path d="M116.11 72.424l-6.157-2.318 5.259-13.965 6.157 2.318-5.259 13.965zM81.589 55.651a56.437 56.437 0 0 0-13.893-3.303l5.448-2.969a11.279 11.279 0 0 1 9.387-.653l24.517 9.231-2.401 6.377-23.058-8.683zm-12.476 75.005l-7.929-2.985L86.91 66.06l3.504 1.318-21.301 63.28zm41.016-80.88l-.614 1.63-24.517-9.23a18.276 18.276 0 0 0-15.204 1.057l-18.312 9.98c-2.516 1.37-1.642 5.181 1.219 5.32l11.376.552a49.52 49.52 0 0 1 15.047 3.118l1.564.59-26.494 63.453a5.67 5.67 0 0 0 3.234 7.491l10.508 3.956a5.67 5.67 0 0 0 7.371-3.498l21.937-65.169 4.936 1.858-.246.653a2.835 2.835 0 0 0 1.654 3.652l13.953 5.254a2.836 2.836 0 0 0 3.652-1.654l8.194-21.76a2.834 2.834 0 0 0-1.654-3.653l-13.953-5.254a2.834 2.834 0 0 0-3.651 1.654z"/></svg>