<svg xmlns="http://www.w3.org/2000/svg" role="img" viewBox="32.92 53.92 114.40 72.40"><path d="M51.449 107.498h77.556V63.165H51.449v44.333zm84.556 7H44.449V61.834a5.669 5.669 0 0 1 5.669-5.669h80.217a5.67 5.67 0 0 1 5.67 5.669v52.664zm3.552 9.702h-98.66a5.67 5.67 0 0 1-5.67-5.669v-1.33h110v1.33a5.669 5.669 0 0 1-5.67 5.67"/><path d="M70.46 74.436c0-1.227.648-1.874 1.875-1.874h2.215c1.226 0 1.874.647 1.874 1.874v7.53h2.453l4.327-8.075c.512-.92 1.193-1.329 2.215-1.329h2.316c1.5 0 2.045.954 1.33 2.25l-5.316 9.403v.07l5.725 10.39c.715 1.295.17 2.25-1.33 2.25h-2.623c-1.022 0-1.704-.41-2.215-1.33l-4.43-8.552h-2.452v8.007c0 1.227-.648 1.874-1.874 1.874h-2.215c-1.227 0-1.874-.647-1.874-1.874V74.436zm30.976 9.166c1.908 0 3.102-1.057 3.102-2.999 0-1.227-.307-2.146-1.432-2.589-.545-.239-1.26-.34-2.248-.34h-2.01v5.928h2.588zm-8.552-9.166c0-1.227.648-1.874 1.874-1.874h6.61c2.488 0 3.68.171 4.736.58 2.76 1.056 4.498 3.543 4.498 7.087 0 2.59-1.227 5.417-3.645 6.644v.068s.34.443.92 1.465l3.475 6.27c.75 1.294.17 2.248-1.295 2.248h-2.59c-1.02 0-1.703-.409-2.215-1.329l-3.61-6.883h-2.795v6.338c0 1.227-.647 1.874-1.874 1.874h-2.215c-1.226 0-1.874-.647-1.874-1.874V74.436z"/></svg>