<svg xmlns="http://www.w3.org/2000/svg" role="img" viewBox="36.83 43.95 106.60 91.35"><path d="M74.885 123.185c-4.3 2.9-9 3.1-14.5 3.1s-10.1-.2-14.5-3.1v-6.9c4.7 2 9.6 2.2 14.5 2.2s9.8-.2 14.5-2.2v6.9zm-14.5-59.1c5.5 0 9.6.7 12.1 1.4-2.5.7-6.6 1.4-12.1 1.4s-9.6-.7-12.1-1.4c2.5-.7 6.7-1.4 12.1-1.4zm0 17.7c-5.5 0-10.1-.3-14.5-3.1v-6.5c3.2 1.1 7.8 1.8 14.5 1.8s11.3-.7 14.5-1.8v6.5c-4.3 2.8-9 3.1-14.5 3.1zm14.5 26.5c-4.3 2.9-9 3.1-14.5 3.1s-10.1-.3-14.5-3.1v-6.9c4.7 2 9.6 2.2 14.5 2.2s9.8-.2 14.5-2.2v6.9zm0-14.8c-4.3 2.9-9 3.1-14.5 3.1s-10.1-.3-14.5-3.1v-6.9c4.7 2 9.6 2.2 14.5 2.2s9.8-.2 14.5-2.2v6.9zm-14.5-36.4c-19.8 0-21.5 7.2-21.5 8.5v58.6c0 1.8.9 3.6 2.4 4.6 2.8 1.9 8.5 4.5 19.1 4.5 10.6 0 16.3-2.5 19.1-4.5 1.5-1 2.4-2.8 2.4-4.6v-58.6c0-1.4-1.7-8.5-21.5-8.5zm48.6 69.2c-5.5 0-10.1-.2-14.5-3.1v-6.5c3.2 1.1 7.8 1.8 14.5 1.8s11.3-.7 14.5-1.8v6.5c-4.4 2.9-9 3.1-14.5 3.1m0-17.7c5.5 0 9.6.7 12.1 1.4-2.5.7-6.6 1.4-12.1 1.4s-9.6-.7-12.1-1.4c2.5-.7 6.6-1.4 12.1-1.4m0-7c-19.8 0-21.5 7-21.5 8.5v13.9c0 1.9.9 3.7 2.5 4.7 2.9 2 8.8 4.5 19 4.5s16-2.6 19-4.5c1.6-1 2.5-2.8 2.5-4.7v-13.9c0-1.6-1.7-8.5-21.5-8.5m29.7-44.5h-8.2v-8.2c0-1.6-1.3-2.8-2.8-2.8h-.3c-1.6 0-2.8 1.3-2.8 2.8v8.2h-8.2c-1.6 0-2.8 1.3-2.8 2.8v.3c0 1.6 1.3 2.8 2.8 2.8h8.2v8.2c0 1.6 1.3 2.8 2.8 2.8h.3c1.6 0 2.8-1.3 2.8-2.8v-8.2h8.2c1.6 0 2.8-1.3 2.8-2.8v-.3c0-1.5-1.3-2.8-2.8-2.8"/></svg>