<svg xmlns="http://www.w3.org/2000/svg" role="img" viewBox="40.08 46.08 99.71 87.83"><path d="M90.325 48h-.445c-14.556 0-26.398 11.842-26.398 26.398v2.405a9.577 9.577 0 0 0-2.303-.28c-4.009-.001-7.64 2.519-9.037 6.269a9.571 9.571 0 0 0 .272 7.366 9.569 9.569 0 0 0 5.394 5.022l.1.037.101.034c.021.007 1.395.465 3.263 1.14-2.586 5.174-7.261 8.514-13.943 9.948a6.756 6.756 0 0 0-5.178 5.172 6.747 6.747 0 0 0 2.581 6.838c4.004 2.959 7.765 4.561 11.452 4.875a10.327 10.327 0 0 0 8.226 4.127c.357 0 .718-.02 1.074-.057l.292-.031.288-.059 7.058-1.449c.171-.012.329-.018.472-.018.654 0 .898 0 2.38 1.386 2.392 2.239 6.767 4.909 14.025 4.909s11.633-2.67 14.025-4.909c1.481-1.386 1.726-1.386 2.38-1.386.143 0 .301.006.471.018l7.058 1.449.288.059.292.031c.356.037.717.057 1.075.057 3.237 0 6.302-1.56 8.224-4.127 3.689-.313 7.45-1.916 11.454-4.875a6.746 6.746 0 0 0 2.58-6.838 6.752 6.752 0 0 0-5.177-5.172c-6.692-1.436-11.341-4.785-13.867-9.976 1.831-.661 3.166-1.105 3.186-1.112l.102-.034.099-.037a9.57 9.57 0 0 0 5.395-5.022 9.567 9.567 0 0 0 .271-7.366c-1.396-3.75-5.027-6.269-9.035-6.269-.709 0-1.411.078-2.098.231v-2.356C116.722 59.842 104.881 48 90.325 48m0 6c11.265 0 20.397 9.132 20.397 20.398v9.345a1.135 1.135 0 0 0 1.521 1.064c2.921-1.07 5.318-2.057 5.318-2.057a3.644 3.644 0 0 1 4.671 2.136 3.642 3.642 0 0 1-2.136 4.671s-3.41 1.133-6.942 2.519a2.263 2.263 0 0 0-1.343 2.736c1.865 6.462 6.782 14.643 19.599 17.393.623.134.803.94.29 1.318-2.718 2.009-5.962 3.757-9.229 3.757a10.8 10.8 0 0 1-.607-.016c-1.013 0-1.933.873-2.622 2.017a4.266 4.266 0 0 1-4.102 2.046l-7.404-1.521a13.803 13.803 0 0 0-1.332-.069c-2.725 0-4.328.992-6.48 3.006-1.724 1.613-4.777 3.289-9.925 3.289-5.148 0-8.201-1.676-9.925-3.289-2.153-2.014-3.755-3.006-6.48-3.006-.416 0-.858.023-1.332.069l-7.405 1.521a4.267 4.267 0 0 1-4.102-2.046c-.689-1.144-1.609-2.017-2.621-2.017l-.1.003a9.504 9.504 0 0 1-.507.013c-3.268 0-6.512-1.749-9.23-3.757-.512-.378-.332-1.184.291-1.318 12.773-2.74 17.768-10.874 19.705-17.327a2.26 2.26 0 0 0-1.335-2.756 157.192 157.192 0 0 0-7.056-2.565 3.643 3.643 0 0 1-2.137-4.671 3.646 3.646 0 0 1 3.413-2.363c.418 0 .844.073 1.258.227 0 0 2.513 1.035 5.527 2.133.129.048.26.07.388.07.6 0 1.131-.487 1.131-1.134v-9.421C69.482 63.132 78.615 54 89.88 54h.445"/></svg>