<svg xmlns="http://www.w3.org/2000/svg" role="img" viewBox="19.00 49.37 143.13 82.13"><path d="M152.434 112.467h-14.489c-.74-7.51-7.09-13.396-14.792-13.396-7.7 0-14.05 5.886-14.792 13.396h-35.93c-.74-7.51-7.09-13.396-14.792-13.396-7.678 0-14.015 5.85-14.786 13.329h-14.03v-4.167h8.872V61.526c0-.98.932-2.337 2.684-2.337h60.488c1.783 0 2.337 1.713 2.337 2.337v23.358h41.283v23.259h7.947v4.324zm-29.28 9.336c-4.339 0-7.867-3.53-7.867-7.866 0-4.338 3.528-7.866 7.866-7.866 4.338 0 7.866 3.528 7.866 7.866 0 4.337-3.528 7.866-7.866 7.866zm-65.515 0c-4.338 0-7.866-3.53-7.866-7.866 0-4.338 3.528-7.866 7.866-7.866 4.338 0 7.866 3.528 7.866 7.866 0 4.337-3.528 7.866-7.866 7.866zm96.126-20.66h-2.278v-17.59a5.67 5.67 0 0 0-5.67-5.67h-35.613V61.527c0-4.491-3.57-9.337-9.337-9.337H40.38c-5.98 0-9.684 4.846-9.684 9.337v39.707h-3.204a5.669 5.669 0 0 0-5.669 5.669v6.829a5.669 5.669 0 0 0 5.67 5.669h16.335c2.183 5.499 7.545 9.403 13.812 9.403 6.242 0 11.59-3.872 13.788-9.336h37.938c2.2 5.464 7.546 9.336 13.788 9.336s11.588-3.872 13.788-9.336h16.824a5.669 5.669 0 0 0 5.67-5.67v-6.985a5.669 5.669 0 0 0-5.67-5.67z"/><path d="M73.678 79.885h19.525v-9.811H73.678v9.811zm-2.165 4.999h23.856a2.834 2.834 0 0 0 2.835-2.834V67.909a2.835 2.835 0 0 0-2.835-2.835H71.513a2.835 2.835 0 0 0-2.835 2.835V82.05a2.834 2.834 0 0 0 2.835 2.834zm-24.068-4.999h10.524v-9.811H47.445v9.811zm-2.166 4.999h14.856a2.834 2.834 0 0 0 2.834-2.834V67.909a2.834 2.834 0 0 0-2.834-2.835H45.279a2.834 2.834 0 0 0-2.834 2.835V82.05a2.834 2.834 0 0 0 2.834 2.834z"/></svg>