<svg xmlns="http://www.w3.org/2000/svg" role="img" viewBox="24.75 47.25 130.00 85.75"><path d="M56.668 80.478h26.649V72.44H58.692l-2.024 8.037zm27.98 7H54.96c-3.692 0-6.4-3.474-5.497-7.054l2.695-10.7a5.67 5.67 0 0 1 5.497-4.283h26.993a5.669 5.669 0 0 1 5.669 5.669v10.699a5.669 5.669 0 0 1-5.67 5.669zm53.296 33.744h-2.4v-7h2.4c3.31 0 5.206-1.5 5.412-1.67l.175-.153c.295-.287 1.78-1.882 1.78-4.836V94.922l-5.143-1.858-15.307-6.34-.277-1.982c-.919-6.556-2.014-14.621-2.014-15.801v-1.184h7v1.184c.041.8.84 6.854 1.67 12.849l11.53 4.776 5.793 2.088a5.669 5.669 0 0 1 3.747 5.333v13.576c0 5.62-2.983 8.963-3.898 9.853l-.514.499-.235.156c-1.132.895-4.505 3.15-9.719 3.15m-79.282-13.396c-4.338 0-7.866 3.528-7.866 7.866 0 4.338 3.528 7.866 7.866 7.866 4.338 0 7.866-3.528 7.866-7.866 0-4.338-3.528-7.866-7.866-7.866m0 22.732c-8.197 0-14.866-6.668-14.866-14.866 0-8.197 6.669-14.866 14.866-14.866s14.866 6.67 14.866 14.866c0 8.198-6.669 14.866-14.866 14.866"/><path d="M124.177 107.825c-4.338 0-7.867 3.528-7.867 7.866 0 4.338 3.529 7.866 7.867 7.866s7.866-3.528 7.866-7.866c0-4.338-3.528-7.866-7.866-7.866m0 22.732c-8.198 0-14.867-6.668-14.867-14.866 0-8.197 6.669-14.866 14.867-14.866 8.197 0 14.866 6.67 14.866 14.866 0 8.198-6.67 14.866-14.866 14.866"/><path d="M71.403 121.222h41.407v-7H71.403zm-24.684 0h-13.78a5.669 5.669 0 0 1-5.668-5.67V94.165c0-.56.082-1.114.244-1.648l11.752-38.683a5.669 5.669 0 0 1 5.424-4.021h93.897a5.668 5.668 0 0 1 5.459 4.14l3.162 11.29c1.012 3.616-1.706 7.199-5.46 7.199h-31.122v8.037h17.338v7h-18.67a5.669 5.669 0 0 1-5.668-5.67V71.11a5.669 5.669 0 0 1 5.669-5.67h30.699l-2.416-8.628H45.678L34.27 94.36v19.86h12.448v7z"/></svg>