<svg xmlns="http://www.w3.org/2000/svg" role="img" viewBox="36.29 53.29 108.55 74.55"><path d="M119.292 102.302l-.587-.587a2.835 2.835 0 0 1 0-4.01l18.668-18.667a2.835 2.835 0 0 1 4.01 0l.586.587a2.835 2.835 0 0 1 0 4.009l-18.668 18.668a2.835 2.835 0 0 1-4.009 0"/><path d="M137.373 102.302l-18.668-18.668a2.835 2.835 0 0 1 0-4.01l.587-.586a2.835 2.835 0 0 1 4.01 0l18.667 18.668a2.835 2.835 0 0 1 0 4.008l-.587.587a2.835 2.835 0 0 1-4.009 0"/><path d="M127.918 125.865H44.07a5.669 5.669 0 0 1-5.669-5.669V61.144a5.67 5.67 0 0 1 5.67-5.67h83.848a5.67 5.67 0 0 1 5.67 5.67v8.565a2.834 2.834 0 0 1-2.835 2.835h-.83a2.835 2.835 0 0 1-2.836-2.835v-7.735H44.9v57.391h82.187v-7.785a2.834 2.834 0 0 1 2.835-2.834h.831a2.834 2.834 0 0 1 2.834 2.834v8.616a5.669 5.669 0 0 1-5.669 5.669"/><path d="M63.561 79.905c0-1.298.685-1.983 1.983-1.983h2.345c1.3 0 1.984.685 1.984 1.983v7.972h2.597l4.581-8.549c.541-.974 1.263-1.406 2.345-1.406h2.453c1.587 0 2.164 1.009 1.407 2.381l-5.628 9.955v.072l6.061 11.002c.758 1.371.18 2.381-1.407 2.381h-2.778c-1.082 0-1.803-.433-2.344-1.408l-4.69-9.053h-2.597v8.476c0 1.299-.685 1.985-1.984 1.985h-2.345c-1.298 0-1.983-.686-1.983-1.985V79.905zm32.785 9.703c2.02 0 3.282-1.118 3.282-3.174 0-1.299-.324-2.272-1.514-2.74-.578-.254-1.335-.362-2.38-.362h-2.129v6.276h2.741zm-9.054-9.703c0-1.298.686-1.984 1.984-1.984h6.998c2.633 0 3.895.18 5.013.614 2.922 1.118 4.762 3.751 4.762 7.503 0 2.741-1.299 5.735-3.859 7.033v.072s.36.47.973 1.552l3.68 6.637c.793 1.371.18 2.38-1.37 2.38h-2.742c-1.082 0-1.804-.432-2.345-1.407l-3.823-7.286h-2.958v6.71c0 1.298-.686 1.983-1.985 1.983h-2.344c-1.298 0-1.984-.685-1.984-1.984V79.905z"/></svg>