<svg xmlns="http://www.w3.org/2000/svg" role="img" viewBox="53.02 35.27 73.58 109.33"><path d="M90.02 92.27h-.333c-10.958 0-19.873-8.915-19.873-19.873V68.54h7v3.858c0 7.1 5.774 12.873 12.873 12.873h.333c7.1 0 12.873-5.774 12.873-12.873V65.71h7v6.688c0 10.958-8.915 19.873-19.873 19.873m28.823 50.265H60.82a5.669 5.669 0 0 1-5.669-5.67v-19.27c0-8.572 4.11-16.631 10.901-21.705 1.354-1.011 3.294-.596 4.14.866l.672 1.16a2.818 2.818 0 0 1-.725 3.659c-4.979 3.768-7.988 9.707-7.988 16.02v17.94h55.362v-17.94c0-6.313-3.009-12.252-7.988-16.02a2.818 2.818 0 0 1-.725-3.658l.672-1.161c.846-1.462 2.786-1.877 4.14-.866 6.792 5.074 10.901 13.133 10.901 21.705v19.27a5.669 5.669 0 0 1-5.669 5.67"/><path d="M66.746 62.75c2.38 2.45 5.712 3.875 9.346 3.875 1.634 0 3.266-.29 4.849-.862 3.428-1.24 4.912-3.027 6.632-5.096 2.306-2.774 5.175-6.227 12.297-6.227h3.23l.258 3.219c.004.033.47 4.42 2.778 5.094v-6.158c0-5.57-2.224-5.57-4.375-5.57h-1.72l-1.051-1.36a13.365 13.365 0 0 0-10.652-5.231h-.345c-5.154 0-9.934 3.01-12.18 7.67l-.142.266a61.716 61.716 0 0 0-1.636 2.935c-2.033 3.903-4.853 6.154-7.29 7.446m9.347 10.874c-7.756 0-14.637-4.265-17.956-11.13l-.413-.853a2.834 2.834 0 0 1 2.26-4.053l.945-.098c.135-.018 4.403-.63 6.897-5.418a69.232 69.232 0 0 1 1.75-3.147c3.433-6.986 10.645-11.492 18.418-11.492h.345c5.828 0 11.253 2.413 15.123 6.675 8.37.856 9.675 8.075 9.675 12.486v10.409a2.835 2.835 0 0 1-2.835 2.835h-3.551c-5.58 0-8.432-4.25-9.65-8.073-1.766.514-2.702 1.64-4.143 3.375-1.97 2.37-4.42 5.319-9.636 7.205a21.233 21.233 0 0 1-7.23 1.279"/></svg>