<svg xmlns="http://www.w3.org/2000/svg" role="img" viewBox="34.88 46.13 110.50 88.50"><path d="M117.721 92.135l-.337-.003c-9.95-.182-18.023-8.459-17.994-18.468-.007-4.88 1.897-9.479 5.362-12.949 3.477-3.482 8.248-5.478 13.091-5.478l.398.003c10.048.22 18.13 8.604 18.014 18.691-.114 10.038-8.429 18.204-18.534 18.204zm-73.677 33.443h70.28v-6.732h-70.28v6.732zm50.01-42.854c3.254 8.524 10.978 14.907 20.27 16.174v6.948h-70.28V82.724h50.01zm49.201-8.713c.158-13.906-10.994-25.466-24.86-25.769-6.874-.139-13.685 2.607-18.596 7.527-4.787 4.794-7.419 11.152-7.409 17.89-.002.695.032 1.382.085 2.065H42.713a5.669 5.669 0 0 0-5.669 5.67v45.515a5.669 5.669 0 0 0 5.67 5.67h72.94a5.669 5.669 0 0 0 5.67-5.67V98.875c12.241-1.744 21.787-12.227 21.931-24.864z"/><path d="M124.773 63.521l-6.736 6.736-6.737-6.736-3.535 3.535 6.737 6.736-6.737 6.737 3.535 3.535 6.737-6.736 6.736 6.736 3.535-3.535-6.736-6.737 6.736-6.736z"/></svg>