<svg xmlns="http://www.w3.org/2000/svg" role="img" viewBox="27.60 45.60 124.67 88.42"><path d="M140.441 131.737H39.443c-4.22 0-8.049-2.753-9.121-6.835-1.147-4.371.839-8.674 4.87-10.632L75.04 95.307a2.835 2.835 0 0 1 3.778 1.341l.679 1.428a2.834 2.834 0 0 1-1.341 3.777l-39.822 18.951c-1.231.598-1.124 1.72-1.02 2.173.105.454.498 1.51 1.896 1.51h101.466c1.381 0 1.783-1.04 1.891-1.487.108-.448.228-1.556-.999-2.189L90.364 94.413a8.591 8.591 0 0 1-4.673-7.666v-7.96c0-3.79 2.397-7.085 5.967-8.199 3.575-1.117 5.869-4.649 5.454-8.401-.397-3.595-3.293-6.491-6.887-6.888-2.281-.256-4.457.44-6.141 1.949a7.87 7.87 0 0 0-2.352 3.837c-.32 1.206-1.463 2.01-2.71 2.01h-1.631c-1.805 0-3.187-1.673-2.775-3.431a15.124 15.124 0 0 1 4.632-7.818c4.55-4.076 11.332-5.126 17.183-2.114 3.197 1.645 5.697 4.472 6.966 7.836 3.198 8.479-1.486 17.415-9.579 19.94-.517.161-.877.687-.877 1.279v7.96c0 .515.287.986.745 1.222l51.204 26.399c3.949 2.036 5.844 6.364 4.634 10.683-1.124 4.01-4.919 6.686-9.083 6.686"/></svg>