<svg xmlns="http://www.w3.org/2000/svg" role="img" viewBox="42.78 42.91 95.68 95.56"><path d="M131.03 125.631h-15.557v-7H129.7V77.904h-78v40.727h14.227v7H50.37a5.67 5.67 0 0 1-5.67-5.669V76.574a5.67 5.67 0 0 1 5.67-5.67h80.66a5.67 5.67 0 0 1 5.67 5.67v43.388a5.669 5.669 0 0 1-5.67 5.669z"/><path d="M118.723 74.404h-6.5V51.291H69.177v23.114h-6.5V50.459a5.669 5.669 0 0 1 5.669-5.669h44.708a5.669 5.669 0 0 1 5.669 5.67v23.945zm-49.546 55.841h43.046v-20.818H69.177v20.818zm43.876 6.5H68.346a5.669 5.669 0 0 1-5.669-5.669v-28.149h56.046v28.149a5.67 5.67 0 0 1-5.67 5.669zm7.919-46.615a4.722 4.722 0 1 1-9.444 0 4.722 4.722 0 0 1 9.444 0"/></svg>