<svg xmlns="http://www.w3.org/2000/svg" role="img" viewBox="26.04 39.04 127.92 103.05"><path d="M99.708 48.044a4.847 4.847 0 0 0-4.841 4.841 4.847 4.847 0 0 0 4.841 4.841 4.847 4.847 0 0 0 4.841-4.841 4.847 4.847 0 0 0-4.841-4.841m0 16.182c-6.253 0-11.341-5.088-11.341-11.341 0-6.253 5.088-11.341 11.341-11.341 6.253 0 11.341 5.088 11.341 11.341 0 6.253-5.088 11.341-11.341 11.341m-53.441-7.304a4.38 4.38 0 0 0-4.375 4.375 4.38 4.38 0 0 0 4.375 4.375 4.38 4.38 0 0 0 4.375-4.375 4.38 4.38 0 0 0-4.375-4.375m0 15c-5.858 0-10.625-4.767-10.625-10.625s4.767-10.625 10.625-10.625 10.625 4.767 10.625 10.625-4.767 10.625-10.625 10.625m101.303 38.751l-10.913 1.436-3.988-9.994-9.348-24.606 15.556 5.179a2.835 2.835 0 0 0 3.585-1.795l.42-1.263a2.835 2.835 0 0 0-1.794-3.585l-23.882-7.95c-2.267-.753-4.394 1.464-3.545 3.697l10.684 28.12h-15.43L98.24 72.687c-.79-2.02-3.465-2.438-4.836-.756L81.281 86.8 63.85 78.757c-2.293-1.058-4.72 1.185-3.847 3.555l7.943 21.53h-12.27l-9.439-23.054c-.829-2.026-3.544-2.387-4.874-.648L29.201 96.035a2.835 2.835 0 0 0 .53 3.974l1.056.809a2.835 2.835 0 0 0 3.974-.53l7.75-10.13 7.438 18.169-9.119 27.677a2.835 2.835 0 0 0 2.693 3.722h1.401a2.835 2.835 0 0 0 2.692-1.948l8.875-26.937h14.114l4.364 10.813 15.664-2.06c2.07-.272 3.146-2.612 2.004-4.36l-.807-1.236a2.835 2.835 0 0 0-2.742-1.26l-9.656 1.269-3.207-7.946-6.173-16.733 11.23 5.183a2.835 2.835 0 0 0 3.384-.783l9.66-11.85 8.991 22.94-10.274 31.186a2.835 2.835 0 0 0 2.692 3.722h1.401a2.835 2.835 0 0 0 2.692-1.948l10.17-30.865h17.048l5.127 12.846 16.944-2.23c2.07-.272 3.145-2.613 2.003-4.36l-.807-1.236a2.835 2.835 0 0 0-2.743-1.26"/></svg>