<svg xmlns="http://www.w3.org/2000/svg" role="img" viewBox="46.76 31.76 87.11 116.61"><path d="M54.1 88.7V63.9c0-12.1 8.8-24.9 25.1-24.9s25.1 12.8 25.1 24.9v24.9c0 1.4 1.1 2.5 2.5 2.5s2.5-1.1 2.5-2.5V63.9c0-7.3-2.8-14.6-7.6-20.1-3.9-4.5-11-9.8-22.5-9.8s-18.6 5.4-22.5 9.8c-4.8 5.5-7.6 12.8-7.6 20.1v24.9c0 1.4 1.1 2.5 2.5 2.5s2.5-1.2 2.5-2.6z"/><path d="M79.2 63.3c-1.9 0-3.5 1.6-3.5 3.5v31.1c0 1.9 1.6 3.5 3.5 3.5s3.5-1.6 3.5-3.5V66.8c0-1.9-1.6-3.5-3.5-3.5z"/><path d="M107.3 95.6c-1.8 0-3.6.1-5.4.5-.9-2.6-.9-6.4-.8-9.8V64.7c0-5.3-2-10.6-5.5-14.7-2.9-3.3-8.1-7.2-16.5-7.2S65.6 46.7 62.7 50c-3.5 4-5.5 9.4-5.5 14.7v21.6c.1 4.5.1 9.6-2 11.8-.5.5-1.1.8-1.8 1-1.1.3-1.9 1.2-1.9 2.3v.3c0 1.5 1.4 2.7 2.9 2.3 1.7-.4 3.1-1.2 4.3-2.4 3.6-3.6 3.5-9.9 3.4-15.4V64.7c0-8.2 6-16.9 17-16.9s17 8.7 17 16.9v21.5c-.1 3.8-.1 7.9 1 11.3-1.7.7-3.2 1.6-4.7 2.6.1-.8.2-1.7.2-2.5V67.1c0-7.3-5-14.9-13.5-14.9-8.4 0-13.5 7.6-13.5 14.9v30.5c0 7.3 5 14.9 13.5 14.9 1.5 0 2.8-.2 4-.6-.6 1.6-1.1 3.3-1.3 5.1-.9.1-1.7.2-2.7.2-5 0-8.3-1.2-11.3-4-4.9-4.8-9.1-5.8-12.1-6-1.3-.1-2.4 1-2.4 2.3 0 1.4 1.1 2.6 2.5 2.7 2.2.3 5 1.2 8.5 4.6 3.8 3.7 8.5 5.4 14.7 5.4.8 0 1.7 0 2.4-.1.1 1.3.2 2.6.5 3.8-.9.1-1.9.2-2.9.2-6.5 0-12.2-2.1-16.6-6-1-.9-2.4-.9-3.4 0-1.1 1-1.1 2.7 0 3.7 5.3 4.8 12.2 7.3 20 7.3 1.5 0 3-.1 4.4-.3 3.8 8.8 12.5 15.2 22.6 15.4h.4c6.6 0 13-2.6 17.7-7.2 4.8-4.7 7.5-10.9 7.6-17.7.4-13.9-10.6-25.4-24.4-25.7zm-35.6 2V67.1c0-3.4 2-8.9 7.5-8.9s7.5 5.4 7.5 8.9v30.5c0 3.4-2 8.9-7.5 8.9s-7.5-5.4-7.5-8.9zm48.2 36.5c-3.5 3.4-8.3 5.4-13.2 5.4h-.3c-10.1-.2-18.3-8.6-18.2-18.7 0-5 2-9.7 5.6-13.3 3.5-3.4 8.3-5.4 13.1-5.4h.4c10.2.2 18.4 8.7 18.3 18.9-.2 5-2.2 9.7-5.7 13.1z"/><path d="M114.6 115.7h-.7v-1.8c0-3.6-2.6-6.8-6.2-7.3-4.3-.6-8 2.8-8 7v2.1H99c-1.6 0-2.8 1.3-2.8 2.8v11.1c0 1.6 1.3 2.8 2.8 2.8h15.6c1.6 0 2.8-1.3 2.8-2.8v-11.1c0-1.6-1.3-2.8-2.8-2.8zm-10.9-2.1c0-1.7 1.4-3.1 3.1-3.1 1.7 0 3.1 1.4 3.1 3.1v2.1h-6.2v-2.1zm9.7 14.9h-13.3v-8.8h13.3v8.8z"/></svg>