<svg xmlns="http://www.w3.org/2000/svg" role="img" viewBox="29.15 44.27 122.46 92.08"><path d="M47.092 127.116H96.09V94.177h6.614L71.59 62.857l-31.113 31.32h6.614v32.94zm50.329 7H45.76a5.669 5.669 0 0 1-5.67-5.669v-27.27h-2.81c-5.042 0-7.575-6.087-4.022-9.664l34.31-34.54a5.669 5.669 0 0 1 8.045 0l34.31 34.54c3.554 3.577 1.02 9.664-4.021 9.664h-2.812v27.27a5.669 5.669 0 0 1-5.67 5.67z"/><path d="M51.766 80.78h-7V63.21a2.834 2.834 0 0 1 2.835-2.834h1.33a2.834 2.834 0 0 1 2.835 2.834v17.57zm56.564-9.51l8.323 5.636 26.611-9.009-5.136-15.17-26.61 9.01-3.189 9.532zm5.096 10.697l-12.232-8.281 4.686-14.009a5.667 5.667 0 0 1 3.558-3.571l27.08-9.168a5.668 5.668 0 0 1 7.187 3.552l5.348 15.797a5.67 5.67 0 0 1-3.552 7.188l-27.078 9.168a5.669 5.669 0 0 1-4.997-.675z"/><path d="M95.68 81.724l-3.105-5.135 14.185-8.578 1.115 3.864 1.99 1.27zm22.472-12.703a3.064 3.064 0 1 1-6.128 0 3.064 3.064 0 0 1 6.128 0"/></svg>