<svg xmlns="http://www.w3.org/2000/svg" role="img" viewBox="45.20 40.33 89.84 99.84"><path d="M54.177 118.247h72.012v-1.04c-10.552-8.343-11.392-10.621-14.061-20.87a295.888 295.888 0 0 0-1.67-6.211 361.445 361.445 0 0 1-1.59-5.865c-3.723-14.034-5.116-19.285-18.685-19.285-13.57 0-14.962 5.25-18.684 19.284a386.81 386.81 0 0 1-1.591 5.866 290.392 290.392 0 0 0-1.671 6.212c-2.67 10.248-3.51 12.526-14.06 20.87v1.039zm73.343 7H52.846a5.669 5.669 0 0 1-5.67-5.67v-3.033c0-1.731.789-3.365 2.145-4.44 1.685-1.336 3.88-3.09 4.714-3.815 4.986-4.341 5.529-6.426 7.428-13.716.474-1.82 1.01-3.883 1.708-6.35.572-2.023 1.08-3.944 1.562-5.758 3.77-14.217 6.495-24.49 25.45-24.49s21.68 10.274 25.45 24.492c.482 1.813.99 3.733 1.562 5.757a307.62 307.62 0 0 1 1.708 6.349c2.016 7.742 2.503 9.614 8.408 14.552.674.563 2.338 1.883 3.723 2.977a5.661 5.661 0 0 1 2.155 4.448v3.028a5.669 5.669 0 0 1-5.67 5.669z"/><path d="M99.941 62.016h-6V52.11a3.764 3.764 0 0 0-3.759-3.759 3.764 3.764 0 0 0-3.759 3.76v9.906h-6V52.11c0-5.38 4.378-9.759 9.76-9.759 5.38 0 9.758 4.378 9.758 9.76v9.906zm-1.161 67.688a8.597 8.597 0 1 1-17.195 0H98.78z"/></svg>