<svg xmlns="http://www.w3.org/2000/svg" role="img" viewBox="41.63 63.13 96.98 53.98"><path d="M49.551 109.286h51.389V71.08H49.551v38.206zm51.719 6H49.22a5.67 5.67 0 0 1-5.669-5.67V70.749a5.67 5.67 0 0 1 5.669-5.67h52.05a5.67 5.67 0 0 1 5.669 5.67v38.867a5.67 5.67 0 0 1-5.669 5.67zm16.377-16.292l13.167 6.187V76.459l-13.167 6.187v16.348zm15.127 13.737l-19.498-9.161a2.835 2.835 0 0 1-1.629-2.566V80.635c0-1.098.635-2.098 1.63-2.565l19.497-9.161c1.88-.883 4.04.488 4.04 2.565v38.691c0 2.078-2.16 3.449-4.04 2.566z"/></svg>