<svg xmlns="http://www.w3.org/2000/svg" role="img" viewBox="21.38 46.38 136.37 87.75"><path d="M110.24 107.549c1.65-8.92 9.487-15.697 18.878-15.697 9.382 0 18.215 7.784 18.878 15.697H110.24zm20.303 16.967c-5.207 0-10.44-3.126-11.963-9.967h23.547c-.856 5.632-5.717 9.967-11.584 9.967zm-99.43-16.967c1.853-14.016 14.493-23.83 23.23-23.83h18.305c-3.75 7.996-2.914 12.948-1.319 15.824 1.716 3.096 4.955 4.872 8.887 4.872 4.918 0 10.38-2.676 14.987-7.341 3.428-3.471 7.886-9.59 10.135-19.292l6.097-3.83 8.607 12.522c-8.932 3.31-15.577 11.358-16.88 21.075h-72.05zm21.893 16.449c-5.25 0-9.706-3.723-11.199-8.841h22.397c-1.492 5.118-5.948 8.84-11.198 8.84zm68.243-68.49v11.805a6.628 6.628 0 0 1-3.62-5.902 6.628 6.628 0 0 1 3.62-5.902zm6.211 29.402l-8.178-11.9a12.54 12.54 0 0 0 4.967 1.022c1.67 0 3-1.33 3-2.97V51.98c0-1.79-1.578-3.213-3.348-2.948-7.674 1.15-12.273 6.263-12.273 12.379 0 1.319.205 2.59.583 3.788l-6.79-9.838a2.835 2.835 0 0 0-2.365-1.27H91.664a2.835 2.835 0 0 0-2.834 2.835v1.33a2.834 2.834 0 0 0 2.834 2.835h9.153l5.268 7.956-5.96 3.743a2.835 2.835 0 0 0-1.272 1.843l-.056.28c-3.078 15.35-12.908 22.502-18.58 22.502-1.37 0-2.3-.426-2.766-1.265-1.072-1.935-.564-6.648 4.08-14.076 1.475-2.361-.184-5.355-2.905-5.355H54.342c-6.648 0-14.173 3.617-20.129 9.674-5.95 6.049-9.51 14.11-10.205 24.376-.137 2.038 1.45 3.78 3.492 3.78h7.028c1.415 9.598 9.15 16.967 18.478 16.967 9.327 0 17.063-7.37 18.478-16.967h39.954c1.748 11.62 10.711 16.967 19.105 16.967 9.732 0 17.75-7.463 18.642-16.967h2.45c2.062 0 3.697-1.78 3.49-3.832-1.574-15.485-12.637-25.865-26.007-25.865-.557 0-1.109.023-1.658.058z"/></svg>