<svg xmlns="http://www.w3.org/2000/svg" role="img" viewBox="57.52 48.64 65.72 83.59"><path d="M59.153 93.367c0-1.507.781-2.345 2.289-2.345h2.568c1.507 0 2.289.838 2.289 2.345v13.79h5.192l8.375-14.516c.614-1.116 1.452-1.62 2.736-1.62h2.736c1.842 0 2.512 1.23 1.619 2.793l-9.603 16.079v.112l10.328 17.866c.95 1.619.224 2.792-1.619 2.792h-3.07c-1.284 0-2.121-.503-2.736-1.62l-8.766-15.688h-5.192v14.963c0 1.564-.782 2.345-2.289 2.345h-2.568c-1.508 0-2.289-.781-2.289-2.345V93.367zm47.287 16.247c3.852 0 6.252-2.4 6.252-6.31 0-2.511-.949-4.521-3.127-5.415-.949-.446-2.177-.67-4.299-.67h-5.304v12.395h6.477zM92.815 93.367c0-1.507.782-2.345 2.29-2.345h10.72c3.907 0 5.861.335 7.536 1.06 4.02 1.675 6.644 5.472 6.644 10.833 0 4.689-2.457 9.156-6.587 10.83v.112s.501.614 1.283 2.066l6.533 11.948c.95 1.619.223 2.792-1.619 2.792H116.6c-1.283 0-2.12-.503-2.735-1.62l-6.98-13.176h-6.923v12.45c0 1.565-.782 2.346-2.289 2.346h-2.568c-1.507 0-2.289-.781-2.289-2.345V93.367zm2.311-20.291c1.104 0 2.025-.848 2.025-1.953 0-1.031-.921-1.914-2.025-1.914-1.105 0-2.026.883-2.026 1.914 0 1.105.92 1.953 2.026 1.953zm0-8.287c3.683 0 6.666 2.908 6.666 6.37 0 3.538-2.983 6.337-6.666 6.337-3.721 0-6.668-2.8-6.668-6.336 0-3.463 2.947-6.371 6.668-6.371zM81.423 56.61c0-1.031-.921-1.916-2.026-1.916-1.105 0-2.026.885-2.026 1.916 0 1.106.92 1.95 2.026 1.95 1.105 0 2.026-.844 2.026-1.95zm12.192-4.678c.626-.847 1.363-1.216 2.468-1.216h.92c1.732 0 2.285 1.105 1.217 2.468L80.723 75.838c-.626.847-1.363 1.217-2.468 1.217h-.921c-1.731 0-2.284-1.106-1.216-2.47l17.497-22.652zM72.73 56.648c0-3.463 2.947-6.373 6.667-6.373 3.683 0 6.666 2.91 6.666 6.373 0 3.535-2.983 6.334-6.666 6.334-3.72 0-6.667-2.8-6.667-6.334z"/></svg>