<svg xmlns="http://www.w3.org/2000/svg" role="img" viewBox="23.71 51.59 132.08 77.58"><path d="M56.112 106.394a6.673 6.673 0 0 0-6.666 6.666 6.673 6.673 0 0 0 6.666 6.666 6.673 6.673 0 0 0 6.666-6.666 6.673 6.673 0 0 0-6.666-6.666zm0 20.332c-7.535 0-13.666-6.13-13.666-13.666 0-7.535 6.131-13.666 13.666-13.666s13.666 6.131 13.666 13.666-6.13 13.666-13.666 13.666zm68.636-20.332a6.674 6.674 0 0 0-6.667 6.666 6.674 6.674 0 0 0 6.667 6.666 6.673 6.673 0 0 0 6.665-6.666 6.673 6.673 0 0 0-6.665-6.666m0 20.332c-7.536 0-13.667-6.13-13.667-13.666 0-7.535 6.131-13.666 13.667-13.666 7.535 0 13.665 6.131 13.665 13.666s-6.13 13.666-13.665 13.666"/><path d="M69.064 116.591h44.128v-7H69.064zm63.688-30.384H111.93a5.669 5.669 0 0 1-5.669-5.67v-9.645a5.669 5.669 0 0 1 5.669-5.67h13.957v7h-12.626v6.985h19.491v7z"/><path d="M138.744 116.591h-2.44v-7h2.44c3.387 0 5.327-1.535 5.537-1.71l.183-.16c.305-.296 1.827-1.93 1.827-4.958V92.7l-17.266-7.976-9.743-23.516H39.957a6.666 6.666 0 0 0-6.666 6.666v41.717h10.68v7H31.96a5.669 5.669 0 0 1-5.67-5.669V67.874c0-7.547 6.118-13.666 13.666-13.666h80.215a5.67 5.67 0 0 1 5.238 3.5l9.035 21.81L150 86.702a5.67 5.67 0 0 1 3.292 5.147v10.913c0 5.695-3.022 9.076-3.947 9.976l-.515.5-.234.157c-1.14.903-4.557 3.195-9.85 3.195"/><path d="M95.097 86.463h-1.331a2.834 2.834 0 0 1-2.834-2.835v-4.843a2.834 2.834 0 0 1 2.834-2.835h1.331a2.835 2.835 0 0 1 2.835 2.834v4.844a2.835 2.835 0 0 1-2.835 2.835"/></svg>