<svg xmlns="http://www.w3.org/2000/svg" role="img" viewBox="33.18 27.05 115.14 127.14"><path d="M66.752 107.474h-2.546V94.221c0-.935-.494-1.43-1.429-1.43h-1.481c-.727 0-1.222.208-1.767.703l-3.222 3.013c-.676.651-.701 1.352-.053 2.028l.676.727c.624.676 1.326.701 2.002.078l.232-.208c.313-.26.572-.832.572-.832h.053s-.027.73-.027 1.43v7.744h-2.52c-.935 0-1.43.493-1.43 1.43v1.038c0 .935.495 1.43 1.43 1.43h9.51c.936 0 1.43-.495 1.43-1.43v-1.039c0-.936-.494-1.429-1.43-1.429m9.897.052c-1.793 0-2.313-2.442-2.313-5.483 0-3.014.52-5.406 2.313-5.406 1.793 0 2.313 2.392 2.313 5.406 0 3.041-.52 5.483-2.313 5.483m0-15.046c-5.275 0-6.99 4.235-6.99 9.563 0 5.327 1.715 9.64 6.99 9.64 5.274 0 6.99-4.313 6.99-9.64 0-5.328-1.716-9.563-6.99-9.563m14.001 9.563c0-3.014.52-5.405 2.313-5.405 1.792 0 2.312 2.39 2.312 5.405 0 3.04-.52 5.483-2.312 5.483-1.793 0-2.313-2.442-2.313-5.483m9.303 0c0-5.327-1.715-9.563-6.99-9.563-5.276 0-6.991 4.236-6.991 9.563 0 5.327 1.715 9.64 6.991 9.64 5.275 0 6.99-4.313 6.99-9.64m-24.55-65.441c8.202 0 16.114 2.243 23.045 6.51a2.831 2.831 0 0 0 3.81-.774l.765-1.09a2.842 2.842 0 0 0-.823-4.047c-8.054-4.98-17.257-7.599-26.797-7.599-9.493 0-18.656 2.594-26.682 7.528a2.843 2.843 0 0 0-.834 4.044l.762 1.092a2.834 2.834 0 0 0 3.809.784c6.906-4.226 14.784-6.448 22.945-6.448"/><path d="M96.007 51.274c.952-1.334.59-3.218-.814-4.063-5.97-3.595-12.753-5.482-19.79-5.482-6.988 0-13.73 1.862-19.672 5.411-1.406.84-1.774 2.722-.828 4.06l.77 1.087c.863 1.22 2.51 1.534 3.795.775a31.249 31.249 0 0 1 15.935-4.333 31.239 31.239 0 0 1 16.034 4.392c1.283.763 2.93.453 3.797-.762l.773-1.085zM62.038 61.391l.774 1.089c.81 1.139 2.348 1.553 3.579.891a18.955 18.955 0 0 1 9.012-2.261c3.217 0 6.325.794 9.109 2.313 1.226.668 2.765.26 3.58-.873l.78-1.084c1-1.389.549-3.335-.951-4.159a25.91 25.91 0 0 0-12.518-3.197 25.917 25.917 0 0 0-12.392 3.13 2.847 2.847 0 0 0-.973 4.151m58.319 83.379l-.339-.003c-9.951-.182-18.023-8.459-17.994-18.468-.007-4.88 1.897-9.479 5.362-12.949 3.478-3.48 8.249-5.479 13.093-5.479l.396.004c10.048.221 18.129 8.605 18.014 18.691-.114 10.038-8.428 18.204-18.532 18.204zm-78.23-63.302h69.111v21.178a25.783 25.783 0 0 0-8.805 5.76c-3.808 3.812-6.246 8.617-7.082 13.814H42.127V81.468zm78.901 19.41a24.56 24.56 0 0 0-3.29.155V80.637a5.669 5.669 0 0 0-5.669-5.669H41.296a5.669 5.669 0 0 0-5.669 5.67v42.413a5.669 5.669 0 0 0 5.669 5.67h53.84c1.182 12.682 11.818 22.81 24.754 23.044l.467.005c13.92 0 25.374-11.27 25.532-25.124.158-13.905-10.994-25.465-24.861-25.769z"/><path d="M119.572 119.706h1.77c1.08 0 1.65-.57 1.65-1.65v-.75c0-1.08-.57-1.65-1.65-1.65h-1.77c-1.08 0-1.65.57-1.65 1.65v.75c0 1.08.57 1.65 1.65 1.65m1.83 1.95h-1.891c-1.079 0-1.649.57-1.649 1.649v12.15c0 1.08.57 1.65 1.649 1.65h1.891c1.08 0 1.65-.57 1.65-1.65v-12.15c0-1.079-.57-1.649-1.65-1.649"/></svg>