<svg xmlns="http://www.w3.org/2000/svg" role="img" viewBox="45.27 45.27 88.59 90.22"><path d="M62.775 102.734C57.438 97.397 54.5 90.302 54.5 82.755c0-7.547 2.938-14.643 8.275-19.98S75.208 54.5 82.755 54.5c7.546 0 14.642 2.938 19.979 8.275s8.275 12.433 8.275 19.98c0 7.547-2.938 14.642-8.275 19.979s-12.433 8.275-19.979 8.275c-7.547 0-14.643-2.938-19.98-8.275m68.622 24.902l-21.556-21.556c5.603-6.485 8.668-14.667 8.668-23.325 0-9.55-3.718-18.53-10.472-25.283C101.284 50.718 92.305 47 82.755 47c-9.551 0-18.53 3.718-25.283 10.472C50.718 64.225 47 73.205 47 82.755s3.718 18.529 10.472 25.282c6.753 6.754 15.732 10.472 25.283 10.472 7.917 0 15.437-2.562 21.625-7.284l21.714 21.714a2.835 2.835 0 0 0 4.009 0l1.294-1.294a2.835 2.835 0 0 0 0-4.009"/></svg>