<svg viewBox="0 0 200 200" xmlns="http://www.w3.org/2000/svg"><path d="M100,41.3793103 C132.375313,41.3793103 158.62069,67.6246871 158.62069,100 C158.62069,132.375313 132.375313,158.62069 100,158.62069 C67.6246871,158.62069 41.3793103,132.375313 41.3793103,100 C41.3793103,67.6246871 67.6246871,41.3793103 100,41.3793103 Z M100,51.7241379 L100,148.275862 C126.662022,148.275862 148.275862,126.662022 148.275862,100 C148.275862,73.6045978 127.092138,52.1569195 100.79833,51.7306055 L100,51.7241379 Z"/><path d="M100.862069,0 C103.616691,0 105.868381,2.15331028 106.025702,4.86849519 L106.034483,5.17241379 L106.034483,25.862069 C106.034483,28.7187142 103.718714,31.0344828 100.862069,31.0344828 C98.1074468,31.0344828 95.8557571,28.8811725 95.6984357,26.1659876 L95.6896552,25.862069 L95.6896552,5.17241379 C95.6896552,2.31576854 98.0054237,0 100.862069,0 Z"/><path d="M100.862069,168.965517 C103.616691,168.965517 105.868381,171.118828 106.025702,173.834012 L106.034483,174.137931 L106.034483,194.827586 C106.034483,197.684231 103.718714,200 100.862069,200 C98.1074468,200 95.8557571,197.84669 95.6984357,195.131505 L95.6896552,194.827586 L95.6896552,174.137931 C95.6896552,171.281286 98.0054237,168.965517 100.862069,168.965517 Z"/><path d="M0,100 C0,97.2453778 2.15331028,94.9936881 4.86849519,94.8363667 L5.17241379,94.8275862 L25.862069,94.8275862 C28.7187142,94.8275862 31.0344828,97.1433547 31.0344828,100 C31.0344828,102.754622 28.8811725,105.006312 26.1659876,105.163633 L25.862069,105.172414 L5.17241379,105.172414 C2.31576854,105.172414 0,102.856645 0,100 Z"/><path d="M168.965517,100 C168.965517,97.2453778 171.118828,94.9936881 173.834012,94.8363667 L174.137931,94.8275862 L194.827586,94.8275862 C197.684231,94.8275862 200,97.1433547 200,100 C200,102.754622 197.84669,105.006312 195.131505,105.163633 L194.827586,105.172414 L174.137931,105.172414 C171.281286,105.172414 168.965517,102.856645 168.965517,100 Z"/><path d="M30.1513908,170.710678 C28.2035788,168.762866 28.1340141,165.648061 29.9426967,163.616892 L30.1513908,163.39578 L44.7811863,148.765985 C46.8011396,146.746032 50.0761308,146.746032 52.0960841,148.765985 C54.0438961,150.713797 54.1134608,153.828602 52.3047782,155.859771 L52.0960841,156.080883 L37.4662886,170.710678 C35.4463354,172.730631 32.1713441,172.730631 30.1513908,170.710678 Z"/><path d="M149.628054,51.2340151 C147.680242,49.286203 147.610677,46.1713977 149.41936,44.140229 L149.628054,43.9191174 L164.257849,29.2893219 C166.277803,27.2693686 169.552794,27.2693686 171.572747,29.2893219 C173.520559,31.2371339 173.590124,34.3519393 171.781441,36.383108 L171.572747,36.6042196 L156.942952,51.2340151 C154.922998,53.2539683 151.648007,53.2539683 149.628054,51.2340151 Z"/><path d="M171.572747,170.710678 C169.624935,172.65849 166.51013,172.728055 164.478961,170.919372 L164.257849,170.710678 L149.628054,156.080883 C147.608101,154.060929 147.608101,150.785938 149.628054,148.765985 C151.575866,146.818173 154.690671,146.748608 156.72184,148.557291 L156.942952,148.765985 L171.572747,163.39578 C173.5927,165.415734 173.5927,168.690725 171.572747,170.710678 Z"/><path d="M52.0960841,51.2340151 C50.148272,53.1818271 47.0334667,53.2513919 45.002298,51.4427092 L44.7811863,51.2340151 L30.1513908,36.6042196 C28.1314376,34.5842664 28.1314376,31.3092751 30.1513908,29.2893219 C32.0992029,27.3415098 35.2140082,27.2719451 37.2451769,29.0806277 L37.4662886,29.2893219 L52.0960841,43.9191174 C54.1160373,45.9390706 54.1160373,49.2140619 52.0960841,51.2340151 Z"/></svg>