<svg viewBox="0 0 200 200" xmlns="http://www.w3.org/2000/svg" xmlns:svg="http://www.w3.org/2000/svg">
    <path d="M52.6220251,0.000572891398 C46.9025079,0.0429842966 43.8150839,2.75459423 42.3359607,4.70653341 C39.7007584,8.17619854 39.2338939,13.308395 41.2483829,16.6514315 C42.67445,19.0232445 50.1833974,33.9947071 54.5402316,42.7143118 C56.4684675,46.578505 60.4061768,49 64.7189813,49 L118.275513,49 C122.587917,49 126.525626,46.5763854 128.454263,42.7143118 C132.810797,33.9925886 140.319945,19.0295052 141.746103,16.6595099 C143.772737,13.2943588 143.302763,8.29303214 140.625337,4.76510158 C138.63492,2.14417158 133.799788,-1.82786834 123.738982,0.978360058 C120.400825,1.90969644 97.4782359,6.65423124 91.5107841,7.88285219 C79.4856427,5.36684007 61.0166611,1.46326505 59.2575194,0.978360058 C56.7267214,0.271804571 54.5307038,-0.0132613279 52.6241312,0.00047192172 L52.6220251,0.000572891398 Z M53.5103467,12.0147319 C54.2461825,12.0573365 55.2261672,12.2125851 56.4745512,12.5604028 C56.7007036,12.6253396 82.3752693,17.9344305 90.3087956,19.573779 C91.8359858,19.8919693 93.3970647,19.8876074 94.9262835,19.573779 C102.154306,18.0823646 124.020577,13.5486596 127.566203,12.5604028 C130.271157,11.8066287 131.557568,12.0216304 132,12.1734201 C129.208186,17.1737559 122.114614,31.3815186 118.824203,38 L65.2090954,38 C61.9061671,31.3522981 54.7668993,17.0538268 52,12.1064541 C52.2808771,12.0334002 52.7754692,11.9688693 53.5112546,12.0161514 L53.5103467,12.0147319 Z M58.9681401,60 C55.9818925,60 53.1203565,61.1531404 50.9887139,63.2270312 C45.0947409,68.9582652 32.9939117,81.1128976 27.1499447,89.7221248 C14.7510922,107.990801 6.27231708,127.419936 1.95661806,147.457368 C0.0442740394,156.326335 -0.461901946,164.468363 0.418910641,172.352065 C1.86283241,185.301481 9.14228773,193.470777 22.6701698,197.328935 C28.5983832,199.029445 53.4343442,200 91.5004693,200 C129.569593,200 154.408465,199.029445 160.330744,197.328935 C173.858234,193.470265 181.138081,185.301481 182.582003,172.352065 C183.460807,164.468774 182.956529,156.325133 181.044296,147.457368 C176.730926,127.417931 168.250836,107.988797 155.850991,89.7221248 C150.009232,81.112598 137.898361,68.958165 132.004168,63.2270312 C129.870637,61.1531404 127.019323,60 124.033096,60 L58.9672364,60 L58.9681401,60 Z M58.9557974,72.0001593 L124.036299,72.0001593 C131.988418,78.5052013 139.154439,86.5202526 145.890925,96.4373899 C157.437341,113.422737 165.316497,131.431858 169.309355,149.96289 C170.947689,157.553497 171.391696,164.441911 170.657044,171.024285 C169.751332,179.129882 165.935173,183.270437 157.055433,185.80081 L156.36494,186.051333 C156.318509,186.051333 145.340127,188 91.5005078,188 C37.8045976,188 27.3033986,186.118459 26.1536835,185.868817 L25.9458293,185.800599 C17.0638833,183.270377 13.2497247,179.129622 12.3442215,171.024115 C11.6076009,164.44134 12.051607,157.554849 13.6919208,149.96273 C17.6850712,131.434703 25.556901,113.421585 37.1022906,96.4372286 C43.8407877,86.5199922 51.0064071,78.5052413 58.956928,72 L58.9557974,72.0001593 Z" id="Shape"></path>
    <path d="M118.759277,105.482735 C115.587115,105.327312 114.949914,108.741284 115.228975,111.220215 C115.080606,112.365361 115.856604,114.443386 113.994717,113.859238 C101.07004,113.896656 88.1380323,113.784287 75.2180979,113.915612 C72.432016,114.554197 73.1765378,117.748648 73.0811172,119.873278 C72.7618702,121.944514 73.5942668,124.720001 76.1874379,124.370574 L115.229234,124.370574 C115.414065,126.666741 114.746655,129.162903 115.835907,131.271215 C117.438998,133.683872 120.71085,132.754735 122.125557,130.675883 C125.326954,127.443357 128.575176,124.256521 131.746088,120.994186 C133.452016,118.576742 131.061199,116.401156 129.406754,114.852885 C126.448846,111.941718 123.594422,108.908709 120.563213,106.077175 C120.032859,105.713387 119.403334,105.501033 118.760873,105.482322 L118.759277,105.482735 Z" id="Path"></path>
    <path d="M60.3392845,135.624701 C57.7482121,135.994725 56.3852024,138.57539 54.4925788,140.144515 C52.1269502,142.563551 49.6331864,144.865566 47.3533118,147.363062 C45.7043261,149.732805 47.8455457,151.95861 49.5557966,153.454684 C52.6904517,156.416755 55.5853061,159.67354 58.882674,162.435889 C61.532209,163.922831 64.5047551,161.13417 63.869253,158.353602 L63.869253,154.490251 C77.2040189,154.453033 90.5465454,154.5648 103.876569,154.434186 C106.662388,153.799101 105.917936,150.622162 106.013305,148.509179 C106.318367,146.419869 105.592071,143.578237 102.907277,143.941761 L63.8691668,143.941761 C63.6904631,141.637668 64.352476,139.135888 63.2267664,137.030478 C62.5722941,136.121669 61.4535258,135.584129 60.3391983,135.624463 L60.3392845,135.624701 Z" id="Path"></path>        
</svg>