<svg viewBox="0 0 200 200" xmlns="http://www.w3.org/2000/svg" xmlns:svg="http://www.w3.org/2000/svg">
    <path d="M52.6220251,0.000572891398 C46.9025079,0.0429842966 43.8150839,2.75459423 42.3359607,4.70653341 C39.7007584,8.17619854 39.2338939,13.308395 41.2483829,16.6514315 C42.67445,19.0232445 50.1833974,33.9947071 54.5402316,42.7143118 C56.4684675,46.578505 60.4061768,49 64.7189813,49 L118.275513,49 C122.587917,49 126.525626,46.5763854 128.454263,42.7143118 C132.810797,33.9925886 140.319945,19.0295052 141.746103,16.6595099 C143.772737,13.2943588 143.302763,8.29303214 140.625337,4.76510158 C138.63492,2.14417158 133.799788,-1.82786834 123.738982,0.978360058 C120.400825,1.90969644 97.4782359,6.65423124 91.5107841,7.88285219 C79.4856427,5.36684007 61.0166611,1.46326505 59.2575194,0.978360058 C56.7267214,0.271804571 54.5307038,-0.0132613279 52.6241312,0.00047192172 L52.6220251,0.000572891398 Z M53.5103467,12.0147319 C54.2461825,12.0573365 55.2261672,12.2125851 56.4745512,12.5604028 C56.7007036,12.6253396 82.3752693,17.9344305 90.3087956,19.573779 C91.8359858,19.8919693 93.3970647,19.8876074 94.9262835,19.573779 C102.154306,18.0823646 124.020577,13.5486596 127.566203,12.5604028 C130.271157,11.8066287 131.557568,12.0216304 132,12.1734201 C129.208186,17.1737559 122.114614,31.3815186 118.824203,38 L65.2090954,38 C61.9061671,31.3522981 54.7668993,17.0538268 52,12.1064541 C52.2808771,12.0334002 52.7754692,11.9688693 53.5112546,12.0161514 L53.5103467,12.0147319 Z M58.9681401,60 C55.9818925,60 53.1203565,61.1531404 50.9887139,63.2270312 C45.0947409,68.9582652 32.9939117,81.1128976 27.1499447,89.7221248 C14.7510922,107.990801 6.27231708,127.419936 1.95661806,147.457368 C0.0442740394,156.326335 -0.461901946,164.468363 0.418910641,172.352065 C1.86283241,185.301481 9.14228773,193.470777 22.6701698,197.328935 C28.5983832,199.029445 53.4343442,200 91.5004693,200 C129.569593,200 154.408465,199.029445 160.330744,197.328935 C173.858234,193.470265 181.138081,185.301481 182.582003,172.352065 C183.460807,164.468774 182.956529,156.325133 181.044296,147.457368 C176.730926,127.417931 168.250836,107.988797 155.850991,89.7221248 C150.009232,81.112598 137.898361,68.958165 132.004168,63.2270312 C129.870637,61.1531404 127.019323,60 124.033096,60 L58.9672364,60 L58.9681401,60 Z M58.9557974,72.0001593 L124.036299,72.0001593 C131.988418,78.5052013 139.154439,86.5202526 145.890925,96.4373899 C157.437341,113.422737 165.316497,131.431858 169.309355,149.96289 C170.947689,157.553497 171.391696,164.441911 170.657044,171.024285 C169.751332,179.129882 165.935173,183.270437 157.055433,185.80081 L156.36494,186.051333 C156.318509,186.051333 145.340127,188 91.5005078,188 C37.8045976,188 27.3033986,186.118459 26.1536835,185.868817 L25.9458293,185.800599 C17.0638833,183.270377 13.2497247,179.129622 12.3442215,171.024115 C11.6076009,164.44134 12.051607,157.554849 13.6919208,149.96273 C17.6850712,131.434703 25.556901,113.421585 37.1022906,96.4372286 C43.8407877,86.5199922 51.0064071,78.5052413 58.956928,72 L58.9557974,72.0001593 Z" id="Shape" fill="#000000" fill-rule="nonzero"></path>
    <path d="M58.5299039,154.099175 C57.0898232,153.025247 56.9526727,151.615717 57.9813018,150.206188 L59.3528071,148.125454 C60.3814362,146.581683 61.6843663,146.514562 63.2615975,147.521369 C65.0445545,148.729538 68.1304417,150.54179 72.0392321,150.54179 C77.113802,150.54179 80.8168666,147.521369 80.8168666,143.427021 C80.8168666,138.392987 76.085173,136.043771 70.3934256,136.043771 L69.3647965,136.043771 C67.7875653,136.043771 66.8960868,135.506807 66.2103341,134.097277 L65.936033,133.560314 C65.3188556,132.352145 65.5245814,131.076857 66.5532105,129.935809 L74.0279149,121.277269 C75.8794472,119.062294 77.5252536,117.652764 77.5252536,117.652764 L77.5252536,117.518523 C77.5252536,117.518523 76.0165977,117.719885 73.2050116,117.719885 L61.4786405,117.719885 C59.6271082,117.719885 58.6670544,116.780198 58.6670544,114.967946 L58.6670544,113.088573 C58.6670544,111.276321 59.6271082,110.269514 61.4786405,110.269514 L85.4799849,110.269514 C87.4000925,110.269514 88.3601463,111.2092 88.3601463,113.021453 L88.3601463,113.759778 C88.3601463,115.169307 88.0172699,116.176114 87.0572162,117.182921 L76.4280493,129.197484 C83.217001,130.13717 89.7316517,134.835602 89.7316517,143.091419 C89.7316517,151.212995 83.4913021,158.730486 72.5878342,158.730486 C65.7988825,158.730486 60.9300384,155.844306 58.5299039,154.099175 Z" id="Path" fill="#262626"></path>
    <path d="M96.2155955,154.778203 L96.2155955,152.912569 C96.2155955,151.113565 97.1663204,150.180749 98.9998613,150.180749 L106.67357,150.180749 L106.67357,123.928617 C106.67357,122.329503 106.741478,120.730388 106.741478,120.730388 L106.605661,120.730388 C106.605661,120.730388 105.99448,121.996354 104.77212,123.12906 L102.666943,125.127953 C101.308765,126.327289 99.9505862,126.327289 98.7282256,124.994694 L97.4379561,123.662098 C96.1476866,122.396133 96.2155955,120.996907 97.5058651,119.730942 L106.062389,111.668739 C107.148932,110.735922 108.167566,110.269514 109.593653,110.269514 L112.445828,110.269514 C114.279369,110.269514 115.230094,111.26896 115.230094,113.067964 L115.230094,150.180749 L122.835893,150.180749 C124.669434,150.180749 125.688068,151.113565 125.688068,152.912569 L125.688068,154.778203 C125.688068,156.643837 124.669434,157.576654 122.835893,157.576654 L98.9998613,157.576654 C97.1663204,157.576654 96.2155955,156.643837 96.2155955,154.778203 Z" id="Path" fill="#262626"></path>
</svg>