<svg xmlns="http://www.w3.org/2000/svg" width="200" height="200" viewBox="0 0 200 200">
  <g fill="none" fill-rule="evenodd" stroke="#005AA4" stroke-width="16.364" transform="translate(10 10)">
    <path stroke-linecap="round" stroke-linejoin="round" d="M155.454546,65.4545454 L155.454546,163.636364 C155.454546,172.673751 148.128296,180 139.09091,180 L40.909091,180 C31.8717041,180 24.5454546,172.673751 24.5454546,163.636364 L24.5454546,65.4545454 M0,32.7272728 L180,32.7272728"/>
    <path stroke-linecap="square" d="M90,90 L90,139.09091 M57.2727272,90 L57.2727272,139.09091 M122.727272,90 L122.727272,139.09091 M57.2727272,32.7272728 L57.2727272,16.3636364 C57.2727272,7.32624955 64.5989768,1.66014103e-15 73.6363636,0 L106.363636,0 C115.401023,6.36667091e-15 122.727272,7.32624955 122.727272,16.3636364 L122.727272,32.7272728"/>
  </g>
</svg>
