<svg xmlns="http://www.w3.org/2000/svg" viewBox="0 0 243.605 55.381">
  <defs>
    <clipPath id="a">
      <path d="M0 0h243.605v55.381H0z"/>
    </clipPath>
  </defs>
  <g clip-path="url(#a)">
    <path d="M0 0h243.605v55.381H0V0z" fill="none"/>
    <path d="M10.265 30.757c-4.852 0-8.696-1.119-9.406-1.344-.373-.149-.56-.448-.56-.783v-.186l.485-2.464c.075-.373.336-.485.634-.485.075 0 .15 0 .262.037.784.149 4.591 1.232 8.174 1.232 3.061 0 5.786-.896 5.786-4.069 0-3.21-2.799-3.545-6.42-4.069C5.188 18.029 0 16.946 0 10.601 0 4.07 4.852 2.352 10.599 2.352c4.367 0 7.988 1.045 8.809 1.269.448.112.673.411.673.784v.186l-.523 2.426c-.038.262-.298.523-.598.523-.038 0-.074-.037-.112-.037-1.791-.374-4.554-1.12-7.838-1.12-2.762 0-5.673.523-5.673 3.658 0 3.098 3.135 3.546 6.456 4.032 4.367.672 9.331 1.306 9.331 8.249.003 6.531-5.297 8.435-10.859 8.435zm47.425-.447c-1.307.298-3.098.522-5.188.522-4.032 0-8.995-.41-8.995-6.346 0-4.814 3.023-5.336 6.009-5.822l6.644-1.082v-1.194c0-1.046-.113-1.792-1.045-2.203-.598-.261-1.494-.373-2.837-.373-2.539 0-5.3.747-6.42 1.045-.112 0-.187.038-.262.038-.186 0-.373-.075-.411-.336l-.521-2.314v-.149c0-.337.261-.485.448-.561.894-.335 4.329-1.269 8.136-1.269 2.651 0 4.442.374 5.636 1.046 1.903 1.044 2.277 2.799 2.277 4.813v10.303c0 2.8-.933 3.285-3.471 3.882zm-1.53-9.48l-4.628.746c-1.531.223-2.949.447-2.949 2.873 0 2.911 2.351 3.136 4.144 3.136 1.455 0 2.649-.261 3.433-.523V20.83zm18.318-6.719c-2.277 0-4.219.224-5.263.484v15.191c0 .337-.224.561-.561.561h-3.806c-.224 0-.634-.224-.634-.561V13.663c0-1.456.857-1.905 2.649-2.426 1.642-.523 4.293-.896 6.42-.934h.634c.523 0 .523 0 .784.112.149.075.335.224.335.597v2.426c.001.374-.036.673-.558.673zm19.535 7.875c0 .411-.224.859-.784.859H80.726c0 1.717.485 2.65 1.493 3.433.971.783 2.389 1.12 4.404 1.12 2.315 0 4.068-.56 5.225-.896.075-.037.113-.037.187-.037.224 0 .411.15.522.523l.485 1.902c0 .037.038.113.038.188 0 .299-.187.448-.448.561-1.269.522-3.807 1.194-6.755 1.194-7.315 0-10.19-2.874-10.19-10.189 0-7.017 1.941-10.377 9.22-10.377 3.769 0 6.083.971 7.427 2.763 1.269 1.68 1.68 4.068 1.68 7.166v1.79h-.001zm-5.262-5.561c-.485-2.053-1.605-2.724-3.806-2.724-2.501 0-3.547.746-3.958 2.612-.261 1.045-.261 2.128-.298 3.36l8.36-.038c0-1.194-.038-2.202-.298-3.21zm47.723 13.885c-1.308.298-3.098.522-5.189.522-4.031 0-8.995-.41-8.995-6.346 0-4.814 3.023-5.336 6.009-5.822l6.644-1.082v-1.194c0-1.046-.113-1.792-1.046-2.203-.597-.261-1.493-.373-2.836-.373-2.539 0-5.301.747-6.421 1.045-.112 0-.188.038-.262.038-.186 0-.373-.075-.411-.336l-.521-2.314v-.149c0-.337.261-.485.447-.561.895-.335 4.33-1.269 8.137-1.269 2.65 0 4.442.374 5.636 1.046 1.903 1.044 2.276 2.799 2.276 4.813v10.303c.003 2.8-.93 3.285-3.468 3.882zm-1.53-9.48l-4.628.746c-1.532.223-2.95.447-2.95 2.873 0 2.911 2.351 3.136 4.143 3.136 1.456 0 2.65-.261 3.434-.523V20.83h.001zm24.962 9.517h-3.844c-.336 0-.598-.224-.598-.561V16.611c0-2.164-.821-2.91-2.799-2.91-2.239 0-4.666.634-4.666.634v15.452c0 .337-.224.561-.559.561h-3.808c-.374 0-.634-.224-.634-.561V13.701c0-1.419.708-1.905 2.8-2.464 1.902-.523 5.038-.971 7.426-.971 4.666 0 7.242 1.195 7.242 5.674v13.847c0 .337-.224.56-.56.56zm21.644-.336c0 .149-.149.336-.373.336h-5.003c-.187 0-.373 0-.56-.224l-5.785-7.877h-1.27v7.54c0 .337-.186.561-.559.561h-3.844c-.337 0-.599-.224-.599-.561V3.697c0-.448.188-.672.635-.784l3.657-.635h.15c.336 0 .559.225.559.635v15.975h1.27l5.897-7.876c.149-.224.299-.261.485-.261l4.553.112c.262 0 .374.186.374.335 0 .075-.037.113-.075.186l-7.054 8.884 7.465 9.554c.04.04.077.115.077.189zM33.795 10.266c-2.501 0-5.374.411-7.614 1.195-1.68.522-2.351 1.082-2.351 3.024v21.45c0 .373.292.678.831.581.539-.098 3.536-.651 3.536-.651.448-.075.635-.298.635-.746v-4.854c1.324.322 2.994.568 4.851.568 6.943 0 8.25-4.368 8.25-10.266-.001-5.934-.934-10.301-8.138-10.301zm-1.418 17.132c-2.016 0-3.546-.447-3.546-.447V14.372s2.202-.598 3.919-.598c2.837 0 4.068.635 4.068 6.682 0 5.673-1.045 6.942-4.441 6.942zm78.041 2.949H97.989c-.336 0-.635-.262-.635-.598V3.362c0-.336.299-.598.635-.598h12.466c6.312 0 8.883 2.475 8.883 6.958 0 3.956-2.197 5.372-5.599 6.346 3.776.623 6.532 2.672 6.532 7.076 0 5-3.508 7.203-9.853 7.203zm-.486-23.739h-7.204v7.987l6.942-.298c2.837-.112 4.293-1.12 4.293-3.956 0-2.613-1.268-3.733-4.031-3.733zm-.187 11.608l-7.017-.223v8.509h7.017c3.77 0 5.002-1.641 5.002-3.919 0-3.059-1.008-4.255-5.002-4.367zM168.736 52.197h-1.896c-.186 0-.286-.084-.286-.234l-.167-2.799c-.084-1.391-1.156-1.725-2.647-1.776l-2.632-.067v4.625c0 .151-.117.252-.284.252h-1.86c-.15 0-.269-.101-.269-.252V40.081c0-.15.135-.268.286-.268h5.663c2.548 0 4.106.924 4.106 3.52 0 1.854-1.298 2.744-2.799 3.103 1.592.268 2.799.766 2.916 3.179l.1 2.313c.005.183-.055.269-.231.269zm-4.478-10.658h-3.15v4.24l2.698-.118c1.526-.066 2.497-.419 2.497-2.027 0-1.424-.536-2.095-2.045-2.095zm-76.246.103h-3.854v10.306c-.139 0-.252.113-.252.252h-1.877c-.001-.148-.12-.268-.268-.268v-10.29h-3.872c0-.148-.12-.267-.268-.268v-1.308c0-.134.117-.251.268-.251h10.122c.167 0 .268.117.268.268v1.291c.001.151-.1.268-.267.268zM99.207 52.2h-8.028c-.15 0-.284-.117-.284-.268V40.083c0-.15.134-.268.284-.268h8.011c.167 0 .268.117.268.251v1.308c0 .151-.101.268-.268.268h-5.899v3.251h5.647c.151 0 .269.118.269.27v1.323c0 .134-.117.252-.269.252h-5.647v3.652h5.916c.15 0 .268.117.268.252v1.291c0 .149-.118.267-.268.267zm11.881 0h-7.776c-.15 0-.268-.101-.268-.252V40.083c0-.15.101-.217.251-.234l1.911-.252c.167-.016.251.118.251.235v10.474h5.631c.15 0 .268.116.268.268v1.358c.001.071-.027.14-.077.19-.051.051-.12.079-.191.078zm11.377 0h-8.027c-.15 0-.284-.117-.284-.268V40.083c0-.15.134-.268.284-.268h8.01c.168 0 .269.117.269.251v1.308c0 .151-.101.268-.269.268h-5.898v3.251h5.647c.151 0 .268.118.268.27v1.323c0 .134-.116.252-.268.252h-5.647v3.652h5.915c.151 0 .27.117.27.252v1.291c0 .149-.118.267-.27.267zm18.769-.268c0 .15-.151.268-.318.268h-1.776c-.185 0-.302-.117-.318-.284l-.704-10.373h-.553l-2.463 8.126c-.051.168-.168.302-.354.302h-2.278c-.201 0-.302-.134-.352-.302l-2.347-8.126h-.554l-.787 10.373c-.004.079-.04.154-.1.208-.06.053-.138.08-.218.076h-1.642c-.117 0-.335-.067-.318-.302l.973-11.781c.015-.173.161-.305.335-.302h3.854c.185 0 .301.135.352.302l2.028 7.457h.084l2.061-7.457c.033-.15.167-.302.352-.302h3.703c.168 0 .302.135.319.302l1.021 11.781v.034zm14.714.066c0 .134-.084.201-.218.201h-1.977c-.151 0-.252-.084-.303-.235l-1.391-4.39h-4.44l-1.374 4.425c-.033.117-.168.201-.286.201h-1.977c-.117 0-.217-.067-.217-.185 0-.017 0-.051.017-.117l4.006-11.865c.033-.117.184-.218.301-.218h3.587c.117 0 .268.101.301.218l3.955 11.848c.016.051.016.1.016.117zm-5.764-10.49h-.722l-1.34 4.29h3.434l-1.372-4.29zm32.591 10.34c.034.05.034.084.034.116 0 .118-.101.235-.185.235h-2.498c-.114-.002-.223-.051-.301-.135l-4.106-5.195h-.737v5.078c0 .151-.116.252-.285.252h-1.859c-.151 0-.269-.101-.269-.252V40.066c0-.15.117-.251.269-.251h1.859c.169 0 .285.101.285.251v4.944h.737l3.956-5.06c.061-.087.162-.137.268-.135l2.296.033c.101 0 .201.118.201.234-.003.044-.02.086-.05.118l-4.66 5.664 5.045 5.984z" fill="#002776"/>
    <path d="M215.913 0c-2.924 0-5.742.457-8.388 1.298 11.14-2.417 22.183 2.172 26.161 11.573 4.598 10.865-1.983 24.035-14.699 29.417-11.409 4.827-23.872 1.742-29.638-6.786 3.374 11.488 13.986 19.879 26.565 19.879 15.294 0 27.691-12.398 27.691-27.691 0-15.292-12.398-27.69-27.692-27.69z" fill="#E60000"/>
    <path d="M218.986 42.288c12.716-5.383 19.298-18.553 14.699-29.417-3.977-9.401-15.021-13.989-26.161-11.573-11.191 3.554-19.301 14.025-19.301 26.392 0 2.715.396 5.334 1.124 7.812 5.767 8.528 18.231 11.613 29.639 6.786z" fill="#AF0000"/>
    <path d="M223.012 40.205V11.772c-.002-.565-.461-1.023-1.027-1.024h-6.438c-.459 0-.718.103-1.129.256l-8.307 4.277c-.512.206-.717.512-.717 1.026v4.659c0 .548.444.99.99.99h5.317v22.353c4.013-.572 7.864-1.97 11.311-4.104z" fill="#FFF"/>
    <path d="M212.725 48.847h9.26c.566 0 1.027-.464 1.027-1.026v-7.616c-1.287.797-2.633 1.493-4.026 2.083-2.33.989-4.779 1.669-7.285 2.021v3.512c0 .562.463 1.026 1.024 1.026z" fill="none"/>
  </g>
</svg>