<svg xmlns="http://www.w3.org/2000/svg" height="20" viewBox="0 -960 960 960" width="20"><path d="m552-456 49.232 63q1.007 1 17.442 9 14.087 0 20.206-12.261 6.12-12.261-1.88-23.323l-45-60.325 46-61.33q8-10.927 1.647-22.844Q633.294-576 619-576q-5.478 0-10.084 2.455-4.606 2.454-7.677 6.545l-49.12 63v-48q0-10.4-6.817-17.2-6.817-6.8-17.243-6.8-10.425 0-17.242 6.785T504-552.054v143.677Q504-398 510.8-391q6.8 7 17.2 7 10.4 0 17.2-6.8 6.8-6.8 6.8-17.2v-48Zm-142.087-72-38 114q-4 11 3.083 20.5 7.084 9.5 19.125 9.5 7.792 0 13.363-4.333 5.572-4.334 7.429-11.667l48-144q4-12-3.091-22t-18.909-10h-103q-10.4 0-17.2 6.8-6.8 6.8-6.8 17.2 0 10.4 6.8 17.2 6.8 6.8 17.2 6.8h72ZM218.87-135.869q-34.483 0-58.742-24.259t-24.259-58.742v-522.26q0-34.483 24.259-58.742t58.742-24.259h522.26q34.483 0 58.742 24.259t24.259 58.742v522.26q0 34.483-24.259 58.742t-58.742 24.259H218.87Zm0-83.001h522.26v-522.26H218.87v522.26Zm0-522.26v522.26-522.26Z"/></svg>