<svg xmlns="http://www.w3.org/2000/svg" height="20" viewBox="0 -960 960 960" width="20"><path d="M238.196-288.587q54-37.522 115.021-55.543 61.022-18.022 126.835-18.022 65.812 0 127.141 18.38 61.329 18.381 114.611 55.424 34.283-41.239 50.805-89.924Q789.13-426.957 789.13-480q0-128.24-90.512-218.685T479.77-789.13q-128.335 0-218.618 90.445Q170.87-608.24 170.87-480q0 52.804 16.402 101.489t50.924 89.924ZM480-405.848q-60.957 0-103.435-42.358-42.478-42.359-42.478-103.316 0-60.956 42.478-103.435Q419.043-697.435 480-697.435t103.435 42.478q42.478 42.479 42.478 103.435 0 60.957-42.478 103.316Q540.957-405.848 480-405.848Zm.256 317.979q-80.93 0-152.365-30.598t-125.13-84.294q-53.696-53.695-84.294-125.109-30.598-71.413-30.598-152.608 0-81.196 30.598-152.131t84.294-124.63q53.695-53.696 125.109-84.294 71.413-30.598 152.608-30.598 81.196 0 152.131 30.598t124.63 84.294q53.696 53.695 84.294 124.874 30.598 71.18 30.598 152.109 0 80.93-30.598 152.365t-84.294 125.13q-53.695 53.696-124.874 84.294-71.18 30.598-152.109 30.598ZM480-170.87q50.804 0 97.37-15.902 46.565-15.902 88.565-46.945-43.479-26.283-89.446-39.566-45.967-13.282-96.489-13.282-50.522 0-96.87 12.782-46.347 12.783-88.826 40.066 42 31.043 88.446 46.945Q429.196-170.87 480-170.87Zm0-310.565q29.043 0 49.565-20.522 20.522-20.521 20.522-49.565 0-29.043-20.522-49.684-20.522-20.642-49.565-20.642t-49.565 20.642q-20.522 20.641-20.522 49.684 0 29.044 20.522 49.565 20.522 20.522 49.565 20.522Zm0-70.087Zm.239 317.805Z"/></svg>