<svg xmlns="http://www.w3.org/2000/svg" height="20" viewBox="0 -960 960 960" width="20"><path d="M445.913-711.587h-96q-15.3 0-25.65-10.289-10.35-10.29-10.35-25.501 0-15.21 10.35-25.71t25.65-10.5h96v-96q0-15.3 10.29-25.65 10.289-10.35 25.5-10.35 15.21 0 25.71 10.35t10.5 25.65v96h96q15.3 0 25.65 10.289 10.35 10.29 10.35 25.5 0 15.211-10.35 25.711-10.35 10.5-25.65 10.5h-96v96q0 15.3-10.289 25.65-10.29 10.35-25.5 10.35-15.211 0-25.711-10.35-10.5-10.35-10.5-25.65v-96ZM263.788-92.413Q234-92.413 213-113.625q-21-21.213-21-51 0-29.788 21.212-50.788 21.213-21 51-21 29.788 0 50.788 21.212 21 21.213 21 51 0 29.788-21.212 50.788-21.213 21-51 21Zm432 0Q666-92.413 645-113.625q-21-21.213-21-51 0-29.788 21.212-50.788 21.213-21 51-21 29.788 0 50.788 21.212 21 21.213 21 51 0 29.788-21.212 50.788-21.213 21-51 21Zm-563.94-696H84q-16.825 0-28.206-11.321-11.381-11.32-11.381-28.055t11.381-28.267Q67.176-867.587 84-867.587h71.804q12.674 0 22.513 6.811 9.84 6.811 15.509 18.298l142.652 331.065h300.044l100.891-236.261q5.717-10.717 15.364-17.315 9.646-6.598 21.282-6.598 22.623 0 33.934 17.793 11.311 17.794 2.116 37.707L708.022-477.913q-9.478 20.717-27.803 33.315Q661.894-432 638.913-432H321.065l-39.847 68.413H732q16.824 0 28.206 11.321 11.381 11.32 11.381 28.055t-11.381 28.267Q748.824-284.413 732-284.413H276q-44.391 0-66.348-38.293-21.956-38.294 0-75.207L260.935-486 131.848-788.413Z"/></svg>