<svg xmlns="http://www.w3.org/2000/svg" height="20" viewBox="0 -960 960 960" width="20"><path d="M725.696-696h12.608q13.066 0 22.218-9.152t9.152-22.218v-12.608q0-11.615-8.203-19.819Q753.267-768 741.652-768h-12.608q-13.066 0-22.218 9.152t-9.152 22.218v12.608q0 11.615 8.203 19.819Q714.081-696 725.696-696Zm-5.922 552Q640-144 584-200.226t-56-136Q528-416 584.226-472t136-56Q800-528 856-471.774t56 136Q912-256 855.774-200t-136 56Zm-27.361-164.413V-264q0 11.035 8.276 19.311T720-236.413q11.035 0 19.311-8.276T747.587-264v-44.413H792q11.035 0 19.311-8.276T819.587-336q0-11.035-8.276-19.311T792-363.587h-44.413V-408q0-11.035-8.276-19.311T720-435.587q-11.035 0-19.311 8.276T692.413-408v44.413H648q-11.035 0-19.311 8.276T620.413-336q0 11.035 8.276 19.311T648-308.413h44.413Zm224.848-201.609q-35.478-43.152-88.294-66.565Q776.152-600 720-600q-19.449 0-36.627 2.5-17.177 2.5-33.699 7.261v-34.522q0-17.478-8.308-33.701t-22.888-27.69L430.087-822.304v-22q0-29.245 21.031-50.264 21.03-21.019 50.291-21.019h332.852q34.482 0 58.741 24.259 24.259 24.258 24.259 58.741v322.565Zm-875 232.109v-305.261q0-19.745 9.195-37.579 9.196-17.834 25.348-30.508l184.826-133.5q22.196-15.913 48.62-15.913 26.424 0 48.311 15.738l188.156 136.545q14.24 11.239 22.598 27.19 8.359 15.951 8.359 33.484v30q-57.957 33.239-89.815 94.88Q456-401.196 456-336q0 22.967 5.598 50.918 5.598 27.952 14.315 48.669h-40.326q-17.452 0-29.476-12.024-12.024-12.024-12.024-29.476v-162.609q0-12.761-9.152-21.913-9.152-9.152-21.913-9.152h-105.87q-12.761 0-21.913 9.152-9.152 9.152-9.152 21.913v162.609q0 17.452-12.005 29.476-12.004 12.024-29.427 12.024H84.032q-17.423 0-29.597-12.024-12.174-12.024-12.174-29.476Z"/></svg>