<svg xmlns="http://www.w3.org/2000/svg" height="20" viewBox="0 -960 960 960" width="20"><path d="M217.435-135.869q-34.483 0-58.742-24.259-24.258-24.259-24.258-58.742v-522.26q0-34.483 24.258-58.742 24.259-24.259 58.742-24.259h260.537q16.832 0 29.006 11.964 12.174 11.963 12.174 29.326t-12.024 29.537q-12.024 12.174-29.476 12.174H217.435v522.26h522.261v-260.537q0-16.832 11.963-29.006t29.326-12.174q17.363 0 29.537 12.024t12.174 29.476v260.217q0 34.483-24.259 58.742t-58.741 24.259H217.435Zm456.95-539.718h-37.794q-16.063 0-27.044-10.9-10.982-10.9-10.982-27.013t10.934-27.013q10.933-10.9 27.096-10.9h37.79v-37.678q0-16.014 10.934-26.961Q696.252-827 712.276-827q16.023 0 26.863 10.9 10.839 10.9 10.839 27.013v37.674h37.468q15.924 0 27.022 10.839 11.097 10.84 11.097 26.863 0 16.024-10.9 26.957-10.9 10.934-27.013 10.934h-37.674v37.795q0 16.062-10.9 27.044Q728.178-600 712.065-600q-15.813 0-26.746-10.9-10.934-10.9-10.934-27.013v-37.674ZM442.565-336l-55.848-73.891q-6.206-9.196-16.152-9.196-9.945 0-16.152 9.196l-66.318 88.612q-8.138 10.409-2.291 21.844Q291.652-288 304.065-288h349.194q12.719 0 18.317-11.435 5.598-11.435-2.359-21.869l-102.5-136.587q-6.206-9.196-16.152-9.196-9.945 0-16.152 9.196L442.565-336Zm36-144Z"/></svg>