<svg xmlns="http://www.w3.org/2000/svg" height="20" viewBox="0 -960 960 960" width="20"><path d="M479.972-351.869q53.376 0 90.767-37.364 37.392-37.363 37.392-90.739 0-53.376-37.364-90.767-37.363-37.392-90.739-37.392-53.376 0-90.767 37.364-37.392 37.363-37.392 90.739 0 53.376 37.364 90.767 37.363 37.392 90.739 37.392Zm.304 264q-81.189 0-152.621-30.618-71.432-30.618-124.991-84.177-53.559-53.559-84.177-124.949-30.618-71.391-30.618-152.845 0-81.455 30.618-152.387t84.177-124.491q53.559-53.559 124.949-84.177 71.391-30.618 152.845-30.618 81.455 0 152.387 30.618t124.491 84.177q53.559 53.559 84.177 124.716 30.618 71.156 30.618 152.344 0 81.189-30.618 152.621-30.618 71.432-84.177 124.991-53.559 53.559-124.716 84.177-71.156 30.618-152.344 30.618Z"/></svg>