<svg xmlns="http://www.w3.org/2000/svg" height="20" viewBox="0 -960 960 960" width="20"><path d="M611.065-116.413q-35.717 0-59.456-30.598-23.74-30.598-13.74-64.076L591.587-398H329q-41.716 0-71.065-29.348-29.348-29.349-29.348-71.065v-349h255v241.826H669.63q35.977 0 61.739 25.761 25.761 25.762 25.761 61.739l-79.717 274.804h52.369q27.632 0 46.534 17.548 18.901 17.547 18.901 45.956 0 28.409-18.006 45.888-18.007 17.478-45.429 17.478H611.065ZM200.174-272.587q-37.783 0-66.392-28.609-28.608-28.608-28.608-65.987v-434.612q0-18.227 13.576-31.923 13.576-13.695 32.011-13.695 18.434 0 32.13 13.695 13.696 13.696 13.696 31.908V-364h230.81q18.038 0 31.614 13.576t13.576 32.011q0 18.435-13.576 32.131-13.576 13.695-31.614 13.695H200.174Z"/></svg>