<svg xmlns="http://www.w3.org/2000/svg" height="20" viewBox="0 -960 960 960" width="20"><path d="M268.479-266.87h400.782l78.717-426.26H557.587L268.479-266.87Zm-134.898 50.695 356.226-523.392q11.367-17.455 29.544-27.009 18.178-9.555 38.952-9.555h189.895q39.041 0 64.009 29.827 24.967 29.826 17.758 68.208l-84.552 460.683q-2.239 15.152-14.235 24.348-11.997 9.196-27.265 9.196H150.359q-12.55 0-18.302-10.935-5.753-10.935 1.524-21.371Zm441.082-181.26q36.641 0 62.663-25.861T663.348-486q0-36.043-26.022-62.304-26.022-26.261-63.163-26.261t-62.543 26.261q-25.402 26.261-25.402 62.804 0 36.543 25.502 62.304 25.502 25.761 62.943 25.761ZM268.479-266.87H669.13 268.479Z"/></svg>