<svg xmlns="http://www.w3.org/2000/svg" height="20" viewBox="0 -960 960 960" width="20"><path d="M322.557-696q-36.187 0-61.764-25.824-25.576-25.824-25.576-62.011t25.824-61.883q25.824-25.695 62.011-25.695t61.883 25.943q25.695 25.944 25.695 62.131t-25.943 61.763Q358.744-696 322.557-696Zm213.856 511.413H300.196q-30.544 0-52.098-17.554-21.555-17.555-27.511-47.859l-75.044-374.696q-3.239-18.674 8.715-32.989Q166.213-672 185.579-672q13.986 0 24.943 8.837 10.956 8.837 13.195 23.272L301-264h235.413q16.735 0 28.161 11.366Q576-241.269 576-224.623q0 16.645-11.426 28.341-11.426 11.695-28.161 11.695ZM727.935-186l-72-126H422q-34 0-60-21t-34-54l-38.804-178.5q-8.239-41.152 14.521-74.326Q326.478-673 369.304-673q31.566 0 57.337 19.12 25.772 19.119 33.49 52.228l43.087 190.065h166.195q21.31 0 37.731 10.217Q723.565-391.152 735-372l79.804 136.326q10.479 17.717 4.881 38.154-5.598 20.437-23.598 30.477-17.717 10.239-37.915 4.521-20.198-5.717-30.237-23.478Z"/></svg>