<svg xmlns="http://www.w3.org/2000/svg" height="20" viewBox="0 -960 960 960" width="20"><path d="M442.339-394.087v68.174q0 16.113 10.924 27.013 10.924 10.9 26.971 10.9t26.902-10.9q10.855-10.9 10.855-27.013v-68.174h67.862q16.047 0 27.097-10.839Q624-415.766 624-431.789q0-16.024-10.9-26.948t-27.013-10.924h-68.174v-68.342q0-16.149-10.9-27.073T480-576q-16.113 0-27.013 10.924-10.9 10.924-10.9 27.073v68.342h-68.174q-16.113 0-27.013 10.924Q336-447.813 336-432q0 16.113 10.924 27.013 10.924 10.9 27.073 10.9h68.342ZM480-87.869q-71.435 0-134.123-27.198-62.687-27.198-109.15-73.66-46.462-46.463-73.66-109.15Q135.869-360.565 135.869-432q0-71.435 27.198-134.123 27.198-62.687 73.66-109.15 46.463-46.462 109.15-73.66Q408.565-776.131 480-776.131q71.435 0 134.123 27.198 62.687 27.198 109.15 73.66 46.462 46.463 73.66 109.15Q824.131-503.435 824.131-432q0 71.435-27.198 134.123-27.198 62.687-73.66 109.15-46.463 46.462-109.15 73.66Q551.435-87.869 480-87.869ZM84.152-652.152q-11.717-11.718-11.598-26.935.12-15.217 11.837-26.935l122.826-122.826q11.718-11.717 26.816-11.717 15.097 0 26.815 11.717 11.717 11.717 11.717 26.935 0 15.217-11.717 26.935L137.022-651.152q-11.718 11.717-26.435 11.217-14.718-.5-26.435-12.217Zm792.696 0q-11.717 11.717-26.935 11.717-15.217 0-26.935-11.717L700.152-774.978q-11.717-11.718-11.717-26.935 0-15.218 11.717-26.935 11.718-11.717 26.935-11.598 15.217.12 26.935 11.837l122.826 123.826q11.717 11.718 11.717 26.316 0 14.597-11.717 26.315Z"/></svg>