<svg xmlns="http://www.w3.org/2000/svg" height="20" viewBox="0 -960 960 960" width="20"><path d="M216.599-258.5q-92.751 0-157.425-64.443T-5.5-479.769q0-92.383 64.678-157.057Q123.856-701.5 216.576-701.5q37.381 0 71.837 12.859 34.457 12.858 62.174 37.576l75.891 67.652L364.348-528l-67.935-60.935q-16.283-14.282-36.337-21.924-20.054-7.641-41.838-7.641-58.432 0-99.585 40.414Q77.5-537.672 77.5-479.912q0 57.76 41.153 98.586t99.585 40.826q21.784 0 41.838-7.641 20.054-7.642 36.337-21.924l313-281q27.717-23.718 62.151-37.076 34.433-13.359 71.821-13.359 92.736 0 157.426 64.622Q965.5-572.255 965.5-480q0 93.152-65.092 157.326Q835.316-258.5 742-258.5q-37.252 0-71.561-12.859-34.309-12.858-62.026-37.576l-76.891-68.652L595.652-432l67.935 60.935q16.283 14.282 36.337 21.924 20.054 7.641 41.838 7.641 58.432 0 99.585-40.414 41.153-40.414 41.153-98.174 0-57.76-41.153-98.586T741.762-619.5q-21.784 0-41.838 7.641-20.054 7.642-36.337 21.924l-312.76 280.921q-27.957 24.797-62.396 37.655-34.439 12.859-71.832 12.859Z"/></svg>