<svg xmlns="http://www.w3.org/2000/svg" height="20" viewBox="0 -960 960 960" width="20"><path d="M325.645-480q-15.21 0-25.71 10.35t-10.5 25.65v120q0 15.3 10.289 25.65 10.29 10.35 25.5 10.35 15.211 0 25.711-10.35 10.5-10.35 10.5-25.65v-120q0-15.3-10.29-25.65-10.289-10.35-25.5-10.35Zm309.131-192q-15.211 0-25.711 10.35-10.5 10.35-10.5 25.65v312q0 15.3 10.29 25.65 10.289 10.35 25.5 10.35 15.21 0 25.71-10.35t10.5-25.65v-312q0-15.3-10.289-25.65-10.29-10.35-25.5-10.35ZM480.211-432Q465-432 454.5-421.65 444-411.3 444-396v72q0 15.3 10.289 25.65 10.29 10.35 25.5 10.35Q495-288 505.5-298.35 516-308.7 516-324v-72q0-15.3-10.289-25.65-10.29-10.35-25.5-10.35ZM218.87-135.869q-34.483 0-58.742-24.259t-24.259-58.742v-522.26q0-34.483 24.259-58.742t58.742-24.259h522.26q34.483 0 58.742 24.259t24.259 58.742v522.26q0 34.483-24.259 58.742t-58.742 24.259H218.87Zm0-83.001h522.26v-522.26H218.87v522.26Zm0-522.26v522.26-522.26ZM479.789-480Q495-480 505.5-490.289q10.5-10.29 10.5-25.5Q516-531 505.711-541.5q-10.29-10.5-25.5-10.5Q465-552 454.5-541.711q-10.5 10.29-10.5 25.5Q444-501 454.289-490.5q10.29 10.5 25.5 10.5Z"/></svg>