<svg xmlns="http://www.w3.org/2000/svg" height="20" viewBox="0 -960 960 960" width="20"><path d="m231.869-231.869-73.317 73.317q-19.748 19.748-45.215 8.981-25.468-10.766-25.468-38.451V-789.13q0-34.483 24.259-58.742t58.742-24.259h618.26q34.483 0 58.742 24.259t24.259 58.742v474.26q0 34.483-24.259 58.742t-58.742 24.259H231.869Zm211.92-163.653q1.735 15 13.267 24.515 11.531 9.515 26.531 7.87 15-1.646 24.679-13.222 9.68-11.576 7.945-26.576-1.735-15-13.267-24.679-11.531-9.679-26.531-7.944-15 1.645-24.679 13.341-9.68 11.695-7.945 26.695Zm36-82.565q16.024 0 27.074-10.9T517.913-516v-190.087q0-16.113-10.839-27.013-10.84-10.9-26.863-10.9-16.024 0-27.074 10.9t-11.05 27.013V-516q0 16.113 10.839 27.013 10.84 10.9 26.863 10.9Z"/></svg>