<svg xmlns="http://www.w3.org/2000/svg" height="20" viewBox="0 -960 960 960" width="20"><path d="M438.5-473.565v104.72q0 17.331 11.963 29.273 11.964 11.942 29.326 11.942 17.363 0 29.537-11.942t12.174-29.273v-104.72l26.261 26.261q12.674 12.674 29.326 12.674t29.446-12.674q12.793-12.674 12.793-29.207 0-16.532-12.913-29.446l-97.725-97.725q-12.492-12.296-28.848-12.296-16.356 0-28.666 12.434l-97.587 97.587q-12.913 12.674-12.413 28.827.5 16.152 13.293 28.826 12.794 12.674 29.446 12.674t29.326-12.674l25.261-25.261Zm41.776 385.696q-81.189 0-152.621-30.618-71.432-30.618-124.991-84.177-53.559-53.559-84.177-124.949-30.618-71.391-30.618-152.845 0-81.455 30.618-152.387t84.177-124.491q53.559-53.559 124.949-84.177 71.391-30.618 152.845-30.618 81.455 0 152.387 30.618t124.491 84.177q53.559 53.559 84.177 124.716 30.618 71.156 30.618 152.344 0 81.189-30.618 152.621-30.618 71.432-84.177 124.991-53.559 53.559-124.716 84.177-71.156 30.618-152.344 30.618Z"/></svg>