<svg xmlns="http://www.w3.org/2000/svg" height="20" viewBox="0 -960 960 960" width="20"><path d="m694.71-708.026-62.493-29.3q-12.674-5.695-12.674-18.5t12.674-18.522l62.944-29.088 28.774-63.63q5.694-12.674 18.499-12.674t18.055 12.517l29.31 63.737 64.114 29.138q12.674 5.717 12.554 18.63-.119 12.913-12.635 18.164l-63.724 29.009-28.912 63.936q-5.718 12.674-18.631 12.794-12.913.119-18.225-12.384l-29.63-63.827Zm.458 551.272-63.951-29.137q-12.674-5.694-12.674-18.499t12.516-18.056l63.738-29.309 29.138-64.114q5.717-12.674 18.63-12.555 12.913.12 18.163 12.636l29.01 63.724 63.936 28.912q12.674 5.717 12.793 18.631.12 12.913-12.396 18.163l-63.902 29.234-29.212 63.95q-5.695 12.674-18.5 12.674t-18.055-12.516l-29.234-63.738ZM297.861-413.87h118.131l18.684 52.257q3.737 10.265 12.337 16.146 8.6 5.88 19.111 5.88 16.811 0 26.811-13.761t4-30.761l-95.31-265.466q-3.973-10.903-12.573-16.784-8.601-5.88-18.922-5.88h-24.531q-11.322 0-20.284 5.933-8.961 5.933-12.945 16.828l-94.805 266.369q-6 17 3.951 30.261t26.862 13.261q10.615 0 19.244-6.164 8.63-6.165 12.465-16.597l17.774-51.522Zm16.748-49.282 42.521-134.805 42.522 134.805h-85.043ZM357.13-242.87q98.805 0 167.848-69.163Q594.022-381.196 594.022-480q0-98.804-69.094-167.967-69.093-69.163-167.798-69.163-98.804 0-167.967 69.163Q120-578.804 120-480q0 98.804 69.163 167.967 69.163 69.163 167.967 69.163Zm0 79.174q-131.674 0-224.108-92.315Q40.587-348.326 40.587-480t92.435-223.989q92.434-92.315 224.108-92.315t223.99 92.315Q673.435-611.674 673.435-480T581.12-256.011q-92.316 92.315-223.99 92.315Zm0-316.304Z"/></svg>