<svg xmlns="http://www.w3.org/2000/svg" height="20" viewBox="0 -960 960 960" width="20"><path d="M401.66-526.087h-42.267q-11.179 0-18.721-7.342T333.13-552q0-11.229 7.327-18.571 7.327-7.342 18.533-7.342h136.264q11.205 0 18.747 7.342T521.543-552q0 11.202-7.342 18.526-7.342 7.325-18.571 7.325h-42.5v118.015q0 11.099-7.272 18.573-7.273 7.474-18.396 7.474-11.073 0-18.437-7.342-7.365-7.342-7.365-18.571v-118.087Zm-211.573 96v22.047q0 11.005-7.273 18.479-7.273 7.474-18.395 7.474-11.123 0-18.521-7.342Q138.5-396.771 138.5-408v-144q0-11.013 7.45-18.463 7.45-7.45 18.463-7.45h96q10.911 0 18.293 7.45 7.381 7.45 7.381 18.463v144.239q0 11.126-7.273 18.4-7.273 7.274-18.395 7.274-11.123 0-18.521-7.342Q234.5-396.771 234.5-408v-22.087h-44.413Zm0-51.826H234.5v-44.174h-44.413v44.174ZM618.5-526.087v118.326q0 11.126-7.273 18.4-7.273 7.274-18.396 7.274-11.123 0-18.52-7.342-7.398-7.342-7.398-18.571v-144q0-11.013 7.381-18.463 7.381-7.45 18.293-7.45h203q11.013 0 18.463 7.45 7.45 7.45 7.45 18.463v144.239q0 11.126-7.273 18.4-7.272 7.274-18.395 7.274t-18.521-7.342q-7.398-7.342-7.398-18.571v-118.087H720v70.326q0 11.126-7.273 18.4-7.272 7.274-18.395 7.274t-18.521-7.342q-7.398-7.342-7.398-18.571v-70.087H618.5Z"/></svg>