<svg xmlns="http://www.w3.org/2000/svg" height="20" viewBox="0 -960 960 960" width="20"><path d="m386.849-436.175 28.912 63.697q5 10.282 15.043 10.282 10.044 0 14.576-10.124l29.249-63.485 63.697-29.152q10.283-5 10.283-15.043t-10.125-14.576l-63.485-29.249-29.151-63.697q-5-10.282-15.044-10.282-10.043 0-14.576 10.124l-29.009 63.485-63.936 29.152Q313-490.043 313-480t10.125 14.576l63.724 29.249ZM218.87-207.869q-34.244 0-58.622-24.379-24.379-24.378-24.379-58.622v-378.26q0-34.244 24.379-58.622 24.378-24.379 58.622-24.379h365.782q19.846 0 37.39 9.076 17.545 9.077 28.98 24.99l137.565 189.608q15.913 22.095 15.913 48.57 0 26.474-15.913 48.344L651.022-241.935q-11.239 16.27-29.109 25.168t-37.261 8.898H218.87Z"/></svg>