<svg xmlns="http://www.w3.org/2000/svg" height="20" viewBox="0 -960 960 960" width="20"><path d="m751.413-748.304-69.783-31.152q-5.717-2.479-5.717-9.196 0-6.718 5.717-9.196L751.413-830l30.913-68.783q2.478-5.717 9.196-5.717 6.717 0 9.195 5.717L831.87-830l69.782 32.152q5.718 2.478 5.718 9.196 0 6.717-5.718 9.196l-69.782 31.152-31.153 69.543q-2.478 5.718-9.195 5.718-6.718 0-9.196-5.718l-30.913-69.543Zm-473.935 0-69.783-31.152q-5.717-2.479-5.717-9.196 0-6.718 5.717-9.196L277.478-830l30.913-68.783q2.478-5.717 9.196-5.717 6.717 0 9.195 5.717L357.934-830l69.783 32.152q5.718 2.478 5.718 9.196 0 6.717-5.718 9.196l-69.783 31.152-31.152 69.543q-2.478 5.718-9.195 5.718-6.718 0-9.196-5.718l-30.913-69.543ZM751.413-278.13l-69.783-31.152q-5.717-2.478-5.717-9.196 0-6.717 5.717-9.195l69.783-31.914 30.913-68.782q2.478-5.718 9.196-5.718 6.717 0 9.195 5.718l31.153 68.782 69.782 31.914q5.718 2.478 5.718 9.195 0 6.718-5.718 9.196L831.87-278.13l-31.153 69.783q-2.478 5.717-9.195 5.717-6.718 0-9.196-5.717l-30.913-69.783ZM211.761-99.043 101.63-208.413q-15.674-15.674-15.674-37.826t15.674-37.826l420.718-420.239q15.434-15.435 37.587-15.435 22.152 0 37.587 15.435l109.609 109.891q15.674 15.674 15.674 37.946t-15.674 37.946L287.413-98.565q-15.435 15.435-37.826 15.196-22.391-.24-37.826-15.674ZM249.348-178l287.174-286.935-68.239-68.478L181.348-246l68 68Z"/></svg>