<svg xmlns="http://www.w3.org/2000/svg" height="20" viewBox="0 -960 960 960" width="20"><path d="m426.478-423.478 162.044-105.283q12-8.341 12-23.41 0-15.068-12-23.068L426.478-680.522q-14.239-9.239-28.358-1.348Q384-673.979 384-657.283v210.566q0 16.696 14.12 24.587 14.119 7.891 28.358-1.348ZM231.869-231.869l-73.317 73.317q-19.748 19.748-45.215 9.026-25.468-10.721-25.468-38.496V-789.13q0-34.483 24.259-58.742t58.742-24.259h618.26q34.483 0 58.742 24.259t24.259 58.742v474.26q0 34.483-24.259 58.742t-58.742 24.259H231.869Z"/></svg>