<svg xmlns="http://www.w3.org/2000/svg" height="20" viewBox="0 -960 960 960" width="20"><path d="M392.174-816q-16.435 0-28.011-11.696-11.576-11.695-11.576-28.13t11.695-28.011q11.696-11.576 28.131-11.576h175.413q16.435 0 28.011 11.576t11.576 28.011q0 16.435-11.576 28.13Q584.261-816 567.826-816H392.174ZM408-392.022l-34.978-63.717q-5.478-9.717-14.576-15.196-9.098-5.478-20.055-5.478H139.348q18.195-125.63 113.989-209.326Q349.13-769.435 480-769.435q58.478 0 112.935 19.5 54.456 19.5 100.695 54.739l27.24-27.239q12.434-12.435 27.75-11.815 15.315.62 27.75 12.815 12.435 12.435 12.935 27.75t-11.935 27.75l-27.239 27.239q27.76 34.761 45.641 76.142 17.88 41.38 25.119 86.141H644.522l-61.044-111.326q-10.717-20.435-33.63-20.435-22.913 0-34.87 20.435L408-392.022Zm72 310.61q-136.87 0-234.663-91.077-97.794-91.076-107.989-225.706h178.13l61.044 111.326q11.956 20.674 34.25 20.434 22.293-.239 34.25-20.674L553-482.587l34.978 63.718q5.478 9.478 14.576 15.076 9.098 5.598 20.055 5.598h200.282q-10.195 134.63-108.228 225.706Q616.63-81.413 480-81.413Z"/></svg>