<svg xmlns="http://www.w3.org/2000/svg" height="20" viewBox="0 -960 960 960" width="20"><path d="M173.806-83.087q-17.415 0-29.589-12.024t-12.174-29.476v-330.456q0-7.149 1.12-13.736 1.119-6.587 3.598-12.851l59.76-179.283q8.718-22.674 28.033-37.631 19.315-14.956 44.989-14.956 9.718 0 18.196 2.119 8.478 2.12 17.196 6.359L450.739-629.5h58.804q17.453 0 29.477 11.963 12.023 11.964 12.023 29.326 0 17.363-12.023 29.537-12.024 12.174-29.477 12.174h-58.255q-8.745 0-17.821-2.119-9.076-2.12-18.032-6.598l-77.544-39.37-50.848 151.544v318.456q0 17.452-11.998 29.476-11.999 12.024-29.414 12.024h-71.825Zm249.352-108.999q-17.441 0-29.615-11.964-12.173-11.963-12.173-29.326t12.016-29.537q12.016-12.174 29.457-12.174h363.325q17.441 0 29.615 11.964 12.174 11.963 12.174 29.326T815.94-204.26q-12.016 12.174-29.457 12.174H423.158ZM776.37-323.087q-21.435 0-36.631-15.195-15.195-15.196-15.195-36.631 0-21.435 15.195-36.511Q754.935-426.5 776.37-426.5q21.435 0 36.511 15.076 15.076 15.076 15.076 36.511 0 21.435-15.076 36.631-15.076 15.195-36.511 15.195Zm-244.075 0q-34.534 0-56.73-22.584-22.195-22.585-22.195-56.829v-16.587h-32.203q-16.645 0-28.221-11.485t-11.576-28.13q0-16.646 11.545-28.222 11.546-11.576 28.281-11.576h57.847q22.553 0 38.027 15.474T532.544-445v18.5h64.826v-32.413q0-16.735 11.365-28.161 11.366-11.426 28.011-11.426t28.221 11.426q11.577 11.426 11.577 28.161v56.413q0 34.483-22.383 56.948-22.382 22.465-56.916 22.465h-64.95Zm-199.138-424.5q-31.222 0-53.418-22.408-22.196-22.408-22.196-53.631 0-31.222 22.408-53.298T333.582-899q31.222 0 53.298 22.288 22.077 22.289 22.077 53.511 0 31.223-22.289 53.418-22.288 22.196-53.511 22.196Z"/></svg>