<svg xmlns="http://www.w3.org/2000/svg" height="20" viewBox="0 -960 960 960" width="20"><path d="M374.348-231.869q-19.391 0-36.163-7.957-16.772-7.956-29.207-23.109L176.413-428.543Q158.5-451.413 158.5-480t17.913-51.457l132.565-165.608q12.435-14.913 29.207-22.99 16.772-8.076 36.163-8.076H693.13q34.544 0 58.772 24.229 24.229 24.228 24.229 58.772v330.26q0 34.544-24.229 58.772-24.228 24.229-58.772 24.229H374.348Zm153.891-196.066 64.587 64.587q10.956 10.957 26.033 10.837 15.076-.119 26.032-11.076 10.957-10.957 10.957-26.033t-10.957-26.032L580.304-480l64.587-64.587q10.957-10.956 10.957-26.032 0-15.077-10.957-26.033-10.956-10.957-26.032-10.957-15.077 0-26.033 10.957l-64.587 64.587-64.587-64.587q-10.956-10.957-25.913-10.957-14.956 0-25.913 10.957-10.956 10.956-10.956 26.033 0 15.076 10.956 26.032L476.174-480l-64.587 64.587Q400.63-404.457 400.75-389.5q.12 14.956 11.076 25.913 10.957 10.957 26.033 10.957t26.032-10.957l64.348-64.348Z"/></svg>