<svg xmlns="http://www.w3.org/2000/svg" height="20" viewBox="0 -960 960 960" width="20"><path d="M631.696-197.556h-67.935q-17.452 0-29.476-12.048-12.024-12.048-12.024-29.434 0-17.386 12.024-29.365t29.476-11.979h67.935v-67.623q0-17.386 11.963-29.56t29.326-12.174q17.363 0 29.411 12.024 12.048 12.024 12.048 29.476v67.935h68.103q17.487 0 29.536 12.024 12.048 12.023 12.048 29.476 0 17.452-12.048 29.476-12.049 12.024-29.536 12.024h-68.103v67.934q0 17.453-12.048 29.477-12.048 12.024-29.2 12.024-17.453 0-29.477-12.049-12.023-12.048-12.023-29.535v-68.103Zm-300 109.687q-22.553 0-38.027-15.474t-15.474-38.027v-605.26q0-22.553 15.474-38.027t38.027-15.474H402.5v-18.499q0-22.553 15.474-38.027T456-872.131h48q22.552 0 38.026 15.474Q557.5-841.183 557.5-818.63v18.499h70.804q22.553 0 38.027 15.474t15.474 38.027v259.978q-2.392-.479-5.164-.598-2.771-.12-5.402-.12-103.587-.239-175.478 71.772Q423.869-343.587 423.869-240q0 43.599 13.816 82.148 13.815 38.548 38.967 69.983H331.696Z"/></svg>