<svg xmlns="http://www.w3.org/2000/svg" height="20" viewBox="0 -960 960 960" width="20"><path d="M322.283-332.413h315.434V-324q0 16.554 11.696 28.071 11.696 11.516 28.13 11.516 16.435 0 28.011-11.696 11.576-11.695 11.576-28.13v-131.849q0-22.974-13.5-41.452-13.5-18.477-34.5-26.46v-79.587q0-29.7-21.15-50.85-21.15-21.15-50.85-21.15H363.238q-30.368 0-51.368 21.15-21 21.15-21 50.85V-524q-21 8-34.5 26.5t-13.5 41.5v132q0 16.554 11.695 28.071 11.696 11.516 28.131 11.516 16.435 0 28.011-11.696 11.576-11.695 11.576-28.13v-8.174Zm0-79.174V-456h315.434v44.413H322.283Zm48-116.413v-68.413H444V-528h-73.717ZM516-528v-68.413h73.717V-528H516ZM170.87-87.87q-34.483 0-58.742-24.258-24.259-24.259-24.259-58.742v-618.26q0-34.483 24.259-58.742t58.742-24.259h618.26q34.483 0 58.742 24.259t24.259 58.742v618.26q0 34.483-24.259 58.742T789.13-87.869H170.87Z"/></svg>