<svg xmlns="http://www.w3.org/2000/svg" height="20" viewBox="0 -960 960 960" width="20"><path d="M139.696-128.695q-42.79 0-72.743-29.884Q37-188.462 37-231.152v-497.696q0-42.69 29.953-72.574 29.953-29.883 72.743-29.883H480q42.79 0 72.743 29.883 29.953 29.884 29.953 72.574v258.935h59.282q36.722 0 62.872 26.22Q731-417.472 731-380.652v106.783q0 7.426 4.57 11.995 4.569 4.57 11.995 4.57 7.427 0 11.996-4.57 4.57-4.569 4.57-11.607v-258.628q-37.435-5.956-62.272-34.272-24.837-28.315-24.837-65.75V-731h48v-74.87h54.696V-731h48v-74.87h54.695V-731h48v98.869q0 37.435-24.837 65.75-24.836 28.316-62.271 34.272v257q0 40.373-27.935 68.556-27.934 28.184-68.065 28.184t-67.924-28.055q-27.794-28.054-27.794-68.685V-390.5h-68.891v172.087q0-71.201-49.965-121.166-49.964-49.964-120.166-49.964H269.283q-44.511 0-76.245 31.66-31.734 31.661-31.734 76.065 0 44.405 31.734 76.199 31.734 31.793 76.245 31.793h137.282q16.825 0 28.206-11.32 11.381-11.321 11.381-28.056 0-16.646-11.381-28.341-11.381-11.696-28.206-11.696H269.283q-12.426 0-20.496-8.039-8.07-8.038-8.07-20.424 0-12.385 8.07-20.406 8.07-8.022 20.496-8.022h143.282q38.478-1 64.598 26.144 26.12 27.145 26.12 65.573 0 37.191-26.12 63.454-26.12 26.264-64.598 26.264H139.696Z"/></svg>