<svg xmlns="http://www.w3.org/2000/svg" height="20" viewBox="0 -960 960 960" width="20"><path d="M360.179-312.239q-20.374 0-34.157-13.8-13.783-13.8-13.783-34.154v-56.82q0-6.987 4.12-11.607 4.119-4.619 10.88-5.38 14.667-5.207 23.833-18.223 9.167-13.016 9.167-27.777 0-14.761-9.167-27.777-9.166-13.016-23.833-18.223-7-.761-11-5.334-4-4.574-4-11.666v-56.809q0-20.352 13.783-34.152t34.157-13.8h239.642q20.374 0 34.157 13.8 13.783 13.8 13.783 34.154v56.82q0 6.987-4.12 11.607-4.119 4.619-10.88 5.38-14.667 5.207-23.834 18.223-9.166 13.016-9.166 27.777 0 14.761 9.166 27.777 9.167 13.016 23.834 18.223 7 .761 11 5.334 4 4.574 4 11.666v56.809q0 20.352-13.783 34.152t-34.157 13.8H360.179Zm119.821-63q9 0 15-6t6-15q0-9-6-14.881-6-5.88-15-5.88t-15 5.928q-6 5.929-6 14.833 0 9 6 15t15 6ZM480-459q9 0 15-6t6-15q0-9-6-15t-15-6q-9 0-15 6t-6 15q0 9 6 15t15 6Zm0-84q9 0 15-5.928 6-5.929 6-14.833 0-9-6-15t-15-6q-9 0-15 6t-6 15q0 9 6 14.881 6 5.88 15 5.88ZM267.587-40.587q-34.483 0-58.741-24.259-24.259-24.258-24.259-58.741v-712.826q0-34.483 24.259-58.741 24.258-24.259 58.741-24.259h424.826q34.483 0 58.741 24.259 24.259 24.258 24.259 58.741v712.826q0 34.483-24.259 58.741-24.258 24.26-58.741 24.26H267.587Zm0-131v48h424.826v-48H267.587Zm0-72h424.826v-472.826H267.587v472.826Zm0-544.826h424.826v-48H267.587v48Zm0 0v-48 48Zm0 616.826v48-48Z"/></svg>