<svg xmlns="http://www.w3.org/2000/svg" height="20" viewBox="0 -960 960 960" width="20"><path d="M325.913-336.478h63.022l14.12-42.044q6.143-19.326 26.62-30.087t70.036-10.761q18.707 0 34.389 10.903 15.682 10.902 21.965 29.706l7.813 22.494q3.47 8.832 11.067 14.31 7.598 5.479 16.555 5.479h.239q15.674 0 24.511-12.696t3.589-27.711L519.63-650.174q-3.239-9.117-14.088-14.396-10.849-5.278-36.968-5.278-10.009 0-17.32 5.528-7.312 5.529-10.884 14.146L325.913-336.478Zm108.391-135L479-603.304h2l44.696 131.826h-91.392Zm-75.5 287.609h-91.676q-34.589 0-58.924-24.335t-24.335-58.924v-91.676l-62.543-62.544q-12.674-12.434-18.391-27.649-5.718-15.214-5.718-31.003t5.718-31.003q5.717-15.215 18.391-27.649l62.543-62.544v-91.676q0-34.589 24.335-58.924t58.924-24.335h91.676l62.544-62.543q12.674-12.674 27.769-18.391 15.094-5.718 30.883-5.718t30.883 5.718q15.095 5.717 27.769 18.391l62.544 62.543h91.676q34.589 0 58.924 24.335t24.335 58.924v91.676l62.543 62.544q12.674 12.674 18.391 27.769 5.718 15.094 5.718 30.883t-5.718 30.883q-5.717 15.095-18.391 27.769l-62.543 62.544v91.676q0 34.589-24.335 58.924t-58.924 24.335h-91.676l-62.544 62.543q-12.434 12.674-27.649 18.391-15.214 5.718-31.003 5.718t-31.003-5.718q-15.215-5.717-27.649-18.391l-62.544-62.543Z"/></svg>