<svg xmlns="http://www.w3.org/2000/svg" height="20" viewBox="0 -960 960 960" width="20"><path d="M40.587-221.782v-516.436q0-16.017 10.887-26.965t26.815-10.948q15.928 0 27.026 10.948 11.098 10.948 11.098 26.965v516.436q0 16.017-10.887 26.965-10.888 10.948-26.816 10.948-15.927 0-27.025-10.948-11.098-10.948-11.098-26.965Zm143.282 0v-516.436q0-16.017 10.888-26.965 10.887-10.948 26.815-10.948t27.026 10.948q11.098 10.948 11.098 26.965v516.436q0 16.017-10.888 26.965-10.887 10.948-26.815 10.948t-27.026-10.948q-11.098-10.948-11.098-26.965Zm226.283 37.913q-34.483 0-58.741-24.259-24.259-24.259-24.259-58.742v-426.26q0-34.483 24.259-58.742 24.258-24.259 58.741-24.259h426.261q34.483 0 58.741 24.259 24.259 24.259 24.259 58.742v426.26q0 34.483-24.259 58.742-24.258 24.259-58.741 24.259H410.152ZM599.283-372l-45.718-59.957q-4.761-7.521-13.282-7.641-8.522-.119-13.283 7.402l-51.913 68.87q-6.522 8.522-1.28 17.924T489.13-336h268.305q10.022 0 14.793-9.402 4.772-9.402-1.75-17.924l-75.152-98.631q-5.068-6.521-13.317-6.521-8.248 0-13.009 6.521L599.283-372Z"/></svg>