<svg xmlns="http://www.w3.org/2000/svg" height="20" viewBox="0 -960 960 960" width="20"><path d="M533.913-237.37q-17.813 0-29.863-12.05T492-279.283v-405.434q0-16.113 10.9-27.013 10.9-10.9 27.013-10.9h70.565q19.712 0 34.693 10.05 14.981 10.05 14.981 27.863v409.434q0 16.113-10.831 27.013-10.831 10.9-26.843 10.9h-78.565Zm-182.391 0q-17.712 0-29.693-12.05-11.981-12.05-11.981-29.863v-405.434q0-16.113 10.831-27.013 10.831-10.9 26.843-10.9h82.565q16.113 0 27.013 10.9 10.9 10.9 10.9 27.013v409.434q0 16.113-10.9 27.013-10.9 10.9-27.013 10.9h-78.565Zm-180.239 0q-17.813 0-29.863-12.05t-12.05-29.863v-405.434q0-16.113 10.9-27.013 10.9-10.9 27.013-10.9h80.652q16.113 0 27.013 10.9 10.9 10.9 10.9 27.013v409.434q0 16.113-10.9 27.013-10.9 10.9-27.013 10.9h-76.652Zm542.782 0q-16.963 0-28.438-10.9-11.475-10.9-11.475-27.013v-409.434q0-16.113 10.9-27.013 10.9-10.9 27.013-10.9h80.652q16.113 0 27.013 10.9 10.9 10.9 10.9 27.013v409.434q0 16.113-10.9 27.013-10.9 10.9-27.013 10.9h-78.652Z"/></svg>