<svg xmlns="http://www.w3.org/2000/svg" height="20" viewBox="0 -960 960 960" width="20"><path d="M274.087-184.109q-17.452 0-29.476-12.023-12.024-12.024-12.024-29.477v-264q0-17.452 11.963-29.476 11.964-12.024 29.326-12.024 17.363 0 29.537 12.024t12.174 29.476v163.848l373.065-373.065q12.674-12.674 29.326-12.674t29.326 12.674q12.674 12.674 12.674 29.326t-12.674 29.326L374.239-267.109h163.848q17.452 0 29.476 11.964 12.024 11.963 12.024 29.326t-12.024 29.537q-12.024 12.173-29.476 12.173h-264Z"/></svg>