<svg xmlns="http://www.w3.org/2000/svg" height="20" viewBox="0 -960 960 960" width="20"><path d="M267.587-291.587H225.37q-17.453 0-29.477-12.024-12.024-12.024-12.024-29.476v-462.5q0-34.483 24.259-58.741 24.259-24.259 58.742-24.259h426.26q34.483 0 58.742 24.259 24.259 24.258 24.259 58.741v462.5q0 17.452-12.024 29.476-12.024 12.024-29.477 12.024H496.217l-59.891-59.891q-23.152-23.152-55.544-23.033-32.391.12-55.543 24.272l-57.652 58.652Zm-.717-137.109q50.282-25.282 103.568-40.804 53.286-15.522 109.566-15.522 56.279 0 109.561 15.522 53.283 15.522 103.565 40.804v-366.891H266.87v366.891ZM480-509.022q-50 0-85-35t-35-85q0-50 35-85t85-35q50 0 85 35t35 85q0 50-35 85t-85 35ZM379.478-157.717H221.543q-16.011 0-26.842-10.84-10.832-10.839-10.832-26.863 0-15.922 10.9-26.903 10.9-10.981 27.013-10.981h157.696l-26.13-26.131q-11.718-11.717-11.098-26.195.619-14.479 12.337-26.196 11.717-11.717 26.695-11.717 14.979 0 26.696 11.717l87.37 87.13q12.674 12.398 12.674 28.927 0 16.53-12.674 29.204l-87.37 87.37q-11.717 11.717-26.696 11.717-14.978 0-26.695-11.717-11.718-11.718-11.718-27.316 0-15.598 11.718-27.315l24.891-23.891Zm238.5 0q-16.011 0-26.842-10.84-10.832-10.839-10.832-26.863 0-15.922 10.9-26.903 10.9-10.981 27.014-10.981h120.239q16.011 0 26.842 10.772 10.832 10.772 10.832 26.695 0 15.924-10.832 27.022-10.831 11.098-26.842 11.098H617.978Z"/></svg>