<svg xmlns="http://www.w3.org/2000/svg" height="20" viewBox="0 -960 960 960" width="20"><path d="M472.304-559.913v-124.199q0-16.562-11.604-28.377-11.605-11.815-28.489-11.815-16.885 0-28.7 11.665-11.815 11.665-11.815 28.639v140.522q0 8.729 3.358 16.368 3.359 7.638 9.076 13.458l91.587 91.348q12.214 12.195 28.498 12.195 16.285 0 28.481-12.195 12.195-12.196 12.195-28.117 0-15.921-12.195-27.862l-80.392-81.63ZM372.37-275.261q19.956-40 58.173-64.522 38.218-24.521 85.457-24.521h117.609q28.043-34.283 43.065-75.957 15.022-41.674 15.022-87.739 0-108.516-75.526-184.106-75.525-75.59-183.948-75.59t-184.17 75.59Q172.304-636.516 172.304-528q0 92.723 57.087 162.492 57.087 69.769 142.979 90.247ZM516-43.696q-64.95 0-110.671-44.62-45.72-44.619-48.916-108.097-114.478-26.196-189.598-118.12-75.12-91.925-75.12-213.866 0-141.395 99.256-240.65Q290.206-868.304 432-868.304t241.049 99.255Q772.304-669.794 772.304-528q0 44.922-10.902 86.407-10.902 41.484-31.945 77.767h33q64.282 2.391 109.065 48.489Q916.304-269.239 916.304-204q0 66.913-46.695 113.609Q822.913-43.696 756-43.696H516Zm-84-487.782ZM636-204Zm-120 79.696h240q32.874 0 56.285-23.484 23.411-23.483 23.411-56.46 0-32.976-23.411-56.212-23.411-23.236-56.285-23.236H516q-32.874 0-56.285 23.484-23.411 23.483-23.411 56.46 0 32.976 23.411 56.212 23.411 23.236 56.285 23.236Zm.211-43.696Q501-168 490.5-178.289q-10.5-10.29-10.5-25.5Q480-219 490.289-229.5q10.29-10.5 25.5-10.5Q531-240 541.5-229.711q10.5 10.29 10.5 25.5Q552-189 541.711-178.5q-10.29 10.5-25.5 10.5Zm120 0Q621-168 610.5-178.289q-10.5-10.29-10.5-25.5Q600-219 610.289-229.5q10.29-10.5 25.5-10.5Q651-240 661.5-229.711q10.5 10.29 10.5 25.5Q672-189 661.711-178.5q-10.29 10.5-25.5 10.5Zm120 0Q741-168 730.5-178.289q-10.5-10.29-10.5-25.5Q720-219 730.289-229.5q10.29-10.5 25.5-10.5Q771-240 781.5-229.711q10.5 10.29 10.5 25.5Q792-189 781.711-178.5q-10.29 10.5-25.5 10.5Z"/></svg>