<svg xmlns="http://www.w3.org/2000/svg" height="20" viewBox="0 -960 960 960" width="20"><path d="M479.986-230.63q24.297 0 41.318-16.783 17.022-16.783 17.5-41.065H421.196q.478 24.282 17.486 41.065 17.007 16.783 41.304 16.783ZM408-406.087V-528q0-30 21.212-51 21.213-21 51-21Q510-600 531-578.85q21 21.15 21 50.85v121.913H408Zm72.276 318.218q-81.189 0-152.621-30.618-71.432-30.618-124.991-84.177-53.559-53.559-84.177-124.949-30.618-71.391-30.618-152.845 0-81.455 30.618-152.387t84.177-124.491q53.559-53.559 124.949-84.177 71.391-30.618 152.845-30.618 81.455 0 152.387 30.618t124.491 84.177q53.559 53.559 84.177 124.716 30.618 71.156 30.618 152.344 0 81.189-30.618 152.621-30.618 71.432-84.177 124.991-53.559 53.559-124.716 84.177-71.156 30.618-152.344 30.618ZM480-170.87q129.043 0 219.087-90.043Q789.13-350.957 789.13-480t-90.043-219.087Q609.043-789.13 480-789.13t-219.087 90.043Q170.87-609.043 170.87-480t90.043 219.087Q350.957-170.87 480-170.87ZM480-480ZM324-336.478h312q14.583 0 24.693-10.051 10.111-10.05 10.111-24.543 0-14.493-10.111-24.754-10.11-10.261-24.693-10.261h-13.196v-121.196q0-49.819-30-88.67t-78-49.73v-16.6q0-14.282-10.05-25.043t-24.543-10.761q-14.494 0-24.754 10.761-10.261 10.761-10.261 25.043v16.6q-48 10.879-78 49.73t-30 88.67v121.196H324q-14.583 0-24.693 10.05-10.111 10.051-10.111 24.544t10.111 24.754q10.11 10.261 24.693 10.261Z"/></svg>