<svg xmlns="http://www.w3.org/2000/svg" height="20" viewBox="0 -960 960 960" width="20"><path d="m533.5-437.5-49.848-66.13q-6.206-8.957-16.152-8.957-9.946 0-16.152 8.957l-60.5 80.586q-7.957 10.435-2.427 21.989Q393.951-389.5 407-389.5h301q13.049 0 18.579-11.555 5.53-11.554-2.427-21.989l-84.5-112.586q-6.206-8.957-16.152-8.957-9.946 0-16.152 8.957L533.5-437.5ZM320.37-237.37q-34.483 0-58.742-24.258-24.258-24.259-24.258-58.742v-474.26q0-34.483 24.258-58.742 24.259-24.259 58.742-24.259h474.26q34.483 0 58.742 24.259t24.259 58.742v474.26q0 34.483-24.259 58.742-24.259 24.258-58.742 24.258H320.37Zm-155 155q-34.483 0-58.742-24.258-24.259-24.259-24.259-58.742v-515.76q0-17.453 11.964-29.477 11.963-12.023 29.326-12.023t29.537 12.023q12.174 12.024 12.174 29.477v515.76h515.76q17.453 0 29.477 11.964 12.023 11.963 12.023 29.326t-12.023 29.537Q698.583-82.37 681.13-82.37H165.37Z"/></svg>