<svg xmlns="http://www.w3.org/2000/svg" height="20" viewBox="0 -960 960 960" width="20"><path d="M675.54-110.913q-72.272 0-122.863-50.831-50.59-50.832-50.59-122.669 0-72.292 50.604-122.896t122.896-50.604q72.292 0 122.896 50.59 50.604 50.591 50.604 122.863 0 23.781-7.022 45.936-7.021 22.154-18.543 43.154l71.13 71.131q12.913 12.913 12.913 28.826t-12.913 28.826q-12.913 12.913-29.445 12.913-16.533 0-29.446-12.913l-71.131-69.891q-21 11.522-43.154 18.543-22.155 7.022-45.936 7.022Zm-.236-83q37.892 0 64.337-26.163 26.446-26.163 26.446-64.054 0-37.892-26.163-64.337-26.163-26.446-64.054-26.446-37.892 0-64.337 26.163-26.446 26.163-26.446 64.054 0 37.892 26.163 64.337 26.163 26.446 64.054 26.446ZM218.87-135.869q-34.238 0-58.619-24.382-24.382-24.381-24.382-58.619v-522.26q0-34.238 24.382-58.619 24.381-24.382 58.619-24.382h161.912q9.435-31.717 36.436-52.456 27-20.739 62.782-20.739 35.196 0 62.37 20.739t36.848 52.456H741.13q34.238 0 58.619 24.382 24.382 24.381 24.382 58.619v169.717q0 17.452-11.964 29.476-11.963 12.024-29.326 12.024t-29.537-12.024q-12.174-12.024-12.174-29.476V-741.13h-70.326v82.326q0 17.452-12.024 29.476-12.024 12.024-29.476 12.024H330.696q-17.452 0-29.476-12.024-12.024-12.024-12.024-29.476v-82.326H218.87v522.26h169.717q17.452 0 29.476 11.964 12.024 11.963 12.024 29.326t-12.024 29.537q-12.024 12.174-29.476 12.174H218.87Zm260.919-608.848q15.211 0 25.711-10.29 10.5-10.289 10.5-25.5 0-15.21-10.289-25.71-10.29-10.5-25.5-10.5-15.211 0-25.711 10.289-10.5 10.29-10.5 25.5 0 15.211 10.289 25.711 10.29 10.5 25.5 10.5Z"/></svg>