<svg xmlns="http://www.w3.org/2000/svg" height="20" viewBox="0 -960 960 960" width="20"><path d="M171.435-200.696q-69.739-44.565-108.587-119.011Q24-394.152 24-480q0-85.848 39.728-159.674 39.728-73.826 108.989-118.391 22.826-14.587 45.055-4.131Q240-751.739 240-728.109q0 13.153-6.098 23.327-6.098 10.174-16.826 17.694-51.489 33.914-80.782 88.871Q107-543.261 107-479.957t29.294 117.217q29.293 53.914 80.836 89.479 10.674 8.869 16.772 19.163Q240-243.805 240-230.652q0 23.391-22.489 34.348-22.489 10.956-46.076-4.392ZM599.338-144q-69.662 0-130.5-26.5Q408-197 362.649-242.522q-45.35-45.522-72-107Q264-411 264-480.5t26.6-130.633q26.6-61.134 71.867-106.4 45.266-45.267 106.4-71.867Q530-816 600-816t131.133 26.6q61.134 26.6 106.4 71.867 45.267 45.266 71.867 106.4Q936-550 936-480t-26.7 131.133q-26.7 61.134-72.137 106.4-45.437 45.267-106.8 71.867T599.338-144Zm.451-192q16.024 0 26.948-10.9t10.924-27.013v-68.174h68.342q16.149 0 27.073-10.9T744-480q0-16.113-10.924-27.013-10.924-10.9-27.073-10.9h-68.342v-68.174q0-16.113-10.924-27.013-10.924-10.9-26.971-10.9t-26.902 10.9q-10.855 10.9-10.855 27.013v68.174h-67.862q-16.047 0-27.097 10.839Q456-496.234 456-480.211q0 16.024 10.9 26.924 10.9 10.9 27.013 10.9h68.174v68.174q0 16.113 10.839 27.163Q583.766-336 599.789-336Z"/></svg>