<svg xmlns="http://www.w3.org/2000/svg" height="20" viewBox="0 -960 960 960" width="20"><path d="M218.87-135.869q-34.238 0-58.619-24.382-24.382-24.381-24.382-58.619v-522.26q0-34.238 24.382-58.619 24.381-24.382 58.619-24.382h161.912q9.435-31.717 36.436-52.456 27-20.739 62.782-20.739 35.196 0 62.37 20.739t36.848 52.456H741.13q34.238 0 58.619 24.382 24.382 24.381 24.382 58.619v522.26q0 34.238-24.382 58.619-24.381 24.382-58.619 24.382H218.87Zm0-83.001h522.26v-522.26h-70.326v82.326q0 17.452-12.024 29.476-12.024 12.024-29.476 12.024H330.696q-17.452 0-29.476-12.024-12.024-12.024-12.024-29.476v-82.326H218.87v522.26Zm260.919-525.847q15.211 0 25.711-10.29 10.5-10.289 10.5-25.5 0-15.21-10.289-25.71-10.29-10.5-25.5-10.5-15.211 0-25.711 10.289-10.5 10.29-10.5 25.5 0 15.211 10.289 25.711 10.29 10.5 25.5 10.5Z"/></svg>