<svg xmlns="http://www.w3.org/2000/svg" height="20" viewBox="0 -960 960 960" width="20"><path d="M479-352.304q-52.391 0-89.544-37.033Q352.304-426.37 352.304-479q0-52.87 37.152-89.663 37.153-36.794 89.544-36.794 52.87 0 89.783 36.794Q605.696-531.87 605.696-479q0 52.63-36.913 89.663Q531.87-352.304 479-352.304Zm-58.652 205.782-85.305-85.304Q322.37-244.5 322.75-261.272q.38-16.771 13.054-29.445t29.446-12.674q16.772 0 29.446 12.674L479-205.413l85.543-85.544q12.674-12.673 29.207-12.173t29.446 13.173q12.913 12.674 12.913 28.827 0 16.152-12.913 29.065l-85.544 85.543q-12.674 12.674-27.587 18.392-14.913 5.717-31.065 5.717t-31.065-5.717q-14.913-5.718-27.587-18.392ZM232.304-335.804l-85.543-84.544q-12.674-12.674-18.391-27.587-5.718-14.913-5.718-31.065t5.718-31.065q5.717-14.913 18.391-27.587l85.065-85.065q12.674-12.674 29.446-12.674 16.771 0 29.445 12.674t12.674 29.445q0 16.772-12.674 29.446l-85.065 85.065 85.305 85.304q12.673 12.674 12.673 28.827 0 16.152-12.673 28.826-12.674 12.674-29.327 12.674-16.652 0-29.326-12.674Zm103.739-393.131 84.544-84.543q12.674-12.674 27.587-18.392 14.913-5.717 31.065-5.717t31.065 5.717q14.914 5.718 27.587 18.392l85.305 85.304q12.674 12.674 12.674 29.065 0 16.392-12.674 29.066-12.674 12.673-29.446 12.673-16.772 0-29.446-12.673L479-754.348l-85.304 85.305q-12.674 12.673-28.707 12.673-16.032 0-28.946-12.673-12.913-12.674-12.913-29.827 0-17.152 12.913-30.065Zm334.479 334.478 84.304-84.304-85.543-85.543q-12.913-12.913-12.913-28.946t12.913-28.946q12.913-12.913 29.445-12.913 16.533 0 29.446 12.913l85.543 84.544q12.674 12.674 18.392 27.587 5.717 14.913 5.717 31.065t-5.717 31.065q-5.718 14.913-18.392 27.587l-85.543 85.544Q715.5-322.13 699.348-322.63t-28.826-13.174q-12.674-12.674-12.674-29.326 0-16.653 12.674-29.327Z"/></svg>