<svg xmlns="http://www.w3.org/2000/svg" height="20" viewBox="0 -960 960 960" width="20"><path d="M569.022-480.717H769q17.452 0 29.476-12.024 12.024-12.024 12.024-29.477v-106.369q0-17.452-12.024-29.476-12.024-12.024-29.476-12.024H569.022q-17.452 0-29.476 12.024-12.024 12.024-12.024 29.476v106.369q0 17.453 12.024 29.477 12.024 12.024 29.476 12.024Zm100.108-83.761 79.67-53.365q8.613-6.157 18.113-1.183 9.5 4.973 9.5 16.026 0 2-8 15l-76.174 51.37q-10.503 6.717-23.143 6.717t-23.074-6.717l-76.228-51.423Q567.848-589 561.848-603q0-10.769 9.6-15.385 9.6-4.615 18.4 1.385l79.282 52.522ZM83-140.413q-34.483 0-58.741-24.259Q0-188.93 0-223.413v-513.174q0-34.483 24.259-58.741Q48.517-819.587 83-819.587h794q34.482 0 58.741 24.259Q960-771.07 960-736.587v513.174q0 34.483-24.259 58.741-24.259 24.259-58.741 24.259H83Zm517.224-79.174h280.363v-520.826H79.413v520.826q52-56 120-88t143.5-32q75.5 0 141 32.5t116.311 87.5ZM342.696-385.913q50.956 0 86.315-35.359 35.359-35.358 35.359-86.315t-35.359-86.435Q393.652-629.5 342.696-629.5q-50.957 0-86.435 35.478t-35.478 86.435q0 50.957 35.478 86.315 35.478 35.359 86.435 35.359ZM201.5-219.587h279.152Q448.848-238 414.199-249.206q-34.649-11.207-72.022-11.207-37.372 0-73.742 9.707Q232.066-241 201.5-219.587ZM342.696-461.5q-19.689 0-33.008-13.25Q296.37-488 296.37-507.587q0-19.689 13.317-33.007 13.318-13.319 33.005-13.319 19.686 0 32.889 13.317 13.202 13.318 13.202 33.005 0 19.687-13.25 32.889-13.25 13.202-32.837 13.202ZM480-480Z"/></svg>