<svg xmlns="http://www.w3.org/2000/svg" height="20" viewBox="0 -960 960 960" width="20"><path d="m804.935-265.435-61.37-61.37q17.648-29.281 28.433-62.357 10.784-33.077 13.784-69.49-43.565-18.239-73.206-55.381-29.641-37.141-37.88-84.184-74.805-11.718-128.163-63-53.359-51.283-64.316-124.805-42.217-2.043-82.01 8.522-39.794 10.565-75.163 32.174l-61.609-61.609q56.913-39 121.435-51.424 64.521-12.424 133-12.424 18.413 0 31.761 13.316 13.347 13.315 13.347 31.75 0 69.434 46.283 109.423 46.283 39.99 114 37.229 14-1 22.761 8.64 8.761 9.641 7.282 22.925-3 40.478 19.403 73.978 22.402 33.5 62.358 44.978 14.239 4 24.218 16 9.978 12 9.978 27.126 1 60.592-14.902 115.429t-49.424 104.554ZM324-360q-25 0-42.5-17.5T264-420q0-25 17.5-42.5T324-480q25 0 42.5 17.5T384-420q0 25-17.5 42.5T324-360ZM480.025-87.87q-81.314 0-152.558-30.617-71.244-30.618-124.803-84.177-53.559-53.559-84.177-124.803-30.618-71.244-30.618-152.558 0-59.448 17.479-115.244 17.478-55.796 50.195-105.753L121-735.804q-11.478-11.177-11.478-26.545 0-15.368 11.503-26.847 11.504-11.478 26.863-11.478 15.358 0 26.503 11.478l618.631 618.631q11.478 11.114 11.359 26.133-.12 15.019-11.573 26.497-11.453 11.479-26.743 11.479t-26.435-11.479l-38.608-37.608q-49.957 32.717-105.753 50.195-55.796 17.479-115.244 17.479Zm.085-83q42.933 0 83.336-12.521 40.402-12.522 77.684-33.044L216.435-641.37q-20.522 37.283-33.044 77.668-12.521 40.385-12.521 83.592 0 128.764 90.356 219.002T480.11-170.87Zm-60.827-248.413Zm115.021-116.782Z"/></svg>