<svg xmlns="http://www.w3.org/2000/svg" height="20" viewBox="0 -960 960 960" width="20"><path d="M480.028-87.87q-69.798 0-135.794-23.912-65.995-23.914-119.386-69.022-14.153-11.435-15.892-29.805-1.739-18.369 11.174-31.282 12.674-12.674 30.446-12.055 17.772.62 30.967 11.533 11.663 8.528 24.908 16.982 13.245 8.453 25.962 17.17v-101.348h-65.995q-34.226 0-58.388-24.311-24.161-24.311-24.161-58.45v-232.347q0-62.87 44.389-107.142 44.388-44.272 107.317-44.272h109.036q17.498 0 29.552 12.024 12.055 12.024 12.055 29.477v148.347h207.415q34.175 0 58.337 24.311 24.161 24.311 24.161 58.45v111.152q0 34.139-24.311 58.45-24.312 24.311-58.45 24.311h-65.783v101.348q14.262-8.398 27.385-16.797 13.123-8.398 26.006-18.116 13.435-10.913 30.207-11.152 16.772-.239 29.602 12.59 12.996 12.997 11.637 30.986-1.358 17.989-14.75 29.424-54.391 45.87-120.119 69.663-65.729 23.794-137.527 23.794Zm-.088-83q16.147 0 32.853-1.021 16.707-1.022 31.794-4.853v-132.865H415.413v132.413q16.087 4.283 32.234 5.305 16.147 1.021 32.293 1.021ZM266.87-392.609h426.26v-110.674H403.217V-693.13h-67.429q-28.831 0-48.875 20.096-20.043 20.096-20.043 48.317v232.108Zm136.347-110.674Z"/></svg>