<svg xmlns="http://www.w3.org/2000/svg" height="20" viewBox="0 -960 960 960" width="20"><path d="M477.283 0Q301.717 0 171.054-109.185 40.391-218.37 6.957-383.696q-3.479-15.79 6.478-28.688 9.956-12.899 25.891-15.018 15.935-2.12 29.682 7.32 13.748 9.44 17.123 24.952 28 127.304 125.097 214.836 97.098 87.533 229.163 98.685l-35.782-36.782q-11.718-11.718-11.718-26.196 0-14.478 11.718-26.196 11.717-11.717 26.815-12.337 15.098-.619 26.815 11.098L588.67-41.591q6.917 6.917 4.238 17.176-2.678 10.258-12.799 12.698-29.957 6.239-56.033 8.978T477.283 0ZM363.587-288q-31.18 0-53.383-22.204Q288-332.407 288-363.587v-232.826h-58.326q-16.011 0-26.843-10.839Q192-618.092 192-634.116q0-15.921 10.9-26.903Q213.8-672 229.913-672H288v-58.326q0-16.011 10.839-26.843Q309.679-768 325.703-768q15.922 0 26.903 10.831 10.981 10.832 10.981 26.843v366.739h366.739q16.011 0 26.843 10.772Q768-342.043 768-326.119q0 15.923-10.831 27.021Q746.337-288 730.326-288H672v58.326q0 16.011-10.772 26.843Q650.456-192 634.532-192q-15.923 0-27.021-10.9t-11.098-27.013V-288H363.587Zm232.826-144v-164.413H432V-672h164.413q31.18 0 53.383 22.204Q672-627.593 672-596.413V-432h-75.587ZM482.717-960q175.566 0 306.229 109.804 130.663 109.805 164.097 274.892 3.479 15.412-6.478 28.119-9.956 12.707-25.947 14.707t-29.682-7.44q-13.692-9.44-17.067-24.952-28-127.304-125.097-214.836-97.098-87.533-229.163-98.685l35.782 36.782q11.718 11.718 11.718 26.196 0 14.478-11.718 26.196-11.717 11.717-26.815 12.337-15.098.619-26.815-11.098L371.33-918.409q-6.917-6.917-4.238-17.176 2.678-10.258 12.799-12.698 29.957-6.239 56.033-8.978T482.717-960Z"/></svg>