<svg xmlns="http://www.w3.org/2000/svg" height="20" viewBox="0 -960 960 960" width="20"><path d="M217.913-183.869q-34.483 0-58.741-24.259-24.259-24.259-24.259-58.742V-624q-17.152 0-29.326-11.963-12.174-11.964-12.174-29.327 0-17.362 12.024-29.536Q117.461-707 134.913-707h123.826v-31.218q0-17.332 11.7-29.057Q282.139-779 299.434-779h71.108q17.295 0 29.17 11.725t11.875 29.057V-707h123.587q17.452 0 29.476 11.963 12.024 11.964 12.024 29.326 0 17.363-12.024 29.537T535.174-624v357.13q0 34.483-24.259 58.742-24.258 24.259-58.741 24.259H217.913ZM667.198-277q-15.974 0-26.956-10.839-10.981-10.84-10.981-26.863 0-15.922 10.875-26.904 10.875-10.981 26.95-10.981h72.064q15.975 0 26.956 10.772t10.981 26.696q0 15.924-10.806 27.021Q755.475-277 739.501-277h-72.303Zm-.024-135.587q-16.113 0-27.013-10.839-10.9-10.84-10.9-26.863 0-16.024 10.9-27.074t27.013-11.05h120q16.113 0 27.013 10.84 10.9 10.839 10.9 26.863 0 16.023-10.9 27.073t-27.013 11.05h-120Zm-.239-135.826q-16.011 0-26.843-10.839-10.831-10.84-10.831-26.864 0-15.921 10.831-26.903Q650.924-624 666.935-624h168.478q16.012 0 26.843 10.772t10.831 26.696q0 15.923-10.831 27.021t-26.843 11.098H666.935Z"/></svg>