<svg xmlns="http://www.w3.org/2000/svg" height="20" viewBox="0 -960 960 960" width="20"><path d="m632.891-242.218-30.13-29.891q-7.886-7.478-18.399-7.478-10.514 0-17.992 7.512-7.479 7.513-7.479 18.014 0 10.502 7.479 18.344l63.13 63.369q12.397 12.674 28.927 12.674t29.203-12.674L751-235.717q7.478-7.842 7.359-18.378-.12-10.535-7.632-18.014-7.513-7.478-18.014-7.478-10.502 0-18.343 7.478l-29.892 29.891v-71.695q0-10.27-7.712-17.972-7.713-7.702-17.996-7.702-10.283 0-18.081 7.702t-7.798 17.972v71.695Zm-195.391-618q19.391-12.434 42.5-12.434t42.5 12.434l260.13 150.327q19.492 11.318 30.496 30.123 11.005 18.804 11.005 41.442v192.022q-35.957-29.587-78.087-44.359-42.131-14.772-87.479-14.772-21.935 0-44.228 4.641-22.293 4.642-42.467 13.685l169.26-97.434v-53.783l-33.543-19.631L480-527.022 252.413-657.957l-33.543 19.631v53.783l220.826 127.934v68.435q-24.805 31.044-34.968 68.728-10.163 37.685-10.163 78.011 0 36.826 10.011 71.435t31.076 64.805q-3.348 0-6.695-.957-3.348-.957-6.457-2.63L177.209-250.324q-19.231-11.219-30.285-29.988-11.055-18.768-11.055-41.362v-316.652q0-22.638 11.005-41.442 11.004-18.805 30.496-30.123L437.5-860.218ZM658.339-49.435q-79.774 0-135.774-56.226t-56-136q0-79.774 56.226-135.774t136-56q79.774 0 135.774 56.226t56 136q0 79.774-56.226 135.774t-136 56Z"/></svg>