<svg xmlns="http://www.w3.org/2000/svg" height="20" viewBox="0 -960 960 960" width="20"><path d="m315.804-619.696 19.761 48h288.87l18.761-48H315.804Zm18.761 131.001q-27.485 0-49.123-14.75-21.638-14.75-29.116-40.055l-28.044-76.196h-18.978q-34.483 0-58.741-24.258-24.259-24.259-24.259-58.742v-131h707.392v131q0 34.783-24.259 58.892-24.258 24.108-58.741 24.108h-18.978l-27.848 75.479q-8.744 24.686-30.459 40.104t-48.259 15.418H334.565Zm145.364 362.391q-82.364 0-156.82-31.696-74.457-31.695-132.413-89.413-5.718-5.717-8.837-12.456-3.12-6.739-3.12-15.457 0-16.495 11.786-27.922 11.786-11.426 28.323-11.426 8.717 0 15.076 3.239 6.359 3.24 12.076 8.718 48 47 108.057 72.598t125.704 25.598q65.97 0 126.105-25.598Q666-255.717 714.268-303.074q5.449-5.361 12.558-8.361 7.109-3 15.026-3 16.496 0 27.833 11.337t11.337 27.959q0 7.977-3.173 15.141-3.174 7.164-8.425 12.419Q711.587-189.695 636.939-158q-74.647 31.696-157.01 31.696Zm.099-150.217q-50.789 0-97.669-19.5-46.881-19.5-83.513-54.54-5.715-5.247-9.356-12.878-3.642-7.631-3.642-15.835 0-16.595 11.426-27.671 11.426-11.077 27.922-11.077 8.717 0 15.076 2.62 6.358 2.62 12.076 8.337 25.522 24.565 59.185 35.446 33.663 10.88 68.467 10.88T547.848-372q33.043-11.261 58.845-35.289 5.207-5.108 12.301-8.301 7.093-3.192 15.81-3.192 16.496 0 27.803 11.456 11.306 11.457 11.306 27.952 0 8.396-3.478 15.863-3.478 7.468-9.674 13.185-37.478 33.805-83.831 53.805-46.352 20-96.902 20Z"/></svg>