<svg xmlns="http://www.w3.org/2000/svg" height="20" viewBox="0 -960 960 960" width="20"><path d="M500.131-572.646v36.117q0 15.349 10.35 25.733 10.35 10.383 25.65 10.383 15.3 0 25.65-10.383 10.35-10.384 10.35-25.733v-36.117h36q15.3 0 25.65-10.383 10.35-10.384 10.35-25.594 0-15.211-10.35-25.501-10.35-10.289-25.65-10.289h-36v-35.789q0-15.211-10.29-25.711-10.289-10.5-25.5-10.5-15.21 0-25.594 10.35-10.383 10.35-10.383 25.65v36h-36.117q-15.349 0-25.733 10.35-10.383 10.35-10.383 25.65 0 15 10.35 25.384 10.35 10.383 25.65 10.383h36Zm-36.056 205.233h143.779q15.277 0 25.777-10.29 10.5-10.289 10.5-25.5 0-15.21-10.334-25.71-10.335-10.5-25.611-10.5H464.407q-15.276 0-25.776 10.289-10.5 10.29-10.5 25.5 0 15.211 10.334 25.711 10.334 10.5 25.61 10.5ZM324.913-195.587q-33.782 0-58.391-24.609t-24.609-58.391v-557.826q0-33.783 24.609-58.391 24.609-24.609 58.391-24.609h274.109q16.433 0 31.325 5.837t27.566 18.511L806-746.978q12.674 12.674 18.511 27.566t5.837 31.325v409.5q0 33.782-24.609 58.391-24.608 24.609-58.391 24.609H324.913Zm-155 155q-33.783 0-58.391-24.609-24.61-24.608-24.61-58.391v-507.63q0-17.452 11.964-29.476 11.964-12.024 29.326-12.024 17.363 0 29.537 12.024t12.174 29.476v507.63h392.652q17.452 0 29.476 11.963 12.024 11.964 12.024 29.327 0 17.362-12.024 29.536-12.024 12.174-29.476 12.174H169.913Z"/></svg>