<svg xmlns="http://www.w3.org/2000/svg" height="20" viewBox="0 -960 960 960" width="20"><path d="m480-427.37 103.804 103.805q11.718 11.717 26.316 11.598 14.597-.12 26.315-11.837 11.717-11.718 11.717-26.316 0-14.597-11.717-26.315L532.63-480l103.805-103.804q11.717-11.718 11.717-26.316 0-14.597-11.717-26.315-11.718-11.717-26.315-11.717-14.598 0-26.316 11.717L480-532.63 376.196-636.435Q364.478-648.152 350-648.152q-14.478 0-26.196 11.717-11.717 11.718-11.717 26.315 0 14.598 11.717 26.316L427.37-480 323.565-376.196Q311.848-364.478 311.967-350q.12 14.478 11.837 26.196 11.718 11.717 26.316 11.717 14.597 0 26.315-11.717L480-427.37ZM218.87-135.869q-34.783 0-58.892-24.109t-24.109-58.892v-522.26q0-34.783 24.109-58.892t58.892-24.109h522.26q34.783 0 58.892 24.109t24.109 58.892v522.26q0 34.783-24.109 58.892t-58.892 24.109H218.87Z"/></svg>