<svg xmlns="http://www.w3.org/2000/svg" height="20" viewBox="0 -960 960 960" width="20"><path d="M364.065-368v-371.935 519.87V-368Zm-83 37.5h83v110.435h231.87v-519.87h-231.87V-413.5h-83v-326.435q0-34.482 24.259-58.741t58.741-24.259h231.87q34.482 0 58.741 24.259t24.259 58.741v519.87q0 34.482-24.259 58.741t-58.741 24.259h-231.87q-34.482 0-58.741-24.259t-24.259-58.741V-330.5Zm198.724-216q17.363 0 29.537-12.674T521.5-588.5q0-16.652-11.963-28.826-11.964-12.174-29.326-12.174-17.363 0-29.537 12.024T438.5-588q0 16.152 11.963 28.826 11.964 12.674 29.326 12.674Zm302.581-41q-16.653 0-28.827-12.024Q741.37-611.548 741.37-629v-150q0-17.452 12.023-29.476Q765.417-820.5 782.87-820.5q16.152 0 28.826 12.024T824.37-779v150q0 17.452-12.674 29.476Q799.022-587.5 782.37-587.5Zm-554.085 257q-17.437 0-29.611-11.963-12.174-11.964-12.174-29.326 0-17.363 12.014-29.537 12.013-12.174 29.45-12.174h251.751q17.437 0 29.611 11.963 12.174 11.964 12.174 29.326 0 17.363-12.014 29.537-12.013 12.174-29.45 12.174H228.285Z"/></svg>