<svg xmlns="http://www.w3.org/2000/svg" height="20" viewBox="0 -960 960 960" width="20"><path d="m363.674-135.869 155-155.001H794.63q32.092 0 54.796 22.767 22.705 22.767 22.705 54.946t-22.705 54.733q-22.704 22.555-54.796 22.555H363.674ZM170.63-218.87h51.24l358.738-358.738-50.76-51L170.63-269.391v50.521Zm-82.76 41.684v-92.118q0-16.479 5.836-31.511 5.837-15.033 18.511-27.707l473.174-473.413q11.478-11.717 25.032-16.956 13.553-5.24 28.435-5.24 14.642 0 28.359 5.24 13.718 5.239 25.674 16.717l61.283 60.565q11.478 11.718 16.837 25.555t5.359 28.335q0 15.162-5.381 29.089-5.38 13.927-16.815 25.239L281-160.217q-12.674 12.674-27.656 18.511t-31.424 5.837h-92.368q-17.335 0-29.509-11.972-12.174-11.971-12.174-29.345Zm602.869-510.075L639.5-738.739l51.239 51.478ZM554.9-602.9l-25.052-25.708 50.76 51L554.9-602.9Z"/></svg>