<svg xmlns="http://www.w3.org/2000/svg" height="20" viewBox="0 -960 960 960" width="20"><path d="M696.957-673.913v-27.37q0-9.195 5.86-14.913 5.861-5.717 15.009-5.717h58.087q9.196 0 14.913 5.717 5.718 5.718 5.718 14.913v27.37h22.086q21.214 0 35.564 14.35 14.35 14.35 14.35 35.563v337.913q0 21.112-14.35 35.393-14.35 14.281-35.564 14.281h-144q-21.111 0-35.392-14.281-14.281-14.281-14.281-35.393V-624q0-21.213 14.281-35.563 14.281-14.35 35.392-14.35h22.327ZM232.987-234.5q-58.49 0-100.011-41.536-41.52-41.536-41.52-100.051V-648q0-31.374 22.169-53.48 22.169-22.107 53.631-22.107 31.461 0 53.538 22.169 22.076 22.169 22.076 53.63 0 31.462-22.274 53.418-22.274 21.957-53.553 21.957.877 0 1.754.12.877.119 1.833.597v195.609q0 25.368 18.544 43.771 18.543 18.403 43.869 18.403 25.327 0 43.87-18.403 18.543-18.403 18.543-43.771V-582q0-58.515 41.521-100.051 41.52-41.536 100.01-41.536 58.491 0 100.067 41.536Q578.63-640.515 578.63-582v271.913q0 31.374-22.168 53.481-22.169 22.106-53.631 22.106-31.461 0-53.418-22.169t-21.957-53.63q0-31.462 22.401-53.538 22.4-22.076 54.186-22.076-.543 0-1.087-.12-.543-.119-2.5-.597V-582q0-25.326-18.543-43.87-18.543-18.543-44.399-18.543-25.855 0-44.25 17.964Q374.87-608.486 374.87-582v205.913q0 58.515-41.696 100.051T232.987-234.5Z"/></svg>