<svg xmlns="http://www.w3.org/2000/svg" height="20" viewBox="0 -960 960 960" width="20"><path d="M635-88.587q-44.152 0-87.326-16.695-43.174-16.696-78.892-46.653-25.804-20.565-37.608-26.608-11.804-6.044-23.174-6.044-64.957 0-123.391-25.478-58.435-25.478-102.011-68.815-43.576-43.337-68.913-101.272Q88.348-438.087 88.587-504q1.478-169.63 83.891-268.522Q254.891-871.413 396-871.413q46.717 0 88.554 10.88 41.837 10.881 78.316 33.5 36.478 22.62 68.576 56.859 32.098 34.239 59.098 79.478 17 29 30.619 50.718 13.62 21.717 32.859 39.956 67.196 68.196 92.293 118.413Q871.413-431.391 871.413-359q0 115.348-68.391 192.881Q734.63-88.587 635-88.587ZM480-360q50 0 85-34.5t35-85.5q0-50-35-85t-85-35q-51 0-85.5 35T360-480q0 51 34.5 85.5T480-360Z"/></svg>