<svg xmlns="http://www.w3.org/2000/svg" height="20" viewBox="0 -960 960 960" width="20"><path d="M392.413-411.543v70.73q0 16.748 11.366 28.182 11.365 11.435 28.01 11.435 16.646 0 28.222-11.435 11.576-11.434 11.576-28.182v-70.73l66.239 38.782q14.435 8.718 29.87 3.739 15.434-4.978 24.152-19.413 8.717-14.435 4.478-29.75-4.239-15.315-18.674-24.033L511.413-480l66.239-37.782q14.435-8.718 18.674-24.153 4.239-15.435-4.717-30.369-8.718-14.935-24.642-19.294t-30.141 4.359l-65.239 38.782v-70.73q0-16.748-11.366-28.182-11.365-11.435-28.01-11.435-16.646 0-28.222 11.435-11.576 11.434-11.576 28.182v70.73l-66.717-38.782q-14.435-8.718-29.75-3.739-15.316 4.978-24.033 19.413t-4.359 29.869q4.359 15.435 18.794 24.153L352.587-480l-66.239 37.782q-14.435 8.718-18.674 24.153-4.239 15.435 4.717 30.369 8.718 14.935 24.642 19.294t30.141-4.359l65.239-38.782ZM218.87-183.869q-33.783 0-58.392-24.609t-24.609-58.392v-426.26q0-34.483 24.609-58.742t58.392-24.259h426.26q34.483 0 58.742 24.259t24.259 58.742V-528l108.217-108.217q9.196-9.196 22.489-4.312 13.294 4.884 13.294 18.225v284.485q0 13.797-13.294 18.515-13.293 4.717-22.489-4.479L728.131-432v165.13q0 33.783-24.259 58.392t-58.742 24.609H218.87Z"/></svg>