<svg xmlns="http://www.w3.org/2000/svg" height="20" viewBox="0 -960 960 960" width="20"><path d="M299.5-267.348h120.413l180.174-317.304h60.026q23.387 0 38.887-15.75t15.5-38.25q0-22.5-15.75-38.25t-38.25-15.75H540.087L359.913-375.348h-60.026q-23.387 0-38.887 15.75t-15.5 38.25q0 22.5 15.75 38.25t38.25 15.75Zm-80.63 131.479q-34.483 0-58.742-24.259t-24.259-58.742v-522.26q0-34.483 24.259-58.742t58.742-24.259h522.26q34.483 0 58.742 24.259t24.259 58.742v522.26q0 34.483-24.259 58.742t-58.742 24.259H218.87Zm0-83.001h522.26v-522.26H218.87v522.26Zm0-522.26v522.26-522.26Z"/></svg>