<svg xmlns="http://www.w3.org/2000/svg" height="20" viewBox="0 -960 960 960" width="20"><path d="M599.065-477.304 471.304-605.065l184.826-75.826q8.761-3.761 15.642 3.119 6.88 6.881 3.119 15.642l-75.826 184.826Zm151.807 364.365-49.611-48.604q-49.583 32.956-105.696 50.315-56.112 17.359-115.033 17.359-81.507 0-152.908-30.618-71.401-30.618-124.96-84.177-53.559-53.559-84.177-124.96-30.618-71.401-30.618-152.908 0-58.921 17.359-115.033 17.359-56.113 50.315-105.696l-49.41-50.611q-11.46-11.498-11.46-26.121t11.504-26.076q11.504-11.453 26.862-11.453 15.359 0 26.504 11.478l644.659 644.42q11.559 11.559 11.44 26.578-.12 15.019-11.573 26.133-11.12 11.478-26.41 11.478-15.289 0-26.787-11.504Zm56.215-156.344-61.37-61.369q20.087-35.566 31.75-74.806Q789.13-444.698 789.13-486q0-128.718-90.206-218.924Q608.718-795.13 480-795.13q-40.609 0-80.196 11.163-39.586 11.163-75.152 31.25l-61.369-60.37q48.865-31.522 103.749-48.283 54.884-16.761 112.87-16.761 82.011 0 152.943 30.618 70.932 30.618 124.491 84.177 53.559 53.559 84.177 124.491 30.618 70.932 30.618 152.943 0 57.986-16.761 112.87-16.761 54.884-48.283 103.749ZM538.304-538.304ZM431.522-431.522ZM480-177.87q43.03 0 83.559-11.26 40.528-11.261 76.811-33.544L492.957-370.087 303.87-292.109q-8.761 3.761-15.642-3.119-6.88-6.881-3.136-15.752l78.234-188.498L216.674-647.37q-22.522 36.283-34.163 76.719Q170.87-530.215 170.87-487q0 128.718 90.206 218.924Q351.282-177.87 480-177.87Z"/></svg>