<svg xmlns="http://www.w3.org/2000/svg" height="20" viewBox="0 -960 960 960" width="20"><path d="m777.065-140.456-42.804-42.566q-51 45.718-116.935 70.435-65.935 24.718-137.804 24.718-80.674 0-152.109-30.718-71.435-30.717-125.011-84.293-53.576-53.576-84.293-125.011Q87.391-399.326 87.391-480q0-74.87 24.576-139.804 24.576-64.935 69.576-114.935l-41.804-43.044q-11.717-11.717-11.598-26.195.12-14.479 11.837-26.196 11.718-11.717 26.696-11.717 14.978 0 26.696 11.717l637.326 637.326q11.717 11.718 11.217 26.196-.5 14.478-12.217 26.196-11.718 11.717-26.315 11.717-14.598 0-26.316-11.717Zm52.022-161.022-62.848-63.087q11.565-25.892 17.109-55.261 5.543-29.37 5.543-59.696 0-27-4.5-53.021-4.5-26.022-13.5-50.022-18 4-37.641 5.5t-40.641 1.5q-50.065 0-97.065-11.609-47-11.608-88.457-35.543L301.239-829.565q42.239-21.761 87.12-32.163 44.88-10.403 91.163-10.403 81.674 0 152.728 30.598T757-757.239q53.696 53.695 84.294 124.63Q871.891-561.674 871.891-480q0 49.913-11.119 95.174-11.12 45.261-31.685 83.348ZM583-710ZM186.522-585q25.761-12.761 47-28.761t37-33l-31-30q-22 28-34.5 50T186.522-585ZM425-787q51 67 120.5 103T696-648q11 0 22-.5t22-2.5q-47-66-116-103.5T480-792q-12 0-26 1.5t-29 3.5ZM226.522-630.761Zm133.956 223.478q-20.478 0-34.598-14.119-14.119-14.12-14.119-34.598t14.119-34.598q14.12-14.119 34.598-14.119 20.479 0 34.598 14.119 14.12 14.12 14.12 34.598t-14.12 34.598q-14.119 14.119-34.598 14.119ZM479.522-170.87q54 0 104.304-18.141t91.304-52.141L322.717-594.804q-32 34-70.163 57.402T172.391-500q-1 5-1.5 10t-.5 10q0 128.804 90.163 218.967 90.163 90.163 218.968 90.163Z"/></svg>