<svg xmlns="http://www.w3.org/2000/svg" height="20" viewBox="0 -960 960 960" width="20"><path d="M480-65.065q-67.152 0-114.326-47.174Q318.5-159.413 318.5-226.565q0-56.29 34-99.46 34-43.171 86-56.811V-450.5H303.109q-34.483 0-58.742-24.259-24.258-24.258-24.258-58.741v-38.435h-66.5q-17.453 0-29.477-12.024-12.023-12.024-12.023-29.476v-216q0-17.452 12.023-29.476 12.024-12.024 29.477-12.024h216q17.452 0 29.476 12.024 12.024 12.024 12.024 29.476v216q0 17.452-12.024 29.476-12.024 12.024-29.476 12.024h-66.5v38.435h365.782v-44.109q-52-13.195-86-56.366-34-43.17-34-99.46 0-67.152 47.174-114.326 47.174-47.174 114.326-47.174 67.153 0 114.327 47.174 47.173 47.174 47.173 114.326 0 56.29-34 99.46-34 43.171-86 56.366v44.109q0 34.483-24.258 58.741-24.259 24.259-58.742 24.259H521.5v68.109q52 13.195 86 56.366 34 43.17 34 99.46 0 67.152-47.174 114.326Q547.152-65.065 480-65.065Zm230.533-589.87q32.706 0 55.532-22.967 22.826-22.968 22.826-55.674 0-32.707-22.967-55.533-22.968-22.826-55.674-22.826t-55.532 22.968Q631.891-766 631.891-733.293q0 32.706 22.968 55.532 22.967 22.826 55.674 22.826Zm-515.424 0h133v-133h-133v133Zm285.032 506.87q32.707 0 55.533-22.968Q558.5-194 558.5-226.707q0-32.706-22.968-55.532-22.967-22.826-55.673-22.826-32.707 0-55.533 22.967Q401.5-259.13 401.5-226.424q0 32.707 22.968 55.533 22.967 22.826 55.673 22.826Zm-218.532-573.37Zm448.782-12ZM480-226.565Z"/></svg>