<svg xmlns="http://www.w3.org/2000/svg" height="20" viewBox="0 -960 960 960" width="20"><path d="M208.587-182.913q-53.587 0-91.337-37.75T79.5-312v-264q0-53.786 37.75-91.437 37.75-37.65 91.337-37.65 31.587 0 59.119 14.174 27.533 14.174 44.533 39.087H330.5v-96.478q0-34.483 24.259-58.742 24.258-24.259 58.741-24.259h213.246q35.124 0 59.232 24.259 24.109 24.259 24.109 58.742v94.804h61.5q42.292 0 71.896 29.604T873.087-552v234.5q0 34.483-24.259 58.741Q824.57-234.5 790.087-234.5H312q-19.196 24.913-46.139 38.25t-57.274 13.337Zm0-83q19.443 0 32.885-13.322 13.441-13.322 13.441-32.765v-264q0-19.443-13.441-32.765-13.442-13.322-32.885-13.322-19.444 0-32.765 13.322Q162.5-595.443 162.5-576v264q0 19.443 13.322 32.765 13.321 13.322 32.765 13.322ZM413.5-653.5h213.587v-94.804H413.5v94.804Zm-72 336h448.587V-552q0-8.048-5.226-13.274-5.226-5.226-13.274-5.226H341.5v253Zm260.203-136.587q15.21 0 25.71-10.289 10.5-10.29 10.5-25.5 0-15.211-10.289-25.711-10.29-10.5-25.5-10.5-15.211 0-25.711 10.29-10.5 10.289-10.5 25.5 0 15.21 10.29 25.71 10.289 10.5 25.5 10.5Zm104.173 0q15.211 0 25.711-10.289 10.5-10.29 10.5-25.5 0-15.211-10.29-25.711-10.289-10.5-25.5-10.5-15.21 0-25.71 10.29-10.5 10.289-10.5 25.5 0 15.21 10.289 25.71 10.29 10.5 25.5 10.5Zm-104.173 92.174q15.21 0 25.71-10.29 10.5-10.289 10.5-25.5 0-15.21-10.289-25.71-10.29-10.5-25.5-10.5-15.211 0-25.711 10.289-10.5 10.29-10.5 25.5 0 15.211 10.29 25.711 10.289 10.5 25.5 10.5Zm104.173 0q15.211 0 25.711-10.29 10.5-10.289 10.5-25.5 0-15.21-10.29-25.71-10.289-10.5-25.5-10.5-15.21 0-25.71 10.289-10.5 10.29-10.5 25.5 0 15.211 10.289 25.711 10.29 10.5 25.5 10.5Zm-274.963 0h60.824q17.415 0 29.589-12.024t12.174-29.476v-81.174q0-17.452-11.999-29.476-11.998-12.024-29.413-12.024h-60.825q-17.415 0-29.589 12.024T389.5-484.587v81.174q0 17.452 11.999 29.476 11.999 12.024 29.414 12.024ZM341.5-317.5v-253 253Z"/></svg>