<svg xmlns="http://www.w3.org/2000/svg" height="20" viewBox="0 -960 960 960" width="20"><path d="M534.5-440.413q16.435 0 27.772-11.957 11.337-11.956 11.337-27.152 0-3.761.119-7.38.12-3.62-1.641-6.62 11.239-3.717 19.239-13.695 8-9.979 8-23.457 0-16.435-11.337-27.772t-27.772-11.337q-12.478 0-21.956 6.62-9.479 6.619-14.196 16.619l-119.587-49.413q2-4.239 3.12-8.478 1.119-4.239 1.119-9.478 0-16.435-11.337-27.772t-27.771-11.337q-15.196 0-27.153 11.337-11.956 11.337-11.956 27.772 0 2.761.261 6.022t2.021 6.261q-11.956 3.478-20.315 13.815-8.358 10.337-8.358 24.054 0 15.196 11.956 27.152 11.957 11.957 27.152 11.957 12.479 0 21.957-6.62 9.478-6.619 14.196-17.619L500.391-498q-1 2-5 18.478 0 15.196 11.957 27.152 11.956 11.957 27.152 11.957ZM396.304-96.239q-15.761-43.565-21.902-86.989-6.141-43.424-7.641-82.707-1.5-39.282.5-71.543 2-32.261 4.761-53.5h-.12.12q-21.24-4.239-48.12-11.978-26.88-7.74-56.902-20.24-30.022-12.5-61.924-31.38t-64.185-44.163L182.478-565q39.761 35 82.261 55 42.5 20 77.381 30.5 34.88 10.5 57.38 14L422-462q17 .239 26.5 13.12Q458-436 455-419l-4.5 30.5Q446-358 445-311t6 104q7 57 29 111l-83.696-.24ZM726.218-96H648v-401q0-45-24-82.5T558-636L297.522-754.522l41.826-66.978L590.63-707.739q61.914 27.717 98.751 84.891Q726.218-565.674 726.218-497v401ZM480-96q-22-54-29-111t-6-104q1-47 5.5-77.5L455-419q3-17-6.5-29.88Q439-461.761 422-462l-22.5-3.5q-22.5-3.5-57.38-14-34.881-10.5-77.381-30.5t-82.261-55q39.761 35 82.261 55 42.5 20 77.381 30.5 34.88 10.5 57.38 14L422-462q17 .239 26.5 13.12Q458-436 455-419l-4.5 30.5Q446-358 445-311t6 104q7 57 29 111Z"/></svg>