<svg xmlns="http://www.w3.org/2000/svg" height="20" viewBox="0 -960 960 960" width="20"><path d="M355.696-207.869q-113.348 0-192.74-79.392Q83.565-366.652 83.565-480q0-112.348 79.391-192.239 79.392-79.892 192.74-79.892 112.347 0 192.119 79.892Q627.587-592.348 627.587-480q0 113.348-79.772 192.739-79.772 79.392-192.119 79.392Zm332.717-13.979q-20.108 7.87-38.337-5.185-18.228-13.054-18.228-34.88 0-11.717 6.478-22.533 6.479-10.815 18.196-14.772 60.174-18.956 98.543-68.543 38.37-49.587 38.37-112.239 0-61.652-38.37-110.239-38.369-48.587-97.543-67.543-11.717-3.957-18.196-14.153-6.478-10.195-6.478-22.152 0-23.826 17.728-36.38 17.729-12.555 39.555-4.446 81.413 25.956 133.858 96.315Q876.435-568.239 876.435-479q0 90.239-52.685 160.098-52.684 69.859-135.337 97.054Z"/></svg>