<svg xmlns="http://www.w3.org/2000/svg" height="20" viewBox="0 -960 960 960" width="20"><path d="M605.5-389.5q32.331 0 53.959-21.628 21.628-21.629 21.628-53.959v-54.5q0-32.331-21.628-54.078-21.628-21.748-53.959-21.748h-96v-54.5h133.846q16.085 0 26.913-10.84 10.828-10.839 10.828-26.863 0-15.922-10.831-26.903-10.831-10.981-26.843-10.981h-168q-17.452 0-29.476 12.024-12.024 12.024-12.024 29.476v122.913q0 17.452 12.024 29.476 12.024 12.024 29.476 12.024H605.5v54.5H471.587q-16.011 0-26.843 10.772-10.831 10.772-10.831 26.695 0 15.924 10.9 27.022 10.9 11.098 27.013 11.098H605.5ZM320.37-237.37q-34.483 0-58.742-24.258-24.258-24.259-24.258-58.742v-474.26q0-34.483 24.258-58.742 24.259-24.259 58.742-24.259h474.26q34.483 0 58.742 24.259t24.259 58.742v474.26q0 34.483-24.259 58.742-24.259 24.258-58.742 24.258H320.37Zm0-83h474.26v-474.26H320.37v474.26Zm-155 238q-34.483 0-58.742-24.258-24.259-24.259-24.259-58.742v-515.76q0-17.453 11.964-29.477 11.963-12.023 29.326-12.023t29.537 12.023q12.174 12.024 12.174 29.477v515.76h515.76q17.453 0 29.477 11.964 12.023 11.963 12.023 29.326t-12.023 29.537Q698.583-82.37 681.13-82.37H165.37Zm155-712.26v474.26-474.26Z"/></svg>