<svg xmlns="http://www.w3.org/2000/svg" height="20" viewBox="0 -960 960 960" width="20"><path d="M123.587-236.413q-26.348 0-37.783-22.989-11.434-22.989 4.479-43.859l164.413-219.217q5.956-9.196 15.032-12.674 9.076-3.478 18.272-3.478 9.196 0 18.272 3.478 9.076 3.478 15.032 12.674l151.979 203.065h280.13L552-587.804l-95.065 127.152L405-530.218l113.696-152.26q5.956-9.196 15.032-12.674 9.076-3.478 18.272-3.478 9.196 0 18.272 3.478 9.076 3.478 15.032 12.674l284.413 379.217q15.913 20.87 4.479 43.859-11.435 22.989-37.783 22.989H123.587Zm333.348-83h296.478-292.804 61.761-65.435Zm-253.37 0h169.87L288-434.739l-84.435 115.326Zm0 0h169.87-169.87Z"/></svg>