<svg xmlns="http://www.w3.org/2000/svg" height="20" viewBox="0 -960 960 960" width="20"><path d="M180.544-404.217q5.282 20.891 13.586 41.021 8.305 20.131 20.631 39.5 8.717 16.631 7.359 34.402-1.359 17.772-14.033 30.446-12.913 12.913-29.826 11.055-16.913-1.859-25.87-15.294-21.282-31.283-34.924-66.565-13.641-35.283-21.641-72.565-3.24-15.913 7.696-28.848Q114.456-444 131.609-444q17.152 0 30.565 11.315t18.37 28.468Zm34.217-232.087q-12.326 18.369-20.511 39.119-8.185 20.75-13.467 41.402-4.957 18.153-18.489 28.968Q148.761-516 131.609-516q-17.153 0-28.087-13.294-10.935-13.293-7.696-29.206 8-37.044 21.402-71.228 13.402-34.185 34.446-65.707 8.956-14.913 26.228-16.772 17.272-1.858 30.185 11.055 12.674 12.674 14.533 30.446 1.858 17.771-7.859 34.402Zm108.935 421.543q18.369 12.326 39.119 20.511 20.75 8.185 41.641 13.467 18.392 5.196 29.087 18.729 10.696 13.532 10.696 30.684 0 17.153-13.174 28.207-13.174 11.054-29.326 7.576-37.043-8-71.826-21.522-34.783-13.521-66.065-34.804-14.674-8.956-16.294-26.228-1.619-17.272 11.294-29.946 12.435-12.674 30.326-14.533 17.891-1.858 34.522 7.859Zm80.76-565.174q-21.13 5.283-41.38 13.707-20.25 8.424-39.619 20.75-16.392 8.956-34.044 7.478-17.652-1.478-30.326-14.152-12.674-12.913-11.054-30.066 1.619-17.152 15.532-26.347 31.044-21.283 66.326-34.924 35.283-13.642 72.326-21.402 15.913-3.479 28.968 7.695 13.054 11.174 13.054 28.326 0 17.153-11.315 30.566t-28.468 18.369Zm75.305 428.066q-53.348 0-90.62-37.392-37.272-37.391-37.272-90.739 0-53.348 37.272-90.739 37.272-37.392 90.62-37.392 53.348 0 90.739 37.392 37.391 37.391 37.391 90.739 0 53.348-37.391 90.739-37.391 37.392-90.739 37.392Zm156.543 137.108q16.631-9.956 34.283-7.978 17.652 1.978 30.326 14.652t11.054 29.946q-1.619 17.272-16.293 26.467-31.283 21.283-65.826 34.805-34.544 13.521-71.587 21.521-15.913 3.479-28.967-7.695-13.055-11.174-13.055-28.327 0-17.152 10.696-30.445 10.695-13.294 29.087-18.489 20.652-5.283 41.282-13.707 20.631-8.424 39-20.75Zm-80.282-564.935q-17.392-4.956-28.587-18.489-11.196-13.532-11.196-30.685 0-17.152 13.174-28.206 13.174-11.055 29.326-7.576 36.805 8 71.728 21.402 34.924 13.402 66.207 34.685 13.674 9.195 15.413 26.347 1.739 17.153-11.174 29.827-12.435 12.674-30.207 14.032-17.771 1.359-34.163-7.358-19.13-12.326-39.38-20.511-20.25-8.185-41.141-13.468Zm223.434 375.24q4.718-17.392 18.25-28.707 13.533-11.315 30.685-11.315 17.153 0 28.087 12.935 10.935 12.934 7.696 28.847-8 37.283-21.402 72.566-13.402 35.282-34.685 66.804-8.956 13.674-26.109 15.413-17.152 1.739-30.065-11.174-12.674-12.674-14.033-30.446-1.358-17.771 7.359-34.402 12.326-19.13 20.631-39.5 8.304-20.369 13.586-41.021ZM745-637.022q-9.478-16.391-7.62-34.043 1.859-17.652 14.533-30.326 12.913-12.913 29.946-11.174 17.032 1.739 26.228 16.652 21.044 31.043 34.446 65.467 13.402 34.424 21.402 71.468 3.478 15.913-7.457 29.206-10.934 13.294-28.087 13.294-17.152 0-30.685-10.816-13.532-10.815-18.489-29.206-5.282-20.891-13.587-41.522-8.304-20.63-20.63-39Z"/></svg>