<svg xmlns="http://www.w3.org/2000/svg" height="20" viewBox="0 -960 960 960" width="20"><path d="m699.957-615.196-21.446 63.218q-3.1 8.384-10.849 14.148-7.749 5.765-16.983 5.765-15.389 0-24.11-12.457-8.721-12.456-3.243-27.891l95.696-263.174q5-14.717 17.164-22.457 12.164-7.739 26.426-7.739 15.279 0 27.377 7.739 12.098 7.74 17.098 22.457l95.851 263.865q5.084 14.504-3.673 27.081-8.756 12.576-24.816 12.576-9.971 0-17.513-5.674-7.542-5.673-10.371-14.957l-21.369-62.5H699.957Zm17.522-51.869h90.912L763.789-799.13h-2.093l-44.217 132.065ZM287.283-339.739l130-194H311.609l74.63-254.435H170.63v313.913h116.653v134.522Zm-56.587 194.37q-9.196-2.479-15.533-10.367-6.337-7.889-6.337-19.459V-391.26h-42.5q-32.462 0-55.579-23.117-23.117-23.117-23.117-55.579v-318.218q0-34.483 24.259-58.741 24.259-24.259 58.741-24.259h216.566q39.698 0 64.469 31.467 24.77 31.468 13.618 70.533L421.631-616.74h40.608q36.248 0 52.494 30.892 16.246 30.891-4.624 62.196l-244.87 365.848q-6.236 8.996-15.792 11.954-9.556 2.959-18.751.481Zm56.587-328.892H170.63h116.653Z"/></svg>