<svg xmlns="http://www.w3.org/2000/svg" height="20" viewBox="0 -960 960 960" width="20"><path d="M170.87-135.869q-33.783 0-58.392-24.609T87.869-218.87v-426.26q0-33.783 24.609-58.392t58.392-24.609h112.826l50.478-65.326q12.435-14.956 29.109-22.815 16.674-7.859 35.108-7.859h163.218q18.434 0 35.108 7.859 16.674 7.859 29.109 22.815l50.478 65.326H789.13q34.783 0 58.892 24.609t24.109 58.392v426.26q0 33.783-24.109 58.392t-58.892 24.609H170.87ZM599-435q0 58-36 90t-83 32q-8 0-14.5-.5T451-316q-7-2-13-.5t-11 6.5q-10 9-7.5 21.5T434-272q11 4 22.5 6t23.5 2q68 0 118.5-47.5T647-438l11 9q8 6 17 6t16-7q7-7 7.5-17t-7.5-17l-46-42q-9-8-21.5-8.5T602-506l-44 42q-8 7-8 16.5t8 17.5q7 7 16.5 6.5T592-430l7-5Zm-287 7-12-9q-8-6-17-6.5t-16 6.5q-7 7-7.5 17t7.5 17l46 43q9 9 21.5 9t21.5-9l45-42q8-7 8-16.5t-8-17.5q-7-7-16.5-6.5T367-436l-7 5q0-52 36-86.5t84-34.5q8 0 15 .5t15 2.5q6 2 12 .5t11-6.5q10-9 8-22t-14-17q-11-4-22.5-5.5T480-601q-68 0-119 50t-49 123Z"/></svg>