<svg xmlns="http://www.w3.org/2000/svg" height="20" viewBox="0 -960 960 960" width="20"><path d="M643.456-452.891v-70.326h83.001v70.326h-83.001Zm0 70.087h-83v-70.087h83v70.087Zm0 70.087v-70.087h83.001v70.087h-83.001Zm-198-280.826-99.587-99.587H170.87v426.26h389.586v-45.847h83v45.847H789.13v-326.673H643.456v70.326h-83v-70.326h-115ZM170.87-183.869q-33.783 0-58.392-24.609T87.869-266.87v-426.26q0-34.483 24.609-58.742t58.392-24.259h174.642q16.56 0 31.568 5.837 15.007 5.837 27.681 18.511L480-676.544h309.13q34.483 0 58.742 24.259t24.259 58.742v326.673q0 33.783-24.259 58.392t-58.742 24.609H170.87Zm0-83.001v-426.26 426.26Z"/></svg>