<svg xmlns="http://www.w3.org/2000/svg" height="20" viewBox="0 -960 960 960" width="20"><path d="M177.58-281.065q-17.363 0-29.537-12.024t-12.174-29.476v-314.87q0-17.452 11.964-29.476 11.963-12.024 29.326-12.024t29.537 12.024q12.174 12.024 12.174 29.476V-521.5H373v-115.935q0-17.152 11.963-29.326 11.964-12.174 29.326-12.174 17.363 0 29.537 12.024T456-637.435v314.87q0 17.452-11.963 29.476-11.964 12.024-29.327 12.024-17.362 0-29.536-12.024Q373-305.113 373-322.565V-438.5H218.87v115.935q0 17.152-11.964 29.326-11.963 12.174-29.326 12.174Zm433.157 0q-34.519 0-58.628-24.259T528-364.065v-231.87q0-34.482 24.235-58.741t58.684-24.259h171.429q17.435 0 29.609 11.963 12.174 11.964 12.174 29.327 0 17.362-12.024 29.536-12.024 12.174-29.477 12.174H611v74.435h130.379q34.534 0 58.643 24.259 24.109 24.258 24.109 58.741v74.435q0 34.482-24.285 58.741t-58.804 24.259H610.737ZM611-438.5v74.435h130.13V-438.5H611Z"/></svg>