<svg xmlns="http://www.w3.org/2000/svg" height="20" viewBox="0 -960 960 960" width="20"><path d="M160.211-281.065q-17.363 0-29.537-12.024T118.5-322.565v-314.87q0-17.452 11.963-29.476 11.964-12.024 29.326-12.024 17.363 0 29.537 12.024t12.174 29.476V-521.5h154.13v-115.935q0-17.152 11.964-29.326 11.963-12.174 29.326-12.174t29.537 12.024q12.173 12.024 12.173 29.476v314.87q0 17.452-11.963 29.476-11.963 12.024-29.326 12.024t-29.537-12.024q-12.174-12.024-12.174-29.476V-438.5H201.5v115.935q0 17.152-11.963 29.326-11.964 12.174-29.326 12.174Zm433.156 0q-34.519 0-58.628-24.259t-24.109-58.741v-231.87q0-34.482 24.235-58.741 24.236-24.259 58.685-24.259h171.428q17.435 0 29.609 11.963 12.174 11.964 12.174 29.327 0 17.362-12.024 29.536-12.024 12.174-29.476 12.174h-171.63v74.435H724.01q34.534 0 58.642 24.259 24.109 24.258 24.109 58.741v74.435q0 34.482-24.284 58.741-24.285 24.259-58.804 24.259H593.367Zm.264-157.435v74.435h130.13V-438.5h-130.13Z"/></svg>