<svg xmlns="http://www.w3.org/2000/svg" height="20" viewBox="0 -960 960 960" width="20"><path d="M162.978-182.674q-52.094 0-88.319-36.255-36.224-36.256-36.224-88.049V-554.63q0-31.614 22.345-53.959 22.346-22.346 53.959-22.346h214.565v-102.5q0-17.452 12.024-29.476 12.024-12.024 29.476-12.024h152.892q43.587 0 74.098 30.511 30.51 30.511 30.51 74.337v134.196h48.24v-36.761q0-13.081 4.341-26.532 4.342-13.451 12.767-23.881l24.609-33.848q13.152-17.152 34.761-15.935 21.609 1.218 33.565 20.087l146.5 235.609q11.718 20.869-.206 41.522-11.924 20.652-35.294 20.652H752.848q-31.613 0-53.959-22.346-22.345-22.345-22.345-53.959v-24h-48v50.153q23 17.717 35.619 43.179 12.62 25.462 12.62 54.973 0 51.793-36.256 88.049-36.255 36.255-88.049 36.255-43.478 0-77.695-26.88-34.218-26.881-42.935-68.881H283.37q-8.718 42-42.816 68.881-34.098 26.88-77.576 26.88Zm-.082-78.696q18.988 0 32.22-13.124 13.232-13.125 13.232-32.526 0-19.402-13.125-32.484-13.124-13.083-32.526-13.083-19.401 0-32.484 13.125-13.083 13.124-13.083 32.526 0 19.401 13.39 32.484 13.389 13.082 32.376 13.082Zm389.624 0q19.402 0 32.484-13.124 13.083-13.125 13.083-32.526 0-19.402-13.125-32.484-13.124-13.083-32.526-13.083-19.401 0-32.484 13.125-13.082 13.124-13.082 32.526 0 19.401 13.124 32.484 13.125 13.082 32.526 13.082Zm277.632-172.304-74.913-119.282v119.282h74.913ZM409.913-535.891h137.783v-134.196q0-10.302-6.9-17.27-6.9-6.969-17.1-6.969H409.913v158.435Z"/></svg>