<svg xmlns="http://www.w3.org/2000/svg" height="20" viewBox="0 -960 960 960" width="20"><path d="m450.935-553.717-84.479-84.479q-5.717-5.717-9.076-13.054-3.358-7.337-3.358-16.626v-165.146q0-17.452 12.024-29.476 12.024-12.024 29.476-12.024h168.956q17.452 0 29.476 12.024 12.024 12.024 12.024 29.476v165.146q0 9.289-3.358 16.626-3.359 7.337-9.076 13.054l-84.479 84.479q-6.117 5.717-13.613 8.815-7.495 3.098-15.652 3.098t-15.652-3.098q-7.496-3.098-13.213-8.815Zm102.782 102.782q-5.717-6.117-8.815-13.613-3.098-7.495-3.098-15.652t3.098-15.652q3.098-7.496 8.815-13.213l84.479-84.479q5.717-5.717 13.054-9.076 7.337-3.358 16.626-3.358h165.146q17.452 0 29.476 12.024 12.024 12.024 12.024 29.476v168.956q0 17.452-12.024 29.476-12.024 12.024-29.476 12.024H667.876q-9.289 0-16.626-3.358-7.337-3.359-13.054-9.076l-84.479-84.479ZM85.478-395.522v-168.956q0-17.452 12.024-29.476 12.024-12.024 29.476-12.024h165.146q9.289 0 16.626 3.358 7.337 3.359 13.054 9.076l84.479 84.479q5.717 6.117 8.815 13.613 3.098 7.495 3.098 15.652t-3.098 15.652q-3.098 7.496-8.815 13.213l-84.479 84.479q-5.717 5.717-13.054 9.076-7.337 3.358-16.626 3.358H126.978q-17.452 0-29.476-12.024-12.024-12.024-12.024-29.476Zm268.544 268.544v-165.146q0-9.289 3.358-16.626 3.359-7.337 9.076-13.054l84.479-84.479q6.117-5.717 13.613-8.815 7.495-3.098 15.652-3.098t15.652 3.098q7.496 3.098 13.213 8.815l84.479 84.479q5.717 5.717 9.076 13.054 3.358 7.337 3.358 16.626v165.146q0 17.452-12.024 29.476-12.024 12.024-29.476 12.024H395.522q-17.452 0-29.476-12.024-12.024-12.024-12.024-29.476Z"/></svg>