<svg xmlns="http://www.w3.org/2000/svg" height="20" viewBox="0 -960 960 960" width="20"><path d="M170.87-87.87q-34.483 0-58.742-24.258-24.259-24.259-24.259-58.742v-618.26q0-34.483 24.259-58.742t58.742-24.259h618.26q33.783 0 58.392 24.259t24.609 58.742v618.26q0 34.483-24.609 58.742T789.13-87.869H170.87Zm0-83h618.26v-618.26H170.87v618.26Zm204.21-222.26q-15.21 0-25.71-10.29-10.5-10.289-10.5-25.5 0-15.21 10.289-25.71 10.29-10.5 25.5-10.5 15.211 0 25.711 10.289 10.5 10.29 10.5 25.5 0 15.211-10.29 25.711-10.289 10.5-25.5 10.5Zm210.261 0q-15.211 0-25.711-10.29-10.5-10.289-10.5-25.5 0-15.21 10.29-25.71 10.289-10.5 25.5-10.5 15.21 0 25.71 10.289 10.5 10.29 10.5 25.5 0 15.211-10.289 25.711-10.29 10.5-25.5 10.5ZM277.87-264.717q17 0 28.5-12t9.5-29l-1-3.413h330.26v7.413q0 15 11 26t26 10q15-1 25-11.063 10-10.062 10-24.937v-184.5q0-7.652-1.239-14.757-1.239-7.105-3.478-13.83l-45.891-123.913q-9.196-24.348-30.532-39.381-21.335-15.032-47.751-15.032H372.761q-26.416 0-47.751 15.032-21.336 15.033-30.532 39.381l-45.891 123.913q-2.239 6.956-3.978 13.986-1.739 7.03-1.739 14.601v186.5q0 14 10.5 24.5t24.5 10.5Zm60-284.413 27-72h232.26l26 72H337.87Zm-167-240v618.26-618.26Zm144 408v-96h330.26v96H314.87Z"/></svg>