<svg xmlns="http://www.w3.org/2000/svg" height="20" viewBox="0 -960 960 960" width="20"><path d="M579.181-218.87q15.928 0 27.025-11.007 11.098-11.006 11.098-26.695 0-15.928-10.887-27.026-10.887-11.098-26.815-11.098t-27.026 10.888q-11.098 10.887-11.098 26.815 0 15.689 10.887 26.906 10.888 11.217 26.816 11.217Zm99.826 0q15.928 0 27.026-11.007 11.097-11.006 11.097-26.695 0-15.928-10.887-27.026-10.887-11.098-26.815-11.098-15.689 0-26.906 10.888-11.218 10.887-11.218 26.815 0 15.689 11.007 26.906 11.007 11.217 26.696 11.217ZM135.869-434.63v-354.5q0-34.783 24.259-58.892t58.742-24.109h522.26q34.483 0 58.742 24.259t24.259 58.742v354.5H135.869ZM218.87-87.87q-34.483 0-58.742-24.258-24.259-24.259-24.259-58.742v-191.76h688.262v191.76q0 34.483-24.259 58.742T741.13-87.869H218.87Z"/></svg>