<svg xmlns="http://www.w3.org/2000/svg" height="20" viewBox="0 -960 960 960" width="20"><path d="M190.804-329.782q-62.869 0-106.543-43.674Q40.587-417.13 40.587-480T84.26-586.544q43.674-43.674 106.543-43.674 62.87 0 106.544 43.674T341.022-480q0 62.87-43.674 106.544t-106.544 43.674Zm484.052 94.086q-101.899 0-173.095-71.255T430.565-480q0-101.794 71.256-173.049 71.255-71.255 173.049-71.255 101.893 0 173.218 71.255Q919.413-581.794 919.413-480q0 101.794-71.329 173.049-71.329 71.255-173.228 71.255Zm-.01-83q67.347 0 114.457-46.967T836.413-480q0-67.37-47.11-114.337t-114.457-46.967q-67.346 0-114.313 46.967Q513.565-547.37 513.565-480t46.968 114.337q46.967 46.967 114.313 46.967Z"/></svg>