<svg xmlns="http://www.w3.org/2000/svg" height="20" viewBox="0 -960 960 960" width="20"><path d="M480-404.696q-100.109 0-170.62-68.891-70.511-68.891-70.511-166t70.511-166.62q70.511-69.511 170.62-69.511 100.109 0 171.12 69.511 71.011 69.511 71.011 166.62 0 97.109-71.011 166T480-404.696Zm330 238.109h-36.5q-15.829 0-26.871-11.042-11.042-11.042-11.042-26.871 0-15.829 11.042-26.871 11.042-11.042 26.871-11.042H810v-36.5q0-15.725 11.042-26.699 11.042-10.975 26.871-10.975 15.725 0 26.7 10.975 10.974 10.974 10.974 26.699v36.5h36.5q15.829 0 26.871 11.042Q960-220.329 960-204.5q0 15.829-11.042 26.871-11.042 11.042-26.871 11.042h-36.5v36.5q0 15.725-10.973 26.7-10.972 10.974-26.695 10.974t-26.821-11.042Q810-114.497 810-130.326v-36.261Zm-306 38.174v-164.413q0-15.725 11.042-26.7 11.042-10.974 26.871-10.974H648q32.152 0 53.87 21.718 21.717 21.717 21.717 53.869v22.33q0 16.04-5.402 32.04t-21.402 23.478l15.326 32.456q8.478 18.957-2.56 36.533T677.435-90.5q-11.718 0-20.457-5.859-8.739-5.858-14.217-16.097l-20.848-45.739h-42.326v30.021q0 15.726-10.973 26.7Q557.642-90.5 541.919-90.5t-26.821-11.042Q504-112.584 504-128.413Zm75.587-104.174H648v-22.326h-68.413v22.326Zm-504 60.718v43.695q0 15.726-10.973 26.7Q53.642-90.5 37.92-90.5t-26.821-10.974Q0-112.448 0-128.174v-164.652q0-15.725 11.042-26.7Q22.084-330.5 37.913-330.5q15.726 0 26.7 10.974 10.974 10.975 10.974 26.7v47.044H144v-47.044q0-15.725 11.042-26.7 11.042-10.974 26.871-10.974 15.725 0 26.7 10.974 10.974 10.975 10.974 26.7v164.652q0 15.726-10.973 26.7Q197.642-90.5 181.919-90.5t-26.821-11.042Q144-112.584 144-128.413v-43.456H75.587ZM264-128.413v-164.413q0-15.725 11.042-26.7 11.042-10.974 26.871-10.974H384q32.152 0 53.87 21.718 21.717 21.717 21.717 53.869v88.826q0 32.152-21.717 53.87Q416.152-90.5 384-90.5h-82.087q-15.829 0-26.871-11.042Q264-112.584 264-128.413Zm75.587-37.674H384v-88.826h-44.413v88.826Z"/></svg>