<svg xmlns="http://www.w3.org/2000/svg" height="20" viewBox="0 -960 960 960" width="20"><path d="M432-456v70.913q0 11.044 7.022 18.065Q446.043-360 457.087-360h46.065q12.283 0 18.565-7.022Q528-374.043 528-385.087V-456h71.152q12.283 0 18.565-7.022Q624-470.043 624-481.087v-46.065q0-12.283-6.283-18.565Q611.435-552 599.152-552H528v-71.152q0-12.283-6.283-18.565Q515.435-648 503.152-648h-46.065q-11.044 0-18.065 6.283Q432-635.435 432-623.152V-552h-70.913q-11.044 0-18.065 6.283Q336-539.435 336-527.152v46.065q0 11.044 7.022 18.065Q350.043-456 361.087-456H432Zm48 363.652q-6.717 0-13.674-.62-6.956-.619-12.913-2.858-132.674-43.478-213.109-162.109Q159.869-376.565 159.869-515v-177.848q0-26.587 14.413-47.456 14.414-20.87 38.761-30.066l237.131-90.804q14.674-5.717 29.826-5.717 15.152 0 29.826 5.717l237.131 90.804q24.347 9.196 38.761 30.066 14.413 20.869 14.413 47.456V-515q0 138.435-80.435 257.065-80.435 118.631-213.109 162.11-5.957 2.238-12.913 2.858-6.957.62-13.674.62Zm0-81.282q102.326-33.435 169.728-129Q717.13-398.196 717.13-515v-177.848L480-783.652l-237.13 90.804V-515q0 116.804 67.402 212.37 67.402 95.565 169.728 129Zm0-304.892Z"/></svg>