<svg xmlns="http://www.w3.org/2000/svg" height="20" viewBox="0 -960 960 960" width="20"><path d="m750.872-112.939-49.611-48.604q-49.583 32.956-105.696 50.315-56.112 17.359-115.033 17.359-81.507 0-152.908-30.618-71.401-30.618-124.96-84.177-53.559-53.559-84.177-124.96-30.618-71.401-30.618-152.908 0-58.921 17.359-115.033 17.359-56.113 50.315-105.696l-49.41-50.611q-11.46-11.498-11.46-26.121t11.504-26.076q11.504-11.453 26.862-11.453 15.359 0 26.504 11.478l644.659 644.42q11.559 11.559 11.44 26.578-.12 15.019-11.573 26.133-11.12 11.478-26.41 11.478-15.289 0-26.787-11.504ZM480-176.87q43.03 0 83.559-11.76 40.528-11.761 76.811-34.044L216.674-646.37q-22.522 36.283-34.163 76.719Q170.87-529.215 170.87-486q0 128.718 90.206 218.924Q351.282-176.87 480-176.87Zm327.087-93.413-61.37-60.369q20.087-35.566 31.75-74.806Q789.13-444.698 789.13-486q0-128.718-90.206-218.924Q608.718-795.13 480-795.13q-40.609 0-80.196 11.163-39.586 11.163-75.152 31.25l-61.369-60.37q48.865-31.522 103.749-48.283 54.884-16.761 112.87-16.761 82.011 0 152.943 30.618 70.932 30.618 124.491 84.177 53.559 53.559 84.177 124.491 30.618 70.932 30.618 152.943 0 57.986-16.761 112.523t-48.283 103.096ZM540.304-540.304ZM431.522-431.522Z"/></svg>