<svg xmlns="http://www.w3.org/2000/svg" height="20" viewBox="0 -960 960 960" width="20"><path d="M373.848-135.869q-69.587 0-113.642-51.87-44.054-51.87-35.576-120.696l55.957-410.913q1.76-11.403 8.426-20.268t16.922-13.036l307.348-123.435q19.63-7.718 37.485 2.954 17.855 10.671 20.167 31.35l63.956 536.305q8.718 67.868-35.695 118.738-44.413 50.871-114 50.871H373.848Zm0-82.761h211.348q30.326 0 51.01-23.066 20.685-23.065 17.164-53.391l-15.854-131.174h-314.32l-17.522 130.174q-4.761 30.766 16.172 54.111 20.934 23.346 52.002 23.346Zm-15.457-465.174-23.282 174.782h292.304L595.13-778.413l-236.739 94.609Zm120.892 257.543Zm1.239-82.761Zm0 82.761v-82.761 82.761Z"/></svg>