<svg xmlns="http://www.w3.org/2000/svg" height="20" viewBox="0 -960 960 960" width="20"><path d="M386.87-628.304h186.26v-64.826H386.87v64.826Zm-209.5 444.435q-17.453 0-29.477-12.024-12.024-12.024-12.024-29.477v-139.934h150.218q0 15.3 10.35 25.65 10.35 10.35 25.65 10.35h11q15.3 0 25.65-10.35 10.35-10.35 10.35-25.65h221.826q0 15 10.289 25.5 10.29 10.5 25.5 10.5h11.001q15.21 0 25.579-10.35t10.369-25.65h150.48v139.934q0 17.453-12.024 29.477-12.024 12.024-29.477 12.024H177.37ZM135.869-422.87v-122.434q0-34.483 24.259-58.742 24.259-24.258 58.742-24.258h84.999v-65.039q0-34.57 24.259-58.679t58.742-24.109h186.26q34.483 0 58.742 24.259t24.259 58.742v64.826h84.999q34.483 0 58.742 24.258 24.259 24.259 24.259 58.742v122.434H673.913v-24q0-15.3-10.289-25.65-10.29-10.35-25.5-10.35h-11.001q-15.21 0-25.71 10.35t-10.5 25.65v24H369.087v-24q0-15.3-10.289-25.65-10.29-10.35-25.5-10.35h-11.001q-15.21 0-25.71 10.35t-10.5 25.65v24H135.869Z"/></svg>