<svg xmlns="http://www.w3.org/2000/svg" height="20" viewBox="0 -960 960 960" width="20"><path d="M216-88.587q-34.483 0-58.741-24.259Q133-137.104 133-171.587V-336l124.696-140.696 58.891 57.892L244.304-336h471.392l-81.522-93.283 58.891-58.891L827-336v164.022q0 35.174-24.259 59.282-24.258 24.11-58.741 24.11H216Zm0-83h528V-264H216v92.413Zm213.109-233.826L299.37-535.63q-17.348-17.588-17.348-41.512t17.348-41.271l197.217-197.218q17.348-17.348 41.152-17.109 23.805.24 41.152 17.827L708.63-684.935q17.348 17.587 16.99 41.63-.359 24.044-17.707 41.392l-196.5 196.5q-17.348 17.348-41.152 17.467-23.805.12-41.152-17.467Zm203.869-239.109-95.217-94.5-162.739 162.739L470-481.544l162.978-162.978ZM216-171.587V-264v92.413Z"/></svg>