<svg xmlns="http://www.w3.org/2000/svg" height="20" viewBox="0 -960 960 960" width="20"><path d="M132-86.913q-17.452 0-29.476-11.963Q90.5-110.84 90.5-128.202q0-17.363 12.024-29.537T132-169.913h126.5v-68.174h-38.435q-33.645 0-57.605-23.96-23.96-23.96-23.96-57.605V-762.5q0-34.483 24.259-58.741Q187.017-845.5 221.5-845.5h167.804q34.483 0 58.742 24.259 24.258 24.258 24.258 58.741v46.565H356.413q-9.6 0-16.8 7.2-7.2 7.2-7.2 16.8 0 9.6 7.2 16.8 7.2 7.2 16.8 7.2h116.848V-672v50.152H356.413q-9.6 0-16.8 7.2-7.2 7.2-7.2 16.8 0 9.6 7.2 16.8 7.2 7.2 16.8 7.2h134.392q12.434 17.326 34.032 21.152 21.598 3.826 42.359 9.826l90.326 25.892q47.674 13.956 80.869 48.772 33.196 34.816 33.196 83.489v66.978q0 33.048-23.302 56.35t-56.35 23.302H653.5v68.174H720q47.848 0 81.174-33.326 33.326-33.326 33.326-81.174 0-17.452 11.963-29.476 11.964-12.024 29.326-12.024 17.363 0 29.537 12.024t12.174 29.476q0 81.963-57.769 139.731Q801.963-86.912 720-86.912H132Zm209.5-83h229v-68.174h-229v68.174Z"/></svg>