<svg xmlns="http://www.w3.org/2000/svg" height="20" viewBox="0 -960 960 960" width="20"><path d="M170.87-183.869q-34.483 0-58.742-24.271t-24.259-58.77v-426.504q0-32.586 22.988-56.097 22.988-23.511 56.317-25.902h11v95.783L81-776.804Q69.522-788.283 70.022-803q.5-14.717 11.978-26.196 11.478-11.478 26.076-11.478t26.428 11.815l698.405 697.957q11.83 11.815 11.711 26.834-.12 15.019-11.598 26.133-11.478 11.479-26.576 11.979T779.87-76.935L672.935-183.869H170.87Zm0-83.001h419.065l-349-348.999H170.87v348.999Zm683.261 50.392-65.001-65.001v-334.39H454.74L294.478-776.131H789.13q34.483 0 58.742 24.259t24.259 58.742v426.26q0 14.511-5 28.093-5 13.581-13 22.299ZM724.304-346.304l-56.608-56.609v-96.783h-96.783l-56.609-56.608h168.5q17.453 0 29.477 12.023 12.023 12.024 12.023 29.477v168.5Z"/></svg>