<svg xmlns="http://www.w3.org/2000/svg" height="20" viewBox="0 -960 960 960" width="20"><path d="m113.13-589.652 134.544-234.653q5.82-10.378 15.549-15.504 9.73-5.126 20.233-5.126 10.504 0 20.233 5.126 9.73 5.126 15.55 15.504l134.305 234.653q5.956 10.434 5.837 21.489-.12 11.054-5.803 20.242-5.683 9.187-14.413 14.913-8.73 5.725-21.25 5.725H148.759q-12.52 0-21.25-5.725-8.73-5.726-14.413-14.913-5.683-9.188-5.803-20.242-.119-11.055 5.837-21.489Zm170.566 460.957q-63.354 0-107.743-44.565-44.388-44.565-44.388-107.146 0-63.529 44.387-107.92t107.739-44.391q63.352 0 107.624 44.387t44.272 107.739q0 63.352-44.318 107.624t-107.573 44.272Zm.204-83.001q28.6 0 48.643-20.299 20.044-20.299 20.044-48.804 0-28.604-20.299-48.761-20.3-20.157-48.805-20.157-28.604 0-48.761 20.367-20.157 20.367-20.157 48.967 0 28.601 20.367 48.644t48.968 20.043Zm-62.422-398.587h123.957l-61.979-109.913-61.978 109.913Zm308.435 440.128v-220.779q0-17.436 12.012-29.609 12.013-12.174 29.448-12.174h220.779q17.435 0 29.609 12.012 12.174 12.012 12.174 29.447v220.78q0 17.435-12.012 29.609-12.012 12.174-29.448 12.174H571.696q-17.435 0-29.609-12.013-12.174-12.012-12.174-29.447Zm83-41.541h138.022v-138.021H612.913v138.021Zm42.544-337.934-52.196-44.196q-66.587-56.348-89.467-87.142-22.881-30.793-22.881-70.367 0-45.448 29.554-76.263 29.555-30.815 77.362-30.815 26.043 0 46.98 10.627 20.937 10.627 37.235 32.851 16.34-22.224 37.839-32.851 21.5-10.627 47.249-10.627 47.173 0 76.608 30.576 29.434 30.577 29.434 76.641 0 39.435-22.38 69.228-22.381 29.794-88.968 87.142l-53.195 45.196q-11.333 9.434-26.417 9.434-15.083 0-26.757-9.434Zm26.587-88.957q65.847-55.326 86.989-75.75 21.141-20.424 21.141-35.468 0-9.713-7.231-17.422-7.232-7.708-16.638-7.708-7.602 0-13.975 3.761-6.373 3.761-11.134 9.043l-59.152 53.479-57.913-53.479q-5.761-5.282-12.49-9.043-6.729-3.761-13.597-3.761-9.668 0-16.899 7.708-7.232 7.709-7.232 17.422 0 16.044 22.142 36.968 22.141 20.924 85.989 74.25Zm0-72.935Zm-397.588 52.783Zm.24 375.152Zm396.109 0Z"/></svg>