<svg xmlns="http://www.w3.org/2000/svg" height="20" viewBox="0 -960 960 960" width="20"><path d="M480-135.869q-128.109 0-218.12-88.892Q171.869-313.652 171.869-440q0-61.674 23.098-115.848t63.533-95.13l177.761-179.761q9.195-9.435 20.13-13.913 10.935-4.479 23.609-4.479 12.674 0 23.609 4.479 10.935 4.478 20.13 13.913L702.5-649.978q39.435 40.956 62.533 94.63Q788.131-501.674 788.131-440q0 126.348-90.011 215.239-90.011 88.892-218.12 88.892Zm0-83.001v-538.065L317.152-591.848q-30.282 31.761-46.282 70.044-16 38.282-16 81.804 0 91.804 65.663 156.467Q386.196-218.87 480-218.87Z"/></svg>