<svg xmlns="http://www.w3.org/2000/svg" height="20" viewBox="0 -960 960 960" width="20"><path d="m294.913-438.5 88.674 88.674q12.674 12.674 12.674 29.326t-12.674 29.326Q370.913-278.5 354.261-278.5t-29.326-12.674l-159.79-159.55q-5.928-5.928-9.026-13.424-3.097-7.495-3.097-15.652t3.097-15.652q3.098-7.496 8.816-13.613l160-159.761q12.674-12.674 29.326-12.674t29.326 12.674q12.674 12.674 12.674 29.326t-12.674 29.326L294.913-521.5H741.13V-588q0-17.452 11.964-29.476Q765.057-629.5 782.42-629.5t29.537 12.024q12.174 12.024 12.174 29.476v66.5q0 34.483-24.259 58.741Q775.613-438.5 741.13-438.5H294.913Z"/></svg>