<svg xmlns="http://www.w3.org/2000/svg" height="20" viewBox="0 -960 960 960" width="20"><path d="M479.767-79.5q-72.397 0-123.191-50.958-50.794-50.959-50.794-123.259v-399.066q-30.478-2.152-51.239-24.534-20.761-22.382-20.761-53.09v-72.125q0-32.316 22.977-55.142Q279.735-880.5 312-880.5h336q32.265 0 55.241 23.013 22.977 23.012 22.977 55.328v72.125q0 30.708-20.911 52.903-20.911 22.196-51.089 24.348v399.066q0 72.3-51.027 123.259Q552.164-79.5 479.767-79.5Zm.233-80.609q38.523 0 65.348-26.684 26.826-26.685 27.304-65.011H516q-16.974 0-28.639-11.605t-11.665-28.489q0-16.884 11.665-28.7 11.665-11.815 28.639-11.815h57.609v-48H516q-16.974 0-28.639-11.605-11.665-11.604-11.665-28.489 0-16.884 11.665-28.7 11.665-11.815 28.639-11.815h57.609v-48H516q-16.974 0-28.639-11.605-11.665-11.604-11.665-28.489 0-16.884 11.665-28.699 11.665-11.816 28.639-11.816h57.609v-62.434H386.391v398.348q0 39.003 27.303 66.306 27.302 27.302 66.306 27.302Z"/></svg>