<svg xmlns="http://www.w3.org/2000/svg" height="20" viewBox="0 -960 960 960" width="20"><path d="M438.5-221.5v-149.522L158.261-691.5q-8.718-11.196-13.576-24.64-4.859-13.445-4.859-27.586 0-33.144 23.175-56.774 23.175-23.631 56.477-23.631h521.044q33.302 0 56.477 23.631 23.175 23.63 23.175 56.774 0 14.141-4.859 27.586-4.858 13.444-13.576 24.64L521.5-371.022V-221.5H684q17.452 0 29.476 11.963 12.024 11.964 12.024 29.326 0 17.363-12.024 29.537T684-138.5H276q-17.452 0-29.476-11.963-12.024-11.964-12.024-29.326 0-17.363 12.024-29.537T276-221.5h162.5ZM286.065-672h387.87l60.369-69.13H225.696L286.065-672ZM480-450.304 610.935-600h-261.87L480-450.304Zm0 0Z"/></svg>