<svg xmlns="http://www.w3.org/2000/svg" height="20" viewBox="0 -960 960 960" width="20"><path d="m770.131-297.37-60.609-59.608q15.565-31.326 23.587-61.892 8.021-30.565 8.021-61.13 0-109.043-76.043-185.087Q589.043-741.13 480-741.13q-31.043 0-61.87 8.021-30.826 8.022-61.152 23.587l-59.608-60.609q34.282-21.76 69.663-34.021 35.38-12.261 73.38-17.261v-58.652q0-16.435 11.576-28.011T480-919.652q16.435 0 28.011 11.576t11.576 28.011v58.652q121.478 14.239 204.533 97.793 83.054 83.555 97.293 204.033h58.652q16.435 0 28.011 11.576T919.652-480q0 16.435-11.576 28.011t-28.011 11.576h-58.652q-4 36-16.141 72.38-12.141 36.381-35.141 70.663ZM440.413-79.935v-58.652Q318.935-152.826 235.88-236.38q-83.054-83.555-97.293-204.033H79.935q-16.435 0-28.011-11.576T40.348-480q0-16.435 11.576-28.011t28.01-11.576h58.653q5-37 17.141-72.641 12.141-35.642 34.141-70.642L109.978-743q-11.717-11.717-11.598-26.696.12-14.978 11.837-26.695 11.718-11.718 26.696-11.718 14.978 0 26.696 11.718l632.782 632.782q11.479 11.479 11.479 26.316t-11.479 26.315Q784.913-99.261 769.576-99.5q-15.337-.239-26.815-11.717l-80.131-78.892q-34.521 21.761-70.641 34.142-36.119 12.38-72.402 17.38v58.652q0 16.435-11.576 28.011T480-40.348q-16.435 0-28.011-11.576t-11.576-28.01ZM480-218.87q30.848 0 61.815-7.663t61.446-23.945L250.478-603.261q-16.043 32-23.826 62.109-7.782 30.109-7.782 61.152 0 109.043 76.043 185.087Q370.957-218.87 480-218.87Z"/></svg>