<svg xmlns="http://www.w3.org/2000/svg" height="20" viewBox="0 -960 960 960" width="20"><path d="m480-392.217 55.174 42.13q12.674 9.196 24.728.5 12.055-8.696 7.576-23.609l-21.565-68.456 60.174-48.13q11.674-9.196 7.076-22.99-4.598-13.793-19.75-13.793h-70.945l-22.838-68.457q-4.478-14.913-19.63-14.913t-19.63 14.913l-22.506 68.457h-70.87q-15.559 0-20.157 13.793-4.598 13.794 6.837 22.99l60.413 48.13-21.565 68.695q-4.479 14.914 7.695 23.49 12.174 8.576 24.609-.62L480-392.217ZM170.87-183.869q-34.483 0-58.742-24.218-24.259-24.217-24.259-58.641v-122.696q0-9.88 6.31-17.145 6.308-7.266 16.41-9.112 21.802-6.906 35.541-24.091 13.739-17.185 13.739-40.228 0-23.283-13.739-40.467-13.739-17.185-35.541-23.819-10.102-1.838-16.41-9.07-6.31-7.231-6.31-17.34v-122.62q0-34.406 24.259-58.611 24.259-24.204 58.742-24.204h618.26q34.483 0 58.742 24.218 24.259 24.217 24.259 58.641v122.935q0 9.881-6.309 17.026-6.309 7.146-16.411 8.992-21.802 6.667-35.541 23.852-13.739 17.184-13.739 40.467 0 23.043 13.739 40.228 13.739 17.185 35.541 24.058 10.102 1.838 16.411 8.95 6.309 7.112 6.309 17.22v122.86q0 34.406-24.259 58.61-24.259 24.205-58.742 24.205H170.87Zm0-83.001h618.26v-86.934q-31.76-19.239-51.88-52.598-20.12-33.359-20.12-73.598 0-40.478 20.12-73.717 20.12-33.24 51.88-52.479v-86.934H170.87v86.934q32.239 19.239 52.119 52.479Q242.87-520.478 242.87-480q0 40.239-19.881 73.598-19.88 33.359-52.119 52.598v86.934ZM480-480Z"/></svg>