<svg xmlns="http://www.w3.org/2000/svg" height="20" viewBox="0 -960 960 960" width="20"><path d="M480-747.587q-20 0-34-13.91-14-13.911-14-33.698 0-14.247 5.261-25.7t25.958-44.301q5.466-8.717 16.721-8.717 11.256 0 16.841 8.717 20.697 32.848 25.958 44.062Q528-809.92 528-795.503q0 19.916-14 33.916-14 14-34 14Zm-192 0q-20 0-34-13.91-14-13.911-14-33.698 0-14.247 5.261-25.7t25.958-44.301q5.466-8.717 16.721-8.717 11.256 0 16.841 8.717 20.697 32.848 25.958 44.062Q336-809.92 336-795.503q0 19.916-14 33.916-14 14-34 14Zm384 0q-20 0-34-13.91-14-13.911-14-33.698 0-14.247 5.261-25.7t25.958-44.301q5.466-8.717 16.721-8.717 11.256 0 16.841 8.717 20.697 32.848 25.958 44.062Q720-809.92 720-795.503q0 19.916-14 33.916-14 14-34 14Zm-431.283 611v19.696q0 21.793-15.255 37.049-15.256 15.255-37.049 15.255-21.674 0-37.109-15.435-15.435-15.434-15.435-37.108v-277.238q0-7.66 1.62-15.081 1.62-7.421 4.098-15.377l72.475-179.392q9.242-23.804 30.253-38.217t46.598-14.413h378.174q25.587 0 46.598 14.413t30.253 38.217l72.475 179.392q2.478 7.956 4.098 15.377 1.62 7.421 1.62 15.081v277.477q0 21.793-15.256 37.049-15.255 15.255-37.049 15.255-21.674 0-37.109-15.435-15.434-15.434-15.434-37.108v-19.457H240.717Zm3.631-320.13h471.304l-46.804-117.131H291.152l-46.804 117.131Zm69.087 202.565q20 0 34-14t14-34q0-20-14-34t-34-14q-20 0-34 14t-14 34q0 20 14 34t34 14Zm333.13 0q20 0 34-14t14-34q0-20-14-34t-34-14q-20 0-34 14t-14 34q0 20 14 34t34 14Z"/></svg>