<svg xmlns="http://www.w3.org/2000/svg" height="20" viewBox="0 -960 960 960" width="20"><path d="M744-703.217q-50.957 0-86.674-35.718-35.717-35.717-35.717-86.674 0-50.956 35.717-86.674Q693.043-948 744-948q50.957 0 86.674 35.717 35.717 35.718 35.717 86.674 0 50.957-35.717 86.674-35.717 35.718-86.674 35.718ZM231.869-231.869l-73.317 73.317q-19.748 19.748-45.215 9.026-25.468-10.721-25.468-38.496V-789.13q0-34.483 24.259-58.742t58.742-24.259h385.326q-6.392 20.153-6.729 41.142-.337 20.989 3.381 41.859 12.478 69.717 66.445 113.695Q673.261-631.456 744-631.456q34.87 0 68.022-12.794 33.152-12.793 60.109-35.902v365.282q0 34.483-24.259 58.742t-58.742 24.259H231.869Z"/></svg>