<svg xmlns="http://www.w3.org/2000/svg" height="20" viewBox="0 -960 960 960" width="20"><path d="M480-329.652 315.043-164.696q-12.673 12.674-28.945 12.055-16.272-.62-28.707-13.055-12.674-12.674-12.674-29.326t12.674-29.326l140.783-140.783q19.043-19.043 29.685-44.206Q438.5-434.5 438.5-462.304v-202.783l-28.174 28.174Q397.652-624.239 381-624.239t-29.326-12.674Q339-649.587 339-666.239t12.674-29.326l99.261-99.261Q463.609-807.5 480-807.5q16.391 0 29.065 12.674l99.261 99.261Q621-682.891 621-666.739t-12.674 28.826Q595.652-625.239 579-625.119q-16.652.119-29.326-12.555L521.5-665.087v202.783q0 27.804 10.641 52.967 10.642 25.163 29.685 44.206l141.783 141.783q12.674 12.674 12.554 28.946-.119 16.272-12.554 28.706-12.674 12.674-29.326 12.674-16.653 0-29.326-12.674L480-329.652Z"/></svg>