<svg xmlns="http://www.w3.org/2000/svg" height="20" viewBox="0 -960 960 960" width="20"><path d="M783.218-78.174 75.261-785.89q-11.718-11.718-11.218-26.196.5-14.478 12.218-26.196Q87.978-850 102.696-850q14.717 0 26.434 11.717l707.479 707.718q11.717 11.717 11.717 26.195 0 14.479-11.717 26.196-11.718 11.718-26.696 11.718-14.978 0-26.695-11.718ZM184.587-724.196l83 83v397.609h409.609l93.217 93.217v37.261q0 30.119-23.231 51.32-23.231 21.202-54.769 21.202H267.587q-34.483 0-58.741-24.259-24.259-24.258-24.259-58.741v-600.609Zm83 552.609v48h419.826v-48H267.587Zm507.826-664.826V-294l-83-83v-339.413H352.761L196.522-872.174q9.195-21.717 27.75-34.478 18.554-12.761 44.511-12.761h423.63q33.783 0 58.391 24.609 24.609 24.608 24.609 58.391Zm-496.565 48h413.565v-48H278.848v48Zm-11.261 616.826v48-48Zm11.261-616.826v-48 48Z"/></svg>