<svg xmlns="http://www.w3.org/2000/svg" height="20" viewBox="0 -960 960 960" width="20"><path d="M186.5-227.522v-62.63l81.804-81.805v144.674q0 17.213-11.724 28.998T227.732-186.5q-17.123 0-29.178-11.904-12.054-11.905-12.054-29.118Zm126.239 0v-188.869l76.044-76.044 6 6v258.974q0 17.091-11.725 29.026-11.724 11.935-29.087 11.935-17.362 0-29.297-11.785-11.935-11.785-11.935-29.237Zm126.478 0v-204.913l81.805 81.565v123.587q0 17.213-11.724 28.998Q497.573-186.5 480.45-186.5q-17.124 0-29.178-11.904-12.055-11.905-12.055-29.118Zm126.239 0v-153.826l81.805-81.804v235.869q0 17.213-11.724 28.998-11.725 11.785-28.848 11.785-17.124 0-29.178-11.904-12.055-11.905-12.055-29.118Zm126.24 0v-279.826l81.804-81.804v361.869q0 17.213-11.724 28.998T732.928-186.5q-17.124 0-29.178-11.904-12.054-11.905-12.054-29.118ZM199.174-496.739l126.174-126.174q24.348-24.348 58.652-24.348t58.462 24.157L528-537.565 701.935-711.5q12.674-12.674 30.065-12.674 17.391 0 30.304 12.674Q774.5-698.826 774-682.174t-13.174 29.326L586.652-478.674Q562.304-454.326 528-454.326t-58.462-24.157L384-564.022 258.065-438.087Q245.391-425.413 228-425.413q-17.391 0-30.304-12.674Q185.5-450.761 186-467.413t13.174-29.326Z"/></svg>