<svg xmlns="http://www.w3.org/2000/svg" height="20" viewBox="0 -960 960 960" width="20"><path d="M739.913-246.261h-97.768q-17.32 0-29.254-11.963-11.934-11.964-11.934-29.326 0-17.363 11.934-29.537t29.254-12.174h97.768l-22.391-23.391Q705.087-365.087 705.206-381q.12-15.913 13.116-28.909 12.83-12.83 29.363-12.83t29.446 12.913l90.76 93q12.674 12.397 12.674 28.927 0 16.529-12.674 29.203l-91 93q-12.913 12.914-29.684 12.555-16.772-.359-29.924-13.511-12.435-12.435-12.435-28.109 0-15.674 12.435-28.109l22.63-23.391ZM408-386.391q49 0 92-21.5t68-63.5q-35-27-75.5-43t-84.5-16q-44 0-84.5 16t-75.5 43q25 42 68 63.5t92 21.5Zm.212-192q29.788 0 50.788-21.213 21-21.212 21-51 0-29.787-21.212-50.787-21.213-21-51-21-29.788 0-50.788 21.212-21 21.212-21 51t21.212 50.788q21.213 21 51 21ZM408-493.913Zm-.057 381.609q-13.9 0-26.258-4.739-12.358-4.739-24.033-14.218-41.435-35.717-88.891-82.956-47.457-47.239-88.055-101.718-40.597-54.478-66.717-114.054-26.12-59.576-26.12-119.968 0-137.28 91.452-229.727T407.5-872.131q136.727 0 228.679 92.447t91.952 229.727q0 9.469-.881 19.463-.88 9.994-2.233 19.081h-84.93q2.522-9.929 3.783-19.638 1.26-9.708 1.26-18.906 0-103.318-67.671-171.246-67.672-67.927-169.467-67.927-101.796 0-169.459 67.927-67.663 67.928-67.663 171.246 0 73.392 59.902 160.283 59.902 86.891 177.704 192.217 20.611-18.565 38.676-35.271 18.065-16.707 34.87-34.272l9.272 9.273q9.273 9.272 20.131 20.25 10.858 10.977 20.173 20.173l9.315 9.195q-22.239 23-44.739 43.761-22.5 20.761-37.826 33.087-11.707 9.479-24.106 14.218-12.4 4.739-26.299 4.739Z"/></svg>