<svg xmlns="http://www.w3.org/2000/svg" height="20" viewBox="0 -960 960 960" width="20"><path d="M604.805-465.804 398.37-672h275.565l60.369-69.13H329.479l-83.001-83.001h534.283q27.728 0 44.809 19.161 17.082 19.161 17.082 43.209 0 10.435-3.358 21.25-3.359 10.815-11.555 20.011L604.805-465.804ZM276-138.5q-17.452 0-29.476-11.963-12.024-11.964-12.024-29.326 0-17.363 12.024-29.537T276-221.5h162.5v-197.804L105.913-750.891q-11.718-11.718-11.598-26.982.12-15.265 11.837-26.41 11.145-11.478 26.529-11.478t26.958 11.573l644.549 644.549q11.573 11.574 11.454 26.593-.12 15.019-11.598 26.133-11.145 11.478-26.41 11.478-15.264 0-26.939-11.675L522.5-335.304l-1 113.804h159.87q17.452 0 29.476 11.963 12.024 11.964 12.024 29.326 0 17.363-12.024 29.537T681.37-138.5H276Z"/></svg>