<svg xmlns="http://www.w3.org/2000/svg" height="20" viewBox="0 -960 960 960" width="20"><path d="m872.131-198.239-83.001-83V-645.13H636.717l-74.729-96H398.63l-29.652 39.978-59.652-59.653 24.848-32.652q12.435-14.956 29.286-22.815 16.851-7.859 34.931-7.859H561.79q18.253 0 34.927 7.859t29.109 22.815l50.478 65.326H789.13q34.483 0 58.742 24.609t24.259 58.392v446.891Zm-701.261 62.37q-33.783 0-58.392-24.609T87.869-218.87v-426.26q0-33.783 24.609-58.392t58.392-24.609h64.586l83.001 83.001H170.87v426.26h573.847l83.001 83.001H170.87Zm453-203.848q-22 35.195-59.457 56.413-37.456 21.217-84.413 21.217-72.797 0-121.355-49.558Q310.087-361.203 310.087-432q0-44.957 20.717-82.913 20.718-37.957 56.913-60.957l58.022 58.022q-26.478 9.805-41.956 32.633-15.479 22.828-15.479 52.215 0 39.066 25.685 65.881 25.685 26.815 66.011 26.815 31 0 53.522-15.979 22.521-15.978 32.326-41.456l58.022 58.022Zm-23.04-212.215q23.605 23.215 36.344 53.752 12.739 30.537 12.739 65.702v5.63q0 2.065-.761 5.63L468.978-601.152q3.566-.761 5.631-.761h5.63q35.516 0 66.599 13.028 31.082 13.029 53.992 36.953ZM779.294-78.526 81.337-776.453q-11.815-11.861-11.315-26.563.5-14.701 12.003-26.18 11.504-11.478 26.196-11.478 14.692 0 26.507 11.815l697.957 697.957q11.815 11.859 11.815 26.736t-11.503 25.992q-11.17 11.478-26.529 11.478t-27.174-11.83ZM425.804-432Zm152.87-59.457Z"/></svg>