<svg xmlns="http://www.w3.org/2000/svg" height="20" viewBox="0 -960 960 960" width="20"><path d="M480.222-139.217q-112.135 0-190.57-78.278Q211.217-295.773 211.217-408q0-85.283 49.065-154.902 49.066-69.62 128.392-97.772-26.807-8.379-45.817-28.603-19.01-20.224-28.423-45.18-24.108-26.739-31.217-63.016-7.108-36.277-2.826-74.136 37.859-4.282 74.136 2.826 36.277 7.109 63.016 31.217 29.152 10.5 50.609 35.305 21.457 24.804 28.131 57.326 11.239-20.239 23.5-39.478 12.26-19.239 29.5-36.478 12.434-12.435 28.608-12.935t28.609 11.435q12.435 11.934 12.435 28.108T607.5-766.007q-19.761 21.094-34.163 45.735-14.402 24.642-22.641 53.402 87.522 23.435 142.804 95.533Q748.783-499.239 748.783-408q0 112.227-78.213 190.505-78.214 78.278-190.348 78.278Zm.004-83.001q77.144 0 131.35-54.432 54.206-54.433 54.206-131.576 0-77.144-54.432-131.35-54.433-54.206-131.576-54.206-77.144 0-131.35 54.432-54.206 54.433-54.206 131.576 0 77.144 54.432 131.35 54.433 54.206 131.576 54.206ZM480-408Z"/></svg>