<svg xmlns="http://www.w3.org/2000/svg" height="20" viewBox="0 -960 960 960" width="20"><path d="M438.5-240.218v-124.369q0-17.452 11.963-29.476 11.964-12.024 29.326-12.024 17.363 0 29.537 12.024t12.174 29.476v124.369l46.913-46.673q12.435-12.674 29.087-12.674t29.326 12.674q12.674 12.674 12.674 29.326t-12.674 29.326L509.065-110.478q-6.117 5.717-13.613 8.815-7.495 3.098-15.652 3.098t-15.652-3.098q-7.496-3.098-13.213-8.815L333.174-228.239Q320.5-240.58 321-257.398q.5-16.819 13.174-29.493t29.493-12.674q16.819 0 29.159 12.674l45.674 46.673ZM240.218-438.5l46.673 46.913q12.674 12.435 12.674 29.087t-12.674 29.326Q274.217-320.5 257.565-320.5t-29.326-12.674L110.478-450.935q-5.717-6.117-8.815-13.613-3.098-7.495-3.098-15.652t3.098-15.652q3.098-7.496 8.815-13.213l117.761-117.761Q240.58-639.5 257.398-639.5q16.819 0 29.493 12.674t12.674 29.493q0 16.819-12.674 29.159L240.218-521.5h124.369q17.452 0 29.476 11.963 12.024 11.964 12.024 29.326 0 17.363-12.024 29.537T364.587-438.5H240.218Zm479.564 0H595.413q-17.452 0-29.476-11.963-12.024-11.964-12.024-29.326 0-17.363 12.024-29.537t29.476-12.174h124.369l-46.673-46.913q-12.674-12.435-12.674-29.087t12.674-29.326q12.674-12.674 29.326-12.674t29.326 12.674l117.761 117.761q5.717 6.117 8.815 13.613 3.098 7.495 3.098 15.652t-3.098 15.652q-3.098 7.496-8.815 13.213L731.761-333.174Q719.451-320.5 703.117-321q-16.334-.5-29.008-13.174t-12.674-29.493q0-16.819 12.674-29.159l45.673-45.674ZM438.5-719.782l-46.674 46.673q-12.583 12.674-29.281 12.555-16.697-.12-29.371-12.794-12.674-12.674-12.674-29.493T333.174-732l117.761-117.522q6.117-5.717 13.613-8.815 7.495-3.098 15.652-3.098t15.652 3.098q7.496 3.098 13.213 8.815l117.761 117.761q12.674 12.31 12.674 28.644 0 16.334-12.674 29.008t-29.493 12.674q-16.819 0-29.159-12.674L521.5-719.782v124.369q0 17.452-11.963 29.476-11.964 12.024-29.326 12.024-17.363 0-29.537-12.024T438.5-595.413v-124.369Z"/></svg>