<svg xmlns="http://www.w3.org/2000/svg" height="20" viewBox="0 -960 960 960" width="20"><path d="M272.27-89.782q-59.752 0-101.924-42.208-42.172-42.208-42.172-102.01v-297.087q-29.478-26.239-56.74-54.956-27.26-28.718-27.26-68.126 0-29.744 20.196-49.94 20.195-20.195 49.88-20.195 16.218 0 30.103 5.902 13.886 5.902 24.125 17.424 10.239-11.522 24.245-17.424 14.005-5.902 29.984-5.902 29.684 0 49.88 20.195 20.196 20.196 20.196 49.94 0 39.408-27.261 68.126-27.261 28.717-56.739 54.956V-234q0 26.96 18.532 45.784 18.533 18.825 45.076 18.825 26.544 0 45.076-18.825Q336-207.04 336-234v-444q0-81.348 56.152-137.5t137.5-56.152q81.348 0 137.381 56.032 56.033 56.033 56.272 137.142v8.043q66.282 14.196 110.184 67.138Q877.392-550.354 877.392-480v192q0 80.876-56.824 137.634-56.824 56.757-137.794 56.757-80.969 0-137.567-56.757Q488.609-207.124 488.609-288v-192q0-70.755 44.402-123.997 44.402-53.242 110.685-66.438v-8.043q-.239-47.022-33.131-79.794-32.891-32.771-79.913-32.771-47.021 0-80.032 33.01-33.011 33.011-33.011 80.033v444q0 59.802-42.794 102.01-42.793 42.208-102.545 42.208Zm410.518-264q-27.396 0-46.483 19.299-19.087 19.299-19.087 46.695 0 27.397 19.299 46.484 19.299 19.086 46.696 19.086 27.396 0 46.483-19.299 19.087-19.299 19.087-46.695 0-27.397-19.3-46.484-19.299-19.086-46.695-19.086Z"/></svg>