<svg xmlns="http://www.w3.org/2000/svg" height="20" viewBox="0 -960 960 960" width="20"><path d="M170.87-183.869q-34.483 0-58.742-24.271t-24.259-58.77v-426.504q0-34.499 24.259-58.608 24.259-24.109 58.742-24.109h618.26q34.483 0 58.742 24.271t24.259 58.77v426.504q0 34.499-24.259 58.608-24.259 24.109-58.742 24.109H170.87ZM444-391.652l-55.848-73.892q-6.206-9.195-16.152-9.195-9.946 0-16.152 9.195l-72.058 96.265q-7.899 10.409-2.051 21.844T300-336h360.194q12.719 0 18.197-11.435 5.479-11.435-2.239-21.869l-108-144.24q-6.206-9.195-16.152-9.195-9.946 0-16.152 9.195L444-391.652Z"/></svg>