<svg xmlns="http://www.w3.org/2000/svg" height="20" viewBox="0 -960 960 960" width="20"><path d="M643.17-213.413q-34.24 0-58.618-24.381t-24.378-58.619v-367.174q0-34.238 24.382-58.619 24.383-24.381 58.622-24.381h24q34.24 0 58.618 24.381t24.378 58.619v367.174q0 34.238-24.382 58.619-24.383 24.381-58.622 24.381h-24Zm-350.348 0q-34.24 0-58.618-24.381t-24.378-58.619v-367.174q0-34.238 24.382-58.619 24.383-24.381 58.622-24.381h24q34.24 0 58.618 24.381t24.378 58.619v367.174q0 34.238-24.382 58.619-24.383 24.381-58.622 24.381h-24Z"/></svg>