<svg xmlns="http://www.w3.org/2000/svg" height="20" viewBox="0 -960 960 960" width="20"><path d="M394.116-334.087q15.921 0 26.903-10.82Q432-355.726 432-371.72v-216.236q0-15.995-10.772-26.976t-26.696-10.981q-15.923 0-27.021 10.82-11.098 10.819-11.098 26.813v216.236q0 15.995 10.839 26.976 10.84 10.981 26.864 10.981Zm171.587 0q15.922 0 26.903-10.82 10.981-10.819 10.981-26.813v-216.236q0-15.995-10.772-26.976t-26.696-10.981q-15.923 0-27.021 10.82Q528-604.274 528-588.28v216.236q0 15.995 10.839 26.976 10.84 10.981 26.864 10.981ZM480.276-87.869q-81.189 0-152.621-30.618-71.432-30.618-124.991-84.177-53.559-53.559-84.177-124.949-30.618-71.391-30.618-152.845 0-81.455 30.618-152.387t84.177-124.491q53.559-53.559 124.949-84.177 71.391-30.618 152.845-30.618 81.455 0 152.387 30.618t124.491 84.177q53.559 53.559 84.177 124.716 30.618 71.156 30.618 152.344 0 81.189-30.618 152.621-30.618 71.432-84.177 124.991-53.559 53.559-124.716 84.177-71.156 30.618-152.344 30.618ZM480-170.87q129.043 0 219.087-90.043Q789.13-350.957 789.13-480t-90.043-219.087Q609.043-789.13 480-789.13t-219.087 90.043Q170.87-609.043 170.87-480t90.043 219.087Q350.957-170.87 480-170.87ZM480-480Z"/></svg>