<svg xmlns="http://www.w3.org/2000/svg" height="20" viewBox="0 -960 960 960" width="20"><path d="M676.078-96q-79.774 0-135.774-56.226t-56-136q0-79.774 56.227-135.774 56.226-56 136-56 79.773 0 135.773 56.226t56 136q0 79.774-56.226 135.774t-136 56Zm26.14-202.717v-61.522q0-10.27-7.713-17.972-7.712-7.702-17.996-7.702-10.283 0-18.081 7.774T650.63-360v65.565q0 9.196 3.359 16.55 3.359 7.354 9.091 13.052l50.029 50.029q7.842 7.478 18.377 7.358 10.536-.119 18.014-7.632 7.478-7.512 7.478-18.013 0-10.502-7.478-18.344l-47.282-47.282ZM218.87-135.869q-34.238 0-58.619-24.382-24.382-24.381-24.382-58.619v-522.26q0-34.238 24.382-58.619 24.381-24.382 58.619-24.382h161.912q9.435-31.717 36.436-52.456 27-20.739 62.782-20.739 35.196 0 62.37 20.739t36.848 52.456H741.13q34.238 0 58.619 24.382 24.382 24.381 24.382 58.619v235q-18.913-12.913-39.403-22.968-20.489-10.054-43.598-14.576V-741.13h-70.326v82.326q0 17.452-12.024 29.476-12.024 12.024-29.476 12.024H330.696q-17.452 0-29.476-12.024-12.024-12.024-12.024-29.476v-82.326H218.87v522.508h203.037q7.158 23.861 16.43 44.209 9.272 20.348 24.142 38.544H218.87Zm260.919-609.566q15.211 0 25.711-10.289 10.5-10.29 10.5-25.5 0-15.211-10.289-25.711-10.29-10.5-25.5-10.5-15.211 0-25.711 10.29-10.5 10.289-10.5 25.5 0 15.21 10.289 25.71 10.29 10.5 25.5 10.5Z"/></svg>