<svg xmlns="http://www.w3.org/2000/svg" height="20" viewBox="0 -960 960 960" width="20"><path d="M135.869-177.37v-653.26q0-17.453 11.964-29.477 11.963-12.024 29.326-12.024t29.537 12.024q12.174 12.024 12.174 29.477v54.499h522.26v-54.499q0-17.453 11.964-29.477 11.963-12.024 29.326-12.024t29.537 12.024q12.174 12.024 12.174 29.477v653.26q0 17.453-11.964 29.477-11.963 12.024-29.326 12.024t-29.537-12.024q-12.174-12.024-12.174-29.477v-360.76H218.87v360.76q0 17.453-11.964 29.477-11.963 12.024-29.326 12.024t-29.537-12.024q-12.174-12.024-12.174-29.477Zm83.001-443.76h522.26v-72H218.87v72ZM438.5-177.37v-72.521h-65.774q-17.4 0-29.574-11.963-12.174-11.964-12.174-29.327 0-17.362 12.012-29.536 12.013-12.174 29.448-12.174h214.801q17.435 0 29.609 11.963 12.174 11.964 12.174 29.326 0 17.363-12.024 29.537t-29.476 12.174H521.5v72.521q0 17.453-11.963 29.477-11.964 12.024-29.326 12.024-17.363 0-29.537-12.024T438.5-177.37ZM218.87-621.13v-72 72Z"/></svg>