<svg xmlns="http://www.w3.org/2000/svg" height="20" viewBox="0 -960 960 960" width="20"><path d="M121.435-135.869q-33.544 0-58.272-24.729-24.728-24.728-24.728-58.272v-429.173q0-17.452 11.963-29.476 11.963-12.024 29.326-12.024t29.537 12.024q12.174 12.024 12.174 29.476v429.173H734.63q17.453 0 29.477 11.964 12.024 11.963 12.024 29.326t-12.024 29.537q-12.024 12.174-29.477 12.174H121.435Zm155-155.001q-33.544 0-58.272-24.728t-24.728-58.272v-415.26q0-34.244 24.728-58.622 24.728-24.379 58.272-24.379h128q16.374 0 31.296 5.837 14.921 5.837 27.595 18.511l71.652 71.652h255.587q34.244 0 58.622 24.379 24.378 24.378 24.378 58.622v319.26q0 33.544-24.378 58.272t-58.622 24.728h-514.13ZM509.5-486.696l-49.848-66.13q-6.206-8.957-16.152-8.957-9.946 0-16.152 8.957l-60.5 80.587q-7.957 10.434-2.427 21.989 5.53 11.554 18.579 11.554h301q13.049 0 18.579-11.554 5.53-11.555-2.427-21.989l-84.5-112.587q-6.206-8.957-16.152-8.957-9.946 0-16.152 8.957l-73.848 98.13Z"/></svg>