<svg xmlns="http://www.w3.org/2000/svg" height="20" viewBox="0 -960 960 960" width="20"><path d="M432.004-484.065q-63.352 0-107.743-44.387-44.392-44.388-44.392-107.74t44.388-107.624q44.387-44.271 107.739-44.271 63.352 0 107.743 44.318 44.392 44.318 44.392 107.573 0 63.354-44.388 107.742-44.387 44.389-107.739 44.389Zm.2-83.001q28.6 0 48.763-20.366 20.163-20.367 20.163-48.968 0-28.6-20.367-48.644-20.367-20.043-48.967-20.043-28.6 0-48.763 20.299-20.163 20.299-20.163 48.804 0 28.604 20.367 48.761 20.367 20.157 48.967 20.157ZM859.928-42.253l-92.029-90.638q-20.442 11.761-42.636 18.783-22.194 7.021-45.85 7.021-72.292 0-122.896-50.604t-50.604-122.896q0-72.292 50.604-122.896t122.896-50.604q72.292 0 122.896 50.604t50.604 122.896q0 23.656-7.021 45.85-7.022 22.194-18.783 42.636l91.766 92.029q12.69 12.746 12.69 28.659 0 15.913-12.913 28.826t-29.445 12.913q-16.533 0-29.279-12.58ZM679.131-190.088q37.891 0 64.336-26.163 26.446-26.163 26.446-64.054 0-37.891-26.163-64.337-26.163-26.446-64.054-26.446-37.891 0-64.337 26.163-26.446 26.163-26.446 64.055 0 37.891 26.163 64.336 26.163 26.446 64.055 26.446Zm-543.262-72.717v-21.609q0-26.97 13.816-49.974 13.815-23.004 37.728-35.961 66.239-38.239 143.446-55.576 77.206-17.337 157.228-7.663-14.587 18.63-26.039 39.43-11.453 20.8-17.374 41.092-56.761-2.478-111.522 11.663t-103.214 42.956q-5.067 2.232-8.068 6.272-3 4.04-3 8.718v20.652h214.847q1.761 20.913 6.62 41.424t15.489 41.576H218.87q-34.483 0-58.742-24.259t-24.259-58.741ZM432-636.196Zm1.717 373.392Z"/></svg>