<svg xmlns="http://www.w3.org/2000/svg" height="20" viewBox="0 -960 960 960" width="20"><path d="M404.582-484.783q-38.43 0-62.778-29.206-24.348-29.207-19.63-67.229l13.043-78.065q7-53.913 48.364-88.489 41.364-34.576 96.419-34.576t96.419 34.076q41.364 34.076 48.364 87.989l13.043 79.065q4.718 38.022-19.63 67.229-24.348 29.206-62.778 29.206H404.582Zm-3.278-80.609h157.392l-13.522-81.695q-4.239-24.565-22.389-39.609-18.149-15.043-42.63-15.043t-42.785 15.043q-18.305 15.044-22.544 39.609l-13.522 81.695Zm78.696 0ZM183.869-262.804v-21.609q0-25.224 13.743-47.589 13.742-22.365 37.801-37.346 55.717-32.239 117.956-49.478 62.239-17.239 126.423-17.239 64.643 0 127.099 17.119 62.457 17.12 117.696 49.359 24.059 13.947 37.801 36.745 13.743 22.799 13.743 48.429v21.609q0 34.482-24.271 58.741t-58.77 24.259H266.586q-34.499 0-58.608-24.259-24.109-24.259-24.109-58.741Zm83.001 0h426.26v-20.413q0-4.945-3.025-8.99t-7.975-6.293q-44.565-27.043-95.847-40.804Q535-353.065 480-353.065q-54.522 0-106.283 13.761-51.76 13.761-95.847 40.804-5 3.895-8 7.429-3 3.534-3 7.854v20.413Zm213.13 0Z"/></svg>