<svg xmlns="http://www.w3.org/2000/svg" height="20" viewBox="0 -960 960 960" width="20"><path d="m138.283-138.717-78.761-79.761q-15.913-16.152-16.533-40.196-.62-24.043 15.533-39.956 80.435-84.044 186.641-132.707Q351.37-480 480-480t234.957 48.304q106.326 48.305 186.521 133.066 16.152 15.913 15.652 39.956-.5 24.044-16.652 40.196l-78.761 79.761q-11.956 11.956-31.945 14.956-19.99 3-39.142-10.674l-111.891-79.369q-9.957-7.717-16.054-19.533-6.098-11.815-6.098-23.656V-380.5q-33.805-10.522-67.27-15.424-33.466-4.902-69.317-4.902-35.851 0-69.317 4.902-33.465 4.902-67.27 15.424v123.507q0 11.841-6.098 23.656-6.097 11.816-16.054 19.533L209.37-134.435q-18.435 13.196-39.283 9.935-20.848-3.261-31.804-14.217ZM264-359.587q-35.804 17.522-69.467 41.685-33.663 24.163-63.468 52.206l48.283 48.283L264-277.543v-82.044Zm432-.239v82.283l84.652 60.13 48.283-48.761q-29.805-28.804-62.968-52.587-33.163-23.782-69.967-41.065Zm-432 .239Zm432-.239ZM281.471-624.957q-16.645 0-28.341-11.545-11.695-11.546-11.695-28.281V-782.63q0-17.453 12.024-29.477 12.024-12.024 29.476-12.024h118.326q16.824 0 28.206 11.321 11.381 11.321 11.381 28.056t-11.381 28.266q-11.382 11.531-28.206 11.531h-24.152l104.565 104.565 154.913-154.912q11.623-11.957 27.844-12.077 16.221-.119 28.178 11.957 11.956 12.076 11.837 28.297-.12 16.221-12.076 27.844L540.087-587q-24.348 24.348-58.652 24.348-34.305 0-58.653-24.348L320.848-688.696v24.152q0 16.825-11.321 28.206-11.32 11.381-28.056 11.381Z"/></svg>