<svg xmlns="http://www.w3.org/2000/svg" height="20" viewBox="0 -960 960 960" width="20"><path d="M194.761-136.869q-24.109 2-42.381-14.772-18.271-16.772-18.271-41.12v-137.674q0-22.022 12.032-37.033 12.033-15.011 34.055-21.445l100.543-22.283q16.587-2.956 30.978 1.022 14.392 3.978 25.022 14.369l100.674 96.957q34.652-18.087 66.261-41.913 31.609-23.826 60.413-52.63 31.043-30.044 55.609-63.131 24.565-33.087 43.608-68.456l-98.435-96.087Q554-631.217 549.663-645.848q-4.337-14.63-1.381-31.217l23.761-100.978q5.435-21.022 20.805-33.555 15.369-12.533 37.869-12.533h135.761q24.348 0 41 17.772 16.653 17.772 14.653 42.12-10 122.435-60.098 231.989T624.5-335.261q-87.435 87.196-197.37 138.294-109.934 51.098-232.369 60.098Z"/></svg>