<svg xmlns="http://www.w3.org/2000/svg" height="20" viewBox="0 -960 960 960" width="20"><path d="M118.087-390.857v-179.991q0-12.761 9.152-21.913 9.152-9.152 21.905-9.152h106.943q25.752 0 45.789 20.037 20.037 20.037 20.037 45.789V-500q0 25.513-20.037 45.55-20.037 20.037-45.789 20.037h-72.174V-391q0 14.262-9.319 23.588-9.318 9.325-23.571 9.325-14.252 0-23.594-9.285t-9.342-23.485Zm260 .387v-178.629q0-13.73 9.319-23.272 9.318-9.542 23.571-9.542 14.252 0 23.594 9.325 9.342 9.326 9.342 23.588v46.087h73.174V-569q0-14.229 9.319-23.571 9.318-9.342 23.571-9.342 14.252 0 23.594 9.327t9.342 23.056v178.629q0 13.73-9.319 23.272-9.318 9.542-23.571 9.542-14.252 0-23.594-9.325-9.342-9.326-9.342-23.588v-66.087h-73.174V-391q0 14.262-9.319 23.588-9.318 9.325-23.571 9.325-14.252 0-23.594-9.327t-9.342-23.056Zm280-.387v-179.991q0-12.761 9.152-21.913 9.152-9.152 21.905-9.152h106.943q25.752 0 45.789 20.037 20.037 20.037 20.037 45.789V-500q0 25.513-20.037 45.55-20.037 20.037-45.789 20.037h-72.174V-391q0 14.262-9.319 23.588-9.318 9.325-23.571 9.325-14.252 0-23.594-9.285t-9.342-23.485ZM183.913-500h72.174v-36.087h-72.174V-500Zm540 0h72.174v-36.087h-72.174V-500Z"/></svg>