<svg xmlns="http://www.w3.org/2000/svg" height="20" viewBox="0 -960 960 960" width="20"><path d="M483.587-723.587h72v-72h-72v72ZM212.413-409.913h72v-72h-72v72ZM675.587-168h72v-72h-72v72Zm-156-590.587ZM248.413-445.913ZM710.587-204Zm-114.174 33.37v-9.218L319.87-330.5H216q-34.483 0-58.741-24.295Q133-379.09 133-413.624v-64.712q0-34.534 24.259-58.642 24.258-24.109 58.741-24.109h83.587l104.826-124.109V-792q0-34.483 24.295-58.741Q453.004-875 487.538-875h64.711q34.534 0 58.642 24.295Q635-826.41 635-791.876v64.712q0 34.534-24.259 58.642-24.258 24.109-58.741 24.109h-78.326L363.587-514.087v116.935l238.456 130.608q9.513-23.55 30.405-38.209 20.893-14.66 46.965-14.66H744q34.483 0 58.741 24.295Q827-270.823 827-236.289v64.951q0 34.534-24.295 58.642-24.295 24.11-58.829 24.11h-65.668q-34.056 0-57.925-24.02-23.87-24.02-23.87-58.024Z"/></svg>