<svg xmlns="http://www.w3.org/2000/svg" height="20" viewBox="0 -960 960 960" width="20"><path d="M372.218-87.87q-29.827 0-52.316-18.271-22.489-18.272-28.446-46.859l-38.565-171.043h454.457L669.022-153q-5.957 28.587-28.865 46.859-22.909 18.272-52.896 18.272H372.218ZM480.239-674.39q0-74.087 50.145-127.978 50.146-53.892 124.073-65.283 5.332-1 9.742.619 4.41 1.62 7.649 5.098 3.239 3.478 5.478 7.576 2.239 4.098 1.239 9.815-9.239 63.435-51.934 109.294-42.696 45.859-105.131 56.62v101.673h261.13q17.453 0 29.477 12.024 12.024 12.024 12.024 29.477v76.108q0 34.483-24.02 58.622-24.02 24.139-57.307 24.139H217.435q-33.287 0-57.426-24.139-24.14-24.139-24.14-58.622v-76.108q0-17.453 12.024-29.477 12.024-12.024 29.477-12.024h261.369v-101.434q-62.674-10.522-105.13-56.62-42.457-46.098-51.696-109.533-1-5.717 1.239-9.815t5.478-7.576q3.239-3.478 7.649-5.098 4.41-1.619 9.743-.619 73.926 11.391 124.072 65.283 50.145 53.891 50.145 127.978Z"/></svg>