<svg xmlns="http://www.w3.org/2000/svg" height="20" viewBox="0 -960 960 960" width="20"><path d="M231.869-173.37v-108.196H129.37q-17.453 0-29.477-12.043-12.024-12.043-12.024-29.195V-528q0-43.109 30.163-73.62 30.162-30.511 73.251-30.511h577.434q37.729 0 65.908 23.229 28.18 23.228 35.701 59.772H205.283q-14.626 0-24.52 10.322-9.893 10.323-9.893 25.208v149.296h60.999v-26.435q0-13.166 8.907-22.072 8.906-8.906 22.072-8.906H642.5v83H314.87v125.587H642.5v81.326H273.37q-17.453 0-29.477-12.043-12.024-12.043-12.024-29.523Zm0-458.761V-741.13q0-34.783 24.259-58.892t58.742-24.109h330.26q34.483 0 58.742 24.259t24.259 58.742v108.999H645.13V-741.13H314.87v108.999h-83.001Zm524.342 500.327q-17.363 0-29.537-11.964-12.174-11.963-12.174-29.326 0-17.362 11.963-29.536 11.964-12.174 29.326-12.174 17.363 0 29.537 11.963 12.174 11.964 12.174 29.326 0 17.363-11.963 29.537-11.964 12.174-29.326 12.174Zm-41.711-185.5V-459.63q0-17.452 11.963-29.476 11.964-12.024 29.326-12.024 17.363 0 29.537 12.024T797.5-459.63v142.326q0 17.452-11.963 29.476-11.964 12.024-29.326 12.024-17.363 0-29.537-12.024T714.5-317.304ZM170.87-549.13h699.456H170.87Z"/></svg>