<svg xmlns="http://www.w3.org/2000/svg" height="20" viewBox="0 -960 960 960" width="20"><path d="M360-135.869q-93.348 0-158.739-65.392Q135.869-266.652 135.869-360v-240q0-93.348 65.392-158.739Q266.652-824.131 360-824.131h240q93.348 0 158.739 65.392Q824.131-693.348 824.131-600v240q0 93.348-65.392 158.739Q693.348-135.869 600-135.869H360Zm68.283-214.501L634.913-556l-53.63-53.63-153 152-68-67L307.652-471l120.631 120.63ZM360-218.87h240q59.043 0 100.087-41.043Q741.13-300.957 741.13-360v-240q0-59.043-41.043-100.087Q659.043-741.13 600-741.13H360q-59.043 0-100.087 41.043Q218.87-659.043 218.87-600v240q0 59.043 41.043 100.087Q300.957-218.87 360-218.87ZM480-480Z"/></svg>