<svg xmlns="http://www.w3.org/2000/svg" height="20" viewBox="0 -960 960 960" width="20"><path d="M277.224-337.435q15.211 0 25.711-10.289 10.5-10.29 10.5-25.5 0-15.211-10.29-25.711-10.289-10.5-25.5-10.5-15.21 0-25.71 10.29-10.5 10.289-10.5 25.5 0 15.21 10.289 25.71 10.29 10.5 25.5 10.5Zm0-118.565q15.211 0 25.711-10.35 10.5-10.35 10.5-25.65v-94.565q0-15.3-10.29-25.65-10.289-10.35-25.5-10.35-15.21 0-25.71 10.35t-10.5 25.65V-492q0 15.3 10.289 25.65 10.29 10.35 25.5 10.35Zm190.647 96h214.5q15.194 0 25.694-10.289 10.5-10.29 10.5-25.5 0-15.211-10.338-25.711-10.339-10.5-25.532-10.5H468.194Q453-432 442.5-421.711q-10.5 10.29-10.5 25.5Q432-381 442.338-370.5q10.339 10.5 25.533 10.5Zm0-166.565h214.5q15.194 0 25.694-10.29 10.5-10.289 10.5-25.5 0-15.21-10.338-25.71-10.339-10.5-25.532-10.5H468.194q-15.194 0-25.694 10.289-10.5 10.29-10.5 25.5 0 15.211 10.338 25.711 10.339 10.5 25.533 10.5ZM170.87-183.869q-34.483 0-58.742-24.271t-24.259-58.77v-426.504q0-34.499 24.259-58.608 24.259-24.109 58.742-24.109h618.26q34.483 0 58.742 24.271t24.259 58.77v426.504q0 34.499-24.259 58.608-24.259 24.109-58.742 24.109H170.87Zm0-83.001h618.26v-426.26H170.87v426.26Zm0 0v-426.26 426.26Z"/></svg>