<svg xmlns="http://www.w3.org/2000/svg" height="20" viewBox="0 -960 960 960" width="20"><path d="m447-426 1.761 23.609q1.139 8.067 6.781 13.229Q461.184-384 469.391-384h21.218q8.207 0 13.849-5.162 5.642-5.162 6.781-13.229L513-426q11.429-3.818 20.714-8.909Q543-440 552-448l20.37 9.043q7.396 3.479 14.912 1.063 7.516-2.416 11.675-9.258l10.608-17.696q4.718-6.956 2.478-14.925-2.239-7.97-7.883-12.412L586-505q2-11.5 2-23t-2-23l18.16-12.815q5.644-4.442 7.883-12.412 2.24-7.969-2.478-14.925l-10.608-17.696q-4.159-6.842-11.675-9.258-7.516-2.416-14.912 1.063L552-608q-8-8-18-13t-21-9l-1.761-23.609q-1.139-8.067-6.781-13.229Q498.816-672 490.609-672h-21.218q-8.207 0-13.849 5.162-5.642 5.162-6.781 13.229L447-630q-11.429 3.818-20.714 8.909Q417-616 408-608l-20.37-9.043q-7.396-3.479-14.912-1.063-7.516 2.416-11.675 9.258l-10.608 17.696q-4.718 6.956-2.478 14.925 2.239 7.97 7.883 12.412L374-551q-2 11.5-2 23t2 23l-18.16 12.815q-5.644 4.442-7.883 12.412-2.24 7.969 2.478 14.925l10.608 17.696q4.159 6.842 11.675 9.258 7.516 2.416 14.912-1.063L408-448q8 8 18 13t21 9Zm33-54q-20 0-34-14t-14-34q0-20 14-34t34-14q20 0 34 14t14 34q0 20-14 34t-34 14ZM256.826-267.891q-56.761-48.957-88.381-117.483Q136.826-453.9 136.826-529q0-142.573 100.362-242.373 100.363-99.801 243.738-99.801 111.465 0 200.378 60.054 88.914 60.055 117.631 156.446l66.478 225.152q5.718 20.111-6.413 36.403-12.13 16.293-32.848 16.293h-50.978v109q0 34.483-24.259 58.741-24.258 24.259-58.741 24.259h-85v54.5q0 17.452-11.963 29.476-11.964 12.024-29.327 12.024-17.362 0-29.536-12.024-12.174-12.024-12.174-29.476v-96q0-17.452 12.024-29.476 12.024-12.024 29.476-12.024h126.5v-150.5q0-17.452 12.024-29.476 12.024-12.024 29.476-12.024h37.543l-50.804-168.217q-22-70.327-88.543-115.229-66.544-44.902-150.87-44.902-109.415 0-185.294 75.515-75.88 75.515-75.88 183.659 0 57.972 24.641 110.529 24.642 52.558 69.163 89.601l26.196 23.196v175.348q0 17.452-11.963 29.476-11.964 12.024-29.326 12.024-17.363 0-29.537-12.024t-12.174-29.476v-137.565ZM495.522-438.5Z"/></svg>