<svg xmlns="http://www.w3.org/2000/svg" height="20" viewBox="0 -960 960 960" width="20"><path d="M509.5-122v-77.5H587v77.5h-77.5ZM432-199.5v-203h77.5v203H432Zm326.587-127.413V-480h77.5v153.087h-77.5ZM681.087-480v-77.5h77.5v77.5h-77.5ZM199.5-402.5V-480H277v77.5h-77.5ZM122-480v-77.5h77.5v77.5H122Zm358-280.5V-838h77.5v77.5H480Zm-302.587 99.587h121.674v-121.674H177.413v121.674ZM122-646.945v-149.279q0-17.429 12.008-29.603Q146.016-838 163.444-838h149.279q17.429 0 29.603 12.008 12.174 12.008 12.174 29.436v149.279q0 17.429-12.008 29.603-12.008 12.174-29.437 12.174H163.776q-17.429 0-29.603-12.008Q122-629.516 122-646.945Zm55.413 469.532h121.674v-121.674H177.413v121.674ZM122-163.444v-149.279q0-17.429 12.008-29.603 12.008-12.174 29.436-12.174h149.279q17.429 0 29.603 12.008 12.174 12.008 12.174 29.437v149.279q0 17.429-12.008 29.603Q330.484-122 313.055-122H163.776q-17.429 0-29.603-12.008Q122-146.016 122-163.444Zm538.913-497.469h121.674v-121.674H660.913v121.674ZM605.5-646.945v-149.279q0-17.429 12.008-29.603Q629.516-838 646.945-838h149.279q17.429 0 29.603 12.008Q838-813.984 838-796.556v149.279q0 17.429-12.008 29.603-12.008 12.174-29.436 12.174H647.277q-17.429 0-29.603-12.008-12.174-12.008-12.174-29.437ZM684.913-122v-127.413h-75.826v-77.5h149.5V-199.5h77.5v77.5H684.913ZM509.5-402.5V-480h171.587v77.5H509.5Zm-155 0V-480H277v-77.5h232.5v77.5H432v77.5h-77.5Zm48-203v-155H480v79.413h77.5v75.587h-155Zm-187.413-93.087v-46.326h46.326v46.326h-46.326Zm0 483.5v-46.326h46.326v46.326h-46.326Zm483.5-483.5v-46.326h46.326v46.326h-46.326Z"/></svg>