<svg xmlns="http://www.w3.org/2000/svg" height="20" viewBox="0 -960 960 960" width="20"><path d="M572.174-658.978q0-35.609-25.446-58.913-25.445-23.305-64.576-23.305-24.565 0-45.108 10.424-20.544 10.424-36.066 29.75-17.108 21.152-41.717 26.272-24.609 5.12-45.044-7.554-21.435-13.674-25.076-35.164-3.641-21.489 12.75-43.641 30.435-44 78.011-68.141 47.576-24.142 102.25-24.142 91.87 0 149.424 53.653 57.555 53.652 57.555 138 0 43.435-20.413 81.641-20.414 38.207-69.848 85.837-26.5 24.218-37.142 41.381-10.641 17.163-15.837 38.25-6.869 24.434-23.684 38.934-16.816 14.5-38.294 14.5-24.152 0-40.707-15.815-16.554-15.815-16.554-37.489 0-38.913 18.696-73.565 18.695-34.653 57.174-65.218 40.13-33.935 54.891-55.695 14.761-21.761 14.761-50Zm-90.022 524.065q-33.109 0-56.141-23.032-23.033-23.033-23.033-56.142t23.033-56.261q23.032-23.152 56.141-23.152 33.109 0 56.261 23.152t23.152 56.261q0 33.109-23.152 56.142-23.152 23.032-56.261 23.032Z"/></svg>