<svg xmlns="http://www.w3.org/2000/svg" height="20" viewBox="0 -960 960 960" width="20"><path d="m231.869-231.869-73.317 73.317q-19.748 19.748-45.215 8.981-25.468-10.766-25.468-38.451V-789.13q0-33.783 24.609-58.392t58.392-24.609h618.26q34.483 0 58.742 24.609t24.259 58.392v193.239q0 17.452-11.964 29.476-11.963 12.024-29.326 12.024t-29.537-12.024q-12.174-12.024-12.174-29.476V-789.13H170.87v505.499l30.999-31.239H558.5q17.452 0 29.476 11.964Q600-290.943 600-273.58t-12.024 29.537q-12.024 12.174-29.476 12.174H231.869Zm516.218 0H713.5q-17.452 0-29.476-12.024Q672-255.917 672-273.37v-167.521q0-17.452 12.024-29.476 12.024-12.024 29.476-12.024h109.587q16.319 0 25.551 13.413t3.275 29.326l-43.609 113.261h33.066q17.264 0 26.403 14.652 9.14 14.652 1.184 30.565L767.717-79.37q-3.478 6.957-11.554 5.365-8.076-1.592-8.076-10.082v-147.782ZM170.87-314.87v-474.26 474.26Z"/></svg>