<svg xmlns="http://www.w3.org/2000/svg" height="20" viewBox="0 -960 960 960" width="20"><path d="M218.87-87.87q-34.783 0-58.892-24.108-24.109-24.109-24.109-58.892v-522.26q0-34.783 24.109-58.892t58.892-24.109H288v-96h77.5v96h229v-96H672v96h69.13q34.783 0 58.892 24.109t24.109 58.892v522.26q0 34.783-24.109 58.892T741.13-87.869H218.87Zm160.586-83h59.001V-262q0-6.152-8.435-22.826l-74.609-74.37q-6.326-6.087-8.608-12.434-2.283-6.348-.283-15.196 6.609 3.804 14.739 5.587t16.5 1.783q22.435 0 40.891-8.479 18.457-8.478 30.935-18.717 7.283-6.283 13.826-10.924 6.544-4.641 16.587-4.641 8.043 0 11.967 1.641 3.924 1.641 18.446 12.924 13.717 11.717 32.174 19.956 18.456 8.24 39.413 8.24 8.37 0 16.619-1.783 8.25-1.783 14.859-5.587 2 8.848-.783 15.196-2.782 6.347-9.108 12.434l-74.609 74.37q-4.478 4.478-6.337 9.935-1.859 5.456-1.859 12.891v91.13h59.001v-81.456l68.804-68.804q13.239-13.718 20.717-30.816 7.479-17.097 7.479-36.054 0-12-2.881-23-2.88-11-7.641-21 5-11 7.641-22 2.642-11 2.642-23 0-17.717-6.24-35.054-6.239-17.337-20.717-31.816l-68.804-68.804v-80.456h-59.001V-601q0 7.391 2.457 12.467 2.457 5.077 6.217 8.837l76.761 76.761q5.283 5.044 7.805 11.968 2.521 6.924 2.521 13.967 0 15.37-10.206 27.076Q597.13-438.218 582-438.218q-7.565 0-16.489-3.402t-16.967-10.684q-20.957-18.196-34.653-23.555-13.695-5.359-33.891-5.359-20.196 0-33.391 5.359-13.196 5.359-35.153 23.555-9.282 7.043-17.826 10.565-8.543 3.521-15.869 3.521-14.37 0-24.957-11.826Q342.218-461.87 342.218-476q0-7.043 2.76-13.967 2.761-6.924 8.805-12.968l76.239-77.239q3.478-4.478 5.837-9.435 2.359-4.956 2.359-11.391v-92.13h-59.001v80.456l-67.804 68.804q-14.239 14.718-21.217 31.816-6.979 17.097-6.979 36.054 0 10.761 2.881 21.88 2.88 11.12 7.88 21.12-4.761 11-7.761 22t-3 23q0 18.957 6.979 36.054 6.978 17.098 20.217 30.816l69.043 68.804v81.456Z"/></svg>