<svg xmlns="http://www.w3.org/2000/svg" height="20" viewBox="0 -960 960 960" width="20"><path d="m111.043-459.587 169.544-155.457v-125.369q0-34.783 24.109-58.891 24.108-24.109 58.891-24.109h232.826q34.783 0 58.891 24.109 24.109 24.108 24.109 58.891v125.369l169.305 155.457H111.043Zm60.544 323q-34.783 0-58.891-24.109-24.11-24.108-24.11-58.891v-168h782.827v168q0 34.783-24.109 58.891-24.108 24.109-58.891 24.109H171.587Zm247.5-104.848h121.826q15.718 0 26.696-11.098 10.978-11.097 10.978-26.815 0-15.717-10.978-26.696-10.978-10.978-26.696-10.978H419.326q-15.718 0-26.815 10.978-11.098 10.979-11.098 26.696 0 15.718 10.978 26.815 10.978 11.098 26.696 11.098Z"/></svg>