<svg xmlns="http://www.w3.org/2000/svg" height="20" viewBox="0 -960 960 960" width="20"><path d="M655.224-611.804q16.885 0 28.7-11.605 11.815-11.604 11.815-28.489 0-16.884-11.604-28.7-11.605-11.815-28.49-11.815-16.884 0-28.699 11.605-11.816 11.604-11.816 28.489 0 16.884 11.605 28.7 11.605 11.815 28.489 11.815ZM519.109-218.87H789.13v-522.26H519.109v522.26ZM170.87-135.869q-34.483 0-58.742-24.259T87.869-218.87v-222.021h148.326l-24.347 24.347q-11.957 11.957-11.457 27.153.5 15.195 12.457 27.152 11.956 11.956 27.652 11.956 15.696 0 27.652-11.956l88.937-88.937q12.433-12.433 12.433-29.006t-12.674-28.883l-89.696-89.696Q255.196-610.717 240-610.717q-15.196 0-27.152 11.956-11.957 11.957-11.957 27.652 0 15.696 11.957 27.653l23.347 24.347H87.869V-741.13q0-34.483 24.259-58.742t58.742-24.259h618.26q34.483 0 58.742 24.259t24.259 58.742v522.26q0 34.483-24.259 58.742t-58.742 24.259H170.87Z"/></svg>