<svg xmlns="http://www.w3.org/2000/svg" height="20" viewBox="0 -960 960 960" width="20"><path d="M480-288q-75 0-129-49t-62-121q-1-9 6-15.5t17-6.5q10 0 17 6t9 15q8 53 47.5 88t94.5 35q60 0 102-42t42-102q0-60-43-102t-104-42h.717l25.814 27q6.947 7 7.208 16.5Q511-571 503-563q-7 7-17 7t-17-7l-70.087-70.087q-5.717-5.717-5.717-14.913 0-9.196 5.717-14.913L469-733q7-7 16.5-7.5T503-733q7 7 7 17t-7 17l-26 27q81 0 138 55.5T672-480q0 80-56 136t-136 56Zm0 200.13q81.913 0 152.845-30.617 70.932-30.618 124.491-84.177 53.559-53.559 84.177-124.991Q872.131-399.087 872.131-480q0-81.913-30.618-152.845t-84.177-124.491q-53.559-53.559-124.491-84.177Q561.913-872.131 480-872.131q-80.913 0-152.345 30.618t-124.991 84.177q-53.559 53.559-84.177 124.491Q87.869-561.913 87.869-480q0 80.913 30.618 152.345t84.177 124.991q53.559 53.559 124.991 84.177Q399.087-87.869 480-87.869Z"/></svg>