<svg xmlns="http://www.w3.org/2000/svg" height="20" viewBox="0 -960 960 960" width="20"><path d="M499.174-44.891q-31.435 0-52.272-21.837T426.065-120v-123.348q0-6.196.739-12.011.739-5.815 3.457-12.011l51.63-171.391q7.479-23.957 27.696-39.054 20.217-15.098 45.174-15.098h30.13v115.217l-54.435 54.435q-7 7-7.5 17.12-.5 10.119 7.5 18.119t17.12 8q9.12 0 17.12-8l68.195-68.196v-164.804q0-16.196 11.457-27.652 11.456-11.457 27.652-11.457t27.652 11.457q11.457 11.456 11.457 27.652v164.044l68.195 67.956q7 7 17.12 7 10.12 0 17.12-7 7-7 7-16.88 0-9.881-7-16.881l-54.435-54.435v-115.695H789q24.957 0 44.674 15.598 19.717 15.597 27.196 39.554l53.869 179.391q2.718 6.196 3.457 12.511.739 6.315.739 12.511V-120q0 31.435-22.457 53.272-22.456 21.837-52.652 21.837H768q-31.435 0-53.272-21.837T692.891-120v-144.587L672-285.478l-20.891 20.891V-120q0 31.435-22.457 53.272Q606.196-44.891 576-44.891h-76.826ZM300-432.565l-37.174-66.348q-5.717-9.196-14.554-15.294-8.837-6.097-20.272-6.097H87.87V-693.13q0-34.783 24.108-58.892 24.109-24.109 58.892-24.109h618.26q34.783 0 58.892 24.109t24.109 58.892v152.217H757.913v-12q-2.87-33.566-27.609-56.392t-58.782-22.826q-34.044 0-58.902 22.826-24.859 22.826-27.729 56.392v12l-54.565 2.239-51.5-92.239q-5.717-8.957-14.674-14.674-8.956-5.717-20.152-5.717-11.435 0-20.891 5.717-9.457 5.717-14.935 14.674L300-432.565ZM170.87-183.869q-34.783 0-58.892-24.109T87.869-266.87v-172.826H203.13l60.805 110.848q5.717 8.718 14.793 14.435 9.076 5.717 21.272 5.717 11.435 0 20.272-5.717 8.837-5.717 14.554-14.674L444-527.435l17.109 29.217q-9.327 10.283-14.892 21.968-5.565 11.685-9.847 24.011l-54.109 169.391q-2.718 6.196-3.457 13.13-.739 6.935-.739 13.37v72.479H170.87Z"/></svg>