<svg xmlns="http://www.w3.org/2000/svg" height="20" viewBox="0 -960 960 960" width="20"><path d="M204-85.717q-46.196 0-78.652-32.457-32.457-32.456-32.457-78.652 0-16.196 11.457-27.652 11.456-11.457 27.652-11.457t27.652 11.457q11.457 11.456 11.457 27.652 0 15.565 10.663 24.228 10.663 8.663 22.228 8.663 10.761 0 26.022-7.5t34.021-21.261q18.761-13.76 39.142-32.521 20.38-18.761 40.141-41.522 39.283-45.283 68.424-100.043 29.141-54.761 29.141-106.044v-359.957q0-16.195 11.457-27.652 11.456-11.456 27.652-11.456t27.652 11.456q11.457 11.457 11.457 27.652v359.957q0 51.283 29.141 106.044 29.141 54.76 68.424 100.043 19.761 22.761 40.141 41.522 20.381 18.761 39.142 32.521 18.76 13.761 34.021 21.261t26.022 7.5q11.565 0 22.228-8.663 10.663-8.663 10.663-24.228 0-16.196 11.457-27.652 11.456-11.457 27.652-11.457t27.652 11.457q11.457 11.456 11.457 27.652 0 46.196-32.457 78.652Q802.196-85.717 756-85.717q-23.239 0-52.978-14t-62.218-38.239q-32.478-24.239-64.217-56.859-31.739-32.62-57.978-71.098-15.479-21.239-23.403-28.522-7.923-7.282-15.206-7.282-7.283 0-15.087 7.163-7.804 7.163-23.283 28.402-26.239 38.478-57.597 71.217-31.359 32.74-63.837 56.979-32.479 24.239-62.218 38.239-29.739 14-53.978 14Zm32.565-127.587-91-74q-12.478-10.478-20.217-24.957-7.739-14.478-7.739-30.956 0-16.479 6.858-31.457 6.859-14.978 19.098-25.456 8.718-7.718 19.174-6.479 10.457 1.239 18.174 9.957 7.717 8.717 6.478 19.174-1.239 10.456-9.956 18.174-3 2.761-5.022 7.282-2.022 4.522-2.022 8.805 0 4.521 1.761 7.924 1.761 3.402 6.283 7.163l99.956 79.717q-11.478 9.478-21.076 18.696-9.598 9.217-20.75 16.413Zm98.478-97.674L199.565-418.696q-13.478-10.478-20.717-25.456-7.239-14.978-7.239-32.457 0-17.478 6.739-31.456 6.739-13.978 20.217-25.457 8.718-6.717 19.294-5.978 10.576.739 18.054 9.457 7.478 8.717 5.859 19.673-1.62 10.957-10.337 17.674-3.761 4-5.402 7.403-1.642 3.402-1.642 7.684 0 4.522 1.761 8.924 1.761 4.402 6.283 8.163l131.043 105.283q-7 11.196-13.358 22.75-6.359 11.554-15.077 21.511Zm63.805-122.826L253.565-551.087q-13.478-10.478-20.717-25.456-7.239-14.979-7.239-32.457t6.739-32.457q6.739-14.978 20.217-26.456 8.718-7.717 19.794-6.478 11.076 1.239 17.554 9.956 7.478 8.718 6.359 19.294-1.12 10.576-9.837 17.054-4 2.761-6.022 7.783-2.022 5.021-2.022 11.304l8.044 16.087 118.456 95.935v12.195q0 12.196-1.521 25.25-1.522 13.055-4.522 25.729Zm-5.957-180.109-77.326-62.565q-14.239-11.479-22.098-27.837-7.858-16.359-7.858-35.076 0-34.196 23.597-57.794 23.598-23.598 57.794-23.598 16.239 0 22.62 8.555 6.38 8.554 6.38 17.837 0 9.282-6.88 17.837Q382.239-768 367-768q-13.043 0-20.826 8.663-7.783 8.663-7.783 18.707 0 6.521 2.642 11.923 2.641 5.403 8.402 10.403l43.456 36.173v68.218Zm168.261 180.109q-2.761-11.957-4.402-25.011-1.641-13.055-1.641-25.25v-12.196l118.456-96.652q4.522-3.522 8.044-16.087 0-6.283-2.022-11.304-2.022-5.022-6.022-7.783-8.956-6.717-9.956-17.674-1-10.956 6.478-19.674 6.478-8.717 17.554-9.956 11.076-1.239 19.794 6.478 13.717 11.478 20.337 26.456 6.619 14.979 6.619 32.457t-7.239 32.457q-7.239 14.978-20.717 26.456L561.152-433.804Zm5.957-180.109v-68.218l43.456-36.173q4.522-4.761 7.783-10.283 3.261-5.522 3.261-12.043 0-11.805-8.283-19.587Q605.043-768 593-768q-16.239 0-22.62-8.554-6.38-8.555-6.38-17.837 0-9.283 6.88-17.837 6.881-8.555 22.12-8.555 34.196 0 57.794 23.598 23.597 23.598 23.597 57.794 0 18.717-7.858 35.076-7.859 16.358-22.098 27.837l-77.326 62.565Zm57.848 302.935q-8.718-10.196-15.077-21.631-6.358-11.434-13.358-22.391l131.043-105.522q3-3 8.044-17.087 0 .239-7.283-15.326-8.717-6.717-10.337-17.554-1.619-10.837 6.098-19.554 7.717-8.957 18.174-10.077 10.456-1.119 19.174 6.598 13.478 11.239 20.217 25.337 6.739 14.098 6.739 31.576 0 17.479-7.239 32.457-7.239 14.978-20.717 25.456L624.957-310.978Zm99.478 97.435q-11.152-7.196-21.75-15.794t-21.076-18.076l100.956-80.717q3.522-2.761 7.044-15.087 0-5.283-2.022-9.805-2.022-4.521-5.022-6.282-8.717-6.718-9.956-17.174-1.239-10.457 6.478-19.174 6.717-8.718 17.674-9.957 10.956-1.239 19.674 6.479 12.239 10.478 19.098 24.956 6.858 14.478 6.858 30.957 0 16.478-7.239 31.456-7.239 14.979-19.717 25.457l-91 72.761Z"/></svg>