<svg xmlns="http://www.w3.org/2000/svg" height="20" viewBox="0 -960 960 960" width="20"><path d="M456.717-364.283v-231.434q0-13.924-12.293-19.136-12.294-5.212-22.489 3.983L313.13-510.065q-12.674 12.942-12.674 30.199t12.674 29.931L421.935-349.13q10.019 9.195 22.401 3.858 12.381-5.337 12.381-19.011ZM213.87-135.869q-32.421 0-55.211-22.79t-22.79-55.211v-532.26q0-32.421 22.79-55.211t55.211-22.79h532.26q32.421 0 55.211 22.79t22.79 55.211v532.26q0 32.421-22.79 55.211t-55.211 22.79H213.87Zm412.043-83.001H741.13v-522.26H625.913v522.26Zm-83 0v-522.26H218.87v522.26h324.043Zm83 0H741.13 625.913Z"/></svg>