<svg xmlns="http://www.w3.org/2000/svg" height="20" viewBox="0 -960 960 960" width="20"><path d="M360.212-475.217q31.94 0 54.255-22.528 22.316-22.528 22.316-54.467 0-31.94-22.528-54.255-22.528-22.316-54.467-22.316-31.94 0-54.255 22.528-22.316 22.528-22.316 54.467 0 31.94 22.528 54.255 22.528 22.316 54.467 22.316Zm240 0q31.94 0 54.255-22.528 22.316-22.528 22.316-54.467 0-31.94-22.528-54.255-22.528-22.316-54.467-22.316-31.94 0-54.255 22.528-22.316 22.528-22.316 54.467 0 31.94 22.528 54.255 22.528 22.316 54.467 22.316Zm-237.342 336V-290.87h78.021v151.653H362.87Zm156.239 0V-290.87h78.021v151.653h-78.021Zm-297.14 0q-34.534 0-58.643-24.259t-24.109-58.742V-624q0-81.993 57.395-139.388Q254.007-820.783 336-820.783h288q81.993 0 139.388 57.395Q820.783-705.993 820.783-624v401.782q0 34.483-24.259 58.742t-58.742 24.259h-62.434v-149.261q0-34.483-24.259-58.742t-58.741-24.259H366.696q-34.534 0-58.351 24.259t-23.817 58.742v149.261h-62.559Z"/></svg>