<svg xmlns="http://www.w3.org/2000/svg" height="20" viewBox="0 -960 960 960" width="20"><path d="M259.978-469.065q27.435-67.87 65.609-127.761 38.174-59.892 85.087-116.522l-72.196-9q-19.63-4.478-37.761 2.239-18.13 6.717-32.282 20.87L139.587-569.392q-15.913 15.913-11.815 36.664 4.097 20.75 23.489 27.184l108.717 36.479Zm555.87-389.044q-95.717-3.326-181.554 37.217-85.837 40.544-153.316 109.022-49.434 50.435-91.011 106.25-41.576 55.815-67.771 121.25-4.957 12.674-4.598 25.087t9.554 21.609l106.522 107.522q9.196 9.195 22.109 10.554 12.913 1.359 25.587-4.837 65.195-27.435 122.13-69.391 56.935-41.957 106.37-92.392 66.478-67.478 107.022-152.195 40.543-84.718 38.217-179.435 0-8.196-3.359-15.152-3.358-6.957-9.076-12.674-5.717-5.718-12.174-9.076-6.456-3.359-14.652-3.359Zm-258.478 298.5q-20.522-20.522-20.522-49.685 0-29.163 20.522-49.684 20.521-20.522 49.804-20.522t49.804 20.522q20.522 20.521 20.522 49.684 0 29.163-20.522 49.685-20.521 20.522-49.804 20.522t-49.804-20.522Zm-90.305 297.392 36.239 109.956q6.435 19.631 26.685 23.609 20.25 3.978 35.403-11.174l145.847-145.848q18.153-18.152 22.37-41.663 4.217-23.511-5.261-46.141l-17.239-39.196q-56.391 45.913-116.402 84.468-60.011 38.554-127.642 65.989Zm-301.348-68.305q35.392-34.391 83.761-34.772 48.37-.38 82.761 34.011 34.391 34.392 32.391 82.261-2 47.87-36.391 82.261-47.391 47.392-113.217 61.109-65.827 13.718-132.653 22.24 7.522-66.827 21.62-133.153t61.728-113.957Z"/></svg>