<svg xmlns="http://www.w3.org/2000/svg" height="20" viewBox="0 -960 960 960" width="20"><path d="M181.239-216.239v-527.522q0-34.483 24.271-58.741 24.27-24.259 58.77-24.259h431.764q34.5 0 58.608 24.259 24.109 24.258 24.109 58.741v527.522h54.5q17.452 0 29.476 11.963 12.024 11.964 12.024 29.326 0 17.363-12.024 29.537t-29.476 12.174H126.739q-17.452 0-29.476-11.963-12.024-11.964-12.024-29.326 0-17.363 12.024-29.537t29.476-12.174h54.5Zm83 0h431.522v-224.652H519.109v67.5q14 9.239 19 20.097 5 10.859 5 28.337 0 27.292-17.438 45.201-17.438 17.908-45.772 17.908-27.334 0-45.171-17.908-17.837-17.909-17.837-45.201 0-17.478 5.5-28.456 5.5-10.978 18.5-20.217v-67.261H264.239v224.652Z"/></svg>