<svg xmlns="http://www.w3.org/2000/svg" height="20" viewBox="0 -960 960 960" width="20"><path d="M480.211-232.587q-16.735 0-28.267-11.381-11.531-11.381-11.531-28.206v-415.652q0-16.825 11.321-28.206 11.32-11.381 28.055-11.381t28.267 11.381q11.531 11.381 11.531 28.206v415.652q0 16.825-11.321 28.206-11.32 11.381-28.055 11.381ZM40.587-325v-38.5q0-23.435 12.956-42.37 12.957-18.934 34.575-28.699Q111.174-445 136.761-450.5t53.195-5.5q27.609 0 53.23 5.478 25.621 5.479 49.292 16 21.46 9.718 34.284 28.652 12.825 18.935 12.825 42.37v38.5h-299Zm579.826 0v-38.5q0-23.435 12.825-42.37 12.824-18.934 34.467-28.699Q690.761-445 716.467-450.5q25.707-5.5 53.316-5.5 27.608 0 53.11 5.478 25.501 5.479 49.172 16 21.435 9.718 34.392 28.652 12.956 18.935 12.956 42.37v38.5h-299ZM189.957-478.087q-32.022 0-54.696-22.853-22.674-22.854-22.674-54.946t22.853-54.647q22.854-22.554 54.946-22.554t54.647 22.804q22.554 22.804 22.554 54.826 0 32.022-22.804 54.696t-54.826 22.674Zm579.826 0q-32.022 0-54.696-22.853-22.674-22.854-22.674-54.946t22.853-54.647q22.854-22.554 54.946-22.554t54.647 22.804q22.554 22.804 22.554 54.826 0 32.022-22.804 54.696-22.803 22.674-54.826 22.674Z"/></svg>