<svg xmlns="http://www.w3.org/2000/svg" height="20" viewBox="0 -960 960 960" width="20"><path d="M289.478-95.283H139.022q-18.392 0-30.565-12.674-12.174-12.673-10.935-31.065 7.761-141.652 85.902-239.174 78.141-97.521 219.076-127.239v-112.587q-45.826-6.956-93.489-21.413-47.663-14.456-88.892-38.076-41.228-23.619-71.456-57.522-30.228-33.902-42.185-79.228-4.478-19.391 8.316-34.924 12.793-15.532 32.184-15.532h666.044q19.391 0 32.184 15.532 12.794 15.533 8.555 34.924-11.957 45.326-42.185 79.348t-71.456 57.641q-41.229 23.62-89.011 37.957-47.783 14.337-93.609 21.293v112.587q140.935 29.718 219.076 127.239 78.141 97.522 85.902 239.174 1.239 18.392-10.935 31.065-12.173 12.674-30.565 12.674H670.522q-17.152 0-29.326-12.174-12.174-12.173-12.174-29.326 0-17.152 12.174-29.326t29.326-12.174h104.043q-14.196-110.674-95.174-181.63-80.978-70.956-199.63-70.956t-198.772 70.956q-80.119 70.956-95.554 181.63h104.043q17.152 0 29.326 12.174t12.174 29.326q0 17.153-12.174 29.326-12.174 12.174-29.326 12.174Zm186.935 0q-31.478 0-52.457-20.978-20.978-20.978-20.978-52.456 0-16.24 5-29.098 5-12.859 16.478-23.098 8.761-8.761 25.74-19.141 16.978-10.381 42.456-22.62L576.109-296q12.913-5.717 23.108 3.978 10.196 9.696 4.479 22.609l-37.326 91.456q-11.24 23.718-20.74 38.696-9.5 14.978-17.26 22.739-10.24 11.479-22.979 16.359-12.739 4.88-28.978 4.88Z"/></svg>