<svg xmlns="http://www.w3.org/2000/svg" height="20" viewBox="0 -960 960 960" width="20"><path d="M603.587-579.587q-9.882 0-16.941-7.059-7.059-7.059-7.059-16.941v-144q0-9.882 7.059-16.941 7.059-7.059 16.941-7.059h24v-24q0-29.7 21.212-50.85 21.213-21.15 51-21.15 29.788 0 50.788 21.15 21 21.15 21 50.85v24h24q9.882 0 16.941 7.059 7.059 7.059 7.059 16.941v144q0 9.882-7.059 16.941-7.059 7.059-16.941 7.059h-192Zm60-192h72v-24q0-14-10.35-25t-25.65-11q-14 0-25 11t-11 25v24Zm-288.913 582.13-20.109-20.108q-11.717-11.718-11.217-27.935t13.217-27.935q11.718-10.717 26.935-10.717 15.217 0 26.935 11.717l126.478 126.478q10.478 10.479 6.215 23.81-4.264 13.332-18.209 15.765-11.484 1.621-22.499 2.24-11.015.62-21.942.62-79.127 0-149.064-30-69.936-30-122.436-82.5t-82.5-122.436q-30-69.936-30-149.064 0-16.113 10.84-27.013 10.839-10.9 26.863-10.9 15.922 0 26.903 10.9 10.981 10.9 10.981 27.013 0 49.175 15.044 93.957 15.043 44.782 41.75 82.826 26.706 38.043 63.695 66.684 36.989 28.642 82.12 46.598Zm322.847-275.239 59.892-59.652 33.283 33.283q25.587 24.587 25.587 59.63 0 35.044-25.587 59.631l-154.5 154.5q-24.587 24.587-59.037 24.587-34.449 0-60.224-24.587L217.783-516.696q-25.109-24.108-25.348-59.271-.239-35.164 25.348-59.751l154.499-154.499q25.505-24.587 59.47-24.587t59.552 24.587l33.283 33.282-58.891 58.414-34.283-33.283-155.217 155.217 299.869 300.869 156.217-155.217-34.761-33.761Zm-182.282-53.065Z"/></svg>