<svg xmlns="http://www.w3.org/2000/svg" height="20" viewBox="0 -960 960 960" width="20"><path d="M384-336q-9.882 0-16.941-7.059Q360-350.118 360-360v-144q0-9.882 7.059-16.941Q374.118-528 384-528h24v-24q0-29 21.212-50.5 21.213-21.5 51-21.5Q510-624 531-602.5q21 21.5 21 50.5v24h24q9.882 0 16.941 7.059Q600-513.882 600-504v144q0 9.882-7.059 16.941Q585.882-336 576-336H384Zm60-192h72v-24q0-15.3-10.289-25.65-10.29-10.35-25.5-10.35Q465-588 454.5-577.65 444-567.3 444-552v24ZM123.587-184.587q-34.483 0-58.741-24.259-24.26-24.258-24.26-58.741v-424.826q0-34.483 24.26-58.741 24.258-24.259 58.741-24.259h712.826q34.483 0 58.741 24.259 24.259 24.258 24.259 58.741v424.826q0 34.483-24.259 58.741-24.258 24.259-58.741 24.259H123.587Zm48-83v-424.826h-48v424.826h48Zm72 0h472.826v-424.826H243.587v424.826Zm544.826 0h48v-424.826h-48v424.826ZM171.587-692.413h-48 48Zm616.826 0h48-48Z"/></svg>