<svg xmlns="http://www.w3.org/2000/svg" height="20" viewBox="0 -960 960 960" width="20"><path d="M269.5-138.5q-34.237 0-58.619-24.731Q186.5-187.963 186.5-221.5v-517q0-34.237 24.381-58.619Q235.263-821.5 269.5-821.5h421q33.537 0 58.269 24.381Q773.5-772.737 773.5-738.5v517q0 33.537-24.731 58.269Q724.037-138.5 690.5-138.5h-421Zm0-83h421v-517h-421v517Zm345.3-207.391q21.548 0 36.624-15.046 15.076-15.047 15.076-36.541 0-21.595-14.957-36.71-14.956-15.116-36.574-15.116t-36.75 15.132q-15.132 15.132-15.132 36.75 0 21.618 15.083 36.574 15.083 14.957 36.63 14.957ZM269.5-738.5v517-517Z"/></svg>