<svg xmlns="http://www.w3.org/2000/svg" height="20" viewBox="0 -960 960 960" width="20"><path d="M479-432q-49.905 0-94.137 21.424-44.233 21.424-75.233 60.989-14.956 18.957-5.336 40.272Q313.913-288 337.87-288q9.82 0 18.486-4.478 8.666-4.479 15.383-11.718 20.283-23.847 48.186-38.032 27.903-14.185 59.089-14.185t59.465 13.268q28.279 13.268 47.782 36.949 5.956 7.239 14.051 12.718Q608.407-288 618.37-288q23.956 0 35.195-21.457 11.239-21.456-3.478-41.173-30.239-40.805-75.444-61.087Q529.439-432 479-432Zm131.087-70.087q25.956 0 43.935-17.978Q672-538.043 672-564t-17.978-43.935q-17.979-17.978-43.816-17.978-25.836 0-43.815 18.041-17.978 18.042-17.978 43.816 0 25.773 17.988 43.871 17.988 18.098 43.686 18.098Zm-260.293 0q25.836 0 43.815-18.041 17.978-18.042 17.978-43.816 0-25.773-17.988-43.871-17.988-18.098-43.686-18.098-25.956 0-43.935 17.978Q288-589.957 288-564t17.978 43.935q17.979 17.978 43.816 17.978ZM480.256-87.869q-80.93 0-152.365-30.598t-125.13-84.294q-53.696-53.695-84.294-125.109-30.598-71.413-30.598-152.608 0-81.196 30.598-152.131t84.294-124.63q53.695-53.696 125.109-84.294 71.413-30.598 152.608-30.598 81.196 0 152.131 30.598t124.63 84.294q53.696 53.695 84.294 124.874 30.598 71.18 30.598 152.109 0 80.93-30.598 152.365t-84.294 125.13q-53.695 53.696-124.874 84.294-71.18 30.598-152.109 30.598ZM480-480Zm0 309.13q128.565 0 218.848-90.282Q789.13-351.435 789.13-480t-90.282-218.848Q608.565-789.13 480-789.13t-218.848 90.282Q170.87-608.565 170.87-480t90.282 218.848Q351.435-170.87 480-170.87Z"/></svg>