<svg xmlns="http://www.w3.org/2000/svg" height="20" viewBox="0 -960 960 960" width="20"><path d="M480-87.87q-80.913 0-152.348-30.597-71.435-30.598-125.011-84.174-53.576-53.576-84.174-125.011Q87.869-399.087 87.869-480q0-81.913 30.598-153.348 30.598-71.435 84.174-124.511 53.576-53.076 125.011-83.674Q399.087-872.131 480-872.131q81.913 0 153.348 30.598 71.435 30.598 124.511 83.674 53.076 53.076 83.674 124.511Q872.131-561.913 872.131-480q0 80.913-30.598 152.348-30.598 71.435-83.674 125.011-53.076 53.576-124.511 84.174Q561.913-87.869 480-87.869Zm130.087-390.217q23.956 0 40.935-17.478Q668-513.043 668-537q0-14-6.38-26.38-6.381-12.381-18.142-21.098l8.848-5.805q9.478-5 12.098-15.837 2.619-10.837-3.381-19.315-5-8.478-14.837-10.598-9.836-2.119-18.315 2.881l-98.043 56.522q-9.478 5.239-12.337 16.434-2.859 11.196 4.576 22.348 4.761 7.522 13.641 9.402 8.881 1.881 16.402-2.88l-.478.239q2.718 23 18.957 38t39.478 15Zm-260.174 0q23.239 0 39.478-15t18.957-38l-.478-.239q7.521 4.761 16.021 2.022 8.5-2.739 14.218-11.935 5.239-8.478 3-19.815-2.239-11.337-11.718-16.576l-98.282-55.522q-8.479-5.239-18.315-3.12-9.837 2.12-14.837 10.598-6 8.478-3.381 19.435 2.62 10.956 12.098 15.956l9.848 5.805q-11.761 8.717-18.642 21.098Q291-551 291-537q0 23.957 17.478 41.435 17.479 17.478 41.435 17.478ZM481-434.87q-63.478 0-110.978 41.576-47.5 41.577-57.305 105.294h334.566q-7.805-63.957-55.305-105.413Q544.478-434.87 481-434.87Z"/></svg>