<svg xmlns="http://www.w3.org/2000/svg" height="20" viewBox="0 -960 960 960" width="20"><path d="M577.913-28.39q-20.897 0-35.524-14.698-14.628-14.698-14.628-35.694v-298.099q0-20.901 14.63-35.619 14.631-14.717 35.532-14.717h298.089q20.901 0 35.619 14.697 14.717 14.698 14.717 35.694v298.099q0 20.901-14.697 35.619-14.698 14.717-35.694 14.717H577.913Zm0-50.392h298.044v-41.148q-29.925-27.112-67.756-42.776-37.831-15.663-81.266-15.663t-81.266 15.663q-37.831 15.664-67.756 42.776v41.148Zm149.064-149.022q25.914 0 44.012-18.14t18.098-44.055q0-25.914-18.14-44.012t-44.054-18.098q-25.915 0-44.012 18.141-18.098 18.14-18.098 44.054t18.14 44.012q18.14 18.098 44.054 18.098ZM455.761-87.869h-24.913q-15.133 0-27.197-9.435t-14.303-24.348L373.587-204.5q-21.187-8.308-41.083-19.339-19.895-11.03-37.461-25.835l-79.847 27.283q-13.913 4.956-27.946-.381-14.033-5.337-21.989-18.25l-49.392-86.304q-7.956-12.913-5.558-27.845 2.399-14.931 13.993-24.09l63.087-55.565q-1.761-11.003-2.761-22.077-1-11.074-1-23.077 0-12.002 1-23.076t2.761-22.118L124.304-580.5q-11.594-9.214-13.993-24.237-2.398-15.024 5.558-27.937l49.392-86.065q7.956-12.674 21.989-18.511 14.033-5.837 27.946-.12l80.326 27.283q17.565-14.804 37.152-25.728 19.587-10.924 40.913-19.207l15.761-83.326q2.239-14.913 14.303-24.348 12.064-9.435 27.197-9.435h98.304q15.133 0 27.197 9.435t14.303 24.348l15.761 83.326q21.187 8.245 41.083 19.188 19.895 10.943 37.461 25.747l79.847-27.283q13.913-4.717 27.946.62 14.033 5.337 21.989 18.011l49.152 85.348q7.957 12.913 5.359 28.185-2.598 15.271-14.511 24.467l-65.717 56.522q1 6 1.5 12.5t1.5 12.5H621.239q-6.565-52.913-45.163-88.848T479.283-624q-60 0-102 42t-42 102q0 54 34.358 93.62Q404-346.761 455.761-338v250.13Z"/></svg>