<svg xmlns="http://www.w3.org/2000/svg" height="20" viewBox="0 -960 960 960" width="20"><path d="M295.217-164.652h134.805-214.979 80.174Zm-77.782 80.609q-34.483 0-58.742-24.259-24.258-24.259-24.258-58.741v-625.914q0-33.537 24.258-58.268 24.259-24.732 58.742-24.732h322.847q33.538 0 58.269 24.732 24.732 24.731 24.732 58.268v241.892q-22.153 4.478-42.424 11.554-20.272 7.076-38.947 16.75v-272.587H215.043v264.283q17.044-9.565 37.497-16.207 20.454-6.641 42.677-6.641h167.357q23.274 0 45.22 6.261 21.945 6.261 42.184 20.261-20.913 11.434-39.326 25.945-18.413 14.511-34.131 30.903-4.76-2-9.521-2.381-4.761-.38-9.522-.38H295.217q-33.071 0-56.622 23.551-23.552 23.551-23.552 56.623v228.478h214.979q14.587 24.109 31.022 44.275 16.434 20.167 36.847 36.334H217.435Zm161.048-514.87q-29.974 0-51.098-21.332t-21.124-51.478q0-30.147 21.124-51.386 21.124-21.239 50.978-21.239 29.854 0 51.593 21.423 21.74 21.423 21.74 51.507 0 30.266-21.711 51.385-21.711 21.12-51.502 21.12Zm-38.859 319.044v28.108q0 16.496 11.3 27.802 11.3 11.307 27.656 11.307 9.637 0 17.496-4.211 7.859-4.21 13.337-11.507-3.239-14.478-4.478-29.681-1.239-15.204-1.239-29.681 0-21.076 3.119-41.629 3.12-20.552 8.881-37.356v-26.174q-1.674-13.865-12.083-23.139t-24.903-9.274q-16.406 0-27.746 11.306-11.34 11.307-11.34 27.803v28.108h-28.225q-16.545 0-27.885 11.307-11.34 11.306-11.34 27.802 0 16.496 11.34 27.802 11.34 11.307 27.885 11.307h28.225Zm332.15 188.173q-81.687 0-138.883-57.421-57.195-57.422-57.195-139.109 0-81.687 57.421-138.883 57.422-57.195 139.109-57.195 81.687 0 138.883 57.421 57.195 57.422 57.195 139.109 0 81.687-57.421 138.883-57.422 57.195-139.109 57.195Zm29.009-208.461V-360q0-11.752-8.516-20.267-8.515-8.516-20.267-8.516-11.752 0-20.267 8.516-8.516 8.515-8.516 20.267v74.957q0 2.13 5.718 14.913l57.717 57.478q8.799 8.435 20.53 8.435 11.731 0 20.166-8.486t8.435-20.286q0-11.8-8.435-20.598l-46.565-46.57Z"/></svg>