<svg xmlns="http://www.w3.org/2000/svg" height="20" viewBox="0 -960 960 960" width="20"><path d="M246.978-91.217v-164.435q1.196-.478-23.185-13.837-24.38-13.359-53.619-44.098-29.239-30.739-54.098-83.217Q91.217-449.283 91.217-528q0-147.391 111.816-244.087Q314.848-868.783 480-868.783t276.967 96.696Q868.783-675.391 868.783-528q0 78.717-24.859 131.196-24.859 52.478-54.098 83.217-29.239 30.739-53.619 44.098-24.381 13.359-23.185 13.837v164.435H246.978Zm83-78.218h26.435v78.218h74.391v-78.218h98.392v78.218h74.391v-78.218h26.435v-139.239q-.24-1.435 24.26-9.174 24.5-7.739 53.5-30.88 29-23.142 53.5-65.805 24.5-42.663 24.5-113.467 0-111.37-87.326-184.576Q611.13-785.782 480-785.782t-218.456 73.206Q174.218-639.37 174.218-528q0 70.804 24 113.467t53.5 65.805q29.5 23.141 53.88 30.88 24.38 7.739 24.38 9.174v139.239Zm85.239-157.478h129.566L480-456.478l-64.783 129.565ZM336-453.609q31.196 0 52.794-21.717 21.597-21.717 21.597-52.674 0-31.196-21.597-52.794-21.598-21.597-52.794-21.597-30.957 0-52.674 21.597-21.717 21.598-21.717 52.794 0 30.957 21.717 52.674T336-453.609Zm288 0q31.196 0 52.794-21.717 21.597-21.717 21.597-52.674 0-31.196-21.597-52.794-21.598-21.597-52.794-21.597-30.957 0-52.674 21.597-21.717 21.598-21.717 52.794 0 30.957 21.717 52.674T624-453.609ZM329.978-169.435v-139.239q0-1.435-24.38-9.174-24.38-7.739-53.88-30.88-29.5-23.142-53.5-65.805-24-42.663-24-113.467 0-111.37 87.326-184.576Q348.87-785.782 480-785.782t218.456 73.206Q785.782-639.37 785.782-528q0 70.804-24.5 113.467t-53.5 65.805q-29 23.141-53.5 30.88-24.5 7.739-24.26 9.174v139.239H329.978Z"/></svg>