<svg xmlns="http://www.w3.org/2000/svg" height="20" viewBox="0 -960 960 960" width="20"><path d="M623.761-462.609q9.196-6.074 9.196-17.57 0-11.495-9.196-17.212l-209.37-133.326q-10.434-6.718-21.369-.75-10.935 5.967-10.935 18.141v266.337q0 12.989 10.935 18.706 10.935 5.718 21.369-1l209.37-133.326ZM218.87-135.869q-34.483 0-58.742-24.259t-24.259-58.742v-522.26q0-34.483 24.259-58.742t58.742-24.259h522.26q34.483 0 58.742 24.259t24.259 58.742v522.26q0 34.483-24.259 58.742t-58.742 24.259H218.87Z"/></svg>