<svg xmlns="http://www.w3.org/2000/svg" height="20" viewBox="0 -960 960 960" width="20"><path d="M165.823-275.087q-34.274 0-58.505-24.381t-24.231-58.619v-243.826q0-34.238 24.381-58.619t58.619-24.381h627.826q34.238 0 58.619 24.381t24.381 58.619v243.826q0 34.238-24.308 58.619-24.309 24.381-58.444 24.381-17.4 0-29.574-11.963-12.174-11.964-12.174-29.326 0-17.363 12.024-29.537t29.476-12.174v-243.826H166.087v243.826h176.136q17.429 0 29.603 11.964Q384-334.16 384-316.797q0 17.362-12.037 29.536-12.036 12.174-29.507 12.174H165.823Zm364.981-15.717-78.174-36q-5.717-2.383-5.717-9.148t5.717-9.244l78.174-36 36-78.174q2.383-5.717 9.148-5.717t9.244 5.717l36 78.174 78.174 36q5.717 2.383 5.717 9.148t-5.717 9.244l-78.174 36-36 78.174q-2.383 5.717-9.148 5.717t-9.244-5.717l-36-78.174Zm127.08-175.08-37.014-16.92q-5.718-2.383-5.718-9.148t5.718-9.244l37.014-16.92 16.92-37.014q2.383-5.718 9.148-5.718t9.244 5.718l16.92 37.014 37.014 16.92q5.718 2.383 5.718 9.148t-5.718 9.244l-37.014 16.92-16.92 37.014q-2.383 5.718-9.148 5.718t-9.244-5.718l-16.92-37.014Z"/></svg>