<svg xmlns="http://www.w3.org/2000/svg" height="20" viewBox="0 -960 960 960" width="20"><path d="m467.131-385.196 104.711-85.261q1.267-.999 7.745-14.986v-16.166q0-11.834-7.876-19.711-7.876-7.876-19.711-7.876H408q-11.835 0-19.711 7.876-7.876 7.877-7.876 19.711 0 11.835 7.996 19.831 7.995 7.996 19.83 7.996h84.63l-104.73 85.512q-1.248.987-7.726 15.904v14.757q0 11.835 7.876 19.831 7.876 7.996 19.711 7.996h144q11.835 0 19.711-7.996 7.876-7.996 7.876-19.831 0-11.834-7.876-19.711-7.876-7.876-19.711-7.876h-84.869ZM480-87.869q-71.435 0-134.123-27.198-62.687-27.198-109.15-73.66-46.462-46.463-73.66-109.15Q135.869-360.565 135.869-432q0-71.435 27.198-134.123 27.198-62.687 73.66-109.15 46.463-46.462 109.15-73.66Q408.565-776.131 480-776.131q71.435 0 134.123 27.198 62.687 27.198 109.15 73.66 46.462 46.463 73.66 109.15Q824.131-503.435 824.131-432q0 71.435-27.198 134.123-27.198 62.687-73.66 109.15-46.463 46.462-109.15 73.66Q551.435-87.869 480-87.869ZM480-432ZM84.152-652.152q-11.717-11.718-11.598-26.935.12-15.217 11.837-26.935l122.826-122.826q11.718-11.717 26.816-11.717 15.097 0 26.815 11.717 11.717 11.717 11.717 26.935 0 15.217-11.717 26.935L137.022-651.152q-11.718 11.717-26.435 11.217-14.718-.5-26.435-12.217Zm792.696 0q-11.717 11.717-26.935 11.717-15.217 0-26.935-11.717L700.152-774.978q-11.717-11.718-11.717-26.935 0-15.218 11.717-26.935 11.718-11.717 26.935-11.598 15.217.12 26.935 11.837l122.826 123.826q11.717 11.718 11.717 26.316 0 14.597-11.717 26.315ZM479.778-170.87q109.026 0 185.189-75.941t76.163-184.967q0-109.026-75.941-185.189T480.222-693.13q-109.026 0-185.189 75.941T218.87-432.222q0 109.026 75.941 185.189t184.967 76.163Z"/></svg>