<svg xmlns="http://www.w3.org/2000/svg" height="20" viewBox="0 -960 960 960" width="20"><path d="M638.513-600.239q-35.839 0-61.056-25.335-25.218-25.334-25.218-61.174 0-35.839 25.335-61.056 25.334-25.218 61.174-25.218 35.839 0 61.056 25.335 25.218 25.334 25.218 61.174 0 35.839-25.335 61.056-25.334 25.218-61.174 25.218Zm209.405-37.674q-31.07 0-52.983-22.126-21.913-22.125-21.913-53.195t22.125-52.983q22.126-21.914 53.196-21.914 31.07 0 52.983 22.126 21.913 22.126 21.913 53.196 0 31.069-22.125 52.983-22.126 21.913-53.196 21.913Zm-131.759-158.87q-25.985 0-44.202-18.189-18.218-18.189-18.218-44.174t18.19-44.202q18.189-18.217 44.173-18.217 25.985 0 44.203 18.189 18.217 18.189 18.217 44.174 0 25.984-18.189 44.202-18.19 18.217-44.174 18.217ZM234.902-87.869q-61.359 0-104.196-42.837-42.837-42.837-42.837-104.272v-175.479q0-22.86 9.86-42.625 9.858-19.766 27.575-34.005l303.309-247.386q14.083-12.049 28.083-8.288 14 3.761 25.239 14.522 20.587 18.913 25.641 46.29 5.054 27.378-7.141 51.862l-46.87 92.522h283.218q16.495 0 27.802 11.246 11.306 11.246 11.306 27.652t-11.306 27.863q-11.307 11.456-27.802 11.456h-339.87q-22.925 0-35.452-19.533-12.526-19.532-2.048-40.402l49.413-96.891-235.174 190.348q-3.282 3.761-5.424 7.363-2.141 3.603-2.141 8.006v175.479q0 28.417 20.237 48.654 20.237 20.237 48.654 20.237h453.805q16.495 0 27.802 11.246 11.306 11.246 11.306 27.652 0 16.407-11.306 27.863-11.307 11.457-27.802 11.457H234.902Zm597.913-247.653h-297.55q-16.483 0-27.939-11.246-11.457-11.246-11.457-27.652t11.298-27.863q11.297-11.456 27.779-11.456h297.55q16.482 0 27.939 11.246 11.456 11.246 11.456 27.652t-11.297 27.863q-11.297 11.456-27.779 11.456Zm-47.793 123.826H534.574q-15.792 0-27.248-11.246-11.457-11.246-11.457-27.652t11.307-27.863q11.306-11.456 27.802-11.456h250.448q15.792 0 27.248 11.246 11.457 11.246 11.457 27.652t-11.307 27.863q-11.306 11.456-27.802 11.456Zm-454.044-98.608Z"/></svg>