<svg xmlns="http://www.w3.org/2000/svg" height="20" viewBox="0 -960 960 960" width="20"><path d="M279.826-140.174q-81.039 0-137.933-56.893Q85-253.961 85-335q0-82.913 61.435-138.728 61.434-55.816 145.347-55.337l-126.934-279.87q-9.435-20.869 2.489-39.88 11.924-19.011 35.293-19.011h154.826q24.576 0 44.712 12.674 20.136 12.674 30.332 35.543l47.5 105 47.5-105q10.196-22.869 30.332-35.543 20.136-12.674 44.712-12.674H757.37q23.369 0 35.293 19.011t2.489 39.88l-126.934 277.87q85.152-.479 145.967 55.837Q875-418.913 875-336q0 81.726-57.05 138.776-57.05 57.05-138.776 57.05-12.196 0-23.272-1.859-11.076-1.858-22.272-4.097 44.914-32.805 67.555-82.998Q723.826-279.321 723.826-336q0-101.435-71.196-172.63-71.195-71.196-172.63-71.196T307.37-508.63Q236.174-437.435 236.174-336q0 55.957 23.359 105.794 23.358 49.836 67.076 84.076-12.196 2.478-23.392 4.217-11.195 1.739-23.391 1.739Zm200.174-24q-71.435 0-121.63-50.196-50.196-50.195-50.196-121.63t50.196-121.63q50.195-50.196 121.63-50.196t121.63 50.196q50.196 50.195 50.196 121.63T601.63-214.37Q551.435-164.174 480-164.174Zm0-121.022 47.456 35.652q5.718 4.479 12.055.063t4.098-11.497l-18.326-58.5L571.5-353.13q5.717-4.479 3.692-11.435-2.025-6.957-9.41-6.957h-57.298l-18.288-62.021q-2.256-6.957-10.085-6.957-7.828 0-10.307 6.957l-18.288 62.021h-57.298q-7.385 0-9.41 6.957-2.025 6.956 3.692 11.435l46.217 33.652-18.326 58.5q-2.239 7.081 4.098 11.497 6.337 4.416 12.055-.063L480-285.196Z"/></svg>