<svg xmlns="http://www.w3.org/2000/svg" height="20" viewBox="0 -960 960 960" width="20"><path d="M493.674-278.435 375.457-159.978q-24.348 24.348-58.772 24.348t-58.772-24.348l-97.935-97.935q-24.348-24.348-24.348-58.772t24.348-58.772l118.457-118.217v-96.348q0-27.587 25.467-38.522 25.468-10.935 45.098 8.696L619.609-349q19.63 19.63 8.815 45.098-10.815 25.467-38.402 25.467h-96.348Zm178.63-392.869q-56.521-56.522-133.543-71.522-77.022-15-149.783 13.282-14.956 5.24-28.554-.119-13.598-5.359-19.315-20.076-6.479-15.479.141-30.316 6.62-14.836 22.098-21.076 92.956-35 190.913-15.521 97.957 19.478 170.435 91.956 71.239 71.239 91.717 167.881 20.478 96.641-13.326 189.119-5.239 15.957-20.956 23.294-15.718 7.337-31.674 2.337-14.718-5-19.816-20.098-5.097-15.098-.097-29.815 25.282-72.761 11.282-148.283-14-75.522-69.522-131.043Zm-52 51q29.783 29.782 42.946 69.717 13.163 39.935 9.424 80.914-1.391 8.26-12.413 12.478-11.022 4.217-23.87.304-14.956-6.783-26.25-19.696-11.293-12.913-17.119-27.87-2.044-17.087-9.348-32.173-7.304-15.087-19.87-27.653-12.565-12.565-26.913-19.13-14.347-6.565-31.195-8.609-15.957-5.826-28.25-18.239-12.294-12.413-16.598-27.13-1.435-14.087 4.402-24.37 5.837-10.282 15.337-10.674 38.5-2.5 75.337 11.044 36.837 13.543 64.38 41.087Z"/></svg>