<svg xmlns="http://www.w3.org/2000/svg" height="20" viewBox="0 -960 960 960" width="20"><path d="M403-90.5q-104.913 0-178.141-65.652-73.229-65.652-86.359-179.805-1.761-11.913 7.413-20.728Q155.087-365.5 168-365.5h417.978L630.5-768.478q5.239-44.152 37.293-72.587Q699.848-869.5 744-869.5q47.391 0 80.446 33.054Q857.5-803.391 857.5-756v13.283q0 17.152-12.174 29.326T816-701.217q-17.152 0-29.326-12.174T774.5-742.717V-756q0-12.848-8.826-21.674Q756.848-786.5 744-786.5q-11.848 0-20.293 7.446-8.446 7.445-10.207 19.532l-48 429q-11.239 104.913-85.793 172.468Q505.152-90.5 403-90.5Zm0-83q51.935 0 97.065-28.772 45.13-28.771 67.609-80.228H237.805q23 53.457 67.13 81.228Q349.065-173.5 403-173.5Zm5-109ZM262.239-433.913q-13.435 0-20.652-10.315-7.218-10.316-4.5-26.229 1-7.043 1.5-11.543.5-4.5.5-9.5 0-30.761-18-70.163t-18-65.837q0-8.478 1.239-16.978 1.239-8.5 5-18.979 3.239-7.956 10.315-12.793 7.076-4.837 14.75-4.837 14.152 0 20.131 10.315 5.978 10.315 3.739 26.468-1.761 13.282.239 16.804 0 26.717 17.5 64.761 17.5 38.043 17.5 71.239 0 11.761-1.5 21.5t-4.739 18.456q-2.239 6.957-9.055 12.294-6.815 5.337-15.967 5.337Zm231.587 0q-13.435 0-20.533-9.815-7.098-9.816-4.38-26.729 1-6.043 1.5-11.043.5-5 .5-10 0-32.239-18-70.783-18-38.543-18-65.217 0-8.478 1.119-16.978 1.12-8.5 4.881-18.979 3.239-7.956 10.315-12.793 7.076-4.837 14.75-4.837 13.913 0 20.631 10.435 6.717 10.434 4.478 26.348-.522 4.847-1 16.804 0 26.717 17.5 64.761 17.5 38.043 17.5 71.239 0 11.761-1.381 21.5-1.38 9.739-4.619 18.456-2.239 7.957-9.174 12.794-6.935 4.837-16.087 4.837Zm-115.913 0q-13.435 0-19.533-9.815-6.098-9.816-3.38-26.729 1-6.043 1-11.043v-10q0-32.239-18.5-70.783Q319-600.826 319-627.5q0-8.478.739-16.978.739-8.5 4.5-18.979 3.239-7.956 9.815-12.793 6.576-4.837 15.25-4.837 13.152 0 20.631 10.315 7.478 10.315 4.239 26.468.239-.718-1.761 16.804 0 26.717 19.5 64.761 19.5 38.043 19.5 71.239 0 11.761-1.5 21.5t-4.739 18.456q-2.239 7.957-10.174 12.794-7.935 4.837-17.087 4.837Z"/></svg>