<svg xmlns="http://www.w3.org/2000/svg" height="20" viewBox="0 -960 960 960" width="20"><path d="M480.12-423.63q-63.707 0-107.979-44.272t-44.272-107.859q0-63.587 44.272-107.859Q416.413-727.891 480-727.891q63.587 0 107.859 44.271 44.272 44.272 44.272 107.859 0 63.587-44.153 107.859-44.152 44.272-107.858 44.272ZM183.869-219.978q0-28.246 14.272-51.591 14.272-23.344 37.272-37.344 55-32 117.793-49.359Q416-375.63 479.5-375.63t126.294 17.119q62.793 17.12 118.793 49.12 22 14 36.772 37.583 14.772 23.584 14.772 51.83v17.37q0 34.482-24.271 58.741t-58.77 24.259H266.586q-34.499 0-58.608-24.259-24.109-24.259-24.109-58.741v-17.37ZM139-814.065q-19.491 19.181-45.336 30.232-25.845 11.05-55.56 11.05-16.626 0-28.082-11.246-11.457-11.246-11.457-27.652T9.81-839.544Q21.057-851 37.463-851q13.39 0 24.814-4.977t20.4-13.4q8.866-8.951 13.627-20.439 4.761-11.488 6-24.575 0-16.117 11.393-27.494 11.393-11.376 27.532-11.376 16.14 0 27.597 11.376 11.456 11.377 11.456 27.494 0 29.354-11.05 55.15-11.051 25.796-30.232 45.176Zm105.21 106.291q-39.491 39.454-92.435 62.212-52.943 22.758-114.101 22.758-16.496 0-27.803-11.246-11.306-11.246-11.306-27.653 0-16.406 11.306-27.862 11.307-11.457 27.803-11.457 44.381 0 83.698-16.5 39.317-16.501 68.628-45.543 29-28.761 45.641-67.902 16.641-39.142 16.641-83.327 0-16.157 11.393-27.562 11.393-11.405 27.533-11.405t27.596 11.376q11.457 11.377 11.457 27.494 0 60.464-23.28 113.814-23.279 53.349-62.771 92.803Zm470.725.013q-39.56-39.526-62.378-92.719-22.818-53.194-22.339-113.733 0-16.368 11.392-27.708 11.393-11.34 27.533-11.34t27.596 11.521q11.457 11.521 11.457 27.843 0 43.982 16.641 83.026 16.642 39.045 45.402 67.806 28.761 28.761 67.359 45.402 38.598 16.641 83.035 16.88 16.467 0 27.754 11.246 11.287 11.246 11.287 27.653 0 16.406-11.274 27.862-11.274 11.457-27.722 11.457-60.889 0-113.399-22.659-52.509-22.658-92.344-62.537Zm106.304-106.304q-19.521-19.522-30.402-45.044-10.88-25.521-10.641-54.982 0-16.49 11.393-27.83t27.532-11.34q16.14 0 27.597 11.392 11.456 11.391 11.456 27.529 0 13.119 4.988 24.536 4.988 11.416 13.43 20.386 8.97 8.442 20.386 13.43Q908.395-851 921.065-851q15.696 0 27.153 11.246 11.456 11.246 11.456 27.652t-11.354 27.863q-11.353 11.456-27.919 11.456-29.596 0-54.618-10.88-25.022-10.881-44.544-30.402Z"/></svg>