<svg xmlns="http://www.w3.org/2000/svg" height="20" viewBox="0 -960 960 960" width="20"><path d="M166.674-245.283q-37.283-51.478-58.044-111.097Q87.87-416 87.87-480q0-63 20.26-122.62 20.261-59.619 57.544-111.097 83.478 16.239 134.478 82.358 51 66.12 51 151.359t-51 150.859q-51 65.619-133.478 83.858ZM480-87.869q-69 0-133.598-23.142-64.598-23.141-117.315-67.902 93.152-35.435 149.348-117.946Q434.63-379.37 434.63-480q0-99.63-55.695-182.141-55.696-82.511-148.848-118.946 52.717-44.761 116.815-67.902Q411-872.131 480-872.131q69 0 133.098 22.642 64.098 22.641 116.815 67.402-92.152 39.435-148.348 120.946Q525.37-579.63 525.37-480t55.695 181.641q55.696 82.011 148.848 119.446-52.717 44.761-116.815 67.902Q549-87.869 480-87.869Zm313.326-156.414q-81.478-20.239-132.978-85.858-51.5-65.62-51.5-149.859t51.5-149.859q51.5-65.619 132.978-84.858 37.283 51.478 58.044 111.597Q872.131-543 872.131-480q0 64-20.761 124.12-20.761 60.119-58.044 111.597Z"/></svg>