<svg xmlns="http://www.w3.org/2000/svg" height="20" viewBox="0 -960 960 960" width="20"><path d="M868.5-518.848 521.261-718.609v-152.804q138.804 14.195 236.446 112.761 97.641 98.565 110.793 239.804Zm-532.022 72.152v-400.109q25.044-9.565 50.131-15.206t51.413-8.402v364.304l-101.544 59.413ZM121.913-322.957q-17.044-37-25.544-77.021-8.5-40.022-8.5-81.544 0-94.521 43.403-179Q174.674-745 253.239-799.239v399.761l-131.326 76.521Zm112.761 147.261q-20.609-17-38.555-35.565-17.945-18.565-32.706-39.891l316.109-182.152 101.782 58.652-346.63 198.956Zm244.848 85.827q-42.565 0-83.25-9.38-40.685-9.381-78.25-27.425l346.282-200 132.044 75.522q-55.435 78-138.772 119.641-83.337 41.642-178.054 41.642Zm358.565-233.609L521.261-506.109v-117.587l346.87 199.718q-4.479 26.565-11.74 51.63-7.26 25.065-18.304 48.87Z"/></svg>