<svg xmlns="http://www.w3.org/2000/svg" height="20" viewBox="0 -960 960 960" width="20"><path d="M616.652-367.935 493.587-244.869q-8.913 8.913-20.946 8.793-12.032-.119-20.706-8.793L91.282-605.522q-8.674-8.674-8.674-21.065 0-12.391 8.674-21.065l125.305-125.544q8.913-8.913 20.206-8.913 11.294 0 20.207 8.913l359.652 358.892q9.674 9.674 9.794 23.065.119 13.391-9.794 23.304Zm79.457 256.696L559.913-246.435l58.652-58.652 136.196 136.196q12.674 12.674 12.674 28.826t-12.674 28.826q-12.674 12.674-29.326 12.674t-29.326-12.674ZM720-574.565q-63.348 0-107.739-44.392-44.392-44.391-44.392-107.739 0-63.348 44.392-107.619Q656.652-878.587 720-878.587q63.348 0 107.739 44.272 44.392 44.271 44.392 107.619t-44.392 107.739Q783.348-574.565 720-574.565Z"/></svg>