<svg xmlns="http://www.w3.org/2000/svg" height="20" viewBox="0 -960 960 960" width="20"><path d="M480.227-477.13q-16.423 0-27.76-11.11-11.337-11.11-11.337-27.533 0-16.423 11.11-27.76 11.11-11.337 27.533-11.337 16.423 0 27.76 11.11 11.337 11.11 11.337 27.533 0 16.423-11.11 27.76-11.11 11.337-27.533 11.337Zm0-156q-16.423 0-27.76-11.11-11.337-11.11-11.337-27.533 0-16.423 11.11-27.76 11.11-11.337 27.533-11.337 16.423 0 27.76 11.11 11.337 11.11 11.337 27.533 0 16.423-11.11 27.76-11.11 11.337-27.533 11.337Zm0-156q-16.423 0-27.76-11.11-11.337-11.11-11.337-27.533 0-16.423 11.11-27.76 11.11-11.337 27.533-11.337 16.423 0 27.76 11.11 11.337 11.11 11.337 27.533 0 16.423-11.11 27.76-11.11 11.337-27.533 11.337Zm108 384q-16.423 0-27.76-11.11-11.337-11.11-11.337-27.533 0-16.423 11.11-27.76 11.11-11.337 27.533-11.337 16.423 0 27.76 11.11 11.337 11.11 11.337 27.533 0 16.423-11.11 27.76-11.11 11.337-27.533 11.337Zm120-108q-16.423 0-27.76-11.11-11.337-11.11-11.337-27.533 0-16.423 11.11-27.76 11.11-11.337 27.533-11.337 16.423 0 27.76 11.11 11.337 11.11 11.337 27.533 0 16.423-11.11 27.76-11.11 11.337-27.533 11.337Zm120-108q-16.423 0-27.76-11.11-11.337-11.11-11.337-27.533 0-16.423 11.11-27.76 11.11-11.337 27.533-11.337 16.423 0 27.76 11.11 11.337 11.11 11.337 27.533 0 16.423-11.11 27.76-11.11 11.337-27.533 11.337Zm-456 216q-16.423 0-27.76-11.11-11.337-11.11-11.337-27.533 0-16.423 11.11-27.76 11.11-11.337 27.533-11.337 16.423 0 27.76 11.11 11.337 11.11 11.337 27.533 0 16.423-11.11 27.76-11.11 11.337-27.533 11.337Zm-120-108q-16.423 0-27.76-11.11-11.337-11.11-11.337-27.533 0-16.423 11.11-27.76 11.11-11.337 27.533-11.337 16.423 0 27.76 11.11 11.337 11.11 11.337 27.533 0 16.423-11.11 27.76-11.11 11.337-27.533 11.337Zm-120-108q-16.423 0-27.76-11.11-11.337-11.11-11.337-27.533 0-16.423 11.11-27.76 11.11-11.337 27.533-11.337 16.423 0 27.76 11.11 11.337 11.11 11.337 27.533 0 16.423-11.11 27.76-11.11 11.337-27.533 11.337ZM438.5-230.913H324q-17.452 0-29.476-11.963Q282.5-254.84 282.5-272.202q0-17.363 12.024-29.537T324-313.913h312q17.452 0 29.476 11.963 12.024 11.964 12.024 29.326 0 17.363-12.024 29.537T636-230.913H521.5v102.237q0 17.415-11.963 29.59-11.964 12.173-29.326 12.173-17.363 0-29.537-12.024T438.5-128.413v-102.5Z"/></svg>