<svg xmlns="http://www.w3.org/2000/svg" height="20" viewBox="0 -960 960 960" width="20"><path d="M420-384h60q15.3 0 25.65-10.376Q516-404.752 516-420.09V-504h60q15.3 0 25.65-10.298Q612-524.597 612-539.821V-624h48q15.3 0 25.65-10.289 10.35-10.29 10.35-25.5Q696-675 685.65-685.5 675.3-696 660-696h-84.237Q561-696 550.5-685.624 540-675.248 540-659.91V-576h-60q-15.3 0-25.65 10.376Q444-555.248 444-539.91V-456h-60q-15.3 0-25.65 10.299Q348-435.403 348-420.179V-336h-48q-15.3 0-25.65 10.289-10.35 10.29-10.35 25.5Q264-285 274.35-274.5 284.7-264 300-264h84.237Q399-264 409.5-274.376 420-284.752 420-300.09V-384ZM218.87-135.869q-34.483 0-58.742-24.259t-24.259-58.742v-522.26q0-34.483 24.259-58.742t58.742-24.259h522.26q34.483 0 58.742 24.259t24.259 58.742v522.26q0 34.483-24.259 58.742t-58.742 24.259H218.87Z"/></svg>