<svg xmlns="http://www.w3.org/2000/svg" height="20" viewBox="0 -960 960 960" width="20"><path d="M120-40.587q-18.435 0-31.01-12.195-12.577-12.196-12.577-27.631t12.576-27.511Q101.565-120 120-120q25.043 0 49.706-9.5 24.664-9.5 48.664-21.022Q227.326-155 240-155t21.63 4.478q24 11.522 48.664 21.022Q334.957-120 360-120q25.043 0 50.446-10 25.402-10 49.163-20.522Q468.565-155 480.5-155q11.935 0 21.13 4.478 24 11.522 48.664 20.902 24.663 9.381 49.706 9.381 25.043 0 50.326-9.381 25.283-9.38 49.044-20.902Q708.565-155 719.88-155q11.316 0 20.511 4.478Q764.152-139 789.554-129.5 814.957-120 840-120q19.435 0 31.511 11.576t12.076 28.011q0 16.435-12.076 28.13Q859.435-40.587 840-40.587q-30.761 0-60.88-6.5-30.12-6.5-59.12-19.26-29 12.76-59.12 19.26-30.119 6.5-60.88 6.5-30.761 0-60.88-6.5-30.12-6.5-59.12-19.26-29 12.76-59.12 19.26-30.119 6.5-60.88 6.5-30.761 0-60.88-6.5-30.12-6.5-59.12-19.26-29 12.76-59.12 19.26-30.119 6.5-60.88 6.5Zm366.218-516 141.369 118.848v148q18.239 13.478 35.837 26.717 17.598 13.239 34.315 26.957-21.435 20.63-46.228 32.228-24.794 11.598-51.511 11.598-35.761 0-66.761-20.402-31-20.402-53.239-49.685-22.239 29.283-53.239 49.685-31 20.402-66.761 20.402-7.239 0-13.598-.5-6.359-.5-13.837-2.739-81.956-56.479-137.054-114.435-55.098-57.957-55.098-100.913 0-19.152 15.196-35.87 15.195-16.717 59.391-16.717 24.283 0 53.587 6.022 29.304 6.021 62.869 16.065l-22.282-123.109q-4.239-21.435 4.38-42.869 8.62-21.435 28.533-34.631l74.348-49.978q-3.522-1-11.587-2.141-8.066-1.142-16.272-2.903-8.206-1.76-15.272-2.902Q366.239-701 362.717-702l-79.804 54.043q-13.196 8.957-29.13 6.098-15.935-2.858-24.653-16.054-8.956-13.196-6.717-29.511 2.239-16.315 16.435-25.272l92.761-63.522q6.956-4.478 14.532-6.717t15.533-.239l186.804 31.761q13.718 2.239 25.935 8.478 12.217 6.239 20.696 17.196l66 101q17.282 22.565 42.065 38.848 24.783 16.282 55.065 22.76 15.435 3.479 26.391 15.555 10.957 12.076 10.957 27.75 0 16.435-11.337 27.511t-26.772 8.837q-48.478-7.479-89.337-31.381-40.858-23.902-69.337-59.945-4-5-14-18.5t-15-19.5l-83.586 56.217Zm-78.196 40.609 15.326 111.521q30.761 13.761 68.032 32.087 37.272 18.326 57.033 32.087v-59.63L408.022-515.978ZM665.5-725.739q-36.435 0-62.011-25.576t-25.576-62.011q0-36.435 25.576-62.011t62.011-25.576q36.435 0 62.011 25.576t25.576 62.011q0 36.435-25.576 62.011T665.5-725.739Z"/></svg>