<svg xmlns="http://www.w3.org/2000/svg" height="20" viewBox="0 -960 960 960" width="20"><path d="M372-582v113.855q0 15.362 10.289 25.753Q392.579-432 407.789-432 423-432 433.5-442.392q10.5-10.391 10.5-25.753V-582l24 24q11 11 25.667 11 14.666 0 25.333-11 11-11 11-25.5T519-609l-81.174-81.174q-12.261-12.674-29.119-12.674-16.859 0-29.533 12.674L297-609q-11 11-10.5 25.5T298-558q11 11 25.5 11t25.5-11l23-24Zm144 204-23-23q-11-11-25.667-11-14.666 0-25.333 11-11 11-11 25.5t11 25.5l81.174 81.174q12.261 12.674 29.119 12.674 16.859 0 29.533-12.674L663-350q11-11 11-25.5T663-401q-11-11-25.5-11T612-401l-24 23v-113.855q0-15.362-10.289-25.753Q567.421-528 552.211-528 537-528 526.5-517.608 516-507.217 516-491.855V-378ZM480.276-87.87q-81.189 0-152.621-30.617-71.432-30.618-124.991-84.177-53.559-53.559-84.177-124.949-30.618-71.391-30.618-152.845 0-81.455 30.618-152.387t84.177-124.491q53.559-53.559 124.949-84.177 71.391-30.618 152.845-30.618 81.455 0 152.387 30.618t124.491 84.177q53.559 53.559 84.177 124.716 30.618 71.156 30.618 152.344 0 81.189-30.618 152.621-30.618 71.432-84.177 124.991-53.559 53.559-124.716 84.177-71.156 30.618-152.344 30.618Z"/></svg>