<svg xmlns="http://www.w3.org/2000/svg" height="20" viewBox="0 -960 960 960" width="20"><path d="M480.227-285.13q-16.423 0-27.76-11.11-11.337-11.11-11.337-27.533 0-16.423 11.11-27.76 11.11-11.337 27.533-11.337 16.423 0 27.76 11.11 11.337 11.11 11.337 27.533 0 16.423-11.11 27.76-11.11 11.337-27.533 11.337Zm-.016-144.957q-16.024 0-27.074-10.9T442.087-468v-169.674q0-16.113 10.839-27.013 10.84-10.9 26.863-10.9 16.024 0 27.074 10.9t11.05 27.013V-468q0 16.113-10.839 27.013-10.84 10.9-26.863 10.9Zm-262.776-49.912q0 46.803 18.782 85.771 18.783 38.967 49.631 67.25v-19.348q0-16.011 10.839-26.843Q307.527-384 323.55-384q15.922 0 26.904 10.831 10.981 10.832 10.981 26.843v117.609q0 17.452-12.024 29.476-12.024 12.024-29.476 12.024h-117.37q-16.011 0-26.842-10.84-10.832-10.839-10.832-26.863 0-15.922 10.9-26.903 10.9-10.981 27.013-10.981h28.435q-44.522-40.957-70.663-96.555-26.141-55.598-26.141-120.163 0-87.699 45.913-158.197 45.913-70.499 121.226-105.977 14.469-7.478 28.546.576 14.076 8.055 19.554 24.4 5.239 15.868-1.009 30.968-6.249 15.1-20.861 23.056-49.428 26.873-79.899 75.808-30.47 48.934-30.47 108.889Zm524.652 20.715q0-46.803-18.783-85.77-18.782-38.968-49.63-67.25v20.347q0 15.587-10.772 26.131-10.772 10.543-26.696 10.543-15.923 0-27.021-10.831t-11.098-26.843v-117.608q0-17.452 12.024-29.476 12.024-12.024 29.476-12.024h117.37q16.011 0 26.842 10.839 10.831 10.84 10.831 26.863 0 15.922-10.831 26.903-10.831 10.982-26.842 10.982h-28.674q44.522 40.956 70.663 96.554t26.141 120.163q0 87.87-45.913 158.163-45.913 70.294-121.226 105.772-14.47 7.478-28.546-.456-14.076-7.935-19.554-24.281-5.239-15.868.978-30.968 6.217-15.099 20.891-23.056 49.429-26.873 79.899-75.807 30.471-48.934 30.471-108.89Z"/></svg>