<svg xmlns="http://www.w3.org/2000/svg" height="20" viewBox="0 -960 960 960" width="20"><path d="m744.478-570.065-55.391-119.783L569.304-744l119.783-55.152 55.391-119.783 54.152 119.783L918.413-744 798.63-689.848l-54.152 119.783Zm0 528-54.391-120.783L569.304-217l120.783-54.152 54.391-120.783 54.152 120.783L919.413-217 798.63-162.848 744.478-42.065ZM361.435-160.152l-99.87-220.978L40.587-481l220.978-99.87 99.87-220.978 99.869 220.978L682.283-481l-220.979 99.87-99.869 220.978Zm0-182.848 43-95 95-43-95-43-43-95-43 95-95 43 95 43 43 95Zm-6-137Z"/></svg>