<svg xmlns="http://www.w3.org/2000/svg" height="20" viewBox="0 -960 960 960" width="20"><path d="M332.23-183.869q-21.618 0-36.75-14.957-15.132-14.956-15.132-36.63v-437.022H139.696q-21.595 0-36.711-15.133-15.116-15.132-15.116-36.75 0-21.617 15.116-36.694 15.116-15.076 36.711-15.076h384.956q21.594 0 36.71 15.133 15.116 15.132 15.116 36.75 0 21.618-15.116 36.694-15.116 15.076-36.71 15.076H383.761v436.782q0 21.595-14.957 36.711-14.956 15.116-36.574 15.116Zm368.131 0q-21.618 0-36.75-14.957-15.133-14.956-15.133-36.63v-237.37h-68.413q-21.594 0-36.71-15.132-15.116-15.133-15.116-36.75 0-21.618 14.957-36.575 14.956-14.956 36.63-14.956h240.718q21.674 0 36.63 14.956 14.957 14.957 14.957 36.575 0 21.617-14.957 36.75-14.956 15.132-36.63 15.132h-68.653v237.13q0 21.595-14.956 36.711-14.957 15.116-36.574 15.116Z"/></svg>