<svg xmlns="http://www.w3.org/2000/svg" height="20" viewBox="0 -960 960 960" width="20"><path d="M79.413-376.348q-33.048 0-56.23-23.063Q0-422.474 0-455.522v-250.347q0-16.031 5.93-31.077 5.93-15.045 18.418-27.576l142.241-142.24q8.376-8.303 18.352-12.303t19.952-4q23.58 0 40.768 17.739 17.187 17.739 14.187 43.978l-11.717 94.783h158.673q31.435 0 53.631 22.031 22.195 22.031 22.195 53.556v17.826q0 7.229-1.119 14.055-1.12 6.826-3.598 12.771l-71.935 214.761q-10.152 26.304-31.043 40.761-20.892 14.456-48.913 14.456H79.413Zm250.674-79.174 73.848-218.826v-12.804H159.783l19.282-119.565-99.652 100.13v251.065h250.674Zm223.109 262.087q-30.435 0-52.131-22.031-21.695-22.031-23.695-53.556v-17.826q0-7.229 1.119-14.055 1.12-6.827 3.598-12.771l71.935-214.761q10.152-26.304 31.293-40.761 21.142-14.456 48.663-14.456h246.609q33.048 0 56.23 23.063Q960-537.526 960-504.478v250.347q0 15.913-6.076 31.185-6.076 15.272-18.272 27.468L792.411-52.238q-8.376 8.303-18.352 12.303t-19.952 4q-23.58 0-41.268-17.239-17.687-17.239-13.687-44.478l12.717-95.783H553.196Zm76.717-311.043-73.848 218.826v12.804h244.152l-19.282 119.565 99.652-100.13v-251.065H629.913Zm-550.5 48.956v-251.065 43.435-1.196 208.826Zm801.174-48.956v251.065-43.435 1.196-208.826Z"/></svg>