<svg xmlns="http://www.w3.org/2000/svg" height="20" viewBox="0 -960 960 960" width="20"><path d="M380.413-331.5q-101.87 0-174.641-72.272Q133-476.043 133-577.913q0-23 3.739-44.5T150-665.391q4.239-8.718 11.956-14.935 7.718-6.218 16.674-8.218 8.957-2 18.174.74 9.218 2.739 16.696 10.217L318.587-572.5l70-70L284.5-746.587q-7.478-7.478-10.218-16.815-2.739-9.337-.739-18.055 2-8.717 8.098-16.934 6.098-8.218 15.815-12.457 20.479-7.761 41.337-11 20.859-3.239 41.62-3.239 102.87 0 175.022 73.152 72.152 73.152 72.152 175.022 0 22.283-4.141 41.304-4.142 19.022-11.663 39.022l165.065 164.065Q808-301.37 808-258.5q0 42.87-31.152 73.022-31.152 30.152-73.641 29.652-42.49-.5-72.642-30.413L469.5-347.304q-19.283 7.282-41.946 11.543-22.663 4.261-47.141 4.261Z"/></svg>