<svg xmlns="http://www.w3.org/2000/svg" height="20" viewBox="0 -960 960 960" width="20"><path d="M336-185.782q-122.391 0-208.304-85.914Q41.783-357.609 41.783-480t85.913-208.304Q213.609-774.218 336-774.218h288q122.391 0 208.304 85.914Q918.218-602.391 918.218-480t-85.914 208.304Q746.391-185.782 624-185.782H336Zm0-83.001h288q87.848 0 149.533-61.684Q835.217-392.152 835.217-480q0-87.848-61.684-149.533Q711.848-691.217 624-691.217H336q-87.848 0-149.533 61.684Q124.783-567.848 124.783-480q0 87.848 61.684 149.533Q248.152-268.783 336-268.783ZM480.212-408Q510-408 531-429.212q21-21.213 21-51Q552-510 530.788-531q-21.213-21-51-21Q450-552 429-530.788q-21 21.213-21 51Q408-450 429.212-429q21.213 21 51 21Zm-33.908-187.217h67.042q16.219 0 27.437-11.127Q552-617.47 552-633.398q0-16.167-11.042-27.385Q529.916-672 513.696-672h-67.042q-15.98 0-27.317 11.007T408-633.819q0 15.928 11.162 27.265t27.142 11.337Zm0 307.217h67.042q16.219 0 27.437-11.126Q552-310.253 552-326.181q0-16.167-11.042-27.384-11.042-11.218-27.262-11.218h-67.042q-15.98 0-27.317 11.007T408-326.602q0 15.928 11.162 27.265T446.304-288Zm189.485-120q16.168 0 27.385-11.162 11.217-11.162 11.217-27.142v-67.042q0-16.219-11.006-27.437Q652.378-552 636.211-552q-15.928 0-27.265 11.042t-11.337 27.262v67.042q0 15.98 11.126 27.317Q619.862-408 635.789-408Zm-312 0q16.168 0 27.385-11.162 11.217-11.162 11.217-27.142v-67.042q0-16.219-11.007-27.437Q340.378-552 324.211-552q-15.928 0-27.265 11.042t-11.337 27.262v67.042q0 15.98 11.126 27.317Q307.862-408 323.789-408ZM480-480Z"/></svg>