<svg xmlns="http://www.w3.org/2000/svg" height="20" viewBox="0 -960 960 960" width="20"><path d="M372.283-131.326q-17.435 0-29.609-11.963-12.174-11.964-12.174-29.326 0-17.363 12.012-29.537 12.013-12.174 29.448-12.174h215.757q17.435 0 29.609 11.963 12.174 11.964 12.174 29.327 0 17.362-12.012 29.536-12.013 12.174-29.448 12.174H372.283Zm-6.761-130.761q-15.277 0-26.775-9.937-11.497-9.936-13.486-25.085l-40-218.391q-2.239-9.957-1.12-20.033 1.12-10.076 4.359-18.793l81.761-245.522q4.478-12.674 15.413-20.989 10.935-8.315 23.857-8.315h140.698q12.923 0 23.858 8.315t15.413 20.989l82 245.522q3.239 8.717 4.359 18.793 1.119 10.076-1.12 20.033l-40 218.391q-1.989 15.149-13.486 25.085-11.498 9.937-26.775 9.937H365.522ZM375.587-557.5h208.826L521.13-747.348h-82.021L375.587-557.5Z"/></svg>