<svg xmlns="http://www.w3.org/2000/svg" height="20" viewBox="0 -960 960 960" width="20"><path d="M449.935-448.652 349.13-339.848q-9.195 10.019-3.858 22.401t19.011 12.382h231.434q13.924 0 19.136-12.294 5.212-12.293-3.983-22.489L510.065-448.652q-12.855-12.674-30.156-12.674-17.3 0-29.974 12.674ZM213.87-135.869q-32.421 0-55.211-22.79t-22.79-55.211v-532.26q0-32.421 22.79-55.211t55.211-22.79h532.26q32.421 0 55.211 22.79t22.79 55.211v532.26q0 32.421-22.79 55.211t-55.211 22.79H213.87Zm5-407.044v324.043h522.26v-324.043H218.87Z"/></svg>