<svg xmlns="http://www.w3.org/2000/svg" height="20" viewBox="0 -960 960 960" width="20"><path d="m607.043-194.826-28.083 79.299q-4.373 12.505-15.302 20.082-10.93 7.576-24.093 7.576-22.869 0-34.924-18.272-12.054-18.272-4.337-38.902L639.956-524.37q5.525-13.63 17.173-22.065 11.648-8.435 25.817-8.435h33.868q14.169 0 25.817 8.435t17.174 22.065l140.652 379.848q7.717 20.87-5.325 38.761-13.043 17.892-35.099 17.892-13.99 0-25.283-8.076-11.294-8.077-15.772-20.99l-26.949-77.891H607.043ZM354.261-393.043 194-234.543q-12.913 12.913-28.946 12.174-16.032-.74-28.706-13.413-12.913-12.914-12.913-28.946 0-16.033 12.913-28.946l161.5-159.5q-38.392-40.869-69.99-81.989-31.598-41.12-53.641-86.967h95.87q16.087 28.173 33.848 49.478 17.761 21.304 50.804 58.587 37.522-42.479 68.446-85.946t50.206-93.119H79.935q-17.453 0-29.477-11.964-12.023-11.963-12.023-29.326t12.023-29.537q12.025-12.174 29.477-12.174h234.5v-54.499q0-17.453 11.963-29.477 11.963-12.024 29.326-12.024t29.537 12.024q12.174 12.024 12.174 29.477v54.499h234.5q17.452 0 29.476 11.964 12.024 11.963 12.024 29.326t-12.024 29.537q-12.024 12.174-29.476 12.174h-68.719q-21.912 67.804-62.27 126.065-40.359 58.261-89.794 113.652l79.522 78.282-32.066 86.196-104.347-104.108Zm280.13 121.217h130.261l-63.13-182.782-67.131 182.782Z"/></svg>