<svg xmlns="http://www.w3.org/2000/svg" height="20" viewBox="0 -960 960 960" width="20"><path d="M92.652-431.978 135-500l305 286q10.761 11 25.261 16T497-193q11 0 22.5-2.5T543-206l321-202v91.652L581.109-138.261q-17 11-40.435 17.739-23.435 6.74-46.435 6.74-29 0-57.174-10.74-28.174-10.739-50.13-31.934L92.652-431.978Zm451.174 171.565q16.196 0 27.652-11.457 11.457-11.456 11.457-27.652 0-6.717-7.478-22.674l128.739-82.891q5.717 7.478 13.815 11.957 8.098 4.478 17.815 4.478 16.196 0 27.652-11.457 11.457-11.456 11.457-27.652 0-12.956-6.859-22.674-6.858-9.717-18.576-14.195 0-2.24-.119-3.24-.12-1-.12-3 0-16.195-11.457-27.652-11.456-11.456-27.652-11.456-16.195 0-27.652 11.456-11.457 11.457-11.457 27.652 0 4.761 5.761 20.718l-128.695 83.369q-5.718-7.478-13.457-11.598-7.739-4.119-17.456-4.119-16.196 0-27.653 11.456-11.456 11.457-11.456 27.653 0 13.195 7.717 23.032 7.718 9.837 19.674 14.076 0 2-.38 3.5-.381 1.5-.381 3.261 0 16.196 11.457 27.652 11.456 11.457 27.652 11.457ZM262.239-707l41.348-66.261q72.283 31.522 132.565 91.685 60.283 60.163 94.761 134.206 35.761-39.282 79.022-62.304Q653.196-632.696 736-655.457q40-11 71-22t57-25V-617q-23 10-49.5 19T747-577q-83 23-123 49.5T549-446q-5 8-13 12t-17 4q-11 0-20.5-7.5T485-456q-26-83-87-152.5T262.239-707ZM135-500q69 65 152.5 143T440-214q10.761 11 25.261 16T497-193q11 0 22.5-2.5T543-206q74.87-46.913 162.696-101.837Q793.522-362.761 864-408L543-206q-12 8-23.5 10.5T497-193q-17.239 0-31.739-5T440-214L135-500Z"/></svg>