<svg xmlns="http://www.w3.org/2000/svg" height="20" viewBox="0 -960 960 960" width="20"><path d="m480-108.696 84.326-84.326q11.717-11.717 27.174-11.717 15.457 0 27.652 11.717 11.478 11.718 11.359 27.294-.12 15.576-11.837 27.293l-109.33 109.33q-5.996 5.996-13.492 9.094-7.495 3.098-15.652 3.098t-15.652-3.098q-7.496-3.098-13.613-8.815L341.326-138.435q-11.717-11.717-11.098-27.174.62-15.456 12.098-27.174 11.717-11.956 27.174-11.956 15.457 0 27.413 11.717L480-108.696Zm0-191.761 84.326-84.326Q576.043-396.5 591.5-396.5q15.457 0 27.652 11.717 11.478 11.718 11.359 27.294-.12 15.576-11.837 27.293l-109.33 109.331q-5.996 5.995-13.492 9.093-7.495 3.098-15.652 3.098t-15.652-3.098q-7.496-3.098-13.613-8.815L341.326-330.196q-11.717-11.717-11.098-27.174.62-15.456 12.098-27.174Q354.043-396.5 369.5-396.5q15.457 0 27.413 11.717L480-300.457Zm0-359.086-84.326 84.087q-11.717 11.478-27.054 11.717-15.337.239-27.055-11.478-11.717-11.718-11.717-27.341 0-15.623 11.717-27.007l108.892-109.331q5.956-5.995 13.452-9.093 7.495-3.098 15.652-3.098 8.156 0 15.652 3.098 7.496 3.098 13.613 8.815l109.848 109.609q11.717 11.354 11.598 26.612-.12 15.257-11.837 26.736-11.718 11.478-27.341 11.478-15.623 0-26.768-11.478L480-659.543Zm0-191.522-84.326 84.087q-11.717 11.478-27.054 11.717-15.337.239-27.055-11.478-11.717-11.717-11.717-27.341 0-15.623 11.717-27.007l108.892-109.33q5.956-5.996 13.452-9.094 7.495-3.098 15.652-3.098 8.156 0 15.652 3.098 7.496 3.098 13.613 8.815l109.848 109.609q11.717 11.354 11.598 26.612-.12 15.258-11.837 26.736-11.718 11.478-27.341 11.478-15.623 0-26.768-11.478L480-851.065Z"/></svg>