<svg xmlns="http://www.w3.org/2000/svg" height="20" viewBox="0 -960 960 960" width="20"><path d="M312-384h240q20.4 0 34.2-13.8Q600-411.6 600-432v-86l78.609 70.609q5.717 4.717 11.554 2.067Q696-447.975 696-455.348v-193.304q0-7.373-5.837-10.024-5.837-2.65-11.554 2.067L600-586v-86q0-20.4-13.8-34.2Q572.4-720 552-720H312q-20.4 0-34.2 13.8Q264-692.4 264-672v240q0 20.4 13.8 34.2Q291.6-384 312-384Zm-80.131 152.131-73.317 73.317q-19.748 19.748-45.215 9.026-25.468-10.721-25.468-38.496V-789.13q0-34.483 24.259-58.742t58.742-24.259h618.26q34.483 0 58.742 24.259t24.259 58.742v474.26q0 34.483-24.259 58.742t-58.742 24.259H231.869Z"/></svg>