<svg xmlns="http://www.w3.org/2000/svg" height="20" viewBox="0 -960 960 960" width="20"><path d="M876.913-312q0 24.199-11.761 43.273-11.76 19.075-34.282 28.988L758.37-312h35.543v-336H422.37l-83-83h454.543q33.783 0 58.392 24.609 24.608 24.608 24.608 58.391v336Zm-179-156q-25 0-42.5-17.5t-17.5-42.5q0-25 17.5-42.5t42.5-17.5q25 0 42.5 17.5t17.5 42.5q0 25-17.5 42.5t-42.5 17.5Zm-322.109-8Zm214.566 0Zm-304.283 32h-48q-15.3 0-25.65-10.289-10.35-10.29-10.35-25.5 0-15.211 10.35-25.711 10.35-10.5 25.65-10.5h48v-48q0-15.3 10.289-25.65 10.29-10.35 25.5-10.35 15.211 0 25.711 10.35 10.5 10.35 10.5 25.65v48h48q15.3 0 25.65 10.289 10.35 10.29 10.35 25.5 0 15.211-10.35 25.711-10.35 10.5-25.65 10.5h-48v48q0 15.3-10.29 25.65-10.289 10.35-25.5 10.35-15.21 0-25.71-10.35t-10.5-25.65v-48Zm-120 215q-33.783 0-58.392-24.609Q83.087-278.217 83.087-312v-336q0-33.517 23.304-58.139 23.303-24.622 55.979-24.622h70.695L315.826-648H166.087v336h378.717L106.152-750.891q-11.478-11.114-11.478-26.394 0-15.28 11.503-26.759 11.504-11.478 26.862-11.478 15.359 0 26.504 11.478l644.659 644.42q11.559 11.559 11.44 26.578-.12 15.019-11.573 26.133-11.12 11.478-26.41 11.478-15.289 0-26.768-11.478L627.805-229H166.087Z"/></svg>