<svg xmlns="http://www.w3.org/2000/svg" height="20" viewBox="0 -960 960 960" width="20"><path d="M218.606-135.869q-34.519 0-58.628-24.235t-24.109-58.685V-386.63q0-17.435 11.964-29.609 11.963-12.174 29.326-12.174t29.402 12.024q12.04 12.024 12.04 29.476v168.043h168.312q17.452 0 29.476 11.964 12.024 11.963 12.024 29.326t-12.037 29.537q-12.036 12.174-29.507 12.174H218.606Zm522.605 0H573.37q-17.435 0-29.609-11.964-12.174-11.963-12.174-29.326t12.024-29.402q12.024-12.04 29.476-12.04H741.13v-168.312q0-17.452 11.964-29.476 11.963-12.024 29.326-12.024t29.537 12.037q12.174 12.036 12.174 29.507v168.263q0 34.519-24.235 58.628t-58.685 24.109ZM444-343.652l91.609-121.892q6.206-9.195 16.391-9.076 10.185.12 16.152 9.316l107.044 144q7.717 10.434 1.989 21.869T659.043-288H300.762q-12.719 0-18.197-11.435t2.421-21.844l70.862-96.025q5.967-9.196 16.152-9.316 10.185-.119 16.391 9.076L444-343.652ZM135.869-741.394q0-34.519 24.235-58.628t58.685-24.109H386.63q17.435 0 29.609 11.964 12.174 11.963 12.174 29.326t-12.024 29.402q-12.024 12.04-29.476 12.04H218.87v168.312q0 17.452-11.964 29.476-11.963 12.024-29.326 12.024t-29.537-12.037q-12.174-12.036-12.174-29.507v-168.263Zm688.262.183v167.841q0 17.435-11.964 29.609-11.963 12.174-29.326 12.174t-29.402-12.024q-12.04-12.024-12.04-29.476V-741.13H573.087q-17.452 0-29.476-11.964-12.024-11.963-12.024-29.326t12.037-29.537q12.036-12.174 29.507-12.174h168.263q34.519 0 58.628 24.235t24.109 58.685ZM624-576q-20 0-34-14t-14-34q0-20 14-34t34-14q20 0 34 14t14 34q0 20-14 34t-34 14Z"/></svg>