<svg xmlns="http://www.w3.org/2000/svg" height="20" viewBox="0 -960 960 960" width="20"><path d="M445.261-81.413q-28.826 0-51.196-17.772-22.369-17.771-29.326-45.119L330.5-281.782q-44.718-33.957-71.674-85.011Q231.869-417.848 231.869-480q0-62.152 27.457-113.207 27.456-51.054 73.174-85.011l33.239-137.478q6.957-27.348 29.326-45.119 22.37-17.772 51.196-17.772h81.63q22.631 0 39.783 13.674t22.87 35.065l36.956 151.63q45.718 33.957 73.174 85.011Q728.131-542.152 728.131-480q0 62.152-26.957 113.207-26.956 51.054-71.674 85.011l-34.239 137.478q-6.957 27.348-29.326 45.12-22.37 17.771-51.196 17.771h-69.478ZM480-314.87q68.804 0 116.967-48.163T645.13-480q0-68.804-48.163-116.967T480-645.13q-68.804 0-116.967 48.163T314.87-480q0 68.804 48.163 116.967T480-314.87Z"/></svg>