<svg xmlns="http://www.w3.org/2000/svg" height="20" viewBox="0 -960 960 960" width="20"><path d="M159.869-408q0-63.348 29.598-125.489 29.598-62.141 73.315-119.837 43.718-57.696 94.935-107.533 51.218-49.837 93.696-88.315 5.797-5.717 13.244-8.076 7.448-2.359 14.895-2.359 8.165 0 15.314 2.796 7.149 2.795 12.648 8.386 73.03 67.97 155.486 156.905 82.457 88.935 118.413 184.413h-90.674q-24-49.087-74.685-110.793Q565.37-679.609 480-764.696q-131.043 131-184.087 210.685-53.043 79.685-53.043 146.17 0 97.45 67.728 166.134 67.728 68.685 164.619 70.598h11.5q5.5 0 11.5-1v83q-6 1-11.5 1h-11.5q-131.674-1.913-223.511-94.826Q159.869-275.848 159.869-408Zm303.348-57.174Zm160.574 357.356q-10.182 4.448-20.102.247-9.92-4.202-14.233-14.472l-7-14.761q-6-14.239-9.119-28.455-3.12-14.215-3.12-28.815 0-20.404 5.739-39.263 5.74-18.859 12.979-37.337 7.2-16.849 12.241-34.321 5.041-17.473 5.041-35.078 0-8.688-1.935-17.949-1.936-9.261-5.826-17.021l-6-15q-4.478-9.957-.472-20.024t13.797-14.262q9.828-4.301 20.158-.325 10.33 3.977 14.822 13.697l7 15.249q5.867 13.451 8.553 28.073Q659-353.012 659-338.892q0 19.725-5.62 38.787-5.619 19.062-12.619 37.301-6.704 16.48-11.733 33.93Q624-211.425 624-193.006q0 9.328 1.5 18.308 1.5 8.981 5.261 16.741l7.239 15q4.478 9.957.226 20.323-4.253 10.367-14.435 14.816Zm110.391 0q-10.182 4.448-20.102.247-9.919-4.202-14.232-14.472l-7-14.761q-6-14.239-9.12-28.455-3.119-14.215-3.119-28.815 0-20.404 5.739-39.263 5.739-18.859 12.978-37.337 7.2-16.849 12.241-34.321 5.042-17.473 5.042-35.078 0-8.688-1.936-17.949-1.936-9.261-5.825-17.021l-6-15q-4.478-9.957-.473-20.024 4.006-10.067 13.797-14.262 9.828-4.301 20.158-.325 10.331 3.977 14.822 13.697l7 15.16q6 13.319 8.62 28.058 2.619 14.739 2.619 28.853 0 19.719-5.619 38.781-5.62 19.062-12.62 37.301-6.704 16.48-11.732 33.93-5.029 17.449-5.029 35.868 0 9.328 1.5 18.308 1.5 8.981 5.261 16.741l7.239 15q4.479 9.957.226 20.323-4.252 10.367-14.435 14.816Zm92.382-316.511q9.827-4.301 20.158-.325 10.33 3.977 14.822 13.697l7 15.249q5.866 13.142 8.552 27.419 2.687 14.277 2.687 28.397 0 20.131-5.62 38.87-5.619 18.739-12.619 36.979-6.705 17-11.733 34.5-5.028 17.5-5.028 36.501 0 9.364 1.5 18.344 1.5 8.981 5.261 16.741l7.239 15q2 4.24 2 9.9t-2.239 10.576q-2.24 4.916-5.679 8.716-3.439 3.8-8.717 6.094-9.757 4.301-19.676.1-9.92-4.202-14.233-14.472l-7-14.761q-6-14.239-9.119-28.455-3.12-14.215-3.12-28.815 0-20.404 5.739-39.263 5.739-18.859 12.978-37.337 7.2-16.849 12.242-34.321Q827-322.468 827-340.073q0-8.688-1.936-17.949-1.935-9.261-5.825-17.021l-6-15q-4.478-9.957-.472-20.024 4.005-10.067 13.797-14.262Z"/></svg>