<svg xmlns="http://www.w3.org/2000/svg" height="20" viewBox="0 -960 960 960" width="20"><path d="M249.87-632.848q47-28.043 98.994-42.826 51.995-14.783 105.815-14.783 29.56 0 58.158 4.62 28.598 4.619 56.076 12.619 31.239 9 58.5 14t50.022 5h35.695l16.805-134.912h-499.87l19.805 156.282Zm57.241 544.979q-31.35 0-54.578-20.87-23.229-20.87-27.707-51.935L148.304-766.5q-5.478-42.672 22.609-74.151 28.087-31.48 71.054-31.48h476.066q42.967 0 71.054 31.48 28.087 31.479 22.609 74.151l-76.283 605.826q-4.478 31.065-27.51 51.935-23.032 20.87-54.382 20.87h-346.41Z"/></svg>