<svg xmlns="http://www.w3.org/2000/svg" height="20" viewBox="0 -960 960 960" width="20"><path d="M276.527-721.913q-30.962 0-53.538-22.544-22.576-22.545-22.576-53.507 0-30.962 22.544-53.043 22.545-22.08 53.507-22.08 30.962 0 53.043 22.049 22.08 22.048 22.08 53.011 0 30.962-22.049 53.538-22.049 22.576-53.011 22.576ZM205-134.87v-221.543h-30.29q-17.362 0-29.536-12.024Q133-380.461 133-397.913v-193q0-34.237 24.731-58.619 24.731-24.381 58.269-24.381h119.761q34.961 0 58.98 23.063 24.02 23.063 24.02 56.589v75.652q-64.891 36.044-100.12 98.272Q283.413-358.109 283.413-288q0 52.435 19.439 99.63 19.44 47.195 55.235 85.718v9.282H246.5q-17.452 0-29.476-12.023Q205-117.417 205-134.87Zm346.774 42.457q-81.263 0-138.312-57.209Q356.413-206.831 356.413-288q0-62.391 35.989-113.522 35.989-51.13 95.011-69.5v88.218q-23.435 15.087-37.63 40.945Q435.587-316 435.587-288q0 48.505 33.954 82.459T552-171.587q48.13 0 81.315-32.848 33.185-32.848 34.381-79.978h79.652q-.957 80-58.139 136-57.183 56-137.435 56Zm276.117-126.674-74.804-113.326H618.413q-34.482 0-58.741-24.235t-24.259-58.684v-172.385q0-16.807 11.321-28.339 11.321-11.531 28.056-11.531t28.266 11.381q11.531 11.382 11.531 28.206v176.413h135.348q20.78 0 39.281 9.707 18.5 9.706 29.806 27.076l74.848 111.652q8.956 14.435 6.217 30.369-2.739 15.935-16.674 24.892-13.695 8.717-30.13 5.358-16.435-3.358-25.392-16.554Z"/></svg>