<svg xmlns="http://www.w3.org/2000/svg" viewBox="0 -960 960 960" width="32" height="32"><path d="M344.26-695.9v163.34q0 9.3 6.1 15.42 6.1 6.11 15.38 6.11 9.29 0 15.31-6.11 6.03-6.12 6.03-15.42v-184.88q0-9.19-6.12-15.23-6.11-6.05-15.42-6.05h-61.49q-9.2 0-15.24 6.1-6.04 6.1-6.04 15.39 0 9.28 6.04 15.31 6.04 6.02 15.24 6.02h40.21Zm180.25 184.87h92.05q13.59 0 24.49-10.89 10.9-10.9 10.9-24.49v-156.92q0-13.59-10.9-24.49-10.9-10.9-24.49-10.9h-92.05q-13.84 0-24.61 10.9t-10.77 24.49v156.92q0 13.59 10.77 24.49 10.77 10.89 24.61 10.89Zm7.44-130.46v-62.92h77.18v62.92h-77.18Zm0 96.16v-62.93h77.18v62.93h-77.18ZM202.57-140q-25.79 0-44.18-18.39T140-202.57v-554.86q0-25.79 18.39-44.18T202.57-820h554.86q25.79 0 44.18 18.39T820-757.43v554.86q0 25.79-18.39 44.18T757.43-140H202.57Zm0-50.26h554.86q4.62 0 8.47-3.84 3.84-3.85 3.84-8.47v-554.86q0-4.62-3.84-8.47-3.85-3.84-8.47-3.84H202.57q-4.62 0-8.47 3.84-3.84 3.85-3.84 8.47v554.86q0 4.62 3.84 8.47 3.85 3.84 8.47 3.84Zm-12.31-579.48v579.48-579.48Zm95.33 363.59h58.67v102.1q0 9.2 6.1 15.24 6.1 6.04 15.38 6.04 9.29 0 15.31-6.04 6.03-6.04 6.03-15.24v-102.1h62.05v163.33q0 9.31 6.1 15.42 6.1 6.12 15.38 6.12 9.29 0 15.31-6.12 6.03-6.11 6.03-15.42v-172.31q0-13.2-10.32-23.52t-23.53-10.32H276.62q-13.21 0-23.53 10.32t-10.32 23.52v172.31q0 9.31 6.1 15.42 6.1 6.12 15.38 6.12 9.29 0 15.31-6.12 6.03-6.11 6.03-15.42v-163.33Zm311.23 123.38h86.15q13.21 0 23.53-10.32t10.32-23.53v-98.51q0-13.2-10.32-23.52t-23.53-10.32H575.16q-9 0-15.08 6.04T554-427.69v184.87q0 9.31 6.1 15.42 6.1 6.12 15.38 6.12 9.29 0 15.31-6.12 6.03-6.11 6.03-15.42v-39.95Zm0-42.82v-80.56H674v80.56h-77.18Z"/></svg>