<svg xmlns="http://www.w3.org/2000/svg" height="40" viewBox="0 -960 960 960" width="40"><path d="M672.462-463.795v43.547q0 7.479 5.231 12.709 5.23 5.231 12.461 5.231t12.461-5.231q5.231-5.23 5.231-12.709v-43.547h46.103q6.872 0 11.333-4.824 4.462-4.824 4.462-11.513 0-6.688-4.462-11.176-4.461-4.487-11.333-4.487h-46.103v-44.333q0-7.103-5.231-12.333-5.23-5.231-12.461-5.231t-12.461 5.231q-5.231 5.23-5.231 12.333v44.333h-45.693q-6.871 0-11.333 4.451-4.461 4.45-4.461 11.212t4.784 11.549q4.785 4.788 11.421 4.788h45.282Zm-191.026 5.333 81.539 85.487q2 2.205 15.025 6.821 13.846 0 19.372-12.872 5.525-12.871-3.936-22.692l-75.642-79.051 76.027-78.898q9.461-9.436 3.743-21.807-5.718-12.372-19.179-12.372-4.116 0-7.763 1.821-3.647 1.82-6.877 5l-82.309 84.718v-70.257q0-9.196-6.137-15.239-6.138-6.043-15.479-6.043-9.23 0-15.217 6.043t-5.987 15.239v184.872q0 9.307 6.1 15.422 6.1 6.116 15.385 6.116 9.284 0 15.309-6.116 6.026-6.115 6.026-15.422v-70.77Zm-174.102-92.564v163.334q0 9.307 6.1 15.422 6.1 6.116 15.384 6.116 9.285 0 15.31-6.116 6.026-6.115 6.026-15.422v-184.872q0-9.196-6.116-15.239-6.115-6.043-15.422-6.043h-61.488q-9.196 0-15.239 6.1-6.042 6.1-6.042 15.385 0 9.284 6.042 15.309 6.043 6.026 15.239 6.026h40.206ZM202.565-140.001q-25.788 0-44.176-18.388t-18.388-44.176v-554.87q0-25.788 18.388-44.176t44.176-18.388h554.87q25.788 0 44.176 18.388t18.388 44.176v554.87q0 25.788-18.388 44.176t-44.176 18.388h-554.87Zm0-50.255h554.87q4.616 0 8.462-3.847 3.847-3.846 3.847-8.462v-554.87q0-4.616-3.847-8.462-3.846-3.847-8.462-3.847h-554.87q-4.616 0-8.462 3.847-3.847 3.846-3.847 8.462v554.87q0 4.616 3.847 8.462 3.846 3.847 8.462 3.847Zm-12.309-579.488V-190.256-769.744Z"/></svg>