<svg xmlns="http://www.w3.org/2000/svg" height="40" viewBox="0 -960 960 960" width="40"><path d="M251.078-619.744h-55.95q-10.679 0-17.903-7.263-7.224-7.263-7.224-18 0-10.736 7.224-17.864t17.903-7.128h81.077q10.679 0 17.903 7.224 7.225 7.224 7.225 17.903v329.744q0 10.679-7.263 17.903-7.263 7.224-18 7.224-10.736 0-17.864-7.224t-7.128-17.903v-304.616Zm341.691 175.691-84.257 141.565q-3.157 6.064-8.953 9.275-5.795 3.212-12.687 3.212-14.41 0-21.743-12.563-7.333-12.564.102-25.256l97.949-164.59-84.282-139.437q-7.82-12.82-.454-25.486 7.367-12.666 22.099-12.666 7.047 0 12.957 3.176 5.91 3.176 8.961 8.849l71.078 116.95 68.564-116.488q2.967-6.064 8.786-9.275 5.819-3.212 12.93-3.212 14.488 0 21.719 12.563 7.23 12.564-.205 25L623.538-492.41l96.487 164.257q7.82 12.82.103 25.486-7.718 12.666-22.423 12.666-6.74 0-12.561-3.407t-9.143-9.285l-83.232-141.36Z"/></svg>