<svg xmlns="http://www.w3.org/2000/svg" viewBox="0 -960 960 960" width="32" height="32"><path d="M454.87-534.87v99.74q0 10.7 7.25 17.91 7.25 7.22 18 7.22t17.88-7.22q7.13-7.21 7.13-17.91v-99.74h99.74q10.7 0 17.91-7.25 7.22-7.25 7.22-18T622.78-578q-7.21-7.13-17.91-7.13h-99.74v-99.74q0-10.7-7.25-17.91-7.25-7.22-18-7.22T462-702.78q-7.13 7.21-7.13 17.91v99.74h-99.74q-10.7 0-17.91 7.25-7.22 7.25-7.22 18t7.22 17.88q7.21 7.13 17.91 7.13h99.74ZM241.54-260l-88.33 88.33q-14.77 14.77-33.99 6.76Q100-172.92 100-193.8v-603.63q0-25.79 18.39-44.18T162.57-860h634.86q25.79 0 44.18 18.39T860-797.43v474.86q0 25.79-18.39 44.18T797.43-260H241.54Zm-21.74-50.26h577.63q4.62 0 8.47-3.84 3.84-3.85 3.84-8.47v-474.86q0-4.62-3.84-8.47-3.85-3.84-8.47-3.84H162.57q-4.62 0-8.47 3.84-3.84 3.85-3.84 8.47v559.48l69.54-72.31Zm-69.54 0v-499.48 499.48Z"/></svg>