<svg xmlns="http://www.w3.org/2000/svg" height="40" viewBox="0 -960 960 960" width="40"><path d="M480.085-854.716q5.53 0 10.979 1 5.449 1 10.859 3.205l237.435 88.384q17.976 7.2 29.308 23.202 11.333 16.001 11.333 36.003v170.821q0 10.659-7.347 17.688-7.347 7.03-17.794 7.03-10.448 0-17.781-7.343-7.333-7.343-7.333-17.785v-170.847q0-3.59-2.116-6.796-2.115-3.205-5.962-4.744l-237.435-87.717q-1.923-1.026-4.231-1.026t-4.231 1.026l-237.435 87.717q-3.847 1.539-5.962 4.744-2.116 3.206-2.116 6.796v184.384q0 63.846 18.834 120.5 18.833 56.654 50.039 102.795 31.205 46.141 72 80.026 40.795 33.884 83.846 52.397 9.385 4.461 13.795 13.987 4.41 9.525.812 19.153-4.197 10.269-14.684 14.32-10.487 4.051-20.153-.41-118.564-49.205-186.654-162.404t-68.09-240.364v-183.948q0-20.002 11.333-36.003 11.332-16.002 29.308-23.202l237.435-88.384q5.673-2.626 10.962-3.416 5.288-.789 11.046-.789Zm206.064 754.715q-72.158 0-122.999-51.051-50.841-51.051-50.841-122.589 0-72.73 50.834-123.723 50.834-50.993 123.339-50.993 71.825 0 122.876 50.993t51.051 123.723q0 71.538-51.051 122.589t-123.209 51.051ZM480-480.666Zm190.975 223.23v71.398q0 6.96 4.967 11.499 4.967 4.538 11.589 4.538 6.315 0 10.879-4.964 4.564-4.964 4.564-11.357v-71.114h71.538q6.769 0 11.333-4.993 4.565-4.992 4.565-11.435 0-6.444-4.565-11.008-4.564-4.564-11.333-4.564h-71.538v-71.398q0-6.96-4.564-11.499-4.564-4.538-11.007-4.538t-11.436 4.538q-4.992 4.539-4.992 11.499v71.398H599.67q-6.746 0-11.438 4.539-4.693 4.538-4.693 11.161 0 6.315 4.939 11.307 4.938 4.993 11.523 4.993h70.974Z"/></svg>