<svg xmlns="http://www.w3.org/2000/svg" height="40" viewBox="0 -960 960 960" width="40"><path d="M192.564-140.001q-25.788 0-44.176-18.388-18.387-18.388-18.387-44.176v-554.87q0-25.788 18.387-44.176 18.388-18.388 44.176-18.388h358.207q10.429 0 17.778 7.263 7.349 7.263 7.349 18 0 10.736-7.349 17.864t-17.778 7.128H192.564q-5.385 0-8.847 3.462-3.461 3.462-3.461 8.847v554.87q0 5.385 3.461 8.847 3.462 3.462 8.847 3.462h554.87q5.385 0 8.847-3.462 3.462-3.462 3.462-8.847v-358.206q0-10.43 7.263-17.779t17.999-7.349q10.737 0 17.865 7.349 7.128 7.349 7.128 17.779v358.206q0 25.788-18.388 44.176-18.387 18.388-44.176 18.388h-554.87Zm118.942-406.203q-10.737 0-17.865 7.224-7.128 7.224-7.128 17.903v207.436q0 10.679 7.263 17.903 7.263 7.224 18 7.224 10.736 0 17.864-7.224t7.128-17.903v-207.436q0-10.679-7.263-17.903-7.263-7.224-17.999-7.224Zm158.358-125.282q-10.736 0-17.864 7.224t-7.128 17.903v332.718q0 10.679 7.263 17.903 7.263 7.224 17.999 7.224 10.737 0 17.865-7.224 7.128-7.224 7.128-17.903v-332.718q0-10.679-7.263-17.903-7.263-7.224-18-7.224ZM628.223-422.82q-10.737 0-17.865 7.349-7.128 7.35-7.128 17.779v84.051q0 10.679 7.263 17.903 7.263 7.224 18 7.224 10.736 0 17.864-7.224t7.128-17.903v-84.051q0-10.429-7.263-17.779-7.263-7.349-17.999-7.349Zm68.137-283.13h-58.668q-10.679 0-17.903-7.263-7.224-7.263-7.224-18 0-10.736 7.224-17.864t17.903-7.128h58.668v-58.668q0-10.679 7.263-17.903Q710.886-840 721.622-840q10.737 0 17.865 7.224 7.128 7.224 7.128 17.903v58.668h58.257q10.679 0 17.903 7.263 7.224 7.263 7.224 17.999 0 10.737-7.224 17.865-7.224 7.128-17.903 7.128h-58.257v58.257q0 10.679-7.263 17.903-7.263 7.224-18 7.224-10.736 0-17.864-7.224t-7.128-17.903v-58.257ZM469.999-480Z"/></svg>