<svg xmlns="http://www.w3.org/2000/svg" height="40" viewBox="0 -960 960 960" width="40"><path d="M480-649.744q-70.462 0-120.103 49.641Q310.256-550.462 310.256-480q0 53.641 30.449 97.116 30.449 43.474 80.68 61.859 10.539 4.205 15.769 13.627 5.231 9.423 1.898 19.961-3.18 9.051-11.295 14.179-8.115 5.129-17.422 2.206-67.564-22.385-108.949-79.974-41.385-57.59-41.385-128.974 0-91.538 64.231-155.768 64.23-64.231 155.768-64.231 71.205 0 128.756 41.257 57.551 41.256 79.73 109.102 2.974 9.051-2.038 17.487-5.013 8.436-14.321 11.153-10.666 3.59-19.999-1.872-9.333-5.461-13.538-16.127-18.384-50.231-61.859-80.488-43.474-30.257-96.731-30.257Zm0-160q-137.795 0-233.769 95.975Q150.256-617.795 150.256-480q0 137.026 92.078 230.359 92.077 93.334 227.308 98.564 10.871.821 18.204 8.461 7.333 7.641 7.128 18.256-.205 10.461-7.538 17.474t-17.794 6.808q-77.949-1.59-145.205-32.59-67.256-31-117.167-82.794-49.91-51.795-78.589-120.154-28.68-68.359-28.68-144.384 0-78.769 29.962-148.115 29.961-69.346 81.269-120.653 51.307-51.308 120.653-81.269Q401.231-859.999 480-859.999q152.666 0 264.204 106.372 111.538 106.372 115.718 262.884.41 10.256-6.513 17.371-6.923 7.116-17.384 7.731-10.615.615-18.551-6.807-7.935-7.423-8.5-18.295-6.922-132.564-100.038-225.782Q615.821-809.744 480-809.744Zm295.846 685.127L624.229-276.003l-27.692 84.332q-4.205 11.359-15.564 11.051-11.359-.307-14.769-11.666l-77.845-259.637q-2.41-9.154 4.077-15.641t15.641-4.077l259.893 77.845q11.103 3.41 11.41 14.769.308 11.359-10.795 15.307l-84.588 27.949 152.001 151.617q12.769 12.769 12.769 29.768 0 17-12.769 29.769-12.769 12.769-30.076 12.769-17.307 0-30.076-12.769Z"/></svg>