<svg xmlns="http://www.w3.org/2000/svg" height="40" viewBox="0 -960 960 960" width="40"><path d="M146.666-594.205q-10.348 0-17.122-7.346-6.774-7.347-6.774-17.666 0-10.32 6.774-17.781 6.774-7.462 17.122-7.462h136.257q22.332 0 38.935 14.5 16.602 14.499 21.987 35.755H146.666Zm82.984 368.564q53.914 0 91.747-37.74 37.834-37.74 37.834-91.654 0-53.914-37.74-91.747-37.74-37.834-91.654-37.834-53.914 0-91.748 37.74-37.833 37.74-37.833 91.654 0 53.914 37.74 91.748 37.739 37.833 91.654 37.833Zm552.796 0q31.939 0 54.619-22.562 22.679-22.562 22.679-54.757 0-31.938-22.562-54.618-22.562-22.68-54.5-22.68-32.195 0-54.875 22.563-22.68 22.562-22.68 54.5 0 32.195 22.563 54.875 22.562 22.679 54.756 22.679Zm-552.7-72.308q-23.823 0-40.502-16.677-16.68-16.676-16.68-40.499 0-23.823 16.677-40.503 16.676-16.679 40.499-16.679 23.823 0 40.503 16.676 16.679 16.677 16.679 40.5t-16.676 40.502q-16.677 16.68-40.5 16.68Zm574.357-131.153q15.691 3.846 26.187 8.532 10.495 4.685 24.067 14.467v-235.538q0-26.442-18.06-44.502-18.061-18.061-44.503-18.061H553.129l-45.385-46.308 58.975-58.974-23.129-23.128-141.589 141.589 24.051 23.539 58.564-58.564 45.385 44.797v82.74q0 43.327-30.456 74.433-30.455 31.107-74.263 31.107H345.23q14.256 12.307 22.692 23.127 8.435 10.821 18.666 27.128h38.694q64.051 0 109.512-46.053 45.462-46.053 45.462-109.742v-55.436h211.538q5.385 0 8.847 3.59 3.462 3.59 3.462 8.718v212.539Zm-146 99.101q4.846-17.384 10.062-27.906 5.216-10.523 15.297-22.759H407.716q1.77 14.693 1.77 25.213 0 10.521-1.77 25.452h250.387Zm124.666 154.615q-53.282 0-90.589-36.811-37.307-36.812-37.307-89.393 0-53.708 37.607-91.315t91.315-37.607q52.581 0 89.393 37.331 36.811 37.331 36.811 90.232 0 53.615-36.974 90.589t-90.256 36.974Zm-554.195 0q-74.625 0-126.599-52.574-51.974-52.575-51.974-127.168t52.512-127.168q52.513-52.575 127.142-52.575 74.63 0 127.23 52.601 52.601 52.6 52.601 127.23 0 74.629-52.477 127.142-52.477 52.512-128.435 52.512Zm384.143-341.921Z"/></svg>