<svg xmlns="http://www.w3.org/2000/svg" height="40" viewBox="0 -960 960 960" width="40"><path d="M140.001-714.871q0-43.803 30.802-74.465 30.801-30.663 74.326-30.663H400q43.803 0 74.465 30.663 30.662 30.662 30.662 74.465v543.588q0 13.295-8.993 22.288-8.994 8.994-22.288 8.994H171.283q-13.295 0-22.288-8.994-8.994-8.993-8.994-22.288v-543.588Zm269.744 374.615h45.128v-239.488h-45.128q-5.385 0-8.847 3.461-3.462 3.462-3.462 8.847v214.872q0 5.385 3.462 8.847 3.462 3.461 8.847 3.461Zm-219.489 150h264.617v-99.745h-45.128q-25.609 0-44.086-18.477-18.478-18.478-18.478-44.086v-214.872q0-25.608 18.478-44.086 18.477-18.477 44.086-18.477h45.128v-84.764q0-23.275-15.853-39.128-15.853-15.853-39.02-15.853H245.129q-22.334 0-38.603 15.853-16.27 15.853-16.27 39.02v524.615Zm493.407-241.617q-14.792 0-29.091-3.023-14.299-3.023-29.06-7.592-10.128-3.179-14.422-12.473-4.295-9.293-1.116-19.524 3.18-9.027 12.371-13.617 9.191-4.589 19.039-1.41 11.384 3.385 22.333 5.385 10.949 2 21.564 2 13.898 0 28.052-4.526t28.718-14.09q22.122-14.663 43.924-20.524 21.802-5.86 41.473-5.86 13.869 0 28.891 2.307 15.022 2.308 30.045 6.923 10.39 3.03 15.156 12.758 4.766 9.729.968 20.247-3.256 10.267-13.023 14.759-9.768 4.491-20.024 1.055-11.897-3.513-21.674-5.654t-19.839-2.141q-14.71 0-30.813 4.935-16.102 4.935-34.136 17.681-19.051 12.974-38.841 17.679-19.791 4.705-40.495 4.705Zm.951-153.179q-14.486 0-29.32-2.602-14.833-2.603-29.397-7.603-10.027-2.974-14.462-12.538-4.435-9.563-.999-20.11 3.179-9.171 12.128-14.094 8.948-4.923 19.204-1.487 12.565 3.744 23.233 5.962 10.669 2.218 19.819 2.218 14.265 0 28.274-4.09 14.008-4.09 28.957-14.526 22.641-14.769 44.326-20.577 21.686-5.807 41.393-5.807 14.332 0 29.063 2.5 14.73 2.5 29.961 7.115 10.027 2.879 14.462 12.285 4.435 9.407 1.029 20.067-3.407 10.032-12.782 14.775-9.376 4.743-19.375 1.307-12.436-3.743-22.806-5.769-10.371-2.026-19.451-2.026-14.755 0-30.737 4.59-15.981 4.59-34.93 18.411-16.021 10.646-36.393 16.323-20.372 5.676-41.197 5.676Zm.345 306.358q-15.037 0-29.775-2.631-14.739-2.632-29.287-7.574-10.256-3.179-15-12.448-4.743-9.269-1.307-19.816 3.179-9.17 12.562-13.952 9.384-4.782 19.616-1.603 11.683 3.74 22.453 5.755 10.771 2.014 20.555 2.014 14.383 0 28.294-4.072 13.911-4.072 28.981-14.543 20.994-14.415 44.807-20.4 23.812-5.985 42.13-5.985 13.586 0 28.389 2.308 14.803 2.308 29.417 6.923 10.331 3.125 14.78 12.806 4.45 9.681 1.271 20.353-3.18 10.045-12.756 14.763-9.577 4.718-19.577 1.282-13.23-3.854-23.522-6.017-10.292-2.163-19.227-2.163-15.636 0-32.418 5.616-16.782 5.615-33.141 17.385-14.78 10.41-35.149 16.205-20.369 5.794-42.096 5.794Zm-230.086 88.438V-726.317v11.554-11.554 536.061Z"/></svg>