<svg xmlns="http://www.w3.org/2000/svg" viewBox="0 -960 960 960" width="32" height="32"><path d="m481.54-438.72-110.1 28.93-45.24-36.13q-1.15-.95-12.89-2.16l-3.57.95q-6.38 2-8.8 8.16-2.43 6.15.6 11.92l44.87 81.87q2.41 4.95 7.56 7.38 5.16 2.44 10.57.44l346.13-93.41q15.05-4.28 23.07-15.42 8.03-11.14 3.75-26.07-4.03-14.92-16.55-20.73-12.53-5.8-26.65-2.1L592.31-468 438.54-614.83q-4.39-4.5-10.04-6.21-5.66-1.7-11.45-.09l-4.44 1q-11.84 2.62-16.23 13.35-4.38 10.73 1.44 20.78l83.72 147.28ZM162.57-180q-25.71 0-44.14-18.43T100-242.57v-108.12q0-9.3 4.91-16.78t13.55-10.66q29.7-13.46 47.11-41.25 17.41-27.8 17.41-60.29 0-32.74-17.41-60.74t-47.11-41.46q-8.64-3.18-13.55-10.66T100-609.31v-108.12q0-25.71 18.43-44.14T162.57-780h634.86q25.71 0 44.14 18.43T860-717.43v474.86q0 25.71-18.43 44.14T797.43-180H162.57Zm0-50.26h634.86q5.39 0 8.85-3.46t3.46-8.85v-474.86q0-5.39-3.46-8.85t-8.85-3.46H162.57q-5.39 0-8.85 3.46t-3.46 8.85v93.07q38.07 23.9 60.52 61.68 22.45 37.78 22.45 82.68 0 44.9-22.45 82.68-22.45 37.78-60.52 61.68v93.07q0 5.39 3.46 8.85t8.85 3.46ZM480-480Z"/></svg>