<svg xmlns="http://www.w3.org/2000/svg" height="40" viewBox="0 -960 960 960" width="40"><path d="M494.513-480ZM208.181-220.001q-19.248 0-27.867-16.244-8.62-16.243 1.651-31.804l131.498-205.412q1.923-3.077 1.923-6.539 0-3.462-1.923-6.539L181.965-691.951q-10.271-15.561-1.651-31.804 8.619-16.244 27.867-16.244H580.36q22.016 0 40.584 10.539 18.568 10.538 30.977 28.036l127.976 180.478q6.82 9.409 4.487 18.9-2.333 9.49-9.949 14.699-7.692 5.322-17.668 4.929-9.976-.393-16.792-10.427L605.641-679.743q-3.462-4.616-8.077-7.308-4.616-2.693-11.155-2.693H242.256l114.026 175.257q10.359 15.649 10.359 34.427t-10.359 34.547L242.256-270.256h209.31q10.679 0 17.903 7.263 7.224 7.263 7.224 17.999 0 10.737-7.224 17.865-7.224 7.128-17.903 7.128H208.181Zm491.101-.485-21.615-21.616q-7.066-6.821-16.879-6.821-9.813 0-16.89 6.976-7.077 6.977-7.077 16.577 0 9.601 7.077 16.421l39 39.256q7.021 7.154 16.382 7.154t16.515-7.154l93.025-91.41q7.077-6.82 7.141-16.563.064-9.744-7.141-17.205-7.167-6.82-17.122-6.82-9.954 0-17.031 6.82l-75.385 74.385Zm26.867 162.382q-72.158 0-122.999-51.227-50.841-51.227-50.841-122.46 0-72.857 50.834-123.763 50.834-50.906 123.339-50.906 71.825 0 122.876 50.906t51.051 123.763q0 71.233-51.051 122.46-51.051 51.227-123.209 51.227Z"/></svg>