<svg xmlns="http://www.w3.org/2000/svg" height="40" viewBox="0 -960 960 960" width="40"><path d="m275.845-454.873 222.052 221.796q7.179 7.482 7.397 17.523.218 10.04-7.602 17.749-7.821 7.727-17.692 7.83-9.871.102-17.692-7.718L201.867-458.134q-4.891-4.892-6.994-10.208-2.102-5.316-2.102-11.692t2.102-11.658q2.103-5.282 6.994-10.174l260.441-260.441q7.231-7.23 17.346-7.423 10.115-.192 18.038 7.423 7.82 7.923 7.82 17.846t-7.82 17.487L275.845-505.127h479.026q10.865 0 17.996 7.132 7.132 7.133 7.132 17.999 0 10.867-7.132 17.995-7.131 7.128-17.996 7.128H275.845Z"/></svg>