<svg xmlns="http://www.w3.org/2000/svg" height="40" viewBox="0 -960 960 960" width="40"><path d="M436.716-454.873h159.438q10.698 0 17.912-7.249 7.215-7.249 7.215-17.999t-7.215-17.878q-7.214-7.128-17.912-7.128H436.716l61.181-61.181q7.23-7.231 7.423-17.413.192-10.181-7.628-17.971-7.615-7.615-17.897-7.615-10.282 0-17.897 7.615l-100.179 99.769q-9.616 9.406-9.616 21.946 0 12.541 9.616 21.9l100.179 100.179q7.231 7.231 17.602 7.32 10.371.09 18.192-7.73 7.615-7.615 7.615-17.897 0-10.282-7.615-17.897l-60.976-60.771ZM202.565-140.001q-25.705 0-44.134-18.43-18.43-18.429-18.43-44.134v-554.87q0-25.705 18.43-44.134 18.429-18.43 44.134-18.43h196.001q-.027-32.64 23.588-56.32 23.615-23.68 57.846-23.68 34.615 0 58.23 23.68 23.615 23.68 23.204 56.32h196.001q25.705 0 44.134 18.43 18.43 18.429 18.43 44.134v554.87q0 25.705-18.43 44.134-18.429 18.43-44.134 18.43h-554.87Zm0-50.255h554.87q4.616 0 8.462-3.847 3.847-3.846 3.847-8.462v-554.87q0-4.616-3.847-8.462-3.846-3.847-8.462-3.847h-554.87q-4.616 0-8.462 3.847-3.847 3.846-3.847 8.462v554.87q0 4.616 3.847 8.462 3.846 3.847 8.462 3.847Zm277.381-599.282q13.357 0 22.988-9.449 9.63-9.449 9.63-22.987 0-13.539-9.63-22.987-9.631-9.449-22.988-9.449-13.356 0-22.805 9.449-9.449 9.448-9.449 22.987 0 13.538 9.449 22.987 9.449 9.449 22.805 9.449Zm-289.69 599.282V-769.744-190.256Z"/></svg>