<svg xmlns="http://www.w3.org/2000/svg" height="40" viewBox="0 -960 960 960" width="40"><path d="M235.951-286.05v-278.568q0-10.679 7.263-17.903 7.263-7.224 17.999-7.224 10.737 0 17.865 7.224 7.128 7.224 7.128 17.903v278.568q0 10.679-7.263 17.903-7.263 7.224-18 7.224-10.736 0-17.864-7.224t-7.128-17.903Zm220.819 0v-278.568q0-10.679 7.263-17.903 7.263-7.224 17.999-7.224 10.737 0 17.865 7.224 7.128 7.224 7.128 17.903v278.568q0 10.679-7.263 17.903-7.263 7.224-18 7.224-10.736 0-17.864-7.224t-7.128-17.903Zm370.767-373.951h-697.51q-7.831 0-13.543-5.698-5.713-5.698-5.713-13.466v-13.357q0-5.209 2.837-9.73 2.836-4.521 7.599-6.978l329.998-173.846q13.566-6.974 28.727-6.974 15.162 0 28.863 6.974L837.844-710.23q5.231 3.179 8.308 8.18 3.077 5 3.077 11.435v8.498q0 9.631-6.093 15.873-6.092 6.243-15.599 6.243Zm-596.102-50.255h497.386L485.385-838.513q-2.692-1.154-5.385-1.154-2.693 0-5.385 1.154l-243.18 128.257Zm-95.536 569.844q-10.679 0-17.903-7.263-7.225-7.263-7.225-17.999 0-10.737 7.225-17.865 7.224-7.128 17.903-7.128h421.564q10.679 0 17.903 7.263 7.225 7.263 7.225 18 0 10.736-7.225 17.864-7.224 7.128-17.903 7.128H135.899Zm562.888-272.971q-10.737 0-17.865-7.224-7.128-7.224-7.128-17.903v-126.108q0-10.679 7.263-17.903 7.263-7.224 18-7.224 10.736 0 17.864 7.224t7.128 17.903v126.108q0 10.679-7.263 17.903-7.263 7.224-17.999 7.224Zm-46.478 196.851v-74.519q0-8.561 4.705-16.345 4.705-7.783 13.064-11.731l116.409-58.333q5.964-3.154 13.418-3.154 7.454 0 13.864 3.154l116.41 58.333q8.102 3.948 12.807 11.731 4.705 7.784 4.705 16.345v74.519q0 71.173-36.32 120.313-36.32 49.141-99.542 75.694-2.675 1.6-11.914 2.524-1.223 0-11.889-2.59-63.077-26.487-99.397-75.628-36.32-49.14-36.32-120.313Zm122.486 34.584-35.359-35.359q-5.59-5.59-13.192-5.68-7.603-.089-13.321 5.628-5.974 6.021-5.974 13.408t5.974 13.361l40.205 40.205q9.336 9.359 21.783 9.359 12.448 0 21.807-9.359l96.333-96.128q5.59-5.636 5.782-13.215.192-7.579-5.654-13.554-5.846-5.974-13.384-5.871-7.538.102-13.256 5.871l-91.744 91.334Zm-543.36-528.308h497.386-497.386Z"/></svg>