<svg xmlns="http://www.w3.org/2000/svg" height="40" viewBox="0 -960 960 960" width="40"><path d="M661.539-203.077h-43.692q-9.491 0-13.809-7.795-4.319-7.795.45-15.944l79.464-133.827q3.356-5.125 8.933-3.715 5.576 1.41 5.576 7.916v79.519h43.692q9.491 0 13.809 7.795 4.319 7.795-.45 15.944l-79.464 134.237q-3.356 5.126-8.933 3.758-5.576-1.367-5.576-7.703v-80.185Zm-313.59 52.821Zm-18.974 50.255q-13.294 0-22.288-8.994-8.993-8.993-8.993-22.288v-635.665q0-13.045 8.993-22.164 8.994-9.118 22.288-9.118h77.179v-30.487q0-13.295 8.994-22.288 8.993-8.994 22.288-8.994h85.128q13.295 0 22.288 8.994 8.994 8.993 8.994 22.288v30.487h77.258q13.312 0 22.257 9.118 8.945 9.119 8.945 22.164v273.795q0 10.679-7.263 17.903-7.262 7.224-17.999 7.224-10.737 0-17.865-7.224-7.127-7.224-7.127-17.903V-748.36H347.949v598.104h135.179q10.679 0 17.903 7.263 7.225 7.263 7.225 17.999 0 10.737-7.225 17.865-7.224 7.128-17.903 7.128H328.975Z"/></svg>