<svg xmlns="http://www.w3.org/2000/svg" height="40" viewBox="0 -960 960 960" width="40"><path d="M629.999-687.436q-10.698 0-17.913-7.248-7.214-7.248-7.214-17.996 0-10.498 7.214-17.755 7.215-7.256 17.913-7.256h169.744q10.698 0 17.913 7.373 7.214 7.373 7.214 18 0 10.626-7.214 17.754-7.215 7.128-17.913 7.128H629.999ZM480-261.54l-172.307 74.102q-31.538 13.308-59.615-5.144-28.077-18.453-28.077-52.265v-515.152q0-25.59 18.388-44.077t44.176-18.487h226.923q10.698 0 17.913 7.374 7.214 7.373 7.214 17.999 0 10.626-7.214 17.754-7.215 7.128-17.913 7.128H282.565q-4.616 0-8.462 3.847-3.847 3.846-3.847 8.462v514.177q0 6.796 5.578 10.514 5.577 3.718 11.731 1.025L480-316.359l192.435 82.076q6.154 2.693 11.731-1.025 5.578-3.718 5.578-10.514V-507.18q0-10.449 7.249-17.788 7.25-7.34 17.999-7.34 10.751 0 17.879 7.34 7.128 7.339 7.128 17.788v262.333q0 33.812-28.077 52.265-28.077 18.452-59.615 5.144L480-261.54Zm0-510.768H270.256 534.615 480Z"/></svg>