<svg xmlns="http://www.w3.org/2000/svg" viewBox="0 -960 960 960" width="32" height="32"><path d="M479.88-608.97q-11.71 0-19.51-7.79-7.81-7.79-7.81-19.64 0-11.84 7.93-19.64 7.92-7.81 19.63-7.81 11.71 0 19.51 7.93 7.81 7.92 7.81 19.63 0 11.97-7.93 19.64-7.92 7.68-19.63 7.68ZM323.73-452.56q-11.97 0-19.65-7.93-7.67-7.92-7.67-19.63 0-11.71 7.79-19.51 7.79-7.81 19.64-7.81 11.84 0 19.64 7.93 7.8 7.92 7.8 19.63 0 11.71-7.92 19.51-7.92 7.81-19.63 7.81Zm156.15 0q-11.71 0-19.51-7.93-7.81-7.92-7.81-19.63 0-11.71 7.93-19.51 7.92-7.81 19.63-7.81 11.71 0 19.51 7.93 7.81 7.92 7.81 19.63 0 11.71-7.93 19.51-7.92 7.81-19.63 7.81Zm156.41 0q-11.97 0-19.64-7.93-7.68-7.92-7.68-19.63 0-11.71 7.79-19.51 7.79-7.81 19.64-7.81 11.84 0 19.64 7.93 7.81 7.92 7.81 19.63 0 11.71-7.93 19.51-7.92 7.81-19.63 7.81ZM479.88-296.41q-11.71 0-19.51-7.79-7.81-7.79-7.81-19.64 0-11.84 7.93-19.64 7.92-7.8 19.63-7.8 11.71 0 19.51 7.92 7.81 7.92 7.81 19.63 0 11.97-7.93 19.65-7.92 7.67-19.63 7.67ZM202.57-190.26h554.86q5.39 0 8.85-3.46t3.46-8.85v-554.86q0-5.39-3.46-8.85t-8.85-3.46H202.57q-5.39 0-8.85 3.46t-3.46 8.85v554.86q0 5.39 3.46 8.85t8.85 3.46Zm0 50.26q-25.61 0-44.09-18.48Q140-176.96 140-202.57v-554.86q0-25.61 18.48-44.09Q176.96-820 202.57-820h554.86q25.61 0 44.09 18.48Q820-783.04 820-757.43v554.86q0 25.61-18.48 44.09Q783.04-140 757.43-140H202.57Z"/></svg>