<svg xmlns="http://www.w3.org/2000/svg" height="40" viewBox="0 -960 960 960" width="40"><path d="M578.73-140.001q-41.832 0-70.794-29.093-28.961-29.092-28.961-70.653 0-41.561 28.949-70.65 28.949-29.089 70.653-29.089 41.704 0 70.794 29.092 29.089 29.092 29.089 70.653 0 41.561-29.088 70.65-29.088 29.09-70.642 29.09Zm-.257-50.255q20.681 0 35.206-14.405 14.526-14.404 14.526-34.961 0-20.558-14.405-35.084-14.406-14.525-34.965-14.525-20.81 0-35.207 14.404-14.398 14.404-14.398 34.962 0 20.557 14.281 35.083 14.28 14.526 34.962 14.526Zm84.048-234.617q-82.975 0-140.311-57.344-57.337-57.344-57.337-140.268 0-82.925 57.344-140.219 57.344-57.295 140.268-57.295 82.925 0 140.219 57.305 57.295 57.304 57.295 140.173 0 82.975-57.305 140.311-57.304 57.337-140.173 57.337Zm-.108-50.255q61.962 0 104.647-42.608 42.684-42.607 42.684-104.677 0-61.962-42.567-104.647-42.566-42.684-104.577-42.684-62.01 0-104.741 42.567-42.731 42.566-42.731 104.577 0 62.01 42.608 104.741 42.607 42.731 104.677 42.731ZM282.18-253.899q-59.115 0-100.647-41.531-41.532-41.532-41.532-100.647 0-59.115 41.532-100.647 41.532-41.531 100.647-41.531 59.115 0 100.646 41.531 41.532 41.532 41.532 100.647 0 59.115-41.532 100.647-41.531 41.531-100.646 41.531Zm-.075-50.254q38.101 0 65.049-26.874 26.949-26.874 26.949-64.975t-26.874-65.05Q320.355-488 282.255-488q-38.101 0-65.05 26.874-26.949 26.873-26.949 64.974t26.874 65.05q26.874 26.949 64.975 26.949Zm296.613 64.409Zm83.846-382.82ZM282.308-396.205Z"/></svg>