<svg xmlns="http://www.w3.org/2000/svg" height="40" viewBox="0 -960 960 960" width="40"><path d="M152.666-711.127h277.463-277.463Zm78.667 275.589h-81.077 499.488-418.411Zm-38.75 335.537q-14.223 0-24.094-9.932-9.871-9.931-9.871-24.118v-69.591q-24.898-12.255-41.757-41.961-16.86-29.705-16.86-62.5v-380.564q0-66.665 69.269-95.601 69.269-28.935 237.961-33.038 11.017 0 18.47 6.77 7.452 6.771 7.452 17.644 0 10.982-6.974 18.412-6.975 7.429-18.127 7.429-127.412 1.846-185.322 15.077t-70.064 40.847h239.13q10.429 0 17.778 7.262 7.349 7.263 7.349 18T409.574-668q-7.349 7.128-17.778 7.128h-241.54v175.079h412.67q10.864 0 17.893 7.263t7.029 17.999q0 10.737-7.224 17.865-7.224 7.128-17.903 7.128H150.256v120q0 34.487 23.911 59.346 23.91 24.859 57.166 24.859h337.334q33.256 0 57.166-24.859 23.911-24.859 23.911-59.346v-82.669q0-10.679 7.263-17.903 7.263-7.224 17.999-7.224 10.737 0 17.865 7.224 7.128 7.224 7.128 17.903v90.104q0 32.795-16.86 62.5-16.859 29.706-41.757 41.961v69.591q0 14.187-9.956 24.118-9.955 9.932-24.178 9.932t-24.094-9.932q-9.872-9.931-9.872-24.118v-47.027H226.718v47.027q0 14.187-9.956 24.118-9.956 9.932-24.179 9.932Zm484.17-408.667q-72.975 0-124.376-51.404-51.402-51.403-51.402-124.86 0-72.467 51.297-123.767 51.296-51.3 124.654-51.3 73.404 0 124.392 50.989 50.988 50.987 50.988 124.548 0 73.436-51.289 124.615-51.289 51.179-124.264 51.179Zm1.375-148.358q6.948 0 11.641-4.751 4.692-4.751 4.692-11.974v-98.812q0-6.821-4.898-11.513-4.897-4.692-11.974-4.692t-11.641 4.897q-4.564 4.897-4.564 12.095v98.424q0 7.198 4.898 11.762 4.897 4.564 11.846 4.564Zm-.206 79.487q8.488 0 14.244-5.744 5.756-5.743 6.141-14.308 0-8.794-6.015-14.551-6.016-5.756-14.036-5.756-9.487.41-14.898 6.026-5.41 5.615-5.41 14.23 0 8.616 5.744 14.359 5.743 5.744 14.23 5.744ZM253.406-283.898q20.761 0 35.164-14.533 14.404-14.533 14.404-35.294 0-20.762-14.533-35.339-14.533-14.576-35.295-14.576-20.761 0-35.338 14.706-14.577 14.707-14.577 35.468 0 20.761 14.707 35.165 14.706 14.403 35.468 14.403Zm293.448 0q20.761 0 35.338-14.533 14.577-14.533 14.577-35.294 0-20.762-14.707-35.339-14.706-14.576-35.468-14.576-20.761 0-35.164 14.706-14.404 14.707-14.404 35.468 0 20.761 14.533 35.165 14.533 14.403 35.295 14.403Z"/></svg>