<svg xmlns="http://www.w3.org/2000/svg" height="40" viewBox="0 -960 960 960" width="40"><path d="M162.565-140.001q-25.788 0-44.176-18.388t-18.388-44.176v-434.87q0-25.788 18.388-44.176t44.176-18.388h177.436v-77.435q0-25.788 18.388-44.175 18.388-18.388 44.176-18.388h154.87q25.788 0 44.176 18.388 18.388 18.387 18.388 44.175v77.435h177.436q25.788 0 44.176 18.388t18.388 44.176v434.87q0 25.788-18.388 44.176t-44.176 18.388h-634.87Zm227.691-559.998h179.488v-77.435q0-4.615-3.847-8.462-3.846-3.846-8.462-3.846h-154.87q-4.616 0-8.462 3.846-3.847 3.847-3.847 8.462v77.435Zm419.488 324.716H565.793v29.091q0 13.191-8.954 22.178t-22.358 8.987H426.155q-13.154 0-22.141-9.071-8.987-9.07-8.987-22.211v-28.974H150.256v172.718q0 4.616 3.847 8.462 3.846 3.847 8.462 3.847h634.87q4.616 0 8.462-3.847 3.847-3.846 3.847-8.462v-172.718Zm-364.462 10.001h70.256v-70.256h-70.256v70.256Zm-295.026-60.256h244.771v-29.095q0-13.443 9.079-22.301 9.08-8.859 22.234-8.859h108.325q13.404 0 22.266 8.945 8.862 8.946 8.862 22.336v28.974h243.951v-211.897q0-4.616-3.847-8.462-3.846-3.847-8.462-3.847h-634.87q-4.616 0-8.462 3.847-3.847 3.846-3.847 8.462v211.897ZM480-400.41Z"/></svg>