<svg xmlns="http://www.w3.org/2000/svg" height="40" viewBox="0 -960 960 960" width="40"><path d="M736.127-100.001q-108.615 0-221.986-53.321-113.371-53.32-210.435-150.576-97.064-97.256-150.384-210.435-53.321-113.179-53.321-221.794 0-18.802 12.425-31.337t31.063-12.535h119.568q15.481 0 26.519 10.09 11.039 10.09 15.013 25.706l23.542 110.682q2.176 15.547-1.004 27.521-3.179 11.974-11.844 20.125l-93.719 91.259q25.282 44.231 54.679 82.475 29.398 38.244 63.603 72.218 35.898 36.564 76.359 67.103 40.462 30.539 86.847 55.923l90.436-92.435q9.795-10.59 22.501-14.436 12.706-3.846 26.473-1.846l101.741 21.794q15.821 3.744 25.808 15.997 9.988 12.254 9.988 27.773v116.561q0 18.638-12.535 31.063-12.535 12.425-31.337 12.425ZM196.974-540.973l78.821-76.154q1.667-1.539 2.244-4.232.577-2.692.064-5l-20.359-97.23q-.513-3.078-2.564-4.616-2.051-1.539-5.129-1.539h-94.205q-2.307 0-3.846 1.539-1.539 1.538-1.539 3.846 1.59 41.411 13.09 86.898 11.5 45.487 33.423 96.488Zm353.538 347.999q40.59 19.615 87.501 30.372 46.91 10.756 86.346 12.192 2.308 0 3.846-1.539 1.539-1.538 1.539-3.846v-93.487q0-3.077-1.539-5.129-1.538-2.051-4.616-2.564l-88.461-18.154q-2.307-.513-4.038.064-1.731.577-3.654 2.244l-76.924 79.847ZM196.974-540.973Zm353.538 347.999Zm-35.641-616.77q-10.679 0-17.903-7.263-7.224-7.263-7.224-17.999 0-10.737 7.224-17.865 7.224-7.128 17.903-7.128h320q10.679 0 17.903 7.263 7.225 7.263 7.225 18 0 10.736-7.225 17.864-7.224 7.128-17.903 7.128h-320Zm0 137.948q-10.679 0-17.903-7.263-7.224-7.263-7.224-17.999 0-10.737 7.224-17.865 7.224-7.128 17.903-7.128h320q10.679 0 17.903 7.263 7.225 7.263 7.225 18 0 10.736-7.225 17.864-7.224 7.128-17.903 7.128h-320Zm0 137.948q-10.679 0-17.903-7.263-7.224-7.263-7.224-17.999 0-10.737 7.224-17.865 7.224-7.128 17.903-7.128h320q10.679 0 17.903 7.263 7.225 7.263 7.225 17.999 0 10.737-7.225 17.865-7.224 7.128-17.903 7.128h-320Z"/></svg>