<svg xmlns="http://www.w3.org/2000/svg" height="40" viewBox="0 -960 960 960" width="40"><path d="M220.001-797.435q0-25.788 18.388-44.176t44.176-18.388h394.87q25.788 0 44.176 18.388t18.388 44.176v496.102q0 10.68-7.263 17.904t-18 7.224q-10.736 0-17.864-7.224t-7.128-17.904v-496.102q0-4.616-3.847-8.462-3.846-3.847-8.462-3.847h-394.87q-4.616 0-8.462 3.847-3.847 3.846-3.847 8.462v496.102q0 10.68-7.263 17.904t-17.999 7.224q-10.737 0-17.865-7.224-7.128-7.224-7.128-17.904v-496.102Zm260.178 226.922q25.564 0 43.59-18.205 18.025-18.204 18.025-43.768t-18.205-43.59q-18.204-18.025-43.768-18.025t-43.59 18.204q-18.025 18.205-18.025 43.769t18.204 43.59q18.205 18.025 43.769 18.025Zm-48.228 400.512H245.129q-10.679 0-17.903-7.263-7.225-7.263-7.225-17.999 0-10.737 7.225-17.865 7.224-7.128 17.903-7.128h187.899l-43.745-43.745q-7.23-7.23-7.423-17.499-.192-10.269 7.423-17.756 7.616-7.487 17.897-7.487 10.282 0 17.897 7.615l82.333 81.667q9.359 9.335 9.359 21.783 0 12.447-9.359 22.062l-82.333 82.077q-7.23 7.23-17.499 7.218-10.269-.013-17.884-7.628-7.616-7.615-7.616-17.897 0-10.282 7.616-17.897l42.257-42.258Zm153.176 0q-10.679 0-17.903-7.263Q560-184.527 560-195.263q0-10.737 7.224-17.865 7.224-7.128 17.903-7.128h129.744q10.679 0 17.903 7.263 7.225 7.263 7.225 18 0 10.736-7.225 17.864-7.224 7.128-17.903 7.128H585.127ZM480-632.307Z"/></svg>