<svg xmlns="http://www.w3.org/2000/svg" height="40" viewBox="0 -960 960 960" width="40"><path d="M480.41-480Zm317.435 299.999H614.204q-10.68 0-17.904-7.263t-7.224-18q0-10.736 7.224-17.864t17.904-7.128h183.641q5.385 0 8.847-3.462 3.462-3.462 3.462-8.847v-199q0-10.679 7.263-17.904 7.263-7.224 17.999-7.224 10.737 0 17.865 7.224 7.128 7.225 7.128 17.904v199q0 25.609-18.378 44.086-18.378 18.478-44.186 18.478ZM125.404-668.128q-10.736 0-17.864-7.224t-7.128-17.903v-24.18q0-25.609 18.477-44.086 18.478-18.478 44.086-18.478h282.129q10.679 0 17.904 7.263 7.224 7.263 7.224 18 0 10.736-7.224 17.864-7.225 7.128-17.904 7.128H162.975q-5.128 0-8.718 3.462t-3.59 8.847v24.18q0 10.679-7.263 17.903-7.263 7.224-18 7.224Zm599.451 126.845q-72.342 0-123.726-50.984-51.384-50.983-51.384-123.999 0-72.628 51.401-123.949 51.402-51.321 123.743-51.321t123.725 51.233q51.385 51.233 51.385 124.304 0 72.904-51.402 123.81-51.401 50.906-123.742 50.906Zm-.188-69.64q8.615 0 14.564-5.616 5.948-5.615 5.948-14.436 0-8.82-6.015-14.564-6.015-5.743-14.164-5.743-8.949 0-14.692 5.743-5.744 5.744-5.744 14.564 0 8.821 5.744 14.436 5.743 5.616 14.359 5.616Zm.205-79.231q7.077 0 11.641-4.897 4.564-4.898 4.564-12.095v-98.424q0-7.198-4.718-11.762t-11.897-4.564q-7.077 0-11.641 4.751t-4.564 11.974v98.812q0 6.821 4.717 11.513 4.718 4.692 11.898 4.692ZM144.613-180.001q-18.868 0-31.945-13.17-13.077-13.169-13.077-32.422 0-18.869 13.234-31.946 13.233-13.076 32.23-13.076 18.997 0 32.073 13.233 13.077 13.234 13.077 32.231 0 18.996-13.169 32.073-13.17 13.077-32.423 13.077Zm166.799 0q-10.109 0-17.412-6.514-7.302-6.514-8.999-16.999-7.872-64.179-53.295-109.256t-109.32-53.718q-9.677-1.243-15.826-8.982-6.148-7.739-6.148-17.645 0-10.525 6.908-17.859 6.908-7.333 16.527-6.384 84.743 8.461 144.063 68.525 59.32 60.064 67.756 144.55 1.359 10.116-6.077 17.199-7.436 7.083-18.177 7.083Zm155.688 0q-10.613 0-17.882-7.718-7.269-7.718-8.218-18.692-10.205-127.513-99.282-217.243-89.076-89.731-216.307-99.218-10.622-.651-17.811-8.211-7.188-7.561-7.188-17.641 0-10.711 8.512-17.942 8.513-7.23 19.769-6.41 146.752 10.19 249.696 114.172Q481.332-354.923 491.64-207.59q.564 11.791-6.634 19.69-7.198 7.899-17.906 7.899Z"/></svg>