<svg xmlns="http://www.w3.org/2000/svg" height="40" viewBox="0 -960 960 960" width="40"><path d="M165.64-480.872 338.102-308.41q7.231 7.231 7.218 17.5-.013 10.269-7.628 17.884t-17.897 7.615q-10.282 0-17.897-7.615L115.77-459.154q-4.949-4.949-7.051-10.231-2.103-5.282-2.103-11.692 0-6.154 2.103-11.436 2.102-5.282 7.051-10.487l187.615-187.358q7.436-7.436 17.807-7.628 10.372-.193 18.192 7.628 7.564 7.563 7.564 17.871 0 10.307-7.564 17.871L165.64-480.872Zm628.72-.154L621.898-653.744q-7.231-7.231-7.218-17.5.013-10.269 7.628-17.627 7.615-7.616 17.897-7.616 10.282 0 17.897 7.616L844.23-503q4.949 5.205 7.179 10.487 2.231 5.282 2.231 11.436 0 6.41-2.231 11.692-2.23 5.282-7.179 10.231L656.615-271.539q-7.436 7.436-17.5 7.32-10.063-.115-17.627-7.935-7.821-7.821-7.821-18t7.821-17.999L794.36-481.026Z"/></svg>