<svg xmlns="http://www.w3.org/2000/svg" height="40" viewBox="0 -960 960 960" width="40"><path d="M473.051-232.616V-192q0 11.312-7.646 18.963-7.646 7.652-18.948 7.652-11.303 0-18.969-7.652-7.666-7.651-7.666-18.963v-206.82q0-5.103.602-10.205.603-5.103 2.603-10.052l42.743-123.384q6.248-18.781 22.65-30.518 16.402-11.738 36.709-11.738h238.409q20.307 0 36.709 11.738 16.401 11.737 22.65 30.518l42.743 123.384q2 4.949 2.603 10.052.602 5.102.602 10.205V-192q0 11.312-7.645 18.963-7.646 7.652-18.949 7.652-11.302 0-18.969-7.652-7.666-7.651-7.666-18.963v-40.616H473.051Zm-1.743-207.999h346.051l-33.256-97.692q-1.154-3.847-4.231-6.154-3.077-2.308-7.308-2.308H516.103q-4.231 0-7.308 2.308-3.077 2.307-4.231 6.154l-33.256 97.692Zm-13.539 37.948v132.103-132.103Zm64.924 102.205q15.844 0 26.563-10.718 10.718-10.719 10.718-26.564 0-15.479-10.718-26.252-10.719-10.773-26.563-10.773-15.845 0-26.564 10.773-10.718 10.773-10.718 26.381 0 15.607 10.718 26.38 10.719 10.773 26.564 10.773Zm243.281 0q15.48 0 26.381-10.718 10.901-10.719 10.901-26.564 0-15.479-10.901-26.252t-26.509-10.773q-15.607 0-26.381 10.773-10.773 10.773-10.773 26.381 0 15.607 10.719 26.38t26.563 10.773ZM193.476-170.001q-10.193 0-13.834-9.884-3.64-9.885 3.719-17.244l51.795-51.795q-56.462 0-100.232-29.73-43.77-29.731-43.77-81.756v-334.052q0-53.307 56.001-74.422 56-21.115 192.922-21.115 132.614 0 190.897 21.243 58.282 21.243 58.282 68.601v39.797q0 10.679-7.263 17.903-7.263 7.224-18 7.224-10.736 0-17.864-7.224t-7.128-17.903v-39.797H141.41v273.951h196.616q13.295 0 22.288 9.118 8.994 9.119 8.994 22.163v193.641q0 13.294-8.994 22.288-8.993 8.993-22.288 8.993h-144.55Zm3.345-153.384q15.607 0 26.38-10.773t10.773-26.38q0-15.608-10.718-26.381-10.719-10.773-26.564-10.773-15.479 0-26.252 10.718-10.773 10.719-10.773 26.564 0 15.479 10.773 26.252t26.381 10.773Zm260.948 52.821h373.129v-132.103H457.769v132.103Z"/></svg>