<svg xmlns="http://www.w3.org/2000/svg" height="40" viewBox="0 -960 960 960" width="40"><path d="m199.898-126.154-5.616-48q-8.205-3.846-14.5-7.218t-12.474-7.962l-45 18.564-35.23-60.82 37.999-28.384v-31.206l-38-29.384 35.231-61.076 45 18.82q10.641-7.154 15.936-10.308t11.038-5.667L199.898-426h70.461l5.615 48q3.846 1.667 7.231 3.257 3.384 1.59 6.5 3.384 3.115 1.795 6.295 3.975 3.179 2.179 6.949 4.564l44.999-18.82 35.231 61.076-38 28.384q1.205 7.231.474 17.642-.73 10.41-2.73 14.974 2.743 2.718 4.564 4 1.82 1.283 4.564 4L587.59-380.076l-35.461 62.589 1.692 1.076-178.283 96.872-27.59 48.769-44.999-18.564q-10.641 6.744-15.936 9.975-5.295 3.23-11.039 6l-5.615 47.205h-70.461Zm35.23-220q-29.179 0-49.564 20.513t-20.385 49.436q0 29.18 20.385 49.693Q205.949-206 235.128-206q29.18 0 49.565-20.512 20.384-20.513 20.384-49.693 0-28.923-20.384-49.436-20.385-20.513-49.565-20.513ZM404.77-574l-5.205-47.205q-7.36-4.231-13.642-7.731-6.282-3.501-11.59-7.731l-4.282 3.743v247.795l-12.615-22.358-27.487 12.102v-227.744l-37-56.307 37-28.384v-31.206l-38-29.384 35.231-60.82 45 18.564q10.641-7.154 15.936-10.18 5.295-3.025 11.038-5.795l5.616-47.205h70.46l5.616 48q7.692 3.462 13.667 6.769 5.974 3.308 13.307 8.411l45-18.564 35.231 60.82-38 28.384v31.206l38 29.384-35.231 61.076-45-18.82q-10.641 6.744-15.936 9.974-5.295 3.231-11.038 6.001L475.23-574h-70.46ZM440-794q-29.18 0-49.564 20.512-20.385 20.513-20.385 49.693 0 28.923 20.385 49.436Q410.82-653.846 440-653.846t49.564-20.513q20.385-20.513 20.385-49.436 0-29.18-20.385-49.693Q469.18-794 440-794Zm249.641 667.846-5.615-48q-8.59-4.231-14.693-7.411-6.102-3.179-12.282-7.769l-44.999 18.564-35.231-60.82 38-28.384v-31.206l-38-28.384 35.231-62.076 44.999 18.82q6.411-5.436 11.013-8.564 4.603-3.129 11.449-6.411l3.026-13.257-224.692-162.846h35.101l2.821-21.563L702.461-426h57.641l5.616 48q3.846 1.667 7.23 3.257 3.385 1.59 6.5 3.384 3.116 1.795 6.295 3.975 3.18 2.179 6.949 4.564l45-18.82 35.23 61.076-37.999 28.384v31.206l37.999 29.384-35.23 60.82-45-18.564q-11.025 7.128-16.256 10.359t-10.718 5.616l-5.616 47.205h-70.461Zm35.231-220q-29.18 0-49.565 20.513-20.384 20.513-20.384 49.436 0 29.18 20.384 49.693Q695.692-206 724.872-206q29.18 0 49.564-20.512 20.385-20.513 20.385-49.693 0-28.923-20.385-49.436-20.384-20.513-49.564-20.513Z"/></svg>