<svg xmlns="http://www.w3.org/2000/svg" viewBox="0 -960 960 960" width="32" height="32"><path d="M288.56-335.64h185.29q13.39 0 22.33-8.95 8.95-8.94 8.95-22.33v-27.75q0-13.39-8.95-22.33-8.94-8.95-22.33-8.95H288.56q-13.14 0-22.21 8.95-9.07 8.94-9.07 22.33v27.75q0 13.39 9.07 22.33 9.07 8.95 22.21 8.95Zm354.88 0h28q13.14 0 22.21-8.95 9.07-8.94 9.07-22.33v-225.75q0-13.39-9.07-22.33-9.07-8.95-22.21-8.95h-28q-13.14 0-22.22 8.95-9.07 8.94-9.07 22.33v225.75q0 13.39 9.07 22.33 9.08 8.95 22.22 8.95Zm-354.88-198h185.29q13.39 0 22.33-8.95 8.95-8.94 8.95-22.33v-27.75q0-13.39-8.95-22.33-8.94-8.95-22.33-8.95H288.56q-13.14 0-22.21 8.95-9.07 8.94-9.07 22.33v27.75q0 13.39 9.07 22.33 9.07 8.95 22.21 8.95ZM162.57-180q-25.79 0-44.18-18.39T100-242.57v-474.86q0-25.79 18.39-44.18T162.57-780h634.86q25.79 0 44.18 18.39T860-717.43v474.86q0 25.79-18.39 44.18T797.43-180H162.57Zm0-50.26h634.86q4.62 0 8.47-3.84 3.84-3.85 3.84-8.47v-474.86q0-4.62-3.84-8.47-3.85-3.84-8.47-3.84H162.57q-4.62 0-8.47 3.84-3.84 3.85-3.84 8.47v474.86q0 4.62 3.84 8.47 3.85 3.84 8.47 3.84Zm-12.31 0v-499.48 499.48Z"/></svg>