<svg xmlns="http://www.w3.org/2000/svg" height="40" viewBox="0 -960 960 960" width="40"><path d="M480-409.231q29.154 0 49.576-20.423 20.423-20.423 20.423-49.577 0-29.153-20.423-49.576Q509.154-549.23 480-549.23t-49.576 20.423q-20.423 20.423-20.423 49.576 0 29.154 20.423 49.577 20.422 20.423 49.576 20.423ZM330.001-261.54h299.998v-14.538q0-21.307-11.461-37.846-11.462-16.538-31.384-25.384-24.847-10.615-51.577-16.423-26.731-5.808-55.577-5.808-28.846 0-55.577 5.808-26.73 5.808-51.577 16.423-19.922 8.846-31.384 25.384-11.461 16.539-11.461 37.846v14.538Zm387.434 161.539h-474.87q-25.788 0-44.176-18.388t-18.388-44.176v-634.87q0-25.788 18.388-44.176t44.176-18.388h283.512q12.86 0 24.442 5.077 11.583 5.077 20.198 13.436l190.769 190.769q8.359 8.615 13.436 20.198 5.077 11.582 5.077 24.442v443.512q0 25.788-18.388 44.176t-44.176 18.388Zm0-50.255q4.616 0 8.462-3.847 3.847-3.846 3.847-8.462v-447.23L529.795-809.744h-287.23q-4.616 0-8.462 3.847-3.847 3.846-3.847 8.462v634.87q0 4.616 3.847 8.462 3.846 3.847 8.462 3.847h474.87Zm-487.179 0V-809.744-150.256Z"/></svg>