<svg xmlns="http://www.w3.org/2000/svg" viewBox="0 -960 960 960" width="32" height="32"><path d="m849.56-209.87-39.82-40.08v-257.03H552.72l-112.67-112.4h369.69v-98.05q0-5.39-3.46-8.85t-8.85-3.46H329.95L279.69-780h517.74q25.79 0 44.18 18.39T860-717.43v474.9q0 8.87-2.76 17.21-2.75 8.34-7.68 15.45ZM414-474.87Zm155.85-14.98Zm-188.57-17.13H150.26v264.41q0 4.62 3.84 8.47 3.85 3.84 8.47 3.84h495.18L381.28-506.98ZM162.57-180q-25.79 0-44.18-18.39T100-242.57v-474.86q0-25.79 18.39-44.18T162.57-780H180l50.26 50.26h-67.69q-4.62 0-8.47 3.84-3.84 3.85-3.84 8.47v98.05h118.36L68.31-819.95q-7.44-7.22-7.63-17.7-.19-10.48 7.66-18.17 7.86-7.69 17.99-7.69 10.12 0 17.98 7.82l742.51 742.51q7.44 7.55 7.63 17.69.19 10.13-7.66 17.69-7.6 7.82-17.88 7.82-10.27 0-17.83-7.8L708-180H162.57Z"/></svg>