<svg xmlns="http://www.w3.org/2000/svg" height="40" viewBox="0 -960 960 960" width="40"><path d="M480.217-100.001q-68.755 0-131.871-23.539-63.115-23.538-115.192-67.026-9.301-7.644-10.56-19.192-1.26-11.548 6.514-19.28 7.867-7.732 18.43-7.308 10.564.423 19.615 7.371 15.308 13.496 32.433 24.46 17.126 10.964 35.287 19.618v-144.334h-92.308q-25.788 0-44.176-18.773-18.388-18.772-18.388-45.33v-243.973q0-59.077 41.038-100.884 41.039-41.808 98.961-41.808h112.563q13.391 0 22.337 8.946 8.945 8.945 8.945 22.336v166.795h253.59q25.788 0 44.176 18.965 18.388 18.964 18.388 45.137v124.486q0 26.558-18.388 45.33-18.388 18.773-44.176 18.773h-92.308v144.334q18.796-9.026 36.142-20.346 17.347-11.321 32.783-25.142 8.435-6.82 18.807-6.808 10.371.013 18.098 7.617 7.709 7.798 6.998 18.391-.71 10.594-9.109 17.799-52.462 44.102-116.232 68.743-63.769 24.642-132.397 24.642Zm-.102-50.255q24.065 0 47.804-3.667 23.74-3.667 46.954-10.898v-164.41H385.127v164.41q23.18 7.231 47.052 10.898t47.936 3.667Zm-237.55-229.23h474.87q5.385 0 8.847-3.654 3.462-3.655 3.462-10.194V-517.82q0-6.154-3.462-10-3.462-3.847-8.847-3.847H413.59v-198.077h-93.549q-37.503 0-63.644 26.882-26.141 26.881-26.141 65.555v243.973q0 6.539 3.462 10.194 3.462 3.654 8.847 3.654ZM413.59-531.667Z"/></svg>