<svg xmlns="http://www.w3.org/2000/svg" height="40" viewBox="0 -960 960 960" width="40"><path d="M326.154-294.873h67.692q12.891 0 22.086-9.195 9.195-9.195 9.195-22.086v-67.692q0-12.891-9.195-22.086-9.195-9.195-22.086-9.195h-67.692q-12.891 0-22.086 9.195-9.195 9.195-9.195 22.086v67.692q0 12.891 9.195 22.086 9.195 9.195 22.086 9.195Zm240 0h67.692q12.891 0 22.086-9.195 9.195-9.195 9.195-22.086v-67.692q0-12.891-9.195-22.086-9.195-9.195-22.086-9.195h-67.692q-12.891 0-22.086 9.195-9.195 9.195-9.195 22.086v67.692q0 12.891 9.195 22.086 9.195 9.195 22.086 9.195Zm-240-240h67.692q13.391 0 22.336-8.945 8.945-8.945 8.945-22.336v-67.692q0-13.391-8.945-22.336-8.945-8.945-22.336-8.945h-67.692q-13.391 0-22.336 8.945-8.945 8.945-8.945 22.336v67.692q0 13.391 8.945 22.336 8.945 8.945 22.336 8.945Zm240 0h67.692q13.391 0 22.336-8.945 8.945-8.945 8.945-22.336v-67.692q0-13.391-8.945-22.336-8.945-8.945-22.336-8.945h-67.692q-13.391 0-22.336 8.945-8.945 8.945-8.945 22.336v67.692q0 13.391 8.945 22.336 8.945 8.945 22.336 8.945ZM202.565-140.001q-25.788 0-44.176-18.388t-18.388-44.176v-554.87q0-25.788 18.388-44.176t44.176-18.388h554.87q25.788 0 44.176 18.388t18.388 44.176v554.87q0 25.788-18.388 44.176t-44.176 18.388h-554.87Zm0-50.255h554.87q4.616 0 8.462-3.847 3.847-3.846 3.847-8.462v-554.87q0-4.616-3.847-8.462-3.846-3.847-8.462-3.847h-554.87q-4.616 0-8.462 3.847-3.847 3.846-3.847 8.462v554.87q0 4.616 3.847 8.462 3.846 3.847 8.462 3.847Zm-12.309-579.488V-190.256-769.744Z"/></svg>