<svg xmlns="http://www.w3.org/2000/svg" height="40" viewBox="0 -960 960 960" width="40"><path d="M473.846-807.769 218.384-660.205 480-508.512l261.206-151.693-255.052-147.564q-3.077-1.667-6.154-1.667t-6.154 1.667ZM140.001-323.026v-313.948q0-16.665 8.125-31.031 8.125-14.367 23.157-23.173l277.435-160.026q8.154-4.743 15.45-6.551 7.296-1.807 15.743-1.807 8.448 0 16.332 1.807 7.885 1.808 15.039 6.551l277.435 160.026q15.032 8.806 23.157 23.173 8.125 14.366 8.125 31.031v148.257q0 10.679-7.263 17.903-7.263 7.224-18 7.224-10.736 0-17.864-7.224t-7.128-17.903V-619.18L511.359-469.206q-14.895 8.615-31.345 8.821-16.45.205-31.219-8.411L190.256-618.77v295.795q0 3.077 1.539 5.77 1.539 2.692 4.616 4.616L459.36-160.717q5.507 2.967 8.971 8.786 3.465 5.818 3.465 12.93 0 14.283-12.372 21.218-12.371 6.936-24.806.116L171.283-268.822q-15.032-8.806-23.157-23.173-8.125-14.366-8.125-31.031ZM724.855-25.002q-72.342 0-123.726-50.984-51.384-50.983-51.384-123.999 0-72.628 51.401-123.949 51.402-51.321 123.743-51.321t123.725 51.233q51.385 51.233 51.385 124.304 0 72.905-51.402 123.81-51.401 50.906-123.742 50.906ZM480-480.025Zm234.616 330.64-60.154-60.154q-4.821-4.564-10.5-4.756-5.679-.192-10.628 4.756-4.949 4.949-4.949 10.769 0 5.821 4.915 10.718l74.555 75q4.914 4.897 10.371 7.128 5.456 2.231 11.692 2.231t11.518-2.231q5.282-2.231 10.179-7.128l75-75q4.513-4.512 4.705-10.525.192-6.013-4.756-10.962-4.949-4.948-10.77-4.948-5.82 0-10.901 5.081l-59.765 60.021v-144.564q0-6.051-4.692-10.589-4.692-4.539-10.729-4.539-6.037 0-10.564 4.539-4.527 4.538-4.527 10.589v144.564Z"/></svg>