<svg xmlns="http://www.w3.org/2000/svg" height="40" viewBox="0 -960 960 960" width="40"><path d="M799.898-87.489 590.565-296.41h-231.59q-25.808 0-44.186-18.378t-18.378-44.186v-231.59L91.951-795.026q-7.488-6.898-7.552-17.436-.064-10.538 7.207-18.358 7.908-7.564 18.193-7.564t17.894 7.564l708.204 707.948q7.179 7.435 7.269 17.628.09 10.192-7.474 18.1-7.82 7.27-18.025 7.373-10.205.103-17.769-7.718ZM540.31-346.666 346.666-540.31v181.335q0 5.385 3.462 8.847 3.462 3.462 8.847 3.462H540.31Zm123.535-47.463-50.255-50.255v-156.898q0-5.128-3.59-8.718t-8.718-3.59H444.384l-50.255-50.255h207.179q25.598 0 44.068 18.469 18.469 18.47 18.469 44.068v207.179ZM323.73-765.128q-11.973 0-19.646-7.923-7.673-7.922-7.673-19.634 0-11.711 7.79-19.512 7.79-7.802 19.634-7.802 11.845 0 19.646 7.923t7.801 19.634q0 11.712-7.921 19.513-7.922 7.801-19.631 7.801Zm156.149 0q-11.712 0-19.513-7.923-7.801-7.922-7.801-19.634 0-11.711 7.922-19.512 7.923-7.802 19.634-7.802 11.712 0 19.513 7.923 7.801 7.923 7.801 19.634 0 11.712-7.922 19.513-7.923 7.801-19.634 7.801Zm156.414 0q-11.973 0-19.646-7.923-7.673-7.922-7.673-19.634 0-11.711 7.79-19.512 7.79-7.802 19.635-7.802 11.844 0 19.645 7.923t7.801 19.634q0 11.712-7.921 19.513-7.921 7.801-19.631 7.801Zm156.149 0q-11.712 0-19.513-7.923-7.801-7.922-7.801-19.634 0-11.711 7.923-19.512 7.922-7.802 19.634-7.802 11.711 0 19.512 7.923 7.802 7.923 7.802 19.634 0 11.712-7.923 19.513-7.923 7.801-19.634 7.801ZM167.315-608.974q-11.711 0-19.512-7.79-7.802-7.79-7.802-19.635 0-11.844 7.923-19.645t19.634-7.801q11.712 0 19.513 7.921 7.801 7.921 7.801 19.631 0 11.973-7.922 19.646-7.923 7.673-19.635 7.673Zm625.127 0q-11.712 0-19.513-7.79-7.801-7.79-7.801-19.635 0-11.844 7.923-19.645 7.922-7.801 19.634-7.801 11.711 0 19.512 7.921 7.802 7.921 7.802 19.631 0 11.973-7.923 19.646t-19.634 7.673ZM167.315-452.565q-11.711 0-19.512-7.922-7.802-7.923-7.802-19.634 0-11.712 7.923-19.513 7.923-7.801 19.634-7.801 11.712 0 19.513 7.922 7.801 7.923 7.801 19.634 0 11.712-7.922 19.513-7.923 7.801-19.635 7.801Zm625.127 0q-11.712 0-19.513-7.922-7.801-7.923-7.801-19.634 0-11.712 7.923-19.513 7.922-7.801 19.634-7.801 11.711 0 19.512 7.922 7.802 7.923 7.802 19.634 0 11.712-7.923 19.513-7.923 7.801-19.634 7.801ZM167.315-296.411q-11.711 0-19.512-7.79-7.802-7.79-7.802-19.634 0-11.845 7.923-19.646t19.634-7.801q11.712 0 19.513 7.921 7.801 7.922 7.801 19.631 0 11.973-7.922 19.646-7.923 7.673-19.635 7.673Zm625.127 0q-11.712 0-19.513-7.79-7.801-7.79-7.801-19.634 0-11.845 7.923-19.646 7.922-7.801 19.634-7.801 11.711 0 19.512 7.921 7.802 7.922 7.802 19.631 0 11.973-7.923 19.646t-19.634 7.673Zm-625.127 156.41q-11.711 0-19.512-7.923-7.802-7.923-7.802-19.634 0-11.712 7.923-19.513 7.923-7.801 19.634-7.801 11.712 0 19.513 7.922 7.801 7.923 7.801 19.635 0 11.711-7.922 19.512-7.923 7.802-19.635 7.802Zm156.415 0q-11.973 0-19.646-7.923t-7.673-19.634q0-11.712 7.79-19.513 7.79-7.801 19.634-7.801 11.845 0 19.646 7.922 7.801 7.923 7.801 19.635 0 11.711-7.921 19.512-7.922 7.802-19.631 7.802Zm156.149 0q-11.712 0-19.513-7.923-7.801-7.923-7.801-19.634 0-11.712 7.922-19.513 7.923-7.801 19.634-7.801 11.712 0 19.513 7.922 7.801 7.923 7.801 19.635 0 11.711-7.922 19.512-7.923 7.802-19.634 7.802Zm156.414 0q-11.973 0-19.646-7.923t-7.673-19.634q0-11.712 7.79-19.513 7.79-7.801 19.635-7.801 11.844 0 19.645 7.922 7.801 7.923 7.801 19.635 0 11.711-7.921 19.512-7.921 7.802-19.631 7.802Z"/></svg>