<svg xmlns="http://www.w3.org/2000/svg" viewBox="0 -960 960 960" width="32" height="32"><path d="M432.82-253.08H162.57q-25.79 0-44.18-18.39Q100-289.85 100-315.64v-441.79q0-25.79 18.39-44.18T162.57-820h634.86q25.79 0 44.18 18.39T860-757.43v441.79q0 25.79-18.39 44.17-18.39 18.39-44.18 18.39H527.18l75.04 75.46q1.32 1.31 4.55 11.46V-156q0 7.02-4.49 11.51T590.56-140H364.88q-4.95 0-8.3-3.39-3.35-3.4-3.35-8.29v-16.58q0-1.59 3.58-8.34l76.01-76.48ZM150.26-381.69h659.48v-375.74q0-4.62-3.84-8.47-3.85-3.84-8.47-3.84H162.57q-4.62 0-8.47 3.84-3.84 3.85-3.84 8.47v375.74Zm0 0v-388.05 388.05Z"/></svg>