<svg xmlns="http://www.w3.org/2000/svg" height="40" viewBox="0 -960 960 960" width="40"><path d="m480-244.001-86.693 86.692q-7.23 7.231-17.307 7.039-10.077-.193-17.307-7.423-7.231-7.231-7.231-17.5t7.231-17.499L445.001-279l-86.693-86.693q-7.23-7.231-7.038-17.5.192-10.269 7.423-17.499 7.23-7.231 17.499-7.231 10.269 0 17.5 7.231L480-313.999l86.693-86.693q7.23-7.231 17.499-7.231 10.269 0 17.5 7.231 7.23 7.23 7.23 17.499 0 10.269-7.23 17.5L514.999-279l86.693 86.692q7.23 7.231 7.23 17.308 0 10.076-7.23 17.307-7.231 7.23-17.5 7.23t-17.499-7.23L480-244.001ZM190.256-769.744v52.821q0 5.385 3.462 8.847 3.462 3.462 8.847 3.462h554.87q5.385 0 8.847-3.462 3.462-3.462 3.462-8.847v-52.821H190.256ZM301.23-654.359l18.821 57.052q1.538 3.846 4.615 5.961 3.078 2.116 6.924 2.116h296.82q3.846 0 6.924-2.116 3.077-2.115 4.615-5.961l18.821-57.052H301.23Zm30.36 115.384q-20 0-36.41-11.763-16.41-11.762-22.948-30.929l-24.488-72.692h-45.179q-25.705 0-44.134-18.43-18.43-18.429-18.43-44.134v-52.051q0-21.089 14.968-36.057 14.968-14.968 36.057-14.968h577.948q21.089 0 36.057 14.968 14.968 14.968 14.968 36.057v52.051q0 25.705-18.43 44.134-18.429 18.43-44.134 18.43h-45.179l-28.282 74.743q-7.109 17.885-23.02 29.263t-35.8 11.378H331.59ZM190.256-769.744v65.13-65.13Z"/></svg>