<svg xmlns="http://www.w3.org/2000/svg" viewBox="0 -960 960 960" width="32" height="32"><path d="m246.61-480 115.08 115.08q7.44 7.48 7.32 17.52-.11 10.04-7.48 17.92-7.85 7.88-17.93 8.13-10.09.25-17.91-7.57L196.54-458.08q-9.36-9.4-9.36-21.94 0-12.54 9.36-21.9l129.15-129.16q7.52-7.43 17.85-7.32 10.33.12 18.15 7.98 7.33 7.85 7.58 17.69.24 9.83-7.58 17.65L246.61-480Zm23.65 324.61v32.82q0 4.62 3.84 8.47 3.85 3.84 8.47 3.84h394.86q4.62 0 8.47-3.84 3.84-3.85 3.84-8.47v-32.82H270.26Zm0-649.22h419.48v-32.82q0-4.62-3.84-8.47-3.85-3.84-8.47-3.84H282.57q-4.62 0-8.47 3.84-3.84 3.85-3.84 8.47v32.82ZM713.39-480 598.31-595.08q-7.44-7.48-7.32-17.52.11-10.04 7.48-17.92 7.85-7.88 17.93-8.13 10.09-.25 17.91 7.57l129.15 129.16q9.36 9.4 9.36 21.94 0 12.54-9.36 21.9L634.31-328.92q-7.52 7.43-17.85 7.32-10.33-.12-18.15-7.98-7.33-7.85-7.58-17.69-.24-9.83 7.58-17.65L713.39-480ZM270.26-804.61V-849.74v45.13Zm0 649.22V-110.26v-45.13ZM282.57-60q-25.79 0-44.18-18.39T220-122.57v-119.58q0-10.7 7.25-17.92 7.25-7.21 18-7.21t17.88 7.21q7.13 7.22 7.13 17.92v36.51h419.48v-36.51q0-10.7 7.25-17.92 7.25-7.21 18-7.21t17.88 7.21q7.13 7.22 7.13 17.92v119.58q0 25.79-18.39 44.18T677.43-60H282.57Zm0-840h394.86q25.79 0 44.18 18.39T740-837.43v119.58q0 10.7-7.25 17.92-7.25 7.21-18 7.21t-17.88-7.21q-7.13-7.22-7.13-17.92v-36.51H270.26v36.51q0 10.7-7.25 17.92-7.25 7.21-18 7.21t-17.88-7.21q-7.13-7.22-7.13-17.92v-119.58q0-25.79 18.39-44.18T282.57-900Z"/></svg>