<svg xmlns="http://www.w3.org/2000/svg" viewBox="0 -960 960 960" width="32" height="32"><path d="m170.77-520 93.08-93.08q7.23-7.23 7.42-17.5.19-10.27-7.42-17.88-7.62-7.62-17.7-7.62-10.07 0-17.69 7.62L121.92-541.92q-9.35 9.4-9.35 21.94 0 12.54 9.35 21.9l106.54 106.54q7.23 7.23 17.5 7.42 10.27.2 17.89-7.42 7.61-7.61 7.61-17.69 0-10.08-7.61-17.69L170.77-520Zm618.46 0-93.08 93.08q-7.23 7.23-7.42 17.5-.19 10.27 7.42 17.88 7.62 7.62 17.7 7.62 10.07 0 17.69-7.62l106.54-106.54q9.35-9.4 9.35-21.94 0-12.54-9.35-21.9L731.54-648.46q-7.23-7.23-17.5-7.42-10.27-.2-17.89 7.42-7.61 7.61-7.61 17.69 0 10.08 7.61 17.69L789.23-520ZM100-691.49v-65.94q0-25.44 18.39-44Q136.78-820 162.57-820h634.86q25.44 0 44 18.57 18.57 18.56 18.57 44v65.94q0 10.7-7.25 17.92-7.25 7.21-18 7.21t-17.88-7.21q-7.13-7.22-7.13-17.92v-65.94q0-5.39-3.46-8.85t-8.85-3.46H162.57q-5.39 0-8.85 3.46t-3.46 8.85v65.94q0 10.7-7.25 17.92-7.25 7.21-18 7.21t-17.88-7.21q-7.13-7.22-7.13-17.92ZM376.16-140q-13.4 0-22.34-8.95-8.95-8.94-8.95-22.33V-220h-182.3q-25.79 0-44.18-18.57-18.39-18.56-18.39-44v-68.71q0-10.94 7.25-18.06 7.25-7.12 18-7.12t17.88 7.34q7.13 7.34 7.13 17.79v68.76q0 5.39 3.46 8.85t8.85 3.46h634.86q5.39 0 8.85-3.46t3.46-8.85v-68.71q0-10.94 7.25-18.06 7.25-7.12 18-7.12t17.88 7.34q7.13 7.34 7.13 17.79v68.76q0 25.44-18.57 44-18.56 18.57-44 18.57h-182.3v48.72q0 13.39-8.95 22.33-8.94 8.95-22.34 8.95H376.16ZM480-521.49Z"/></svg>