<svg xmlns="http://www.w3.org/2000/svg" height="40" viewBox="0 -960 960 960" width="40"><path d="M620-534.873q-18.871 0-31.999-13.128T574.873-580q0-12.025 4.692-22.692 4.692-10.666 11.563-20.384 6.872-9.718 14.821-18.128 7.948-8.41 14.051-16.231 6.103 7.821 14.051 16.231 7.949 8.41 14.821 18.128 6.871 9.718 11.563 20.384 4.692 10.667 4.692 22.692 0 18.871-13.128 31.999T620-534.873Zm164.872-125.948q-18.872 0-32-13t-13.128-32.128q0-11.769 4.693-22.435 4.692-10.666 11.563-20.384 6.872-9.718 14.82-18.256 7.949-8.539 14.052-16.103 6.103 7.564 14.051 16.103 7.949 8.538 14.82 18.256 6.872 9.718 11.564 20.384t4.692 22.435q0 19.128-13.128 32.128t-31.999 13Zm0 250.82q-18.872 0-32-13.128t-13.128-31.999q0-12.026 4.693-22.692 4.692-10.666 11.563-20.384 6.872-9.718 14.82-18.128 7.949-8.41 14.052-16.231 6.103 7.821 14.051 16.231 7.949 8.41 14.82 18.128 6.872 9.718 11.564 20.384t4.692 22.692q0 18.871-13.128 31.999t-31.999 13.128ZM351.436-140.412q-71.538 0-121.435-49.897-49.897-49.897-49.897-121.435 0-44.922 22.487-84.332 22.488-39.411 62.385-64.487v-272.976q0-36.23 25.243-61.345 25.243-25.115 61.217-25.115 35.974 0 61.089 25.115 25.115 25.115 25.115 61.345v272.976q39.897 25.076 62.384 64.487 22.487 39.41 22.487 84.332 0 71.538-49.768 121.435-49.769 49.897-121.307 49.897ZM230.359-311.744h241.898q0-34.666-17.411-64.192-17.41-29.526-48.077-47.346l-19.384-11.436v-298.821q0-15.512-10.346-25.858-10.347-10.347-25.603-10.347-15.513 0-25.859 10.347-10.346 10.346-10.346 25.858v298.821l-19.128 11.436q-30.923 17.82-48.333 47.551-17.411 29.731-17.411 63.987Z"/></svg>