<svg xmlns="http://www.w3.org/2000/svg" height="40" viewBox="0 -960 960 960" width="40"><path d="M180.36-130.77q-9.292 0-18.197-3.881t-15.1-10.091l-20.359-20.033q-7.318-7.251-3.638-17.135 3.681-9.885 13.986-9.885h685.126q10.306 0 13.986 9.885 3.681 9.884-3.678 17.243l-20.062 19.925q-6.374 6.267-15.304 10.119-8.93 3.853-18.249 3.853H180.36Zm-40.359-115.025q5.975-16.051 16.577-29.359 10.603-13.308 23.423-24.692v-320.206h-18.462q-9.333 0-15.435-6.031-6.103-6.032-6.103-15.257 0-9.224 6.103-15.378 6.102-6.154 15.435-6.154h18.462v-35.743h-18.462q-9.333 0-15.435-6.083-6.103-6.082-6.103-15.384t6.103-15.328q6.102-6.025 15.435-6.025h18.462v-35.744h-18.462q-9.333 0-15.435-6.119-6.103-6.12-6.103-15.479 0-9.247 6.103-15.234 6.102-5.988 15.435-5.988h247.179q25.609 0 44.086 18.478 18.478 18.477 18.478 44.086v16h327.435q9.222 0 15.252 6.119 6.03 6.12 6.03 15.479 0 9.247-6.03 15.234-6.03 5.988-15.252 5.988H471.282v15.874q0 26.029-18.478 44.359-18.477 18.33-44.086 18.33h-83.333v271.745q22.001 2.769 42.142 10.974 20.141 8.206 38.167 22.514 13.717-64.59 66.102-103.975 52.384-39.384 119.153-39.384 79.351 0 134.2 56.216 54.85 56.217 54.85 135.346v20.821H140.001ZM455.18-296.05h269.333q-7.076-49.283-44.987-80.578-37.91-31.295-88.577-31.295-51.173 0-89.933 31.013-38.76 31.013-45.836 80.86ZM325.385-741.435h100.514v-23.435q0-5.385-3.462-8.847-3.462-3.462-8.847-3.462h-88.205v35.744Zm0 78.563h88.205q5.385 0 8.847-3.461 3.462-3.462 3.462-8.847v-23.435H325.385v35.743Zm-102.564-78.563h59.745v-35.744h-59.745v35.744Zm0 78.563h59.745v-35.743h-59.745v35.743Zm0 333.257q13.513-8.436 28.513-13.179 15.001-4.744 31.232-6.163v-271.095h-59.745v290.437ZM590.18-296.05Z"/></svg>