<svg xmlns="http://www.w3.org/2000/svg" height="40" viewBox="0 -960 960 960" width="40"><path d="M380.256-494.873h181.386v43.205q0 10.128 9.115 13.846t16.09-3.256l59.691-59.692q8.205-8.468 8.205-19.759t-8.359-19.599l-59.537-59.46q-6.975-6.975-16.09-3.481-9.115 3.493-9.115 13.942v44h-200.36q-13.294 0-22.288 8.993-8.993 8.994-8.993 22.288v118.718q0 10.679 7.263 17.903 7.263 7.224 17.999 7.224 10.737 0 17.865-7.224 7.128-7.224 7.128-17.903v-99.745Zm99.795 390.974q-12.025 0-23.678-4.475-11.652-4.474-20.629-13.423L121.797-435.744q-8.949-8.932-13.423-20.556-4.475-11.624-4.475-23.649t4.475-23.678q4.474-11.652 13.423-20.629l313.947-313.947q8.932-8.949 20.556-13.423 11.624-4.475 23.649-4.475t23.678 4.475q11.652 4.474 20.629 13.423l313.947 313.947q8.949 8.932 13.423 20.556 4.475 11.624 4.475 23.649t-4.475 23.678q-4.474 11.652-13.423 20.629L524.256-121.797q-8.932 8.949-20.556 13.423-11.624 4.475-23.649 4.475Zm-166-210.152 157.487 157.23q3.462 3.462 8.462 3.462t8.462-3.462l314.717-314.717q3.462-3.462 3.462-8.462t-3.462-8.462L488.462-803.179Q485-806.641 480-806.641t-8.462 3.462L156.821-488.462Q153.359-485 153.359-480t3.462 8.462l157.23 157.487ZM480-480Z"/></svg>