<svg xmlns="http://www.w3.org/2000/svg" height="40" viewBox="0 -960 960 960" width="40"><path d="M480-710.331q41.975-52.077 98.183-80.872Q634.391-819.999 696-819.999q101.666 0 172.832 71.167Q939.999-677.666 939.999-576q0 33.241-8.219 64.942-8.218 31.7-22.295 61.444-4.641 10.872-14.615 15.692-9.974 4.821-20.718.633-9.589-3.556-14.089-12.402t-.013-17.64q13.616-26.514 21.655-54.847 8.039-28.334 8.039-57.822 0-81.041-56.352-137.392Q777.041-769.744 696-769.744q-57.244 0-104.829 31.526-47.585 31.526-85.3 74.936-10.23 12.103-25.704 12.103-15.475 0-26.038-12.103-38.052-43.154-85.545-74.808Q321.091-769.744 264-769.744q-81.041 0-137.392 56.352Q70.256-657.041 70.256-576q0 29.392 7.847 57.966 7.846 28.574 21.462 55.087 3.897 8.59-.346 17.128-4.243 8.538-13.303 12.521-10.401 4.145-20.388-.662-9.987-4.808-15.013-15.679-14.077-29.744-22.295-61.596-8.218-31.851-8.218-64.765 0-101.666 71.166-172.832Q162.334-819.999 264-819.999q61.846 0 117.936 28.796 56.089 28.795 98.064 80.872ZM49.745-99.232q-12.391 0-21.067-8.676Q20-116.585 20-128.975v-14.154q0-27.057 20.705-47.631 20.705-20.573 56.936-30.522 24.846-7.615 45.423-8.013 20.577-.397 44.218 1.603 7.703.893 11.633 7.126 3.931 6.233 1.542 13.536-4.309 12.099-6.229 24.825-1.92 12.727-1.92 26.435v25.256q0 13.301-8.991 22.292-8.99 8.99-22.291 8.99H49.745ZM260-130.514v-23.717q0-57.308 60.988-91.923 60.987-34.615 159.117-34.615 99.047 0 159.47 34.615t60.423 91.923v23.717q0 13.301-8.991 22.292-8.99 8.99-22.291 8.99H291.442q-13.556 0-22.498-8.99-8.943-8.991-8.943-22.292Zm538.972 31.282q-13.301 0-22.291-8.99-8.991-8.991-8.991-22.292v-25.256q0-13.708-1.92-26.435-1.92-12.726-5.972-24.825-2.646-7.303 1.285-13.536 3.93-6.233 11.633-7.126 23.641-2 44.218-1.603 20.577.398 45.423 8.013 36.231 9.949 56.936 30.522 20.705 20.574 20.705 47.631v14.154q0 12.39-8.677 21.067-8.676 8.676-21.067 8.676H798.973ZM479.82-230.514q-73.436 0-120.679 20.872-47.244 20.872-48.116 53.36v6.795H649.18v-7.206q-1.077-32.077-47.821-52.949-46.743-20.872-121.539-20.872Zm-314.595-32.947q-26.054 0-44.677-18.665t-18.623-44.924q0-26.308 18.664-44.756 18.665-18.448 44.925-18.448 26.307 0 44.948 18.448 18.64 18.448 18.64 45.044 0 26.054-18.64 44.678-18.641 18.623-45.237 18.623Zm629.358 0q-25.814 0-44.557-18.665-18.744-18.665-18.744-44.924 0-26.308 18.785-44.756t44.879-18.448q26.617 0 45.065 18.448 18.449 18.448 18.449 45.044 0 26.054-18.4 44.678-18.401 18.623-45.477 18.623Zm-314.447-47.308q-43.212 0-73.597-30.288-30.384-30.288-30.384-73.557 0-44.134 30.288-73.989 30.288-29.855 73.557-29.855 44.134 0 73.99 29.816 29.855 29.816 29.855 73.893 0 43.212-29.816 73.596-29.817 30.384-73.893 30.384Zm.098-157.435q-22.439 0-38.132 15.347-15.692 15.346-15.692 38.01 0 22.439 15.593 38.131 15.593 15.693 38.423 15.693 22.574 0 37.869-15.593 15.295-15.593 15.295-38.424 0-22.574-15.346-37.869-15.347-15.295-38.01-15.295Zm-.234 53.59Zm.205 265.127Z"/></svg>