<svg xmlns="http://www.w3.org/2000/svg" height="40" viewBox="0 -960 960 960" width="40"><path d="m603.332-456.36-50.254-50.255h92.794q10.076 0 17.102 7.347 7.025 7.347 7.025 17.999 0 10.653-7.224 17.781-7.224 7.128-17.903 7.128h-41.54Zm-171.484-50.255v50.255h-116.72q-10.679 0-17.903-7.263-7.224-7.263-7.224-17.999 0-10.737 7.224-17.865 7.224-7.128 17.903-7.128h116.72ZM480-100.001q-79.67 0-149.02-29.387-69.35-29.386-120.778-80.814-51.428-51.428-80.814-120.778-29.387-69.35-29.387-149.02 0-66.143 20.283-124.315 20.282-58.172 57.128-106.48L69.129-820.334q-7.435-7.224-7.435-17.556t7.47-17.802q7.6-7.82 18.064-7.82 10.465 0 17.644 7.82l752.282 751.641q7.436 7.583 7.436 18.01 0 10.425-7.855 18.117-7.471 7.308-17.791 7.308-10.319 0-18.173-7.436l-109.976-109.36q-48.308 36.846-106.48 57.128Q546.143-100.001 480-100.001Zm0-50.255q55.074 0 104.217-16.77 49.143-16.769 90.425-46.539L213.565-674.642q-29.77 41.282-46.539 90.425-16.77 49.143-16.77 104.217 0 138.692 95.526 234.218Q341.308-150.256 480-150.256Zm-35.794-293.95Zm111.82-111.82ZM294.154-811.562q42.666-24.795 89.731-36.616 47.064-11.821 96.115-11.821 75.769 0 145.307 28.654 69.538 28.654 123.461 82.577t82.577 123.461Q859.999-555.769 859.999-480q0 48.667-11.68 94.808-11.68 46.141-34.5 88.807-4.933 9.257-15.12 11.654-10.187 2.397-19.285-3.269-9.099-5.667-11.346-16-2.248-10.333 2.803-19.794 19.103-36.549 28.988-75.852 9.885-39.302 9.885-80.354 0-138.08-95.832-233.912T480-809.744q-41.052 0-80.688 9.885t-75.928 29.398q-9.461 5.051-19.384 3.077-9.923-1.975-16.384-10.487-6.462-8.513-4.59-18.576 1.872-10.064 11.128-15.115Z"/></svg>