<svg xmlns="http://www.w3.org/2000/svg" height="40" viewBox="0 -960 960 960" width="40"><path d="M820.822-68.052 708.001-180H162.565q-25.705 0-44.134-18.43-18.43-18.429-18.43-44.134v-474.87q0-25.705 18.43-44.134 18.429-18.43 44.134-18.43h17.436v71.998L68.309-819.95q-7.436-7.223-7.32-17.701.115-10.477 7.97-18.041 7.856-7.82 18-7.82t17.964 7.82l751.642 752.257Q864-96 864.193-85.808q.192 10.192-7.664 17.756-7.599 7.82-17.871 7.82-10.272 0-17.836-7.82ZM162.565-230.256h495.181l-417.334-417.59h-90.156v405.281q0 5.385 3.462 8.847 3.462 3.462 8.847 3.462Zm426.588-240.283-36.614-36.614 35.923-35.923q7.523-7.436 18.158-7.628 10.636-.193 18.456 7.697 7.821 7.889 7.821 18.307t-7.821 18.238l-35.923 35.923Zm-49.846 49.846-79.384 79.384q-9.359 9.359-21.923 9.359-12.564 0-21.923-9.359l-81.153-81.153q-7.436-7.523-7.628-18.158-.193-10.636 7.697-18.456 7.889-7.821 18.307-7.821t18.238 7.821L438-392.614l64.693-64.693 36.614 36.614Zm320.692-296.742v467.487q0 12.435-7.815 18.781-7.814 6.346-17.192 6.346-9.377 0-17.313-6.57-7.935-6.571-7.935-18.762v-397.693H437.718q-12.861 0-24.443-5.077-11.583-5.077-20.198-13.436l-60.179-60.435q-7.359-8.029-8.987-16.976-1.628-8.947 1.782-17.306 3.154-8.359 10.833-13.641 7.68-5.282 18.244-5.282h442.665q25.705 0 44.134 18.43 18.43 18.429 18.43 44.134Z"/></svg>