<svg xmlns="http://www.w3.org/2000/svg" height="40" viewBox="0 -960 960 960" width="40"><path d="M462.488-392.975 208.18-422.642q-20.102-2.205-26.217-21.641-6.116-19.435 8.833-32.999l415.179-377.307q3.436-2.769 7.551-4.487 4.115-1.717 11.936-1.717 12.82 0 19.922 11.051 7.103 11.051.103 22.384L496.358-566.64l255.077 29.666q20.102 2.205 26.41 21.449 6.308 19.243-8.641 32.807L354.025-105.027q-3.179 2.769-7.423 4.295-4.243 1.525-12.064 1.525-12.82 0-19.537-10.922-6.718-10.923-.103-22.384l147.59-260.462ZM437.279-253.51l268.595-237.824-289.719-33.923 107.13-182.054-269.569 238.876 289.129 34.461L437.279-253.51ZM480-480.385Z"/></svg>