<svg xmlns="http://www.w3.org/2000/svg" height="40" viewBox="0 -960 960 960" width="40"><path d="M297.694-406.154v129.743q0 13.391 8.945 22.337 8.945 8.945 22.336 8.945h37.435q13.391 0 22.337-8.945 8.945-8.946 8.945-22.337v-129.743h8.718q12.847-1.487 22.064-9.705 9.218-8.218 9.218-21.577v-75.129q0-29.153-20.423-49.576-20.423-20.423-49.576-20.423h-40q-29.154 0-49.577 20.423-20.422 20.423-20.422 49.576v75.129q0 13.359 9.217 21.577 9.218 8.218 22.064 9.705h8.719Zm49.941-211.897q20.34 0 34.763-14.365 14.423-14.365 14.423-34.705 0-20.34-14.365-34.763-14.366-14.423-34.705-14.423-20.34 0-34.763 14.365-14.423 14.366-14.423 34.705 0 20.34 14.365 34.763 14.365 14.423 34.705 14.423ZM555-534.873h117.435q8.103 0 11.705-6.448 3.602-6.449-.449-13.064l-59.23-94.563q-3.681-6.205-10.558-6.205t-10.929 6.205l-59.23 94.563q-4.051 6.615-.449 13.064 3.602 6.448 11.705 6.448Zm69.461 223.821 59.23-94.563q4.051-6.615.449-13.064-3.602-6.448-11.705-6.448H555q-8.103 0-11.705 6.448-3.602 6.449.449 13.064l59.23 94.563q3.682 6.205 10.559 6.205 6.877 0 10.928-6.205ZM202.565-140.001q-25.788 0-44.176-18.388t-18.388-44.176v-554.87q0-25.436 18.388-44t44.176-18.564h554.87q25.436 0 44 18.564t18.564 44v554.87q0 25.788-18.564 44.176t-44 18.388h-554.87Zm0-50.255h554.87q5.385 0 8.847-3.462 3.462-3.462 3.462-8.847v-554.87q0-5.385-3.462-8.847-3.462-3.462-8.847-3.462h-554.87q-5.385 0-8.847 3.462-3.462 3.462-3.462 8.847v554.87q0 5.385 3.462 8.847 3.462 3.462 8.847 3.462Zm-12.309 0V-769.744-190.256Z"/></svg>