<svg xmlns="http://www.w3.org/2000/svg" height="40" viewBox="0 -960 960 960" width="40"><path d="M384.489-436.565V-320q0 10.698 7.249 17.913 7.25 7.214 18 7.214t17.878-7.214q7.128-7.215 7.128-17.913v-116.565l108.437 62.308q9.051 5 18.892 2.426 9.842-2.574 14.731-11.808 5.145-8.72 2.414-18.886-2.731-10.167-11.525-15.167L459.871-480l107.822-62.308q8.794-5 11.525-15.038t-2.414-19.272q-4.992-8.954-14.782-11.539-9.79-2.586-18.841 2.414l-108.437 62.308V-640q0-10.698-7.25-17.913-7.249-7.214-17.999-7.214t-17.878 7.214q-7.128 7.215-7.128 17.913v116.565l-107.796-62.308q-9.308-5-19.098-2.414-9.79 2.585-14.782 11.539-5.145 9.234-2.548 19.225 2.597 9.991 11.916 15.085L359.361-480l-107.18 62.308q-9.319 5.094-11.916 15.085-2.597 9.991 2.548 18.968 4.889 9.234 14.731 11.808 9.841 2.574 19.149-2.426l107.796-62.308ZM172.181-180.001q-25.788 0-44.176-18.388-18.387-18.388-18.387-44.176v-474.87q0-25.788 18.387-44.176 18.388-18.388 44.176-18.388h474.87q25.788 0 44.176 18.388t18.388 44.176v200l113.639-113.64q7.359-7.358 17.244-3.641 9.884 3.718 9.884 14.205v281.022q0 10.487-9.884 14.205-9.885 3.717-17.244-3.641L709.615-442.822v200.257q0 25.788-18.388 44.176t-44.176 18.388h-474.87Zm0-50.255h474.87q5.385 0 8.847-3.462 3.462-3.462 3.462-8.847v-474.87q0-5.385-3.462-8.847-3.462-3.462-8.847-3.462h-474.87q-5.385 0-8.847 3.462-3.462 3.462-3.462 8.847v474.87q0 5.385 3.462 8.847 3.462 3.462 8.847 3.462Zm-12.309 0v-499.488 499.488Z"/></svg>