<svg xmlns="http://www.w3.org/2000/svg" height="40" viewBox="0 -960 960 960" width="40"><path d="M480-93.872q79.872-75.461 124.808-144.013Q649.744-306.436 649.744-354q0-72.795-49.141-124.269Q551.462-529.744 480-529.744q-71.462 0-120.603 51.475Q310.256-426.795 310.256-354q0 47.564 44.936 116.115Q400.128-169.333 480-93.872Zm-.032-486.127q92.57 0 156.3 66.146Q699.999-447.707 699.999-354q0 37.527-16.154 76.635-16.154 39.108-42.513 77.223-26.359 38.115-60.141 74.782-33.781 36.666-69.525 70.204-6.948 6.154-14.951 9.116Q488.711-43.08 480-43.08t-16.715-2.961q-8.003-2.962-14.951-9.116Q412.206-88.822 378.296-126q-33.91-37.18-60.218-75.54-26.308-38.361-42.193-77.167-15.884-38.805-15.884-75.292 0-93.707 63.699-159.853 63.699-66.146 156.268-66.146Zm.123 267.434q19.678 0 33.511-13.923 13.833-13.924 13.833-33.603 0-19.678-13.923-33.511-13.924-13.833-33.603-13.833-19.678 0-33.511 13.923-13.833 13.924-13.833 33.603 0 19.678 13.923 33.511 13.924 13.833 33.603 13.833Zm.386-414.615q-34.298 0-66.247 10.052-31.948 10.051-59.307 29.436-8.257 6.282-18.923 5.987-10.666-.295-17.83-7.459-7.503-7.502-7.331-17.356.171-9.853 8.469-16.12 34.051-26.538 75.398-40.666 41.347-14.129 85.769-14.129 44.422 0 85.704 14.129 41.282 14.128 75.59 40.666 8.042 6.359 8.213 16.359.171 9.999-7.265 17.435-7.102 7.102-17.64 7.269-10.538.167-18.923-6.115-27.615-19.385-59.498-29.436-31.882-10.052-66.179-10.052Zm-.067-160q-65.436 0-126.051 21.462-60.616 21.461-110.847 62.641-8.435 7.205-19.704 7.833-11.269.628-19.09-6.903-7.563-7.237-6.115-17.929 1.449-10.692 9.475-17.897 57.461-48.026 127.243-73.744 69.782-25.718 145.282-25.718 75.499 0 144.884 25.577 69.384 25.577 127.23 73.449 9.103 7.615 10.359 18.487 1.257 10.871-6.391 18.691-7.531 7.821-18.595 7.09-11.064-.731-20.166-7.936-50.231-41.18-111.026-63.141-60.795-21.962-126.488-21.962ZM480-360Z"/></svg>