<svg xmlns="http://www.w3.org/2000/svg" height="40" viewBox="0 -960 960 960" width="40"><path d="M594.871-234.105q-10.705 0-17.916-7.245t-7.211-17.999q0-10.755 7.211-17.883 7.211-7.128 17.916-7.128h240q10.705 0 17.916 7.245 7.212 7.245 7.212 18 0 10.754-7.212 17.882-7.211 7.128-17.916 7.128h-240Zm-134.332 133.95q-71.436 0-135.192-30.359t-114.115-80.718q-53.923-53.923-82.577-123.461Q100.001-404.231 100.001-480q0-78.769 29.962-148.115 29.961-69.346 81.269-120.653 51.307-51.308 120.653-81.269Q401.231-859.999 480-859.999q151.307 0 260.038 102.205 108.73 102.205 119.191 251.077.564 10.82-6.769 18.769Q845.127-480 834.051-480q-10.462 0-17.923-7.179-7.461-7.18-8.025-17.641-3.026-35.128-12.129-68.385-9.102-33.257-26.537-64.18L413.768-281.847q18.388 23.877 39.656 43.811 21.268 19.934 46.602 36.37 15.435 10.358 20.538 27.615 5.102 17.256-.897 34.983-6.641 20.016-23.282 29.464-16.641 9.449-35.846 9.449Zm-74.129-224.87L741.821-680.82q-14.41-18.154-30.731-34.039-16.321-15.885-34.68-29.962L352.23-420.693q5.052 25.872 13.526 49.45 8.475 23.577 20.654 46.218Zm-39-161.512 284.975-285.642q-12.846-6.795-25.513-12.449-12.667-5.654-26.693-9.885-101.513 31.026-166.321 115.526-64.808 84.501-66.448 192.45Zm-197.154 6.589q0 133.359 91.68 228.653 91.68 95.295 224.68 100.68 1.924 0 3.27-1.154t2.115-3.077q.513-1.924-.128-4.039-.641-2.116-2.949-3.654-78.641-51.256-125.384-134.166Q296.796-379.616 296.796-480q0-106.411 53.103-192.847t139.437-135.384q-4.231-.513-8.462-.833-4.231-.321-8.462-.321Q337.693-806.308 243.975-711q-93.719 95.307-93.719 231.052Zm146.54-.052Z"/></svg>