<svg xmlns="http://www.w3.org/2000/svg" viewBox="0 -960 960 960" width="32" height="32"><path d="M202.57-140q-25.79 0-44.18-18.39T140-202.57V-344.1q0-10.7 7.25-17.92 7.25-7.21 18-7.21t17.88 7.21q7.13 7.22 7.13 17.92v141.53q0 4.62 3.84 8.47 3.85 3.84 8.47 3.84h554.86q4.62 0 8.47-3.84 3.84-3.85 3.84-8.47v-554.86q0-4.62-3.84-8.47-3.85-3.84-8.47-3.84H202.57q-4.62 0-8.47 3.84-3.84 3.85-3.84 8.47v141.53q0 10.7-7.25 17.92-7.25 7.21-18 7.21t-17.88-7.21Q140-605.2 140-615.9v-141.53q0-25.79 18.39-44.18T202.57-820h554.86q25.79 0 44.18 18.39T820-757.43v554.86q0 25.79-18.39 44.18T757.43-140H202.57Zm297.02-314.87H165.13q-10.7 0-17.91-7.25-7.22-7.25-7.22-18t7.22-17.88q7.21-7.13 17.91-7.13h334.46l-94.82-94.82q-7.18-7.18-7.05-17.8.12-10.62 7.46-18.42 7.82-7.8 18.56-7.78 10.73.03 18.52 7.59l134.47 134.48q4.91 4.91 7.01 10.31 2.11 5.41 2.11 11.69 0 6.29-2.11 11.57-2.1 5.28-7 10.18l-134.89 134.9q-7.7 7.43-18.27 7.32-10.58-.12-18.42-7.94-7.34-7.82-7.44-18.43-.1-10.62 7.72-18.44l94.15-94.15Z"/></svg>