<svg xmlns="http://www.w3.org/2000/svg" viewBox="0 -960 960 960" width="32" height="32"><path d="M423.23-340.26v-112.72h138.26q10.7 0 17.91-7.24 7.21-7.25 7.21-18t-7.21-17.88q-7.21-7.13-17.91-7.13H423.23v-113.13h138.26q10.7 0 17.91-7.25 7.21-7.25 7.21-18t-7.21-17.88q-7.21-7.12-17.91-7.12H398.1q-10.7 0-17.91 7.21-7.21 7.21-7.21 17.91v326.36q0 10.7 7.21 17.91Q387.4-290 398.1-290h163.39q10.7 0 17.91-7.25 7.21-7.25 7.21-18t-7.21-17.88q-7.21-7.13-17.91-7.13H423.23ZM202.57-140q-25.79 0-44.18-18.39T140-202.57v-554.86q0-25.79 18.39-44.18T202.57-820h554.86q25.79 0 44.18 18.39T820-757.43v554.86q0 25.79-18.39 44.18T757.43-140H202.57Zm0-50.26h554.86q4.62 0 8.47-3.84 3.84-3.85 3.84-8.47v-554.86q0-4.62-3.84-8.47-3.85-3.84-8.47-3.84H202.57q-4.62 0-8.47 3.84-3.84 3.85-3.84 8.47v554.86q0 4.62 3.84 8.47 3.85 3.84 8.47 3.84Zm-12.31-579.48v579.48-579.48Z"/></svg>