<svg xmlns="http://www.w3.org/2000/svg" height="40" viewBox="0 -960 960 960" width="40"><path d="M776.306-301.053 551.641-453.872q-7.153-4.949-10.333-11.667-3.179-6.717-3.179-14.461 0-7.744 3.179-14.461 3.18-6.718 10.333-11.667l224.665-152.819q3.948-3.205 8.359-4.41 4.41-1.205 9.153-1.205 12.564 0 21.923 8.359 9.359 8.358 9.359 22.922v306.562q0 14.564-9.359 22.922-9.359 8.359-21.923 8.359-4.743 0-9.153-1.205-4.411-1.205-8.359-4.41Zm-378.768 0L173.13-453.872q-7.41-4.949-10.589-11.667-3.18-6.717-3.18-14.461 0-7.744 3.18-14.461 3.179-6.718 10.589-11.667l224.408-152.819q3.949-3.205 8.359-4.41t9.41-1.205q12.564 0 21.923 8.359 9.359 8.358 9.359 22.922v306.562q0 14.564-9.359 22.922-9.359 8.359-21.923 8.359-5 0-9.41-1.205t-8.359-4.41ZM396.334-480Zm378.511 0ZM396.334-363.076V-597.18L223.666-480l172.668 116.924Zm378.511 0V-597.18L602.434-480l172.411 116.924Z"/></svg>