<svg xmlns="http://www.w3.org/2000/svg" height="40" viewBox="0 -960 960 960" width="40"><path d="M360-220.001q-108.538 0-184.268-75.731-75.731-75.73-75.731-184.268t75.731-184.268q75.73-75.731 184.268-75.731t184.268 75.731q75.731 75.73 75.731 184.268t-75.731 184.268Q468.538-220.001 360-220.001ZM360-480Zm314.819 247.101q-13.051 3.949-22.653-3.5-9.602-7.448-9.602-21.561 0-7.293 5.065-13.48t12.191-8.303q66.513-18.846 108.218-74.924 41.706-56.076 41.706-126.82T768.075-608.14q-41.669-55.909-108.255-74.424-7.126-2.154-12.191-8.628t-5.065-14.09q0-14.025 9.628-21.178 9.628-7.154 22.422-2.949 82.051 23.666 133.718 92.063 51.667 68.398 51.667 155.987t-51.667 155.884q-51.667 68.295-133.513 92.576Zm-314.853-37.357q87.496 0 148.637-61.107 61.141-61.107 61.141-148.603 0-87.496-61.107-148.637-61.107-61.141-148.603-61.141-87.496 0-148.637 61.107-61.141 61.107-61.141 148.603 0 87.496 61.107 148.637 61.107 61.141 148.603 61.141Z"/></svg>