<svg xmlns="http://www.w3.org/2000/svg" height="40" viewBox="0 -960 960 960" width="40"><path d="M184.334-364.667h121.718q19.948 0 34.461-14.513 14.512-14.513 14.512-34.461v-132.718q0-19.948-14.512-34.461-14.513-14.513-34.461-14.513H184.334q-6.205 0-10.859 4.731t-4.654 11.038v199.128q0 6.307 4.654 11.038t10.859 4.731Zm27.307-42.82v-145.026h94.411q2.307 0 4.231 1.923 1.923 1.923 1.923 4.231v132.718q0 2.308-1.923 4.231-1.924 1.923-4.231 1.923h-94.411Zm268-15.691-49.513-158.745q-1.949-6-7.031-9.705t-11.494-3.705q-9.372 0-14.987 7.308-5.615 7.307-2.795 16.743l56.436 190.974q2.205 7.051 7.895 11.346 5.69 4.295 13.234 4.295h12.66q7.441 0 13.621-4.295 6.179-4.295 8.128-11.346l59.41-189.487q3.231-9.642-2.9-17.59-6.13-7.948-16.292-7.948-6.874 0-12.174 4.244-5.3 4.243-7.248 10.653l-46.95 157.258Zm171.897-25.951h60.155l28.153 71.744q2.263 6.091 7.285 9.404 5.023 3.314 11.613 3.314 10.788 0 17.163-8.949 6.374-8.948 1.939-18.769l-23.795-60.385q18.384-3.025 29.628-16.487 11.244-13.461 11.244-28.846v-48.256q0-19.948-14.513-34.461-14.513-14.513-34.461-14.513H624.231q-6.205 0-10.859 4.731t-4.654 11.038v193.359q0 9.307 6.05 15.423 6.049 6.115 15.256 6.115t15.36-6.115q6.154-6.116 6.154-15.423v-62.924Zm0-42.819v-60.565h94.411q2.308 0 4.231 1.923t1.923 4.231v48.256q0 2.308-1.923 4.232-1.923 1.923-4.231 1.923h-94.411ZM122.565-180.001q-25.788 0-44.176-18.388-18.387-18.388-18.387-44.176v-474.87q0-25.788 18.387-44.176 18.388-18.388 44.176-18.388h714.87q26.09 0 44.327 18.388t18.237 44.176v474.87q0 25.788-18.237 44.176t-44.327 18.388h-714.87Zm0-50.255h714.87q5.385 0 8.847-3.462 3.462-3.462 3.462-8.847v-474.87q0-5.385-3.462-8.847-3.462-3.462-8.847-3.462h-714.87q-5.385 0-8.847 3.462-3.462 3.462-3.462 8.847v474.87q0 5.385 3.462 8.847 3.462 3.462 8.847 3.462Zm-12.309 0v-499.488 499.488Z"/></svg>