<svg xmlns="http://www.w3.org/2000/svg" height="40" viewBox="0 -960 960 960" width="40"><path d="M480.128-120.772q-51.974 0-90.717-36.577t-42.769-89.679q-49.691 22.923-98.948 7.064-49.256-15.858-76.333-60.961-26.64-44.538-15.32-97.294 11.321-52.756 61.577-81.871-50.923-29.397-61.808-81.563-10.884-52.166 15.398-96.705 26.282-44.538 76.153-61.422 49.872-16.884 98.871 6.039 4.025-53.615 42.897-89.936 38.871-36.32 90.845-36.32t90.718 36.32q38.743 36.321 42.768 89.936 49.41-22.923 98.615-6.219 49.205 16.705 75.897 61.602 26.282 44.949 15.474 96.936-10.808 51.987-61.885 81.422 50 29.025 61.218 81.909 11.218 52.885-14.653 97.166-27.077 45.667-75.769 61.243-48.692 15.577-98.487-7.346-4.025 53.102-42.896 89.679-38.872 36.577-90.846 36.577Zm0-50.255q48.898 0 71.987-41.449 23.09-41.449-.91-81.115l-29.897-49.385q-11.257 3.577-21.257 5.16-10 1.584-19.923 1.584-9.333 0-19.436-1.487-10.102-1.488-21.487-4.872l-29.897 49q-24.257 39.666-1.167 81.115t71.987 41.449ZM214.249-326.616q24.624 41.718 69.919 43.205 45.295 1.487 72.167-39.82l29.359-45.975q-7.308-6.666-15.052-15.834-7.743-9.168-13.41-19.012-5.41-9.41-9.756-20.461-4.347-11.052-6.705-24.411H282.95q-46.231 0-69.615 40.295-23.385 40.295.914 82.013Zm387.929 3.385q26 41.589 71.936 39.961 45.936-1.628 70.56-43.346 24.299-41.718 1.043-82.013-23.257-40.295-69.744-40.295h-57.536q-2.438 13.359-6.566 24.411-4.129 11.051-9.385 20.279-5 10.054-12.397 18.669-7.398 8.616-16.86 16.359l28.949 45.975ZM480.41-480Zm-139.639-31.076q2.865-11.278 6.727-22.396 3.862-11.117 10.023-20.937 6.16-10.077 12.974-19.359 6.814-9.283 15.199-17.283l-28.693-45.307q-27.051-42.103-73-41.013-45.948 1.09-69.564 43.987-24.513 42.128-1.115 82.218 23.397 40.09 69.628 40.09h57.821Zm335.202 0q46.487 0 69.346-40.705 22.859-40.706-.833-81.603-24.436-42.487-69.641-43.577-45.205-1.09-72.667 40.603l-28.949 45.307q8.44 7.18 15.631 16.667 7.19 9.487 13.011 19.975 6.077 10.487 10 20.732 3.923 10.246 6.538 22.601h57.564ZM438.846-617.409q11.385-3.359 21.27-4.859t19.769-1.5q9.628 0 19.668 1.692 10.041 1.693 21.165 4.667l30.077-50.025q24.051-39.821 1.064-81.065-22.987-41.243-71.885-41.243-48.897 0-71.82 41.141-22.923 41.141.743 81.167l29.949 50.025Zm0 0q11.385-3.359 21.27-4.859t19.769-1.5q9.628 0 19.668 1.692 10.041 1.693 21.165 4.667-11.124-2.974-21.165-4.667-10.04-1.692-19.668-1.692-9.884 0-19.769 1.5-9.885 1.5-21.27 4.859Zm-81.614 213.357q-5.41-9.41-9.756-20.461-4.347-11.052-6.705-24.411 2.358 13.359 6.705 24.411 4.346 11.051 9.756 20.279 5.667 10.054 13.41 19.208 7.744 9.154 15.052 15.82-7.308-6.666-15.052-15.834-7.743-9.168-13.41-19.012Zm-16.461-107.024q2.865-11.278 6.727-22.396 3.862-11.117 10.023-20.937 6.16-10.077 12.974-19.359 6.814-9.283 15.199-17.283-8.237 8-15.135 17.283-6.897 9.282-13.122 19.359-6.077 9.82-9.939 20.937-3.862 11.118-6.727 22.396Zm139.357 174.844q-9.333 0-19.436-1.487-10.102-1.488-21.487-4.872 11.385 3.384 21.583 4.872 10.199 1.487 19.441 1.487 9.822 0 19.822-1.584 10-1.583 21.257-5.16-11.257 3.577-21.257 5.16-10 1.584-19.923 1.584Zm93.101-32.974q9.462-7.743 16.809-16.373 7.347-8.629 12.448-18.473 5.256-9.41 9.385-20.461 4.128-11.052 6.538-24.411-2.41 13.359-6.538 24.411-4.129 11.051-9.385 20.279-5 10.054-12.397 18.669-7.398 8.616-16.86 16.359Zm45.18-141.87q-2.615-12.355-6.538-22.601-3.923-10.245-10-20.732-5.821-10.488-13.011-19.975-7.191-9.487-15.631-16.667 8.44 7.18 15.631 16.667 7.19 9.487 13.011 19.975 6.077 10.487 10 20.732 3.923 10.246 6.538 22.601ZM480-386.872q38.282 0 65.705-27.423 27.423-27.423 27.423-65.705t-27.423-65.705Q518.282-573.128 480-573.128t-65.705 27.423Q386.872-518.282 386.872-480t27.423 65.705q27.423 27.423 65.705 27.423Z"/></svg>