<svg xmlns="http://www.w3.org/2000/svg" height="40" viewBox="0 -960 960 960" width="40"><path d="M785.283-103.591 102.976-785.283q-7.82-7.608-7.82-17.842 0-10.234 7.855-18.157 7.599-7.564 17.82-7.564t18.144 7.564l682.307 682.307q7.564 7.937 7.564 17.878 0 9.942-7.599 17.506-7.958 7.82-18.179 7.82-10.221 0-17.785-7.82ZM614.794-454.873q-10.679 0-18.006-7.295t-7.327-17.597q0-9.696 6.895-17.529t18.438-7.833h63.539q10.679 0 17.903 7.262 7.224 7.263 7.224 18 0 10.736-7.224 17.864t-17.903 7.128h-63.539ZM419.923-649.744q-10.679 0-18.006-7.295t-7.327-17.597q0-9.696 6.895-17.529 6.895-7.834 18.438-7.834h374.948q10.679 0 17.903 7.263 7.225 7.263 7.225 18 0 10.736-7.225 17.864-7.224 7.128-17.903 7.128H419.923Zm16.359 389.743q-10.679 0-17.903-7.263-7.224-7.263-7.224-18 0-10.736 7.224-17.864t17.903-7.128h87.051q10.679 0 17.904 7.263 7.224 7.263 7.224 17.999 0 10.737-7.224 17.865-7.225 7.128-17.904 7.128h-87.051Zm-155-194.872q-10.679 0-17.903-7.262-7.224-7.263-7.224-18 0-10.736 7.224-17.864t17.903-7.128H433.13v50.254H281.282ZM165.129-649.744q-10.679 0-17.903-7.263-7.225-7.263-7.225-17.999 0-10.737 7.225-17.865 7.224-7.128 17.903-7.128h73.129v50.255h-73.129Z"/></svg>