<svg xmlns="http://www.w3.org/2000/svg" viewBox="0 -960 960 960" width="32" height="32"><path d="M593.23-180q-10.7 0-17.91-7.22-7.22-7.21-7.22-17.91 0-28.74 38.77-48.63 38.77-19.88 107.51-19.88 68.75 0 107.39 19.88 38.64 19.89 38.64 48.63 0 10.7-7.22 17.91-7.21 7.22-17.91 7.22H593.23Zm121.08-159.08q-27.46 0-47.07-19.41-19.6-19.41-19.6-47.14t19.55-47.2q19.55-19.48 47.14-19.48t47.07 19.41q19.47 19.41 19.47 47.14t-19.41 47.21q-19.42 19.47-47.15 19.47ZM150.26-230.26v-499.48V-531.77v-18.49 320ZM162.57-180q-25.79 0-44.18-18.57-18.39-18.56-18.39-44v-474.86q0-25.44 18.39-44Q136.78-780 162.57-780H376.2q12.87 0 24.45 5.08t20.25 13.49l51.43 51.69h325.1q25.44 0 44 18.56 18.57 18.57 18.57 44v118.28q0 10.7-7.25 17.92-7.25 7.21-18 7.21t-17.88-7.21q-7.13-7.22-7.13-17.92v-118.28q0-5.38-3.46-8.85-3.46-3.46-8.85-3.46H451.85l-70.26-70.25H162.57q-5.39 0-8.85 3.46t-3.46 8.85v474.86q0 5.39 3.46 8.85t8.85 3.46h310.38q10.45 0 17.79 7.25t7.34 18q0 10.75-7.34 17.88-7.34 7.13-17.79 7.13H162.57Z"/></svg>