<svg xmlns="http://www.w3.org/2000/svg" height="40" viewBox="0 -960 960 960" width="40"><path d="m820.815-68.01-33.763-33.145q-1.539.769-3.077.961-1.539.193-3.462.193H164.462q-26.686 0-45.573-18.767-18.888-18.767-18.888-45.284v-616.461q0-1.923.193-3.462.192-1.538.961-3.077l-32.64-32.898q-7.437-7.223-7.629-17.701-.192-10.477 7.663-18.041 7.6-7.82 17.871-7.82 10.273 0 17.837 7.82L856.77-103.435q7.435 7.552 7.628 17.686.192 10.133-7.663 17.825-7.856 7.692-17.966 7.692-10.111 0-17.954-7.777Zm-657.84-82.246h574.976L150.667-737.541v574.976q0 4.616 3.846 8.462 3.846 3.847 8.462 3.847Zm697.024-645.282v535.795q0 16.806-15.167 23.287-15.166 6.481-27.242-5.595-3.795-4.052-5.616-8.525-1.82-4.473-1.82-9.372v-537.487q0-4.616-3.847-8.462-3.846-3.847-8.462-3.847H260.358q-4.878 0-9.33-1.692-4.453-1.692-8.566-5.743-11.821-12.077-5.212-27.448 6.609-15.372 23.108-15.372h535.59q26.517 0 45.284 18.888 18.767 18.887 18.767 45.573ZM601.665-457.976l-81.562-81.818-38.513-108.002h-3.18l-17.667 48.898-35.768-36.024 24.36-66.104q2.384-6.928 8.507-11.028 6.122-4.1 13.11-4.1h17.535q7.461 0 13.217 3.936 5.757 3.936 8.551 10.782l91.41 243.46Zm-157.049 13.77Zm85.845-85.845Zm46.155 146.462 90.537 104.384q3.333 11.051-4.064 20.897-7.397 9.846-20.73 9.846-8.231 0-14.385-4.528-6.153-4.528-8.777-11.93l-42.581-118.669Zm-197.18 12.819L341.41-265q-2.969 7.482-9.3 12.01-6.332 4.528-14.468 4.528-13.898 0-21.372-10.974t-2.602-23.666l104.076-279.359L435-525.205l-38.436 108.026h146.462l46.409 46.409H379.436Z"/></svg>