<svg xmlns="http://www.w3.org/2000/svg" height="40" viewBox="0 -960 960 960" width="40"><path d="M164.994-290.001q-10.737 0-17.865-7.224-7.128-7.224-7.128-17.903v-329.744q0-10.679 7.263-17.903 7.263-7.224 18-7.224 10.736 0 17.864 7.224t7.128 17.903v139.745h189.745v-139.745q0-10.679 7.263-17.903 7.263-7.224 18-7.224 10.736 0 17.864 7.224t7.128 17.903v329.744q0 10.679-7.263 17.903-7.263 7.224-17.999 7.224-10.737 0-17.865-7.224-7.128-7.224-7.128-17.903v-139.745H190.256v139.745q0 10.679-7.263 17.903-7.263 7.224-17.999 7.224Zm396.031 0q-13.294 0-22.288-8.993-8.993-8.994-8.993-22.288v-121.282q0-25.609 18.477-44.086 18.477-18.477 44.086-18.477h165.128q5.385 0 8.847-3.462 3.462-3.462 3.462-8.847v-90q0-5.385-3.462-8.847-3.462-3.461-8.847-3.461H554.871q-10.679 0-17.903-7.263-7.224-7.263-7.224-18 0-10.736 7.224-17.864t17.903-7.128h202.564q25.609 0 44.086 18.477 18.478 18.478 18.478 44.086v90q0 25.609-18.478 44.086-18.477 18.477-44.086 18.477H592.307q-5.385 0-8.847 3.462-3.461 3.462-3.461 8.847v102.308h214.872q10.679 0 17.903 7.263 7.225 7.263 7.225 18 0 10.736-7.225 17.864-7.224 7.128-17.903 7.128H561.025Z"/></svg>