<svg xmlns="http://www.w3.org/2000/svg" height="40" viewBox="0 -960 960 960" width="40"><path d="M50-180.256v-72.488q0-9.761 4.096-19.373 4.096-9.612 10.827-16.421l65.078-65.315V-610.93L68.77-672.488q-8.615-8.359-13.692-20.132Q50-704.393 50-717.128v-87.744q0-10.846 7.146-17.986 7.146-7.141 18-7.141 10.853 0 17.98 7.141 7.129 7.14 7.129 17.986v54.873h109.745v-54.873q0-10.846 7.146-17.986 7.146-7.141 17.999-7.141 10.854 0 17.982 7.141 7.128 7.14 7.128 17.986v54.873h109.745v-54.873q0-10.846 7.146-17.986 7.146-7.141 17.999-7.141 10.854 0 17.982 7.141 7.128 7.14 7.128 17.986v87.744q0 12.735-5.077 24.508t-13.436 20.132L340.256-611v70.744h279.488V-611l-61.231-61.488q-8.615-8.359-13.692-20.132-5.077-11.773-5.077-24.508v-87.744q0-10.846 7.146-17.986 7.146-7.141 18-7.141 10.853 0 17.981 7.141 7.128 7.14 7.128 17.986v54.873h109.745v-54.873q0-10.846 7.146-17.986 7.146-7.141 18-7.141 10.853 0 17.981 7.141 7.128 7.14 7.128 17.986v54.873h109.745v-54.873q0-10.846 7.146-17.986 7.146-7.141 18-7.141 10.853 0 17.981 7.141 7.128 7.14 7.128 17.986v87.744q0 12.735-5.077 24.508-5.076 11.773-13.435 20.132l-61.488 61.54v257.077l65.334 65.333q6.609 6.809 10.637 16.421 4.029 9.612 4.029 19.373v72.488q0 20.686-14.785 35.47-14.784 14.785-35.47 14.785h-253.59q-13.461 0-22.371-8.91-8.91-8.91-8.91-22.371V-240q0-39.433-27.742-67.153-27.742-27.72-67.206-27.72t-67.131 27.72q-27.667 27.72-27.667 67.153v78.527q0 13.748-8.91 22.61t-22.371 8.862h-253.59q-20.686 0-35.47-14.785Q50-159.57 50-180.256Zm50.256 0h234.617V-240q0-60.666 42.563-102.897Q420-385.127 480-385.127q60.666 0 102.897 42.23 42.23 42.231 42.23 102.897v59.744h234.617v-72.873l-80-79.946v-298.668l68.001-68.001H601.998l68.001 68.001v141.742H290.001v-141.742l68.001-68.001H112.255l68.001 68.001v298.668l-80 79.946v72.873ZM480-440Z"/></svg>