<svg xmlns="http://www.w3.org/2000/svg" height="40" viewBox="0 -960 960 960" width="40"><path d="M480.186-800.255q10.173 0 19.442 3.205 9.268 3.205 17.808 9.359l237.435 178.974q12.083 8.622 18.605 21.795 6.523 13.172 6.523 28.204v393.589q0 10.679-7.263 17.903-7.263 7.225-18 7.225-10.736 0-17.864-7.225-7.128-7.224-7.128-17.903v-393.589q0-3.077-1.347-5.577-1.346-2.5-3.654-4.423L487.308-747.307q-3.077-2.436-7.308-2.436t-7.308 2.436L235.257-568.718q-2.308 1.923-3.654 4.423-1.347 2.5-1.347 5.577v393.589q0 10.679-7.263 17.903-7.263 7.225-17.999 7.225-10.737 0-17.865-7.225-7.128-7.224-7.128-17.903v-393.589q0-15.032 6.523-28.204 6.522-13.173 18.605-21.795l237.435-178.974q8.67-6.154 18.06-9.359 9.39-3.205 19.562-3.205Zm-139.93 609.614h279.488v-114.617H340.256v114.617Zm0-164.872h279.488V-470.13H340.256v114.617Zm-18.974 215.127q-13.294 0-22.288-8.994-8.993-8.993-8.993-22.288v-317.435q0-13.295 8.993-22.288 8.994-8.994 22.288-8.994h317.436q13.294 0 22.288 8.994 8.993 8.993 8.993 22.288v317.435q0 13.295-8.993 22.288-8.994 8.994-22.288 8.994H321.282Z"/></svg>