<svg xmlns="http://www.w3.org/2000/svg" height="40" viewBox="0 -960 960 960" width="40"><path d="M239.25-140.001q-10.737 0-17.865-7.225-7.128-7.224-7.128-17.903v-391.667l-104.411 78.462q-8.681 6.231-18.327 5.115-9.646-1.115-16.262-9.628-6.615-8.512-5.192-18.384 1.423-9.871 10.064-16.486l362.23-273.974q8.616-6.154 18.16-9.372 9.545-3.218 19.471-3.218t19.481 3.218q9.554 3.218 18.17 9.372l362.615 273.974q8.435 6.615 9.756 16.486 1.32 9.872-5.295 18.513-6.908 8.293-16.542 9.454-9.633 1.161-18.047-5.07l-104.667-78.872v392.077q0 10.679-7.263 17.903-7.263 7.225-18 7.225-10.736 0-17.864-7.225-7.128-7.224-7.128-17.903v-386.77H264.512v386.77q0 10.679-7.263 17.903-7.263 7.225-17.999 7.225Zm118.442-40q-10.679 0-17.903-7.263-7.224-7.263-7.224-18 0-10.736 7.224-17.864t17.903-7.128h244.616q10.679 0 17.903 7.263 7.224 7.263 7.224 17.999 0 10.737-7.224 17.865-7.224 7.128-17.903 7.128H357.692Zm0-124.103q-10.679 0-17.903-7.263-7.224-7.263-7.224-17.999 0-10.737 7.224-17.865 7.224-7.128 17.903-7.128h244.616q10.679 0 17.903 7.263 7.224 7.263 7.224 18 0 10.736-7.224 17.864t-17.903 7.128H357.692Zm0-123.692q-10.679 0-17.903-7.263-7.224-7.263-7.224-18 0-10.736 7.224-17.864t17.903-7.128h244.616q10.679 0 17.903 7.263 7.224 7.263 7.224 17.999 0 10.737-7.224 17.865-7.224 7.128-17.903 7.128H357.692Zm-83.821-174.358h411.976L480-757.103 273.871-602.154Z"/></svg>