<svg xmlns="http://www.w3.org/2000/svg" height="40" viewBox="0 -960 960 960" width="40"><path d="M491.095-366.154q-9.361 0-15.254-5.914-5.892-5.913-5.892-14.958v-185.948q0-9.045 5.874-14.958 5.875-5.914 15.108-5.914t15.125 5.914q5.892 5.913 5.892 14.958v185.948q0 9.045-5.908 14.958-5.909 5.914-14.945 5.914Zm-235.606 0q-18.97 0-31.844-13.129-12.875-13.128-12.875-31.59v-138.254q0-18.462 12.875-31.59 12.874-13.129 31.844-13.129h118.05q9.369 0 15.248 5.922 5.88 5.922 5.88 14.979 0 9.058-5.88 14.95-5.879 5.892-15.248 5.892H264.821q-4.615 0-8.462 3.846-3.846 3.847-3.846 8.463v119.588q0 4.616 3.846 8.463 3.847 3.846 8.462 3.846h75.538q4.616 0 8.462-3.846 3.846-3.847 3.846-8.463v-35.846q0-9.044 5.909-14.957 5.908-5.914 14.945-5.914 9.361 0 15.253 5.859 5.893 5.859 5.893 14.82v45.371q0 18.462-12.849 31.59-12.849 13.129-32.126 13.129h-94.203Zm350.99 0q-9.361 0-15.253-5.914-5.893-5.913-5.893-14.958v-185.948q0-9.045 5.88-14.958 5.879-5.914 15.248-5.914h121.898q9.044 0 14.957 5.922 5.914 5.922 5.914 14.979 0 9.058-5.914 14.95-5.913 5.892-14.957 5.892H627.333v58.975h59.538q9.045 0 14.958 5.874 5.914 5.875 5.914 15.108t-5.914 15.125q-5.913 5.892-14.958 5.892h-59.538v64.103q0 9.045-5.909 14.958-5.908 5.914-14.945 5.914Z"/></svg>