<svg xmlns="http://www.w3.org/2000/svg" height="40" viewBox="0 -960 960 960" width="40"><path d="M359.539-331.539q28.077 0 47.346-19.41 19.269-19.41 19.269-47.141 0-27.73-19.269-47.204-19.269-19.475-47.141-19.475-27.871 0-47.345 19.41-19.475 19.41-19.475 47.141 0 27.73 19.429 47.205 19.429 19.474 47.186 19.474Zm240.857 0q27.731 0 47.205-19.41 19.475-19.41 19.475-47.141 0-27.73-19.41-47.204-19.41-19.475-47.141-19.475-27.73 0-47.205 19.41-19.474 19.41-19.474 47.141 0 27.73 19.41 47.205 19.41 19.474 47.14 19.474Zm-120.46-210.308q27.73 0 47.205-19.269 19.474-19.269 19.474-47.14 0-27.872-19.41-47.346-19.41-19.474-47.141-19.474-27.73 0-47.205 19.429-19.474 19.428-19.474 47.186 0 28.076 19.41 47.345t47.141 19.269Zm.308 441.846q-78.915 0-148.053-29.92-69.139-29.92-120.731-81.544-51.593-51.624-81.526-120.727-29.933-69.103-29.933-147.946t29.92-148.106q29.92-69.262 81.544-120.575 51.624-51.314 120.727-81.247 69.103-29.933 147.946-29.933t148.106 29.92q69.262 29.92 120.575 81.21 51.314 51.291 81.247 120.629 29.933 69.337 29.933 147.996 0 78.915-29.92 148.053-29.92 69.139-81.21 120.609-51.291 51.469-120.629 81.525-69.337 30.056-147.996 30.056Zm-.039-50.255q137.59 0 233.564-96.18 95.975-96.179 95.975-233.769t-95.832-233.564Q618.08-809.744 480-809.744q-137.385 0-233.564 95.832-96.18 95.832-96.18 233.912 0 137.385 96.18 233.564 96.179 96.18 233.769 96.18ZM480-480Z"/></svg>