<svg xmlns="http://www.w3.org/2000/svg" viewBox="0 -960 960 960" width="32" height="32"><path d="M162.57-281.8h634.86q5.39 0 8.85-3.46t3.46-8.84v-242.57H150.26v242.57q0 5.38 3.46 8.84t8.85 3.46Zm519.79-82.3q18.82 0 31.95-13.18 13.13-13.18 13.13-32t-13.18-31.95q-13.18-13.13-32-13.13t-31.95 13.18q-13.13 13.17-13.13 32 0 18.82 13.18 31.95 13.17 13.13 32 13.13ZM860-586.92h-71l-98.21-99.75H269.21L171-586.92h-71l129.95-131.49q8.36-8.74 19.98-13.63 11.63-4.88 24.66-4.88h410.82q13.03 0 24.66 4.88 11.62 4.89 20.24 13.63L860-586.92ZM162.57-231.54q-25.61 0-44.09-18.48Q100-268.5 100-294.1v-292.82h760v292.82q0 25.6-18.48 44.08-18.48 18.48-44.09 18.48H162.57Z"/></svg>