<svg xmlns="http://www.w3.org/2000/svg" viewBox="0 -960 960 960" width="32" height="32"><path d="M479.3-260.28q14.57 0 24.81-10.09 10.25-10.09 10.25-24.75 0-14.57-10.26-24.82-10.27-10.24-24.84-10.24t-24.68 10.26q-10.12 10.26-10.12 24.84 0 14.57 10.09 24.68 10.09 10.12 24.75 10.12Zm121.52-334q0-48.86-32.65-79.22-32.66-30.37-85.81-30.37-37.74 0-69.36 16.6-31.61 16.59-50.15 47.73-5.05 7.87-1 16.97 4.05 9.1 13.43 13.01 9.28 3.84 18.44.71 9.15-3.12 15.18-10.94 13.25-18.39 31.05-27.57 17.79-9.18 41.28-9.18 32.64 0 52.09 17.33 19.45 17.34 19.45 46.36 0 19.08-10.31 36.8t-34.61 40.02q-26.82 25.26-39.09 45.8-12.27 20.54-15.09 46-1.21 9.05 5.88 16.37t17.27 7.32q9.2 0 16.44-6.45 7.25-6.45 9.07-16.7 3.41-16.8 12.41-31.03T544-489.21q31.82-31.82 44.32-54.88 12.5-23.06 12.5-50.19ZM202.57-140q-25.79 0-44.18-18.39T140-202.57v-554.86q0-25.79 18.39-44.18T202.57-820h554.86q25.79 0 44.18 18.39T820-757.43v554.86q0 25.79-18.39 44.18T757.43-140H202.57Zm0-50.26h554.86q4.62 0 8.47-3.84 3.84-3.85 3.84-8.47v-554.86q0-4.62-3.84-8.47-3.85-3.84-8.47-3.84H202.57q-4.62 0-8.47 3.84-3.84 3.85-3.84 8.47v554.86q0 4.62 3.84 8.47 3.85 3.84 8.47 3.84Zm-12.31-579.48v579.48-579.48Z"/></svg>