<svg xmlns="http://www.w3.org/2000/svg" viewBox="0 -960 960 960" width="32" height="32"><path d="m223.28-662.61-44.05-43.44q-7.43-7.23-7.52-17.4-.09-10.16 7.26-17.73 8.08-7.82 18.26-7.92 10.18-.1 18 7.72l43.44 43.43q6.56 7.23 7.06 17.47.5 10.23-7.06 17.92-7.62 7.36-17.72 7.25-10.1-.1-17.67-7.3Zm231.59-104.82v-62.06q0-10.7 7.25-17.91 7.24-7.21 18-7.21 10.75 0 17.88 7.21 7.13 7.21 7.13 17.91v62.06q0 10.7-7.25 17.91-7.24 7.21-18 7.21-10.75 0-17.88-7.21-7.13-7.21-7.13-17.91Zm246.87 69.69 43.64-43.64q7.24-6.82 17.47-7.02 10.23-.19 17.92 7.63 7.61 7.62 7.61 17.69 0 10.08-7.61 17.7l-43.64 43.64q-7.23 7.23-17.53 7.52-10.29.3-17.86-7.06-7.82-8.08-7.82-18.4 0-10.33 7.82-18.06ZM380-162.57v-125.89L278.77-389.95q-8.61-8.36-13.69-20.07T260-434.59v-82.84q0-25.71 18.43-44.14T322.57-580h314.86q25.71 0 44.14 18.43T700-517.43v82.84q0 12.86-5.08 24.57t-13.43 20.07L580-288.46v125.89q0 25.71-18.43 44.14T517.43-100h-74.86q-25.71 0-44.14-18.43T380-162.57Zm62.57 12.31h74.86q5.39 0 8.85-3.46t3.46-8.85v-147.02l120-120v-87.84q0-5.39-3.46-8.85t-8.85-3.46H322.57q-5.39 0-8.85 3.46t-3.46 8.85v87.84l120 120v147.02q0 5.39 3.46 8.85t8.85 3.46ZM480-340Z"/></svg>