<svg xmlns="http://www.w3.org/2000/svg" height="40" viewBox="0 -960 960 960" width="40"><path d="M392.769-339.334q12.795 0 21.654-9.064 8.858-9.064 8.858-21.449 0-1.743-.333-4.218-.333-2.474-1.077-4.217 2.641 1.589 5.693 2.32 3.051.731 6.102.731 12.795 0 21.757-9.064 8.961-9.064 8.961-21.449 0-12.384-9.064-21.448t-21.449-9.064q-7.333 0-13.435 3.487-6.103 3.487-10.718 8.872L301.461-541.769q7.231-3.82 11.936-10.923 4.706-7.102 4.706-15.487 0-12.384-9.064-21.448t-21.449-9.064q-12.384 0-21.448 8.858-9.064 8.859-9.064 21.654 0 2.41.397 4.692.398 2.282 1.013 4.026-2.641-1.59-5.487-2.321-2.847-.73-6.308-.73-12.385 0-21.551 8.858-9.167 8.859-9.167 21.654 0 12.384 9.064 21.448t21.449 9.064q8.205 0 15.115-3.692t10.859-10.487l108.641 118.256q-8.231 2.77-13.539 10.372-5.308 7.603-5.308 17.192 0 12.385 9.064 21.449 9.064 9.064 21.449 9.064ZM494-142.694q-27 0-53.064-9.987t-46.448-29.423L109.385-448.591q-7.077-6.615-8-15.564-.923-8.948 4.334-16.769 6.82-9.82 18.217-11.435 11.397-1.615 20.192 6.82l284.487 267.59q13.82 12.821 31.205 19.295 17.385 6.474 35.18 6.474 14.359 0 26.834-3.282 12.474-3.282 24.115-10.666l286.257-180.565q12.05-8.051 24.73-.884 12.679 7.166 12.679 21.576 0 6.692-2.911 12.23-2.91 5.539-8.525 9.128L572.307-165.078q-17.436 10.564-36.846 16.474-19.41 5.91-41.461 5.91Zm37.154-387.893q39.513-47.283 82.218-70.501 42.705-23.218 126.808-45.782 25.692-6.795 47.038-13.654 21.347-6.859 40.731-14.449 9.462-3.59 18.705.436 9.243 4.025 13.294 13.025 4 9-.025 18.794-4.026 9.795-13.231 13.385-21.128 7.795-43.974 14.859-22.846 7.064-49.513 14.474-87.128 23.18-129.975 49.987-42.846 26.808-80.667 87.629-3.179 4.615-8.525 7.717-5.346 3.103-12.551 3.103-8.256 0-15.217-5.743-6.962-5.744-8.526-14.18-17.871-70.641-72.5-138.064-54.628-67.423-127.167-111.577-9.051-5-11.576-14.564-2.526-9.563 3.525-18.615 6-8.794 16.231-11.64 10.23-2.846 19.281 2.769 69.564 42 125.667 104.206 56.103 62.205 79.949 128.385Zm-408.949 24.075q68.923 64.692 152.82 144.025 83.898 79.333 153.59 144.538 13.82 12.821 31.205 19.295 17.385 6.474 35.18 6.474 14.359 0 26.834-3.282 12.474-3.282 24.115-10.666 70.616-45.001 160.577-101.513 89.961-56.512 163.089-102.589L545.949-206.128q-11.641 7.384-24.115 10.666-12.475 3.282-26.834 3.282-17.795 0-35.18-6.474-17.385-6.474-31.205-19.295l-306.41-288.563Z"/></svg>