<svg xmlns="http://www.w3.org/2000/svg" height="40" viewBox="0 -960 960 960" width="40"><path d="M202.565-140.001q-25.788 0-44.176-18.388t-18.388-44.176v-554.87q0-25.788 18.388-44.176t44.176-18.388h554.87q25.788 0 44.176 18.388t18.388 44.176v554.87q0 25.788-18.388 44.176t-44.176 18.388h-554.87Zm0-50.255h554.87q4.616 0 8.462-3.847 3.847-3.846 3.847-8.462v-554.87q0-4.616-3.847-8.462-3.846-3.847-8.462-3.847h-554.87q-4.616 0-8.462 3.847-3.847 3.846-3.847 8.462v554.87q0 4.616 3.847 8.462 3.846 3.847 8.462 3.847Zm-12.309-579.488V-190.256-769.744Zm131.264 223.54q-10.75 0-17.878 7.214-7.128 7.215-7.128 17.913v207.436q0 10.698 7.249 17.913 7.25 7.214 18 7.214t17.878-7.214q7.128-7.215 7.128-17.913v-207.436q0-10.698-7.25-17.913-7.249-7.214-17.999-7.214Zm158.359-125.282q-10.75 0-17.878 7.214-7.128 7.215-7.128 17.913v332.718q0 10.698 7.249 17.913 7.249 7.214 17.999 7.214t17.878-7.214q7.128-7.215 7.128-17.913v-332.718q0-10.698-7.249-17.913-7.249-7.214-17.999-7.214ZM638.237-422.82q-10.75 0-17.878 7.34-7.128 7.339-7.128 17.788v84.051q0 10.698 7.25 17.913 7.249 7.214 17.999 7.214t17.878-7.214q7.128-7.215 7.128-17.913v-84.051q0-10.449-7.249-17.788-7.25-7.34-18-7.34Z"/></svg>