<svg xmlns="http://www.w3.org/2000/svg" height="40" viewBox="0 -960 960 960" width="40"><path d="m468.628-74.45-97.345-97.345q-7.359-7.359-3.555-17.116 3.803-9.756 14.529-9.756h195.896q10.487 0 14.205 9.756 3.718 9.757-3.641 17.116l-97.345 97.344q-4.719 4.962-11.251 4.962-6.531 0-11.493-4.962ZM162.565-300.001q-25.788 0-44.176-18.388t-18.388-44.176v-394.87q0-25.788 18.388-44.176t44.176-18.388h634.87q25.788 0 44.176 18.388t18.388 44.176v394.87q0 25.788-18.388 44.176t-44.176 18.388h-634.87Zm0-50.255h634.87q4.616 0 8.462-3.847 3.847-3.846 3.847-8.462v-394.87q0-4.616-3.847-8.462-3.846-3.847-8.462-3.847h-634.87q-4.616 0-8.462 3.847-3.847 3.846-3.847 8.462v394.87q0 4.616 3.847 8.462 3.846 3.847 8.462 3.847Zm194.461-56.924h246.359q12.621 0 21.567-8.788 8.945-8.788 8.945-21.846 0-12.673-8.945-21.532-8.946-8.859-21.567-8.859H357.026q-12.622 0-21.567 8.912-8.946 8.912-8.946 21.718 0 12.934 8.946 21.664 8.945 8.731 21.567 8.731Zm-206.77 56.924v-419.488 419.488Zm83.506-301.796q12.674 0 21.533-8.847 8.858-8.848 8.858-21.654t-8.98-21.665q-8.98-8.859-21.653-8.859-12.674 0-21.533 8.979-8.858 8.98-8.858 21.651 0 12.934 8.98 21.665 8.98 8.73 21.653 8.73Zm123.385 0q12.673 0 21.532-8.847 8.859-8.848 8.859-21.654t-8.98-21.665q-8.981-8.859-21.654-8.859t-21.532 8.979q-8.859 8.98-8.859 21.651 0 12.934 8.98 21.665 8.981 8.73 21.654 8.73Zm122.974 0q12.674 0 21.533-8.847 8.858-8.848 8.858-21.654t-8.98-21.665q-8.98-8.859-21.653-8.859-12.674 0-21.533 8.979-8.858 8.98-8.858 21.651 0 12.934 8.98 21.665 8.98 8.73 21.653 8.73Zm123.385 0q12.673 0 21.532-8.847 8.859-8.848 8.859-21.654t-8.98-21.665q-8.981-8.859-21.654-8.859t-21.532 8.979q-8.859 8.98-8.859 21.651 0 12.934 8.981 21.665 8.98 8.73 21.653 8.73Zm122.974 0q12.674 0 21.533-8.847 8.858-8.848 8.858-21.654t-8.98-21.665q-8.98-8.859-21.653-8.859-12.674 0-21.533 8.979-8.858 8.98-8.858 21.651 0 12.934 8.98 21.665 8.98 8.73 21.653 8.73ZM233.762-529.488q12.674 0 21.533-8.98 8.858-8.98 8.858-21.653 0-12.674-8.98-21.533-8.98-8.858-21.653-8.858-12.674 0-21.533 8.98-8.858 8.98-8.858 21.653 0 12.674 8.98 21.533 8.98 8.858 21.653 8.858Zm123.385 0q12.673 0 21.532-8.98t8.859-21.653q0-12.674-8.98-21.533-8.981-8.858-21.654-8.858t-21.532 8.98q-8.859 8.98-8.859 21.653 0 12.674 8.98 21.533 8.981 8.858 21.654 8.858Zm122.974 0q12.674 0 21.533-8.98 8.858-8.98 8.858-21.653 0-12.674-8.98-21.533-8.98-8.858-21.653-8.858-12.674 0-21.533 8.98-8.858 8.98-8.858 21.653 0 12.674 8.98 21.533 8.98 8.858 21.653 8.858Zm123.385 0q12.673 0 21.532-8.98t8.859-21.653q0-12.674-8.98-21.533-8.981-8.858-21.654-8.858t-21.532 8.98q-8.859 8.98-8.859 21.653 0 12.674 8.981 21.533 8.98 8.858 21.653 8.858Zm122.974 0q12.674 0 21.533-8.98 8.858-8.98 8.858-21.653 0-12.674-8.98-21.533-8.98-8.858-21.653-8.858-12.674 0-21.533 8.98-8.858 8.98-8.858 21.653 0 12.674 8.98 21.533 8.98 8.858 21.653 8.858Z"/></svg>