<svg xmlns="http://www.w3.org/2000/svg" viewBox="0 -960 960 960" width="32" height="32"><path d="M343.56-644.87q-10.74 0-17.87-7.23-7.13-7.22-7.13-17.9v-60.97q0-10.68 7.27-17.91 7.26-7.22 18-7.22 10.73 0 17.86 7.22 7.13 7.23 7.13 17.91V-670q0 10.68-7.26 17.9-7.27 7.23-18 7.23Zm0 342.71q-10.74 0-17.87-7.22-7.13-7.22-7.13-17.9v-134.77q0-10.43 7.27-17.78 7.26-7.35 18-7.35 10.73 0 17.86 7.35 7.13 7.35 7.13 17.78v134.77q0 10.68-7.26 17.9-7.27 7.22-18 7.22ZM242.57-100q-25.61 0-44.09-18.48Q180-136.96 180-162.57v-634.86q0-25.61 18.48-44.09Q216.96-860 242.57-860h474.86q25.61 0 44.09 18.48Q780-823.04 780-797.43v634.86q0 25.61-18.48 44.09Q743.04-100 717.43-100H242.57Zm0-50.26h474.86q5.39 0 8.85-3.46t3.46-8.85v-378.41H230.26v378.41q0 5.39 3.46 8.85t8.85 3.46Zm-12.31-440.97h499.48v-206.2q0-5.39-3.46-8.85t-8.85-3.46H242.57q-5.39 0-8.85 3.46t-3.46 8.85v206.2Z"/></svg>