<svg xmlns="http://www.w3.org/2000/svg" height="40" viewBox="0 -960 960 960" width="40"><path d="M281.539-298.463q-75.338 0-128.438-53.093-53.1-53.093-53.1-128.422t53.1-128.444q53.1-53.115 128.438-53.115h130.512q10.68 0 17.904 7.263t7.224 17.999q0 10.737-7.224 17.865-7.224 7.128-17.904 7.128H281.493q-54.613 0-92.925 38.266t-38.312 92.859q0 54.593 38.312 93.016t92.925 38.423h130.558q10.68 0 17.904 7.263t7.224 18q0 10.736-7.224 17.864t-17.904 7.128H281.539Zm76.153-156.41q-10.679 0-17.903-7.262-7.224-7.263-7.224-18 0-10.736 7.224-17.864t17.903-7.128h244.872q10.429 0 17.778 7.262 7.35 7.263 7.35 18 0 10.736-7.35 17.864-7.349 7.128-17.778 7.128H357.692Zm190.256 156.41q-10.679 0-17.903-7.263-7.224-7.263-7.224-17.999 0-10.737 7.224-17.865 7.224-7.128 17.903-7.128h130.559q54.613 0 92.925-38.266t38.312-92.859q0-54.593-38.312-93.016t-92.925-38.423H547.948q-10.679 0-17.903-7.263-7.224-7.263-7.224-18 0-10.736 7.224-17.864t17.903-7.128h130.513q75.338 0 128.438 53.093 53.1 53.093 53.1 128.422t-53.1 128.444q-53.1 53.115-128.438 53.115H547.948Z"/></svg>