<svg xmlns="http://www.w3.org/2000/svg" height="40" viewBox="0 -960 960 960" width="40"><path d="m601.897-455.231-48.409-48.409h48.307q10.448 0 17.788 7.211 7.339 7.211 7.339 17.916 0 9.18-5.461 15.59-5.462 6.41-14.282 7.692h-5.282ZM834.77-87.949q-7.615 7.615-17.897 7.615-10.282 0-17.897-7.615L90.924-795.591q-7.231-7.231-7.423-17.705-.193-10.474 7.423-18.089Q98.539-839 108.82-839q10.281 0 17.896 7.615L834.77-123.333q7.23 7.231 7.423 17.5.192 10.269-7.423 17.884ZM281.539-298.463q-75.308 0-128.423-53.115Q100.001-404.693 100.001-480q0-68.179 44.116-119.064 44.115-50.884 110.449-59.858h9.231l47.64 47.64h-29.898q-54.659 0-92.971 38.266-38.312 38.266-38.312 92.859 0 54.593 38.312 93.016t92.971 38.423h131.282q10.705 0 17.916 7.245t7.211 18q0 10.754-7.211 17.882-7.211 7.128-17.916 7.128H281.539Zm76.923-156.41q-10.705 0-17.917-7.244-7.211-7.245-7.211-18 0-10.754 7.211-17.882 7.212-7.128 17.917-7.128h59.335l49.665 50.254h-109Zm365.666 127.77q-4.795-9.641-1.539-19.641 3.257-9.999 12.949-14.409 33.898-16.487 54.052-47.731 20.154-31.244 20.154-69.629 0-54.658-38.248-92.97t-92.265-38.312H554.615q-10.705 0-17.916-7.245t-7.211-17.999q0-10.755 7.211-17.883 7.211-7.128 17.916-7.128h124.616q74.922 0 127.845 53.115t52.923 128.422q0 52.077-27.821 94.705t-73.256 66.73q-9.052 5.205-19.526 2.282t-15.268-12.307Z"/></svg>