<svg xmlns="http://www.w3.org/2000/svg" height="40" viewBox="0 -960 960 960" width="40"><path d="M190.256-190.256V-769.744-190.256Zm12.309 50.255q-25.788 0-44.176-18.388t-18.388-44.176v-554.87q0-25.788 18.388-44.176t44.176-18.388h554.87q25.788 0 44.176 18.388t18.388 44.176v328.129q0 10.975-7.263 18.077-7.263 7.101-18 7.101-10.736 0-17.864-7.224t-7.128-17.903v-328.18q0-4.616-3.847-8.462-3.846-3.847-8.462-3.847h-554.87q-4.616 0-8.462 3.847-3.847 3.846-3.847 8.462v554.87q0 4.616 3.847 8.462 3.846 3.847 8.462 3.847h267.129q10.679 0 17.903 7.263 7.224 7.263 7.224 17.999 0 10.737-7.224 17.865-7.224 7.128-17.903 7.128H202.565Zm110.026-152.205q12.742 0 21.614-8.898 8.872-8.899 8.872-21.641 0-12.742-8.899-21.614t-21.641-8.872q-12.742 0-21.614 8.899-8.871 8.899-8.871 21.641 0 12.742 8.898 21.613 8.899 8.872 21.641 8.872Zm0-157.282q12.742 0 21.614-8.898 8.872-8.899 8.872-21.641 0-12.742-8.899-21.614-8.899-8.871-21.641-8.871-12.742 0-21.614 8.898-8.871 8.899-8.871 21.641 0 12.742 8.898 21.614 8.899 8.871 21.641 8.871Zm0-157.281q12.742 0 21.614-8.899t8.872-21.641q0-12.742-8.899-21.613-8.899-8.872-21.641-8.872-12.742 0-21.614 8.898-8.871 8.899-8.871 21.641 0 12.742 8.898 21.614 8.899 8.872 21.641 8.872Zm331.922 151.896q10.679 0 17.903-7.262 7.224-7.263 7.224-18 0-10.736-7.224-17.864t-17.903-7.128H465.179q-10.679 0-17.903 7.262-7.224 7.263-7.224 18 0 10.736 7.224 17.864t17.903 7.128h179.334Zm0-157.281q10.679 0 17.903-7.263 7.224-7.263 7.224-18 0-10.736-7.224-17.864t-17.903-7.128H465.179q-10.679 0-17.903 7.263-7.224 7.263-7.224 17.999 0 10.737 7.224 17.865 7.224 7.128 17.903 7.128h179.334ZM440.052-322.583q0 10.736 7.224 17.864t17.903 7.128h48.361q10.679 0 17.903-7.263 7.224-7.263 7.224-17.999 0-10.737-7.224-17.865-7.224-7.128-17.903-7.128h-48.361q-10.679 0-17.903 7.263-7.224 7.263-7.224 18Zm258.154 152.582h-94.873q-10.679 0-17.903-7.263-7.224-7.263-7.224-17.999 0-10.737 7.224-17.865 7.224-7.128 17.903-7.128h94.873v-94.872q0-10.679 7.263-17.903 7.263-7.225 17.999-7.225 10.737 0 17.865 7.225 7.128 7.224 7.128 17.903v94.872h94.872q10.679 0 17.904 7.263 7.224 7.263 7.224 18 0 10.736-7.224 17.864-7.225 7.128-17.904 7.128h-94.872v94.873q0 10.679-7.263 17.903-7.263 7.224-18 7.224-10.736 0-17.864-7.224t-7.128-17.903v-94.873Z"/></svg>