<svg xmlns="http://www.w3.org/2000/svg" viewBox="0 -960 960 960" width="32" height="32"><path d="m517.44-787.31 237.43 178.59q12.08 8.62 18.61 21.8 6.52 13.17 6.52 28.2v356.15q0 25.61-18.48 44.09Q743.04-140 717.43-140H242.57q-25.61 0-44.09-18.48Q180-176.96 180-202.57v-356.15q0-15.03 6.52-28.2 6.53-13.18 18.61-21.8l237.43-178.59q16.18-12.56 37.27-12.56 21.09 0 37.61 12.56Zm-37.39 412.44q43.82 0 74.45-30.68 30.63-30.68 30.63-74.5t-30.68-74.45q-30.68-30.63-74.5-30.63t-74.45 30.68q-30.63 30.68-30.63 74.5t30.68 74.45q30.68 30.63 74.5 30.63Zm.07-50.26q-23.12 0-39.06-15.82-15.93-15.82-15.93-38.93 0-23.12 15.82-39.06 15.82-15.93 38.93-15.93 23.12 0 39.06 15.82 15.93 15.82 15.93 38.93 0 23.12-15.82 39.06-15.82 15.93-38.93 15.93Zm-1.69 170.26q-53.02 0-102.79 16.61-49.77 16.62-92.15 48h390.69q-42.67-31.64-92.7-48.13-50.02-16.48-103.05-16.48ZM230.26-560.61v349.48q52.05-44.74 115.68-69.37 63.64-24.63 132.5-24.63 69.72 0 134.17 24.64 64.44 24.64 117.13 69.64v-349.76q0-3.08-1.34-5.71-1.35-2.63-3.66-4.3L487.31-745.85q-3.08-2.69-7.31-2.69-4.23 0-7.31 2.69L235.26-570.62q-2.31 1.67-3.66 4.3-1.34 2.63-1.34 5.71ZM480-480Z"/></svg>