<svg xmlns="http://www.w3.org/2000/svg" viewBox="0 -960 960 960" width="32" height="32"><path d="M202.57-140q-25.79 0-44.18-18.39T140-202.57v-554.86q0-25.79 18.39-44.18T202.57-820h252.28q10.7 0 17.91 7.25 7.21 7.25 7.21 18t-7.21 17.88q-7.21 7.13-17.91 7.13H202.57q-4.62 0-8.47 3.84-3.84 3.85-3.84 8.47v554.86q0 4.62 3.84 8.47 3.85 3.84 8.47 3.84h252.28q10.7 0 17.91 7.25 7.21 7.25 7.21 18t-7.21 17.88q-7.21 7.13-17.91 7.13H202.57ZM723.1-454.87H388.97q-10.69 0-17.91-7.25-7.21-7.25-7.21-18t7.21-17.88q7.22-7.13 17.91-7.13h333.31l-79.89-79.9q-7.23-7.23-7.22-17.29.01-10.06 7.63-17.88 7.61-7.82 17.85-7.8 10.24.03 18.14 7.59l118.9 118.9q9.36 9.61 9.36 22.06t-9.36 21.78L679.21-339.18q-7.05 7.43-17.23 7.3-10.18-.14-18.37-7.92-7.35-7.82-7.25-18 .1-10.18 7.72-17.79l79.02-79.28Z"/></svg>