<svg xmlns="http://www.w3.org/2000/svg" height="40" viewBox="0 -960 960 960" width="40"><path d="M480-649.744q-146.795 0-252.744 99.501-105.949 99.5-116.179 243.679-.821 11.051-7.859 18.808Q96.18-280 85.128-280q-10.588 0-17.96-7.628-7.372-7.628-6.551-18.448 5.18-82.128 39.987-154.103 34.807-71.974 91.307-125.153t130.628-83.923Q396.667-699.999 480-699.999q83.333 0 157.461 30.744 74.128 30.744 130.628 83.923 56.5 53.179 91.307 125.153 34.808 71.975 39.987 154.103.821 10.82-6.551 18.448Q885.461-280 874.871-280q-11.051 0-18.089-7.756-7.038-7.757-7.859-18.808-10.23-144.179-115.974-243.679Q627.205-649.744 480-649.744Zm0 140.513q-89.539 0-154.372 59.321-64.833 59.321-73.705 147.039-.949 9.769-8.487 16.32T225.642-280q-10.872 0-18.192-7.654-7.32-7.653-5.705-18.371 10.102-107.487 89.089-180.474T480-559.486q110.179 0 189.166 72.987t89.089 180.474q1.615 10.718-5.705 18.371Q745.23-280 734.358-280q-10.256 0-17.794-6.551t-8.487-16.32q-8.872-87.718-73.641-147.039Q569.667-509.231 480-509.231Z"/></svg>