<svg xmlns="http://www.w3.org/2000/svg" viewBox="0 -960 960 960" width="32" height="32"><path d="M435.13-288.51h90q25.59 0 44.07-18.39 18.49-18.39 18.49-44.18v-92.56q0-25.79-18.49-44.18-18.48-18.38-44.07-18.38H422.82v-102.72q0-5.13 3.46-8.72 3.46-3.59 8.85-3.59h85.95q10.7 0 17.91-7.25 7.21-7.25 7.21-18t-7.21-17.88q-7.21-7.13-17.91-7.13h-85.95q-25.79 0-44.18 18.39t-18.39 44.18v257.84q0 25.79 18.39 44.18t44.18 18.39Zm-12.31-167.44h102.31q5.13 0 8.72 3.59 3.59 3.59 3.59 8.72v92.56q0 5.13-3.59 8.72-3.59 3.59-8.72 3.59h-90q-5.39 0-8.85-3.59t-3.46-8.72v-104.87ZM202.57-140q-25.79 0-44.18-18.39T140-202.57v-554.86q0-25.79 18.39-44.18T202.57-820h554.86q25.79 0 44.18 18.39T820-757.43v554.86q0 25.79-18.39 44.18T757.43-140H202.57Zm0-50.26h554.86q4.62 0 8.47-3.84 3.84-3.85 3.84-8.47v-554.86q0-4.62-3.84-8.47-3.85-3.84-8.47-3.84H202.57q-4.62 0-8.47 3.84-3.84 3.85-3.84 8.47v554.86q0 4.62 3.84 8.47 3.85 3.84 8.47 3.84Zm-12.31-579.48v579.48-579.48Z"/></svg>