<svg xmlns="http://www.w3.org/2000/svg" height="40" viewBox="0 -960 960 960" width="40"><path d="M454.873-452.975v138.924q0 10.679 7.262 17.903 7.263 7.224 18 7.224 10.736 0 17.864-7.224t7.128-17.903v-138.924h138.668q10.679 0 17.903-7.263 7.224-7.263 7.224-18 0-10.736-7.224-17.864t-17.903-7.128H505.127v-138.667q0-10.68-7.262-17.904-7.263-7.224-18-7.224-10.736 0-17.864 7.224t-7.128 17.904v138.667H316.205q-10.679 0-17.903 7.263-7.224 7.263-7.224 17.999 0 10.737 7.224 17.865 7.224 7.128 17.903 7.128h138.668Zm24.978 352.974q-78.606 0-147.983-29.92-69.377-29.92-120.697-81.21-51.32-51.291-81.245-120.629-29.925-69.337-29.925-148.173t29.92-148.204q29.92-69.369 81.21-120.682 51.291-51.314 120.629-81.247 69.337-29.933 148.173-29.933t148.204 29.925q69.369 29.925 120.682 81.225 51.314 51.3 81.247 120.65Q859.999-558.85 859.999-480v306.59q0 30.401-21.504 51.905t-51.893 21.504H479.851Zm.124-50.255q138.07 0 233.919-95.825 95.85-95.824 95.85-233.894t-95.825-233.919q-95.824-95.85-233.894-95.85t-233.919 95.825q-95.85 95.824-95.85 233.894t95.825 233.919q95.824 95.85 233.894 95.85ZM480-478.103Z"/></svg>