<svg xmlns="http://www.w3.org/2000/svg" height="40" viewBox="0 -960 960 960" width="40"><path d="M279.488-140.001q-25.609 0-44.086-18.478-18.478-18.477-18.478-44.086v-447.179q0-25.608 18.478-44.086 18.477-18.477 44.086-18.477h95.385v-85.128q0-25.609 18.378-44.086 18.378-18.478 44.185-18.478h85.384q25.609 0 44.086 18.478 18.478 18.477 18.478 44.086v85.128h95.128q25.609 0 44.086 18.477 18.478 18.478 18.478 44.086v447.179q0 25.609-18.478 44.086-18.477 18.478-44.086 18.478v4.615q0 14.692-10.346 25.038-10.346 10.347-25.038 10.347t-25.038-10.347q-10.346-10.346-10.346-25.038v-4.615H350.256v4.615q0 14.692-10.346 25.038-10.346 10.347-25.038 10.347t-25.038-10.347q-10.346-10.346-10.346-25.038v-4.615Zm0-50.255h401.024q5.385 0 8.847-3.462 3.462-3.462 3.462-8.847v-447.179q0-5.385-3.462-8.846-3.462-3.462-8.847-3.462H279.488q-5.385 0-8.847 3.462-3.462 3.461-3.462 8.846v447.179q0 5.385 3.462 8.847 3.462 3.462 8.847 3.462Zm120.253-406.667q-10.612 0-17.74 7.224-7.128 7.224-7.128 17.904v291.282q0 10.679 7.261 17.903 7.262 7.224 17.997 7.224 10.484 0 17.74-7.224 7.257-7.224 7.257-17.903v-291.282q0-10.68-7.387-17.904t-18-7.224Zm160.257 0q-10.613 0-17.741 7.224t-7.128 17.904v291.282q0 10.679 7.261 17.903 7.262 7.224 17.997 7.224 10.484 0 17.741-7.224 7.256-7.224 7.256-17.903v-291.282q0-10.68-7.387-17.904t-17.999-7.224Zm-134.87-115.384h110.001v-85.128q0-5.385-3.59-8.847-3.59-3.462-8.719-3.462h-85.384q-5.385 0-8.847 3.462-3.461 3.462-3.461 8.847v85.128ZM480-426.154Z"/></svg>