<svg xmlns="http://www.w3.org/2000/svg" height="40" viewBox="0 -960 960 960" width="40"><path d="M136.566-303.18q-19.411-41.692-29.475-85.559t-10.064-89.774q0-79.26 29.92-148.609 29.919-69.35 81.749-121.188 51.829-51.839 121.166-81.764 69.338-29.925 148.584-29.925 79.246 0 148.614 29.92 69.369 29.92 121.221 81.749 51.852 51.829 81.785 121.167 29.933 69.337 29.933 148.583t-29.925 148.615q-29.925 69.368-81.764 121.22-51.838 51.852-121.188 81.785-69.349 29.933-148.609 29.933-45.907 0-89.774-10.064-43.867-10.064-85.559-29.475L123.893-85.41q-17.84 5.434-30.878-7.605-13.039-13.038-7.605-30.878l51.156-179.287Zm8.306 158.308 132.872-38q15.589-4.41 29.115-3.461 13.526.948 28.372 7.461 33.897 14.923 70.004 23.257 36.107 8.333 73.245 8.333 138.238 0 234.751-96.459 96.513-96.458 96.513-234.718 0-138.259-96.459-234.772t-234.718-96.513q-138.259 0-234.772 96.323-96.513 96.322-96.513 235.109 0 37.286 6.846 73.645 6.846 36.359 24.744 69.436 7 13.208 7.564 28.226.564 15.018-3.564 29.261l-38 132.872Zm308.513-306.616v98.257q0 10.679 7.263 17.904 7.263 7.224 18 7.224 10.736 0 17.864-7.224 7.128-7.225 7.128-17.904v-98.257h98.924q10.429 0 17.778-7.263 7.35-7.263 7.35-17.999 0-10.737-7.35-17.865-7.349-7.128-17.778-7.128H503.64v-98.667q0-10.679-7.263-17.904-7.263-7.224-17.999-7.224-10.737 0-17.865 7.224-7.128 7.225-7.128 17.904v98.667h-98.667q-10.679 0-17.903 7.263-7.225 7.263-7.225 18 0 10.736 7.225 17.864 7.224 7.128 17.903 7.128h98.667Zm24.128-26.025Z"/></svg>