<svg xmlns="http://www.w3.org/2000/svg" viewBox="0 -960 960 960" width="32" height="32"><path d="M162.57-180q-25.79 0-44.18-18.39T100-242.57v-474.86q0-25.79 18.39-44.18T162.57-780h385.61q10.59 0 17.92 7.53 7.34 7.52 6.54 18.39-.79 10.08-7.81 17.21-7.02 7.13-17.32 7.13H150.26v487.17q0 5.39 3.46 8.85t8.85 3.46h634.86q5.39 0 8.85-3.46t3.46-8.85v-289.74q0-10.45 7.25-17.79t18-7.34q10.75 0 17.88 7.34 7.13 7.34 7.13 17.79v289.74q0 25.79-18.39 44.18T797.43-180H162.57Zm-12.31-549.74v499.48-499.48ZM480-521.08l133.95-86.89q9.02-6 17.07-3.3 8.04 2.7 12.85 9.45 4.39 7.2 3.71 15.56-.68 8.36-10.12 14.36l-140.69 92.23q-7.82 5.21-16.6 5.27-8.79.07-16.68-4.88l-313.23-198.7v-51.76L480-521.08Zm279.91-118.41q-43.78 0-74.41-30.72-30.63-30.72-30.63-74.5t30.72-74.4q30.73-30.63 74.5-30.63 43.78 0 74.41 30.72 30.63 30.72 30.63 74.5t-30.72 74.41q-30.73 30.62-74.5 30.62Z"/></svg>