<svg xmlns="http://www.w3.org/2000/svg" height="40" viewBox="0 -960 960 960" width="40"><path d="M252.309-562.564h-89.744q-4.616 0-8.462 3.846-3.847 3.847-3.847 8.462v387.691q0 4.616 3.847 8.462 3.846 3.847 8.462 3.847h634.87q4.616 0 8.462-3.847 3.847-3.846 3.847-8.462v-387.691q0-4.615-3.847-8.462-3.846-3.846-8.462-3.846H405.64q-10.698 0-17.913-7.248-7.214-7.248-7.214-17.997 0-10.498 7.214-17.754 7.215-7.256 17.913-7.256h391.795q25.788 0 44.176 18.487t18.388 44.076v387.691q0 25.788-18.388 44.176t-44.176 18.388h-634.87q-25.788 0-44.176-18.388t-18.388-44.176v-387.691q0-25.589 18.388-44.076 18.388-18.487 44.176-18.487h89.744v-215.898q0-13.391 8.945-22.336 8.945-8.946 22.336-8.946h217.691q13.391 0 22.336 8.946 8.946 8.945 8.946 22.336v89.744q0 13.391-8.946 22.336-8.945 8.946-22.336 8.946H302.564v274.307q0 10.698-7.25 17.913-7.249 7.215-17.999 7.215t-17.878-7.215q-7.128-7.215-7.128-17.913v-129.18Zm-102.053 0V-150.256v-412.308 154.308-154.308Z"/></svg>