<svg xmlns="http://www.w3.org/2000/svg" viewBox="0 -960 960 960" width="32" height="32"><path d="m241.54-260-88.33 88.33q-14.77 14.77-33.99 6.76Q100-172.92 100-193.8v-603.63q0-25.79 18.39-44.18T162.57-860h386q11.04 0 18.69 8.05 7.64 8.05 6.43 19.34-1.46 9.66-8.59 16.26-7.12 6.61-16.53 6.61h-386q-4.62 0-8.47 3.84-3.84 3.85-3.84 8.47v559.48l69.54-72.31h577.63q4.62 0 8.47-3.84 3.84-3.85 3.84-8.47v-286.02q0-10.45 7.25-17.79t18-7.34q10.75 0 17.88 7.34 7.13 7.34 7.13 17.79v286.02q0 25.79-18.39 44.18T797.43-260H241.54Zm518.37-450.36q-43.78 0-74.41-30.72-30.63-30.72-30.63-74.5t30.72-74.41q30.73-30.62 74.5-30.62 43.78 0 74.41 30.72 30.63 30.72 30.63 74.5t-30.72 74.4q-30.73 30.63-74.5 30.63Zm-609.65-87.07v514.87V-809.74-797.43Z"/></svg>