<svg xmlns="http://www.w3.org/2000/svg" height="40" viewBox="0 -960 960 960" width="40"><path d="M447.437-389.745v73.386q0 13.576 9.565 22.736 9.566 9.16 23.23 9.16 13.665 0 22.793-9.498 9.128-9.497 9.128-23.065v-72.719h74.206q13.354 0 22.958-9.565 9.605-9.566 9.605-23.23 0-13.665-9.605-22.998-9.604-9.333-22.958-9.333h-74.206v-73.386q0-13.576-9.128-22.736t-22.868-9.16q-13.74 0-23.23 9.16t-9.49 22.736v73.386h-73.796q-13.354 0-22.958 9.566-9.605 9.565-9.605 23.229 0 13.665 9.605 22.998 9.604 9.333 22.958 9.333h73.796ZM282.565-142.309q-25.609 0-44.086-18.478-18.478-18.477-18.478-44.086v-434.46q0-25.608 18.478-44.086 18.477-18.477 44.086-18.477h394.87q25.609 0 44.086 18.477 18.478 18.478 18.478 44.086v434.46q0 25.609-18.478 44.086-18.477 18.478-44.086 18.478h-394.87Zm0-50.255h394.87q4.616 0 8.462-3.847 3.847-3.846 3.847-8.462v-434.46q0-4.615-3.847-8.462-3.846-3.846-8.462-3.846h-394.87q-4.616 0-8.462 3.846-3.847 3.847-3.847 8.462v434.46q0 4.616 3.847 8.462 3.846 3.847 8.462 3.847Zm-8.206-574.872q-10.679 0-17.903-7.263-7.225-7.263-7.225-17.999 0-10.737 7.225-17.865 7.224-7.128 17.903-7.128h411.692q10.68 0 17.904 7.263t7.224 18q0 10.736-7.224 17.864t-17.904 7.128H274.359Zm-4.103 115.795V-192.564v-459.077Z"/></svg>