<svg xmlns="http://www.w3.org/2000/svg" viewBox="0 -960 960 960" width="32" height="32"><path d="M280.13-374.87q10.74 0 17.87-7.23 7.13-7.22 7.13-17.9v-160q0-10.68-7.27-17.9-7.26-7.23-17.99-7.23-10.74 0-17.87 7.23-7.13 7.22-7.13 17.9v160q0 10.68 7.27 17.9 7.26 7.23 17.99 7.23Zm200 0q10.74 0 17.87-7.23 7.13-7.22 7.13-17.9v-160q0-10.68-7.27-17.9-7.26-7.23-17.99-7.23-10.74 0-17.87 7.23-7.13 7.22-7.13 17.9v160q0 10.68 7.27 17.9 7.26 7.23 17.99 7.23Zm200 0q10.74 0 17.87-7.23 7.13-7.22 7.13-17.9v-160q0-10.68-7.27-17.9-7.26-7.23-17.99-7.23-10.74 0-17.87 7.23-7.13 7.22-7.13 17.9v160q0 10.68 7.27 17.9 7.26 7.23 17.99 7.23ZM162.57-270.26h634.86q4.62 0 8.47-3.84 3.84-3.85 3.84-8.47v-394.86q0-4.62-3.84-8.47-3.85-3.84-8.47-3.84H162.57q-4.62 0-8.47 3.84-3.84 3.85-3.84 8.47v394.86q0 4.62 3.84 8.47 3.85 3.84 8.47 3.84Zm-12.31 0v-419.48 419.48ZM162.57-220q-25.79 0-44.18-18.39T100-282.57v-394.86q0-25.79 18.39-44.18T162.57-740h52.3v-54.87q0-10.68 7.27-17.9 7.26-7.23 17.99-7.23 10.74 0 17.87 7.23 7.13 7.22 7.13 17.9V-740h189.74v-54.87q0-10.68 7.27-17.9 7.26-7.23 17.99-7.23 10.74 0 17.87 7.23 7.13 7.22 7.13 17.9V-740h189.74v-54.87q0-10.68 7.27-17.9 7.26-7.23 17.99-7.23 10.74 0 17.87 7.23 7.13 7.22 7.13 17.9V-740h52.3q25.79 0 44.18 18.39T860-677.43v394.86q0 25.79-18.39 44.18T797.43-220h-52.3v54.87q0 10.68-7.27 17.9-7.26 7.23-17.99 7.23-10.74 0-17.87-7.23-7.13-7.22-7.13-17.9V-220H505.13v54.87q0 10.68-7.27 17.9-7.26 7.23-17.99 7.23-10.74 0-17.87-7.23-7.13-7.22-7.13-17.9V-220H265.13v54.87q0 10.68-7.27 17.9-7.26 7.23-17.99 7.23-10.74 0-17.87-7.23-7.13-7.22-7.13-17.9V-220h-52.3Z"/></svg>