<svg xmlns="http://www.w3.org/2000/svg" height="40" viewBox="0 -960 960 960" width="40"><path d="M480-100.001q-78.769 0-148.115-29.962-69.346-29.961-120.653-81.269-51.308-51.307-81.269-120.653Q100.001-401.231 100.001-480v-277.434q0-19.717 17.116-28.204 17.115-8.488 32.884 3.076l179.64 134.641q26.308-41.103 56.654-84.372 30.346-43.269 66.397-88.115 10.744-13.077 27.308-13.013 16.564.064 27.308 13.013 35.666 44.846 66.204 87.743 30.539 42.898 56.847 84.744l179.64-134.641q15.769-11.564 32.884-3.076 17.116 8.487 17.116 28.204V-480q0 78.769-29.962 148.115-29.961 69.346-81.269 120.653-51.307 51.308-120.653 81.269Q558.769-100.001 480-100.001ZM220.001-360q0-50.564 21.27-112.115 21.269-61.551 61.807-132.628L150.256-719.487V-480q0 68.822 27.117 127.746 27.116 58.924 73.168 101.616-14.205-24.052-22.372-51.476-8.168-27.424-8.168-57.886ZM480-150.256q86.795 0 148.269-61.475Q689.744-273.205 689.744-360q0-80.616-56.09-189.424T480-775.026q-97.564 118.025-153.654 226.218-56.09 108.192-56.09 188.808 0 86.795 61.475 148.269Q393.205-150.256 480-150.256ZM739.999-360q0 30.462-8.168 57.886-8.167 27.424-22.372 51.476 46.052-42.692 73.168-101.616Q809.744-411.178 809.744-480v-239.487L656.922-604.691q40.538 70.82 61.807 132.576 21.27 61.756 21.27 112.115Z"/></svg>