<svg xmlns="http://www.w3.org/2000/svg" height="40" viewBox="0 -960 960 960" width="40"><path d="M451.898-736.409v-51.539q0-10.871 7.128-17.999 7.128-7.128 18-7.128 10.871 0 17.999 7.128 7.128 7.128 7.128 17.999v50.719q33.077 3.384 60.667 21.461 27.59 18.077 45.666 45.718 6.436 9.308 4.526 19.551-1.91 10.243-10.962 16.679-9.307 6.436-19.55 4.525-10.244-1.91-16.679-10.961-14.026-22.667-37.398-35.577-23.372-12.911-49.808-12.911-18.154 0-35.821 5.308-17.666 5.308-32.59 16.257-8.538 6.256-18.23 3.872-9.692-2.385-15.948-11.179-6.256-8.795-4.269-18.359 1.987-9.564 10.781-15.82 15.18-11.539 32.77-18.436 17.59-6.898 36.59-9.308Zm319.948 625.381-161.641-161.23q-19.154 21.949-48.359 35.051-29.205 13.103-59.693 14.334v50.051q0 10.872-7.128 18t-17.999 7.128q-10.872 0-18-7.128t-7.128-18v-51.641q-46.308-7.692-77.884-35.205-31.577-27.513-49.756-69.744-4.462-10.256-.475-20.384 3.987-10.128 14.244-14.333 10.076-4.204 19.986.308 9.91 4.513 14.32 14.769 15.692 35.923 43.449 56.616 27.756 20.692 68.423 20.692 27.18 0 50.757-9.487 23.577-9.488 38.629-27.642L111.028-771.436q-7.231-7.23-7.423-17.704-.192-10.474 7.423-18.09 7.615-7.615 17.897-7.615 10.281 0 17.897 7.615L807.64-146.411q7.23 7.23 7.423 17.499.192 10.269-7.423 17.884-7.359 7.615-17.769 7.615-10.41 0-18.025-7.615Z"/></svg>