<svg xmlns="http://www.w3.org/2000/svg" height="40" viewBox="0 -960 960 960" width="40"><path d="M100.001-717.435q0-25.788 18.388-44.176t44.176-18.388h634.87q25.788 0 44.176 18.388t18.388 44.176v116.924q0 10.679-7.263 17.903-7.263 7.224-18 7.224-10.736 0-17.864-7.224t-7.128-17.903v-116.924q0-4.616-3.847-8.462-3.846-3.847-8.462-3.847h-634.87q-4.616 0-8.462 3.847-3.847 3.846-3.847 8.462v116.924q0 10.679-7.263 17.903-7.263 7.224-17.999 7.224-10.737 0-17.865-7.224-7.128-7.224-7.128-17.903v-116.924Zm62.564 537.434q-25.788 0-44.176-18.388t-18.388-44.176v-116.924q0-10.679 7.263-17.903 7.263-7.224 18-7.224 10.736 0 17.864 7.224t7.128 17.903v116.924q0 4.616 3.847 8.462 3.846 3.847 8.462 3.847h634.87q4.616 0 8.462-3.847 3.847-3.846 3.847-8.462v-116.924q0-10.679 7.263-17.903 7.263-7.224 17.999-7.224 10.737 0 17.865 7.224 7.128 7.224 7.128 17.903v116.924q0 25.788-18.388 44.176t-44.176 18.388h-634.87Zm237.348-114.872q6.907 0 13.256-3.41 6.348-3.41 9.523-10.23L560-583.13l57.308 114.617q3.152 6.82 9.455 10.23t13.237 3.41h194.871q10.679 0 17.903-7.262 7.225-7.263 7.225-18 0-10.736-7.225-17.864-7.224-7.128-17.903-7.128h-179l-73.179-145.95q-2.841-6.717-9.012-9.384-6.171-2.666-13.336-2.666-7.164 0-13.615 2.666-6.452 2.667-9.421 9.384L400-376.87l-57.308-114.617q-3.152-6.82-9.455-10.23T320-505.127H125.129q-10.679 0-17.903 7.262-7.225 7.263-7.225 18 0 10.736 7.225 17.864 7.224 7.128 17.903 7.128h179l73.179 146.36q3.14 6.82 9.419 10.23t13.186 3.41ZM480-480Z"/></svg>