<svg xmlns="http://www.w3.org/2000/svg" height="40" viewBox="0 -960 960 960" width="40"><path d="M417.898-431.488h124.871l26.667 72.154q1.948 6.436 7.06 9.628 5.112 3.193 11.196 3.193 10.615 0 16.628-8.286 6.013-8.285 2.038-18.381L505.153-640.666q-2.205-5.641-6.996-8.846t-10.49-3.205h-14.762q-6.084 0-10.764 3.192-4.679 3.192-6.628 9.243L354.642-372.18q-3.436 9.411 2.141 17.539 5.577 8.128 15.828 8.128 5.876 0 10.748-3.334 4.872-3.333 6.821-9.102l27.718-72.539Zm11.435-36.922 49.077-134.975h3.18l49.743 134.975h-102ZM480-100.001q-78.769 0-148.115-29.77-69.346-29.769-120.653-81.076-51.308-51.308-81.269-120.461-29.962-69.154-29.962-147.923 0-32.307 5.206-63.699 5.205-31.391 15.487-62.018 3.179-9.59 12.602-13.18 9.423-3.589 18.063 1.481 9.451 4.557 13.366 15.038 3.916 10.481 1.147 20.942-7.026 24.769-11.321 49.996-4.295 25.226-4.295 50.671 0 138.045 95.85 233.894 95.849 95.85 233.894 95.85 138.045 0 233.894-95.85 95.85-95.849 95.85-233.894 0-138.045-95.85-233.894-95.849-95.85-233.894-95.85-26.383 0-52.152 3.898-25.77 3.897-50.925 11.949-10.461 3.179-20.512-.936-10.051-4.116-14.436-13.372-4.641-9.256.116-18.486 4.756-9.231 14.217-12.667 28.872-9.82 58.949-15.23 30.076-5.411 60.538-5.411 79.153 0 149.089 29.77 69.936 29.769 122.131 81.268 52.196 51.5 82.59 120.846Q859.999-558.769 859.999-480t-29.962 148.115q-29.961 69.346-81.269 120.653-51.307 51.308-120.653 81.269Q558.769-100.001 480-100.001ZM224.999-693.18q-17.639 0-30.19-12.629-12.551-12.63-12.551-30.269 0-17.639 12.629-30.19 12.63-12.551 30.269-12.551 17.639 0 30.19 12.629 12.551 12.63 12.551 30.269 0 17.639-12.629 30.19-12.63 12.551-30.269 12.551ZM480-480Z"/></svg>