<svg xmlns="http://www.w3.org/2000/svg" height="40" viewBox="0 -960 960 960" width="40"><path d="M114.872-520q0 87.488 66.091 145.731 66.09 58.244 156.091 60.038l-67.848-67.847q-7.23-7.231-7.423-17.397-.192-10.166 7.34-17.987 7.647-7.82 17.954-7.82 10.308 0 18.128 7.82l105.949 105.538q9.358 9.359 9.358 21.923 0 12.564-9.358 21.923L305-161.924q-7.231 7.23-17.499 7.217-10.269-.012-18.173-7.916-7.275-7.532-7.275-17.737 0-10.205 7.358-17.768l65.95-66.104q-110.487.128-190.615-72.897Q64.617-410.154 64.617-520q0-109.307 77.269-184.653 77.269-75.346 186.961-75.346h76.025q10.852 0 17.99 7.142 7.137 7.141 7.137 17.999 0 10.858-7.137 17.986-7.138 7.128-17.99 7.128h-75.641q-88.743 0-151.551 60.757Q114.872-608.231 114.872-520Zm446.584 339.999q-13.737 0-22.596-8.907t-8.859-22.375v-193.436q0-13.717 8.907-22.576t22.374-8.859h267.261q13.738 0 22.597 8.907 8.859 8.907 8.859 22.375v193.436q0 13.717-8.907 22.576t-22.375 8.859H561.456Zm0-343.845q-13.737 0-22.596-8.907t-8.859-22.375v-193.436q0-13.717 8.907-22.576t22.374-8.859h267.261q13.738 0 22.597 8.907 8.859 8.907 8.859 22.375v193.436q0 13.717-8.907 22.576t-22.375 8.859H561.456Zm18.8-50.255h229.488v-155.643H580.256v155.643Z"/></svg>