<svg xmlns="http://www.w3.org/2000/svg" height="40" viewBox="0 -960 960 960" width="40"><path d="m341.744-381.488 24.077 53.922q2.343 4.949 7.415 4.949t7.149-4.949l24.333-53.922 53.922-24.077q4.949-2.343 4.949-7.415t-4.949-7.149l-53.922-24.333-24.333-53.922q-2.344-4.949-7.416-4.949-5.072 0-7.148 4.949l-24.077 53.922-53.923 24.333q-4.948 2.344-4.948 7.415 0 5.072 4.948 7.149l53.923 24.077Zm261.002-50.764-34.284-15.877q-4.949-2.344-4.949-7.415 0-5.072 4.949-7.149l34.284-15.793 15.793-34.284q2.343-4.948 7.415-4.948t7.149 4.948l15.876 34.284 34.457 15.793q4.948 2.344 4.948 7.415 0 5.072-4.948 7.149l-34.457 15.877-15.876 34.456q-2.344 4.949-7.416 4.949-5.072 0-7.148-4.949l-15.793-34.456ZM162.565-779.999l51.615 104.717q7.229 14.677 21.004 23.082 13.774 8.405 29.303 8.405 31.295 0 47.596-26.423 16.302-26.423 2.558-54.551l-27.204-55.23h84.461l51.615 104.717q7.23 14.677 21.004 23.082 13.775 8.405 29.304 8.405 31.294 0 47.596-26.423 16.301-26.423 2.301-54.551l-26.948-55.23h84.205l51.615 104.717q7.23 14.677 20.992 23.082 13.762 8.405 29.641 8.405 31.341 0 47.585-26.472 16.244-26.473 2.244-54.502l-27.205-55.23h91.588q25.788 0 44.176 18.388t18.388 44.176v474.87q0 25.788-18.388 44.176t-44.176 18.388h-634.87q-25.788 0-44.176-18.388t-18.388-44.176v-474.87q0-25.788 18.388-43.984 18.388-18.195 44.176-18.58ZM150.256-593.54v350.975q0 5.385 3.462 8.847 3.462 3.462 8.847 3.462h634.87q5.385 0 8.847-3.462 3.462-3.462 3.462-8.847V-593.54H150.256Zm0 0v363.284V-593.54Z"/></svg>