<svg xmlns="http://www.w3.org/2000/svg" height="40" viewBox="0 -960 960 960" width="40"><path d="M150.256-230.256V-593.54v363.284Zm12.309 50.255q-25.788 0-44.176-18.388t-18.388-44.176v-474.87q0-25.788 18.388-44.176t44.176-18.388l51.615 104.717q7.229 14.677 21.004 23.082 13.774 8.405 29.303 8.405 31.295 0 47.596-26.423 16.302-26.423 2.558-54.551l-27.204-55.23h84.461l51.615 104.717q7.23 14.677 21.004 23.082 13.775 8.405 29.304 8.405 31.294 0 47.596-26.423 16.301-26.423 2.301-54.551l-26.948-55.23h84.205l51.615 104.717q7.23 14.677 20.992 23.082 13.762 8.405 29.641 8.405 31.341 0 47.585-26.472 16.244-26.473 2.244-54.502l-27.205-55.23h91.588q25.788 0 44.176 18.388t18.388 44.176v133.204q0 12.622-8.946 21.567-8.945 8.946-21.567 8.946h-19.742v-39.822H150.256v350.975q0 5.385 3.462 8.847 3.462 3.462 8.847 3.462h298.974q10.698 0 17.913 7.249 7.214 7.25 7.214 18t-7.214 17.878q-7.215 7.128-17.913 7.128H162.565Zm402.051 8.718v-61.897q0-5.864 2.205-11.393 2.205-5.53 7.142-10.465l207.651-206.695q7.519-7.521 16.282-10.586 8.763-3.065 17.434-3.065 9.285 0 18.169 3.538 8.885 3.539 15.961 10.615l37 37.385q6.872 7.461 10.205 16.153 3.334 8.693 3.334 17.385 0 8.692-3.565 17.692-3.564 9-10.439 16.544L679.658-149.346q-4.941 4.934-10.47 7.139-5.53 2.206-11.394 2.206h-61.897q-13.39 0-22.336-8.946-8.945-8.945-8.945-22.336Zm287.691-219.025-37-37.385 37 37.385Zm-240 202.615h38l129.847-130.462-18.385-19-18.615-18.769-130.847 130.231v38Zm149.462-149.462-18.615-18.769 37 37.769-18.385-19Z"/></svg>