<svg xmlns="http://www.w3.org/2000/svg" height="40" viewBox="0 -960 960 960" width="40"><path d="M480-729.744q-105.462 0-200.269 35.218-94.808 35.218-177.269 98.423l112.615 112.206q57.205-43.283 123.59-67.552Q405.051-575.718 480-575.718q43.464 0 82.923 9.961 39.46 9.962 76.383 27.987 11.897 4.462 11.871 17.808-.025 13.346-12.564 18.987-54.512 27.487-88.666 81.73-34.153 54.244-34.153 125.431 0 10.813 1.602 20.659 1.603 9.846 4.757 20.436 2.897 10.59 5.641 20.629 2.744 10.039 2.744 21.038 0 19.859-14.064 31.66-14.063 11.801-32.936 11.801-10.538 0-20.598-3.977-10.06-3.977-18.657-12.869L68.847-559.616q-7.205-7.205-11.23-16.876-4.026-9.67-4.026-19.893 0-11.509 4.692-21.639 4.693-10.129 14.18-17.744 87.153-70.025 191.512-107.128Q368.334-779.999 480-779.999q111.666 0 216.025 37.103 104.359 37.103 191.512 107.128 9.487 7.615 14.18 17.725 4.692 10.11 4.692 21.599 0 10.315-4.026 19.969-4.025 9.654-11.23 16.859l-47.77 47.564q-6.769 7.045-17.269 7.099-10.499.055-17.653-7.099-7.154-7.153-7.089-17.435.064-10.282 7.089-17.487l49.078-49.129q-82.462-63.205-177.27-98.423Q585.462-729.744 480-729.744Zm188.875 581.28q-16.337 0-27.453-11.057-11.115-11.058-11.115-27.404v-112.859q0-16.141 11.058-27.256 11.057-11.115 27.403-11.115h2.334v-39.59q0-31.872 22.295-54.166 22.294-22.295 54.166-22.295 31.615 0 53.91 22.295 22.295 22.294 22.295 54.166v39.59h2.333q16.276 0 26.984 11.057 10.708 11.058 10.708 27.404v112.859q0 16.141-11.051 27.256-11.052 11.115-27.389 11.115H668.875Zm37.611-189.691h81.898v-39.59q0-17.82-11.5-29.449-11.5-11.628-29.321-11.628-18.077 0-29.577 11.628-11.5 11.629-11.5 29.449v39.59Z"/></svg>