<svg xmlns="http://www.w3.org/2000/svg" viewBox="0 -960 960 960" width="32" height="32"><path d="M601.82-780q15.03 0 28.21 6.42 13.17 6.42 22.05 18.32l179.87 237.44q12.95 16.68 12.95 37.71t-12.95 37.93L652.49-204.74q-8.88 11.9-21.93 18.32-13.04 6.42-28.07 6.42H491.03q-10.68 0-17.91-7.26-7.22-7.27-7.22-18 0-10.74 7.22-17.87 7.23-7.13 17.91-7.13h110.79q3.08 0 5.71-1.15 2.62-1.15 4.29-3.46l180.13-237.44q2.69-3.46 2.69-7.69t-2.69-7.69L611.82-725.13q-1.67-2.31-4.29-3.46-2.63-1.15-5.71-1.15H162.57q-5.39 0-8.85 3.46t-3.46 8.85v184.1q0 10.68-7.27 17.9-7.26 7.22-18 7.22-10.73 0-17.86-7.22-7.13-7.22-7.13-17.9v-184.1q0-25.61 18.48-44.09Q136.96-780 162.57-780h439.25ZM242.69-140q-10.74 0-17.87-7.23-7.13-7.22-7.13-17.9V-260h-94.87q-10.68 0-17.9-7.26-7.23-7.27-7.23-18 0-10.74 7.23-17.87 7.22-7.13 17.9-7.13h94.87v-94.87q0-10.68 7.27-17.9 7.26-7.23 18-7.23 10.73 0 17.86 7.23 7.13 7.22 7.13 17.9v94.87h94.87q10.68 0 17.9 7.27 7.23 7.26 7.23 18 0 10.73-7.23 17.86-7.22 7.13-17.9 7.13h-94.87v94.87q0 10.68-7.26 17.9-7.27 7.23-18 7.23Zm229.95-340Z"/></svg>