<svg xmlns="http://www.w3.org/2000/svg" height="40" viewBox="0 -960 960 960" width="40"><path d="M152.564-130.001q-25.705 0-44.134-18.429Q90-166.859 90-192.564V-797.05q0-5.577 4.68-7.468t8.885 2.315L147-758.768l54.694-55.693q4.653-4.897 11.185-4.897 6.531 0 11.428 4.897L280-758.768l55.693-55.693q4.654-4.897 11.186-4.897 6.531 0 11.427 4.897L413-758.768l55.693-55.693q4.654-4.897 11.186-4.897 6.531 0 11.428 4.897L547-758.768l54.694-55.693q4.653-4.897 11.185-4.897 6.531 0 11.428 4.897L680-758.768l55.693-55.693q4.654-4.897 11.186-4.897 6.531 0 11.427 4.897L813-758.768l43.435-43.435q4.205-4.206 8.885-2.315 4.679 1.891 4.679 7.468v604.486q0 25.705-18.429 44.134-18.429 18.429-44.134 18.429H152.564Zm0-50.255h302.309v-279.488H140.256v267.18q0 5.385 3.461 8.847 3.462 3.461 8.847 3.461Zm352.563 0h302.309q5.385 0 8.847-3.461 3.461-3.462 3.461-8.847v-102.309H505.127v114.617Zm0-164.871h314.617v-114.617H505.127v114.617ZM140.256-509.999h679.488v-143.848H140.256v143.848Z"/></svg>