<svg xmlns="http://www.w3.org/2000/svg" viewBox="0 -960 960 960" width="32" height="32"><path d="M242.57-140q-25.61 0-44.09-18.48Q180-176.96 180-202.57v-356.15q0-15.03 6.52-28.2 6.53-13.18 18.61-21.8l237.43-178.59q16.18-12.56 37.27-12.56 21.09 0 37.61 12.56l237.43 178.59q12.08 8.62 18.61 21.8 6.52 13.17 6.52 28.2v356.15q0 25.61-18.48 44.09Q743.04-140 717.43-140H242.57Zm0-50.26h474.86q5.39 0 8.85-3.46t3.46-8.85v-358.04q0-3.08-1.34-5.71-1.35-2.63-3.66-4.3L487.31-745.85q-3.08-2.69-7.31-2.69-4.23 0-7.31 2.69L235.26-570.62q-2.31 1.67-3.66 4.3-1.34 2.63-1.34 5.71v358.04q0 5.39 3.46 8.85t8.85 3.46ZM480-469.92ZM332.31-306.15h295.38v37.11q0 7.42 5.42 12.85 5.43 5.42 13.04 5.42 7.62 0 13.04-5.42 5.42-5.43 5.42-13.04v-129.23q0-30.46-21.69-52.15-21.69-21.7-52.15-21.7h-97.95q-13.29 0-22.29 9-8.99 8.99-8.99 22.28v97.95H332.31v-147.69q0-7.61-5.42-13.04-5.43-5.42-13.04-5.42-7.62 0-13.04 5.42-5.42 5.43-5.42 13.04v221.54q0 7.61 5.42 13.04 5.42 5.42 13.04 5.42 7.61 0 13.04-5.42 5.42-5.43 5.42-12.85v-37.11Zm64.67-55.39q19.41 0 32.75-13.4 13.35-13.4 13.35-32.81 0-19.4-13.4-32.75-13.4-13.35-32.81-13.35-19.41 0-32.75 13.4-13.35 13.4-13.35 32.81 0 19.41 13.4 32.76 13.4 13.34 32.81 13.34Z"/></svg>