<svg xmlns="http://www.w3.org/2000/svg" height="40" viewBox="0 -960 960 960" width="40"><path d="M604.872-617.024v-87.436q0-51.812-37.159-88.547-37.158-36.735-90.944-36.735-44.846 0-77.885 26.18-33.039 26.18-43.039 69.411-3.205 10.871-11.435 16.82t-17.82 4.026q-11.538-2.179-17.589-10.82-6.051-8.641-3.462-18.897 11.666-60.077 59.736-98.526 48.069-38.449 111.494-38.449 74.238 0 126.298 51.36t52.06 124.177v87.436h62.308q26.09 0 44.327 18.237t18.237 44.326v250.771q0 12.564-7.863 18.846t-17.144 6.282q-9.281 0-17.265-6.39-7.983-6.389-7.983-18.687v-250.822q0-5.385-3.462-8.846-3.462-3.462-8.847-3.462H465.613q-12.564 0-18.846-7.863-6.281-7.862-6.281-17.144 0-9.281 6.281-17.264 6.282-7.984 18.846-7.984h139.259ZM242.565-100.001q-26.09 0-44.327-18.237t-18.237-44.327v-391.896q0-23.025 15.052-40.41 15.051-17.384 37.666-20.82L25.128-823.283q-7.231-7.23-7.09-17.499.141-10.269 7.628-17.884t17.692-7.615q10.205 0 17.563 7.615L860.974-58.614q7.23 7.23 7.218 17.5-.013 10.269-7.628 17.884-7.616 7.615-17.692 7.615-10.077 0-17.692-7.615l-81.899-82.156q-8.744 3.41-16.231 4.397-7.487.988-17.308.988H242.565Zm455.076-50.255L530.179-318.488q-9.846 9.846-22.017 14.667-12.171 4.82-26.162 4.82-28.487 0-47.961-19.269t-19.474-47.542q0-14.523 5.025-26.868 5.026-12.345 14.616-21.935L280.718-566.769h-38.153q-5.385 0-8.847 3.462-3.462 3.461-3.462 8.846v391.896q0 5.385 3.462 8.847 3.462 3.462 8.847 3.462h455.076ZM489.385-358.513Zm108.486-76.794Z"/></svg>