<svg xmlns="http://www.w3.org/2000/svg" height="40" viewBox="0 -960 960 960" width="40"><path d="m820.771-68.052-107.13-106.515v20.001q-.564 18.743-14.249 32.038-13.684 13.295-32.423 13.295H156.002q-19.487 0-33.128-13.641-13.641-13.641-13.641-33.128v-375.075q0-19.487 13.641-33.128 13.641-13.641 33.128-13.641h104.204l23.924-26.488L68.514-819.95q-7.436-7.223-7.628-17.701-.192-10.477 7.663-18.041 7.6-7.82 17.871-7.82 10.273 0 17.837 7.82L856.77-103.435q7.435 7.552 7.628 17.686.192 10.133-7.663 17.825-7.856 7.692-17.983 7.692t-17.981-7.82Zm-652.052-91.436h485.64q3.847 0 6.539-2.692 2.693-2.693 2.693-6.539v-55.897L540.795-347.412q.385 1.538.385 2.885v2.884q-2.564 52.206-39.82 87.693-37.257 35.487-89.821 35.487-54.153 0-92.076-37.923-37.923-37.923-37.923-92.076 0-52.564 35.487-89.82 35.488-37.257 87.693-39.821h2.884q1.347 0 2.885.385l-49.873-49.873H168.719q-3.846 0-6.539 2.693-2.692 2.692-2.692 6.539v349.64q0 3.846 2.692 6.539 2.693 2.692 6.539 2.692Zm242.856-109.23q33.247 0 56.478-23.266 23.231-23.267 23.231-56.514t-23.107-56.478q-23.106-23.231-56.481-23.231-33.054 0-56.478 23.107-23.423 23.106-23.423 56.481 0 33.055 23.266 56.478 23.267 23.423 56.514 23.423Zm302.271-262.359v124.771q0 10.679-7.263 17.903-7.263 7.224-18 7.224-10.736 0-17.864-7.227-7.128-7.228-7.128-18.105v-111.848q0-3.847-2.693-6.539-2.692-2.693-6.539-2.693H532.05l-63.436-63.435q-9.051-9.051-7.716-18.821 1.334-9.77 8.255-16.563 6.921-6.793 16.91-7.922 9.989-1.129 19.012 7.922l48.513 48.564h113.489q19.487 0 33.128 13.641 13.641 13.641 13.641 33.128Zm43.692-173.539h-11.666q-6.308 0-11.039-4.731t-4.731-11.038v-122.636q0-6.08 4.731-10.76 4.731-4.679 11.039-4.679h80.382q8.397 0 13.16 6.885 4.763 6.884 1.225 15.038l-42.076 94.896h29.083q8.686 0 13.16 7.487t.526 15.641l-69.025 130.562q-3.205 5.411-8.987 4.206-5.782-1.206-5.782-7.222v-113.649ZM663.591-396.05Zm-151.385 19.844Z"/></svg>