<svg xmlns="http://www.w3.org/2000/svg" height="40" viewBox="0 -960 960 960" width="40"><path d="m351.103-338.053-35.744 141.668q-1.715 8.497-7.86 13.21-6.144 4.712-14.721 4.712-11.623 0-18.931-9.256-7.307-9.256-4.128-20.487l32.565-129.847H182.335q-11.997 0-19.845-9.477-7.847-9.478-4.667-21.366 1.948-8.489 8.704-13.95 6.757-5.462 15.808-5.462h132.384l46.308-183.384H241.078q-11.997 0-19.844-9.54-7.848-9.54-4.668-21.504 1.948-8.545 8.705-13.878 6.756-5.333 15.807-5.333H373.52l35.276-141.668q1.715-8.497 7.86-13.21 6.144-4.712 14.721-4.712 11.623 0 18.725 8.923 7.103 8.922 4.334 20.409l-31.898 130.258h186.359l35.334-141.668q1.564-8.435 7.846-13.179 6.282-4.743 14.783-4.743 11.521 0 18.65 8.923 7.13 8.922 4.36 20.409l-32.154 130.258h119.949q11.997 0 19.845 9.477 7.847 9.478 4.667 21.366-1.948 8.489-8.704 13.95-6.757 5.462-15.808 5.462H645.281l-46.052 183.384h119.693q11.997 0 19.844 9.54 7.848 9.54 4.668 21.504-1.948 8.545-8.705 13.878-6.756 5.333-15.807 5.333H586.48l-35.943 141.668q-1.564 8.435-7.732 13.179-6.169 4.743-14.78 4.743-11.459 0-18.883-9.256-7.424-9.256-4.244-20.487l32.564-129.847H351.103Zm12.692-50.255h186.256l46.154-183.384H409.949l-46.154 183.384Z"/></svg>