<svg xmlns="http://www.w3.org/2000/svg" height="40" viewBox="0 -960 960 960" width="40"><path d="M202.565-140.001q-25.788 0-44.176-18.388t-18.388-44.176v-554.87q0-25.788 18.388-44.176t44.176-18.388h554.87q25.788 0 44.176 18.388t18.388 44.176v554.87q0 25.788-18.388 44.176t-44.176 18.388h-554.87Zm-12.309-354.872v292.308q0 4.616 3.847 8.462 3.846 3.847 8.462 3.847h554.87q4.616 0 8.462-3.847 3.847-3.846 3.847-8.462v-292.308H655.127v190H304.873v-190H190.256Zm164.872 139.745h249.744v-139.745H355.128v139.745ZM190.256-545.127h579.488v-212.308q0-4.616-3.847-8.462-3.846-3.847-8.462-3.847h-554.87q-4.616 0-8.462 3.847-3.847 3.846-3.847 8.462v212.308Zm128.853-95.898q-12.673 0-21.532-8.981-8.859-8.98-8.859-21.653 0-12.674 8.981-21.532 8.98-8.859 21.653-8.859 12.673 0 21.532 8.98t8.859 21.654q0 12.673-8.98 21.532t-21.654 8.859Zm160 0q-12.673 0-21.532-8.981-8.859-8.98-8.859-21.653 0-12.674 8.981-21.532 8.98-8.859 21.653-8.859 12.673 0 21.532 8.98t8.859 21.654q0 12.673-8.98 21.532t-21.654 8.859Zm160 0q-12.673 0-21.532-8.981-8.859-8.98-8.859-21.653 0-12.674 8.981-21.532 8.98-8.859 21.653-8.859 12.673 0 21.532 8.98t8.859 21.654q0 12.673-8.98 21.532-8.981 8.859-21.654 8.859Z"/></svg>