<svg xmlns="http://www.w3.org/2000/svg" viewBox="0 -960 960 960" width="32" height="32"><path d="M202.57-140q-25.79 0-44.18-18.39T140-202.57v-554.86q0-25.79 18.39-44.18T202.57-820h554.86q25.79 0 44.18 18.39T820-757.43v554.86q0 25.79-18.39 44.18T757.43-140H202.57Zm0-50.26h554.86q4.62 0 8.47-3.84 3.84-3.85 3.84-8.47v-554.86q0-4.62-3.84-8.47-3.85-3.84-8.47-3.84H202.57q-4.62 0-8.47 3.84-3.84 3.85-3.84 8.47v554.86q0 4.62 3.84 8.47 3.85 3.84 8.47 3.84Zm-12.31-579.48v579.48-579.48ZM480-389.46l76.28 46.69q8.62 5.41 17.17-.9 8.55-6.31 6.34-16.66l-20.33-86.52 67.85-58.56q8.15-7.41 4.54-16.85-3.62-9.43-13.9-10.48l-88.82-7.49-34.57-81.44q-4.07-9.35-14.49-9.35-10.43 0-14.63 9.35l-34.57 81.44-88.82 7.49q-10.28 1.05-13.9 10.48-3.61 9.44 4.54 16.85l67.85 58.56-20.33 86.52q-2.21 10.35 6.34 16.66 8.55 6.31 17.17.9L480-389.46Z"/></svg>