<svg xmlns="http://www.w3.org/2000/svg" height="40" viewBox="0 -960 960 960" width="40"><path d="M301.582-537.052q-50.44 0-86.01-35.656-35.571-35.655-35.571-86.095t35.656-86.01q35.656-35.57 86.096-35.57 50.439 0 86.01 35.656 35.57 35.655 35.57 86.095t-35.656 86.01q-35.656 35.57-86.095 35.57Zm-.016-50.255q29.948 0 50.73-20.681 20.782-20.681 20.782-50.628 0-29.948-20.681-50.73-20.681-20.782-50.629-20.782-29.947 0-50.729 20.681-20.783 20.681-20.783 50.628 0 29.948 20.682 50.73 20.681 20.782 50.628 20.782Zm357.066 407.306q-50.44 0-86.01-35.656-35.57-35.656-35.57-86.096 0-50.439 35.656-86.01 35.655-35.57 86.095-35.57t86.01 35.656q35.57 35.656 35.57 86.095 0 50.44-35.656 86.01-35.655 35.571-86.095 35.571Zm-.016-50.255q29.948 0 50.73-20.682 20.782-20.681 20.782-50.628 0-29.948-20.681-50.73-20.681-20.782-50.628-20.782-29.948 0-50.73 20.681-20.782 20.681-20.782 50.629 0 29.947 20.681 50.729 20.681 20.783 50.628 20.783ZM201.54-201.54q-7.231-7.23-7.231-17.563 0-10.333 7.231-17.436L724.231-759.23q7.23-7.23 17.307-7.038 10.076.192 17.307 7.423 7.231 7.231 7.231 17.564t-7.231 17.435L236.154-201.155q-7.231 7.231-17.307 7.038-10.077-.192-17.307-7.423Z"/></svg>