<svg xmlns="http://www.w3.org/2000/svg" height="40" viewBox="0 -960 960 960" width="40"><path d="M137.821-180.001q-15.758 0-26.789-11.054-11.031-11.054-11.031-26.846 0-15.791 11.031-26.637t26.789-10.846h42.18v-462.051q0-25.609 18.478-44.086 18.477-18.478 44.086-18.478h552.306q10.679 0 17.903 7.263 7.225 7.263 7.225 18 0 10.736-7.225 17.864-7.224 7.128-17.903 7.128H242.565q-5.385 0-8.847 3.462-3.462 3.462-3.462 8.847v462.051h192.052q15.651 0 26.607 11.01t10.956 26.739q0 15.835-10.956 26.734-10.956 10.9-26.607 10.9H137.821Zm438.974 0q-13.295 0-22.288-8.994-8.994-8.993-8.994-22.288v-409.23q0-13.294 8.994-22.288 8.993-8.993 22.288-8.993h252.306q13.295 0 22.289 8.993 8.993 8.994 8.993 22.288v409.23q0 13.295-8.993 22.288-8.994 8.994-22.289 8.994H576.795Zm18.973-75.383h214.36v-346.155h-214.36v346.155Zm0 0h214.36-214.36Z"/></svg>