<svg xmlns="http://www.w3.org/2000/svg" height="40" viewBox="0 -960 960 960" width="40"><path d="M282.565-60.002q-25.788 0-44.176-18.387-18.388-18.388-18.388-44.176v-714.87q0-25.788 18.388-44.176t44.176-18.388h394.87q25.788 0 44.176 18.388t18.388 44.176v714.87q0 25.788-18.388 44.176-18.388 18.387-44.176 18.387h-394.87Zm-12.309-164.87v102.307q0 4.616 3.847 8.462 3.846 3.847 8.462 3.847h394.87q4.616 0 8.462-3.847 3.847-3.846 3.847-8.462v-102.307H270.256Zm209.865 87.692q12.674 0 21.533-8.848 8.858-8.847 8.858-21.653t-8.98-21.665q-8.98-8.859-21.653-8.859-12.674 0-21.533 8.979-8.858 8.979-8.858 21.65 0 12.935 8.98 21.665 8.98 8.731 21.653 8.731ZM270.256-275.127h419.488V-754.36H270.256v479.233Zm0-529.488h419.488v-32.82q0-4.616-3.847-8.462-3.846-3.847-8.462-3.847h-394.87q-4.616 0-8.462 3.847-3.847 3.846-3.847 8.462v32.82Zm0 579.743v114.616-114.616Zm0-579.743v-45.129 45.129Z"/></svg>