<svg xmlns="http://www.w3.org/2000/svg" height="40" viewBox="0 -960 960 960" width="40"><path d="M162.565-140.001q-25.788 0-44.176-18.388t-18.388-44.176V-674.05q0-25.436 18.388-44t44.176-18.564h132.307l54.872-62.641q8.359-10.18 20.567-15.462t26.305-5.282h166.768q14.097 0 26.305 5.282t20.567 15.462l54.872 62.641h132.307q25.436 0 44 18.564t18.564 44v471.485q0 25.788-18.564 44.176t-44 18.388h-634.87Zm0-50.255h634.87q5.385 0 8.847-3.462 3.462-3.462 3.462-8.847V-674.05q0-5.129-3.462-8.719t-8.847-3.59H642.154l-73.385-83.385H391.231l-73.385 83.385H162.565q-5.385 0-8.847 3.59-3.462 3.59-3.462 8.719v471.485q0 5.385 3.462 8.847 3.462 3.462 8.847 3.462ZM480-438.513ZM307.643-277.949h350.766q9.487 0 14.038-8.487t-1.474-16.641l-96.461-127.768q-4.949-6.154-12.436-6.154t-12.435 6.154L446.923-297.436l-68.512-83.999q-4.949-6.025-12.372-5.897-7.423.128-12.372 6.282l-58.203 77.973q-5.744 8.154-1.359 16.641 4.384 8.487 13.538 8.487Z"/></svg>