<svg xmlns="http://www.w3.org/2000/svg" viewBox="0 -960 960 960" width="32" height="32"><path d="m785.28-103.59-38.05-37.18q-1.67.38-3.33.58-1.67.19-3.59.19H202.57q-25.71 0-44.14-18.43T140-202.57v-537.74q0-1.92.19-3.59.2-1.66.58-3.33l-37.79-38.05q-7.44-7.48-7.63-17.83-.19-10.35 7.66-18.17 7.6-7.57 17.87-7.57 10.27 0 18.09 7.57l682.31 682.31q7.18 7.43 7.37 17.62.2 10.19-7.4 17.76-7.86 7.82-18.13 7.82t-17.84-7.82ZM820-239.69l-50.26-50.26v-467.48q0-5.39-3.46-8.85t-8.85-3.46h-88.89v346.66q0 6.13-2.81 12.04-2.81 5.91-8.01 9.07L530.59-529.1v-240.64H429.41v139.46L239.69-820h517.74q25.71 0 44.14 18.43T820-757.43v517.74Zm-617.43 49.43h138.89v-200.77h-17.95q-13.52 0-22.79-9.26-9.26-9.26-9.26-22.79v-173.46l-101.2-101.21v495.18q0 5.39 3.46 8.85t8.85 3.46Zm176.84 0h201.18v-117.41L429.26-459v37.36q-.57 13.38-9.54 22-8.98 8.61-22.36 8.61h-17.95v200.77Zm239.13 0h79.21l-79.21-79.46v79.46Z"/></svg>