<svg xmlns="http://www.w3.org/2000/svg" height="40" viewBox="0 -960 960 960" width="40"><path d="M446.718-190.256h66.564v-82.411l136.462-143.23v-176.256q0-4.616-3.847-8.462-3.846-3.847-8.462-3.847h-314.87q-4.616 0-8.462 3.847-3.847 3.846-3.847 8.462v176.256l136.462 143v82.641Zm-50.255 18.973v-80.718L277.694-377.129q-8.228-8.244-12.96-19.394-4.733-11.149-4.733-23.759v-171.785q0-25.644 18.478-44.147 18.477-18.502 44.086-18.502h60.308l-25.127 25.127v-165.282q0-10.679 7.263-17.903 7.263-7.225 17.999-7.225 10.737 0 17.865 7.225 7.128 7.224 7.128 17.903v140.155h143.998v-140.155q0-10.679 7.263-17.903 7.263-7.225 18-7.225 10.736 0 17.864 7.225 7.128 7.224 7.128 17.903v165.282l-25.127-25.127h60.308q25.609 0 44.086 18.501 18.478 18.501 18.478 44.144v171.772q0 12.456-4.733 23.691-4.732 11.235-12.96 19.479L563.537-252.001v80.718q0 13.295-8.993 22.288-8.994 8.994-22.288 8.994H427.744q-13.294 0-22.288-8.994-8.993-8.993-8.993-22.288ZM480-397.692Z"/></svg>