<svg xmlns="http://www.w3.org/2000/svg" height="40" viewBox="0 -960 960 960" width="40"><path d="m718-244.999 123.693-123.693q7.134-7.23 17.403-7.23 10.268 0 17.701 6.969 7.715 7.731 7.523 18.256-.193 10.524-7.628 18.004L739.923-195.924q-9.406 9.359-21.946 9.359-12.541 0-21.9-9.359l-52.769-52.384q-7.82-7.517-7.82-17.54t7.857-17.863q7.857-7.186 17.692-7.186 9.834 0 17.655 7.205L718-244.999ZM161.796-581.231H798.204 161.796Zm-50.255 42.718q0-39.302 26.935-66.138 26.936-26.835 66.294-26.835h550.46q39.622 0 66.426 26.835 26.803 26.836 26.803 66.138v43.77q0 10.679-7.256 17.903-7.255 7.224-17.981 7.224-10.557 0-17.787-7.224-7.231-7.224-7.231-17.903v-43.77q0-17.931-12.355-30.325-12.355-12.393-30.619-12.393H204.77q-18.264 0-30.619 12.393-12.355 12.394-12.355 30.325v168.102q0 5.385 3.461 8.847 3.462 3.461 8.847 3.461h86.974v-7.846q0-25.134 17.926-43.079 17.927-17.946 43.099-17.946h230.693q10.679 0 17.903 7.263 7.224 7.263 7.224 18 0 10.736-7.224 17.864t-17.903 7.128H323.642q-5.385 0-8.847 3.59-3.462 3.59-3.462 8.719v161.845q0 5.385 3.462 8.847 3.462 3.462 8.847 3.462h229.154q10.679 0 17.903 7.263 7.224 7.263 7.224 17.999 0 10.737-7.224 17.865-7.224 7.128-17.903 7.128H323.642q-25.808 0-44.186-18.478-18.378-18.477-18.378-44.086v-105.283h-86.974q-25.608 0-44.086-18.378-18.477-18.378-18.477-44.185v-168.102Zm149.537-92.973v-113.64q0-25.609 18.378-44.087 18.378-18.477 44.186-18.477h312.716q25.808 0 44.186 18.477 18.378 18.478 18.378 44.087v113.64h-50.255v-113.64q0-5.385-3.462-8.847-3.462-3.462-8.847-3.462H323.642q-5.385 0-8.847 3.462-3.462 3.462-3.462 8.847v113.64h-50.255Z"/></svg>