<svg xmlns="http://www.w3.org/2000/svg" height="40" viewBox="0 -960 960 960" width="40"><path d="M520-139.232v-76.154h76.154v76.154H520Zm-76.154-76.154v-188.46H520v188.46h-76.154Zm300.768-127.693V-480h76.154v136.921h-76.154ZM668.461-480v-76.154h76.153V-480h-76.153Zm-453.075 76.154V-480h76.153v76.154h-76.153ZM139.232-480v-76.154h76.154V-480h-76.154ZM480-744.614v-76.154h76.154v76.154H480ZM182.052-635.127h142.821v-142.821H182.052v142.821Zm-42.82 11.538v-165.897q0-13.295 8.994-22.288 8.993-8.994 22.288-8.994h165.897q13.295 0 22.288 8.994 8.994 8.993 8.994 22.288v165.897q0 13.295-8.994 22.288-8.993 8.994-22.288 8.994H170.514q-13.295 0-22.288-8.994-8.994-8.993-8.994-22.288Zm42.82 441.537H327.95v-142.821H182.052v142.821Zm-42.82 11.538v-165.897q0-13.295 8.994-22.288 8.993-8.994 22.288-8.994h168.974q13.295 0 22.288 8.994 8.994 8.993 8.994 22.288v165.897q0 13.295-8.994 22.288-8.993 8.994-22.288 8.994H170.514q-13.295 0-22.288-8.994-8.994-8.993-8.994-22.288Zm495.895-464.613h142.821v-142.821H635.127v142.821Zm-42.82 11.538v-165.897q0-13.295 8.994-22.288 8.993-8.994 22.288-8.994h165.897q13.295 0 22.288 8.994 8.994 8.993 8.994 22.288v165.897q0 13.295-8.994 22.288-8.993 8.994-22.288 8.994H623.589q-13.295 0-22.288-8.994-8.994-8.993-8.994-22.288Zm76.154 484.357v-127.693h-76.154v-76.154h152.307v127.693h76.154v76.154H668.461ZM520-403.846V-480h148.461v76.154H520Zm-152.307 0V-480h-76.154v-76.154H520V-480h-76.154v76.154h-76.153Zm36.153-188.461v-152.307H480v76.153h76.154v76.154H403.846ZM225.77-678.845v-55.385h55.385v55.385H225.77Zm2.693 450.382v-55.384h55.384v55.384h-55.384Zm450.382-450.382v-55.385h55.385v55.385h-55.385Z"/></svg>