<svg xmlns="http://www.w3.org/2000/svg" viewBox="0 -960 960 960" width="32" height="32"><path d="M162.57-100q-25.79 0-44.18-18.39T100-162.57v-470.4q0-24.67 16.04-43.68 16.04-19.02 38.96-28.12L589.61-880.9q9.04-3.84 17.8.01 8.77 3.85 12.15 12.81 3.44 9.31-.25 18.03-3.7 8.71-12.57 11.92L264.15-700h533.28q25.79 0 44.18 18.39T860-637.43v474.86q0 25.79-18.39 44.18T797.43-100H162.57Zm0-50.26h634.86q4.62 0 8.47-3.84 3.84-3.85 3.84-8.47V-454.1H150.26v291.53q0 4.62 3.84 8.47 3.85 3.84 8.47 3.84Zm154.09-63.54q37.98 0 64.33-26.49 26.34-26.5 26.34-64.48 0-37.97-26.49-64.32-26.5-26.35-64.48-26.35-37.98 0-64.32 26.5-26.35 26.5-26.35 64.48 0 37.97 26.5 64.32 26.5 26.34 64.47 26.34Zm-166.4-290.56h509.48v-42.17q0-10.75 7.25-17.88 7.25-7.13 18-7.13t17.88 7.22q7.13 7.21 7.13 17.91v42.05h99.74v-133.07q0-4.62-3.84-8.47-3.85-3.84-8.47-3.84H162.57q-4.62 0-8.47 3.84-3.84 3.85-3.84 8.47v133.07Zm0 354.1V-454.1v303.84Z"/></svg>