<svg xmlns="http://www.w3.org/2000/svg" height="40" viewBox="0 -960 960 960" width="40"><path d="M152.666-711.127h277.463-277.463Zm39.283 600.356q-7.473 0-12.568-4.298-5.095-4.297-7.148-10.487-2.053-6.189-.155-12.228 1.897-6.038 8.256-10.448l47.359-31.769q-52.901 0-90.296-37.396-37.396-37.395-37.396-90.296v-380.974q0-66.665 69.269-95.601 69.269-28.935 237.961-33.038 11.017 0 18.47 6.77 7.452 6.771 7.452 17.644 0 10.982-6.974 18.412-6.975 7.429-18.127 7.429-127.412 1.846-185.322 15.077t-70.064 40.847h239.13q10.429 0 17.778 7.262 7.349 7.263 7.349 18T409.574-668q-7.349 7.128-17.778 7.128h-241.54v175.079h412.67q10.864 0 17.893 7.263t7.029 17.999q0 10.737-7.224 17.865-7.224 7.128-17.903 7.128H150.256v127.845q0 32.479 22.479 54.958t54.958 22.479h344.614q32.479 0 54.958-22.479t22.479-54.958v-90.514q0-10.679 7.263-17.903 7.263-7.224 17.999-7.224 10.737 0 17.865 7.224 7.128 7.224 7.128 17.903v91.283q0 53-37.396 89.961-37.395 36.962-90.296 36.962l47.359 31.769q6.359 4.41 8.256 10.448 1.898 6.039-.155 12.228-2.053 6.19-7.074 10.487-5.021 4.298-12.386 4.298H191.949Zm484.804-397.897q-72.975 0-124.376-51.404-51.402-51.403-51.402-124.86 0-72.467 51.297-123.767 51.296-51.3 124.654-51.3 73.404 0 124.392 50.989 50.988 50.987 50.988 124.548 0 73.436-51.289 124.615-51.289 51.179-124.264 51.179Zm1.375-148.358q6.948 0 11.641-4.751 4.692-4.751 4.692-11.974v-98.812q0-6.821-4.898-11.513-4.897-4.692-11.974-4.692t-11.641 4.897q-4.564 4.897-4.564 12.095v98.424q0 7.198 4.898 11.762 4.897 4.564 11.846 4.564Zm-.206 79.487q8.488 0 14.244-5.744 5.756-5.743 6.141-14.308 0-8.794-6.015-14.551-6.016-5.756-14.036-5.756-9.487.41-14.898 6.026-5.41 5.615-5.41 14.23 0 8.616 5.744 14.359 5.743 5.744 14.23 5.744ZM400.084-283.898q20.762 0 35.339-14.533 14.576-14.533 14.576-35.294 0-20.762-14.706-35.339-14.707-14.576-35.468-14.576-20.761 0-35.165 14.706-14.403 14.707-14.403 35.468 0 20.761 14.533 35.165 14.533 14.403 35.294 14.403Zm249.66-151.64H150.256h499.488Z"/></svg>