<svg xmlns="http://www.w3.org/2000/svg" height="40" viewBox="0 -960 960 960" width="40"><path d="M335.796-167.642q-88.794-32.589-156.14-96.23-67.346-63.64-76.193-155.101-1.154-12.788 6.939-22.035t20.881-9.247h48.718v-306.667q0-11.564 7.757-20.321 7.756-8.756 19.32-9.961l629.024-69.564q9.82-1.615 16.858 4.922 7.039 6.538 7.039 16.263 0 8.353-5.69 14.364-5.689 6.012-14.028 7.04L413.59-767.487v85.411h425.127q9.307 0 15.294 6.023 5.988 6.022 5.988 15.384t-5.988 15.387q-5.987 6.026-15.294 6.026H413.59v189.001h415.127q12.788 0 21.073 9.247t7.131 22.035q-8.846 91.845-76.59 155.345-67.743 63.499-157.307 95.986v36.359q0 13.557-8.862 22.419-8.862 8.863-22.419 8.863H367.078q-13.558 0-22.42-8.863-8.862-8.862-8.862-22.419v-36.359Zm-17.591-514.434h52.565v-80.36l-52.565 5.586v74.774Zm-95.384 0h52.565v-69.744l-52.565 5.148v64.596Zm95.384 231.821h52.565v-189.001h-52.565v189.001Zm-95.384 0h52.565v-189.001h-52.565v189.001Zm163.23 299.999h186.718v-50.718l29.384-11.282q67.513-23.949 120.257-71.974 52.744-48.026 75.949-115.77H161.641q22.82 67.744 75.231 115.744 52.411 48 119.795 72l29.384 11.282v50.718ZM480-400Z"/></svg>