<svg xmlns="http://www.w3.org/2000/svg" height="40" viewBox="0 -960 960 960" width="40"><path d="M342.771-223.359q-13.026-38.462-22.449-78.116-9.423-39.655-14.859-80.04l-59.436 39.642q-2.693 1.923-4.039 4.423-1.346 2.5-1.346 5.577v145.411q0 1.924 1.346 2.693 1.346.769 2.885 0l97.898-39.59Zm128.204-559.359q-64.309 72.129-92.514 151.231-28.205 79.102-28.205 178.281 0 53.565 11.539 111.603 11.538 58.039 31.436 111.347h173.538q19.898-53.308 31.436-111.347 11.539-58.038 11.539-111.603 0-99.179-28.205-178.281t-92.514-151.231q-2.059-2.205-4.206-3.308-2.147-1.102-4.893-1.102t-4.841 1.102q-2.095 1.103-4.11 3.308Zm8.966 327.845q-27.197 0-46.133-18.994-18.935-18.995-18.935-46.192t18.994-46.133q18.995-18.935 46.192-18.935t46.133 18.994q18.935 18.995 18.935 46.192t-18.994 46.133q-18.995 18.935-46.192 18.935Zm137.288 231.899 97.898 39.589q1.539.77 2.885-.192 1.346-.961 1.346-2.885v-145.026q0-3.077-1.346-5.77-1.346-2.692-4.039-4.615l-59.436-39.642q-5.436 40.385-14.859 80.232t-22.449 78.309ZM502.692-839.28q80.717 78.666 119.012 174.435 38.295 95.768 38.295 214.075 0 3.128.192 5.962.192 2.833-.192 6.346l81.153 55.026q13.141 8.388 20.801 22.331 7.66 13.943 7.66 29.207v177.768q0 16.68-13.73 26.084-13.731 9.403-29.5 3.249l-136.179-55.204H369.411l-136.178 54.82q-15.77 6.153-29.308-3.25-13.538-9.403-13.538-26.083v-177.769q0-15.264 7.468-29.207 7.468-13.942 20.608-22.331l81.538-55.025v-11.924q0-118.307 38.295-214.075 38.295-95.769 119.012-174.435 4.769-4.744 10.82-6.949 6.052-2.205 12.039-2.205t11.871 2.205q5.885 2.205 10.654 6.949Z"/></svg>