<svg xmlns="http://www.w3.org/2000/svg" height="40" viewBox="0 -960 960 960" width="40"><path d="M406.27-406.356q-36.526-36.517-66.103-77.978-29.577-41.462-52.629-88.437-10.846 21.975-16.128 45.219-5.283 23.244-5.283 47.552 0 89.203 62.335 151.538Q390.797-266.127 480-266.127q23.924 0 47.362-5.449 23.438-5.449 44.742-15.962-46.718-23.052-87.863-52.673-41.144-29.621-77.971-66.145ZM481-214.873q-53.046 0-101.356-20.089-48.31-20.09-85.951-57.731-37.641-37.641-57.731-85.951-20.089-48.31-20.089-101.356 0-42.523 13.422-82.953 13.423-40.431 38.738-74.414 10.223-13.068 26.608-11.029 16.384 2.038 22.128 17.166 20.974 54.539 52.705 101.808 31.731 47.269 72.833 88.115 40.846 41.102 88.449 72.628 47.602 31.526 101.474 52.91 14.718 5.744 16.961 21.923 2.244 16.179-10.824 26.402-33.938 25.836-74.332 39.204-40.394 13.367-83.035 13.367Zm215.43-161.241q-9.898-2.854-14.035-12.6-4.138-9.747-.702-19.541 21.026-58.257 8.154-118.745-12.872-60.487-57.744-105.103-43.436-43.693-102.411-57.244-58.975-13.551-116.232 5.398-10.076 3.436-19.873-.633-9.797-4.068-13.715-13.367-4.718-9.78-.629-18.748 4.09-8.969 13.551-12.61 71.974-25.615 146.052-9.885 74.077 15.731 129.879 71.533 55.121 55.121 71.3 129.006 16.179 73.885-9.308 145.859-3.641 10.871-13.432 15.666t-20.855 1.014ZM479.865-834.615q-10.736 0-17.864-7.224t-7.128-17.903v-57.437q0-10.679 7.262-17.903 7.263-7.224 18-7.224 10.736 0 17.864 7.224t7.128 17.903v57.437q0 10.679-7.262 17.903-7.263 7.224-18 7.224Zm0 816.921q-10.736 0-17.864-7.224t-7.128-17.903v-57.437q0-10.679 7.262-17.903 7.263-7.224 18-7.224 10.736 0 17.864 7.224t7.128 17.903v57.437q0 10.68-7.262 17.903-7.263 7.224-18 7.224ZM731.154-730.6q-7.821-7.883-7.821-18t7.821-17.937l39.385-39.385q7.23-6.82 17.396-7.218 10.167-.397 17.987 6.985 7.82 8.053 7.82 18.193t-7.82 18.039l-39.385 39.385q-7.482 7.435-17.523 7.628-10.04.192-17.86-7.69ZM154.078-153.845q-7.82-8.053-7.82-18.193t7.82-18.039l39.385-39.385q7.482-7.435 17.523-7.628 10.04-.192 17.86 7.69 7.821 7.883 7.821 18t-7.821 17.937l-39.385 39.385q-7.23 6.82-17.396 7.218-10.167.397-17.987-6.985Zm705.664-301.028q-10.679 0-17.903-7.262-7.224-7.263-7.224-18 0-10.736 7.224-17.864t17.903-7.128h57.437q10.679 0 17.903 7.262 7.224 7.263 7.224 18 0 10.736-7.224 17.864t-17.903 7.128h-57.437Zm-816.92 0q-10.68 0-17.904-7.262-7.224-7.263-7.224-18 0-10.736 7.224-17.864t17.903-7.128h57.437q10.679 0 17.903 7.262 7.224 7.263 7.224 18 0 10.736-7.224 17.864t-17.903 7.128H42.821Zm763.333 300.795q-8.053 7.82-18.193 7.82t-18.039-7.82l-39.385-39.385q-7.435-7.482-7.628-17.523-.192-10.04 7.69-17.86 7.883-7.821 18-7.821t17.937 7.821l39.385 39.385q6.82 7.23 7.218 17.396.397 10.167-6.985 17.987ZM229.4-731.154q-7.883 7.821-18 7.821t-17.937-7.821l-39.385-39.385q-6.82-7.23-7.218-17.396-.397-10.167 6.985-17.987 8.053-7.82 18.193-7.82t18.039 7.82l39.385 39.385q7.435 7.482 7.628 17.523.192 10.04-7.69 17.86Zm176.908 324.846Z"/></svg>