<svg xmlns="http://www.w3.org/2000/svg" height="40" viewBox="0 -960 960 960" width="40"><path d="M479.804-100.001q-122.342 0-206.137-79.859-83.794-79.859-92.845-202.013-.821-11.82 5.693-18.973Q193.029-408 205.072-408q12.159 0 18.774 7.423t7.846 18.294q8.846 100.924 78.023 166.475 69.176 65.552 170.449 65.552 101.272 0 170.285-65.552 69.013-65.551 77.859-166.475 1.231-10.871 7.846-18.294t18.44-7.423q12.21 0 18.807 7.154 6.598 7.153 5.777 18.973-9.051 122.154-93.041 202.013-83.99 79.859-206.333 79.859Zm-264.54-377.947q-12.673 0-21.532-8.981-8.859-8.98-8.859-21.653 0-12.673 8.981-21.532 8.98-8.859 21.653-8.859 12.673 0 21.532 8.98 8.859 8.981 8.859 21.654t-8.98 21.532q-8.98 8.859-21.654 8.859Zm172.307 0q-12.673 0-21.532-8.981-8.859-8.98-8.859-21.653 0-12.673 8.981-21.532 8.98-8.859 21.653-8.859 12.674 0 21.532 8.98 8.859 8.981 8.859 21.654t-8.98 21.532q-8.98 8.859-21.654 8.859Zm184.615 0q-12.674 0-21.532-8.981-8.859-8.98-8.859-21.653 0-12.673 8.98-21.532t21.654-8.859q12.673 0 21.532 8.98 8.859 8.981 8.859 21.654t-8.981 21.532q-8.98 8.859-21.653 8.859Zm172.307 0q-12.673 0-21.532-8.981-8.859-8.98-8.859-21.653 0-12.673 8.98-21.532t21.654-8.859q12.673 0 21.532 8.98 8.859 8.981 8.859 21.654t-8.981 21.532q-8.98 8.859-21.653 8.859ZM301.418-584.102q-12.673 0-21.532-8.98t-8.859-21.654q0-12.673 8.98-21.532 8.981-8.859 21.654-8.859t21.532 8.981q8.859 8.98 8.859 21.653 0 12.673-8.981 21.532-8.98 8.859-21.653 8.859Zm356.921 0q-12.673 0-21.532-8.98t-8.859-21.654q0-12.673 8.981-21.532 8.98-8.859 21.653-8.859 12.673 0 21.532 8.981 8.859 8.98 8.859 21.653 0 12.673-8.98 21.532-8.981 8.859-21.654 8.859Zm-178.46-6.153q-12.674 0-21.533-8.981-8.858-8.98-8.858-21.653 0-12.673 8.98-21.532t21.653-8.859q12.674 0 21.533 8.98 8.858 8.98 8.858 21.654 0 12.673-8.98 21.532t-21.653 8.859Zm-92.308-100q-12.673 0-21.532-8.981-8.859-8.98-8.859-21.653 0-12.673 8.981-21.532 8.98-8.859 21.653-8.859 12.674 0 21.532 8.98 8.859 8.98 8.859 21.654 0 12.673-8.98 21.532t-21.654 8.859Zm184.615 0q-12.674 0-21.532-8.981-8.859-8.98-8.859-21.653 0-12.673 8.98-21.532t21.654-8.859q12.673 0 21.532 8.98t8.859 21.654q0 12.673-8.981 21.532-8.98 8.859-21.653 8.859Zm-92.307-96.154q-12.674 0-21.533-8.98-8.858-8.981-8.858-21.654t8.98-21.532q8.98-8.859 21.653-8.859 12.674 0 21.533 8.981 8.858 8.98 8.858 21.653 0 12.673-8.98 21.532t-21.653 8.859ZM480-408Z"/></svg>