<svg xmlns="http://www.w3.org/2000/svg" viewBox="0 -960 960 960" width="32" height="32"><path d="m442-444.61 131.08-131.08q7.23-7.23 17.5-7.42 10.27-.2 17.88 7.42 7.62 7.61 7.62 17.69 0 10.08-7.62 17.69L463.92-395.77q-9.4 9.36-21.94 9.36-12.54 0-21.9-9.36l-58.54-58.54q-7.23-7.23-7.42-17.5-.2-10.27 7.42-17.88 7.61-7.62 17.69-7.62 10.08 0 17.69 7.62L442-444.61ZM282.57-60q-25.79 0-44.18-18.39T220-122.57v-714.86q0-25.79 18.39-44.18T282.57-900h394.86q25.79 0 44.18 18.39T740-837.43v714.86q0 25.79-18.39 44.18T677.43-60H282.57Zm-12.31-95.39v32.82q0 4.62 3.84 8.47 3.85 3.84 8.47 3.84h394.86q4.62 0 8.47-3.84 3.84-3.85 3.84-8.47v-32.82H270.26Zm0-50.25h419.48v-548.72H270.26v548.72Zm0-598.97h419.48v-32.82q0-4.62-3.84-8.47-3.85-3.84-8.47-3.84H282.57q-4.62 0-8.47 3.84-3.84 3.85-3.84 8.47v32.82Zm0 0V-849.74v45.13Zm0 649.22V-110.26v-45.13Z"/></svg>