<svg xmlns="http://www.w3.org/2000/svg" viewBox="0 -960 960 960" width="32" height="32"><path d="M202.57-140q-25.71 0-44.14-18.43T140-202.57v-554.86q0-25.71 18.43-44.14T202.57-820h528.02q10.7 0 17.91 7.25 7.22 7.25 7.22 18t-7.22 17.88q-7.21 7.13-17.91 7.13H202.57q-5.39 0-8.85 3.46t-3.46 8.85v554.86q0 5.39 3.46 8.85t8.85 3.46h554.86q5.39 0 8.85-3.46t3.46-8.85v-299.41q0-10.69 7.25-17.91 7.25-7.21 18-7.21t17.88 7.21q7.13 7.22 7.13 17.91v299.41q0 25.71-18.43 44.14T757.43-140H202.57Zm258.81-228.41 349.39-349.38q7.23-7.23 17.42-7.23 10.19 0 17.5 7.23 7.31 7.23 7.31 17.45 0 10.23-7.44 17.49l-362.64 362.9q-9.4 9.36-21.94 9.36-12.54 0-21.9-9.36L276.51-482.51q-7.23-7.23-7.42-17.5-.19-10.27 7.42-17.89 7.62-7.61 17.7-7.61 10.07 0 17.69 7.61l149.48 149.49Z"/></svg>