<svg xmlns="http://www.w3.org/2000/svg" height="40" viewBox="0 -960 960 960" width="40"><path d="M150.256-480q0 62.077 20.821 115.936 20.821 53.859 57.693 97.193 7.205 8.641 7.794 19.076.59 10.436-7.23 18.256-7.564 7.82-18.577 7.128-11.012-.692-18.627-9.743-43.487-50.077-67.808-112.987-24.321-62.91-24.321-134.859 0-71.949 24.321-134.961 24.321-63.013 67.808-112.885 7.615-9.051 18.627-9.743 11.013-.692 18.577 7.128 7.82 7.82 7.23 18.256-.589 10.435-7.794 19.076-36.872 43.923-57.693 97.783Q150.256-541.487 150.256-480Zm160 0q0 28.282 8.693 53.744 8.692 25.462 24.564 46.769 6.41 8.795 6.295 19.269-.115 10.474-7.679 18.294-7.821 7.821-18.282 7.128-10.461-.692-16.871-9.333Q284.899-372 272.45-406.628 260.001-441.257 260.001-480q0-38.949 12.449-73.474 12.449-34.526 34.526-62.397 6.615-8.641 17.179-9.231 10.564-.59 18.384 7.231 7.82 7.564 7.936 18.063.115 10.5-6.552 19.295-15.872 21.307-24.769 46.769-8.898 25.462-8.898 53.744ZM480-420.001q-24.538 0-42.268-17.731-17.731-17.73-17.731-42.268t17.731-42.268q17.73-17.731 42.268-17.731t42.268 17.731q17.731 17.73 17.731 42.268t-17.731 42.268q-17.73 17.731-42.268 17.731ZM649.744-480q0-28.282-8.693-53.744-8.692-25.462-24.564-46.769-6.41-8.795-6.321-19.269.09-10.474 7.91-18.294 7.821-7.821 18.077-7.128 10.256.692 16.871 9.333Q675.101-588 687.55-553.474q12.449 34.525 12.449 73.474 0 38.743-12.449 72.961-12.449 34.218-34.526 62.5-6.41 8.384-17.076 9.102-10.667.718-18.487-7.102-7.82-7.82-7.936-17.987-.115-10.166 6.552-18.961 15.872-21.307 24.769-46.769 8.898-25.462 8.898-53.744Zm160 0q0-61.693-20.821-115.552-20.821-53.859-57.693-97.577-7.205-8.641-7.897-19.409-.692-10.769 7.128-18.333 7.82-7.821 19.012-6.923 11.192.897 18.397 9.948 43.487 50.282 67.808 113.295Q859.999-551.538 859.999-480q0 71.538-24.321 134.448-24.321 62.911-67.808 113.398-7.205 9.051-18.422 9.743-11.218.692-18.782-7.128-7.82-7.82-7.23-18.256.589-10.435 7.794-19.076 36.872-43.923 57.693-97.783Q809.744-418.513 809.744-480Z"/></svg>