<svg xmlns="http://www.w3.org/2000/svg" viewBox="0 -960 960 960" width="32" height="32"><path d="M280-253h-26l-6 7q0 2 6 6h100.72l6-6q0-3-1.5-5t-4.5-2H301l52.31-147H510.1l51.57 147h-50.72l-6 7q0 2 6 6h176.59l6-6q0-3-1.5-5t-4.5-2h-25L495.69-706.9q-2.18-6.12-7.27-9.61-5.09-3.49-11.33-3.49h-15.25q-6.25 0-11.81 3.71-5.57 3.7-7.54 9.8L280-253Zm78.51-162 73.54-207.28L505.1-415H358.51ZM162.57-100q-25.79 0-44.18-18.39T100-162.57v-634.86q0-25.79 18.39-44.18T162.57-860h634.86q25.79 0 44.18 18.39T860-797.43v634.86q0 25.79-18.39 44.18T797.43-100H162.57Zm0-50.26h634.86q4.62 0 8.47-3.84 3.84-3.85 3.84-8.47v-634.86q0-4.62-3.84-8.47-3.85-3.84-8.47-3.84H162.57q-4.62 0-8.47 3.84-3.84 3.85-3.84 8.47v634.86q0 4.62 3.84 8.47 3.85 3.84 8.47 3.84Zm-12.31 0v-659.48 659.48Z"/></svg>