<svg xmlns="http://www.w3.org/2000/svg" height="40" viewBox="0 -960 960 960" width="40"><path d="M581.18-63.079q-23.334 0-39.359-16.153-16.026-16.154-16.026-39.231v-258.46q0-23.077 16.026-39.23 16.025-16.154 39.359-16.154h258.46q23.076 0 39.23 16.154 16.154 16.153 16.154 39.23v258.46q0 23.077-16.154 39.23-16.154 16.154-39.23 16.154H581.18Zm129.23-184.614q23.076 0 39.23-16.154 16.154-16.153 16.154-39.23 0-23.077-16.154-39.231-16.154-16.153-39.23-16.153-23.334 0-39.359 16.153-16.026 16.154-16.026 39.231t16.026 39.23q16.025 16.154 39.359 16.154Zm-272.307-8.914v156.606h-9.641q-14.102 0-24.206-9.312-10.103-9.311-12.28-23.072l-12.744-88.385q-19.051-6.462-40.475-18.59-21.423-12.129-37.295-25.77l-80.95 36.488q-13.563 5.743-27.171 1.319-13.608-4.424-21.212-17.242l-50.615-88.974q-7.564-12.743-4.345-26.379 3.219-13.635 14.935-22.748l73.051-54.333q-1.795-10-2.577-21.308t-.782-21.116q0-9.808.782-21.052.782-11.243 2.577-22.526l-73.051-54.333q-11.856-9.052-14.812-22.91-2.957-13.858 4.607-26.602l50.23-87.82q7.7-12.593 21.26-17.129 13.56-4.537 27.123 1.207l80.565 35.846q17.026-13.769 37.783-25.705 20.756-11.937 39.951-17.993l13.165-89.175q2.154-13.897 12.918-23.14 10.765-9.244 24.85-9.244h100.512q14.085 0 24.85 9.244 10.764 9.243 12.918 23.14l12.744 88.77q20.718 7.615 40.295 18.577 19.578 10.962 36.321 25.526l82.488-35.846q13.564-5.744 26.89-1.207 13.327 4.536 21.083 17.129l50.641 88.205q7.564 12.743 4.314 26.795-3.249 14.051-14.904 22.332l-54.308 39.539q-8.385 5.948-18.077 5.653-9.692-.294-16.897-8.063-7.615-8.639-6.384-19.537 1.231-10.898 10.077-17.308l46.308-33.822-39.794-69.897-103.924 44.282q-20.743-22.949-49.936-40.487-29.192-17.539-59.781-22.641l-13.558-110.129h-83.314L425.077-700q-32.359 6.82-59.641 22.487-27.282 15.667-51.231 40.436l-103.026-43.692-39.794 69.897 90.435 66.692q-4.589 15.308-6.794 31.308-2.206 16-2.206 33.029 0 16.954 2.206 32.347 2.205 15.393 6.41 31.086l-90.051 67.282 39.794 69.897 102.641-43.897q25.488 25.579 56.936 42.495 31.449 16.915 67.347 24.026Zm-103.826-85.901Zm145.416-252.619q-48.077 0-81.756 33.432T364.258-480q0 20.915 6.936 39.79 6.936 18.876 20.397 34.543 7.615 9.666 18.73 11.179t19.91-5.784q8.384-6.908 9.115-17.074.731-10.167-6.474-17.192-9.052-8.667-13.705-20.423-4.654-11.757-4.654-25.039 0-27.03 18.921-45.951t45.95-18.921q12.844 0 24.512 4.821 11.668 4.82 20.745 13.872 6.769 6.794 16.634 5.654 9.865-1.14 16.699-9.244 6.999-9.051 5.384-19.858-1.615-10.808-10.666-18.833-14.308-12.821-33.231-19.744-18.923-6.923-39.768-6.923ZM334.277-342.508Zm262.415 224.045h227.005q6.481 0 11.212-4.731 4.731-4.73 4.731-11.038v-4.564q0-4.498-1.603-8.631-1.602-4.133-4.808-7.882-23.102-25.498-54.402-40.479-31.3-14.982-68.417-14.982-37.111 0-68.407 15.031-31.295 15.03-54.65 40.395-2.02 2.035-6.173 16.548v4.564q0 6.308 4.653 11.038 4.654 4.731 10.859 4.731Z"/></svg>