<svg xmlns="http://www.w3.org/2000/svg" height="40" viewBox="0 -960 960 960" width="40"><path d="M360.103-348.284h266.359q30.82 0 52.563-20.732 21.743-20.732 21.743-50.947 0-30.216-21.743-50.677t-52.563-20.461h-17.591q-3.435-50.923-35.768-87.692-32.334-36.77-81.41-36.77-40.462 0-73.141 23.077t-44.294 61.385h-19.437q-36.229 0-60.268 26.807-24.038 26.807-24.038 64.268 0 38.128 25.858 64.935 25.859 26.807 63.73 26.807Zm.099-50.255q-16.559 0-27.996-11.833-11.437-11.833-11.437-29.654 0-17.82 11.437-29.32t27.893-11.5h53.722v-5.795q0-31.975 22.051-55.321 22.051-23.346 54.846-23.346 31.565 0 50.578 25.68 19.012 25.68 19.012 56.167v42.615h66.154q10.974 0 17.513 5.666 6.538 5.667 6.538 15.154t-6.538 15.487q-6.539 6-17.513 6h-266.26ZM162.565-180.001q-25.788 0-44.176-18.388t-18.388-44.176v-474.87q0-25.788 18.388-44.176t44.176-18.388h634.87q25.788 0 44.176 18.388t18.388 44.176v474.87q0 25.788-18.388 44.176t-44.176 18.388h-634.87Zm0-50.255h634.87q4.616 0 8.462-3.847 3.847-3.846 3.847-8.462v-474.87q0-4.616-3.847-8.462-3.846-3.847-8.462-3.847h-634.87q-4.616 0-8.462 3.847-3.847 3.846-3.847 8.462v474.87q0 4.616 3.847 8.462 3.846 3.847 8.462 3.847Zm-12.309 0v-499.488 499.488Z"/></svg>