<svg xmlns="http://www.w3.org/2000/svg" height="40" viewBox="0 -960 960 960" width="40"><path d="m697.107-700.851-55.389-25.662q-8.974-3.813-8.974-14.368t8.974-14.503l55.389-25.918 25.662-55.133q3.813-9.231 14.368-9.231t14.503 9.231l25.918 55.133 55.133 25.918q9.231 3.813 9.231 14.367 0 10.555-9.231 14.504l-55.133 25.662-25.918 55.389q-3.813 8.974-14.368 8.974t-14.503-8.974l-25.662-55.389Zm93.079 315.479-45.75-21.525q-4.949-2.472-4.949-7.403 0-4.93 4.949-7.321l45.858-21.474 21.526-45.751q2.472-4.948 7.402-4.948t7.321 4.948l21.475 45.859 45.75 21.526q4.949 2.471 4.949 7.402 0 4.93-4.949 7.321l-45.859 21.474-21.525 45.751q-2.472 4.948-7.402 4.948t-7.321-4.948l-21.475-45.859ZM343.18-100.001q-12.034 0-20.62-7.962-8.585-7.961-10.329-19.782l-6.948-59.025q-14.504-3.921-30.304-12.217-15.8-8.297-27.236-19.066l-51.256 22.436q-11.359 4.948-22.249 1.439-10.89-3.51-16.982-14.208l-48.255-79.947q-6.154-10.974-3.681-22.794 2.473-11.821 13.091-18.924l47.385-32.666q-3.436-14.565-3.436-31.873t3.436-32.129l-47.385-32.666q-10.618-7.103-13.091-18.795-2.473-11.692 3.681-22.666l48.255-80.204q6.092-10.441 16.982-13.951t22.249 1.439l51.256 22.179q11.436-10.769 27.236-18.937 15.8-8.168 30.304-12.089l6.948-59.282q1.744-11.564 10.329-19.526 8.586-7.961 20.62-7.961h93.69q11.777 0 20.363 7.961 8.585 7.962 10.329 19.526l7.205 59.282q14.248 3.921 30.176 12.089 15.928 8.168 27.107 18.937l51.513-22.179q11.102-4.949 21.993-1.439 10.89 3.51 16.981 13.951l48.255 80.204q6.411 10.974 3.809 22.666-2.601 11.692-12.962 18.795l-47.641 32.666q3.436 14.821 3.436 32.129t-3.436 31.873l47.641 32.666q10.361 7.103 12.962 18.924 2.602 11.82-3.809 22.794l-48.255 79.947q-6.091 10.698-16.981 14.208-10.891 3.509-21.993-1.439l-51.513-22.436q-11.179 10.769-27.107 19.066-15.928 8.296-30.176 12.217l-7.205 59.025q-1.744 11.821-10.329 19.782-8.586 7.962-20.363 7.962h-93.69Zm46.665-187.795q44.616 0 75.795-31.128 31.179-31.128 31.179-75.743 0-44.615-31.128-75.666-31.128-31.051-75.743-31.051-44.615 0-75.666 31-31.051 31-31.051 75.615 0 44.615 31 75.794 30.999 31.179 75.614 31.179Zm-31.846 137.54h63.795l8-73.898q29-7.59 51.321-20.295 22.32-12.705 41.909-33.705l65.745 29.334 31.333-51.59-60.923-43.231q9.872-23.82 9.872-50.949 0-27.128-9.872-50.948l60.154-44-30.564-51.077-65.745 29.589q-19.589-21-41.909-33.833-22.321-12.833-51.321-20.167l-8-73.897h-63.795l-8 73.897q-29 7.334-51.192 20.167-22.192 12.833-42.037 33.833l-65.745-29.589-30.308 51.077 59.898 44q-9.872 23.82-9.975 50.948-.102 27.129 9.975 50.949l-60.667 43.231 31.077 51.59 65.745-29.334q19.845 21 42.037 33.705 22.192 12.705 51.192 20.295l8 73.898Zm31.898-244.462Z"/></svg>