<svg xmlns="http://www.w3.org/2000/svg" height="40" viewBox="0 -960 960 960" width="40"><path d="M316.904-4.616q-12.673 0-21.532-8.98t-8.859-21.654q0-12.673 8.98-21.532 8.981-8.859 21.654-8.859t21.532 8.98q8.859 8.981 8.859 21.654t-8.98 21.532q-8.981 8.86-21.654 8.86Zm163.024 0q-12.417 0-21.223-9.064-8.807-9.064-8.807-21.448 0-12.385 8.897-21.449 8.898-9.064 21.449-9.064 12.551 0 21.615 8.98 9.064 8.981 9.064 21.654t-9.006 21.532q-9.006 8.86-21.989 8.86Zm163.335 0q-12.673 0-21.532-8.98t-8.859-21.654q0-12.673 8.981-21.532 8.98-8.859 21.653-8.859 12.673 0 21.532 8.98 8.859 8.981 8.859 21.654t-8.98 21.532q-8.981 8.86-21.654 8.86ZM480-431.232q-38.645 0-64.655-27.064-26.01-27.064-26.01-66.166v-245.282q0-37.649 26.304-63.952 26.305-26.303 64.322-26.303t64.361 26.303q26.343 26.303 26.343 63.952v245.282q0 39.102-26.01 66.166T480-431.232Zm0-214.05Zm-25.127 490.154v-112.514q-91.205-9.795-157.41-73.615-66.205-63.821-75.641-157.077-1.615-10.749 5.514-18.438 7.13-7.69 17.897-7.69t17.929 7.657q7.161 7.657 8.864 18.522 10.102 78.744 69.849 130.001 59.747 51.256 137.889 51.256 79.39 0 138.749-51.551 59.359-51.552 69.461-129.706 1.698-10.865 8.962-18.522 7.264-7.657 18.035-7.657 10.772 0 17.797 7.69 7.025 7.689 5.41 18.438-9.436 92.051-75.141 156.474-65.705 64.423-157.91 74.218v112.514q0 10.698-7.249 17.913-7.249 7.214-17.999 7.214t-17.878-7.214q-7.128-7.215-7.128-17.913ZM480-481.487q17.41 0 28.91-12.449t11.5-30.629v-245.179q0-17-11.618-28.5T480-809.744q-17.174 0-28.792 11.5-11.618 11.5-11.618 28.5v245.282q0 18.077 11.5 30.526 11.5 12.449 28.91 12.449Z"/></svg>