<svg xmlns="http://www.w3.org/2000/svg" height="40" viewBox="0 -960 960 960" width="40"><path d="M713.024-381.488q-6.769 6.769-16.833 6.654-10.064-.115-17.474-7.269-7.153-7.41-7.153-17.589 0-10.179 7.153-17.589l178.822-178.822q-81.975-62.717-178.026-98.179Q583.462-729.744 480-729.744q-33.872 0-67.539 3.949-33.666 3.949-66.871 11.923-10.462 2.641-19.038-2.961-8.577-5.603-11.218-15.679-2.641-10.256 2.769-19.205 5.41-8.948 15.872-11.589 36.102-8.59 72.307-12.641 36.205-4.052 73.718-4.052 117.615 0 225.601 41.705 107.987 41.705 198.859 116.371 5.794 3.949 8.461 10.359 2.667 6.41 3.051 12.564.385 6.154-1.576 12.128-1.962 5.974-7.167 11.179L713.024-381.488ZM480-218.308l95.052-94.847L219.617-668.59q-30.59 14.718-59.86 32.974-29.27 18.257-57.295 39.513L480-218.308ZM806.385-82.694 609.974-278.438 501.923-170.386q-4.949 4.948-10.231 7.153-5.282 2.205-11.692 2.205-5.615 0-11.295-2.205-5.679-2.205-10.628-7.153L53.156-575.308q-4.949-4.949-6.949-10.525-2-5.577-2-11.987 0-6.539 2.795-12.949t8.333-11.359Q87.772-649 118.502-669.525q30.731-20.526 62.911-37.269l-99.924-99.924q-7.436-7.436-7.525-17.833-.09-10.397 7.73-17.961 7.564-7.82 17.871-7.82 10.308 0 17.872 7.82l724.69 724.691q7.436 7.179 7.628 17.371.193 10.192-7.628 17.756-7.563 7.82-17.871 7.82-10.307 0-17.871-7.82ZM503.333-557.128Zm-106.127 66.127Z"/></svg>