<svg xmlns="http://www.w3.org/2000/svg" viewBox="0 -960 960 960" width="32" height="32"><path d="M506.2-394.51v-164.41q0-10.7-7.25-17.92-7.24-7.21-17.99-7.21-10.75 0-17.88 7.21-7.13 7.22-7.13 17.92v164.41l-65.64-64.67q-7.62-7.23-17.61-7.42-9.99-.19-17.78 7.63-7.61 7.35-7.61 17.76 0 10.41 7.61 18.03l104.23 104.64q9.34 9.36 21.79 9.36 12.44 0 22.06-9.36l104.64-104.64q7.23-7.23 7.4-17.73.16-10.5-7.4-18.06-7.49-7.23-17.86-7.34-10.37-.1-18.19 7.13l-65.39 64.67ZM242.57-100q-25.79 0-44.18-18.39T180-162.57v-443.51q0-12.86 5.08-24.44 5.08-11.58 13.69-20.2l190.51-190.77q8.62-8.35 20.2-13.43t24.44-5.08h283.51q25.79 0 44.18 18.39T780-797.43v634.86q0 25.79-18.39 44.18T717.43-100H242.57Zm0-50.26h474.86q4.62 0 8.47-3.84 3.84-3.85 3.84-8.47v-634.86q0-4.62-3.84-8.47-3.85-3.84-8.47-3.84H430.21l-199.95 199.9v447.27q0 4.62 3.84 8.47 3.85 3.84 8.47 3.84Zm0 0h-12.31 499.48-487.17Z"/></svg>