<svg xmlns="http://www.w3.org/2000/svg" viewBox="0 -960 960 960" width="32" height="32"><path d="M481.62-364.67q10.74 0 17.87-7.22 7.12-7.23 7.12-17.9v-180.42q0-10.67-7.26-17.9-7.26-7.22-18-7.22-10.73 0-17.86 7.22-7.13 7.23-7.13 17.9v180.42q0 10.67 7.26 17.9 7.27 7.22 18 7.22Zm112.36 0q9.3 0 15.33-6.1 6.02-6.1 6.02-15.44v-62.92h109.49q13.55 0 24.47-11.12 10.91-11.12 10.91-24.67v-74.62q0-13.55-10.91-24.67-10.92-11.12-24.47-11.12H588.03q-6.21 0-10.86 4.73-4.66 4.73-4.66 11.04v193.35q0 9.34 6.09 15.44 6.08 6.1 15.38 6.1Zm-373.31 0h131.02q13.55 0 24.47-11.12 10.92-11.12 10.92-24.67v-65.03q0-13.8-10.92-24.93-10.92-11.12-24.47-11.12H242.2v-50.97h123.34q9.33 0 15.43-6.09 6.11-6.08 6.11-15.38t-6.11-15.33q-6.1-6.02-15.43-6.02H234.77q-13.81 0-24.6 11.12-10.78 11.12-10.78 24.67v65.03q0 13.8 10.78 24.8 10.79 10.99 24.6 10.99h109.49v51.23H220.67q-9.23 0-15.26 6.09-6.02 6.08-6.02 15.38t6.02 15.33q6.03 6.02 15.26 6.02Zm394.66-127.28v-60.56h102.06v60.56H615.33ZM162.57-180q-25.79 0-44.18-18.39T100-242.57v-474.86q0-25.79 18.39-44.18T162.57-780h634.86q25.79 0 44.18 18.39T860-717.43v474.86q0 25.79-18.39 44.18T797.43-180H162.57Zm0-50.26h634.86q4.62 0 8.47-3.84 3.84-3.85 3.84-8.47v-474.86q0-4.62-3.84-8.47-3.85-3.84-8.47-3.84H162.57q-4.62 0-8.47 3.84-3.84 3.85-3.84 8.47v474.86q0 4.62 3.84 8.47 3.85 3.84 8.47 3.84Zm-12.31 0v-499.48 499.48Z"/></svg>