<svg xmlns="http://www.w3.org/2000/svg" height="40" viewBox="0 -960 960 960" width="40"><path d="M320.135-458.719q10.736 0 17.864-7.224t7.128-17.903v-80q0-10.68-7.262-17.904-7.263-7.224-18-7.224-10.736 0-17.864 7.224t-7.128 17.904v80q0 10.679 7.262 17.903 7.263 7.224 18 7.224Zm159.892 99.744q-15.796 0-25.476 9.637-9.679 9.637-9.679 25.406v19.445q0 6.307 4.694 11.038 4.695 4.731 10.954 4.731h38.99q6.259 0 10.939-4.727 4.679-4.727 4.679-11.029v-19.602q0-15.911-9.653-25.405-9.653-9.494-25.448-9.494Zm160.108-99.744q10.736 0 17.864-7.224t7.128-17.903v-80q0-10.68-7.262-17.904-7.263-7.224-18-7.224-10.736 0-17.864 7.224t-7.128 17.904v80q0 10.679 7.262 17.903 7.263 7.224 18 7.224ZM480.244-100.001q-78.915 0-148.053-29.92-69.139-29.92-120.731-81.544-51.593-51.624-81.526-120.727-29.933-69.103-29.933-147.946t29.92-148.106q29.92-69.262 81.544-120.575 51.624-51.314 120.727-81.247 69.103-29.933 147.946-29.933t148.106 29.92q69.262 29.92 120.575 81.21 51.314 51.291 81.247 120.629 29.933 69.337 29.933 147.996 0 78.915-29.92 148.053-29.92 69.139-81.21 120.609-51.291 51.469-120.629 81.525-69.337 30.056-147.996 30.056Zm-.039-50.255q137.59 0 233.564-96.18 95.975-96.179 95.975-233.769t-95.832-233.564Q618.08-809.744 480-809.744q-137.385 0-233.564 95.832-96.18 95.832-96.18 233.912 0 137.385 96.18 233.564 96.179 96.18 233.769 96.18ZM480-480Z"/></svg>