<svg xmlns="http://www.w3.org/2000/svg" viewBox="0 -960 960 960" width="32" height="32"><path d="M152.56-290q-25.6 0-44.08-18.48Q90-326.96 90-352.56v-254.88q0-25.6 18.48-44.08Q126.96-670 152.56-670h654.88q25.6 0 44.08 18.48Q870-633.04 870-607.44v254.88q0 25.6-18.48 44.08Q833.04-290 807.44-290h-21.9q-10.69 0-17.91-7.26-7.22-7.26-7.22-18t7.22-17.87q7.22-7.13 17.91-7.13h21.9q5.38 0 8.84-3.46t3.46-8.84v-254.88q0-5.38-3.46-8.84t-8.84-3.46H152.56q-5.38 0-8.84 3.46t-3.46 8.84v254.88q0 5.38 3.46 8.84t8.84 3.46h221.9q10.69 0 17.91 7.26 7.22 7.26 7.22 18t-7.22 17.87q-7.22 7.13-17.91 7.13h-221.9Zm391.47-2.38-63.61-28.29q-4.88-2.59-4.88-7.54 0-4.94 5.03-7.6l63.46-28.27 28.54-63.86q2.59-4.88 7.41-4.88 4.81 0 7.47 5.03l28.52 63.71 63.61 28.29q4.88 2.59 4.88 7.54 0 4.94-5.03 7.6l-63.46 28.27-28.54 63.6q-2.59 5.14-7.41 5.14-4.81 0-7.47-5.29l-28.52-63.45Zm112.79-164.44-35.36-16.03q-4.95-2.62-4.95-7.36t4.95-6.94l35.36-16.03 16.03-35.36q2.62-4.95 7.36-4.95t6.94 4.95l16.03 35.36 35.36 16.03q4.95 2.62 4.95 7.36t-4.95 6.94l-35.36 16.03-16.03 35.36q-2.62 4.95-7.36 4.95t-6.94-4.95l-16.03-35.36Z"/></svg>