<svg xmlns="http://www.w3.org/2000/svg" height="40" viewBox="0 -960 960 960" width="40"><path d="M202.565-140.001q-25.788 0-44.176-18.388t-18.388-44.176v-554.87q0-25.788 18.388-44.176t44.176-18.388h554.87q25.788 0 44.176 18.388t18.388 44.176v554.87q0 25.788-18.388 44.176t-44.176 18.388h-554.87Zm0-50.255h554.87q4.616 0 8.462-3.847 3.847-3.846 3.847-8.462v-554.87q0-4.616-3.847-8.462-3.846-3.847-8.462-3.847h-554.87q-4.616 0-8.462 3.847-3.847 3.846-3.847 8.462v554.87q0 4.616 3.847 8.462 3.846 3.847 8.462 3.847Zm-12.309-579.488V-190.256-769.744Zm100.001 182.358h254.615q17.671 0 30.117-12.481 12.446-12.48 12.446-30.2 0-17.826-12.446-30.264-12.446-12.438-30.117-12.438H290.257q-17.778 0-30.299 12.525-12.521 12.524-12.521 30.307 0 17.782 12.521 30.167 12.521 12.384 30.299 12.384Z"/></svg>