<svg xmlns="http://www.w3.org/2000/svg" viewBox="0 -960 960 960" width="32" height="32"><path d="M162.57-180q-25.79 0-44.18-18.24T100-242.57v-474.86q0-25.79 18.39-44.18T162.57-780h14.66l50.26 50.26h-64.92q-4.62 0-8.47 3.84-3.84 3.85-3.84 8.47v474.86q0 5.39 3.46 8.85t8.85 3.46h493.89L539.49-346.15H276.67q-10.68 0-17.91-7.27-7.22-7.26-7.22-18 0-10.73 7.22-17.86 7.23-7.13 17.91-7.13H489.9L85.49-800.97q-7.23-7.23-7.4-17.4-.16-10.17 7.49-17.83 7.52-7.52 17.6-7.52 10.08 0 17.69 7.62L822.2-134.62q7.21 7.55 7.39 17.69.18 10.13-7.48 17.79-7.52 7.52-17.6 7.52-10.08 0-17.75-7.66L705.64-180H162.57ZM860-717.43v460.56q0 12.56-7.85 18.84-7.86 6.29-17.28 6.29-10.9 0-18.01-6.84-7.12-6.83-7.12-18.5v-460.35q0-5.39-3.46-8.85t-8.85-3.46H338.15q-12.56 0-18.84-7.89-6.28-7.89-6.28-17.36 0-10.37 7.02-17.69 7.02-7.32 18.1-7.32h459.28q25.44 0 44 18.57 18.57 18.56 18.57 44ZM683.33-478.21h-93.64q-12.56 0-18.84-7.79-6.29-7.79-6.29-17.14 0-9.35 6.29-17.34 6.28-7.98 18.84-7.98h93.64q10.68 0 17.91 7.26 7.22 7.27 7.22 18 0 10.74-7.22 17.87-7.23 7.12-17.91 7.12Zm-114.61-10.51Zm-159.39 11.33Zm-132.8-.82q-10.73 0-17.86-7.26-7.13-7.26-7.13-18 0-10.73 7.26-17.86 7.27-7.13 18-7.13 10.74 0 17.87 7.26 7.12 7.27 7.12 18 0 10.74-7.26 17.87-7.26 7.12-18 7.12Z"/></svg>