<svg xmlns="http://www.w3.org/2000/svg" height="40" viewBox="0 -960 960 960" width="40"><path d="M761.154-110.283 638.076-233.155l-71.846 71.846q-11.59 11.59-23.256 4.487-11.666-7.102-19.615-15.307-17.974-17.718-17.974-43.795 0-26.076 17.974-44.05l180.923-180.923q17.718-17.718 43.794-17.718 26.077 0 44.051 17.718 7.949 8.205 15.051 19.871 7.103 11.666-4.487 23.256l-71.846 71.846 122.461 123.078q9.359 9.358 9.359 21.922t-9.359 21.923l-48.307 48.718q-9.359 9.615-21.923 9.615-12.564 0-21.922-9.615Zm89.486-612.82L412.563-284.642l24.334 24.283q24.077 24.333 16.769 51.358-7.307 27.026-27.589 47.308-6.718 6.717-16.153 6.717-9.436 0-16.154-6.717l-71.846-71.847-123.078 122.872q-9.358 9.615-21.922 9.615t-21.923-9.615l-48.718-48.717q-9.615-9.359-9.615-21.923 0-12.564 9.615-21.923l122.872-123.077-71.846-71.847q-6.718-6.718-6.718-16.153 0-9.436 6.718-16.153 20.281-20.282 47.307-27.59 27.025-7.308 51.358 16.769l24.668 24.719L709.95-845.486q8.358-8.359 20.217-13.436 11.859-5.077 24.423-5.077h74.127q13.564 0 22.423 8.859 8.859 8.859 8.859 22.423v87.486q0 6.41-2.206 11.794-2.205 5.385-7.153 10.334ZM327.231-575.82l30.384-30.565 30.436-30.769-30.436 30.769-30.384 30.565Zm-53.281 17.691L118.386-713.95q-8.615-8.358-13.5-20.217-4.885-11.859-4.885-24.423v-74.127q0-13.564 8.859-22.423 8.859-8.859 22.423-8.859h74.127q12.564 0 24.423 5.077 11.859 5.077 20.474 13.436L405.692-689.46q7.435 7.436 7.333 17.307-.103 9.872-7.538 17.307-7.18 7.231-17.372 7.333-10.192.103-17.371-7.333L210.795-813.744h-60.539v60.539l159.283 159.949q7.231 7.231 7.423 17.397.192 10.166-7.423 17.73-7.82 7.821-17.794 7.821t-17.795-7.821Zm102.409 237.488 433.385-432.564v-60.539h-60.539L315.82-381.436l60.539 60.795Zm0 0-29.974-30.821-30.565-29.974 30.565 29.974 29.974 30.821Z"/></svg>