<svg xmlns="http://www.w3.org/2000/svg" height="40" viewBox="0 -960 960 960" width="40"><path d="M220.256-476.82q0 55.8 20.926 101.97 20.927 46.17 60.407 82.594l35.13 30.924v-97.129q0-10.846 7.146-17.987 7.146-7.141 17.999-7.141 10.854 0 17.982 7.141t7.128 17.987v154.101q0 13.462-8.911 22.372-8.91 8.91-22.371 8.91H201.59q-10.846 0-17.987-7.146-7.14-7.146-7.14-17.999 0-10.854 7.14-17.982 7.141-7.128 17.987-7.128h101.54l-28.668-26.77q-55-48.18-79.73-105.167-24.731-56.988-24.731-121.55 0-90.344 47.205-165.236t126.589-114.713q9.179-4.589 18.545-.871 9.365 3.717 12.865 13.234 3.846 9.264-.252 19.092-4.097 9.827-13.62 14.98-64.436 34.231-102.757 96.692-38.32 62.461-38.32 136.822Zm519.488-6.36q0-48.364-20.926-96.149-20.927-47.785-59.33-86.108l-34.719-33.231v97.129q0 10.846-7.146 17.987-7.146 7.141-18 7.141-10.853 0-17.981-7.141-7.128-7.141-7.128-17.987V-755.64q0-13.462 8.91-22.372t22.371-8.91h154.102q10.846 0 17.987 7.146 7.141 7.146 7.141 17.999 0 10.854-7.141 17.982t-17.987 7.128h-101.95l28.411 27.847q52.678 50.776 78.16 109.567 25.481 58.792 25.481 116.133 0 89.812-46.269 164.004t-124.576 115.09q-9.436 5-19.577 1.782-10.141-3.218-13.987-13.321-3.846-9.304.295-19.203 4.141-9.898 13.192-14.898 64.847-33.564 102.757-96.359 37.91-62.794 37.91-137.155Z"/></svg>