<svg xmlns="http://www.w3.org/2000/svg" height="40" viewBox="0 -960 960 960" width="40"><path d="M282.565-60.002q-25.788 0-44.176-18.387-18.388-18.388-18.388-44.176v-714.87q0-25.788 18.388-44.176t44.176-18.388h394.87q25.788 0 44.176 18.388t18.388 44.176v714.87q0 25.788-18.388 44.176-18.388 18.387-44.176 18.387h-394.87Zm-12.309-95.383v32.82q0 4.616 3.847 8.462 3.846 3.847 8.462 3.847h394.87q4.616 0 8.462-3.847 3.847-3.846 3.847-8.462v-32.82H270.256Zm0-50.255h419.488v-548.72H270.256v548.72Zm184.617-224.256v-165.181q0-10.698 7.249-17.913 7.249-7.214 17.999-7.214t17.878 7.214q7.128 7.215 7.128 17.913v165.181l65.232-65.027q7.231-7.23 17.464-7.422 10.233-.193 17.675 7.516 7.604 7.727 7.604 18.009 0 10.281-7.615 17.896L501.923-354.693q-9.406 9.359-21.946 9.359-12.541 0-21.9-9.359l-104.23-104.231q-7.231-7.23-7.192-17.602.038-10.371 7.858-18.191 7.616-7.616 17.795-7.718 10.179-.103 17.999 7.512l64.566 65.027ZM270.256-804.615h419.488v-32.82q0-4.616-3.847-8.462-3.846-3.847-8.462-3.847h-394.87q-4.616 0-8.462 3.847-3.847 3.846-3.847 8.462v32.82Zm0 0v-45.129 45.129Zm0 649.23v45.129-45.129Z"/></svg>