<svg xmlns="http://www.w3.org/2000/svg" height="40" viewBox="0 -960 960 960" width="40"><path d="M202.565-190.256h86.153q5.129 0 8.719-3.462t3.59-8.847v-554.87q0-5.385-3.59-8.847-3.59-3.462-8.719-3.462h-86.153q-5.385 0-8.847 3.462-3.462 3.462-3.462 8.847v554.87q0 5.385 3.462 8.847 3.462 3.462 8.847 3.462Zm-62.564-12.309v-554.87q0-25.609 18.478-44.086 18.477-18.478 44.086-18.478h86.153q25.609 0 44.087 18.478 18.477 18.477 18.477 44.086v554.87q0 25.609-18.477 44.086-18.478 18.478-44.087 18.478h-86.153q-25.609 0-44.086-18.478-18.478-18.477-18.478-44.086Zm583.488-252.308H477.692q-10.679 0-17.903-7.262-7.224-7.263-7.224-18 0-10.736 7.224-17.864t17.903-7.128h245.797l-60.13-61.181q-6.82-7.231-7.218-17.589-.397-10.359 7.061-17.75 7.336-7.275 17.798-7.083 10.461.192 17.691 7.423l99.385 99.384q9.359 9.406 9.359 21.946 0 12.541-9.359 21.9l-99.769 99.769q-7.231 7.23-17.205 7.333-9.974.102-17.878-7.4-7.531-7.164-7.134-17.625.397-10.461 7.218-17.692l60.181-61.181Zm-243.61-310.255q-11.712 0-19.513-7.923-7.801-7.922-7.801-19.634 0-11.711 7.922-19.512 7.923-7.802 19.634-7.802 11.712 0 19.513 7.923 7.801 7.923 7.801 19.634 0 11.712-7.922 19.513-7.923 7.801-19.634 7.801Zm156.414 0q-11.973 0-19.646-7.923-7.673-7.922-7.673-19.634 0-11.711 7.79-19.512 7.79-7.802 19.635-7.802 11.844 0 19.645 7.923t7.801 19.634q0 11.712-7.921 19.513-7.921 7.801-19.631 7.801Zm156.149 0q-11.712 0-19.513-7.923-7.801-7.922-7.801-19.634 0-11.711 7.923-19.512 7.922-7.802 19.634-7.802 11.711 0 19.512 7.923 7.802 7.923 7.802 19.634 0 11.712-7.923 19.513-7.923 7.801-19.634 7.801ZM479.879-140.001q-11.712 0-19.513-7.923-7.801-7.923-7.801-19.634 0-11.712 7.922-19.513 7.923-7.801 19.634-7.801 11.712 0 19.513 7.922 7.801 7.923 7.801 19.635 0 11.711-7.922 19.512-7.923 7.802-19.634 7.802Zm156.414 0q-11.973 0-19.646-7.923t-7.673-19.634q0-11.712 7.79-19.513 7.79-7.801 19.635-7.801 11.844 0 19.645 7.922 7.801 7.923 7.801 19.635 0 11.711-7.921 19.512-7.921 7.802-19.631 7.802Zm156.149 0q-11.712 0-19.513-7.923-7.801-7.923-7.801-19.634 0-11.712 7.923-19.513 7.922-7.801 19.634-7.801 11.711 0 19.512 7.922 7.802 7.923 7.802 19.635 0 11.711-7.923 19.512-7.923 7.802-19.634 7.802Zm-589.877-50.255h-12.309 110.771-98.462Z"/></svg>