<svg xmlns="http://www.w3.org/2000/svg" height="40" viewBox="0 -960 960 960" width="40"><path d="M480-780.409q62.08 0 118.476 21.346 56.395 21.347 102.78 60.808l29.59-29.846q7.23-7.231 17.499-7.423 10.269-.192 17.884 7.423t7.615 17.692q0 10.076-7.615 17.691l-29.846 29.847q42.026 47.615 62.821 104.675 20.795 57.061 20.795 117.786 0 31.692-5.885 63.192t-18.731 61.577q-5.71 14.286-15.752 17.95-10.042 3.665-19.093.075-9.051-3.846-13.948-11.884-4.898-8.038-.846-17.705 11.359-25.077 17.679-53.679 6.321-28.603 6.321-59.526 0-120.462-84.641-205.103T480-730.154q-29.539 0-59.628 6.192-30.09 6.193-54.988 17.552-9.666 4.513-17.833-.09-8.166-4.602-11.756-13.653-3.846-9.051-.436-19.013 3.411-9.961 17.051-15.832 30.462-12.783 62.949-19.097 32.487-6.314 64.641-6.314Zm25.127 231.152v-59.41q0-10.852-7.137-17.99-7.138-7.137-17.99-7.137-9.493 0-16.297 6.102-6.805 6.103-7.702 15.513v13.795l49.126 49.127ZM480-100.412q-69.973 0-131.909-26.897-61.936-26.897-108.244-73.077-46.307-46.179-73.076-108.243-26.77-62.064-26.77-131.781 0-61.18 20.231-116.795 20.231-55.616 62.078-104.026L98.72-784.821q-7.231-7.231-7.424-17.705-.192-10.474 7.423-18.089 7.615-7.615 17.897-7.615 10.282 0 17.897 7.615l686.512 686.512q7.231 7.231 7.423 17.5.193 10.269-7.423 17.884-7.615 7.615-17.897 7.615-10.281 0-17.896-7.615l-84.668-84.001q-45.051 39.18-101.448 60.744Q542.718-100.412 480-100.412Zm0-50.255q51.506 0 99.1-17.756 47.593-17.757 86.799-50.911L258.77-626.719q-33.411 38.282-50.962 86.308-17.552 48.026-17.552 100.001 0 120.461 84.641 205.102T480-150.667Zm-87.18-709.077q-10.852 0-17.99-7.142-7.137-7.141-7.137-17.999 0-10.858 7.137-17.986 7.138-7.128 17.99-7.128h174.36q10.852 0 17.99 7.141 7.137 7.142 7.137 18t-7.137 17.986q-7.138 7.128-17.99 7.128H392.82Zm69.694 436.41Zm84.537-84.333Z"/></svg>