<svg xmlns="http://www.w3.org/2000/svg" height="40" viewBox="0 -960 960 960" width="40"><path d="M480-100.898q-8.154 0-15.846-1.91-7.692-1.911-14.846-6.116L161.872-271.026q-14.769-8.359-23.32-22.5t-8.551-31.654v-314.512q0-17.513 8.756-31.859t23.525-22.961l287.436-157.641q7.154-3.949 14.641-5.654T480-859.512q8.154 0 15.641 1.705t14.641 5.654l287.436 157.641q14.769 8.615 23.525 22.961 8.756 14.346 8.756 31.859v314.512q0 17.513-8.551 31.654-8.551 14.141-23.32 22.5L510.692-108.924q-7.154 4.205-14.846 6.116-7.692 1.91-15.846 1.91ZM367-571.743q22.539-25.564 51.846-39.474 29.308-13.91 61.154-13.91 31.974 0 61.218 13.91 29.243 13.91 51.782 39.474l158.412-90.539-265.258-144.616q-3.077-1.282-6.154-1.282t-6.154 1.282L208.588-662.282 367-571.743Zm87.873 408.206v-172.951q-52-11.692-86-51.32t-34-92.192q0-11.487 1.577-22.795 1.576-11.308 6.423-24.385l-162.617-93.283v294.899q0 3.462 1.538 6.154 1.539 2.693 4.616 4.616l268.463 151.257ZM480-385.127q39.539 0 67.206-27.872T574.873-480q0-39.539-27.667-67.206T480-574.873q-39.129 0-67.001 27.667-27.872 27.667-27.872 67.206 0 39.129 27.872 67.001 27.872 27.872 67.001 27.872Zm25.127 221.59L773.59-314.794q3.077-1.923 4.616-4.616 1.538-2.692 1.538-6.154v-294.899L617.127-527.18q4.847 14.077 6.423 24.885 1.577 10.808 1.577 22.295 0 52.564-34 92.192-34 39.628-86 51.32v172.951Z"/></svg>