<svg xmlns="http://www.w3.org/2000/svg" height="40" viewBox="0 -960 960 960" width="40"><path d="M445.565-100.001q-30.974 0-59.128-12.77-28.154-12.769-46.719-37.103L149.104-397.078q-5.667-7.205-5.462-16.205.205-9 6.41-15.461l2.154-1.897q12.026-13.026 29.256-15.923 17.23-2.897 32.614 5.692l109.515 56.103V-719.23q0-10.679 7.263-17.903 7.263-7.224 17.999-7.224 10.737 0 17.967 7.224 7.231 7.224 7.231 17.903v367.163q0 17.853-15.154 26.779-15.154 8.927-30.666.748L231.1-373.875l149.951 194.156q11.768 15.001 28.77 22.232t35.744 7.231h188.921q39.924 0 67.591-27.475 27.667-27.475 27.667-67.398v-155.64q0-24.738-16.734-41.472-16.735-16.734-41.472-16.734H494.564q-10.679 0-17.903-7.263-7.224-7.263-7.224-17.999 0-10.737 7.224-17.865 7.224-7.128 17.903-7.128h176.974q45.192 0 76.826 31.634 31.635 31.635 31.635 76.827v155.613q0 60.693-42.483 102.924-42.483 42.231-103.03 42.231H445.565Zm35.049-229.742Zm-10.312-294.231q-10.969 0-18.097-7.2-7.128-7.2-7.128-17.842 0-2.137 3.18-12.778 7.589-12.923 11.589-27.251 4-14.329 4-30.503 0-47.763-33.606-81.286-33.606-33.524-81.615-33.524-48.009 0-81.522 33.58-33.513 33.579-33.513 81.55 0 15.921 4 30.216 4 14.295 11.59 27.218 1.641 2.932 2.41 5.894.769 2.963.769 6.925 0 10.639-7.094 17.82-7.095 7.181-18.124 7.181-6.935 0-12.845-3.513-5.91-3.513-9.072-9.687-10.915-18.441-16.402-39.226-5.487-20.785-5.487-43.233 0-68.57 48.355-116.775 48.355-48.205 117.028-48.205 68.674 0 117.029 48.205 48.354 48.205 48.354 116.943 0 22.361-5.623 43.193-5.623 20.833-16.12 38.99-3.345 6.282-9.152 9.795-5.807 3.513-12.904 3.513Z"/></svg>