<svg xmlns="http://www.w3.org/2000/svg" height="40" viewBox="0 -960 960 960" width="40"><path d="m139.539-79.948 107-551.797-107.796 45.821v106.334q0 10.872-7.128 18t-18 7.128q-10.871 0-18-7.128-7.127-7.128-7.127-18v-118.974q0-9.359 5.371-17.141 5.372-7.782 13.988-11.987l166.255-70.282q26.641-11.615 54.18-6.448 27.538 5.166 42.974 30.217l40.692 64.693q23.667 37.641 61.218 65.564 37.552 27.923 85.141 36.308 10.462 1.948 17.474 9.512 7.013 7.564 7.013 17.769 0 10.871-7.859 17.705-7.859 6.833-18.115 5.474-50.974-6.923-99.705-36.731t-85.526-86.937L334.64-414.615l77.308 73.667q4.949 4.948 7.359 10.859 2.41 5.91 2.41 12.064v242.897q0 10.871-7.128 18-7.128 7.127-17.999 7.127-10.872 0-18-7.128t-7.128-18v-207.923L261.563-387.899l-72.205 317.77q-1.564 9.052-8.5 14.59-6.935 5.538-16.191 5.538-12.282 0-20.115-9.128-7.833-9.128-5.013-20.82Zm236.23-672.976q-29.461 0-49.961-20.628t-20.5-49.833q0-29.205 20.5-49.833t49.961-20.628q29.205 0 49.705 20.628t20.5 49.833q0 29.205-20.5 49.833t-49.705 20.628Zm412.258 636.359H585.769q-9.487 0-15.512-6.025-6.026-6.026-6.026-15.513 0-9.23 6.026-15.256 6.025-6.025 15.512-6.025h202.258l-22.924-22.924q-6.41-6.41-6.603-14.756-.192-8.346 6.603-15.397 6.794-6.795 15.076-6.795t15.077 6.795l52.436 52.436q9.359 9.358 9.359 21.922t-9.359 21.923l-52.436 52.436q-6.41 6.41-14.551 6.397-8.141-.012-14.936-6.807-6.794-6.795-6.794-15.077t6.794-15.076l22.258-22.258Zm-139.9-172.974 22.924 22.668q6.41 6.666 6.602 14.807.193 8.141-6.602 14.935-6.795 6.795-15.077 6.795t-15.076-6.795l-52.436-52.025q-9.359-9.359-9.359-21.795 0-12.435 9.359-22.051l52.436-52.179q6.41-6.667 14.884-6.526 8.474.141 15.269 6.936t6.795 14.872q0 8.076-6.795 14.871l-22.924 22.667h202.514q9.23 0 15.256 6.026 6.025 6.026 6.025 15.256 0 9.487-6.025 15.513-6.026 6.025-15.256 6.025H648.127Z"/></svg>