<svg xmlns="http://www.w3.org/2000/svg" viewBox="0 -960 960 960" width="32" height="32"><path d="m480-467.15 76.67 46.69q8.61 5.41 16.97-.9 8.36-6.31 6.15-16.67l-20.33-86.51 67.85-58.56q8.15-7.41 4.73-16.85-3.42-9.44-13.71-10.49l-89.2-7.48-34.57-81.82q-4.07-9.36-14.49-9.36-10.43 0-14.63 9.36l-34.57 81.82-89.2 7.48q-10.29 1.05-13.71 10.49-3.42 9.44 4.73 16.85l67.85 58.56-20.33 86.51q-2.21 10.36 6.15 16.67 8.36 6.31 16.97.9L480-467.15ZM241.54-260l-88.33 88.33q-14.77 14.77-33.99 6.76Q100-172.92 100-193.8v-603.63q0-25.79 18.39-44.18T162.57-860h634.86q25.79 0 44.18 18.39T860-797.43v474.86q0 25.79-18.39 44.18T797.43-260H241.54Zm-21.74-50.26h577.63q4.62 0 8.47-3.84 3.84-3.85 3.84-8.47v-474.86q0-4.62-3.84-8.47-3.85-3.84-8.47-3.84H162.57q-4.62 0-8.47 3.84-3.84 3.85-3.84 8.47v559.48l69.54-72.31Zm-69.54 0v-499.48 499.48Z"/></svg>