<svg xmlns="http://www.w3.org/2000/svg" height="40" viewBox="0 -960 960 960" width="40"><path d="M420-464.616q14.692 0 25.038-10.346T455.384-500q0-14.692-10.346-25.038T420-535.384q-14.692 0-25.038 10.346T384.616-500q0 14.692 10.346 25.038T420-464.616Zm120 0q14.692 0 25.038-10.346T575.384-500q0-14.692-10.346-25.038T540-535.384q-14.692 0-25.038 10.346T504.616-500q0 14.692 10.346 25.038T540-464.616Zm-240 0q14.692 0 25.038-10.346T335.384-500q0-14.692-10.346-25.038T300-535.384q-14.692 0-25.038 10.346T264.616-500q0 14.692 10.346 25.038T300-464.616Zm360 0q14.692 0 25.038-10.346T695.384-500q0-14.692-10.346-25.038T660-535.384q-14.692 0-25.038 10.346T624.616-500q0 14.692 10.346 25.038T660-464.616ZM223.615-220.001l-21.923 62.05q-1.294 3.275-4.031 5.227-2.736 1.953-6.343 1.953h-3.022q-4.446 0-7.781-3.362-3.335-3.361-3.335-7.843v-58.025h-14.615q-25.609 0-44.086-18.478-18.478-18.477-18.478-44.086v-434.87q0-25.609 18.478-44.086 18.477-18.478 44.086-18.478h634.87q25.609 0 44.086 18.478 18.478 18.477 18.478 44.086v434.87q0 25.631-18.478 44.125-18.477 18.493-44.086 18.493H782.82v58.971q0 4.296-2.936 7.251-2.935 2.954-7.204 2.954h-3.962q-3.539 0-6.231-1.927-2.692-1.927-3.564-5.304l-21.154-61.999H223.615Zm-61.05-50.255h634.87q5.385 0 8.847-3.462 3.462-3.462 3.462-8.847v-434.87q0-5.385-3.462-8.847-3.462-3.462-8.847-3.462h-634.87q-5.385 0-8.847 3.462-3.462 3.462-3.462 8.847v434.87q0 5.385 3.462 8.847 3.462 3.462 8.847 3.462ZM480-500Z"/></svg>