<svg xmlns="http://www.w3.org/2000/svg" height="40" viewBox="0 -960 960 960" width="40"><path d="M303.051-220.001q-10.871 0-17.999-7.128-7.128-7.128-7.128-18 0-10.871 7.128-17.999 7.128-7.128 17.999-7.128h274.668q66 0 113.051-44.526t47.051-109.757q0-64.974-47.051-109.308-47.051-44.333-113.051-44.333H275.896l98.488 98.488Q382-472.077 382-462t-7.616 17.692q-7.615 7.615-17.884 7.423-10.269-.193-17.499-7.423L201.924-581.385q-4.948-4.948-7.051-10.358-2.102-5.411-2.102-11.564 0-6.411 2.102-11.693 2.103-5.282 7.051-10.23l137.077-137.077q7.615-7.615 17.692-7.615 10.076 0 17.691 7.615 7.616 7.615 7.423 17.884-.192 10.269-7.423 17.5l-98.488 98.488h301.156q86.948 0 148.986 58.987t62.038 144.909q0 85.923-62.038 145.23Q664-220.001 577.052-220.001H303.051Z"/></svg>