<svg xmlns="http://www.w3.org/2000/svg" height="40" viewBox="0 -960 960 960" width="40"><path d="M190.256-809.744v273.975V-538.82v388.564V-809.744v173.23-173.23Zm124.462 390h125.744q10.679 0 17.904-7.263 7.224-7.263 7.224-18 0-10.736-7.224-17.864-7.225-7.128-17.904-7.128H314.718q-10.679 0-17.903 7.263-7.225 7.263-7.225 17.999 0 10.737 7.225 17.865 7.224 7.128 17.903 7.128Zm0 164.871h65.744q10.679 0 17.904-7.262 7.224-7.263 7.224-18 0-10.736-7.224-17.864-7.225-7.128-17.904-7.128h-65.744q-10.679 0-17.903 7.262-7.225 7.263-7.225 18 0 10.736 7.225 17.864 7.224 7.128 17.903 7.128ZM202.565-100.001q-25.788 0-44.176-18.388t-18.388-44.176v-634.87q0-25.788 18.388-44.176t44.176-18.388h311.718q13.031 0 24.528 5.077 11.497 5.077 20.113 13.436l162.562 162.562q8.359 8.616 13.436 20.113t5.077 24.528v80.387q0 10.682-7.263 17.379-7.263 6.697-18 6.697-10.736 0-17.864-7.224t-7.128-17.904v-81.566H546.148q-12.98 0-22.05-9.075-9.071-9.074-9.071-22.053v-142.102H202.565q-4.616 0-8.462 3.847-3.847 3.846-3.847 8.462v634.87q0 4.616 3.847 8.462 3.846 3.847 8.462 3.847h238.897q10.679 0 17.904 7.263 7.224 7.263 7.224 17.999 0 10.737-7.224 17.865-7.225 7.128-17.904 7.128H202.565Zm451.537-360.87q73.518 0 125.271 51.753t51.753 125.4q0 73.647-51.753 125.399-51.753 51.753-125.4 51.753t-125.399-51.743q-51.753-51.743-51.753-125.538 0-73.518 51.743-125.271t125.538-51.753Zm.482 296.101q10.618 0 17.529-7.166 6.911-7.165 6.911-17.675 0-10.51-6.983-17.603-6.983-7.094-17.601-7.094-10.619 0-17.658 7.166-7.039 7.165-7.039 17.675 0 10.51 7.165 17.603 7.166 7.094 17.676 7.094Zm-.072-245.794q-19.524 0-36.414 9.861-16.89 9.862-27.586 26.6-4.282 6.12-1.32 12.12 2.962 6 10.062 9.363 5.943 2.696 12.051.012 6.108-2.685 10.696-7.616 5.609-8.007 13.918-12.584 8.31-4.577 18.281-4.577 14.435 0 25.092 9.387 10.656 9.387 10.656 23.462 0 11.433-6.923 19.728-6.923 8.295-14.923 16.295-6.821 6.41-13.347 12.808-6.525 6.397-11.782 14.679-3.794 5.615-4.897 12.391-1.103 6.776-1.103 13.737 0 8.949 4.745 16.205 4.744 7.257 12.68 7.257 7.344 0 12.37-5.698 5.026-5.697 5.026-13.293 0-11.111 6.333-20.344t14.917-17.283q12.877-11.07 22.3-25.272 9.424-14.201 9.424-31.033 0-27.931-20.664-47.068-20.663-19.137-49.592-19.137Z"/></svg>