<svg xmlns="http://www.w3.org/2000/svg" height="40" viewBox="0 -960 960 960" width="40"><path d="M481.872-140.001q-70.799 0-132.835-26.898-62.036-26.897-108.446-72.974-46.41-46.077-73.308-108.234-26.897-62.157-26.897-132.948 0-70.534 26.897-132.175 26.898-61.641 73.308-107.641 46.41-46 108.446-72.564 62.036-26.564 132.835-26.564 74.384 0 141.358 31.731t116.076 87.704v-75.59q0-10.596 7.142-17.862 7.141-7.266 17.999-7.266 10.858 0 17.986 7.266t7.128 17.862v131.229q0 13.468-8.907 22.375t-22.375 8.907H626.896q-10.852 0-17.989-7.142-7.138-7.141-7.138-17.999 0-10.858 7.138-17.986 7.137-7.128 17.989-7.128h76.924q-42.615-48.692-99.846-77.269-57.231-28.577-122.102-28.577-121.051 0-206.141 83.398-85.09 83.397-85.09 203.782 0 121.872 84.68 207.09Q360-190.256 481.872-190.256q107.744 0 187.654-69.654t96.397-174.655q2.359-11.051 9.859-17.717 7.5-6.667 17.872-6.128 11.14.538 17.512 8.845 6.371 8.308 4.628 18.744-17.257 124.922-111.487 207.871-94.23 82.949-222.435 82.949Zm24.05-351.076 117.437 116.104q7.231 7.487 7.423 17.961.192 10.474-7.423 18.089-7.615 7.359-17.692 7.359-10.076 0-17.692-7.359L465.026-460.795q-4.948-4.949-7.153-10.75-2.206-5.802-2.206-11.788V-656.36q0-10.852 7.142-17.99 7.141-7.137 17.999-7.137 10.858 0 17.986 7.137 7.128 7.138 7.128 17.99v165.283Z"/></svg>