<svg xmlns="http://www.w3.org/2000/svg" height="40" viewBox="0 -960 960 960" width="40"><path d="M54.495-587.692q10.737 0 17.865 7.35 7.128 7.349 7.128 17.778v164.872q0 10.679-7.263 17.903-7.263 7.224-18 7.224-10.736 0-17.864-7.224t-7.128-17.903v-164.872q0-10.429 7.263-17.778 7.263-7.35 18-7.35Zm115.385-83.794q10.736 0 17.864 7.224t7.128 17.903v332.718q0 10.679-7.263 17.903-7.263 7.224-17.999 7.224-10.737 0-17.865-7.224-7.128-7.224-7.128-17.903v-332.718q0-10.679 7.263-17.903 7.263-7.224 18-7.224Zm735.895 83.794q10.736 0 17.864 7.35 7.128 7.349 7.128 17.778v164.872q0 10.679-7.263 17.903-7.263 7.224-17.999 7.224-10.737 0-17.865-7.224-7.128-7.224-7.128-17.903v-164.872q0-10.429 7.263-17.778 7.263-7.35 18-7.35ZM790.39-671.486q10.737 0 17.865 7.224 7.128 7.224 7.128 17.903v332.718q0 10.679-7.263 17.903-7.263 7.224-18 7.224-10.736 0-17.864-7.224t-7.128-17.903v-332.718q0-10.679 7.263-17.903 7.263-7.224 17.999-7.224ZM322.565-140.001q-25.609 0-44.086-18.478-18.478-18.477-18.478-44.086v-554.87q0-25.609 18.478-44.086 18.477-18.478 44.086-18.478h314.87q25.609 0 44.086 18.478 18.478 18.477 18.478 44.086v554.87q0 25.609-18.478 44.086-18.477 18.478-44.086 18.478h-314.87Zm0-50.255h314.87q5.385 0 8.847-3.462 3.462-3.462 3.462-8.847v-554.87q0-5.385-3.462-8.847-3.462-3.462-8.847-3.462h-314.87q-5.385 0-8.847 3.462-3.462 3.462-3.462 8.847v554.87q0 5.385 3.462 8.847 3.462 3.462 8.847 3.462Zm-12.309 0V-769.744-190.256Z"/></svg>