<svg xmlns="http://www.w3.org/2000/svg" height="40" viewBox="0 -960 960 960" width="40"><path d="M479.843-390.103q-45.92 0-77.83-32.067-31.91-32.067-31.91-77.987 0-45.92 32.067-77.83 32.067-31.91 77.987-31.91 45.92 0 77.83 32.067 31.91 32.067 31.91 77.987 0 45.92-32.067 77.83-32.067 31.91-77.987 31.91ZM480-220.001q-129.415 0-237.873-68.68Q133.668-357.36 75.592-471.829q-3.257-6.619-4.86-13.548-1.602-6.93-1.602-14.545 0-7.616 1.602-14.598 1.603-6.982 4.86-13.651 58.076-114.469 166.535-183.148 108.458-68.68 237.873-68.68 120.513 0 222.307 59.18 101.795 59.179 164.718 160.384 5.41 9.052 3 19.077-2.41 10.025-11.667 14.615-9.256 4.589-19.371 1.589-10.115-2.999-15.525-12.05-55.692-89.308-146.639-140.924Q585.875-729.744 480-729.744q-117.206 0-215.013 62.347Q167.179-605.051 115.282-500q51.897 105.051 149.705 167.397Q362.794-270.256 480-270.256q14.257 0 28.137-.898 13.88-.897 27.376-2.949 9.872-1.359 17.5 5.035t7.628 16q0 10.923-7.212 19.526-7.211 8.602-17.916 9.694-13.75 2.052-27.756 2.949-14.007.898-27.757.898Zm0-121.795q23.487 0 45.449-6.667 21.961-6.667 40.012-18.744 7.641-33.691 25.603-61.742 17.961-28.051 44.883-47.845 1.206-6.129 1.731-11.603.526-5.475.526-11.603 0-65.683-46.31-111.944-46.309-46.26-112.063-46.26t-111.894 46.31q-46.141 46.309-46.141 112.063t46.26 111.894Q414.317-341.796 480-341.796ZM476.077-500Zm198.41 360.383q-14.135 0-23.991-9.856-9.855-9.855-9.855-23.99v-114.23q0-13.974 11.115-23.59 11.115-9.615 26.962-9.615v-42.564q0-29.501 21.106-50.584 21.106-21.082 50.897-21.082 29.534 0 50.368 21.082 20.833 21.083 20.833 50.584v42.564q15.846 0 26.961 9.615 11.116 9.616 11.116 23.59v114.23q0 14.135-9.856 23.99-9.856 9.856-23.734 9.856H674.487Zm34.743-181.281h82.179v-42.506q0-17.878-11.416-29.545-11.415-11.667-29.294-11.667-18.136 0-29.802 11.625-11.667 11.625-11.667 29.529v42.564Z"/></svg>