<svg xmlns="http://www.w3.org/2000/svg" height="40" viewBox="0 -960 960 960" width="40"><path d="M710.266-649.359q-33.265 0-59.201-25.986t-25.936-59.327q0-39.096 24.846-77.339 24.846-38.244 47.923-67.936 4.686-6.154 12.227-6.154 7.542 0 12.491 6.154 23.076 29.692 47.922 67.884 24.846 38.191 24.846 77.577 0 33.268-25.926 59.198-25.927 25.929-59.192 25.929ZM245.129-100.001q-60.666 0-102.897-39.923-42.231-39.923-42.231-100.589v-206.769q0-26.915 12.745-50.451 12.745-23.537 35.332-38.292l307.616-198.666q7.922-5.487 16.679-3.808 8.756 1.679 15.422 8.346 14.62 14.699 15.464 33.644.844 18.945-9.951 36.508l-63.309 103.592h324.872q10.686 0 17.907 7.225 7.221 7.224 7.221 17.916 0 10.448-7.221 17.781-7.221 7.333-17.907 7.333H395.899q-18.434 0-27.563-15.949-9.129-15.948.435-31.717l66.283-108.336-259.233 168.617q-12.257 7.359-18.911 19.524-6.654 12.165-6.654 26.733v206.769q0 39.212 27.884 64.734 27.883 25.523 66.989 25.523h469.742q10.686 0 17.907 7.224 7.221 7.225 7.221 17.917 0 10.447-7.221 17.78-7.221 7.334-17.907 7.334H245.129ZM834.871-370.77H525.129q-10.686 0-17.907-7.258-7.221-7.259-7.221-18t7.221-17.869q7.221-7.128 17.907-7.128h309.742q10.686 0 17.907 7.225t7.221 17.916q0 10.448-7.221 17.781-7.221 7.333-17.907 7.333Zm-40 135.384H525.129q-10.686 0-17.907-7.258-7.221-7.259-7.221-18t7.221-17.869q7.221-7.128 17.907-7.128h269.742q10.686 0 17.907 7.225t7.221 17.916q0 10.448-7.221 17.781-7.221 7.333-17.907 7.333Zm-469.742-97.691Z"/></svg>