<svg xmlns="http://www.w3.org/2000/svg" height="40" viewBox="0 -960 960 960" width="40"><path d="M400-842.896q5.615 0 10.933 2.103t9.99 6.051q41.333 37.769 88.679 84.551 47.346 46.782 88.218 99.525 40.871 52.744 69.435 110.103 28.564 57.358 32.205 117.076.539 10.872-6.75 18.205-7.288 7.333-18.263 7.333-10.381 0-17.33-7.343-6.948-7.343-8.117-17.785-3.461-40.795-21.179-80.859-17.718-40.064-43.59-79.577-31.488-47.256-77.693-98.077Q460.333-732.41 400-786.718 277.205-676.231 213.731-580.103 150.256-483.974 150.256-408q0 94.052 54.591 165.231 54.59 71.18 148.795 87.744 14.256 2.743 19.91 11.704 5.654 8.962 3.81 18.325-1.588 9.106-7.987 15.858-6.399 6.752-16.45 4.983-115.231-16.769-184.077-103.051Q100.001-293.487 100.001-408q0-60.676 28-121.004 28-60.329 69.858-115.67 41.858-55.342 90.679-104.025 48.821-48.684 90.277-85.902 4.754-4.019 10.162-6.157 5.408-2.138 11.023-2.138Zm0 374.255Zm194.411 290.178H490.205v57.59q0 9.113-5.874 14.992-5.875 5.88-14.98 5.88-9.104 0-14.997-5.88-5.892-5.879-5.892-14.992v-183.692q0-9.564 7.18-16.346 7.179-6.782 16.743-6.782h122.026q17.23 0 29.486 12.641 12.257 12.641 12.257 29.871v64.975q0 17.231-12.257 29.487-12.256 12.256-29.486 12.256Zm136.512-23.026v80.616q0 9.113-5.874 14.992-5.875 5.88-14.98 5.88-9.361 0-15.253-5.88-5.892-5.879-5.892-14.992v-185.949q0-9.112 5.874-14.992 5.874-5.879 15.236-5.879 9.105 0 14.997 5.879 5.892 5.88 5.892 14.992v63.591H836.77v-63.591q0-9.112 5.874-14.992 5.875-5.879 14.979-5.879 9.362 0 15.254 5.879 5.892 5.88 5.892 14.992v185.949q0 9.113-5.874 14.992-5.874 5.88-15.236 5.88-9.105 0-14.997-5.88-5.892-5.879-5.892-14.992v-80.616H730.923Zm-240.718-18.717h104.206v-64.975H490.205v64.975Z"/></svg>