<svg xmlns="http://www.w3.org/2000/svg" height="40" viewBox="0 -960 960 960" width="40"><path d="M668.752-148.464q-16.214 0-27.33-10.995-11.115-10.996-11.115-27.251v-113.289q0-16.049 11.058-27.103 11.057-11.053 27.403-11.053h2.334v-39.59q0-31.755 22.377-54.108 22.378-22.353 54.038-22.353 31.661 0 53.956 22.353t22.295 54.108v39.59h2.333q16.276 0 26.984 10.997 10.708 10.998 10.708 27.255v113.31q0 16.052-11.051 27.091-11.052 11.038-27.389 11.038H668.752Zm37.734-189.691h81.898v-39.59q0-17.82-11.5-29.449-11.5-11.628-29.449-11.628t-29.449 11.628q-11.5 11.629-11.5 29.449v39.59Zm-226.55-441.844q109.14 0 209.589 34.68 100.448 34.679 186.363 99.608 11.808 8.615 18.133 20.777 6.326 12.163 7.125 25.313.955 13.085-4.032 26.083-4.988 12.999-15.936 23.691l-37.453 38.21q-7.187 6.841-17.559 7.136-10.371.294-17.525-7.116-7.41-7.256-7.41-17.512t7.41-17.41l38.512-39.178q4.231-3.975 3.654-9.937t-5.577-9.295q-80.872-59.564-172.833-92.179Q580.436-729.744 480-729.744q-100.436 0-192.397 32.616-91.961 32.615-172.833 92.179-5 3.333-5.705 9.167-.706 5.834 3.782 10.065l358.306 358.563q3.462 3.461 8.847 3.461t8.847-3.461l32.616-32.873q7.025-6.769 17.444-6.961 10.419-.193 17.653 7.042 7.235 7.235 7.235 17.461 0 10.227-7.154 17.38l-32.59 32.591q-9.615 9.615-21.115 13.769-11.5 4.153-23 4.153T457-178.809q-11.436-4.218-20.794-13.705L79.284-549.436q-10.28-10.039-15.306-23.397-5.027-13.357-4.156-26.708.711-13.215 6.777-25.363 6.066-12.147 17.172-21.378 86.051-64.768 186.538-99.242 100.486-34.475 209.627-34.475Zm.064 304.05Z"/></svg>