<svg xmlns="http://www.w3.org/2000/svg" height="40" viewBox="0 -960 960 960" width="40"><path d="M480-134.924q-30.948 0-53.422-22.474-22.474-22.474-22.474-53.422 0-30.948 22.474-53.422 22.474-22.474 53.422-22.474 30.948 0 53.422 22.474 22.474 22.474 22.474 53.422 0 30.948-22.474 53.422-22.474 22.474-53.422 22.474Zm0-394.305q74.179 0 139.192 25.693 65.013 25.692 121.371 74.026 12.026 10.051 12.731 25.422.705 15.371-10.782 26.858-11.282 11.282-26.55 10.654-15.269-.629-27.705-10.475-46.974-38.897-99.641-58.231Q535.949-454.615 480-454.615t-108.616 19.333q-52.667 19.334-99.641 58.231-12.436 9.846-27.705 10.372-15.268.526-26.55-10.756-11.282-11.23-10.679-26.73.602-15.5 12.628-25.551 56.358-48.333 121.371-73.923 65.013-25.59 139.192-25.59Zm0-240q124.949 0 234.243 45.295 109.295 45.295 195.705 123.013 12.025 10.872 13.038 26.538t-10.474 27.153q-11.41 11.666-27.743 10.666t-29.153-12.051q-78.692-68.128-173.398-107.064Q587.513-694.615 480-694.615q-107.513 0-202.218 38.936-94.706 38.936-173.398 107.064-12.82 11.051-28.82 12.051T47.898-547.23q-11.487-11.487-10.679-27.153.808-15.666 12.833-26.538 86.41-77.718 195.705-123.013Q355.051-769.229 480-769.229Z"/></svg>