<svg xmlns="http://www.w3.org/2000/svg" height="40" viewBox="0 -960 960 960" width="40"><path d="M156.282-130.001q-9.871 0-16.589-7.628-6.718-7.628-5.103-17.499 11.385-81.564 30.27-173.487 18.884-91.923 46.32-165.026 24.846-67.307 52.59-101.833 27.743-34.525 56.23-34.525 19.949 0 40 20.82 20.051 20.821 39.846 59.36 19.795 38.539 37.103 93.181 17.307 54.642 31.641 123.694Q481-449.125 498.949-540.677q17.949-91.551 39.974-156.347 22.282-64.795 47.718-98.885 25.436-34.09 53.359-34.09 34.743 0 65.153 47.41 30.41 47.41 55.257 140.487 28.692 106.846 44.589 239.076 15.898 132.231 23 246.513.616 11.256-6.538 18.884t-18.153 7.628q-11.667 0-20.936-7.346t-12.705-18.345q-11-38.257-26.166-74.655-15.167-36.397-32.321-67.013-20.231-35.205-38.616-55.41Q654.18-372.975 640-374.873q-13.872 1.898-30.885 21.872-17.012 19.974-33.448 48.333-17.206 29.693-32.847 67.129-15.641 37.436-27.282 78.795-3.846 12.923-13.603 20.833-9.756 7.91-21.55 7.91-11.795 0-20.346-8.743-8.551-8.744-10.551-21.41-11.154-77.949-26.616-148.296-15.461-70.346-33.41-127.167-17.949-56.82-35.654-94.551-17.705-37.731-33.808-49.064-20.282 15.128-40.141 55.115Q260-484.13 241.846-424.848q-16.744 54.898-31.295 123.026-14.552 68.129-25.706 146.694-1.615 10.871-9.653 17.999-8.038 7.128-18.91 7.128Zm358.896-159.02q27.949-65.361 60.373-100.734 32.423-35.372 64.449-35.372 32.436 0 66.667 36.295 34.231 36.296 60.719 99.811-8.59-99.874-22.18-185.016t-30.795-150.348q-17.205-65.205-36.116-105.334-18.91-40.128-38.295-48.795-18.564 8.256-36.731 47.641t-34.706 104.309q-16.795 65.18-30.385 150.54-13.589 85.36-23 187.003Z"/></svg>