<svg xmlns="http://www.w3.org/2000/svg" height="40" viewBox="0 -960 960 960" width="40"><path d="M150.256-202.565v-7.384 19.693-459.488V-202.565Zm12.309 62.564q-25.788 0-44.176-18.388t-18.388-44.176v-434.87q0-25.788 18.388-44.176t44.176-18.388h177.436v-77.435q0-25.435 18.388-43.999 18.388-18.564 44.176-18.564h154.87q25.788 0 44.176 18.564t18.388 43.999v77.435h177.436q25.788 0 44.176 18.388t18.388 44.176v158.129q0 10.645-7.25 17.386-7.249 6.741-17.999 6.741t-17.878-7.214q-7.128-7.215-7.128-17.913v-157.129q0-5.385-3.462-8.847-3.462-3.462-8.847-3.462h-634.87q-5.385 0-8.847 3.462-3.462 3.462-3.462 8.847v434.87q0 5.385 3.462 8.847 3.462 3.462 8.847 3.462h292.539q10.699 0 17.913 7.249 7.215 7.25 7.215 18t-7.215 17.878q-7.214 7.128-17.913 7.128H162.565Zm227.691-559.998h179.488v-77.435q0-5.385-3.462-8.846-3.462-3.462-8.847-3.462h-154.87q-5.385 0-8.847 3.462-3.462 3.461-3.462 8.846v77.435ZM720-63.386q-73.025 0-124.819-51.795Q543.386-166.975 543.386-240t51.795-124.819Q646.975-416.614 720-416.614t124.819 51.795Q896.614-313.025 896.614-240t-51.795 124.819Q793.025-63.386 720-63.386Zm-15.128-125.87-60.154-60.154q-4.82-4.564-10.5-4.756-5.679-.193-10.628 4.756-4.948 4.949-4.948 10.769 0 5.821 4.912 10.714l74.523 74.952q9.406 9.359 21.946 9.359 12.541 0 21.9-9.359l74.952-74.952q4.509-4.509 4.701-10.522.193-6.012-4.756-10.961-4.949-4.949-10.769-4.949-5.821 0-10.769 4.949l-59.898 60.154V-333.82q0-6.205-4.615-10.667-4.615-4.461-10.806-4.461-6.19 0-10.64 4.461-4.451 4.462-4.451 10.667v144.564Z"/></svg>