<svg xmlns="http://www.w3.org/2000/svg" height="40" viewBox="0 -960 960 960" width="40"><path d="M480-190.256q0-44.513-17.628-84.705t-48.91-71.474q-27.872-27.872-62.987-44.705t-74.423-20.243q-7.417-1-12.798 4.38-5.381 5.381-4.381 12.799 3.41 39.307 20.346 74.32 16.936 35.013 44.807 62.884 31.282 31.282 71.276 49.013 39.993 17.731 84.698 17.731ZM480-404q25.256 0 41.166-16.039 15.911-16.038 15.911-41.294v-6.051q7.23 5.769 16.089 8.166 8.859 2.398 18.269 2.398 25.257 0 41.552-16.295 16.294-16.295 16.294-41.373 0-19.024-8.718-32.114-8.717-13.09-23.487-21.397 14.755-6 23.48-20.302t8.725-33.498q0-25.046-16.294-41.341-16.295-16.295-41.552-16.295-9.41 0-18.269 2.398-8.859 2.397-16.089 8.423v-7.077q0-25.257-15.911-41.167-15.91-15.91-41.166-15.91-25.256 0-41.166 15.91-15.911 15.91-15.911 41.167v7.077q-7.23-6.026-16.089-8.423-8.859-2.398-18.269-2.398-25.257 0-41.552 16.295-16.294 16.295-16.294 41.373 0 19.024 8.512 32.319 8.513 13.295 23.693 21.577-15.18 6.282-23.693 20.32-8.512 14.039-8.512 32.885 0 25.256 16.294 41.551 16.295 16.295 41.552 16.295 9.41 0 18.474-2.398 9.064-2.397 15.884-8.166v6.051q0 25.256 15.911 41.294Q454.744-404 480-404Zm-.136-85.948q-32.81 0-55.491-22.659-22.681-22.659-22.681-55.398 0-32.647 22.817-55.475 22.818-22.828 55.627-22.828 32.81 0 55.491 22.767 22.681 22.768 22.681 55.504 0 32.833-22.817 55.461-22.818 22.628-55.627 22.628ZM480-190.256q44.513 0 84.705-17.629 40.192-17.628 71.474-48.91 27.871-27.871 44.705-62.986 16.833-35.116 20.243-74.423 1-7.418-4.381-12.799-5.381-5.38-12.798-4.38-39.308 3.41-74.32 20.243-35.013 16.833-62.885 44.705-31.282 31.282-49.012 71.531Q480-234.654 480-190.256Zm-317.435 90.255q-25.788 0-44.176-18.388t-18.388-44.176v-634.87q0-25.788 18.388-44.176t44.176-18.388h634.87q25.788 0 44.176 18.388t18.388 44.176v634.87q0 25.788-18.388 44.176t-44.176 18.388h-634.87Zm0-50.255h634.87q4.616 0 8.462-3.847 3.847-3.846 3.847-8.462v-634.87q0-4.616-3.847-8.462-3.846-3.847-8.462-3.847h-634.87q-4.616 0-8.462 3.847-3.847 3.846-3.847 8.462v634.87q0 4.616 3.847 8.462 3.846 3.847 8.462 3.847Zm-12.309 0V-809.744-150.256Z"/></svg>