<svg xmlns="http://www.w3.org/2000/svg" height="20" viewBox="0 -960 960 960" width="20"><path d="M390.154-654.216v125.843q0 7.706 5.052 12.962 5.051 5.257 12.776 5.257t12.795-5.041q5.069-5.041 5.069-12.751v-143.677q0-7.71-5.024-12.966-5.023-5.257-12.705-5.257H360.35q-7.683 0-12.939 5.052-5.257 5.051-5.257 12.776 0 7.699 5.057 12.75 5.056 5.052 12.789 5.052h30.154Zm192 108.37H504.35q-7.683 0-12.939 5.052-5.257 5.051-5.257 12.776 0 7.726 5.057 12.795 5.056 5.069 12.789 5.069h94.461q8.239 0 13.812-5.573 5.573-5.573 5.573-13.812v-68.769q0-8.238-5.573-13.811t-13.812-5.573h-76.615v-36.462H600q7.733 0 12.789-5.052 5.057-5.051 5.057-12.776 0-7.726-5.036-12.795-5.035-5.069-12.736-5.069h-95.706q-7.701 0-12.957 5.057-5.257 5.056-5.257 12.789v71.846q0 7.734 5.057 12.79 5.056 5.056 12.789 5.056h78.154v36.462ZM228.309-164.001q-27.008 0-45.658-18.65-18.65-18.65-18.65-45.658v-503.382q0-27.008 18.65-45.658 18.65-18.65 45.658-18.65h503.382q27.008 0 45.658 18.65 18.65 18.65 18.65 45.658v503.382q0 27.008-18.65 45.658-18.65 18.65-45.658 18.65H228.309Zm101.537-250.153h44.308V-336q0 7.733 5.052 12.789 5.051 5.057 12.776 5.057t12.795-5.057q5.069-5.056 5.069-12.789v-78.154h44.308V-288q0 7.733 5.052 12.789 5.051 5.057 12.776 5.057t12.795-5.057q5.069-5.056 5.069-12.789v-144q0-7.892-4.977-12.869-4.977-4.977-12.869-4.977H312q-7.892 0-12.869 4.977-4.977 4.977-4.977 12.869v144q0 7.733 5.052 12.789 5.051 5.057 12.776 5.057t12.795-5.057q5.069-5.056 5.069-12.789v-126.154Zm240 96H648q7.892 0 12.869-4.977 4.977-4.977 4.977-12.869v-96q0-7.892-4.977-12.869-4.977-4.977-12.869-4.977h-96q-7.733 0-12.789 5.041-5.057 5.041-5.057 12.751v143.677q0 7.71 5.052 12.966 5.051 5.257 12.776 5.257 7.726 0 12.795-5.057 5.069-5.056 5.069-12.789v-30.154Zm0-35.692v-60.308h60.308v60.308h-60.308Z"/></svg>