<svg xmlns="http://www.w3.org/2000/svg" height="20" viewBox="0 -960 960 960" width="20"><path d="M353.846-545.846v-36.462h52.615q18.439 0 30.912-12.473 12.473-12.473 12.473-30.911v-20.769q0-18.439-12.473-30.912-12.473-12.473-30.912-12.473H336q-7.733 0-12.789 5.052-5.057 5.051-5.057 12.776 0 7.726 5.057 12.795 5.056 5.069 12.789 5.069h78.154v36.462h-52.615q-18.439 0-30.912 12.473-12.473 12.473-12.473 30.911V-528q0 7.733 5.036 12.789 5.035 5.057 12.736 5.057h95.706q7.701 0 12.957-5.052 5.257-5.051 5.257-12.776 0-7.726-5.057-12.795-5.056-5.069-12.789-5.069h-78.154Zm175.693 35.692h92.922q8.239 0 13.812-5.573 5.573-5.573 5.573-13.812v-140.922q0-8.239-5.573-13.812-5.573-5.573-13.812-5.573h-92.922q-8.239 0-13.812 5.573-5.573 5.573-5.573 13.812v140.922q0 8.239 5.573 13.812 5.573 5.573 13.812 5.573Zm16.307-35.692v-108.308h60.308v108.308h-60.308ZM228.309-164.001q-27.008 0-45.658-18.65-18.65-18.65-18.65-45.658v-503.382q0-27.008 18.65-45.658 18.65-18.65 45.658-18.65h503.382q27.008 0 45.658 18.65 18.65 18.65 18.65 45.658v503.382q0 27.008-18.65 45.658-18.65 18.65-45.658 18.65H228.309Zm0-51.999h503.382q4.616 0 8.463-3.846 3.846-3.847 3.846-8.463v-503.382q0-4.616-3.846-8.463-3.847-3.846-8.463-3.846H228.309q-4.616 0-8.463 3.846-3.846 3.847-3.846 8.463v503.382q0 4.616 3.846 8.463 3.847 3.846 8.463 3.846ZM216-744v528-528Zm113.846 329.846h44.308V-336q0 7.733 5.052 12.789 5.051 5.057 12.776 5.057t12.795-5.057q5.069-5.056 5.069-12.789v-78.154h44.308V-288q0 7.733 5.052 12.789 5.051 5.057 12.776 5.057t12.795-5.057q5.069-5.056 5.069-12.789v-144q0-7.892-4.977-12.869-4.977-4.977-12.869-4.977H312q-7.892 0-12.869 4.977-4.977 4.977-4.977 12.869v144q0 7.733 5.052 12.789 5.051 5.057 12.776 5.057t12.795-5.057q5.069-5.056 5.069-12.789v-126.154Zm240 96H648q7.892 0 12.869-4.977 4.977-4.977 4.977-12.869v-96q0-7.892-4.977-12.869-4.977-4.977-12.869-4.977h-96q-7.733 0-12.789 5.041-5.057 5.041-5.057 12.751v143.677q0 7.71 5.052 12.966 5.051 5.257 12.776 5.257 7.726 0 12.795-5.057 5.069-5.056 5.069-12.789v-30.154Zm0-35.692v-60.308h60.308v60.308h-60.308Z"/></svg>