<svg xmlns="http://www.w3.org/2000/svg" height="20" viewBox="0 -960 960 960" width="20"><path d="M353.846-545.846v-36.462h52.615q18.439 0 30.912-12.473 12.473-12.473 12.473-30.911v-20.769q0-18.439-12.473-30.912-12.473-12.473-30.912-12.473H336q-7.733 0-12.789 5.052-5.057 5.051-5.057 12.776 0 7.726 5.057 12.795 5.056 5.069 12.789 5.069h78.154v36.462h-52.615q-18.439 0-30.912 12.473-12.473 12.473-12.473 30.911V-528q0 7.733 5.036 12.789 5.035 5.057 12.736 5.057h95.706q7.701 0 12.957-5.052 5.257-5.051 5.257-12.776 0-7.726-5.057-12.795-5.056-5.069-12.789-5.069h-78.154Zm217.119-12.62v30.31q0 7.801 5.076 12.901 5.076 5.101 12.402 5.101 7.325 0 12.594-5.057 5.269-5.056 5.269-12.789v-30.154h10.77q7.734 0 12.79-5.052 5.056-5.051 5.056-12.776 0-7.325-7.256-9.595-7.256-2.269-10.59-8.269h-10.77v-77.805q0-7.682-5.051-12.938-5.051-5.257-12.776-5.257-7.726 0-12.795 5.057-5.069 5.056-5.069 12.789v78.154h-55.693V-672q0-7.733-5.051-12.789-5.051-5.057-12.777-5.057-7.725 0-12.794 5.036-5.069 5.035-5.069 12.736v95.706q0 7.701 5.081 12.802 5.081 5.1 12.852 5.1h73.801ZM228.309-164.001q-27.008 0-45.658-18.65-18.65-18.65-18.65-45.658v-503.382q0-27.008 18.65-45.658 18.65-18.65 45.658-18.65h503.382q27.008 0 45.658 18.65 18.65 18.65 18.65 45.658v503.382q0 27.008-18.65 45.658-18.65 18.65-45.658 18.65H228.309Zm0-51.999h503.382q4.616 0 8.463-3.846 3.846-3.847 3.846-8.463v-503.382q0-4.616-3.846-8.463-3.847-3.846-8.463-3.846H228.309q-4.616 0-8.463 3.846-3.846 3.847-3.846 8.463v503.382q0 4.616 3.846 8.463 3.847 3.846 8.463 3.846ZM216-744v528-528Zm113.846 329.846h44.308V-336q0 7.733 5.052 12.789 5.051 5.057 12.776 5.057t12.795-5.057q5.069-5.056 5.069-12.789v-78.154h44.308V-288q0 7.733 5.052 12.789 5.051 5.057 12.776 5.057t12.795-5.057q5.069-5.056 5.069-12.789v-144q0-7.892-4.977-12.869-4.977-4.977-12.869-4.977H312q-7.892 0-12.869 4.977-4.977 4.977-4.977 12.869v144q0 7.733 5.052 12.789 5.051 5.057 12.776 5.057t12.795-5.057q5.069-5.056 5.069-12.789v-126.154Zm240 96H648q7.892 0 12.869-4.977 4.977-4.977 4.977-12.869v-96q0-7.892-4.977-12.869-4.977-4.977-12.869-4.977h-96q-7.733 0-12.789 5.041-5.057 5.041-5.057 12.751v143.677q0 7.71 5.052 12.966 5.051 5.257 12.776 5.257 7.726 0 12.795-5.057 5.069-5.056 5.069-12.789v-30.154Zm0-35.692v-60.308h60.308v60.308h-60.308Z"/></svg>