<svg xmlns="http://www.w3.org/2000/svg" height="20" viewBox="0 -960 960 960" width="20"><path d="m537.384-464.462 61.308 68q1 .616 13.141 6.308 11.551 0 15.82-10t-2.192-18.307l-55.77-62.308 56.77-62.154q6.461-7.923 1.647-17.423-4.815-9.5-15.647-9.5-3.077 0-6.715 1.721-3.638 1.72-6.285 4.587l-62.077 67.231V-552q0-7.733-5.052-12.789-5.051-5.057-12.776-5.057-7.726 0-12.795 5.041t-5.069 12.751v143.677q0 7.71 5.051 12.966 5.052 5.257 12.777 5.257t12.794-5.057q5.07-5.056 5.07-12.789v-56.462Zm-121.691 38.616h-77.805q-7.683 0-12.939 5.052-5.256 5.051-5.256 12.776t5.056 12.795q5.056 5.069 12.79 5.069H432q8.238 0 13.811-5.573t5.573-13.812v-68.769q0-8.238-5.573-13.811T432-497.692h-76.616v-36.462h78.155q7.733 0 12.789-5.052 5.056-5.051 5.056-12.776 0-7.726-5.035-12.795-5.036-5.069-12.737-5.069h-95.705q-7.702 0-12.958 5.057-5.256 5.056-5.256 12.789v71.846q0 7.734 5.056 12.79 5.056 5.056 12.79 5.056h78.154v36.462ZM228.309-164.001q-27.008 0-45.658-18.65-18.65-18.65-18.65-45.658v-503.382q0-27.008 18.65-45.658 18.65-18.65 45.658-18.65h503.382q27.008 0 45.658 18.65 18.65 18.65 18.65 45.658v503.382q0 27.008-18.65 45.658-18.65 18.65-45.658 18.65H228.309Z"/></svg>