<svg xmlns="http://www.w3.org/2000/svg" height="20" viewBox="0 -960 960 960" width="20"><path d="M339.62-116.001q-73.235 0-124.427-51.996-51.192-51.995-51.192-125.23 0-73.234 51.737-124.811 51.737-51.577 124.493-51.577v52.384q-51.538 0-87.885 36.346Q216-344.539 216-293q0 51.538 36.346 87.884 36.347 36.347 88.27 36.347 51.923 0 88.269-36.347 36.346-36.346 36.346-87.884h51.999q0 73.461-52.187 125.23-52.188 51.769-125.423 51.769ZM479-339.462q-36.077 0-57-30.154-20.923-30.153-6.307-64.23l62.846-172.693H369.782l-17.543 41.181q-4.547 10.204-14.777 13.781-10.231 3.577-20.384-1.269-9.385-4.846-12.769-14.5-3.385-9.653.692-19.038l14.319-37.751q6.989-17.326 21.75-27.403 14.761-10.077 33.854-10.077h181.459q34 0 52.807 27.615 18.808 27.615 2.962 60.538l-76.155 184.694h117.54q25.469 0 43.35 18.073 17.88 18.073 17.88 43.542v137.396q0 10.525-7.405 18.14-7.404 7.616-18.384 7.616-10.979 0-18.594-7.466-7.615-7.465-7.615-18.534V-331q0-3.846-2.116-6.154t-6.347-2.308H479Zm156.135-338.384q-31.675 0-53.675-22.247-22-22.248-22-53.923t22.248-53.675q22.248-22 53.923-22t53.482 22.248q21.808 22.248 21.808 53.923t-22.056 53.674q-22.055 22-53.73 22Z"/></svg>