<svg xmlns="http://www.w3.org/2000/svg" height="20" viewBox="0 -960 960 960" width="20"><path d="M127.541-257.076v-158.617q0-31.922 22.038-53.96t53.96-22.038h56.462v-206.617q0-22.007 15.381-37.387 15.38-15.381 37.387-15.381h334.462q22.007 0 37.387 15.381 15.381 15.38 15.381 37.387v206.617h56.462q31.922 0 53.96 22.038t22.038 53.96v158.617q0 22.007-15.38 37.387-15.38 15.38-37.388 15.38H180.309q-22.008 0-37.388-15.38-15.38-15.38-15.38-37.387ZM312-491.691h336v-207.386H312v207.386ZM179.539-256.307h600.922v-147.386q0-15.3-11.5-25.65-11.5-10.35-27.5-10.35H218.539q-16 0-27.5 10.35t-11.5 25.65v147.386Zm520.558-71.079q15.21 0 25.71-10.289 10.5-10.29 10.5-25.5 0-15.211-10.289-25.711-10.29-10.5-25.5-10.5-15.211 0-25.711 10.29-10.5 10.289-10.5 25.5 0 15.21 10.29 25.71 10.289 10.5 25.5 10.5ZM179.539-439.693h600.922-600.922Z"/></svg>