<svg xmlns="http://www.w3.org/2000/svg" height="20" viewBox="0 -960 960 960" width="20"><path d="M116.001-324.349v-407.626q0-27.024 19-45.524t45.308-18.5h599.382q27.008 0 45.658 18.662 18.65 18.662 18.65 45.686v407.626q0 26.639-18.843 45.331-18.842 18.693-45.465 18.693H672V-312h107.691q4.616 0 8.463-3.846 3.846-3.847 3.846-8.463v-407.382q0-4.616-3.846-8.463-3.847-3.846-8.463-3.846H180.309q-4.616 0-8.463 3.846-3.846 3.847-3.846 8.463v407.382q0 4.616 3.846 8.463 3.847 3.846 8.463 3.846H288v51.999H180.309q-26.623 0-45.465-18.854-18.843-18.855-18.843-45.494Zm193.462 119.348 148.23-148.229q9.482-9.846 22.125-9.846t22.489 9.846l148.23 148.229q11.846 11.846 5.566 26.423-6.281 14.577-22.643 14.577H326.54q-16.362 0-22.643-14.577-6.28-14.577 5.566-26.423Zm170.537-297Z"/></svg>