<svg xmlns="http://www.w3.org/2000/svg" height="20" viewBox="0 -960 960 960" width="20"><path d="M480-308.001q71.922 0 121.961-50.038Q651.999-408.078 651.999-480t-50.038-121.961Q551.922-651.999 480-651.999t-121.961 50.038Q308.001-551.922 308.001-480t50.038 121.961Q408.078-308.001 480-308.001ZM480-432q-20.4 0-34.2-13.8Q432-459.6 432-480q0-20.4 13.8-34.2Q459.6-528 480-528q20.4 0 34.2 13.8Q528-500.4 528-480q0 20.4-13.8 34.2Q500.4-432 480-432Zm.343 315.999q-75.112 0-141.48-28.42-66.369-28.42-116.182-78.21-49.814-49.791-78.247-116.087t-28.433-141.673q0-75.378 28.42-141.246 28.42-65.869 78.21-115.682 49.791-49.814 116.087-78.247t141.673-28.433q75.378 0 141.246 28.42 65.869 28.42 115.682 78.21 49.814 49.791 78.247 115.853t28.433 141.173q0 75.112-28.42 141.48-28.42 66.369-78.21 116.182-49.791 49.814-115.853 78.247t-141.173 28.433ZM480-168q130 0 221-91t91-221q0-130-91-221t-221-91q-130 0-221 91t-91 221q0 130 91 221t221 91Zm0-312Z"/></svg>