<svg xmlns="http://www.w3.org/2000/svg" height="20" viewBox="0 -960 960 960" width="20"><path d="M142.001-126.002q-11.069 0-18.534-7.405-7.466-7.404-7.466-18.384 0-10.979 7.466-18.595 7.465-7.615 18.534-7.615h675.998q11.069 0 18.534 7.405 7.466 7.405 7.466 18.384t-7.466 18.595q-7.465 7.615-18.534 7.615H142.001Zm198.23-135.538q-15.769 0-27.076-11.308-11.308-11.307-11.308-27.076v-496.075q0-15.768 11.308-27.076 11.307-11.307 27.076-11.307t27.076 11.307q11.308 11.308 11.308 27.076v496.075q0 15.769-11.308 27.076Q356-261.54 340.231-261.54Zm279.538 0q-15.769 0-27.076-11.308-11.308-11.307-11.308-27.076v-256.075q0-15.768 11.308-27.076 11.307-11.307 27.076-11.307t27.076 11.307q11.308 11.308 11.308 27.076v256.075q0 15.769-11.308 27.076-11.307 11.308-27.076 11.308Z"/></svg>