<svg xmlns="http://www.w3.org/2000/svg" height="20" viewBox="0 -960 960 960" width="20"><path d="M386-510v234q0 15 10.5 25.5T422-240q15 0 25.5-10.5T458-276v-239.539q0-5.23-1-10.961t-3.615-10.346l-59.679-119.026Q386.615-670 373.308-674.5 360-679 346-672t-18.5 20.5Q323-638 330-624l56 114Zm188 .385 57-114.77q7.385-14 2.192-27.307Q628-665 614-672t-27.5-2.5Q573-670 566-656l-59.385 119.539Q504-531.846 503-526.115q-1 5.73-1 10.961V-276q0 15 10.5 25.5T538-240q15 0 25.5-10.5T574-276v-233.615ZM634-441q14 7 27.5 2.5T682-457l45-90q7-14 2-27.5T710-595q-14-7-27.5-2.5T662-579l-45 89.329q-7 14.056-2 27.863Q620-448 634-441Zm-308 0q14-7 18.5-21t-2.5-28l-44-89q-7-14-20.5-18.5T250-595q-14 7-18.5 20.5T234-547l44 90q7 14 20.5 18.5T326-441Zm154.067 324.999q-74.836 0-141.204-28.42-66.369-28.42-116.182-78.21-49.814-49.791-78.247-116.129-28.433-66.337-28.433-141.173 0-75.836 28.42-141.704 28.42-65.869 78.21-115.682 49.791-49.814 116.129-78.247 66.337-28.433 141.173-28.433 75.836 0 141.704 28.42 65.869 28.42 115.682 78.21 49.814 49.791 78.247 115.629 28.433 65.837 28.433 141.673 0 74.836-28.42 141.204-28.42 66.369-78.21 116.182-49.791 49.814-115.629 78.247-65.837 28.433-141.673 28.433Z"/></svg>