<svg xmlns="http://www.w3.org/2000/svg" height="20" viewBox="0 -960 960 960" width="20"><path d="M276.309-68.001q-26.623 0-45.465-18.843-18.843-18.842-18.843-45.465v-695.382q0-26.623 18.843-45.465 18.842-18.843 45.465-18.843h407.382q26.623 0 45.465 18.843 18.843 18.842 18.843 45.465v154.152H696v-56.462H264v500.002h432v-56.462h51.999v154.152q0 26.623-18.843 45.465Q710.314-68 683.691-68H276.309Zm-12.309-110v45.692q0 4.616 3.846 8.463 3.847 3.846 8.463 3.846h407.382q4.616 0 8.463-3.846 3.846-3.847 3.846-8.463v-45.692H264Zm0-603.998h432v-45.692q0-4.616-3.846-8.463-3.847-3.846-8.463-3.846H276.309q-4.616 0-8.463 3.846-3.846 3.847-3.846 8.463v45.692Zm0 0V-840v58.001Zm0 603.998V-120v-58.001Zm486.617-276H504q-5.385 0-8.847 3.462-3.462 3.462-3.462 8.847v106.001q0 11.069-7.404 18.534-7.405 7.465-18.384 7.465-10.98 0-18.595-7.465-7.615-7.465-7.615-18.534v-106.001q0-26.623 18.842-45.465 18.842-18.842 45.465-18.842h246.617l-49.309-48.925q-8.307-8.307-8.5-18.743-.192-10.435 8.116-18.409 8.692-8.693 18.576-8.693t18.576 8.693l89.907 89.906q9.708 9.709 9.708 22.352t-9.846 22.125l-89.769 89.769q-8.307 8.308-18.076 7.808t-18.076-8.808q-8.693-8.692-8.5-18.768.192-10.077 8.884-18.384l48.309-47.925Z"/></svg>