<svg xmlns="http://www.w3.org/2000/svg" height="20" viewBox="0 -960 960 960" width="20"><path d="M479.739-346.001q65.942 0 112.101-46.07 46.159-46.07 46.159-111.884t-46.083-111.929Q545.833-661.999 480-661.999v35.691q51.154 0 86.731 35.673 35.577 35.673 35.577 86.635t-35.673 86.635Q530.962-381.692 480-381.692q-32.295 0-59.186-15.731t-44.045-41.192l-29.46 19.384q21.615 32.615 55.878 52.923 34.262 20.307 76.552 20.307ZM339.846-468.307q9.631 0 16.431-6.8 6.8-6.801 6.8-16.431 0-9.631-6.8-16.431-6.8-6.8-16.623-6.8t-16.431 6.572q-6.607 6.572-6.607 16.623 0 10.051 6.582 16.659 6.582 6.608 16.648 6.608Zm17.847-80.616q9.63 0 16.43-6.608 6.8-6.607 6.8-16.43t-6.582-16.623q-6.582-6.8-16.648-6.8-10.067 0-16.649 6.8-6.582 6.8-6.582 16.623t6.8 16.43q6.8 6.608 16.431 6.608Zm57.23-56.769q9.631 0 16.431-6.8 6.8-6.8 6.8-16.431t-6.8-16.431q-6.8-6.8-16.623-6.8t-16.431 6.572q-6.607 6.572-6.607 16.623 0 10.052 6.582 16.659 6.582 6.608 16.648 6.608ZM480-121.155q-5.231 0-11.231-.5t-10.623-2.5q-122.53-43-196.337-152.077Q188.001-385.308 188.001-515v-171.153q0-20.483 11.106-36.87 11.106-16.387 29.894-23.591l227.692-87q11.846-4.615 23.307-4.615 11.461 0 23.307 4.615l227.692 87q18.788 7.204 29.894 23.591 11.106 16.387 11.106 36.87V-515q0 129.692-73.808 238.768-73.807 109.077-196.337 152.077-4.623 2-10.623 2.5-6 .5-11.231.5Z"/></svg>