<svg xmlns="http://www.w3.org/2000/svg" height="20" viewBox="0 -960 960 960" width="20"><path d="M449.767-454.001h138.519q10.928 0 18.321-7.418 7.392-7.418 7.392-18.384 0-10.966-7.392-18.581-7.393-7.615-18.321-7.615H449.767l49.309-49.309q8.308-8.179 8.308-18.32t-8.308-18.448q-8.307-8.308-18.448-8.308-10.14 0-18.32 8.308l-89.907 89.906q-9.708 9.709-9.708 22.352t9.846 22.125l89.769 89.769q8.308 8.308 18.384 7.616 10.077-.693 18.384-9 8.308-8.308 8.308-18.448 0-10.141-8.308-18.32l-49.309-47.925Zm30.576 338q-75.112 0-141.48-28.42-66.369-28.42-116.182-78.21-49.814-49.791-78.247-116.087t-28.433-141.673q0-75.378 28.42-141.246 28.42-65.869 78.21-115.682 49.791-49.814 116.087-78.247t141.673-28.433q75.378 0 141.246 28.42 65.869 28.42 115.682 78.21 49.814 49.791 78.247 115.853t28.433 141.173q0 75.112-28.42 141.48-28.42 66.369-78.21 116.182-49.791 49.814-115.853 78.247t-141.173 28.433Z"/></svg>