<svg xmlns="http://www.w3.org/2000/svg" height="20" viewBox="0 -960 960 960" width="20"><path d="M454.001-648.078 267.019-461.097q-7.711 7.712-18.172 8.096-10.462.385-19.247-7.923-8.214-8.307-8.022-18.576.192-10.269 8.322-18.385l227.7-227.402q5.027-5.019 10.57-7.327 5.544-2.308 11.99-2.308 6.445 0 11.989 2.308 5.543 2.308 10.158 6.923l227.615 227.615q8.308 8.307 8.5 18.076.192 9.769-8.022 18.076-8.785 8.308-19.029 8.308-10.243 0-18.217-8.308L505.999-648.078v410.102q0 11.058-7.404 18.516-7.405 7.459-18.384 7.459-10.98 0-18.595-7.459-7.615-7.458-7.615-18.516v-410.102Z"/></svg>