<svg xmlns="http://www.w3.org/2000/svg" height="20" viewBox="0 -960 960 960" width="20"><path d="M456-100.616q-87.769 0-147.269-63-59.5-62.999-59.5-149.768v-401.309q0-61.906 43.467-105.991 43.466-44.085 105.61-44.085 64.144 0 106.61 46.466 42.466 46.466 42.466 109.61v315.001h-59.691v-321.001q0-37.262-25.874-63.823-25.874-26.562-63.346-26.562-37.473 0-63.512 27.062-26.038 27.061-26.038 65.323v406.309q0 61.538 43.161 103.808 43.161 42.269 103.769 42.269 33.532 0 61.609-14.192 28.077-14.193 48.846-37.577v78.587q-24 15.719-51.749 24.296-27.75 8.577-58.559 8.577Zm190.001-161.637H564q-11.05 0-18.524-7.502-7.475-7.503-7.475-18.492t7.475-18.41q7.474-7.42 18.524-7.42h82.001v-81.689q0-10.984 7.418-18.608 7.418-7.625 18.384-7.625 10.966 0 18.455 7.475 7.489 7.474 7.489 18.524v82.001h82.169q11.085 0 18.584 7.478 7.499 7.479 7.499 18.534 0 11.056-7.499 18.521-7.499 7.465-18.584 7.465h-82.169V-180q0 11.05-7.502 18.524-7.503 7.475-18.258 7.475-11.056 0-18.521-7.499-7.465-7.499-7.465-18.584v-82.169ZM456-300.999v58.691q-40.077 0-65.731-28.661-25.653-28.662-25.653-66.723v-360.155q0-12.333 8.751-21.09 8.751-8.756 21.077-8.756 12.325 0 21.094 8.756 8.769 8.757 8.769 21.09v365.155q0 13.469 9.112 22.581T456-300.999Zm147.077-198.385v-198.463q0-12.333 8.751-21.09 8.752-8.756 21.077-8.756 12.325 0 21.094 8.756 8.77 8.757 8.77 21.09v198.463h-59.692Z"/></svg>