<svg xmlns="http://www.w3.org/2000/svg" height="20" viewBox="0 -960 960 960" width="20"><path d="m273.385-150.462 26.77-58.923q-15.539-10.385-29.885-22.039-14.346-11.654-27.5-26.577-4.231 1-9.539 1.5-5.307.5-9.153.5-31.693 0-53.654-22.961-21.961-22.962-21.961-55.654 0-14.077 5.423-27.115 5.423-13.038 15.269-23.269-8-23-11.385-47t-3.385-48q0-24 3.385-48t11.385-47q-9.846-10.231-14.769-24.269-4.923-14.038-4.923-28.115 0-31.692 21.961-53.654 21.961-21.961 52.654-21.961 3.846 0 9.653-.5 5.808-.5 10.039 1.5 33-35 74.115-59.193Q359-785.384 406-795.999q7.231-23.692 28.077-38.538 20.846-14.847 45.538-14.847 24.692 0 45.539 14.27Q546-820.845 553.23-796.769q47.77 10.616 88.885 35 41.115 24.385 74.115 59.77 4.231-1 9.846-1.116 5.616-.115 9.846-.115 31.693 0 53.154 22.961 21.461 22.962 21.461 54.654 0 14.077-5.115 28t-15.346 24.154q7 22.615 10.885 46.038Q804.845-504 804.845-480q0 24-2.884 48-2.885 24-10.885 47 9.846 10.231 14.269 23.769 4.423 13.538 4.423 27.615 0 31.692-21.461 54.654-21.462 22.961-53.154 22.961-4.231 0-9.346-.307-5.115-.308-9.346-.923-14.154 13.923-27.808 26.192t-29.577 21.654l27.154 58.539q6.077 14.153-1.923 27.191-8 13.039-24.153 13.039-8.308 0-15.077-3.962-6.769-3.961-11-12.038l-25.154-54.693q-13.538 6.154-27.462 10.231-13.923 4.077-28.231 7.847-7.23 24.076-28.076 38.345-20.847 14.27-45.539 14.27t-45.038-14.847Q414.231-140.309 406-164.001q-13.923-3.769-27.654-7.846t-27.269-10.231l-25.923 55.077q-4.231 8.077-10.808 12.231t-15.269 4.154q-16.153 0-23.961-12.846-7.807-12.846-1.731-27Zm54.154-114.922 60.462-131.694q-16.077-18.307-24.23-39.346-8.154-21.038-8.154-43.576 0-51.922 36.038-87.961 36.038-36.038 87.96-36.038 51.923 0 87.961 36.038 36.038 36.039 36.038 87.961 0 22.538-8.346 43.884t-24.038 39.038l61.462 132.463Q642-270 649.923-277.423q7.923-7.423 15.462-15.346-6.539-9.385-9.693-19.154-3.154-9.77-3.154-21.693 0-34 24.231-57.538 24.231-23.539 57.077-21.307 5-16 7.385-32.885 2.384-16.885 2.384-34.654 0-17.769-2.384-33.769-2.385-16-7.385-33-32.846 2.231-56.692-21.308-23.847-23.538-23.847-57.538 0-11.154 3.462-21.308t9.385-19.538q-24-24.154-54.077-41.347Q582-725 548.846-734q-9.077 19.154-28.269 30.5t-40.962 11.346q-21.769 0-40.961-11.346-19.193-11.346-28.269-30.5-32.385 9-62.462 26-30.077 17-54.077 40.769 5.923 8.385 9.385 18.539 3.462 10.154 3.462 21.308 0 34.384-24.616 58.23-24.616 23.847-57.462 21.615-6 17-7.5 34.385-1.5 17.385-1.5 35.154 0 17.769 2 34.154 2 16.385 7 31.385 31.077-.232 56.577 22.115 25.501 22.346 25.501 55.73 0 11.923-3.154 22.193-3.154 10.269-9.693 19.654 7.539 7.923 15.962 14.577t17.731 12.808Zm49.153 28.307q8.538 3.154 16.462 5.731 7.923 2.577 17.231 5.346 10.076-18.154 28.769-30 18.692-11.846 40.461-11.846 21.77 0 39.962 11.846 18.192 11.846 29.269 30 8.923-2.769 17.039-5.462 8.115-2.692 16.654-5.846L524.077-365.54q-10.616 4.385-21.539 6.962-10.923 2.577-21.923 2.577-11.615 0-23.23-2.385-11.616-2.385-22.231-7.154l-58.462 128.463Z"/></svg>