<svg xmlns="http://www.w3.org/2000/svg" height="20" viewBox="0 -960 960 960" width="20"><path d="M312-348.309h336v18.155q0 12.307 8.769 21.076t21.077 8.769q12.307 0 21.076-8.769t8.769-21.076v-126.615q0-28.462-21.192-46.962-21.192-18.499-50.808-14.268v-65.077q0-27.007-18.649-45.657-18.65-18.65-45.658-18.65H388.616q-27.008 0-45.658 18.65-18.649 18.65-18.649 45.657v65.077q-29.616-4.231-50.808 14.268-21.192 18.5-21.192 46.962v126.615q0 12.307 8.769 21.076t21.076 8.769q12.308 0 21.077-8.769Q312-317.847 312-330.154v-18.155ZM312-408v-48.769l-.385.384-.384.385h337.538l-.384-.385-.385-.384V-408H312Zm72-107.691v-59.692q0-5.385 3.462-8.847 3.462-3.461 8.847-3.461h167.382q5.385 0 8.847 3.461 3.462 3.462 3.462 8.847v59.692H384Zm-203.691 399.69q-27.008 0-45.658-18.65-18.65-18.65-18.65-45.658v-599.382q0-27.008 18.65-45.658 18.65-18.65 45.658-18.65h599.382q27.008 0 45.658 18.65 18.65 18.65 18.65 45.658v599.382q0 27.008-18.65 45.658-18.65 18.65-45.658 18.65H180.309Zm0-51.999h599.382q4.616 0 8.463-3.846 3.846-3.847 3.846-8.463v-599.382q0-4.616-3.846-8.463-3.847-3.846-8.463-3.846H180.309q-4.616 0-8.463 3.846-3.846 3.847-3.846 8.463v599.382q0 4.616 3.846 8.463 3.847 3.846 8.463 3.846ZM168-168V-792-168Z"/></svg>