<svg xmlns="http://www.w3.org/2000/svg" height="20" viewBox="0 -960 960 960" width="20"><path d="M276.025-116.001q-27.024 0-45.524-18.65t-18.5-45.658v-599.382q0-27.008 18.662-45.658 18.662-18.65 45.686-18.65h407.626q27.024 0 45.524 18.65t18.5 45.658v599.382q0 27.008-18.662 45.658-18.662 18.65-45.686 18.65H276.025Zm.284-51.999h407.382q4.616 0 8.463-3.846 3.846-3.847 3.846-8.463v-599.382q0-4.616-3.846-8.463-3.847-3.846-8.463-3.846H624v268.768q0 9.803-8.038 14.44-8.039 4.637-16.269.022l-48-22.539q-7.295-4.615-14.609-4.615t-14.545 4.615L474.54-508.77q-8.231 4.615-15.385-.022-7.154-4.637-7.154-14.44V-792H276.309q-4.616 0-8.463 3.846-3.846 3.847-3.846 8.463v599.382q0 4.616 3.846 8.463 3.847 3.846 8.463 3.846ZM264-168V-792-168Zm188.001-354.847v-.385q0 9.803 7.154 14.44 7.154 4.637 15.385.022l47.999-22.539q7.296-4.615 14.609-4.615 7.314 0 14.545 4.615l48 22.539q8.23 4.615 16.269-.022 8.038-4.637 8.038-14.44v.385q0 9.418-8.038 14.055-8.039 4.637-16.269.406l-48-22.923q-7.295-4.615-14.609-4.615t-14.545 4.615l-47.999 22.923q-8.231 4.231-15.385-.406t-7.154-14.055Z"/></svg>