<svg xmlns="http://www.w3.org/2000/svg" height="20" viewBox="0 -960 960 960" width="20"><path d="m480-261.54-131.769 53.154q-31.153 12.461-59.691-6.924-28.539-19.384-28.539-53.153v-463.228q0-26.923 18.693-45.615 18.692-18.693 45.615-18.693h225.075q-10.692 19.923-16.038 42.192Q528-731.537 528-709.999q0 58.846 32.885 104.73 32.884 45.885 87.115 64.423 11.23 7.231 24.999 10.231 13.769 3 27 3.769v258.383q0 33.769-28.539 53.153-28.538 19.385-59.691 6.924L480-261.54Zm207.768-411.996 100.924-101.309q7.923-8.307 18.192-8.307 10.268 0 18.576 8.307 8.307 8.308 8.307 18.384 0 10.077-8.307 18.385L710.076-622.307q-9.846 9.846-22.308 9.846-12.461 0-22.307-9.846l-47.769-47.769q-8.308-8.308-7.808-18.577.5-10.269 8.808-18.192 7.923-8.307 18.384-8.115 10.461.193 18.384 8.115l32.308 33.309Z"/></svg>