<svg xmlns="http://www.w3.org/2000/svg" height="20" viewBox="0 -960 960 960" width="20"><path d="M480.211-595.539q-11.942 0-20.23-8.077-8.288-8.078-8.288-20.019 0-11.941 8.078-20.23 8.077-8.288 20.018-8.288 11.942 0 20.23 8.078t8.288 20.019q0 11.941-8.078 20.229-8.077 8.288-20.018 8.288ZM336.365-451.693q-11.941 0-20.23-8.078-8.288-8.077-8.288-20.018 0-11.942 8.078-20.23t20.019-8.288q11.941 0 20.229 8.078 8.288 8.077 8.288 20.018 0 11.942-8.077 20.23-8.078 8.288-20.019 8.288Zm143.846 0q-11.942 0-20.23-8.078-8.288-8.077-8.288-20.018 0-11.942 8.078-20.23 8.077-8.288 20.018-8.288 11.942 0 20.23 8.078 8.288 8.077 8.288 20.018 0 11.942-8.078 20.23-8.077 8.288-20.018 8.288Zm143.845 0q-11.941 0-20.229-8.078-8.288-8.077-8.288-20.018 0-11.942 8.077-20.23 8.078-8.288 20.019-8.288 11.941 0 20.23 8.078 8.288 8.077 8.288 20.018 0 11.942-8.078 20.23t-20.019 8.288ZM480.211-307.847q-11.942 0-20.23-8.078t-8.288-20.019q0-11.941 8.078-20.229 8.077-8.288 20.018-8.288 11.942 0 20.23 8.077 8.288 8.078 8.288 20.019 0 11.941-8.078 20.23-8.077 8.288-20.018 8.288ZM228.309-216h503.382q5.385 0 8.847-3.462 3.462-3.462 3.462-8.847v-503.382q0-5.385-3.462-8.847-3.462-3.462-8.847-3.462H228.309q-5.385 0-8.847 3.462-3.462 3.462-3.462 8.847v503.382q0 5.385 3.462 8.847 3.462 3.462 8.847 3.462Zm0 51.999q-26.527 0-45.417-18.891-18.891-18.89-18.891-45.417v-503.382q0-26.527 18.891-45.417 18.89-18.891 45.417-18.891h503.382q26.527 0 45.417 18.891 18.891 18.89 18.891 45.417v503.382q0 26.527-18.891 45.417-18.89 18.891-45.417 18.891H228.309Z"/></svg>