<svg xmlns="http://www.w3.org/2000/svg" height="20" viewBox="0 -960 960 960" width="20"><path d="M570.306-164.001q-25.826 0-45.066-18.891-19.241-18.89-19.241-45.417v-161.385q0-26.526 19.241-45.417 19.24-18.89 45.066-18.89h161.385q26.527 0 45.417 18.89 18.891 18.891 18.891 45.417v161.385q0 26.527-18.891 45.417-18.89 18.891-45.417 18.891H570.306Zm0-341.998q-25.826 0-45.066-19.241-19.241-19.24-19.241-45.066v-161.385q0-26.527 19.241-45.417 19.24-18.891 45.066-18.891h161.385q26.527 0 45.417 18.891 18.891 18.89 18.891 45.417v161.385q0 25.826-18.891 45.066-18.89 19.241-45.417 19.241H570.306Zm-341.997 0q-26.527 0-45.417-19.241-18.891-19.24-18.891-45.066v-161.385q0-26.527 18.891-45.417 18.89-18.891 45.417-18.891h161.385q26.526 0 45.417 18.891 18.89 18.89 18.89 45.417v161.385q0 25.826-18.89 45.066-18.891 19.241-45.417 19.241H228.309Zm0 341.998q-26.527 0-45.417-18.891-18.891-18.89-18.891-45.417v-161.385q0-26.526 18.891-45.417 18.89-18.89 45.417-18.89h161.385q26.526 0 45.417 18.89 18.89 18.891 18.89 45.417v161.385q0 26.527-18.89 45.417-18.891 18.891-45.417 18.891H228.309Z"/></svg>