<svg xmlns="http://www.w3.org/2000/svg" height="20" viewBox="0 -960 960 960" width="20"><path d="M480.385-126.771q-52.834 0-101.357-14.768-48.522-14.768-93.11-43.629-12.532-9.372-19.224-23.205-6.693-13.832-6.693-30.17v-217.43q0-15.642 7.148-29.686 7.148-14.043 20.232-23.538 44.004-28.495 92.235-43.033 48.23-14.539 100.384-14.539t100.384 14.539q48.231 14.538 92.235 43.025 13.005 9.486 20.192 23.518 7.188 14.032 7.188 30.686v217.517q0 17.713-8.397 32.482-8.396 14.77-23.269 23.693-11.873 6.923-26.219 14.461-14.346 7.538-32.423 14.769 2-12.622 2-17.884 0-55.618-38.894-94.52-38.895-38.903-94.336-38.903-40.813 0-73.868 22.577-33.054 22.577-48.515 60.884 29.307 15 59.84 22.116 30.533 7.115 64.048 7.115 15.738 0 32.959-2 17.221-2 35.998-7v64.923q-21.231 4.384-37.462 6.192-16.23 1.808-31.076 1.808Zm86.275-199.076q27.416 0 46.685-19.16 19.269-19.161 19.269-46.577 0-27.416-19.24-46.685-19.24-19.27-46.769-19.27T520-438.298q-19.077 19.24-19.077 46.769 0 27.528 19.16 46.605 19.16 19.077 46.577 19.077ZM480-611.691q46.154 0 78.461-32.5 32.308-32.5 32.308-78.421 0-46.002-32.324-78.309-32.323-32.308-78.499-32.308-46.1 0-78.407 32.308-32.308 32.307-32.308 78.461 0 45.769 32.346 78.269 32.346 32.5 78.423 32.5Z"/></svg>