<svg xmlns="http://www.w3.org/2000/svg" height="20" viewBox="0 -960 960 960" width="20"><path d="M180.309-212.001q-27.008 0-45.658-18.662-18.65-18.662-18.65-45.686v-407.626q0-27.024 18.65-45.524t45.658-18.5h599.382q27.008 0 45.658 18.662 18.65 18.662 18.65 45.686v407.626q0 27.024-18.65 45.524t-45.658 18.5H180.309Zm119.691-110h360q20.769 0 35.384-14.615 14.615-14.615 14.615-35.384t-14.615-35.384Q680.769-421.999 660-421.999H300q-20.769 0-35.384 14.615-14.615 14.615-14.615 35.384t14.615 35.384q14.615 14.615 35.384 14.615Z"/></svg>