<svg xmlns="http://www.w3.org/2000/svg" height="20" viewBox="0 -960 960 960" width="20"><path d="M694.532-116.001q-109.321-9-209.675-57.577-100.353-48.577-182.125-130.346-81.577-81.769-129.154-182.191-47.577-100.423-57.577-209.499-2-21.165 12.286-36.775t35.714-15.61h104.46q18.154 0 31.231 10.885 13.077 10.885 18.23 28.423L338.845-625q2.385 13.385-1.5 26.154-3.884 12.769-12.654 20.769l-92.384 89.923q22.308 41.846 49.462 78.769 27.154 36.924 59.507 69.062 31.955 31.939 68.853 59.523 36.898 27.584 80.256 50.185l94.769-92.538q7.964-8.769 19.02-11.692 11.057-2.923 24.442-.923l80.075 17.615q18.154 5 28.731 18.653 10.577 13.652 10.577 31.809v103.69q0 21.428-16.134 35.714-16.133 14.286-37.333 12.286ZM661.83-480q-75.6 0-128.715-53.284Q480-586.568 480-662.168t53.284-128.715q53.284-53.116 128.884-53.116t128.715 53.285q53.116 53.284 53.116 128.884t-53.285 128.715Q737.43-480 661.83-480Zm.169-88.307q8.677 0 15.185-6.508 6.507-6.507 6.507-15.184v-44.154q0-8.677-6.507-15.184-6.508-6.508-15.185-6.508t-15.184 6.508q-6.508 6.507-6.508 15.184v44.154q0 8.677 6.508 15.184 6.507 6.508 15.184 6.508Zm0-137.846q9.6 0 16.8-7.2 7.2-7.2 7.2-16.8 0-9.6-7.2-16.8-7.2-7.2-16.8-7.2-9.6 0-16.8 7.2-7.2 7.2-7.2 16.8 0 9.6 7.2 16.8 7.2 7.2 16.8 7.2Z"/></svg>