<svg xmlns="http://www.w3.org/2000/svg" height="20" viewBox="0 -960 960 960" width="20"><path d="M494.769-271.693q-6.739 0-11.523-4.784-4.785-4.785-4.785-11.523v-168q0-6.738 4.785-11.523 4.784-4.784 11.523-4.784h168q6.738 0 11.522 4.784 4.785 4.785 4.785 11.523v59.231l43.927-29.99q7.919-5.24 16.457-1.317 8.539 3.923 8.539 13.952v84.248q0 10.029-8.539 13.952-8.538 3.923-16.457-1.317l-43.927-29.99V-288q0 6.738-4.785 11.523-4.784 4.784-11.522 4.784h-168Zm-282.768 43.384v-329.537q0-14.926 6.731-28.462 6.731-13.537 19.192-23.383l203.692-153.154q18.077-12.461 38.384-12.461t38.384 12.461l203.692 153.154q12.461 9.846 19.192 23.479 6.731 13.634 6.731 28.667V-528H696v-29.846q0-3.077-1.346-5.577-1.347-2.5-3.654-4.423L487.308-720.615q-3.077-2.692-7.308-2.692t-7.308 2.692L269-567.846q-2.307 1.923-3.654 4.423-1.346 2.5-1.346 5.577v329.537q0 5.385 3.462 8.847 3.462 3.462 8.847 3.462h445.4q11.059 0 18.674 7.405 7.616 7.404 7.616 18.384 0 10.979-7.471 18.594-7.471 7.616-18.549 7.616H276.025q-26.639 0-45.331-18.843-18.693-18.842-18.693-45.465ZM480-456Z"/></svg>