<svg xmlns="http://www.w3.org/2000/svg" height="20" viewBox="0 -960 960 960" width="20"><path d="M168-296.462v68.153q0 4.616 3.846 8.463 3.847 3.846 8.463 3.846h599.382q4.616 0 8.463-3.846 3.846-3.847 3.846-8.463v-68.153H168Zm12.309-402.767h125.694q-3-9-5.462-18-2.462-9-2.462-18 0-36.923 25.538-62.461 25.538-25.538 65.461-25.538 18.153 0 35.034 7.071 16.88 7.071 27.811 22.467l27.308 38.846 28.308-37.846q11.307-14.154 27.04-22.346 15.733-8.192 33.886-8.192 42.841 0 67.379 25.038 24.538 25.038 24.538 62.961 0 9-2.269 18t-5.654 18h127.232q27.008 0 45.658 18.65 18.65 18.649 18.65 45.657v406.613q0 27.008-18.65 45.658-18.65 18.65-45.658 18.65H180.309q-26.308 0-45.308-18.65t-19-45.658v-406.613q0-27.008 19-45.657 19-18.65 45.308-18.65ZM168-375.538h624v-259.384q0-4.616-3.846-8.462-3.847-3.847-8.463-3.847H558.075l70.846 95.77q6.308 8.538 4.385 19.192-1.923 10.653-10.461 16.961-8.539 6.307-19.192 5.077-10.654-1.231-16.961-10.154L479.231-666.923 372.77-520.385q-6.308 8.923-16.961 10.154-10.654 1.23-19.192-5.077-8.538-6.308-10.269-16.961-1.731-10.654 4.577-19.192l70.231-95.77H180.309q-4.616 0-8.463 3.847-3.846 3.846-3.846 8.462v259.384Zm216.867-324.691q15.211 0 25.711-10.29 10.5-10.289 10.5-25.5 0-15.21-10.29-25.71-10.289-10.5-25.5-10.5-15.21 0-25.71 10.289-10.5 10.29-10.5 25.5 0 15.211 10.289 25.711 10.29 10.5 25.5 10.5Zm188.306 0q15.211 0 25.711-10.29 10.5-10.289 10.5-25.5 0-15.21-10.29-25.71-10.289-10.5-25.5-10.5-15.21 0-25.71 10.289-10.5 10.29-10.5 25.5 0 15.211 10.289 25.711 10.289 10.5 25.5 10.5Z"/></svg>