<svg xmlns="http://www.w3.org/2000/svg" height="20" viewBox="0 -960 960 960" width="20"><path d="M153.231-212.001q-15.768 0-26.499-10.731-10.731-10.731-10.731-26.499 0-15.769 10.731-26.5 10.731-10.73 26.499-10.73 15.769 0 26.5 10.73 10.73 10.731 10.73 26.5 0 15.768-10.73 26.499-10.731 10.731-26.5 10.731Zm142.983 0q-10.214 0-18.637-6.577t-9.653-16.731q-7.693-49.461-43.47-85.196-35.778-35.735-85.761-43.419-10.6-1.467-16.646-9.771-6.046-8.305-6.046-18.034 0-10.193 6.385-18.309 6.384-8.115 16.923-6.499 72.153 8.692 122.922 58.96 50.768 50.269 58.958 122.604 1.348 9.972-6.459 16.472-7.808 6.5-18.516 6.5Zm139.324 0q-10.154 0-18.077-8.077-7.922-8.077-9.538-18.615-9.692-106.538-85.192-182.423-75.5-75.884-183.534-84.459-10.042-.964-16.619-8.413t-6.577-17.638q0-10.681 9.385-18.104 9.384-7.422 21.307-6.192 126.846 11.308 215.55 101.112 88.704 89.805 98.063 217.425 1.231 10.153-6.234 17.768-7.465 7.616-18.534 7.616Zm105.692 0q0-88.077-33.449-165.545-33.449-77.468-91.653-135.384-58.205-57.916-135.321-91.108-77.116-33.192-164.806-33.192v-46.461q0-26.623 18.843-45.465 18.842-18.843 45.465-18.843h599.382q26.623 0 45.465 18.854 18.843 18.855 18.843 45.494v407.626q0 26.639-18.843 45.331-18.842 18.693-45.465 18.693H541.23Z"/></svg>