<svg xmlns="http://www.w3.org/2000/svg" height="20" viewBox="0 -960 960 960" width="20"><path d="m421-456.232 48.693 48.693q9.846 10.23 22.615 10.23 12.769 0 22.999-10.23l118.694-117.309V-467q0 9.384 7.615 17.192 7.615 7.807 18.384 7.807 9.384 0 17.692-7.615 8.307-7.615 8.307-18.384v-113.846q0-12.076-10.038-22.115-10.039-10.038-22.115-10.038H539q-9.384 0-17.192 8.307-7.807 8.308-7.807 17.692 0 10.769 7.615 18.384T540-562.001h56.848L493-457.768l-49.693-48.693q-10.23-9.846-22.999-9.846-12.769 0-22.615 9.846L295.924-405.076q-7.923 8.692-7.923 18.768 0 10.077 7.923 18.384 8.692 8.308 18.768 8.308 10.077 0 18.384-8.308L421-456.232ZM228.309-164.001q-27.308 0-45.808-18.5t-18.5-45.808v-503.382q0-27.308 18.5-45.808t45.808-18.5h503.382q27.308 0 45.808 18.5t18.5 45.808v503.382q0 27.308-18.5 45.808t-45.808 18.5H228.309Z"/></svg>