<svg xmlns="http://www.w3.org/2000/svg" height="20" viewBox="0 -960 960 960" width="20"><path d="m636.615-311.461 151.924-151.924q7.922-7.922 18.576-8.307 10.654-.385 18.576 8.04 8.308 8.181 8.308 19.088 0 10.907-8.308 18.948L659.922-260.232q-9.482 9.846-22.125 9.846t-22.49-9.846l-81.768-81.769q-8.308-8.308-8.116-17.884.193-9.577 8.5-17.884 8.308-8.308 18.448-8.308 10.141 0 18.644 8.631l65.6 65.985Zm1-296.614 150.924-150.924q7.922-7.923 18.576-8.807 10.654-.885 18.576 7.54 8.308 8.18 8.308 19.088 0 10.907-8.308 18.947L659.922-556.846Q650.44-547 637.797-547t-22.49-9.846l-81.768-81.769q-8.308-8.308-7.616-18.384.693-10.077 9-18.385 8.308-8.307 18.448-8.307 10.141 0 18.32 8.307l65.924 67.309ZM142.001-305.694q-11.05 0-18.525-7.418-7.475-7.418-7.475-18.384 0-10.966 7.475-18.581t18.525-7.615h264q11.049 0 18.524 7.418Q432-342.856 432-331.89q0 10.966-7.475 18.581t-18.524 7.615h-264Zm0-296.614q-11.05 0-18.525-7.418-7.475-7.418-7.475-18.384 0-10.966 7.475-18.581t18.525-7.615h264q11.049 0 18.524 7.418Q432-639.47 432-628.504q0 10.966-7.475 18.581t-18.524 7.615h-264Z"/></svg>