<svg xmlns="http://www.w3.org/2000/svg" height="20" viewBox="0 -960 960 960" width="20"><path d="M548.923-138.922q1.923.769 3.462.769 1.538 0 3.461-.769l232.308-70.847q-6.077-25.615-24.656-38.385-18.58-12.769-41.805-12.769H516.847q-16.231 0-35.539-2.5t-37.615-9.269l-41.77-15.539q-10.02-3.56-14.356-14.241t-.49-20.835q3.846-9.769 14.384-13.845 10.539-4.077 20.692-.231l44.001 17.231q12.154 4.769 23.615 6.192 11.462 1.423 21.308 1.039h91.616q0-13.847-5.193-21.616-5.192-7.769-17.115-12.539l-254.077-91.23q-1.154-.385-2.116-.577-.961-.193-2.115-.193h-46.001v214.153l272.847 86.001Zm-17.615 48.767-255.232-79.769q1.154 21.846-13.346 37.384-14.5 15.539-35.961 16.539h-86.383q-26.923 1-45.615-18.136-18.692-19.136-18.692-46.172v-246.458q0-26.623 18.873-45.465 18.873-18.842 45.539-18.842h179.201q7.231 0 13.654 1.307 6.423 1.308 12.586 3.421l254.529 90.733q24.23 9.077 39.23 30.904 15 21.826 15 51.788h67.002q51.076 0 86.691 30.807t35.615 77.191q0 15-11 26.884-11 11.885-24.23 15.961L575.077-89.77q-10.846 3.23-21.692 2.923-10.846-.308-22.077-3.308Zm-403.23-90.154q0 5.385 3.461 8.847 3.462 3.462 8.847 3.462h71.383q5.385 0 8.847-2.885 3.462-2.885 3.462-9.424v-258.767h-83.692q-5.385 0-8.847 3.462-3.461 3.462-3.461 8.847v246.458Zm493.229-301.305-52.998-17.922v-17.694q-4.231-57-43.808-94.27-39.577-37.269-97.193-37.269-38.231 0-69.27 19.731-31.039 19.731-47.116 50.578h-61.69q17.307-47.923 57.307-79.962 40-32.038 94.77-39.884V-792h-22.001q-11.069 0-18.534-7.405-7.465-7.404-7.465-18.384 0-10.979 7.465-18.594 7.465-7.616 18.534-7.616h157q24.308 0 41.615 5.693 17.307 5.692 41.153 13.307 11 3.846 18.692 11.807 7.693 7.962 7.693 18.808 0 11.525-7.753 19.762t-19.247 8.237q-6.076 0-11.538-2.83-5.461-2.83-10.538-7.093-14-8.231-28.904-11.961Q552.577-792 536.308-792h-83.001v93.694q74.308 9.692 121.154 65.538 46.846 55.846 46.846 125.999v25.155Zm-193.999-89.153Zm318.443 35.074q-30.905 0-52.328-21.598Q672-578.889 672-609.692q0-18.462 16.154-52.846 16.153-34.384 45.768-79.922 1.616-2.616 12.077-5.846-.769 0 12.077 5.846 30 45.922 45.961 80.614 15.962 34.692 15.962 52.154 0 30.803-21.671 52.401-21.671 21.598-52.577 21.598Z"/></svg>