<svg xmlns="http://www.w3.org/2000/svg" height="20" viewBox="0 -960 960 960" width="20"><path d="M360-356.001h252q36.922 0 62.461-25.538 25.538-25.539 25.538-62.461 0-33.153-21.846-58.076-21.846-24.923-56.153-28.923h-20.001v-11.923q-4.923-47.385-39.731-78.231-34.807-30.846-84.191-30.846-45.308 0-77.769 27.962-32.461 27.962-40.922 69.038h-12.309q-36.922 4.077-61.999 32.962-25.077 28.884-25.077 65.652 0 41.588 29.181 70.986 29.181 29.398 70.818 29.398ZM360-408q-20 0-34-14t-14-34q0-20 14-34t34-14h48v-24q0-29.7 21.212-50.85 21.213-21.15 51-21.15Q510-600 531-578.85q21 21.15 21 50.85v48h60q14.875 0 24.938 10.289Q647-459.421 647-444.211 647-429 636.938-418.5 626.875-408 612-408H360Zm120.343 291.999q-75.112 0-141.48-28.42-66.369-28.42-116.182-78.21-49.814-49.791-78.247-116.087t-28.433-141.673q0-75.378 28.42-141.246 28.42-65.869 78.21-115.682 49.791-49.814 116.087-78.247t141.673-28.433q75.378 0 141.246 28.42 65.869 28.42 115.682 78.21 49.814 49.791 78.247 115.853t28.433 141.173q0 75.112-28.42 141.48-28.42 66.369-78.21 116.182-49.791 49.814-115.853 78.247t-141.173 28.433ZM480-168q130 0 221-91t91-221q0-130-91-221t-221-91q-130 0-221 91t-91 221q0 130 91 221t221 91Zm0-312Z"/></svg>