<svg xmlns="http://www.w3.org/2000/svg" height="20" viewBox="0 -960 960 960" width="20"><path d="M454.001-423.152v-270.617q-70.616 11.615-118.308 65.961Q288-573.462 283-504h-43q-49.714 0-84.857 35.202t-35.143 85Q120-334 155.143-299T240-264h504q40.32 0 68.16-27.775 27.84-27.774 27.84-68Q840-400 812.16-428q-27.84-28-68.16-28h-72v-72q0-35.769-17-68.769-17-33-49-59.231v-60.306q54.153 28.077 86.076 78.604Q723.999-587.175 723.999-528v20.001h12.308q64.23-3.077 109.961 40.346Q891.999-424.23 891.999-361q0 62.922-43.538 105.961Q804.922-212.001 744-212.001H240q-71.922 0-121.961-51.115-50.038-51.115-50.038-123.038 0-74.384 52-126.538 52-52.153 123.923-45.614 16.539-78.154 80.308-131.808 63.769-53.654 129.769-53.654 21.238 0 36.618 13.731 15.38 13.73 15.38 36.268v270.617l48.155-48.54q8.308-8.307 18.743-8.5 10.436-.192 18.41 8.116 8.692 8.692 8.692 18.576t-8.692 18.576l-89.137 89.138q-9.709 9.708-22.352 9.708t-22.125-9.846l-89-89q-8.308-8.307-7.808-18.576t8.808-18.576q8.692-8.693 18.769-8.5 10.076.192 18.384 8.884l47.155 48.54ZM480-509.384Z"/></svg>