<svg xmlns="http://www.w3.org/2000/svg" height="20" viewBox="0 -960 960 960" width="20"><path d="M264.211-223.693q-11.942 0-20.23-8.078-8.288-8.077-8.288-20.018 0-11.942 8.078-20.23 8.077-8.288 20.018-8.288 11.942 0 20.23 8.078 8.288 8.077 8.288 20.018 0 11.942-8.078 20.23-8.077 8.288-20.018 8.288Zm432 0q-11.942 0-20.23-8.078-8.288-8.077-8.288-20.018 0-11.942 8.078-20.23 8.077-8.288 20.018-8.288 11.942 0 20.23 8.078 8.288 8.077 8.288 20.018 0 11.942-8.078 20.23-8.077 8.288-20.018 8.288Zm-324 144q-11.942 0-20.23-8.078-8.288-8.077-8.288-20.018 0-11.942 8.078-20.23 8.077-8.288 20.018-8.288 11.942 0 20.23 8.078 8.288 8.077 8.288 20.018 0 11.942-8.078 20.23-8.077 8.288-20.018 8.288Zm108-144q-11.942 0-20.23-8.078-8.288-8.077-8.288-20.018 0-11.942 8.078-20.23 8.077-8.288 20.018-8.288 11.942 0 20.23 8.078 8.288 8.077 8.288 20.018 0 11.942-8.078 20.23-8.077 8.288-20.018 8.288Zm108 144q-11.942 0-20.23-8.078-8.288-8.077-8.288-20.018 0-11.942 8.078-20.23 8.077-8.288 20.018-8.288 11.942 0 20.23 8.078 8.288 8.077 8.288 20.018 0 11.942-8.078 20.23-8.077 8.288-20.018 8.288ZM295-346q-81.154 0-135.076-58.198Q106.001-462.396 106.001-545q0-74.307 51.153-127.615 51.154-53.307 127-61.154 29.986-56.173 81.993-88.202 52.007-32.028 113.279-32.028 83.554 0 144.294 54.307 60.741 54.308 72.818 136.923 69.308 2.231 113.384 48.757 44.077 46.526 44.077 110.128 0 65.653-46.083 111.768Q761.833-346.001 696-346.001H295Zm5-51.998h396q44.166 0 75.084-30.852 30.917-30.852 30.917-74.924 0-44.071-30.917-75.149-30.918-31.077-75.084-31.077h-42.999l-9-49.999q-8-61.125-54.955-101.563t-109.105-40.438q-57.018 0-100.474 34.667-43.455 34.667-64.698 91.488l2.637-6.155h-17.491q-59.046.143-100.481 41.677-41.435 41.533-41.435 99.987 0 59.48 41.586 100.909Q241.171-397.999 300-397.999ZM480-599Z"/></svg>