<svg xmlns="http://www.w3.org/2000/svg" height="20" viewBox="0 -960 960 960" width="20"><path d="M58-346.001v-24.922q0-45.994 50.27-60.535 50.269-14.541 83.73-14.541 33.461 0 83.73 14.541 50.269 14.541 50.269 60.535v24.922H58.001Zm133.788-144q-25.942 0-43.864-18.135-17.923-18.135-17.923-44.076 0-25.942 18.135-43.864 18.135-17.923 44.076-17.923 25.942 0 43.864 18.135 17.923 18.135 17.923 44.076 0 25.942-18.135 43.864-18.135 17.923-44.076 17.923Zm216.52 95.077q-7.138 0-12.492-5.353-5.353-5.354-5.353-12.492 0-3.231 5.076-12.769 9.616-11.385 14.731-25.154t5.115-28.637q0-14.867-5.307-29.115-5.308-14.249-14.923-25.249-2.146-1.955-3.611-5.207-1.466-3.252-1.466-6.799 0-7.685 5.269-12.954 5.269-5.269 12.328-5.269 4.343 0 7.873 1.23 3.529 1.231 5.375 4.462 15.077 15.461 22.615 35.699 7.539 20.238 7.539 42.916 0 22.925-7.846 43.424-7.846 20.498-21.923 35.575-1.932 3.077-5.543 4.385-3.611 1.307-7.457 1.307Zm81.603 80.769q-7.322 0-12.424-5.121-5.102-5.122-5.102-12.955 0-3.615 1.466-6.925 1.466-3.31 3.611-5.229 25.231-27.384 39.462-62.5Q531.154-442 531.154-480q0-38-13.23-72.808-13.231-34.807-39.462-61.807-2.145-1.982-4.111-5.964-1.966-3.982-1.966-7.497 0-7.616 5.057-12.193 5.056-4.576 12.789-4.576 3.883 0 7.21 1.423 3.328 1.423 5.174 3.653 31.071 32.065 48.151 73.263 17.08 41.199 17.08 86.461 0 45.263-16.962 86.615-16.961 41.352-48.269 73.814-1.846 2.231-5.164 3.846-3.317 1.615-7.54 1.615Zm144.09-31.846v-24.922q0-45.994 49.569-60.535 49.569-14.541 84.43-14.541 33.461 0 83.73 14.541 50.269 14.541 50.269 60.535v24.922H634.001Zm133.787-144q-25.942 0-43.864-18.135-17.923-18.135-17.923-44.076 0-25.942 18.135-43.864 18.135-17.923 44.076-17.923 25.942 0 43.864 18.135 17.923 18.135 17.923 44.076 0 25.942-18.135 43.864-18.135 17.923-44.076 17.923Z"/></svg>