<svg xmlns="http://www.w3.org/2000/svg" height="20" viewBox="0 -960 960 960" width="20"><path d="M198.154-342.154h83.692q-1.924-33.831-25.892-57.8-23.969-23.968-57.8-25.892v83.692Zm144 0h36.461q0-75.385-52.698-127.923t-127.763-52.538v36.461q60 0 102 42.084 42 42.085 42 101.916Zm96.77 0h36.46q0-57.692-21.671-108.281-21.672-50.589-59.181-88.097-37.508-37.509-88.097-59.181-50.589-21.671-108.281-21.671v36.46q100.232 0 170.501 70.269t70.269 170.501Zm-258.615 82.153q-27.008 0-45.658-18.662-18.65-18.662-18.65-45.686v-407.626q0-27.024 18.65-45.524t45.658-18.5h599.382q27.008 0 45.658 18.662 18.65 18.662 18.65 45.686v407.626q0 27.024-18.65 45.524t-45.658 18.5H603.999v63.846q0 13.761-9.185 22.957-9.184 9.197-22.929 9.197H388.438q-13.744 0-23.09-9.197-9.347-9.196-9.347-22.957v-63.846H180.309Zm0-51.999h599.382q4.616 0 8.463-3.846 3.846-3.847 3.846-8.463v-407.382q0-4.616-3.846-8.463-3.847-3.846-8.463-3.846H180.309q-4.616 0-8.463 3.846-3.846 3.847-3.846 8.463v407.382q0 4.616 3.846 8.463 3.847 3.846 8.463 3.846ZM168-312V-744-312Z"/></svg>