<svg xmlns="http://www.w3.org/2000/svg" height="20" viewBox="0 -960 960 960" width="20"><path d="M168-607.845h624v-75.846q0-4.616-3.846-8.463-3.847-3.846-8.463-3.846H180.309q-4.616 0-8.463 3.846-3.846 3.847-3.846 8.463v75.846Zm-51.999-75.846q0-26.308 19-45.308t45.308-19h599.382q26.308 0 45.308 19t19 45.308v187.536H168v219.846q0 4.616 3.846 8.463 3.847 3.846 8.463 3.846h153.155q11.069 0 18.534 7.405 7.465 7.404 7.465 18.384 0 10.979-7.465 18.594-7.465 7.616-18.534 7.616H180.309q-26.308-1-45.308-19t-19-45.027v-407.663Zm51.999 0V-264-387.27v75.731V-696v12.309Zm417.846 484.922 204.077-204.078q7.923-7.923 17.692-7.807 9.769.115 18.555 8.423 8.214 8.307 8.021 18.576-.192 10.269-8.5 18.576L609.153-148.54q-9.755 9.846-22.762 9.846t-22.853-9.846L448.769-263.309q-8.307-8.308-8.307-18.077 0-9.769 8.307-18.076 8.692-8.692 18.936-8.692 10.243 0 18.217 8.692l99.924 100.693Z"/></svg>