<svg xmlns="http://www.w3.org/2000/svg" height="20" viewBox="0 -960 960 960" width="20"><path d="M535.615-171.924 305.918-406.711q-4.071-3.982-5.994-9.006t-1.923-10.677v-16.962q0-11.932 8.359-20.442 8.36-8.509 20.717-8.509H420q53.846 0 98.424-37.423 44.577-37.424 45.115-96.424H300.226q-11.145 0-18.685-7.418-7.54-7.419-7.54-18.385 0-10.965 7.422-18.581 7.422-7.615 18.394-7.615h253.569q-16.692-41.154-51.927-63.501Q466.224-744 420-744H299.618q-10.368 0-17.992-7.418-7.625-7.418-7.625-18.384 0-10.966 7.467-18.581 7.467-7.616 18.506-7.616h359.737q11.039 0 18.664 7.419 7.624 7.418 7.624 18.384 0 10.966-7.475 18.581Q671.05-744 660-744H552.152q20.308 17 35.809 37.923 15.5 20.924 20.115 47.924H660q11.05 0 18.524 7.418 7.475 7.418 7.475 18.384 0 10.966-7.475 18.582-7.474 7.615-18.524 7.615h-44.847q-1.153 81-59.384 133.423Q497.538-420.309 420-420.309h-54.463l207.462 212.232q12.769 12.384 5.855 28.23t-24.524 15.846q-6.1 0-10.676-2.231-4.577-2.231-8.039-5.692Z"/></svg>