<svg xmlns="http://www.w3.org/2000/svg" height="20" viewBox="0 -960 960 960" width="20"><path d="M481.154-164.001q-131.153 0-223.576-92.423t-92.423-223.604q0-108.355 67.268-193.931 67.268-85.577 177.295-111.298 11.511-3.049 20.626 1.22 9.115 4.27 14.192 11.731t6.077 18.115q1 10.654-4.077 21.269-9.384 19.538-14.384 41.329-5 21.79-5 43.593 0 93.334 64.334 157.668 64.334 64.333 157.668 64.333 25.418 0 48.286-5.961 22.867-5.961 42.021-13.807 9.846-4.308 19.23-2.538 9.385 1.769 15.542 6.769 6.842 5 10.919 13.154 4.077 8.153 1.308 17.846-21.309 107.998-106.808 177.266-85.499 69.269-198.498 69.269Zm-1-51.999q82.923 0 148.885-46.006Q695-308.011 725.154-382q-20 5-39 8t-38 3q-114.274 0-194.637-80.478t-80.363-194.914q0-18.608 3-37.608 3-19 8-39-74 30-120 95.93t-46 148.814q0 109.256 76.729 185.756Q371.611-216 480.154-216Zm-8-254Z"/></svg>