<svg xmlns="http://www.w3.org/2000/svg" height="20" viewBox="0 -960 960 960" width="20"><path d="m365.154-494.845 92.693-92.308-67.078-67.693-28.078 28.077q-8.307 8.308-18.576 8.308t-18.576-8.308q-8.308-8.307-8.308-18.384 0-10.076 8.308-18.384l28.462-28.462-72.54-71.54-92.308 92.308 176.001 176.386Zm305.692 305.307 92.308-92.308-70.54-71.539-28.077 28.462q-7.923 7.923-18.384 8.115-10.462.192-18.769-8.115-8.308-8.308-8.308-18.577 0-10.269 8.308-18.576l28.462-28.078-68.309-67.693-92.692 92.693 176.001 175.616ZM686.461-744l57.154 57.154L686.461-744ZM196.155-164.001q-13.461 0-22.807-9.347-9.347-9.346-9.347-22.807V-282q0-7.231 2.616-12.269 2.615-5.038 7.231-9.654l154.538-154.538-182.462-182.847q-12.923-12.923-12.923-29.923 0-16.999 12.923-29.922l105.615-105.615q12.922-12.923 29.922-13.115 17-.192 29.923 12.731L494.23-624.306l155.848-156.462q8.307-8.308 17.461-11.769 9.153-3.462 19.307-3.462 10.153 0 19.307 3.462 9.153 3.461 17.461 11.769l57.154 57.923q8.308 8.308 11.577 17.461 3.269 9.154 3.269 19.308 0 10.153-3.269 19.307-3.269 9.153-11.577 17.461L624.69-494.23l182.078 182.846q12.923 12.923 12.923 29.923t-12.923 29.922L701.153-145.924q-12.923 12.923-29.922 12.923-17 0-29.923-12.923L458.461-328.386 303.923-173.848q-4.616 4.616-9.654 7.231-5.038 2.616-12.269 2.616h-85.845ZM216-216h57.539l375.385-375.769-57.155-57.155L216-273.539V-216Zm404.846-405.231-29.077-27.693 57.155 57.155-28.078-29.462Z"/></svg>