<svg xmlns="http://www.w3.org/2000/svg" height="20" viewBox="0 -960 960 960" width="20"><path d="M502.001-586.234v46.117q0 11.1 7.478 18.608 7.479 7.508 18.534 7.508 11.056 0 18.521-7.508 7.465-7.508 7.465-18.608v-46.117H600q11.05 0 18.524-7.512 7.475-7.512 7.475-18.478 0-10.966-7.475-18.371-7.474-7.404-18.524-7.404h-46.001v-45.79q0-10.961-7.418-18.586-7.418-7.624-18.384-7.624-10.966 0-18.465 7.475-7.498 7.474-7.498 18.524v46.001h-46.117q-11.1 0-18.608 7.478-7.508 7.479-7.508 18.534 0 10.756 7.475 18.255 7.474 7.498 18.524 7.498h46.001Zm-46.056 216.233h143.779q11.026 0 18.651-7.418 7.624-7.418 7.624-18.384 0-10.966-7.459-18.581t-18.485-7.615H456.276q-11.026 0-18.65 7.418-7.625 7.418-7.625 18.384 0 10.966 7.459 18.581t18.485 7.615Zm-131.636 158q-26.308 0-45.308-19t-19-45.308v-551.382q0-26.308 19-45.308t45.308-19h282.769q12.854 0 24.504 4.616 11.649 4.615 21.496 14.461l123.844 123.844q9.846 9.847 14.461 21.496 4.616 11.65 4.616 24.504v426.769q0 26.308-19 45.308t-45.308 19H324.309Zm-144 144q-26.308 0-45.308-19t-19-45.308v-493.69q0-11.05 7.419-18.525 7.418-7.475 18.384-7.475 10.966 0 18.581 7.475T168-625.999v493.69q0 4.616 3.846 8.463 3.847 3.846 8.463 3.846h373.69q11.05 0 18.525 7.418 7.475 7.418 7.475 18.384 0 10.966-7.475 18.581Q565.049-68 553.999-68h-373.69Z"/></svg>