<svg xmlns="http://www.w3.org/2000/svg" height="20" viewBox="0 -960 960 960" width="20"><path d="M168-168v-240V-168Zm624 0v-240 240Zm-48-411.999q20.4 0 34.2-13.8 13.8-13.8 13.8-34.2 0-20.4-13.8-34.2-13.8-13.8-34.2-13.8-20.4 0-34.2 13.8-13.8 13.8-13.8 34.2 0 20.4 13.8 34.2 13.8 13.8 34.2 13.8ZM743.973-528q-42.511 0-71.241-28.724-28.731-28.723-28.731-71.184 0-41.628 28.724-70.859 28.724-29.23 71.184-29.23 41.629 0 70.859 29.174 29.231 29.174 29.231 70.851 0 42.511-29.175 71.242Q785.65-528 743.973-528ZM480-651.999q25 0 42.5-17t17.5-43q0-25-17.5-42.5t-42.5-17.5q-26 0-43 17.5t-17 42.5q0 26 17 43t43 17ZM479.989-600q-46.527 0-79.257-32.678-32.731-32.678-32.731-79.162 0-45.696 32.678-78.927 32.678-33.23 79.162-33.23 45.697 0 78.927 33.136 33.231 33.135 33.231 78.873 0 46.527-33.136 79.258Q525.727-600 479.989-600ZM301.23-396q0 33.077 40.269 82.616 40.27 49.538 131.193 129.462l7.308 6.538 8.078-7.692q100-91 135.346-134.473Q658.77-363.022 658.77-396q0-30.504-20.107-50.637Q618.557-466.77 588-466.77q-17.347 0-33.943 8.154-16.596 8.154-28.519 20.692L489-394.77h-18.615l-36.923-43.154q-11.923-12.538-28.346-20.692-16.423-8.154-33.56-8.154-30.32 0-50.323 20.133T301.23-396Zm-51.999 0q0-50.154 37.154-86.461 37.154-36.308 85.615-36.308 29.878 0 56.516 13.5 26.638 13.5 46.484 35.731l5 5.77 5-6.154q19.494-21.923 46.324-35.385T588-518.769q47.076 0 84.922 36.163 37.847 36.162 37.847 86.606 0 47.923-34.539 97.077-34.538 49.153-115.999 118.999L480-110.309l-79.461-68.461q-83.231-72.384-117.269-121.153-34.039-48.77-34.039-96.077ZM216-579.999q20.4 0 34.2-13.8 13.8-13.8 13.8-34.2 0-20.4-13.8-34.2-13.8-13.8-34.2-13.8-20.4 0-34.2 13.8-13.8 13.8-13.8 34.2 0 20.4 13.8 34.2 13.8 13.8 34.2 13.8Zm267 463.998V-168h309v-227.691q0-5.001-3.654-8.655-3.654-3.654-8.655-3.654h-90.152V-459.999h90.086q25.893 0 45.133 19.241 19.241 19.24 19.241 44.607v248.268q0 13.189-9.245 22.535-9.244 9.347-22.909 9.347H483ZM168-168h315v51.999H148.155q-13.665 0-22.909-9.245-9.245-9.244-9.245-22.909V-396.05q0-25.564 18.789-44.756 18.788-19.193 45.269-19.193h89.402V-408h-89.152q-5.385 0-8.847 3.654-3.462 3.654-3.462 8.655V-168Zm47.973-360q-42.511 0-71.241-28.724-28.731-28.723-28.731-71.184 0-41.628 28.724-70.859 28.724-29.23 71.185-29.23 41.628 0 70.858 29.174 29.231 29.174 29.231 70.851 0 42.511-29.175 71.242Q257.65-528 215.973-528ZM480-711.999Zm-264 84Zm528 0Z"/></svg>