<svg xmlns="http://www.w3.org/2000/svg" height="20" viewBox="0 -960 960 960" width="20"><path d="M360-368V-744v528-152Zm-51.999 21.999H360v117.692q0 5.385 3.462 8.847 3.462 3.462 8.847 3.462h215.382q5.385 0 8.847-3.462 3.462-3.462 3.462-8.847v-503.382q0-5.385-3.462-8.847-3.462-3.462-8.847-3.462H372.309q-5.385 0-8.847 3.462-3.462 3.462-3.462 8.847v333.692h-51.999v-333.692q0-26.527 18.891-45.417 18.89-18.891 45.417-18.891h215.382q26.527 0 45.417 18.891 18.891 18.89 18.891 45.417v503.382q0 26.527-18.891 45.417-18.89 18.891-45.417 18.891H372.309q-26.527 0-45.417-18.891-18.891-18.89-18.891-45.417v-117.692Zm171.788-210.615q12.903 0 22.249-9.846 9.346-9.846 9.346-22.038t-9.135-21.538q-9.136-9.346-22.038-9.346-12.903 0-22.249 9.196-9.346 9.196-9.346 22.188 0 11.692 9.135 21.538 9.136 9.846 22.038 9.846Zm289.697-46.385q-10.256 0-17.871-7.475Q744-617.95 744-629v-150q0-11.05 7.479-18.524 7.478-7.475 18.534-7.475 9.755 0 17.87 7.475 8.116 7.474 8.116 18.524v150q0 11.05-8.129 18.524-8.129 7.475-18.384 7.475Zm-523.508 257q-11.034 0-18.659-7.418-7.625-7.418-7.625-18.384 0-10.966 7.465-18.581 7.464-7.615 18.499-7.615H485.1q11.035 0 18.659 7.418 7.625 7.418 7.625 18.384 0 10.966-7.464 18.581-7.465 7.615-18.499 7.615H245.978Z"/></svg>