<svg xmlns="http://www.w3.org/2000/svg" height="20" viewBox="0 -960 960 960" width="20"><path d="M168.385-479.615q0 113.538 71.615 199.308 71.616 85.769 179.693 106.846 10.538 1.846 17.615 10.076 7.077 8.231 7.077 19.384 0 10.154-8.192 16.961-8.193 6.808-19.115 5.577-128.615-21.923-214.654-122.115-86.038-100.192-86.038-236.037 0-135.846 86.038-235.538 86.039-99.692 214.654-121.615 10.922-1.231 19.115 5.577 8.192 6.807 8.192 16.961 0 11.154-7.077 19.384-7.077 8.231-17.615 10.077Q312-763.693 240.193-678.616q-71.808 85.077-71.808 199.001Zm337.999 79.617 97.694-97.694q7.922-7.923 17.999-8.115 10.077-.192 18.384 8.115 8.308 8.308 8.5 18.192.192 9.884-8.115 18.192L502.692-323.155q-9.846 9.846-22.307 9.846-12.462 0-22.308-9.846L320.693-460.154q-7.923-7.923-7.808-18.192.116-10.269 8.423-18.576 8.308-8.308 18.384-8.308 10.077 0 18.384 8.308l96.309 96.924v-231.156q0-10.768 7.616-18.384 7.615-7.615 18.384-7.615t18.384 7.615q7.615 7.616 7.615 18.384v231.156Zm146.463 180.382q9.153-6.077 19.922-5.461 10.769.615 18.692 8.538 8.308 7.923 7.692 18.384-.615 10.461-9.153 16.154-32.77 23.153-69.231 37.653-36.462 14.5-76.616 22.5-10.153 2.616-18.961-4.384-8.807-7-8.807-17.769 0-11.769 7.999-19.307 8-7.538 19.154-10.384 30-6 57.424-17.731 27.423-11.731 51.885-28.193ZM542.153-784.154q-10.769-2.846-18.269-11.077-7.499-8.23-7.499-18.999 0-10.769 8.807-17.769 8.808-7 18.961-4.769 38.769 8 75.539 22.692 36.769 14.693 69.538 36.462 8.539 6.077 10.039 17.038t-6.808 19.269q-8.307 7.923-19.576 8.538-11.269.615-21.807-5.461-24.462-17.462-51.693-28.501-27.231-11.038-57.232-17.423Zm243.54 368.307q2.846-11.769 10.691-19.269 7.846-7.499 19.615-7.499 10.769 0 17.577 8.23 6.807 8.231 4.961 18.384-7.615 39.77-22.808 76.423-15.192 36.654-37.961 69.039-6.077 8.538-16.038 9.923-9.961 1.385-18.269-6.923-8.307-8.307-8.73-18.769-.424-10.461 5.653-20.614 16.462-24.462 27.885-51.886 11.424-27.423 17.424-57.039Zm-45.924-233.692q-6.077-10.538-5.154-21.884t9.231-19.653q8.692-8.693 19.653-6.616 10.961 2.077 17.038 12 20.615 32.77 34.923 68.154 14.308 35.385 22.308 75.154 2.615 10.154-4.692 18.961-7.308 8.808-18.077 8.808-11.769 0-19.115-7.808-7.345-7.807-10.191-18.576-6-30.001-17.731-57.039-11.731-27.039-28.193-51.501Z"/></svg>