<svg xmlns="http://www.w3.org/2000/svg" height="20" viewBox="0 -960 960 960" width="20"><path d="M250.001-116.001q-56.154 0-95.077-36.615-38.923-36.615-38.923-92.769v-154.769q0-19.402 8.284-36.182 8.283-16.78 23.101-29.355l303.692-247.154q10.923-10.077 22.423-6.846 11.5 3.23 20.577 12.307 14.307 14.308 15.499 32.615 1.192 18.307-7.5 35.845l-66.539 124.771h286.461q10.75 0 18.375 7.629 7.625 7.628 7.625 18.384 0 10.755-7.625 18.371-7.625 7.615-18.375 7.615H524.001v63.385h293.998q10.75 0 18.375 7.629t7.625 18.384q0 10.756-7.625 18.371-7.625 7.615-18.375 7.615H524.001v63.386h245.998q10.75 0 18.375 7.628 7.625 7.629 7.625 18.384 0 10.756-7.625 18.371-7.625 7.615-18.375 7.615H524.001V-168h149.998q10.75 0 18.375 7.629 7.625 7.628 7.625 18.384 0 10.755-7.625 18.37-7.625 7.616-18.375 7.616H250.001ZM566.77-722.076q-25.615-33.846-34.654-58.512-9.038-24.667-7.038-55.103 1-10.275 7.836-18.214 6.836-7.939 16.961-7.939 10.125 0 17.555 7.439t7.185 17.714q-.769 29.461 12.192 51.346 12.962 21.885 31.885 46.808 25 31.615 35.807 59.346 10.808 27.731 10.193 58.577-1 10.769-8.308 18.768-7.307 8-17.146 8-10.084 0-16.891-8-6.808-7.999-7.808-18.153-2-31.154-16-54.731t-31.769-47.346Zm131.691 0q-25.615-33.846-34.846-58.512-9.23-24.667-7.23-55.103 1-10.275 7.865-18.214 6.866-7.939 17.034-7.939 10.407 0 17.837 7.439t7.185 17.714q-.769 29.461 12.193 51.346 12.961 21.885 31.884 46.808 25 31.615 35.808 59.346 10.808 27.731 10.192 58.577-1 11.213-8.336 18.99-7.336 7.778-17.461 7.778-10.125 0-16.932-8.192-6.808-8.192-7.808-18.346-1.977-30.762-15.796-54.342-13.819-23.581-31.589-47.35Z"/></svg>