<svg xmlns="http://www.w3.org/2000/svg" height="20" viewBox="0 -960 960 960" width="20"><path d="M158.353-394.001q-10.966 0-18.581-7.475-7.616-7.474-7.616-18.524v-216q0-11.05 7.419-18.524 7.418-7.475 18.384-7.475 10.966 0 18.581 7.475 7.615 7.474 7.615 18.524v216q0 11.05-7.418 18.524-7.418 7.475-18.384 7.475Zm643.688 96q-10.966 0-18.581-7.475-7.615-7.474-7.615-18.524v-216q0-11.05 7.418-18.524 7.418-7.475 18.384-7.475 10.966 0 18.581 7.475 7.616 7.474 7.616 18.524v216q0 11.05-7.419 18.524-7.418 7.475-18.384 7.475Zm-481.579 182q-27.007 0-45.657-18.65-18.65-18.65-18.65-45.658v-599.382q0-27.008 18.65-45.658 18.65-18.65 45.657-18.65h319.076q27.007 0 45.657 18.65 18.65 18.65 18.65 45.658v599.382q0 27.008-18.65 45.658-18.65 18.65-45.657 18.65H320.462Zm-12.308-161.998h343.692v-404.002H308.154v404.002Z"/></svg>