<svg xmlns="http://www.w3.org/2000/svg" height="20" viewBox="0 -960 960 960" width="20"><path d="m533.076-592.308-36.768-36.768-144.692 145.077q-3.462 3.461-5.692 8.038-2.231 4.577-2.231 10.654v11.461q0 6.461 3.846 10.307t10.307 3.846h11.461q6.077 0 10.654-2.231 4.577-2.23 8.038-5.692l145.077-144.692Zm26-26L581.769-641q3.23-3.231 3.23-7.962t-3.23-7.961l-19.846-20.846q-3.23-3.23-7.961-3.73t-8.962 3.73l-22.692 22.693 36.768 36.768ZM480-184.461q114.384-100.076 178.154-195.077 63.769-95 63.769-167.539 0-105.384-68.5-175.346T480-792.385q-104.923 0-173.423 69.962t-68.5 175.346q0 72.539 63.769 167.539Q365.616-284.537 480-184.461Zm0 50.075q-10.692 0-19.884-3.538-9.192-3.539-18.654-11-28.845-24.615-72.268-67.191-43.423-42.577-84.577-95.615-41.154-53.039-69.846-113.654Q186.078-486 186.078-547.077q0-122.46 82.077-209.691Q350.231-843.999 480-843.999q128.769 0 211.345 87.231 82.577 87.231 82.577 209.691 0 61.077-29.193 122.001-29.192 60.923-69.654 114.154-40.461 53.23-83.884 95.115-43.423 41.884-72.269 66.498-9.461 7.462-18.845 11.193-9.385 3.73-20.077 3.73Zm0-415.306Z"/></svg>