<svg xmlns="http://www.w3.org/2000/svg" height="20" viewBox="0 -960 960 960" width="20"><path d="m588.691-469.924-37.153-37.153 102.386-102.386-44.461-44.461-102.386 102.386-36.153-38.153 190.693-191.077q7.758-7.946 17.132-11.589 9.374-3.642 19.65-3.642 10.276 0 19.554 3.27 9.277 3.269 17.969 11.576l44.846 44.461q8.308 8.692 11.769 18.038 3.462 9.346 3.462 19.234 0 10.546-3.676 20.104-3.675 9.558-11.555 17.315L588.691-469.924ZM216-216h44.461L464.77-420.309l-21.841-22.62-22.62-21.841L216-260.461V-216Zm532.963 79.272L501.538-383.156 301.46-182.694q-10.017 9.897-21.672 14.295-11.655 4.398-24.516 4.398h-58.935q-13.547 0-22.941-9.26-9.395-9.259-9.395-22.947v-59.216q0-12.993 4.398-24.698t14.295-21.723l200.077-200.078-246.085-247.082q-8.069-8.072-7.992-18.215.077-10.143 8.461-18.087 7.975-8.308 18.218-8.308t18.629 8.386l611.842 611.843q8.001 8.001 7.924 18.436-.076 10.436-8.461 18.41-7.944 8.307-17.894 8.307-9.951 0-18.45-8.495Zm-4.578-562.426-45.231-45.231 45.231 45.231Zm-134.922 45.23 44.461 44.461-44.461-44.461ZM442.929-442.929l-22.62-21.841 44.461 44.461-21.841-22.62Z"/></svg>