<svg xmlns="http://www.w3.org/2000/svg" height="20" viewBox="0 -960 960 960" width="20"><path d="M276.309-116.001q-27.008 0-45.658-18.65-18.65-18.65-18.65-45.658v-599.382q0-27.008 18.65-45.658 18.65-18.65 45.658-18.65h282.769q12.854 0 24.504 4.616 11.649 4.615 21.496 14.461l123.844 123.844q9.846 9.847 14.461 21.496 4.616 11.65 4.616 24.504v160.155q-19.462 9.846-35.112 26.086-15.651 16.241-31.503 32.067L508.076-264.846q-9.846 9.846-14.269 21.495-4.423 11.65-4.423 24.504v102.846H276.309Zm292.767-32.154v-50.893q0-6.631 2.616-12.253 2.615-5.622 7.23-10.238L775.23-416.846q5.719-5.489 12.24-8.013 6.52-2.525 12.929-2.525 6.991 0 13.567 2.538 6.575 2.539 11.955 7.615l44 45.385q5.05 5.719 7.794 12.283 2.744 6.563 2.744 13.014t-2.525 13.109q-2.524 6.657-8.013 12.285L674.614-125.848q-4.616 4.616-10.238 7.231-5.622 2.616-12.253 2.616H601.23q-13.665 0-22.909-9.245-9.245-9.244-9.245-22.909Zm230.692-152.538 45-45.615-45-45.385-45 46 45 45ZM580.001-644.001H696L548.001-792 696-644.001 548.001-792v115.999q0 13.6 9.2 22.8 9.2 9.2 22.8 9.2Z"/></svg>