<svg xmlns="http://www.w3.org/2000/svg" height="20" viewBox="0 -960 960 960" width="20"><path d="M624-464.231v-257.768q0-11.05 7.418-18.525 7.418-7.475 18.384-7.475 10.966 0 18.581 7.475 7.616 7.475 7.616 18.525v206.769L624-464.231Zm-411.999 226.25v-483.727q0-11.041 7.419-18.666 7.418-7.625 18.384-7.625 10.966 0 18.581 7.47Q264-733.06 264-722.019v483.727q0 11.041-7.418 18.666t-18.384 7.625q-10.966 0-18.581-7.47-7.616-7.469-7.616-18.51Zm206-411.546v-72.21q0-11.012 7.418-18.637t18.384-7.625q10.966 0 18.581 7.45t7.615 18.462v72.21q0 11.012-7.418 18.637t-18.384 7.625q-10.966 0-18.581-7.45t-7.615-18.462Zm0 205.615v-72.21q0-11.012 7.418-18.637t18.384-7.625q10.966 0 18.581 7.45 7.615 7.449 7.615 18.462v72.209q0 11.013-7.418 18.637-7.418 7.625-18.384 7.625-10.966 0-18.581-7.449-7.615-7.45-7.615-18.462Zm0 205.999v-72.21q0-11.012 7.418-18.637t18.384-7.625q10.966 0 18.581 7.45t7.615 18.462v72.209q0 11.013-7.418 18.638-7.418 7.625-18.384 7.625-10.966 0-18.581-7.45t-7.615-18.462Zm162.615-6.242v-50.893q0-6.631 2.615-12.253t7.231-10.238l196.307-195.307q5.72-5.489 12.24-8.013 6.521-2.525 12.929-2.525 6.991 0 13.567 2.538 6.575 2.539 11.955 7.615l44 45.385q5.05 5.719 7.794 12.283 2.745 6.563 2.745 13.014t-2.333 13.109q-2.333 6.657-8.206 12.285L686.153-221.848q-4.616 4.616-10.238 7.231-5.622 2.616-12.253 2.616h-50.893q-13.665 0-22.909-9.245-9.244-9.244-9.244-22.909Zm230.691-152.538 45-45.615-45-45.385-45 46 45 45Z"/></svg>