<svg xmlns="http://www.w3.org/2000/svg" height="20" viewBox="0 -960 960 960" width="20"><path d="M288.309-303.538h383.382q10.423 0 17.827 7.396 7.403 7.396 7.403 17.807 0 10.411-7.403 17.834-7.404 7.423-17.827 7.423H288.309q-10.423 0-17.827-7.396-7.403-7.396-7.403-17.807 0-10.411 7.403-17.834 7.404-7.423 17.827-7.423Zm20.077-137.616 144.691-215.605q4.616-7.393 12.268-10.817 7.652-3.423 14.655-3.423 7.003 0 14.655 3.423 7.652 3.424 12.268 10.817l144.691 215.605q10.462 16.077 1.712 33.154-8.75 17.076-28.25 17.076H334.924q-19.5 0-28.25-17.076-8.75-17.077 1.712-33.154Z"/></svg>