<svg xmlns="http://www.w3.org/2000/svg" height="20" viewBox="0 -960 960 960" width="20"><path d="M267.846-247.693q-52.769 0-87.423-36.538-34.653-36.539-27.961-86.539h-20.923q-21.622 0-39.503-15.765Q74.156-402.3 74.156-432v-299.691q0-27.008 18.65-45.658 18.649-18.65 45.657-18.65h449.272q17.496 0 31.996 6.423 14.5 6.424 25.5 19.808L786.922-585.23q7.615 10.083 10.654 21.157 3.038 11.074 3.038 23.074v73q37.385 6 61.307 36.934 23.923 30.934 23.923 71.065 0 47.538-32.384 79.923-32.385 32.384-79.923 32.384-50.769 0-83.846-36.346-33.077-36.346-30.769-86.731H382.461q3.462 50-29.999 86.539-33.462 36.538-84.616 36.538ZM126.154-565.999h190.001V-744H138.463q-5.385 0-8.847 3.462-3.462 3.462-3.462 8.847v165.692Zm242 144.769h199.232V-744H368.154v178.001h91.754q11.016 0 18.631 7.404 7.615 7.405 7.615 18.384 0 10.98-7.465 18.595-7.465 7.615-18.534 7.615h-92.001v92.771Zm251.23-144.769h116.925L619.384-717.924v151.925ZM267.846-299.691q25.401 0 42.855-18.155Q328.155-336 328.155-360q0-24-17.454-42.154-17.454-18.155-42.855-18.155-25.4 0-42.854 18.155Q207.538-384 207.538-360q0 24 17.454 42.154 17.454 18.155 42.854 18.155Zm505.691 0q25.401 0 42.855-18.155Q833.846-336 833.846-360q0-24-17.454-42.154-17.454-18.155-42.855-18.155-25.4 0-42.854 18.155Q713.229-384 713.229-360q0 24 17.454 42.154 17.454 18.155 42.854 18.155ZM507.77-42.77l-168.846-84.615q-5.23-2.615-4.074-8.846 1.157-6.23 7.581-6.23h98.031v-64.693q0-8.623 7.556-13.658 7.555-5.034 15.752-.418l168.845 84.615q5.231 2.615 4.074 8.846-1.156 6.23-7.581 6.23h-98.031v64.693q0 8.623-7.556 13.658-7.555 5.034-15.751.418Z"/></svg>