<svg xmlns="http://www.w3.org/2000/svg" height="20" viewBox="0 -960 960 960" width="20"><path d="M216-164.001q-21.238 0-36.618-15.381-15.381-15.38-15.381-36.618v-171.077q33.077-7.001 54.538-33.154Q240-446.385 240-480q0-33.615-21.461-59.769-21.461-26.153-54.538-33.154v-174.923q0-10.98 3.94-20.299 3.94-9.32 11.291-16.47l605.383 605.383q-7.15 7.351-16.47 11.291-9.319 3.94-20.299 3.94H572.923q-7.001-33.077-33.154-54.538Q513.615-240 480-240q-33.615 0-59.769 21.461-26.153 21.461-33.154 54.538H216Zm579.999-101.231L265.232-795.999H384q5.385-36.153 32.198-59.922 26.813-23.769 63.577-23.769 36.763 0 63.802 23.609 27.038 23.609 32.423 60.082h168q21.622 0 36.811 15.188 15.188 15.189 15.188 36.811v168q36.153 5.385 59.922 32.198 23.769 26.813 23.769 63.577 0 36.763-23.609 63.802-23.609 27.038-60.082 32.423v118.768ZM750.998-136.08 135.466-750.999q-8.003-8.001-7.926-18.437.077-10.436 8.461-18.41 7.975-8.307 18.218-8.307t18.629 8.387l614.919 615.532q8.002 8.003 8.194 18.146.192 10.143-8.115 18.087-7.974 8.307-18.218 8.307-10.243 0-18.63-8.386Z"/></svg>