<svg xmlns="http://www.w3.org/2000/svg" height="20" viewBox="0 -960 960 960" width="20"><path d="M734.844-323.848 531.616-453.077q-7.231-5.057-10.654-11.805-3.423-6.748-3.423-15.048 0-8.301 3.423-15.1 3.423-6.799 10.654-11.893l203.228-129.229q4.616-2.615 8.346-4.115 3.731-1.5 8.287-1.5 13.039 0 22.818 8.825 9.78 8.825 9.78 23.617v258.609q0 14.791-9.78 23.637-9.779 8.846-22.818 8.846-4.556 0-8.287-1.5-3.73-1.5-8.346-4.115Zm-361.69 0L169.925-453.077q-7.231-5.057-10.654-11.805-3.423-6.748-3.423-15.048 0-8.301 3.423-15.1 3.423-6.799 10.654-11.893l203.229-129.229q4.615-2.615 8.346-4.115 3.73-1.5 8.286-1.5 13.039 0 22.818 8.825 9.78 8.825 9.78 23.617v258.609q0 14.791-9.78 23.637-9.779 8.846-22.818 8.846-4.556 0-8.286-1.5-3.731-1.5-8.346-4.115Z"/></svg>