<svg xmlns="http://www.w3.org/2000/svg" height="20" viewBox="0 -960 960 960" width="20"><path d="M398-111.617q-33.692 0-59.807-21.576-26.115-21.577-32.961-55.269-5.538-27.077-24.116-42.116-18.577-15.039-42.116-15.039h-6.231q-3.462 0-6.615 1.385-42.769 8.077-76.653-19.961-33.884-28.038-33.884-71.422 0-35.461 22.076-60.692 22.077-25.23 56.384-32.076l112.462-19.154 142.616-205.539q4.616-6.924 3.846-13.847-.769-6.924-6.538-12.309-9.693-14.692-14.269-23.538-4.577-8.846-4.577-27.23 0-28.538 20.538-51.076t53.46-22.538q18 0 28.115 5.077 10.115 5.077 23.346 14.692 7.615 4.231 22.116 10.039 14.5 5.807 37.269 5.807.846-21.23 14.769-39.884t37.154-27.269q30.922-10.539 63.114 3.307 32.192 13.846 44.114 48.538l45.616 128.615q10.538 32.153-3.231 63.153-13.769 30.999-48.23 43.076-31 11.846-60.576-1.923-29.577-13.769-43.192-41.615h3.232q-5.77-.77-11.347 1.346-5.577 2.115-9.424 7.116L469.845-333.231l19.538 112.077q7.077 43.769-19.961 76.653-27.038 32.884-71.422 32.884Zm0-51.998q20 0 32-14.5T438-213l-20-113q-2-9 .5-18.5T426-362l183-262q6-9 15-14t20-6l-27-72q-29-.385-53.5-6.885T522-742q-6-5-12.192-6.808-6.193-1.807-11.193-1.807-8 0-13 4.307-5 4.308-5 12.308 0 6 4 14T499-702q7 8 10.5 16.692 3.5 8.693 3.5 17.693 0 8-2.192 14.807Q508.615-646 504-640L348-417q-5 8-14 13t-18 7l-113 20q-16.385 3.385-25.885 14.885t-9.5 26.5q0 18.615 15 31.307 15 12.693 34.385 8.308 6-1 11.5-1.308 5.5-.307 10.5-.307 22 0 41.5 7t35.5 21q16 14 26.5 31.307Q353-221 357-198q3 15.385 15 24.885 12 9.5 26 9.5Zm0 0q-14 0-26-9.5T357-198q-8-44.615-41-72.115-33-27.5-77-27.5-5 0-10.5.307Q223-297 217-296q-19.385 4.385-34.385-8.308-15-12.692-15-31.307 0-15 9.5-26.5T203-377l113-20q9-2 18-7t14-13l156-223q4.615-6 6.808-12.808Q513-659.615 513-667.615q0-9-3.5-17.693Q506-694 499-702q-10.385-10-14.385-18t-4-14q0-8 5-12.308 5-4.307 13-4.307 5 0 11.193 1.807Q516-747 522-742q17 12.615 41.5 19.115 24.5 6.5 53.5 6.885l27 72q-11 1-20 6t-15 14L426-362q-5 8-7.5 17.5T418-326l20 113q4 20.385-8 34.885-12 14.5-32 14.5Z"/></svg>