<svg xmlns="http://www.w3.org/2000/svg" height="20" viewBox="0 -960 960 960" width="20"><path d="M714.213-314.999H840.06q11.074 0 18.699 7.418 7.625 7.418 7.625 18.384 0 10.966-7.603 18.581-7.602 7.615-18.841 7.615h-70.173l98.309 98.309q8.308 8.212 8.308 18.029t-7.829 17.739q-8.401 8.308-19.029 8.116-10.628-.193-18.218-8.116l-97.309-97.309v69.213q0 11.222-7.418 18.813-7.418 7.591-18.384 7.591-10.966 0-18.581-7.492t-7.615-18.566v-125.847q0-13.69 9.261-23.084t22.951-9.394ZM548.001-805v115.999q0 13.6 9.2 22.8 9.2 9.2 22.8 9.2H696L548.001-805Zm-271.692-51.999h282.769q12.854 0 24.504 4.616 11.649 4.615 21.496 14.461l123.844 123.844q9.846 9.847 14.461 21.496 4.616 11.65 4.616 24.504v248.925q0 13.665-9.245 22.91-9.244 9.244-22.909 9.244h-73.691q-13.665 0-22.909 9.272-9.244 9.271-9.244 22.977v193.499q0 13.706-9.244 22.978-9.245 9.272-22.91 9.272H276.309q-27.008 0-45.658-18.65-18.65-18.65-18.65-45.658v-599.382q0-27.008 18.65-45.658 18.65-18.65 45.658-18.65Z"/></svg>