<svg xmlns="http://www.w3.org/2000/svg" height="20" viewBox="0 -960 960 960" width="20"><path d="M587.691-394.001q27.008 0 45.658-18.65 18.65-18.649 18.65-45.657v-55.384q0-27.008-18.65-45.657-18.65-18.65-45.658-18.65H483.999v-80.002h142q11.069 0 18.534-7.404 7.466-7.405 7.466-18.384 0-10.98-7.466-18.595-7.465-7.615-18.534-7.615H464.154q-13.762 0-22.958 9.196Q432-691.607 432-677.846v119.692q0 13.761 9.196 22.957 9.196 9.196 22.958 9.196h123.537q5.385 0 8.847 3.462 3.462 3.462 3.462 8.847v55.384q0 5.385-3.462 8.847-3.462 3.462-8.847 3.462H457.999q-11.069 0-18.534 7.404Q432-431.19 432-420.211q0 10.98 7.465 18.595 7.465 7.615 18.534 7.615h129.692Zm-273.383 134q-27.008 0-45.657-18.65-18.65-18.65-18.65-45.658v-455.382q0-27.008 18.65-45.658 18.649-18.65 45.657-18.65h455.383q27.007 0 45.657 18.65 18.65 18.65 18.65 45.658v455.382q0 27.008-18.65 45.658-18.65 18.65-45.657 18.65H314.308Zm0-51.999h455.383q4.615 0 8.462-3.846 3.846-3.847 3.846-8.463v-455.382q0-4.616-3.846-8.463-3.847-3.846-8.462-3.846H314.308q-4.616 0-8.462 3.846-3.847 3.847-3.847 8.463v455.382q0 4.616 3.847 8.463 3.846 3.846 8.462 3.846ZM190.309-136.003q-27.007 0-45.657-18.65-18.65-18.65-18.65-45.657v-481.382q0-11.069 7.405-18.534 7.404-7.465 18.384-7.465 10.979 0 18.595 7.465 7.615 7.465 7.615 18.534v481.382q0 4.616 3.846 8.462 3.847 3.847 8.462 3.847h481.382q11.069 0 18.534 7.404 7.466 7.405 7.466 18.384 0 10.98-7.466 18.595-7.465 7.615-18.534 7.615H190.309ZM301.999-792v480-480Z"/></svg>