<svg xmlns="http://www.w3.org/2000/svg" height="20" viewBox="0 -960 960 960" width="20"><path d="m288-634.847-121 121q-9.077 9.077-20.192 8.385-11.115-.693-19.808-9.385-9.076-9.077-8.884-20.692.192-11.615 9.269-20.307l30.385-30-18.692-18.692q-9.846-9.846-9.846-22.308 0-12.461 9.846-22.307l67.693-67.693L158.232-766q-8.308-8.307-8.5-18.076-.192-9.769 8.115-18.077 8.692-8.692 18.269-8.5 9.577.193 17.884 8.885l49.154 48.539 67.693-67.693q9.846-9.846 22.307-9.846 12.462 0 22.308 9.846l18.692 18.692 31-31.385q9.077-9.077 20.692-9.077T446.153-834q9.077 9.077 9.077 20.5t-9.077 20.5l-121 121L672-325.153l121-121q9.077-9.077 20.692-8.885 11.615.193 20.308 8.885 9.076 9.077 8.884 20.692-.192 11.615-9.269 20.307l-31.385 31 18.692 18.692q9.846 9.846 9.846 22.308 0 12.461-9.846 22.307l-67.693 67.693L801.768-194q8.308 8.307 8.5 18.076.192 9.769-8.115 18.077-8.692 8.692-18.269 8.5-9.577-.193-17.884-8.885l-49.154-48.539-67.693 67.693q-9.846 9.846-22.307 9.846-12.462 0-22.308-9.846l-18.692-18.692-31 31.385q-9.077 9.077-20.192 8.577T514.847-127q-9.077-9.077-9.077-20.5t9.077-20.5l120-120L288-634.847Z"/></svg>