<svg xmlns="http://www.w3.org/2000/svg" height="20" viewBox="0 -960 960 960" width="20"><path d="M605.154-449.616q.77 64.923-36.384 103.847-37.154 38.923-88.77 38.923-8.385 0-15.269-.692-6.885-.692-14.77-2.692-6.73-1.616-11.576-.116t-8.602 6.057q-6.244 6.751-3.886 15.198 2.357 8.448 10.796 11.321 9.846 4 21.048 5.808 11.203 1.808 22.451 1.808 67.808 0 115.808-50.577 48-50.578 44.846-131.116l21.385 18.616q6.462 4.461 12.961 4.269 6.5-.192 11.962-5.654 5.661-5.608 5.869-12.65.207-7.041-6.354-12.853l-44.362-40.111q-8.23-7.231-18.807-7.731-10.577-.5-19.258 7.717l-42.278 40.123q-6.194 5.814-6.194 12.621t6.461 13.269q5.462 5.461 12.269 4.961t13.269-4.961l17.385-15.385Zm-287 35.463-22.385-18.616q-6.462-4.461-12.961-4.769-6.5-.308-11.962 5.154-5.661 5.608-5.869 12.65-.207 7.041 6.254 12.503l44.462 41.461q8.23 8.231 18.807 8.231 10.577 0 18.807-8.231l43.512-40.111q6.411-5.812 6.411-12.619 0-6.807-6.461-13.269-5.462-5.461-12.269-4.961t-13.269 4.961l-17.385 15.385q-.77-58.923 36.384-100.347 37.154-41.423 90.232-41.423 7.564 0 15.128.692t15.564 2.692q4.769 2 10.038.5t9.025-6.441q6.244-6.751 4.629-15.712-1.616-8.961-9.654-11.807-10.731-3.231-21.854-4.923-11.123-1.693-22.871-1.693-68.467 0-116.967 53.077-48.5 53.078-45.346 127.616ZM180.309-164.001q-26.308 0-45.308-19t-19-45.308v-407.382q0-26.308 19-45.308t45.308-19h116.153l52.308-69.692q9.846-12.846 23.485-19.577 13.638-6.731 28.745-6.731h158.181q15.28 0 28.741 6.731 13.462 6.731 23.308 19.577l52.308 69.692h116.153q27.008 0 45.658 19 18.65 19 18.65 45.308v407.382q0 26.308-18.65 45.308t-45.658 19H180.309Zm0-51.999h599.382q5.385 0 8.847-3.462 3.462-3.462 3.462-8.847v-407.382q0-5.385-3.462-8.847-3.462-3.462-8.847-3.462H636.769l-72.483-96H395.615l-72.384 96H180.309q-5.385 0-8.847 3.462-3.462 3.462-3.462 8.847v407.382q0 5.385 3.462 8.847 3.462 3.462 8.847 3.462ZM480-433Z"/></svg>