<svg xmlns="http://www.w3.org/2000/svg" height="20" viewBox="0 -960 960 960" width="20"><path d="M132.309-168.617q-25.827 0-45.067-19.24-19.24-19.241-19.24-45.067v-415.537q0-11.049 7.418-18.524 7.418-7.475 18.384-7.475 10.966 0 18.581 7.475T120-648.461v415.537q0 5.385 3.462 8.846 3.462 3.462 8.847 3.462h589.69q11.05 0 18.525 7.418 7.475 7.419 7.475 18.385 0 10.965-7.475 18.581-7.475 7.615-18.525 7.615h-589.69Zm123.998-123.999q-25.827 0-45.067-19.24T192-356.923v-422.768q0-26.527 19.24-45.417 19.24-18.891 45.067-18.891h141.308q12.855 0 24.504 4.616 11.65 4.615 21.496 14.461l76.923 76.923h259.153q26.527 0 45.417 18.891 18.891 18.89 18.891 45.417v326.768q0 25.827-18.891 45.067-18.89 19.24-45.417 19.24H256.307Z"/></svg>