<svg xmlns="http://www.w3.org/2000/svg" height="20" viewBox="0 -960 960 960" width="20"><path d="M458.693-792v372q0 11.069-7.419 18.534-7.418 7.465-18.384 7.465-10.966 0-18.581-7.475-7.615-7.474-7.615-18.524v-161.385h-8.847q-54.999 0-92.961-38.154-37.961-38.153-37.961-93.153 0-54.999 37.961-93.153 37.962-38.154 92.464-38.154h227.048q11.077 0 18.569 7.419 7.493 7.418 7.493 18.384 0 10.966-7.475 18.765-7.475 7.8-18.524 7.8h-43.693V-420q0 11.05-7.418 18.524-7.418 7.475-18.384 7.475-10.966 0-18.582-7.475-7.615-7.474-7.615-18.524v-372h-70.076Zm237.001 574.537H190.001q-11.05 0-18.525-7.418-7.475-7.418-7.475-18.384 0-10.966 7.475-18.581t18.525-7.615h505.308l-46.232-46.232q-8.692-8.692-8.692-18.769 0-10.076 8.692-18.768t18.769-8.692q10.076 0 18.769 8.692l87.214 87.214q9.708 9.708 9.708 22.351 0 12.644-9.846 22.126l-87.076 87.461q-8.18 8.692-17.82 8.192-9.641-.5-18.333-9.192-8.692-8.692-8.692-18.576 0-9.885 8.692-18.577l45.232-45.232Z"/></svg>