<svg xmlns="http://www.w3.org/2000/svg" height="20" viewBox="0 -960 960 960" width="20"><path d="M790.155-212.001h-137.92q-11.038 0-18.483-7.405-7.444-7.405-7.444-18.384 0-10.98 7.444-18.595Q641.197-264 652.235-264H790.54l-49.175-49.174q-7.672-7.673-8.057-18.327-.385-10.653 7.923-19.054 7.923-7.83 18.576-7.445 10.654.385 18.452 8.182l89.634 89.635q9.721 9.721 9.721 22.364t-9.846 22.126l-89.769 89.769q-8.308 8.307-18.077 7.423-9.768-.885-17.691-8.808-8.308-8.307-8.308-18.192 0-9.884 8.308-18.192l47.924-48.308Zm-609.846 0q-26.623 0-45.465-18.854-18.843-18.855-18.843-45.494v-407.626q0-26.639 18.843-45.331 18.842-18.693 45.465-18.693h599.382q26.623 0 45.465 18.843 18.843 18.842 18.843 45.465V-402q-22.308-11.307-46.067-15.653-23.758-4.346-48.471-4.346-78.076 0-132.768 53.692-54.692 53.692-54.692 131.768v24.538H180.309ZM480-517 213.384-673.616q-14.384-7.923-27.769-.568-13.384 7.354-14.538 23.217-1.154 8.196 3.192 16.119t11.192 12.154l278.078 163.77q7.23 4.615 16.461 4.615 9.231 0 16.461-4.615l279.078-163.77q6.846-4.231 10.884-12.091 4.038-7.861 2.5-16.447-1.154-15.731-14.538-22.826-13.385-7.096-27.769.827L480-517Z"/></svg>