<svg xmlns="http://www.w3.org/2000/svg" height="20" viewBox="0 -960 960 960" width="20"><path d="M479.977-116.001q-65.746 0-123.225-24.87-57.479-24.869-100.246-67.635-42.766-42.767-67.635-100.246-24.87-57.479-24.87-123.248t24.87-123.248q24.869-57.479 67.635-100.246 42.767-42.766 100.246-67.635 57.479-24.87 123.248-24.87h11.616l-35.232-35.231q-8.692-8.692-8.692-18.935 0-10.244 8.692-18.218 7.923-7.923 18.192-7.73 10.269.192 18.576 8.115l74.692 75.307q10.231 10.23 10.231 22.307 0 12.077-10.231 22.308l-74.922 75.306q-7.923 8.308-17.692 8-9.769-.308-18.555-8.615-8.214-8.308-8.214-18.384 0-10.077 8.693-18.769L490.616-696H480q-110.314 0-187.157 76.778Q216-542.443 216-432.222 216-322 292.843-245 369.686-168 480-168q103.088 0 178.583-69.885 75.494-69.885 83.802-172.577 1.615-10.154 9.466-15.846Q759.703-432 770.428-432q10.725 0 18.148 7.313t6.192 17.994q-9.985 123.821-100.154 207.256-90.168 83.436-214.637 83.436Z"/></svg>