<svg xmlns="http://www.w3.org/2000/svg" height="20" viewBox="0 -960 960 960" width="20"><path d="M212.001-190.001v-94h-28.865q-10.961 0-18.585-7.419-7.625-7.418-7.625-18.384 0-10.966 7.475-18.581Q171.875-336 182.925-336h29.076v-162.078l-28.383 5.769q-11.294 3.078-17.416-7.769-6.122-10.846 3.878-19.23l288.624-251.087q9.835-7.834 21.26-7.834 11.426 0 21.343 7.846L789.92-519.308q10 8.384 3.878 19.23-6.122 10.847-17.416 7.769l-28.383-5.769V-336h29.076q11.05 0 18.524 7.418 7.475 7.418 7.475 18.384 0 10.966-7.187 18.581-7.187 7.616-17.812 7.616h-30.076v94q0 11.05-7.419 18.525-7.418 7.475-18.384 7.475-10.966 0-18.581-7.475T696-190.001v-94H505.999v94q0 11.05-7.418 18.525-7.418 7.475-18.384 7.475-10.966 0-18.581-7.475t-7.615-18.525v-94H264v94q0 11.05-7.418 18.525-7.418 7.475-18.384 7.475-10.966 0-18.581-7.475-7.616-7.475-7.616-18.525ZM264-336h190.001v-361.847L264-531v195Zm241.999 0H696v-195L505.999-696.847V-336Z"/></svg>