<svg xmlns="http://www.w3.org/2000/svg" height="20" viewBox="0 -960 960 960" width="20"><path d="M797.001-90.078 771.462-116H649.999q-11.069 0-18.534-7.405Q624-130.811 624-141.79q0-10.98 7.465-18.595Q638.93-168 649.999-168h69.465l-89.694-89.694H282.154q-13.761 0-22.957-9.135-9.196-9.136-9.196-22.808v-26.056q0-17.606 7.346-32.841t22.423-25.081q38.231-22.693 88.616-38.693 50.385-16 87.77-16.692h2.308L168-718.079v68.08q0 11.069-7.405 18.534Q153.191-624 142.211-624q-10.979 0-18.594-7.465-7.616-7.465-7.616-18.534v-120.463L98.694-788.77q-7.923-7.923-7.808-17.692.115-9.769 8.423-18.076 8.307-8.308 17.884-8.308t18.236 8.645l697.989 697.634q8.275 8.26 8.467 18.403.192 10.143-8.115 18.087-7.975 8.307-18.218 8.307t-18.551-8.308ZM843.999-310v92.769L792-269.231v-40.77q0-11.069 7.405-18.534Q806.809-336 817.789-336q10.979 0 18.594 7.465 7.616 7.465 7.616 18.534Zm-663.69 194q-26.308 0-45.308-19t-19-45.308v-129.692q0-11.069 7.405-18.534Q130.811-336 141.79-336q10.98 0 18.595 7.465Q168-321.07 168-310.001v129.692q0 4.616 3.846 8.463 3.847 3.846 8.463 3.846h129.692q11.069 0 18.534 7.405Q336-153.191 336-142.211q0 10.979-7.465 18.594-7.465 7.616-18.534 7.616H180.309ZM792-649.999v-129.692q0-4.616-3.846-8.463-3.847-3.846-8.463-3.846H649.999q-11.069 0-18.534-7.405Q624-806.809 624-817.789q0-10.979 7.465-18.594 7.465-7.616 18.534-7.616h129.692q26.308 0 45.308 19t19 45.308v129.692q0 11.069-7.405 18.534Q829.189-624 818.21-624q-10.98 0-18.595-7.465Q792-638.93 792-649.999Zm-574.768-194h92.769q11.069 0 18.534 7.405Q336-829.189 336-818.21q0 10.98-7.465 18.595Q321.07-792 310.001-792h-40.77l-51.999-51.999Zm372.767 251.692q0 25.538-10.577 46.346-10.576 20.807-28.268 35.884L397.77-663.461q15.077-17.692 35.884-28.269 20.808-10.576 46.346-10.576 45.384 0 77.692 32.307 32.307 32.308 32.307 77.692Z"/></svg>