<svg xmlns="http://www.w3.org/2000/svg" height="20" viewBox="0 -960 960 960" width="20"><path d="M139.443-787.384q-11.941 0-20.23-8.078-8.288-8.078-8.288-20.019 0-11.941 8.078-20.229 8.078-8.289 20.019-8.289 11.941 0 20.229 8.078 8.288 8.078 8.288 20.019 0 11.941-8.077 20.229-8.078 8.289-20.019 8.289Zm136.307 0q-11.941 0-20.23-8.078-8.288-8.078-8.288-20.019 0-11.941 8.078-20.229 8.078-8.289 20.019-8.289 11.941 0 20.229 8.078 8.288 8.078 8.288 20.019 0 11.941-8.077 20.229-8.078 8.289-20.019 8.289Zm136.307 0q-11.941 0-20.229-8.078-8.289-8.078-8.289-20.019 0-11.941 8.078-20.229 8.078-8.289 20.019-8.289 11.941 0 20.229 8.078 8.289 8.078 8.289 20.019 0 11.941-8.078 20.229-8.078 8.289-20.019 8.289Zm136.307 0q-11.941 0-20.229-8.078-8.289-8.078-8.289-20.019 0-11.941 8.078-20.229 8.078-8.289 20.019-8.289 11.941 0 20.229 8.078 8.289 8.078 8.289 20.019 0 11.941-8.078 20.229-8.078 8.289-20.019 8.289Zm136.307 0q-11.941 0-20.229-8.078-8.288-8.078-8.288-20.019 0-11.941 8.077-20.229 8.078-8.289 20.019-8.289 11.941 0 20.229 8.078 8.289 8.078 8.289 20.019 0 11.941-8.078 20.229-8.078 8.289-20.019 8.289Zm136.307 0q-11.941 0-20.229-8.078-8.288-8.078-8.288-20.019 0-11.941 8.077-20.229 8.078-8.289 20.019-8.289 11.941 0 20.23 8.078 8.288 8.078 8.288 20.019 0 11.941-8.078 20.229-8.078 8.289-20.019 8.289ZM139.443-651.077q-11.941 0-20.23-8.078-8.288-8.078-8.288-20.019 0-11.941 8.078-20.229 8.078-8.288 20.019-8.288 11.941 0 20.229 8.077 8.288 8.078 8.288 20.019 0 11.941-8.077 20.23-8.078 8.288-20.019 8.288Zm0 136.307q-11.941 0-20.23-8.078-8.288-8.078-8.288-20.019 0-11.941 8.078-20.229 8.078-8.288 20.019-8.288 11.941 0 20.229 8.077 8.288 8.078 8.288 20.019 0 11.941-8.077 20.23-8.078 8.288-20.019 8.288Zm136.307 0q-11.941 0-20.23-8.078-8.288-8.078-8.288-20.019 0-11.941 8.078-20.229 8.078-8.288 20.019-8.288 11.941 0 20.229 8.077 8.288 8.078 8.288 20.019 0 11.941-8.077 20.23-8.078 8.288-20.019 8.288Zm408.921 0q-11.941 0-20.229-8.078-8.288-8.078-8.288-20.019 0-11.941 8.077-20.229 8.078-8.288 20.019-8.288 11.941 0 20.229 8.077 8.289 8.078 8.289 20.019 0 11.941-8.078 20.23-8.078 8.288-20.019 8.288Zm136.307 0q-11.941 0-20.229-8.078-8.288-8.078-8.288-20.019 0-11.941 8.077-20.229 8.078-8.288 20.019-8.288 11.941 0 20.23 8.077 8.288 8.078 8.288 20.019 0 11.941-8.078 20.23-8.078 8.288-20.019 8.288Zm0-136.307q-11.941 0-20.229-8.078-8.288-8.078-8.288-20.019 0-11.941 8.077-20.229 8.078-8.288 20.019-8.288 11.941 0 20.23 8.077 8.288 8.078 8.288 20.019 0 11.941-8.078 20.23-8.078 8.288-20.019 8.288ZM595.076-130.385H429.769h165.307ZM434.864-78.387q-19.9 0-37.844-7.73-17.943-7.731-31.791-21.518L201.155-271.07q-11.077-11.008-6.038-26.892 5.038-15.885 17.115-27.962 8.692-8.692 18.346-10.845 9.653-2.154 20.191 1.076l92.155 21.231V-636q0-11.05 7.418-18.524 7.418-7.475 18.384-7.475 10.966 0 18.581 7.475 7.615 7.474 7.615 18.524v347.767q0 15.693-12.461 25.923-12.462 10.231-27.154 5.616l-88.155-22.616 134.463 135.232q6.538 6.539 14.769 10.116t18.859 3.577h159.833q39.265 0 66.633-27.368 27.367-27.367 27.367-66.633v-175.46q0-11.05 7.419-18.525 7.418-7.475 18.384-7.475 10.966 0 18.581 7.475t7.615 18.525v175.46q0 61.153-42.423 103.576-42.423 42.423-103.576 42.423H434.864ZM484.11-537.23q10.966 0 18.581 7.474 7.615 7.475 7.615 18.525v130.385q0 11.05-7.418 18.525-7.418 7.474-18.384 7.474-10.966 0-18.581-7.474-7.615-7.475-7.615-18.525v-130.385q0-11.05 7.418-18.525 7.418-7.474 18.384-7.474Zm115.384 55.692q10.966 0 18.582 7.45 7.615 7.45 7.615 18.462v74.517q0 11.013-7.418 18.638-7.419 7.624-18.385 7.624-10.966 0-18.581-7.449-7.615-7.45-7.615-18.462v-74.518q0-11.012 7.418-18.637t18.384-7.625Z"/></svg>