<svg xmlns="http://www.w3.org/2000/svg" height="20" viewBox="0 -960 960 960" width="20"><path d="M209.694-150.345v-107.31q0-13.952 9.244-23.148t22.909-9.196h11.692q13.665 0 22.909 9.196t9.244 23.148v107.31q0 13.952-9.244 23.148t-22.909 9.196h-11.692q-13.665 0-22.909-9.196t-9.244-23.148Zm166.461 6.295v-417.952q-45.077 22.154-77.193 59-32.116 36.847-41.809 90.847-1.527 11.047-9.82 16.754-8.294 5.707-18.66 5.707-11.057 0-18.288-7.505-7.23-7.505-5.615-18.186 12.154-87.846 75.077-149.999Q342.77-627.538 430-627.538h74q75.231 0 131.116-39.615 55.885-39.615 68.269-111.461 1.616-9.769 10.244-17.654 8.629-7.884 18.884-7.884 10.256 0 17.871 7.245 7.615 7.244 6 17.293-8.615 74.384-56.423 124.73-47.808 50.346-116.116 69.038v442.065q0 10.531-7.418 18.155-7.418 7.625-18.384 7.625-10.966 0-18.581-7.475-7.616-7.474-7.616-18.524v-211.693H428.154V-144q0 11.05-7.419 18.524-7.418 7.475-18.384 7.475-10.966 0-18.581-7.489t-7.615-18.56Zm103.597-556.566q-32.444 0-55.021-22.824-22.577-22.825-22.577-55.269 0-32.445 22.825-55.021 22.824-22.577 55.269-22.577 32.444 0 55.021 22.824 22.577 22.825 22.577 55.269 0 32.445-22.825 55.021-22.824 22.577-55.269 22.577Z"/></svg>