<svg xmlns="http://www.w3.org/2000/svg" height="20" viewBox="0 -960 960 960" width="20"><path d="M586.251-223.693q12.903 0 22.249-9.135 9.346-9.136 9.346-22.039 0-12.902-9.136-22.248-9.135-9.346-22.038-9.346t-22.249 9.135q-9.346 9.136-9.346 22.038 0 12.903 9.136 22.249 9.135 9.346 22.038 9.346Zm94.461 0q12.903 0 22.249-9.135 9.346-9.136 9.346-22.039 0-12.902-9.135-22.248-9.136-9.346-22.039-9.346-12.902 0-22.248 9.135-9.346 9.136-9.346 22.038 0 12.903 9.135 22.249 9.136 9.346 22.038 9.346ZM164.001-421.999v-357.692q0-27.308 18.65-45.808t45.658-18.5h503.382q27.008 0 45.658 18.65 18.65 18.65 18.65 45.658v357.692H164.001Zm64.308 305.998q-27.008 0-45.658-18.65-18.65-18.65-18.65-45.658v-189.692h631.998v189.692q0 27.008-18.65 45.658-18.65 18.65-45.658 18.65H228.309Z"/></svg>