<svg xmlns="http://www.w3.org/2000/svg" height="20" viewBox="0 -960 960 960" width="20"><path d="M795.999-262.924 744-314.923v-96.154h-63.23q-4.231 0-7.308 9.154t-4.231 12.616l-43.384-43.384q10.616-14.385 24.654-22.385 14.038-8 30.734-8H744V-528q0-109.231-77-186.615Q590-792 480-792q-43 0-84.154 13.577-41.154 13.577-75.154 39.962l-37.383-37.153q39.23-31.769 90.23-50.077 51-18.308 106.327-18.308 66.288 0 123.633 24.962 57.346 24.961 100.176 67.884 42.83 42.923 67.577 100.244T795.999-528v265.076Zm-290 158.614q-11.069 0-18.534-7.405Q480-119.119 480-130.099q0-10.979 7.465-18.594 7.465-7.616 18.534-7.616h211.078q2.308 0 4.616-.769t4.231-2.692l-53.231-52.231h-2.923q-26.623 0-45.465-18.843-18.842-18.842-18.842-45.465v-3.922L242.847-642.848q-13.462 25.308-20.154 55.27Q216-557.616 216-528v64.924h85.23q26.623 0 45.465 18.782 18.842 18.782 18.842 45.32v122.05q0 26.538-18.692 45.23-18.692 18.693-45.615 19.693h-72.921q-27.008 0-45.658-18.716-18.65-18.715-18.65-45.814V-517q0-43.154 9.539-85.5t30.693-79.577L76.923-808.386q-7.922-7.923-8.307-18.384-.385-10.461 7.923-19.247 8.307-8.214 19.076-8.022 10.769.193 19.077 8.5l720.232 720.847q8.307 8.308 8.499 18.743.193 10.436-8.499 18.41-7.308 8.308-17.769 7.923-10.461-.385-20.165-10.23l-27.694-27.695q-8.912 6.538-19.258 9.885-10.347 3.346-19.347 3.346H505.999ZM228.309-264h72.921q5.385 0 8.847-3.462 3.462-3.462 3.462-8.847v-122.46q0-5.385-3.462-8.846-3.462-3.462-8.847-3.462H216v134.768q0 5.385 3.462 8.847 3.462 3.462 8.847 3.462Zm0-147.077H216h97.539-85.23Zm440.922 0H744 669.231Z"/></svg>