<svg xmlns="http://www.w3.org/2000/svg" height="20" viewBox="0 -960 960 960" width="20"><path d="M442.001-466.001v78.616q0 7.769 4.807 12.577 4.808 4.807 12.577 4.807h41.23q9.154 0 13.269-4.807 4.115-4.808 4.115-12.577v-78.616h78.616q9.154 0 13.269-4.807 4.115-4.808 4.115-12.577v-41.23q0-9.154-4.115-13.269t-13.269-4.115h-78.616v-78.616q0-9.154-4.115-13.269t-13.269-4.115h-41.23q-7.769 0-12.577 4.115-4.807 4.115-4.807 13.269v78.616h-78.616q-7.769 0-12.577 4.115-4.807 4.115-4.807 13.269v41.23q0 7.769 4.807 12.577 4.808 4.807 12.577 4.807h78.616ZM480-121.155q-5.231 0-11.231-.5t-10.615-2.5q-122.538-43-196.345-152.077Q188.001-385.308 188.001-515v-171.153q0-20.692 11.154-36.961 11.154-16.27 29.846-23.5l227.692-87q11.846-4.615 23.307-4.615 11.461 0 23.307 4.615l227.692 87q18.692 7.23 29.846 23.5 11.154 16.269 11.154 36.961V-515q0 129.692-73.808 238.768-73.807 109.077-196.345 152.077-4.615 2-10.615 2.5t-11.231.5Z"/></svg>