<svg xmlns="http://www.w3.org/2000/svg" height="20" viewBox="0 -960 960 960" width="20"><path d="m751.078-142.001-53.155-52.539q-47.233 34.692-102.617 53.615-55.383 18.924-114.815 18.924-75.403 0-141.722-28.425-66.318-28.425-116.118-78.225t-78.225-116.118q-28.425-66.319-28.425-141.722 0-59.432 18.924-114.815 18.923-55.384 53.615-102.617l-53.154-54.155q-7.923-7.922-8.115-17.691-.192-9.769 8.115-18.077 8.308-8.307 18.551-8.307 10.243 0 18.217 8.307l615.611 615.611q8.004 8.004 8.196 18.147.192 10.143-8.115 18.087-7.974 8.307-18.218 8.307-10.243 0-18.55-8.307ZM480-174q49.848 0 95.424-15.462 45.577-15.462 84.116-43.462L226.924-665.54q-28 38.539-43.462 84.116Q168-535.848 168-486q0 129.675 91.163 220.837Q350.325-174 480-174Zm303.384-110.847-38.769-37.768q22-36.231 34.693-77.577Q792-441.537 792-486q0-129.675-91.162-220.838Q609.675-798 480-798q-43.769 0-85.462 12.192-41.692 12.193-77.923 34.193l-38.768-37.769q45.207-29.389 96.411-45.002 51.204-15.613 105.644-15.613 75.948 0 141.797 28.425 65.85 28.425 115.65 78.225 49.8 49.8 78.225 115.65 28.425 65.849 28.425 141.797 0 54.44-15.613 105.297t-45.002 95.758ZM535.615-535.615Zm-89.383 89.383Z"/></svg>