<svg xmlns="http://www.w3.org/2000/svg" height="20" viewBox="0 -960 960 960" width="20"><path d="M795.999-266.001 266.001-795.999h465.69q26.308 0 45.308 19t19 45.308v465.69Zm-567.69 102q-26.308 0-45.308-19t-19-45.308v-493.384l-42.077-42.078q-8.308-8.307-8.5-18.384-.193-10.076 8.5-18.769 8.692-8.692 18.576-8.692t18.576 8.692l641.848 641.848q8.307 8.307 8.499 17.884.193 9.576-8.499 18.268-8.693 8.693-18.577 8.693-9.884 0-18.576-8.693l-42.078-41.077H228.309Zm359.769-134-97-98-47.847 60.77-49.538-61.999q-4.615-6.846-12.269-6.846t-12.269 7.231l-55.076 72.921q-6.231 8.231-2 17.077 4.231 8.846 14.077 8.846h261.922Z"/></svg>