<svg xmlns="http://www.w3.org/2000/svg" height="20" viewBox="0 -960 960 960" width="20"><path d="M209.386-164.001q-18.538 0-31.577-12.991-13.038-12.99-13.038-31.548v-70.538L299.539-395v230.999h-90.153Zm135.076 0V-298.77h271.076v134.769H344.462Zm315.999 0V-454.34L514.692-578.692l103.077-88.845 161.614 137.383q7.231 6.616 11.539 15.537 4.307 8.921 4.307 19.005v286.974q0 18.56-12.99 31.598-12.99 13.039-31.548 13.039h-90.23Zm-495.69-175.23v-156.122q0-9.768 4.307-18.784 4.308-9.017 11.539-16.017l270.691-230.614q7-5.615 14.062-8.423 7.063-2.808 14.462-2.808t14.629 2.808q7.231 2.808 14.231 7.423l74.384 64.154-418.305 358.383Z"/></svg>