<svg xmlns="http://www.w3.org/2000/svg" height="20" viewBox="0 -960 960 960" width="20"><path d="M173-336h429.308v-127.693H257.734q-34.988 0-59.861 26.808Q173-410.077 173-375.895V-336Zm429.308 0V-463.693-336Zm204.845-339.999q11.05 0 18.525 7.419 7.474 7.418 7.474 18.384 0 10.966-7.474 18.581Q818.203-624 807.153-624q-14.941 0-25.048 9.977-10.106 9.977-10.106 24.024v157.23q0 35.833-25.532 60.916t-62.006 25.083h-25.154v30.615q0 13.665-9.244 22.909-9.245 9.245-22.91 9.245H148.155q-13.665 0-22.909-9.245-9.245-9.244-9.245-22.909v-69.384q0-54.288 38.346-92.22t93.731-37.932h359.23v-50.308q-1-13.847-10.819-23.924Q586.669-600 572.154-600h-171.23q-6.997 0-13.558 2.619-6.56 2.618-11.519 7.074-3.761 3.95-7.902 6.321-4.141 2.371-10.158 2.371-11.086 0-18.551-7.736-7.465-7.735-7.465-18.948 0-5.277 1.766-10.152 1.765-4.875 5.542-8.625 11.769-11.505 27.602-18.214 15.833-6.709 34.243-6.709h171.23q36.121 0 61.137 25.084 25.016 25.083 26.016 60.916v167.23h25.154q14.815 0 25.177-9.977T720-432.769v-157.23q0-35.833 25.307-60.916 25.308-25.084 61.846-25.084Z"/></svg>