<svg xmlns="http://www.w3.org/2000/svg" height="20" viewBox="0 -960 960 960" width="20"><path d="M295.711-55.693q-7.726 0-12.795-5.056t-5.069-12.79v-136.155h-30.154q-36.12 0-61.06-24.868-24.939-24.868-24.939-60.884 0-36.016 24.939-61.131 24.94-25.115 61.06-25.115h30.154v-60.309h-84q-13.665 0-22.909-9.2-9.244-9.201-9.244-22.801v-108.005q0-13.6 9.244-22.796t22.909-9.196h84v-60.309h-30.154q-36.12 0-61.06-24.868-24.939-24.868-24.939-60.884 0-36.016 24.939-61.131 24.94-25.115 61.06-25.115h30.154v-40.155q0-7.734 5.051-12.79 5.052-5.056 12.777-5.056t12.794 5.056q5.07 5.056 5.07 12.79v40.155h30.154q36.12 0 61.059 24.868 24.94 24.868 24.94 60.884 0 36.016-24.94 61.131-24.939 25.115-61.059 25.115h-30.154v60.309h84q13.665 0 22.909 9.2 9.244 9.201 9.244 22.801v108.005q0 13.6-9.244 22.796t-22.909 9.196h-84v60.309h30.154q36.12 0 61.059 24.868 24.94 24.868 24.94 60.884 0 36.016-24.94 61.131-24.939 25.115-61.059 25.115h-30.154v136.155q0 7.734-5.052 12.79-5.051 5.056-12.776 5.056Zm368.614 0q-7.725 0-12.794-5.056-5.07-5.056-5.07-12.79v-136.155h-30.154q-36.12 0-61.059-24.868-24.94-24.868-24.94-60.884 0-36.016 24.94-61.131 24.939-25.115 61.059-25.115h30.154v-60.309h-84q-13.665 0-22.909-9.2-9.244-9.201-9.244-22.801v-108.005q0-13.6 9.244-22.796t22.909-9.196h84v-60.309h-30.154q-36.12 0-61.059-24.868-24.94-24.868-24.94-60.884 0-36.016 24.94-61.131 24.939-25.115 61.059-25.115h30.154v-40.155q0-7.734 5.052-12.79 5.051-5.056 12.776-5.056 7.726 0 12.795 5.056t5.069 12.79v40.155h30.154q36.12 0 61.06 24.868 24.939 24.868 24.939 60.884 0 36.016-24.939 61.131-24.94 25.115-61.06 25.115h-30.154v60.309h84q13.665 0 22.909 9.2 9.244 9.201 9.244 22.801v108.005q0 13.6-9.244 22.796t-22.909 9.196h-84v60.309h30.154q36.12 0 61.06 24.868 24.939 24.868 24.939 60.884 0 36.016-24.939 61.131-24.94 25.115-61.06 25.115h-30.154v136.155q0 7.734-5.051 12.79-5.052 5.056-12.777 5.056ZM247.693-726.306h96q13.831 0 23.916-10.085t10.085-23.916q0-13.831-10.085-23.916t-23.916-10.085h-96q-13.831 0-23.916 10.085t-10.085 23.916q0 13.831 10.085 23.916t23.916 10.085Zm368.614 0h96q13.831 0 23.916-10.085t10.085-23.916q0-13.831-10.085-23.916t-23.916-10.085h-96q-13.831 0-23.916 10.085t-10.085 23.916q0 13.831 10.085 23.916t23.916 10.085ZM213.692-493.999h164.002v-68.002H213.692v68.002Zm368.614 0h164.002v-68.002H582.306v68.002ZM247.693-261.692h96q13.831 0 23.916-10.085t10.085-23.916q0-13.831-10.085-23.916t-23.916-10.085h-96q-13.831 0-23.916 10.085t-10.085 23.916q0 13.831 10.085 23.916t23.916 10.085Zm368.614 0h96q13.831 0 23.916-10.085t10.085-23.916q0-13.831-10.085-23.916t-23.916-10.085h-96q-13.831 0-23.916 10.085t-10.085 23.916q0 13.831 10.085 23.916t23.916 10.085ZM213.692-726.306V-794.308-726.306Zm368.614 0V-794.308-726.306ZM213.692-493.999v-68.002 68.002Zm368.614 0v-68.002 68.002ZM213.692-261.692V-329.694-261.692Zm368.614 0V-329.694-261.692Z"/></svg>