<svg xmlns="http://www.w3.org/2000/svg" height="20" viewBox="0 -960 960 960" width="20"><path d="m467.815-83.264-85.429-85.429q-6.846-6.846-3.257-17.384 3.59-10.539 13.718-10.539h174.306q10.128 0 13.718 10.539 3.589 10.538-3.257 17.384l-85.429 85.43Q487.231-78.31 480-78.31q-7.231 0-12.185-4.955ZM180.309-284q-27.008 0-45.658-18.65-18.65-18.65-18.65-45.658v-383.382q0-27.008 18.65-45.658 18.65-18.65 45.658-18.65h599.382q27.008 0 45.658 18.65 18.65 18.65 18.65 45.658v383.382q0 27.008-18.65 45.658-18.65 18.65-45.658 18.65H180.309ZM371.96-388.616h215.757q12.975 0 22.321-8.943 9.346-8.943 9.346-22.23 0-12.903-9.184-22.249-9.185-9.346-22.16-9.346H372.283q-12.975 0-22.321 8.943-9.346 8.943-9.346 22.23 0 12.903 9.184 22.249 9.185 9.346 22.16 9.346Zm-120.171-240q12.903 0 22.249-9.135 9.346-9.136 9.346-22.038 0-12.903-9.135-22.249-9.136-9.346-22.038-9.346-12.903 0-22.249 9.135-9.346 9.136-9.346 22.038 0 12.903 9.135 22.249 9.136 9.346 22.038 9.346Zm114 0q12.903 0 22.249-9.135 9.346-9.136 9.346-22.038 0-12.903-9.135-22.249-9.136-9.346-22.038-9.346-12.903 0-22.249 9.135-9.346 9.136-9.346 22.038 0 12.903 9.135 22.249 9.136 9.346 22.038 9.346Zm114 0q12.903 0 22.249-9.135 9.346-9.136 9.346-22.038 0-12.903-9.135-22.249-9.136-9.346-22.038-9.346-12.903 0-22.249 9.135-9.346 9.136-9.346 22.038 0 12.903 9.135 22.249 9.136 9.346 22.038 9.346Zm114 0q12.903 0 22.249-9.135 9.346-9.136 9.346-22.038 0-12.903-9.135-22.249-9.136-9.346-22.038-9.346-12.903 0-22.249 9.135-9.346 9.136-9.346 22.038 0 12.903 9.135 22.249 9.136 9.346 22.038 9.346Zm114 0q12.903 0 22.249-9.135 9.346-9.136 9.346-22.038 0-12.903-9.135-22.249-9.136-9.346-22.038-9.346-12.903 0-22.249 9.135-9.346 9.136-9.346 22.038 0 12.903 9.135 22.249 9.136 9.346 22.038 9.346Zm-456 120q12.903 0 22.249-9.135 9.346-9.136 9.346-22.038 0-12.903-9.135-22.249-9.136-9.346-22.038-9.346-12.903 0-22.249 9.135-9.346 9.136-9.346 22.038 0 12.903 9.135 22.249 9.136 9.346 22.038 9.346Zm114 0q12.903 0 22.249-9.135 9.346-9.136 9.346-22.038 0-12.903-9.135-22.249-9.136-9.346-22.038-9.346-12.903 0-22.249 9.135-9.346 9.136-9.346 22.038 0 12.903 9.135 22.249 9.136 9.346 22.038 9.346Zm114 0q12.903 0 22.249-9.135 9.346-9.136 9.346-22.038 0-12.903-9.135-22.249-9.136-9.346-22.038-9.346-12.903 0-22.249 9.135-9.346 9.136-9.346 22.038 0 12.903 9.135 22.249 9.136 9.346 22.038 9.346Zm114 0q12.903 0 22.249-9.135 9.346-9.136 9.346-22.038 0-12.903-9.135-22.249-9.136-9.346-22.038-9.346-12.903 0-22.249 9.135-9.346 9.136-9.346 22.038 0 12.903 9.135 22.249 9.136 9.346 22.038 9.346Zm114 0q12.903 0 22.249-9.135 9.346-9.136 9.346-22.038 0-12.903-9.135-22.249-9.136-9.346-22.038-9.346-12.903 0-22.249 9.135-9.346 9.136-9.346 22.038 0 12.903 9.135 22.249 9.136 9.346 22.038 9.346Z"/></svg>