<svg xmlns="http://www.w3.org/2000/svg" height="20" viewBox="0 -960 960 960" width="20"><path d="M743.694-224.001h-137.92q-11.039 0-18.483-7.405-7.445-7.405-7.445-18.384 0-10.98 7.445-18.595Q594.735-276 605.774-276h137.92l-48.54-48.924q-8.308-8.308-7.808-18.769.5-10.461 8.423-18.384 8.308-8.308 18.577-8.308 10.269 0 18.576 8.308l88.626 89.907q9.604 9.708 9.604 22.351 0 12.643-9.846 22.126l-89.384 89.769q-8.307 8.307-18.269 7.423-9.961-.885-17.884-8.808-8.307-8.307-8.307-18.384t8.307-18.384l47.925-47.924ZM275.789-556.616q12.903 0 22.249-9.135 9.346-9.136 9.346-22.038 0-12.903-9.135-22.249-9.136-9.346-22.038-9.346-12.903 0-22.249 9.135-9.346 9.136-9.346 22.038 0 12.903 9.135 22.249 9.136 9.346 22.038 9.346Zm102 0q12.903 0 22.249-9.135 9.346-9.136 9.346-22.038 0-12.903-9.135-22.249-9.136-9.346-22.038-9.346-12.903 0-22.249 9.135-9.346 9.136-9.346 22.038 0 12.903 9.135 22.249 9.136 9.346 22.038 9.346Zm102 0q12.903 0 22.249-9.135 9.346-9.136 9.346-22.038 0-12.903-9.135-22.249-9.136-9.346-22.038-9.346-12.903 0-22.249 9.135-9.346 9.136-9.346 22.038 0 12.903 9.135 22.249 9.136 9.346 22.038 9.346Zm102 0q12.903 0 22.249-9.135 9.346-9.136 9.346-22.038 0-12.903-9.135-22.249-9.136-9.346-22.038-9.346-12.903 0-22.249 9.135-9.346 9.136-9.346 22.038 0 12.903 9.135 22.249 9.136 9.346 22.038 9.346Zm102 0q12.903 0 22.249-9.135 9.346-9.136 9.346-22.038 0-12.903-9.135-22.249-9.136-9.346-22.038-9.346-12.903 0-22.249 9.135-9.346 9.136-9.346 22.038 0 12.903 9.135 22.249 9.136 9.346 22.038 9.346Zm-408 96q12.903 0 22.249-9.135 9.346-9.136 9.346-22.038 0-12.903-9.135-22.249-9.136-9.346-22.038-9.346-12.903 0-22.249 9.135-9.346 9.136-9.346 22.038 0 12.903 9.135 22.249 9.136 9.346 22.038 9.346Zm102 0q12.903 0 22.249-9.135 9.346-9.136 9.346-22.038 0-12.903-9.135-22.249-9.136-9.346-22.038-9.346-12.903 0-22.249 9.135-9.346 9.136-9.346 22.038 0 12.903 9.135 22.249 9.136 9.346 22.038 9.346Zm102 0q12.903 0 22.249-9.135 9.346-9.136 9.346-22.038 0-12.903-9.135-22.249-9.136-9.346-22.038-9.346-12.903 0-22.249 9.135-9.346 9.136-9.346 22.038 0 12.903 9.135 22.249 9.136 9.346 22.038 9.346ZM582-523.384q-12.992 0-22.188 9.196-9.196 9.196-9.196 22.188 0 12.692 8.961 21.461 8.962 8.769 21.269 9.154 14.615.385 24.538-9.731 9.923-10.115 9.154-25.115-1.154-6.846-4.538-11.115-3.385-4.269-8-8.115-4.616-3.846-9.341-5.885-4.725-2.038-10.659-2.038ZM481.846-224.001H180.309q-27.008 0-45.658-18.65-18.65-18.65-18.65-45.658v-383.382q0-27.008 18.65-45.658 18.65-18.65 45.658-18.65h599.382q27.008 0 45.658 18.65 18.65 18.65 18.65 45.658v225.998q-29.923-20.769-62.577-29.269-32.653-8.5-69.038-6.5 2-2.615 2.5-5.731.5-3.115.5-6.73-.769-12.608-9.712-21.035-8.943-8.426-21.461-8.426-12.134 0-20.903 8.042-8.769 8.042-9.923 19.88-.385 5.616 1.615 10.231t4.616 9.231q-39.616 7.461-73.539 29.654-33.924 22.192-57.693 54.962H372.396q-13.16 0-22.47 8.943-9.31 8.943-9.31 22.23 0 12.903 9.196 22.249 9.196 9.346 22.188 9.346h121.846q-7.308 18.796-10.577 38.45Q480-270.512 480-250.001q0 6.308.308 12.652.307 6.345 1.538 13.348Z"/></svg>