<svg xmlns="http://www.w3.org/2000/svg" height="20" viewBox="0 -960 960 960" width="20"><path d="M336-127.156q-63.016 0-107.43-44.415-44.415-44.414-44.415-107.43v-381.308q-26.923 0-45.615-18.926-18.692-18.927-18.692-45.505v-59.047q0-26.578 18.89-45.318t45.417-18.74h303.69q26.527 0 45.417 18.927t18.89 45.504v59.047q0 26.578-18.89 45.318t-45.417 18.74v186.234q-19.922 13.076-36.768 29.46-16.845 16.384-29.537 35.613H372q-11.05 0-18.524-7.418-7.475-7.418-7.475-18.384 0-10.966 7.475-18.581Q360.95-461 372-461h63.846v-68.002H372q-11.05 0-18.524-7.418-7.475-7.418-7.475-18.384 0-10.966 7.475-18.581Q360.95-581 372-581h63.846v-79.309H236.154v381.308q0 41.603 29.077 70.724 29.077 29.122 70.615 29.122 21.173 0 38.625-7.884 17.452-7.885 30.837-20.885 5.802 12.467 12.054 24.387 6.253 11.92 14.022 22.458-20.077 15.846-43.947 24.884-23.869 9.039-51.437 9.039Zm53.462-161.846H372q-11.05 0-18.524-7.418-7.475-7.418-7.475-18.384 0-10.966 7.475-18.581Q360.95-341 372-341h24.539q-3.615 12.999-5.385 25.807-1.769 12.807-1.692 26.191Zm234.313 103.156q42.533 0 72.456-29.698 29.923-29.697 29.923-72.231 0-42.533-29.698-72.456-29.697-29.923-72.231-29.923-42.533 0-72.456 29.698-29.923 29.697-29.923 72.231 0 42.533 29.698 72.456 29.697 29.923 72.231 29.923Zm-.008 51.999q-64.133 0-109.027-44.961Q469.847-223.77 469.847-288q0-64.23 44.961-109.192Q559.77-442.153 624-442.153q64.23 0 109.192 44.893 44.961 44.894 44.961 109.027 0 23.963-7.077 47.213-7.077 23.251-20.846 42.481l81.846 81.463q8.308 8.273 8.308 18.059 0 9.786-8.28 18.093-8.28 8.308-18.577 8.308-10.296 0-18.603-8.308l-81.463-80.846q-19.23 13.769-42.481 20.846-23.25 7.077-47.213 7.077Z"/></svg>