<svg xmlns="http://www.w3.org/2000/svg" height="20" viewBox="0 -960 960 960" width="20"><path d="M579.999-349.999h149.769q5.385 0 8.847-3.462 3.462-3.462 3.462-8.847v-79.384q0-5.385-3.462-8.847-3.462-3.462-8.847-3.462H579.999v104.002Zm0-156h149.769q5.385 0 8.847-3.462 3.462-3.462 3.462-8.847v-79.384q0-5.385-3.462-8.847-3.462-3.462-8.847-3.462H579.999v104.002ZM229.968-298.001q-26.659 0-45.351-18.842t-18.692-45.465v-235.384q0-26.623 18.818-45.465 18.818-18.842 45.408-18.842h172.874q11.052 0 18.667 7.404 7.615 7.405 7.615 18.384 0 10.98-7.465 18.595-7.465 7.615-18.534 7.615H230.232q-5.385 0-8.847 3.462-3.462 3.462-3.462 8.847v235.384q0 5.385 3.462 8.847 3.462 3.462 8.847 3.462h137.461q5.385 0 8.847-3.462 3.461-3.462 3.461-8.847v-91.693h-49.636q-10.98 0-18.595-7.404-7.615-7.405-7.615-18.384 0-10.98 7.44-18.595 7.44-7.615 18.472-7.615h69.517q13.724 0 23.07 9.196T432-473.846v111.538q0 26.623-18.868 45.465-18.868 18.842-45.527 18.842H229.968Zm330.468 0q-13.744 0-23.09-9.196T528-330.154v-299.692q0-13.761 9.209-22.957 9.208-9.196 22.989-9.196h169.834q26.659 0 45.351 18.842t18.692 45.465v75.077q0 15.769-9.769 27.653-9.769 11.885-24.768 14.962 14.999 3.077 24.768 14.962 9.769 11.884 9.769 27.653v75.077q0 26.623-18.818 45.465-18.818 18.842-45.408 18.842H560.436Z"/></svg>