<svg xmlns="http://www.w3.org/2000/svg" height="20" viewBox="0 -960 960 960" width="20"><path d="M77.385-158.616q-23.546 0-40.465-16.919Q20.001-192.454 20.001-216H180.31q-27.008 0-45.658-18.65-18.65-18.65-18.65-45.657v-451.384q0-27.008 18.65-45.658 18.65-18.65 45.658-18.65h599.382q27.008 0 45.658 18.65 18.65 18.65 18.65 45.658v451.384q0 27.007-18.65 45.657Q806.699-216 779.691-216h160.308q0 23.846-16.919 40.615-16.919 16.769-40.465 16.769H77.385Zm402.404-26q11.749 0 20.134-8.174 8.384-8.174 8.384-19.922 0-11.749-8.174-20.134-8.174-8.384-19.922-8.384-11.749 0-20.134 8.174-8.384 8.174-8.384 19.923 0 11.748 8.174 20.133 8.174 8.384 19.922 8.384Z"/></svg>