<svg xmlns="http://www.w3.org/2000/svg" height="20" viewBox="0 -960 960 960" width="20"><path d="M479.914-795.999q78.998 0 160.618 23.116 81.62 23.115 145.774 69.114 12.846 9.991 19.769 23.56 6.923 13.57 6.923 29.435 0 9.492-2.615 18.121-2.616 8.63-7.846 16.884L533.461-212.54q-9.59 14.269-23.976 21.403-14.385 7.135-29.52 7.135t-29.483-7.039q-14.347-7.038-23.943-21.499L157.463-615.769q-5.378-7.943-8.112-16.885-2.734-8.942-2.734-18.505 0-15.756 6.923-29.224 6.923-13.467 19.769-23.386 64.154-46.384 145.722-69.307 81.568-22.923 160.883-22.923Zm-109.037 232.46q15.814 0 26.929-11.07 11.115-11.07 11.115-26.884t-11.07-26.93q-11.069-11.115-26.884-11.115-15.814 0-26.929 11.07-11.115 11.07-11.115 26.884t11.07 26.93q11.07 11.115 26.884 11.115Zm109.078 169.538q15.814 0 26.929-11.07 11.115-11.07 11.115-26.884t-11.07-26.929q-11.07-11.115-26.884-11.115t-26.929 11.07q-11.115 11.07-11.115 26.884t11.07 26.929q11.07 11.115 26.884 11.115Z"/></svg>