<svg xmlns="http://www.w3.org/2000/svg" height="20" viewBox="0 -960 960 960" width="20"><path d="M212.001-384q0-79.461 43.538-166.691t125.537-164.845q27.308-25.231 53.5-18.846 26.192 6.384 26.192 37.922v7.922q0 32.693 27.346 58.116 27.347 25.423 64.886 25.423 16.769 0 29.923-4.423T606-622.691q10-10.076 23.462-10.923 13.461-.846 22.923 7.385 43.768 41.308 70.191 106.692Q748.999-454.153 747.999-385q-1 79.923-42.116 143.654-41.116 63.731-112.886 96.807 18.308-20.307 27.655-44.961 9.346-24.654 9.346-50.5 0-26.461-9.192-52.268-9.192-25.808-27.961-46.577L480-468.074 367.155-338.845q-18.384 20.385-27.768 46.192-9.385 25.807-9.385 52.653t9.846 52q9.847 25.154 29.155 45.461-71.77-32.076-114.386-97.307T212.001-384ZM480-388.153l73.076 83.461q12.462 13.462 18.693 30.038 6.23 16.577 6.23 34.654 0 40.769-28.615 69.384-28.615 28.615-69.384 28.615-40.769 0-69.384-28.615-28.615-28.615-28.615-69.384 0-18.077 6.038-34.461 6.039-16.385 18.885-30.231L480-388.153Z"/></svg>