<svg xmlns="http://www.w3.org/2000/svg" height="20" viewBox="0 -960 960 960" width="20"><path d="M490.001-610.001V-324q0 11.069 7.404 18.534 7.405 7.465 18.384 7.465 10.98 0 18.595-7.465 7.615-7.465 7.615-18.534v-305.846q0-13.761-9.196-22.957-9.196-9.196-22.957-9.196H420q-11.069 0-18.534 7.404-7.465 7.405-7.465 18.384 0 10.98 7.465 18.595 7.465 7.615 18.534 7.615h70.001Zm-261.692 446q-27.008 0-45.658-18.65-18.65-18.65-18.65-45.658v-503.382q0-27.008 18.65-45.658 18.65-18.65 45.658-18.65h503.382q27.008 0 45.658 18.65 18.65 18.65 18.65 45.658v503.382q0 27.008-18.65 45.658-18.65 18.65-45.658 18.65H228.309Z"/></svg>