<svg xmlns="http://www.w3.org/2000/svg" height="20" viewBox="0 -960 960 960" width="20"><path d="M300.309-164.001q-25.827 0-45.067-17.741-19.241-17.74-19.241-43.567v-427.23q0-25.153 18.423-42.076 18.423-16.923 43.577-16.923h96v-96q0-15.192 10.634-25.826 10.634-10.635 25.826-10.635h99.078q15.192 0 25.826 10.635 10.634 10.634 10.634 25.826v96h93.692q26.527 0 45.417 19.184 18.891 19.184 18.891 46.123v419.922q0 25.702-19.241 44.005-19.24 18.303-45.067 18.303v9.615q0 15.967-11.346 27.176-11.346 11.209-26.038 11.209t-26.038-11.209q-11.346-11.209-11.346-27.176v-9.615H375.077v10.615q0 14.692-11.208 26.038-11.209 11.347-27.176 11.347-15.117 0-25.751-11.347-10.633-11.346-10.633-26.038v-10.615Zm60.442-115.385q7.726 0 12.795-5.056t5.069-12.789v-281.077q0-7.733-5.051-12.789-5.051-5.057-12.777-5.057-7.725 0-12.794 5.057-5.069 5.056-5.069 12.789v281.077q0 7.733 5.051 12.789t12.776 5.056Zm119.231 0q7.725 0 12.795-5.056 5.069-5.056 5.069-12.789v-281.077q0-7.733-5.052-12.789-5.051-5.057-12.776-5.057t-12.795 5.057q-5.069 5.056-5.069 12.789v281.077q0 7.733 5.052 12.789 5.051 5.056 12.776 5.056Zm119.231 0q7.725 0 12.794-5.056 5.069-5.056 5.069-12.789v-281.077q0-7.733-5.051-12.789-5.051-5.057-12.776-5.057-7.726 0-12.795 5.057-5.069 5.056-5.069 12.789v281.077q0 7.733 5.051 12.789t12.777 5.056ZM429.692-711.538h100.616v-96.769H429.692v96.769Z"/></svg>