<svg xmlns="http://www.w3.org/2000/svg" height="20" viewBox="0 -960 960 960" width="20"><path d="M480-517 213.384-673.616q-14.384-7.923-27.769-.568-13.384 7.354-14.538 23.217-1.538 8.196 3 15.927t11.384 11.961l278.078 164.155q7.278 4.615 16.485 4.615t16.437-4.615l279.078-164.155q6.846-4.23 10.884-12.091 4.038-7.86 2.5-16.447-1.154-15.73-14.538-22.826-13.385-7.096-27.769.827L480-517Zm253.999 304.999q-9.219 0-15.455-6.237-6.237-6.236-6.237-15.456v-144q0-9.43 7.092-15.561 7.093-6.131 16.908-6.131h24v-50.308q0-28.748 20.535-49.22 20.534-20.472 49.37-20.472 28.835 0 49.157 20.472 20.322 20.472 20.322 49.22v50.308h24q9.816 0 16.908 6.131 7.092 6.131 7.092 15.561v144q0 9.22-6.236 15.456-6.237 6.237-15.456 6.237h-192Zm57.692-187.385h76.616v-50.159q0-16.218-11.059-27.337-11.058-11.119-27.038-11.119t-27.249 11.119q-11.27 11.119-11.27 27.337v50.159ZM180.309-212.001q-26.527 0-45.417-18.903-18.891-18.902-18.891-45.445v-407.626q0-26.543 18.891-45.283 18.89-18.741 45.417-18.741h599.382q26.527 0 45.417 18.891 18.891 18.89 18.891 45.417v116.305h-22q-75.402 0-128.547 52.65-53.145 52.65-53.145 126.966v175.769H180.309Z"/></svg>