<svg xmlns="http://www.w3.org/2000/svg" height="20" viewBox="0 -960 960 960" width="20"><path d="M480.295-68.001q-101.833 0-173.063-71.021Q236.001-210.043 236.001-312v-336q0-101.957 70.936-172.978 70.935-71.021 172.768-71.021t173.063 71.021Q723.999-749.957 723.999-648v336q0 101.957-70.936 172.978-70.935 71.02-172.768 71.02ZM480.226-120Q560-120 616-176.16T672-312v-336q0-79.68-56.226-135.84t-136-56.16Q400-840 344-783.84T288-648v336q0 79.68 56.226 135.84t136 56.16Zm-.135-523.693q21.832 0 37.024-15.283 15.192-15.282 15.192-37.115 0-21.832-15.283-37.024-15.282-15.192-37.115-15.192-21.832 0-37.024 15.283-15.192 15.282-15.192 37.115 0 21.832 15.283 37.024 15.282 15.192 37.115 15.192ZM375.703-480q13.605 0 22.951-9.203T408-512.011q0-13.604-9.203-22.95t-22.807-9.346q-13.605 0-22.951 9.203t-9.346 22.807q0 13.605 9.203 22.951T375.703-480Zm104.154 0q13.604 0 22.95-9.203 9.347-9.203 9.347-22.808 0-13.604-9.203-22.95t-22.808-9.346q-13.604 0-22.95 9.203-9.347 9.203-9.347 22.807 0 13.605 9.203 22.951T479.857-480Zm104.154 0q13.604 0 22.95-9.203t9.346-22.808q0-13.604-9.203-22.95t-22.807-9.346q-13.605 0-22.951 9.203T552-512.297q0 13.605 9.203 22.951T584.011-480ZM375.703-363.846q13.605 0 22.951-9.203T408-395.857q0-13.604-9.203-22.95-9.203-9.347-22.807-9.347-13.605 0-22.951 9.203t-9.346 22.808q0 13.604 9.203 22.95 9.203 9.347 22.807 9.347Zm208.308 0q13.604 0 22.95-9.203t9.346-22.808q0-13.604-9.203-22.95-9.203-9.347-22.807-9.347-13.605 0-22.951 9.203T552-396.143q0 13.604 9.203 22.95 9.203 9.347 22.808 9.347Zm-104.154 0q13.604 0 22.95-9.203 9.347-9.203 9.347-22.808 0-13.604-9.203-22.95-9.203-9.347-22.808-9.347-13.604 0-22.95 9.203-9.347 9.203-9.347 22.808 0 13.604 9.203 22.95 9.203 9.347 22.808 9.347ZM375.703-247.693q13.605 0 22.951-9.203T408-279.703q0-13.605-9.203-22.951T375.99-312q-13.605 0-22.951 9.203t-9.346 22.807q0 13.605 9.203 22.951t22.807 9.346Zm208.308 0q13.604 0 22.95-9.203t9.346-22.807q0-13.605-9.203-22.951T584.297-312q-13.605 0-22.951 9.203T552-279.99q0 13.605 9.203 22.951t22.808 9.346Zm-104.154 0q13.604 0 22.95-9.203 9.347-9.203 9.347-22.807 0-13.605-9.203-22.951T480.143-312q-13.604 0-22.95 9.203-9.347 9.203-9.347 22.807 0 13.605 9.203 22.951t22.808 9.346ZM480-480Z"/></svg>