<svg xmlns="http://www.w3.org/2000/svg" height="20" viewBox="0 -960 960 960" width="20"><path d="M219.769-234.001Q189-275.693 171.501-325.654q-17.5-49.962-17.5-106.346 0-136.154 94.923-231.076Q343.846-757.999 480-757.999h30.233l-67.386-67.386 36.768-36.768L609.768-732 479.615-601.847l-36.768-36.768 67.386-67.386H480q-114.231 0-194.116 79.885Q205.999-546.231 205.999-432q0 44.231 13.731 85.038 13.731 40.808 38.192 75.193l-38.153 37.768Zm229.616-12.153q-1.923-24.462-15.346-45.154-13.423-20.693-28.385-40.654-14.961-19.962-27.423-42.038-12.461-22.077-12.461-48.308 0-49.384 32.423-80.307 32.423-30.923 81.807-30.923t81.807 30.923q32.423 30.923 32.423 80.307 0 26.231-12.461 48.115-12.462 21.885-27.423 42.039-14.962 20.153-28.385 40.846-13.423 20.692-15.346 45.154h-61.23Zm.769 96v-40.307h59.692v40.307h-59.692Zm289.077-84.847-37.153-36.768q24.461-34.385 38.192-74.693 13.731-40.307 13.731-85.538 0-58.231-22.154-108.538-22.154-50.308-61.231-87.847l36.769-36.768q46.769 44.462 72.691 104.115Q805.999-501.384 805.999-432q0 56.384-17.5 105.846-17.499 49.461-49.268 91.153Z"/></svg>