<svg xmlns="http://www.w3.org/2000/svg" height="20" viewBox="0 -960 960 960" width="20"><path d="M466.77-259.232q-26.527 0-45.417-18.89-18.89-18.891-18.89-45.417v-312.922q0-26.526 18.89-45.417 18.89-18.89 45.417-18.89h312.921q26.527 0 45.417 18.89 18.891 18.891 18.891 45.417v312.922q0 26.526-18.891 45.417-18.89 18.89-45.417 18.89H466.77ZM287.75-644.154q-11.941 0-20.23-8.077-8.288-8.078-8.288-20.019 0-11.941 8.078-20.229 8.078-8.289 20.019-8.289 11.941 0 20.229 8.078 8.288 8.078 8.288 20.019 0 11.941-8.077 20.229-8.078 8.288-20.019 8.288Zm-143.231 0q-11.941 0-20.229-8.077-8.289-8.078-8.289-20.019 0-11.941 8.078-20.229 8.078-8.289 20.019-8.289 11.941 0 20.229 8.078 8.289 8.078 8.289 20.019 0 11.941-8.078 20.229-8.078 8.288-20.019 8.288Zm0 192.461q-11.941 0-20.229-8.078-8.289-8.077-8.289-20.018 0-11.942 8.078-20.23t20.019-8.288q11.941 0 20.229 8.078 8.289 8.077 8.289 20.018 0 11.942-8.078 20.23t-20.019 8.288Zm0 192.461q-11.941 0-20.229-8.078-8.289-8.078-8.289-20.019 0-11.941 8.078-20.229 8.078-8.288 20.019-8.288 11.941 0 20.229 8.077 8.289 8.078 8.289 20.019 0 11.941-8.078 20.23-8.078 8.288-20.019 8.288Zm143.231 0q-11.941 0-20.23-8.078-8.288-8.078-8.288-20.019 0-11.941 8.078-20.229 8.078-8.288 20.019-8.288 11.941 0 20.229 8.077 8.288 8.078 8.288 20.019 0 11.941-8.077 20.23-8.078 8.288-20.019 8.288Z"/></svg>