<svg xmlns="http://www.w3.org/2000/svg" height="20" viewBox="0 -960 960 960" width="20"><path d="M480-106.001q-75.449 0-128.724-53.262-53.275-53.262-53.275-128.831v-384.187q0-75.569 53.284-128.643 53.284-53.075 128.884-53.075t128.715 53.235Q661.999-747.53 661.999-672v216H548.307q-28.177 0-48.242 18.24Q480-419.52 480-391.693v10.001q-29.048 0-49.37 20.514t-20.322 49.321q0 27.934 20.472 47.948 20.472 20.015 49.22 21.755v136.153Zm106.001 0v-33q0-43.153 42.115-60.076Q670.231-216 720-216t91.884 16.923q42.115 16.923 42.115 60.076v33H586.001Zm133.787-154q-25.942 0-43.864-18.136-17.923-18.135-17.923-44.076t18.135-43.864Q694.271-384 720.212-384q25.942 0 43.864 18.135 17.923 18.135 17.923 44.077 0 25.941-18.135 43.864t-44.076 17.923Zm-239.577-13.691q-15.98 0-27.25-11.059-11.269-11.059-11.269-27.038 0-15.98 11.059-27.25 11.059-11.269 27.038-11.269 15.98 0 27.25 11.059 11.269 11.059 11.269 27.038 0 15.98-11.059 27.25-11.059 11.269-27.038 11.269Zm.001-304.616q28.836 0 49.158-20.534 20.322-20.535 20.322-49.37 0-28.836-20.534-49.158-20.535-20.322-49.37-20.322-28.836 0-49.158 20.534-20.322 20.535-20.322 49.37 0 28.836 20.534 49.158 20.535 20.322 49.37 20.322Z"/></svg>