<svg xmlns="http://www.w3.org/2000/svg" height="20" viewBox="0 -960 960 960" width="20"><path d="m170.463-170.463 619.074-619.074q15.077-15.077 34.769-6.765 19.693 8.313 19.693 29.687v275.845H792v-227.694L241.921-168h290.078v51.999H192.965q-20.767 0-29.173-19.693-8.406-19.692 6.671-34.769Zm462.921 54.462q-9.883 0-17.326-7.444-7.444-7.443-7.444-17.326V-274.77q0-9.882 7.444-16.941 7.443-7.059 17.326-7.059h23.23v-48q0-28.161 19.674-47.773 19.674-19.611 47.923-19.611 28.249 0 47.71 19.611 19.462 19.612 19.462 47.773v48h23.231q10.04 0 17.212 7.059 7.172 7.059 7.172 16.941v133.999q0 9.883-7.172 17.326-7.172 7.444-17.212 7.444h-181.23Zm54.615-182.769h72v-48q0-15.3-10.29-25.65-10.289-10.35-25.5-10.35-15.21 0-25.71 10.35t-10.5 25.65v48ZM241.921-168 792-718.464Q667.59-593.83 516.961-443.232 366.331-292.634 241.921-168Z"/></svg>