<svg xmlns="http://www.w3.org/2000/svg" height="20" viewBox="0 -960 960 960" width="20"><path d="M228.309-164.001q-27.008 0-45.658-18.65-18.65-18.65-18.65-45.658v-503.382q0-27.008 18.65-45.658 18.65-18.65 45.658-18.65h360.306q12.684 0 24.419 4.616 11.735 4.615 21.331 14.211l142.807 142.807q9.596 9.596 14.211 21.331 4.616 11.735 4.616 24.419v360.306q0 27.008-18.65 45.658-18.65 18.65-45.658 18.65H228.309Zm0-51.999h503.382q5.385 0 8.847-3.462 3.462-3.462 3.462-8.847V-576H608.154q-13.762 0-22.958-9.196Q576-594.392 576-608.154V-744H228.309q-5.385 0-8.847 3.462-3.462 3.462-3.462 8.847v503.382q0 5.385 3.462 8.847 3.462 3.462 8.847 3.462ZM636-308.001q11.069 0 18.534-7.405 7.465-7.405 7.465-18.384 0-10.98-7.465-18.595Q647.069-360 636-360H324q-11.069 0-18.534 7.405-7.465 7.404-7.465 18.384 0 10.979 7.465 18.594 7.465 7.616 18.534 7.616h312ZM453.73-588q11.04 0 18.655-7.405Q480-602.809 480-613.789q0-10.979-7.446-18.594-7.445-7.616-18.485-7.616H336.271q-11.04 0-18.655 7.405-7.615 7.405-7.615 18.384 0 10.98 7.445 18.595Q324.892-588 335.932-588H453.73ZM636-430.001q11.069 0 18.534-7.404 7.465-7.405 7.465-18.384 0-10.98-7.465-18.595-7.465-7.615-18.534-7.615H324q-11.069 0-18.534 7.404-7.465 7.405-7.465 18.384 0 10.98 7.465 18.595 7.465 7.615 18.534 7.615h312ZM216-744v156-156 528-528Z"/></svg>