<svg xmlns="http://www.w3.org/2000/svg" height="20" viewBox="0 -960 960 960" width="20"><path d="M297.692-253.999v-197.925L155.535-648.925q-11.534-15.92-2.784-33.497 8.75-17.577 28.25-17.577h285.381q19.5 0 28.249 17.577 8.75 17.577-2.783 33.497L349.691-450.924v196.925h34q11.05 0 18.525 7.418 7.475 7.418 7.475 18.384 0 10.966-7.475 18.581t-18.525 7.615h-120q-11.049 0-18.524-7.418-7.475-7.418-7.475-18.384 0-10.966 7.475-18.581t18.524-7.615h34.001ZM275.691-576h96l51.231-72H224.461l51.23 72Zm312.046 373.999q-45.815 0-77.93-32.07-32.115-32.07-32.115-77.884t32.083-77.929q32.083-32.115 77.916-32.115 15.657 0 29.891 3.798 14.233 3.798 28.11 13.895v-263.539q0-13.665 9.244-22.909 9.244-9.245 22.91-9.245h80.153q14.615 0 25.153 10.358 10.539 10.357 10.539 25.153t-10.539 25.334q-10.538 10.538-25.153 10.538h-60.308V-312q0 45.833-32.07 77.916t-77.884 32.083Z"/></svg>