<svg xmlns="http://www.w3.org/2000/svg" height="20" viewBox="0 -960 960 960" width="20"><path d="M450.154-297.231v-31.385h59.692v31.385h-59.692Zm0-55.385v-20.989q-16.23-7.472-26.115-23.203-9.885-15.73-9.885-34.73 0-27.769 19.482-47.039 19.481-19.269 46.576-19.269t46.365 19.419q19.269 19.419 19.269 46.427 0 19.167-9.885 35.045t-26.196 23.35v20.989h-59.611Zm172.077 7-26.923-24.153q10.231-17 16.539-35.808 6.307-18.808 6.307-38.423 0-19.615-5.807-38.423-5.808-18.808-17.039-35.808l26.923-25.153q15.307 22.077 23.461 47.577 8.154 25.5 8.154 51.807 0 26.307-8.154 51.807-8.154 25.5-23.461 46.577Zm-284.462 0q-15.307-21.077-23.461-46.577-8.154-25.5-8.154-51.635 0-72.463 50.727-123.24Q407.608-617.846 480-617.846v-40.307L536.614-600 480-541.847v-40.307q-57.693 0-97.923 40.388-40.231 40.388-40.231 97.766 0 19.615 6.307 38.423 6.308 18.808 16.539 35.808l-26.923 24.153Zm-61.46 277.615q-25.923 0-45.115-18.843-19.193-18.842-19.193-45.465v-695.382q0-26.623 19.193-45.465 19.192-18.843 45.115-18.843h407.382q26.623 0 45.465 18.843 18.843 18.842 18.843 45.465v695.382q0 26.623-18.843 45.465Q710.314-68 683.691-68H276.309ZM264-230h432v-500.002H264v500.002Zm0 51.998v45.692q0 5.385 3.462 8.847 3.462 3.462 8.847 3.462h407.382q5.385 0 8.847-3.462 3.462-3.462 3.462-8.847v-45.692H264Zm0-603.998h432v-45.692q0-5.385-3.462-8.847-3.462-3.462-8.847-3.462H276.309q-5.385 0-8.847 3.462-3.462 3.462-3.462 8.847v45.692ZM264-840v58.001V-840Zm0 720v-58.001V-120Z"/></svg>