<svg xmlns="http://www.w3.org/2000/svg" height="20" viewBox="0 -960 960 960" width="20"><path d="M228.309-164.001q-26.308 0-45.308-19t-19-45.308v-503.382q0-27.008 19-45.658 19-18.65 45.308-18.65h503.382q27.008 0 45.658 18.65 18.65 18.65 18.65 45.658v503.382q0 26.308-18.65 45.308t-45.658 19H228.309ZM480-323.691q32 0 55.385-21.808 23.384-21.808 33.23-53.577 3.616-11.385 13.739-16 10.123-4.615 22.261-4.615H744v-312q0-5.385-3.462-8.847-3.462-3.462-8.847-3.462H228.309q-5.385 0-8.847 3.462-3.462 3.462-3.462 8.847v312h139.385q12.138 0 22.261 4.615t13.739 16q9.846 31.769 33.23 53.577Q448-323.691 480-323.691Zm-25.999-258.926-49.33 49.33q-7.902 7.902-18.171 8.286-10.269.385-19.055-7.923-8.214-8.307-8.021-18.576.192-10.269 8.333-18.443l89.658-89.942q5.032-5.048 10.582-7.12 5.55-2.071 12.003-2.071t12.003 2.071q5.55 2.072 10.582 7.12l89.658 89.942q7.756 7.789 8.141 17.751.385 9.961-7.829 18.268-8.786 8.308-18.863 8.116-10.076-.193-18.362-8.224l-49.331-48.585v110.771q0 11.068-7.404 18.534-7.405 7.465-18.384 7.465-10.98 0-18.595-7.465-7.615-7.466-7.615-18.534v-110.771Z"/></svg>