<svg xmlns="http://www.w3.org/2000/svg" height="20" viewBox="0 -960 960 960" width="20"><path d="M723-206.232 686.232-243l65.616-67.001H586.001v-51.998h165.847L686.232-429 723-465.768 849.768-336 723-206.232Zm-552.692-91.769q-26.527 0-45.417-18.89t-18.89-45.417v-379.384q0-26.527 18.89-45.417t45.417-18.89h474.95q27.261 0 46.001 18.89t18.74 45.417l1 174.154q2.5.769 5.001 1.154 2.5.385 5 .385-16.5 1-32.5 3.307-15.999 2.308-30.499 6.539v-160.926L408-540.309 157.999-717.463v355.155q0 5.385 3.462 8.847 3.462 3.462 8.847 3.462h319.539q-.231 1.5-.039 4.999.193 3.5.193 9 0 7.5 1.615 19 1.615 11.499 2.846 18.999H170.308Zm26.536-456L408-602.691l211.925-151.31H196.844Zm-38.845 404.002v-404.002V-349.999Z"/></svg>