<svg xmlns="http://www.w3.org/2000/svg" height="20" viewBox="0 -960 960 960" width="20"><path d="M228.309-164.001q-27.008 0-45.658-18.65-18.65-18.65-18.65-45.658v-503.382q0-27.008 18.65-45.658 18.65-18.65 45.658-18.65h503.382q27.008 0 45.658 18.65 18.65 18.65 18.65 45.658V-672H744v-59.691q0-4.616-3.846-8.463-3.847-3.846-8.463-3.846H228.309q-4.616 0-8.463 3.846-3.846 3.847-3.846 8.463v503.382q0 4.616 3.846 8.463 3.847 3.846 8.463 3.846h503.382q4.616 0 8.463-3.846 3.846-3.847 3.846-8.463V-288h51.999v59.904q0 27.095-18.65 45.595t-45.658 18.5H228.309Zm515.769-290H417.692q-11.069 0-18.534-7.404-7.465-7.405-7.465-18.384 0-10.98 7.465-18.595 7.465-7.615 18.534-7.615h326.386l-96.924-97.309q-8.308-8.308-8.115-18.384.192-10.077 8.115-18 8.307-8.307 18.384-8.307t18.242 8.165l137.911 137.527q4.615 5.015 6.923 10.546 2.308 5.53 2.308 11.961t-2.308 11.961q-2.308 5.531-6.923 10.146L683.78-319.782q-8.165 8.166-17.934 7.281-9.769-.884-17.692-8.807-8.308-8.308-8.308-18.192t8.308-18.192l95.924-96.309Z"/></svg>