<svg xmlns="http://www.w3.org/2000/svg" height="20" viewBox="0 -960 960 960" width="20"><path d="M273.341-120.233q-51.352 0-87.5-36.183-36.147-36.183-36.147-87.585v-293.23q-27.077-24.077-55.539-51.692-28.461-27.616-28.461-65.246 0-23.985 15.922-39.907 15.923-15.923 39.848-15.923 16.842 0 30.92 8.038 14.078 8.039 23.309 21.962 9.231-13.923 23.309-21.962 14.078-8.038 30.919-8.038 23.925 0 39.848 15.923 15.923 15.922 15.923 39.907 0 37.63-28.461 65.246-28.462 27.615-55.539 51.692v293.23q0 30.225 20.981 51.497 20.981 21.273 50.789 21.273t50.789-21.273q20.98-21.272 20.98-51.497v-423.998q0-73.385 50.539-123.923 50.538-50.538 123.922-50.538t123.923 50.538q50.538 50.538 50.538 123.923v17.847q62.384 9.538 104.192 57.433Q840.152-544.824 840.152-480v192q0 71.602-50.264 121.801-50.264 50.198-121.961 50.198-71.696 0-121.734-50.198Q496.155-216.398 496.155-288v-192q0-65.225 42.308-113.42 42.307-48.194 104.691-56.732v-17.847q0-50.962-35.75-86.712t-86.712-35.75q-50.962 0-86.712 35.75t-35.75 86.712v423.998q0 51.402-36.769 87.585-36.769 36.183-88.12 36.183Zm394.6-229.766q-25.941 0-43.864 18.135t-17.923 44.076q0 25.942 18.136 43.864 18.135 17.923 44.076 17.923t43.864-18.135q17.923-18.135 17.923-44.076 0-25.942-18.135-43.864-18.136-17.923-44.077-17.923Z"/></svg>