<svg xmlns="http://www.w3.org/2000/svg" height="20" viewBox="0 -960 960 960" width="20"><path d="M479.231-116.001q-74.769 0-140.923-28.462-66.153-28.461-115.769-78.076-49.615-49.616-78.076-115.962Q116.001-404.846 116.001-480q0-76.154 28.77-141.999 28.769-65.846 79.576-115.654 50.808-49.807 119.038-78.076 68.231-28.27 145.384-28.27 73 0 137.653 25.077 64.654 25.077 112.962 68.808 48.307 43.73 76.461 102.499 28.154 58.769 28.154 126.538 0 84.845-58.731 148.96-58.73 64.116-151.268 64.116h-66.461q-16.078 0-28.809 11.154-12.731 11.154-12.731 28.386 0 21.539 15 29.038 15 7.5 15 47.423 0 26.615-21.423 51.307-21.423 24.692-55.345 24.692ZM480-480Zm-216 25.999q20.384 0 35.192-14.807 14.807-14.808 14.807-35.192t-14.807-35.192Q284.384-553.999 264-553.999t-35.192 14.807Q214.001-524.384 214.001-504t14.807 35.192q14.808 14.807 35.192 14.807Zm120-144q20.384 0 35.192-14.807 14.807-14.808 14.807-35.192t-14.807-35.192Q404.384-697.999 384-697.999t-35.192 14.807Q334.001-668.384 334.001-648t14.807 35.192q14.808 14.807 35.192 14.807Zm192 0q20.384 0 35.192-14.807 14.807-14.808 14.807-35.192t-14.807-35.192Q596.384-697.999 576-697.999t-35.192 14.807Q526.001-668.384 526.001-648t14.807 35.192q14.808 14.807 35.192 14.807Zm120 144q20.384 0 35.192-14.807 14.807-14.808 14.807-35.192t-14.807-35.192Q716.384-553.999 696-553.999t-35.192 14.807Q646.001-524.384 646.001-504t14.807 35.192q14.808 14.807 35.192 14.807ZM479.231-168q11.769 0 18.269-8.308Q504-184.615 504-192q0-16-15-26.461-15-10.462-15-47.693 0-38.769 26.5-66.307Q527-360 565-360h69q70.616 0 114.308-48.885Q792-457.77 792-521.077q0-115.385-89.077-193.154Q613.846-792 488.769-792q-135.154 0-227.961 91Q168-610 168-480t91 221q91 91 220.231 91Z"/></svg>