<svg xmlns="http://www.w3.org/2000/svg" height="20" viewBox="0 -960 960 960" width="20"><path d="M264-380.614q43.384 0 79.538 24.5 36.153 24.499 51.23 64.884l10.847 28.616 30.385 3q28.076 6 46.345 27.884T500.614-181q0 33.461-23.576 57.038-23.577 23.576-57.038 23.576H264q-58.846 0-99.73-40.384-40.884-40.384-40.884-99.23 0-59.846 41.384-100.23 41.384-40.384 99.23-40.384Zm297.768-68.154q56.231 56.231 127.346 82.615 71.115 26.385 148.577 25.77 8.846-.231 15.884 3.269 7.039 3.5 11.269 9.731 4.231 6.231 5.962 14.154 1.73 7.923-1.654 15.769-37.693 106.383-132.538 167.921-94.846 61.537-207.153 61.537h-7q24.461-21.307 37.307-50.922 12.846-29.615 12.846-61.076 0-50.154-33.038-91.884-33.039-41.731-80.192-53.5-23.923-59.23-77.307-93.23-53.385-34-118.077-34-6.23 0-12.038-.423-5.807-.424-12.961-2.27-20 2.461-39 7.923-19 5.461-36 14.923-.769-115.923 61.153-206.537 61.923-90.615 168.306-132.538 7.846-3.385 15.769-1.962 7.923 1.423 14.154 5.269t10.731 10.577q4.5 6.731 4.269 15.577 1.001 87.076 31.078 159.076 30.076 72 92.307 134.231Z"/></svg>