<svg xmlns="http://www.w3.org/2000/svg" height="20" viewBox="0 -960 960 960" width="20"><path d="M127.925-288.616q0-22.703 10.962-40.082 10.961-17.378 30.632-28.873 49.021-28.89 103.174-45.505 54.154-16.615 123.231-16.615t123.23 16.615q54.154 16.615 103.175 45.505 19.671 11.495 30.632 28.873 10.961 17.379 10.961 40.082v16.154q0 20.853-15.392 36.81-15.392 15.958-37.416 15.958H180.41q-22.024 0-37.254-15.381-15.231-15.38-15.231-37.387v-16.154Zm651.382 68.922h-55.846q5.539-12.769 9-25.995 3.461-13.225 3.461-26.773v-13.077q0-37.384-14.286-68.569-14.287-31.185-37.712-50.737 28.23 8 55.883 19.577 27.653 11.577 54.499 27.73 17 9.538 27.384 29.158 10.385 19.619 10.385 42.841v13.077q0 22.007-15.381 37.387-15.38 15.381-37.387 15.381ZM395.924-492.309q-51.749 0-87.874-36.124-36.125-36.125-36.125-87.874 0-51.75 36.125-87.874 36.125-36.125 87.874-36.125 51.749 0 87.874 36.125 36.124 36.124 36.124 87.874 0 51.749-36.124 87.874-36.125 36.124-87.874 36.124Zm281.381-123.998q0 51.749-36.125 87.874-36.125 36.124-87.874 36.124-3.769 0-4.23.462-.461.462-4.23-.384 21.662-25.447 34.369-56.617 12.707-31.17 12.707-67.507 0-36.336-12.961-67.221Q566-714.46 544.846-740.383q2.615-.077 4.23 0 1.615.077 4.23.077 51.749 0 87.874 36.125 36.125 36.124 36.125 87.874ZM179.924-271.693h432v-16.923q0-8.009-3.794-14.072-3.795-6.064-13.36-11.313-42.385-25.461-91.692-39.577-49.308-14.115-107.154-14.115T288.77-354.078q-49.307 13.616-91.692 40.077-9.565 5.134-13.36 10.99-3.794 5.857-3.794 14.302v17.016Zm216.212-272.614q29.788 0 50.788-21.213 21-21.212 21-51 0-29.787-21.212-50.787-21.213-21-51-21-29.788 0-50.788 21.212-21 21.213-21 51 0 29.788 21.212 50.788 21.213 21 51 21Zm-.212 272.614Zm0-344.614Z"/></svg>