<svg xmlns="http://www.w3.org/2000/svg" height="20" viewBox="0 -960 960 960" width="20"><path d="M180.309-164.001q-26.308 0-45.308-19t-19-45.308v-407.382q0-26.308 19-45.308t45.308-19h116.153l52.308-69.692q9.846-12.846 23.485-19.577 13.638-6.731 28.745-6.731h158.181q15.28 0 28.741 6.731 13.462 6.731 23.308 19.577l52.308 69.692h116.153q27.008 0 45.658 19 18.65 19 18.65 45.308v407.382q0 26.308-18.65 45.308t-45.658 19H603.999q-11.069 0-18.535-7.405-7.465-7.405-7.465-18.384 0-10.98 7.465-18.595Q592.93-216 603.999-216h175.692q4.616 0 8.463-3.846 3.846-3.847 3.846-8.463v-407.382q0-4.616-3.846-8.463-3.847-3.846-8.463-3.846H636.769l-72.483-96H395.615l-72.384 96H180.309q-4.616 0-8.463 3.846-3.846 3.847-3.846 8.463v407.382q0 4.616 3.846 8.463 3.847 3.846 8.463 3.846h175.692q11.069 0 18.535 7.405 7.465 7.404 7.465 18.384 0 10.979-7.465 18.594-7.466 7.616-18.535 7.616H180.309Zm299.903-243.078q23.634 0 40.018-16.56t16.384-40.142v-144.176q0-23.582-16.596-39.966-16.597-16.384-40.23-16.384-23.634 0-40.018 16.56t-16.384 40.142v144.176q0 23.582 16.596 39.966 16.597 16.384 40.23 16.384ZM180.309-216H792 168h12.309ZM480-319.693q-63.077 0-108.346-40.154-45.27-40.154-56.577-97.847-2.772-11.967-9.847-20.983-7.076-9.016-19.229-9.016-11.769 0-18.577 9.605-6.807 9.605-4.576 21.625 11.038 72.932 62.865 124.581 51.826 51.649 128.288 61.726v80.155q0 11.069 7.404 18.534 7.405 7.466 18.384 7.466 10.98 0 18.595-7.466 7.615-7.465 7.615-18.534v-80.155q76.462-10.077 128.288-61.726 51.827-51.649 62.865-124.581 2.231-12.02-4.576-21.625-6.808-9.605-18.577-9.605-12.153 0-19.229 9.016-7.075 9.016-9.847 20.983-11.307 57.693-56.577 97.847Q543.077-319.693 480-319.693Z"/></svg>