<svg xmlns="http://www.w3.org/2000/svg" height="20" viewBox="0 -960 960 960" width="20"><path d="m751.078-136.001-84.309-83.693H264.861q-22.045 0-37.452-15.381-15.408-15.38-15.408-37.387v-16.154q0-21.164 10.962-39.312 10.961-18.148 30.653-29.61 46.847-27.154 97.924-42.769 51.077-15.615 104.385-17.923h6.347q3.269 0 6.346.385L135.386-751.078q-7.923-7.589-7.807-18.025.115-10.435 8.422-18.743 8.308-8.307 18.551-8.307 10.244 0 18.218 8.307l614.996 615.611q8.003 8.004 8.195 18.147.192 10.143-8.115 18.087-7.974 8.307-18.218 8.307-10.243 0-18.55-8.307ZM264-271.693h350.771l-93.077-94.077q-10.77-.769-20.847-1.346-10.077-.577-20.847-.577-52.846 0-103.5 13.615-50.654 13.616-95.346 40.077-8.027 4.48-12.59 11.12Q264-296.24 264-288.616v16.923Zm451.846-81.614q8.845 5.615 14.306 13.653 5.461 8.038 7.077 18.344l-47.458-47.457q6.705 3.607 13.224 7.215 6.518 3.607 12.851 8.245ZM548.615-513.616l-38.999-37.999q19.273-8.853 30.828-26.495Q552-595.753 552-616.668q0-29.639-21.038-50.639-21.038-21-50.581-21-20.842 0-38.523 11.556-17.681 11.555-26.55 30.828l-37.999-38.999q16.923-26.769 44.499-41.076 27.577-14.308 58.192-14.308 51.922 0 87.961 36.038 36.038 36.038 36.038 87.961 0 30.615-14.308 58.191-14.307 27.577-41.076 44.5Zm66.156 241.923H264 614.771ZM465.462-595.769Z"/></svg>