<svg xmlns="http://www.w3.org/2000/svg" height="20" viewBox="0 -960 960 960" width="20"><path d="m752.49-133.694-79.182-78.307h-60.154q-13.665 0-22.909-9.245Q581-230.49 581-244.155v-60.154L264-621.31v343.311h172.616q13.749 0 23.374 9.644 9.625 9.645 9.625 23.423 0 13.777-9.625 23.354t-23.374 9.577H149q-13.749 0-23.374-9.645-9.625-9.644-9.625-23.422t9.625-23.355q9.625-9.576 23.374-9.576h63.001v-395.309l-76.488-76.489q-8.434-8.434-8.627-18.511-.192-10.076 8.5-18.768 8.692-8.693 18.577-8.693 9.884 0 18.576 8.693l617.23 617.23q8.307 8.307 8.5 17.884.192 9.576-8.5 18.268-8.692 8.693-18.576 8.693-9.885 0-18.703-8.693Zm91.893-99.23-51.998-51.999v-279.386H632.999v135.693L581-480.615v-103.539q0-13.665 9.233-22.909 9.232-9.244 22.881-9.244h198.833q13.648 0 23.042 9.244 9.394 9.244 9.394 22.909v351.23ZM365.615-696l-51.998-51.999h456.382q11.05 0 18.525 7.419 7.475 7.418 7.475 18.384 0 10.966-7.475 18.581T769.999-696H365.615Zm347.077 339.23Z"/></svg>