<svg xmlns="http://www.w3.org/2000/svg" height="20" viewBox="0 -960 960 960" width="20"><path d="M180.309-164.001q-26.308 0-45.308-19t-19-45.308v-407.382q0-26.308 19-45.308t45.308-19h116.153l52.308-69.692q9.846-12.846 23.485-19.577 13.638-6.731 28.745-6.731h158.181q15.28 0 28.741 6.731 13.462 6.731 23.308 19.577l52.308 69.692h116.153q27.008 0 45.658 19 18.65 19 18.65 45.308v407.382q0 26.308-18.65 45.308t-45.658 19H180.309Zm0-51.999h599.382q5.385 0 8.847-3.462 3.462-3.462 3.462-8.847v-407.382q0-5.385-3.462-8.847-3.462-3.462-8.847-3.462H636.769l-72.483-96H395.615l-72.384 96H180.309q-5.385 0-8.847 3.462-3.462 3.462-3.462 8.847v407.382q0 5.385 3.462 8.847 3.462 3.462 8.847 3.462ZM480-433ZM326.156-295.693h310.96q9.651 0 13.882-8.846t-1.615-17.077l-93.384-124.768q-4.865-7.23-12.461-7.23t-12.462 7.23l-87.845 113.461-49.538-61.999q-4.865-6.846-12.269-6.846t-12.269 7.231l-54.894 72.947q-6.413 8.205-1.932 17.051 4.481 8.846 13.827 8.846Z"/></svg>