<svg xmlns="http://www.w3.org/2000/svg" height="20" viewBox="0 -960 960 960" width="20"><path d="M363.077-390.154h357.844L608.769-541.23l-93.078 121.539-66.769-85.693-85.845 115.23Zm-48.769 130.153q-27.008 0-45.657-18.65-18.65-18.65-18.65-45.658v-455.382q0-27.008 18.65-45.658 18.649-18.65 45.657-18.65h455.383q27.007 0 45.657 18.65 18.65 18.65 18.65 45.658v455.382q0 27.008-18.65 45.658-18.65 18.65-45.657 18.65H314.308Zm0-51.999h455.383q4.615 0 8.462-3.846 3.846-3.847 3.846-8.463v-455.382q0-4.616-3.846-8.463-3.847-3.846-8.462-3.846H314.308q-4.616 0-8.462 3.846-3.847 3.847-3.847 8.463v455.382q0 4.616 3.847 8.463 3.846 3.846 8.462 3.846ZM190.309-136.003q-27.007 0-45.657-18.65-18.65-18.65-18.65-45.657v-507.381h51.999v507.381q0 4.616 3.846 8.462 3.847 3.847 8.462 3.847h507.382v51.998H190.309ZM314.308-792h455.383q4.615 0 8.462 3.846 3.846 3.847 3.846 8.463v455.382q0 4.616-3.846 8.463-3.847 3.846-8.462 3.846H314.308q-4.616 0-8.462-3.846-3.847-3.847-3.847-8.463v-455.382q0-4.616 3.847-8.463 3.846-3.846 8.462-3.846Z"/></svg>