<svg xmlns="http://www.w3.org/2000/svg" height="20" viewBox="0 -960 960 960" width="20"><path d="M480-294.307q99-81.077 150.501-156.202 51.5-75.124 51.5-143.532 0-57.671-20.462-97.585-20.461-39.913-51.039-64.187-30.577-24.273-65.862-35.23-35.286-10.958-64.279-10.958-28.992 0-63.984 11.077-34.991 11.077-66.222 35.231-31.231 24.154-51.692 64.067-20.462 39.914-20.462 97.585 0 68.408 52 143.532Q382-375.384 480-294.307Zm0 52.537q-8.03 0-15.658-2.808-7.629-2.807-14.521-8.249-75.051-60.02-149.436-148.549-74.384-88.53-74.384-192.661 0-65.355 23.103-113.655 23.103-48.299 59.441-80.969 36.338-32.669 81.761-49.004 45.422-16.334 89.694-16.334 44.272 0 89.694 16.334 45.423 16.335 81.761 49.004 36.338 32.67 59.441 80.969 23.103 48.3 23.103 113.976 0 104.639-73.884 192.254-73.885 87.615-149.846 148.548-6.982 5.529-14.611 8.336-7.628 2.808-15.658 2.808Zm.212-296.231q25.942 0 43.864-18.135 17.923-18.135 17.923-44.076 0-25.942-18.135-43.864-18.135-17.923-44.076-17.923-25.942 0-43.864 18.135-17.923 18.135-17.923 44.076 0 25.942 18.135 43.864 18.135 17.923 44.076 17.923ZM252-106.001q-11.05 0-18.524-7.418-7.475-7.418-7.475-18.384 0-10.966 7.475-18.581 7.474-7.615 18.524-7.615h456q11.05 0 18.524 7.418 7.475 7.418 7.475 18.384 0 10.966-7.475 18.581-7.474 7.615-18.524 7.615H252ZM480-594Z"/></svg>