<svg xmlns="http://www.w3.org/2000/svg" height="20" viewBox="0 -960 960 960" width="20"><path d="M619.152-423.462 361.848-682.767q6.846-10.23 19.499-12.538 12.654-2.308 24.5 4.923l256.228 184.459q15.076 9.846 15.576 26.731.5 16.884-14.576 26.73l-43.923 29Zm89.23 259.997L515.846-354.232 405.847-282.31q-16.077 10.846-32.961 1.808-16.885-9.039-16.885-28.731v-204.843L162.696-707.382q-8.308-8.308-8.5-18.384-.192-10.077 8.5-18.769 8.692-8.692 18.576-8.692t18.577 8.692L745.15-199.233q7.923 7.923 8.115 17.691.193 9.769-8.115 18.077-8.307 8.692-18.384 8.5-10.076-.193-18.384-8.5Z"/></svg>