<svg xmlns="http://www.w3.org/2000/svg" height="20" viewBox="0 -960 960 960" width="20"><path d="M355.693-216.617h-81.769q-18.076 0-32.153-8.539-14.077-8.538-22.923-23.615L102.079-447.846Q93.233-463.308 93.233-480q0-16.692 8.846-32.154L223.463-719.46q7.231-11.846 18.577-17.884 11.346-6.039 23.423-6.039h61.769q14.461 0 21 12.154 6.538 12.154-.693 24.615L215.079-480l96.307 177.384 236.306-408.229q8.846-15.461 23.307-23.999 14.462-8.539 32.538-8.539h81.539q18.076 0 32.153 8.539 14.077 8.538 22.923 23.615l117.384 199.075q8.846 15.462 8.846 32.154 0 16.692-8.846 32.154L735.537-240.54q-7.231 11.846-18.577 17.884-11.346 6.039-23.423 6.039h-66.769q-14.461 0-21-12.154-6.538-12.154.693-24.615L744.921-480l-96.307-178.153-237.075 408.998q-8.846 15.461-23.308 23.999-14.461 8.539-32.538 8.539Z"/></svg>