<svg xmlns="http://www.w3.org/2000/svg" height="20" viewBox="0 -960 960 960" width="20"><path d="M454.001-510.233v134.458q0 11.039 7.404 18.483 7.405 7.445 18.384 7.445 10.98 0 18.595-7.507 7.615-7.507 7.615-18.637v-134.626l48.925 49.309q7.922 8.307 18.384 8.307 10.461 0 18.768-8.307 8.308-8.308 8.308-18.551 0-10.243-8.308-18.217l-89.906-89.907q-9.709-9.708-22.352-9.708t-22.125 9.846l-89.907 89.907q-7.785 7.784-7.708 17.928.077 10.143 8.461 18.086 8.307 8.693 18.576 8.5 10.269-.192 18.3-8.223l48.586-48.586ZM180.309-212.001q-27.008 0-45.658-18.662-18.65-18.662-18.65-45.686v-407.626q0-27.024 18.65-45.524t45.658-18.5h599.382q27.008 0 45.658 18.662 18.65 18.662 18.65 45.686v407.626q0 27.024-18.65 45.524t-45.658 18.5H180.309Z"/></svg>