<svg xmlns="http://www.w3.org/2000/svg" height="20" viewBox="0 -960 960 960" width="20"><path d="M228.309-164.001q-26.527 0-45.417-18.891-18.891-18.89-18.891-45.417v-503.382q0-26.527 18.891-45.417 18.89-18.891 45.417-18.891h503.382q26.527 0 45.417 18.891 18.891 18.89 18.891 45.417v503.382q0 26.527-18.891 45.417-18.89 18.891-45.417 18.891H228.309Zm0-51.999h503.382q5.385 0 8.847-3.462 3.462-3.462 3.462-8.847V-672H216v443.691q0 5.385 3.462 8.847 3.462 3.462 8.847 3.462Zm251.575-104.001q-65.422 0-117.268-34.923-51.845-34.923-76.691-89.076 24.846-54.153 76.807-89.076 51.962-34.923 117.384-34.923t117.268 34.923q51.845 34.923 76.691 89.076-24.846 54.153-76.807 89.076-51.962 34.923-117.384 34.923Zm.116-35.692q48.769 0 89.15-23.324 40.381-23.325 65.772-64.983-25.391-41.658-65.772-64.983-40.381-23.324-89.15-23.324-48.769 0-89.15 23.324-40.381 23.325-65.772 64.983 25.391 41.658 65.772 64.983 40.381 23.324 89.15 23.324ZM480-444Zm.091 52.307q21.832 0 37.024-15.283 15.192-15.282 15.192-37.115 0-21.832-15.283-37.024-15.282-15.192-37.115-15.192-21.832 0-37.024 15.283-15.192 15.282-15.192 37.115 0 21.832 15.283 37.024 15.282 15.192 37.115 15.192Z"/></svg>