<svg xmlns="http://www.w3.org/2000/svg" height="20" viewBox="0 -960 960 960" width="20"><path d="M761.845-122.772 109.464-774.154q-8.308-8.307-8-18.384.307-10.076 9-18.768 8.692-8.693 18.076-8.693t18.076 8.693l652.382 651.381q8.307 8.307 8 18.384-.308 10.077-9 18.769-8.692 8.692-18.077 8.692-9.384 0-18.076-8.692Zm45.769-228.769-96.845-96.845v98.847L483.616-575.692V-584q0-22.307-16.769-39.577-16.769-17.269-41.077-17.269h-3.462q-1.923 0-3.077.77L311.309-747.999h335.152q27.308 0 45.808 18.5t18.5 45.808v170.077l96.845-96.845q6.846-6.846 17.384-3.423t10.538 13.884v237.996q0 10.461-10.538 13.884t-17.384-3.423Zm-568.535 139.54q-27.308 0-45.808-18.5t-18.5-45.808v-407.382q0-19.769 9.962-35.692 9.961-15.923 27.961-25.846l497.305 496.305q-9.923 18-26.846 27.461-16.923 9.462-36.692 9.462H460.616v-88q35.23-6.23 65.538-25.153 30.308-18.924 50.923-48.539l-26.538-25.538q-17 29-45.884 46.308-28.885 17.308-61.885 17.308-41 0-72.5-24.616-31.5-24.615-42.5-62.23-2.615-7.077-8.384-11.231-5.77-4.154-13.846-4.154-7.308 0-12.269 4.769-4.962 4.77-3.346 10.462 11.384 49.307 47.73 83.422 36.346 34.115 87.269 39.192v88H239.079Zm137.845-294.692V-453q0 26.307 19.769 44.577 19.77 18.269 46.077 18.269 10.539 0 20.385-2.577 9.846-2.577 17.846-9.885L376.924-506.693Z"/></svg>