<svg xmlns="http://www.w3.org/2000/svg" height="20" viewBox="0 -960 960 960" width="20"><path d="M212.001-441.692v-149.694q0-42.384 24.539-74.845 24.538-32.462 66.846-42.076v-71.384q0-26.623 18.842-45.465 18.842-18.843 45.465-18.843h224.614q26.623 0 45.465 18.843 18.842 18.842 18.842 45.465v71.384q42.308 9.614 66.846 42.076 24.539 32.461 24.539 74.845v149.694H212.001Zm123.574 325.691q-51.497 0-87.536-36.038-36.038-36.039-36.038-87.961v-149.694h535.998V-240q0 51.922-36.038 87.961-36.039 36.038-87.536 36.038h-288.85Zm19.809-599.383h93.232q0-12.692 9.846-22.038 9.846-9.347 22.038-9.347t21.538 9.196q9.346 9.197 9.346 22.189h93.232v-64.307q0-5.385-3.462-8.847-3.462-3.462-8.847-3.462H367.693q-5.385 0-8.847 3.462-3.462 3.462-3.462 8.847v64.307Z"/></svg>