<svg xmlns="http://www.w3.org/2000/svg" height="20" viewBox="0 -960 960 960" width="20"><path d="M180.384-491.231q-10.153 4.692-19.807 1.73-9.653-2.961-14.346-13.115l-85-170q-4.692-10.153-1.73-19.807 2.961-9.653 13.115-14.346 10.153-4.692 20.307-1.73 10.153 2.961 13.846 13.115l85 170q4.692 10.153 1.73 19.807-2.961 9.653-13.115 14.346Zm119 238q-10.153 5.076-20.307 1.923-10.153-3.154-15.23-13.308l-68-136q-4.692-10.153-1.039-19.807 3.654-9.653 13.808-14.73 10.153-4.692 19.807-1.539 9.653 3.154 14.346 13.308l68.384 136q4.692 10.153 1.539 19.615-3.154 9.461-13.308 14.538Zm108-175q-10.153 4.692-19.999 1.73-9.846-2.961-14.538-13.115l-116-233q-4.692-10.153-1.731-19.807 2.962-9.653 13.115-14.346 10.154-5.076 20.5-1.923 10.345 3.154 14.038 13.308l117 233q4.692 10.153 1.23 19.807-3.461 9.653-13.615 14.346Zm116-160q-10.153 5.076-19.807 2.115-9.653-2.962-14.346-13.115l-36.384-73.385q-4.692-10.153-1.731-19.999 2.962-9.846 13.115-14.538 10.154-4.692 20.692-1.539 10.538 3.154 14.23 13.308l36 73q4.692 10.153 1.539 19.615-3.154 9.461-13.308 14.538Zm-28 335.384q-10.153 5.077-19.999 1.731-9.846-3.346-14.538-13.5l-37-73q-4.692-10.153-1.039-19.999 3.654-9.846 13.808-14.538 10.153-4.692 19.615-1.539 9.461 3.154 14.538 13.308l36.384 72.615q4.692 10.154 1.539 20-3.154 9.845-13.308 14.922Zm196 0q-10.153 5.077-19.807 1.731-9.653-3.346-14.346-13.5l-117-233q-4.692-10.153-1.73-20.307 2.961-10.153 13.115-15.23 10.153-4.692 20.499-1.539 10.346 3.154 15.038 13.308l116 233.615q4.692 10.154 1.539 20-3.154 9.845-13.308 14.922Zm94-203.384q-10.153 5.076-19.807 1.423-9.653-3.654-14.73-13.808l-102-204q-4.692-10.153-1.539-19.999 3.154-9.846 13.308-14.538 10.153-4.692 20.307-1.539 10.153 3.154 14.846 13.308l101 204q4.692 10.153 1.73 20.307-2.961 10.153-13.115 14.846Zm101 204q-10.153 5.076-19.807 1.423-9.653-3.654-14.73-13.808l-51-101q-4.692-10.153-1.039-20.499 3.654-10.346 13.808-15.038 10.153-4.692 19.807-1.539 9.653 3.154 14.346 13.308l51 102q4.692 10.153 1.23 20.307-3.461 10.153-13.615 14.846Z"/></svg>