<svg xmlns="http://www.w3.org/2000/svg" height="20" viewBox="0 -960 960 960" width="20"><path d="M164.001-150.924v-673.305q0-5.648 4.231-7.555t8.993 1.057l29.469 20.036q3.867 2.461 8.51 2.461t8.874-2.461l35.538-23.154q3.868-2.461 8.511-2.461 4.643 0 8.874 2.461l35.538 23.154q3.867 2.461 8.511 2.461 4.643 0 8.874-2.461l35.538-23.154q3.867-2.461 8.51-2.461 4.644 0 8.874 2.461l35.539 23.154q3.867 2.461 8.51 2.461 4.644 0 8.874-2.461l35.539-23.154q3.867-2.461 8.51-2.461t8.874 2.461l35.539 23.154q3.867 2.461 8.51 2.461t8.874-2.461l35.539-23.154q3.867-2.461 8.51-2.461t8.874 2.461l35.538 23.154q3.867 2.461 8.511 2.461 4.643 0 8.874-2.461l35.538-23.154q3.867-2.461 8.511-2.461 4.643 0 8.874 2.461l35.538 23.154q3.867 2.461 8.51 2.461 4.644 0 8.874-2.461l29.469-20.036q4.762-2.964 8.993-1.057 4.231 1.907 4.231 7.555v673.305q0 9.076-8.27 13.692-8.269 4.615-16.499-.462l-17.924-11.615q-3.867-2.461-8.51-2.461t-8.874 2.461l-35.538 23.154q-3.868 2.461-8.511 2.461-4.643 0-8.874-2.461l-35.538-23.154q-3.867-2.461-8.511-2.461-4.643 0-8.874 2.461l-35.538 23.154q-3.867 2.461-8.51 2.461-4.644 0-8.874-2.461l-35.539-23.154q-3.867-2.461-8.51-2.461-4.644 0-8.874 2.461l-35.539 23.154q-3.867 2.461-8.51 2.461t-8.874-2.461l-35.539-23.154q-3.867-2.461-8.51-2.461t-8.874 2.461l-35.539 23.154q-3.867 2.461-8.51 2.461t-8.874-2.461l-35.538-23.154q-3.867-2.461-8.511-2.461-4.643 0-8.874 2.461l-35.538 23.154q-3.867 2.461-8.511 2.461-4.643 0-8.874-2.461l-35.538-23.154q-3.867-2.461-8.51-2.461-4.644 0-8.874 2.461l-17.924 11.615q-8.23 5.077-16.499.462-8.27-4.616-8.27-13.692ZM324-334.309h312q11.069 0 18.534-7.405 7.465-7.405 7.465-18.384 0-10.98-7.465-18.595-7.465-7.615-18.534-7.615H324q-11.069 0-18.534 7.405-7.465 7.404-7.465 18.384 0 10.979 7.465 18.595 7.465 7.615 18.534 7.615Zm0-119.692h312q11.069 0 18.534-7.404 7.465-7.405 7.465-18.384 0-10.98-7.465-18.595-7.465-7.615-18.534-7.615H324q-11.069 0-18.534 7.404-7.465 7.405-7.465 18.384 0 10.98 7.465 18.595 7.465 7.615 18.534 7.615Zm0-119.691h312q11.069 0 18.534-7.405 7.465-7.404 7.465-18.384 0-10.979-7.465-18.595-7.465-7.615-18.534-7.615H324q-11.069 0-18.534 7.405-7.465 7.405-7.465 18.384 0 10.98 7.465 18.595 7.465 7.615 18.534 7.615Z"/></svg>