<svg xmlns="http://www.w3.org/2000/svg" height="20" viewBox="0 -960 960 960" width="20"><path d="M480-286.461q-76.923 0-132.077-50.924-55.154-50.923-61.231-125.231-.231-6.692 4.923-12.038T304.307-480q8.077 0 12.989 4.815 4.912 4.816 6.472 11.954 6.462 60.308 50.668 100.693Q418.643-322.153 480-322.153q65.737 0 111.792-46.062 46.055-46.062 46.055-111.808 0-65.747-47.055-111.785Q543.737-637.847 477-637.847h-1.154l29.462 30.077q5.632 5.112 6.047 12.094.414 6.982-6.047 13.444-5.462 5.461-12.577 5.461t-12.576-5.461l-62.769-62.769q-4.615-4.475-4.615-11.776t4.615-11.916l62.769-62.768q5.076-5.077 12.076-5.77 7-.692 13.462 5.77 5.461 5.461 5.461 12.576t-5.461 12.577l-32.155 32.769q82.923-.769 141.462 55.116Q673.539-562.539 673.539-480q0 80.639-56.45 137.089-56.451 56.45-137.089 56.45Zm-.067 170.46q75.836 0 141.704-28.42 65.869-28.42 115.682-78.21 49.814-49.791 78.247-116.129 28.433-66.337 28.433-141.173 0-75.836-28.42-141.704-28.42-65.869-78.21-115.682-49.791-49.814-115.629-78.247-65.837-28.433-141.673-28.433-74.836 0-141.204 28.42-66.369 28.42-116.182 78.21-49.814 49.791-78.247 115.629-28.433 65.837-28.433 141.673 0 74.836 28.42 141.204 28.42 66.369 78.21 116.182 49.791 49.814 116.129 78.247 66.337 28.433 141.173 28.433ZM480-168q-130 0-221-91t-91-221q0-130 91-221t221-91q130 0 221 91t91 221q0 130-91 221t-221 91Zm0-312Z"/></svg>