<svg xmlns="http://www.w3.org/2000/svg" height="20" viewBox="0 -960 960 960" width="20"><path d="M376.385-164.001q-12.461 0-24.307-4.423-11.847-4.424-21.693-14.27L183.078-329.616q-9.846-9.846-14.461-21.692-4.616-11.846-4.616-24.308v-207.999q0-12.461 4.616-24.307 4.615-11.847 14.461-21.693L220.464-667 104.309-782.385q-8.307-8.308-8.807-18.076-.5-9.769 7.807-18.077 8.692-8.692 18.577-8.692 9.884 0 18.576 8.692l679.076 679.076q8.307 8.307 8.5 17.884.192 9.577-8.5 18.269-8.692 8.692-18.077 8.692-9.384 0-18.076-8.692L667-218.694l-37.77 36.385q-8.846 8.461-20.5 13.385-11.654 4.923-23.73 4.923H376.385ZM480-311.539q11.538 0 19.423-12.385 7.884-12.384 7.884-23.922 0-11.539-7.884-15.923-7.885-4.385-19.423-4.385-11.538 0-19.923 8.385-8.384 8.384-8.384 19.923 0 11.538 8.384 19.922 8.385 8.385 19.923 8.385Zm274.153 5.461L505.999-554.231v-84.077q0-10.769-7.615-18.384T480-664.307q-10.769 0-18.384 7.615t-7.615 18.384v32.078L306.847-753.384l23.538-23.538q9.846-9.846 21.693-14.461 11.846-4.616 24.307-4.616h207.23q12.461 0 24.807 4.616 12.347 4.615 21.193 14.461l147.307 147.307q9.846 8.846 14.461 21.193 4.616 12.346 4.616 24.807v209.384q0 12.077-4.731 23.73-4.731 11.654-14.577 21.5l-22.538 22.923Z"/></svg>