<svg xmlns="http://www.w3.org/2000/svg" height="20" viewBox="0 -960 960 960" width="20"><path d="M754.153-306.078 718-344l26-26v-219.111L589-744H371l-27 27-37.153-36.384 23.538-23.538q9.846-9.846 21.581-14.461 11.735-4.616 24.419-4.616h207.23q12.684 0 24.419 4.616 11.735 4.615 21.581 14.461l147.307 147.307q9.846 9.846 14.461 21.581 4.616 11.735 4.616 24.419v209.384q0 12.077-4.731 23.73-4.731 11.654-14.577 21.211l-22.538 23.212ZM505.999-556.001v-82.307q0-11.069-7.404-18.534-7.405-7.465-18.384-7.465-10.98 0-18.595 7.465-7.615 7.465-7.615 18.534v30.309l51.998 51.998Zm-129.614 392q-12.684 0-24.419-4.423-11.735-4.424-21.581-14.27L183.078-329.616q-9.846-9.846-14.461-21.581-4.616-11.735-4.616-24.419v-207.999q0-12.684 4.616-24.419 4.615-11.735 14.461-21.581L220.464-667 104.13-782.737q-8.128-7.956-8.628-17.724-.5-9.769 7.807-18.077 8.692-8.692 18.577-8.692 9.884 0 18.576 8.692l679.076 679.076q8.307 8.307 8.5 17.884.192 9.577-8.5 18.269-8.692 8.692-18.077 8.692-9.384 0-17.812-8.34L667-218.694l-37.77 36.385q-8.505 8.541-20.329 13.425-11.825 4.883-23.901 4.883H376.385ZM528-528ZM371-216h218l40.847-39.847-374-374L216-589v218.525L371-216Zm108.912-95.539q-11.45 0-19.835-8.174-8.384-8.174-8.384-19.923 0-11.749 8.174-20.133 8.174-8.385 19.922-8.385 11.749 0 19.634 4.385 7.884 4.384 7.884 15.923 0 11.538-7.972 23.922-7.972 12.385-19.423 12.385Zm-40.065-129.308Z"/></svg>