<svg xmlns="http://www.w3.org/2000/svg" height="20" viewBox="0 -960 960 960" width="20"><path d="M378.615-521.846q16.231-23.923 42.769-39.038Q447.923-576 480-576q49.846 0 84.923 35.109 35.077 35.108 35.077 85Q600-406 564.923-371 529.846-336 480-336q-24.539 0-45.616-9.154-21.077-9.154-36.692-25.077-6.461-4.692-13.153-5-6.693-.308-11.769 5.538-5.692 6.847-4.731 14.154.962 7.308 7.039 12 21.461 20.384 48.038 31.807 26.577 11.423 56.884 11.423 65.384 0 110.538-45.153Q635.691-390.616 635.691-456q0-65.384-45.153-110.538Q545.384-611.691 480-611.691q-40.673 0-73.221 18.807-32.548 18.808-53.24 45.808v-45.231q0-7.708-5.07-12.777-5.069-5.069-12.776-5.069-7.708 0-12.777 5.069-5.069 5.069-5.069 12.777v81.853q0 9.454 7.423 16.877 7.423 7.423 16.877 7.423H424q7.707 0 12.777-5.069 5.069-5.07 5.069-12.777 0-7.707-5.069-12.777-5.07-5.069-12.777-5.069h-45.385Zm-102.59 405.845q-27.024 0-45.524-18.65t-18.5-45.658v-599.382q0-27.008 18.65-45.658 18.65-18.65 45.658-18.65h264.306q12.684 0 24.419 4.616 11.735 4.615 21.581 14.461l142.307 142.307q9.846 9.846 14.461 21.581 4.616 11.735 4.616 24.419v456.306q0 27.008-18.662 45.658-18.662 18.65-45.686 18.65H276.025Z"/></svg>