<svg xmlns="http://www.w3.org/2000/svg" height="20" viewBox="0 -960 960 960" width="20"><path d="M324.309-164.001q-26.527 0-45.417-18.891-18.891-18.89-18.891-45.417V-696h-22q-11.05 0-18.525-7.418-7.475-7.418-7.475-18.384 0-10.966 7.475-18.581 7.475-7.616 18.525-7.616H384v-12q0-12.992 9.196-22.188 9.196-9.196 22.188-9.196h129.232q12.992 0 22.188 9.196Q576-772.991 576-759.999v12h145.999q11.05 0 18.525 7.419 7.475 7.418 7.475 18.384 0 10.966-7.475 18.581T721.999-696h-22v467.257q0 27.261-18.891 46.001-18.89 18.741-45.417 18.741H324.309Zm129.692-322.616v134.626q0 11.111 7.418 18.627 7.418 7.517 18.384 7.517 10.966 0 18.581-7.517 7.615-7.516 7.615-18.627v-134.626l48.925 49.309q8.307 8.307 18.743 8.5 10.435.192 18.493-8.199 8.609-8.609 8.609-18.493 0-9.884-8.693-18.576l-89.906-89.907q-9.709-9.708-22.352-9.708t-22.125 9.846l-89.769 89.769q-8.308 8.307-7.808 18.076t8.891 18.16q8.609 8.609 18.685 8.416 10.077-.192 18.384-8.884l47.925-48.309Z"/></svg>