<svg xmlns="http://www.w3.org/2000/svg" height="20" viewBox="0 -960 960 960" width="20"><path d="M480.595-674.308q-10.979 0-18.594-7.465-7.616-7.465-7.616-18.534v-120q0-11.069 7.405-18.534 7.405-7.465 18.384-7.465 10.98 0 18.595 7.465 7.615 7.465 7.615 18.534v120q0 11.069-7.405 18.534-7.404 7.465-18.384 7.465Zm194.235 84.077q-8.214-8.307-8.022-18.576.193-10.269 8.5-18.577l85.385-84.615q7.923-7.923 17.692-7.807 9.769.115 18.554 8.422 8.214 8.308 8.022 18.577-.192 10.269-8.5 18.576l-85.385 84.616q-7.922 7.922-17.691 7.807-9.769-.115-18.555-8.423Zm-387.891 0q-8.401 7.923-18.67 7.923-10.269 0-18.576-7.923l-86.769-83.846q-8.308-7.944-8-18.279.307-10.335 8.521-18.643 8.786-8.307 19.247-8.115 10.462.192 18.769 8.5l85 84.23q8.308 7.923 8.5 17.885.192 9.961-8.022 18.268ZM137.846-174.002l-63.23-64.229q-14.384-14-14.692-34.077-.307-20.077 14.077-34.462 74-77.307 178.73-125.269Q357.462-480 480-480q122.538 0 227.461 47.961 104.923 47.962 178.538 125.269 14.385 14.385 14.077 34.462-.308 20.077-14.692 34.077l-63.23 64.229Q810-162.233 792.423-158.848t-35.346-9l-99.614-70.461q-10.924-8.538-17.193-20.192-6.269-11.654-6.269-23.838V-402.54q-40.385-13.692-77.277-19.577-36.892-5.884-76.724-5.884t-76.724 5.884q-36.892 5.885-77.277 19.577v120.201q0 12.184-6.269 23.838-6.269 11.654-17.193 20.192l-99.614 70.461q-17.769 12.385-35.846 8.5-18.077-3.885-29.231-14.654Zm136.155-218q-43.924 20.308-84.963 49.347-41.039 29.039-72.039 59.962-1.923 1.923-1.923 3.846t1.923 3.847l52.847 52.461q1.923 1.924 4.808 2.501t5.192-1.347l89.539-63.384q1.923-1.539 3.269-3.847 1.347-2.308 1.347-4.231v-99.155Zm411.998-.769v99.924q0 1.923 1.347 4.231 1.346 2.308 3.269 3.847l89.539 63.384q2.307 1.924 5.192 1.347 2.885-.577 4.808-2.501l52.847-53.231q1.923-1.923 1.923-3.846t-1.923-3.847q-31-31.153-71.539-59.885-40.539-28.731-85.463-49.423Zm-411.998 0Zm411.998-.769Z"/></svg>