<svg xmlns="http://www.w3.org/2000/svg" height="20" viewBox="0 -960 960 960" width="20"><path d="M372-154.001q-56.154 0-95.076-39.097-38.923-39.098-38.923-94.475v-300.351q-37-12-60.5-42.076-23.5-30.077-23.5-65.869 0-45.888 32.57-78.009t77.884-32.121q45.314 0 77.429 32.121t32.115 78.009q0 37.792-24 66.869-24 29.076-60 40.076v300.983q0 33.801 24.172 57.871 24.172 24.071 58.116 24.071t57.829-24.088q23.885-24.088 23.885-57.913v-384q0-56.154 38.923-95.076 38.922-38.923 95.076-38.923 56.154 0 95.076 38.923 38.923 38.922 38.923 95.076v300.924q36 11 60 40.076 24 29.077 24 66.869 0 45.888-32.07 78.009t-77.884 32.121q-44.814 0-77.429-32.121t-32.615-78.009q0-34.792 24-65.869 24-31.076 60-41.851v-300.52q0-33.754-24.172-57.692-24.173-23.938-58.116-23.938-33.944 0-57.829 24.088-23.885 24.088-23.885 57.913v384q0 56.154-38.923 95.076-38.922 38.923-95.076 38.923Z"/></svg>