<svg xmlns="http://www.w3.org/2000/svg" height="20" viewBox="0 -960 960 960" width="20"><path d="M473.846-116.001q-75.226 0-141.388-28.42-66.161-28.42-115.961-78.21-49.8-49.791-78.225-116.087-28.425-66.296-28.425-141.673 0-75.378 28.425-141.246 28.425-65.869 78.225-115.682 49.8-49.814 115.961-78.247 66.162-28.433 141.388-28.433 70.384 0 136.076 27.193 65.692 27.192 115.545 76.529 10.3 9.6 10.3 22.4 0 12.801-9.846 22.647L528.307-498q-15.077 15.076-34.769 6.764-19.692-8.312-19.692-29.687V-792q-130 0-221 91t-91 221q0 130 91 221t221 91q74.231 0 139.039-33.346 64.808-33.347 110.961-91.963v76.383q-50.23 48.693-114.96 74.809-64.729 26.116-135.04 26.116ZM822.043-240q-10.966 0-18.581-7.475-7.616-7.475-7.616-18.524V-540q0-11.05 7.419-18.524 7.418-7.475 18.384-7.475 10.966 0 18.581 7.475 7.615 7.474 7.615 18.524v274.001q0 11.049-7.418 18.524Q833.009-240 822.043-240Zm.013 117.075q-11.941 0-20.229-8.078-8.288-8.078-8.288-20.019 0-11.941 8.077-20.229 8.078-8.288 20.019-8.288 11.941 0 20.23 8.077 8.288 8.078 8.288 20.019 0 11.941-8.078 20.23-8.078 8.288-20.019 8.288Z"/></svg>