<svg xmlns="http://www.w3.org/2000/svg" height="20" viewBox="0 -960 960 960" width="20"><path d="M320.001-131.387H166.31q-14.846 0-24.384-9.846-9.539-9.846-8.154-24.692 9.538-128.845 83.23-212.421 73.692-83.576 200.999-109.499V-607.46q-40.846-5.616-85.115-17.577-44.269-11.962-83.153-33.154-38.885-21.192-67.731-53.192-28.846-31.999-40.23-77.461-4-15.077 6.231-27.423 10.23-12.346 25.307-12.346h613.38q15.077 0 25.307 12.539 10.231 12.538 6.231 27.615-11.769 45.461-40.615 77.461-28.846 32-67.538 53.192-38.692 21.192-82.961 32.961-44.269 11.769-85.115 17.385v119.615q127.307 25.923 200.999 109.499t83.23 212.421q1.385 14.846-8.154 24.692-9.538 9.846-24.384 9.846H639.999q-10.769 0-18.385-7.615-7.615-7.616-7.615-18.384 0-10.769 7.615-18.385 7.616-7.615 18.385-7.615h133.538q-14.153-113.845-93.999-185.884Q599.692-441.308 480-441.308q-119.692 0-199.038 72.038-79.346 72.039-94.499 185.884h133.538q10.769 0 18.385 7.615 7.615 7.616 7.615 18.385 0 10.768-7.615 18.384-7.616 7.615-18.385 7.615ZM480-657.613q108.694 0 176.155-33.962t101.152-85.039H202.693q35.306 52.077 101.96 85.539Q371.306-657.613 480-657.613Zm0 526.226q-27.154 0-44.576-17.423-17.423-17.423-17.423-44.576 0-13.693 4.038-24.462 4.039-10.769 13.885-19.23 7.076-7.077 21.538-17.231 14.461-10.154 38.153-19.384l72.999-30q10.231-5 18.462 2.731 8.23 7.731 3.23 17.961l-33.999 80.615q-9.231 21.692-17.885 34.345-8.653 12.654-14.73 18.731-8.462 9.846-19.231 13.884-10.769 4.039-24.461 4.039Zm0-524.226Z"/></svg>