<svg xmlns="http://www.w3.org/2000/svg" height="20" viewBox="0 -960 960 960" width="20"><path d="M667.384-120.617q-51.749 0-87.874-36.125-36.124-36.124-36.124-87.874 0-51.749 36.124-87.874 36.125-36.124 87.874-36.124 51.75 0 87.874 36.124 36.125 36.125 36.125 87.874 0 51.75-36.125 87.874-36.124 36.125-87.874 36.125Zm.213-51.999q29.787 0 50.787-21.212t21-51q0-29.788-21.212-50.788-21.213-21-51-21-29.788 0-50.788 21.213-21 21.212-21 51 0 29.787 21.213 50.787 21.212 21 51 21Zm-374.981-68.001q-51.75 0-87.874-36.125-36.125-36.124-36.125-87.874 0-51.749 36.125-87.874 36.124-36.124 87.874-36.124 51.749 0 87.874 36.124 36.124 36.125 36.124 87.874 0 51.75-36.124 87.874-36.125 36.125-87.874 36.125Zm.212-51.999q29.788 0 50.788-21.212 21-21.212 21-51t-21.213-50.788q-21.212-21-51-21-29.787 0-50.787 21.213-21 21.212-21 51 0 29.787 21.212 50.787t51 21ZM432-540.309q-51.749 0-87.874-36.124-36.125-36.125-36.125-87.874 0-51.75 36.125-87.874 36.125-36.125 87.874-36.125 51.749 0 87.874 36.125 36.125 36.124 36.125 87.874 0 51.749-36.125 87.874-36.125 36.124-87.874 36.124Zm.212-51.998q29.788 0 50.788-21.213 21-21.212 21-51 0-29.787-21.212-50.787-21.213-21-51-21-29.788 0-50.788 21.212-21 21.213-21 51 0 29.788 21.212 50.788 21.213 21 51 21Zm235.172 347.691Zm-374.768-120ZM432-664.307Z"/></svg>