<svg xmlns="http://www.w3.org/2000/svg" height="20" viewBox="0 -960 960 960" width="20"><path d="M702.154-401.846h-74.308q-7.733 0-12.789 5.052-5.056 5.051-5.056 12.776t5.056 12.795q5.056 5.069 12.789 5.069h77.846q13.665 0 22.91-9.244 9.244-9.245 9.244-22.91v-77.846q0-7.733-5.052-12.789-5.051-5.056-12.776-5.056-7.726 0-12.795 5.056t-5.069 12.789v74.308ZM257.846-654.154h74.308q7.733 0 12.789-5.052 5.056-5.051 5.056-12.776 0-7.726-5.056-12.795t-12.789-5.069h-77.846q-13.665 0-22.91 9.244-9.244 9.245-9.244 22.91v77.846q0 7.733 5.052 12.789 5.051 5.056 12.776 5.056t12.795-5.056q5.069-5.056 5.069-12.789v-74.308Zm-77.537 394.153q-27.008 0-45.658-18.662-18.65-18.662-18.65-45.686v-407.626q0-27.024 18.65-45.524t45.658-18.5h599.382q27.008 0 45.658 18.662 18.65 18.662 18.65 45.686v407.626q0 27.024-18.65 45.524t-45.658 18.5H603.999v63.846q0 13.665-9.233 22.909-9.233 9.245-22.881 9.245H388.438q-13.648 0-23.042-9.245-9.395-9.244-9.395-22.909v-63.846H180.309Z"/></svg>