<svg xmlns="http://www.w3.org/2000/svg" height="20" viewBox="0 -960 960 960" width="20"><path d="M375.077-357.925h234q28.538 0 49.268-20.371 20.731-20.371 20.731-49.768 0-29.397-20.331-49.435-20.33-20.037-49.668-20.037h-11.031q-4.123-44.232-35.678-76.309-31.555-32.077-77.752-32.077-36.462 0-64.462 20.885-27.999 20.885-38.768 52.115h-14.078q-34.471 0-57.35 26.154-22.879 26.153-22.879 60.845 0 36.922 25.538 62.46 25.538 25.538 62.46 25.538Zm0-51.998q-15.3 0-25.65-10.35-10.35-10.35-10.35-25.65 0-14 8-24.5t21-10.5h48.154v-5q0-29 19.692-48.5 19.693-19.5 51.001-19.5 27.993 0 46.15 22.991 18.157 22.992 18.157 53.471v31.538h57.846q8 0 13 5t5 13q0 8-5 13t-13 5h-234ZM180.309-212.001q-27.008 0-45.658-18.662-18.65-18.662-18.65-45.686v-407.626q0-27.024 18.65-45.524t45.658-18.5h599.382q27.008 0 45.658 18.662 18.65 18.662 18.65 45.686v407.626q0 27.024-18.65 45.524t-45.658 18.5H180.309Zm0-51.999h599.382q4.616 0 8.463-3.846 3.846-3.847 3.846-8.463v-407.382q0-4.616-3.846-8.463-3.847-3.846-8.463-3.846H180.309q-4.616 0-8.463 3.846-3.846 3.847-3.846 8.463v407.382q0 4.616 3.846 8.463 3.847 3.846 8.463 3.846ZM168-264V-696-264Z"/></svg>