<svg xmlns="http://www.w3.org/2000/svg" height="20" viewBox="0 -960 960 960" width="20"><path d="M555.077-116.001q-8.077 0-13.73-5.654-5.654-5.654-5.654-13.731V-360q0-8.077 5.654-13.731 5.653-5.653 13.73-5.653h67.384l32.923-44.923H769.23l32.923 44.923h67.384q8.077 0 13.731 5.653 5.653 5.654 5.653 13.731v224.614q0 8.077-5.653 13.731-5.654 5.654-13.731 5.654h-314.46Zm157.23-65.846q27.308 0 46.577-19.269t19.269-46.577q0-27.307-19.269-46.576-19.269-19.27-46.577-19.27-27.307 0-46.576 19.27-19.27 19.269-19.27 46.576 0 27.308 19.27 46.577 19.269 19.269 46.576 19.269ZM456-116.001h-9.537q-11.462 0-20.423-6.654-8.962-6.654-10.962-18.115l-15.615-83.077q-26.077-9.385-52.962-24.077-26.885-14.693-48.193-33.77l-78.538 27.231q-10.846 3.615-21.5-.693-10.654-4.307-16.885-14.153l-33.152-57.768q-5.847-9.846-4.231-21.307 1.615-11.462 10.461-18.692l62.308-54.693q-2.385-13.923-3.962-28.423-1.577-14.5-1.577-29.423 0-14.539 1.577-28.847 1.577-14.308 3.962-29.769l-62.308-54.693q-8.846-7.23-10.653-18.692-1.808-11.461 4.423-21.307l33.152-56.998q6.231-9.846 16.693-14.654 10.461-4.808 21.307-.192l78.538 26.846q22.462-19.462 48.385-33.962 25.924-14.501 52.77-24.27l16-82.307q2-11.462 11.346-18.5 9.346-7.039 20.808-7.039h65.152q11.461 0 20.999 7.039 9.539 7.038 11.539 18.5l15.615 82.692q28 10.538 52.578 24.269 24.577 13.731 47.423 33.578l80.077-26.846q10.846-3.616 21.307.5 10.462 4.115 16.693 13.961l33.152 56.998q6.231 9.846 4.423 21.5-1.807 11.654-10.653 18.884l-70.77 60.847q1 6.769 1.692 14.038.693 7.27 1.693 14.039H597.921q-6.846-42.538-38.884-71.268-32.038-28.731-80.576-28.731-51.922 0-87.96 36.038-36.038 36.039-36.038 87.961 0 45.922 28.807 79.653 28.808 33.73 72.73 41.576v242.77Z"/></svg>