<svg xmlns="http://www.w3.org/2000/svg" height="20" viewBox="0 -960 960 960" width="20"><path d="m269.924-139.848-89.523-89.522q-9.708-9.708-9.708-22.351 0-12.643 9.846-22.126l89.523-89.522q7.784-7.785 18.12-7.977 10.335-.193 17.894 8.115 7.923 7.923 8.116 18.192.192 10.269-8.116 18.191l-47.924 49.309H780q11.069 0 18.534 7.405 7.465 7.405 7.465 18.384 0 10.98-7.465 18.595-7.465 7.615-18.534 7.615H258.152l47.924 49.309q8.308 7.923 8.308 17.999 0 10.077-8.308 18.384-7.922 7.923-18.258 7.923-10.335 0-17.894-7.923Zm-9.692-300.614q-20.192 0-34.211-14.019-14.02-14.019-14.02-34.212v-343.536q0-20.192 14.02-34.211 14.019-14.019 34.211-14.019h439.536q20.192 0 34.211 14.019 14.02 14.019 14.02 34.211v343.536q0 20.193-14.02 34.212-14.019 14.019-34.211 14.019H260.232ZM264-686.46h190.001v-142.001h-180.77q-3.846 0-6.538 2.693-2.693 2.692-2.693 6.539v132.769Zm241.999 0H696v-132.769q0-3.847-2.693-6.539-2.692-2.693-6.538-2.693h-180.77v142.001Zm-51.998 193.999v-142H264v132.769q0 3.846 2.693 6.539 2.692 2.692 6.538 2.692h180.77Zm51.998 0h180.77q3.846 0 6.538-2.692 2.693-2.693 2.693-6.539v-132.769H505.999v142Z"/></svg>