<svg xmlns="http://www.w3.org/2000/svg" height="20" viewBox="0 -960 960 960" width="20"><path d="M339.001-532.059q0 49.059 49 94.751 48.999 45.692 81.153 75.615 4.949 4.615 10.654 4.615t10.544-4.544q32.032-28.994 81.34-74.801 49.307-45.808 49.307-95.192 0-31.72-23.137-54.629-23.136-22.909-55.171-22.909-19.076 0-36.017 8.183-16.941 8.182-26.674 20.74-10.846-12.558-28.019-20.74-17.173-8.183-35.057-8.183-31.72 0-54.822 22.778-23.101 22.777-23.101 54.316ZM480-121.155q-5.231 0-11.231-.5t-10.623-2.5q-122.53-43-196.337-152.077Q188.001-385.308 188.001-515v-171.153q0-20.483 11.106-36.87 11.106-16.387 29.894-23.591l227.692-87q11.846-4.615 23.307-4.615 11.461 0 23.307 4.615l227.692 87q18.788 7.204 29.894 23.591 11.106 16.387 11.106 36.87V-515q0 129.692-73.808 238.768-73.807 109.077-196.337 152.077-4.623 2-10.623 2.5-6 .5-11.231.5ZM480-171q104-32.25 172-129t68-215v-171.538q0-3.846-2.116-6.923-2.115-3.078-5.962-4.616l-227.691-87q-1.923-.769-4.231-.769t-4.231.769l-227.691 87q-3.847 1.538-5.962 4.616-2.116 3.077-2.116 6.923V-515q0 118.25 68 215t172 129Zm0-307.231Z"/></svg>