<svg xmlns="http://www.w3.org/2000/svg" height="20" viewBox="0 -960 960 960" width="20"><path d="M210.224-233.385q-12.916 0-21.878-8.737-8.961-8.738-8.961-21.654t8.737-21.878q8.738-8.961 21.654-8.961t21.878 8.737q8.961 8.738 8.961 21.654t-8.737 21.878q-8.738 8.961-21.654 8.961Zm180 0q-12.916 0-21.878-8.737-8.961-8.738-8.961-21.654t8.737-21.878q8.738-8.961 21.654-8.961t21.878 8.737q8.961 8.738 8.961 21.654t-8.737 21.878q-8.738 8.961-21.654 8.961Zm180 0q-12.916 0-21.878-8.737-8.961-8.738-8.961-21.654t8.737-21.878q8.738-8.961 21.654-8.961t21.878 8.737q8.961 8.738 8.961 21.654t-8.737 21.878q-8.738 8.961-21.654 8.961Zm180 0q-12.916 0-21.878-8.737-8.961-8.738-8.961-21.654t8.737-21.878q8.738-8.961 21.654-8.961t21.878 8.737q8.961 8.738 8.961 21.654t-8.737 21.878q-8.738 8.961-21.654 8.961Zm-630-144q-12.916 0-21.878-8.737-8.961-8.738-8.961-21.654t8.737-21.878q8.738-8.961 21.654-8.961t21.878 8.737q8.961 8.738 8.961 21.654t-8.737 21.878q-8.738 8.961-21.654 8.961Zm180 0q-12.916 0-21.878-8.737-8.961-8.738-8.961-21.654t8.737-21.878q8.738-8.961 21.654-8.961t21.878 8.737q8.961 8.738 8.961 21.654t-8.737 21.878q-8.738 8.961-21.654 8.961Zm180 0q-12.916 0-21.878-8.737-8.961-8.738-8.961-21.654t8.737-21.878q8.738-8.961 21.654-8.961t21.878 8.737q8.961 8.738 8.961 21.654t-8.737 21.878q-8.738 8.961-21.654 8.961Zm180 0q-12.916 0-21.878-8.737-8.961-8.738-8.961-21.654t8.737-21.878q8.738-8.961 21.654-8.961t21.878 8.737q8.961 8.738 8.961 21.654t-8.737 21.878q-8.738 8.961-21.654 8.961Zm180 0q-12.916 0-21.878-8.737-8.961-8.738-8.961-21.654t8.737-21.878q8.738-8.961 21.654-8.961t21.878 8.737q8.961 8.738 8.961 21.654t-8.737 21.878q-8.738 8.961-21.654 8.961Zm-630-144q-12.916 0-21.878-8.737-8.961-8.738-8.961-21.654t8.737-21.878q8.738-8.961 21.654-8.961t21.878 8.737q8.961 8.738 8.961 21.654t-8.737 21.878q-8.738 8.961-21.654 8.961Zm180 0q-12.916 0-21.878-8.737-8.961-8.738-8.961-21.654t8.737-21.878q8.738-8.961 21.654-8.961t21.878 8.737q8.961 8.738 8.961 21.654t-8.737 21.878q-8.738 8.961-21.654 8.961Zm180 0q-12.916 0-21.878-8.737-8.961-8.738-8.961-21.654t8.737-21.878q8.738-8.961 21.654-8.961t21.878 8.737q8.961 8.738 8.961 21.654t-8.737 21.878q-8.738 8.961-21.654 8.961Zm180 0q-12.916 0-21.878-8.737-8.961-8.738-8.961-21.654t8.737-21.878q8.738-8.961 21.654-8.961t21.878 8.737q8.961 8.738 8.961 21.654t-8.737 21.878q-8.738 8.961-21.654 8.961Zm-630-144q-12.916 0-21.878-8.737-8.961-8.738-8.961-21.654t8.737-21.878q8.738-8.961 21.654-8.961t21.878 8.737q8.961 8.738 8.961 21.654t-8.737 21.878q-8.738 8.961-21.654 8.961Zm180 0q-12.916 0-21.878-8.737-8.961-8.738-8.961-21.654t8.737-21.878q8.738-8.961 21.654-8.961t21.878 8.737q8.961 8.738 8.961 21.654t-8.737 21.878q-8.738 8.961-21.654 8.961Zm180 0q-12.916 0-21.878-8.737-8.961-8.738-8.961-21.654t8.737-21.878q8.738-8.961 21.654-8.961t21.878 8.737q8.961 8.738 8.961 21.654t-8.737 21.878q-8.738 8.961-21.654 8.961Zm180 0q-12.916 0-21.878-8.737-8.961-8.738-8.961-21.654t8.737-21.878q8.738-8.961 21.654-8.961t21.878 8.737q8.961 8.738 8.961 21.654t-8.737 21.878q-8.738 8.961-21.654 8.961Zm180 0q-12.916 0-21.878-8.737-8.961-8.738-8.961-21.654t8.737-21.878q8.738-8.961 21.654-8.961t21.878 8.737q8.961 8.738 8.961 21.654t-8.737 21.878q-8.738 8.961-21.654 8.961Z"/></svg>