<svg xmlns="http://www.w3.org/2000/svg" height="20" viewBox="0 -960 960 960" width="20"><path d="M480-696q-27.693 0-53.616 8.039-25.923 8.038-49.692 21.346-10.538 5.077-21.807 3.654-11.269-1.423-19.577-9.731-8.307-8.307-6.423-18.076 1.885-9.769 10.423-15.846 31.077-20.385 66.654-30.885t74.038-10.5q38.461 0 74.038 10.5t66.654 30.885q8.538 6.077 10.423 15.846 1.884 9.769-6.423 18.076-8.308 8.308-19.577 9.731-11.269 1.423-21.807-3.654-22.769-13.308-48.885-21.346Q508.308-696 480-696Zm0-144q-55.923 0-108.346 17.346-52.424 17.347-97.578 49.039-9.538 6.692-21.191 6.769-11.654.077-19.961-8.23-8.308-8.308-7.116-19.461 1.193-11.154 10.116-16.846 52.692-40 114.845-60.308Q412.923-891.999 480-891.999t129.231 20.308q62.153 20.308 114.845 60.308 8.923 5.692 10.616 16.846 1.692 11.153-6.616 19.461-8.307 8.307-20.461 8.23-12.153-.077-21.691-6.769-45.154-31.692-97.578-49.039Q535.923-840 480-840Zm-88.307 728.614q-30.308 0-47.307-17-17-16.999-17-47.307v-320.614q0-30.308 17-47.307 16.999-17 47.307-17h176.614q30.308 0 47.307 17 17 16.999 17 47.307v320.614q0 30.308-17 47.307-16.999 17-47.307 17H391.693Z"/></svg>