<svg xmlns="http://www.w3.org/2000/svg" height="20" viewBox="0 -960 960 960" width="20"><path d="M278.867-393.231q12.902 0 22.248-9.136 9.346-9.136 9.346-22.038 0-12.903-9.135-22.249Q292.19-456 279.288-456q-12.903 0-22.249 9.136-9.346 9.135-9.346 22.038 0 12.902 9.135 22.248 9.136 9.347 22.039 9.347Zm0-127.385q12.902 0 22.248-9.135 9.346-9.136 9.346-22.038 0-12.903-9.135-22.249-9.136-9.346-22.038-9.346-12.903 0-22.249 9.135-9.346 9.136-9.346 22.038 0 12.903 9.135 22.249 9.136 9.346 22.039 9.346Zm0-127.384q12.902 0 22.248-9.135 9.346-9.136 9.346-22.039 0-12.902-9.135-22.248-9.136-9.347-22.038-9.347-12.903 0-22.249 9.136-9.346 9.136-9.346 22.038 0 12.903 9.135 22.249Q265.964-648 278.867-648Zm135.748 249.384H588q11.069 0 18.534-7.405 7.465-7.405 7.465-18.384 0-10.98-7.465-18.595-7.465-7.615-18.534-7.615H414.615q-11.069 0-18.534 7.405-7.465 7.404-7.465 18.384 0 10.979 7.465 18.594 7.465 7.616 18.534 7.616Zm0-127.385H684q11.069 0 18.534-7.404 7.465-7.405 7.465-18.384 0-10.98-7.465-18.595-7.465-7.615-18.534-7.615H414.615q-11.069 0-18.534 7.404-7.465 7.405-7.465 18.384 0 10.98 7.465 18.595 7.465 7.615 18.534 7.615Zm0-127.384H684q11.069 0 18.534-7.405 7.465-7.404 7.465-18.384 0-10.979-7.465-18.594-7.465-7.616-18.534-7.616H414.615q-11.069 0-18.534 7.405-7.465 7.405-7.465 18.384 0 10.98 7.465 18.595 7.465 7.615 18.534 7.615ZM241.539-260.001l-70.959 70.958q-15.194 15.194-34.886 6.942-19.693-8.252-19.693-29.747v-567.843q0-27.008 18.65-45.658 18.65-18.65 45.658-18.65h599.382q27.008 0 45.658 18.65 18.65 18.65 18.65 45.658v455.382q0 27.008-18.65 45.658-18.65 18.65-45.658 18.65H241.539ZM220.001-312h559.69q4.616 0 8.463-3.846 3.846-3.847 3.846-8.463v-455.382q0-4.616-3.846-8.463-3.847-3.846-8.463-3.846H180.309q-4.616 0-8.463 3.846-3.846 3.847-3.846 8.463v520.076L220.001-312ZM168-312v-480V-312Z"/></svg>