<svg xmlns="http://www.w3.org/2000/svg" height="20" viewBox="0 -960 960 960" width="20"><path d="M480-548.001q-51.749 0-87.874-36.125-36.125-36.125-36.125-87.874 0-51.749 36.125-87.874 36.125-36.125 87.874-36.125 51.749 0 87.874 36.125 36.125 36.125 36.125 87.874 0 51.749-36.125 87.874-36.125 36.125-87.874 36.125Zm-192 384q-51.749 0-87.874-36.125-36.125-36.125-36.125-87.874 0-51.749 36.125-87.874 36.125-36.125 87.874-36.125 51.749 0 87.874 36.125 36.125 36.125 36.125 87.874 0 51.749-36.125 87.874-36.125 36.125-87.874 36.125Zm384 0q-51.749 0-87.874-36.125-36.125-36.125-36.125-87.874 0-51.749 36.125-87.874 36.125-36.125 87.874-36.125 51.749 0 87.874 36.125 36.125 36.125 36.125 87.874 0 51.749-36.125 87.874-36.125 36.125-87.874 36.125Z"/></svg>