<svg xmlns="http://www.w3.org/2000/svg" height="20" viewBox="0 -960 960 960" width="20"><path d="M173.233-697.623v-80.246q0-8.746 7.556-13.669 7.555-4.923 15.751-.307l79.884 40.394q8.808 4.529 8.808 13.605 0 9.077-8.803 13.646l-79.837 40.785q-8.282 4.184-15.821-.639-7.538-4.823-7.538-13.569Zm529.843 0v-80.246q0-8.746 7.555-13.669 7.556-4.923 15.752-.307l79.884 40.394q8.808 4.529 8.808 13.605 0 9.077-8.803 13.646l-79.837 40.785q-8.283 4.184-15.821-.639t-7.538-13.569Zm-266.46-44.923v-80.245q0-8.746 7.555-13.67 7.556-4.923 15.752-.307l79.884 40.394q8.808 4.529 8.808 13.605 0 9.077-8.803 13.646l-79.837 40.785q-8.282 4.184-15.821-.639-7.538-4.823-7.538-13.569Zm-92.385 627.237q-105.461-10.23-167.999-40.692-62.538-30.461-62.538-63.845v-332.615q0-20.871 27.384-38.743 27.385-17.872 76.353-30.929 48.969-13.058 115.731-20.692Q399.923-650.46 480-650.46t146.838 7.635q66.762 7.634 115.731 20.692 48.968 13.057 76.353 30.929 27.384 17.872 27.384 38.743v332.615q0 32.999-62.653 63.461-62.653 30.461-168.5 40.692-10.769 1-17.961-5.693-7.193-6.692-7.193-17.461v-43q0-45.769-32.115-77.884T480-291.846q-45.769 0-77.884 32.115t-32.115 77.884v42q0 10.384-7.484 17.961-7.484 7.577-18.286 6.577ZM480-506.46q90.154 0 166.731-10.616 76.578-10.615 119.963-33-19.539-22.078-105.809-35.231Q574.616-598.461 480-598.461q-97.616 0-182.385 12.654-84.77 12.653-104.309 35.731 43.385 22.385 115.539 33Q380.999-506.46 480-506.46Z"/></svg>