<svg xmlns="http://www.w3.org/2000/svg" height="20" viewBox="0 -960 960 960" width="20"><path d="M205.923-130.001q-31.957 0-54.132-22.175-22.175-22.174-22.175-54.132v-312.538q-30.154-21.847-38.27-56-8.115-34.154 2.5-66.846l38.782-132.154q7.68-25.23 26.928-40.692 19.249-15.461 45.988-15.461h548.562q26.74 0 46.086 14.769t27.432 40.615l38.76 132.923q9.615 32.692 0 65.615-9.615 32.923-36.769 57v312.769q0 31.958-22.175 54.132-22.175 22.175-54.133 22.175H205.923Zm361.692-421.998q28.77 0 45.77-19.73 17-19.731 14-42.347l-23.208-151.925h-92.562v153.561q0 24.601 16.077 42.521t39.923 17.92Zm-179 0q24.616 0 41.809-17.92 17.192-17.92 17.192-42.521v-153.561h-92.463l-23.462 152.488q-3.076 20.283 12.539 40.898 15.616 20.616 44.385 20.616Zm-178 0q21.031 0 36.132-15.5 15.1-15.501 18.869-36.962l24.539-161.54h-80.958q-6.539 0-10.385 2.885-3.847 2.885-5.77 8.655l-36.427 127.153q-8.924 28.77 7.961 52.039 16.885 23.27 46.039 23.27Zm538 0q27.462 0 45.693-22.5 18.231-22.501 9.308-52.809l-37.461-127.923q-1.924-5.769-5.77-8.27-3.846-2.5-10.385-2.5h-80.924l24.539 161.54q3.769 21.461 18.869 36.962 15.1 15.5 36.131 15.5Z"/></svg>