<svg xmlns="http://www.w3.org/2000/svg" height="20" viewBox="0 -960 960 960" width="20"><path d="M302.518-116.001v-233.462h-68.44q-34.032 0-58.554-24.415-24.523-24.416-24.523-59.296 0-25.287 13.385-45.403 13.384-20.115 36.307-30.576l253.308-112.231v-35.924q-31.462-7.923-50.577-33.249t-19.115-57.448q0-40.174 27.857-68.084 27.857-27.91 67.653-27.91 39.796 0 67.642 28.039 27.846 28.038 27.846 67.653h-52.768q0-18.57-12.23-31.131Q498.079-792 480-792q-18.569 0-31.131 12.501-12.562 12.501-12.562 30.981 0 18.48 11.987 31.192T478-704.614q11.9 0 19.949 8.624 8.05 8.625 8.05 21.375v53.231l252.923 112.231q22.896 10.544 36.486 30.572 13.591 20.028 13.591 45.278 0 34.827-24.635 59.334-24.634 24.506-58.672 24.506h-68.693v233.462H302.518Zm-68.44-285.46h68.44v-22.846h354.481v22.846h68.539q13.524 0 22.493-9.308T757-433.154q0-9.808-4.404-17.558t-13.212-11.904L480-575.693 222-461.616q-8.307 4.154-13.654 11.904-5.346 7.75-5.346 17.558 0 13.299 8.741 21.996 8.74 8.697 22.337 8.697Z"/></svg>