<svg xmlns="http://www.w3.org/2000/svg" height="20" viewBox="0 -960 960 960" width="20"><path d="M96.617-430.001v-51.998h123.999v51.998H96.617Zm181.384-190.845-87.768-88.153 36.768-37.153 87.768 88.153-36.768 37.153Zm-37.953 388.691q-16.586 0-28.086-11.452t-11.5-28.038q0-16.586 11.452-28.086t28.038-11.5q16.586 0 28.086 11.452 11.5 11.453 11.5 28.038 0 16.586-11.452 28.086t-28.038 11.5Zm67.953-197.846V-456q0-71.602 50.265-121.801 50.264-50.198 121.96-50.198t121.735 50.198Q651.999-527.602 651.999-456v25.999H308.001Zm52.047 341.846q-16.586 0-28.086-11.452t-11.5-28.038q0-16.586 11.452-28.086t28.038-11.5q16.586 0 28.086 11.452 11.5 11.453 11.5 28.038 0 16.586-11.452 28.086t-28.038 11.5Zm120-144q-16.586 0-28.086-11.452t-11.5-28.038q0-16.586 11.452-28.086t28.038-11.5q16.586 0 28.086 11.452 11.5 11.453 11.5 28.038 0 16.586-11.452 28.086t-28.038 11.5Zm-26.047-483.229v-123.999h51.998v123.999h-51.998ZM600.048-88.155q-16.586 0-28.086-11.452t-11.5-28.038q0-16.586 11.452-28.086t28.038-11.5q16.586 0 28.086 11.452 11.5 11.453 11.5 28.038 0 16.586-11.452 28.086t-28.038 11.5Zm81.951-532.691-36.768-37.153 87.768-88.153 36.768 37.153-87.768 88.153Zm38.049 388.691q-16.586 0-28.086-11.452t-11.5-28.038q0-16.586 11.452-28.086t28.038-11.5q16.586 0 28.086 11.452 11.5 11.453 11.5 28.038 0 16.586-11.452 28.086t-28.038 11.5Zm19.336-197.846v-51.998h123.999v51.998H739.384Z"/></svg>