<svg xmlns="http://www.w3.org/2000/svg" height="20" viewBox="0 -960 960 960" width="20"><path d="M443-116.001q-22.077 0-41.961-8.231-19.885-8.231-35.731-24.077L190.593-322.312q-8.708-8.843-8.612-19.958.097-11.115 9.558-19.808l4.846-4.846q10.538-10.153 23.538-13.115 12.999-2.961 27.384.5l98.694 23.232V-684q0-11.05 7.418-18.524 7.418-7.475 18.384-7.475 10.966 0 18.581 7.475 7.615 7.474 7.615 18.524v354.922q0 15.077-12.579 25.423-12.579 10.346-27.42 5.73l-95.233-24.693 138.309 137.925q8.539 8.539 19.425 12.616Q431.388-168 443-168h146.999q44.216 0 75.108-30.893Q696-229.785 696-274.001v-180q0-11.049 7.418-18.524Q710.836-480 721.802-480q10.966 0 18.581 7.475 7.616 7.475 7.616 18.524v180q0 66.154-45.923 112.077t-112.001 45.923H443ZM488.341-576q10.966 0 18.581 7.475t7.615 18.524V-420q0 11.05-7.418 18.524-7.418 7.475-18.384 7.475-10.966 0-18.581-7.475-7.615-7.474-7.615-18.524v-130.001q0-11.049 7.418-18.524Q477.375-576 488.341-576Zm116.923 48q10.966 0 18.581 7.45 7.615 7.449 7.615 18.462v81.825q0 11.013-7.418 18.637-7.418 7.625-18.384 7.625-10.966 0-18.581-7.449-7.615-7.45-7.615-18.462v-81.826q0-11.012 7.418-18.637T605.264-528ZM785-699.999q-55.77-71.692-134.116-109.192t-170.038-37.5q-99.384 0-183.538 44.231-84.154 44.23-131.077 118.076-5.846 7.923-13.525 14t-17.508 6.077q-7.043 0-9.812-7.304-2.769-7.304 1.846-15.157 48.693-88.846 143.846-142.23 95.153-53.384 209.768-53.384 98.769 0 182.692 39.923t144.769 114.077v-97.771q0-7.733 5.051-12.789 5.052-5.057 12.777-5.057t12.794 5.057q5.07 5.056 5.07 12.789v129.692q0 13.666-9.245 22.91-9.244 9.244-22.909 9.244H682.153q-7.733 0-12.79-5.051-5.056-5.052-5.056-12.777t5.056-12.794q5.057-5.07 12.79-5.07H785ZM544.461-297.307Z"/></svg>