<svg xmlns="http://www.w3.org/2000/svg" height="20" viewBox="0 -960 960 960" width="20"><path d="M565.999-298.001q-69.055 0-119.642-44.5-50.588-44.5-60.458-111.5H215.922l48.924 48.925q8.308 8.307 8.5 18.743.192 10.435-8.115 18.409-8.692 8.693-18.577 8.693-9.884 0-18.576-8.693l-89.369-89.639q-5.015-5.031-7.323-10.579-2.308-5.549-2.308-12.001 0-6.451 2.308-12t6.923-10.164l89.769-89.769q8.307-8.308 18.743-8.5 10.436-.193 18.41 8.5 8.307 7.974 8.307 18.217 0 10.243-8.286 18.529l-49.33 49.331h169.977q9.87-67 60.403-111.5 50.534-44.5 119.516-44.5 75.95 0 129.065 53.341 53.116 53.341 53.116 128.884 0 75.543-53.276 128.658-53.275 53.115-128.724 53.115Z"/></svg>