<svg xmlns="http://www.w3.org/2000/svg" height="20" viewBox="0 -960 960 960" width="20"><path d="M720.233-418.001h-46.117q-11.099 0-18.608-7.478Q648-432.958 648-444.013q0-11.056 7.508-18.521 7.509-7.465 18.608-7.465h46.117V-516q0-11.05 7.512-18.524 7.512-7.475 18.478-7.475 10.966 0 18.371 7.475 7.405 7.474 7.405 18.524v46.001h45.79q10.96 0 18.585 7.418t7.625 18.384q0 10.966-7.475 18.465-7.475 7.498-18.525 7.498h-46v46.117q0 11.1-7.479 18.608-7.479 7.508-18.534 7.508-10.756 0-18.254-7.475-7.499-7.474-7.499-18.524v-46.001ZM538.77-758.232q-66.231 47.846-103.116 121.154-36.885 73.308-36.885 156.232 0 90.416 44 168.593 44 78.177 122.077 125.792 9.984 6.065 14.3 16.51 4.315 10.445-1.762 20.505-6.077 10.061-17.807 11.33-11.731 1.269-21.653-4.569-89.077-54.162-140.116-143.517-51.038-89.356-51.038-194.259 0-91.308 40.539-173.155Q427.848-735.462 500.002-792H371.231q-11.05 0-18.525-7.418-7.475-7.418-7.475-18.384 0-10.966 7.475-18.581 7.475-7.616 18.525-7.616h187.384q13.665 0 22.909 9.245 9.245 9.244 9.245 22.909v187.384q0 11.05-7.419 18.525-7.418 7.475-18.384 7.475-10.966 0-18.581-7.475t-7.615-18.525v-133.771Z"/></svg>