<svg xmlns="http://www.w3.org/2000/svg" height="20" viewBox="0 -960 960 960" width="20"><path d="M106.001-169.999V-492q0-11.05 7.418-18.524 7.418-7.475 18.384-7.475 10.966 0 18.581 7.475 7.615 7.474 7.615 18.524v70.001h89.309l146.693-392.462V-876q0-11.05 7.418-18.524 7.418-7.475 18.384-7.475 10.966 0 18.581 7.475 7.615 7.474 7.615 18.524v70.001h68.002V-876q0-11.05 7.418-18.524 7.418-7.475 18.384-7.475 10.966 0 18.581 7.475 7.615 7.474 7.615 18.524v61.539l146.693 392.462h89.309V-492q0-11.05 7.418-18.524 7.418-7.475 18.384-7.475 10.966 0 18.581 7.475 7.615 7.474 7.615 18.524v322.001q0 26.188-18.905 45.093-18.905 18.905-45.093 18.905H570.154q-13.665 0-22.909-9.244t-9.244-22.909v-159.847H421.999v159.847q0 13.665-9.244 22.909t-22.909 9.244H169.999q-26.188 0-45.093-18.905-18.905-18.905-18.905-45.093Zm224.536-324h298.926l-42.155-116.002H372.692l-42.155 116.002Zm63-168h172.926l-33.155-92.002H426.692l-33.155 92.002Zm-235.538 504h212.002v-128.002q0-26.188 18.905-45.093 18.905-18.905 45.093-18.905h92.002q26.188 0 45.093 18.905 18.905 18.905 18.905 45.093v128.002h212.002v-212.002h-81.694q-19.506 0-35.636-11.13-16.13-11.13-23.132-29.638l-11.538-28.924-340.309-2.308-11.231 31.232q-7.002 18.508-23.132 29.638-16.13 11.13-35.636 11.13h-81.694v212.002ZM480-439.693Z"/></svg>