<svg xmlns="http://www.w3.org/2000/svg" height="20" viewBox="0 -960 960 960" width="20"><path d="m335.539-705.384 93.616-123.232q9.825-12.769 23.134-18.845 13.309-6.077 27.47-6.077 14.16 0 27.469 6.077 13.309 6.076 23.617 18.845l93.616 123.232H335.539Zm-85.538 144v-62.309q-41.308-15.461-65.462-52.384-24.153-36.923-29.384-80.922 0-11.069 7.404-18.534 7.405-7.466 18.384-7.466 10.98 0 18.595 7.466 7.615 7.465 7.615 18.534 5.847 38.384 33.078 66.692 27.23 28.308 56.769 28.308h366q29.539 0 56.769-28.808 27.231-28.808 33.078-67.192 0-11.069 7.404-18.534 7.405-7.466 18.385-7.466 10.979 0 18.594 7.466 7.615 7.465 7.615 18.534-3.077 43.615-27.423 81.037-24.346 37.423-67.423 53.269v62.309H250.001Zm-48 391.385v-295.694q-60.308-3.692-99.846-47.999-39.538-44.308-43-100.307 0-11.069 7.404-18.534 7.405-7.466 18.384-7.466 10.98 0 18.595 7.466 7.615 7.465 7.615 18.534 5.847 40.384 34.578 68.192 28.73 27.808 69.269 27.808h530q39.539 0 68.269-27.808 28.731-27.808 35.578-68.192 0-11.069 7.404-18.534 7.405-7.466 18.385-7.466 10.979 0 18.594 7.466 7.615 7.465 7.615 18.534-3.692 55.615-40.231 99.922-36.538 44.307-102.615 48.384v295.694q0 26.188-18.905 45.093-18.905 18.905-45.093 18.905h-75.847q-13.761 0-22.957-9.196-9.196-9.196-9.196-22.957V-192q0-43.846-31.077-74.924-31.078-31.077-74.924-31.077-43.846 0-74.924 31.077-31.077 31.078-31.077 74.924v53.846q0 13.761-9.196 22.957-9.196 9.196-22.957 9.196h-75.847q-26.188 0-45.093-18.905-18.905-18.905-18.905-45.093Z"/></svg>