<svg xmlns="http://www.w3.org/2000/svg" height="20" viewBox="0 -960 960 960" width="20"><path d="M165.307-154.001q-46.153 0-78.46-32.307-32.308-32.308-32.308-78.461 0-46.154 32.307-78.461 32.308-32.308 78.461-32.308 14.859 0 28.891 3.192 14.033 3.193 26.802 10.347l159.231-217.944q-17-18.211-26-41.544t-9-49.359q0-56.538 39.116-95.653 39.115-39.116 95.653-39.116 56.538 0 95.653 39.116 39.116 39.115 39.116 96.095 0 25.732-9 48.991t-26 41.47l158.846 218.328q12.77-7.154 26.928-10.538 14.158-3.385 29.15-3.385 46.153 0 78.461 32.308 32.307 32.307 32.307 78.461 0 46.153-32.307 78.461-32.308 32.307-78.461 32.307-46.154 0-78.462-32.307-32.307-32.308-32.307-78.461 0-16.77 5.154-30.962t13.692-27.192l-165.462-227.54q-7.462 5.078-15.099 7.501-7.638 2.423-16.21 3.565v167.341q37 8.133 60.885 37.595 23.885 29.461 23.885 69.307 0 46.154-32.308 78.461-32.307 32.308-78.461 32.308-46.154 0-78.461-32.308-32.308-32.307-32.308-78.461 0-39.846 23.885-69.5 23.885-29.653 60.885-37.576v-167.167q-8.929-1.142-16.888-3.565-7.959-2.423-14.421-7.501l-164.847 227.54q8.539 13 13.385 27.192t4.846 30.962q0 46.153-32.307 78.461-32.308 32.307-78.462 32.307Zm0-51.998q24.632 0 41.701-17.07 17.07-17.069 17.07-41.7 0-24.631-17.07-41.701-17.069-17.069-41.701-17.069-24.631 0-41.7 17.069-17.07 17.07-17.07 41.701t17.07 41.7q17.069 17.07 41.7 17.07ZM480-670.846Zm0 464.462q24.631 0 41.701-17.069 17.069-17.07 17.069-41.701t-17.069-41.7q-17.07-17.07-41.701-17.07t-41.701 17.07q-17.069 17.069-17.069 41.7 0 24.631 17.069 41.701 17.07 17.069 41.701 17.069Zm314.693.385q24.631 0 41.7-17.07 17.07-17.069 17.07-41.7 0-24.631-17.07-41.701-17.069-17.069-41.7-17.069-24.632 0-41.701 17.069-17.07 17.07-17.07 41.701t17.07 41.7q17.069 17.07 41.701 17.07Zm-629.386-58.77ZM480-265.154Zm314.693.385ZM480.212-588.076q34.231 0 58.394-24.376 24.164-24.376 24.164-58.606 0-34.231-24.376-58.394-24.376-24.164-58.606-24.164-34.231 0-58.394 24.376-24.164 24.376-24.164 58.606 0 34.231 24.376 58.394 24.376 24.164 58.606 24.164Z"/></svg>