<svg xmlns="http://www.w3.org/2000/svg" height="20" viewBox="0 -960 960 960" width="20"><path d="M119.788-250.001q-25.942 0-43.864-18.135Q58-286.271 58-312.212q0-25.942 17.963-43.864 17.964-17.923 43.664-17.923 6.141 0 11.603 1.077t10.846 3.231l209.232-208.751q-3.154-5.865-4.231-10.827t-1.077-11.103q0-25.7 18.135-43.664 18.135-17.963 44.076-17.963 25.942 0 43.864 18.073 17.923 18.072 17.923 43.926 0 4.539-4.538 20.308l114.091 114.231q5.525-2.384 9.959-3.461 4.434-1.077 10.346-1.077t11.182 1.077q5.269 1.077 10.269 3.231l162.001-161.661q-3.154-5.34-4.231-10.109-1.077-4.77-1.077-10.911 0-25.7 18.135-43.664 18.135-17.963 44.076-17.963 25.942 0 43.864 18.135 17.923 18.135 17.923 44.076 0 25.942-17.963 43.864-17.964 17.923-43.664 17.923-6.141 0-11.411-1.077-5.269-1.077-10.269-3.231L656.691-428.648q3.154 5.34 4.231 10.109 1.077 4.77 1.077 10.911 0 25.7-18.135 43.664-18.135 17.963-44.076 17.963-25.942 0-43.864-17.963-17.923-17.964-17.923-43.664 0-6.141 1.077-11.603t3.231-10.846L429.171-543.309q-5.478 3.154-10.44 4.231T408-538.001q-6.539 0-21.308-3.538l-209.231 208.75q2.384 5.866 3.461 10.443t1.077 10.718q0 25.7-18.135 43.664-18.135 17.963-44.076 17.963Z"/></svg>