<svg xmlns="http://www.w3.org/2000/svg" height="20" viewBox="0 -960 960 960" width="20"><path d="M180.309-308.001q-26.827 0-45.567-18.741-18.741-18.74-18.741-45.567v-215.382q0-26.827 18.741-45.567 18.74-18.741 45.567-18.741h599.382q25.827 0 45.067 18.741 19.241 18.74 19.241 45.567v215.382q0 26.827-19.241 45.567-19.24 18.741-45.067 18.741H180.309ZM372-480h82.001v-120H372q-25 0-42.5 17.5T312-540q0 25 17.5 42.5T372-480Zm133.999 0H588q25 0 42.5-17.5T648-540q0-25-17.5-42.5T588-600h-82.001v120Z"/></svg>