<svg xmlns="http://www.w3.org/2000/svg" height="20" viewBox="0 -960 960 960" width="20"><path d="M317.54-88.926q-13.923-46.461-24.846-99.423-10.923-52.961-10.923-106.807 0-62.769 13.577-129.768 13.577-67 60.653-123.077v-162.614l86-181.384h16.307v195.153q-5 5-8.5 11.308-3.5 6.307-3.5 13.923 0 13.846 9.923 23.576 9.923 9.731 23.769 9.731 13.846 0 23.769-9.731 9.923-9.73 9.923-23.576 0-7.616-3.5-13.923-3.5-6.308-8.5-11.308v-195.153h16.307l86 181.384v162.614q48.076 56.077 61.153 123.077 13.077 66.999 13.077 129.768 0 54.461-7.231 108.115-7.231 53.654-28.153 97.115-34.615-11.462-53.923-37.961-19.307-26.5-19.692-70.5 0-29.615 4.5-59.231 4.5-29.615 4.5-58.461 0-64-29.769-113.038T480-523.309q-39.077 45.923-68.654 94.192-29.576 48.269-29.576 110.73 0 30.385 3.5 60.577 3.5 30.192 4.115 60.192 1 44.615-18.115 71.038-19.115 26.423-53.73 37.654Z"/></svg>