<svg xmlns="http://www.w3.org/2000/svg" height="20" viewBox="0 -960 960 960" width="20"><path d="m264.306-539.001 48.925 48.925q8.307 8.307 8.5 18.384.192 10.076-8.5 18.768-8.692 8.693-18.577 8.693-9.884 0-18.576-8.693l-89.907-89.906q-9.708-9.709-9.708-22.352t9.846-22.125l89.769-89.769q8.307-8.308 18.384-8.5 10.077-.193 18.769 8.5 8.692 8.692 8.692 18.576t-8.692 18.576l-48.925 48.925h310.006q26.526 0 45.299 18.842t18.773 45.465v288.691q0 11.069-7.405 18.534-7.404 7.466-18.384 7.466-10.979 0-18.594-7.466-7.616-7.465-7.616-18.534v-288.691q0-5.385-3.461-8.847-3.462-3.462-8.847-3.462H264.306Z"/></svg>