<svg xmlns="http://www.w3.org/2000/svg" height="20" viewBox="0 -960 960 960" width="20"><path d="M480-116.001q-74.769 0-141.115-28.462-66.346-28.461-116.153-78.269-49.808-49.807-78.269-116.153Q116.001-405.231 116.001-480q0-59.154 18.924-114.731 18.923-55.577 53.615-102.808l-56.231-56.231q-7.923-7.923-8.115-18.192-.193-10.269 8.115-18.576 8.307-8.308 18.384-8.308t18.384 8.308L799.385-160.23q7.923 7.923 8.115 17.884.193 9.961-8.115 18.268-8.307 8.308-18.384 8.308t-18.384-8.308l-65.078-64.462q-47.231 34.692-102.808 53.615Q539.154-116.001 480-116.001Zm302.999-161.846L568.922-490.539l66.154-66.154q8.308-8.307 8-17.884-.307-9.577-9-18.269-8.307-8.307-17.884-8.307-9.576 0-18.268 8.307l-65.154 64.77-254.923-254.923q44.923-29.692 96.461-45.346Q425.846-843.999 480-843.999q75.769 0 141.615 28.462 65.846 28.461 115.653 78.269 49.808 49.807 78.269 115.653Q843.999-555.769 843.999-480q0 54.154-15.654 105.692-15.654 51.538-45.346 96.461ZM323.154-455.924l82.769 83.769q9.846 9.846 22.308 9.846 12.461 0 22.307-9.846l31.001-31-36.153-37.153-21.155 21.155-68.924-68.923q-7.307-7.308-15.884-8-8.577-.693-16.269 7-7.692 7.692-7.692 16.576t7.692 16.576Z"/></svg>