<svg xmlns="http://www.w3.org/2000/svg" height="20" viewBox="0 -960 960 960" width="20"><path d="M479.788-113.694q-25.942 0-43.864-18.072-17.923-18.073-17.923-43.927 0-18.372 9.5-33.763 9.5-15.39 26.5-22.083v-114.462h-120q-27.008 0-45.658-18.54-18.649-18.541-18.649-45.395v-78.525q-16.616-7.462-26.308-22.231-9.692-14.769-9.692-33.615 0-25.854 18.135-43.927 18.135-18.072 44.076-18.072t43.864 18.072q17.923 18.073 17.923 43.927 0 18.846-9.692 34-9.693 15.153-26.308 21.846v78.153q0 4.616 3.847 8.462 3.846 3.847 8.462 3.847h120v-316.616h-39.846q-9.346 0-13.827-9.346-4.48-9.346 2.457-17.637l64.754-75.015q4.923-6.231 12.615-6.231t12.307 6.231l64.755 75.015q6.936 8.291 2.456 17.637-4.481 9.346-13.827 9.346h-39.846v316.616h120q4.616 0 8.462-3.847 3.847-3.846 3.847-8.462v-72h-19.923q-7.231 0-11.654-4.423t-4.423-11.654v-91.845q0-7.23 4.423-11.653t11.654-4.423h91.845q7.23 0 11.653 4.423t4.423 11.653v91.845q0 7.231-4.423 11.654t-11.653 4.423h-19.924v72q0 27.008-18.649 45.657-18.65 18.65-45.658 18.65h-120v114.462q16.716 7.186 26.358 22.236t9.642 33.551q0 26.213-18.135 44.136-18.135 17.922-44.076 17.922Z"/></svg>