<svg xmlns="http://www.w3.org/2000/svg" height="20" viewBox="0 -960 960 960" width="20"><path d="M710.769-448.386v98.847l-51.999-51.998v-282.154q0-5.385-3.462-8.847-3.462-3.462-8.847-3.462H363.307l-51.998-51.999h335.152q27.008 0 45.658 18.65 18.65 18.65 18.65 45.658v170.077l96.845-96.845q6.846-6.846 17.384-3.257 10.538 3.59 10.538 13.718v237.873q0 10.584-10.538 14.007t-17.384-3.423l-96.845-96.845Zm51.076 325.614L109.464-774.154q-8.308-8.307-8-18.384.307-10.076 9-18.768 8.692-8.693 18.076-8.693t18.076 8.693l652.382 651.381q8.307 8.307 8 18.384-.308 10.077-9 18.769-8.692 8.692-18.077 8.692-9.384 0-18.076-8.692ZM511.231-549.076Zm-87.153 86.383ZM211.694-745.229 260.923-697h-21.844q-5.385 0-8.847 3.462-3.462 3.462-3.462 8.847v408.382q0 5.385 3.462 8.847 3.462 3.462 8.847 3.462h407.382q5.385 0 8.847-3.462 3.462-3.462 3.462-8.847v-23.844l51.229 51.229q-9.923 15-23.846 25.961-13.923 10.962-39.411 10.962H239.079q-26.308 0-45.308-18.692t-19-45.758v-408.24q0-21.344 10.462-36.48 10.461-15.135 26.461-24.058Z"/></svg>