<svg xmlns="http://www.w3.org/2000/svg" height="20" viewBox="0 -960 960 960" width="20"><path d="M180.309-212.001q-27.008 0-45.658-18.662-18.65-18.662-18.65-45.686v-407.626q0-27.024 18.65-45.524t45.658-18.5h599.382q27.008 0 45.658 18.662 18.65 18.662 18.65 45.686v407.626q0 27.024-18.65 45.524t-45.658 18.5H180.309Zm0-51.999h599.382q4.616 0 8.463-3.846 3.846-3.847 3.846-8.463v-407.382q0-4.616-3.846-8.463-3.847-3.846-8.463-3.846H180.309q-4.616 0-8.463 3.846-3.846 3.847-3.846 8.463v407.382q0 4.616 3.846 8.463 3.847 3.846 8.463 3.846Zm498.373-31.293 65.636-245.799q3.682-12.601-3.356-24.447-7.039-11.846-19.5-15.076L321.154-688.154q-12.462-3.231-24.308 3.808-11.846 7.038-15.528 19.639l-65.636 244.645q-3.682 12.601 3.356 24.447 7.039 11.846 19.5 15.076l400.308 108.693q12.462 3.231 24.308-3.808 11.846-7.038 15.528-19.639Zm-45.45-32.474-362.849-97.386 56.385-207.464 362.849 97.001-56.385 207.849ZM168-264V-696-264Z"/></svg>