<svg xmlns="http://www.w3.org/2000/svg" height="20" viewBox="0 -960 960 960" width="20"><path d="M658.998-531.308q11.846-7.572 11.846-20.863 0-13.29-11.846-20.521L492.769-678.614q-12.462-7.231-24.615-.472Q456-672.326 456-657.922v211.844q0 14.404 12.154 21.164 12.153 6.759 24.615-.472l166.229-105.922Zm-344.69 271.307q-27.008 0-45.657-18.65-18.65-18.65-18.65-45.658v-455.382q0-27.008 18.65-45.658 18.649-18.65 45.657-18.65h455.383q27.007 0 45.657 18.65 18.65 18.65 18.65 45.658v455.382q0 27.008-18.65 45.658-18.65 18.65-45.657 18.65H314.308ZM190.309-136.003q-27.007 0-45.657-18.65-18.65-18.65-18.65-45.657v-481.382q0-11.069 7.405-18.534 7.404-7.465 18.384-7.465 10.979 0 18.595 7.465 7.615 7.465 7.615 18.534v481.382q0 4.616 3.846 8.462 3.847 3.847 8.462 3.847h481.382q11.069 0 18.534 7.404 7.466 7.405 7.466 18.384 0 10.98-7.466 18.595-7.465 7.615-18.534 7.615H190.309Z"/></svg>