<svg xmlns="http://www.w3.org/2000/svg" height="20" viewBox="0 -960 960 960" width="20"><path d="M600-164.001q-27.008 0-45.657-18.65-18.65-18.65-18.65-45.658v-503.382q0-26.308 18.65-45.308 18.649-19 45.657-19h119.383q26.307 0 45.307 19 19 19 19 45.308v503.382q0 27.008-19 45.658-19 18.65-45.307 18.65H600Zm-359.383 0q-27.007 0-45.657-18.65-18.65-18.65-18.65-45.658v-503.382q0-26.308 18.65-45.308t45.657-19H360q26.307 0 45.307 19 19 19 19 45.308v503.382q0 27.008-19 45.658-19 18.65-45.307 18.65H240.617Z"/></svg>