<svg xmlns="http://www.w3.org/2000/svg" height="20" viewBox="0 -960 960 960" width="20"><path d="M753.845-116.001H223.848q-34.55 0-53.352-28.539-18.802-28.538-5.34-60.691l70.845-167.383q7.231-18.077 23.26-28.731 16.029-10.654 35.817-10.654h102.385l35.923-141.615q5.23-21.692 23-36.038 17.769-14.347 40.076-14.347h159.307q21.568 0 38.514 13.462 16.947 13.461 22.793 34.153l98.076 359.383q7.846 31.538-10.926 56.269-18.773 24.731-50.381 24.731ZM223.848-168h528.997q6.154 0 9.808-5 3.654-5.001 1.731-10.77l-96.691-359.383q-1.154-4.231-4.424-6.539Q660-552 655.769-552H496.462q-3.846 0-6.923 2.116-3.078 2.115-4.616 5.577l-38.692 159.615q-2.616 10.846-11.154 17.769Q426.539-360 414.693-360H296.078q-3.847 0-6.732 1.923-2.885 1.923-4.423 5.385l-72.23 167.383q-2.693 6.154.961 11.732Q217.309-168 223.848-168Zm333.846-620.527v-71.825q0-11.031 7.404-18.646 7.405-7.616 18.384-7.616 10.98 0 18.595 7.44 7.615 7.44 7.615 18.472v71.825q0 11.032-7.405 18.647-7.404 7.615-18.384 7.615-10.979 0-18.594-7.44-7.615-7.44-7.615-18.472Zm135.922 32.836 51.385-51q8.308-8.307 18.077-7.807 9.768.5 17.691 8.329 8.308 8.401 8.308 18.971 0 10.569-8.09 18.304l-51.602 51.356q-8.308 8.308-18.077 7.423-9.769-.885-17.692-8.807-8.307-8.308-8.307-18.385 0-10.076 8.307-18.384Zm-255.615 36.769-51.385-51q-8.307-8.308-8.307-18.077 0-9.769 7.829-17.692 8.401-8.307 18.971-8.307 10.569 0 18.304 8.09l51.356 51.602q8.308 8.307 8.115 17.884-.192 9.577-8.115 17.5-8.307 8.307-18.384 8.307-10.076 0-18.384-8.307ZM223.848-168H212.693h551.691-540.536Z"/></svg>