<svg xmlns="http://www.w3.org/2000/svg" height="20" viewBox="0 -960 960 960" width="20"><path d="M742.231-136.232 597.614-281.233l-2.308 1.539-24.461 101.999q-4.615 17.077-17.884 28.308-13.27 11.231-31.731 11.231h-82.46q-18.461 0-31.731-11.231-13.269-11.231-17.884-28.308l-29.307-125.383q-45.154-28.768-72.5-76.038Q260.001-426.385 260.001-486q0-28.461 6.808-55.307 6.808-26.847 19.423-50.308L129.616-749.231q-7.922-7.923-8.115-17.691-.192-9.769 8.115-18.077 8.308-8.307 18.385-8.307 10.076 0 18.384 8.307l612.614 612.614q7.923 7.923 8.115 17.884.192 9.962-8.115 18.269-8.308 8.308-18.384 8.308-10.077 0-18.384-8.308ZM480-318q16.539 0 33.808-3.654 17.27-3.654 31.423-10.962L326.616-551.231q-7.693 15.307-11.154 32.192Q312-502.154 312-486q0 70 49 119t119 49Zm193.383-63.385-39.999-39.999q6.539-14.923 10.577-30.539Q648-467.538 648-486q0-70-49-119t-119-49q-18.462 0-35.347 4.231-16.884 4.231-30.269 10.385l-50.614-50.614 1.924-1.154 24.461-103.153q4.615-17.462 17.384-28.5 12.77-11.039 31.231-11.039h82.46q18.461 0 31.231 11.231 12.769 11.231 17.384 28.308l28.307 123.383q47.308 29.153 74.577 78.191 27.27 49.039 27.27 106.731 0 29.231-7.385 55.192-7.385 25.962-19.231 49.423ZM440-190.155h80l20.769-85Q526-270.386 511-268.001q-15 2.384-31 2.384t-31-2.577q-15-2.577-29.769-6.961l20.769 85Zm-19.769-506.69Q435-701.229 450-703.614q15-2.385 30-2.385 15.385 0 29.692 2.385 14.308 2.385 29.077 6.769l-19.769-85h-78l-20.769 85ZM440-190.155h-20.769H540.769 440Zm-19.769-591.69H538.769 420.231Z"/></svg>