<svg xmlns="http://www.w3.org/2000/svg" height="20" viewBox="0 -960 960 960" width="20"><path d="M778-207.386 574.846-410.539v-19.537q0-10.096 10.538-13.702 10.539-3.606 17.385 3.24l205.229 205.229q6.846 6.846 3.241 17.385-3.606 10.538-13.702 10.538H778Zm-203.154-32.153V-297l89.614 89.614h-57.739q-13.087 0-22.481-9.244-9.394-9.244-9.394-22.909Zm-368.614 0v-296.154h-43.769q-10.096 0-13.702-10.538-3.605-10.539 3.241-17.385l160.537-160.536q9.482-9.847 22.125-9.847t22.49 9.847L517.69-563.616q6.846 6.846 3.241 17.385-3.606 10.538-13.702 10.538H463.46v296.154q0 13.665-9.236 22.909t-22.89 9.244H238.578q-13.654 0-23-9.244t-9.346-22.909Zm81.844-133.691h93.54v-162.463h-93.54v162.463Z"/></svg>