<svg xmlns="http://www.w3.org/2000/svg" height="20" viewBox="0 -960 960 960" width="20"><path d="M772.769-624.769q8.692 8.693 8.692 18.077 0 9.384-8.692 18.076l-39.77 39.77q-7.923 7.923-17.692 8.115-9.769.192-18.076-8.115-8.308-8.308-8.5-18.384-.192-10.077 8.115-18.384l39.77-39.77q7.923-8.307 17.691-8.192 9.769.115 18.462 8.807ZM132-154.001q-11.05 0-18.524-7.418-7.475-7.418-7.475-18.384 0-10.966 7.475-18.581 7.474-7.615 18.524-7.615h696q11.05 0 18.524 7.418 7.475 7.418 7.475 18.384 0 10.966-7.475 18.581-7.474 7.615-18.524 7.615H132Zm347.803-597.075q10.966 0 18.581 7.475t7.615 18.525v55.692q0 11.05-7.418 18.525-7.418 7.475-18.384 7.475-10.966 0-18.581-7.475t-7.615-18.525v-55.692q0-11.05 7.418-18.525 7.418-7.475 18.384-7.475ZM183.462-624.999q8.692-8.692 18.577-8.692 9.884 0 18.576 8.692l39.77 40.769q7.922 7.923 8.115 17.692.192 9.769-8.115 18.638-8.308 8.131-18.192 8.131t-18.577-8.308l-40.769-39.769q-8.308-7.59-8.192-18.026.115-10.435 8.807-19.127Zm30.847 316.998Q221.233-413 297.491-484.499q76.257-71.5 182.267-71.5 106.01 0 182.51 71.328 76.499 71.328 83.423 176.67H214.309Z"/></svg>