<svg xmlns="http://www.w3.org/2000/svg" height="20" viewBox="0 -960 960 960" width="20"><path d="M181.154-154.001q-11.154 0-17.461-8.846-6.308-8.846-4.692-20.614 6.769-42.462 20.269-115.116 13.5-72.653 34.846-142.307 21.346-69.654 50.038-121.385 28.692-51.73 65.846-51.73 46.385 0 79.692 78.924Q443-456.151 468.693-351.226q8.615-83.078 22.115-164.502 13.5-81.424 32.808-145.578 19.307-64.154 45.923-104.424 26.615-40.269 60.461-40.269 49.538 0 81.807 76.269 32.269 76.269 51.423 178.461 19.154 102.192 28.462 205.384 9.307 103.192 12.307 156.654 1 13.692-5.423 24.461-6.422 10.769-19.73 10.769-12.538 0-20.961-7.192-8.423-7.192-12.269-18.73Q726.847-248 692.462-309.001q-34.385-61-62.462-61-27.693 0-61.577 58.423-33.885 58.424-53.039 127.27-3.846 12.538-12.654 21.423-8.807 8.884-22.345 8.884-13.923 0-21.846-10.384-7.923-10.385-9.923-24.308-11.538-74.154-26.769-139.577-15.231-65.424-31.77-115.154-16.538-49.731-32.5-80.693-15.962-30.961-27.577-36.807-13 5.846-28.962 37-15.961 31.153-32 81.076Q253-392.924 237.769-326.924q-15.231 66-26.77 140.539-2 12.769-9.346 22.577-7.346 9.807-20.499 9.807Zm334.691-161.61q23.462-48.54 52.77-77.464 29.308-28.924 61.385-28.924t61.578 29.116q29.5 29.116 52.577 77.272-17-183.234-49.308-304.12T630-752.77q-32.154 12.153-64.655 133.232-32.5 121.078-49.5 303.927Z"/></svg>