<svg xmlns="http://www.w3.org/2000/svg" height="40" viewBox="0 -960 960 960" width="40"><path d="M344.257-551.026v163.334q0 9.307 6.1 15.422 6.1 6.116 15.384 6.116t15.31-6.116q6.025-6.115 6.025-15.422v-184.872q0-9.196-6.115-15.239-6.115-6.043-15.423-6.043h-61.487q-9.196 0-15.239 6.1-6.042 6.1-6.042 15.385 0 9.284 6.042 15.309 6.043 6.026 15.239 6.026h40.206Zm160.256 184.872h92.051q13.59 0 24.487-10.898 10.897-10.897 10.897-24.487v-156.922q0-13.59-10.897-24.487-10.897-10.898-24.487-10.898h-92.051q-13.846 0-24.615 10.898-10.769 10.897-10.769 24.487v156.922q0 13.59 10.769 24.487 10.769 10.898 24.615 10.898Zm7.435-34.308v-62.923h77.181v62.923h-77.181Zm0-96.153v-62.923h77.181v62.923h-77.181ZM202.565-140.001q-25.788 0-44.176-18.388t-18.388-44.176v-554.87q0-25.788 18.388-44.176t44.176-18.388h554.87q25.788 0 44.176 18.388t18.388 44.176v554.87q0 25.788-18.388 44.176t-44.176 18.388h-554.87Zm0-50.255h554.87q4.616 0 8.462-3.847 3.847-3.846 3.847-8.462v-554.87q0-4.616-3.847-8.462-3.846-3.847-8.462-3.847h-554.87q-4.616 0-8.462 3.847-3.847 3.846-3.847 8.462v554.87q0 4.616 3.847 8.462 3.846 3.847 8.462 3.847Zm-12.309-579.488V-190.256-769.744Z"/></svg>