<svg xmlns="http://www.w3.org/2000/svg" height="40" viewBox="0 -960 960 960" width="40"><path d="M628.784-362.359H526.129q-6.206 0-10.859-4.654-4.654-4.654-4.654-10.859v-204.666q0-6.308 4.654-11.039 4.653-4.73 10.859-4.73h102.655q17.701 0 29.895 12.138 12.193 12.139 12.193 29.759v152.153q0 17.621-12.193 29.759-12.194 12.139-29.895 12.139Zm-214.733 0H310.666q-9.044 0-14.958-6.032-5.913-6.031-5.913-15.256 0-9.225 6.03-15.045 6.029-5.82 15.251-5.82h96.155v-58.206h-58.924q-6.81 0-11.917-5.308-5.108-5.307-5.108-12.384t5.179-12.18q5.18-5.102 12.513-5.102h58.257v-57.796h-96.155q-9.222 0-15.251-6.082-6.03-6.082-6.03-15.384t6.03-15.328q6.029-6.025 15.251-6.025h103.042q15.395 0 25.664 10.369 10.269 10.369 10.269 25.374v164.377q0 15.346-10.35 25.587t-25.65 10.241Zm138.718-42.153h70.668q2.308 0 3.461-1.154 1.154-1.154 1.154-3.462v-141.744q0-2.308-1.154-3.462-1.153-1.154-3.461-1.154h-70.668v150.976Zm281.967-50.361q-10.736 0-17.864-7.224T809.744-480q0-126.359-83.36-219.821-83.359-93.462-209.565-107.718l44.103 44.104q6.821 6.815 7.013 17.086.192 10.272-6.917 17.348-7.11 7.077-17.282 7.077t-17.12-7.205l-106.461-106.46q-4.999-5-2.91-12.273 2.09-7.274 9.115-9.009 13.376-2.07 26.883-2.599 13.507-.529 26.757-.529 78.701 0 147.92 29.925t120.724 81.43q51.505 51.505 81.43 120.724 29.925 69.219 29.925 147.92 0 10.679-7.263 17.903-7.263 7.224-18 7.224ZM480-100.001q-78.439 0-147.789-29.925t-120.855-81.43q-51.505-51.505-81.43-120.855-29.925-69.35-29.925-147.789 0-10.679 7.263-17.903 7.263-7.224 18-7.224 10.736 0 17.864 7.224T150.256-480q0 125.974 83.693 219.628 83.693 93.655 209.642 107.911l-44.514-44.514q-6.82-6.816-7.012-17.087-.192-10.271 6.917-17.348 7.11-7.076 17.282-7.076t17.085 6.913l106.495 106.495q5 5.257 2.911 12.487-2.09 7.231-9.115 8.795-13.472 2.038-26.861 2.916-13.39.879-26.779.879Z"/></svg>