<svg xmlns="http://www.w3.org/2000/svg" height="40" viewBox="0 -960 960 960" width="40"><path d="M811.282-454.873h-57.436q-10.679 0-17.904-7.262-7.224-7.263-7.224-18 0-10.736 7.224-17.864 7.225-7.128 17.904-7.128h57.436v-57.437q0-10.429 7.262-17.778 7.262-7.35 17.996-7.35 10.485 0 17.741 7.35 7.256 7.349 7.256 17.778v57.437h57.181q10.679 0 17.903 7.262 7.224 7.263 7.224 18 0 10.736-7.224 17.864t-17.903 7.128h-57.181v57.181q0 10.679-7.386 17.903-7.387 7.224-18 7.224t-17.741-7.224q-7.128-7.224-7.128-17.903v-57.181ZM437.487-290.001q-25.608 0-44.086-18.477-18.477-18.478-18.477-44.086v-254.872q0-25.608 18.477-44.086 18.478-18.477 44.086-18.477h207.026q10.679 0 17.903 7.263 7.224 7.263 7.224 17.999 0 10.737-7.224 17.865-7.224 7.128-17.903 7.128H437.487q-5.128 0-8.718 3.461-3.59 3.462-3.59 8.847v254.872q0 5.385 3.59 8.847 3.59 3.461 8.718 3.461h169.59q5.128 0 8.718-3.461 3.59-3.462 3.59-8.847v-102.309h-54.872q-10.679 0-17.903-7.262-7.225-7.263-7.225-18 0-10.736 7.225-17.864 7.224-7.128 17.903-7.128h80q10.679 0 17.903 7.224 7.224 7.224 7.224 17.903v127.436q0 25.608-18.477 44.086-18.477 18.477-44.086 18.477h-169.59ZM106.41-644.872v182.052h109.745v-182.052q0-10.679 7.263-17.903 7.263-7.224 17.999-7.224 10.737 0 17.865 7.224 7.128 7.224 7.128 17.903v182.052h18.667q10.68 0 17.904 7.387t7.224 17.999q0 10.613-7.224 17.741t-17.904 7.128H266.41v97.437q0 10.679-7.263 17.903-7.263 7.224-17.999 7.224-10.737 0-17.865-7.224-7.128-7.224-7.128-17.903v-97.437H81.282q-10.679 0-17.903-7.224-7.224-7.224-7.224-17.903v-207.18q0-10.679 7.263-17.903 7.263-7.224 18-7.224 10.736 0 17.864 7.224t7.128 17.903Z"/></svg>