<svg xmlns="http://www.w3.org/2000/svg" height="40" viewBox="0 -960 960 960" width="40"><path d="M480.064-731.385q-29.038 0-49.782-20.679-20.743-20.679-20.743-49.718 0-29.038 20.679-49.782 20.679-20.743 49.718-20.743 29.038 0 49.782 20.679 20.743 20.679 20.743 49.717 0 29.039-20.679 49.783-20.679 20.743-49.718 20.743Zm-97.96 616.257v-502.77H164.36q-10.68 0-17.904-7.263t-7.224-18q0-10.736 7.224-17.864t17.904-7.128h631.28q10.68 0 17.904 7.263t7.224 17.999q0 10.737-7.224 17.865-7.224 7.128-17.904 7.128H577.896v502.77q0 10.679-7.263 17.903Q563.37-90 552.634-90q-10.737 0-17.865-7.224-7.128-7.224-7.128-17.903v-214.616h-95.282v214.616q0 10.698-7.263 17.913-7.263 7.214-18 7.214-10.736 0-17.864-7.224t-7.128-17.903Z"/></svg>