<svg xmlns="http://www.w3.org/2000/svg" height="40" viewBox="0 -960 960 960" width="40"><path d="M190.256-256.106V-190.256-769.744v513.638Zm12.309 116.105q-25.705 0-44.134-18.43-18.43-18.429-18.43-44.134v-554.87q0-25.705 18.43-44.134 18.429-18.43 44.134-18.43h554.87q25.705 0 44.134 18.43 18.43 18.429 18.43 44.134v125.36h-50.255v-125.36q0-5.385-3.462-8.847-3.462-3.462-8.847-3.462h-554.87q-5.385 0-8.847 3.462-3.462 3.462-3.462 8.847v554.87q0 5.385 3.462 8.847 3.462 3.462 8.847 3.462h554.87q5.385 0 8.847-3.462 3.462-3.462 3.462-8.847v-124.949h50.255v124.949q0 25.705-18.43 44.134-18.429 18.43-44.134 18.43h-554.87Zm338.37-166.359q-28.489 0-48.891-20.198-20.401-20.198-20.401-48.725v-209.024q0-28.526 20.401-48.724 20.402-20.198 48.891-20.198h250.551q28.802 0 49.196 20.198t20.394 48.724v209.024q0 28.527-20.394 48.725t-49.196 20.198H540.935Zm257.577-50.255q5.129 0 8.719-3.462t3.59-8.847v-221.742q0-5.128-3.59-8.718t-8.719-3.59H534.206q-5.129 0-8.719 3.59t-3.59 8.718v221.742q0 5.385 3.59 8.847 3.59 3.462 8.719 3.462h264.306Zm-152.406-61.488q25.663 0 43.702-18.173 18.038-18.173 18.038-44.134 0-25.834-18.275-43.661-18.276-17.826-43.622-17.826-25.667 0-43.911 17.826-18.243 17.827-18.243 43.661 0 25.961 18.174 44.134 18.174 18.173 44.137 18.173Z"/></svg>