<svg xmlns="http://www.w3.org/2000/svg" height="40" viewBox="0 -960 960 960" width="40"><path d="M710.975-215.538v89.077q0 6.41 4.967 11.102t11.589 4.692q6.315 0 10.879-4.964 4.564-4.964 4.564-11.241v-88.666h89.334q6.41 0 10.974-4.993t4.564-11.436q0-6.443-4.564-11.007t-10.974-4.564h-89.334v-89.077q0-6.718-4.564-11.256-4.564-4.539-11.007-4.539t-11.436 4.539q-4.992 4.538-4.992 11.256v89.077h-89.078q-6.41 0-11.102 4.538-4.692 4.539-4.692 11.161 0 6.315 4.938 11.308 4.939 4.993 11.523 4.993h88.411Zm15.174 157.434q-72.158 0-122.999-51.227-50.841-51.227-50.841-122.46 0-72.857 50.834-123.763 50.834-50.906 123.339-50.906 71.825 0 122.876 50.906t51.051 123.763q0 71.233-51.051 122.46-51.051 51.227-123.209 51.227ZM315.128-615.129h329.744q10.679 0 17.903-7.263 7.224-7.263 7.224-17.999 0-10.737-7.224-17.865-7.224-7.128-17.903-7.128H315.128q-10.679 0-17.903 7.263-7.224 7.263-7.224 18 0 10.736 7.224 17.864t17.903 7.128Zm169.769 475.128H202.565q-25.609 0-44.086-18.478-18.478-18.477-18.478-44.086v-554.87q0-25.609 18.478-44.086 18.477-18.478 44.086-18.478h554.87q25.609 0 44.086 18.478 18.478 18.477 18.478 44.086v282.64q-22.487-9.487-45.897-14.346T726.359-494q-16.981 0-33.074 2.428-16.094 2.427-31.748 6.675v-4.871q-2.288-6.359-9.589-10.859t-15.538-4.5H315.128q-10.679 0-17.903 7.262-7.224 7.263-7.224 18 0 10.736 7.224 17.864t17.903 7.128H592.54q-33.077 19.334-58.578 47.501-25.5 28.167-41.808 62.501H315.128q-10.679 0-17.903 7.263-7.224 7.263-7.224 17.999 0 10.737 7.224 17.865 7.224 7.128 17.903 7.128h158.847q-3.564 14.949-5.436 29.987-1.872 15.039-1.872 30.988 0 23.538 4.077 47.743 4.077 24.205 14.153 45.897Z"/></svg>