<svg xmlns="http://www.w3.org/2000/svg" height="40" viewBox="0 -960 960 960" width="40"><path d="M162.565-180.001q-25.788 0-44.176-18.388t-18.388-44.176v-474.87q0-25.788 18.388-44.176t44.176-18.388h634.87q25.788 0 44.176 18.388t18.388 44.176v211.126H150.256v263.744q0 4.616 3.847 8.462 3.846 3.847 8.462 3.847h345.999q10.679 0 17.903 7.263 7.224 7.263 7.224 17.999 0 10.737-7.224 17.865-7.224 7.128-17.903 7.128H162.565Zm-12.309-443.844h659.488v-93.59q0-4.616-3.847-8.462-3.846-3.847-8.462-3.847h-634.87q-4.616 0-8.462 3.847-3.847 3.846-3.847 8.462v93.59Zm629.488 413.844h-94.872q-10.679 0-17.903-7.263-7.225-7.263-7.225-17.999 0-10.737 7.225-17.865 7.224-7.128 17.903-7.128h94.872v-94.872q0-10.679 7.263-17.903 7.263-7.225 18-7.225 10.736 0 17.864 7.225 7.128 7.224 7.128 17.903v94.872h94.873q10.679 0 17.903 7.263 7.224 7.263 7.224 18 0 10.736-7.224 17.864t-17.903 7.128h-94.873v94.873q0 10.679-7.263 17.903Q815.473-90 804.737-90 794-90 786.872-97.225q-7.128-7.224-7.128-17.903v-94.873Zm-629.488-20.255V-729.744v499.488Z"/></svg>