<svg xmlns="http://www.w3.org/2000/svg" height="40" viewBox="0 -960 960 960" width="40"><path d="m241.539-260.001-88.333 88.332q-14.769 14.769-33.987 6.698-19.218-8.071-19.218-28.826v-603.638q0-25.788 18.388-44.176t44.176-18.388h634.87q25.788 0 44.176 18.388t18.388 44.176v474.87q0 25.788-18.388 44.176t-44.176 18.388H241.539Zm213.334-274.872v99.745q0 10.679 7.262 17.903 7.263 7.224 18 7.224 10.736 0 17.864-7.224t7.128-17.903v-99.745h99.745q10.679 0 17.903-7.262 7.224-7.263 7.224-18 0-10.736-7.224-17.864t-17.903-7.128h-99.745v-99.745q0-10.679-7.262-17.903-7.263-7.224-18-7.224-10.736 0-17.864 7.224t-7.128 17.903v99.745h-99.745q-10.679 0-17.903 7.262-7.224 7.263-7.224 18 0 10.736 7.224 17.864t17.903 7.128h99.745Z"/></svg>