<svg xmlns="http://www.w3.org/2000/svg" height="40" viewBox="0 -960 960 960" width="40"><path d="M710.975-297.436v89.077q0 6.718 4.967 11.256 4.967 4.539 11.589 4.539 6.315 0 10.879-4.964 4.564-4.964 4.564-11.241v-88.667h89.334q6.41 0 10.974-4.993 4.564-4.992 4.564-11.435 0-6.444-4.564-11.008-4.564-4.564-10.974-4.564h-89.334v-89.077q0-6.718-4.564-11.256-4.564-4.539-11.007-4.539t-11.436 4.539q-4.992 4.538-4.992 11.256v89.077h-89.078q-6.41 0-11.102 4.539-4.692 4.538-4.692 11.161 0 6.315 4.938 11.307 4.939 4.993 11.523 4.993h88.411Zm15.174 157.435q-72.158 0-122.999-51.051-50.841-51.051-50.841-122.589 0-72.73 50.834-123.723 50.834-50.993 123.339-50.993 71.825 0 122.876 50.993t51.051 123.723q0 71.538-51.051 122.589t-123.209 51.051ZM180.001-282.565v-356.153q0-15.032 6.523-28.204 6.522-13.173 18.605-21.795l237.435-178.974q8.67-6.154 18.06-9.359 9.39-3.205 19.562-3.205 10.173 0 19.442 3.205 9.268 3.205 17.808 9.359l237.435 178.974q12.083 8.622 18.605 21.795 6.523 13.172 6.523 28.204v71.667q-11.821-3.667-24.468-5.103-12.648-1.435-25.787-1.846v-64.718q0-3.077-1.347-5.577-1.346-2.5-3.654-4.423L487.308-827.307q-3.077-2.436-7.308-2.436t-7.308 2.436L235.257-648.804q-2.308 1.924-3.654 4.424-1.347 2.5-1.347 5.577v356.238q0 5.385 3.462 8.847 3.462 3.462 8.847 3.462h227.923q1.867 13.076 5.86 25.822 3.992 12.747 9.319 24.433H242.565q-25.609 0-44.086-18.478-18.478-18.477-18.478-44.086ZM480-550.718Z"/></svg>