<svg xmlns="http://www.w3.org/2000/svg" height="40" viewBox="0 -960 960 960" width="40"><path d="M480.244-100.001q-78.915 0-148.053-29.92-69.139-29.92-120.731-81.544-51.593-51.624-81.526-120.677-29.933-69.054-29.933-147.84 0-78.787 29.992-148.155 29.991-69.369 81.404-120.682 51.413-51.314 120.789-81.247Q401.561-859.999 480-859.999q42.788 0 82.868 9.052 40.08 9.051 76.619 25.871v68.383q0 25.692 18.064 43.756t43.756 18.064h33.181v44.592q0 21.022 14.886 35.908 14.886 14.886 35.908 14.886h55.588q9.693 28.816 14.411 58.21 4.718 29.393 4.718 61.277 0 78.439-29.92 147.869t-81.21 120.788q-51.291 51.359-120.629 81.35-69.337 29.992-147.996 29.992Zm-.635-172.718q53.577 0 98.838-24.511 45.261-24.512 73.719-67.729 5.936-10.657-.192-21.156-6.129-10.5-18.385-10.5H326.356q-12.535 0-18.496 10.5-5.962 10.499-.026 21.156 28.429 43.217 73.775 67.729 45.346 24.511 98 24.511ZM340.963-534.052q20.422 0 34.832-14.5 14.41-14.501 14.41-34.923 0-20.422-14.501-34.832-14.5-14.41-34.922-14.41-20.423 0-34.833 14.5-14.41 14.501-14.41 34.923 0 20.422 14.501 34.832 14.5 14.41 34.923 14.41Zm278.255 0q20.423 0 34.833-14.5 14.41-14.501 14.41-34.923 0-20.422-14.501-34.832t-34.923-14.41q-20.422 0-34.832 14.5-14.41 14.501-14.41 34.923 0 20.422 14.501 34.832 14.5 14.41 34.922 14.41Zm195.655-240.821h-59.745q-10.679 0-17.903-7.262-7.224-7.263-7.224-18 0-10.736 7.224-17.864t17.903-7.128h59.745v-59.745q0-10.679 7.262-17.903 7.263-7.224 18-7.224 10.736 0 17.864 7.224t7.128 17.903v59.745h59.745q10.679 0 17.903 7.262 7.224 7.263 7.224 18 0 10.736-7.224 17.864t-17.903 7.128h-59.745v59.745q0 10.679-7.262 17.903-7.263 7.224-18 7.224-10.736 0-17.864-7.224t-7.128-17.903v-59.745Z"/></svg>