<svg xmlns="http://www.w3.org/2000/svg" height="40" viewBox="0 -960 960 960" width="40"><path d="M480-100.771q-129.102-34.154-214.55-151.41-85.449-117.255-85.449-266.687v-184.054q0-20.002 11.333-36.003 11.332-16.002 29.308-23.202l237.435-88.384q11.359-4.205 21.923-4.205 10.564 0 21.923 4.205l237.435 88.384q17.976 7.2 29.308 23.202 11.333 16.001 11.333 36.003v203.949q-11.692-5.026-25.051-9.321-13.359-4.294-25.204-6.243v-188.821q0-3.59-2.116-6.796-2.115-3.205-5.962-4.744l-237.435-87.717q-1.923-1.026-4.231-1.026t-4.231 1.026l-237.435 87.717q-3.847 1.539-5.962 4.744-2.116 3.206-2.116 6.796v184.384q0 67.359 20.821 126.27 20.821 58.91 54.808 105.923 33.988 47.013 77.245 80.154 43.256 33.141 88.257 48.936l1.154-.385q5.615 12.256 15.255 25.64 9.641 13.384 18.538 22.409-6.59 3.333-13.295 5.295-6.706 1.961-13.039 3.961Zm206.149.77q-72.158 0-122.999-51.051-50.841-51.051-50.841-122.589 0-72.73 50.834-123.723 50.834-50.993 123.339-50.993 71.825 0 122.876 50.993t51.051 123.723q0 71.538-51.051 122.589t-123.209 51.051ZM480-480.666Zm190.975 223.23v71.398q0 6.96 4.967 11.499 4.967 4.538 11.589 4.538 6.315 0 10.879-4.964 4.564-4.964 4.564-11.357v-71.114h71.538q6.769 0 11.333-4.993 4.565-4.992 4.565-11.435 0-6.444-4.565-11.008-4.564-4.564-11.333-4.564h-71.538v-71.398q0-6.96-4.564-11.499-4.564-4.538-11.007-4.538t-11.436 4.538q-4.992 4.539-4.992 11.499v71.398H599.67q-6.746 0-11.438 4.539-4.693 4.538-4.693 11.161 0 6.315 4.939 11.307 4.938 4.993 11.523 4.993h70.974Z"/></svg>