<svg xmlns="http://www.w3.org/2000/svg" height="40" viewBox="0 -960 960 960" width="40"><path d="M462.23-260.771q-85.614-7.308-143.921-69.769-58.308-62.461-58.308-149.46 0-91.794 64.103-155.896Q388.206-699.999 480-699.999q86.999 0 149.46 58.115 62.461 58.115 69.769 144.14l-53.46-16.282q-11.923-58.871-57.705-97.295Q542.282-649.744 480-649.744q-70.462 0-120.103 49.641Q310.256-550.462 310.256-480q0 61.872 38.616 108.051 38.615 46.18 97.102 58.103l16.256 53.075Zm48 159.154q-7.461 1.205-15.115 1.41-7.654.206-15.115.206-78.769 0-148.115-29.962-69.346-29.961-120.653-81.269-51.308-51.307-81.269-120.653Q100.001-401.231 100.001-480t29.962-148.115q29.961-69.346 81.269-120.653 51.307-51.308 120.653-81.269Q401.231-859.999 480-859.999t148.115 29.962q69.346 29.961 120.653 81.269 51.308 51.307 81.269 120.653Q859.999-558.769 859.999-480q0 7.461-.206 14.923-.205 7.461-1.41 14.923l-48.639-14.872V-480q0-137.795-95.975-233.769Q617.795-809.744 480-809.744q-137.795 0-233.769 95.975Q150.256-617.795 150.256-480q0 137.795 95.975 233.769Q342.205-150.256 480-150.256h14.974l15.256 48.639Zm265.616-23L624.229-276.003l-27.692 84.332q-4.205 11.359-15.564 11.051-11.359-.307-14.769-11.666l-77.845-259.637q-2.41-8.359 4.474-15.244 6.885-6.884 15.244-4.474l259.893 77.845q11.103 3.41 11.41 14.769.308 11.359-10.795 15.307l-84.588 27.949 152.001 151.617q12.769 12.769 12.769 29.768 0 17-12.769 29.769-12.769 12.769-30.076 12.769-17.307 0-30.076-12.769Z"/></svg>