<svg xmlns="http://www.w3.org/2000/svg" height="40" viewBox="0 -960 960 960" width="40"><path d="M848.974-300.001H111.026q-21.09 0-36.057-14.968-14.967-14.968-14.967-36.057v-269.23q0-10.679 7.262-17.903 7.263-7.224 18-7.224 10.736 0 17.864 7.224t7.128 17.903v270H456.36v-244.103q0-21.089 14.967-36.057 14.968-14.967 36.057-14.967h260.052q54.682 0 93.622 38.94 38.941 38.94 38.941 93.623v161.794q0 21.089-14.968 36.057-14.968 14.968-36.057 14.968Zm-342.359-50.255h343.129V-512.82q0-33.952-24.178-58.13-24.178-24.178-58.13-24.178H506.615v244.872Zm0-244.872v244.872-244.872ZM275.143-417.283q40.369 0 67.946-27.601 27.576-27.6 27.576-67.982 0-40.082-27.591-67.659-27.592-27.576-67.961-27.576t-67.945 27.622q-27.577 27.621-27.577 67.832t27.592 67.787q27.591 27.577 67.96 27.577Zm-.015-50.255q-18.846 0-32.064-13.218t-13.218-31.936q0-18.718 13.218-31.936t32.064-13.218q18.846 0 32.064 13.234t13.218 31.792q0 18.846-13.218 32.064t-32.064 13.218Zm0-45.282Z"/></svg>