<svg xmlns="http://www.w3.org/2000/svg" height="40" viewBox="0 -960 960 960" width="40"><path d="M549.945-280.385q18.312 0 35.68-7.154 17.368-7.153 30.657-19.964l18-17.796q6.41-6.636 6.205-15.104-.205-8.468-6.616-15.135-6.759-6.41-15.181-6.41-8.422 0-15.279 6.718l-17.282 17.282q-7.086 7.217-16.662 10.48-9.576 3.264-19.432 3.264-9.856 0-19.457-3.264-9.602-3.263-16.707-10.48l-37.7-37.7q-13.12-13.121-30.533-19.646-17.414-6.526-35.744-6.526t-35.637 6.526q-17.308 6.525-30.539 19.552l-18 17.738q-6.41 6.606-6.205 15.074.205 8.469 6.616 15.135 6.759 6.41 15.181 6.41 8.422 0 15.279-6.718l17.282-17.282q7.086-7.356 16.662-10.678 9.576-3.322 19.432-3.322 9.856 0 19.457 3.322 9.602 3.322 16.707 10.678l37.729 37.656q13.081 12.976 30.427 20.16 17.347 7.184 35.66 7.184Zm0-115.769q18.312 0 35.68-7.154 17.368-7.153 30.657-19.964l18-17.796q6.41-6.636 6.205-15.104-.205-8.468-6.616-15.135-6.759-6.41-15.181-6.41-8.422 0-15.279 6.718l-17.282 17.282q-7.086 7.217-16.662 10.48-9.576 3.264-19.432 3.264-9.856 0-19.457-3.264-9.602-3.263-16.707-10.48l-37.7-37.7q-13.12-13.121-30.533-19.646-17.414-6.526-35.744-6.526t-35.637 6.526q-17.308 6.525-30.539 19.552l-18 17.738q-6.41 6.606-6.205 15.074.205 8.469 6.616 15.135 6.759 6.41 15.181 6.41 8.422 0 15.279-6.718l17.282-17.282q7.086-7.356 16.662-10.678 9.576-3.322 19.432-3.322 9.856 0 19.457 3.322 9.602 3.322 16.707 10.678l37.729 37.657q13.081 12.975 30.427 20.159 17.347 7.184 35.66 7.184Zm0-115.769q18.312 0 35.68-7.153 17.368-7.154 30.657-19.965l18-17.796q6.41-6.635 6.205-15.104-.205-8.468-6.616-15.135-6.759-6.41-15.181-6.41-8.422 0-15.279 6.718l-17.282 17.282q-7.086 7.217-16.662 10.48-9.576 3.264-19.432 3.264-9.856 0-19.457-3.264-9.602-3.263-16.707-10.48l-37.7-37.7q-13.12-13.12-30.533-19.313-17.414-6.192-35.744-6.192t-35.637 6.192q-17.308 6.193-30.539 19.219l-18 17.738q-6.41 6.606-6.205 15.074.205 8.469 6.616 15.135 6.759 6.41 15.181 6.41 8.422 0 15.279-6.717l17.282-17.282q7.18-6.77 16.744-10.385 9.564-3.616 19.385-3.616 9.821 0 19.422 3.322 9.602 3.322 16.707 10.679l37.729 37.656q13.081 12.975 30.427 20.159 17.347 7.184 35.66 7.184Zm-307.38 331.922q-25.609 0-44.086-18.478-18.478-18.477-18.478-44.086v-356.153q0-15.032 6.523-28.204 6.522-13.173 18.605-21.795l237.435-178.589q16.177-12.564 37.268-12.564t37.604 12.564l237.435 178.589q12.083 8.622 18.605 21.795 6.523 13.172 6.523 28.204v356.153q0 25.609-18.478 44.086-18.477 18.478-44.086 18.478h-474.87Z"/></svg>