<svg xmlns="http://www.w3.org/2000/svg" height="40" viewBox="0 -960 960 960" width="40"><path d="M445.282-140.001H202.565q-25.788 0-44.176-18.388t-18.388-44.176v-554.87q0-25.788 18.388-44.176t44.176-18.388h242.717v679.998Zm-50.255-50.255v-579.488H202.565q-5.385 0-8.847 3.462-3.462 3.462-3.462 8.847v554.87q0 5.385 3.462 8.847 3.462 3.462 8.847 3.462h192.462Zm120.511-325.282v-304.461h241.897q25.788 0 44.176 18.388t18.388 44.176v241.897H515.538Zm50.255-50.255h203.951v-191.642q0-5.385-3.462-8.847-3.462-3.462-8.847-3.462H565.793v203.951Zm-50.255 425.792v-305.281h304.461v242.717q0 25.788-18.388 44.176t-44.176 18.388H515.538Zm50.255-50.255h191.642q5.385 0 8.847-3.462 3.462-3.462 3.462-8.847v-192.462H565.793v204.771ZM395.027-480Zm170.766-85.793Zm0 170.766Z"/></svg>