<svg xmlns="http://www.w3.org/2000/svg" height="40" viewBox="0 -960 960 960" width="40"><path d="m436.103-594.154 41.487-113.333h4.051l42.923 113.333h-88.461Zm44.048 203.332q-90.458 0-152.663-62.114-62.204-62.114-62.204-152.384 0-90.269 62.053-152.474 62.054-62.205 152.512-62.205t152.663 62.072q62.204 62.071 62.204 152.554 0 90.142-62.053 152.346-62.054 62.205-152.512 62.205Zm-55.83-171.691h111.217l21.795 58.692q1.744 5.564 6.652 8.615 4.907 3.052 10.726 3.052 9.976 0 15.132-7.744 5.156-7.743 1.634-16.9l-91.478-234.099q-1.597-4.111-5.588-6.889-3.991-2.778-9.174-2.778h-11.294q-5.02 0-9.144 2.778-4.124 2.778-5.722 6.889l-90.019 234.869q-3.186 8.32 2.044 16.097 5.229 7.777 14.649 7.777 5.454 0 10.121-3.004 4.667-3.003 6.41-8.483l22.039-58.872ZM161.917-90.001q-10.737 0-17.865-7.224-7.128-7.224-7.128-17.903v-123.795q0-10.679 7.263-17.903 7.263-7.225 18-7.225 10.736 0 17.864 7.225 7.128 7.224 7.128 17.903v123.795q0 10.679-7.263 17.903Q172.653-90 161.917-90Zm128.204 0q-10.737 0-17.865-7.224-7.128-7.224-7.128-17.903v-123.795q0-10.679 7.263-17.903 7.263-7.225 18-7.225 10.736 0 17.864 7.225 7.128 7.224 7.128 17.903v123.795q0 10.679-7.263 17.903Q300.857-90 290.121-90Zm128.204 0q-10.736 0-17.864-7.224t-7.128-17.903v-123.795q0-10.679 7.263-17.903 7.263-7.225 17.999-7.225 10.737 0 17.865 7.225 7.128 7.224 7.128 17.903v123.795q0 10.679-7.263 17.903-7.263 7.224-18 7.224Zm128.339 0q-10.679 0-17.903-7.224-7.224-7.224-7.224-17.903v-123.795q0-10.679 7.224-17.903 7.224-7.225 17.903-7.225h251.284q10.679 0 17.904 7.225 7.224 7.224 7.224 17.903v123.795q0 10.679-7.224 17.903Q808.627-90 797.948-90H546.664Z"/></svg>