<svg xmlns="http://www.w3.org/2000/svg" height="40" viewBox="0 -960 960 960" width="40"><path d="M255.538-180.001q-81.435 0-138.486-56.872-57.05-56.871-57.05-138.307 0-73.384 48.487-129.589t121.82-64.358q16.666-92 87.217-151.23 70.551-59.231 163.551-59.231 105.974 0 179.473 75.73 73.5 75.73 73.5 182.781v31.899h12.308q64.718.051 109.179 44.487 44.462 44.435 44.462 109.973 0 63.948-45.385 109.332-45.384 45.385-109.332 45.385H505.127v-307.078l66.027 65.822q7.231 7.487 17.397 7.487 10.167 0 17.602-7.436 7.359-7.23 7.295-17.897-.064-10.666-7.295-17.897l-104.23-104.64q-9.359-9.359-21.923-9.359-12.564 0-21.923 9.359L353.436-457q-7.23 7.231-7.192 17.59.039 10.358 7.603 17.538 7.23 7.487 17.922 7.269 10.692-.218 18.128-7.449l64.976-65.027v307.078H255.538Z"/></svg>