<svg xmlns="http://www.w3.org/2000/svg" height="40" viewBox="0 -960 960 960" width="40"><path d="M180.001-190.256v-567.179q0-25.609 18.478-44.086 18.477-18.478 44.086-18.478h474.87q25.609 0 44.086 18.478 18.478 18.477 18.478 44.086v567.179h54.872q10.679 0 17.903 7.263 7.225 7.263 7.225 17.999 0 10.737-7.225 17.865-7.224 7.128-17.903 7.128H650.383q0 21.845-15.624 37.332-15.624 15.487-37.461 15.487-21.836 0-37.195-15.584-15.359-15.584-15.359-37.235H125.129q-10.679 0-17.903-7.263-7.225-7.263-7.225-18 0-10.736 7.225-17.864 7.224-7.128 17.903-7.128h54.872Zm50.255-472.435h342.18v-107.053H242.565q-5.385 0-8.847 3.462-3.462 3.462-3.462 8.847v94.744Zm392.435 0h107.053v-94.744q0-5.385-3.462-8.847-3.462-3.462-8.847-3.462h-94.744v107.053ZM230.256-505.127h342.18v-107.309h-342.18v107.309Zm392.435 0h107.053v-107.309H622.691v107.309ZM230.256-347.82h342.18v-107.053h-342.18v107.053Zm392.435 0h107.053v-107.053H622.691v107.053ZM230.256-190.256h342.18v-107.309h-342.18v107.309Zm392.435 0h107.053v-107.309H622.691v107.309Z"/></svg>