<svg xmlns="http://www.w3.org/2000/svg" height="40" viewBox="0 -960 960 960" width="40"><path d="M479.879-608.974q-11.712 0-19.513-7.79-7.801-7.79-7.801-19.635 0-11.844 7.922-19.645 7.923-7.801 19.634-7.801 11.712 0 19.513 7.921 7.801 7.921 7.801 19.631 0 11.973-7.922 19.646-7.923 7.673-19.634 7.673ZM323.73-452.565q-11.973 0-19.646-7.922-7.673-7.923-7.673-19.634 0-11.712 7.79-19.513 7.79-7.801 19.634-7.801 11.845 0 19.646 7.922 7.801 7.923 7.801 19.634 0 11.712-7.921 19.513-7.922 7.801-19.631 7.801Zm156.149 0q-11.712 0-19.513-7.922-7.801-7.923-7.801-19.634 0-11.712 7.922-19.513 7.923-7.801 19.634-7.801 11.712 0 19.513 7.922 7.801 7.923 7.801 19.634 0 11.712-7.922 19.513-7.923 7.801-19.634 7.801Zm156.414 0q-11.973 0-19.646-7.922-7.673-7.923-7.673-19.634 0-11.712 7.79-19.513 7.79-7.801 19.635-7.801 11.844 0 19.645 7.922 7.801 7.923 7.801 19.634 0 11.712-7.921 19.513-7.921 7.801-19.631 7.801ZM479.879-296.411q-11.712 0-19.513-7.79-7.801-7.79-7.801-19.634 0-11.845 7.922-19.646 7.923-7.801 19.634-7.801 11.712 0 19.513 7.921 7.801 7.922 7.801 19.631 0 11.973-7.922 19.646-7.923 7.673-19.634 7.673ZM202.565-190.256h554.87q5.385 0 8.847-3.462 3.462-3.462 3.462-8.847v-554.87q0-5.385-3.462-8.847-3.462-3.462-8.847-3.462h-554.87q-5.385 0-8.847 3.462-3.462 3.462-3.462 8.847v554.87q0 5.385 3.462 8.847 3.462 3.462 8.847 3.462Zm0 50.255q-25.609 0-44.086-18.478-18.478-18.477-18.478-44.086v-554.87q0-25.609 18.478-44.086 18.477-18.478 44.086-18.478h554.87q25.609 0 44.086 18.478 18.478 18.477 18.478 44.086v554.87q0 25.609-18.478 44.086-18.477 18.478-44.086 18.478h-554.87Z"/></svg>