<svg xmlns="http://www.w3.org/2000/svg" height="40" viewBox="0 -960 960 960" width="40"><path d="M202.565-140.001q-25.846 0-44.205-18.359-18.359-18.359-18.359-44.205v-249.332l69.82 69.819q9.359 9.359 21.923 9.359 12.564 0 21.922-9.359l144.026-144.026 142.949 142.949q9.359 9.359 21.795 9.359 12.436 0 21.795-9.359l143.615-143.359 92.153 92.152v231.797q0 25.846-18.359 44.205-18.359 18.359-44.205 18.359h-554.87Zm0-679.998h554.87q25.846 0 44.205 18.359 18.359 18.359 18.359 44.205v251.691l-70.23-70.23q-9.359-9.358-21.923-9.358-12.564 0-21.923 9.358l-143.359 143.36-143.205-142.949q-9.359-9.359-21.795-9.359-12.436 0-21.795 9.359L231.744-431.537l-91.743-91.742v-234.156q0-25.846 18.359-44.205 18.359-18.359 44.205-18.359Z"/></svg>