<svg xmlns="http://www.w3.org/2000/svg" height="40" viewBox="0 -960 960 960" width="40"><path d="M385.127-489.916V-640q0-10.679-7.262-17.903-7.263-7.224-18-7.224-10.736 0-17.864 7.224T334.873-640v157.102q0 5.976 2.205 11.578 2.205 5.602 7.153 10.55l110.462 110.462q7.23 7.23 17.499 7.038 10.269-.192 17.5-7.423 7.23-7.23 7.23-17.563 0-10.333-7.23-17.436L385.127-489.916Zm504.617 9.711q0-77.898-38.59-143.718-38.59-65.821-104.847-104.513-9.427-5.367-12.867-15.222-3.44-9.854.731-19.938 4.29-10.224 15.149-13.275 10.858-3.051 20.294 2.821 77.949 46.051 124.167 123.73t46.218 169.889q0 92.21-46.218 169.987T769.999-186.36q-9.436 6-20.295 2.885-10.858-3.116-15.559-13.339-4.53-10.084-1.01-20.199 3.521-10.114 13.172-15.628 66.257-38.436 104.847-104.051 38.59-65.616 38.59-143.513ZM360.022-140.412q-70.791 0-132.637-26.897-61.846-26.897-107.846-72.769-46-45.872-72.768-107.824Q20-409.854 20-480.517q0-70.662 26.77-132.508 26.769-61.846 72.768-107.846 46-46 107.824-72.769 61.824-26.769 132.615-26.769 70.791 0 132.637 26.769 61.846 26.769 107.846 72.769 45.999 46 72.768 107.824 26.77 61.824 26.77 132.615 0 70.534-26.77 132.508-26.769 61.974-72.768 107.846-46 45.872-107.824 72.769-61.824 26.897-132.615 26.897ZM360-190.667q120.385 0 205.064-84.336 84.68-84.336 84.68-205.407 0-120.385-84.68-205.064-84.679-84.68-204.936-84.68-121.161 0-205.516 84.68-84.356 84.679-84.356 204.936 0 121.161 84.336 205.516Q238.929-190.667 360-190.667Zm0-289.743Z"/></svg>