<svg xmlns="http://www.w3.org/2000/svg" height="40" viewBox="0 -960 960 960" width="40"><path d="M162.565-180.001q-25.788 0-44.176-18.388t-18.388-44.176v-474.87q0-25.788 18.388-44.176t44.176-18.388h634.87q25.788 0 44.176 18.388t18.388 44.176v474.87q0 25.788-18.388 44.176t-44.176 18.388h-634.87Zm132.153-107.025h371.231q19.303 0 32.625-13.656 13.323-13.656 13.323-32.959 0-19.41-13.323-32.807-13.322-13.397-32.625-13.397H294.051q-19.303 0-32.625 13.37-13.323 13.371-13.323 32.743 0 19.373 13.539 33.039 13.538 13.667 33.076 13.667Z"/></svg>