<svg xmlns="http://www.w3.org/2000/svg" height="40" viewBox="0 -960 960 960" width="40"><path d="M480-629.999q118.59 0 230.089 47.32 111.5 47.321 191.987 135.294 10.231 11.308 10.756 25.988.526 14.679-10.371 25.192l-77.307 76.127q-10.667 10.539-26.077 11.795-15.41 1.256-26.436-7.051l-99.794-74.974q-8.846-6.872-13.205-15.205-4.359-8.334-4.359-18.385v-124.897q-45.283-16.59-88.129-23.77-42.846-7.179-87.154-7.179t-87.154 7.179q-42.846 7.18-88.129 23.77v124.897q0 10.051-4.359 18.385-4.359 8.333-13.205 15.205l-99.537 74.974q-12.77 9.384-27.026 8-14.257-1.385-25.744-12.744L57.54-396.205q-10.898-10.513-10.372-25.192.525-14.68 10.756-25.988 80.282-87.973 191.884-135.294Q361.41-629.999 480-629.999Z"/></svg>