<svg xmlns="http://www.w3.org/2000/svg" height="40" viewBox="0 -960 960 960" width="40"><path d="M476.179-609.282q-9.154 0-14.026-7.744-4.872-7.743.334-15.897l111.64-194.871q4.692-8.102 13.179-10.936 8.487-2.833 16.539-.064 72.717 24.564 132.115 79.038 59.397 54.474 91.756 126.731 4.334 9.666-.512 16.705-4.846 7.038-15.769 7.038H476.179Zm-137.641 70.539L226.539-734.87q-4.949-7.846-3-17 1.948-9.154 8.256-14.513 52.051-44.923 115.474-69.269 63.423-24.347 131.244-24.347 10.41 0 22.153.706 11.744.705 22.564 1.653 10.538.949 14.5 8.616 3.961 7.666-1.833 17.128L366.384-538.743q-4.949 8.41-13.923 8.41t-13.923-8.41ZM131.36-387.538q-8.359 0-15.23-5.436-6.872-5.436-8.616-13.795-4.256-18.539-5.884-36.487-1.629-17.949-1.629-35.667 0-61.282 18.821-118.474 18.82-57.192 55.282-107.833 6.487-9.102 15.486-8.564 9 .539 14.744 10.359l166.615 292.256q4.948 8.154-.026 15.897-4.974 7.744-14.128 7.744H131.36Zm225.898 266.691q-74.282-25.82-133.987-80.833t-91.09-126.859q-4.59-9.923.346-16.961 4.936-7.039 15.859-7.039h337.512q9.154 0 13.834 8.077 4.679 8.077-.27 16.231L386.924-132.257q-4.692 8.102-13.051 11.115t-16.615.295Zm126.537 20.846q-11.026 0-23.166-.706-12.141-.705-22.808-2.064-10.538-1.589-14.474-9.128-3.936-7.538 1.603-16.871l169.384-290.025q4.949-8.411 14.308-8.411 9.358 0 14.307 8.411l111.102 193.486q4.744 7.692 2.974 16.846-1.769 9.154-8.23 14.871-51.231 44.924-114.936 69.257-63.705 24.334-130.064 24.334Zm272.64-156.821L588.436-549.59q-5.205-8.154-.423-16.231 4.782-8.077 13.936-8.077H828.64q8.359 0 15.23 5.769 6.872 5.77 8.616 14.129 3.871 18.974 5.692 37.436 1.821 18.461 1.821 36.564 0 60.692-18.757 117.846-18.756 57.153-55.346 106.922-6.128 8.744-15.025 8.308-8.897-.436-14.436-9.898Z"/></svg>