<svg xmlns="http://www.w3.org/2000/svg" height="40" viewBox="0 -960 960 960" width="40"><path d="M716.753-540.975q-72.975 0-124.376-51.404-51.402-51.403-51.402-124.86 0-72.468 51.297-123.767 51.296-51.3 124.654-51.3 73.404 0 124.392 50.988t50.988 124.549q0 73.436-51.289 124.615-51.289 51.179-124.264 51.179ZM205.127-261.899v49.335q0 13.568-9.565 23.065-9.565 9.498-23.23 9.498-13.665 0-22.998-9.498-9.333-9.497-9.333-23.065v-290.82q0-5.188.603-10.376t2.499-10.114l73.129-213.869q6.113-19.042 22.513-30.649 16.4-11.607 36.461-11.607h183.179q-3.385 11.934-5.013 24.377-1.628 12.443-2.423 25.878H275.77q-3.975 0-7.18 2.116-3.205 2.115-4.744 5.962l-53.744 157.463h289.54q9.376 14.368 20.685 26.686 11.309 12.319 24.289 23.569h-354.36v201.794h579.488v-143.77q13.435-2.615 25.878-6.382 12.443-3.767 24.377-8.874v258.616q0 13.568-9.566 23.065-9.565 9.498-23.23 9.498-13.664 0-22.997-9.498-9.333-9.497-9.333-23.065v-49.335H205.127Zm86.454-101.281q20.957 0 35.2-14.501 14.244-14.5 14.244-35.05 0-21.106-14.501-35.649-14.5-14.542-34.968-14.542-21.022 0-35.648 14.587-14.626 14.587-14.626 35.628 0 21.04 14.671 35.284 14.67 14.243 35.628 14.243Zm377.454 0q20.947 0 35.52-14.474 14.573-14.474 14.573-34.859 0-12.154-5.244-22.256-5.244-10.103-14.911-16.59-11.768-.795-23.687-2.705-11.92-1.911-22.567-4.808-14.769 4.205-24.051 16.987-9.283 12.782-9.283 29.372 0 20.385 14.629 34.859t35.021 14.474Zm-478.779 51.026v-201.794 201.794Zm527.872-377.179q6.948 0 11.641-4.751 4.692-4.751 4.692-11.974v-98.813q0-6.82-4.692-11.512-4.693-4.693-11.641-4.693-6.949 0-11.846 4.693-4.898 4.692-4.898 11.512v99.204q0 7.206 4.898 11.77 4.897 4.564 11.846 4.564Zm-.206 79.487q8.488 0 14.244-5.744t6.141-14.308q0-8.794-6.015-14.551-6.016-5.756-14.036-5.756-9.487.41-14.898 6.025-5.41 5.616-5.41 14.231t5.744 14.359q5.743 5.744 14.23 5.744Z"/></svg>