<svg xmlns="http://www.w3.org/2000/svg" height="40" viewBox="0 -960 960 960" width="40"><path d="M144.613-180.001q-18.868 0-31.945-13.234-13.077-13.234-13.077-32.358 0-18.869 13.234-31.946 13.233-13.076 32.102-13.076 19.125 0 32.201 13.233 13.077 13.234 13.077 32.102 0 19.125-13.234 32.202-13.233 13.077-32.358 13.077Zm166.768 0q-10.078 0-17.381-6.514-7.302-6.514-8.999-16.999-7.872-64.179-53.295-109.256t-109.32-53.718q-9.641-1.359-15.808-8.931-6.166-7.573-6.166-17.553 0-10.668 6.897-18.002 6.897-7.333 16.538-6.384 84.743 8.461 144.063 68.525 59.32 60.064 67.756 144.55 1.359 10.116-6.077 17.199-7.436 7.083-18.208 7.083Zm155.695 0q-10.589 0-17.858-7.718T441-206.411q-10.205-127.513-99.282-217.243-89.076-89.731-216.307-99.218-10.666-.564-17.833-8.035-7.166-7.471-7.166-17.773 0-10.755 8.512-17.986 8.513-7.23 19.769-6.41 146.711 10.162 249.675 114.158Q481.332-354.923 491.64-207.59q.564 11.666-6.648 19.627-7.211 7.962-17.916 7.962Zm122.564 0q0-101.667-38.192-190.906T446.795-527.034q-66.462-66.889-155.692-105.491-89.23-38.602-190.691-38.602v-46.308q0-25.705 18.429-44.134 18.429-18.43 44.134-18.43h634.87q25.962 0 44.263 18.43 18.301 18.429 18.301 44.134v474.87q0 25.705-18.301 44.134-18.301 18.43-44.263 18.43H589.64Z"/></svg>