<svg xmlns="http://www.w3.org/2000/svg" height="40" viewBox="0 -960 960 960" width="40"><path d="M227.694-168.975v-247.641q0-26.923 17.949-44.743 17.948-17.82 44.615-17.82h47.436v-86.411h-47.436q-26.667 0-44.615-17.948-17.949-17.949-17.949-44.615v-117.743q0-26.666 17.949-44.615 17.948-17.948 44.615-17.948h379.484q26.667 0 44.615 17.948 17.949 17.949 17.949 44.615v117.743q0 26.666-17.949 44.615-17.948 17.948-44.615 17.948h-47.436v86.411h47.436q26.667 0 44.615 17.82 17.949 17.82 17.949 44.743v247.641q0 10.698-7.25 17.913-7.249 7.214-17.999 7.214t-17.878-7.214q-7.128-7.215-7.128-17.913v-95.95H277.949v95.95q0 10.698-7.249 17.913-7.25 7.214-18 7.214t-17.878-7.214q-7.128-7.215-7.128-17.913Zm62.564-446.869h379.484q4.616 0 8.462-3.847 3.847-3.846 3.847-8.462v-117.743q0-4.615-3.847-8.462-3.846-3.846-8.462-3.846H290.258q-4.616 0-8.462 3.846-3.847 3.847-3.847 8.462v117.743q0 4.616 3.847 8.462 3.846 3.847 8.462 3.847Zm97.691 136.665h184.103v-86.411H387.949v86.411Zm-110 163.999h404.102v-101.436q0-4.615-3.847-8.462-3.846-3.846-8.462-3.846H290.258q-4.616 0-8.462 3.846-3.847 3.847-3.847 8.462v101.436Zm0-300.664V-758.204-615.844Zm0 300.664V-428.924v113.744Z"/></svg>