<svg xmlns="http://www.w3.org/2000/svg" height="40" viewBox="0 -960 960 960" width="40"><path d="M581.795-170.001q-10.679 0-17.903-7.263-7.225-7.263-7.225-17.999 0-10.737 7.225-17.865 7.224-7.128 17.903-7.128h160.233l-130.489-91.745q-8.445-6.236-10.466-16.117-2.021-9.882 3.874-18.301 5.638-8.676 15.596-10.564 9.959-1.888 18.764 3.727l131.618 91.386-55.437-150.617q-4.051-9.257.872-18.577 4.923-9.32 14.922-13.371 10-4.051 19.513.709 9.512 4.761 13.563 14.547L818-279.331l42.283-153.617q2.753-9.849 11.107-15.155 8.354-5.306 18.353-2.537 10 2.769 15.692 11.115t2.923 18.217l-67.739 251.307H581.795Zm-346.026-120L157-211.232q-7.23 7.23-17.115 3.55-9.884-3.681-9.884-13.986v-545.768q0-25.608 18.477-44.086 18.478-18.477 44.086-18.477h494.872q25.608 0 44.086 18.477 18.477 18.478 18.477 44.086v209.282q-7.5-1.231-14.999-1.538-7.5-.308-15-.308-4.936 0-10.128.214-5.192.213-10.128.555v-208.205q0-5.385-3.461-8.847-3.462-3.461-8.847-3.461H192.564q-5.385 0-8.847 3.461-3.461 3.462-3.461 8.847v427.18h300.513q-.342 4.936-.555 10.128Q480-324.936 480-320q0 7.5.308 15 .307 7.499 1.538 14.999H235.769Zm71.666-329.743h265.13q10.679 0 17.903-7.263 7.224-7.263 7.224-18 0-10.736-7.224-17.864t-17.903-7.128h-265.13q-10.679 0-17.903 7.263-7.224 7.263-7.224 17.999 0 10.737 7.224 17.865 7.224 7.128 17.903 7.128Zm0 164.871h145.13q10.679 0 17.903-7.262 7.224-7.263 7.224-18 0-10.736-7.224-17.864t-17.903-7.128h-145.13q-10.679 0-17.903 7.262-7.224 7.263-7.224 18 0 10.736 7.224 17.864t17.903 7.128ZM180.256-340.256v-439.488V-340.256Z"/></svg>