<svg xmlns="http://www.w3.org/2000/svg" height="40" viewBox="0 -960 960 960" width="40"><path d="m770.948-315.128 17.616 58.82q1.359 4.205-1.033 7.179-2.392 2.975-6.818 2.975h-5.503q-2.21 0-3.607-.911-1.398-.91-2.994-2.453l-26.865-36.636H607.922l48.411 163.026q1.564 4.698-1.549 8.836-3.114 4.138-8.081 4.138h-4.64q-2.678 0-4.678-1.218t-3.615-3.577L532.795-286.154H406.359q-12.481 0-20.727-8.233-8.247-8.232-8.247-20.692 0-12.459 8.247-20.741 8.246-8.282 20.727-8.282h126.436l101.026-170.59q1.564-2.577 4.128-3.993 2.564-1.417 5.309-1.417h1.872q5.483 0 8.625 4.384 3.142 4.385 1.578 9.744l-47.411 161.872h133.822L768-380.307q1.821-2.154 3.767-2.975 1.946-.82 4.045-.82h2.612q4.77 0 7.929 4.015 3.159 4.015 1.595 8.779l-17 56.18ZM189.052-644.872l-18-59.205q-1.359-3.948 1.047-6.859 2.407-2.91 6.859-2.91h5.352q1.824 0 3.366.911 1.542.91 2.946 2.453l27.634 36.636h133.822l-48.411-163.026q-1.564-4.698 1.549-8.836 3.114-4.138 8.081-4.138h4.64q2.678 0 4.678 1.218t3.615 3.577l100.975 171.205h126.436q12.481 0 20.727 8.233 8.247 8.232 8.247 20.692 0 12.459-8.247 20.741-8.246 8.282-20.727 8.282H427.205l-101.026 170.59q-1.564 2.769-3.564 4.09-2 1.32-4.788 1.32h-4.595q-4.334 0-7.232-4.351-2.897-4.351-1.333-9.777l47.411-161.872H218.256L192-579.693q-1.821 2.154-3.767 2.975-1.946.82-4.045.82h-2.612q-4.77 0-7.929-4.015-3.159-4.015-1.595-8.779l17-56.18Z"/></svg>