<svg xmlns="http://www.w3.org/2000/svg" height="40" viewBox="0 -960 960 960" width="40"><path d="M480.205-254.873q93.666 0 159.294-65.833 65.628-65.833 65.628-159.499t-65.694-159.294Q573.739-705.127 480-705.127q-93.461 0-159.294 65.694Q254.873-573.739 254.873-480q0 93.461 65.833 159.294 65.833 65.833 159.499 65.833Zm0-50.254q-72.334 0-123.706-51.316T305.127-480q0-72.539 51.316-123.706T480-654.873q72.539 0 123.706 51.167t51.167 123.501q0 72.334-51.167 123.706t-123.501 51.372Zm-17.897-157.181q7.615 7.615 17.692 7.615t17.692-7.615l56-56q7.615-7.615 7.615-17.692t-7.615-17.692q-7.615-7.615-17.692-7.615t-17.692 7.615l-56 56q-7.615 7.615-7.615 17.692t7.615 17.692ZM202.565-140.001q-25.788 0-44.176-18.388t-18.388-44.176v-554.87q0-25.788 18.388-44.176t44.176-18.388h554.87q25.788 0 44.176 18.388t18.388 44.176v554.87q0 25.788-18.388 44.176t-44.176 18.388h-554.87Zm0-50.255h554.87q4.616 0 8.462-3.847 3.847-3.846 3.847-8.462v-554.87q0-4.616-3.847-8.462-3.846-3.847-8.462-3.847h-554.87q-4.616 0-8.462 3.847-3.847 3.846-3.847 8.462v554.87q0 4.616 3.847 8.462 3.846 3.847 8.462 3.847Zm-12.309-579.488V-190.256-769.744Z"/></svg>