<svg xmlns="http://www.w3.org/2000/svg" height="40" viewBox="0 -960 960 960" width="40"><path d="M565.488-291.847q-9.718-4.205-13.91-13.333t-.603-18.794q6.737-16.984 10.805-34.005 4.067-17.02 7.144-34.302l42.999 42.999q-2.667 10.589-5.872 21.359-3.205 10.769-7.667 21.769-3.568 9.66-13.527 14.112-9.959 4.451-19.369.195Zm-130.392-53.89q-9.841-3.404-14.007-12.538-4.165-9.135-.986-19.212 7.667-24.59 11.295-50.628 3.629-26.039 3.629-51.885 0-12.573-.744-24.85-.744-12.277-2.897-24.585l53.896 53.896q-.206 29.462-4.321 58.154-4.115 28.692-13.192 56.564-3.125 9.6-12.806 14.377-9.681 4.777-19.867.707Zm-133.121-56.161q-9.744-3.704-14.077-12.339t-1.025-18.532q2.82-11.179 4.743-23.282 1.923-12.103 1.923-23.949 0-11.846-1.384-23.616-1.385-11.769-4.462-23.205-3.051-10.307.949-19.204t12.666-12.077q10.179-3.974 19.948.141T334-543.282q4.692 15.641 7.243 31.41 2.551 15.77 2.551 31.872t-2.551 31.666q-2.551 15.564-7.243 31.205-2.975 10.564-12.41 14.885-9.436 4.32-19.615.346Zm323.101-33.666-48.767-47.973q-.411-39.385-6.475-77.604-6.064-38.218-18.859-74.218-3.589-9.923.67-19.051 4.259-9.128 13.638-13.333 10.204-4.59 19.905-.038 9.7 4.551 13.196 14.345 14.692 41.257 21.539 84.923 6.846 43.667 6.846 88.513 0 11.183-.334 22.218-.333 11.034-1.359 22.218ZM480-100.001q-79.67 0-149.02-29.387-69.35-29.386-120.778-80.814-51.428-51.428-80.814-120.778-29.387-69.35-29.387-149.02 0-66.128 20.283-124.308 20.282-58.179 57.128-106.487L69.129-820.334q-7.435-7.179-7.435-17.551 0-10.371 7.435-17.807 7.564-7.82 18.064-7.82t17.679 7.82l752.282 751.641q7.436 7.436 7.436 17.936t-7.82 18.063q-7.436 7.436-17.807 7.436-10.372 0-18.192-7.436l-109.976-109.36q-48.308 36.846-106.487 57.128-58.18 20.283-124.308 20.283Zm0-50.255q55.257 0 104.308-16.77 49.052-16.769 90.334-46.539L213.565-674.642q-29.77 41.282-46.539 90.334-16.77 49.051-16.77 104.308 0 138.692 95.526 234.218Q341.308-150.256 480-150.256ZM794.717-265.18l-36.537-36.538q24.512-38.769 38.038-83.521 13.526-44.752 13.526-94.761 0-138.692-95.526-234.218Q618.692-809.744 480-809.744q-49.872 0-94.692 13.526-44.821 13.526-83.59 38.038l-36.538-36.537q45.8-30.923 100.037-48.102 54.238-17.18 114.783-17.18 79.26 0 148.61 29.592 69.349 29.592 120.777 81.02t81.02 120.777q29.592 69.35 29.592 148.61 0 60.545-17.18 114.783-17.179 54.237-48.102 100.037ZM530.051-530.051Zm-85.845 85.845Z"/></svg>