<svg xmlns="http://www.w3.org/2000/svg" height="40" viewBox="0 -960 960 960" width="40"><path d="M240.07-364.975q-15.205 0-25.56-10.359-10.356-10.359-10.356-25.673 0-15.204 10.286-25.56 10.285-10.356 25.49-10.356 15.205 0 25.56 10.315 10.356 10.316 10.356 25.564 0 15.249-10.286 25.659-10.285 10.41-25.49 10.41Zm0 160.821q-15.205 0-25.56-10.286-10.356-10.285-10.356-25.49 0-15.205 10.286-25.56 10.285-10.356 25.49-10.356 15.205 0 25.56 10.286 10.356 10.285 10.356 25.49 0 15.205-10.286 25.56-10.285 10.356-25.49 10.356Zm0-318.923q-15.205 0-25.56-10.315-10.356-10.316-10.356-25.564 0-15.249 10.286-25.659 10.285-10.41 25.49-10.41 15.205 0 25.56 10.359 10.356 10.359 10.356 25.673 0 15.204-10.286 25.56-10.285 10.356-25.49 10.356Zm-119.66-15.436q-8.41 0-14.41-5.961-6-5.962-6-14.577 0-8.616 6-14.577 6-5.962 14.41-5.962 8.667 0 14.667 5.962 6 5.961 6 14.577 0 8.615-6 14.577-6 5.961-14.667 5.961Zm119.66-145.641q-15.205 0-25.56-10.286-10.356-10.285-10.356-25.49 0-15.205 10.286-25.56 10.285-10.356 25.49-10.356 15.205 0 25.56 10.286 10.356 10.285 10.356 25.49 0 15.205-10.286 25.56-10.285 10.356-25.49 10.356ZM120.41-380.41q-8.41 0-14.41-5.962-6-5.961-6-14.577 0-8.615 6-14.577 6-5.961 14.41-5.961 8.667 0 14.667 5.961 6 5.962 6 14.577 0 8.616-6 14.577-6 5.962-14.667 5.962ZM401.077-100q-8.667 0-14.667-5.962-6-5.961-6-14.576 0-8.616 6-14.577 6-5.962 14.667-5.962 8.41 0 14.41 5.962 6 5.961 6 14.577 0 8.615-6 14.576-6 5.962-14.41 5.962Zm0-718.923q-8.667 0-14.667-5.962-6-5.961-6-14.577 0-8.615 6-14.576 6-5.962 14.667-5.962 8.41 0 14.41 5.962 6 5.961 6 14.576 0 8.616-6 14.577-6 5.962-14.41 5.962Zm-.033 134.769q-15.249 0-25.659-10.286-10.41-10.285-10.41-25.49 0-15.205 10.359-25.56 10.359-10.356 25.673-10.356 15.204 0 25.56 10.286 10.356 10.285 10.356 25.49 0 15.205-10.315 25.56-10.316 10.356-25.564 10.356Zm-.005 334.205q-21.116 0-36.103-14.886-14.987-14.886-14.987-36.151 0-20.988 14.886-35.975 14.886-14.987 36.151-14.987 20.988 0 35.975 14.896 14.987 14.897 14.987 36.013t-14.896 36.103q-14.897 14.987-36.013 14.987Zm0-158.103q-21.116 0-36.103-14.896-14.987-14.897-14.987-36.013t14.886-36.103q14.886-14.987 36.151-14.987 20.988 0 35.975 14.886 14.987 14.886 14.987 36.151 0 20.988-14.896 35.975-14.897 14.987-36.013 14.987Zm.005 303.898q-15.249 0-25.659-10.286-10.41-10.285-10.41-25.49 0-15.205 10.359-25.56 10.359-10.356 25.673-10.356 15.204 0 25.56 10.286 10.356 10.285 10.356 25.49 0 15.205-10.315 25.56-10.316 10.356-25.564 10.356Zm93.829 68.897v-689.486q69.051 2.616 129.191 30.731 60.141 28.115 104.974 74.628 44.833 46.513 70.461 108.132 25.628 61.619 25.628 131.234 0 69.615-25.628 131.252-25.628 61.637-70.461 108.15-44.833 46.513-104.974 74.628-60.14 28.115-129.191 30.731Z"/></svg>