<svg xmlns="http://www.w3.org/2000/svg" height="40" viewBox="0 -960 960 960" width="40"><path d="M282.975-140.001q-25.705 0-44.134-18.43-18.429-18.429-18.429-44.134v-532.05h-15.283q-10.705 0-17.916-7.245-7.212-7.245-7.212-18 0-10.754 7.212-17.882 7.211-7.128 17.916-7.128h148.922q0-12.795 8.942-21.654 8.943-8.859 21.571-8.859h190.872q12.628 0 21.571 8.942 8.942 8.943 8.942 21.571h148.922q10.705 0 17.916 7.245 7.212 7.245 7.212 17.999 0 10.755-7.212 17.883-7.211 7.128-17.916 7.128h-15.283v532.05q0 25.705-18.429 44.134-18.429 18.43-44.134 18.43h-394.05Zm406.358-594.614H270.667v532.05q0 5.385 3.59 8.847 3.59 3.462 8.718 3.462h394.05q5.128 0 8.718-3.462t3.59-8.847v-532.05Zm-418.666 0V-190.256-734.615ZM480-425.693l92.667 93.077q7.641 7.897 18.987 8.295 11.346.397 19.371-7.962 8.026-8.358 8.026-19.179 0-10.82-8.026-18.845l-92.667-93.488 92.667-93.744q7.641-7.641 7.833-18.653.193-11.013-7.833-19.038-8.025-8.026-19.179-8.026-11.153 0-19.179 8.026L480-502.153l-92.257-93.077q-7.641-7.898-18.858-7.962-11.218-.064-19.243 7.962-8.026 8.025-8.026 19.05 0 11.026 8.026 19.051l92.667 93.334-92.667 93.078q-7.898 7.64-7.962 18.858-.064 11.218 7.962 19.243 8.025 8.282 19.05 8.282 11.026 0 19.051-8.282L480-425.693Z"/></svg>