<svg xmlns="http://www.w3.org/2000/svg" height="40" viewBox="0 -960 960 960" width="40"><path d="M505.129-614.873v56.77q0 10.68 7.263 17.904t17.999 7.224q10.737 0 17.865-7.224 7.128-7.224 7.128-17.904v-56.77h56.77q10.679 0 17.903-7.262 7.224-7.263 7.224-18 0-10.736-7.224-17.864t-17.903-7.128h-56.77v-56.77q0-10.68-7.263-17.904t-18-7.224q-10.736 0-17.864 7.224t-7.128 17.904v56.77h-56.77q-10.679 0-17.903 7.262-7.225 7.263-7.225 18 0 10.736 7.225 17.864 7.224 7.128 17.903 7.128h56.77Zm-56.77 240h163.795q10.679 0 17.903-7.262 7.224-7.263 7.224-18 0-10.736-7.224-17.864t-17.903-7.128H448.359q-10.679 0-17.903 7.262-7.225 7.263-7.225 18 0 10.736 7.225 17.864 7.224 7.128 17.903 7.128ZM303.078-200.514q-25.789 0-44.176-18.388-18.388-18.387-18.388-44.176v-574.357q0-25.788 18.388-44.176 18.387-18.388 44.176-18.388h284.846q13.031 0 24.657 5.077 11.625 5.077 19.984 13.436l168.921 168.921q8.359 8.359 13.436 19.984 5.077 11.626 5.077 24.657v404.846q0 25.789-18.388 44.176-18.388 18.388-44.176 18.388H303.078Zm0-50.255h454.357q4.616 0 8.462-3.847 3.847-3.846 3.847-8.462v-407.744L588.668-849.744h-285.59q-4.616 0-8.462 3.847-3.847 3.846-3.847 8.462v574.357q0 4.616 3.847 8.462 3.846 3.847 8.462 3.847ZM162.565-60.001q-25.788 0-44.176-18.388t-18.388-44.176v-531.383q0-10.679 7.263-17.903 7.263-7.225 18-7.225 10.736 0 17.864 7.225 7.128 7.224 7.128 17.903v531.383q0 4.616 3.847 8.462 3.846 3.847 8.462 3.847h410.716q10.68 0 17.904 7.263 7.224 7.262 7.224 17.999 0 10.737-7.224 17.865-7.224 7.128-17.904 7.128H162.565ZM290.769-250.77V-849.744v598.975Z"/></svg>