<svg xmlns="http://www.w3.org/2000/svg" height="40" viewBox="0 -960 960 960" width="40"><path d="M229.334-235.847q-48.103-48.897-73.718-112.051Q130.001-411.052 130.001-480q0-147.307 105.769-248.653t254.231-101.346v-38.718q0-9.359 8.487-13.974t16.641 1.41L622.384-800q12.307 9.616 12.307 25.128 0 15.513-12.307 25.128l-107.255 81.281q-8.154 6.026-16.641 1.41-8.487-4.615-8.487-13.974v-38.717q-102.77 0-176.258 69.256Q240.256-581.231 240.256-480q0 50.897 20.32 96.487 20.321 45.59 55.885 80.923l-87.127 66.743Zm240.665 105.846v38.718q0 9.359-8.487 13.974t-16.641-1.41L337.873-160q-12.564-9.616-12.564-25.128 0-15.513 12.564-25.128l106.998-81.281q8.154-6.026 16.641-1.41 8.487 4.615 8.487 13.974v38.717q102.77 0 176.258-69.256Q719.744-378.769 719.744-480q0-50.897-20.448-96.885-20.449-45.987-57.244-80.91l87.794-65.922q48.513 48.333 74.333 111.358 25.82 63.026 25.82 132.359 0 147.307-105.769 248.653T469.999-130.001Z"/></svg>