<svg xmlns="http://www.w3.org/2000/svg" height="40" viewBox="0 -960 960 960" width="40"><path d="m480-445.001 126.693 126.693q7.23 7.23 17.499 7.038 10.269-.192 17.5-7.423 7.23-7.23 7.23-17.499 0-10.269-7.23-17.5L514.999-480l126.693-126.693q7.23-7.23 7.23-17.499 0-10.269-7.23-17.5-7.231-7.23-17.5-7.23t-17.499 7.23L480-514.999 353.307-641.692q-7.23-7.23-17.307-7.23-10.077 0-17.307 7.23-7.231 7.231-7.231 17.5t7.231 17.499L445.001-480 318.308-353.307q-7.23 7.23-7.038 17.307.192 10.077 7.423 17.307 7.23 7.231 17.499 7.231 10.269 0 17.5-7.231L480-445.001Zm-277.435 305q-25.788 0-44.176-18.388t-18.388-44.176v-554.87q0-25.788 18.388-44.176t44.176-18.388h554.87q25.788 0 44.176 18.388t18.388 44.176v554.87q0 25.788-18.388 44.176t-44.176 18.388h-554.87Zm0-50.255h554.87q4.616 0 8.462-3.847 3.847-3.846 3.847-8.462v-554.87q0-4.616-3.847-8.462-3.846-3.847-8.462-3.847h-554.87q-4.616 0-8.462 3.847-3.847 3.846-3.847 8.462v554.87q0 4.616 3.847 8.462 3.846 3.847 8.462 3.847Zm-12.309-579.488V-190.256-769.744Z"/></svg>