<svg xmlns="http://www.w3.org/2000/svg" height="40" viewBox="0 -960 960 960" width="40"><path d="m480-445.001 126.693 126.693q7.23 7.23 17.499 7.038 10.269-.192 17.5-7.423 7.23-7.23 7.23-17.499 0-10.269-7.23-17.5L514.999-480l126.693-126.693q7.23-7.23 7.23-17.499 0-10.269-7.23-17.5-7.231-7.23-17.5-7.23t-17.499 7.23L480-514.999 353.307-641.692q-7.23-7.23-17.307-7.23-10.077 0-17.307 7.23-7.231 7.231-7.231 17.5t7.231 17.499L445.001-480 318.308-353.307q-7.23 7.23-7.038 17.307.192 10.077 7.423 17.307 7.23 7.231 17.499 7.231 10.269 0 17.5-7.231L480-445.001Zm-277.435 305q-25.846 0-44.205-18.359-18.359-18.359-18.359-44.205v-554.87q0-25.846 18.359-44.205 18.359-18.359 44.205-18.359h554.87q25.846 0 44.205 18.359 18.359 18.359 18.359 44.205v554.87q0 25.846-18.359 44.205-18.359 18.359-44.205 18.359h-554.87Z"/></svg>