<svg xmlns="http://www.w3.org/2000/svg" height="40" viewBox="0 -960 960 960" width="40"><path d="M354.001-79.514q-46.821 0-82.693-28.154-35.871-28.154-49.845-72.41-14.077 22.923-36.423 35.525-22.346 12.603-49.91 12.603-44.487 0-74.602-31.038-30.116-31.039-30.116-74.5 0-42.897 28-72.307 28-29.41 71.231-30.205-18.975-19.231-29.872-45.359-10.898-26.128-10.898-53.744 0-35.461 17.846-66.628 17.846-31.166 50.589-50.551 4.103 10.821 10.141 23.487 6.039 12.666 12.474 22.307-19.282 13.359-29.744 32.603-10.461 19.243-10.461 40.192 0 61.231 47.282 77.885 47.282 16.654 94.026 25.834l9.948 17.82q-11.41 33.231-18.628 55.667-7.218 22.435-7.218 41.23 0 35.744 26.411 62.424 26.41 26.68 62.744 26.68 37.102 0 62.718-27.013 25.615-27.013 42.487-66.154 16.872-39.141 27.09-82.783 10.218-43.641 16.603-77.307 1.948-11.385 10.794-17.808t19.102-3.653q11.256 3.435 16.167 13.474 4.91 10.038 2.346 22.089-8.616 42.23-20.91 93.025-12.295 50.795-34.231 94.436-21.936 43.641-55.961 72.987-34.026 29.346-86.487 29.346Zm71.306-297.896q-8.436 8.436-20.615 6.743-12.179-1.692-21.615-10.128-75.743-68.487-121.974-123.551-46.23-55.064-46.23-119.525 0-58.461 40.461-98.794 40.461-40.334 98.666-40.334 9.769 0 18.218.885t16.27 3.116q-6.949-13-10.282-23.885-3.333-10.885-3.333-22.295 0-43.871 30.628-74.499 30.628-30.628 74.499-30.628 43.871 0 74.499 30.628 30.628 30.628 30.628 74.499 0 11-3.128 21.987-3.128 10.988-10.487 23.988 7.821-2.231 16.27-3.013 8.449-.783 18.218-.783 51.205 0 87.884 31.077 36.679 31.076 46.166 78.383-11.615-1.153-25.678-.948-14.064.205-25.884 1.82-8.103-26.641-30.026-43.359-21.923-16.718-52.462-16.718-36.974 0-58.769 19.923t-57.642 61.565h-20.178q-36.59-43.257-58.385-62.372-21.795-19.116-57.026-19.116-38.129 0-63.501 25.372t-25.372 63.501q0 44.385 40.847 93.436 40.846 49.051 113.795 114.667 9.435 8.077 11.397 19.307 1.961 11.231-5.859 19.051ZM604.23-78.719q-18.153 0-35.807-5-17.654-5-34.192-15.333 6.564-9.461 13.513-21.948 6.948-12.487 11.743-23.153 11.333 7.359 23.064 10.871 11.73 3.513 23.474 3.513 36.949 0 63.013-26.679 26.065-26.68 26.065-63.014 0-19.41-7.552-41.551-7.551-22.141-18.294-54.962l10.333-17.563q48-8.769 94.654-25.616 46.654-16.846 46.654-78.077 0-46.129-32.962-68.513-32.962-22.385-73.962-22.385-37 0-85.782 12.346t-111.244 32.141q-11.384 3.436-21.961-.526-10.577-3.961-13.346-14.551-2.769-11.256 3.962-20.704 6.73-9.449 18.14-13.295 62.667-20.025 113.577-33.23 50.91-13.205 94.551-13.205 62.461 0 110.871 37.025t48.41 104.487q0 27.615-10.577 52.961-10.577 25.347-29.808 45.09 42.821 1.18 71.026 30.538 28.205 29.359 28.205 71.974 0 43.333-30.115 74.564-30.116 31.23-74.602 31.23-27.154 0-49.91-12.602-22.757-12.603-36.423-35.782-14.641 44.256-50.769 72.603-36.128 28.346-83.949 28.346Z"/></svg>