<svg xmlns="http://www.w3.org/2000/svg" height="40" viewBox="0 -960 960 960" width="40"><path d="M354.001-79.514q-46.821 0-82.693-28.154-35.871-28.154-49.845-72.41-14.077 22.923-36.423 35.525-22.346 12.603-49.91 12.603-44.487 0-74.602-31.038-30.116-31.039-30.116-74.5 0-42.897 28-72.307 28-29.41 71.231-30.205-18.975-19.231-29.872-45.359-10.898-26.128-10.898-53.744 0-35.34 17.846-66.567 17.846-31.227 50.589-50.612 3.8 10.9 9.99 23.526 6.19 12.627 12.625 22.268-19.326 13.641-29.766 32.829-10.439 19.187-10.439 39.966 0 61.231 47.282 77.885 47.282 16.654 94.026 25.834l9.948 17.82q-11.41 33.231-18.628 55.667-7.218 22.435-7.218 41.23 0 35.744 26.411 62.424 26.41 26.68 63.04 26.68 36.806 0 62.422-27.013 25.615-27.013 42.441-66.038 16.825-39.025 27.089-82.782 10.265-43.758 16.65-77.424 2.099-11.218 10.87-17.724 8.77-6.507 19.026-3.737 11.256 3.435 16.167 13.474 4.91 10.038 2.346 22.089-8.616 42.23-20.91 93.025-12.295 50.795-34.245 94.573-21.95 43.778-55.961 72.987-34.012 29.21-86.473 29.21ZM135.423-182.205q23.117 0 39.053-15.819 15.936-15.819 15.936-38.937 0-22.861-15.819-38.925-15.819-16.064-38.936-16.064-22.861 0-38.925 15.947-16.065 15.948-16.065 38.808 0 23.118 15.948 39.054 15.947 15.936 38.808 15.936Zm289.691-195.387q-8.479 8.618-20.54 6.925-12.061-1.692-21.497-10.128-75.743-68.487-121.974-123.673-46.23-55.186-46.23-119.403 0-58.461 40.461-98.794 40.461-40.334 98.666-40.334 9.769 0 18.218.885t16.27 3.116q-6.949-13-10.282-23.885-3.333-10.885-3.333-22.295 0-43.76 30.706-74.444 30.706-30.683 74.499-30.683 43.793 0 74.421 30.683 30.628 30.684 30.628 74.444 0 11-3.128 21.987-3.128 10.988-10.487 23.988 7.821-2.231 16.27-3.013 8.449-.783 18.218-.783 50.982 0 87.773 31.077 36.79 31.076 46.277 78.383-11.615-1.153-25.678-.948-14.064.205-25.807 1.82-8.18-26.641-30.103-43.359-21.923-16.718-52.462-16.718-36.974 0-58.769 19.923t-57.642 61.565h-20.178q-36.59-43.257-58.385-62.372-21.795-19.116-57.026-19.116-38.345 0-63.609 25.264-25.264 25.264-25.264 63.609 0 44.49 40.847 93.489 40.846 48.998 113.795 114.614 9.435 8.077 11.397 19.307 1.961 11.231-6.052 18.869Zm54.769-372.713q23.117 0 39.053-15.819 15.937-15.82 15.937-38.937 0-23.117-15.82-39.053-15.819-15.936-38.936-15.936-23.117 0-39.053 15.819-15.937 15.819-15.937 38.936 0 23.117 15.82 39.054 15.819 15.936 38.936 15.936ZM604.23-78.719q-18.153 0-35.807-5-17.654-5-34.192-15.333 6.564-9.461 13.513-21.948 6.948-12.487 11.743-23.153 11.333 7.359 23.175 10.871 11.842 3.513 23.363 3.513 36.949 0 63.013-26.679 26.065-26.68 26.065-63.014 0-19.145-7.552-41.419-7.551-22.273-18.294-55.094l10.333-17.563q48-8.769 94.654-25.616 46.654-16.846 46.654-78.077 0-46.129-33.125-68.513-33.124-22.385-73.629-22.385-37.17 0-86.056 12.237-48.886 12.238-111.14 32.25-11.384 3.436-21.961-.526-10.577-3.961-13.346-14.884t3.962-20.371q6.73-9.449 18.14-13.295 62.539-19.938 113.425-33.187 50.887-13.248 94.703-13.248 62.461 0 110.871 36.939 48.41 36.94 48.41 104.573 0 27.615-10.577 52.961-10.577 25.347-29.808 45.09 42.821 1.18 71.026 30.538 28.205 29.359 28.205 71.974 0 43.333-30.115 74.564-30.116 31.23-74.602 31.23-27.154 0-49.91-12.602-22.757-12.603-36.423-35.782-14.641 44.256-50.769 72.603-36.128 28.346-83.949 28.346Zm221.64-102.819q22.334 0 38.103-15.981 15.77-15.981 15.77-38.892 0-22.334-16.27-39.103-16.269-16.77-38.603-16.77-22.333 0-38.603 16.27-16.269 16.269-16.269 38.603 0 22.334 16.769 39.103 16.77 16.77 39.103 16.77Zm-690.33-55.54ZM480-805.178Zm344.87 567.767Z"/></svg>