<svg xmlns="http://www.w3.org/2000/svg" height="40" viewBox="0 -960 960 960" width="40"><path d="m381-255.309 423.589-423.332-35.999-35.794-387.795 387.333-189.308-189.512-35.999 35.999L381-255.309ZM345.283-219.9 120.079-444.847q-7.733-7.792-11.187-16.829-3.454-9.036-3.454-18.808t3.454-19.076q3.454-9.304 11.187-17.029l35.2-35.199q8.055-8.056 17.209-11.569 9.153-3.512 18.999-3.512 9.59 0 18.871 3.512 9.282 3.513 16.846 11.333L381-398.228l352.001-352.206q7.615-7.82 16.871-11.23 9.257-3.41 18.897-3.41 9.641 0 18.897 3.41 9.256 3.41 17.2 10.78l35.393 35.401q7.687 8.099 11.328 17.253 3.641 9.153 3.641 18.999 0 9.846-3.582 18.975-3.581 9.129-11.058 16.742L416.973-219.9q-7.82 7.821-17.076 11.333-9.256 3.513-18.897 3.513-9.641 0-18.897-3.513-9.256-3.512-16.82-11.333Z"/></svg>