<svg xmlns="http://www.w3.org/2000/svg" height="40" viewBox="0 -960 960 960" width="40"><path d="M378.95-449.077q-13.333 0-23.141-9.808-9.808-9.807-9.808-23.141 0-13.333 9.808-23.14 9.808-9.808 23.141-9.808 13.333 0 23.141 9.808 9.807 9.807 9.807 23.14 0 13.334-9.807 23.141-9.808 9.808-23.141 9.808Zm202.51 0q-13.333 0-23.14-9.808-9.808-9.807-9.808-23.141 0-13.333 9.808-23.14 9.807-9.808 23.14-9.808 13.334 0 23.141 9.808 9.808 9.807 9.808 23.14 0 13.334-9.808 23.141-9.807 9.808-23.141 9.808ZM175.13-140.001q-10.68 0-17.904-7.256t-7.224-17.982q0-10.556 7.487-17.043 7.487-6.488 17.641-7.974h17.847v-567.179q0-25.788 18.387-44.176 18.388-18.388 44.176-18.388h448.92q25.788 0 44.176 18.388 18.387 18.388 18.387 44.176v567.179h17.847q10.679 0 17.904 7.263 7.224 7.263 7.224 17.999 0 10.737-7.224 17.865-7.225 7.128-17.904 7.128H175.13Zm68.101-50.255h211.642v-579.488H255.54q-4.616 0-8.462 3.847-3.847 3.846-3.847 8.462v567.179Zm261.896 0h211.641v-567.179q0-4.616-3.846-8.462-3.846-3.847-8.462-3.847H505.127v579.488ZM480-506.204Z"/></svg>