<svg xmlns="http://www.w3.org/2000/svg" height="40" viewBox="0 -960 960 960" width="40"><path d="M379.078-449.077q13.205 0 23.013-9.808 9.807-9.807 9.807-23.012 0-13.462-9.807-23.269-9.808-9.808-23.013-9.808-13.461 0-23.269 9.808-9.808 9.807-9.808 23.269 0 13.205 9.808 23.012 9.808 9.808 23.269 9.808Zm202.511 0q13.205 0 23.012-9.808 9.808-9.807 9.808-23.012 0-13.462-9.808-23.269-9.807-9.808-23.012-9.808-13.462 0-23.269 9.808-9.808 9.807-9.808 23.269 0 13.205 9.808 23.012 9.807 9.808 23.269 9.808ZM175.13-140.001q-10.686 0-17.907-7.253t-7.221-17.985q0-10.556 7.487-17.043 7.487-6.488 17.641-7.974h17.847v-567.179q0-25.609 18.349-44.086 18.349-18.478 44.214-18.478h209.332v629.743h30.512v-629.743h209.009q26.028 0 44.329 18.478 18.301 18.477 18.301 44.086v567.179h17.847q10.686 0 17.907 7.258t7.221 18q0 10.741-7.221 17.869t-17.907 7.128H175.13Z"/></svg>