<svg xmlns="http://www.w3.org/2000/svg" height="40" viewBox="0 -960 960 960" width="40"><path d="M362.565-140.001q-25.609 0-44.086-18.478-18.478-18.477-18.478-44.086V-304.36h185.384q22.951 0 39.296-16.365 16.344-16.365 16.344-39.345 0-22.981-16.344-39.275-16.345-16.295-39.296-16.295H300.001v-341.795q0-25.609 18.478-44.086 18.477-18.478 44.086-18.478h234.87q25.609 0 44.086 18.478 18.478 18.477 18.478 44.086v554.87q0 25.609-18.478 44.086-18.477 18.478-44.086 18.478h-234.87ZM212.822-334.873q-10.679 0-17.904-7.262-7.224-7.263-7.224-18 0-10.736 7.224-17.864 7.225-7.128 17.904-7.128h272.563q10.679 0 17.903 7.262 7.224 7.263 7.224 18 0 10.736-7.224 17.864t-17.903 7.128H212.822Zm267.299-234.615q12.674 0 21.533-8.98 8.858-8.98 8.858-21.653 0-12.674-8.98-21.533-8.98-8.858-21.653-8.858-12.674 0-21.533 8.98-8.858 8.98-8.858 21.653 0 12.674 8.98 21.533 8.98 8.858 21.653 8.858Zm314.615-45.385q-10.736 0-17.864-7.224T769.744-640v-160q0-10.679 7.263-17.903 7.263-7.224 17.999-7.224 10.737 0 17.865 7.224 7.128 7.224 7.128 17.903v160q0 10.679-7.263 17.903-7.263 7.224-18 7.224Z"/></svg>