<svg xmlns="http://www.w3.org/2000/svg" height="40" viewBox="0 -960 960 960" width="40"><path d="m512.282-877.434 323.41 193.333q12.717 7.615 18.512 20.243 5.795 12.628 5.795 25.396v435.897q0 25.846-18.359 44.205-18.359 18.359-44.205 18.359h-634.87q-25.846 0-44.205-18.359-18.359-18.359-18.359-44.205v-435.897q0-12.768 6-25.396t18.307-20.243l323.41-193.333q14.769-8.359 32.282-8.359 17.513 0 32.282 8.359Zm-26.128 419.588 317.487-187.436-317.487-190q-3.077-1.923-6.154-1.923t-6.154 1.923l-317.487 190 317.487 187.436q3.077 1.923 6.154 1.923t6.154-1.923Z"/></svg>