<svg xmlns="http://www.w3.org/2000/svg" height="40" viewBox="0 -960 960 960" width="40"><path d="M162.565-180.001q-25.846 0-44.205-18.564-18.359-18.564-18.359-44v-474.87q0-25.436 18.359-44t44.205-18.564h213.64q12.564 0 24.294 5.077 11.731 5.077 20.346 13.436l51.488 51.744h325.102q25.436 0 44 18.564t18.564 43.999v404.614q0 25.436-18.564 44t-44 18.564h-634.87Zm367.693-234.872-57.949 57.95q-7.231 7.231-7.423 17.5-.193 10.269 7.423 17.884 7.615 7.615 17.691 7.615 10.077 0 17.692-7.615l96.538-96.538q9.359-9.359 9.359-21.923 0-12.564-9.359-21.923l-96.538-96.538q-7.23-7.23-17.499-7.423-10.269-.192-17.884 7.423-7.616 7.615-7.616 17.692t7.616 17.692l57.949 57.95H358.975q-10.872 0-18 7.128T333.847-440q0 10.871 7.128 17.999 7.128 7.128 18 7.128h171.283Z"/></svg>