<svg xmlns="http://www.w3.org/2000/svg" height="40" viewBox="0 -960 960 960" width="40"><path d="M242.565-100.001q-25.846 0-44.205-18.359-18.359-18.359-18.359-44.205v-634.87q0-25.846 18.359-44.205 18.359-18.359 44.205-18.359h301.308q12.735 0 24.508 5.077t20.389 13.436L761.486-668.77q8.359 8.616 13.436 20.389t5.077 24.508v112.77q-18.488 2.769-35.24 11.856-16.753 9.087-30.709 22.759L493.845-257.077q-8.359 8.615-13.538 20.26-5.18 11.646-5.18 24.38v112.436H242.565Zm310.511-31.282v-61.897q0-5.986 2.205-11.455 2.206-5.468 7.154-10.416L770.23-421.846q7.461-7.077 16.111-10.308 8.649-3.23 17.299-3.23 9.435 0 18.252 3.538 8.816 3.539 16.029 10.615l37 37.385q6.872 7.461 10.205 16.153 3.333 8.693 3.333 17.385 0 8.692-3.564 17.692t-10.384 16.461L668.126-109.36q-4.948 4.948-10.417 7.153-5.468 2.206-11.454 2.206h-61.897q-13.468 0-22.375-8.907t-8.907-22.375Zm250.692-180.41 37-38.615-37-37.385-38 38 38 38ZM571.129-620.001h158.615L540.001-809.744l189.743 189.743-189.743-189.743v158.615q0 13.402 8.863 22.265 8.863 8.863 22.265 8.863Z"/></svg>