<svg xmlns="http://www.w3.org/2000/svg" height="40" viewBox="0 -960 960 960" width="40"><path d="M205.129-140.001q-10.679 0-17.903-7.263-7.225-7.263-7.225-18 0-10.736 7.225-17.864 7.224-7.128 17.903-7.128h549.742q10.679 0 17.903 7.263 7.225 7.263 7.225 17.999 0 10.737-7.225 17.865-7.224 7.128-17.903 7.128H205.129ZM708.05-620.256h87.846q5.77 0 9.809-3.654t4.039-9.039V-757.05q0-5.385-4.039-9.04-4.039-3.654-9.809-3.654H708.05v149.488ZM318.231-285.642q-57.711 0-97.97-39.538-40.26-39.538-40.26-96.358v-341.436q0-23.707 16.659-40.366t40.366-16.659h123.795v89.898l-66.615 54.153q-2.411 2-8.411 17.077v135.639q0 8.554 6.359 15.226 6.359 6.672 15.949 6.672h140.409q9.59 0 15.949-6.672t6.359-15.226v-135.597q0-2.709-8.41-17.119l-66.205-54.153v-89.898h399.691q26.443 0 45.273 18.43 18.83 18.429 18.83 44.519v124.101q0 26.09-18.83 44.519t-45.273 18.429H708.05v148.463q0 56.82-40.259 96.358-40.259 39.538-97.97 39.538h-251.59Z"/></svg>