<svg xmlns="http://www.w3.org/2000/svg" height="40" viewBox="0 -960 960 960" width="40"><path d="M270.256-434.207v279.079q0 10.685-7.258 17.906-7.258 7.221-18 7.221-10.741 0-17.869-7.221t-7.128-17.906v-593.589q0-13.301 8.991-22.291 8.99-8.991 22.291-8.991h258.844q10.727 0 19.594 6.885 8.868 6.885 11.073 18.243l12.282 57.847h195.641q13.301 0 22.291 8.946 8.991 8.946 8.991 22.183v283.132q0 12.98-8.991 22.05-8.99 9.07-22.291 9.07H573.514q-10.983 0-19.722-6.679t-10.945-18.038l-12.538-57.847H270.256Z"/></svg>