<svg xmlns="http://www.w3.org/2000/svg" height="40" viewBox="0 -960 960 960" width="40"><path d="M480-100.001q-78.769 0-148.115-29.962-69.346-29.961-120.653-81.269-51.308-51.307-81.269-120.653Q100.001-401.231 100.001-480q0-124.384 72.282-223.205 72.283-98.82 189.026-138.435 8.949-2.513 15.807 3.923 6.859 6.436 6.859 16.948.257 11.282-5.295 20.436-5.551 9.153-15.602 13.358-95.488 36.333-154.155 119.974Q150.256-583.359 150.256-480q0 137.795 95.975 233.769Q342.205-150.256 480-150.256q137.795 0 233.769-95.975Q809.744-342.205 809.744-480q0-103.359-58.667-187.001-58.667-83.641-154.155-119.974-10.051-4.205-15.602-13.358-5.552-9.154-5.295-20.436.256-10.512 7.243-16.948t16.192-3.667q116.231 39.872 188.385 138.462Q859.999-604.333 859.999-480q0 78.769-29.962 148.115-29.961 69.346-81.269 120.653-51.307 51.308-120.653 81.269Q558.769-100.001 480-100.001Zm-25.127-337.1v-396.975q0-10.872 7.128-18T480-859.204q10.871 0 17.999 7.128 7.128 7.128 7.128 18v396.975l107.95-107.745q7.231-7.23 17.397-7.525 10.167-.295 17.987 7.525 7.615 7.616 7.615 17.692 0 10.077-7.615 17.692L501.923-362.924q-9.359 9.359-21.923 9.359-12.564 0-21.923-9.359L311.539-509.462q-7.231-7.231-7.525-17.397-.295-10.166 7.525-17.987 7.615-7.615 17.692-7.615 10.076 0 17.692 7.615l107.95 107.745Z"/></svg>