<svg xmlns="http://www.w3.org/2000/svg" height="40" viewBox="0 -960 960 960" width="40"><path d="M190.256-140.001q-20.518 0-35.386-14.869-14.869-14.868-14.869-35.386v-166.719q39.179-7.308 66.41-36.051 27.23-28.744 27.23-68.461 0-39.718-27.23-68.333-27.231-28.615-66.41-36.18v-170.564q0-10.557 3.957-19.562 3.956-9.004 10.966-15.771l35.332 35.333v133.95q42.92 17.647 68.28 56.216t25.36 85.18q0 45.815-25.41 84.477-25.41 38.663-68.23 56.38v130.105h129.72q18.359-42.564 56.852-68.102 38.493-25.538 84.55-25.538 46.057 0 84.705 25.532 38.648 25.531 56.915 68.108h133.566l35.333 35.332q-6.767 7.01-15.771 10.966-9.005 3.957-19.562 3.957H566q-7.565-39.179-36.18-66.41-28.615-27.23-68.333-27.23-39.717 0-68.461 27.23-28.743 27.231-36.051 66.41H190.256Zm592.717-136.718-50.255-50.237v-78.683h32.049q22.001-1.667 36.591-17.347 14.59-15.68 14.59-37.552 0-21.873-14.59-37.553-14.59-15.68-36.591-17.347h-32.049v-217.28H517.335v-33.536q-1.667-22.001-17.347-36.591-15.68-14.59-37.552-14.59-21.873 0-37.552 14.59-15.68 14.59-17.347 36.591v33.536h-80.581l-50.237-50.255h81.794q10.667-37.077 38.5-60.897t65.423-23.82q37.589 0 65.423 23.82 27.833 23.82 38.5 60.897h166.359q20.23 0 35.243 15.012 15.012 15.013 15.012 35.243v166.359q37.077 10.667 60.153 39.449 23.077 28.782 23.077 66.372 0 37.589-23.077 64.679-23.076 27.089-60.153 37.756v81.384Zm2.31 173.128L102.976-785.283q-7.436-7.514-7.32-17.846.115-10.332 7.97-18.153 7.599-7.564 17.82-7.564t18.144 7.564l681.692 682.307q7.179 7.552 7.371 17.686.193 10.134-7.406 17.698-7.958 7.82-18.179 7.82-10.221 0-17.785-7.82ZM529.846-529.846ZM463.41-463.41Z"/></svg>