<svg xmlns="http://www.w3.org/2000/svg" height="40" viewBox="0 -960 960 960" width="40"><path d="m500-187.127 267.436-383.257q2.692-3.59 2.308-8.013-.385-4.423-3.462-7.757L508.847-845.513Q505-849.359 500-849.359t-8.847 3.846l-257.23 259.564q-3.333 3.334-3.59 7.629-.256 4.295 2.436 8.141L500-187.127Zm.205-332.129ZM396.026-53.386q-46.051 0-83.295-27.435-37.243-27.436-52.243-72.359-8.667-27.974-27.194-46.757-18.527-18.782-44.44-18.782-17.858 0-34.279 7.769-16.421 7.77-29.754 21.616-3.322 3.974-7.503 5.871-4.182 1.898-10.014 1.898-10.38 0-17.713-7.343t-7.333-17.945q0-4.455 1.615-8.755 1.616-4.3 5.077-7.776 19.342-21.881 45.315-33.735 25.974-11.855 54.275-11.855 42.358 0 74.203 28.705 31.846 28.705 46.846 73.038 9.462 28.796 33.387 46.193 23.925 17.398 53.05 17.398 22.846 0 41.09-11.398 18.244-11.398 31.167-27.988l.974-1.564L191.591-541q-6.42-8.827-9.005-18.001-2.585-9.174-2.585-18.733 0-12.137 4.68-23.446 4.679-11.309 13.654-20.717l258.973-260.768q8.648-8.446 19.683-13.082 11.035-4.636 23.009-4.636t23.009 4.636q11.035 4.636 19.683 13.082l258.973 260.768q8.975 9.394 13.654 20.687 4.68 11.292 4.68 23.683 0 9.861-2.718 18.981-2.718 9.121-8.462 17.546L511.693-117.361q-21.103 30.667-51.052 47.322-29.949 16.654-64.615 16.654Z"/></svg>