<svg xmlns="http://www.w3.org/2000/svg" height="40" viewBox="0 -960 960 960" width="40"><path d="M534.666-452.257q12.795 0 21.654-9.064t8.859-21.449q0-6.256-1.654-10.922-1.654-4.667-5.09-8.898 11.026-1.077 19.423-9.5 8.398-8.423 8.398-19.602 0-12.795-8.859-21.654-8.859-8.858-21.654-8.858-10.641 0-19.128 7.025-8.487 7.026-10.23 17.846l-154.641-73.359q3.41-4.128 5.474-8.833t2.064-10.27q0-12.794-8.859-21.653-8.858-8.859-21.653-8.859-12.385 0-21.449 8.859-9.064 8.859-9.064 21.653 0 4.847 1.949 9.385 1.949 4.538 5.385 8.769-11.282 1.077-19.846 9.5-8.565 8.423-8.565 20.602 0 12.385 9.064 21.449 9.064 9.064 21.449 9.064 11.256 0 19.23-6.949 7.975-6.949 10.359-17l154.667 72.59q-1.18 1.18-7.795 19.615 0 12.385 9.064 21.449 9.064 9.064 21.448 9.064ZM415.95-80.385q-18.82-49.692-26.628-99.231-7.808-49.539-8.846-92.731-1.039-43.193 1.487-77.193t4.372-52.615q-.615-2.308-.782-4.231-.167-1.923-3.065-2.308-14.307-3.076-42.255-9.371-27.949-6.295-63.09-19.115-35.141-12.821-74.154-32.872-39.014-20.052-76.245-50.283l31.23-42.485q32.308 28.23 67.718 47.038 35.41 18.808 68.077 31.051 32.667 12.244 59.308 18.59t40.846 8.91q23.154 3.282 34.398 20.616 11.243 17.333 8.628 36.128-2.564 17.59-5.039 53.32-2.474 35.731-.872 80.321 1.603 44.59 10.141 93.641 8.539 49.051 28 93.205l-53.229-.385ZM739.999-80h-50.255v-423q0-50.718-26.988-92.282-26.987-41.564-72.294-63.051L317.077-779.487l32.307-44.05 261.949 119.615q58.999 26.692 93.832 80.692 34.834 54 34.834 120.23v423Zm-270.82 0q-19.461-44.154-28-93.205-8.538-49.051-10.141-93.641-1.602-44.59.872-80.321 2.475-35.73 5.039-53.32 2.615-18.795-8.628-36.128-11.244-17.334-34.398-20.616-14.205-2.564-40.846-8.91t-59.308-18.59q-32.667-12.243-68.077-31.051t-67.718-47.038q32.308 28.23 67.718 47.038 35.41 18.808 68.077 31.051 32.667 12.244 59.308 18.59t40.846 8.91q23.154 3.282 34.398 20.616 11.243 17.333 8.628 36.128-2.564 17.59-5.039 53.32-2.474 35.731-.872 80.321 1.603 44.59 10.141 93.641 8.539 49.051 28 93.205Z"/></svg>