<svg xmlns="http://www.w3.org/2000/svg" height="40" viewBox="0 -960 960 960" width="40"><path d="m785.283-103.591-77.282-76.41H242.565q-25.846 0-44.205-18.359-18.359-18.359-18.359-44.205v-93.795q0-10.705 7.245-17.916t18-7.211q10.754 0 17.882 7.211 7.128 7.211 7.128 17.916v93.795q0 4.616 3.847 8.462 3.846 3.847 8.462 3.847h415.181L521.667-366.335l-20.898 20.488q-4.949 4.59-9.654 6.616-4.705 2.025-11.5 2.025-7.33 0-11.741-2.205-4.412-2.205-9.569-7.361L330.694-473.999q-7.615-7.615-7.179-17.846.436-10.23 7.282-17.23 5.051-5.051 10.82-5.59 5.77-.538 11.898 2.205l30.387 30.003v-22.31L103.386-785.283q-7.615-7.615-7.615-17.914 0-10.299 7.855-18.014 7.148-7.019 17.646-7.019 10.498 0 18.318 6.948l681.692 682.307q6.948 7.413 6.948 17.924t-7.147 17.547q-7.856 7.733-18.354 7.733t-17.446-7.82Zm-5.284-174.718-48.794-48.794v-15.025q1.282-9 7.82-14.564 6.539-5.564 15.846-5.564 10.705 0 17.916 7.211 7.212 7.211 7.212 17.916v58.82ZM601.717-450.641l-35.999-36.409 29.128-29.128q6.717-6.717 16.973-6.487 10.257.231 17.872 7.846t7.743 18.25q.128 10.635-6.589 16.8l-29.128 29.128Zm-96.59-103.924-50.254-50.255v-150.051q0-10.705 7.244-17.916 7.245-7.212 18-7.212 10.754 0 17.882 7.212 7.128 7.211 7.128 17.916v200.306Z"/></svg>