<svg xmlns="http://www.w3.org/2000/svg" height="40" viewBox="0 -960 960 960" width="40"><path d="M757.435-200.514H303.078q-25.789 0-44.176-18.388-18.388-18.387-18.388-44.176v-574.357q0-25.788 18.388-44.176 18.387-18.388 44.176-18.388h284.846q12.564 0 24.423 5.077 11.859 5.077 20.218 13.436l168.921 168.921q8.359 8.359 13.436 20.218t5.077 24.423v404.846q0 25.789-18.388 44.176-18.388 18.388-44.176 18.388Zm12.309-470.308L588.668-849.744v137.897q0 17.453 11.936 29.239 11.935 11.786 29.345 11.786h139.795ZM162.565-60.002q-25.788 0-44.176-18.387-18.388-18.388-18.388-44.176v-531.383q0-10.865 7.133-17.996 7.132-7.132 17.999-7.132 10.867 0 17.995 7.132 7.128 7.131 7.128 17.996v531.383q0 4.616 3.847 8.462 3.846 3.847 8.462 3.847h410.716q10.865 0 17.997 7.132 7.131 7.133 7.131 18t-7.131 17.995q-7.132 7.128-17.997 7.128H162.565Z"/></svg>