<svg xmlns="http://www.w3.org/2000/svg" height="40" viewBox="0 -960 960 960" width="40"><path d="M127-581.564q-4.167-2.744-4.634-7.731-.468-4.987 2.48-9.679 62.128-84.898 155.636-131.962Q373.989-778 480.231-778q106.543 0 201.04 45.705 94.498 45.705 157.37 131.321 4.077 5.948 2.718 10.346-1.359 4.397-5.487 7.807-3.872 3.154-9.329 2.902-5.457-.252-9.645-6.081-57.667-80.667-146.973-123.513-89.305-42.846-189.694-42.846-99.975 0-187.795 43.436Q204.615-665.487 146.333-586q-4.795 6.333-9.795 6.948-5 .616-9.538-2.512Zm469.59 498.64Q494.795-108.922 428.846-185.66q-65.948-76.736-65.948-186.853 0-47.743 34.743-80.025 34.744-32.282 83.386-32.282 48.385 0 82.846 32.282 34.46 32.282 34.46 80.025 0 36.541 27.883 61.271 27.883 24.729 65.077 24.729 37.04 0 63.912-24.833t26.872-61.167q0-120.361-88.937-202.053-88.937-81.691-212.628-81.691-123.692 0-212.448 81.677-88.757 81.677-88.757 201.862 0 24.192 5.616 61.635 5.615 37.442 22.641 86.109 2.205 5.948.026 9.756-2.18 3.808-7.103 6.397-5.333 2.334-10.384.475-5.052-1.859-7.257-7.551-14.307-39.744-21.538-78.27-7.231-38.525-7.231-78.346 0-130.285 96.681-220.476 96.681-90.19 229.49-90.19 134.624 0 231.38 89.575t96.756 221.091q0 47.024-34.213 79.358t-82.761 32.334q-48.769 0-83.948-32.334-35.18-32.334-35.18-79.358 0-36.743-26.965-61.705Q518.352-459.18 481-459.18q-37.667 0-65.064 24.858-27.398 24.858-27.398 61.809 0 101.535 60.911 169.409 60.91 67.873 153.397 94.95 6.569 2.23 8.72 6.362 2.152 4.133.818 9.274-1.589 5.338-5.461 8.467-3.872 3.128-10.333 1.128ZM250.949-793.59q-4.59 2.103-8.987.526-4.398-1.577-6.552-5.859-2.153-3.872-1.679-8.641t4.756-7.513q56.026-30.795 117.769-46.602Q418-877.487 481-877.487q63.904 0 125.165 15.577 61.26 15.577 117.809 44.833 6.462 3.128 7.487 8.064 1.026 4.936-1.179 9.269-2.205 4.077-6.808 6.487-4.602 2.411-10.371-.333Q659.41-822 600.651-836.718t-119.838-14.718q-60.48 0-118.352 14.679-57.871 14.68-111.512 43.167ZM380.641-94.667q-57.436-60.41-89.538-125.846Q259-285.949 259-372.526q0-89.141 65.236-150.256 65.236-61.115 156.782-61.115t157.379 61.115q65.834 61.115 65.834 150.269 0 6.064-3.379 9.442-3.378 3.379-9.442 3.379-5.102 0-9.166-3.379-4.064-3.378-4.064-9.442 0-78.743-58.376-132.244-58.376-53.5-138.795-53.5-80.419 0-138.189 53.5-57.769 53.501-57.769 132.215 0 83.696 29.128 142.081 29.129 58.384 85.026 117.567 4.923 4.997 4.141 9.933-.782 4.935-4.141 8.294-3.333 3.334-8.679 4.141-5.346.808-9.885-4.14ZM683-166q-87.436 0-151.82-58.71-64.385-58.709-64.385-147.803 0-5.589 3.356-9.41 3.357-3.82 9.385-3.82t9.464 3.82q3.436 3.821 3.436 9.41 0 79.155 57.218 130.014Q606.872-191.641 683-191.641q8.744 0 19.872-1t23.154-3q5.307-.948 9.089 1.705 3.782 2.654 5.116 7.862 1.589 5.147-1.334 8.944-2.923 3.797-8.666 5.13-14.538 4.102-27.654 5.051Q689.462-166 683-166Z"/></svg>