<svg xmlns="http://www.w3.org/2000/svg" height="40" viewBox="0 -960 960 960" width="40"><path d="M371.538-446.154h112.308l31.642 62.231q3.948 8.358 11.802 13.064 7.853 4.705 16.274 4.705h139q13.468 0 22.375-8.907t8.907-22.375v-165.128q0-13.468-8.907-22.375t-22.375-8.907h-86.41l-31.642-62.487q-3.948-8.102-11.802-12.808-7.853-4.705-16.274-4.705h-179q-13.468 0-22.375 8.907t-8.907 22.375v374.051q0 9.256 6.752 15.808 6.751 6.551 15.999 6.551 9.505 0 16.069-6.757 6.564-6.756 6.564-16.012v-177.231Zm181.616 34.616-40-80H371.538v-137.18h155.308l40 80h101.872v137.18H553.154Zm-73.087 311.537q-78.426 0-147.666-29.92t-120.887-81.544q-51.647-51.624-81.58-120.833-29.933-69.21-29.933-147.635 0-78.836 29.92-148.204 29.92-69.369 81.544-120.682 51.624-51.314 120.833-81.247 69.21-29.933 147.635-29.933 78.836 0 148.204 29.92 69.369 29.92 120.682 81.21 51.314 51.291 81.247 120.629 29.933 69.337 29.933 148.173 0 78.426-29.92 147.666t-81.21 120.887q-51.291 51.647-120.629 81.58-69.337 29.933-148.173 29.933ZM480-150.256q137.795 0 233.769-96.18Q809.744-342.615 809.744-480q0-137.795-95.975-233.769Q617.795-809.744 480-809.744q-137.385 0-233.564 95.975-96.18 95.974-96.18 233.769 0 137.385 96.18 233.564 96.179 96.18 233.564 96.18ZM480-480Z"/></svg>