<svg xmlns="http://www.w3.org/2000/svg" height="40" viewBox="0 -960 960 960" width="40"><path d="M776.436-110.924 604.741-282.619v120.054q0 25.609-18.477 44.086-18.477 18.478-44.086 18.478H397.051q-25.608 0-44.086-18.478-18.477-18.477-18.477-44.086v-390.307L91.77-795.59q-7.23-7.231-7.423-17.5-.192-10.269 7.423-17.756t17.897-7.487q10.282 0 17.897 7.616L812.23-146.051q7.231 7.23 7.423 17.499.192 10.269-7.423 17.756t-17.897 7.487q-10.282 0-17.897-7.615Zm-379.385-39.332h145.127q5.385 0 8.847-3.462 3.461-3.462 3.461-8.847v-170.309L384.743-502.618v340.053q0 5.385 3.462 8.847 3.461 3.462 8.846 3.462Zm207.69-303.335-50.255-50.255v-37.18l84.872-125.538v-35.078H357.101l-50.255-50.255h332.512v-45.538q0-5.385-3.462-8.847-3.461-3.462-8.846-3.462H306.335q-5.385 0-8.847 3.462-3.462 3.462-3.462 8.847v32.718l-43.256-43.512q3.82-21.847 20.923-36.808 17.102-14.962 40.487-14.962h314.87q25.608 0 44.086 18.478 18.477 18.477 18.477 44.086v124.717q0 9.503-2.346 18.214-2.346 8.711-8.013 16.683l-74.513 110.18v74.05ZM491.82-566.513Zm-22.205 148.767Z"/></svg>