<svg xmlns="http://www.w3.org/2000/svg" height="40" viewBox="0 -960 960 960" width="40"><path d="M623.102-436.975 307.694-752.383v-45.052q0-25.872 18.346-44.218 18.346-18.346 44.218-18.346h214.997q25.231 0 41.538 19.321 16.308 19.32 9.359 43.243l-56.153 193.204h68.821q28.076 0 41.422 24.936 13.346 24.935-2.782 48.602l-64.358 93.718Zm179.872 351.69L552.59-335.412 462.847-205.03q-4.948 7.154-11.936 9.154-6.987 2-14.14-.205-7.411-2.205-12.09-8.051-4.68-5.846-4.68-14.462v-201.407h-49.743q-25.872 0-44.218-18.346-18.346-18.346-18.346-44.218v-97.743L85.284-802.974l35.999-35.743 717.434 717.434-35.743 35.999Z"/></svg>