<svg xmlns="http://www.w3.org/2000/svg" height="40" viewBox="0 -960 960 960" width="40"><path d="M820.822-67.995 788.001-100H668.922q-10.698 0-17.913-7.25-7.214-7.249-7.214-17.999t7.214-17.878q7.215-7.128 17.913-7.128h68.824L630.309-257.694H281.282q-13.39 0-22.336-8.945-8.945-8.945-8.945-22.336v-34.718q0-18.397 9.141-33.583t24.551-25.852q36.308-24.488 81.757-37.526 45.449-13.038 84.347-15.243h2.308L150.256-737.951v69.029q0 10.698-7.249 17.913-7.25 7.214-18 7.214t-17.878-7.214q-7.128-7.215-7.128-17.913v-119.079L68.309-819.95q-7.436-7.223-7.32-17.701.115-10.477 7.97-18.169 7.856-7.692 17.983-7.692t17.981 7.82l751.642 752.257q7.435 7.552 7.628 17.686.192 10.133-7.664 17.697-7.599 7.82-17.871 7.82-10.272 0-17.836-7.763Zm39.177-223.083v91.384l-50.255-50.255v-41.129q0-10.698 7.249-17.913 7.25-7.214 17.999-7.214 10.751 0 17.879 7.214 7.128 7.215 7.128 17.913ZM162.565-100.001q-25.788 0-44.176-18.388t-18.388-44.176v-128.513q0-10.698 7.25-17.913 7.249-7.214 17.999-7.214t17.878 7.214q7.128 7.215 7.128 17.913v128.513q0 4.616 3.847 8.462 3.846 3.847 8.462 3.847h128.513q10.698 0 17.913 7.249 7.214 7.25 7.214 18t-7.214 17.878q-7.215 7.128-17.913 7.128H162.565Zm647.179-568.921v-128.513q0-4.616-3.847-8.462-3.846-3.847-8.462-3.847H668.922q-10.698 0-17.913-7.249-7.214-7.25-7.214-17.999 0-10.751 7.214-17.879 7.215-7.128 17.913-7.128h128.513q25.788 0 44.176 18.388t18.388 44.176v128.513q0 10.698-7.25 17.913-7.249 7.214-17.999 7.214t-17.878-7.214q-7.128-7.215-7.128-17.913Zm-610.05-191.077h91.384q10.698 0 17.913 7.25 7.214 7.249 7.214 17.999t-7.214 17.878q-7.215 7.128-17.913 7.128h-41.129l-50.255-50.255Zm390.305 267.692q0 25.512-10.807 47.012-10.808 21.5-28.885 36.167L396.821-662.615q14.667-18.076 36.167-28.884 21.499-10.807 47.012-10.807 45.384 0 77.692 32.307 32.307 32.308 32.307 77.692Z"/></svg>