<svg xmlns="http://www.w3.org/2000/svg" height="40" viewBox="0 -960 960 960" width="40"><path d="m480.41-110.771-37.333-110.745h-258.46q-31.538 0-52.692-21.148-21.154-21.149-21.154-52.681v-479.891q0-31.531 21.154-52.762t52.692-21.231h221.537l32.308 110.601h336.921q32.307 0 53.076 20.689 20.77 20.69 20.77 52.874v480.301q0 31.531-20.732 52.762t-52.981 21.231H480.41ZM301.382-384.078q64.029 0 104.67-41.262 40.641-41.262 40.641-106.839 0-9.052-.103-14.782-.103-5.731-1.962-10.5H298.001v56.589h82.871q-7.359 26.453-28.064 41.022-20.705 14.568-50.282 14.568-36.047 0-61.927-26.141-25.879-26.141-25.879-63.961t25.807-63.961q25.808-26.141 61.583-26.141 16.768 0 31.351 5.923 14.583 5.923 26.756 18.153l44.937-42.743Q386.36-664.23 358.81-675.46q-27.55-11.231-57.585-11.231-62.224 0-106.069 44.243-43.846 44.244-43.846 107.064 0 62.82 44.078 107.063 44.077 44.243 105.994 44.243Zm247.119 18.052 20.601-19.462q-12.59-15.846-23.846-30.294-11.256-14.449-21.102-30.911l24.347 80.667Zm46.013-47.154q25.907-30.663 39.585-58.306 13.677-27.642 18.079-43.232H505.487l10.59 39.293h36.666q7.333 13.686 17.533 29.556 10.199 15.87 24.238 32.689Zm-77.181 265.486h258.05q16.205 0 26.564-10.626 10.359-10.626 10.359-26.334v-480.221q0-16.201-10.355-26.637-10.355-10.435-26.553-10.435H450.103l42.909 150.101h72.813v-39.219h37.79v39.219H738.87v37.128h-47.551q-8.577 34.923-26.974 68.331T620.871-384.2l100.538 98.964-26.692 26.773-100.333-99.538-33.308 33.513 30.103 102.948-73.846 73.846Z"/></svg>