<svg xmlns="http://www.w3.org/2000/svg" height="40" viewBox="0 -960 960 960" width="40"><path d="M202.565-140.001q-25.788 0-44.176-18.388t-18.388-44.176v-554.87q0-25.788 18.388-44.176t44.176-18.388h554.87q25.788 0 44.176 18.388t18.388 44.176v554.87q0 25.788-18.388 44.176t-44.176 18.388h-554.87Zm132.563-262.307h50.154q13.928 0 23.169-9.554 9.241-9.555 9.241-23.266v-22.564q0-6.051-4.538-10.59-4.539-4.538-10.59-4.538-6.154 0-10.769 4.538-4.615 4.539-4.615 10.59v22.564q0 .769-.77 1.538-.769.77-1.538.77h-49.744q-.769 0-1.538-.77-.77-.769-.77-1.538v-89.744q0-.769.577-1.538.577-.77 1.347-.77h66.359q6.051 0 10.589-4.582 4.539-4.582 4.539-10.692t-4.539-10.674q-4.538-4.564-10.589-4.564h-65.975q-13.948 0-23.384 9.436t-9.436 23.384v89.744q0 13.948 9.436 23.384t23.384 9.436Zm144.835 0q6.037 0 10.729-4.615 4.692-4.616 4.692-10.769v-124.872q0-6.051-4.692-10.59-4.692-4.538-10.729-4.538-6.036 0-10.564 4.538-4.527 4.539-4.527 10.59v124.872q0 6.153 4.527 10.769 4.528 4.615 10.564 4.615Zm77.619 0q6.11 0 10.674-4.615 4.564-4.616 4.564-10.769v-44.616h49.744q6.051 0 10.59-4.582 4.538-4.583 4.538-10.692 0-6.11-4.538-10.674-4.539-4.564-10.59-4.564H572.82v-34.36h69.744q6.051 0 10.59-4.582 4.538-4.582 4.538-10.692t-4.538-10.674q-4.539-4.564-10.59-4.564h-84.872q-6.153 0-10.769 4.538-4.615 4.539-4.615 10.59v124.872q0 6.153 4.582 10.769 4.583 4.615 10.692 4.615Z"/></svg>