<svg xmlns="http://www.w3.org/2000/svg" height="40" viewBox="0 -960 960 960" width="40"><path d="M202.565-140.001q-25.788 0-44.176-18.388t-18.388-44.176v-554.87q0-25.788 18.388-44.176t44.176-18.388h554.87q25.788 0 44.176 18.388t18.388 44.176v554.87q0 25.788-18.388 44.176t-44.176 18.388h-554.87Zm0-50.255h554.87q4.616 0 8.462-3.847 3.847-3.846 3.847-8.462v-554.87q0-4.616-3.847-8.462-3.846-3.847-8.462-3.847h-554.87q-4.616 0-8.462 3.847-3.847 3.846-3.847 8.462v554.87q0 4.616 3.847 8.462 3.846 3.847 8.462 3.847Zm-12.309-579.488V-190.256-769.744Zm144.872 367.436h50.154q13.755 0 23.083-9.641 9.327-9.641 9.327-23.179v-22.564q0-6.205-4.461-10.667-4.462-4.461-10.667-4.461-6.307 0-10.846 4.461-4.538 4.462-4.538 10.667v22.564q0 .769-.77 1.538-.769.77-1.538.77h-49.744q-.769 0-1.538-.77-.77-.769-.77-1.538v-89.744q0-.769.577-1.538.577-.77 1.347-.77h66.359q6.205 0 10.666-4.505 4.462-4.506 4.462-10.769 0-6.264-4.462-10.751-4.461-4.487-10.666-4.487h-65.975q-13.775 0-23.298 9.522-9.522 9.523-9.522 23.298v89.744q0 13.775 9.522 23.298 9.523 9.522 23.298 9.522Zm144.835 0q6.191 0 10.806-4.538 4.615-4.539 4.615-10.846v-124.872q0-6.205-4.615-10.667-4.615-4.461-10.806-4.461-6.19 0-10.641 4.461-4.45 4.462-4.45 10.667v124.872q0 6.307 4.45 10.846 4.451 4.538 10.641 4.538Zm77.619 0q6.264 0 10.751-4.538 4.487-4.539 4.487-10.846v-44.616h49.744q6.205 0 10.667-4.505 4.461-4.506 4.461-10.769 0-6.264-4.461-10.751-4.462-4.487-10.667-4.487H572.82v-34.36h69.744q6.205 0 10.667-4.505 4.461-4.506 4.461-10.769 0-6.264-4.461-10.751-4.462-4.487-10.667-4.487h-84.872q-6.307 0-10.846 4.461-4.538 4.462-4.538 10.667v124.872q0 6.307 4.505 10.846 4.506 4.538 10.769 4.538Z"/></svg>