<svg xmlns="http://www.w3.org/2000/svg" height="40" viewBox="0 -960 960 960" width="40"><path d="M820.771-67.847 748.206-140H626.64v-121.567l-50.255-50.255v171.822h-192.77v-192.975h171.616l-50.254-50.255H383.615v-121.566l-50.255-50.255v171.821H140.001v-193.538h171.642l-50.255-50.255H140.001v-121.387L68.463-819.95q-7.23-7.23-7.192-17.602.038-10.371 7.942-18.275 7.275-7.275 17.685-7.275 10.41 0 18.025 7.359L856.77-103.23q7.435 7.435 7.525 17.5.09 10.063-7.73 17.967-7.564 7.531-17.769 7.634-10.205.102-18.025-7.718ZM202.565-140q-25.775 0-44.169-18.395-18.395-18.394-18.395-44.169v-130.411H333.36v192.975H202.565Zm617.434-99.846-93.129-93.129h93.129v93.129ZM676.615-383.231l-49.975-49.975v-143.563h193.359v193.538H676.615Zm-100.23-100.23-93.308-93.308h93.308v93.308ZM432.822-627.024l-49.207-49.207v-143.768h192.77v192.975H432.822Zm193.818 0v-192.975h130.795q25.775 0 44.169 18.395 18.395 18.394 18.395 44.169v130.411H626.64Zm-293.28-99.462-93.513-93.513h93.513v93.513Z"/></svg>