<svg xmlns="http://www.w3.org/2000/svg" height="40" viewBox="0 -960 960 960" width="40"><path d="M222.564-454.873v149.746q0 10.679-7.263 17.903-7.263 7.224-18 7.224-10.736 0-17.864-7.224t-7.128-17.903v-349.746q0-10.679 7.263-17.903Q186.834-680 197.571-680q10.737 0 17.865 7.224 7.128 7.224 7.128 17.903v149.746h275.693v-149.746q0-10.679 7.263-17.903 7.263-7.224 18-7.224 10.736 0 17.864 7.224t7.128 17.903v349.746q0 10.679-7.263 17.903Q533.986-280 523.25-280q-10.737 0-17.865-7.224-7.128-7.224-7.128-17.903v-149.746H222.564Zm512.565 0h-57.437q-10.679 0-17.903-7.262-7.224-7.263-7.224-18 0-10.736 7.224-17.864t17.903-7.128h57.437v-57.437q0-10.429 7.261-17.778 7.262-7.35 17.997-7.35 10.484 0 17.741 7.35 7.256 7.349 7.256 17.778v57.437h57.18q10.679 0 17.903 7.262 7.224 7.263 7.224 18 0 10.736-7.224 17.864t-17.903 7.128h-57.18v57.181q0 10.679-7.387 17.903-7.387 7.224-17.999 7.224-10.613 0-17.741-7.224t-7.128-17.903v-57.181Z"/></svg>