<svg xmlns="http://www.w3.org/2000/svg" height="40" viewBox="0 -960 960 960" width="40"><path d="M295.128-449.129H397.18v62.924q0 9.307 6.138 15.423 6.137 6.115 15.478 6.115 9.23 0 15.217-6.115Q440-376.898 440-386.205v-187.59q0-9.307-6.1-15.423-6.1-6.115-15.384-6.115-9.285 0-15.31 6.115-6.026 6.116-6.026 15.423v81.847H295.128v-81.847q0-9.307-6.1-15.423-6.1-6.115-15.384-6.115t-15.31 6.115q-6.025 6.116-6.025 15.423v187.59q0 9.307 6.137 15.423 6.137 6.115 15.478 6.115 9.23 0 15.217-6.115 5.987-6.116 5.987-15.423v-62.924Zm240.641 84.462h125.512q18.872 0 32.641-13.769 13.769-13.77 13.769-32.641v-137.845q0-18.872-13.769-32.642-13.769-13.769-32.641-13.769H535.769q-6.308 0-11.038 4.731Q520-585.871 520-579.564v199.128q0 6.307 4.731 11.038 4.73 4.731 11.038 4.731Zm27.051-42.82v-145.026h95.898q2.307 0 4.231 1.923 1.923 1.923 1.923 4.231v132.718q0 2.308-1.923 4.231-1.924 1.923-4.231 1.923H562.82ZM162.565-180.001q-25.788 0-44.176-18.388t-18.388-44.176v-474.87q0-25.788 18.388-44.176t44.176-18.388h634.87q25.788 0 44.176 18.388t18.388 44.176v474.87q0 25.788-18.388 44.176t-44.176 18.388h-634.87Zm0-50.255h634.87q4.616 0 8.462-3.847 3.847-3.846 3.847-8.462v-474.87q0-4.616-3.847-8.462-3.846-3.847-8.462-3.847h-634.87q-4.616 0-8.462 3.847-3.847 3.846-3.847 8.462v474.87q0 4.616 3.847 8.462 3.846 3.847 8.462 3.847Zm-12.309 0v-499.488 499.488Z"/></svg>