<svg xmlns="http://www.w3.org/2000/svg" height="40" viewBox="0 -960 960 960" width="40"><path d="M202.565-177.027q-25.788 0-44.176-18.388-18.388-18.387-18.388-44.176v-279.332q0-70.386 26.77-132.605 26.769-62.22 73.076-108.807 46.308-46.587 108.623-73.33 62.316-26.744 132.743-26.744 70.428 0 132.274 26.769 61.846 26.769 107.649 73.272 45.803 46.503 72.333 108.781 26.53 62.278 26.53 132.664v384.049q0 25.789-18.388 44.176-18.388 18.388-44.176 18.388H506.204q-10.698 0-17.913-7.25-7.214-7.249-7.214-17.999t7.214-17.878q7.215-7.128 17.913-7.128h251.231q5.385 0 8.847-3.462 3.462-3.462 3.462-8.847v-42.153h-73.025q-25.904 0-44.234-18.429-18.33-18.43-18.33-44.135v-146.306q0-25.705 18.33-44.134 18.33-18.429 44.234-18.429h73.025v-70.463q0-120.051-84.378-205.641-84.378-85.59-204.359-85.59-119.981 0-205.366 85.59-85.385 85.59-85.385 205.641v70.463h73.025q25.904 0 44.234 18.429 18.33 18.429 18.33 44.134v146.306q0 25.705-18.33 44.135-18.33 18.429-44.234 18.429h-60.716Zm0-50.255h60.716q5.385 0 8.847-3.59 3.462-3.59 3.462-8.719v-146.306q0-5.385-3.462-8.847-3.462-3.461-8.847-3.461h-73.025v158.614q0 5.129 3.462 8.719t8.847 3.59Zm494.154 0h73.025v-170.923h-73.025q-5.385 0-8.847 3.461-3.462 3.462-3.462 8.847v146.306q0 5.129 3.462 8.719t8.847 3.59ZM202.565-398.205h-12.309 85.334-73.025Zm494.154 0H684.41h85.334-73.025Z"/></svg>