<svg xmlns="http://www.w3.org/2000/svg" height="40" viewBox="0 -960 960 960" width="40"><path d="M314.257-130.001q-16.665 0-31.114-8.173-14.449-8.173-23.091-23.108L93.257-448.718q-8.359-14.988-8.359-31.391 0-16.404 8.36-31.173l166.794-287.436q8.642-14.935 23.091-23.108 14.449-8.173 31.114-8.173h331.486q16.665 0 31.114 8.173 14.449 8.173 23.091 23.108l166.795 287.436q8.359 14.988 8.359 31.391 0 16.404-8.359 31.173L699.948-161.282q-8.642 14.935-23.091 23.108-14.449 8.173-31.114 8.173H314.257Zm-1.052-50.255H646.41q3.077 0 5.962-1.538 2.885-1.539 4.808-4.616l165.128-287.436q1.667-3.077 1.667-6.154t-1.667-6.154L657.172-773.59q-1.923-3.077-4.808-4.616-2.885-1.538-5.962-1.538H313.205q-3.077 0-5.769 1.538-2.693 1.539-4.616 4.616L136.692-486.154q-1.667 3.077-1.667 6.154t1.667 6.154L302.82-186.41q1.923 3.077 4.616 4.616 2.692 1.538 5.769 1.538ZM480-480Z"/></svg>