<svg xmlns="http://www.w3.org/2000/svg" height="40" viewBox="0 -960 960 960" width="40"><path d="M642.564-495.795h133.897l49.077-89.282q8.359-14.307 8.359-30.153 0-15.846-8.359-30.41l-31.359-57.001q-8.616-14.769-22.962-23.525-14.346-8.757-31.858-8.757h-96.795l-66.052 119.564 66.052 119.564ZM413.051-360.026h133.898L613-480l-66.051-119.974H413.051L347-480l66.051 119.974Zm0-270.845h133.898L613-750.435l-48.334-87.283q-8.615-14.769-22.961-23.525-14.346-8.756-31.859-8.756h-59.692q-17.513 0-31.859 8.756t-22.961 23.525L347-750.435l66.051 119.564Zm-29.922 15.512-65.693-119.564h-96.795q-17.512 0-31.858 8.757-14.346 8.756-22.962 23.525l-31.359 57.001q-8.359 14.564-8.359 30.41t8.359 30.153l49.077 89.282h133.897l65.693-119.564Zm0 270.718-65.693-119.564H183.539l-49.077 89.282q-8.359 14.307-8.359 30.153 0 15.846 8.359 30.41l31.359 57.001q8.616 14.769 22.962 23.525 14.346 8.757 31.858 8.757h96.795l65.693-119.564Zm29.922 15.512L347-209.565l49.308 87.436q8.615 14.821 22.653 23.475 14.039 8.653 31.346 8.653h59.539q17.513 0 31.859-8.756t22.961-23.525L613-209.565l-66.051-119.564H413.051Zm229.513 104.052h96.795q17.512 0 31.858-8.757 14.346-8.756 22.962-23.525l31.359-57.001q8.359-14.564 8.359-30.41t-8.359-30.153l-49.077-89.282H642.564l-66.052 119.564 66.052 119.564Z"/></svg>