<svg xmlns="http://www.w3.org/2000/svg" height="40" viewBox="0 -960 960 960" width="40"><path d="M480-405.385ZM100.001-211.283v-356.922q0-25.788 18.388-44.176t44.176-18.388h127.436v-86.666q0-25.788 18.387-44.176 18.388-18.388 44.176-18.388h254.872q25.788 0 44.176 18.388 18.387 18.388 18.387 44.176v86.666h127.436q25.788 0 44.176 18.388t18.388 44.176v356.922q0 13.295-8.994 22.288-8.993 8.994-22.288 8.994H131.283q-13.295 0-22.288-8.994-8.994-8.993-8.994-22.288Zm197.947-168.975v24.617q0 10.679-7.263 17.903-7.263 7.224-18 7.224-10.736 0-17.864-7.224t-7.128-17.903v-24.617h-97.437v150.002h659.488v-150.002h-97.437v24.617q0 10.679-7.263 17.903-7.263 7.224-17.999 7.224-10.737 0-17.865-7.224-7.128-7.224-7.128-17.903v-24.617H297.948ZM150.256-568.205v137.693h97.437v-24.617q0-10.679 7.263-17.903 7.263-7.224 17.999-7.224 10.737 0 17.865 7.224 7.128 7.224 7.128 17.903v24.617h364.104v-24.617q0-10.679 7.263-17.903 7.263-7.224 18-7.224 10.736 0 17.864 7.224t7.128 17.903v24.617h97.437v-137.693q0-4.616-3.847-8.462-3.846-3.847-8.462-3.847h-634.87q-4.616 0-8.462 3.847-3.847 3.846-3.847 8.462Zm190-62.564h279.488v-86.666q0-4.616-3.846-8.462-3.846-3.847-8.462-3.847H352.564q-4.615 0-8.462 3.847-3.846 3.846-3.846 8.462v86.666Z"/></svg>