<svg xmlns="http://www.w3.org/2000/svg" height="40" viewBox="0 -960 960 960" width="40"><path d="M398.846-493.386q-57.922 0-96.525-38.473-38.602-38.474-38.602-96.653 0-57.923 38.602-96.525 38.603-38.602 96.525-38.602 57.923 0 96.525 38.602 38.602 38.602 38.602 96.525 0 58.179-38.602 96.653-38.602 38.473-96.525 38.473ZM149.872-187.694q-21.256 0-36.14-14.885-14.885-14.884-14.885-36.14v-29.23q0-32.256 16.039-55.859 16.038-23.602 44.474-37.063 61.41-28.718 116.076-42.897 54.667-14.18 123.41-14.18 29.59 0 57.295 2.628 27.705 2.629 53.474 8.962l-65.283 66.359q-25.41 25.41-25.012 61.166.397 35.756 25.807 60.524l30.615 30.615h-325.87Zm468.615-40.92 189.59-189.591q7.231-7.23 17.5-7.422 10.268-.193 17.884 7.422 7.615 7.616 7.615 17.692 0 10.077-7.615 17.692L640.41-179.77q-9.359 9.359-21.923 9.359-12.564 0-21.923-9.359l-86.025-86.025q-7.231-7.231-7.423-17.5-.193-10.269 7.423-17.884 7.615-7.615 17.691-7.615 10.077 0 17.692 7.615l72.565 72.565Z"/></svg>