<svg xmlns="http://www.w3.org/2000/svg" height="40" viewBox="0 -960 960 960" width="40"><path d="M566.357-60.002H444.231q-13.813 0-23.496-9.49-9.683-9.491-9.683-22.92v-229.101q0-13.761 9.683-23.085 9.683-9.325 23.496-9.325h35.41V-498.36q0-5-4.039-8.462-4.039-3.462-9.808-3.462h-301.69q-26.673 0-45.388-18.429-18.715-18.43-18.715-44.134v-156.871q0-25.519 18.715-43.849t45.388-18.33h66.101v-35.692q0-13.428 9.683-22.919 9.684-9.491 23.496-9.491h483.435q13.813 0 23.496 9.491 9.684 9.491 9.684 22.919v125.434q0 13.428-9.684 22.919-9.683 9.491-23.496 9.491H263.384q-13.812 0-23.496-9.491-9.683-9.491-9.683-22.919v-39.487h-66.101q-6.155 0-10.001 3.462-3.847 3.462-3.847 8.462v156.871q0 5.128 3.847 8.718 3.846 3.59 10.001 3.59h301.69q26.288 0 45.195 18.33t18.907 43.849v144.437h36.461q13.813 0 23.304 9.325 9.491 9.324 9.491 23.085v229.102q0 13.428-9.491 22.919-9.491 9.49-23.304 9.49Z"/></svg>