<svg xmlns="http://www.w3.org/2000/svg" height="40" viewBox="0 -960 960 960" width="40"><path d="M836.025-699.999q10.679 0 17.903 7.263 7.224 7.263 7.224 18 0 10.736-7.224 17.864t-17.903 7.128q-23.811 0-39.919 15.853-16.107 15.853-16.107 39.02v154.102q0 45.012-32.737 75.07-32.737 30.057-78.801 30.057h-1.154v44.359q0 13.295-8.994 22.288-8.993 8.994-22.288 8.994H131.283q-13.295 0-22.288-8.994-8.994-8.993-8.994-22.288v-70.256q0-60.288 43.346-103.22t104.731-42.932h368.974v-47.063q0-23.117-16.108-39.053-16.107-15.937-39.919-15.937H412.463q-11.628 0-21.673 4.077-10.046 4.077-17.789 11.693-3.761 3.951-8.073 5.988-4.311 2.037-10.021 2.037-11.001 0-18.274-7.392-7.272-7.393-7.272-18.521 0-5.77 1.932-10.066 1.933-4.295 5.709-8.045 14.948-14.018 33.883-22.022 18.935-8.004 41.167-8.004h148.973q44.509 0 75.395 30.663 30.887 30.662 30.887 74.465v168.974h1.154q24.59 0 42.936-15.526 18.347-15.525 18.347-39.346v-154.102q0-43.803 30.886-74.465 30.887-30.663 75.395-30.663Z"/></svg>