<svg xmlns="http://www.w3.org/2000/svg" height="40" viewBox="0 -960 960 960" width="40"><path d="M320-220.001q-108.538 0-184.268-75.731-75.73-75.73-75.73-184.268t75.73-184.268q75.73-75.731 184.268-75.731 36.077 0 69.347 9.514 33.269 9.513 61.5 27.026-49.538 42.102-76.73 100.332-27.191 58.23-27.191 123.127 0 64.897 27.191 123.127 27.192 58.23 76.73 100.332-28.231 17.513-61.5 27.027-33.27 9.513-69.347 9.513Zm320 0q-36.077 0-69.347-9.513-33.269-9.514-61.5-27.027 10.487-8.641 19.55-18.14 9.064-9.5 17.91-19.782 20.59 11.514 44.091 17.86 23.5 6.347 49.296 6.347 87.462 0 148.603-61.475Q849.744-393.205 849.744-480q0-87.462-61.141-148.603Q727.462-689.744 640-689.744q-25.796 0-49.296 6.347-23.501 6.346-44.091 17.86-8.846-10.282-17.91-19.782-9.063-9.499-19.55-18.14 28.231-17.513 61.5-27.026 33.27-9.514 69.347-9.514 108.538 0 184.268 75.731 75.731 75.73 75.731 184.268t-75.731 184.268Q748.538-220.001 640-220.001Zm-160-68.206q-5.795 0-11.256-2.154-5.462-2.154-10.205-6.744-37.461-36.025-57.999-82.935-20.539-46.909-20.539-99.96 0-53.051 20.539-99.96 20.538-46.91 57.999-82.935 4.743-4.59 10.205-6.744 5.461-2.154 11.256-2.154t11.256 2.154q5.462 2.154 10.205 6.744 37.461 36.025 57.999 82.935 20.539 46.909 20.539 99.96 0 53.051-20.539 99.96-20.538 46.91-57.999 82.935-4.743 4.59-10.205 6.744-5.461 2.154-11.256 2.154Z"/></svg>