<svg xmlns="http://www.w3.org/2000/svg" height="40" viewBox="0 -960 960 960" width="40"><path d="M140.643-260.001q-19.718 0-28.205-17.116-8.487-17.115 3.077-32.884l141.28-188.818q4.949-6.41 11.462-9.487 6.512-3.077 13.666-3.077 7.154 0 13.667 3.077t11.461 9.487l141.537 188.563H781.41L561.923-602.103l-122.052 162.36-31.999-41.998 128.923-171.693q4.949-6.41 11.462-9.487 6.512-3.077 13.666-3.077 7.154 0 13.667 3.077t11.461 9.487l257.434 343.433q11.564 15.769 3.077 32.884-8.487 17.116-28.205 17.116H140.643Zm299.228-50.255H781.41 440.512h60.423-61.064Zm-261.281 0h207.052L281.923-448.872 178.59-310.256Zm0 0h207.052H178.59Z"/></svg>