<svg xmlns="http://www.w3.org/2000/svg" height="40" viewBox="0 -960 960 960" width="40"><path d="M480-100.001q-78.974 0-148.32-29.962-69.346-29.961-120.884-81.371T129.63-332.295q-29.629-69.551-29.629-148.782 0-79.179 29.629-148.217 29.628-69.039 81.166-120.449t120.884-80.833q69.346-29.423 148.32-29.423 79.179 0 148.422 29.423 69.244 29.423 120.782 80.833t81.166 120.449q29.629 69.038 29.629 148.217 0 79.231-29.629 148.782-29.628 69.551-81.166 120.961t-120.782 81.371Q559.179-100.001 480-100.001Zm0-49.204q35.077-40.359 58.103-85.513 23.026-45.154 37.667-103.642H384.64q14.744 58.385 37.642 104.026 22.897 45.642 57.718 85.129Zm-68.126-9.102q-26.385-35.308-46.924-81.603-20.539-46.296-32.18-98.45H181.384q36.154 72.463 92.642 116.54 56.488 44.077 137.848 63.513Zm136.919-.41q74.744-16.462 134.822-63.308 60.078-46.847 95.001-116.335H627.64q-13.974 52.385-34.18 98.424-20.205 46.039-44.667 81.219ZM163.257-388.615h159.924q-3.77-25.692-5.052-48.192-1.282-22.501-1.282-44.27 0-23.41 1.487-44.962 1.488-21.551 5.257-45.756H163.257q-6.847 22.282-9.924 44.077-3.077 21.795-3.077 46.641 0 25.103 3.077 47.513 3.077 22.411 9.924 44.949Zm210.999 0h211.898q4.18-27.59 5.667-48.757 1.487-21.166 1.487-43.705 0-21.872-1.487-42.5t-5.667-48.218H374.256q-4.18 27.59-5.667 48.218-1.487 20.628-1.487 42.5 0 22.539 1.487 43.705 1.487 21.167 5.667 48.757Zm262.153 0h160.334q6.847-22.538 9.924-44.949 3.077-22.41 3.077-47.513 0-24.846-3.077-46.641-3.077-21.795-9.924-44.077H637.076q3.513 29.487 5 50.5t1.487 40.218q0 22.18-1.692 43.731-1.693 21.551-5.462 48.731ZM627.23-622.05h151.386q-34.231-72.155-93.347-118.361-59.116-46.205-137.143-61.666 26.385 36.82 46.334 82t32.77 98.027Zm-242.59 0h191.797q-13.513-54.36-38.013-101.834-24.501-47.475-58.424-86.09-32.436 33.333-55.039 78.038-22.603 44.706-40.321 109.886Zm-203.256 0H333.18q12-51.616 31.616-96.463 19.616-44.846 46.411-83.154-78.155 15.718-136.463 61.449-58.308 45.731-93.36 118.168Z"/></svg>