<svg xmlns="http://www.w3.org/2000/svg" height="40" viewBox="0 -960 960 960" width="40"><path d="M45.129-184.617q-10.846 0-17.987-7.146-7.14-7.146-7.14-18 0-10.853 7.14-17.981 7.141-7.128 17.987-7.128h117.846v-36.461q-25.788 0-44.176-18.388-18.387-18.388-18.387-44.176v-403.537q0-25.788 18.387-44.175 18.388-18.388 44.176-18.388h634.05q25.788 0 44.176 18.388 18.387 18.387 18.387 44.175v403.537q0 25.788-18.387 44.176-18.388 18.388-44.176 18.388v36.461h117.846q10.846 0 17.987 7.146 7.141 7.146 7.141 17.999 0 10.854-7.141 17.982t-17.987 7.128H45.129Z"/></svg>