<svg xmlns="http://www.w3.org/2000/svg" height="40" viewBox="0 -960 960 960" width="40"><path d="M626.204-437.282 339.488-723.639l102.076-79.436q17.513-13.308 38.436-13.102 20.923.205 38.436 13.769l225.69 175.281q24.128 18.717 24.128 49.191 0 30.475-24.128 49.449l-117.922 91.205Zm86.563 86.358-35.948-35.948 74.385-57.103q6.821-5.257 15.359-5.257t15.359 5.257q9.871 7.564 9.884 19.756.013 12.191-9.859 19.627l-69.18 53.668Zm87.132 257.488-182.67-182.669-98.793 76.307Q500.923-186.234 480-186.234t-38.436-13.564L178.053-404.592q-9.872-7.436-9.756-19.627.115-12.192 9.987-19.756 6.82-5.257 15.256-5.257 8.435 0 15.256 5.257l263.511 204.204q3.462 2.692 7.693 2.692t7.693-2.692l92.948-72.717-62.18-62.026h27.949l-27.974 21.872Q500.923-339.463 480-339.36q-20.923.102-38.051-13.462L214.72-529.257q-23.872-18.589-23.808-48.55.064-29.962 23.808-48.551l28.974-23.026L89.282-803.591q-7.436-7.435-7.602-17.602-.167-10.166 7.653-17.986Q96.897-847 107.205-847q10.307 0 17.871 7.821l710.616 710.36q7.231 7.23 7.295 17.499.064 10.269-7.295 17.884-7.615 7.616-18.025 7.616-10.41 0-17.768-7.616Z"/></svg>