<svg xmlns="http://www.w3.org/2000/svg" height="40" viewBox="0 -960 960 960" width="40"><path d="M150.256-190.256h186.591v-339.488H150.256v339.488Zm236.846 0h185.796v-579.488H387.102v579.488Zm236.051 0h186.591v-259.488H623.153v259.488Zm-523.152-12.309v-314.87q0-25.609 18.478-44.086 18.477-18.478 44.086-18.478h174.282v-177.436q0-25.609 18.478-44.086 18.477-18.478 44.086-18.478h161.178q25.609 0 44.086 18.478 18.478 18.477 18.478 44.086v257.436h174.282q25.609 0 44.086 18.478 18.478 18.477 18.478 44.086v234.87q0 25.609-18.478 44.086-18.477 18.478-44.086 18.478h-634.87q-25.609 0-44.086-18.478-18.478-18.477-18.478-44.086Z"/></svg>