<svg xmlns="http://www.w3.org/2000/svg" height="40" viewBox="0 -960 960 960" width="40"><path d="M549.794-794.307q-9.615 154.948-118.153 263.999Q323.103-421.257 168.77-410.411q-11.666.821-20.217-6.321-8.552-7.141-8.552-17.999 0-10.448 7.346-17.781 7.346-7.333 17.936-8.154 134.205-9.435 229.513-104.089 95.308-94.654 104.538-229.065.821-11.051 8.128-18.615 7.308-7.564 17.82-7.564 10.59 0 17.961 7.629 7.372 7.628 6.551 18.063Zm-140.718-.718q-8.897 97.846-77.332 166.064-68.436 68.217-166.282 77.448-10.384 1.205-17.922-5.821-7.539-7.025-7.539-17.966 0-10.187 6.359-17.417 6.359-7.231 16.769-9.051 76.872-8.026 131.436-62.705 54.564-54.68 63.257-131.552 1.615-10.051 9.153-17.012 7.538-6.962 17.685-6.962 10.899 0 18.273 7.257 7.374 7.256 6.143 17.717Zm25.628 655.024q-10.858 0-17.986-8.552-7.128-8.551-6.307-20.217 10.846-154.333 119.897-262.871 109.051-108.538 263.999-118.153 10.435-.821 18.063 6.551 7.629 7.371 7.629 17.844 0 10.783-7.564 18.014-7.564 7.23-18.615 8.051-134.411 9.23-229.065 104.538-94.654 95.308-104.089 229.513-.821 10.59-8.167 17.936-7.347 7.346-17.795 7.346Zm140.507 0q-10.852 0-17.877-7.539-7.026-7.538-5.821-17.922 9.231-97.846 77.448-166.282 68.218-68.435 166.064-77.332 10.461-1.231 17.717 6.143 7.257 7.374 7.257 18.273 0 10.147-6.962 17.685-6.961 7.538-17.012 9.153-76.872 8.693-131.552 63.257-54.679 54.564-62.705 131.436-1.84 10.41-9.147 16.769-7.307 6.359-17.41 6.359Zm-327.57-626.921q0 22.512-16.025 38.537-16.026 16.026-38.538 16.026-22.513 0-38.333-16.026-15.82-16.025-15.82-38.537 0-22.513 15.82-38.333 15.82-15.821 38.333-15.821 22.512 0 38.538 15.821 16.025 15.82 16.025 38.333Zm573.435 573.844q0 22.513-15.821 38.333-15.82 15.82-38.333 15.82-22.512 0-38.537-15.82-16.026-15.82-16.026-38.333 0-22.512 16.026-38.538 16.025-16.025 38.537-16.025 22.513 0 38.333 16.025 15.821 16.026 15.821 38.538Z"/></svg>