<svg xmlns="http://www.w3.org/2000/svg" height="40" viewBox="0 -960 960 960" width="40"><path d="M479.813-350.256q53.982 0 91.956-37.788 37.975-37.787 37.975-91.769 0-53.982-37.788-91.956-37.787-37.975-91.769-37.975-53.982 0-91.956 37.788-37.975 37.787-37.975 91.769 0 53.982 37.788 91.956 37.787 37.975 91.769 37.975Zm.187 50.255q-74.922 0-127.461-52.538Q300.001-405.078 300.001-480t52.538-127.461Q405.078-659.999 480-659.999t127.461 52.538Q659.999-554.922 659.999-480t-52.538 127.461Q554.922-300.001 480-300.001ZM75.128-454.873q-10.679 0-17.903-7.262-7.224-7.263-7.224-18 0-10.736 7.224-17.864t17.903-7.128h99.745q10.679 0 17.903 7.262 7.224 7.263 7.224 18 0 10.736-7.224 17.864t-17.903 7.128H75.128Zm709.999 0q-10.679 0-17.903-7.262-7.224-7.263-7.224-18 0-10.736 7.224-17.864t17.903-7.128h99.745q10.679 0 17.903 7.262 7.224 7.263 7.224 18 0 10.736-7.224 17.864t-17.903 7.128h-99.745ZM479.865-760q-10.736 0-17.864-7.224t-7.128-17.903v-99.745q0-10.679 7.262-17.903 7.263-7.224 18-7.224 10.736 0 17.864 7.224t7.128 17.903v99.745q0 10.679-7.262 17.903-7.263 7.224-18 7.224Zm0 710q-10.736 0-17.864-7.225-7.128-7.224-7.128-17.903v-99.745q0-10.679 7.262-17.903 7.263-7.224 18-7.224 10.736 0 17.864 7.224t7.128 17.903v99.745q0 10.679-7.262 17.903-7.263 7.224-18 7.224ZM247.001-678.386l-57.077-55.692q-7.436-7.231-7.193-17.729.243-10.499 7.241-18.339 7.723-7.752 18.029-7.752 10.306 0 17.922 7.821L282-713.384q7.205 7.867 7.205 17.716 0 9.848-7.013 17.357-7.012 7.465-17.191 7.298-10.18-.167-18-7.372Zm487.076 488.461L678-246.616q-7.205-7.855-7.205-17.934 0-10.078 7.538-17.45 6.705-7.82 16.775-7.525 10.071.294 17.891 7.91l57.077 55.692q7.436 7.231 7.193 17.729-.243 10.499-7.241 18.339-7.723 7.752-18.029 7.752-10.306 0-17.922-7.821ZM678-677.808q-7.82-7.423-7.525-17.397.294-9.974 7.91-17.794l55.692-57.077q7.231-7.436 17.729-7.193 10.499.243 18.339 7.241 7.752 7.723 7.752 18.029 0 10.306-7.821 17.922L713.384-678q-7.41 7.205-17.408 7.205-9.997 0-17.976-7.013ZM189.855-189.771q-7.752-7.924-7.752-18.23 0-10.306 7.821-17.922L246.616-282q7.79-7.615 17.779-7.615 9.99 0 17.456 7.615 7.585 7.038 7.29 17.108-.295 10.071-7.526 17.891l-55.692 57.077q-7.616 7.821-17.922 7.578-10.306-.243-18.146-7.425ZM480-480Z"/></svg>