<svg xmlns="http://www.w3.org/2000/svg" height="40" viewBox="0 -960 960 960" width="40"><path d="M537.437-379.845H397.692q-10.698 0-17.913 7.249-7.214 7.25-7.214 18t7.214 17.878q7.215 7.128 17.913 7.128h58.668v17.436q0 10.699 7.249 17.913 7.25 7.215 18 7.215t17.878-7.215q7.128-7.214 7.128-17.913v-17.436h48.41q13.904 0 23.285-10.218 9.382-10.218 9.382-24.565v-106.792q0-14.347-9.382-24.693-9.381-10.346-23.285-10.346H422.82v-73.951h139.744q10.449 0 17.788-7.249 7.34-7.25 7.34-18t-7.34-17.878q-7.339-7.128-17.788-7.128h-55.949v-17.436q0-10.699-7.25-17.913-7.249-7.215-17.999-7.215t-17.878 7.215q-7.128 7.214-7.128 17.913v17.436h-49.078q-14.408 0-24.563 10.218-10.154 10.218-10.154 25.069v106.353q0 13.789 10.218 23.305t24.499 9.516h130.155v76.104ZM162.565-180.001q-25.788 0-44.176-18.388t-18.388-44.176v-474.87q0-25.788 18.388-44.176t44.176-18.388h634.87q25.788 0 44.176 18.388t18.388 44.176v474.87q0 25.788-18.388 44.176t-44.176 18.388h-634.87Zm0-50.255h634.87q4.616 0 8.462-3.847 3.847-3.846 3.847-8.462v-474.87q0-4.616-3.847-8.462-3.846-3.847-8.462-3.847h-634.87q-4.616 0-8.462 3.847-3.847 3.846-3.847 8.462v474.87q0 4.616 3.847 8.462 3.846 3.847 8.462 3.847Zm-12.309 0v-499.488 499.488Z"/></svg>