<svg xmlns="http://www.w3.org/2000/svg" height="40" viewBox="0 -960 960 960" width="40"><path d="M480-853.844q44.41 53.359 82.064 104.59 37.654 51.23 68.295 101.333l229.64-172.076V-480q0 78.769-29.962 148.115-29.961 69.346-81.269 120.653-51.307 51.308-120.653 81.269Q558.769-100.001 480-100.001t-148.115-29.962q-69.346-29.961-120.653-81.269-51.308-51.307-81.269-120.653Q100.001-401.231 100.001-480v-339.997l229.64 172.076q30.641-49.103 68.295-100.705Q435.59-800.229 480-853.844ZM150.256-719.487V-480q0 68.822 27.117 127.746 27.116 58.924 73.168 101.616-14.205-24.052-22.372-51.476-8.168-27.424-8.168-57.886 0-50.564 21.27-112.115 21.269-61.551 61.807-132.628L150.256-719.487ZM480-775.026q-97.564 118.025-153.654 226.218-56.09 108.192-56.09 188.808 0 86.795 61.475 148.269Q393.205-150.256 480-150.256q86.795 0 148.269-61.475Q689.744-273.205 689.744-360q0-80.616-56.09-189.424T480-775.026Zm329.744 55.539L656.922-604.691q40.538 70.82 61.807 132.576 21.27 61.756 21.27 112.115 0 30.462-8.168 57.886-8.167 27.424-22.372 51.476 46.052-42.692 73.168-101.616Q809.744-411.178 809.744-480v-239.487Z"/></svg>