<svg xmlns="http://www.w3.org/2000/svg" height="40" viewBox="0 -960 960 960" width="40"><path d="m379.179-237.127 63.591-63.334q7.179-7.436 17.576-7.526 10.397-.09 18.218 7.526 7.564 7.82 7.666 17.999.103 10.179-7.718 17.999L375.974-161.924q-4.949 4.948-10.231 7.051-5.282 2.102-11.692 2.102-6.154 0-11.436-2.102-5.282-2.103-10.23-7.051L229.59-264.463q-7.179-7.435-7.064-17.807.116-10.371 7.68-18.191 7.82-7.616 18.025-7.59 10.205.026 18.025 7.59l62.668 63.334V-553.95L103.335-779.539q-7.23-7.23-7.423-17.499-.192-10.269 7.423-17.884 7.615-7.616 17.692-7.616 10.076 0 17.692 7.616l675.844 675.434q7.231 7.231 7.423 17.5.193 10.269-7.423 17.884-7.358 7.615-17.563 7.615-10.205 0-17.564-7.615L379.179-504.105v266.978Zm246.359-192.258-50.255-50.255v-243.643l-63.489 63.744q-7.23 7.231-17.499 7.423-10.269.193-17.884-7.423-7.615-7.615-7.615-17.896 0-10.282 7.615-17.897l102.076-102.744q4.949-4.948 10.359-7.179t11.564-2.231q6.41 0 11.692 2.231t10.231 7.179l102.743 102.744q7.231 7.23 7.423 17.499.193 10.269-7.423 17.628-7.615 7.615-17.896 7.615-10.282 0-17.897-7.615l-63.745-63.078v293.898Z"/></svg>