<svg xmlns="http://www.w3.org/2000/svg" height="40" viewBox="0 -960 960 960" width="40"><path d="M478.615-688.744q-24.359 0-46.282 8.539-21.923 8.538-37.41 26.41l-35.538-35.537q17.77-20.026 42.5-32.039 24.731-12.012 50.013-15.038v-51.539q0-10.871 7.128-17.999 7.128-7.128 18-7.128 10.871 0 17.999 7.128 7.128 7.128 7.128 17.999v50.719q32.205 3.589 61.436 21.563 29.23 17.975 49.128 51.616 4.82 9.307.692 18.871-4.128 9.564-13.999 13.564-9.257 4.051-19.09 1.154-9.833-2.898-16.525-12-14.025-22.052-35.461-34.167-21.436-12.116-49.719-12.116Zm293.231 577.716-161.641-161.23q-19.154 21.949-48.359 35.051-29.205 13.103-59.693 14.334v50.051q0 10.872-7.128 18t-17.999 7.128q-10.872 0-18-7.128t-7.128-18v-51.641q-46.513-7.692-78.064-35.282-31.551-27.59-49.987-70.231-4.205-10.256.039-20.281 4.243-10.025 15.115-14.025 9.871-4.051 19.499.769 9.628 4.82 13.833 14.461 15.692 35.923 43.449 56.616 27.756 20.692 68.423 20.692 27.18 0 50.757-9.487 23.577-9.488 38.629-27.642L111.028-771.436q-7.231-7.23-7.423-17.704-.192-10.474 7.423-18.09 7.615-7.615 17.897-7.615 10.281 0 17.897 7.615L807.64-146.411q7.23 7.23 7.423 17.499.192 10.269-7.423 17.884-7.359 7.615-17.769 7.615-10.41 0-18.025-7.615Z"/></svg>