<svg xmlns="http://www.w3.org/2000/svg" height="40" viewBox="0 -960 960 960" width="40"><path d="M100.001-575.384v-142.051q0-25.788 18.388-44.176t44.176-18.388h634.87q25.788 0 44.176 18.388t18.388 44.176v142.051h-50.255v-142.051q0-4.616-3.847-8.462-3.846-3.847-8.462-3.847h-634.87q-4.616 0-8.462 3.847-3.847 3.846-3.847 8.462v142.051h-50.255Zm62.564 395.383q-25.788 0-44.176-18.388t-18.388-44.176v-142.051h50.255v142.051q0 4.616 3.847 8.462 3.846 3.847 8.462 3.847h634.87q4.616 0 8.462-3.847 3.847-3.846 3.847-8.462v-142.051h50.255v142.051q0 25.788-18.388 44.176t-44.176 18.388h-634.87Zm237.34-114.872q6.915 0 13.225-3.41t9.562-10.23L560-583.13l57.308 114.617q3.227 6.82 9.487 10.23 6.261 3.41 13.205 3.41h194.871q10.698 0 17.913-7.249t7.215-17.999q0-10.75-7.215-17.878t-17.913-7.128h-179l-73.179-145.95q-2.995-6.602-9.089-9.326t-13.451-2.724q-6.972 0-13.385 2.724-6.413 2.724-9.459 9.326L400-376.87l-57.308-114.617q-3.227-6.82-9.487-10.23-6.261-3.41-13.205-3.41H125.129q-10.698 0-17.913 7.249t-7.215 17.999q0 10.75 7.215 17.878t17.913 7.128h179l73.179 146.36q3.214 6.82 9.448 10.23t13.149 3.41ZM480-480Z"/></svg>