<svg xmlns="http://www.w3.org/2000/svg" height="40" viewBox="0 -960 960 960" width="40"><path d="M162.565-180.001q-25.846 0-44.205-18.359-18.359-18.359-18.359-44.205v-474.87q0-25.846 18.359-44.205 18.359-18.359 44.205-18.359l67.025 136.204h124.872l-67.025-136.204h84.461l67.025 136.204h124.872L496.77-779.999h84.205l67.282 136.204h124.871l-67.281-136.204h91.588q25.846 0 44.205 18.359 18.359 18.359 18.359 44.205v173.152q-32.385-13.845-68.038-7.666-35.654 6.18-62.448 32.59L505.436-296.872q-8.616 8.359-13.693 20.218t-5.077 24.423v72.23H162.565Zm402.051 8.718v-61.897q0-6.154 2.205-11.538 2.205-5.385 7.154-10.333l207.794-206.795q7.462-7.077 16.154-10.308 8.692-3.23 17.384-3.23 9.308 0 18.192 3.538 8.885 3.539 15.961 10.615l37 37.385q6.872 7.461 10.205 16.153 3.334 8.693 3.334 17.385 0 8.692-3.372 17.692t-10.577 16.461L679.666-149.36q-4.949 4.948-10.334 7.153-5.384 2.206-11.538 2.206h-61.897q-13.564 0-22.422-8.859-8.859-8.859-8.859-22.423Zm250.691-180.41 37-38.615-37-37.385-38 38 38 38Z"/></svg>