<svg xmlns="http://www.w3.org/2000/svg" height="40" viewBox="0 -960 960 960" width="40"><path d="M513.744-183.875 420.36-421.129l-237.639-94.153q-10.359-3.949-15.038-12.333-4.68-8.385-4.68-17.411 0-8.769 4.782-16.615 4.782-7.846 15.141-12.051l178.666-66.974-201.616-201.617q-7.436-7.435-7.628-17.807-.192-10.371 7.628-18.192 7.564-7.564 17.871-7.564 10.307 0 18.128 7.564l682.307 682.307q7.179 7.436 7.371 17.628.193 10.192-7.371 17.756-7.821 7.82-18.128 7.82t-17.871-7.82L639.512-362.746 572.153-184.08q-4.205 10.359-12.051 15.141t-16.615 4.782q-9.026 0-17.41-4.68-8.385-4.679-12.333-15.038Zm173.024-303.177-39.794-39.666L722.41-723.18l-196.846 75.052-39.666-39.409 257.613-97.384q9.359-4.205 18.218-1.603 8.859 2.603 15.269 8.757 6.154 6.41 8.756 15.269 2.603 8.859-1.602 18.218l-97.384 257.228ZM541.179-249.949l58.488-152.386-198.871-198.871-151.976 58.488 209.795 82.564 82.564 210.205Zm45.282-337.282Zm-86.229 85.461Z"/></svg>