<svg xmlns="http://www.w3.org/2000/svg" height="40" viewBox="0 -960 960 960" width="40"><path d="m719.973-331.155-45.384-45.383 97.718-97.718q2.821-3.077 2.821-6.475 0-3.397-2.821-6.218l-287.23-287.23q-2.82-2.821-6.474-2.949-3.655-.128-6.988 2.949l-97.718 97.718-45.383-46.05 106.307-106.051q8.692-8.949 20.654-13.718 11.961-4.769 23.73-4.769 12.179 0 23.308 4.474 11.128 4.475 20.076 13.423l303.434 304.101q18.308 18.103 18.295 43.961-.013 25.859-17.91 43.5L719.973-331.155Zm-84.615 85.025L523.435-133.695q-8.948 8.744-20.41 13.09-11.461 4.346-23.82 4.346-12.231 0-23.961-4.372-11.731-4.371-20.68-13.064L131.643-436.616q-8.692-8.948-13.166-20.679-4.475-11.731-4.475-23.961 0-12.359 4.475-23.821 4.474-11.461 13.166-20.41l111.564-111.769L99.771-781.564q-7.487-7.231-7.654-17.397-.167-10.167 7.654-17.73 7.358-7.616 17.435-7.616 10.077 0 17.692 7.616l681.537 681.28q7.23 7.231 7.294 17.423.065 10.192-7.294 17.551-7.615 7.615-17.718 7.615-10.102 0-17.461-7.615L635.358-246.13ZM185.231-474.307l286.768 287.024q3.078 3.078 6.668 3.078 3.59 0 6.41-3.078l104.231-103.82-59.513-59.514-29.334 29.078q-9.359 9.358-21.794 9.358-12.436 0-21.795-9.358L319.488-458.923q-9.359-9.359-9.359-21.795 0-12.436 9.359-22.051l29.077-29.077-59.564-59.309-103.77 103.77q-3.077 3.077-3.077 6.667t3.077 6.411Zm429.794 38.204L433.846-617.281l23.026-23.026q8.974-8.974 21.41-8.974t21.41 8.974L638.05-501.948q8.974 8.974 8.974 21.41 0 12.435-8.974 21.666l-23.025 22.769Z"/></svg>