<svg xmlns="http://www.w3.org/2000/svg" height="40" viewBox="0 -960 960 960" width="40"><path d="M917.564-319.026q-28.564 0-48.769-20.205T848.59-388v-160q0-29.077 20.205-49.025 20.205-19.949 48.769-19.949h28.973v297.948h-28.973Zm-608.051 68.819q-11.64 0-23.574-4.502-11.934-4.501-20.937-13.6l-166.293-165.3q-9.296-9.289-13.975-20.679-4.68-11.389-4.68-23.025t4.502-23.57q4.502-11.934 13.6-21.347L211.08-636.153q26.157-25.975 59.078-39.41 32.922-13.436 68.883-13.436 75.518 0 127.662 52.144 52.144 52.144 52.144 127.663 0 35.961-13.435 68.882-13.436 32.922-39.411 59.078L353.283-268.514q-8.932 8.948-20.531 13.628-11.599 4.679-23.239 4.679Zm369.282-112.871-26.128-26.384 57.565-57.564H571.026v-37.948h144.385l-61.795-61.795 26.384-26 104.769 104.384-105.974 105.307Z"/></svg>