<svg xmlns="http://www.w3.org/2000/svg" height="40" viewBox="0 -960 960 960" width="40"><path d="M505.127-466.871v-149.54q0-10.679-7.262-17.903-7.263-7.225-18-7.225-10.736 0-17.864 7.225-7.128 7.224-7.128 17.903v157.513q0 5.976 2.205 11.578 2.205 5.602 7.153 10.55l112.027 112.026q7.514 7.436 18.038 7.628 10.525.193 18.11-7.522 7.081-7.331 7.081-17.602 0-10.272-7.231-17.502L505.127-466.871Zm-24.992-258.001q10.736 0 17.864-7.224t7.128-17.903v-34.617q0-10.679-7.262-17.904-7.263-7.224-18-7.224-10.736 0-17.864 7.224-7.128 7.225-7.128 17.904v34.617q0 10.679 7.262 17.903 7.263 7.224 18 7.224Zm244.737 245.007q0 10.736 7.224 17.864t17.903 7.128h34.617q10.679 0 17.904-7.262 7.224-7.263 7.224-18 0-10.736-7.224-17.864-7.225-7.128-17.904-7.128h-34.617q-10.679 0-17.903 7.262-7.224 7.263-7.224 18ZM479.865-235.128q-10.736 0-17.864 7.224t-7.128 17.903v34.617q0 10.679 7.262 17.903 7.263 7.225 18 7.225 10.736 0 17.864-7.225 7.128-7.224 7.128-17.903v-34.617q0-10.679-7.262-17.903-7.263-7.224-18-7.224ZM235.128-480.135q0-10.736-7.224-17.864t-17.903-7.128h-34.617q-10.679 0-17.903 7.262-7.225 7.263-7.225 18 0 10.736 7.225 17.864 7.224 7.128 17.903 7.128h34.617q10.679 0 17.903-7.262 7.224-7.263 7.224-18Zm245.116 380.134q-78.915 0-148.053-29.92-69.139-29.92-120.731-81.544-51.593-51.624-81.526-120.727-29.933-69.103-29.933-147.946t29.92-148.106q29.92-69.262 81.544-120.575 51.624-51.314 120.727-81.247 69.103-29.933 147.946-29.933t148.106 29.92q69.262 29.92 120.575 81.21 51.314 51.291 81.247 120.629 29.933 69.337 29.933 147.996 0 78.915-29.92 148.053-29.92 69.139-81.21 120.609-51.291 51.469-120.629 81.525-69.337 30.056-147.996 30.056Z"/></svg>