<svg xmlns="http://www.w3.org/2000/svg" height="40" viewBox="0 -960 960 960" width="40"><path d="M480.205-449.488q12.59 0 21.449-9.064 8.858-9.064 8.858-21.653 0-12.59-8.945-21.449-8.945-8.858-21.567-8.858-12.384 0-21.448 8.945T449.488-480q0 12.384 9.064 21.448t21.653 9.064Zm120 0q12.59 0 21.449-9.064 8.858-9.064 8.858-21.653 0-12.59-8.945-21.449-8.945-8.858-21.567-8.858-12.384 0-21.448 8.945T569.488-480q0 12.384 9.064 21.448t21.653 9.064Zm-240 0q12.59 0 21.449-9.064 8.858-9.064 8.858-21.653 0-12.59-8.945-21.449-8.945-8.858-21.567-8.858-12.384 0-21.448 8.945T329.488-480q0 12.384 9.064 21.448t21.653 9.064Zm120 120q12.59 0 21.449-9.064 8.858-9.064 8.858-21.653 0-12.59-8.945-21.449-8.945-8.858-21.567-8.858-12.384 0-21.448 8.945T449.488-360q0 12.384 9.064 21.448t21.653 9.064Zm120 0q12.59 0 21.449-9.064 8.858-9.064 8.858-21.653 0-12.59-8.945-21.449-8.945-8.858-21.567-8.858-12.384 0-21.448 8.945T569.488-360q0 12.384 9.064 21.448t21.653 9.064Zm-240 0q12.59 0 21.449-9.064 8.858-9.064 8.858-21.653 0-12.59-8.945-21.449-8.945-8.858-21.567-8.858-12.384 0-21.448 8.945T329.488-360q0 12.384 9.064 21.448t21.653 9.064Zm120-240q12.59 0 21.449-9.064 8.858-9.064 8.858-21.653 0-12.59-8.945-21.449-8.945-8.858-21.567-8.858-12.384 0-21.448 8.945T449.488-600q0 12.384 9.064 21.448t21.653 9.064Zm120 0q12.59 0 21.449-9.064 8.858-9.064 8.858-21.653 0-12.59-8.945-21.449-8.945-8.858-21.567-8.858-12.384 0-21.448 8.945T569.488-600q0 12.384 9.064 21.448t21.653 9.064Zm-240 0q12.59 0 21.449-9.064 8.858-9.064 8.858-21.653 0-12.59-8.945-21.449-8.945-8.858-21.567-8.858-12.384 0-21.448 8.945T329.488-600q0 12.384 9.064 21.448t21.653 9.064Zm119.862 469.487q-78.836 0-148.204-29.92-69.369-29.92-120.682-81.21-51.314-51.291-81.247-120.629-29.933-69.337-29.933-148.173t29.92-148.204q29.92-69.369 81.21-120.682 51.291-51.314 120.629-81.247 69.337-29.933 148.173-29.933t148.204 29.92q69.369 29.92 120.682 81.21 51.314 51.291 81.247 120.629 29.933 69.337 29.933 148.173t-29.92 148.204q-29.92 69.369-81.21 120.682-51.291 51.314-120.629 81.247-69.337 29.933-148.173 29.933Z"/></svg>