<svg xmlns="http://www.w3.org/2000/svg" height="40" viewBox="0 -960 960 960" width="40"><path d="M586.717-511.487 407.41-690.794q14.333-9.077 32.949-15.09 18.615-6.013 40.41-6.013 53.974 0 90.859 37.077 36.884 37.077 36.884 91.435 0 20.385-6 41.039t-15.795 30.859ZM236.052-257.076q58.102-38.616 115.82-59.949Q409.59-338.358 480-338.358q41.693 0 77.733 8.398 36.039 8.397 59.809 18.577l-144.054-144.31q-51.847-2.692-84.526-35.179-32.679-32.487-35.397-82.18L229.847-696.77q-36.616 43.154-58.103 97.013Q150.256-545.898 150.256-480q0 63.923 21.821 118.975 21.821 55.051 63.975 103.949Zm496.512-8.359q34.256-41.411 55.718-95.244Q809.744-414.512 809.744-480q0-142.077-93.834-235.91-93.833-93.834-235.91-93.834-65.718 0-119.244 21.026-53.526 21.026-95.321 56.154l467.129 467.129ZM480-100.001q-79.359 0-148.705-29.564-69.345-29.564-120.756-80.974-51.41-51.411-80.974-120.756Q100.001-400.641 100.001-480q0-79.564 29.564-148.807t80.974-120.654q51.411-51.41 120.756-80.974Q400.641-859.999 480-859.999q79.564 0 148.807 29.564t120.654 80.974q51.41 51.411 80.974 120.654Q859.999-559.564 859.999-480q0 79.359-29.564 148.705-29.564 69.345-80.974 120.756-51.411 51.41-120.654 80.974Q559.564-100.001 480-100.001Z"/></svg>