<svg xmlns="http://www.w3.org/2000/svg" height="40" viewBox="0 -960 960 960" width="40"><path d="m779.999-253.179-50.255-50.255v-251.027q0-5.385-3.462-8.846-3.462-3.462-8.847-3.462H466.408l-50.255-50.255h188.719v-87.436q0-52.415-37.705-88.848-37.706-36.434-90.731-36.434-53.282 0-90.347 36.59-37.064 36.589-37.064 88.692v18l-46.255-46.255q9.102-63.923 58.397-105.603 49.294-41.679 115.602-41.679 73.917 0 126.137 50.988 52.221 50.988 52.221 124.549v87.436h62.308q26.09 0 44.327 18.237t18.237 44.326v301.282ZM242.565-100.001q-26.09 0-44.327-18.237t-18.237-44.327v-391.896q0-23.025 15.052-40.41 15.051-17.384 37.666-20.82L25.128-823.283q-7.231-7.23-7.09-17.499.141-10.269 7.628-17.884t17.692-7.615q10.205 0 17.563 7.615L860.974-58.614q7.23 7.23 7.218 17.5-.013 10.269-7.628 17.884-7.616 7.615-17.692 7.615-10.077 0-17.692-7.615l-81.899-82.156q-8.744 3.41-16.231 4.397-7.487.988-17.308.988H242.565Zm455.076-50.255L530.179-318.488q-9.846 9.846-22.017 14.667-12.171 4.82-26.162 4.82-28.487 0-47.961-19.269t-19.474-47.542q0-14.523 5.025-26.868 5.026-12.345 14.616-21.935L280.718-566.769h-38.153q-5.385 0-8.847 3.462-3.462 3.461-3.462 8.846v391.896q0 5.385 3.462 8.847 3.462 3.462 8.847 3.462h455.076ZM489.385-358.513Zm108.486-76.794Z"/></svg>