<svg xmlns="http://www.w3.org/2000/svg" height="40" viewBox="0 -960 960 960" width="40"><path d="M259.073-113.079q-24.286 0-41.422-17.295-17.136-17.295-17.136-41.581 0-24.287 17.295-41.423 17.295-17.135 41.581-17.135t41.422 17.294q17.136 17.295 17.136 41.581 0 24.287-17.295 41.423-17.294 17.136-41.581 17.136ZM654.255-404.54l-174.69-175.357L638.769-766.46q17.076-20.076 40.129-31.807 23.052-11.731 49.793-11.731 45.615 0 77.114 31.5 31.5 31.499 31.5 77.296v.818q0 10.679-7.263 17.903-7.263 7.224-18 7.224-10.736 0-17.864-7.258t-7.128-17.988v-.783q0-24.553-16.924-41.505t-41.435-16.952q-15.583 0-29.125 7.577t-23.722 19.834l-21.589 25.282v302.51Zm-45.284 53.642 35.514 35.332q-7.195 15.26-21.727 25.285-14.532 10.024-32.504 10.024h-301.1q-19.191 0-26.941-17.23-7.751-17.231 4.634-32.23L401.36-487.052 72.154-816.053q-7.435-7.231-7.525-17.73-.09-10.5 7.18-18.064 8.2-7.82 18.34-7.82 10.139 0 18.004 7.82l745.182 744.925q7.179 7.436 7.269 17.628.089 10.192-7.475 18.1-7.82 7.27-18.025 7.373-10.204.103-17.768-7.717l-280.027-279.36h71.662Zm.612 237.819q-24.286 0-41.422-17.295-17.136-17.295-17.136-41.581 0-24.287 17.294-41.423 17.295-17.135 41.582-17.135 24.286 0 41.422 17.294 17.136 17.295 17.136 41.581 0 24.287-17.295 41.423-17.295 17.136-41.581 17.136ZM441.001-618.461 277.027-782.434q31.436-14 65.471-20.782 34.034-6.782 68.682-6.782 41.89 0 82.384 9.615 40.494 9.616 78.333 27.795L441.001-618.461Z"/></svg>