<svg xmlns="http://www.w3.org/2000/svg" height="40" viewBox="0 -960 960 960" width="40"><path d="M579.744-544.745v95.617q0 10.685 7.259 17.906 7.258 7.221 17.999 7.221t17.869-7.221q7.128-7.221 7.128-17.906v-149.59q0-13.301-8.99-22.291t-22.291-8.99h-149.59q-10.685 0-17.906 7.258-7.221 7.259-7.221 18t7.221 17.869q7.221 7.128 17.906 7.128h94.617L333.436-369.435q-7.23 7.134-7.23 17.454 0 10.319 6.97 17.65 7.696 7.715 18.238 7.523 10.541-.193 18.021-7.628l210.309-210.309Zm-99.5 444.744q-78.915 0-147.999-29.92-69.084-29.92-120.731-81.544-51.647-51.624-81.58-120.727-29.933-69.103-29.933-148.074 0-78.715 29.92-147.978 29.92-69.262 81.544-120.575 51.624-51.314 120.727-81.247 69.103-29.933 148.074-29.933 78.715 0 147.978 29.92 69.262 29.92 120.575 81.21 51.314 51.291 81.247 120.629 29.933 69.337 29.933 147.996 0 78.915-29.92 147.999-29.92 69.084-81.21 120.608-51.291 51.524-120.629 81.58-69.337 30.056-147.996 30.056Z"/></svg>