<svg xmlns="http://www.w3.org/2000/svg" height="40" viewBox="0 -960 960 960" width="40"><path d="M744.051-239.485v-92.925q0-7.077-5.307-12.385-5.308-5.307-12.385-5.307t-12.385 5.307q-5.307 5.308-5.307 12.323v94.344q0 6.312 2.205 11.836 2.205 5.523 7.112 10.429l62.777 62.777q5.367 5.368 12.406 5.56 7.038.193 12.653-5.294 5.231-5.243 5.231-12.497t-5.231-12.555l-61.769-61.613ZM726.149-58.104q-72.158 0-122.999-51.227-50.841-51.227-50.841-122.46 0-72.857 50.834-123.763 50.834-50.906 123.339-50.906 71.825 0 122.876 50.906t51.051 123.763q0 71.233-51.051 122.46-51.051 51.227-123.209 51.227ZM315.128-615.129h329.744q10.679 0 17.903-7.263 7.224-7.263 7.224-17.999 0-10.737-7.224-17.865-7.224-7.128-17.903-7.128H315.128q-10.679 0-17.903 7.263-7.224 7.263-7.224 18 0 10.736 7.224 17.864t17.903 7.128Zm169.769 475.128H202.565q-25.609 0-44.086-18.478-18.478-18.477-18.478-44.086v-554.87q0-25.609 18.478-44.086 18.477-18.478 44.086-18.478h554.87q25.609 0 44.086 18.478 18.478 18.477 18.478 44.086v282.64q-22.487-9.487-45.897-14.346T726.359-494q-16.981 0-33.074 2.428-16.094 2.427-31.748 6.675v-4.871q-2.288-6.359-9.589-10.859t-15.538-4.5H315.128q-10.679 0-17.903 7.262-7.224 7.263-7.224 18 0 10.736 7.224 17.864t17.903 7.128H592.54q-33.077 19.334-58.578 47.501-25.5 28.167-41.808 62.501H315.128q-10.679 0-17.903 7.263-7.224 7.263-7.224 17.999 0 10.737 7.224 17.865 7.224 7.128 17.903 7.128h158.847q-3.564 14.949-5.436 29.987-1.872 15.039-1.872 30.988 0 23.538 4.077 47.743 4.077 24.205 14.153 45.897Z"/></svg>