<svg xmlns="http://www.w3.org/2000/svg" height="40" viewBox="0 -960 960 960" width="40"><path d="M706.154-168.976q-56.215 0-95.03-38.815t-38.815-95.03q0-56.215 38.815-95.03t95.03-38.815q56.214 0 95.029 38.815 38.816 38.815 38.816 95.03t-38.816 95.03q-38.815 38.815-95.029 38.815Zm-.076-50.255q35.076 0 59.371-24.22t24.295-59.295q0-35.075-24.22-59.37-24.22-24.295-59.295-24.295-35.076 0-59.371 24.22t-24.295 59.295q0 35.075 24.22 59.37 24.22 24.295 59.295 24.295Zm-246.59-58.463H185.642q-10.68 0-17.904-7.263t-7.224-17.999q0-10.737 7.224-17.865 7.224-7.128 17.904-7.128h273.846q10.679 0 17.904 7.263 7.224 7.263 7.224 18 0 10.736-7.224 17.864-7.225 7.128-17.904 7.128Zm-205.642-245.64q-56.214 0-95.03-38.815-38.815-38.815-38.815-95.03t38.815-95.03q38.816-38.815 95.03-38.815 56.215 0 95.03 38.815t38.815 95.03q0 56.215-38.815 95.03t-95.03 38.815Zm-.075-50.255q35.076 0 59.371-24.22 24.294-24.22 24.294-59.295t-24.219-59.37q-24.22-24.295-59.295-24.295-35.076 0-59.371 24.22t-24.295 59.295q0 35.075 24.22 59.37 24.22 24.295 59.295 24.295Zm520.587-58.463H500.512q-10.679 0-17.904-7.262-7.224-7.263-7.224-18 0-10.736 7.224-17.864 7.225-7.128 17.904-7.128h273.846q10.679 0 17.904 7.263 7.224 7.262 7.224 17.999 0 10.737-7.224 17.865-7.225 7.127-17.904 7.127Zm-68.204 329.231ZM253.846-657.179Z"/></svg>