<svg xmlns="http://www.w3.org/2000/svg" height="40" viewBox="0 -960 960 960" width="40"><path d="M480.067-100.001q-78.426 0-147.666-29.92t-120.887-81.544q-51.647-51.624-81.58-120.833-29.933-69.21-29.933-147.635 0-78.836 29.92-148.204 29.92-69.369 81.544-120.682 51.624-51.314 120.833-81.247 69.21-29.933 147.635-29.933 78.836 0 148.204 29.92 69.369 29.92 120.682 81.21 51.314 51.291 81.247 120.629 29.933 69.337 29.933 148.173 0 78.426-29.92 147.666t-81.21 120.887q-51.291 51.647-120.629 81.58-69.337 29.933-148.173 29.933ZM479-204.308q9.436 0 16.474-7.244 7.038-7.243 7.038-16.679v-25.616q51.41-4.974 88.398-35.448 36.987-30.474 36.987-85.32 0-46.872-27-77.282-27-30.41-97.923-54.923-64.565-21.949-85.59-40.359-21.026-18.411-21.026-50.103 0-30.872 23.219-49.718 23.218-18.847 62.423-18.847 24.462 0 43.09 9.295 18.628 9.295 32.064 26.193 5.821 6.769 14.282 9.564 8.461 2.794 15.983-.795 9.828-4.205 13.05-13.667 3.223-9.461-2.572-17.281-16.667-23.026-40.769-37.244Q533.025-704 504.512-706.41v-25.359q0-9.436-7.038-16.474T481-755.281q-9.436 0-16.679 7.038-7.244 7.038-7.244 16.474v25.359q-51.564 7.949-79.73 38.244-28.167 30.294-28.167 70.884 0 46.154 26.231 73.487 26.231 27.333 93.051 52.051 67.564 25.282 90.167 44.808 22.602 19.526 22.602 52.321 0 37.615-28.846 58.039-28.846 20.423-65.975 20.423-31.885 0-58.083-15.923Q402.128-328 386.179-356.82q-4.59-7.821-12.666-11.141-8.077-3.32-16.055-.511-10.224 4.143-14.212 13.205-3.989 9.062 1.524 18.164 18.667 33.205 45.872 52.821 27.205 19.615 64.435 28.435v28.027q0 9.692 7.244 16.602 7.243 6.91 16.679 6.91Z"/></svg>