<svg xmlns="http://www.w3.org/2000/svg" height="40" viewBox="0 -960 960 960" width="40"><path d="M190.256-187.897q55.898-54.897 130.372-85.936Q395.103-304.871 480-304.871q84.897 0 159.038 31.038 74.142 31.039 130.706 85.936v-539.282q0-4.615-3.847-8.462-3.846-3.846-8.462-3.846h-554.87q-4.616 0-8.462 3.846-3.847 3.847-3.847 8.462v539.282ZM480-407.026q-53.487 0-90.794-37.308-37.308-37.307-37.308-90.794 0-53.487 37.308-90.795Q426.513-663.23 480-663.23q53.487 0 90.794 37.307 37.308 37.308 37.308 90.795t-37.308 90.794Q533.487-407.026 480-407.026ZM202.565-100.001q-25.788 0-44.176-18.388t-18.388-44.176v-564.614q0-25.788 18.388-44.176 18.388-18.387 44.176-18.387h67.693v-47.899q0-11.399 7.637-19.186 7.636-7.787 19.058-7.787 11.706 0 19.556 7.787 7.851 7.787 7.851 19.186v47.899h312.819v-48.596q0-11.343 7.496-18.81 7.495-7.466 18.609-7.466 11.398 0 19.056 7.524 7.658 7.524 7.658 18.68v48.668h67.437q25.788 0 44.176 18.387 18.388 18.388 18.388 44.176v564.614q0 25.788-18.388 44.176t-44.176 18.388h-554.87Z"/></svg>