<svg xmlns="http://www.w3.org/2000/svg" height="40" viewBox="0 -960 960 960" width="40"><path d="M479.879-309.693q-10.75 0-17.878-7.215-7.128-7.214-7.128-17.913v-177.334q0-10.698 7.249-17.913 7.249-7.214 17.999-7.214t17.878 7.214q7.128 7.215 7.128 17.913v177.334q0 10.699-7.249 17.913-7.249 7.215-17.999 7.215Zm.155-286.153q-12.085 0-20.521-8.408t-8.436-20.503q0-12.319 8.265-20.626 8.265-8.308 20.149-8.308 12.45 0 20.941 8.296t8.491 20.487q0 12.191-8.402 20.626-8.402 8.436-20.487 8.436ZM282.565-60.001q-25.788 0-44.176-18.388t-18.388-44.176v-714.87q0-25.788 18.388-44.176t44.176-18.388h394.87q25.788 0 44.176 18.388t18.388 44.176v714.87q0 25.788-18.388 44.176-18.388 18.387-44.176 18.387h-394.87Zm-12.309-95.384v32.82q0 4.616 3.847 8.462 3.846 3.847 8.462 3.847h394.87q4.616 0 8.462-3.847 3.847-3.846 3.847-8.462v-32.82H270.256Zm0-50.255h419.488v-548.72H270.256v548.72Zm0-598.975h419.488v-32.82q0-4.616-3.847-8.462-3.846-3.847-8.462-3.847h-394.87q-4.616 0-8.462 3.847-3.847 3.846-3.847 8.462v32.82Zm0 0v-45.129 45.129Zm0 649.23v45.129-45.129Z"/></svg>