<svg xmlns="http://www.w3.org/2000/svg" height="40" viewBox="0 -960 960 960" width="40"><path d="M479.865-309.693q-10.736 0-17.864-7.224t-7.128-17.904v-177.334q0-10.679 7.262-17.903 7.263-7.224 18-7.224 10.736 0 17.864 7.224t7.128 17.903v177.334q0 10.68-7.262 17.904-7.263 7.224-18 7.224Zm.169-286.153q-12.277 0-20.617-8.312-8.34-8.312-8.34-20.599 0-12.511 8.169-20.723 8.169-8.211 20.245-8.211 12.642 0 21.037 8.2 8.395 8.199 8.395 20.583 0 12.383-8.306 20.723-8.305 8.339-20.583 8.339ZM282.565-60.001q-25.788 0-44.176-18.388t-18.388-44.176v-714.87q0-25.788 18.388-44.176t44.176-18.388h394.87q25.788 0 44.176 18.388t18.388 44.176v714.87q0 25.788-18.388 44.176-18.388 18.387-44.176 18.387h-394.87ZM270.256-205.64h419.488v-548.72H270.256v548.72Z"/></svg>