<svg xmlns="http://www.w3.org/2000/svg" height="40" viewBox="0 -960 960 960" width="40"><path d="M793.24-494.155q-9.345 0-16.71-6.955-7.365-6.954-8.966-17.352-13.41-101.718-85.782-174.218-72.372-72.5-174.347-85.911-10.442-1.243-17.246-8.577-6.804-7.334-6.804-17.723 0-10.888 7.384-18.203 7.385-7.316 18.154-5.7 122.627 13.281 209.076 99.718 86.45 86.438 100.025 209.384 1.616 10.769-5.956 18.153-7.572 7.384-18.828 7.384Zm-167.818 0q-8.184 0-15.11-5.538-6.927-5.538-9.619-14.538-9.975-35.436-35.885-61.731-25.911-26.295-61.347-36.141-9-2.685-14.538-9.055-5.538-6.37-5.538-15.288 0-12.605 8.448-20.143 8.449-7.538 19.859-4.718 51.435 11.925 88.832 49.334 37.398 37.409 50.423 89.255 2.564 11.666-5.128 20.115-7.692 8.448-20.397 8.448Zm150.705 354.154q-108.615 0-221.986-53.321-113.371-53.32-210.435-150.576-97.064-97.256-150.384-210.435-53.321-113.179-53.321-221.794 0-18.802 12.425-31.337t31.063-12.535h119.568q15.481 0 26.519 10.09 11.039 10.09 15.013 25.706l23.542 110.682q2.176 15.547-1.004 27.521-3.179 11.974-11.844 20.125l-93.719 91.259q25.282 44.231 54.679 82.475 29.398 38.244 63.603 72.218 35.898 36.564 76.359 67.103 40.462 30.539 86.847 55.923l90.436-92.435q9.795-10.59 22.501-14.436 12.706-3.846 26.473-1.846l101.741 21.794q15.821 3.744 25.808 15.997 9.988 12.254 9.988 27.773v116.561q0 18.638-12.535 31.063-12.535 12.425-31.337 12.425ZM236.974-580.973l78.821-76.154q1.667-1.539 2.244-4.232.577-2.692.064-5l-20.359-97.23q-.513-3.078-2.564-4.616-2.051-1.539-5.129-1.539h-94.205q-2.307 0-3.846 1.539-1.539 1.538-1.539 3.846 1.59 41.411 13.09 86.898 11.5 45.487 33.423 96.488Zm353.538 347.999q40.59 19.615 87.501 30.372 46.91 10.756 86.346 12.192 2.308 0 3.846-1.539 1.539-1.538 1.539-3.846v-93.487q0-3.077-1.539-5.129-1.538-2.051-4.616-2.564l-88.461-18.154q-2.307-.513-4.038.064-1.731.577-3.654 2.244l-76.924 79.847ZM236.974-580.973Zm353.538 347.999Z"/></svg>