<svg xmlns="http://www.w3.org/2000/svg" height="40" viewBox="0 -960 960 960" width="40"><path d="M242.565-100.001q-25.788 0-44.176-18.388t-18.388-44.176v-634.87q0-25.788 18.388-44.176t44.176-18.388h474.87q25.788 0 44.176 18.388t18.388 44.176v634.87q0 25.788-18.388 44.176t-44.176 18.388h-474.87Zm0-50.255h474.87q4.616 0 8.462-3.847 3.847-3.846 3.847-8.462v-634.87q0-4.616-3.847-8.462-3.846-3.847-8.462-3.847h-57.948v228.871q0 8.949-7.884 13.397-7.885 4.449-16.039.167l-49.281-29.102q-7.875-4.539-15.796-4.539-7.922 0-15.666 4.539l-49.281 29.102q-8.154 4.282-15.616-.167-7.461-4.448-7.461-13.397v-228.871H242.565q-4.616 0-8.462 3.847-3.847 3.846-3.847 8.462v634.87q0 4.616 3.847 8.462 3.846 3.847 8.462 3.847Zm204.307-125.18-55.026-66.41q-4.948-6.025-12.23-5.833-7.282.192-12.231 6.218l-52.153 67.819q-6.154 8.154-1.872 16.641 4.282 8.487 14.436 8.487h309.793q9.026 0 13.603-8.487 4.576-8.487-1.039-15.974l-88.435-117.64q-4.949-6.154-12.387-6.154-7.437 0-12.741 6.154l-89.718 115.179Zm-216.616 125.18V-809.744-150.256Zm252.207-430.232v-.385q0 8.949 7.461 13.397 7.462 4.449 15.616.167l49.281-29.102q7.875-4.539 15.796-4.539 7.922 0 16.076 4.539l48.871 29.102q8.154 4.282 16.039-.167 7.884-4.448 7.884-13.397v.385q0 9.123-7.884 13.626-7.885 4.502-16.039-.062l-49.281-29.077q-7.858-4.949-15.763-4.949t-15.699 4.949l-49.281 29.077q-8.154 4.564-15.616.062-7.461-4.503-7.461-13.626Z"/></svg>