<svg xmlns="http://www.w3.org/2000/svg" height="40" viewBox="0 -960 960 960" width="40"><path d="m785.283-103.591-38.052-37.18q-1.666.385-3.333.577-1.667.193-3.59.193H202.565q-25.705 0-44.134-18.43-18.43-18.429-18.43-44.134v-537.743q0-1.923.193-3.59.192-1.667.577-3.333l-37.795-38.052q-7.436-7.48-7.628-17.829-.192-10.349 7.663-18.17 7.599-7.564 17.871-7.564 10.272 0 18.093 7.564l682.307 682.307q7.179 7.436 7.371 17.628.193 10.192-7.406 17.756-7.856 7.82-18.128 7.82t-17.836-7.82Zm34.716-136.103-50.255-50.255v-467.486q0-5.385-3.462-8.847-3.462-3.462-8.847-3.462h-88.897v346.667q0 6.128-2.808 12.038-2.807 5.91-8.013 9.064L530.59-529.102v-240.642H429.41v139.462L239.694-819.999h517.741q25.705 0 44.134 18.43 18.43 18.429 18.43 44.134v517.741Zm-617.434 49.438h138.897v-200.77h-17.949q-13.525 0-22.788-9.263t-9.263-22.788V-596.54L190.256-697.746v495.181q0 5.385 3.462 8.847 3.462 3.462 8.847 3.462Zm176.845 0h201.18v-117.412L429.256-459.002v6.923q-.564 21.898-6.269 41.476-5.705 19.577-25.628 19.577H379.41v200.77Zm239.128 0h79.208l-79.208-79.465v79.465Z"/></svg>