<svg xmlns="http://www.w3.org/2000/svg" height="40" viewBox="0 -960 960 960" width="40"><path d="M194.873-600.052 77.743-483.538q-5.624 5.555-13.337 5.765-7.713.209-13.43-5.765Q45-489.256 45-496.794q0-7.539 5.974-13.513L167.49-627.436h-88.77q-8.026 0-13.5-5.469t-5.474-13.487q0-7.761 5.474-13.376 5.474-5.616 13.5-5.616h122.82q13.211 0 22.246 9.035 9.035 9.036 9.035 22.247v122.82q0 8.026-5.597 13.5t-13.358 5.474q-8.018 0-13.505-5.474t-5.487-13.5v-88.77Zm164.46-164.665h88.975q8.026 0 13.5 5.469t5.474 13.487q0 7.761-5.474 13.376-5.474 5.616-13.5 5.616h-122.82q-13.212 0-22.247-9.035-9.035-9.036-9.035-22.247v-122.82q0-8.026 5.597-13.5 5.598-5.474 13.359-5.474 8.018 0 13.505 5.474t5.487 13.5v88.975l117.18-117.129q5.333-5.589 13.269-5.782 7.936-.192 13.91 5.782 5.718 5.718 5.718 13.564t-5.718 13.564l-117.18 117.18Zm216.794 700.1q-21 0-39.936-7.82-18.935-7.821-34.371-23L317.512-279.567q-7.795-7.794-7.795-18.845 0-11.052 7.103-19.667 9.974-12.153 24.576-16.653 14.602-4.5 29.91-.449l103.309 26.616v-336.052q0-10.852 7.141-17.99 7.142-7.137 18-7.137t17.986 7.137q7.128 7.138 7.128 17.99v290.257h69.668V-504.36q0-10.852 7.141-17.99 7.142-7.138 18-7.138t17.986 7.138q7.128 7.138 7.128 17.99v150.001h69.642V-464.36q0-10.852 7.142-17.99 7.141-7.138 17.999-7.138 10.858 0 17.986 7.138t7.128 17.99v110.001h69.668v-30.001q0-10.852 7.141-17.99 7.142-7.138 18-7.138t17.986 7.138q7.128 7.138 7.128 17.99v169.744q0 62.153-43.923 106.076-43.923 43.923-106.001 43.923H576.127Z"/></svg>