<svg xmlns="http://www.w3.org/2000/svg" height="40" viewBox="0 -960 960 960" width="40"><path d="M285.129-809.744v235.282q0 9.77 7.884 14.141 7.885 4.371 16.039-.577l64.179-39.257 64.179 39.257q8.153 4.948 16.038.577t7.885-14.141v-235.282H285.129ZM713.643-66.156q-73.284 0-124.54-51.535T537.847-242.51q0-73.285 51.576-124.541Q641-418.307 716.384-418.307q71.663 0 122.639 51.407 50.975 51.407 50.975 124.691 0 73.285-51.535 124.669t-124.82 51.384ZM696.41-175.18l82.716-54.768q6.975-4.616 6.975-12.885t-6.975-13.218L696.41-310.82q-8.154-5.205-16.205-.957-8.051 4.248-8.051 13.469v110.615q0 9.221 8.051 13.469 8.051 4.248 16.205-.957Zm-228.819-67.343q0 39.02 10.281 75.592 10.282 36.572 32.436 67.34H202.565q-25.609 0-44.086-18.348-18.478-18.35-18.478-44.215v-635.28q0-25.609 18.478-44.086 18.477-18.478 44.086-18.478h474.87q25.609 0 44.086 18.478 18.478 18.477 18.478 44.086v310.641q-6.072-.615-12.015-.923-5.943-.308-11.758-.308-103.152 0-175.894 71.556-72.741 71.555-72.741 173.945Z"/></svg>