<svg xmlns="http://www.w3.org/2000/svg" height="40" viewBox="0 -960 960 960" width="40"><path d="M485.745-149.846q3.23 12.41 10.041 26.251 6.811 13.842 14.522 24.004H202.565q-25.788 0-44.176-18.388-18.388-18.387-18.388-44.176v-635.28q0-25.788 18.388-44.176t44.176-18.388h474.87q25.788 0 44.176 18.388t18.388 44.176v311.051q-11.204-1.359-25.153-1.359-13.949 0-25.102 1.359v-311.051q0-4.616-3.847-8.462-3.846-3.847-8.462-3.847H461.333v235.282q0 9.508-7.885 14.01-7.885 4.502-16.038-.446l-64.179-39.257-64.179 39.257q-8.154 4.948-16.039.446-7.884-4.502-7.884-14.01v-235.282h-82.564q-4.616 0-8.462 3.847-3.847 3.846-3.847 8.462v635.28q0 4.616 3.847 8.462 3.846 3.847 8.462 3.847h283.18Zm228.049 83.69q-73.845 0-124.896-50.988t-51.051-125.215q0-73.846 51.051-124.897t125.024-51.051q73.974 0 125.025 51.051t51.051 125.025q0 73.974-50.988 125.024-50.988 51.051-125.216 51.051ZM696.41-175.18l82.716-54.768q6.975-4.616 6.975-12.885t-6.975-13.218L696.41-310.82q-8.154-5.205-16.205-.994-8.051 4.212-8.051 13.506v110.615q0 9.294 8.051 13.506 8.051 4.211 16.205-.994ZM285.129-809.744h176.204-176.204Zm200.616 0H190.256 689.744 468.001h17.744Z"/></svg>