<svg xmlns="http://www.w3.org/2000/svg" height="40" viewBox="0 -960 960 960" width="40"><path d="M480.048-104.745q-6.056 0-11.267-1-5.211-1-10.046-3Q330.719-154.566 255.36-269.27q-75.359-114.705-75.359-249.819v-183.423q0-20.002 11.333-36.003 11.332-16.001 29.308-23.202l237.435-88.384q11.487-3.949 21.923-3.949 10.436 0 21.923 3.949l237.435 88.384q17.976 7.201 29.308 23.202 11.333 16.001 11.333 36.003v183.538q0 62.128-17.296 120.375-17.295 58.247-48.243 112.086L591.999-406.821q11.051-16.256 16.884-35.206 5.833-18.95 5.833-39.05 0-56.262-39.377-95.694-39.378-39.433-95.285-39.433-55.906 0-95.338 39.433-39.432 39.432-39.432 95.489t39.393 95.284q39.394 39.227 95.323 39.227 20.509 0 40.126-6.436 19.617-6.436 36.443-17.82l128.533 126.128q-39.128 47.487-82.731 81.102-43.602 33.616-101.499 55.052-4.923 2-9.845 3-4.923 1-10.979 1Zm-.184-292.281q-34.761 0-59.544-24.456-24.782-24.457-24.782-59.928 0-34.975 24.918-59.757 24.918-24.782 59.68-24.782 34.761 0 59.544 24.782 24.782 24.782 24.782 59.757 0 35.471-24.918 59.928-24.918 24.456-59.68 24.456Z"/></svg>