<svg xmlns="http://www.w3.org/2000/svg" height="40" viewBox="0 -960 960 960" width="40"><path d="M202.565-140.001q-25.788 0-44.176-18.388t-18.388-44.176v-554.87q0-25.788 18.388-44.176t44.176-18.388h554.87q25.788 0 44.176 18.388t18.388 44.176v554.87q0 25.788-18.388 44.176t-44.176 18.388h-554.87Zm212.819-147.23H670q17.837 0 30.2-12.407t12.363-30.307q0-17.9-12.363-30.285-12.363-12.384-30.2-12.384H415.384q-17.944 0-30.381 12.363-12.438 12.363-12.438 30.2 0 17.944 12.438 30.382 12.437 12.438 30.381 12.438Z"/></svg>