<svg xmlns="http://www.w3.org/2000/svg" height="40" viewBox="0 -960 960 960" width="40"><path d="M480.067-100.001q-78.836 0-148.204-29.92-69.369-29.92-120.682-81.21-51.314-51.291-81.247-120.629-29.933-69.337-29.933-148.173t29.92-148.204q29.92-69.369 81.21-120.682 51.291-51.314 120.629-81.247 69.337-29.933 148.173-29.933t148.204 29.92q69.369 29.92 120.682 81.21 51.314 51.291 81.247 120.629 29.933 69.337 29.933 148.173t-29.92 148.204q-29.92 69.369-81.21 120.682-51.291 51.314-120.629 81.247-69.337 29.933-148.173 29.933Zm-41.554-51.845v-79.898q-34.122 0-57.805-24.653-23.682-24.654-23.682-58.731v-41.898L158.667-555.385q-3.821 18.821-6.116 37.583-2.295 18.763-2.295 37.859 0 125.405 81.936 219.251t206.321 108.846ZM723.436-256.82q20.82-22.821 37.026-49.018 16.205-26.196 27.287-54.703 11.083-28.506 16.539-58.494 5.456-29.989 5.456-60.965 0-102.085-56-186.094T603.385-788v17.935q0 33.988-23.683 58.642-23.683 24.654-57.805 24.654h-83.384v83.384q0 17.109-12.449 28.35-12.449 11.24-29.359 11.24h-81.577V-480h248.667q17.109 0 28.349 12.244 11.241 12.243 11.241 29.243v123.385h41.378q27.596 0 49.155 16.216t29.518 42.092Z"/></svg>