<svg xmlns="http://www.w3.org/2000/svg" height="40" viewBox="0 -960 960 960" width="40"><path d="M524-60.002q-79.769 0-149.615-30.269t-121.846-82.268q-51.999-52-82.268-121.846-30.27-69.846-30.27-149.615 0-117.204 65.025-213.498 65.025-96.295 173.973-139.397 16.359-6.513 30.936 2.602 14.576 9.115 14.064 26.064-.923 84.948 30.756 162.705 31.68 77.756 92.013 138.346 60.333 60.333 138.038 92.025 77.705 31.693 162.654 30.77 17.692-.513 26.589 14.564 8.898 15.077 2.385 31.897-43 108.076-139.115 172.998Q641.204-60.001 524-60.001Z"/></svg>