<svg xmlns="http://www.w3.org/2000/svg" height="40" viewBox="0 -960 960 960" width="40"><path d="M162.565-100.001q-25.788 0-44.176-18.388t-18.388-44.176v-470.408q0-24.667 16.039-43.68 16.039-19.013 38.962-28.116l434.612-176.127q9.032-3.846 17.8.003 8.769 3.849 12.148 12.817 3.436 9.308-.255 18.022-3.692 8.713-12.565 11.926L264.15-699.999h533.285q25.788 0 44.176 18.388t18.388 44.176v474.87q0 25.788-18.388 44.176t-44.176 18.388h-634.87Zm0-50.255h634.87q4.616 0 8.462-3.847 3.847-3.846 3.847-8.462v-291.538H150.256v291.538q0 4.616 3.847 8.462 3.846 3.847 8.462 3.847Zm154.099-63.54q37.977 0 64.323-26.497 26.346-26.497 26.346-64.474 0-37.977-26.497-64.323-26.497-26.346-64.474-26.346-37.977 0-64.323 26.497-26.346 26.497-26.346 64.474 0 37.977 26.497 64.323 26.497 26.346 64.474 26.346ZM150.256-504.358h509.488v-42.173q0-10.75 7.25-17.878 7.249-7.128 17.999-7.128t17.878 7.214q7.128 7.215 7.128 17.913v42.052h99.745v-133.077q0-4.616-3.847-8.462-3.846-3.847-8.462-3.847h-634.87q-4.616 0-8.462 3.847-3.847 3.846-3.847 8.462v133.077Zm0 354.102V-454.103v303.847Z"/></svg>