<svg xmlns="http://www.w3.org/2000/svg" height="40" viewBox="0 -960 960 960" width="40"><path d="M905.768-595.538q0 71.589-23.923 130.999t-65.871 108.82q-8.231 9.462-20.051 10.654-11.82 1.192-20.686-7.93-8.775-8.775-8.187-20.8.588-12.025 8.643-21.692 35.282-41.487 54.474-90.513 19.193-49.025 19.193-109.538 0-60.77-19.193-109.59-19.192-48.821-54.474-90.308-8.231-9.667-8.731-21.764-.5-12.098 8.469-21.076 8.723-8.723 20.517-7.761 11.795.961 20.026 10.679 41.948 49.41 65.871 108.82 23.923 59.41 23.923 131Zm-193.744 0q0 28.618-9.025 54.667-9.026 26.05-25.077 48.639-6.82 9.41-18.217 10.244-11.397.833-20.263-8.289-8.775-8.775-9.416-20.172t6.026-21.884q8.743-13.385 13.948-29.407 5.206-16.023 5.206-33.798 0-18.488-5.279-34.303-5.28-15.815-13.875-29.364-6.667-10.231-6.026-21.654.641-11.422 9.416-20.197 8.866-8.866 20.263-8.161 11.397.705 18.217 10.372 16.132 22.434 25.117 48.216 8.985 25.783 8.985 55.091ZM354.23-460.412q-57.749 0-96.438-38.688-38.688-38.689-38.688-96.438 0-58.006 38.688-96.567 38.689-38.56 96.438-38.56 57.75 0 96.438 38.56 38.689 38.561 38.689 96.567 0 57.749-38.689 96.438-38.688 38.688-96.438 38.688ZM54.232-206.411v-29.231q0-32.615 16.41-55.91 16.41-23.294 44.102-37.012 49.846-24.846 114.308-40.961 64.461-16.116 125.178-16.116 60.718 0 124.846 16.116 64.128 16.115 114.23 40.961 27.692 13.718 44.308 37.012 16.615 23.295 16.615 55.91v29.231q0 21.255-14.884 36.14-14.884 14.884-36.14 14.884H105.256q-21.256 0-36.14-14.884-14.884-14.885-14.884-36.14Zm50.255.769h499.487v-30q0-16-8.91-28-8.911-12-23.603-20.052-42.462-22.974-101.193-37.333-58.73-14.359-116.038-14.359-57.307 0-116.243 14.769-58.936 14.769-101.397 36.923-13.872 6.975-22.988 19.513-9.115 12.539-9.115 28.539v30ZM354.23-510.667q35.975 0 60.423-24.448 24.449-24.449 24.449-60.423 0-35.975-24.449-60.424-24.448-24.448-60.423-24.448-35.974 0-60.423 24.448-24.448 24.449-24.448 60.424 0 35.974 24.448 60.423 24.449 24.448 60.423 24.448Zm0-84.871Zm0 389.896Z"/></svg>