<svg xmlns="http://www.w3.org/2000/svg" height="40" viewBox="0 -960 960 960" width="40"><path d="M481.539-180.001q-124.958 0-212.479-87.503-87.52-87.503-87.52-212.435t87.52-212.496q87.521-87.564 212.479-87.564 78 0 141.025 34.167 63.026 34.167 105.641 94.398v-103.437q0-10.852 7.142-17.99 7.141-7.138 17.999-7.138 10.858 0 17.986 7.138t7.128 17.99v175.486q0 13.467-8.907 22.374-8.907 8.907-22.375 8.907H571.693q-10.853 0-17.99-7.141-7.138-7.142-7.138-18t7.138-17.986q7.137-7.128 17.99-7.128h132.871q-34.589-59.82-92.359-95.602-57.769-35.783-130.666-35.783-104.462 0-177.103 72.641T231.795-480q0 104.462 72.641 177.103t177.103 72.641q73.118 0 135.187-39.052 62.069-39.051 92.582-104.59 4.205-9.436 13.756-13.782t19.117-.5q10.331 3.846 13.728 13.897 3.398 10.051-.807 19.897-36.333 79.59-110.027 126.987-73.694 47.398-163.536 47.398Z"/></svg>