<svg xmlns="http://www.w3.org/2000/svg" height="40" viewBox="0 -960 960 960" width="40"><path d="m237.127-221.027 66.719 66.719q7.436 7.483 7.32 17.523-.115 10.041-7.477 17.921-7.857 7.879-17.939 8.128-10.083.248-17.903-7.573L161.924-224.231q-4.948-4.949-7.051-10.354-2.102-5.405-2.102-11.692 0-6.288 2.102-11.569 2.103-5.283 7.051-10.231L267.847-374q7.514-7.436 17.847-7.32 10.332.115 18.152 7.972 7.329 7.857 7.575 17.692.245 9.835-7.575 17.655l-66.719 66.719h446.462q5.385 0 8.847-3.462 3.462-3.461 3.462-8.846v-122.564q0-10.699 7.249-17.913 7.25-7.215 18-7.215t17.878 7.215q7.128 7.214 7.128 17.913v122.564q0 25.705-18.429 44.134-18.43 18.429-44.135 18.429H237.127Zm485.746-467.691H276.411q-5.385 0-8.847 3.462-3.462 3.461-3.462 8.846v122.564q0 10.699-7.249 17.913-7.25 7.215-18 7.215t-17.878-7.215q-7.128-7.214-7.128-17.913V-676.41q0-25.705 18.429-44.134 18.43-18.429 44.135-18.429h446.462l-66.719-66.719q-7.436-7.483-7.32-17.523.115-10.041 7.477-17.921 7.857-7.879 17.939-8.128 10.083-.248 17.903 7.573l105.923 105.922q4.948 4.949 7.179 10.354 2.231 5.405 2.231 11.692 0 6.288-2.231 11.569-2.231 5.282-7.179 10.231L692.153-586q-7.514 7.436-17.847 7.32-10.332-.115-18.152-7.972-7.329-7.857-7.575-17.692-.245-9.835 7.575-17.655l66.719-66.719Z"/></svg>