<svg xmlns="http://www.w3.org/2000/svg" height="40" viewBox="0 -960 960 960" width="40"><path d="M376.155-140.001q-13.295 0-22.288-8.994-8.994-8.993-8.994-22.288v-48.718H162.565q-25.609 0-44.086-18.478-18.478-18.477-18.478-44.086v-474.87q0-25.609 18.478-44.086 18.477-18.478 44.086-18.478h634.87q25.609 0 44.086 18.478 18.478 18.477 18.478 44.086v115.437q0 10.679-7.263 17.903-7.263 7.224-18 7.224-10.736 0-17.864-7.224t-7.128-17.903v-115.437q0-5.385-3.462-8.847-3.462-3.462-8.847-3.462h-634.87q-5.385 0-8.847 3.462-3.462 3.462-3.462 8.847v474.87q0 5.385 3.462 8.847 3.462 3.462 8.847 3.462h634.87q5.385 0 8.847-3.462 3.462-3.462 3.462-8.847v-201.486q0-5.129-3.462-8.719t-8.847-3.59H476.101l73.898 73.745q7.231 7.231 7.423 17.5.193 10.269-7.423 17.627-7.358 7.616-17.563 7.616-10.205 0-17.564-7.616L402.129-499.564q-9.359-9.406-9.359-21.946 0-12.541 9.359-21.9l112.743-112.743q7.231-7.231 17.5-7.295 10.269-.064 17.627 7.295 7.616 7.615 7.616 17.691 0 10.077-7.616 17.692l-73.898 74.155h321.334q25.436 0 44 18.564t18.564 44v201.486q0 25.609-18.478 44.086-18.477 18.478-44.086 18.478H615.127v48.718q0 13.295-8.994 22.288-8.993 8.994-22.288 8.994h-207.69Zm128.972-381.486Z"/></svg>