<svg xmlns="http://www.w3.org/2000/svg" height="40" viewBox="0 -960 960 960" width="40"><path d="M513.334-60.002q-18.487 0-31.038-12.55-12.551-12.551-12.551-31.038v-124.23q0-5.359.974-10.911.975-5.551 3.231-10.961l46.846-123.846q6.026-16.128 20.359-26.422 14.333-10.295 31.691-10.295h51.129v85.153l-36.974 36.974q-5.23 5.231-5.23 12.462 0 7.23 5.23 12.461 5.231 5.231 12.5 5.231t12.5-5.231l47.743-48v-163.923q0-10.872 7.128-18t18-7.128q10.871 0 17.999 7.128 7.128 7.128 7.128 18v163.923l47 47.615q4.974 5.231 12.538 5.231t12.795-5.231q5.231-5.23 5.231-12.576t-5.231-12.577l-36.948-36.949v-84.563h50.334q17.358 0 31.499 10.295 14.141 10.294 20.551 26.037l48.025 123.846q2.257 5.411 3.231 11.154.975 5.744.975 11.487v123.846q0 18.487-12.949 31.038-12.948 12.55-30.64 12.55h-84.616q-18.487 0-31.038-12.55-12.551-12.551-12.551-31.038v-118.411l-43.333-43.333-43.333 43.333v116.872q0 18.872-13.462 32-13.461 13.128-31.666 13.128h-83.077ZM280-375.87l-58.308-115.207q-3.436-6.025-9.154-10.038-5.718-4.012-12.538-4.012h-99.999v-212.308q0-25.846 18.359-44.205 18.359-18.359 44.205-18.359h634.87q25.846 0 44.205 18.359 18.359 18.359 18.359 44.205v239.487h-82.307v-12.308q-3.385-37.052-29.577-62.5-26.192-25.449-63.243-25.449t-63.244 25.449q-26.192 25.448-29.576 62.5v12.308l-42.078 2.18-87.667-175.309q-3.179-6.23-9.333-9.14T440-663.127q-6.82 0-13.166 2.91t-9.526 9.14L280-375.87ZM162.565-180.001q-25.846 0-44.205-18.359-18.359-18.359-18.359-44.205v-212.308h84.128l72.513 146.744q3.435 6.821 9.487 10.039 6.051 3.217 13.871 3.217 6.82 0 12.538-3.153 5.718-3.154 9.154-10.103L439.615-583.13l62.873 127.771q-15.154 10.436-26.82 25.039-11.667 14.602-18.795 32.32l-50.616 135.718q-2 5.41-3.102 10.987-1.103 5.577-1.103 10.987v60.307H162.565Z"/></svg>