<svg xmlns="http://www.w3.org/2000/svg" height="40" viewBox="0 -960 960 960" width="40"><path d="M202.565-140.001q-25.705 0-44.134-18.43-18.43-18.429-18.43-44.134V-600q0-91.538 64.231-155.768 64.23-64.231 155.768-64.231h240q91.538 0 155.768 64.231 64.231 64.23 64.231 155.768v397.435q0 25.705-18.43 44.134-18.429 18.43-44.134 18.43h-554.87Zm0-50.255h554.87q5.385 0 8.847-3.462 3.462-3.462 3.462-8.847V-600q0-70.519-49.613-120.131Q670.519-769.744 600-769.744H360q-70.519 0-120.131 49.613Q190.256-670.519 190.256-600v397.435q0 5.385 3.462 8.847 3.462 3.462 8.847 3.462Zm157.356-304.617q-27.177 0-46.113-19.015-18.935-19.015-18.935-46.191 0-27.177 19.015-46.113 19.015-18.935 46.191-18.935 27.177 0 46.113 19.015 18.935 19.015 18.935 46.191 0 27.177-19.015 46.113-19.015 18.935-46.191 18.935Zm240 0q-27.177 0-46.113-19.015-18.935-19.015-18.935-46.191 0-27.177 19.015-46.113 19.015-18.935 46.191-18.935 27.177 0 46.113 19.015 18.935 19.015 18.935 46.191 0 27.177-19.015 46.113-19.015 18.935-46.191 18.935ZM294.873-190.256v-92.308q0-25.705 18.429-44.134 18.429-18.429 44.134-18.429h245.128q25.705 0 44.134 18.429 18.429 18.429 18.429 44.134v92.308h-50.254v-92.308q0-5.385-3.462-8.847-3.462-3.462-8.847-3.462h-97.437v104.617h-50.254v-104.617h-97.437q-5.385 0-8.847 3.462-3.462 3.462-3.462 8.847v92.308h-50.254Zm-92.308 0h567.179-579.488 12.309Z"/></svg>