<svg xmlns="http://www.w3.org/2000/svg" height="40" viewBox="0 -960 960 960" width="40"><path d="M270.206-459.153q25.872-62.872 61.398-119.269 35.525-56.397 79.551-107.602l-66.616-13.282q-18.077-3.615-35.487 1.616-17.41 5.23-30 18.076L155.489-555.64q-11.564 11.564-8.59 28t18.333 22.59l104.974 45.897Zm540.741-375.973q-100.307-3.026-189.961 39.308-89.653 42.333-161.14 113.819-46 46-81.333 98.744-35.333 52.743-60.487 112.409-4.333 10.359-4.333 21.141 0 10.782 8.154 18.679l118.717 118.333q7.897 8.154 18.487 8.346 10.589.192 20.948-4.141 59.667-24.359 112.41-60.282 52.743-35.923 98.743-81.923 71.487-71.486 114.025-161.14 42.538-89.653 39.513-189.96-.41-6.154-3.026-11.974-2.615-5.821-7.564-10.77-4.948-4.948-10.641-7.435-5.692-2.487-12.512-3.154ZM572.769-563.615q-18.821-18.82-18.821-46.192 0-27.371 18.821-46.192 18.82-18.82 46.191-18.82 27.372 0 46.192 18.82 18.82 18.821 18.82 46.192 0 27.372-18.82 46.192t-46.192 18.82q-27.371 0-46.191-18.82Zm-104.18 302.562 45.23 104.974q6.154 15.769 22.795 18.641 16.641 2.872 28.205-8.692l123.563-123.564q12.847-12.846 18.077-30.422 5.231-17.577 1.616-35.654l-12.667-66.231q-51.154 44.025-107.576 79.551-56.423 35.525-119.243 61.397Zm-284.664-55.024q29.23-29.23 70.96-29.345 41.73-.116 70.961 29.115 29.23 29.23 29.23 70.96 0 41.73-29.23 70.961-40.692 40.691-95.999 49.499-55.307 8.808-111.306 15.5 6.692-56.384 16-111.499 9.307-55.114 49.384-95.191Z"/></svg>