<svg xmlns="http://www.w3.org/2000/svg" height="40" viewBox="0 -960 960 960" width="40"><path d="m734.565-450.255-541.128-206q-10-3.73-14.333-13.059-4.333-9.329-.538-19.145 3.795-10.282 13.256-15.128t19.999-.795l551.87 210.23q30.308 11.847 43.308 33.924 13 22.077 13 52.538v165.125q0 25.788-18.388 44.176t-44.176 18.388h-554.87q-25.788 0-44.176-18.388t-18.388-44.176v-145.126q0-25.789 18.388-44.176 18.388-18.388 44.176-18.388h532ZM418.461-290.001h266.411q10.846 0 17.986-7.146 7.141-7.146 7.141-17.999 0-10.854-7.141-17.982-7.14-7.128-17.986-7.128H418.461q-10.846 0-17.987 7.146-7.14 7.146-7.14 18 0 10.853 7.14 17.981 7.141 7.128 17.987 7.128Zm-143.301 5.385q13.148 0 21.814-8.698 8.667-8.698 8.667-21.846t-8.698-21.814q-8.698-8.667-21.846-8.667t-21.815 8.698q-8.666 8.698-8.666 21.846t8.698 21.815q8.698 8.666 21.846 8.666Z"/></svg>