<svg xmlns="http://www.w3.org/2000/svg" height="40" viewBox="0 -960 960 960" width="40"><path d="M480-272.719q53.186 0 98.477-24.551 45.291-24.551 73.689-67.423 5.936-10.923-.026-21.422-5.961-10.5-18.551-10.5H326.411q-12.59 0-18.551 10.5-5.962 10.499-.026 21.422 28.398 42.872 73.82 67.423 45.422 24.551 98.346 24.551ZM351.538-579.078l28.975 28.975q6.41 6.41 15.09 6.603 8.679.192 15.474-6.603 6.794-6.795 6.82-15.282.026-8.487-6.82-15.281l-37.616-37.821q-9.282-9.359-21.858-9.359-12.577 0-21.936 9.359l-37.821 37.821q-6.41 6.41-6.602 15.089-.192 8.679 6.716 15.587 6.476 6.477 15.066 6.579 8.589.103 15.384-6.487l29.128-29.18Zm257.334 0L638-549.898q6.667 6.205 15.218 6.398 8.551.192 15.346-6.603t6.795-15.282q0-8.487-6.795-15.281L631-618.487q-9.539-9.359-22.115-9.359-12.577 0-21.936 9.359l-37.821 37.821q-6.204 6.41-6.397 15.089-.192 8.679 6.603 15.474 6.794 6.795 15.281 6.795 8.487 0 15.282-6.795l28.975-28.975ZM480.067-100.001q-78.836 0-148.204-29.92-69.369-29.92-120.682-81.21-51.314-51.291-81.247-120.629-29.933-69.337-29.933-148.173t29.92-148.204q29.92-69.369 81.21-120.682 51.291-51.314 120.629-81.247 69.337-29.933 148.173-29.933t148.204 29.92q69.369 29.92 120.682 81.21 51.314 51.291 81.247 120.629 29.933 69.337 29.933 148.173t-29.92 148.204q-29.92 69.369-81.21 120.682-51.291 51.314-120.629 81.247-69.337 29.933-148.173 29.933Z"/></svg>