<svg xmlns="http://www.w3.org/2000/svg" height="40" viewBox="0 -960 960 960" width="40"><path d="M396.36-100.001 379.232-220.77q-19.051-6.462-40.475-18.59-21.423-12.129-37.295-25.77l-112.179 49.846-84.05-147.536 99.922-74.179q-1.795-10-2.577-21.308t-.782-21.308q0-9.616.782-20.86.782-11.243 2.577-22.526l-99.922-74.435 84.05-146.511 111.794 49.205q17.026-13.769 37.783-25.705 20.756-11.937 39.988-18.116l17.512-121.436h167.28l17.128 121.154q20.718 7.615 40.295 18.577 19.578 10.962 36.321 25.526l113.59-49.205 83.793 146.511-101.461 74.512q2.564 11.18 3.09 22.039.526 10.859.526 20.885 0 9.641-.718 20.295-.718 10.654-3.103 22.731l100.948 74.154-84.05 147.536-112.615-50.231q-17.41 14.411-37 26.296t-39.616 18.064L563.64-100.001H396.36ZM480-345.258q10.871 0 17.999-7.128 7.128-7.128 7.128-17.999 0-10.872-7.128-18T480-395.513q-10.871 0-17.999 7.128-7.128 7.128-7.128 18 0 10.871 7.128 17.999 7.128 7.128 17.999 7.128ZM454.873-440h50.254v-189.999h-50.254V-440Z"/></svg>