<svg xmlns="http://www.w3.org/2000/svg" height="40" viewBox="0 -960 960 960" width="40"><path d="M480-105.155q-5.624 0-10.834-1-5.211-1-10.046-3-128.683-45.821-203.901-160.526-75.218-114.704-75.218-249.818v-183.423q0-20.002 11.333-36.003 11.332-16.002 29.308-23.202l237.435-88.384q11.359-4.205 21.923-4.205 10.564 0 21.923 4.205l237.435 88.384q17.976 7.2 29.308 23.202 11.333 16.001 11.333 36.003v183.423q0 135.114-75.218 249.818-75.218 114.705-203.901 160.526-4.835 2-10.046 3-5.21 1-10.834 1Zm0-48.691q109.282-35.308 179.513-137.487 70.231-102.18 70.231-228.052v-183.922q0-3.847-2.116-6.924-2.115-3.077-5.962-4.615l-237.435-89.051q-1.923-.77-4.231-.77t-4.231.77l-237.435 89.051q-3.847 1.538-5.962 4.615-2.116 3.077-2.116 6.924v183.922q0 125.872 70.231 228.052Q370.718-189.154 480-153.846Zm0-325.385Z"/></svg>