<svg xmlns="http://www.w3.org/2000/svg" height="40" viewBox="0 -960 960 960" width="40"><path d="M506.204-394.511v-164.412q0-10.698-7.249-17.913t-18-7.215q-10.75 0-17.878 7.215t-7.128 17.913v164.412l-65.642-64.668q-7.615-7.231-17.604-7.423-9.99-.192-17.779 7.628-7.616 7.359-7.616 17.769 0 10.41 7.616 18.025l104.23 104.64q9.336 9.359 21.783 9.359 12.447 0 22.063-9.359l104.641-104.64q7.23-7.231 7.397-17.731.166-10.499-7.397-18.063-7.487-7.231-17.859-7.333-10.371-.103-18.192 7.128l-65.386 64.668Zm-263.639 294.51q-25.788 0-44.176-18.388t-18.388-44.176v-443.512q0-12.86 5.077-24.442 5.077-11.583 13.693-20.198l190.512-190.769q8.615-8.359 20.198-13.436 11.582-5.077 24.442-5.077h283.512q25.788 0 44.176 18.388t18.388 44.176v634.87q0 25.788-18.388 44.176t-44.176 18.388h-474.87Zm0-50.255h474.87q4.616 0 8.462-3.847 3.847-3.846 3.847-8.462v-634.87q0-4.616-3.847-8.462-3.846-3.847-8.462-3.847h-287.23L230.256-609.837v447.272q0 4.616 3.847 8.462 3.846 3.847 8.462 3.847Zm0 0h-12.309 499.488H242.565Z"/></svg>