<svg xmlns="http://www.w3.org/2000/svg" height="40" viewBox="0 -960 960 960" width="40"><path d="M613.229-466.436q7.154-4.949 7.154-13.564t-7.154-13.564L415.205-620.486q-8.153-5.154-16.14-.795-7.988 4.359-7.988 13.974v254.614q0 9.615 7.988 13.974 7.987 4.359 16.14-.795l198.024-126.922ZM202.565-140.001q-25.846 0-44.205-18.359-18.359-18.359-18.359-44.205v-554.87q0-25.846 18.359-44.205 18.359-18.359 44.205-18.359h554.87q25.846 0 44.205 18.359 18.359 18.359 18.359 44.205v554.87q0 25.846-18.359 44.205-18.359 18.359-44.205 18.359h-554.87Z"/></svg>