<svg xmlns="http://www.w3.org/2000/svg" height="40" viewBox="0 -960 960 960" width="40"><path d="M167.437-180.001q-27.913 0-47.674-19.762-19.762-19.761-19.762-47.674V-647.18q0-10.698 7.25-17.913 7.249-7.214 17.999-7.214t17.878 7.214q7.128 7.215 7.128 17.913v404.615q0 5.385 3.462 8.847 3.462 3.462 8.847 3.462h532.308q10.698 0 17.912 7.249 7.215 7.25 7.215 18t-7.215 17.878q-7.214 7.128-17.912 7.128H167.437ZM307.435-320q-27.913 0-47.674-19.761T240-387.435v-325.128q0-27.913 19.761-47.674 19.761-19.762 47.674-19.762H619.64l-50.255 50.255H302.564q-5.386 0-8.847 3.462-3.462 3.462-3.462 8.847v334.871q0 5.386 3.462 8.847 3.461 3.462 8.847 3.462h494.871q5.385 0 8.847-3.462 3.462-3.461 3.462-8.847v-266.821l50.255-50.255v312.205q0 27.913-19.762 47.674Q820.476-320 792.563-320H307.435Zm221.978-171q-14.26 0-27.529-4.654t-23.499-14.474q-3.436-3.846-2.769-7.833.666-3.988 5.201-5.218 9.67-1.846 15.901-9.205t6.231-17.59q0-18.311 12.965-30.976 12.964-12.664 31.43-12.664 18.296 0 31.116 12.919t12.82 30.935q0 24.735-18.282 41.747Q554.717-491 529.413-491Zm107.175-96.64-49.743-49.999 174.74-173.321q4.633-4.884 11.165-4.884 6.531 0 11.406 4.874l26.814 26.814q4.874 4.875 4.874 11.406 0 6.532-4.884 11.174L636.588-587.64Z"/></svg>