<svg xmlns="http://www.w3.org/2000/svg" height="40" viewBox="0 -960 960 960" width="40"><path d="M416.411-297.694q-25.705 0-44.135-18.429-18.429-18.429-18.429-44.134v-239.486q0-25.705 18.429-44.134 18.43-18.429 44.135-18.429h127.178q25.705 0 44.135 18.429 18.429 18.429 18.429 44.134v239.486q0 25.705-18.429 44.134-18.43 18.429-44.135 18.429H416.411Zm-201.282 0H90.514q-10.698 0-17.913-7.249-7.215-7.25-7.215-18t7.215-17.878q7.215-7.128 17.913-7.128h124.615q5.385 0 8.846-3.461 3.462-3.462 3.462-8.847v-82.307q0-5.385-3.462-8.847-3.461-3.462-8.846-3.462H127.95q-25.705 0-44.134-18.429-18.43-18.429-18.43-44.134v-82.307q0-25.705 18.43-44.134 18.429-18.429 44.134-18.429h124.615q10.698 0 17.913 7.249 7.214 7.25 7.214 18t-7.214 17.878q-7.215 7.127-17.913 7.127H127.95q-5.385 0-8.847 3.462-3.462 3.462-3.462 8.847v82.307q0 5.385 3.462 8.847 3.462 3.462 8.847 3.462h87.179q25.704 0 44.134 18.429 18.429 18.429 18.429 44.134v82.307q0 25.705-18.429 44.134-18.43 18.429-44.134 18.429Zm616.921 0H707.435q-10.698 0-17.913-7.249-7.214-7.25-7.214-18t7.214-17.878q7.215-7.128 17.913-7.128H832.05q5.385 0 8.847-3.461 3.462-3.462 3.462-8.847v-82.307q0-5.385-3.462-8.847-3.462-3.462-8.847-3.462h-87.179q-25.704 0-44.134-18.429-18.429-18.429-18.429-44.134v-82.307q0-25.705 18.429-44.134 18.43-18.429 44.134-18.429h124.615q10.698 0 17.913 7.249 7.215 7.25 7.215 18t-7.215 17.878q-7.215 7.127-17.913 7.127H744.871q-5.385 0-8.846 3.462-3.462 3.462-3.462 8.847v82.307q0 5.385 3.462 8.847 3.461 3.462 8.846 3.462h87.179q25.705 0 44.134 18.429 18.43 18.429 18.43 44.134v82.307q0 25.705-18.43 44.134-18.429 18.429-44.134 18.429Zm-415.639-50.255h127.178q5.385 0 8.847-3.461 3.462-3.462 3.462-8.847v-239.486q0-5.385-3.462-8.847-3.462-3.462-8.847-3.462H416.411q-5.385 0-8.847 3.462-3.462 3.462-3.462 8.847v239.486q0 5.385 3.462 8.847 3.462 3.461 8.847 3.461Z"/></svg>