<svg xmlns="http://www.w3.org/2000/svg" height="40" viewBox="0 -960 960 960" width="40"><path d="M456.821-105.361q-63.82-11.564-126.384-42.756t-111.91-84.922q-49.346-53.731-79.705-131.128-30.358-77.397-30.358-182.242v-8.051q0-10.975 7.641-18.616 7.641-7.64 18.615-7.64h7.282q47.461 0 106.166 20.051 58.705 20.052 101.577 50.565 6.436-72.846 35.179-151.526 28.743-78.679 71.666-140.884 9.385-13.461 23.41-13.461t23.41 13.461q42.923 62.205 71.666 141.269 28.743 79.064 35.179 151.91 41.718-28.282 99.654-49.257 57.936-20.974 107.32-22.128l8.257-.385q10.794-.385 18.807 7.628 8.013 8.013 7.628 18.807l-.385 9.026q-2.692 94.845-29.012 168.588t-71.051 127.858q-44.73 54.115-104.986 89.346-60.256 35.231-130.23 52.564-12.18 3.154-29.718 3.667-17.538.513-29.718-1.744Zm33.744-46.485q-11-174.487-103.834-265.192-92.833-90.706-227.192-112.603h-.128.128Q171.359-350.077 266.988-260q95.628 90.077 223.577 108.154 1.333 1-.334.5-1.666-.5.334-.5Zm-91.95-325.281Q421-457.87 443.167-429.268q22.166 28.603 36.423 54.039 13.564-25.692 36.487-54.167Q539-457.87 561.385-477.127q2.154-63.795-20.782-132.821Q517.667-678.973 480-746.563q-.41-.411 0 .295.41.705 0-.295-38.077 68-60.808 136.423t-20.577 133.013Zm108.564 157.692q12 34.974 20.32 70.487 8.321 35.512 13.321 82.076 46.282-16.487 90.795-44.064 44.513-27.577 80.013-71 35.5-43.423 59.551-104.333 24.051-60.911 29.282-143.372 0-1.744 0 0 0 1.743 0 0-101.487 15.231-179.667 71.616-78.18 56.384-113.615 138.59Z"/></svg>