<svg xmlns="http://www.w3.org/2000/svg" height="40" viewBox="0 -960 960 960" width="40"><path d="M394.23-460.412q-57.749 0-96.438-38.688-38.688-38.689-38.688-96.438 0-58.006 38.688-96.567 38.689-38.56 96.438-38.56 57.75 0 96.438 38.56 38.689 38.561 38.689 96.567 0 57.749-38.689 96.438-38.688 38.688-96.438 38.688ZM94.232-206.411v-29.231q0-32.615 16.41-55.91 16.41-23.294 44.102-37.012 49.846-24.846 114.308-40.961 64.461-16.116 125.178-16.116 60.718 0 124.846 16.116 64.128 16.115 114.23 40.961 27.692 13.718 44.308 37.012 16.615 23.295 16.615 55.91v29.231q0 21.255-14.884 36.14-14.884 14.884-36.14 14.884H145.256q-21.256 0-36.14-14.884-14.884-14.885-14.884-36.14Zm811.781-332.001q-6.423 0-11.099-2.602-4.676-2.603-8.426-6.731-23.263-24.82-35.862-55.589t-12.599-64.358q0-33.743 13.141-65.32 13.14-31.577 36.807-56.064 3.35-3.365 7.914-5.426 4.564-2.06 9.76-2.06 10.889 0 18.017 7.145t7.128 17.818q0 5.215-2.064 9.882-2.064 4.666-5.372 8.384-17.193 17.219-26.135 39.802-8.941 22.582-8.941 46.454 0 24.128 9.48 46.172 9.48 22.044 25.596 39.674 3.718 3.76 5.577 8.248 1.859 4.487 1.859 9.016 0 11.299-7.361 18.427t-17.42 7.128ZM771.345-403.18q-5.346 0-10.227-2.27-4.881-2.269-8.631-5.987-50.154-52.051-77.82-117.91Q647-595.205 647-667.487q0-72.282 28.205-138.448 28.205-66.167 78.769-118.218 3.761-3.776 8.12-5.503 4.358-1.728 9.298-1.728 10.889 0 18.35 7.156 7.462 7.156 7.462 18.036 0 4.936-1.821 9.73-1.82 4.795-5.615 8.513-43.077 44.974-67.795 101.603-24.718 56.628-24.718 118.898 0 62.27 24.385 119.167 24.384 56.897 67.461 101.871 3.718 3.761 5.577 8.248 1.859 4.487 1.859 9.427 0 10.888-7.156 18.221-7.156 7.334-18.036 7.334Z"/></svg>