<svg xmlns="http://www.w3.org/2000/svg" height="40" viewBox="0 -960 960 960" width="40"><path d="M164.308-220.001q-34.631 0-53.815-23.897-19.184-23.897-14.133-59.999l45.744-319.487q7.168-49.001 44.545-82.808 37.377-33.807 86.684-33.807h414q49.051 0 86.428 33.807 37.378 33.807 44.802 82.808l45.077 319.487q5.051 36.102-14.133 59.999-19.184 23.897-53.558 23.897-18.231 0-31.628-5.77-13.397-5.769-23.807-16.179L637.59-344.873H322.41L219.486-241.95q-10.41 10.41-23.807 16.179-13.397 5.77-31.371 5.77Zm525.436-223.845q14.666 0 25.41-10.744 10.743-10.743 10.743-25.41t-10.743-25.41q-10.744-10.744-25.41-10.744-14.667 0-25.41 10.744Q653.59-494.667 653.59-480t10.744 25.41q10.743 10.744 25.41 10.744Zm-82.308-124.872q14.41 0 25.282-10.744 10.871-10.743 10.871-25.41 0-14.666-10.871-25.41-10.872-10.743-25.282-10.743-14.667 0-25.41 10.743-10.744 10.744-10.744 25.41 0 14.667 10.744 25.41 10.743 10.744 25.41 10.744Zm-296.41 47.692v48.975q.256 9.999 6.795 16.666 6.538 6.667 16.538 7.179 10-.179 16.372-6.756 6.371-6.577 6.192-16.577l-2.821-49.231h48.975q10-.256 16.666-6.795 6.667-6.538 7.18-16.538.077-10-6.629-16.371-6.705-6.372-16.704-6.193l-48.975 2.821-.256-48.974q-.257-10-6.795-16.667-6.539-6.666-16.539-7.179-9.999-.077-16.371 6.628-6.372 6.705-6.192 16.705l2.82 48.974-48.974.257q-10 .256-16.667 6.795-6.666 6.538-7.179 16.538.179 10 6.756 16.371 6.577 6.372 16.577 6.193l49.231-2.821Z"/></svg>