<svg xmlns="http://www.w3.org/2000/svg" height="40" viewBox="0 -960 960 960" width="40"><path d="M859.999-199.694 439.694-619.999h357.741q25.705 0 44.134 18.43 18.43 18.429 18.43 44.134v357.741Zm-610.05-610.05-50.255-50.255h357.741q25.705 0 44.134 18.43 18.43 18.429 18.43 44.134v99.487h-50.255v-99.487q0-5-3.654-8.655-3.655-3.654-8.655-3.654H249.949Zm152.616 709.743q-26.538 0-44.551-18.013t-18.013-44.551v-385.436L150.256-737.746v347.49h111.796v50.255h-99.487q-26.538 0-44.551-18.013t-18.013-44.551v-385.436l-18.14-18.271q-7.602-7.489-7.487-17.852.115-10.362 7.97-18.183 7.856-7.82 18-7.82t17.965 7.82l723.998 724.614q7.435 7.435 7.628 17.499.192 10.064-7.663 17.884-7.856 7.82-18 7.82t-18.013-7.82L788.001-100H402.565Z"/></svg>