<svg xmlns="http://www.w3.org/2000/svg" height="40" viewBox="0 -960 960 960" width="40"><path d="M167.643-714.205v-89.846q0-8.615 7.385-13.166 7.384-4.551 15.538-.603l88.846 44.923q8.615 5 8.615 13.769t-8.615 13.513l-88.846 44.923q-8.154 4.205-15.538-.475-7.385-4.679-7.385-13.038Zm524.612 0v-89.846q0-8.615 7.385-13.166 7.384-4.551 15.538-.603l88.846 44.923q8.615 5 8.615 13.769t-8.615 13.513l-88.846 44.923q-8.154 4.205-15.538-.475-7.385-4.679-7.385-13.038ZM447.59-749.23v-89.846q0-8.359 7.385-13.038 7.384-4.68 15.538-.731l88.846 44.923q8.359 5 8.359 13.769t-8.359 13.512l-88.846 44.923q-8.154 4.205-15.538-.474-7.385-4.679-7.385-13.038ZM349.693-99.232q-103.616-9.82-177.808-37.525-74.191-27.705-74.191-67.089v-344.615q0-23.076 29.384-42.846 29.385-19.769 80.692-34.73 51.308-14.962 121.23-23.692 69.923-8.731 151-8.731t151 8.731q69.922 8.73 121.23 23.692 51.307 14.961 80.692 34.73 29.384 19.77 29.384 42.846v344.615q0 39.999-74.435 67.499-74.436 27.5-178.179 37.064-9.923 1-17.244-5.692-7.321-6.693-7.321-16.872v-56.872q0-43.871-30.628-74.499-30.628-30.628-74.499-30.628-43.871 0-74.499 30.628-30.628 30.628-30.628 74.499v55.872q0 10.384-7.526 17.372-7.526 6.987-17.654 6.243ZM480-488.716q98.154 0 179.167-15.103 81.014-15.103 138.014-42.257-17.77-22.411-101.168-42.27Q612.616-608.205 480-608.205q-132.616 0-216.013 19.859-83.398 19.859-101.168 42.27 57 27.154 133.59 42.257 76.59 15.103 183.591 15.103Z"/></svg>