<svg xmlns="http://www.w3.org/2000/svg" height="40" viewBox="0 -960 960 960" width="40"><path d="M193.59-789.999h573.897q10.68 0 17.904 7.263t7.224 17.999q0 10.737-7.224 17.865-7.224 7.128-17.904 7.128H193.59q-10.68 0-17.904-7.263t-7.224-18q0-10.736 7.224-17.864t17.904-7.128Zm10.257 619.998q-13.295 0-22.289-8.993-8.993-8.994-8.993-22.288v-217.385h-21.308q-14.862 0-24.239-11.71-9.376-11.71-6.043-26.367l41.897-188.512q2.324-10.998 11.155-17.871 8.831-6.872 19.512-6.872h573.332q10.681 0 19.512 6.872 8.831 6.873 11.155 17.871l41.897 188.512q3.59 14.769-5.974 26.423-9.565 11.654-24.307 11.654h-21.052v223.539q0 10.679-7.263 17.903-7.263 7.224-18 7.224-10.736 0-17.864-7.224t-7.128-17.903v-223.539H543.64v217.385q0 13.294-8.993 22.288-8.994 8.993-22.288 8.993H203.847Zm18.973-50.255h270.565v-198.411H222.82v198.411Zm-49.334-248.666h613.438-613.438Zm0 0h613.438l-33.923-150.822H207.41l-33.924 150.822Z"/></svg>