<svg xmlns="http://www.w3.org/2000/svg" height="40" viewBox="0 -960 960 960" width="40"><path d="M207.437-215.77q-11.66 0-19.548-7.807-7.888-7.806-7.888-19.345 0-11.54 7.888-19.437 7.888-7.897 19.548-7.897h300.665q10.679 0 17.903 7.369 7.224 7.37 7.224 18.264 0 10.731-7.214 17.869-7.215 7.137-17.529 7.137l-301.049 3.847Zm-2.308-161.077q-10.679 0-17.903-7.263-7.225-7.263-7.225-18 0-10.736 7.225-17.864 7.224-7.128 17.903-7.128h549.742q10.679 0 17.903 7.263 7.225 7.263 7.225 17.999 0 10.737-7.225 17.865-7.224 7.128-17.903 7.128H205.129Zm0-156.051q-10.679 0-17.903-7.263-7.225-7.263-7.225-17.999 0-10.737 7.225-17.865 7.224-7.128 17.903-7.128h549.742q10.679 0 17.903 7.263 7.225 7.263 7.225 18 0 10.736-7.225 17.864-7.224 7.128-17.903 7.128H205.129Zm2.308-156.846q-11.66 0-19.548-7.922-7.888-7.923-7.888-19.634 0-11.712 7.888-19.513 7.888-7.801 19.548-7.801h545.126q11.66 0 19.548 7.922 7.888 7.923 7.888 19.635 0 11.711-7.888 19.512t-19.548 7.801H207.437Z"/></svg>