<svg xmlns="http://www.w3.org/2000/svg" height="40" viewBox="0 -960 960 960" width="40"><path d="M589.999-290.001q-75.923 0-126.82-47.936-50.897-47.936-62.205-116.936H195.845l68.616 68.617q7.231 7.231 7.423 17.464.193 10.233-7.711 17.747-7.532 7.531-17.608 7.531-10.077 0-17.692-7.615L122.057-457.944q-5.081-5.082-7.184-10.504-2.102-5.422-2.102-11.692 0-6.27 2.102-11.552 2.103-5.282 7.184-10.364l106.816-106.815q7.23-7.231 17.63-7.423 10.4-.193 17.859 7.078 7.715 7.909 7.715 17.949 0 10.041-7.821 17.728l-68.411 68.412h205.129q11.308-69 62.205-116.936 50.897-47.936 126.82-47.936 78.85 0 134.425 55.558 55.575 55.558 55.575 134.384t-55.575 134.441q-55.575 55.615-134.425 55.615Zm-.111-50.255q58.394 0 99.125-40.619t40.731-99.013q0-58.394-40.62-99.125-40.619-40.731-99.013-40.731-58.394 0-99.125 40.619t-40.731 99.013q0 58.394 40.619 99.125 40.62 40.731 99.014 40.731ZM589.999-480Z"/></svg>