<svg xmlns="http://www.w3.org/2000/svg" height="40" viewBox="0 -960 960 960" width="40"><path d="M192.72-137.565q-60.487-73.179-95.834-159.897Q61.54-384.18 61.54-479.615q0-95.564 35.346-182.218 35.347-86.654 95.834-160.218h-73.745q-7.999 0-13.486-5.487-5.488-5.487-5.488-13.487 0-7.999 5.488-13.486 5.487-5.488 13.486-5.488h121.923q13.564 0 22.423 8.859 8.859 8.859 8.859 22.423v122.692q0 7.615-5.295 13.102t-13.295 5.487q-7.615 0-13.294-5.679-5.68-5.679-5.68-13.295v-106.051q-61.769 70.846-98.641 155.012-36.872 84.167-36.872 177.834 0 93.282 36.872 177.256t98.641 154.436V-253.59q0-7.616 5.68-13.103 5.679-5.487 13.294-5.487 7.616 0 13.103 5.487t5.487 13.103v122.307q0 13.564-8.859 22.423-8.859 8.859-22.423 8.859H118.591q-7.615 0-13.102-5.68-5.488-5.679-5.488-13.294 0-7.616 5.68-13.103 5.679-5.487 13.294-5.487h73.745Zm456.254-9.411q-19.205 7.231-40.102 6.526-20.897-.705-40.154-10.141L331.872-260.155q-9.743-4.769-13.654-14.667-3.91-9.897.039-20.051l.154-1.384q5.512-14.974 17.576-24.192t28.243-10.833l106.104-10.077-115.718-316.052q-4.051-10.256.603-19.204 4.654-8.949 14.91-12.743 9.999-4.052 19.153.474 9.154 4.525 13.205 14.782l99.026 272.205 65.437-23.59-47.257-131.411q-4.051-10.257-1.398-24.077 2.654-13.82 12.91-17.871 10-4.051 18.948.602 8.949 4.654 13 14.654l51.257 141.027 64.821-24.232-37.256-103.155q-4.052-10.256.474-19.217 4.525-8.961 14.782-13.012 10.256-3.795 19.204.538 8.949 4.333 12.743 14.589l37.924 103.181 65.437-23.59-10.667-28.027q-4.051-10.256.282-19.282 4.333-9.025 14.589-13.076t19.41.282q9.153 4.333 13.205 14.589l57.718 159.334q21.846 59.153-4.116 114.999-25.961 55.846-85.115 77.307l-148.871 54.359Z"/></svg>