<svg xmlns="http://www.w3.org/2000/svg" height="40" viewBox="0 -960 960 960" width="40"><path d="M480-285.693q-12.384 0-21.448-9.064t-9.064-21.448q0-12.385 9.064-21.449 9.064-9.064 21.448-9.064t21.448 9.064q9.064 9.064 9.064 21.449 0 12.384-9.064 21.448T480-285.693Zm.946-144.819q-10.741 0-17.869-7.221t-7.128-17.907v-188.822q0-10.685 7.259-17.906 7.258-7.221 17.999-7.221t17.869 7.221q7.128 7.221 7.128 17.906v188.822q0 10.686-7.258 17.907t-18 7.221Zm-287.664-46.462q0 62.098 26.59 114.524 26.59 52.425 90.129 101.118v-97.129q0-10.686 7.259-17.907 7.258-7.221 17.999-7.221 10.485 0 17.741 7.221t7.256 17.907v154.101q0 13.302-9.118 22.292-9.119 8.99-22.163 8.99H174.873q-10.686 0-17.907-7.258-7.221-7.259-7.221-18t7.221-17.869q7.221-7.128 17.907-7.128h101.334q-67.744-55.129-100.462-115.616t-32.718-138.164q0-88.605 46.308-164.156 46.307-75.551 126.794-115.474 9.436-4.59 18.846-.859t12.923 13.32q3.769 9.846-.096 19.51-3.864 9.663-12.93 14.233-62.82 32.179-102.205 94.806-39.385 62.626-39.385 138.759Zm578.308-6.052q0-62.098-26.59-114.524-26.59-52.425-89.873-101.118v97.129q0 10.686-7.387 17.907-7.386 7.221-17.871 7.221-10.741 0-17.869-7.221t-7.128-17.907V-755.64q0-13.302 8.99-22.292 8.991-8.99 22.292-8.99h154.102q10.429 0 17.778 7.258 7.349 7.259 7.349 18t-7.349 17.869q-7.349 7.128-17.778 7.128H688.664q67.745 55.129 100.463 115.616 32.718 60.487 32.718 138.164 0 88.605-46.356 164.405-46.355 75.8-126.746 115.84-9.436 4.59-18.846.552-9.41-4.039-12.923-13.628-3.769-9.846.096-19.51 3.864-9.663 13.186-14.233 62.564-32.179 101.949-94.806 39.385-62.626 39.385-138.759Z"/></svg>