<svg xmlns="http://www.w3.org/2000/svg" height="40" viewBox="0 -960 960 960" width="40"><path d="M619.218-534.052q20.423 0 34.833-14.5 14.41-14.501 14.41-34.923 0-20.422-14.501-34.832t-34.923-14.41q-20.422 0-34.832 14.5-14.41 14.501-14.41 34.923 0 20.422 14.501 34.832 14.5 14.41 34.922 14.41Zm-278.255 0q20.422 0 34.832-14.5 14.41-14.501 14.41-34.923 0-20.422-14.501-34.832-14.5-14.41-34.922-14.41-20.423 0-34.833 14.5-14.41 14.501-14.41 34.923 0 20.422 14.501 34.832 14.5 14.41 34.923 14.41Zm139.104 434.051q-78.836 0-148.204-29.92-69.369-29.92-120.682-81.21-51.314-51.291-81.247-120.629-29.933-69.337-29.933-148.173t29.92-148.204q29.92-69.369 81.21-120.682 51.291-51.314 120.629-81.247 69.337-29.933 148.173-29.933t148.204 29.92q69.369 29.92 120.682 81.21 51.314 51.291 81.247 120.629 29.933 69.337 29.933 148.173t-29.92 148.204q-29.92 69.369-81.21 120.682-51.291 51.314-120.629 81.247-69.337 29.933-148.173 29.933Zm-.397-172.718q53.516 0 98.807-24.551 45.291-24.551 73.689-67.689 5.936-10.657-.192-21.156-6.129-10.5-18.385-10.5H326.356q-12.535 0-18.496 10.5-5.962 10.499-.026 21.156 28.398 43.138 73.82 67.689 45.422 24.551 98.016 24.551Z"/></svg>