<svg xmlns="http://www.w3.org/2000/svg" height="40" viewBox="0 -960 960 960" width="40"><path d="M319.744-230.256h320.922q5 0 8.462-3.27 3.462-3.269 3.846-8.27l21.667-289.23H285.564l21.872 289.23q.128 5.001 3.718 8.27 3.59 3.27 8.59 3.27Zm-37.821-351.025h396.103l5.615-74.309-116.564-114.154H392.923L276.359-655.59l5.564 74.309Zm-47.434 45.845L110.744-658.693q-6.82-7.231-6.82-17.307 0-10.077 6.846-17.692 7.23-7.615 17.704-8 10.474-.385 18.09 7.231l83.335 81.848-2.615-33.258q-1.052-13.41 3.653-25.333 4.705-11.923 14.116-21.334l107.614-108.948q8.616-8.359 20.346-13.436 11.731-5.077 24.295-5.077h165.384q12.564 0 24.295 5.077 11.73 5.077 20.346 13.436l107.614 108.948q9.411 9.411 13.988 21.308 4.576 11.897 3.781 25.308l-2.615 33.309 83.336-81.848q7.615-7.616 18.089-7.231 10.474.385 17.704 8 6.846 7.615 6.846 17.692 0 10.076-6.82 17.307L725.511-535.436H234.489Zm405.767 355.435H319.744q-24.333 0-42.576-16.846-18.244-16.846-19.987-41.18l-22.692-297.409h491.022l-22.692 297.409q-1.743 24.334-19.987 41.18-18.243 16.846-42.576 16.846ZM480-581.281Zm.205 50.255Z"/></svg>