<svg xmlns="http://www.w3.org/2000/svg" height="40" viewBox="0 -960 960 960" width="40"><path d="M132.772-103.079q-13.545 0-23.158-9.617-9.613-9.617-9.613-23.356v-291.897q0-5.188.603-10.376t2.499-10.128l73.129-212.367q6.208-18.78 22.503-30.518t36.471-11.738h109.616v-36.102q0-13.295 8.993-22.288 8.994-8.994 22.289-8.994h93.178q-7.051 28.692-6.128 58.82.923 30.127 8.333 58.819H235.77q-3.975 0-7.18 2.116-3.205 2.115-4.744 5.962l-53.077 157.462h444.464q24.487 12.435 48.883 18.345 24.395 5.91 52.653 5.91 15.527 0 30.878-1.923 15.352-1.923 32.352-5.769v335.077q0 13.567-9.566 23.065-9.565 9.497-23.23 9.497-13.664 0-23.202-9.617-9.538-9.617-9.538-23.356v-48.924H165.537v49.335q0 13.567-9.556 23.065-9.557 9.497-23.209 9.497Zm17.484-333.947v201.795-201.795Zm101.572 150.769q21.023 0 35.648-14.501 14.626-14.5 14.626-35.051 0-21.105-14.67-35.648Q272.761-386 251.804-386q-20.958 0-35.201 14.588-14.244 14.587-14.244 35.628 0 21.04 14.501 35.284 14.501 14.243 34.968 14.243Zm376.616 0q21.022 0 35.648-14.501 14.626-14.5 14.626-35.051 0-21.105-14.671-35.648Q649.377-386 628.419-386q-20.957 0-35.2 14.588-14.244 14.587-14.244 35.628 0 21.04 14.501 35.284 14.5 14.243 34.968 14.243Zm88.566-254.718q-73.266 0-124.651-51.308-51.384-51.308-51.384-124.486 0-73.561 51.308-124.549t124.486-50.988q73.561 0 124.549 51.015t50.988 124.281q0 73.266-51.015 124.651-51.015 51.384-124.281 51.384Zm1.118-148.358q6.948 0 11.641-4.751 4.692-4.751 4.692-11.974v-98.813q0-6.82-4.692-11.512-4.693-4.693-11.641-4.693-6.949 0-11.846 4.693-4.898 4.692-4.898 11.512v99.204q0 7.206 4.898 11.77 4.897 4.564 11.846 4.564ZM150.256-235.231h579.488v-201.795H150.256v201.795Zm567.967-374.615q8.187 0 14.135-6.044 5.949-6.044 5.949-14.396t-6.044-14.135q-6.044-5.784-14.231-5.784-8.186 0-14.135 5.879t-5.949 14.231q0 8.351 6.044 14.3t14.231 5.949Z"/></svg>