<svg xmlns="http://www.w3.org/2000/svg" height="40" viewBox="0 -960 960 960" width="40"><path d="M90-140.256v-344.616q0-10.679 7.264-17.903 7.263-7.224 17.999-7.224 10.737 0 17.865 7.224 7.128 7.224 7.128 17.903v54.873h110.437l123.18-407.836v-47.037q0-10.679 7.262-17.903 7.263-7.224 18-7.224 10.736 0 17.864 7.224t7.128 17.903v54.873h110.746v-54.873q0-10.679 7.262-17.903 7.263-7.224 18-7.224 10.736 0 17.864 7.224t7.128 17.903v41.982l124.18 412.891h110.437v-54.873q0-10.679 7.263-17.903 7.263-7.224 18-7.224 10.736 0 17.864 7.224t7.128 17.903v344.616q0 20.519-14.868 35.387-14.868 14.868-35.387 14.868h-253.59q-13.294 0-22.288-8.993-8.993-8.994-8.993-22.288v-173.591H425.127v173.591q0 13.294-8.993 22.288-8.994 8.993-22.288 8.993h-253.59q-20.519 0-35.387-14.868-14.868-14.868-14.868-35.387Zm238.178-369.743h303.644l-33.129-109.745H361.307l-33.129 109.745Zm48-160h207.644l-33.129-109.745H409.307l-33.129 109.745ZM140.256-140.256h234.617v-154.617q0-20.518 14.868-35.386 14.868-14.868 35.386-14.868h109.746q20.518 0 35.386 14.868 14.868 14.868 14.868 35.386v154.617h234.617v-239.488H708.512q-16.261 0-29.885-9.938-13.624-9.938-18.806-26.061l-13.128-41.693-333.386-2.308-13.128 44.001q-5.182 16.123-18.806 26.061-13.624 9.938-29.885 9.938H140.256v239.488ZM480-457.436Z"/></svg>