<svg xmlns="http://www.w3.org/2000/svg" height="40" viewBox="0 -960 960 960" width="40"><path d="M174.975-140.001q-13.974-5.513-21.923-14.205-7.948-8.692-13.051-22.666l644.614-643.127q12.641 4.231 22.102 13.795t13.487 22.41L174.975-140.001Zm-34.974-268.18v-71.588l340.23-340.23h71.588L140.001-408.181Zm0-303.307v-45.947q0-25.846 18.359-44.205 18.359-18.359 44.205-18.359h45.947L140.001-711.488Zm571.487 571.487 108.511-108.511v45.947q0 25.846-18.359 44.205-18.359 18.359-44.205 18.359h-45.947Zm-303.307 0 411.818-411.818v71.588l-340.23 340.23h-71.588Z"/></svg>