<svg xmlns="http://www.w3.org/2000/svg" height="40" viewBox="0 -960 960 960" width="40"><path d="m623.794-544.924-36.462 93.565q-2.615 6.462-7.974 10.398-5.359 3.935-12.41 3.935-11.641 0-18-9.589-6.359-9.59-2.128-20.231L675.385-797.59q2.231-4.974 6.782-8.359 4.551-3.384 10.448-3.384h14.359q5.897 0 10.448 3.384 4.551 3.385 6.782 8.359l129.487 330.975q4.231 11.026-2.217 20.307-6.449 9.282-18.09 9.282-7.051 0-12.705-3.743-5.654-3.744-8.012-10.538l-36.719-93.617H623.794Zm14.103-39.691h123.795l-57.641-154.308h-9.129l-57.025 154.308ZM311.436-140.412q-71.538 0-121.435-49.897-49.897-49.897-49.897-121.435 0-44.922 22.487-84.332 22.488-39.411 62.385-64.487v-272.976q0-36.23 25.243-61.345 25.243-25.115 61.217-25.115 35.974 0 61.089 25.115 25.115 25.115 25.115 61.345v272.976q39.897 25.076 62.384 64.487 22.488 39.41 22.488 84.332 0 71.538-49.769 121.435-49.769 49.897-121.307 49.897ZM190.359-311.744h241.898q0-34.666-17.411-64.192-17.41-29.526-48.077-47.346l-19.384-11.436v-298.821q0-15.512-10.346-25.858-10.347-10.347-25.603-10.347-15.513 0-25.859 10.347-10.346 10.346-10.346 25.858v298.821l-19.128 11.436q-30.923 17.82-48.333 47.551-17.411 29.731-17.411 63.987Z"/></svg>