<svg xmlns="http://www.w3.org/2000/svg" height="40" viewBox="0 -960 960 960" width="40"><path d="M480-140.001q-71.225 0-121.278-50.054-50.054-50.054-50.054-121.278 0-46.169 22.872-85.354 22.872-39.184 62-63.876v-272.976q0-36.452 25.086-61.456 25.087-25.004 61.217-25.004 36.131 0 61.374 25.004 25.243 25.004 25.243 61.456v272.976q39.128 24.692 61.808 63.876 22.679 39.185 23.064 85.354-.385 71.224-50.438 121.278Q550.84-140.001 480-140.001Zm.078-49.845q50.332 0 85.666-35.327 35.333-35.327 35.333-86.16 0-33.079-15.141-61.86t-43.68-44.704l-26.051-16.821v-298.821q0-15.246-10.479-25.725-10.48-10.48-25.726-10.48-15.246 0-25.726 10.48-10.479 10.479-10.479 25.725v298.821l-26.051 16.821q-28.539 15.923-43.68 44.704-15.141 28.781-15.141 61.86 0 50.833 35.412 86.16t85.743 35.327ZM480-311.333Z"/></svg>