<svg xmlns="http://www.w3.org/2000/svg" height="40" viewBox="0 -960 960 960" width="40"><path d="M580.411-217.694H374.718q-13.961 0-23.057-9.52-9.096-9.52-9.096-23.229 0-13.71 9.466-23.043 9.465-9.333 23.097-9.333h205.283q5.385 0 8.847-3.462 3.461-3.462 3.461-8.847v-140.001q0-5.385-3.461-8.846-3.462-3.462-8.847-3.462H415.538q-13.64 0-22.768-9.52t-9.128-23.23q0-13.71 9.466-23.043 9.465-9.333 23.097-9.333h164.206q5.385 0 8.847-3.462 3.461-3.461 3.461-8.846v-140.001q0-5.385-3.461-8.847-3.462-3.462-8.847-3.462H374.718q-13.961 0-23.057-9.52-9.096-9.52-9.096-23.23t9.466-23.042q9.465-9.333 23.097-9.333h205.283q32.264 0 54.849 22.585 22.585 22.585 22.585 54.849v125.745q0 24.589-15.743 42.397-15.743 17.807-38.948 17.807 23.205 0 38.948 17.017 15.743 17.016 15.743 40.776v126.002q0 32.264-22.585 54.849-22.585 22.585-54.849 22.585Z"/></svg>