<svg xmlns="http://www.w3.org/2000/svg" height="40" viewBox="0 -960 960 960" width="40"><path d="M359.539-542.488v247.181q0 10.063 7.142 17.313 7.143 7.25 17.346 7.25t17.421-7.25q7.218-7.25 7.218-17.313v-265.231q0-13.295-8.941-22.288-8.941-8.994-22.158-8.994h-42.541q-10.064 0-17.314 7.263t-7.25 17.474q0 10.545 7.216 17.57t17.553 7.025h24.308Zm167.384 271.744h60.308q24.467 0 41.13-16.634 16.664-16.635 16.664-40.955v-205.308q0-24.625-16.664-41.402-16.663-16.777-41.13-16.777h-60.308q-24.32 0-40.955 16.777-16.634 16.777-16.634 41.402v205.308q0 24.32 16.634 40.955 16.635 16.634 40.955 16.634Zm0-49.127q-3.462 0-5.962-2.5-2.5-2.5-2.5-5.962v-205.308q0-3.462 2.5-5.962 2.5-2.5 5.962-2.5h60.308q3.462 0 5.962 2.5 2.5 2.5 2.5 5.962v205.308q0 3.462-2.5 5.962-2.5 2.5-5.962 2.5h-60.308ZM392.82-859.744q-10.679 0-17.903-7.263-7.224-7.263-7.224-18 0-10.736 7.224-17.864t17.903-7.128h174.36q10.679 0 17.903 7.263 7.224 7.263 7.224 17.999 0 10.737-7.224 17.865-7.224 7.128-17.903 7.128H392.82ZM480-100.412q-69.973 0-131.909-26.897-61.936-26.897-108.244-73.077-46.307-46.179-73.076-108.243-26.77-62.064-26.77-131.909 0-69.846 26.77-131.782 26.769-61.936 73.076-108.243 46.308-46.308 108.244-73.077T480-780.409q62.641 0 119.243 21.539 56.603 21.538 102.398 60.615l29.589-29.846q7.231-7.231 17.5-7.423 10.269-.192 17.884 7.423t7.615 17.692q0 10.076-7.615 17.691l-29.846 29.847q37.179 42.564 60.205 98.217Q819.999-509 819.999-440.41q0 69.717-26.77 131.781-26.769 62.064-73.076 108.243-46.308 46.18-108.244 73.077T480-100.412Zm-.036-50.255q120.498 0 205.139-84.604 84.641-84.605 84.641-205.103t-84.605-205.139q-84.605-84.641-205.103-84.641t-205.139 84.605q-84.641 84.605-84.641 205.102 0 120.498 84.605 205.139t205.103 84.641ZM480-440Z"/></svg>