<svg xmlns="http://www.w3.org/2000/svg" height="40" viewBox="0 -960 960 960" width="40"><path d="M479.927-340.256q66.355 0 113.086-46.658 46.731-46.659 46.731-113.013 0-66.355-46.658-113.086-46.659-46.731-113.013-46.731-66.355 0-113.086 46.658-46.731 46.659-46.731 113.013 0 66.355 46.658 113.086 46.659 46.731 113.013 46.731Zm-25.054 210.255H400q-10.679 0-17.903-7.263-7.224-7.263-7.224-17.999 0-10.737 7.224-17.865 7.224-7.128 17.903-7.128h54.873v-110.719q-79.342-11.728-132.107-70.574T270.001-500q0-35.36 11.205-68.562T314.052-630l-50.77-50.771-38.693 38.95q-7.231 7.23-17.153 7.012-9.923-.218-17.528-7.424-7.164-7.128-7.164-17.348 0-10.219 7.231-17.624l38.308-38.513-108.027-108.027v98.873q0 10.679-7.263 17.903-7.263 7.225-18 7.225-10.736 0-17.864-7.225Q70-714.193 70-724.872v-153.846q0-13.294 8.993-22.288 8.994-8.993 22.288-8.993h153.846q10.679 0 17.903 7.263 7.225 7.263 7.225 17.999 0 10.737-7.225 17.865-7.224 7.128-17.903 7.128h-98.873l108.027 108.027 38.898-38.898q7.134-7.231 17.364-7.231t17.702 7.463q7.163 7.128 7.163 17.347 0 10.22-7.23 17.625l-38.693 38.898 51.565 51.565q27.821-21.846 60.757-33.449 32.936-11.602 68.249-11.602 35.314 0 68.398 11.397 33.084 11.398 61.16 32.988l194.13-194.13h-98.873q-10.679 0-17.903-7.263-7.225-7.263-7.225-18 0-10.736 7.225-17.864 7.224-7.128 17.903-7.128h153.846q13.294 0 22.288 8.993 8.993 8.994 8.993 22.288v153.846q0 10.679-7.263 17.903-7.263 7.225-17.999 7.225-10.737 0-17.865-7.225-7.128-7.224-7.128-17.903v-98.873l-194.13 194.181q21.385 28.025 32.885 60.999 11.5 32.974 11.5 68.565 0 79.605-52.765 138.451-52.765 58.846-132.107 70.574v110.719H560q10.679 0 17.903 7.263 7.224 7.263 7.224 18 0 10.736-7.224 17.864T560-130.001h-54.873v54.873q0 10.679-7.262 17.903-7.263 7.224-18 7.224-10.736 0-17.864-7.224t-7.128-17.903v-54.873Z"/></svg>