<svg xmlns="http://www.w3.org/2000/svg" height="40" viewBox="0 -960 960 960" width="40"><path d="M481.872-140.001q-70.769 0-132.82-26.898-62.051-26.897-108.461-72.974-46.41-46.077-73.308-108.256-26.897-62.179-26.897-132.948 0-56.846 17.513-107.321 17.513-50.474 48.923-92.782L102.976-785.283q-7.436-7.435-7.628-17.807-.192-10.371 7.628-18.192 7.564-7.564 17.871-7.564 10.307 0 18.128 7.564l682.307 682.307q7.179 7.436 7.371 17.628.193 10.192-7.371 17.756-7.821 7.82-18.128 7.82t-17.871-7.82L681.949-206.053q-42.436 31.41-93.026 48.731-50.59 17.321-107.051 17.321Zm0-50.255q45.59 0 87.231-13.872 41.642-13.872 76.514-38.514L242.642-645.617Q218-610.36 204.321-569.449q-13.68 40.91-13.68 86.885 0 121.872 84.68 207.09Q360-190.256 481.872-190.256Zm0-579.488q-41.667 0-79.487 10.731-37.821 10.731-71.462 30.5l-35.948-36.204q40.41-26.666 87.59-40.974 47.179-14.308 99.307-14.308 74.384 0 141.358 31.731t116.076 87.704v-75.59q0-10.615 7.128-17.871 7.128-7.257 18-7.257 10.871 0 17.999 7.257 7.128 7.256 7.128 17.871v131.229q0 13.564-8.859 22.423-8.859 8.859-22.423 8.859H626.896q-10.871 0-17.999-7.128-7.128-7.128-7.128-18 0-10.871 7.128-17.999 7.128-7.128 17.999-7.128h76.924q-42.615-48.692-99.846-77.269-57.231-28.577-122.102-28.577Zm24.05 216.231-50.255-50.255v-52.592q0-10.871 7.128-17.999 7.128-7.128 18-7.128 10.871 0 17.999 7.128 7.128 7.128 7.128 17.999v102.847Zm259.18 258.922-36.589-36.332q14.692-23.564 24.077-49.616 9.385-26.051 13.923-54.821 2.102-10.794 9.833-17.563 7.731-6.769 17.987-6.231 10.999.538 17.371 8.846 6.372 8.307 4.628 18.743-4.897 36.897-17.808 71.641-12.91 34.744-33.422 65.333Z"/></svg>