<svg xmlns="http://www.w3.org/2000/svg" height="40" viewBox="0 -960 960 960" width="40"><path d="M125.129-140.001q-10.679 0-17.903-7.263-7.225-7.263-7.225-18 0-10.736 7.225-17.864 7.224-7.128 17.903-7.128h54.872v-567.179q0-25.609 18.478-44.086 18.477-18.478 44.086-18.478h474.87q25.609 0 44.086 18.478 18.478 18.477 18.478 44.086v567.179h54.872q10.679 0 17.903 7.263 7.225 7.263 7.225 17.999 0 10.737-7.225 17.865-7.224 7.128-17.903 7.128H125.129Zm262.691-50.255h184.616v-579.488H387.82v579.488Z"/></svg>