<svg xmlns="http://www.w3.org/2000/svg" height="40" viewBox="0 -960 960 960" width="40"><path d="M202.565-540q-25.846 0-44.205-18.359-18.359-18.359-18.359-44.204v-154.872q0-25.846 18.359-44.205 18.359-18.359 44.205-18.359h154.871q25.846 0 44.205 18.359Q420-783.281 420-757.435v154.872q0 25.845-18.359 44.204T357.436-540H202.565Zm0 399.999q-25.846 0-44.205-18.359-18.359-18.359-18.359-44.205v-154.871q0-25.846 18.359-44.205Q176.719-420 202.565-420h154.871q25.846 0 44.205 18.359Q420-383.282 420-357.436v154.871q0 25.846-18.359 44.205-18.359 18.359-44.205 18.359H202.565ZM602.563-540q-25.845 0-44.204-18.359T540-602.563v-154.872q0-25.846 18.359-44.205 18.359-18.359 44.204-18.359h154.872q25.846 0 44.205 18.359 18.359 18.359 18.359 44.205v154.872q0 25.845-18.359 44.204T757.435-540H602.563Zm0 399.999q-25.845 0-44.204-18.359T540-202.565v-154.871q0-25.846 18.359-44.205Q576.718-420 602.563-420h154.872q25.846 0 44.205 18.359 18.359 18.359 18.359 44.205v154.871q0 25.846-18.359 44.205-18.359 18.359-44.205 18.359H602.563Z"/></svg>