<svg xmlns="http://www.w3.org/2000/svg" height="40" viewBox="0 -960 960 960" width="40"><path d="M763.589-481q0-87.897-48.32-159.192-48.321-71.295-127.987-104.91-10.308-4.641-14.692-13.667-4.385-9.025-.154-18.281 4.179-10.256 15.051-13.795 10.871-3.538 21.922 1.103 92.359 40.256 148.397 123.41Q813.844-583.179 813.844-481q0 102.179-56.038 185.332-56.038 83.154-148.397 123.41-11.051 4.641-21.922 1.103-10.872-3.539-15.051-13.795-4.231-9.256.154-18.281 4.384-9.026 14.692-13.667 79.666-33.615 127.987-104.91 48.32-71.295 48.32-159.192ZM294.616-380.001H177.438q-13.564 0-22.423-8.859-8.859-8.859-8.859-22.423v-137.434q0-13.564 8.859-22.423 8.859-8.859 22.423-8.859h117.178l127.948-127.947q12.077-12.077 27.833-5.628 15.756 6.448 15.756 23.268v420.355q0 17.077-15.756 23.525-15.756 6.449-27.833-5.628L294.616-380.001ZM646.153-480q0 42.256-18.923 77.948-18.923 35.692-53.153 57.461-7.385 4.795-14.833.462-7.449-4.333-7.449-12.897v-247.537q0-8.564 7.449-12.769 7.448-4.205 14.833.333 34.23 21.974 53.153 58.564 18.923 36.589 18.923 78.435Z"/></svg>