<svg xmlns="http://www.w3.org/2000/svg" height="40" viewBox="0 -960 960 960" width="40"><path d="M212.103-302.873q-30.975 0-49.757 14.872-18.782 14.872-46.628 23.128-9.461 2.821-17.59-3.936-8.127-6.756-8.127-17.371 0-11.256 7.128-19.179 7.128-7.923 17.563-12.128 21.129-8.615 40.808-22.128 19.68-13.513 56.603-13.513 47.999 0 70.704 23.385 22.706 23.384 62.501 23.384 40.205 0 63.449-23.384Q432-353.128 480-353.128q47.846 0 71.038 23.385 23.193 23.384 62.988 23.384 40.205 0 63.038-23.384 22.834-23.385 70.833-23.385 36.923 0 56.603 13.513 19.679 13.513 40.808 22.128 10.435 4.205 17.563 12.128 7.128 7.923 7.128 19.179 0 10.615-8.025 17.371-8.026 6.757-17.487 3.936-27.718-8.256-46.923-23.128-19.205-14.872-49.667-14.872-38.743 0-62.179 23.385-23.436 23.384-71.692 23.384-47.59 0-71.115-23.384-23.526-23.385-62.911-23.385-39.539 0-62.987 23.385-23.449 23.384-71.705 23.384-48 0-71.026-23.384-23.025-23.385-62.179-23.385Zm0-155.384q-31.231 0-49.86 14.872-18.628 14.871-46.73 23.128-9.461 2.82-17.487-3.936-8.025-6.756-8.025-17.371 0-11.256 7.128-19.179 7.128-7.923 17.563-12.128 21.129-8.615 40.808-22.128 19.68-13.513 56.603-13.513 47.589 0 70.499 23.385 22.911 23.384 62.706 23.384 40.205 0 63.449-23.384Q432-508.512 480-508.512q47.846 0 70.936 23.385 23.089 23.384 62.936 23.384 40.205 0 63.115-23.384 22.911-23.385 70.91-23.385 36.77 0 56.423 13.513 19.654 13.513 40.783 22.128 10.64 4.205 17.768 12.128t7.128 19.179q0 10.615-8.128 17.371-8.128 6.756-17.589 3.936-27.718-8.257-46.82-23.128-19.103-14.872-49.565-14.872-38.743 0-62.179 23.384-23.436 23.385-71.692 23.385-47.59 0-71.115-23.385-23.526-23.384-62.911-23.384-39.539 0-62.91 23.384-23.372 23.385-71.372 23.385t-71.436-23.385q-23.436-23.384-62.179-23.384Zm0-155.384q-30.847 0-49.795 14.679-18.949 14.679-46.411 22.936-9.845 2.82-17.87-3.744Q90-586.333 90-596.948q0-11.257 7.128-19.179 7.128-7.923 17.563-12.128 21.129-8.616 40.808-22.128 19.68-13.513 56.603-13.513 47.589 0 70.499 23.384 22.911 23.385 62.706 23.385 40.205 0 63.449-23.385Q432-663.896 480-663.896q47.846 0 70.936 23.384 23.089 23.385 62.936 23.385 40.205 0 63.115-23.385 22.911-23.384 70.91-23.384 36.77 0 56.423 13.513 19.654 13.512 40.783 22.128 10.64 4.205 17.768 12.128 7.128 7.922 7.128 19.179 0 10.615-8.128 17.371-8.128 6.756-17.589 3.936-27.718-8.257-46.82-23.129-19.103-14.871-49.565-14.871-38.743 0-62.179 23.384-23.436 23.385-71.692 23.385-47.59 0-71.115-23.385-23.526-23.384-62.911-23.384-39.539 0-62.91 23.384-23.372 23.385-71.372 23.385t-71.436-23.385q-23.436-23.384-62.179-23.384Z"/></svg>