<svg xmlns="http://www.w3.org/2000/svg" height="40" viewBox="0 -960 960 960" width="40"><path d="M275.128-130.001q-76.461 0-130.794-54.333-54.333-54.333-54.333-130.794 0-52.103 24.91-94.013 24.91-41.91 66.115-65.679 14.102-8.641 26.666-1.961 12.564 6.679 12.564 22.166 0 8.999-4.487 14.73-4.488 5.731-10.975 9.782-28.718 17.359-46.628 48.013-17.91 30.654-17.91 66.962 0 55.744 39.564 95.308 39.564 39.564 95.308 39.564 54.975 0 94.154-38.218 39.18-38.218 40.719-92.808.384-12.538 8.32-20.756t20.09-8.218h203.743q6.846-10.923 18.333-17.769 11.487-6.846 24.385-6.846 20.795 0 35.269 14.474 14.474 14.474 14.474 35.269 0 20.384-14.474 35.064-14.474 14.679-35.269 14.679-13.282 0-24.577-6.654-11.295-6.654-18.141-17.962H458.871q-11.948 71.308-64.218 115.654-52.269 44.346-119.525 44.346Zm0-135.384q-20.384 0-35.064-14.679-14.679-14.68-14.679-35.064 0-19.077 13.962-33.539 13.961-14.461 35.602-15.615l106.488-178.59q-31.718-27.436-49.141-64.141-17.423-36.705-17.423-77.859 0-76.871 54.333-130.999T500-869.999q67.718 0 118.397 43.09 50.68 43.089 62.654 107.372 3.051 12.512-4.91 21.153-7.962 8.64-19.602 8.64-9.103 0-15.692-6.102-6.59-6.102-9.026-15.41-8.692-46.821-45.628-77.655-36.936-30.833-86.193-30.833-55.744 0-95.308 39.436-39.565 39.436-39.565 95.436 0 34.564 16.116 63.975 16.115 29.41 43.679 48.385 10.462 7.23 13.577 17.717 3.115 10.488-2.705 19.872l-117.41 196.769q3.154 5.795 4.821 11.667 1.666 5.872 1.666 11.359 0 20.384-14.474 35.064-14.474 14.679-35.269 14.679Zm409.744 135.384q-27.154 0-52.782-7.397-25.629-7.398-46.321-21.526-16.282-10.846-11.987-28.397 4.295-17.55 23.038-17.55 6.102 0 11.346 2.205 5.243 2.205 10.141 4.41 16.436 8.923 32.872 13.462 16.436 4.538 33.693 4.538 56 0 95.436-39.564 39.436-39.564 39.436-95.308 0-56.001-39.436-95.437t-95.436-39.436q-10.41 0-19.744 1.5-9.333 1.5-18.333 4.116-12.205 3.82-23.513-.282-11.307-4.103-16.871-13.539L500.437-635.718q-20.59-.282-35.385-14.167-14.795-13.884-14.795-34.987 0-20.795 14.679-35.269 14.68-14.474 35.064-14.474 20.795 0 35.269 14.474 14.474 14.474 14.474 35.269 0 5.744-1.359 10.847-1.359 5.102-4.513 11.179l98.693 167.155q10.384-2 21.218-3.283 10.833-1.282 21.09-1.282 76.871 0 130.999 54.128t54.128 131q0 76.461-54.128 130.794-54.128 54.333-130.999 54.333Z"/></svg>