<svg xmlns="http://www.w3.org/2000/svg" height="40" viewBox="0 -960 960 960" width="40"><path d="M244.437-182.539q-7.692 7.82-18.903 7.436-11.21-.385-18.404-8.821-46.394-51.62-72.876-116.374Q107.771-365.051 107.771-440q0-78.85 29.972-148.199 29.973-69.35 81.353-120.65 51.381-51.3 120.621-81.225 69.24-29.925 147.965-29.925 105.27 0 191.076 51.013 85.805 51.012 135.805 135.345h-60.024q-45.41-61.769-114.577-98.936-69.166-37.167-152.192-37.167-138.08 0-233.912 95.832T158.026-440q0 64.158 22.154 119.99 22.154 55.831 62.154 99.703 7.616 8.692 8.705 19.32 1.09 10.628-6.602 18.448Zm112.967-112.972q-7.659 7.792-18.466 7.574-10.808-.218-17.808-8.602-24.752-29.637-39.056-65.575-14.303-35.937-14.303-77.886 0-91.666 64.14-155.832 64.14-64.167 155.768-64.167 91.885 0 155.987 64.167Q707.768-531.666 707.768-440q0 41.554-14.115 77.867-14.115 36.312-38.987 65.594-7 8.436-17.646 8.936-10.645.5-18.217-7.293-7.521-7.643-7.431-18.258.09-10.615 6.705-18.999 18.257-22 28.847-49.385 10.589-27.385 10.589-58.462 0-70.519-49.512-120.131-49.513-49.613-120.103-49.613t-120.231 49.613Q318.026-510.519 318.026-440q0 31.197 10.75 58.564 10.751 27.368 28.943 49.283 6.615 8.641 6.91 18.82.295 10.179-7.225 17.822Zm130.366-84.49q-24.538 0-42.268-17.731-17.731-17.73-17.731-42.268t17.731-42.268q17.73-17.731 42.268-17.731 24.794 0 42.396 17.731 17.602 17.73 17.602 42.268t-17.602 42.268q-17.602 17.731-42.396 17.731Zm335.004 201.794q-12 0-20.939-8.789-8.939-8.788-8.939-21.035t8.882-21.083q8.882-8.835 20.996-8.835 12.558 0 21.211 8.893 8.654 8.893 8.654 21.025 0 12.132-8.711 20.978-8.711 8.846-21.154 8.846Zm-25.262-155.434V-518.77q0-10.679 7.263-17.903 7.263-7.224 17.999-7.224 10.737 0 17.865 7.224 7.128 7.224 7.128 17.903v185.129q0 10.68-7.263 17.904t-17.999 7.224q-10.737 0-17.865-7.224-7.128-7.224-7.128-17.904Z"/></svg>