<svg xmlns="http://www.w3.org/2000/svg" height="40" viewBox="0 -960 960 960" width="40"><path d="M202.565-140.001q-25.705 0-44.134-18.43-18.43-18.429-18.43-44.134v-554.87q0-25.705 18.43-44.134 18.429-18.43 44.134-18.43h554.87q25.705 0 44.134 18.43 18.43 18.429 18.43 44.134v554.87q0 25.705-18.43 44.134-18.429 18.43-44.134 18.43h-554.87Zm302.562-314.872v264.617h252.308q5.385 0 8.847-3.462 3.462-3.462 3.462-8.847v-252.308H505.127Zm0-50.254h264.617v-252.308q0-5.385-3.462-8.847-3.462-3.462-8.847-3.462H505.127v264.617Zm-50.254 0v-264.617H202.565q-5.385 0-8.847 3.462-3.462 3.462-3.462 8.847v252.308h264.617Zm0 50.254H190.256v252.308q0 5.385 3.462 8.847 3.462 3.462 8.847 3.462h252.308v-264.617Z"/></svg>