<svg xmlns="http://www.w3.org/2000/svg" height="40" viewBox="0 -960 960 960" width="40"><path d="M235.128-135.386q-58.166 0-98.954-40.788t-40.788-98.954q0-58.166 40.788-98.955 40.788-40.788 98.954-40.788t98.955 40.788q40.788 40.789 40.788 98.955t-40.788 98.954q-40.789 40.788-98.955 40.788Zm490.282 0q-58.038 0-98.954-40.788t-40.916-98.954q0-58.166 40.916-98.955 40.916-40.788 98.954-40.788t98.826 40.788q40.789 40.789 40.789 98.955t-40.789 98.954q-40.788 40.788-98.826 40.788Zm-490.327-50.255q37.122 0 63.328-26.16 26.205-26.159 26.205-63.282 0-37.122-26.16-63.328-26.16-26.205-63.282-26.205-37.123 0-63.328 26.16-26.205 26.16-26.205 63.282 0 37.123 26.16 63.328 26.159 26.205 63.282 26.205Zm490.154 0q37.122 0 63.327-26.16 26.206-26.159 26.206-63.282 0-37.122-26.16-63.328-26.16-26.205-63.154-26.205-36.995 0-63.328 26.16-26.333 26.16-26.333 63.282 0 37.123 26.273 63.328 26.274 26.205 63.169 26.205ZM480.538-545.54q-58.038 0-98.954-40.916t-40.916-98.954q0-58.038 40.916-98.826 40.916-40.789 98.954-40.789t98.827 40.789q40.788 40.788 40.788 98.826t-40.788 98.954q-40.789 40.916-98.827 40.916Zm-.173-50.255q37.122 0 63.328-26.273 26.205-26.274 26.205-63.169 0-37.122-26.16-63.327-26.16-26.206-63.154-26.206t-63.328 26.16q-26.333 26.16-26.333 63.154 0 36.995 26.273 63.328 26.274 26.333 63.169 26.333Zm.045-89.487Zm244.872 410.154Zm-490.154 0Z"/></svg>