<svg xmlns="http://www.w3.org/2000/svg" height="40" viewBox="0 -960 960 960" width="40"><path d="M390.256-699.999h179.488v-77.435q0-5.385-3.462-8.846-3.462-3.462-8.847-3.462h-154.87q-5.385 0-8.847 3.462-3.462 3.461-3.462 8.846v77.435ZM720-63.386q-73.025 0-124.819-51.795Q543.386-166.975 543.386-240t51.795-124.819Q646.975-416.614 720-416.614t124.819 51.795Q896.614-313.025 896.614-240t-51.795 124.819Q793.025-63.386 720-63.386Zm-557.435-76.615q-25.788 0-44.176-18.388t-18.388-44.176v-434.87q0-25.788 18.388-44.176t44.176-18.388h177.436v-77.435q0-25.435 18.388-43.999 18.388-18.564 44.176-18.564h154.87q25.788 0 44.176 18.564t18.388 43.999v77.435h177.436q25.788 0 44.176 18.388t18.388 44.176v195.718q-30.487-22-66.423-33.577Q757.641-486.87 720-486.87q-101.941 0-174.406 72.464Q473.13-341.941 473.13-240q0 27.512 5.371 51.127 5.372 23.615 16.987 48.872H162.565Zm557.563 5.487q8.282 0 14.231-5.615t5.949-14.436q0-8.82-5.949-14.564t-14.231-5.744q-8.948 0-14.692 5.744t-5.744 14.564q0 8.821 5.744 14.436t14.692 5.615Zm-.128-79.23q7.231 0 11.718-4.821 4.487-4.82 4.487-12.172v-98.424q0-7.351-4.641-11.838-4.641-4.487-11.974-4.487-7.231 0-11.718 4.674t-4.487 12.051v98.812q0 6.974 4.641 11.589 4.641 4.616 11.974 4.616Z"/></svg>