<svg xmlns="http://www.w3.org/2000/svg" height="40" viewBox="0 -960 960 960" width="40"><path d="M308.205-557.847q-10.679 0-17.904-7.263-7.224-7.263-7.224-17.999 0-10.737 7.224-17.865 7.225-7.128 17.904-7.128h140.924q10.679 0 17.903 7.263 7.224 7.263 7.224 18 0 10.736-7.224 17.864t-17.903 7.128H308.205Zm71.487 218q-102.098 0-172.817-70.681-70.72-70.681-70.72-171.845 0-101.165 70.681-171.908 70.68-70.744 171.992-70.744 101.311 0 172.036 70.699t70.725 171.897q0 42.301-14.385 81.839-14.385 39.539-40.538 70.692l239.077 238.001q7.231 6.934 7.423 17.89.192 10.955-7.423 18.442t-18.378 7.487q-10.764 0-18.083-7.615l-238.41-238.411q-29.899 25.866-69.407 40.061-39.508 14.196-81.773 14.196Zm-.41-50.255q80.406 0 136.229-55.962 55.823-55.961 55.823-136.372 0-80.41-55.823-136.372-55.823-55.962-136.229-55.962-80.748 0-136.81 55.962T186.41-582.436q0 80.411 56.062 136.372 56.062 55.962 136.81 55.962Z"/></svg>