<svg xmlns="http://www.w3.org/2000/svg" height="48" viewBox="0 -960 960 960" width="48"><path d="m425.007-372.985 47.036 107.855q2.287 5.478 7.861 5.478t8.053-5.478l48.036-107.855 108.855-46.037q5.478-2.287 5.478-7.861 0-5.573-5.478-8.052l-108.855-47.036-48.036-107.855q-2.287-5.478-7.861-5.478t-8.053 5.478l-47.036 107.855-108.855 47.036q-5.478 2.287-5.478 7.861t5.478 8.052l108.855 46.037ZM387.16-860q-14.315 0-23.488-9.337-9.172-9.337-9.172-23.533 0-14.195 9.172-23.413 9.173-9.217 23.488-9.217h185.68q14.315 0 23.488 9.172 9.172 9.173 9.172 23.458 0 14.196-9.172 23.533Q587.155-860 572.84-860H387.16Zm92.784 790q-75.49 0-142.053-28.94-66.562-28.939-116.357-78.695-49.795-49.756-78.654-116.298-28.858-66.542-28.858-142.011t28.88-142.034q28.88-66.565 78.675-116.404 49.795-49.838 116.357-78.826Q404.496-802.196 480-802.196q67.478 0 127.076 22.5t105.837 62.739l30.239-30.239q9.957-9.956 23.033-9.956t23.033 10.076q9.956 10.076 9.956 23.152t-9.956 23.033l-30 30q36.239 40.478 61.619 97.956 25.381 57.479 25.381 136.957 0 75.52-28.955 142.106-28.955 66.587-78.784 116.31Q688.65-127.84 622.043-98.92 555.435-70 479.944-70Zm.015-68.37q124.324 0 211.106-86.621 86.783-86.622 86.783-210.946t-86.742-211.106q-86.741-86.783-211.065-86.783t-211.106 86.742q-86.783 86.741-86.783 211.065 0 124.323 86.742 210.986 86.741 86.663 211.065 86.663ZM480-434.978Z"/></svg>