<svg xmlns="http://www.w3.org/2000/svg" height="48" viewBox="0 -960 960 960" width="48"><path d="M480-74.022q-85.196 0-159.272-31.478t-128.913-86.315q-54.837-54.837-86.315-128.913Q74.022-394.804 74.022-480q0-84.717 31.239-158.674 31.239-73.956 85.956-128.913 54.718-54.957 128.913-86.674 74.196-31.717 159.87-31.957 44.87 0 81.924 7.718 37.054 7.717 86.576 27.196-11.348 6.956-17.804 20.793-6.457 13.837-6.457 30.511 0 23.913 12.337 43.489 12.337 19.576 36.054 29.815l39.218 16.609 18.608 44.217q10.479 22.479 29.316 34.435 18.837 11.957 43.989 11.957 15.674 0 28.13-5.576 12.457-5.576 21.413-16.446 17.196 43.717 25.055 79.87 7.859 36.152 7.859 81.63 0 84.435-31.598 158.63-31.598 74.196-86.674 129.033-55.076 54.837-129.152 86.576Q564.717-74.021 480-74.021Zm-125.043-308.5q-23.24 0-38.859-15.619-15.62-15.62-15.62-38.859 0-23.239 15.62-38.859 15.619-15.619 38.859-15.619 23.239 0 38.858 15.619 15.62 15.62 15.62 38.859 0 23.239-15.62 38.859-15.619 15.619-38.858 15.619Zm251.086 0q-23.239 0-38.858-15.619-15.62-15.62-15.62-38.859 0-23.239 15.62-38.859 15.619-15.619 38.858-15.619 23.24 0 38.979 15.619 15.739 15.62 15.739 38.859 0 23.239-15.739 38.859-15.739 15.619-38.979 15.619ZM480-142.152q141.043 0 239.565-98.283 98.522-98.282 98.522-239.326 0-26-4-50.761-4-24.761-10-45.521-20 5.239-43.261 7.119-23.261 1.881-48.261 1.881-96.522 0-182.424-39.642-85.902-39.641-146.663-113.402-33.761 80.283-96.782 140.304-63.022 60.022-144.305 93.022v7q0 141.044 98.403 239.326Q339.196-142.152 480-142.152ZM758.761-758l-63.848-27.043q-9.717-4.24-9.717-14.957t9.717-14.957L758.761-841l30.282-69.087q4-9.478 14.718-8.978 10.717.5 14.956 9.978L847.761-841l64.087 26.043q9.478 4.24 9.478 14.957t-9.478 14.957L847.761-758l-29.044 68.087q-4.239 9.478-14.956 9.978-10.718.5-14.718-8.978L758.761-758Z"/></svg>