<svg xmlns="http://www.w3.org/2000/svg" height="20" viewBox="0 -960 960 960" width="20"><path d="M420-420Zm59.959 252Q532-168 580-184.5t90-48.5q-43-27-91-41t-99-14q-51 0-99.5 13.5T290-233q42 32 89.959 48.5t100 16.5ZM582-654q31 31 39.5 73.5T613-497q-6 14-20 20.5t-28.452-.433Q551-483 545-497q-6-14 1-28 9-20 5-41t-20.074-37.074Q516-618 496-623q-20-5-40 3-13 5-24.5-3t-15.591-21.576Q411-659 419-672.5t23-18.5q37-13 74.5-2t65.5 39ZM480-96q-79.376 0-149.188-30Q261-156 208.5-208.5T126-330.812Q96-400.624 96-480q0-57.62 17-112.31Q130-647 162-695l-47-48q-11-10.667-10.5-25.333Q105-783 116-794q11-11 25.667-11 14.666 0 25.333 11l627 628q11 10.667 10.5 25.333Q804-126 793-115q-11 11-25.182 11-14.182 0-24.818-11L214-643q-23 37-34.5 78T168-480q0 54 17 104t52 91q54-38 115.413-56.5T479.661-360Q517-360 553-353.5t71 18.5l127 127q-54 54-124.093 83T480-96Zm75-465ZM312-826q39.47-19 81.976-28.5T480-864q77.168 0 147.584 29T752-752q54 54 83 124.416T864-480q0 43.677-10 86.339Q844-351 825-312q-7 14-21.609 18-14.608 4-27.391-4-13-8-17-22.333-4-14.334 3-28.667 14-31 22-64t8-67q0-130-91-221t-221-91q-34 0-67 7.5T349-763q-14 6-28 2.5t-22-17q-8-13.5-4.5-27.5t17.5-21Z"/></svg>