<svg xmlns="http://www.w3.org/2000/svg" height="20" viewBox="0 -960 960 960" width="20"><path d="M264-48q-29.7 0-50.85-21.15Q192-90.3 192-120v-132q0-15.3 10.289-25.65 10.29-10.35 25.5-10.35Q243-288 253.5-277.65 264-267.3 264-252v12h432v-480H264v12q0 15.3-10.289 25.65-10.29 10.35-25.5 10.35Q213-672 202.5-682.35 192-692.7 192-708v-132q0-29.7 21.15-50.85Q234.3-912 264-912h432q29.7 0 50.85 21.15Q768-869.7 768-840v720q0 29.7-21.15 50.85Q725.7-48 696-48H264Zm0-120v48h432v-48H264Zm96-333L172-313q-11 11-25 10.5T122-314q-11-11-11-25.5t11-25.5l187-187h-81q-15.3 0-25.65-10.289-10.35-10.29-10.35-25.5Q192-603 202.35-613.5 212.7-624 228-624h168q15.3 0 25.65 10.35Q432-603.3 432-588v168q0 15.3-10.289 25.65-10.29 10.35-25.5 10.35Q381-384 370.5-394.35 360-404.7 360-420v-81Zm-96-291h432v-48H264v48Zm0 0v-48 48Zm0 624v48-48Z"/></svg>