<svg xmlns="http://www.w3.org/2000/svg" height="20" viewBox="0 -960 960 960" width="20"><path d="M479.75-859q7.71 0 13.98 1.5Q500-856 506-854l240 92q21 8 33.5 26.15Q792-717.69 792-695v131q0 15.3-10.29 25.65Q771.42-528 756.21-528t-25.71-10.35Q720-548.7 720-564v-131l-240-92-240 92v180q0 52 14.5 101.5t41.5 93q27 43.5 65.5 79T448-182q12.86 6.95 18.43 19.97Q472-149 467-135q-5 14-18.5 20t-27.5 0q-115-49-184-162t-69-238v-180q0-22.69 12.5-40.85Q193-754 214-762l240-92q7-2 13-3.5t12.75-1.5ZM671.77-96Q592-96 536-152.23q-56-56.22-56-136Q480-368 536.23-424q56.22-56 136-56Q752-480 808-423.77q56 56.22 56 136Q864-208 807.77-152q-56.22 56-136 56ZM480-491Zm192 203q25 0 42.5-17.5T732-348q0-25-17.5-42.5T672-408q-25 0-42.5 17.5T612-348q0 25 17.5 42.5T672-288Zm0 120q26 0 50.5-11.5T764-211q5-5 3-12.5t-9-10.5q-19.95-9-41.47-13.5Q695-252 672-252t-44.53 4.5Q605.95-243 586-234q-7 3-9 10.5t3 12.5q17 20 41.5 31.5T672-168Z"/></svg>