<svg xmlns="http://www.w3.org/2000/svg" height="20" viewBox="0 -960 960 960" width="20"><path d="M624-408H360q-31 0-63.5-33.5T264-503.541v-276.756Q264-795 274.334-805.5t25.611-10.5h143.779Q459-816 469.5-805.65T480-780v204h192q31 0 51.5 21.15T744-504v240h60q23 0 41.5 18.5T864-204q0 23-18.5 41.5T804-144H660q-15.3 0-25.65-10.35Q624-164.7 624-180v-228Zm-84 120H216q-29.7 0-50.85-21.15Q144-330.3 144-360v-420q0-15.3 10.289-25.65 10.29-10.35 25.5-10.35Q195-816 205.5-805.65 216-795.3 216-780v420h324q15.3 0 25.65 10.289 10.35 10.29 10.35 25.5Q576-309 565.65-298.5 555.3-288 540-288Z"/></svg>