<svg xmlns="http://www.w3.org/2000/svg" height="20" viewBox="0 -960 960 960" width="20"><path d="M436-487 335-207q-1 2-9 14l-27 25q-8 8-18.12 3.714Q270.76-168.571 269-180l-4-36q-1-4 2-16l105-288q14 11 29.909 19.708Q417.818-491.583 436-487Zm44-41q-50 0-85-35t-35-85q0-41 24-72t60-42v-54q0-15.3 10.289-25.65 10.29-10.35 25.5-10.35Q495-852 505.5-841.65 516-831.3 516-816v54q36 11 60 42t24 72q0 50-35 85t-85 35Zm0-72q20.4 0 34.2-13.8Q528-627.6 528-648q0-20.4-13.8-34.2Q500.4-696 480-696q-20.4 0-34.2 13.8Q432-668.4 432-648q0 20.4 13.8 34.2Q459.6-600 480-600Zm44 113q18.182-4.583 34.091-13.292Q574-509 588-521l105 289q1 2 2 16l-4 36q-1.76 10.857-11.88 14.929Q669-161 661-169l-27-25q-2-2-9-14L524-487Z"/></svg>