<svg xmlns="http://www.w3.org/2000/svg" height="20" viewBox="0 -960 960 960" width="20"><path d="m179-609-61-28q-7-2.91-7-9.45 0-6.55 7-9.55l61-28 27-61q3.09-7 10.05-7 6.95 0 9.95 7l27 61 61 28q7 2.91 7 9.45 0 6.55-7 9.55l-61 28-27 61q-3.09 7-10.05 7-6.95 0-9.95-7l-27-61Zm496-112-28-13q-7-3.4-7-10.2 0-6.8 7-9.8l28-13 12-27q3.4-7 10.2-7 6.8 0 9.8 7l13 27.32L748-754q7 3.4 7 10.2 0 6.8-7 9.8l-28 12.68L707-694q-3.4 7-10.2 7-6.8 0-9.8-7l-12-27Zm94.32 145L742-589q-7-3.4-7-10.2 0-6.8 7-9.8l27-12 13-28q3.4-7 10.2-7 6.8 0 9.8 7l13 28 27 12q7 3.4 7 10.2 0 6.8-7 9.8l-27.32 13L802-548q-3.4 7-10.2 7-6.8 0-9.8-7l-12.68-28ZM480-336q-50 0-85-35t-35-85v-240q0-50 35-85t85-35q50 0 85 35t35 85v240q0 50-35 85t-85 35Zm0-240Zm0 168q20.4 0 34.2-13.8Q528-435.6 528-456v-240q0-20.4-13.8-34.2Q500.4-744 480-744q-20.4 0-34.2 13.8Q432-716.4 432-696v240q0 20.4 13.8 34.2Q459.6-408 480-408Zm1 312q-17 0-29.5-12.5T439-138v-77.81Q347-228 283-292.5T204-447q-3-18.58 9.77-32.79T248-494q14 0 25 10t14 26q12.8 68.72 66.96 114.86Q408.13-297 481-297q72.5 0 126.38-46.14Q661.26-389.28 674-458q3-16 14-26t26.04-10q20.4 0 33.18 14.21Q760-465.58 757-447q-13.81 90.18-77.9 154.59Q615-228 523-215.81V-138q0 17-12.5 29.5T481-96Z"/></svg>