<svg xmlns="http://www.w3.org/2000/svg" height="20" viewBox="0 -960 960 960" width="20"><path d="M312-696v480-480Zm0 552q-29.7 0-50.85-21.15Q240-186.3 240-216v-480h-.833Q225-696 214.5-706.35 204-716.7 204-732q0-14 10.35-25T240-768h144v-12q0-15.3 10.35-25.65Q404.7-816 420-816h120q15.3 0 25.65 10.35Q576-795.3 576-780v12h144q15.3 0 25.65 10.289 10.35 10.29 10.35 25.5Q756-717 745.65-706.5 735.3-696 720-696v132q0 15.3-10.289 25.65-10.29 10.35-25.5 10.35Q669-528 658.5-538.35 648-548.7 648-564v-132H312v480h83q15.3 0 25.65 10.268Q431-195.464 431-180.286 431-166 421-155q-10 11-26 11h-83Zm108.211-480Q405-624 394.5-613.65 384-603.3 384-588v216q0 15.3 10.289 25.65 10.29 10.35 25.5 10.35Q435-336 445.5-346.35 456-356.7 456-372v-216q0-15.3-10.289-25.65-10.29-10.35-25.5-10.35Zm120 0Q525-624 514.5-613.65 504-603.3 504-588v48q0 15.3 10.289 25.65 10.29 10.35 25.5 10.35Q555-504 565.5-514.35 576-524.7 576-540v-48q0-15.3-10.289-25.65-10.29-10.35-25.5-10.35ZM671.774-96Q592-96 536-152.226t-56-136Q480-368 536.16-424T672-480q39.561 0 74.781 15Q782-450 808-424t41 61.203q15 35.203 15 74.746Q864-208 807.774-152q-56.226 56-136 56ZM696-298v-62q0-9.6-7.2-16.8-7.2-7.2-16.8-7.2-9.6 0-16.8 7.2-7.2 7.2-7.2 16.8v67q0 8 3 14.5t8.091 11.591L710-216q7.364 7 17.182 7Q737-209 744-216q7-7 7-16.818 0-9.818-7-17.182l-48-48Z"/></svg>