<svg xmlns="http://www.w3.org/2000/svg" height="20" viewBox="0 -960 960 960" width="20"><path d="M216-216v-528q0-29.7 21.15-50.85Q258.3-816 288-816h240q20.4 0 34.2 13.8Q576-788.4 576-768h96q29.7 0 50.85 21.15Q744-725.7 744-696v204q0 15.3-10.29 25.65Q723.42-456 708.21-456t-25.71-10.35Q672-476.7 672-492v-204h-96v516q0 15.3-10.34 25.65Q555.32-144 540.03-144H180.29q-15.29 0-25.79-10.29t-10.5-25.5q0-15.21 10.35-25.71T180-216h36Zm215.79-228q15.21 0 25.71-10.29t10.5-25.5q0-15.21-10.29-25.71t-25.5-10.5q-15.21 0-25.71 10.29t-10.5 25.5q0 15.21 10.29 25.71t25.5 10.5ZM288-216h216v-528H288v528Zm435.09 20.54L752-132q5 11 16 11t15.53-10.84l29.01-63.25L876-224q11-5 11-16t-10.84-15.53l-63.25-29.01L784-348q-5-11-16-11t-15.53 10.84l-29.01 63.25L660-256q-11 5-11 16t10.84 15.53l63.25 29.01ZM288-216v-528 528Z"/></svg>