<svg xmlns="http://www.w3.org/2000/svg" height="20" viewBox="0 -960 960 960" width="20"><path d="M216-264q25 0 42.5-17.5T276-324q0-25-17.5-42.5T216-384q-25 0-42.5 17.5T156-324q0 25 17.5 42.5T216-264Zm167.789-180Q399-444 409.5-454.289q10.5-10.29 10.5-25.5Q420-495 409.711-505.5q-10.29-10.5-25.5-10.5Q369-516 358.5-505.711q-10.5 10.29-10.5 25.5Q348-465 358.289-454.5q10.29 10.5 25.5 10.5Zm0-156Q399-600 409.5-610.289q10.5-10.29 10.5-25.5Q420-651 409.711-661.5q-10.29-10.5-25.5-10.5Q369-672 358.5-661.711q-10.5 10.29-10.5 25.5Q348-621 358.289-610.5q10.29 10.5 25.5 10.5ZM780-144H180q-15.3 0-25.65-10.289-10.35-10.29-10.35-25.5Q144-195 154.35-205.5 164.7-216 180-216h600q15.3 0 25.65 10.289 10.35 10.29 10.35 25.5Q816-165 805.65-154.5 795.3-144 780-144ZM216-576q25 0 42.5-17.5T276-636q0-25-17.5-42.5T216-696q-25 0-42.5 17.5T156-636q0 25 17.5 42.5T216-576Zm0 156q25 0 42.5-17.5T276-480q0-25-17.5-42.5T216-540q-25 0-42.5 17.5T156-480q0 25 17.5 42.5T216-420Zm167.789 132Q399-288 409.5-298.289q10.5-10.29 10.5-25.5Q420-339 409.711-349.5q-10.29-10.5-25.5-10.5Q369-360 358.5-349.711q-10.5 10.29-10.5 25.5Q348-309 358.289-298.5q10.29 10.5 25.5 10.5ZM672-300q10 0 17-7t7-17q0-10-7-17t-17-7q-10 0-17 7t-7 17q0 10 7 17t17 7Zm108-444H180q-15.3 0-25.65-10.289-10.35-10.29-10.35-25.5Q144-795 154.35-805.5 164.7-816 180-816h600q15.3 0 25.65 10.289 10.35 10.29 10.35 25.5Q816-765 805.65-754.5 795.3-744 780-744ZM672-612q10 0 17-7t7-17q0-10-7-17t-17-7q-10 0-17 7t-7 17q0 10 7 17t17 7Zm0 156q10 0 17-7t7-17q0-10-7-17t-17-7q-10 0-17 7t-7 17q0 10 7 17t17 7ZM527.789-600Q543-600 553.5-610.289q10.5-10.29 10.5-25.5Q564-651 553.711-661.5q-10.29-10.5-25.5-10.5Q513-672 502.5-661.711q-10.5 10.29-10.5 25.5Q492-621 502.289-610.5q10.29 10.5 25.5 10.5Zm0 156Q543-444 553.5-454.289q10.5-10.29 10.5-25.5Q564-495 553.711-505.5q-10.29-10.5-25.5-10.5Q513-516 502.5-505.711q-10.5 10.29-10.5 25.5Q492-465 502.289-454.5q10.29 10.5 25.5 10.5Zm0 156Q543-288 553.5-298.289q10.5-10.29 10.5-25.5Q564-339 553.711-349.5q-10.29-10.5-25.5-10.5Q513-360 502.5-349.711q-10.5 10.29-10.5 25.5Q492-309 502.289-298.5q10.29 10.5 25.5 10.5ZM144-216v-528 528Z"/></svg>