<svg xmlns="http://www.w3.org/2000/svg" height="20" viewBox="0 -960 960 960" width="20"><path d="M477-202q84-48 127.5-118.5T648-480q0-89-43.5-159.5T477-758q48 60 72 130.729Q573-556.542 573-480q0 76-24 147t-72 131Zm121-557q57 56 89.5 127.5T720-480q0 80-32.5 151.5T598-201q-48 48-110 76.5T360.133-96Q349-96 337.5-96.5T314-99.4q-10-1.6-16-8.6t-6-17q0-8 4-14t11-9q89-52 141-140.5T500-480q0-103-52-191.5T307-812q-7-3-11-8.75t-4-14.114q0-10.454 6-17.25 6-6.795 16-8.886 12-2 23.632-2.5 11.631-.5 22.368-.5 66 0 128 28.5T598-759Zm-25 279Z"/></svg>