<svg xmlns="http://www.w3.org/2000/svg" height="20" viewBox="0 -960 960 960" width="20"><path d="M168-240v-168 168ZM96-417.889q0-6.704 1.5-13.407Q99-438 101-445l73-182q8-20 26-32.5t41-12.5h131q15.3 0 25.65 10.289 10.35 10.29 10.35 25.5Q408-621 397.65-610.5 387.3-600 372-600H241l-48 120h300q14.875 0 24.938 10.289Q528-459.421 528-444.211 528-429 517.65-418.5 507.3-408 492-408H168v168h528v-132q0-15.3 10.289-25.65 10.29-10.35 25.5-10.35Q747-408 757.5-397.65 768-387.3 768-372v228q0 20-14 34t-34 14q-20 0-34-14t-14-34v-24H192v24q0 20-14 34t-34 14q-20 0-34-14t-14-34v-273.889ZM600-276q20 0 34-14t14-34q0-20-14-34t-34-14q-20 0-34 14t-14 34q0 20 14 34t34 14Zm-336 0q20 0 34-14t14-34q0-20-14-34t-34-14q-20 0-34 14t-14 34q0 20 14 34t34 14Zm407.774-204Q592-480 536-536.16T480-672q0-80 56-136t136.451-56q79.493 0 135.521 56.226Q864-751.548 864-671.774T807.774-536q-56.226 56-136 56ZM672-672q9.6 0 16.8-7.2 7.2-7.2 7.2-16.8v-48q0-9.6-7.2-16.8-7.2-7.2-16.8-7.2-9.6 0-16.8 7.2-7.2 7.2-7.2 16.8v48q0 9.6 7.2 16.8 7.2 7.2 16.8 7.2Zm0 96q9.6 0 16.8-7.2 7.2-7.2 7.2-16.8 0-9.6-7.2-16.8-7.2-7.2-16.8-7.2-9.6 0-16.8 7.2-7.2 7.2-7.2 16.8 0 9.6 7.2 16.8 7.2 7.2 16.8 7.2Z"/></svg>