<svg xmlns="http://www.w3.org/2000/svg" height="20" viewBox="0 -960 960 960" width="20"><path d="M216-192q-29.7 0-50.85-21.162Q144-234.324 144-264.04v-432.243Q144-726 165.15-747T216-768h528q29.7 0 50.85 21.162Q816-725.676 816-695.96v432.243Q816-234 794.85-213T744-192H216Zm0-72h528v-432H216v432Zm77-104h112.993Q422-368 432.5-378.667q10.5-10.666 10.5-26.434v-18.551Q443-432 437-438t-14-6h-16q-8 0-14 6t-6 14h-75v-112h75q0 8 6 14t14 6h16q8 0 14-6t6-14.348v-18.551q0-15.768-10.638-26.434Q421.725-592 406-592H293.007Q277-592 266.5-581.295t-10.5 26.53v148.94Q256-390 266.638-379q10.637 11 26.362 11Zm374-224H554.007Q538-592 527.5-581.075T517-554v148.8q0 15.81 10.638 26.505Q538.275-368 554-368h112.993Q683-368 693.5-378.667q10.5-10.666 10.5-26.434v-18.551Q704-432 698-438t-14-6h-16q-8 0-14 6t-6 14h-75v-112h75q0 8 6 14t14 6h16q8 0 14-6t6-14.348v-18.551q0-15.768-10.638-26.434Q682.725-592 667-592ZM216-264v-432 432Z"/></svg>