<svg xmlns="http://www.w3.org/2000/svg" height="20" viewBox="0 -960 960 960" width="20"><path d="M456.222-264Q346-264 269-340.843 192-417.686 192-528v-216q0-29.7 21.15-50.85Q234.3-816 264-816h468q54.686 0 93.343 38.722Q864-738.556 864-683.778T825.343-590.5Q786.686-552 732-552h-12v24q0 110.314-76.778 187.157Q566.443-264 456.222-264ZM264-624h384v-120H264v120Zm192.226 288Q536-336 592-392.16T648-528v-24H264v24q0 79.68 56.226 135.84t136 56.16ZM720-624q29 0 50.5-16.5T792-684q0-25-17.5-42.5T732-744h-12v120ZM228.292-144Q213-144 202.5-154.289q-10.5-10.29-10.5-25.5Q192-195 202.344-205.5q10.345-10.5 25.637-10.5h503.727Q747-216 757.5-205.711q10.5 10.29 10.5 25.5Q768-165 757.656-154.5 747.311-144 732.019-144H228.292ZM456-552Z"/></svg>