<svg xmlns="http://www.w3.org/2000/svg" height="20" viewBox="0 -960 960 960" width="20"><path d="M478 0Q301 0 169.5-110.5T6-388q-3-14.356 6-26.178Q21-426 35.5-428t27.052 6.842Q75.103-412.316 78-398q28 134 130 225T449-73l-42-43q-11-11-11-25t11-25q11-11 25.5-11.5T458-167L585.252-39.748Q592-33 589.321-23.1 586.643-13.2 577-11q-29 6-54 8.5T478 0ZM360-288q-29.7 0-50.85-21.15Q288-330.3 288-360v-240h-60q-15.3 0-25.65-10.289-10.35-10.29-10.35-25.5Q192-651 202.35-661.5 212.7-672 228-672h60v-60q0-15.3 10.289-25.65 10.29-10.35 25.5-10.35Q339-768 349.5-757.65 360-747.3 360-732v372h372q15.3 0 25.65 10.289 10.35 10.29 10.35 25.5Q768-309 757.65-298.5 747.3-288 732-288h-60v60q0 15.3-10.289 25.65-10.29 10.35-25.5 10.35Q621-192 610.5-202.35 600-212.7 600-228v-60H360Zm240-144v-168H432v-72h168q29.7 0 50.85 21.15Q672-629.7 672-600v168h-72ZM482-960q177 0 308.5 111T954-571q3 13.978-6 25.489Q939-534 924.5-532t-27.052-6.842Q884.897-547.684 882-562q-28-134-130-225T511-887l42 43q11 11 11 25t-11 25q-11 11-25.5 11.5T502-793L374.748-920.252Q368-927 370.679-936.9q2.678-9.9 12.321-12.1 29-6 54-8.5t45-2.5Z"/></svg>