<svg xmlns="http://www.w3.org/2000/svg" height="20" viewBox="0 -960 960 960" width="20"><path d="M612-192q-15.3 0-25.65-10.289-10.35-10.29-10.35-25.5Q576-243 586.35-253.5 596.7-264 612-264h84v-432h-84q-15.3 0-25.65-10.289-10.35-10.29-10.35-25.5Q576-747 586.35-757.5 596.7-768 612-768h84q29.7 0 50.85 21.162Q768-725.676 768-695.96v432.243Q768-234 746.85-213T696-192h-84Zm-348 0q-29.7 0-50.85-21.162Q192-234.324 192-264.04v-432.243Q192-726 213.15-747T264-768h84q15.3 0 25.65 10.289 10.35 10.29 10.35 25.5Q384-717 373.65-706.5 363.3-696 348-696h-84v432h84q15.3 0 25.65 10.289 10.35 10.29 10.35 25.5Q384-213 373.65-202.5 363.3-192 348-192h-84Z"/></svg>