<svg xmlns="http://www.w3.org/2000/svg" height="20" viewBox="0 -960 960 960" width="20"><path d="M726-204H516q-15.3 0-25.65-10.289-10.35-10.29-10.35-25.5Q480-255 490.35-265.5 500.7-276 516-276h210l-32-32q-11-11-10.5-25.5T695-359q11-11 25.182-11 14.182 0 24.818 11l94.138 94.138Q850-254 850-239.818T839-215l-94.138 94.138Q734-110 719.818-110T695-121q-11-11-11-25.5t11-25.5l31-32ZM156-432h-24q-15.3 0-25.65-10.35Q96-452.7 96-468v-24q0-15.3 10.35-25.65Q116.7-528 132-528h24q15.3 0 25.65 10.35Q192-507.3 192-492v24q0 15.3-10.35 25.65Q171.3-432 156-432Zm239.778 0Q341-432 302.5-470.657 264-509.314 264-564v-168q0-54.686 38.722-93.343Q341.444-864 396.222-864t93.278 38.657Q528-786.686 528-732v168q0 54.686-38.722 93.343Q450.556-432 395.778-432Zm336 0Q677-432 638.5-470.657 600-509.314 600-564v-168q0-54.686 38.722-93.343Q677.444-864 732.222-864t93.278 38.657Q864-786.686 864-732v168q0 54.686-38.722 93.343Q786.556-432 731.778-432ZM396-504q25 0 42.5-17.5T456-564v-168q0-25-17.5-42.5T396-792q-25 0-42.5 17.5T336-732v168q0 25 17.5 42.5T396-504Zm336 0q25 0 42.5-17.5T792-564v-168q0-25-17.5-42.5T732-792q-25 0-42.5 17.5T672-732v168q0 25 17.5 42.5T732-504Z"/></svg>