<svg xmlns="http://www.w3.org/2000/svg" height="20" viewBox="0 -960 960 960" width="20"><path d="M216-144q-29.7 0-50.85-21.15Q144-186.3 144-216v-528q0-29.7 21.15-50.85Q186.3-816 216-816h528q29.7 0 50.85 21.15Q816-773.7 816-744v204q0 15.3-10.29 25.65Q795.42-504 780.21-504t-25.71-10.35Q744-524.7 744-540v-204H216v528h204q15.3 0 25.65 10.29Q456-195.42 456-180.21t-10.35 25.71Q435.3-144 420-144H216Zm0-96v24-528 242-2 264Zm72-84.21q0 15.21 10.35 25.71T324-288h100q15.3 0 25.65-10.29Q460-308.58 460-323.79t-10.35-25.71Q439.3-360 424-360H324q-15.3 0-25.65 10.29Q288-339.42 288-324.21Zm0-156q0 15.21 10.35 25.71T324-444h216q15.3 0 25.65-10.29Q576-464.58 576-479.79t-10.35-25.71Q555.3-516 540-516H324q-15.3 0-25.65 10.29Q288-495.42 288-480.21Zm0-156q0 15.21 10.35 25.71T324-600h312q15.3 0 25.65-10.29Q672-620.58 672-635.79t-10.35-25.71Q651.3-672 636-672H324q-15.3 0-25.65 10.29Q288-651.42 288-636.21ZM719.77-48Q640-48 584-104.23q-56-56.22-56-136Q528-320 584.23-376q56.22-56 136-56Q800-432 856-375.77q56 56.22 56 136Q912-160 855.77-104q-56.22 56-136 56Zm.23-192q25 0 42.5-17.5T780-300q0-25-17.5-42.5T720-360q-25 0-42.5 17.5T660-300q0 25 17.5 42.5T720-240Zm0 120q28 0 51.5-11.5T812-163q5-5 3-12t-9-10q-20-9-41.5-14t-44.5-5q-23 0-44.5 5.5T634-185q-7 3-9 10t3 12q17 20 40.5 31.5T720-120Z"/></svg>