<svg xmlns="http://www.w3.org/2000/svg" height="20" viewBox="0 -960 960 960" width="20"><path d="M120-192v60q0 15.3-10.289 25.65Q99.421-96 84.211-96 69-96 58.5-106.35 48-116.7 48-132v-660q0-29.7 21.15-50.85Q90.3-864 120-864h240q29.7 0 50.85 21.15Q432-821.7 432-792v660.232Q432-117 421.711-106.5q-10.29 10.5-25.5 10.5Q381-96 370.5-106.35 360-116.7 360-132v-60H120Zm652-192-76 75v177q0 15.3-10.289 25.65Q675.421-96 660.211-96 645-96 634.5-106.35 624-116.7 624-132v-206l70-70-22-110q-28 38-67 58.5T515-434q-14 2-24.5-8.5t-10.5-25q0-14.5 10-25.5t24-13q42-5 69.5-25.5T636-594l16-28q20-34 54-45.5t69 3.5l163 69q10.083 4.583 16.042 13.292Q960-573 960-562v94q0 15.3-10.289 25.65-10.29 10.35-25.5 10.35Q909-432 898.5-442.35 888-452.7 888-468v-70l-79-34 85 433q3 17-7.833 30Q875.333-96 858-96q-12.833 0-22.917-8Q825-112 823-125l-51-259ZM120-264h240v-528H120v528Zm87-208 67-41q9-5.357 9-15.179Q283-538 274-543l-67-41q-9-5-18 0t-9 16v80q0 11 9 16t18 0Zm464.752-224Q637-696 612.5-720.748t-24.5-59.5Q588-815 612.748-839.5t59.5-24.5Q707-864 731.5-839.252t24.5 59.5Q756-745 731.252-720.5t-59.5 24.5ZM120-264h240-240Z"/></svg>