<svg xmlns="http://www.w3.org/2000/svg" height="20" viewBox="0 -960 960 960" width="20"><path d="M480-288q80 0 136-56t56-136q0-80-56-136t-136-56q-80 0-136 56t-56 136q0 80 56 136t136 56Zm0-144q-20.4 0-34.2-13.8Q432-459.6 432-480q0-20.4 13.8-34.2Q459.6-528 480-528q20.4 0 34.2 13.8Q528-500.4 528-480q0 20.4-13.8 34.2Q500.4-432 480-432Zm0 336q-79.376 0-149.188-30Q261-156 208.5-208.5T126-330.958q-30-69.959-30-149.5Q96-560 126-629.5t82.5-122Q261-804 330.812-834T480-864q95.806 0 178.903 43T795-702q8 12 4.5 27T782-653q-14 7-28 2.5T731-668q-42-60-109-92t-142-32q-130 0-221 91t-91 221q0 130 91 221t221 91q45 0 86.538-12.279Q608.077-192.558 645-216q13-8 28-6t24.5 14q9.5 12 7.5 26.5T690-159q-47 30-100 46.5T480-96Zm348.211-144Q813-240 802.5-250.35 792-260.7 792-276v-264q0-15.3 10.289-25.65 10.29-10.35 25.5-10.35Q843-576 853.5-565.65 864-555.3 864-540v264q0 15.3-10.289 25.65-10.29 10.35-25.5 10.35Zm0 144Q813-96 802.5-106.289q-10.5-10.29-10.5-25.5Q792-147 802.289-157.5q10.29-10.5 25.5-10.5Q843-168 853.5-157.711q10.5 10.29 10.5 25.5Q864-117 853.711-106.5q-10.29 10.5-25.5 10.5ZM480-480Z"/></svg>