<svg xmlns="http://www.w3.org/2000/svg" height="20" viewBox="0 -960 960 960" width="20"><path d="M480-96q-108 0-174-31.5T240-210q0-17 8.5-32.65Q257-258.3 274-272q13-8 28-4t23 17q8 13 4 27.5T312-209l-.5.5.5-.5q8 14 62 27.5T480-168q52 0 106-13.5t62-27.5l.5.5-.5-.5q-13-8-17-22.5t4-27.5q8-13 23-17t28 4q17 13.7 25.5 29.35Q720-227 720-210q0 51-66 82.5T480-96Zm1-210q95-70 143-143.5t48-144.59q0-98-62-147.95Q548-792 480-792t-130 50.1q-62 50.09-62 148.35 0 64.55 48 137.05Q384-384 481-306Zm-1 73q-11 0-22-3.5T438-248q-112-90-167-177.5t-55-168.29q0-66.69 24-116.95Q264-761 302-795q38-34 84.97-51.5t93-17.5Q526-864 573-846.5t84.86 51.49q37.87 33.99 62 84.5Q744-660 744-593.52q0 80.52-55 168.02Q634-338 522-248q-9 8-20 11.5t-22 3.5Zm.21-295Q510-528 531-549.21t21-51Q552-630 530.79-651t-51-21Q450-672 429-650.5T408-600q0 29 21.21 50.5t51 21.5Zm-.21-72Z"/></svg>