<svg xmlns="http://www.w3.org/2000/svg" height="20" viewBox="0 -960 960 960" width="20"><path d="M359.788-192Q330-192 309-213.212q-21-21.213-21-51Q288-294 309.212-315q21.213-21 51-21Q390-336 411-314.788q21 21.213 21 51Q432-234 410.788-213q-21.213 21-51 21Zm240 0Q570-192 549-213.212q-21-21.213-21-51Q528-294 549.212-315q21.213-21 51-21Q630-336 651-314.788q21 21.213 21 51Q672-234 650.788-213q-21.213 21-51 21Zm-240-216Q330-408 309-429.212q-21-21.213-21-51Q288-510 309.212-531q21.213-21 51-21Q390-552 411-530.788q21 21.213 21 51Q432-450 410.788-429q-21.213 21-51 21Zm240 0Q570-408 549-429.212q-21-21.213-21-51Q528-510 549.212-531q21.213-21 51-21Q630-552 651-530.788q21 21.213 21 51Q672-450 650.788-429q-21.213 21-51 21Zm-240-216Q330-624 309-645.212q-21-21.213-21-51Q288-726 309.212-747q21.213-21 51-21Q390-768 411-746.788q21 21.213 21 51Q432-666 410.788-645q-21.213 21-51 21Zm240 0Q570-624 549-645.212q-21-21.213-21-51Q528-726 549.212-747q21.213-21 51-21Q630-768 651-746.788q21 21.213 21 51Q672-666 650.788-645q-21.213 21-51 21Z"/></svg>