<svg xmlns="http://www.w3.org/2000/svg" height="20" viewBox="0 -960 960 960" width="20"><path d="M576-132v-62.432q0-7.568 3-14.068t8-11.5l199-198q7.258-7.412 16.129-10.706Q811-432 819.759-432q9.556 0 18.315 3.5Q846.833-425 854-418l44 45q6.588 7.258 10.294 16.129Q912-348 912-339.241q0 8.76-3.294 17.917Q905.412-312.167 898-305L700-107q-5 5-11.5 8t-14.068 3H612q-15.3 0-25.65-10.35Q576-116.7 576-132Zm288-207-45-45 45 45ZM624-144h45l115-115-44-45-116 115v45ZM264-96q-29.7 0-50.85-21.15Q192-138.3 192-168v-624q0-29.7 21.15-50.85Q234.3-864 264-864h282q14.222 0 27.111 5Q586-854 597-843l150 150q11 11 16 23.889T768-642v136q0 15.3-10.289 25.65-10.29 10.35-25.5 10.35Q717-470 706.5-480.35 696-490.7 696-506v-118H564q-15.3 0-25.65-10.35Q528-644.7 528-660v-132H264v624h204q15.3 0 25.65 10.289 10.35 10.29 10.35 25.5Q504-117 493.65-106.5 483.3-96 468-96H264Zm0-72v-624 624Zm498-114-22-22 44 45-22-23Z"/></svg>