<svg xmlns="http://www.w3.org/2000/svg" height="20" viewBox="0 -960 960 960" width="20"><path d="M761-300 527-450q-8-5.442-12-13.151t-4-16.779q0-9.07 4-16.831 4-7.761 12-13.239l234-150q5-3 9.5-4.5t9.056-1.5q14.577 0 25.511 9.979Q816-646.041 816-629.711v299.381Q816-314 805.067-304q-10.934 10-25.511 10-4.556 0-9.056-1.5-4.5-1.5-9.5-4.5Zm-384 0L143-450q-8-5.442-12-13.151t-4-16.779q0-9.07 4-16.831 4-7.761 12-13.239l234-150q5-3 9.5-4.5t9.056-1.5q14.577 0 25.511 9.979Q432-646.041 432-629.711v299.381Q432-314 421.067-304q-10.934 10-25.511 10-4.556 0-9.056-1.5-4.5-1.5-9.5-4.5Zm-17-180Zm384 0Zm-384 84v-168l-131 84 131 84Zm384 0v-168l-131 84 131 84Z"/></svg>