<svg xmlns="http://www.w3.org/2000/svg" height="20" viewBox="0 -960 960 960" width="20"><path d="M529-408q-33-45-81.5-70.5T343-504q-59 0-111.5 24T144-408h385ZM342.5-576q47.5 0 92.5 12.5t82.5 37.5q37.5 25 63.5 62t35 85q3 17-7.605 30-10.604 13-27.395 13H92q-16.79 0-27.395-13T57-379q9.6-50.16 37.92-87.012 28.32-36.852 67.2-61.42Q201-552 248-564q47-12 94.5-12ZM84-192q-15.3 0-25.65-10.289Q48-212.579 48-227.789 48-243 58.35-253.5 68.7-264 84-264h504q15.3 0 25.65 10.289 10.35 10.29 10.35 25.5Q624-213 613.65-202.5 603.3-192 588-192H84ZM781-48h-49q-15.3 0-25.65-10.29Q696-68.578 696-83.79q0-15.21 10.35-25.71T732-120h43l57-576H473q-14.875 0-24.938-10.289Q438-716.579 438-731.789 438-747 448.35-757.5 458.7-768 474-768h162v-107.737Q636-891 646.289-901.5q10.29-10.5 25.5-10.5Q687-912 697.5-901.65 708-891.3 708-876v108h164q16.2 0 27.1 11.523Q910-744.955 908-729l-60.092 622.806Q845-81 826-64.5 807-48 781-48Zm-71-72h65-65ZM84-48q-15.3 0-25.65-10.29Q48-68.578 48-83.79 48-99 58.35-109.5T84-120h504q15.3 0 25.65 10.289Q624-99.421 624-84.211 624-69 613.65-58.5 603.3-48 588-48H84Zm259-368Z"/></svg>