<svg xmlns="http://www.w3.org/2000/svg" height="20" viewBox="0 -960 960 960" width="20"><path d="M456-96q-29.7 0-50.85-21.15Q384-138.3 384-168v-167H264q-29.7 0-50.85-21.15Q192-377.3 192-407v-265q0-61 42-102.5T336-816h396q15.3 0 25.65 10.35Q768-795.3 768-780v373q0 29.7-21.5 50.85Q725-335 696-335H576v167q0 29.7-21.5 50.85Q533-96 504-96h-48ZM264-552h432v-192h-48v107.737Q648-621 637.711-610.5q-10.29 10.5-25.5 10.5Q597-600 586.5-610.35 576-620.7 576-636v-108h-48v37q0 15.3-10.289 25.65-10.29 10.35-25.5 10.35Q477-671 466.5-681.494 456-691.987 456-707.5V-744H336q-29.7 0-50.85 20.5Q264-703 264-672v120Zm0 145h432v-73H264v73Zm0 0v-73 73Z"/></svg>