<svg xmlns="http://www.w3.org/2000/svg" height="20" viewBox="0 -960 960 960" width="20"><path d="m284-342 43-75q-47 0-83-37.306T208-544q0-54 37-91t91-37q54 0 91 37t37 91q0 15-4.5 30.5T446-481L346-306q-4.561 8.1-12.772 13.05-8.21 4.95-18.246 4.95Q294-288 283.5-306t.5-36Zm288 0 43-75q-47 0-83-37.306T496-544q0-54 37-91t91-37q54 0 91 37t37 91q0 17-4.5 33T735-481L634-306q-4.561 8.1-12.772 13.05-8.21 4.95-18.246 4.95Q582-288 571.5-306t.5-36ZM335.765-488Q359-488 375.5-504.265q16.5-16.264 16.5-39.5Q392-567 375.735-583.5q-16.264-16.5-39.5-16.5Q313-600 296.5-583.735q-16.5 16.264-16.5 39.5Q280-521 296.265-504.5q16.264 16.5 39.5 16.5Zm288 0Q647-488 663.5-504.265q16.5-16.264 16.5-39.5Q680-567 663.735-583.5q-16.264-16.5-39.5-16.5Q601-600 584.5-583.735q-16.5 16.264-16.5 39.5Q568-521 584.265-504.5q16.264 16.5 39.5 16.5Zm.235-56Zm-288 0Z"/></svg>