<svg xmlns="http://www.w3.org/2000/svg" height="20" viewBox="0 -960 960 960" width="20"><path d="M288-264v84q0 15.3-10.289 25.65-10.29 10.35-25.5 10.35Q237-144 226.5-154.35 216-164.7 216-180v-84h-60q-15.3 0-25.65-10.289-10.35-10.29-10.35-25.5Q120-315 130.35-325.5 140.7-336 156-336h60v-188l-60 46q-12 9-26.5 7T106-485q-9-12-7.202-26.435 1.799-14.436 14.388-23.458L436-783q10-8 21.5-11t22.5-3q11 0 22.5 3t21.5 11l323.293 247.982Q859-526 861-511.5t-7 26.5q-9 12-23.5 14t-26.5-7l-60-46v188h60q15.3 0 25.65 10.289 10.35 10.29 10.35 25.5Q840-285 829.65-274.5 819.3-264 804-264h-60v84q0 15.3-10.289 25.65-10.29 10.35-25.5 10.35Q693-144 682.5-154.35 672-164.7 672-180v-84H516v84q0 15.3-10.289 25.65-10.29 10.35-25.5 10.35Q465-144 454.5-154.35 444-164.7 444-180v-84H288Zm0-72h156v-362L288-579v243Zm228 0h156v-243L516-698v362Z"/></svg>