<svg xmlns="http://www.w3.org/2000/svg" height="20" viewBox="0 -960 960 960" width="20"><path d="M360-168q-130 0-221-91T48-480q0-130 91-221t221-91q130 0 221 91t91 221q0 130-91 221t-221 91Zm0-72q100 0 170-70t70-170q0-100-70-170t-170-70q-100 0-170 70t-70 170q0 100 70 170t170 70Zm-36-300v168q0 15.3 10.289 25.65 10.29 10.35 25.5 10.35Q375-336 385.5-346.35 396-356.7 396-372v-168h54q13 0 21.5-8.5T480-570q0-13-8.5-21.5T450-600H270q-13 0-21.5 8.5T240-570q0 13 8.5 21.5T270-540h54Zm399.458-183.088L660-752q-11-5-11-16t10.842-15.533l63.246-29.009L752-876q5-11 16-11t15.533 10.842l29.009 63.246L876-784q11 5 11 16t-10.842 15.533l-63.246 29.009L784-660q-5 11-16 11t-15.533-10.842l-29.009-63.246Zm0 576L660-176q-11-5-11-16t10.842-15.533l63.246-29.009L752-300q5-11 16-11t15.533 10.842l29.009 63.246L876-208q11 5 11 16t-10.842 15.533l-63.246 29.009L784-84q-5 11-16 11t-15.533-10.842l-29.009-63.246ZM363-480Z"/></svg>