<svg xmlns="http://www.w3.org/2000/svg" height="20" viewBox="0 -960 960 960" width="20"><path d="M504-384q-10.4 0-17.2-6.785-6.8-6.785-6.8-17.161v-143.677Q480-562 486.8-569q6.8-7 17.2-7 10.4 0 17.2 6.785 6.8 6.785 6.8 17.161v143.677Q528-398 521.2-391q-6.8 7-17.2 7Zm-192 0q-10 0-17-7t-7-17v-144q0-10 7-17t17-7h96.364Q418-576 425-569.2t7 17.2q0 10.4-6.8 17.2-6.8 6.8-17.2 6.8h-72v96h48v-23.721Q384-466 390.8-473t17.2-7q10.4 0 17.2 6.8 6.8 6.8 6.8 17.2v48q0 10-7 17t-17 7h-96Zm288 0q-10.4 0-17.2-6.785-6.8-6.785-6.8-17.161v-143.677Q576-562 582.779-569q6.779-7 17.147-7h95.706Q706-576 713-569.2q7 6.8 7 17.2 0 10.4-6.8 17.2-6.8 6.8-17.2 6.8h-72v32h40q10.4 0 17.2 6.8 6.8 6.8 6.8 17.2 0 10.344-6.8 17.108-6.8 6.763-17.2 6.763h-40v39.785Q624-398 617.2-391q-6.8 7-17.2 7Z"/></svg>