<svg xmlns="http://www.w3.org/2000/svg" height="20" viewBox="0 -960 960 960" width="20"><path d="M263.788-192Q234-192 213-213.212q-21-21.213-21-51Q192-294 213.212-315q21.213-21 51-21Q294-336 315-314.788q21 21.213 21 51Q336-234 314.788-213q-21.213 21-51 21Zm288 0Q522-192 501-213.212q-21-21.213-21-51Q480-294 501.212-315q21.213-21 51-21Q582-336 603-314.788q21 21.213 21 51Q624-234 602.788-213q-21.213 21-51 21Zm-144-144Q378-336 357-357.212q-21-21.213-21-51Q336-438 357.212-459q21.213-21 51-21Q438-480 459-458.788q21 21.213 21 51Q480-378 458.788-357q-21.213 21-51 21Zm288 0Q666-336 645-357.212q-21-21.213-21-51Q624-438 645.212-459q21.213-21 51-21Q726-480 747-458.788q21 21.213 21 51Q768-378 746.788-357q-21.213 21-51 21Zm-432-144Q234-480 213-501.212q-21-21.213-21-51Q192-582 213.212-603q21.213-21 51-21Q294-624 315-602.788q21 21.213 21 51Q336-522 314.788-501q-21.213 21-51 21Zm288 0Q522-480 501-501.212q-21-21.213-21-51Q480-582 501.212-603q21.213-21 51-21Q582-624 603-602.788q21 21.213 21 51Q624-522 602.788-501q-21.213 21-51 21Zm-144-144Q378-624 357-645.212q-21-21.213-21-51Q336-726 357.212-747q21.213-21 51-21Q438-768 459-746.788q21 21.213 21 51Q480-666 458.788-645q-21.213 21-51 21Zm288 0Q666-624 645-645.212q-21-21.213-21-51Q624-726 645.212-747q21.213-21 51-21Q726-768 747-746.788q21 21.213 21 51Q768-666 746.788-645q-21.213 21-51 21Z"/></svg>