<svg xmlns="http://www.w3.org/2000/svg" height="20" viewBox="0 -960 960 960" width="20"><path d="M395-480q-23.188 0-38.094-18Q342-516 348-538l17-88q8-42 40.5-68t74.017-26Q522-720 554.5-694q32.5 26 40.5 68l17 88q5 23.2-9.5 40.6Q588-480 565-480H395Zm29-72h112l-12-60q-3-16-15.54-26t-28.5-10q-15.96 0-28.46 10T436-612l-12 60ZM132.089-432Q110-431 94.5-441T74-470.6q-2-8.4-1-17.9 1-9.5 5-16.5l-1-3q-3-3-9.4-23.706Q66-543 70.5-553T83-571l2-3q2-17 15-30t31-13q5 0 19.316 5l2.684-1q5-5 12.333-8 7.334-3 15.584-3 10.083 0 18.583 3.5Q208-617 213-610q1 0 1.5.5t1.5.5q12.8 1 22.4 8.5 9.6 7.5 15.314 19.85Q256-574 255.5-567.5t-2.5 11.794q0 .882 1 3.53 6 6.176 10 14.676t4 17.5q0 2-5 19-1 2 0 4l2 16q0 20.176-17.5 34.588Q230-432 207-432h-74.911Zm660.411 0q-30.5 0-51.5-21.212-21-21.213-21-51 0-10.832 3.5-20.31Q727-534 732-543l-32-28q-8-8-3.5-18.5T714-600h78q29.7 0 50.85 21.15Q864-557.7 864-528v18q0 32.175-20.5 55.087Q823-432 792.5-432ZM0-276v-24q0-53 49.5-78T168-403q15 0 30 1.5t30 4.5q-18 18-27 45.5t-9 51.5v60H36q-15.3 0-25.65-10.35Q0-260.7 0-276Zm240 0v-24q0-59.172 61-95.586T480-432q118 0 179 36.414T720-300v24q0 15.3-10.35 25.65Q699.3-240 684-240H276q-15.3 0-25.65-10.35Q240-260.7 240-276Zm552-127q69 0 118.5 25t49.5 78v24q0 15.3-10.35 25.65Q939.3-240 924-240H768v-60q0-24-8.5-51.5T732-397q15-3 29.786-4.5Q776.571-403 792-403Zm-312 43q-64 0-101 11.5T314-312h332q-29-25-65.5-36.5T480-360Zm1 48Zm-1-288Z"/></svg>