<svg xmlns="http://www.w3.org/2000/svg" height="20" viewBox="0 -960 960 960" width="20"><path d="M431.887-516Q452-516 466-529.887q14-13.888 14-34Q480-584 466.113-598q-13.888-14-34-14Q412-612 398-598.113q-14 13.888-14 34Q384-544 397.887-530q13.888 14 34 14ZM461-350l186-186q11-10.667 11-25.333Q658-576 647-587q-11-11-25.667-11-14.666 0-25.333 11L409-400q-11 10.636-10.5 24.818Q399-361 410-350q11 11 25.667 11 14.666 0 25.333-11Zm162.887 26Q644-324 658-337.887q14-13.888 14-34Q672-392 658.113-406q-13.888-14-34-14Q604-420 590-406.113q-14 13.888-14 34Q576-352 589.887-338q13.888 14 34 14ZM744-192H312q-29 0-50.5-21.5T240-264v-576q0-29 21.5-50.5T312-912h282q14.222 0 27.111 5Q634-902 645-891l150 150q11 11 16 23.889T816-690v426q0 29-21.5 50.5T744-192Zm0-480H630q-22.5 0-38.25-15.75T576-726v-114H312v576h432v-408ZM168-48q-29 0-50.5-21.5T96-120v-516q0-15.3 10.289-25.65 10.29-10.35 25.5-10.35Q147-672 157.5-661.65 168-651.3 168-636v516h420q15.3 0 25.65 10.289Q624-99.421 624-84.211 624-69 613.65-58.5 603.3-48 588-48H168Zm144-792v195-195 576-576Z"/></svg>