<svg xmlns="http://www.w3.org/2000/svg" height="20" viewBox="0 -960 960 960" width="20"><path d="M168-192q-29.7 0-50.85-21.162Q96-234.324 96-264.04v-432.243Q96-726 118.031-747T171-768h11v91L81-778q-11-11-10.5-25T82-828q11-11 25-11t25.352 11.337l695.296 695.326Q839-121 839-106.818 839-92.636 828-82q-11 11-25.5 11.5T777-81L666-192H168Zm0-72h426L234-624h-66v360Zm696-432v420q0 18-11.25 27T828-240q-13.5 0-24.75-9.22Q792-258.439 792-276v-348H468q-14.222 0-27.111-5Q428-634 417-645l-61.923-62.013Q347-716 345-726.5q-2-10.5 2-19.5t13-15.5q9-6.5 21-6.5h411q29.7 0 50.85 21.15Q864-725.7 864-696ZM720-516v116q0 12.414-7.646 18.207-7.647 5.793-16.5 5.793-8.854 0-16.354-6.5T672-400v-104H568q-11 0-17.5-7.646-6.5-7.647-6.5-16.5 0-8.854 5.793-16.354T568-552h116q15.3 0 25.65 10.35Q720-531.3 720-516Z"/></svg>