<svg xmlns="http://www.w3.org/2000/svg" height="20" viewBox="0 -960 960 960" width="20"><path d="M216-192q-29 0-50.5-21.5T144-264v-528q0-29.7 21.5-50.85Q187-864 216-864h528q29.7 0 50.85 21.15Q816-821.7 816-792v205q0 15.256-10.289 25.128-10.29 9.872-25.5 9.872Q765-552 754.5-562.35 744-572.7 744-588v-204H216v312h139q11 0 22.5 5t13.5 16q7 29 24 46.5t40 24.5q11 4 18 13.375T480-354q0 18-14.5 28.5T434-320q-38-11-64-34t-41.883-54H216v144h228q15.3 0 25.65 10.289 10.35 10.29 10.35 25.5Q480-213 469.65-202.5 459.3-192 444-192H216Zm0-72h249-1.375H465 216Zm467 111q-16-5-28-12t-21-16l-41.613 13q-6.774 2-12.581-.5Q574-171 571-175.731l-18-31.538Q550-212 550.5-218t5.368-11.147L588-259q-3-15-3-29.5t3-28.5l-32.132-29q-4.868-5-5.368-11t2.5-10.731l18-31.538q3-4.731 8.368-7.231 5.369-2.5 11.632-.5l42 12q12-11 24-17.5t25.714-11.296L693-466q2-6.125 6.5-10.062Q704-480 710-480h36q6 0 10.5 3.938Q761-472.125 763-466l10 42q14 4 27.5 11t24.5 18l40-11q6-2 12 .5t8.875 7.115l17.25 30.77Q906-363 905.5-356.5t-5.105 11.353L870-317q3 14 3 28.5t-4 30.5l31.263 29q4.737 5 5.237 11t-2.375 10.731l-17.25 31.538Q883-171 877.194-168.5q-5.807 2.5-12.581.5L823-180q-9 10-21 16.5T773-152l-10 42q-2.182 6.125-7.091 10.063Q751-96 745.125-96h-35.25q-5.875 0-10.784-3.938Q694.182-103.874 692-110l-9-43Zm46.212-63Q759-216 780-237.212q21-21.213 21-51Q801-318 779.788-339q-21.213-21-51-21Q699-360 678-338.788q-21 21.213-21 51Q657-258 678.212-237q21.213 21 51 21Z"/></svg>