<svg xmlns="http://www.w3.org/2000/svg" height="20" viewBox="0 -960 960 960" width="20"><path d="M380-564Zm-32 252H180q-15.3 0-25.65-10.4Q144-332.81 144-348.19V-369q0-8 3-14.5t8-11.5l85-85v-264h-12q-15.3 0-25.65-10.29Q192-764.58 192-779.79t10.35-25.71Q212.7-816 228-816h145q15.3 0 25.65 10.29Q409-795.42 409-780.21t-10.35 25.71Q388.3-744 373-744h-61v264q0 14.22-5 27.11Q302-440 291-429l-45 45h294q15.3 0 25.65 10.29Q576-363.42 576-348.21t-10.35 25.71Q555.3-312 540-312H420v222q0 15.3-10.29 25.65Q399.42-54 384.21-54T358.5-64.35Q348-74.7 348-90v-222Zm275.77-120Q544-432 488-488.16 432-544.32 432-624q0-80.92 56-137.96Q544-819 624-816t136 58q56 55 56 134.48 0 79.48-56.23 135.5-56.22 56.02-136 56.02Zm.23-192q25 0 42.5-17.5T684-684q0-25-17.5-42.5T624-744q-25 0-42.5 17.5T564-684q0 25 17.5 42.5T624-624Zm0 120q26 0 50.5-11.5T716-547q5-5 3-12.5t-9-10.5q-19.95-9-41.47-13.5Q647-588 624.21-588q-22.8 0-44.5 4.5Q558-579 538-570q-7 3-9 10.5t3 12.5q17 20 41.5 31.5T624-504Z"/></svg>