<svg xmlns="http://www.w3.org/2000/svg" height="20" viewBox="0 -960 960 960" width="20"><path d="M600-360h144v-84H600v84Zm0-156h144v-84H600v84ZM215.736-288Q186-288 165-309.15 144-330.3 144-360v-240q0-29.7 21.126-50.85Q186.253-672 215.919-672h179.798Q411-672 421.5-661.711q10.5 10.29 10.5 25.5Q432-621 421.65-610.5 411.3-600 396-600H216v240h144v-84h-35.789Q309-444 298.5-454.289q-10.5-10.29-10.5-25.5Q288-495 298.325-505.5 308.65-516 323.912-516h71.825Q411-516 421.5-505.65 432-495.3 432-480v120q0 29.7-21.176 50.85Q389.648-288 359.912-288H215.736Zm348.547 0Q549-288 538.5-298.35 528-308.7 528-324v-312q0-15.3 10.363-25.65Q548.725-672 564.044-672h180.22Q774-672 795-650.85q21 21.15 21 50.85v72q0 20-14 34t-34 14q20 0 34 14t14 34v72q0 29.7-21.126 50.85Q773.747-288 744.081-288H564.283Z"/></svg>