<svg xmlns="http://www.w3.org/2000/svg" height="20" viewBox="0 -960 960 960" width="20"><path d="m480-415 82 62q5 4 10.5.062Q578-356.875 576-363l-32-101 84-66q5-4.444 3-10.222T622.319-546H521l-32-100q-1.778-6-8.889-6-7.111 0-9.111 6l-32.162 100H337.622Q331-546 329-540t3 10l84 66-32 101q-2 6.125 3.5 10.062Q393-349 398-353l82-62Zm0 315q-6 0-12-.5t-11-2.5q-131-43-210-159t-79-253v-180q0-22.692 12.5-40.846Q193-754 214-762l240-92q13-5 26-5t26 5l240 92q21 8 33.5 26.154T792-695v180q0 137-79 253T503-103q-5 2-11 2.5t-12 .5Zm0-71q104-32.25 172-129t68-215v-180l-240-92-240 92v180q0 118.25 68 215t172 129Zm0-308Z"/></svg>