<svg xmlns="http://www.w3.org/2000/svg" height="20" viewBox="0 -960 960 960" width="20"><path d="M816-504v287.638q0 29.849-21.15 51.106Q773.7-144 744-144H216q-29.7 0-50.85-21.5Q144-187 144-216v-289q-33-23-41.5-59t.5-76l46-128q5-24 23-36t43.672-12h528.656Q770-816 787.5-805q17.5 11 23.5 37l46 128q9 40 0 76t-41 60Zm-248-48q21 0 35.5-14t12.5-34l-24-144h-72v143.621Q520-580 534-566q14 14 34 14Zm-176.5 0q20.5 0 34.5-14t14-34.379V-744h-72l-24 144q-2 20 12.5 34t35 14ZM216-552q18 0 31.5-11t15.5-28l25-153h-72l-45 128q-8 23 6 43.5t39 20.5Zm528 0q25 0 39.5-20.5T790-616l-46-128h-72l25 153q2 17 16 28t31 11ZM216-216h528v-264q-25 0-47.5-9.5T656-519q-18 20-40.361 29.5Q593.278-480 568-480q-25.176 0-47.088-10Q499-500 480-519q-17 19-40 29t-48 10q-25 0-47-8.5T304-519q-22.016 21.553-43.508 30.276Q239-480 216-480v264Zm528 0H216h.5-.714 528.283H743h1Zm-431.926-24h96.296q9.63 0 16.63-7.2 7-7.2 7-16.8 0-9.6-7.2-16.8-7.2-7.2-16.8-7.2h-72v-24h72.353Q418-312 425-319.2q7-7.2 7-16.8v-72q0-9.6-7.222-16.8-7.222-7.2-16.852-7.2H311.63q-9.63 0-16.63 7.2-7 7.2-7 16.8 0 9.6 7.2 16.8 7.2 7.2 16.8 7.2h72v24h-72.353Q302-360 295-352.8q-7 7.2-7 16.8v72q0 9.6 7.222 16.8 7.222 7.2 16.852 7.2ZM624-288v24q0 9.6 7.2 16.8 7.2 7.2 16.8 7.2 9.6 0 16.8-7.2 7.2-7.2 7.2-16.8v-144q0-9.6-7.2-16.8-7.2-7.2-16.8-7.2-9.6 0-16.8 7.2-7.2 7.2-7.2 16.8v72h-48v-72q0-9.6-7.2-16.8-7.2-7.2-16.8-7.2-9.6 0-16.8 7.222-7.2 7.222-7.2 16.852v96.296q0 9.63 7.2 16.63 7.2 7 16.8 7h72Z"/></svg>