<svg xmlns="http://www.w3.org/2000/svg" height="20" viewBox="0 -960 960 960" width="20"><path d="M408-132v-204h-35.789Q357-336 346.5-346.363 336-356.725 336-372.044v-180.22Q336-582 357.176-603q21.176-21 50.912-21h144.176Q582-624 603-602.874q21 21.127 21 50.793v179.798Q624-357 613.65-346.5 603.3-336 588-336h-36v204q0 15.3-10.325 25.65Q531.35-96 516.088-96h-71.825Q429-96 418.5-106.35 408-116.7 408-132Zm47-565-46-46q-11-10.636-11-24.818Q398-782 409-793l46-46q10.636-11 24.818-11Q494-850 505-839l46 46q11 10.636 11 24.818Q562-754 551-743l-46 46q-10.636 11-24.818 11Q466-686 455-697Z"/></svg>