<svg xmlns="http://www.w3.org/2000/svg" height="20" viewBox="0 -960 960 960" width="20"><path d="m149-811 69 69h-50v430h378L80.84-777.159Q70-788 70-802q0-14 11-25t25.5-11q14.5 0 25.5 11l696 696q11 11 11 25t-11 25q-11 11-25 11.5T778-80L615-240h9l37 37q5 5 8 11.5t3 14.5q0 14.025-9.487 23.512Q653.025-144 639-144H320.535Q307-144 297.5-153.488 288-162.975 288-177q0-8 3-14.5t8-11.5l37-37H168q-29 0-50.5-21.5T96-312v-432q0-33.959 26.5-50.479L149-811Zm643-5q15.3 0 28.35 5.85t22.5 15.3q9.45 9.45 15.3 22.5Q864-759.3 864-744v463q0 15.3-10.289 25.65-10.29 10.35-25.5 10.35Q813-245 802.5-255.35 792-265.7 792-281v-463H333q-17 0-26.5-11.25T297-780q0-13.5 9-24.75T333-816h459ZM555-507Zm-198 6Z"/></svg>