<svg xmlns="http://www.w3.org/2000/svg" height="20" viewBox="0 -960 960 960" width="20"><path d="M479.789-408Q495-408 505.5-418.35 516-428.7 516-444v-192q0-15.3-10.289-25.65-10.29-10.35-25.5-10.35Q465-672 454.5-661.65 444-651.3 444-636v192q0 15.3 10.289 25.65 10.29 10.35 25.5 10.35Zm120-72Q615-480 625.5-490.35 636-500.7 636-516v-96q0-15.3-10.289-25.65-10.29-10.35-25.5-10.35Q585-648 574.5-637.65 564-627.3 564-612v96q0 15.3 10.289 25.65 10.29 10.35 25.5 10.35Zm-240 0Q375-480 385.5-490.325 396-500.65 396-515.912v-71.825Q396-603 385.711-613.5q-10.29-10.5-25.5-10.5Q345-624 334.5-613.675 324-603.35 324-588.088v71.825Q324-501 334.289-490.5q10.29 10.5 25.5 10.5ZM264-271q-57-48-88.5-115.569Q144-454.139 144-529q0-139.583 98.292-237.292Q340.583-864 481-864q109 0 196 58.5T792-653l66 223q5 17.48-5.5 31.74Q842-384 824-384h-56v120q0 29.7-21.15 50.85Q725.7-192 696-192h-96v60q0 15.3-10.289 25.65Q579.421-96 564.211-96 549-96 538.5-106.35 528-116.7 528-132v-96q0-15.3 10.35-25.65Q548.7-264 564-264h132v-156q0-15.3 10.35-25.65Q716.7-456 732-456h44l-52-173q-22-72-89.5-117.5T481-792q-111 0-188 76.63-77 76.629-77 186.37 0 58.929 25 111.964Q266-364 311-326l25 22v172q0 15.3-10.289 25.65Q315.421-96 300.211-96 285-96 274.5-106.35 264-116.7 264-132v-139Zm232-173Z"/></svg>