<svg xmlns="http://www.w3.org/2000/svg" height="20" viewBox="0 -960 960 960" width="20"><path d="M216-168v48h432v-48H216Zm376-270 196.105-196.105Q799-645 813-644.5t25 11.5q11 11 11 25.5t-10.721 25.221L618-362q-10.909 11-25.455 11Q578-351 567-362L448-481q-11-11-11-25t11-25q11-11 25.5-11t25.5 11l93 93ZM216-792h432v-48H216v48Zm0 0v-48 48Zm0 624v48-48Zm0 120q-29.7 0-50.85-21.15Q144-90.3 144-120v-720q0-29.7 21.15-50.85Q186.3-912 216-912h432q29.7 0 50.85 21.15Q720-869.7 720-840v132q0 15.3-10.289 25.65-10.29 10.35-25.5 10.35Q669-672 658.5-682.35 648-692.7 648-708v-12H216v480h432v-12q0-15.3 10.289-25.65 10.29-10.35 25.5-10.35Q699-288 709.5-277.65 720-267.3 720-252v132q0 29.7-21.15 50.85Q677.7-48 648-48H216Z"/></svg>