<svg xmlns="http://www.w3.org/2000/svg" height="20" viewBox="0 -960 960 960" width="20"><path d="M96-696q0-32 22.564-52 22.563-20 54.249-20h614.502Q819-768 841.5-748q22.5 20 22.5 52v84q0 15.3-10.289 25.65-10.29 10.35-25.5 10.35Q813-576 802.5-586.35 792-596.7 792-612v-84H168v84q0 15.3-10.289 25.65-10.29 10.35-25.5 10.35Q117-576 106.5-586.35 96-596.7 96-612v-84Zm76.685 504Q141-192 118.5-212 96-232 96-264v-84q0-15.3 10.289-25.65 10.29-10.35 25.5-10.35Q147-384 157.5-373.65 168-363.3 168-348v84h624v-84q0-15.3 10.289-25.65 10.29-10.35 25.5-10.35Q843-384 853.5-373.65 864-363.3 864-348v84q0 32-22.564 52t-54.249 20H172.685ZM408-312q9.581 0 18.29-5 8.71-5 13.245-14.131L552-537l40 74q4 10 12.5 14.5t19.709 4.5H828q15.3 0 25.65-10.289 10.35-10.29 10.35-25.5Q864-495 853.65-505.5 843.3-516 828-516H646l-62-113q-5-10-13.71-14.5-8.709-4.5-18.29-4.5t-18.29 4.5Q525-639 520-629L408-423l-40.408-73.778Q363-506 354.29-511q-8.709-5-18.29-5H132q-15.3 0-25.65 10.289Q96-495.421 96-480.211 96-465 106.35-454.5 116.7-444 132-444h182l62.473 112.993Q381-322 389.71-317q8.709 5 18.29 5Zm72-168Z"/></svg>