<svg xmlns="http://www.w3.org/2000/svg" height="20" viewBox="0 -960 960 960" width="20"><path d="M432-288q-6 0-11-4t-6.929-9.769q-13.5-40.385-32.785-67.308Q362-396 344-421q-18-25-31-51.909t-13-65.351Q300-594 338.722-633q38.722-39 93.5-39t93.278 39.178q38.5 39.178 38.5 94.6Q564-500 551-473q-13 27-31 52t-37.286 51.923q-19.285 26.923-32.785 67.308Q448-296 443-292t-11 4Zm0-90q10-16.579 20-30.789Q462-423 472-436q20-27 32-48.739 12-21.739 12-53.261 0-36-24.748-61t-59.5-25Q397-624 372.5-599T348-537.806Q348-506 360-484.5q12 21.5 32 48.5 10 13 20 27.211 10 14.21 20 30.789Zm-.113-102Q452-480 466-493.887q14-13.888 14-34Q480-548 466.113-562q-13.888-14-34-14Q412-576 398-562.113q-14 13.888-14 34Q384-508 397.887-494q13.888 14 34 14Zm.113-48Zm0 384q-140 0-238-98T96-480q0-70 26.6-131.133 26.6-61.134 71.867-106.4 45.266-45.267 106.4-71.867Q362-816 432-816q69 0 130.5 26.5T670-717q46 46 73 109t25 135l21-21q11-11 25-11t25 10.522Q850-483 850-468.37t-10.631 25.27l-82.389 82.46Q746.349-350 732.174-350q-14.174 0-24.841-10.64l-83.555-83.347Q613-454.627 613.5-468.813 614-483 625-494.478 636-505 650.5-505t25.5 11l20 20q2-113-75.9-191.5T432-744q-109.371 0-186.686 77.314Q168-589.371 168-480q0 109 77.5 186.5T432-216q54.592 0 102.796-21Q583-258 619-294q11-11 26-12t26 10q11 11 10.5 27T670-242q-45 46-106.5 72T432-144Z"/></svg>