<svg xmlns="http://www.w3.org/2000/svg" height="20" viewBox="0 -960 960 960" width="20"><path d="M168-264v-288 295-7Zm0 72q-29 0-50.5-21.5T96-264v-432q0-29 20.5-50.5T168-768h48l60 120q5 11 15.78 17.5Q302.561-624 315-624q23.71 0 36.355-20Q364-664 353-686l-41-82h72l60 120q5 11 15.78 17.5Q470.561-624 483-624q23.71 0 36.355-20Q532-664 521-686l-41-82h72l60 120q5 11 15.781 17.5Q638.561-624 651-624q23.71 0 36.355-20Q700-664 689-686l-41-82h144q29.7 0 50.85 21.5Q864-725 864-696v108q0 15.3-10.35 25.65Q843.3-552 828-552H168v288h300q15.3 0 25.65 10.289 10.35 10.29 10.35 25.5Q504-213 493.65-202.5 483.3-192 468-192H168Zm408 12v-62.432q0-7.568 3-14.068t8-11.5l199-198q7.258-7.412 16.129-10.706Q811-480 819.759-480q9.556 0 18.315 3.5Q846.833-473 854-466l44 45q6.588 7.258 10.294 16.129Q912-396 912-387.241q0 8.76-3.294 17.917Q905.412-360.167 898-353L700-155q-5 5-11.5 8t-14.068 3H612q-15.3 0-25.65-10.35Q576-164.7 576-180Zm288-207-45-45 45 45ZM624-192h45l115-115-22-23-22-22-116 115v45Zm138-138-22-22 44 45-22-23Z"/></svg>