<svg xmlns="http://www.w3.org/2000/svg" height="20" viewBox="0 -960 960 960" width="20"><path d="M167.788-248Q138-248 117-269.15 96-290.3 96-320v-336q0-29.7 21.15-50.85Q138.3-728 168-728q24 0 43.5 15t25.5 38q32-48 82.5-75T429-777q50 0 94 18t79 53l169 169q11 11 16 23.836 5 12.836 5 27t-5 27.664q-5 13.5-16.22 24.677L533.285-197.245Q523-187 510.164-181.5q-12.836 5.5-27 5.5T456-181q-13-5-24-16L288-340l-25-25q-12-12-23-29v74q0 29.7-21.212 50.85-21.213 21.15-51 21.15ZM264-537q0 57 25 89t50 57l143 143 238-238-169-169q-24-24-55-36.5T429-704q-68.75 0-116.875 49T264-537Zm239 77Z"/></svg>