<svg xmlns="http://www.w3.org/2000/svg" height="20" viewBox="0 -960 960 960" width="20"><path d="M480-744q-103.472 0-198.236 32T106-619l148 148q49-40 106.185-60.5Q417.369-552 480-552q36.444 0 70.222 6.5Q584-539 615.846-525 630-519 631.5-503T619-477q-42 33-67 81.5T527-290q0 9.167 1.667 17.5 1.666 8.333 3.333 17.5 1.667 9.167 3.333 17.5Q537-229.167 537-220q0 22.326-16.176 35.163Q504.647-172 482-172q-14 0-27.5-5.5T429-195L56.324-567.676Q45-579 40-592.043 35-605.087 35-619q0-16 7-30t19-25q88-73 196.154-107.5Q365.307-816 480-816t222.846 34.5Q811-747 899-674q12 11 19 25t7 30q0 13.913-5 26.957Q915-579 904-568l-53 53q-11 11-25.5 11T800-515q-11-11-11-25t11-25l54-54q-81-61-175.764-93Q583.472-744 480-744Zm192 600q-10.2 0-17.1-6.9-6.9-6.9-6.9-17.1v-144q0-10.2 6.9-17.1 6.9-6.9 17.1-6.9h24v-48q0-29.7 21.212-50.85 21.213-21.15 51-21.15Q798-456 819-434.85q21 21.15 21 50.85v48h24q10.2 0 17.1 6.9 6.9 6.9 6.9 17.1v144q0 10.2-6.9 17.1-6.9 6.9-17.1 6.9H672Zm60-192h72v-48q0-15.3-10.289-25.65-10.29-10.35-25.5-10.35Q753-420 742.5-409.65 732-399.3 732-384v48Z"/></svg>