<svg xmlns="http://www.w3.org/2000/svg" height="20" viewBox="0 -960 960 960" width="20"><path d="M600-624v-96q0-50-34.79-85T480-840q-36 0-66 20.5T370-764q-6 14-19 21t-26.576 2Q310-746 303-759.5t-2-27.5q20.169-56.92 69.585-90.96Q420-912 480.411-912 560-912 616-855.84T672-720v96h24q29.7 0 50.85 21.228Q768-581.543 768-551.733v180.666Q768-353 756.75-344T732-335q-13.5 0-24.75-9.22Q696-353.439 696-371v-181H514.182Q496-552 487-563.25T478-588q0-13.5 9-24.75T514-624h86ZM263.719-96Q234-96 212.5-117T192-168v-384q0-23 13.106-41.529Q218.212-612.059 239-620L81.132-777.868Q70-789 70-803q0-14 11-25t26-11q15 0 26 11l695 696q11 11 11 25t-11 25q-11 11-25.5 11t-25.256-10.756L744-115q-9 8-21.5 13.5T696-96H263.719ZM690-168 538-320q-9 15-25 23.5t-33 8.5q-29.7 0-50.85-21.15Q408-330.3 408-360q0-17 7.5-32.5T439-419L306-552h-42v384h426ZM488-370Zm112-92Z"/></svg>