<svg xmlns="http://www.w3.org/2000/svg" height="20" viewBox="0 -960 960 960" width="20"><path d="M263.788-96Q234-96 213-117.212q-21-21.213-21-51Q192-198 213.212-219q21.213-21 51-21Q294-240 315-218.788q21 21.213 21 51Q336-138 314.788-117q-21.213 21-51 21ZM672-390l-72-72.446V-601l-64 75-51-51 171-200q17-19 39.5-29t48.5-10q50.149 0 85.075 34.895 34.925 34.894 34.925 85v.894Q864-680 853.711-669.5q-10.29 10.5-25.5 10.5-15.211 0-25.646-10.289-10.435-10.29-10.435-25.5v-.895q0-20.579-14.065-34.448Q764-744 744-744q-11 0-20 4.25T708-727l-36 42v295Zm-72 30 54 54q-12 11-27 14.5t-31 3.5H290q-15.489 0-21.745-14Q262-316 272-327l119-140-276-276q-11-11-11-25.5t10.522-25.5q11.478-11 26.145-11 14.666 0 25.333 11l628.886 628.886Q806-154 806-140t-11 25.478Q784-104 769.5-104t-25.419-10.884L442-416l-47 56h205Zm47.504 264q-29.495 0-50.5-21.004Q576-138.009 576-167.504 576-197 596.589-218.5q20.588-21.5 49.5-21.5Q675-240 695.5-218.5T716-168q0 29-19.5 50.5T647.504-96ZM442-416Zm94-110ZM434-628l-51-51 52-63q-8-1-14-1.5t-13-.5q-21.404 0-41.202 3.5t-36.944 8.5L273-789q32-13 65.5-20t69.5-7q41 0 79 9t74 28L434-628Zm-51-51Z"/></svg>