<svg xmlns="http://www.w3.org/2000/svg" height="20" viewBox="0 -960 960 960" width="20"><path d="M266-579q-21-28-33.5-60.179-12.5-32.178-12.5-67.196 0-6.625.5-12.625t1.5-13q1.913-14.927 11.957-25.463Q244-768 258-768q16.105 0 27.053 10.6Q296-746.8 294-731.783q-1 5.3-1.5 11.041-.5 5.742-.5 11.535 0 29.931 14.082 56Q320.163-627.138 338-603q20 26 33.5 55.825 13.5 29.826 13.5 62.447V-477q0 4-1 8-2 15-12 26t-24 11q-17 0-28-10.478t-9-25.966q1-4.556 1.5-9.056.5-4.5.5-9.191 0-27.21-15.5-49.26Q282-558 266-579Zm143 0q-21-28-33.5-60.179-12.5-32.178-12.5-67.196 0-6.625.5-12.625t1.5-13q1.913-14.927 11.957-25.463Q387-768 401-768q16.105 0 27.053 10.6Q439-746.8 437-731.783q-1 5.3-1.5 11.041-.5 5.742-.5 11.535 0 29.931 14.082 56Q463.163-627.138 481-603q20 26 33.5 55.825 13.5 29.826 13.5 62.447V-477q0 4-1 8-2 15-12 26t-24 11q-17 0-28-10.478t-9-25.966q1-4.556 1.5-9.056.5-4.5.5-9.191 0-27.21-15.5-49.26Q425-558 409-579Zm143 0q-21-28-33.5-60.179-12.5-32.178-12.5-67.196 0-6.625.5-12.625t1.5-13q1.913-14.927 11.957-25.463Q530-768 544-768q16.105 0 27.053 10.6Q582-746.8 580-731.783q-1 5.3-1.5 11.041-.5 5.742-.5 11.535 0 29.931 14.082 56Q606.163-627.138 624-603q20 26 33.5 55.825 13.5 29.826 13.5 62.447V-477q0 4-1 8-2 15-12 26t-24 11q-17 0-28-10.478t-9-25.966q1-4.556 1.5-9.056.5-4.5.5-9.191 0-27.21-15.5-49.26Q568-558 552-579Zm-72 387q-140 0-238-52.65T144-372q0-35 24.5-67.5T240-498v87q-12 11-18 20.667-6 9.666-6 18.333 0 40.5 82.041 74.25 82.042 33.75 182 33.75Q580-264 662-297.75T744-372q0-8.667-6-18.333Q732-400 720-411v-87q47 25 71.5 58t24.5 68q0 74.7-98 127.35Q620-192 480-192Z"/></svg>