<svg xmlns="http://www.w3.org/2000/svg" height="20" viewBox="0 -960 960 960" width="20"><path d="M444-234v-138q0-15.3 10.289-25.65 10.29-10.35 25.5-10.35Q495-408 505.5-397.65 516-387.3 516-372v138l56-56q11-11 25.5-11t25.5 11q11 11 11 25.5T623-239L505-121q-5.4 5-11.7 7.5-6.3 2.5-13.5 2.5t-13.5-2.5Q460-116 455-121L337-239q-11-10.667-10.5-25.333Q327-279 338-290q11-11 25.667-11 14.666 0 25.333 11l55 56ZM234-444l56 56q11 11 11 25.5T290-337q-11 11-25.5 11T239-337L121-455q-5-5.4-7.5-11.7-2.5-6.3-2.5-13.5t2.5-13.5Q116-500 121-505l118-118q10.667-11 25.333-11Q279-634 290-623q11 11 11 25.667 0 14.666-11 25.333l-56 56h138q15.3 0 25.65 10.289 10.35 10.29 10.35 25.5Q408-465 397.65-454.5 387.3-444 372-444H234Zm492 0H588q-15.3 0-25.65-10.289-10.35-10.29-10.35-25.5Q552-495 562.35-505.5 572.7-516 588-516h138l-56-56q-11-11-11-25.5t11-25.5q11-11 25.5-11t25.5 11l118 118q5 5.4 7.5 11.7 2.5 6.3 2.5 13.5t-2.5 13.5Q844-460 839-455L721-337q-10.636 11-24.818 10.5Q682-327 671-338q-11-11-11-25.667 0-14.666 11-25.333l55-55ZM444-726l-56 56q-10.909 11-25.455 11Q348-659 337-670q-11-11-11-25.667 0-14.666 11-25.333l118-118q5.4-5 11.7-7.5 6.3-2.5 13.5-2.5t13.5 2.5Q500-844 505-839l118 118q11 10.636 11 24.818Q634-682 623-671q-11 11-25.667 11-14.666 0-25.333-11l-56-55v138q0 15.3-10.289 25.65-10.29 10.35-25.5 10.35Q465-552 454.5-562.35 444-572.7 444-588v-138Z"/></svg>