<svg xmlns="http://www.w3.org/2000/svg" height="20" viewBox="0 -960 960 960" width="20"><path d="M192-192q-81 0-136.5-55.5T0-384q0-79 53-135.5T192-576q69 0 121.5 44.5T380-420h47l-74-204h-29q-15.3 0-25.65-10.289-10.35-10.29-10.35-25.5Q288-675 298.35-685.5 308.7-696 324-696h120q15.3 0 25.65 10.289 10.35 10.29 10.35 25.5Q480-645 469.65-634.5 459.3-624 444-624h-14l17 48h204l-62-168h-73q-15.3 0-25.65-10.289-10.35-10.29-10.35-25.5Q480-795 490.35-805.5 500.7-816 516-816h73q27 0 42.5 12t25.5 36l70.04 192H760q81 0 140 55.5T959-384q0 79.842-56 135.921Q847-192 768-192q-69 0-122.5-44T579-348H380q-14 69-66.5 112.5T192-192Zm0-72q37 0 68.5-21.5T306-348h-78q-15.3 0-25.65-10.289-10.35-10.29-10.35-25.5Q192-399 202.35-409.5 212.7-420 228-420h78q-11-37-44-60.5T192-504q-50 0-85 35.5T72-384q0 50 35 85t85 35Zm312-156h76q5-23 14.5-44t24.5-40H473l31 84Zm263.5 156q49.5 0 85-35.5t35.5-84.015Q888-433 849.5-471.5T755-502q-1 0 0 0l29 80q5 14-1.5 27.5T762-376q-14 5-27.333-1.067Q721.333-383.133 716-397l-28-76q-19.048 17-29.524 40Q648-410 648-384q0 50 35 85t84.5 35ZM192-381Zm570 5Z"/></svg>