<svg xmlns="http://www.w3.org/2000/svg" height="20" viewBox="0 -960 960 960" width="20"><path d="M264-48q-29.7 0-50.85-21.15Q192-90.3 192-120v-720q0-29.7 21.15-50.85Q234.3-912 264-912h432q29.7 0 50.85 21.15Q768-869.7 768-840v720q0 29.7-21.15 50.85Q725.7-48 696-48H264Zm0-216v144h432v-144H264Zm215.789 108Q495-156 505.5-166.289q10.5-10.29 10.5-25.5Q516-207 505.711-217.5q-10.29-10.5-25.5-10.5Q465-228 454.5-217.711q-10.5 10.29-10.5 25.5Q444-177 454.289-166.5q10.29 10.5 25.5 10.5ZM264-336h432v-384H264v384Zm0-456h432v-48H264v48Zm0 528v144-144Zm0-528v-48 48Z"/></svg>