<svg xmlns="http://www.w3.org/2000/svg" height="20" viewBox="0 -960 960 960" width="20"><path d="M130-576h86q10.4 0 17.2 6.8 6.8 6.8 6.8 17.2 0 10.4-6.8 17.2-6.8 6.8-17.2 6.8H84q-15.3 0-25.65-10.35Q48-548.7 48-564v-132q0-10.4 6.8-17.2Q61.6-720 72-720q10.4 0 17.2 6.8Q96-706.4 96-696v86l93-93q7.364-7 17.182-7Q216-710 223-703q7 7 7 16.818 0 9.818-7 17.182l-93 93Zm254-254-93 93q-7.364 7-17.182 7Q264-730 257-737q-7-7-7-16.818 0-9.818 7-17.182l93-93h-86q-10.4 0-17.2-6.8-6.8-6.8-6.8-17.2 0-10.4 6.8-17.2 6.8-6.8 17.2-6.8h132q15.3 0 25.65 10.35Q432-891.3 432-876v132q0 10.4-6.8 17.2-6.8 6.8-17.2 6.8-10.4 0-17.2-6.8-6.8-6.8-6.8-17.2v-86ZM587-48q-24 0-46-9t-39-26L329-256q-11-11-8.5-27.5T335-312q14-14 32-18.5t37 .5l76 19v-325q0-15.3 10.289-25.65 10.29-10.35 25.5-10.35Q531-672 541.5-661.65 552-651.3 552-636v373q0 17-14.118 28.5Q523.765-223 507-228l-66-17 111 111q7 7 16.13 10.5 9.131 3.5 18.87 3.5h157q39.6 0 67.8-28.2Q840-176.4 840-216v-180q0-15.3 10.289-25.65 10.29-10.35 25.5-10.35Q891-432 901.5-421.65 912-411.3 912-396v180q0 70-49 119T744-48H587Zm104-204Zm-55.211-276Q651-528 661.5-517.65 672-507.3 672-492v120q0 15.3-10.289 25.65-10.29 10.35-25.5 10.35Q621-336 610.5-346.35 600-356.7 600-372v-120q0-15.3 10.289-25.65 10.29-10.35 25.5-10.35Zm120 48Q771-480 781.5-469.675 792-459.35 792-444.088v71.825Q792-357 781.711-346.5q-10.29 10.5-25.5 10.5Q741-336 730.5-346.325 720-356.65 720-371.912v-71.825Q720-459 730.289-469.5q10.29-10.5 25.5-10.5Z"/></svg>