<svg xmlns="http://www.w3.org/2000/svg" height="20" viewBox="0 -960 960 960" width="20"><path d="M456-288q14.264 0 28.132-3.5Q498-295 511-302l63 62q11 11 25 11t25-11q11-11 11-25t-11-25l-62-63q7-13 10.5-26.538Q576-393.075 576-407q0-51.275-34.5-86.638Q507-529 456-529t-85.5 35.616q-34.5 35.616-34.5 86t34.783 84.884Q405.565-288 456-288Zm0-72q-20 0-34-13.708-14-13.709-14-33.292 0-20.417 14-34.708Q436-456 456-456t34 14.292q14 14.291 14 34.708 0 19.583-14 33.292Q476-360 456-360ZM263.717-96Q234-96 213-117.15T192-168v-624q0-29.7 21.15-50.85Q234.3-864 264-864h282q14.222 0 27.111 5Q586-854 597-843l150 150q11 11 16 23.889T768-642v474q0 29.7-21.162 50.85Q725.676-96 695.96-96H263.717ZM528-660v-132H264v624h432v-456H564q-15.3 0-25.65-10.35Q528-644.7 528-660ZM264-792v168-168 624-624Z"/></svg>