<svg xmlns="http://www.w3.org/2000/svg" height="20" viewBox="0 -960 960 960" width="20"><path d="M312-144q-29.7 0-50.85-21.15Q240-186.3 240-216v-480h-12q-15.3 0-25.65-10.289-10.35-10.29-10.35-25.5Q192-747 202.35-757.5 212.7-768 228-768h156v-12q0-15.3 10.35-25.65Q404.7-816 420-816h120q15.3 0 25.65 10.35Q576-795.3 576-780v12h156q15.3 0 25.65 10.289 10.35 10.29 10.35 25.5Q768-717 757.65-706.5 747.3-696 732-696h-12v479.566Q720-186 698.85-165 677.7-144 648-144H312Zm336-552H312v480h336v-480Zm-336 0v480-480Zm132 234v113.855q0 15.362 10.289 25.753Q464.579-312 479.789-312 495-312 505.5-322.392q10.5-10.391 10.5-25.753V-462l32 32q11 11 25.667 11 14.666 0 25.333-11 11-11 11-25.5T599-481l-94.138-94.138Q494-586 479.818-586T455-575l-94 94q-11 11-10.5 25t11.5 25q11 11 25.5 11t25.5-11l31-31Z"/></svg>