<svg xmlns="http://www.w3.org/2000/svg" height="20" viewBox="0 -960 960 960" width="20"><path d="M216-144q-29.7 0-50.85-21.15Q144-186.3 144-216v-528q0-29.7 21.15-50.85Q186.3-816 216-816h426q14.222 0 27.111 5Q682-806 693-795l102 102q11 11 16 23.889T816-642v126q0 15.3-10.289 25.65-10.29 10.35-25.5 10.35Q765-480 754.5-490.35 744-500.7 744-516v-126L642-744H216v528h204q15.3 0 25.65 10.289 10.35 10.29 10.35 25.5Q456-165 445.65-154.5 435.3-144 420-144H216Zm0-600v528-528Zm312 636v-62.432q0-7.568 3-14.068t8-11.5l199-198q7.258-7.412 16.129-10.706Q763-408 771.759-408q9.556 0 18.315 3.5Q798.833-401 806-394l44 45q6.588 7.258 10.294 16.129Q864-324 864-315.241q0 8.76-3.294 17.917Q857.412-288.167 850-281L652-83q-5 5-11.5 8t-14.068 3H564q-15.3 0-25.65-10.35Q528-92.7 528-108Zm288-207-45-45 45 45ZM576-120h45l115-115-22-23-22-22-116 115v45Zm138-138-22-22 44 45-22-23ZM300-552h264q15.3 0 25.65-10.325Q600-572.65 600-587.912v-71.825Q600-675 589.65-685.5 579.3-696 564-696H300q-15.3 0-25.65 10.325Q264-675.35 264-660.088v71.825Q264-573 274.35-562.5 284.7-552 300-552Zm180 300h7q3 0 7-1l93-92q1-4 1-7.5v-7.5q0-45-31.5-76.5T480-468q-45 0-76.5 31.5T372-360q0 45 31.5 76.5T480-252Z"/></svg>