<svg xmlns="http://www.w3.org/2000/svg" height="20" viewBox="0 -960 960 960" width="20"><path d="M810-480 646-644q-11-11-11-25.5t11-25.5q11-11 25.5-11t25.838 11.338L887-505q5 5.4 7.5 11.7 2.5 6.3 2.5 13.5t-2.5 13.5Q892-460 887-455L697.338-265.338Q686-254 672-254.5q-14-.5-25-11.5t-11-25.5q0-14.5 11-25.5l163-163Zm-660 0 164 164q11 11 11 25.5T314-265q-11 11-25.5 11t-25.838-11.338L73-455q-5-5.4-7.5-11.7Q63-473 63-480.2t2.5-13.5Q68-500 73-505l189.662-189.662Q274-706 288.5-706q14.5 0 25.5 11t11 25.5q0 14.5-11 25.5L150-480Zm174.211 36Q309-444 298.5-454.289q-10.5-10.29-10.5-25.5Q288-495 298.289-505.5q10.29-10.5 25.5-10.5Q339-516 349.5-505.711q10.5 10.29 10.5 25.5Q360-465 349.711-454.5q-10.29 10.5-25.5 10.5Zm156 0Q465-444 454.5-454.289q-10.5-10.29-10.5-25.5Q444-495 454.289-505.5q10.29-10.5 25.5-10.5Q495-516 505.5-505.711q10.5 10.29 10.5 25.5Q516-465 505.711-454.5q-10.29 10.5-25.5 10.5Zm156 0Q621-444 610.5-454.289q-10.5-10.29-10.5-25.5Q600-495 610.289-505.5q10.29-10.5 25.5-10.5Q651-516 661.5-505.711q10.5 10.29 10.5 25.5Q672-465 661.711-454.5q-10.29 10.5-25.5 10.5Z"/></svg>