<svg xmlns="http://www.w3.org/2000/svg" height="20" viewBox="0 -960 960 960" width="20"><path d="M336-276.4V-422H217q-23 0-33-20t4-38l263-346q11.28-14 29.14-14T509-826l263 346q14 18 4 38t-33 20H624v145.537Q624-261 613.662-250.5 603.323-240 588.04-240H372.283Q357-240 346.5-250.465 336-260.93 336-276.4Zm72-35.6h144v-182h117L480-747 291-494h117v182Zm72-218ZM228.292-96Q213-96 202.5-106.289q-10.5-10.29-10.5-25.5Q192-147 202.344-157.5q10.345-10.5 25.637-10.5h503.727Q747-168 757.5-157.711q10.5 10.29 10.5 25.5Q768-117 757.656-106.5 747.311-96 732.019-96H228.292Z"/></svg>