<svg xmlns="http://www.w3.org/2000/svg" height="20" viewBox="0 -960 960 960" width="20"><path d="m208-380-23.852 68.272Q180-301 171-294.5q-9 6.5-21 6.5-20 0-31-16.5t-4-34.5l116-308q4.752-11 14.257-18 9.505-7 21.862-7h28.515q12.356 0 21.861 7t14.317 18.458l116.451 308.401Q455-320 444.5-304T414-288q-12 0-22-7.212-10-7.211-14-17.788l-23-67H208Zm23-66h100l-48-143h-4l-48 143Zm390 89h161q14.167 0 24.083 9.882 9.917 9.883 9.917 24Q816-309 806-298.5 796-288 781.554-288h-223.44q-9.631 0-16.372-6.708Q535-301.417 535-311v-37q0-6.3 2-12.15 2-5.85 6-10.85l187-232H578.393Q564-603 554-613.5t-10-24.618q0-14.117 10.5-24Q565-672 579.31-672h211.793q9.541 0 16.219 6.708Q814-658.583 814-649v37q0 6.3-2 12.15-2 5.85-6 10.85L621-357ZM382-744q-6 0-9-5t2.16-10.16L467-851q5-5 13-5t13 5l91.84 91.84Q590-754 587-749t-9 5H382Zm85 635-91.84-91.84Q370-206 373-211t9-5h196q6 0 9 5t-2.16 10.16L493-109q-5 5-13 5t-13-5Z"/></svg>