<svg xmlns="http://www.w3.org/2000/svg" height="20" viewBox="0 -960 960 960" width="20"><path d="M425.742-312Q396-312 375-333.15 354-354.3 354-384v-192q0-29.7 21.18-50.85Q396.361-648 426.103-648h108.155Q564-648 585-626.85q21 21.15 21 50.85v192q0 29.7-21.18 50.85Q563.639-312 533.897-312H425.742Zm-209.631 0H108.276Q93-312 82.5-322.289q-10.5-10.29-10.5-25.5Q72-363 82.35-373.5 92.7-384 108-384h108v-60h-72.212Q114-444 93-465.15 72-486.3 72-516v-60q0-29.7 21.118-50.85Q114.235-648 143.889-648h107.835Q267-648 277.5-637.711q10.5 10.29 10.5 25.5Q288-597 277.65-586.5 267.3-576 252-576H144v60h72.212Q246-516 267-494.85q21 21.15 21 50.85v60q0 29.7-21.117 50.85Q245.765-312 216.111-312Zm600 0H708.276Q693-312 682.5-322.289q-10.5-10.29-10.5-25.5Q672-363 682.35-373.5 692.7-384 708-384h108v-60h-72.212Q714-444 693-465.15 672-486.3 672-516v-60q0-29.7 21.118-50.85Q714.235-648 743.889-648h107.835Q867-648 877.5-637.711q10.5 10.29 10.5 25.5Q888-597 877.65-586.5 867.3-576 852-576H744v60h72.212Q846-516 867-494.85q21 21.15 21 50.85v60q0 29.7-21.118 50.85Q845.765-312 816.111-312ZM426-384h108v-192H426v192Z"/></svg>