<svg xmlns="http://www.w3.org/2000/svg" height="20" viewBox="0 -960 960 960" width="20"><path d="M533-96q-97.615 0-166.308-68.985Q298-233.969 298-332v-30q-85-11-143.5-74.5T96-588v-192q0-15.3 10.35-25.65Q116.7-816 132-816h84v-12q0-15.3 10.289-25.65 10.29-10.35 25.5-10.35Q267-864 277.5-853.65 288-843.3 288-828v96q0 15.3-10.289 25.65-10.29 10.35-25.5 10.35Q237-696 226.5-706.35 216-716.7 216-732v-12h-48v156.46q0 64.54 45.5 110.04T324-432q65 0 110.5-45.5T480-587.54V-744h-48v12q0 15.3-10.289 25.65-10.29 10.35-25.5 10.35Q381-696 370.5-706.35 360-716.7 360-732v-96q0-15.3 10.289-25.65 10.29-10.35 25.5-10.35Q411-864 421.5-853.65 432-843.3 432-828v12h84q15.3 0 25.65 10.35Q552-795.3 552-780v192q0 84.35-51.5 146.675Q449-379 370-364v33q0 68.333 47.559 116.167Q465.118-167 533.059-167T648.5-214.833Q696-262.667 696-331v-58.625Q659-401 635.5-432T612-504q0-50 35-85t85-35q50 0 85 35t35 85q0 41-23.5 72T768-389.788V-332q0 98.031-68.692 167.015Q630.615-96 533-96Zm199-360q20.4 0 34.2-13.8Q780-483.6 780-504q0-20.4-13.8-34.2Q752.4-552 732-552q-20.4 0-34.2 13.8Q684-524.4 684-504q0 20.4 13.8 34.2Q711.6-456 732-456Zm0-48Z"/></svg>