<svg xmlns="http://www.w3.org/2000/svg" height="20" viewBox="0 -960 960 960" width="20"><path d="M612.407-252q-15.473 0-25.94-10.289Q576-272.579 576-287.789 576-303 586.467-313.5q10.467-10.5 25.94-10.5H728l-31-32q-11-11-11-25t11.143-25q11.143-11 26-11T749-406l90 93q11 10.636 11 24.818 0 14.182-10.594 24.963l-91.812 93.438Q737-159 722.429-159q-14.572 0-25.5-11Q686-181 686-195.5t11-25.5l31-31H612.407ZM541-96q-100 0-171.5-68T298-332v-30q-85-11-143.5-74.5T96-588v-192q0-15.3 10.35-25.65Q116.7-816 132-816h84v-12q0-15.3 10.289-25.65 10.29-10.35 25.5-10.35Q267-864 277.5-853.65 288-843.3 288-828v96q0 15.3-10.289 25.65-10.29 10.35-25.5 10.35Q237-696 226.5-706.35 216-716.7 216-732v-12h-48v156.46q0 64.54 45.5 110.04T324-432q65 0 110.5-45.5T480-587.54V-744h-48v12q0 15.3-10.289 25.65-10.29 10.35-25.5 10.35Q381-696 370.5-706.35 360-716.7 360-732v-96q0-15.3 10.289-25.65 10.29-10.35 25.5-10.35Q411-864 421.5-853.65 432-843.3 432-828v12h84q15.3 0 25.65 10.35Q552-795.3 552-780v192q0 84.35-51.5 146.675Q449-379 370-364v33q0 69 50.5 116.5T541-167q14 0 24.5 10.5t10.5 25q0 14.5-10.062 25Q555.875-96 541-96Z"/></svg>