<svg xmlns="http://www.w3.org/2000/svg" height="20" viewBox="0 -960 960 960" width="20"><path d="M216-216h336v-156q0-15.3 10.35-25.65Q572.7-408 588-408h156v-336H216v528Zm-.337 72Q186-144 165-165.15 144-186.3 144-216v-528q0-29.7 21.15-50.85Q186.3-816 216-816h528q29.7 0 50.85 21.115Q816-773.771 816-744.121v329.745Q816-400 811-387q-5 13-16.204 24.204L597.204-165.204Q586-154 572.966-149q-13.033 5-27.415 5H215.663ZM444-408H324q-15.3 0-25.65-10.289-10.35-10.29-10.35-25.5Q288-459 298.35-469.5 308.7-480 324-480h120q15.3 0 25.65 10.289 10.35 10.29 10.35 25.5Q480-429 469.65-418.5 459.3-408 444-408Zm192-144H324q-15.3 0-25.65-10.289-10.35-10.29-10.35-25.5Q288-603 298.35-613.5 308.7-624 324-624h312q15.3 0 25.65 10.289 10.35 10.29 10.35 25.5Q672-573 661.65-562.5 651.3-552 636-552ZM216-216v-528 528Z"/></svg>