<svg xmlns="http://www.w3.org/2000/svg" height="20" viewBox="0 -960 960 960" width="20"><path d="m437-511-54.286-54.286Q377-571 370.241-573.5q-6.758-2.5-14-2.5Q349-576 342-573.5t-13 8.403q-11 10.823-11 27.549 0 16.725 11 27.548l83 83q10.636 11 24.818 11Q451-416 462-427l184-169q0-14.957-2.5-28.978Q641-639 630-650q-11.467-11-27.233-11Q587-661 576-650L437-511ZM48-144v-72h828q15.3 0 25.65 10.289 10.35 10.29 10.35 25.5Q912-165 901.65-154.5 891.3-144 876-144H48Zm120-120q-29.7 0-50.85-21.15Q96-306.3 96-336v-408q0-29.7 21.15-50.85Q138.3-816 168-816h624q29.7 0 50.85 21.15Q864-773.7 864-744v408q0 29.7-21.15 50.85Q821.7-264 792-264H168Zm0-72h624v-408H168v408Zm0 0v-408 408Z"/></svg>