<svg xmlns="http://www.w3.org/2000/svg" height="20" viewBox="0 -960 960 960" width="20"><path d="M479.789-156Q495-156 505.5-166.289q10.5-10.29 10.5-25.5Q516-207 505.711-217.5q-10.29-10.5-25.5-10.5Q465-228 454.5-217.711q-10.5 10.29-10.5 25.5Q444-177 454.289-166.5q10.29 10.5 25.5 10.5ZM216-48q-29.7 0-50.85-21.15Q144-90.3 144-120v-720q0-29.7 21.15-50.85Q186.3-912 216-912h528q29.7 0 50.85 21.15Q816-869.7 816-840v720q0 29.7-21.15 50.85Q773.7-48 744-48H216Zm0-216v144h528v-144H216Zm0-72h528v-384H216v384Zm0-456h528v-48H216v48Zm0 0v-48 48Zm0 528v144-144Z"/></svg>