<svg xmlns="http://www.w3.org/2000/svg" height="20" viewBox="0 -960 960 960" width="20"><path d="M378-395.951q-20.961-4.512-47.981-11.281Q303-414 273-427q-24-10-49-24t-51-32q-13-9-15.5-24.05T163-535q7.955-12.444 21.477-14.222Q198-551 210-543q38 27 75.5 42.83 37.5 15.83 68 24T403-465l19 3q17 0 26.5 13.039t6.5 29.804l-4 26.079Q447-367 445.5-326t2.5 91.5q4 50.5 19 101.5 4 14-5.143 24.12Q452.714-98.76 439-97q-14 2-27.5-5.5T392-133q-11-41-15.5-79.5t-5-73q-.5-34.5 2-63t4.5-47.451q-1 0 0 0ZM684-619q17 27 26.5 57.735Q720-530.529 720-497v365q0 15.3-10.289 25.65Q699.421-96 684.211-96 669-96 658.5-106.35 648-116.7 648-132v-365q0-45-24-82.5T558-636L335-738q-14.481-6.909-18.741-22.455Q312-776 320-790q7.111-11.368 19.556-14.684Q352-808 364-803l224 101q30 14 54.5 35t41.5 48ZM527.918-192q8.082 0 13.582-2.5T552-202q5 5 11 7.5t13.167 2.5q15.229 0 25.531-10.289Q612-212.579 612-227.789q0-15.211-10.35-25.637T576-263.852V-408q15.3 0 25.65-10.289 10.35-10.29 10.35-25.5Q612-459 601.698-469.5 591.396-480 576.167-480 569-480 563-478t-11 7q-5-5-10.5-7t-13.582-2q-15.265 0-25.591 10.289Q492-459.421 492-444.211q0 15.211 10.35 25.637T528-408.148V-264q-15.3 0-25.65 10.289-10.35 10.29-10.35 25.5Q492-213 502.327-202.5q10.326 10.5 25.591 10.5ZM480-96q-22-54-29-111t-6-104q1-47 5.5-77.741l4.5-30.741Q458-436 448.5-449T422-462l-22.5-3.5q-22.5-3.5-57.5-14T264.5-510Q222-530 182-565q40 35 82.5 55t77.5 30.5q35 10.5 57.5 14L422-462q17 0 26.5 13.087T455-419l-4.5 30.5Q446-358 445-311t6 104q7 57 29 111Z"/></svg>