<svg xmlns="http://www.w3.org/2000/svg" height="20" viewBox="0 -960 960 960" width="20"><path d="M396.211-192Q381-192 370.5-202.35 360-212.7 360-228v-225.294q0-13.706 5.478-27.119Q370.957-493.825 381-504l192-192h-45q-15.3 0-25.65-10.289-10.35-10.29-10.35-25.5Q492-747 502.367-757.5q10.367-10.5 25.692-10.5h131.616Q675-768 685.5-757.633t10.5 25.692v131.616Q696-585 685.711-574.5q-10.29 10.5-25.5 10.5Q645-564 634.5-574.35 624-584.7 624-600v-45L432-453v225.48q0 14.52-10.289 25.02-10.29 10.5-25.5 10.5Z"/></svg>