<svg xmlns="http://www.w3.org/2000/svg" height="20" viewBox="0 -960 960 960" width="20"><path d="m438-441-60-60q-10.636-11-24.818-11Q339-512 328-501q-11 11-11 25.667 0 14.666 11 25.333l84 85q10.909 11 25.455 11Q452-354 463-365l170-170q11-11 11-25t-11-25q-11-11-25.667-11-14.666 0-25.333 11L438-441Zm42 341q-6 0-12-.5t-11-2.5q-131-43-210-159t-79-253v-180q0-22.692 12.5-40.846Q193-754 214-762l240-92q13-5 26-5t26 5l240 92q21 8 33.5 26.154T792-695v180q0 137-79 253T503-103q-5 2-11 2.5t-12 .5Zm0-71q104-32.25 172-129t68-215v-180l-240-92-240 92v180q0 118.25 68 215t172 129Zm0-308Z"/></svg>