<svg xmlns="http://www.w3.org/2000/svg" height="20" viewBox="0 -960 960 960" width="20"><path d="M228.292-144Q213-144 202.5-154.289q-10.5-10.29-10.5-25.5Q192-195 202.344-205.5q10.345-10.5 25.637-10.5h503.727Q747-216 757.5-205.711q10.5 10.29 10.5 25.5Q768-165 757.656-154.5 747.311-144 732.019-144H228.292ZM479.8-303q-7.2 0-13.5-2.5T455-313L312.858-455.142Q302-466 302.5-480.5T314-506q11-11 25.5-11t25.5 11l79 80v-354q0-15.3 10.289-25.65 10.29-10.35 25.5-10.35Q495-816 505.5-805.65 516-795.3 516-780v354l80-80q11-11 25.5-10.5T647-505q11 11 11 25.5t-10.858 25.287L505-313q-5.4 5-11.7 7.5-6.3 2.5-13.5 2.5Z"/></svg>