<svg xmlns="http://www.w3.org/2000/svg" height="20" viewBox="0 -960 960 960" width="20"><path d="M312-384h240q20.4 0 34.2-13.8Q600-411.6 600-432v-86l81 73q5 4 10 1.708 5-2.291 5-8.708v-200q0-6.417-5-8.708Q686-663 681-659l-81 73v-86q0-20.4-13.8-34.2Q572.4-720 552-720H312q-20.4 0-34.2 13.8Q264-692.4 264-672v240q0 20.4 13.8 34.2Q291.6-384 312-384Zm-72 144-82.883 82.883Q140-140 118-149.406 96-158.812 96-183v-609q0-29.7 21.15-50.85Q138.3-864 168-864h624q29.7 0 50.85 21.15Q864-821.7 864-792v480q0 29.7-21.15 50.85Q821.7-240 792-240H240Zm-30-72h582v-480H168v522l42-42Zm-42 0v-480 480Z"/></svg>