<svg xmlns="http://www.w3.org/2000/svg" height="20" viewBox="0 -960 960 960" width="20"><path d="M770-96H205q-39.165 0-60.082-32Q124-160 139-196l82-192q8-20 25.952-32 17.953-12 40.048-12h97l34-137q6-24 25.692-39.5Q463.385-624 488-624h177q24.261 0 43.13 15Q727-594 734-571l105 384q9 35-12.273 63Q805.455-96 770-96Zm-565-72h564L665-552H488l-41 165q-3 12-12.5 19.5T412-360H288l-83 192Zm335-635.912v-71.825Q540-891 550.289-901.5q10.29-10.5 25.5-10.5Q591-912 601.5-901.675 612-891.35 612-876.088v71.825Q612-789 601.711-778.5q-10.29 10.5-25.5 10.5Q561-768 550.5-778.325 540-788.65 540-803.912ZM679-778l51-51q11-11 25-10.5t25 11.022q11 11.478 11 25.894 0 14.416-10.783 25.228L729-726q-11 11-25 10.5T679-727q-11-11-11-25.5t11-25.5Zm-256 51-51-51q-11-11-11-25t10.522-25q11.478-11 25.894-11 14.416 0 25.228 10.783L474-777q11 11 11 25t-11 25q-11 11-25.5 11T423-727ZM205-168h564-564Z"/></svg>