<svg xmlns="http://www.w3.org/2000/svg" height="20" viewBox="0 -960 960 960" width="20"><path d="M783-192 576-399v-38q0-11.667 11.5-15.833Q599-457 607-449l226 226q8 8 3.833 19.5Q832.667-192 821-192h-38Zm-207-36v-69l105 105h-69.278Q597-192 586.5-202.35 576-212.7 576-228Zm-384 0v-300h-53q-11.667 0-15.833-11.5Q119-551 127-559l184-184q10.636-11 24.818-11Q350-754 361-743l184 184q8 8 3.833 19.5Q544.667-528 533-528h-53v300q0 15.3-10.338 25.65Q459.323-192 444.04-192H228.283Q213-192 202.5-202.35 192-212.7 192-228Zm108-156h72v-144h-72v144Z"/></svg>