<svg xmlns="http://www.w3.org/2000/svg" height="20" viewBox="0 -960 960 960" width="20"><path d="M444-828v-48q0-15.3 10.289-25.65 10.29-10.35 25.5-10.35Q495-912 505.5-901.65 516-891.3 516-876v48q0 15.3-10.289 25.65-10.29 10.35-25.5 10.35Q465-792 454.5-802.35 444-812.7 444-828Zm0 744v-48q0-15.3 10.289-25.65 10.29-10.35 25.5-10.35Q495-168 505.5-157.65 516-147.3 516-132v48q0 15.3-10.289 25.65Q495.421-48 480.211-48 465-48 454.5-58.35 444-68.7 444-84Zm432-360h-48q-15.3 0-25.65-10.289-10.35-10.29-10.35-25.5Q792-495 802.35-505.5 812.7-516 828-516h48q15.3 0 25.65 10.289 10.35 10.29 10.35 25.5Q912-465 901.65-454.5 891.3-444 876-444Zm-744 0H84q-15.3 0-25.65-10.289Q48-464.579 48-479.789 48-495 58.35-505.5 68.7-516 84-516h48q15.3 0 25.65 10.289 10.35 10.29 10.35 25.5Q168-465 157.65-454.5 147.3-444 132-444Zm653-288-34 32q-11 11-25.5 10.5T700-701q-11-11-11-25t11-25l33-35q11-11 26.509-11t26.456 11.172q11.035 11.173 10.535 27Q796-743 785-732ZM260-209l-32 34q-11 11-26.509 11t-26.456-11.172q-11.035-11.173-10.535-27Q165-218 176-229l33-31q11-11 25.5-10.5T260-259q11 11 11 25t-11 25Zm472 33-32-33q-11-11-10.5-25.5T701-260q11-11 25-11.5t25 10.5l35 33q11 11 11 26.509t-11.172 26.456q-11.173 11.035-27 10.535Q743-165 732-176ZM209-700l-34-33q-11-11-11.5-26t10.5-26q11-11 27.5-11.5T229-785l32 34q10 11 9.5 25.5T259-700q-11 11-25 11t-25-11Zm271 460q-100 0-170-70t-70-170q0-100 70-170t170-70q100 0 170 70t70 170q0 100-70 170t-170 70Zm-.247-71Q550-311 599-360.5t49-119.747q0-70.246-48.753-119Q550.493-648 480.247-648 410-648 361-599.247q-49 48.754-49 119Q312-410 360.753-360.5q48.754 49.5 119 49.5ZM481-481Z"/></svg>