<svg xmlns="http://www.w3.org/2000/svg" height="20" viewBox="0 -960 960 960" width="20"><path d="M264.113-240Q244-240 230-253.887q-14-13.888-14-34Q216-308 229.887-322q13.888-14 34-14Q284-336 298-322.113q14 13.888 14 34Q312-268 298.113-254q-13.888 14-34 14Zm120 144Q364-96 350-109.887q-14-13.888-14-34Q336-164 349.887-178q13.888-14 34-14Q404-192 418-178.113q14 13.888 14 34Q432-124 418.113-110q-13.888 14-34 14Zm120-144Q484-240 470-253.887q-14-13.888-14-34Q456-308 469.887-322q13.888-14 34-14Q524-336 538-322.113q14 13.888 14 34Q552-268 538.113-254q-13.888 14-34 14Zm240 0Q724-240 710-253.887q-14-13.888-14-34Q696-308 709.887-322q13.888-14 34-14Q764-336 778-322.113q14 13.888 14 34Q792-268 778.113-254q-13.888 14-34 14Zm-120 144Q604-96 590-109.887q-14-13.888-14-34Q576-164 589.887-178q13.888-14 34-14Q644-192 658-178.113q14 13.888 14 34Q672-124 658.113-110q-13.888 14-34 14ZM295-384q-85 0-142-61.275T96-593q0-77 52.408-132.57Q200.817-781.141 278-791q31-55 85-88t116.574-33q85.329 0 148.378 54Q691-804 704.663-719.87 772-714 818-666.243 864-618.486 864-552q0 70-49 119t-119 49H295Zm2-72h399q40.32 0 68.16-28.5Q792-513 792-553t-27.84-68.5Q736.32-650 696-650h-53v-40q0-64-47.5-107T483-840q-54 0-95.5 33.5T324-723q-62 2-109 38t-47 95q0 55 37.5 94.5T297-456Zm183-97Z"/></svg>