<svg xmlns="http://www.w3.org/2000/svg" height="40" viewBox="0 -960 960 960" width="40"><path d="M377-434.67 407-366q4.25 10 15.29 10t15.38-10l30-68.67 72-32q10-4.24 10-15.29 0-11.04-10-15.37l-72-31.34-30-66.66q-4.25-10-15.29-10-11.05 0-15.38 10l-30 66.66-72 31.34q-10 4.24-10 15.29 0 11.04 10 15.37l72 32ZM186.67-200q-27.5 0-47.09-19.58Q120-239.17 120-266.67v-426.66q0-27.5 19.58-47.09Q159.17-760 186.67-760H600q21.33 0 39.17 10.67 17.83 10.66 30.16 28L813-518.67q12.33 17.65 12.33 38.66 0 21.01-12.33 38.68L669.33-238.67q-12.33 17.34-30.16 28Q621.33-200 600-200H186.67Zm0-66.67h420.66l150-213.33-150-213.33H186.67v426.66Zm0 0v-426.66 426.66Z"/></svg>