<svg xmlns="http://www.w3.org/2000/svg" height="40" viewBox="0 -960 960 960" width="40"><path d="m560-433.33 86 86q9.67 9.66 23.33 9.66 13.67 0 23.34-9.66 9.66-9.67 9.66-23.67 0-14-9.66-23.67l-86-85.33L692-565.33q9.67-9.67 9.67-23.34 0-13.66-9.67-23.33-9.67-9.67-23.67-9.67-14 0-23.66 9.67L560-526.67l-86-86q-9.67-9.66-23.33-9.66-13.67 0-23.34 9.66-9.66 9.67-9.66 23.67 0 14 9.66 23.67l86 85.33-86 85.33q-9.66 9.67-9.66 23.34 0 13.66 9.66 23.33 9.67 9.67 23.67 9.67 14 0 23.67-9.67L560-433.33ZM353.33-160q-15.83 0-30-7.08-14.16-7.09-23.33-19.59L110-440q-13.33-17.45-13.33-39.89T110-520l189.33-253.33q9.17-12.5 23.34-19.59 14.16-7.08 30-7.08H814q27.5 0 47.08 19.58 19.59 19.59 19.59 47.09v506.66q0 27.5-19.59 47.09Q841.5-160 814-160H353.33Zm0-66.67H814v-506.66H353.33L163.33-480l190 253.33ZM488.67-480Z"/></svg>