<svg xmlns="http://www.w3.org/2000/svg" height="40" viewBox="0 -960 960 960" width="40"><path d="M480-80q-83 0-156-31.5T197-197q-54-54-85.5-127T80-480q0-62.33 18.33-121.67Q116.67-661 152.67-712l-70.34-70.33q-10-10-10-23.84 0-13.83 10-23.83 10-10 23.84-10Q120-840 130-830l700 700q9.67 9.67 9.67 23.33 0 13.67-9.67 23.34-10 10-23.83 10-13.84 0-23.84-10L712-152.67q-51 36-110.33 54.34Q542.33-80 480-80Zm75-475ZM405.67-405.67ZM288-830.67q44.33-24.66 93-37Q429.67-880 480-880q80 0 153 30t130 87q57 57 87 130t30 153q0 50.33-12 98.33t-35.33 92.34Q826.33-277 813-273.83q-13.33 3.16-25.33-4.17-12-7.33-15-21t3.33-26.33q18.33-36 27.83-75t9.5-79.67q0-139.33-97-236.33t-236.33-97q-40.67 0-80 9.5t-75.33 28.5Q312-769 299-772q-13-3-21-14.33-8-11.34-5.17-24.67 2.84-13.33 15.17-19.67Zm289.67 353-100-100q-6.67-6.66-4.5-16.16 2.16-9.5 11.16-11.84l143.34-43q9.66-3 16.83 4.17 7.17 7.17 4.17 16.83l-43 143.34q-2.34 9-11.84 11.16-9.5 2.17-16.16-4.5Zm-97.67 331q51 0 97.17-14 46.16-14 86.83-40L502.33-362.33l-170.66 51.66q-9.67 3-16.84-4.16-7.16-7.17-4.16-16.84l51.66-170.66L200.67-664q-26 40.67-40 86.83-14 46.17-14 97.17 0 141 96.16 237.17Q339-146.67 480-146.67Z"/></svg>