<svg xmlns="http://www.w3.org/2000/svg" height="40" viewBox="0 -960 960 960" width="40"><path d="M360-160q-134 0-227-93T40-480q0-134 93-227t227-93q134 0 227 93t93 227q0 134-93 227t-227 93Zm0-66.67q105.33 0 179.33-74 74-74 74-179.33 0-105.33-74-179.33-74-74-179.33-74-105.33 0-179.33 74-74 74-74 179.33 0 105.33 74 179.33 74 74 179.33 74Zm-33.33-320V-380q0 14.33 9.5 23.83 9.5 9.5 23.83 9.5 14.33 0 23.83-9.5 9.5-9.5 9.5-23.83v-166.67H450q9.67 0 16.5-6.83t6.83-16.5q0-9.67-6.83-16.5t-16.5-6.83H270q-9.67 0-16.5 6.83t-6.83 16.5q0 9.67 6.83 16.5t16.5 6.83h56.67Zm404.66-184.66L666-760.67Q656-765 656-776t10-15.33l65.33-29.34L760.67-886Q765-896 776-896t15.33 10l29.34 65.33L886-791.33Q896-787 896-776t-10 15.33l-65.33 29.34L791.33-666Q787-656 776-656t-15.33-10l-29.34-65.33Zm0 592L666-168.67Q656-173 656-184t10-15.33l65.33-29.34L760.67-294Q765-304 776-304t15.33 10l29.34 65.33L886-199.33Q896-195 896-184t-10 15.33l-65.33 29.34L791.33-74Q787-64 776-64t-15.33-10l-29.34-65.33ZM360-480Z"/></svg>