<svg xmlns="http://www.w3.org/2000/svg" height="40" viewBox="0 -960 960 960" width="40"><path d="M704.92-697.25 643-726q-10-4.25-10-15.29t10-15.38l61.92-28.74 28.75-61.92q4.24-10 15.29-10 11.04 0 15.37 10l28.75 61.92L855-756.67q10 4.25 10 15.29 0 11.05-10 15.38l-61.92 28.75-28.75 61.92q-4.24 10-15.29 10-11.04 0-15.37-10l-28.75-61.92ZM801-381.33l-49-23q-5.33-2.6-5.33-7.8 0-5.2 5.33-7.54l49-23 23-49q2.6-5.33 7.8-5.33 5.2 0 7.53 5.33l23 49 49 23q5.34 2.6 5.34 7.8 0 5.2-5.34 7.54l-49 23-23 49q-2.6 5.33-7.8 5.33-5.2 0-7.53-5.33l-23-49ZM339.33-80q-12.56 0-21.78-8.67-9.22-8.66-11.22-21l-7.33-63q-11.67-2.33-24.33-8.66Q262-187.67 253-196l-54.33 23.33q-12 5.34-23.5 1.5-11.5-3.83-18.17-15.16l-61.33-102q-6.67-12-4.17-24.5T105.33-333l50.34-34.33q-2.67-12-2.67-25.34 0-13.33 2.67-25.33l-50.34-34.33Q94-460 91.5-472.5 89-485 95.67-497L157-599q6.67-11.33 18.17-15.17 11.5-3.83 23.5 1.5L253-589.33q9-8.34 21.67-14.67 12.66-6.33 24.33-8.67l7.33-63q2-12.33 11.22-21 9.22-8.66 21.78-8.66h119.34q12.56 0 21.78 8.66 9.22 8.67 11.22 21l7.33 63q11.67 2.34 24.33 8.67Q536-597.67 545-589.33l54.33-23.34q12-5.33 23.5-1.5 11.5 3.84 18.17 15.17l61.33 102q6.67 12 4.17 24.5t-13.83 20.17L642.33-418q2.67 12 2.67 25.33 0 13.34-2.67 25.34L692.67-333q11.33 7.67 13.83 20.17 2.5 12.5-4.17 24.5l-61.33 102q-6.67 11.33-18.17 15.16-11.5 3.84-23.5-1.5L545-196q-9 8.33-21.67 14.67-12.66 6.33-24.33 8.66l-7.33 63q-2 12.34-11.22 21Q471.23-80 458.67-80H339.33Zm59.71-196q48.63 0 82.63-34.04 34-34.04 34-82.67 0-48.62-34.04-82.62-34.04-34-82.67-34t-82.63 34.04q-34 34.04-34 82.66 0 48.63 34.04 82.63 34.04 34 82.67 34Zm-32.71 129.33h65.34l8-74.66q29-7.34 51.83-20.17 22.83-12.83 42.68-33.83L599.67-246 631-297.33l-60.67-44q10-24.34 10-51.34 0-27-10-51.33L631-488l-31.33-51.33L534.18-510q-19.85-21-42.68-33.83-22.83-12.84-51.83-20.17l-8-74.67h-65.34l-8 74.67q-29 7.33-51.83 20.17Q283.67-531 263.82-510l-65.49-29.33L167-488l60.67 44q-10 24.33-10.17 51.33-.17 27 10.17 51.34l-60.67 44L198.33-246l65.49-29.33q19.85 21 42.68 33.83 22.83 12.83 51.83 20.17l8 74.66Zm32.67-246Z"/></svg>