<svg xmlns="http://www.w3.org/2000/svg" height="20" viewBox="0 -960 960 960" width="20"><path d="M384-648.062v119.689Q384-518 390.8-511q6.8 7 17.2 7 10.4 0 17.2-6.785 6.8-6.785 6.8-17.161v-143.677Q432-682 425.233-689q-6.767-7-17.116-7H360.35Q350-696 343-689.2q-7 6.8-7 17.2 0 10.373 6.8 17.155 6.8 6.783 17.2 6.783h24ZM528-552v-28h48q20.4 0 34.2-13.8Q624-607.6 624-628v-20q0-20.4-13.8-34.2Q596.4-696 576-696h-72q-10.4 0-17.2 6.8-6.8 6.8-6.8 17.2 0 10.4 6.8 17.2 6.8 6.8 17.2 6.8h72v28h-48q-20.4 0-34.2 13.8Q480-592.4 480-572v44q0 10.4 6.779 17.2 6.779 6.8 17.147 6.8h95.706Q610-504 617-510.8q7-6.8 7-17.2 0-10.4-6.8-17.2-6.8-6.8-17.2-6.8h-72ZM216-144q-29.7 0-50.85-21.15Q144-186.3 144-216v-528q0-29.7 21.15-50.85Q186.3-816 216-816h528q29.7 0 50.85 21.15Q816-773.7 816-744v528q0 29.7-21.15 50.85Q773.7-144 744-144H216Zm0-72h528v-528H216v528Zm0-528v528-528Zm120 336h32v72q0 10.4 6.8 17.2 6.8 6.8 17.2 6.8 10.4 0 17.2-6.8 6.8-6.8 6.8-17.2v-72h32v120q0 10.4 6.8 17.2 6.8 6.8 17.2 6.8 10.4 0 17.2-6.8 6.8-6.8 6.8-17.2v-144q0-10.2-6.9-17.1-6.9-6.9-17.1-6.9H312q-10.2 0-17.1 6.9-6.9 6.9-6.9 17.1v144q0 10.4 6.8 17.2 6.8 6.8 17.2 6.8 10.4 0 17.2-6.8 6.8-6.8 6.8-17.2v-120Zm240 96h72q10.2 0 17.1-6.9 6.9-6.9 6.9-17.1v-96q0-10.2-6.9-17.1-6.9-6.9-17.1-6.9h-96q-10.4 0-17.2 6.785-6.8 6.785-6.8 17.161v143.677Q528-278 534.8-271q6.8 7 17.2 7 10.4 0 17.2-6.8 6.8-6.8 6.8-17.2v-24Zm0-48v-48h48v48h-48Z"/></svg>