<svg xmlns="http://www.w3.org/2000/svg" height="20" viewBox="0 -960 960 960" width="20"><path d="m528-456 49 63q1 1 17.692 9Q609-384 615-396.5t-2-23.5l-45-60 46-61q8-11 1.647-23T595-576q-5.478 0-10.174 2.455Q580.13-571.091 577-567l-49 63v-48q0-10.4-6.8-17.2-6.8-6.8-17.2-6.8-10.4 0-17.2 6.785-6.8 6.785-6.8 17.161v143.677Q480-398 486.8-391q6.8 7 17.2 7 10.4 0 17.2-6.8 6.8-6.8 6.8-17.2v-48Zm-144-72.062v119.689Q384-398 390.8-391q6.8 7 17.2 7 10.4 0 17.2-6.785 6.8-6.785 6.8-17.161v-143.677Q432-562 425.233-569q-6.767-7-17.116-7H360.35Q350-576 343-569.2q-7 6.8-7 17.2 0 10.373 6.8 17.155 6.8 6.783 17.2 6.783h24ZM216-144q-29.7 0-50.85-21.15Q144-186.3 144-216v-528q0-29.7 21.15-50.85Q186.3-816 216-816h528q29.7 0 50.85 21.15Q816-773.7 816-744v528q0 29.7-21.15 50.85Q773.7-144 744-144H216Zm0-72h528v-528H216v528Zm0-528v528-528Z"/></svg>