<svg xmlns="http://www.w3.org/2000/svg" height="20" viewBox="0 -960 960 960" width="20"><path d="M648-456v24q0 9.6 7.2 16.8 7.2 7.2 16.8 7.2 9.6 0 16.8-7.2 7.2-7.2 7.2-16.8v-24h24q9.6 0 16.8-7.2 7.2-7.2 7.2-16.8 0-9.6-7.2-16.8-7.2-7.2-16.8-7.2h-24v-24q0-9.6-7.2-16.8-7.2-7.2-16.8-7.2-9.6 0-16.8 7.2-7.2 7.2-7.2 16.8v24h-24q-9.6 0-16.8 7.2-7.2 7.2-7.2 16.8 0 9.6 7.2 16.8 7.2 7.2 16.8 7.2h24Zm-152 0 49 63q1 1 17.692 9Q577-384 583-396.5t-2-23.5l-45-60 46-61q8-11 1.647-23T563-576q-5.478 0-10.174 2.455Q548.13-571.091 545-567l-49 63v-48q0-10.4-6.8-17.2-6.8-6.8-17.2-6.8-10.4 0-17.2 6.785-6.8 6.785-6.8 17.161v143.677Q448-398 454.8-391q6.8 7 17.2 7 10.4 0 17.2-6.8 6.8-6.8 6.8-17.2v-48Zm-159.65 23.688v24.156q0 10.468 6.825 17.312Q350-384 360-384t17-6.8q7-6.8 7-17.2v-24q10.4 0 17.2-6.8 6.8-6.8 6.8-17.2 0-10-9-14t-15-10v-71.651Q384-562 377.2-569t-17.2-7q-10.4 0-17.2 6.8-6.8 6.8-6.8 17.2v72h-48v-72q0-10.4-6.8-17.2-6.8-6.8-17.2-6.8-10.4 0-17.2 6.779-6.8 6.779-6.8 17.147v95.706q0 10.368 6.825 17.212 6.825 6.844 17.263 6.844h72.262ZM216-144q-29.7 0-50.85-21.15Q144-186.3 144-216v-528q0-29.7 21.15-50.85Q186.3-816 216-816h528q29.7 0 50.85 21.15Q816-773.7 816-744v528q0 29.7-21.15 50.85Q773.7-144 744-144H216Zm0-72h528v-528H216v528Zm0-528v528-528Z"/></svg>