<svg xmlns="http://www.w3.org/2000/svg" height="20" viewBox="0 -960 960 960" width="20"><path d="M288-384h96q10.2 0 17.1-6.9 6.9-6.9 6.9-17.1v-144q0-10.2-6.9-17.1-6.9-6.9-17.1-6.9h-96q-10.2 0-17.1 6.9-6.9 6.9-6.9 17.1v144q0 10.2 6.9 17.1 6.9 6.9 17.1 6.9Zm24-40v-36h48v36h-48Zm0-76v-36h48v36h-48Zm192 44 49 63q1 1 17.692 9Q585-384 591-396.5t-2-23.5l-45-60 46-61q8-11 1.647-23T571-576q-5.478 0-10.174 2.455Q556.13-571.091 553-567l-49 63v-48q0-10.4-6.8-17.2-6.8-6.8-17.2-6.8-10.4 0-17.2 6.785-6.8 6.785-6.8 17.161v143.677Q456-398 462.8-391q6.8 7 17.2 7 10.4 0 17.2-6.8 6.8-6.8 6.8-17.2v-48Zm144 0v24q0 9.6 7.2 16.8 7.2 7.2 16.8 7.2 9.6 0 16.8-7.2 7.2-7.2 7.2-16.8v-24h24q9.6 0 16.8-7.2 7.2-7.2 7.2-16.8 0-9.6-7.2-16.8-7.2-7.2-16.8-7.2h-24v-24q0-9.6-7.2-16.8-7.2-7.2-16.8-7.2-9.6 0-16.8 7.2-7.2 7.2-7.2 16.8v24h-24q-9.6 0-16.8 7.2-7.2 7.2-7.2 16.8 0 9.6 7.2 16.8 7.2 7.2 16.8 7.2h24ZM216-144q-29.7 0-50.85-21.15Q144-186.3 144-216v-528q0-29.7 21.15-50.85Q186.3-816 216-816h528q29.7 0 50.85 21.15Q816-773.7 816-744v528q0 29.7-21.15 50.85Q773.7-144 744-144H216Zm0-72h528v-528H216v528Zm0-528v528-528Z"/></svg>