<svg xmlns="http://www.w3.org/2000/svg" height="20" viewBox="0 -960 960 960" width="20"><path d="M96-264v-144q0-40 28-68t68-28h48v-192q0-29.7 21.15-50.85Q282.3-768 312-768h336q29.7 0 50.85 21.15Q720-725.7 720-696v192h48q40 0 68 28t28 68v144q0 29.7-21.15 50.85Q821.7-192 792-192H168q-29.7 0-50.85-21.15Q96-234.3 96-264Zm216-240h336v-192H312v192ZM168-264h624v-132q0-15.3-11.5-25.65Q769-432 753-432H207q-16 0-27.5 10.35T168-396v132Zm539.789-48Q723-312 733.5-322.289q10.5-10.29 10.5-25.5Q744-363 733.711-373.5q-10.29-10.5-25.5-10.5Q693-384 682.5-373.711q-10.5 10.29-10.5 25.5Q672-333 682.289-322.5q10.29 10.5 25.5 10.5ZM168-432h624-624Z"/></svg>