<svg xmlns="http://www.w3.org/2000/svg" height="20" viewBox="0 -960 960 960" width="20"><path d="M480.211-96Q465-96 454.5-106.35 444-116.7 444-132v-696q0-15.3 10.289-25.65 10.29-10.35 25.5-10.35Q495-864 505.5-853.65 516-843.3 516-828v696q0 15.3-10.289 25.65Q495.421-96 480.211-96ZM612-288q-15.3 0-25.65-10.35Q576-308.7 576-324v-312q0-15.3 10.35-25.65Q596.7-672 612-672h24q15.3 0 25.65 10.35Q672-651.3 672-636v312q0 15.3-10.35 25.65Q651.3-288 636-288h-24Zm-288 0q-15.3 0-25.65-10.35Q288-308.7 288-324v-312q0-15.3 10.35-25.65Q308.7-672 324-672h24q15.3 0 25.65 10.35Q384-651.3 384-636v312q0 15.3-10.35 25.65Q363.3-288 348-288h-24Z"/></svg>