<svg xmlns="http://www.w3.org/2000/svg" height="20" viewBox="0 -960 960 960" width="20"><path d="M828.211-96Q813-96 802.5-106.35 792-116.7 792-132v-696q0-15.3 10.289-25.65 10.29-10.35 25.5-10.35Q843-864 853.5-853.65 864-843.3 864-828v696q0 15.3-10.289 25.65Q843.421-96 828.211-96ZM612-288q-15.3 0-25.65-10.35Q576-308.7 576-324v-312q0-15.3 10.35-25.65Q596.7-672 612-672h24q15.3 0 25.65 10.35Q672-651.3 672-636v312q0 15.3-10.35 25.65Q651.3-288 636-288h-24Zm-240 0q-15.3 0-25.65-10.35Q336-308.7 336-324v-312q0-15.3 10.35-25.65Q356.7-672 372-672h24q15.3 0 25.65 10.35Q432-651.3 432-636v312q0 15.3-10.35 25.65Q411.3-288 396-288h-24Z"/></svg>