<svg xmlns="http://www.w3.org/2000/svg" height="20" viewBox="0 -960 960 960" width="20"><path d="M263.788-192Q234-192 213-213.212q-21-21.213-21-51Q192-294 213.212-315q21.213-21 51-21Q294-336 315-314.788q21 21.213 21 51Q336-234 314.788-213q-21.213 21-51 21Zm0-216Q234-408 213-429.212q-21-21.213-21-51Q192-510 213.212-531q21.213-21 51-21Q294-552 315-530.788q21 21.213 21 51Q336-450 314.788-429q-21.213 21-51 21Zm0-216Q234-624 213-645.212q-21-21.213-21-51Q192-726 213.212-747q21.213-21 51-21Q294-768 315-746.788q21 21.213 21 51Q336-666 314.788-645q-21.213 21-51 21Zm216 0Q450-624 429-645.212q-21-21.213-21-51Q408-726 429.212-747q21.213-21 51-21Q510-768 531-746.788q21 21.213 21 51Q552-666 530.788-645q-21.213 21-51 21Zm216 0Q666-624 645-645.212q-21-21.213-21-51Q624-726 645.212-747q21.213-21 51-21Q726-768 747-746.788q21 21.213 21 51Q768-666 746.788-645q-21.213 21-51 21Zm-216 216Q450-408 429-429.212q-21-21.213-21-51Q408-510 429.212-531q21.213-21 51-21Q510-552 531-530.788q21 21.213 21 51Q552-450 530.788-429q-21.213 21-51 21ZM528-228v-62.432q0-7.568 3-14.068t8-11.5l199-198q7.258-7.412 16.129-10.706Q763-528 771.759-528q9.556 0 18.315 3.5Q798.833-521 806-514l44 45q6.588 7.258 10.294 16.129Q864-444 864-435.241q0 8.76-3.294 17.917Q857.412-408.167 850-401L652-203q-5 5-11.5 8t-14.068 3H564q-15.3 0-25.65-10.35Q528-212.7 528-228Zm288-207-45-45 45 45ZM576-240h45l115-115-22-23-22-22-116 115v45Zm138-138-22-22 44 45-22-23Z"/></svg>