<svg xmlns="http://www.w3.org/2000/svg" height="20" viewBox="0 -960 960 960" width="20"><path d="M474-444h114.072q15.269 0 25.599-10.289Q624-464.579 624-479.789 624-495 613.671-505.5q-10.33-10.5-25.599-10.5H474l32-32q11-11 11-25.667 0-14.666-11-25.333-11-11-25.5-11T455-599l-94.138 94.138Q350-494 350-479.818T361-455l94 94q11 11 25.5 10.5T506-362q11-11 11-25.5T506-413l-32-31ZM216-144q-29.7 0-50.85-21.15Q144-186.3 144-216v-528q0-29.7 21.15-50.85Q186.3-816 216-816h171q8-31 33.5-51.5T480-888q34 0 59.5 20.5T573-816h171q29.7 0 50.85 21.15Q816-773.7 816-744v528q0 29.7-21.15 50.85Q773.7-144 744-144H216Zm0-72h528v-528H216v528Zm264-552q10.4 0 17.2-6.8 6.8-6.8 6.8-17.2 0-10.4-6.8-17.2-6.8-6.8-17.2-6.8-10.4 0-17.2 6.8-6.8 6.8-6.8 17.2 0 10.4 6.8 17.2 6.8 6.8 17.2 6.8ZM216-216v-528 528Z"/></svg>