<svg xmlns="http://www.w3.org/2000/svg" height="20" viewBox="0 -960 960 960" width="20"><path d="m699-699-62-29q-11-5-11-16t11-16l62.451-28.863L728-852q5-11 16-11t15.533 10.842l29.009 63.246L852-760q11 5 11 16t-10.842 15.533l-63.246 29.009L760-636q-5 11-16 11t-15.595-10.829L699-699Zm.458 527.912L636-200q-11-5-11-16t10.842-15.533l63.246-29.009L728-324q5-11 16-11t15.533 10.842l29.009 63.246L852-232q11 5 11 16t-10.842 15.533l-63.246 29.009L760-108q-5 11-16 11t-15.533-10.842l-29.009-63.246ZM300-411h119.579l18.684 52.657Q442-348 450.69-342q8.689 6 19.31 6 17 0 27-14t4-31l-96-268q-4-11-12.75-17T373-672h-24.632Q337-672 328-666q-9 6-13 17l-96 269q-6 17 4 30.5t27 13.5q10.667 0 19.394-6.229Q278.121-348.458 282-359l18-52Zm17-50 43-136 43 136h-86Zm43 221q100 0 170-70t70-170q0-100-70-170t-170-70q-100 0-170 70t-70 170q0 100 70 170t170 70Zm0 72q-130 0-221-91T48-480q0-130 91-221t221-91q130 0 221 91t91 221q0 130-91 221t-221 91Zm0-312Z"/></svg>