<svg xmlns="http://www.w3.org/2000/svg" height="20" viewBox="0 -960 960 960" width="20"><path d="m443-593 36-104h2l36 104h-74Zm37 209q-90 0-153-63t-63-153q0-90 63-153t153-63q90 0 153 63t63 153q0 90-63 153t-153 63Zm-51-172h102l17.348 50.862Q550-499 555-495.5t11.781 3.5q11.625 0 17.922-9 6.297-9 1.835-18.837L508-730q-1.8-6-7.2-10t-12.6-4H472q-7.2 0-12.6 4-5.4 4-7.228 10.281L372.656-518.87Q369-509 374.909-500.5q5.909 8.5 16.818 8.5 7.273 0 12.773-4t7.152-10.125L429-556ZM180.211-96Q165-96 154.5-106.35 144-116.7 144-132v-120q0-15.3 10.289-25.65 10.29-10.35 25.5-10.35Q195-288 205.5-277.65 216-267.3 216-252v120q0 15.3-10.289 25.65Q195.421-96 180.211-96Zm144 0Q309-96 298.5-106.35 288-116.7 288-132v-120q0-15.3 10.289-25.65 10.29-10.35 25.5-10.35Q339-288 349.5-277.65 360-267.3 360-252v120q0 15.3-10.289 25.65Q339.421-96 324.211-96Zm144 0Q453-96 442.5-106.35 432-116.7 432-132v-120q0-15.3 10.289-25.65 10.29-10.35 25.5-10.35Q483-288 493.5-277.65 504-267.3 504-252v120q0 15.3-10.289 25.65Q483.421-96 468.211-96ZM612-96q-15.3 0-25.65-10.35Q576-116.7 576-132v-120q0-15.3 10.35-25.65Q596.7-288 612-288h168q15.3 0 25.65 10.35Q816-267.3 816-252v120q0 15.3-10.35 25.65Q795.3-96 780-96H612Z"/></svg>