<svg xmlns="http://www.w3.org/2000/svg" height="20" viewBox="0 -960 960 960" width="20"><path d="M395.789-384Q411-384 421.5-394.35 432-404.7 432-420v-264q0-15.3-10.289-25.65-10.29-10.35-25.5-10.35Q381-720 370.5-709.65 360-699.3 360-684v264q0 15.3 10.289 25.65 10.29 10.35 25.5 10.35Zm168 0Q579-384 589.5-394.35 600-404.7 600-420v-264q0-15.3-10.289-25.65-10.29-10.35-25.5-10.35Q549-720 538.5-709.65 528-699.3 528-684v264q0 15.3 10.289 25.65 10.29 10.35 25.5 10.35ZM240-240l-82.883 82.883Q140-140 118-149.406 96-158.812 96-183v-609q0-29.7 21.15-50.85Q138.3-864 168-864h624q29.7 0 50.85 21.15Q864-821.7 864-792v480q0 29.7-21.15 50.85Q821.7-240 792-240H240Zm-30-72h582v-480H168v522l42-42Zm-42 0v-480 480Z"/></svg>