<svg xmlns="http://www.w3.org/2000/svg" height="20" viewBox="0 -960 960 960" width="20"><path d="M480.5-96Q401-96 331-126t-122.5-82.5Q156-261 126-330.973T96-480q0-23 12-100t84-155q16-15 35-22.5t33 6.5l244 245q11 11 11 25t-11 25q-11 11-25 11t-25-11L236-673q-31.875 39.744-49.938 88.872Q168-535 168-480q0 130 91 221t221 91q130 0 221-91t91-221q0-120.885-79.5-208.443Q633-776 516-790v82q0 15.3-10.289 25.65-10.29 10.35-25.5 10.35Q465-672 454.5-682.35 444-692.7 444-708v-120q0-15.3 9.775-25.65Q463.55-864 478-864q79.373 0 149.629 30.155 70.255 30.155 122.813 82Q803-700 833.5-629.805q30.5 70.196 30.5 149.5Q864-401 834-331t-82.5 122.5Q699-156 629.5-126t-149 30ZM288-432q-20.4 0-34.2-13.8Q240-459.6 240-480q0-20.4 13.8-34.2Q267.6-528 288-528q20.4 0 34.2 13.8Q336-500.4 336-480q0 20.4-13.8 34.2Q308.4-432 288-432Zm192 192q-20.4 0-34.2-13.8Q432-267.6 432-288q0-20.4 13.8-34.2Q459.6-336 480-336q20.4 0 34.2 13.8Q528-308.4 528-288q0 20.4-13.8 34.2Q500.4-240 480-240Zm192-192q-20.4 0-34.2-13.8Q624-459.6 624-480q0-20.4 13.8-34.2Q651.6-528 672-528q20.4 0 34.2 13.8Q720-500.4 720-480q0 20.4-13.8 34.2Q692.4-432 672-432Z"/></svg>