<svg xmlns="http://www.w3.org/2000/svg" height="20" viewBox="0 -960 960 960" width="20"><path d="M600.113-756Q580-756 566-769.887q-14-13.888-14-34Q552-824 565.887-838q13.888-14 34-14Q620-852 634-838.113q14 13.888 14 34Q648-784 634.113-770q-13.888 14-34 14Zm0 648Q580-108 566-121.887q-14-13.888-14-34Q552-176 565.887-190q13.888-14 34-14Q620-204 634-190.113q14 13.888 14 34Q648-136 634.113-122q-13.888 14-34 14Zm168-504Q748-612 734-625.887q-14-13.888-14-34Q720-680 733.887-694q13.888-14 34-14Q788-708 802-694.113q14 13.888 14 34Q816-640 802.113-626q-13.888 14-34 14Zm0 360Q748-252 734-265.887q-14-13.888-14-34Q720-320 733.887-334q13.888-14 34-14Q788-348 802-334.113q14 13.888 14 34Q816-280 802.113-266q-13.888 14-34 14Zm48-180Q796-432 782-445.887q-14-13.888-14-34Q768-500 781.887-514q13.888-14 34-14Q836-528 850-514.113q14 13.888 14 34Q864-460 850.113-446q-13.888 14-34 14ZM96-480q0-150 100.065-258.815t245.614-123.259Q457-864 468.5-853.732q11.5 10.268 11.5 25.446 0 14.286-8.5 24.786Q463-793 449-791q-119 11-200 99.816T168-480q0 122 81 211t200 100q14 2 22.5 12.526 8.5 10.527 8.5 24.562Q480-117 468.5-106.5 457-96 441.757-97.882 296-112 196-221T96-480Zm383.788 72Q450-408 429-429.15 408-450.3 408-480v-9.5q0-4.5 2-9L361-548q-11-11-10.5-25.5T362-599q11-11 25.5-11t25.5 11l48 49q6-2 19-2 29.7 0 50.85 21.212 21.15 21.213 21.15 51Q552-450 530.788-429q-21.213 21-51 21Z"/></svg>