<svg xmlns="http://www.w3.org/2000/svg" height="20" viewBox="0 -960 960 960" width="20"><path d="M168-645v129q0 15.3-10.289 25.65-10.29 10.35-25.5 10.35Q117-480 106.5-490.35 96-500.7 96-516v-216q0-15.3 10.35-25.65Q116.7-768 132-768h216q15.3 0 25.65 10.289 10.35 10.29 10.35 25.5Q384-717 373.65-706.5 363.3-696 348-696H219l165 166q11 11 11 25t-11 25q-11 11-25 11t-25-11L168-645Zm0 453q-29.7 0-50.85-21.15Q96-234.3 96-264v-108q0-15.3 10.289-25.65 10.29-10.35 25.5-10.35Q147-408 157.5-397.65 168-387.3 168-372v108h300q15.3 0 25.65 10.289 10.35 10.29 10.35 25.5Q504-213 493.65-202.5 483.3-192 468-192H168Zm660.211-264Q813-456 802.5-466.35 792-476.7 792-492v-204H492q-15.3 0-25.65-10.289-10.35-10.29-10.35-25.5Q456-747 466.35-757.5 476.7-768 492-768h300q29.7 0 50.85 21.15Q864-725.7 864-696v204q0 15.3-10.289 25.65-10.29 10.35-25.5 10.35ZM612.283-192Q597-192 586.5-202.35 576-212.7 576-228v-120q0-15.3 10.338-25.65Q596.677-384 611.96-384h215.757Q843-384 853.5-373.65 864-363.3 864-348v120q0 15.3-10.338 25.65Q843.323-192 828.04-192H612.283Z"/></svg>