<svg xmlns="http://www.w3.org/2000/svg" height="20" viewBox="0 -960 960 960" width="20"><path d="M168-96q-29.7 0-50.85-21.162Q96-138.324 96-168.04v-432.243Q96-630 117.15-651T168-672h120v72H168v432h624v-432H672v-72h120q29.7 0 50.85 21.162Q864-629.676 864-599.96v432.243Q864-138 842.85-117T792-96H168Zm120-240q-20 0-34-14t-14-34q0-20 14-34t34-14q20 0 34 14t14 34q0 20-14 34t-34 14Zm-72 120v-23.684Q216-270 237.5-291q21.5-21 50.818-21Q302-312 316-305.5q14 6.5 23 17.5l44 49q5 6 11.19 12 6.191 6 13.81 11H216Zm156-120v-26q0-32 30-51t78-19q48 0 78 19t30 51v26H372Zm372 120H552q8-5.294 14.5-11.647Q573-234 578-240l44-49q9-11 23.5-17t28.5-6q29 0 49.5 21.12T744-240v24ZM480-456q-20 0-34-14t-14-34q0-20 14-34t34-14q20 0 34 14t14 34q0 20-14 34t-34 14Zm192 120q-20 0-34-14t-14-34q0-20 14-34t34-14q20 0 34 14t14 34q0 20-14 34t-34 14ZM306-734q-23-26-32.5-50.5T264-838v-11.812Q264-856 265-863q1-11 8.811-18t19.322-7q9.867 0 16.367 7.5T314-863q-1 7.5-1.5 13.75t-.5 11.685q0 19.565 7 36.065 7 16.5 24 36.5 23 27 32 50.5t9 49.214q0 4.286-.5 8.286t-.5 8q-1 11-7.721 18t-16.209 7Q348-624 340-631.258T334-649l2-19q0-15.652-7-31.826T306-734Zm120 0q-23-26-32.5-50.5T384-838v-11.812Q384-856 385-863q1-11 8.989-18 7.988-7 18.92-7 10.091 0 16.591 7.5Q436-873 434-863q-1 8-1.5 14t-.5 11.435q0 19.565 7 36.065 7 16.5 24 36.5 23 27 32.5 50.5t9.5 49.214V-657q0 4-1 8-2 11-8.721 18t-16.209 7Q468-624 460-631.5t-6-17.5l2-19q0-15.652-7-31.826T426-734Zm119 0q-23-26-32.5-50.5T503-838v-11.812Q503-856 504-863q1-11 8.989-18 7.988-7 18.92-7 10.091 0 16.591 7.5Q555-873 553-863q-1 8-1.5 14t-.5 11.435q0 19.565 7 36.065 7 16.5 24 36.5 23 27 32.5 50.5t9.5 49.214V-657q0 4-1 8-2 11-8.721 18t-16.209 7Q587-624 579-631.258T573-649l2-19q0-15.652-7-31.826T545-734Z"/></svg>