<svg xmlns="http://www.w3.org/2000/svg" height="20" viewBox="0 -960 960 960" width="20"><path d="m638-231 94-94q10.636-11 24.818-11Q771-336 782-325q11 11 11 25.667 0 14.666-11 25.333L663-155q-10.667 11-25.333 11Q623-144 612.2-154.832l-50.4-51.451Q551-217.115 551-231.558 551-246 562-257t25-11q14 0 25 11l26 26Zm-278 63Zm-24 72q-20.4 0-34.2-13.8Q288-123.6 288-144v-600q0-20.4 13.8-34.2Q315.6-792 336-792h72v-24q0-20.4 13.8-34.2Q435.6-864 456-864h48q20.4 0 34.2 13.8Q552-836.4 552-816v24h72q20.4 0 34.2 13.8Q672-764.4 672-744v252q0 15.3-10.289 25.65-10.29 10.35-25.5 10.35Q621-456 610.5-466.35 600-476.7 600-492v-228H360v552h84q15.3 0 25.65 10.289 10.35 10.29 10.35 25.5Q480-117 469.65-106.5 459.3-96 444-96H336Z"/></svg>