<svg xmlns="http://www.w3.org/2000/svg" height="20" viewBox="0 -960 960 960" width="20"><path d="M336-96q-20.4 0-34.2-13.8Q288-123.6 288-144v-600q0-20.4 13.8-34.2Q315.6-792 336-792h72v-24q0-20.4 13.8-34.2Q435.6-864 456-864h48q20.4 0 34.2 13.8Q552-836.4 552-816v24h72q20.4 0 34.2 13.8Q672-764.4 672-744v252q0 15.3-10.289 25.65-10.29 10.35-25.5 10.35Q621-456 610.5-466.35 600-476.7 600-492v-228H360v480h43.468Q415-240 424-231.5t10.2 20.556q1.8 18.944 6.887 36.91Q446.174-156.068 454-139q7 15-.515 29T430-96h-94Zm306-120h-48q-11.25 0-16.625-9.823Q572-235.645 579-245l107-141q4-5 10-3.333 6 1.666 6 8.333v117h48q11.25 0 16.625 9.823Q772-244.355 765-235L658-94q-4 5-10 3.333-6-1.666-6-8.333v-117Z"/></svg>