<svg xmlns="http://www.w3.org/2000/svg" height="20" viewBox="0 -960 960 960" width="20"><path d="M335.723-96Q306-96 285.5-117T264-168v-72q0-42 22.5-77t52.5-49l-26.974-162H216q-29.7 0-50.85-21.176Q144-570.352 144-600.088v-144.176Q144-774 165.15-795q21.15-21 50.85-21h168v-12q0-15 10.5-25.5T420-864h120q15 0 25.5 10.5T576-828v12h78q17 0 27.5 12.5t7.413 29.203L621-366q30 14 52.5 49t22.5 77v72q0 29.7-21.166 50.85Q653.667-96 623.945-96H335.723ZM300-600l-24-144h-60v144h84Zm179.789 384Q495-216 505.5-226.289q10.5-10.29 10.5-25.5Q516-267 505.711-277.5q-10.29-10.5-25.5-10.5Q465-288 454.5-277.711q-10.5 10.29-10.5 25.5Q444-237 454.289-226.5q10.29 10.5 25.5 10.5ZM408-384h144l60-360H348l60 360Zm-72 216h288v-72q0-30-21-51t-51-21H408q-30 0-51 21t-21 51v72Zm144-72Z"/></svg>