<svg xmlns="http://www.w3.org/2000/svg" height="20" viewBox="0 -960 960 960" width="20"><path d="M192 0q-39.6 0-67.8-28.2Q96-56.4 96-96q0-39.6 28.2-67.8Q152.4-192 192-192h576q39.6 0 67.8 28.2Q864-135.6 864-96q0 39.6-28.2 67.8Q807.6 0 768 0H192Zm72-360h51l279-279-26-27-25-24-279 279v51Zm-72 35.922V-426q0-8 3-14.5t8-11.5l391-391q11-11 23.836-16 12.836-5 27-5T672-859q13 5 24.104 15.941L747-792q11 11 16 24t5 27.391q0 13.491-4.948 26.532-4.947 13.041-15.742 23.834L356-299q-5 5-11.5 8t-14.5 3H228.078q-15.333 0-25.705-10.373Q192-308.745 192-324.078ZM695-743l-51-49 51 49ZM594-639l-26-27-25-24 51 51Z"/></svg>