<svg xmlns="http://www.w3.org/2000/svg" height="20" viewBox="0 -960 960 960" width="20"><path d="M216-624h329-16 11-324Zm408 0h120-120Zm-402-72h516l-48-48H270l-48 48Zm186 243 72-36 72 36v-171H408v171ZM216-144q-29.7 0-50.85-21.15Q144-186.3 144-216v-474q0-14.35 5.5-27.675Q155-731 164.763-740.778L219-795q11-11 23.941-16 12.941-5 27.059-5h420q14.471 0 27.735 5Q731-806 741-795l54 54q11 10 16 23.325T816-690v131q0 15.3-10.289 25.65-10.29 10.35-25.5 10.35Q765-523 754.5-533.35 744-543.7 744-559v-65H624v145q-26 20-46.5 46.5T545-375l-65-33-91.967 45.984Q370-353 353-363.354t-17-31.061V-624H216v408h302q15.3 0 25.65 10.268Q554-195.464 554-180.286 554-166 544-155q-10 11-26.482 11H216Zm552.211 0q-15.211 0-25.585-10.35T732.252-180v-72h-72.168q-15.336 0-25.71-10.35T624-288q0-15.3 10.374-25.65Q644.748-324 660.084-324h72.168v-72q0-15.3 10.374-25.65Q753-432 768.234-432t25.539 10.35q10.305 10.35 10.305 25.65v72h71.688Q891-324 901.5-313.711q10.5 10.29 10.5 25.5 0 15.211-10.35 25.561T876-252.3h-72v72q0 15.3-10.289 25.8-10.29 10.5-25.5 10.5ZM216-624h329-16 11-324Z"/></svg>