<svg xmlns="http://www.w3.org/2000/svg" height="20" viewBox="0 -960 960 960" width="20"><path d="M228-792q-15.3 0-25.65-10.289-10.35-10.29-10.35-25.5Q192-843 202.35-853.5 212.7-864 228-864h564q29.7 0 50.85 21.15Q864-821.7 864-792v60q0 18.462-11.25 27.231Q841.5-696 828-696t-24.75-9.5Q792-715 792-732v-60H228Zm-84 504q-20.4 0-34.2-13.8Q96-315.6 96-336v-312q0-20.4 13.8-34.2Q123.6-696 144-696h168q20.4 0 34.2 13.8Q360-668.4 360-648v312q0 20.4-13.8 34.2Q332.4-288 312-288H144Zm504 72v-175q-12-5-18-16.5t-6-24.5q0-20.16 14-34.08Q652-480 671.512-480 692-480 706-466.08T720-432q0 14-6 25t-18 16v175q0 10.4-6.8 17.2-6.8 6.8-17.2 6.8-10.4 0-17.2-6.8-6.8-6.8-6.8-17.2Zm24.225-312Q632-528 604-500.16q-28 27.84-28 68.16 0 14 3 26.5t10 23.5q5 8 5 18t-7 17q-8 8-17.5 7.5T554-348q-13-18.485-19.5-39.742Q528-409 528-432q0-60.3 42.238-102.15Q612.476-576 671.789-576 732-576 774-534.15T816-432q0 25-8 47.5T785-343q-6 8-16 8t-17-8.471Q745-351 745.5-361t6.5-18q8-12.404 12-25.936T768-432q0-40.32-27.775-68.16-27.774-27.84-68-27.84Zm-.676-96q-79.493 0-135.521 56Q480-512 480-432q0 32.348 10 62.674T520-314q6 8 6 18t-7 17q-8 8-18 7.5t-16-8.5q-26-32-39.5-70.88Q432-389.76 432-432q0-100 70.027-170t169.539-70Q772-672 842-602t70 170q0 45-17 85.5T849-272q-7 8-16.593 8t-16.5-8q-6.907-8-6.407-18t7.5-18q22-26 34.5-57.5T864-432q0-80-56-136t-136.451-56ZM168-360h120v-264H168v264Zm0 0h120-120Z"/></svg>