<svg xmlns="http://www.w3.org/2000/svg" height="20" viewBox="0 -960 960 960" width="20"><path d="M372-510v-126.112Q372-651 361.711-661.5q-10.29-10.5-25.5-10.5Q321-672 310.5-661.743 300-651.487 300-636.324v141.81q0 7.136 3 13.825 3 6.689 8.339 12.028L411-369q11 11 25.5 10.5T462-370q11-11 11-25.5T462-421l-90-89Zm516 29.5q0-87.5-51-155T705-730q-14-5-21.5-18t-5.633-26.548Q680-789 691.5-798q11.5-9 25.5-5 107 29 175 118.5T960-480q0 115-67.5 204.5T718-157q-14 4-26-5t-14.133-23.452Q676-199 683.5-212q7.5-13 21.5-18 81-28 132-95.5t51-155ZM336-144q-70 0-131.133-26.6-61.134-26.6-106.4-71.867Q53.2-287.733 26.6-348.867 0-410 0-480t26.6-131.133q26.6-61.134 71.867-106.4 45.266-45.267 106.4-71.867Q266-816 336-816t131.133 26.6q61.134 26.6 106.4 71.867 45.267 45.266 71.867 106.4Q672-550 672-480t-26.6 131.133q-26.6 61.134-71.867 106.4-45.266 45.267-106.4 71.867Q406-144 336-144Zm-.222-72Q446-216 523-292.778q77-76.779 77-187Q600-590 523.222-667q-76.779-77-187-77Q226-744 149-667.222q-77 76.779-77 187Q72-370 148.778-293q76.779 77 187 77ZM336-480Z"/></svg>