<svg xmlns="http://www.w3.org/2000/svg" height="20" viewBox="0 -960 960 960" width="20"><path d="M96-168h528v35.789Q624-117 613.65-106.5 603.3-96 588-96H132q-15.3 0-25.65-10.35Q96-116.7 96-132v-36Zm0-72v-35.789Q96-291 106.35-301.5 116.7-312 132-312h156v-35.789Q288-363 298.325-373.5 308.65-384 323.912-384h71.825Q411-384 421.5-373.65 432-363.3 432-348v36h156q15.3 0 25.65 10.35Q624-291.3 624-276v36H96Zm612-103q-40-23-62-63t-22-86v-336q0-15.3 10.35-25.65Q644.7-864 660-864h168q15.3 0 25.65 10.35Q864-843.3 864-828v336q0 46-22 86t-62 63v175h48q15.3 0 25.65 10.289 10.35 10.29 10.35 25.5Q864-117 853.65-106.5 843.3-96 828-96h-84q-15.3 0-25.65-10.35Q708-116.7 708-132v-211Zm-12-281h96v-168h-96v168Zm48 218q23-14 35.5-37t12.5-49v-60h-96v60q0 26 12.5 49t35.5 37Zm0 0Z"/></svg>