<svg xmlns="http://www.w3.org/2000/svg" height="20" viewBox="0 -960 960 960" width="20"><path d="M48-228v-504q0-15.3 10.29-25.65Q68.578-768 83.79-768q15.21 0 25.71 10.35T120-732v504q0 15.3-10.289 25.65Q99.421-192 84.211-192 69-192 58.5-202.35 48-212.7 48-228Zm144 0v-504q0-15.3 10.289-25.65 10.29-10.35 25.5-10.35Q243-768 253.5-757.65 264-747.3 264-732v504q0 15.3-10.289 25.65-10.29 10.35-25.5 10.35Q213-192 202.5-202.35 192-212.7 192-228Zm216 36q-29.7 0-50.85-21.15Q336-234.3 336-264v-432q0-29.7 21.15-50.85Q378.3-768 408-768h432q29.7 0 50.85 21.15Q912-725.7 912-696v432q0 29.7-21.15 50.85Q869.7-192 840-192H408Zm0-72h432v-432H408v432Zm192-108-45-59q-5-8-14-8t-14 8l-50 66q-7 9-1.28 19T492-336h264q10.5 0 15.75-10T770-365l-73-96q-5.308-7-14.154-7T669-461l-69 89ZM408-264v-432 432Z"/></svg>