<svg xmlns="http://www.w3.org/2000/svg" height="20" viewBox="0 -960 960 960" width="20"><path d="M263.717-144Q234-144 213-165.15T192-216v-348q0-16.849 7.5-31.925Q207-611 221-622l216-162q20-14 43-14t43 14l216 162q14 11 21.5 26.075Q768-580.849 768-564v348q0 29.7-21.162 50.85Q725.676-144 695.96-144H263.717Zm.283-72h432v-348L480-726 264-564v348Zm216-255ZM360-288h168q10.2 0 17.1-6.9 6.9-6.9 6.9-17.1v-50l44.311 30.375Q605-326 614.5-330.5t9.5-15.683v-99.634q0-11.183-9.5-15.683t-18.189 1.125L552-430v-50q0-10.2-6.9-17.1-6.9-6.9-17.1-6.9H360q-10.2 0-17.1 6.9-6.9 6.9-6.9 17.1v168q0 10.2 6.9 17.1 6.9 6.9 17.1 6.9Z"/></svg>