<svg xmlns="http://www.w3.org/2000/svg" height="20" viewBox="0 -960 960 960" width="20"><path d="M312-288q-29.7 0-50.85-21.15Q240-330.3 240-360v-240q0-29.7 21.15-50.85Q282.3-672 312-672h48l37-37q5-5 11.5-8t14.5-3h114q8 0 14.5 3t11.5 8l37 37h48q29.7 0 50.85 21.15Q720-629.7 720-600v240q0 29.7-21.15 50.85Q677.7-288 648-288H312Zm0-72h336v-240H312v240Zm168.212-48Q510-408 531-429.212q21-21.213 21-51Q552-510 530.788-531q-21.213-21-51-21Q450-552 429-530.788q-21 21.213-21 51Q408-450 429.212-429q21.213 21 51 21ZM482-481ZM478 0Q301 0 169.5-110.5T6-388q-3-14.356 6-26.178Q21-426 35.5-428t27.052 6.842Q75.103-412.316 78-398q28 134 130 225T449-73l-42-43q-11-11-11-25t11-25q11-11 25.5-11.5T458-167L585.252-39.748Q592-33 589.321-23.1 586.643-13.2 577-11q-29 6-54 8.5T478 0Zm4-960q177 0 308.5 111T954-571q3 13.978-6 25.489Q939-534 924.5-532t-27.052-6.842Q884.897-547.684 882-562q-28-134-130-225T511-887l42 43q11 11 11 25t-11 25q-11 11-25.5 11.5T502-793L374.748-920.252Q368-927 370.679-936.9q2.678-9.9 12.321-12.1 29-6 54-8.5t45-2.5Z"/></svg>