<svg xmlns="http://www.w3.org/2000/svg" height="20" viewBox="0 -960 960 960" width="20"><path d="M264-324q20 0 34-14t14-34q0-20-14-34t-34-14q-20 0-34 14t-14 34q0 20 14 34t34 14Zm336 0q20 0 33-12.5t15-31.5q-12-5-23-12.5t-22.25-18.375L584-417q-14 5-23 17t-9 28q0 20 14 34t34 14Zm-432 36v-168 168ZM96-465.889q0-6.704 1.5-13.407Q99-486 101-493l73-182q8-20 26-32.5t41-12.5h83q15.3 0 25.65 10.289 10.35 10.29 10.35 25.5Q360-669 349.65-658.5 339.3-648 324-648h-83l-48 120h275q15.3 0 25.65 10.289 10.35 10.29 10.35 25.5Q504-477 493.65-466.5 483.3-456 468-456H168v168h528v-27q0-15.3 10.289-25.65 10.29-10.35 25.5-10.35Q747-351 757.5-340.65 768-330.3 768-315v123q0 20-14 34t-34 14q-20 0-34-14t-14-34v-24H192v24q0 20-14 34t-34 14q-20 0-34-14t-14-34v-273.889ZM587.789-720Q603-720 613.5-730.289q10.5-10.29 10.5-25.5Q624-771 613.711-781.5q-10.29-10.5-25.5-10.5Q573-792 562.5-781.711q-10.5 10.29-10.5 25.5Q552-741 562.289-730.5q10.29 10.5 25.5 10.5Zm65.137 269.852L448.035-655.93Q440-664 436-673.5t-4-20.5v-164q0-25 14.5-39.5T486-912h164q11 0 20.5 4t17.57 12.07l205.782 205.782Q911-673 911-652q0 21-17 38L730-450q-17 17-38.5 17t-38.574-17.148ZM692-514l138-138-188-188H504v138l188 188Zm-25-163Z"/></svg>