<svg xmlns="http://www.w3.org/2000/svg" height="20" viewBox="0 -960 960 960" width="20"><path d="M483-337q-29 0-56.5-10T378-378q-20-20-31-46.282-11-26.282-11-55.718 0-9.737.8-18.987.8-9.25 3.2-18.013 2-10-1.656-18.823-3.656-8.824-12.594-12.501-9.75-3.676-18.375.513t-11.625 14.243Q292-521 290-507.63q-2 13.369-2 27.63 0 38 14.712 73.416T344-344q28 28 64.5 42t75.5 14l-27 27q-7 7.364-7 17.182Q450-234 457-227q7 7 16.818 7 9.818 0 17.182-7l59.789-59.789Q562-298 562-312.182T551-337l-59-60q-7.364-7-17.182-7Q465-404 458-397q-7 7-7 16.818 0 9.818 7 17.182l25 26Zm-7-287q29.699 0 57.349 10.5Q561-603 582-582q20 20 31 46.282 11 26.282 11 55.718 0 9-.8 18.5T620-443q-2 10 1.5 19t12.587 12q9.913 3 18.897-1.324 8.985-4.325 12.11-14.703Q669-441 670.5-453.5 672-466 672-480q0-38-15-73.5T615-616q-28-28-65-41.5T474-670l29-29q7-7.364 7-17.182Q510-726 503-733q-7-7-16.818-7-9.818 0-17.182 7l-59.789 59.789Q398-662 398-647.818T409-623l60 60q7.364 7 17.182 7Q496-556 503-563q7-7 7-16.818 0-9.818-7-17.182l-27-27Zm4.276 528Q401-96 331-126q-70-30-122.5-82.5T126-330.958q-30-69.959-30-149.5Q96-560 126-629.5t82.5-122Q261-804 330.958-834q69.959-30 149.5-30Q560-864 629.5-834t122 82.5Q804-699 834-629.276q30 69.725 30 149Q864-401 834-331q-30 70-82.5 122.5T629.276-126q-69.725 30-149 30ZM480-168q130 0 221-91t91-221q0-130-91-221t-221-91q-130 0-221 91t-91 221q0 130 91 221t221 91Zm0-312Z"/></svg>