<svg xmlns="http://www.w3.org/2000/svg" height="20" viewBox="0 -960 960 960" width="20"><path d="M728-252H612.407q-15.473 0-25.94-10.289Q576-272.579 576-287.789 576-303 586.467-313.5q10.467-10.5 25.94-10.5H728l-31-32q-11-11-11-25t10.929-25q10.928-11 25.5-11 14.571 0 25.165 10.781l91.812 93.438Q850-302 850-288q0 14-10.594 24.781l-91.812 93.438Q737-159 722.429-159q-14.572 0-25.5-11Q686-181 686-195t11-25l31-32Zm-464-12-89 89q-8 8-19.5 3.833Q144-175.333 144-187v-508.595Q144-726 165.162-747t50.878-21h432.243Q678-768 699-746.85T720-696v130q0 15.3-10.289 25.65-10.29 10.35-25.5 10.35Q669-530 658.5-540.35 648-550.7 648-566v-130H216v360h228q15.3 0 25.65 10.289 10.35 10.29 10.35 25.5Q480-285 469.65-274.5 459.3-264 444-264H264Zm59.96-288h215.757Q555-552 565.5-562.289q10.5-10.29 10.5-25.5Q576-603 565.662-613.5 555.323-624 540.04-624H324.283Q309-624 298.5-613.711q-10.5 10.29-10.5 25.5Q288-573 298.338-562.5 308.677-552 323.96-552Zm.04 144h120q15.3 0 25.65-10.289 10.35-10.29 10.35-25.5Q480-459 469.65-469.5 459.3-480 444-480H324q-15.3 0-25.65 10.289-10.35 10.29-10.35 25.5Q288-429 298.35-418.5 308.7-408 324-408Zm-108 72v-360 360Z"/></svg>