<svg xmlns="http://www.w3.org/2000/svg" height="20" viewBox="0 -960 960 960" width="20"><path d="M96-180v-143q0-27.429 15.5-49.714Q127-395 153-403l87-29v-96q0-23.324 11.182-42.085Q262.364-588.845 281-600l163-98v-58h-48q-15.3 0-25.65-10.289-10.35-10.29-10.35-25.5Q360-807 370.35-817.5 380.7-828 396-828h48v-48q0-15.3 10.289-25.65 10.29-10.35 25.5-10.35Q495-912 505.5-901.65 516-891.3 516-876v48h48q15.3 0 25.65 10.289 10.35 10.29 10.35 25.5Q600-777 589.65-766.5 579.3-756 564-756h-48v58l163 98q18.636 11.155 29.818 29.915Q720-551.324 720-528v96l87 29q26 8 41.5 30.286Q864-350.429 864-323v143q0 34.65-24.675 59.325Q814.65-96 780-96H564q-15.3 0-25.65-10.35Q528-116.7 528-132v-108q0-20.4-13.8-34.2Q500.4-288 480-288q-20.4 0-34.2 13.8Q432-260.4 432-240v108q0 15.3-10.35 25.65Q411.3-96 396-96H180q-34.65 0-59.325-24.675Q96-145.35 96-180Zm72 12h192v-72q0-50.164 35-85.082Q430-360 480-360t85 34.918q35 34.918 35 85.082v72h192v-164l-144-48v-155L480-636 312-535v155l-144 48v164Zm312-252q23 0 41.5-18.5T540-480q0-23-18.5-41.5T480-540q-23 0-41.5 18.5T420-480q0 23 18.5 41.5T480-420Zm0 0Z"/></svg>