<svg xmlns="http://www.w3.org/2000/svg" height="20" viewBox="0 -960 960 960" width="20"><path d="M480-228q25 0 42.5-17.5T540-288H420q0 25 17.5 42.5T480-228Zm-72-180v-120q0-30 21.212-51 21.213-21 51-21Q510-600 531-578.85q21 21.15 21 50.85v120H408Zm72.276 312Q401-96 331-126q-70-30-122.5-82.5T126-330.958q-30-69.959-30-149.5Q96-560 126-629.5t82.5-122Q261-804 330.958-834q69.959-30 149.5-30Q560-864 629.5-834t122 82.5Q804-699 834-629.276q30 69.725 30 149Q864-401 834-331q-30 70-82.5 122.5T629.276-126q-69.725 30-149 30ZM480-168q130 0 221-91t91-221q0-130-91-221t-221-91q-130 0-221 91t-91 221q0 130 91 221t221 91Zm0-312ZM324-336h312q15.3 0 25.65-10.289 10.35-10.29 10.35-25.5Q672-387 661.65-397.5 651.3-408 636-408h-12v-120q0-50-30-89t-78-50.118V-683q0-15-10.289-26-10.29-11-25.5-11Q465-720 454.5-709 444-698 444-683v15.882Q396-656 366-617t-30 89v120h-12q-15.3 0-25.65 10.289-10.35 10.29-10.35 25.5Q288-357 298.35-346.5 308.7-336 324-336Z"/></svg>