<svg xmlns="http://www.w3.org/2000/svg" height="20" viewBox="0 -960 960 960" width="20"><path d="M792-480H168q-29.7 0-50.85-21.15Q96-522.3 96-552v-240q0-29.7 21.15-50.85Q138.3-864 168-864h624q29.7 0 50.85 21.15Q864-821.7 864-792v240q0 29.7-21.15 50.85Q821.7-480 792-480ZM444-227.945v-143.779Q444-387 454.289-397.5q10.29-10.5 25.5-10.5Q495-408 505.5-397.666q10.5 10.334 10.5 25.611v143.779Q516-213 505.711-202.5q-10.29 10.5-25.5 10.5Q465-192 454.5-202.334 444-212.668 444-227.945ZM792-552H168h624Zm-528 0v-96q0-29.7 21.166-50.85Q306.333-720 336.055-720h288.222Q654-720 675-698.85T696-648v96h-72v-96H336v96h-72Zm-96 0h624v-240H168v240Zm48 312q-15.3 0-25.65-10.289-10.35-10.29-10.35-25.5Q180-291 190.35-301.5 200.7-312 216-312q19.059 0 36.529-7 17.471-7 31.323-20.852Q292-348 297.158-356.081 302.316-364.162 306-374q4.655-14.316 15.828-24.158Q333-408 348.406-408q13.594 0 23.094 9.091Q381-389.818 381-378q0 21-16 48t-30 41q-24 24-54.686 36.5T216-240Zm525 0q15.3 0 25.65-10.289 10.35-10.29 10.35-25.5Q777-291 766.65-301.5 756.3-312 741-312q-19.059 0-36.529-7-17.471-7-31.323-20.852Q665-348 659.842-356.081 654.684-364.162 651-374q-4.655-14.316-15.828-24.158Q624-408 608.594-408 595-408 585.5-398.909 576-389.818 576-378q0 21 16 48t30 41q24 24 54.686 36.5T741-240Z"/></svg>