<svg xmlns="http://www.w3.org/2000/svg" height="20" viewBox="0 -960 960 960" width="20"><path d="M408-357 172-121q-11 11-25 10.5T122-122q-11-11-11-25.5t10.955-25.455L357-408H227.87q-15.245 0-25.558-10.289Q192-428.579 192-443.789 192-459 202.338-469.5 212.677-480 227.96-480h215.757Q459-480 469.5-469.662 480-459.323 480-444.04v215.757Q480-213 469.711-202.5q-10.29 10.5-25.5 10.5Q429-192 418.5-202.312 408-212.625 408-227.87V-357Zm195-195h129.13q15.245 0 25.558 10.289Q768-531.421 768-516.211 768-501 757.662-490.5 747.323-480 732.04-480H516.283Q501-480 490.5-490.338 480-500.677 480-515.96v-215.757Q480-747 490.289-757.5q10.29-10.5 25.5-10.5Q531-768 541.5-757.688 552-747.375 552-732.13V-603l236-236q11-11 25.5-11t25.5 11q11 11 11 25.5T839-788L603-552Z"/></svg>