<svg xmlns="http://www.w3.org/2000/svg" height="20" viewBox="0 -960 960 960" width="20"><path d="M144-180v-112q0-14.222 5-27.111Q154-332 165-343l321-321-54-53 51-51 72 72 110.222-110.222q4.445-4.445 11.111-7.111Q683-816 691-816t15 2.5q7 2.5 12 7.5l87 88q4.545 5.833 7.273 12.639Q815-698.556 815-690.778q0 7.778-2.664 14.439-2.664 6.661-7.105 11.101L696-556l72 73-51 51-54-54-320 321q-11 11-23.889 16T292-144H180q-15.3 0-25.65-10.35Q144-164.7 144-180Zm72-36h76l320-320-75-76-321 320v76Zm424-385 90-91-38-39-91 90 39 40Zm0 0-39-40 39 40Z"/></svg>