<svg xmlns="http://www.w3.org/2000/svg" height="20" viewBox="0 -960 960 960" width="20"><path d="M276-384h408q15.3 0 25.65-10.289 10.35-10.29 10.35-25.5Q720-435 709.65-445.5 699.3-456 684-456H276q-15.3 0-25.65 10.289-10.35 10.29-10.35 25.5Q240-405 250.35-394.5 260.7-384 276-384Zm0-132h408q15.3 0 25.65-10.289 10.35-10.29 10.35-25.5Q720-567 709.65-577.5 699.3-588 684-588H276q-15.3 0-25.65 10.289-10.35 10.29-10.35 25.5Q240-537 250.35-526.5 260.7-516 276-516Zm0-132h408q15.3 0 25.65-10.289 10.35-10.29 10.35-25.5Q720-699 709.65-709.5 699.3-720 684-720H276q-15.3 0-25.65 10.289-10.35 10.29-10.35 25.5Q240-669 250.35-658.5 260.7-648 276-648ZM168-240q-29.7 0-50.85-21.15Q96-282.3 96-312v-480q0-29.7 21.15-50.85Q138.3-864 168-864h624q29.7 0 50.85 21.15Q864-821.7 864-792v609q0 24.188-22 33.594-22 9.406-39.117-7.711L720-240H168Zm582-72 42 42v-522H168v480h582Zm-582 0v-480 480Z"/></svg>