<svg xmlns="http://www.w3.org/2000/svg" height="20" viewBox="0 -960 960 960" width="20"><path d="M288-480q0 8.667-.714 17.815-.715 9.148-2.143 17.815Q283-428 289.5-414.5t20.5 19q14 5.5 27.5-.5t16.5-20.788q3-14.788 4.5-30.5T360-480q0-17-1.5-32.712-1.5-15.712-4.5-30.5T337.5-564.5q-13.5-6.5-27.5-1T289.5-546q-6.5 14-4.357 30.37 1.428 8.667 2.143 17.815Q288-488.667 288-480Zm144 0q0 23.657-3 46.329Q426-411 420-390q-4 15 1.5 29.5t19.048 19.577Q455-335 468.5-342q13.5-7 18.5-21 8-27 12.5-56.67Q504-449.341 504-480t-4.5-60.33Q495-570 487-597q-5-14-18.5-21t-27.952-1.077Q427-614 421.5-599.5 416-585 420-570q6 21 9 43.671 3 22.672 3 46.329Zm144-.021q0 38.021-6 74.521T553-337q-5 14 .5 28.5t19.5 20q14 5.5 28.5-2t19.237-22.771Q634-351 641-393.034q7-42.033 7-87Q648-525 641-567q-7-42-20.263-79.729Q616-662 601.5-669.5q-14.5-7.5-28.5-2t-19.5 20Q548-637 553-623q11 32 17 68.479 6 36.48 6 74.5ZM480.276-96Q401-96 331-126q-70-30-122.5-82.5T126-330.958q-30-69.959-30-149.5Q96-560 126-629.5t82.5-122Q261-804 330.958-834q69.959-30 149.5-30Q560-864 629.5-834t122 82.5Q804-699 834-629.276q30 69.725 30 149Q864-401 834-331q-30 70-82.5 122.5T629.276-126q-69.725 30-149 30ZM480-168q130 0 221-91t91-221q0-130-91-221t-221-91q-130 0-221 91t-91 221q0 130 91 221t221 91Zm0-312Z"/></svg>