<svg xmlns="http://www.w3.org/2000/svg" height="20" viewBox="0 -960 960 960" width="20"><path d="M480.276-96Q401-96 331-126q-70-30-122.5-82.5T126-330.958q-30-69.959-30-149.5Q96-560 126-629.5t82.5-122Q261-804 330.958-834q69.959-30 149.5-30Q560-864 629.5-834t122 82.5Q804-699 834-629.276q30 69.725 30 149Q864-401 834-331q-30 70-82.5 122.5T629.276-126q-69.725 30-149 30ZM480-168q130 0 221-91t91-221q0-130-91-221t-221-91q-130 0-221 91t-91 221q0 130 91 221t221 91Zm0-312Zm84 192q15.3 0 25.65-10.289 10.35-10.29 10.35-25.5Q600-339 589.65-349.5 579.3-360 564-360H432v-84h96q29.7 0 50.85-21.15Q600-486.3 600-516v-84q0-29.7-21.15-50.85Q557.7-672 528-672H396q-15.3 0-25.65 10.289-10.35 10.29-10.35 25.5Q360-621 370.35-610.5 380.7-600 396-600h132v84h-96q-29.7 0-50.85 21.15Q360-473.7 360-444v120q0 15.3 10.35 25.65Q380.7-288 396-288h168Z"/></svg>