<svg xmlns="http://www.w3.org/2000/svg" height="20" viewBox="0 -960 960 960" width="20"><path d="m846-216-54-54v-210H582L438-624h354v-72H366l-72-72h498q29.7 0 50.85 21.15Q864-725.7 864-696v432q0 14-4 25.963-4 11.963-14 22.037ZM378-480Zm204 0Zm-204 0H168v216h426L378-480ZM168-192q-29.7 0-50.85-21.162Q96-234.324 96-264.04v-432.243Q96-726 116.856-747T167-768h25l78 78H168v66h66L81-778q-11-11-10.5-25T82-828q11-11 25-11t25.337 11.337l695.326 695.326Q839-121 839-106.818 839-92.636 828-82q-11 11-25.5 11.5T777-81L666-192H168Z"/></svg>