<svg xmlns="http://www.w3.org/2000/svg" height="20" viewBox="0 -960 960 960" width="20"><path d="M528-660v-121q0-14.875 10.062-24.938Q548.125-816 563-816h217.588Q796-816 806-805.938q10 10.063 10 24.938v121q0 15.3-10.062 25.65Q795.875-624 781-624H563.412Q548-624 538-634.35 528-644.7 528-660ZM144-467v-314q0-14.875 10.391-24.938Q164.782-816 180.143-816H397q14 0 24.5 10.062Q432-795.875 432-781v314q0 14-10.5 24.5T397-432H180.143q-15.361 0-25.752-10.5Q144-453 144-467Zm384 287v-312q0-15.3 10.062-25.65Q548.125-528 563-528h217.588Q796-528 806-517.65q10 10.35 10 25.65v312q0 15.3-10.062 25.65Q795.875-144 781-144H563.412Q548-144 538-154.35 528-164.7 528-180Zm-384 0v-122q0-14.875 10.391-24.938Q164.782-337 180.143-337H397q14 0 24.5 10.062Q432-316.875 432-302v122q0 15.3-10.5 25.65Q411-144 397-144H180.143q-15.361 0-25.752-10.35Q144-164.7 144-180Zm72-324h144v-240H216v240Zm384 288h144v-240H600v240Zm0-479h144v-49H600v49ZM216-216h144v-49H216v49Zm144-288Zm240-191Zm0 239ZM360-265Z"/></svg>