<svg xmlns="http://www.w3.org/2000/svg" height="20" viewBox="0 -960 960 960" width="20"><path d="M480.211-144Q465-144 454.5-154.35 444-164.7 444-180v-120q0-15.3 10.289-25.65 10.29-10.35 25.5-10.35Q495-336 505.5-325.65 516-315.3 516-300v120q0 15.3-10.289 25.65-10.29 10.35-25.5 10.35ZM769-264q-11 11-25.5 11T718-264l-86-85q-11-11-10.5-25t11.5-25q11-11 25.667-11 14.666 0 25.333 11l85 85q11 11 11 25t-11 25Zm-577 1q-11-11-11-25.5t11-25.387L277-399q10.636-11 24.818-11Q316-410 327-399q11 11 11 25.667 0 14.666-11 25.333l-85 85q-11 11-25 11t-25-11Zm24-481v48h528v-48H216Zm101 120 20 48h286l19-48H317Zm19 120q-22.941 0-41.471-12Q276-528 269-549l-29-75h-24q-29.7 0-50.85-21.15Q144-666.3 144-696v-48q0-29.7 21.15-50.85Q186.3-816 216-816h528q29.7 0 50.85 21.15Q816-773.7 816-744v48q0 29.7-21.15 50.85Q773.7-624 744-624h-24l-30 75q-8.265 19.904-26.633 32.452Q645-504 623-504H336ZM216-744v48-48Z"/></svg>