<svg xmlns="http://www.w3.org/2000/svg" height="20" viewBox="0 -960 960 960" width="20"><path d="M480-288q-17 0-28.5-11.5T440-328q0-17 11.5-28.5T480-368q17 0 28.5 11.5T520-328q0 17-11.5 28.5T480-288Zm-88-295q-10-5-12.5-16t3.5-21q16-25 41.893-38.5t55.206-13.5Q527-672 558.5-644.5 590-617 590-572q0 29-20 51.5T530-476q-8 8-13 17.5t-7 20.5q-1.907 11.586-10.012 19.793Q491.884-410 480.442-410t-19.942-8q-8.5-8-8.5-19 0-18 8-34t22-29q17-16 33.5-31.5T532-570q0-20.435-15.5-33.717Q501-617 480-617q-14 0-26.5 6.5T433-593.043Q425-583 414-580t-22-3ZM264-48q-29.7 0-50.85-21.15Q192-90.3 192-120v-720q0-29.7 21.15-50.85Q234.3-912 264-912h432q29.7 0 50.85 21.15Q768-869.7 768-840v720q0 29.7-21.15 50.85Q725.7-48 696-48H264Zm0-120v48h432v-48H264Zm0-72h432v-480H264v480Zm0-552h432v-48H264v48Zm0 0v-48 48Zm0 624v48-48Z"/></svg>