<svg xmlns="http://www.w3.org/2000/svg" height="20" viewBox="0 -960 960 960" width="20"><path d="M728-204H612.407q-15.473 0-25.94-10.289Q576-224.579 576-239.789 576-255 586.35-265.5 596.7-276 612-276h117l-32.936-34.468Q686-321 685.5-334.5T695-359q11-11 25-11t25 11l95 95q11 11 11 25.5T840-213l-92 92q-11 11-26 11t-26-11q-11-11-10.5-26t11.223-25.723L728-204Zm-512 60q-29.7 0-50.85-21.15Q144-186.3 144-216v-132q0-15.3 10.289-25.65 10.29-10.35 25.5-10.35Q195-384 205.5-373.65 216-363.3 216-348v132h132q15.3 0 25.65 10.289 10.35 10.29 10.35 25.5Q384-165 373.65-154.5 363.3-144 348-144H216Zm-72-468v-132q0-29.7 21.15-50.85Q186.3-816 216-816h132q15.3 0 25.65 10.289 10.35 10.29 10.35 25.5Q384-765 373.65-754.5 363.3-744 348-744H216v132q0 15.3-10.289 25.65-10.29 10.35-25.5 10.35Q165-576 154.5-586.35 144-596.7 144-612Zm600 0v-132H612q-15.3 0-25.65-10.289-10.35-10.29-10.35-25.5Q576-795 586.35-805.5 596.7-816 612-816h132q29.7 0 50.85 21.15Q816-773.7 816-744v132q0 15.3-10.289 25.65-10.29 10.35-25.5 10.35Q765-576 754.5-586.35 744-596.7 744-612Z"/></svg>