<svg xmlns="http://www.w3.org/2000/svg" height="20" viewBox="0 -960 960 960" width="20"><path d="M288-432v24q0 10.4 6.8 17.2 6.8 6.8 17.2 6.8 10.4 0 17.2-6.8 6.8-6.8 6.8-17.2v-96q0-10.4-6.8-17.2-6.8-6.8-17.2-6.8-10.4 0-17.2 6.8-6.8 6.8-6.8 17.2v24h-23.721Q254-480 247-473.2t-7 17.2q0 10.4 6.8 17.2 6.8 6.8 17.2 6.8h24Zm120 0h288q10.4 0 17.2-6.8 6.8-6.8 6.8-17.2 0-10.4-6.8-17.2-6.8-6.8-17.2-6.8H408q-10.4 0-17.2 6.8-6.8 6.8-6.8 17.2 0 10.4 6.8 17.2 6.8 6.8 17.2 6.8Zm264-144h23.721Q706-576 713-582.8t7-17.2q0-10.4-6.8-17.2-6.8-6.8-17.2-6.8h-24v-24q0-10.4-6.8-17.2-6.8-6.8-17.2-6.8-10.4 0-17.2 6.8-6.8 6.8-6.8 17.2v96q0 10.4 6.8 17.2 6.8 6.8 17.2 6.8 10.4 0 17.2-6.8 6.8-6.8 6.8-17.2v-24Zm-408 0h288q10.4 0 17.2-6.8 6.8-6.8 6.8-17.2 0-10.4-6.8-17.2-6.8-6.8-17.2-6.8H264q-10.4 0-17.2 6.8-6.8 6.8-6.8 17.2 0 10.4 6.8 17.2 6.8 6.8 17.2 6.8Zm-96 336q-29.7 0-50.85-21.162Q96-282.324 96-312.04v-432.243Q96-774 117.15-795T168-816h624q29.7 0 50.85 21.162Q864-773.676 864-743.96v432.243Q864-282 842.85-261T792-240H624v60q0 15.3-10.338 25.65Q603.323-144 588.04-144H372.283Q357-144 346.5-154.35 336-164.7 336-180v-60H168Zm0-72h624v-432H168v432Zm0 0v-432 432Z"/></svg>