<svg xmlns="http://www.w3.org/2000/svg" height="20" viewBox="0 -960 960 960" width="20"><path d="m816-245-72-72v-415q0-15.3 10.289-25.65 10.29-10.35 25.5-10.35Q795-768 805.5-757.65 816-747.3 816-732v487ZM360-701l-72-72v-7q0-15.3 10.289-25.65 10.29-10.35 25.5-10.35Q339-816 349.5-805.65 360-795.3 360-780v79Zm152 152-72-72v-255q0-15.3 10.289-25.65 10.29-10.35 25.5-10.35Q491-912 501.5-901.65 512-891.3 512-876v327Zm152 79h-72v-358q0-15.3 10.289-25.65 10.29-10.35 25.5-10.35Q643-864 653.5-853.65 664-843.3 664-828v358Zm57 333L360-498v162q0 21.447-18 31.723Q324-294 306-305l-113-67 201 243q4 4 8.5 6.5t9.5 2.5h260q17 0 29-4.5t20-12.5ZM412-48q-21.951 0-40.976-9Q352-66 338-83L68.147-408.704Q59-420 59.5-433.5T70-457l5-5q17-17 41.5-20.5T162-473l126 74v-171L115-743q-11-11-10.5-25.5T116-794q11-11 25.667-11 14.666 0 25.333 11l643 644 1 .5q1 .5 4 3.5 2 2 2 4.5t-2 4.5l-20 20q-19 31-51.5 50T672-48H412Zm129-270Zm51-152Z"/></svg>