<svg xmlns="http://www.w3.org/2000/svg" height="20" viewBox="0 -960 960 960" width="20"><path d="M96-756v-84q0-29.7 21.15-50.85Q138.3-912 168-912h84q15.3 0 25.65 10.289 10.35 10.29 10.35 25.5Q288-861 277.65-850.5 267.3-840 252-840h-84v84q0 15.3-10.289 25.65-10.29 10.35-25.5 10.35Q117-720 106.5-730.35 96-740.7 96-756Zm696 0v-84h-84q-15.3 0-25.65-10.289-10.35-10.29-10.35-25.5Q672-891 682.35-901.5 692.7-912 708-912h84q29.7 0 50.85 21.15Q864-869.7 864-840v84q0 15.3-10.289 25.65-10.29 10.35-25.5 10.35Q813-720 802.5-730.35 792-740.7 792-756ZM96-120v-84q0-15.3 10.289-25.65 10.29-10.35 25.5-10.35Q147-240 157.5-229.65 168-219.3 168-204v84h84q15.3 0 25.65 10.289Q288-99.421 288-84.211 288-69 277.65-58.5 267.3-48 252-48h-84q-29.7 0-50.85-21.15Q96-90.3 96-120Zm696 72h-84q-15.3 0-25.65-10.29Q672-68.578 672-83.79q0-15.21 10.35-25.71T708-120h84v-84q0-15.3 10.289-25.65 10.29-10.35 25.5-10.35Q843-240 853.5-229.65 864-219.3 864-204v84q0 29.7-21.15 50.85Q821.7-48 792-48ZM312-264h336v-432H312v432Zm-3 72q-30 0-49.5-21.5T240-264v-432q0-29 19.5-50.5T309-768h342q29 0 49 21.5t20 50.5v432q0 29-20 50.5T651-192H309Zm111-360h120q15.3 0 25.65-10.289 10.35-10.29 10.35-25.5Q576-603 565.65-613.5 555.3-624 540-624H420q-15.3 0-25.65 10.289-10.35 10.29-10.35 25.5Q384-573 394.35-562.5 404.7-552 420-552Zm0 108h120q15.3 0 25.65-10.289 10.35-10.29 10.35-25.5Q576-495 565.65-505.5 555.3-516 540-516H420q-15.3 0-25.65 10.289-10.35 10.29-10.35 25.5Q384-465 394.35-454.5 404.7-444 420-444Zm0 108h120q15.3 0 25.65-10.289 10.35-10.29 10.35-25.5Q576-387 565.65-397.5 555.3-408 540-408H420q-15.3 0-25.65 10.289-10.35 10.29-10.35 25.5Q384-357 394.35-346.5 404.7-336 420-336Zm-108 72v-432 432Z"/></svg>