<svg xmlns="http://www.w3.org/2000/svg" height="20" viewBox="0 -960 960 960" width="20"><path d="M360-96q-29.7 0-50.85-21.15Q288-138.3 288-168v-168h-62.154Q187-336 159-363.776q-28-27.776-28-67.456Q131-460 146.5-483t41.5-35l256-113v-24q-33-11-52.5-38.634T372-755.698Q372-801 403.41-832.5q31.411-31.5 76.282-31.5Q512-864 539-846.5t40 47.5q1 2 3 15 0 15.3-10.35 25.65Q561.3-748 546-748q-11 0-20-6t-13.407-16.057q-4.407-10.057-13.22-16-8.814-5.943-19.39-5.943Q465-792 454.5-781.711q-10.5 10.29-10.5 25.5 0 15.211 9.775 25.711Q463.55-720 478-720q16.15 0 27.075 11.5T516-680v49l256 113q26 12 41.5 35t15.5 51.768q0 39.68-28 67.456Q773-336 734.154-336H672v168q0 29.7-21.15 50.85Q629.7-96 600-96H360ZM226-408h80q10-11 24-17.5t30-6.5h240q16 0 30 6.5t24 17.5h80q10.062 0 16.531-7Q757-422 757-432q0-7.5-3.25-12.75T744-453L480-568 217-452q-6 3-10 8.25T203-431q0 10.222 6.469 16.611Q215.938-408 226-408Zm134 240h240v-192H360v192Zm0-192h240-240Z"/></svg>