<svg xmlns="http://www.w3.org/2000/svg" height="20" viewBox="0 -960 960 960" width="20"><path d="M744-96H612q-15.3 0-25.65-10.289-10.35-10.29-10.35-25.5Q576-147 586.35-157.5 596.7-168 612-168h132v-360H216v180q0 15.3-10.289 25.65-10.29 10.35-25.5 10.35Q165-312 154.5-322.35 144-332.7 144-348v-348q0-29 21.15-50.5T216-768h72v-60q0-15.3 10.289-25.65 10.29-10.35 25.5-10.35Q339-864 349.5-853.65 360-843.3 360-828v60h240v-60q0-15.3 10.289-25.65 10.29-10.35 25.5-10.35Q651-864 661.5-853.65 672-843.3 672-828v60h72q29 0 50.5 21.5T816-696v528q0 29-21.5 50.5T744-96Zm-376-60H132q-15.3 0-25.65-10.289Q96-176.579 96-191.789 96-207 106.35-217.5 116.7-228 132-228h236l-31-32q-11-11-11-25t11-25q11-11 25.5-11t25.5 11l91 93q11 10.636 11 24.818Q490-178 479-167l-91 93q-11 11-25.5 11T337-74q-11-11-11-25t11-25l31-32ZM216-600h528v-96H216v96Zm0 0v-96 96Z"/></svg>