<svg xmlns="http://www.w3.org/2000/svg" height="20" viewBox="0 -960 960 960" width="20"><path d="M168-144q-29.7 0-50.85-21.15Q96-186.3 96-216v-528q0-29.7 21.15-50.85Q138.3-816 168-816h624q29.7 0 50.85 21.15Q864-773.7 864-744v528q0 29.7-21.15 50.85Q821.7-144 792-144H168Zm0-72h624v-528H168v528Zm199-71q15.3 0 25.65-10.289 10.35-10.29 10.35-25.5Q403-338 392.65-348.5 382.3-359 367-359H247q-15.3 0-25.65 10.289-10.35 10.29-10.35 25.5Q211-308 221.35-297.5 231.7-287 247-287h120Zm215-175-25.822-26.1q-10.685-10.9-24.931-10.4Q517-498 505.522-487 495-476 495-461.5t10.815 25.315l51.37 51.37Q568-374 582.182-374T607-385l120-120q11-10.909 11-25.455Q738-545 727-556q-11-11-25.667-11-14.666 0-25.333 11l-94 94Zm-215 18q15.3 0 25.65-10.289 10.35-10.29 10.35-25.5Q403-495 392.65-505.5 382.3-516 367-516H247q-15.3 0-25.65 10.289-10.35 10.29-10.35 25.5Q211-465 221.35-454.5 231.7-444 247-444h120Zm0-156q15.3 0 25.65-10.289 10.35-10.29 10.35-25.5Q403-651 392.65-661.5 382.3-672 367-672H247q-15.3 0-25.65 10.289-10.35 10.29-10.35 25.5Q211-621 221.35-610.5 231.7-600 247-600h120ZM168-216v-528 528Z"/></svg>