<svg xmlns="http://www.w3.org/2000/svg" height="20" viewBox="0 -960 960 960" width="20"><path d="M600-384q29.7 0 50.85-21.15Q672-426.3 672-456v-60q0-29.7-21.15-50.85Q629.7-588 600-588h-96v-60h132q15.3 0 25.65-10.289 10.35-10.29 10.35-25.5Q672-699 661.65-709.5 651.3-720 636-720H468q-15.3 0-25.65 10.35Q432-699.3 432-684v132q0 15.3 10.35 25.65Q452.7-516 468-516h132v60H468q-15.3 0-25.65 10.289-10.35 10.29-10.35 25.5Q432-405 442.35-394.5 452.7-384 468-384h132ZM312-240q-29.7 0-50.85-21.15Q240-282.3 240-312v-480q0-29.7 21.15-50.85Q282.3-864 312-864h480q29.7 0 50.85 21.15Q864-821.7 864-792v480q0 29.7-21.15 50.85Q821.7-240 792-240H312Zm0-72h480v-480H312v480ZM168-96q-29.7 0-50.85-21.15Q96-138.3 96-168v-516q0-15.3 10.289-25.65 10.29-10.35 25.5-10.35Q147-720 157.5-709.65 168-699.3 168-684v516h516q15.3 0 25.65 10.289 10.35 10.29 10.35 25.5Q720-117 709.65-106.5 699.3-96 684-96H168Zm144-696v480-480Z"/></svg>