<svg xmlns="http://www.w3.org/2000/svg" height="20" viewBox="0 -960 960 960" width="20"><path d="M743-116 624-234v66q0 29.7-21.176 50.85Q581.648-96 551.912-96H407.736Q378-96 357-117.15 336-138.3 336-168v-355L115-744q-11-11-11-25t11-25q11-11 25.5-11t25.5 11l628 628q11 11 11 25t-11 25q-11 11-25.5 11T743-116Zm-335-52h144v-138L408-450v282Zm216-270-69-69 93-139v-26H390l-72-72h330v-48H270l48 48-73-74q8-20 25.879-33T312-864h336q29.7 0 50.85 21.15Q720-821.7 720-792v146q0 10.909-2.769 20.909-2.769 10-9.231 19.091l-84 126v42ZM495-567Zm-15 189Z"/></svg>