<svg xmlns="http://www.w3.org/2000/svg" height="20" viewBox="0 -960 960 960" width="20"><path d="M288-168v-132q0-15.3 10.35-25.65Q308.7-336 324-336h132v-132q0-15.3 10.35-25.65Q476.7-504 492-504h132v-132q0-15.3 10.35-25.65Q644.7-672 660-672h132v-108q0-15.3 10.289-25.65 10.29-10.35 25.5-10.35Q843-816 853.5-805.65 864-795.3 864-780v144q0 15.3-10.35 25.65Q843.3-600 828-600H696v132q0 15.3-10.35 25.65Q675.3-432 660-432H528v132q0 15.3-10.35 25.65Q507.3-264 492-264H360v132q0 15.3-10.35 25.65Q339.3-96 324-96H180q-15.3 0-25.65-10.289-10.35-10.29-10.35-25.5Q144-147 154.35-157.5 164.7-168 180-168h108Z"/></svg>