<svg xmlns="http://www.w3.org/2000/svg" height="20" viewBox="0 -960 960 960" width="20"><path d="M168-264v-432 432ZM707.765-48Q678-48 657-69.15T636-120v-75q-68-12-112-64.5T480-384v-168q0-29 21-50.5t51-21.5h240q29 0 50.5 21.5T864-552v168q0 72-44 124.5T708-195v75h71.753Q795-120 805.5-109.711q10.5 10.29 10.5 25.5Q816-69 805.627-58.5 795.255-48 779.922-48h-72.157ZM739-408h53v-144H552v72h52q29.054 0 55.027 14Q685-452 701-428q7 10 17.075 15T739-408Zm-67 144q37.069 0 66.535-20Q768-304 782-336h-43q-29.054 0-55.027-13.5Q658-363 642.118-386.824q-7.147-9.705-17.074-15.441Q615.118-408 604-408h-52v24q0 51 34.5 85.5T672-264Zm-30-164ZM372-528q15.3 0 25.65-10.289 10.35-10.29 10.35-25.5Q408-579 397.65-589.5 387.3-600 372-600h-96q-15.3 0-25.65 10.289-10.35 10.29-10.35 25.5Q240-549 250.35-538.5 260.7-528 276-528h96Zm0 168q15.3 0 25.65-10.289 10.35-10.29 10.35-25.5Q408-411 397.65-421.5 387.3-432 372-432h-96q-15.3 0-25.65 10.289-10.35 10.29-10.35 25.5Q240-381 250.35-370.5 260.7-360 276-360h96ZM167.728-192Q138-192 117-213.162T96-264.04v-432.243Q96-726 117.15-747T168-768h660q15.3 0 25.65 10.289 10.35 10.29 10.35 25.5Q864-717 853.65-706.5 843.3-696 828-696H168v432h252q15.3 0 25.65 10.289 10.35 10.29 10.35 25.5Q456-213 445.64-202.5 435.28-192 419.966-192H167.728Z"/></svg>