<svg xmlns="http://www.w3.org/2000/svg" height="20" viewBox="0 -960 960 960" width="20"><path d="M696.211-216Q681-216 670.5-226.289q-10.5-10.29-10.5-25.5Q660-267 670.289-277.5q10.29-10.5 25.5-10.5Q711-288 721.5-277.711q10.5 10.29 10.5 25.5Q732-237 721.711-226.5q-10.29 10.5-25.5 10.5Zm-396 120Q285-96 274.5-106.289q-10.5-10.29-10.5-25.5Q264-147 274.289-157.5q10.29-10.5 25.5-10.5Q315-168 325.5-157.711q10.5 10.29 10.5 25.5Q336-117 325.711-106.5q-10.29 10.5-25.5 10.5Zm-35.923-120Q249-216 238.5-226.289q-10.5-10.29-10.5-25.5Q228-267 238.342-277.5q10.341-10.5 25.629-10.5h323.741Q603-288 613.5-277.711q10.5 10.29 10.5 25.5Q624-237 613.658-226.5 603.317-216 588.029-216H264.288ZM408.285-96Q393-96 382.5-106.289q-10.5-10.29-10.5-25.5Q372-147 382.34-157.5q10.34-10.5 25.624-10.5h251.751Q675-168 685.5-157.711q10.5 10.29 10.5 25.5Q696-117 685.66-106.5 675.32-96 660.036-96H408.285ZM295-336q-85 0-142-61.275T96-545q0-77 52.408-132.57Q200.817-733.141 278-743q30-56 84.5-88.5T479.574-864q85.329 0 148.378 54.5Q691-755 705-672q67 2 113 52t46 116.191q0 69.921-49 118.865Q766-336 696-336H295Zm5-72h396q40.32 0 68.16-27.775 27.84-27.774 27.84-68Q792-544 764.16-572q-27.84-28-68.16-28h-53l-9-60q-8-57-52-94.5T480-792q-46.11 0-84.055 25Q358-742 338-700l-14 28h-24.085Q245-672 206.5-633.36 168-594.719 168-540.337 168-485 206.657-446.5T300-408Zm180-192Z"/></svg>