<svg xmlns="http://www.w3.org/2000/svg" height="20" viewBox="0 -960 960 960" width="20"><path d="M168-144q-10.4 0-17.2-6.8-6.8-6.8-6.8-17.2 0-10.4 6.8-17.2 6.8-6.8 17.2-6.8h72v-24h-24q-10.4 0-17.2-6.8-6.8-6.8-6.8-17.2 0-10.4 6.8-17.2 6.8-6.8 17.2-6.8h24v-24h-72q-10.4 0-17.2-6.8-6.8-6.8-6.8-17.2 0-10.4 6.8-17.2 6.8-6.8 17.2-6.8h96q10.2 0 17.1 6.9 6.9 6.9 6.9 17.1v48q0 10.2-6.9 17.1-6.9 6.9-17.1 6.9 10.2 0 17.1 6.9 6.9 6.9 6.9 17.1v48q0 10.2-6.9 17.1-6.9 6.9-17.1 6.9h-96Zm3-240q-11 0-19-8t-8-19.183V-480q0-10.2 6.9-17.1 6.9-6.9 17.1-6.9h72v-24h-72q-10.4 0-17.2-6.8-6.8-6.8-6.8-17.2 0-10.4 6.8-17.2 6.8-6.8 17.2-6.8h96q10.2 0 17.1 6.9 6.9 6.9 6.9 17.1v72q0 10.2-6.9 17.1-6.9 6.9-17.1 6.9h-72v24h72q10.4 0 17.2 6.8 6.8 6.8 6.8 17.2 0 10.4-6.8 17.2-6.8 6.8-17.2 6.8h-93Zm45-240q-10.329 0-17.082-6.8-6.754-6.8-6.754-17.2v-120h-23.835Q158-768 151-774.8t-7-17.2q0-10.4 6.8-17.2 6.8-6.8 17.2-6.8h45q11 0 19 8t8 19v140.829Q240-638 233.2-631t-17.2 7Zm180 384q-15.3 0-25.65-10.289-10.35-10.29-10.35-25.5Q360-291 370.35-301.5 380.7-312 396-312h384q15.3 0 25.65 10.289 10.35 10.29 10.35 25.5Q816-261 805.65-250.5 795.3-240 780-240H396Zm0-204q-15.3 0-25.65-10.289-10.35-10.29-10.35-25.5Q360-495 370.35-505.5 380.7-516 396-516h384q15.3 0 25.65 10.289 10.35 10.29 10.35 25.5Q816-465 805.65-454.5 795.3-444 780-444H396Zm0-204q-15.3 0-25.65-10.289-10.35-10.29-10.35-25.5Q360-699 370.35-709.5 380.7-720 396-720h384q15.3 0 25.65 10.289 10.35 10.29 10.35 25.5Q816-669 805.65-658.5 795.3-648 780-648H396Z"/></svg>