<svg xmlns="http://www.w3.org/2000/svg" height="20" viewBox="0 -960 960 960" width="20"><path d="M672.211-144q-15.211 0-25.585-10.35T636.252-180v-72h-72.168q-15.336 0-25.71-10.35T528-288q0-15.3 10.374-25.65Q548.748-324 564.084-324h72.168v-72q0-15.3 10.374-25.65Q657-432 672.234-432t25.539 10.35q10.305 10.35 10.305 25.65v72h71.688Q795-324 805.5-313.711q10.5 10.29 10.5 25.5 0 15.211-10.35 25.561T780-252.3h-72v72q0 15.3-10.289 25.8-10.29 10.5-25.5 10.5ZM276-192q-15.3 0-25.65-10.289-10.35-10.29-10.35-25.5Q240-243 250.35-253.5 260.7-264 276-264h145q15.3 0 25.65 10.289 10.35 10.29 10.35 25.5Q457-213 446.65-202.5 436.3-192 421-192H276Zm0-168q-15.3 0-25.65-10.289-10.35-10.29-10.35-25.5Q240-411 250.35-421.5 260.7-432 276-432h145q15.3 0 25.65 10.289 10.35 10.29 10.35 25.5Q457-381 446.65-370.5 436.3-360 421-360H276Zm0-168q-15.3 0-25.65-10.289-10.35-10.29-10.35-25.5Q240-579 250.35-589.5 260.7-600 276-600h504q15.3 0 25.65 10.289 10.35 10.29 10.35 25.5Q816-549 805.65-538.5 795.3-528 780-528H276Zm0-168q-15.3 0-25.65-10.289-10.35-10.29-10.35-25.5Q240-747 250.35-757.5 260.7-768 276-768h504q15.3 0 25.65 10.289 10.35 10.29 10.35 25.5Q816-717 805.65-706.5 795.3-696 780-696H276Zm-143.789 0Q117-696 106.5-706.289q-10.5-10.29-10.5-25.5Q96-747 106.289-757.5q10.29-10.5 25.5-10.5Q147-768 157.5-757.711q10.5 10.29 10.5 25.5Q168-717 157.711-706.5q-10.29 10.5-25.5 10.5Zm0 168Q117-528 106.5-538.289q-10.5-10.29-10.5-25.5Q96-579 106.289-589.5q10.29-10.5 25.5-10.5Q147-600 157.5-589.711q10.5 10.29 10.5 25.5Q168-549 157.711-538.5q-10.29 10.5-25.5 10.5Zm0 168Q117-360 106.5-370.289q-10.5-10.29-10.5-25.5Q96-411 106.289-421.5q10.29-10.5 25.5-10.5Q147-432 157.5-421.711q10.5 10.29 10.5 25.5Q168-381 157.711-370.5q-10.29 10.5-25.5 10.5Zm0 168Q117-192 106.5-202.289q-10.5-10.29-10.5-25.5Q96-243 106.289-253.5q10.29-10.5 25.5-10.5Q147-264 157.5-253.711q10.5 10.29 10.5 25.5Q168-213 157.711-202.5q-10.29 10.5-25.5 10.5Z"/></svg>