<svg xmlns="http://www.w3.org/2000/svg" height="20" viewBox="0 -960 960 960" width="20"><path d="M228.211-192Q213-192 202.5-202.344 192-212.689 192-227.981v-503.727Q192-747 202.289-757.5q10.29-10.5 25.5-10.5Q243-768 253.5-757.656q10.5 10.345 10.5 25.637v503.727Q264-213 253.711-202.5q-10.29 10.5-25.5 10.5Zm288-396Q501-588 490.5-598.331q-10.5-10.33-10.5-25.601v-107.797Q480-747 490.289-757.5q10.29-10.5 25.5-10.5Q531-768 541.5-757.669q10.5 10.33 10.5 25.601v107.797Q552-609 541.711-598.5q-10.29 10.5-25.5 10.5ZM658-370q-10.667 11-25.333 11Q618-359 607-369.929q-11-10.928-11-25.5Q596-410 607-421l23-23H371.963q-15.284 0-25.624-10.289Q336-464.579 336-479.789 336-495 346.339-505.5q10.34-10.5 25.624-10.5H630l-23-24q-11-10.636-11-24.818Q596-579 607-590q11-11 25.667-11 14.666 0 25.333 11l85 85q11 10.636 11 24.818Q754-466 743-455l-85 85ZM516.211-192Q501-192 490.5-202.331q-10.5-10.33-10.5-25.601v-107.797Q480-351 490.289-361.5q10.29-10.5 25.5-10.5Q531-372 541.5-361.669q10.5 10.33 10.5 25.601v107.797Q552-213 541.711-202.5q-10.29 10.5-25.5 10.5Z"/></svg>