<svg xmlns="http://www.w3.org/2000/svg" height="20" viewBox="0 -960 960 960" width="20"><path d="M456-792v372q0 15.3-10.289 25.65-10.29 10.35-25.5 10.35Q405-384 394.5-394.35 384-404.7 384-420v-156q-60 0-102-42t-42-102q0-60 42-102t101.503-42h252.435q15.326 0 25.694 10.289Q672-843.421 672-828.211q0 15.211-10.35 25.895-10.35 10.685-25.65 10.685h-36V-420q0 15.3-10.289 25.65-10.29 10.35-25.5 10.35Q549-384 538.5-394.35 528-404.7 528-420v-372h-72ZM282-204l32 32q11 11 11 25.5T314-121q-11 11-25.5 11T263-121l-94.138-94.138Q158-226 158-240.182T169-265l94-94q11-11 25.5-11t25.5 11q11 11 11 25.5T314-308l-32 32h498q15.3 0 25.65 10.289 10.35 10.29 10.35 25.5Q816-225 805.65-214.5 795.3-204 780-204H282Zm102-444v-144q-30 0-51 21.212-21 21.213-21 51Q312-690 333.15-669q21.15 21 50.85 21Zm0-72Z"/></svg>