<svg xmlns="http://www.w3.org/2000/svg" height="20" viewBox="0 -960 960 960" width="20"><path d="M48-228v-25q0-17.143 6.522-32.679Q61.044-301.214 73-313l71-71v-192l-75-75q-11-11-16-23.943-5-12.943-5-27.225v-77.658Q48-795 58.29-805.5 68.578-816 83.79-816q15.21 0 25.71 10.35T120-780v36h84v-35.789Q204-795 214.289-805.5q10.29-10.5 25.5-10.5Q255-816 265.5-805.65 276-795.3 276-780v36h84v-35.789Q360-795 370.289-805.5q10.29-10.5 25.5-10.5Q411-816 421.5-805.706q10.5 10.293 10.5 25.51v77.874Q432-688 427-675t-16 24l-75 75v48h288v-48l-75-75q-11-11-16-23.943-5-12.943-5-27.225v-77.658Q528-795 538.289-805.5q10.29-10.5 25.5-10.5Q579-816 589.5-805.65 600-795.3 600-780v36h84v-35.789Q684-795 694.289-805.5q10.29-10.5 25.5-10.5Q735-816 745.5-805.65 756-795.3 756-780v36h84v-35.789Q840-795 850.289-805.5q10.29-10.5 25.5-10.5Q891-816 901.5-805.706q10.5 10.293 10.5 25.51v77.874Q912-688 907-675t-16 24l-75 75v192l71 71q11.957 11.786 18.478 27.321Q912-270.143 912-253v25q0 34.65-24.675 59.325Q862.65-144 828-144H612q-15.3 0-25.65-10.35Q576-164.7 576-180v-60q0-39.6-28.2-67.8Q519.6-336 480-336q-41 0-68.5 28.2T384-240v60q0 15.3-10.35 25.65Q363.3-144 348-144H132q-34.65 0-59.325-24.675Q48-193.35 48-228Zm72 12h192v-24q0-69.3 49-118.65Q410-408 479.504-408q69.505 0 119 49.35Q648-309.3 648-240v24h192v-42l-96-96v-252l66-66H630l66 66v150H264v-150l66-66H150l66 66v252l-96 96v42Zm360-226Z"/></svg>