<svg xmlns="http://www.w3.org/2000/svg" height="20" viewBox="0 -960 960 960" width="20"><path d="M480-288q-63 0-112.5-36T298-417q-4-10 1.5-19.5t15.792-12.5q8.708-3 17.208 1.5Q341-443 345-434q17 43 52.5 70.5T480-336q59.657 0 101.829-42.242Q624-420.485 624-480.242 624-540 581.829-582 539.657-624 480-624q-30.872 0-58.436 13T372-576h36q10.4 0 17.2 6.8 6.8 6.8 6.8 17.2 0 10.4-6.8 17.2-6.8 6.8-17.2 6.8h-84q-15.3 0-25.65-10.35Q288-548.7 288-564v-84q0-10.4 6.8-17.2 6.8-6.8 17.2-6.8 10.4 0 17.2 6.8 6.8 6.8 6.8 17.2v41q28-31 65-48t79-17q79.68 0 135.84 56.226t56.16 136Q672-400 615.84-344T480-288ZM216-144q-29.7 0-50.85-21.15Q144-186.3 144-216v-132q0-15.3 10.289-25.65 10.29-10.35 25.5-10.35Q195-384 205.5-373.65 216-363.3 216-348v132h132q15.3 0 25.65 10.289 10.35 10.29 10.35 25.5Q384-165 373.65-154.5 363.3-144 348-144H216Zm528 0H612q-15.3 0-25.65-10.289-10.35-10.29-10.35-25.5Q576-195 586.35-205.5 596.7-216 612-216h132v-132q0-15.3 10.289-25.65 10.29-10.35 25.5-10.35Q795-384 805.5-373.65 816-363.3 816-348v132q0 29.7-21.15 50.85Q773.7-144 744-144ZM144-612v-132q0-29.7 21.15-50.85Q186.3-816 216-816h132q15.3 0 25.65 10.289 10.35 10.29 10.35 25.5Q384-765 373.65-754.5 363.3-744 348-744H216v132q0 15.3-10.289 25.65-10.29 10.35-25.5 10.35Q165-576 154.5-586.35 144-596.7 144-612Zm600 0v-132H612q-15.3 0-25.65-10.289-10.35-10.29-10.35-25.5Q576-795 586.35-805.5 596.7-816 612-816h132q29.7 0 50.85 21.15Q816-773.7 816-744v132q0 15.3-10.289 25.65-10.29 10.35-25.5 10.35Q765-576 754.5-586.35 744-596.7 744-612Z"/></svg>