<svg xmlns="http://www.w3.org/2000/svg" height="20" viewBox="0 -960 960 960" width="20"><path d="m318-480 56 56q11 11 11 25.667 0 14.666-11 25.333-10.667 11-25.333 11-14.667 0-25.91-11.243l-81.514-81.514Q230-466 230-480.182T241-505l81.84-81.84Q334-598 348.5-598t25.978 11Q385-576 385-561.5t-11.324 25.824L318-480Zm324 0-56-56q-11-11-11-25.667 0-14.666 11-25.333 10.667-11 25.333-11 14.667 0 25.91 11.243l81.514 81.514Q730-494 730-479.818T719-455l-81.84 81.84Q626-362 611.818-362.462 597.636-362.923 587-374q-11-11-11-25.5t11.155-25.655L642-480ZM216-144q-29.7 0-50.85-21.15Q144-186.3 144-216v-132q0-15.3 10.289-25.65 10.29-10.35 25.5-10.35Q195-384 205.5-373.65 216-363.3 216-348v132h132q15.3 0 25.65 10.289 10.35 10.29 10.35 25.5Q384-165 373.65-154.5 363.3-144 348-144H216Zm528 0H612q-15.3 0-25.65-10.289-10.35-10.29-10.35-25.5Q576-195 586.35-205.5 596.7-216 612-216h132v-132q0-15.3 10.289-25.65 10.29-10.35 25.5-10.35Q795-384 805.5-373.65 816-363.3 816-348v132q0 29.7-21.15 50.85Q773.7-144 744-144ZM144-612v-132q0-29.7 21.15-50.85Q186.3-816 216-816h132q15.3 0 25.65 10.289 10.35 10.29 10.35 25.5Q384-765 373.65-754.5 363.3-744 348-744H216v132q0 15.3-10.289 25.65-10.29 10.35-25.5 10.35Q165-576 154.5-586.35 144-596.7 144-612Zm600 0v-132H612q-15.3 0-25.65-10.289-10.35-10.29-10.35-25.5Q576-795 586.35-805.5 596.7-816 612-816h132q29.7 0 50.85 21.15Q816-773.7 816-744v132q0 15.3-10.289 25.65-10.29 10.35-25.5 10.35Q765-576 754.5-586.35 744-596.7 744-612Z"/></svg>