<svg xmlns="http://www.w3.org/2000/svg" height="20" viewBox="0 -960 960 960" width="20"><path d="M168-96q-29.7 0-50.85-21.15Q96-138.3 96-168v-624q0-29.7 21.15-50.85Q138.3-864 168-864h624q29 0 50.5 21.15T864-792v624q0 29.7-21.5 50.85Q821-96 792-96H168Zm0-72h624v-624H168v624Zm204.211-228Q357-396 346.5-406.289q-10.5-10.29-10.5-25.5Q336-447 346.289-457.5q10.29-10.5 25.5-10.5Q387-468 397.5-457.711q10.5 10.29 10.5 25.5Q408-417 397.711-406.5q-10.29 10.5-25.5 10.5Zm216 0Q573-396 562.5-406.289q-10.5-10.29-10.5-25.5Q552-447 562.289-457.5q10.29-10.5 25.5-10.5Q603-468 613.5-457.711q10.5 10.29 10.5 25.5Q624-417 613.711-406.5q-10.29 10.5-25.5 10.5ZM275-264q17 0 28.5-12t9.5-29l-1-7h336v11q0 15 11 26t26 10q15-1 25-11.062 10-10.063 10-24.938v-190q0-6.731-1-12.981T716-516l-49-133q-8-21-26.529-34-18.53-13-41.471-13H362q-22.941 0-41.471 13Q302-670 294-649l-49 133q-2 6-3.5 12.175Q240-497.65 240-491v192q0 14 10.5 24.5T275-264Zm60-288 27-72h238l26 72H335ZM168-792v624-624Zm144 408v-96h336v96H312Z"/></svg>