<svg xmlns="http://www.w3.org/2000/svg" height="20" viewBox="0 -960 960 960" width="20"><path d="M144-324q0-45 31.5-76.5T252-432h144q35 0 59.5-24.5T480-516q0-35-24.5-59.5T396-600q-24.75 0-42.375-17.625T336-660v-168q0-15.3 10.289-25.65 10.29-10.35 25.5-10.35Q387-864 397.5-853.65 408-843.3 408-828v156q61 5 102.5 50T552-516q0 64.74-45.63 110.37Q460.74-360 396-360H252q-15.3 0-25.65 10.35Q216-339.3 216-324v192q0 15.3-10.289 25.65Q195.421-96 180.211-96 165-96 154.5-106.35 144-116.7 144-132v-192Zm144 144q0-45 31.5-76.5T396-288h168q74.7 0 127.35-52.65Q744-393.3 744-468v-48q0-74.7-52.65-127.35Q638.7-696 564-696q-34.65 0-59.325-24.675Q480-745.35 480-780v-48q0-15.3 10.289-25.65 10.29-10.35 25.5-10.35Q531-864 541.5-853.65 552-843.3 552-828v60q109 0 186.5 69.5T816-516v48q0 105.3-73.35 178.65Q669.3-216 564-216H396q-15.3 0-25.65 10.35Q360-195.3 360-180v48q0 15.3-10.289 25.65Q339.421-96 324.211-96 309-96 298.5-106.35 288-116.7 288-132v-48Zm-72 84v-228q0-15.3 10.35-25.65Q236.7-360 252-360h144q64.74 0 110.37-45.63Q552-451.26 552-516q0-61-41.5-106T408-672v-192 192q61 5 102.5 50T552-516q0 64.74-45.63 110.37Q460.74-360 396-360H252q-15.3 0-25.65 10.35Q216-339.3 216-324v228Z"/></svg>