<svg xmlns="http://www.w3.org/2000/svg" height="20" viewBox="0 -960 960 960" width="20"><path d="M336.212-312Q366-312 387-333.212q21-21.213 21-51Q408-414 386.788-435q-21.213-21-51-21Q306-456 285-434.788q-21 21.213-21 51Q264-354 285.212-333q21.213 21 51 21Zm288 0Q654-312 675-333.212q21-21.213 21-51Q696-414 674.788-435q-21.213-21-51-21Q594-456 573-434.788q-21 21.213-21 51Q552-354 573.212-333q21.213 21 51 21Zm-144-240Q510-552 531-573.212q21-21.213 21-51Q552-654 530.788-675q-21.213-21-51-21Q450-696 429-674.788q-21 21.213-21 51Q408-594 429.212-573q21.213 21 51 21Zm.064 456Q401-96 331-126q-70-30-122.5-82.5T126-330.958q-30-69.959-30-149.5Q96-560 126-629.5t82.5-122Q261-804 330.958-834q69.959-30 149.5-30Q560-864 629.5-834t122 82.5Q804-699 834-629.276q30 69.725 30 149Q864-401 834-331q-30 70-82.5 122.5T629.276-126q-69.725 30-149 30ZM480-168q130 0 221-91t91-221q0-130-91-221t-221-91q-130 0-221 91t-91 221q0 130 91 221t221 91Zm0-312Z"/></svg>