<svg xmlns="http://www.w3.org/2000/svg" height="20" viewBox="0 -960 960 960" width="20"><path d="m507-640-81-37q-5-2-5-8t5-8l81-37 37-81q2-5 8-5t8 5l37 81 81 37q5 2 5 8t-5 8l-81 37-37 81q-2 5-8 5t-8-5l-37-81ZM192-252l-37 105q-5 12-15.5 19.5T116-120q-22 0-34.5-18T77-176l163-433q5-13 15.5-20.5T280-637h32q14 0 24.5 7.5T352-609l163 434q8 20-4 37.5T477-120q-14 0-24.5-7.5T437-148l-36-104H192Zm27-75h154l-74-214h-5l-75 214Zm526-173q81 0 124 39t43 111v191q0 16-11 27.5T873-120q-17 0-28-11t-11-28v-6h-3q-23 29-50 42.5T717-109q-60 0-97-34t-37-90q0-55 42-89t110-34q29 0 56 5.5t43 14.5v-19q0-34-25-55.5T744-432q-20 0-37.5 6T674-409q-11 9-25.5 10t-25.5-8q-12-9-14.5-23t8.5-23q25-23 57.5-35t70.5-12Zm-12 325q43 0 72-29t29-71q-19-11-40-16t-44-5q-39 0-63 17.5T663-232q0 26 19 41.5t51 15.5Z"/></svg>