<svg xmlns="http://www.w3.org/2000/svg" height="20" viewBox="0 -960 960 960" width="20"><path d="M587.789-216Q603-216 613.5-226.289q10.5-10.29 10.5-25.5Q624-267 613.711-277.5q-10.29-10.5-25.5-10.5Q573-288 562.5-277.711q-10.5 10.29-10.5 25.5Q552-237 562.289-226.5q10.29 10.5 25.5 10.5Zm96 0Q699-216 709.5-226.289q10.5-10.29 10.5-25.5Q720-267 709.711-277.5q-10.29-10.5-25.5-10.5Q669-288 658.5-277.711q-10.5 10.29-10.5 25.5Q648-237 658.289-226.5q10.29 10.5 25.5 10.5ZM144-432v-360q0-30 21.15-51T216-864h528q29.7 0 50.85 21.15Q816-821.7 816-792v360h-72v-360H216v360h-72Zm72 72v192h528v-192H216Zm0 264q-29.7 0-50.85-21.15Q144-138.3 144-168v-264h672v264q0 29.7-21.15 50.85Q773.7-96 744-96H216Zm0-336h528-528Zm0 72h528-528Z"/></svg>