<svg xmlns="http://www.w3.org/2000/svg" height="20" viewBox="0 -960 960 960" width="20"><path d="M780-264q-13.5 0-24.75-9.22Q744-282.439 744-300v-108h-84q-18 0-27-11.25T624-444q0-13.5 9-24.75T660-480h84v-48q0-110-77-187t-187-77q-43 0-83 13t-74 39l-52-51q45-35 98.5-54t110.366-19Q550-864 611-837.5q61 26.5 106.523 72.115 45.522 45.615 72 106.591Q816-597.819 816-528v228q0 18-11.25 27T780-264ZM516-72q-15.3 0-25.65-10.29Q480-92.579 480-107.788 480-123 490.35-133.5 500.7-144 516-144h198l-48-48q-27.225 0-46.612-19.387Q600-230.775 600-258L234-624q-10 23-14 46t-4 50v48h72.212Q318-480 339-458.824q21 21.176 21 50.912v144.176Q360-234 338.85-213 317.7-192 288-192h-72q-29-2-50.5-22.562Q144-235.125 144-264v-264.492Q144-571 152.5-607q8.5-36 27.5-72l-98.718-98.718Q70-789 70-803.182 70-817.364 81-828q11-11 25.5-11t25.763 11.249l709.596 709.627Q855-105 848.143-88.5T823-72H516ZM216-408v144h72v-144h-72Zm0 0h72-72Zm444 0h84-84Z"/></svg>