<svg xmlns="http://www.w3.org/2000/svg" height="20" viewBox="0 -960 960 960" width="20"><path d="M713-153q-5 5-11.276 7.5t-14 2.5q-7.724 0-14.269-3.231Q666.909-149.462 662-155q-38-42-56-84.422t-18-89.456Q588-363 598-399.5T634-502q23-54 30.5-82.046Q672-612.092 672-636q0-32-14.5-61T613-754q-5.077-5-8.038-11.667Q602-772.333 602-779q0-7 2.5-13.5t7.5-12q6-5.5 13.016-8.5t14.5-3q7.484 0 13.084 2.727 5.6 2.728 10.4 7.273 40.966 37.963 60.983 79.63Q744-684.704 744-638.407 744-606 734-570t-34 96q-23 54-31.5 85t-8.5 58q0 35 13.5 66t41.5 61q5 6 7.5 12.3 2.5 6.3 2.5 13.5t-2.769 13.629Q719.462-158.143 713-153Zm-185.462-1q-5.538 5-12.038 7.5t-13.25 2.5q-6.75 0-13.5-3T477-156q-38-42-56-84.45-18-42.449-18-90.03 0-34.52 9.5-71.52 9.5-37 35.5-100 22-54 30-82.25t8-52.733Q486-669 471.5-697.5T428-754q-6-5.429-9-12.214-3-6.786-3-14.286t2.5-13.316Q421-799.632 426-805q5.211-5.077 12.158-8.038Q445.105-816 452.053-816q6.947 0 13.447 2.5Q472-811 477-806q42 39 61.5 80.143T558-639q0 32-10 68t-34 96q-23 54-31.5 85.304Q474-358.391 474-331q0 35 13.5 66t41.5 61q5 5 7.5 12t2.5 14q0 7-2.5 13t-8.962 11Zm-186.461 0q-5.077 5-11.577 7.5t-13.447 2.5q-6.948 0-13.895-2.962Q295.211-149.923 290-155q-38-42-56-84.296-18-42.296-18-89.704 0-34 10-70.5T262-502q23-54 30.5-82t7.5-52.267Q300-668 285.5-697 271-726 241-754q-5-5-8-11.532-3-6.533-3-13.5 0-6.968 2.5-13.468T240-804q5.189-6 11.676-9 6.486-3 13.405-3t13.419 2.5q6.5 2.5 12.26 7.283Q333-767 352.5-726t19.5 87.256Q372-607 362-571t-34 96q-23 54-31.5 85.5T288-331q0 35 13.517 66.131Q315.034-233.737 343-204q5 5.486 7.5 11.886 2.5 6.4 2.5 12.8 0 7.314-3 13.814t-8.923 11.5Z"/></svg>