<svg xmlns="http://www.w3.org/2000/svg" height="20" viewBox="0 -960 960 960" width="20"><path d="M192-407.946v-143.677Q192-562 198.8-569q6.8-7 17.2-7 10.4 0 17.2 6.8 6.8 6.8 6.8 17.2v48h48v-48q0-10.4 6.8-17.2 6.8-6.8 17.2-6.8 10.4 0 17.2 6.785 6.8 6.785 6.8 17.161v143.677Q336-398 329.2-391q-6.8 7-17.2 7-10.4 0-17.2-6.8-6.8-6.8-6.8-17.2v-48h-48v48q0 10.4-6.8 17.2-6.8 6.8-17.2 6.8-10.4 0-17.2-6.785-6.8-6.785-6.8-17.161ZM432-411v-140.829Q432-562 438.8-569t17.2-7q10.4 0 17.2 6.8 6.8 6.8 6.8 17.2v120h48q10.4 0 17.2 6.8 6.8 6.8 6.8 17.2 0 10.4-6.8 17.2-6.8 6.8-17.2 6.8h-69q-11 0-19-8t-8-19Zm216 27q-10.2 0-17.1-6.9-6.9-6.9-6.9-17.1v-24q0-4.8 3.6-8.4 3.6-3.6 8.4-3.6h24q4.8 0 8.4 3.6 3.6 3.6 3.6 8.4h48v-36h-72q-10.2 0-17.1-6.9-6.9-6.9-6.9-17.1v-60q0-10.2 6.9-17.1 6.9-6.9 17.1-6.9h96q10.2 0 17.1 6.9 6.9 6.9 6.9 17.1v24q0 4.8-3.6 8.4-3.6 3.6-8.4 3.6h-24q-4.8 0-8.4-3.6-3.6-3.6-3.6-8.4h-48v36h72q10.2 0 17.1 6.9 6.9 6.9 6.9 17.1v60q0 10.2-6.9 17.1-6.9 6.9-17.1 6.9h-96Z"/></svg>