<svg xmlns="http://www.w3.org/2000/svg" height="20" viewBox="0 -960 960 960" width="20"><path d="M120-263.854v-257.775Q120-536 125-549q5-13 16-24l144.186-144.186Q296-728 309-733t27-5q14 0 27 5t23.814 15.814L531-573q11 11 16 24.03 5 13.03 5 27.408v257.907Q552-234 530.834-213q-21.167 21-50.889 21H191.723Q162-192 141-213.107t-21-50.747Zm72-.146h108.252v-72q0-15.3 10.374-25.65Q321-372 336.211-372q15.21 0 25.5 10.35Q372-351.3 372-336v72h108v-258L336-666 192-522.107V-264Zm432.272 35.986v-353.837L499-707q-17-17-7.5-39t33.5-22q8 0 14.5 3t11.5 8l124 124q11 11 16 24.034 5 13.034 5 27.417v353.268Q696-213 685.711-202.5q-10.29 10.5-25.5 10.5-15.211 0-25.575-10.354-10.364-10.354-10.364-25.66Zm143.884 0v-413.26L702-707q-17-17-7.5-39t33.5-22q8 0 14.5 3t11.5 8l65 65q11 11 16 24.025 5 13.025 5 27.397v412.307Q840-213 829.711-202.5q-10.29 10.5-25.5 10.5-15.211 0-25.633-10.354-10.422-10.354-10.422-25.66ZM192-264h288-288Zm144.211-180Q321-444 310.5-454.289q-10.5-10.29-10.5-25.5Q300-495 310.289-505.5q10.29-10.5 25.5-10.5Q351-516 361.5-505.711q10.5 10.29 10.5 25.5Q372-465 361.711-454.5q-10.29 10.5-25.5 10.5Z"/></svg>