<svg xmlns="http://www.w3.org/2000/svg" height="20" viewBox="0 -960 960 960" width="20"><path d="M264-240v60q0 15.3-10.289 25.65-10.29 10.35-25.5 10.35Q213-144 202.5-154.254 192-164.507 192-179.665V-506l-36 28q-12 9-26.5 7T106-485q-9-12-7.202-26.435 1.799-14.436 14.388-23.458L436-783q10-8 21.5-11t22.5-3q11 0 22.5 3t21.5 11l323.293 247.982Q859-526 861-511.5t-7 26.5q-9 12-23.5 14t-26.5-7l-36-28v326.335q0 15.158-10.289 25.411Q747.421-144 732.211-144 717-144 706.5-154.35 696-164.7 696-180v-60H264Zm0-228h432v-84H264v84Zm0 156h432v-84H264v84Zm83-312h266L480-725 347-624Z"/></svg>