<svg xmlns="http://www.w3.org/2000/svg" height="20" viewBox="0 -960 960 960" width="20"><path d="M119.788-192Q90-192 69-213.212q-21-21.213-21-51Q48-294 69.04-315q21.041-21 50.588-21 5.372 0 9.872.5t9.5 1.5l199-199q-1-5-1.5-9.5t-.5-9.872q0-29.547 21.212-50.587 21.213-21.041 51-21.041Q438-624 459-602.85q21 21.15 21 50.85 0 5-2 19l127 127q5-1 9.5-1.5t9.5-.5q5 0 9.5.5t9.5 1.5l127-127q-1-5-1.5-9.5t-.5-9.872q0-29.547 21.212-50.587 21.213-21.041 51-21.041Q870-624 891-602.788q21 21.213 21 51Q912-522 890.959-501q-21.04 21-50.587 21-5.372 0-9.872-.5T821-482L694-355q1 5 1.5 9.5t.5 9.872q0 29.547-21.212 50.587-21.213 21.041-51 21.041Q594-264 573-285.041q-21-21.04-21-50.587 0-5.372.5-9.872t1.5-9.5L427-482q-5 1-9.5 1.5t-9.5.5q-5 0-19-2L190-283q1 5 1.5 9.5t.5 9.872q0 29.547-21.212 50.587-21.213 21.041-51 21.041ZM168-576l-22.785-49.215L96-648l49.215-22.785L168-720l22.785 49.215L240-648l-49.215 22.785L168-576Zm432 0-37-83-83-37 83-37 37-83 37 83 83 37-83 37-37 83Z"/></svg>