<svg xmlns="http://www.w3.org/2000/svg" height="20" viewBox="0 -960 960 960" width="20"><path d="M336-180v-60H168q-29.7 0-50.85-21.162Q96-282.324 96-312.04v-432.243Q96-774 117.15-795T168-816h324q15.3 0 25.65 10.289 10.35 10.29 10.35 25.5Q528-765 517.65-754.5 507.3-744 492-744H168v432h624v-84q0-15.3 10.289-25.65 10.29-10.35 25.5-10.35Q843-432 853.5-421.65 864-411.3 864-396v84q0 29.7-21.15 50.85Q821.7-240 792-240H624v60q0 15.3-10.338 25.65Q603.323-144 588.04-144H372.283Q357-144 346.5-154.35 336-164.7 336-180Zm324-389v-211.447Q660-795 670.289-805.5q10.29-10.5 25.5-10.5Q711-816 721.5-805.65 732-795.3 732-780v209l56-56q11-11 25.5-11t25.5 11q11 11 11 25.5T839-576L720-457q-10.636 11-24.818 11Q681-446 670-457L553-574q-11-11-10.5-25.5T554-625q11-11 25.5-11t25.5 11l55 56Z"/></svg>