<svg xmlns="http://www.w3.org/2000/svg" height="20" viewBox="0 -960 960 960" width="20"><path d="M809.647-318Q787-318 771.5-333.703 756-349.405 756-371.838v-89.73Q756-484 771.647-500q15.647-16 38-16T848-500.203q16 15.798 16 38.365v90.27Q864-349 848.147-333.5q-15.853 15.5-38.5 15.5ZM810-192q-8 0-13-5t-5-13v-37.211q-41.177-6.201-70.089-34.995Q693-311 686-352q-2-8 3-14t12.704-6q7.703 0 13 4Q720-364 721-357q5.422 32.143 30.726 53.571Q777.03-282 810.467-282 843-282 868-303t31-52.909q2-7.091 7.1-11.591 5.1-4.5 11.9-4.5 8 0 13 4.921T935-355q-5 42-35 72t-72 36.143V-210q0 8-5 13t-13 5ZM192-624q0-33 14.5-63t40.5-50q26-20 58-27.5t64 .5q13 3 18 14.5t-1.08 22.237Q373-704 366.5-678.5 360-653 360-624q0 27.24 6.303 53.203Q372.606-544.835 386-521q6 11 3 21.5T375-485q-33 9-66 2t-60-27q-27-20-42-50.041-15-30.041-15-63.959ZM48-264v-20q0-25.13 12.5-46.565T95-366q32-19 66.5-32.5T233-420q14-3 21 10.5t-3.607 25.705Q234-362 225-336.5t-9 52.5v20q0 10 1.25 20t3.75 20q4 12.444-2.812 22.222Q211.375-192 200-192h-80q-29.7 0-50.85-21.15Q48-234.3 48-264Zm528-216q-60 0-102-42t-42-102q0-60 42-102t102-42q60 0 102 42t42 102q0 60-42 102t-102 42Zm-.496-72Q605-552 626.5-573.004q21.5-21.005 21.5-50.5Q648-653 626.5-674.5 605-696 575.504-696q-29.495 0-50.5 21.5Q504-653 504-623.504q0 29.495 21.004 50.5Q546.009-552 575.504-552ZM360-192q-29.7 0-50.85-21.15Q288-234.3 288-264v-20q0-25.13 12.5-46.565T334-365q55-33 116.5-50T576-432q16 0 31 1t31 3q15 2 24.5 13.5T670-388q-2 15-13.5 24.5T630-356q-13-2-26.5-3t-27.5-1q-55 0-107 14t-98 42q-5 4-8 9.067-3 5.066-3 10.933v20h280q18 0 27 11.25t9 24.75q0 13.5-9 24.75T640-192H360Zm216-432Zm0 360Z"/></svg>