<svg xmlns="http://www.w3.org/2000/svg" height="20" viewBox="0 -960 960 960" width="20"><path d="M263.717-48Q234-48 213-69.15T192-120v-432q0-29.7 21.15-50.85Q234.3-624 264-624h84q15.3 0 25.65 10.289 10.35 10.29 10.35 25.5Q384-573 373.65-562.5 363.3-552 348-552h-84v432h432v-432h-84q-15.3 0-25.65-10.289-10.35-10.29-10.35-25.5Q576-603 586.35-613.5 596.7-624 612-624h84q29.7 0 50.85 21.15Q768-581.7 768-552v432q0 29.7-21.162 50.85Q725.676-48 695.96-48H263.717ZM444-774l-32.25 32.25Q401-731 386.5-731t-25.978-11Q350-753 350-767.5t10.875-25.375l94.25-94.25Q466-898 480.182-898q14.182 0 24.818 11l94 94q11 11 11 25t-10.522 25Q588-732 573.333-732q-14.666 0-25.333-11l-32-31v402q0 15.3-10.289 25.65-10.29 10.35-25.5 10.35Q465-336 454.5-346.35 444-356.7 444-372v-402Z"/></svg>