<svg xmlns="http://www.w3.org/2000/svg" height="20" viewBox="0 -960 960 960" width="20"><path d="M240-288v-432l-58.759-87.724Q169-826 178.83-845q9.83-19 32.17-19h427q34.09 0 58.045 23.955T720-782v38h72.212Q822-744 843-722.85q21 21.15 21 50.85v192q0 29.7-21.15 50.85Q821.7-408 792-408h-72v120q0 29.7-21.15 50.85Q677.7-216 648-216H312q-29.7 0-50.85-21.15Q240-258.3 240-288Zm72 0h336v-504H278l34 50.4V-288Zm408-192h72v-192h-72v192ZM540-744q-25 0-42.5 17.5T480-684v288q0 25 17.5 42.5T540-336q25 0 42.5-17.5T600-396v-288q0-25-17.5-42.5T540-744ZM180-96q-15.3 0-25.65-10.289-10.35-10.29-10.35-25.5Q144-147 154.35-157.5 164.7-168 180-168h600q15.3 0 25.65 10.289 10.35 10.29 10.35 25.5Q816-117 805.65-106.5 795.3-96 780-96H180Zm283-444Z"/></svg>