<svg xmlns="http://www.w3.org/2000/svg" height="20" viewBox="0 -960 960 960" width="20"><path d="M372.211-624Q357-624 346.5-634.35 336-644.7 336-660v-48q0-15.3 10.289-25.65 10.29-10.35 25.5-10.35Q387-744 397.5-733.65 408-723.3 408-708v48q0 15.3-10.289 25.65-10.29 10.35-25.5 10.35Zm0 336Q357-288 346.5-298.35 336-308.7 336-324v-96q0-15.3 10.289-25.65 10.29-10.35 25.5-10.35Q387-456 397.5-445.65 408-435.3 408-420v96q0 15.3-10.289 25.65-10.29 10.35-25.5 10.35ZM264-96q-29 0-50.5-21.15T192-168v-624q0-29.7 21.5-50.85Q235-864 264-864h432q29 0 50.5 21.15T768-792v624q0 29.7-21.5 50.85Q725-96 696-96H264Zm0-72h432v-336H264v336Zm0-408h432v-216H264v216Z"/></svg>