<svg xmlns="http://www.w3.org/2000/svg" height="20" viewBox="0 -960 960 960" width="20"><path d="M347-469h51v-76h-51v76ZM155-270l-26 1q-7.35 0-13.125-4T108-284q-4-11 3-20t18-9h13q4 0 6-3.208 2-3.209 2-7.792v-95l-27 9q-9.3 3-18.083-1.5-8.784-4.5-10.85-14.5Q92-435 96.5-442.5T109-453l41-13v-85h-33q-9 0-15-6t-6-15q0-9 6-15t15-6h32v-66.456q0-8.544 6.795-15.044Q162.591-681 172-681q9 0 15.5 6.5T194-659v66h22q9 0 15 6t6 15q0 9-6 15t-15 6h-23v72l16.346-5Q218-487 226-482.25T236-468q2 8-2 15t-12 9l-29 9.608v120.098Q193-297 182.5-284T155-270Zm188-155q-3 44-22.5 82.5t-52.872 66.694Q260-269 250-269.5t-17-8.5q-6-6-4.5-15t9.5-15q26-22 42.5-52.5T299-426h-44.327q-8.673 0-15.173-6.696Q233-439.391 233-448q0-9 6.708-15.5 6.709-6.5 15.334-6.5H302v-75h-31q-9 0-15-6.5t-6-15.5q0-9 6-15t15-6h204.286Q484-588 490-581.795q6 6.204 6 14.795 0 9-6.205 15.5Q483.591-545 475-545h-34v78h45q9 0 15.5 6.724t5.5 15Q506-437 500.211-431q-5.79 6-14.211 6h-45v136.414q0 8.586-6.5 15.086T419-267q-9 0-16-6.795-7-6.796-7-16.205v-135h-53Zm71-155q-8-3-10.5-10.318T405-606q6-13 11.5-26t10.5-27q4-9 13-14t18-1q9 4 13 13t-1 18q-6.72 14.04-13.44 27T442-589q-4 8-12 10t-16-1Zm-105.673-16.682q-6.109-12.409-12.218-23.863Q290-632 283-644q-5-8-2-16t11-11q8-3 17.5-.5t14.353 10.131q6.794 11.446 12.618 22.892 5.823 11.446 11.647 23.846Q352-607 349-598.5T337.855-586q-8.146 4-16.8.5-8.655-3.5-12.728-11.182ZM692-336q29.037 0 56.519-15.5Q776-367 798-395v-98q-24 3-44.893 7.615Q732.214-480.769 714-475q-44 14-66 35t-22 48.481Q626-366 644.5-351t47.5 15Zm-20 62q-54 0-86.5-31.157T553-390q0-50.678 32.5-82.839T687-524q23.209-6.3 50.959-11.55Q765.709-540.8 798-545q-3-44-23.5-64.5T712-630q-19.967 0-38.984 5Q654-620 630-606q-11.733 7-24.444 4-12.712-3-19.556-14-8-12-4.078-25.5 3.921-13.5 15.686-20.5Q628-679 662-688.5t66-9.5q69 0 105.5 43T870-531v219q0 12.303-8.382 20.652Q853.235-283 840.882-283h-4.411Q825-283 817-290t-10-18l-3-23q-28 27-62 42t-70 15Z"/></svg>