<svg xmlns="http://www.w3.org/2000/svg" height="20" viewBox="0 -960 960 960" width="20"><path d="M100-286q-5-9-2.5-19t11.5-16q13-9 26-18.5t25-20.5v-109h-42.5q-8.5 0-15-6.795Q96-482.591 96-492q0-9 6.795-15.5Q109.591-514 119-514h67.405Q194-514 199-509q5 5 5 12.858v133.586Q223-338 252-327.5q29 10.5 61 10.5 47.973 0 94.986-1 47.014-1 95.347-1.667Q513-320 517.5-313.5T519-297q-3 10-12.5 17t-19.321 7H312.095Q275-273 241-285.5T181.684-324Q170-312 158-301q-12 11-26 22-8 6-17.5 4T100-286Zm368-60q-24-14-43.794-33.048Q404.413-398.095 386-420v76q0 9-6.5 15.5T364-322q-9 0-16-7t-7-16v-76q-17.156 23.238-39.078 42.119Q280-360 255-343.773q-8 4.773-17.5 3.273Q228-342 221-350t-5.5-15.5Q217-373 225-378q26-14 49.5-32.5T316-452h-61.333Q247-452 242-457t-5-13.076v-89.848Q237-568 242-573t12.832-5H340v-26H239q-9 0-15-6.5t-6-15.5q0-9 6.5-15t15.5-6h100v-24q0-9 6.648-15.5 6.647-6.5 15.852-6.5t15.852 6.5Q385-680 385-671v24h110q9 0 15 6t6 15q0 9-6 15.5t-15 6.5H385v25h91.158Q484-579 489-574q5 5 5 13.077v88.846Q494-464 489-459t-12.696 5H408q20 23 43.227 41.519Q474.455-393.963 501-381q9 5 10.5 12t-5.5 15q-8 8-19 10.5t-19-2.5ZM280-493h60v-47h-60v47Zm106-1h64v-46h-64v46Zm-217-98q-12-14-25.045-26.153Q130.909-630.306 116-641q-8-6-8-14t7-14q8-6 18-6.5t18 4.5q15 11.351 28.5 23.176Q193-636 205-622q6 7 5.5 17t-8.5 16q-8 6-17 5.5t-16-8.5Zm523 256q29.037 0 56.519-15.5Q776-367 798-395v-98q-24 3-44.893 7.615Q732.214-480.769 714-475q-44 14-66 35t-22 48.481Q626-366 644.5-351t47.5 15Zm-20 62q-54 0-86.5-31.157T553-390q0-50.678 32.5-82.839T687-524q23.209-6.3 50.959-11.55Q765.709-540.8 798-545q-3-44-23.5-64.5T712-630q-19.967 0-38.984 5Q654-620 630-606q-11.733 7-24.444 4-12.712-3-19.556-14-8-12-4.078-25.5 3.921-13.5 15.686-20.5Q628-679 662-688.5t66-9.5q69 0 105.5 43T870-531v219q0 12.303-8.382 20.652Q853.235-283 840.882-283h-4.411Q825-283 817-290t-10-18l-3-23q-28 27-62 42t-70 15Z"/></svg>