<svg xmlns="http://www.w3.org/2000/svg" height="20" viewBox="0 -960 960 960" width="20"><path d="M216-288q-29.7 0-50.85-21.15Q144-330.3 144-360v-276q0-15.3 10.289-25.65 10.29-10.35 25.5-10.35Q195-672 205.5-661.65 216-651.3 216-636v276h144v-276q0-15.3 10.289-25.65 10.29-10.35 25.5-10.35Q411-672 421.5-661.65 432-651.3 432-636v276q0 29.7-21.15 50.85Q389.7-288 360-288H216Zm384 0q-29.7 0-50.85-21.15Q528-330.3 528-360q0-10.2 6.9-17.1 6.9-6.9 17.1-6.9h24q10.2 0 17.1 6.9 6.9 6.9 6.9 17.1h144v-84H600q-29.7 0-50.85-21.15Q528-486.3 528-516v-84q0-29.7 21.15-50.85Q570.3-672 600-672h144q29.7 0 50.85 21.15Q816-629.7 816-600q0 10.2-6.9 17.1-6.9 6.9-17.1 6.9h-24q-10.2 0-17.1-6.9-6.9-6.9-6.9-17.1H600v84h144q29.7 0 50.85 21.15Q816-473.7 816-444v84q0 29.7-21.15 50.85Q773.7-288 744-288H600Z"/></svg>