<svg xmlns="http://www.w3.org/2000/svg" height="20" viewBox="0 -960 960 960" width="20"><path d="M781-281 665-397q24.949-13.047 52.908-21.488 27.96-8.442 56.349-10.745Q782-430 789.5-426.5t12.5 8.711q5 5.21 8 12.592 3 7.381 2 15.197-2.16 28.796-10.08 55.898Q794-307 781-281Zm-144 60-33-33q-12 16-21.5 33.5T567-183q19-7 36.5-16.5T637-221Zm52 52q-43 35-96 54T480-96q0-60 19-113t54-96l-79-79q-38-2-64.5-30T384-480q-12 5-24 8.5t-25 3.5q-39.96 0-67.48-27.81Q240-523.619 240-564q0-11 3-22t8-22L115.308-743.692Q104-755 104-769t11-25q11-11 25.667-11 14.666 0 25.333 11l627.919 627.919Q805-155 805-141t-10.947 25q-10.948 11-26 11Q753-105 742-116l-53-53ZM480-912q41 0 69 29t27 70q11-7 23.5-11t25.5-4q39.936 0 67.968 28.19Q721-771.619 721-732q0 26-13 48.5T672-648q23 14 36 36t13 48q0 40-28 68t-68 28q-11 0-21-2.5t-20-7.5L446-616l-67-67q5-14 13-26t19-22.688L370-759q-5-3-10-5.5t-12-2.5q-11 0-20 5t-14 14l-49-49q14-15 32-23t38-8q13 0 25.5 4t23.5 11q-1-41 27-70t69-29Zm132.963 385q16.537 0 28.287-11.739T653-567q0-12.8-6-22.4-6-9.6-17-14.6l-45-22q-1.6 9.281-4.8 18.141Q577-599 572-591q-5 8-10.5 15T548-563l43 29q5 3 10 5t11.963 2ZM587-664l44-23q11-5 16.5-14.778t5.5-21.333Q653-740 641.831-752t-27.493-12q-6.873 0-12.028 2T592-756l-42 28q8 5 14 12t11 15q5 8 8 17t4 20Zm-141-86q8-3 17-5t17-2q8 0 17.5 2t17.5 5l5-53q2-15.136-10.631-26.068-12.631-10.932-29-10.932T451.5-829.068Q439-818.136 441-803l5 53Zm33.789 138Q495-612 505.5-623q10.5-11 10.5-25.5t-10.289-25q-10.29-10.5-25.5-10.5Q465-684 454.5-673.65 444-663.3 444-648q0 14 10.289 25 10.29 11 25.5 11ZM572-591Zm3-110Zm-95-56Zm0 661q0-133-79.48-219.376T195-423q-9-2-17.5 1t-14.5 9q-6 6-9 14.5t-1 17.5q23.197 125.625 108.099 205.312Q346-96 480-96Zm-87-87q-57-21-100.5-62.5T231-345q57 20.607 100 62.804Q374-240 393-183Zm174 0Zm-174 0Z"/></svg>