<svg xmlns="http://www.w3.org/2000/svg" height="20" viewBox="0 -960 960 960" width="20"><path d="M480-576q77 0 145.5 24T751-486q16 12 17.5 32T756-420q-14 14-34 15t-37-10q-44-31-96-48t-109-17q-57 0-109 17t-96 48q-17 11-37 10t-34-15q-14-14-12.5-34t17.5-32q57-42 125.5-66T480-576Zm0-240q126 0 238 41.5T921-658q16 14 17.5 34T926-590q-15 15-36 14.5T852-590q-78-61-172-95.5T480-720q-106 0-200 34.5T108-590q-17 14-38 15t-36-14q-14-14-12.5-34.5T39-658q91-75 203-116.5T480-816Zm-45 621-63-29q-11-5-11-16t11-16l63-29 29-63q5-11 16-11t16 11l29 63 63 29q11 5 11 16t-11 16l-63 29-29 63q-5 11-16 11t-16-11l-29-63Z"/></svg>