<svg xmlns="http://www.w3.org/2000/svg" height="20" viewBox="0 -960 960 960" width="20"><path d="M479.95-240q-57.583 0-114.267-4.5Q309-249 252-257q-25.97-3.595-42.985-23.816Q192-301.038 192-328v-10q-53-8-86.5-48T72-480q0-52 33.5-92t86.5-49v-27q0-28.8 20.769-50.4Q233.538-720 264-720q26 0 51.045 4.654Q340.091-710.692 366-709q28 2 56.024 3.5t56.952 1.5Q507-704 535-705.5t56.952-3.938q26.238-1.624 52.024-6.093Q669.762-720 696-720q29 0 50.5 21.5T768-648v27q51 9 85.5 49t34.5 92q0 54-34 93.5T768-338v10q0 26.625-17.493 46.594Q733.015-261.438 707-257q-57 8-113.683 12.5-56.684 4.5-113.367 4.5Zm.05-72q54 0 108-4t108-12l-.45.4.45-.4v-320q-54.02 8-108.04 12t-108.04 4q-54.92 0-108.886-4-53.967-4-107.034-12-1 0-.5.444.5.445.5-.444v319.59Q318-320 371.55-316T480-312Zm0-48q32 0 64.461-3.81Q576.921-367.619 609-376q14-4 21.5-17t3.5-27q-4-14-17-22t-27-3q-27.315 7.222-54.631 10.111Q508.054-432 480-432q-29 0-56.455-2.528Q396.089-437.056 369-445q-14-5-27 2.5t-17 22q-4 14.5 3.5 27.5t21.5 17q32 8 64.287 12 32.287 4 65.713 4Zm-288-52v-135q-22 8-35 26t-13 41q0 22.759 13 41.379Q170-420 192-412Zm576 0q21-8 34.5-26.621Q816-457.241 816-480q0-23-13.5-41T768-547v135Zm-288-80q32 0 64.461-3.81Q576.921-499.619 609-508q14-4 21.5-17t3.5-27q-4-14-17-22t-27-3q-27.315 7.222-54.631 10.111Q508.054-564 480-564q-29 0-56.5-2.5T369-577q-14-5-27 3t-17 22.424Q321-538 328.5-525t21.5 17q31.93 8.381 64.24 12.19Q446.55-492 480-492ZM264-327v-321 321Z"/></svg>