<svg xmlns="http://www.w3.org/2000/svg" height="20" viewBox="0 -960 960 960" width="20"><path d="M204-672q-14-14-19-33t-5-39q0-50 35-85t85-35q50 0 85 35t35 85q0 20-5.5 38.5T396-672H204ZM414.5-96Q352-96 308-137.5T264-240h-16q-14.316 0-24.158-9T212-272l-39-312q-2-16.364 8.5-28.182Q192-624 209-624h182q17 0 27.5 11.818T427-584l-39 312q-2 14-11.842 23T352-240h-15q0 31 22.876 51.5t55 20.5Q447-168 469.5-190.913 492-213.825 492-246v-468q0-63 43.5-106.5T642-864q63 0 106.5 43.5T792-714v582q0 15.3-10.289 25.65Q771.421-96 756.211-96 741-96 730.5-106.35 720-116.7 720-132v-582.353q0-32.029-23.5-54.838Q673-792 641.168-792t-54.5 22.912Q564-746.175 564-714v468q0 63-43.5 106.5T414.5-96ZM279-312h42l29-240H250l29 240Zm30-240h-59 100-41Z"/></svg>