<svg xmlns="http://www.w3.org/2000/svg" height="20" viewBox="0 -960 960 960" width="20"><path d="m372-330 31.783-31.783Q415-373 429.5-373q14.5 0 25.5 10.522Q466-351 466-336.5q0 14.5-10.909 25.452l-93.636 94.008q-5.455 5.477-11.819 7.758Q343.273-207 336-207q-7.273 0-13.636-2.282-6.364-2.281-11.819-7.758l-93.636-94.008Q206-322 206.462-336.667 206.923-351.333 218-362q11-11 25.5-11t25.457 11.217L300-330v-279L115-794q-11-11-11-25.5t11-25.5q11-11 25.5-11t25.5 11l628 628q11 11 11 25t-11 25q-11 11-25.5 11t-25.705-11.176L372-537v207Zm252-174q-15.3 0-25.65-10.537Q588-525.073 588-540v-189l-32 32q-11 11-25.5 11T505-697q-11-11-11-25.5t11-25.5l93.87-93.6q5.416-5.4 11.734-7.9t13.539-2.5q7.221 0 13.539 2.5T649-842l94 94q11 11 11 25t-11 25q-11 11-25.5 11T692-698l-32-31v189q0 17-10.8 26.5T624-504Z"/></svg>