<svg xmlns="http://www.w3.org/2000/svg" height="20" viewBox="0 -960 960 960" width="20"><path d="M432-552h96v-240q0-20.4-13.8-34.2Q500.4-840 480-840q-20.4 0-34.2 13.8Q432-812.4 432-792v240ZM216-408h528v-72H216v72Zm-48 240h96v-60q0-15.3 10.289-25.65 10.29-10.35 25.5-10.35Q315-264 325.5-253.65 336-243.3 336-228v60h108v-60q0-15.3 10.289-25.65 10.29-10.35 25.5-10.35Q495-264 505.5-253.65 516-243.3 516-228v60h108v-60q0-15.3 10.289-25.65 10.29-10.35 25.5-10.35Q675-264 685.5-253.65 696-243.3 696-228v60h96l-38-168H207l-39 168Zm624 72H168q-34.966 0-56.483-27Q90-150 98-184l46-200v-96q0-29.7 21.15-50.85Q186.3-552 216-552h144v-240q0-50 35-85t85-35q50 0 85 35t35 85v240h144.249Q774-552 795-530.85q21 21.15 21 50.85v96l46 200q8 34-13.5 61T792-96ZM216-408v-72 72Zm312-144h-96 96Z"/></svg>