<svg xmlns="http://www.w3.org/2000/svg" height="20" viewBox="0 -960 960 960" width="20"><path d="M792-597 613.513-420q-34.9 35-84.757 35Q478.9-385 444-420l-33-33q-14-14-34-14t-34 14L172-282q-11 11-25 10.5T122-283q-11-11-11-25.5t11-25.5l170-170q35-35 85-35t85 35l34 34q14.4 14 34.2 14 19.8 0 33.8-14l177-178h-81q-15.3 0-25.65-10.289-10.35-10.29-10.35-25.5Q624-699 634.35-709.5 644.7-720 660-720h168q15.3 0 25.65 10.35Q864-699.3 864-684v168q0 15.3-10.289 25.65-10.29 10.35-25.5 10.35Q813-480 802.5-490.35 792-500.7 792-516v-81Z"/></svg>