<svg xmlns="http://www.w3.org/2000/svg" height="20" viewBox="0 -960 960 960" width="20"><path d="M192-516q-25 0-42.5-17.5T132-576q0-25 17.5-42.5T192-636q25 0 42.5 17.5T252-576q0 25-17.5 42.5T192-516Zm48 348h324v-216h-72q-65.153 0-110.576-45.424Q336-474.847 336-540q0-52.221 30.5-93.11Q397-674 447-689q9-56 52.5-91.5T600-816q57 0 100.5 35.5T753-689q50 15 80.5 55.89Q864-592.221 864-540q0 65.153-45.424 110.576Q773.153-384 708-384h-72v216h144q15.3 0 25.65 10.289 10.35 10.29 10.35 25.5Q816-117 805.65-106.5 795.3-96 780-96H180q-15.3 0-25.65-10.35Q144-116.7 144-132v-156h-12q-15 0-25.5-10.5T96-324v-108q0-20.4 13.8-34.2Q123.6-480 144-480h96q20.4 0 34.2 13.8Q288-452.4 288-432v108q0 15-10.5 25.5T252-288h-12v120Zm252-288h216q35.467 0 59.733-24.267Q792-504.533 792-540q0-27-17-49t-43-30l-41-13-8-43q-5.067-29.686-28.289-49.343Q631.489-744 600.244-744 569-744 546-725t-28 49l-8 43-42 13q-26 8-43 30t-17 50q0 35.467 24.267 59.733Q456.533-456 492-456Zm108-144Z"/></svg>