<svg xmlns="http://www.w3.org/2000/svg" height="20" viewBox="0 -960 960 960" width="20"><path d="M384-744q-70 0-119 49t-49 119v216q0 2 0 0h528q0-2 0 0v-216q0-70-49-119t-119-49H384Zm0 600q-100 0-170-70t-70-170v-192q0-100 70-170t170-70h192q100 0 170 70t70 170v192q0 100-70 170t-170 70H384Zm-18-74q0-14 10.289-24 10.29-10 25.5-10Q417-252 427.5-241.65 438-231.3 438-216h84q0-15 10.289-25.5 10.29-10.5 25.5-10.5 15.211 0 25.711 9.775Q594-232.45 594-218q29 0 62.5-19t56.5-51h-41q0 15-10.289 25.5-10.29 10.5-25.5 10.5Q621-252 610.5-262.35 600-272.7 600-288h-84q0 15-10.289 25.5-10.29 10.5-25.5 10.5Q465-252 454.5-262.35 444-272.7 444-288h-84q0 15-10.289 25.5-10.29 10.5-25.5 10.5Q309-252 298.5-262.35 288-272.7 288-288h-41q22 32 55.5 51t63.5 19Zm18-139h360-528 168Z"/></svg>