<svg xmlns="http://www.w3.org/2000/svg" height="20" viewBox="0 -960 960 960" width="20"><path d="M480.276-96Q401-96 331-126q-70-30-122.5-82.5T126-330.958q-30-69.959-30-149.5Q96-560 126-629.5t82.5-122Q261-804 330.958-834q69.959-30 149.5-30Q560-864 629.5-834t122 82.5Q804-699 834-629.276q30 69.725 30 149Q864-401 834-331q-30 70-82.5 122.5T629.276-126q-69.725 30-149 30Zm-.046-72Q610-168 701-259.23q91-91.229 91-221Q792-610 700.77-701q-91.229-91-221-91Q350-792 259-700.77q-91 91.229-91 221Q168-350 259.23-259q91.229 91 221 91Zm-.23-72q-100 0-170-70t-70-170q0-100 70-170t170-70q100 0 170 70t70 170q0 100-70 170t-170 70Zm0-72q70 0 119-49t49-119q0-70-49-119t-119-49q-70 0-119 49t-49 119q0 70 49 119t119 49Z"/></svg>