<svg xmlns="http://www.w3.org/2000/svg" height="20" viewBox="0 -960 960 960" width="20"><path d="M377-308q23-14 50-21.5t53-7.5q7 0 13.5.5T506-335q-14 27-21 57t-7 62q0 17 2 33.5t6 32.5l-6 6-109-109q-12-12-10-28.5t16-26.5Zm103-268q75 0 145 24t130 69q-35-2-69.5 6T619-452q-33-14-68-21t-71-7q-56 0-108 16t-97 48q-17 12-37 11t-34-15q-14-14-13.5-33.5T207-485q59-45 128.5-68T480-576Zm0-240q121 0 233.5 40T920-660q17 14 18.5 34.5T926-590q-14 14-34.5 14.5T854-588q-80-63-175.5-97.5T480-720q-103 0-198.5 34.5T106-588q-17 13-37.5 12.5T34-590q-14-15-12.5-35.5T40-660q93-78 206-117t234-39ZM700-80q-14-5-26.5-11.5T650-108l-32 10q-11 3-20.5-1T583-112l-8-13q-5-9-4-19.5t9-18.5l24-23q-3-14-3-29t3-29l-23-22q-8-8-9.5-18t3.5-20l8-13q5-10 15-14t21-1l30 9q11-11 24-18t27-11l7-32q2-11 11-17.5t20-6.5h14q11 0 20 6.5t11 17.5l7 32q14 5 27.5 11.5T841-323l31-9q11-3 20.5 1.5T907-317l8 13q5 9 3.5 19.5T909-266l-22 21q3 14 2.5 29.5T886-186l23 22q8 8 9.5 18.5T915-126l-8 13q-5 9-14.5 13T872-99l-32-9q-11 10-23.5 16.5T790-80l-8 32q-2 11-10.5 17.5T752-24h-15q-11 0-19.5-7T707-49l-7-31Zm45-208q-30 0-51 21t-21 51q0 30 21 51t51 21q30 0 51-21t21-51q0-30-21-51t-51-21Z"/></svg>