<svg xmlns="http://www.w3.org/2000/svg" height="20" viewBox="0 -960 960 960" width="20"><path d="M300-264v-171L137-663q-13-18-3-37.5t32-19.5h340q22 0 32 19.5t-3 37.5L372-434v170h24q15.3 0 25.65 10.289 10.35 10.29 10.35 25.5Q432-213 421.65-202.5 411.3-192 396-192H276q-15.3 0-25.65-10.289-10.35-10.29-10.35-25.5Q240-243 250.35-253.5 260.7-264 276-264h24Zm-12-312h96l52-72H236l52 72Zm312 384q-50 0-85-35t-35-85q0-50 35-85t85-35q13.2 0 25.2 1.875T648-422v-262q0-15.3 10.35-25.65Q668.7-720 684-720h84q20 0 34 14t14 34q0 20-14 34t-34 14h-48v312q0 50-35 85t-85 35Z"/></svg>