<svg xmlns="http://www.w3.org/2000/svg" height="20" viewBox="0 -960 960 960" width="20"><path d="M517-420Zm14 372H416l12-11.5q12-11.5 26.316-25.063 14.316-13.562 26.5-24.499L493-120h45q87 0 160-45t112-122q-83-5-158.5-39.5T517-420q-60-60-94-135t-40-159q-79 42-123 120.319-44 78.32-44 169.606V-417l-10.753 5.015q-10.754 5.014-23.747 10.485-12.993 5.471-23.747 10.485L147-386q-2-15-2.5-26.657T144-435q0-124 73.5-228T411-802q9.778-3 17.778-1.077 8 1.923 15.111 7Q451-791 454.5-783.107 458-775.214 457-765q-5 87 26.5 164T576-463q58 58 129.892 82.5Q777.783-356 857.663-361q10.337-1 19.045 2.971Q885.417-354.059 890-347q5 7 6.5 15.5T895-313q-42 122-136.5 193.5T531-48Zm-267-73h156q25 0 42.5-17.5T480-181q0-22-14-38.5T430-239l-40-7-15-38q-14.087-34.833-44.275-55.417Q300.538-360 264.312-360 214-360 179-325.5T144-240q0 50 35 84.5t85 34.5Zm0 73q-79.68 0-135.84-56.226t-56.16-136Q72-320 128.16-376T264-432q60 0 109.5 32.5T443-310q47 8 78 45t31 85q0 54.686-38.657 93.343Q474.686-48 420-48H264Z"/></svg>