<svg xmlns="http://www.w3.org/2000/svg" height="20" viewBox="0 -960 960 960" width="20"><path d="M480-96q-79.376 0-149.188-30Q261-156 208.5-208.5T126-330.958q-30-69.959-30-149.5Q96-560 126-630t82.5-122q52.5-52 122.458-82 69.959-30 149.5-30 79.542 0 149.548 30.24 70.007 30.24 121.792 82.08 51.786 51.84 81.994 121.92T864-480q0 79.376-30 149.188Q804-261 752-208.5T629.869-126Q559.738-96 480-96Zm.458-72q130.458 0 221-91T792-480.458q0-130.458-90.542-221t-221-90.542Q350-792 259-701.458t-91 221Q168-350 259-259t221.458 91ZM516-240q-34 0-62-22t-42-58q-6-16-13-32t-20-27l-38-34q-26-23-39.5-56T288-540q0-75 54.25-127.5T474-720q51 0 91 22.5t59 61.5q14 28 6 47.5T599-569q-11.226 0-20.113-6Q570-581 565-590q-13-26-38.5-42T472-648q-47.04 0-79.52 31.32T360-540q0 22 10 43.5t30 39.5l30 28q16 15 28 36.5t23 52.5q5 13 14.5 20.5T516-312q11 0 20.5-7t18.5-21q5-8 12.448-12 7.449-4 16.552-4 21.043 0 32.021 17Q627-322 617-304q-16 30-42.917 47-26.916 17-58.083 17Zm24-162q25 0 42.5-17.5T600-462q0-25-17.5-42.5T540-522q-25 0-42.5 17.5T480-462q0 25 17.5 42.5T540-402Z"/></svg>