<svg xmlns="http://www.w3.org/2000/svg" height="20" viewBox="0 -960 960 960" width="20"><path d="M228.292-216Q213-216 202.5-226.289q-10.5-10.29-10.5-25.5Q192-267 202.35-277.5 212.7-288 228-288h12v-240q0-87 53.5-153T432-763v-53q0-20 14-34t34-14q20 0 34 14t14 34v53q85 16 138.5 82T720-528v240h12q15.3 0 25.65 10.289 10.35 10.29 10.35 25.5Q768-237 757.656-226.5 747.311-216 732.019-216H228.292ZM480-492Zm-.212 396Q450-96 429-117.15 408-138.3 408-168h144q0 30-21.212 51-21.213 21-51 21ZM312-288h336v-240q0-70-49-119t-119-49q-70 0-119 49t-49 119v240Z"/></svg>