<svg xmlns="http://www.w3.org/2000/svg" height="20" viewBox="0 -960 960 960" width="20"><path d="M180-144q-15.3 0-25.65-10.289-10.35-10.29-10.35-25.5Q144-195 154.35-205.5 164.7-216 180-216h36v-228h-35.789Q165-444 154.5-454.289q-10.5-10.29-10.5-25.5Q144-495 154.35-505.5 164.7-516 180-516h36v-228h-35.789Q165-744 154.5-754.289q-10.5-10.29-10.5-25.5Q144-795 154.35-805.5 164.7-816 180-816h600q15.3 0 25.65 10.289 10.35 10.29 10.35 25.5Q816-765 805.65-754.5 795.3-744 780-744h-36v228h35.789Q795-516 805.5-505.711q10.5 10.29 10.5 25.5Q816-465 805.65-454.5 795.3-444 780-444h-36v228h35.789Q795-216 805.5-205.711q10.5 10.29 10.5 25.5Q816-165 805.65-154.5 795.3-144 780-144H180Zm108-72h384v-228h-12q-15.3 0-25.65-10.289-10.35-10.29-10.35-25.5Q624-495 634.35-505.5 644.7-516 660-516h12v-228H288v228h12q15.3 0 25.65 10.289 10.35 10.29 10.35 25.5Q336-465 325.65-454.5 315.3-444 300-444h-12v228Zm192-120q45 0 76.5-30.5t31.5-75.239q0-18.261-4-30.761T569-502l-61.911-72.204Q496-587 479.765-587q-16.234 0-26.765 13l-61 72q-11 16-15.5 29.168-4.5 13.169-4.5 31.332 0 44.5 31.5 75T480-336ZM288-216v-528 528Z"/></svg>