<svg xmlns="http://www.w3.org/2000/svg" height="20" viewBox="0 -960 960 960" width="20"><path d="M216-144q-29.7 0-50.85-21.15Q144-186.3 144-216v-528q0-29.7 21.15-50.85Q186.3-816 216-816h528q29.7 0 50.85 21.15Q816-773.7 816-744v228q0 15.3-10.289 25.65-10.29 10.35-25.5 10.35Q765-480 754.5-490.35 744-500.7 744-516v-228H216v528h228q15.3 0 25.65 10.289 10.35 10.29 10.35 25.5Q480-165 469.65-154.5 459.3-144 444-144H216Zm477-72L361-548q-11-11-10.5-25.5T362-599q11-11 25.5-11t25.5 11l331 332v-81q0-15.3 10.289-25.65 10.29-10.35 25.5-10.35Q795-384 805.5-373.65 816-363.3 816-348v168q0 15.3-10.35 25.65Q795.3-144 780-144H612q-15.3 0-25.65-10.289-10.35-10.29-10.35-25.5Q576-195 586.35-205.5 596.7-216 612-216h81Z"/></svg>