<svg xmlns="http://www.w3.org/2000/svg" height="20" viewBox="0 -960 960 960" width="20"><path d="m743-116-29-28H216q-29.7 0-50.85-21.15Q144-186.3 144-216v-498l-29-29q-11-10.667-11-25.333Q104-783 115-794q11-11 25.667-11 14.666 0 25.333 11l627.919 627.919Q805-155 805-140.818q0 14.182-11 24.818-10.667 11-25.333 11Q754-105 743-116ZM216-216h426L455-404l-43 43q-11 11-25 10.5T362-362q-11-11-11-25.5t11-25.5l42-42-188-187v426Zm228-528H324q-18 0-27-11.25T288-780q0-13.5 9-24.75T324-816h120q15.3 0 25.65 10.289 10.35 10.29 10.35 25.5Q480-765 469.65-754.5 459.3-744 444-744Zm300 51L580.753-529.753Q570-519 556-519.5T531-531q-11-11-11-25.5t10.691-25.191L693-744h-81q-15.3 0-25.65-10.289-10.35-10.29-10.35-25.5Q576-795 586.35-805.5 596.7-816 612-816h168q15.3 0 25.65 10.35Q816-795.3 816-780v168q0 15.3-10.289 25.65-10.29 10.35-25.5 10.35Q765-576 754.5-586.35 744-596.7 744-612v-81Zm72 249v120q0 18-11.25 27T780-288q-13.5 0-24.75-9.22Q744-306.439 744-324v-120q0-15.3 10.289-25.65 10.29-10.35 25.5-10.35Q795-480 805.5-469.65 816-459.3 816-444Z"/></svg>