<svg xmlns="http://www.w3.org/2000/svg" height="20" viewBox="0 -960 960 960" width="20"><path d="M216-144q-29.7 0-50.85-21.15Q144-186.3 144-216v-528q0-29.7 21.15-50.85Q186.3-816 216-816h528q29.7 0 50.85 21.15Q816-773.7 816-744v528q0 29.7-21.15 50.85Q773.7-144 744-144H216Zm0-72h528v-528H216v528Zm0-528v528-528Zm264 354 73 44q11 6 20.5-1.5T580-366l-20-81.948 63.862-55.575Q633-512 629.545-523.538 626.091-535.077 614-536l-83.832-6.653-32.968-77.941Q492.49-632 480.245-632q-12.245 0-16.974 11.406l-33.1 77.941L346-536q-12.091.923-15.545 12.462Q327-512 336.138-503.523L400-447.948 380-366q-3 11 6.5 18.5T407-346l73-44Z"/></svg>