<svg xmlns="http://www.w3.org/2000/svg" height="20" viewBox="0 -960 960 960" width="20"><path d="M168-144q-29 0-50.5-21.5T96-216v-432q0-29 21.5-50.5T168-720h120l50-67q11-14 26.177-21.5T396-816h168.182Q581-816 596-808.5t26 21.5l50 67h120q29.7 0 50.85 21.5Q864-677 864-648v432q0 29-21.15 50.5T792-144H168Zm0-72h624v-432H636l-72.099-96H396l-72 96H168v432Zm312-217Zm0 169q70 0 119-49t49-119q0-6-.457-12-.458-6-1.372-12H573q2 6 2.5 12t.5 12q0 40.32-27.84 68.16Q520.32-336 480-336H342q23 33 59.052 52.5Q437.103-264 480-264ZM313.829-408H387q-2-6-2.5-12t-.5-12q0-40.32 27.84-68.16Q439.68-528 480-528h138q-23-33-59.052-52.5Q522.897-600 480-600q-70 0-119 49t-49 119q0 6 .457 12 .458 6 1.372 12Z"/></svg>