<svg xmlns="http://www.w3.org/2000/svg" height="20" viewBox="0 -960 960 960" width="20"><path d="M216-192q-29.7 0-50.85-21.15Q144-234.3 144-264v-24q0-23 12.5-43.5T191-366q55-32 116.361-49Q368.722-432 432-432q18.667 0 37.333 1.5Q488-429 507-426q9 2 15 9t7 17q4 36 19.5 68t41.5 57q5 5 8.5 11.786 3.5 6.785 3.5 14.928v19.905Q602-213 591.65-202.5T566-192H216Zm216-288q-60 0-102-42t-42-102q0-60 42-102t102-42q60 0 102 42t42 102q0 60-42 102t-102 42Zm299.789 72Q747-408 757.5-418.289q10.5-10.29 10.5-25.5Q768-459 757.711-469.5q-10.29-10.5-25.5-10.5Q717-480 706.5-469.711q-10.5 10.29-10.5 25.5Q696-429 706.289-418.5q10.29 10.5 25.5 10.5Zm4.863 322.652L701-121q-1-1-5-11.863V-294q-42-11-69-46t-27-80.191q0-54.607 38.722-93.208t93.5-38.601Q787-552 825.5-513.343 864-474.686 864-420q0 42.577-24.65 75.692Q814.7-311.192 777-297l31.714 31.714Q814-260 814-252t-5.182 13.182l-27.636 27.636Q776-206 776-198t5.182 13.182l27.636 27.636Q814-152 814-144t-5.25 13.25l-45.5 45.5Q758-80 750-80t-13.348-5.348Z"/></svg>