<svg xmlns="http://www.w3.org/2000/svg" height="20" viewBox="0 -960 960 960" width="20"><path d="M395.789-336Q411-336 421.5-346.338 432-356.677 432-371.96v-215.757Q432-603 421.711-613.5q-10.29-10.5-25.5-10.5Q381-624 370.5-613.662 360-603.323 360-588.04v215.757Q360-357 370.289-346.5q10.29 10.5 25.5 10.5Zm168 0Q579-336 589.5-346.338 600-356.677 600-371.96v-215.757Q600-603 589.711-613.5q-10.29-10.5-25.5-10.5Q549-624 538.5-613.662 528-603.323 528-588.04v215.757Q528-357 538.289-346.5q10.29 10.5 25.5 10.5ZM480.276-96Q401-96 331-126q-70-30-122.5-82.5T126-330.958q-30-69.959-30-149.5Q96-560 126-629.5t82.5-122Q261-804 330.958-834q69.959-30 149.5-30Q560-864 629.5-834t122 82.5Q804-699 834-629.276q30 69.725 30 149Q864-401 834-331q-30 70-82.5 122.5T629.276-126q-69.725 30-149 30ZM480-168q130 0 221-91t91-221q0-130-91-221t-221-91q-130 0-221 91t-91 221q0 130 91 221t221 91Zm0-312Z"/></svg>