<svg xmlns="http://www.w3.org/2000/svg" height="20" viewBox="0 -960 960 960" width="20"><path d="M651-600h33q15.3 0 25.65 10.289 10.35 10.29 10.35 25.5Q720-549 709.65-538.5 699.3-528 684-528H564q-15.3 0-25.65-10.35Q528-548.7 528-564v-120q0-15.3 10.289-25.65 10.29-10.35 25.5-10.35Q579-720 589.5-709.65 600-699.3 600-684v33l140-140q11-11 25-11t25 11q11 11 11.5 25.5T791-740L651-600Zm112 455q-121-9-229.5-59.5T339-341q-86-86-135.5-194T144-764q-2-21 12.286-36.5Q170.571-816 192-816h136q17 0 29.5 10.5T374-779l24 106q2 13-1.5 25T385-628l-97 98q20 38 46 73t57.969 65.984Q422-361 456-335.5q34 25.5 72 45.5l99-96q8-8 20-11.5t25-1.5l107 23q17 5 27 17.5t10 29.5v136q0 21.429-16 35.714Q784-143 763-145ZM255-600l70-70-17.16-74H218q5 38 14 73.5t23 70.5Zm344 344q35.1 14.243 71.55 22.622Q707-225 744-220v-90l-75-16-70 70ZM255-600Zm344 344Z"/></svg>