<svg xmlns="http://www.w3.org/2000/svg" height="20" viewBox="0 -960 960 960" width="20"><path d="M216-144q-29.7 0-50.85-21.15Q144-186.3 144-216v-384q0-29.7 21.15-50.85Q186.3-672 216-672h120q15.3 0 25.65 10.289 10.35 10.29 10.35 25.5Q372-621 361.65-610.5 351.3-600 336-600H216v384h528v-384H624q-15.3 0-25.65-10.289-10.35-10.29-10.35-25.5Q588-651 598.35-661.5 608.7-672 624-672h120q29.7 0 50.85 21.15Q816-629.7 816-600v384q0 29.7-21.15 50.85Q773.7-144 744-144H216Zm300-330 32-32q11-11 25.667-11 14.666 0 25.333 11 11 11 11 25.5T599-455l-94.138 94.138Q494-350 479.818-350T455-361l-94-94q-11-11-10.5-25.5T362-506q11-11 25.5-11t25.5 11l31 32v-402.025q0-15.289 10.289-25.632Q464.579-912 479.789-912 495-912 505.5-901.657q10.5 10.343 10.5 25.632V-474Z"/></svg>