<svg xmlns="http://www.w3.org/2000/svg" height="20" viewBox="0 -960 960 960" width="20"><path d="M216-96q-29.7 0-50.85-21.15Q144-138.3 144-168v-624q0-29.7 21.15-50.85Q186.3-864 216-864h480q29.7 0 50.85 21.15Q768-821.7 768-792v252q0 16-10.925 26T730-504q-14.45 0-24.225-11Q696-526 696-540v-252H480v283q0 10.043-8.5 15.522Q463-488 454-493l-70-35-70 35q-9 5-17.5-.478Q288-498.957 288-509v-283h-72v624h204q15.3 0 25.65 10.289 10.35 10.29 10.35 25.5Q456-117 445.65-106.5 435.3-96 420-96H216Zm503.774 48Q640-48 584-104.226t-56-136Q528-320 584.226-376t136-56Q800-432 856-375.774t56 136Q912-160 855.774-104t-136 56ZM700-163l94-62q8-5.357 8-15.179Q802-250 794-255l-93.804-62.171Q691-323 681.5-317.978 672-312.957 672-302v124q0 10.588 9.484 15.794Q690.968-157 700-163ZM288-792h192-192Zm-72 629v-629 299-35 35-299 629Z"/></svg>