<svg xmlns="http://www.w3.org/2000/svg" height="20" viewBox="0 -960 960 960" width="20"><path d="M96-528q0-40 28-68t68-28h636q15.3 0 25.65 10.289 10.35 10.29 10.35 25.5Q864-573 853.65-562.5 843.3-552 828-552H206q-16.15 0-27.075 11.04T168-513.6V-360h72q0-29.7 21.15-50.85Q282.3-432 312-432h300q15.3 0 25.65 10.289 10.35 10.29 10.35 25.5Q648-381 637.65-370.5 627.3-360 612-360H312v144h300q15.3 0 25.65 10.289 10.35 10.29 10.35 25.5Q648-165 637.65-154.5 627.3-144 612-144H312q-29.7 0-50.85-21.116Q240-186.232 240-215.884v-71.884h-72q-29.7 0-50.85-21.116Q96-330 96-360v-168Zm144-96v-120q0-30 21.15-51T312-816h336q29.7 0 50.85 21.15Q720-773.7 720-744v120h-72v-120H312v120h-72Zm516.211 480Q741-144 730.5-154.289q-10.5-10.29-10.5-25.5Q720-195 730.289-205.5q10.29-10.5 25.5-10.5Q771-216 781.5-205.711q10.5 10.29 10.5 25.5Q792-165 781.711-154.5q-10.29 10.5-25.5 10.5ZM720-324v-144q0-15.3 10.289-25.65 10.29-10.35 25.5-10.35Q771-504 781.5-493.65 792-483.3 792-468v144q0 15.3-10.289 25.65-10.29 10.35-25.5 10.35Q741-288 730.5-298.35 720-308.7 720-324ZM168-552h552-552Z"/></svg>