<svg xmlns="http://www.w3.org/2000/svg" height="20" viewBox="0 -960 960 960" width="20"><path d="M96-384v-92q0-25.78 12.5-47.39T143-558q57-33 117.701-49.5Q321.402-624 384-624q54 0 105 12t99 35q-13.978 12.809-25.489 27.904Q551-534 542-520q-38-16-77.56-24-39.561-8-80.44-8-54 0-105 14t-100 42q-4.95 2.941-7.975 8.235Q168-482.471 168-476v20h346q-5 16-7.5 33t-2.5 39H96Zm288-72Zm0-216q-60 0-102-42t-42-102q0-60 42-102t102-42q60 0 102 42t42 102q0 60-42 102t-102 42Zm.212-72Q414-744 435-765.212q21-21.213 21-51Q456-846 434.788-867q-21.213-21-51-21Q354-888 333-866.788q-21 21.213-21 51Q312-786 333.212-765q21.213 21 51 21ZM384-816Zm336 0q0 60-42 102t-102 42h-15.5q-7.5 0-14.5-3 26-29 40-65.352 14-36.352 14-75.5T586-891.5Q572-928 546-957q7.333-1.875 14.667-2.438Q568-960 576-960q60 0 102 42t42 102Zm47.549 624q-79.493 0-135.521-56.028Q576-304.056 576-383.549 576-464 632.028-520t135.521-56Q848-576 904-520t56 136.451q0 79.493-56 135.521Q848-192 767.549-192ZM743-298l138-138-34-34-104 104-53-54-34 35 87 87Z"/></svg>