<svg xmlns="http://www.w3.org/2000/svg" height="20" viewBox="0 -960 960 960" width="20"><path d="M504-144v-72h72v72h-72Zm-72-72v-192h72v192h-72Zm312-120v-144h72v144h-72Zm-72-144v-72h72v72h-72Zm-456 72v-72h72v72h-72Zm-72-72v-72h72v72h-72Zm336-264v-72h72v72h-72Zm-288 96h120v-120H192v120Zm-48 12.055v-143.779Q144-795 154.334-805.5t25.611-10.5h143.779Q339-816 349.5-805.666t10.5 25.611v143.779Q360-621 349.666-610.5T324.055-600H180.276Q165-600 154.5-610.334T144-635.945ZM192-192h120v-120H192v120Zm-48 12.055v-143.779Q144-339 154.334-349.5t25.611-10.5h143.779Q339-360 349.5-349.666t10.5 25.611v143.779Q360-165 349.666-154.5T324.055-144H180.276Q165-144 154.5-154.334T144-179.945ZM648-648h120v-120H648v120Zm-48 12.055v-143.779Q600-795 610.334-805.5t25.611-10.5h143.779Q795-816 805.5-805.666t10.5 25.611v143.779Q816-621 805.666-610.5T780.055-600H636.276Q621-600 610.5-610.334T600-635.945ZM672-144v-120h-72v-72h144v120h72v72H672ZM504-408v-72h168v72H504Zm-144 0v-72h-72v-72h216v72h-72v72h-72Zm48-192v-144h72v72h72v72H408Zm-180-84v-48h48v48h-48Zm0 456v-48h48v48h-48Zm456-456v-48h48v48h-48Z"/></svg>