<svg xmlns="http://www.w3.org/2000/svg" height="20" viewBox="0 -960 960 960" width="20"><path d="M216-792v624-624 168-168Zm108 408h120q15.3 0 25.65-10.289 10.35-10.29 10.35-25.5Q480-435 469.65-445.5 459.3-456 444-456H324q-15.3 0-25.65 10.289-10.35 10.29-10.35 25.5Q288-405 298.35-394.5 308.7-384 324-384Zm0 144h72q15.3 0 25.65-10.289 10.35-10.29 10.35-25.5Q432-291 421.65-301.5 411.3-312 396-312h-72q-15.3 0-25.65 10.289-10.35 10.29-10.35 25.5Q288-261 298.35-250.5 308.7-240 324-240ZM216-96q-29.7 0-50.85-21.15Q144-138.3 144-168v-624q0-29.7 21.15-50.85Q186.3-864 216-864h282q14.222 0 27.111 5Q538-854 549-843l150 150q11 11 16 23.889T720-642v78q0 15-10.289 25.5-10.29 10.5-25.5 10.5Q669-528 658.5-538.35 648-548.7 648-564v-60H516q-15.3 0-25.65-10.35Q480-644.7 480-660v-132H216v624h228q15.3 0 25.65 10.289 10.35 10.29 10.35 25.5Q480-117 469.65-106.5 459.3-96 444-96H216Zm455.775-96Q712-192 740-219.775q28-27.774 28-68Q768-328 740.16-356q-27.84-28-68.16-28-32 0-64 24t-32 72q0 40.32 27.775 68.16 27.774 27.84 68 27.84ZM887-73q-11 11-25.5 11T836-73l-73-74q-20 13-43.03 20t-47.47 7Q602-120 553-169t-49-119q0-70 49-119t119-49q70 0 119 49t49 119q0 24.613-7 47.807Q826-217 813-197l74 73q11 11 11 25.5T887-73Z"/></svg>