<svg xmlns="http://www.w3.org/2000/svg" height="20" viewBox="0 -960 960 960" width="20"><path d="m804-209-51-51q18-17 31-35t25-40q-56-5-102.5-19T613-397L434-580q-29-47-37.5-87T383-762q-22 12-39.5 25.5T309-705l-52-52q32-34 67-55t76-36q20.103-8 37.052 4.369Q454-831.262 453-811q-3 82 27.5 159T569-516.5q58 58.5 132.745 86T859-406q22-1 33.5 14.5T897-356q-16 45-37.5 80T804-209ZM743-67l-60-60q-33 13-73.5 22T531-96q-80.465 0-150.872-30.653-70.408-30.654-122.614-82.861-52.207-52.206-82.861-122.614Q144-402.535 144-483q0-38 9.5-78t22.5-73l-61-61q-11-11-11-25t10.759-25q10.758-11 26-11 15.241 0 26.337 11.081L794-117q11 11 10.5 25T793-67q-11 11-25 11t-25-11ZM531-168q23 0 49.5-5t46.5-10L429-381 231-579q-5 21-10 47t-5 49q0 132 91.5 223.5T531-168ZM429-381Zm102-102Z"/></svg>