<svg xmlns="http://www.w3.org/2000/svg" height="20" viewBox="0 -960 960 960" width="20"><path d="M432-132v-94q0-7.636 3-14.318Q438-247 443-252l255-255q10.685-10 23.596-15t27.157-5q14.247 0 27.332 5 13.086 5 23.915 15l43 43q11 10 16 23.517t5 27.5q0 13.983-5 27.483T843-362L588-107q-5 5-11.233 8-6.233 3-13.356 3h-95.274Q453-96 442.5-106.35T432-132Zm363-282-44-42 44 42ZM504-168h44l149-149-20-19-23-24-150 149v43Zm173-168-23-24 23 24 20 19-20-19ZM216-96q-50-1-85-36t-35-85q0-39 24-70t60-45v-299q-36-14-60-44.5T96-744q0-51 35-85.5t85-34.5q39 0 69.5 23.5T330-780h108l-44-44q-11-10.909-11-25.455Q383-864 394-875q11-11 25.667-11 14.666 0 25.333 11l105.768 105.768Q562-758 562-743.818q0 14.182-11 24.818L445.143-613.143Q434-602 420-602.5T395-614q-11-11-11-25.667 0-14.666 11-25.333l43-43H330q-9.574 27.219-29.787 47.109Q280-641 252-631v300q36 14 60 44.805T336-216q0 50-35 85t-85 35Zm528-769q51 0 85.5 34.5T864-745q0 51-34.5 85.5T744-625q-51 0-85.5-34.5T624-745q0-51 34.5-85.5T744-865ZM216-169q20.4 0 34.2-13.8Q264-196.6 264-217q0-20.4-13.8-34.2Q236.4-265 216-265q-20.4 0-34.2 13.8Q168-237.4 168-217q0 20.4 13.8 34.2Q195.6-169 216-169Zm0-527q20.4 0 34.2-13.8Q264-723.6 264-744q0-20.4-13.8-34.2Q236.4-792 216-792q-20.4 0-34.2 13.8Q168-764.4 168-744q0 20.4 13.8 34.2Q195.6-696 216-696Zm528-1q20.4 0 34.2-13.8Q792-724.6 792-745q0-20.4-13.8-34.2Q764.4-793 744-793q-20.4 0-34.2 13.8Q696-765.4 696-745q0 20.4 13.8 34.2Q723.6-697 744-697ZM216-217Zm0-527Zm528-1Z"/></svg>