<svg xmlns="http://www.w3.org/2000/svg" height="20" viewBox="0 -960 960 960" width="20"><path d="M384-288h162q13.674 0 25.337-7t17.263-18.943L667-470q2-5 3.5-10.667Q672-486.333 672-492v-12q0-20.4-13.8-34.2Q644.4-552 624-552H504l20-101q2-9.286-.5-17.643Q521-679 514-686l-34-34-134 179q-5 7-7.5 13.875T336-512v176q0 19.8 14.1 33.9Q364.2-288 384-288Zm96.276 192Q401-96 331-126q-70-30-122.5-82.5T126-330.958q-30-69.959-30-149.5Q96-560 126-629.5t82.5-122Q261-804 330.958-834q69.959-30 149.5-30Q560-864 629.5-834t122 82.5Q804-699 834-629.276q30 69.725 30 149Q864-401 834-331q-30 70-82.5 122.5T629.276-126q-69.725 30-149 30ZM480-168q130 0 221-91t91-221q0-130-91-221t-221-91q-130 0-221 91t-91 221q0 130 91 221t221 91Zm0-312Z"/></svg>