<svg xmlns="http://www.w3.org/2000/svg" height="20" viewBox="0 -960 960 960" width="20"><path d="M864-575q0 55.413-21.17 105.606t-57.461 91.151Q775-367 761-368.5T737-382q-10-12-8.5-26.5T740-435q24.762-29.071 38.381-65.027Q792-535.984 792-575q0-39.448-13.619-75.028Q764.762-685.608 740-715q-10-11-11.5-26.5T737-768q10-11 24.5-12.5t24.944 9.485Q823-731 843.5-680.742 864-630.485 864-575Zm-144 0q0 23-7 45t-20.655 40.125Q684-479 669.5-480.5q-14.5-1.5-24.352-12.907Q636-504 636-518.5t6-28.5q3-7 4.5-13.741t1.5-14Q648-582 647-589t-4-13q-6-14-6.5-29t8.648-26.074Q655-669 669.5-670t22.845 9.875Q706-642 713-620q7 22 7 45ZM384-432q-60 0-102-41.5t-42-101.367q0-59.867 42-102.5T384-720q60 0 102 42.633t42 102.5Q528-515 486-473.5 444-432 384-432ZM96-216v-25q0-24 13-44t34-33q55-33 116-50t125-17q64 0 125 17t116 50q20 13 33.5 33t13.5 44v25q0 29.7-21.162 50.85Q629.676-144 599.96-144H167.717Q138-144 117-165.15T96-216Zm72 0h432v-25q0-4.552-3-8.276T589-256q-47-29-99-43t-106-14q-54 0-106 14t-99 43q-5 3-8 6.724T168-241v25Zm216.212-288Q414-504 435-524.5q21-20.5 21-50.58 0-30.079-21.212-51.5-21.213-21.42-51-21.42Q354-648 333-626.58q-21 21.421-21 51.5 0 30.08 21.212 50.58 21.213 20.5 51 20.5ZM384-575Zm0 359Z"/></svg>