<svg xmlns="http://www.w3.org/2000/svg" height="20" viewBox="0 -960 960 960" width="20"><path d="m198-510 134 134q11 11 11 25.5t-11 25.978Q321-314 306.5-314T281-325L121.211-484.789Q116-490 113.5-496.3q-2.5-6.3-2.5-13.5t2.5-13.5q2.5-6.3 7.5-11.7l160-160q11-11 25.667-11 14.666 0 25.333 11 11 10.667 11 25.333Q343-655 332-644L198-510Zm228 36 98 98q11 11 11 25.5t-11 25.978Q513-314 498.5-314T473-325L313.211-484.789Q308-490 305.5-496.3q-2.5-6.3-2.5-13.5t2.5-13.5q2.5-6.3 7.5-11.7l160-160q11-11 25.667-11 14.666 0 25.333 11 11 10.667 11 25.333Q535-655 524-644l-98 98h198q79.68 0 135.84 56.16T816-354v108q0 15.3-10.289 25.65-10.29 10.35-25.5 10.35Q765-210 754.5-220.35 744-230.7 744-246v-108q0-50-35-85t-85-35H426Z"/></svg>