<svg xmlns="http://www.w3.org/2000/svg" height="20" viewBox="0 -960 960 960" width="20"><path d="M412-412q-36-36-66.5-77.5T291-577q-11 22-16.5 46t-5.5 49q0 88.839 62.08 150.92Q393.161-269 482-269q25 0 48.267-5.5Q553.535-280 576-291q-46-24-87-54.5T412-412Zm68 220q-57 0-109.796-21.512Q317.408-235.024 276-276q-40.976-41.408-62.488-94.204Q192-423 192-480q0-55.203 19.791-105.536Q231.582-635.868 270-677q14-14 33-11.5t26 20.5q23 58 56.3 109.45T463-463q44 44 95.562 78.125T668-328q17 7 19 26.5t-12.808 33.913Q634-231 584-211.5 534-192 480-192Zm234.061-197Q700-394 693.5-407.885 687-421.771 690-437q11-53-2.5-104T633-633q-38-38-90.5-53.5T438-691q-15.396 3-28.981-3.389Q395.434-700.778 390-715q-5-14 2.016-27.677Q399.032-756.353 414-760q73-17 144 2t126.029 74.029Q738-630 757.5-557.5 777-485 760-413q-3.647 14.939-17.323 21.97Q729-384 714.061-389Zm-233.85-451Q465-840 454.5-850.35 444-860.7 444-876v-48q0-15.3 10.289-25.65 10.29-10.35 25.5-10.35Q495-960 505.5-949.65 516-939.3 516-924v48q0 15.3-10.289 25.65-10.29 10.35-25.5 10.35Zm0 840Q465 0 454.5-10.35 444-20.7 444-36v-48q0-15.3 10.289-25.65 10.29-10.35 25.5-10.35Q495-120 505.5-109.65 516-99.3 516-84v48q0 15.3-10.289 25.65Q495.421 0 480.211 0ZM735-735q-11-11-11-25.667 0-14.666 11-25.333l34-34q11-11 25-10.5t25 11.022q11 11.478 11 26.145 0 14.666-11 25.333l-34 34q-11 11-25 10.5T735-735ZM141-140.522Q130-152 130-166.667q0-14.666 11-25.333l34-34q11-11 25-10.5t25 11.5q11 11 11 25.667 0 14.666-11 25.333l-34 34q-11 11-25 10.5t-25-11.022ZM876-444q-15.3 0-25.65-10.289-10.35-10.29-10.35-25.5Q840-495 850.35-505.5 860.7-516 876-516h48q15.3 0 25.65 10.289 10.35 10.29 10.35 25.5Q960-465 949.65-454.5 939.3-444 924-444h-48Zm-840 0q-15.3 0-25.65-10.289Q0-464.579 0-479.789 0-495 10.35-505.5 20.7-516 36-516h48q15.3 0 25.65 10.289 10.35 10.29 10.35 25.5Q120-465 109.65-454.5 99.3-444 84-444H36Zm784.478 303Q809-130 794.333-130q-14.666 0-25.333-11l-35-34q-11-11-10.5-25t11.5-25q11-11 25.667-11 14.666 0 25.333 11l34 34q11 11 11 25t-10.522 25ZM226-735q-11 11-25.667 11-14.666 0-25.333-11l-35-34q-11-11-10.5-25t11.022-25q11.478-11 26.145-11 14.666 0 25.333 11l34 34q11 10.636 11 24.818Q237-746 226-735Zm186 323Z"/></svg>