<svg xmlns="http://www.w3.org/2000/svg" height="20" viewBox="0 -960 960 960" width="20"><path d="M215.788-144Q186-144 165-165.212q-21-21.213-21-51Q144-246 165.212-267q21.213-21 51-21Q246-288 267-266.788q21 21.213 21 51Q288-186 266.788-165q-21.213 21-51 21ZM768-144q-20.312 0-33.984-15.438Q720.344-174.875 718-196q-9-104-53.007-194.253Q620.987-480.506 551-551q-70.494-69.987-160.747-113.993Q300-709 196-718q-21.125-2.367-36.562-16.172Q144-747.978 144-768.489 144-789 160.5-802.5 177-816 199-814q124 10 231.216 61.5 107.217 51.5 189 133.5Q701-537 752.5-430 804-323 814-199q2 22-11.424 38.5Q789.153-144 768-144Zm-240.294 0Q508-144 493.5-158.5 479-173 476-193q-8-55-32-103t-62-86q-38-38-86-62t-103-32q-20-3-34.5-17.459T144-528q0-20.367 14.5-33.683Q173-575 193-573q75 8 140.5 40T450-450q51 51 83 116.5T573-193q2 20-11.4 34.5T527.706-144Z"/></svg>