<svg xmlns="http://www.w3.org/2000/svg" height="20" viewBox="0 -960 960 960" width="20"><path d="M216-258q-17-8-27-26t-10-38v-194L75-568q-10-5-15-13.379-5-8.38-5-18.621 0-10.241 5-18.621Q65-627 75-632l336-168q7.579-4 15.579-6T443-808q8.421 0 16.421 2T475-800l381 190q9 5 14 13.233 5 8.234 5 17.767v255q0 14-11 25t-25.5 11q-14.5 0-25-11T803-324v-240l-96 48v194q0 20-9.5 37.5T670-258l-195 98q-8 4-15.795 5.5t-16 1.5Q435-153 427-154.5q-8-1.5-16-5.5l-195-98Zm227-207 271-135-271-135-271 135 271 135Zm0 239 192-95v-158l-157 78q-9 5-17.667 7-8.666 2-17.333 2-10 0-18.5-2t-16.5-7l-157-78v158l192 95Zm1-232Zm-1 116Zm0 0Z"/></svg>