<svg xmlns="http://www.w3.org/2000/svg" height="20" viewBox="0 -960 960 960" width="20"><path d="M384-336q-9.882 0-16.941-7.059Q360-350.118 360-360v-144q0-9.882 7.059-16.941Q374.118-528 384-528h24v-24q0-29 21.212-50.5 21.213-21.5 51-21.5Q510-624 531-602.5q21 21.5 21 50.5v24h24q9.882 0 16.941 7.059Q600-513.882 600-504v144q0 9.882-7.059 16.941Q585.882-336 576-336H384Zm60-192h72v-24q0-15.3-10.289-25.65-10.29-10.35-25.5-10.35Q465-588 454.5-577.65 444-567.3 444-552v24ZM120-192q-29.7 0-50.85-21.15Q48-234.3 48-264v-432q0-29.7 21.15-50.85Q90.3-768 120-768h720q29.7 0 50.85 21.15Q912-725.7 912-696v432q0 29.7-21.15 50.85Q869.7-192 840-192H120Zm48-72v-432h-48v432h48Zm72 0h480v-432H240v432Zm552 0h48v-432h-48v432ZM168-696h-48 48Zm624 0h48-48Z"/></svg>