<svg xmlns="http://www.w3.org/2000/svg" height="20" viewBox="0 -960 960 960" width="20"><path d="M298-180q-24.167 0-41.083-16.935Q240-213.871 240-238.065 240-255 249.5-269t25.5-22l133-57v-108q-37 33-82.5 54.5T229-374q-14.976 2-25.988-8.355Q192-392.709 192-407.855q0-15.145 9.83-25.733 9.83-10.588 25.021-12.353Q276-453 317-477.5t70-61.5q10-12 24.4-18.5 14.4-6.5 30.6-6.5h76q16.2 0 30.6 6.5Q563-551 573-539q29 37 69.5 60.5t88.625 31.5Q746-445 757-434.185t11 26.136q0 15.321-11 25.685Q746-372 731-374q-51-6-96.5-27.5T552-456v108l133 57q16 7 25.5 21.716 9.5 14.716 9.5 31.42Q720-214 703.083-197 686.167-180 662-180H396v-12q0-25 17.5-42.5T456-252h108q5.4 0 8.7-3.3 3.3-3.3 3.3-8.7 0-5.4-3.3-8.7-3.3-3.3-8.7-3.3H456q-35.28 0-59.64 24.36T372-192v12h-74Zm181.752-420Q445-600 420.5-624.748t-24.5-59.5Q396-719 420.748-743.5t59.5-24.5Q515-768 539.5-743.252t24.5 59.5Q564-649 539.252-624.5t-59.5 24.5Z"/></svg>