<svg xmlns="http://www.w3.org/2000/svg" height="20" viewBox="0 -960 960 960" width="20"><path d="M372-336h216q15 0 25.5-10.5T624-372q0-15-10.5-25.5T588-408H372q-15 0-25.5 10.5T336-372q0 15 10.5 25.5T372-336ZM480.276-96Q401-96 331-126q-70-30-122.5-82.5T126-330.958q-30-69.959-30-149.5Q96-560 126-629.5t82.5-122Q261-804 330.958-834q69.959-30 149.5-30Q560-864 629.5-834t122 82.5Q804-699 834-629.276q30 69.725 30 149Q864-401 834-331q-30 70-82.5 122.5T629.276-126q-69.725 30-149 30ZM480-480Zm0 312q130 0 221-91t91-221q0-130-91-221t-221-91q-130 0-221 91t-91 221q0 130 91 221t221 91ZM345-624q-23 0-44 9.5t-38.231 25.893Q252-578 254-563t15.2 23.4q12 7.6 26.4 5.6 14.4-2 27.4-10 5-3 10.447-5 5.448-2 11.5-2 6.053 0 12.553 2 6.5 2 11.5 5 13 8 27 10t25.905-6Q435-548 437.5-563t-8.5-26q-16.593-17-38.37-26-21.778-9-45.63-9Zm270 0q-22.657 0-44.328 9.5Q549-605 531.769-588.607 521-578 523-563t15 23q12 8 26.5 6t27.5-10q5.111-3 10.861-5 5.75-2 12.139-2 6 0 11.885 2 5.884 2 11.115 5 13 8 27 10t25.905-6Q704-548 707-563q3-15-7.769-26-17.231-17-38.877-26T615-624Z"/></svg>