<svg xmlns="http://www.w3.org/2000/svg" height="20" viewBox="0 -960 960 960" width="20"><path d="M84.048-432q-15.361 0-26.205-10.5Q47-453 49-467q6.86-83.26 43.116-155.746 36.256-72.485 94.07-125.869Q244-802 319.712-833q75.713-31 160.275-31 84.562 0 160.274 31t133.726 84.5Q832-695 868.086-622.588 904.173-550.176 911-467q2 14-8.843 24.5-10.844 10.5-26.205 10.5-14.458 0-25.301-10-10.844-10-12.651-25-14-137-115.5-231T480-792q-141 0-242.5 94T122-467q-1.807 15-12.651 25-10.843 10-25.3 10Zm143.9 0Q213-432 202.5-441.5T194-465q12-109 93-182t193-73q112 0 193 73t93 182q2 14-8.268 23.5t-25.446 9.5Q718-432 707-441q-11-9-13-23-11-78-72-131t-142-53q-81 0-142 53t-72 131q-2 14-12.991 23-10.992 9-25.061 9ZM480-167l-93.786 93.786Q375-62 361-62.5 347-63 336-74t-11-25q0-14 11-25l108-108v-111q-26-11-43-35t-17-54q0-40.32 27.775-68.16 27.774-27.84 68-27.84Q520-528 548-500.16q28 27.84 28 68.16 0 30-17 54t-43 35v111l108 108q11 11 11 25t-11 25q-11 11-25.5 11t-25.607-11.107L480-167Z"/></svg>