<svg xmlns="http://www.w3.org/2000/svg" height="20" viewBox="0 -960 960 960" width="20"><path d="M407.736-96Q378-96 357-117.15 336-138.3 336-168v-24L202-415q-5-8-7.5-17.5T192-452v-147.92q0-23.08 14-41.58t34-26.5v-124q0-29.7 21.5-50.85Q283-864 312-864h336q29 0 50.5 21.15T720-792v124q21 8 34.5 26.621Q768-622.759 768-600v148q0 10-2.5 19.5T758-415L624-192v24q0 29.7-21.176 50.85Q581.648-96 551.912-96H407.736ZM312-672h72v-48q0-9.6 7.2-16.8 7.2-7.2 16.8-7.2 9.6 0 16.8 7.2 7.2 7.2 7.2 16.8v48h96v-48q0-9.6 7.2-16.8 7.2-7.2 16.8-7.2 9.6 0 16.8 7.2 7.2 7.2 7.2 16.8v48h72v-120H312v120Zm96 504h144v-48l144-240v-144H264v144l144 240v48Zm72-288Z"/></svg>