<svg xmlns="http://www.w3.org/2000/svg" height="20" viewBox="0 -960 960 960" width="20"><path d="M576.212-360Q606-360 627-381.212q21-21.213 21-51Q648-462 626.85-483 605.7-504 576-504q-14.151 0-26.887 5.5T526-484l-119-58.821q0-2.179.5-4.679.5-2.5.5-4.5t-.5-4.5q-.5-2.5-.5-4.679L526-620q10.377 9 23.113 14.5Q561.849-600 576-600q29.7 0 50.85-21.212 21.15-21.213 21.15-51Q648-702 626.788-723q-21.213-21-51-21Q546-744 525-722.793q-21 21.208-21 50.988 0 1.805.5 4.305t.5 4.679L386-604q-10.377-9-23.113-14.5Q350.151-624 336-624q-29.7 0-50.85 21.212-21.15 21.213-21.15 51Q264-522 285.15-501q21.15 21 50.85 21 14.151 0 26.887-5.5T386-500l119 58.821q0 2.179-.5 4.679-.5 2.5-.5 4.305 0 29.78 21.212 50.988 21.213 21.207 51 21.207ZM240-240l-82.883 82.883Q140-140 118-149.406 96-158.812 96-183v-609q0-29.7 21.15-50.85Q138.3-864 168-864h624q29.7 0 50.85 21.15Q864-821.7 864-792v480q0 29.7-21.15 50.85Q821.7-240 792-240H240Zm-30-72h582v-480H168v522l42-42Zm-42 0v-480 480Z"/></svg>