<svg xmlns="http://www.w3.org/2000/svg" height="20" viewBox="0 -960 960 960" width="20"><path d="M120-48q-29.7 0-50.85-21.15Q48-90.3 48-120v-720q0-29.7 21.15-50.85Q90.3-912 120-912h720q29.7 0 50.85 21.15Q912-869.7 912-840v720q0 29.7-21.15 50.85Q869.7-48 840-48H120Zm525-216h-33q-15.3 0-25.65 10.289-10.35 10.29-10.35 25.5Q576-213 586.35-202.5 596.7-192 612-192h120q15.3 0 25.65-10.35Q768-212.7 768-228v-120q0-15.3-10.289-25.65-10.29-10.35-25.5-10.35Q717-384 706.5-373.65 696-363.3 696-348v33L582-429l-51 51 114 114Zm51-381v33q0 15.3 10.289 25.65 10.29 10.35 25.5 10.35Q747-576 757.5-586.35 768-596.7 768-612v-120q0-15.3-10.35-25.65Q747.3-768 732-768H612q-15.3 0-25.65 10.289-10.35 10.29-10.35 25.5Q576-717 586.35-706.5 596.7-696 612-696h33L203-254q-11 11-11 25.5t11 25.5q11 11 25 11.5t25-10.5l443-443ZM378-531l51-51-175-174q-10.667-11-25.333-11Q214-767 203-756q-11 11-11.5 25t10.5 25l176 175Z"/></svg>