<svg xmlns="http://www.w3.org/2000/svg" height="20" viewBox="0 -960 960 960" width="20"><path d="M167.736-288Q138-288 117-309.15 96-330.3 96-360v-240q0-29.7 21.15-50.85Q138.3-672 168-672h624q29.7 0 50.85 21.15Q864-629.7 864-600v240q0 29.7-21.077 50.85Q821.845-288 792.247-288 777-288 766.5-298.289q-10.5-10.29-10.5-25.5Q756-339 766.35-349.5 776.7-360 792-360v-240H168v240h179.724Q363-360 373.5-349.711q10.5 10.29 10.5 25.5Q384-309 373.637-298.5 363.275-288 347.956-288h-180.22Zm363.057-2.793L450-328q-5-2-5-8t5-8l80.793-37.207L568-462q2-5 8-5t8 5l37.207 80.793L702-344q5 2 5 8t-5 8l-80.793 37.207L584-210q-2 5-8 5t-8-5l-37.207-80.793Zm127.011-175.011L618-484q-5-2-5-8t5-8l39.804-18.196L676-558q2-5 8-5t8 5l18.196 39.804L750-500q5 2 5 8t-5 8l-39.804 18.196L692-426q-2 5-8 5t-8-5l-18.196-39.804Z"/></svg>