<svg xmlns="http://www.w3.org/2000/svg" height="20" viewBox="0 -960 960 960" width="20"><path d="M144-240q-20 0-34-14t-14-34q0-20 14-34t34-14h504q10.4 0 17.2 6.767 6.8 6.767 6.8 17.116v47.767q0 10.35-6.8 17.35-6.8 7-17.2 7H144Zm600 0q-10.4 0-17.2-6.767-6.8-6.767-6.8-17.116v-47.767q0-10.35 6.8-17.35 6.8-7 17.2-7 10.4 0 17.2 6.767 6.8 6.767 6.8 17.116v47.767q0 10.35-6.8 17.35-6.8 7-17.2 7Zm96 0q-10.4 0-17.2-6.767-6.8-6.767-6.8-17.116v-47.767q0-10.35 6.8-17.35 6.8-7 17.2-7 10.4 0 17.2 6.767 6.8 6.767 6.8 17.116v47.767q0 10.35-6.8 17.35-6.8 7-17.2 7Zm-96-144q-10.4 0-17.2-6.8-6.8-6.8-6.8-17.2v-48q0-30-21.231-51T648-528h-48q-50.149 0-85.075-34.895-34.925-34.894-34.925-85Q480-698 514.925-733q34.926-35 85.075-35 10.4 0 17.2 6.8 6.8 6.8 6.8 17.2 0 10.4-6.8 17.2-6.8 6.8-17.2 6.8-30 0-51 21t-21 51q0 30 21 51t51 21h48q50 0 85 35t35 85v48q0 10.4-6.8 17.2-6.8 6.8-17.2 6.8Zm96 0q-10.4 0-17.2-6.8-6.8-6.8-6.8-17.2v-50q0-69-49.5-117.5T648-624q-10.4 0-17.2-6.8-6.8-6.8-6.8-17.2 0-10.4 6.8-17.2 6.8-6.8 17.2-6.8 30 0 50.5-21.577t20.5-51Q719-774 697.892-795 676.784-816 648-816q-10.4 0-17.2-6.8-6.8-6.8-6.8-17.2 0-10.4 6.8-17.2 6.8-6.8 17.2-6.8 49.731 0 84.366 34.693Q767-794.614 767-744.798 767-719 757.5-696q-9.5 23-28.5 40 61 25 98 78.69 37 53.689 37 119.31v50q0 10.4-6.8 17.2-6.8 6.8-17.2 6.8Z"/></svg>