<svg xmlns="http://www.w3.org/2000/svg" height="20" viewBox="0 -960 960 960" width="20"><path d="M480.276-96Q401-96 331-126q-70-30-122.5-82.5T126-330.958q-30-69.959-30-149.5Q96-560 126-629.5t82.5-122Q261-804 330.958-834q69.959-30 149.5-30Q560-864 629.5-834t122 82.5Q804-699 834-629.276q30 69.725 30 149Q864-401 834-331q-30 70-82.5 122.5T629.276-126q-69.725 30-149 30ZM468-168l-26-35q-5-6.214-7.5-13.464T432-232v-200.03q-29.7 0-50.85-20.985Q360-474 360-504v-48L237-675q-32 41-50.5 90.199-18.5 49.198-18.5 105.02Q168-353 255-263t213 95Zm36-1q121-9 204.5-98T792-480q0-129.675-91.162-220.838Q609.675-792 480-792q-47 0-89.5 13T312-743v71h143q17 0 31.625 7.2T511-645l54.552 69H624q20.4 0 34.2 13.8Q672-548.4 672-528v33q0 7.56-2 14.28T663-468L504-240v71Z"/></svg>