<svg xmlns="http://www.w3.org/2000/svg" height="20" viewBox="0 -960 960 960" width="20"><path d="M275.789-384Q291-384 301.5-394.289q10.5-10.29 10.5-25.5Q312-435 301.711-445.5q-10.29-10.5-25.5-10.5Q261-456 250.5-445.711q-10.5 10.29-10.5 25.5Q240-405 250.289-394.5q10.29 10.5 25.5 10.5Zm0-132Q291-516 301.5-526.289q10.5-10.29 10.5-25.5Q312-567 301.711-577.5q-10.29-10.5-25.5-10.5Q261-588 250.5-577.711q-10.5 10.29-10.5 25.5Q240-537 250.289-526.5q10.29 10.5 25.5 10.5Zm0-132Q291-648 301.5-658.289q10.5-10.29 10.5-25.5Q312-699 301.711-709.5q-10.29-10.5-25.5-10.5Q261-720 250.5-709.711q-10.5 10.29-10.5 25.5Q240-669 250.289-658.5q10.29 10.5 25.5 10.5ZM420-384h168q15.3 0 25.65-10.289 10.35-10.29 10.35-25.5Q624-435 613.65-445.5 603.3-456 588-456H420q-15.3 0-25.65 10.289-10.35 10.29-10.35 25.5Q384-405 394.35-394.5 404.7-384 420-384Zm0-132h264q15.3 0 25.65-10.289 10.35-10.29 10.35-25.5Q720-567 709.65-577.5 699.3-588 684-588H420q-15.3 0-25.65 10.289-10.35 10.29-10.35 25.5Q384-537 394.35-526.5 404.7-516 420-516Zm0-132h264q15.3 0 25.65-10.289 10.35-10.29 10.35-25.5Q720-699 709.65-709.5 699.3-720 684-720H420q-15.3 0-25.65 10.289-10.35 10.29-10.35 25.5Q384-669 394.35-658.5 404.7-648 420-648ZM240-240l-82.883 82.883Q140-140 118-149.406 96-158.812 96-183v-609q0-29.7 21.15-50.85Q138.3-864 168-864h624q29.7 0 50.85 21.15Q864-821.7 864-792v480q0 29.7-21.15 50.85Q821.7-240 792-240H240Zm-30-72h582v-480H168v522l42-42Zm-42 0v-480 480Z"/></svg>