<svg xmlns="http://www.w3.org/2000/svg" height="20" viewBox="0 -960 960 960" width="20"><path d="M304-96q-27.377 0-47.688-18Q236-132 232-159l-83-665q-2-16.364 8.5-28.182Q168-864 184.865-864h590.27Q792-864 802.5-852.182T811-824l-83 665q-4 27-24.252 45-20.251 18-47.547 18H304Zm-63-576h132q20-22 47.698-35 27.699-13 59.5-13Q512-720 539.5-707t47.5 35h131.762L734-792H226l15 120Zm239.212 168Q510-504 531-525.212q21-21.213 21-51Q552-606 530.788-627q-21.213-21-51-21Q450-648 429-626.788q-21 21.213-21 51Q408-546 429.212-525q21.213 21 51 21ZM250-600l53 432h354l53-432h-88q.8 6.207 1.4 12.103Q624-582 624-576q0 60-42 102t-102 42q-60 0-102-42t-42-102q0-6 .6-11.897.6-5.896 1.4-12.103h-88Zm53 432h35-2 288-2 35-354Z"/></svg>