<svg xmlns="http://www.w3.org/2000/svg" height="20" viewBox="0 -960 960 960" width="20"><path d="M384-696h72v-72h-72v72Zm144 0v-72h72v72h-72ZM384-408v-72h72v72h-72Zm288-144v-72h72v72h-72Zm0 144v-72h72v72h-72Zm-144 0v-72h72v72h-72Zm144-288v-72h72v72h-72Zm-216 72v-72h72v72h-72ZM276.211-192Q261-192 250.5-202.344 240-212.689 240-227.981v-503.727Q240-747 250.289-757.5q10.29-10.5 25.5-10.5 15.211 0 25.594 10.35 10.384 10.35 10.384 25.65v36H384v72h-72v71.948h72v71.947h-72v251.816Q312-213 301.711-202.5q-10.29 10.5-25.5 10.5ZM600-480v-72h72v72h-72Zm-144 0v-72h72v72h-72Zm-72-72v-72h72v72h-72Zm144 0v-72h72v72h-72Zm72-72v-72h72v72h-72Z"/></svg>