<svg xmlns="http://www.w3.org/2000/svg" height="20" viewBox="0 -960 960 960" width="20"><path d="M336-216h264v-384h-82q-27 0-47 18t-38 38q-26 29-50 45.5T336-474v258Zm-72 0v-255q-53-10-86.5-52.6T144-623q0-46 28.5-84t75.148-54Q270-809 311.5-836.5t91.065-27.5Q433-864 461-854q28 10 51 29 8-2 15-2.5t17.857-.5Q610-828 655.5-782.5T701-672q0 19.8-4.5 37.8-4.5 18-13.5 34.2h61q29.7 0 50.85 21.15Q816-557.7 816-528v240q0 29.7-21.116 50.85Q773.768-216 744.116-216h-71.884q0 29.7-21.116 50.85Q630-144 600-144H336q-29.7 0-50.85-21.15Q264-186.3 264-216Zm-48-407q0 35 22.5 59t56.5 24q20 0 41-14t50-46q32-36 65-54t67-18h111q0-35-24.675-59.5T545-756q-13 0-26.5 3T488-742l-7-10q-14-20-33.5-30T403-792q-35 0-62.5 23.5T308-709l-1 7-30 8q-26 7-43.5 27.5T216-623Zm456 335h72v-240h-72v240Zm-336 72h264-264Z"/></svg>