<svg xmlns="http://www.w3.org/2000/svg" height="20" viewBox="0 -960 960 960" width="20"><path d="m864-198-72-72v-282H510l-72-72h354q29 0 50.5 21.5T864-552v354ZM270-792l-72-72h354q29 0 50.5 21.5T624-792v96h-72v-96H270Zm381 381ZM408-168h282L408-450v282Zm0 72q-30 0-51-21t-21-51v-354L168-690v282h96v72h-96q-30 0-51-21t-21-51v-354l-16-16q-11-10.667-10.5-25.333Q70-818 81-829q11-11 25.667-11 14.666 0 25.333 11l696.747 697.746Q840-120 840-105.818T829-81q-10.667 11-25.333 11Q789-70 778-81l-16-15H408Zm141-213Z"/></svg>