<svg xmlns="http://www.w3.org/2000/svg" height="20" viewBox="0 -960 960 960" width="20"><path d="M144-700.7v-86.4q0-9.9 8.517-15.4T170-803l86.038 43.472Q266-755 266-744t-9.957 15.569l-85.991 43.862Q161-680 152.5-685.4t-8.5-15.3Zm576 0v-86.4q0-9.9 8.517-15.4T746-803l86.038 43.472Q842-755 842-744t-9.957 15.569l-85.991 43.862Q737-680 728.5-685.4t-8.5-15.3Zm-288-48v-86.4q0-9.9 8.517-15.4T458-851l86.038 43.472Q554-803 554-792t-9.957 15.569l-85.991 43.862Q449-728 440.5-733.4t-8.5-15.3ZM400.345-97Q270-105 183-139t-87-76.584V-564q0-22.794 29.5-42.397Q155-626 206.5-640.5t122-23Q399-672 480-672t151.126 8.404q70.126 8.404 122 23Q805-626 834.5-606.397 864-586.794 864-564v348.444Q864-172 776.5-138.5T558.711-97q-13.029 1-21.87-8.083Q528-114.167 528-127v-137h-96v136q0 12.88-9.31 22.44Q413.379-96 400.345-97ZM480-528q89 0 157.5-8.5T749-562q-13-14-96-26t-173-12q-93 0-174.5 11.5T211-562q43 17 111.5 25.5T480-528ZM360-173v-78.841Q360-287 384.675-311.5T444-336h72q34.65 0 59.325 24.675Q600-286.65 600-252v79q59-6 111.5-21t80.5-34v-273q-54 22-134.948 33.5-80.948 11.5-177.5 11.5T302.5-467.5Q222-479 168-501v273q26 18 80 33.5T360-173Zm120-161Z"/></svg>