<svg xmlns="http://www.w3.org/2000/svg" height="20" viewBox="0 -960 960 960" width="20"><path d="M476-192q-50 0-85-35t-35-85q0-50 35-85t85-35q50 0 85 35t35 85q0 50-35 85t-85 35Zm178-360q-29-44-75.53-70-46.529-26-103.731-26Q409-648 356.5-612.5T278-519q-7 16-19.5 27.5T229-480q-16 0-23.5-14.185T203-525q29-87 103.5-141T475-720q65.589 0 121.294 27Q652-666 692-621v-63q0-15.3 10.289-25.65 10.29-10.35 25.5-10.35Q743-720 753.5-709.65 764-699.3 764-684v168q0 15.3-10.35 25.65Q743.3-480 728-480H560q-15.3 0-25.65-10.289-10.35-10.29-10.35-25.5Q524-531 534.35-541.5 544.7-552 560-552h94Z"/></svg>