<svg xmlns="http://www.w3.org/2000/svg" height="20" viewBox="0 -960 960 960" width="20"><path d="M486-196q-57.812 0-106.906-29.5Q330-255 303.65-307.111 296-322 302.067-337.909 308.133-353.818 324-362q17-8 34.384-1.902 17.383 6.098 27.19 22.984 16.046 28.145 43.236 45.031Q456-279 487.899-279 528-279 557-305t29-64.613Q586-388 598.559-400.5t30.5-12.5Q647-413 660-400.4t13 30.6v10.8q0 71.539-56.19 117.269Q560.62-196 486-196ZM132-484q-15.3 0-25.65-10.289Q96-504.579 96-519.789 96-535 106.35-545.5 116.7-556 132-556h696q15.3 0 25.65 10.289 10.35 10.29 10.35 25.5Q864-505 853.65-494.5 843.3-484 828-484H132Zm207-151q-16-9-20-26t5-33q23-41 65.5-59.5t90.147-18.5Q522-772 559.5-757.5 597-743 623-711q11 13 8.5 29T616-655q-14 11-32 9.5t-31.034-15.561Q539-676 520.5-684t-38.5-8q-26 0-48.5 10T399-650q-9 16-26.5 20t-33.5-5Z"/></svg>