<svg xmlns="http://www.w3.org/2000/svg" height="20" viewBox="0 -960 960 960" width="20"><path d="M168-144q-29 0-50.5-21.5T96-216v-432q0-29 21.5-50.5T168-720h120l50-67q11-14 26.177-21.5T396-816h168.182Q581-816 596-808.5t26 21.5l50 67h120q29.7 0 50.85 21.5Q864-677 864-648v432q0 29-21.15 50.5T792-144H168Zm0-72h624v-432H636l-72.099-96H396l-72 96H168v432Zm312-217Zm-102 37h204l-32 32q-11 11-11 25.5t11 25.5q11 11 25.5 11t25.5-11l94.138-94.138Q706-418 706-432.182T695-457l-94-94q-11-11-25-11t-25 11q-11 11-11 25.5t11 25.5l31 32H378l32-32q11-11 11-25.667 0-14.666-11-25.333-11-11-25.5-11T359-551l-94.138 94.138Q254-446 254-431.818T265-407l94 94q11 11 25.5 10.5T410-314q11-11 11-25.5T410-365l-32-31Z"/></svg>