<svg xmlns="http://www.w3.org/2000/svg" height="20" viewBox="0 -960 960 960" width="20"><path d="M528-744q-57 49-88.5 117.5T408-482q0 87.724 41.5 164.362Q491-241 566-193q13 8.229 18.5 22.4t-2.5 27.886Q574-129 559-126q-15 3-28-4.761Q440-188 388-280.817 336-373.635 336-482q0-89 36.5-169.5T475-792H372q-15.3 0-25.65-10.289-10.35-10.29-10.35-25.5Q336-843 346.35-853.5 356.7-864 372-864h192q15.3 0 25.65 10.35Q600-843.3 600-828v192q0 15.3-10.289 25.65-10.29 10.35-25.5 10.35Q549-600 538.5-610.35 528-620.7 528-636v-108Z"/></svg>