<svg xmlns="http://www.w3.org/2000/svg" height="20" viewBox="0 -960 960 960" width="20"><path d="M564.283-144Q549-144 538.5-154.289q-10.5-10.29-10.5-25.5Q528-195 538.338-205.5 548.677-216 563.96-216h215.757Q795-216 805.5-205.711q10.5 10.29 10.5 25.5Q816-165 805.662-154.5 795.323-144 780.04-144H564.283ZM235-600h125v-144h-77l-48 144Zm449.211 336Q669-264 658.5-274.35 648-284.7 648-300v-324q0-10.2-6.9-17.1-6.9-6.9-17.1-6.9H432v96q0 10.2-6.9 17.1-6.9 6.9-17.1 6.9H168q-12 0-19.5-10t-3.5-22l69-207q8-22 26.571-35.5Q259.143-816 282-816h78q29.7 0 50.85 21.15Q432-773.7 432-744v24h192q40 0 68 28t28 68v324q0 15.3-10.289 25.65-10.29 10.35-25.5 10.35ZM235-600h125-125Z"/></svg>