<svg xmlns="http://www.w3.org/2000/svg" height="20" viewBox="0 -960 960 960" width="20"><path d="M228-240q-15.3 0-25.65-10.289-10.35-10.29-10.35-25.5Q192-291 202.35-301.5 212.7-312 228-312h504q15.3 0 25.65 10.289 10.35 10.29 10.35 25.5Q768-261 757.65-250.5 747.3-240 732-240H228Zm89.174-185.836L438-747q4-10 11.968-15.5Q457.935-768 468-768h24.5q10.5 0 18.5 5.5t12 15.5l120 321q6 15.191-2.5 28.596Q632-384 615.241-384q-10.241 0-18.666-5.688-8.424-5.687-11.971-15.312L558-482H402.886L375-404q-3 9-11.062 14.5-8.063 5.5-17.917 5.5Q329-384 320-397.5t-2.826-28.336ZM422-538h116l-55.529-158H479l-57 158Z"/></svg>