<svg xmlns="http://www.w3.org/2000/svg" height="20" viewBox="0 -960 960 960" width="20"><path d="M684-204.252h-72q-15.3 0-25.65-10.374Q576-225 576-240.234t10.35-25.539q10.35-10.305 25.65-10.305h72v-71.688Q684-363 694.289-373.5q10.29-10.5 25.5-10.5 15.211 0 25.585 10.35T755.748-348v72h72.168q15.336 0 25.71 10.35T864-240q0 15.3-10.374 25.65Q843.252-204 827.916-204h-72.168v72q0 15.3-10.374 25.65Q735-96 720-96q-15.3 0-25.65-10.374Q684-116.748 684-132.084v-72.168Zm-530.182 50.48q-10-10.035-10.909-24.632Q142-193 155.102-206.102L755-806q13-13 27-11.5t24.083 11.482q10.084 9.981 11 24.499Q818-767 805-754L205.082-154.102Q192-141 177.909-142.368q-14.091-1.369-24.091-11.404Zm0-288q-10-10.035-10.909-24.632Q142-481 155.106-494.106l310.788-310.788Q479-818 493.116-816.634q14.116 1.366 24.134 11.384t11.384 24.134Q530-767 516.892-753.892L205.108-442.108Q192-429 177.909-430.368q-14.091-1.369-24.091-11.404Zm21.307-268.353Q167-702 155.5-706.062 144-710.125 144-721.5V-780q0-15.3 10.35-25.65Q164.7-816 180-816h58.5q11.375 0 15.438 11.5 4.062 11.5-4.063 19.625l-74.75 74.75ZM780.211-457Q765-457 754.5-467.289q-10.5-10.29-10.5-25.5Q744-508 754.5-518.5 765-529 780.211-529q15.21 0 25.5 10.5Q816-508 816-492.789q0 15.21-10.289 25.5Q795.421-457 780.211-457Zm-312 313Q453-144 442.5-154.289q-10.5-10.29-10.5-25.5Q432-195 442.5-205.5 453-216 468.211-216q15.21 0 25.5 10.5Q504-195 504-179.789q0 15.21-10.289 25.5Q483.421-144 468.211-144Z"/></svg>