<svg xmlns="http://www.w3.org/2000/svg" height="20" viewBox="0 -960 960 960" width="20"><path d="M744-519 425-201q-11 11-25 11t-25-11q-11-11-11-25.5t11-25.5l318-318h-11q-15.3 0-25.65-10.289-10.35-10.29-10.35-25.5Q646-621 656.35-631.5 666.7-642 682-642h98q15.3 0 25.65 10.35Q816-621.3 816-606v97q0 15.3-10.289 25.65-10.29 10.35-25.5 10.35Q765-473 754.5-483.35 744-493.7 744-509v-10Zm-396 19 39.886 84Q393-406 391-395.5T381-377q-13 13-31 10t-25.863-19.692L164.914-738.199Q160-749 162-760q2-11 10-19l19.286-19.286Q199-806 210-808.5q11-2.5 21.793 2.393l352.245 160.496Q601-637.782 604-620.167q3 17.616-10 30.338Q586-582 575.095-580q-10.905 2-21.811-2.976L471-623 348-500Zm-28-60 91-91-171-82-3 3 83 170Z"/></svg>