<svg xmlns="http://www.w3.org/2000/svg" height="20" viewBox="0 -960 960 960" width="20"><path d="M743.789-660Q759-660 769.5-670.289q10.5-10.29 10.5-25.5Q780-711 769.711-721.5q-10.29-10.5-25.5-10.5Q729-732 718.5-721.711q-10.5 10.29-10.5 25.5Q708-681 718.289-670.5q10.29 10.5 25.5 10.5Zm-144 0Q615-660 625.5-670.289q10.5-10.29 10.5-25.5Q636-711 625.711-721.5q-10.29-10.5-25.5-10.5Q585-732 574.5-721.711q-10.5 10.29-10.5 25.5Q564-681 574.289-670.5q10.29 10.5 25.5 10.5Zm73.346 84q-25.865 0-49.5 9.5T585-536q-8 10 0 21t25 11h127q15 0 22.5-11t-.5-21q-15-20-37.5-30t-48.365-10ZM288-96q-100 0-170-70T48-336v-216q0-29.7 21.737-50.85Q91.475-624 122-624h334q29.7 0 50.85 21.15Q528-581.7 528-552v216q0 100-70 170T288-96Zm0-72q70 0 119-49t49-119v-216H120v216q0 70 49 119t119 49Zm624-624v218q0 101.15-70 169.575Q772-336 672-336q-16.32 0-32.16-1.5Q624-339 609.5-344T588-362.333q-7-13.334-2-27.556 5-14.222 18.452-21.167Q617.905-418 632-413q11 2.5 21 3.75t21 1.25q68.906 0 117.453-48.5T840-574v-218H504v84q0 15.3-10.289 25.65-10.29 10.35-25.5 10.35Q453-672 442.5-682.35 432-692.7 432-708v-84q0-29.7 21.15-50.85Q474.3-864 504-864h336q29.7 0 50.85 21.15Q912-821.7 912-792ZM215.789-420Q231-420 241.5-430.289q10.5-10.29 10.5-25.5Q252-471 241.711-481.5q-10.29-10.5-25.5-10.5Q201-492 190.5-481.711q-10.5 10.29-10.5 25.5Q180-441 190.289-430.5q10.29 10.5 25.5 10.5Zm144 0Q375-420 385.5-430.289q10.5-10.29 10.5-25.5Q396-471 385.711-481.5q-10.29-10.5-25.5-10.5Q345-492 334.5-481.711q-10.5 10.29-10.5 25.5Q324-441 334.289-430.5q10.29 10.5 25.5 10.5Zm-70.94 156Q315-264 337.5-274q22.5-10 37.5-30 8-10 .5-21T353-336H226q-17 0-25 11t0 21q15 21 38.349 30.5 23.349 9.5 49.5 9.5ZM282-344Zm389-273Z"/></svg>