<svg xmlns="http://www.w3.org/2000/svg" height="20" viewBox="0 -960 960 960" width="20"><path d="M240-216h240v-48H240v48Zm32.973-339h167.838q11.189 0 19.689-8.357t8.5-19.5q0-11.143-8.392-19.643t-19.581-8.5H273.189Q262-611 253.5-602.643t-8.5 19.5q0 11.143 8.392 19.643t19.581 8.5Zm0-93h167.838q11.189 0 19.689-8.357t8.5-19.5q0-11.143-8.392-19.643t-19.581-8.5H273.189Q262-704 253.5-695.643t-8.5 19.5q0 11.143 8.392 19.643t19.581 8.5ZM624-504v-72h48v-96h-48v-72h48q29.7 0 50.85 21.15Q744-701.7 744-672v12h132q15.3 0 25.65 10.289 10.35 10.29 10.35 25.5Q912-609 901.65-598.5 891.3-588 876-588H744v12q0 29.7-21.15 50.85Q701.7-504 672-504h-48ZM480-336h-72v-168h144v-240H240q-29.7 0-50.85 21.15Q168-701.7 168-672v96q0 29.7 21.15 50.85Q210.3-504 240-504h72v168h-72v-96q-60 0-102-42T96-576v-96q0-60 42-102t102-42h312q29.7 0 50.85 21.15Q624-773.7 624-744v240q0 29.7-21.15 50.85Q581.7-432 552-432h-72v96ZM216-144q-20 0-34-14t-14-34v-96q0-24 22.5-36t49.5-12h264q20 0 34 14t14 34v96q0 20-14 34t-34 14H216Zm147-486Zm117 414H240h240Z"/></svg>