<svg xmlns="http://www.w3.org/2000/svg" height="20" viewBox="0 -960 960 960" width="20"><path d="M464-96q-24 0-45-10t-37-28L177-372q-9-11-8.5-25t10.5-24l5-5q15-15 36-20t41 3l75 30v-319q0-15.3 10.289-25.65 10.29-10.35 25.5-10.35Q387-768 397.5-757.65 408-747.3 408-732v372q0 19-15.5 29.5T359-327l-72-28 150 175q5.226 5.6 12.194 8.8Q456.161-168 464-168h160q29.7 0 50.85-21.15Q696-210.3 696-240v-170q0-10-7.475-16T670-432H515.658Q501-432 490.5-442.289q-10.5-10.29-10.5-25.5Q480-483 490.35-493.5 500.7-504 516-504h154q40 0 69 27t29 67v170q0 60-42 102T624-96H464Zm28-240Zm26-252q-15 0-26-10.35T481-624q0-3 5-19 8-14 13-30.5t5-34.5q0-55-38.5-93.5T372-840q-55 0-93.5 38.5T240-708q0 18 5 34.5t13 30.5q2 4 3.5 9t1.5 10q0 15.3-10.5 25.65Q242-588 227-588q-11 0-19-5.5T195-607q-13-23-20-48t-7-52.736Q168-793 227.74-852.5q59.741-59.5 144.5-59.5 84.76 0 144.26 59.67Q576-792.66 576-708q0 28-7 53t-20 48q-5 8-12.5 13.5T518-588Z"/></svg>