<svg xmlns="http://www.w3.org/2000/svg" height="20" viewBox="0 -960 960 960" width="20"><path d="M576-288q-69 0-121.5-44t-66.757-112H180q-15.3 0-25.65-10.289-10.35-10.29-10.35-25.5Q144-495 154.35-505.5 164.7-516 180-516h207.904q5.096-23 14.419-44.404Q411.645-581.807 427-600H276q-15.3 0-25.65-10.289-10.35-10.29-10.35-25.5Q240-651 250.35-661.5 260.7-672 276-672h300q79.68 0 135.84 56.226t56.16 136Q768-400 711.84-344T576-288Zm0-72q50 0 85-35t35-85q0-50-35-85t-85-35q-50 0-85 35t-35 85q0 50 35 85t85 35Zm-274 72q-15.3 0-25.65-10.289-10.35-10.29-10.35-25.5Q266-339 276.35-349.5 286.7-360 302-360h46q15.3 0 25.65 10.289 10.35 10.29 10.35 25.5Q384-309 373.65-298.5 363.3-288 348-288h-46Zm274-192Z"/></svg>