<svg xmlns="http://www.w3.org/2000/svg" height="20" viewBox="0 -960 960 960" width="20"><path d="M480.222-360Q535-360 573.5-398.722q38.5-38.722 38.5-93.5T573.278-585.5q-38.722-38.5-93.5-38.5T386.5-585.278q-38.5 38.722-38.5 93.5t38.722 93.278q38.722 38.5 93.5 38.5ZM444-144.233h-36q-15.3 0-25.65-10.384Q372-165 372-180.191q0-15.192 10.35-25.469 10.35-10.276 25.65-10.276h36V-291q-72.8-12.971-120.4-69.485Q276-417 276-492q0-33 10.5-64t31.5-59l-27-27-26 26q-11 11-25 10.5T215-617q-11-11-11-25.667 0-14.666 11-25.333l25-25-72-72v56.883q0 15.35-10.289 25.734Q147.421-672 132.211-672 117-672 106.5-682.334 96-692.668 96-707.945v-143.779Q96-867 106.334-877.5t25.611-10.5h143.779Q291-888 301.5-877.711q10.5 10.29 10.5 25.5Q312-837 301.617-826.5 291.233-816 275.883-816H219l72 72 26-26q11-11 25.667-11 14.666 0 25.333 11 11 11 11 25.667 0 14.666-11 25.333l-26 26 29 29q23.734-16.41 51.863-24.205Q450.992-696 480-696q30 0 58 8t51 24l152-152h-56.883q-15.35 0-25.734-10.289Q648-836.579 648-851.789 648-867 658.334-877.5q10.334-10.5 25.611-10.5h143.779Q843-888 853.5-877.666t10.5 25.611v143.779Q864-693 853.711-682.5q-10.29 10.5-25.5 10.5Q813-672 802.5-682.383 792-692.767 792-708.117V-765L642-615q21 28 31.5 58.5T684-492q0 75-47.6 131.515Q588.8-303.971 516-291v75.064h36q15.3 0 25.65 10.276Q588-195.383 588-180.191q0 15.191-10.35 25.574-10.35 10.384-25.65 10.384h-36v36.116q0 15.35-10.35 25.734Q495.3-72 480-72q-15.3 0-25.65-10.383Q444-92.767 444-108.118v-36.116Z"/></svg>