<svg xmlns="http://www.w3.org/2000/svg" height="20" viewBox="0 -960 960 960" width="20"><path d="M529-479 364-313q-11 11-25 11t-25-11q-11-11-11-25.5t11-25.5l165-165H349q-15.3 0-25.65-10.289-10.35-10.29-10.35-25.5Q313-580 323.35-590.5 333.7-601 349-601h216q15.3 0 25.65 10.35Q601-580.3 601-565v216q0 15.3-10.289 25.65-10.29 10.35-25.5 10.35Q550-313 539.5-323.35 529-333.7 529-349v-130Zm-13-265q-15.3 0-25.65-10.289-10.35-10.29-10.35-25.5Q480-795 490.35-805.5 500.7-816 516-816h228q29.7 0 50.85 21.15Q816-773.7 816-744v228q0 15.3-10.289 25.65-10.29 10.35-25.5 10.35Q765-480 754.5-490.35 744-500.7 744-516v-228H516ZM216-144q-29.7 0-50.85-21.15Q144-186.3 144-216v-564q0-15.3 10.289-25.65 10.29-10.35 25.5-10.35Q195-816 205.5-805.65 216-795.3 216-780v564h564q15.3 0 25.65 10.289 10.35 10.29 10.35 25.5Q816-165 805.65-154.5 795.3-144 780-144H216Z"/></svg>