<svg xmlns="http://www.w3.org/2000/svg" height="20" viewBox="0 -960 960 960" width="20"><path d="M168-192q-29 0-50.5-21.5T96-264v-432q0-29.7 21.5-50.85Q139-768 168-768h624q29 0 50.5 21.15T864-696v152q0 15.3-10.289 25.65-10.29 10.35-25.5 10.35Q813-508 802.5-518.35 792-528.7 792-544v-67L497.918-442.7Q493-440 489-436q-4 4-9 4t-9.5-4q-4.5-4-9.401-6.7L168-611v347h300q15.3 0 25.65 10.289 10.35 10.29 10.35 25.5Q504-213 493.65-202.5 483.3-192 468-192H168Zm312-325 312-179H168l312 179ZM168-264v-231 3-175.825.825-29 29-1 404ZM767.774-48Q688-48 632-104.226t-56-136Q576-320 632.226-376t136-56Q848-432 904-375.774t56 136Q960-160 903.774-104t-136 56ZM696-216h144q9.6 0 16.8-7.2 7.2-7.2 7.2-16.8 0-9.6-7.2-16.8-7.2-7.2-16.8-7.2H696q-9.6 0-16.8 7.2-7.2 7.2-7.2 16.8 0 9.6 7.2 16.8 7.2 7.2 16.8 7.2Z"/></svg>