<svg xmlns="http://www.w3.org/2000/svg" height="20" viewBox="0 -960 960 960" width="20"><path d="M732.211-288Q717-288 706.5-298.289q-10.5-10.29-10.5-25.5Q696-339 706.289-349.5q10.29-10.5 25.5-10.5Q747-360 757.5-349.711q10.5 10.29 10.5 25.5Q768-309 757.711-298.5q-10.29 10.5-25.5 10.5ZM780-432h-48q-15.3 0-25.65-10.289-10.35-10.29-10.35-25.5Q696-483 706.35-493.5 716.7-504 732-504h48q15.3 0 25.65 10.289 10.35 10.29 10.35 25.5Q816-453 805.65-442.5 795.3-432 780-432Zm48-144h-96q-15.3 0-25.65-10.289-10.35-10.29-10.35-25.5Q696-627 706.35-637.5 716.7-648 732-648h96q15.3 0 25.65 10.552 10.35 10.551 10.35 25.5Q864-597 853.65-586.5T828-576ZM316-96q-13.176 0-22.588-7.5T281-123l-41-165q-44-33-70-82.5T144-480q0-60 26.5-109.5T242-672l39-164q3-12 12.412-20T316-864h136q13.176 0 22.588 8T487-836l39 164q45 33 71.5 82.5T624-480q0 60-26 109.5T528-288l-41 165q-3 12-12.412 19.5T452-96H316Zm68.198-216Q454-312 503-361.198t49-119Q552-550 502.802-599t-119-49Q314-648 265-598.802t-49 119Q216-410 265.198-361t119 49ZM325-712q14-4 28.8-6t30-2q15.2 0 29.7 2t28.5 6l-19-80h-78l-20 80Zm20 544h78l21-80q-14 4-29.196 6-15.197 2-30.804 2-16 0-30.5-2t-28.5-6l20 80Zm-20-624h117-117Zm20 624h-20 119-99Z"/></svg>