<svg xmlns="http://www.w3.org/2000/svg" height="20" viewBox="0 -960 960 960" width="20"><path d="M264-168v-384 384-17.25V-168Zm96-456h240v-96q0-50-35-85t-85-35q-50 0-85 35t-35 85v96ZM264-96q-29.7 0-50.85-21.15Q192-138.3 192-168v-384q0-29.7 21.15-50.85Q234.3-624 264-624h24v-96q0-79.68 56.226-135.84t136-56.16Q560-912 616-855.84T672-720v96h24q29.7 0 50.85 21.15Q768-581.7 768-552v108q0 18-11.25 27T732-408q-13.5 0-24.75-9T696-444v-108H264v384h300q18 0 27 11.25t9 24.75q0 13.5-9 24.75T564-96H264Zm504.225 0Q728-96 700-123.84q-28-27.84-28-68.16 0-18 6.5-34.5T696-256l52-58q8.229-9 20.114-9Q780-323 788-314l52 58q11 13 17.5 29.5T864-192q0 40.32-27.775 68.16-27.774 27.84-68 27.84ZM480.212-288Q510-288 531-309.212q21-21.213 21-51Q552-390 530.788-411q-21.213-21-51-21Q450-432 429-410.788q-21 21.213-21 51Q408-330 429.212-309q21.213 21 51 21Z"/></svg>