<svg xmlns="http://www.w3.org/2000/svg" height="20" viewBox="0 -960 960 960" width="20"><path d="m278-367 25 199h354l27-216h-7.66Q644-384 616-389.5T546-407q-22-7-44.667-10-22.666-3-45.333-3-48.205 0-93.103 13.5Q318-393 278-367Zm-9-78q43-23 90.199-35 47.2-12 95.801-12 28.652 0 56.826 4.5T567-475q31 9 58.5 14t50.5 5h17l41-336H226l43 347Zm35.125 349Q277-96 256.5-114T232-159l-78-624q-4-31.854 18-56.427T226-864h508q32 0 54 24.573T806-783l-78 624q-4 27-24.5 45t-47.625 18h-351.75ZM303-168h354-354Z"/></svg>