<svg xmlns="http://www.w3.org/2000/svg" height="20" viewBox="0 -960 960 960" width="20"><path d="M744-114 390-467q-31 8-59 21t-54 30q-17 12-38 11.5T204-419q-14-14-13-34t17-32q24-18 50.5-33t55.5-26L205-653q-26 14-51 30t-48 35q-17 13-37.5 13T34-589q-14-14-13-34t17-33q23-19 47-35.5t50-31.5l-20-20q-11-11-11-25.5t11-25.5q11-11 25.5-11t25.5 11l629 629q11 11 10.5 25.5T794-114q-11 11-25 11t-25-11Zm-264-30q-40 0-68-28t-28-68q0-40 28-68t68-28q40 0 68 28t28 68q0 40-28 68t-68 28Zm276-276q-14 14-34.5 14.5T684-416q-19-13-38.5-23T604-457L486-575q74 1 141 24t123 64q17 12 18.5 32.5T756-420Zm170-169q-14 14-34.5 14.5T855-587q-78-63-173-98t-202-35q-32 0-63.5 3.5T355-706l-79-79q48-15 99-23t105-8q126 0 238 42t203 117q16 13 17.5 33.5T926-589Z"/></svg>