<svg xmlns="http://www.w3.org/2000/svg" height="20" viewBox="0 -960 960 960" width="20"><path d="M180-144q-15 0-24-12.5t-7-28.5q6-44 19.5-118t36-145Q227-519 258-571.5t72-52.5q46 0 79.5 64.5T466-412q9-70 22.5-142t33-130q19.5-58 46.5-95t62-37q53 0 87 78t54.5 182.5q20.5 104.5 30 210T814-185q1 16-8.5 28.5T780-144q-16 0-27.5-9.5T736-178q-18-65-49.5-123.5T630-360q-25 0-56 56.5T525-182q-5 16-16.5 27T480-144q-17 0-28-12.5T439-186q-10-68-23.5-129T387-424q-15-48-30-80.5T330-549q-13 12-28 44.5T272.5-424q-14.5 48-28 109T221-186q-2 17-13 29.5T180-144Zm352-227q20-27 44.5-44t53.5-17q29 0 53.5 17t44.5 44q-17-149-44.5-249.5T630-742q-26 21-53.5 121.5T532-371Z"/></svg>