<svg xmlns="http://www.w3.org/2000/svg" height="20" viewBox="0 -960 960 960" width="20"><path d="M216-144q-29.7 0-50.85-21.15Q144-186.3 144-216v-528q0-29.7 21.15-50.85Q186.3-816 216-816h528q29.7 0 50.85 21.15Q816-773.7 816-744v528q0 29.7-21.15 50.85Q773.7-144 744-144H216Zm0-72h528v-456H216v456Zm108-265q-15.3 0-25.65-10.289-10.35-10.29-10.35-25.5Q288-532 298.35-542.5 308.7-553 324-553h312q15.3 0 25.65 10.289 10.35 10.29 10.35 25.5Q672-502 661.65-491.5 651.3-481 636-481H324Zm0 145q-15.3 0-25.65-10.289-10.35-10.29-10.35-25.5Q288-387 298.35-397.5 308.7-408 324-408h168q15.3 0 25.65 10.289 10.35 10.29 10.35 25.5Q528-357 517.65-346.5 507.3-336 492-336H324Z"/></svg>