<svg xmlns="http://www.w3.org/2000/svg" height="20" viewBox="0 -960 960 960" width="20"><path d="M324-540q-15.3 0-25.65-10.289-10.35-10.29-10.35-25.5Q288-591 298.35-601.5 308.7-612 324-612h120q15.3 0 25.65 10.289 10.35 10.29 10.35 25.5Q480-561 469.65-550.5 459.3-540 444-540H324Zm60.035 204Q284-336 214-406t-70-170q0-100 70-170t170-70q100 0 170 70t70 170.035q0 40.381-12.5 76.173T577-434l214 214q11 11 11 25t-11 25q-11 11-25.5 11T740-170L526-383q-30 22-65.792 34.5T384.035-336ZM384-408q70 0 119-49t49-119q0-70-49-119t-119-49q-70 0-119 49t-49 119q0 70 49 119t119 49Z"/></svg>