<svg xmlns="http://www.w3.org/2000/svg" height="48" viewBox="0 -960 960 960" width="48"><path d="m193.154-116.617-78.075-78.076q-5.231-5.231-7.846-11.092-2.616-5.861-2.616-12.153 0-6.293 2.616-12.661 2.615-6.368 7.846-11.324L543.05-669.52q5.719-5.325 12.196-7.94 6.476-2.615 13.384-2.615t13.639 2.615q6.731 2.615 11.961 7.846L668.845-595q5.23 4.231 7.346 11.462 2.115 7.231 2.115 14.139 0 6.908-2.115 13.384-2.116 6.476-7.45 12.185L240.385-116.617q-4.956 5.231-11.324 7.846-6.368 2.615-12.661 2.615-6.293 0-12.154-2.615t-11.092-7.846Zm21.077-39.691 306.461-306.077-60.461-60.461L154.154-216.77l60.077 60.462Zm554.876-614.337-52.646-23.585q-1.615-.615-4-6.842 0-.248 4-6.773l52.646-23.585 23.584-52.645q.616-1.616 6.842-4 .249 0 6.774 4l23.584 52.645 52.646 23.585q1.615.615 4 6.457 0 .633-4 7.158l-52.646 23.585L806.307-718q-.616 1.615-6.457 4-.634 0-7.159-4l-23.584-52.645Z"/></svg>