<svg xmlns="http://www.w3.org/2000/svg" height="40" viewBox="0 -960 960 960" width="40"><path d="M671.703-462v41.667q0 8.333 5.921 14.333 5.92 6 14 6 8.079 0 14.079-6t6-14.333V-462h41.906q7.333 0 12.333-5.429 5-5.428 5-12.666t-5-12.238q-5-5-12.333-5h-41.906V-540q0-8-6-14t-14-6q-8.159 0-14.079 6-5.921 6-5.921 14v42.667h-44.667q-7.333 0-12.333 5t-5 12.238q0 7.238 5.4 12.666 5.4 5.429 12.6 5.429h44Zm-159.761 12 72.001 81q1.697 2.455 18.666 9 16.251 0 23.213-15.167 6.961-15.166-3.879-27.166L553.942-480l68.334-78.667q10.84-12 3.878-26.666Q619.191-600 602.609-600q-5.863 0-10.344 2.333-4.482 2.334-8.322 6.667l-72.001 81v-63.333q0-11.556-7.657-19.111Q496.628-600 485.119-600q-11.51 0-19.01 7.556-7.5 7.555-7.5 19.111v186.666q0 11.556 7.578 19.111Q473.764-360 485.274-360q11.509 0 19.089-7.556 7.579-7.555 7.579-19.111V-450ZM348.5-413.333h-84.667q-11.555 0-19.111 7.577-7.555 7.578-7.555 19.167 0 11.589 7.555 19.089 7.556 7.5 19.111 7.5h102q15.3 0 25.65-10.158 10.35-10.159 10.35-25.175V-462q0-15.017-10.35-25.175-10.35-10.158-25.65-10.158H290.5v-49.334h84.667q11.396 0 19.031-7.577 7.635-7.578 7.635-19.167 0-11.589-7.635-19.089-7.635-7.5-19.031-7.5H263.833q-11.555 0-19.111 7.556-7.555 7.555-7.555 19.111v84.666q0 11.556 7.555 19.111Q252.278-462 263.833-462H348.5v48.667ZM189.058-113.304q-30.994 0-53.374-22.38-22.38-22.38-22.38-53.374v-581.884q0-31.06 22.38-53.486 22.38-22.427 53.374-22.427h581.884q31.06 0 53.486 22.427 22.427 22.426 22.427 53.486v581.884q0 30.994-22.427 53.374-22.426 22.38-53.486 22.38H189.058Z"/></svg>