<svg xmlns="http://www.w3.org/2000/svg" height="40" viewBox="0 -960 960 960" width="40"><path d="M272.5-360h93.333q15.3 0 25.65-10.158 10.35-10.159 10.35-25.175V-462q0-15.017-10.35-25.175-10.35-10.158-25.65-10.158H290.5v-49.334h84.667q11.396 0 19.031-7.577 7.635-7.578 7.635-19.167 0-11.589-7.635-19.089-7.635-7.5-19.031-7.5H272.5q-15.176 0-25.255 10.35-10.078 10.35-10.078 25.65v168.667q0 15.016 10.078 25.175Q257.324-360 272.5-360Zm18-35.333V-462h58v66.667h-58ZM511.942-450l71.745 81q2.002 2.333 18.83 9 16.52 0 23.48-15.261 6.96-15.261-3.721-27.482l-68.334-77.166 68.334-78.33q10.681-11.927 3.756-26.844Q619.107-600 602.609-600q-5.685 0-10.32 2.333-4.635 2.334-8.567 6.667l-71.661 81v-63.333q0-11.556-7.674-19.111Q496.713-600 485.178-600t-19.052 7.556q-7.517 7.555-7.517 19.111v186.666q0 11.556 7.578 19.111Q473.764-360 485.274-360q11.509 0 19.089-7.556 7.579-7.555 7.579-19.111V-450Zm159.761-12v41.667q0 8.333 5.921 14.333 5.92 6 14 6 8.079 0 14.079-6t6-14.333V-462h41.906q7.333 0 12.333-5.429 5-5.428 5-12.666t-5-12.238q-5-5-12.333-5h-41.906V-540q0-8-6-14t-14-6q-8.159 0-14.079 6-5.921 6-5.921 14v42.667h-44.667q-7.333 0-12.333 5t-5 12.238q0 7.238 5.4 12.666 5.4 5.429 12.6 5.429h44ZM189.058-113.304q-30.994 0-53.374-22.38-22.38-22.38-22.38-53.374v-581.884q0-31.06 22.38-53.486 22.38-22.427 53.374-22.427h581.884q31.06 0 53.486 22.427 22.427 22.426 22.427 53.486v581.884q0 30.994-22.427 53.374-22.426 22.38-53.486 22.38H189.058Zm0-75.754h581.884v-581.884H189.058v581.884Zm0-581.884v581.884-581.884Z"/></svg>