<svg xmlns="http://www.w3.org/2000/svg" height="40" viewBox="0 -960 960 960" width="40"><path d="M480.085-730.928q-32.36 0-55.364-22.992-23.004-22.992-23.004-55.279 0-32.287 22.919-55.37t55.279-23.083q32.36 0 55.364 23.017 23.004 23.018 23.004 55.34 0 32.256-22.919 55.312-22.919 23.055-55.279 23.055ZM364.493-114.13v-489.993H156.282q-15.531 0-25.907-10.574Q120-625.27 120-640.762t10.54-25.829q10.54-10.336 25.982-10.336h647.196q15.531 0 25.907 10.409Q840-656.109 840-640.528q0 15.492-10.375 25.948-10.376 10.457-25.907 10.457H595.667v489.993q0 15.42-10.511 25.851t-26.048 10.431q-15.47 0-25.818-10.431t-10.348-25.851v-219.204h-85.884v219.204q0 15.42-10.488 25.851-10.487 10.431-25.99 10.431-15.503 0-25.795-10.431-10.292-10.431-10.292-25.851Z"/></svg>