<svg xmlns="http://www.w3.org/2000/svg" height="40" viewBox="0 -960 960 960" width="40"><path d="M724-154.529h-83.717q-15.442 0-25.863-10.573Q604-175.676 604-191.167q0-15.492 10.54-25.829t25.982-10.337H724v-83.718q0-15.441 10.574-25.862 10.573-10.42 26.065-10.42 15.491 0 25.828 10.42 10.337 10.421 10.337 25.862v83.718h83.718q15.442 0 25.862 10.454 10.42 10.454 10.42 25.945 0 15.492-10.42 25.949-10.42 10.456-25.862 10.456h-83.718v84.384q0 15.442-10.454 25.862-10.454 10.42-25.945 10.42-15.492 0-25.948-10.539Q724-54.942 724-70.384v-84.145Zm-595.224 2.949q-16 0-26.939-10.938-10.938-10.938-10.938-26.938v-213.457H72.587q-17.832 0-28.742-13.522t-7.258-31.022L80.53-649.906q2.652-13.435 13.094-21.764 10.442-8.33 23.544-8.33h547.812q13.34 0 23.782 8.33 10.442 8.329 13.095 21.764l41.63 193.362q3.812 17.261-7.218 30.902Q725.239-412 707.646-412h-16.979v113.457q0 16-10.972 26.939-10.972 10.938-27.022 10.938-16.049 0-26.904-10.938-10.855-10.939-10.855-26.939v-107.32H429.616v216.407q0 16-10.939 26.938-10.938 10.938-26.938 10.938H128.776Zm37.876-75.753h187.21v-175.58h-187.21v175.58Zm-46.558-251.334h543.53-543.53Zm2.609-254.667q-15.442 0-25.862-10.573-10.42-10.574-10.42-26.065 0-15.492 10.54-25.829 10.539-10.337 25.981-10.337h537.167q15.442 0 25.863 10.454 10.42 10.454 10.42 25.946 0 15.491-10.54 25.948-10.54 10.456-25.982 10.456H122.703Zm-2.609 254.667h543.53l-27.312-125.58H147.167l-27.073 125.58Z"/></svg>