<svg xmlns="http://www.w3.org/2000/svg" height="40" viewBox="0 -960 960 960" width="40"><path d="M811.811-690.928q-15.029 0-24.92-9.974Q777-710.876 777-725.808v-51.272h-51.511q-14.831 0-24.815-10.071-9.985-10.07-9.985-24.957 0-14.785 10.041-24.766 10.042-9.981 24.886-9.981H777v-51.827q0-14.885 10.008-24.939 10.008-10.053 24.957-10.053 14.95 0 24.92 10.064 9.97 10.065 9.97 24.943v51.812h51.812q14.776 0 24.772 10.099 9.996 10.1 9.996 24.886 0 14.787-9.996 24.789-9.996 10.001-24.772 10.001h-51.812v51.145q0 14.878-10.075 24.943-10.075 10.064-24.969 10.064ZM439.61-263.073q74.107 0 124.712-50.548 50.605-50.549 50.605-124.576 0-74.028-50.548-124.379-50.549-50.351-124.576-50.351-74.028 0-124.379 50.281-50.351 50.282-50.351 124.256 0 74.107 50.281 124.712 50.282 50.605 124.256 50.605Zm.057-71.927q-44.153 0-73.41-29.59Q337-394.181 337-438.333q0-44.153 29.257-73.49 29.257-29.336 73.41-29.336 44.152 0 73.822 29.336 29.671 29.337 29.671 73.49 0 44.152-29.671 73.743Q483.819-335 439.667-335ZM109.058-113.304q-30.994 0-53.374-22.38-22.38-22.38-22.38-53.374v-497.218q0-30.392 22.38-53.152t53.374-22.76h134.101l53.653-60.486q10.275-12.131 24.797-18.156 14.521-6.025 30.797-6.025h233.74q16 0 26.938 11.028 10.938 11.028 10.938 27.008v50.558q0 19.936 13.956 33.891 13.956 13.956 33.892 13.956h38.464v38.066q0 20.155 13.979 34.121 13.979 13.965 33.948 13.965h50.558q15.98 0 27.008 10.939 11.028 10.938 11.028 26.938v397.327q0 30.994-22.76 53.374-22.76 22.38-53.153 22.38H109.058Z"/></svg>