<svg xmlns="http://www.w3.org/2000/svg" height="40" viewBox="0 -960 960 960" width="40"><path d="m233.304-233.304-95.362 95.362q-17.978 17.978-41.308 8.224-23.33-9.755-23.33-34.84v-646.384q0-31.06 22.38-53.486 22.38-22.427 53.374-22.427h661.884q31.06 0 53.486 22.427 22.427 22.426 22.427 53.486v501.884q0 30.994-22.427 53.374-22.426 22.38-53.486 22.38H233.304Zm211.769-291.769v91.74q0 14.844 10.007 24.886 10.008 10.041 25.037 10.041t24.92-9.974q9.89-9.974 9.89-25.009v-91.684h91.74q14.844 0 24.886-10.007 10.041-10.008 10.041-25.037t-9.974-24.92q-9.974-9.89-25.009-9.89h-91.684v-91.74q0-14.844-10.007-24.886-10.008-10.041-25.037-10.041t-24.92 9.974q-9.89 9.974-9.89 25.009v91.684h-91.74q-14.844 0-24.886 10.007-10.041 10.008-10.041 25.037t9.974 24.92q9.974 9.89 25.009 9.89h91.684Z"/></svg>