<svg xmlns="http://www.w3.org/2000/svg" height="40" viewBox="0 -960 960 960" width="40"><path d="M480.059-484.754q31.311 0 53.329-21.997t22.018-53.308q0-31.311-22.077-53.329-22.078-22.018-53.388-22.018-31.311 0-53.249 22.077-21.938 22.077-21.938 53.388 0 31.311 21.997 53.249 21.998 21.938 53.308 21.938ZM480-886.855q21.174 0 41.681 2.793 20.507 2.794 40.428 7.421v78.257q0 31.669 22.426 54.095 22.427 22.427 54.095 22.427h48.812v49.051q0 31.764 22.427 54.023 22.426 22.259 54.095 22.259h39.885q1.419 10.734 2.213 21.453.793 10.719.793 22.279 0 64.565-28.96 128.797t-71.543 121.899q-42.584 57.666-91.225 105.985-48.642 48.319-87.924 81.899-9.707 8.985-22.36 13.225-12.653 4.239-25.067 4.239t-24.859-4.239q-12.445-4.24-21.96-13.225-51.101-45.891-101.232-98.13-50.13-52.239-89.735-108.471-39.606-56.232-64.146-114.982t-24.54-116.997q0-152.643 98.554-243.351Q350.411-886.855 480-886.855Zm247.442 124.993H638.63q-15.442 0-25.981-10.574-10.54-10.573-10.54-26.065t10.375-25.829q10.376-10.337 25.907-10.337h89.051v-89.051q0-15.531 10.574-25.907Q748.589-960 764.081-960t25.828 10.375q10.337 10.376 10.337 25.907v89.051h89.051q15.532 0 25.907 10.41 10.376 10.409 10.376 25.99 0 15.492-10.376 25.948-10.375 10.457-25.907 10.457h-89.051v88.811q0 15.442-10.409 25.982t-25.99 10.54q-15.492 0-25.948-10.375-10.457-10.376-10.457-25.907v-89.051Z"/></svg>