<svg xmlns="http://www.w3.org/2000/svg" height="40" viewBox="0 -960 960 960" width="40"><path d="M98.16-99.514v-640.428q0-50.128 35.405-85.336 35.406-35.208 85.101-35.208h177.588q50.091 0 85.179 35.208 35.089 35.208 35.089 85.336v640.428H98.159Zm289.274-245h53.334v-233.044h-53.334v233.044ZM173.912-175.268h266.856v-93.333h-53.334q-31.399 0-53.656-22.3-22.256-22.299-22.256-53.613v-233.044q0-31.249 22.256-53.501 22.257-22.253 53.656-22.253h53.334v-86.667q0-18.956-12.798-31.855-12.798-12.898-31.716-12.898H218.666q-18.123 0-31.438 12.898-13.316 12.899-13.316 31.855v564.711Zm528.506-243.058q-25.396 0-50.242-6.971-24.846-6.971-49.212-17.754l23.87-71.434q20.567 9.153 39.923 14.66 19.356 5.506 36.381 5.745 12.911 0 26.061-4.333t26.62-13q24.45-16.384 48.314-22.783 23.864-6.398 45.838-6.398 24.169 0 50.458 6.844 26.289 6.844 50.347 16.801l-24.537 71.862q-22.942-8.236-41.875-14.035-18.932-5.798-33.762-5.798-13.263 0-28.323 4.919-15.06 4.92-31.771 16.653-21.502 14.619-43.471 19.82-21.969 5.202-44.619 5.202Zm.681-173.588q-24.41 0-50.243-7.13-25.834-7.13-49.892-17.594l23.87-72.101q26.152 10.543 44.175 15.728 18.024 5.185 32.129 5.185 12.952 0 25.903-3.874 12.952-3.873 26.778-13.46 24.942-16.224 48.923-22.503 23.98-6.279 45.87-6.279 23.359 0 48.518 6.296t51.885 16.95l-24.109 71.782q-25.913-8.971-44.175-14.123-18.263-5.152-32.067-5.152-13.769 0-28.493 4.453-14.725 4.453-32.33 16.88-18.244 12.413-41.021 18.678-22.776 6.264-45.721 6.264Zm.11 347.095q-25.127 0-50.481-6.93-25.353-6.931-49.764-17.714l23.839-72.102q22.61 9.624 41.828 15.189 19.217 5.565 34.507 5.645 12.872 0 26.103-3.953 13.23-3.953 26.578-13.381 23.162-16.012 49.346-22.517 26.183-6.504 46.324-6.504 23.562 0 49.447 7.03 25.885 7.031 49.84 16.694l-23.87 71.623q-25.996-9.146-44.91-14.37-18.914-5.224-31.241-5.224-14.703 0-30.182 5.167Q805.093-281 789.841-270q-16.623 11.892-39.544 18.536-22.92 6.645-47.088 6.645Zm-262.441 69.551v-574.106 9.395-9.395 574.106Z"/></svg>