<svg xmlns="http://www.w3.org/2000/svg" height="40" viewBox="0 -960 960 960" width="40"><path d="m750.913-198.209-60.319-27.834q-10.608-4.852-10.608-17.466t10.683-17.639L750.92-289l27.827-60.326q4.851-10.608 17.465-10.608t17.506 10.608L841.703-289l60.326 27.826q10.45 4.981 10.45 17.595 0 12.614-10.45 17.536l-60.326 27.826-27.985 60.326q-4.852 10.609-17.466 10.609t-17.505-10.609l-27.834-60.318ZM433.006-433.17l29.509 65.88q4.836 11.514 17.457 11.395 12.622-.12 17.513-11.475l29.334-65.811 65.811-29.334q11.355-4.836 11.475-17.457.119-12.622-11.236-17.513l-65.989-29.559-29.474-65.825q-4.942-11.355-17.456-11.355-12.513 0-17.435 11.355l-29.509 65.825-65.716 29.559q-11.514 4.813-11.514 17.326 0 12.514 11.514 17.405l65.716 29.584ZM149.058-153.304q-30.994 0-53.374-22.38-22.38-22.38-22.38-53.374v-501.884q0-31.06 22.38-53.486 22.38-22.427 53.374-22.427h661.884q31.06 0 53.486 22.427 22.427 22.426 22.427 53.486v280.073H810.942v-280.073H149.058v501.884h439.834V-153.304H149.058Zm0-75.754v-501.884 501.884V-251.739-229.058Z"/></svg>