<svg xmlns="http://www.w3.org/2000/svg" height="40" viewBox="0 -960 960 960" width="40"><path d="M480.057-322.297q74.032 0 125.839-51.84T657.703-500q0-73.534-52.112-124.872Q553.478-676.21 480-677.703v55.406q51.015.667 86.656 36.131 35.641 35.465 35.641 86.323 0 50.858-35.64 86.499t-86.589 35.641q-33.269 0-61.763-16.572-28.493-16.573-45.16-45.413l-47.833 26.543q24.079 41.812 65.063 66.33 40.983 24.518 89.682 24.518Zm-150.6-144.884q11.731 0 19.71-7.988 7.978-7.988 7.978-19.713 0-11.724-8.056-19.635-8.056-7.91-19.804-7.91-11.749 0-19.647 7.965-7.899 7.965-7.899 19.655 0 11.76 7.993 19.693 7.993 7.933 19.725 7.933Zm22.621-85.116q11.759 0 19.692-8.011 7.933-8.01 7.933-19.77 0-11.759-8.011-19.692-8.01-7.933-19.77-7.933-11.759 0-19.692 8.011-7.933 8.01-7.933 19.77 0 11.759 8.011 19.692 8.01 7.933 19.77 7.933Zm59.355-56.594q11.759 0 19.692-8.011t7.933-19.77q0-11.759-7.993-19.692t-19.724-7.933q-11.732 0-19.631 8.011-7.898 8.01-7.898 19.769 0 11.759 7.965 19.693 7.966 7.933 19.656 7.933ZM480-77.623q-6.597 0-12.434-1.12-5.838-1.12-11.515-3.358-139.022-46.493-220.884-170.32-81.863-123.827-81.863-268.317V-712.5q0-24.121 13.598-43.529 13.598-19.407 35.634-27.906l250.942-93.79q13.355-4.891 26.522-4.891 13.167 0 26.522 4.891l250.942 93.79q22.036 8.499 35.714 27.906 13.677 19.408 13.677 43.529v191.762q0 144.49-81.942 268.317T503.949-82.101q-5.677 2.239-11.515 3.358-5.837 1.12-12.434 1.12Z"/></svg>