<svg xmlns="http://www.w3.org/2000/svg" height="40" viewBox="0 -960 960 960" width="40"><path d="M232.536-114.659q-16 0-26.938-10.939-10.939-10.938-10.939-26.938v-360q0-16 10.972-26.938 10.972-10.939 27.022-10.939 16.05 0 26.905 10.939 10.855 10.938 10.855 26.938v322.123h322.123q16 0 26.938 10.972 10.939 10.972 10.939 27.022 0 16.05-10.939 26.905-10.938 10.855-26.938 10.855h-360Zm214.609-214.45q-16.159 0-27.098-10.938-10.938-10.939-10.938-27.098v-360q0-16 10.972-26.938 10.972-10.939 27.181-10.939 16.05 0 26.905 10.939 10.855 10.938 10.855 26.938v322.123h322.123q16 0 26.938 10.972 10.939 10.972 10.939 27.022 0 16.209-10.939 27.064-10.938 10.855-26.938 10.855h-360Z"/></svg>