<svg xmlns="http://www.w3.org/2000/svg" height="40" viewBox="0 -960 960 960" width="40"><path d="M357.29-153.304H189.058q-30.994 0-53.374-22.714-22.38-22.713-22.38-53.04v-581.884q0-31.06 22.38-53.486 22.38-22.427 53.374-22.427h581.884q30.393 0 53.153 22.427 22.76 22.426 22.76 53.486v581.884q0 30.327-22.76 53.04-22.76 22.714-53.153 22.714H602.87l-96.109 96.109q-11.413 11.355-26.79 11.355-15.377 0-26.732-11.355l-95.949-96.109Zm64.741-306.727 41.15 92.487q4.922 11.355 17.501 11.355t17.47-11.355l40.484-92.487 92.487-40.483q11.355-4.923 11.355-17.501 0-12.579-11.355-17.47l-92.487-40.484-40.484-92.487q-4.922-11.355-17.501-11.355-12.578 0-17.47 11.355l-41.15 92.487-91.821 40.484q-11.355 4.922-11.355 17.501 0 12.578 11.355 17.47l91.821 40.483Z"/></svg>