<svg xmlns="http://www.w3.org/2000/svg" height="40" viewBox="0 -960 960 960" width="40"><path d="M461.355-444.276h140q14.988 0 25.316-10.444Q637-465.165 637-480.148q0-14.982-10.329-25.16-10.328-10.177-25.316-10.177h-140l43.906-44.146q10.224-10.503 10.344-24.847.119-14.344-10.438-24.928-10.507-10.304-25.282-10.304-14.776 0-25.24 10.304L351.333-506.761q-11.355 11.5-11.355 26.833 0 15.334 11.355 26.689l103.312 103.152q10.464 10.464 25.134 10.257 14.67-.206 25.388-10.924 10.463-10.304 10.344-25.181-.12-14.877-10.584-25.34l-43.572-43.001ZM189.058-113.304q-31.249 0-53.501-22.253-22.253-22.252-22.253-53.501v-581.884q0-31.314 22.253-53.614 22.252-22.299 53.501-22.299h186.051q9.181-35.493 38.224-57.747 29.044-22.253 66.667-22.253 37.623 0 66.667 22.253 29.043 22.254 38.224 57.747h186.051q31.314 0 53.614 22.299 22.299 22.3 22.299 53.614v581.884q0 31.249-22.299 53.501-22.3 22.253-53.614 22.253H189.058Zm0-75.754h581.884v-581.884H189.058v581.884ZM480-793.073q14.496 0 24.712-10.216T514.928-828q0-14.496-10.216-24.712T480-862.928q-14.496 0-24.712 10.216T445.072-828q0 14.495 10.216 24.711T480-793.073ZM189.058-189.058v-581.884 581.884Z"/></svg>