<svg xmlns="http://www.w3.org/2000/svg" height="40" viewBox="0 -960 960 960" width="40"><path d="M111.616-233.304q-32.16 0-54.957-21.797-22.797-21.797-22.797-53.957v-501.884q0-31.726 22.13-53.82 22.13-22.093 53.624-22.093H771.5q31.726 0 53.82 22.093 22.093 22.094 22.093 53.82v258.725H720.667q-49.409 0-83.179 36.21-33.769 36.21-33.769 86.898v195.805H111.616Zm328.942-368.971L156.934-781.327q-15.449-9.797-31.384-.866-15.934 8.932-15.934 27.272 0 8.265 3.945 14.596 3.946 6.332 10.424 10.984L420.42-539.638q9.853 6.21 20.253 6.21 10.399 0 20.182-6.21L757.29-729.341q6.319-4.731 10.265-11.04 3.945-6.309 3.945-14.546 0-18.255-15.855-27.226t-31.463.826L440.558-602.275Zm342.37 531.043q-61.246 0-103.561-43.648-42.315-43.649-42.315-104.895v-209.334q0-37.234 26.246-63.504 26.247-26.271 64.113-26.271 37.198 0 63.035 26.271 25.837 26.27 25.837 63.504v178.469q0 15.068-9.882 24.967-9.881 9.898-24.789 9.898-14.908 0-24.926-10.006-10.019-10.006-10.019-24.921v-180.407q0-10-5-17.667-4.999-7.667-14.333-7.667-9.333 0-15 7.667t-5.667 17.667v212.668q0 33.825 21.546 58.709 21.545 24.885 54.695 24.885 31.817 0 52.596-23.978 20.779-23.979 20.779-56.95v-151.254q0-14.915 10.006-24.922 10.006-10.006 24.921-10.006 15.051 0 24.989 10.006 9.939 10.007 9.939 24.922v151.254q0 59.913-41.649 102.228-41.648 42.315-101.561 42.315Z"/></svg>