<svg xmlns="http://www.w3.org/2000/svg" height="40" viewBox="0 -960 960 960" width="40"><path d="M265.181-113.304q-31.559 0-53.736-22.13-22.177-22.13-22.177-53.624v-548.79q-16.167 0-27.022-10.972-10.855-10.972-10.855-27.022 0-16.05 10.939-26.905 10.938-10.855 26.938-10.855H346.79q0-16.166 10.938-27.101 10.938-10.935 26.938-10.935h178.349q16 0 26.938 11.028 10.938 11.028 10.938 27.008h157.602q15.999 0 26.938 10.972 10.938 10.972 10.938 27.022 0 16.05-10.938 26.905-10.939 10.855-26.938 10.855v185.225q-20.182-8.138-41.372-11.769-21.191-3.63-43.049-3.63-20.961 0-41.256 3.138-20.295 3.137-40.483 9.384v-65.682q0-14.92-10.357-25.202-10.358-10.283-25.507-10.283-15.15 0-25.328 10.283-10.177 10.282-10.177 25.202v99.001q-29.453 19.226-53.35 45.04-23.897 25.815-40.151 56.938v-200.979q0-14.92-10.325-25.202-10.325-10.283-25.427-10.283t-25.28 10.283q-10.177 10.282-10.177 25.202v314.791q0 15.19 10.27 25.466 10.271 10.276 25.454 10.276h1.333q1.761 43.135 17.495 82.952 15.733 39.817 40.81 74.393H265.181Zm407.367 36.601q-87.201 0-148.219-61.347-61.018-61.348-61.018-148.735 0-87.201 61.163-148.339 61.163-61.137 148.163-61.137 87.277 0 148.755 61.282 61.478 61.283 61.478 148.231 0 87.329-61.519 148.687-61.519 61.358-148.803 61.358Zm20.858-218.131v-91.514q0-8.542-6.445-14.949-6.444-6.406-15.036-6.406-8.592 0-15.11 6.406-6.518 6.407-6.518 14.949v93.457q0 7.253 2.692 14.006 2.692 6.752 8.583 12.609l61.26 61.261q6.501 6.5 15.059 6.46 8.558-.039 14.957-6.552 6.398-6.512 6.478-15.036.08-8.524-6.399-15.008l-59.521-59.683Z"/></svg>