<svg xmlns="http://www.w3.org/2000/svg" height="40" viewBox="0 -960 960 960" width="40"><path d="M390.164-853.334q-15.628 0-25.965-10.456-10.337-10.457-10.337-26.065 0-15.609 10.337-25.946 10.337-10.337 25.965-10.337h179.672q15.628 0 25.965 10.337t10.337 25.946q0 15.608-10.337 26.065-10.337 10.456-25.965 10.456H390.164Zm89.799 784.863q-75.632 0-142.317-29.01-66.686-29.01-116.575-78.815-49.89-49.805-78.828-116.478-28.939-66.673-28.939-142.29 0-75.617 28.939-142.313 28.938-66.695 78.834-116.62 49.895-49.925 116.589-78.935 66.693-29.01 142.334-29.01 65.812 0 124.529 21.333 58.718 21.334 106.29 60.906l29.572-29.572q10.783-10.783 25.939-10.783 15.155 0 25.938 10.862 10.783 10.863 10.783 26.018 0 15.156-10.783 25.939l-29.413 29.413q36.906 43.732 60.453 101.329 23.547 57.598 23.547 131.41 0 75.651-29.002 142.354-29.003 66.703-78.915 116.485-49.912 49.783-116.628 78.78Q555.594-68.47 479.963-68.47Zm-57.334-303.911 48.668 110.237q2.748 5.891 8.671 5.891 5.923 0 8.735-5.891l49.335-110.237 110.904-48.002q5.891-2.748 5.891-8.671 0-5.923-5.891-8.735l-110.904-48.668-49.335-110.237q-2.748-5.891-8.671-5.891-5.923 0-8.735 5.891l-48.668 110.237-110.904 48.668q-5.891 2.748-5.891 8.671 0 5.924 5.891 8.735l110.904 48.002Z"/></svg>