<svg xmlns="http://www.w3.org/2000/svg" height="40" viewBox="0 -960 960 960" width="40"><path d="M659.442-198.884h-56.478q-11.696 0-17.036-9.815-5.341-9.815 1.123-19.598l96.022-147.022q4.144-5.891 10.815-4.025 6.67 1.866 6.67 9.21v88.859h56.478q11.696 0 17.036 9.895 5.341 9.894-1.123 19.677l-96.022 147.689q-4.144 5.89-10.815 4.025-6.67-1.866-6.67-9.224v-89.671Zm-311.739 49.826Zm-37.877 75.754q-16.16 0-27.098-10.939Q271.79-95.18 271.79-111.18v-668.305q0-15.98 10.938-27.008 10.938-11.028 27.098-11.028h85.63v-31.297q0-15.98 10.939-27.008 10.938-11.028 26.938-11.028h93.334q16 0 26.938 11.028 10.939 11.028 10.939 27.008v31.297h85.79q16 0 26.938 11.028 10.938 11.028 10.938 27.008v311.349q-19.819-1.036-38.876 1.304-19.058 2.341-37.037 8.565v-283.341H347.703v592.551h123.899q9.145 21.87 22.134 40.808 12.989 18.939 29.888 34.946H309.826Z"/></svg>