<svg xmlns="http://www.w3.org/2000/svg" height="40" viewBox="0 -960 960 960" width="40"><path d="M692.297-690.479h-50.224q-15.399 0-25.921-10.573-10.521-10.573-10.521-25.987 0-15.413 10.539-25.828 10.54-10.416 25.982-10.416h50.145v-50.384q0-15.33 10.574-25.806 10.573-10.476 26.034-10.476 15.461 0 25.909 10.476 10.447 10.476 10.447 25.806v50.384h50.225q15.398 0 25.92 10.533 10.522 10.532 10.522 25.945t-10.522 25.87q-10.522 10.456-25.92 10.456h-50.225v50.385q0 15.442-10.564 25.862-10.565 10.42-26.026 10.42t-25.917-10.54q-10.457-10.539-10.457-25.981v-50.146ZM480-232.587l-180.848 77.37q-37.877 16.167-71.862-6.191-33.986-22.357-33.986-63.338v-549.53q0-31.559 22.13-53.736 22.13-22.177 53.624-22.177h315.74q-22.319 27.573-34.076 57.646Q538.964-762.47 538.964-727q0 68.842 43.435 120.82 43.435 51.977 108.543 65.252 21.068 3.609 37.795 3.609t38.118-3.609v316.182q0 40.981-34.065 63.338-34.065 22.358-71.942 6.191L480-232.587Z"/></svg>