<svg xmlns="http://www.w3.org/2000/svg" height="40" viewBox="0 -960 960 960" width="40"><path d="M149.616 0q-28.855 0-49.236-20.673Q80-41.346 80-70.445q0-29.098 20.696-49.395 20.695-20.297 49.825-20.297h659.863q28.855 0 49.236 20.415Q880-99.307 880-70.403q0 28.903-20.696 49.653Q838.609 0 809.479 0H149.616Zm10.065-284.882v-88.783q0-7.711 2.612-14.635 2.613-6.924 8.504-12.815l466.037-466.023q10.225-10.224 22.79-15.011 12.565-4.786 25.71-4.786 13.145 0 26.25 4.786 13.105 4.787 22.916 15.105l45.275 45.051q10.479 9.558 15.591 22.782 5.112 13.225 5.112 26.606 0 12.814-4.942 25.395-4.942 12.58-15.521 22.948L313.832-258.08q-5.891 5.892-12.626 8.584-6.736 2.692-13.989 2.692h-89.441q-16.093 0-27.094-10.951-11.001-10.95-11.001-27.127Zm522.204-441.474 47.405-47.246-42.811-43.051-47.645 47.486 43.051 42.811Z"/></svg>