<svg xmlns="http://www.w3.org/2000/svg" height="40" viewBox="0 -960 960 960" width="40"><path d="M281.275-287.942h120q14.008 0 23.671-9.617t9.663-23.833q0-14.057-9.663-23.637t-23.671-9.58h-120q-14.166 0-23.749 9.697-9.584 9.697-9.584 23.833 0 14.137 9.584 23.637 9.583 9.5 23.749 9.5Zm0-158.725h120q14.008 0 23.671-9.617t9.663-23.833q0-14.216-9.663-23.716-9.663-9.5-23.671-9.5h-120q-14.166 0-23.749 9.617-9.584 9.617-9.584 23.833 0 14.216 9.584 23.716 9.583 9.5 23.749 9.5Zm397.412-225.55q-14.136 0-23.636 9.663t-9.5 23.67v158.82q0 14.194 9.617 23.796 9.617 9.601 23.833 9.601 14.057 0 23.637-9.601 9.579-9.602 9.579-23.796v-158.82q0-14.007-9.696-23.67-9.697-9.663-23.834-9.663Zm-397.412 66.666h120q14.008 0 23.671-9.617t9.663-23.833q0-14.057-9.663-23.637-9.663-9.579-23.671-9.579h-120q-14.166 0-23.749 9.696-9.584 9.697-9.584 23.834 0 14.136 9.584 23.636 9.583 9.5 23.749 9.5ZM143.724-113.304q-30.993 0-53.373-22.38t-22.38-53.374v-581.884q0-31.06 22.38-53.486 22.38-22.427 53.373-22.427h672.552q31.059 0 53.486 22.427 22.427 22.426 22.427 53.486v581.884q0 30.994-22.427 53.374-22.427 22.38-53.486 22.38H143.724Zm0-75.754h672.552v-581.884H143.724v581.884Zm0 0v-581.884 581.884Zm535.277-98.884q14.057 0 23.637-9.617 9.579-9.617 9.579-23.833 0-14.057-9.696-23.637-9.697-9.58-23.834-9.58-14.136 0-23.636 9.697t-9.5 23.833q0 14.137 9.617 23.637t23.833 9.5Z"/></svg>