<svg xmlns="http://www.w3.org/2000/svg" height="40" viewBox="0 -960 960 960" width="40"><path d="M491.942-288.544q79.783 0 135.873-56.1 56.091-56.101 56.091-136.058t-56.091-136.022q-56.09-56.066-135.873-56.066-8.964 0-17.254.334-8.29.333-16.427 2.681-11.775 2.522-13.442 15.503-1.667 12.982 8.929 20.893 36.076 27.606 54.979 67.844 18.903 40.238 18.903 84.635 0 45.284-19.202 85.57-19.203 40.286-54.515 67.127-11.522 8-9.768 20.688 1.754 12.689 14.195 15.623 8.298 1.682 16.468 2.515 8.17.833 17.134.833Zm-146.87 135.24H229.058q-31.486 0-53.62-22.134-22.134-22.134-22.134-53.62v-115.63l-81.66-82.269q-11.021-11.275-16.325-24.951-5.305-13.677-5.305-27.968t5.305-28.091q5.304-13.801 16.326-25.076l81.659-82.269v-115.63q0-31.486 22.134-53.699 22.134-22.214 53.62-22.214h115.63l82.269-81.5q11.355-11.022 25.449-16.326 14.094-5.305 28.392-5.305t27.942 5.768q13.643 5.768 24.97 16.529l81.326 80.834h115.906q31.486 0 53.699 22.214 22.214 22.213 22.214 53.699v115.63l81.5 82.269q11.022 11.355 16.326 24.991 5.305 13.637 5.305 27.928t-5.305 28.051q-5.304 13.761-16.326 25.116l-81.5 82.269v115.63q0 31.486-22.214 53.62-22.213 22.134-53.699 22.134H615.036L533.71-72.978q-11.247 10.601-24.93 16.116-13.684 5.514-27.982 5.514t-28.074-5.514q-13.776-5.515-25.101-16.116l-82.551-80.326Z"/></svg>