<svg xmlns="http://www.w3.org/2000/svg" height="40" viewBox="0 -960 960 960" width="40"><path d="M189.058-113.304q-30.986 0-53.37-22.384-22.384-22.384-22.384-53.37v-269.811l90.674 90.833q11.355 11.355 26.681 11.355t26.681-11.355l139.885-139.885 138.79 138.631q11.355 11.515 26.681 11.515t26.84-11.515l138.979-139.218 118.34 118.341v201.109q0 30.986-22.464 53.37-22.463 22.384-53.449 22.384H189.058Zm0-733.551h581.884q30.986 0 53.449 22.464 22.464 22.463 22.464 53.449v272.891l-91.261-91.101q-11.355-11.355-26.681-11.355t-26.681 11.355L562.775-449.855l-138.79-138.63q-11.355-11.356-26.681-11.356t-26.681 11.356L230.819-448.84 113.304-566.514v-204.428q0-30.986 22.384-53.449 22.384-22.464 53.37-22.464Z"/></svg>