<svg xmlns="http://www.w3.org/2000/svg" height="40" viewBox="0 -960 960 960" width="40"><path d="M586.167-105.333q-49.848 0-84.761-35.111t-34.913-84.959q0-49.848 34.991-84.998 34.992-35.149 84.84-35.149 49.847 0 84.997 35.228t35.15 85.076q0 49.848-35.228 84.88-35.228 35.033-85.076 35.033Zm77.134-302.689q-93.397 0-158.364-65.029-64.966-65.03-64.966-158.33 0-93.3 64.972-158.373 64.972-65.072 158.37-65.072 93.397 0 158.47 65.078 65.072 65.078 65.072 158.449 0 93.371-65.078 158.324-65.079 64.953-158.476 64.953ZM266.358-235.848q-67.353 0-114.189-46.836t-46.836-114.069q0-67.232 46.927-114.095 46.928-46.862 114.031-46.862 67.17 0 114.037 46.919 46.867 46.92 46.867 113.976t-46.902 114.012q-46.903 46.955-113.935 46.955Z"/></svg>