<svg xmlns="http://www.w3.org/2000/svg" height="40" viewBox="0 -960 960 960" width="40"><path d="M156.493-73.862q-20.667 0-34.957-14.29t-14.29-34.797v-186.262q0-28.616 19.304-49.873 19.305-21.257 47.362-23.967h612.176q28.057 2.71 47.362 23.967 19.304 21.257 19.304 49.873v186.262q0 20.507-14.171 34.797-14.17 14.29-34.916 14.29H156.493Zm35.42-375.856v-118.145q0-31.326 22.214-53.539 22.213-22.214 53.699-22.214h174.297v-57.457q-19.333-13.652-30-30.979-10.666-17.327-10.666-41.925 0-15.603 5.786-30.154 5.786-14.55 17.33-26.094l41.833-42.927q1.572-1.573 13.784-5.892 2.049 0 13.404 5.892l41.833 42.927q11.544 11.544 17.664 26.094 6.119 14.551 6.119 30.154 0 24.598-11 41.925-11 17.327-30.333 30.979v57.457h174.457q31.326 0 53.539 22.214 22.214 22.213 22.214 53.539v118.145H191.913Z"/></svg>