<svg xmlns="http://www.w3.org/2000/svg" height="40" viewBox="0 -960 960 960" width="40"><path d="M583.333-77.05q-15.33 0-25.806-10.5t-10.476-25.867q0-15.365 10.476-25.782t25.806-10.417h124.769l-101.363-71.42q-12.369-8.797-15.188-23.159-2.819-14.363 5.565-26.732 8.384-12.37 22.797-15.189 14.413-2.818 27.015 5.486l102.601 70.66-43.145-116.994q-5.652-13.608 1.25-27.111 6.902-13.502 21.33-19.207 14.609-5.652 28.217.786 13.609 6.438 19.102 21.127l41.398 116.913 33.37-119.674q3.906-13.942 16.522-21.667 12.616-7.724 26.811-3.819 14.435 3.906 22.286 16.189 7.852 12.282 3.946 26.891L851.398-77.051H583.333Zm-394.275-76.254q-30.994 0-53.374-22.38-22.38-22.38-22.38-53.374v-515.218q0-31.059 22.38-53.486 22.38-22.427 53.374-22.427h54.275v-29.688q0-15.554 10.795-26.266 10.794-10.712 26.294-10.712 15.783 0 26.619 10.712t10.836 26.266v29.688h244.246v-29.688q0-15.554 10.795-26.266 10.794-10.712 26.294-10.712 15.783 0 26.619 10.712t10.836 26.266v29.688h54.275q31.06 0 53.486 22.427 22.427 22.427 22.427 53.486v282.11q-19.217-3.609-38.036-3.729-18.819-.119-37.877 2.692v-103.464H189.058v337.609h300.051q-.797 19.058 2.283 37.877 3.079 18.819 9.637 37.877H189.058Z"/></svg>