<svg xmlns="http://www.w3.org/2000/svg" height="40" viewBox="0 -960 960 960" width="40"><path d="M149.058-153.304q-30.994 0-53.374-22.38-22.38-22.38-22.38-53.374v-501.884q0-31.06 22.38-53.486 22.38-22.427 53.374-22.427h661.884q31.06 0 53.486 22.427 22.427 22.426 22.427 53.486v501.884q0 30.994-22.427 53.374-22.426 22.38-53.486 22.38H149.058Zm0-360.029h175.739v-217.609H149.058v217.609Zm242.406 0h177.072v-217.609H391.464v217.609Zm243.739 0h175.739v-217.609H635.203v217.609ZM324.797-229.058v-217.609H149.058v217.609h175.739Zm66.667 0h177.072v-217.609H391.464v217.609Zm243.739 0h175.739v-217.609H635.203v217.609Z"/></svg>