<svg xmlns="http://www.w3.org/2000/svg" height="40" viewBox="0 -960 960 960" width="40"><path d="M756.239-73.304q-120.458 0-242.642-56.018-122.184-56.019-225.22-159.015-103.036-102.996-159.055-225.288-56.018-122.291-56.018-242.614 0-21.602 14.394-36.109 14.393-14.507 35.983-14.507h147.094q18.544 0 31.348 11.547 12.804 11.547 17.254 30.105L345.757-639q2.685 18.014-.659 31.579-3.345 13.566-13.729 23.391l-100.123 98.255q23.044 39.514 50.507 74.753 27.464 35.239 60.841 67.616 33.964 34.79 70.638 63.189 36.674 28.399 76.631 50.138l96.021-97.464q11.819-12.247 27.381-16.892 15.562-4.644 31.866-1.688l119.833 25.949q18.891 5.276 30.272 18.917 11.38 13.642 11.38 31.982v145.514q0 21.624-14.524 36.04-14.525 14.417-35.853 14.417ZM194.036-555.188l75.761-74.834-20.573-100.92H149.63q2.681 40.152 12.899 83.116t31.507 92.638Zm366.131 362.369q39.058 17.776 83.402 28.87 44.344 11.094 87.134 13.747v-99.603l-96.014-19.883-74.522 76.869ZM194.036-555.188Zm366.131 362.369Zm-32.225-620.196q-15.681 0-26.34-10.707-10.66-10.707-10.66-26.264 0-15.558 10.66-26.213 10.659-10.656 26.34-10.656h321.913q15.57 0 26.285 10.739t10.715 26.344q0 15.605-10.715 26.181t-26.285 10.576H527.942Zm0 148.978q-15.681 0-26.34-10.693-10.66-10.693-10.66-26.344 0-15.651 10.66-26.227 10.659-10.576 26.34-10.576h321.913q15.57 0 26.285 10.703t10.715 26.254q0 15.731-10.715 26.307-10.715 10.576-26.285 10.576H527.942Zm0 148.818q-15.681 0-26.34-10.692-10.66-10.694-10.66-26.345 0-15.651 10.66-26.227 10.659-10.576 26.34-10.576h321.913q15.57 0 26.285 10.703t10.715 26.255q0 15.73-10.715 26.306t-26.285 10.576H527.942Z"/></svg>