<svg xmlns="http://www.w3.org/2000/svg" height="40" viewBox="0 -960 960 960" width="40"><path d="M520.188-221.833q-15.159 0-25.913-10.753-10.753-10.754-10.753-25.913v-166.667q0-15 10.753-25.833 10.754-10.834 25.913-10.834h170.001q15 0 25.833 10.834 10.833 10.833 10.833 25.833v50l52.239-29.167q9.507-5.558 18.634-.007t9.127 16.587v91.84q0 10.775-8.989 16.457-8.989 5.681-18.772.123L726.855-308.5v50.001q0 15.159-10.833 25.913-10.833 10.753-25.833 10.753H520.188Zm-366.884 32.775v-376.493q0-17.932 7.948-33.976t22.226-26.611L434.42-814.464q19.925-15.246 45.473-15.246 25.549 0 45.687 15.246l250.942 188.326q14.353 10.567 22.343 26.611t7.99 33.976v70.943h-75.913v-70.943L480-753.718l-250.942 188.22v376.44h539.761q15.98 0 27.008 10.972 11.028 10.972 11.028 27.022 0 16.05-11.028 26.905t-27.008 10.855H229.058q-31.494 0-53.624-22.13-22.13-22.13-22.13-53.624ZM480-471.094Z"/></svg>