<svg xmlns="http://www.w3.org/2000/svg" height="40" viewBox="0 -960 960 960" width="40"><path d="M77.37-113.333v-125.239q0-12.515 3.851-23.87t11.315-21.63l340.312-460.051-46.167-61.848q-3.558-4.971.243-16.055 3.801-11.083 8.374-21.167 4.572-10.083 6.344-16.094 1.772-6.011-6.352-.394 12.688-9.783 27.895-7.051 15.206 2.732 25.148 15.42L480-807.522l32.493-44.217q9.782-12.689 24.989-15.087 15.206-2.399 28.054 7.384 12.688 9.782 15.007 25.069 2.319 15.286-7.463 27.974l-45.261 62.276 339.645 460.051q7.464 10.275 11.315 21.63 3.851 11.355 3.851 23.87v125.239q0 16.166-10.855 27.022-10.855 10.855-27.021 10.855H115.406q-16.326 0-27.181-10.855T77.37-113.333Zm250.152-37.877h304.717L480-364.333 327.522-151.21Z"/></svg>