<svg xmlns="http://www.w3.org/2000/svg" height="40" viewBox="0 -960 960 960" width="40"><path d="M198.985-194.202 493.63-299.333 303.449-490.181 198.985-194.202Zm729.704-483.646q-7.906 7.746-18.971 7.746-11.066 0-18.971-7.746l-1.616-1.775q-17.334-17.334-41.08-17.667-23.747-.333-41.587 17.667L592.913-466.072q-8.384 8.225-19.848 8.105-11.464-.12-19.689-8.344-8.224-8.225-8.224-19.808t8.224-19.808l211.312-211.312q33.116-33.116 82.736-33.449 49.62-.334 82.895 32.782l.283.283q7.905 7.906 7.626 19.21-.279 11.304-9.539 20.565ZM387.775-813.935q7.985-7.986 19.29-7.986 11.304 0 19.29 7.986l6.79 6.63q35.116 35.276 34.782 86.736-.333 51.46-35.449 86.736l-7.109 7.109q-7.427 7.427-18.333 6.869-10.906-.558-21.283-11.333-7.427-7.268-7.427-17.616 0-10.348 7.427-17.775l8.95-9.109q20.159-20 19.159-46.254-1-26.254-19.159-44.413l-7.964-7.964q-7.986-7.986-7.826-19.45.159-11.463 8.862-20.166Zm168.022-70.551q8.225-8.224 19.927-8.184 11.703.039 19.928 8.264L639.058-841q32.449 33.275 33.116 82.442.666 49.167-32.45 82.283L511.137-547.688q-8.224 8.225-19.808 8.225-11.583 0-19.808-8.225-8.224-8.225-8.224-19.928 0-11.702 8.224-19.927l127.015-127.015q17.334-17.333 17-44-.333-26.667-17.667-44l-42.072-42.073q-8.225-8.224-8.225-19.927t8.225-19.928Zm317.029 504.639q-8.225 8.224-19.928 8.224-11.703 0-19.927-8.224l-36.073-36.073q-20-20-43.666-20-23.667 0-43.667 20l-33.464 33.464q-8.384 8.225-20.007 8.225-11.623 0-19.848-8.225-8.384-8.225-8.264-19.928.119-11.702 8.344-19.927l31.623-31.464q35.275-35.275 84.735-35.942 49.461-.666 84.736 34.609l35.406 35.406q8.224 8.224 8.224 19.927t-8.224 19.928ZM198.985-194.202Zm-99.877 50.724 152.058-424.746q4.892-12.355 14.667-18.819 9.775-6.464 21.13-6.464 6.797 0 13.595 2.573 6.797 2.572 12.927 8.543l275.022 272.355q5.971 6.131 8.543 12.928 2.573 6.797 2.573 14.261 0 11.355-6.464 21.01-6.464 9.656-18.819 14.547L148.021-94.565q-11.434 4.145-21.963 1.366-10.529-2.779-18.152-10.402-7.464-7.464-10.124-17.993-2.659-10.529 1.327-21.884Z"/></svg>