<svg xmlns="http://www.w3.org/2000/svg" height="40" viewBox="0 -960 960 960" width="40"><path d="M460-440h-49.348q-10.275 0-15.754-8.989-5.478-8.989-.826-18.772l88.109-187.015q2.906-6.464 10.362-4.724 7.457 1.739 7.457 9.282V-520h49.348q10.275 0 15.753 8.989 5.479 8.989.986 18.772l-88.268 187.015q-2.906 6.464-10.362 4.724-7.457-1.739-7.457-9.442V-440ZM269.616-33.862q-30.986 0-53.37-22.384-22.384-22.384-22.384-53.37v-740.768q0-30.986 22.384-53.37 22.384-22.384 53.37-22.384h420.768q30.986 0 53.37 22.384 22.384 22.384 22.384 53.37v740.768q0 30.986-22.384 53.37-22.384 22.384-53.37 22.384H269.616Zm0-175.753h420.768v-540.77H269.616v540.77Z"/></svg>