<svg xmlns="http://www.w3.org/2000/svg" height="40" viewBox="0 -960 960 960" width="40"><path d="M583.333-157.051q-15.419 0-25.851-10.455-10.431-10.455-10.431-25.911 0-15.455 10.431-25.827 10.432-10.372 25.851-10.372h124.769l-101.363-71.42q-12.369-8.797-15.188-23.159-2.819-14.363 5.565-26.732 8.384-12.37 22.797-15.189 14.413-2.818 27.015 5.486l102.601 70.66-43.145-116.994q-5.652-13.608 1.25-27.111 6.902-13.502 21.33-19.207 14.609-5.652 28.217.906 13.609 6.557 19.102 21.007l41.398 116.913 33.37-119.674q3.906-14.609 16.188-22 12.283-7.391 26.892-3.486 14.608 3.906 22.452 16.189 7.845 12.282 3.939 26.891l-69.421 259.485H583.333ZM233.84-275.456l-93.703 93.724q-9.036 9.037-20.844 4.451-11.808-4.586-11.808-17.378V-768.79q0-31.326 22.214-53.54t53.54-22.214H688.79q31.326 0 53.54 22.214t22.214 53.54v212.826q-10.984-2.611-22.206-3.323Q731.116-560 719.96-560q-7.822 0-15.645.517-7.822.517-15.525 2.186V-768.79H183.239v417.58h299.464q-1.669 7.703-2.186 15.525-.517 7.823-.517 15.645 0 11.156.713 22.378.712 11.222 3.323 22.206H233.84Zm72.319-334.131h259.95q15.42 0 25.851-10.455 10.431-10.456 10.431-25.911 0-15.456-10.431-25.827-10.431-10.372-25.851-10.372h-259.95q-15.42 0-25.851 10.455t-10.431 25.911q0 15.455 10.431 25.827 10.431 10.372 25.851 10.372Zm0 165.072h139.95q15.42 0 25.851-10.455t10.431-25.911q0-15.455-10.431-25.827-10.431-10.372-25.851-10.372h-139.95q-15.42 0-25.851 10.456-10.431 10.455-10.431 25.91 0 15.456 10.431 25.828 10.431 10.371 25.851 10.371Zm-122.92 93.305v-417.58 417.58Z"/></svg>