<svg xmlns="http://www.w3.org/2000/svg" height="40" viewBox="0 -960 960 960" width="40"><path d="m233.304-233.304-95.362 95.362q-17.978 17.978-41.308 8.402-23.33-9.576-23.33-35.018v-646.384q0-30.986 22.384-53.449 22.384-22.464 53.37-22.464h661.884q30.986 0 53.449 22.464 22.464 22.463 22.464 53.449v501.884q0 30.986-22.464 53.37-22.463 22.384-53.449 22.384H233.304ZM480-509.587l78.833 78.754q10.464 10.463 25.047 10.503 14.584.04 25.287-10.503Q619.63-441.297 619.63-456q0-14.703-10.463-25.167L530.413-560l78.754-78.833q10.463-10.464 10.503-25.047.04-14.584-10.503-25.287Q598.703-699.63 584-699.63q-14.703 0-25.167 10.463L480-610.413l-78.833-78.754q-10.464-10.463-25.047-10.503-14.584-.04-25.287 10.503Q340.37-678.703 340.37-664q0 14.703 10.463 25.167L429.587-560l-78.754 78.833q-10.463 10.464-10.503 25.047-.04 14.584 10.503 25.287Q361.297-420.37 376-420.37q14.703 0 25.167-10.463L480-509.587Z"/></svg>