<svg xmlns="http://www.w3.org/2000/svg" height="40" viewBox="0 -960 960 960" width="40"><path d="m783.819-308.79 18 59.334q2.159 7.036-2.018 11.992-4.178 4.957-11.134 4.957h-8.942q-3.384 0-5.949-1.446-2.565-1.445-4.884-4.098l-25.616-34.456H621.261l45.964 155.478q2.492 7.609-2.312 14.065-4.804 6.457-12.746 6.457h-7.036q-4.225 0-7.656-1.866t-5.83-5.583l-99.536-168.551H408.428q-15.609 0-26.065-10.337-10.457-10.337-10.457-25.946 0-15.608 10.457-26.065 10.456-10.456 26.065-10.456h123.681l99.203-167.312q2.493-4.224 6.543-6.456 4.051-2.232 8.515-2.232h2.985q8.942 0 14.232 6.862 5.29 6.862 2.638 15.804l-44.964 153.334h122.015l25.203-33.631q2.492-3.145 5.677-4.757 3.185-1.612 6.902-1.612h4.131q8.021 0 13.032 6.703 5.011 6.703 2.359 14.391l-16.761 55.427ZM176.181-651.21l-18-59.334q-2.159-7.036 2.018-12.072 4.178-5.036 11.294-5.036h8.782q3.384 0 5.949 1.525t4.884 4.178l25.776 34.297h122.014l-46.123-155.479q-2.492-7.449 2.312-13.985t12.746-6.536h7.036q4.225 0 7.656 1.945 3.431 1.946 5.83 5.663l99.536 168.392h123.681q15.609 0 26.065 10.416 10.457 10.417 10.457 26.026 0 15.608-10.457 25.945-10.456 10.337-26.065 10.337H427.891l-99.203 167.312q-2.493 4.384-6.043 6.536-3.551 2.152-7.776 2.152h-7.036q-6.956 0-11.833-6.862t-2.225-15.804l45.123-153.334H216.884l-25.203 33.631q-2.652 3.144-5.837 4.757-3.185 1.612-6.902 1.612h-4.131q-8.021 0-13.032-6.623-5.011-6.623-2.359-14.471l16.761-55.188Z"/></svg>