<svg xmlns="http://www.w3.org/2000/svg" height="40" viewBox="0 -960 960 960" width="40"><path d="M75.913-117.051q-31.06 0-53.486-22.38Q0-161.811 0-192.804v-574.392q0-30.993 22.427-53.373t53.486-22.38h808.334q30.826 0 53.289 22.38Q960-798.189 960-767.196v574.392q0 30.993-22.464 53.373-22.463 22.38-53.289 22.38H75.913Zm536.224-72.565h275.059v-580.768H72.804v580.768h6q43.333-70.84 113.667-111.753 70.333-40.913 152.999-40.913 82.826 0 153.08 40.913 70.253 40.913 113.587 111.753ZM344.913-401.594q50.823 0 86.089-35.359t35.266-86.076q0-50.717-35.261-86.116-35.26-35.399-86.076-35.399-50.816 0-86.214 35.386-35.399 35.385-35.399 86.209 0 50.637 35.386 85.996 35.385 35.359 86.209 35.359ZM169.789-189.616h350.167q-34.207-37.868-79.773-58.985-45.567-21.116-95.27-21.116-49.703 0-95.138 21.112-45.435 21.113-79.986 58.989ZM344.913-471.21q-21.956 0-36.968-14.943-15.011-14.943-15.011-36.876 0-22.035 15.01-36.967 15.011-14.932 36.964-14.932 21.954 0 36.849 14.943 14.895 14.942 14.895 37.031 0 21.954-14.943 36.849-14.943 14.895-36.796 14.895ZM480-480Zm210.051-75.029v46.065q0 10.496 7.4 17.871 7.401 7.375 17.935 7.375 10.534 0 17.925-7.375 7.392-7.375 7.392-17.871v-46.065l39.812 22.659q9.05 4.986 18.927 2.861 9.877-2.126 15.569-11.464 5.692-9.339 2.723-19.223-2.97-9.885-11.814-15.601l-39.812-23.167 40.051-23.326q8.901-5.049 11.722-14.814 2.822-9.766-2.884-19.415-5.038-9.06-15.235-11.662-10.197-2.601-19.247 2.623l-39.812 22.5v-45.906q0-10.564-7.369-17.985-7.369-7.42-17.855-7.42t-17.957 7.42q-7.471 7.421-7.471 17.985v45.906l-39.812-22.5q-8.88-5.145-18.729-2.94-9.85 2.205-15.608 11.464-5.692 9.418-2.826 19.255t11.917 15.489l39.812 23.326-40.051 23.167q-9.107 4.986-11.826 14.783-2.718 9.797 2.934 19.554 4.986 9.169 15.236 11.742 10.25 2.573 19.141-2.652l39.812-22.659Z"/></svg>