<svg xmlns="http://www.w3.org/2000/svg" height="40" viewBox="0 -960 960 960" width="40"><path d="M480.333-246.667q97 0 165-68.333t68-165.333q0-97-68.055-165-68.056-68-165.278-68-96.667 0-165 68.055Q246.667-577.222 246.667-480q0 96.667 68.333 165t165.333 68.333Zm-.105-69.615q-67.766 0-115.856-48.08-48.09-48.08-48.09-115.596 0-68.1 48.08-115.93 48.08-47.83 115.596-47.83 68.1 0 115.93 47.862 47.83 47.861 47.83 115.628 0 67.766-47.862 115.856-47.861 48.09-115.628 48.09Zm-23.561-140.385Q466.333-447 480-447q13.667 0 23.333-9.667l56-56Q569-522.333 569-536q0-13.667-9.667-23.333Q549.667-569 536-569q-13.667 0-23.333 9.667l-56 56Q447-493.667 447-480q0 13.667 9.667 23.333ZM189.058-113.304q-30.994 0-53.374-22.38-22.38-22.38-22.38-53.374v-581.884q0-31.06 22.38-53.486 22.38-22.427 53.374-22.427h581.884q31.06 0 53.486 22.427 22.427 22.426 22.427 53.486v581.884q0 30.994-22.427 53.374-22.426 22.38-53.486 22.38H189.058Zm0-75.754h581.884v-581.884H189.058v581.884Zm0-581.884v581.884-581.884Z"/></svg>