<svg xmlns="http://www.w3.org/2000/svg" height="40" viewBox="0 -960 960 960" width="40"><path d="M539.109-654.689q-15.405 0-26.036-10.408-10.63-10.408-10.63-25.795.507-47.902 34.432-81.932 33.925-34.031 82.132-34.031 48.108 0 81.838 33.823 33.731 33.822 33.731 82.14v129.298h116.076q15.271 0 25.737 10.421 10.466 10.421 10.466 25.826 0 15.405-10.466 25.702-10.466 10.297-25.737 10.297h-43.797v260.29q0 31.494-22.177 53.624-22.176 22.13-53.736 22.13H229.058q-31.494 0-53.624-22.13-22.13-22.13-22.13-53.624v-260.29h-43.956q-15.319 0-25.681-10.445-10.363-10.444-10.363-25.883 0-15.372 10.363-25.645 10.362-10.273 25.681-10.273h119.76q-31.525 0-53.664-22.385-22.14-22.384-22.14-53.818v-131.022q0-15.98 10.939-27.008 10.938-11.028 26.938-11.028h162.92q16 0 26.939 11.028 10.938 11.028 10.938 27.008v131.022q0 31.434-22.385 53.818-22.384 22.385-53.818 22.385h346.588v-129.298q0-18.468-12.591-31.093-12.591-12.624-31.088-12.624-18.598 0-31.217 12.708t-12.111 30.343q0 15.669-10.421 26.269-10.422 10.6-25.826 10.6ZM444.036-225.55h72.167v-263.798h-72.167v263.798Z"/></svg>