<svg xmlns="http://www.w3.org/2000/svg" height="40" viewBox="0 -960 960 960" width="40"><path d="M149.058-153.304q-30.986 0-53.37-22.384-22.384-22.384-22.384-53.37v-501.884q0-30.986 22.384-53.449 22.384-22.464 53.37-22.464h661.884q30.986 0 53.449 22.464 22.464 22.463 22.464 53.449v283.131q-30.261-18.283-65.391-14.467-35.13 3.815-61.297 29.981L600.949-273.651l-46.5-46.566q-30.275-30.116-73.536-30.188-43.261-.073-73.377 30.203-30.608 30.369-30.608 73.669 0 43.301 30.275 73.576l19.653 19.653H149.058Zm0-487.254v146h661.884v-146H149.058Zm451.891 461.24 206.138-205.979q11.037-11.036 26.504-10.656 15.467.381 26.503 11.417 10.276 11.036 10.656 26.123.381 15.087-10.656 26.123L627.71-99.906Q616.355-88.55 601.029-88.55t-26.681-11.355L454.203-220.29q-10.942-10.942-10.736-26.409.207-15.468 11.403-26.504 10.782-10.942 26.249-10.822 15.468.119 26.663 11.061l93.167 93.646Z"/></svg>