<svg xmlns="http://www.w3.org/2000/svg" height="40" viewBox="0 -960 960 960" width="40"><path d="M480.069 0Q304.521 0 172.118-110.56 39.715-221.12 6.464-389.493q-2.812-16.194 5.565-29.738t24.16-15.664q15.782-2.119 27.444 7.232 11.661 9.352 14.555 24.721 24 132.754 128.729 225.591 104.728 92.837 239.909 103.51l-42.739-42.898q-10.225-10.065-9.891-24.543.333-14.479 10.478-24.703 10.145-10.225 24.742-10.344 14.598-.12 24.823 10.105L585.606-34.19q5.676 5.835 3.843 13.86-1.833 8.026-9.819 10.105-24.464 5.747-49.801 7.986Q504.493 0 480.069 0ZM360.283-289.334q-29.55 0-49.583-20.033-20.033-20.032-20.033-49.582v-241.435h-48.645q-14.743 0-24.716-10.071-9.972-10.07-9.972-24.957 0-14.785 10.041-24.686Q227.417-670 242.261-670h48.406v-48.645q0-14.742 10.07-24.715 10.071-9.973 24.958-9.973 14.785 0 24.686 9.973 9.902 9.973 9.902 24.715v359.696h359.695q14.743 0 24.716 10.003t9.973 24.789q0 14.787-9.973 24.805-9.973 10.018-24.716 10.018h-48.645v48.646q0 14.742-10.003 24.715Q651.327-206 636.54-206q-14.786 0-24.804-10.042-10.019-10.041-10.019-24.886v-48.406H360.283Zm241.434-133.332v-177.718H424V-670h177.717q29.55 0 49.583 20.033 20.033 20.033 20.033 49.583v177.718h-69.616ZM481.225-960q175.352 0 307.607 110.71Q921.087-738.58 953.536-570q2.812 16.204-5.195 29.543-8.008 13.339-24.252 15.312-14.997 2.159-26.898-7.525-11.901-9.685-14.553-24.388-24.159-132.754-128.808-225.591-104.649-92.837-239.99-103.511l42.899 42.74q10.066 10.224 10.066 24.702 0 14.479-10.145 24.703-10.145 10.225-24.743 10.344-14.598.12-24.822-10.105L375.21-925.886q-5.825-5.814-3.683-13.945 2.143-8.131 10.176-9.944 24.468-5.82 49.553-8.023Q456.341-960 481.225-960Z"/></svg>