<svg xmlns="http://www.w3.org/2000/svg" height="40" viewBox="0 -960 960 960" width="40"><path d="M150.993-186.905v-586.19q0-31.652 22.13-53.782 22.13-22.13 53.782-22.13h506.19q31.652 0 53.782 22.13 22.13 22.13 22.13 53.782v586.19h42.124q16.166 0 27.021 10.855t10.855 27.021q0 16.326-10.855 27.181t-27.021 10.855H109.029q-16.326 0-27.181-10.855t-10.855-27.181q0-16.166 10.855-27.021t27.181-10.855h41.964Zm124.23-292.856q82.066 32.978 128.164 113.315 46.098 80.337 55.757 166.548h41.871q9.261-86.45 55.105-167.026 45.845-80.576 127.99-113.315-81.906-32.898-127.83-113.156-45.924-80.257-55.265-166.388h-42.537q-9.261 86.37-55.185 166.827-45.925 80.456-128.07 113.195Z"/></svg>