<svg xmlns="http://www.w3.org/2000/svg" height="40" viewBox="0 -960 960 960" width="40"><path d="M145.92-511.739q-16 0-26.938-10.938-10.939-10.939-10.939-26.939V-814.08q0-16 10.939-26.938 10.938-10.939 26.938-10.939h264.464q16 0 26.939 10.939 10.938 10.938 10.938 26.938v264.464q0 16-10.938 26.939-10.939 10.938-26.939 10.938H145.92Zm403.696 0q-16 0-26.939-10.938-10.938-10.939-10.938-26.939V-814.08q0-16 10.938-26.938 10.939-10.939 26.939-10.939H814.08q16 0 26.938 10.939 10.939 10.938 10.939 26.938v264.464q0 16-10.939 26.939-10.938 10.938-26.938 10.938H549.616ZM145.92-108.043q-16 0-26.938-10.939-10.939-10.938-10.939-26.938v-264.464q0-16 10.939-26.939 10.938-10.938 26.938-10.938h264.464q16 0 26.939 10.938 10.938 10.939 10.938 26.939v264.464q0 16-10.938 26.938-10.939 10.939-26.939 10.939H145.92Zm535.891 0q-16.209 0-27.065-10.939-10.855-10.938-10.855-26.938v-94.276h-95.275q-15.5 0-26.189-11.052-10.688-11.051-10.688-27.101 0-16.05 10.938-26.905 10.939-10.855 26.939-10.855h94.275v-95.275q0-15.5 11.052-26.189 11.052-10.688 27.101-10.688 16.05 0 26.905 10.938 10.855 10.939 10.855 26.939v94.275h95.276q15.5 0 26.188 11.052 10.689 11.052 10.689 26.942 0 16.209-10.939 27.064-10.938 10.855-26.938 10.855h-94.276v95.276q0 15.5-11.051 26.188-11.052 10.689-26.942 10.689Z"/></svg>