<svg xmlns="http://www.w3.org/2000/svg" height="40" viewBox="0 -960 960 960" width="40"><path d="M511.739-620.746V-814.08q0-16 10.938-26.938 10.939-10.939 26.939-10.939H814.08q16 0 26.938 10.939 10.939 10.938 10.939 26.938v193.334q0 16-10.939 26.939-10.938 10.938-26.938 10.938H549.616q-16 0-26.939-10.938-10.938-10.939-10.938-26.939ZM108.043-479.442V-814.08q0-16 10.939-26.938 10.938-10.939 26.938-10.939h264.464q16 0 26.939 10.939 10.938 10.938 10.938 26.938v334.638q0 16-10.938 26.938-10.939 10.939-26.939 10.939H145.92q-16 0-26.938-10.939-10.939-10.938-10.939-26.938Zm403.696 332.805v-334.638q0-16 10.938-26.939 10.939-10.938 26.939-10.938H814.08q16 0 26.938 10.938 10.939 10.939 10.939 26.939v334.638q0 16.159-10.939 27.097-10.938 10.939-26.938 10.939H549.616q-16 0-26.939-10.939-10.938-10.938-10.938-27.097Zm-403.696 0v-193.335q0-16 10.939-26.938 10.938-10.938 26.938-10.938h264.464q16 0 26.939 10.938 10.938 10.938 10.938 26.938v193.335q0 16.159-10.938 27.097-10.939 10.939-26.939 10.939H145.92q-16 0-26.938-10.939-10.939-10.938-10.939-27.097Zm75.913-370.682h188.552v-258.884H183.956v258.884Zm403.696 332.805h188.551v-258.725H587.652v258.725Zm0-474.108h188.551v-117.581H587.652v117.581ZM183.956-184.514h188.552v-117.422H183.956v117.422Zm188.552-332.805Zm215.144-141.303Zm0 215.383ZM372.508-301.936Z"/></svg>