<svg xmlns="http://www.w3.org/2000/svg" height="40" viewBox="0 -960 960 960" width="40"><path d="M189.058-153.304q-30.994 0-53.374-22.38-22.38-22.38-22.38-53.374v-581.884q0-31.06 22.38-53.486 22.38-22.427 53.374-22.427h581.884q31.06 0 53.486 22.427 22.427 22.426 22.427 53.486v296.464q-10.181-2.051-19.58-2.989-9.398-.939-19.941-.939H560q-38.123 0-73.111 11.592-34.988 11.591-65.607 31.887H319.819q-14.773 0-24.76 9.97-9.986 9.969-9.986 24.718v80.478q0 12.681 8.076 22.181 8.076 9.5 20.438 11.71h.442q-3.145 12.689-4.471 25.113-1.326 12.425-1.326 25.54 0 32.176 8.213 63.997 8.214 31.822 22.989 57.916H189.058ZM560-107.804q-68.17 0-116.636-48.435-48.466-48.435-48.466-116.839 0-68.165 48.347-116.627Q491.591-438.167 560-438.167h37.37q15.159 0 25.561 10.413t10.402 25.587q0 15.174-10.402 25.471t-25.561 10.297H560q-39 0-66.167 27.247-27.167 27.246-27.167 66.167 0 38.92 27.167 66.087t66.194 27.167h44.676q15.159 0 25.561 10.444 10.403 10.445 10.403 25.667 0 15.222-10.403 25.519-10.402 10.297-25.561 10.297H560Zm35.964-129.298q-15.159 0-25.562-10.444Q560-257.991 560-273.213q0-15.222 10.402-25.519 10.403-10.297 25.562-10.297h168.072q15.159 0 25.562 10.445Q800-288.139 800-272.917q0 15.221-10.402 25.518-10.403 10.297-25.562 10.297H595.964ZM800-107.804h-44.036q-15.159 0-25.562-10.445Q720-128.694 720-143.915q0-15.222 10.402-25.519 10.403-10.297 25.562-10.297h44.31q38.726 0 65.893-27.167t27.167-66.167q0-38.841-27.167-66.087Q839-366.399 800-366.399h-37.37q-15.159 0-25.561-10.436t-10.402-25.644q0-15.141 10.402-25.414 10.402-10.274 25.561-10.274H800q68.152 0 116.707 47.97 48.554 47.969 48.554 117.132 0 68.236-48.554 116.748Q868.152-107.804 800-107.804ZM285.073-680.239v80.478q0 14.749 9.97 24.719 9.969 9.969 24.718 9.969h80.478q14.749 0 24.718-9.969 9.97-9.97 9.97-24.719v-80.478q0-14.749-9.97-24.719-9.969-9.969-24.718-9.969h-80.478q-14.749 0-24.718 9.969-9.97 9.97-9.97 24.719Zm274.688 115.166h80.478q14.749 0 24.719-9.969 9.969-9.97 9.969-24.719v-80.478q0-14.749-9.969-24.719-9.97-9.969-24.719-9.969h-80.478q-14.749 0-24.719 9.969-9.969 9.97-9.969 24.719v80.478q0 14.749 9.969 24.719 9.97 9.969 24.719 9.969Z"/></svg>