<svg xmlns="http://www.w3.org/2000/svg" height="40" viewBox="0 -960 960 960" width="40"><path d="M807.596-52.564 581.5-277.754H353.666q-31.559 0-53.736-22.176-22.176-22.177-22.176-53.736V-581.5L58.325-800.929q-10.224-9.731-10.224-24.403 0-14.671 10.029-25.115 10.637-10.445 25.024-10.445 14.388 0 24.86 10.428l749.161 749.161q10.319 10.478 10.351 24.37.033 13.89-10.445 24.63-10.478 9.963-24.823 10.09-14.344.127-24.662-10.351ZM508.457-353.666 353.666-508.457v154.791h154.791Zm174.028-19.29-75.912-75.753v-157.864H448.709l-75.753-75.912h233.617q31.559 0 53.736 22.176 22.176 22.177 22.176 53.736v233.617ZM315.513-770.942q-15.962 0-26.86-11.034-10.899-11.033-10.899-27.022 0-15.988 11.033-26.922 11.034-10.935 27.022-10.935 15.988 0 26.923 11.062 10.934 11.061 10.934 27.091 0 15.962-11.061 26.861-11.062 10.899-27.092 10.899Zm164.37 0q-16.05 0-26.905-11.034-10.855-11.033-10.855-27.022 0-15.988 10.972-26.922 10.972-10.935 27.022-10.935 16.05 0 26.905 11.062 10.855 11.061 10.855 27.091 0 15.962-10.972 26.861-10.972 10.899-27.022 10.899Zm164.547 0q-15.988 0-26.923-11.034-10.934-11.033-10.934-27.022 0-15.988 11.061-26.922 11.062-10.935 27.092-10.935 15.962 0 26.861 11.062 10.898 11.061 10.898 27.091 0 15.962-11.033 26.861-11.034 10.899-27.022 10.899Zm164.272 0q-15.962 0-26.861-11.034-10.899-11.033-10.899-27.022 0-15.988 11.034-26.922 11.033-10.935 27.022-10.935 15.988 0 26.922 11.062 10.935 11.061 10.935 27.091 0 15.962-11.062 26.861-11.061 10.899-27.091 10.899Zm-657.7 164.369q-15.988 0-26.843-11.061-10.855-11.062-10.855-27.092 0-15.962 11.002-26.861 11.001-10.898 26.942-10.898 15.94 0 26.875 11.033 10.935 11.034 10.935 27.022 0 15.988-11.034 26.923-11.033 10.934-27.022 10.934Zm657.7 0q-15.962 0-26.861-11.061-10.899-11.062-10.899-27.092 0-15.962 11.034-26.861 11.033-10.898 27.022-10.898 15.988 0 26.922 11.033 10.935 11.034 10.935 27.022 0 15.988-11.062 26.923-11.061 10.934-27.091 10.934Zm-657.7 164.45q-15.988 0-26.843-10.972t-10.855-27.022q0-16.05 11.002-26.905 11.001-10.855 26.942-10.855 15.94 0 26.875 10.972t10.935 27.022q0 16.05-11.034 26.905-11.033 10.855-27.022 10.855Zm657.7 0q-15.962 0-26.861-10.972-10.899-10.972-10.899-27.022 0-16.05 11.034-26.905 11.033-10.855 27.022-10.855 15.988 0 26.922 10.972 10.935 10.972 10.935 27.022 0 16.05-11.062 26.905-11.061 10.855-27.091 10.855Zm-657.7 164.369q-15.988 0-26.843-11.033-10.855-11.034-10.855-27.022 0-15.988 11.002-26.923 11.001-10.934 26.942-10.934 15.94 0 26.875 11.061 10.935 11.062 10.935 27.092 0 15.962-11.034 26.86-11.033 10.899-27.022 10.899Zm657.7 0q-15.962 0-26.861-11.033-10.899-11.034-10.899-27.022 0-15.988 11.034-26.923 11.033-10.934 27.022-10.934 15.988 0 26.922 11.061 10.935 11.062 10.935 27.092 0 15.962-11.062 26.86-11.061 10.899-27.091 10.899Zm-657.7 164.45q-15.988 0-26.843-11.002-10.855-11.001-10.855-26.942 0-15.94 11.002-26.875 11.001-10.935 26.942-10.935 15.94 0 26.875 11.034 10.935 11.033 10.935 27.022 0 15.988-11.034 26.843-11.033 10.855-27.022 10.855Zm164.511 0q-15.962 0-26.86-11.002-10.899-11.001-10.899-26.942 0-15.94 11.033-26.875 11.034-10.935 27.022-10.935 15.988 0 26.923 11.034 10.934 11.033 10.934 27.022 0 15.988-11.061 26.843-11.062 10.855-27.092 10.855Zm164.37 0q-16.05 0-26.905-11.002-10.855-11.001-10.855-26.942 0-15.94 10.972-26.875t27.022-10.935q16.05 0 26.905 11.034 10.855 11.033 10.855 27.022 0 15.988-10.972 26.843t-27.022 10.855Zm164.547 0q-15.988 0-26.923-11.002-10.934-11.001-10.934-26.942 0-15.94 11.061-26.875 11.062-10.935 27.092-10.935 15.962 0 26.861 11.034 10.898 11.033 10.898 27.022 0 15.988-11.033 26.843-11.034 10.855-27.022 10.855Z"/></svg>