<svg xmlns="http://www.w3.org/2000/svg" height="40" viewBox="0 -960 960 960" width="40"><path d="m133.276-843.007 72.065 72.065h-56.283v458.935h416.994l-517.907-517.4q-10.225-10.065-9.892-24.543.334-14.478 10.558-24.703 10.225-10.225 24.41-10.225 14.184 0 24.409 10.225l749.261 748.435q10.225 10.225 10.105 24.369-.119 14.145-10.344 24.37-10.225 10.225-24.703 10.225T797.406-81.48L641.965-236.254h-92.349v93.334h46.123q16 0 26.938 10.972 10.939 10.972 10.939 27.102 0 16.129-10.939 26.984-10.938 10.855-26.938 10.855H364.261q-16 0-26.938-10.972-10.939-10.972-10.939-27.101 0-16.13 10.939-26.985 10.938-10.855 26.938-10.855h46.123v-93.334H149.058q-30.994 0-53.374-22.38-22.38-22.38-22.38-53.373v-458.935q0-32 22.319-52.033 22.319-20.032 37.653-20.032Zm698.862 603.529-70.565-69.58h50.036v-461.884H299.688l-75.913-75.913h587.834q30.393 0 53.153 22.76 22.76 22.76 22.76 53.153v461.884q0 25.7-15.993 45.644-15.993 19.943-39.391 23.936ZM531.536-540Zm-173.449 19.63Z"/></svg>