<svg xmlns="http://www.w3.org/2000/svg" height="40" viewBox="0 -960 960 960" width="40"><path d="M74.101-272.297v-377.848q0-31.559 22.13-53.736 22.13-22.177 53.624-22.177h660.529q31.326 0 53.54 22.177t22.214 53.736v377.848q0 16-10.97 26.938-10.97 10.939-27.582 10.939-15.91 0-26.556-10.729t-10.646-26.59v-52.029H636.522v52.029q0 15.861-10.88 26.59-10.879 10.729-27.114 10.729-16.05 0-26.905-10.939-10.855-10.938-10.855-26.938v-377.848H149.855v377.848q0 16-10.972 26.938-10.972 10.939-27.022 10.939-16.05 0-26.905-10.939-10.855-10.938-10.855-26.938Zm562.421-288.5h173.862v-89.348H636.522v89.348Zm0 163.188h173.862v-89.348H636.522v89.348Z"/></svg>