<svg xmlns="http://www.w3.org/2000/svg" height="40" viewBox="0 -960 960 960" width="40"><path d="M154.369-113.304q-30.985 0-53.449-22.384-22.463-22.384-22.463-53.37v-581.884q0-30.986 22.463-53.449 22.464-22.464 53.449-22.464h581.646q30.985 0 53.449 22.464 22.464 22.463 22.464 53.449v64.372h34.927q14.725 0 24.707 9.996 9.981 9.996 9.981 24.741t-9.981 24.763q-9.982 10.018-24.707 10.018h-34.927v122.125h34.805q14.774 0 24.792 10.055 10.018 10.055 10.018 24.989 0 14.934-10.101 24.872t-24.826 9.938h-34.688v122.125h35.044q14.774 0 24.673 10.015 9.898 10.016 9.898 24.79t-9.981 24.857q-9.982 10.083-24.707 10.083h-34.927v64.145q0 30.986-22.464 53.37-22.464 22.384-53.449 22.384H154.369Zm101.913-140.029h159.581q16 0 26.938-10.938 10.939-10.938 10.939-26.938v-110.914q0-16-10.939-26.939Q431.863-440 415.863-440H256.282q-16 0-26.938 10.938-10.939 10.939-10.939 26.939v110.914q0 16 10.939 26.938 10.938 10.938 26.938 10.938Zm267.551-317.334h111.146q15.442 0 26.102-10.659 10.659-10.66 10.659-26.102v-61.363q0-16-10.938-26.938-10.939-10.938-26.939-10.938H524.949q-16 0-26.938 10.938-10.938 10.938-10.938 26.938v61.363q0 15.442 10.659 26.102 10.659 10.659 26.101 10.659Zm-267.551 97.334h159.581q16 0 26.938-10.938 10.939-10.939 10.939-26.939v-157.581q0-16-10.939-26.938-10.938-10.938-26.938-10.938H256.282q-16 0-26.938 10.938-10.939 10.938-10.939 26.938v157.581q0 16 10.939 26.939 10.938 10.938 26.938 10.938Zm268.667 220h108.914q16 0 26.939-10.938 10.938-10.938 10.938-26.938v-208.248q0-16-10.938-26.939-10.939-10.938-26.939-10.938H524.949q-16 0-26.938 10.938-10.938 10.939-10.938 26.939v208.248q0 16 10.938 26.938 10.938 10.938 26.938 10.938Z"/></svg>