<svg xmlns="http://www.w3.org/2000/svg" height="40" viewBox="0 -960 960 960" width="40"><path d="M616.708-522.681q-24.063 0-40.759-16.696-16.695-16.696-16.695-40.737 0-15.495 6.831-29.707 6.832-14.213 16.268-26.913 9.437-12.7 19.161-22.679 9.725-9.978 15.058-16.645 5.493 6.667 15.218 16.645 9.725 9.979 19.05 22.656 9.326 12.678 16.189 26.935 6.862 14.257 6.862 29.752 0 24.041-16.56 40.715-16.559 16.674-40.623 16.674Zm170.006-131.986q-23.975 0-40.67-16.696-16.696-16.695-16.696-40.737 0-15.494 6.863-29.73 6.862-14.235 16.188-26.912 9.326-12.678 19.13-22.656 9.804-9.979 15.138-16.646 5.333 6.667 15.138 16.646 9.804 9.978 19.13 22.656 9.325 12.677 16.188 26.934 6.863 14.257 6.863 29.752 0 24.041-16.649 40.715-16.649 16.674-40.623 16.674Zm0 262.638q-23.975 0-40.67-16.695-16.696-16.696-16.696-40.737 0-15.495 6.863-29.73 6.862-14.236 16.188-26.913 9.326-12.678 19.13-22.656 9.804-9.978 15.138-16.645 5.333 6.667 15.138 16.645 9.804 9.978 19.13 22.656 9.325 12.677 16.188 26.934 6.863 14.257 6.863 29.752 0 24.041-16.649 40.715-16.649 16.674-40.623 16.674ZM337.916-113.971q-81.185 0-137.927-56.733-56.743-56.733-56.743-137.962 0-48.718 22.92-91.522 22.921-42.804 63.747-70.83v-267.649q0-44.856 31.619-76.522 31.62-31.666 76.409-31.666 44.79 0 76.37 31.666 31.579 31.666 31.579 76.522v267.649q40.826 28.026 63.747 70.83 22.92 42.804 22.92 91.522 0 81.229-56.728 137.962-56.727 56.733-137.913 56.733ZM219.159-308.666h237.645q0-37.131-17.511-66.903-17.511-29.772-47.309-44.692l-21.847-11.847v-306.559q0-13.884-9.253-23.08-9.254-9.195-23.022-9.195-13.884 0-22.96 9.195-9.076 9.196-9.076 23.08v306.559l-21.609 11.847q-30.196 15.159-47.627 45.192-17.431 30.034-17.431 66.403Z"/></svg>