<svg xmlns="http://www.w3.org/2000/svg" height="40" viewBox="0 -960 960 960" width="40"><path d="M807.153-57.572 652.225-211.754 533.71-93.239q-10.688 10.53-24.848 15.833-14.16 5.305-28.808 5.305t-28.862-5.305q-14.214-5.304-24.902-15.833L93.239-426.29q-10.53-10.688-15.833-24.907-5.305-14.219-5.305-28.927 0-14.709 5.305-28.803 5.304-14.095 15.833-24.783l118.515-118.515L49.667-814.298q-10.32-10.363-9.939-24.891.38-14.529 10.76-24.848 10.379-10.318 24.87-10.318 14.49 0 24.808 10.318l756.726 757.486q10.318 10.544 10.318 24.602t-10.379 24.377q-10.379 10.318-24.869 10.318-14.491 0-24.809-10.319ZM598.515-265.704l-67.073-67.739-28.109 28.109q-9.666 9.666-23.166 9.5-13.5-.167-23.5-10.167-9.667-9.667-9.833-23.5-.167-13.833 9.499-23.833l27.682-27.442-66.783-65.892H315.333q-14.166 0-23.75-9.617Q282-465.901 282-480.117q0-14.216 9.583-23.716 9.584-9.5 23.75-9.5h35.298l-84.928-85.182L147.427-480 480-147.427l118.515-118.276Zm153.028-45.369-53.949-53.949L812.573-480 480-812.573 365.021-697.594l-53.949-53.949L426.29-866.761q10.721-10.689 24.932-16.033 14.21-5.344 28.911-5.344 14.7 0 28.807 5.344t24.77 16.033L866.761-533.71q10.689 10.681 16.033 24.842 5.344 14.162 5.344 28.812t-5.344 28.842q-5.344 14.191-16.033 24.924L751.543-311.072ZM621.76-441.094l17.182-16.928q9.297-9.728 8.891-22.772-.406-13.045-10.167-22.873l-151-151q-9.761-9.761-22.576-9.92-12.815-.159-22.735 8.884-6.855 6.775-7.29 15.805-.435 9.029 5.218 15.898L621.76-441.094Zm-90.333-90.333Zm-99.318 99.318Z"/></svg>