<svg xmlns="http://www.w3.org/2000/svg" height="40" viewBox="0 -960 960 960" width="40"><path d="M479.433-306.667q72.255 0 122.755-50.578 50.5-50.579 50.5-122.833 0-72.255-50.578-122.755-50.579-50.5-122.833-50.5-72.255 0-122.755 50.578-50.5 50.579-50.5 122.833 0 72.255 50.578 122.755 50.579 50.5 122.833 50.5ZM479.355-440q-16.841 0-28.42-11.5-11.58-11.5-11.58-28.5t11.58-28.5q11.579-11.5 28.42-11.5 17 0 28.5 11.5t11.5 28.5q0 17-11.5 28.5t-28.5 11.5Zm366.55 208.667q-15.47 0-25.818-10.431t-10.348-25.852v-252.101q0-15.42 10.488-25.852Q830.714-556 846.217-556q15.503 0 25.875 10.431 10.372 10.432 10.372 25.852v252.101q0 15.421-10.511 25.852-10.511 10.431-26.048 10.431Zm2.115 150.652q-16.712 0-28.014-11.305-11.303-11.305-11.303-28.016 0-16.712 11.305-28.014 11.305-11.303 28.016-11.303 16.712 0 28.014 11.305 11.303 11.305 11.303 28.016 0 16.712-11.305 28.014Q864.731-80.68 848.02-80.68Zm-368.984 7.377q-84.269 0-158.506-32.06t-129.111-86.917q-54.873-54.857-86.817-129.077-31.943-74.221-31.943-158.609t31.985-158.603q31.985-74.214 86.987-129.247 55.002-55.033 129.188-87.035 74.187-32.003 158.536-32.003 128.2 0 232.314 72.413t150.433 191.776h-43.783q-31.559 0-53.736 22.214-22.177 22.213-22.177 53.539v375.036q-55.475 47.296-123.028 72.934-67.552 25.639-140.342 25.639Z"/></svg>