<svg xmlns="http://www.w3.org/2000/svg" height="40" viewBox="0 -960 960 960" width="40"><path d="M750.501-196.783H601.065q-16 0-26.938-10.972-10.939-10.972-10.939-27.021 0-16.05 10.939-26.905 10.938-10.855 26.938-10.855h149.436l-48.827-49.493q-10.116-10.609-10.116-25.964 0-15.355 10.37-25.724 11.34-11.341 27.079-11.62 15.739-.279 26.841 10.822l113.334 113.334q11.021 11.261 11.021 26.601 0 15.341-11.021 26.442L755.848-94.804q-11.102 11.26-26.841 10.982-15.739-.28-27.079-11.78-11.036-10.92-11.036-26.166t11.036-26.282l48.573-48.733Zm-561.443 83.479q-30.986 0-53.37-22.384-22.384-22.384-22.384-53.37V-316.79q0-16 10.972-26.938 10.972-10.939 27.022-10.939 16.05 0 26.905 10.939 10.855 10.938 10.855 26.938v127.732H316.79q16 0 26.938 10.972 10.939 10.972 10.939 27.022 0 16.05-10.939 26.905-10.938 10.855-26.938 10.855H189.058ZM113.304-643.21v-127.732q0-30.986 22.384-53.449 22.384-22.464 53.37-22.464H316.79q16 0 26.938 11.052 10.939 11.051 10.939 27.101 0 16.05-10.939 26.905-10.938 10.855-26.938 10.855H189.058v127.732q0 16-10.972 26.938-10.972 10.939-27.022 10.939-16.05 0-26.905-10.939-10.855-10.938-10.855-26.938Zm657.638 0v-127.732H643.21q-16 0-26.938-10.972-10.939-10.972-10.939-27.022 0-16.05 10.939-26.984 10.938-10.935 26.938-10.935h127.732q30.986 0 53.449 22.464 22.464 22.463 22.464 53.449v127.732q0 16-11.052 26.938-11.051 10.939-27.101 10.939-16.05 0-26.905-10.939-10.855-10.938-10.855-26.938Z"/></svg>