<svg xmlns="http://www.w3.org/2000/svg" height="40" viewBox="0 -960 960 960" width="40"><path d="m813.319-50.71-96.855-96.616q-50.716 35.468-110.356 54.745-59.641 19.277-126.052 19.277-85.824 0-160.097-31.372-74.272-31.371-129.092-86.191-54.82-54.82-86.191-129.092-31.372-74.273-31.372-160.097 0-66.411 19.277-126.052 19.277-59.64 54.745-110.356L50.71-813.319l49.58-49.58L862.899-100.29l-49.58 49.58Zm1.666-196.732-55.094-54.934q24.566-39.392 37.809-83.964 13.242-44.573 13.242-93.66 0-140.242-95.35-235.592-95.35-95.35-235.592-95.35-49.087 0-93.66 13.242-44.572 13.243-83.964 37.809l-54.934-55.094q49.985-34.189 108.563-53.03 58.578-18.84 123.995-18.84 85.315 0 159.514 31.684Q713.713-823.487 768.6-768.6q54.887 54.887 86.571 129.086Q886.855-565.315 886.855-480q0 65.417-18.84 123.995-18.841 58.578-53.03 108.563ZM545.579-516.927Zm-113.564 84.912Zm183.18-15.058-69.616-69.854h104.24q14.327 0 24.087 10.291 9.761 10.292 9.761 24.636 0 13.775-8.265 23.435-8.264 9.659-21.083 11.492h-39.124Zm46.653 244.997-241.29-244.997H309.951q-14.241 0-24.089-10.291-9.848-10.292-9.848-24.636 0-15.146 9.891-25.037 9.89-9.89 25.037-9.89h40.001L202.022-661.848q-25.522 39.949-39.243 85.637-13.721 45.689-13.721 96.268 0 140.219 95.35 235.552T480-149.058q50.503 0 96.201-13.84 45.698-13.841 85.647-39.178Z"/></svg>