<svg xmlns="http://www.w3.org/2000/svg" height="40" viewBox="0 -960 960 960" width="40"><path d="M149.058-153.304q-30.986 0-53.37-22.718-22.384-22.717-22.384-53.036v-501.884q0-30.319 22.384-53.116t53.37-22.797h230.58q15.007 0 29.221 6.09 14.214 6.091 24.569 16.446l47.239 47.239h330.275q30.319 0 53.116 22.717t22.797 53.036v432.269q0 30.319-22.797 53.036-22.797 22.718-53.116 22.718H149.058Zm358.457-249.138-40.92 40.92q-10.225 10.225-10.225 24.529t10.783 25.087q10.463 10.464 25.166 10.464 14.703 0 25.167-10.464l99.739-99.739Q628.58-423 628.58-438.406q0-15.406-11.355-26.761l-99.739-99.739q-10.464-10.463-25.167-10.463-14.703 0-25.724 11.021-10.225 10.225-10.225 24.529t10.225 24.529l40.92 40.921H353.572q-15.369 0-25.666 10.297t-10.297 25.666q0 15.37 10.297 25.667 10.297 10.297 25.666 10.297h153.943Z"/></svg>