<svg xmlns="http://www.w3.org/2000/svg" height="40" viewBox="0 -960 960 960" width="40"><path d="M354.927-278.406q-15.442 0-25.981-10.54-10.54-10.539-10.54-25.981v-330.385q0-15.531 10.375-25.907 10.376-10.375 25.907-10.375h251.979q14.82 0 24.874 10.007 10.053 10.008 10.053 25.037t-9.974 24.92q-9.974 9.89-24.953 9.89H388.26v96.813h218.407q14.82 0 24.874 10.007 10.053 10.008 10.053 25.037t-9.974 24.92q-9.974 9.89-24.953 9.89H388.26v96.813h218.407q14.82 0 24.874 10.007 10.053 10.007 10.053 25.037 0 15.029-9.974 24.92-9.974 9.89-24.953 9.89h-251.74Z"/></svg>