<svg xmlns="http://www.w3.org/2000/svg" height="40" viewBox="0 -960 960 960" width="40"><path d="M480-480ZM73.304-583.666v-147.276q0-31.06 22.38-53.486 22.38-22.427 53.374-22.427h661.884q31.06 0 53.486 22.427 22.427 22.426 22.427 53.486V-480h-75.913v-250.942H149.058v147.276H73.304Zm75.754 430.362q-30.994 0-53.374-22.38-22.38-22.38-22.38-53.374v-147.435h75.754v147.435h290.275v75.754H149.058ZM720-56.493l-74.334-63.333Q568.333-186 544.167-218.203 520-250.405 520-286.444q0-45.049 32-77.549 32-32.5 78-32.5 26 0 49.5 12.08t40.5 34.92q16-22.84 39.5-34.92 23.5-12.08 50.5-12.08 45 0 77.5 32.5t32.5 77.5q0 36.16-25 68.913-25 32.754-106.333 101.754L720-56.493Zm0-93.101 29.551-25.536q60.674-51.66 80.235-73.069 19.562-21.41 19.562-38.33 0-15.725-11.792-27.518-11.792-11.794-27.514-11.794-10.102 0-18.227 4.221-8.124 4.221-17.612 13.902L720-256.913l-55.043-50.805q-9.674-9.681-17.955-13.902-8.28-4.221-16.954-4.221-16.814 0-28.105 11.794-11.291 11.793-11.291 27.518 0 16.92 23.636 43.336 23.637 26.415 74.411 67.828L720-149.594ZM279.944-283.16q-10.921 0-19.701-5.058-8.779-5.057-14.337-14.615L176.609-443.16h-66.464q-15.502 0-26.171-10.707-10.67-10.707-10.67-26.264 0-15.557 10.67-26.213Q94.643-517 110.145-517h89.792q10.245 0 18.988 5.721 8.742 5.722 13.263 15.018l47.573 93.957 127.051-253.957q4.652-9.464 13.783-14.101 9.13-4.638 19.286-4.638 10.155 0 19.365 4.638 9.21 4.637 13.942 14.101L542.391-517H640q15.569 0 26.285 10.739Q677-495.522 677-479.917t-10.715 26.181Q655.569-443.16 640-443.16H520q-10.977 0-19.84-5.058-8.863-5.057-13.348-14.615l-47.479-93.863-127.145 253.623q-4.467 9.798-13.227 14.855-8.76 5.058-19.017 5.058ZM720-238.051Z"/></svg>