<svg xmlns="http://www.w3.org/2000/svg" height="40" viewBox="0 -960 960 960" width="40"><path d="M519.681-119.014v49.608q0 10.415-8.989 15.943-8.989 5.528-18.772.796l-173.547-87.819q-6.648-3.586-5.215-10.789 1.434-7.203 9.081-7.203h118.515v-48.942q0-10.193 8.909-15.752 8.909-5.56 18.692-.828l173.732 87.167q6.464 3.537 4.757 10.678-1.706 7.141-9.474 7.141H519.681ZM274.562-279.072q-49.062 0-83.834-34.548-34.772-34.547-35.25-83.452h-40.79q-16 0-26.938-10.939-10.939-10.938-10.939-26.938v-83.718q0-66.158 46.052-112.543 46.051-46.384 112.209-46.384h82.269q31.326 0 53.539 22.214 22.214 22.213 22.214 53.539v134.914H545.42l144.428-181.334v-126.776h-87.312q-14.742 0-24.715-10.07-9.973-10.071-9.973-24.957 0-14.785 10.042-24.687 10.041-9.901 24.885-9.901h87.073q28.717 0 49.166 20.449 20.45 20.45 20.45 49.166v124.704q0 13.602-4.273 25.218-4.272 11.616-11.974 21.695L602.072-425.833q-10.559 13.496-26.37 21.128-15.811 7.633-33.137 7.633H393.094q-.319 48.905-34.927 83.452-34.608 34.548-83.605 34.548Zm-.156-69.855q19.884 0 34.08-14.155 14.195-14.154 14.674-33.99h-97.588q.319 19.884 14.634 34.014 14.315 14.131 34.2 14.131Zm84-380.407H231.5q-14.743 0-24.716-10.07-9.972-10.07-9.972-24.957 0-14.785 10.041-24.687 10.042-9.901 24.886-9.901h126.667q14.742 0 24.715 10.003 9.973 10.003 9.973 24.789 0 14.787-9.973 24.805-9.973 10.018-24.715 10.018Zm406.031 450.262q-49.64 0-84.252-34.557-34.612-34.556-34.612-84.195 0-49.64 34.436-84.372 34.437-34.731 84.076-34.731 49.64 0 84.372 34.556 34.731 34.556 34.731 84.195 0 49.64-34.556 84.372t-84.195 34.732Zm-.159-69.855q20.431 0 34.863-14.38 14.432-14.38 14.432-34.71 0-20.329-14.448-34.693-14.447-14.363-34.877-14.363-20.429 0-34.744 14.38-14.316 14.38-14.316 34.71t14.38 34.693q14.38 14.363 34.71 14.363Z"/></svg>