<svg xmlns="http://www.w3.org/2000/svg" height="40" viewBox="0 -960 960 960" width="40"><path d="m723.594-604.942-34.166 30.645q-12.718 11.558-31.341 12.598-18.623 1.04-33.739-9.931-14.877-10.812-18.33-28.769-3.453-17.956 1.533-33.992l15.63-52.942-37.848-21.551q-15.782-8.971-21.213-25.341-5.432-16.369.286-33.5 5.558-17.13 19.368-26.308 13.81-9.177 32.487-9.177h43.86l12.952-40.515q5.333-17.13 18.828-29.308 13.494-12.177 31.693-12.177t31.574 12.177q13.376 12.178 18.709 29.308L787-803.21h43.928q17.1 0 31.532 9.511 14.431 9.511 20.084 25.974 5.905 15.812.504 32.749-5.401 16.938-21.432 26.012l-38.355 21.631 15.63 52.942q5.413 16.463 1.907 34.187-3.506 17.723-18.037 28.574-15.051 10.384-33.667 9.677-18.616-.707-31.413-12.344l-34.087-30.645Zm0-71.21q16.283 0 27.344-11.062Q762-698.275 762-714.638q0-16.362-11.062-27.344-11.061-10.982-27.344-10.982-16.282 0-27.463 10.994-11.182 10.994-11.182 27.412 0 16.283 11.182 27.344 11.181 11.062 27.463 11.062ZM536.666-234.297q22.891 56.478-15.606 107.101-38.498 50.624-102.655 50.624-32.515 0-59.989-16.28-27.474-16.278-42.141-46.865-71.297 9.463-127.166-45.874-55.87-55.337-49.87-128.23-29.761-16.36-45.975-48.159-16.213-31.799-16.213-63.722 0-66.073 50.271-100.798 50.272-34.724 112.975-7.499l59.87 24.188q18.159-34.522 50.507-54.529 32.347-20.007 70.377-22.013V-643.5q0-11.558 8.007-19.536 8.007-7.978 20.253-7.978t19.801 7.645q7.554 7.645 7.554 19.869v62.7q39.348 9.503 68.055 40.71 28.706 31.207 38.721 65.424h61.869q12.246 0 20.134 7.883 7.888 7.884 7.888 20.124 0 12.239-7.888 20.257t-20.134 8.018h-56.633Q586-380.355 566.5-347.63t-54.022 50.688l24.188 62.645ZM297.051-208q-2-25.645 2.594-52.228 4.594-26.583 13.703-51.547-24.95 11.964-51.787 15.185t-53.561.206q1.333 33.087 29.073 60.736Q264.813-208 297.051-208Zm-72.645-156.666q36.616 0 73.493-16.562 36.877-16.562 59.08-30.272l-131.833-54.155q-25.501-11.156-51.99 1.572-26.49 12.728-26.49 38.344 0 25.449 27.48 43.261t50.26 17.812Zm193.999 218.319q28.522 0 45.345-19.142 16.822-19.141 6.822-44.141l-56.406-144.602q-17.767 29.492-32.633 60.48-14.867 30.988-14.867 72.68 0 23.693 13.102 49.209 13.101 25.516 38.637 25.516Zm65.773-216.928q19.989-12.855 27.55-31.319 7.562-18.464 7.562-39.348 0-33.35-23.926-57.61-23.927-24.26-57.183-24.26-21.034 0-40.615 8.935-19.581 8.935-29.624 28.472l82.392 33.397 33.844 81.733Zm-170.83 51.5Z"/></svg>