<svg xmlns="http://www.w3.org/2000/svg" height="40" viewBox="0 -960 960 960" width="40"><path d="M480-75.457q-84.036 0-157.833-31.778-73.797-31.779-128.475-86.457t-86.457-128.475Q75.457-395.964 75.457-480q0-118.834 63.094-215.924 63.094-97.091 167.732-146.685 14.892-7.116 30.587-2.569 15.696 4.547 22.638 19.344 6.449 13.131.942 27.279-5.507 14.149-18.812 21.264-87.493 39.225-140.435 119.733Q148.26-577.051 148.26-480q0 138.536 96.602 235.138T480-148.26q138.536 0 235.138-96.602T811.74-480q0-97.051-52.943-177.558-52.942-80.508-140.276-119.733-13.464-7.115-18.971-21.264-5.507-14.148 1.102-27.279 6.688-14.797 22.289-19.518 15.602-4.721 30.24 2.395 104.572 49.5 167.967 146.638Q884.544-599.181 884.544-480q0 84.036-31.779 157.833t-86.457 128.475q-54.678 54.678-128.475 86.457Q564.036-75.457 480-75.457Zm-37.877-391.717v-377.79q0-16.167 10.855-27.101Q463.833-883 480-883q16.167 0 27.022 10.935 10.855 10.934 10.855 27.101v377.79l88.935-88.681q11.022-11.022 26.395-11.149 15.373-.127 26.648 11.149 11.022 11.021 11.022 26.521t-11.022 26.522L506.761-349.717Q495.406-338.362 480-338.362q-15.406 0-26.761-11.355L300.145-502.812q-11.022-11.022-11.149-26.395-.127-15.373 11.149-26.648 11.021-11.022 26.521-11.022t26.522 11.022l88.935 88.681Z"/></svg>