<svg xmlns="http://www.w3.org/2000/svg" height="40" viewBox="0 -960 960 960" width="40"><path d="M226.666-554.667H486v-218.667H226.666v218.667Zm0 368.001H486V-488H226.666v301.334Zm259.334 0H226.666 486Zm37.877 75.753H188.79q-16 0-26.939-10.938-10.938-10.939-10.938-26.939v-624.544q0-31.059 22.38-53.486 22.38-22.427 53.373-22.427H486q31.059 0 53.486 22.427 22.427 22.427 22.427 53.486v291.472h64.066q23.905 0 40.803 16.909 16.899 16.909 16.899 40.829v209.016q0 19.587 15.802 33.083 15.802 13.496 35.963 13.496 20.764 0 37.96-13.496t17.196-33.085v-385.738h-11.42q-15.996 0-26.817-10.867-10.821-10.866-10.821-26.93v-71.076q0-7.097 4.88-12.42 4.881-5.323 11.787-6.12h3.333v-37.145q0-7.543 5.518-13.062 5.518-5.518 13.141-5.518 7.624 0 13.142 5.518 5.518 5.519 5.518 13.062v36.667h39.761v-36.667q0-7.543 5.502-13.062 5.502-5.518 13.237-5.518 7.543 0 13.061 5.518 5.518 5.519 5.518 13.062v37.145h3.334q6.905.797 11.786 6.12 4.88 5.323 4.88 12.42v71.076q0 16.064-10.821 26.93-10.82 10.867-26.816 10.867h-11.421v385.568q0 43.527-33.215 73.947-33.216 30.42-78.413 30.42-44.17 0-76.014-30.448-31.843-30.448-31.843-73.763V-424.16q0-.71-.355-1.065t-1.065-.355h-64.066v276.79q0 16-11.028 26.939-11.028 10.938-27.008 10.938ZM338-209.334 430-356h-55.333v-110l-91.334 146.667H338v109.999Z"/></svg>