<svg xmlns="http://www.w3.org/2000/svg" height="40" viewBox="0 -960 960 960" width="40"><path d="M191.181-64.058q-16.167 0-27.022-10.855-10.855-10.855-10.855-27.021 0-16.167 10.855-27.102 10.855-10.935 27.022-10.935h577.638q16.167 0 27.101 10.935 10.935 10.935 10.935 27.102 0 16.166-10.935 27.021-10.934 10.855-27.101 10.855H191.181ZM481.333-195.31q-7.463 0-14.166-2.685t-12.594-8.576l-107.761-107.92q-10.544-10.544-10.337-25.533.206-14.989 11.242-25.866 10.544-10.703 25.533-10.75 14.989-.047 25.786 10.497l46.015 46.348v-320.567l-46.682 46.348q-10.702 10.703-25.239 10.703-14.536 0-25.413-11.037-10.702-10.543-10.702-25.699 0-15.155 10.702-25.699l106.856-107.681q5.891-5.891 12.594-8.576 6.703-2.685 14.166-2.685 7.464 0 14.167 2.685 6.703 2.685 12.594 8.576l107.761 107.761q10.544 10.703 10.67 25.358.127 14.656-10.909 25.533-10.543 10.703-25.533 10.75-14.989.047-25.786-10.656l-46.681-45.681v320.567l46.681-46.348q10.703-10.544 25.573-10.33 14.869.214 25.746 11.25 10.703 10.544 10.703 25.699 0 15.156-10.703 25.699L508.094-206.572q-5.891 5.891-12.594 8.576-6.703 2.685-14.167 2.685ZM191.181-820.189q-16.167 0-27.022-10.855-10.855-10.855-10.855-27.022 0-16.166 10.855-27.021t27.022-10.855h577.638q16.167 0 27.101 10.855 10.935 10.855 10.935 27.021 0 16.167-10.935 27.022-10.934 10.855-27.101 10.855H191.181Z"/></svg>