<svg xmlns="http://www.w3.org/2000/svg" height="40" viewBox="0 -960 960 960" width="40"><path d="M480.056-73.304q-85.824 0-160.097-31.372-74.272-31.371-129.092-86.191-54.82-54.82-86.191-129.092-31.372-74.273-31.372-160.097 0-66.411 19.277-126.052 19.277-59.64 54.745-110.356l-72.425-72.467q-10.3-10.338-10.38-24.714-.08-14.377 10.424-24.75t24.87-10.373q14.366 0 24.844 10.318l713.87 713.791q10.319 10.319 10.279 24.409-.04 14.09-10.333 24.41-10.373 10.478-24.72 10.478t-24.764-10.504l-72.527-71.46q-50.716 35.468-110.356 54.745-59.641 19.277-126.052 19.277Zm14.741-295.769L373.979-489.812 271.613-288.88q-4.743 9.894 2.637 17.286 7.38 7.391 17.141 2.63l203.406-100.109Zm320.188 121.631L590.094-472.333l98.886-195.554q4.817-9.816-2.563-17.196-7.381-7.381-17.142-2.62l-197.609 96.942-224.224-224.224q49.985-34.189 108.563-53.03 58.578-18.84 123.995-18.84 85.315 0 159.514 31.684Q713.713-823.487 768.6-768.6q54.887 54.887 86.571 129.086Q886.855-565.315 886.855-480q0 65.417-18.84 123.995-18.841 58.578-53.03 108.563Z"/></svg>