<svg xmlns="http://www.w3.org/2000/svg" height="40" viewBox="0 -960 960 960" width="40"><path d="M358.333-113.304H186.666q-29.716 0-51.539-21.823t-21.823-51.539v-171.667q43.102-3.174 74.188-32.171Q218.579-419.5 218.579-462t-31.087-71.496q-31.086-28.997-74.188-32.33v-171.508q0-29.716 21.823-51.619 21.823-21.902 51.539-21.902h165.515q9.486-41.783 39.587-69.569 30.102-27.786 71.565-27.786 41.464 0 71.566 27.786 30.101 27.786 39.587 69.569h162.848q29.716 0 51.619 21.902 21.902 21.903 21.902 51.619v162.848q41.783 9.486 68.569 40.921t26.786 72.898q0 41.464-26.786 70.565-26.786 29.102-68.569 38.588v164.848q0 29.716-21.902 51.539-21.903 21.823-51.619 21.823H565.826q-3.493-47.391-33.23-77.808-29.737-30.417-70.596-30.417-40.859 0-70.596 30.447-29.737 30.446-33.071 77.778Z"/></svg>