<svg xmlns="http://www.w3.org/2000/svg" height="40" viewBox="0 -960 960 960" width="40"><path d="M356.886-304.775q-22.502 0-37.788-15.437-15.287-15.436-15.287-37.938 0-22.502 15.437-37.788 15.436-15.287 37.938-15.287 22.502 0 37.789 15.437 15.286 15.436 15.286 37.938 0 22.502-15.437 37.789-15.436 15.286-37.938 15.286Zm246.594 0q-22.502 0-37.788-15.437-15.286-15.436-15.286-37.938 0-22.502 15.436-37.788 15.437-15.287 37.939-15.287 22.502 0 37.868 15.437 15.366 15.436 15.366 37.938 0 22.502-15.516 37.789-15.517 15.286-38.019 15.286ZM480-69.058q138.468 0 234.825-96.173t96.357-234.745q0-25.07-3.667-48.927-3.667-23.858-10.333-44.648-20.334 5.16-42.526 7.247-22.192 2.086-46.89 2.086-94.545 0-178.496-39.308-83.951-39.307-143.379-111.655-33.014 79.203-94.703 138.184-61.688 58.982-141.891 90.799v6.583q0 138.434 96.177 234.496Q341.651-69.058 480-69.058ZM400.666-723Q473.333-631 547-591.5T709.334-552q20.666 0 34.333-1.166 13.667-1.167 29.667-5.167-44-77.334-119.667-126.167Q578-733.334 480-733.334q-22.667 0-43 3.167Q416.666-727 400.666-723ZM158.333-485.666Q207.333-507.333 261-565t77.334-136.667Q263.333-666 221-610.333q-42.334 55.666-62.667 124.667ZM400.666-723Zm-62.332 21.333ZM116.108-581.058q29.612-59.499 76.455-106.5 46.843-47 106.539-76.573-18.045-23.514-44.962-37.674-26.917-14.159-59.126-14.159-55.033 0-93.005 37.992-37.973 37.992-37.973 93.052 0 32.155 14.157 59.06t37.915 44.802ZM480.217 6.696q-84.35 0-158.537-32.018-74.187-32.019-129.232-87.002-55.045-54.984-87.054-129.147-32.01-74.162-32.01-158.483 0-30.373 4.359-60.014 4.358-29.642 12.916-56.815-42.664-26.255-68.654-70.411-25.99-44.156-25.99-97.739 0-83.053 58-141.053 57.999-58 141.052-58 52.555 0 96.844 25.226 44.289 25.226 71.306 69.18 27.189-8.558 56.848-12.916 29.66-4.359 60.226-4.359 84.252 0 158.354 32.098 74.101 32.098 129.146 87.088 55.045 54.991 87.054 129.169 32.01 74.177 32.01 158.516 0 84.339-32.003 158.517-32.002 74.178-87.035 129.183-55.033 55.006-129.185 86.993Q564.48 6.696 480.217 6.696Zm-287.761-694.24Z"/></svg>