<svg xmlns="http://www.w3.org/2000/svg" height="40" viewBox="0 -960 960 960" width="40"><path d="M236.268-405.333H518.79q16.166 0 27.022-10.856 10.855-10.855 10.855-27.021v-200.522q0-16.167-10.855-27.022-10.856-10.855-27.022-10.855H236.268q-16.167 0-27.022 10.855-10.855 10.855-10.855 27.022v200.522q0 16.166 10.855 27.021 10.855 10.856 27.022 10.856Zm-87.21 252.029q-30.986 0-53.37-22.384-22.384-22.384-22.384-53.37v-501.884q0-30.986 22.384-53.449 22.384-22.464 53.37-22.464h661.884q30.986 0 53.449 22.464 22.464 22.463 22.464 53.449v501.884q0 30.986-22.464 53.37-22.463 22.384-53.449 22.384H149.058Z"/></svg>