<svg xmlns="http://www.w3.org/2000/svg" height="40" viewBox="0 -960 960 960" width="40"><path d="M442.123-192.587h-43.159q-15.502 0-26.171-10.812-10.67-10.813-10.67-26.464 0-15.651 10.789-26.227t26.291-10.576h42.92v-92.493q-81.239-13.355-133.953-76.337-52.714-62.981-52.714-145.518 0-93.204 65.774-158.367T480-804.544q92.996 0 158.77 65.163 65.774 65.163 65.774 158.367 0 82.537-52.714 145.518-52.714 62.982-133.953 76.337v92.493h43.159q15.502 0 26.171 10.703 10.67 10.703 10.67 26.254 0 15.731-10.67 26.427-10.669 10.695-26.171 10.695h-43.159v41.964q0 16.159-10.972 27.098-10.972 10.938-27.022 10.938-16.05 0-26.905-10.938-10.855-10.939-10.855-27.098v-41.964Zm37.742-238.623q61.795 0 105.36-43.43 43.565-43.431 43.565-105.225 0-61.795-43.431-105.36-43.43-43.565-105.224-43.565-61.795 0-105.36 43.431-43.565 43.43-43.565 105.224 0 61.795 43.43 105.36 43.431 43.565 105.225 43.565Z"/></svg>