<svg xmlns="http://www.w3.org/2000/svg" height="40" viewBox="0 -960 960 960" width="40"><path d="M356.457-193.304q-119.779 0-203.299-83.431-83.52-83.431-83.52-203.203T153.1-683.283q83.464-83.572 203.283-83.572 119.819 0 203.192 83.537 83.373 83.538 83.373 203.31T559.56-276.77q-83.39 83.466-203.103 83.466ZM356.493-480Zm347.558 264.833q-20.457 8.232-36.881-2.553-16.423-10.785-16.423-33.874 0-9.717 6.818-19.047 6.819-9.33 16.537-12.953 62.971-20.638 101.739-75.377Q814.609-413.71 814.609-482q0-68.29-38.768-122.696-38.768-54.406-101.739-75.203-9.718-3.464-16.537-12.787-6.818-9.323-6.818-19.72 0-22.722 16.257-33.357 16.257-10.636 37.271-2.165 81.892 27.797 133.99 100.656Q890.362-574.413 890.362-482t-52.257 165.105q-52.257 72.692-134.054 101.728ZM356.41-269.058q88.047 0 149.416-61.406 61.37-61.406 61.37-149.533 0-88.126-61.397-149.536-61.398-61.409-149.306-61.409-88.128 0-149.536 61.406-61.407 61.406-61.407 149.533 0 88.126 61.406 149.536 61.407 61.409 149.454 61.409Z"/></svg>