<svg xmlns="http://www.w3.org/2000/svg" height="40" viewBox="0 -960 960 960" width="40"><path d="M776.203-176.282H290.84q-30.986 0-53.45-22.464-22.463-22.463-22.463-53.449v-598.189q0-30.986 22.463-53.37 22.464-22.384 53.45-22.384h291.052q15.166 0 29.3 6.011t24.649 16.366L829.58-710.022q10.355 10.515 16.366 24.649 6.011 14.134 6.011 29.3v403.878q0 30.986-22.464 53.449-22.464 22.464-53.29 22.464Zm0-483.407L582.841-850.384v133.76q0 23.87 16.533 40.403 16.532 16.532 40.402 16.532h136.427ZM148.26-33.862q-30.985 0-53.369-22.384t-22.384-53.37v-559.066q0-16.167 10.855-27.022 10.855-10.855 27.022-10.855 16.166 0 27.021 10.855t10.855 27.022v559.066h442.625q16.167 0 27.022 10.855 10.855 10.855 10.855 27.022 0 16.167-10.855 27.022-10.855 10.855-27.022 10.855H148.26Z"/></svg>