<svg xmlns="http://www.w3.org/2000/svg" height="40" viewBox="0 -960 960 960" width="40"><path d="M501.688-349.876h100q29.152 0 49.384-20.232t20.232-49.543v-96.631q0-29.152-20.232-49.504-20.232-20.351-49.384-20.351h-100v-97.457h92.852q14.794 0 24.779-10.071 9.985-10.07 9.985-24.957 0-14.785-9.973-24.686-9.973-9.902-24.715-9.902h-92.928q-29.152 0-49.504 20.232-20.351 20.232-20.351 49.384v263.943q0 29.311 20.351 49.543 20.352 20.232 49.504 20.232Zm0-166.406h100v96.631h-100v-96.631ZM286.934-211.18q-30.994 0-53.374-22.38-22.38-22.38-22.38-53.374v-528.552q0-31.059 22.38-53.486 22.38-22.427 53.374-22.427h528.552q31.059 0 53.486 22.427 22.427 22.427 22.427 53.486v528.552q0 30.994-22.427 53.374-22.427 22.38-53.486 22.38H286.934Zm0-75.754h528.552v-528.552H286.934v528.552ZM144.514-68.601q-31.059 0-53.486-22.427-22.427-22.427-22.427-53.486v-566.429q0-16 10.972-26.938 10.972-10.939 27.102-10.939 16.129 0 26.984 10.939 10.855 10.938 10.855 26.938v566.429h566.429q16 0 26.938 10.972 10.939 10.972 10.939 27.101 0 16.13-10.939 26.985-10.938 10.855-26.938 10.855H144.514Zm142.42-746.885v528.552-528.552Z"/></svg>