<svg xmlns="http://www.w3.org/2000/svg" height="40" viewBox="0 -960 960 960" width="40"><path d="M586.543-532.95v148.167q0 14.943 10.118 24.925 10.119 9.982 24.909 9.982 14.792 0 24.77-10.016t9.978-24.832v-333.798q0-14.748-10.095-24.718t-24.886-9.97q-14.791 0-24.793 9.97-10.001 9.97-10.001 24.718v115.718H486.542v-115.718q0-14.748-9.998-24.718-9.999-9.97-24.79-9.97-14.791 0-24.809 9.97t-10.018 24.718v147.536q0 16.16 10.938 27.098 10.939 10.938 26.938 10.938h131.74ZM286.934-211.18q-30.994 0-53.374-22.38-22.38-22.38-22.38-53.374v-528.552q0-31.059 22.38-53.486 22.38-22.427 53.374-22.427h528.552q31.059 0 53.486 22.427 22.427 22.427 22.427 53.486v528.552q0 30.994-22.427 53.374-22.427 22.38-53.486 22.38H286.934ZM144.514-68.601q-31.059 0-53.486-22.427-22.427-22.427-22.427-53.486v-566.429q0-16 10.972-26.938 10.972-10.939 27.102-10.939 16.129 0 26.984 10.939 10.855 10.938 10.855 26.938v566.429h566.429q16 0 26.938 10.972 10.939 10.972 10.939 27.101 0 16.13-10.939 26.985-10.938 10.855-26.938 10.855H144.514Z"/></svg>