<svg xmlns="http://www.w3.org/2000/svg" height="40" viewBox="0 -960 960 960" width="40"><path d="M505.043-419.651v-96.631h100.001q29.152 0 49.503-20.352 20.351-20.351 20.351-49.503v-97.457q0-29.152-20.351-49.384t-49.503-20.232h-134.37q-14.743 0-24.716 10.003t-9.973 24.79q0 14.787 10.042 24.805 10.042 10.018 24.886 10.018h134.131v97.457H505.043q-29.652 0-49.634 20.351-19.982 20.352-19.982 49.504v128.369q0 16.16 10.939 27.098 10.938 10.939 26.938 10.939h163.16q14.742 0 24.715-10.071 9.973-10.07 9.973-24.957 0-14.785-9.973-24.766-9.973-9.981-24.715-9.981H505.043ZM286.934-211.18q-30.994 0-53.374-22.38-22.38-22.38-22.38-53.374v-528.552q0-31.059 22.38-53.486 22.38-22.427 53.374-22.427h528.552q31.059 0 53.486 22.427 22.427 22.427 22.427 53.486v528.552q0 30.994-22.427 53.374-22.427 22.38-53.486 22.38H286.934Zm0-75.754h528.552v-528.552H286.934v528.552ZM144.514-68.601q-31.059 0-53.486-22.427-22.427-22.427-22.427-53.486v-566.429q0-16 10.972-26.938 10.972-10.939 27.102-10.939 16.129 0 26.984 10.939 10.855 10.938 10.855 26.938v566.429h566.429q16 0 26.938 10.972 10.939 10.972 10.939 27.101 0 16.13-10.939 26.985-10.938 10.855-26.938 10.855H144.514Zm142.42-746.885v528.552-528.552Z"/></svg>