<svg xmlns="http://www.w3.org/2000/svg" height="40" viewBox="0 -960 960 960" width="40"><path d="M226.686-117.051q-15.578 0-26.034-10.456-10.457-10.457-10.457-26.065v-371.051q-33.478-1.116-56.898-25.174t-23.42-57.413v-210.276q0-10.25 7.599-17.857 7.6-7.606 18-7.606 10.399 0 18.357 7.606 7.957 7.607 7.957 17.857v140.819h39.384v-140.771q0-10.362 7.556-17.937 7.557-7.574 17.891-7.574 10.335 0 17.947 7.574 7.613 7.575 7.613 17.937v140.771h39.384v-140.771q0-10.362 7.906-17.937 7.905-7.574 18.264-7.574 10.359 0 17.931 7.606 7.573 7.607 7.573 17.857v210.276q0 33.355-23.381 57.413-23.38 24.058-56.699 25.174v371.29q0 15.698-10.403 25.99-10.402 10.292-26.07 10.292Zm286.011 0q-15.62 0-25.912-10.348-10.292-10.347-10.292-25.934V-528.15q-41.334-22.734-61.667-63.203-20.333-40.47-20.333-90.647 0-62.429 31.67-111.689 31.67-49.26 87.199-49.26 55.529 0 87.279 49.26 31.75 49.26 31.75 111.689 0 50.177-21 90.677-21 40.499-62.333 63.156v374.834q0 15.587-10.371 25.934-10.37 10.348-25.99 10.348Zm217.144 0q-15.609 0-26.065-10.456-10.457-10.457-10.457-26.065v-646.573q0-14.42 10.182-25.072 10.182-10.653 24.89-10.653 45.056 0 83.394 45.877 38.338 45.877 38.338 100.659v207.74q0 16.166-10.855 27.021t-27.021 10.855h-46.124v290.385q0 15.698-10.292 25.99-10.292 10.292-25.99 10.292Z"/></svg>