<svg xmlns="http://www.w3.org/2000/svg" height="40" viewBox="0 -960 960 960" width="40"><path d="M345-263.718q-53.058 0-77.149-20-24.09-20-57.851-20-26.348 0-46.786 13.555-20.439 13.554-49.453 21.793-14.37 3.652-25.54-6.264Q77.05-284.551 77.05-300t10.463-27.159q10.464-11.71 24.819-18.029 19.558-8.761 39.225-19.888 19.667-11.127 57.79-11.206 8.377 0 17.047 1.047t15.62 3.141L197.978-532.53l-35.572 44.791q-9.464 11.797-23.993 13.416-14.529 1.62-26.565-8.098-12.13-9.717-13.99-24.826-1.858-15.108 8.099-27.144l249.927-306.587q15.5-18.899 39.17-25.156 23.671-6.257 46.54 2.445l370.015 140.261q14.355 5.652 20.34 19.261 5.986 13.609.333 27.964-5.652 13.942-19.561 20.213-13.909 6.272-27.851.62l-52.66-19.942 82.739 307.718q8.377 4.521 16.906 10.416 8.529 5.895 16.812 10.417 13.927 7.493 24.105 19.323 10.177 11.829 10.177 27.438 0 15.688-11.663 25.366-11.663 9.677-25.525 5.358-28.775-9.413-48.92-25.26-20.145-15.848-46.508-15.848-34.268 0-57.811 23.333-23.544 23.333-77.189 23.333-53.057 0-77.315-20-24.257-20-58.018-20-34.268 0-57.812 20-23.543 20-77.188 20Zm0 117.052q36.645 0 58.96-20 22.316-20 76.04-20 53.058 0 76.5 20t58.833 20q36.645 0 59-23.334 22.356-23.333 76-23.333 38.631 0 58.537 13.38 19.906 13.381 39.464 23.714 13.688 6.986 24.152 18.815 10.463 11.83 10.463 27.279 0 15.689-10.996 25.366-10.996 9.678-24.859 5.359-29.442-8.906-49.626-25.008-20.185-16.101-47.135-16.101-34.014 0-57.811 23.333-23.797 23.334-77.189 23.334-53.152 0-77.235-20-24.084-20-58.098-20-34.268 0-57.812 20-23.543 20-77.188 20t-77.188-20q-23.544-20-57.812-20-26.442 0-46.667 13.435-20.225 13.434-49 21.674-14.37 3.811-25.826-5.946-11.456-9.757-11.456-25.446 0-15.608 10.456-27.398 10.457-11.79 24.971-18.268 19.399-9 39.352-19.928 19.953-10.927 58.17-10.927 53.724 0 76.04 20 22.315 20 58.96 20Zm267.348-189.95-52.276-198.667q-2.319-7.543-9.076-11.608-6.757-4.065-14.301-1.986l-105.122 27.884q-7.703 2.08-11.808 8.957-4.105 6.877-2.026 14.42l33.464 123.333q6.239-2 13.232-1.999H480q51.616 0 74.116 18.815t58.232 20.851Z"/></svg>