<svg xmlns="http://www.w3.org/2000/svg" height="40" viewBox="0 -960 960 960" width="40"><path d="M378.667-361.5h203.014l35.725 98.478q3.537 10.244 12.38 16.633 8.842 6.389 20.12 6.389 18.956 0 29.561-15.456 10.605-15.457 3.692-33.118L526.203-697.645q-3.826-10.225-12.748-16.29Q504.534-720 493.066-720h-26.859q-11.468 0-20.391 6.389-8.923 6.389-12.526 16.633l-156.767 409.21q-6.914 17.319 3.564 32.543Q290.565-240 309.516-240q11.318 0 20.3-6.612 8.981-6.613 13.334-17.144l35.517-97.744Zm22.478-62.391 77.522-218.218h2.347l77.283 218.218H401.145ZM149.058-73.304q-30.994 0-53.374-22.38-22.38-22.38-22.38-53.374v-661.884q0-31.06 22.38-53.486 22.38-22.427 53.374-22.427h661.884q31.06 0 53.486 22.427 22.427 22.426 22.427 53.486v661.884q0 30.994-22.427 53.374-22.426 22.38-53.486 22.38H149.058Z"/></svg>