<svg xmlns="http://www.w3.org/2000/svg" height="40" viewBox="0 -960 960 960" width="40"><path d="M229.058-113.304q-31.652 0-53.703-22.051-22.051-22.051-22.051-53.703v-376.493q0-17.819 8.004-34.025 8.003-16.207 22.17-26.562L434.42-814.464Q454.558-829.71 480-829.71q25.442 0 45.58 15.246l250.942 188.326q14.167 10.355 22.25 26.562 8.083 16.206 8.083 34.025v376.493q0 31.652-22.13 53.703-22.131 22.051-53.783 22.051H229.058ZM420-240q8 0 14-6t6-14v-140q25 0 42.5-17.5T500-460v-100q0-8-6-14t-14-6q-8 0-14 6t-6 14v100h-20v-100q0-8-6-14t-14-6q-8 0-14 6t-6 14v100h-20v-100q0-8-6-14t-14-6q-8 0-14 6t-6 14v100q0 25 17.5 42.5T400-400v140q0 8 6 14t14 6Zm160 0q8 0 14-6t6-14v-294q0-11-7.5-18.5T574-580q-27 0-40.5 25T520-500v86.667q0 14.08 9.942 22.949 9.942 8.87 23.391 10.384H560v120q0 8 6 14t14 6Z"/></svg>