<svg xmlns="http://www.w3.org/2000/svg" height="40" viewBox="0 -960 960 960" width="40"><path d="M229.058-113.304q-31.494 0-53.624-22.13-22.13-22.13-22.13-53.624v-376.493q0-17.932 7.948-33.976t22.226-26.611L434.42-814.464q19.925-15.246 45.473-15.246 25.549 0 45.687 15.246l250.942 188.326q14.353 10.567 22.343 26.611t7.99 33.976v376.493q0 31.494-22.177 53.624-22.176 22.13-53.736 22.13H229.058Zm0-75.754h501.884v-379.16L480-752.384l-250.942 184.22v379.106ZM480-471.094ZM420-240q8 0 14-6t6-14v-140q25 0 42.5-17.5T500-460v-100q0-8-6-14t-14-6q-8 0-14 6t-6 14v100h-20v-100q0-8-6-14t-14-6q-8 0-14 6t-6 14v100h-20v-100q0-8-6-14t-14-6q-8 0-14 6t-6 14v100q0 25 17.5 42.5T400-400v140q0 8 6 14t14 6Zm160 0q8 0 14-6t6-14v-294q0-11-7.5-18.5T574-580q-27 0-40.5 25T520-500v86.667q0 14.08 9.942 22.949 9.942 8.87 23.391 10.384H560v120q0 8 6 14t14 6Z"/></svg>