<svg xmlns="http://www.w3.org/2000/svg" height="40" viewBox="0 -960 960 960" width="40"><path d="M111.177 0Q95.012 0 84.158-10.855T73.304-37.877v-89.348q0-16.166 10.854-27.101 10.854-10.935 27.019-10.935h737.566q16.165 0 27.099 10.935 10.933 10.935 10.933 27.101v89.348q0 16.167-10.933 27.022Q864.908 0 848.743 0H111.177Zm162.656-285.261q-22.565 0-34.927-18.507-12.363-18.507-3.913-39.406l187.783-475.37q5.398-13.036 16.394-20.674 10.997-7.637 24.272-7.637h35.507q13.529 0 24.439 7.757 10.909 7.757 16.467 20.634l186.522 475.413q8.449 20.979-4.406 39.384-12.855 18.406-35.152 18.406-13.674 0-24.949-7.623-11.275-7.623-16.167-20.978l-42.688-115.732H357.094l-44.739 117.848q-4.653 12.13-15.029 19.308-10.377 7.177-23.493 7.177Zm109.63-216.855h192.834L482-757.167h-4l-94.537 255.051Z"/></svg>