<svg xmlns="http://www.w3.org/2000/svg" height="40" viewBox="0 -960 960 960" width="40"><path d="M157.332-274.181q-16.049 0-26.905-10.938-10.855-10.939-10.855-27.098v-335.725q0-16 10.972-26.939 10.972-10.938 27.022-10.938 16.118 0 27.018 10.938 10.901 10.939 10.901 26.939v130.065h161.738v-130.065q0-16 10.964-26.939 10.963-10.938 27-10.938t26.972 10.938q10.935 10.939 10.935 26.939v335.725q0 16.159-11.018 27.098-11.018 10.938-27.135 10.938-16.036 0-26.882-10.938-10.846-10.939-10.846-27.098v-129.906H195.485v129.906q0 16.159-11.018 27.098-11.017 10.938-27.135 10.938Zm420.306 0q-16 0-26.938-10.972-10.939-10.972-10.939-27.181 0-16.05 10.939-26.905 10.938-10.855 26.938-10.855H777.37v-92.029H657.638q-16 0-26.938-10.972-10.939-10.972-10.939-27.022 0-16.05 10.939-26.905 10.938-10.855 26.938-10.855H777.37v-92.029H577.638q-16 0-26.938-10.972-10.939-10.972-10.939-27.181 0-16.05 10.939-26.905 10.938-10.855 26.938-10.855H777.37q31.326 0 53.54 22.214 22.213 22.213 22.213 53.699v259.812q0 31.486-22.213 53.699-22.214 22.214-53.54 22.214H577.638Z"/></svg>