<svg xmlns="http://www.w3.org/2000/svg" height="40" viewBox="0 -960 960 960" width="40"><path d="M111.927-196.014q-31.726 0-53.82-22.094-22.093-22.093-22.093-53.819v-416.305q0-31.493 22.094-53.623 22.093-22.131 53.819-22.131h416.305q31.493 0 53.623 22.131 22.131 22.13 22.131 53.623v416.305q0 31.726-22.131 53.819-22.13 22.094-53.623 22.094H111.927Zm608.073-320q-18.574 0-31.28-12.706T676.014-560v-160q0-18.574 12.706-31.28T720-763.986h160q18.574 0 31.28 12.706T923.986-720v160q0 18.574-12.706 31.28T880-516.014H720ZM191.471-360h257.058q9.493 0 13.841-8.562 4.347-8.561-1.334-16.749l-73.288-97.86q-5.067-6.148-12.711-6.148-7.645 0-12.812 6.188L300-400l-42.464-56.131q-4.935-6.188-12.576-6.188-7.641 0-12.698 6.132l-53.298 70.876q-5.681 8.188-1.334 16.749Q181.978-360 191.471-360ZM720-196.014q-18.574 0-31.28-12.706T676.014-240v-160q0-18.574 12.706-31.28T720-443.986h160q18.574 0 31.28 12.706T923.986-400v160q0 18.574-12.706 31.28T880-196.014H720Z"/></svg>