<svg xmlns="http://www.w3.org/2000/svg" height="40" viewBox="0 -960 960 960" width="40"><path d="M317.848-73.304q-67.997 0-116.27-48.274-48.274-48.273-48.274-116.27v-401.913q0-68.062 48.274-116.383 48.273-48.32 116.27-48.32h40.848v-44.355q0-16.147 10.855-27.091 10.855-10.945 27.007-10.945 16.153 0 27.102 10.945 10.949 10.944 10.949 27.091v44.355h90.942v-44.355q0-16.147 10.855-27.091 10.855-10.945 27.022-10.945 16.166 0 27.021 10.945 10.855 10.944 10.855 27.091v44.355h40.769q67.913 0 116.228 48.32 48.315 48.321 48.315 116.383v401.913q0 67.997-48.315 116.27-48.315 48.274-116.228 48.274H317.848Zm0-75.754h324.225q36.937 0 62.784-25.893 25.846-25.893 25.846-62.897v-401.913q0-37.003-25.846-62.897-25.847-25.893-62.784-25.893H317.848q-37.004 0-62.897 25.893-25.893 25.894-25.893 62.897v401.913q0 37.004 25.893 62.897t62.897 25.893Zm38.434-414.392h247.196q16.167 0 27.022-10.855 10.855-10.855 10.855-27.021 0-16.167-10.855-27.022-10.855-10.855-27.022-10.855H356.282q-16.166 0-27.021 10.855t-10.855 27.022q0 16.166 10.855 27.021t27.021 10.855ZM480-254.515q36 0 61.333-25.087t25.333-60.166q0-14.366-3.333-25.056-3.333-10.69-13-24.024l-48.703-56.811q-8.668-10.275-21.613-10.275-12.944 0-21.647 10.275l-48.703 57.145q-9.667 13.398-13 23.612-3.333 10.214-3.333 25.054 0 35.159 25.333 60.246Q444-254.515 480-254.515ZM229.058-728.551v579.493-579.493Z"/></svg>