<svg xmlns="http://www.w3.org/2000/svg" height="40" viewBox="0 -960 960 960" width="40"><path d="M189.058-113.304q-30.994 0-53.374-22.38-22.38-22.38-22.38-53.374v-581.884q0-31.06 22.38-53.486 22.38-22.427 53.374-22.427h581.884q31.06 0 53.486 22.427 22.427 22.426 22.427 53.486v581.884q0 30.994-22.427 53.374-22.426 22.38-53.486 22.38H189.058Zm141.253-285.102h55.506q14.523 0 24.353-10.224 9.83-10.224 9.83-24.703v-23.573q0-7.208-5.417-12.615-5.416-5.406-12.639-5.406-7.35 0-12.788 5.406-5.438 5.407-5.438 12.615v21.979h-51.979v-90.146h68.667q7.304 0 12.782-5.375 5.479-5.376 5.479-12.743t-5.479-12.885q-5.478-5.518-12.782-5.518h-70.093q-14.909 0-24.883 9.974-9.974 9.974-9.974 24.953v93.334q0 14.979 9.974 24.953t24.881 9.974Zm149.547 0q7.367 0 12.885-5.478t5.518-12.783v-126.666q0-7.305-5.376-12.783t-12.743-5.478q-7.367 0-12.885 5.478t-5.518 12.783v126.666q0 7.305 5.376 12.783t12.743 5.478Zm78.346 0q7.281 0 12.68-5.478 5.398-5.478 5.398-12.783v-38.789h48.646q7.208 0 12.615-5.405 5.406-5.404 5.406-12.742 0-7.339-5.406-12.737-5.407-5.399-12.615-5.399h-48.646v-33.334h68.369q7.469 0 12.884-5.375 5.414-5.376 5.414-12.743t-5.414-12.885q-5.415-5.518-12.846-5.518h-86.428q-7.305 0-12.783 5.478T540-543.333v126.906q0 7.208 5.461 12.615 5.461 5.406 12.743 5.406Z"/></svg>