<svg xmlns="http://www.w3.org/2000/svg" height="40" viewBox="0 -960 960 960" width="40"><path d="m153.333-408.724 90.406-89.072-90.406-90.246-88.912 90.246 88.912 89.072Zm559.609-13.667 93.725-150.652 94.63 150.652H712.942ZM480-482.949q-51.355 0-87.272-35.917-35.916-35.917-35.916-87.272 0-52.275 35.916-87.732 35.917-35.456 87.272-35.456 52.275 0 87.732 35.456 35.456 35.457 35.456 87.732 0 51.355-35.456 87.272-35.457 35.917-87.732 35.917ZM-3.188-274.688v-21.645q0-42.331 43.67-67.926 43.67-25.596 113.117-25.596 10.844 0 20.691.381 9.847.38 19.572 1.879-10.319 18.82-15.677 39.236-5.359 20.415-5.359 43.359v68.188H34.688q-16 0-26.938-10.938-10.938-10.938-10.938-26.938Zm240 0V-305q0-66.515 67.416-107.352Q371.645-453.188 480-453.188q109.515 0 176.352 40.836Q723.188-371.515 723.188-305v30.312q0 16-10.938 26.938-10.938 10.938-26.938 10.938H274.688q-16 0-26.938-10.938-10.938-10.938-10.938-26.938Zm569.855-115.167q70.514 0 113.518 25.596 43.003 25.595 43.003 67.926v21.645q0 16-10.938 26.938-10.938 10.938-26.938 10.938H787.174V-305q0-22.944-4.859-43.359-4.858-20.416-14.923-39.236 9.724-1.499 19.411-1.879 9.687-.381 19.864-.381Z"/></svg>