<svg xmlns="http://www.w3.org/2000/svg" height="40" viewBox="0 -960 960 960" width="40"><path d="M225.333-25.333q-83.159 0-141.58-58.42-58.42-58.421-58.42-141.58 0-12.273 8.16-20.426 8.16-8.154 20.442-8.154t20.5 8.154q8.217 8.153 8.217 20.426 0 59.682 41.499 101.182 41.5 41.5 101.182 41.5 12.273 0 20.426 8.239 8.154 8.239 8.154 20.521 0 12.283-8.154 20.42-8.153 8.138-20.426 8.138Zm704.718-715.769q-12.283 0-20.42-8.142-8.138-8.143-8.138-20.597 0-51.326-36.177-87.503-36.178-36.178-87.504-36.178-12.454 0-20.596-8.16-8.143-8.159-8.143-20.442 0-12.282 8.143-20.499 8.142-8.218 20.596-8.218 75 0 128 53t53 128q0 12.454-8.239 20.597-8.24 8.142-20.522 8.142ZM402.065-33.384q-28.625 0-54.381-13.192t-41.503-37.417L66.631-442.536q-6.667-10.319-4.721-22.678 1.945-12.358 11.365-20.358 18.761-16.334 43.345-20.04 24.583-3.707 49.008 14.186l111.742 82.738v-401.725q0-15.159 10.444-25.562 10.445-10.402 25.667-10.402 15.222 0 25.519 10.402 10.297 10.403 10.297 25.562v333.043h94.254v-414.638q0-15.159 10.334-25.561t25.556-10.402q15.222 0 25.55 10.402 10.328 10.402 10.328 25.561v414.638h94.254v-373.522q0-15.159 10.436-25.561t25.644-10.402q15.141 0 25.414 10.402 10.274 10.402 10.274 25.561v373.522h93.587v-293.444q0-15.28 10.445-25.661 10.445-10.38 25.666-10.38 15.222 0 25.519 10.402 10.297 10.402 10.297 25.561v581.544q0 65.116-45.424 110.54-45.424 45.424-110.539 45.424H402.065Z"/></svg>