<svg xmlns="http://www.w3.org/2000/svg" height="40" viewBox="0 -960 960 960" width="40"><path d="M827.334-165.196h-49.457q-11.957 0-19.776-8.025-7.818-8.025-7.818-20.298 0-12.274 8.007-19.903t20.254-7.629h48.79v-49.456q0-11.854 8.025-19.605 8.025-7.75 20.298-7.75 12.17 0 19.731 7.641 7.561 7.64 7.561 19.714v49.456h49.457q11.957 0 19.776 7.614Q960-205.823 960-193.549q0 12.273-7.618 20.313-7.619 8.04-19.976 8.04h-49.457v49.457q0 11.853-7.544 19.604-7.545 7.75-19.713 7.75-12.167 0-20.263-8.007-8.095-8.007-8.095-20.253v-48.551Zm-302.667 62.145v-192.384q0-11.854 7.818-19.604 7.819-7.751 19.776-7.751h114.406q24.564 0 40.09 15.304 15.526 15.305 15.526 39.645v46.62q0 21.54-10.649 34.464-10.648 12.924-28.982 21.242l21.978 52.762q5.812 13.623-1.797 25.46-7.609 11.837-22.827 11.837-8.622 0-15.274-4.613-6.652-4.612-9.971-12.185L627.66-157.79h-48.044v54.979q0 11.853-7.745 19.604-7.745 7.75-19.59 7.75-11.845 0-19.729-7.818-7.885-7.818-7.885-19.776Zm54.949-108.811h87.718v-55.979h-87.718v55.979ZM54.949-183.971v81.16q0 11.853-7.745 19.604-7.745 7.75-19.59 7.75-11.845 0-19.73-7.75Q0-90.957 0-102.811v-192.624q0-11.854 7.814-19.604 7.814-7.751 19.765-7.751 11.848 0 19.609 7.751 7.761 7.75 7.761 19.604v57.87h85.718v-57.87q0-11.854 7.814-19.604 7.814-7.751 19.765-7.751 11.847 0 19.609 7.751 7.761 7.75 7.761 19.604v192.624q0 11.853-7.745 19.604-7.745 7.75-19.59 7.75-11.845 0-19.73-7.818-7.884-7.818-7.884-19.776v-80.92H54.949ZM262-103.051v-192.384q0-11.854 7.818-19.604 7.819-7.751 19.776-7.751H402q24.564 0 39.756 15.304 15.193 15.305 15.193 39.645v137.435q0 24.564-15.193 39.757Q426.564-75.457 402-75.457H289.594q-11.957 0-19.776-7.818Q262-91.093 262-103.05Zm54.949-27.355H402v-137.435h-85.051v137.435Zm373.855-408.739-57.732-57.732q5.015-13.724 7.776-26.455 2.761-12.732 2.761-26.951 0-67.241-48.184-115.425T480-813.892q-14.515 0-28.098 2.888-13.584 2.888-24.881 7.41l-58.985-58.747q24-12.079 51.893-19.771 27.893-7.693 60.119-7.693 99.502 0 169.488 69.894t69.986 169.622q0 29.39-7.2 58.148-7.199 28.757-21.518 52.996ZM480-411.16q-99.575 0-169.469-69.774-69.893-69.774-69.893-169.392 0-29.913 7.398-59.856 7.399-29.942 23.29-56.804l-37.072-37.073q-10.384-10.065-10.384-24.269 0-14.204 10.384-24.549 10.225-10.225 24.29-10.225t24.289 10.225l405.095 404.855q10.065 10.225 10.145 24.29.079 14.065-10.145 24.29-10.322 10.384-24.489 10.384-14.168 0-24.489-10.384l-42.486-42.406q-24.533 14.797-55.417 22.742-30.885 7.946-61.047 7.946Zm59.957-88.529-210.79-210.79q-6.761 14.348-9.769 30.038-3.007 15.69-3.007 30.158 0 67.241 48.184 115.305Q412.759-486.913 480-486.913q15.187 0 31.065-3.341 15.877-3.34 28.892-9.435Zm-9.791-200.666Zm-95.151 94.818Z"/></svg>