<svg xmlns="http://www.w3.org/2000/svg" height="40" viewBox="0 -960 960 960" width="40"><path d="M837.521-217.224 618.609-435.898q8.151-16.387 24.755-27.73t38.969-11.343h79.276v-52.609q0-120.645-84.616-206.674Q592.377-820.283 472-820.283q-48.417 0-93.473 15.808-45.057 15.808-82.325 45.584l-55.043-54.696q44.282-37.159 103.633-59.884 59.352-22.725 127.229-22.725 76 0 142.716 28.834 66.716 28.835 116.081 79.075 49.365 50.24 78.034 117.282 28.669 67.042 28.669 143.457v310.324ZM508.202-40.384q-15.564 0-25.883-10.2Q472-60.782 472-76.347q0-15.497 10.319-25.77t25.883-10.273h238.726l-49.333-49.334h-17.334q-29.58 0-51.71-21.589-22.131-21.589-22.131-52.251v-17.334L209.294-650.298q-14.367 26.667-21.969 58.87-7.601 32.203-7.601 63.848v52.609h79.435q31.421 0 53.587 22.213 22.166 22.213 22.166 53.7v161.421q0 31.572-22.166 53.742-22.166 22.17-53.587 22.17h-79.435q-30.994 0-53.373-22.426-22.38-22.427-22.38-53.486V-527.58q0-51.13 12.684-97.678 12.685-46.547 34.526-83.214L49.224-810.428q-9.76-9.761-9.38-23.214.38-13.453 10.3-23.453 10-9.746 23.707-9.873 13.707-.126 23.69 9.859L861.82-92.659q9.667 9.654 9.667 23.134t-9.667 23.467q-10 9.986-23.619 10.2-13.62.213-22.844-9.012l-10.479-9.811q-8.022 6.623-19.268 10.46-11.247 3.837-24 3.837H508.202Z"/></svg>