<svg xmlns="http://www.w3.org/2000/svg" height="40" viewBox="0 -960 960 960" width="40"><path d="M433.334-453.334v72.928q0 10.846 8.113 18.959t18.959 8.113H500.5q11.318 0 18.742-8.113 7.424-8.113 7.424-18.959v-72.928H600.5q11.318 0 18.742-8.113 7.424-8.113 7.424-18.959V-520.5q0-11.318-7.424-18.742-7.424-7.424-18.742-7.424h-73.834V-620.5q0-11.318-7.424-18.742-7.424-7.424-18.742-7.424h-40.094q-10.846 0-18.959 7.424t-8.113 18.742v73.834h-72.928q-10.846 0-18.959 7.424t-8.113 18.742v40.094q0 10.846 8.113 18.959t18.959 8.113h72.928ZM480-77.624q-6.597 0-12.434-1.119-5.838-1.12-11.515-3.358-139.022-46.493-220.884-170.32-81.863-123.827-81.863-268.317V-712.5q0-24.121 13.598-43.529 13.598-19.407 35.634-27.906l250.942-93.79q13.355-4.891 26.522-4.891 13.167 0 26.522 4.891l250.942 93.79q22.036 8.499 35.714 27.906 13.677 19.408 13.677 43.529v191.762q0 144.49-81.942 268.317T503.949-82.101q-5.677 2.239-11.515 3.358-5.837 1.12-12.434 1.12Zm0-74.528q109.978-37.609 180.46-139.746 70.482-102.138 70.482-228.796V-712.5L480-806.957 229.058-712.5v191.806q0 126.658 70.482 228.796Q370.022-189.761 480-152.152Zm0-327.529Z"/></svg>