<svg xmlns="http://www.w3.org/2000/svg" height="40" viewBox="0 -960 960 960" width="40"><path d="M111.927-196.014q-31.726 0-53.82-22.094-22.093-22.093-22.093-53.819v-416.305q0-31.493 22.094-53.623 22.093-22.131 53.819-22.131h416.305q31.493 0 53.623 22.131 22.131 22.13 22.131 53.623v416.305q0 31.726-22.131 53.819-22.13 22.094-53.623 22.094H111.927Zm608.073-320q-18.574 0-31.28-12.706T676.014-560v-160q0-18.574 12.706-31.28T720-763.986h160q18.574 0 31.28 12.706T923.986-720v160q0 18.574-12.706 31.28T880-516.014H720Zm0 320q-18.574 0-31.28-12.706T676.014-240v-160q0-18.574 12.706-31.28T720-443.986h160q18.574 0 31.28 12.706T923.986-400v160q0 18.574-12.706 31.28T880-196.014H720ZM420-326.667q22.333 0 37.833-15.833t15.5-37.5q0-22.333-15.5-37.833T420-433.333q-21.667 0-37.5 15.5-15.833 15.5-15.833 37.833 0 21.667 15.833 37.5 15.833 15.833 37.5 15.833Zm-178.667-28 204-204Q455-568.333 455-582q0-13.667-9.667-23.333Q435.667-615 422-615q-13.667 0-23.333 9.667l-204 204Q185-391.667 185-378q0 13.667 9.667 23.333Q204.333-345 218-345q13.667 0 23.333-9.667Zm-21.333-172q22.333 0 37.833-15.833t15.5-37.5q0-22.333-15.5-37.833T220-633.333q-21.667 0-37.5 15.5-15.833 15.5-15.833 37.833 0 21.667 15.833 37.5 15.833 15.833 37.5 15.833Z"/></svg>