<svg xmlns="http://www.w3.org/2000/svg" height="40" viewBox="0 -960 960 960" width="40"><path d="M439.761-498.812Zm0 387.232-99.086-90.456q-93.284-84.819-152.798-144.993-59.515-60.174-93.953-107.277t-47.648-87.325q-13.21-40.223-13.21-84.666 0-95.079 63.583-159.293 63.584-64.215 156.445-64.215 55.237 0 103.006 24.283 47.77 24.283 83.661 70.421 39.225-47.472 86.045-71.087 46.82-23.617 100.622-23.617 90.01 0 154.979 63.001 64.97 63 64.97 160.507 0 25.674-4.174 46.725-4.174 21.051-10.363 35.029H751.833q6.682-16.696 12.443-39.087 5.761-22.392 5.761-43.159 0-65.783-44.881-106.443t-98.728-40.66q-49.406 0-91.232 29.595-41.826 29.594-67.065 81.797h-57.008q-24.637-51.536-66.933-81.464-42.295-29.928-91.046-29.928-61.666 0-102.876 41.894-41.21 41.894-41.21 105.64 0 35.3 12.887 69.263 12.887 33.964 48.929 79.415 36.043 45.452 100.871 108.406 64.829 62.954 168.016 156.992 28.485-25.884 55.605-49.681 27.119-23.797 51.75-45.348l8.321 8.359q8.32 8.358 18.306 18.054 9.985 9.696 18.367 18.037l8.382 8.34q-24.456 22.108-52.117 46.078-27.66 23.97-57.245 50.798l-51.369 46.065Zm147.724-290.543v-75.754h329.087v75.754H587.485Z"/></svg>