<svg xmlns="http://www.w3.org/2000/svg" height="40" viewBox="0 -960 960 960" width="40"><path d="M480.047-238.087q-100.844 0-171.402-70.558Q238.087-379.203 238.087-480q0-100.797 70.558-171.435T480-722.073q100.797 0 171.435 70.591t70.638 171.435q0 100.844-70.591 171.402-70.591 70.558-171.435 70.558Zm-25.532-72.398v-108.414l-76.233 76.232q16.918 13.356 35.872 21.722 18.955 8.366 40.361 10.46Zm50.97 0q21.328-2.684 40.267-11.327 18.938-8.642 35.966-20.855l-76.233-76.232v108.414Zm112.088-67.718q12.71-16.884 21.532-35.942 8.823-19.058 11.077-40.37H541.26l76.313 76.312ZM541.26-505.485h108.255q-2.018-21.328-10.406-40.346-8.389-19.019-21.776-35.887l-76.073 76.233Zm-35.775-35.775 76.233-76.073q-17.077-12.689-35.952-21.388-18.875-8.7-40.281-10.794v108.255Zm-25.351 92.521q13.163 0 22.225-9.116 9.061-9.115 9.061-22.279 0-13.163-9.148-22.225-9.147-9.061-22.358-9.061t-22.193 9.148q-8.982 9.147-8.982 22.358t9.116 22.193q9.115 8.982 22.279 8.982Zm-25.619-92.521v-108.255q-21.328 1.351-40.346 10.073-19.019 8.722-35.887 22.109l76.233 76.073Zm-144.03 35.775h108.414l-76.232-76.233q-12.72 17.028-21.442 35.966-8.722 18.939-10.74 40.267Zm31.942 127.203 76.472-76.233H310.485q2.656 21.328 10.982 40.346 8.327 19.019 20.96 35.887ZM189.058-113.304q-30.994 0-53.374-22.38-22.38-22.38-22.38-53.374v-581.884q0-31.06 22.38-53.486 22.38-22.427 53.374-22.427h581.884q31.06 0 53.486 22.427 22.427 22.426 22.427 53.486v581.884q0 30.994-22.427 53.374-22.426 22.38-53.486 22.38H189.058Zm0-75.754h581.884v-581.884H189.058v581.884Zm0-581.884v581.884-581.884Z"/></svg>