<svg xmlns="http://www.w3.org/2000/svg" height="40" viewBox="0 -960 960 960" width="40"><path d="m846.855-230.623-75.913-75.753v-464.566H306.376l-75.753-75.913h540.319q31.06 0 53.486 22.427 22.427 22.426 22.427 53.486v540.319ZM189.058-113.304q-30.994 0-53.374-22.38-22.38-22.38-22.38-53.374v-550.667l-40.797-40.797q-10.225-10.225-10.304-24.743-.08-14.518 10.225-24.742 10.306-10.384 24.782-10.384 14.477 0 24.782 10.384l708.682 708.681q10.225 10.225 10.304 24.29.08 14.065-10.304 24.45-10.224 10.224-24.742 10.224t-24.743-10.225l-41.464-40.717H189.058Zm389.015-162.305H271.464q-11.555 0-16.76-10.215-5.204-10.216 2.18-20.118l80.812-106.667q5.731-7.463 14.688-7.702 8.956-.24 15.166 7.144l79.783 104.131 42.421-54.812-300.696-300.537v475.327h475.327l-86.312-86.551Zm-39-263.464ZM427.181-427.181Z"/></svg>