<svg xmlns="http://www.w3.org/2000/svg" height="40" viewBox="0 -960 960 960" width="40"><path d="M186.666-73.862q-30.993 0-53.373-22.38t-22.38-53.374v-189.717L243.16-485.914l54.123 54.283-104.617 114.964h574.827l-99.682-112.776 54.283-54.282 127.153 144.392v189.717q0 30.994-22.427 53.374-22.427 22.38-53.486 22.38H186.666Zm0-75.754h586.668V-250H186.666v100.384Zm243.052-241.522L281.181-540.153q-23.043-23.282-21.623-53.822 1.42-30.54 23.956-53.076l202.682-202.681q21.666-21.417 53.277-21.991 31.612-.574 54.143 21.882l148.536 148.935q21.87 21.949 22.258 52.362.387 30.413-23.482 54.283L537.471-390.804q-21.71 21.71-53.21 22.249-31.5.54-54.543-22.583Zm253.391-258.63L540.094-792.225 339.891-591.862l142.776 142.536 200.442-200.442ZM186.666-149.616V-250v100.384Z"/></svg>