<svg xmlns="http://www.w3.org/2000/svg" height="40" viewBox="0 -960 960 960" width="40"><path d="M186.666-73.862q-30.993 0-53.373-22.38t-22.38-53.374v-189.717L243.16-485.914l54.123 54.283-104.617 114.964h574.827l-99.682-112.776 54.283-54.282 127.153 144.392v189.717q0 30.994-22.427 53.374-22.427 22.38-53.486 22.38H186.666Zm242.957-317.182L281.275-540.058q-23.043-23.283-21.67-53.87 1.373-30.587 23.909-53.123l202.682-202.681q21.71-21.71 53.299-22.044 31.59-.333 54.121 22.283l148.536 148.587q21.87 21.949 22.131 52.489.261 30.54-23.45 54.25L537.377-390.71q-21.87 21.869-53.29 22.409-31.42.54-54.464-22.743Zm253.486-258.818L540-792.225 339.558-591.862 482.667-449.42l200.442-200.442Z"/></svg>