<svg xmlns="http://www.w3.org/2000/svg" height="40" viewBox="0 -960 960 960" width="40"><path d="M113.333-72.507q-16 0-26.938-10.972-10.938-10.972-10.938-27.022 0-16.049 10.938-26.904t26.938-10.855h122.123v-96.813h-45.362q-30.788 0-52.713-21.994-21.925-21.995-21.925-52.643v-449.08q0-31.326 22.214-53.54t53.54-22.214h176.544q31.559 0 53.736 22.214 22.177 22.214 22.177 53.54v55.551H334.384q-6.667 0-11.667 5t-5 11.667q0 6.666 5 11.666t11.667 5h112.08v45.073h-112.08q-6.667 0-11.667 5t-5 11.666q0 6.667 5 11.667t11.667 5h127.16q14.608 22.819 36.962 37.997 22.354 15.178 48.617 23.445l101.225 28.37q51.355 14.797 82.978 56.787 31.623 41.99 31.623 95.343v41.442q0 30.21-21.416 51.627-21.417 21.416-51.627 21.416h-45.362v96.813h82.049q51.178 0 86.687-35.55 35.51-35.55 35.51-86.574 0-16 10.972-26.938 10.972-10.938 27.022-10.938 16.049 0 26.905 10.938 10.855 10.938 10.855 26.938 0 82.119-57.879 139.998-57.879 57.879-139.998 57.879H113.333ZM311.21-148.26h257.58v-96.813H311.21v96.813Z"/></svg>