<svg xmlns="http://www.w3.org/2000/svg" height="40" viewBox="0 -960 960 960" width="40"><path d="M113.304-560.333q0-49.232 29.761-93.678t81.45-59.793q18.26-94.979 90.706-153.656Q387.667-926.138 480-926.138q92.652 0 164.406 58.518 71.753 58.518 91.079 153.497 51.689 15.348 81.53 59.993 29.84 44.645 29.84 93.797 0 76.514-56.489 121.572-56.489 45.058-123.199 36.377L513.413-100.261q-5.638 10.276-14.627 15.62-8.989 5.344-19.105 5.344-10.275 0-19.645-5.344-9.369-5.344-14.34-15.62L294.515-402.384q-71.979 8.681-126.595-36.217-54.616-44.899-54.616-121.732Zm366.377 362.899 114.16-223.414-4-4q-25.073 12.645-53.921 18.554-28.848 5.91-53.92 5.91-28.261 0-57.674-5.91-29.413-5.909-52.913-18.554l-4 3.334 112.268 224.08Z"/></svg>