<svg xmlns="http://www.w3.org/2000/svg" height="40" viewBox="0 -960 960 960" width="40"><path d="M521-72.029q-61.036 0-152.391-17.018-91.355-17.018-146.392-58.576-30.478-23.239-64.036-73.036T96.605-329.413Q68.587-388.37 50.308-447.406 32.028-506.442 32.028-548q0-87.073 59.037-142.326 59.036-55.254 126.71-99.529 61.037-39.558 135.073-68.837Q426.884-887.971 506-887.971q79.116 0 143.891 30.279 64.776 30.279 128.653 74.076 15.318 10.239 39.916 30.757t48.656 51.355q24.058 30.837 41.957 72.493 17.898 41.656 18.898 94.772 2 75.594-31.177 157.529-33.178 81.935-89.874 149.551-56.695 67.616-131.13 111.373Q601.355-72.029 521-72.029Zm-1-73.84q64.746 0 125.446-37.373 60.699-37.374 107.739-94.62 47.04-57.246 74.993-125.239Q856.131-471.094 854.131-532q-2-73.478-43.493-120.598-41.493-47.12-73.826-69.294-53.239-35.826-108.906-64.032Q572.239-814.131 506-814.131q-68.239 0-134.239 26.667t-119.413 62.333q-41.906 28-94.693 72.486Q104.869-608.159 104.869-552q0 33.413 16.207 84.826 16.206 51.413 40.453 103.239 24.246 51.827 52.286 95.66 28.04 43.833 51.866 61.5 37.174 28.333 114.627 44.62Q457.761-145.869 520-145.869Zm-106-98.167q51.942 0 85.953-36.917T533.964-364q0-21.384-8.787-41.989-8.786-20.605-28.01-38.417-22.508-20.427-36.975-44.695-14.468-24.269-21.228-54.124-9.573-42.289-42.124-67.514-32.55-25.225-72.84-25.225-47.37 0-83.667 36.297Q204.036-563.37 204.036-516q0 37.985 16.192 85.13 16.192 47.145 44.591 88.544 28.398 41.398 66.757 69.844 38.359 28.446 82.424 28.446Zm0-71.928q-27.188 0-52.123-22.887-24.935-22.888-44.037-54.529-19.101-31.642-30.489-65.703-11.387-34.062-11.387-56.917 0-18.123 14.956-33.08 14.957-14.956 33.08-14.956 13.203 0 27.279 9.315t18.757 27.946q10.334 41.891 28.406 74.376 18.073 32.486 50.391 61.645 6.856 6.095 10.029 13.497 3.174 7.402 3.174 15.257 0 17.63-13.242 31.833-13.243 14.203-34.794 14.203Zm236-128.072q14.891 0 24.909-9.993 10.018-9.993 10.815-24.058v-18.594l17.421 8.63q12.891 5.681 26.123 2.156 13.232-3.525 20.884-16.083 7.986-12.399 5.225-26.75-2.761-14.352-14.855-21.308L720.594-560l19.928-9.964q12.094-6.956 14.355-20.982 2.261-14.025-4.725-26.996-6.985-12.558-20.551-15.623-13.565-3.065-26.456 2.616l-17.421 8.63v-19.514q-.557-14.652-10.695-24.392-10.138-9.739-25.029-9.739-14.225 0-24.696 9.739-10.471 9.74-11.028 24.392v20.181l-17.167-9.297q-12.718-6.348-26.116-2.489-13.399 3.858-21.145 16.416-6.986 12.399-4.232 26.917 2.754 14.518 15.101 21.221l18.501 7.869-17.167 11.551q-12 8.464-15.554 21.776-3.555 13.311 3.351 25.471 7.652 13.05 21.058 16.782 13.406 3.732 26.203-2.616l17.167-9.297v19.261q.797 14.065 11.148 24.058 10.351 9.993 24.576 9.993ZM482-480Z"/></svg>