<svg xmlns="http://www.w3.org/2000/svg" height="40" viewBox="0 -960 960 960" width="40"><path d="M514.667-251.92q48-23.666 94.833-35.5 46.833-11.833 98.5-11.833 37.334 0 75.834 6t69.5 16.667v-418.001q-33.667-16.16-70.834-23.747-37.166-7.587-74.5-7.587-51.667 0-100.667 15-49 15.001-92.666 43.001v416Zm-32.696 91.696q-10.096 0-19.185-2.167-9.09-2.166-16.488-7.152-44.095-26.92-93.5-41.699Q303.393-226.021 252-226.021q-38.014 0-74.217 9.786-36.203 9.786-71.392 24.641-25.043 12.514-48.786-2.252-23.743-14.767-23.743-42.959v-469.093q0-16.377 7.576-30.34 7.576-13.962 22.729-21.443 44.065-20.761 91.177-30.982 47.112-10.221 96.08-10.221 61.67 0 119.996 16.413 58.326 16.413 109.913 50.305 51-33.653 108.62-50.185 57.62-16.533 118.623-16.533 48.968 0 95.747 10.34 46.778 10.341 90.844 30.863 15.152 7.481 23.061 21.443 7.91 13.963 7.91 30.34v472.043q0 28.652-24.29 42.753-24.29 14.102-48.906-.492-34.522-15.522-70.721-24.975-36.2-9.452-74.209-9.452-50.693 0-98.936 14.898-48.243 14.899-91.591 41.58-7.239 4.986-16.328 7.152-9.09 2.167-19.186 2.167Z"/></svg>