<svg xmlns="http://www.w3.org/2000/svg" height="40" viewBox="0 -960 960 960" width="40"><path d="M823.327-301.739q-24.232 0-41.243-16.993-17.011-16.993-17.011-41.268v-100q0-24.249 17.037-41.255 17.037-17.006 41.375-17.006 24.153 0 41.131 17.006T881.594-460v100q0 24.275-17.017 41.268-17.018 16.993-41.25 16.993Zm-18.254 130.891v-46.326q-48.689-7.558-84.071-41.237-35.382-33.68-40.828-82.219-1.239-7.07 4.319-11.553 5.558-4.484 12.862-4.484t13.001 4.066q5.697 4.065 7.006 11.05 6.826 37.928 36.41 63.678 29.583 25.75 69.569 25.75 39.918 0 69.401-25.457 29.483-25.456 36.468-63.304 1.493-7.225 7.177-11.504 5.684-4.279 13.05-4.279 7.348 0 12.702 4.814 5.354 4.815 4.274 11.969-5.745 48.701-41.104 81.927-35.36 33.225-83.715 40.783v46.326q0 7.305-5.375 12.783-5.376 5.478-12.743 5.478t-12.885-5.478q-5.518-5.478-5.518-12.783Zm-430.471-326.71q-68.341-2.392-110.837-47.479-42.496-45.087-42.496-111.753 0-66.667 42.616-111.714t110.956-47.677q7.11 0 17.637 1.374 10.528 1.374 19.486 3.604-27.116 31.558-41.71 70.329-14.594 38.772-14.594 84.004 0 45.232 14.235 83.964 14.236 38.732 41.75 70.369-9.601 2.908-19.712 3.943-10.112 1.036-17.331 1.036ZM25.412-223.239v-33.462q0-34.98 16.099-61.462 16.097-26.481 46.93-45.184 35.718-21.812 88.012-37.577 52.294-15.764 118.258-23.445-56.03 31.116-79.207 74.355-23.178 43.238-23.178 93.297v31.087q0 19.058 5.055 37.877 5.055 18.818 16.916 37.876H98.934q-30.449 0-51.985-21.536-21.536-21.536-21.536-51.826Zm556.915-273.522q-66.747 0-113.374-46.623-46.627-46.623-46.627-113.37 0-66.746 46.623-113.366 46.622-46.619 113.369-46.619t113.486 46.665q46.739 46.666 46.739 113.316 0 66.749-46.735 113.373-46.735 46.624-113.481 46.624Zm-.008-75.754q35.333 0 59.822-24.745 24.489-24.746 24.489-59.495 0-35.332-24.454-59.782-24.454-24.449-59.453-24.449t-59.821 24.493q-24.823 24.492-24.823 59.396 0 35.003 24.746 59.793 24.745 24.789 59.494 24.789ZM258.992-225.63v-31.087q0-36.659 19.077-66.841 19.076-30.181 52.003-45.391 48.334-22.667 111.631-41.906Q505-430.094 582.355-430.094q8.44 0 20.136.779 11.697.779 20.958 1.352-8.609 17.833-13.562 36.67-4.953 18.837-6.235 37.67-4.594-.319-10.614-.438-6.019-.12-10.683-.12-71.123 0-123.573 16.331-52.449 16.331-95.116 36.38-14 7.014-21.46 18.928-7.46 11.914-7.46 26.622v30.29h300.725q12.094 21.724 31.221 41.514 19.126 19.79 43.612 34.239H334.746q-31.326 0-53.54-22.213-22.214-22.214-22.214-53.54Zm323.363-431.16Zm0 431.16Z"/></svg>