<svg xmlns="http://www.w3.org/2000/svg" height="40" viewBox="0 -960 960 960" width="40"><path d="M823.333-301.739q-24.224 0-41.242-17.018-17.018-17.018-17.018-41.243v-100q0-24.304 17.018-41.283 17.018-16.978 41.242-16.978 24.305 0 41.283 16.978 16.978 16.979 16.978 41.283v100q0 24.225-16.978 41.243t-41.283 17.018ZM374.602-497.558q-68.341-2.392-110.837-47.479-42.496-45.087-42.496-111.753 0-66.667 42.616-111.714t110.956-47.677q7.022 0 17.609 1.387 10.587 1.388 19.514 3.591-27.116 31.558-41.71 70.329-14.594 38.772-14.594 84.084 0 45.152 14.235 83.884 14.236 38.732 41.75 70.369-9.594 3.029-19.728 4.004-10.134.975-17.315.975Zm207.753.797q-66.71 0-113.37-46.66-46.659-46.659-46.659-113.369 0-66.71 46.659-113.33 46.66-46.619 113.37-46.619 66.71 0 113.449 46.619 46.739 46.62 46.739 113.33 0 66.71-46.739 113.369-46.739 46.66-113.449 46.66ZM258.992-149.877v-106.84q0-36.659 19.077-66.841 19.076-30.181 52.003-45.391 48.334-22.667 111.631-41.906Q505-430.094 582.355-430.094q8.449 0 20.141.779 11.692.779 20.953 1.352-35.725 76.282-10.435 155.775 25.29 79.492 97.29 122.311H258.992Zm546.081-20.971v-46.326q-48.689-7.558-84.095-41.08-35.405-33.521-40.804-82.376-1.239-7.145 4.319-11.591t12.942-4.446q7.224 0 12.909 4.066 5.685 4.065 7.018 11.05 6.826 37.928 36.435 63.678t69.536 25.75q39.928 0 69.41-25.457 29.482-25.456 36.467-63.304 1.493-7.225 7.345-11.504 5.851-4.279 12.916-4.279 7.384 0 12.703 4.779 5.319 4.779 4.239 12.004-5.811 48.681-41.138 81.917-35.326 33.235-83.681 40.793v46.326q0 7.225-5.398 12.743-5.399 5.518-12.863 5.518-7.224 0-12.742-5.518-5.518-5.518-5.518-12.743Zm-779.66-52.391v-33.478q0-34.964 16.098-61.446 16.097-26.481 46.93-45.184 35.718-21.812 88.012-37.577 52.294-15.764 118.258-23.445-56.03 31.116-79.207 74.384-23.178 43.268-23.178 93.268v31.087q0 19.058 5.17 37.877 5.171 18.818 16.801 37.876H98.934q-30.616 0-52.068-21.452-21.453-21.453-21.453-51.91Z"/></svg>