<svg xmlns="http://www.w3.org/2000/svg" height="40" viewBox="0 -960 960 960" width="40"><path d="m480-296.855 166.812-166.717q11.022-11.022 26.395-11.069 15.373-.047 26.648 11.069 11.022 11.021 11.022 26.521t-11.022 26.522L506.761-217.195q-5.891 5.891-12.594 8.576-6.703 2.684-14.167 2.684-7.464 0-14.167-2.684-6.703-2.685-12.594-8.576L260.145-410.529q-11.022-11.022-11.149-26.395-.127-15.373 11.149-26.648 11.021-11.022 26.521-11.022t26.522 11.022L480-296.855Zm0-254.804 166.812-166.718q11.022-11.022 26.395-11.069 15.373-.047 26.648 11.308 11.022 11.022 11.022 26.522 0 15.5-11.022 26.521L506.761-472q-5.891 5.891-12.594 8.576-6.703 2.685-14.167 2.685-7.464 0-14.167-2.685-6.703-2.685-12.594-8.576L260.145-665.095q-11.022-11.021-11.149-26.355-.127-15.333 11.149-26.688 11.021-11.261 26.521-11.261t26.761 11.261L480-551.659Z"/></svg>