<svg xmlns="http://www.w3.org/2000/svg" height="40" viewBox="0 -960 960 960" width="40"><path d="M480-406.247q-48.522 0-81.674-34.43-33.152-34.43-33.152-83.729v-245.978q0-47.474 33.446-80.817 33.447-33.343 81.341-33.343 47.894 0 81.459 33.343 33.565 33.343 33.565 80.817v245.978q0 49.299-33.232 83.729-33.231 34.43-81.753 34.43Zm-36.282 262.001v-96.022q-97.537-11.747-168.164-79.819-70.627-68.073-83.344-167.037-2.319-15.351 7.953-26.317 10.272-10.965 25.819-10.965 15.547 0 26.123 10.79t13.721 26.398q13.543 78.131 74.767 127.584t139.171 49.453q79.193 0 140.03-49.62 60.837-49.619 74.54-127.417 2.985-15.608 13.678-26.398 10.693-10.79 26.185-10.79 15.492 0 25.582 11.085 10.091 11.085 7.931 26.437-12.876 97.471-82.884 166.17-70.007 68.699-168.544 80.446v96.022q0 15.442-10.533 25.942-10.534 10.5-25.866 10.5-15.332 0-25.749-10.5-10.416-10.5-10.416-25.942Z"/></svg>