<svg xmlns="http://www.w3.org/2000/svg" height="40" viewBox="0 -960 960 960" width="40"><path d="M815.95-435.993 673.558-235.239q-13.609 19.167-33.308 30.551-19.699 11.384-42.96 11.384H189.058q-31.249 0-53.501-22.253-22.253-22.252-22.253-53.501v-421.884q0-31.314 22.253-53.614 22.252-22.299 53.501-22.299H597.29q23.261 0 42.963 11.583 19.702 11.584 33.305 30.511L815.95-524.007q14.086 20.1 14.086 44.028 0 23.928-14.086 43.986ZM604.623-269.058 752.79-480 604.607-690.942H189.058v421.884h415.565ZM189.058-690.942v421.884-421.884Z"/></svg>