<svg xmlns="http://www.w3.org/2000/svg" height="40" viewBox="0 -960 960 960" width="40"><path d="M68.75-110.195q-14.94 0-24.914-10.076-9.974-10.075-9.974-24.969 0-14.86 9.974-24.795 9.974-9.936 24.915-9.936h822.498q14.941 0 24.915 10.036 9.974 10.035 9.974 24.869t-9.974 24.852q-9.974 10.019-24.915 10.019H68.751Zm80.308-123.109q-30.994 0-53.374-22.38-22.38-22.38-22.38-53.374v-461.884q0-31.06 22.38-53.486 22.38-22.427 53.374-22.427h661.884q31.06 0 53.486 22.427 22.427 22.426 22.427 53.486v461.884q0 30.994-22.427 53.374-22.426 22.38-53.486 22.38H149.058Zm0-75.754h661.884v-461.884H149.058v461.884Zm0 0v-461.884 461.884Z"/></svg>