<svg xmlns="http://www.w3.org/2000/svg" height="40" viewBox="0 -960 960 960" width="40"><path d="m502.804-492.731-68.699-68.366q-10.29-10.41-24.515-10.41-14.224 0-24.569 10.478-10.224 10.225-10.184 24.41.039 14.184 10.424 24.409l90.275 90.515q11.457 11.355 26.732 11.355 15.275 0 26.63-11.355L707.174-600.21q10.319-10.478 10.272-24.743-.048-14.264-10.011-24.076-10.739-9.811-25.17-9.525-14.432.286-24.268 10.11L502.804-492.731ZM286.934-211.18q-30.994 0-53.374-22.38-22.38-22.38-22.38-53.374v-528.552q0-31.059 22.38-53.486 22.38-22.427 53.374-22.427h528.552q31.059 0 53.486 22.427 22.427 22.427 22.427 53.486v528.552q0 30.994-22.427 53.374-22.427 22.38-53.486 22.38H286.934Zm0-75.754h528.552v-528.552H286.934v528.552ZM144.514-68.601q-31.059 0-53.486-22.427-22.427-22.427-22.427-53.486v-566.429q0-16 10.972-26.938 10.972-10.939 27.102-10.939 16.129 0 26.984 10.939 10.855 10.938 10.855 26.938v566.429h566.429q16 0 26.938 10.972 10.939 10.972 10.939 27.101 0 16.13-10.939 26.985-10.938 10.855-26.938 10.855H144.514Zm142.42-746.885v528.552-528.552Z"/></svg>