<svg xmlns="http://www.w3.org/2000/svg" height="40" viewBox="0 -960 960 960" width="40"><path d="M859.063-678.167q-11.063 0-18.867-7.543t-7.804-18.623q0-70.339-48.86-119.199t-119.199-48.86q-11.08 0-18.623-7.799-7.543-7.8-7.543-18.952 0-10.959 7.614-18.596 7.614-7.638 18.791-7.638 92.044 0 156.424 64.381 64.381 64.38 64.381 156.353 0 11.219-7.625 18.848-7.625 7.628-18.689 7.628Zm-99.412 0q-11.241 0-19.134-7.362-7.893-7.362-7.893-18.471 0-28.42-20.102-48.522Q692.42-772.624 664-772.624q-11.109 0-18.471-7.907-7.362-7.908-7.362-19.2 0-11.161 7.564-18.798 7.565-7.638 18.675-7.638 50.832 0 86.296 35.465 35.465 35.464 35.465 86.296 0 11.11-7.638 18.675-7.637 7.564-18.878 7.564ZM479.944-263.073q73.773 0 124.378-50.548 50.605-50.549 50.605-124.243 0-74.361-50.548-124.712-50.549-50.351-124.243-50.351-74.361 0-124.712 50.281-50.351 50.282-50.351 124.59 0 73.773 50.281 124.378 50.282 50.605 124.59 50.605ZM480-335q-44.486 0-73.743-29.59Q377-394.181 377-438q0-44.486 29.257-73.823 29.257-29.336 73.743-29.336 43.819 0 73.489 29.336Q583.16-482.486 583.16-438q0 43.819-29.671 73.41Q523.819-335 480-335ZM149.058-113.304q-30.994 0-53.374-22.38-22.38-22.38-22.38-53.374v-497.218q0-30.392 22.38-53.152t53.374-22.76h134.101l53.653-60.486q10.275-12.131 24.797-18.156 14.521-6.025 30.797-6.025H560.29q16.167 0 27.022 10.945 10.855 10.944 10.855 27.091v72.652q41 0 69.5 28.5t28.5 69.5h152.652q16.147 0 27.091 10.855 10.945 10.855 10.945 27.022v411.232q0 30.994-22.76 53.374-22.76 22.38-53.153 22.38H149.058Z"/></svg>