<svg xmlns="http://www.w3.org/2000/svg" height="40" viewBox="0 -960 960 960" width="40"><path d="M482-768.95q-24.333 0-41.833-17.5t-17.5-41.64q0-17.381 7.761-30.414 7.76-13.032 37.405-47.532 6.043-6.718 14.107-6.718t14.227 6.718q29.645 34.5 37.406 47.501 7.76 13.001 7.76 30.445 0 24.14-17.5 41.64T482-768.95Zm-207.333 0q-24.334 0-41.834-17.5-17.5-17.5-17.5-41.64 0-17.381 7.761-30.414 7.761-13.032 37.406-47.532 6.043-6.718 14.107-6.718t14.226 6.718q29.645 34.5 37.406 47.501Q334-845.534 334-828.09q0 24.14-17.5 41.64t-41.833 17.5Zm413.333 0q-24.333 0-41.833-17.5t-17.5-41.64q0-17.381 7.761-30.414 7.761-13.032 37.406-47.532 6.042-6.718 14.106-6.718 8.065 0 14.227 6.718 29.645 34.5 37.406 47.501 7.761 13.001 7.761 30.445 0 24.14-17.5 41.64T688-768.95ZM213.891-116.529v32.493q0 20.906-14.68 35.54T163.56-33.862q-21.024 0-35.64-14.813-14.616-14.814-14.616-35.6v-300.87q0-6.082.786-12.244.787-6.162 3.106-12.133l76.442-226.5q7.623-23.377 27.315-37.384 19.692-14.007 44.308-14.007h429.478q24.616 0 44.308 14.007t27.475 37.384l76.282 226.5q2.319 5.971 3.185 12.133.866 6.162.866 12.244v301.11q0 20.905-14.715 35.539t-35.737 14.634q-20.902 0-35.931-15.008-15.029-15.008-15.029-36.072v-31.587H213.891Zm1.645-346.695h529.088L694.834-611.5H265.166l-49.63 148.276Zm76.249 225.391q23.664 0 39.91-16.334 16.247-16.333 16.247-39.666 0-23.889-16.413-40.611-16.413-16.722-39.587-16.722-24.049 0-40.691 16.676-16.642 16.677-16.642 40.5T251.205-254q16.597 16.167 40.58 16.167Zm377.099 0q23.889 0 40.611-16.334 16.723-16.333 16.723-39.666 0-23.889-16.677-40.611-16.676-16.722-40.5-16.722-23.823 0-39.99 16.676-16.167 16.677-16.167 40.5T629.218-254q16.333 16.167 39.666 16.167Z"/></svg>