<svg xmlns="http://www.w3.org/2000/svg" height="40" viewBox="0 -960 960 960" width="40"><path d="M530-386H396.667q-14.334 0-23.834 9.5t-9.5 23.834q0 14.333 9.5 23.833 9.5 9.5 23.834 9.5h52v10q0 14.333 9.5 23.833 9.5 9.5 23.833 9.5 14 0 21.833-10.5 7.834-10.5 11.5-22.833v-10h45.334q15.666 0 25.833-11.5 10.167-11.5 10.167-27.834v-116.666q0-16.334-10.167-27.834t-25.833-11.5H430V-574h133.333q14.334 0 23.834-9.5t9.5-23.834q0-14.333-9.5-23.833-9.5-9.5-23.834-9.5h-48v-10q0-14.333-9.5-23.833-9.5-9.5-23.833-9.5-14 0-21.833 10.5-7.834 10.5-11.5 22.833v10h-46q-17 0-28.167 11.5-11.167 11.5-11.167 28.5v116q0 15.667 11.5 26.167 11.5 10.5 27.834 10.5H530v62ZM149.058-153.304q-30.994 0-53.374-22.38-22.38-22.38-22.38-53.374v-501.884q0-31.06 22.38-53.486 22.38-22.427 53.374-22.427h661.884q31.06 0 53.486 22.427 22.427 22.426 22.427 53.486v501.884q0 30.994-22.427 53.374-22.426 22.38-53.486 22.38H149.058Z"/></svg>