<svg xmlns="http://www.w3.org/2000/svg" height="40" viewBox="0 -960 960 960" width="40"><path d="M70.267-190.913q-15.492 0-25.948-10.54-10.457-10.54-10.457-25.981v-530.827q0-15.531 10.574-25.907 10.573-10.375 26.065-10.375 15.491 0 25.828 10.375 10.337 10.376 10.337 25.907V-394h344.95v-241.456q0-31.326 22.177-53.54t53.736-22.214H770q64.407 0 110.272 45.866 45.866 45.865 45.866 110.272v327.877q0 15.531-10.409 25.907-10.409 10.375-25.991 10.375-15.491 0-25.948-10.54-10.456-10.54-10.456-25.981v-90.812H106.666v91.051q0 15.531-10.409 25.907-10.409 10.375-25.99 10.375ZM275.02-444.406q-48.003 0-80.976-32.935-32.972-32.936-32.972-80.939 0-48.002 32.935-80.799 32.935-32.798 80.938-32.798t80.8 32.76q32.797 32.76 32.797 80.762 0 48.003-32.759 80.976-32.76 32.973-80.763 32.973Z"/></svg>