<svg xmlns="http://www.w3.org/2000/svg" height="40" viewBox="0 -960 960 960" width="40"><path d="m480-431.74 83.348 63.189q5.732 4.145 11.409.326 5.678-3.819 3.598-10.442l-34.094-103.681 87.108-64.188q5.638-4.145 3.439-10.776-2.199-6.63-8.663-6.63H521.036l-32-102.283q-2.319-6.463-9.036-6.463t-9.036 6.463l-32 102.283h-104.87q-6.463 0-8.829 6.63-2.366 6.631 3.271 10.776l85.203 64.188-34.522 103.775q-2.239 6.623 3.399 10.775 5.638 4.153 11.529.167L480-431.74Zm0 354.117q-6.384 0-12.181-1.12-5.797-1.12-11.768-3.358-139.022-46.493-220.884-170.305-81.863-123.811-81.863-268.261V-712.5q0-23.949 13.681-43.42t35.551-28.015l250.942-93.79q13.355-4.891 26.522-4.891 13.167 0 26.522 4.891l250.942 93.79q21.87 8.544 35.63 28.015 13.761 19.471 13.761 43.42v191.833q0 144.45-81.942 268.261-81.942 123.812-220.964 170.305-5.971 2.239-11.768 3.358-5.797 1.12-12.181 1.12Z"/></svg>