<svg xmlns="http://www.w3.org/2000/svg" height="40" viewBox="0 -960 960 960" width="40"><path d="M357.877-643.413h241.297v-82.811q0-51.496-35.19-87.31t-85.462-35.814q-50.392 0-85.518 35.814-35.127 35.814-35.127 87.31v82.811ZM748.138-40.014q-81.507 0-138.42-56.834-56.913-56.833-56.913-138.5 0-81.666 56.913-138.5 56.913-56.833 138.42-56.833 81.667 0 138.5 56.833 56.834 56.834 56.834 138.5 0 81.667-56.834 138.5-56.833 56.834-138.5 56.834ZM542.32-73.862H227.703q-31.315 0-53.614-22.253-22.299-22.252-22.299-53.501V-567.5q0-31.314 22.299-53.614 22.299-22.299 53.614-22.299h54.42v-82.848q0-82.712 57.33-140.856 57.329-58.144 138.985-58.144t139.073 58.144q57.416 58.144 57.416 140.856v82.848h54.421q31.314 0 53.614 22.299 22.299 22.3 22.299 53.614v77.008q-17.304-4.587-34.808-6.055-17.503-1.467-35.047-.322Q629.762-492.847 557.95-417q-71.811 75.848-71.811 181.652 0 44.513 14.859 85.507 14.858 40.993 41.322 75.979Zm205.818-168.153q26.945 0 45.806-18.872 18.861-18.873 18.861-45.834 0-26.96-18.861-45.461-18.861-18.5-45.806-18.5-26.666 0-45.333 18.736-18.667 18.735-18.667 45.5t18.667 45.598q18.667 18.833 45.333 18.833Zm-.142 128.667q32.142 0 60.143-15 28-15 45.666-41.333-24.84-14-51.226-21.833-26.386-7.834-54.441-7.834-27.84 0-54.253 7.834-26.413 7.833-51.413 21.833 17.666 26.333 45.523 41.333 27.858 15 60.001 15Z"/></svg>