<svg xmlns="http://www.w3.org/2000/svg" height="40" viewBox="0 -960 960 960" width="40"><path d="M430-347.616v-98.79h100q29.152 0 49.384-20.351 20.232-20.352 20.232-49.504v-96.123q0-29.152-20.232-49.384T530-682H395.072q-14.748 0-24.718 9.999-9.97 9.998-9.97 24.789 0 14.791 10.09 24.809 10.089 10.019 24.837 10.019H530v96.123H430q-29.152 0-49.384 20.352-20.232 20.351-20.232 49.503v130.529q0 16 10.939 26.939Q382.261-278 398.261-278h166.667q14.748 0 24.718-10.118t9.97-24.909q0-14.792-9.97-24.69-9.97-9.899-24.718-9.899H430ZM189.058-113.304q-30.994 0-53.374-22.38-22.38-22.38-22.38-53.374v-581.884q0-31.06 22.38-53.486 22.38-22.427 53.374-22.427h581.884q31.06 0 53.486 22.427 22.427 22.426 22.427 53.486v581.884q0 30.994-22.427 53.374-22.426 22.38-53.486 22.38H189.058Z"/></svg>