<svg xmlns="http://www.w3.org/2000/svg" height="40" viewBox="0 -960 960 960" width="40"><path d="M263.93-113.304q-29.865 0-50.883-21.018-21.018-21.018-21.018-50.75V-642.92q0-32.323 22.06-55.499 22.059-23.175 53.903-23.175h85.392v-111.421q0-22.234 15.703-38.037 15.704-15.803 38.137-15.803h145.552q22.433 0 38.137 15.803 15.703 15.803 15.703 38.037v111.421h89.587q29.732 0 50.75 21.018t21.018 50.75v464.754q0 29.732-21.018 50.75t-50.75 21.018q0 18.036-12.376 30.333-12.377 12.297-30.334 12.297-17.956 0-30.253-12.319-12.298-12.319-12.298-30.311H349.058q0 18.036-12.319 30.333-12.319 12.297-30.312 12.297-17.936 0-30.216-12.319-12.281-12.319-12.281-30.311Zm.026-71.768h432.247v-464.754H263.956v464.754Zm84.848-51.421q11.102 0 19.011-7.829 7.909-7.83 7.909-19.011v-308.232q0-10.995-7.922-18.918-7.923-7.923-18.918-7.923-11.181 0-19.09 7.923-7.91 7.923-7.91 18.918v308.232q0 10.995 7.91 18.918 7.909 7.922 19.01 7.922Zm131.196 0q11.181 0 19.09-7.829 7.91-7.83 7.91-19.011v-308.232q0-10.995-7.91-18.918-7.909-7.923-19.09-7.923-11.181 0-19.011 7.923-7.829 7.923-7.829 18.918v308.232q0 10.995 7.829 18.918 7.83 7.922 19.011 7.922Zm131.196 0q11.101 0 19.01-7.829 7.91-7.83 7.91-19.011v-308.232q0-10.995-7.923-18.918t-18.918-7.923q-11.181 0-19.09 7.923-7.909 7.923-7.909 18.918v308.232q0 10.995 7.909 18.918 7.909 7.922 19.011 7.922ZM480-417.37Zm-72.776-304.224h145.552v-111.421H407.224v111.421Z"/></svg>