<svg xmlns="http://www.w3.org/2000/svg" height="40" viewBox="0 -960 960 960" width="40"><path d="M806.326-263.848 676.044-394.13q30.333-17.109 63.326-27.711 32.993-10.601 68.043-14.587 8.703-1 16.453 2.113 7.75 3.112 13.642 9.003 5.731 5.892 8.59 13.642 2.859 7.75 1.859 16.452-3.428 35.015-13.975 67.772-10.547 32.757-27.656 63.598Zm-90.282 108.195q-48.848 41.131-109.033 64.49Q546.826-67.804 480-67.804q0-66.986 23.239-127.211 23.24-60.225 64.37-109.073l-68.086-67.927q-4.986 1.333-10.091 2-5.106.667-10.598.667-38.341-.442-68.975-22.413-30.634-21.971-44.699-57.979-5.827 0-11.693.5t-11.692.5q-51.181 0-87.13-35.949t-35.949-87.13q0-16.703 4.898-31.953 4.899-15.25 14.124-29.381L90.921-779.95q-10.32-10.319-10.066-24.71.254-14.391 10.732-24.87 10.479-10.478 24.536-10.478 14.058 0 24.537 10.478l705.203 704.537q10.319 10.319 9.898 24.623-.42 14.305-10.898 24.783-10.478 10.478-24.456 10.478-13.979 0-24.457-10.478l-79.906-80.066ZM480-933.232q38.688 0 69.725 22.098 31.036 22.098 45.275 58.293 5.667 0 11.533-.5t11.692-.5q50.927 0 86.503 36.076t35.576 87.163q0 21.558-7.779 41.736-7.779 20.177-22.018 37.656 13.986 17.558 21.891 37.616 7.906 20.058 7.906 41.775 0 49.145-33.261 84.656-33.26 35.51-82.166 37.866h-4L500.224-569.283q27.964-6.841 46.406-29.783t18.442-52.144q0-35.87-24.601-60.471-24.602-24.601-60.471-24.601-29.203 0-52.145 18.442-22.942 18.442-29.782 46.246L253.79-815.718q20.811-22.347 50.638-30.496 29.826-8.148 60.732-6.627 14.159-36.195 45.155-58.293 30.997-22.098 69.685-22.098Zm0 865.428q0-145.5-90.62-242.109-90.62-96.609-227.743-121.102-10.036-2-18.659 1.399t-15.007 9.783q-6.384 6.224-9.25 14.8-2.866 8.576-.866 18.613 25.746 137.521 120.156 228.069Q332.42-67.804 480-67.804Z"/></svg>