<svg xmlns="http://www.w3.org/2000/svg" height="40" viewBox="0 -960 960 960" width="40"><path d="M806.326-263.848 676.044-394.13q30.284-17.089 63.301-27.7 33.018-10.612 68.068-14.598 8.331-1 16.198 2.129 7.868 3.129 13.831 9.053 5.765 5.923 8.64 13.804 2.875 7.88 1.875 16.224-3.428 35.015-13.975 67.772-10.547 32.757-27.656 63.598Zm-142.506 56.13-43.747-43q-16.453 20.428-29.353 43.761-12.9 23.334-21.916 50.429 27.761-9.001 51.095-21.548 23.334-12.547 43.921-29.642Zm52.224 52.065q-48.848 41.131-109.101 64.49Q546.691-67.804 480-67.804q0-66.85 23.239-127.143 23.24-60.293 64.37-109.141l-68.086-67.927q-4.986 1.333-10.091 2-5.106.667-10.598.667-38.341-.442-68.975-22.413-30.634-21.971-44.996-57.979-5.53 0-11.396.5-5.866.5-11.692.5-51.181 0-87.13-35.949t-35.949-87.13q0-16.748 4.91-31.974 4.91-15.226 14.112-29.36L90.921-779.95q-10.32-10.351-10.066-24.726.254-14.375 10.652-24.854 10.331-10.478 24.536-10.478 14.205 0 24.617 10.478l705.203 704.537q10.319 10.544 9.898 24.736-.42 14.192-10.818 24.67-10.398 10.478-24.456 10.478-14.059 0-24.537-10.478l-79.906-80.066ZM480-933.232q38.688 0 69.725 22.098 31.036 22.098 45.212 58.293 5.73 0 11.596-.5t11.692-.5q50.785 0 86.432 36.166 35.647 36.166 35.647 86.993 0 21.638-7.779 41.816-7.779 20.177-22.018 37.656 14.264 17.474 22.031 37.541 7.766 20.067 7.766 41.85 0 49.145-33.261 84.656-33.26 35.51-82.166 37.866h-4L449.275-621.058l-73.847-73.022q6.029-15.115 15.442-27.927t22.761-22.906l-38.999-28.022q-6.32-4.87-13.815-7.203-7.494-2.333-16.358-2.333-11.287 0-21.446 4.601-10.158 4.601-17.4 13.217l-51.823-51.065q20.781-22.373 50.637-30.509 29.855-8.135 60.733-6.614 14.159-36.195 45.155-58.293 30.997-22.098 69.685-22.098Zm135.728 413.283q21.763 0 37.427-15.661 15.664-15.661 15.664-37.701 0-16.023-8.5-28.135-8.5-12.112-22.516-19.446l-43.513-21q-2.189 13.16-6.14 24.937-3.951 11.778-9.703 22.381-5.772 10.651-13.805 19.906-8.034 9.255-18.273 17.001l39.194 28.022q6.288 4.79 13.613 7.243 7.325 2.453 16.552 2.453Zm-21.467-140.739 43.534-21.001q14.024-7.173 22.144-19.942 8.119-12.768 8.119-27.605 0-21.851-15.125-37.543t-37.398-15.692q-8.859 0-15.964 2.379-7.105 2.38-14.29 6.98l-40.578 28.199q10.239 7.666 18.739 16.733t14.246 19.506q6.573 10.413 10.493 22.326t6.08 25.66Zm-160.966-94.703q12.799-5.334 24.543-8.04 11.744-2.707 22.162-2.707 10.333 0 22.159 2.707 11.827 2.706 24.653 8.04l6.413-56.32q2.159-20.318-14.881-34.438-17.041-14.12-37.979-14.12t-38.224 14.279q-17.286 14.279-15.127 34.16l6.281 56.439Zm47.026 145.681q17.215 0 29.317-12.303 12.101-12.303 12.101-29.518 0-17.216-12.076-29.317-12.077-12.102-29.709-12.102-16.882 0-29.168 12.077-12.286 12.077-12.286 29.709 0 16.882 12.303 29.168 12.302 12.286 29.518 12.286Zm98.034 15.057Zm-.667-114.021ZM480-766.138Zm0 698.334q0-145.5-90.62-242.109-90.62-96.609-227.704-121.089-10.305-2.013-18.813 1.386t-14.892 9.703q-6.445 6.571-9.281 14.852-2.835 8.281-.847 18.691 25.758 137.471 120.168 228.019Q332.42-67.804 480-67.804Zm-88.804-88.724q-72.334-24.174-122.001-73.889-49.667-49.715-74-122.112 72.334 24.492 121.921 74.413 49.587 49.92 74.08 121.588Zm177.608 0Zm-177.608 0Z"/></svg>