<svg xmlns="http://www.w3.org/2000/svg" height="40" viewBox="0 -960 960 960" width="40"><path d="M110.572-302.33q-19.666-42.525-28.594-87.433-8.927-44.907-8.927-91.904 0-84.835 32.018-159.124t87.561-129.912q55.544-55.623 129.836-87.641 74.293-32.018 159.121-32.018 84.915 0 159.204 32.018t129.912 87.641q55.623 55.623 87.641 129.919 32.018 74.295 32.018 159.217 0 84.922-32.018 159.158-32.018 74.235-87.641 129.779-55.623 55.543-129.912 87.561-74.289 32.018-159.124 32.018-46.997 0-91.904-8.927-44.908-8.928-87.488-28.594L100.072-52.92q-21.79 6.464-37.703-9.45-15.913-15.912-9.449-37.702l57.652-202.258Zm334.653-140.228v85.276q0 15.531 10.573 25.907Q466.372-321 481.833-321q15.46 0 25.908-10.54 10.447-10.54 10.447-25.982v-85.036h85.703q15.488 0 25.965-10.573 10.477-10.574 10.477-26.035t-10.477-25.908q-10.477-10.447-25.965-10.447h-85.703v-85.704q0-15.487-10.519-25.965-10.52-10.477-26.07-10.477-15.461 0-25.918 10.477-10.456 10.478-10.456 25.965v85.704h-85.942q-15.532 0-25.908 10.519Q323-494.483 323-478.932q0 15.461 10.54 25.917 10.54 10.457 25.982 10.457h85.703Z"/></svg>