<svg xmlns="http://www.w3.org/2000/svg" height="40" viewBox="0 -960 960 960" width="40"><path d="M760-642.123q-49.326 0-83.601-34.276-34.276-34.275-34.276-83.601t34.276-83.601q34.275-34.276 83.601-34.276t83.601 34.276q34.276 34.275 34.276 83.601t-34.276 83.601Q809.326-642.123 760-642.123ZM149.058-153.304q-30.994 0-53.374-22.38-22.38-22.38-22.38-53.374v-501.884q0-31.06 22.38-53.486 22.38-22.427 53.374-22.427h418.899q-4.848 18.898-5.834 37.916-.985 19.018 2.319 37.997 5.211 34.478 21.29 64.217 16.08 29.739 40.891 52.232L480-518.942 195.043-703.327q-14.942-9.797-30.464-1.199-15.521 8.598-15.521 26.938 0 7.598 3.612 14.263t10.09 10.65l296.943 193.037q9.783 6.37 20.297 6.37 10.514 0 20.297-6.37l182.985-118.783q18.203 8.269 37.192 12.283 18.99 4.015 39.526 4.015 35.058 0 67.438-11.783 32.381-11.783 59.417-34.522v379.37q0 30.994-22.427 53.374-22.426 22.38-53.486 22.38H149.058Z"/></svg>