<svg xmlns="http://www.w3.org/2000/svg" height="40" viewBox="0 -960 960 960" width="40"><path d="M149.058-161.304q-31.652 0-53.703-22.051-22.05-22.051-22.05-53.703v-493.884q0-31.652 22.05-53.783 22.051-22.13 53.703-22.13h659.884q31.652 0 53.783 22.13 22.13 22.131 22.13 53.783v204.725l-251.428 251.03-59.659-59.66q-21.87-21.71-53.377-21.67-31.507.04-53.376 21.909l-38.92 38.92q-22.537 22.536-22.537 54.123 0 31.587 22.537 53.297l26.963 26.964h-306Zm329.609-366.312L196.376-704.015q-15.021-9.558-30.503-.975-15.482 8.584-16.149 26.018-.666 8.464 3.225 15.721t11.275 11.91l294.863 184.732q9.304 5.652 19.58 5.652 10.275 0 19.739-5.652l294.703-184.732q7.384-4.653 11.609-11.79 4.224-7.138 3.558-15.841-1.334-17.434-16.816-26.018-15.481-8.583-30.503.975l-282.29 176.399Zm156 346.095 209.645-209.407q10.942-10.942 26.083-10.608 15.141.333 26.083 11.275 10.783 10.942 10.783 26.417 0 15.474-10.783 26.257L661.427-102.536q-11.355 11.355-26.76 11.355-15.406 0-26.761-11.355L493.681-216.92q-10.942-10.783-10.489-26.257.453-15.475 11.235-26.417 10.943-10.942 26.297-10.942 15.356 0 26.298 10.942l87.645 88.073Z"/></svg>