<svg xmlns="http://www.w3.org/2000/svg" height="40" viewBox="0 -960 960 960" width="40"><path d="m151.724-730.942 326.943 203.326 326.942-203.326H151.724Zm-2.666 569.638q-31.494 0-53.624-22.13-22.13-22.13-22.13-53.624v-493.884q0-31.56 22.13-53.736 22.13-22.177 53.624-22.177h659.884q31.559 0 53.736 22.177 22.177 22.176 22.177 53.736v204.725l-37.983 37.983q-18.872 18.872-37.93 37.771v-210.342L498.326-466.75q-3.825 2.513-19.616 5.126-5.632 0-10.182-1.166-4.55-1.167-9.361-3.819L149.058-660.805v423.747h230.247l75.753 75.754h-306Zm330.275-249.87Zm-.666-116.442Zm.666 68.231Zm155.334 277.864 209.645-209.407q10.907-10.942 26.065-10.608 15.159.333 26.022 11.275 10.862 10.942 10.862 26.417 0 15.474-10.783 26.257L661.427-102.536q-11.5 11.355-26.833 11.355-15.333 0-26.688-11.355L493.681-216.92q-10.942-10.783-10.489-26.275.453-15.492 11.235-26.399 10.907-10.942 26.28-10.942 15.373 0 26.315 10.942l87.645 88.073Z"/></svg>