<svg xmlns="http://www.w3.org/2000/svg" height="40" viewBox="0 -960 960 960" width="40"><path d="M550.797-669.298h100q9.667 0 16.5-6.753 6.833-6.754 6.833-16.5t-6.833-16.58q-6.833-6.833-16.5-6.833h-100q-9.666 0-16.5 6.833-6.833 6.834-6.833 16.58 0 9.746 6.833 16.5 6.834 6.753 16.5 6.753ZM107.942-32.028q-31.726 0-53.82-22.094-22.093-22.094-22.093-53.82V-457.29q0-31.493 22.093-53.623 22.094-22.131 53.82-22.131h502.682q31.652 0 53.702 22.051 22.051 22.05 22.051 53.703v349.348q0 31.726-22.13 53.82-22.131 22.093-53.623 22.093H107.942ZM746.377-400.29v-56.984q0-42.248-23.203-77.075-23.203-34.826-60.305-57.456h18.406q46.337 0 78.64-27.147 32.302-27.147 32.302-73.798 0-46.39-32.422-78.766-32.422-32.375-78.93-32.375h-20.068q-9.666 0-16.5 6.753-6.833 6.754-6.833 16.5t6.833 16.58q6.834 6.833 16.5 6.833h20q26.989 0 45.872 18.904 18.882 18.903 18.882 45.718 0 27.001-18.882 45.864-18.883 18.862-45.872 18.862h-20q-9.666 0-16.5 6.754-6.833 6.753-6.833 16.535 0 10.03 7.391 11.406 7.392 1.377 18.493 1.377h-26.203q-6.398 0-13.061-.619-6.663-.62-13.46-.62H564.13v-11.5q0-9.826-6.833-16.579-6.833-6.754-16.5-6.754h-20q-26.989 0-45.792-18.927-18.802-18.927-18.802-45.775t18.802-45.747q18.803-18.899 45.792-18.899h20q9.667 0 16.5-6.833 6.833-6.834 6.833-16.5 0-9.826-6.847-16.58-6.846-6.753-16.534-6.753h-20.032q-46.416 0-78.798 32.395-32.383 32.396-32.383 78.865 0 33.899 18.258 60.482 18.257 26.584 47.41 39.105H273.623v-259.174q0-31.492 22.094-53.623 22.093-22.13 53.819-22.13h502.682q31.492 0 53.623 22.13 22.13 22.131 22.13 53.623v376.015q0 31.726-22.13 53.82-22.131 22.093-53.623 22.093H746.377ZM427.348-268.498q7.76-5.084 7.76-14.066 0-8.982-7.76-14.066l-94.261-58.797q-8.291-5.095-16.421-.498-8.13 4.596-8.13 14.057v118.447q0 9.614 8.13 14.242t16.421-.466l94.261-58.853Z"/></svg>