<svg xmlns="http://www.w3.org/2000/svg" height="40" viewBox="0 -960 960 960" width="40"><path d="M229.616-33.862q-31.249 0-53.501-22.253-22.253-22.252-22.253-53.501v-740.768q0-31.249 22.253-53.501 22.252-22.253 53.501-22.253h420.768q31.249 0 53.501 22.253 22.253 22.252 22.253 53.501v147.717h-75.754v-47.718H229.616v540.77h420.768v-47.718h75.754v147.717q0 31.249-22.253 53.501-22.252 22.253-53.501 22.253H229.616Zm0-109.087v33.333h420.768v-33.333H229.616Zm376.355-281.174 206.312-206.232q10.942-10.783 26.083-10.743 15.142.04 26.004 10.982 10.862 10.942 10.862 26.297t-10.782 26.138L632.732-345.725q-11.5 11.355-26.833 11.355-15.334 0-26.689-11.355L458.986-466.348q-10.943-10.783-10.49-25.941.453-15.159 11.236-26.066 10.906-10.783 25.946-10.783 15.039 0 25.981 10.783l94.312 94.232ZM229.616-817.051h420.768v-33.333H229.616v33.333Zm0 0v-33.333 33.333Zm0 674.102v33.333-33.333Z"/></svg>