<svg xmlns="http://www.w3.org/2000/svg" height="40" viewBox="0 -960 960 960" width="40"><path d="M399.354-360.667q-14.137 0-23.636-9.583-9.5-9.583-9.5-23.75v-24q0-48.667 34.222-81.667 34.222-32.999 83.111-32.999h42v-47.957q0-6.624 5.677-8.989 5.678-2.366 10.603 2.559l74.219 74.219q5.638 5.827 5.638 13.636 0 7.81-5.732 13.459l-74.13 73.971q-4.92 5.079-10.598 2.727-5.677-2.353-5.677-9.215V-466h-42q-21 0-35.874 13.8-14.873 13.8-14.873 34.2v24q0 14.167-9.657 23.75-9.656 9.583-23.793 9.583ZM269.616-33.862q-30.994 0-53.374-22.38-22.38-22.38-22.38-53.374v-740.768q0-30.994 22.38-53.374 22.38-22.38 53.374-22.38h420.768q30.994 0 53.374 22.38 22.38 22.38 22.38 53.374v740.768q0 30.994-22.38 53.374-22.38 22.38-53.374 22.38H269.616Zm0-109.087v33.333h420.768v-33.333H269.616Zm0-66.666h420.768v-540.77H269.616v540.77Zm0-607.436h420.768v-33.333H269.616v33.333Zm0 0v-33.333 33.333Zm0 674.102v33.333-33.333Z"/></svg>