<svg xmlns="http://www.w3.org/2000/svg" height="40" viewBox="0 -960 960 960" width="40"><path d="M130.485-109.616h114.03v-79.174q0-16 10.972-26.938 10.972-10.938 27.021-10.938 16.05 0 26.905 10.938t10.855 26.938v79.174h121.855v-79.174q0-16 10.972-26.938 10.972-10.938 27.022-10.938 16.05 0 26.905 10.938t10.855 26.938v79.174h121.855v-79.174q0-16 10.972-26.938 10.972-10.938 27.022-10.938 16.049 0 26.904 10.938t10.855 26.938v79.174h114.03L784.402-291.74H175.797l-45.312 182.124ZM818-33.862H142q-41.385 0-66.584-32.687-25.199-32.687-14.72-73.132l54.76-221.355v-81.913q0-35.063 24.774-59.883 24.773-24.82 59.77-24.82h153.862V-800q0-52.471 36.834-89.304 36.833-36.834 89.304-36.834 52.471 0 89.304 36.834 36.834 36.833 36.834 89.304v272.348H760q34.997 0 59.77 24.82 24.774 24.82 24.774 59.883v81.913L899.225-140q11 40.55-14.265 73.344T818-33.862Z"/></svg>