<svg xmlns="http://www.w3.org/2000/svg" height="40" viewBox="0 -960 960 960" width="40"><path d="M810.942-598.254 619.203-407.515q-34.03 34.037-82.562 34.037t-82.568-34.037l-47-47q-12.239-12.203-30.413-12.203-18.175 0-30.377 12.203L152.869-261.181q-10.745 10.703-25.427 10.703-14.681 0-25.464-10.623-10.782-10.623-10.743-25.446.04-14.822 10.743-25.605l193.095-193.333q34.03-34.037 82.562-34.037t82.568 34.037l46 46q13.043 13.043 30.828 13.043t31.042-13.043l190.899-190.899h-71.747q-15.497 0-25.89-10.383-10.393-10.384-10.393-25.866 0-15.483 10.393-25.9 10.393-10.416 25.89-10.416h158.406q16.146 0 27.091 10.855t10.945 27.021v158.406q0 15.497-10.439 25.89-10.438 10.393-26.003 10.393-15.497 0-25.89-10.393t-10.393-25.89v-71.587Z"/></svg>