<svg xmlns="http://www.w3.org/2000/svg" height="40" viewBox="0 -960 960 960" width="40"><path d="M426.761-287.225q39.239 0 66.239-27.333 27-27.333 27-66.051V-597.63h74.502q15.831 0 26.664-10.693Q632-619.016 632-634.823t-10.717-26.641q-10.716-10.833-26.558-10.833h-74.55q-15.842 0-26.675 10.752-10.833 10.751-10.833 26.645v178.342q-11-7.666-26.334-12.5-15.333-4.833-29.666-4.833-39.2 0-66.267 27.333-27.066 27.333-27.066 66t27.094 66q27.093 27.333 66.333 27.333ZM149.058-153.304q-30.994 0-53.374-22.38-22.38-22.38-22.38-53.374v-501.884q0-31.06 22.38-53.486 22.38-22.427 53.374-22.427h661.884q31.06 0 53.486 22.427 22.427 22.426 22.427 53.486v501.884q0 30.994-22.427 53.374-22.426 22.38-53.486 22.38H149.058Zm0-75.754h661.884v-501.884H149.058v501.884Zm0 0v-501.884 501.884Z"/></svg>