<svg xmlns="http://www.w3.org/2000/svg" height="40" viewBox="0 -960 960 960" width="40"><path d="M189.217-73.913q-32.159 0-53.956-21.797-21.797-21.797-21.797-54.116H308.37q-102.196-51.413-160.066-144.478-57.87-93.066-57.87-202.986 0-80.166 30.798-150.92 30.797-70.754 83.945-123.823 53.149-53.069 123.903-83.945 70.753-30.877 150.92-30.877 80.167 0 150.92 30.877 70.754 30.876 123.903 83.945 53.148 53.069 83.945 123.823 30.797 70.754 30.797 150.92 0 109.92-57.869 202.986-57.87 93.065-160.066 144.478h195.066q0 32.319-21.877 54.116-21.877 21.797-54.036 21.797H189.217Zm392.059-274.579q49.261 0 75.329-37.816 26.069-37.815 26.069-93.692 0-55.877-26.569-93.772-26.568-37.895-74.829-37.895-49.421 0-75.037 37.895-25.616 37.895-25.616 93.772t25.616 93.692q25.616 37.816 75.037 37.816Zm0-38.45q-26.696 0-43.91-23.25-17.214-23.25-17.214-69.808 0-39.943 15-66.58 15-26.638 46.124-26.638 30.963 0 46.416 26.638 15.453 26.637 15.453 66.58 0 46.558-17.293 69.808-17.294 23.25-44.576 23.25Zm-158.189 32.783q7.543 0 13.134-5.678 5.591-5.677 5.591-13.38 0-7.543-5.591-13.134t-13.134-5.591h-90.551l-.921-2.427q5.979-5.312 5.801-5.34-.178-.029 2.749-3.083 2.928-3.055 13.881-12.428 10.953-9.373 39.432-33.185 25.239-22.892 35.826-43.265t10.587-44.345q0-31.768-23.297-53.71t-57.427-21.942q-30.609 0-53.939 15.996-23.33 15.997-33.794 43.765-1.145 2.37-1.333 7.464 0 8.036 5.391 13.713 5.392 5.678 13.428 5.678 6.463 0 11.268-3.725 4.804-3.724 7.123-10.188 6.428-16.333 19.808-25.333 13.381-9.001 31.048-9.001 19.188 0 30.797 10.435 11.609 10.435 11.609 27.196 0 18.225-9.178 32.943-9.178 14.717-34.772 37.341 5.333-4.001-10.243 9.423t-50.294 42.997l-15.963 14.391q-1.812 1.572-6.131 13.833v11.761q0 7.703 5.678 13.261 5.677 5.558 13.38 5.558h130.037Z"/></svg>