<svg xmlns="http://www.w3.org/2000/svg" height="40" viewBox="0 -960 960 960" width="40"><path d="M644.971-584.645 534.309-695.044q-34.619-34.563-79.421-54.289-44.802-19.725-93.62-19.725-65.855 0-120.757 32.724-54.902 32.725-86.671 84.551 31.261-51.826 86.417-84.551 55.156-32.724 121.011-32.724 48.818 0 93.62 19.725 44.802 19.726 79.421 54.289l110.662 110.399ZM0-246.16V-960h77.117q31.81 0 54.267 22.503 22.456 22.503 22.456 54.337v72.617q30.718-53.693 84.676-86.104t120.076-32.411h210.466q31.559 0 53.736 22.214 22.177 22.213 22.177 53.539v268.66l34.29 34.384q21.71 21.82 21.71 53.432 0 31.611-21.71 53.321L440.645-205.145q-21.667 21.87-53.278 21.989-31.611.12-53.476-21.75L189.116-349.015q-10.223-10.229-19.075-21.459-8.853-11.229-16.201-23.78v71.094q0 31.9-22.526 54.45-22.527 22.55-54.296 22.55H0Zm358.522-609.058q-65.08 0-111.204 44.848-46.123 44.848-50.623 108.827 31.87-30.689 74.056-49.102 42.186-18.413 90.517-18.413 48.823 0 93.629 19.727 44.806 19.728 79.429 54.295l36.805 36.551v-196.733H358.522ZM190.84-522.288q0 34.05 13.261 65.097 13.261 31.046 37.703 55.488l145.464 145.479 240.754-240.66-147.036-147.37q-24.443-24.442-55.351-37.703-30.908-13.261-64.301-13.261-72.044 0-121.269 51.268-49.225 51.267-49.225 121.662Zm637.059 198.81H707.392v-73.841h120.507v73.841ZM706.776-125.761l-84.196-84.355 51.529-51.529 84.355 84.196-51.688 51.688ZM486.667-56.087v-120.507h73.84v120.507h-73.84Zm-77.732-419.877Z"/></svg>