<svg xmlns="http://www.w3.org/2000/svg" height="40" viewBox="0 -960 960 960" width="40"><path d="M480.333-445.073q14.813 0 24.704-10.291 9.89-10.292 9.89-24.969 0-14.813-9.974-24.704-9.973-9.89-24.873-9.89-14.4 0-24.704 9.974-10.303 9.973-10.303 24.873 0 14.4 10.291 24.704 10.292 10.303 24.969 10.303Zm120 0q14.813 0 24.704-10.291 9.89-10.292 9.89-24.969 0-14.813-9.974-24.704-9.973-9.89-24.873-9.89-14.4 0-24.704 9.974-10.303 9.973-10.303 24.873 0 14.4 10.291 24.704 10.292 10.303 24.969 10.303Zm-240 0q14.813 0 24.704-10.291 9.89-10.292 9.89-24.969 0-14.813-9.974-24.704-9.973-9.89-24.873-9.89-14.4 0-24.704 9.974-10.303 9.973-10.303 24.873 0 14.4 10.291 24.704 10.292 10.303 24.969 10.303Zm120 120q14.813 0 24.704-10.291 9.89-10.292 9.89-24.969 0-14.813-9.974-24.704-9.973-9.89-24.873-9.89-14.4 0-24.704 9.974-10.303 9.973-10.303 24.873 0 14.4 10.291 24.704 10.292 10.303 24.969 10.303Zm120 0q14.813 0 24.704-10.291 9.89-10.292 9.89-24.969 0-14.813-9.974-24.704-9.973-9.89-24.873-9.89-14.4 0-24.704 9.974-10.303 9.973-10.303 24.873 0 14.4 10.291 24.704 10.292 10.303 24.969 10.303Zm-240 0q14.813 0 24.704-10.291 9.89-10.292 9.89-24.969 0-14.813-9.974-24.704-9.973-9.89-24.873-9.89-14.4 0-24.704 9.974-10.303 9.973-10.303 24.873 0 14.4 10.291 24.704 10.292 10.303 24.969 10.303Zm120-240q14.813 0 24.704-10.291 9.89-10.292 9.89-24.969 0-14.813-9.974-24.704-9.973-9.89-24.873-9.89-14.4 0-24.704 9.974-10.303 9.973-10.303 24.873 0 14.4 10.291 24.704 10.292 10.303 24.969 10.303Zm120 0q14.813 0 24.704-10.291 9.89-10.292 9.89-24.969 0-14.813-9.974-24.704-9.973-9.89-24.873-9.89-14.4 0-24.704 9.974-10.303 9.973-10.303 24.873 0 14.4 10.291 24.704 10.292 10.303 24.969 10.303Zm-240 0q14.813 0 24.704-10.291 9.89-10.292 9.89-24.969 0-14.813-9.974-24.704-9.973-9.89-24.873-9.89-14.4 0-24.704 9.974-10.303 9.973-10.303 24.873 0 14.4 10.291 24.704 10.292 10.303 24.969 10.303ZM480.002-73.304q-84.357 0-158.535-31.984-74.178-31.983-129.183-86.983-55.006-54.999-86.993-129.189-31.987-74.19-31.987-158.542 0-84.353 32.018-158.549 32.018-74.195 86.975-129.152 54.957-54.956 129.157-87.054 74.201-32.098 158.566-32.098 84.365 0 158.546 32.098 74.18 32.098 129.137 87.054 54.956 54.957 87.054 129.157 32.098 74.201 32.098 158.566 0 84.365-32.098 158.546-32.098 74.18-87.054 129.137-54.957 54.957-129.15 86.975-74.194 32.018-158.551 32.018Zm-.179-75.754q137.474 0 234.297-96.645 96.822-96.646 96.822-234.12T714.297-714.12q-96.646-96.822-234.12-96.822T245.88-714.297q-96.822 96.646-96.822 234.12t96.645 234.297q96.646 96.822 234.12 96.822ZM480-480Z"/></svg>