<svg xmlns="http://www.w3.org/2000/svg" height="40" viewBox="0 -960 960 960" width="40"><path d="M360-110.913q-69.9 0-119.493-49.594Q190.913-210.1 190.913-280v-360q0-86.768 61.159-148.007 61.16-61.24 147.928-61.24h160q86.768 0 148.007 61.24 61.24 61.239 61.24 148.007v360q0 69.9-49.674 119.493Q669.9-110.913 600-110.913H360Zm.333-335.754q14 0 23.5-9.833t9.5-23.833q0-14-9.583-23.5t-23.75-9.5q-13.667 0-23.5 9.583T326.667-480q0 13.667 9.833 23.5t23.833 9.833Zm120 0q14 0 23.5-9.833t9.5-23.833q0-14-9.583-23.5t-23.75-9.5q-13.667 0-23.5 9.583T446.667-480q0 13.667 9.833 23.5t23.833 9.833Zm120 0q14 0 23.5-9.833t9.5-23.833q0-14-9.583-23.5t-23.75-9.5q-13.667 0-23.5 9.583T566.667-480q0 13.667 9.833 23.5t23.833 9.833Z"/></svg>