<svg xmlns="http://www.w3.org/2000/svg" height="40" viewBox="0 -960 960 960" width="40"><path d="m668.551-388.97 142.29 142.13v-405.965q0-55.623-34.823-96.413-34.822-40.789-87.25-51.695v-47.906q0-16.167-10.855-27.101-10.855-10.935-27.021-10.935h-39.203q-16.167 0-27.022 10.935-10.855 10.934-10.855 27.101v41.964H386.108v-41.964q0-16.167-10.855-27.101-10.855-10.935-27.021-10.935H308.55q-15.927 0-26.623 10.695-10.695 10.696-10.695 26.624v42.246q-4 .667-8 2l-8.001 2.667 327.124 327.456h53.66q14.014 0 23.275 9.341t9.261 23.196v53.66Zm120.16 313.05L687.986-176.804h97.268l20.804 20.55v13.334q-2.072 29.5-23.525 49.558t-51.351 20.058H228.818q-31.412 0-53.463-22.05-22.051-22.052-22.051-53.464v-501.595q0-32.594 12.232-61.511t34.92-50.808l21.942 22.021v99.464L75.174-788.95q-10.225-10.225-9.971-24.163.253-13.938 10.637-24.416 10.32-10.479 24.79-10.479 14.471 0 24.79 10.479l712.776 712.87q10.225 10.225 10.272 24.322.047 14.098-10.272 24.417-10.225 10.225-24.743 10.225-14.518 0-24.742-10.225ZM458.334-405.87l-70.71-69.297H322.63q-13.457 0-22.319 9.221-8.862 9.221-8.862 25.388 0 14.891 9.898 24.79 9.899 9.898 24.79 9.898h132.197Z"/></svg>