<svg xmlns="http://www.w3.org/2000/svg" height="40" viewBox="0 -960 960 960" width="40"><path d="m806.855-250.825-75.673-75.515v-324.073q0-33.901-23.294-57.335-23.294-23.434-56.996-23.434H325.543h1.036l-71.348-71.441q3.334-1.334 7.667-2.667 4.334-1.333 8.334-2v-42.246q0-15.861 10.729-26.59t26.589-10.729h39.682q16 0 26.938 11.028 10.938 11.028 10.938 27.008v41.964h187.704v-41.964q0-15.98 10.938-27.008 10.939-11.028 26.939-11.028h39.203q15.999 0 26.938 11.028 10.938 11.028 10.938 27.008v47.879q50.297 10.853 84.192 52.57 33.895 41.718 33.895 97.957v399.588ZM668.551-388.97l-84.863-86.197h52.327q13.919 0 23.228 9.355 9.308 9.354 9.308 23.182v53.66ZM459.37-475.167v69.297H326.057q-14.708 0-24.658-10.003-9.95-10.002-9.95-24.789t9.973-24.646q9.973-9.859 24.715-9.859H459.37Zm74.521-47.108Zm-62.797 127.383Zm-270.638-367.84 53.283 53.362q-11.587 10.87-18.254 25.944-6.667 15.075-6.667 33.013v501.595h502.364v-82.298l74.876 74.862v13.334q-2.152 29.174-23.799 49.395-21.647 20.22-51.077 20.22H228.818q-31.149 0-53.331-22.249-22.183-22.249-22.183-53.264v-501.595q0-33.479 12.605-62.446t34.547-49.873ZM788.711-75.92 75.174-788.95q-10.225-9.891-10.305-24.346-.08-14.454 9.966-24.9 10.687-10.478 25.084-10.478 14.396 0 24.834 10.478l713.443 713.537q10.225 10.225 10.272 24.322.047 14.098-10.265 24.41-10.232 10.232-24.75 10.232T788.711-75.92Z"/></svg>