<svg xmlns="http://www.w3.org/2000/svg" height="40" viewBox="0 -960 960 960" width="40"><path d="M581.543-480.964 372.267-690h297.639l77.181-78.276H294.231l-78.42-78.579h571.617q25.626 0 41.288 17.485 15.661 17.486 15.661 39.468 0 10.416-3.692 20.033t-11.236 18.412L581.543-480.964Zm-308.21 365.508q-16 0-26.938-10.972-10.939-10.972-10.939-27.022 0-16.05 10.939-26.905 10.938-10.855 26.938-10.855h168.79v-231.457L75.173-788.95q-10.224-9.891-10.184-24.33.04-14.438 10.004-24.916 10.739-10.478 25.108-10.478t24.891 10.478l713.537 713.537q10.319 10.319 10.279 24.409-.04 14.09-10.393 24.41-10.514 10.478-24.75 10.478-14.237 0-24.715-10.478L518.877-345.754l-1 154.544h166.638q16 0 26.938 10.972 10.938 10.972 10.938 27.022 0 16.049-10.938 26.905-10.938 10.855-26.938 10.855H273.333Z"/></svg>