<svg xmlns="http://www.w3.org/2000/svg" height="40" viewBox="0 -960 960 960" width="40"><path d="M406.594-721.594h146.182v-111.421H406.594v111.421ZM306.427-70.674q-17.936 0-30.216-12.319-12.281-12.319-12.281-30.311-30.032 0-50.966-20.935-20.935-20.935-20.935-50.833v-457.609q0-27.508 15.772-48.692 15.771-21.185 38.199-25.91l535.319 535.16h-13.587q-1.116 28.703-21.772 48.761-20.655 20.058-49.757 20.058 0 18.036-12.376 30.333-12.377 12.297-30.334 12.297-17.956 0-30.253-12.319-12.298-12.319-12.298-30.311H349.058q0 18.036-12.319 30.333-12.319 12.297-30.312 12.297Zm500.726 12.862L49.667-814.298q-10.32-10.319-10.399-24.79-.08-14.47 10.398-24.949 10.412-10.478 24.87-10.478t24.87 10.478l757.486 757.486q10.318 10.479 10.398 24.37.08 13.891-10.398 24.37-10.412 10.477-24.87 10.477t-24.869-10.478Zm-39.182-233.071L638.116-420.739v-150.826q0-10.995-7.923-18.918t-18.918-7.923q-11.181 0-19.09 7.923-7.909 7.923-7.909 18.918v96.747l-254.19-253.95h22.668v-110.914q0-19.989 13.592-33.581 13.592-13.592 33.581-13.592h159.516q19.989 0 33.581 13.592 13.592 13.592 13.592 33.581v118.088h89.587q29.899 0 50.833 20.934 20.935 20.935 20.935 50.834v358.943Zm-419.167 54.39q11.102 0 19.011-7.922 7.909-7.923 7.909-18.918v-324.145h-53.84v324.145q0 11.181 7.91 19.011 7.909 7.829 19.01 7.829Zm131.196 0q11.181 0 19.09-7.922 7.91-7.923 7.91-18.918v-193.015l-53.84-53.695v246.71q0 11.181 7.829 19.011 7.83 7.829 19.011 7.829Zm131.196 0q11.101 0 19.01-7.922 7.91-7.923 7.91-18.918v-61.74l-53.84-53.84v115.555q0 11.206 7.909 19.036 7.909 7.829 19.011 7.829Z"/></svg>