<svg xmlns="http://www.w3.org/2000/svg" height="40" viewBox="0 -960 960 960" width="40"><path d="m765.181-307.768-75.753-75.913v-343.928h-84.667v259.261l-75.913-75.753v-226.841H302.007l-75.754-75.913h345.175q14.08 0 22.949 9.942 8.87 9.942 10.384 23.391v10h122.543q16.167 0 27.022 10.935 10.855 10.935 10.855 27.101v457.718ZM800.378-79.92 604.761-274.791v123.61q0 16.167-10.855 27.022-10.855 10.855-27.022 10.855H142.413q-16.167 0-27.022-10.855-10.855-10.855-10.855-27.022 0-16.167 10.855-27.022 10.855-10.855 27.022-10.855h53.073v-495.675L91.841-788.377q-10.225-10.225-10.638-24.743-.413-14.518 9.971-24.743 10.225-10.384 24.663-10.384t24.823 10.384l709.203 709.204q10.225 10.224 10.304 24.29.08 14.065-10.304 24.449-10.225 10.224-24.743 10.224-14.518 0-24.742-10.224ZM271.239-189.058h257.609v-162.153L271.239-608.82v419.762Zm144.188-468.464Zm-15.304 177.427Z"/></svg>