<svg xmlns="http://www.w3.org/2000/svg" height="40" viewBox="0 -960 960 960" width="40"><path d="m772.196-290.325-73.246-73.486v-36.001h-36.001l-80.144-79.984v-216.871q0-33.732 13.13-67.031 13.131-33.3 34.178-59.79 21.047-26.49 47.739-42.976 26.692-16.485 53.931-16.485 17.144 0 28.778 12.914 11.635 12.913 11.635 30.52v549.19Zm84.696 232.513q-10.412 10.478-24.87 10.598-14.458.12-24.869-10.358l-58.935-58.334h23.978v2.667q0 15.609-10.415 26.065-10.416 10.457-25.946 10.457-15.53 0-25.947-10.457-10.417-10.456-10.417-26.065v-51.254L50.667-813.298q-10.479-10.412-10.479-25.369 0-14.957 10.478-25.37 10.412-10.478 24.87-10.478t24.869 10.478l756.487 757.486q10.318 10.479 10.398 24.37.08 13.891-10.398 24.37ZM482.58-581.514l-72.964-71.232v-193.921q0-15.609 10.457-25.945 10.456-10.337 26.034-10.337t26.025 10.337q10.448 10.336 10.448 25.945v265.153ZM352.949-709.413l-72.565-72.963.558-68.037q.877-14.254 10.878-23.395t26.105-9.141q14.908 0 24.966 10.079 10.058 10.08 10.058 24.928v138.529Zm-129.232-129.63-44.304-43.906q18.797 0 31.55 12.634 12.754 12.634 12.754 31.272ZM316.7-77.051q-15.483 0-25.899-10.392-10.417-10.393-10.417-25.89v-330.493q-53.022-11.841-91.246-55.526-38.225-43.684-38.225-103.629v-209.548l72.804 72.804v136.776h56.667v-80.109l69.855 69.855v10.254h10.094l92.486 92.326q-17.942 25.558-43.787 42.964-25.844 17.405-56.083 23.852v330.474q0 15.497-10.383 25.89-10.383 10.392-25.866 10.392Z"/></svg>