<svg xmlns="http://www.w3.org/2000/svg" height="40" viewBox="0 -960 960 960" width="40"><path d="M480.159-70.993q-33.944 0-58.128-24.179-24.183-24.179-24.183-58.132h164.543q0 34.036-24.193 58.174-24.193 24.137-58.039 24.137ZM191.181-193.304q-16 0-26.938-10.972-10.939-10.972-10.939-27.022 0-16.05 10.939-26.905 10.938-10.855 26.938-10.855h39.732v-289.304q0-86.089 50.663-154.378 50.663-68.289 133.88-87.007v-22.405q0-26.96 18.826-45.832 18.825-18.871 45.718-18.871 26.893 0 45.718 18.871 18.826 18.872 18.826 45.832v22.444q21.014 4.722 40.08 12.759 19.066 8.036 36.231 20.166-13.829 14.557-24.331 30.956-10.502 16.399-18.821 34.537-21.188-14.616-45.943-22.511T480-731.696q-72 0-122.667 50.746-50.667 50.747-50.667 122.588v289.304h346.668v-134.826q16.913 12.942 35.637 22.8 18.725 9.859 40.276 15.903v96.123h39.572q15.98 0 27.008 10.972 11.028 10.972 11.028 27.022 0 16.05-11.028 26.905t-27.008 10.855H191.181ZM480-500.297Zm285.073-64.776h-90.146q-14.844 0-24.885-10.007Q640-585.088 640-600.117t9.974-24.92q9.974-9.89 24.953-9.89h90.146v-90.146q0-14.844 10.007-24.885Q785.088-760 800.117-760t24.92 9.974q9.89 9.974 9.89 24.953v90.146h90.146q14.844 0 24.885 10.007Q960-614.912 960-599.883t-9.974 24.92q-9.974 9.89-24.953 9.89h-90.146v90.146q0 14.844-10.007 24.885Q814.912-440 799.883-440t-24.92-9.974q-9.89-9.974-9.89-24.953v-90.146Z"/></svg>