<svg xmlns="http://www.w3.org/2000/svg" height="40" viewBox="0 -960 960 960" width="40"><path d="M191.181-193.304q-16.167 0-27.022-10.855-10.855-10.855-10.855-27.022 0-16.167 10.855-27.022 10.855-10.855 27.022-10.855h39.732v-289.304q0-86.089 50.663-154.378 50.663-68.289 133.88-87.007v-22.405q0-27.059 18.776-45.881 18.775-18.822 45.768-18.822 26.993 0 45.768 18.822 18.776 18.822 18.776 45.881v22.405q83.297 18.558 134 86.863 50.703 68.304 50.703 154.522v289.304h39.572q16.147 0 27.091 10.855 10.945 10.855 10.945 27.022 0 16.167-10.945 27.022-10.944 10.855-27.091 10.855H191.181ZM480.159-70.993q-33.956 0-58.134-24.123-24.177-24.124-24.177-58.188h164.543q0 34.036-24.137 58.174-24.138 24.137-58.095 24.137Z"/></svg>