<svg xmlns="http://www.w3.org/2000/svg" height="40" viewBox="0 -960 960 960" width="40"><path d="M442.123-215.26v-136.602q0-16 10.972-26.938 10.972-10.939 27.022-10.939 16.05 0 26.905 10.939 10.855 10.938 10.855 26.938v136.268l51.507-51.442q11.272-11.355 27.361-11.355 16.088 0 27.443 11.424 11.356 11.424 11.356 27.487t-11.356 27.487L506.761-94.565q-5.918 5.877-12.714 8.569-6.796 2.692-14.154 2.692-7.357 0-14.052-2.692-6.695-2.692-12.602-8.569L335.478-212.326q-11.355-11.419-11.188-27.387.167-15.968 11.522-27.323t27.212-11.355q15.856 0 27.498 11.355l51.601 51.776ZM215.594-442.123l48.108 48.174q11.355 11.272 11.355 27.36 0 16.089-11.424 27.444-11.423 11.355-27.486 11.355-16.063 0-27.488-11.355L94.565-453.239q-5.877-5.918-8.569-12.714-2.692-6.796-2.692-14.154 0-7.357 2.692-14.052 2.692-6.695 8.569-12.602l114.761-114.761q11.641-11.355 27.498-11.355 15.857 0 27.212 11.355t11.355 27.212q0 15.857-11.355 27.498l-48.776 48.935h136.602q16 0 26.938 10.972 10.939 10.972 10.939 27.022 0 16.05-10.939 26.905-10.938 10.855-26.938 10.855H215.594Zm529.305 0H608.805q-16 0-26.939-10.972-10.938-10.972-10.938-27.022 0-16.05 10.938-26.905 10.939-10.855 26.939-10.855h135.761l-48.268-48.174q-11.355-11.272-11.355-27.36 0-16.089 11.424-27.444t27.487-11.355q16.063 0 27.487 11.355l114.094 114.094q5.877 5.918 8.569 12.714 2.692 6.796 2.692 14.154 0 7.357-2.692 14.052-2.692 6.695-8.569 12.602L751.008-338.812q-11.414 11.355-27.218 11.189-15.804-.167-27.159-11.522-11.355-11.355-11.355-27.212t11.355-27.498l48.268-48.268ZM442.123-744.899l-48.601 48.601q-11.355 11.355-27.189 11.316-15.833-.04-27.188-11.475-11.355-11.435-11.355-27.244t11.355-27.546l114.094-114.188q5.918-5.877 12.714-8.569 6.796-2.692 14.154-2.692 7.357 0 14.052 2.692 6.695 2.692 12.602 8.569l114.427 114.427q11.355 11.414 11.355 27.218t-11.355 27.159q-11.355 11.355-27.212 11.355t-27.498-11.355l-48.601-48.268v136.094q0 16-10.972 26.939-10.972 10.938-27.022 10.938-16.05 0-26.905-10.938-10.855-10.939-10.855-26.939v-136.094Z"/></svg>