<svg xmlns="http://www.w3.org/2000/svg" height="40" viewBox="0 -960 960 960" width="40"><path d="m729.334-156.29-53.044-53.043 65.124-66.123H571.457v-75.754h169.957l-65.124-66.123 53.044-53.043 157.043 157.043L729.334-156.29ZM151.21-275.456q-31.326 0-53.54-22.214-22.213-22.214-22.213-53.54v-417.58q0-31.326 22.213-53.54 22.214-22.214 53.54-22.214h537.58q31.326 0 53.54 22.214t22.214 53.54v214.377q-9.45-1.812-18.939-2.638-9.489-.826-18.938-.826-9.783 0-18.938.779-9.156.779-18.939 2.431v-159.899L416-522.42 151.21-713.566v362.356h333.377q-1.812 10.261-2.138 18.337-.326 8.076-.326 17.706 0 9.631.787 19.66.786 10.029 3.105 20.051H151.21Zm52.898-493.334L416-615.58l217.334-153.21H204.108ZM151.21-351.21V-768.79v417.58Z"/></svg>