<svg xmlns="http://www.w3.org/2000/svg" height="40" viewBox="0 -960 960 960" width="40"><path d="M479.883-763.718q-16.05 0-26.905-10.938t-10.855-26.938v-86.667q0-16 10.972-26.938 10.972-10.939 27.022-10.939 16.05 0 26.905 10.939 10.855 10.938 10.855 26.938v86.667q0 16-10.972 26.938-10.972 10.938-27.022 10.938Zm200.632 83.203q-11.022-11.021-11.022-26.855 0-15.833 11.022-26.855l60.666-61q11.4-11.355 27.044-11.355 15.645 0 27 11.355 11.021 11.022 11.021 26.522 0 15.5-11.021 26.522l-61.667 61.666q-11.022 11.022-26.522 11.022-15.5 0-26.521-11.022Zm121.079 238.392q-16 0-26.938-10.972-10.938-10.972-10.938-27.022 0-16.05 10.938-26.905t26.938-10.855h86.667q16 0 26.938 10.972 10.939 10.972 10.939 27.022 0 16.05-10.939 26.905-10.938 10.855-26.938 10.855h-86.667Zm-59.746 277.348-60.667-61q-11.261-11.261-11.261-26.975 0-15.714 11.261-26.975 11.022-11.021 26.855-11.021 15.834 0 26.855 11.021l61 60.667q11.355 11.4 11.355 27.164 0 15.764-11.39 27.119t-27.021 11.355q-15.632 0-26.987-11.355Zm-515.406-515.74-61.667-61.666q-11.021-11.022-11.021-26.522 0-15.5 11.021-26.522 11.222-11.355 26.622-11.355t26.755 11.355l61.333 61.667q11.022 11.022 11.022 26.522 0 15.5-11.022 26.521-11.021 11.022-26.521 11.022t-26.522-11.022ZM240-191.21h179.681q28.483 0 48.557-20.028t20.074-48.605q0-28.657-19.527-49.255-19.526-20.598-48.343-20.598h-48.725L351.775-375.5q-14.205-33.479-44.686-53.145-30.48-19.667-67.089-19.667-53.643 0-91.216 37.289-37.574 37.289-37.574 90.866 0 53.657 37.534 91.302Q186.278-191.21 240-191.21Zm0 75.754q-84.913 0-144.728-59.816Q35.456-235.087 35.456-320q0-85.391 60.812-144.967 60.812-59.577 146.681-59.258 58.411 0 106.427 32.7 48.015 32.699 71.907 86.394 59.889 0 100.749 43.632Q562.891-317.867 562.891-257q-2.884 59.203-43.761 100.373-40.876 41.171-99.13 41.171H240ZM562.891-257q-5.021-18.597-10.242-36.547-5.221-17.95-10.482-36.706 45.92-18.631 73.203-59.374 27.282-40.743 27.282-90.281 0-67.708-47.518-115.226T480-642.652q-60.586 0-106.244 38.579-45.658 38.58-53.821 98.203-19.247-4.942-38.493-9.177-19.246-4.236-38.493-9.178 14.797-85.688 82.341-139.934 67.543-54.247 154.71-54.247 99.442 0 168.924 69.482 69.482 69.482 69.482 169.152 0 75.366-42.62 136.123Q633.167-282.891 562.891-257ZM481-480Z"/></svg>