<svg xmlns="http://www.w3.org/2000/svg" height="40" viewBox="0 -960 960 960" width="40"><path d="M599.007-187.804q-31.314 0-53.613-22.3-22.3-22.299-22.3-53.613v-432.566q0-31.314 22.3-53.613 22.299-22.3 53.613-22.3h97.276q31.314 0 53.613 22.3 22.3 22.299 22.3 53.613v432.566q0 31.314-22.3 53.613-22.299 22.3-53.613 22.3h-97.276Zm-335.29 0q-31.314 0-53.613-22.3-22.3-22.299-22.3-53.613v-432.566q0-31.314 22.3-53.613 22.299-22.3 53.613-22.3h97.276q31.314 0 53.613 22.3 22.3 22.299 22.3 53.613v432.566q0 31.314-22.3 53.613-22.299 22.3-53.613 22.3h-97.276Zm335.29-75.913h97.276v-432.566h-97.276v432.566Zm-335.29 0h97.276v-432.566h-97.276v432.566Zm0-432.566v432.566-432.566Zm335.29 0v432.566-432.566Z"/></svg>