<svg xmlns="http://www.w3.org/2000/svg" height="40" viewBox="0 -960 960 960" width="40"><path d="M479.968-484.094q-68.982 0-114.49-45.508-45.507-45.507-45.507-114.489t45.507-114.481q45.508-45.5 114.49-45.5 68.981 0 114.601 45.5 45.619 45.499 45.619 114.481t-45.619 114.489q-45.62 45.508-114.601 45.508ZM153.304-225.63v-31.42q0-38.341 19.478-67.502 19.478-29.16 50.935-44.317 65.892-30.573 129.022-45.899 63.131-15.326 127.218-15.326 64.566 0 127.326 15.62 62.76 15.619 128.333 45.525 32.167 14.971 51.703 44.105 19.536 29.134 19.536 67.794v31.42q0 31.493-22.093 53.623-22.094 22.13-53.82 22.13H229.058q-31.66 0-53.707-22.13t-22.047-53.623Z"/></svg>