<svg xmlns="http://www.w3.org/2000/svg" height="40" viewBox="0 -960 960 960" width="40"><path d="m766.623-78.072-79.688-79.196v8.058H110.333q-31.485 0-53.7-22.214-22.213-22.213-22.213-53.539v-32.087q0-36.573 18.916-66.539 18.917-29.966 51.497-45.28 70.24-33.08 131.22-47.152 60.981-14.073 123.628-14.073 16.5 0 30.595.834 14.094.833 27.753 2.927l-58.37-58.45h-7.391q-63.609-2.152-105.561-44.558-41.953-42.405-44.265-105.934V-642.667L70.108-775.16q-10.478-10.319-10.43-24.496.046-14.177 10.42-24.656 10.372-10.318 24.575-10.279 14.203.04 24.681 10.518L815.536-127.13q10.478 10.478 10.359 24.529-.12 14.05-10.468 24.529-10.347 10.319-24.416 10.319t-24.388-10.32Zm-36.289-455.53h-90.146q-14.979 0-24.953-10.087t-9.974-24.957q0-15.029 9.974-24.92 9.974-9.89 24.953-9.89h90.146v-90.146q0-14.82 10.007-24.874 10.008-10.053 25.037-10.053 14.87 0 24.84 9.974t9.97 24.953v90.146h90.146q14.82 0 24.873 10.007 10.054 10.008 10.054 25.037 0 14.87-10.054 24.84-10.053 9.97-24.873 9.97h-90.146v90.146q0 14.82-10.087 24.873-10.087 10.054-24.957 10.054-15.029 0-24.92-10.054-9.89-10.053-9.89-24.873v-90.146Zm-240.313-14.136L264.97-772.789q17.928-14.95 43.722-23.117 25.793-8.166 52.583-8.166 68.95 0 114.489 45.5 45.54 45.499 45.54 114.449 0 27.428-8.206 53.102-8.207 25.674-23.077 43.283Z"/></svg>