<svg xmlns="http://www.w3.org/2000/svg" height="40" viewBox="0 -960 960 960" width="40"><path d="M808.904-492.877q-13.275 0-23.492-9.486-10.216-9.485-12.535-23.869-13.746-98.79-84.181-169.265-70.435-70.475-169.225-84.38-14.384-2.16-23.869-12.313-9.486-10.153-9.486-24.537 0-15.008 10.407-25.054 10.406-10.045 24.948-8.045 127.139 14.554 216.964 104.519 89.825 89.964 104.551 217.075 2 14.542-8.326 24.948-10.325 10.407-25.756 10.407Zm-173.793 0q-11.067 0-20.593-7.725-9.527-7.724-13.815-20.63-9.174-31.007-32.239-54.073-23.065-23.065-54.073-32.239-12.891-4.384-20.583-13.337-7.692-8.953-7.692-20.945 0-17.507 11.832-28.112 11.832-10.605 27.668-6.794 53.442 12.963 92.206 51.786t52.736 92.489q3.652 15.638-7.089 27.609-10.742 11.971-28.358 11.971Zm161.367 379.573q-120.458 0-242.642-56.018-122.184-56.019-225.22-159.015Q225.58-431.333 169.482-553.625q-56.098-122.291-56.098-242.614 0-21.602 14.439-36.109 14.439-14.507 35.938-14.507h147.253q18.544 0 31.348 11.547 12.804 11.547 17.094 30.105L385.996-679q2.685 18.014-.739 31.579-3.424 13.566-13.808 23.391l-99.964 98.255q23.044 39.514 50.428 74.753 27.384 35.239 60.92 67.616 33.964 34.79 70.638 63.189 36.674 28.399 76.631 50.138l96.021-97.464q11.66-12.247 27.333-16.892 15.673-4.644 31.755-1.688l119.992 25.949q18.891 5.276 30.272 18.917 11.38 13.642 11.38 31.982v145.514q0 21.624-14.524 36.041-14.525 14.416-35.853 14.416ZM234.275-595.188l75.761-74.834-20.681-100.92h-99.486q2.681 40.152 12.899 83.116t31.507 92.638Zm366.131 362.369q39.058 17.776 83.402 28.87 44.344 11.094 87.134 13.747v-99.603l-96.014-19.883-74.522 76.869ZM234.275-595.188Zm366.131 362.369Z"/></svg>