<svg xmlns="http://www.w3.org/2000/svg" height="40" viewBox="0 -960 960 960" width="40"><path d="M749.907-691.051H561.319q-15.42 0-25.851-10.455-10.432-10.455-10.432-25.911 0-15.455 10.432-25.827 10.431-10.372 25.851-10.372h188.588l-45.001-45.399q-10.703-10.543-10.416-25.199.286-14.656 10.676-25.533 11.189-11.036 25.875-11.083 14.685-.047 25.756 10.83l106.225 106.572q11.116 11.457 11.116 26.732 0 15.275-11.355 26.551L754.464-592.92q-10.797 10.702-26.072 10.742-15.276.04-25.486-11.409-10.382-10.787-10.089-25.607.292-14.821 10.423-25.031l46.667-46.826Zm46.571 577.747q-120.458 0-242.642-56.018-122.184-56.019-225.22-159.015Q225.58-431.333 169.482-553.625q-56.098-122.291-56.098-242.614 0-21.602 14.439-36.109 14.439-14.507 35.938-14.507h147.253q18.544 0 31.348 11.547 12.804 11.547 17.094 30.105L385.996-679q2.685 18.014-.739 31.579-3.424 13.566-13.808 23.391l-99.964 98.255q23.044 39.514 50.428 74.753 27.384 35.239 60.92 67.616 33.964 34.79 70.638 63.189 36.674 28.399 76.631 50.138l96.021-97.464q11.66-12.247 27.333-16.892 15.673-4.644 31.755-1.688l119.992 25.949q18.891 5.276 30.272 18.917 11.38 13.642 11.38 31.982v145.514q0 21.624-14.524 36.041-14.525 14.416-35.853 14.416ZM234.275-595.188l75.761-74.834-20.681-100.92h-99.486q2.681 40.152 12.899 83.116t31.507 92.638Zm366.131 362.369q39.058 17.776 83.402 28.87 44.344 11.094 87.134 13.747v-99.603l-96.014-19.883-74.522 76.869ZM234.275-595.188Zm366.131 362.369Z"/></svg>