<svg xmlns="http://www.w3.org/2000/svg" height="40" viewBox="0 -960 960 960" width="40"><path d="M229.058-73.304q-30.994 0-53.374-22.38-22.38-22.38-22.38-53.374v-661.884q0-31.06 22.38-53.486 22.38-22.427 53.374-22.427h501.884q31.06 0 53.486 22.427 22.427 22.426 22.427 53.486v661.884q0 30.994-22.427 53.374-22.426 22.38-53.486 22.38H229.058Zm0-75.754h501.884v-661.884h-63.717v238.347q0 10.609-9.502 16.12-9.502 5.511-19.338.127l-50.515-29.667q-9.054-5.225-18.98-5.225-9.925 0-18.802 5.225l-50.674 29.667q-9.783 5.384-18.986-.127-9.202-5.511-9.202-16.12v-238.347H229.058v661.884Zm216.275-125.609L391.5-342.036q-6.18-7.703-14.977-7.703-8.798 0-14.769 7.703l-56.457 73.703q-7.384 9.902-2.279 20.118Q308.123-238 320.464-238H642.79q11.101 0 16.493-10.215 5.391-10.216-1.326-19.451l-93.124-124.037q-6.142-7.703-15.212-7.703t-15.201 7.703l-89.087 117.036ZM229.058-149.058v-661.884 661.884Zm242.168-422.979v-.558q0 10.609 9.202 16.12 9.203 5.511 18.986.127l50.674-29.667q9.003-5.225 18.875-5.225 9.871 0 19.574 5.225l49.848 29.667q9.836 5.384 19.338-.127t9.502-16.12v.558q0 11.602-9.528 16.99-9.529 5.387-19.312-.504l-50.515-29q-9.054-5.892-18.98-5.892-9.925 0-18.802 5.892l-50.674 29q-9.783 5.891-18.986.504-9.202-5.388-9.202-16.99Z"/></svg>