<svg xmlns="http://www.w3.org/2000/svg" height="40" viewBox="0 -960 960 960" width="40"><path d="M189.058-233.043q58-53.964 131.235-86.294 73.235-32.329 159.638-32.329 86.402 0 159.707 32.09 73.304 32.091 131.304 86.055v-537.421H189.058v537.899Zm292.256-190.304q58.816 0 99.548-40.713 40.732-40.712 40.732-99.529 0-58.816-40.712-99.429-40.713-40.612-99.529-40.612-58.817 0-99.549 40.593-40.731 40.593-40.731 99.409 0 58.817 40.712 99.549 40.713 40.732 99.529 40.732ZM189.058-113.304q-30.994 0-53.374-22.38-22.38-22.38-22.38-53.374v-581.884q0-31.06 22.38-53.486 22.38-22.427 53.374-22.427h581.884q31.06 0 53.486 22.427 22.427 22.426 22.427 53.486v581.884q0 30.994-22.427 53.374-22.426 22.38-53.486 22.38H189.058Zm60.941-75.754h460.002v-7.978q-50-42.333-108.334-63.594Q543.334-281.891 480-281.891T358.333-260.63q-58.334 21.261-108.334 63.594v7.978Zm231.259-303.905q-29.367 0-49.849-20.606-20.482-20.606-20.482-50.044 0-29.437 20.557-49.919 20.557-20.482 49.924-20.482 29.368 0 49.85 20.557 20.482 20.557 20.482 49.924t-20.558 49.969q-20.557 20.601-49.924 20.601ZM480-502.406Z"/></svg>