<svg xmlns="http://www.w3.org/2000/svg" height="40" viewBox="0 -960 960 960" width="40"><path d="M330.673-149.058h299.1l43.851-170.116H286.615l44.058 170.116Zm-.079 75.754q-26.015 0-46.195-15.9-20.18-15.899-27.146-41.129l-48.869-188.841h543.471l-48.63 188.841q-6.989 25.387-27.277 41.208-20.288 15.82-46.064 15.82h-299.29ZM189.058-394.927h581.884v-85.363H189.058v85.363Zm291.181-247.812q3.334-90.42 66.634-154.91 63.301-64.489 153.468-83.395 5.192-1 9.346.12t7.726 4.518q3.573 3.399 4.899 7.768 1.326 4.37.326 9.225-15.08 80.116-70.029 139.228-54.95 59.112-134.732 73.305v90.677h290.942q15.98 0 27.008 11.028 11.028 11.028 11.028 27.008v123.24q0 31.493-22.031 53.623-22.032 22.13-52.527 22.13H187.942q-30.609 0-52.623-22.13-22.015-22.13-22.015-53.623v-123.24q0-15.98 10.939-27.008 10.938-11.028 26.938-11.028h291.181v-90.536q-80.021-13.855-134.732-73.207-54.71-59.351-69.79-139.467-1-4.855.327-9.225 1.326-4.369 4.898-7.768 3.573-3.398 7.677-4.851 4.105-1.453 9.236-.453 90.833 18.239 154.214 83.315 63.38 65.076 66.047 155.656Z"/></svg>