<svg xmlns="http://www.w3.org/2000/svg" height="40" viewBox="0 -960 960 960" width="40"><path d="M480.282-73.304q-84.398 0-158.613-31.985-74.214-31.985-129.247-86.987-55.032-55.002-87.035-129.188Q73.384-395.651 73.384-480q0-66.567 19.437-126.171 19.437-59.604 55.411-109.721l-98.566-98.406q-10.318-10.35-10.398-24.805-.08-14.455 10.424-24.934 10.436-10.478 24.87-10.478 14.432 0 24.843 10.478l757.487 757.486q10.318 10.479 10.278 24.49-.039 14.01-10.492 24.489-10.368 10.318-24.708 10.318-14.339 0-24.817-10.319l-91.261-90.42q-50.194 36.145-109.713 55.417-59.52 19.272-125.897 19.272Zm-41.804-77.087v-80.428q-34.253 0-57.852-24.995-23.598-24.995-23.598-59.087v-42.374L157.963-556.348q-4.333 19.254-6.5 38.015-2.166 18.76-2.166 37.96 0 126.099 82.195 220.66 82.196 94.561 206.986 109.322Zm375.841-97.812-55.094-54.934q25.1-39.819 38.408-84.917 13.309-45.098 13.309-92.424 0-102.342-56.275-186.349-56.275-84.007-150.558-122.355v17.015q0 34.037-23.833 58.993-23.834 24.956-57.928 24.956h-83.073v64.972l-190.833-191.12q49.543-34.504 108.065-53.496 58.522-18.993 123.732-18.993 84.271 0 158.389 32.098 74.118 32.098 129.163 87.089 55.045 54.991 87.054 129.163 32.01 74.172 32.01 158.505 0 65.21-18.993 123.732-18.992 58.522-53.543 108.065Z"/></svg>