<svg xmlns="http://www.w3.org/2000/svg" height="40" viewBox="0 -960 960 960" width="40"><path d="M586.812-648.503q0-44.524-29.046-71.195-29.046-26.672-76.64-26.672-29.714 0-53.933 12.683-24.22 12.684-41.838 37.129-15.297 20.166-39.438 24.119-24.141 3.953-43.236-9.561-18.608-12.863-21.416-32.411-2.808-19.549 10.771-39.64 31.946-46.742 81.028-71.926 49.082-25.183 108.103-25.183 97.232 0 156.793 54.957 59.562 54.958 59.562 143.753 0 46.783-21.261 87.932Q655-523.37 606.058-474.884q-32.457 31.174-45.178 50.729-12.721 19.555-17.597 44.003-5.725 23.116-22.399 37.782-16.675 14.667-37.821 14.667-22.539 0-38.823-15.163-16.283-15.163-16.283-36.302 0-37.237 18.623-71.27 18.623-34.033 57.343-67.572 46.367-40.091 64.628-69.352 18.261-29.261 18.261-61.141ZM481.074-72.507q-32.871 0-56.085-23.273t-23.214-56.097q0-32.824 23.261-56.079 23.26-23.254 56.177-23.254t56.171 23.313q23.254 23.314 23.254 56.138t-23.347 56.038q-23.346 23.214-56.217 23.214Z"/></svg>