<svg xmlns="http://www.w3.org/2000/svg" height="40" viewBox="0 -960 960 960" width="40"><path d="M189.058-73.304q-30.994 0-53.374-22.38-22.38-22.38-22.38-53.374v-595.218q0-31.059 22.38-53.486 22.38-22.427 53.374-22.427h54.275v-66.666h74.544v66.666h324.246v-66.666h74.544v66.666h54.275q31.06 0 53.486 22.427 22.427 22.427 22.427 53.486v595.218q0 30.994-22.427 53.374-22.426 22.38-53.486 22.38H189.058Zm167.196-75.754h69.087V-243q0-7.674-8.116-22.188l-78.087-91.848q-5.486-6.406-7.928-13.573-2.442-7.166-2.442-14.492 8.928 4.123 18.116 6.485 9.189 2.362 18.877 2.362 21.273 0 41.571-8.898 20.298-8.899 35.617-25.138 7.442-7.442 17.138-11.083 9.696-3.641 19.899-3.641 11.217 0 20.88 3.721 9.663 3.721 16.134 11.003 15.609 16.718 36.406 25.377 20.797 8.659 41.594 8.659 9.876 0 18.59-2.362t17.642-6.485q0 7.326-2.442 14.492-2.442 7.167-7.928 13.573l-78.087 91.848q-3.341 5.31-5.609 10.616-2.268 5.305-2.268 11.572v93.942h69.088v-81.587l70.963-82.964q11.239-11.558 20.138-31.076 8.899-19.518 8.899-45.37 0-12.945-2.881-25.445-2.88-12.5-8.641-24.5 4.84-11 8.061-23.5t3.221-25.5q0-20.55-6.659-39.731-6.659-19.182-21.163-35.685l-71.938-84.939v-94.921h-69.088V-637q0 7.126 2.298 12.936 2.297 5.81 6.058 9.578l79.76 94.914q5.442 7.043 8.544 14.678 3.101 7.634 3.101 15.901 0 16.841-11.007 29.786-11.007 12.946-28.619 12.946-6.758 0-14.407-2.476-7.65-2.475-13.88-8.93-17.792-17.877-40.281-27.235-22.489-9.359-46.463-9.359t-46.463 9.359q-22.488 9.358-40.285 27.235-5.433 6.215-12.677 8.811-7.243 2.595-14.794 2.595-17.87 0-29.196-13.105t-11.326-30.62q0-8.217 2.761-15.88t8.964-14.706l80.239-94.24q3.319-5.318 5.677-10.621 2.359-5.303 2.359-11.567v-107.276h-69.247v94.921l-70.963 82.964q-11.239 11.558-20.138 31.077-8.899 19.519-8.899 45.372 0 13.703 2.961 26.322 2.96 12.62 7.8 23.62-5.761 12-8.261 24.5-2.5 12.5-2.5 25.5 0 25.83 8.899 45.332 8.899 19.501 20.138 31.059l71.203 82.964v81.587Z"/></svg>