<svg xmlns="http://www.w3.org/2000/svg" height="40" viewBox="0 -960 960 960" width="40"><path d="M149.616-153.862q-31.326 0-53.54-22.214t-22.214-53.54v-182.609q0-17.126 7.058-32.777 7.058-15.65 18.855-27.527l174.087-175.92v-121.935q0-31.326 22.214-53.54t53.54-22.214h260.768q31.326 0 53.54 22.214t22.214 53.54v121.935L864.08-468.913q10.213 10.353 16.135 24.3 5.923 13.947 5.923 29.33v185.667q0 31.326-22.214 53.54t-53.54 22.214H149.616Zm67.354-330.334h526.299L610.384-617.827v-152.557H349.616v152.507L216.97-484.196Zm-67.354 254.58h660.768v-178.667H149.616v178.667Zm263.036-64.993q-10.323 0-17.585-7.216-7.263-7.216-7.263-17.631 0-10.313 7.263-17.54 7.262-7.228 17.585-7.228h134.856q10.253 0 17.471 7.215 7.217 7.216 7.217 17.467 0 10.39-7.217 17.662-7.218 7.271-17.471 7.271H412.652Z"/></svg>