<svg xmlns="http://www.w3.org/2000/svg" height="40" viewBox="0 -960 960 960" width="40"><path d="M229.036-67.804q-49.779 0-84.513-34.734-34.733-34.733-34.733-84.512v-91.914q0-15.98 10.938-27.008Q131.666-317 147.826-317h89.739v-545.073q0-6.63 5.678-9.032 5.677-2.402 10.569 2.489l31.833 31.833q5.678 5.892 13.487 5.772 7.81-.119 13.701-6.011l34.087-33.927q5.678-5.892 13.488-5.892 7.809 0 13.701 5.892l33.261 33.927q5.677 5.892 13.487 5.892 7.81 0 13.701-5.892l34.326-33.927q5.49-5.892 13.357-5.892 7.868 0 13.832 5.892L530-837.022q5.678 5.892 13.488 5.892 7.809 0 13.7-5.892l34.088-33.927q5.489-5.892 13.357-5.892 7.867 0 13.831 5.892l33.927 33.927q5.678 5.892 13.488 5.892t13.701-5.892l34.087-33.927q5.489-5.892 13.357-5.892 7.867 0 13.831 5.892l33.928 33.927q5.678 5.892 13.487 6.011 7.81.12 13.701-5.772l31.834-31.833q4.891-4.891 10.648-2.489t5.757 9.032v675.023q0 49.779-34.78 84.512-34.78 34.734-84.466 34.734H229.036Zm500.928-75.913q18.667 0 30.5-12.167 11.833-12.166 11.833-31.166v-591.371H315.319v494.756h337.102q16 0 26.938 11.028 10.938 11.028 10.938 27.008v58.579q0 19 10.5 31.166 10.5 12.167 29.167 12.167ZM397.319-687.493h168.312q14.166 0 23.749 9.617 9.584 9.617 9.584 23.833 0 14.216-9.584 23.716-9.583 9.5-23.749 9.5H397.319q-14.167 0-23.75-9.617t-9.583-23.833q0-14.216 9.583-23.716 9.583-9.5 23.75-9.5Zm0 129.334h168.312q14.166 0 23.749 9.616 9.584 9.617 9.584 23.834 0 14.216-9.584 23.716-9.583 9.5-23.749 9.5H397.319q-14.167 0-23.75-9.617t-9.583-23.833q0-14.217 9.583-23.717 9.583-9.499 23.75-9.499Zm290.312-62.668q-13.667 0-23.5-9.833t-9.833-23.5q0-13.667 9.833-23.5t23.5-9.833q13.666 0 23.499 9.833 9.834 9.833 9.834 23.5t-9.834 23.5q-9.833 9.833-23.499 9.833Zm0 126q-13.667 0-23.5-9.833t-9.833-23.5q0-13.666 9.833-23.5 9.833-9.833 23.5-9.833 13.666 0 23.499 9.833 9.834 9.834 9.834 23.5 0 13.667-9.834 23.5-9.833 9.833-23.499 9.833Z"/></svg>