<svg xmlns="http://www.w3.org/2000/svg" height="40" viewBox="0 -960 960 960" width="40"><path d="M522.209-310.384H406.26q-11.818 0-19.557-7.795-7.739-7.796-7.739-19.656 0-11.859 7.858-19.548 7.859-7.689 19.605-7.689h96.646V-415.5h-96.646q-11.746 0-19.605-7.859-7.858-7.858-7.858-19.605v-96.753q0-12 7.858-19.29 7.859-7.29 19.605-7.29h125.146q11.151 0 18.854 7.31 7.703 7.311 7.703 19.198 0 11.886-7.37 19.7-7.369 7.813-19.187 7.813h-96.885v51.095h96.885q11.818 0 19.187 7.37 7.37 7.37 7.37 19.188v88.152q0 15.037-10.477 25.562-10.478 10.525-25.444 10.525ZM480.066-72.029q-76.421 0-143.236-28.685-66.816-28.684-116.644-78.476t-78.474-116.525q-28.647-66.734-28.647-143.169 0-16.167 10.855-27.022 10.855-10.855 27.022-10.855 16.166 0 27.021 10.855t10.855 27.022q0 121.453 84.866 206.198 84.865 84.744 206.287 84.744 121.423 0 206.317-84.827t84.894-206.195q0-121.453-83.316-206.198-83.315-84.744-204.772-84.744h-16.746l43.369 43.37q10.479 10.478 10.352 24.409-.127 13.931-10.352 24.409-10.478 10.479-24.695 10.526-14.217.047-24.679-10.415L355.435-742.515q-11.514-11.456-11.514-26.732 0-15.275 11.514-26.63l105.558-105.717q9.812-9.653 24.362-9.605 14.551.047 24.362 9.938 9.558 9.811 9.566 24.275.007 14.464-9.805 24.116l-47.051 47.051h17.334q76.509 0 143.327 28.685t116.648 78.474q49.829 49.79 78.514 116.517 28.685 66.726 28.685 143.13t-28.65 143.202q-28.649 66.798-78.483 116.637-49.833 49.839-116.574 78.492-66.741 28.653-143.162 28.653Z"/></svg>