<svg xmlns="http://www.w3.org/2000/svg" height="40" viewBox="0 -960 960 960" width="40"><path d="M99.819-116.572q-11.1 0-19.553-5.293-8.453-5.293-13.1-13.765-5.002-8.277-5.446-18.206-.445-9.93 5.447-19.83L447.014-830q5.891-9.783 14.571-14.301 8.68-4.518 18.439-4.518 9.758 0 18.413 4.518 8.656 4.518 14.547 14.301l379.849 656.334q5.891 9.9 5.446 19.83-.444 9.929-5.446 18.206-4.689 8.376-13.121 13.717-8.433 5.341-19.532 5.341H99.818Zm382.965-121.986q14.387 0 24.32-10.049 9.932-10.05 9.932-24.437 0-14.388-10.049-24.201-10.05-9.813-24.437-9.813-14.388 0-24.32 9.93-9.933 9.93-9.933 24.318 0 14.387 10.05 24.32 10.049 9.932 24.437 9.932Zm0-113.442q14.216 0 23.716-9.583 9.5-9.583 9.5-23.75v-147.182q0-14.166-9.617-23.75-9.617-9.583-23.833-9.583-14.217 0-23.716 9.583-9.5 9.584-9.5 23.75v147.182q0 14.167 9.617 23.75Q468.567-352 482.784-352Z"/></svg>