<svg xmlns="http://www.w3.org/2000/svg" height="40" viewBox="0 -960 960 960" width="40"><path d="M445.073-240.348v21.181q0 7.671 5.781 13.245 5.781 5.574 13.277 5.574h31.978q7.543 0 13.181-5.717 5.637-5.718 5.637-13.341v-20.942h51.74q14.979 0 24.953-9.905t9.974-24.743v-128.301q0-14.844-9.974-24.886t-24.993-10.042H428.26v-58.406h138.646q14.742 0 24.715-10.07 9.973-10.071 9.973-24.957 0-14.786-9.973-24.687-9.973-9.901-24.715-9.901h-51.979v-21.182q0-7.543-5.781-13.181-5.781-5.637-13.277-5.637h-31.978q-7.543 0-13.181 5.637-5.637 5.638-5.637 13.181v21.182h-51.74q-14.979 0-24.953 9.972-9.974 9.973-9.974 24.716v128.3q0 14.94 9.974 24.914 9.974 9.974 24.993 9.974H531.74v58.407H393.094q-14.742 0-24.715 10.007-9.973 10.008-9.973 24.802 0 14.929 10.041 24.868 10.042 9.938 24.886 9.938h51.74ZM229.058-73.304q-30.994 0-53.374-22.38-22.38-22.38-22.38-53.374v-661.884q0-31.06 22.38-53.486 22.38-22.427 53.374-22.427h357.159l220.638 220.638v517.159q0 30.994-22.427 53.374-22.426 22.38-53.486 22.38H229.058ZM556-810.942v137.065q0 16 10.938 26.939Q577.877-636 593.877-636h137.065L556-810.942Z"/></svg>