<svg xmlns="http://www.w3.org/2000/svg" height="40" viewBox="0 -960 960 960" width="40"><path d="M442.557-375.442v-209.116q0-12.792-11.808-17.497-11.807-4.706-20.844 4.331l-90.963 90.963q-11.355 11.413-11.355 26.79 0 15.377 11.355 26.732l90.963 90.963q9.037 9.037 20.844 4.331 11.808-4.705 11.808-17.497ZM189.058-113.304q-31.494 0-53.624-22.13-22.13-22.13-22.13-53.624v-581.884q0-31.56 22.13-53.736 22.13-22.177 53.624-22.177h581.884q31.56 0 53.736 22.177 22.177 22.176 22.177 53.736v581.884q0 31.494-22.177 53.624-22.176 22.13-53.736 22.13H189.058Zm372.116-75.754v-581.884H189.058v581.884h372.116Z"/></svg>