<svg xmlns="http://www.w3.org/2000/svg" height="40" viewBox="0 -960 960 960" width="40"><path d="M480.122-689.036q-15.492 0-25.948-10.54t-10.456-25.982v-125.094q0-15.442 10.573-25.863 10.573-10.42 26.065-10.42t25.829 10.54q10.337 10.54 10.337 25.982v125.094q0 15.442-10.454 25.862-10.454 10.421-25.946 10.421Zm201.784 87.203q-10.522-10.877-10.235-26.153.286-15.275 11.163-26.152l87.905-86.572q10.797-10.797 26.04-10.67 15.243.126 25.612 11.431 10.116 10.797 9.91 25.565-.207 14.768-10.576 24.978l-87 87.667q-10.787 10.797-26.154 10.75-15.368-.047-26.665-10.844Zm-402.5-.667q-10.402 11.476-25.375 11.636-14.973.161-25.85-10.875l-88.333-87.08q-11.036-11.036-11.211-25.914-.176-14.878 10.48-25.905 11.256-10.789 26.58-10.71 15.325.08 26.122 10.877l87.666 88.333q10.37 10.21 10.203 24.486-.166 14.275-10.282 25.152ZM135.442-136.804l-93.094-92.428q-11.754-11.833-11.54-28.913.214-17.08 11.54-29.34 85.275-94.87 198.641-143.692Q354.355-480 480-480t239.044 48.544q113.398 48.543 198.768 143.971 11.166 12.26 11.42 29.34.254 17.08-11.42 28.913l-93.254 92.428q-9.797 9.956-27.062 10.877-17.264.92-29.097-8.102l-112.037-83.848q-7.623-5.558-11.394-13.3-3.772-7.743-3.772-17.113v-132.53q-39.631-14.159-80.058-20.387-40.428-6.228-81.138-6.228-40.71 0-81.138 6.228-40.427 6.228-80.058 20.387v132.53q0 9.37-3.771 17.113-3.772 7.742-11.236 13.3l-112.321 84.034q-12.99 9.691-29.072 8.981-16.082-.709-26.962-11.942Zm107.225-219.059q-34.124 17.189-65.7 40.758-31.576 23.569-61.54 50.612l50.776 52.109 76.464-56.942v-86.537ZM714-358.102v84.776l79.29 60.276 51.283-51.095q-29.964-29.79-62.54-52.406T714-358.102Zm-471.333 2.239ZM714-358.102Z"/></svg>