<svg xmlns="http://www.w3.org/2000/svg" height="40" viewBox="0 -960 960 960" width="40"><path d="M479.933-45.188q-27.382 0-46.639-19.198-19.258-19.198-19.258-46.607H109.029q-16.16 0-27.098-10.972-10.938-10.972-10.938-27.101 0-16.129 10.938-26.984t27.098-10.855h41.964v-586.19q0-31.559 22.176-53.736 22.177-22.176 53.736-22.176h506.19q31.559 0 53.736 22.176 22.176 22.177 22.176 53.736v586.19h42.124q16 0 26.938 10.972 10.938 10.972 10.938 27.101 0 16.129-10.938 26.984t-26.938 10.855H545.964q0 27.45-19.325 46.627-19.324 19.178-46.706 19.178ZM226.905-186.905h217.131v-97.131H226.905v97.131Zm289.059 0h217.131v-97.131H515.964v97.131Z"/></svg>