<svg xmlns="http://www.w3.org/2000/svg" height="40" viewBox="0 -960 960 960" width="40"><path d="M480-291.152q79.897 0 137.057-57.147 57.16-57.146 57.16-136.977t-57.179-136.991q-57.179-57.16-137.057-57.16-79.878 0-136.959 57.15-57.08 57.15-57.08 136.987 0 79.837 57.08 136.987Q400.103-291.152 480-291.152Zm19.594-198.782 65.682 61.688q6.318 5.811 6.532 14.355.214 8.543-6.152 14.891-5.699 5.812-13.998 6.145-8.299.333-14.774-5.478l-69.87-65.87q-5.891-5.399-8.916-12.442-3.026-7.043-3.026-14.841v-97.065q0-9.425 6.376-15.839 6.376-6.415 15.743-6.415t15.885 6.415q6.518 6.414 6.518 15.82v98.636ZM480-77.624q-6.597 0-12.434-1.119-5.838-1.12-11.515-3.358-139.022-46.493-220.884-170.32-81.863-123.827-81.863-268.317V-712.5q0-24.121 13.598-43.529 13.598-19.407 35.634-27.906l250.942-93.79q13.355-4.891 26.522-4.891 13.167 0 26.522 4.891l250.942 93.79q22.036 8.499 35.714 27.906 13.677 19.408 13.677 43.529v191.762q0 144.49-81.942 268.317T503.949-82.101q-5.677 2.239-11.515 3.358-5.837 1.12-12.434 1.12Zm0-74.528q109.978-37.609 180.46-139.746 70.482-102.138 70.482-228.685V-712.5L480-806.957l-250.942 94.572v191.691q0 126.658 70.482 228.796Q370.022-189.761 480-152.152Zm0-327.529Z"/></svg>