<svg xmlns="http://www.w3.org/2000/svg" height="40" viewBox="0 -960 960 960" width="40"><path d="m375.739-529.892-50.109 37.573q-5.891 4.145-11.235.127-5.344-4.018-3.025-10.482l19.405-59.993-52.811-41.369q-5.797-4.145-3.431-10.442 2.366-6.297 8.989-6.297h62.108l21.073-61.739q2.319-6.624 9.036-6.624t9.036 6.624l21.073 61.739h61.681q6.463 0 8.829 6.297 2.366 6.297-3.271 10.442l-52.812 41.369 19.406 60.072q2.319 6.624-3.025 10.522-5.345 3.899-11.236-.246l-49.681-37.573Zm1.333 208.435q-110.166 0-186.688-76.521-76.522-76.522-76.522-185.355 0-108.834 76.522-185.355 76.522-76.522 186.022-76.522 108.833 0 185.021 76.522 76.189 76.521 76.189 185.355 0 43.811-13.602 83.119-13.601 39.308-39.471 72.323l234.406 233.152q11.022 11.261 11.022 27.308t-11.101 27.069q-11.181 11.181-27.268 11.181-16.087 0-27.109-11.181l-233.66-233.5q-29.761 24.536-69.308 38.471-39.547 13.934-84.453 13.934Zm-.666-75.753q77.326 0 131.391-54.399 54.065-54.398 54.065-131.724 0-77.327-54.065-131.725-54.065-54.399-131.391-54.399-77.834 0-132.312 54.399-54.478 54.398-54.478 131.725 0 77.326 54.478 131.724 54.478 54.399 132.312 54.399Z"/></svg>