<svg xmlns="http://www.w3.org/2000/svg" height="40" viewBox="0 -960 960 960" width="40"><path d="M277.899-79.442H119.558q-16.246 0-27.515-11.935-11.268-11.935-10.029-28.181 9.269-147.623 88.323-258.645 79.054-111.022 231.786-137.072v-126.37q-44.348-5.957-93.924-20.007-49.576-14.051-93.79-37.837-44.213-23.786-77.673-57.102-33.461-33.315-45.591-77.627-4.812-17.739 6.496-32.039 11.308-14.301 30.047-14.301h704.624q18.739 0 30.286 14.301 11.547 14.3 6.496 32.039-11.971 44.312-45.431 77.827-33.46 33.514-77.754 57.221-44.293 23.706-93.989 37.717-49.695 14.011-94.043 19.808v126.37q152.732 26.05 231.786 137.072t88.482 258.645q1.08 16.246-10.188 28.181-11.269 11.935-27.515 11.935H682.101q-16.166 0-27.021-10.855t-10.855-27.022q0-16.166 10.855-27.021t27.021-10.855h117.204Q780.268-299.463 690.66-373.384q-89.609-73.92-210.899-73.92-121.131 0-210.461 73.92-89.329 73.921-108.605 218.189h117.204q16.166 0 27.021 10.855t10.855 27.021q0 16.167-10.855 27.022-10.855 10.855-27.021 10.855Zm199.152 0q-33.479 0-57.377-23.819-23.899-23.819-23.899-57.297 0-17.239 6.5-31.518t17.979-25.518q11.76-11.921 32.992-24.301 21.232-12.38 50.377-25.46l93.428-38.312q11.594-4.891 20.464 4.312 8.869 9.203 3.978 20.637l-38.312 93.588q-13.08 29.224-25.326 50.456-12.246 21.232-24.007 32.993-11.239 11.478-25.478 17.858-14.24 6.381-31.319 6.381Z"/></svg>