<svg xmlns="http://www.w3.org/2000/svg" height="40" viewBox="0 -960 960 960" width="40"><path d="M229.485-253.442q-18.311-10.116-28.92-27.889-10.609-17.774-10.609-39.321v-194.421l-94.362-51.702q-10.253-6.008-15.155-14.37-4.903-8.361-4.903-18.581 0-10.219 4.937-18.782t15.12-14.477L443.03-823.131q8.544-4.891 17.695-6.963 9.152-2.073 18.634-2.073 9.482 0 18.609 2.152 9.127 2.153 17.83 6.884l389.964 212.109q9.714 5.588 14.886 14.567 5.172 8.978 5.172 19.165v261.957q0 15.42-10.487 25.851-10.488 10.431-25.991 10.431-15.413 0-25.87-10.431-10.456-10.431-10.456-25.851v-243.24l-84.145 43.449v194.472q0 21.547-10.689 39.321-10.688 17.773-28.999 27.889L515.558-137.348q-8.544 5.051-17.675 7.044-9.131 1.992-18.554 1.992-9.423 0-18.55-1.992-9.127-1.993-17.67-7.044L229.485-253.442Zm249.848-186.543L773.254-600 479.333-758.015 186.746-600l292.587 160.015Zm0 240.094 216.573-118.834v-154.84l-180.015 97.362q-8.543 4.732-17.659 6.884t-18.899 2.152q-9.782 0-18.565-2.152-8.782-2.152-17.326-6.884L262.76-474.899v156.174l216.573 118.834ZM480-439.985Zm-.667 109.34Zm0 0Z"/></svg>