<svg xmlns="http://www.w3.org/2000/svg" height="40" viewBox="0 -960 960 960" width="40"><path d="M189.058-113.304q-30.994 0-53.374-22.38-22.38-22.38-22.38-53.374v-581.884q0-31.06 22.38-53.486 22.38-22.427 53.374-22.427h581.884q31.06 0 53.486 22.427 22.427 22.426 22.427 53.486v581.884q0 30.994-22.427 53.374-22.426 22.38-53.486 22.38H189.058Zm581.884-326.058v-91.833L520-280.492 382.094-418.398q-11.5-11.355-26.833-11.355-15.334 0-26.689 11.355L189.058-278.911v86.52h7.971l158.304-158.304 136.79 136.79q11.457 11.355 26.732 11.355 15.275 0 26.63-11.355l225.457-225.457Zm-260.198-42.247q11.589 0 19.089-7.555 7.5-7.556 7.5-19.111v-186.667q0-11.556-7.577-19.111-7.578-7.556-19.167-7.556-11.589 0-19.089 7.556-7.5 7.555-7.5 19.111v186.667q0 11.555 7.578 19.111 7.577 7.555 19.166 7.555ZM600-606.276l40.333-75.333q7.333-14-.5-27-7.834-13-23.5-13-7.492 0-13.913 3.834-6.421 3.833-9.754 10.5l-55.333 105.666 55.333 105q3.333 7.334 9.754 11.167 6.421 3.833 13.913 3.833 16.656 0 24.495-12.666 7.838-12.667 1.505-26.667L600-606.276Zm-271.334 71.334v-42.667H404q11.555 0 19.111-7.555 7.555-7.556 7.555-19.112v-90.666q0-11.556-7.555-19.111-7.556-7.556-19.111-7.556H302q-11.556 0-19.111 7.578-7.556 7.577-7.556 19.166t7.556 19.089q7.555 7.5 19.111 7.5h75.333v37.334H302q-11.556 0-19.111 7.555-7.556 7.556-7.556 19.111v96.001q0 11.555 7.556 19.111 7.555 7.555 19.111 7.555h102q11.555 0 19.111-7.577 7.555-7.578 7.555-19.167 0-11.589-7.555-19.089-7.556-7.5-19.111-7.5h-75.334Z"/></svg>