<svg xmlns="http://www.w3.org/2000/svg" height="40" viewBox="0 -960 960 960" width="40"><path d="M696.95-802.949h80v-41.334q0-17.666-11.167-28.833-11.167-11.167-28.833-11.167-17.667 0-28.834 11.167-11.166 11.167-11.166 28.833v41.334ZM529.137-34.348q-99.054 0-186.269-37.666-87.216-37.667-152.136-102.921-64.92-65.253-102.587-152.471Q50.48-414.623 50.48-513.681q0-15.011 9.89-24.969 9.89-9.958 24.957-9.958 14.965 0 24.867 9.958 9.901 9.958 9.901 24.969 0 75.66 26.623 143.598 26.624 67.939 72.896 121.221 46.271 53.283 109.413 88.837 63.141 35.555 135.576 46.352l-91.718-91.878q-10.384-10.279-10.05-24.501.333-14.222 10.717-24.502 10.267-10.279 24.804-10.279 14.536 0 24.92 10.225L596.261-81.463q11.652 11.652 6.572 26.344-5.079 14.692-20.501 17.692-12.216 1.84-25.701 2.46-13.486.62-27.494.62ZM555.906-227l-313.92-314.16q-23.63-23.471-23.79-55.083-.159-31.612 23.79-55.561l154.876-154.21q23.95-23.949 55.403-23.949 31.452 0 55.402 23.949l43.283 44.001v121.064q0 43.84 30.413 74.253 30.413 30.413 74.254 30.413h122.048l44.161 44.189q23.283 23.36 23.283 55.481t-23.283 55.403L666.79-227q-24.026 23.949-55.48 23.949-31.454 0-55.404-23.949Zm99.711-375.949q-14.667 0-26.334-11.667t-11.667-26.333v-124q0-14.667 11.667-26.334 11.667-11.666 26.334-11.666h2.666v-41.334q0-33 22.833-55.833 22.834-22.833 55.834-22.833t55.833 22.833q22.833 22.833 22.833 55.833v41.334h3.334q14.666 0 26.333 11.666 11.667 11.667 11.667 26.334v124q0 14.666-11.667 26.333-11.667 11.667-26.333 11.667H655.617Z"/></svg>