<svg xmlns="http://www.w3.org/2000/svg" height="40" viewBox="0 -960 960 960" width="40"><path d="M772.537-487.001q0-88.75-49.428-160.952-49.428-72.201-129.964-105.12-13.718-5.746-19.544-18.348-5.826-12.601-.625-25.659 6.192-14.12 20.007-19.976 13.814-5.857 28.372.049 99.159 40.949 159.978 129.949 60.819 89 60.819 200.044 0 111.044-60.819 200.08-60.819 89.035-159.978 129.985-14.607 5.905-28.434.054-13.827-5.851-19.979-19.977-5.167-13.063.659-25.664t19.571-18.507q80.509-32.804 129.937-105.006 49.428-72.202 49.428-160.952ZM275.456-363.188H155.724q-15.999 0-26.938-10.939-10.938-10.938-10.938-26.938v-169.827q0-15.999 10.938-26.938 10.939-10.938 26.938-10.938h119.732l139.109-139.109q17.979-17.978 41.308-8.268 23.33 9.71 23.33 34.884v470.566q0 25.174-23.33 34.884-23.329 9.71-41.308-8.268L275.456-363.188Zm386.696-122.751q0 44.693-20.844 83.073-20.844 38.381-56.642 61.917-8.731 4.348-23.764 6.17-15.033 1.823-15.033-16.473v-270.547q0-18.296 15.366-16.473 15.366 1.823 24.098 6.011 35.797 23.775 56.308 62.282 20.511 38.508 20.511 84.04ZM407.435-337.05v-297.19L306.677-537H189.616v101.884h117.087l100.732 98.066ZM71.064-685.333q-16.05 0-26.905-10.939-10.855-10.938-10.855-26.938v-127.732q0-31.56 22.13-53.736 22.13-22.177 53.624-22.177H236.79q16 0 26.938 11.066 10.939 11.065 10.939 27.101t-10.939 26.891q-10.938 10.855-26.938 10.855H109.058v127.732q0 16-10.972 26.938-10.972 10.939-27.022 10.939ZM723.21-33.304q-16 0-26.938-10.972-10.939-10.972-10.939-27.022 0-16.05 10.939-26.905 10.938-10.855 26.938-10.855h127.732V-236.79q0-16 10.972-26.938 10.972-10.939 27.008-10.939t26.984 10.939q10.949 10.938 10.949 26.938v127.732q0 31.494-22.177 53.624-22.176 22.13-53.736 22.13H723.21ZM298.645-486.058Z"/></svg>