<svg xmlns="http://www.w3.org/2000/svg" height="40" viewBox="0 -960 960 960" width="40"><path d="m350-530 25 25q8.333 8.333 19 8 10.667-.333 18.333-8.667 7-7.666 6.667-18-.334-10.333-8-18L384.666-568 412-595.667q7.333-7.667 7.333-17.666 0-10-7-17.667-7.666-8.333-18.333-8.667-10.667-.333-19 8l-25 25-29-26.666q-8.334-7.334-18.667-6.667-10.333.667-18.667 9-6.666 7.333-6.499 17.833.166 10.5 7.5 18.167l26.666 27L285-541.667q-7.667 7.667-8 18-.333 10.334 7.333 18.667 7.333 8 17.833 8.5 10.5.5 18.834-6.833L350-530Zm260 0 29.667 26.667Q648-496 658.334-496.667q10.333-.666 18.666-9 7-7.666 6.667-18-.334-10.333-8-18L649.333-568 676-595q7.333-7.667 7.667-18 .333-10.333-7.333-18.667-7.334-8-17.834-8.5t-18.833 6.834L610-606.667l-24.333-25q-8.334-8.333-19-7.666-10.667.666-18.333 9-6.667 7.333-6.834 17.5-.166 10.166 7.167 17.833l26.667 27L549-541q-7.666 7.667-7.666 17.333 0 9.667 7 17.334 7.666 8.333 18.333 9 10.666.666 19-7.667L610-530ZM480.022-73.304q-84.377 0-158.573-31.939-74.195-31.938-129.232-86.974-55.036-55.037-86.974-129.21-31.939-74.174-31.939-158.551 0-84.377 31.939-158.573 31.938-74.195 86.949-129.24 55.011-55.045 129.197-87.054 74.185-32.01 158.576-32.01 84.39 0 158.605 31.997 74.214 31.998 129.247 87.021 55.033 55.024 87.035 129.226Q886.855-564.409 886.855-480q0 84.399-32.01 158.592-32.009 74.193-87.054 129.21-55.045 55.017-129.218 86.955-74.174 31.939-158.551 31.939ZM480.001-418q-56.842 0-105.553 28.214t-77.825 75.119q-6.253 12 .613 23.334Q304.102-280 318.022-280H641.42q13.899 0 20.895-11.333 6.997-11.334.757-23.334-29.155-46.905-77.646-75.119T480.001-418Z"/></svg>