<svg xmlns="http://www.w3.org/2000/svg" height="40" viewBox="0 -960 960 960" width="40"><path d="M356-328.667h268.667q38 0 65-25.732 27-25.733 27-63 0-37.267-27-62.601-27-25.333-65-25.333H614q-6-52.333-40.833-89.167-34.834-36.833-85.834-36.833-42 0-76.666 23.333-34.667 23.334-50 62.667H347q-41.826 0-69.413 32-27.587 32-27.587 76 0 44.666 30.667 76.666 30.666 32 75.333 32Zm0-66.666q-16.717 0-28.025-11.834-11.308-11.833-11.308-30.166 0-18.334 11.308-29.834t28.025-11.5h53.333v-3.999q0-33.001 22.5-57.501t53.5-24.5q29 0 47.5 23.5t18.5 51.167v51.333h73.334q12 0 18.667 5.667Q650-427.333 650-417.333t-6.666 16q-6.667 6-18.667 6H356ZM149.058-153.304q-30.994 0-53.374-22.38-22.38-22.38-22.38-53.374v-501.884q0-31.06 22.38-53.486 22.38-22.427 53.374-22.427h661.884q31.06 0 53.486 22.427 22.427 22.426 22.427 53.486v501.884q0 30.994-22.427 53.374-22.426 22.38-53.486 22.38H149.058Zm0-75.754h661.884v-501.884H149.058v501.884Zm0 0v-501.884 501.884Z"/></svg>