<svg xmlns="http://www.w3.org/2000/svg" height="40" viewBox="0 -960 960 960" width="40"><path d="M581.553-73.304q-25.178 0-42.826-17.63-17.647-17.629-17.647-42.814v-201.478q0-25.071 17.616-42.77 17.616-17.7 42.782-17.7h60.399l40.345-40.318h80.691l40.255 40.318h60.383q25.159 0 42.898 17.742 17.739 17.741 17.739 42.812v201.478q0 25.185-17.686 42.772-17.686 17.588-42.952 17.588H581.553Zm141.041-81.674q33.319 0 56.939-23.596 23.619-23.596 23.619-57.042 0-33.445-23.619-57.041-23.62-23.597-56.939-23.597-33.478 0-57.098 23.597-23.619 23.596-23.619 57.041 0 33.446 23.619 57.042 23.62 23.596 57.098 23.596Zm-285.5 81.674h-27.927q-14.377 0-24.921-9.116-10.543-9.116-12.623-23.203l-14.427-96.5q-15.506-5.641-32.054-15.245-16.548-9.603-29.606-19.9l-89.167 40.109q-13.435 5.971-27.154 1.418-13.719-4.552-21.331-17.571l-70.58-124.666q-7.623-12.417-4.224-26.468 3.398-14.052 14.673-22.684l80.74-59.725q-1.428-7.501-1.761-16.562-.333-9.061-.333-16.563 0-7.501.333-16.562t1.761-16.603l-80.74-59.645q-11.275-8.66-14.673-22.757-3.399-14.098 4.224-26.475l70.58-124.427q7.629-12.722 21.34-17.383 13.71-4.661 27.145 1.231l89.609 39.949q12.935-10.138 29.5-19.634 16.566-9.497 31.718-14.605l14.427-97.645q2.08-13.928 12.623-23.124 10.544-9.195 24.921-9.195h141.666q14.377 0 24.921 9.195 10.543 9.196 12.623 23.124l14.427 96.978q15.475 5.746 32.292 14.924 16.817 9.178 29.368 19.982l89.167-39.949q13.435-5.892 27.145-1.231 13.711 4.661 21.34 17.383l70.5 124.043q6.797 12.754 3.835 26.81-2.963 14.056-14.335 22.567l-77.489 57.015h-176.92q-12.255-41.728-47.091-69.523-34.836-27.796-80.507-27.796-55.398 0-94.366 39.047-38.967 39.048-38.967 94.286 0 44.667 25.199 78.786 25.199 34.12 65.119 47.809v280.1Z"/></svg>