<svg xmlns="http://www.w3.org/2000/svg" height="40" viewBox="0 -960 960 960" width="40"><path d="M311.283-197.167q14.217 0 23.717-9.616 9.5-9.617 9.5-23.834 0-14.216-9.617-23.716-9.617-9.5-23.834-9.5-14.216 0-23.716 9.617-9.5 9.617-9.5 23.833 0 14.217 9.617 23.717 9.617 9.499 23.833 9.499Zm0-157.333q14.217 0 23.717-9.583 9.5-9.583 9.5-23.75v-97.334q0-14.166-9.617-23.75-9.617-9.583-23.834-9.583-14.216 0-23.716 9.583-9.5 9.584-9.5 23.75v97.334q0 14.167 9.617 23.75t23.833 9.583Zm167.501 157.333q14.216 0 23.716-9.583 9.5-9.583 9.5-23.75v-100q0-14.167-9.617-23.75t-23.833-9.583q-14.217 0-23.717 9.583-9.5 9.583-9.5 23.75v100q0 14.167 9.617 23.75t23.834 9.583Zm0-254.667q14.216 0 23.716-9.617 9.5-9.616 9.5-23.833 0-14.216-9.617-23.716-9.617-9.5-23.833-9.5-14.217 0-23.717 9.617-9.5 9.617-9.5 23.833 0 14.216 9.617 23.716 9.617 9.5 23.834 9.5Zm172.833 254.667q14.217 0 23.717-9.616 9.499-9.617 9.499-23.834 0-14.216-9.616-23.716-9.617-9.5-23.834-9.5-14.216 0-23.716 9.617-9.5 9.617-9.5 23.833 0 14.217 9.617 23.717 9.617 9.499 23.833 9.499Zm0-157.333q14.217 0 23.717-9.583 9.499-9.583 9.499-23.75v-97.334q0-14.166-9.616-23.75-9.617-9.583-23.834-9.583-14.216 0-23.716 9.583-9.5 9.584-9.5 23.75v97.334q0 14.167 9.617 23.75t23.833 9.583ZM229.058-73.304q-30.994 0-53.374-22.38-22.38-22.38-22.38-53.374v-462.906q0-15.476 6.004-29.501t16.373-24.448l198.406-198.406q10.355-10.355 24.402-16.446 14.047-6.09 29.547-6.09h302.906q31.06 0 53.486 22.427 22.427 22.426 22.427 53.486v661.884q0 30.994-22.427 53.374-22.426 22.38-53.486 22.38H229.058Z"/></svg>