<svg xmlns="http://www.w3.org/2000/svg" height="40" viewBox="0 -960 960 960" width="40"><path d="M151.181-153.304q-32.163 0-55.02-22.857-22.857-22.857-22.857-55.02v-413.334q0-16 10.972-26.938 10.972-10.938 27.022-10.938 16.05 0 26.905 10.938t10.855 26.938v415.457h535.457q16 0 26.938 10.972 10.938 10.972 10.938 27.022 0 16.05-10.938 26.905t-26.938 10.855H151.181Zm169.087-169.087q-32.163 0-55.02-22.857-22.857-22.857-22.857-55.02V-736.79q0-32.313 22.857-55.175 22.857-22.861 55.02-22.861h332.501l-75.753 75.912H318.304v340.61h492.638V-653.03l75.913-75.754v328.516q0 32.163-22.862 55.02-22.861 22.857-55.174 22.857H320.268Zm226.465-169.986q-18.66 0-35.61-6.797-16.949-6.797-30.174-20.152-4.333-5.16-3.307-9.779 1.025-4.62 6.344-6.221 11-2.774 17.405-12.131 6.406-9.357 6.406-20.884 0-23.774 16.845-40.535 16.845-16.762 40.892-16.762 24.047 0 40.706 16.812 16.658 16.812 16.658 40.657 0 31.357-22.318 53.575-22.318 22.217-53.847 22.217Zm126.071-117.594-65.413-65.413L775.855-842.58q5.678-5.732 13.607-5.732 7.93 0 13.747 5.658l37.372 37.532q5.818 5.846 5.818 13.776 0 7.929-5.892 13.418L672.804-609.971Z"/></svg>