<svg xmlns="http://www.w3.org/2000/svg" height="40" viewBox="0 -960 960 960" width="40"><path d="M293.101-116.812q-92.514 0-157.351-64.916Q70.913-246.645 70.913-339q0-87.594 58.696-151.17 58.695-63.576 146.289-70.258L142.5-828.573q-9.783-19.058 1.072-36.837 10.855-17.778 32.247-17.778h179.435q21.63 0 39.855 11.355 18.224 11.355 28.101 30.413L480-727.174l56.79-114.246q9.877-19.058 28.101-30.413 18.225-11.355 39.855-11.355h179.435q21.392 0 32.247 17.778 10.855 17.779 1.072 36.837L685.261-562.428q86.674 7.682 145.33 71.258 58.656 63.576 58.656 151.17 0 93.275-65.037 158.232-65.036 64.956-158.152 64.956-10.196 0-20.533-.779-10.337-.779-20.373-3.018 58.305-32.905 88.171-92.456Q743.188-272.616 743.188-340q0-110.116-76.536-186.652Q590.116-603.188 480-603.188q-110.116 0-186.652 76.536Q216.812-450.116 216.812-340q0 67.623 29.213 127.605 29.214 59.982 88.062 91.786-10.196 2.319-20.573 3.058-10.376.739-20.413.739ZM480-143.478q-81.609 0-139.066-57.456Q283.478-258.391 283.478-340q0-81.609 57.456-139.066Q398.391-536.522 480-536.522q81.609 0 139.066 57.456Q676.522-421.609 676.522-340q0 81.609-57.456 139.066Q561.609-143.478 480-143.478Zm0-143.558 49.254 37.623q5.891 3.985 11.569.167 5.677-3.819 3.597-10.442l-18.978-61.79 49.015-34.797q5.891-4.145 3.692-10.776-2.2-6.63-8.917-6.63h-60.551l-19.645-64.645q-2.319-6.464-9.036-6.464t-9.036 6.464l-19.486 64.645h-60.551q-6.876 0-9.076 6.63-2.199 6.631 3.692 10.776l49.015 34.797-18.819 61.79q-2.239 6.623 3.438 10.442 5.678 3.818 11.569-.167L480-287.036Z"/></svg>