<svg xmlns="http://www.w3.org/2000/svg" height="40" viewBox="0 -960 960 960" width="40"><path d="M448.275-77.956q-71.405-12.812-139.029-48.142-67.623-35.33-120.069-95.072-52.445-59.743-84.159-144.62-31.714-84.877-31.714-197.543v-13.319q0-13.037 9.384-22.62t22.421-9.583h13.318q50.501 0 107.544 17.482 57.044 17.482 102.58 45.808 9.558-77.015 42.927-159.228 33.37-82.214 79.689-148.439 11.463-16.036 28.713-16.036t28.714 16.036q46.319 66.225 79.808 148.439 33.489 82.213 43.047 159.228 46.573-27.551 103.257-45.46 56.685-17.91 109.019-17.91h10.391q13.131 0 22.975 9.725 9.844 9.724 9.844 22.855v10.63q0 113.703-31.594 198.899-31.595 85.195-84 145.058-52.406 59.862-119.95 95.192-67.543 35.33-139.188 48.38-12.942 2.479-31.964 2.519-19.022.04-31.964-2.28Zm33.443-72.993Q470-326.254 376.696-417.08q-93.305-90.826-226.544-113.971h.239q12.812 179.442 108.384 270.446 95.573 91.004 222.943 109.656 1.094 1-.334.5-1.427-.5.334-.5Zm-81.196-350.203q21.282 17.884 43.326 44.402 22.043 26.518 35.724 49.91 14.653-24.348 36.359-49.71 21.707-25.363 43.547-44.602 1.631-62.392-21.007-126.287t-58.71-131.54q-.667-.906 0 .047.667.953 0-.047-36.261 67.037-58.526 130.783-22.264 63.747-20.713 127.044Zm121.485 171.594q12 36 21.192 73.935t14.192 85.268q41.66-15.174 84.106-41.975 42.445-26.8 77.543-69.884 35.098-43.083 59.714-104.322 24.616-61.24 30.616-144.515.239-1.602.12.199-.12 1.801-.12-.199-98.493 16.239-173.689 69.015-75.196 52.775-113.674 132.478Z"/></svg>