<svg xmlns="http://www.w3.org/2000/svg" height="40" viewBox="0 -960 960 960" width="40"><path d="M280.667-399.333q17 0 28.5-11.5t11.5-28.5q0-17-11.5-28.5t-28.5-11.5q-17 0-28.5 11.5t-11.5 28.5q0 17 11.5 28.5t28.5 11.5Zm0-120q17 0 28.5-11.5t11.5-28.5q0-17-11.5-28.5t-28.5-11.5q-17 0-28.5 11.5t-11.5 28.5q0 17 11.5 28.5t28.5 11.5Zm0-120q17 0 28.5-11.5t11.5-28.5q0-17-11.5-28.5t-28.5-11.5q-17 0-28.5 11.5t-11.5 28.5q0 17 11.5 28.5t28.5 11.5ZM433.333-406h133.334q14.166 0 23.75-9.617Q600-425.234 600-439.45q0-14.217-9.583-23.717-9.584-9.499-23.75-9.499H433.333q-14.166 0-23.75 9.616Q400-453.433 400-439.216q0 14.216 9.583 23.716 9.584 9.5 23.75 9.5Zm0-120h254.001q14.166 0 23.749-9.617 9.584-9.617 9.584-23.833 0-14.217-9.584-23.717-9.583-9.499-23.749-9.499H433.333q-14.166 0-23.75 9.616Q400-573.433 400-559.216q0 14.216 9.583 23.716 9.584 9.5 23.75 9.5Zm0-120h254.001q14.166 0 23.749-9.617 9.584-9.617 9.584-23.833 0-14.217-9.584-23.717-9.583-9.499-23.749-9.499H433.333q-14.166 0-23.75 9.616Q400-693.433 400-679.216q0 14.216 9.583 23.716 9.584 9.5 23.75 9.5ZM233.304-233.304l-95.362 95.362q-17.978 17.978-41.308 8.268t-23.33-34.884v-646.384q0-31.06 22.38-53.486 22.38-22.427 53.374-22.427h661.884q31.06 0 53.486 22.427 22.427 22.426 22.427 53.486v501.884q0 30.994-22.427 53.374-22.426 22.38-53.486 22.38H233.304Z"/></svg>