<svg xmlns="http://www.w3.org/2000/svg" height="40" viewBox="0 -960 960 960" width="40"><path d="M189.058-524.681q-30.994 0-53.374-22.427-22.38-22.427-22.38-53.486v-170.348q0-31.06 22.38-53.486 22.38-22.427 53.374-22.427h581.884q31.06 0 53.486 22.427 22.427 22.426 22.427 53.486v170.348q0 31.059-22.427 53.486-22.426 22.427-53.486 22.427H189.058Zm0-75.913h581.884v-170.348H189.058v170.348Zm0 487.29q-30.994 0-53.374-22.38-22.38-22.38-22.38-53.374v-170.935q0-30.993 22.38-53.373t53.374-22.38h581.884q31.06 0 53.486 22.38 22.427 22.38 22.427 53.373v170.935q0 30.994-22.427 53.374-22.426 22.38-53.486 22.38H189.058Zm0-75.754h581.884v-170.935H189.058v170.935Zm0-411.536v-170.348 170.348Zm0 411.536v-170.935 170.935Z"/></svg>