<svg xmlns="http://www.w3.org/2000/svg" height="40" viewBox="0 -960 960 960" width="40"><path d="M592.376-387.239 484.949-279.971q-12.101 12.261-29.561 12.141-17.461-.119-29.482-12.141L80.862-625.015Q68.84-637.067 68.84-652.689q0-15.621 12.022-27.688L188.53-788.123q12.26-12.261 29.815-14.261 17.554-2 29.656 10.261l344.376 344.456q12.022 12.022 12.062 30.095.04 18.072-12.062 30.333ZM456-357.427l59.239-59.24-295.522-295.681-59.239 59.399L456-357.427ZM725.964-97.659 574.928-248.696l54.376-54.376 151.037 151.036q11.021 10.725 11.021 27.04 0 16.315-11.021 27.337-11.022 11.022-27.337 11.022-16.315 0-27.04-11.022Zm21.349-514.559q-58.849 0-99.429-40.565-40.579-40.565-40.579-99.414 0-58.848 40.565-99.424 40.565-40.575 99.414-40.575 58.848 0 99.543 40.631 40.695 40.631 40.695 99.409 0 58.779-40.68 99.359-40.681 40.579-99.529 40.579Zm-.086-75.753q26.737 0 45.56-18.716 18.822-18.716 18.822-45.453 0-26.737-18.716-45.44t-45.453-18.703q-26.737 0-45.559 18.646-18.823 18.646-18.823 45.284 0 26.737 18.716 45.559 18.716 18.823 45.453 18.823Zm.107-64.276ZM337.739-534.928Z"/></svg>