<svg xmlns="http://www.w3.org/2000/svg" height="40" viewBox="0 -960 960 960" width="40"><path d="M886.855-175.811 421.949-640.478h388.993q31.314 0 53.614 22.299 22.299 22.299 22.299 53.614v388.754ZM249.173-813.015l-73.84-73.84h388.993q31.314 0 53.614 22.299 22.299 22.3 22.299 53.614v103.797h-73.84v-105.87H249.173Zm146.262 739.71q-32.064 0-53.909-21.844-21.845-21.845-21.845-53.909v-395.051L146.666-716.965v323.444h106.349v73.84H148.818q-32.063 0-53.908-21.845t-21.845-53.909v-395.29l-22.014-21.986q-10.486-10.405-10.065-24.851.42-14.446 10.908-24.924 10.403-10.319 24.707-10.319 14.305 0 24.783 10.319l764.29 764.972q10.319 10.319 10.279 24.33-.04 14.01-10.528 24.488-10.403 10.32-24.707 10.32t-24.843-10.415l-25.15-24.513h-395.29Z"/></svg>