<svg xmlns="http://www.w3.org/2000/svg" height="40" viewBox="0 -960 960 960" width="40"><path d="M777.584-80q-13.576 0-21.421-12.29-7.844-12.29-3.271-26.898 16.978-54.826 23.192-111.548 6.213-56.721.583-113.975-37.391 88.291-117.587 140.236-80.196 51.946-177.08 51.946-86.015 0-155.773-40.589-69.759-40.589-118.623-108.149-48.865-67.559-75.303-155.473-26.439-87.914-26.439-181.927 0-51.936 5.749-102.393t20.454-100.324q5.148-17.059 18.763-27.837Q164.442-880 182.725-880q13.367 0 21.201 12.29t3.421 26.898q-16.217 54.826-22.01 111.548-5.794 56.721-2.004 113.308 37.898-88.957 119.215-140.236Q383.864-807.471 482-807.471q86.028 0 154.797 40.642 68.769 40.643 117.214 108.437 48.445 67.795 74.286 155.131T854.138-322q0 52.603-5.749 103.06t-20.454 100.324q-5.148 17.059-18.588 27.838Q795.908-80 777.584-80ZM481.961-323.718q65.394 0 110.858-45.424t45.464-110.819q0-65.394-45.425-110.858-45.424-45.463-110.818-45.463-65.395 0-110.859 45.424-45.463 45.424-45.463 110.819 0 65.394 45.424 110.858 45.424 45.463 110.819 45.463Zm.007-72.564q-35.026 0-59.356-24.362-24.329-24.361-24.329-59.388 0-35.026 24.361-59.356t59.388-24.33q35.026 0 59.356 24.362 24.33 24.361 24.33 59.388 0 35.026-24.362 59.356-24.361 24.33-59.388 24.33Z"/></svg>