<svg xmlns="http://www.w3.org/2000/svg" height="40" viewBox="0 -960 960 960" width="40"><path d="M189.058-113.304q-30.994 0-53.374-22.38-22.38-22.38-22.38-53.374v-581.884q0-31.06 22.38-53.486 22.38-22.427 53.374-22.427h581.884q31.06 0 53.486 22.427 22.427 22.426 22.427 53.486v581.884q0 30.994-22.427 53.374-22.426 22.38-53.486 22.38H189.058Zm99.855-453.501h249.08q22.408 0 37.678-15.379 15.271-15.379 15.271-37.771 0-22.393-15.271-37.69-15.27-15.297-37.678-15.297h-249.32q-22.408 0-37.678 15.26-15.271 15.259-15.271 37.652 0 22.392 15.391 37.809 15.39 15.416 37.798 15.416Z"/></svg>