<svg xmlns="http://www.w3.org/2000/svg" height="40" viewBox="0 -960 960 960" width="40"><path d="M190.384-185.333q-15.681 0-26.381-10.733-10.699-10.733-10.699-26.384t10.699-26.227q10.7-10.576 26.381-10.576h329.819q15.282.08 25.942 10.699 10.659 10.62 10.659 26.464 0 15.605-10.669 26.181-10.67 10.576-26.171 10.576h-329.58Zm-.239-171.602q-15.502 0-26.171-10.703-10.67-10.703-10.67-26.254 0-15.731 10.67-26.307 10.669-10.576 26.171-10.576h579.71q15.57 0 26.285 10.693t10.715 26.344q0 15.651-10.715 26.227t-26.285 10.576h-579.71Zm0-170.616q-15.502 0-26.171-10.707-10.67-10.707-10.67-26.264 0-15.558 10.67-26.213 10.669-10.656 26.171-10.656h579.71q15.57 0 26.285 10.739t10.715 26.344q0 15.605-10.715 26.181t-26.285 10.576h-579.71Zm1.036-171.363q-16 0-26.938-10.971-10.939-10.973-10.939-27.008 0-16.036 10.939-26.985 10.938-10.948 26.938-10.948h577.638q15.98 0 27.008 11.065 11.028 11.066 11.028 27.102 0 16.035-11.028 26.89t-27.008 10.855H191.181Z"/></svg>