<svg xmlns="http://www.w3.org/2000/svg" height="40" viewBox="0 -960 960 960" width="40"><path d="M480.239-73.304q-83.749 0-157.994-32.018T192.79-192.63q-55.21-55.29-87.308-129.426-32.098-74.136-32.098-157.884 0-84.415 32.098-158.277Q137.58-712.08 192.79-767.37q55.21-55.289 129.461-87.387 74.252-32.098 158.008-32.098 84.176 0 158.078 32.098t129.112 87.387q55.21 55.29 87.308 129.158 32.098 73.867 32.098 158.232 0 83.828-32.098 157.944-32.098 74.116-87.308 129.406-55.21 55.29-129.169 87.308-73.959 32.018-158.041 32.018Zm-103.87-347.174q57.161 0 97.396-40.308T514-558.268q0-57.174-40.235-97.442-40.235-40.268-97.396-40.268-57.16 0-97.514 40.254-40.355 40.255-40.355 97.442 0 57.188 40.355 97.496 40.354 40.308 97.514 40.308Zm292.062 43.681q42.942 0 73.006-30.04 30.063-30.041 30.063-73.109 0-43.069-30.063-73.163-30.064-30.094-73.006-30.094t-73.179 30.04q-30.237 30.041-30.237 73.109 0 43.069 30.237 73.163 30.237 30.094 73.179 30.094ZM480.239-149.058q85.029 0 155.844-39.094 70.816-39.094 116.084-103.856-20.761-6.013-41.094-10.347-20.334-4.333-42.855-4.333-53.959 0-128.096 31.88-74.136 31.881-120.897 120.084 15.04 2.666 30.253 4.166 15.214 1.5 30.761 1.5Zm-131.84-27.333q32.746-71.333 75.887-106.362 43.141-35.029 61.583-46.522-24.442-9.428-52.284-13.928-27.843-4.5-57.163-4.5-46.147 0-90.161 11.961-44.015 11.96-84.776 33.054 26.519 41.874 63.988 74.165 37.469 32.291 82.926 52.132Z"/></svg>