<svg xmlns="http://www.w3.org/2000/svg" height="40" viewBox="0 -960 960 960" width="40"><path d="M479.978-874.131q-92.92 0-177.833 33.62-84.914 33.619-155.878 93.656h91.486q11.065 0 19.032 7.909 7.968 7.91 7.968 19.091 0 11.181-7.909 19.01-7.91 7.83-19.091 7.83H111.181q-16.167 0-27.022-10.855-10.855-10.855-10.855-27.022v-128.963q0-11.064 7.83-19.032t19.011-7.968q11.181 0 19.09 7.909 7.91 7.91 7.91 19.091v58.493q76.079-60.203 165.706-93.406t187.184-33.203q97.556 0 187.135 33.166t165.845 93.443v-58.493q0-11.064 7.83-19.032 7.829-7.968 19.01-7.968 11.181 0 19.091 7.909 7.909 7.91 7.909 19.091v128.963q0 16.167-10.945 27.022-10.944 10.855-27.091 10.855h-124.5q-11.181 0-19.09-7.83-7.91-7.829-7.91-19.01 0-11.181 7.91-19.091 7.909-7.909 19.09-7.909h89.414q-70.964-60.037-155.899-93.656-84.935-33.62-177.856-33.62ZM465.659-73.304q-23.145 0-44.369-8.573-21.225-8.572-37.797-25.224l-191.95-193.718q-8.043-8.043-8.837-19.482-.793-11.438 5.837-20.641l1.109-1.109q14.579-19.029 36.84-26.231 22.261-7.203 45.355-.276l82.254 23.189V-680q0-15.326 10.218-25.645 10.217-10.319 25.556-10.319t25.666 10.319q10.328 10.319 10.328 25.645v288.58h58.001v-143.986q0-15.258 10.328-25.531 10.327-10.273 25.666-10.273t25.636 10.273q10.297 10.273 10.297 25.531v143.986h57.334v-103.986q0-15.258 10.217-25.531t25.556-10.273q15.339 0 25.667 10.273 10.328 10.273 10.328 25.531v103.986h58v-23.986q0-15.258 10.328-25.531t25.666-10.273q15.339 0 25.636 10.273 10.297 10.273 10.297 25.531v179.631q0 67.275-47.696 114.873-47.697 47.598-114.934 47.598H465.659Z"/></svg>