<svg xmlns="http://www.w3.org/2000/svg" height="40" viewBox="0 -960 960 960" width="40"><path d="M602.152-275.456q-79.558 0-132.975-48.834-53.416-48.833-68.532-117.833H217.92l52.471 52.551q11.022 11.261 11.062 26.475.04 15.213-11.315 26.568-11.102 11.261-26.562 11.261t-26.561-11.261L99.905-453.478q-5.89-5.892-8.456-12.475-2.565-6.583-2.565-14.047t2.565-14.047q2.565-6.583 8.457-12.475l117.109-116.949q11.101-11.261 26.434-11.261 15.334 0 26.689 11.022 11.355 11.355 11.355 26.807 0 15.453-11.355 26.808l-52.218 52.218h182.725q15.116-69 68.532-117.833 53.417-48.834 132.975-48.834 85.073 0 144.888 59.816Q806.855-564.913 806.855-480q0 84.913-59.815 144.728-59.815 59.816-144.888 59.816Z"/></svg>