<svg xmlns="http://www.w3.org/2000/svg" height="40" viewBox="0 -960 960 960" width="40"><path d="M269.616-33.862q-30.994 0-53.374-22.38-22.38-22.38-22.38-53.374v-740.768q0-30.994 22.38-53.374 22.38-22.38 53.374-22.38h420.768q30.994 0 53.374 22.38 22.38 22.38 22.38 53.374v740.768q0 30.994-22.38 53.374-22.38 22.38-53.374 22.38H269.616Zm0-175.753h420.768v-540.77H269.616v540.77Zm177.051-236.602v-152.45q0-14.333 9.5-23.833 9.5-9.5 23.833-9.5 14.333 0 23.833 9.5 9.5 9.5 9.5 23.833v152.45l53.146-52.93q9.666-9.628 23.086-9.748 13.421-.119 23.58 9.881 9.667 9.826 9.667 23.766 0 13.939-9.667 23.567l-106.384 107.29q-11.413 11.355-26.79 11.355-15.377 0-26.732-11.355l-106.891-107.29q-9.813-9.627-9.653-23.4.16-13.774 10.319-23.933 9.627-9.667 23.52-9.714 13.893-.047 23.814 9.62l52.319 52.891Z"/></svg>