<svg xmlns="http://www.w3.org/2000/svg" height="40" viewBox="0 -960 960 960" width="40"><path d="M790.501-146.652H653.797q-15.369 0-25.666-10.217-10.297-10.218-10.297-25.587 0-15.37 10.297-25.667 10.297-10.297 25.666-10.297h136.704l-42.203-43.029q-9.797-10.304-10.131-24.84-.333-14.537 10.464-25.334 10.464-10.463 25.087-10.463t25.087 10.463L901.21-209.217q11.355 11.355 11.355 26.681t-11.355 26.681L798.805-53.449q-10.464 10.464-24.921 10.63-14.456.167-25.253-10.63-10.464-10.304-10.25-25.007.214-14.703 10.011-25.167l42.109-43.029Zm-601.443 33.348q-30.986 0-53.37-22.384-22.384-22.384-22.384-53.37v-581.884q0-30.986 22.384-53.449 22.384-22.464 53.37-22.464h581.884q30.986 0 53.449 22.464 22.464 22.463 22.464 53.449v379.298q-18.464-6.065-36.934-9.391-18.471-3.326-37.363-3.326-35.775 0-67.615 10.934-31.841 10.935-58.681 30.711L528.819-480l89.79-89.631q10.065-10.224 10.144-24.409.08-14.185-10.144-24.569-10.384-10.224-24.489-10.224t-24.489 10.224L480-528.819l-89.631-89.79q-10.224-10.065-24.289-10.144-14.065-.08-24.449 10.144-10.225 10.384-10.225 24.489t10.225 24.489L431.181-480l-89.63 89.631q-10.225 10.224-10.185 24.289.04 14.065 10.265 24.449 10.384 10.225 24.489 10.225t24.489-10.225L480-431.181l116.486 116.486q-7.796 10.384-26.195 54.681t-18.399 80.841q.667 17.427 3.46 33.815 2.794 16.387 7.982 32.054H189.058Z"/></svg>