<svg xmlns="http://www.w3.org/2000/svg" height="40" viewBox="0 -960 960 960" width="40"><path d="M842.283-22.681 695.747-169.217q-9.382 8.036-20.583 11.974-11.202 3.939-24.222 3.939H483.983V-381.22L287.327-577.876H73.304v-153.066q0-13.067 4.058-24.308t12.095-20.736L30.68-834.761 79.5-883.58 891.58-71.5 842.283-22.68ZM886.855-270l-160-160v99.617L250.623-806.855h400.319q31.241 0 53.577 22.336t22.336 53.577V-530l160-160v420ZM166.035-75.987q-14.992 0-29.087-6.103-14.095-6.102-24.448-16.368L.55-210.233l7.334-6.746q6.185-6.7 14.451-10.589 8.266-3.889 18.198-3.889 9.933 0 19.989 3.619 10.056 3.62 16.847 11.526l33.812 33.891v-270.528q0-10.94 7.438-17.933 7.437-6.994 17.566-6.994 10.815 0 17.713 6.994 6.899 6.993 6.899 17.933v135.898h31.42v-195.898q0-10.94 7.437-17.933 7.438-6.994 17.567-6.994 10.814 0 17.832 6.994 7.018 6.993 7.018 17.933v195.898h31.261v-155.898q0-10.94 7.467-17.933 7.467-6.994 17.371-6.994 10.901 0 17.839 6.994 6.938 6.993 6.938 17.933v155.898h31.421v-112.948q0-10.781 7.437-17.854 7.438-7.074 17.567-7.074 10.814 0 17.713 7.074 6.898 7.073 6.898 17.854v278.259q0 31.407-21.916 53.58-21.917 22.173-53.837 22.173H166.035Z"/></svg>