<svg xmlns="http://www.w3.org/2000/svg" height="40" viewBox="0 -960 960 960" width="40"><path d="M166.035-153.304q-14.992 0-29.087-6.103-14.095-6.103-24.448-16.368L.55-287.55l7.334-6.746q6.382-6.413 14.636-10.446 8.255-4.033 17.664-4.033 10.954 0 20.363 3.366 9.409 3.366 16.774 11.818l33.86 33.853v-270.528q0-10.94 7.438-17.934 7.437-6.994 17.566-6.994 10.815 0 17.713 6.994 6.899 6.994 6.899 17.934v135.898h31.42v-195.898q0-10.94 7.437-17.934 7.438-6.994 17.567-6.994 10.814 0 17.832 6.994 7.018 6.994 7.018 17.934v195.898h31.261v-155.898q0-10.94 7.467-17.934 7.467-6.994 17.371-6.994 10.901 0 17.839 6.994 6.938 6.994 6.938 17.934v155.898h31.421v-112.949q0-10.78 7.437-17.854 7.438-7.073 17.567-7.073 10.814 0 17.713 7.073 6.898 7.074 6.898 17.854v278.259q0 31.407-21.916 53.581-21.917 22.173-53.837 22.173H166.035Zm317.948-77.318V-579.44q0-31.326-22.214-53.54-22.213-22.214-53.539-22.214H73.304V-808.26q0-30.985 22.384-53.449t53.37-22.464h501.884q30.986 0 53.449 22.464 22.464 22.464 22.464 53.449v200.943l127.348-127.348q8.877-9.036 20.765-4.371 11.887 4.666 11.887 17.298v328.841q0 12.632-11.887 17.298-11.888 4.665-20.765-4.371L726.855-507.318v200.943q0 30.985-22.464 53.369-22.463 22.384-53.449 22.384H483.983Z"/></svg>