<svg xmlns="http://www.w3.org/2000/svg" height="40" viewBox="0 -960 960 960" width="40"><path d="M647.051-33.862v-75.754h43.333v-640.769H269.616V-490h-75.754v-360.384q0-30.994 22.38-53.374 22.38-22.38 53.374-22.38h420.768q30.994 0 53.374 22.38 22.38 22.38 22.38 53.374v740.768q0 30.994-22.38 53.374-22.38 22.38-53.374 22.38h-43.333Zm-271-182.153q29.63 29.667 47.87 67.279 18.239 37.613 23.891 79.613 2.319 14.558-7.597 24.91-9.916 10.35-24.812 10.35-14.371 0-24.869-9.684-10.497-9.685-13.483-24.576-5.079-28.015-17.873-52.87-12.793-24.855-32.982-45.203-20.348-20.189-45.283-32.982-24.935-12.794-52.79-17.873-14.891-2.986-24.576-13.464t-9.685-24.822q0-15.011 10.352-24.903 10.351-9.891 24.909-7.572 42 5.652 79.648 23.891 37.649 18.24 67.28 47.906Zm111.963-88.427q43.413 47.413 70.486 106.033 27.072 58.619 33.645 125.953 2 15.63-8.199 27.112-10.198 11.482-25.123 11.482-14.924 0-24.855-10.399-9.932-10.398-12.011-25.29-5.573-54.064-27.5-101.568-21.928-47.504-56.942-85.599-40.508-44.253-94.809-71.96-54.3-27.706-117.508-33.612-14.017-1.333-22.676-11.891-8.66-10.558-8.66-24.566 0-15.049 10.239-25.01 10.24-9.96 24.34-8.627 76.791 6.667 143.443 40.399 66.652 33.731 116.13 87.543ZM243.457-33.862q-21.147 0-35.371-14.224-14.224-14.224-14.224-35.291 0-21.067 14.224-35.37 14.224-14.304 35.291-14.304 21.067 0 35.37 14.292 14.304 14.291 14.304 35.302 0 21.147-14.292 35.37-14.291 14.225-35.302 14.225Z"/></svg>