<svg xmlns="http://www.w3.org/2000/svg" height="40" viewBox="0 -960 960 960" width="40"><path d="M772.74-484.276 406.188-117.964q-10.783 10.783-25.605 10.743-14.822-.04-25.366-10.982-10.703-10.782-10.583-25.605.119-14.822 10.663-25.366l366.472-365.993h-36.493q-15.609 0-25.946-10.457-10.337-10.456-10.337-26.065 0-15.608 10.457-25.945 10.456-10.337 26.065-10.337h121.913q16.166 0 27.101 10.855 10.935 10.855 10.935 27.022v122.152q0 15.608-10.417 26.025-10.416 10.417-26.025 10.417-15.449 0-25.866-10.417-10.416-10.417-10.416-26.025v-36.334Zm-449.537-7.717 41.942 87.942q4.891 9.703 2.779 19.518-2.113 9.815-8.91 17.279-12.608 12.609-29.641 9.417-17.032-3.192-24.656-19.359L140.493-740.689q-4.812-9.797-2.986-19.753 1.826-9.957 9.21-17.341l17.594-17.594q7.225-7.225 17.261-9.051 10.036-1.826 19.833 2.826l363.776 165.16q15.739 6.797 18.804 24.069 3.065 17.271-9.529 29.865-7.782 7.783-18.003 9.569-10.221 1.786-20.337-3.105l-86.544-41.145-126.369 125.196Zm-27.855-52.869 101.754-99.993-189.153-90.334-2.667 2.239 90.066 188.088Z"/></svg>