<svg xmlns="http://www.w3.org/2000/svg" height="40" viewBox="0 -960 960 960" width="40"><path d="m354.101-589.708-83.326-83.067q-17.813-17.84-27.243-40.593-9.431-22.752-9.431-47.555 0-52.468 36.16-88.802 36.16-36.333 87.739-36.333h244q51.437 0 86.795 36.693 35.357 36.693 35.357 88.334 0 25.306-10.097 48.877-10.098 23.57-27.83 41.379l-80.167 80.215v217.169l82.167 82.166q17.744 17.987 27.335 40.944 9.592 22.958 9.592 48.147 0 53.525-36.712 90.279-36.713 36.754-89.541 36.754-25.174 0-48.229-9.315-23.054-9.314-40.895-27.359-5.968-6.154-13.459-9.287-7.49-3.134-16.303-3.134-8.814 0-16.319 3.149-7.506 3.149-13.469 9.272-17.827 17.813-40.898 27.243-23.07 9.43-48.237 9.43-53.481 0-90.688-36.783-37.206-36.783-37.206-90.205 0-25.167 9.825-48.237 9.825-23.071 27.754-40.898l83.326-81.434v-217.049Z"/></svg>