<svg xmlns="http://www.w3.org/2000/svg" height="40" viewBox="0 -960 960 960" width="40"><path d="M479.924-68.47q-75.598 0-142.254-29.019-66.656-29.018-116.572-78.815-49.917-49.797-78.855-116.496-28.939-66.698-28.939-142.344 0-60.928 18.5-116.812 18.5-55.885 58.167-107.095L78.884-770.138q-10.225-10.225-10.185-24.623.04-14.399 10.265-24.623 10.224-10.225 24.702-10.225 14.479 0 24.703 10.225l698.298 698.058q10.224 10.225 10.224 24.31 0 14.084-10.224 24.43-10.225 10.224-24.743 10.224-14.518 0-24.742-10.225l-73.457-72.551q-47.952 37-103.994 56.834-56.042 19.833-119.807 19.833Zm-89.52-857.668h179.432q15.628 0 25.965 10.337t10.337 25.946q0 15.608-10.337 26.065-10.337 10.456-25.965 10.456H390.164q-15.628 0-25.965-10.456-10.337-10.457-10.337-26.065 0-15.609 10.457-25.946 10.456-10.337 26.085-10.337ZM480-801.942q66.449 0 125.286 21.667 58.837 21.666 106.223 61.239l29.549-29.573q10.783-10.782 25.605-10.782 14.822 0 25.605 10.862 10.783 10.862 10.783 25.685 0 14.822-10.783 25.605l-29.413 29.413q42.667 49.348 63.333 108.819 20.667 59.471 20.667 123.864 0 48.506-12.58 95.071-12.579 46.565-38.753 88.899l-279.24-278.841v-73.578q0-14.371-9.499-23.879-9.5-9.507-23.834-9.507-11.761 0-20.141 6.88-8.38 6.881-10.047 17.736v18.667L295.086-751.369q41.037-24.906 88.56-37.74 47.523-12.833 96.354-12.833Z"/></svg>