<svg xmlns="http://www.w3.org/2000/svg" height="40" viewBox="0 -960 960 960" width="40"><path d="M540.015-267.116q31.232 0 50.46-19.058t19.228-49.34v-54.06q0-23.049-10.543-38.549-10.544-15.5-29.268-15.5 18.724 0 29.268-16 10.543-16 10.543-39v-37.225q0-30.282-19.667-49.253-19.666-18.971-50.818-18.971h-144.29q-14.211 0-24.062 9.851t-9.851 24.141q0 14.29 9.971 24.261t24.181 9.971h144.051v59.667h-60.57q-13.648 0-23.141 9.453-9.492 9.453-9.492 23.105 0 13.652 9.452 23.105 9.453 9.453 23.105 9.453h60.646v75.551H395.167q-14.21 0-24.181 9.971t-9.971 24.181q0 14.543 9.851 24.395 9.851 9.851 24.395 9.851h144.754ZM390.164-853.334q-15.461 0-25.882-10.573-10.42-10.574-10.42-26.065 0-15.492 10.42-25.829 10.421-10.337 25.882-10.337h179.672q15.461 0 25.882 10.454 10.42 10.454 10.42 25.946 0 15.491-10.42 25.948-10.421 10.456-25.882 10.456H390.164Zm89.799 784.863q-75.632 0-142.317-29.01-66.686-29.01-116.575-78.815-49.89-49.805-78.828-116.478-28.939-66.673-28.939-142.29 0-75.617 28.939-142.313 28.938-66.695 78.834-116.62 49.895-49.925 116.589-78.935 66.693-29.01 142.334-29.01 65.812 0 124.862 21.667 59.051 21.666 106.624 61.239l29.572-29.573q10.783-10.782 25.605-10.782 14.822 0 25.605 10.862 10.783 10.862 10.783 25.685 0 14.822-10.783 25.605l-29.413 29.413q36.906 43.732 60.453 101.329 23.547 57.598 23.547 131.41 0 75.651-29.002 142.354-29.003 66.703-78.915 116.485-49.912 49.783-116.628 78.78Q555.594-68.47 479.963-68.47Zm.01-75.913q121.23 0 206.1-84.722 84.869-84.723 84.869-205.954 0-121.23-84.842-206.1-84.842-84.869-206.073-84.869-121.23 0-206.1 84.842-84.869 84.842-84.869 206.073 0 121.23 84.842 205.98 84.842 84.75 206.073 84.75ZM480-434.42Z"/></svg>