<svg xmlns="http://www.w3.org/2000/svg" height="40" viewBox="0 -960 960 960" width="40"><path d="M280-233.862q-102.557 0-174.348-71.805-71.79-71.806-71.79-174.385 0-102.578 71.79-174.332Q177.443-726.138 280-726.138h400q102.557 0 174.348 71.805 71.79 71.806 71.79 174.385 0 102.578-71.79 174.332Q782.557-233.862 680-233.862H280Zm400.627-138.805q44.706 0 76.039-31.294 31.334-31.294 31.334-76T756.706-556q-31.294-31.333-76-31.333t-76.039 31.294q-31.333 31.294-31.333 76T604.628-404q31.294 31.333 75.999 31.333Z"/></svg>