<svg xmlns="http://www.w3.org/2000/svg" height="40" viewBox="0 -960 960 960" width="40"><path d="M311.978-109.398q-16 0-26.938-10.972-10.939-10.972-10.939-27.181 0-16.05 10.939-26.905 10.938-10.855 26.938-10.855h336.044q16 0 27.018 10.972t11.018 27.021q0 16.21-11.018 27.065t-27.018 10.855H311.978Zm0-129.247q-16 0-26.938-10.938-10.939-10.939-10.939-26.939v-344.812q0-12.188 3.772-23.662 3.772-11.475 11.236-21.917l125.02-166.496q6.443-8.475 15.081-12.834t18.957-4.359h63.666q10.319 0 18.957 4.359t14.956 12.678l125.145 166.652q7.464 10.442 11.316 21.917 3.851 11.474 3.851 23.662v344.812q0 16-11.018 26.939-11.018 10.938-27.018 10.938H311.978Zm37.877-75.753h260.29v-90.167L480-534.711 349.855-404.565v90.167Zm0-194.384 93.305-93.305v-143.668l-93.305 124.421v112.552Zm260.29 0v-112.552L517-745.755v143.668l93.145 93.305Zm0 194.384h-260.29 260.29Z"/></svg>