<svg xmlns="http://www.w3.org/2000/svg" height="40" viewBox="0 -960 960 960" width="40"><path d="M279.167-155.456q-45.399 0-80.004-31.754-34.605-31.754-39.721-78.913-38.712-22.787-60.736-59.853-22.025-37.066-22.025-81.358 0-51.792 29.583-93.483 29.584-41.69 78.801-56.111L108.497-636 91.79-618.667q-9.703 10.333-23.703 10.333t-23.667-9.999q-9.666-10-9.666-23.667 0-13.667 9.666-24l80.667-82.667q9.666-9.666 23.666-9.666t23.667 10q9.667 10 9.667 23.666 0 13.667-9.667 23.333l-16.667 18.001 67.703 71.036 36.986-110.37q12.13-36.166 42.11-59.021 29.979-22.856 67.339-22.856h222.667q37.789 0 68.007 22.856 30.218 22.855 41.681 59.021l49.979 160.681q57.558 8.276 95.297 51.491 37.739 43.216 37.739 103.161 0 44.366-22.011 81.674-22.011 37.308-60.75 60.015-5.036 47.159-39.761 78.674-34.724 31.515-79.914 31.515-41.103 0-72.833-26.548-31.731-26.547-42.035-66.786H393.986q-10.305 40.239-42.149 66.786-31.844 26.548-72.67 26.548ZM285-565.21h161.558v-166.53h-75.57q-14.071 0-24.895 8.834-10.824 8.833-15.832 22.5L285-565.21Zm228.224 0h161.718l-42.526-134.966q-5.068-13.897-15.876-22.73-10.808-8.834-24.859-8.834h-78.457v166.53ZM393.986-321.594h173.971q12.065-36.239 44.282-58.12 32.218-21.88 70.418-21.88 31.492 0 58.417 15.761 26.926 15.761 44.738 41.681 13.696-11.855 20.091-28.755 6.394-16.9 6.394-34.427 0-35.544-24.698-60.308-24.698-24.764-60.374-24.764H234.558q-35.544 0-60.309 24.764-24.764 24.764-24.764 60.308 0 17.608 6.848 34.587 6.848 16.979 20.036 28.914 16.986-27.094 44.195-42.428 27.208-15.333 58.603-15.333 38.355 0 70.475 21.88 32.119 21.881 44.344 58.12Zm-114.819 96.522q22.507 0 37.92-15.333 15.413-15.334 15.413-38.001 0-22.667-15.413-38-15.413-15.334-37.92-15.334-22.667 0-38.001 15.334-15.333 15.333-15.333 38t15.333 38.001q15.334 15.333 38.001 15.333Zm403.608 0q22.508 0 37.921-15.333 15.413-15.334 15.413-38.001 0-22.667-15.413-38-15.413-15.334-37.921-15.334-22.666 0-38 15.334-15.333 15.333-15.333 38t15.333 38.001q15.334 15.333 38 15.333Zm-201.55-182.262Z"/></svg>