<svg xmlns="http://www.w3.org/2000/svg" height="40" viewBox="0 -960 960 960" width="40"><path d="M600-275.456q-73.558 0-129.975-46.167-56.416-46.167-70.866-120.5H193.333q-16 0-26.938-10.972-10.939-10.972-10.939-27.022 0-16.05 10.939-26.905 10.938-10.855 26.938-10.855h205.699q4.569-26.29 16.367-50.351 11.797-24.062 29.297-40.562H273.333q-16 0-26.938-10.972-10.939-10.972-10.939-27.022 0-16.049 10.939-26.905 10.938-10.855 26.938-10.855H600q84.913 0 144.728 59.816Q804.544-564.913 804.544-480q0 84.833-59.816 144.688Q684.913-275.456 600-275.456Zm-286.667 0q-16 0-26.938-10.972-10.939-10.972-10.939-27.022 0-16.05 10.939-26.905 10.938-10.855 26.938-10.855h46.957q16 0 26.938 10.972 10.939 10.972 10.939 27.022 0 16.049-10.939 26.905-10.938 10.855-26.938 10.855h-46.957Z"/></svg>