<svg xmlns="http://www.w3.org/2000/svg" height="40" viewBox="0 -960 960 960" width="40"><path d="m77.957-444.775 39.376-62.891L434-210q12.427 11.667 28.594 17.5 16.167 5.834 32.406 5.834 13.333 0 24.333-2.834 11-2.833 22-9.833L880-412.666v85.043L579.297-138.884q-18.333 11.333-40.109 17.659-21.775 6.327-44.949 6.327-28.666 0-57.768-10.66-29.101-10.659-51.565-32.029L77.956-444.775Zm435.231 181.057q15.37 0 25.667-10.55 10.297-10.551 10.297-25.413 0-3.225-7.145-21.022l149.696-93.036q4.065 9.145 12.496 14.463 8.431 5.319 18.989 5.319 15.37 0 25.667-10.55 10.297-10.551 10.297-25.254 0-14.13-9.025-24.101-9.026-9.971-22.917-11.29h-2.92q-1.587 0-3.08.667 3.667-4.08 5.127-8.493t1.46-9.413q0-15.37-10.297-25.667-10.297-10.297-25.667-10.297-14.702 0-25.333 10.297-10.63 10.297-10.63 25.667 0 5.094 10.761 23.891l-152.334 94.515q-3.398-10.652-12.551-17.272-9.152-6.62-20.71-6.62-14.703 0-25.333 10.297-10.63 10.297-10.63 25.507 0 13.703 9.558 24.127t23.181 11.504h2.92q1.587 0 3.08-.667-3.667 3.333-5.127 7.667-1.46 4.333-1.46 9.761 0 14.862 10.63 25.413 10.631 10.55 25.333 10.55ZM264.573-743.334l38.376-61.13q74.442 38.174 138.884 101.917t94.761 133.612q37.094-41.949 79.689-62.797Q658.877-652.58 738-674.007q45.333-12.334 78.5-24.667 33.167-12.333 63.5-26.667v78.674q-27 11-57.167 21.333Q792.667-615 755-605q-85.333 22.666-126.833 48-41.5 25.333-78.167 85-4.333 6.666-11.667 10.666-7.333 4-16.333 4-11.333 0-20.666-7.666-9.334-7.667-11.667-18.667Q470.334-561 407.5-632q-62.833-71-142.927-111.334Zm-147.24 235.668q72 67 158.333 148.833Q362-277 434-210q12.427 11.667 28.594 17.5 16.167 5.834 32.406 5.834 13.333 0 24.333-2.834 11-2.833 22-9.833 73.551-46.435 167.783-105.765Q803.348-364.427 880-412.666L541.333-199.333q-11 7-22 9.833-11 2.834-24.333 2.834-16.239 0-32.406-5.834Q446.427-198.333 434-210L117.333-507.666Z"/></svg>