<svg xmlns="http://www.w3.org/2000/svg" height="40" viewBox="0 -960 960 960" width="40"><path d="M480-522.275 196.376-701.327q-15.449-9.797-31.384-.792-15.934 9.005-15.934 27.334 0 8.089 3.945 14.44 3.946 6.352 10.424 11.004l296.276 189.703q9.449 6.21 20.13 6.21t20.464-6.21l296.276-189.703q6.478-4.652 10.424-11.004 3.945-6.351 3.945-14.44 0-18.329-15.934-27.334-15.935-9.005-31.384.792L480-522.275ZM768.667-40q-79.403 0-135.368-55.5-55.965-55.5-55.965-135.176 0-79.676 55.965-135.833t135.368-56.157q79.403 0 135.368 56.157Q960-310.352 960-230.676T904.035-95.5Q848.07-40 768.667-40Zm-93.739-171.739h187.478q8.717 0 15.156-6.398Q884-224.536 884-233.333q0-8.718-6.438-15.156-6.439-6.438-15.156-6.438H674.928q-8.717 0-15.156 6.398-6.438 6.399-6.438 15.196 0 8.717 6.438 15.156 6.439 6.438 15.156 6.438Zm-525.87 58.435q-31.486 0-53.62-22.134-22.134-22.134-22.134-53.62v-501.884q0-31.486 22.134-53.699 22.134-22.214 53.62-22.214h661.884q31.486 0 53.699 22.214 22.214 22.213 22.214 53.699v271.595q-27.275-15.246-57.108-22.616-29.834-7.369-61.313-7.369-107.542 0-182.375 76.036t-75.391 184.238q-.319 19.058 2.978 38.037 3.297 18.978 9.652 37.717h-374.24Z"/></svg>