<svg xmlns="http://www.w3.org/2000/svg" height="40" viewBox="0 -960 960 960" width="40"><path d="M480-73.862q-33.449 0-55.533-22.203-22.083-22.203-22.083-55.652 0-21.986 10.881-40.225 10.88-18.239 30.453-29.797v-100.123H308q-29.631 0-51.218-21.587-21.586-21.587-21.586-51.218v-101.5q-19.493-9.797-30.413-27.862-10.921-18.065-10.921-41.304 0-22.37 10.225-39.874t27.355-26.982L74.84-788.95q-9.558-9.558-9.518-23.83.04-14.271 10.518-24.749 10.32-10.319 24.79-10.319 14.471 0 24.79 10.319L838.529-124.42q9.558 9.558 9.899 23.909.34 14.352-9.978 24.67-10.479 10.479-24.949 10.479-14.471 0-24.79-10.478L541.928-321.862h-25.646v99.645q19.827 11.464 30.58 30.529 10.754 19.065 10.754 39.971 0 33.449-22.083 55.652Q513.449-73.862 480-73.862Zm229.188-279.616-63.325-63.086v-80.241h-21.479q-5.55 0-9.634-4.043-4.083-4.044-4.083-9.435v-113.608q0-7.783 5.638-13.421 5.637-5.637 13.42-5.637H747q7.623 0 13.38 5.637 5.758 5.638 5.758 13.421v117.115q0 7.783-5.758 13.421-5.757 5.637-13.38 5.637h-22.196v93.051q0 11.761-4.213 22.475-4.214 10.714-11.403 18.714ZM308-394.667h135.718v-25.486L338.333-525.298q-4.666 9.16-12.333 16.74-7.667 7.58-18 12.152v101.739Zm208.282-151.318-72.564-72.804V-728H400q-10.985-2.152-16.17-10.873-5.185-8.721-1.707-17.946l82.631-111.761q5.971-7.543 15.246-7.543t15.406 7.543l81.116 109.928q7.463 9.782 2.239 20.217Q573.536-728 561.275-728h-44.993v182.015Z"/></svg>