<svg xmlns="http://www.w3.org/2000/svg" height="40" viewBox="0 -960 960 960" width="40"><path d="M245.073-283.718h-48.791q-29.949 0-51.257-21.307-21.307-21.308-21.307-51.257v-307.436h-6.667q-14.884-.558-24.906-10.972-10.022-10.414-10.022-25.427 0-15.492 10.42-25.829 10.421-10.336 25.863-10.336h126.667v-75.458H220q-15.442 0-25.862-10.573-10.42-10.573-10.42-26.065t10.42-25.829q10.42-10.337 25.862-10.337h120q15.442 0 25.862 10.454 10.42 10.454 10.42 25.946t-10.42 25.948Q355.442-811.74 340-811.74h-25.073v75.458h126.667q15.442 0 25.862 10.453 10.421 10.454 10.421 25.946 0 15.013-10.022 25.31-10.022 10.297-24.906 10.855h-6.667v307.436q0 29.949-21.307 51.257-21.308 21.307-51.257 21.307h-48.791v191.74q0 14.724-10.055 24.826-10.055 10.101-24.989 10.101-14.934 0-24.872-10.021-9.938-10.022-9.938-24.906v-191.74Zm-48.791-72.564h167.436v-68.791H290q-10.051 0-17.489-7.438-7.438-7.438-7.438-17.489 0-10.051 7.438-17.489 7.438-7.438 17.489-7.438h73.718v-70.146H290q-10.051 0-17.489-7.438-7.438-7.438-7.438-17.489 0-10.051 7.438-17.489 7.438-7.438 17.489-7.438h73.718v-68.791H196.282v307.436ZM601.594-75.457q-29.949 0-51.376-21.427-21.428-21.427-21.428-51.376v-262.406q0-31.24 8.627-49.131 8.627-17.891 21.359-31.572 19.043-19.276 26.003-29.363 6.961-10.087 6.961-20.862v-26.667h-6.667q-14.884-.558-24.787-10.972-9.902-10.414-9.902-25.428 0-15.491 10.671-25.908 10.67-10.416 25.612-10.416h200q15.442 0 25.862 10.533 10.42 10.534 10.42 26.025 0 15.014-9.902 25.311t-24.786 10.855h-6.667v26.667q0 10.109 8.333 22.029 8.334 11.92 27.631 31.196 12.891 13.681 19.939 30.532 7.047 16.852 7.047 47.171v262.406q0 29.949-21.428 51.376-21.427 21.427-51.376 21.427H601.594Zm0-312.803H771.74v-22.406q0-16.522-9.548-29.642-9.547-13.119-20.895-26.656-13.985-17.239-21.771-32.601-7.786-15.363-7.786-38.841v-29.855h-50.146v29.855q0 22.319-7.286 37.761-7.286 15.442-21.272 32.681-11.108 13.776-21.275 27.156-10.167 13.381-10.167 30.142v22.406Zm0 240H771.74v-70.146H601.594v70.146Z"/></svg>