<svg xmlns="http://www.w3.org/2000/svg" height="40" viewBox="0 -960 960 960" width="40"><path d="M145.072-230.913q-30.993 0-53.373-22.38t-22.38-53.373v-346.668q0-31.059 22.38-53.486 22.38-22.427 53.373-22.427h669.856q31.059 0 53.486 22.427 22.427 22.427 22.427 53.486v346.668q0 30.993-22.427 53.373t-53.486 22.38H145.072Zm140.001-215.754V-384q0 14.167 9.617 23.75 9.616 9.584 23.833 9.584 14.216 0 23.716-9.584 9.5-9.583 9.5-23.75v-62.667h62.667q14.167 0 23.75-9.617t9.583-23.833q0-14.216-9.583-23.716-9.583-9.5-23.75-9.5h-62.667V-576q0-14.167-9.617-23.75-9.617-9.584-23.833-9.584-14.216 0-23.716 9.584-9.5 9.583-9.5 23.75v62.667h-62.668q-14.166 0-23.75 9.617-9.583 9.617-9.583 23.833 0 14.216 9.583 23.716 9.584 9.5 23.75 9.5h62.668Zm305.188 84q20.333 0 35.167-14.833 14.833-14.833 14.833-35.166 0-20.334-14.833-35.167-14.834-14.833-35.167-14.833-20.333 0-35.166 14.833-14.834 14.833-14.834 35.167 0 20.333 14.834 35.166 14.833 14.833 35.166 14.833Zm100-135.334q20.333 0 35.166-14.833Q740.26-527.667 740.26-548t-14.833-35.167Q710.594-598 690.261-598q-20.334 0-35.167 14.833-14.833 14.834-14.833 35.167 0 20.333 14.833 35.166 14.833 14.833 35.167 14.833Z"/></svg>