<svg xmlns="http://www.w3.org/2000/svg" height="40" viewBox="0 -960 960 960" width="40"><path d="M113.304-269.058v-421.884q0-31.314 22.253-53.614 22.252-22.299 53.501-22.299h581.884q31.314 0 53.614 22.299 22.299 22.3 22.299 53.614v421.884q0 31.249-22.299 53.501-22.3 22.253-53.614 22.253H189.058q-31.249 0-53.501-22.253-22.253-22.252-22.253-53.501Zm286.993-246.906h370.645v-174.978H400.297v174.978Zm224 246.906h146.645v-174.978H624.297v174.978Zm-224 0h147.406v-174.978H400.297v174.978Zm-211.239 0h139.311v-421.884H189.058v421.884Z"/></svg>