<svg xmlns="http://www.w3.org/2000/svg" height="40" viewBox="0 -960 960 960" width="40"><path d="M187.145-193.304q-30.573 0-52.207-21.634t-21.634-52.207v-101.138q0-30.413 21.634-52.127 21.634-21.713 52.207-21.713h585.87q30.413 0 52.127 21.713 21.713 21.714 21.713 52.127v101.138q0 30.573-21.713 52.207-21.714 21.634-52.127 21.634h-585.87Zm0-324.573q-30.573 0-52.207-21.713-21.634-21.714-21.634-52.127v-101.298q0-30.413 21.634-52.127 21.634-21.713 52.207-21.713h585.87q30.413 0 52.127 21.713 21.713 21.714 21.713 52.127v101.298q0 30.413-21.713 52.127-21.714 21.713-52.127 21.713h-585.87Z"/></svg>