<svg xmlns="http://www.w3.org/2000/svg" height="40" viewBox="0 -960 960 960" width="40"><path d="M320-193.384q-119.71 0-203.163-83.453Q33.384-360.29 33.384-480q0-119.71 83.453-203.163Q200.29-766.616 320-766.616h320q119.71 0 203.163 83.453Q926.616-599.71 926.616-480q0 119.71-83.453 203.163Q759.71-193.384 640-193.384H320Zm11.326-259.297v60.051q0 11.42 7.949 19.369 7.95 7.949 19.37 7.949 11.261 0 19.29-7.949t8.029-19.369v-60.051h60.05q11.421 0 19.37-7.95 7.949-7.949 7.949-19.369t-7.949-19.369q-7.949-7.95-19.37-7.95h-60.05v-60.051q0-11.42-8.029-19.369t-19.29-7.949q-11.42 0-19.37 7.949-7.949 7.949-7.949 19.369v60.051h-60.051q-11.42 0-19.369 7.95-7.949 7.949-7.949 19.369t7.949 19.369q7.949 7.95 19.369 7.95h60.051Zm291.355-87.37v147.421q0 11.42 7.949 19.369 7.95 7.949 19.37 7.949 11.42 0 19.37-7.949 7.949-7.949 7.949-19.369v-164.182q0-16.166-10.855-27.021t-27.022-10.855H590q-11.42 0-19.37 7.949-7.949 7.949-7.949 19.369 0 11.261 7.949 19.29 7.95 8.029 19.37 8.029h32.681Z"/></svg>