<svg xmlns="http://www.w3.org/2000/svg" height="40" viewBox="0 -960 960 960" width="40"><path d="M248.152-355.195q46.094-22.109 95.83-33.83 49.735-11.721 100.112-11.721 30.478 0 60.417 4.119 29.938 4.12 58.083 12.12 49.79 13.761 76.225 18.761 26.435 5 56.065 5.239h17.631l49.391-450.435H198.094l50.058 455.747Zm22.703 281.89q-29.094 0-50.931-19.057-21.837-19.058-24.489-47.993L123.42-793.124q-4.145-37.876 21.217-65.804 25.363-27.927 63.239-27.927h544.248q37.876 0 63.239 27.927Q840.725-831 836.58-793.124l-71.776 652.769q-2.811 28.935-24.568 47.993-21.758 19.058-50.852 19.058H270.855Z"/></svg>