<svg xmlns="http://www.w3.org/2000/svg" height="40" viewBox="0 -960 960 960" width="40"><path d="M197.051-194.927v-282.124H121.42q-13.261 0-17.946-12.141-4.684-12.141 5.352-20.844l345.891-311.24q10.48-9.876 25.345-9.876 14.865 0 25.221 9.876l346.051 311.24q9.876 8.703 5.192 20.844-4.685 12.141-17.787 12.141h-75.79v282.124q0 16-10.938 26.938-10.938 10.938-26.938 10.938H234.927q-16 0-26.938-10.938-10.938-10.938-10.938-26.938Zm75.753-37.877h414.392v-323.232L480-741.79 272.804-555.906v323.102Zm207.255-93.066q31.55 0 53.887-22.378 22.336-22.379 22.336-53.904 0-26.652-12.224-51.308-12.225-24.656-64.058-99.286-51.833 74.63-64.058 99.286-12.224 24.656-12.224 51.308 0 31.525 22.395 53.904 22.396 22.378 53.946 22.378ZM480-488.667Z"/></svg>