<svg xmlns="http://www.w3.org/2000/svg" height="40" viewBox="0 -960 960 960" width="40"><path d="M480-73.304q-139.843 0-233.269-95.932Q153.304-265.167 153.304-408q0-60.623 26.714-121.576 26.714-60.953 68.638-118.779 41.924-57.826 93.079-110.631 51.156-52.804 100.388-96.797 8.45-7.464 18.053-10.695 9.604-3.232 19.852-3.232 10.247 0 19.823 3.232 9.576 3.231 18.026 10.695 49.232 43.993 100.388 96.797 51.155 52.805 93.079 110.631 41.924 57.826 68.718 118.779Q806.855-468.623 806.855-408q0 142.833-93.506 238.764Q619.843-73.304 480-73.304Zm.033-75.754q108.264 0 179.587-73.843Q730.942-296.745 730.942-408q0-75.645-63.782-172.156Q603.377-676.667 480-787.827q-123.377 111.16-187.16 207.671Q229.058-483.645 229.058-408q0 111.255 71.356 185.099 71.356 73.843 179.619 73.843ZM480-481.036Zm3.558 274.666q15.543-.333 24.761-7.454 9.217-7.121 9.217-19.125 0-12.718-9.344-20.228-9.344-7.511-26.301-7.178-42.942 1-84.645-24.928-41.703-25.927-53.463-89.739-2-9.985-9.899-16.623-7.898-6.638-18.014-6.638-13.151 0-20.652 9.725-7.5 9.725-5.087 21.188 15.666 86.573 74 124.453 58.333 37.881 119.427 36.547Z"/></svg>