<svg xmlns="http://www.w3.org/2000/svg" height="40" viewBox="0 -960 960 960" width="40"><path d="M796.478-113.304q-120.434 0-242.63-56.018-122.196-56.019-225.152-158.895Q225.58-431.333 169.482-553.649q-56.098-122.315-56.098-242.59 0-21.377 14.5-35.997 14.5-14.619 35.877-14.619h147.253q18.544 0 31.348 11.547 12.804 11.547 17.094 30.105l26.587 126.442q2.638 17.775-.786 31.34-3.424 13.566-13.656 23.24l-100.116 98.406q23.044 39.514 50.428 74.753 27.384 35.239 60.92 67.616 33.964 34.79 70.638 63.189 36.674 28.399 76.631 50.138l96.021-97.464q11.66-12.247 27.232-16.892 15.573-4.644 31.856-1.688l119.992 25.949q18.891 5.276 30.272 18.888 11.38 13.612 11.38 32.011v145.514q0 21.377-14.619 35.917-14.62 14.54-35.758 14.54ZM650.116-577.747 491.08-737.261q-15.145-15.145-9.732-31.743 5.414-16.598 20.971-25.663 41.116-24.985 85.011-37.152 43.895-12.167 89.547-12.167 46.892 0 91.225 12.334 44.333 12.333 84.797 37.319 15.319 9.159 20.152 25.67 4.833 16.51-9.485 30.829L703.638-577.747q-11.514 11.355-26.841 11.355-15.326 0-26.681-11.355Z"/></svg>