<svg xmlns="http://www.w3.org/2000/svg" height="40" viewBox="0 -960 960 960" width="40"><path d="M730.942-225.413h-82.123q-16 0-26.938-10.972-10.939-10.972-10.939-27.101 0-16.13 10.939-26.985 10.938-10.855 26.938-10.855h82.123v-82.123q0-16 10.972-26.938 10.972-10.939 27.008-10.939t26.984 10.939q10.949 10.938 10.949 26.938v82.123h81.964q15.98 0 27.008 10.972 11.028 10.972 11.028 27.102 0 16.129-11.028 26.984t-27.008 10.855h-81.964v81.964q0 16.159-11.066 27.098-11.065 10.938-27.101 10.938t-26.891-10.938q-10.855-10.939-10.855-27.098v-81.964Zm-295.55 74.674L53.739-544.029Q43.26-554.721 38.14-568.165q-5.12-13.444-5.12-26.889 0-15.452 6.4-29.778 6.398-14.325 19.195-25.501 88.797-73.616 197.311-113.355 108.515-39.74 224.073-39.74t224.073 39.74q108.514 39.739 197.311 113.355 12.797 11.116 19.196 25.365 6.398 14.249 6.398 29.738 0 13.476-5.119 26.972-5.12 13.496-15.438 24.229l-63.422 63.979q-17.239-6.261-35.271-9.303-18.033-3.042-37.395-3.421-4.761 0-9.735.398-4.975.399-9.577 1.196L850.95-593.5q-81.942-63.42-174.854-98.718-92.911-35.297-196.076-35.297-103.165 0-196.096 35.297Q190.992-656.92 109.05-593.5L480-213.702l59.812-60.131q-.239 2.927-.279 5.949-.039 3.022-.039 5.949.358 21.599 4.364 41.542 4.005 19.943 11.788 38.538l-30.001 30q-9.137 10.24-20.819 15.026-11.681 4.786-24.029 4.866-12.302.239-24.093-4.308t-21.312-14.468ZM480-470.609Z"/></svg>