<svg xmlns="http://www.w3.org/2000/svg" height="40" viewBox="0 -960 960 960" width="40"><path d="M221.717-167.717q-10.877 10.877-26.858 10.598-15.982-.279-25.779-12.316-47.718-54.862-74.497-123.376Q67.804-361.326 67.804-440q0-85.396 32.417-160.665 32.417-75.27 88.13-130.984 55.714-55.713 131.001-88.13 75.287-32.417 160.703-32.417t160.648 32.417q75.232 32.417 130.946 88.13 55.713 55.714 88.13 130.984Q892.196-525.396 892.196-440q0 78.674-26.779 147.189-26.779 68.514-74.497 123.376-9.797 12.037-25.731 12.696-15.935.659-26.864-10.269-10.491-10.492-9.904-25.981.587-15.489 10.971-27.764 37.84-44.558 58.96-100.33Q819.471-376.855 819.471-440q0-141.725-98.873-240.598Q621.725-779.471 480-779.471q-141.725 0-240.598 98.873Q140.528-581.725 140.528-440q0 63.145 21.04 118.87t59.294 100.283q10.384 12.275 11.018 27.304.634 15.029-10.163 25.826Zm115.364-115.364q-11.088 11.088-26.458 11.096-15.369.007-24.833-12.123-25.558-32.464-40.218-71.602-14.659-39.137-14.659-84.29 0-103.946 72.562-176.596 72.563-72.651 176.497-72.651 103.934 0 176.604 72.651 72.671 72.65 72.671 176.596 0 45.055-14.74 84.288-14.739 39.234-40.297 71.604-9.464 12.036-24.5 12.456-15.036.42-25.965-10.508-10.651-10.651-10.777-26.021-.127-15.369 8.779-27.819 16.048-22 25.292-48.166 9.244-26.167 9.244-55.834 0-73.32-51.472-124.802-51.472-51.481-124.779-51.481-73.308 0-124.811 51.481Q303.717-513.32 303.717-440q0 29.92 9.244 55.923T338.253-336q8.906 12.45 9.113 27.439.206 14.989-10.285 25.48Zm142.883-70.781q-35.594 0-60.848-25.29-25.254-25.289-25.254-60.884 0-35.594 25.29-60.848 25.289-25.254 60.884-25.254 35.594 0 60.848 25.29 25.254 25.289 25.254 60.884 0 35.594-25.29 60.848-25.289 25.254-60.884 25.254Z"/></svg>