<svg xmlns="http://www.w3.org/2000/svg" height="40" viewBox="0 -960 960 960" width="40"><path d="M796.478-113.304q-120.434 0-242.63-56.018-122.196-56.019-225.152-158.895Q225.58-431.333 169.482-553.649q-56.098-122.315-56.098-242.59 0-21.567 14.405-36.092 14.405-14.524 35.972-14.524h147.253q18.544 0 31.348 11.547 12.804 11.547 17.094 30.105L385.996-679q2.685 18.014-.739 31.579-3.424 13.566-13.808 23.391l-99.964 98.255q23.044 39.514 50.428 74.753 27.384 35.239 60.92 67.616 33.964 34.79 70.638 63.189 36.674 28.399 76.631 50.138l96.021-97.464q11.66-12.247 27.333-16.892 15.673-4.644 31.755-1.688l119.992 25.949q18.891 5.276 30.272 18.917 11.38 13.642 11.38 31.982v145.514q0 21.567-14.524 36.012-14.525 14.445-35.853 14.445ZM671.399-537.827q-17.718 0-29.656-11.938-11.938-11.938-11.938-29.656 0-17.558 11.938-29.536 11.938-11.978 29.656-11.978 17.558 0 29.456 12.029 11.899 12.029 11.899 29.485 0 17.718-11.899 29.656-11.898 11.938-29.456 11.938Zm0-136.666q-20.094 0-38.062 5.672-17.967 5.673-33.902 16.581-10.663 6.573-22.835 5.993-12.172-.58-20.571-9.138-8.811-8.932-8.351-20.823.46-11.89 10.462-19.328 24.795-18.254 53.454-28.414 28.66-10.159 59.805-10.159 30.985 0 59.525 10.159 28.54 10.16 53.494 28.369 9.923 7.523 10.462 19.755.54 12.233-8.112 21.347-8.558 8.558-20.576 8.685-12.018.127-22.83-6.446-16.094-10.84-34.061-16.547-17.968-5.706-37.902-5.706Zm0-113.333q-42.073 0-79.986 13.687-37.913 13.687-70.644 38.9-10.145 8.318-22.823 8.279-12.677-.04-21.489-8.852-8.812-8.811-8.239-21.061.572-12.25 10.623-20.569 40.793-33.108 89.778-51.554 48.984-18.446 102.795-18.446 53.651 0 102.625 18.446t89.678 51.554q10.051 8.319 10.544 20.534.492 12.216-8.16 21.062-8.811 8.846-21.203 8.639-12.391-.206-22.277-8.061-32.686-25.81-70.884-39.184-38.198-13.374-80.338-13.374Z"/></svg>