<svg xmlns="http://www.w3.org/2000/svg" height="40" viewBox="0 -960 960 960" width="40"><path d="M680.724-243.971q-18.891 16.24-22.63-1.666-3.739-17.906.167-28.225 5-18.558 7.159-37.696 2.16-19.138 2.16-39.696 0-82.391-36.156-150.884-36.156-68.492-97.83-113.848l-62.058 62.059q-9.036 9.036-20.844 4.478-11.808-4.558-11.808-17.406v-246.189q0-16.166 10.855-27.021t27.022-10.855H722.95q12.847 0 17.405 11.807 4.558 11.808-4.478 20.845l-62.058 62.058q53.594 48.514 85.511 115.507 31.917 66.993 31.917 145.225 0 46.514-11.779 89.21-11.779 42.696-32.497 80.572-13.239 23.718-29.417 44.229-16.177 20.511-36.83 37.496ZM224.123-141.732l62.058-62.058q-54.594-48.514-85.931-115.507-31.337-66.993-31.337-145.384 0-46.355 11.699-89.091 11.699-42.735 32.417-80.772 13.239-23.558 29.464-44.029 16.224-20.471 37.036-37.616 18.732-15.572 22.804 1.7 4.073 17.272.326 27.431-5 18.717-7.619 38.235-2.62 19.519-2.62 40.077 0 82.391 36.576 150.884 36.576 68.492 97.41 113.848l62.217-62.218q8.877-8.877 20.765-4.319 11.887 4.558 11.887 17.247v246.348q0 16.166-10.934 27.021-10.935 10.855-27.102 10.855H237.05q-12.847 0-17.405-11.807-4.558-11.808 4.478-20.845Z"/></svg>