<svg xmlns="http://www.w3.org/2000/svg" height="40" viewBox="0 -960 960 960" width="40"><path d="M479.804-886.855q13.957 0 27.671 1.5 13.714 1.5 27.968 4.087v76.753q-14.035-3.333-27.496-4.88-13.462-1.547-28.162-1.547-105.242 0-177.985 72.389-72.742 72.389-72.742 185.995 0 75.739 62.482 169.156T480-173.34q125.906-114.732 187.348-207.232 61.442-92.5 63.276-166.884 0-5.602-.461-11.204-.46-5.601-1.126-11.203h75.934q.667 5.628 1.036 11.257.37 5.628.37 11.15-1.594 96.869-71.91 204.232-70.315 107.362-207.264 229.246-9.718 8.986-22.142 13.225-12.423 4.239-25.061 4.239t-25.061-4.239q-12.424-4.239-21.982-13.225-51.101-45.891-101.232-98.21-50.13-52.318-89.735-108.55-39.606-56.232-64.146-114.903-24.54-58.67-24.54-116.917 0-152.838 98.472-243.567 98.472-90.73 228.028-90.73ZM480-560Zm283.225-167.109 58.036 58.036q10.907 10.942 25.946 10.942 15.039 0 25.902-10.942 10.862-10.942 10.862-25.981 0-15.039-10.783-25.946l-58.195-58.036 58.195-58.037q10.783-10.906 10.783-25.946 0-15.039-10.783-25.981-10.906-10.783-25.946-10.783-15.039 0-25.981 10.783l-58.036 58.196L705.188-889q-10.906-10.783-25.946-10.783-15.039 0-25.981 10.863-10.942 10.862-10.942 25.901 0 15.04 10.942 25.946l58.036 58.037L653.261-721q-10.942 10.907-10.942 25.946 0 15.039 10.914 25.981 10.913 10.942 25.963 10.942t25.992-10.942l58.037-58.036ZM480.027-484.754q31.343 0 53.361-21.965 22.018-21.965 22.018-53.308t-21.999-53.361q-21.998-22.018-53.387-22.018-31.39 0-53.328 21.999-21.938 21.998-21.938 53.387 0 31.39 21.965 53.328 21.965 21.938 53.308 21.938Z"/></svg>