<svg xmlns="http://www.w3.org/2000/svg" height="24" viewBox="0 -960 960 960" width="24"><path d="M479.875-859.999q78.894 0 147.932 29.962 69.038 29.961 120.654 81.576 51.615 51.616 81.576 120.607 29.962 68.992 29.962 147.976 0 78.032-29.962 147.377-29.961 69.346-81.576 120.962-51.616 51.615-120.607 81.576-68.992 29.962-147.976 29.962-78.032 0-147.323-29.9-69.291-29.9-121.023-81.631-51.731-51.732-81.631-121.023t-29.9-147.323q0-78.984 29.962-147.976 29.961-68.991 81.576-120.607 51.616-51.615 121.004-81.576 69.389-29.962 147.332-29.962Zm-73.721 195.385q0 30.692 21.577 52.269 21.577 21.576 52.269 21.576 30.692 0 52.269-21.576 21.577-21.577 21.577-52.269 0-30.692-21.577-52.269Q510.692-738.46 480-738.46q-30.692 0-52.269 21.577-21.577 21.577-21.577 52.269Zm73.79 110.768q-60.944 0-113.52 19.962-52.577 19.961-52.577 72.48v147.422q0 52.519 52.66 71.865 52.659 19.346 113.634 19.346 15.705 0 26.243-10.615 10.539-10.615 10.539-26.308 0-15.692-10.615-26.307-10.616-10.615-26.308-10.615-18.846 1.615-36.436-2.193-17.589-3.807-35.179-11.423-9.846-4.231-12.654-13.769-2.807-9.538 3.423-17.154 15.798-15.91 37.171-21.993 21.373-6.083 43.675-6.083 33.923 0 63.115 11.269t29.192 40.576v34.385q0 11.077 7.824 19.384 7.823 8.308 18.868 8.308 21.462 0 34.308-18.038 12.846-18.039 12.846-40.5v-147.521q0-52.555-52.633-72.516-52.633-19.962-113.576-19.962Zm.002 166.153q-19.407 0-32.753-13.4-13.347-13.4-13.347-32.808 0-19.407 13.401-32.753Q460.647-480 480.054-480q19.407 0 32.753 13.4 13.347 13.4 13.347 32.808 0 19.407-13.401 32.753-13.4 13.346-32.807 13.346Z"/></svg>