<svg xmlns="http://www.w3.org/2000/svg" height="24" viewBox="0 -960 960 960" width="24"><path d="M709.999-470.769V-760q0-12.75 8.629-21.375 8.629-8.624 21.384-8.624t21.371 8.624q8.615 8.625 8.615 21.375v289.231q0 12.75-8.629 21.375t-21.384 8.625q-12.755 0-21.371-8.625-8.615-8.625-8.615-21.375ZM190.002-195.384V-760q0-12.75 8.629-21.375 8.629-8.624 21.384-8.624t21.371 8.624q8.615 8.625 8.615 21.375v564.616q0 12.749-8.629 21.374-8.629 8.625-21.384 8.625t-21.371-8.625q-8.615-8.625-8.615-21.374Zm259.999-480V-760q0-12.75 8.628-21.375 8.629-8.624 21.384-8.624 12.756 0 21.371 8.624 8.615 8.625 8.615 21.375v84.616q0 12.749-8.628 21.374-8.629 8.625-21.384 8.625-12.756 0-21.371-8.625-8.615-8.625-8.615-21.374Zm0 240V-520q0-12.75 8.628-21.375 8.629-8.624 21.384-8.624 12.756 0 21.371 8.624 8.615 8.625 8.615 21.375v84.616q0 12.749-8.628 21.374-8.629 8.625-21.384 8.625-12.756 0-21.371-8.625-8.615-8.625-8.615-21.374Zm0 240V-280q0-12.75 8.628-21.374 8.629-8.625 21.384-8.625 12.756 0 21.371 8.625 8.615 8.624 8.615 21.374v84.616q0 12.749-8.628 21.374-8.629 8.625-21.384 8.625-12.756 0-21.371-8.625-8.615-8.625-8.615-21.374Zm259.998 29.999h-90q-12.75 0-21.375-8.629-8.625-8.628-8.625-21.384 0-12.755 8.625-21.37 8.625-8.616 21.375-8.616h90v-90q0-12.75 8.629-21.375t21.384-8.625q12.755 0 21.371 8.625 8.615 8.625 8.615 21.375v90h90.001q12.749 0 21.374 8.629 8.625 8.629 8.625 21.384 0 12.756-8.625 21.371-8.625 8.615-21.374 8.615h-90.001v90q0 12.75-8.629 21.375t-21.384 8.625q-12.755 0-21.371-8.625-8.615-8.625-8.615-21.374v-90.001Z"/></svg>