<svg xmlns="http://www.w3.org/2000/svg" height="24" viewBox="0 -960 960 960" width="24"><path d="M314.628-290.001q12.756 0 21.371-8.625 8.615-8.624 8.615-21.374v-200q0-12.75-8.628-21.375-8.629-8.624-21.384-8.624-12.756 0-21.371 8.624-8.615 8.625-8.615 21.375v200q0 12.75 8.628 21.374 8.629 8.625 21.384 8.625Zm155.385 0q12.755 0 21.37-8.625 8.616-8.624 8.616-21.374v-320q0-12.75-8.629-21.375-8.629-8.624-21.384-8.624-12.756 0-21.371 8.624Q440-652.75 440-640v320q0 12.75 8.629 21.374 8.628 8.625 21.384 8.625Zm155.384 0q12.755 0 21.371-8.625 8.615-8.624 8.615-21.374v-80q0-12.75-8.629-21.374-8.629-8.625-21.384-8.625t-21.371 8.625q-8.615 8.624-8.615 21.374v80q0 12.75 8.629 21.374 8.629 8.625 21.384 8.625Zm94.59-330q-12.756 0-21.371-8.625-8.615-8.625-8.615-21.375v-50H640q-12.75 0-21.375-8.629-8.624-8.629-8.624-21.384 0-12.756 8.624-21.371Q627.25-760 640-760h50.001v-50.001q0-12.749 8.628-21.374Q707.258-840 720.013-840q12.756 0 21.371 8.625 8.615 8.625 8.615 21.374V-760H800q12.75 0 21.375 8.629 8.624 8.628 8.624 21.384 0 12.755-8.624 21.37-8.625 8.616-21.375 8.616h-50.001v50q0 12.75-8.628 21.375-8.629 8.625-21.384 8.625Zm-517.679 480q-30.308 0-51.307-21-21-21-21-51.308v-535.382q0-30.308 21-51.308 20.999-21 51.307-21h336.155q12.75 0 21.374 8.625 8.625 8.625 8.625 21.375v139.229q0 29.827 21.24 51.067 21.241 21.24 51.067 21.24h139.23q12.749 0 21.374 8.625 8.625 8.625 8.625 21.374v336.155q0 30.308-21 51.308t-51.307 21H202.308Z"/></svg>