<svg xmlns="http://www.w3.org/2000/svg" height="24" viewBox="0 -960 960 960" width="24"><path d="M460-174.616q-29.692 0-54.884-14.847-25.192-14.846-40.654-40.922-8.307-14.615-.115-29.423 8.192-14.807 24.807-14.807 9.538 0 17.038 5.692t13.192 13.384q6.538 9.693 17.539 15.308 11 5.616 23.077 5.616 20.846 0 35.424-14.577 14.577-14.577 14.577-35.424 0-20.846-14.577-35.423-14.578-14.577-35.424-14.577H120q-12.769 0-21.384-8.616Q90-351.847 90-364.616T98.616-386q8.615-8.615 21.384-8.615h340q45.769 0 77.884 32.115t32.115 77.884q0 45.769-32.115 77.884-32.115 32.116-77.884 32.116ZM120-565.385q-12.769 0-21.384-8.615T90-595.384q0-12.769 8.615-21.384 8.615-8.616 21.384-8.616h500q28.846 0 49.424-20.577 20.577-20.577 20.577-49.423 0-28.847-20.577-49.424-20.578-20.577-49.424-20.577-19.846 0-36.731 10t-25.654 27.847q-5.077 8.923-12.385 15.538-7.307 6.615-17.461 6.615-15.384 0-24.999-11.538-9.615-11.538-4.769-25.077 14-38.153 47.423-60.768 33.422-22.616 74.576-22.616 54.154 0 92.076 37.923 37.923 37.923 37.923 92.077 0 54.153-37.923 92.076-37.922 37.923-92.076 37.923H120Zm673.384 304.923Q778-253.77 764-262.77q-13.999-9-13.999-25.615 0-10.153 6.615-17.153 6.615-7 15.538-12.077 17.846-8.769 27.847-25.654 10-16.885 10-36.731 0-28.846-20.577-49.424-20.578-20.577-49.424-20.577H120q-12.769 0-21.384-8.615T90-480q0-12.769 8.615-21.384T120-509.999h620q54.154 0 92.076 37.923 37.923 37.922 37.923 92.076 0 39.307-20.461 71.5-20.462 32.192-56.154 48.038Z"/></svg>