<svg xmlns="http://www.w3.org/2000/svg" height="24" viewBox="0 -960 960 960" width="24"><path d="M449.616-280q-9-134.308-98.269-230.078-89.269-95.77-218.885-108.077-13.384-1.231-22.922-10.207-9.539-8.976-9.539-21.692t9.308-21.331q9.307-8.615 22.461-7 118.539 9.846 212.115 82.001Q437.462-524.23 480-411.845q34.538-87.924 99.423-154.655T726.693-680H595.769q-12.75 0-21.375-8.629-8.624-8.628-8.624-21.384 0-12.755 8.624-21.37 8.625-8.616 21.375-8.616h188.076q15.365 0 25.759 10.395 10.395 10.394 10.395 25.759v188.076q0 12.75-8.629 21.375-8.629 8.624-21.384 8.624-12.756 0-21.371-8.624Q760-503.019 760-515.769v-114.309q-100.693 57-171.539 146.577Q517.614-393.924 509.615-280h47.308q12.75 0 21.374 8.629 8.625 8.628 8.625 21.384 0 12.755-8.625 21.37-8.624 8.616-21.374 8.616h-155q-12.749 0-21.374-8.629-8.625-8.629-8.625-21.384 0-12.756 8.625-21.371Q389.174-280 401.923-280h47.693Z"/></svg>