<svg xmlns="http://www.w3.org/2000/svg" height="24" viewBox="0 -960 960 960" width="24"><path d="M743.076-609.384q-25.394 25.3-58.312 38.419-32.918 13.119-66.379 13.119-33.462 0-65.731-12.731-32.269-12.73-57.73-38.807l-75-75q-16.427-16.539-37.235-24.808-20.807-8.269-42.71-8.269-21.902 0-42.695 8.269-20.792 8.269-37.208 24.808l-47 46.615q-8.922 8.923-20.884 8.808-11.961-.116-21.268-9.423-8.923-8.923-8.923-21.192t8.923-21.576l46-46.385q25.552-25.462 57.729-38.192 32.177-12.731 65.3-12.731 33.124 0 64.842 12.731 31.718 12.73 57.281 38.192l75 75q17.482 17.588 38.241 25.833 20.76 8.244 43.068 8.244 22.308 0 43.154-8.269 20.846-8.27 38.385-25.808l47-46.615q8.922-8.923 21.191-9.116 12.269-.192 21.577 9.116 8.923 8.922 8.923 21.191 0 12.269-8.923 21.577l-46.616 47Zm0 188.46q-25.485 25.462-58.05 38.193-32.565 12.73-66.026 12.73t-66.026-12.73q-32.565-12.731-58.05-38.193l-75-75q-16.427-16.538-37.235-24.807-20.807-8.27-42.71-8.27-21.902 0-42.695 8.27-20.792 8.269-37.208 24.807l-47.384 47q-8.308 8.308-20.384 8.616-12.077.307-21.384-8.682-9.308-8.241-9.423-20.818-.116-12.576 8.807-21.884l46.616-47.384q25.552-25.462 57.729-38.193 32.177-12.73 65.3-12.73 33.124 0 64.842 12.73 31.718 12.731 57.281 38.193l75 75q17.368 17.588 37.992 25.832 20.624 8.245 42.932 8.245 22.308 0 43.346-8.27 21.039-8.269 38.578-25.807l47-46.616q8.922-8.923 21.191-9.115 12.269-.192 21.577 9.115 8.923 8.923 8.923 21.192t-8.923 21.576l-46.616 47Zm-1 188.461q-25.469 25.462-57.542 38.192Q652.461-181.54 619-181.54q-33.461 0-66.038-12.923t-58.038-38.385l-76-74.615q-16.427-16.538-37.235-24.808-20.807-8.269-42.71-8.269-21.902 0-42.695 8.269-20.792 8.27-37.208 24.808l-47.384 47q-8.308 8.308-20.577 8.423-12.269.115-21.258-8.874-8.241-8.241-8.241-20.625 0-12.385 8.308-20.692l47-48.385q25.482-25.461 57.57-38.192 32.089-12.731 65.121-12.731 33.226 0 65.028 12.731 31.802 12.731 57.433 38.192l75 75q17.539 17.539 38.385 25.808 20.846 8.269 43.154 8.269 22.308 0 43.068-8.244 20.759-8.245 38.241-25.833l47-46.615q8.922-8.923 20.884-8.808 11.961.116 21.268 9.423 8.18 8.958 8.551 20.902.372 11.944-8.551 20.866l-47 47.385Z"/></svg>