<svg xmlns="http://www.w3.org/2000/svg" height="24" viewBox="0 -960 960 960" width="24"><path d="M710.617-450.001H480q-5.385 0-8.847 3.462-3.462 3.462-3.462 8.847v90.001q0 12.749-8.628 21.374-8.629 8.625-21.384 8.625-12.756 0-21.371-8.625-8.615-8.625-8.615-21.374v-90.001q0-29.827 21.24-51.067T480-509.999h230.617l-52.309-52.925q-8.307-8.307-8.5-20.576-.192-12.269 9.199-21.66 8.609-8.609 20.993-8.609 12.384 0 21.076 8.693l99.769 99.769q10.846 10.846 10.846 25.307 0 14.461-10.846 25.307l-99.769 99.769q-8.307 8.308-20.576 8.808t-21.66-8.891q-8.609-8.609-8.916-20.685-.308-12.077 8.384-21.384l52.309-52.925Zm-418.308 390q-29.827 0-51.067-21.24-21.241-21.241-21.241-51.068v-695.382q0-29.827 21.241-51.067 21.24-21.241 51.067-21.241h375.382q29.827 0 51.067 21.241 21.241 21.24 21.241 51.067v116.153q0 12.75-8.629 21.375-8.629 8.624-21.384 8.624-12.756 0-21.371-8.624Q680-698.788 680-711.538v-18.463H280v500.002h400v-18.463q0-12.75 8.629-21.375 8.628-8.624 21.384-8.624 12.755 0 21.37 8.624 8.616 8.625 8.616 21.375v116.153q0 29.827-21.241 51.067-21.24 21.24-51.067 21.24H292.309Z"/></svg>