<svg xmlns="http://www.w3.org/2000/svg" height="24" viewBox="0 -960 960 960" width="24"><path d="M529.987-220.001q-12.755 0-21.37-8.625-8.616-8.625-8.616-21.375v-330h-330q-12.75 0-21.375-8.629t-8.625-21.384q0-12.756 8.625-21.371Q157.251-640 170.001-640h353.845q15.366 0 25.76 10.394Q560-619.212 560-603.846v353.845q0 12.75-8.629 21.375-8.628 8.625-21.384 8.625Zm179.999-179.614q-12.756 0-21.371-8.625Q680-416.865 680-429.615v-330H349.999q-12.749 0-21.374-8.629Q320-776.873 320-789.628q0-12.756 8.625-21.371 8.625-8.615 21.374-8.615h353.846q15.365 0 25.759 10.394 10.395 10.394 10.395 25.76v353.845q0 12.75-8.629 21.375t-21.384 8.625Z"/></svg>