<svg xmlns="http://www.w3.org/2000/svg" height="24" viewBox="0 -960 960 960" width="24"><path d="M700.022-187.694q-37.791 0-63.906-26.094-26.115-26.093-26.115-63.884t26.1-63.906Q662.2-367.693 700-367.693q10.308 0 20.885 2.654 10.577 2.654 21.423 9.193v-171.078q0-15.365 10.394-25.759t25.759-10.394h56.154q14.692 0 25.038 10.173t10.346 25.211q0 14.692-10.346 25.038t-25.038 10.346h-44.616v214.615q0 37.8-26.093 63.9-26.094 26.1-63.884 26.1ZM429.999-492.309q-57.749 0-98.874-41.124-41.124-41.125-41.124-98.874 0-57.75 41.124-98.874 41.125-41.125 98.874-41.125 57.75 0 98.874 41.125 41.125 41.124 41.125 98.874 0 57.749-41.125 98.874-41.124 41.124-98.874 41.124ZM166.154-187.694q-15.365 0-25.759-10.394-10.394-10.395-10.394-25.76v-52.768q0-29.999 15.961-54.73 15.962-24.73 42.654-38.192 60.077-29.461 120.038-43.807 59.961-14.346 121.345-14.346 25.692 0 50.308 2.423 24.615 2.423 49.153 7.653 15.461 3.231 20.538 18.308t-5.461 28.692q-14.846 21.154-22.076 45.076-7.231 23.923-7.231 49.384 0 11.552 1.308 22.661 1.308 11.108 4.538 22.185 4.231 16.461-4.692 30.038-8.923 13.577-24.384 13.577H166.154Z"/></svg>