<svg xmlns="http://www.w3.org/2000/svg" height="24" viewBox="0 -960 960 960" width="24"><path d="M480-786.154q13 0 21.5-8.5t8.5-21.5q0-13-8.5-21.5t-21.5-8.5q-13 0-21.5 8.5t-8.5 21.5q0 13 8.5 21.5t21.5 8.5Zm240 728.46q-74.922 0-127.461-52.538-52.538-52.538-52.538-127.46 0-74.923 52.538-127.461Q645.078-417.691 720-417.691t127.461 52.538q52.538 52.538 52.538 127.461 0 74.922-52.538 127.46Q794.922-57.694 720-57.694ZM212.309-140q-29.827 0-51.067-21.241-21.241-21.24-21.241-51.067v-535.382q0-29.827 21.241-51.067 21.24-21.241 51.067-21.241h178q3.769-33.307 29.076-56.653 25.308-23.347 60.807-23.347 35.5 0 60.807 23.347 25.308 23.346 28.692 56.653h178q29.827 0 51.067 21.241 21.241 21.24 21.241 51.067v209.153q0 16.542-13.077 25.732-13.077 9.191-28.923 4.729-13.538-3.846-28.226-5.577-14.688-1.73-29.773-1.73-15.616 0-29.924 1.846t-28.539 5.769q-3.077-.807-7.384-1.615-3.462 0-8.077-.308-4.615-.307-9.538-.307H320q-12.75 0-21.374 8.628-8.625 8.629-8.625 21.384 0 12.756 8.625 21.371 8.624 8.615 21.374 8.615h224.232q-24.154 18.923-42.885 42.962-18.731 24.039-31.654 52.424H320q-12.75 0-21.374 8.629-8.625 8.628-8.625 21.384 0 12.755 8.625 21.37 8.624 8.616 21.374 8.616h130.693q-3.154 13.461-4.616 26.808-1.461 13.346-1.461 27.808 0 15 1.23 29.538 1.231 14.538 4.693 28.846 3.461 15.461-5.603 28.538-9.065 13.077-24.474 13.077H212.309ZM702.308-220v82.308q0 7.077 5.307 12.384Q712.923-120 720-120t12.385-5.308q5.307-5.307 5.307-12.384V-220H820q7.077 0 12.385-5.308 5.307-5.307 5.307-12.384t-5.307-12.385q-5.308-5.307-12.385-5.307h-82.308v-82.308q0-7.077-5.307-12.385-5.308-5.307-12.385-5.307t-12.385 5.307q-5.307 5.308-5.307 12.385v82.308H620q-7.077 0-12.385 5.307-5.307 5.308-5.307 12.385t5.307 12.384Q612.923-220 620-220h82.308ZM320-605.385h316.538q10.461 0 21.961-8.629 11.5-8.628 11.5-21.384 0-12.755-8.624-21.37-8.625-8.616-21.375-8.616H320q-12.75 0-21.374 8.629-8.625 8.629-8.625 21.384 0 12.756 8.625 21.371 8.624 8.615 21.374 8.615Z"/></svg>