<svg xmlns="http://www.w3.org/2000/svg" height="24" viewBox="0 -960 960 960" width="24"><path d="M603.92-465.46 462.39-607l75.99-75.61q5.62-5.62 12.1-8.23 6.47-2.62 13.38-2.62 6.91 0 13.45 2.62 6.54 2.61 12.15 8.23l90.46 90.46q5.62 5.61 8.23 12.09 2.62 6.47 2.62 13.38 0 6.91-2.62 13.45-2.61 6.54-8.23 12.15l-76 75.62Zm162 359.92L504.54-365.69 254.69-116.62q-5.34 5.23-12.01 7.85-6.68 2.61-13.59 2.61t-13.38-2.61q-6.48-2.62-12.09-7.85l-90.46-91.69q-4.62-5.61-7.24-11.76-2.61-6.14-2.61-13.16 0-6.85 2.68-13.63 2.69-6.77 7.17-11.29L363-507.62l-260.15-261q-8.53-8.21-8.92-20.52-.39-12.32 9-21.71 8.61-8.61 20.99-8.61 12.39 0 21.08 8.69l663.08 663.08q8.3 8.3 8.8 20.57t-8.89 21.66q-8.61 8.61-20.99 8.61-12.38 0-21.08-8.69Zm-8.58-653.34-53.88-25.2q-1.61-.61-5.61-8.07 0-1.86 5.61-8.39l53.88-25.2 25.2-53.87q.61-1.62 8.07-5.62 1.86 0 8.39 5.62l25.2 53.87 53.88 25.2q1.61.62 5.61 8.07 0 1.87-5.61 8.39l-53.88 25.2L799-705q-.62 1.61-8.07 5.61-1.87 0-8.39-5.61l-25.2-53.88Z"/></svg>