<svg xmlns="http://www.w3.org/2000/svg" height="24" viewBox="0 -960 960 960" width="24"><path d="m379.46-436.15 27.34 64.09q4.28 10.98 16.51 10.98t16.5-10.98l27.34-64.09 64.09-27.35q10.99-4.27 10.99-16.5t-10.99-16.5l-64.09-27.35-27.34-64.09q-4.27-10.98-16.5-10.98t-16.51 10.98l-27.34 64.09-64.09 27.35q-10.98 4.27-10.98 16.5t10.98 16.5l64.09 27.35ZM212.31-220q-29.83 0-51.07-21.24Q140-262.48 140-292.31v-375.38q0-29.83 21.24-51.07Q182.48-740 212.31-740h380q21.15 0 39.23 9.77 18.07 9.77 29.84 26.54l128.7 181.92q13.46 19.07 13.46 41.76 0 22.7-13.46 41.78l-128.7 182.69q-11.77 16.77-30 26.15-18.23 9.39-39.07 9.39h-380Z"/></svg>