<svg xmlns="http://www.w3.org/2000/svg" height="24" viewBox="0 -960 960 960" width="24"><path d="M360-484.616q-14.692 0-25.038-10.346T324.616-520q0-14.692 10.346-25.038T360-555.384q14.692 0 25.038 10.346T395.384-520q0 14.692-10.346 25.038T360-484.616Zm240 0q-14.692 0-25.038-10.346T564.616-520q0-14.692 10.346-25.038T600-555.384q14.692 0 25.038 10.346T635.384-520q0 14.692-10.346 25.038T600-484.616ZM212.309-100.001q-29.923 0-51.115-21.193-21.193-21.192-21.193-51.115v-159.23q0-16.923 8.923-31.384 8.924-14.462 26.462-21.846h4.615V-560q0-62.154 23.462-116.807 23.461-54.654 64.269-95.461 40.807-40.808 95.653-64.269Q418.231-859.999 480-859.999q62.154 0 116.807 23.462 54.654 23.461 95.461 64.269 40.808 40.807 64.269 95.461Q779.999-622.154 779.999-560v175.231h4.231q17.538 7.384 26.653 21.846 9.116 14.461 9.116 31.384v159.23q0 29.923-21.193 51.115-21.192 21.193-51.115 21.193H212.309ZM200-331.539v159.23q0 5.385 3.462 8.847 3.462 3.462 8.847 3.462h77.692v-171.539H200ZM349.999-160h100.002v-171.539H349.999V-160ZM240-391.538h210.001v-406.231q-85.616 9.384-147.808 75.884Q240-655.385 240-560v168.462Zm269.999 0H720V-560q0-95.385-62.193-161.885-62.192-66.5-147.808-75.884v406.231Zm0 231.538h100.002v-171.539H509.999V-160Zm160 0h77.692q5.385 0 8.847-3.462 3.462-3.462 3.462-8.847v-159.23h-90.001V-160Z"/></svg>