<svg xmlns="http://www.w3.org/2000/svg" height="24" viewBox="0 -960 960 960" width="24"><path d="M480-601.539q-13.731 0-23.019-9.288-9.288-9.288-9.288-23.019 0-13.73 9.288-23.019 9.288-9.288 23.019-9.288 13.731 0 23.019 9.288 9.288 9.289 9.288 23.019 0 13.731-9.288 23.019-9.288 9.288-23.019 9.288ZM326.154-447.693q-13.73 0-23.019-9.288-9.288-9.288-9.288-23.019 0-13.731 9.288-23.019 9.289-9.288 23.019-9.288 13.731 0 23.019 9.288 9.288 9.288 9.288 23.019 0 13.731-9.288 23.019-9.288 9.288-23.019 9.288Zm153.846 0q-13.731 0-23.019-9.288-9.288-9.288-9.288-23.019 0-13.731 9.288-23.019 9.288-9.288 23.019-9.288 13.731 0 23.019 9.288 9.288 9.288 9.288 23.019 0 13.731-9.288 23.019-9.288 9.288-23.019 9.288Zm153.846 0q-13.731 0-23.019-9.288-9.288-9.288-9.288-23.019 0-13.731 9.288-23.019 9.288-9.288 23.019-9.288 13.73 0 23.019 9.288 9.288 9.288 9.288 23.019 0 13.731-9.288 23.019-9.289 9.288-23.019 9.288ZM480-293.847q-13.731 0-23.019-9.288-9.288-9.289-9.288-23.019 0-13.731 9.288-23.019 9.288-9.288 23.019-9.288 13.731 0 23.019 9.288 9.288 9.288 9.288 23.019 0 13.73-9.288 23.019-9.288 9.288-23.019 9.288ZM172.309-755.384q-13.731 0-23.019-9.289-9.289-9.288-9.289-23.018 0-13.731 9.289-23.019 9.288-9.289 23.019-9.289 13.73 0 23.018 9.289 9.289 9.288 9.289 23.019 0 13.73-9.289 23.018-9.288 9.289-23.018 9.289Zm153.845 0q-13.73 0-23.019-9.289-9.288-9.288-9.288-23.018 0-13.731 9.288-23.019 9.289-9.289 23.019-9.289 13.731 0 23.019 9.289 9.288 9.288 9.288 23.019 0 13.73-9.288 23.018-9.288 9.289-23.019 9.289Zm153.846 0q-13.731 0-23.019-9.289-9.288-9.288-9.288-23.018 0-13.731 9.288-23.019 9.288-9.289 23.019-9.289 13.731 0 23.019 9.289 9.288 9.288 9.288 23.019 0 13.73-9.288 23.018-9.288 9.289-23.019 9.289Zm153.846 0q-13.731 0-23.019-9.289-9.288-9.288-9.288-23.018 0-13.731 9.288-23.019 9.288-9.289 23.019-9.289 13.73 0 23.019 9.289 9.288 9.288 9.288 23.019 0 13.73-9.288 23.018-9.289 9.289-23.019 9.289Zm153.845 0q-13.73 0-23.018-9.289-9.289-9.288-9.289-23.018 0-13.731 9.289-23.019 9.288-9.289 23.018-9.289 13.731 0 23.019 9.289 9.289 9.288 9.289 23.019 0 13.73-9.289 23.018-9.288 9.289-23.019 9.289ZM172.309-601.539q-13.731 0-23.019-9.288-9.289-9.288-9.289-23.019 0-13.73 9.289-23.019 9.288-9.288 23.019-9.288 13.73 0 23.018 9.288 9.289 9.289 9.289 23.019 0 13.731-9.289 23.019-9.288 9.288-23.018 9.288Zm615.382 0q-13.73 0-23.018-9.288-9.289-9.288-9.289-23.019 0-13.73 9.289-23.019 9.288-9.288 23.018-9.288 13.731 0 23.019 9.288 9.289 9.289 9.289 23.019 0 13.731-9.289 23.019-9.288 9.288-23.019 9.288ZM172.309-447.693q-13.731 0-23.019-9.288-9.289-9.288-9.289-23.019 0-13.731 9.289-23.019 9.288-9.288 23.019-9.288 13.73 0 23.018 9.288 9.289 9.288 9.289 23.019 0 13.731-9.289 23.019-9.288 9.288-23.018 9.288Zm615.382 0q-13.73 0-23.018-9.288-9.289-9.288-9.289-23.019 0-13.731 9.289-23.019 9.288-9.288 23.018-9.288 13.731 0 23.019 9.288 9.289 9.288 9.289 23.019 0 13.731-9.289 23.019-9.288 9.288-23.019 9.288ZM172.309-293.847q-13.731 0-23.019-9.288-9.289-9.289-9.289-23.019 0-13.731 9.289-23.019 9.288-9.288 23.019-9.288 13.73 0 23.018 9.288 9.289 9.288 9.289 23.019 0 13.73-9.289 23.019-9.288 9.288-23.018 9.288Zm615.382 0q-13.73 0-23.018-9.288-9.289-9.289-9.289-23.019 0-13.731 9.289-23.019 9.288-9.288 23.018-9.288 13.731 0 23.019 9.288 9.289 9.288 9.289 23.019 0 13.73-9.289 23.019-9.288 9.288-23.019 9.288ZM172.309-140.001q-13.731 0-23.019-9.289-9.289-9.288-9.289-23.019 0-13.73 9.289-23.018 9.288-9.289 23.019-9.289 13.73 0 23.018 9.289 9.289 9.288 9.289 23.018 0 13.731-9.289 23.019-9.288 9.289-23.018 9.289Zm153.845 0q-13.73 0-23.019-9.289-9.288-9.288-9.288-23.019 0-13.73 9.288-23.018 9.289-9.289 23.019-9.289 13.731 0 23.019 9.289 9.288 9.288 9.288 23.018 0 13.731-9.288 23.019-9.288 9.289-23.019 9.289Zm153.846 0q-13.731 0-23.019-9.289-9.288-9.288-9.288-23.019 0-13.73 9.288-23.018 9.288-9.289 23.019-9.289 13.731 0 23.019 9.289 9.288 9.288 9.288 23.018 0 13.731-9.288 23.019-9.288 9.289-23.019 9.289Zm153.846 0q-13.731 0-23.019-9.289-9.288-9.288-9.288-23.019 0-13.73 9.288-23.018 9.288-9.289 23.019-9.289 13.73 0 23.019 9.289 9.288 9.288 9.288 23.018 0 13.731-9.288 23.019-9.289 9.289-23.019 9.289Zm153.845 0q-13.73 0-23.018-9.289-9.289-9.288-9.289-23.019 0-13.73 9.289-23.018 9.288-9.289 23.018-9.289 13.731 0 23.019 9.289 9.289 9.288 9.289 23.018 0 13.731-9.289 23.019-9.288 9.289-23.019 9.289Z"/></svg>