<svg xmlns="http://www.w3.org/2000/svg" height="24" viewBox="0 -960 960 960" width="24"><path d="M135.386-534.615v-173.076q0-15.846 10.538-26.385 10.539-10.538 26.385-10.538h132.23q15.462 0 26.192 10.73 10.731 10.731 10.731 26.193v173.076q0 15.461-10.731 26.192-10.73 10.731-26.192 10.731h-132.23q-15.462 0-26.193-10.731-10.73-10.731-10.73-26.192Zm278.383 36.923q-15.461 0-26.192-10.731t-10.731-26.192v-173.076q0-15.462 10.731-26.193 10.731-10.73 26.192-10.73h132.462q15.461 0 26.192 10.73 10.731 10.731 10.731 26.193v173.076q0 15.461-10.731 26.192t-26.192 10.731H413.769Zm241.692 0q-15.462 0-26.192-10.731-10.731-10.731-10.731-26.192v-173.076q0-15.462 10.731-26.193 10.73-10.73 26.192-10.73h132.23q15.846 0 26.385 10.538 10.538 10.539 10.538 26.385v173.076q0 15.461-10.73 26.192-10.731 10.731-26.193 10.731h-132.23ZM304.539-215.386h-132.23q-15.846 0-26.385-10.538-10.538-10.539-10.538-26.385v-173.076q0-15.461 10.73-26.192 10.731-10.731 26.193-10.731h132.23q15.462 0 26.192 10.731 10.731 10.731 10.731 26.192v173.076q0 15.462-10.731 26.193-10.73 10.73-26.192 10.73Zm109.23 0q-15.461 0-26.192-10.73-10.731-10.731-10.731-26.193v-173.076q0-15.461 10.731-26.192t26.192-10.731h132.462q15.461 0 26.192 10.731t10.731 26.192v173.076q0 15.462-10.731 26.193-10.731 10.73-26.192 10.73H413.769Zm241.692 0q-15.462 0-26.192-10.73-10.731-10.731-10.731-26.193v-173.076q0-15.461 10.731-26.192 10.73-10.731 26.192-10.731h132.23q15.462 0 26.193 10.731 10.73 10.731 10.73 26.192v173.076q0 15.846-10.538 26.385-10.539 10.538-26.385 10.538h-132.23Z"/></svg>