<svg xmlns="http://www.w3.org/2000/svg" height="24" viewBox="0 -960 960 960" width="24"><path d="M737.614-100.001q-113.076 0-227.191-52.577-114.115-52.577-209.691-148.346-95.577-95.769-148.154-209.691-52.577-113.923-52.577-226.999 0-18.165 12-30.275t30-12.11h130.46q15.154 0 26.731 9.885 11.577 9.885 14.73 24.423L336.845-628q2.385 16.385-1 28.154-3.384 11.769-12.154 19.769l-92.384 89.923q22.308 40.846 50.962 77.269 28.654 36.424 62.038 69.578 32.924 32.923 70.001 61.154 37.077 28.231 80.077 52.538l89.769-90.538q9.385-9.769 22.731-13.692 13.346-3.923 27.731-1.923l111.075 22.615q15.154 4 24.731 15.461 9.577 11.462 9.577 26.001v129.69q0 18-12.11 30t-30.275 12ZM670.056-480q-78.826 0-134.441-55.558Q480-591.116 480-669.942t55.558-134.441q55.558-55.616 134.384-55.616t134.441 55.559q55.616 55.558 55.616 134.384T804.44-535.615Q748.882-480 670.056-480Zm-.057-72.307q7.077 0 12.385-5.308 5.307-5.307 5.307-12.384v-116.154q0-7.077-5.307-12.384-5.308-5.308-12.385-5.308t-12.384 5.308q-5.308 5.307-5.308 12.384v116.154q0 7.077 5.308 12.384 5.307 5.308 12.384 5.308Zm0-193.846q8 0 14-6t6-14q0-8-6-14t-14-6q-8 0-14 6t-6 14q0 8 6 14t14 6Z"/></svg>