<svg xmlns="http://www.w3.org/2000/svg" height="24" viewBox="0 -960 960 960" width="24"><path d="M300.001-210.001v-50h-43.846q-15.365 0-25.759-10.395-10.395-10.394-10.395-25.759v-367.531q0-15.62 10.395-25.966 10.394-10.347 25.759-10.347h43.846v-50q0-12.75 8.629-21.375t21.384-8.625q12.756 0 21.371 8.625Q360-762.749 360-749.999v50h43.846q15.366 0 25.76 10.395Q440-679.21 440-663.845v367.531q0 15.62-10.394 25.966-10.394 10.347-25.76 10.347H360v50q0 12.75-8.629 21.375-8.628 8.625-21.384 8.625-12.755 0-21.37-8.625-8.616-8.625-8.616-21.375Zm299.999 0v-162.308h-43.846q-15.366 0-25.76-10.394Q520-393.097 520-408.462v-179.229q0-15.366 10.394-25.76 10.394-10.394 25.76-10.394H600v-126.154q0-12.75 8.629-21.375 8.628-8.625 21.384-8.625 12.755 0 21.37 8.625 8.616 8.625 8.616 21.375v126.154h43.846q15.365 0 25.759 10.394 10.395 10.394 10.395 25.76v179.229q0 15.365-10.395 25.759-10.394 10.394-25.759 10.394h-43.846v162.308q0 12.75-8.629 21.375t-21.384 8.625q-12.756 0-21.371-8.625Q600-197.251 600-210.001Z"/></svg>