<svg xmlns="http://www.w3.org/2000/svg" height="24" viewBox="0 -960 960 960" width="24"><path d="M699.999-217.233v73.232q0 12.769-8.616 21.384-8.615 8.616-21.384 8.616t-21.384-8.616Q640-131.232 640-144.001v-127.538q0-20.385 14.038-34.423T688.461-320h127.538q12.769 0 21.384 8.615 8.616 8.615 8.616 21.384t-8.616 21.384q-8.615 8.616-21.384 8.616h-74.232l107.309 107.308q8.307 8.308 8.307 20.577 0 12.269-8.307 21.192-8.923 9.307-21.384 9.115-12.462-.192-21.385-9.115L699.999-217.233ZM480-100.001q-78.769 0-148.115-29.962-69.346-29.961-120.653-81.269-51.308-51.307-81.269-120.653Q100.001-401.231 100.001-480t29.962-148.115q29.961-69.346 81.269-120.653 51.307-51.308 120.653-81.269Q401.231-859.999 480-859.999t148.115 29.962q69.346 29.961 120.653 81.269 51.308 51.307 81.269 120.653Q859.999-558.769 859.999-480q0 10.385-.5 22.385-.5 12-1.885 22.384-1.615 12.769-10.731 20.154-9.115 7.384-22.499 7.384-11.769 0-20.077-10.153Q796-428 797.615-440.154q2-10.384 2.193-19.923Q800-469.615 800-480q0-21.923-2.885-43.654-2.884-21.731-9.038-43.27H639.384q3.769 21.539 5.461 43.27 1.692 21.731 1.692 43.654 0 10.385-.192 22.077-.192 11.692-1.192 22.077-1.616 12.769-10.538 20.461-8.923 7.692-21.692 7.692-11.769 0-20.577-9.538-8.807-9.538-7.192-21.692 1-10.384 1.193-20.538.192-10.154.192-20.539 0-21.923-1.692-43.654-1.693-21.731-5.462-43.27h-198.77q-3.769 21.539-5.462 43.27-1.692 21.731-1.692 43.654 0 21.923 1.692 43.654 1.693 21.731 5.462 43.27h117.079q12.769 0 21.384 8.615t8.615 21.384q0 12.769-8.615 21.384t-21.384 8.615h-103.31q13.154 47.231 34.269 90.578 21.116 43.346 51.347 81.654 10.769 0 21.539.115 10.769.116 21.154-1.269 12.384-1.615 20.691 6.384 8.308 8 8.308 20.385 0 13.384-6.885 22.307-6.884 8.923-19.653 10.538-10.385 1.385-22.385 1.885-12 .5-22.769.5ZM171.923-393.076h148.693q-3.769-21.539-5.461-43.27-1.692-21.731-1.692-43.654 0-21.923 1.692-43.654 1.692-21.731 5.461-43.27H171.923q-6.154 21.539-9.038 43.27Q160-501.923 160-480q0 21.923 2.885 43.654 2.884 21.731 9.038 43.27Zm230.617 222q-24.154-37.462-41.5-78.155-17.347-40.693-28.27-83.847H197.076q31.308 61.77 84.924 104.232 53.616 42.462 120.54 57.77ZM197.076-626.922H332.77q10.154-43.539 27.308-84.232 17.154-40.692 42.462-77.77-67.308 14.923-120.732 57.385-53.424 42.462-84.732 104.617Zm197.308 0h171.232q-12.769-47.231-34.462-90.193-21.692-42.962-51.154-82.039-29.846 38.308-51.347 81.654-21.5 43.347-34.269 90.578Zm232.846 0h135.694q-31.308-62.155-84.732-104.809-53.424-42.654-120.732-57.193 24.154 37.462 40.923 78.347 16.77 40.885 28.847 83.655Z"/></svg>