<svg xmlns="http://www.w3.org/2000/svg" height="24" viewBox="0 -960 960 960" width="24"><path d="M300.001-699.999v-72.307q0-29.923 21.193-51.115 21.192-21.192 51.115-21.192h215.382q29.923 0 51.115 21.192 21.193 21.192 21.193 51.115v72.307h127.692q29.923 0 51.115 21.193 21.193 21.192 21.193 51.115v415.382q0 29.923-21.193 51.115-21.192 21.193-51.115 21.193H172.309q-29.923 0-51.115-21.193-21.193-21.192-21.193-51.115v-415.382q0-29.923 21.193-51.115 21.192-21.193 51.115-21.193h127.692Zm59.999 0h240v-72.307q0-5.385-3.462-8.846-3.462-3.462-8.847-3.462H372.309q-5.385 0-8.847 3.462-3.462 3.461-3.462 8.846v72.307ZM160-288.462h640v-103.076H160v103.076Z"/></svg>