<svg xmlns="http://www.w3.org/2000/svg" height="24" viewBox="0 -960 960 960" width="24"><path d="M132.309-116.156q-30.308 0-51.308-21t-21-51.308v-373.075q0-12.768 8.616-21.384 8.615-8.615 21.384-8.615t21.384 8.615Q120-574.307 120-561.539v373.075q0 4.616 3.846 8.463 3.847 3.846 8.463 3.846h607.69q12.768 0 21.384 8.615 8.615 8.615 8.615 21.384t-8.615 21.384q-8.616 8.616-21.384 8.616h-607.69Zm139.998-139.999q-30.307 0-51.307-21-21-21-21-51.307v-371.537q0-15.461 10.346-25.807 10.346-10.346 25.808-10.346h170v-71.538q0-30.307 21-51.307 21-21 51.307-21h143.076q30.308 0 51.307 21 21 21 21 51.307v71.538h170.001q15.461 0 25.807 10.346 10.347 10.346 10.347 25.807v371.537q0 30.307-21 51.307-21 21-51.308 21H272.307Zm193.846-479.997h167.693v-71.538q0-4.616-3.847-8.462-3.846-3.847-8.462-3.847H478.461q-4.615 0-8.462 3.847-3.846 3.846-3.846 8.462v71.538Z"/></svg>