<svg xmlns="http://www.w3.org/2000/svg" height="24" viewBox="0 -960 960 960" width="24"><path d="m424-410.153-92.924-92.923q-8.307-8.308-20.884-8.5-12.576-.193-21.268 8.5-8.693 8.692-8.693 21.076t8.693 21.076l109.769 109.769q10.846 10.846 25.307 10.846 14.461 0 25.307-10.846l222.539-222.538q8.307-8.307 8.5-20.884.192-12.577-8.5-21.269-8.692-8.692-21.077-8.692-12.384 0-21.076 8.692L424-410.153ZM212.309-140.001q-30.308 0-51.308-21t-21-51.308v-535.382q0-30.308 21-51.308t51.308-21h535.382q30.308 0 51.308 21t21 51.308v535.382q0 30.308-21 51.308t-51.308 21H212.309Z"/></svg>