<svg xmlns="http://www.w3.org/2000/svg" height="24" viewBox="0 -960 960 960" width="24"><path d="M90-149.999v-206.463q0-17.93 9.771-32.498 9.771-14.568 26.306-22.039l123.924-55.385v-93.847q0-17.269 8.958-31.158 8.957-13.89 23.887-22.149l167.155-83.769v-75.771H400q-12.75 0-21.374-8.629-8.625-8.628-8.625-21.384 0-12.755 8.625-21.37 8.624-8.615 21.374-8.615h50.001v-50.001q0-12.75 8.628-21.375 8.629-8.624 21.384-8.624 12.756 0 21.371 8.624 8.615 8.625 8.615 21.375v50.001H560q12.75 0 21.375 8.628 8.624 8.629 8.624 21.384 0 12.756-8.624 21.371-8.625 8.615-21.375 8.615h-50.001v75.771l167.155 83.769q14.93 8.259 23.887 22.149 8.958 13.889 8.958 31.158v93.847l123.924 55.385q16.535 7.471 26.306 22.039 9.77 14.568 9.77 32.498v206.463q0 24.538-17.73 42.268t-42.268 17.73H590.769q-15.366 0-25.76-10.394-10.394-10.394-10.394-25.759v-90.77q0-30.779-21.9-52.697-21.9-21.918-52.654-21.918-30.753 0-52.715 21.918-21.961 21.918-21.961 52.697v90.77q0 15.365-10.394 25.759t-25.76 10.394H149.999q-24.538 0-42.268-17.73t-17.73-42.268Zm390.091-277.694q21.832 0 37.024-15.283 15.192-15.282 15.192-37.115 0-21.832-15.283-37.024-15.282-15.192-37.115-15.192-21.832 0-37.024 15.283-15.192 15.282-15.192 37.115 0 21.832 15.283 37.024 15.282 15.192 37.115 15.192Z"/></svg>