<svg xmlns="http://www.w3.org/2000/svg" height="24" viewBox="0 -960 960 960" width="24"><path d="M172.309-819.999 227.308-710q7 14 20 22t28 8q30 0 46-25.5t2-52.5l-30.999-61.999h80L427.308-710q7 14 20 22t28 8q30 0 46-25.5t2-52.5l-30.999-61.999h80L627.308-710q7 14 20 22t28 8q30 0 46-25.5t2-52.5l-30.999-61.999h95.382q30.308 0 51.308 21t21 51.308v535.382q0 30.308-21 51.308t-51.308 21H172.309q-30.308 0-51.308-21t-21-51.308v-535.382q0-30.308 21-51.308t51.308-21Zm192.769 562.305h229.844q12.615 0 20.654-9 8.038-9 5.5-21.461-3.154-13.769-12.423-25.538t-23.423-20.076q-20.846-12.462-46.961-18.192-26.115-5.731-58.269-5.731-32.154 0-58.269 5.731-26.115 5.73-46.961 18.192-14.154 8.307-23.423 20.076-9.269 11.769-12.423 25.538-3.538 11.077 4.692 20.769 8.231 9.692 21.462 9.692ZM480-410.001q29.154 0 49.576-20.423 20.423-20.422 20.423-49.576t-20.423-49.576Q509.154-549.999 480-549.999t-49.576 20.423Q410.001-509.154 410.001-480t20.423 49.576q20.422 20.423 49.576 20.423Z"/></svg>