<svg xmlns="http://www.w3.org/2000/svg" height="24" viewBox="0 -960 960 960" width="24"><path d="M680-896.921q90.384 0 153.653 63.268Q896.921-770.384 896.921-680q0 90.384-63.268 153.653Q770.384-463.079 680-463.079q-90.384 0-153.653-63.268Q463.079-589.616 463.079-680q0-90.384 63.268-153.653Q589.616-896.921 680-896.921ZM206.54-206.54q-46.769-46.769-71.653-106.999Q110.002-373.77 110.002-440q0-101.769 56-184.346 56-82.576 150.462-119.114 25.538-11.615 48.23 3.654 22.692 15.269 19.615 41.73-4.153 64.154 18.731 123.614 22.885 59.461 68.346 104.922 44.845 44.846 103.806 67.423 58.961 22.577 122.499 18.423 25.308-1.461 40.384 19 15.077 20.461 7 45.923-37.076 94.692-120.076 151.73Q542-110.002 440-110.002q-66.23 0-126.461-24.885-60.23-24.884-106.999-71.653Z"/></svg>