<svg xmlns="http://www.w3.org/2000/svg" height="24" viewBox="0 -960 960 960" width="24"><path d="M810.617-65.078 695.078-180H212.309q-30.308 0-51.308-21t-21-51.308v-455.382q0-6.231 1.731-11.386 1.731-5.154 4.808-9.462L72.309-802.77q-8.923-8.923-9.115-21.192-.193-12.269 9.115-21.576 9.308-9.308 21.384-9.308 12.077 0 21.384 9.308L853.385-107.23q8.923 8.922 9.115 20.884.193 11.961-9.115 21.269-9.307 9.307-21.384 9.307t-21.384-9.307ZM295.386-366.154H400q17.385 0 29.462-12.077 12.077-12.077 12.077-29.462V-425q0-6.846-5.039-12.269-5.038-5.423-12.654-5.423h-12.307q-7.615 0-12.653 5.423-5.039 5.423-5.039 12.269v5q0 2.308-1.923 4.231t-4.231 1.923h-80q-2.308 0-4.231-1.923T301.539-420v-124.307q0-2.693 1.73-4.424 1.731-1.731 4.424-1.731h16.924l-38.461-38.461-6.154.616q-11.231 3.076-18.693 13-7.462 9.923-7.462 23v144.614q0 17.385 12.077 29.462 12.077 12.077 29.462 12.077Zm524.613-341.537v366.46q0 24.307-22.193 33.653-22.192 9.346-39.269-7.731l-64.076-64.076q5.461-5 8.576-11.962 3.116-6.961 3.116-14.423v-16.538q0-6.846-5.231-12.077-5.231-5.23-12.461-5.23H676.154q-6.847 0-12.27 5.038-5.423 5.038-5.423 11.884v4.232h-3.076l-89.232-89.232V-540q0-2.308 1.923-4.231t4.231-1.923h80q2.308 0 4.231 1.923t1.923 4.231v5q0 6.846 5.039 12.077 5.038 5.23 12.654 5.23h12.307q7.615 0 12.653-5.23 5.039-5.231 5.039-12.077v-17.307q0-17.385-12.077-29.462-12.077-12.077-29.462-12.077H560q-15.846 0-27.346 10.346t-13.423 25.808v3.077L355.309-718.537q-17.077-17.077-7.731-39.269 9.346-22.193 33.653-22.193h366.46q30.308 0 51.308 21t21 51.308Z"/></svg>