<svg xmlns="http://www.w3.org/2000/svg" height="24" viewBox="0 -960 960 960" width="24"><path d="M260-180.001q-82.922 0-141.461-57.615-58.538-57.615-58.538-140.538 0-73.384 47-130.538 47-57.153 119.923-67.614 19.231-89.693 90.192-146.693 70.961-57 162.884-57 108.538 0 184.268 75.731 75.731 75.73 75.731 184.268v20.001h12.308q63.23 4.923 105.461 50.846Q899.999-403.23 899.999-340q0 66.922-46.538 113.461Q806.922-180.001 740-180.001H509.999v-291.385l53.309 52.693q8.308 8.308 20.577 8.308 12.269 0 21.191-8.923 8.693-8.308 8.5-21.077-.192-12.769-8.5-21.076l-99.769-99.769Q494.461-572.076 480-572.076q-14.461 0-25.307 10.846l-99.769 99.769q-8.308 8.307-8.808 20.769-.5 12.461 8.808 21.384 8.307 8.307 20.768 8.423 12.462.115 21.384-8.193l52.925-52.308v291.385H260Z"/></svg>