<svg xmlns="http://www.w3.org/2000/svg" height="24" viewBox="0 -960 960 960" width="24"><path d="M676.344-100.001q-15.652 0-25.998-10.395Q640-120.79 640-136.155v-51.154q-40.154-11.461-71.539-37.961-31.384-26.5-49-63.885-5.692-11.154 0-22.692 5.693-11.538 17.59-16.674 10.41-4.402 20.948.867t16.23 15.807Q590.999-279 622.145-259.5q31.146 19.5 67.854 19.5h120q20.833 0 35.416 14.583 14.584 14.583 14.584 35.416v54q0 15.3-10.347 25.65-10.346 10.35-25.997 10.35H676.344Zm73.655-200q-29.153 0-49.576-20.423Q680-340.847 680-370.001q0-29.153 20.423-49.576Q720.846-440 749.999-440q29.154 0 49.577 20.423t20.423 49.576q0 29.154-20.423 49.577t-49.577 20.423ZM136.345-520q-15.651 0-25.997-10.35-10.347-10.35-10.347-25.65v-53.999q0-20.833 14.584-35.416 14.583-14.584 35.416-14.584h120q36.708 0 67.854-19.5t47.916-52.346q5.692-10.539 16.23-17.115 10.538-6.577 21.932-2.731 12.913 3.846 19.606 14.384 6.692 10.538 2.23 22.077-15.846 41-49.615 68.23-33.769 27.231-76.154 39.693v51.153q0 15.366-10.346 25.76Q299.308-520 283.656-520H136.345Zm73.656-200q-29.154 0-49.577-20.423t-20.423-49.576q0-29.154 20.423-49.577t49.577-20.423q29.153 0 49.576 20.423Q280-819.153 280-789.999q0 29.153-20.423 49.576Q239.154-720 210.001-720Zm195.371 309.999q-12.756 0-21.371-8.625-8.615-8.624-8.615-21.374 0-120.953 84.057-204.899 84.057-83.945 205.171-83.945 12.75 0 21.375 8.629 8.625 8.628 8.625 21.384 0 12.755-8.625 21.37-8.625 8.616-21.375 8.616-95.512 0-162.371 66.746Q435.384-535.352 435.384-440q0 12.75-8.628 21.374-8.629 8.625-21.384 8.625Zm139.998 0q-12.755 0-21.371-8.625-8.615-8.624-8.615-21.374 0-61.769 43.731-105.499 43.73-43.731 105.499-43.731 12.75 0 21.375 8.629 8.625 8.628 8.625 21.384 0 12.755-8.625 21.37-8.625 8.616-21.375 8.616-36.808 0-63.019 26.211-26.212 26.212-26.212 63.02 0 12.75-8.629 21.374-8.629 8.625-21.384 8.625Z"/></svg>