<svg xmlns="http://www.w3.org/2000/svg" height="24" viewBox="0 -960 960 960" width="24"><path d="M292.309-140.001q-29.923 0-51.115-21.193-21.193-21.192-21.193-51.115V-720h-10q-12.769 0-21.384-8.615-8.616-8.615-8.616-21.384t8.616-21.384q8.615-8.616 21.384-8.616H360q0-14.692 10.346-25.038t25.038-10.346h169.232q14.692 0 25.038 10.346T600-779.999h149.999q12.769 0 21.384 8.616 8.616 8.615 8.616 21.384t-8.616 21.384Q762.768-720 749.999-720h-10v507.691q0 29.923-21.193 51.115-21.192 21.193-51.115 21.193H292.309ZM480-417.847l82.924 82.923q8.307 8.308 20.884 8.5 12.576.193 21.268-8.5 8.693-8.692 8.693-21.076t-8.693-21.076L522.153-460l82.923-82.924q8.308-8.307 8.5-20.884.193-12.576-8.5-21.268-8.692-8.693-21.076-8.693t-21.076 8.693L480-502.153l-82.924-82.923q-8.307-8.308-20.884-8.5-12.576-.193-21.268 8.5-8.693 8.692-8.693 21.076t8.693 21.076L437.847-460l-82.923 82.924q-8.308 8.307-8.5 20.884-.193 12.576 8.5 21.268 8.692 8.693 21.076 8.693t21.076-8.693L480-417.847Z"/></svg>