<svg xmlns="http://www.w3.org/2000/svg" height="24" viewBox="0 -960 960 960" width="24"><path d="M479.925-456.385q9.921 0 18.993-2.686 9.071-2.685 17.236-7.16L731.462-590.54q10.573-5.973 13.594-18.294 3.021-12.32-2.992-22.88-6.012-10.559-18.038-13.576-12.025-3.017-22.563 3.059L480-514.461l-221.463-127.77q-10.538-6.076-22.563-3.059-12.026 3.017-18.038 13.576-6.013 10.56-2.642 22.88 3.371 12.321 13.859 18.294l214.693 124.309q8.118 4.475 17.138 7.16 9.019 2.686 18.941 2.686ZM140.001-328.308v-303.384q0-19.692 9.491-36.071 9.49-16.38 26.663-26.39l267.691-154.076q9.231-5 17.751-7.423 8.519-2.423 18.384-2.423t18.903 2.423q9.039 2.423 17.27 7.423l267.691 154.076q17.173 10.01 26.663 26.39 9.491 16.379 9.491 36.071v135.231q0 16.077-13.077 25.307-13.077 9.231-28.923 5.385-13.538-3.846-28.226-5.384-14.688-1.539-29.773-1.539-110.901 0-189.296 78.396Q452.309-315.901 452.309-205v18.247q0 8.456 1.615 15.577 3.231 22.252-13.538 34.906-16.77 12.654-34.846 2.807L176.155-265.847q-17.173-10.01-26.663-26.39-9.491-16.379-9.491-36.071ZM720-25.002q-74.922 0-127.461-52.538-52.538-52.538-52.538-127.46 0-74.923 52.538-127.461Q645.078-384.999 720-384.999t127.461 52.538Q899.999-279.923 899.999-205q0 74.922-52.538 127.46Q794.922-25.002 720-25.002Zm0-68.46q8 0 13.615-5.616 5.616-5.615 5.616-13.615t-5.616-13.616Q728-131.924 720-131.924t-13.615 5.615q-5.616 5.616-5.616 13.616t5.616 13.615Q712-93.463 720-93.463Zm0-78.462q7.077 0 12.385-5.308 5.307-5.307 5.307-12.384v-109.182q0-7.279-5.307-12.509-5.308-5.231-12.385-5.231t-12.385 5.307q-5.307 5.308-5.307 12.385v109.182q0 7.279 5.307 12.509 5.308 5.231 12.385 5.231Z"/></svg>