<svg xmlns="http://www.w3.org/2000/svg" height="24" viewBox="0 -960 960 960" width="24"><path d="M152.002-815.691v84.306l-81.386-81.386q-8.307-8.307-8.5-20.884-.192-12.576 8.5-21.269 8.693-8.692 21.077-8.692 12.384 0 21.076 8.692l727.538 727.538q8.308 8.308 8.5 20.884.192 12.577-8.5 21.27-8.692 8.691-21.076 8.691-12.385 0-21.077-8.692L623.386-260h-83.387v80h50q12.769 0 21.384 8.615 8.616 8.615 8.616 21.384t-8.616 21.384q-8.615 8.615-21.384 8.615H370.001q-12.769 0-21.384-8.615-8.616-8.615-8.616-21.384t8.616-21.384q8.615-8.615 21.384-8.615h50v-80H172.309q-30.308 0-51.308-21t-21-51.308v-415.382q0-32.769 21-50.385 21-17.615 31.001-17.615Zm707.997 68v438.997q0 12.462-6.423 20.693-6.424 8.23-16.27 12.461t-19.884 2.923q-10.038-1.308-18.885-10.154L322.771-758.537q-8.846-8.847-10.154-18.885-1.308-10.038 2.923-19.884t12.461-16.27q8.231-6.423 20.693-6.423h438.997q30.308 0 51.308 21t21 51.308Z"/></svg>