<svg xmlns="http://www.w3.org/2000/svg" height="24" viewBox="0 -960 960 960" width="24"><path d="m480-244.001-83.308 83.308q-8.308 8.307-20.692 8.115-12.384-.192-20.692-8.5-8.307-8.307-8.307-20.884t8.307-20.884l82.924-82.924-83.308-83.308q-8.308-8.307-8.116-20.884.193-12.577 8.5-20.884 8.308-8.308 20.884-8.308 12.577 0 20.884 8.308L480-327.538l83.308-83.308q8.308-8.308 20.884-8.308 12.577 0 20.884 8.308 8.308 8.307 8.308 20.884t-8.308 20.884l-83.308 83.308 83.308 83.309q8.308 8.307 8.308 20.691 0 12.385-8.308 20.692-8.307 8.308-20.884 8.308-12.576 0-20.884-8.308L480-244.001ZM312.461-644.616l15.846 47.309q1.539 3.846 4.616 5.961 3.077 2.116 6.923 2.116h280.308q3.846 0 6.923-2.116 3.077-2.115 4.616-5.961l15.846-47.309H312.461Zm27.385 115.385q-23.307 0-42.192-13.577-18.884-13.577-26.499-35.885l-21.924-65.923h-36.922q-29.923 0-51.115-21.192-21.193-21.192-21.193-51.115v-42.308q0-25.307 17.731-43.037 17.73-17.731 43.037-17.731h558.462q25.307 0 43.037 17.731 17.731 17.73 17.731 43.037v42.308q0 29.923-21.193 51.115-21.192 21.192-51.115 21.192h-36.922l-26.385 68.385q-8.231 20.692-26.308 33.846-18.076 13.154-40.769 13.154H339.846Z"/></svg>