<svg xmlns="http://www.w3.org/2000/svg" height="24" viewBox="0 -960 960 960" width="24"><path d="m312.461-644.616 15.846 47.309q1.539 3.846 4.616 5.961 3.077 2.116 6.923 2.116h280.308q3.846 0 6.923-2.116 3.077-2.115 4.616-5.961l15.846-47.309H312.461Zm27.385 115.385q-23.307 0-42.192-13.577-18.884-13.577-26.499-35.885l-21.924-65.923h-36.922q-29.923 0-51.115-21.192-21.193-21.192-21.193-51.115v-42.308q0-25.307 17.731-43.037 17.73-17.731 43.037-17.731h558.462q25.307 0 43.037 17.731 17.731 17.73 17.731 43.037v42.308q0 29.923-21.193 51.115-21.192 21.192-51.115 21.192h-36.922l-26.385 68.385q-8.231 20.692-26.308 33.846-18.076 13.154-40.769 13.154H339.846ZM480-140.001q-82.23 0-157.73-29.923-75.5-29.923-135.576-86.769-4.231-3.846-6.962-9.923t-2.731-12.538q0-12.769 8.923-21.384t21.692-8.615q6.077 0 11.654 2.231 5.576 2.23 9.423 6.692 51.384 48.692 116.423 74.461Q410.154-200 481-200q70.461 0 135.192-25.269 64.731-25.269 116.115-73.577 3.847-3.846 9.423-6.384 5.577-2.539 11.654-2.539 12.769 0 21.384 8.616 8.615 8.615 8.615 21.384 0 6.461-2.731 12.038-2.73 5.577-6.961 9.423-60.692 56.845-136.076 86.576Q562.23-140.001 480-140.001Zm0-155.385q-51 0-97.769-18.5Q335.463-332.385 297.77-367q-4.23-3.846-7.153-9.616-2.923-5.769-2.923-12.23 0-12.769 8.615-21.384t21.384-8.615q6.077 0 11.653 2.538 5.577 2.538 9.423 6.385 29.385 27.076 65.885 40.807 36.5 13.731 75.731 13.731 39.23 0 75.538-13.731t65.692-40.807q3.846-3.847 9.423-6.385t11.654-2.538q12.769 0 21.384 8.615t8.615 21.384q0 6.461-2.923 12.23-2.923 5.77-7.154 9.616-38.077 34.999-84.653 53.307-46.577 18.307-97.961 18.307Z"/></svg>