<svg xmlns="http://www.w3.org/2000/svg" height="24" viewBox="0 -960 960 960" width="24"><path d="m260.153-480 104.923 104.924q8.923 8.922 8.808 20.884-.115 11.961-8.808 21.268-9.307 9.308-21.384 9.616-12.076.307-21.384-9L199.924-454.693Q189.078-465.539 189.078-480q0-14.461 10.846-25.307l122.384-122.385q8.923-8.923 21.192-8.807 12.269.115 21.576 9.423 8.693 9.307 9 21.076.308 11.769-9 21.076L260.153-480Zm32.156 419.998q-30.308 0-51.308-21-21-20.999-21-51.307v-117.692q0-12.769 8.616-21.384Q237.232-280 250.001-280t21.384 8.615Q280-262.77 280-250.001v20.002h400v-20.002q0-12.769 8.615-21.384T709.999-280q12.769 0 21.384 8.615 8.616 8.615 8.616 21.384v117.692q0 30.308-21 51.308t-51.308 21H292.309Zm0-839.997h375.382q30.308 0 51.308 21t21 51.308v117.692q0 12.769-8.616 21.384Q722.768-680 709.999-680t-21.384-8.615Q680-697.23 680-709.999v-20.002H280v20.002q0 12.769-8.615 21.384T250.001-680q-12.769 0-21.384-8.615-8.616-8.615-8.616-21.384v-117.692q0-30.308 21-51.308t51.308-21ZM699.847-480 594.924-584.924q-8.923-8.922-8.808-20.884.115-11.961 8.808-21.268 9.307-9.308 21.384-9.616 12.076-.307 21.384 9l122.384 122.385q10.846 10.846 10.846 25.307 0 14.461-10.846 25.307L637.692-332.308q-8.923 8.923-21.192 8.807-12.269-.115-21.576-9.423-8.693-9.307-9-21.076-.308-11.769 9-21.076L699.847-480Z"/></svg>