<svg xmlns="http://www.w3.org/2000/svg" height="24" viewBox="0 -960 960 960" width="24"><path d="M688.461-240q59.154 0 100.731-41.577 41.577-41.577 41.577-100.731 0-59.154-41.577-100.731-41.577-41.577-100.731-41.577-59.154 0-100.731 41.577-41.577 41.577-41.577 100.731 0 59.154 41.577 100.731Q629.307-240 688.461-240Zm-507.69 139.999q-29.827 0-51.067-21.241-21.24-21.24-21.24-51.067v-615.382q0-29.827 21.24-51.067 21.24-21.241 51.067-21.241h295.383q29.826 0 51.066 21.241 21.241 21.24 21.241 51.067v143.846q0 12.586-8.629 21.1-8.629 8.514-21.384 8.514t-21.371-8.624q-8.615-8.625-8.615-21.375v-45.771h-320v420.002h217.539q16.692 0 29.961 9.153 13.269 9.154 21.269 23.846 13.077 24.231 31.423 45.038 18.346 20.807 40.345 37.346 6.231 4.562 9.539 11.143 3.307 6.58 3.307 13.881 0 14.283-12.742 21.937-12.742 7.654-28.719 7.654H180.771Zm417.69-36.154v-64.769q-52.153-25.692-82.23-74.346-30.077-48.654-30.077-107.038 0-58.384 30.077-107.038 30.077-48.653 82.23-74.345v-64.77q0-15.365 10.351-25.759 10.35-10.394 25.651-10.394h108.004q15.301 0 25.647 10.394 10.346 10.394 10.346 25.759v64.77q52.154 25.692 82.23 74.345 30.077 48.654 30.077 107.038 0 58.384-30.077 107.038-30.076 48.654-82.23 74.346v64.769q0 15.365-10.35 25.759-10.351 10.395-25.652 10.395H634.454q-15.3 0-25.647-10.395-10.346-10.394-10.346-25.759Z"/></svg>