<svg xmlns="http://www.w3.org/2000/svg" height="24" viewBox="0 -960 960 960" width="24"><path d="M560-610.001q-12.75 0-21.375-8.628-8.624-8.629-8.624-21.384 0-12.756 8.624-21.371 8.625-8.615 21.375-8.615h90.001V-800q0-12.75 8.628-21.375 8.629-8.624 21.384-8.624 12.756 0 21.371 8.624 8.615 8.625 8.615 21.375v130.001H800q12.75 0 21.375 8.628 8.624 8.629 8.624 21.384 0 12.756-8.624 21.371-8.625 8.615-21.375 8.615H560Zm119.987 480q-12.756 0-21.371-8.625-8.615-8.624-8.615-21.374v-320q0-12.75 8.628-21.374 8.629-8.625 21.384-8.625 12.756 0 21.371 8.625 8.615 8.624 8.615 21.374v320q0 12.75-8.628 21.374-8.629 8.625-21.384 8.625Zm-400 0q-12.756 0-21.371-8.625-8.615-8.624-8.615-21.374v-130.001H160q-12.75 0-21.374-8.628-8.625-8.629-8.625-21.384 0-12.756 8.625-21.371 8.624-8.615 21.374-8.615h240q12.75 0 21.374 8.628 8.625 8.629 8.625 21.384 0 12.756-8.625 21.371-8.624 8.615-21.374 8.615h-90.001V-160q0 12.75-8.628 21.374-8.629 8.625-21.384 8.625Zm0-320q-12.756 0-21.371-8.625-8.615-8.624-8.615-21.374v-320q0-12.75 8.628-21.375 8.629-8.624 21.384-8.624 12.756 0 21.371 8.624 8.615 8.625 8.615 21.375v320q0 12.75-8.628 21.374-8.629 8.625-21.384 8.625Z"/></svg>