<svg xmlns="http://www.w3.org/2000/svg" height="24" viewBox="0 -960 960 960" width="24"><path d="M455.847-480 296.616-702.77q-10.538-14.999-2.538-31.114 8-16.115 26.534-16.115 7.413 0 14.085 3.38 6.673 3.38 10.379 9.389L529.23-480 345.076-222.77q-3.717 6.009-10.41 9.389-6.692 3.38-14.127 3.38-17.846 0-26.154-16.115-8.307-16.115 2.231-31.114L455.847-480Zm234.923 0L531.539-702.77q-10.538-14.999-2.538-31.114 7.999-16.115 26.533-16.115 7.414 0 14.086 3.38 6.672 3.38 10.379 9.389L764.153-480 579.999-222.77q-3.718 6.009-10.41 9.389-6.692 3.38-14.128 3.38-17.845 0-26.153-16.115-8.307-16.115 2.231-31.114L690.77-480Z"/></svg>