<svg xmlns="http://www.w3.org/2000/svg" height="24" viewBox="0 -960 960 960" width="24"><path d="m382-421.691 337.231-337.231q8.923-8.923 21.191-9.115 12.269-.193 21.577 9.115 9.307 9.307 9.307 21.384t-9.307 21.384L407.307-361.463Q396.461-350.616 382-350.616q-14.461 0-25.307-10.847L198.001-520.154q-8.923-8.923-8.807-21.192.115-12.269 9.422-21.576 9.308-9.308 21.385-9.308 12.076 0 21.384 9.308L382-421.691Zm-131.999 241.69q-12.769 0-21.384-8.616-8.616-8.615-8.616-21.384t8.616-21.384Q237.232-240 250.001-240h459.998q12.769 0 21.384 8.615 8.616 8.615 8.616 21.384t-8.616 21.384q-8.615 8.616-21.384 8.616H250.001Z"/></svg>