<svg xmlns="http://www.w3.org/2000/svg" height="24" viewBox="0 -960 960 960" width="24"><path d="M320-290.001h320q12.75 0 21.375-8.628 8.624-8.629 8.624-21.384 0-12.756-8.624-21.371-8.625-8.615-21.375-8.615H320q-12.75 0-21.374 8.628-8.625 8.629-8.625 21.384 0 12.756 8.625 21.371 8.624 8.615 21.374 8.615Zm130.001-239.382-52.925-52.309q-8.307-8.307-20.576-8.5-12.269-.192-21.66 9.199-8.609 8.609-8.609 20.993 0 12.384 8.693 21.076l99.769 99.769q10.846 10.846 25.307 10.846 14.461 0 25.307-10.846l99.769-99.769q8.308-8.307 8.808-20.576t-8.891-21.66q-8.609-8.609-20.685-8.916-12.077-.308-21.384 8.384l-52.925 52.309V-680q0-12.75-8.628-21.375-8.629-8.624-21.384-8.624-12.756 0-21.371 8.624-8.615 8.625-8.615 21.375v150.617Zm30.066 429.382q-78.836 0-148.204-29.92-69.369-29.92-120.682-81.21-51.314-51.291-81.247-120.629-29.933-69.337-29.933-148.173t29.92-148.204q29.92-69.369 81.21-120.682 51.291-51.314 120.629-81.247 69.337-29.933 148.173-29.933t148.204 29.92q69.369 29.92 120.682 81.21 51.314 51.291 81.247 120.629 29.933 69.337 29.933 148.173t-29.92 148.204q-29.92 69.369-81.21 120.682-51.291 51.314-120.629 81.247-69.337 29.933-148.173 29.933Z"/></svg>