<svg xmlns="http://www.w3.org/2000/svg" height="24" viewBox="0 -960 960 960" width="24"><path d="M517.154-874.46 831.23-687.076q13.384 8.692 21.076 22.884Q859.999-650 859.999-634v421.691q0 30.308-21 51.308t-51.308 21H172.309q-30.308 0-51.308-21t-21-51.308V-634q0-16 7.693-30.192 7.692-14.192 21.076-22.884L442.846-874.46q17.077-9.846 37.154-9.846t37.154 9.846Zm-31 416.614L792-640 486.154-822.154q-3.077-1.923-6.154-1.923t-6.154 1.923L168-640l305.846 182.154q3.077 1.923 6.154 1.923t6.154-1.923Z"/></svg>