<svg xmlns="http://www.w3.org/2000/svg" height="24" viewBox="0 -960 960 960" width="24"><path d="M480-259.617q-67.154 0-122.807-36.731-55.654-36.73-80.807-99.422-4.462-10.539.577-21.077 5.038-10.538 16.192-14.999 11.538-5.077 23.614.077 12.077 5.153 17.769 17.922Q354-371 393.346-345.308q39.346 25.693 86.654 25.693 66 0 113-47t47-113q0-47.693-26-86.731-26-39.039-69.231-58.5-12.154-5.693-16.808-17.961-4.654-12.269.423-23.423 5.077-11.154 15.115-16t20.577-.384q61.461 25.153 98.692 80.807 37.231 55.653 37.231 122.192 0 91.537-64.231 155.768-64.23 64.23-155.768 64.23Zm0 160q-152.615 0-263.23-104.884Q106.155-309.386 99.386-460.385q-.615-12.154 7.577-21.077 8.192-8.923 20.961-9.538 12.769-.615 22.615 8 9.846 8.615 11.076 21.999 9.846 125.154 102.885 213.27 93.038 88.116 215.5 88.116 134 0 227-93t93-227q0-128.078-87.039-219.924t-214.962-98.846q-13.384-1.23-21.999-10.961-8.615-9.73-8-22.499.615-12.769 9.538-21.077 8.923-8.307 21.077-7.692 75.307 3.077 141.076 34.577 65.769 31.5 114.615 83.307 48.846 51.808 77.27 119.615 28.423 67.808 28.423 143.5 0 78.769-29.962 148.114-29.961 69.346-81.269 120.654-51.307 51.307-120.653 81.269Q558.769-99.617 480-99.617Zm-72.614-394.229L255.77-645.232l-25.385 77.153q-4.615 12.846-17.461 12.538-12.846-.307-17.077-13.153l-74.46-247.996q-3.231-10.462 4.5-18.192 7.731-7.731 18.192-4.5l247.996 74.46q12.846 4.231 13.154 17.077.307 12.846-12.539 17.461L315.537-705l152.002 151.617q12.769 12.769 12.769 29.769 0 16.999-12.769 29.768-12.769 12.769-30.076 12.769-17.308 0-30.077-12.769Z"/></svg>