<svg xmlns="http://www.w3.org/2000/svg" height="24" viewBox="0 -960 960 960" width="24"><path d="M450-100.001q-35.693 0-71.116-8.847-35.423-8.846-70.423-25.923 16.616-108.692 70.769-203.114 54.154-94.422 137.076-166.729-98.46 53.307-170.69 137.614-72.231 84.307-99.615 191.922-4.385-3.385-8.077-6.885t-8.077-7.884q-43.538-44.308-66.692-98.846Q140.001-343.231 140.001-402q0-64.154 25.27-122.499 25.269-58.346 70.576-103.654 66.154-66.153 163.307-92.23 97.153-26.077 268.153-19.616 23.692 1 43.769 10.347 20.077 9.346 35.538 24.807 15.462 15.461 24.5 35.654 9.038 20.192 10.654 43.884 5.615 170.768-20.231 267.345-25.846 96.577-91.384 162.115-45.538 46.307-102.577 71.076-57.038 24.77-117.576 24.77Z"/></svg>