<svg xmlns="http://www.w3.org/2000/svg" height="24" viewBox="0 -960 960 960" width="24"><path d="M200.174-290.001q-80.824 0-135.498-54.625Q10-399.25 10-480q0-80 55.575-135.384Q121.15-670.769 200-670.769q72.769 0 124.692 46.193 51.923 46.192 62.846 114.577h48.309l-78.923-220.002H320q-12.75 0-21.374-8.628-8.625-8.629-8.625-21.384 0-12.756 8.625-21.371 8.624-8.615 21.374-8.615h120q12.75 0 21.374 8.628 8.625 8.629 8.625 21.384 0 12.756-8.625 21.371-8.624 8.615-21.374 8.615h-18.616l20.923 59.232h214.309l-62.615-172.308q-1.154-3.462-3.847-5.193-2.692-1.731-6.154-1.731h-64q-12.75 0-21.374-8.628-8.625-8.629-8.625-21.384 0-12.756 8.625-21.371 8.624-8.615 21.374-8.615h64q22.538 0 40.673 12.343 18.134 12.343 26.096 33.502l70.307 192.155H760q78.85 0 134.424 55.575Q949.999-560.85 949.999-482q0 79.521-55.307 135.376Q839.384-290.77 760-290.77q-70.461 0-122.846-45.192-52.384-45.193-64.692-114.039H387.538q-10.923 69-63.961 114.5-53.039 45.5-123.403 45.5Zm124.904-160v-59.998H240q-12.75 0-21.374 8.628-8.625 8.629-8.625 21.384 0 12.756 8.625 21.371 8.624 8.615 21.374 8.615h85.078Zm175.998-59.998h71.386q4.231-25.308 16.962-53.963 12.731-28.654 35.962-46.808H463.384l37.692 100.771Zm186.309-77.387 28.231 79.924q3.771 11.897 15.462 17.102 11.691 5.205 23.46.744 11.769-4.462 17.038-15.807 5.269-11.346.808-23.115l-30.231-79.924-54.768 21.076ZM516.923-121.539v45.693q0 9.896-8.539 15.294-8.538 5.398-17.886.711L328.77-141.385q-6.231-3.615-4.888-10.346 1.343-6.73 8.503-6.73h109.923v-45.693q0-9.896 8.538-15.294 8.539-5.398 17.887-.711l161.728 81.544q6.23 3.615 4.888 10.346-1.343 6.73-8.504 6.73H516.923Z"/></svg>