<svg xmlns="http://www.w3.org/2000/svg" height="24" viewBox="0 -960 960 960" width="24"><path d="M244.602-509.999q-12.755 0-21.37 8.625-8.616 8.624-8.616 21.374v200q0 12.75 8.629 21.374 8.629 8.625 21.384 8.625 12.756 0 21.371-8.625 8.615-8.624 8.615-21.374v-200q0-12.75-8.629-21.374-8.628-8.625-21.384-8.625Zm155.385-120q-12.756 0-21.371 8.624-8.615 8.625-8.615 21.375v320q0 12.75 8.628 21.374 8.629 8.625 21.384 8.625 12.756 0 21.371-8.625 8.615-8.624 8.615-21.374v-320q0-12.75-8.628-21.375-8.629-8.624-21.384-8.624Zm155.384 240q-12.756 0-21.371 8.625-8.615 8.624-8.615 21.374v80q0 12.75 8.629 21.374 8.628 8.625 21.384 8.625 12.755 0 21.37-8.625 8.616-8.624 8.616-21.374v-80q0-12.75-8.629-21.374-8.629-8.625-21.384-8.625ZM720-490.001q-30.769 0-59.769-9.692t-54-28l-21.155 19.385q-9.307 8.307-21.576 8.5-12.269.192-20.576-8.116-8.693-8.692-8.693-21.076t8.693-21.076l21.769-21.385q-16.384-24.385-25.538-51.76-9.154-27.376-9.154-56.779 0-78.85 55.575-134.424Q641.15-869.999 720-869.999h153.846q15.365 0 25.759 10.394t10.394 25.759V-680q0 78.85-55.575 134.424Q798.85-490.001 720-490.001Zm42.993-238.159q-8.609-8.609-20.993-8.609-12.384 0-21.076 8.693l-71.386 71.385q-9.308 9.308-9 21.269.308 11.961 9 21.269 9.307 8.923 21.076 9.423t21.077-8.808l71.385-71.386q9.308-9.307 9.308-21.576t-9.391-21.66ZM132.309-100.001q-29.827 0-51.067-21.241-21.24-21.24-21.24-51.067v-535.382q0-29.827 21.24-51.067 21.24-21.241 51.067-21.241h281.538q15.365 0 25.76 10.395 10.394 10.394 10.394 25.759v261.537q0 29.827 21.24 51.067t51.067 21.24h181.409q15.42 0 25.851 10.394 10.431 10.395 10.431 25.76v201.538q0 29.827-21.241 51.067-21.24 21.241-51.067 21.241H132.309Z"/></svg>