<svg xmlns="http://www.w3.org/2000/svg" height="24" viewBox="0 -960 960 960" width="24"><path d="M448.231-101.232q-68.461 0-128.499-30.769-60.039-30.769-108.5-79.231-53.923-53.923-82.577-123.461Q100.001-404.231 100.001-480q0-78.769 29.962-148.115 29.961-69.346 81.269-120.653 51.307-51.308 120.653-81.269Q401.231-859.999 480-859.999q150.23 0 257.807 99.77 107.577 99.769 120.345 247.153 1.231 13.384-7.384 23.23T828.769-480q-11.539 0-20.154-7.384-8.615-7.385-9.846-18.923-3.846-33.231-10.846-61.078-7-27.846-23.693-58.77L421.615-284.154q14.923 19.461 32.308 35.654 17.384 16.193 37.846 30.731 16.923 12.923 22.769 32.692t-1.231 39.922q-7.461 22.308-25.384 33.115-17.923 10.808-39.692 10.808Zm-58.846-234.613L731-677.846q-12.923-15.846-26.808-30.039-13.885-14.192-30.346-26.115l-313.77 314.384q4.385 22.231 11.501 42.962 7.115 20.732 17.808 40.809Zm-33.309-165.307L621.155-766.23l-20.847-10.347q-10.154-5.038-21.616-8.192-94.077 29.538-155.501 106.731-61.423 77.193-67.115 176.886Zm353.923 391.919q-12.769 0-21.384-8.615T680-139.232v-90.001h-90.001q-12.769 0-21.384-8.615T560-259.232q0-12.769 8.615-21.384t21.384-8.615H680v-90.001q0-12.769 8.615-21.384t21.384-8.615q12.769 0 21.384 8.615 8.616 8.615 8.616 21.384v90.001h90q12.769 0 21.384 8.615 8.616 8.615 8.616 21.384t-8.616 21.384q-8.615 8.615-21.384 8.615h-90v90.001q0 12.769-8.616 21.384-8.615 8.615-21.384 8.615Z"/></svg>