<svg xmlns="http://www.w3.org/2000/svg" height="24" viewBox="0 -960 960 960" width="24"><path d="M212.309-140.001q-30.308 0-51.308-21t-21-51.308v-112.307q0-12.769 8.616-21.384 8.615-8.615 21.384-8.615T191.385-346Q200-337.385 200-324.616v112.307q0 4.616 3.846 8.463 3.847 3.846 8.463 3.846h535.382q4.616 0 8.463-3.846 3.846-3.847 3.846-8.463v-535.382q0-4.616-3.846-8.463-3.847-3.846-8.463-3.846H212.309q-4.616 0-8.463 3.846-3.846 3.847-3.846 8.463v112.307q0 12.769-8.615 21.384t-21.384 8.615q-12.769 0-21.384-8.615-8.616-8.615-8.616-21.384v-112.307q0-30.308 21-51.308t51.308-21h535.382q30.308 0 51.308 21t21 51.308v535.382q0 30.308-21 51.308t-51.308 21H212.309Zm277.539-310H170.001q-12.769 0-21.384-8.615-8.616-8.615-8.616-21.384t8.616-21.384q8.615-8.615 21.384-8.615h319.847L405.847-594q-8.923-8.923-8.807-20.884.115-11.961 8.807-21.269 9.308-9.307 21.384-9.615 12.077-.308 21.384 9l131.461 131.461q5.615 5.615 7.923 11.846 2.308 6.23 2.308 13.461t-2.308 13.461q-2.308 6.231-7.923 11.846L448.615-323.232q-8.922 8.923-21.191 8.808-12.269-.116-21.577-9.423-8.692-9.308-9-21.077-.307-11.769 9-21.076l84.001-84.001Z"/></svg>