<svg xmlns="http://www.w3.org/2000/svg" height="24" viewBox="0 -960 960 960" width="24"><path d="M480-100.001q-78.769 0-148.115-29.962-69.346-29.961-120.653-81.269-51.308-51.307-81.269-120.653Q100.001-401.231 100.001-480q0-61.923 18.924-118 18.923-56.077 53.615-103.923l-69.154-69.155q-8.923-8.922-9.115-21.191-.192-12.269 9.115-21.577 9.308-9.307 21.384-9.307 12.077 0 21.384 9.307l667.692 667.692q8.923 8.923 9.115 20.884.192 11.961-9.115 21.269-9.308 9.307-21.384 9.307-12.077 0-21.384-9.307l-69.155-68.539Q654.077-137.848 598-118.925q-56.077 18.924-118 18.924Zm11.231-283.231-109.23-109.23-99.538 189.615q-5.385 10.384 2.307 18.077 7.693 7.692 18.077 2.307l188.384-100.769ZM480-859.999q78.769 0 148.115 29.962 69.346 29.961 120.653 81.269 51.308 51.307 81.269 120.653Q859.999-558.769 859.999-480q0 39.307-7.923 77.692-7.924 38.384-23.77 74.461-5.615 12.846-15.961 18.769-10.346 5.923-23.192 5.923-9.231 0-17.269-3.115-8.039-3.115-15.269-10.346l-151-151q-8.616-8.615-10.039-20.462-1.423-11.846 4.193-22.076l77.768-146.999q5.385-10-2.307-17.692-7.693-7.692-18.077-2.692l-146.999 77.768q-10.23 5.616-22.076 4.193-11.847-1.423-20.462-10.039l-151-151q-6.846-6.846-10.154-14.769-3.307-7.923-3.307-16.769 0-12.846 6.23-23.384 6.231-10.539 18.462-16.769 36.077-15.846 74.461-23.77 38.385-7.923 77.692-7.923Z"/></svg>