<svg xmlns="http://www.w3.org/2000/svg" height="24" viewBox="0 -960 960 960" width="24"><path d="M499.999-429.999v-87.693q0-5.385 3.461-8.847 3.462-3.462 8.847-3.462h75.384q30.308 0 51.308-21 21-20.999 21-51.307v-75.384q0-30.308-21-51.307-21-21-51.308-21H469.999q-12.769 0-21.384 8.615T440-720q0 12.769 8.615 21.384t21.384 8.615h117.692q5.385 0 8.847 3.462 3.462 3.462 3.462 8.847v75.384q0 5.385-3.462 8.847-3.462 3.462-8.847 3.462h-75.384q-30.307 0-51.307 21-21 20.999-21 51.307v111.538q0 15.461 10.346 25.807 10.346 10.346 25.808 10.346h153.845q12.769 0 21.384-8.615 8.616-8.615 8.616-21.384t-8.616-21.384q-8.615-8.615-21.384-8.615h-130ZM322.308-260.001q-30.308 0-51.307-21-21-21-21-51.308v-455.382q0-30.308 21-51.308 20.999-21 51.307-21h455.383q30.307 0 51.307 21 21 21 21 51.308v455.382q0 30.308-21 51.308t-51.307 21H322.308ZM182.309-120.003q-30.307 0-51.307-21-21-21-21-51.307v-485.382q0-12.769 8.615-21.384 8.616-8.615 21.384-8.615 12.769 0 21.385 8.615 8.615 8.615 8.615 21.384v485.382q0 4.616 3.846 8.462 3.847 3.847 8.462 3.847h485.382q12.769 0 21.385 8.615 8.615 8.615 8.615 21.384t-8.615 21.384q-8.616 8.615-21.385 8.615H182.309Z"/></svg>