<svg xmlns="http://www.w3.org/2000/svg" height="24" viewBox="0 -960 960 960" width="24"><path d="M140.001-172.309v-615.382q0-13.731 9.289-23.019 9.288-9.289 23.019-9.289 13.73 0 23.018 9.289 9.289 9.288 9.289 23.019v615.382q0 13.731-9.289 23.019-9.288 9.289-23.018 9.289-13.731 0-23.019-9.289-9.289-9.288-9.289-23.019Zm615.383 0v-615.382q0-13.731 9.289-23.019 9.288-9.289 23.018-9.289 13.731 0 23.019 9.289 9.289 9.288 9.289 23.019v615.382q0 13.731-9.289 23.019-9.288 9.289-23.019 9.289-13.73 0-23.018-9.289-9.289-9.288-9.289-23.019ZM480-447.693q-13.731 0-23.019-9.288-9.288-9.288-9.288-23.019 0-13.731 9.288-23.019 9.288-9.288 23.019-9.288 13.731 0 23.019 9.288 9.288 9.288 9.288 23.019 0 13.731-9.288 23.019-9.288 9.288-23.019 9.288Zm-153.846 0q-13.73 0-23.019-9.288-9.288-9.288-9.288-23.019 0-13.731 9.288-23.019 9.289-9.288 23.019-9.288 13.731 0 23.019 9.288 9.288 9.288 9.288 23.019 0 13.731-9.288 23.019-9.288 9.288-23.019 9.288Zm307.692 0q-13.731 0-23.019-9.288-9.288-9.288-9.288-23.019 0-13.731 9.288-23.019 9.288-9.288 23.019-9.288 13.73 0 23.019 9.288 9.288 9.288 9.288 23.019 0 13.731-9.288 23.019-9.289 9.288-23.019 9.288Z"/></svg>