<svg xmlns="http://www.w3.org/2000/svg" height="24" viewBox="0 -960 960 960" width="24"><path d="M172.309-180.001q-30.308 0-51.308-21t-21-51.308v-455.382q0-30.308 21-51.308t51.308-21H362q14.461 0 27.807 5.616 13.346 5.615 23.192 15.461l58.923 58.923h315.769q30.308 0 51.308 21t21 51.308v62.537q0 16.461-13.77 24.692-13.769 8.231-29.23 1.385-24.077-10.462-50.769-15.692Q739.538-560 712.846-560q-114.923 0-192.154 80.192-77.23 80.192-77.23 189.577 0 17.461 2.115 34.422 2.116 16.962 6.731 33.423 4.231 16.462-4.808 29.423-9.038 12.962-24.5 12.962H172.309Zm425.383 0q-12.769 0-21.384-8.616-8.615-8.615-8.615-21.384 0-27.923 39.384-48.961T713.846-280q67.384 0 106.768 21.038 39.385 21.038 39.385 48.961 0 12.769-8.616 21.384-8.615 8.616-21.384 8.616H597.692Zm116.154-152.308q-29.154 0-49.577-20.422-20.423-20.423-20.423-49.577 0-29.153 20.423-49.576 20.423-20.423 49.577-20.423 29.153 0 49.576 20.423 20.423 20.423 20.423 49.576 0 29.154-20.423 49.577-20.423 20.422-49.576 20.422Z"/></svg>