<svg xmlns="http://www.w3.org/2000/svg" height="24" viewBox="0 -960 960 960" width="24"><path d="M416.911-180.001q-12.756 0-21.371-8.625-8.615-8.625-8.615-21.375v-210h-3.846q-74.923 0-127.461-52.538Q203.08-525.078 203.08-600t52.538-127.461q52.538-52.538 127.461-52.538h278.458q12.75 0 21.375 8.629 8.624 8.629 8.624 21.384 0 12.756-8.624 21.371Q674.287-720 661.537-720h-50.001v509.999q0 12.75-8.628 21.375-8.629 8.625-21.384 8.625-12.756 0-21.371-8.625-8.615-8.625-8.615-21.375V-720H446.924v509.999q0 12.75-8.629 21.375t-21.384 8.625Z"/></svg>