<svg xmlns="http://www.w3.org/2000/svg" height="24" viewBox="0 -960 960 960" width="24"><path d="M149.987-290.001q-12.755 0-21.37-8.625-8.616-8.624-8.616-21.374v-320q0-12.75 8.629-21.375 8.629-8.624 21.384-8.624 12.756 0 21.371 8.624Q180-652.75 180-640v130.001h180.001V-640q0-12.75 8.629-21.375 8.629-8.624 21.384-8.624 12.756 0 21.371 8.624Q420-652.75 420-640v320q0 12.75-8.629 21.374-8.628 8.625-21.384 8.625-12.755 0-21.37-8.625-8.616-8.624-8.616-21.374v-130.001H180V-320q0 12.75-8.629 21.374-8.628 8.625-21.384 8.625Zm579.999 0q-12.756 0-21.371-8.625Q700-307.25 700-320v-90.001H536.154q-15.366 0-25.76-10.394Q500-430.789 500-446.154V-640q0-12.75 8.629-21.375 8.628-8.624 21.384-8.624 12.755 0 21.37 8.624 8.616 8.625 8.616 21.375v170.001H700V-640q0-12.75 8.629-21.375 8.628-8.624 21.384-8.624 12.755 0 21.37 8.624 8.616 8.625 8.616 21.375v170.001h50q12.75 0 21.375 8.628 8.625 8.629 8.625 21.384 0 12.756-8.625 21.371-8.625 8.615-21.375 8.615h-50V-320q0 12.75-8.629 21.374-8.629 8.625-21.384 8.625Z"/></svg>