<svg xmlns="http://www.w3.org/2000/svg" height="24" viewBox="0 -960 960 960" width="24"><path d="M480-100.001q-70.769 0-132.615-26.77-61.846-26.769-107.846-72.768-45.999-46-72.768-107.846-26.77-61.846-26.77-132.615t26.77-132.615q26.769-61.846 72.768-107.846 46-45.999 107.846-72.768 61.846-26.77 132.615-26.77h10.616l-43.232-43.231q-9.307-9.307-9-21.076.308-11.769 9-21.077 9.308-9.307 21.577-9.423 12.269-.115 21.191 8.808l90.692 90.307q10.846 10.846 10.846 25.307 0 14.462-10.846 25.308l-89.922 90.306q-9.308 9.308-21.384 9-12.077-.308-21.384-9.615-8.693-9.308-8.808-21.269-.115-11.961 8.808-20.884L490.616-720H480q-117 0-198.5 81.5T200-440q0 117 81.5 198.5T480-160q117 0 198.5-81.5T760-440q0-12.769 8.615-21.384t21.384-8.615q12.769 0 21.384 8.615 8.616 8.615 8.616 21.384 0 70.769-26.77 132.615-26.769 61.846-72.768 107.846-46 45.999-107.846 72.768-61.846 26.77-132.615 26.77Zm-57.692-226.153h-97.693q-10.308 0-17.077-6.769-6.769-6.77-6.769-17.077 0-10.307 6.769-17.077 6.769-6.769 17.077-6.769h83.847v-48.462h-53.847q-7.231 0-12.461-5.231-5.231-5.23-5.231-12.461t5.231-12.461q5.23-5.231 12.461-5.231h53.847v-48.462h-83.847q-10.308 0-17.077-6.769-6.769-6.77-6.769-17.077 0-10.307 6.769-17.077 6.769-6.769 17.077-6.769h97.693q14.692 0 24.269 9.577 9.577 9.577 9.577 24.269v160q0 14.692-9.577 24.269-9.577 9.577-24.269 9.577Zm121.538 0q-17 0-28.5-11.5t-11.5-28.5v-147.692q0-17 11.5-28.5t28.5-11.5h75.385q17 0 28.5 11.5t11.5 28.5v147.692q0 17-11.5 28.5t-28.5 11.5h-75.385Zm12.308-47.692h50.77q2.307 0 3.461-1.154t1.154-3.461v-123.078q0-2.307-1.154-3.461t-3.461-1.154h-50.77q-2.308 0-3.462 1.154-1.154 1.154-1.154 3.461v123.078q0 2.307 1.154 3.461t3.462 1.154Z"/></svg>