<svg xmlns="http://www.w3.org/2000/svg" height="24" viewBox="0 -960 960 960" width="24"><path d="M480.022-100.001q-70.791 0-132.637-26.77-61.846-26.769-107.846-72.768-45.999-46-72.768-107.824-26.77-61.824-26.77-132.615 0-70.791 26.77-132.637 26.769-61.846 72.768-107.846 46-45.999 107.831-72.768 61.831-26.77 132.63-26.77h10.616l-43.232-43.231q-9.307-9.307-9-21.076.308-11.769 8.917-21.077 9.391-9.307 21.66-9.423 12.269-.115 21.191 8.808l90.692 90.307q10.846 10.846 10.846 25.307 0 14.462-10.846 25.308l-89.922 90.306q-9.308 9.308-21.384 9-12.077-.308-21.468-9.615-8.609-9.308-8.724-21.269-.115-11.961 8.808-20.884L490.616-720H480q-117 0-198.5 81.5T200-440q0 117 81.5 198.5T480-160q117 0 198.5-81.5T760-440q0-12.75 8.629-21.374 8.628-8.625 21.384-8.625 12.755 0 21.37 8.625 8.616 8.624 8.616 21.374 0 70.799-26.77 132.63-26.769 61.831-72.768 107.831-46 45.999-107.824 72.768-61.824 26.77-132.615 26.77Zm-111.56-406.153h-33.846q-10.333 0-17.09-6.752-6.756-6.751-6.756-17.076t6.756-17.095q6.757-6.769 17.09-6.769h57.692q10.333 0 17.089 6.757 6.757 6.756 6.757 17.089v180q0 10.333-6.752 17.089-6.751 6.757-17.076 6.757-10.326 0-17.095-6.757-6.769-6.756-6.769-17.089v-156.154Zm135.384 180q-17 0-28.5-11.5t-11.5-28.5v-147.692q0-17 11.5-28.5t28.5-11.5h75.385q17 0 28.5 11.5t11.5 28.5v147.692q0 17-11.5 28.5t-28.5 11.5h-75.385Zm12.308-47.692h50.77q2.307 0 3.461-1.154t1.154-3.461v-123.078q0-2.307-1.154-3.461t-3.461-1.154h-50.77q-2.308 0-3.462 1.154-1.154 1.154-1.154 3.461v123.078q0 2.307 1.154 3.461t3.462 1.154Z"/></svg>