<svg xmlns="http://www.w3.org/2000/svg" height="24" viewBox="0 -960 960 960" width="24"><path d="M362.308-287.693q-30.308 0-51.307-21-21-21-21-51.307v-240q0-30.307 21-51.307 20.999-21 51.307-21h231.538q12.769 0 21.384 8.615t8.615 21.384q0 12.769-8.615 21.384t-21.384 8.615H362.308q-5.385 0-8.847 3.462-3.462 3.462-3.462 8.847v240q0 5.385 3.462 8.847 3.462 3.462 8.847 3.462h195.384q5.385 0 8.847-3.462 3.462-3.462 3.462-8.847v-90.001h-57.694q-12.769 0-21.384-8.615T482.308-480q0-12.769 8.615-21.384t21.384-8.615H600q12.769 0 21.384 8.615T629.999-480v120q0 30.307-21 51.307-20.999 21-51.307 21H362.308Z"/></svg>