<svg xmlns="http://www.w3.org/2000/svg" height="24" viewBox="0 -960 960 960" width="24"><path d="M373.91-180q-125.6 0-212.83-87.17-87.23-87.17-87.23-212.77 0-125.6 87.17-212.83Q248.19-780 373.79-780q125.6 0 212.83 87.17 87.23 87.17 87.23 212.77 0 125.6-87.17 212.83Q499.51-180 373.91-180ZM340-546.15V-380q0 14.38 9.72 24.12 9.71 9.73 24.07 9.73t24.13-9.73q9.77-9.74 9.77-24.12v-166.15h56.16q10.33 0 17.09-6.76 6.75-6.75 6.75-17.07 0-10.33-6.75-17.1-6.76-6.77-17.09-6.77h-180q-10.34 0-17.09 6.76-6.76 6.75-6.76 17.07 0 10.33 6.76 17.1 6.75 6.77 17.09 6.77H340Zm368.46-179.24-63.07-28.53q-9.31-3.83-9.31-13.76 0-9.94 9.31-13.78L708.46-810 737-873.08q3.82-9.3 13.76-9.3 9.93 0 13.78 9.3L793.08-810l63.07 28.54q9.31 3.82 9.31 13.75 0 9.94-9.31 13.79l-63.07 28.53-28.54 63.08q-3.82 9.31-13.76 9.31-9.93 0-13.78-9.31l-28.54-63.08Zm0 575.39-63.07-28.54q-9.31-3.82-9.31-13.75 0-9.94 9.31-13.79l63.07-28.53L737-297.69q3.82-9.31 13.76-9.31 9.93 0 13.78 9.31l28.54 63.08 63.07 28.53q9.31 3.83 9.31 13.76 0 9.94-9.31 13.78L793.08-150l-28.54 63.08q-3.82 9.3-13.76 9.3-9.93 0-13.78-9.3L708.46-150Z"/></svg>