<svg xmlns="http://www.w3.org/2000/svg" height="24" viewBox="0 -960 960 960" width="24"><path d="M206.154-170.001q-15.365 0-25.759-10.394t-10.394-25.759v-387.692q0-15.365 10.394-25.759t25.759-10.394h67.692q15.365 0 25.759 10.394t10.394 25.759v387.692q0 15.365-10.394 25.759t-25.759 10.394h-67.692Zm200 0q-15.365 0-25.759-10.394t-10.394-25.759v-187.692q0-15.365 10.394-25.759t25.759-10.394h67.692q15.365 0 25.759 10.394t10.394 25.759v187.692q0 15.365-10.394 25.759t-25.759 10.394h-67.692Zm280 0q-15.365 0-25.759-10.394t-10.394-25.759v-547.692q0-15.365 10.394-25.759t25.759-10.394h67.692q15.365 0 25.759 10.394t10.394 25.759v547.692q0 15.365-10.394 25.759t-25.759 10.394h-67.692Z"/></svg>