<svg xmlns="http://www.w3.org/2000/svg" height="24" viewBox="0 -960 960 960" width="24"><path d="M819.999-747.691v406.306q0 12.461-6.423 20.692-6.424 8.23-16.27 12.461t-19.884 2.923q-10.038-1.307-18.885-10.154L315.463-758.537q-8.847-8.847-10.154-18.885-1.308-10.038 2.923-19.884t12.461-16.27q8.231-6.423 20.692-6.423h406.306q30.308 0 51.308 21t21 51.308Zm-607.69 607.69q-30.308 0-51.308-21t-21-51.308v-523.384l-49.077-49.078q-8.308-8.307-8.5-20.884-.193-12.576 8.5-21.269 8.692-8.692 21.076-8.692t21.076 8.692l693.848 693.848q8.307 8.307 8.499 20.884.193 12.576-8.499 21.268-8.693 8.693-21.077 8.693-12.384 0-21.076-8.693L735.693-140H212.309Zm372.769-150-89-89-46.847 59.77-65.538-83.999q-5.615-6.846-14.269-6.846t-14.269 7.231l-63.076 83.921q-7.231 9.231-2 19.077 5.231 9.846 16.077 9.846h278.922Z"/></svg>