<svg xmlns="http://www.w3.org/2000/svg" height="24" viewBox="0 -960 960 960" width="24"><path d="M252.309-180.001q-29.923 0-51.115-21.193-21.193-21.192-21.193-51.115v-306.154L120-513.231q-9.923 7.307-22 5.884-12.076-1.423-19.768-11.961Q70.54-529.231 72.27-541q1.731-11.769 11.654-19.461L437-827.23q9.846-7.23 21-10.653t22.615-3.423q11.462 0 22.5 3.423Q514.154-834.46 524-827.23l293.999 222.077q16.308 12.077 8.346 30.999-7.961 18.923-27.884 15.923-24.077-1.846-48.846 2.231-24.769 4.077-49.615 14.077-62.308-25.308-123.885-12.423-61.576 12.885-109.576 60.885-48 48-60.885 109.384Q392.769-322.693 418.077-260q-4.846 12.538-8.269 24.884t-4.808 25.5q-1.769 12.076-10.5 20.845-8.73 8.77-21.192 8.77H252.309ZM700-77.309q-43.539 30.154-90.384 27.193-46.846-2.962-81.692-37.808t-37.808-81.884q-2.961-47.038 27.193-90.192-30.154-43.539-27.193-90.384 2.962-46.846 37.808-81.692t81.884-37.808q47.038-2.961 90.192 27.193 43.539-30.154 90.384-27.193 46.846 2.962 81.692 37.808t37.808 81.884q2.961 47.038-27.193 90.192 30.154 43.539 27.193 90.384-2.962 46.846-37.808 81.692-34.846 34.847-81.884 37.808Q743.154-47.155 700-77.31Zm0-141.922q17.154 0 28.961-11.808 11.808-11.807 11.808-28.961 0-17.154-11.808-28.961-11.807-11.808-28.961-11.808-17.154 0-28.961 11.808-11.808 11.807-11.808 28.961 0 17.154 11.808 28.961 11.807 11.808 28.961 11.808Z"/></svg>