<svg xmlns="http://www.w3.org/2000/svg" height="24" viewBox="0 -960 960 960" width="24"><path d="M129.987-100.001q-12.755 0-21.37-8.625-8.616-8.625-8.616-21.375v-699.998q0-12.75 8.629-21.375t21.384-8.625q12.756 0 21.371 8.625Q160-842.749 160-829.999v699.998q0 12.75-8.629 21.375-8.628 8.625-21.384 8.625Zm350.058-190q-20.814 0-35.429-14.583-14.615-14.583-14.615-35.416v-280q0-20.833 14.57-35.416 14.57-14.583 35.384-14.583t35.429 14.583q14.615 14.583 14.615 35.416v280q0 20.833-14.57 35.416-14.57 14.583-35.384 14.583Zm349.941 190q-12.756 0-21.371-8.625Q800-117.251 800-130.001v-699.998q0-12.75 8.629-21.375 8.628-8.625 21.384-8.625 12.755 0 21.37 8.625 8.616 8.625 8.616 21.375v699.998q0 12.75-8.629 21.375t-21.384 8.625Z"/></svg>