<svg xmlns="http://www.w3.org/2000/svg" height="24" viewBox="0 -960 960 960" width="24"><path d="M286.154-180.001q-29.826 0-51.067-21.241-21.24-21.24-21.24-51.067v-291.769L120-473.462q-10.538 7.307-22.307 6.192-11.769-1.115-19.461-11.654-7.692-10.538-6.27-22.307Q73.387-513 83.925-520.692L436-787.23q9.846-7.23 21.081-10.653T480-801.306q11.684 0 22.919 3.423Q514.154-794.46 524-787.23l122.924 92.693v-36.616q0-20.352 14.253-34.599 14.253-14.247 34.615-14.247 20.361 0 34.592 14.247 14.23 14.247 14.23 34.599v110.923l131.847 99.538q9.923 7.692 11.653 19.461 1.731 11.769-5.961 22.307-7.692 10.539-19.461 11.654-11.769 1.115-22.307-6.192l-93.848-70.616v291.769q0 29.827-21.24 51.067-21.24 21.241-51.067 21.241h-45.769q-29.827 0-51.067-21.241-21.24-21.24-21.24-51.067v-80q0-29.826-21.241-51.066-21.24-21.241-51.067-21.241h-7.692q-29.827 0-51.067 21.241-21.241 21.24-21.241 51.066v80q0 29.827-21.24 51.067-21.24 21.241-51.067 21.241h-45.385Zm117.692-379.384h152.308q0-30.076-22.847-49.422-22.846-19.347-53.307-19.347-30.461 0-53.307 19.312-22.847 19.312-22.847 49.457Z"/></svg>