<svg xmlns="http://www.w3.org/2000/svg" height="24" viewBox="0 -960 960 960" width="24"><path d="M120-90q-12.75 0-21.374-8.63Q90-107.257 90-120.012q0-12.756 8.624-21.371 8.625-8.615 21.375-8.615h130.001v-100.002h-47.693q-29.827 0-51.067-21.24t-21.24-51.067v-435.384q0-29.827 21.24-51.067t51.067-21.24h161.538q29.827 0 51.067 21.24 21.241 21.24 21.241 51.067v40H340q-7.077 0-12.384 5.307-5.308 5.308-5.308 12.385t5.308 12.385q5.307 5.307 12.384 5.307h98.538v44.616H340q-7.077 0-12.384 5.307-5.308 5.308-5.308 12.385t5.308 12.385q5.307 5.307 12.384 5.307h110.852q13.378 23 34.494 39 21.115 16 47.115 24l105 29q48.923 12.846 78.807 52.759 29.885 39.912 29.885 90.625v44.616q0 29.827-21.24 51.067-21.241 21.24-51.067 21.24h-43.847v100.002H720q51.923 0 89.616-34.231 37.692-34.231 40.385-85.769 0-12.75 8.628-21.375 8.629-8.625 21.384-8.625 12.756 0 21.371 8.625 8.615 8.625 8.615 21.375-2.692 76.076-58.115 128.037Q796.461-90.001 720-90.001H120ZM309.999-150h260.002v-100.002H309.999v100.002Z"/></svg>