<svg xmlns="http://www.w3.org/2000/svg" height="24" viewBox="0 -960 960 960" width="24"><path d="m591.23-185.538 205.309-204.923q8.922-8.923 21.191-8.616 12.269.308 21.192 9.231t8.923 21.076q0 12.154-8.923 21.077L616.538-125.924q-5.616 5.615-11.846 8.038-6.231 2.423-13.462 2.423-7.23 0-13.461-2.423t-11.846-8.038L457.154-234.693q-8.923-8.923-8.923-20.884 0-11.962 8.923-21.269 8.923-9.308 21.076-9.115 12.154.192 21.077 9.115l91.923 91.308Zm-338.921 5.537q-29.923 0-51.115-21.193-21.193-21.192-21.193-51.115v-306.154L120-513.231q-9.923 7.307-22 5.884-12.076-1.423-19.768-11.961Q70.54-529.231 72.27-541q1.731-11.769 11.654-19.461L436-827.23q9.846-7.23 21-10.846 11.154-3.615 23-3.615 11.461 0 22.807 3.615Q514.154-834.46 524-827.23l352.461 266.154q9.923 7.692 11.653 19.461 1.731 11.769-6.577 22.307-7.692 9.923-19.153 11.653-11.461 1.731-21.999-5.576l-26.231-19.231L591.23-309.308l-28.538-28.923q-34.616-35.231-84.462-35.038-49.846.192-84.461 35.423-31.923 31.922-33.231 77.96-1.308 46.038 26.384 79.885H252.309Z"/></svg>