<svg xmlns="http://www.w3.org/2000/svg" height="24" viewBox="0 -960 960 960" width="24"><path d="M480.067-100.001q-78.836 0-148.204-29.925-69.369-29.925-120.682-81.225-51.314-51.3-81.247-120.65Q100.001-401.15 100.001-480q0-79.384 29.462-148.23 29.461-68.846 81.153-121.154L480-480v-379.999q78.769 0 148.137 29.92 69.369 29.92 120.682 81.21 51.314 51.291 81.247 120.629 29.933 69.337 29.933 148.173t-29.92 148.204q-29.92 69.369-81.21 120.682-51.291 51.314-120.629 81.247-69.337 29.933-148.173 29.933Z"/></svg>