<svg xmlns="http://www.w3.org/2000/svg" height="24" viewBox="0 -960 960 960" width="24"><path d="M450.001-580.001H360q-12.75 0-21.374-8.629-8.625-8.629-8.625-21.384 0-12.756 8.625-21.371Q347.25-640 360-640h240q12.75 0 21.375 8.629 8.624 8.628 8.624 21.384 0 12.755-8.624 21.37-8.625 8.616-21.375 8.616h-90.001v230.002q0 12.749-8.628 21.374Q492.742-320 479.987-320q-12.756 0-21.371-8.625-8.615-8.625-8.615-21.374v-230.002ZM67.694-103.848v-132.306q0-15.365 10.394-25.759 10.395-10.394 25.76-10.394h36.153v-415.386H103.78q-15.394 0-25.74-10.394-10.346-10.394-10.346-25.759v-132.306q0-15.365 10.394-25.759 10.395-10.395 25.76-10.395h132.306q15.365 0 25.759 10.395 10.394 10.394 10.394 25.759v36.153h415.386v-36.221q0-15.394 10.394-25.74 10.394-10.346 25.759-10.346h132.306q15.365 0 25.759 10.395 10.395 10.394 10.395 25.759v132.306q0 15.365-10.395 25.759-10.394 10.394-25.759 10.394h-36.153v415.386h36.221q15.394 0 25.74 10.394 10.346 10.394 10.346 25.759v132.306q0 15.365-10.395 25.76-10.394 10.394-25.759 10.394H723.846q-15.365 0-25.759-10.394-10.394-10.395-10.394-25.76v-36.153H272.307v36.221q0 15.394-10.394 25.74-10.394 10.346-25.759 10.346H103.848q-15.365 0-25.76-10.394-10.394-10.395-10.394-25.76ZM272.307-200h415.386v-36.221q0-15.394 10.394-25.74 10.394-10.346 25.759-10.346H760v-415.386h-36.221q-15.394 0-25.74-10.394-10.346-10.394-10.346-25.759V-760H272.307v36.221q0 15.394-10.394 25.74-10.394 10.346-25.759 10.346H200v415.386h36.221q15.394 0 25.74 10.394 10.346 10.394 10.346 25.759V-200Z"/></svg>