<svg xmlns="http://www.w3.org/2000/svg" height="24" viewBox="0 -960 960 960" width="24"><path d="M267.539-632.846q5.615 5.615 12.653 5.615 7.039 0 12.654-5.615l47-47q5.615-5.615 5.615-12.846 0-7.23-5.615-12.846l-47-46.999q-5.615-5.616-12.654-5.616-7.038 0-12.653 5.616l-47 46.999q-5.615 5.616-5.615 12.846 0 7.231 5.615 12.846l47 47ZM660-674.615q20.769 0 35.384-14.615 14.615-14.615 14.615-35.384t-14.615-35.384Q680.769-774.614 660-774.614t-35.384 14.616q-14.615 14.615-14.615 35.384t14.615 35.384q14.615 14.615 35.384 14.615ZM256.155-75.387q-15.461 0-25.807-10.346-10.347-10.346-10.347-25.808v-33.999q0-29.23 16.231-54.422 16.231-25.192 43.23-37.5 47.462-21.846 97.961-32.961 50.5-11.116 102.577-11.116t102.577 11.116q50.499 11.115 97.961 32.961 26.999 12.308 43.23 37.5 16.231 25.192 16.231 54.422v33.999q0 15.462-10.347 25.808-10.346 10.346-25.807 10.346h-447.69ZM480-329.231q-49.922 0-84.961-35.038-35.038-35.038-35.038-84.961 0-49.922 35.038-84.96 35.039-35.039 84.961-35.039t84.961 35.039q35.038 35.038 35.038 84.96 0 49.923-35.038 84.961-35.039 35.038-84.961 35.038ZM100.001-812.306q0-30.307 21-51.307 21-21 51.308-21h615.382q30.308 0 51.308 21t21 51.307v335.383q0 30.308-21 51.307-21 21-51.308 21h-88.077q-14.692 0-24.23-11.269-9.539-11.269-8.308-25.961.615-5.538.615-11.384t-.615-11.384q-6.077-72.538-59.5-122.423Q554.154-636.921 480-636.921t-127.576 49.884q-53.423 49.885-59.5 122.423-.615 5.538-.615 11.384t.615 11.384q1.231 14.692-8.308 25.961-9.538 11.269-24.23 11.269h-88.077q-30.308 0-51.308-21-21-20.999-21-51.307v-335.383Z"/></svg>