<svg xmlns="http://www.w3.org/2000/svg" height="24" viewBox="0 -960 960 960" width="24"><path d="M120-50q-12.769 0-21.384-8.616Q90-67.23 90-80t8.615-21.384q8.615-8.615 21.384-8.615 26.769 0 52.846-7.077 26.077-7.077 50.231-21.077 7.462-4.231 16.923-4.231 9.461 0 16.923 4.231 24.154 14 50.231 21.077 26.077 7.077 52.846 7.077 26.769 0 52.846-7.077 26.077-7.077 50.231-21.077 7.462-4.231 17.231-4.231 9.769 0 16.615 4.231 24.154 14 50.231 21.077 26.077 7.077 52.846 7.077 26.769 0 52.846-7.077 26.077-7.077 50.231-21.077 6.846-4.231 16.923-4.231 10.077 0 16.923 4.231 24.154 14 50.231 21.077 26.077 7.077 52.846 7.077 12.769 0 21.384 8.615T869.999-80q0 12.769-8.615 21.384T840-50q-29.846 0-59.846-7.692-30-7.692-60.154-23.462-30.154 15.77-60.154 23.462-30 7.692-59.846 7.692-29.846 0-59.846-7.692-30-7.692-60.154-23.462-30.154 15.77-60.154 23.462-30 7.692-59.846 7.692-29.846 0-59.846-7.692-30-7.692-60.154-23.462-30.154 15.77-60.154 23.462-30 7.692-59.846 7.692Zm240.385-147.692q-26 0-50.923-8.462-24.923-8.461-45.616-24.999 12.847-9.846 33.232-25.5 20.385-15.654 35.615-26.27l-65.846-126.693q-8.616-15.846-12.731-33.692T250.001-480v-160q0-29.154 20.423-49.576 20.422-20.423 49.576-20.423h120q32.308 0 61.846-8.577 29.539-8.577 56.078-26.731 10.538-7.077 23.307-6.577 12.769.5 21.461 9.192 8.923 9.308 8.115 21.077-.808 11.769-10.731 19.461-35.076 25.461-75.653 38.807-40.577 13.346-84.423 13.346h-66.001v160.002h101.308q7.231 0 14.27 3.115 7.038 3.115 12.653 8.731l59.077 65.077q66.924-27.769 118.193-42.346 51.269-14.577 86.5-14.577 30.384 0 47.192 11 16.807 10.999 16.807 31.922 0 37.846-57.462 98.693-57.461 60.846-153.769 124.307-7.846 2.616-16.385 3.923-8.538 1.308-16.999 1.308-22.539 0-45.269-9.038-22.731-9.039-42.423-26.731-7.231-7.231-17.384-8.038-10.154-.808-17.769 6.653-21.231 18.846-48.385 28.577-27.154 9.731-53.769 9.731Zm27.999-123.692q19.847-12.307 56.386-32.962 36.539-20.654 59.385-31.577l-39.924-44.078-118.463 9.77 42.616 98.847Zm237.77-492.538 99.924-99.924q18.384 0 19.23 23.5.846 23.5-52.078 76.424-13.538 13.538-33.538 13.538-19.999 0-33.538-13.538ZM320-766.154q-30.307 0-52.077-21.769-21.769-21.77-21.769-52.077t21.769-52.077q21.77-21.769 52.077-21.769t52.077 21.769q21.769 21.77 21.769 52.077t-21.769 52.077q-21.77 21.769-52.077 21.769Z"/></svg>