<svg xmlns="http://www.w3.org/2000/svg" height="24" viewBox="0 -960 960 960" width="24"><path d="M480-100.001q-77.573 0-132.247-54.077-54.675-54.077-54.675-131.307v-361.539q-30.308 0-51.692-21.192-21.385-21.192-21.385-51.499v-67.307q0-30.144 21.467-51.61 21.466-21.467 51.61-21.467h373.459q30.303 0 51.882 21.467 21.58 21.466 21.58 51.61v67.307q0 30.307-21.58 51.499-21.579 21.192-51.882 21.192v367.309q-2.307 75.307-56.576 127.46Q555.692-100.001 480-100.001ZM480-160q52.725 0 89.632-36.346 36.907-36.347 36.907-89.039v-15.001h-93.847q-12.75 0-21.375-8.629-8.624-8.628-8.624-21.384 0-12.755 8.624-21.37 8.625-8.616 21.375-8.616h93.847v-96.924h-93.847q-12.75 0-21.375-8.629-8.624-8.628-8.624-21.384 0-12.755 8.624-21.37 8.625-8.615 21.375-8.615h93.847v-129.617H353.076v361.539q0 52.692 37.02 89.039Q427.115-160 480-160Z"/></svg>