<svg xmlns="http://www.w3.org/2000/svg" height="24" viewBox="0 -960 960 960" width="24"><path d="M151.541-140.001q-15.365 0-25.76-10.395-10.394-10.394-10.394-25.759v-367.531q0-15.62 10.394-25.966 10.395-10.347 25.76-10.347h120.768q15.365 0 25.759 10.395 10.394 10.394 10.394 25.759v367.531q0 15.62-10.394 25.966-10.394 10.347-25.759 10.347H151.541Zm264.351 0q-15.584 0-25.93-10.395-10.346-10.394-10.346-25.759v-607.69q0-15.365 10.394-25.759 10.394-10.395 25.76-10.395h128.338q15.584 0 25.93 10.395 10.346 10.394 10.346 25.759v607.69q0 15.365-10.394 25.759-10.394 10.395-25.76 10.395H415.892Zm271.799 0q-15.365 0-25.759-10.351-10.394-10.35-10.394-25.65v-288.004q0-15.3 10.394-25.646 10.394-10.347 25.759-10.347h120.768q15.365 0 25.76 10.351 10.394 10.35 10.394 25.65v288.004q0 15.3-10.394 25.646-10.395 10.347-25.76 10.347H687.691Z"/></svg>