<svg xmlns="http://www.w3.org/2000/svg" height="24" viewBox="0 -960 960 960" width="24"><path d="M493.846-366.154q37.769 0 63.884-26.115 26.115-26.116 26.115-63.885v-224.615h79.231q14.692 0 25.038-10.154t10.346-25.231q0-14.692-10.346-25.038t-25.038-10.346h-79.231q-14.692 0-25.038 10.346t-10.346 25.038v190.77q-11.462-10.384-25.115-15.577-13.654-5.192-29.5-5.192-37.769 0-63.884 26.115-26.116 26.116-26.116 63.884 0 37.769 26.116 63.885 26.115 26.115 63.884 26.115ZM322.308-260.001q-30.308 0-51.307-21-21-21-21-51.308v-455.382q0-30.308 21-51.308 20.999-21 51.307-21h455.383q30.307 0 51.307 21 21 21 21 51.308v455.382q0 30.308-21 51.308t-51.307 21H322.308ZM182.309-120.003q-30.307 0-51.307-21-21-21-21-51.307v-485.382q0-12.769 8.615-21.384 8.616-8.615 21.384-8.615 12.769 0 21.385 8.615 8.615 8.615 8.615 21.384v485.382q0 4.616 3.846 8.462 3.847 3.847 8.462 3.847h485.382q12.769 0 21.385 8.615 8.615 8.615 8.615 21.384t-8.615 21.384q-8.616 8.615-21.385 8.615H182.309Z"/></svg>