<svg xmlns="http://www.w3.org/2000/svg" height="24" viewBox="0 -960 960 960" width="24"><path d="M479.914-819.999q81.932 0 166.585 27.116 84.653 27.115 150.807 76.114 14.846 10.991 22.269 26.56 7.423 15.57 7.423 32.055 0 9.872-3.115 20.193-3.116 10.32-9.346 20.192L540.461-206.54q-10.846 16.269-27.115 24.403-16.269 8.135-33.393 8.135-17.123 0-33.346-8.039-16.222-8.038-27.068-24.499L145.463-617.769q-6.378-9.943-9.112-19.885-2.734-9.942-2.734-19.884 0-16.377 7.423-31.845 7.423-15.467 22.269-26.386 66.154-48.384 150.413-76.307 84.26-27.923 166.192-27.923Zm-113.037 248.46q20.814 0 35.429-14.57 14.615-14.57 14.615-35.384t-14.57-35.43q-14.569-14.615-35.384-14.615-20.814 0-35.429 14.57-14.615 14.57-14.615 35.384t14.57 35.43q14.57 14.615 35.384 14.615Zm113.078 201.538q20.814 0 35.429-14.57 14.615-14.57 14.615-35.384t-14.57-35.429q-14.57-14.615-35.384-14.615t-35.429 14.57q-14.615 14.57-14.615 35.384t14.57 35.429q14.57 14.615 35.384 14.615Z"/></svg>