<svg xmlns="http://www.w3.org/2000/svg" height="24" viewBox="0 -960 960 960" width="24"><path d="M100.001-248.462v-28.154q0-30.153 15.847-54.807 15.846-24.653 42.768-38.115 53.539-27.077 111.385-42.923Q327.846-428.307 388-428.307q12.461 0 19.692 10.769t3.385 23.616Q406.231-376 404-358.077t-2.231 36.461q0 24 4.462 46.577 4.461 22.576 12.384 44.73 6.077 15.461-2.462 29.038-8.538 13.577-23.999 13.577H160.769q-25.307 0-43.037-17.731-17.731-17.73-17.731-43.037Zm572.306-10.001q31.462 0 53.808-22.346t22.346-53.807q0-31.462-22.346-53.808t-53.808-22.346q-31.461 0-53.807 22.346-22.346 22.346-22.346 53.808 0 31.461 22.346 53.807 22.346 22.346 53.807 22.346ZM400-492.309q-57.922 0-98.961-41.038-41.038-41.038-41.038-98.96 0-57.923 41.038-98.961 41.039-41.038 98.961-41.038t98.961 41.038q41.038 41.038 41.038 98.961 0 57.922-41.038 98.96-41.039 41.038-98.961 41.038Zm240.154 311.076-4.846-29.923q-14.308-4.231-26.923-11.077-12.616-6.846-24-17.154l-29.77 10.923q-9.538 3.231-18.384-.423t-13.922-11.577l-5.308-9.384q-5.077-8.538-3.654-18.692 1.423-10.153 9.346-16.461l23.923-19q-4.307-15.538-4.307-30.615 0-15.078 4.307-30.616l-23.538-19.769q-7.923-6.308-9.538-15.962-1.616-9.653 3.461-18.191l5.923-10q5.077-7.923 13.807-11.577 8.731-3.653 18.269-.423l29.385 10.924q11-10.308 23.808-16.962 12.807-6.654 27.115-10.885l4.846-30.538q1.846-10.154 9.462-16.346 7.615-6.192 17.768-6.192h10.615q10.154 0 17.769 6.5 7.615 6.499 9.461 16.653l4.462 29.923q14.308 4.231 27.115 11.193 12.808 6.961 23.808 17.884l28.154-10.923q10.154-3.846 19.307-.192 9.154 3.654 14.231 12.192l5.692 9.384q5.077 8.538 3.461 18.5-1.615 9.961-9.538 16.268l-23.539 19.77q4.308 14.307 4.308 30 0 15.692-4.308 30l23.924 19q7.923 6.308 9.346 16.154t-3.654 18.384l-5.923 9.999q-5.077 7.923-13.615 11.577t-18.076.423l-29.77-10.923q-11.384 10.308-24 17.154-12.615 6.846-26.923 11.077l-4.462 30.538q-1.846 10.154-9.461 16.346t-17.769 6.192h-10.615q-10.153 0-17.768-6.5-7.616-6.499-9.462-16.653Z"/></svg>