<svg xmlns="http://www.w3.org/2000/svg" height="24" viewBox="0 -960 960 960" width="24"><path d="m694-258.768 148.924-148.924q8.922-8.923 21.076-8.807 12.154.115 21.076 9.423 8.308 8.922 8.423 21.076.116 12.154-8.807 21.076L719.307-199.539Q708.461-188.693 694-188.693q-14.461 0-25.307-10.846l-80.769-81.769q-8.308-8.308-8.423-20.577-.116-12.269 8.807-21.191 8.308-8.308 20.884-8.308 12.577 0 20.884 8.308L694-258.768Zm-452.461-1.233-80.076 80.076q-17.077 17.076-39.269 7.73-22.193-9.346-22.193-33.653v-581.843q0-30.308 21-51.308t51.308-21h615.382q30.308 0 51.308 21t21 51.308v241.538q0 15.462-10.347 25.808-10.346 10.346-25.807 10.346H562.308q-29.923 0-51.115 21.192-21.192 21.192-21.192 51.115v141.537q0 15.461-10.346 25.807-10.346 10.347-25.808 10.347H241.539Z"/></svg>