<svg xmlns="http://www.w3.org/2000/svg" height="24" viewBox="0 -960 960 960" width="24"><path d="M204.309-670.769q-12.693-15.076-19.654-32.768-6.961-17.693-6.961-37.231 0-45.833 32.07-77.916 32.069-32.083 77.884-32.083 45.814 0 77.929 32.083t32.115 77.916q0 19.538-6.961 37.231-6.962 17.692-19.654 32.768H204.309Zm199.578 561.536q-60.271 0-103.232-42.932-42.961-42.933-42.961-103.221h-2.846q-14.077 0-24.196-9.49-10.118-9.49-11.958-23.048l-30.461-301.537q-2-16.269 8.942-28.019t27.211-11.75H351q16.269 0 27.211 11.75t8.942 28.019l-30.461 301.537q-1.84 13.558-11.958 23.048-10.119 9.49-24.196 9.49h-2.846q0 35.693 25.308 60.924t60.846 25.231q35.539 0 60.847-25.308t25.308-60.847v-449.228q0-60.288 42.92-103.221 42.921-42.932 103.192-42.932 60.271 0 103.232 42.932 42.961 42.933 42.961 103.221v565.382q0 12.75-8.628 21.374-8.629 8.625-21.384 8.625-12.756 0-21.371-8.625-8.615-8.624-8.615-21.374v-565.382q0-35.539-25.308-60.847t-60.846-25.308q-35.539 0-60.847 25.308t-25.308 60.847v449.228q0 60.288-42.92 103.221-42.921 42.932-103.192 42.932Z"/></svg>