<svg xmlns="http://www.w3.org/2000/svg" height="24" viewBox="0 -960 960 960" width="24"><path d="M421-657.152q14.385 0 27.154-5.615 12.769-5.616 22.308-15.462 5-5.846 13.038-6.577 8.039-.73 14.885 4.27 19.153 14.461 34.384 32.576 15.23 18.115 26.922 39.654 6.846 12.461 3.423 26.538t-13.269 23.923l-89.154 89.154-2.769-2.769-2.77-2.769-69.845-68.614Q374.461-553.074 360-553.382q-14.461-.307-25.307 10.539l-69.384 69.383q-18.846 18.846-28.923 43-10.077 24.154-10 50-.461 16.923-16.076 22.192-15.615 5.269-25.385-7.038-6.692-7.385-12.692-15.616-6-8.23-10.924-17.384-12.461-23.154-19.385-49.155-6.923-26-6.923-53.692 0-93.538 47.769-153.538 47.769-59.999 115.384-113.923 14.615-10.922 30.73-3.115 16.115 7.808 16.115 26.269v12.922q0 31.539 21.923 53.462 21.924 21.924 54.078 21.924ZM360-483.23l52.769 51.154q1.846 1.231 3.077 3.077 1.23 1.846 2.461 3.077l-86.615 86.615q-6.231 6.23-14.384 5.923-8.154-.308-15-6.539t-12.077-16Q285-365.692 285-379.769q0-15.846 6.116-28.269 6.115-12.423 16.346-22.653L360-483.23Zm173.076 138.459-44.232 44.233v197.847q0 12.769-8.615 21.384t-21.384 8.615q-12.769 0-21.384-8.615-8.616-8.615-8.616-21.384V-240.54L282.458-93.768q-8.307 8.692-20.884 8.692-12.576 0-21.268-8.692t-8.692-21.077q0-12.384 8.692-21.076l543.773-543.773q8.307-8.308 20.884-8.5 12.577-.192 21.269 8.5 8.692 8.692 8.692 21.076t-8.692 21.076L679.46-490.77h137.849q12.769 0 21.384 8.615t8.615 21.384q0 12.769-8.615 21.384-8.615 8.616-21.384 8.616H619.077l-43.848 43.847 68.847 68.847h173.233q12.769 0 21.384 8.615 8.615 8.616 8.615 21.384 0 12.769-8.615 21.385-8.615 8.615-21.384 8.615H704.075l89.464 89.464q8.307 8.307 8.499 20.884.193 12.576-8.499 21.269-8.693 8.692-21.077 8.692-12.384 0-21.076-8.692l-89.464-89.464v113.234q0 12.769-8.615 21.384-8.616 8.615-21.385 8.615-12.768 0-21.384-8.615-8.615-8.615-8.615-21.384v-173.233l-68.847-68.847Z"/></svg>