<svg xmlns="http://www.w3.org/2000/svg" height="24" viewBox="0 -960 960 960" width="24"><path d="M595.384-330.001h119.231q12.75 0 21.375-8.625 8.624-8.624 8.624-21.374v-240q0-12.75-8.624-21.375-8.625-8.624-21.375-8.624H595.384q-12.749 0-21.374 8.624-8.625 8.625-8.625 21.375v240q0 12.75 8.625 21.374 8.625 8.625 21.374 8.625Zm30-59.998v-180.002h59.232v180.002h-59.232Zm-264.615 59.998H480q12.75 0 21.374-8.625 8.625-8.624 8.625-21.374v-240q0-12.75-8.625-21.375-8.624-8.624-21.374-8.624H360.769q-12.749 0-21.374 8.624-8.625 8.625-8.625 21.375v240q0 12.75 8.625 21.374 8.625 8.625 21.374 8.625Zm30-59.998v-180.002h59.232v180.002h-59.232ZM275.384-360v-240q0-12.75-8.628-21.375-8.629-8.624-21.384-8.624-12.756 0-21.371 8.624-8.615 8.625-8.615 21.375v240q0 12.75 8.628 21.374 8.629 8.625 21.384 8.625 12.756 0 21.371-8.625 8.615-8.624 8.615-21.374ZM100.001-252.309v-455.382q0-29.827 21.241-51.067 21.24-21.241 51.067-21.241h615.382q29.827 0 51.067 21.241 21.241 21.24 21.241 51.067v455.382q0 29.827-21.241 51.067-21.24 21.241-51.067 21.241H172.309q-29.827 0-51.067-21.241-21.241-21.24-21.241-51.067Z"/></svg>