<svg xmlns="http://www.w3.org/2000/svg" height="24" viewBox="0 -960 960 960" width="24"><path d="M159.987-130.001q-12.756 0-21.371-8.625-8.615-8.624-8.615-21.374v-35.769q0-12.75 8.628-21.374 8.629-8.625 21.384-8.625 12.756 0 21.371 8.625 8.615 8.624 8.615 21.374V-160q0 12.75-8.628 21.374-8.629 8.625-21.384 8.625Zm160 0q-12.756 0-21.371-8.625-8.615-8.624-8.615-21.374v-215.769q0-12.75 8.628-21.374 8.629-8.625 21.384-8.625 12.756 0 21.371 8.625 8.615 8.624 8.615 21.374V-160q0 12.75-8.628 21.374-8.629 8.625-21.384 8.625Zm160 0q-12.756 0-21.371-8.625-8.615-8.624-8.615-21.374v-135.769q0-12.75 8.628-21.374 8.629-8.625 21.384-8.625 12.756 0 21.371 8.625 8.615 8.624 8.615 21.374V-160q0 12.75-8.628 21.374-8.629 8.625-21.384 8.625Zm160 0q-12.756 0-21.371-8.625-8.615-8.624-8.615-21.374v-195.769q0-12.75 8.628-21.374 8.629-8.625 21.384-8.625 12.756 0 21.371 8.625 8.615 8.624 8.615 21.374V-160q0 12.75-8.628 21.374-8.629 8.625-21.384 8.625Zm160 0q-12.756 0-21.371-8.625-8.615-8.624-8.615-21.374v-355.769q0-12.75 8.628-21.374 8.629-8.625 21.384-8.625 12.756 0 21.371 8.625 8.615 8.624 8.615 21.374V-160q0 12.75-8.628 21.374-8.629 8.625-21.384 8.625ZM560-491.77q-14.077 0-27.216-5.398-13.14-5.398-24.014-15.294l-99.923-99.923q-3.462-3.462-8.847-3.462t-8.847 3.462L181.076-402.308q-8.922 8.923-21.384 8.807-12.461-.115-21.384-9.423-8.307-8.922-7.935-21.239.371-12.317 8.551-20.529L348.77-654.538q10.874-10.796 24.014-15.744 13.139-4.948 27.216-4.948 14.077 0 27.67 4.948 13.592 4.948 23.56 15.744l99.923 99.923q3.462 3.462 8.847 3.462t8.847-3.462l210.077-210.077q8.922-8.923 21.384-8.807 12.461.115 21.384 9.423 8.307 8.922 7.935 21.239-.371 12.317-8.551 20.529L611.23-512.462q-9.968 9.896-23.56 15.294-13.593 5.398-27.67 5.398Z"/></svg>