<svg xmlns="http://www.w3.org/2000/svg" height="24" viewBox="0 -960 960 960" width="24"><path d="M743.153-64.617q-10.538 0-18.538-7.077t-10.23-17.615l-4.077-23q-17.385-5-30.001-11.846-12.615-6.846-24.769-18.308l-24 8.231q-9.923 3.231-19.345-.231-9.423-3.461-14.885-11.769l-5.307-9.769q-5.462-9.307-4.231-19.653 1.231-10.346 9.923-17.423l18.153-15.538q-4.307-16.616-4.307-33.693 0-17.077 4.307-33.693l-18.153-15.538q-8.308-6.692-9.923-16.923-1.615-10.23 3.846-19.538l6.692-10.384q5.462-8.307 14.385-11.769 8.922-3.461 18.845-.231l24 8.231q12.154-11.846 24.769-18.5 12.616-6.654 30.001-11.654l4.077-23.615q2.23-10.538 10.23-17.307 8-6.77 18.538-6.77h10.615q10.538 0 18.538 7.077t10.231 17.615l4.077 23q17.385 5 30 11.654 12.616 6.654 24.77 18.5l23.999-8.231q9.923-3.23 19.346.231 9.423 3.462 14.884 11.769l5.308 9.769q5.461 9.308 4.23 19.653-1.23 10.346-9.922 17.423l-18.154 15.538q4.308 16.616 4.308 33.693 0 17.077-4.308 33.693l18.154 15.538q8.307 6.692 9.922 16.923 1.616 10.23-3.846 19.538l-6.692 10.384q-5.461 8.308-14.384 11.769-8.923 3.462-18.846.231l-23.999-8.231q-12.154 11.462-24.77 18.308-12.615 6.846-30 11.846l-4.077 23.615q-2.231 10.539-10.231 17.308t-18.538 6.769h-10.615Zm5.308-94.614q34.154 0 58.615-24.461 24.462-24.462 24.462-58.616 0-34.154-24.462-58.615-24.461-24.462-58.615-24.462t-58.616 24.462q-24.461 24.461-24.461 58.615t24.461 58.616q24.462 24.461 58.616 24.461Zm-561.076 59.23q-24.307 0-33.653-22.193-9.346-22.192 7.731-39.269l637.074-637.074q17.077-17.077 39.269-7.731 22.193 9.346 22.193 33.653v244.001q0 16.461-13.462 25.5-13.461 9.038-28.923 4.038-16.846-5-34.692-7t-34.846-2q-111.23 0-188.999 77.461-77.769 77.461-77.769 188.692 0 24.999 5.038 49.922 5.039 24.923 14.115 48.615 6.846 15.462-1.884 29.423-8.731 13.962-24.192 13.962h-287Z"/></svg>