<svg xmlns="http://www.w3.org/2000/svg" height="24" viewBox="0 -960 960 960" width="24"><path d="M482.693-136.924q-85.769 0-149.346-56.154t-71.499-140.923q-67.769-14-110.962-66.923-43.192-52.922-43.192-121.461 0-77.999 54.077-132.807 54.077-54.807 131.692-54.807h104.231q12.231 0 21.116-8.885 8.884-8.885 8.884-21.116t-8.884-21.116q-8.885-8.885-21.116-8.885h-60q-12.769 0-21.384-8.615-8.616-8.615-8.616-21.384t8.616-21.384q8.615-8.615 21.384-8.615h60q37.769 0 63.884 26.115 26.115 26.115 26.115 63.884 0 37.769-26.115 63.884-26.115 26.115-63.884 26.115H293.463q-52.693 0-89.232 37.077-36.538 37.078-36.538 89.924 0 44.231 26.269 79.231 26.27 35 68.886 47.77 12.922-80.769 73.422-133.731 60.5-52.961 142.115-52.961 19.615 0 38.115 2.692 18.5 2.693 36.731 9.077-44.846 20.616-72.692 61-27.846 40.384-27.846 89.615 0 27.384 7.462 54.037 7.461 26.654 24.384 47.346 3.846 4.461 10.423 5.154 6.577.692 11.038-3.769 3.846-3.846 4.346-10.231.5-6.384-3.346-10.846-12.846-17.23-18.577-37.5-5.73-20.269-5.73-42.345 0-56.693 39.653-95.654 39.654-38.961 96.346-38.961 56.077 0 95.038 38.961 38.962 38.961 38.962 94.423 0 21.307-6.769 41.692-6.769 20.384-20.692 36.615l107.537 96.922q12.384 11 20.269 24.692 7.885 13.693 7.885 30.077 0 23.385-19.885 38.077-19.885 14.693-45.885 14.693H482.693ZM680-220.001q14.692 0 25.038-10.347 10.346-10.346 10.346-25.038t-10.346-25.038Q694.692-290.77 680-290.77t-25.038 10.346q-10.346 10.346-10.346 25.038t10.346 25.038q10.346 10.347 25.038 10.347Z"/></svg>