<svg xmlns="http://www.w3.org/2000/svg" height="24" viewBox="0 -960 960 960" width="24"><path d="M777.614-140.001q-113.076 0-227.191-52.577-114.115-52.577-209.884-148.346-95.384-95.769-147.961-209.691-52.577-113.923-52.577-226.999 0-18 12-30.192 12-12.193 30-12.193h130.46q15.154 0 26.731 9.885 11.577 9.885 14.73 24.423L376.845-668q2.385 16.385-1 28.154-3.384 11.769-12.154 19.769l-92.384 89.923q22.308 40.846 50.962 77.269 28.654 36.424 62.038 69.578 32.924 32.923 70.001 61.154 37.077 28.231 80.077 52.538l89.769-90.538q9.385-9.769 22.731-13.692 13.346-3.923 27.731-1.923l111.075 22.615q15.154 4 24.731 15.461 9.577 11.462 9.577 26.001v129.69q0 18-12.193 30-12.192 12-30.192 12ZM620.613-578.46h87.848q12.769 0 21.384 8.615t8.615 21.384q0 12.769-8.615 21.384-8.615 8.616-21.384 8.616H554.615q-15.461 0-25.808-10.346-10.346-10.347-10.346-25.808v-153.846q0-12.769 8.616-21.384 8.615-8.615 21.384-8.615t21.384 8.615q8.615 8.615 8.615 21.384v87.848l188.155-188.155q8.307-8.307 20.884-8.5 12.577-.192 21.269 8.5 8.692 8.692 8.692 21.077 0 12.384-8.692 21.076L620.613-578.46Z"/></svg>