<svg xmlns="http://www.w3.org/2000/svg" height="24" viewBox="0 -960 960 960" width="24"><path d="M572.922-518.461q17 0 28.5-11.5t11.5-28.5v-10l10 4q15 6 30.5 3t23.5-17q9-15 6-32t-20-23.953l-10-3.973 10-3.973q17-6.953 19.693-24.335 2.692-17.382-5.693-31.766-8.615-14.616-23.423-17.5-14.807-2.885-30.577 3.5l-10 4v-10q0-17-11.5-28.5t-28.5-11.5q-17 0-28.5 11.5t-11.5 28.5v10l-10-4q-15.769-6.385-30.576-3.5-14.808 2.884-23.424 17.5-8.384 14.384-5.692 31.766 2.692 17.382 19.692 24.335l10 3.973-10 3.973q-17 6.953-20 23.953t6 32q8 14 23.5 17t30.5-3l10-4v10q0 17 11.5 28.5t28.5 11.5Zm0-80q-17 0-28.5-11.5t-11.5-28.5q0-17 11.5-28.5t28.5-11.5q17 0 28.5 11.5t11.5 28.5q0 17-11.5 28.5t-28.5 11.5ZM357.538-290.77q-30.307 0-51.307-21-21-21-21-51.307v-430.769q0-30.307 21-51.307 21-21 51.307-21h430.769q30.307 0 51.307 21 21 21 21 51.307v430.769q0 30.307-21 51.307-21 21-51.307 21H357.538ZM238.231-106.155q-29.922 4.23-53.422-14.462-23.5-18.692-27.115-48.615l-51.693-412.767q-3.615-29.923 14.967-53.602 18.582-23.678 48.495-27.321l35.768-3.846v340.614q0 48.076 33.654 81.73t81.73 33.654h412.154q-2.923 19-16.884 33.038-13.961 14.038-34.191 16.653l-443.463 54.924Zm334.691-292.306q34 0 63.123-12.5 29.122-12.5 52.262-34.5 18.769-17.77 31.608-40.757 12.839-22.988 17.777-49.551 2-9.077-4.116-15.885-6.115-6.807-15.346-5.192-26.769 3.615-50.654 15.615-23.884 12-42.654 29.77-23 22-36.5 51t-15.5 62Zm0 0q-2-33-15.5-62t-36.5-51q-18.769-17.77-42.653-29.77-23.885-12-50.654-15.615-9.231-1.615-15.346 5.192-6.116 6.808-4.116 15.885 5 26.563 18 49.551 13 22.987 31.769 40.757 23 22 52 34.5t63 12.5Z"/></svg>