<svg xmlns="http://www.w3.org/2000/svg" height="24" viewBox="0 -960 960 960" width="24"><path d="m395.386-814.154-249.54 249.54h82.617q10.333 0 17.089 6.751 6.757 6.751 6.757 17.077 0 10.325-6.757 17.094-6.756 6.769-17.089 6.769H100.771q-15.365 0-25.76-10.394-10.394-10.394-10.394-25.759v-127.693q0-10.333 6.751-17.089 6.752-6.756 17.077-6.756 10.325 0 17.094 6.756 6.77 6.756 6.77 17.089v82.617l249.539-249.539h-82.617q-10.333 0-17.089-6.752-6.756-6.751-6.756-17.076 0-10.326 6.756-17.095 6.756-6.769 17.089-6.769h127.693q15.365 0 25.759 10.394 10.394 10.395 10.394 25.76v127.692q0 10.333-6.751 17.089-6.751 6.757-17.077 6.757-10.325 0-17.094-6.757-6.769-6.756-6.769-17.089v-82.617ZM577.614-64.617q-22.077 0-41.961-8.23-19.884-8.232-35.731-24.078L322.384-274.694q-9.692-9.692-9.077-23.923.615-14.23 10.692-23.922 12.538-12.154 29.038-16.115 16.5-3.962 32.884.5l88.694 23.231v-329.693q0-12.749 8.629-21.374 8.628-8.625 21.384-8.625 12.755 0 21.37 8.625 8.616 8.625 8.616 21.374v285.385h56.539v-135.385q0-12.75 8.629-21.375t21.384-8.625q12.755 0 21.371 8.625 8.615 8.625 8.615 21.375v135.385h56.924v-95.385q0-12.75 8.629-21.375 8.628-8.625 21.384-8.625 12.755 0 21.37 8.625 8.616 8.625 8.616 21.375v95.385h56.539v-15.385q0-12.75 8.629-21.375t21.384-8.625q12.755 0 21.371 8.625 8.615 8.625 8.615 21.375v160q0 62.153-43.923 106.076-43.923 43.923-106.001 43.923H577.614Z"/></svg>