<svg xmlns="http://www.w3.org/2000/svg" height="24" viewBox="0 -960 960 960" width="24"><path d="m380-590.001 62.692 37.769q9.23 5.616 18.269.5 9.038-5.115 9.038-15.961v-196.153q0-15.462-10.346-25.808T433.846-800H326.154q-15.461 0-25.807 10.346-10.346 10.346-10.346 25.808v196.153q0 10.846 9.038 15.961 9.039 5.116 18.269-.5L380-590.001ZM709.999-66.156q-74.922 0-127.46-52.538t-52.538-127.46q0-74.923 52.73-127.461t129.191-52.538q73.384 0 125.73 52.538 52.346 52.538 52.346 127.461 0 74.922-52.538 127.46T709.999-66.156ZM696-177.078l83.537-54.769q8.461-5.615 8.461-15.077 0-9.461-8.461-15.076L696-316.769q-9.231-5.615-18.769-.692-9.539 4.923-9.539 15.769v109.537q0 10.846 9.539 15.769 9.538 4.923 18.769-.692Zm-483.691 77.077q-29.923 0-51.115-21.193-21.193-21.192-21.193-51.115v-615.382q0-29.923 21.193-51.115 21.192-21.193 51.115-21.193h455.382q29.923 0 51.115 21.193 21.193 21.192 21.193 51.115v257.286q0 10.791-7.539 18.073-7.538 7.282-18.384 7.666-53.846.533-100.461 17.494T527-429.922q-35.692 35.379-56.346 82.32-20.653 46.941-20.653 101.204 0 26.747 5.538 52.801 5.539 26.053 15.769 50.179 6.846 15.494-1.192 29.455-8.038 13.962-24.115 13.962H212.309Z"/></svg>