<svg xmlns="http://www.w3.org/2000/svg" height="24" viewBox="0 -960 960 960" width="24"><path d="M480.048-105.155q-6.663 0-12.663-1t-11.624-3q-126.53-45-201.145-159.577Q180.001-383.308 180.001-516v-180.153q0-22.791 13.106-41.024t33.894-26.437l227.692-85q12.846-4.615 25.307-4.615 12.461 0 25.307 4.615l227.692 85q20.788 8.204 33.894 26.437 13.106 18.233 13.106 41.024V-516q0 61.461-16.693 118.846-16.692 57.384-46.538 110.23l-118-118q10.231-17.076 15.731-35.949 5.5-18.873 5.5-39.127 0-57.749-41.125-98.874-41.125-41.125-98.874-41.125-57.749 0-98.874 41.125-41.125 41.125-41.125 98.874 0 57.749 41.125 98.874 41.125 41.125 98.874 41.125 20.231 0 39.577-5.693 19.346-5.692 35.807-17.077l125.923 125.308q-37.231 43.846-80.423 76.307-43.192 32.462-97.038 52.001-5.711 2-11.423 3-5.711 1-12.375 1ZM480-400q-33 0-56.5-23.5T400-480q0-33 23.5-56.5T480-560q33 0 56.5 23.5T560-480q0 33-23.5 56.5T480-400Z"/></svg>