<svg xmlns="http://www.w3.org/2000/svg" height="24" viewBox="0 -960 960 960" width="24"><path d="M111.541-527.693q0-42.499 29.038-71.249 29.038-28.749 70.96-28.749h536.922q28.542 0 52.578 9.576 24.035 9.577 24.035 34.115 0 6.866-5.077 11.587-5.076 4.72-11.846 4.72h-93.536q-29.827 0-51.067 21.24-21.24 21.241-21.24 51.067v94.617q0 12.749-8.625 21.374-8.625 8.625-21.374 8.625h-280q-5.385 0-8.847 3.462-3.462 3.462-3.462 8.847v146.152q0 5.385 3.462 8.847 3.462 3.462 8.847 3.462h280q12.749 0 21.374 8.629 8.625 8.628 8.625 21.384 0 12.755-8.625 21.37-8.625 8.616-21.374 8.616h-280q-29.827 0-51.067-21.241-21.241-21.24-21.241-51.067v-87.692h-76.153q-29.827 0-51.067-21.241-21.24-21.24-21.24-51.067v-155.384Zm648.472 387.692q-14.705 0-24.667-9.948-9.961-9.948-9.961-24.654t9.948-24.667q9.948-9.961 24.654-9.961 14.705 0 24.667 9.947 9.961 9.948 9.961 24.654t-9.948 24.667q-9.948 9.962-24.654 9.962Zm-30.012-194.615v-120q0-12.75 8.628-21.375 8.629-8.625 21.384-8.625 12.756 0 21.371 8.625 8.615 8.625 8.615 21.375v120q0 12.749-8.628 21.374-8.629 8.625-21.384 8.625-12.756 0-21.371-8.625-8.615-8.625-8.615-21.374Zm-433.687-328.46q-15.62 0-25.966-10.404-10.347-10.404-10.347-25.783v-36.188q0-29.855 21.241-51.047 21.24-21.192 51.067-21.192h295.382q29.827 0 51.067 21.257 21.241 21.256 21.241 51.106v36.182q0 15.377-10.395 25.723-10.394 10.346-25.759 10.346H296.314Z"/></svg>