<svg xmlns="http://www.w3.org/2000/svg" height="24" viewBox="0 -960 960 960" width="24"><path d="M480-100.001q-78.769 0-148.115-29.962-69.346-29.961-120.653-81.269-51.308-51.307-81.269-120.653Q100.001-401.231 100.001-480q0-63.154 18.924-119.231 18.923-56.077 53.615-103.308L72.309-802.77q-8.923-8.923-9.115-21.192-.193-12.269 9.115-21.576 9.308-9.308 21.384-9.308 12.077 0 21.384 9.308L853.385-107.23q8.923 8.922 9.115 20.884.193 11.961-9.115 21.269-9.307 9.307-21.384 9.307t-21.384-9.307L702.539-172.54q-47.231 34.692-103.308 53.615Q543.154-100.001 480-100.001ZM440-162v-78q-33 0-56.5-23.5T360-320v-40L168-552q-3 18-5.5 36t-2.5 36q0 121 79.5 212T440-162Zm419.999-318q0 45-10.193 86.5-10.192 41.5-28.346 79.115-5.461 10.539-17.307 13.885-11.846 3.346-22.384-2.731-10.539-6.077-14.5-18.038-3.962-11.961 1.5-23.115 15.308-31.923 23.269-65.923Q800-444.307 800-480q0-98.385-54.308-179.577Q691.385-740.769 600-776.769V-760q0 33-23.5 56.5T520-680h-60v22.77q0 12.461-11.038 16.884-11.039 4.423-19.885-4.423L317.231-756.615q-16.461-16.461-12.961-39.153 3.5-22.692 24.192-32.538 35.077-15.846 72.961-23.77 37.885-7.923 78.577-7.923 78.769 0 148.115 29.962 69.346 29.961 120.653 81.269 51.308 51.307 81.269 120.653Q859.999-558.769 859.999-480Z"/></svg>