<svg xmlns="http://www.w3.org/2000/svg" height="24" viewBox="0 -960 960 960" width="24"><path d="M666.153-180.001q7.077 0 12.384-5.308 5.308-5.308 5.308-12.385v-104.614q0-7.077-5.308-12.384Q673.23-320 666.153-320t-12.385 5.308q-5.307 5.307-5.307 12.384v104.614q0 7.077 5.307 12.385 5.308 5.308 12.385 5.308Zm0-176.537q7.231.384 12.461-5.039 5.231-5.423 5.231-12.653 0-7.231-5.341-12.462-5.34-5.23-12.461-5.23t-12.352 5.258q-5.23 5.258-5.23 12.269t5.307 12.434q5.308 5.423 12.385 5.423Zm0 250.382q-74.923 0-127.461-52.538t-52.538-127.46q0-74.923 52.538-127.461t127.461-52.538q74.922 0 127.46 52.538t52.538 127.461q0 74.922-52.538 127.46t-127.46 52.538ZM536.001-620.001H680L500.001-800 680-620.001 500.001-800v143.999q0 15.3 10.35 25.65 10.35 10.35 25.65 10.35Zm-323.692 520q-29.827 0-51.067-21.241-21.241-21.24-21.241-51.067v-615.382q0-29.827 21.241-51.067 21.24-21.241 51.067-21.241h287.769q14.632 0 27.893 5.616 13.26 5.615 23.107 15.461l167.844 167.844q9.846 9.847 15.461 23.107 5.616 13.261 5.616 27.893v35.309q0 15.491-12.154 25.515-12.154 10.024-28.231 7.408-8-1-16.487-1.5-8.487-.5-16.974-.5-57.385 0-107.5 22.462-50.116 22.462-86.577 61.385H320q-12.75 0-21.374 8.628-8.625 8.629-8.625 21.384 0 12.756 8.625 21.371 8.624 8.615 21.374 8.615h109.308q-12.077 22.847-19.616 48.039-7.538 25.193-9.385 51.963H320q-12.75 0-21.374 8.628-8.625 8.629-8.625 21.384 0 12.756 8.625 21.371 8.624 8.615 21.374 8.615h81.077q4.23 27.846 13.654 53.808 9.423 25.961 24.269 50.192 9.846 15.461 2.093 30.73-7.753 15.27-24.17 15.27H212.309Z"/></svg>