<svg xmlns="http://www.w3.org/2000/svg" height="24" viewBox="0 -960 960 960" width="24"><path d="M360-490.001q29.154 0 49.576-20.423 20.423-20.422 20.423-49.576t-20.423-49.576Q389.154-629.999 360-629.999t-49.576 20.423Q290.001-589.154 290.001-560t20.423 49.576q20.422 20.423 49.576 20.423Zm240 0q29.154 0 49.576-20.423 20.423-20.422 20.423-49.576t-20.423-49.576Q629.154-629.999 600-629.999t-49.576 20.423Q530.001-589.154 530.001-560t20.423 49.576q20.422 20.423 49.576 20.423Zm-250.001 350v-137.691q0-5.385 3.462-8.847 3.462-3.462 8.847-3.462h87.693v150H349.999Zm160 0v-150h87.693q5.385 0 8.847 3.462 3.462 3.462 3.462 8.847v137.691H509.999Zm-297.69 0q-29.827 0-51.067-21.241-21.241-21.24-21.241-51.067V-600q0-91.666 64.167-155.832Q268.334-819.999 360-819.999h240q91.666 0 155.832 64.167Q819.999-691.666 819.999-600v387.691q0 29.827-21.241 51.067-21.24 21.241-51.067 21.241h-77.692v-137.691q0-29.827-21.24-51.067t-51.067-21.24H362.308q-29.827 0-51.067 21.24t-21.24 51.067v137.691h-77.692Z"/></svg>