<svg xmlns="http://www.w3.org/2000/svg" height="24" viewBox="0 -960 960 960" width="24"><path d="M180.001-200v-547.691q0-29.827 21.241-51.067 21.24-21.241 51.067-21.241h455.382q29.827 0 51.067 21.241 21.241 21.24 21.241 51.067V-200h50q12.75 0 21.375 8.629 8.625 8.628 8.625 21.384 0 12.755-8.625 21.37-8.625 8.616-21.375 8.616H130.001q-12.75 0-21.375-8.629t-8.625-21.384q0-12.756 8.625-21.371Q117.251-200 130.001-200h50ZM240-200h480v-248.078H509.999v88.925q12.846 8.077 20.269 20.769 7.423 12.692 7.423 28.384 0 23.901-16.915 40.796-16.916 16.895-40.846 16.895-23.93 0-40.776-16.895-16.845-16.895-16.845-40.796 0-15.692 7.423-28.077 7.423-12.384 20.269-20.461v-89.54H240V-200Z"/></svg>