<svg xmlns="http://www.w3.org/2000/svg" height="24" viewBox="0 -960 960 960" width="24"><path d="m179.001-486.846 201.383-289.921q6.231-8.231 14.269-10.539 8.039-2.308 16.269.308 8.231 2.615 13.654 9.231 5.423 6.615 5.423 16.461v295.152q0 15.461-10.346 25.807-10.346 10.346-25.807 10.346H208.539q-10.846 0-18.884-5.423-8.039-5.423-12.654-13.654-4.615-8.23-4.423-18.384.192-10.154 6.423-19.384Zm381.461 56.845q-21.154 0-29.269-15.692-8.115-15.692-2.884-33.923 8.846-36.846 15.269-84.654 6.423-47.807 6.423-95.73 0-49.846-6.231-99.692t-15.077-89.769q-2-8.615.693-15.038 2.692-6.423 8.307-10.654 5.616-4.615 13.039-5.731 7.423-1.115 14.653 3.27 55.769 30.154 99.423 74.846 43.653 44.692 77.346 98.769 33.538 53.538 55.538 112.499 21.999 58.961 28.153 121.961 2 15.846-9.153 27.692-11.154 11.846-27 11.846h-229.23ZM360-197.692q-26.385 0-50.462-10.308-24.077-10.307-45.231-26.154-5.615-4.23-11.653-5.846-6.039-1.615-12.269-1.23-6.231.384-11.962 2.5-5.73 2.115-10.346 6.73-7.461 6.846-15.961 12t-17.577 9q-23.846-18.231-43-41-19.153-22.769-30.923-49.846-8-17.076 3.77-32.615 11.769-15.538 30.23-15.538h670.768q18.461 0 29.423 15.23 10.961 15.231 4.577 32.923-13.385 26.692-31.731 49.654-18.346 22.961-42.192 41.192-8.692-3.846-17.577-9.192Q749-225.538 741.923-232q-4.616-4.615-10.346-6.73-5.731-2.116-11.962-2.5-6.23-.385-12.269.923-6.038 1.307-11.653 5.538-21.154 15.846-45.231 26.462-24.077 10.615-50.462 10.615-27.154 0-52.039-11.308-24.884-11.307-46.423-27.538-4.615-3.846-9.961-5.654Q486.231-244 480-244t-11.577 1.808q-5.346 1.808-9.961 5.654-21.539 16.231-46.423 27.538-24.885 11.308-52.039 11.308ZM480-81.155q-30.154 15.77-60.154 23.462-30 7.692-59.846 7.692-29.846 0-59.846-7.692-30-7.692-60.154-23.462-30.154 15.77-60.154 23.462-30 7.692-59.846 7.692-12.769 0-21.384-8.615T90-80q0-11.769 10.846-16.73Q111.693-101.692 120-110q27.769 0 53.462-9.5 25.692-9.5 50.461-21.5 4.231-2 8.039-2.808 3.807-.808 8.038-.808t8.038.808q3.808.808 8.039 2.808 24.769 12 50.461 21.192 25.693 9.192 53.462 9.192 27.769 0 53.462-9.192 25.692-9.192 50.461-21.192 4.231-2 8.039-2.808 3.807-.808 8.038-.808t8.038.808q3.808.808 8.039 2.808 24.769 12 50.461 21.192 25.693 9.192 53.462 9.192 27.769 0 53.462-9.192 25.692-9.192 50.461-21.192 3.231-1.616 16.077-3.616 1.615 0 16.077 3.616 24.769 12 50.461 21.5 25.693 9.5 53.462 9.5 12.769 0 21.384 8.615T869.999-80q0 11.769-10.846 16.73Q848.307-58.308 840-50q-29.846 0-59.846-7.693-30-7.692-60.154-23.462-30.154 15.77-60.154 23.462-30 7.692-59.846 7.692-29.846 0-59.846-7.692-30-7.692-60.154-23.462Z"/></svg>