<svg xmlns="http://www.w3.org/2000/svg" height="24" viewBox="0 -960 960 960" width="24"><path d="M212.309-140.001q-30.308 0-51.308-21t-21-51.308v-535.382q0-30.308 21-51.308t51.308-21h429.306q14.632 0 27.893 5.616 13.261 5.615 23.107 15.461l106.307 106.307q9.846 9.846 15.461 23.107 5.616 13.261 5.616 27.893v429.306q0 30.308-21 51.308t-51.308 21H212.309Zm267.6-129.232q41.629 0 70.859-29.14 29.231-29.14 29.231-70.768T550.859-440q-29.14-29.23-70.768-29.23-41.629 0-70.859 29.14-29.231 29.14-29.231 70.768t29.14 70.859q29.14 29.23 70.768 29.23Zm-188.37-295.383h256.067q15.547 0 25.893-10.394t10.346-25.759v-67.692q0-15.365-10.394-25.759t-25.76-10.394H291.625q-15.547 0-25.893 10.394t-10.346 25.759v67.692q0 15.365 10.394 25.759t25.759 10.394Z"/></svg>