<svg xmlns="http://www.w3.org/2000/svg" height="24" viewBox="0 -960 960 960" width="24"><path d="M838.306-391.923 568.077-121.694q-10.901 10.846-24.528 16.27-13.626 5.423-27.183 5.423-13.558 0-27.116-5.423-13.557-5.424-24.403-16.27L121.078-465.078q-10.23-9.846-15.654-23.106-5.423-13.261-5.423-27.893v-271.23q0-29.985 21.193-51.338 21.192-21.354 51.499-21.354h271.23q14.488 0 28.071 5.875 13.583 5.875 23.544 15.818l342.768 343.384q10.997 10.901 16.037 24.527 5.04 13.626 5.04 27.326 0 13.7-5.04 26.943-5.04 13.243-16.037 24.203Zm-577.31-256.924q20.927 0 35.542-14.583 14.615-14.583 14.615-35.416 0-20.993-14.583-35.689-14.583-14.695-35.416-14.695-20.993 0-35.689 14.649-14.695 14.649-14.695 35.577 0 20.927 14.649 35.542 14.649 14.615 35.577 14.615Z"/></svg>