<svg xmlns="http://www.w3.org/2000/svg" height="24" viewBox="0 -960 960 960" width="24"><path d="M417.154-100.001q-12.384 0-21.922-8.308-9.538-8.307-11.154-21.076l-11.615-92.462q-16.077-5.385-32.962-15.077-16.885-9.693-30.193-20.77L240-228.232q-18.846 8.307-37.884 1.615t-29.576-24.307l-45.077-78.154q-10.538-17.615-6.077-37.268 4.462-19.653 20.461-32.422l59.924-45.001q-1.385-8.923-1.962-17.923-.577-9-.577-17.923 0-8.539.577-17.347.577-8.808 1.962-19.269l-59.924-45.001q-15.999-12.769-20.269-32.614-4.269-19.846 6.27-37.461l44.692-77q10.538-17.23 29.576-24.115 19.038-6.884 37.884 1.423l68.923 29.078q14.462-11.462 30.885-20.962 16.424-9.501 32.27-15.27L381.617-813q2.615-20.461 17.615-33.73 14.999-13.269 35.461-13.269h90.23q20.461 0 35.653 13.269T578.383-813l9.154 75.232q18 6.538 32.578 15.269 14.577 8.731 29.423 20.578l69.616-29.078q18.846-8.307 38.192-1.423 19.345 6.885 29.884 24.115l44.692 77.385q10.538 17.615 6.384 37.268-4.154 19.653-20.153 32.422l-70.077 52.923q.769 1.924.961 3.462.193 1.539.577 3.462-5.999 9.539-16.538 15.462Q722.538-480 708.922-480l-108.231-.385q0-49.537-35.538-84.576-35.538-35.038-85.076-35.038-50.153 0-84.884 34.731-34.73 34.73-34.73 84.883 0 39.538 22.115 69.961 22.115 30.423 57.422 43.269v240.462q0 10.923-6.461 18.807-6.462 7.885-16.385 7.885Zm366.306 0H564.231q-15.461 0-26-10.539-10.538-10.538-10.538-26v-219.229q0-15.461 10.538-26 10.539-10.538 26-10.538H783.46q15.462 0 26 10.538 10.539 10.539 10.539 26v73.076l57.615-57.614q4.615-4.616 10.038-2.308t5.423 8.538v175.845q0 6.231-5.423 8.539-5.423 2.307-10.038-2.308l-57.615-57.615v73.076q0 15.462-10.539 26-10.538 10.539-26 10.539Z"/></svg>