<svg xmlns="http://www.w3.org/2000/svg" height="24" viewBox="0 -960 960 960" width="24"><path d="M450.001-509.999v-306.922q0-12.75 8.628-21.375 8.629-8.625 21.384-8.625 12.756 0 21.371 8.625 8.615 8.625 8.615 21.375v306.922q0 12.749-8.628 21.374Q492.742-480 479.987-480q-12.756 0-21.371-8.625-8.615-8.625-8.615-21.374Zm30.06 289.998q-125.599 0-212.829-87.188Q180.001-394.376 180.001-520q0-66.846 28.077-125.923t77.847-101.769q10.538-8.923 24.114-8.807 13.577.115 23.5 10.038 8.692 8.692 7 20.653-1.693 11.962-11.615 20.269-41.078 34.385-65.001 82.5Q240-574.923 240-520q0 100 70 170t170 70q100 0 170-70t70-170q0-55.39-23.731-103.464-23.731-48.075-65.193-82.075-9.922-8.307-11.422-20.443-1.5-12.136 6.807-20.479 9.837-9.786 23.456-10.162 13.62-.376 24.158 8.931 49.385 43.462 77.654 102.346 28.27 58.885 28.27 125.346 0 125.624-87.17 212.811-87.169 87.188-212.768 87.188ZM320-4.616q-14.692 0-25.038-10.346T284.616-40q0-14.692 10.346-25.038T320-75.384q14.692 0 25.038 10.346T355.384-40q0 14.692-10.346 25.038T320-4.616Zm160 0q-14.692 0-25.038-10.346T444.616-40q0-14.692 10.346-25.038T480-75.384q14.692 0 25.038 10.346T515.384-40q0 14.692-10.346 25.038T480-4.616Zm160 0q-14.692 0-25.038-10.346T604.616-40q0-14.692 10.346-25.038T640-75.384q14.692 0 25.038 10.346T675.384-40q0 14.692-10.346 25.038T640-4.616Z"/></svg>