<svg xmlns="http://www.w3.org/2000/svg" height="24" viewBox="0 -960 960 960" width="24"><path d="m699.077-739.077-53.692-24.462q-10.846-4.615-10.846-16.461 0-11.846 10.846-16.461l53.692-24.462 24.462-53.692q4.615-10.846 16.461-10.846 11.846 0 16.461 10.846l24.462 53.692 53.692 24.462q10.846 4.615 10.846 16.461 0 11.846-10.846 16.461l-53.692 24.462-24.462 53.692q-4.615 10.846-16.461 10.846-11.846 0-16.461-10.846l-24.462-53.692ZM320-340.001q-107.922 0-183.961-76.038Q60.002-492.078 60.002-600q0-107.922 76.037-183.961Q212.078-859.999 320-859.999q107.922 0 183.961 76.038Q579.999-707.922 579.999-600q0 107.922-76.038 183.961Q427.922-340.001 320-340.001Zm92.309 240q-29.923 0-51.115-21.193-21.193-21.192-21.193-51.115v-43.076q0-13.462 8.847-22.5 8.846-9.039 21.922-11.423 7.154-1.231 14.615-2.346 7.461-1.116 14.615-2.962 98.077-26 169.654-96.346Q641.23-421.308 665.384-520q1.846-7.154 2.962-14.615 1.115-7.461 2.346-14.615 2.384-13.076 11.73-21.922 9.347-8.847 22.193-8.847h83.076q29.923 0 51.115 21.193 21.193 21.192 21.193 51.115v335.382q0 29.923-21.193 51.115-21.192 21.193-51.115 21.193H412.309Z"/></svg>