<svg xmlns="http://www.w3.org/2000/svg" height="24" viewBox="0 -960 960 960" width="24"><path d="m161.463-161.463 637.074-637.074q17.077-17.077 39.269-7.671 22.193 9.406 22.193 33.593v87.23q0 12.75-8.629 21.375-8.629 8.624-21.384 8.624-12.756 0-21.371-8.624Q800-672.635 800-685.385v-29.694L244.921-160H680q12.75 0 21.375 8.629 8.624 8.628 8.624 21.384 0 12.755-8.624 21.37-8.625 8.616-21.375 8.616H187.385q-24.187 0-33.593-22.193-9.406-22.192 7.671-39.269Zm668.55 66.077q-14.706 0-24.667-9.948-9.962-9.948-9.962-24.653 0-14.706 9.948-24.667 9.948-9.962 24.654-9.962 14.705 0 24.667 9.948 9.961 9.948 9.961 24.654 0 14.705-9.948 24.667-9.948 9.961-24.653 9.961ZM800-274.615v-263.079q0-12.749 8.629-21.374 8.628-8.625 21.384-8.625 12.755 0 21.37 8.625 8.616 8.625 8.616 21.374v263.079q0 12.75-8.629 21.374-8.629 8.625-21.384 8.625-12.756 0-21.371-8.625Q800-261.865 800-274.615Z"/></svg>