<svg xmlns="http://www.w3.org/2000/svg" height="24" viewBox="0 -960 960 960" width="24"><path d="M162.308-290.001q-29.827 0-51.067-21.24t-21.24-51.067v-235.384q0-29.827 21.24-51.067t51.067-21.24h635.384q29.827 0 51.067 21.24t21.24 51.067v235.384q0 29.827-21.24 51.067t-51.067 21.24h-5.385q-12.75 0-21.374-8.628-8.625-8.629-8.625-21.384 0-12.756 8.625-21.371 8.624-8.615 21.374-8.615h5.385q5.385 0 8.847-3.462 3.462-3.462 3.462-8.847v-235.384q0-5.385-3.462-8.847-3.462-3.462-8.847-3.462H162.308q-5.385 0-8.847 3.462-3.462 3.462-3.462 8.847v235.384q0 5.385 3.462 8.847 3.462 3.462 8.847 3.462h205.385q12.75 0 21.374 8.628 8.625 8.629 8.625 21.384 0 12.756-8.625 21.371-8.624 8.615-21.374 8.615H162.308Zm377.923-10.23-69.226-31.457q-5.466-2.697-5.466-8.235 0-5.538 5.616-8.308l69.076-31.538 31.457-69.226q2.697-5.466 8.235-5.466 5.538 0 8.308 5.616l31.538 69.076 69.226 31.457q5.466 2.697 5.466 8.235 0 5.538-5.616 8.308l-69.076 31.538-31.457 69.226q-2.697 5.466-8.235 5.466-5.538 0-8.308-5.616l-31.538-69.076Zm114.694-154.694-36.848-16.844q-5.616-2.77-5.616-8.308t5.616-8.154l36.848-16.844 16.844-36.848q2.77-5.616 8.308-5.616t8.154 5.616l16.844 36.848 36.848 16.844q5.616 2.77 5.616 8.308t-5.616 8.154l-36.848 16.844-16.844 36.848q-2.77 5.616-8.308 5.616t-8.154-5.616l-16.844-36.848Z"/></svg>