<svg xmlns="http://www.w3.org/2000/svg" height="24" viewBox="0 -960 960 960" width="24"><path d="M79.23-229.999H300q45.693 0 75.924-27.924 30.231-27.923 30.231-72.847l-116.539-34.154L78.077-250.77q-3.462 1.923-6.154 4.231-2.693 2.308-2.693 6.539t2.885 7.116q2.885 2.885 7.116 2.885Zm863.462-13.847q0 4.461-1.423 9.115-1.423 4.653-4.039 8.5-15.23 26-41.576 41.115-26.347 15.115-56.423 15.115h-200q-12.769 0-21.384-8.615-8.616-8.615-8.616-21.384t8.616-21.384q8.615-8.615 21.384-8.615h102.002L637.385-330.001H466.153q0 69.077-47.769 114.539-47.77 45.461-118.385 45.461H79.231q-33.385 0-51.692-21.923Q9.23-213.846 9.23-240q0-17.692 9.039-34.192 9.038-16.5 27.961-26.961l162.309-88.309-139.155-40.539q-22-6.461-31.192-26.961-9.192-20.499 1.115-40.884l30.539-61.308q6.846-13.538 20.192-20.692 13.346-7.153 28.884-5.538l323 36.154 134.693-100.616-40.077-36.693q-1.923-1.923-4.039-2.692-2.115-.77-4.423-.77h-56.539q-12.769 0-21.384-8.615T441.539-720q0-12.769 8.615-21.384t21.384-8.615h57.154q13.462 0 26.308 4.615t22.692 14.462l265.846 247.461q14.769 13.154 20.231 26.769 5.461 13.615 5.461 26.692 0 39.154-30.692 69.576-30.692 30.423-93.846 30.423h-23.848l107.54 100.002h10.847q13.462 0 25.731-6.808 12.269-6.808 19.577-19.424 4.462-7.692 11.654-12.653 7.192-4.962 15.884-4.962 12.769 0 21.692 8.615 8.923 8.616 8.923 21.385Z"/></svg>