<svg xmlns="http://www.w3.org/2000/svg" height="24" viewBox="0 -960 960 960" width="24"><path d="M392.307-200Q362-200 341-221q-21-21-21-51.307v-555.384q0-30.308 21-51.308t51.307-21h355.384q30.308 0 51.308 21t21 51.308v555.384q0 30.307-21 51.307-21 21-51.308 21H392.307Zm177.692-463.846q23.462 0 39.808-16.347 16.346-16.346 16.346-39.807 0-23.461-16.346-39.807-16.346-16.347-39.808-16.347-23.461 0-39.807 16.347-16.346 16.346-16.346 39.807 0 23.461 16.346 39.807 16.346 16.347 39.807 16.347Zm0 345.385q54.154 0 92.077-37.923 37.923-37.923 37.923-92.077 0-54.153-37.923-92.076-37.923-37.923-92.077-37.923-54.153 0-92.076 37.923Q440-502.614 440-448.461q0 54.154 37.923 92.077 37.923 37.923 92.076 37.923Zm0-59.999q-28.846 0-49.423-20.577t-20.577-49.424q0-28.846 20.577-49.423t49.423-20.577q28.847 0 49.424 20.577Q640-477.307 640-448.461q0 28.847-20.577 49.424-20.577 20.577-49.424 20.577Zm20 318.458h-337.69q-30.308 0-51.308-21-21-20.999-21-51.307v-577.69q0-12.769 8.616-21.384 8.615-8.616 21.384-8.616t21.384 8.616Q240-722.768 240-709.999v577.69q0 5.385 3.462 8.847 3.462 3.462 8.847 3.462h337.69q12.769 0 21.384 8.615 8.616 8.615 8.616 21.384 0 12.77-8.616 21.384Q602.768-60 589.999-60Z"/></svg>