<svg xmlns="http://www.w3.org/2000/svg" height="24" viewBox="0 -960 960 960" width="24"><path d="M283.077-409.231q14.692 0 25.038-10.347 10.346-10.346 10.346-25.038t-10.346-25.038Q297.769-480 283.077-480t-25.038 10.346q-10.346 10.346-10.346 25.038t10.346 25.038q10.346 10.347 25.038 10.347Zm0-115.385q14.692 0 25.038-10.346T318.461-560q0-14.692-10.346-25.038t-25.038-10.346q-14.692 0-25.038 10.346T247.693-560q0 14.692 10.346 25.038t25.038 10.346Zm0-115.384q14.692 0 25.038-10.346t10.346-25.038q0-14.692-10.346-25.038-10.346-10.347-25.038-10.347t-25.038 10.347q-10.346 10.346-10.346 25.038t10.346 25.038Q268.385-640 283.077-640Zm151.538 225.384H560q12.75 0 21.375-8.629 8.624-8.629 8.624-21.384 0-12.756-8.624-21.371-8.625-8.615-21.375-8.615H434.615q-12.75 0-21.374 8.629-8.625 8.628-8.625 21.384 0 12.755 8.625 21.37 8.624 8.616 21.374 8.616Zm0-115.385H680q12.75 0 21.375-8.628 8.624-8.629 8.624-21.384 0-12.756-8.624-21.371-8.625-8.615-21.375-8.615H434.615q-12.75 0-21.374 8.628-8.625 8.629-8.625 21.384 0 12.756 8.625 21.371 8.624 8.615 21.374 8.615Zm0-115.384H680q12.75 0 21.375-8.629 8.624-8.628 8.624-21.384 0-12.755-8.624-21.37-8.625-8.616-21.375-8.616H434.615q-12.75 0-21.374 8.629-8.625 8.629-8.625 21.384 0 12.756 8.625 21.371 8.624 8.615 21.374 8.615ZM241.539-260.001l-80.076 80.076q-17.077 17.076-39.269 7.67-22.193-9.406-22.193-33.593v-581.843q0-30.308 21-51.308t51.308-21h615.382q30.308 0 51.308 21t21 51.308v455.382q0 30.308-21 51.308t-51.308 21H241.539Z"/></svg>