<svg xmlns="http://www.w3.org/2000/svg" height="24" viewBox="0 -960 960 960" width="24"><path d="M259.617-212.309v-250.998q-52-12.847-85.808-51.769-33.808-38.923-33.808-94.923 0-49.923 29.154-88.808 29.154-38.884 77.154-54.499 22.231-47.231 65.038-76.654 42.808-29.423 98.654-29.423 32.692 0 62.423 11.231 29.73 11.23 56.269 33.538 9.231-2.769 17.654-4.269t18.653-1.5q61 0 103.192 44.5 42.192 44.499 42.192 105.499 0 20.462-3.962 37.769-3.961 17.308-12.268 32.615h49.691q31.461 0 53.807 22.154 22.347 22.153 22.347 53.615v224.614q0 31.462-22.347 53.808-22.346 22.346-53.807 22.346h-71.538v11.154q-12.922 22.539-27.961 47.423-15.039 24.885-44.346 24.885H331.924q-29.923 0-51.115-21.193-21.192-21.192-21.192-51.115ZM200-609.999q0 37.231 26.385 63.616 26.385 26.384 63.616 26.384 33.923 0 57.385-20.615 23.461-20.615 47.461-46.615 26.539-28.923 56.692-50.847 30.154-21.923 78.846-21.923h120q2.308-41.846-22.923-71.116-25.231-29.27-62.462-29.27-19.615 0-33.537 4.577-13.923 4.577-18.154 6.885l-26.769-22.538q-12.154-9.77-31.193-18.847-19.038-9.077-45.346-9.077-34.693 0-63.501 18.347-28.807 18.346-44.346 50.423l-12.461 26.154L261.539-695q-28.077 9.154-44.808 32.346Q200-639.461 200-609.999Zm472.307 326.537h71.538q6.539 0 11.347-4.808T760-299.617v-224.614q0-6.924-4.616-11.347-4.615-4.423-11.539-4.423h-71.538v256.539Z"/></svg>