<svg xmlns="http://www.w3.org/2000/svg" height="24" viewBox="0 -960 960 960" width="24"><path d="M224.078-393.461h70.923v-2.693q0-15.365 10.394-25.759t25.76-10.394h297.69q15.366 0 25.76 10.394 10.394 10.394 10.394 25.759v2.693h70.539q10.462 0 17.462-7.308t7-18.385q0-7.308-3.654-13.308t-10.962-9.154L480-559.693 215-441.616q-7.307 3.154-11.154 9.154-3.846 6-3.846 13.308 0 11.077 6.772 18.385 6.772 7.308 17.306 7.308Zm107.077 293.46q-15.366 0-25.76-10.395-10.394-10.394-10.394-25.759v-197.308h-70.923q-35.032 0-59.554-24.639-24.523-24.64-24.523-59.84 0-25.519 13.885-47.135 13.884-21.615 36.807-32.076l259.308-115.231v-37.924q-34.462-9.923-56.077-38.115-21.615-28.192-21.615-63.884 0-44.872 31.41-76.282 31.41-31.41 76.281-31.41 33.932 0 60.273 18.693 26.342 18.692 38.803 47.615 5.077 11.538 0 23.076T562.461-754q-11.538 5.077-22.884.308T523.154-770q-5.854-13.2-16.979-21.6-11.124-8.4-26.346-8.4-19.906 0-33.714 13.712-13.808 13.711-13.808 33.981 0 20.269 13.712 33.981 13.712 13.712 33.981 13.712 12.75 0 21.374 8.624 8.625 8.625 8.625 21.375v62.231l258.923 115.231q22.896 10.544 36.986 32.072 14.091 21.528 14.091 47.01 0 35.147-24.635 59.878-24.634 24.73-59.826 24.73h-70.539v197.308q0 15.365-10.394 25.759-10.394 10.395-25.76 10.395h-297.69Z"/></svg>