<svg xmlns="http://www.w3.org/2000/svg" height="24" viewBox="0 -960 960 960" width="24"><path d="M229.999-478.461q0 57.438 23.616 105.834 23.615 48.397 74.847 93.706v-79.54q0-12.75 8.629-21.375 8.628-8.625 21.384-8.625 12.755 0 21.371 8.625 8.615 8.625 8.615 21.375v149.23q0 15.365-10.394 25.759-10.395 10.394-25.76 10.394h-149.23q-12.75 0-21.374-8.629-8.625-8.628-8.625-21.384 0-12.755 8.625-21.37 8.624-8.615 21.374-8.615h86.309q-61.385-53.232-90.385-114.463-29-61.23-29-131.061 0-91.169 47.461-165.438 47.462-74.269 124.154-113.115 10.923-6.077 22.768-1.193 11.846 4.885 15.692 17.039 3.846 12.153-1.172 23.509t-15.827 17.413q-59.847 31.769-96.462 90.923-36.616 59.154-36.616 131.001Zm530.028-.77q-12.796 0-21.411-8.615-8.615-8.615-10.461-21.384-5.077-47.462-28.039-88.501-22.962-41.039-68.578-82.963v79.155q0 12.75-8.629 21.375-8.628 8.625-21.384 8.625-12.755 0-21.371-8.625-8.615-8.625-8.615-21.375v-149.23q0-15.365 10.394-25.759 10.395-10.394 25.76-10.394h149.23q12.75 0 21.374 8.629 8.625 8.628 8.625 21.384 0 12.755-8.625 21.37-8.624 8.615-21.374 8.615h-86.309q60.001 52.309 86.232 107.424 26.23 55.116 31.307 110.27 1.231 12.769-7.049 21.384-8.28 8.615-21.077 8.615ZM643.077-85.385q-15.846 0-27.154-11.308-11.307-11.307-11.307-27.153v-113.846q0-15.846 11.307-27.154 11.308-11.308 27.154-11.308H645v-40q0-31.461 21.962-53.422 21.961-21.962 53.423-21.962 31.461 0 53.422 21.962 21.962 21.961 21.962 53.422v40h1.923q16.019 0 26.856 11.308 10.836 11.308 10.836 27.154v113.846q0 15.846-11.307 27.153-11.308 11.308-27.154 11.308H643.077Zm37.308-190.769h80v-40q0-17-11.5-28.5t-28.5-11.5q-17 0-28.5 11.5t-11.5 28.5v40Z"/></svg>