<svg xmlns="http://www.w3.org/2000/svg" height="24" viewBox="0 -960 960 960" width="24"><path d="m437-487.537-63.924-63.923q-8.307-8.308-20.576-8.808t-21.576 8.808q-8.693 8.692-8.693 21.076t8.693 21.077l80.769 80.999q10.846 10.846 25.307 10.846 14.461 0 25.307-10.846l175.615-165.384q1.923-11.384.693-22.73-1.231-11.346-9.923-20.038-9.308-9.308-21.384-9.308-12.077 0-21.384 9.308L437-487.537ZM55.386-150.771v-59.999h819.229q12.769 0 21.384 8.615t8.615 21.384q0 12.769-8.615 21.384-8.615 8.616-21.384 8.616H55.385Zm116.923-99.999q-30.308 0-51.308-21t-21-51.307V-738.46q0-30.307 21-51.307 21-21 51.308-21h615.382q30.308 0 51.308 21t21 51.307v415.383q0 30.307-21 51.307-21 21-51.308 21H172.309Z"/></svg>