<svg xmlns="http://www.w3.org/2000/svg" height="24" viewBox="0 -960 960 960" width="24"><path d="M274.924-114.924q-8.693-8.692-8.693-21.076t8.693-21.076L464.77-347.538Q485.462-368.23 516-368.23q30.538 0 51.23 20.692l79.923 79.923q3.462 3.462 8.847 3.462t8.847-3.462l177.077-177.077q8.922-8.923 20.884-9.115 11.961-.192 21.268 9.115 9.308 9.308 9.308 21.384 0 12.077-9.308 21.384L707.23-224.462q-20.692 20.692-50.922 20.692-30.231 0-50.923-20.692L524.847-305q-3.462-3.462-8.847-3.462T507.153-305L317.076-114.924q-8.307 8.308-20.576 8.808t-21.576-8.808Zm-102.615-25.077q-30.308 0-51.308-21t-21-51.308v-535.382q0-30.308 21-51.308t51.308-21h535.382q30.308 0 51.308 21t21 51.308v151.537q0 15.462-10.347 25.808Q759.306-560 743.845-560H160v347.691q0 4.616 3.846 8.463 3.847 3.846 8.463 3.846v59.999Z"/></svg>