<svg xmlns="http://www.w3.org/2000/svg" height="24" viewBox="0 -960 960 960" width="24"><path d="M561.536-180.001q-15.366 0-25.76-10.395-10.394-10.394-10.394-25.759v-131.08L296.465-576.152h-149.54q-15.365 0-25.759-10.394-10.395-10.394-10.395-25.76v-95.385q0-11.988 3.462-22.34 3.462-10.353 10-18.353l-41.77-41.77q-8.307-8.307-8.5-20.884-.191-12.576 8.5-21.268 8.693-8.693 21.077-8.693 12.384 0 21.076 8.693l695.382 695.381q8.307 8.307 8.5 20.884.192 12.577-8.5 21.269-8.692 8.692-21.077 8.692-12.384 0-21.076-8.692l-99.076-99.076q-8 6.539-18.077 10.193-10.077 3.654-22.231 3.654h-76.925Zm149.233-178.923L289.694-779.999h348.767q29.827 0 51.067 21.241 21.241 21.24 21.241 51.067v183.077l109.963-109.964q8.728-8.727 19.766-4.288 11.038 4.439 11.038 16.868v283.996q0 12.429-11.038 16.868-11.038 4.439-19.766-4.288L710.769-435.386v76.462ZM195.309-81.542q-15.077 0-28.182-5.874-13.106-5.875-23.048-15.818L41.157-205.54l9.769-10.154q5.692-6.461 14.079-10.307 8.386-3.846 17.535-3.846 9.308 0 18.192 3.538 8.885 3.539 15.346 10.615l24.693 24.693V-442.69q0-10.333 7.269-17.09 7.269-6.756 16.741-6.756 10.262 0 16.972 6.756 6.709 6.757 6.709 17.09v127.306h35.384v-181.537q0-10.333 7.27-17.089 7.269-6.756 16.741-6.756 10.262 0 16.971 6.756 6.71 6.756 6.71 17.089v181.537h35.384v-149.23q0-10.333 7.269-17.089 7.269-6.756 16.742-6.756 10.261 0 16.971 6.756 6.71 6.756 6.71 17.089v149.23h35.384V-428.46q0-10.333 7.269-17.089 7.269-6.757 16.741-6.757 10.262 0 16.972 6.757 6.709 6.756 6.709 17.089v274.611q0 29.827-20.788 51.067t-51.519 21.24H195.309Z"/></svg>