<svg xmlns="http://www.w3.org/2000/svg" height="24" viewBox="0 -960 960 960" width="24"><path d="M365.923-577.691q22.385-25.308 51.693-38.808 29.307-13.5 62.384-13.5 33.461 0 62.577 13.5 29.115 13.5 51.5 38.808l204.308-113.77-283.231-157.308q-16.462-9.846-35.154-9.846-18.692 0-35.154 9.846L161.615-691.461l204.308 113.77Zm84.078 469.537v-224.539q-52-11.692-86-52.269t-34-95.038q0-12.154 1.577-22.923 1.577-10.77 5.346-21.693L130.001-640.77v312.616q0 20.077 10.038 36.654 10.039 16.576 27.115 26.422l282.847 156.924ZM480-389.999q37.231 0 63.616-26.385 26.385-26.385 26.385-63.616 0-37.231-26.385-63.616-26.385-26.385-63.616-26.385-37.231 0-63.616 26.385-26.385 26.385-26.385 63.616 0 37.231 26.385 63.616 26.385 26.385 63.616 26.385Zm29.999 281.845 282.847-156.924q17.076-9.846 27.115-26.422 10.038-16.577 10.038-36.654V-640.77L623.076-524.616q3.769 11.923 5.346 22.193 1.577 10.269 1.577 22.423 0 54.461-34 95.038t-86 52.269v224.539Z"/></svg>