<svg xmlns="http://www.w3.org/2000/svg" height="24" viewBox="0 -960 960 960" width="24"><path d="M248.001-488q-20.692 0-31.846-16.769t-2.923-34.846q39.692-83.846 109.192-159.845 69.5-76 133.884-132.923 5.615-5 11.538-7.115 5.923-2.116 12.154-2.116t12.654 2.116q6.423 2.115 11.038 7.115 64.384 56.923 133.884 132.923 69.5 75.999 109.192 159.845 8.615 18.077-2.731 34.846Q732.691-488 711.999-488H248.001Zm528.305 120.998q-5.538 34.384-19.768 65.383-14.23 30.999-36.537 56.767l-88.468 88.084q-25.768 22.307-56.575 36.037-30.807 13.73-64.575 18.268l265.923-264.539ZM607.152-408h85.921L397.537-112.848q-16.846-4.231-32.576-9.577-15.731-5.346-30.346-14.038L607.152-408Zm-209.768 0h85.921L265.846-190.541q-11.153-10.923-20.807-22.461-9.654-11.538-17.961-24.692L397.384-408Zm-124.077 0-82.691 82.69q-3.076-11.23-4.499-22.576-1.423-11.345-1.423-22.576-.77-16.077 11.192-26.807Q207.847-408 224.924-408h48.383Z"/></svg>