<svg xmlns="http://www.w3.org/2000/svg" height="24" viewBox="0 -960 960 960" width="24"><path d="M450.001-180.001H172.309q-30.308 0-51.308-21t-21-51.308v-455.382q0-30.308 21-51.308t51.308-21h615.382q30.308 0 51.308 21t21 51.308v157.692q0 12.769-8.616 21.384Q842.768-520 829.999-520t-21.384-8.615Q800-537.23 800-549.999v-157.692q0-5.385-3.462-8.847-3.462-3.462-8.847-3.462H172.309q-5.385 0-8.847 3.462-3.462 3.462-3.462 8.847v455.382q0 5.385 3.462 8.847 3.462 3.462 8.847 3.462h277.692q12.769 0 21.384 8.615T480-210.001q0 12.769-8.615 21.384-8.615 8.616-21.384 8.616Zm-60-188.077v-223.844q0-16.462 14.153-24.192 14.154-7.731 27.616 1.5l174.229 111.922q12.846 8.231 12.846 22.692t-12.846 22.692L431.77-345.386q-13.462 9.231-27.616 1.5-14.153-7.73-14.153-24.192ZM711.769-99.08l-5.923-32.076q-17.385-5-30-12.231-12.616-7.231-24.77-17.923l-31.46 10.692q-6.231 2.384-12.039.461-5.807-1.923-9.423-7.538l-15.153-25.384q-4-5.615-2.385-12.23 1.616-6.616 6.616-11.231l24.538-21.307q-4.693-17.847-4.693-33.693 0-15.846 4.693-33.693l-24.538-21.307q-5-4.615-6.616-11.231-1.615-6.615 2.385-12.23l15.153-25.384q3.616-5.615 9.423-7.538 5.808-1.923 12.039.461l31.46 10.692q12.154-10.692 24.77-17.923 12.615-7.231 30-12.231L711.769-424q1.616-6.615 5.923-10.923 4.308-4.308 11.539-4.308h29.537q7.231 0 11.538 4.308 4.308 4.308 5.923 10.923l5.923 32.076q17.385 5 30.001 12.539 12.615 7.538 24.769 18.846l30.845-11.923q6.231-2.384 12.347-.461 6.115 1.923 9.73 7.538l15.153 26.614q4 5.616 2.693 12.231-1.308 6.615-6.308 11.231l-25.153 21.307q4.692 16.616 4.692 33.077 0 16.462-4.692 33.078l24.538 21.307q5 4.615 6.615 11.231 1.615 6.615-2.385 12.23l-15.153 25.384q-3.615 5.615-9.423 7.538-5.807 1.923-12.038-.461l-31.461-10.692q-12.154 10.692-24.769 17.923-12.616 7.231-30.001 12.231l-5.923 32.076q-1.615 6.615-5.923 10.923-4.307 4.308-11.538 4.308h-29.537q-7.231 0-11.539-4.308-4.307-4.308-5.923-10.923Zm32.23-79.383q34.154 0 58.616-24.461 24.461-24.462 24.461-58.616 0-34.154-24.461-58.616-24.462-24.461-58.616-24.461-34.154 0-58.615 24.461-24.462 24.462-24.462 58.616 0 34.154 24.462 58.616 24.461 24.461 58.615 24.461Z"/></svg>