<svg xmlns="http://www.w3.org/2000/svg" height="24" viewBox="0 -960 960 960" width="24"><path d="M754.229-619.999q-22.692 0-38.461-15.769-15.769-15.769-15.769-38.461v-51.539q0-23.077 15.769-38.654 15.769-15.577 38.461-15.577h51.539q23.077 0 38.654 15.577 15.577 15.577 15.577 38.654v51.539q0 22.692-15.577 38.461-15.577 15.769-38.654 15.769h-51.539Zm0 219.999q-22.692 0-38.461-15.769-15.769-15.769-15.769-38.461v-51.54q0-23.076 15.769-38.653Q731.537-560 754.229-560h51.539q23.077 0 38.654 15.577 15.577 15.577 15.577 38.653v51.54q0 22.692-15.577 38.461Q828.845-400 805.768-400h-51.539Zm-581.92 219.999q-30.308 0-51.308-21t-21-51.308v-455.382q0-30.308 21-51.308t51.308-21h395.384q30.307 0 51.307 21 21 21 21 51.308v455.382q0 30.308-21 51.308t-51.307 21H172.309Zm581.92 0q-22.692 0-38.461-15.77-15.769-15.769-15.769-38.461v-51.539q0-23.077 15.769-38.654 15.769-15.576 38.461-15.576h51.539q23.077 0 38.654 15.576 15.577 15.577 15.577 38.654v51.539q0 22.692-15.577 38.461-15.577 15.77-38.654 15.77h-51.539Z"/></svg>