<svg xmlns="http://www.w3.org/2000/svg" height="24" viewBox="0 -960 960 960" width="24"><path d="M320-220.001q-108.642 0-184.32-75.657-75.679-75.657-75.679-184.268 0-108.612 75.679-184.342 75.678-75.731 184.32-75.731h320q108.642 0 184.32 75.657 75.679 75.657 75.679 184.268 0 108.612-75.679 184.342-75.678 75.731-184.32 75.731H320Zm16.154-236.153V-390q0 10.333 6.752 17.089 6.751 6.757 17.076 6.757t17.095-6.757q6.769-6.756 6.769-17.089v-66.154H450q10.333 0 17.089-6.752 6.757-6.751 6.757-17.076t-6.757-17.095q-6.756-6.769-17.089-6.769h-66.154V-570q0-10.333-6.752-17.089-6.751-6.757-17.076-6.757t-17.095 6.757q-6.769 6.756-6.769 17.089v66.154H270q-10.333 0-17.089 6.752-6.757 6.751-6.757 17.076t6.757 17.095q6.756 6.769 17.089 6.769h66.154Zm290-90V-390q0 10.333 6.752 17.089 6.751 6.757 17.076 6.757t17.095-6.757q6.769-6.756 6.769-17.089v-167.692q0-15.365-10.394-25.76-10.395-10.394-25.76-10.394H590q-10.333 0-17.089 6.752-6.757 6.751-6.757 17.076t6.757 17.095q6.756 6.769 17.089 6.769h36.154Z"/></svg>