<svg xmlns="http://www.w3.org/2000/svg" height="24" viewBox="0 -960 960 960" width="24"><path d="M588.462-178.463h-92.308v54.616q0 10.333-6.752 17.089-6.751 6.757-17.076 6.757-10.326 0-17.095-6.757-6.769-6.756-6.769-17.089V-300.77q0-11.461 7.923-19.192t19.385-7.731h112.692q19 0 33.346 14.442 14.346 14.442 14.346 34.019v53.078q0 19.256-14.218 33.473-14.218 14.218-33.474 14.218Zm149.23-21.538v76.154q0 10.333-6.751 17.089-6.751 6.757-17.077 6.757-10.325 0-17.094-6.757-6.769-6.756-6.769-17.089v-180q0-10.333 6.751-17.09 6.751-6.756 17.077-6.756 10.325 0 17.094 6.756 6.769 6.757 6.769 17.09v56.154h92.309v-56.154q0-10.333 6.751-17.09 6.751-6.756 17.077-6.756 10.325 0 17.094 6.756 6.769 6.757 6.769 17.09v180q0 10.333-6.751 17.089-6.751 6.757-17.077 6.757-10.325 0-17.094-6.757-6.769-6.756-6.769-17.089v-76.154h-92.309Zm-241.538-26.153h92.308v-53.078h-92.308v53.078ZM400-840.998q6.846 0 12.769 2.308 5.923 2.307 11.538 6.923Q551.922-715.46 617.691-622.692q65.769 92.769 78.538 174.461 2.385 15.846-8.653 28.192-11.039 12.346-28.116 12.346H440.769q-29.826 0-51.067 21.24-21.24 21.241-21.24 51.067v189.154q0 15.846-10.615 26.692t-26.308 10.846q-112.615 0-172.076-88.422Q100.001-285.539 100.001-408q0-87.461 70.077-194.999t205.23-228.768q5.615-4.616 11.731-6.923 6.115-2.308 12.961-2.308Z"/></svg>