<svg xmlns="http://www.w3.org/2000/svg" height="24" viewBox="0 -960 960 960" width="24"><path d="M347.615-130.001q-54.769 0-75.23-20-20.462-20-58.385-20-15.539 0-29.5 5.193-13.962 5.192-50.885 26.346-15 8.307-29.499-.308-14.5-8.615-14.5-25.845 0-8.308 4.154-15.308 4.154-6.999 11.461-10.846 47.615-26 65.154-32.615 17.538-6.615 43.615-6.615 53.538 0 73.807 20 20.27 20 58.578 20 39.538 0 59.192-20 19.654-20 74.423-20 53.538 0 74.115 20 20.577 20 58.27 20 39.538 0 59.192-20 19.654-20 74.423-20 26.077 0 43.731 6.615 17.653 6.615 65.038 32.615 7.307 3.847 11.461 10.846 4.154 7 4.154 15.308 0 17.23-14.807 25.845-14.808 8.615-29.807.308-36.539-20.769-50.385-26.154-13.846-5.385-29.385-5.385-37.923 0-57.769 20-19.847 20-74.616 20-53.538 0-74.422-20-20.885-20-59.193-20-39.539 0-58.577 20-19.039 20-73.808 20Zm0-160q-54.769 0-75.23-20-20.462-20-58.385-20-15.539 0-28.885 4.885-13.346 4.885-50.269 26.038-15 8.308-29.807-.307Q90.231-308 90.231-325.231q0-8.307 4.154-15.307t11.461-10.846q47.616-26 64.847-32.308 17.23-6.307 43.307-6.307 53.538 0 73.807 20 20.27 20 58.578 20 39.538 0 59.192-20 19.654-20 74.423-20 53.538 0 74.115 20 20.577 20 58.27 20 39.538 0 59.192-20 19.654-20 74.423-20 26.077 0 43.115 6.307 17.039 6.308 64.423 32.308 7.308 3.846 11.461 10.846 4.154 7 4.154 15.307 0 17.231-14.807 25.846-14.807 8.615-29.807.307-36.539-20.769-49.77-25.846-13.23-5.077-28.769-5.077-37.923 0-57.769 20-19.847 20-74.616 20-53.538 0-74.422-20-20.885-20-59.193-20-39.539 0-58.577 20-19.039 20-73.808 20ZM480-639.231q-63.23 0-112.422-38.923-49.192-38.922-63.5-100.922-3.846-15.923 7.346-28.423 11.192-12.5 28.115-12.5h280.922q16.538 0 27.615 12.5 11.076 12.5 7.846 28.423-14.308 62-63.5 100.922Q543.23-639.231 480-639.231ZM248.078-789.999q0 12.769-8.616 21.384Q230.847-760 218.078-760h-54.232q-12.768 0-21.384-8.615-8.615-8.615-8.615-21.384t8.615-21.384q8.616-8.616 21.384-8.616h54.232q12.769 0 21.384 8.616 8.616 8.615 8.616 21.384Zm53.691 144.307q9.308 8.923 9.115 21.384-.192 12.462-9.115 21.384l-38.385 38.386q-8.308 8.307-20.577 8.307-12.268 0-21.191-8.307-9.308-8.923-9.115-21.384.192-12.462 9.115-21.384l38.385-38.386q8.308-8.307 20.577-8.307 12.268 0 21.191 8.307ZM480-590.384q12.769 0 21.384 8.615t8.615 21.384v54.232q0 12.769-8.615 21.384T480-476.154q-12.769 0-21.384-8.615t-8.615-21.384v-54.232q0-12.769 8.615-21.384T480-590.384Zm178.615-53.923q8.308-8.308 20.692-8.5 12.384-.192 20.692 8.115l39.155 38.386q9.307 8.922 9.615 20.884.307 11.961-9 21.268-9.308 9.308-21.384 9.308-12.077 0-21.384-9.308l-38.77-38.77q-8.308-8.922-8.423-20.691-.115-11.769 8.807-20.692Zm167.538-145.692q0 12.769-8.615 21.384Q808.922-760 796.154-760h-54.232q-12.769 0-21.384-8.615-8.616-8.615-8.616-21.384t8.616-21.384q8.615-8.616 21.384-8.616h54.232q12.768 0 21.384 8.616 8.615 8.615 8.615 21.384Z"/></svg>