<svg xmlns="http://www.w3.org/2000/svg" height="24" viewBox="0 -960 960 960" width="24"><path d="M665.384-64.002q-12.769 0-21.577-8.923Q635-81.847 635-94.617q0-12.768 8.807-21.384 8.808-8.615 21.577-8.615 70.615-.384 120.115-50.077Q835-224.385 835.384-294.616q0-12.769 8.923-21.885 8.923-9.115 21.692-9.115t21.384 9.115q8.615 9.116 8.615 21.885 0 96.153-67.23 163.384-67.231 67.23-163.384 67.23ZM94.616-635q-12.769 0-21.691-8.615-8.923-8.615-8.923-21.384 0-96.153 67.423-163.576 67.423-67.423 163.191-67.423 12.769 0 21.885 8.615 9.115 8.615 9.115 21.384t-9.115 21.692q-9.116 8.923-21.885 8.923-70.615.384-120.115 50.077Q125-735.615 124.616-665.384q0 12.769-8.615 21.577Q107.385-635 94.616-635Zm125.462 414.769q-85.615-85.615-85.423-205.538.192-119.922 86.192-205.922l63.769-64.385q6.154-6.154 15.078-6.154 8.923 0 15.077 6.154 25.538 25.538 26.307 61.653.77 36.115-24.384 61.269l-23.231 22.847q-10.847 10.846-10.847 25.807 0 14.961 10.847 25.807l24.076 24.077q33.308 33.308 25.423 71.654-7.886 38.346-36.963 67.423-7.077 7.077-7.269 17.077-.192 10 7.269 17.077 7.077 7.076 17.077 7.076 10 0 17.076-7.076 44-43.616 51.693-101.269 7.693-57.654-40.769-106.116L335.231-525l18.078-18.078q19.076-19.846 27.384-43.884Q389-611 388.539-636.537l168.615-169q9.307-9.307 21.384-9.307 12.076 0 21.384 9.307 9.307 9.308 9.307 21.384 0 12.077-9.307 21.384L420.615-583.461l53.154 53.154 234.077-233.845q9.307-9.308 21.076-9.308t21.077 9.308q9.307 9.307 9.307 21.076T749.999-722L516.153-487.923l53.154 53.154L775.153-640.23q9.308-9.307 21.384-9.307 12.077 0 21.384 9.307 9.308 9.308 9.308 21.384 0 12.077-9.308 21.385L612.076-392l53.539 53.539L816.46-488.922q9.308-9.307 21.384-9.307 12.077 0 21.385 9.307 9.307 9.308 9.307 21.384 0 12.077-9.307 21.384L632.306-220.231q-85.999 85.999-206.114 85.999-120.115 0-206.114-85.999Z"/></svg>