<svg xmlns="http://www.w3.org/2000/svg" height="24" viewBox="0 -960 960 960" width="24"><path d="M772.001-101.694 439.386-436.308q-41.77 4.308-80.655 19.769-38.885 15.462-70.04 40.155-15.615 10.923-34.383 11.423-18.769.5-31.538-12.884-13.384-13.385-12.077-32.538 1.308-19.153 16.308-30.692 29.539-23.923 65.039-41.962 35.501-18.039 73.656-26.962L247.232-628.462q-32.154 14.384-65.501 35.269-33.347 20.886-62.886 45.809-14.999 12.154-33.96 12.538-18.961.385-31.73-12.999Q39.77-561.23 40.77-579.883t15.615-30.807q28.924-25.693 60.578-47.386 31.655-21.692 63.809-36.846l-66.77-66.77q-8.307-8.308-8.5-20.884-.192-12.577 8.5-21.269 8.692-8.692 21.077-8.692 12.384 0 21.076 8.692l658.999 658.999q9.307 9.307 9.307 21.576t-9.307 21.576q-9.308 8.308-21.577 8.808-12.269.5-21.576-8.808ZM480-131.539q-33.922 0-57.345-23.731-23.423-23.73-23.423-57.037 0-33.923 23.423-57.345 23.423-23.423 57.345-23.423t57.345 23.423q23.423 23.422 23.423 57.345 0 33.307-23.423 57.037-23.423 23.731-57.345 23.731ZM742.23-384.23q-11.384 11.384-26.538 11.077-15.153-.308-26.537-11.692l-9.616-9.616-9.615-9.615-65.229-65.229q-10.692-10.692-3.653-21.999 7.038-11.308 22.422-6.308 31.538 9.462 60.114 24.654 28.576 15.192 53.96 35.268 12.999 10.154 14.538 26.115 1.538 15.961-9.846 27.345Zm165-163.615q-13.154 13.769-31.999 13.307-18.846-.462-34.23-13-73.154-62.846-165.347-97.654Q583.462-680 480-680q-21 0-41.077 1.5Q418.846-677 400-674q-18.461 3.231-33.461-7.807-14.999-11.039-18.23-29.5t8.115-33.46q11.346-15 29.807-18.231 21.308-3.231 44.654-4.731 23.346-1.5 49.115-1.5 122.692 0 230.5 41.885 107.807 41.885 193.115 115.654 14.999 12.769 15.999 31.615 1 18.845-12.384 32.23Z"/></svg>