<svg xmlns="http://www.w3.org/2000/svg" height="24" viewBox="0 -960 960 960" width="24"><path d="M755.371-147.694q-12.756 0-21.371-8.625-8.615-8.625-8.615-21.375v-90h-90.001q-12.749 0-21.374-8.629-8.625-8.629-8.625-21.384 0-12.756 8.625-21.371 8.625-8.615 21.374-8.615h90.001v-90.001q0-12.749 8.629-21.374 8.628-8.625 21.384-8.625 12.755 0 21.37 8.625 8.616 8.625 8.616 21.374v90.001h90q12.75 0 21.375 8.629 8.625 8.628 8.625 21.384 0 12.755-8.625 21.37-8.625 8.616-21.375 8.616h-90v90q0 12.75-8.629 21.375t-21.384 8.625ZM480-172.925q-11.615 0-22.154-4.115-10.538-4.116-19.04-12.617L86.463-542q-11.461-11.462-16.884-25.116-5.423-13.653-5.423-28.73 0-15.846 6.628-31.282 6.629-15.437 20.833-26.333 84.154-62.461 183.358-94.499 99.205-32.039 204.961-32.039 105.756 0 205.025 32.039 99.268 32.038 183.325 94.403 14.328 9.942 21.135 25.403 6.808 15.462 6.808 31.308 0 15.077-5.615 29.23-5.616 14.154-17.077 25.616l-13.846 13.845q-6.202 6.327-15.062 8.587-8.861 2.259-17.092-.971-17.692-5.846-35.897-8.769t-36.41-2.923q-98.921 0-168.46 69.539t-69.539 168.46q0 18.205 2.923 36.41t8.769 35.897q2.615 8.231.615 17.077-2 8.846-8.231 15.077-8.615 8.615-19.153 12.731-10.539 4.115-22.154 4.115Z"/></svg>