<svg xmlns="http://www.w3.org/2000/svg" height="24" viewBox="0 -960 960 960" width="24"><path d="M275.384-235.384h409.232v-214.617H275.384v214.617Zm-23.075 95.383q-29.923 0-51.115-21.193-21.193-21.192-21.193-51.115v-535.382q0-29.923 21.193-51.115 21.192-21.193 51.115-21.193h455.382q29.923 0 51.115 21.193 21.193 21.192 21.193 51.115v535.382q0 29.923-21.193 51.115-21.192 21.193-51.115 21.193H252.309Zm23.075-369.998h169.232v-17.308q0-7.23 5.423-12.654 5.423-5.423 12.654-5.423h34.614q7.231 0 12.654 5.423 5.423 5.424 5.423 12.654v17.308h169.232v-202.308q0-5.385-3.462-8.847-3.462-3.462-8.847-3.462H287.693q-5.385 0-8.847 3.462-3.462 3.462-3.462 8.847v202.308ZM252.309-200h455.382q5.385 0 8.847-3.462 3.462-3.462 3.462-8.847v-535.382q0-5.385-3.462-8.847-3.462-3.462-8.847-3.462H252.309q-5.385 0-8.847 3.462-3.462 3.462-3.462 8.847v535.382q0 5.385 3.462 8.847 3.462 3.462 8.847 3.462Z"/></svg>