<svg xmlns="http://www.w3.org/2000/svg" height="24" viewBox="0 -960 960 960" width="24"><path d="M400-699.999h160v-67.691q0-5.385-3.462-8.847-3.462-3.462-8.847-3.462H412.309q-5.385 0-8.847 3.462Q400-773.075 400-767.69v67.691ZM720-60.001q-74.922 0-127.461-52.538Q540.001-165.078 540.001-240t52.538-127.461Q645.078-419.999 720-419.999t127.461 52.538Q899.999-314.922 899.999-240t-52.538 127.461Q794.922-60.001 720-60.001Zm-547.691-80q-30.308 0-51.308-21t-21-51.308v-415.382q0-30.308 21-51.308t51.308-21h167.692v-67.691q0-30.307 21-51.307 21-21 51.308-21h135.382q30.308 0 51.308 21t21 51.307v67.691h167.692q30.308 0 51.308 21t21 51.308v121q0 16.461-13.77 24.692-13.769 8.231-29.23 1.385-22.923-9.692-47.577-14.538-24.653-4.847-49.422-4.847-107.922 0-183.961 76.038Q460.001-347.922 460.001-240q0 14.154 1.539 28.999 1.538 14.846 5.384 29 3.846 15.846-5.692 28.923-9.538 13.077-25 13.077H172.309Zm565.383-107.23V-340q0-7.231-5.231-12.461-5.23-5.231-12.461-5.231t-12.461 5.231q-5.231 5.23-5.231 12.461v92.154q0 7.231 2.615 13.769 2.616 6.538 8.231 12.154l60.385 60.384q5.23 5.231 12.269 5.423 7.038.193 12.653-5.423 5.616-5.615 5.616-12.461t-5.616-12.461l-60.769-60.77Z"/></svg>