<svg xmlns="http://www.w3.org/2000/svg" height="24" viewBox="0 -960 960 960" width="24"><path d="m237.078-194.925-71.693 71.924q-8.923 8.923-21.192 8.923t-21.192-8.923q-8.923-8.923-8.923-21.192t8.923-21.192l71.924-71.693-65.924-17.231q-11.769-3.846-18.461-14.384-6.692-10.538-2.846-22.307 3.846-11.769 14.384-18.346t22.307-2.731l65.54 17.231-17.616-66.155q-3.846-11.769 2.731-22.307 6.576-10.538 18.345-14.384 11.769-3.846 22.308 2.846 10.538 6.692 14.384 18.461l18.231 65.924 153.924-153.924-65.539-17.616q-11.769-3.846-18.346-14.192t-2.731-22.499q3.846-11.769 14.384-18.654 10.539-6.884 22.307-3.038l64.925 17.616-17.616-65.54q-3.846-11.769 3.038-21.999 6.885-10.231 18.654-14.077t22.307 2.731q10.538 6.577 14.384 18.346l17.616 65.539 153.924-153.924-65.924-18.231q-11.769-3.846-18.461-14.384-6.692-10.539-2.846-22.308t14.384-18.345q10.538-6.577 22.307-2.731l66.155 17.616-17.846-65.54q-3.846-11.769 3.038-22.307 6.885-10.538 18.654-14.384t22.307 2.846q10.538 6.692 14.384 18.461l17.231 65.924 71.693-71.924q8.923-8.923 21.192-8.923t21.192 8.923q8.923 8.923 8.923 21.192t-8.923 21.192l-71.924 71.693 65.924 17.231q11.769 3.846 18.461 14.384 6.692 10.538 2.846 22.307-3.846 11.769-14.384 18.346t-22.307 2.731l-65.54-17.231 17.616 66.155q3.846 11.769-2.731 22.307-6.576 10.538-18.345 14.384-11.769 3.846-22.308-2.846-10.538-6.692-14.384-18.461l-18.231-65.924-153.924 153.924 65.539 17.616q11.769 3.846 18.346 14.192t2.731 22.499q-3.846 11.769-14.384 18.654-10.539 6.884-22.307 3.038l-64.925-17.616 17.616 65.54q3.846 11.769-3.038 21.999-6.885 10.231-18.654 14.077t-22.307-2.731q-10.538-6.577-14.384-18.346l-17.616-65.539-153.924 153.924 65.924 18.231q11.769 3.846 18.461 14.384 6.692 10.539 2.846 22.308t-14.384 18.345q-10.538 6.577-22.307 2.731l-66.155-17.616 17.846 65.54q3.846 11.769-3.038 22.307-6.885 10.538-18.654 14.384t-22.307-2.846q-10.538-6.692-14.384-18.461l-17.231-65.924Z"/></svg>