<svg xmlns="http://www.w3.org/2000/svg" height="24" viewBox="0 -960 960 960" width="24"><path d="m762-762-62-29q-6-3-6-9t6-9l62-29 29-62q3-6 9-6t9 6l29 62 62 29q6 3 6 9t-6 9l-62 29-29 62q-3 6-9 6t-9-6l-29-62Zm-460 0-62-29q-6-3-6-9t6-9l62-29 29-62q3-6 9-6t9 6l29 62 62 29q6 3 6 9t-6 9l-62 29-29 62q-3 6-9 6t-9-6l-29-62Zm460 460-62-29q-6-3-6-9t6-9l62-29 29-62q3-6 9-6t9 6l29 62 62 29q6 3 6 9t-6 9l-62 29-29 62q-3 6-9 6t-9-6l-29-62ZM204-92 92-204q-12-12-12-29t12-29l446-446q12-12 29-12t29 12l112 112q12 12 12 29t-12 29L262-92q-12 12-29 12t-29-12Zm30-84 286-288-56-56-288 286 58 58Z"/></svg>