<svg xmlns="http://www.w3.org/2000/svg" height="24" viewBox="0 -960 960 960" width="24"><path d="m656-696-56-26q-12-5-12-18t12-18l56-26 26-56q5-12 18-12t18 12l26 56 56 26q12 5 12 18t-12 18l-56 26-26 56q-5 12-18 12t-18-12l-26-56ZM554-80q-54 0-91-36t-37-88q0-38 16.5-73.5T488-342q29-29 68.5-49.5T641-419q-3-37-18-56t-42-19q-29 0-64 25t-83 82q-82 96-117.5 124T241-235q-50 0-85.5-38.5T120-366q0-53 23.5-109T223-609q18-26 27.5-44.5T260-682q0-6-3-9t-9-3q-5 0-9 3t-9 7q-17 17-39.5 17T155-679q-15-15-15-36.5t15-35.5q26-25 51.5-37t51.5-12q49 0 74.5 31t25.5 83q0 31-15.5 66.5T295-538q-38 52-56.5 93.5T220-373q0 17 5 26.5t15 9.5q13 0 35.5-22.5T361-455q64-75 114-106.5T581-593q67 0 110.5 45.5T741-425h49q21 0 35.5 14.5T840-375q0 21-14.5 35.5T790-325h-48q-8 112-59 178.5T554-80Zm1-98q32 0 54.5-37T640-317q-47 11-80.5 43T526-210q0 14 8 23t21 9Z"/></svg>