<svg xmlns="http://www.w3.org/2000/svg" height="24" viewBox="0 -960 960 960" width="24"><path d="M200-160q-17 0-28.5-11.5T160-200v-80h160v80q0 17-11.5 28.5T280-160h-80Zm-40-160v-160h160v160H160Zm0-200v-240q0-17 11.5-28.5T200-800h80q17 0 28.5 11.5T320-760v240H160Zm280 360q-17 0-28.5-11.5T400-200v-240h160v240q0 17-11.5 28.5T520-160h-80Zm-40-320v-160h160v160H400Zm0-200v-80q0-17 11.5-28.5T440-800h80q17 0 28.5 11.5T560-760v80H400Zm280 520q-17 0-28.5-11.5T640-200v-40h160v40q0 17-11.5 28.5T760-160h-80Zm-40-120v-160h160v160H640Zm0-200v-280q0-17 11.5-28.5T680-800h80q17 0 28.5 11.5T800-760v280H640Z"/></svg>