<svg xmlns="http://www.w3.org/2000/svg" height="24" viewBox="0 -960 960 960" width="24"><path d="M120-160q-33 0-56.5-23.5T40-240q0-33 23.5-56.5T120-320h10.5q4.5 0 9.5 2l182-182q-2-5-2-9.5V-520q0-33 23.5-56.5T400-600q33 0 56.5 23.5T480-520q0 2-2 20l102 102q5-2 9.5-2h21q4.5 0 9.5 2l142-142q-2-5-2-9.5V-560q0-33 23.5-56.5T840-640q33 0 56.5 23.5T920-560q0 33-23.5 56.5T840-480h-10.5q-4.5 0-9.5-2L678-340q2 5 2 9.5v10.5q0 33-23.5 56.5T600-240q-33 0-56.5-23.5T520-320v-10.5q0-4.5 2-9.5L420-442q-5 2-9.5 2H400q-2 0-20-2L198-260q2 5 2 9.5v10.5q0 33-23.5 56.5T120-160Zm40-401-25-54-54-25 54-25 25-54 25 54 54 25-54 25-25 54Zm440-39-38-82-82-38 82-38 38-82 38 82 82 38-82 38-38 82Z"/></svg>