<svg xmlns="http://www.w3.org/2000/svg" height="24" viewBox="0 -960 960 960" width="24"><path d="m710-362-58-58q8-14 14.5-29t9.5-32q4-17 15.5-28t28.5-11q17 0 28 12t9 29q-5 32-17 61.5T710-362ZM480-594Zm112 112-72-72v-206q0-17-11.5-28.5T480-800q-17 0-28.5 11.5T440-760v126l-80-80v-46q0-50 35-85t85-35q50 0 85 35t35 85v240q0 11-2.5 20t-5.5 18ZM440-160v-83q-92-12-157.5-77.5T203-479q-2-17 9-29t28-12q17 0 29 11.5t15 28.5q14 71 69 115.5T480-320q34 0 64.5-10.5T600-360l57 57q-29 23-63.5 39T520-243v83q0 17-11.5 28.5T480-120q-17 0-28.5-11.5T440-160Zm324 76L84-764q-11-11-11-28t11-28q11-11 28-11t28 11l680 680q11 11 11 28t-11 28q-11 11-28 11t-28-11Z"/></svg>