<svg viewBox="0 0 16 16" version="1.1" xmlns="http://www.w3.org/2000/svg">
    <path d="M8.01314761,11.4936216 C8.2586075,11.4936216 8.46275598,11.6658458 8.50509194,11.8929616 L8.51314761,11.980474 L8.51314761,13.5131476 C8.51314761,13.7820288 8.28928999,14 8.01314761,14 C7.76768772,14 7.56353924,13.8277758 7.52120328,13.6006599 L7.51314761,13.5131476 L7.51314761,11.980474 C7.51314761,11.7115928 7.73700524,11.4936216 8.01314761,11.4936216 Z M5.52963648,10.4703635 C5.69863887,10.6393659 5.71741691,10.9017057 5.58597061,11.0914498 L5.52963648,11.1588768 L4.44587256,12.2426407 C4.25574488,12.4327684 3.947487,12.4327684 3.75735931,12.2426407 C3.58835693,12.0736383 3.56957888,11.8112985 3.70102518,11.6215544 L3.75735931,11.5541274 L4.84112323,10.4703635 C5.03125092,10.2802358 5.3395088,10.2802358 5.52963648,10.4703635 Z M11.0914498,10.4140294 L11.1588768,10.4703635 L12.2426407,11.5541274 C12.4327684,11.7442551 12.4327684,12.052513 12.2426407,12.2426407 C12.0736383,12.4116431 11.8112985,12.4304211 11.6215544,12.2989748 L11.5541274,12.2426407 L10.4703635,11.1588768 C10.2802358,10.9687491 10.2802358,10.6604912 10.4703635,10.4703635 C10.6393659,10.3013611 10.9017057,10.2825831 11.0914498,10.4140294 Z M8,5.52967982 C9.34440575,5.52967982 10.4342619,6.61953602 10.4342619,7.96394177 C10.4342619,9.30834752 9.34440575,10.3982037 8,10.3982037 C6.65559425,10.3982037 5.56573805,9.30834752 5.56573805,7.96394177 C5.56573805,6.61953602 6.65559425,5.52967982 8,5.52967982 Z M8,6.5033846 C7.19335655,6.5033846 6.53944283,7.15729832 6.53944283,7.96394177 C6.53944283,8.77058522 7.19335655,9.42449893 8,9.42449893 C8.80664345,9.42449893 9.46055717,8.77058522 9.46055717,7.96394177 C9.46055717,7.15729832 8.80664345,6.5033846 8,6.5033846 Z M4.01952602,7.51314761 C4.28840717,7.51314761 4.50637841,7.73700524 4.50637841,8.01314761 C4.50637841,8.2586075 4.33415422,8.46275598 4.10703836,8.50509194 L4.01952602,8.51314761 L2.48685239,8.51314761 C2.21797124,8.51314761 2,8.28928999 2,8.01314761 C2,7.76768772 2.17222419,7.56353924 2.39934006,7.52120328 L2.48685239,7.51314761 L4.01952602,7.51314761 Z M13.5131476,7.51314761 C13.7820288,7.51314761 14,7.73700524 14,8.01314761 C14,8.2586075 13.8277758,8.46275598 13.6006599,8.50509194 L13.5131476,8.51314761 L11.980474,8.51314761 C11.7115928,8.51314761 11.4936216,8.28928999 11.4936216,8.01314761 C11.4936216,7.76768772 11.6658458,7.56353924 11.8929616,7.52120328 L11.980474,7.51314761 L13.5131476,7.51314761 Z M12.2426407,3.75735931 C12.4116431,3.9263617 12.4304211,4.18870153 12.2989748,4.37844557 L12.2426407,4.44587256 L11.1588768,5.52963648 C10.9687491,5.71976417 10.6604912,5.71976417 10.4703635,5.52963648 C10.3013611,5.3606341 10.2825831,5.09829427 10.4140294,4.90855023 L10.4703635,4.84112323 L11.5541274,3.75735931 C11.7442551,3.56723163 12.052513,3.56723163 12.2426407,3.75735931 Z M4.37844557,3.70102518 L4.44587256,3.75735931 L5.52963648,4.84112323 C5.71976417,5.03125092 5.71976417,5.3395088 5.52963648,5.52963648 C5.3606341,5.69863887 5.09829427,5.71741691 4.90855023,5.58597061 L4.84112323,5.52963648 L3.75735931,4.44587256 C3.56723163,4.25574488 3.56723163,3.947487 3.75735931,3.75735931 C3.9263617,3.58835693 4.18870153,3.56957888 4.37844557,3.70102518 Z M8.01314761,2 C8.2586075,2 8.46275598,2.17222419 8.50509194,2.39934006 L8.51314761,2.48685239 L8.51314761,4.01952602 C8.51314761,4.28840717 8.28928999,4.50637841 8.01314761,4.50637841 C7.76768772,4.50637841 7.56353924,4.33415422 7.52120328,4.10703836 L7.51314761,4.01952602 L7.51314761,2.48685239 C7.51314761,2.21797124 7.73700524,2 8.01314761,2 Z" id="Combined-Shape" fill="#000000" fill-rule="nonzero" />
</svg>
