<svg xmlns="http://www.w3.org/2000/svg" height="20" viewBox="0 -960 960 960" width="20"><path d="M247.857-534.154h-29.99q-7.662 0-12.918-5.052-5.256-5.051-5.256-12.776 0-7.726 5.023-12.795t12.706-5.069h47.767q7.683 0 12.939 5.041t5.256 12.751v143.677q0 7.71-5.051 12.966-5.051 5.257-12.777 5.257-7.654 0-12.676-5.057-5.023-5.056-5.023-12.789v-126.154ZM389.385-408v-74.308q0-8.238 5.573-13.811t13.811-5.573h77.385v-32.462h-78.923q-7.733 0-12.79-5.052-5.056-5.051-5.056-12.776 0-7.726 5.056-12.795 5.057-5.069 12.79-5.069h95.23q8.239 0 13.812 5.573 5.573 5.573 5.573 13.812v72.769q0 8.238-5.573 13.811t-13.812 5.573h-77.385v32.462H504q7.733 0 12.789 5.052 5.057 5.051 5.057 12.776t-5.036 12.795q-5.035 5.069-12.736 5.069h-96.475q-7.701 0-12.958-5.057-5.256-5.056-5.256-12.789Zm327.538 17.846h-95.231q-7.733 0-12.789-5.052-5.057-5.051-5.057-12.776t5.057-12.795q5.056-5.069 12.789-5.069h78.924v-32.462h-27.077q-8.677 0-15.185-6.507-6.508-6.508-6.508-15.185t6.508-15.185q6.508-6.507 15.185-6.507h27.077v-32.462h-78.924q-7.733 0-12.789-5.052-5.057-5.051-5.057-12.776 0-7.726 5.057-12.795 5.056-5.069 12.789-5.069h95.231q8.238 0 13.811 5.573t5.573 13.812v140.922q0 8.239-5.573 13.812-5.573 5.573-13.811 5.573Z"/></svg>