<svg xmlns="http://www.w3.org/2000/svg" height="20" viewBox="0 -960 960 960" width="20"><path d="M625.539-390.154h-99.16q-7.379 0-11.802-4.423t-4.423-11.654v-147.538q0-7.231 4.423-11.654t11.802-4.423h99.16q10.2 0 17.1 6.9 6.9 6.9 6.9 17.1v131.692q0 10.2-6.9 17.1-6.9 6.9-17.1 6.9Zm-193.539 0H328.307q-7.733 0-12.789-5.052-5.057-5.051-5.057-12.776t5.057-12.795q5.056-5.069 12.789-5.069h85.847v-36.462h-38q-7.077 0-12.385-5.308-5.308-5.307-5.308-12.384t5.308-12.384q5.308-5.308 12.385-5.308h38v-36.462h-85.847q-7.733 0-12.789-5.052-5.057-5.051-5.057-12.776 0-7.726 5.057-12.795 5.056-5.069 12.789-5.069H432q7.584 0 12.715 5.131T449.846-552v144q0 7.584-5.131 12.715T432-390.154Zm113.846-35.692h63.385q2.308 0 3.462-1.154 1.154-1.154 1.154-3.461v-99.078q0-2.307-1.154-3.461t-3.462-1.154h-63.385v108.308Zm320.35-28.155q-10.966 0-18.581-7.475Q840-468.95 840-480q0-148-101.577-252.039-101.578-104.039-247.347-109.269l76.231 76.232q8.308 8.307 8 18.384-.308 10.076-9 18.768-8.692 8.693-18.076 8.693-9.385 0-18.077-8.693L388.925-868.153q-3.077-3.077-1.949-7.111t5.641-5.042q12.273-3.558 35.31-7.625 23.036-4.068 52.073-4.068 85.49 0 160.679 32.445 75.19 32.445 130.81 88.065 55.62 55.62 88.065 130.81Q891.999-565.49 891.999-480q0 11.05-7.419 18.524-7.418 7.475-18.384 7.475ZM480-68.001q-85.49 0-160.679-32.445-75.19-32.445-130.81-88.065-55.62-55.62-88.065-130.81Q68.001-394.51 68.001-480q0-11.05 7.419-18.524 7.418-7.475 18.384-7.475 10.966 0 18.581 7.475Q120-491.05 120-480q0 148 101.577 252.039 101.578 104.039 247.347 109.269l-76.231-76.232q-8.308-8.307-8-18.384.308-10.076 9-18.768 8.692-8.693 18.076-8.693 9.385 0 18.077 8.693l141.229 140.23q3.077 3.076 1.949 7.11-1.128 4.034-5.641 5.042-12.273 3.558-34.81 7.625Q510.037-68 480-68Z"/></svg>