<svg xmlns="http://www.w3.org/2000/svg" height="20" viewBox="0 -960 960 960" width="20"><path d="M433.847-433.847ZM479.959-168q54.349 0 104.849-17.846 50.5-17.847 92.885-53.308-44.154-29.308-94.27-44.077-50.115-14.77-103.423-14.77t-104.308 13.885q-51 13.885-93.385 44.962 42.385 35.461 92.844 53.308Q425.611-168 479.959-168Zm95.117-479.076q30.231 30.23 37 71.769 6.769 41.538-11.769 80.23-4.846 10.538-15.192 14.923-10.346 4.384-20.567-.241-10.086-4.913-14.163-15.259t1.385-20.499q13.231-23.462 9.423-49.27-3.808-25.808-22.959-44.959-18.772-18.773-43.773-23.003-25-4.231-48.462 7.615-9.153 3.846-17.576-2.038-8.423-5.885-11.745-15.614-3.37-9.808 1.937-19.654 5.308-9.846 16.846-14.077 35.846-15.308 74.115-6.231 38.27 9.077 65.5 36.308ZM480-116.001q-75.144 0-141.303-28.462-66.158-28.461-115.965-78.269-49.808-49.807-78.269-115.965Q116.001-404.856 116.001-480q0-58.774 18.539-114.233 18.539-55.46 54-102.306l-56.231-57.231q-7.923-7.59-7.808-18.025.116-10.436 8.423-18.743 8.308-8.308 18.551-8.308 10.243 0 18.218 8.308L799.385-160.23q7.923 7.589 7.808 18.025-.116 10.435-8.423 18.743-8.308 8.307-18.259 8.307-9.95 0-17.894-8.307L225.539-659.54q-28.385 39.693-42.962 84.924Q168-529.385 168-480q0 56.308 18.731 108.616t57.193 94.077q52.846-35.692 112.335-54.192 59.49-18.5 123.402-18.5 45.032 0 87.378 10.731 42.347 10.731 81.963 29.654l87.766 87.767q-50.923 51.307-117.554 78.576-66.631 27.27-139.214 27.27ZM555-561ZM311.231-803.306q39.085-20.923 81.783-30.808 42.699-9.885 86.986-9.885 72.937 0 139.891 27.654t117.877 78.577q50.923 50.923 78.577 117.877Q843.999-552.937 843.999-480q0 44.062-10.577 86.531-10.577 42.469-30.347 81.084-5.461 10.154-16.223 13-10.763 2.846-20.083-3.231-9.539-6.077-12.192-16.563-2.654-10.487 2.807-20.59 16.308-32.923 25.462-68.231Q792-443.307 792-480q0-130-91-221t-221-91q-36.693 0-72 8.654-35.308 8.654-68.231 24.962-9.769 4.461-19.923 2.5-10.153-1.962-16.615-12-6.461-10.038-4.308-19.999 2.154-9.962 12.308-15.423Z"/></svg>