<svg xmlns="http://www.w3.org/2000/svg" height="20" viewBox="0 -960 960 960" width="20"><path d="M480-134.39q-10.69 0-19.88-3.53-9.2-3.54-18.66-11-28.84-24.62-72.27-67.2-43.42-42.57-84.57-95.61-41.16-53.04-69.85-113.65-28.69-60.62-28.69-121.7 0-89.07 46.73-163.65Q279.54-785.31 362-820.38q33.15-14.77 65.62-19.5 32.46-4.73 67.07-3.73 10.75 1 18.38 8.78 7.62 7.78 7.62 18.57 0 10.8-7.62 18.03-7.63 7.23-18.38 6.23-29.05-1-57.56 3.12-28.51 4.11-53.67 14.88-69.77 29.38-107.58 90.27-37.8 60.88-37.8 136.65 0 72.54 63.77 167.54 63.77 95 178.15 195.08 57.63-50.5 101.94-99.12 44.31-48.62 74.75-94.42 26.46-40.38 44.93-81.35 18.46-40.96 21.07-82.96.85-13.23 8.39-19.61 7.53-6.39 17.69-5.77 10.15.61 18.34 6.61 8.2 6 7.58 18.77-1.85 61.16-31.77 120.36-29.93 59.21-67.15 108.49-40.08 52.69-83.16 95.23-43.07 42.54-73.69 68.92-9.32 7.46-18.69 11.19-9.36 3.73-20.23 3.73Zm.28-351q26.64 0 45.33-18.97 18.7-18.97 18.7-45.61t-18.98-45.34Q506.36-614 479.72-614t-45.33 18.97q-18.7 18.98-18.7 45.62 0 26.64 18.98 45.33 18.97 18.69 45.61 18.69Zm-.28-64.3ZM720-768v94q0 11.05 7.42 18.53 7.42 7.47 18.38 7.47 10.97 0 18.58-7.47Q772-662.95 772-674v-94h94q11.05 0 18.52-7.42 7.48-7.42 7.48-18.38 0-10.97-7.48-18.58Q877.05-820 866-820h-94v-94q0-11.05-7.42-18.52-7.42-7.48-18.38-7.48-10.97 0-18.58 7.48Q720-925.05 720-914v94h-94q-11.05 0-18.53 7.42-7.47 7.42-7.47 18.38 0 10.97 7.47 18.58Q614.95-768 626-768h94Z"/></svg>