<svg xmlns="http://www.w3.org/2000/svg" height="20" viewBox="0 -960 960 960" width="20"><path d="M480-648q-70 0-119 49t-49 119q0 55.693 32.577 100.039 32.577 44.346 86.039 61.807 10.769 3.693 17.923 12.846 7.154 9.154 5.077 19.923-2.077 10.538-9.423 16.499-7.346 5.962-16.884 3.885-74.461-18.769-120.885-78.423Q260.001-403.077 260.001-480q0-91.538 64.231-155.768 64.23-64.231 155.768-64.231 76.154 0 135.807 46.423 59.654 46.424 78.807 119.731 2.462 9.538-3.884 17.076-6.346 7.539-16.885 10-11.153 2.077-19.922-4.885-8.769-6.961-12.461-18.115Q624-583.23 579.654-615.615 535.308-648 480-648Zm0-144q-130 0-221 91t-91 221q0 131.846 88.962 219.616 88.962 87.769 218.423 91.153 11.769.231 19.5 7.769 7.73 7.538 7.115 19.307-.615 10.769-8.231 18.769-7.615 8-18.384 7.385-75.461-1.077-141.23-30.654-65.769-29.577-114.231-79.077-48.461-49.499-76.192-115.115Q116.001-406.462 116.001-480q0-75.769 28.462-141.615 28.461-65.846 78.269-115.653 49.807-49.808 116.153-78.269Q405.231-843.999 480-843.999q149.692 0 254.768 103.731 105.077 103.731 108.231 256.269.23 10.153-7.385 17.461-7.615 7.307-17.384 7.923-10.769.615-18.307-7-7.538-7.615-8.769-18.384-5.23-131.077-90.654-219.539Q615.077-792 480-792Zm299.846 661.383L628.229-284.003l-31.384 80.153q-4.616 10.846-15.962 10.538-11.346-.308-14.577-11.154l-77.46-245.996q-2.231-10.231 4.115-16.577 6.346-6.346 16.577-4.115l245.996 77.46q10.846 3.231 11.154 14.577.308 11.346-10.538 15.962l-80.153 30.384 153.001 152.617q9.769 9.769 9.769 24.768 0 15-9.769 24.769-9.769 9.769-24.576 9.769t-24.576-9.769Z"/></svg>