<svg xmlns="http://www.w3.org/2000/svg" height="20" viewBox="0 -960 960 960" width="20"><path d="m306.615-380.076 93.078-118.539h181.693L306.615-722.77v342.694Zm258.999 231.381q-14.153 6.077-29.307.423-15.153-5.653-21.23-19.807L398.615-415.617l-87.307 107.845q-14.461 17.692-35.576 10.154-21.116-7.538-21.116-30.846v-437.227q0-20.692 18.385-29.038 18.384-8.346 34.461 3.731l349.074 286.92q17.692 14.847 9.961 36.154-7.73 21.308-30.653 21.308H467.922l116.077 247.384q6.076 14.153.923 29.307-5.154 15.154-19.308 21.23Zm-165.921-349.92Z"/></svg>