<svg xmlns="http://www.w3.org/2000/svg" height="20" viewBox="0 -960 960 960" width="20"><path d="M449.767-454.001h134.458q11.039 0 18.483-7.404 7.445-7.405 7.445-18.384 0-10.98-7.445-18.595-7.444-7.615-18.483-7.615H449.767l48.925-48.925q8.307-8.307 8.5-18.743.192-10.435-8.116-18.409-8.692-8.693-18.576-8.693t-18.576 8.693l-89.907 89.906q-9.708 9.709-9.708 22.352t9.846 22.125l89.769 89.769q8.307 8.308 18.576 7.808t18.576-8.808q8.693-8.692 8.693-18.576t-8.693-18.576l-49.309-47.925Zm-221.458 290q-26.623 0-45.465-18.843-18.843-18.842-18.843-45.465v-503.382q0-26.623 18.843-45.465 18.842-18.843 45.465-18.843h181q-1.231-28.307 19.076-50.153 20.308-21.847 51.615-21.847 31.692 0 51.999 21.847 20.308 21.846 18.692 50.153h181q26.623 0 45.465 18.843 18.843 18.842 18.843 45.465v503.382q0 26.623-18.843 45.465-18.842 18.843-45.465 18.843H228.309Zm0-51.999h503.382q4.616 0 8.463-3.846 3.846-3.847 3.846-8.463v-503.382q0-4.616-3.846-8.463-3.847-3.846-8.463-3.846H228.309q-4.616 0-8.463 3.846-3.846 3.847-3.846 8.463v503.382q0 4.616 3.846 8.463 3.847 3.846 8.463 3.846ZM480-764.154q10.4 0 17.2-6.8 6.8-6.8 6.8-17.2 0-10.4-6.8-17.2-6.8-6.8-17.2-6.8-10.4 0-17.2 6.8-6.8 6.8-6.8 17.2 0 10.4 6.8 17.2 6.8 6.8 17.2 6.8ZM216-216v-528 528Z"/></svg>