<svg xmlns="http://www.w3.org/2000/svg" height="20" viewBox="0 -960 960 960" width="20"><path d="m428.231-423.384-66.924-65.923q-8.307-8.308-17.884-8.5-9.577-.192-18.269 8.5-8.692 8.692-8.692 18.576 0 9.885 8.692 18.577l80.769 80.769q9.483 9.846 22.126 9.846t22.489-9.846l183.538-183.539q8.308-8.307 8.5-18.384.193-10.076-8.5-18.768-8.692-8.693-18.076-8.693t-18.076 8.693L428.231-423.384ZM228.309-164.001q-26.623 0-45.465-18.843-18.843-18.842-18.843-45.465v-503.382q0-26.623 18.843-45.465 18.842-18.843 45.465-18.843h181q-1.231-28.307 19.076-50.153 20.308-21.847 51.615-21.847 31.692 0 51.999 21.847 20.308 21.846 18.692 50.153h181q26.623 0 45.465 18.843 18.843 18.842 18.843 45.465v503.382q0 26.623-18.843 45.465-18.842 18.843-45.465 18.843H228.309Zm0-51.999h503.382q4.616 0 8.463-3.846 3.846-3.847 3.846-8.463v-503.382q0-4.616-3.846-8.463-3.847-3.846-8.463-3.846H228.309q-4.616 0-8.463 3.846-3.846 3.847-3.846 8.463v503.382q0 4.616 3.846 8.463 3.847 3.846 8.463 3.846ZM480-764.154q10.4 0 17.2-6.8 6.8-6.8 6.8-17.2 0-10.4-6.8-17.2-6.8-6.8-17.2-6.8-10.4 0-17.2 6.8-6.8 6.8-6.8 17.2 0 10.4 6.8 17.2 6.8 6.8 17.2 6.8ZM216-216v-528 528Z"/></svg>