<svg xmlns="http://www.w3.org/2000/svg" height="20" viewBox="0 -960 960 960" width="20"><path d="M480-68q-118 0-213.85-59.73-95.84-59.73-148.07-160.04v85.92h-52v-172h172v52h-78Q203.46-230.46 289-175.23 374.54-120 480-120q76.46 0 142.81-29.15 66.34-29.16 115.65-80.12 49.31-50.96 76.08-118.92 26.77-67.96 24.08-145.81h51.99q3.08 88.23-28.15 165.85-31.23 77.61-86.96 135.38Q719.77-135 643.69-101.5 567.61-68 480-68ZM308.85-796.69l-23.08-46.77q42.92-23.46 92.88-36Q428.62-892 480-892q116.85 0 213.85 59.93 97 59.92 148.07 161.38v-87.46h52v172h-172v-52h78Q757.69-728 671.96-784 586.23-840 480-840q-46.08 0-89.5 10.85-43.42 10.84-81.65 32.46ZM168-503.85l-44.31-99.84L23.85-648l99.84-44.31L168-792.15l44.31 99.84L312.15-648l-99.84 44.31L168-503.85ZM308.31-288l147.31-384h49.76l147.08 384H597l-38.62-104.15H401.85L362.23-288h-53.92Zm109.46-150.15h123.46l-60.61-164.39h-3l-59.85 164.39Z"/></svg>