<svg xmlns="http://www.w3.org/2000/svg" height="20" viewBox="0 -960 960 960" width="20"><path d="m395.55-441.61 24.3 57.69q4.23 9.84 14.46 9.84t13.99-9.69l24.4-57.47 57.68-24.3q9.85-4.23 9.85-14.46t-9.69-13.99l-57.47-24.4-24.3-57.69q-4.23-9.84-14.46-9.84t-14 9.69l-24.39 57.47-57.69 24.3q-9.84 4.23-9.84 14.46t9.68 13.99l57.48 24.4ZM228.31-236q-26.62 0-45.47-18.84Q164-273.69 164-300.31v-359.38q0-26.62 18.84-45.47Q201.69-724 228.31-724h352q18.61 0 34.46 8.77 15.84 8.77 26.61 23.54l126.7 173.92q12.46 17.3 12.46 37.88 0 20.58-12.46 37.66l-126.7 174.69q-10.57 14.89-26.94 23.21-16.36 8.33-34.13 8.33h-352Zm0-52h352q5.77 0 10.96-2.88 5.19-2.89 8.27-7.12l127.08-174.69q2.3-3.08 2.3-7.31 0-4.23-2.3-7.31L599.54-662q-3.08-4.23-8.27-7.12-5.19-2.88-10.96-2.88h-352q-4.62 0-8.46 3.85-3.85 3.84-3.85 8.46v359.38q0 4.62 3.85 8.46 3.84 3.85 8.46 3.85ZM216-288v-384 384Z"/></svg>