<svg xmlns="http://www.w3.org/2000/svg" height="20" viewBox="0 -960 960 960" width="20"><path d="M643.539-219.077h-34.153q-9.712 0-14.702-8.476-4.99-8.477.856-17.058l90.515-129.93q3.176-4.535 8.791-3.253t5.615 7.276v109.595h34.153q9.712 0 14.702 8.476 4.99 8.477-.856 17.058l-90.515 129.93q-3.176 4.535-8.791 3.253t-5.615-7.276v-109.595ZM357.692-168Zm-7.845 51.999q-18.765 0-31.459-12.695-12.694-12.694-12.694-31.459V-738.23q0-18.766 12.694-31.46 12.694-12.694 31.459-12.694h64.307v-17.461q0-18.765 12.694-31.459 12.695-12.695 31.46-12.695h43.384q18.765 0 31.46 12.695 12.694 12.694 12.694 31.459v17.461h64.386q18.782 0 31.428 12.694t12.646 31.46v257.385q0 11.049-7.418 18.524-7.418 7.475-18.384 7.475-10.966 0-18.581-7.475t-7.615-18.524V-730.77H357.692V-168h133.154q11.05 0 18.525 7.418 7.474 7.418 7.474 18.384 0 10.966-7.474 18.581-7.475 7.616-18.525 7.616H349.847Z"/></svg>