<svg xmlns="http://www.w3.org/2000/svg" height="20" viewBox="0 -960 960 960" width="20"><path d="m480-261.54-131.769 53.154q-31.153 12.461-59.691-6.829-28.539-19.291-28.539-53.248v-463.228q0-27.42 18.5-46.364 18.5-18.944 45.808-17.944h177.692q11.049 0 18.524 7.419Q528-781.162 528-770.196q0 10.966-7.475 18.581T502.001-744H324.309q-4.616 0-8.463 3.846-3.846 3.847-3.846 8.463v461.843q0 6.539 5.577 10.386 5.578 3.846 11.732 1.154L480-318l150.691 59.692q6.154 2.692 11.732-1.154Q648-263.309 648-269.848v-232.153q0-11.049 7.418-18.524Q662.836-528 673.802-528q10.966 0 18.581 7.475 7.616 7.475 7.616 18.524v233.538q0 33.957-28.539 53.248-28.538 19.29-59.691 6.829L480-261.54ZM480-744H312h216-48Zm204.233 60h-46.117q-11.099 0-18.608-7.479Q612-698.957 612-710.013q0-11.055 7.508-18.52 7.509-7.466 18.608-7.466h46.117v-46q0-11.05 7.512-18.525 7.512-7.475 18.478-7.475 10.966 0 18.371 7.475 7.405 7.475 7.405 18.525v46h45.79q10.96 0 18.585 7.419 7.625 7.418 7.625 18.384 0 10.966-7.475 18.464-7.475 7.499-18.525 7.499h-46v46.117q0 11.099-7.479 18.608Q721.041-612 709.986-612q-10.756 0-18.254-7.475-7.499-7.475-7.499-18.524V-684Z"/></svg>