<svg xmlns="http://www.w3.org/2000/svg" height="20" viewBox="0 -960 960 960" width="20"><path d="M180.309-164.001q-27.008 0-45.658-18.65-18.65-18.65-18.65-45.658v-407.382q0-27.008 18.65-45.658 18.65-18.65 45.658-18.65h127.692v-59.903q0-27.095 18.65-45.595t45.658-18.5h215.382q27.008 0 45.658 18.65 18.65 18.65 18.65 45.657v59.691h127.692q27.008 0 45.658 18.65 18.65 18.65 18.65 45.658v407.382q0 27.008-18.65 45.658-18.65 18.65-45.658 18.65H180.309ZM360-699.999h240v-59.691q0-4.616-3.846-8.462-3.847-3.847-8.463-3.847H372.309q-4.616 0-8.463 3.847Q360-764.306 360-759.69v59.691Zm432 317.998H579.999v41.846q0 13.761-9.197 22.957-9.196 9.197-22.957 9.197h-135.69q-13.761 0-22.957-9.197-9.197-9.196-9.197-22.957v-41.846H168v153.692q0 4.616 3.846 8.463 3.847 3.846 8.463 3.846h599.382q4.616 0 8.463-3.846 3.846-3.847 3.846-8.463v-153.692ZM432-360h96v-96h-96v96Zm-264-73.999h212.001v-41.846q0-13.761 9.197-22.957 9.196-9.197 22.957-9.197h135.69q13.761 0 22.957 9.197 9.197 9.196 9.197 22.957v41.846H792v-201.692q0-4.616-3.846-8.463-3.847-3.846-8.463-3.846H180.309q-4.616 0-8.463 3.846-3.846 3.847-3.846 8.463v201.692ZM480-406Z"/></svg>