<svg xmlns="http://www.w3.org/2000/svg" height="20" viewBox="0 -960 960 960" width="20"><path d="M180.31-164Q154-164 135-183q-19-19-19-45.31v-407.38Q116-662 135-681q19-19 45.31-19h116.15l52.31-69.69q9.85-12.85 23.48-19.58Q385.89-796 401-796h158.18q15.28 0 28.74 6.73 13.46 6.73 23.31 19.58L663.54-700h116.15q27.01 0 45.66 19Q844-662 844-635.69v407.38Q844-202 825.35-183q-18.65 19-45.66 19H180.31Zm0-52h599.38q5.39 0 8.85-3.46t3.46-8.85v-407.38q0-5.39-3.46-8.85t-8.85-3.46H636.77l-72.48-96H395.62l-72.39 96H180.31q-5.39 0-8.85 3.46t-3.46 8.85v407.38q0 5.39 3.46 8.85t8.85 3.46ZM480-433Zm-33.92 34.92-62.69-27.46q-3.85-1.87-3.85-6.59t3.85-6.33l62.69-27.46 27.46-62.69q1.87-3.85 6.59-3.85t6.33 3.85l27.46 62.69 62.69 27.46q3.85 1.87 3.85 6.59t-3.85 6.33l-62.69 27.46-27.46 62.69q-1.87 3.85-6.59 3.85t-6.33-3.85l-27.46-62.69ZM480-279.39q65.85 0 109.23-44.38 43.38-44.38 43.38-108.23 0-62.85-43.38-107.73T480-584.61q-65.85 0-109.23 44.88-43.38 44.88-43.38 108.23t43.38 107.73q43.38 44.38 109.23 44.38Z"/></svg>