<svg xmlns="http://www.w3.org/2000/svg" height="20" viewBox="0 -960 960 960" width="20"><path d="M494.769-271.693q-6.931 0-11.619-4.688-4.689-4.688-4.689-11.619v-168q0-6.931 4.689-11.619 4.688-4.688 11.619-4.688h168q6.93 0 11.618 4.688 4.689 4.688 4.689 11.619v59.231l43.927-29.99q7.919-5.24 16.457-1.342 8.539 3.898 8.539 13.977v84.248q0 10.079-8.539 13.977-8.538 3.898-16.457-1.342l-43.927-29.99V-288q0 6.931-4.689 11.619-4.688 4.688-11.618 4.688h-168Zm-282.768 43.384v-329.537q0-15.022 6.683-28.462 6.683-13.441 19.24-23.383l203.692-153.154q17.953-12.461 38.322-12.461 20.369 0 38.446 12.461l219.434 165.099q10.181 8.131 10.488 17.89.308 9.758-5.431 17.654-5.74 8.259-16.346 11.346-10.607 3.086-20.728-5.045L487.308-720.615q-3.077-2.692-7.308-2.692t-7.308 2.692L269-567.846q-2.307 1.923-3.654 4.423-1.346 2.5-1.346 5.577v329.537q0 5.385 3.462 8.847 3.462 3.462 8.847 3.462h445.4q11.04 0 18.665 7.418t7.625 18.384q0 10.966-7.481 18.581-7.481 7.616-18.539 7.616H276.025q-26.543 0-45.283-18.891-18.741-18.89-18.741-45.417ZM480-456Z"/></svg>