<svg xmlns="http://www.w3.org/2000/svg" height="20" viewBox="0 -960 960 960" width="20"><path d="M675.999-247.233v68.828q0 11.241-7.405 18.822-7.405 7.582-18.384 7.582-10.98 0-18.595-7.466Q624-166.932 624-178.001v-121.538q0-15.385 10.538-25.923Q645.076-336 660.461-336h121.538q11.069 0 18.534 7.405 7.466 7.404 7.466 18.384 0 10.979-7.466 18.594-7.465 7.616-18.534 7.616h-69.232l98.309 98.308q8.307 8.308 8.307 18.077 0 9.769-7.829 17.692-8.401 8.307-19.029 8.115-10.628-.192-18.218-8.115l-98.308-97.309ZM479.538-116.001q-74.307 0-140.653-28.462-66.346-28.461-116.153-78.269-49.808-49.807-78.269-116.112-28.462-66.304-28.462-141.614 0-75.311 28.462-141.157 28.461-65.846 78.269-115.653 49.807-49.808 116.112-78.269 66.304-28.462 141.614-28.462 75.311 0 141.157 28.462 65.846 28.461 115.653 78.269 49.808 49.807 78.269 115.653Q843.999-555.769 843.999-480q0 9.565-.5 20.581-.5 11.017-1.885 20.582-1.615 11.375-9.231 17.26-7.615 5.884-19.999 5.884-10.085 0-17.234-9.153-7.15-9.154-5.535-19.593 2-9.314 2.193-17.995.192-8.681.192-17.995 0-19.78-2.885-39.368-2.884-19.588-8.038-39.127H607.384q2.769 18.539 3.461 38.27.692 19.731.692 38.797 0 8.956-.192 19.005-.192 10.05-1.192 19.006-.616 10.769-8.486 19.461-7.87 8.692-19.148 8.692-10.365 0-18.173-7.538-7.807-7.538-7.192-18.692 1-10.384 1.193-20.538.192-10.154.192-20.539 0-19.257-.692-38.321-.693-19.064-3.661-37.603H405.615q-2.269 19.539-3.212 39.27-.942 19.731-.942 39.654 0 19.923.942 39.654.943 19.731 3.212 39.27h104.376q10.472 0 18.087 7.404 7.615 7.405 7.615 18.384 0 10.98-7.465 18.595-7.465 7.615-18.534 7.615h-99.31q9.074 49.346 23.729 94.635 14.656 45.289 45.887 87.597 9.769 0 18.539-.885 8.769-.884 18.042-2.269 10.496-1.615 20.303 5.884 9.808 7.5 9.808 16.885 0 12.384-5.385 19.807-5.384 7.423-17.82 9.038-10.188 1.385-21.953 1.885-11.765.5-21.996.5ZM178.923-401.076h173.693q-2.769-18.539-3.461-38.27-.692-19.731-.692-38.654 0-20.923.692-40.654.692-19.731 3.461-40.27H178.923q-5.154 19.539-8.038 39.27Q168-499.923 168-480q0 19.923 2.885 39.654 2.884 19.731 8.038 39.27Zm237.617 227q-24.154-40.462-37.375-84.442-13.222-43.98-21.395-90.56H197.076q31.308 67.77 88.924 113.732 57.616 45.962 130.54 61.27ZM197.076-610.922H357.77q7.154-46.539 20.808-90.732 13.654-44.192 36.962-84.27-72.308 14.923-129.732 60.885-57.424 45.962-88.732 114.117Zm213.308 0h139.232q-8.769-48.231-24.962-93.693-16.192-45.462-44.654-85.539-28.846 39.308-44.347 85.154-15.5 45.847-25.269 94.078Zm191.846 0h160.694q-31.308-68.155-88.732-114.309-57.424-46.154-129.732-60.693 22.154 40.462 35.423 84.847 13.27 44.385 22.347 90.155Z"/></svg>