<svg xmlns="http://www.w3.org/2000/svg" height="20" viewBox="0 -960 960 960" width="20"><path d="M168-240v-179.155V-240Zm-51.999-176.351q0-5.934 1.308-11.868 1.308-5.935 3.308-12.55l71.077-176.23q6.461-15.769 20.884-25.384 14.423-9.616 33.038-9.616h141.385q11.05 0 18.525 7.419Q413-637.162 413-626.196q0 10.966-7.474 18.581Q398.051-600 387.001-600H241.769l-56.462 143.079h317.694q10.624 0 17.812 7.418Q528-442.085 528-431.119q0 10.966-7.475 18.581t-18.524 7.615H168V-240h528v-153.155q0-11.05 7.418-18.525 7.418-7.475 18.384-7.475 10.966 0 18.581 7.475 7.616 7.475 7.616 18.525v246.847q0 12.628-8.853 21.467-8.853 8.84-21.499 8.84-12.647 0-21.454-8.84-8.807-8.839-8.807-21.467v-41.693H176.614v41.693q0 12.628-8.852 21.467-8.853 8.84-21.499 8.84-12.647 0-21.454-8.84-8.808-8.839-8.808-21.467v-270.043Zm485.628 134.197q16.832 0 28.525-11.783 11.692-11.783 11.692-28.615t-11.783-28.524q-11.783-11.693-28.615-11.693t-28.524 11.783q-11.693 11.783-11.693 28.615t11.783 28.525q11.783 11.692 28.615 11.692Zm-339.077 0q16.832 0 28.524-11.783 11.693-11.783 11.693-28.615t-11.783-28.524q-11.783-11.693-28.615-11.693t-28.525 11.783q-11.692 11.783-11.692 28.615t11.783 28.525q11.783 11.692 28.615 11.692Zm401.371-217.847q-71.538 0-121.576-50.198-50.038-50.199-50.038-121.946 0-72.162 50.245-122.008 50.245-49.846 122.361-49.846 71.258 0 121.325 50.265 50.066 50.264 50.066 121.96t-50.422 121.735q-50.422 50.038-121.961 50.038Zm.384-179.692q8.677 0 15.185-6.508 6.507-6.507 6.507-15.184v-32.614q0-8.677-6.507-15.185-6.508-6.507-15.185-6.507t-15.184 6.507q-6.508 6.508-6.508 15.185v32.614q0 8.677 6.508 15.184 6.507 6.508 15.184 6.508Zm0 92.923q9.6 0 16.223-6.815 6.623-6.816 7.008-16.031 0-9.446-6.816-16.531-6.815-7.084-16.415-7.084-9.6 0-16.415 6.815-6.816 6.815-6.816 16.415 0 9.6 6.816 16.416 6.815 6.815 16.415 6.815Z"/></svg>