<svg xmlns="http://www.w3.org/2000/svg" height="20" viewBox="0 -960 960 960" width="20"><path d="M168-440.462v68.153q0 4.616 3.846 8.463 3.847 3.846 8.463 3.846h599.382q4.616 0 8.463-3.846 3.846-3.847 3.846-8.463v-68.153H168Zm12.309-403.537h599.382q26.623 0 45.465 18.843 18.843 18.842 18.843 45.465v407.382q0 26.623-18.843 45.465-18.842 18.843-45.465 18.843H602.46v116.537q0 19.693-17.077 28.731t-33.153-2.192l-54.153-38.692q-8.088-5.231-18.006-5.231-9.917 0-18.148 5.231l-54.153 38.692q-16.076 11.23-33.153 2.192-17.077-9.038-17.077-28.731v-116.537H180.309q-26.623 0-45.465-18.843-18.843-18.842-18.843-45.465v-407.382q0-26.623 18.843-45.465 18.842-18.843 45.465-18.843ZM168-519.538h624v-260.153q0-4.616-3.846-8.463-3.847-3.846-8.463-3.846H180.309q-4.616 0-8.463 3.846-3.846 3.847-3.846 8.463v260.153Zm0 147.229V-792h12.309q-4.616 0-8.463 3.846-3.846 3.847-3.846 8.463v407.382q0 4.616 3.846 8.463 3.847 3.846 8.463 3.846H168v-12.309Z"/></svg>