<svg xmlns="http://www.w3.org/2000/svg" height="20" viewBox="0 -960 960 960" width="20"><path d="m480-514.847 75.308 74.923q8.308 8.308 18.384 7.616 10.077-.693 18.384-9 8.308-8.308 8.308-18.192t-8.308-18.192L517.153-552l74.923-75.308q8.308-8.308 8.116-18.384-.193-10.077-8.5-18.384-8.308-8.308-18.192-8.308t-18.192 8.308L480-589.153l-75.308-74.923q-8.308-8.308-17.884-8.116-9.577.193-17.884 8.5-8.308 8.308-8.308 18.192t8.308 18.192L442.847-552l-74.923 75.308q-8.308 8.308-7.616 17.884.693 9.577 9 17.884 8.308 8.308 18.192 8.308t18.192-8.308L480-514.847ZM241.539-260.001l-70.959 70.958q-15.194 15.194-34.886 6.942-19.693-8.252-19.693-29.747v-567.843q0-27.008 18.65-45.658 18.65-18.65 45.658-18.65h599.382q27.008 0 45.658 18.65 18.65 18.65 18.65 45.658v455.382q0 27.008-18.65 45.658-18.65 18.65-45.658 18.65H241.539ZM220.001-312h559.69q4.616 0 8.463-3.846 3.846-3.847 3.846-8.463v-455.382q0-4.616-3.846-8.463-3.847-3.846-8.463-3.846H180.309q-4.616 0-8.463 3.846-3.846 3.847-3.846 8.463v520.076L220.001-312ZM168-312v-480V-312Z"/></svg>