<svg xmlns="http://www.w3.org/2000/svg" height="20" viewBox="0 -960 960 960" width="20"><path d="M216-479.843q0 103.151 69.5 178.343 69.5 75.193 171.808 83.885 10.154 1.615 15.846 9.338 5.692 7.723 5.692 18.276 0 12.769-10.036 19.077-10.037 6.307-23.04 4.692-121-13.538-201.384-102.809-80.385-89.27-80.385-211.388 0-120.801 79.851-210.412 79.851-89.61 200.379-102.927 12.769-1.615 23.5 4.692 10.73 6.308 10.73 19.077 0 10.553-5.499 18.276-5.5 7.723-15.654 9.338Q355-733.693 285.5-658.343q-69.5 75.349-69.5 178.5Zm486.233 25.842h-282.27q-11.053 0-18.508-7.404-7.454-7.405-7.454-18.384 0-10.98 7.454-18.595 7.455-7.615 18.508-7.615h281.885l-72.924-73.309q-7.923-7.923-7.423-18.192t8.423-18.192q7.922-7.923 18.258-7.923 10.335 0 17.894 7.923l113.385 113.385q9.846 9.482 9.846 22.125t-9.846 22.489L666.076-344.308q-7.922 7.923-18.076 8.115-10.154.192-18.076-7.659-7.923-7.852-7.923-18.577 0-10.725 7.923-18.647l72.309-72.925Z"/></svg>