<svg xmlns="http://www.w3.org/2000/svg" height="20" viewBox="0 -960 960 960" width="20"><path d="M483-116q-76.5 0-143.48-28.27-66.98-28.27-116.98-78.27t-78.27-116.98Q116-406.5 116-483q0-111.31 60.89-202.65Q237.77-777 338.15-820.92q17.06-8 32.38 1.45 15.31 9.45 15.47 26.09 2.23 82.46 32.58 156.61 30.34 74.16 88.19 133 57.84 56.85 132.11 86 74.27 29.16 155.73 30.39 18.16.15 28.04 13.42 9.89 13.27 2.89 29.81-43.16 103.77-136.7 165.96Q595.31-116 483-116Zm.39-52q87.61 0 161.83-44.53Q719.45-257.07 762-335q-85-8-159-40.69t-134-92.69q-60-60-93.72-134.89Q341.56-678.15 335-762q-77 42-122 116.5t-45 162.11Q168-349 258.5-258.5T483.39-168ZM469-472.38Z"/></svg>