<svg xmlns="http://www.w3.org/2000/svg" height="20" viewBox="0 -960 960 960" width="20"><path d="M238.292-408.617q-11.041 0-18.666-7.418t-7.625-18.384q0-10.966 7.47-18.582 7.469-7.615 18.51-7.615h483.727q11.041 0 18.666 7.418 7.625 7.419 7.625 18.385 0 10.965-7.47 18.581-7.469 7.615-18.51 7.615H238.292Zm0-115.384q-11.041 0-18.666-7.419-7.625-7.418-7.625-18.384 0-10.966 7.47-18.581Q226.94-576 237.981-576h483.727q11.041 0 18.666 7.418t7.625 18.384q0 10.966-7.47 18.581-7.469 7.616-18.51 7.616H238.292Zm241.905 408q-10.966 0-18.581-7.475t-7.615-18.525v-94.463l-48.925 48.924q-8.307 8.307-18.384 8.5-10.076.192-18.768-8.5-8.693-8.692-8.693-18.576 0-9.885 8.693-18.577l89.506-89.236q5.164-5.148 10.764-7.456 5.6-2.308 12-2.308t11.949 2.308q5.549 2.308 10.297 7.056l89.636 89.636q8.308 8.308 8.308 18.077 0 9.768-8.391 18.16-8.609 8.608-18.685 8.416-10.077-.193-18.384-8.885l-48.925-48.309v95.233q0 11.05-7.418 18.525-7.418 7.475-18.384 7.475Zm-.391-544.924q-6.4 0-11.949-2.307-5.549-2.308-10.297-7.056l-89.636-89.636q-8.308-8.308-8-18.384.307-10.077 9-18.769 8.692-8.692 18.576-8.692t18.576 8.692l47.925 48.924v-94.463q0-11.05 7.418-18.525 7.418-7.475 18.384-7.475 10.966 0 18.581 7.475t7.615 18.525v94.463l48.925-48.924q8.307-8.308 18.384-8 10.076.308 18.768 9 8.693 8.692 8.693 18.576 0 9.885-8.693 18.577l-89.506 88.29q-5.164 5.094-10.764 7.402-5.6 2.307-12 2.307Z"/></svg>