<svg xmlns="http://www.w3.org/2000/svg" height="20" viewBox="0 -960 960 960" width="20"><path d="M685.306-480q0-21.769 3.116-39.769 3.115-18 10-39.308h50.346q6.846 0 14.077-3.616 7.231-3.615 11.846-9.846l29.077-38.307q7.231-9.418 6.231-21.093-1-11.676-9.847-20.522l-31.307-31.308q-10.231-10.23-22.192-10.038-11.962.192-21.808 9.423-43.076 40.231-66.653 92.769Q634.615-539.077 634.615-480t23.577 111.615q23.577 52.538 66.653 92.769 9.846 9.231 21.808 9.423 11.961.192 22.192-10.038l31.307-31.308q9-8.505 9.923-20.137.924-11.632-6.307-21.478l-29.077-38.307q-4.615-6.231-11.846-9.846-7.231-3.616-14.077-3.616h-50.346q-6.885-19.308-10-38.308-3.116-19-3.116-40.769ZM84.309-171.694q-27.008 0-45.658-18.65-18.65-18.65-18.65-45.657v-487.998q0-27.007 18.65-45.657 18.65-18.65 45.658-18.65H875.69q27.008 0 45.658 18.65 18.65 18.65 18.65 45.657v487.998q0 27.007-18.65 45.657-18.65 18.65-45.658 18.65H84.309Zm486.193-51.999h305.189q4.616 0 8.463-3.846 3.846-3.847 3.846-8.462v-487.998q0-4.615-3.846-8.462-3.847-3.846-8.463-3.846H84.309q-4.616 0-8.463 3.846Q72-728.614 72-723.999v487.998q0 4.615 3.846 8.462 3.847 3.846 8.463 3.846h10q52-45.614 113.077-72.806 61.076-27.192 128.114-27.192 67.038 0 125.614 27.692 58.577 27.692 109.388 72.306ZM336-379.384q45.769 0 77.884-32.115 32.115-32.116 32.115-77.885 0-45.768-32.115-77.884-32.115-32.115-77.884-32.115t-77.884 32.115q-32.115 32.116-32.115 77.884 0 45.769 32.115 77.885 32.115 32.115 77.884 32.115ZM185-223.693h299q-33.385-22-70.692-35-37.308-13-77.808-13-40.5 0-79.5 11.5t-71 36.5Zm151-207.69q-24.246 0-41.124-16.877-16.877-16.877-16.877-41.124 0-24.246 16.877-41.123 16.878-16.877 41.124-16.877 24.246 0 41.124 16.877 16.877 16.877 16.877 41.123 0 24.247-16.877 41.124-16.878 16.877-41.124 16.877ZM480-480Z"/></svg>