<svg xmlns="http://www.w3.org/2000/svg" height="20" viewBox="0 -960 960 960" width="20"><path d="M212.001-431.471q0-50.683 17.847-95.644 17.846-44.961 49.999-83.038l164.384-184.999q7.231-8.615 16.577-12.538 9.346-3.924 19.192-3.924t19.192 3.924q9.346 3.923 16.577 12.538l165.384 184.999q18.451 22.099 32.802 46.011 14.351 23.912 22.582 51.373 4.231 10.539-1.654 20.538-5.884 10-16.422 11.231-13.539 2.231-22.307-5.846-8.769-8.077-13.077-19.307-6.615-19.693-17.077-36.616-10.461-16.923-25-33.231L480-756 338-597q-31 35.077-52.5 74.175-21.5 39.097-21.5 91.21 0 83.692 54.385 143.846 54.385 60.154 135.231 71.462 14.23 1.692 20.5 9.461 6.269 7.768 4.653 18.307-1.615 10.538-8.115 17.922-6.5 7.385-19.038 6.539-102.384-10.923-170.999-87.423-68.616-76.499-68.616-179.97ZM478-505Zm221.308 161.923q-14.769-6-30.154-10.692t-31.239-4.692q-14.684 0-28.569 3.692t-28.654 9.077q-6.692 2.846-13.805.656-7.112-2.191-10.117-8.964-3.846-7.307-.983-14.261 2.864-6.953 10.136-9.892 16.492-8 34.959-12 18.466-4 36.933-4 19.416 0 38.339 5.308t37.538 13.308q14.769 6 29.654 10.692t31.75 4.692q15.693 0 29.842-3.707t28.755-9.062q6.692-2.846 14.076-.615 7.385 2.23 10.231 9.023 3.846 7.592.807 14.545-3.038 6.953-10.73 9.892-17.537 7.829-35.55 11.722-18.014 3.894-37.527 3.894-19.349 0-38.213-5.308t-37.479-13.308Zm0 100.307q-14.769-6-30.154-10.692t-31.239-4.692q-14.684 0-28.569 3.692t-28.654 9.077q-6.692 2.846-13.805.656-7.112-2.19-10.117-8.964-3.846-7.307-.983-14.26 2.864-6.954 10.136-9.893 16.492-8 34.959-12 18.466-4 36.933-4 19.416 0 38.339 5.308t37.538 13.308q14.769 6 29.654 10.692t31.75 4.692q15.693 0 29.842-3.707t28.755-9.062q6.692-2.846 14.076-.615 7.385 2.23 10.231 9.023 3.846 7.592.807 14.545-3.038 6.953-10.73 9.892-17.537 7.829-35.55 11.723-18.014 3.893-37.527 3.893-19.349 0-38.213-5.308t-37.479-13.308Zm0 100.307q-14.769-6-30.154-10.692t-31.239-4.692q-14.684 0-28.569 3.692t-28.654 9.077q-6.692 2.846-13.805.656-7.112-2.19-10.117-8.963-3.846-7.308-.983-14.261 2.864-6.954 10.136-9.893 16.492-8 34.959-12 18.466-4 36.933-4 19.416 0 38.339 5.308t37.538 13.308q14.769 6 29.654 10.692t31.75 4.692q15.693 0 29.842-3.707t28.755-9.062q6.692-2.846 14.076-.615 7.385 2.23 10.231 9.023 3.846 7.592.807 14.545-3.038 6.954-10.73 9.892-17.537 7.83-35.55 11.723-18.014 3.893-37.527 3.893-19.349 0-38.213-5.308t-37.479-13.308Z"/></svg>