<svg xmlns="http://www.w3.org/2000/svg" height="20" viewBox="0 -960 960 960" width="20"><path d="M212.001-228.202v-268.184l-45.584 35.682q-8.724 6.473-19.493 4.857-10.769-1.615-17.461-10.153-6.692-8.539-5.386-19.165 1.305-10.626 10.463-17.604l77.461-59.23v-88.77q0-11.068 7.405-18.534 7.405-7.465 18.384-7.465 10.98 0 18.595 7.465Q264-661.837 264-650.769v48.771l177.169-135.131q17.908-13.408 39.257-13.408 21.349 0 38.787 13.332l306.579 234.463q8.591 6.666 10.014 17.435 1.423 10.768-5.269 19.751-6.692 8.478-17.395 10.094-10.702 1.615-19.758-5.077l-45.385-35.847v268.184q0 26.579-18.854 45.39-18.855 18.811-45.494 18.811H276.025q-26.639 0-45.331-18.811-18.693-18.811-18.693-45.39ZM276.309-216h159.998v-115.693q0-18.377 12.597-31.035 12.598-12.658 30.885-12.658 18.288 0 30.961 12.658 12.674 12.658 12.674 31.035V-216h160.267q5.385 0 8.847-3.462 3.462-3.462 3.462-8.847v-308.025L487.308-695.23q-3.077-2.693-7.308-2.693t-7.308 2.693L264-537v308.691q0 5.385 3.462 8.847 3.462 3.462 8.847 3.462Zm0 0H696 264h12.309ZM241-726.614q-14.159 0-22.348-10.731-8.189-10.73-2.036-21.96 9-27 33.207-43.577 24.206-16.577 53.793-16.577 13.692 0 24.115-6.923 10.424-6.924 14.654-18.564 3.462-6.514 10.231-11.437 6.769-4.923 14.513-4.923 14.478 0 22.559 11.923 8.081 11.923.927 23.538-10.384 25.615-34.461 42-24.077 16.384-52.538 16.384-13.693 0-24.116 6.539-10.423 6.538-14.654 18.196-3.846 6.496-10.307 11.304-6.462 4.808-13.539 4.808Z"/></svg>