<svg xmlns="http://www.w3.org/2000/svg" height="20" viewBox="0 -960 960 960" width="20"><path d="M216.309-140.001q-31.958 0-54.133-22.175-22.175-22.175-22.175-54.133v-527.382q0-31.958 22.175-54.133 22.175-22.175 54.133-22.175h527.382q31.958 0 54.133 22.175 22.175 22.175 22.175 54.133v527.382q0 31.958-22.175 54.133-22.175 22.175-54.133 22.175H216.309Zm0-63.999h527.382q5.385 0 8.847-3.462 3.462-3.462 3.462-8.847v-527.382q0-5.385-3.462-8.847-3.462-3.462-8.847-3.462H216.309q-5.385 0-8.847 3.462-3.462 3.462-3.462 8.847v527.382q0 5.385 3.462 8.847 3.462 3.462 8.847 3.462ZM204-204V-756-204Z"/></svg>