<svg xmlns="http://www.w3.org/2000/svg" height="20" viewBox="0 -960 960 960" width="20"><path d="M228.309-212.001q-27.008 0-45.658-18.65-18.65-18.65-18.65-45.658v-503.382q0-27.008 18.65-45.658 18.65-18.65 45.658-18.65h503.382q27.008 0 45.658 18.65 18.65 18.65 18.65 45.658v254.307q0 11.05-7.419 18.525-7.418 7.475-18.384 7.475-10.966 0-18.581-7.475T744-525.384v-254.307q0-4.616-3.846-8.463-3.847-3.846-8.463-3.846H228.309q-4.616 0-8.463 3.846-3.846 3.847-3.846 8.463v503.382q0 4.616 3.846 8.463 3.847 3.846 8.463 3.846h60.769q11.05 0 18.524 7.418 7.475 7.418 7.475 18.384 0 10.966-7.475 18.581-7.474 7.616-18.524 7.616h-60.769ZM216-264v-528 528Zm82.001-173.933v59.516q0 13.628 9.394 23.022 9.394 9.394 21.759 9.394h2.693q16.154-41.461 45.307-74.076 29.154-32.615 66.846-49.922H329.967q-13.574 0-22.77 9.219t-9.196 22.847Zm0-240v59.516q0 13.628 9.219 23.022 9.219 9.394 22.847 9.394h59.516q13.628 0 23.022-9.219 9.394-9.219 9.394-22.847v-59.516q0-13.628-9.219-23.022-9.219-9.394-22.847-9.394h-59.516q-13.628 0-23.022 9.219-9.394 9.219-9.394 22.847ZM552-116.001q-61.749 0-104.874-43.125Q404.001-202.251 404.001-264q0-61.749 43.125-104.874Q490.251-411.999 552-411.999h54.154q11.05 0 18.525 7.419 7.475 7.418 7.475 18.384 0 10.966-7.475 18.581T606.154-360H552q-39.6 0-67.8 28.2Q456-303.6 456-264q0 39.6 28.2 67.8Q512.4-168 552-168h54.154q11.05 0 18.525 7.418 7.475 7.418 7.475 18.384 0 10.966-7.475 18.581-7.475 7.616-18.525 7.616H552Zm18.067-470h59.516q13.628 0 23.022-9.219 9.394-9.219 9.394-22.847v-59.516q0-13.628-9.219-23.022-9.219-9.394-22.847-9.394h-59.516q-13.628 0-23.022 9.219-9.394 9.219-9.394 22.847v59.516q0 13.628 9.219 23.022 9.219 9.394 22.847 9.394Zm20.209 348q-11.026 0-18.651-7.418T564-263.803q0-10.966 7.459-18.581t18.485-7.615h163.78q11.026 0 18.651 7.418T780-264.197q0 10.966-7.459 18.581t-18.485 7.615h-163.78Zm201.724 122h-54.154q-11.05 0-18.525-7.419-7.475-7.418-7.475-18.384 0-10.966 7.475-18.581T737.846-168H792q39.6 0 67.8-28.2Q888-224.4 888-264q0-39.6-28.2-67.8Q831.6-360 792-360h-54.154q-11.05 0-18.525-7.418-7.475-7.418-7.475-18.384 0-10.966 7.475-18.581 7.475-7.616 18.525-7.616H792q61.749 0 104.874 43.192 43.125 43.192 43.125 105.425 0 61.304-43.125 104.343Q853.749-116.001 792-116.001Z"/></svg>