<svg xmlns="http://www.w3.org/2000/svg" height="20" viewBox="0 -960 960 960" width="20"><path d="m568.305-224.001 48.924 49.308q8.308 7.923 8.308 18.304 0 10.38-8.425 18.384-8.19 8.004-18.485 8.004-10.294 0-17.781-7.923l-88.917-89.907q-9.698-9.708-9.698-22.352 0-12.643 9.846-22.125l88.917-89.522q7.775-7.785 18.21-7.978 10.436-.192 18.218 7.731 8.115 7.923 8.243 18.333.128 10.41-8.051 18.435L568.305-276h234.079q11.049 0 18.524 7.418 7.475 7.418 7.475 18.384 0 10.966-7.475 18.581-7.475 7.616-18.524 7.616H568.305ZM180.233-435.462h-8.615q-13.011 0-21.813-8.802-8.802-8.801-8.802-21.813v-8.614q0-13.011 8.802-21.813t21.813-8.802h8.615q13.011 0 21.813 8.802t8.802 21.813v8.614q0 13.012-8.802 21.813-8.802 8.802-21.813 8.802Zm227.041 0q-48.58 0-82.657-34.264t-34.077-82.735v-168q0-48.471 34.342-82.735t82.922-34.264q48.581 0 82.658 34.264 34.076 34.264 34.076 82.735v168q0 48.471-34.341 82.735-34.342 34.264-82.923 34.264Zm.265-51.998q27.084 0 46.042-18.959 18.959-18.958 18.959-46.042v-168q0-27.083-18.959-46.042-18.958-18.958-46.042-18.958-27.083 0-46.042 18.958-18.958 18.959-18.958 46.042v168q0 27.084 18.958 46.042 18.959 18.959 46.042 18.959Z"/></svg>