<svg xmlns="http://www.w3.org/2000/svg" height="20" viewBox="0 -960 960 960" width="20"><path d="M738.309-224.001H505.615q-11.05 0-18.525-7.419-7.475-7.418-7.475-18.384 0-10.966 7.475-18.581T505.615-276h232.694l-48.925-49.309q-8.307-7.923-7.807-18.303t8.74-18.384q7.99-8.004 18.133-7.812 10.143.193 17.702 8.115l89.907 89.523q9.708 9.708 9.708 22.351 0 12.643-9.846 22.126l-89.906 89.907q-7.715 7.785-17.701 7.785t-17.813-8.004q-8.424-8.004-8.424-18.384 0-10.381 8.307-18.304l47.925-49.308ZM180.233-435.462h-8.615q-13.011 0-21.813-8.802-8.802-8.801-8.802-21.813v-8.614q0-13.011 8.802-21.813t21.813-8.802h8.615q13.011 0 21.813 8.802t8.802 21.813v8.614q0 13.012-8.802 21.813-8.802 8.802-21.813 8.802Zm227.041 0q-48.58 0-82.657-34.264t-34.077-82.735v-168q0-48.471 34.342-82.735t82.922-34.264q48.581 0 82.658 34.264 34.076 34.264 34.076 82.735v168q0 48.471-34.341 82.735-34.342 34.264-82.923 34.264Zm313.691 0q-48.581 0-82.657-34.264-34.077-34.264-34.077-82.735v-168q0-48.471 34.342-82.735 34.341-34.264 82.922-34.264 48.581 0 82.657 34.264 34.077 34.264 34.077 82.735v168q0 48.471-34.342 82.735-34.341 34.264-82.922 34.264ZM407.539-487.46q27.084 0 46.042-18.959 18.959-18.958 18.959-46.042v-168q0-27.083-18.959-46.042-18.958-18.958-46.042-18.958-27.083 0-46.042 18.958-18.958 18.959-18.958 46.042v168q0 27.084 18.958 46.042 18.959 18.959 46.042 18.959Zm313.691 0q27.083 0 46.042-18.959 18.958-18.958 18.958-46.042v-168q0-27.083-18.958-46.042-18.959-18.958-46.042-18.958-27.084 0-46.042 18.958-18.958 18.959-18.958 46.042v168q0 27.084 18.958 46.042 18.958 18.959 46.042 18.959Z"/></svg>