<svg xmlns="http://www.w3.org/2000/svg" height="20" viewBox="0 -960 960 960" width="20"><path d="M552.769-199.385q0 12.769-7.423 21.691-7.422 8.923-19.191 11.308-12.077 1.385-23.77 1.885-11.692.5-23.77.5-59.307.384-114.692-21.231-55.384-21.616-100.307-63.692-42.077-40.231-67.846-91.962-25.769-51.73-31.846-113.577-.461-10.768 6.423-18.807 6.885-8.038 17.654-8.499 10.769-.462 18.807 6.615 8.038 7.077 8.499 17.846 5.616 50.538 27.924 94 22.307 43.462 57.692 76.615 36.769 33.539 83.846 52.116Q431.846-216 482.385-216h22.385q11.692 0 22.385-2.385 9.769-2.384 17.691 3.423 7.923 5.808 7.923 15.577Zm185.461-33.616-51.308 51.308q-8.307 8.307-17.884 7.423-9.577-.885-17.499-8.808-8.308-8.307-8.308-18.384t8.308-18.384l49.923-49.924-51.308-51.308q-8.308-8.307-7.615-18.384.692-10.077 9-18.384 8.307-8.308 18.384-8.308 10.076 0 18.384 8.308l49.923 51.308 51.309-51.308q8.307-8.308 18.576-7.923 10.269.385 18.192 8.308 8.307 8.307 8.307 18.191 0 9.885-8.307 18.192l-51.308 51.308 51.308 51.309q8.307 8.307 7.923 18.076-.385 9.769-8.308 17.692-8.307 8.307-18.192 8.307-9.884 0-18.191-8.307l-51.309-50.308ZM479.231-720q-58.538 0-108.346 22.615-49.807 22.615-86.192 62.615h75.616q10.769 0 18.384 7.615t7.615 18.384q0 10.769-7.615 18.384-7.615 7.616-18.384 7.616H215.387q-13.461 0-22.807-9.347-9.346-9.346-9.346-22.807v-144.921q0-10.769 7.615-18.385 7.615-7.615 18.384-7.615t18.384 7.615q7.615 7.616 7.615 18.385v104.77q43.692-53.461 106.615-85.192 62.923-31.731 137.384-31.731 65.769 0 123.115 24.462 57.345 24.461 100.653 67.769 39.308 39.308 61.5 87.077t27.884 103.308q1.231 10.769-4.961 19.307-6.192 8.538-16.961 9.769-10.769 1.231-19.307-5.154-8.539-6.384-9.769-17.153-5.077-46.616-24.192-86.578-19.116-39.962-51.962-72.808-36-36-83.5-57t-102.5-21Zm27.153 237.846 73.463 74.463q9.538 9.539 8.423 19.192-1.116 9.654-8.423 16.961-7.308 7.308-17.461 8.423-10.154 1.115-19.692-8.423L464.231-450q-4.615-4.616-7.23-10.154-2.616-5.539-2.616-12.769v-149.078q0-10.769 7.616-18.384Q469.616-648 480.385-648t18.384 7.615q7.615 7.615 7.615 18.384v139.847Z"/></svg>