<svg xmlns="http://www.w3.org/2000/svg" height="20" viewBox="0 -960 960 960" width="20"><path d="M228.31-164q-26.53 0-45.42-18.89T164-228.31v-503.38q0-26.53 18.89-45.42T228.31-796h503.38q26.53 0 45.42 18.89T796-731.69v206.31q0 11.05-7.42 18.52-7.42 7.48-18.38 7.48-10.97 0-18.58-7.48-7.62-7.47-7.62-18.52v-206.31q0-4.62-3.85-8.46-3.84-3.85-8.46-3.85H228.31q-4.62 0-8.46 3.85-3.85 3.84-3.85 8.46v503.38q0 4.62 3.85 8.46 3.84 3.85 8.46 3.85h206.31q11.05 0 18.52 7.42 7.48 7.42 7.48 18.38 0 10.97-7.48 18.58-7.47 7.62-18.52 7.62H228.31ZM216-239.87V-216v-528 246.62-2 259.51Zm82-88.94q0 10.96 7.48 18.58 7.47 7.61 18.52 7.61h117.69q11.05 0 18.53-7.41 7.47-7.42 7.47-18.39 0-10.96-7.47-18.58-7.48-7.61-18.53-7.61H324q-11.05 0-18.52 7.41-7.48 7.42-7.48 18.39Zm0-151.39q0 10.97 7.48 18.58Q312.95-454 324-454h245.62q11.05 0 18.52-7.42 7.48-7.42 7.48-18.38 0-10.97-7.48-18.58-7.47-7.62-18.52-7.62H324q-11.05 0-18.52 7.42-7.48 7.42-7.48 18.38Zm0-151.38q0 10.96 7.48 18.58 7.47 7.61 18.52 7.61h312q11.05 0 18.52-7.41 7.48-7.42 7.48-18.39 0-10.96-7.48-18.58-7.47-7.61-18.52-7.61H324q-11.05 0-18.52 7.41-7.48 7.42-7.48 18.39ZM719.77-65.69q-71.69 0-121.73-50.27Q548-166.22 548-237.92q0-71.69 50.27-121.73 50.26-50.04 121.96-50.04 71.69 0 121.73 50.26Q892-309.16 892-237.47q0 71.7-50.27 121.74-50.26 50.04-121.96 50.04Zm.23-172q25 0 42.5-17.5t17.5-42.5q0-25-17.5-42.5t-42.5-17.5q-25 0-42.5 17.5t-17.5 42.5q0 25 17.5 42.5t42.5 17.5Zm0 120q27.62 0 52.08-11.89 24.46-11.88 41.46-32.65 4.23-4.62 2.04-10.65-2.2-6.04-8.04-8.27-20.77-8.62-42.66-13.81-21.88-5.19-44.88-5.19-23 0-44.88 5.5-21.89 5.5-42.66 13.5-5.84 2.61-8.04 8.46-2.19 5.84 2.04 10.46 17 20.77 41.46 32.65 24.46 11.89 52.08 11.89Z"/></svg>