<svg xmlns="http://www.w3.org/2000/svg" height="20" viewBox="0 -960 960 960" width="20"><path d="M116.001-272.462v-16.154q0-23.307 10.962-40.384 10.961-17.076 30.653-28.538 53.847-31.231 109-46.692 55.153-15.461 116.999-15.461h13.924q10.824 0 18.604 7.602 7.779 7.601 7.779 17.813 0 11.126-7.779 18.855-7.78 7.728-18.604 7.728h-13.924q-52.076 0-100.615 11.885-48.538 11.884-97.846 41.807-9.565 5.249-13.36 11.313Q168-296.625 168-288.616v16.923h229.923q11.05 0 18.525 7.418 7.474 7.418 7.474 18.384 0 10.966-7.474 18.581-7.475 7.616-18.525 7.616H168.769q-22.007 0-37.387-15.381-15.381-15.38-15.381-37.387ZM662.128-166.54q-7.206 0-13.011-1.521-5.806-1.522-10.887-5.325l-100.922-60.307q-10.7-7.276-17.004-17.985-6.303-10.708-6.303-23.4v-121.844q0-12.692 6.303-23.4 6.304-10.709 17.004-17.985l100.922-59.307q6.31-3.359 12.021-5.102 5.711-1.744 12.922-1.744t12.901 1.902q5.691 1.901 11.002 4.944l100.922 60.307q10.744 7.276 17.526 17.985 6.782 10.708 6.782 23.4v121.844q0 12.692-6.782 23.4-6.782 10.709-17.526 17.985l-101.247 59.521q-5.906 3.401-11.661 5.017-5.756 1.615-12.962 1.615ZM384-492.309q-51.749 0-87.874-36.124-36.125-36.125-36.125-87.874 0-51.75 36.125-87.874 36.125-36.125 87.874-36.125 51.749 0 87.874 36.125 36.125 36.124 36.125 87.874 0 51.749-36.125 87.874-36.125 36.124-87.874 36.124Zm.212-51.998q29.788 0 50.788-21.213 21-21.212 21-51 0-29.787-21.212-50.787-21.213-21-51-21-29.788 0-50.788 21.212-21 21.213-21 51 0 29.788 21.212 50.788 21.213 21 51 21Zm-.212-72Zm13.923 344.614Zm170.923-143.153 94.307 57.077 94.308-57.077-94.308-57.461-94.307 57.461Zm112.153 205 95.615-57.754v-114.477l-95.615 58.384v113.847Zm-131.307-57.616 95.615 57.616v-113.847l-95.615-58v114.231Z"/></svg>