<svg xmlns="http://www.w3.org/2000/svg" height="20" viewBox="0 -960 960 960" width="20"><path d="M474.846-788.538 234.999-651.23 480-510.461 725.001-651.23 487.154-788.538q-3.077-1.923-6.154-1.923t-6.154 1.923Zm-310.845 461.23v-305.384q0-17.46 8.441-32.014 8.44-14.553 23.713-23.447L446.467-833.5q8.61-4.729 16.451-7.152 7.841-2.423 16.92-2.423 9.08 0 17.404 2.423t15.912 7.423l250.691 145.076q15.273 8.894 23.713 23.447 8.441 14.554 8.441 32.014v147.616q0 11.049-7.419 18.524-7.418 7.475-18.384 7.475-10.966 0-18.581-7.475T744-485.076v-117.463L511.154-469.231q-15.334 8.846-32.283 8.846-16.948 0-32.025-8.846L216-602.539v274.615q0 3.078 1.539 5.77 1.538 2.693 4.615 4.616l233.155 135.539q5.85 3.313 9.425 9.276 3.575 5.964 3.575 13.252 0 15.24-12.808 22.663-12.807 7.423-25.807-.885L196.155-271.847q-15.173-8.01-23.663-22.838-8.491-14.828-8.491-32.623ZM720-109.463q9.6 0 16.415-6.815 6.816-6.815 6.816-16.415 0-9.6-6.816-16.416-6.815-6.815-16.415-6.815-9.6 0-16.415 6.815-6.816 6.816-6.816 16.416 0 9.6 6.816 16.415 6.815 6.815 16.415 6.815Zm0-94.461q8.677 0 15.184-6.508 6.508-6.507 6.508-15.184v-37.182q0-8.879-6.508-15.309-6.507-6.431-15.184-6.431t-15.184 6.507q-6.508 6.508-6.508 15.185v37.182q0 8.879 6.508 15.309 6.507 6.431 15.184 6.431Zm-.226 178.922q-71.696 0-121.735-50.264-50.038-50.264-50.038-121.961 0-71.696 50.265-121.734 50.264-50.038 121.96-50.038t121.735 50.264q50.038 50.264 50.038 121.961 0 71.696-50.265 121.734-50.264 50.038-121.96 50.038ZM480-482.384Z"/></svg>