<svg xmlns="http://www.w3.org/2000/svg" height="20" viewBox="0 -960 960 960" width="20"><path d="M176.462-733.999h312v-45.692q0-4.616-3.846-8.463-3.847-3.846-8.462-3.846H188.771q-4.616 0-8.462 3.846-3.847 3.847-3.847 8.463v45.692Zm12.309 617.998q-27.008 0-45.658-18.65-18.649-18.65-18.649-45.658v-599.382q0-27.008 18.649-45.658 18.65-18.65 45.785-18.65h287.128q27.135 0 45.785 18.65 18.65 18.65 18.65 45.658v151.846q0 10.461-7.418 17.538-7.419 7.076-18.385 7.076-10.965 0-18.581-7.475-7.615-7.474-7.615-18.524v-52.771h-312v404.002h237.693q11.049 0 18.524 7.345 7.475 7.345 7.475 18.203 0 10.22-7.125 18.335t-18.874 8.115H176.462v45.692q0 4.616 3.847 8.463 3.846 3.846 8.462 3.846h318.536q11.05 0 18.525 7.418 7.475 7.418 7.475 18.384 0 10.966-7.475 18.581-7.475 7.616-18.525 7.616H188.771ZM684.703-240q60.912 0 103.489-42.819 42.577-42.82 42.577-103.731 0-60.912-42.82-103.489-42.819-42.577-103.731-42.577-60.911 0-103.488 42.82-42.577 42.819-42.577 103.731 0 60.911 42.819 103.488Q623.792-240 684.703-240Zm-54.249 123.999q-13.6 0-22.797-9.289-9.196-9.288-9.196-23.019v-58.615q-50.538-24.397-81.422-72.066-30.885-47.669-30.885-107.255 0-59.587 30.885-107.171 30.884-47.583 81.422-71.275v-59.77q0-13.665 9.201-22.909 9.2-9.244 22.801-9.244h108.004q13.601 0 22.797 9.244t9.196 22.909v59.77q50.538 23.692 81.423 71.361 30.884 47.669 30.884 107.256 0 59.586-30.884 107.17-30.885 47.583-81.423 71.98v58.615q0 13.731-9.2 23.019-9.201 9.289-22.802 9.289H630.454Zm-453.992-110V-168v-58.001Zm0-507.998V-792v58.001Z"/></svg>