<svg xmlns="http://www.w3.org/2000/svg" height="20" viewBox="0 -960 960 960" width="20"><path d="M473.846-308.001q71.922 0 121.96-50.038Q645.844-408.078 645.844-480t-50.038-121.961q-50.038-50.038-121.96-50.038-71.923 0-121.961 50.038Q301.847-551.922 301.847-480t50.038 121.961q50.038 50.038 121.961 50.038Zm0-123.999q-20.4 0-34.2-13.8-13.8-13.8-13.8-34.2 0-20.4 13.8-34.2 13.8-13.8 34.2-13.8 20.4 0 34.2 13.8 13.8 13.8 13.8 34.2 0 20.4-13.8 34.2-13.8 13.8-34.2 13.8Zm0 315.999q-75.226 0-141.388-28.42-66.161-28.42-115.961-78.21-49.8-49.791-78.225-116.087-28.425-66.296-28.425-141.673 0-75.378 28.425-141.246 28.425-65.869 78.225-115.682 49.8-49.814 115.961-78.247 66.162-28.433 141.388-28.433 96.575 0 178.71 45.693 82.136 45.692 130.905 125.154 5.307 8.538 2.769 19.5-2.539 10.961-13.077 15.653t-20.499.962q-9.961-3.731-15.884-13.269-40.846-67.309-111.308-104.501Q555-792 473.846-792q-130 0-221 91t-91 221q0 130 91 221t221 91q55 0 103.847-18.626 48.847-18.625 90.001-52.453 9.154-6.846 20.115-5.807 10.961 1.038 18.538 9.192 7.577 8.153 6.731 18.422-.847 10.269-10 17.115-48.154 40.001-106.539 62.078-58.385 22.078-122.693 22.078ZM822.043-240q-10.966 0-18.581-7.475-7.616-7.475-7.616-18.524V-540q0-11.05 7.419-18.524 7.418-7.475 18.384-7.475 10.966 0 18.581 7.475 7.615 7.474 7.615 18.524v274.001q0 11.049-7.418 18.524Q833.009-240 822.043-240Zm.013 117.075q-11.941 0-20.229-8.078-8.288-8.078-8.288-20.019 0-11.941 8.077-20.229 8.078-8.288 20.019-8.288 11.941 0 20.23 8.077 8.288 8.078 8.288 20.019 0 11.941-8.078 20.23-8.078 8.288-20.019 8.288ZM473.846-480Z"/></svg>