<svg xmlns="http://www.w3.org/2000/svg" height="20" viewBox="0 -960 960 960" width="20"><path d="M480.28-116q-75.43 0-141.78-28.27t-116.15-78.08q-49.81-49.8-78.08-116.11-28.27-66.3-28.27-142 0-75.69 28.27-141.54t78.08-115.65q49.8-49.81 116.11-78.08 66.3-28.27 142-28.27 75.69 0 141.54 28.27t115.65 78.08q49.81 49.8 78.08 115.87Q844-555.7 844-480.28q0 75.43-28.27 141.78t-78.08 116.15q-49.8 49.81-115.87 78.08Q555.7-116 480.28-116Zm-.28-52q58.6 0 110.04-20.5 51.43-20.5 90.65-53.65L242.15-680.69q-33.53 39.22-53.84 91.04Q168-537.84 168-480q0 129.67 91.16 220.84Q350.33-168 480-168Zm237.85-111.31q33.15-39.22 53.65-90.65Q792-421.4 792-480q0-129.67-91.16-220.84Q609.67-792 480-792q-58.99 0-109.65 20.31-50.67 20.31-91.04 53.84l438.54 438.54Z"/></svg>