<svg xmlns="http://www.w3.org/2000/svg" height="20" viewBox="0 -960 960 960" width="20"><path d="M569.076-148.155v-50.893q0-6.798 2.616-12.337 2.615-5.538 7.23-10.154L775.23-416.846q5.719-5.489 12.283-8.013 6.563-2.525 13.014-2.525 6.863 0 13.507 2.538 6.644 2.539 11.887 7.615l44 45.385q5.05 5.719 7.794 12.283 2.744 6.563 2.744 13.014t-2.525 13.109q-2.524 6.657-8.013 12.285L674.614-125.848q-4.616 4.616-10.154 7.231-5.539 2.616-12.337 2.616H601.23q-13.761 0-22.958-9.197-9.196-9.196-9.196-22.957Zm275.692-198.153-45-45.385 45 45.385Zm-240 194.615h45l123.847-123.462-44-45.769-124.847 124.231v45Zm-328.459 35.692q-27.008 0-45.658-18.65-18.65-18.65-18.65-45.658v-599.382q0-27.008 18.65-45.658 18.65-18.65 45.658-18.65h282.769q12.684 0 24.418 4.616 11.735 4.615 21.582 14.461l123.844 123.844q9.846 9.847 14.461 21.582 4.616 11.734 4.616 24.418v141q0 11.069-7.405 18.535-7.405 7.465-18.384 7.465-10.98 0-18.595-7.465Q696-503.009 696-514.078v-129.923H580.155q-13.761 0-22.957-9.197-9.197-9.196-9.197-22.957V-792H276.309q-4.616 0-8.463 3.846-3.846 3.847-3.846 8.463v599.382q0 4.616 3.846 8.463 3.847 3.846 8.463 3.846h187.075q11.069 0 18.534 7.405 7.466 7.404 7.466 18.384 0 10.979-7.466 18.594-7.465 7.616-18.534 7.616H276.309ZM264-168v-624V-168Zm487.615-130.54-22-22.384 44 45.769-22-23.385Z"/></svg>