<svg xmlns="http://www.w3.org/2000/svg" height="20" viewBox="0 -960 960 960" width="20"><path d="M479.72-108.309q-26.643 0-45.335-18.89t-18.692-45.417h128.614q0 26.923-18.972 45.615-18.973 18.692-45.615 18.692Zm242.299-112.307H238.292q-11.041 0-18.666-7.418t-7.625-18.384q0-10.966 7.475-18.581t18.525-7.615h14.308v-258.463q0-83.433 53.307-147.562 53.308-64.13 136.385-77.437v-49.923q0-15.833 11.07-26.916 11.07-11.084 26.884-11.084t26.929 11.084q11.115 11.083 11.115 26.916v49.769q10.154 1.769 21 4.346 10.847 2.577 20.616 6.577 11.307 3.077 16.154 13.307 4.846 10.231 1.769 20.961-3.077 10.731-13.115 15.5t-20.192 1.308q-14.461-5-33.077-8.77-18.615-3.769-31.154-3.769-73.462 0-124.577 51.116-51.116 51.115-51.116 124.577v258.463h351.386v-141.849q0-13 8.103-19.499 8.103-6.5 17.826-6.5 9.724 0 17.897 6.5 8.172 6.499 8.172 19.499v141.849h14.308q11.05 0 18.525 7.418 7.475 7.418 7.475 18.384 0 10.966-7.47 18.581-7.469 7.615-18.51 7.615Zm-237.403-216Zm0-32.153v-50.893q0-6.631 2.615-12.253t7.231-10.238L690.769-737.46q5.72-5.873 12.24-8.206 6.521-2.333 12.929-2.333 6.991 0 13.567 2.539 6.575 2.538 11.955 7.615l44 45.385q5.05 5.719 7.794 12.282 2.745 6.563 2.745 13.015 0 6.451-2.525 13.108-2.525 6.658-8.014 12.286L590.153-446.462q-4.616 4.616-10.238 7.231t-12.253 2.615h-50.893q-13.665 0-22.909-9.244t-9.244-22.909Zm275.691-198.153-45-45.385 45 45.385Zm-240 194.615h45l123.847-123.462-22.385-23-21.615-22.77-124.847 124.232v45Zm146.462-146.462-21.615-22.77 44 45.77-22.385-23Z"/></svg>