<svg xmlns="http://www.w3.org/2000/svg" height="20" viewBox="0 -960 960 960" width="20"><path d="M581.385-157.847q-102.076 0-186.769-58.846-84.692-58.846-119.692-165.308h-89.539q-10.769 0-18.384-7.615T159.386-408q0-10.769 7.615-18.384t18.384-7.615h77.386q-1.385-8.385-2.462-21.616-1.077-13.231-1.077-23.385 0-10.154 1.077-23.308t2.462-23.693h-77.386q-10.769 0-18.384-7.615T159.386-552q0-10.769 7.615-18.384t18.384-7.615h89.539q33.077-102.231 117.385-163.192 84.307-60.962 189.076-60.962 54.923 0 105.769 17.269 50.846 17.269 95.461 53.115 7.384 6.923 8.577 16.846 1.192 9.923-5.962 17.076-7.538 7.538-16.768 6.077-9.231-1.462-16.615-7.385-38.462-28.923-81.385-43.808-42.923-14.884-89.077-14.884-89.155 0-159.655 50.077-70.5 50.078-100.577 129.771h224.232q10.769 0 18.384 7.615T571.384-552q0 10.769-7.615 18.384t-18.384 7.615H307.076q-2.154 9.539-2.846 22.193-.692 12.654-.692 22.808t1.077 24.077q1.077 13.924 2.461 22.924h238.309q10.769 0 18.384 7.615T571.384-408q0 10.769-7.615 18.384t-18.384 7.615H320.768q33.154 87.386 105.385 133.617 72.232 46.231 155.232 46.231 45.769 0 89.462-15.269 43.692-15.269 81-43.808 7.384-6.307 16.115-7.577 8.73-1.269 16.268 6.269 7.154 7.538 6.462 17.461-.693 9.923-8.077 16.846-45 36.23-95.846 53.307-50.846 17.077-105.384 17.077Z"/></svg>