<svg xmlns="http://www.w3.org/2000/svg" height="20" viewBox="0 -960 960 960" width="20"><path d="m390.25-335.85 335.75-337q-12.92-16.84-27.31-31.03-14.38-14.2-31.84-27.12L359.08-423.62q4.38 23.24 12.5 45.47 8.11 22.23 18.67 42.3ZM726-290.54q29.32-38.08 46.28-83.5 16.95-45.42 18.87-98.04L523.46-203.39q10.31 5.93 22.8 11.85 12.5 5.92 23.51 9.08 47.85-14.63 87.15-42.49 39.31-27.86 69.08-65.59ZM168-480q0 125.62 85.39 214.46 85.38 88.85 209.53 95.69 4.24 0 8.27-.19 4.04-.19 8.27-.96-79.3-47.61-128.27-128.58-48.96-80.96-48.96-180.42t49.16-180.92Q400.54-742.39 479.85-790q-4.23-.77-8.46-.96-4.23-.19-8.47-.19-124.15 6.84-209.53 96.19Q168-605.62 168-480Zm310.15 248.39 308-308.39q-4.38-23.23-12.3-44.96-7.93-21.73-18.62-42.19l-336.62 336q14.08 19 27.58 31.42 13.5 12.42 31.96 28.12ZM480.34-116q-75.11 0-141.48-28.42-66.37-28.42-116.18-78.21-49.81-49.79-78.25-116.09Q116-405.01 116-480.39q0-75.38 28.42-141.25t78.21-115.68q49.79-49.81 116.09-78.25Q405.01-844 480.39-844q75.38 0 141.25 28.42t115.68 78.21q49.81 49.79 78.25 115.85Q844-555.45 844-480.34q0 75.11-28.42 141.48-28.42 66.37-78.21 116.18-49.79 49.81-115.85 78.25Q555.45-116 480.34-116ZM355.08-493.15l266.07-265.08q-10.69-6.31-22.84-10.85-12.16-4.54-24.62-8.69-94.08 29.54-154.5 107.23-60.42 77.7-64.11 177.39Zm217.84 12.53Z"/></svg>