<svg xmlns="http://www.w3.org/2000/svg" height="20" viewBox="0 -960 960 960" width="20"><path d="m789.155-151.924-64.001-64.001q-49.847 48.077-113.77 74-63.923 25.924-136 25.924-74.873 0-141.245-28.64-66.371-28.64-115.923-78.191-49.551-49.552-78.191-115.923Q111.386-405.126 111.386-480q0-74.308 25.808-138 25.807-63.693 73.115-111.385l-63.001-64.386q-8.308-8.307-8.5-17.884-.192-9.576 8.5-18.269 8.692-8.692 18.576-8.692 9.885 0 18.577 8.692l641.847 641.848q8.307 8.307 8 17.884-.308 9.576-9 18.268-8.692 8.693-18.077 8.693-9.384 0-18.076-8.693Zm50.228-328.135q0 29.603-5 59.177-5 29.574-14.707 58.934-1.346 4.932-4.899 8.67-3.552 3.738-8.396 5.777-4.844 2.039-9.792 2.179-4.949.14-10.202-1.721-9.849-4.342-14.003-14.869-4.154-10.526-.308-20.934 7.77-23.154 11.539-47.79 3.769-24.635 3.769-49.364 0-27-4.5-53.5t-13.5-50.5q-18 4-38 5.5t-41 1.5q-57 0-108.73-13.615-51.731-13.616-98.5-41.616l-131-131.999q-15.076-15.077-10.97-35.251 4.106-20.175 23.816-27.296 26.007-8.954 53.273-13.088 27.265-4.134 57.111-4.134 75.663 0 141.754 28.462 66.092 28.461 115.788 78.24 49.697 49.779 78.077 115.6 28.38 65.821 28.38 141.638Zm-264.845-219.94ZM176.615-559.998q32.539-14.539 63.539-37.27 31.001-22.731 52.771-50.117l-44.847-44.231q-30.463 33.769-48.54 66.539-18.077 32.77-22.923 65.079Zm225.691-223.156q55.616 80.463 131.847 117.809Q610.384-627.999 696-627.999q11 0 23.923-.692 12.923-.692 25.462-3.846-45.461-75.232-118.116-117.347Q554.615-792 479.941-792q-18.095 0-38.609 2.269-20.514 2.27-39.026 6.577ZM232.77-625.615ZM355.497-408q-20.113 0-34.113-13.887-14-13.888-14-34 0-20.113 13.888-34.113 13.887-14 34-14 20.112 0 34.112 13.887 14 13.888 14 34 0 20.113-13.887 34.113t-34 14Zm119.887 240q59.77 0 116.078-22.731t97.308-61.347L330.078-611.001q-32.77 39-76.578 67.808-43.808 28.808-88.116 43.083-1 5.037-1.5 10.055t-.5 10.055q0 129.675 91.163 220.837Q345.709-168 475.384-168Z"/></svg>