<svg xmlns="http://www.w3.org/2000/svg" height="20" viewBox="0 -960 960 960" width="20"><path d="M180.309-212.001q-27.008 0-45.658-18.662-18.65-18.662-18.65-45.686v-407.626q0-27.024 18.65-45.524t45.658-18.5h599.382q27.008 0 45.658 18.662 18.65 18.662 18.65 45.686v407.626q0 27.024-18.65 45.524t-45.658 18.5H180.309Zm0-51.999h599.382q5.385 0 8.847-3.462 3.462-3.462 3.462-8.847v-407.382q0-5.385-3.462-8.847-3.462-3.462-8.847-3.462H180.309q-5.385 0-8.847 3.462-3.462 3.462-3.462 8.847v407.382q0 5.385 3.462 8.847 3.462 3.462 8.847 3.462Zm58.922-232.155L284.462-402q2.615 5.23 7.793 8.538 5.179 3.308 11.393 3.308h7.178q8.481 0 14.52-5.991 6.038-5.99 6.038-14.548v-139.384q0-8.138-5.803-13.953-5.803-5.816-13.923-5.816-8.119 0-13.965 5.816-5.847 5.815-5.847 13.953v86.232L247-558q-2.231-5.615-7.687-8.73-5.457-3.116-12.005-3.116h-7.254q-8.399 0-14.38 6.031-5.981 6.031-5.981 14.508v139.384q0 8.138 5.803 13.953 5.804 5.816 13.923 5.816 8.12 0 13.966-5.816 5.846-5.815 5.846-13.953v-86.232Zm167 106.001h96.068q7.916 0 13.731-5.804 5.816-5.803 5.816-13.922 0-8.12-5.816-13.966-5.815-5.846-14.442-5.846h-75.742v-30.154h75.742q8.627 0 14.442-5.804 5.816-5.803 5.816-13.923 0-8.119-5.816-13.965-5.815-5.846-14.442-5.846h-75.742v-30.924h75.742q8.627 0 14.442-5.803 5.816-5.804 5.816-13.923 0-8.12-5.816-13.966-5.815-5.846-13.731-5.846h-96.068q-7.231 0-11.654 4.423t-4.423 11.654v147.538q0 7.231 4.423 11.654t11.654 4.423Zm192.23 0h144q7.893 0 12.869-4.977 4.977-4.977 4.977-12.869v-142.077q0-8.138-5.803-13.953-5.804-5.816-13.923-5.816-8.12 0-13.966 5.816-5.846 5.815-5.846 13.953v124.231h-30.923v-76.231q0-8.138-5.804-13.953-5.803-5.816-13.922-5.816-8.12 0-13.966 5.816-5.846 5.815-5.846 13.953v76.231h-30.154v-124.231q0-8.138-5.804-13.953-5.803-5.816-13.923-5.816-8.119 0-13.965 5.816-5.846 5.815-5.846 13.953V-408q0 7.892 4.977 12.869 4.976 4.977 12.868 4.977ZM168-264v-432 432Z"/></svg>