<svg xmlns="http://www.w3.org/2000/svg" height="20" viewBox="0 -960 960 960" width="20"><path d="M750.998-187.08 135.466-801.999q-8.387-8.386-8.387-18.629 0-10.244 8.307-18.218 7.974-8.307 18.218-8.307 10.243 0 18.63 8.387l615.532 615.532q8.387 8.387 8.387 18.338t-8.307 17.895q-7.974 8.307-18.218 8.307-10.243 0-18.63-8.386Zm-81.23-266.921q-10.62 0-18.117-7.345-7.497-7.345-7.497-18.203 0-10.22 6.587-18.335t19.027-8.115h7.693q11.05 0 18.525 7.418 7.474 7.418 7.474 18.384 0 10.966-7.474 18.581-7.475 7.615-18.525 7.615h-7.693ZM499.769-624q-10.621 0-18.118-7.345-7.497-7.345-7.497-18.204 0-10.219 6.587-18.334 6.587-8.116 19.028-8.116h270.23q11.05 0 18.525 7.419 7.475 7.418 7.475 18.384 0 10.966-7.475 18.581T769.999-624h-270.23Zm-78.615 339.999q-11.05 0-18.525-7.419-7.474-7.418-7.474-18.384 0-10.966 7.474-18.581Q410.104-336 421.154-336h117.307q11.05 0 18.525 7.418 7.475 7.418 7.475 18.384 0 10.966-7.475 18.581-7.475 7.616-18.525 7.616H421.154Zm-139-170q-11.049 0-18.524-7.418-7.475-7.418-7.475-18.384 0-10.966 7.475-18.581t18.524-7.615h201.309v51.998H282.154ZM190.001-624q-11.05 0-18.525-7.418-7.475-7.418-7.475-18.384 0-10.966 7.475-18.581 7.475-7.616 18.525-7.616h123.463V-624H190.001Z"/></svg>