<svg xmlns="http://www.w3.org/2000/svg" height="20" viewBox="0 -960 960 960" width="20"><path d="M356.001-180.309v-305.845l-85.153-127.924q-5.693-8.321-8.27-17.167-2.577-8.846-2.577-18.601v-129.845q0-26.623 18.843-45.465 18.842-18.843 45.465-18.843h311.382q26.623 0 45.465 18.843 18.843 18.842 18.843 45.465v129.845q0 9.755-2.577 18.601-2.577 8.846-8.27 17.167l-85.153 127.924v305.845q0 26.623-18.868 45.465-18.868 18.843-45.527 18.843H420.045q-26.659 0-45.351-18.843-18.693-18.842-18.693-45.465ZM480-370.001q-15.769 0-26.884-11.115T442.001-408q0-15.769 11.115-26.884T480-445.999q15.769 0 26.884 11.115T517.999-408q0 15.769-11.115 26.884T480-370.001ZM312-733.999h336v-45.692q0-5.385-3.462-8.847-3.462-3.462-8.847-3.462H324.309q-5.385 0-8.847 3.462-3.462 3.462-3.462 8.847v45.692Zm336 51.998H312V-646l96 144v321.691q0 5.385 3.462 8.847 3.462 3.462 8.847 3.462h119.382q5.385 0 8.847-3.462 3.462-3.462 3.462-8.847V-502l96-144v-36.001ZM480-480Z"/></svg>