<svg xmlns="http://www.w3.org/2000/svg" height="20" viewBox="0 -960 960 960" width="20"><path d="M633.975-212.001q-11.052 0-18.667-7.466-7.615-7.465-7.615-18.534 0-34.923 34.384-54.461Q676.461-312 737.846-312q61.384 0 95.768 19.538 34.385 19.538 34.385 54.461 0 11.069-7.454 18.534-7.454 7.466-18.505 7.466H633.975Zm103.658-136.308q-25.941 0-43.864-18.135t-17.923-44.076q0-25.941 18.136-43.864 18.135-17.923 44.076-17.923t43.864 18.135q17.923 18.135 17.923 44.077 0 25.941-18.135 43.864-18.136 17.922-44.077 17.922ZM168-264v-432V-544.307-552v288Zm12.309 51.999q-26.308 0-45.308-19t-19-45.308v-407.382q0-27.008 19-45.658 19-18.65 45.308-18.65h168.333q12.811 0 24.661 4.616 11.85 4.615 21.696 14.461l76.923 76.923h307.769q27.008 0 45.658 18.65 18.65 18.65 18.65 45.658v60.384q0 11.069-7.405 18.534-7.405 7.466-18.384 7.466-10.98 0-18.595-7.466Q792-516.238 792-527.307v-60.384q0-5.385-3.462-8.847-3.462-3.462-8.847-3.462H450.385l-96-96H180.309q-5.385 0-8.847 3.462-3.462 3.462-3.462 8.847v407.382q0 5.385 3.462 8.847 3.462 3.462 8.847 3.462H507.77q11.069 0 18.534 7.405 7.466 7.404 7.466 18.384 0 10.979-7.466 18.594-7.465 7.616-18.534 7.616H180.309Z"/></svg>