<svg xmlns="http://www.w3.org/2000/svg" height="20" viewBox="0 -960 960 960" width="20"><path d="M383.503-370.693h194.266l35.946 103.18q3.163 8.783 10.301 13.917t16.445 5.134q15.384 0 23.923-12.961 8.538-12.962 2.846-26.961L517.614-697.462q-3.461-8.923-10.789-13.807-7.328-4.885-16.122-4.885h-21.406q-8.794 0-16.122 4.885-7.328 4.884-10.789 13.807L291.77-287.384q-4.692 14.384 3.766 26.653 8.458 12.269 23.388 12.269 9.972 0 17.007-5.134 7.036-5.134 10.901-14.54l36.671-102.557Zm18.343-52.845L478-639.462h3l76.154 215.924H401.846ZM180.309-116.001q-27.008 0-45.658-18.65-18.65-18.65-18.65-45.658v-599.382q0-27.008 18.65-45.658 18.65-18.65 45.658-18.65h599.382q27.008 0 45.658 18.65 18.65 18.65 18.65 45.658v599.382q0 27.008-18.65 45.658-18.65 18.65-45.658 18.65H180.309Zm0-51.999h599.382q4.616 0 8.463-3.846 3.846-3.847 3.846-8.463v-599.382q0-4.616-3.846-8.463-3.847-3.846-8.463-3.846H180.309q-4.616 0-8.463 3.846-3.846 3.847-3.846 8.463v599.382q0 4.616 3.846 8.463 3.847 3.846 8.463 3.846ZM168-792V-168-792Z"/></svg>