<svg xmlns="http://www.w3.org/2000/svg" height="20" viewBox="0 -960 960 960" width="20"><path d="M512.341-881.998q10.966 0 18.581 7.475t7.615 18.524V-516q0 11.05-7.418 18.524-7.418 7.475-18.384 7.475-10.966 0-18.581-7.475-7.615-7.474-7.615-18.524v-339.999q0-11.049 7.418-18.524 7.418-7.475 18.384-7.475Zm-137.461 48q10.966 0 18.581 7.475t7.615 18.524V-516q0 11.05-7.418 18.524-7.418 7.475-18.384 7.475-10.966 0-18.581-7.475-7.615-7.474-7.615-18.524v-291.999q0-11.049 7.418-18.524 7.418-7.475 18.384-7.475ZM504.292-68.001q-121.83 0-207.06-85.024Q212.001-238.048 212.001-360v-361.999q0-11.05 7.419-18.525 7.418-7.475 18.384-7.475 10.966 0 18.581 7.475T264-721.999V-360q0 100 70 170t170 70q100 0 170-70t70-170v-154.001h-10.001q-23.846 0-40.923 16.877-17.077 16.878-17.077 41.124v102.306q0 13.666-9.245 22.91-9.244 9.244-22.909 9.244h-78.306q-39.266 0-66.634 27.367-27.367 27.368-27.367 66.634v13.999q0 11.05-7.418 18.524-7.418 7.475-18.384 7.475-10.966 0-18.582-7.475-7.615-7.474-7.615-18.524v-13.999q0-61.154 42.423-103.577 42.423-42.423 103.577-42.423H624V-759.999q0-11.049 7.418-18.524 7.418-7.475 18.384-7.475 10.966 0 18.581 7.475 7.616 7.475 7.616 18.524v211.693q12.153-8.847 27.455-13.27 15.301-4.423 30.545-4.423h29.846q13.665 0 22.909 9.244 9.245 9.244 9.245 22.909V-360q0 121.952-84.938 206.975-84.938 85.024-206.769 85.024ZM529.999-343Z"/></svg>