<svg xmlns="http://www.w3.org/2000/svg" height="20" viewBox="0 -960 960 960" width="20"><path d="M505.924-480 316.77-676.308q-4.461-4.875-6.615-10.649-2.154-5.773-2.154-11.932v-17.944q0-13.264 8.935-22.215 8.934-8.951 22.142-8.951h282.614q12.628 0 21.467 8.853 8.84 8.853 8.84 21.499 0 12.647-8.84 21.646-8.839 9-21.467 9H390.536l176.231 185.078q9.077 9.696 9.077 21.848t-9.077 21.998L390.536-272.614h231.156q12.628 0 21.467 8.852 8.84 8.853 8.84 21.499 0 12.647-8.84 21.454-8.839 8.808-21.467 8.808H330.155q-9.167 0-15.66-6.606-6.494-6.606-6.494-15.931v-30.493q0-4.815 1.402-8.464t4.906-6.966L505.924-480Z"/></svg>