<svg xmlns="http://www.w3.org/2000/svg" height="20" viewBox="0 -960 960 960" width="20"><path d="M480.076-775.691q9.77 0 19.583 2.616 9.813 2.615 18.725 9.846l203.692 153.538q12.557 9.942 19.24 23.383 6.683 13.44 6.683 28.462v367.845q0 11.05-7.419 18.525-7.418 7.475-18.384 7.475-10.966 0-18.581-7.475T696-190.001v-367.845q0-3.077-1.346-5.577-1.347-2.5-3.654-4.423L487.308-721q-3.077-2.692-7.308-2.692T472.692-721L269-567.846q-2.307 1.923-3.654 4.423-1.346 2.5-1.346 5.577v367.845q0 11.05-7.418 18.525-7.418 7.475-18.384 7.475-10.966 0-18.581-7.475-7.616-7.475-7.616-18.525v-367.845q0-15.022 6.683-28.462 6.683-13.441 19.24-23.383l203.692-153.538q8.959-7.231 18.824-9.846 9.865-2.616 19.636-2.616ZM373.999-216.385h212.002v-104.001H373.999v104.001Zm0-156h212.002v-104.001H373.999v104.001Zm-19.845 207.999q-13.665 0-22.909-9.244t-9.244-22.91v-299.691q0-13.665 9.244-22.91 9.244-9.244 22.909-9.244h251.692q13.665 0 22.909 9.244 9.244 9.245 9.244 22.91v299.691q0 13.666-9.244 22.91t-22.909 9.244H354.154Z"/></svg>