<svg xmlns="http://www.w3.org/2000/svg" height="20" viewBox="0 -960 960 960" width="20"><path d="M228.154-72.617q-64.263-1-109.4-46.137t-46.137-109.4q0-8.166 5.051-13.506Q82.72-247 90.445-247t12.794 5.757q5.07 5.756 5.07 13.089 0 50.379 35.097 85.112 35.098 34.733 84.748 34.733 8.166 0 13.506 5.052 5.34 5.05 5.34 12.776t-5.34 12.795q-5.34 5.069-13.506 5.069ZM869.94-712.846q-7.726 0-12.795-5.056t-5.069-12.789q0-47.539-32.884-80.423-32.885-32.885-80.423-32.885-7.733 0-12.79-5.051-5.056-5.051-5.056-12.776 0-7.726 5.056-12.795 5.057-5.069 12.79-5.069 61.95 0 105.474 43.524t43.524 105.475q0 7.733-5.051 12.789t-12.776 5.056ZM429.309-78.002q-19.418 0-36.247-7.846t-29.676-22.923L92.38-436.014q-6.84-7.449-6.109-17.026.73-9.576 7.423-16.499l4-4q13.923-13.923 34.192-16.462 20.269-2.538 38.192 8.154l137.923 82.078v-359.076q0-11.049 7.419-18.524 7.418-7.475 18.384-7.475 10.966 0 18.581 7.475T360-758.845v391.304q0 19.09-15.884 28.237-15.885 9.148-31.962-.699L178.768-420.85l224.079 277.618q5.538 6.308 12.154 9.77 6.615 3.461 14.308 3.461h232.69q34.316 0 58.158-23.842Q744-177.686 744-212.001v-509.998q0-11.05 7.418-18.525 7.418-7.475 18.384-7.475 10.966 0 18.581 7.475 7.616 7.475 7.616 18.525v509.998q0 56.153-38.923 95.076-38.923 38.923-95.077 38.923h-232.69Zm49.956-802.842q10.966 0 18.581 7.475t7.615 18.524V-516q0 11.05-7.418 18.524-7.418 7.475-18.384 7.475-10.966 0-18.581-7.475-7.615-7.474-7.615-18.524v-338.845q0-11.049 7.418-18.524 7.418-7.475 18.384-7.475Zm145.461 48q10.966 0 18.581 7.475t7.615 18.524V-516q0 11.05-7.418 18.524-7.418 7.475-18.384 7.475-10.966 0-18.581-7.475-7.615-7.474-7.615-18.524v-290.845q0-11.049 7.418-18.524 7.418-7.475 18.384-7.475Zm-163.65 522.843Z"/></svg>