<svg xmlns="http://www.w3.org/2000/svg" height="20" viewBox="0 -960 960 960" width="20"><path d="M480-792q-38.118 0-73.021 8.154t-66.826 24.462q-9.769 5.461-20.73 3.307-10.961-2.153-17.038-11.692-6.077-9.538-3.731-19.307 2.346-9.769 12.5-15.23 40.385-21.539 81.154-31.616 40.769-10.077 87.692-10.077 75.769 0 141.615 28.462 65.846 28.461 115.653 78.269 49.808 49.807 78.269 115.653Q843.999-555.769 843.999-480q0 44.192-9.308 86.25-9.308 42.057-31.616 82.211-5.461 10.154-16.031 12.692-10.57 2.539-19.891-3.538-9.538-6.077-11.692-17.038t3.308-20.73q15.923-32.923 24.577-67.5Q792-442.229 792-480q0-130-91-221t-221-91Zm-30.154 178.461-35.692-35.691V-655q0-4.674 4.269-7.76 4.27-3.086 13.577-3.086 7.707 0 12.777 5.069 5.069 5.069 5.069 12.777v34.461Zm192-4.307v83.692q0 20.769-13.616 34.384-13.615 13.616-34.384 13.616H576.23l-66.076-67.076V-648q0-7.708 5.069-12.777 5.069-5.069 12.777-5.069h65.846q20.769 0 34.384 13.616 13.616 13.615 13.616 34.384Zm-96 96h48q5.385 0 8.847-3.461 3.461-3.462 3.461-8.847v-83.692q0-5.385-3.461-8.847-3.462-3.461-8.847-3.461h-48v108.308Zm-144 176q5.385 0 8.847-3.461 3.461-3.462 3.461-8.847v-19.692q0-5.385-3.461-8.847-3.462-3.461-8.847-3.461h-48v44.308h48ZM531-532ZM353.846-310.154v45.837q0 7.624-5.069 12.894-5.07 5.269-12.777 5.269-7.707 0-12.777-5.054-5.069-5.054-5.069-12.738v-143.677q0-7.684 5.069-12.954 5.07-5.269 12.777-5.269h65.846q20 0 34 14t14 34v19.692q0 16.088-8.27 28.813-8.269 12.725-23.807 16.956l19.077 43.924q3.846 8.307-1.436 15.307-5.281 7-14.964 7-5.446 0-8.715-2.731t-5.885-7.192l-24.538-54.077h-27.462Zm-36.692-316.539 36.692 46.692V-504q0 7.707-5.353 12.777-5.352 5.069-13.493 5.069-7.707 0-12.777-4.786-5.069-4.786-5.069-12.06v-123.693Zm129.078 180.461ZM200.386-713.846l37.768 38.153Q205-636.462 186.5-585.962 168-535.462 168-481q0 130 91 221t221 91q55.231 0 105.331-19.601t89.362-50.553l38.768 39.353q-49.846 41.8-110 62.8t-123.461 21q-75.144 0-141.303-28.462-66.158-28.461-115.965-78.269-49.808-49.807-78.269-115.965Q116.001-404.856 116.001-480q0-66.385 21.77-125.769 21.769-59.385 62.615-108.077ZM834.924-88.924q-8.693 8.693-18.577 8.693-9.884 0-18.576-8.693L87.924-798.77q-8.308-8.307-8.5-17.884-.193-9.576 8.5-18.269 8.692-8.692 18.576-8.692t18.576 8.692l709.848 709.848q8.307 8.307 8.499 17.884.193 9.576-8.499 18.268Z"/></svg>