<svg xmlns="http://www.w3.org/2000/svg" height="20" viewBox="0 -960 960 960" width="20"><path d="M480.544-281.309q15.379 0 25.686-10.582 10.308-10.582 10.308-25.961 0-15.379-10.378-25.187-10.378-9.807-25.461-9.807-15.083 0-25.891 9.807-10.807 9.808-10.807 25.187 0 15.379 10.582 25.961 10.582 10.582 25.961 10.582Zm108.609-295.383q0-44.769-31.808-74.922-31.807-30.154-80.038-30.154-29.23 0-55.73 15.154-26.499 15.153-43.346 41.076-5.461 8.692-1.692 18 3.769 9.307 13.615 13.223 8.769 3.392 17.664.228 8.894-3.163 14.608-11.47 10.574-16.058 23.958-23.328 13.385-7.269 31.693-7.269 28.915 0 46.842 16.64t17.927 42.668q0 16-8.846 29.462-8.846 13.461-35.076 39.461-25 24.769-33.308 40.269t-9.538 36.962q-.616 9.538 6.355 16.346 6.97 6.807 17.555 6.807 9.55 0 16.665-6.692 7.116-6.692 8.346-16.846 2-14.384 8.885-25.461 6.885-11.077 26.885-29.077 25.538-24.539 36.961-45.334 11.423-20.795 11.423-45.743ZM228.309-164.001q-27.008 0-45.658-18.65-18.65-18.65-18.65-45.658v-503.382q0-27.008 18.65-45.658 18.65-18.65 45.658-18.65h503.382q27.008 0 45.658 18.65 18.65 18.65 18.65 45.658v503.382q0 27.008-18.65 45.658-18.65 18.65-45.658 18.65H228.309Zm0-51.999h503.382q4.616 0 8.463-3.846 3.846-3.847 3.846-8.463v-503.382q0-4.616-3.846-8.463-3.847-3.846-8.463-3.846H228.309q-4.616 0-8.463 3.846-3.846 3.847-3.846 8.463v503.382q0 4.616 3.846 8.463 3.847 3.846 8.463 3.846ZM216-744v528-528Z"/></svg>