<svg xmlns="http://www.w3.org/2000/svg" height="20" viewBox="0 -960 960 960" width="20"><path d="M480-827.306q9.461 0 19.807 2.423 10.347 2.423 19.193 9.653l316.4 238.171q8.599 6.675 10.022 17.444 1.423 10.769-5.269 19.307-6.692 8.538-17.461 9.961-10.769 1.423-19.307-4.5L480-778 264-615.693v339.384q0 5.385 3.462 8.847 3.462 3.462 8.847 3.462h98.89q11.032 0 18.647 7.405 7.615 7.404 7.615 18.384 0 10.979-7.483 18.594-7.483 7.616-18.578 7.616h-99.34q-26.674 0-45.366-18.843-18.693-18.842-18.693-45.465v-301.154l-55.473 42.207q-8.451 6.332-18.971 5.103-10.52-1.23-17.269-10.413-6.748-8.665-5.518-19.434 1.231-10.769 9.861-17.412L441-815.23q8.846-7.23 19-9.653t20-2.423Zm0 331.613ZM696-84.309q-44.539 28.154-89.541 25.293-45.003-2.861-78.535-36.908-33.846-33.846-37.308-79.384-3.461-45.538 25.693-88.692-29.154-43.539-25.693-89.384 3.462-45.846 37.267-79.804 33.806-33.957 79.384-36.807 45.579-2.85 88.733 26.304 43.539-29.154 88.884-25.693 45.346 3.462 79.192 36.808t37.308 79.384q3.461 46.038-25.693 89.192 29.154 43.539 25.693 88.884-3.462 45.346-37.308 79.192-33.846 33.847-79.384 37.308Q739.154-55.155 696-84.31Zm1-60.382 34.23 21.769q23.077 14.923 50.424 12.23 27.346-2.692 46.154-22 18.808-19.308 21.193-46.954 2.384-27.647-11.539-51.124L815.309-264l21.769-34.23q14.923-23.477 12.73-51.124-2.192-27.646-20.5-44.954-19.308-19.308-47.154-23.193-27.847-3.884-50.924 12.039L697-382.309l-34.23-22.769q-23.077-15.923-50.424-12.73-27.346 3.192-46.654 22.5-19.308 19.308-22.693 46.654-3.384 27.347 12.539 50.424L578.691-264l-22.769 35.23q-15.923 23.077-13.23 50.424 2.692 27.346 22 46.654 19.308 19.308 47.654 21.693 28.347 2.384 51.424-13.539L697-144.691Zm-1.113-80.54q16.267 0 27.574-11.195 11.308-11.195 11.308-27.461 0-16.267-11.195-27.574-11.195-11.308-27.461-11.308-16.267 0-27.574 11.195-11.308 11.195-11.308 27.461 0 16.267 11.195 27.574 11.195 11.308 27.461 11.308ZM696-264Z"/></svg>