<svg xmlns="http://www.w3.org/2000/svg" height="20" viewBox="0 -960 960 960" width="20"><path d="M257.846-260.001v70q0 11.05-7.418 18.525-7.419 7.475-18.385 7.475-10.965 0-18.581-7.379-7.615-7.378-7.615-18.286v-334.412L156-486.462q-8.538 6.307-18.807 4.692-10.269-1.615-16.961-10.154-6.692-8.538-5.471-18.742 1.222-10.204 10.349-16.919L441-767.23q8.846-7.23 19.081-9.653T480-779.306q9.684 0 19.919 2.423 10.235 2.423 19.081 9.653l316.754 239.521q8.63 6.709 9.86 16.978 1.231 10.269-5.461 18.807-6.692 8.539-16.961 10.154-10.269 1.615-18.807-4.692l-49.848-37.616v334.412q0 10.908-7.418 18.286-7.418 7.379-18.384 7.379-10.966 0-18.581-7.475t-7.615-18.525v-70H257.846Zm0-203.383h444.693v-99.386H257.846v99.386Zm0 151.384h444.693v-99.386H257.846V-312Zm67.614-302.769h309.08L480-730.385 325.46-614.769Z"/></svg>