<svg xmlns="http://www.w3.org/2000/svg" height="20" viewBox="0 -960 960 960" width="20"><path d="M68.001-480q0-101.538 71.231-172.768 71.23-71.231 172.768-71.231 29.154 0 57.309 5.808 28.154 5.808 53.77 18.424 11.692 6.154 13.538 19.923 1.846 13.769-7.231 24.615-29.23 37-45.153 81.961Q368.31-528.307 368.31-480t15.923 93.268q15.923 44.961 45.153 81.961 9.462 10.846 7.615 24.615-1.846 13.769-13.922 19.923-25.616 12.616-53.77 18.424-28.155 5.808-57.309 5.808-101.538 0-172.768-71.231-71.23-71.23-71.23-172.768ZM480-317.694q-6.615 0-12.731-3.193-6.115-3.192-11.115-8.192-25.384-30.538-38.768-71.153-13.385-40.615-13.385-79.768t13.385-79.768q13.384-40.615 38.768-71.153 5-5 11.115-8.192 6.116-3.193 12.731-3.193t12.731 3.193q6.115 3.192 11.115 8.192 25.384 30.538 38.768 71.153 13.385 40.615 13.385 79.768t-13.385 79.768q-13.384 40.615-38.768 71.153-5 5-11.115 8.192-6.116 3.193-12.731 3.193ZM891.999-480q0 48.769-18.154 93.307-18.154 44.538-53.077 79.461-55.462 55.462-132.039 70.193-76.577 14.73-148.731-19.194-9.384-5.385-13.807-16.577-4.423-11.192.961-20.576 5.385-9.384 16.385-13.615 11-4.23 20.384 1.154 56 26.386 115.963 16.193Q739.846-299.846 784-344q27-27 41.5-62.5T840-480q0-38-14.5-73.5T784-616q-44.154-44.154-104.116-54.846-59.963-10.693-115.963 15.693-9.384 5.384-19.884 1.154-10.5-4.231-15.885-13.615-5.384-9.384-1.461-19.884t13.307-15.884q71.769-33.54 148.539-19.194 76.769 14.346 132.231 69.808 34.923 34.923 53.077 79.461 18.154 44.538 18.154 93.307Z"/></svg>