<svg xmlns="http://www.w3.org/2000/svg" height="20" viewBox="0 -960 960 960" width="20"><path d="M891.999-480q0 101.538-71.231 172.768-71.23 71.231-172.768 71.231-39.616 0-74.962-10.693-35.347-10.692-66.27-32.077 41.538-40 63.23-91.923Q591.69-422.616 591.69-480t-21.692-109.306q-21.692-51.923-63.23-91.923 30.923-21.385 66.27-32.077 35.346-10.693 74.962-10.693 101.538 0 172.768 71.231 71.231 71.23 71.231 172.768ZM480-317.694q-6.615 0-12.731-3.193-6.115-3.192-11.115-8.192-25.384-30.538-38.768-71.153-13.385-40.615-13.385-79.768t13.385-79.768q13.384-40.615 38.768-71.153 5-5 11.115-8.192 6.116-3.193 12.731-3.193t12.731 3.193q6.115 3.192 11.115 8.192 25.384 30.538 38.768 71.153 13.385 40.615 13.385 79.768t-13.385 79.768q-13.384 40.615-38.768 71.153-5 5-11.115 8.192-6.116 3.193-12.731 3.193ZM68.001-480q0-48.769 18.154-93.307 18.154-44.538 53.077-79.461 55.462-55.462 132.039-69.616 76.577-14.153 148.347 19.002 9.384 5.384 13.807 16.384t-.962 20.384q-5.385 9.384-16.192 13.615-10.808 4.23-20.192-1.154-56-26.386-115.963-16.193Q220.154-660.154 176-616q-27 27-41.5 62.5T120-480q0 38 14.5 73.5T176-344q44.154 44.154 104.116 54.346 59.963 10.193 115.963-16.193 9.384-5.384 20.384-1.154 11 4.231 16.385 13.615 5.384 9.769.769 20.576-4.615 10.808-13.999 16.192-71.77 33.155-148.347 19.002-76.577-14.154-132.039-69.616-34.923-34.923-53.077-79.461Q68.001-431.231 68.001-480Z"/></svg>