<svg xmlns="http://www.w3.org/2000/svg" height="20" viewBox="0 -960 960 960" width="20"><path d="m705.15-329.54-36.77-36.77 80.85-106q2.69-3.46 2.69-7.69t-2.69-7.69l-154.9-203.69q-1.93-2.31-4.43-3.47-2.5-1.15-5.58-1.15H341.09L289-748h295.41q15.2 0 28.67 6.54 13.46 6.54 23.3 19l154.7 203.69q12.84 18.46 12.84 38.77 0 20.31-12.84 38.77l-85.93 111.69ZM180.31-264H594L168-691v414.69q0 5.39 3.46 8.85t8.85 3.46Zm0 52q-26.62 0-45.47-18.84Q116-249.69 116-276.31v-407.38q0-12.01 4.62-22.7 4.61-10.69 12.46-19.53l-59-59q-8.31-8.31-8.5-17.89-.2-9.57 8.5-18.27 8.69-8.69 18.57-8.69 9.89 0 18.58 8.69l709.85 709.85q8.3 8.31 8.3 18.08 0 9.77-8.3 18.07-8.7 8.7-18.58 8.7-9.88 0-18.89-8.93L628.92-229.08q-5.31 7.54-14.65 12.31-9.35 4.77-18.73 4.77H180.31ZM381-477Zm165.85-54.15Z"/></svg>