<svg xmlns="http://www.w3.org/2000/svg" height="20" viewBox="0 -960 960 960" width="20"><path d="M779.846-130.617 628.229-284.003l-31.384 80.153q-4.616 10.846-15.962 10.538-11.346-.308-14.577-11.154l-77.46-245.996q-2.231-9.846 4.308-16.384 6.538-6.539 16.384-4.308l245.996 77.46q10.846 3.231 11.154 14.577.308 11.346-10.538 15.962l-80.153 30.384 153.001 152.617q9.769 9.769 9.769 24.768 0 15-9.769 24.769-9.769 9.769-24.576 9.769t-24.576-9.769ZM260.001-480q0-91.538 64.231-155.768 64.23-64.231 155.768-64.231 74.461 0 132.461 44.846 57.999 44.846 78.691 114.461 3.462 9.769-2.5 18.807-5.961 9.039-15.73 12.5-9.769 3.461-18.807-2.692-9.038-6.154-12.5-15.923-16-53-60.307-86.5Q537-648 480-648q-70 0-119 49t-49 119q0 57 33.692 101.5 33.693 44.5 86.693 60.5 9.769 3.461 15.538 12.307t2.307 18.615q-3.461 9.769-12.807 15.73-9.346 5.962-19.115 2.5-69.23-21.076-113.768-78.499Q260.001-404.77 260.001-480Z"/></svg>