<svg xmlns="http://www.w3.org/2000/svg" height="20" viewBox="0 -960 960 960" width="20"><path d="m602.922-459.308-47.691-46.691h31.721q11.187 0 18.733 7.465 7.545 7.465 7.545 18.534 0 6.692-3.231 11.769-3.23 5.077-8.077 8.923h1Zm198.002 336.384q-8.693 8.693-18.577 8.693-9.884 0-18.576-8.693L121.924-763.771q-8.308-8.307-8.5-18.384-.193-10.076 8.5-18.769 8.692-8.692 18.576-8.692t18.576 8.692l641.848 641.848q8.307 8.307 8.499 17.884.193 9.576-8.499 18.268ZM289.539-306.463q-71.988 0-122.763-50.775Q116.001-408.013 116.001-480q0-61.624 38.962-108.004t107.808-68.841h9.231l52.307 55.306h-33.77q-51.385 0-86.962 35.577Q168-530.385 168-480q0 50.385 35.577 85.962 35.577 35.577 85.962 35.577h109.538q11.069 0 18.534 7.404 7.465 7.405 7.465 18.384 0 10.98-7.465 18.595-7.465 7.615-18.534 7.615H289.539Zm83.123-147.538q-10.662 0-18.277-7.404-7.615-7.405-7.615-18.384 0-10.98 7.465-18.595 7.465-7.615 18.534-7.615h42.694l50.999 51.998h-93.8Zm349.799 114.308q-5.692-8.538-3.384-19.192 2.307-10.653 11.23-15.961 28.462-16.23 45.077-44.346Q792-447.307 792-480q0-50.385-35.385-85.962-35.384-35.577-85.384-35.577H560.923q-11.069 0-18.534-7.404-7.465-7.405-7.465-18.384 0-10.98 7.465-18.595 7.465-7.615 18.534-7.615h110.308q71.602 0 122.185 50.775T843.999-480q0 46.73-23.577 86.288t-62.808 62.481q-8.538 5.692-19 2.884-10.461-2.808-16.153-11.346Z"/></svg>