<svg xmlns="http://www.w3.org/2000/svg" height="20" viewBox="0 -960 960 960" width="20"><path d="M344.462-212.001H228.309q-26.308 0-45.308-19t-19-45.308v-503.382q0-26.308 19-45.308t45.308-19h503.382q27.008 0 45.658 19 18.65 19 18.65 45.308v503.382q0 26.308-18.65 45.308t-45.658 19H615.538L502.307-98.771q-9.482 9.846-22.125 9.846t-22.489-9.846l-113.231-113.23ZM228.309-264h137.46L480-149.769 593.231-264h138.46q5.385 0 8.847-3.462 3.462-3.462 3.462-8.847v-503.382q0-5.385-3.462-8.847-3.462-3.462-8.847-3.462H228.309q-5.385 0-8.847 3.462-3.462 3.462-3.462 8.847v503.382q0 5.385 3.462 8.847 3.462 3.462 8.847 3.462ZM480-528Zm1.923 200.23q16.154 0 25.961-10.583 9.808-10.582 9.808-25.961 0-15.379-10.378-25.186t-25.461-9.807q-15.083 0-25.391 9.807-10.307 9.807-10.307 25.186t10.357 25.961q10.358 10.583 25.411 10.583Zm62.693-295.076q0 24.154-16.423 40.77-16.423 16.615-33.115 32.692-13.231 13.615-20.231 22.23-7 8.616-10.434 16.756-2.566 5.475-3.9 11.206-1.333 5.731-2.666 12.654-1.616 10.322 6.077 17.93Q471.616-461 481.636-461q9.056 0 16.71-6.611 7.653-6.611 10.192-17.543 3-10.769 9.5-21.038t20.884-24.654q17.308-17.308 34.846-37.423 17.539-20.115 17.539-56.577 0-48.384-33.115-75.884-33.116-27.5-79.077-27.5-31.73 0-57.807 16.462-26.077 16.461-41.923 39.769-5.461 8.36-1.692 17.641 3.769 9.281 13.692 13.127 8.256 3.846 16.897 1 8.641-2.846 15.102-11.538 9.539-13.692 23.5-22.269 13.962-8.577 32.731-8.577 35.462 0 50.231 18.154 14.77 18.154 14.77 41.615Z"/></svg>