<svg xmlns="http://www.w3.org/2000/svg" height="20" viewBox="0 -960 960 960" width="20"><path d="M276-394.001h264q11.05 0 18.524-7.418 7.475-7.418 7.475-18.384 0-10.966-7.475-18.581-7.474-7.615-18.524-7.615H276q-11.05 0-18.524 7.418-7.475 7.418-7.475 18.384 0 10.966 7.475 18.581 7.474 7.615 18.524 7.615Zm0-132h408q11.05 0 18.524-7.418 7.475-7.418 7.475-18.384 0-10.966-7.475-18.581-7.474-7.615-18.524-7.615H276q-11.05 0-18.524 7.418-7.475 7.418-7.475 18.384 0 10.966 7.475 18.581 7.474 7.615 18.524 7.615Zm0-132h332.001q11.05 0 18.525-7.418 7.475-7.418 7.475-18.384 0-10.966-7.475-18.581t-18.525-7.615H276q-11.05 0-18.524 7.418-7.475 7.418-7.475 18.384 0 10.966 7.475 18.581 7.474 7.615 18.524 7.615Zm-34.461 398-70.959 70.958q-15.194 15.194-34.886 6.882-19.693-8.312-19.693-29.687v-567.843q0-26.308 18.65-45.308t45.658-19h354.923q11.213 0 18.799 7.79 7.585 7.789 7.2 18.769-.384 10.594-7.849 18.017-7.466 7.423-18.15 7.423H180.309q-4.616 0-8.463 3.846-3.846 3.847-3.846 8.463v520.076L220.001-312h559.69q4.616 0 8.463-3.846 3.846-3.847 3.846-8.463v-288.845q0-11.05 7.418-18.524 7.418-7.475 18.384-7.475 10.966 0 18.581 7.475 7.616 7.474 7.616 18.524v288.845q0 27.008-19 45.658-19 18.65-45.308 18.65H241.539Zm502.506-438.768q-45.814 0-77.929-32.07-32.115-32.069-32.115-77.884 0-45.814 32.07-77.929t77.884-32.115q45.814 0 77.929 32.07t32.115 77.884q0 45.814-32.07 77.929t-77.884 32.115ZM168-779.691v495.385V-792v12.309Z"/></svg>