<svg xmlns="http://www.w3.org/2000/svg" height="20" viewBox="0 -960 960 960" width="20"><path d="M174.154-696 480-517l305.846-179H174.154Zm6.155 483.999q-26.527 0-45.417-18.942-18.891-18.942-18.891-45.541v-408.435q0-26.599 18.891-45.339 18.89-18.741 45.417-18.741h599.382q26.527 0 45.417 18.891 18.891 18.89 18.891 45.417v246.539q0 10.625-7.419 17.812-7.418 7.187-18.384 7.187-10.966 0-18.581-7.475Q792-428.102 792-439.152v-192.157L497.461-458.924q-2.384 1.384-17.678 4.615-4.783 0-8.706-1.308-3.923-1.307-7.538-3.307L168-631.309v355q0 5.385 3.462 8.847 3.462 3.462 8.847 3.462H424q11.05 0 18.525 7.418Q450-249.164 450-238.198q0 10.966-7.475 18.581-7.475 7.616-18.525 7.616H180.309ZM480-429.155ZM480-517Zm0 50.691Zm184.769 281.387 169.692-168.693q8.308-8.307 17.885-8.5 9.576-.192 18.268 8.5t8.692 18.576q0 9.885-8.692 18.577L688.076-133.924q-9.755 9.846-22.762 9.846t-22.853-9.846l-80.769-80.769q-8.307-8.307-8.5-17.884-.192-9.577 8.5-18.269 8.692-8.692 18.577-8.692 9.884 0 18.576 8.692l65.924 65.924Z"/></svg>