<svg xmlns="http://www.w3.org/2000/svg" height="20" viewBox="0 -960 960 960" width="20"><path d="m695-240.768 134.17-134.171q7.676-7.676 18.33-8.56 10.654-.885 19.055 7.423 7.829 7.922 7.444 18.576-.384 10.654-8.132 18.401L717.132-190.364q-9.671 9.671-22.314 9.671t-22.125-9.846l-63.769-63.769q-8.308-8.308-7.923-18.577.384-10.269 8.307-18.191 8.308-8.308 18.384-8.308 10.077 0 18.384 8.308L695-240.768Zm-453.461-19.233-70.959 70.958q-15.194 15.194-34.886 6.942-19.693-8.252-19.693-29.747v-567.843q0-26.308 19-45.308t45.308-19h599.382q26.308 0 45.308 19t19 45.308v259.692q0 11.069-7.405 18.535-7.405 7.465-18.384 7.465-10.98 0-18.595-7.465Q792-508.93 792-519.999v-259.692q0-4.616-3.846-8.463-3.847-3.846-8.463-3.846H180.309q-4.616 0-8.463 3.846-3.846 3.847-3.846 8.463v520.076L220.001-312h268q11.069 0 18.535 7.405 7.465 7.404 7.465 18.384 0 10.979-7.465 18.594-7.466 7.616-18.535 7.616H241.539ZM168-312v27.694V-792v480Z"/></svg>