<svg xmlns="http://www.w3.org/2000/svg" height="20" viewBox="0 -960 960 960" width="20"><path d="M751.462-93.232 598.385-245.31l-22.001 22.001q-5.846 5.846-14.115 6.038-8.269.192-14.5-6.038-6.231-6.231-6.231-14.308t6.231-14.307l22.001-22.001-147.771-147.771v129.849q0 52.691-36.23 88.345-36.23 35.653-87.768 35.653-51.538 0-87.768-35.461-36.231-35.461-36.231-88.537 0-51.923 36.038-87.961t87.961-36.038q22.308 0 40.5 7.616 18.192 7.615 31.5 17.769v-83.234L140.386-704.308q-8.307-8.307-8.499-17.884-.193-9.577 8.499-18.269 8.693-8.692 18.577-8.692 9.884 0 18.576 8.692l611.076 611.076q8.307 8.307 8.5 17.884.192 9.577-8.5 18.269-8.692 8.692-18.576 8.692-9.885 0-18.577-8.692Zm-43.001-319.383 47.231-46.462-47.231-48.001v94.463ZM421.999-598.001l-51.998-51.998v-110q0-13.761 9.18-22.957 9.18-9.196 22.918-9.196h129.162q13.738 0 23.084 9.171t9.346 22.895v50.285q0 13.724-9.196 23.07t-22.957 9.346H421.999v79.384Zm390.923 138.924-96 95.231 81.308 81.307q7.231 6.846 7.231 14.5t-7.231 14.885q-7.231 7.23-15.412 7.038-8.182-.192-14.972-7.038L546.615-475.385q-6.231-6.284-6.231-14.5 0-8.216 6.231-14.884Q553.283-511 561.307-511q8.024 0 14.692 6.231l92.155 92.154V-576h28.615l116.153 116.923Z"/></svg>