<svg xmlns="http://www.w3.org/2000/svg" height="20" viewBox="0 -960 960 960" width="20"><path d="M480-116.001q-74.769 0-141.115-28.462-66.346-28.461-116.153-78.269-49.808-49.807-78.269-116.153Q116.001-405.231 116.001-480v-257.69q0-20.692 17.885-29.538 17.884-8.846 33.961 3.615l166.307 124.615q25.231-39.538 54.462-80.115 29.23-40.577 62.692-81.423 10.231-13.231 27.192-13.539 16.961-.307 28.192 12.539 33.077 41.846 63.5 82.923 30.423 41.077 55.654 80.615l166.307-125.615q16.077-12.461 33.961-3.615 17.885 8.846 17.885 29.538V-480q0 74.769-28.462 141.115-28.461 66.346-78.269 116.153-49.807 49.808-115.653 78.269Q555.769-116.001 480-116.001ZM232.001-364q0-54.23 20-111.807 20-57.577 54.308-118.5L168-698v218q0 63.155 24.155 116.887 24.154 53.731 65.617 93.808-11.231-20.692-18.501-44.347-7.27-23.655-7.27-50.348ZM480-168q81 0 138.5-57.5T676-364q0-76.308-57.154-184.577Q561.692-656.847 480-754q-81.692 97.384-138.846 205.538Q284-440.308 284-364q0 81 57.5 138.5T480-168Zm247.999-196q0 26.693-7.27 50.348-7.27 23.655-18.501 44.347 41.463-40.077 65.617-93.808Q792-416.845 792-480v-217L653.691-592.922q34.308 59.923 54.308 117.5 20 57.576 20 111.422Z"/></svg>