<svg xmlns="http://www.w3.org/2000/svg" height="20" viewBox="0 -960 960 960" width="20"><path d="M656.038-402.782q-10.731-4.549-14.154-14.654-3.423-10.104 1.269-20.642 3.846-9.231 7-19.124 3.154-9.894 4.769-20.029Q656.768-488 664.897-496q8.129-8 19.063-8 10.933 0 18.062 8.307 7.129 8.308 5.899 18.527-2.231 15.319-5.423 31.165-3.192 15.846-10.5 30.384-4.692 10.923-14.961 14.153-10.269 3.231-20.999-1.318Zm-193.27-204.451Zm3-236.766q41.923 0 70.961 29.038 29.038 29.039 29.038 70.961v174.999q0 12.999-8.103 19.499-8.103 6.5-17.827 6.5-9.723 0-17.896-6.56t-8.173-19.055V-744q0-20.4-13.8-34.2-13.8-13.8-34.2-13.8-20.4 0-34.2 13.8-13.8 13.8-13.8 34.2v26.231q0 12.999-8.103 19.499-8.103 6.5-17.826 6.5-9.724 0-17.896-6.56-8.173-6.56-8.173-19.055V-744q0-41.922 29.038-70.961 29.038-29.038 70.96-29.038ZM439.769-180v-81.848q-85.182-9.104-146.014-69.282Q232.923-391.309 224-477.001q-1.615-11.11 5.554-19.055Q236.723-504 247.63-504q10.908 0 18.497 7.585 7.59 7.586 9.487 18.799 9.923 72.077 64.385 118.847Q394.46-312 465.768-312q38.616 0 72.578-16.269 33.961-16.27 61.115-43.655l37.769 37.768q-29.296 29.322-66.649 48.7-37.352 19.378-78.814 23.608V-180q0 11.05-7.418 18.524-7.418 7.475-18.384 7.475-10.966 0-18.581-7.475-7.615-7.474-7.615-18.524Zm312.847 35.536L119.231-777.849q-8.307-8.307-8.5-17.884-.192-9.576 8.5-18.268 8.692-8.693 18.576-8.693 9.885 0 18.577 8.693l633.385 633.385q8.307 8.307 8.5 17.884.192 9.576-8.5 18.268-8.692 8.693-18.576 8.693-9.885 0-18.577-8.693Z"/></svg>