<svg xmlns="http://www.w3.org/2000/svg" height="20" viewBox="0 -960 960 960" width="20"><path d="M174.002-793.691 225.693-742h-45.384q-4.616 0-8.463 3.846-3.846 3.847-3.846 8.463v419.23q0 5.385 3.462 8.846 3.462 3.462 8.847 3.462h415.695L95.457-797.93q-8.533-8.02-8.533-17.661 0-9.64 8.692-18.333 8.693-8.692 18.577-8.692 9.884 0 18.576 8.692l687.538 687.538q8.308 8.274 8.308 18.06t-8.308 18.093q-8.692 8.692-18.333 9.192-9.64.5-17.82-8.192L645.771-246.154h-41.003l33.538 33.538q4.615 4.615 7.231 10.237 2.615 5.622 2.615 12.686v-3.462q0 12.39-8.345 20.772-8.346 8.382-20.682 8.382H340.386q-11.846 0-20.192-8.382t-8.346-20.772v3.462q0-7.064 2.615-12.686 2.616-5.622 7.231-10.237l33.538-33.538H180.309q-26.308 0-45.308-19t-19-45.307v-421.23q0-29.728 24-45.864 24-16.136 34.001-16.136Zm605.689-2.308q13.737 0 25.453 5.081t20.205 13.569q8.488 8.489 13.569 20.205 5.081 11.716 5.081 25.453v448.383q0 11.05-7.419 18.525-7.418 7.474-18.384 7.474-10.966 0-18.581-7.474Q792-272.258 792-283.308v-448.383q0-5.385-3.462-8.847-3.462-3.462-8.847-3.462H334.923q-11.999 0-18.999-8.103-7-8.103-7-17.826 0-9.724 6.5-17.897 6.5-8.173 19.499-8.173h444.768ZM558.846-510.846Zm-179.921-3.617Z"/></svg>