<svg xmlns="http://www.w3.org/2000/svg" height="20" viewBox="0 -960 960 960" width="20"><path d="M471.922-139.694q-10.692 0-19.884-3.538t-18.653-11q-28.846-24.614-72.269-66.999-43.422-42.384-84.576-95.615-41.154-53.23-69.847-113.654-28.692-60.423-28.692-121.5 0-125.384 88.115-213.692Q354.231-853.999 480-853.999q132.539 0 220.154 93.308 87.615 93.307 81.845 238.924l73.309-73.309q8.308-8.308 18.192-8.308t18.192 8.308q8.307 8.307 8.307 18.384 0 10.076-8.307 18.384L778.307-444.539q-9.846 9.846-22.307 9.846-12.461 0-22.307-9.846L619.924-558.308q-8.308-8.308-7.616-18.384.693-10.077 9-18.384 8.308-8.308 18.384-8.308 10.077 0 18.384 8.308l71.925 73.309q5.769-120.079-66.423-200.156Q591.385-802.001 480-802.001q-104.231 0-177.116 72.693Q229.999-656.616 229.999-552q0 70.923 62.808 164.885Q355.615-293.153 480-177.537q20-17 39.693-36.809 19.692-19.808 36.692-36.808-12.923-14.153-16.807-31.615-3.885-17.462-3.885-29.231 0-35.538 26.384-61.923 26.385-26.384 61.923-26.384t61.923 26.384q26.384 26.385 26.384 61.923 0 36.538-26.384 62.423-26.385 25.884-61.923 25.884-4.769 0-10-.385-5.231-.384-8.616-2.538-14.615 15.615-34.269 32.346-19.654 16.731-60.27 39.654-9.461 7.461-18.846 11.192-9.384 3.73-20.077 3.73Z"/></svg>