<svg xmlns="http://www.w3.org/2000/svg" height="20" viewBox="0 -960 960 960" width="20"><path d="M505.999-283.848V-132q0 11.069-7.404 18.534-7.405 7.465-18.384 7.465-10.98 0-18.595-7.465-7.615-7.465-7.615-18.534v-152.848l-119.925 119.54q-7.44 7.307-16.95 7.192-9.51-.115-19.202-6.808-9.693-6.692-9.193-17.576t8.975-19.289L442.847-347 347-442.847 200.932-296.708q-8.548 8.477-18.124 8.284-9.577-.192-17.884-8.5-8.308-8.307-8.308-18.384 0-10.076 8.605-18.866l119.627-119.827H132q-11.069 0-18.534-7.404-7.465-7.405-7.465-18.384 0-10.98 7.465-18.595 7.465-7.615 18.534-7.615h152.848L109.232-681.615q-7.923-7.923-8.308-17.692-.384-9.769 7.871-18.077 8.254-8.307 18.884-8.307 10.629 0 19.015 8.387l614.919 615.532q8.001 8.003 8.194 18.146.192 10.143-8.116 18.087-7.974 8.307-18.217 8.307-10.243 0-18.875-8.629l-218.6-217.987Zm95.847-170.153h-78.539l-69.306-70.306v-77.539L297.598-758.249q-8.367-8.367-8.174-18.443.192-10.077 8.5-18.384 8.307-8.308 18.384-8.308 10.076 0 18.768 8.605l118.925 119.627V-828q0-11.069 7.404-18.534 7.405-7.465 18.384-7.465 10.98 0 18.595 7.465 7.615 7.465 7.615 18.534v152.848l119.925-119.54q8.307-8.307 18.384-9.192 10.076-.885 18.768 7.808 8.693 8.692 8.693 18.576t-8.432 18.316L505.999-601.846v95.847h95.847l156.403-156.403q8.367-8.367 19.943-9.174 11.577-.808 16.884 8.5 5.308 9.307 6.308 19.384 1 10.076-6.308 17.768L675.152-505.999H828q11.069 0 18.534 7.404 7.465 7.405 7.465 18.384 0 10.98-7.465 18.595-7.465 7.615-18.534 7.615H675.152l119.54 119.925q1.461 1.461-4.616 14.038t-11.077 23.846q-5 11.269-3.23 14.038 1.769 2.769 20.307-15.77-8.692 8.693-18.576 8.693t-18.316-8.367L601.846-454.001Z"/></svg>