<svg xmlns="http://www.w3.org/2000/svg" height="20" viewBox="0 -960 960 960" width="20"><path d="M595.384-346.001h95.231q16.15 0 27.074-10.925Q728.614-367.85 728.614-384v-192q0-16.15-10.925-27.074-10.924-10.925-27.074-10.925h-95.231q-16.149 0-27.074 10.925Q557.385-592.15 557.385-576v192q0 16.15 10.925 27.074 10.925 10.925 27.074 10.925Zm14-51.998v-164.002h67.232v164.002h-67.232Zm-236.615 51.998H468q16.15 0 27.074-10.925Q505.999-367.85 505.999-384v-192q0-16.15-10.925-27.074Q484.15-613.999 468-613.999h-95.231q-16.149 0-27.074 10.925Q334.77-592.15 334.77-576v192q0 16.15 10.925 27.074 10.925 10.925 27.074 10.925Zm14-51.998v-164.002h67.232v164.002h-67.232ZM283.384-371.96v-215.757q0-11.033-7.418-18.658-7.418-7.624-18.384-7.624-10.966 0-18.581 7.463t-7.615 18.496v215.757q0 11.033 7.418 18.657 7.418 7.625 18.384 7.625 10.966 0 18.581-7.463t7.615-18.496Zm-167.383 95.611v-407.626q0-26.543 18.891-45.283 18.89-18.741 45.417-18.741h599.382q26.527 0 45.417 18.903 18.891 18.902 18.891 45.445v407.626q0 26.543-18.891 45.283-18.89 18.741-45.417 18.741H180.309q-26.527 0-45.417-18.903-18.891-18.902-18.891-45.445ZM180.309-264h599.382q5.385 0 8.847-3.462 3.462-3.462 3.462-8.847v-407.382q0-5.385-3.462-8.847-3.462-3.462-8.847-3.462H180.309q-5.385 0-8.847 3.462-3.462 3.462-3.462 8.847v407.382q0 5.385 3.462 8.847 3.462 3.462 8.847 3.462ZM168-264v-432 432Z"/></svg>