<svg xmlns="http://www.w3.org/2000/svg" height="20" viewBox="0 -960 960 960" width="20"><path d="M764.39-267.77H627.23q-10.92 0-18.31-7.42-7.38-7.42-7.38-18.38 0-10.97 7.38-18.58 7.39-7.62 18.31-7.62h137.16l-47.54-48.92q-8.31-8.31-8.5-18.27-.2-9.96 7.99-17.95 8.43-8.24 18.7-8.05 10.27.19 18.57 8.5L840-316.08q9.84 9.49 9.84 22.13 0 12.64-9.84 22.49l-86.77 88.77q-8.31 8.3-18.38 8.11-10.08-.19-18.47-8.18-8.61-8.24-8.42-18.01.19-9.77 8.5-18.08l47.93-48.92ZM410.14-586q25.94 0 43.86-18.14 17.92-18.13 17.92-44.07t-18.13-43.87Q435.65-710 409.71-710q-25.94 0-43.86 18.14-17.93 18.13-17.93 44.07t18.14 43.87Q384.19-586 410.14-586Zm-.22 97.08ZM116-547.08q0-122.46 82.08-209.69Q280.15-844 409.98-844q69.25 0 123.75 24.62 54.5 24.61 91.31 66.77 36.81 42.15 56.88 99.73Q702-595.31 703.23-530q.61 11.07-6.84 18.53-7.45 7.47-18.38 7.47t-18.05-7.47q-7.11-7.48-7.73-18.53-1.84-106.46-70.74-184.42-68.89-77.96-172.06-77.96-104.43 0-172.93 69.96T168-547.08q0 72.54 63.77 167.54 63.77 95 178.15 195.08 17.59-16.21 34.3-31.41 16.7-15.21 33.17-30.67 7.82-8.31 17.94-8.81 10.13-.5 18.44 7.81 8.31 8.31 8.11 18.58-.19 10.27-8.11 18.19-16.74 17-33.1 31.61-16.36 14.62-31.82 29.47-9.33 7.46-18.69 11.19-9.37 3.73-20.24 3.73-10.69 0-19.88-3.54t-18.65-11q-39.57-34.84-84.38-80.31-44.81-45.47-82.77-97.55-37.96-52.08-63.1-108.07Q116-491.23 116-547.08ZM409.92-394q33.39 0 64.93-10.31 31.53-10.31 56.23-33.07 5-4.7 7.5-9.8 2.5-5.1 2.5-11.28 0-9.26-5.31-16.78-5.31-7.53-12.54-12.14-26.26-14.23-55.01-22.43-28.76-8.19-58.11-8.19-29.34 0-58.29 8.19-28.95 8.2-55.2 22.43-7.56 4.12-12.2 11.55-4.65 7.42-4.65 16.5 0 6.6 2 12.14 2 5.54 7 9.81 24.69 22.76 56.23 33.07Q376.54-394 409.92-394Z"/></svg>