<svg xmlns="http://www.w3.org/2000/svg" height="20" viewBox="0 -960 960 960" width="20"><path d="M168-264V-572.001-264Zm12.309 51.999q-26.308 0-45.308-19t-19-45.308v-407.382q0-26.308 18-45.308t46.308-19h48L278.308-648q5 11 15.78 17.5 10.781 6.5 23.22 6.5 23.71 0 36.355-20 12.645-20 1.645-42l-30.999-61.999h72L446.308-648q5 11 15.78 17.5 10.781 6.5 23.22 6.5 23.71 0 36.355-20 12.645-20 1.645-42l-30.999-61.999h72L614.308-648q5 11 15.78 17.5 10.781 6.5 23.22 6.5 23.71 0 36.355-20 12.645-20 1.645-42l-30.999-61.999h119.382q27.008 0 45.658 19 18.65 19 18.65 45.308v96.845q0 12.992-9.197 22.188-9.196 9.196-22.188 9.196H792v-16.539H168v295.692q0 5.385 3.462 8.847 3.462 3.462 8.847 3.462h294.615q11.068 0 18.534 7.405 7.465 7.404 7.465 18.384 0 10.979-7.465 18.594-7.466 7.616-18.534 7.616H180.309Zm400.307 15.846v-50.893q0-6.798 2.615-12.337 2.615-5.538 7.231-10.154l196.307-195.307q5.72-5.873 12.283-8.206 6.563-2.332 13.014-2.332 6.863 0 13.507 2.538 6.644 2.539 11.887 7.615l44 45.385q5.05 5.719 7.794 12.283 2.745 6.563 2.745 13.014t-2.525 13.109q-2.525 6.657-8.014 12.285L686.153-173.848q-4.616 4.616-10.154 7.231-5.538 2.616-12.337 2.616h-50.893q-13.761 0-22.957-9.197-9.196-9.196-9.196-22.957Zm275.691-198.153-45-45.385 45 45.385Zm-240 194.615h45l123.847-123.462-22.385-23-21.615-22.769-124.847 124.231v45Zm146.462-146.462-21.615-22.769 44 45.769-22.385-23Z"/></svg>