<svg xmlns="http://www.w3.org/2000/svg" height="20" viewBox="0 -960 960 960" width="20"><path d="M803.076-298.001q0 10.769-7.615 18.384-7.615 7.616-18.384 7.616t-18.384-7.616q-7.615-7.615-7.615-18.384-3.77-49.077-21.001-97.692-17.231-48.616-44.923-94.231l-99.001 111q-17.692 20.308-46.115 21.616-28.423 1.307-47.73-18.385l-100.615-101q-3.847-3.846-9.039-3.846-5.193 0-8.655 3.846L165.846-267.77q-7.923 8.308-17.692 8-9.769-.308-18.076-8.615-8.693-8.308-8.308-18.576.385-10.269 8.308-18.577l207.538-207.923q18.692-19.076 45.422-18.884 26.731.192 45.423 18.884l101.384 100.385q3.847 3.846 9.232 3.846t8.847-4.231L653.693-532q-53.231-58.616-122.5-92.308-69.27-33.693-147.578-33.693-68.23 0-127.846 24.346-59.615 24.346-108.384 67.808-3.462 3.846-8.231 6.077-4.769 2.23-10.846 2.23-10.769 0-18.384-7.615t-7.615-18.384q0-6.077 2.231-10.461 2.23-4.385 5.692-8.231 55.077-50.153 125.538-78.961 70.461-28.807 147.845-28.807 87.692 0 165.308 36.654 77.615 36.654 138.923 101.961l105.078-117.462q7.307-7.538 17.691-8.346 10.385-.807 18.692 6.116 8.308 7.307 9.115 18.076.808 10.769-6.5 19.076L719.768-529.769q35.769 51.384 55.616 107.499 19.846 56.115 27.692 124.269Z"/></svg>