<svg xmlns="http://www.w3.org/2000/svg" height="20" viewBox="0 -960 960 960" width="20"><path d="m429.078-429.847-199.767-73.076q-9.846-4.616-15.577-12.582-5.731-7.967-5.731-17.885 0-9.917 5.231-17.456 5.231-7.538 15.077-12.154l486.6-195.04q9.703-4.496 19.241-1.759 9.538 2.738 15.839 9.039 6.301 6.3 9.038 15.839 2.738 9.538-1.776 19.236l-195.841 486.35q-4.514 9.589-11.994 14.883-7.479 5.295-17.41 5.295-9.931 0-17.999-5.946t-12.624-15.746l-72.307-198.998Zm104.614 131.386 156.616-392.616-393.385 155.846 171 65.77 65.769 171Zm-65.769-171Z"/></svg>