<svg xmlns="http://www.w3.org/2000/svg" height="20" viewBox="0 -960 960 960" width="20"><path d="M480-168q17.56 0 35.011-2.846 17.452-2.847 34.298-7.924-30.616-28.23-45.347-65.961-14.731-37.731-14.731-78.424 0-20.912 4.103-40.567 4.102-19.656 11.82-36.893-12.538-14.462-18.692-34.846-6.154-20.385-6.154-44.539 0-50.231 24.841-83.961 24.841-33.731 68.679-33.731 32.018 0 55.013 19.754 22.995 19.753 32.851 51.553 8.545-2.769 17.122-3.154 8.577-.384 17.186-.384 25.131 0 49.258 5.884 24.127 5.885 46.127 17.885-6-59.82-32.069-112.151-26.068-52.331-67.692-91.205Q650-748.385 596-770.192 542-792 482-792q-65 0-122 24.5T260-701q-43 42-67.5 99T168-480q0 64 24.5 121t67 99.5q42.5 42.5 99.5 67T480-168Zm48.693-273.384q17.846-25.693 41.73-44.924 23.885-19.231 54.039-31.385-5.385-21.231-18.5-32.615-13.116-11.385-32.002-11.385-28.806 0-42.306 25.577-13.5 25.577-13.5 56.116 0 13.616 3.115 22.693 3.116 9.077 7.424 15.923ZM696-116.386q-29 0-51.5-5.192-22.5-5.193-40.115-16.962-25.616 11.769-56.372 17.154-30.757 5.385-68.013 5.385-74.85 0-141.199-28.42-66.35-28.42-116.15-78.21-49.8-49.791-78.225-116.129-28.425-66.337-28.425-141.173 0-75.836 28.425-141.704 28.425-65.869 78.225-115.682 49.8-49.814 116.15-78.247Q405.15-843.999 480-843.999q78.846 0 146.845 30.616 68 30.615 117.423 82.999t76.346 121.73q26.923 69.346 22 147.191 28.616 27.693 44.385 63.847 15.77 36.153 15.77 74.461 0 85.769-60.5 146.269T696-116.386Zm0-51.999q64.462 0 109.616-45.154 45.154-45.154 45.154-109.616 0-64.462-45.154-109.616Q760.462-477.925 696-477.925q-64.462 0-109.616 45.154-45.154 45.154-45.154 109.616 0 64.462 45.154 109.616Q631.538-168.385 696-168.385ZM402.231-552.923l-1.615-3h-89.001q-7.076 0-12.384-5.539-5.308-5.538-5.308-12.769 0-7.23 5.539-12.461 5.538-5.231 12.769-5.231h115.615q7.231 0 11.654 4.468 4.423 4.467 4.423 11.757v19.313q0 1.154-1.616 7.846l-96.769 170.154q-4.231 6.846-11.154 8.654-6.923 1.808-13.769-1.679-6.846-4.359-9.269-11.398-2.423-7.038 1.808-13.884l89.077-156.231Z"/></svg>