<svg xmlns="http://www.w3.org/2000/svg" height="20" viewBox="0 -960 960 960" width="20"><path d="M573.951-362.308q43.895 0 68.818-33.731 24.923-33.73 24.923-83.961t-25.362-83.961q-25.361-33.731-68.281-33.731-43.895 0-68.818 33.731-24.923 33.73-24.923 83.961t24.874 83.961q24.874 33.731 68.769 33.731Zm.049-35.999q-27.154 0-41.5-22.924-14.346-22.923-14.346-58.769 0-30.539 13.5-56.116 13.5-25.577 42.346-25.577 28.846 0 42.346 25.577 13.5 25.577 13.5 56.116 0 35.846-14.346 58.769-14.346 22.924-41.5 22.924Zm-93.933 282.306q-74.836 0-141.204-28.42-66.369-28.42-116.182-78.21-49.814-49.791-78.247-116.129-28.433-66.337-28.433-141.173 0-75.836 28.42-141.704 28.42-65.869 78.21-115.682 49.791-49.814 116.129-78.247 66.337-28.433 141.173-28.433 75.836 0 141.704 28.42 65.869 28.42 115.682 78.21 49.814 49.791 78.247 115.629 28.433 65.837 28.433 141.673 0 74.836-28.42 141.204-28.42 66.369-78.21 116.182-49.791 49.814-115.629 78.247-65.837 28.433-141.673 28.433ZM480-168q130 0 221-91t91-221q0-130-91-221t-221-91q-130 0-221 91t-91 221q0 130 91 221t221 91Zm0-312Zm-55.385 88.692q7.191 0 12.134-5.308 4.943-5.307 4.943-12.384 0-7.19-4.943-12.133-4.943-4.944-12.134-4.944h-80.539l-.615-1.23q11.692-11.693 27.692-26.808 16.001-15.116 32.308-31.424 14.616-14.615 24.539-32.923 9.923-18.307 9.923-38.354 0-27.645-22.423-46.261-22.423-18.615-50.413-18.615-26.548 0-46.279 13.346-19.731 13.346-26.115 35.807-2.385 6.77-1.616 7.231 0 7.846 5.591 13.077T310-547q6.103 0 10.397-2.539 4.295-2.538 6.295-8.769 5.385-13.385 15.269-20.385 9.885-7 23.039-7 11.077 0 22.962 7.231 11.884 7.231 11.884 23.462 0 13.154-6.577 24.423-6.576 11.27-15.961 19.885-17.769 17.385-32.885 33-15.115 15.615-31.115 30.846l-14.385 14.385q-.615.615-4.615 11.461v13.615q0 7.231 4.423 11.654t11.654 4.423h114.23Z"/></svg>