<svg xmlns="http://www.w3.org/2000/svg" height="20" viewBox="0 -960 960 960" width="20"><path d="M480.164-744q-101.836 0-197.5 32T106-619l203.231 203.231q36.462-30.154 80.079-46.038 43.618-15.885 90.69-15.885 11.837 0 23.674 1.731 11.837 1.73 23.016 5.192 13.077 2.461 18.154 15.538t-3 25.923q-15.384 26.592-23.576 57.627-8.192 31.034-8.192 66.295 0 9.576 1.474 18.282t4.295 17.872q2.821 9.167 5.641 17.872 2.821 8.706 2.821 18.282 0 18.39-13.009 28.964-13.009 10.574-31.221 10.574-10.538 0-19.842-3.977-9.304-3.977-17.388-12.099L70.941-581.523q-9.017-9.016-12.286-18.422-3.269-9.407-3.269-19.44 0-11.996 5.27-22.228 5.268-10.232 14.576-18.924 86.846-67.615 190.576-101.539Q369.538-795.999 480-795.999t214.192 33.923q103.73 33.924 190.576 101.539 9.308 8.692 14.577 18.904 5.269 10.213 5.269 22.189 0 10.126-3.269 19.515-3.269 9.39-11.961 18.082l-59.155 59.539q-7.923 8.532-18.192 8.419-10.268-.112-18.576-8.419-8.307-8.308-8.115-17.692.192-9.384 8.115-18.076L854-619q-81.087-61.475-176.543-93.238Q582-744 480.164-744Zm179.634 571.536q-9.537 0-16.053-6.457-6.515-6.458-6.515-16.004v-137.936q0-9.34 6.458-15.856 6.457-6.515 16.003-6.515h25.924v-48q0-28.162 19.673-47.773 19.674-19.611 47.923-19.611 28.249 0 47.711 19.611 19.461 19.611 19.461 47.773v48h25.923q9.22 0 15.456 6.457 6.237 6.458 6.237 16.004v137.936q0 9.341-6.452 15.856-6.452 6.515-15.989 6.515h-185.76Zm57.201-182.768h72v-48q0-15.3-10.29-25.65-10.289-10.35-25.5-10.35-15.21 0-25.71 10.35t-10.5 25.65v48Z"/></svg>