<svg xmlns="http://www.w3.org/2000/svg" height="20" viewBox="0 -960 960 960" width="20"><path d="M214.77-408.845q-9.384-9.385-9.077-22.538.308-13.153 11.308-21.692 55.923-45.384 123.115-68.769Q407.308-545.229 480-545.229q49.077 0 95.462 9.77 46.385 9.769 91.462 27.923 11.461 8 15.23 21.884 3.769 13.885-4.231 25.346t-21.384 15.037q-13.385 3.577-24.846-4.423-36.077-15.154-74.154-22.731Q519.462-480 480-480q-59.462 0-114.731 18.308-55.27 18.308-101.808 54.539-11.615 8.923-25.269 8.307-13.653-.615-23.422-9.999ZM480-785.229q119.077 0 229.077 40.577 109.999 40.577 200.922 116.962 12 9.769 13.308 23.922 1.307 14.154-8.077 24.538-9.769 9.769-24.115 9.692-14.345-.077-26.73-9.615Q783.231-646 684.847-683 586.462-720 480-720t-204.847 37q-98.384 37-179.538 103.847-12.385 9.538-26.73 9.615-14.346.077-24.115-9.692-9.384-10.384-8.077-24.538 1.308-14.153 13.308-23.922 89.923-78.385 200.422-117.962 110.5-39.577 229.577-39.577Zm228.078 692.92q-19.385-5-34.001-12.846-14.616-7.846-26.77-21.308l-26.999 9.231q-7.923 2.231-14.346-.231-6.423-2.461-9.884-8.769l-5.308-8.769q-3.461-6.307-3.23-13.153.23-6.846 5.923-12.923l20.153-19.538q-5.308-18.616-5.308-36.693 0-18.077 5.308-36.693l-19.153-18.538q-5.308-5.692-6.423-12.423-1.116-6.73 2.346-14.038l5.692-8.384q3.461-7.307 10.384-9.769 6.923-2.461 14.846-.231l24.999 8.231q12.154-14.846 27.27-23t34.501-12.154l5.076-26.615q1.231-7.538 7.731-12.307 6.5-4.77 14.038-4.77h8.615q7.538 0 14.038 4.577t7.73 12.115l5.077 27q19.385 5 35.001 12.654 15.615 7.654 26.769 22.5l26-8.231q7.923-2.23 14.346.731 6.422 2.962 9.884 9.269l5.307 8.769q3.462 6.308 2.731 13.153-.731 6.846-6.423 12.923l-18.153 17.538q5.307 18.616 4.807 37.193-.5 18.577-5.807 37.193l19.153 18.538q5.308 5.692 6.423 12.923 1.115 7.23-2.346 13.538l-5.692 8.384q-3.462 6.308-9.884 8.769-6.423 2.462-14.346.231l-27-8.231q-12.154 13.462-26.769 21.308-14.616 7.846-34.001 12.846l-6.077 26.615q-1.23 7.539-7.23 12.308t-13.538 4.769h-9.615q-7.538 0-13.538-5.077t-7.231-12.615l-5.076-26Zm31.152-201.076q-31.154 0-53.115 21.962-21.962 21.961-21.962 53.115 0 31.154 21.962 53.116 21.961 21.961 53.115 21.961 31.154 0 53.116-21.961 21.961-21.962 21.961-53.116t-21.961-53.115q-21.962-21.962-53.116-21.962Zm-327.152 43.848q0-26.999 16.23-46.961 16.231-19.961 41.846-19.961 4.615 0 7.231 3.423 2.615 3.423 2.615 8.039v112.306q0 4.615-2.423 7.538t-7.038 2.923q-25 0-41.731-20.154-16.73-20.153-16.73-47.153Z"/></svg>