<svg xmlns="http://www.w3.org/2000/svg" height="20" viewBox="0 -960 960 960" width="20"><path d="M619.845-308.001q13.761 0 22.957-9.197 9.197-9.196 9.197-22.957v-279.69q0-13.761-9.197-22.957-9.196-9.197-22.957-9.197H481.999q-11.722 0-19.86 8.139-8.138 8.138-8.138 19.86v97.386q-11.615 5.923-19.577 18.384-7.961 12.461-7.961 28.23 0 22.392 15.443 37.964 15.442 15.573 38.306 15.573 21.71 0 37.518-15.573 15.807-15.572 15.807-37.964 0-15.769-7.577-28.23-7.576-12.461-19.961-18.384V-600H600v240H360v-240h10.001q11.069 0 18.534-7.405Q396-614.809 396-625.789q0-10.979-7.43-18.594-7.429-7.616-18.446-7.616h-29.722q-13.708 0-23.054 9.197-9.347 9.196-9.347 22.957v279.69q0 13.761 9.197 22.957 9.196 9.197 22.957 9.197h279.69Zm-391.536 144q-27.008 0-45.658-18.65-18.65-18.65-18.65-45.658v-503.382q0-27.008 18.65-45.658 18.65-18.65 45.658-18.65h503.382q27.008 0 45.658 18.65 18.65 18.65 18.65 45.658v503.382q0 27.008-18.65 45.658-18.65 18.65-45.658 18.65H228.309Zm0-51.999h503.382q4.616 0 8.463-3.846 3.846-3.847 3.846-8.463v-503.382q0-4.616-3.846-8.463-3.847-3.846-8.463-3.846H228.309q-4.616 0-8.463 3.846-3.846 3.847-3.846 8.463v503.382q0 4.616 3.846 8.463 3.847 3.846 8.463 3.846ZM216-744v528-528Z"/></svg>