<svg xmlns="http://www.w3.org/2000/svg" height="20" viewBox="0 -960 960 960" width="20"><path d="m575.691-496.694-51.998-51.999v-22.231q0-11.049 7.418-18.524 7.418-7.475 18.384-7.475 10.966 0 18.581 7.475t7.615 18.524v74.23ZM334.616-116.001q-14.692 0-26.038-11.347-11.347-11.346-11.347-26.038v-10.615q-25.826 0-45.066-17.741-19.241-17.74-19.241-43.567V-648q0-15.422 6.885-28.595 6.884-13.174 19.038-24.174l41.614 41.614h-8.23q-3.462 1.154-5.385 4.231-1.923 3.078-1.923 6.924v419.691q0 5.385 3.462 8.847 3.461 3.462 8.846 3.462h365.538q5.385 0 8.846-3.462 3.462-3.462 3.462-8.847v-56.614l51.999 52.211v4.616q0 26.614-18.891 45.354-18.89 18.741-45.416 18.741v10.615q0 14.692-11.347 26.038-11.346 11.347-26.038 11.347t-26.038-11.347Q588-138.694 588-153.386v-10.615H372v10.615q0 14.692-11.346 26.038-11.346 11.347-26.038 11.347Zm49.693-422.538 51.998 51.743v181.165q0 10.996-7.418 18.62-7.418 7.625-18.384 7.625-10.966 0-18.581-7.452t-7.615-18.468v-233.233Zm139.384 139.385 51.998 51.537v42.232q0 11.05-7.418 18.524-7.418 7.475-18.384 7.475-10.966 0-18.581-7.427-7.615-7.426-7.615-18.405v-93.936Zm275.692 275.076q-8.307 8.308-18.551 8.308-10.243 0-18.217-8.308L132.309-753.77q-7.923-7.59-8.115-18.025-.193-10.436 8.115-18.743 8.307-8.308 18.551-8.308 10.243 0 18.217 8.308L799.385-160.23q7.923 7.559 8.115 17.702.193 10.143-8.115 18.45ZM471.154-414.54Zm116.537-297.999h75.078q26.526 0 45.416 18.856 18.891 18.856 18.891 45.683v249.154q0 12.999-8.103 19.499-8.103 6.5-17.827 6.5-9.723 0-17.896-6.56t-8.173-19.055V-648q0-5.385-3.462-8.847-3.461-3.462-8.846-3.462H436.616q-26.527 0-45.417-18.926-18.89-18.927-18.89-45.505v-55.2q0-26.578 18.89-45.318 18.89-18.741 45.417-18.741h86.768q26.527 0 45.417 18.857 18.89 18.856 18.89 45.335v67.268Zm-163.384.232h111.386v-67.384q0-5.385-3.462-8.847-3.462-3.462-8.847-3.462h-86.768q-5.385 0-8.847 3.462-3.462 3.462-3.462 8.847v67.384Zm119.078 183.691Z"/></svg>