<svg xmlns="http://www.w3.org/2000/svg" height="20" viewBox="0 -960 960 960" width="20"><path d="M480-348.693q13.923 0 23.115-9.192 9.192-9.193 9.192-23.115 0-13.923-9.192-23.115-9.192-9.192-23.115-9.192-13.923 0-23.115 9.192-9.192 9.192-9.192 23.115 0 13.922 9.192 23.115 9.192 9.192 23.115 9.192Zm103.846-272.768q0-36.923-29.269-64.462-29.27-27.538-72.346-27.538-34.538 0-64.923 20.038-30.384 20.039-30.769 41.346 0 6.077 3.231 11.231 3.23 5.153 9.076 7.384 7.693 2.846 15.692-.577 8-3.423 14.923-11.346 8.231-12.538 21.462-19.077Q464.154-671 481.769-671q23.308 0 39.347 14.923 16.038 14.923 16.038 37.616 0 15.923-10.538 32.269Q516.077-569.846 500-555q-18.076 17.231-30.846 34.693-12.769 17.461-12.769 33.23 0 9.154 7.154 16.231 7.154 7.076 16.076 7.076 8.308 0 14.769-6.961 6.462-6.962 7.692-15.5 1.231-10.615 9.923-22.307 8.693-11.693 22.923-24.923 22.077-20.077 35.5-41 13.424-20.923 13.424-47ZM480-184.461q114.384-100.076 178.154-195.077 63.769-95 63.769-167.539 0-105.384-68.5-175.346T480-792.385q-104.923 0-173.423 69.962t-68.5 175.346q0 72.539 63.769 167.539Q365.616-284.537 480-184.461Zm0 50.075q-10.692 0-19.884-3.538-9.192-3.539-18.654-11-28.845-24.615-72.268-67.191-43.423-42.577-84.577-95.615-41.154-53.039-69.846-113.654Q186.078-486 186.078-547.077q0-122.46 82.077-209.691Q350.231-843.999 480-843.999q128.769 0 211.345 87.231 82.577 87.231 82.577 209.691 0 61.077-29.193 122.001-29.192 60.923-69.654 114.154-40.461 53.23-83.884 95.115-43.423 41.884-72.269 66.498-9.461 7.462-18.845 11.193-9.385 3.73-20.077 3.73Zm0-415.306Z"/></svg>