<svg xmlns="http://www.w3.org/2000/svg" height="20" viewBox="0 -960 960 960" width="20"><path d="M480-134.39q-10.69 0-19.88-3.53-9.2-3.54-18.66-11-28.84-24.62-72.27-67.2-43.42-42.57-84.57-95.61-41.16-53.04-69.85-113.65-28.69-60.62-28.69-121.7 0-122.46 82.07-209.69Q350.23-844 480-844q128.77 0 211.35 87.23 82.57 87.23 82.57 209.69 0 61.08-29.19 122-29.19 60.93-69.65 114.16-40.47 53.23-83.89 95.11-43.42 41.89-72.27 66.5-9.46 7.46-18.84 11.19-9.39 3.73-20.08 3.73Zm0-214.3q13.92 0 23.11-9.2 9.2-9.19 9.2-23.11t-9.2-23.12q-9.19-9.19-23.11-9.19t-23.11 9.19q-9.2 9.2-9.2 23.12 0 13.92 9.2 23.11 9.19 9.2 23.11 9.2Zm1-115.08q8.69 0 15.27-6.65 6.58-6.66 6.58-15.35 0-7 3.19-13.69 3.19-6.69 8.57-15.08 5.77-8.15 13.35-13.84 7.58-5.7 13.96-12.08 21.85-19.85 31.89-40 10.04-20.16 10.04-41.16 0-38.92-29.2-65.38-29.19-26.46-70.11-26.46-32.69 0-60.08 15.27-27.38 15.27-41.77 43.19-4.23 8.69-1.19 17.38 3.04 8.7 11.73 12.93 8.69 4.23 16.89 1.38 8.19-2.84 12.42-11.54 9.15-16.77 25.5-26.46 16.34-9.69 34.5-9.69 21.92 0 38.27 14.15 16.34 14.16 16.34 36.47 0 15.76-9.19 31.34t-29.19 33.73q-3.08 3.85-10.77 11.04-7.69 7.19-15.08 18.19-6.38 9-9.88 18.12-3.5 9.11-3.5 18.11 0 10.31 6.27 18.2 6.27 7.88 15.19 7.88Zm-1 279.31q114.38-100.08 178.15-195.08 63.77-95 63.77-167.54 0-105.38-68.5-175.34-68.5-69.96-173.42-69.96-104.92 0-173.42 69.96-68.5 69.96-68.5 175.34 0 72.54 63.77 167.54 63.77 95 178.15 195.08Zm0-365.23Z"/></svg>