<svg xmlns="http://www.w3.org/2000/svg" height="20" viewBox="0 -960 960 960" width="20"><path d="M479.72-108.309q-26.643 0-45.335-18.89t-18.692-45.417h128.614q0 26.923-18.972 45.615-18.973 18.692-45.615 18.692ZM238.292-220.616q-11.041 0-18.666-7.418t-7.625-18.384q0-10.966 7.475-18.581t18.525-7.615h14.308v-258.463q0-83.433 53.307-147.562 53.308-64.13 136.385-77.437v-49.923q0-15.833 11.07-26.916 11.07-11.084 26.884-11.084t26.929 11.084q11.115 11.083 11.115 26.916v49.769q10.154 1.769 21 4.346 10.847 2.577 21.385 6.962 10.923 3.461 15.577 13.499t1.577 20.577q-3.077 10.538-13.115 15.307t-20.192 1.308q-14.461-5-33.077-8.77-18.615-3.769-31.154-3.769-73.462 0-124.577 51.116-51.116 51.115-51.116 124.577v258.463h351.386v-59.231q0-13 8.103-19.499 8.103-6.5 17.826-6.5 9.724 0 17.897 6.5 8.172 6.499 8.172 19.499v59.231h14.308q11.05 0 18.525 7.418 7.475 7.418 7.475 18.384 0 10.966-7.47 18.581-7.469 7.615-18.51 7.615H238.292Zm489.092-314.306h-85q-9.775 0-16.387-6.612-6.613-6.611-6.613-16.384t6.613-16.388q6.612-6.615 16.387-6.615h85v-85.001q0-11.049 7.418-18.524 7.419-7.475 18.385-7.475 10.965 0 18.581 7.475 7.615 7.475 7.615 18.524v85.001h85.001q9.774 0 16.387 6.611 6.612 6.611 6.612 16.384t-6.612 16.388q-6.613 6.616-16.387 6.616h-85.001v85q0 11.05-7.418 18.525-7.418 7.475-18.384 7.475-10.966 0-18.582-7.475-7.615-7.475-7.615-18.525v-85ZM480-489.692Z"/></svg>