<svg xmlns="http://www.w3.org/2000/svg" height="20" viewBox="0 -960 960 960" width="20"><path d="M635.539-215.231q9.216 0 15.839-6.623 6.623-6.623 6.623-15.838 0-9.216-6.623-15.839-6.623-6.623-15.839-6.623-9.215 0-15.838 6.623-6.623 6.623-6.623 15.839 0 9.215 6.623 15.838 6.623 6.623 15.838 6.623Zm84.461 0q9.215 0 15.838-6.623 6.623-6.623 6.623-15.838 0-9.216-6.623-15.839-6.623-6.623-15.838-6.623t-15.838 6.623q-6.623 6.623-6.623 15.839 0 9.215 6.623 15.838 6.623 6.623 15.838 6.623Zm84.461 0q9.215 0 15.838-6.623 6.623-6.623 6.623-15.838 0-9.216-6.623-15.839-6.623-6.623-15.838-6.623-9.216 0-15.839 6.623-6.623 6.623-6.623 15.839 0 9.215 6.623 15.838 6.623 6.623 15.839 6.623Zm-576.152 51.23q-26.527 0-45.417-18.891-18.891-18.89-18.891-45.417v-503.382q0-26.527 18.891-45.417 18.89-18.891 45.417-18.891h503.382q26.527 0 45.417 18.891 18.891 18.89 18.891 45.417v206.307q0 11.05-7.419 18.525-7.418 7.475-18.384 7.475-10.966 0-18.581-7.475T744-525.384v-206.307q0-4.616-3.846-8.463-3.847-3.846-8.463-3.846H228.309q-4.616 0-8.463 3.846-3.846 3.847-3.846 8.463v503.382q0 4.616 3.846 8.463 3.847 3.846 8.463 3.846h206.307q11.05 0 18.525 7.418 7.475 7.418 7.475 18.384 0 10.966-7.475 18.581-7.475 7.616-18.525 7.616H228.309ZM216-239.867V-216v-528V-497.384v-2 259.517Zm82.001-88.946q0 10.966 7.475 18.581 7.474 7.616 18.524 7.616h117.694q11.049 0 18.524-7.419 7.475-7.418 7.475-18.384 0-10.966-7.475-18.581t-18.524-7.615H324q-11.05 0-18.524 7.418-7.475 7.418-7.475 18.384Zm0-151.384q0 10.966 7.475 18.581 7.474 7.615 18.524 7.615h245.618q11.049 0 18.524-7.418 7.475-7.418 7.475-18.384 0-10.966-7.475-18.581t-18.524-7.615H324q-11.05 0-18.524 7.418-7.475 7.418-7.475 18.384Zm0-151.384q0 10.966 7.475 18.581 7.474 7.615 18.524 7.615h312q11.05 0 18.524-7.418 7.475-7.418 7.475-18.384 0-10.966-7.475-18.581-7.474-7.616-18.524-7.616H324q-11.05 0-18.524 7.419-7.475 7.418-7.475 18.384ZM719.774-65.694q-71.696 0-121.735-50.264-50.038-50.264-50.038-121.96 0-71.697 50.265-121.735 50.264-50.038 121.96-50.038t121.735 50.264q50.038 50.265 50.038 121.961t-50.265 121.734q-50.264 50.038-121.96 50.038Z"/></svg>