<svg xmlns="http://www.w3.org/2000/svg" height="20" viewBox="0 -960 960 960" width="20"><path d="M479.615-129.079q-96.922 0-181.152-50.384-84.23-50.385-130.692-140.922-19.769-7.154-37.77-15.078-18-7.923-36.77-18.231-12-6.922-18.614-18.999Q68-384.77 68-399v-162q0-14.23 6.616-26.307 6.615-12.077 18.614-18.999 18.77-10.308 36.27-19.231 17.501-8.924 37.27-15.078 46.462-88.537 131.192-139.422 84.73-50.884 181.652-50.884 96.922 0 181.653 50.884 84.73 50.885 131.191 139.422 19.77 7.154 37.27 15.578 17.501 8.423 36.27 18.731 12.385 8.307 19.192 19.691 6.808 11.385 6.808 26V-398q0 13.615-6.808 24.999-6.807 11.385-19.192 19.307-18.769 10.308-36.27 18.731-17.5 8.424-37.27 15.578-46.461 89.537-131.191 139.922-84.731 50.384-181.653 50.384Zm0-51.999q68.308 0 126.731-28.308 58.423-28.308 103.039-81.154-55.846 15.385-113.231 22.962t-116.539 7.577q-59.154 0-116.538-7.577-57.385-7.577-113.231-22.962 43.615 52.846 102.538 81.154 58.923 28.308 127.231 28.308ZM480-480Zm-.385-298.922q-68.308 0-127.231 28.308-58.923 28.308-102.538 81.154 55.846-15.385 113.231-22.962 57.384-7.577 116.538-7.577 59.154 0 116.539 7.577t113.231 22.962q-44.616-52.846-103.039-81.154t-126.731-28.308ZM480-312q91.307 0 182.731-19.692Q754.154-351.385 840-398v-164q-85.846-46.615-177.269-66.308Q571.307-648 480-648q-91.307 0-182.731 19.692Q205.846-608.615 120-562v164q85.846 46.615 177.269 66.308Q388.693-312 480-312Z"/></svg>