<svg xmlns="http://www.w3.org/2000/svg" height="20" viewBox="0 -960 960 960" width="20"><path d="M541.999-443.539q-41.922 0-70.96-29.038-29.038-29.038-29.038-70.961 0-41.922 29.038-70.96 29.038-29.038 70.96-29.038 41.923 0 70.961 29.038 29.038 29.038 29.038 70.96 0 41.923-29.038 70.961-29.038 29.038-70.961 29.038Zm-271.845 99.846q-26.526 0-45.417-18.906-18.89-18.907-18.89-45.456v-271.298q0-26.549 18.89-45.29 18.891-18.74 45.417-18.74h543.69q26.527 0 45.417 18.907 18.89 18.906 18.89 45.456v271.297q0 26.55-18.89 45.29t-45.417 18.74h-543.69Zm51.999-51.998h439.693q0-26.923 18.89-45.731 18.89-18.808 45.417-18.808v-166.847q-26.623 0-45.465-18.89-18.842-18.891-18.842-45.417H322.153q0 26.923-18.89 45.731-18.891 18.808-45.417 18.808v166.846q26.623 0 45.465 18.891 18.842 18.89 18.842 45.417Zm410.768 175.997H146.156q-26.527 0-45.417-18.891-18.89-18.89-18.89-45.416v-338.152q0-11.05 7.418-18.524 7.418-7.475 18.384-7.475 10.966 0 18.581 7.475 7.615 7.474 7.615 18.524v338.152q0 4.615 3.847 8.462 3.846 3.846 8.462 3.846h586.765q11.05 0 18.525 7.418 7.475 7.418 7.475 18.384 0 10.966-7.475 18.581-7.475 7.616-18.525 7.616ZM270.154-395.691h-12.308V-691.384h12.308q-5 0-8.654 3.654t-3.654 8.654V-408q0 5 3.654 8.654 3.654 3.655 8.654 3.655Z"/></svg>