<svg xmlns="http://www.w3.org/2000/svg" height="20" viewBox="0 -960 960 960" width="20"><path d="M432-492.309q-51.749 0-87.874-36.124-36.125-36.125-36.125-87.874 0-51.75 36.125-87.874 36.125-36.125 87.874-36.125 51.749 0 87.874 36.125 36.125 36.124 36.125 87.874 0 51.749-36.125 87.874-36.125 36.124-87.874 36.124Zm.212-51.998q29.788 0 50.788-21.213 21-21.212 21-51 0-29.787-21.212-50.787-21.213-21-51-21-29.788 0-50.788 21.212-21 21.213-21 51 0 29.788 21.212 50.788 21.213 21 51 21ZM849.397-74.284l-94.639-93.487q-19.912 12.77-40.874 19.5-20.961 6.731-41.805 6.731-61.232 0-103.886-42.744-42.653-42.744-42.653-103.807 0-61.062 42.744-103.716 42.744-42.653 103.807-42.653 61.062 0 103.716 42.718Q818.46-349.025 818.46-288q0 20.923-6.731 41.884-6.73 20.962-19.5 40.874l94.376 94.639q8.085 8.14 8.278 17.717.192 9.577-8.5 18.269-8.692 8.692-18.577 8.692-9.884 0-18.409-8.359ZM671.775-193.539q39.84 0 67.263-27.197 27.423-27.198 27.423-67.039 0-39.84-27.197-67.263-27.198-27.423-67.039-27.423-39.84 0-67.263 27.197-27.423 27.198-27.423 67.039 0 39.84 27.197 67.263 27.198 27.423 67.039 27.423Zm-507.774-78.923V-293q0-20.53 11.154-37.611 11.154-17.081 30.461-27.927 55.847-32.231 121.732-49.308 65.885-17.076 129.193-12.23 10.769 1.154 18.192 8.8 7.422 7.646 7.422 18.478 0 9.252-7.422 16.102-7.423 6.849-18.192 7.08-66.308-1.847-123.155 13.692-56.847 15.539-100.616 41.923-7.931 3.44-12.35 9.001-4.42 5.561-4.42 12v21.307h216.386q11.05 0 18.525 7.418 7.475 7.418 7.475 18.384 0 10.966-7.475 18.581-7.475 7.616-18.525 7.616H216.769q-22.007 0-37.387-15.381-15.381-15.38-15.381-37.387ZM432-616.307Zm21.386 344.614Z"/></svg>