<svg xmlns="http://www.w3.org/2000/svg" height="20" viewBox="0 -960 960 960" width="20"><path d="M470.693-160.924q-78.385 0-136.654-53.154-58.269-53.154-63.191-131.923-62.769-13-104.962-60.923-42.192-47.922-42.192-112.461 0-70.999 52.577-118.807 52.577-47.807 125.192-47.807h100.231q13.831 0 23.915-10.085 10.085-10.085 10.085-23.916t-10.085-23.916q-10.084-10.085-23.915-10.085h-60q-11.05 0-18.525-7.418-7.475-7.418-7.475-18.384 0-10.966 7.475-18.581t18.525-7.615h60q36.119 0 61.059 24.868 24.94 24.868 24.94 60.884 0 36.016-24.94 61.131-24.94 25.115-61.059 25.115H301.463q-50.693 0-88.232 32.077-37.538 32.078-37.538 81.924 0 43.231 27.769 76.731 27.77 33.5 70.386 45.27 15.922-74.154 69.114-117.423 53.192-43.269 122.563-43.269 20.706 0 41.206 4.21 20.5 4.21 40.5 13.559 8.615-5 18.115-8.384 9.5-3.385 19-5.385t18.91-3.192q9.411-1.193 18.821-1.193 63.882 0 108.44 44.808 44.559 44.807 44.559 108.883 0-.384.192 6.77t.192 11l30.539 28.154q17.641 17.029 28.012 38.654 10.372 21.626 10.372 45.292 0 48.284-34.495 81.437-34.494 33.154-83.042 33.154H470.693Zm0-51.999h255.816q27.414 0 46.452-18.373Q792-249.669 792-275.486q0-13.985-5.385-25.6-5.384-11.614-15.538-20.376l-53.307-49.077q2.076-8.615 3.499-17.365 1.424-8.75 1.424-18.173 0-41.923-29.114-71.462-29.113-29.538-71.277-29.538-42.487 0-72.049 29.123-29.561 29.123-29.561 71.302 0 11.575 1.692 22.596 1.692 11.02 7.077 21.296 5.461 10.375 4.615 22.029-.846 11.653-10.884 17.115-10.038 5.461-20.076 2.038-10.038-3.423-16.115-12.346-9.462-15.076-13.885-32.475t-4.423-35.908q0-27.924 9.308-54.77 9.308-26.846 29.77-46.077-9.231-2.769-19.078-3.346-9.846-.577-19.462-.577-60.308 1-103.269 41.269Q323-425.539 323-366.753q0 31.755 11.639 59.776 11.64 28.021 31.385 48.845 19.745 20.825 46.809 33.017 27.063 12.192 57.86 12.192Zm203.518-47.693q-12.903 0-22.249-9.135-9.346-9.136-9.346-22.038 0-12.903 9.135-22.249 9.136-9.346 22.038-9.346 12.903 0 22.249 9.135 9.346 9.136 9.346 22.038 0 12.903-9.135 22.249-9.136 9.346-22.038 9.346ZM558-392.999Z"/></svg>