<svg xmlns="http://www.w3.org/2000/svg" height="20" viewBox="0 -960 960 960" width="20"><path d="M192.247-490.001q-36.016 0-61.131-24.868-25.115-24.868-25.115-60.884 0-36.016 24.868-61.131 24.868-25.115 60.884-25.115 36.016 0 61.131 24.868 25.115 24.868 25.115 60.884 0 36.016-24.868 61.131-24.868 25.115-60.884 25.115Zm168-144q-36.016 0-61.131-24.868-25.115-24.868-25.115-60.884 0-36.016 24.868-61.131 24.868-25.115 60.884-25.115 36.016 0 61.131 24.868 25.115 24.868 25.115 60.884 0 36.016-24.868 61.131-24.868 25.115-60.884 25.115Zm240 0q-36.016 0-61.131-24.868-25.115-24.868-25.115-60.884 0-36.016 24.868-61.131 24.868-25.115 60.884-25.115 36.016 0 61.131 24.868 25.115 24.868 25.115 60.884 0 36.016-24.868 61.131-24.868 25.115-60.884 25.115Zm168 144q-36.016 0-61.131-24.868-25.115-24.868-25.115-60.884 0-36.016 24.868-61.131 24.868-25.115 60.884-25.115 36.016 0 61.131 24.868 25.115 24.868 25.115 60.884 0 36.016-24.868 61.131-24.868 25.115-60.884 25.115ZM285-105.001q-34.154 0-58.076-28.025-23.923-28.026-23.923-68.974 0-45.461 31.423-77.346 31.423-31.884 61.269-65.73 26-30.385 46.192-61.193 20.193-30.807 42.808-61.807 18.846-24.077 42.285-37 23.439-12.923 53.022-12.923 30.01 0 54.312 12.615 24.303 12.615 41.764 37.077 23 31 42.808 61.115 19.808 30.116 45.423 61.116 28.846 34.846 61.269 66.23 32.423 31.385 32.423 78.169 0 39.625-24.423 67.651-24.422 28.025-59.576 28.025-50 0-97-12t-97-12q-50 0-97.5 12.5t-97.5 12.5Z"/></svg>