<svg xmlns="http://www.w3.org/2000/svg" height="20" viewBox="0 -960 960 960" width="20"><path d="M619.384-342.924q-9.882 0-17.326-7.443-7.443-7.444-7.443-17.326v-133.23q0-9.882 7.443-17.326 7.444-7.443 17.326-7.443H643v-24q0-27.462 19.673-47.423 19.674-19.961 47.923-19.961 28.249 0 47.711 19.961 19.461 19.961 19.461 47.423v24h23.616q9.882 0 16.941 7.443 7.059 7.444 7.059 17.326v133.23q0 9.882-7.444 17.326-7.443 7.443-17.326 7.443h-181.23Zm55-182.768h72v-24q0-15.3-10.29-25.65-10.289-10.35-25.5-10.35-15.21 0-25.71 10.35t-10.5 25.65v24ZM276.309-68.002q-26.623 0-45.465-18.842-18.843-18.842-18.843-45.465v-695.382q0-26.623 18.843-45.465 18.842-18.843 45.465-18.843h407.382q26.623 0 45.465 18.843 18.843 18.842 18.843 45.465v128.153q0 11.069-7.405 18.534-7.405 7.465-18.384 7.465-10.98 0-18.595-7.465Q696-688.469 696-699.538v-30.463H264v500.002h432v-30.463q0-11.069 7.405-18.534 7.404-7.465 18.384-7.465 10.979 0 18.594 7.465 7.616 7.465 7.616 18.534v128.153q0 26.623-18.843 45.465Q710.314-68 683.691-68H276.309ZM264-178v45.692q0 4.616 3.846 8.463 3.847 3.846 8.463 3.846h407.382q4.616 0 8.463-3.846 3.846-3.847 3.846-8.463v-45.692H264Zm0-603.998h432v-45.692q0-4.616-3.846-8.463-3.847-3.846-8.463-3.846H276.309q-4.616 0-8.463 3.846-3.846 3.847-3.846 8.463v45.692Zm0 0V-840v58.001Zm0 603.998V-120v-58.001Z"/></svg>