<svg xmlns="http://www.w3.org/2000/svg" height="20" viewBox="0 -960 960 960" width="20"><path d="m728.999-442.847-92.923 91.923q-8.308 8.308-17.884 8.5-9.577.193-18.269-8.5-8.692-8.692-8.692-18.576t8.692-18.576L691.846-480l-91.923-91.924q-8.308-8.307-8.5-18.384-.192-10.076 8.5-18.768 8.692-8.693 18.076-8.693 9.385 0 18.077 8.693l92.923 91.923 91.924-91.923q8.307-8.308 18.384-8.5 10.077-.193 18.769 8.5 8.692 8.692 8.692 18.576t-8.692 18.576L766.152-480l91.924 91.924q8.307 8.307 8.5 17.884.192 9.576-8.5 18.268-8.692 8.693-18.577 8.693-9.884 0-18.576-8.693l-91.924-90.923ZM264-178.001v45.692q0 4.616 3.846 8.463 3.847 3.846 8.463 3.846h407.382q4.616 0 8.463-3.846 3.846-3.847 3.846-8.463v-45.692H264Zm0-603.998h432v-45.692q0-4.616-3.846-8.463-3.847-3.846-8.463-3.846H276.309q-4.616 0-8.463 3.846-3.846 3.847-3.846 8.463v45.692Zm0 0V-840v58.001Zm0 603.998V-120v-58.001Zm12.309 110q-26.623 0-45.465-18.843-18.843-18.842-18.843-45.465v-695.382q0-26.623 18.843-45.465 18.842-18.843 45.465-18.843h407.382q26.623 0 45.465 18.843 18.843 18.842 18.843 45.465v128.153q0 11.069-7.405 18.534-7.405 7.465-18.384 7.465-10.98 0-18.595-7.465Q696-688.469 696-699.538v-30.463H264v500.002h432v-30.463q0-11.069 7.405-18.534 7.404-7.465 18.384-7.465 10.979 0 18.594 7.465 7.616 7.465 7.616 18.534v128.153q0 26.623-18.843 45.465Q710.314-68 683.691-68H276.309Z"/></svg>