<svg xmlns="http://www.w3.org/2000/svg" height="20" viewBox="0 -960 960 960" width="20"><path d="M658.153-477.769v-154.615l-85.847 85.846q-4.23 4.231-11.269 4.423-7.038.193-11.653-4.423-4.616-4.615-4.116-11.461t5.116-11.462l93.538-92.538-94.538-94.539q-4.231-4.685-4.423-10.996-.193-6.311 4.423-10.927 4.615-4.615 11.461-4.615t11.461 4.615l85.847 85.847v-154.001q0-10.128 10.538-13.717 10.539-3.59 17.385 3.256l76.384 76.385q9.846 9.846 10.039 21.922.192 12.077-9.654 22.308l-74.077 74.462 73.692 73.692q9.846 9.483 9.846 22.126t-9.846 22.489l-76.384 76.385q-6.846 6.846-17.385 3.256-10.538-3.589-10.538-13.718Zm31.384-37.845 50.385-50.385-50.385-51.385v101.77Zm0-192 50.385-51.155-50.385-51.385v102.54Zm53.077 542.613q-109.076-9-209.691-57.577-100.615-48.577-182.384-130.346-81.384-81.769-128.961-181.691-47.577-99.923-57.577-208.999-2-21 12.286-36.692 14.286-15.693 35.714-15.693h104.46q18.154 0 31.231 10.885 13.077 10.885 18.23 28.423L386.845-673q2.385 13.385-1.5 26.154-3.884 12.769-12.654 20.769l-92.384 89.923q22.308 41.846 49.462 78.769 27.154 36.924 59.507 69.062 31.955 31.939 69.032 59.17t80.077 49.538l94.769-92.538q8.385-8.769 19.231-11.692 10.846-2.923 24.231-.923l80.075 17.615q18.154 5 28.731 18.461 10.577 13.462 10.577 32.001v103.69q0 21.428-16.193 35.714-16.192 14.286-37.192 12.286ZM256.923-586.922l75.385-72.308q1.923-1.539 2.5-4.231.577-2.693-.192-5l-17.545-69.385q-.769-3.077-2.692-4.615-1.924-1.539-5.001-1.539H223q-2.307 0-3.846 1.539-1.539 1.538-1.539 3.846 3.077 38 13.423 75.808 10.347 37.808 25.885 75.885Zm333.999 331.691q35.87 15.782 75.012 23.968 39.143 8.186 72.681 12.032 2.308 0 3.846-1.538 1.539-1.539 1.539-3.847v-86.153q0-3.077-1.539-5.001-1.538-1.923-4.615-2.692l-65-14.077q-2.307-.769-4.038-.192-1.731.577-3.654 2.5l-74.232 75ZM256.923-586.922Zm333.999 331.691Z"/></svg>