<svg xmlns="http://www.w3.org/2000/svg" height="20" viewBox="0 -960 960 960" width="20"><path d="M228.31-164q-27.01 0-45.66-18.65Q164-201.3 164-228.31v-503.38q0-27.01 18.65-45.66Q201.3-796 228.31-796h340.15q11.07 0 18.54 7.41 7.46 7.4 7.46 18.38 0 10.98-7.46 18.59-7.47 7.62-18.54 7.62H228.31q-4.62 0-8.46 3.85-3.85 3.84-3.85 8.46v503.38q0 4.62 3.85 8.46 3.84 3.85 8.46 3.85h503.38q4.62 0 8.46-3.85 3.85-3.84 3.85-8.46v-340.15q0-11.07 7.4-18.54 7.41-7.46 18.39-7.46t18.59 7.46q7.62 7.47 7.62 18.54v340.15q0 27.01-18.65 45.66Q758.7-164 731.69-164H228.31Zm211.37-275.68-72.99-33.09q-4.61-1.61-4.61-7.23t4.61-7.23l72.99-33.09 33.09-72.99q1.61-4.61 7.23-4.61t7.23 4.61l33.09 72.99 72.99 33.09q4.61 1.61 4.61 7.23t-4.61 7.23l-72.99 33.09-33.09 72.99q-1.61 4.61-7.23 4.61t-7.23-4.61l-33.09-72.99Zm205.11-204.73-48.94-23.05q-4.62-1.62-4.62-7.23 0-5.62 4.62-7.23l48.94-23.06 23.06-48.94q1.61-4.62 7.23-4.62 5.61 0 7.23 4.62l23.05 48.94 48.95 23.06q4.61 1.61 4.61 7.23 0 5.61-4.61 7.23l-48.95 23.05-23.05 48.95q-1.62 4.61-7.23 4.61-5.62 0-7.23-4.61l-23.06-48.95Z"/></svg>