<svg xmlns="http://www.w3.org/2000/svg" height="20" viewBox="0 -960 960 960" width="20"><path d="M180.309-212.001q-27.008 0-45.658-18.662-18.65-18.662-18.65-45.686v-407.626q0-27.024 18.65-45.524t45.658-18.5h364.307q11.049 0 18.524 7.419 7.475 7.418 7.475 18.384 0 10.966-7.475 18.581T544.616-696H180.309q-4.616 0-8.463 3.846-3.846 3.847-3.846 8.463v407.382q0 4.616 3.846 8.463 3.847 3.846 8.463 3.846h599.382q4.616 0 8.463-3.846 3.846-3.847 3.846-8.463v-172.03q0-11.026 7.418-18.651t18.384-7.625q10.966 0 18.581 7.487 7.616 7.488 7.616 18.556v172.527q0 27.044-18.65 45.544-18.65 18.5-45.658 18.5H180.309Zm333.692-241.616L401.668-341.285q-7.746 7.747-17.889 7.67-10.143-.077-18.171-8.461-8.608-8.308-8.416-18.577.192-10.269 8.206-18.282l111.835-111.45H408q-11.05 0-18.524-7.419-7.475-7.418-7.475-18.384 0-10.966 7.491-18.581 7.492-7.615 18.567-7.615h125.462q13.69 0 23.084 9.261t9.394 22.952v125.461q0 11.075-7.418 18.7t-18.384 7.625q-10.966 0-18.581-7.591-7.615-7.592-7.615-18.813v-68.828Zm233.537-101.46q-40.192 0-68.326-28.135-28.135-28.134-28.135-68.326 0-40.192 28.135-68.326 28.134-28.135 68.326-28.135 40.192 0 68.326 28.135 28.135 28.134 28.135 68.326 0 40.192-28.135 68.326-28.134 28.135-68.326 28.135Z"/></svg>