<svg xmlns="http://www.w3.org/2000/svg" height="20" viewBox="0 -960 960 960" width="20"><path d="M448.307-309.54q15.034 0 29.094-4.269 14.06-4.27 27.445-12.039l75.308 74.309q8.308 8.307 17.884 8.5 9.577.192 18.269-8.5 8.692-8.692 8.692-18.077 0-9.384-8.692-18.076l-74.308-75.309q8.538-13 12.423-26.922 3.884-13.922 3.884-28.616 0-47.045-31.422-79.522-31.423-32.478-78.577-32.478-47.153 0-78.576 32.539-31.423 32.539-31.423 79.077 0 46.537 31.898 77.96 31.897 31.423 78.101 31.423Zm0-51.999q-23.846 0-40.923-16.785-17.078-16.786-17.078-40.215 0-24.263 17.078-41.632 17.077-17.369 40.923-17.369 23.847 0 40.924 17.369 17.077 17.369 17.077 41.632 0 23.429-17.077 40.215-17.077 16.785-40.924 16.785ZM276.025-116.001q-27.024 0-45.524-18.65t-18.5-45.658v-599.382q0-27.008 18.65-45.658 18.65-18.65 45.658-18.65h282.769q12.684 0 24.418 4.616 11.735 4.615 21.582 14.461l123.844 123.844q9.846 9.847 14.461 21.582 4.616 11.734 4.616 24.418v474.769q0 27.008-18.662 45.658-18.662 18.65-45.686 18.65H276.025Zm271.976-560.154V-792H276.309q-4.616 0-8.463 3.846-3.846 3.847-3.846 8.463v599.382q0 4.616 3.846 8.463 3.847 3.846 8.463 3.846h407.382q4.616 0 8.463-3.846 3.846-3.847 3.846-8.463v-463.692H580.155q-13.761 0-22.957-9.197-9.197-9.196-9.197-22.957ZM264-792v147.999V-792v624V-792Z"/></svg>