<svg xmlns="http://www.w3.org/2000/svg" height="20" viewBox="0 -960 960 960" width="20"><path d="m573-231.768 174.693-174.693q8.307-8.308 17.884-8.5 9.577-.192 18.269 8.5 8.692 8.692 8.692 18.576 0 9.885-8.692 18.577L595.307-179.77q-9.482 9.846-22.125 9.846t-22.823-10.179L446.924-283.539q-8.308-8.307-8-18.384.307-10.077 9-18.769 8.692-8.692 18.576-8.692t18.576 8.692L573-231.768ZM346.001-395.615v-22.001H276q-11.069 0-18.534-7.405-7.465-7.404-7.465-18.384 0-10.979 7.465-18.594 7.465-7.616 18.534-7.616h166.001v-92.001H293.385q-18.092 0-30.738-12.646T250.001-605v-109.23q0-18.093 12.646-30.739t30.738-12.646h52.616v-22q0-11.069 7.404-18.534 7.405-7.466 18.384-7.466 10.98 0 18.595 7.466 7.615 7.465 7.615 18.534v22H468q11.069 0 18.534 7.405 7.465 7.405 7.465 18.384 0 10.98-7.465 18.595-7.465 7.615-18.534 7.615H301.999v92.001h148.616q18.092 0 30.738 12.646t12.646 30.739V-461q0 18.092-12.646 30.738t-30.738 12.646h-52.616v22.001q0 11.069-7.404 18.534-7.405 7.465-18.384 7.465-10.98 0-18.595-7.465-7.615-7.465-7.615-18.534Z"/></svg>