<svg xmlns="http://www.w3.org/2000/svg" height="20" viewBox="0 -960 960 960" width="20"><path d="M168-648v94.001q0 11.069-7.405 18.534Q153.191-528 142.211-528q-10.979 0-18.594-7.465-7.616-7.465-7.616-18.534v-257.846q0-13.761 9.197-22.957 9.196-9.197 22.957-9.197h171.538q27.007 0 45.657 18.65Q384-806.699 384-779.691v69.692q0 23.307-15.885 40.961-15.884 17.654-39.654 20.577l35.616 82.77q6.077 13.769-1.941 25.73T339.26-528q-8.018 0-14.666-4.461-6.647-4.462-10.362-12.154L270.361-648H168Zm0-51.999h151.693q5.385 0 8.847-3.461 3.461-3.462 3.461-8.847v-67.384q0-5.385-3.461-8.847-3.462-3.462-8.847-3.462H168v92.001Z"/></svg>