<svg xmlns="http://www.w3.org/2000/svg" height="20" viewBox="0 -960 960 960" width="20"><path d="M389.385-319.541h157.384q10.212 0 18.414-4.884 8.201-4.885 12.647-14.135l70.707-137.594q2.385-6.154 4.077-12.59 1.692-6.436 1.692-12.487v-5.077q0-16.169-10.53-26.699-10.531-10.531-26.7-10.531H485.537l19.29-90.967q1.941-8.549-.559-16.136-2.5-7.588-8.731-13.819l-23.23-23.23L367.54-541q-3.077 5.242-4.615 9.919-1.539 4.677-1.539 10.619v172.923q0 11.549 8.225 19.774 8.225 8.224 19.774 8.224Zm90.958 203.54q-75.112 0-141.48-28.42-66.369-28.42-116.182-78.21-49.814-49.791-78.247-116.087t-28.433-141.673q0-75.378 28.42-141.246 28.42-65.869 78.21-115.682 49.791-49.814 116.087-78.247t141.673-28.433q75.378 0 141.246 28.42 65.869 28.42 115.682 78.21 49.814 49.791 78.247 115.853t28.433 141.173q0 75.112-28.42 141.48-28.42 66.369-78.21 116.182-49.791 49.814-115.853 78.247t-141.173 28.433ZM480-168q130 0 221-91t91-221q0-130-91-221t-221-91q-130 0-221 91t-91 221q0 130 91 221t221 91Zm0-312Z"/></svg>