<svg xmlns="http://www.w3.org/2000/svg" height="20" viewBox="0 -960 960 960" width="20"><path d="M322.001-65.694q-26.527 0-45.417-18.89T257.694-130v-699.998q0-26.527 18.89-45.417t45.417-18.89h315.998q26.527 0 45.417 18.89t18.89 45.417v699.998q0 26.527-18.89 45.417t-45.417 18.89H322.001Zm0-51.998h315.998q5.385 0 8.847-3.462 3.462-3.462 3.462-8.847v-699.998q0-5.385-3.462-8.847-3.462-3.462-8.847-3.462H322.001q-5.385 0-8.847 3.462-3.462 3.462-3.462 8.847v699.998q0 5.385 3.462 8.847 3.462 3.462 8.847 3.462Zm157.836-451.309q44.932 0 76.547-31.246 31.615-31.247 31.615-75.884 0-44.638-31.452-76.253-31.452-31.615-76.384-31.615t-76.547 31.452q-31.615 31.452-31.615 76.384t31.452 76.047q31.452 31.115 76.384 31.115Zm.163-51.998q-22.846 0-39.424-16.577-16.577-16.578-16.577-39.512t16.577-38.923q16.578-15.99 39.424-15.99t39.424 15.99q16.577 15.989 16.577 38.923t-16.577 39.512Q502.846-620.999 480-620.999Zm-68.297 208.306q13.605 0 22.951-9.203T444-444.703q0-13.605-9.203-22.951T411.99-477q-13.605 0-22.951 9.203t-9.346 22.807q0 13.605 9.203 22.951t22.807 9.346Zm136.308 0q13.604 0 22.95-9.203t9.346-22.807q0-13.605-9.203-22.951T548.297-477q-13.605 0-22.951 9.203T516-444.99q0 13.605 9.203 22.951t22.808 9.346Zm-136.308 118q13.605 0 22.951-9.203T444-326.703q0-13.605-9.203-22.951T411.99-359q-13.605 0-22.951 9.203t-9.346 22.807q0 13.605 9.203 22.951t22.807 9.346Zm136.308 0q13.604 0 22.95-9.203t9.346-22.807q0-13.605-9.203-22.951T548.297-359q-13.605 0-22.951 9.203T516-326.99q0 13.605 9.203 22.951t22.808 9.346Zm-136.308 119q13.605 0 22.951-9.203T444-207.703q0-13.605-9.203-22.951T411.99-240q-13.605 0-22.951 9.203t-9.346 22.808q0 13.604 9.203 22.95t22.807 9.346Zm136.308 0q13.604 0 22.95-9.203t9.346-22.807q0-13.605-9.203-22.951T548.297-240q-13.605 0-22.951 9.203T516-207.989q0 13.604 9.203 22.95t22.808 9.346Zm-238.319 58.001v-724.616 724.616Z"/></svg>