<svg xmlns="http://www.w3.org/2000/svg" height="20" viewBox="0 -960 960 960" width="20"><path d="M412.924-173.078q-89.154-21.154-145.038-91.538Q212.001-335 212.001-426q0-47.923 14.808-93.115 14.808-45.192 45.654-81.269 7.307-8.307 18.076-7.615 10.769.692 18.692 8.615 7.308 7.308 7.115 17.769-.192 10.461-6.5 17.999-24.307 29.385-35.077 65.423Q264-462.154 264-425q0 72.539 44.808 128.808 44.808 56.269 115.5 74.346 8.923 2.846 14.308 9.153Q444-206.385 444-197.462q0 11.999-9.346 20.115-9.346 8.115-21.73 4.269Zm133.152 1.769q-11.384 3.846-20.73-4.577T516-196.308q0-9.308 5.884-15.615 5.885-6.308 13.808-9.538Q607-242.077 651.5-299.961 696-357.846 696-431q0-90-63.5-152.5T478-646h-14.155l32.925 32.924q8.692 8.692 7.692 18.077-1 9.384-9.692 18.076t-18.577 8.692q-9.884 0-17.576-8.692l-72.769-71.769q-4.615-4.615-6.923-11.346t-2.308-13.961q0-6.231 2.808-11.962 2.808-5.73 7.423-10.346l73.769-73.769q8.692-8.692 18.076-8.692 9.385 0 18.077 8.692 8.692 8.692 8.192 18.577-.5 9.884-8.192 18.576l-32.925 34.924H478q112.538 0 191.268 77.731 78.731 77.73 78.731 189.268 0 92-56.077 163.999-56.077 72-145.846 95.692Z"/></svg>