<svg xmlns="http://www.w3.org/2000/svg" height="20" viewBox="0 -960 960 960" width="20"><path d="m690.154-137.694-5.923-30.076q-19.566-5.294-34.091-13.186-14.525-7.892-27.063-20.584l-29.846 9.923q-5.53 2.384-10.996.461-5.465-1.923-8.08-6.179l-9.154-16.716q-3-4.257-2.692-9.873.308-5.615 5.045-10.377l22.801-22.16q-4.693-17.462-4.693-36.886 0-19.423 4.693-36.885l-22.801-21.307q-4.737-4.615-5.045-10.231-.308-5.615 2.692-9.985l9.154-17.49q2.615-4.37 8.08-6.293 5.466-1.923 10.996.462l28.846 8.923q12.538-12.693 27.654-21.039 15.115-8.346 34.215-13.142l7.208-30.28q1.616-5.741 5.923-9.486 4.308-3.745 9.539-3.745h17.537q5.231 0 9.538 3.745 4.308 3.745 5.923 9.486l7.209 30.28q19.099 4.796 34.215 13.334 15.115 8.539 27.654 21.231l29.845-7.922q5.064-2.385 10.096-.629 5.032 1.757 7.981 6.705l9.153 16.404q3 4.211 2.692 9.826-.307 5.615-4.913 10.084l-21.932 20.454q5.692 18.462 5.192 37.385t-6.192 37.385l22.801 21.307q4.737 4.616 5.044 10.231.308 5.615-2.692 9.872l-9.153 16.716q-2.615 4.257-8.423 6.18t-11.039-.462l-29.46-9.307q-12.539 12.692-27.063 20.584-14.525 7.892-34.092 13.186l-7.923 30.076q-1.615 5.74-5.923 9.485-4.307 3.745-9.413 3.745h-16.787q-5.106 0-9.823-3.745-4.717-3.745-6.514-9.485Zm25.443-81.383q30.941 0 52.903-22.174 21.961-22.174 21.961-53.116 0-30.941-22.174-52.903-22.174-21.961-53.115-21.961-30.942 0-52.903 22.174-21.962 22.174-21.962 53.115 0 30.942 22.174 52.903 22.174 21.962 53.116 21.962ZM442.211-448.616q-12.902 0-22.248-9.135-9.347-9.136-9.347-22.038 0-12.903 9.136-22.249 9.136-9.346 22.038-9.346 12.903 0 22.249 9.135 9.346 9.136 9.346 22.038 0 12.903-9.136 22.249-9.135 9.346-22.038 9.346Zm-242.21 284.615q-11.068 0-18.534-7.405-7.465-7.405-7.465-18.384 0-10.98 7.465-18.595Q188.933-216 200.001-216h46.001v-515.691q0-26.623 18.842-45.465 18.842-18.843 45.465-18.843h191.383q21.846 0 39.577 13.693 17.731 13.692 23.807 34.307h84.615q26.623 0 45.465 18.81 18.842 18.81 18.842 45.387v121.681q0 11.046-7.405 18.661-7.405 7.615-18.384 7.615t-18.595-7.465q-7.615-7.465-7.615-18.534v-121.847q0-5.385-3.462-8.847-3.461-3.462-8.846-3.462h-83.692v201.464q0 12.499-8.173 18.749-8.172 6.25-17.826 6.25t-17.826-6.5q-8.173-6.5-8.173-19.499v-236.155q0-5.385-3.462-8.847-3.462-3.462-8.847-3.462H310.309q-5.385 0-8.846 3.462-3.462 3.462-3.462 8.847V-216h172.693q12 0 18.692 8.173t6.692 17.826q0 9.654-6.218 17.827-6.217 8.173-19.166 8.173H200.001Zm98-51.999v-528 528Z"/></svg>