<svg xmlns="http://www.w3.org/2000/svg" height="20" viewBox="0 -960 960 960" width="20"><path d="M228.309-164.001q-27.008 0-45.658-18.676-18.65-18.676-18.65-45.719v-119.559q0-27.044 18.65-45.544 18.65-18.5 45.658-18.5h381.692v-117.738q0-11.031 7.404-18.646 7.405-7.616 18.384-7.616 10.98 0 18.479 7.466 7.498 7.465 7.498 18.534v118h69.925q27.833 0 47.07 18.5 19.238 18.5 17.238 45.808v119.382q-2 26.308-20.063 45.308-18.062 19-44.245 19H228.309Zm0-51.999h503.382q5.385 0 8.847-3.462 3.462-3.462 3.462-8.847v-119.382q0-5.385-3.462-8.847-3.462-3.462-8.847-3.462H228.309q-5.385 0-8.847 3.462-3.462 3.462-3.462 8.847v119.382q0 5.385 3.462 8.847 3.462 3.462 8.847 3.462Zm71.48-40.616q13.288 0 22.442-8.943 9.153-8.943 9.153-22.23 0-13.288-8.943-22.442-8.943-9.153-22.23-9.153-13.288 0-22.442 8.943-9.153 8.943-9.153 22.23 0 13.288 8.943 22.442 8.943 9.153 22.23 9.153Zm132 0q13.288 0 22.442-8.943 9.153-8.943 9.153-22.23 0-13.288-8.943-22.442-8.943-9.153-22.23-9.153-13.288 0-22.442 8.943-9.153 8.943-9.153 22.23 0 13.288 8.943 22.442 8.943 9.153 22.23 9.153Zm132 0q13.288 0 22.442-8.943 9.153-8.943 9.153-22.23 0-13.288-8.943-22.442-8.943-9.153-22.23-9.153-13.288 0-22.442 8.943-9.153 8.943-9.153 22.23 0 13.288 8.943 22.442 8.943 9.153 22.23 9.153ZM636-648q-10.616 0-20.962 1.923-10.347 1.923-19.039 7.77-10.769 1.846-21.038.923t-18.576-9.231q-8.308-8.307-7.875-17.646.434-9.338 9.105-14.276 18.77-11.308 38.385-16.385 19.615-5.077 40.113-5.077 20.887 0 40.695 5.077 19.807 5.077 38.66 17.549 8.594 4.716 9.024 13.583.431 8.868-7.877 17.175-8.307 8.308-18.384 9.231-10.076.923-20.845-.923-9.077-5.847-19.283-7.77Q647.897-648 636-648Zm0-144q-41.993 0-77.728 12.077-35.735 12.077-64.458 33.332-9.584 6.13-20.353 6.707-10.769.577-19.461-8.115-8.307-8.308-7.423-19.269.885-10.961 9.845-18.086Q494-815.46 540.308-829.729q46.307-14.27 95.692-14.27 49.385 0 95.692 14.27Q778-815.46 815.578-785.354q8.96 7.125 9.845 18.086.884 10.961-7.423 19.269-8.692 8.692-19.461 8.115-10.769-.577-20.353-6.707-28.723-21.255-64.458-33.332Q677.993-792 636-792ZM216-216v-144 144Z"/></svg>