<svg xmlns="http://www.w3.org/2000/svg" height="20" viewBox="0 -960 960 960" width="20"><path d="M238.211-672q-10.979 0-18.594-7.465-7.616-7.465-7.616-18.534v-81.692q0-27.008 18.65-45.658 18.65-18.65 45.658-18.65h81.692q11.069 0 18.534 7.405Q384-829.189 384-818.21q0 10.98-7.465 18.595Q369.07-792 358.001-792h-81.692q-4.616 0-8.463 3.846-3.846 3.847-3.846 8.463v81.692q0 11.069-7.405 18.534Q249.191-672 238.211-672Zm38.098 555.999q-27.008 0-45.658-18.65-18.65-18.65-18.65-45.658v-81.692q0-11.069 7.405-18.534Q226.811-288 237.79-288q10.98 0 18.595 7.465Q264-273.07 264-262.001v81.692q0 4.616 3.846 8.463 3.847 3.846 8.463 3.846h81.692q11.069 0 18.534 7.405Q384-153.191 384-142.211q0 10.979-7.465 18.594-7.465 7.616-18.534 7.616h-81.692ZM722.21-672q-10.98 0-18.595-7.465Q696-686.93 696-697.999v-81.692q0-4.616-3.846-8.463-3.847-3.846-8.463-3.846h-81.692q-11.069 0-18.534-7.405Q576-806.809 576-817.789q0-10.979 7.465-18.594 7.465-7.616 18.534-7.616h81.692q27.008 0 45.658 18.65 18.65 18.65 18.65 45.658v81.692q0 11.069-7.405 18.534Q733.189-672 722.21-672ZM601.999-116.001q-11.069 0-18.534-7.405Q576-130.811 576-141.79q0-10.98 7.465-18.595Q590.93-168 601.999-168h81.692q4.616 0 8.463-3.846 3.846-3.847 3.846-8.463v-81.692q0-11.069 7.405-18.534Q710.809-288 721.789-288q10.979 0 18.594 7.465 7.616 7.465 7.616 18.534v81.692q0 27.008-18.65 45.658-18.65 18.65-45.658 18.65h-81.692Z"/></svg>