<svg xmlns="http://www.w3.org/2000/svg" height="20" viewBox="0 -960 960 960" width="20"><path d="M825.306-400.923 560.077-134.694q-9.901 9.846-21.528 14.27-11.626 4.423-24.183 4.423-12.558 0-24.116-4.423-11.557-4.424-21.403-14.27L134.776-468.38q-9.928-9.544-14.352-21.193-4.423-11.65-4.423-24.504v-265.23q0-26.685 18.843-45.688 18.842-19.004 45.849-19.004h265.23q12.401 0 24.028 4.375 11.626 4.375 21.314 14.015l334.041 333.687q9.997 9.901 14.537 21.027 4.54 11.126 4.54 23.826 0 12.7-4.562 24.528-4.561 11.829-14.515 21.618ZM523.309-171.846l265.229-265.23q3.847-3.846 3.847-9.039t-3.847-9.039l-337.23-336.461H180.693q-5.385 0-9.039 3.461-3.654 3.462-3.654 8.847v265.614q0 2.308.769 4.616.77 2.308 2.693 4.231l333.768 333q3.847 3.846 9.039 3.846 5.193 0 9.04-3.846ZM264.996-644.847q20.927 0 35.542-14.583 14.615-14.583 14.615-35.416 0-20.993-14.583-35.689-14.583-14.695-35.416-14.695-20.993 0-35.689 14.649-14.695 14.649-14.695 35.577 0 20.927 14.649 35.542 14.649 14.615 35.577 14.615Zm215.773 165.616Z"/></svg>