<svg xmlns="http://www.w3.org/2000/svg" height="20" viewBox="0 -960 960 960" width="20"><path d="M538.001-164.001v-56.153q0-9.758 6.384-18.281 6.385-8.524 16.308-12.258L678.924-288l-118.231-37.307q-9.923-3.734-16.308-12.258-6.384-8.523-6.384-18.281v-56.153q0-18.385 15.077-27.577 15.076-9.192 31.153-.961l248.383 123.999q18.077 8.697 18.077 28.464 0 19.766-18.077 28.612L584.231-135.463q-16.077 8.231-31.153-.961-15.077-9.192-15.077-27.577Zm-322.001 0q-21.449 0-36.724-15.275-15.275-15.275-15.275-36.724v-171.077q33.077-7.001 54.538-33.154Q240-446.385 240-480q0-33.615-21.461-59.769-21.461-26.153-54.538-33.154V-744q0-21.449 15.275-36.724 15.275-15.275 36.724-15.275h168q5.385-36.153 32.198-59.922 26.813-23.769 63.577-23.769 36.763 0 63.802 23.609 27.038 23.609 32.423 60.082h168q21.449 0 36.724 15.275 15.275 15.275 15.275 36.724v328.539l-51.999-26V-744H526.309v-41.229q-2.308-19.985-16.046-31.224-13.739-11.238-30.263-11.238t-30.263 11.238q-13.738 11.239-16.046 31.224V-744H216v133.54q36.538 18.846 56.268 54.384 19.731 35.538 19.731 76.623 0 40.375-19.731 75.914-19.73 35.538-56.268 53.999V-216h135.463q16.846-33.769 49.692-53.384 32.846-19.615 68.692-20.999v52.998q-31.231 3-54.115 24.769-22.885 21.769-28.655 48.615H216Zm264-357.845Z"/></svg>