<svg xmlns="http://www.w3.org/2000/svg" height="20" viewBox="0 -960 960 960" width="20"><path d="M168-480.467q0 58.16 19.923 109.083t54.231 91.692q7.692 8.538 7.577 19-.115 10.461-8.181 18.725-8.067 8.351-18.884 7.659-10.818-.693-18.511-9.231-42-48.077-65.077-108.538-23.077-60.462-23.077-128.011 0-67.55 23.077-127.231t64.077-109.142q7.693-8.538 18.269-9.731 10.577-1.192 18.884 7.116 8.308 8.307 7.923 18.662-.385 10.355-7.077 19.106-34.308 41.769-53.731 92.721Q168-537.635 168-480.467Zm144 .619q0 28.156 8.582 53.204 8.582 25.047 23.803 46.337 6.077 9.538 6.461 19.115.385 9.576-7.681 17.84-8.066 8.351-19.076 7.659-11.011-.692-18.088-9.231-22-28.461-34-62.345-12-33.885-12-72.731 0-38.303 12.023-72.646t33.977-62.43q6.693-8.539 17.654-9.923 10.961-1.385 19.269 6.923 8.307 8.307 7.922 18.576-.384 10.269-6.461 19.807-15.221 21.383-23.803 46.536Q312-508.003 312-479.848Zm167.752 63.847q-26.29 0-45.02-18.979-18.731-18.978-18.731-45.268t18.979-45.02q18.978-18.731 45.268-18.731t45.02 18.979q18.731 18.978 18.731 45.268t-18.979 45.02q-18.978 18.731-45.268 18.731ZM648-480.152q0-28.156-8.582-53.204-8.582-25.047-23.803-46.337-6.077-9.538-6.154-19.115-.077-9.576 8.159-17.84 8.236-8.351 18.961-7.659 10.725.692 17.418 9.231 21.954 28.087 33.977 62.43 12.023 34.343 12.023 72.646 0 38.846-12.546 73.443-12.545 34.598-35.454 62.633-7.077 7.539-16.846 8.423-9.769.885-18.077-7.423-8.307-8.307-7.922-18.076.384-9.769 6.461-19.307 15.221-21.383 23.803-46.536Q648-451.997 648-480.152Zm144 .619q0-57.775-19.423-108.698-19.423-50.923-53.731-93.077-6.692-8.538-6.885-19.5-.192-10.961 8.115-19.268 8.308-8.308 18.692-6.616 10.384 1.693 18.077 10.231 41 49.461 64.077 109.142 23.077 59.681 23.077 127.231 0 67.549-23.077 128.011-23.077 60.461-65.077 108.538-7.693 8.538-18.804 9.231-11.111.692-19.384-7.437-8.273-8.022-7.888-18.715.385-10.694 8.077-19.232 34.308-40.769 54.231-91.721Q792-422.365 792-479.533Z"/></svg>