<svg xmlns="http://www.w3.org/2000/svg" height="20" viewBox="0 -960 960 960" width="20"><path d="M780-562.001q-10.769 0-18.384-7.615T754.001-588q0-9.384 7.615-17.692 7.615-8.307 18.384-8.307 9.384 0 17.692 8.307 8.307 8.308 8.307 17.692 0 10.769-8.307 18.384-8.308 7.615-17.692 7.615ZM406.001-249.233l-96.925 96.925q-8.307 8.307-18.576 8.307t-18.576-7.923q-7.923-8.307-7.923-18.576t7.923-18.192l134.077-134.077v-83.232h-83.232L189.076-272.308q-8.307 8.307-18.576 8.307t-18.576-7.923q-7.923-8.307-7.923-18.576t7.923-18.192l97.309-97.309H131q-9.384 0-17.192-7.615-7.807-7.615-7.807-18.384 0-9.384 7.615-17.692 7.615-8.307 18.384-8.307h117.233l-96.925-95.925q-8.307-8.307-8.307-18.576t7.923-18.192q8.307-8.307 18.576-8.307t18.192 8.307l134.077 132.693h83.232v-83.232L272.308-673.924q-8.307-8.307-8.307-18.576t7.923-18.192q8.307-8.307 18.576-8.307t18.192 8.307l97.309 95.925V-732q0-9.384 7.615-17.692 7.615-8.307 18.384-8.307 9.384 0 17.692 8.307 8.307 8.308 8.307 17.692v117.233l95.925-95.925q8.307-8.307 18.576-8.307t18.192 8.307q8.307 7.923 8.307 18.192t-8.307 18.576L457.999-541.231v83.232H732q9.384 0 17.692 8.307 8.307 8.308 8.307 17.692 0 10.769-8.307 18.384-8.308 7.615-17.692 7.615H614.767l95.925 96.925q8.307 8.307 8.307 18.576t-8.307 18.576q-7.923 7.923-18.192 7.923t-18.576-7.923L541.231-406.001h-83.232v83.232l132.693 133.693q8.307 8.307 8.307 18.576t-8.307 18.576q-7.923 7.923-18.192 7.923t-18.576-7.923l-95.925-97.309V-131q0 9.384-8.307 17.192-8.308 7.807-17.692 7.807-10.769 0-18.384-7.615T406.001-132v-117.233ZM780-677.385q-10.769 0-18.384-7.615t-7.615-18.384V-828q0-9.384 7.615-17.692 7.615-8.307 18.384-8.307 9.384 0 17.692 8.307 8.307 8.308 8.307 17.692v125.616q0 9.384-8.307 17.191-8.308 7.808-17.692 7.808Z"/></svg>