<svg xmlns="http://www.w3.org/2000/svg" height="20" viewBox="0 -960 960 960" width="20"><path d="M420.309-116.001q-27.008 0-45.658-18.65-18.65-18.65-18.65-45.658v-63.077q0-11.069 7.405-18.534 7.405-7.465 18.384-7.465 10.98 0 18.595 7.465Q408-254.455 408-243.386v63.077q0 4.616 3.846 8.463 3.847 3.846 8.463 3.846h359.382q4.616 0 8.463-3.846 3.846-3.847 3.846-8.463v-359.382q0-4.616-3.846-8.463-3.847-3.846-8.463-3.846H667.614q-10.644 0-17.821-7.405-7.178-7.404-7.178-18.384 0-10.979 7.465-18.594 7.465-7.616 18.534-7.616h111.077q27.008 0 45.658 18.65 18.65 18.65 18.65 45.658v359.382q0 27.008-18.65 45.658-18.65 18.65-45.658 18.65H420.309Zm273.768-626.076-52.692-23.462q-9.846-4.615-9.846-14.461t9.846-14.461l52.692-23.462 23.462-52.692q4.615-9.846 14.461-9.846t14.461 9.846l23.462 52.692 52.692 23.462q9.846 4.615 9.846 14.461t-9.846 14.461l-52.692 23.462-23.462 52.692q-4.615 9.846-14.461 9.846t-14.461-9.846l-23.462-52.692ZM312-356.001q-101.922 0-172.961-71.038Q68.002-498.078 68.002-600q0-101.922 71.037-172.961Q210.078-843.999 312-843.999q101.922 0 172.961 71.038Q555.999-701.922 555.999-600q0 101.922-71.038 172.961Q413.922-356.001 312-356.001Zm.226-51.999Q392-408 448-464.226t56-136Q504-680 447.774-736t-136-56Q232-792 176-735.774t-56 136Q120-520 176.226-464t136 56ZM312-600Zm288 264Z"/></svg>