<svg xmlns="http://www.w3.org/2000/svg" height="20" viewBox="0 -960 960 960" width="20"><path d="m762.23-265.464-51.308 51.309q-8.307 8.307-17.884 7.422-9.577-.884-17.499-8.807-8.308-8.308-8.308-18.384 0-10.077 8.308-18.384l49.923-49.924-51.308-51.308q-8.308-8.308-7.615-18.384.692-10.077 9-18.384 8.307-8.308 18.384-8.308 10.076 0 18.384 8.308L762.23-339l51.309-51.308q8.307-8.308 18.576-8.308t18.192 8.308q8.307 7.923 8.115 18.384-.192 10.461-8.115 18.384l-51.308 51.308 51.308 51.308q8.307 8.308 7.923 18.077-.385 9.769-8.308 17.692-8.307 8.307-18.192 8.307-9.884 0-18.191-8.307l-51.309-50.309ZM480-795.999q110.692 0 209.461 33.039 98.768 33.038 182.922 92.499 13.231 9.846 19.846 22.5t6.615 28.5q0 12.076-5.423 25.538-5.423 13.461-14.884 22.923l-64.385 64.384q-7.923 8.308-18.692 8.308t-19.076-8.308q-8.308-8.307-8.308-17.884 0-9.576 8.308-17.884l67.231-66.231q4.231-4.231 3.654-10.193t-5.578-9.039q-79.076-56.769-170.807-86.461Q579.154-744 480-744q-99.154 0-190.884 29.692-91.731 29.692-170.807 86.461-5.001 3.077-5.578 9.039t3.654 10.193l357.076 356.076q2.693 2.693 6.539 2.693 3.846 0 6.539-2.693l35.924-34.924q8.307-8.307 18.384-8.307t18.384 8.307q8.308 8.308 8.308 18.384 0 10.077-8.308 18.384l-34.001 34.001q-9.846 9.846-21.307 14.077-11.462 4.231-23.923 4.231-12.461 0-23.923-4.731-11.461-4.731-21.307-14.577L81.463-571q-9.461-9.462-14.384-22.423-4.923-12.962-4.923-25.038 0-15.846 6.115-29t19.346-23q84.154-59.461 182.922-92.499Q369.308-795.999 480-795.999Zm0 299.46Z"/></svg>