<svg xmlns="http://www.w3.org/2000/svg" height="20" viewBox="0 -960 960 960" width="20"><path d="m170.463-170.463 619.074-619.074q15.077-15.077 34.769-6.765 19.693 8.313 19.693 29.687v299.232q0 11.05-7.419 18.525-7.418 7.474-18.384 7.474-10.966 0-18.581-7.474Q792-456.333 792-467.383v-250.696L241.921-168H572.31q11.05 0 18.525 7.418 7.474 7.418 7.474 18.384 0 10.966-7.474 18.581-7.475 7.616-18.525 7.616H193.385q-21.374 0-29.687-19.693-8.312-19.692 6.765-34.769Zm533.735 54.462q-10.965 0-18.581-7.475-7.615-7.475-7.615-18.525v-193.69q0-11.05 7.418-18.525 7.419-7.475 18.384-7.475 10.966 0 18.582 7.475 7.615 7.475 7.615 18.525v193.69q0 11.05-7.418 18.525-7.419 7.475-18.385 7.475Zm123.999 0q-10.966 0-18.581-7.475t-7.615-18.525v-193.69q0-11.05 7.418-18.525 7.418-7.475 18.384-7.475 10.966 0 18.581 7.475t7.615 18.525v193.69q0 11.05-7.418 18.525-7.418 7.475-18.384 7.475ZM516.768-442.847Z"/></svg>