<svg xmlns="http://www.w3.org/2000/svg" height="20" viewBox="0 -960 960 960" width="20"><path d="M766.231-54.154q-10.231 0-20.269-1.5-10.039-1.5-20.654-5.116L72.154-274.539q-6.308-2.231-9.654-8.615-3.346-6.385-1.115-13.692 2.23-6.308 8.423-9.654 6.192-3.346 12.5-1.115l134.538 43.923 25.847-80.539-133.539-43.923q-6.308-2.231-9.654-8.423t-1.115-13.5q2.231-6.307 8.615-9.846 6.385-3.538 12.692-1.307l58.309 19.231v-146.155q0-9.846 5.423-17.576 5.423-7.731 14.269-12.346l185.538-78.308q5.846-2.231 11.885-3.731 6.038-1.5 12.884-1.5 36.231 0 55.231 25.539 18.999 25.538 7.999 60.538l-41.461 131.077 111-19.538q13.538-2.231 23.961 3.653 10.423 5.885 16.654 18.577l96.077 201 72.846 24.539q7.308 2.23 10.654 8.615 3.346 6.384 1.115 13.692-2.23 7.307-8.922 10.153-6.693 2.846-14 .616l-119.77-38.924-25.846 80.54 142.769 45.923q8.77 2.385 15.27 4.077 6.5 1.692 15.654 1.692 43.615 0 73.385-28.769 29.769-28.769 29.769-72.385 0-29.846-14.539-52.808-14.538-22.962-37.307-36.346-6.077-3.846-8.116-10.539-2.038-6.692.193-13.384 2.23-7.307 8.615-10.961 6.384-3.654 12.076.192Q864.23-298 884.653-264.731q20.423 33.27 20.423 72.731 0 58.846-39.999 98.346-40 39.5-98.846 39.5Zm-207.154-98.538 25.847-79.539-308.155-100.462-25.847 80.539 308.155 99.462Zm50.155-109.615-64.539-137.232-186.617 55.232 251.156 82Zm-302.847-98.692q-13.923-14.385-17.307-33.423-3.385-19.039 2.769-39.501l44.539-146.386-106.387 45.385v149.386l76.386 24.539Zm172.846-341.155q-32.308 0-55.077-22.769-22.769-22.77-22.769-55.077t22.769-55.077q22.769-22.769 55.077-22.769 32.307 0 55.076 22.769 22.769 22.77 22.769 55.077t-22.769 55.077q-22.769 22.769-55.076 22.769Z"/></svg>