<svg xmlns="http://www.w3.org/2000/svg" height="20" viewBox="0 -960 960 960" width="20"><path d="M480.295-356.001q-101.833 0-173.063-70.936-71.231-70.935-71.231-172.768t70.936-173.063q70.935-71.231 172.768-71.231t173.063 70.936q71.231 70.935 71.231 172.768t-70.936 173.063q-70.935 71.231-172.768 71.231ZM480.226-408Q560-408 616-464.226t56-136Q672-680 615.774-736t-136-56Q400-792 344-735.774t-56 136Q288-520 344.226-464t136 56Zm-84.437-180Q411-588 421.5-598.289q10.5-10.29 10.5-25.5Q432-639 421.711-649.5q-10.29-10.5-25.5-10.5Q381-660 370.5-649.711q-10.5 10.29-10.5 25.5Q360-609 370.289-598.5q10.29 10.5 25.5 10.5Zm168 0Q579-588 589.5-598.289q10.5-10.29 10.5-25.5Q600-639 589.711-649.5q-10.29-10.5-25.5-10.5Q549-660 538.5-649.711q-10.5 10.29-10.5 25.5Q528-609 538.289-598.5q10.29 10.5 25.5 10.5Zm-84-96Q495-684 505.5-694.289q10.5-10.29 10.5-25.5Q516-735 505.711-745.5q-10.29-10.5-25.5-10.5Q465-756 454.5-745.711q-10.5 10.29-10.5 25.5Q444-705 454.289-694.5q10.29 10.5 25.5 10.5Zm-25.788 565.691v-24q0-34.316-23.843-58.159Q406.316-224.31 372-224.31h-42.615q-11.05 0-18.524-7.418-7.475-7.418-7.475-18.384 0-10.966 7.475-18.581 7.474-7.616 18.524-7.616h301.23q11.05 0 18.524 7.419 7.475 7.418 7.475 18.384 0 10.966-7.475 18.581-7.474 7.615-18.524 7.615H588q-34.316 0-58.158 23.842-23.843 23.843-23.843 58.159v24h-51.998ZM480-597Z"/></svg>