<svg xmlns="http://www.w3.org/2000/svg" height="20" viewBox="0 -960 960 960" width="20"><path d="M480-480ZM369.847-218.539 218.539-369.847q-3.539 35.769-1.924 75.231Q218.231-255.154 224-225q24.308 6.769 67.77 8.577 43.462 1.808 78.077-2.116Zm65.152-8.153Q491.384-237.154 546.615-264T636-324q32.769-32.769 60.116-88.308 27.346-55.539 37.192-112.693L525.001-733.308q-54 9.077-110.924 36.615-56.923 27.539-88.923 59.539-33 33-58.539 88.231-25.538 55.231-39.923 113.924l208.307 208.307Zm306.462-363.461q4.154-40.308 1.539-77.693T735-735q-25.308-5.385-67.77-7.692-42.462-2.308-77.077 1.231l151.308 151.308ZM324.462-164.001q-49.769 0-91.461-6.847-41.692-6.846-49.769-14.922-7.692-8.693-13.461-47.961-5.77-39.269-5.77-86.346 0-108.538 32.654-200.269 32.654-91.73 90.961-151.038 58.308-58.307 150.654-91.461 92.346-33.154 201.884-33.154 48.23 0 87.23 6.462 39 6.461 46.461 14.538 10.231 9.077 16.192 47.269 5.962 38.192 5.962 86.268 0 108.846-32.962 202.269-32.961 93.423-90.884 151.346-58.308 58.307-150.269 91.076-91.961 32.77-197.422 32.77Zm66.462-264.075 142-142q8.307-8.308 17.884-8 9.576.307 18.268 9 8.693 8.692 8.693 18.076t-8.693 18.076l-142 142q-8.307 8.308-17.884 8.5-9.576.193-18.268-8.5-8.693-8.692-8.693-18.576t8.693-18.576Z"/></svg>