<svg xmlns="http://www.w3.org/2000/svg" height="20" viewBox="0 -960 960 960" width="20"><path d="M504-501Zm48 237q100 0 170-70t70-170q0-100-70-170t-170-70q-58.913 0-112.342 14.039-53.428 14.038-102.736 46.115l148.232 61.077q37.922 15.847 59.384 48.43 21.461 32.584 21.461 72.368 0 55.125-38.615 93.547-38.615 38.423-93.384 38.423H171.077q-1.154 22.462-2.115 44.346Q168-303.77 168-276.309q0 4.616 3.846 8.463 3.847 3.846 8.463 3.846H552ZM178.231-421.999h255.948q33.052 0 56.437-22.945 23.385-22.945 23.385-56.454 0-23.679-13.231-43.679-13.231-20.001-35.924-29.154l-170.922-71.462q-47.078 42.923-73.501 100.962Q194-486.692 178.231-421.999ZM552-212.001H180.309q-27.008 0-45.658-18.65-18.65-18.65-18.65-45.658v-41.997q0-107.308 30.808-195.808 30.807-88.5 88.038-151.039 57.231-62.538 137.769-96.692Q453.154-795.999 552-795.999q60.769 0 113.68 22.837 52.91 22.836 92.642 62.364 39.731 39.528 62.704 92.616T843.999-504q0 60.058-22.914 113.387t-62.769 93.009q-39.855 39.68-92.509 62.641Q613.154-212.001 552-212.001Z"/></svg>