<svg xmlns="http://www.w3.org/2000/svg" height="20" viewBox="0 -960 960 960" width="20"><path d="M465.615-429.847 236.738-200.585q-8.584 8.584-19.02 8.584t-18.41-8.307q-8.307-7.974-8.307-18.41t8.307-18.743l372.54-372.54H445.627V-564q0 11.05-7.343 18.524-7.343 7.475-18.198 7.475t-18.47-7.449q-7.615-7.45-7.615-18.462v-65.481q0-13.914 9.244-23.26 9.244-9.346 22.909-9.346h157.77q12.717 0 24.243 4.615 11.526 4.615 21.372 14.462l169.384 168.384q17.308 17.308 36.197 28.906 18.89 11.598 40.726 15.556 11.108 3.217 19.246 10.966 8.138 7.749 8.138 18.687 0 11.961-8.73 18.768-8.731 6.808-19.5 4.192-32.461-5.23-60.999-21.115-28.539-15.885-53.77-41.5l-84.385-81.616L561.768-408l63.539 63.923q11.846 11.846 9.038 26.731-2.808 14.884-16.269 23.115L446-194.462q-9.539 6.077-19.523 3.06-9.985-3.017-16.038-12.577-6.054-9.56-3.107-19.535 2.946-9.975 12.668-16.024l148.77-86.154-103.155-104.155Zm-275.614-12.154q-11.05 0-18.525-7.418-7.475-7.418-7.475-18.384 0-10.966 7.475-18.581t18.525-7.615h120q11.049 0 18.524 7.418Q336-479.163 336-468.197q0 10.966-7.475 18.581t-18.524 7.615h-120Zm-96-120q-11.05 0-18.525-7.418-7.475-7.418-7.475-18.384 0-10.966 7.475-18.581t18.525-7.615h120q11.049 0 18.524 7.418Q240-599.163 240-588.197q0 10.966-7.475 18.581t-18.524 7.615h-120Zm673.999-72q-26.154 0-44.076-18.412-17.923-18.413-17.923-44.269 0-25.856 17.923-43.971 17.922-18.116 44.076-18.116t44.076 18.413q17.923 18.413 17.923 44.269 0 25.856-17.923 43.971-17.922 18.115-44.076 18.115Zm-577.999-48q-11.05 0-18.525-7.418-7.475-7.418-7.475-18.384 0-10.966 7.475-18.581t18.525-7.615h120q11.049 0 18.524 7.418Q336-719.163 336-708.197q0 10.966-7.475 18.581t-18.524 7.615h-120Z"/></svg>