<svg xmlns="http://www.w3.org/2000/svg" height="20" viewBox="0 -960 960 960" width="20"><path d="M622.401-129.079q-25.028 0-42.638-17.823t-17.61-42.85q0-25.028 17.823-42.638 17.822-17.611 42.85-17.611 25.028 0 42.638 17.823t17.61 42.85q0 25.028-17.823 42.638-17.822 17.611-42.85 17.611Zm-339.381 0q-24.787 0-42.518-17.823t-17.731-42.85q0-25.028 17.943-42.638 17.943-17.611 42.731-17.611 25.556 0 42.902 17.823t17.346 42.85q0 25.028-17.558 42.638-17.559 17.611-43.115 17.611Zm90.825-220.92h196.922q5.385 0 8.847-3.462 3.462-3.462 3.462-8.847V-596L373.845-349.999ZM290-298.001q-8.893 0-12.485-7.73-3.591-7.73 2.178-14.73L646.769-750.46q15.846-18.846 35.839-27.192t44.083-8.346q39.764 0 67.189 27.394 27.425 27.395 27.425 67.297v.712q0 10.96-7.419 18.585-7.418 7.625-18.384 7.625-10.966 0-18.516-7.414-7.55-7.415-7.55-18.375v-.797q0-18.327-12.519-30.677-12.52-12.351-30.226-12.351-13.508 0-23.947 5.461-10.438 5.462-18.977 15.001l-48.693 57.385v293.724q0 26.743-18.884 45.585-18.884 18.842-45.403 18.842H290Zm109.693-273.845L267.848-703.691q-9.461-9.461-7.702-24.485 1.76-15.023 14.499-22.105 33.588-16.794 69.087-26.255 35.5-9.462 74.653-9.462 36.385 0 70.077 7.077t67.768 22.615l-156.537 184.46Zm80.459 98.539Zm-83.305-171.922 69.232-82.924q-13.616-2.923-26.347-4.385-12.731-1.461-26.347-1.461-23.077 0-44.846 3.961-21.77 3.962-42.462 13.654l70.77 71.155Zm0 0Z"/></svg>