<svg xmlns="http://www.w3.org/2000/svg" height="20" viewBox="0 -960 960 960" width="20"><path d="M731.691-164.001H228.309q-26.308 0-45.308-19t-19-45.308v-503.382q0-27.008 19-45.658 19-18.65 45.308-18.65h503.382q26.308 0 45.308 18.65t19 45.658v503.382q0 26.308-19 45.308t-45.308 19ZM216-625.999h528v-105.692q0-4.616-3.846-8.463-3.847-3.846-8.463-3.846H228.309q-4.616 0-8.463 3.846-3.846 3.847-3.846 8.463v105.692Zm103.693 51.998H216v345.692q0 4.616 3.846 8.463 3.847 3.846 8.463 3.846h91.384v-358.001Zm320.614 0V-216h91.384q4.616 0 8.463-3.846 3.846-3.847 3.846-8.463v-345.692H640.307Zm-51.998 0H371.691V-216h216.618v-358.001Z"/></svg>