<svg xmlns="http://www.w3.org/2000/svg" height="20" viewBox="0 -960 960 960" width="20"><path d="M710.769-447.386v98.462l-51.999-51.998v-282.769q0-5.385-3.462-8.847-3.462-3.462-8.847-3.462H363.692l-51.998-51.999h334.767q26.527 0 45.417 18.891 18.891 18.89 18.891 45.417v171.077l96.963-96.964q6.728-6.727 17.266-3.122 10.538 3.606 10.538 13.702v237.873q0 10.552-10.538 13.991t-17.266-3.288l-96.963-96.964ZM200.968-552.152q-10.966 0-18.581-7.475-7.616-7.475-7.616-18.524v-105.54q0-18.716 9.462-34.666 9.461-15.949 27.461-25.872L260.923-696h-21.844q-5.385 0-8.847 3.462-3.462 3.462-3.462 8.847v105.54q0 11.049-7.418 18.524-7.418 7.475-18.384 7.475Zm342.413 340.151q-11.049 0-18.524-7.419-7.475-7.418-7.475-18.384 0-10.966 7.475-18.581T543.381-264h103.08q5.385 0 8.847-3.462 3.462-3.462 3.462-8.847v-22.844l51.229 51.229q-9.923 18-26.872 26.961-16.95 8.962-36.666 8.962h-103.08Zm218.464 90.229L109.464-773.154q-8.308-8.307-8-18.384.307-10.076 9-18.768 8.692-8.693 18.076-8.693t18.076 8.693l652.382 651.381q8.307 8.307 8 18.384-.308 10.077-9 18.769-8.692 8.692-18.077 8.692-9.384 0-18.076-8.692ZM449.076-507.846Zm59.155-38.615ZM239.31-135.542q-12.232 0-23.837-5.374-11.606-5.375-21.548-15.318l-69.153-68.537q-5.462-5.825-5.462-13.143 0-7.318 5.462-12.78 4.692-6.461 11.461-8.307t14.153-1.846q8.557 0 14.817 3.846t12.721 10.307l33.693 33.693V-438.69q0-7.733 5.385-12.79 5.386-5.056 12.346-5.056 7.541 0 12.751 5.056 5.209 5.057 5.209 12.79v107.306h27.385v-161.537q0-7.733 5.385-12.789t12.346-5.056q7.541 0 12.75 5.056 5.21 5.056 5.21 12.789v161.537h27.384v-129.23q0-7.733 5.386-12.789 5.385-5.056 12.346-5.056 7.54 0 12.75 5.056t5.21 12.789v129.23h27.384v-94.076q0-7.733 5.385-12.789 5.386-5.057 12.346-5.057 7.541 0 12.751 5.057 5.209 5.056 5.209 12.789v225.611q0 26.527-18.788 45.417t-45.519 18.89H239.31Z"/></svg>