<svg xmlns="http://www.w3.org/2000/svg" height="20" viewBox="0 -960 960 960" width="20"><path d="M180.309-212.001q-27.008 0-45.658-18.662-18.65-18.662-18.65-45.686v-407.626q0-27.024 18.65-45.524t45.658-18.5h599.382q27.008 0 45.658 18.662 18.65 18.662 18.65 45.686v407.626q0 27.024-18.65 45.524t-45.658 18.5H180.309Zm0-51.999h599.382q4.616 0 8.463-3.846 3.846-3.847 3.846-8.463V-624H168v347.691q0 4.616 3.846 8.463 3.847 3.846 8.463 3.846Zm163.923-180-62.924-62.924q-7.923-7.922-8.307-18.576-.385-10.654 7.923-19.055 7.922-7.829 18.576-7.444 10.654.384 18.576 8.307l77.385 77.385q9.846 9.482 9.846 22.125t-9.846 22.489l-77.769 77.769q-8.308 8.308-18.077 7.423-9.769-.884-17.691-8.807-8.308-8.308-8.308-18.192t8.308-18.192L344.232-444ZM516-322.001q-11.069 0-18.534-7.404-7.465-7.405-7.465-18.384 0-10.98 7.465-18.595 7.465-7.615 18.534-7.615h168q11.069 0 18.534 7.404 7.465 7.405 7.465 18.384 0 10.98-7.465 18.595-7.465 7.615-18.534 7.615H516Z"/></svg>