<svg xmlns="http://www.w3.org/2000/svg" height="20" viewBox="0 -960 960 960" width="20"><path d="m206.395-374.155-40.781 106.847q-2.846 7.154-9.546 12.23-6.701 5.077-15.653 5.077-13.975 0-22.464-11.75-8.489-11.75-2.412-25.095L275.54-693.231q3.461-7.384 9.696-12.076 6.234-4.692 14.841-4.692h19.493q8.121 0 14.467 4.692t9.808 12.076l160.399 406.022q4.909 13.44-3.293 25.324-8.203 11.884-22.177 11.884-9.466 0-16.529-4.829-7.063-4.83-10.006-13.282l-39.777-106.043H206.395Zm16.681-47.844H394.77l-83.203-219.002h-4.644l-83.847 219.002Zm468.617-32.253h-82.001q-11.05 0-18.524-7.503-7.475-7.503-7.475-18.492t7.475-18.41q7.474-7.42 18.524-7.42h82.001v-81.689q0-10.984 7.418-18.609 7.418-7.624 18.384-7.624 10.966 0 18.455 7.475 7.49 7.474 7.49 18.524v82.001h82.168q11.086 0 18.585 7.478 7.498 7.479 7.498 18.534 0 11.056-7.498 18.521-7.499 7.465-18.585 7.465H743.44V-372q0 11.05-7.503 18.524-7.503 7.475-18.258 7.475-11.056 0-18.521-7.499-7.465-7.499-7.465-18.584v-82.168Z"/></svg>