<svg xmlns="http://www.w3.org/2000/svg" height="20" viewBox="0 -960 960 960" width="20"><path d="M192.519-739.384q-11.941 0-20.229-8.078-8.289-8.078-8.289-20.019 0-11.941 8.078-20.229 8.078-8.289 20.019-8.289 11.941 0 20.229 8.078 8.289 8.078 8.289 20.019 0 11.941-8.078 20.229-8.078 8.289-20.019 8.289Zm143.846 0q-11.941 0-20.23-8.078-8.288-8.078-8.288-20.019 0-11.941 8.078-20.229 8.078-8.289 20.019-8.289 11.941 0 20.229 8.078 8.288 8.078 8.288 20.019 0 11.941-8.077 20.229-8.078 8.289-20.019 8.289Zm143.846 0q-11.942 0-20.23-8.078t-8.288-20.019q0-11.941 8.078-20.229 8.077-8.289 20.018-8.289 11.942 0 20.23 8.078t8.288 20.019q0 11.941-8.078 20.229-8.077 8.289-20.018 8.289Zm143.845 0q-11.941 0-20.229-8.078-8.288-8.078-8.288-20.019 0-11.941 8.077-20.229 8.078-8.289 20.019-8.289 11.941 0 20.23 8.078 8.288 8.078 8.288 20.019 0 11.941-8.078 20.229-8.078 8.289-20.019 8.289ZM192.519-164.001q-11.941 0-20.229-8.078-8.289-8.078-8.289-20.019 0-11.941 8.078-20.229 8.078-8.289 20.019-8.289 11.941 0 20.229 8.078 8.289 8.078 8.289 20.019 0 11.941-8.078 20.229-8.078 8.289-20.019 8.289Zm143.846 0q-11.941 0-20.23-8.078-8.288-8.078-8.288-20.019 0-11.941 8.078-20.229 8.078-8.289 20.019-8.289 11.941 0 20.229 8.078 8.288 8.078 8.288 20.019 0 11.941-8.077 20.229-8.078 8.289-20.019 8.289Zm143.846 0q-11.942 0-20.23-8.078t-8.288-20.019q0-11.941 8.078-20.229 8.077-8.289 20.018-8.289 11.942 0 20.23 8.078t8.288 20.019q0 11.941-8.078 20.229-8.077 8.289-20.018 8.289Zm143.845 0q-11.941 0-20.229-8.078-8.288-8.078-8.288-20.019 0-11.941 8.077-20.229 8.078-8.289 20.019-8.289 11.941 0 20.23 8.078 8.288 8.078 8.288 20.019 0 11.941-8.078 20.229-8.078 8.289-20.019 8.289Zm119.944-26v-579.998q0-11.05 7.418-18.525 7.418-7.475 18.384-7.475 10.966 0 18.581 7.475 7.616 7.475 7.616 18.525v579.998q0 11.05-7.419 18.525-7.418 7.475-18.384 7.475-10.966 0-18.581-7.475T744-190.001Zm-553.999-264q-11.05 0-18.525-7.418-7.475-7.418-7.475-18.384 0-10.966 7.475-18.581t18.525-7.615h232.002l-48.54-48.925q-8.308-8.307-8-18.768.308-10.462 8.498-18.451 8.425-8.241 18.694-8.049 10.269.193 18.576 8.5l88.626 89.522q9.604 9.709 9.604 22.352t-9.846 22.125l-88.384 89.385q-8.307 8.307-18.576 8.5-10.269.192-18.694-8.049-8.19-7.989-8.498-18.451-.308-10.461 8-18.768l48.54-48.925H190.001Z"/></svg>