<svg xmlns="http://www.w3.org/2000/svg" height="20" viewBox="0 -960 960 960" width="20"><path d="M396.078-413.645q-13.268-2.589-39.326-7.819-26.058-5.229-58.366-17.845-29-10.384-60.923-27.654-31.924-17.269-64.463-41.423-9.154-6.693-10.692-16.742-1.538-10.05 3.385-19.103 5.262-8.983 14.361-10.184 9.099-1.201 17.637 4.107 40.308 29.308 79.924 46.484 39.615 17.176 71.846 26.308 32.231 9.131 52.385 12.324L422-462q18.923.385 27.269 14.193 8.346 13.809 5.731 28.65l-4 27.425q-4 27.425-5.5 70.155-1.5 42.731 3.462 94.962 4.961 52.231 21.884 103.616 2.847 10.538-3.796 17.581-6.643 7.043-16.511 8.418-10.153 1.615-19.807-3.961-9.653-5.577-14.499-22.038-14.847-45.616-19.732-89.693-4.884-44.078-4.615-82.424.269-38.347 3.539-68 3.269-29.654 4.5-43.99-.616-2.308-.577-4.231.038-1.923-3.27-2.308ZM667.46-608.23q15.077 24.692 23.808 52.543 8.731 27.85 8.731 58.687v375.001q0 11.069-7.405 18.534Q685.189-96 674.21-96q-10.98 0-18.595-7.465Q648-110.93 648-121.999V-497q0-45-24-82.5T558-636L324.23-741.846q-10.635-4.986-13.74-16.493-3.106-11.507 2.586-21.66 5.573-8.676 14.748-11.03 9.175-2.355 17.713 1.107l234.385 106q27.693 12.846 50.077 31.923 22.385 19.077 37.461 43.769ZM530.226-196.616q7.697 0 12.62-2.5 4.923-2.5 9.154-7.5 4.231 5 9.461 7.5 5.231 2.5 12.398 2.5 13.306 0 22.262-9.135 8.955-9.136 8.955-22.038 0-13.288-9.003-22.367-9.004-9.08-22.381-9.08h-3.846v-153.38h3.846q13.377 0 22.381-9.135 9.003-9.136 9.003-22.038 0-13.288-8.955-22.442-8.956-9.153-22.262-9.153-7.167 0-12.398 2-5.23 2-9.461 7-4.231-5-9.154-7t-12.62-2q-12.957 0-22.13 8.943-9.172 8.943-9.172 22.23 0 12.903 9.196 22.175t22.188 9.272h3.846v153.38h-3.846q-12.992 0-22.188 8.943-9.196 8.943-9.196 22.23 0 12.903 9.172 22.249 9.173 9.346 22.13 9.346ZM480-96q-22-54-29-111t-6-104q1-47 5.5-77.741l4.5-30.741q2.615-14.595-5.731-28.364T422-462l-22.5-3.5q-22.5-3.5-57.885-14-35.384-10.5-78.846-30.5t-84.615-55q41.153 35 84.615 55 43.462 20 78.846 30.5Q377-469 399.5-465.5L422-462q18.923.385 27.269 14.241T455-419l-4.5 30.5Q446-358 445-311t6 104q7 57 29 111Z"/></svg>