<svg xmlns="http://www.w3.org/2000/svg" height="20" viewBox="0 -960 960 960" width="20"><path d="M648-359.385Zm0 0ZM796.28-90.429 98.646-788.418q-8.26-8.275-7.952-18.044.307-9.769 8.615-18.076 8.307-8.308 17.884-8.308t18.221 8.645l697.634 697.634q8.26 8.26 8.452 18.403.193 10.143-8.115 18.087-7.974 8.307-18.217 8.307-10.244 0-18.888-8.66ZM648-359.385Zm0 0Zm.043 243.384q-82.581 0-139.311-56.682Q452.001-229.364 452.001-312v-96q0-21.577 4.654-42.134t13.731-39.096l119.229 119.229H504V-312q0 60.367 42.201 102.184Q588.402-168 648.1-168q29.85 0 56.097-11T750-209.615l36.768 36.768q-26.678 26.236-62.248 41.541-35.571 15.305-76.477 15.305Zm170.153-132.846q-10.966 0-18.581-7.475Q792-263.796 792-274.846v-95.155H690.845l-68.844-68.844v-110.078q-15.616 2.615-30.039 8.654-14.424 6.038-27.116 16.885-8.154 6.461-18.679 3.359-10.526-3.103-16.474-12.513-6.077-9.153-3.731-19.807 2.346-10.654 11.5-16.73 23.846-18.154 52.593-26.539 28.748-8.385 57.945-8.385 82.636 0 139.317 56.682Q843.999-490.636 843.999-408v133.154q0 11.05-7.419 18.524-7.418 7.475-18.384 7.475ZM673.999-421.999h116.386Q785.693-471.154 754.5-506q-31.193-34.846-80.501-43.923v127.924Zm-263.152-126.77ZM180.309-212.001q-27.008 0-45.658-19-18.65-19-18.65-45.308v-407.382q0-26.308 18.65-45.308t45.658-19h31.308L263.615-696h-83.306q-5.385 0-8.847 3.462-3.462 3.462-3.462 8.847v407.382q0 5.385 3.462 8.847 3.462 3.462 8.847 3.462h166.385q11.05 0 18.524 7.418 7.475 7.418 7.475 18.384 0 10.966-7.475 18.581-7.474 7.616-18.524 7.616H180.309ZM356.847-696q-11.05 0-18.525-7.418-7.474-7.418-7.474-18.384 0-10.966 7.474-18.581 7.475-7.616 18.525-7.616h461.152q11.05 0 18.525 7.419 7.475 7.418 7.475 18.384 0 10.966-7.475 18.581T817.999-696H356.847Zm99.231 91.231Z"/></svg>