<svg xmlns="http://www.w3.org/2000/svg" height="20" viewBox="0 -960 960 960" width="20"><path d="M396.197-196.616q-10.966 0-18.581-7.475-7.615-7.474-7.615-18.524v-224.14q0-12.338 5.093-24.512 5.094-12.173 13.984-21.194L593.001-696h-69.617q-11.049 0-18.524-7.418-7.475-7.418-7.475-18.384 0-10.966 7.492-18.581 7.492-7.616 18.566-7.616h125.846q13.691 0 23.085 9.262 9.394 9.261 9.394 22.951v125.846q0 11.075-7.418 18.7t-18.384 7.625q-10.966 0-18.581-7.475t-7.615-18.525v-69.617L425.461-455.308q-1.923 1.923-2.692 4.039-.77 2.115-.77 4.423v224.711q0 10.27-7.418 17.894-7.418 7.625-18.384 7.625Z"/></svg>