<svg xmlns="http://www.w3.org/2000/svg" height="20" viewBox="0 -960 960 960" width="20"><path d="M419.789-473.616q12.903 0 22.249-8.933 9.346-8.934 9.346-21.539 0-12.604-9.135-22.45-9.136-9.846-22.038-9.846-12.903 0-22.249 9.846-9.346 9.846-9.346 22.45 0 12.605 9.135 21.539 9.136 8.933 22.038 8.933Zm120 0q12.903 0 22.249-8.933 9.346-8.934 9.346-21.539 0-12.604-9.135-22.45-9.136-9.846-22.038-9.846-12.903 0-22.249 9.846-9.346 9.846-9.346 22.45 0 12.605 9.135 21.539 9.136 8.933 22.038 8.933Zm-240 0q12.903 0 22.249-8.933 9.346-8.934 9.346-21.539 0-12.604-9.135-22.45-9.136-9.846-22.038-9.846-12.903 0-22.249 9.846-9.346 9.846-9.346 22.45 0 12.605 9.135 21.539 9.136 8.933 22.038 8.933Zm360 0q12.903 0 22.249-8.933 9.346-8.934 9.346-21.539 0-12.604-9.135-22.45-9.136-9.846-22.038-9.846-12.903 0-22.249 9.846-9.346 9.846-9.346 22.45 0 12.605 9.135 21.539 9.136 8.933 22.038 8.933ZM260-260.001l-26.846 77.076q-1.311 3.494-4.589 5.824-3.279 2.33-7.644 2.33h-3.741q-5.949 0-9.41-3.5-3.461-3.5-3.461-9.5v-72.23h-24q-26.527 0-45.417-18.891-18.891-18.89-18.891-45.417v-359.382q0-26.527 18.891-45.417 18.89-18.891 45.417-18.891h599.382q26.527 0 45.417 18.891 18.891 18.89 18.891 45.417v359.568q0 25.664-18.741 44.42-18.74 18.756-45.567 19.756h-24v73.176q0 4.561-3.528 8.28-3.529 3.72-8.662 3.72h-4.718q-4.043 0-7.413-2.568t-4.909-5.971l-26.076-76.691H260ZM180.309-312h599.382q5.385 0 8.847-3.462 3.462-3.462 3.462-8.847v-359.382q0-5.385-3.462-8.847-3.462-3.462-8.847-3.462H180.309q-5.385 0-8.847 3.462-3.462 3.462-3.462 8.847v359.382q0 5.385 3.462 8.847 3.462 3.462 8.847 3.462ZM480-504Z"/></svg>