<svg xmlns="http://www.w3.org/2000/svg" height="20" viewBox="0 -960 960 960" width="20"><path d="M694.52-308q-10.98 0-18.6-7.41-7.61-7.4-7.61-18.38 0-10.98 7.4-18.59 7.4-7.62 18.38-7.62h12.31q10.98 0 18.6 7.4 7.61 7.41 7.61 18.39t-7.4 18.59Q717.8-308 706.82-308h-12.3Zm-.22-134q-11.06 0-18.53-7.41-7.46-7.4-7.46-18.38 0-10.98 7.46-18.59 7.47-7.62 18.53-7.62h60.31q11.07 0 18.54 7.41 7.46 7.4 7.46 18.38 0 10.98-7.46 18.59-7.47 7.62-18.54 7.62H694.3Zm0-134q-11.06 0-18.53-7.67-7.46-7.66-7.46-18.38 0-10.72 7.65-18.33 7.65-7.62 18.34-7.62h108.31q11.07 0 18.54 7.41 7.46 7.4 7.46 18.38 0 10.98-7.46 18.59-7.47 7.62-18.54 7.62H694.3ZM384.2-312q69.8 0 118.8-49.2t49-119q0-69.8-49.2-118.8t-119-49Q314-648 265-598.8t-49 119q0 69.8 49.2 118.8t119 49Zm-35.58 196q-18.85 0-32.96-11.85-14.12-11.84-18.2-29.69l-24.15-98.77q-4.62-17.46-14.15-33.46-9.54-16-26.17-31.55-32.53-29.68-50.76-70.81Q164-433.26 164-479.95q0-45.82 18.23-87.43 18.23-41.62 51.39-72.33 17-16.52 26.52-32.21 9.52-15.69 14.17-31.77l24.15-98.77q4.08-17.85 18.2-29.69Q330.77-844 349.62-844h68.76q18.85 0 32.96 11.85 14.12 11.84 18.2 29.69l24.15 98.77q4.62 17.46 14.15 32.96 9.54 15.5 26.54 31.05 33.16 29.68 51.39 71.05Q604-527.27 604-480.3q0 46.07-18.23 87.18-18.23 41.12-50.76 71.83-16.63 16.52-26.15 32.55-9.52 16.02-14.17 32.43l-24.15 98.77q-4.08 17.85-18.2 29.69Q438.23-116 419.38-116h-70.76Zm1-676h68.76-68.76Zm0 624h68.76-68.76Zm-25.39-522.46q14.39-4.77 29.38-6.96 14.99-2.19 30.19-2.19 15.2 0 29.89 2.19 14.69 2.19 29.08 6.96L418.38-792h-68.76l-25.39 101.54ZM349.62-168h68.76l26.39-101.54q-14.39 4.77-29.77 6.96-15.39 2.19-31 2.19-16 0-30.69-2.19-14.69-2.19-29.08-6.96L349.62-168Z"/></svg>