<svg xmlns="http://www.w3.org/2000/svg" height="20" viewBox="0 -960 960 960" width="20"><path d="M117.232-505.999q10.154-144.385 115.038-241.192Q337.154-843.999 480-843.999q75.449 0 141.587 28.702 66.138 28.701 115.574 78.136 49.435 49.436 78.136 115.574Q843.999-555.449 843.999-480q0 74.874-28.702 141.299-28.701 66.426-78.136 115.862-49.436 49.435-115.574 78.136Q555.449-116.001 480-116.001q-64.587 0-126.37-22.577-61.784-22.577-112.784-66.347-7.384-8.692-6.307-19.191 1.077-10.5 8.846-18.269 6.692-5.692 15.077-7.115 8.384-1.423 14.999 4.654 43.154 38.307 96.385 57.577Q423.077-168 480-168q130.06 0 221.03-91.037Q792-350.075 792-480.23q0-130.155-90.97-220.962Q610.06-792 480-792q-121.693 0-211.154 82.077-89.462 82.077-99.615 203.924-1.041 11.069-8.56 18.534-7.52 7.465-18.67 7.465-10.98 0-18.49-7.723-7.51-7.723-6.279-18.276ZM480-480Zm126.539-39.386v103.617q0 11.069 7.405 18.534 7.404 7.465 18.384 7.465 10.979 0 18.594-7.465 7.615-7.465 7.615-18.534v-162.615q0-13.761-9.196-22.957-9.196-9.196-22.957-9.196H463.769q-11.069 0-18.534 7.404-7.465 7.405-7.465 18.384 0 10.98 7.465 18.595 7.465 7.615 18.534 7.615h107.848L421.769-408.922l-86.731-86.388q-9.807-10.151-22.269-10.151-12.461 0-22.508 10.048L144.847-350.385q-8.692 8.692-7.807 19.231.884 10.538 9.961 18.845 8.692 7.154 18.769 6.577 10.076-.577 17.615-8.115l127.846-128.231 86.731 86.004q9.807 10.15 22.269 10.342 12.461.193 22.307-9.653l164.001-164.001Z"/></svg>