<svg xmlns="http://www.w3.org/2000/svg" height="20" viewBox="0 -960 960 960" width="20"><path d="M480-240q0-35.275-13.787-67.161-13.786-31.886-38.61-56.744-21.603-21.632-48.218-34.671-26.615-13.038-56.922-16.038-7.374-1-12.726 4.351-5.351 5.352-4.351 12.726 3 30.307 15.846 57.115 12.846 26.807 34.323 48.284 24.676 24.677 57.099 38.407Q445.077-240 480-240Zm-.091-195.077q18.937 0 31.591-12.589 12.654-12.59 12.654-31.565v-12.23l11 6q5.31 2.615 11.386 3.923 6.075 1.307 11.306 1.307 18.555 0 31.239-12.683 12.684-12.684 12.684-31.24 0-11.846-5.423-21.884-5.424-10.038-16.27-17.038l-11-6 11-6q10.846-7 16.27-17.039 5.423-10.038 5.423-21.884 0-18.975-12.974-31.949t-31.949-12.974q-5.231 0-11.346.808-6.116.807-10.346 4.423l-11 7v-13q0-18.976-12.563-31.565-12.563-12.589-31.5-12.589-18.937 0-31.591 12.589t-12.654 31.565v13l-11-7q-4.23-3.616-10.346-4.423-6.115-.808-11.346-.808-18.975 0-31.949 12.974t-12.974 31.949q0 11.846 5.423 21.884 5.424 10.039 16.27 17.039l11 6-11 6q-10.846 7-16.27 17.038-5.423 10.038-5.423 21.884 0 18.976 12.974 31.949 12.974 12.974 31.949 12.974 5.231 0 11.346-.807 6.116-.808 10.346-4.423l11-7v12.23q0 18.975 12.563 31.565 12.563 12.589 31.5 12.589Zm.182-77.537q-23.553 0-40.053-16.693-16.5-16.692-16.5-40.147 0-23.084 16.409-39.584 16.409-16.501 39.962-16.501 23.553 0 40.053 16.436 16.5 16.436 16.5 40.027 0 23.077-16.409 39.769-16.409 16.693-39.962 16.693ZM480-240q35.275 0 67.161-13.787 31.886-13.786 56.744-38.61 21.632-21.603 34.671-48.218 13.038-26.615 16.038-56.922 1-7.374-4.351-12.726-5.352-5.351-12.726-4.351-30.307 3-57.234 16.22-26.927 13.22-48.294 34.53-24.548 24.48-38.278 56.475Q480-275.393 480-240ZM180.309-116.001q-27.008 0-45.658-18.65-18.65-18.65-18.65-45.658v-599.382q0-27.008 18.65-45.658 18.65-18.65 45.658-18.65h599.382q27.008 0 45.658 18.65 18.65 18.65 18.65 45.658v599.382q0 27.008-18.65 45.658-18.65 18.65-45.658 18.65H180.309Zm0-51.999h599.382q4.616 0 8.463-3.846 3.846-3.847 3.846-8.463v-599.382q0-4.616-3.846-8.463-3.847-3.846-8.463-3.846H180.309q-4.616 0-8.463 3.846-3.846 3.847-3.846 8.463v599.382q0 4.616 3.846 8.463 3.847 3.846 8.463 3.846ZM168-168V-792-168Z"/></svg>