<svg xmlns="http://www.w3.org/2000/svg" height="40" viewBox="0 -960 960 960" width="40"><path d="M810-443.957h-48.406q-14.844 0-24.886-10.007-10.041-10.008-10.041-24.957 0-14.95 9.974-24.92 9.974-9.97 24.953-9.97H810v-48.486q0-14.719 10.076-24.783 10.075-10.065 24.969-10.065 14.792 0 24.681 10.065 9.89 10.064 9.89 24.783v48.486h48.406q14.844 0 24.886 10.075 10.041 10.075 10.041 24.969 0 15.029-9.974 24.92-9.973 9.89-24.953 9.89h-48.406v48.646q0 14.742-10.003 24.715-10.003 9.973-24.79 9.973-14.787 0-24.805-9.974Q810-380.571 810-395.551v-48.406ZM435.877-277.051q-29.92 0-51.362-21.297t-21.442-51.268v-254.631q0-29.92 21.442-51.362t51.362-21.442h207.007q15.42 0 25.851 10.488 10.432 10.487 10.432 25.99 0 15.413-10.432 25.87-10.431 10.456-25.851 10.456H435.877v254.631h170.565v-91.232h-39.811q-14.743 0-24.716-10.07-9.973-10.071-9.973-24.957 0-14.786 9.974-24.767t24.954-9.981h76.014q15.42 0 25.851 10.477 10.432 10.477 10.432 25.965v124.565q0 29.971-21.288 51.268t-51.437 21.297H435.877ZM109.616-639.174V-470h87.435v-169.174q0-15.42 10.455-25.851t25.911-10.431q15.455 0 25.827 10.431 10.372 10.431 10.372 25.851v170.769h12q13.29 1.594 22.076 11.37 8.786 9.776 8.786 23.674 0 13.897-8.786 23.517-8.786 9.619-22.076 11.054h-12v84.102q0 15.42-10.456 25.851-10.455 10.431-25.91 10.431-15.456 0-25.828-10.431-10.371-10.431-10.371-25.851v-82.508H73.572q-15.442 0-25.982-10.375-10.54-10.376-10.54-25.907v-205.696q0-15.42 10.456-25.851 10.455-10.431 25.91-10.431 15.456 0 25.828 10.431t10.372 25.851Z"/></svg>