<svg xmlns="http://www.w3.org/2000/svg" height="40" viewBox="0 -960 960 960" width="40"><path d="M443.718-257.921 328.485-143.514q-9.877 10.036-24.985 9.916-15.109-.119-25.652-10.25-10.797-10.543-10.797-25.652 0-15.109 10.797-25.906l165.87-165.869v-82.443h-82.443L197.152-279.754q-9.877 10.037-24.985 10.37-15.109.333-25.986-10.036-10.703-10.544-10.956-25.533-.254-14.989 10.956-26.199l111.74-112.566H112.333q-14.942 0-25.112-10.416Q77.05-464.551 77.05-480q0-14.942 10.416-25.612 10.417-10.67 25.866-10.67h144.588L143.514-630.515q-10.702-10.543-10.583-25.652.12-15.109 10.917-25.906 10.543-10.543 25.652-10.543 15.109 0 25.906 10.543l165.869 165.791h82.443v-83.269L279.754-762.515q-10.037-9.876-10.037-24.985t10.37-25.985q10.543-10.703 25.532-10.703 14.99 0 26.2 10.703l111.899 110.739v-143.921q0-14.942 10.416-25.612 10.417-10.67 25.866-10.67 14.942 0 25.612 10.67 10.67 10.67 10.67 25.612v143.921l114.233-113.406q10.543-10.703 25.652-10.584 15.109.12 25.906 10.663 9.876 10.798 9.876 25.906 0 15.109-10.543 25.652L516.282-599.551v83.269h83.269l163.63-163.791q9.877-9.876 24.986-9.876 15.108 0 25.985 10.21 10.703 10.703 10.703 25.692t-10.703 25.532L702.746-516.282h143.921q14.942 0 25.612 10.67 10.67 10.67 10.67 25.612 0 15.449-10.67 25.866-10.67 10.416-25.612 10.416H702.746l112.74 115.233q10.702 9.877 10.583 24.985-.12 15.109-10.663 24.986-10.29 11.463-25.319 11.463t-25.572-10.797l-164.964-165.87h-83.269v82.443l165.791 167.456q10.543 9.877 10.543 24.986 0 15.108-10.877 25.319-10.036 11.21-25.025 11.289-14.989.08-25.533-10.623L516.282-257.921v145.588q0 14.942-10.67 25.112Q494.942-77.05 480-77.05q-15.449 0-25.866-10.416-10.416-10.417-10.416-25.866v-144.588Z"/></svg>