<svg xmlns="http://www.w3.org/2000/svg" height="40" viewBox="0 -960 960 960" width="40"><path d="M395.739-77.05q-84.275 0-142.279-58.004-58.004-58.004-58.004-142.279 0-52.363 28.628-99.063 28.627-46.7 77.649-72.38 12.717-7.782 26.739-4.141 14.021 3.642 21.804 16.359 7.782 12.717 4.268 26.619-3.515 13.903-16.232 21.685-31.853 15.983-50.619 46.48-18.766 30.497-18.766 64.383 0 54.275 36.324 91.025 36.324 36.75 90.488 36.75 33.819 0 64.243-18.163 30.424-18.163 46.011-50.127 7.783-13.384 22.138-17.192t27.072 4.079q12.717 7.886 16.239 21.764 3.522 13.878-4.261 26.595-25.679 48.354-72.379 76.982-46.701 28.627-99.063 28.627ZM725.594-80q-15.608 0-26.065-10.457-10.456-10.456-10.456-26.065V-286H488.986q-35.06 0-59.486-24.427-24.427-24.427-24.427-59.486v-237.015q0-32.064 22.471-54.401 22.471-22.338 54.347-22.338 22.377 0 38.678 8.823 16.301 8.822 37.683 33.295 38.82 44.005 80.396 72.846 41.577 28.841 89.519 38.065 14.891 2.652 25.076 13.271 10.185 10.618 10.185 25.529 0 14.91-10.899 24.642-10.898 9.732-24.79 7.319-43.789-7.334-87.354-28.593-43.564-21.26-81.842-52.806v164.733h122.53q33.582 0 57.193 23.611 23.611 23.61 23.611 57.193v179.457q0 15.608-10.337 25.945T725.594-80ZM481.891-733q-32.41 0-55.346-23.004t-22.936-55.445q0-32.202 23.077-55.279 23.077-23.077 55.279-23.077t55.285 23.077q23.083 23.077 23.083 55.279 0 32.441-22.982 55.445Q514.368-733 481.891-733Z"/></svg>