<svg xmlns="http://www.w3.org/2000/svg" height="40" viewBox="0 -960 960 960" width="40"><path d="M227.036-264.949q58.841-41.855 120.855-64.703Q409.906-352.5 480.087-352.5q70.18 0 132.708 23.09 62.527 23.09 120.836 64.541 40.442-49.906 58.877-102.744Q810.942-420.45 810.942-480q0-139.764-95.581-235.353t-235.333-95.589q-139.753 0-235.362 95.589Q149.058-619.764 149.058-480q0 59.457 18.652 112.256 18.653 52.799 59.326 102.795Zm252.84-179.884q-59.031 0-99.251-40.316-40.219-40.316-40.219-99.243 0-58.927 40.343-99.239 40.343-40.311 99.375-40.311 59.031 0 99.251 40.435 40.219 40.436 40.219 99.363 0 58.926-40.343 99.118-40.343 40.193-99.375 40.193Zm.336 371.529q-83.9 0-158.078-31.985t-129.517-87.32q-55.339-55.336-87.326-129.372-31.987-74.037-31.987-158.216 0-83.999 32.018-157.941Q137.34-712.08 192.63-767.37q55.29-55.289 129.335-87.387 74.045-32.098 158.232-32.098 83.999 0 157.941 32.098 73.942 32.098 129.232 87.387 55.289 55.29 87.387 129.274 32.098 73.983 32.098 157.884 0 83.9-32.098 158.096T767.37-192.63q-55.29 55.29-129.274 87.308-73.983 32.018-157.884 32.018ZM480-149.058q53.457 0 102.848-15.315t96.392-50.851q-47.32-33.269-96.686-50.464Q533.188-282.884 480-282.884t-102.435 17.196Q328.319-248.493 281-215.224q47 35.536 96.272 50.851Q426.543-149.058 480-149.058Zm0-365.551q30.515 0 50.127-19.521 19.612-19.522 19.612-50.138t-19.612-50.258Q510.515-654.167 480-654.167q-30.515 0-50.127 19.641-19.612 19.642-19.612 50.258 0 30.616 19.612 50.138 19.612 19.521 50.127 19.521Zm0-69.739Zm.239 368.457Z"/></svg>