<svg xmlns="http://www.w3.org/2000/svg" height="40" viewBox="0 -960 960 960" width="40"><path d="M458.261-733.616h-89.333q-14.167 0-23.75-9.617t-9.583-23.833q0-14.217 9.583-23.717 9.583-9.5 23.75-9.5h89.333v-88.667q0-14.166 9.617-23.749 9.617-9.584 23.834-9.584 14.216 0 23.716 9.584 9.5 9.583 9.5 23.749v88.667h88.667q14.166 0 23.749 9.617 9.584 9.617 9.584 23.833 0 14.217-9.584 23.717-9.583 9.5-23.749 9.5h-88.667v88.667q0 14.166-9.617 23.749-9.617 9.584-23.833 9.584-14.217 0-23.717-9.584-9.5-9.583-9.5-23.749v-88.667ZM286.525-77.051q-30.858 0-52.691-21.975Q212-121 212-151.859q0-30.858 21.975-52.691 21.975-21.834 52.833-21.834 30.859 0 52.692 21.975t21.833 52.833q0 30.859-21.975 52.692-21.974 21.833-52.833 21.833Zm402.667 0q-30.858 0-52.692-21.975-21.833-21.974-21.833-52.833 0-30.858 21.975-52.691 21.975-21.834 52.833-21.834 30.859 0 52.692 21.975T764-151.576q0 30.859-21.975 52.692t-52.833 21.833ZM131.5-810.384H88q-15.42 0-25.851-10.456-10.431-10.455-10.431-25.91 0-15.456 10.431-25.828Q72.58-882.949 88-882.949h65.631q11.021 0 20.414 5.608t13.81 15.863l158.29 338.007h284.536l147.037-258.551q4.732-8.558 13.089-13.409 8.358-4.852 18.419-4.852 20.891 0 31.253 17.308 10.362 17.308.485 35.569L702.225-490.928q-11.478 19.892-29.937 31.743-18.458 11.851-40.715 11.851H332.094l-50.166 93.052h448.739q15.42 0 25.851 10.455t10.431 25.91q0 15.456-10.431 25.828t-25.851 10.372h-448q-42.022 0-63.765-34.475-21.742-34.474-2.279-70.068L276.573-496 131.5-810.384Z"/></svg>