<svg xmlns="http://www.w3.org/2000/svg" height="40" viewBox="0 -960 960 960" width="40"><path d="M214.688-94.42q-15.5 0-32.445-9.656-16.946-9.656-24.489-23.33L52.442-311.109q-7.544-13.674-7.663-32.819-.12-19.144 7.663-32.818l265.312-456.088q7.782-13.673 24.608-23.21 16.826-9.536 32.326-9.536h210.624q15.5 0 32.326 9.536 16.826 9.537 24.608 23.21L790.131-578.71q11.355 19.978-.58 39.417-11.935 19.438-35.312 17.438-9.116-1-16.985-5.844-7.87-4.845-12.761-12.881L579.42-789.826H380.739L120.891-344l99.181 173.667h304.066q9.036 0 16.445 3.851 7.41 3.852 13.301 10.888 14.341 19.058 4.112 40.116-10.228 21.058-33.858 21.058h-309.45Zm94.551-185.261q-10.196 0-18.826-4.891-8.63-4.892-13.362-13.689l-8.884-15.514q-4.892-8.703-4.558-18.819.333-10.116 5.224-18.819l161.979-283.196q4.891-8.782 13.681-13.92t19.065-5.138h32.884q10.275 0 19.065 5.138 8.79 5.138 13.681 13.92l74.921 130.399q6.224 10.782 4.485 22.771-1.739 11.99-10.949 21.453-13.275 13.37-30.656 10.957-17.38-2.413-26.684-18.181L480-571.493 354.637-353.521h130.095q17.34 0 27.916 13.007t7.845 30.108q-2.558 13.276-12.649 22-10.09 8.725-23.206 8.725H309.239Zm412.884 37.558H640q-16.167 0-27.022-10.855-10.855-10.855-10.855-27.022 0-16.167 10.855-27.022 10.855-10.855 27.022-10.855h82.123V-400q0-16.167 10.855-27.022 10.855-10.855 27.022-10.855 16.167 0 27.022 10.855 10.855 10.855 10.855 27.022v82.123H880q16.167 0 27.022 10.855 10.855 10.855 10.855 27.022 0 16.167-10.855 27.022-10.855 10.855-27.022 10.855h-82.123V-160q0 16.167-10.855 27.022-10.855 10.855-27.022 10.855-16.167 0-27.022-10.855-10.855-10.855-10.855-27.022v-82.123Z"/></svg>