<svg xmlns="http://www.w3.org/2000/svg" height="40" viewBox="0 -960 960 960" width="40"><path d="M706.66-290.384V-204q0 8.514 6.313 14.398 6.313 5.885 14.731 5.885t14.303-6.285q5.885-6.284 5.885-14.664v-85.718h86.384q8.513 0 14.398-6.313 5.884-6.314 5.884-14.731 0-8.418-5.884-14.303-5.885-5.885-14.398-5.885h-86.384V-418q0-8.513-5.885-14.398t-14.303-5.885q-8.418 0-14.731 5.885-6.313 5.885-6.313 14.398v86.384h-86.385q-8.513 0-14.397 5.885-5.885 5.885-5.885 14.303 0 8.417 6.285 14.731 6.284 6.313 14.664 6.313h85.718ZM725.942-120q-79.333 0-135.5-56.5-56.166-56.5-56.166-134.833 0-79.957 56.16-136.312Q646.596-504 726.276-504q78.999 0 135.499 56.355t56.5 136.312q0 78.333-56.5 134.833T725.942-120ZM153.304-269.058v-376.493q0-17.932 7.948-33.976t22.226-26.611L434.42-894.464q10.472-7.543 21.993-11.275 11.52-3.732 23.731-3.732 12.211 0 23.628 3.732 11.418 3.732 21.808 11.275l253.848 191.073q6.464 5.13 9.362 12.486 2.899 7.356 2.899 15.383 0 15.955-10.772 26.814-10.771 10.86-26.694 10.86-6.556 0-12.531-1.826-5.976-1.826-10.75-5.877L480-833.718l-250.942 188.22v376.44h202.508q16.084 0 26.861 10.972 10.777 10.972 10.777 27.022 0 16.05-10.777 26.905t-26.861 10.855H229.058q-31.494 0-53.624-22.13-22.13-22.13-22.13-53.624ZM480-551.761Z"/></svg>