<svg xmlns="http://www.w3.org/2000/svg" height="40" viewBox="0 -960 960 960" width="40"><path d="M480-656.283q-73.355 0-124.819 51.464T303.717-480q0 53.479 29.087 97.424 29.087 43.946 78.58 64.171 14.797 6.637 21.75 20.692 6.953 14.054 1.156 28.851-5.13 13.275-17.445 19.942-12.316 6.667-25.591 1.536-72.783-26.927-116.562-90.974Q230.913-402.406 230.913-480q0-103.906 72.591-176.576 72.59-72.671 176.496-72.671 78.645 0 142.725 44.537 64.08 44.536 90.594 118.703 4.558 12.877-1.967 24.913-6.526 12.036-19.642 16.594-15.115 5.558-29.057-1.721-13.942-7.279-20.819-22.315-20.145-49.334-64.25-78.54-44.105-29.207-97.584-29.207Zm0-163.188q-141.725 0-240.598 98.873Q140.528-621.725 140.528-480q0 137.913 91.743 233.04 91.743 95.127 227.91 104.859 15.689 1.573 26.319 12.822 10.631 11.25 10.058 26.939-.413 14.942-11.043 24.62-10.631 9.677-25.334 9.104-82.311-3.558-153.685-37.261-71.373-33.702-124.482-89.344-53.108-55.641-83.66-129.014Q67.805-397.609 67.805-480q0-85.471 32.417-160.703t88.13-130.946q55.714-55.713 130.946-88.13Q394.529-892.196 480-892.196q165.783 0 284.526 113.537 118.742 113.536 126.858 278.92.826 14.609-9.098 24.573-9.923 9.963-24.626 11.202-15.689 1.08-27.105-9.503-11.417-10.583-12.83-26.272-12.384-136.363-105.174-228.047-92.79-91.685-232.551-91.685ZM783.355-95.457 651.594-226.456l-31.181 94.384q-4.891 13.594-18.645 13.134-13.753-.46-17.898-14.134l-93.595-312.943q-3.065-11.021 4.812-18.898 7.877-7.877 18.898-4.971l313.102 93.754q13.515 4.145 13.975 17.898.46 13.754-12.975 18.645l-94.543 31.181 132 131.761q17.558 17.558 17.558 40.594 0 23.037-17.558 40.594-17.558 17.558-41.095 17.558-23.536 0-41.094-17.558Z"/></svg>