<svg xmlns="http://www.w3.org/2000/svg" height="40" viewBox="0 -960 960 960" width="40"><path d="M766.5-289.819q-15.406-5.398-22.388-19.079-6.982-13.681-1.742-27.5 10.456-23.087 15.558-48.714 5.101-25.627 5.101-54.221 1.174-120.964-84.902-205.953-86.076-84.99-209.374-84.99-27.05 0-51.837 4.975-24.786 4.975-47.576 14.431-13.326 4.841-26.341-2.148-13.014-6.989-18.094-21.41-5.239-15.246 2.051-30.014 7.29-14.768 23.377-20.007 27.913-11.044 57.272-16.392 29.358-5.347 61.148-5.347 76.45 0 143.852 28.471t117.819 77.887q50.416 49.417 79.721 116.446 29.304 67.029 28.638 144.051-.667 32.058-6.395 62.703-5.729 30.645-16.439 59.717-5.239 16.435-20.054 24.384-14.815 7.95-29.395 2.71Zm-56.739-512.537q-10.225-10.224-9.891-24.782.333-14.558 11.891-24.942 10.384-9.399 24.275-9.105 13.891.293 23.449 10.011l122.522 119.188q10.892 10.225 10.892 25.076 0 14.852-10.892 25.743-10.891 10.891-25.862 10.891-14.971 0-25.862-10.891L709.761-802.356ZM472.753-73.304q-75.514 0-141.876-28.638-66.363-28.638-115.653-78.301-49.289-49.663-77.974-116.645-28.685-66.982-28.685-143.67 0-63.732 20.047-119.939 20.047-56.206 60.49-107.525l-44.965-45.124-29.978 29.74q-10.225 10.224-24.957 9.851-14.731-.373-24.956-10.598-10.384-10.384-10.384-25.489t10.384-25.489l29.073-29.073-41.863-41.702q-10.463-10.464-10.463-24.928 0-14.463 10.463-24.927 10.464-10.464 25.38-10.464 14.917 0 25.381 10.464L855.37-101.275q10.464 10.464 10.344 25.007-.12 14.543-10.424 24.848-10.464 10.463-25.34 10.463-14.877 0-25.181-10.463L702.297-152.826q-45.159 37.427-105.018 58.475-59.859 21.047-124.526 21.047Zm0-76.993q46.834-.666 91.399-15.75 44.566-15.083 82.356-43.634L241.609-613.993q-29.059 38.203-44.095 82.522-15.036 44.319-15.036 92.138 0 120.963 84.029 205.667 84.029 84.703 206.246 83.369Zm-28.441-261.754Zm99.499-99.34Z"/></svg>