<svg xmlns="http://www.w3.org/2000/svg" height="40" viewBox="0 -960 960 960" width="40"><path d="M320-242.123q-16 0-26.938-10.939Q282.123-264 282.123-280v-400q0-16 10.939-26.938Q304-717.877 320-717.877h40q16 0 26.938 10.939Q397.877-696 397.877-680v400q0 16-10.939 26.938Q376-242.123 360-242.123h-40Zm280 0q-16 0-26.938-10.939Q562.123-264 562.123-280v-400q0-16 10.939-26.938Q584-717.877 600-717.877h40q16 0 26.938 10.939Q677.877-696 677.877-680v400q0 16-10.939 26.938Q656-242.123 640-242.123h-40ZM111.181-73.304q-16 0-26.938-10.972-10.939-10.972-10.939-27.022 0-16.05 10.939-26.905 10.938-10.855 26.938-10.855h737.638q16 0 27.018 10.972t11.018 27.022q0 16.05-11.018 26.905t-27.018 10.855H111.181Zm0-737.638q-16 0-26.938-10.972-10.939-10.972-10.939-27.022 0-16.05 10.939-26.984 10.938-10.935 26.938-10.935h737.638q16 0 27.018 11.052 11.018 11.051 11.018 27.101 0 16.05-11.018 26.905t-27.018 10.855H111.181Z"/></svg>