<svg xmlns="http://www.w3.org/2000/svg" height="40" viewBox="0 -960 960 960" width="40"><path d="M338.327-73.304q-24.148 0-40.973-16.88-16.825-16.882-16.825-40.997v-528.551q0-24.115 16.904-40.996 16.903-16.881 41.051-16.881 24.148 0 40.973 16.881t16.825 40.996v528.551q0 24.115-16.903 40.996-16.904 16.88-41.052 16.88Zm283.189-240q-24.148 0-40.973-16.881t-16.825-40.996v-288.551q0-24.115 16.903-40.996 16.904-16.881 41.052-16.881t40.973 16.881q16.825 16.881 16.825 40.996v288.551q0 24.115-16.904 40.996-16.903 16.881-41.051 16.881ZM111.181-810.942q-16 0-26.938-10.972-10.939-10.972-10.939-27.008t10.939-26.984q10.938-10.949 26.938-10.949h737.638q15.98 0 27.008 11.066 11.028 11.065 11.028 27.101t-11.028 26.891q-11.028 10.855-27.008 10.855H111.181Z"/></svg>