<svg xmlns="http://www.w3.org/2000/svg" height="40" viewBox="0 -960 960 960" width="40"><path d="M338.327-113.304q-24.148 0-40.973-16.881t-16.825-40.996v-270.942H111.181q-16 0-26.938-10.972-10.939-10.972-10.939-27.022 0-16.05 10.939-26.905 10.938-10.855 26.938-10.855h169.348v-270.942q0-24.182 16.904-41.109 16.903-16.927 41.051-16.927 24.148 0 40.973 16.927t16.825 41.109v270.942h167.436v-150.942q0-24.182 16.903-41.109 16.904-16.927 41.052-16.927t40.973 16.927q16.825 16.927 16.825 41.109v150.942h169.348q15.98 0 27.008 10.972 11.028 10.972 11.028 27.022 0 16.05-11.028 26.905t-27.008 10.855H679.471v150.942q0 24.115-16.904 40.996-16.903 16.881-41.051 16.881-24.148 0-40.973-16.881t-16.825-40.996v-150.942H396.282v270.942q0 24.115-16.903 40.996-16.904 16.881-41.052 16.881Z"/></svg>