<svg xmlns="http://www.w3.org/2000/svg" height="40" viewBox="0 -960 960 960" width="40"><path d="M488.622-73.304q-16.209 0-27.064-10.939-10.855-10.938-10.855-26.938v-310.942H149.058q-16 0-26.939-10.939Q111.181-444 111.181-460v-40q0-16 10.938-26.938 10.939-10.939 26.939-10.939h301.645v-310.942q0-16 10.972-27.018t27.181-11.018q16.05 0 26.905 11.018t10.855 27.018v310.942h284.326q16 0 26.939 10.939Q848.819-516 848.819-500v40q0 16-10.938 26.938-10.939 10.939-26.939 10.939H526.616v310.942q0 16-10.972 26.938-10.972 10.939-27.022 10.939Z"/></svg>