<svg xmlns="http://www.w3.org/2000/svg" height="40" viewBox="0 -960 960 960" width="40"><path d="M479.761-73.304q-84.271 0-158.389-31.939-74.118-31.938-129.155-86.974-55.036-55.037-86.974-129.23-31.939-74.194-31.939-158.551 0-84.357 31.939-158.553 31.938-74.195 86.949-129.24 55.011-55.045 129.217-87.054 74.205-32.01 158.576-32.01 84.37 0 158.585 31.997 74.214 31.998 129.247 87.021 55.033 55.024 87.035 129.163 32.003 74.139 32.003 158.435v54.587q0 58.51-41.365 98.889T744.5-286.384q-36.498 0-68.666-16.906-32.167-16.906-50.501-48.21-26.362 33.13-64.705 49.123-38.343 15.993-80.579 15.993-80.807 0-137.569-56.292-56.762-56.292-56.762-137.408 0-81.116 56.723-137.991 56.724-56.874 137.521-56.874 80.796 0 137.558 56.877Q674.282-561.194 674.282-480v52.823q0 28.611 20.518 48.42 20.518 19.808 49.6 19.808 29.013 0 49.252-19.808 20.24-19.809 20.24-48.42v-53.062q0-139.517-97.188-236.585Q619.517-813.892 480-813.892t-236.704 97.188Q146.108-619.517 146.108-480t97.068 236.704q97.068 97.188 236.585 97.188h173.29q15.532 0 25.907 10.487 10.376 10.487 10.376 25.99 0 15.414-10.376 25.87-10.375 10.457-25.907 10.457h-173.29Zm.32-285.645q50.644 0 86.14-35.372t35.496-85.721q0-51.349-35.577-86.846-35.578-35.496-86.221-35.496-50.644 0-86.14 35.538-35.496 35.539-35.496 86.888 0 50.349 35.577 85.679 35.578 35.33 86.221 35.33Z"/></svg>