<svg xmlns="http://www.w3.org/2000/svg" height="40" viewBox="0 -960 960 960" width="40"><path d="M313.333-333.334h333.334q14.333 0 23.833-9.5 9.5-9.5 9.5-23.833 0-14.333-9.5-23.833-9.5-9.5-23.833-9.5H313.333Q299-400 289.5-390.5q-9.5 9.5-9.5 23.833 0 14.333 9.5 23.833 9.5 9.5 23.833 9.5ZM383-540q20-19 45-29.5t52-10.5q40 0 73 22t50 58q5 11 16.5 15t22.5-1q12-5 17-16t-1-22q-26-52-73.5-84T480-640q-39 0-75.5 15T340-582v-28q0-13-8.5-21.5T310-640q-13 0-21.5 8.5t-8.5 21.573v101.166q0 11.819 8.471 20.29 8.471 8.471 20.29 8.471H410q13 0 21.5-8.5T440-510q0-13-8.5-21.5T410-540h-27Zm97.022 466.696q-83.95 0-158.142-31.959-74.193-31.958-129.426-87.191-55.233-55.233-87.191-129.404-31.959-74.171-31.959-158.12 0-84.616 31.959-158.809 31.958-74.193 87.166-129.101t129.39-86.937q74.183-32.03 158.146-32.03 84.629 0 158.841 32.017 74.211 32.018 129.107 86.905 54.897 54.886 86.919 129.086Q886.855-564.648 886.855-480q0 83.972-32.03 158.162-32.029 74.19-86.937 129.403-54.908 55.214-129.079 87.172-74.171 31.959-158.787 31.959ZM480-149.058q138.377 0 234.66-96.516Q810.942-342.089 810.942-480q0-138.377-96.282-234.66-96.283-96.282-234.74-96.282-137.79 0-234.326 96.282-96.536 96.283-96.536 234.74 0 137.79 96.516 234.326Q342.089-149.058 480-149.058ZM480-480Z"/></svg>