<svg xmlns="http://www.w3.org/2000/svg" height="40" viewBox="0 -960 960 960" width="40"><path d="M343.333-502.123q-11.5 0-19.688-8.189-8.189-8.188-8.189-19.688 0-11.5 8.189-19.688 8.188-8.189 19.688-8.189h273.334q11.5 0 19.688 8.189 8.189 8.188 8.189 19.688 0 11.5-8.189 19.688-8.188 8.189-19.688 8.189H343.333Zm40 120q-11.5 0-19.688-8.189-8.189-8.188-8.189-19.688 0-11.5 8.189-19.688 8.188-8.189 19.688-8.189h193.334q11.5 0 19.688 8.189 8.189 8.188 8.189 19.688 0 11.5-8.189 19.688-8.188 8.189-19.688 8.189H383.333ZM109.616-153.304q-31.249 0-53.501-22.253-22.253-22.252-22.253-53.501v-501.884q0-31.314 22.253-53.614 22.252-22.299 53.501-22.299h740.768q31.249 0 53.501 22.299 22.253 22.3 22.253 53.614v501.884q0 31.249-22.253 53.501-22.252 22.253-53.501 22.253H109.616Zm33.333-577.638h-33.333v501.884h33.333v-501.884Zm66.666 501.884h540.77v-501.884h-540.77v501.884Zm607.436-501.884v501.884h33.333v-501.884h-33.333Zm0 0h33.333-33.333Zm-674.102 0h-33.333 33.333Z"/></svg>