<svg xmlns="http://www.w3.org/2000/svg" height="40" viewBox="0 -960 960 960" width="40"><path d="M282.391-202.391h395.218q-4-48.442-29.596-88.914t-67.129-64.273l37.546-67.212q1.981-3.954.859-8.723-1.122-4.77-5.99-6.849-3.893-2.08-8.274-1.12-4.38.96-6.357 4.749l-38.704 69.255q-19.522-7.841-39.341-12.301-19.819-4.46-40.629-4.46t-40.623 4.46q-19.813 4.46-39.335 12.301l-38.681-69.203q-2-4.602-6.5-4.801-4.5-.199-9.261 1.82-.239.239-4 14.901l37.681 67.203q-41.658 23.81-67.298 64.296-25.641 40.485-29.586 88.871Zm108.645-59.203q-8.159 0-13.92-5.952-5.761-5.953-5.761-13.889 0-7.936 5.761-13.888t13.92-5.952q8 0 13.881 5.952 5.88 5.952 5.88 13.888t-5.928 13.889q-5.928 5.952-13.833 5.952Zm177.928 0q-8 0-13.881-5.952-5.88-5.953-5.88-13.889 0-7.936 5.928-13.888t13.833-5.952q8.159 0 13.92 5.952 5.761 5.952 5.761 13.888t-5.761 13.889q-5.761 5.952-13.92 5.952ZM229.058-73.304q-30.994 0-53.374-22.38-22.38-22.38-22.38-53.374v-661.884q0-31.06 22.38-53.486 22.38-22.427 53.374-22.427h316.24q15.5 0 29.547 6.09 14.047 6.091 24.402 16.446l185.072 185.072q10.355 10.355 16.446 24.402 6.09 14.047 6.09 29.547v476.24q0 30.994-22.427 53.374-22.426 22.38-53.486 22.38H229.058Zm309.218-584.849v-152.789H229.058v661.884h501.884v-471.218H576.153q-16 0-26.939-10.938-10.938-10.939-10.938-26.939ZM229.058-810.942V-620.276v-190.666 661.884-661.884Z"/></svg>