<svg xmlns="http://www.w3.org/2000/svg" height="40" viewBox="0 -960 960 960" width="40"><path d="M721.594-320q-66 0-113-47t-47-113q0-66 47-113t113-47q66 0 113 47t47 113q0 66-47 113t-113 47Zm0-53.333q14.515 0 28.424-3.667 13.91-3.667 25.576-11.667L630.261-534q-7.334 12.333-11.334 25.805-4 13.471-4 27.528 0 44.667 30.934 76 30.933 31.334 75.733 31.334Zm92-52.667q7.334-12.333 11-26.024 3.667-13.69 3.667-27.976 0-44.8-30.933-75.734-30.934-30.933-75.734-30.933-14.514 0-28.424 3.667-13.909 3.667-25.576 11l146 146ZM269.616-33.862q-31.249 0-53.501-22.253-22.253-22.252-22.253-53.501v-740.768q0-31.249 22.253-53.501 22.252-22.253 53.501-22.253h420.768q31.249 0 53.501 22.253 22.253 22.252 22.253 53.501v117.333q0 16-10.972 26.938-10.972 10.939-27.022 10.939-16.05 0-26.905-10.939-10.855-10.938-10.855-26.938v-17.334H269.616v540.77h420.768v-17.334q0-15.98 10.972-27.008 10.972-11.028 27.022-11.028 16.05 0 26.905 11.028t10.855 27.008v117.333q0 31.249-22.253 53.501-22.252 22.253-53.501 22.253H269.616Zm0-109.087v33.333h420.768v-33.333H269.616Zm0-674.102h420.768v-33.333H269.616v33.333Zm0 0v-33.333 33.333Zm0 674.102v33.333-33.333Z"/></svg>