<svg xmlns="http://www.w3.org/2000/svg" height="40" viewBox="0 -960 960 960" width="40"><path d="m532.421-146.572 32.761-314.167q-45.254-11.537-81.504-33.732-36.25-22.196-67.011-53.355L408-556.493l-100.667 99.826 77.747 79.5q5.652 5.892 8.224 12.363 2.573 6.471 2.573 13.775v197.696q0 15.369-10.297 25.666t-25.508 10.297q-15.369 0-25.666-10.297t-10.297-25.666v-180.899l-58.131-52.914 7.456 74.893q.761 7.065-1.264 13.876-2.026 6.812-6.678 12.464L157.166-147.5q-9.304 11.638-23.84 13.757-14.536 2.12-26.333-7.438-11.797-9.558-13.584-24.42-1.786-14.863 7.772-26.66l98.435-126.377-44.92-128.246q-7.87-22.914-6.192-45.145 1.677-22.232 15.329-35.804l134-132q11.812-11.493 25.163-17.145 13.352-5.652 28.004-5.652 17.971 0 32.156 7.065 14.184 7.065 22.011 14.732l67.927 67.086q32.275 31.37 73.286 50.856 41.011 19.485 87.584 20.818h78.79q19.101 0 32.71 12.99 13.608 12.989 15.688 32.249l28.667 275.653q14.811 6.239 24.424 20.297 9.612 14.058 9.612 31.536 0 23.29-16.391 39.268-16.391 15.979-39.522 15.979-23.29 0-39.847-15.979-16.558-15.978-16.558-39.268 0-15.666 7.094-27.952 7.094-12.287 19.442-19.939l-6.573-67.515h-135l-12.094 123.327q-1.333 9.797-8.804 16.568-7.471 6.772-17.269 6.772-11.463 0-19.354-8.551-7.892-8.55-6.558-19.934Zm-24.16-526.762q-31.13 0-53.188-22.137-22.058-22.138-22.058-53.268 0-31.21 22.058-53.229 22.058-22.018 53.188-22.018 31.37 0 53.388 22.018 22.018 22.019 22.018 53.229 0 31.13-22.018 53.268-22.018 22.137-53.388 22.137Zm93.225 357.928h125.029l-15.681-156.015H617.5l-16.014 156.015Z"/></svg>