<svg xmlns="http://www.w3.org/2000/svg" height="40" viewBox="0 -960 960 960" width="40"><path d="m727.841-738.925-66.492-29.474q-11.355-4.925-11.355-17.463 0-12.537 11.355-17.428l66.492-30.226 29.399-65.666q4.924-11.355 17.462-11.355t17.429 11.355l30.25 65.717 65.88 30.175q11.355 4.922 11.236 17.5-.12 12.579-11.475 17.47l-65.702 29.334-29.95 66.478q-4.948 11.355-17.594 11.474-12.645.12-17.536-11.235l-29.399-66.656Zm0 611.535-66.492-29.559q-11.355-4.899-11.355-17.369 0-12.471 11.355-17.522l66.492-30.14 29.399-65.99q4.948-11.355 17.593-11.236 12.646.12 17.537 11.475l29.95 65.811 65.702 30q11.355 4.923 11.475 17.501.119 12.579-11.236 17.47l-65.88 29.509-30.25 66.382q-4.925 11.515-17.462 11.515-12.538 0-17.429-11.515l-29.399-66.332ZM294.224-417.058h126.79l22.703 62.933q2.667 7.748 8.577 12.128 5.911 4.381 13.468 4.381 12.81 0 19.977-10.302 7.166-10.302 3.166-22.046L388.262-653.575q-2.639-6.744-8.859-11.037-6.219-4.293-13.415-4.293H349.33q-7.33 0-13.66 4.266t-8.822 11.161L226.551-369.964q-4.159 11.667 3 22.007 7.159 10.341 20.146 10.341 7.615 0 13.517-4.436 5.902-4.435 8.532-12.151l22.478-62.855ZM307.42-454.5l50.189-159.631L407.957-454.5H307.42Zm50.161 225.442q104.992 0 177.861-72.961 72.87-72.961 72.87-177.953t-72.891-177.981q-72.892-72.989-177.784-72.989-104.992 0-177.982 72.961-72.989 72.961-72.989 177.953t72.961 177.981q72.961 72.989 177.954 72.989Zm.064 72.565q-135.391 0-229.587-94.086-94.196-94.087-94.196-229.432 0-135.344 94.206-229.5 94.207-94.156 229.551-94.156 135.345 0 229.501 94.12 94.155 94.119 94.155 229.51 0 135.392-94.119 229.468t-229.511 94.076ZM357.609-480Z"/></svg>