<svg xmlns="http://www.w3.org/2000/svg" height="40" viewBox="0 -960 960 960" width="40"><path d="M225.92-138.717q-52.964 0-90.721-37.757-37.757-37.758-37.757-90.721 0-52.964 37.757-90.841 37.757-37.877 90.721-37.877 52.964 0 90.841 37.877 37.876 37.877 37.876 90.841 0 52.963-37.876 90.721-37.877 37.757-90.841 37.757Zm508.16 0q-52.964 0-90.841-37.757-37.876-37.758-37.876-90.721 0-52.964 37.876-90.841 37.877-37.877 90.841-37.877 53.631 0 91.054 37.877 37.424 37.877 37.424 90.841 0 52.963-37.424 90.721-37.423 37.757-91.054 37.757ZM480-564.247q-52.964 0-90.841-37.903-37.876-37.903-37.876-90.655 0-52.963 37.876-90.721 37.877-37.757 90.841-37.757 52.964 0 90.841 37.757 37.876 37.758 37.876 90.642 0 52.884-37.876 90.761-37.877 37.876-90.841 37.876Z"/></svg>