<svg xmlns="http://www.w3.org/2000/svg" height="40" viewBox="0 -960 960 960" width="40"><path d="M481.478-117.051q-15.05 0-24.989-9.818-9.938-9.819-9.938-24.87v-50.536q-47.877-8.906-82.076-35.011-34.2-26.105-54.105-68.011-6.145-13.116.112-27.478 6.257-14.362 21.199-20.428 12.877-5.492 26.46.366 13.584 5.859 21.526 19.468 17.427 31.55 44.869 47.293 27.442 15.743 63.609 15.743 44.949 0 73.881-21.25 28.931-21.25 28.931-60.417 0-39.645-25.827-62.359-25.826-22.714-102.84-47.489-76.029-23.855-110.681-62.605T316.957-620q0-57.536 37.068-95.159 37.069-37.624 92.526-43.899v-49.203q0-15.051 9.938-24.87 9.939-9.818 24.989-9.818 15.131 0 24.91 9.818 9.779 9.819 9.779 24.87v49.203q36.507 5.891 65.278 23.391 28.772 17.5 47.758 44.978 8.304 12.037 3.246 26.272-5.058 14.236-20.079 20.46-12.479 5.573-26.276.953-13.797-4.619-25.376-17.417-13.348-15.71-32.45-23.558-19.101-7.847-45.826-7.847-43.978 0-68.33 19.304-24.351 19.304-24.351 51.297 0 34.819 28.445 56.261 28.446 21.442 108.069 45.428 68.971 21.145 103.229 62.496 34.257 41.352 34.257 101.707 0 66.463-39.065 105.101-39.066 38.638-108.529 49.29v49.203q0 15.051-9.899 24.87-9.898 9.818-24.79 9.818Z"/></svg>