<svg xmlns="http://www.w3.org/2000/svg" height="40" viewBox="0 -960 960 960" width="40"><path d="M393.181-112.507q-65.758 0-111.817-46.06-46.06-46.059-46.06-111.817 0-65.757 46.06-111.817 46.059-46.059 111.817-46.059 24.955 0 45.271 6.529 20.316 6.529 36.852 18.413v-406.298q0-16.147 10.855-27.092 10.855-10.944 27.022-10.944h173.877q16.167 0 27.022 10.944 10.855 10.945 10.855 27.092v76.666q0 16.167-10.855 27.022-10.855 10.855-27.022 10.855h-136v424.689q0 65.758-46.06 111.817-46.059 46.06-111.817 46.06Z"/></svg>