<svg xmlns="http://www.w3.org/2000/svg" viewBox="0 -960 960 960" width="32" height="32"><path d="M479.76-33.86q-112 0-212.67-60.25-100.66-60.25-161.46-144.22v84.47H33.07v-209.09h209.08v72.57h-84.08q49.84 74.05 138.32 128.88 88.49 54.83 183.37 54.83 76.44 0 144.37-29.18t118.59-79.36q50.66-50.18 80.48-118.11 29.81-67.93 30.13-145.09h72.81q-.32 92.36-35.62 173.28-35.3 80.91-96.21 141.43-60.92 60.52-141.88 95.18-80.95 34.66-172.67 34.66ZM284.91-798.15l-38.49-62.17q51.56-32.04 110.05-48.93 58.49-16.89 123.53-16.89 112 0 212.91 60.41 100.9 60.41 161.22 144.06v-84.47h72.8v209.09H717.85v-72.57h84.24q-50.72-74.77-139.27-129.24-88.54-54.47-182.82-54.47-53.86 0-102.81 14.55t-92.28 40.63ZM160.24-485.51l-47.41-107.32L2.85-642l109.98-48.5 47.41-103.99 47.17 103.99L317.39-642l-109.98 49.17-47.17 107.32ZM310.26-313.3 451.5-692.48h56.33L650.22-313.3h-59.93l-35.5-100.27H408.65l-35.5 100.27h-62.89Zm113.41-150.66h112.82l-53.82-154.85h-6l-53 154.85Z"/></svg>