<svg xmlns="http://www.w3.org/2000/svg" height="40" viewBox="0 -960 960 960" width="40"><path d="m802.377-227.13-55.616-55.616q21.623-18.942 39.178-41.493 17.554-22.551 32.293-48.109-68.109-6.283-131.526-30.794-63.416-24.512-113.541-69.867L470.929-575.404q-45.577-49.196-69.604-112.044-24.028-62.849-30.216-130.212-24.475 13.992-47.115 31.801-22.639 17.808-41.581 38.765l-55.044-55.283q34.28-37.329 75.937-64.632 41.658-27.303 85.832-42.919 22.014-8.311 41.181 4.403 19.167 12.714 19.203 35.952-3.594 84.674 25.956 163.177 29.551 78.502 90.34 139.213 60.298 60.64 138.918 90.216Q783.355-447.391 868.442-450q23.428-.391 36.533 18.438 13.105 18.83 4.75 40.714-15.413 45.819-42.75 87.692-27.337 41.874-64.598 76.026ZM773.711-58.826l-90.747-89.319q-37.145 15.906-76.82 24.018-39.675 8.113-82.144 8.113-84.829 0-159.054-32.31-74.225-32.31-129.263-87.337-55.037-55.027-87.353-129.238-32.316-74.211-32.316-159.024 0-42.593 8.113-82.205 8.112-39.612 24.018-76.597L59.92-770.95q-10.478-10.586-10.478-25.344 0-14.757 10.564-25.235 10.497-10.479 25.369-10.479t25.284 10.479l711.87 713.87q10.225 10.225 10.272 24.322.047 14.098-10.265 24.41-10.231 10.231-24.369 10.025-14.137-.207-24.456-9.924ZM524-191.927q25.391 0 49.912-4.261t48.067-12.703L415.057-416.052 208.891-621.979q-8.442 23.392-12.703 48.099-4.261 24.707-4.261 49.88 0 138.563 96.755 235.318Q385.437-191.927 524-191.927ZM415.094-416.015Zm99.239-99.318Z"/></svg>