<svg xmlns="http://www.w3.org/2000/svg" height="40" viewBox="0 -960 960 960" width="40"><path d="M479.984-73.304q-139.86 0-233.27-95.919T153.304-408q0-60.623 26.714-121.604t68.638-118.779q41.924-57.798 93.079-110.603 51.156-52.804 100.388-96.797 8.45-7.464 18.13-10.695 9.68-3.232 19.821-3.232 10.142 0 19.747 3.232 9.606 3.231 18.056 10.695 49.232 43.993 100.464 96.931 51.233 52.939 93.08 110.631t68.641 118.645Q806.855-468.623 806.855-408q0 142.858-93.506 238.777-93.506 95.919-233.365 95.919Zm.016-75.754q108.297 0 179.62-73.82 71.322-73.82 71.322-185.337 0-75.43-63.782-171.941Q603.377-676.667 480-787.827q-123.377 111.16-187.16 207.671-63.782 96.511-63.782 171.941 0 111.517 71.322 185.337 71.323 73.82 179.62 73.82Zm0-331.978Zm-86.667 226.427h173.334q14.166 0 23.75-9.617Q600-273.843 600-287.98q0-14.136-9.583-23.716-9.584-9.579-23.75-9.579H393.333q-14.166 0-23.75 9.696Q360-301.882 360-287.746q0 14.137 9.583 23.637 9.584 9.5 23.75 9.5Zm53.334-193.333v53.333q0 14.167 9.617 23.75 9.617 9.584 23.833 9.584 14.216 0 23.716-9.584 9.5-9.583 9.5-23.75v-53.333h53.334q14.166 0 23.75-9.617Q600-467.176 600-481.313q0-14.136-9.583-23.716-9.584-9.58-23.75-9.58h-53.334v-53.333q0-14.007-9.617-23.67-9.617-9.663-23.833-9.663-14.216 0-23.716 9.663-9.5 9.663-9.5 23.67v53.333h-53.334q-14.166 0-23.75 9.697Q360-495.215 360-481.079q0 14.137 9.583 23.637 9.584 9.5 23.75 9.5h53.334Z"/></svg>