<svg xmlns="http://www.w3.org/2000/svg" height="40" viewBox="0 -960 960 960" width="40"><path d="M445.073-396.493 280.369-231.631q-10.224 10.225-24.289 10.225-14.065 0-24.449-10.225-10.225-10.384-10.225-24.489t10.225-24.489l172.666-172.666L79.811-778q-9.826-9.667-9.865-23.214-.04-13.547 9.865-23.453 9.667-9.666 23.254-9.666 13.587 0 23.413 9.666l700.58 700.82q9.667 9.666 9.786 23.293.12 13.627-9.786 23.373-9.666 9.667-23.333 9.667-13.667 0-23.333-9.667L625.275-232.297 509.71-116.892q-5.971 6.131-13.007 8.743-7.036 2.613-13.754 2.613-14.26 0-26.068-10.243-11.808-10.243-11.808-27.728v-252.986Zm69.854 174.827 59.37-59.37-59.37-59.37v118.74Zm31.681-275.964-48.978-49.645L603.181-652l-88.254-86.493v208.276l-69.854-69.615v-216.661q0-17.485 11.808-27.808 11.808-10.322 26.068-10.322 6.718 0 13.754 2.692t13.007 8.823l164.507 164.347q5.732 5.891 8.497 12.594 2.764 6.703 2.764 14.167 0 7.464-2.764 14.167-2.765 6.703-8.497 12.594L546.608-497.63Z"/></svg>