<svg xmlns="http://www.w3.org/2000/svg" height="40" viewBox="0 -960 960 960" width="40"><path d="M120.689-379.072q-9.486 0-15.885-6.376-6.398-6.376-6.398-15.863 0-9.486 6.376-15.885 6.375-6.398 15.862-6.398 9.486 0 15.885 6.375 6.399 6.376 6.399 15.863 0 9.486-6.376 15.885-6.376 6.399-15.863 6.399Zm0-157.334q-9.486 0-15.885-6.375-6.398-6.376-6.398-15.863 0-9.486 6.376-15.885 6.375-6.399 15.862-6.399 9.486 0 15.885 6.376 6.399 6.376 6.399 15.863 0 9.486-6.376 15.885-6.376 6.398-15.863 6.398ZM240.07-199.739q-17.216 0-28.774-11.487-11.557-11.487-11.557-28.704 0-17.216 11.487-28.774 11.487-11.557 28.704-11.557 17.216 0 28.774 11.487 11.557 11.487 11.557 28.704 0 17.216-11.487 28.774-11.487 11.557-28.704 11.557Zm0-161.334q-17.216 0-28.774-11.487-11.557-11.487-11.557-28.703 0-17.217 11.487-28.774 11.487-11.557 28.704-11.557 17.216 0 28.774 11.487 11.557 11.487 11.557 28.703 0 17.217-11.487 28.774-11.487 11.557-28.704 11.557Zm0-157.333q-17.216 0-28.774-11.487-11.557-11.487-11.557-28.703 0-17.217 11.487-28.774 11.487-11.557 28.704-11.557 17.216 0 28.774 11.487 11.557 11.487 11.557 28.703 0 17.217-11.487 28.774-11.487 11.557-28.704 11.557Zm0-161.333q-17.216 0-28.774-11.487-11.557-11.487-11.557-28.704 0-17.216 11.487-28.774 11.487-11.557 28.704-11.557 17.216 0 28.774 11.487 11.557 11.487 11.557 28.704 0 17.216-11.487 28.774-11.487 11.557-28.704 11.557Zm161.263 336q-23.971 0-40.782-16.812-16.812-16.811-16.812-40.782 0-23.971 16.812-40.783 16.811-16.811 40.782-16.811 23.971 0 40.783 16.811 16.811 16.812 16.811 40.783t-16.811 40.782q-16.812 16.812-40.783 16.812Zm0-157.334q-23.971 0-40.782-16.811-16.812-16.812-16.812-40.783t16.812-40.782q16.811-16.812 40.782-16.812 23.971 0 40.783 16.812 16.811 16.811 16.811 40.782 0 23.971-16.811 40.783-16.812 16.811-40.783 16.811Zm.071 301.334q-17.217 0-28.774-11.487-11.557-11.487-11.557-28.704 0-17.216 11.487-28.774 11.487-11.557 28.703-11.557 17.217 0 28.774 11.487 11.557 11.487 11.557 28.704 0 17.216-11.487 28.774-11.487 11.557-28.703 11.557Zm0-480q-17.217 0-28.774-11.487-11.557-11.487-11.557-28.704 0-17.216 11.487-28.774 11.487-11.557 28.703-11.557 17.217 0 28.774 11.487 11.557 11.487 11.557 28.704 0 17.216-11.487 28.774-11.487 11.557-28.703 11.557Zm-.048 581.333q-9.486 0-15.885-6.376-6.399-6.375-6.399-15.862 0-9.486 6.376-15.885 6.376-6.399 15.863-6.399 9.486 0 15.885 6.376 6.398 6.376 6.398 15.863 0 9.486-6.375 15.885-6.376 6.398-15.863 6.398Zm0-718.666q-9.486 0-15.885-6.376-6.399-6.376-6.399-15.863 0-9.486 6.376-15.885 6.376-6.398 15.863-6.398 9.486 0 15.885 6.376 6.398 6.375 6.398 15.862 0 9.486-6.375 15.885-6.376 6.399-15.863 6.399Zm157.311 473.333q-23.971 0-40.783-16.812-16.811-16.811-16.811-40.782 0-23.971 16.811-40.783 16.812-16.811 40.783-16.811t40.782 16.811q16.812 16.812 16.812 40.783t-16.812 40.782q-16.811 16.812-40.782 16.812Zm0-157.334q-23.971 0-40.783-16.811-16.811-16.812-16.811-40.783t16.811-40.782q16.812-16.812 40.783-16.812t40.782 16.812q16.812 16.811 16.812 40.782 0 23.971-16.812 40.783-16.811 16.811-40.782 16.811Zm.07 301.334q-17.217 0-28.774-11.487-11.557-11.487-11.557-28.704 0-17.216 11.487-28.774 11.487-11.557 28.703-11.557 17.217 0 28.774 11.487 11.557 11.487 11.557 28.704 0 17.216-11.487 28.774-11.487 11.557-28.703 11.557Zm0-480q-17.217 0-28.774-11.487-11.557-11.487-11.557-28.704 0-17.216 11.487-28.774 11.487-11.557 28.703-11.557 17.217 0 28.774 11.487 11.557 11.487 11.557 28.704 0 17.216-11.487 28.774-11.487 11.557-28.703 11.557Zm3.953 581.333q-9.487 0-15.886-6.376-6.398-6.375-6.398-15.862 0-9.486 6.376-15.885 6.375-6.399 15.862-6.399t15.885 6.376q6.399 6.376 6.399 15.863 0 9.486-6.376 15.885-6.376 6.398-15.862 6.398Zm-4.001-718.666q-9.486 0-15.885-6.376-6.398-6.376-6.398-15.863 0-9.486 6.375-15.885 6.376-6.398 15.863-6.398 9.486 0 15.885 6.376 6.399 6.375 6.399 15.862 0 9.486-6.376 15.885-6.376 6.399-15.863 6.399ZM720.07-199.739q-17.216 0-28.774-11.487-11.557-11.487-11.557-28.704 0-17.216 11.487-28.774 11.487-11.557 28.704-11.557 17.216 0 28.774 11.487 11.557 11.487 11.557 28.704 0 17.216-11.487 28.774-11.487 11.557-28.704 11.557Zm0-161.334q-17.216 0-28.774-11.487-11.557-11.487-11.557-28.703 0-17.217 11.487-28.774 11.487-11.557 28.704-11.557 17.216 0 28.774 11.487 11.557 11.487 11.557 28.703 0 17.217-11.487 28.774-11.487 11.557-28.704 11.557Zm0-157.333q-17.216 0-28.774-11.487-11.557-11.487-11.557-28.703 0-17.217 11.487-28.774 11.487-11.557 28.704-11.557 17.216 0 28.774 11.487 11.557 11.487 11.557 28.703 0 17.217-11.487 28.774-11.487 11.557-28.704 11.557Zm0-161.333q-17.216 0-28.774-11.487-11.557-11.487-11.557-28.704 0-17.216 11.487-28.774 11.487-11.557 28.704-11.557 17.216 0 28.774 11.487 11.557 11.487 11.557 28.704 0 17.216-11.487 28.774-11.487 11.557-28.704 11.557Zm119.286 300.667q-9.486 0-15.885-6.376-6.399-6.376-6.399-15.863 0-9.486 6.376-15.885 6.376-6.398 15.863-6.398 9.486 0 15.885 6.375 6.398 6.376 6.398 15.863 0 9.486-6.376 15.885-6.375 6.399-15.862 6.399Zm0-157.334q-9.486 0-15.885-6.375-6.399-6.376-6.399-15.863 0-9.486 6.376-15.885 6.376-6.399 15.863-6.399 9.486 0 15.885 6.376 6.398 6.376 6.398 15.863 0 9.486-6.376 15.885-6.375 6.398-15.862 6.398Z"/></svg>