<svg xmlns="http://www.w3.org/2000/svg" height="40" viewBox="0 -960 960 960" width="40"><path d="M479.883-606.573q-16.05 0-26.905-11.061-10.855-11.062-10.855-27.092 0-15.962 10.972-26.861 10.972-10.898 27.022-10.898 16.05 0 26.905 11.033 10.855 11.034 10.855 27.022 0 15.988-10.972 26.923-10.972 10.934-27.022 10.934Zm-164.37 164.45q-15.962 0-26.86-10.972-10.899-10.972-10.899-27.022 0-16.05 11.033-26.905 11.034-10.855 27.022-10.855 15.988 0 26.923 10.972 10.934 10.972 10.934 27.022 0 16.05-11.061 26.905-11.062 10.855-27.092 10.855Zm164.37 0q-16.05 0-26.905-10.972t-10.855-27.022q0-16.05 10.972-26.905t27.022-10.855q16.05 0 26.905 10.972t10.855 27.022q0 16.05-10.972 26.905t-27.022 10.855Zm164.547 0q-15.988 0-26.923-10.972-10.934-10.972-10.934-27.022 0-16.05 11.061-26.905 11.062-10.855 27.092-10.855 15.962 0 26.861 10.972 10.898 10.972 10.898 27.022 0 16.05-11.033 26.905-11.034 10.855-27.022 10.855ZM479.883-277.754q-16.05 0-26.905-11.033-10.855-11.034-10.855-27.022 0-15.988 10.972-26.923 10.972-10.934 27.022-10.934 16.05 0 26.905 11.061 10.855 11.062 10.855 27.092 0 15.962-10.972 26.86-10.972 10.899-27.022 10.899ZM151.002-770.942q-15.988 0-26.843-11.034-10.855-11.033-10.855-27.022 0-15.988 11.002-26.922 11.001-10.935 26.942-10.935 15.94 0 26.875 11.062 10.935 11.061 10.935 27.091 0 15.962-11.034 26.861-11.033 10.899-27.022 10.899Zm164.511 0q-15.962 0-26.86-11.034-10.899-11.033-10.899-27.022 0-15.988 11.033-26.922 11.034-10.935 27.022-10.935 15.988 0 26.923 11.062 10.934 11.061 10.934 27.091 0 15.962-11.061 26.861-11.062 10.899-27.092 10.899Zm164.37 0q-16.05 0-26.905-11.034-10.855-11.033-10.855-27.022 0-15.988 10.972-26.922 10.972-10.935 27.022-10.935 16.05 0 26.905 11.062 10.855 11.061 10.855 27.091 0 15.962-10.972 26.861-10.972 10.899-27.022 10.899Zm164.547 0q-15.988 0-26.923-11.034-10.934-11.033-10.934-27.022 0-15.988 11.061-26.922 11.062-10.935 27.092-10.935 15.962 0 26.861 11.062 10.898 11.061 10.898 27.091 0 15.962-11.033 26.861-11.034 10.899-27.022 10.899ZM151.002-606.573q-15.988 0-26.843-11.061-10.855-11.062-10.855-27.092 0-15.962 11.002-26.861 11.001-10.898 26.942-10.898 15.94 0 26.875 11.033 10.935 11.034 10.935 27.022 0 15.988-11.034 26.923-11.033 10.934-27.022 10.934Zm0 164.45q-15.988 0-26.843-10.972t-10.855-27.022q0-16.05 11.002-26.905 11.001-10.855 26.942-10.855 15.94 0 26.875 10.972t10.935 27.022q0 16.05-11.034 26.905-11.033 10.855-27.022 10.855Zm0 164.369q-15.988 0-26.843-11.033-10.855-11.034-10.855-27.022 0-15.988 11.002-26.923 11.001-10.934 26.942-10.934 15.94 0 26.875 11.061 10.935 11.062 10.935 27.092 0 15.962-11.034 26.86-11.033 10.899-27.022 10.899Zm0 164.45q-15.988 0-26.843-11.002-10.855-11.001-10.855-26.942 0-15.94 11.002-26.875 11.001-10.935 26.942-10.935 15.94 0 26.875 11.034 10.935 11.033 10.935 27.022 0 15.988-11.034 26.843-11.033 10.855-27.022 10.855Zm164.511 0q-15.962 0-26.86-11.002-10.899-11.001-10.899-26.942 0-15.94 11.033-26.875 11.034-10.935 27.022-10.935 15.988 0 26.923 11.034 10.934 11.033 10.934 27.022 0 15.988-11.061 26.843-11.062 10.855-27.092 10.855Zm164.37 0q-16.05 0-26.905-11.002-10.855-11.001-10.855-26.942 0-15.94 10.972-26.875t27.022-10.935q16.05 0 26.905 11.034 10.855 11.033 10.855 27.022 0 15.988-10.972 26.843t-27.022 10.855Zm164.547 0q-15.988 0-26.923-11.002-10.934-11.001-10.934-26.942 0-15.94 11.061-26.875 11.062-10.935 27.092-10.935 15.962 0 26.861 11.034 10.898 11.033 10.898 27.022 0 15.988-11.033 26.843-11.034 10.855-27.022 10.855Zm126.512-37.877v-657.638q0-15.98 10.972-27.008 10.972-11.028 27.008-11.028t26.984 11.028q10.949 11.028 10.949 27.008v657.638q0 16-11.066 26.938-11.065 10.939-27.101 10.939t-26.891-10.939q-10.855-10.938-10.855-26.938Z"/></svg>