<svg xmlns="http://www.w3.org/2000/svg" height="40" viewBox="0 -960 960 960" width="40"><path d="M480.008-671.74q-27.457 0-46.874-19.564-19.416-19.565-19.416-47.022 0-27.457 19.409-46.837 19.409-19.381 46.865-19.381 27.457 0 46.874 19.41 19.416 19.409 19.416 46.865 0 27.457-19.409 46.993t-46.865 19.536Zm-69.624 478.407v-163.718h-6.666q-14.167 0-23.75-9.563-9.584-9.563-9.584-23.699V-551.74q0-28.815 20.353-49.334 20.352-20.52 49.263-20.52h80q28.911 0 49.263 20.52 20.353 20.519 20.353 49.334v161.427q0 14.136-9.584 23.699-9.583 9.563-23.75 9.563h-6.666v163.718q0 16-10.953 26.938-10.952 10.939-26.973 10.939h-63.575q-16.021 0-26.876-10.939-10.855-10.938-10.855-26.938Z"/></svg>