<svg xmlns="http://www.w3.org/2000/svg" height="40" viewBox="0 -960 960 960" width="40"><path d="M583.333-77.05q-15.419 0-25.851-10.456-10.431-10.455-10.431-25.911 0-15.455 10.431-25.827 10.432-10.372 25.851-10.372h124.769l-101.363-71.42q-12.369-8.797-15.188-23.159-2.819-14.363 5.565-26.732 8.384-12.37 22.797-15.189 14.413-2.818 27.015 5.486l102.601 70.66-43.145-116.994q-5.652-13.608 1.25-27.111 6.902-13.502 21.33-19.207 14.609-5.652 28.217.786 13.609 6.438 19.102 21.127l41.398 116.913 33.37-119.674q3.906-13.942 16.522-21.667 12.616-7.724 26.931-3.819 14.315 3.906 22.166 16.189 7.852 12.282 3.946 26.891l-61.761 231.391q-3.492 13.026-13.228 20.56-9.736 7.534-23.33 7.534H583.333Zm-394.275-76.254q-30.994 0-53.374-22.38-22.38-22.38-22.38-53.374v-515.218q0-31.059 22.38-53.486 22.38-22.427 53.374-22.427h54.275v-29.688q0-15.554 10.795-26.266 10.794-10.712 26.294-10.712 15.783 0 26.619 10.712t10.836 26.266v29.688h244.246v-29.688q0-15.554 10.795-26.266 10.794-10.712 26.294-10.712 15.783 0 26.619 10.712t10.836 26.266v29.688h54.275q31.06 0 53.486 22.427 22.427 22.427 22.427 53.486v239.146q0 16.159-11.066 27.098-11.065 10.938-27.101 10.938t-26.891-10.938q-10.855-10.939-10.855-27.098v-61.537H189.058v337.609h261.138q15.98 0 27.008 10.972 11.028 10.972 11.028 27.022 0 16.05-11.028 26.905t-27.008 10.855H189.058Zm0-480.029h501.884v-110.943H189.058v110.943Zm0 0v-110.943 110.943Z"/></svg>