<svg xmlns="http://www.w3.org/2000/svg" height="40" viewBox="0 -960 960 960" width="40"><path d="M719.471-185.689v55.196q0 15.442-10.675 25.982t-27.38 10.54q-15.988 0-26.843-10.938-10.855-10.939-10.855-26.939v-143.319q0-16.839 11.859-28.698 11.859-11.859 28.698-11.859h143.319q16 0 26.939 11.089 10.938 11.09 10.938 28.18 0 15.491-10.669 25.988-10.67 10.496-25.932 10.496h-56.117l93.602 93.602q11.022 11.101 10.902 26.5-.119 15.398-10.949 26.648-11.422 11.25-27.129 11.37-15.707.119-27.106-11.236l-92.602-92.602ZM480-73.304q-84.399 0-158.592-31.951-74.193-31.951-129.21-86.895-55.017-54.944-86.955-128.751-31.939-73.806-31.939-157.766 0-84.843 31.939-159.247 31.938-74.405 86.951-129.575 55.013-55.17 129.201-87.268 74.188-32.098 158.582-32.098 84.393 0 158.581 32.098 74.188 32.098 129.233 87.27t87.054 129.575q32.01 74.402 32.01 159.245 0 10.993-.793 22.348-.794 11.355-2.221 22.348-1.724 17.104-14.203 27.675-12.478 10.572-29.648 10.572-15.306 0-25.057-12.037-9.752-12.036-7.991-27.282 1.681-10.993 2.682-21.812 1-10.819 1-21.812 0-21.886-2.803-43.534-2.802-21.647-8.407-43.241h-150.53q2.094 22 3.808 43.578 1.714 21.579 1.714 43.197 0 12.098-.787 24.693-.786 12.594-1.547 24.692-1.094 14.26-11.269 23.909-10.176 9.649-24.591 9.649-13.567 0-22.614-10.024t-7.953-23.657q1.428-12.034 1.761-24.631.333-12.597.333-24.631 0-21.674-1.264-43.427-1.265-21.754-4.272-43.348H378.659q-3.29 21.761-4.79 43.348t-1.5 43.094q0 21.507 1.486 42.708 1.486 21.2 4.457 42.401h147.03q14.234 0 23.744 9.497 9.509 9.498 9.509 23.714t-9.583 23.597q-9.583 9.38-23.67 9.38H391.703q13.173 49.188 32.504 96.106 19.33 46.918 55.474 82.112 11.722 0 23.445-.953 11.722-.953 23.382-2.381 14.833-1.76 25.974 8.189t11.141 24.475q0 17.41-10.166 29.529-10.167 12.119-26.413 13.8-11.66 1.587-23.574 2.554-11.914.968-23.47.968ZM160.267-393.891h150.769q-2.666-21.201-4-42.401-1.333-21.201-1.333-42.375 0-21.674 1.087-43.427 1.087-21.754 3.58-43.348H160.221q-5.582 21.667-8.373 43.335-2.79 21.667-2.79 43.574 0 21.707 2.802 42.685 2.802 20.979 8.407 41.957Zm228.291 231.739q-23.652-38.108-39.42-79.822-15.768-41.714-25.458-85.729H184.818q31.348 61.268 84.253 104.529 52.904 43.261 119.487 61.022ZM184.818-631.55h137.945q10.447-44.095 26.295-86.102 15.848-42.008 40.167-80.863-65.428 21.761-118.497 64.022-53.069 42.261-85.91 102.943Zm206.885 0h177.181q-12.666-49.935-34.213-96.117-21.548-46.181-54.99-84.181-33.412 38.527-54.815 84.564-21.403 46.038-33.163 95.734Zm246.073 0h137.167q-32.682-60.523-85.736-103.197-53.055-42.674-118.323-63.101 24.319 38.188 40.246 80.275 15.928 42.088 26.646 86.023Z"/></svg>