<svg xmlns="http://www.w3.org/2000/svg" height="40" viewBox="0 -960 960 960" width="40"><path d="M480.667-480Zm406.855-250.942v501.884q0 31.494-22.177 53.624-22.177 22.13-53.736 22.13H639.043q-15.999 0-26.938-10.972-10.938-10.972-10.938-27.022 0-16.05 10.938-26.905 10.939-10.855 26.938-10.855h172.566v-501.884H149.724v20.964q0 16-10.972 26.938-10.972 10.938-27.021 10.938-16.05 0-26.905-10.938t-10.855-26.938v-20.964q0-31.56 22.13-53.736 22.13-22.177 53.623-22.177h661.885q31.559 0 53.736 22.177 22.177 22.176 22.177 53.736ZM311.754-153.304q-13.787 0-24.244-8.218-10.456-8.217-12.923-22.326-9.986-67.717-57.313-115.328-47.328-47.612-114.187-57.65-12.812-2.08-20.964-12.67t-8.152-24.145q0-14.351 8.791-24.623 8.792-10.272 21.672-8.939 95.327 10.319 162.381 78.381 67.054 68.061 78.293 163.388 1.841 13.591-8.502 22.86-10.344 9.27-24.852 9.27Zm163.282 0q-14.145 0-24.549-9.194t-11.712-23.072q-12-133.792-105.029-228.267T107.551-520.536q-14.5-1.317-24.04-11.733t-9.54-24.623q0-14.809 11.257-24.947 11.258-10.139 26.468-8.646 159.709 13.687 271.612 127.028 111.903 113.341 125.055 273.802 1.361 15.299-8.615 25.825-9.977 10.526-24.712 10.526Zm-357.645 0q-18.803 0-31.778-13.056-12.975-13.057-12.975-31.966 0-18.723 13.056-31.778t31.965-13.055q18.724 0 31.779 13.149 13.054 13.148 13.054 31.952 0 18.804-13.148 31.779-13.149 12.975-31.953 12.975Z"/></svg>