<svg xmlns="http://www.w3.org/2000/svg" height="40" viewBox="0 -960 960 960" width="40"><path d="M314.978-73.304q-25.283 0-34.931-23.21-9.649-23.21 8.329-41.189l533.842-534.413q17.818-17.819 41.228-8.29 23.409 9.529 23.409 34.811v515.356q0 23.87-16.473 40.402Q853.91-73.304 830-73.304H314.978Zm407.297-75.754h88.667v-404.139l-88.667 88.667v315.472ZM444.073-472.204q-24.667 0-41.334-16.92-16.666-16.92-16.666-41.08 0-24.507 16.666-41.254 16.667-16.746 41.334-16.746 24 0 40.999 16.746 17 16.747 17 41.254 0 24.16-17 41.08-16.999 16.92-40.999 16.92Zm0-175.688q-33.443 0-62.193 11.392-28.751 11.393-52.859 31.108-11.13 8.319-25.141 8.16-14.011-.16-23.762-9.658-10.191-10.165-10.024-24.648.167-14.484 11.391-23.803 33.334-28.681 75.326-44.848 41.993-16.167 87.262-16.167 45.108 0 87.101 16.167t75.326 44.848q11.17 9.337 11.364 23.752.194 14.415-10.03 24.639-9.718 9.558-23.729 9.718-14.01.159-25.141-8.16-24.108-19.715-52.858-31.108-28.751-11.392-62.033-11.392Zm.119-130.311q-57.134 0-110.215 19.726-53.08 19.726-97.644 56.825-11.464 9.145-25.863 9.978-14.399.833-24.601-9.517-10.202-10.258-9.322-25.055.881-14.797 12.025-24.609 52.174-46.268 118.627-71.134t136.874-24.866q70.26 0 136.92 24.866 66.659 24.866 119.087 71.134 11.145 9.812 12.025 24.609.881 14.797-9.344 25.021-10.225 10.384-24.362 9.551-14.138-.833-25.602-9.739-44.601-37.348-98.195-57.069-53.595-19.721-110.41-19.721Z"/></svg>