<svg xmlns="http://www.w3.org/2000/svg" height="40" viewBox="0 -960 960 960" width="40"><path d="M683.16-332.008q-52.137 0-88.605-36.526t-36.468-88.706q0-52.181 36.493-88.655 36.494-36.475 88.627-36.475 52.134 0 88.688 36.496t36.554 88.634q0 52.203-36.542 88.718-36.543 36.514-88.747 36.514Zm.087-73.84q21.811 0 36.587-14.786 14.775-14.787 14.775-36.646 0-21.858-14.786-36.554-14.787-14.696-36.646-14.696-21.858 0-36.554 14.755-14.696 14.754-14.696 36.565t14.755 36.587q14.754 14.775 36.565 14.775ZM475.964-42.362q-16 0-26.939-10.939-10.938-10.938-10.938-26.938v-83.225q0-22.441 10.669-42.21 10.669-19.769 29.802-31.334 30.051-17.905 49.985-25.579 19.935-7.674 54.16-15.326 11.56-2.319 23.081-.366 11.52 1.953 19.223 10.924l58.181 72.348 57.849-72.348q7.869-9.061 19.195-10.969 11.326-1.908 23.109.411 34.464 7.652 54.025 15.206 19.562 7.555 49.453 25.699 19.116 11.663 30.373 31.291 11.257 19.629 11.257 42.014v83.464q0 16-11.028 26.938-11.028 10.939-27.008 10.939H475.964Zm35.71-73.841H652l-70.515-88.203q-18.536 6.282-36.112 14.605-17.576 8.322-33.699 18.177v55.421Zm202.703 0h140.232l.877-55.261q-16.188-10.348-33.75-18.504t-36.178-14.438l-71.181 88.203Zm-62.377 0Zm62.377 0Zm-31.189-341.065ZM189.058-188.5v-581.884 144.703V-649.036-188.5Zm0 75.913q-31.494 0-53.624-22.177-22.13-22.176-22.13-53.736v-581.884q0-31.326 22.13-53.54t53.624-22.214h581.884q31.56 0 53.736 22.214 22.177 22.214 22.177 53.54v214.036q-14.261-22.072-33.224-39.963-18.964-17.892-42.689-29.116v-144.957H189.058v581.866h184.363q-1 6.317-1.5 12.616-.5 6.299-.5 12.438v50.877H189.058Zm126.666-497.797h271.074q14.891-10.718 31.77-17.63 16.879-6.913 35.366-10.341v-33.334q0-2.279-1.541-3.82-1.541-1.542-3.82-1.542H315.724q-14.166 0-23.749 9.617-9.584 9.617-9.584 23.833 0 14.217 9.584 23.717 9.583 9.5 23.749 9.5Zm0 164.275h177.052q-1.036-16.761.934-33.681 1.971-16.92 6.855-32.985H315.724q-14.166 0-23.749 9.617-9.584 9.617-9.584 23.833 0 14.216 9.584 23.716 9.583 9.5 23.749 9.5Zm0 164.276h112.182q15.811-13.092 33.793-21.974 17.983-8.882 37.005-16.773v-1.514q-3.145-11.599-11.14-18.883-7.995-7.283-23.604-7.523H315.758q-14.2 0-23.783 9.617-9.584 9.617-9.584 23.833 0 14.217 9.584 23.717 9.583 9.5 23.749 9.5Z"/></svg>