<svg xmlns="http://www.w3.org/2000/svg" height="40" viewBox="0 -960 960 960" width="40"><path d="M404.247-351.203 152.869-99.826q-11.181 11.181-26.601 11.181t-26.442-11.18q-11.181-11.023-11.181-26.443 0-15.42 11.18-26.601l251.378-251.378H191.181q-16 0-26.938-10.972-10.939-10.972-10.939-27.021 0-16.05 10.939-26.905Q175.181-480 191.181-480h250.942q16 0 26.939 10.938Q480-458.123 480-442.123v250.942q0 16-10.972 26.938-10.972 10.939-27.022 10.939-16.049 0-26.904-10.939-10.855-10.938-10.855-26.938v-160.022Zm204.709-204.71h159.863q16 0 27.018 11.052t11.018 27.101q0 16.05-11.018 26.905T768.819-480H517.877q-16 0-26.939-10.938Q480-501.877 480-517.877v-250.942q0-16 10.972-27.018t27.022-11.018q16.049 0 26.984 11.018 10.935 11.018 10.935 27.018v159.863L807.29-860.334q11.022-11.021 26.442-11.021t26.602 11.021q11.021 11.182 11.021 26.602t-11.021 26.442L608.956-555.913Z"/></svg>