<svg xmlns="http://www.w3.org/2000/svg" height="40" viewBox="0 -960 960 960" width="40"><path d="M480-73.304q-83.347 0-157.547-32.058-74.199-32.058-129.616-87.475-55.417-55.417-87.475-129.614-32.058-74.197-32.058-157.543 0-85.694 32.557-159.854 32.556-74.16 88.982-129.153 56.425-54.992 131.912-86.423 75.486-31.431 161.462-31.431 80.58 0 152.862 27.344 72.281 27.345 126.891 75.769 54.61 48.423 86.747 114.793 32.138 66.371 32.138 144.471 0 111.768-65.612 176.804t-170.909 65.036H580.21q-14.362 0-23.996 10.681-9.635 10.682-9.635 23.776 0 21.522 13.471 39.298 13.471 17.775 13.471 43.072 0 43.594-25.446 68.05Q522.629-73.304 480-73.304ZM480-480Zm-226.276 30.666q22 0 37.667-15.666 15.667-15.667 15.667-37.667t-15.667-37.666Q275.724-556 253.724-556q-21.999 0-37.666 15.667-15.667 15.666-15.667 37.666 0 22 15.667 37.667 15.667 15.666 37.666 15.666Zm122.805-164.833q22.079 0 37.746-15.667 15.667-15.666 15.667-37.666 0-22.16-15.667-37.746-15.667-15.587-37.666-15.587-22.16 0-37.747 15.587-15.587 15.586-15.587 37.666t15.587 37.746q15.587 15.667 37.667 15.667Zm206.942 0q22.08 0 37.746-15.667 15.667-15.666 15.667-37.666 0-22.16-15.667-37.746-15.666-15.587-37.666-15.587-22.159 0-37.746 15.587-15.587 15.586-15.587 37.666t15.587 37.746q15.587 15.667 37.666 15.667Zm125.58 164.833q22 0 37.667-15.666 15.666-15.667 15.666-37.667t-15.666-37.666Q731.051-556 709.051-556q-22.159 0-37.746 15.667-15.587 15.666-15.587 37.666 0 22 15.587 37.667 15.587 15.666 37.746 15.666ZM478.884-149.058q9.636 0 14.3-4.425 4.664-4.426 4.664-13.374 0-14.07-14.786-27.686-14.787-13.616-14.787-52.898 0-45.572 30.419-78.261 30.42-32.689 75.933-32.689h75.707q72.188 0 116.398-42.341 44.21-42.341 44.21-122.232 0-128.333-97.116-208.156-97.116-79.822-225.578-79.822-141.502 0-240.346 96.088t-98.844 234.969q0 137.342 96.537 234.085 96.537 96.742 233.289 96.742Z"/></svg>