<svg xmlns="http://www.w3.org/2000/svg" height="40" viewBox="0 -960 960 960" width="40"><path d="M485.71-216.457v25.667q0 16.85-11.51 28.364-11.51 11.513-28.355 11.513t-28.367-11.513q-11.521-11.514-11.521-28.364v-205.036q0-6.295.786-12.35.786-6.056 3.105-12.027l43.87-127.514q7.782-23.018 27.514-37.125t44.348-14.107h244.362q24.457 0 44.268 14.107 19.812 14.107 27.594 37.125l43.87 127.514q2.159 5.971 3.025 12.027.866 6.055.866 12.35v205.036q0 16.85-11.51 28.364-11.51 11.513-28.355 11.513t-28.366-11.513q-11.522-11.514-11.522-28.364v-25.667H485.71ZM474.094-443.05h347.334l-34.667-103.334h-278L474.094-443.05Zm-15.333 46.666v128-128Zm64.667 104q16.557 0 27.945-11.308 11.388-11.309 11.388-28.025 0-16.557-11.388-27.945-11.388-11.389-28.025-11.389t-27.945 11.389q-11.309 11.388-11.309 28.025 0 16.636 11.309 27.945 11.308 11.308 28.025 11.308Zm248.667 0q16.557 0 27.945-11.308 11.388-11.309 11.388-28.025 0-16.557-11.388-27.945-11.388-11.389-28.025-11.389t-27.945 11.389q-11.309 11.388-11.309 28.025 0 16.636 11.309 27.945 11.308 11.308 28.025 11.308ZM173.5-150.913q-12.858 0-17.451-11.967-4.592-11.968 4.524-20.765l50.717-49.92q-57.576 0-99.216-36.62-41.64-36.619-41.64-92.076v-326.131q0-69.77 55.877-95.312 55.877-25.543 209.592-25.543 148.307 0 206.861 26.232 58.555 26.232 58.555 80.804v31.335q0 14.122-9.48 23.568-9.479 9.446-23.492 9.446-14.695 0-26.586-7.312-11.891-7.311-15.638-18.05v-31.334H146.347v259.891h188.24q15.981 0 27.009 10.939 11.028 10.938 11.028 26.938v208q0 16-11.028 26.939-11.028 10.938-27.009 10.938H173.5Zm23.894-164.841q17.956 0 30.136-12.343t12.18-30.257q0-17.913-12.147-30.059-12.146-12.145-30.102-12.145t-30.136 12.1q-12.18 12.101-12.18 30.104 0 17.914 12.146 30.257 12.147 12.343 30.103 12.343Zm261.367 47.37h378v-128h-378v128Z"/></svg>