<svg xmlns="http://www.w3.org/2000/svg" height="40" viewBox="0 -960 960 960" width="40"><path d="M480.039-93.384q-80.155 0-150.287-30.399-70.133-30.399-122.453-82.719-52.32-52.32-82.719-122.452-30.399-70.133-30.399-150.249t30.399-150.248q30.399-70.133 82.719-122.453 52.32-52.32 122.453-82.719Q399.884-865.022 480-865.022v-56.014q0-12.729 11.808-17.346 11.808-4.618 20.844 4.418L615.87-830.746q11.355 11.355 11.315 26.641-.04 15.286-11.315 26.641L512.652-674.246q-9.036 9.036-20.844 4.418Q480-674.446 480-687.174v-56.014q-109.594 0-186.79 77.201-77.196 77.202-77.196 186.784 0 67.116 31.019 124.373 31.018 57.258 82.853 92.816 16.201-28.24 48.139-48.019 31.939-19.779 73.656-25.018-3.159-21.319-8.279-42.677-5.119-21.359-12.199-39.678-10.979 9.164-24.194 14.241-13.215 5.078-28.665 5.078-33.417 0-57.235-23.819-23.819-23.819-23.819-57.242v-40.651q0-9.987-1.913-18.261-1.913-8.273-5.754-16.846-4.333-8.935 1.147-16.96t14.903-7.692q46.16 2 99.585 21.418t54.423 78.964q0 9.212-1.46 16.752-1.46 7.54-5.54 15.54-13.239-10.08-26.359-18.08-13.119-8-27.438-14.239 17.389 13.208 39.633 40.503 22.244 27.294 41.483 64.852 20.478-49.797 50.797-97.855 30.319-48.058 71.036-88.775-23.239 16.239-44.637 34.478-21.399 18.239-41.638 38.558-7.08-11.239-11.08-24.813-4-13.574-4-28.004 0-42.575 29.397-71.955 29.396-29.38 71.976-29.38h40.586q14.193 0 29.993-3.62 15.8-3.619 26.758-13.859 7.08-7.079 16.16-3.492 9.08 3.586 9.319 13.732 0 25.398-3.61 61.382-3.609 35.984-16.311 68.978-12.703 32.993-36.991 56.411-24.288 23.417-65.885 23.417-15.435 0-29.015-4.119-13.58-4.12-24.819-11.2-7.239 19.239-16.279 51.297-9.04 32.058-14.199 68.616 38.558 7.239 68.036 26.399 29.479 19.159 44.873 45.638 42.482-29.479 70.841-72.997 28.359-43.518 38.438-96.395 4.975-25.41 22.986-42.723 18.011-17.313 42.609-17.313 26.239 0 43.858 18.811 17.62 18.811 13.62 43.986Q844.5-285.493 736.326-189.438 628.152-93.384 480.039-93.384Z"/></svg>