<svg xmlns="http://www.w3.org/2000/svg" height="40" viewBox="0 -960 960 960" width="40"><path d="M149.058-153.304q-31.494 0-53.624-22.13-22.13-22.13-22.13-53.624v-134.167q0-10.405 5.933-17.953t15.495-10.2q28.427-9.571 45.5-34.575 17.072-25.003 17.072-53.833t-17.072-54.167q-17.073-25.337-45.5-34.654-9.562-2.659-15.495-10.233-5.933-7.573-5.933-17.986v-134.116q0-31.56 22.13-53.736 22.13-22.177 53.624-22.177h661.884q31.56 0 53.736 22.177 22.177 22.176 22.177 53.736v134.355q0 10.297-5.977 17.831-5.978 7.534-15.61 10.183-28.427 9.283-45.42 34.62-16.993 25.337-16.993 54.167 0 28.83 16.993 53.833 16.993 25.004 45.42 34.526 9.562 2.613 15.574 10.165 6.013 7.552 6.013 17.849v134.355q0 31.494-22.177 53.624-22.176 22.13-53.736 22.13H149.058Zm0-75.754h661.884v-103.239q-37.587-24.906-60.793-63.402-23.207-38.496-23.207-84.391 0-45.896 23.207-84.381 23.206-38.486 60.793-63.232v-103.239H149.058v103.239q38.572 24.746 61.286 63.267t22.714 84.352q0 45.83-22.714 84.356-22.714 38.525-61.286 63.431v103.239Zm331.062-54.536q14.264 0 24.536-10.272 10.271-10.272 10.271-24.536 0-14.264-10.224-24.536Q494.48-353.21 480-353.21q-14.145 0-24.536 10.224-10.391 10.224-10.391 24.703 0 14.145 10.391 24.417 10.391 10.272 24.656 10.272Zm0-161.479q14.264 0 24.536-10.391 10.271-10.391 10.271-24.656 0-14.264-10.224-24.536Q494.48-514.927 480-514.927q-14.145 0-24.536 10.224Q445.073-494.48 445.073-480q0 14.145 10.391 24.536 10.391 10.391 24.656 10.391Zm0-161.717q14.264 0 24.536-10.391 10.271-10.392 10.271-24.656t-10.224-24.417Q494.48-676.406 480-676.406q-14.145 0-24.536 10.155-10.391 10.156-10.391 24.534 0 14.144 10.391 24.536 10.391 10.391 24.656 10.391ZM480-480Z"/></svg>