<svg xmlns="http://www.w3.org/2000/svg" height="40" viewBox="0 -960 960 960" width="40"><path d="M480.002-73.304q-84.357 0-158.535-31.984-74.178-31.983-129.183-86.983-55.006-54.999-86.993-129.189-31.987-74.19-31.987-158.542 0-84.353 32.018-158.549 32.018-74.195 86.975-129.152 54.957-54.956 129.157-87.054 74.201-32.098 158.566-32.098 84.365 0 158.546 32.098 74.18 32.098 129.137 87.054 54.956 54.957 87.054 129.157 32.098 74.201 32.098 158.566 0 84.365-32.098 158.546-32.098 74.18-87.054 129.137-54.957 54.957-129.15 86.975-74.194 32.018-158.551 32.018Zm29.056-77.232q129.246-12.304 215.565-104.818 86.319-92.514 86.319-224.642 0-131.473-86.319-224.199T509.058-809.384v658.848Z"/></svg>