<svg xmlns="http://www.w3.org/2000/svg" height="40" viewBox="0 -960 960 960" width="40"><path d="m761.573-176.058-58.479 58.384q-11.261 11.261-26.474 11.268-15.214.008-26.569-11.507-11.261-11.101-11.261-26.561 0-15.46 11.261-26.562l58.145-58.399-58.384-58.478q-11.261-11.101-11.189-26.403.073-15.301 11.428-26.72 11.101-11.261 26.561-11.261 15.46 0 26.721 11.261l58.24 58.225 58.478-58.225q11.101-11.261 26.461-11.308 15.36-.047 26.821 11.308 11.102 11.102 11.102 26.562t-11.102 26.561l-58.384 58.478 58.384 58.479q11.102 11.261 11.229 26.474.126 15.214-11.215 26.555-11.275 11.275-26.735 11.275-15.46 0-26.561-11.261l-58.478-58.145ZM232.391-73.304q-49.58 0-84.333-34.754-34.754-34.753-34.754-84.333v-63.812q0-30.848 21.938-52.902 21.938-22.055 53.018-22.055h45.363v-479.782q0-31.56 22.177-53.736 22.177-22.177 53.736-22.177h461.646q31.326 0 53.539 22.177 22.214 22.176 22.214 53.736v337.848q0 16-10.972 26.938-10.972 10.939-27.022 10.939-16.049 0-26.904-10.939-10.855-10.938-10.855-26.938v-337.848H309.536v479.782h215.457q15.98 0 27.008 10.972 11.028 10.972 11.028 27.022 0 16.05-11.028 26.905t-27.008 10.855H189.058v62.935q0 18.451 12.5 30.932 12.5 12.481 30.166 12.481h293.269q15.98 0 27.008 10.972 11.028 10.972 11.028 27.022 0 16.05-11.028 26.905t-27.008 10.855H232.391Zm322.725-75.754H189.058h351.435H538.987h16.129ZM398.674-627.146q-15.203 0-25.504-10.334-10.3-10.334-10.3-25.556 0-15.222 10.3-25.55 10.301-10.328 25.504-10.328h283.21q15.159 0 25.561 10.445 10.403 10.445 10.403 25.667 0 15.222-10.403 25.439-10.402 10.217-25.561 10.217h-283.21Zm0 125.261q-15.203 0-25.504-10.445-10.3-10.444-10.3-25.666t10.3-25.519q10.301-10.297 25.504-10.297h283.21q15.159 0 25.561 10.445 10.403 10.445 10.403 25.666 0 15.222-10.403 25.519-10.402 10.297-25.561 10.297h-283.21Z"/></svg>