<svg xmlns="http://www.w3.org/2000/svg" height="40" viewBox="0 -960 960 960" width="40"><path d="M756.333-639.877q-2.159 42.986 25.902 75.065 28.062 32.08 69.384 41.254 14.048 3.478 23.446 14.166 9.399 10.688 9.399 25.392 0 51.182-11.163 97.052-11.163 45.871-34.664 89.253-7 14.007-21.652 17.663-14.652 3.656-27.971-4.902-13.753-8.558-17.663-24.152-3.909-15.595 2.613-30.334 14.5-27 23.504-56.88 9.003-29.881 11.431-62.99-51.551-20.746-83.105-59.467-31.555-38.721-40.301-87.591-78.631-11.399-134.323-68.507-55.692-57.109-66.155-134.457-41.073-1.601-77.981 7.331-36.907 8.933-69.056 26.43-14.759 6.681-29.629 2.812-14.871-3.87-23.27-17.449-8.398-13.58-4.18-28.402 4.219-14.822 18.405-20.859 48.065-24.596 101.398-34.733 53.334-10.137 108.022-10.137 20.116 0 34.874 12.743 14.757 12.743 15.424 32.397 2 66.737 47.997 113.791 45.997 47.055 113.778 46.627 15.507 0 26.181 11.586 10.674 11.586 9.355 27.298Zm-416.411 281.21q-25.589 0-43.422-17.911-17.833-17.912-17.833-43.5 0-25.589 17.911-43.422 17.912-17.833 43.5-17.833 25.589 0 43.422 17.911 17.833 17.912 17.833 43.5 0 25.589-17.911 43.422-17.912 17.833-43.5 17.833ZM480.047-73.304q-85.815 0-160.088-31.372-74.272-31.371-129.092-86.191-54.82-54.82-86.191-129.092-31.372-74.273-31.372-160.088 0-67.107 19.32-126.744 19.318-59.637 54.702-109.767l-97.66-97.74q-10.318-10.395-10.398-24.828-.08-14.432 10.459-24.911 10.471-10.478 24.87-10.478 14.397 0 24.808 10.478l757.487 757.486q10.318 10.479 10.278 24.49-.039 14.01-10.528 24.489-10.403 10.318-24.707 10.318t-24.782-10.319l-90.595-89.753q-50.13 35.384-109.767 54.703-59.637 19.319-126.744 19.319ZM480-149.058q50.643 0 96.485-13.934 45.842-13.935 85.124-39.283L202.275-661.848q-25.348 39.282-39.283 85.107-13.934 45.825-13.934 96.741 0 140.242 95.468 235.592 95.468 95.35 235.474 95.35Zm-47.891-283.051Zm125.152-126.913Z"/></svg>