<svg xmlns="http://www.w3.org/2000/svg" height="40" viewBox="0 -960 960 960" width="40"><path d="M685.457-76.282V-198.79H274.543q-30.993 0-53.373-22.38t-22.38-53.373v-410.914H76.282q-16 0-26.938-10.972-10.938-10.972-10.938-27.021 0-16.05 10.938-26.905t26.938-10.855H198.79v-122.508q0-15.999 10.972-26.938 10.972-10.938 27.022-10.938 16.049 0 26.904 10.938 10.855 10.939 10.855 26.938v609.175h609.175q15.999 0 26.938 10.972 10.938 10.972 10.938 27.021 0 16.05-10.938 26.905-10.939 10.855-26.938 10.855H761.21v122.508q0 16-10.972 26.938-10.972 10.938-27.022 10.938-16.049 0-26.904-10.938t-10.855-26.938Zm0-264.928v-344.247H341.21v-75.753h344.247q30.993 0 53.373 22.38t22.38 53.373v344.247h-75.753Z"/></svg>