<svg xmlns="http://www.w3.org/2000/svg" height="40" viewBox="0 -960 960 960" width="40"><path d="M480-812.624 229.057-667.797 480-522.224l250.435-145.573L480-812.624ZM113.304-315.022v-329.956q0-20.326 9.906-37.702 9.906-17.377 27.971-27.936l290.942-167.645q9.616-5.399 18.617-7.757 9-2.359 19.196-2.359 10.196 0 19.684 2.391 9.488 2.392 18.257 7.725l290.942 167.645q18.065 10.559 28.051 27.936 9.985 17.376 9.985 37.702v153.769q0 16-11.066 26.938-11.065 10.938-27.101 10.938t-26.891-10.938q-10.855-10.938-10.855-26.938V-606.66L518.449-459.645q-17.739 10.435-37.876 10.768-20.138.333-37.877-10.101L189.058-605.993v290.638L455.82-161.68q8.524 4.919 13.671 13.454 5.148 8.536 5.148 19.142 0 21.778-18.899 32.667-18.898 10.889-37.797.374L151.181-249.384q-17.906-10.719-27.891-27.982-9.986-17.264-9.986-37.656ZM734.638 0q-79.667 0-136.5-56.433t-56.833-136.5q0-80.067 56.833-136.9 56.833-56.833 136.5-56.833t136.5 56.745q56.833 56.745 56.833 137.255 0 79.956-56.833 136.311Q814.305 0 734.638 0ZM480-480.181Zm276.899 281.59v-98.878q0-9.182-6.417-15.588-6.417-6.407-15.639-6.407-9.35 0-15.788 6.479-6.439 6.478-6.439 15.762v97.078q0 7.777 2.946 14.8 2.946 7.024 8.837 12.642l70.094 65.95q5.826 5.811 14.384 5.438 8.558-.373 14.29-6.219 6.399-6.512 6.065-15.036-.333-8.524-6.652-14.335l-65.681-61.686Z"/></svg>