<svg xmlns="http://www.w3.org/2000/svg" height="40" viewBox="0 -960 960 960" width="40"><path d="M73.304-723.21v-87.732q0-31.06 22.38-53.486 22.38-22.427 53.374-22.427h87.732q16 0 26.938 11.066 10.939 11.065 10.939 27.101t-10.939 26.891q-10.938 10.855-26.938 10.855h-87.732v87.732q0 16-10.972 26.938-10.972 10.939-27.022 10.939-16.05 0-26.905-10.939-10.855-10.938-10.855-26.938Zm75.754 649.906q-30.994 0-53.374-22.38-22.38-22.38-22.38-53.374v-87.732q0-16 10.972-26.938 10.972-10.939 27.022-10.939 16.05 0 26.905 10.939 10.855 10.938 10.855 26.938v87.732h87.732q16 0 26.938 10.972 10.939 10.972 10.939 27.022 0 16.05-10.939 26.905-10.938 10.855-26.938 10.855h-87.732Zm661.884 0H723.21q-16 0-26.938-10.972-10.939-10.972-10.939-27.022 0-16.05 10.939-26.905 10.938-10.855 26.938-10.855h87.732v-87.732q0-16 10.972-26.938 10.972-10.939 27.008-10.939t26.984 10.939q10.949 10.938 10.949 26.938v87.732q0 30.994-22.427 53.374-22.426 22.38-53.486 22.38Zm0-649.906v-87.732H723.21q-16 0-26.938-10.972-10.939-10.972-10.939-27.008t10.939-26.984q10.938-10.949 26.938-10.949h87.732q31.06 0 53.486 22.427 22.427 22.426 22.427 53.486v87.732q0 16-11.066 26.938-11.065 10.939-27.101 10.939t-26.891-10.939q-10.855-10.938-10.855-26.938Zm-271.52 130.927q-32.494 0-55.498-23.024-23.004-23.024-23.004-55.518t22.951-55.458q22.95-22.964 55.445-22.964 32.494 0 55.451 22.93 22.958 22.93 22.958 55.459 0 32.464-22.905 55.52-22.904 23.055-55.398 23.055Zm-33.031 355.058H351.348l42.964-219.565-85.407 38.515v97.347q0 15.442-10.532 25.863-10.532 10.42-25.945 10.42-15.414 0-25.87-10.54-10.457-10.54-10.457-25.982v-120.572q0-11.827 6.254-21.11t16.935-14.1l142.506-59.396q33.662-14.362 48.375-18.443 14.713-4.082 28.494-4.082 21.509 0 38.4 9.971t28.29 27.863l41.812 66q21.855 34.884 55.695 61.5 33.841 26.616 79.58 34.775 15.398 3.107 25.801 13.741 10.402 10.634 10.402 25.751t-10.451 25.78q-10.451 10.663-24.832 8.344-54.884-6.826-99.01-34.783-44.127-27.956-81.555-75.696l-36.406 158.399Z"/></svg>