<svg xmlns="http://www.w3.org/2000/svg" height="40" viewBox="0 -960 960 960" width="40"><path d="M154.369-113.304q-31.059 0-53.486-22.38-22.426-22.38-22.426-53.374v-581.884q0-31.06 22.426-53.486 22.427-22.427 53.486-22.427h581.646q31.059 0 53.486 22.427 22.427 22.426 22.427 53.486v64.372h34.91q14.742 0 24.724 9.979 9.981 9.979 9.981 24.741t-9.97 24.78q-9.969 10.018-24.718 10.018h-34.927v122.125h34.788q14.791 0 24.809 10.055t10.018 24.989q0 14.934-10.089 24.872t-24.838 9.938h-34.688v122.125h35.027q14.791 0 24.69 9.999 9.898 9.998 9.898 24.789 0 14.791-9.97 24.874-9.969 10.083-24.718 10.083h-34.927v64.145q0 30.994-22.427 53.374-22.427 22.38-53.486 22.38H154.369Zm0-75.754h581.646v-581.884H154.369v581.884Zm101.913-64.275h159.581q16 0 26.938-10.938 10.939-10.938 10.939-26.938v-110.914q0-16-10.939-26.939Q431.863-440 415.863-440H256.282q-16 0-26.938 10.938-10.939 10.939-10.939 26.939v110.914q0 16 10.939 26.938 10.938 10.938 26.938 10.938Zm267.551-317.334h111.146q15.442 0 26.102-10.659 10.659-10.66 10.659-26.102v-61.363q0-16-10.938-26.938-10.939-10.938-26.939-10.938H524.949q-16 0-26.938 10.938-10.938 10.938-10.938 26.938v61.363q0 15.442 10.659 26.102 10.659 10.659 26.101 10.659Zm-267.551 97.334h159.581q16 0 26.938-10.938 10.939-10.939 10.939-26.939v-157.581q0-16-10.939-26.938-10.938-10.938-26.938-10.938H256.282q-16 0-26.938 10.938-10.939 10.938-10.939 26.938v157.581q0 16 10.939 26.939 10.938 10.938 26.938 10.938Zm268.667 220h108.914q16 0 26.939-10.938 10.938-10.938 10.938-26.938v-208.248q0-16-10.938-26.939-10.939-10.938-26.939-10.938H524.949q-16 0-26.938 10.938-10.938 10.939-10.938 26.939v208.248q0 16 10.938 26.938 10.938 10.938 26.938 10.938Zm-370.58-517.609v581.884-581.884Z"/></svg>