<svg xmlns="http://www.w3.org/2000/svg" height="40" viewBox="0 -960 960 960" width="40"><path d="M479.983-73.304q-85.853 0-146.266-60.4t-60.413-146.37q0-50.484 22.254-95.115 22.254-44.63 65.08-69.76v-322.385q0-49.8 34.746-84.661 34.746-34.86 84.55-34.86 49.805 0 84.696 34.86 34.892 34.861 34.892 84.661v322.385q42.666 25.174 65 69.798 22.333 44.625 22.333 95.151 0 85.896-60.51 146.296-60.51 60.4-146.362 60.4ZM436.391-516.11h87.218v-48.188H480v-41.406h43.609v-82.594H480v-41.073h43.609v-37.964q0-18.434-12.611-31.021t-31.08-12.587q-18.469 0-30.998 12.587t-12.529 31.021v251.225Z"/></svg>