<svg xmlns="http://www.w3.org/2000/svg" height="40" viewBox="0 -960 960 960" width="40"><path d="M477.703-113.304q-138.036 0-239.475-89.566-101.439-89.565-119.794-223.363-2.717-14.614 7.479-26.086 10.195-11.472 26.352-12.457 15.177-.986 26.811 8.185 11.634 9.17 15.351 24.684 16.21 104.117 95.758 173.483t187.496 69.366q122.471 0 207.707-85.794 85.236-85.794 85.236-208.453 0-120.659-85.803-204.148-85.802-83.489-207.14-83.489-66.101 0-124.174 29.619-58.072 29.62-100.355 79.895h66.16q14.915 0 24.921 10.006t10.006 24.921q0 15.051-10.006 25.109-10.006 10.058-24.921 10.058h-151.87q-16.166 0-27.021-10.855t-10.855-27.022v-151.123q0-14.915 9.938-24.802 9.938-9.886 24.909-9.886 14.971 0 24.87 9.886 9.898 9.887 9.898 24.802v64.363q52.544-61.522 124.949-96.203 72.406-34.681 153.551-34.681 76.275 0 143.344 28.764 67.069 28.765 117.231 78.223 50.161 49.458 79.141 115.859 28.98 66.4 28.98 142.676 0 76.275-28.98 143.342-28.98 67.067-79.141 116.859-50.162 49.792-117.231 78.81-67.069 29.018-143.322 29.018Zm37.891-381.321L623.729-388.1q10.416 10.412 10.416 24.948 0 14.537-10.305 24.804-10.306 10.384-24.569 10.384-14.262 0-24.568-10.384L457.094-454.623q-5.891-5.732-8.503-12.632-2.613-6.899-2.613-14.651v-165.406q0-14.915 10.002-24.802Q465.981-682 480.889-682t24.807 9.886q9.898 9.887 9.898 24.802v152.687Z"/></svg>