<svg xmlns="http://www.w3.org/2000/svg" viewBox="0 -960 960 960" width="32" height="32"><path d="M194.92-73.3q-80.88 0-137.9-56.9Q0-187.09 0-268.05t56.99-137.94q56.98-56.98 137.83-56.98 81.04 0 138.02 56.99 56.99 56.98 56.99 137.83 0 81.04-57.01 137.94-57.01 56.91-137.9 56.91Zm-.08-73.84q50.91 0 86.03-35.01 35.12-35.01 35.12-85.88t-35.08-85.98q-35.07-35.12-85.99-35.12-50.91 0-86 35.04-35.08 35.04-35.08 85.96 0 50.91 35.04 85.95 35.04 35.04 85.96 35.04Zm338.09-493.7L430.12-537.36l66.01 70.77q10.28 10.83 15.57 24.25 5.3 13.43 5.3 28.04v184.7q0 15.68-10.74 26.34t-26.34 10.66q-15.61 0-26.18-10.66-10.58-10.66-10.58-26.34v-164.8L311.85-510.3q-11.89-10.15-17.63-24.16-5.73-14-5.73-29.46 0-15.31 6.08-28.91 6.07-13.6 16.8-24.5l118.72-118.56q11.43-11.43 25.99-17.24 14.57-5.81 30.54-5.81 16.32 0 31.29 5.57 14.96 5.57 26.61 17.23l78.37 78.36q24.12 24.13 53.72 39.94 29.6 15.8 62.74 20.88 14.97 2.76 23.72 15.26 8.75 12.5 6.15 27.47-2.6 14.96-15.13 23.71-12.52 8.74-27.47 6.09-44.79-6.91-85.2-27.62-40.41-20.7-72.51-52.81l-35.98-35.98Zm90.2-107.38q-31.93 0-54.61-22.58-22.69-22.58-22.69-54.64t22.64-54.74q22.63-22.69 54.64-22.69 32.01 0 54.69 22.61 22.69 22.61 22.69 54.72t-22.62 54.72q-22.62 22.6-54.74 22.6ZM765.18-73.3q-81.04 0-137.94-56.9-56.91-56.89-56.91-137.85t56.9-137.94q56.89-56.98 137.85-56.98t137.94 56.99Q960-349 960-268.15q0 81.04-56.99 137.94Q846.03-73.3 765.18-73.3Zm-.12-73.84q50.87 0 85.98-35.01 35.12-35.01 35.12-85.88t-35.04-85.98q-35.04-35.12-85.96-35.12-50.91 0-85.95 35.04-35.04 35.04-35.04 85.96 0 50.91 35.01 85.95 35.01 35.04 85.88 35.04Z"/></svg>