<svg xmlns="http://www.w3.org/2000/svg" height="40" viewBox="0 -960 960 960" width="40"><path d="M73.862-186.666v-580.53q0-31.326 22.214-53.54 22.214-22.213 53.54-22.213h254.102q31.326 0 53.539 22.213 22.214 22.214 22.214 53.54v87.58h330.913q31.326 0 53.54 22.214t22.214 53.539v417.197q0 31.493-22.214 53.623t-53.54 22.13H149.616q-31.326 0-53.54-22.13t-22.214-53.623Zm72.804 2.949h96.667v-96.667h-96.667v96.667Zm0-163.333h96.667v-96.668h-96.667v96.668Zm0-163.334h96.667v-96.667h-96.667v96.667Zm0-163.333h96.667v-96.667h-96.667v96.667Zm163.334 490h96.667v-96.667H310v96.667Zm0-163.333h96.667v-96.668H310v96.668Zm0-163.334h96.667v-96.667H310v96.667Zm0-163.333h96.667v-96.667H310v96.667Zm163.333 490h340.001v-423.334H473.333v96.667h80v66.666h-80v96.668h80v66.666h-80v96.667ZM650-443.718v-66.666h66.667v66.666H650Zm0 163.334v-66.666h66.667v66.666H650Z"/></svg>