<svg xmlns="http://www.w3.org/2000/svg" height="40" viewBox="0 -960 960 960" width="40"><path d="M266.666-70.913q-31.248 0-53.501-22.252-22.252-22.253-22.252-53.501v-666.668q0-31.314 22.252-53.613 22.253-22.3 53.501-22.3h426.668q31.314 0 53.613 22.3 22.3 22.299 22.3 53.613v666.668q0 31.248-22.3 53.5-22.299 22.253-53.613 22.253H266.666Zm0-75.753h426.668v-666.668H266.666v666.668Zm213.302-50.385q34.307 0 58.644-24.305 24.337-24.305 24.337-58.612t-24.305-58.644q-24.305-24.337-58.612-24.337t-58.644 24.305q-24.337 24.305-24.337 58.612t24.305 58.644q24.305 24.337 58.612 24.337Zm-.002-39.231q-17.76 0-30.722-12.996-12.962-12.995-12.962-31.089t12.996-30.722q12.995-12.629 31.089-12.629t30.722 12.579q12.629 12.578 12.629 31.173 0 17.76-12.579 30.722-12.578 12.962-31.173 12.962ZM480-423.718q15 0 24.167-9.166 9.166-9.167 9.166-24.167h-66.666q0 15.334 9.166 24.334Q465-423.718 480-423.718Zm-140.384-60h280.768q7.846 0 13.731-5.837Q640-495.391 640-503.333t-5.885-13.779q-5.885-5.837-13.731-5.837h-27.051V-612q0-45-20.666-77.167Q552-721.333 510-733.383v-12.667q0-12.892-8.667-21.142-8.666-8.25-21.333-8.25-12.667 0-21.333 8.25-8.667 8.25-8.667 21.138v12.663q-42 15.058-62.667 45.724Q366.667-657 366.667-612v89.051h-27.051q-7.846 0-13.731 5.837T320-503.333q0 7.942 5.885 13.778 5.885 5.837 13.731 5.837Zm-72.95 337.052v-666.668 666.668Z"/></svg>