<svg xmlns="http://www.w3.org/2000/svg" viewBox="0 -960 960 960" width="32" height="32"><path d="m367.93-113.3 155.76-155.76h285.13q32.31 0 55.17 22.83 22.87 22.84 22.87 55.11 0 32.27-22.87 55.04-22.86 22.78-55.17 22.78H367.93Zm-219.11-75.76h48.57l431.45-430.78-48.09-48.33-431.93 431.1v48.01ZM73.3-151.22v-85.25q0-15.14 6.01-29.34 6-14.2 16.37-24.62l536.48-535.72q9.65-9.4 22.4-14.72 12.76-5.32 26.75-5.32 13.47 0 26.2 5.24 12.73 5.24 23.19 14.89l56.36 55.97q10.32 10.39 15.1 23.4 4.77 13.01 4.77 26.14 0 13.38-5.11 26.55-5.12 13.17-14.76 22.84L250.91-135.68q-10.51 10.35-24.54 16.36-14.02 6.02-29.41 6.02h-85.73q-16.02 0-26.97-10.96-10.96-10.95-10.96-26.96Zm655.06-570-46.24-46.48 46.24 46.48Zm-123.61 77.14-24-24.09 48.09 48.33-24.09-24.24Z"/></svg>