<svg xmlns="http://www.w3.org/2000/svg" height="40" viewBox="0 -960 960 960" width="40"><path d="M240-149.319q-16 0-26.938-10.972-10.939-10.972-10.939-27.021 0-16.05 10.939-26.905Q224-225.072 240-225.072h25.239L345.66-490.79q7.463-24.202 27.355-39.242 19.891-15.04 45.079-15.04h123.812q25.188 0 45.079 15.04 19.892 15.04 27.355 39.242l80.421 265.718H720q16 0 26.938 10.972 10.939 10.972 10.939 27.022 0 16.049-10.939 26.904Q736-149.319 720-149.319H240Zm105.471-75.753h269.058l-73.29-244.247H418.761l-73.29 244.247Zm96.652-467.733v-120q0-16 10.972-27.018t27.022-11.018q16.05 0 26.905 11.018t10.855 27.018v120q0 16-10.972 26.939-10.972 10.938-27.022 10.938-16.05 0-26.905-10.938-10.855-10.939-10.855-26.939Zm220.08 60.428 85.08-85q11.261-10.355 26.661-10.735 15.4-.381 26.621 10.974 11.022 11.022 11.022 26.522 0 15.5-11.022 26.522l-85 86q-11.355 11.355-26.681 11.355t-26.681-11.391q-11.514-11.39-11.514-27.141 0-15.751 11.514-27.106Zm116.66 194.5h120q16 0 26.938 10.972 10.938 10.972 10.938 27.022 0 16.05-10.938 26.905t-26.938 10.855h-120q-16 0-26.939-10.972-10.938-10.972-10.938-27.022 0-16.05 10.938-26.905 10.939-10.855 26.939-10.855ZM244.435-579.094l-85-85q-10.355-11.022-10.736-26.422-.38-15.4 10.975-26.622 11.021-11.261 26.521-11.261t26.761 11.022l85.761 85q11.355 11.355 11.355 26.681t-11.39 26.681q-11.39 11.515-27.141 11.395-15.751-.119-27.106-11.474ZM61.137-362.123q-16 0-26.938-10.972-10.938-10.972-10.938-27.022 0-16.05 10.938-26.905t26.938-10.855h120q16 0 27.018 10.972t11.018 27.022q0 16.05-11.018 26.905t-27.018 10.855h-120ZM480-225.072Z"/></svg>