<svg xmlns="http://www.w3.org/2000/svg" height="40" viewBox="0 -960 960 960" width="40"><path d="M689.658-508.76q-14.208 0-26.183-9.41-11.975-9.409-11.975-28.467v-222.182q0-15.98 10.972-27.008 10.972-11.028 27.102-11.028 16.129 0 26.984 11.028t10.855 27.008v222.182q0 19.058-11.754 28.467-11.753 9.41-26.001 9.41ZM153.304-191.181v-577.638q0-15.98 10.972-27.008 10.972-11.028 27.022-11.028 16.05 0 26.905 11.028t10.855 27.008v577.638q0 16-10.972 26.938-10.972 10.939-27.022 10.939-16.05 0-26.905-10.939-10.855-10.938-10.855-26.938Zm249.058-489.841v-87.797q0-15.98 10.972-27.008 10.972-11.028 27.022-11.028 16.05 0 26.905 11.028t10.855 27.008v87.797q0 16-10.972 26.939-10.972 10.938-27.022 10.938-16.049 0-26.905-10.938-10.855-10.939-10.855-26.939Zm0 244.761v-87.717q0-16 10.972-26.939 10.972-10.938 27.022-10.938 16.05 0 26.905 10.938 10.855 10.939 10.855 26.939v87.717q0 16-10.972 26.939-10.972 10.938-27.022 10.938-16.049 0-26.905-10.938-10.855-10.939-10.855-26.939Zm0 245.08v-87.797q0-15.98 10.972-27.008 10.972-11.028 27.022-11.028 16.05 0 26.905 11.028t10.855 27.008v87.797q0 16-10.972 26.938-10.972 10.939-27.022 10.939-16.049 0-26.905-10.939-10.855-10.938-10.855-26.938Zm195.515 37.877q-16 0-26.939-10.939Q560-175.181 560-191.181v-75.203q0-7.254 2.732-13.955 2.732-6.701 8.623-12.661l210.662-209.849q9.66-9.638 21.427-14.032 11.768-4.394 23.563-4.394 12.78 0 24.455 4.858 11.676 4.859 21.393 14.417l37 37q9.305 9.558 13.71 21.236 4.406 11.677 4.406 23.474 0 12.036-4.617 24.139t-14.221 21.814L699.855-164.42q-5.952 5.891-12.643 8.503-6.692 2.613-14.132 2.613h-75.203ZM863.986-420.29l-37-37 37 37Zm-240 203h38l120.202-121.166-18-19.019-19-18.018-121.202 120.165v38.038Zm140.202-140.203-19-18 37 37-18-19Z"/></svg>