<svg xmlns="http://www.w3.org/2000/svg" height="40" viewBox="0 -960 960 960" width="40"><path d="M414.051-192.072v-173.196l-150.363 86.717q-24.058 13.355-50.021 7.011-25.964-6.344-39.558-30.735-13.355-24.058-6.891-50.355 6.463-26.297 30.521-39.892L348.261-480l-149.616-86.638q-24.058-13.355-30.974-39.699-6.917-26.344 6.438-50.402 13.514-23.899 39.637-30.442 26.124-6.543 50.181 6.971l150.124 86.478v-174.355q0-27.551 19.119-46.67 19.12-19.12 46.83-19.12 27.71 0 46.83 19.12 19.119 19.119 19.119 46.67v174.355l150.363-86.717q24.058-13.355 50.021-6.891 25.964 6.463 39.319 30.521 13.594 24.138 6.67 50.482-6.924 26.344-31.061 39.699L611.898-480l150.363 87.478q24.058 13.515 30.521 39.852 6.464 26.337-7.13 50.489-13.355 24.058-39.319 30.521-25.963 6.464-50.021-6.891l-150.363-86.717v173.196q0 27.71-19.119 46.829-19.12 19.12-46.83 19.12-27.71 0-46.83-19.12-19.119-19.119-19.119-46.829Z"/></svg>