<svg xmlns="http://www.w3.org/2000/svg" height="40" viewBox="0 -960 960 960" width="40"><path d="M479.766-136.435q-13.638 0-27.333-4.843-13.696-4.844-24.322-15.461l-58.473-53.978Q251.957-319 162.63-421.257 73.304-523.515 73.304-640q0-94.4 63.075-157.667 63.074-63.268 156.715-63.268 51.348 0 100.109 22.997 48.761 22.996 86.558 72.373 41.131-49.377 87.891-72.373 46.761-22.997 98.776-22.997 93.866 0 157.187 63.268Q886.935-734.4 886.935-640q0 116.485-89.518 218.909-89.519 102.425-207.707 210.947l-58.239 53.652q-10.522 10.529-24.194 15.293-13.672 4.764-27.511 4.764Zm-31.36-547.862q-26.551-45.217-67.163-73.051-40.613-27.834-88.085-27.834-62.9 0-103.5 40.967-40.6 40.966-40.6 104.501 0 55.314 37.928 116.8t90.72 119.294q52.792 57.808 109.255 107.876 56.463 50.069 92.831 83.462 36.458-33 92.91-83.381 56.452-50.38 109.292-108.536t91.014-119.522q38.174-61.367 38.174-116.313 0-63.169-41.088-104.158-41.086-40.99-103.55-40.99-48.319 0-88.559 27.501-40.239 27.5-67.964 73.384-5.817 9.225-13.673 13.504-7.855 4.279-17.334 4.279-9.478 0-17.44-4.279-7.961-4.279-13.168-13.504ZM480-498.812Z"/></svg>