<svg xmlns="http://www.w3.org/2000/svg" height="40" viewBox="0 -960 960 960" width="40"><path d="M113.304-151.181v-657.638q0-15.98 10.972-27.008 10.972-11.028 27.022-11.028 16.05 0 26.905 11.028t10.855 27.008v657.638q0 16-10.972 26.938-10.972 10.939-27.022 10.939-16.05 0-26.905-10.939-10.855-10.938-10.855-26.938Zm657.638 0v-657.638q0-15.98 10.972-27.008 10.972-11.028 27.008-11.028t26.984 11.028q10.949 11.028 10.949 27.008v657.638q0 16-11.066 26.938-11.065 10.939-27.101 10.939t-26.891-10.939q-10.855-10.938-10.855-26.938ZM479.883-442.123q-16.05 0-26.905-10.972t-10.855-27.022q0-16.05 10.972-26.905t27.022-10.855q16.05 0 26.905 10.972t10.855 27.022q0 16.05-10.972 26.905t-27.022 10.855Zm-164.37 0q-15.962 0-26.86-10.972-10.899-10.972-10.899-27.022 0-16.05 11.033-26.905 11.034-10.855 27.022-10.855 15.988 0 26.923 10.972 10.934 10.972 10.934 27.022 0 16.05-11.061 26.905-11.062 10.855-27.092 10.855Zm328.917 0q-15.988 0-26.923-10.972-10.934-10.972-10.934-27.022 0-16.05 11.061-26.905 11.062-10.855 27.092-10.855 15.962 0 26.861 10.972 10.898 10.972 10.898 27.022 0 16.05-11.033 26.905-11.034 10.855-27.022 10.855Z"/></svg>