<svg xmlns="http://www.w3.org/2000/svg" height="40" viewBox="0 -960 960 960" width="40"><path d="M349.442-277.754q-29.152 0-50.42-21.308t-21.268-50.38v-425.725q0-29.152 21.268-50.42t50.42-21.268h425.486q29.071 0 50.38 21.268 21.308 21.268 21.308 50.42v425.725q0 29.072-21.308 50.38-21.309 21.308-50.38 21.308H349.442Zm4.224-75.912h417.037v-417.276H353.666v417.276ZM151.002-606.573q-15.988 0-26.843-11.061-10.855-11.062-10.855-27.092 0-15.962 11.002-26.861 11.001-10.898 26.942-10.898 15.94 0 26.875 11.033 10.935 11.034 10.935 27.022 0 15.988-11.034 26.923-11.033 10.934-27.022 10.934Zm0 164.45q-15.988 0-26.843-10.972t-10.855-27.022q0-16.05 11.002-26.905 11.001-10.855 26.942-10.855 15.94 0 26.875 10.972t10.935 27.022q0 16.05-11.034 26.905-11.033 10.855-27.022 10.855Zm0 164.369q-15.988 0-26.843-11.033-10.855-11.034-10.855-27.022 0-15.988 11.002-26.923 11.001-10.934 26.942-10.934 15.94 0 26.875 11.061 10.935 11.062 10.935 27.092 0 15.962-11.034 26.86-11.033 10.899-27.022 10.899Zm0 164.45q-15.988 0-26.843-11.002-10.855-11.001-10.855-26.942 0-15.94 11.002-26.875 11.001-10.935 26.942-10.935 15.94 0 26.875 11.034 10.935 11.033 10.935 27.022 0 15.988-11.034 26.843-11.033 10.855-27.022 10.855Zm164.511 0q-15.962 0-26.86-11.002-10.899-11.001-10.899-26.942 0-15.94 11.033-26.875 11.034-10.935 27.022-10.935 15.988 0 26.923 11.034 10.934 11.033 10.934 27.022 0 15.988-11.061 26.843-11.062 10.855-27.092 10.855Zm164.37 0q-16.05 0-26.905-11.002-10.855-11.001-10.855-26.942 0-15.94 10.972-26.875t27.022-10.935q16.05 0 26.905 11.034 10.855 11.033 10.855 27.022 0 15.988-10.972 26.843t-27.022 10.855Zm164.547 0q-15.988 0-26.923-11.002-10.934-11.001-10.934-26.942 0-15.94 11.061-26.875 11.062-10.935 27.092-10.935 15.962 0 26.861 11.034 10.898 11.033 10.898 27.022 0 15.988-11.033 26.843-11.034 10.855-27.022 10.855Z"/></svg>