<svg xmlns="http://www.w3.org/2000/svg" height="40" viewBox="0 -960 960 960" width="40"><path d="M702.449-444.522v84.573q0 15.325-10.328 25.644-10.327 10.319-25.666 10.319t-25.636-10.319q-10.297-10.319-10.297-25.644v-66.218l-43.203-78.789q-15.545 2.282-25.374 14.427-9.829 12.145-9.829 27.942v223.682L620.13-127.29q10.638 18.102.299 36.044-10.338 17.942-31.602 17.942-9.566 0-17.831-4.399Q562.732-82.1 558-90.326L480.348-218.55v-244.036q0-35.641 19.609-64.324 19.608-28.683 51.92-41.842l-65.666-118.434q-20.747-38.603-17.301-81.766 3.445-43.163 33.496-73.054l35.261-35.406q11.688-11.689 28.467-11.029 16.779.659 27.134 13.348L830.544-597.58q7.72 9.669 12.563 20.288 4.842 10.618 6.082 22.814l35 442.13q1.173 16.116-9.282 27.58-10.455 11.464-26.652 11.464-14.305 0-24.436-9.431-10.13-9.431-11.463-23.914l-35.761-444.04L563-801.015l-10.217 10.217q-11.478 12.083-13.775 28.274-2.298 16.191 5.383 30.647l158.058 287.355Zm-444.55 0 158.058-287.355q7.521-14.456 5.242-30.647t-13.634-28.274l-10.217-10.217-213.595 250.326-35.92 444.247q-1.333 14.13-11.384 23.634t-24.394 9.504q-16.238 0-26.733-11.43-10.496-11.43-9.163-27.614l35.667-442.13q1.08-12.196 5.558-22.797 4.478-10.602 12.181-20.305L366.92-875.094q10.515-12.689 27.221-13.348 16.707-.66 28.395 11.029l35.406 35.406q30.051 29.891 33.496 73.054 3.446 43.163-17.343 81.766l-65.784 118.434q32.312 13.159 52 41.842Q480-498.228 480-462.587v244.036L402.348-90.326q-4.891 8.225-13.203 12.623-8.312 4.399-17.875 4.399-20.591 0-30.887-18.141-10.296-18.142.501-35.924l67.348-111.536v-223.682q0-15.797-9.829-27.942t-25.374-14.427l-43.203 78.789v66.218q0 15.325-10.328 25.644-10.328 10.319-25.667 10.319-15.338 0-25.635-10.319-10.297-10.319-10.297-25.644v-84.573Z"/></svg>