<svg xmlns="http://www.w3.org/2000/svg" height="40" viewBox="0 -960 960 960" width="40"><path d="M727.522-179.565q39.377 0 66.225-26.808 26.848-26.808 26.848-66.325 0-39.516-26.848-66.304-26.848-26.788-66.305-26.788-39.457 0-66.344 26.788-26.888 26.788-26.888 66.304 0 39.517 26.902 66.325 26.901 26.808 66.41 26.808Zm-5.384 108.036q-12.877 0-23.014-8.772-10.138-8.771-12.044-21.559l-3.094-22.705q-18.696-6.014-34.385-15.315-15.688-9.301-28.13-20.236l-19.964 8.254q-12.459 5.145-24.878.706-12.419-4.438-19.738-15.648l-5.811-9.464q-7.319-11.971-5.159-25.301 2.159-13.329 13.21-22.221l16.536-13.536q-4.16-15.939-4.16-35.172 0-19.234 4.16-35.104l-16.536-13.775q-11.051-8.773-13.21-22.213-2.16-13.439 5.159-25.403l6.145-9.797q7.319-11.637 19.782-15.742 12.464-4.105 24.928.96l19.536 8.094q12.442-10.109 28.13-19.37 15.689-9.261 34.385-15.275l3.094-23.416q1.906-12.838 12.114-21.562 10.208-8.725 22.993-8.725h11.238q12.575 0 22.174 8.393t12.205 21.44l3.761 23.87q18.696 6.014 34.384 15.275 15.689 9.261 28.131 19.37l19.297-8.014q12.464-4.747 24.975-.841 12.51 3.906 19.989 15.543l5.88 9.452q7.569 11.829 5.29 25.603-2.279 13.774-13.17 22.597l-16.536 13.548q4.014 15.951 4.014 35.199 0 19.247-4.014 35.065l16.536 13.536q10.891 8.808 13.17 22.299t-5.279 25.129l-5.906 10.224q-7.319 11.211-19.692 15.076-12.374 3.866-24.829-1.04l-19.725-8.014q-12.442 10.935-28.131 20.236-15.688 9.301-34.384 15.315l-3.983 23.468q-2.191 12.786-11.829 21.177-9.639 8.391-22.331 8.391h-11.284Zm-573.08-157.529v-501.884 206.392-15.421 310.913Zm0 75.754q-30.994 0-53.374-22.714-22.38-22.713-22.38-53.04v-501.884q0-30.393 22.38-53.153 22.38-22.76 53.374-22.76h230.58q15.304 0 29.369 6.09 14.066 6.091 24.48 16.505l47.252 47.18h330.203q30.393 0 53.153 22.713 22.76 22.713 22.76 53.04v126.9q0 16-11.066 26.939-11.065 10.938-27.101 10.938t-26.891-10.938q-10.855-10.939-10.855-26.939v-126.9H449.254l-69.616-69.615h-230.58v501.884h315.87q16 0 26.939 10.972 10.938 10.972 10.938 27.022 0 16.05-10.938 26.905-10.939 10.855-26.939 10.855h-315.87Z"/></svg>