<svg xmlns="http://www.w3.org/2000/svg" height="40" viewBox="0 -960 960 960" width="40"><path d="M156.652-158.935q-31.536 0-53.71-22.174t-22.174-53.789v-40q0-31.457 22.174-53.631t53.71-22.174q31.536 0 53.71 22.174t22.174 53.631v40q0 31.615-22.174 53.789-22.174 22.174-53.71 22.174ZM842-164.036h-56.645q-9.681 0-15.29-7.417-5.608-7.417-3.289-16.453l9.666-36.463q2.08-6.797 7.799-11.029t13.15-2.899l49.421 7.333q12.717 2.319 20.934 11.203 8.218 8.884 8.218 21.724 0 13.79-10.095 23.895-10.095 10.106-23.869 10.106Zm-152.761-15.942-103.906-34.167q-7.782-2.572-11.594-10.275-3.811-7.703 0-15.247l27.812-62.891q3.652-7.782 11.442-10.735 7.79-2.953 15.413 1.938l87 51.072q5.652 2.812 7.844 8.498t.858 11.894l-9.999 46.079q-2.08 8.449-9.597 12.428-7.517 3.978-15.273 1.406Zm-186.797-70.24-69.645-17.818q-12.05-3.573-19.648-12.886-7.598-9.313-7.598-22.078v-36.941q0-19.681 6.319-37.341 6.318-17.66 21.13-29.312 5.558-4.692 12.022-5.839 6.464-1.147 12.848 2.172l91.883 51.5q6.464 3.812 8.337 10.576 1.874 6.765-.779 13.388l-32.572 74.224q-2.578 6.409-9.126 9.462t-13.171.893ZM302-284.036q-7.422 0-12.274-5.151-4.852-5.15-6.69-13.161-8.413-45.884-42.839-73.786T160-404.036h-20q-6.956 0-11.46-4.504-4.504-4.504-4.504-11.46 0-6.956 4.504-11.46 4.504-4.504 11.46-4.504h36q20.348 0 39.362-5.253 19.015-5.254 35.855-15.935 4.197-2.652 9.048-2.652t9.235 2.652q20.427 12.428 40.877 16.808 20.449 4.38 39.21 4.38 11.174 0 16.782 9.95 5.609 9.949.276 20.717-7.855 15.174-11.142 31.887-3.286 16.714-3.286 33.41v36.906q0 7.495-5.622 13.276-5.621 5.782-13.356 5.782H302ZM176.563-489.297q-40.435 0-67.836-26.622-27.4-26.622-27.4-66.269 0-18.805 6.825-36.486 6.826-17.681 19.971-30.667l53.203-53.203v-64.123q0-15.326 10.319-25.645 10.319-10.318 25.645-10.318 15.258 0 25.531 10.318 10.273 10.319 10.273 25.645v63.493q0 15.122-6.092 28.846-6.093 13.724-16.705 24.321l-50.347 51.144q-3.307 3.301-5.122 7.251-1.814 3.951-1.814 8.235 0 8.912 6.393 15.373 6.392 6.461 15.208 6.461 6.479 0 19.16-9.058 13.744-11.599 29.916-19.032 16.171-7.432 36.309-7.432 20.138 0 36.141 7.432 16.004 7.433 29.605 19.032 4.348 3.934 8.918 6.496 4.569 2.562 10.365 2.562 8.913 0 15.276-6.447 6.362-6.447 6.362-15.339 0-4.324-1.806-8.275-1.805-3.951-5.102-7.252l-50.056-51.151q-10.891-10.892-17.083-24.417-6.192-13.525-6.192-28.75v-63.493q0-15.326 10.328-25.645 10.327-10.318 25.666-10.318t25.636 10.318q10.297 10.319 10.297 25.645v64.123l53.169 53.17q13.179 13.178 20.005 30.675 6.826 17.496 6.826 36.358 0 39.479-27.372 66.261-27.373 26.783-67.765 26.783-18.145-.667-33.987-8.205-15.841-7.539-29.434-19.02-4.746-3.746-9.478-6.54-4.732-2.793-10.558-2.793-6.283 0-19.877 9.333-13.652 11.652-29.626 18.931-15.974 7.279-33.695 8.294Zm83.198-313.333Z"/></svg>