<svg xmlns="http://www.w3.org/2000/svg" height="40" viewBox="0 -960 960 960" width="40"><path d="M259.015-192.717q-20.018 0-34.027-14.037-14.009-14.036-14.009-34.093 0-19.99 14.009-33.887 14.009-13.896 34.027-13.896h95.905l130.834-387.088H376.131q-19.951 0-33.914-13.99-13.963-13.991-13.963-33.98 0-19.99 13.963-33.887 13.963-13.896 33.914-13.896h300q19.95 0 33.913 13.99 13.963 13.991 13.963 33.98 0 19.99-13.963 33.887-13.963 13.896-33.913 13.896h-89.24L456.058-288.63h102.957q19.95 0 33.913 14.007 13.963 14.008 13.963 34.022t-13.963 33.949q-13.963 13.935-33.913 13.935h-300Z"/></svg>