<svg xmlns="http://www.w3.org/2000/svg" height="40" viewBox="0 -960 960 960" width="40"><path d="m326.152-934.515 322.254 322.762q24.833 24.695 24.833 60.77 0 36.074-24.833 60.773L468.558-310.123q-24.83 24.674-59.223 24.674t-59.226-24.674L170.421-490.21q-24.834-24.679-24.834-60.729 0-36.051 24.834-60.734l187.022-187.356-83.689-83.689q-11.037-11.203-10.656-25.982.38-14.778 11.416-26.075 10.877-10.522 25.819-10.569 14.942-.047 25.819 10.829Zm83.421 187.616-192.348 191.79h384.217l-191.869-191.79ZM758.67-272.456q-31.815 0-54.166-22.42-22.352-22.42-22.352-54.259 0-18.944 9.899-40.72 9.898-21.775 24.71-43.253 8.652-13.145 19.652-27.638 11-14.493 22.478-27.638 11.479 13.145 22.727 27.663 11.249 14.518 19.962 27.613 14.652 21.478 24.391 43.263 9.739 21.784 9.739 40.696 0 31.79-22.613 54.241-22.612 22.452-54.427 22.452ZM148.021.667q-28.085 0-48.053-20.255Q80-39.843 80-68.164t20.283-48.219q20.283-19.899 48.644-19.899h663.052q28.085 0 48.053 19.997Q880-96.289 880-68.162q0 28.126-20.283 48.477Q839.434.667 811.073.667H148.021Z"/></svg>