<svg xmlns="http://www.w3.org/2000/svg" height="40" viewBox="0 -960 960 960" width="40"><path d="m204.834-660.305-51.885 51.124q-11.022 10.355-26.355 10.355t-26.688-11.276q-11.102-11.021-11.102-26.521t11.102-26.601l116.203-116.204q5.891-5.891 12.514-8.576 6.623-2.685 14.247-2.685 7.463 0 14.087 2.685 6.623 2.685 12.514 8.576l116.203 116.283q11.022 11.181 11.069 26.555.047 15.373-11.069 26.488-11.022 11.182-26.474 10.895-15.453-.286-26.569-10.641l-51.885-50.457v361.943l51.885-51.123q11.022-10.355 26.395-10.355t26.648 11.115q11.022 11.182 11.022 26.602t-11.022 26.442L269.471-179.239q-5.891 5.891-12.514 8.576-6.624 2.685-14.087 2.685-7.624 0-14.247-2.685t-12.514-8.576L99.826-295.681q-11.181-11.022-11.228-26.395-.047-15.373 11.308-26.649 11.021-11.021 26.474-10.735 15.453.286 26.569 10.641l51.885 50.457v-361.943Zm324.999 467.001q-16.166 0-27.021-10.855t-10.855-27.022q0-16.167 10.855-27.022 10.855-10.855 27.021-10.855h318.986q16.167 0 27.101 10.855 10.935 10.855 10.935 27.022 0 16.167-10.935 27.022-10.934 10.855-27.101 10.855H529.833Zm0-248.819q-16.166 0-27.021-10.855T491.957-480q0-16.167 10.855-27.022 10.855-10.855 27.021-10.855h318.986q16.167 0 27.101 10.855 10.935 10.855 10.935 27.022 0 16.167-10.935 27.022-10.934 10.855-27.101 10.855H529.833Zm0-249.059q-16.166 0-27.021-10.855t-10.855-27.021q0-16.167 10.855-27.022 10.855-10.855 27.021-10.855h318.986q16.167 0 27.101 10.855 10.935 10.855 10.935 27.022 0 16.166-10.935 27.021-10.934 10.855-27.101 10.855H529.833Z"/></svg>