<svg xmlns="http://www.w3.org/2000/svg" height="40" viewBox="0 -960 960 960" width="40"><path d="M186.159-155.456q-16 0-26.938-10.855-10.939-10.856-10.939-27.022v-573.334q0-16 10.972-26.938 10.972-10.939 27.022-10.939 16.05 0 26.905 10.939 10.855 10.938 10.855 26.938v573.334q0 15.5-10.939 26.688-10.938 11.189-26.938 11.189ZM523.361-611.21q-16.049 0-26.904-10.939-10.855-10.938-10.855-27.098v-117.42q0-16 10.972-26.938 10.972-10.939 27.021-10.939 16.05 0 26.905 10.939 10.855 10.938 10.855 26.938v117.42q0 15.66-10.972 26.848-10.972 11.189-27.022 11.189ZM696.21-364.254q-11.399 11.355-27.043 11.236-15.645-.12-27-11.475-11.116-11.275-11.235-26.242-.12-14.968 10.916-26.482l24.906-24.906H355.406q-15.66 0-26.848-10.939Q317.37-464 317.37-480q0-16 10.855-26.938 10.855-10.939 27.181-10.939h311.348l-24.906-25.065q-11.036-11.355-10.916-26.323.119-14.967 11.27-26.242 11.39-11.355 27.141-11.355 15.751 0 27.107 11.355l88.746 88.746q11.355 11.355 11.355 26.761 0 15.406-11.355 26.761l-88.986 88.985ZM523.478-155.456q-16 0-26.938-10.855-10.938-10.856-10.938-27.022v-117.58q0-16 10.972-26.938 10.972-10.939 27.021-10.939 16.05 0 26.905 10.939 10.855 10.938 10.855 26.938v117.58q0 15.5-10.938 26.688-10.939 11.189-26.939 11.189Z"/></svg>