<svg xmlns="http://www.w3.org/2000/svg" viewBox="0 -960 960 960" width="32" height="32"><path d="M853.74-121.75q-7.09 0-14.05-2.7-6.96-2.69-12.93-8.66l-96.53-96.53H312.25q-31.5 0-53.63-22.17-22.13-22.18-22.13-53.74v-66.67h436.58q31.32 0 53.53-22.13 22.22-22.13 22.22-53.62v-276.25h66.67q31.56 0 53.73 22.17 22.18 22.18 22.18 53.74v488.43q0 17.48-11.84 27.8-11.84 10.33-25.82 10.33ZM144.51-458.3l56.34-56.34H606.4v-301.64H144.51v357.98Zm-38.04 129.48q-14.25 0-26.06-10.32-11.81-10.32-11.81-27.81v-449.33q0-31.56 22.18-53.74 22.17-22.18 53.73-22.18H606.4q31.32 0 53.54 22.18 22.21 22.18 22.21 53.74v301.64q0 31.5-22.21 53.63-22.22 22.13-53.54 22.13H231.79l-98.63 98.55q-6.13 6.13-12.97 8.82-6.84 2.69-13.72 2.69Zm38.04-185.82v-301.64 301.64Z"/></svg>