<svg xmlns="http://www.w3.org/2000/svg" height="40" viewBox="0 -960 960 960" width="40"><path d="M148.775-161.935q-48.818 0-82.782-34.078-33.964-34.079-33.964-82.762v-266.378q0-29.149 20.591-49.741 20.592-20.592 49.742-20.592h218.725v-162.123q0-16 10.938-26.938 10.939-10.939 26.939-10.939h168.862q49.584 0 84.586 35.148 35.001 35.148 35.001 85.599v165.123h54.001v-46.341q0-14.795 5.918-28.795 5.919-14.001 16.045-24.342l38.421-38.833q13.673-13.674 32.804-10.783 19.13 2.891 27.927 20.616l119.123 230.927q9.718 19.058-1.423 37.058-11.142 18-32.946 18H771.747q-29.15 0-49.742-20.591-20.591-20.592-20.591-49.742v-13.334h-54.001v88.487q20 17.007 30.62 39.986 10.619 22.98 10.619 48.528 0 48.683-34.078 82.762-34.079 34.078-82.762 34.078-37.812 0-67.732-21.88-29.921-21.881-42.58-57.214H259.075q-12.706 35.333-42.658 57.214-29.951 21.88-67.642 21.88Zm-.139-72.246q18.915 0 31.951-12.799 13.036-12.799 13.036-31.72 0-19.104-12.799-31.967-12.8-12.862-31.72-12.862-19.104 0-31.967 12.787-12.862 12.788-12.862 31.812 0 19.025 12.813 31.887 12.812 12.862 31.548 12.862Zm423.021 0q19.025 0 31.887-12.799 12.862-12.799 12.862-31.72 0-19.104-12.799-31.967-12.799-12.862-31.72-12.862-19.104 0-31.966 12.787-12.863 12.788-12.863 31.812 0 19.025 12.788 31.887 12.787 12.862 31.811 12.862Zm-250.57-81.594v-225.87H105.869v155.834q9.79-4.616 20.866-7.29 11.076-2.674 22.294-2.674 37.741 0 67.935 22.214 30.194 22.214 42.123 57.786h62Zm73.84 0h65.907q11.478-34.536 40.848-56.63 29.369-22.095 66.144-23.131h6.667v-60.24H394.927v140.001Zm456.574-128.58L780.66-579.71q-3.174 2.159-4.92 5.413-1.747 3.254-1.747 7.254v122.688h77.508Zm-456.574-85.261h179.566v-165.123q0-19.935-13.416-33.421-13.417-13.485-33.251-13.485H394.927v212.029Zm-73.84 213.841v-80 9.964-155.834 225.87Zm73.84 0v-140.001 140.001Z"/></svg>