<svg xmlns="http://www.w3.org/2000/svg" height="40" viewBox="0 -960 960 960" width="40"><path d="M189.058-189.058h93.5q15.98 0 27.008 10.972 11.028 10.972 11.028 27.022 0 16.05-11.028 26.905t-27.008 10.855H151.181q-16 0-26.938-10.939-10.939-10.938-10.939-26.938v-131.377q0-15.98 10.972-27.008 10.972-11.028 27.022-11.028 16.05 0 26.905 11.028t10.855 27.008v93.5Zm581.884 0v-93.5q0-15.98 10.972-27.008 10.972-11.028 27.008-11.028t26.984 11.028q10.949 11.028 10.949 27.008v131.377q0 16-11.028 26.938-11.028 10.939-27.008 10.939H677.742q-16.22 0-27.159-10.972-10.938-10.972-10.938-27.022 0-16.05 10.938-26.905 10.939-10.855 27.098-10.855h93.261ZM189.058-770.942v93.261q0 16.159-10.972 27.098-10.972 10.938-27.022 10.938-16.05 0-26.905-10.938-10.855-10.939-10.855-27.159v-131.077q0-15.98 10.939-27.008 10.938-11.028 26.938-11.028h131.377q15.98 0 27.008 11.066 11.028 11.065 11.028 27.101t-11.028 26.891q-11.028 10.855-27.008 10.855h-93.5Zm581.884 0h-93.261q-16.159 0-27.098-10.972-10.938-10.972-10.938-27.008t10.938-26.984q10.939-10.949 27.159-10.949h131.077q15.98 0 27.008 11.028 11.028 11.028 11.028 27.008v131.077q0 16.22-11.066 27.159-11.065 10.938-27.101 10.938t-26.891-10.938q-10.855-10.939-10.855-27.098v-93.261Z"/></svg>