<svg xmlns="http://www.w3.org/2000/svg" height="40" viewBox="0 -960 960 960" width="40"><path d="M501.79-480 245.898-717.826q-5.874-5.529-9.234-12.939-3.36-7.409-3.36-15.366v-22.088q0-16.326 10.969-27.481 10.969-11.155 27.335-11.155h395.856q24.746 0 42.069 17.342 17.322 17.343 17.322 42.118 0 24.875-17.322 42.138-17.323 17.264-42.069 17.264H422.492l192.385 180.471q12.355 11.397 12.355 27.543t-12.355 27.501L422.492-272.007h244.972q24.746 0 42.069 17.31 17.322 17.31 17.322 42.038 0 24.828-17.322 42.091-17.323 17.264-42.069 17.264H261.572q-11.697 0-19.982-8.274-8.286-8.274-8.286-19.954v-36.682q0-6.01 1.955-11.52 1.954-5.51 6.828-9.548L501.79-480Z"/></svg>