<svg xmlns="http://www.w3.org/2000/svg" height="40" viewBox="0 -960 960 960" width="40"><path d="M194.13-155.456q-16 0-26.938-10.939-10.938-10.938-10.938-26.938v-413.334q0-16 10.938-26.938 10.938-10.939 26.938-10.939h78.884q16 0 26.939 10.939 10.938 10.938 10.938 26.938v413.334q0 16-10.938 26.938-10.939 10.939-26.939 10.939H194.13Zm212.725 0q-16.159 0-27.098-10.939-10.938-10.938-10.938-26.938v-213.334q0-16 10.938-26.938 10.939-10.939 27.098-10.939h78.725q16 0 26.938 10.939 10.938 10.938 10.938 26.938v213.334q0 16-10.938 26.938-10.938 10.939-26.938 10.939h-78.725Zm280.609 0q-16 0-26.938-10.939-10.939-10.938-10.939-26.938v-573.334q0-16 10.939-26.938 10.938-10.939 26.938-10.939h78.884q16 0 26.938 10.939 10.939 10.938 10.939 26.938v573.334q0 16-10.939 26.938-10.938 10.939-26.938 10.939h-78.884Z"/></svg>