<svg xmlns="http://www.w3.org/2000/svg" height="40" viewBox="0 -960 960 960" width="40"><path d="M484.739-488.413q28.674-33.594 42.811-71.721 14.138-38.127 14.138-84.188 0-46.062-14.531-84.443-14.531-38.38-42.897-71.068 73.856-7.073 125.642 36.626 51.787 43.699 51.787 119.084 0 75.958-52.026 119.61-52.025 43.651-124.924 36.1ZM684.13-149.877q9.152-17.833 15.022-36.605 5.869-18.771 5.869-39.148v-32.811q0-48.711-22.507-89.914-22.508-41.203-74.958-70.812 136.082 19.63 193.036 59.602 56.953 39.971 56.953 101.124v32.811q0 31.326-22.177 53.54-22.177 22.213-53.736 22.213H684.13Zm123.522-395.09h-60.718q-14.166 0-23.75-9.601-9.583-9.602-9.583-23.796 0-14.193 9.583-23.678 9.584-9.485 23.75-9.485h60.718v-60.665q0-14.144 9.617-23.712t23.754-9.568q14.136 0 23.716 9.561 9.58 9.56 9.58 23.693v60.638h60.558q14.167 0 23.75 9.617t9.583 23.833q0 14.216-9.583 23.716-9.583 9.5-23.75 9.5h-60.558v60.606q0 14.119-9.697 23.703-9.697 9.583-23.833 9.583-14.137 0-23.637-9.568t-9.5-23.712v-60.665ZM315.04-484.094q-68.982 0-114.489-45.508-45.508-45.507-45.508-114.489t45.508-114.481q45.507-45.5 114.489-45.5t114.482 45.5q45.5 45.499 45.5 114.481t-45.5 114.489q-45.5 45.508-114.482 45.508ZM-8.29-225.63v-31.42q0-36.543 19.025-66.615 19.025-30.072 51.15-45.204 69.463-31.747 129.3-46.486 59.837-14.739 123.887-14.739 64.45 0 123.913 14.62 59.464 14.619 128.37 46.525 32.167 14.971 51.583 45.025 19.417 30.055 19.417 66.874v31.42q0 31.326-22.177 53.54-22.177 22.213-53.736 22.213H67.463q-31.493 0-53.623-22.213-22.13-22.214-22.13-53.54Zm323.327-334.218q35.999 0 60.035-24.128 24.037-24.129 24.037-60.139 0-36.076-24.053-60.14t-59.957-24.064q-36.003 0-60.152 24.086-24.15 24.086-24.15 60.036 0 36.05 24.12 60.2 24.121 24.149 60.12 24.149ZM67.463-225.63h494.979v-30.384q0-14.153-7.167-26.339-7.166-12.185-21.5-19.103-62.884-29.616-112.5-41.171-49.616-11.554-106.14-11.554-56.525 0-106.228 11.594-49.704 11.594-113.398 41.106-13.046 6.252-20.546 18.779-7.5 12.526-7.5 26.688v30.384Zm247.609-418.493Zm0 418.493Z"/></svg>