<svg xmlns="http://www.w3.org/2000/svg" height="40" viewBox="0 -960 960 960" width="40"><path d="M226.666-445.073v131.979q0 14.742-10.003 24.715-10.002 9.973-24.789 9.973t-24.805-9.973q-10.018-9.973-10.018-24.715v-333.812q0-14.742 10.07-24.715 10.071-9.973 24.957-9.973 14.785 0 24.687 9.973 9.901 9.973 9.901 24.715v131.979h255.196v-131.74q0-14.844 10.008-24.886 10.007-10.041 24.957-10.041 14.95 0 24.92 9.974 9.97 9.974 9.97 24.953v333.334q0 14.844-10.075 24.886-10.075 10.041-24.969 10.041-15.029 0-24.92-9.974-9.891-9.974-9.891-24.993v-131.7H226.666Zm503.358 0h-51.359q-14.745 0-24.846-10.007-10.101-10.008-10.101-25.037t9.973-24.92q9.974-9.89 24.954-9.89h51.345v-51.528q0-14.815 10.073-24.785 10.072-9.97 24.962-9.97 14.788 0 24.677 10.007 9.89 10.007 9.89 24.801v51.475h51.595q14.844 0 24.897 10.007 10.054 10.008 10.054 25.037 0 15.013-9.974 24.892t-24.954 9.879h-51.584v51.555q0 14.827-10.005 24.797t-24.795 9.97q-14.79 0-24.796-10.042-10.006-10.041-10.006-24.885v-51.356Z"/></svg>