<svg xmlns="http://www.w3.org/2000/svg" height="40" viewBox="0 -960 960 960" width="40"><path d="M218.137-25.333q-80.177 0-136.49-56.314-56.314-56.313-56.314-136.49 0-12.273 8.16-20.426 8.16-8.154 20.442-8.154t20.5 8.154q8.217 8.153 8.217 20.426 0 56.13 39.678 95.807 39.677 39.678 95.807 39.678 12.273 0 20.426 8.24 8.154 8.239 8.154 20.521 0 12.283-8.154 20.42-8.153 8.138-20.426 8.138ZM912.732-748.06q-12.283 0-20.42-8.142-8.138-8.143-8.138-20.597 0-47.088-29.151-81.906-29.152-34.818-74.532-34.818-12.273 0-20.36-8.16-8.087-8.159-8.087-20.442 0-12.282 8.129-20.499 8.128-8.218 20.561-8.218 69.092 0 114.926 51.5 45.833 51.5 45.833 122.346 0 12.736-8.24 20.836-8.239 8.1-20.521 8.1ZM402.065-33.384q-28.625 0-54.381-13.192t-41.503-37.417L66.631-442.536q-6.667-10.319-4.721-22.678 1.945-12.358 11.365-20.358 18.761-16.334 43.345-20.04 24.583-3.707 49.008 14.186l111.742 82.738v-401.725q0-15.159 10.444-25.562 10.445-10.402 25.667-10.402 15.222 0 25.519 10.402 10.297 10.403 10.297 25.562v463.261q0 23.485-20.638 33.913-20.638 10.427-39.536-3.167l-100.138-72.645 176.804 264.322q6.124 9.309 15.441 14.363 9.317 5.055 20.77 5.055H690.892q35.248 0 59.642-24.394 24.394-24.394 24.394-59.643v-581.544q0-15.159 10.445-25.561t25.666-10.402q15.222 0 25.519 10.402 10.297 10.402 10.297 25.561v581.544q0 65.116-45.424 110.54-45.424 45.424-110.539 45.424H402.065Zm77.376-894.587q15.222 0 25.55 10.402 10.328 10.402 10.328 25.561v378.675q0 15.159-10.445 25.561t-25.667 10.402q-15.221 0-25.439-10.402-10.217-10.402-10.217-25.561v-378.675q0-15.159 10.334-25.561t25.556-10.402Zm166.212 41.116q15.141 0 25.414 10.402 10.274 10.402 10.274 25.561v337.559q0 15.159-10.413 25.561t-25.587 10.402q-15.174 0-25.471-10.402t-10.297-25.561v-337.559q0-15.159 10.436-25.561t25.644-10.402ZM481.877-291.42Z"/></svg>