<svg xmlns="http://www.w3.org/2000/svg" height="40" viewBox="0 -960 960 960" width="40"><path d="m436.348-643.319 41.623-116.239h5.362L524-643.319h-87.652ZM480-411.16q-99.711 0-169.536-69.756-69.826-69.757-69.826-169.409 0-99.719 69.797-169.599 69.798-69.881 169.509-69.881 99.711 0 169.644 69.831 69.934 69.83 69.934 169.588t-69.906 169.492Q579.711-411.16 480-411.16Zm-56.529-193.449h113.565l20.442 57.659q2.319 6.653 8.383 10.551 6.065 3.899 13.14 3.899 12.101 0 18.829-9.639 6.728-9.638 2.156-20.992l-89.892-235.536q-2.438-6.474-8.236-10.415-5.798-3.94-13.289-3.94h-17.263q-7.487 0-13.378 4.065-5.892 4.065-8.211 10.529l-88.811 236.015q-4.239 10.808 2.414 20.361 6.653 9.552 18.652 9.552 7.553 0 13.286-3.82t7.846-10.679l20.367-57.61Zm403.863 439.413h-49.457q-11.957 0-19.776-8.025-7.818-8.025-7.818-20.298 0-12.274 8.007-19.903t20.254-7.629h48.79v-49.456q0-11.854 8.025-19.605 8.025-7.75 20.298-7.75 12.17 0 19.731 7.641 7.561 7.64 7.561 19.714v49.456h49.457q11.957 0 19.776 7.614Q960-205.823 960-193.549q0 12.273-7.618 20.313-7.619 8.04-19.976 8.04h-49.457v49.457q0 11.853-7.544 19.604-7.545 7.75-19.713 7.75-12.167 0-20.263-8.007-8.095-8.007-8.095-20.253v-48.551Zm-302.667 62.145v-192.384q0-11.854 7.818-19.604 7.819-7.751 19.776-7.751h114.406q24.564 0 40.09 15.304 15.526 15.305 15.526 39.645v46.62q0 21.54-10.649 34.464-10.648 12.924-28.982 21.242l21.978 52.762q5.812 13.623-1.797 25.46-7.609 11.837-22.827 11.837-8.622 0-15.274-4.613-6.652-4.612-9.971-12.185L627.66-157.79h-48.044v54.979q0 11.853-7.745 19.604-7.745 7.75-19.59 7.75-11.845 0-19.729-7.818-7.885-7.818-7.885-19.776Zm54.949-108.811h87.718v-55.979h-87.718v55.979ZM54.949-183.971v81.16q0 11.853-7.745 19.604-7.745 7.75-19.59 7.75-11.845 0-19.73-7.75Q0-90.957 0-102.811v-192.624q0-11.854 7.814-19.604 7.814-7.751 19.765-7.751 11.848 0 19.609 7.751 7.761 7.75 7.761 19.604v57.87h85.718v-57.87q0-11.854 7.814-19.604 7.814-7.751 19.765-7.751 11.847 0 19.609 7.751 7.761 7.75 7.761 19.604v192.624q0 11.853-7.745 19.604-7.745 7.75-19.59 7.75-11.845 0-19.73-7.818-7.884-7.818-7.884-19.776v-80.92H54.949ZM262-103.051v-192.384q0-11.854 7.818-19.604 7.819-7.751 19.776-7.751H402q24.564 0 39.756 15.304 15.193 15.305 15.193 39.645v137.435q0 24.564-15.193 39.757Q426.564-75.457 402-75.457H289.594q-11.957 0-19.776-7.818Q262-91.093 262-103.05Zm54.949-27.355H402v-137.435h-85.051v137.435Z"/></svg>