<svg xmlns="http://www.w3.org/2000/svg" height="40" viewBox="0 -960 960 960" width="40"><path d="M482-259.768 318.376-97.051q-21.812 23.044-53.92 23.044-32.108 0-53.818-23.044L97.051-210.638q-23.044-21.71-22.79-53.536.253-31.826 22.79-54.202l162.051-162.957L97.051-644.957q-21.87-21.87-23.457-52.362-1.587-30.493 20.123-52.203l116.921-116.761q22.092-22.536 53.727-22.536 31.635 0 54.011 22.536L482-702.898l162.957-163.385q22.377-22.536 53.878-22.203 31.5.334 54.02 22.203l113.428 113.428q21.869 22.52 22.203 54.02.333 31.501-22.203 53.878L703.565-481.333l162.718 162.957q22.536 22.092 22.536 53.727 0 31.635-22.536 54.011L749.522-93.718q-21.71 21.71-52.282 20.124-30.573-1.587-52.283-23.457L482-259.768Zm-.017-261.66q17.387 0 29.166-11.698 11.779-11.699 11.779-29.149 0-17.349-11.762-29.059-11.762-11.709-29.149-11.709t-29.166 11.699q-11.778 11.699-11.778 28.993 0 17.43 11.761 29.177 11.762 11.746 29.149 11.746Zm-171.599-10.949 119.239-118.572L266-813.906 148.76-696.667l161.624 164.29Zm90.599 91.304q17.429 0 29.176-11.761 11.747-11.762 11.747-29.149t-11.699-29.166q-11.699-11.779-29.149-11.779-17.348 0-29.058 11.762t-11.71 29.149q0 17.387 11.699 29.166 11.699 11.778 28.994 11.778Zm81 80.783q17.387 0 29.166-11.699t11.779-28.994q0-17.429-11.762-29.176t-29.149-11.747q-17.387 0-29.166 11.699-11.778 11.699-11.778 29.149 0 17.348 11.761 29.058 11.762 11.71 29.149 11.71Zm80.292-80.783q17.349 0 29.059-11.761 11.709-11.762 11.709-29.149t-11.699-29.166q-11.699-11.779-28.993-11.779-17.43 0-29.177 11.762-11.746 11.762-11.746 29.149t11.698 29.166q11.699 11.778 29.149 11.778Zm-29.232 128.689L696.667-148.76 813.906-266 650.949-428.957 533.043-312.384ZM347.124-615.782Zm268.658 268.658Z"/></svg>