<svg xmlns="http://www.w3.org/2000/svg" viewBox="0 -960 960 960" width="32" height="32"><path d="M773.33-604.3q0 63.41-19.75 122.84-19.76 59.44-58.39 109.9-9.72 13.84-9.73 30.03-.02 16.2 12 27.56 11.88 11.27 28.3 9.56 16.42-1.71 26.14-14.99 46.98-60.91 72.17-133.43 25.18-72.51 25.18-151.47 0-78.24-24.52-151.34-24.51-73.1-72.16-133.58-9.72-13.12-26.36-14.62-16.63-1.5-28.67 9.62-11.78 10.6-11.59 26.64.19 16.04 9.91 28.97 39.29 50.31 58.38 110.32 19.09 60.01 19.09 123.99Zm-379.21 98q40 0 67.67-27.83t27.67-67.5q0-40-27.67-68.33-27.67-28.34-67.67-28.34t-68.33 28.34q-28.33 28.33-28.33 68.33 0 39.67 28.33 67.5t68.33 27.83ZM187.33-233q0-16.17-10.85-27.02-10.86-10.86-27.02-10.86-16.17 0-27.03 10.86-10.85 10.85-10.85 27.02 2.51 68.3 48.61 113.11 46.1 44.8 109.93 44.8 60.26 0 102.63-32.27 42.36-32.28 62.69-85.8 19.08-51.22 37.49-77.17 18.4-25.95 72.75-68.96 63.87-51.04 95.76-113 31.89-61.96 31.89-149.34 0-121.5-78.85-200.77-78.86-79.27-200.36-79.27-120.16 0-200.43 78.47-80.27 78.46-82.78 198.11 0 16.17 10.86 27.02 10.85 10.86 27.02 10.86t27.02-10.86q10.86-10.85 10.86-27.02 2.66-87 61.1-143.83 58.44-56.83 146.35-56.83 86.42 0 144.94 58.85 58.52 58.85 58.52 145.27 0 69.87-27.51 119.67-27.5 49.81-87.51 95.14-42.77 31.52-67.9 66.03-25.14 34.51-43.96 81.92-16 42.91-39.8 65.39Q307.1-151 270.44-151q-32.82 0-56.63-23.31Q190-197.63 187.33-233Z"/></svg>