<svg xmlns="http://www.w3.org/2000/svg" viewBox="0 -960 960 960" width="32" height="32"><path d="M268.42-75.88q56.12 0 101.5-32.04t65.52-85.43q16.44-43.74 43.58-79.18 27.13-35.45 66.22-66.41 60.87-47.65 94.48-116.78 33.61-69.13 33.61-145.91 0-116.93-81.47-198.48-81.48-81.56-197.74-81.56-99.77 0-175.29 59.68T121.18-669.8q-4.4 15.69 2.7 29.65 7.1 13.97 22.95 18.21 15.68 4.41 29.53-3.02 13.84-7.44 18.33-23.29 15.48-67.86 70.63-112.68 55.14-44.82 128.8-44.82 84.85 0 144.16 59.3 59.3 59.3 59.3 144.82 0 61.77-30.45 117.96-30.46 56.18-85.01 97.04-36.4 27.12-64.25 62.91-27.84 35.79-47.27 85.1-13.35 35.54-39.33 61.18-25.98 25.64-62.85 25.64-41.52 0-63.51-28.22-21.99-28.22-21.99-66.5 0-29.04 12.39-55.09 12.39-26.04 31.31-47.52l26.95 21.47q12.56 10.78 28.38 8.14 15.83-2.64 24.53-16.93l77.48-132.48q56.93 5.49 99.68-32.98 42.76-38.46 42.76-96.97 0-54.3-38.09-92.38-38.08-38.09-92.53-38.09-60.8 0-99.35 45.25-38.54 45.25-29.6 104.02l-123.9 104.2q-13.36 10.47-13.45 27.21-.09 16.73 12.47 28.09l27.03 21.83q-29.69 32.15-45.71 70.93-16.02 38.79-16.02 81.3 0 69.43 43.91 120.03 43.91 50.61 117.26 50.61ZM773.33-604.3q0 63.79-20.33 123.98-20.33 60.19-58.57 110.19-9.72 13.17-8.77 29.45.96 16.27 12.47 26.71 11.86 10.85 27.32 10.06 15.45-.79 25.01-13.38 48.09-62.26 73.44-135.29 25.35-73.03 25.35-151.72 0-79.57-25.35-152.86-25.35-73.29-72.73-132.56-9.87-12.6-25.34-13.46-15.47-.86-26.9 10.18-11.6 11.2-12.2 26.78-.61 15.59 9.27 28.6 37.58 48.66 57.46 108.11 19.87 59.44 19.87 125.21ZM267.24-404.36l-50.68-42.09 79.95-68.16q5.02 6.43 10.85 11.6 5.84 5.16 12.26 9.42l-52.38 89.23Zm128.54-133.76q-25.28 0-42.95-17.66-17.66-17.67-17.66-43.1 0-25.28 17.66-42.95 17.67-17.66 42.95-17.66 25.43 0 43.1 17.66 17.66 17.67 17.66 42.95 0 25.43-17.66 43.1-17.67 17.66-43.1 17.66Zm-127.65 78.3Zm127.65-139.06Z"/></svg>