<svg xmlns="http://www.w3.org/2000/svg" height="40" viewBox="0 -960 960 960" width="40"><path d="M625.362-402.123q-16 0-26.938-10.972-10.939-10.972-10.939-27.022 0-16.05 10.939-26.905 10.938-10.855 26.938-10.855h253.334q16 0 26.938 10.972 10.938 10.972 10.938 27.022 0 16.05-10.938 26.905t-26.938 10.855H625.362Zm-192.587-91.044Zm-399.71-133.13q0-94.413 63.25-158.96 63.252-64.548 156.779-64.548 55.135 0 102.955 24.203 47.821 24.203 83.712 70.501 39.891-48.138 86.66-71.421 46.769-23.283 99.886-23.283 95.353 0 158.378 65.37 63.025 65.37 62.359 156.95 0 9.513-1.001 18.289-1 8.776-3.094 18.167-2.348 18.45-15.145 26.145-12.797 7.696-26.692 5.928-13.894-1.768-24.568-12.446-10.674-10.678-9.363-29.975 1.428-7.44 2.142-14.835.714-7.395.714-15.462-1.356-57.37-43.131-99.794t-100.478-42.424q-49.384 0-89.098 28.258-39.714 28.257-64.12 72.206-5.558 9.515-14.696 14.971-9.139 5.457-19.42 5.457-10.435 0-19.123-5.504-8.688-5.503-14.087-14.924-24.167-44.108-63.742-72.286-39.576-28.178-89.145-28.178-62.186 0-103.063 42.227-40.876 42.227-40.876 105.307 0 37.3 14.887 73.263 14.887 35.964 52.188 82.127 37.301 46.164 101.538 107.739 64.236 61.576 162.09 150.947l81.5-71.507q10.703-10.276 25.734-9.582 15.031.694 25.606 11.197 11.391 11.153 11.105 27.486-.286 16.333-12.641 26.688l-80.725 71.652q-10.782 9.783-24.13 14.301-13.348 4.518-26.616 4.518-13.268 0-26.363-4.662-13.094-4.661-23.383-14.917-56.29-51.348-118.877-107.269-62.587-55.92-115.424-115.156-52.837-59.235-87.66-121.468-34.822-62.232-34.822-125.296Z"/></svg>