<svg xmlns="http://www.w3.org/2000/svg" height="40" viewBox="0 -960 960 960" width="40"><path d="M366.123-312.841 193.521-140.145Q182.166-128.79 167-128.909q-15.167-.12-26.522-11.37-11.355-11.249-11.355-26.688 0-15.438 11.355-26.793l172.363-172.363h-73.066q-16 0-26.938-10.972-10.938-10.972-10.938-27.022 0-16.05 10.938-26.905t26.938-10.855H404q16 0 26.938 10.939Q441.877-420 441.877-404v164.225q0 16-10.972 26.938-10.972 10.938-27.022 10.938-16.05 0-26.905-10.938t-10.855-26.938v-73.066Zm281.703-281.702h73.065q16 0 26.939 10.972 10.938 10.972 10.938 27.021 0 16.05-10.938 26.905-10.939 10.855-26.939 10.855H556.667q-16 0-26.939-10.938-10.938-10.939-10.938-26.939v-164.224q0-16 10.972-26.939 10.972-10.938 27.022-10.938 16.049 0 26.904 10.938 10.855 10.939 10.855 26.939v73.065l171.936-172.029q11.355-11.355 26.641-11.355 15.286 0 26.641 11.249 11.355 11.25 11.355 26.689 0 15.438-11.355 26.793L647.826-594.543Z"/></svg>