<svg xmlns="http://www.w3.org/2000/svg" height="40" viewBox="0 -960 960 960" width="40"><path d="M265.573-153.304q-28.734 0-49.212-20.398-20.477-20.398-20.477-49.218v-311.088L108.63-467.92q-12.877 10.021-27.855 8.083-14.978-1.939-24.76-14.786-9.704-12.45-7.425-27.736 2.28-15.286 14.888-25.068l370.609-283.965q10.275-7.782 22.061-11.927T480-827.464q12.066 0 23.852 4.145t22.061 11.927l121.863 92.921v-33.537q0-22.853 16.375-38.85 16.376-15.997 41.739-15.997 24.168 0 40.864 16.927 16.695 16.927 16.695 41.109v118.855L897-527.427q12.355 9.782 14.228 25.068 1.874 15.286-7.67 27.815-9.782 12.768-24.84 14.707-15.058 1.938-27.776-8.083l-87.493-66.993v311.993q0 28.82-20.392 49.218-20.392 20.398-49.027 20.398H592.37q-28.734 0-49.211-20.398-20.478-20.398-20.478-49.218v-169.587h-85.362v169.587q0 28.82-20.392 49.218-20.392 20.398-49.028 20.398H265.573Zm6.224-75.754h91.681v-167.754q0-28.562 20.45-49.048 20.45-20.487 49.166-20.487h94.051q28.618 0 48.997 20.487 20.38 20.486 20.38 49.048v167.754h91.174V-592.5L480-752.029 271.797-592.5v363.442Zm123.275-329.065h169.856q0-33.624-25.376-55.627-25.376-22.004-59.529-22.004-34.153 0-59.552 21.899-25.399 21.898-25.399 55.732Zm-31.594 329.065v-167.754q0-28.562 20.467-49.048 20.467-20.487 49.207-20.487h93.993q28.618 0 48.997 20.487 20.38 20.486 20.38 49.048v167.754-167.754q0-28.562-20.38-49.048-20.379-20.487-48.997-20.487h-94.051q-28.716 0-49.166 20.487-20.45 20.486-20.45 49.048v167.754Z"/></svg>