<svg xmlns="http://www.w3.org/2000/svg" height="40" viewBox="0 -960 960 960" width="40"><path d="M480-93.304q-135.63 0-231.163-93.56-95.533-93.559-95.533-228.15 0-64.689 25.018-123.631 25.018-58.941 71.134-104.043L480-869.565l230.544 226.877q46.115 45.102 71.213 104.043 25.098 58.942 25.098 123.631 0 134.591-95.612 228.15Q615.63-93.304 480-93.304Zm-250.942-321.71h501.884q0-49.03-18.88-93.544-18.881-44.515-53.228-78.276L480-763.24 301.166-586.834q-34.347 33.761-53.228 78.304-18.88 44.542-18.88 93.516Z"/></svg>