<svg xmlns="http://www.w3.org/2000/svg" height="40" viewBox="0 -960 960 960" width="40"><path d="M149.058-153.304q-31.494 0-53.624-22.13-22.13-22.13-22.13-53.624v-501.884q0-29.732 20.38-51.507 20.381-21.776 49.794-23.689h13.334v99.319L49.333-814.298q-10.319-10.363-9.898-24.812.42-14.448 10.933-24.927 10.429-10.318 24.708-10.318 14.279 0 24.757 10.318l756.964 757.486q10.319 10.479 10.279 24.49-.04 14.01-10.553 24.489-10.428 10.318-24.707 10.318t-24.758-10.319l-96.572-95.731H149.058Zm0-75.754h485.515L219.819-643.971h-70.761v414.913Zm737.797-501.884v473.972q0 19.137-11.799 28.587-11.799 9.449-26.101 9.449-14.063 0-26.038-9.658t-11.975-28.472v-386.907H450.108q-15.417 0-29.472-6.004-14.054-6.004-24.477-16.373l-75.711-75.87q-8.89-9.471-10.822-20.368-1.931-10.897 2.214-21.04 4.145-10.142 13.261-16.686 9.116-6.543 21.963-6.543h463.878q31.56 0 53.736 22.177 22.177 22.176 22.177 53.736ZM723.667-525.631v107.936q0 15.866-10.417 24.146-10.417 8.281-23.269 8.281-12.614 0-23.051-8.177-10.437-8.178-10.437-23.134v-79.914h-79.914q-14.956 0-23.174-10.437-8.217-10.437-8.217-23.051 0-12.852 8.315-23.269 8.315-10.417 24.192-10.417h107.936q15.98 0 27.008 11.028 11.028 11.028 11.028 27.008Z"/></svg>