<svg xmlns="http://www.w3.org/2000/svg" height="40" viewBox="0 -960 960 960" width="40"><path d="M189.058-113.304q-30.994 0-53.374-22.38-22.38-22.38-22.38-53.374v-581.884q0-31.06 22.38-53.486 22.38-22.427 53.374-22.427h581.884q31.06 0 53.486 22.427 22.427 22.426 22.427 53.486v581.884q0 30.994-22.427 53.374-22.426 22.38-53.486 22.38H189.058Zm0-75.754h581.884v-581.884L189.058-189.058Zm395.254-130.109h-57.073q-12.246 0-20.253-8.025-8.008-8.025-8.008-20.298 0-12.274 8.008-20.236 8.007-7.962 20.253-7.962h57.073v-57.073q0-12.246 8.025-20.253 8.025-8.008 20.298-8.008 12.274 0 20.236 8.008 7.962 8.007 7.962 20.253v57.073h57.073q12.246 0 20.254 8.025 8.007 8.025 8.007 20.298 0 12.274-8.007 20.236-8.008 7.962-20.254 7.962h-57.073v57.073q0 12.246-8.025 20.254-8.025 8.007-20.298 8.007-12.274 0-20.236-8.007-7.962-8.008-7.962-20.254v-57.073ZM406.667-630.406q12.246 0 20.253-8.025t8.007-20.299q0-12.273-8.007-20.235-8.007-7.963-20.253-7.963H258.666q-12.246 0-20.253 8.025t-8.007 20.299q0 12.273 8.007 20.236 8.007 7.962 20.253 7.962h148.001Z"/></svg>