<svg xmlns="http://www.w3.org/2000/svg" height="40" viewBox="0 -960 960 960" width="40"><path d="M278.123-358.406q-17.114 0-29.093-12.049t-11.979-29.262v-32.928q0-12.085 8.695-19.72 8.695-7.635 21.29-7.635 10.818 0 17.891 7.073Q292-445.854 292-435.036v20.087h74.406V-574q0-11.958 7.814-19.776t19.765-7.818q11.951 0 19.78 7.818 7.829 7.818 7.829 19.776v174.283q0 17.213-12.049 29.262t-29.262 12.049h-102.16Zm237.877 0q-16.113 0-26.854-10.74-10.74-10.741-10.74-26.854v-22.927q0-8.43 6.322-14.751 6.321-6.322 14.75-6.322h13.043q8.429 0 14.751 6.322 6.322 6.321 6.322 14.751v5.333h92.812v-47.073h-110.36q-16.159 0-26.9-10.74-10.74-10.741-10.74-26.911v-65.624q0-16.171 10.74-26.912 10.741-10.74 26.854-10.74h128q16.113 0 26.854 10.74 10.74 10.741 10.74 26.854v22.927q0 8.43-6.322 14.751-6.321 6.322-14.75 6.322h-13.043q-8.429 0-14.751-6.322-6.322-6.321-6.322-14.751v-5.333h-92.812v47.073h110.36q16.159 0 26.9 10.74 10.74 10.741 10.74 26.911v65.624q0 16.171-10.74 26.912-10.741 10.74-26.854 10.74H516Z"/></svg>