<svg xmlns="http://www.w3.org/2000/svg" height="40" viewBox="0 -960 960 960" width="40"><path d="M640-269.297q87.909 0 149.306-61.719 61.397-61.719 61.397-149.286 0-87.567-61.397-148.984Q727.909-690.703 640-690.703q-27.274 0-53.033 6.802-25.758 6.803-47.982 19.437 31.616 37.652 49.624 84.489 18.007 46.836 18.007 100.025 0 53.189-18.007 99.976-18.008 46.786-49.624 84.438 22.224 12.634 47.982 19.437 25.759 6.802 53.033 6.802Zm-160-74.579q23.683-26.943 37.193-62.163 13.51-35.219 13.51-74.126 0-38.908-13.51-73.962T480-616.124q-23.683 26.943-37.193 62.163-13.51 35.219-13.51 74.126 0 38.908 13.51 73.962T480-343.876Zm-160 74.579q27.273 0 53.031-6.797 25.757-6.796 48.143-19.442-31.775-37.652-49.783-84.489-18.007-46.836-18.007-100.025 0-53.189 18.007-99.976 18.008-46.786 49.783-84.438-22.386-12.646-48.143-19.442-25.758-6.797-53.031-6.797-87.442 0-149.073 61.389-61.63 61.389-61.63 148.957 0 87.567 61.63 149.314Q232.558-269.297 320-269.297Zm0 75.913q-119.66 0-203.138-83.488-83.478-83.489-83.478-203.164 0-119.674 83.478-203.127T320-766.616q44.92 0 85.364 12.724T480-717.732q34.192-23.436 74.636-36.16Q595.08-766.616 640-766.616q119.66 0 203.138 83.488 83.478 83.489 83.478 203.164 0 119.674-83.478 203.127T640-193.384q-44.92 0-85.364-12.724T480-242.268q-34.192 23.436-74.636 36.16Q364.92-193.384 320-193.384Z"/></svg>