<svg xmlns="http://www.w3.org/2000/svg" height="40" viewBox="0 -960 960 960" width="40"><path d="M280-40q-10.496 0-17.711-7.216-7.216-7.216-7.216-17.711v-133.53h-41.74q-39.384 0-67.315-28.01-27.931-28.011-27.931-67.649 0-39.637 27.931-67.315 27.931-27.677 67.315-27.677h41.74v-51.74h-99.109q-16 0-26.939-10.938-10.938-10.939-10.938-27.098v-114.739q0-16 10.938-26.938 10.939-10.939 26.939-10.939h99.109v-51.739h-41.74q-39.384 0-67.315-28.011-27.931-28.011-27.931-67.649 0-39.637 27.931-67.315 27.931-27.677 67.315-27.677h41.74v-21.421q0-10.145 7.283-17.416Q269.64-920 280.239-920q10.145 0 17.417 7.272 7.271 7.271 7.271 17.416v21.421h41.74q39.917 0 67.661 27.765 27.745 27.765 27.745 67.481 0 39.384-27.745 67.395-27.744 28.011-67.661 28.011h-41.74v51.739h99.109q15.98 0 27.008 10.939 11.029 10.938 11.029 26.938v114.739q0 16.159-11.029 27.098-11.028 10.938-27.008 10.938h-99.109v51.74h41.74q39.917 0 67.661 27.764 27.745 27.765 27.745 67.482 0 39.384-27.745 67.395-27.744 28.01-67.661 28.01h-41.74v133.53q0 10.495-7.216 17.711Q290.496-40 280-40Zm400 0q-10.496 0-17.711-7.216-7.216-7.216-7.216-17.711v-133.53h-41.74q-39.384 0-67.315-28.01-27.931-28.011-27.931-67.649 0-39.637 27.931-67.315 27.931-27.677 67.315-27.677h41.74v-51.74h-99.109q-16 0-26.939-10.938-10.938-10.939-10.938-27.098v-114.739q0-16 10.938-26.938 10.939-10.939 26.939-10.939h99.109v-51.739h-41.74q-39.384 0-67.315-28.011-27.931-28.011-27.931-67.649 0-39.637 27.931-67.315 27.931-27.677 67.315-27.677h41.74v-21.421q0-10.145 7.283-17.416Q669.64-920 680.239-920q10.145 0 17.417 7.272 7.271 7.271 7.271 17.416v21.421h41.74q39.917 0 67.661 27.765 27.745 27.765 27.745 67.481 0 39.384-27.745 67.395-27.744 28.011-67.661 28.011h-41.74v51.739h99.109q15.98 0 27.008 10.939 11.029 10.938 11.029 26.938v114.739q0 16.159-11.029 27.098-11.028 10.938-27.008 10.938h-99.109v51.74h41.74q39.917 0 67.661 27.764 27.745 27.765 27.745 67.482 0 39.384-27.745 67.395-27.744 28.01-67.661 28.01h-41.74v133.53q0 10.495-7.216 17.711Q690.496-40 680-40ZM213.333-749.906h133.334q12.162 0 20.451-8.621 8.288-8.622 8.288-20.118 0-11.971-8.288-20.275-8.289-8.305-20.451-8.305H213.333q-11.432 0-20.006 8.305-8.574 8.304-8.574 20.021 0 11.718 8.574 20.356 8.574 8.637 20.006 8.637Zm400 0h133.334q12.162 0 20.451-8.621 8.288-8.622 8.288-20.118 0-11.971-8.288-20.275-8.289-8.305-20.451-8.305H613.333q-11.432 0-20.006 8.305-8.574 8.304-8.574 20.021 0 11.718 8.574 20.356 8.574 8.637 20.006 8.637Zm-428.58 242.392h190.653v-57.319H184.753v57.319Zm400 0h190.653v-57.319H584.753v57.319Zm-371.42 242.391h133.334q12.162 0 20.451-8.622 8.288-8.621 8.288-20.117 0-11.971-8.288-20.276-8.289-8.304-20.451-8.304H213.333q-11.432 0-20.006 8.304-8.574 8.305-8.574 20.022 0 11.718 8.574 20.355 8.574 8.638 20.006 8.638Zm400 0h133.334q12.162 0 20.451-8.622 8.288-8.621 8.288-20.117 0-11.971-8.288-20.276-8.289-8.304-20.451-8.304H613.333q-11.432 0-20.006 8.304-8.574 8.305-8.574 20.022 0 11.718 8.574 20.355 8.574 8.638 20.006 8.638Zm-428.58-484.783v-57.319 57.319Zm400 0v-57.319 57.319Zm-400 242.392v-57.319 57.319Zm400 0v-57.319 57.319Zm-400 242.391v-57.319 57.319Zm400 0v-57.319 57.319Z"/></svg>