<svg xmlns="http://www.w3.org/2000/svg" height="40" viewBox="0 -960 960 960" width="40"><path d="M788.711-75.84 497.986-365.98h-4q-32.35 67.719-89.929 99.918Q346.478-233.862 280-233.862q-102.338 0-174.238-71.9T33.862-480q0-66 33.968-124.862 33.967-58.863 98.149-92.457l-90.748-91.368q-10.282-10.31-10.282-24.75t10.232-24.759q10.312-10.319 25.079-10.319 14.767 0 25.16 10.319l712.776 713.537q10.225 10.225 10.272 24.325.047 14.1-10.272 24.494-10.225 10.224-24.743 10.224-14.518 0-24.742-10.224Zm162.536-397.483q0 7.454-2.859 13.997-2.859 6.544-8.83 12.515L815.805-329.884q-5.653 5.145-12.149 7.996-6.496 2.852-12.134 2.852-4.724 0-9.007-1.008-4.283-1.007-8.659-3.782l-86.152-73.325-15.334 11.333-28.667-28.667 63.246-45.928 79.254 58.428 77.015-72.682-44.384-44.384H538.47l-72.804-72.565h367.726q7.543 0 14.219 2.732 6.676 2.732 12.636 8.623l79.978 79.5q5.971 6.131 8.496 13.058 2.526 6.927 2.526 14.38ZM280-306.666q50.522 0 96.102-31.142 45.58-31.141 64.246-85.968-32.333-32.173-58.413-58.253t-51.326-51.287q-25.247-25.206-51.326-51.286l-58.413-58.413q-57.334 21.145-85.769 67.011-28.435 45.865-28.435 95.95 0 72.054 50.667 122.721T280-306.666Zm.039-98.385q-30.822 0-52.905-22.044-22.083-22.043-22.083-52.866 0-30.822 22.044-52.905 22.043-22.083 52.866-22.083 31.488 0 53.238 22.044 21.75 22.043 21.75 52.866 0 30.822-22.044 52.905-22.043 22.083-52.866 22.083Z"/></svg>