<svg xmlns="http://www.w3.org/2000/svg" height="40" viewBox="0 -960 960 960" width="40"><path d="M146.666-266.666v-426.668 426.668Zm0 75.753q-30.993 0-53.373-22.713-22.38-22.714-22.38-53.04v-426.668q0-31.059 22.38-53.486 22.38-22.427 53.373-22.427h666.668q31.059 0 53.486 22.427 22.427 22.427 22.427 53.486v213.907q0 19.057-11.799 28.467-11.8 9.409-26.102 9.409-14.063 0-26.038-9.529-11.974-9.529-11.974-28.587v-213.667H146.666v426.668h295.515q15.98 0 27.008 10.972 11.028 10.972 11.028 27.021 0 16.05-11.028 26.905t-27.008 10.855H146.666Zm193.333-132.42H480q14.167 0 23.75-9.617t9.583-23.834q0-14.216-9.583-23.716-9.583-9.5-23.75-9.5H339.999q-14.166 0-23.749 9.617-9.584 9.617-9.584 23.833 0 14.217 9.584 23.717 9.583 9.5 23.749 9.5Zm404.045 132.42h-132.08q-16 0-26.938-10.972-10.939-10.972-10.939-27.022 0-16.049 10.939-26.904 10.938-10.855 26.938-10.855h132.08l-39.493-40.16q-10.275-10.902-10.489-25.897-.214-14.994 11.367-26.574 11.035-11.036 26.535-11.036t26.522 11.022l104 103.761q11.355 11.514 11.355 26.833 0 15.319-11.355 26.688l-104 103.761q-11.022 11.022-26.515 11.149-15.492.126-27.326-11.707-10.942-10.906-10.608-25.946.333-15.039 10.608-25.981l39.399-40.16ZM235.45-570q14.216 0 23.716-9.617 9.5-9.617 9.5-23.833 0-14.217-9.617-23.717-9.616-9.5-23.833-9.5-14.216 0-23.716 9.617-9.5 9.617-9.5 23.834 0 14.216 9.617 23.716 9.617 9.5 23.833 9.5Zm122.667 0q14.216 0 23.716-9.617 9.5-9.617 9.5-23.833 0-14.217-9.617-23.717-9.617-9.5-23.833-9.5-14.216 0-23.716 9.617-9.5 9.617-9.5 23.834 0 14.216 9.617 23.716 9.617 9.5 23.833 9.5Zm122 0q14.216 0 23.716-9.617 9.5-9.617 9.5-23.833 0-14.217-9.617-23.717-9.617-9.5-23.833-9.5-14.216 0-23.716 9.617-9.5 9.617-9.5 23.834 0 14.216 9.617 23.716 9.617 9.5 23.833 9.5Zm122.667 0q14.216 0 23.716-9.617 9.5-9.617 9.5-23.833 0-14.217-9.617-23.717-9.617-9.5-23.833-9.5-14.217 0-23.716 9.617-9.5 9.617-9.5 23.834 0 14.216 9.617 23.716 9.616 9.5 23.833 9.5Zm122 0q14.216 0 23.716-9.617 9.5-9.617 9.5-23.833 0-14.217-9.617-23.717-9.617-9.5-23.833-9.5-14.216 0-23.716 9.617-9.5 9.617-9.5 23.834 0 14.216 9.617 23.716 9.617 9.5 23.833 9.5ZM235.45-446.667q14.216 0 23.716-9.617 9.5-9.617 9.5-23.833 0-14.216-9.617-23.716-9.616-9.5-23.833-9.5-14.216 0-23.716 9.617-9.5 9.617-9.5 23.833 0 14.216 9.617 23.716 9.617 9.5 23.833 9.5Zm122.667 0q14.216 0 23.716-9.617 9.5-9.617 9.5-23.833 0-14.216-9.617-23.716-9.617-9.5-23.833-9.5-14.216 0-23.716 9.617-9.5 9.617-9.5 23.833 0 14.216 9.617 23.716 9.617 9.5 23.833 9.5Zm122 0q14.216 0 23.716-9.617 9.5-9.617 9.5-23.833 0-14.216-9.617-23.716-9.617-9.5-23.833-9.5-14.216 0-23.716 9.617-9.5 9.617-9.5 23.833 0 14.216 9.617 23.716 9.617 9.5 23.833 9.5Zm122.55 0q21.391 0 27.362-12.696Q636-472.058 636-480q0-14.167-9.617-23.75t-23.833-9.583q-14.217 0-23.716 9.617-9.5 9.617-9.5 23.833 0 13.897 9.344 23.557 9.344 9.659 23.989 9.659Zm88.667-33.216q0 14.216 9.617 23.716 9.617 9.5 23.833 9.5 14.216 0 23.716-9.583 9.5-9.583 9.5-23.75v.681-.998q0-14.032-9.617-23.524t-23.833-9.492q-14.216 0-23.716 9.617-9.5 9.617-9.5 23.833Z"/></svg>