<svg xmlns="http://www.w3.org/2000/svg" height="40" viewBox="0 -960 960 960" width="40"><path d="M480-73.304q-85.71 0-145.804-60.4-60.095-60.4-60.095-146.296v-353.304q-33.478-1.913-57.137-25.852-23.66-23.938-23.66-57.416v-86.046q0-34.926 25.069-59.581 25.069-24.656 60.272-24.656h402.949q35.087 0 60.174 24.656 25.087 24.655 25.087 59.581v86.046q0 33.478-23.739 57.416-23.739 23.939-57.058 25.852V-280q0 85.896-60.174 146.296-60.174 60.4-145.884 60.4ZM267.145-706.347h425.87v-106.668h-425.87v106.668Zm212.679 559.202q55.034 0 93.714-38.809T612.218-280v-13.334h-99.124q-15.203 0-25.503-10.445-10.301-10.444-10.301-25.666t10.301-25.519q10.3-10.297 25.503-10.297h99.124v-87.276h-99.124q-15.203 0-25.503-10.444-10.301-10.445-10.301-25.667 0-15.222 10.301-25.519 10.3-10.297 25.503-10.297h99.124v-108.043H347.942v352.453q0 55.291 38.424 94.1 38.425 38.809 93.458 38.809ZM267.145-706.347v-106.668 106.668Z"/></svg>