<svg xmlns="http://www.w3.org/2000/svg" height="40" viewBox="0 -960 960 960" width="40"><path d="M783.355-95.457 651.594-226.456l-31.181 94.384q-4.891 13.594-18.645 13.094-13.753-.5-17.898-14.094l-93.595-312.943q-3.065-10.355 5.145-18.565 8.21-8.21 18.565-5.304l313.102 93.754q13.435 4.145 13.935 17.898.5 13.754-12.935 18.645l-94.543 31.181 132 131.761q17.558 17.558 17.558 40.594 0 23.037-17.558 40.594-17.558 17.558-41.095 17.558-23.536 0-41.094-17.558ZM230.913-480q0-103.906 72.591-176.576 72.59-72.671 176.496-72.671 82.935 0 146.573 47.16 63.637 47.16 89.101 121.602 4.986 14.449-1.406 27.938-6.391 13.489-21 18.475-14.449 4.985-27.931-1.74-13.481-6.724-18.467-21.333-17.239-52.116-62.583-85.627Q538.942-656.283 480-656.283q-73.276 0-124.779 51.504Q303.717-553.276 303.717-480q0 58.276 33.391 103.834 33.392 45.558 85.667 62.877 14.45 5.144 21.134 18.673 6.685 13.529 1.7 27.979-5.145 14.608-18.674 21.166t-27.978 1.573q-75.203-25.703-121.624-90.475-46.42-64.772-46.42-145.627Z"/></svg>