<svg xmlns="http://www.w3.org/2000/svg" height="40" viewBox="0 -960 960 960" width="40"><path d="M832.392-704.333q0-70.649-48.705-119.354t-119.354-48.705q-11.08 0-18.623-7.799-7.543-7.8-7.543-18.952 0-10.959 7.614-18.596 7.614-7.638 18.791-7.638 91.818 0 156.311 64.494 64.494 64.493 64.494 156.24 0 11.219-7.625 18.848-7.625 7.628-18.689 7.628-11.063 0-18.867-7.543t-7.804-18.623Zm-99.768.333q0-28.714-19.955-48.669T664-772.624q-10.93 0-18.381-7.907-7.452-7.908-7.452-19.2 0-11.161 7.564-18.798 7.565-7.638 18.675-7.638 50.832 0 86.296 35.465 35.465 35.464 35.465 86.296 0 11.11-7.638 18.675-7.637 7.564-18.878 7.564t-19.134-7.452q-7.893-7.451-7.893-18.381ZM480-438ZM149.058-113.304q-30.994 0-53.374-22.38-22.38-22.38-22.38-53.374v-497.218q0-30.392 22.38-53.152t53.374-22.76h134.101l53.653-60.486q10.275-12.131 24.797-18.156 14.521-6.025 30.797-6.025H560.29q16 0 26.938 11.066 10.939 11.065 10.939 27.101t-10.939 26.891q-10.938 10.855-26.938 10.855H392.485l-76.268 84.666H149.058v497.218h661.884V-600.29q0-16 10.972-26.938 10.972-10.939 27.008-10.939t26.984 10.939q10.949 10.938 10.949 26.938v411.232q0 30.994-22.76 53.374-22.76 22.38-53.153 22.38H149.058ZM479.61-263.073q74.107 0 124.712-50.548 50.605-50.549 50.605-124.576 0-74.028-50.548-124.379-50.549-50.351-124.576-50.351-74.028 0-124.379 50.281-50.351 50.282-50.351 124.256 0 74.107 50.281 124.712 50.282 50.605 124.256 50.605Zm.057-71.927q-44.153 0-73.41-29.59Q377-394.181 377-438.333q0-44.153 29.257-73.49 29.257-29.336 73.41-29.336 44.152 0 73.822 29.336 29.671 29.337 29.671 73.49 0 44.152-29.671 73.743Q523.819-335 479.667-335Z"/></svg>