<svg xmlns="http://www.w3.org/2000/svg" height="40" viewBox="0 -960 960 960" width="40"><path d="M865.131-393.196 567.471-95.029q-11.184 10.942-25.244 16.334-14.06 5.39-28.394 5.39-14.333 0-28.226-5.557-13.894-5.558-25.078-16.167L95.681-460.384Q85.406-470.66 79.355-484.44q-6.05-13.781-6.05-28.988v-297.754q0-31.215 22.181-53.444 22.183-22.229 53.332-22.229h298.421q15.071 0 29.201 6.054 14.129 6.054 24.603 16.576l364.088 363.943q11.602 11.408 16.989 25.489 5.387 14.08 5.387 28.376 0 14.296-5.51 28.454-5.511 14.159-16.866 24.767ZM515-147.724l297.182-297.848-365.565-365.37H149.058v295.797L515-147.724ZM252.044-654.406q22.122 0 38.169-16.042 16.047-16.043 16.047-38.198 0-22.156-16.018-38.226-16.019-16.07-38.142-16.07-22.281 0-38.328 16.042-16.047 16.042-16.047 38.198 0 22.155 16.018 38.225 16.019 16.071 38.301 16.071Zm228.623 175.073Z"/></svg>