<svg xmlns="http://www.w3.org/2000/svg" height="40" viewBox="0 -960 960 960" width="40"><path d="M530-386H396.667q-14.167 0-23.75 9.617-9.584 9.617-9.584 23.834 0 14.216 9.584 23.716 9.583 9.5 23.75 9.5h52v10q0 14.167 9.617 23.75T481.997-276q14.097 0 22.641-10.221 8.543-10.221 10.695-23.112v-10h45.334q15.666 0 25.833-11.5 10.167-11.5 10.167-27.985v-116.364q0-16.485-10.167-27.985t-25.833-11.5H430V-574h133.333q14.167 0 23.75-9.617 9.584-9.617 9.584-23.834 0-14.216-9.584-23.716-9.583-9.5-23.75-9.5h-48v-10q0-14.167-9.617-23.75T482.003-684q-14.097 0-22.64 10.221-8.544 10.221-10.696 23.112v10h-46q-16.717 0-28.025 11.5-11.309 11.5-11.309 28.5v116q0 15.583 11.5 26.125T402.667-448H530v62ZM149.058-153.304q-30.994 0-53.374-22.38-22.38-22.38-22.38-53.374v-501.884q0-31.06 22.38-53.486 22.38-22.427 53.374-22.427h661.884q31.06 0 53.486 22.427 22.427 22.426 22.427 53.486v501.884q0 30.994-22.427 53.374-22.426 22.38-53.486 22.38H149.058Zm0-75.754h661.884v-501.884H149.058v501.884Zm0 0v-501.884 501.884Z"/></svg>