<svg xmlns="http://www.w3.org/2000/svg" height="40" viewBox="0 -960 960 960" width="40"><path d="M485.051-612.384v299.696q0 14.742 10.07 24.715Q505.192-278 520.078-278q14.786 0 24.687-10.042 9.902-10.041 9.902-24.885v-331.196q0-16-10.939-26.939Q532.79-682 516.79-682h-79.051q-14.742 0-24.715 10.003-9.973 10.003-9.973 24.79 0 14.786 10.041 24.804 10.042 10.019 24.886 10.019h47.073Zm-295.993 499.08q-30.994 0-53.374-22.38-22.38-22.38-22.38-53.374v-581.884q0-31.06 22.38-53.486 22.38-22.427 53.374-22.427h581.884q31.06 0 53.486 22.427 22.427 22.426 22.427 53.486v581.884q0 30.994-22.427 53.374-22.426 22.38-53.486 22.38H189.058Zm0-75.754h581.884v-581.884H189.058v581.884Zm0-581.884v581.884-581.884Z"/></svg>