<svg xmlns="http://www.w3.org/2000/svg" viewBox="0 -960 960 960" width="32" height="32"><path d="M480-574.59q76.28 0 143.44 25.81 67.15 25.81 127.41 75.17 16.8 13.48 17.67 35.22.87 21.74-15.1 37.88-15.88 15.87-37.48 15.65-21.61-.22-39.56-13.21-46.96-36.72-96.01-53.55-49.04-16.83-100.37-16.83-51.09 0-100.09 16.79-49.01 16.79-95.98 53.36-18.02 13.14-39.75 13.4-21.72.26-37.44-15.61-15.88-16.14-15.13-37.71.74-21.58 17.54-35.06 60.26-49.36 127.41-75.33 67.16-25.98 143.44-25.98Zm0-240q126.2 0 238.11 45.65 111.9 45.65 201.5 123.52 17.04 15.05 18.4 36.87 1.37 21.83-14.84 38.04-15.88 15.87-38.41 15.82-22.53-.04-40.47-14.6-78.54-64.74-169.58-101.95-91.05-37.21-194.71-37.21-103.66 0-194.71 37.21-91.04 37.21-169.58 101.95-17.94 14.56-40.1 14.48-22.15-.08-37.87-15.96-16.21-16.05-15.3-37.82.91-21.78 17.95-36.83 89.6-77.87 201.5-123.52Q353.8-814.59 480-814.59Zm-47.17 635.76-70.61-31.02q-11.52-4.89-11.52-17.48 0-12.6 11.52-17.49l70.61-31.01 29.92-68.86q4.89-11.27 17.37-11.27 12.47 0 17.37 11.35l29.92 68.78 70.61 31.01q11.36 4.89 11.36 17.49 0 12.59-11.36 17.48l-70.61 31.02-29.92 65.95q-4.9 11.51-17.37 11.51-12.48 0-17.37-11.27l-29.92-66.19Z"/></svg>