<svg xmlns="http://www.w3.org/2000/svg" height="40" viewBox="0 -960 960 960" width="40"><path d="M151.058-153.304q-31.66 0-54.707-22.714-23.047-22.713-23.047-53.04v-501.884q0-30.393 22.38-53.153 22.38-22.76 53.374-22.76h661.884q30.393 0 53.153 22.76 22.76 22.76 22.76 53.153v159.762q0 16-11.066 26.938-11.065 10.938-27.101 10.938t-26.891-10.938q-10.855-10.938-10.855-26.938v-86.958l-310.645 198.5q-4.846 2.812-9.753 4.138-4.906 1.326-10.544 1.326-5.638 0-10.544-1.326-4.907-1.326-9.753-4.138l-310.645-198.5v429.08h475.218q16 0 26.938 10.972 10.939 10.972 10.939 27.022 0 16.05-10.939 26.905-10.938 10.855-26.938 10.855H151.058ZM480-522.275l330.942-208.667H149.058L480-522.275ZM149.058-229.058v-429.08 5.463-50.762 1.403-28.908 28.949-1.299 51.284-6.13 429.08Zm616.428 75.754q-15 0-25.834-10.754-10.833-10.753-10.833-25.913v-120q0-15 11.58-25.833 11.58-10.833 28.42-10.833v-43.334q0-31.465 22.53-54.066 22.529-22.6 54.166-22.6 31.637 0 54.137 22.6 22.5 22.601 22.5 54.066v43.334q17 0 28.5 10.833t11.5 25.833v120q0 15.16-10.753 25.913-10.754 10.754-25.913 10.754h-160Zm36.666-193.333h86.667v-43.275q0-18.233-12.441-30.812-12.442-12.58-30.834-12.58t-30.892 12.538q-12.5 12.538-12.5 30.795v43.334Z"/></svg>