<svg xmlns="http://www.w3.org/2000/svg" height="40" viewBox="0 -960 960 960" width="40"><path d="M110.942-193.304q-16.084 0-26.86-10.972-10.778-10.972-10.778-27.081 0-16.108 10.777-26.785 10.777-10.676 26.861-10.676h327.435q15.996 0 26.817 10.972 10.82 10.972 10.82 27.08 0 16.108-10.777 26.785-10.776 10.677-26.86 10.677H110.942Zm0-209.058q-16.084 0-26.86-10.972-10.778-10.972-10.778-27.081 0-16.108 10.777-26.785t26.861-10.677h135.725q16.064 0 26.93 10.972 10.867 10.972 10.867 27.081 0 16.108-10.867 26.785-10.866 10.677-26.93 10.677H110.942Zm0-209.059q-16.084 0-26.86-10.972-10.778-10.972-10.778-27.08 0-16.108 10.777-26.785t26.861-10.677h135.725q16.064 0 26.93 10.972 10.867 10.972 10.867 27.08 0 16.109-10.867 26.786-10.866 10.676-26.93 10.676H110.942Zm453.044 292.537q-84.41 0-143.68-59.565-59.27-59.566-59.27-144.29 0-84.725 59.292-144.421 59.292-59.695 143.612-59.695 84.321 0 143.658 59.666 59.337 59.665 59.337 144.319 0 31.241-9.221 60.82t-28.062 54.753l132.037 132.834q10.543 10.745 10.423 25.307-.119 14.562-10.662 25.185-10.544 10.623-25.345 10.623-14.801 0-25.547-10.782L679.077-356.645q-25.41 19-54.724 28.381-29.314 9.38-60.367 9.38Zm-.277-72.565q54.441 0 92.671-38.234 38.229-38.233 38.229-92.978t-38.031-93.227q-38.031-38.482-92.361-38.482-54.529 0-92.612 38.296-38.084 38.296-38.084 93.005 0 54.895 37.907 93.258 37.907 38.362 92.281 38.362Z"/></svg>