<svg xmlns="http://www.w3.org/2000/svg" height="40" viewBox="0 -960 960 960" width="40"><path d="m132.609-843.007 71.079 72.065h-54.63v458.696h416.994L50.145-827.407Q39.92-837.472 40.134-851.95q.214-14.478 10.438-24.449 10.225-9.971 24.72-10.011 14.497-.04 24.258 10.185l744.674 749.34q8.732 8.892 9.026 21.703.293 12.812-7.852 22.37-9.478 10.89-23.369 11.224-13.891.334-23.956-9.224l-154.92-152.492 18.18-.08 37.167 36.58q5.891 5.925 8.503 12.861 2.613 6.936 2.613 14.422v23.123q0 15.386-10.363 25.794-10.362 10.409-25.681 10.409H286.428q-15.319 0-25.681-10.409-10.363-10.408-10.363-25.794v-23.79q0-7.254 2.613-13.972 2.612-6.719 8.503-12.644l36.501-36.58H149.058q-30.986-2.312-53.37-25.123-22.384-22.811-22.384-53.739v-458.696q0-32 21.986-52.033 21.985-20.032 37.319-20.032Zm678.333-3.848q15.596 0 29.095 6.257 13.499 6.257 23.902 16.659 10.402 10.403 16.659 23.902t6.257 29.095v493.457q0 16-11.066 26.938-11.065 10.938-27.101 10.938t-26.891-10.938q-10.855-10.938-10.855-26.938v-493.457H315.188q-18.685 0-27.788-11.883-9.103-11.882-9.342-25.902-.24-14.259 9.103-26.193 9.342-11.935 28.027-11.935h495.754ZM555.688-515.688Zm-198.267-4.443Z"/></svg>