<svg xmlns="http://www.w3.org/2000/svg" height="40" viewBox="0 -960 960 960" width="40"><path d="M479.869-263.073q73.703 0 124.381-50.548 50.677-50.549 50.677-124.243 0-74.361-50.659-124.712t-124.362-50.351q-74.37 0-124.602 50.281-50.231 50.282-50.231 124.59 0 73.773 50.213 124.378 50.213 50.605 124.583 50.605Zm.037-71.927q-44.392 0-73.649-29.59Q377-394.181 377-438q0-44.486 29.303-73.823 29.302-29.336 73.703-29.336 43.733 0 73.443 29.336Q583.16-482.486 583.16-438q0 43.819-29.677 73.41Q523.806-335 479.906-335ZM149.058-113.304q-30.994 0-53.374-22.38-22.38-22.38-22.38-53.374v-497.218q0-30.392 22.38-53.152t53.374-22.76h134.101l53.653-60.486q10.275-12.131 24.797-18.156 14.521-6.025 30.797-6.025h175.348q16.096 0 30.627 6.025 14.532 6.025 24.807 18.156L677-762.188h133.942q30.393 0 53.153 22.76 22.76 22.76 22.76 53.152v497.218q0 30.994-22.76 53.374-22.76 22.38-53.153 22.38H149.058ZM480-189.058h330.942v-497.218H643.225l-75.152-84.666H480v581.884Z"/></svg>