<svg xmlns="http://www.w3.org/2000/svg" height="40" viewBox="0 -960 960 960" width="40"><path d="m249.63-279.71 54.812 54.812q11.022 11.181 11.022 26.554t-11.116 26.489q-11.181 11.181-26.602 11.181-15.42 0-26.442-11.181l-119.37-118.971q-5.891-5.891-8.576-12.515-2.684-6.623-2.684-14.246 0-7.464 2.684-14.167 2.685-6.702 8.576-12.594l119.37-118.971q11.022-11.022 26.395-11.022t26.649 11.022q11.116 11.275 11.116 26.648t-11.116 26.489l-54.718 54.718h202.162q16.166 0 27.101 10.855 10.935 10.855 10.935 27.022 0 16.167-10.935 27.022-10.935 10.855-27.101 10.855H249.63Zm346.096 1.594q-16.218 0-27.725-11.627-11.507-11.627-11.507-27.844 0-16.725 11.507-28.098 11.507-11.373 27.725-11.373 16.724 0 28.097 11.373 11.374 11.373 11.374 28.098 0 16.217-11.374 27.844-11.373 11.627-28.097 11.627Zm145.767 0q-16.217 0-27.924-11.627-11.706-11.627-11.706-27.844 0-16.725 11.706-28.098 11.707-11.373 27.924-11.373 16.725 0 27.978 11.373 11.254 11.373 11.254 28.098 0 16.217-11.254 27.844-11.253 11.627-27.978 11.627Zm-31.123-326.42H508.208q-16.166 0-27.021-10.855t-10.855-27.022q0-16.167 10.855-27.101 10.855-10.935 27.021-10.935H710.37l-54.812-54.812q-11.022-11.022-11.022-26.395t11.276-26.649q11.021-11.021 26.442-11.021 15.42 0 26.601 11.021l119.211 119.131q5.891 5.891 8.576 12.515 2.684 6.623 2.684 14.246 0 7.464-2.684 14.167-2.685 6.702-8.576 12.434L708.855-496.681q-11.181 11.022-26.554 11.022t-26.489-11.022q-11.276-11.275-11.276-26.648t11.276-26.489l54.558-54.718Zm-491.704 1.594q-16.217 0-27.804-11.707-11.587-11.706-11.587-27.764 0-16.884 11.587-28.257 11.587-11.373 27.804-11.373 16.725 0 28.098 11.373 11.373 11.373 11.373 28.257 0 16.058-11.373 27.764-11.373 11.707-28.098 11.707Zm145.608 0q-16.217 0-27.844-11.707-11.627-11.706-11.627-27.764 0-16.884 11.627-28.257 11.627-11.373 27.844-11.373 16.725 0 28.058 11.373 11.333 11.373 11.333 28.257 0 16.058-11.333 27.764-11.333 11.707-28.058 11.707Z"/></svg>