<svg xmlns="http://www.w3.org/2000/svg" height="40" viewBox="0 -960 960 960" width="40"><path d="M151.21-112.507q-31.254 0-53.504-22.25-22.25-22.249-22.25-53.503v-638.675q0-6.604 5.678-8.979 5.677-2.376 10.569 2.276l52.109 51.631 53.202-53.964q5.678-5.891 13.488-5.891t13.701 5.891l53.964 53.964 54.123-53.964q5.489-5.891 13.357-5.891 7.867 0 13.831 5.891l52.964 53.724 53.964-53.485q5.678-6.13 13.487-6.13 7.81 0 13.701 6.13l53.964 53.485 53.123-53.724q5.49-5.891 13.357-5.891 7.868 0 13.832 5.891l53.963 53.964 53.964-53.964q5.678-5.891 13.488-5.891 7.809 0 13.701 5.891l53.202 53.964 52.109-51.631q4.892-4.652 10.569-2.276 5.678 2.375 5.678 8.979v638.675q0 31.254-22.25 53.503-22.25 22.25-53.504 22.25H151.21Zm0-75.753h292.508v-266.668H151.21v266.668Zm365.072 0H808.79v-96.813H516.282v96.813Zm0-169.617H808.79v-97.051H516.282v97.051ZM151.21-527.652h657.58v-113.942H151.21v113.942Z"/></svg>