<svg xmlns="http://www.w3.org/2000/svg" height="40" viewBox="0 -960 960 960" width="40"><path d="m480-825.899 114.674-114.514q11.022-11.022 26.522-11.022 15.5 0 26.561 11.022 11.062 11.021 11.062 26.402 0 15.38-11.102 26.641L506.522-746.334q-11.37 11.276-26.529 11.276-15.16 0-26.515-11.276L392.051-807q-11.276-11.022-11.268-26.276.007-15.253 10.768-26.529 11.663-11.355 27.403-11.355 15.741 0 27.14 11.355L480-825.899ZM113.304-44.275v-300.87q0-6.082.786-12.244.787-6.162 3.106-12.133l76.442-226.5q7.623-23.377 27.315-37.384 19.692-14.007 44.308-14.007h429.478q24.616 0 44.308 14.007t27.475 37.384l76.282 226.5q2.319 5.971 3.185 12.133.866 6.162.866 12.244v301.11q0 20.905-14.715 35.539T796.403 6.138q-20.902 0-35.598-14.814-14.696-14.813-14.696-35.599v-32.254H213.891v32.493q0 20.906-14.68 35.54T163.56 6.138q-21.024 0-35.64-14.814-14.616-14.813-14.616-35.599Zm102.232-378.949h529.088L694.834-571.5H265.166l-49.63 148.276Zm-26.478 66.666v204.276-204.276Zm102.727 158.725q23.664 0 39.91-16.334 16.247-16.333 16.247-39.666 0-23.889-16.413-40.611-16.413-16.722-39.587-16.722-24.049 0-40.691 16.676-16.642 16.677-16.642 40.5 0 23.824 16.596 39.99 16.597 16.167 40.58 16.167Zm377.099 0q23.889 0 40.611-16.334 16.723-16.333 16.723-39.666 0-23.889-16.677-40.611-16.676-16.722-40.5-16.722-23.823 0-39.99 16.676-16.167 16.677-16.167 40.5 0 23.824 16.334 39.99 16.333 16.167 39.666 16.167Zm-479.826 45.551h581.884v-204.276H189.058v204.276Z"/></svg>