<svg xmlns="http://www.w3.org/2000/svg" height="40" viewBox="0 -960 960 960" width="40"><path d="M308.558-190.413v29.16q0 21.912-15.143 37.043-15.142 15.13-37.07 15.13-21.809 0-37.091-15.31-15.283-15.31-15.283-37.102v-66.479q-25.493-17.936-38.08-46.899t-12.587-61.611V-710.58l-99.79-99.871q-10.32-10.395-10.399-24.828-.08-14.432 10.459-24.831 10.538-10.398 24.87-10.398 14.33 0 24.809 10.318l749.886 750.14q10.318 10.362 10.398 24.232.08 13.87-10.459 24.347-10.471 10.479-24.869 10.479T803.4-61.471L658.5-205.623h99.318v43.69q0 21.813-15.544 37.334-15.544 15.52-37.391 15.52-21.846 0-37.643-15.716-15.798-15.717-15.798-37.805v-27.812H308.558Zm1.911-75.753h287.329L394.189-469.775H229.058v117.609q0 34.174 23.523 60.087 23.522 25.913 57.888 25.913Zm170.198-618.856q171.684 0 248.936 36.585 77.252 36.586 77.252 118.27v409.508q0 16-11.066 26.938-11.065 10.938-27.101 10.938t-26.891-10.938q-10.855-10.938-10.855-26.938v-149.116H591.899q-16.826 0-25.079-10.379-8.254-10.379-8.254-22.833 0-12.614 8.254-23.034 8.253-10.42 25.079-10.42h139.043v-155.335h-358.45q-16.333 0-24.5-10.378-8.167-10.379-8.167-22.834 0-12.614 8.167-23.034 8.167-10.42 24.5-10.42h356.175q-21-23.16-82.834-36.913-61.833-13.754-164.5-13.754-67.565 0-113.768 3.529t-75.74 13.065q-15.463 4.094-26.242-4.141-10.779-8.235-14.113-21.418-3.333-13.183 2.75-27.236 6.084-14.052 25.902-19.878 36.392-11.377 86.21-15.606 49.819-4.228 114.335-4.228ZM331.981-311.717q23.468 0 40.048-16.539 16.579-16.54 16.579-40.167 0-23.468-16.619-40.048-16.618-16.579-40.166-16.579t-40.048 16.619q-16.5 16.619-16.5 40.166 0 23.548 16.539 40.048 16.54 16.5 40.167 16.5ZM229.058-536.441h98.465l-98.465-98.386v98.386Zm75.101-222.001h424.508-424.508Zm90.03 288.667Zm198.637 0Z"/></svg>