<svg xmlns="http://www.w3.org/2000/svg" height="40" viewBox="0 -960 960 960" width="40"><path d="M788.95-75.92 577.964-286h-88.978q-35.726 0-59.82-24.17-24.093-24.171-24.093-59.743v-88.899L75.173-788.95Q64.95-799.175 64.87-813.566q-.08-14.391 10.228-24.869 10.396-10.478 24.787-10.478 14.391 0 24.819 10.428l713.826 713.826q10.319 10.319 10.352 24.29.032 13.97-10.446 24.449-10.478 10.225-24.742 10.351-14.265.127-24.743-10.351Zm-393.221-1.13q-84.265 0-142.269-58.004-58.004-58.004-58.004-142.239 0-73.781 50.939-130.012 50.939-56.231 125.345-66.311v74.471q-46.631 7.666-75.055 44.071-28.425 36.405-28.425 77.741 0 53.551 36.98 90.634t90.463 37.083q44.667 0 79.765-28.916 35.098-28.917 42.061-74.135h74.732q-9.681 76.515-67.323 126.065-57.641 49.551-129.209 49.551ZM481.891-733q-32.171 0-55.227-23.124-23.055-23.123-23.055-55.325t23.077-55.279q23.077-23.077 55.279-23.077t55.285 23.077q23.083 23.077 23.083 55.279t-23.102 55.325Q514.129-733 481.891-733Zm281.537 241.181q0 15.051-10.566 24.703-10.565 9.652-24.695 7.239-44.645-7.094-88.841-29.098-44.196-22.004-80.783-52.301v41.429L415.297-642.855q8.667-18.333 25.464-29.446 16.797-11.112 39.843-11.112 19.751 0 34.646 6.667 14.895 6.666 32.025 23.318l38.906 41.551q25.956 27.92 64.033 50.507 38.076 22.587 77.978 30.667 14.908 2.783 25.072 13.388t10.164 25.496Z"/></svg>