<svg xmlns="http://www.w3.org/2000/svg" height="40" viewBox="0 -960 960 960" width="40"><path d="M647.334-307.594q48.13 0 81.528 33.399 33.399 33.398 33.399 81.529 0 48.13-33.399 81.528-33.398 33.399-81.528 33.399-36.986 0-66.845-21.627-29.858-21.627-40.938-57.04H261.703l-40.428 62.109q-8.145 12.558-21.989 15.725-13.844 3.166-25.735-5.058-12.319-8.653-15.819-22.537-3.5-13.883 4.485-26.202l171.131-260.682q-64.84-26.333-109.134-80.935-44.293-54.601-57.33-124.159-2.507-17.167 8.982-30.116 11.489-12.949 28.815-12.949h472.131q17.166 0 28.322 12.949 11.156 12.949 8.649 30.116-13.037 69.051-57.33 123.319-44.294 54.268-108.468 81.108l43.385 67.219q-17.13 7.681-31.373 17.931-14.243 10.25-24.83 23.902l-57.797-89.458q-7.942 2-17.49 2h-37.76q-9.548 0-18.156-2L307.536-226.26h232.015q11.08-36.24 40.605-58.787 29.525-22.547 67.178-22.547Zm0 160q19.108 0 32.09-12.982 12.982-12.982 12.982-32.09 0-19.109-12.982-32.091t-32.09-12.982q-19.109 0-32.091 12.982t-12.982 32.091q0 19.108 12.982 32.09 12.982 12.982 32.091 12.982ZM440-444.689q62.058 0 113.627-33.496 51.569-33.496 77.315-90.221H250.391q24.667 56.725 76.029 90.221 51.363 33.496 113.58 33.496ZM321.812-779.594q-19.051-23.986-26.609-44.736-7.558-20.75-5.652-46.214.747-8.224 6.511-13.623 5.765-5.398 13.989-5.398 7.225 0 11.957 5.851 4.731 5.852 4.731 13.076-1 22.855 5.769 39.703 6.768 16.848 23.318 38.094 17.558 23.732 25.457 44.816 7.898 21.083 6.804 46.576-.253 8.464-5.931 13.982-5.677 5.518-14.141 5.518-7.225 0-11.957-5.892-4.731-5.891-3.826-13.275 1.508-20.188-5.594-37.884-7.101-17.696-24.826-40.594Zm89.333 0q-19.051-23.066-27.069-43.895-8.018-20.83-6.192-47.055.746-8.224 6.391-13.623 5.645-5.398 13.95-5.398 7.384 0 12.036 5.851 4.652 5.852 4.145 13.076-1.667 19.681 5.434 37.37 7.102 17.688 24.16 40.427 17.558 23.051 25.456 44.388 7.899 21.337 6.805 47.337-.094 8.384-5.852 13.775-5.757 5.392-14.061 5.392-7.384 0-11.996-5.518-4.613-5.518-4.374-13.41 1-24.855-5.347-41.417-6.348-16.561-23.486-37.3Zm88.174 0q-19.559-24.399-27.497-45.149-7.938-20.75-6.192-45.801.746-8.224 6.511-13.623 5.764-5.398 14.069-5.398 7.384 0 11.876 5.851 4.493 5.852 3.827 13.076-1.667 19.681 5.434 37.37 7.102 17.688 24.986 40.427 17.558 22.892 25.377 44.308 7.818 21.417 6.217 47.417-.254 8.384-5.891 13.775-5.638 5.392-13.942 5.392-7.384 0-12.036-5.892-4.653-5.891-4.573-13.942 1.667-23.521-4.974-40.297-6.642-16.775-23.192-37.514ZM440-444.689Z"/></svg>