<svg xmlns="http://www.w3.org/2000/svg" height="40" viewBox="0 -960 960 960" width="40"><path d="M741.414-275.456h-132.08q-16 0-26.939-10.972-10.938-10.972-10.938-27.022 0-16.05 10.938-26.905 10.939-10.855 26.939-10.855h132.08l-39.493-40.159q-10.276-10.942-10.489-25.917-.214-14.975 11.38-26.569 11.022-11.021 26.522-11.021 15.5 0 26.521 11.021l103.761 103.761q5.797 5.797 8.529 12.573 2.732 6.775 2.732 14.188t-2.732 14.188q-2.732 6.776-8.529 12.573L755.855-182.811q-11.021 11.021-26.514 11.028-15.493.008-27.326-11.826-10.783-10.782-10.449-25.764.333-14.982 10.449-25.924l39.399-40.159Zm-590.204 0q-31.326 0-53.54-22.214-22.213-22.214-22.213-53.54v-417.58q0-31.326 22.213-53.54 22.214-22.214 53.54-22.214h537.58q31.326 0 53.54 22.214t22.214 53.54v176.247q0 15.166-11.391 26.521-11.39 11.355-26.603 11.355-16.05 0-26.905-10.938t-10.855-26.938v-122.023L416-522.42 151.21-713.566v362.356h295.5q16 0 26.939 10.972 10.938 10.972 10.938 27.022 0 16.049-10.938 26.905-10.939 10.855-26.939 10.855h-295.5Zm52.898-493.334L416-615.58l217.334-153.21H204.108ZM151.21-351.21V-768.79v417.58Z"/></svg>