<svg xmlns="http://www.w3.org/2000/svg" height="40" viewBox="0 -960 960 960" width="40"><path d="M189.058-113.304q-30.994 0-53.374-22.38-22.38-22.38-22.38-53.374v-581.884q0-31.06 22.38-53.486 22.38-22.427 53.374-22.427h582.124q30.993 0 53.373 22.427 22.38 22.426 22.38 53.486v45.681q0 16.159-10.972 27.098-10.972 10.938-27.022 10.938-16.049 0-26.904-10.938-10.855-10.939-10.855-27.098v-45.681H189.058v581.884h582.124v-45.84q0-16 10.972-26.939 10.972-10.938 27.021-10.938 16.05 0 26.905 10.938 10.855 10.939 10.855 26.939v45.84q0 30.994-22.38 53.374-22.38 22.38-53.373 22.38H189.058Zm552.674-328.819H392.775q-16 0-26.938-10.972-10.939-10.972-10.939-27.022 0-16.05 10.939-26.905 10.938-10.855 26.938-10.855h348.957L666-594.529q-10.355-11.022-10.735-26.39-.38-15.368 10.975-26.653 11.021-11.022 26.521-11.022t26.522 11.022l140.811 140.811q5.877 5.918 8.569 12.714 2.692 6.796 2.692 14.154 0 7.357-2.692 14.052-2.692 6.695-8.569 12.602L719.283-312.428q-11.022 11.022-26.323 11.189-15.302.166-26.72-11.189-11.022-11.021-11.142-26.521-.119-15.5 10.902-26.522l75.732-76.652Z"/></svg>