<svg xmlns="http://www.w3.org/2000/svg" height="40" viewBox="0 -960 960 960" width="40"><path d="M114-271.876h732.667q16.166 0 27.022 10.855 10.855 10.855 10.855 27.021 0 16.167-11.189 27.355-11.188 11.189-27.355 11.189H113.333q-16.166 0-27.022-11.189Q75.456-217.833 75.456-234q0-16.166 11.189-27.021Q97.833-271.876 114-271.876Zm40.384-239.842-22.978 40.943q-5.653 9.717-15.957 12.583-10.304 2.866-19.862-2.786-9.718-5.493-12.877-16.131-3.16-10.637 2.652-20.355l23.486-40.942h-47.13q-11.052 0-18.657-8.018t-7.605-18.909q0-10.892 7.939-18.576 7.938-7.685 18.989-7.685h46.464L85.362-631.87q-5.811-9.717-2.985-20.355 2.826-10.637 12.543-16.13 9.558-5.652 20.196-2.573 10.637 3.08 16.29 12.797l22.978 39.849 22.978-40.515q5.493-9.718 15.678-12.464 10.185-2.746 19.902 2.906 9.717 5.493 12.877 16.13 3.159 10.638-2.653 20.355l-23.485 40.276h47.131q10.891 0 18.576 7.685 7.684 7.684 7.684 18.576 0 10.891-7.684 18.909-7.685 8.018-18.576 8.018h-47.131l23.725 41.181q5.652 9.558 2.826 20.156-2.826 10.598-12.384 16.091-9.718 5.652-20.355 2.373-10.638-3.279-16.131-12.837l-22.978-40.276Zm325.616 0-22.312 40.276q-5.492 9.717-16.463 12.663-10.971 2.946-20.689-2.866-9.717-5.652-12.463-16.544-2.747-10.891 2.905-20.608l23.645-40.942h-47.29q-10.891 0-18.576-8.018-7.684-8.019-7.684-18.91t8.018-18.576q8.018-7.685 18.909-7.685h46.623l-23.645-40.275q-5.652-9.718-2.905-20.355 2.746-10.638 12.463-16.131 9.718-5.652 20.355-2.572 10.638 3.08 16.131 12.797L480-619.616l22.978-40.515q5.493-9.717 15.797-12.463 10.305-2.747 20.022 2.905 9.717 5.653 12.877 16.211 3.159 10.557-2.652 20.275l-23.486 40.275h47.131q10.891 0 18.576 7.685 7.684 7.685 7.684 18.576 0 10.891-7.684 18.91-7.685 8.018-18.576 8.018h-47.131l24.391 40.942q5.653 9.717 2.493 20.608-3.159 10.892-12.717 16.544-9.717 5.812-20.808 2.533-11.091-3.279-16.583-12.997L480-511.718Zm325.616 0-22.391 40.515q-5.652 9.717-16.504 12.543-10.851 2.827-20.569-2.985-9.558-5.652-12.384-16.504-2.826-10.851 2.826-20.409l23.885-41.181h-47.291q-10.891 0-18.576-8.018-7.684-8.019-7.684-18.91t8.018-18.576q8.018-7.685 18.909-7.685h46.624l-23.645-40.514q-5.653-9.558-2.946-20.156 2.706-10.598 12.264-16.091 9.718-5.652 20.355-2.572 10.638 3.08 16.29 12.797l22.819 39.848 22.978-40.515q5.653-9.717 15.957-12.463 10.304-2.747 19.862 2.905 9.717 5.653 12.877 16.211 3.159 10.557-2.493 20.275l-23.645 40.275h47.131q11.05 0 18.656 7.685 7.605 7.685 7.605 18.576 0 10.891-7.605 18.91-7.606 8.018-18.656 8.018h-47.131l24.392 40.942q5.652 9.717 2.572 20.608-3.08 10.892-12.797 16.544-9.717 5.812-20.728 2.533-11.011-3.279-16.663-12.997l-22.312-39.609Z"/></svg>