<svg xmlns="http://www.w3.org/2000/svg" height="40" viewBox="0 -960 960 960" width="40"><path d="M189.058-149.877q-31.494 0-53.624-22.213-22.13-22.214-22.13-53.54v-31.42q0-38.413 19.525-67.525 19.524-29.112 50.888-44.294 65.892-30.573 129.014-45.899Q375.853-430.094 440-430.094q18.268 0 36.536 1.127 18.269 1.127 36.537 4.301 10.116 1.906 15.826 8.784 5.71 6.878 5.79 16.737.985 49 23.638 91.794 22.652 42.794 61.732 71.207 7.185 5.161 11.342 12.664 4.158 7.503 4.158 16.192v19.609q0 15.926-10.939 26.864-10.938 10.938-26.938 10.938H189.058Zm250.867-346.884q-66.795 0-113.374-46.623-46.58-46.623-46.58-113.37 0-66.746 46.576-113.366 46.575-46.619 113.369-46.619t113.533 46.665q46.739 46.666 46.739 113.316 0 66.749-46.735 113.373-46.734 46.624-113.528 46.624Zm304.061 112.689q17.171 0 28.984-11.794 11.813-11.795 11.813-28.939t-11.813-29.002q-11.813-11.859-28.984-11.859-17.172 0-28.985 11.859-11.813 11.858-11.813 29.018 0 17.159 11.813 28.938t28.985 11.779Zm6.884 353.58L708.572-72.63q-2.239-2.433-5.384-13.087v-181.972q-44.746-13.29-73.329-50.542-28.584-37.252-28.584-86.24 0-59.195 41.752-100.992 41.751-41.797 100.965-41.797 59.214 0 101.039 41.865 41.824 41.866 41.824 101.09 0 45.95-25.859 81.588-25.858 35.638-65.735 50.957l37.203 37.282q5.732 5.722 5.732 13.589 0 7.868-5.732 13.6l-34.087 34.087q-5.891 5.678-5.891 13.487 0 7.81 5.891 13.701l34.087 33.928q5.732 5.721 5.732 13.589 0 7.867-5.732 13.599l-54.406 54.406q-5.721 5.891-13.589 5.891-7.867 0-13.599-5.891Z"/></svg>