<svg xmlns="http://www.w3.org/2000/svg" height="40" viewBox="0 -960 960 960" width="40"><path d="M32.529-257.05q0-36.573 18.836-66.539 18.837-29.966 51.577-45.28 69.892-31.747 131.015-46.486 61.122-14.739 125.27-14.739 64.606 0 125.324 14.62Q545.268-400.855 615-368.949q32.698 15.099 51.889 45.055 19.191 29.956 19.191 66.844v31.42q0 31.326-22.177 53.54-22.177 22.213-53.736 22.213H108.282q-31.326 0-53.54-22.213-22.213-22.214-22.213-53.54v-31.42Zm819.189 107.173H731.855q9.152-17.833 15.021-36.605 5.87-18.771 5.87-39.148v-32.493q0-58.022-27.5-99.779t-84.037-70.75q61.646 7.573 117.751 22.257 56.105 14.685 94.359 34.779 34.797 19.334 54.475 48.313 19.677 28.98 19.677 64.862v32.811q0 31.326-22.214 53.54-22.213 22.213-53.539 22.213ZM359.264-484.094q-67.634 0-112.137-44.504-44.504-44.503-44.504-112.177t44.511-112.178q44.51-44.503 112.098-44.503 67.587 0 112.17 44.508 44.583 44.509 44.583 112.093 0 67.754-44.543 112.257-44.544 44.504-112.178 44.504Zm383.098-156.763q0 67.517-44.611 112.14-44.61 44.623-112.177 44.623-11.261 0-25.664-1.953-14.403-1.953-26.2-5.939 25.478-27.811 38.684-65.826 13.207-38.016 13.207-82.928t-13.231-81.706q-13.231-36.795-38.66-67.14 12.239-3.885 25.864-5.878 13.625-1.992 25.95-1.992 67.528 0 112.183 44.626t44.655 111.973ZM108.282-225.63h501.885v-30.384q0-14.153-8.167-27.005-8.167-12.853-20.5-18.437-64.884-29.537-115.167-41.131-50.282-11.594-107.108-11.594-56.348 0-107.363 11.594-51.014 11.594-115.58 41.131-12.174 5.561-20.087 18.42-7.913 12.86-7.913 27.022v30.384Zm250.905-331.268q35.866 0 59.93-24.005 24.064-24.004 24.064-59.841 0-35.836-24.004-59.872-24.005-24.036-59.841-24.036t-59.872 23.979q-24.037 23.979-24.037 59.78 0 35.866 23.98 59.931 23.979 24.064 59.78 24.064Zm.038 331.268Zm0-415.225Z"/></svg>