<svg xmlns="http://www.w3.org/2000/svg" height="40" viewBox="0 -960 960 960" width="40"><path d="M356.384-157.239H189.058q-30.994 0-53.374-22.427-22.38-22.427-22.38-53.486v-581.885q0-31.326 22.38-53.539 22.38-22.214 53.374-22.214h581.884q31.06 0 53.486 22.214 22.427 22.213 22.427 53.539v581.885q0 31.059-22.427 53.486-22.426 22.427-53.486 22.427H603.058l-96.775 96.616q-5.88 5.877-12.632 8.569-6.752 2.692-14.059 2.692-7.534 0-14.173-2.692t-12.499-8.569l-96.536-96.616ZM189.058-277.137q58-53.964 131.235-86.214 73.235-32.25 159.638-32.25 86.402 0 159.707 32.011 73.304 32.011 131.304 86.134v-537.581H189.058v537.9Zm292.256-190.305q58.816 0 99.548-40.712 40.732-40.713 40.732-99.529 0-58.817-40.712-99.429-40.713-40.612-99.529-40.612-58.817 0-99.549 40.593-40.731 40.593-40.731 99.409 0 58.817 40.712 99.548 40.713 40.732 99.529 40.732Zm-231.315 234.29h460.002v-7.978q-50-42.334-108.334-63.595Q543.334-325.986 480-325.986t-121.667 21.261q-58.334 21.261-108.334 63.595v7.978Zm231.259-303.905q-29.367 0-49.849-20.606-20.482-20.607-20.482-50.044 0-29.438 20.557-49.92 20.557-20.482 49.924-20.482 29.368 0 49.85 20.557 20.482 20.557 20.482 49.924 0 29.368-20.558 49.969-20.557 20.602-49.924 20.602ZM480-546.341Z"/></svg>