<svg xmlns="http://www.w3.org/2000/svg" height="40" viewBox="0 -960 960 960" width="40"><path d="M382.391-483.986q-34.67 0-57.57-25.815-22.901-25.815-18.01-59.88l14.203-106.848q7.947-58.638 53.209-97.033T480-811.957q60.515 0 105.777 38.395t53.209 97.033l14.203 106.848q4.891 34.065-18.01 59.88-22.9 25.815-57.411 25.815H382.391Zm-3.058-73.84h201.493l-14.72-107.977q-4.707-31.241-29.223-51.777t-56.855-20.536q-32.34 0-56.848 20.39-24.508 20.391-29.325 52.074l-14.522 107.826Zm100.667 0ZM153.304-225.63v-31.42q0-38.413 19.525-67.525 19.524-29.112 50.888-44.294 65.892-30.573 129.012-45.899 63.121-15.326 127.228-15.326 64.566 0 127.326 15.62 62.76 15.619 128.28 45.655 32.274 15.045 51.783 44.077 19.509 29.032 19.509 67.692v31.42q0 31.326-22.177 53.54-22.176 22.213-53.736 22.213H229.058q-31.494 0-53.624-22.213-22.13-22.214-22.13-53.54Zm75.754 0h501.884v-30.384q0-14.153-8.166-26.672-8.167-12.519-20.501-18.77-59.55-28.87-112.579-40.798-53.028-11.927-109.775-11.927-56.269 0-110.283 11.927-54.015 11.928-112.512 40.773-12.402 6.252-20.235 18.779-7.833 12.526-7.833 26.688v30.384Zm250.942 0Z"/></svg>