<svg xmlns="http://www.w3.org/2000/svg" height="40" viewBox="0 -960 960 960" width="40"><path d="M635.594-320q-14 0-24-10t-10-24v-132q0-14 10-24t24-10h6v-40q0-33 23.5-56.5t56.5-23.5q33 0 56.5 23.5t23.5 56.5v40h6q14 0 24 10t10 24v132q0 14-10 24t-24 10h-172Zm46-200h80v-40q0-17-11.5-28.5t-28.5-11.5q-17 0-28.5 11.117-11.5 11.116-11.5 27.55V-520ZM269.616-33.862q-31.249 0-53.501-22.253-22.253-22.252-22.253-53.501v-740.768q0-31.249 22.253-53.501 22.252-22.253 53.501-22.253h420.768q31.249 0 53.501 22.253 22.253 22.252 22.253 53.501v117.333q0 16-10.972 26.938-10.972 10.939-27.022 10.939-16.05 0-26.905-10.939-10.855-10.938-10.855-26.938v-17.334H269.616v540.77h420.768v-17.334q0-15.98 10.972-27.008 10.972-11.028 27.022-11.028 16.05 0 26.905 11.028t10.855 27.008v117.333q0 31.249-22.253 53.501-22.252 22.253-53.501 22.253H269.616Zm0-109.087v33.333h420.768v-33.333H269.616Zm0-674.102h420.768v-33.333H269.616v33.333Zm0 0v-33.333 33.333Zm0 674.102v33.333-33.333Z"/></svg>