<svg xmlns="http://www.w3.org/2000/svg" height="40" viewBox="0 -960 960 960" width="40"><path d="M808.819-730.942H334.101q-19.058 0-28.468-11.883-9.409-11.882-9.409-25.902 0-14.259 9.409-26.193 9.41-11.935 28.468-11.935h474.718q15.98 0 27.008 11.066 11.028 11.065 11.028 27.101t-11.028 26.891q-11.028 10.855-27.008 10.855Zm78.036 104.543v365.4q0 17.862-11.19 26.913-11.19 9.05-24.667 9.05-13.476 0-24.773-9.217-11.297-9.216-11.297-26.841v-331.414h-212.06v68.769q0 16.427-11.175 24.641-11.176 8.214-24.667 7.416-13.491-.637-24.788-10.813-11.297-10.177-11.297-30.027v-93.877q0-16 10.939-26.939 10.938-10.938 26.938-10.938h280.001q15.98 0 27.008 10.938 11.028 10.939 11.028 26.939ZM568.818-153.304q-16 0-26.938-10.939-10.939-10.938-10.939-26.938v-139.574L229.058-632.052v369.661h180.674q22.826 0 38.684 15.893 15.859 15.893 15.859 38.768t-15.859 38.65q-15.858 15.776-38.684 15.776H127.847q-22.826 0-38.684-15.966-15.859-15.966-15.859-39.253 0-22.463 15.7-38.166 15.699-15.702 38.286-15.702h26.014v-445.573l-69.529-69.37q-10.224-10.224-9.771-24.702.453-14.479 10.677-24.624 10.225-10.145 24.37-10.145 14.145 0 24.369 10.066l708.791 708.283q10.224 10.225 9.891 24.623-.333 14.399-10.558 24.623-10.345 10.384-24.549 10.384-14.204 0-24.27-10.384l-84.333-84.094H568.818Zm140-206.515Z"/></svg>