<svg xmlns="http://www.w3.org/2000/svg" height="40" viewBox="0 -960 960 960" width="40"><path d="M578.21-380.224q36.667-1.333 69.334-15.5 32.666-14.167 58.333-38.167 21.641-19.787 36.619-45.155 14.978-25.369 21.157-54.642 2.398-9.703-4.192-17-6.591-7.297-16.533-5.645-29.226 4.253-56.481 17.39-27.255 13.137-48.903 33.052-26.334 24.667-42.167 56.667-15.834 32-17.167 69Zm0 0q-1.333-37-17.167-69-15.833-32-42.167-56.667-21.521-19.855-48.766-33.018-27.245-13.162-56.459-17.424-9.703-1.652-16.492 5.565-6.79 7.217-4.232 17.08 5.94 29.273 20.984 54.586 15.045 25.312 36.632 45.211 25.712 24 58.436 38.167 32.724 14.167 69.231 15.5Zm0-129.334q19.667 0 32.167-12.5t12.5-32.166v-10l10 3.333q21.667 7.333 37.833 3.667 16.167-3.667 24.167-17.667 8.493-14.333 6.493-33.333-2-19.001-23.16-28.667l-10.666-4.667 10.666-5.333q21-10.334 22.913-28.754 1.913-18.42-6.246-32.58-8.333-14.333-24.667-17.754-16.333-3.42-37.333 3.818l-10 3.269v-10q0-19.666-12.5-32.166-12.5-12.5-32.167-12.5t-32.5 12.5q-12.833 12.5-12.833 32.166v10l-10.044-3.333q-21.732-7.174-37.384-3.754-15.652 3.421-24.558 17.754-8.681 14-6.435 32.5 2.246 18.5 23.087 28.834l10.667 5.333-10.667 4.667q-21 9.694-23 28.76-2 19.066 6.333 33.24 8.16 14.159 24.58 17.746 16.42 3.587 37.421-3.746l10-3.333v10q0 19.666 12.833 32.166 12.833 12.5 32.5 12.5Zm.068-87.333q-19.068 0-31.901-12.765-12.834-12.766-12.834-31.834 0-19.068 12.845-31.901 12.845-12.834 31.834-12.834 19.148 0 31.901 12.845 12.754 12.845 12.754 31.834 0 19.148-12.766 31.901-12.765 12.754-31.833 12.754ZM218.108-71.413q-31.476 3.812-56.067-14.873-24.592-18.685-28.642-50.098l-59.761-472.74q-3.892-31.413 15.333-56.674 19.224-25.26 50.637-28.688l22.559-2q16.913-2.094 28.808 9.316 11.895 11.411 11.895 28.498 0 14.894-9.752 25.229-9.751 10.336-23.826 12.377l-20.742 2 60.616 473.219 531.198-64.776q15.5-2.08 28.022 7.632 12.523 9.712 14.634 25.503 2.112 15.791-7.337 27.625-9.45 11.834-25.616 13.914L218.108-71.413Zm121.826-191.529q-30.993 0-53.373-22.426-22.38-22.427-22.38-53.486v-476.313q0-30.993 22.38-53.373t53.373-22.38h476.552q31.059 0 53.486 22.38 22.427 22.38 22.427 53.373v476.313q0 31.059-22.427 53.486-22.427 22.426-53.486 22.426H339.934Zm0-75.912h476.552v-476.313H339.934v476.313ZM209.166-145.847ZM578.21-577.13Z"/></svg>