<svg xmlns="http://www.w3.org/2000/svg" height="40" viewBox="0 -960 960 960" width="40"><path d="M189.058-113.304q-30.994 0-53.374-22.38-22.38-22.38-22.38-53.374v-581.884q0-31.06 22.38-53.486 22.38-22.427 53.374-22.427h342.508q16 0 26.938 11.066 10.938 11.065 10.938 27.101t-10.938 26.891q-10.938 10.855-26.938 10.855H189.058v581.884h581.884v-342.508q0-16 10.972-26.938 10.972-10.938 27.008-10.938t26.984 10.938q10.949 10.938 10.949 26.938v342.508q0 30.994-22.427 53.374-22.426 22.38-53.486 22.38H189.058Zm241.477-318.565-89.477-40.761q-5.891-2.919-5.891-8.757 0-5.838 5.891-8.649l89.477-40.762 40.762-89.477q2.919-5.892 8.757-5.892 5.837 0 8.649 5.892l40.762 89.477 89.477 40.762q5.891 2.919 5.891 8.756 0 5.838-5.891 8.65l-89.477 40.761-40.762 89.478q-2.919 5.891-8.757 5.891-5.837 0-8.649-5.891l-40.762-89.478ZM645.98-645.98l-60.494-29.317q-5.892-2.919-5.892-8.757 0-5.837 5.892-8.649l60.494-29.317 29.317-60.495q2.919-5.891 8.757-5.891 5.837 0 8.649 5.891l29.317 60.495 60.495 29.317q5.891 2.919 5.891 8.756 0 5.838-5.891 8.65L722.02-645.98l-29.317 60.494q-2.919 5.892-8.756 5.892-5.838 0-8.65-5.892L645.98-645.98Z"/></svg>