<svg xmlns="http://www.w3.org/2000/svg" height="40" viewBox="0 -960 960 960" width="40"><path d="M384.485-527.21h45.333q16.15 0 27.075-10.925t10.925-27.075v-45.333q0-16.15-10.925-27.075t-27.075-10.925h-64q-7.733 0-13.533 5.333-5.8 5.334-5.8 13.606v165.455q0 8.113 5.8 13.526t13.533 5.413q7.841 0 13.254-5.879 5.413-5.88 5.413-13.454v-62.667Zm0-38v-45.333h45.333v45.333h-45.333Zm206.834 120q15.666 0 26.833-10.925 11.166-10.925 11.166-27.075v-127.333q0-16.15-11.166-27.075-11.167-10.925-26.833-10.925h-63.334q-7.733 0-13.533 5.333-5.8 5.334-5.8 13.576v164.849q0 8.083 5.8 13.829t13.533 5.746h63.334Zm-44.667-38v-127.333h44.667v127.333h-44.667Zm165.551-44h28q7.84 0 13.253-5.879 5.414-5.88 5.414-13.534 0-7.92-5.414-13.253-5.413-5.334-13.253-5.334h-28v-45.333h28q7.84 0 13.253-5.88 5.414-5.88 5.414-13.533 0-7.92-5.414-13.254-5.413-5.333-13.253-5.333h-46.667q-7.733 0-13.533 5.333-5.8 5.334-5.8 13.606v165.455q0 8.113 5.8 13.526t13.533 5.413q7.841 0 13.254-5.879 5.413-5.88 5.413-13.454v-62.667ZM286.934-211.18q-30.994 0-53.374-22.38-22.38-22.38-22.38-53.374v-528.552q0-31.059 22.38-53.486 22.38-22.427 53.374-22.427h528.552q31.059 0 53.486 22.427 22.427 22.427 22.427 53.486v528.552q0 30.994-22.427 53.374-22.427 22.38-53.486 22.38H286.934Zm0-75.754h528.552v-528.552H286.934v528.552ZM144.514-68.601q-31.059 0-53.486-22.427-22.427-22.427-22.427-53.486v-566.429q0-16 10.972-26.938 10.972-10.939 27.102-10.939 16.129 0 26.984 10.939 10.855 10.938 10.855 26.938v566.429h566.429q16 0 26.938 10.972 10.939 10.972 10.939 27.101 0 16.13-10.939 26.985-10.938 10.855-26.938 10.855H144.514Zm142.42-746.885v528.552-528.552Z"/></svg>