<svg xmlns="http://www.w3.org/2000/svg" height="40" viewBox="0 -960 960 960" width="40"><path d="M479.941-402.123q-32.347 0-55.082-22.795-22.736-22.794-22.736-55.141 0-32.347 22.795-55.082 22.794-22.736 55.141-22.736 32.347 0 55.082 22.795 22.736 22.794 22.736 55.141 0 32.347-22.795 55.082-22.794 22.736-55.141 22.736ZM442.123-682.58v-125.681q0-16 10.972-26.938 10.972-10.939 27.022-10.939 16.05 0 26.905 10.939 10.855 10.938 10.855 26.938v125.681q0 16.16-10.972 27.098-10.972 10.938-27.022 10.938-16.05 0-26.905-10.938t-10.855-27.098Zm0 530.841V-277.58q0-16 10.972-26.938 10.972-10.938 27.022-10.938 16.05 0 26.905 10.938t10.855 26.938v125.841q0 16-10.972 26.938-10.972 10.939-27.022 10.939-16.05 0-26.905-10.939-10.855-10.938-10.855-26.938ZM682.58-517.877h125.681q16 0 26.938 10.972 10.939 10.972 10.939 27.022 0 16.05-10.939 26.905-10.938 10.855-26.938 10.855H682.58q-16.16 0-27.098-10.972-10.938-10.972-10.938-27.022 0-16.05 10.938-26.905t27.098-10.855Zm-530.841 0H277.58q16 0 26.938 10.972 10.938 10.972 10.938 27.022 0 16.05-10.938 26.905t-26.938 10.855H151.739q-16 0-26.938-10.972-10.939-10.972-10.939-27.022 0-16.05 10.939-26.905 10.938-10.855 26.938-10.855Z"/></svg>