<svg xmlns="http://www.w3.org/2000/svg" height="40" viewBox="0 -960 960 960" width="40"><path d="M445.181-504.993v148.831q0 14.915 10.551 24.984 10.551 10.069 25.246 10.069 14.696 0 24.721-10.652t10.025-25.072v-148.066l47.24 47.812q10.717 10.575 25.007 10.979 14.29.405 24.848-10.385 10.717-10.62 10.717-25.223t-10.734-25.353L506.333-613.681q-11.601-11.355-26.876-11.355-15.276 0-26.645 11.355L346.167-507.036q-10.558 10.717-10.178 25.014.381 14.297 11.098 25.102 10.558 10.202 25.181 10.21 14.623.007 25.34-10.71l47.573-47.573ZM149.058-153.304q-30.994 0-53.374-22.38-22.38-22.38-22.38-53.374v-501.884q0-31.06 22.38-53.486 22.38-22.427 53.374-22.427h661.884q31.06 0 53.486 22.427 22.427 22.426 22.427 53.486v501.884q0 30.994-22.427 53.374-22.426 22.38-53.486 22.38H149.058Zm0-75.754h661.884v-501.884H149.058v501.884Zm0 0v-501.884 501.884Z"/></svg>