<svg xmlns="http://www.w3.org/2000/svg" height="40" viewBox="0 -960 960 960" width="40"><path d="m560.949-218.666 207.138-206.74q10.783-10.942 25.942-10.942t26.065 10.942q10.783 10.868 10.783 26.086 0 15.219-10.783 26.161L587.71-140.775q-11.369 11.355-26.688 11.355-15.319 0-26.674-11.355L414.203-261.159q-10.942-10.868-10.942-26.086 0-15.219 10.882-26.161 10.882-10.942 26.123-10.822 15.241.119 26.183 11.061l94.5 94.501Zm-300.42-176.095v-10h-70.384q-15.442 0-25.863-10.573-10.42-10.574-10.42-26.035t10.54-25.908q10.54-10.447 25.982-10.447h176.812v-90.37H191.05q-15.725 0-26.456-10.732-10.732-10.731-10.732-26.457v-162.666q0-15.399 10.54-25.92 10.54-10.522 25.982-10.522h70.145v-10.001q0-15.282 10.574-25.782 10.573-10.5 25.986-10.5 15.414 0 25.829 10.476 10.415 10.476 10.415 25.806v10.001h70.385q15.441 0 25.862 10.564Q440-783.263 440-767.802q0 15.461-10.42 25.918-10.421 10.456-25.862 10.456H226.666v90.37h176.385q15.614 0 26.281 10.714Q440-619.631 440-603.949v162.666q0 15.442-10.42 25.982-10.421 10.54-25.862 10.54h-70.385v10q0 15.442-10.573 25.863-10.574 10.42-25.987 10.42-15.413 0-25.829-10.476-10.415-10.476-10.415-25.807Z"/></svg>