<svg xmlns="http://www.w3.org/2000/svg" height="40" viewBox="0 -960 960 960" width="40"><path d="M367.464-102.681q-14.42 0-26.148-10.322-11.729-10.323-11.729-27.808v-131.182h-6.667q-106.724-2.826-178.967-80.644Q71.71-430.456 71.71-537.848q0-110.674 75.938-188.007 75.939-77.333 186.453-78.37h40.11l-42.16-42.826q-10.276-10.783-10.489-25.837-.214-15.054 11.38-26.648 11.022-11.102 26.402-11.102 15.381 0 26.641 11.102l106.667 106.587q5.891 5.891 8.457 12.514 2.565 6.623 2.565 14.087 0 7.623-2.565 14.206-2.566 6.584-8.457 12.316L385.985-633.16q-11.021 11.182-26.514 11.109-15.493-.072-27.326-11.906-10.783-10.782-10.449-25.764.333-14.982 10.449-25.765l42.066-42.826h-40.349q-78.101.877-132.25 56.54t-54.149 133.924q0 78.551 52.399 134.627 52.399 56.076 129.725 56.076h71.21v120.566l121.551-120.566h102.065q78.66 0 133.392-55.822 54.732-55.823 54.732-135.547 0-79.059-55.066-134.428-55.065-55.37-133.725-55.37-16.166 0-27.021-10.855t-10.855-27.181q0-16.167 10.855-27.022 10.855-10.855 27.021-10.855 110.645 0 187.674 77.493 77.029 77.493 77.029 188.218 0 111.391-76.695 189.337-76.696 77.945-187.341 77.945h-70.731L393.746-113.717q-5.97 5.891-12.768 8.464-6.797 2.572-13.514 2.572Z"/></svg>