<svg xmlns="http://www.w3.org/2000/svg" height="40" viewBox="0 -960 960 960" width="40"><path d="M269.616-33.862q-31.249 0-53.501-22.253-22.253-22.252-22.253-53.501v-740.768q0-31.249 22.253-53.501 22.252-22.253 53.501-22.253h420.768q31.249 0 53.501 22.253 22.253 22.252 22.253 53.501v740.768q0 31.249-22.253 53.501-22.252 22.253-53.501 22.253H269.616Zm0-109.087v33.333h420.768v-33.333H269.616Zm0-674.102h420.768v-33.333H269.616v33.333ZM480-306.666q-56.736 0-110.227 16.648-53.491 16.649-100.157 44.852v35.551h420.768v-35.551q-46.666-28.203-100.047-44.852-53.38-16.648-110.337-16.648Zm0-66.667q56.787 0 109.753 13.982 52.965 13.982 100.631 39.091v-430.125H269.616v430.125q48.333-25.109 100.965-39.091Q423.213-373.333 480-373.333Zm.51-53.739q48.823 0 83.157-34.177Q598-495.425 598-544.248q0-48.824-34.177-83.157-34.176-34.334-82.999-34.334-48.824 0-83.157 34.177-34.334 34.176-34.334 83 0 48.823 34.177 83.157 34.176 34.333 83 34.333Zm.157-66.666q-21 0-35.834-14.834Q430-523.405 430-544.405t14.833-35.834q14.834-14.833 35.834-14.833 21 0 35.833 14.833 14.834 14.834 14.834 35.834 0 21-14.834 35.833-14.833 14.834-35.833 14.834Zm-.587 284.123h210.304-420.768H480.08Zm.587-334.79ZM480-817.051Zm0 674.102Z"/></svg>