<svg xmlns="http://www.w3.org/2000/svg" height="40" viewBox="0 -960 960 960" width="40"><path d="M656.558-250.21 530.196-124.087q-10.201 10.275-25.633 10.489-15.432.214-26.374-10.648-10.942-11.102-10.982-27.177-.04-16.076 10.743-26.722l125.217-125.217-125.964-126.203q-10.942-10.867-10.489-26.086.453-15.218 11.236-26.16 10.906-11.022 26.518-11.355 15.612-.333 26.395 10.449l125.695 126.123 126.123-126.123q10.783-10.782 26.497-10.449 15.713.333 26.496 11.196 11.022 10.862 10.982 26.163-.04 15.3-10.982 26.242L709.71-303.362l125.964 126.123q10.942 10.942 10.982 26.536.04 15.594-10.982 26.457-11.022 10.862-26.616 10.529-15.594-.334-26.377-11.276L656.558-250.21ZM151.002-770.942q-15.988 0-26.843-11.034-10.855-11.033-10.855-27.022 0-15.988 11.002-26.922 11.001-10.935 26.942-10.935 15.94 0 26.875 11.062 10.935 11.061 10.935 27.091 0 15.962-11.034 26.861-11.033 10.899-27.022 10.899Zm164.511 0q-15.962 0-26.86-11.034-10.899-11.033-10.899-27.022 0-15.988 11.033-26.922 11.034-10.935 27.022-10.935 15.988 0 26.923 11.062 10.934 11.061 10.934 27.091 0 15.962-11.061 26.861-11.062 10.899-27.092 10.899Zm164.37 0q-16.05 0-26.905-11.034-10.855-11.033-10.855-27.022 0-15.988 10.972-26.922 10.972-10.935 27.022-10.935 16.05 0 26.905 11.062 10.855 11.061 10.855 27.091 0 15.962-10.972 26.861-10.972 10.899-27.022 10.899Zm164.547 0q-15.988 0-26.923-11.034-10.934-11.033-10.934-27.022 0-15.988 11.061-26.922 11.062-10.935 27.092-10.935 15.962 0 26.861 11.062 10.898 11.061 10.898 27.091 0 15.962-11.033 26.861-11.034 10.899-27.022 10.899Zm164.272 0q-15.962 0-26.861-11.034-10.899-11.033-10.899-27.022 0-15.988 11.034-26.922 11.033-10.935 27.022-10.935 15.988 0 26.922 11.062 10.935 11.061 10.935 27.091 0 15.962-11.062 26.861-11.061 10.899-27.091 10.899ZM315.513-113.304q-15.962 0-26.86-11.002-10.899-11.001-10.899-26.942 0-15.94 11.033-26.875 11.034-10.935 27.022-10.935 15.988 0 26.923 11.034 10.934 11.033 10.934 27.022 0 15.988-11.061 26.843-11.062 10.855-27.092 10.855ZM151.014-606.573q-15.941 0-26.825-11.061-10.885-11.062-10.885-27.092 0-15.962 11.002-26.861 11.001-10.898 26.942-10.898 15.94 0 28.868 12.127 12.927 12.128 12.927 28.098 0 15.97-13.044 25.829-13.045 9.858-28.985 9.858Zm-.012 164.45q-15.988 0-26.843-10.972t-10.855-27.022q0-16.05 11.002-26.905 11.001-10.855 26.942-10.855 15.94 0 26.875 10.972t10.935 27.022q0 16.05-11.034 26.905-11.033 10.855-27.022 10.855Zm0 164.369q-15.988 0-26.843-11.033-10.855-11.034-10.855-27.022 0-15.988 11.002-26.923 11.001-10.934 26.942-10.934 15.94 0 26.875 11.061 10.935 11.062 10.935 27.092 0 15.962-11.034 26.86-11.033 10.899-27.022 10.899Zm0 164.45q-15.988 0-26.843-11.002-10.855-11.001-10.855-26.942 0-15.94 11.002-26.875 11.001-10.935 26.942-10.935 15.94 0 26.875 11.034 10.935 11.033 10.935 27.022 0 15.988-11.034 26.843-11.033 10.855-27.022 10.855Zm657.7-493.269q-15.962 0-26.861-11.061-10.899-11.062-10.899-27.092 0-15.962 11.034-26.861 11.033-10.898 27.022-10.898 15.988 0 26.922 11.033 10.935 11.034 10.935 27.022 0 15.988-11.062 26.923-11.061 10.934-27.091 10.934Z"/></svg>