<svg xmlns="http://www.w3.org/2000/svg" height="40" viewBox="0 -960 960 960" width="40"><path d="M191.927-116.014q-31.559 0-53.736-22.177-22.177-22.177-22.177-53.736V-600q0-101.661 71.163-172.823Q258.339-843.986 360-843.986h240q101.661 0 172.823 71.163Q843.986-701.661 843.986-600v408.073q0 31.559-22.214 53.736-22.214 22.177-53.54 22.177H191.927Zm0-75.913H768.232V-600q0-69.928-49.152-119.08T600-768.232H360q-70.003 0-119.038 49.152T191.927-600v408.073Zm168.007-290.754q-32.101 0-54.677-22.642t-22.576-54.743q0-32.101 22.642-54.677 22.643-22.576 54.743-22.576 32.101 0 54.677 22.642t22.576 54.743q0 32.101-22.642 54.677-22.643 22.576-54.743 22.576Zm240 0q-32.101 0-54.677-22.642t-22.576-54.743q0-32.101 22.642-54.677t54.743-22.576q32.101 0 54.677 22.642t22.576 54.743q0 32.101-22.642 54.677t-54.743 22.576ZM283.957-191.927v-95.218q0-31.326 21.698-53.54 21.699-22.213 53.258-22.213H600.29q31.559 0 53.736 22.213 22.177 22.214 22.177 53.54v95.218h-71.927v-97.131h-88.312v97.131h-71.928v-97.131h-88.312v97.131h-71.767Zm-92.03 0h576.305-576.305Z"/></svg>