<svg xmlns="http://www.w3.org/2000/svg" height="40" viewBox="0 -960 960 960" width="40"><path d="M157.051-399.471v-447.964q0-31.326 22.213-53.54 22.214-22.213 53.54-22.213h217.58q31.326 0 53.54 22.213 22.214 22.214 22.214 53.54v108.859q0 27.74 13.583 50.343 13.583 22.603 40.149 29.951l110.072 29q50.435 13.463 82.518 55.249 32.084 41.786 32.084 95.388v79.174q0 31.326-22.214 53.54-22.214 22.213-53.54 22.213H232.804q-31.326 0-53.54-22.213-22.213-22.214-22.213-53.54Zm75.753 0H728.79v-79.485q0-27.616-16.877-48.66-16.877-21.044-43.018-28.565l-110.417-30q-40.043-11.797-62.76-36.428-22.718-24.63-34.337-57.536h-85.376q-6.693 0-11.693-5t-5-11.667q0-6.666 5-11.666t11.702-5h76.559q-1.841-11.87-1.968-21.93-.126-10.06-.225-23.143h-74.365q-6.703 0-11.703-5-5-5-5-11.666 0-6.667 5-11.667t11.704-5h74.368v-55.551h-217.58v447.964Zm0 0ZM187.078-30.913q-47.909 0-82.037-34.128-34.128-34.128-34.128-82.37 0-48.243 34.128-82.274 34.128-34.032 82.37-34.032 48.243 0 82.274 34.087 34.032 34.087 34.032 82.552 0 47.909-34.087 82.037-34.087 34.128-82.552 34.128Zm.371-69.615q19.413 0 32.913-13.754 13.5-13.754 13.5-33.167 0-19.413-13.417-32.913-13.416-13.5-33.25-13.5-19.159 0-32.913 13.417-13.754 13.416-13.754 33.25 0 19.159 13.754 32.913 13.754 13.754 33.167 13.754Zm585.37 69.615q-47.956 0-82.246-34.128-34.29-34.128-34.29-82.37 0-48.243 34.29-82.274 34.29-34.032 82.579-34.032 48.289 0 82.192 34.087 33.903 34.087 33.903 82.552 0 47.909-33.959 82.037-33.958 34.128-82.469 34.128Zm.319-69.615q19.333 0 32.833-13.754t13.5-33.247q0-19.333-13.416-32.833-13.417-13.5-33.25-13.5-19 0-32.834 13.417-13.833 13.416-13.833 33.25 0 19.159 13.833 32.913 13.834 13.754 33.167 13.754ZM480.042-30.913q-47.984 0-82.154-34.128-34.17-34.128-34.17-82.37 0-48.243 34.128-82.274 34.128-34.032 82.445-34.032 48.318 0 82.155 34.087 33.836 34.087 33.836 82.552 0 47.909-33.85 82.037-33.85 34.128-82.39 34.128Zm.291-69.615q19.334 0 32.834-13.754 13.5-13.754 13.5-33.247 0-19.333-13.417-32.833t-33.25-13.5q-19 0-32.833 13.417-13.834 13.416-13.834 33.25 0 19.159 13.834 32.913 13.833 13.754 33.166 13.754Zm-293.138-46.667Zm292.805 0Zm292.805 0Z"/></svg>