<svg xmlns="http://www.w3.org/2000/svg" height="40" viewBox="0 -960 960 960" width="40"><path d="M229.058-73.304q-31.249 0-53.501-22.253-22.253-22.252-22.253-53.501V-257.58q0-16 10.972-26.939 10.972-10.938 27.022-10.938 16.05 0 26.905 10.938 10.855 10.939 10.855 26.939v108.522h501.884V-257.58q0-16 10.972-26.939 10.972-10.938 27.008-10.938t26.984 10.938q10.949 10.939 10.949 26.939v108.522q0 31.249-22.299 53.501-22.3 22.253-53.614 22.253H229.058Zm-75.754-737.638q0-31.314 22.253-53.614 22.252-22.299 53.501-22.299h316.24q15.5 0 29.547 6.09 14.047 6.091 24.402 16.446l185.072 185.072q10.355 10.355 16.446 24.402 6.09 14.047 6.09 29.547v83.516q0 15.938-10.822 26.589-10.823 10.65-27.331 10.65-15.252 0-25.589-9.822-10.337-9.823-11.613-24.547v-81.364H576.153q-16 0-26.939-10.938-10.938-10.939-10.938-26.939v-152.789H229.058v268.363q0 16.159-10.972 27.098-10.972 10.938-27.022 10.938-16.05 0-26.905-10.938-10.855-10.939-10.855-27.098v-268.363Zm733.363 448.819H73.333q-16 0-26.938-10.972-10.939-10.972-10.939-27.022 0-16.05 10.939-26.905 10.938-10.855 26.938-10.855h813.334q16 0 26.938 10.972 10.939 10.972 10.939 27.022 0 16.05-10.939 26.905-10.938 10.855-26.938 10.855ZM480-504.543Zm0 209.086Z"/></svg>