<svg xmlns="http://www.w3.org/2000/svg" height="40" viewBox="0 -960 960 960" width="40"><path d="M480.274-397.877q-34.028 0-58.212-24.169-24.185-24.169-24.185-57.9 0-34.315 24.169-58.246 24.169-23.931 57.9-23.931 34.315 0 58.246 23.91 23.931 23.911 23.931 57.939t-23.91 58.212q-23.911 24.185-57.939 24.185ZM480-322.123q65.913 0 111.895-45.982T637.877-480q0-65.913-45.982-111.895T480-637.877q-65.913 0-111.895 45.982T322.123-480q0 65.913 45.982 111.895T480-322.123ZM149.058-153.304q-30.994 0-53.374-22.38-22.38-22.38-22.38-53.374v-501.884q0-31.06 22.38-53.486 22.38-22.427 53.374-22.427h661.884q31.06 0 53.486 22.427 22.427 22.426 22.427 53.486v501.884q0 30.994-22.427 53.374-22.426 22.38-53.486 22.38H149.058Zm0-75.754h661.884v-501.884H149.058v501.884Zm0 0v-501.884 501.884Z"/></svg>