<svg xmlns="http://www.w3.org/2000/svg" height="40" viewBox="0 -960 960 960" width="40"><path d="M701.855-378.304h-85.457q-11.5 0-19.688 8.286-8.188 8.287-8.188 19.769 0 11.481 8.188 19.669 8.188 8.189 19.688 8.189h103.334q16 0 26.938-10.939 10.939-10.938 10.939-26.938v-103.334q0-11.473-8.189-19.755-8.188-8.281-19.688-8.281-11.5 0-19.688 8.281-8.189 8.282-8.189 19.755v85.298ZM258.304-661.855h85.298q11.473 0 19.755-8.189 8.281-8.188 8.281-19.688 0-11.5-8.281-19.688-8.282-8.189-19.755-8.189H240.268q-16 0-26.938 10.939-10.939 10.938-10.939 26.938v103.334q0 11.5 8.189 19.688 8.188 8.188 19.669 8.188 11.482 0 19.769-8.188 8.286-8.188 8.286-19.688v-85.457ZM149.058-193.304q-30.994 0-53.374-22.38-22.38-22.38-22.38-53.374v-501.884q0-31.06 22.38-53.486 22.38-22.427 53.374-22.427h661.884q31.06 0 53.486 22.427 22.427 22.426 22.427 53.486v501.884q0 30.994-22.427 53.374-22.426 22.38-53.486 22.38H637v42.123q0 16-11.028 26.938-11.028 10.939-27.008 10.939H361.036q-16 0-26.938-10.939-10.938-10.938-10.938-26.938v-42.123H149.058Zm0-75.754h661.884v-501.884H149.058v501.884Zm0 0v-501.884 501.884Z"/></svg>