<svg xmlns="http://www.w3.org/2000/svg" height="40" viewBox="0 -960 960 960" width="40"><path d="M480-480Zm0 0ZM437.094-73.304h-27.927q-14.167 0-24.815-9.116-10.649-9.116-12.729-23.203l-14.427-95.833q-15.406-5.616-32.004-15.232t-29.656-19.914l-77.761 35.334q-18.464 7.906-37.167 1.667-18.702-6.239-29.021-23.449l-58.08-103.523q-10.478-16.971-6.359-35.887 4.12-18.916 19.917-31.061l71.428-52.667q-1.428-7.536-1.761-16.573-.333-9.036-.333-16.572 0-7.537.333-16.573.333-9.036 1.761-16.573l-71.428-51.761q-16.036-12.145-20.036-31.061t6.478-36.126l58.08-103.523q10.319-16.97 28.902-23.289 18.583-6.319 37.046 1.587l78.479 34.667q12.899-10.138 29.464-19.635 16.566-9.496 31.718-14.605l12.906-85.225q2.413-19.369 17.05-32.054 14.638-12.685 34.007-12.685H539q19.21 0 33.848 12.685 14.637 12.685 17.21 32.054l12.746 84.559q15.406 5.775 32.258 14.938 16.851 9.163 29.402 19.968l77.573-34.667q18.464-7.906 36.88-1.587 18.417 6.319 28.735 23.289l58.747 102.617q10.319 17.21 5.993 36.579-4.326 19.369-20.203 30.848l-72.276 50.877q.761 10.311 1.094 19.862.334 9.551.334 19.703-1.834 12.5-11.428 20.692-9.594 8.192-22.985 8.192-16.073 0-26.834-10.862-10.76-10.862-10.76-27.029 0-17.935-.432-35.402-.431-17.468-2.083-33.779l82.326-60.573-37.594-67.159-103.348 44.666q-22.667-25.558-51.351-42.75-28.685-17.192-62.671-22.953l-13.666-109.521h-80.776L426.058-701.5q-33.558 7.094-62.616 23.953-29.058 16.858-51.964 41.496l-103.109-44.333-37.514 67.159 90.536 66.616q-4.333 16.652-6.826 33.011-2.493 16.359-2.493 33.598 0 16.906 2.493 33.384t6.826 32.971l-90.536 66.87 37.514 67.159 103.109-44.587q25.094 25.826 57.308 43.239 32.214 17.413 68.308 24.812v182.848Zm315.565-72.653q-9.782 6.131-19.311.58t-9.529-16.826v-179.87q0-11.275 9.529-16.826t19.311.42l149.79 90.015q9.544 5.891 9.544 16.326t-9.544 16.326l-149.79 89.855Zm-205.898 0q-9.783 6.131-19.391.58-9.609-5.551-9.609-16.826v-179.87q0-11.275 9.609-16.826 9.608-5.551 19.391.42l149.63 90.015q9.703 5.891 9.703 16.326t-9.703 16.326l-149.63 89.855Zm-67.319-468.412q55.094 0 93.587 38.054t40.543 95.576q.906 16.558-8.953 28.243-9.858 11.684-26.177 11.59-14.384.573-24.815-9.659-10.431-10.232-10.004-25.123.616-30.725-18.04-49.656-18.656-18.932-45.474-18.932-26.631 0-45.453 18.41-18.823 18.409-18.823 45.199 0 15.124 6.315 27.826 6.316 12.703 18.185 22.305 9.906 8.956 9.174 22.801-.732 13.844-10.623 22.923-11.811 10.906-28.043 9.58-16.232-1.326-28.138-13.138-18.855-18-27.909-41.974-9.055-23.975-9.055-50.323 0-56.145 39.026-94.923 39.025-38.779 94.677-38.779Z"/></svg>