<svg xmlns="http://www.w3.org/2000/svg" height="40" viewBox="0 -960 960 960" width="40"><path d="M480.014-321.087q15.674 0 26.33-10.576Q517-342.239 517-358.007t-10.622-26.344q-10.623-10.576-26.344-10.576-15.722 0-26.298 10.586-10.576 10.586-10.576 26.254 0 15.848 10.59 26.424 10.59 10.576 26.264 10.576Zm0-118.594q15.674 0 26.33-10.586Q517-460.853 517-476.522v-129.109q0-15.847-10.622-26.423-10.623-10.576-26.344-10.576-15.722 0-26.298 10.576-10.576 10.576-10.576 26.423v129.109q0 15.669 10.59 26.255 10.59 10.586 26.264 10.586ZM421.253-73.304q-19.344 0-33.881-12.459-14.537-12.459-17.176-31.454l-13-84.906q-15.406-5.616-32.004-15.232t-29.656-19.913l-77.761 35.333q-18.444 7.906-37.127 1.805-18.683-6.101-29.061-23.507l-58.08-103.602q-10.478-16.971-6.025-35.888 4.452-18.916 20.249-31.061l70.762-52.667q-1.428-7.542-1.761-16.572-.333-9.031-.333-16.573t.333-16.573q.333-9.03 1.761-16.572l-70.762-52.428q-16.036-12.145-20.369-31.061-4.333-18.917 6.145-36.127l58.14-103.552q10.259-16.941 28.842-23.26 18.583-6.318 37.046 1.587l78.479 35.334q12.899-10.138 29.464-19.634 16.566-9.497 31.718-14.605l13-85.584q2.667-19.344 17.195-31.862 14.529-12.518 33.862-12.518h117.494q19.344 0 33.881 12.505 14.537 12.505 17.176 31.806l13 84.986q15.375 5.784 32.242 14.943 16.867 9.159 29.418 19.963l77.761-35.334q18.464-7.905 36.833-1.587 18.37 6.319 28.669 23.265l58.945 103.572q10.299 17.185 5.966 36.435-4.333 19.25-20.369 30.728l-71.001 51.094q1.428 8.203 1.841 17.24.413 9.036.413 17.244 0 8.207-.453 16.903-.453 8.696-2.134 16.904l71 51.761q16.036 11.478 20.37 30.728 4.333 19.25-5.965 36.394l-58.593 103.668q-10.378 17.167-28.942 23.388-18.563 6.22-37.007-1.686l-77.653-35.333q-13.058 10.297-29.29 20.167-16.232 9.869-32.051 14.978l-13 84.906q-2.639 18.995-17.176 31.454-14.537 12.459-33.881 12.459H421.253Zm18.232-75.754h80.457l14.239-109.67q32.573-8.011 61.511-24.551 28.939-16.54 52.272-40.67l103.587 44.333 37.275-67.159-90.775-67.189q4.333-16.319 6.826-32.724 2.493-16.406 2.493-33.312t-2.16-33.312q-2.159-16.405-7.159-32.724l91.094-67.189-37.594-67.159-103.348 44.666q-22.667-25.558-51.344-42.75t-62.721-22.953l-13.623-109.521h-80.791L426.058-701.5q-33.541 7.094-62.608 23.953-29.066 16.858-51.972 41.496l-103.109-44.333-37.514 67.159 90.536 66.616q-4.333 16.652-6.826 33.011-2.493 16.359-2.493 33.598 0 16.906 2.493 33.384t6.826 32.971l-90.536 66.87 37.514 67.159 103.08-44.587q23.601 24.145 52.699 40.924t61.91 24.79l13.427 109.431ZM480-480Z"/></svg>