<svg xmlns="http://www.w3.org/2000/svg" height="40" viewBox="0 -960 960 960" width="40"><path d="M804.048-73.304H558.724q-17.166 0-29.065-11.81-11.898-11.809-11.898-28.975v-245.187q0-17.166 11.929-29.065 11.929-11.898 29.095-11.898h245.323q17.377 0 29.102 11.932 11.725 11.933 11.725 29.104v81.594l65.587-65.348q4.891-4.891 10.569-2.525 5.677 2.365 5.677 8.989v199.921q0 6.623-5.677 8.989-5.678 2.366-10.569-2.526l-65.587-65.587v81.595q0 17.171-11.755 28.984-11.755 11.813-29.132 11.813ZM587.362-488.073q-12.971 6.906-26.814 2.9-13.844-4.007-20.845-17.03-9.601-17.775-25.065-29.924-15.463-12.149-34.659-12.149-26.66 0-45.403 18.243t-18.743 45.272q0 20.666 12.939 36.956 12.938 16.291 32.953 24.45 13.05 6.319 18.637 19.949 5.587 13.631-.732 26.602-6.318 12.971-19.548 18.304-13.229 5.333-26.843-.478-39.384-14.841-63.442-49.12-24.058-34.279-24.058-76.624 0-55.773 38.943-94.71 38.944-38.937 94.36-38.937 40.177 0 73.147 21.239 32.97 21.239 50.101 57.364 6.188 13.005 2.102 26.849-4.086 13.843-17.03 20.844ZM412.175-73.304q-15.813 0-27.436-10.464t-13.782-26.34l-13.761-92.015q-15.506-5.641-32.054-15.245-16.548-9.603-29.606-19.9l-77.761 35.333q-18.444 7.906-37.127 1.805-18.683-6.101-29.061-23.507l-58.08-103.602q-10.478-16.971-6.056-35.849 4.423-18.878 20.28-31.1l70.762-52.667q-1.428-7.501-1.761-16.562-.333-9.061-.333-16.563 0-7.501.333-16.562t1.761-16.603l-70.762-52.428q-16.096-12.222-20.4-31.1-4.302-18.878 6.176-36.088l58.14-103.552q10.259-16.941 28.842-23.26 18.583-6.318 37.046 1.587l78.479 35.334q12.899-10.138 29.464-19.634 16.566-9.497 31.718-14.605l12.906-85.653q2.196-19.326 16.926-31.819 14.731-12.492 34.131-12.492h117.907q19.144 0 33.896 12.482 14.751 12.482 17.096 31.829l12.746 84.986q15.475 5.746 32.292 14.924 16.817 9.178 29.368 19.982l77.573-35.334q18.466-7.905 36.881-1.587 18.416 6.319 28.685 23.265l58.845 103.572q10.27 17.185 5.946 36.474-4.323 19.289-20.205 30.689l-77.384 56.156q-12.784 9.018-27.297 6.927-14.513-2.092-24.229-14.727-9.823-12.689-7.71-27.975 2.112-15.286 14.706-24.83l58.87-43.203-37.594-67.159-103.348 44.666q-22.667-25.558-51.344-42.75t-62.721-22.953l-13.899-109.521h-80.515L426.058-701.5q-33.541 7.094-62.608 23.953-29.066 16.858-51.972 41.496l-103.109-44.333-37.514 67.159 90.536 66.616q-4.333 16.652-6.826 32.958-2.493 16.305-2.493 33.651 0 17.167 2.493 33.515 2.493 16.347 6.826 32.84l-90.536 66.87 37.514 67.159 103.056-44.587q25.147 25.802 57.361 43.227 32.214 17.425 68.308 24.824v155.434q0 11.413-5.945 19.413-5.946 8-18.974 8Zm67.919-407.457Zm0 0Z"/></svg>