<svg xmlns="http://www.w3.org/2000/svg" height="40" viewBox="0 -960 960 960" width="40"><path d="M153.304-521.761V-712.5q0-23.949 13.681-43.42t35.551-28.015l250.942-93.79q13.355-4.891 26.522-4.891 13.167 0 26.522 4.891l250.942 93.79q21.87 8.544 35.63 28.015 13.761 19.471 13.761 43.42v191.833q0 18.939-11.969 28.408-11.97 9.469-26.067 9.469-16.557 0-27.217-10.25-10.66-10.249-10.66-27.627v-191.718L480-806.957l-250.942 94.572v191.691q0 126.658 70.482 228.796Q370.022-189.761 480-152.152q14.681-5.333 31.363-13.38 16.681-8.048 29.949-15.874 13.928-7.21 29.348-2.677 15.42 4.532 22.79 18.619 7.369 14.087 2.783 29.115-4.585 15.027-18.566 22.356-14.441 7.914-32.406 16.018-17.965 8.105-33.073 14.685-5.971 2.08-12.144 3.326-6.174 1.247-12.566 1.247-6.325 0-12.112-1.247-5.786-1.246-11.757-3.326-139.022-46.652-221.877-170.337-82.855-123.685-88.428-268.134ZM678.496-73.304q-14.891 0-27.194-12.645Q639-98.596 639-113.448v-127.233q0-14.986 12.214-27.399t27.199-12.413h1.92v-40q0-35.586 23.954-60.351 23.953-24.765 58.923-24.765 34.783 0 58.547 24.765 23.765 24.765 23.765 60.351v40h2.379q14.367 0 26.661 12.413 12.293 12.413 12.293 27.399v127.279q0 14.873-12.333 27.485-12.334 12.613-26.601 12.613H678.496Zm43.432-207.189h82.666v-40q0-19-11.579-31.5-11.58-12.5-29.834-12.5-18.92 0-30.087 12.5-11.166 12.5-11.166 31.5v40ZM480-479.681Z"/></svg>