<svg xmlns="http://www.w3.org/2000/svg" height="40" viewBox="0 -960 960 960" width="40"><path d="m440.935-279.536 163.833-106.457q17.486-11.172 17.486-31.655 0-20.482-17.486-31.837L441.601-556.768q-18.898-12.355-38.916-1.832-20.018 10.524-20.018 33.484v213.928q0 23.043 19.684 33.605 19.685 10.561 38.584-1.953ZM149.058-113.304q-30.994 0-53.374-22.38-22.38-22.38-22.38-53.374v-496.573q0-15.98 10.939-27.008 10.938-11.028 26.938-11.028h202.681V-817q0-30.826 22.38-53.29t53.374-22.464h180.768q30.994 0 53.374 22.464 22.38 22.464 22.38 53.29v93.333h202.681q15.98 0 27.008 11.028 11.028 11.028 11.028 27.008v496.573q0 30.994-22.427 53.374-22.426 22.38-53.486 22.38H149.058Zm0-75.754h661.884v-458.696H149.058v458.696Zm240.558-534.609h180.768V-817H389.616v93.333ZM149.058-189.058v-458.696 458.696Z"/></svg>