<svg xmlns="http://www.w3.org/2000/svg" height="40" viewBox="0 -960 960 960" width="40"><path d="M187.942-70.116q-32.393 0-54.153-21.797-21.76-21.797-21.76-53.956v-668.262q0-31.314 21.76-53.613 21.76-22.3 54.153-22.3h375.587q31.314 0 53.614 22.3 22.299 22.299 22.299 53.613v201.196q0 15.502-10.693 26.171-10.693 10.669-26.344 10.669-15.651 0-26.561-10.861-10.909-10.861-10.909-26.646v-202.601H185.869v283.776q18.696-13.725 41.628-21.446 22.933-7.721 48.517-7.721h181.045q15.501 0 26.171 10.703 10.669 10.703 10.669 26.254 0 15.731-10.669 26.307-10.67 10.576-26.171 10.576H276.056q-37.623 0-63.905 26.282-26.282 26.282-26.282 63.863v253.653h248.089q15.501 0 26.171 10.739 10.669 10.739 10.669 26.344t-10.669 26.181q-10.67 10.576-26.171 10.576H187.942ZM375.716-608.26q-30.593 0-52.212-21.679-21.62-21.678-21.62-52.152 0-30.473 21.679-52.292 21.678-21.819 52.152-21.819 30.473 0 52.292 21.85 21.819 21.849 21.819 52.26 0 30.593-21.85 52.212-21.849 21.62-52.26 21.62Zm-36.223 328.29v40.21q0 15.203 10.362 25.504 10.363 10.3 25.681 10.3 11.652 0 20.258-6.786 8.605-6.786 10.59-17.439v-33.334q-1.493-10.913-2.359-22.051-.865-11.138-.865-23.037 0-14.395 1.706-28.605 1.706-14.211 4.96-26.682v-35.479q-1.515-13.05-11.171-21.717-9.657-8.666-23.316-8.666-15.208 0-25.527 10.402t-10.319 25.561v40.051h-40.051q-15.159 0-25.561 10.445-10.403 10.445-10.403 25.666 0 15.222 10.403 25.44 10.402 10.217 25.561 10.217h40.051ZM679.968-83.16q-81.895 0-139.352-57.535-57.456-57.536-57.456-139.384 0-81.848 57.535-139.385Q598.231-477 680.079-477q81.848 0 139.385 57.569Q877-361.863 877-279.968t-57.569 139.352Q761.863-83.16 679.968-83.16Zm24.018-206.613V-380q0-9.833-7.077-16.909-7.076-7.077-16.909-7.077-9.833 0-16.909 7.077-7.077 7.076-7.077 16.909v102.134q0 1.603 5.225 13.591l68.941 67.93q7.284 7.331 16.849 7.331 9.565 0 16.841-7.327 7.116-7.225 7.116-16.859 0-9.633-7.116-16.749l-59.884-59.824ZM276.014-143.956h175.298-265.443 90.145Z"/></svg>