<svg xmlns="http://www.w3.org/2000/svg" height="40" viewBox="0 -960 960 960" width="40"><path d="M103.239-33.304q-28.355 0-49.145-20.79-20.79-20.79-20.79-49.145v-754.189q0-27.927 20.79-49.011 20.79-21.083 49.145-21.083h754.189q27.927 0 49.011 21.083 21.083 21.084 21.083 49.011v754.189q0 28.355-21.083 49.145-21.084 20.79-49.011 20.79H103.239Zm502.594-120h162.986q16.167 0 27.101-10.855 10.935-10.855 10.935-27.022v-162q0-15.609-10.416-25.946-10.417-10.336-26.026-10.336-15.608 0-26.065 10.336-10.456 10.337-10.456 25.946v75.435L603.912-406.74q-10.876-10.797-25.865-10.463-14.99.333-26.026 11.13-10.876 10.877-11.043 25.605-.167 14.728 10.71 25.605l129.66 128.994h-75.515q-15.608 0-25.945 10.416-10.337 10.417-10.337 25.866 0 15.609 10.337 25.946 10.337 10.337 25.945 10.337Zm-441.065-11.464q10.543 10.942 25.485 11.156 14.942.214 25.486-10.489l518.153-518.153v75.435q0 15.609 10.456 26.065 10.457 10.457 26.065 10.457 15.609 0 26.026-10.417 10.416-10.417 10.416-26.025v-162.08q0-16.167-10.935-27.101-10.934-10.935-27.101-10.935H606.073q-15.609 0-26.065 10.416-10.457 10.417-10.457 26.026 0 15.608 10.337 26.065 10.337 10.456 25.945 10.456h76.849L164.848-215.739q-10.544 10.544-10.663 25.486-.12 14.942 10.583 25.485Zm-.681-580.16 192.559 193.131q10.782 10.783 25.898 10.663 15.116-.119 25.898-10.663 10.877-10.876 10.83-25.866-.047-14.989-10.83-25.931L214.978-796.725q-11.036-10.543-25.692-10.543t-25.199 10.782q-10.544 10.783-10.544 25.899 0 15.116 10.544 25.659Z"/></svg>