<svg xmlns="http://www.w3.org/2000/svg" height="40" viewBox="0 -960 960 960" width="40"><path d="M479.812-886.855q64.282 0 123.047 18.75 58.764 18.75 108.286 53.648 13.007 9.225 15.152 24.598 2.145 15.373-8.13 27.967-10.116 12.848-25.949 14.46-15.834 1.613-29.747-7.626-39.123-26.863-85.634-41.374-46.511-14.51-97.025-14.51-97.761 0-176.026 51.025-78.265 51.025-118.931 132.062-7.594 14.594-22.261 21.058-14.667 6.464-29.58 1.145-15.166-5.573-21.203-20.167-6.036-14.594 1-28.282 49.45-103.225 146.424-167.99 96.975-64.764 220.577-64.764Zm-.442 813.55q-115.776 0-213.501-60.974-97.724-60.975-149.188-164.779-7.275-13.449-1.572-27.884t20.282-20.768q15.058-6.413 29.931-.076 14.873 6.337 22.707 19.851 43 81.74 120.822 130.309 77.823 48.568 170.519 48.568 138.311 0 234.942-96.75 96.63-96.75 96.63-234.286v-9.573q0-4.667-.666-9.573-1.522-15.913 8.369-28.467 9.891-12.554 25.058-13.873 16.261-1.319 28.206 8.702 11.946 10.022 13.613 25.855.507 6.986.92 13.559.413 6.572.413 13.558 0 83.928-32.018 158.203t-87.109 129.446q-55.09 55.17-129.46 87.061-74.369 31.892-158.898 31.892ZM338.515-581l-22.885 22.725q-8.652 8.811-8.605 20.275.048 11.464 8.859 20.116 8.652 8.811 20.116 8.359 11.464-.453 20.275-9.105l34.609-34.609q11.355-11.355 11.355-26.761 0-15.406-11.355-26.761l-36.514-36.514q-8.399-8.399-19.37-8.399-10.971 0-19.37 8.399-8.652 8.811-8.652 19.902 0 11.09 8.652 19.743L338.515-581ZM840-601.739q-32.464 0-55.362-22.899-22.899-22.898-22.899-55.362 0-35.254 21.881-70.08Q805.5-784.906 824.5-813q2.812-4.145 6.71-6.424 3.899-2.279 8.79-2.279 4.891 0 8.79 2.279 3.898 2.279 6.71 6.424 19 28.333 40.88 63.04 21.881 34.706 21.881 69.96 0 32.464-22.899 55.362-22.898 22.899-55.362 22.899ZM622.485-581l22.79-22.63q8.652-8.653 8.533-19.41-.12-10.757-8.772-19.569-8.652-8.652-19.743-8.652-11.09 0-19.742 8.652l-36.276 35.848Q557.761-595.406 557.761-580q0 15.406 11.514 26.761l35.609 35.609q8.652 8.652 20.243 8.605 11.59-.048 20.243-8.859 8.652-8.652 8.652-20.243 0-11.59-8.652-20.243L622.485-581ZM480-480ZM320.724-283.333q7.319 0 14.79-4.359 7.471-4.359 12.268-10.678 22.348-30.913 57.406-47.463 35.058-16.551 75.479-16.551 39.753 0 74.478 16.884 34.725 16.884 57.739 47.797 4.797 5.812 12.475 10.091 7.677 4.279 14.489 4.279 16.13 0 23.163-13.797 7.033-13.797-2.938-28.355-27.841-42.124-75.736-67.319Q536.442-418 480-418q-26.986 0-52.518 5.993-25.533 5.993-48.04 16.993L251.29-469.036q-.478-16.239-7.598-30.025-7.119-13.786-21.199-21.627-21.145-11.812-44.322-5.739-23.178 6.072-35.084 26.964-11.652 21.224-5.659 44.402 5.993 23.177 26.884 35.083 14 8.08 29.319 7.706 15.319-.373 29.478-8.134L329.37-359.29q-8.725 7.551-15.395 15.315-6.671 7.765-12.381 16.49-10.891 16.702-3.446 30.427 7.446 13.725 22.576 13.725Z"/></svg>