<svg xmlns="http://www.w3.org/2000/svg" height="40" viewBox="0 -960 960 960" width="40"><path d="M164.558-73.304q-17.486 0-27.682-11.728-10.195-11.729-10.195-26.149 0-6.717 2.565-13.674 2.565-6.956 8.696-13.087l684.276-684.022q5.971-6.131 12.927-8.823 6.957-2.692 13.674-2.692 14.42 0 26.228 10.276 11.808 10.275 11.808 27.761v322.754q0 16.167-10.935 27.022-10.934 10.855-27.101 10.855t-27.022-10.855q-10.855-10.855-10.855-27.022v-231.501L255.717-149.058H525.16q16.167 0 27.022 10.855 10.855 10.855 10.855 27.022 0 16.167-10.855 27.022-10.855 10.855-27.022 10.855H164.558ZM765.58-177.986l-57.479 56.718q-11.021 10.355-26.355 10.696-15.333.34-26.688-10.935-11.261-11.022-11.261-26.522 0-15.5 11.261-26.761l57.239-57.239-57.478-57.478q-11.101-11.261-11.062-26.641.04-15.381 11.301-26.642 11.261-11.101 26.641-11.101 15.381 0 26.642 11.101l57.239 57.479 57.478-57.479q11.022-11.021 26.475-11.068 15.453-.048 26.808 11.307 11.021 11.022 10.688 26.522-.333 15.5-10.688 26.522l-56.718 57.478 56.718 57.478q10.355 11.022 10.735 26.355.38 15.334-10.975 26.689-11.021 11.022-26.521 10.808-15.5-.214-26.522-10.569l-57.478-56.718Zm-509.863 28.928 555.225-555.131q-91.884 91.884-160.787 160.66-68.902 68.776-130.301 130.254-61.398 61.478-123.75 123.83L255.717-149.058Z"/></svg>