<svg xmlns="http://www.w3.org/2000/svg" height="40" viewBox="0 -960 960 960" width="40"><path d="m765.341-204.348-57.479 56.718q-11.021 10.514-26.389 10.775-15.369.261-26.654-11.014-11.101-11.022-11.101-26.522 0-15.5 11.101-26.601l57.399-57.399-57.479-57.478q-11.261-11.102-11.141-26.562.12-15.46 11.221-26.561 11.261-11.261 26.641-11.261 15.381 0 26.641 11.261l57.24 57.478 57.478-57.478q11.341-11.261 26.739-11.261 15.399 0 26.649 11.014 11.249 11.602 11.249 27.214 0 15.613-11.355 27.076l-56.717 56.558 56.717 57.479q10.355 11.181 10.736 26.49.38 15.31-10.975 26.553-11.021 11.181-26.521 10.967-15.5-.214-26.522-10.728l-57.478-56.718ZM480.08-803.428q116.232 0 222.424 38.714Q808.696-726 898.565-654.782q13.768 10.942 20.692 26.036 6.924 15.094 6.924 31.768 0 15.206-5.405 29.723-5.406 14.516-17.203 26.871l-82.096 82.892q-10.529 10.993-26.275 11.439-15.746.445-26.674-9.924-10.927-10.37-11.326-26.076-.398-15.707 9.971-26.634L850.95-593.5q-81.942-63.42-174.854-98.718-92.911-35.297-196.076-35.297-103.165 0-196.096 35.297Q190.992-656.92 109.05-593.5L480-213.702l40.849-40.849q11.166-7.978 25.837-7.101 14.67.876 24.402 11.007 10.449 10.608 10.489 25.956.04 15.348-10.091 26.036l-40.022 40.182q-10.797 11.276-24.287 16.5-13.489 5.225-27.177 5.225-13.688 0-27.177-5.225-13.489-5.224-24.127-16.5L56.986-540.384q-11.125-11.533-16.86-26.093-5.735-14.559-5.735-29.501 0-16.913 6.676-32.345 6.676-15.432 20.607-26.699 89.869-71.058 196.021-109.732 106.153-38.674 222.385-38.674ZM480-470.609Z"/></svg>