<svg xmlns="http://www.w3.org/2000/svg" height="40" viewBox="0 -960 960 960" width="40"><path d="M149.058-153.304q-30.994 0-53.374-22.714-22.38-22.713-22.38-53.04v-501.884q0-30.393 22.38-53.153 22.38-22.76 53.374-22.76h230.58q15.362 0 29.398 6.09 14.037 6.091 24.451 16.505l47.252 47.18h330.203q30.393 0 53.153 22.713 22.76 22.713 22.76 53.04v432.269q0 30.327-22.76 53.04-22.76 22.714-53.153 22.714H149.058Zm0-75.754h661.884v-432.269H449.254l-69.616-69.615h-230.58v501.884Zm0 0v-501.884 501.884Zm420.558-117.319v-197.631h61.398l62.609 62.609v135.022H569.616Zm-32.247 63.986h188.74q13.387 0 22.443-9.042 9.057-9.041 9.057-22.407v-178.653q0-7.254-2.692-14.006-2.692-6.753-8.424-12.61l-77.609-77.609q-5.857-5.891-12.585-8.583-6.729-2.692-14.19-2.692h-104.82q-13.455 0-22.557 9.197-9.102 9.196-9.102 22.542v262.363q0 13.387 9.197 22.443 9.196 9.057 22.542 9.057Z"/></svg>