<svg xmlns="http://www.w3.org/2000/svg" height="40" viewBox="0 -960 960 960" width="40"><path d="M189.058-113.304q-31.494 0-53.624-22.13-22.13-22.13-22.13-53.624v-581.884q0-31.56 22.13-53.736 22.13-22.177 53.624-22.177h581.884q31.56 0 53.736 22.177 22.177 22.176 22.177 53.736v581.884q0 31.494-22.177 53.624-22.176 22.13-53.736 22.13H189.058ZM379.57-543.297q13.93 0 28.143 5.678 14.213 5.677 25.664 16.952l105.05 104.812 232.515-260.37v-94.717H189.058v387.269l136.899-136.994q11.404-11.355 25.18-16.992 13.776-5.638 28.433-5.638Zm157.587 204.594q-13.996 0-27.992-5.389-13.997-5.389-25.194-17.147L380-465.29 189.058-273.348v84.29h581.884v-373.377L594.188-363.891q-11.514 12.688-26.308 18.938-14.793 6.25-30.723 6.25Z"/></svg>