<svg xmlns="http://www.w3.org/2000/svg" height="40" viewBox="0 -960 960 960" width="40"><path d="M193.051-144.616q-33.882 0-58.01-24.185t-24.128-58.148q0-33.785 24.128-57.943t58.01-24.158h573.898q33.948 0 58.123 24.194 24.175 24.194 24.175 58.059 0 33.865-24.175 58.023t-58.123 24.158H193.051Zm0-506.334q-33.882 0-58.01-24.185t-24.128-58.148q0-33.785 24.128-57.943t58.01-24.158h573.898q33.948 0 58.123 24.194 24.175 24.194 24.175 58.059 0 33.865-24.175 58.023t-58.123 24.158H193.051Zm0 253.088q-33.882 0-58.01-24.149-24.128-24.148-24.128-58.059 0-33.91 24.128-57.989t58.01-24.079h573.898q33.948 0 58.123 24.149 24.175 24.148 24.175 58.059 0 33.91-24.175 57.989t-58.123 24.079H193.051Zm32.402-296.457q16.62 0 27.844-11.084 11.224-11.083 11.224-27.624 0-16.54-11.083-27.843-11.084-11.304-27.704-11.304t-27.844 11.151q-11.224 11.151-11.224 27.636 0 16.62 11.084 27.844 11.083 11.224 27.703 11.224Zm0 253.246q16.62 0 27.844-11.083 11.224-11.084 11.224-27.704t-11.083-27.844q-11.084-11.223-27.704-11.223t-27.844 11.083q-11.224 11.084-11.224 27.704t11.084 27.844q11.083 11.223 27.703 11.223Zm0 253.088q16.62 0 27.844-11.084 11.224-11.083 11.224-27.624 0-16.54-11.083-27.844-11.084-11.303-27.704-11.303t-27.844 11.151q-11.224 11.151-11.224 27.636 0 16.62 11.084 27.844 11.083 11.224 27.703 11.224Z"/></svg>