<svg xmlns="http://www.w3.org/2000/svg" height="40" viewBox="0 -960 960 960" width="40"><path d="M807.862-622.87q-14.742 0-24.715-9.943-9.973-9.942-9.973-24.639v-41.249q0-14.698 9.973-24.759 9.973-10.062 24.715-10.062h82.79v-36.014h-98.739q-7.734 0-13.237-5.519-5.502-5.518-5.502-13.061 0-7.544 5.502-13.141 5.503-5.598 13.237-5.598h101.37q14.742 0 24.715 10.037 9.973 10.037 9.973 24.734v41.249q0 14.698-9.973 24.665-9.973 9.967-24.715 9.967h-82.79v36.014h98.898q7.544 0 13.062 5.598t5.518 13.141q0 7.544-5.518 13.062t-13.062 5.518H807.862ZM304.63-153.304q-25.51 0-37.32-21.913-11.81-21.913 1.465-43.413l147.797-232.609-134.13-210.037q-13.116-21.007-1.557-43.293 11.56-22.286 36.785-22.286 11.642 0 21.269 5.316 9.627 5.316 15.546 14.85l117.993 187.704h.536l117.74-187.943q5.58-9.322 15.545-14.625 9.965-5.302 20.4-5.302 25.973 0 37.554 22.286 11.58 22.286-1.695 43.627L528.427-451.239 676.558-218.55q13.275 21.5 1.175 43.373-12.101 21.873-36.489 21.873-11.371 0-21.279-5.206-9.909-5.206-15.784-14.801L473.014-381.16h-.536L341.072-173.311q-5.741 9.436-15.709 14.721-9.968 5.286-20.733 5.286Z"/></svg>