<svg xmlns="http://www.w3.org/2000/svg" viewBox="0 -960 960 960" width="32" height="32"><path d="M189.06-113.3q-31 0-53.38-22.38-22.38-22.38-22.38-53.38v-581.88q0-31.06 22.38-53.49 22.38-22.43 53.38-22.43h581.88q31.06 0 53.49 22.43 22.43 22.43 22.43 53.49v581.88q0 31-22.43 53.38Q802-113.3 770.94-113.3H189.06Zm253.06-247.79H189.06v172.03h253.06v-172.03Zm75.76 0v172.03h253.06v-172.03H517.88ZM442.12-437v-172.03H189.06V-437h253.06Zm75.76 0h253.06v-172.03H517.88V-437ZM189.06-684.78h581.88v-86.16H189.06v86.16Z"/></svg>