<svg xmlns="http://www.w3.org/2000/svg" height="40" viewBox="0 -960 960 960" width="40"><path d="M352.246-110.195q-31.248 0-53.501-22.3-22.252-22.299-22.252-53.613v-421.646q0-31.314 22.252-53.613 22.253-22.3 53.501-22.3h421.646q31.314 0 53.613 22.3 22.3 22.299 22.3 53.613v421.646q0 31.314-22.3 53.613-22.299 22.3-53.613 22.3H352.246Zm47.806-402.058h326.273q19.866 0 33.716-13.878 13.851-13.877 13.851-33.942 0-20.065-13.851-33.873-13.85-13.808-33.716-13.808H399.813q-19.866 0-33.716 13.877-13.851 13.878-13.851 33.943 0 20.064 13.919 33.873 13.92 13.808 33.887 13.808Zm114.361 163.739h97.312v-97.073h-97.312v97.073Zm0 162.406h97.312v-95.74h-97.312v95.74ZM352.246-348.514h95.501v-97.073h-74.001q-9.138 0-15.319 6.181-6.181 6.181-6.181 15.318v75.574Zm326.145 0h95.501v-75.574q0-9.137-6.181-15.318-6.181-6.181-15.319-6.181h-74.001v97.073Zm-230.644 66.666h-95.501v74.24q0 9.138 6.322 15.319 6.321 6.181 15.417 6.181h73.762v-95.74Zm230.644 0v95.74h74.001q9.138 0 15.319-6.322 6.181-6.321 6.181-15.417v-74.001h-95.501ZM110.195-773.892q0-31.314 22.3-53.613 22.299-22.3 53.613-22.3h459.523q15.98 0 27.008 10.972 11.028 10.973 11.028 27.102 0 16.129-11.028 26.984t-27.008 10.855H186.108v459.523q0 16-10.972 26.938-10.972 10.938-27.101 10.938-16.129 0-26.984-10.938-10.856-10.938-10.856-26.938v-459.523Z"/></svg>