<svg xmlns="http://www.w3.org/2000/svg" height="40" viewBox="0 -960 960 960" width="40"><path d="M109.616-237.051q-23.455 0-33.858-20.764-10.403-20.765 3.684-39.982l170.384-227.015q5.638-7.543 13.638-11.275T280-539.819q8.536 0 16.536 3.732 8 3.732 13.797 11.275l159.109 212.008h305.03L560-597.877l-80.435 106.819q-11.355 15.403-26.642 15.905-15.286.501-26.641-8.066-11.355-8.567-15.087-23.369-3.731-14.803 7.624-30.049l111.007-148.175q5.638-7.543 13.638-11.275T560-699.819q8.536 0 16.536 3.732 8 3.732 13.797 11.275l290.225 387.015q14.087 19.217 3.684 39.982-10.403 20.764-33.858 20.764H109.616Zm339.536-75.753h325.32-316.385H514.601h-65.449Zm-267.848 0h197.392L280-444.696l-98.696 131.892Zm0 0h197.392-197.392Z"/></svg>