<svg xmlns="http://www.w3.org/2000/svg" height="40" viewBox="0 -960 960 960" width="40"><path d="m265.594-253.601 23.42-23.42q10.544-10.544 25.366-10.424 14.823.119 25.366 10.663 10.703 10.543 10.703 25.366 0 14.822-10.703 25.525l-83.913 83.674q-11.355 11.514-26.761 11.387-15.406-.126-26.761-11.387l-84.594-82.913q-10.797-10.797-10.456-25.946.34-15.148 11.376-25.945 10.638-9.877 25.406-10.218 14.768-.34 25.565 10.457l23.182 23.181v-512.827q0-15.608 10.456-26.025 10.457-10.417 26.065-10.417 15.609 0 25.946 10.417 10.337 10.417 10.337 26.025v512.827Zm248.761-131.957v-188.138l-84.196-30.036q-10.115-3.573-15.873-11.862-5.757-8.29-5.757-18.565 0-17.421 14.174-27.076 14.174-9.656 30.42-3.432l372.16 138.798q10.464 3.811 16.855 12.735t6.391 20.467v27.486q0 11.543-6.391 20.467t-16.855 13.402L452.92-293.42q-16.485 6.21-30.438-3.479-13.953-9.688-13.953-27.253 0-10.833 6.203-19.409 6.203-8.576 16.558-12.388l83.065-29.609Zm56.891-18.775 207.233-73.348v-4l-207.233-73.348v150.696Z"/></svg>