<svg xmlns="http://www.w3.org/2000/svg" height="40" viewBox="0 -960 960 960" width="40"><path d="M124.565-125.898q-10.435-10.356-12.087-25.801-1.652-15.446 12.181-29.12l655.95-654.109q14.167-14.166 29.434-12.286 15.267 1.88 25.641 12.261 10.613 10.301 12.345 25.667 1.732 15.365-12.435 29.438l-656.203 653.95q-13.759 13.833-29.115 12.134-15.356-1.7-25.711-12.134Zm484.254-54.073q-16 0-26.938-10.972-10.939-10.971-10.939-27.021t10.939-26.905q10.938-10.855 26.938-10.855h240q16 0 27.018 10.972t11.018 27.022q0 16.049-11.018 26.904t-27.018 10.855h-240ZM124.326-440.993q-10.196-10.275-11.728-25.203-1.533-14.927 11.822-28.282L465.681-835.58q13.361-13.594 28.278-11.935 14.918 1.66 24.954 11.935 10.275 10.036 11.935 24.954 1.659 14.917-11.935 28.278L177.558-440.993q-13.281 13.355-28.119 11.775-14.838-1.579-25.113-11.775Zm579.238 107.328q-13.281 13.514-28.079 11.735t-25.073-11.815q-10.275-10.196-11.974-24.914-1.7-14.718 11.894-28.238l132.11-132.11q13.594-13.594 28.229-11.768 14.634 1.826 24.67 12.101 10.195 10.276 11.895 24.994 1.699 14.718-11.656 27.999L703.564-333.665ZM145.956-726.269q-9.036 9.037-20.844 4.451-11.808-4.586-11.808-17.378v-69.503q0-16.287 10.939-27.221 10.938-10.935 26.938-10.935h69.623q12.792 0 17.378 11.887 4.586 11.888-4.451 20.765l-87.775 87.934Zm321.963 612.965q-15.89 0-26.872-10.813-10.982-10.812-10.982-26.703 0-16.049 10.982-27.031t26.872-10.982q16.05 0 26.863 10.982 10.812 10.982 10.812 27.031 0 15.891-10.812 26.703-10.813 10.813-26.863 10.813Z"/></svg>