<svg xmlns="http://www.w3.org/2000/svg" height="40" viewBox="0 -960 960 960" width="40"><path d="M166.797-113.304q-21.203-7.305-34.029-21.131-12.826-13.826-19.464-35.029l679.232-677.391q19.631 5.558 34.45 20.583 14.818 15.025 19.963 35.069L166.797-113.304ZM113.304-376.58v-106.623l363.493-363.652H583.42L113.304-376.58Zm0-317.037v-77.325q0-30.986 22.384-53.449 22.384-22.464 53.37-22.464h77.325L113.304-693.617Zm580.313 580.313 153.238-153.079v77.325q0 30.986-22.464 53.37-22.463 22.384-53.449 22.384h-77.325Zm-317.037 0L846.855-583.42v106.623L483.203-113.304H376.58Z"/></svg>