<svg xmlns="http://www.w3.org/2000/svg" height="40" viewBox="0 -960 960 960" width="40"><path d="M430.898-347.876h158.196q23.203 0 39.62 16.337 16.417 16.337 16.417 39.539 0 23.48-16.417 40.012t-39.62 16.532H271.978q-16 0-26.938-10.939-10.939-10.938-10.939-26.938v-317.276q0-23.043 16.532-39.46t40.012-16.417q23.48 0 39.678 16.417 16.198 16.417 16.198 39.46v157.581l252.958-252.958q17.469-17.355 42.339-17.355 24.871 0 42.385 17.446 17.355 17.446 17.355 42.402t-17.355 42.311L430.898-347.876Z"/></svg>