<svg xmlns="http://www.w3.org/2000/svg" height="40" viewBox="0 -960 960 960" width="40"><path d="M203.971-439.058v-80.551q0-31.559 22.13-53.736 22.13-22.177 53.624-22.177h400.55q31.56 0 53.736 22.177 22.177 22.177 22.177 53.736v80.551q0 31.493-22.177 53.623-22.176 22.13-53.736 22.13h-400.55q-31.494 0-53.624-22.13-22.13-22.13-22.13-53.623Zm241.08-370.189v-46.666q0-15.331 10.5-25.807 10.5-10.476 25.866-10.476t25.782 10.476q10.417 10.476 10.417 25.807v46.666q0 15.399-10.5 25.92-10.5 10.522-25.866 10.522t-25.782-10.522q-10.417-10.521-10.417-25.92Zm287.457 69.848 22.666-22.666q10.544-10.544 25.345-10.544 14.801 0 25.546 10.544 10.544 10.745 10.544 25.546t-10.544 25.345l-22.906 22.906q-10.543 10.543-25.326 10.424-14.782-.12-25.325-10.664-10.544-10.543-10.544-25.344 0-14.801 10.544-25.547ZM445.051-104.246v-46.667q0-15.33 10.5-25.806t25.866-10.476q15.366 0 25.782 10.476 10.417 10.476 10.417 25.806v46.667q0 15.398-10.5 25.92-10.5 10.522-25.866 10.522t-25.782-10.522q-10.417-10.522-10.417-25.92Zm310.123-94.594-22.906-22.667q-10.543-10.544-10.543-25.345 0-14.801 10.543-25.546 10.746-10.544 25.547-10.544t25.344 10.544l22.906 22.906q10.544 10.543 10.544 25.326 0 14.782-10.623 25.326-10.623 10.543-25.446 10.543-14.822 0-25.366-10.543ZM176.841-688.508l-22.906-22.666q-10.544-10.544-10.544-25.345 0-14.801 10.544-25.546 10.745-10.544 25.546-10.544t25.345 10.544l22.906 22.906q10.543 10.543 10.543 25.326 0 14.782-10.623 25.325-10.623 10.544-25.446 10.544-14.822 0-25.365-10.544Zm-22.667 438.776 22.667-22.666q10.543-10.544 25.344-10.544 14.801 0 25.547 10.544 10.543 10.745 10.543 25.546t-10.543 25.345l-22.906 22.906q-10.544 10.543-25.326 10.424-14.783-.12-25.326-10.663-10.544-10.544-10.544-25.345 0-14.801 10.544-25.547Zm125.551-189.326h400.55v-80.551h-400.55v80.551ZM480-479.333Z"/></svg>