<svg xmlns="http://www.w3.org/2000/svg" height="40" viewBox="0 -960 960 960" width="40"><path d="M277.47-121.036q-16.05 0-26.905-10.939-10.855-10.938-10.855-26.938v-444.768q0-101.283 70.866-172.229 70.866-70.945 172.308-70.945 101.283 0 172.228 70.945 70.946 70.946 70.946 172.229v187.428l54.812-54.812q11.022-11.022 26.442-11.022t26.602 11.022q11.021 11.022 11.021 26.521 0 15.5-11.021 26.522L714.783-299.051q-5.892 5.892-12.604 8.577-6.712 2.684-14.246 2.684-7.375 0-14.078-2.684-6.703-2.685-12.434-8.577L542.29-418.022q-11.022-11.022-11.022-26.402t11.261-26.562q11.101-11.021 26.203-11.141 15.101-.119 26.282 10.823l55.131 55.051v-187.428q0-69.133-49.095-118.197-49.096-49.064-118.272-49.064-69.336 0-118.325 49.064-48.989 49.064-48.989 118.197v444.768q0 16-10.972 26.938-10.972 10.939-27.022 10.939Z"/></svg>