<svg xmlns="http://www.w3.org/2000/svg" height="40" viewBox="0 -960 960 960" width="40"><path d="M480-73.862q-33.449 0-55.533-22.203-22.083-22.203-22.083-55.652 0-21.986 10.881-40.225 10.88-18.239 30.453-29.797v-100.123H308q-29.631 0-51.218-21.587-21.586-21.587-21.586-51.218v-101.5q-19.493-9.797-30.413-27.992-10.921-18.195-10.921-41.174 0-22.37 10.225-39.874t27.355-26.982L74.84-788.95q-9.558-9.725-9.518-23.913.04-14.188 10.553-24.666 10.354-10.319 24.79-10.319t24.755 10.319L838.529-124.42q9.725 9.725 9.982 23.993.257 14.268-10.096 24.587-10.514 10.478-24.95 10.478-14.435 0-24.754-10.478L541.928-321.862h-25.646v99.645q19.793 11.232 30.564 30.413 10.77 19.181 10.77 40.087 0 33.449-22.083 55.652Q513.449-73.862 480-73.862Zm286.138-550.029v117.115q0 7.783-5.758 13.421-5.757 5.637-13.38 5.637h-22.275v68.183q0 18.261-11.296 27.351-11.295 9.091-25.025 9.091-13.491 0-24.947-9.26Q652-401.613 652-419.629v-68.089h-22.514q-7.544 0-13.181-5.677-5.638-5.678-5.638-13.381v-117.115q0-7.783 5.638-13.421 5.637-5.637 13.42-5.637H747q7.623 0 13.38 5.637 5.758 5.638 5.758 13.421ZM308-394.667h135.718v-25.486L338.333-525.298q-4.666 9.16-12.333 16.74-7.667 7.58-18 12.152v101.739ZM443.718-728h-45.312q-11.261 0-16.612-10.196-5.352-10.195 1.445-20.137l81.515-110.247q2.597-3.172 15.338-7.703 4.753 0 8.628 1.779 3.874 1.779 6.686 5.924l81.116 109.928q7.463 9.782 2.239 20.217Q573.536-728 561.275-728h-44.993v98.588q0 18.261-11.215 27.231-11.216 8.971-24.946 8.971-13.491 0-24.947-9.259-11.456-9.26-11.456-27.277V-728Z"/></svg>