<svg xmlns="http://www.w3.org/2000/svg" height="40" viewBox="0 -960 960 960" width="40"><path d="M442.123-774.928H320q-16 0-26.938-10.972-10.939-10.972-10.939-27.008 0-16.035 10.939-26.984Q304-850.841 320-850.841h320q16 0 26.938 11.066 10.939 11.066 10.939 27.101 0 16.036-10.939 26.891Q656-774.928 640-774.928H517.877v108.791q0 16-10.972 26.938-10.972 10.939-27.022 10.939-16.05 0-26.905-10.939-10.855-10.938-10.855-26.938v-108.791ZM149.319-142.314v-253.56q0-16.053 10.972-26.992 10.972-10.938 27.021-10.938 16.05 0 26.905 10.985t10.855 26.952v.94h130.914v-124.247h-1.111q-16.049 0-26.987-10.972-10.939-10.972-10.939-27.022 0-16.049 10.939-26.904 10.938-10.855 27.098-10.855h250.173q16.015 0 26.953 10.972 10.939 10.972 10.939 27.021 0 16.05-10.986 26.905-10.985 10.855-26.952 10.855h-.939v124.247h130.754v-1.102q0-15.898 10.972-26.837 10.972-10.938 27.008-10.938 16.035 0 26.984 10.938 10.949 10.939 10.949 26.992v253.56q0 16.053-11.066 26.992-11.066 10.938-27.101 10.938-16.036 0-26.891-10.985-10.855-10.985-10.855-27.054v-.838H225.072v.852q0 16.315-10.972 27.17t-27.022 10.855q-16.049 0-26.904-10.938-10.855-10.939-10.855-26.992Zm75.753-76.859h509.856v-100.001H528.261v-200h-96.522v200H225.072v100.001Zm254.928 0Z"/></svg>