<svg xmlns="http://www.w3.org/2000/svg" height="40" viewBox="0 -960 960 960" width="40"><path d="M623-513.333h150.334v-177.609H623v177.609Zm-218.428 0h151.667v-177.609H404.572v177.609Zm-217 0h150.334v-177.609H187.572v177.609Zm0 244.275h150.334v-177.609H187.572v177.609Zm217 0h151.667v-177.609H404.572v177.609Zm218.428 0h150.334v-177.609H623v177.609Zm-511.341 0v-421.884q0-31.314 22.3-53.614 22.299-22.299 53.613-22.299h585.762q31.314 0 53.613 22.299 22.3 22.3 22.3 53.614v421.884q0 31.249-22.3 53.501-22.299 22.253-53.613 22.253H187.572q-31.314 0-53.613-22.253-22.3-22.252-22.3-53.501Z"/></svg>