<svg xmlns="http://www.w3.org/2000/svg" height="40" viewBox="0 -960 960 960" width="40"><path d="M480.588-73.304q-84.881 0-159.18-31.605t-129.597-86.649q-55.297-55.043-86.902-129.309-31.605-74.265-31.605-159.02 0-85.294 31.605-159.403t86.316-129.152q54.71-55.044 128.011-86.728 73.302-31.685 156.097-31.685 29.802 0 60.71 4.068 30.908 4.067 54.842 10.722 14.123 2.933 22.674 14.983 8.55 12.05 8.55 26.56v59.022q0 33.37-25.509 58.66-25.51 25.289-58.918 25.289H435.811v79.442q0 18.015-12.787 30.888-12.788 12.873-31.053 12.873h-79.363v83.87h247.009q18.549 0 31.521 12.976 12.971 12.975 12.971 31.531v123.71h39.442q28.174 0 49.856 16 21.683 16 29.624 41.334 42.615-48.189 65.383-104.998 22.768-56.808 22.768-117.408v-12.001q0-6.666-.667-14-.667-15.833 10.094-27.362 10.761-11.529 27.013-11.529 15.538 0 26.759 10.355t11.887 25.775q.667 6 .667 12.667v12.667q0 85.241-31.605 159.7-31.605 74.46-86.689 129.503-55.083 55.044-128.886 86.649-73.803 31.605-159.167 31.605Zm-44.777-73.087v-86.428q-32.92 0-56.181-23.203-23.261-23.204-23.261-56.292v-39.659L156.365-551.681q-3.641 21.493-5.474 36.84-1.833 15.348-1.833 32.363 0 129.718 81.586 224.522 81.587 94.804 205.167 111.565Zm287.892-455.326q-16.167 0-27.022-10.856-10.855-10.855-10.855-27.021v-131.754q0-15.824 9.261-26.332 9.261-10.509 24.072-11.545h10.667v-39.92q0-34.315 23.719-59.085Q777.263-933 810.935-933q33.771 0 57.56 24.77 23.788 24.77 23.788 59.085v39.92h11.334q14.811 1.036 24.072 11.545 9.261 10.508 9.261 26.332v131.754q0 16.166-10.855 27.021-10.855 10.856-27.022 10.856h-175.37Zm46.667-207.508h81.37v-41.833q0-17.859-11.421-30.705-11.421-12.846-29.384-12.846-17.861 0-29.213 12.846t-11.352 30.705v41.833Z"/></svg>