<svg xmlns="http://www.w3.org/2000/svg" height="40" viewBox="0 -960 960 960" width="40"><path d="M482.55-238.558q-14.388 0-24.32-10.049-9.933-10.05-9.933-24.437 0-14.388 10.05-24.201 10.049-9.813 24.437-9.813 14.387 0 24.32 9.93 9.932 9.93 9.932 24.318 0 14.387-10.049 24.32-10.05 9.932-24.437 9.932Zm-33.216-146.775v-125.428L516-444.094v58.761q0 14.167-9.617 23.75T482.55-352q-14.217 0-23.716-9.583-9.5-9.583-9.5-23.75Zm30.671-463.725q10.008 0 18.556 4.511 8.548 4.511 14.185 14.547L770.48-384.048q9.304 15.608 3.985 28.724-5.319 13.116-17.355 19.754-12.036 6.637-26.271 4.772-14.236-1.866-23.794-18.395L480-741.088l-37.443 64.827q-9.475 15.689-23.634 17.428-14.159 1.739-26.163-4.978-12.036-6.558-17.355-20.04-5.318-13.482 4.145-29.17L447.015-830q5.891-10.036 14.437-14.547 8.545-4.511 18.553-4.511ZM160.354-189.536h511.045L347.891-512.885 160.354-189.536Zm651.857 139.97-68.008-67.006H99.818q-21.777 0-32.725-19.018-10.948-19.019.073-38.076l227.515-392.429-246.21-246.369q-10.319-10.364-9.899-24.733.42-14.369 10.934-24.847 10.513-10.478 24.79-10.478 14.276 0 24.713 10.435L861.95-98.304q10.318 10.478 10.398 24.37.08 13.89-10.434 24.369-10.446 10.478-24.869 10.478t-24.834-10.478ZM509.812-350.963Zm53.906-140.129Z"/></svg>