<svg xmlns="http://www.w3.org/2000/svg" height="40" viewBox="0 -960 960 960" width="40"><path d="M73.304-408q0-65.471 30.105-130.431 30.105-64.96 75.327-124.341 45.222-59.381 98.029-111.381 52.808-51.999 97.952-91.985 5.716-4.891 12.141-7.417 6.425-2.525 13.142-2.525t13.163 2.565q6.446 2.566 12.12 7.457 46.144 41.811 98.487 93.067 52.343 51.256 97.571 110.563 39.681 51.682 70.518 112.758 30.837 61.076 34.33 127.729.985 16.326-10.257 27.554-11.241 11.228-27.859 11.228-15.396 0-25.81-11.308-10.415-11.308-12.639-26.808-3.573-42.918-21.381-82.898-17.808-39.979-41.504-76.197-31.761-48.188-78.449-100.156Q461.602-732.493 400-787.827q-123.377 111.16-187.16 207.671Q149.058-483.645 149.058-408q0 40.312 12.297 76.631t34.385 63.653v35.981q0 13.153-6.464 21.369-6.464 8.215-15.928 11.534-9.463 3.319-18.873 1.42-9.409-1.899-16.887-11.029-30.682-40.652-47.483-91.229-16.8-50.578-16.8-108.33ZM400-515.05ZM300-77.304q-16.113 0-26.854-10.74-10.74-10.742-10.74-26.854v-160q0-16.113 10.74-26.854 10.741-10.741 26.854-10.741h100q16.113 0 26.854 10.741 10.74 10.741 10.74 26.854v160q0 16.112-10.74 26.853-10.741 10.74-26.854 10.74H300Zm17.594-55.189h64.812v-124.811h-64.812v124.811Zm216-24.811v56.34q0 12.161-7.814 19.91-7.814 7.75-19.765 7.75t-19.78-7.75q-7.829-7.749-7.829-19.866v-187.479q0-11.818 8.471-19.956t20.29-8.138h115.239q22.995 0 39.092 16.097 16.096 16.096 16.096 39.092v48.811q0 17.653-10.174 31.584-10.174 13.931-26.681 20.728l20.616 50.058q5.652 13.384-2.584 25.101Q650.535-73.304 636-73.304q-8.399 0-14.717-4.446-6.319-4.445-9.638-12.098l-27.424-67.456h-50.627Zm244 0v56.34q0 12.161-7.814 19.91-7.814 7.75-19.765 7.75t-19.78-7.75q-7.829-7.749-7.829-19.866v-187.479q0-11.818 8.471-19.956t20.29-8.138h115.239q22.995 0 39.092 16.097 16.096 16.096 16.096 39.092v48.811q0 23.102-16.096 39.145-16.097 16.044-39.092 16.044h-88.812Zm-244-55.189h88.812v-48.811h-88.812v48.811Zm244 0h88.812v-48.811h-88.812v48.811Z"/></svg>