<svg xmlns="http://www.w3.org/2000/svg" height="40" viewBox="0 -960 960 960" width="40"><path d="M269.485-228.818h421.03V-590.16L480-752.124 269.485-590.239v361.421Zm.239 75.514q-31.493 0-53.623-22.13t-22.13-53.624v-303.595l-85.153 65.733q-12.094 9.782-27.713 7.615-15.62-2.167-25.366-15.145-9.746-12.05-7.457-27.463 2.289-15.413 14.877-24.942l370.928-284.964q21.138-15.659 45.913-15.659 24.775 0 45.913 15.659l371.515 284.87q12.328 9.836 14.334 25.015 2.006 15.18-7.776 27.829-9.783 12.648-25.109 14.761-15.326 2.112-27.935-7.671l-84.754-65.638v303.595q0 31.494-22.176 53.624-22.177 22.13-53.736 22.13H269.724ZM480.027-325.87q31.582 0 53.919-22.356 22.336-22.356 22.336-53.912 0-26.669-12.179-51.324-12.18-24.655-64.103-99.284-51.923 74.629-64.103 99.284-12.179 24.655-12.179 51.324 0 31.556 22.364 53.912 22.364 22.356 53.945 22.356ZM480-402.152Z"/></svg>