<svg xmlns="http://www.w3.org/2000/svg" height="40" viewBox="0 -960 960 960" width="40"><path d="M412.218-115.724v-187.993H344.08q-19.381 0-31.074-16.08-11.694-16.079-4.897-34.391l92.775-275.406q8.737-24.949 30.841-38.873 22.104-13.924 48.286-13.924 26.182 0 48.286 13.924 22.104 13.924 30.978 38.873l92.616 275.406q6.797 18.312-4.896 34.391-11.694 16.08-31.075 16.08h-67.978v187.993q0 16-11.042 26.938-11.042 10.938-27.043 10.938h-59.909q-16.02 0-26.875-10.938-10.855-10.939-10.855-26.938Zm67.867-615.204q-32.36 0-55.364-22.992-23.004-22.992-23.004-55.279 0-32.287 22.919-55.37t55.279-23.083q32.36 0 55.364 23.017 23.004 23.018 23.004 55.34 0 32.256-22.919 55.312-22.919 23.055-55.279 23.055Z"/></svg>