<svg xmlns="http://www.w3.org/2000/svg" height="40" viewBox="0 -960 960 960" width="40"><path d="M719.667-121.29q10.116 0 17.087-6.638 6.971-6.637 6.971-17.007 0-10.37-7.038-17.127T720-168.819q-10.449 0-17.087 6.757t-6.638 17.127q0 10.37 6.638 17.007 6.638 6.638 16.754 6.638Zm.293-88.913q8.598 0 14.116-5.812 5.518-5.811 5.518-14.449v-108.811q0-8.447-5.811-14.021-5.812-5.574-14.41-5.574-8.598 0-14.116 5.908-5.518 5.907-5.518 14.353v108.812q0 8.637 5.812 14.116 5.811 5.478 14.409 5.478Zm-570.902 21.145v-18.782 18.782-458.696 458.696Zm0 75.754q-30.994 0-53.374-22.38-22.38-22.38-22.38-53.374v-458.696q0-31.059 22.38-53.486 22.38-22.427 53.374-22.427h164.804V-817q0-30.327 22.38-53.041 22.38-22.713 53.374-22.713h180.768q30.994 0 53.374 22.713 22.38 22.714 22.38 53.041v93.333h164.804q31.06 0 53.486 22.427 22.427 22.427 22.427 53.486v148.675q0 15.927-11.066 26.402-11.065 10.475-27.101 10.475t-26.891-10.939q-10.855-10.938-10.855-26.938v-147.675H149.058v458.696h278.653q15.999 0 26.938 10.972 10.938 10.972 10.938 27.022 0 16.05-10.938 26.905-10.939 10.855-26.938 10.855H149.058Zm240.558-610.363h180.768V-817H389.616v93.333ZM720-44.667q-80.333 0-137.833-57.5T524.667-240q0-80.333 57.5-137.833T720-435.333q80.333 0 137.833 57.5T915.333-240q0 80.333-57.5 137.833T720-44.667Z"/></svg>