<svg xmlns="http://www.w3.org/2000/svg" height="40" viewBox="0 -960 960 960" width="40"><path d="M230.304-113.304q-66.869 0-113.489-46.62-46.62-46.619-46.62-113.409t46.62-113.489q46.62-46.699 113.489-46.699 66.87 0 113.449 46.699 46.58 46.699 46.58 113.489t-46.58 113.409q-46.579 46.62-113.449 46.62Zm500.059 0q-66.87 0-113.37-46.62-46.5-46.619-46.5-113.409t46.5-113.489q46.5-46.699 113.37-46.699 66.869 0 113.489 46.699 46.619 46.699 46.619 113.489t-46.619 113.409q-46.62 46.62-113.489 46.62ZM230.29-189.058q34.724 0 59.427-24.728 24.703-24.728 24.703-59.453t-24.66-59.547q-24.661-24.823-59.29-24.823-34.729 0-59.545 24.729-24.817 24.728-24.817 59.453 0 34.724 24.729 59.547 24.728 24.822 59.453 24.822Zm499.907 0q34.728 0 59.545-24.728 24.816-24.728 24.816-59.453t-24.728-59.547q-24.728-24.823-59.453-24.823t-59.428 24.729q-24.703 24.728-24.703 59.453 0 34.724 24.661 59.547 24.66 24.822 59.29 24.822Zm-249.53-344.384q-66.79 0-113.41-46.62-46.619-46.62-46.619-113.489 0-66.87 46.619-113.37 46.62-46.5 113.41-46.5 66.79 0 113.489 46.5t46.699 113.37q0 66.869-46.699 113.489-46.699 46.62-113.489 46.62Zm-.095-75.754q34.725 0 59.548-24.728 24.822-24.728 24.822-59.453t-24.728-59.508q-24.728-24.782-59.453-24.782T421.214-752.9q-24.823 24.767-24.823 59.396 0 34.729 24.728 59.518 24.729 24.79 59.453 24.79Zm.095-84.275Zm249.855 420.138Zm-500.138 0Z"/></svg>