<svg xmlns="http://www.w3.org/2000/svg" height="24" viewBox="0 -960 960 960" width="24"><path d="M227.693-546.154h-36.154q-10.334 0-17.09-6.752-6.756-6.751-6.756-17.076t6.756-17.095q6.756-6.769 17.09-6.769h60q10.333 0 17.089 6.757 6.756 6.756 6.756 17.089v180q0 10.333-6.751 17.089-6.751 6.757-17.077 6.757-10.325 0-17.094-6.757-6.769-6.756-6.769-17.089v-156.154ZM365.385-390v-72.308q0-15.038 10.173-25.211 10.173-10.173 25.211-10.173h85.385v-48.462h-96.923q-10.333 0-17.09-6.752-6.756-6.751-6.756-17.076t6.756-17.095q6.757-6.769 17.09-6.769h109.23q15.039 0 25.212 10.173t10.173 25.212v60.769q0 15.038-10.173 25.211-10.173 10.173-25.212 10.173h-85.385v48.462H510q10.333 0 17.089 6.752 6.757 6.751 6.757 17.076t-6.757 17.095q-6.756 6.769-17.089 6.769H389.231q-10.333 0-17.09-6.757-6.756-6.756-6.756-17.089Zm371.538 23.846H627.692q-10.333 0-17.089-6.752-6.757-6.751-6.757-17.076t6.757-17.095q6.756-6.769 17.089-6.769h96.924v-48.462h-63.077q-7.077 0-12.385-5.308-5.308-5.307-5.308-12.384t5.308-12.384q5.308-5.308 12.385-5.308h63.077v-48.462h-96.924q-10.333 0-17.089-6.752-6.757-6.751-6.757-17.076t6.757-17.095q6.756-6.769 17.089-6.769h109.231q15.038 0 25.211 10.173 10.173 10.173 10.173 25.212v156.922q0 15.039-10.173 25.212t-25.211 10.173Z"/></svg>