<svg xmlns="http://www.w3.org/2000/svg" height="24" viewBox="0 -960 960 960" width="24"><path d="M317.692-290.001H160q-12.75 0-21.374-8.628-8.625-8.629-8.625-21.384 0-12.756 8.625-21.371 8.624-8.615 21.374-8.615h157.692q5.385 0 8.847-3.462 3.462-3.462 3.462-8.847v-75.384q0-5.385-3.462-8.847-3.462-3.462-8.847-3.462H160q-12.75 0-21.374-8.625-8.625-8.624-8.625-21.374v-160q0-12.75 8.625-21.375 8.624-8.624 21.374-8.624h200q12.75 0 21.374 8.628 8.625 8.629 8.625 21.384 0 12.756-8.625 21.371-8.624 8.615-21.374 8.615H189.999v100.002h127.693q29.827 0 51.067 21.24t21.24 51.067v75.384q0 29.827-21.24 51.067t-51.067 21.24Zm244.616 0q-29.827 0-51.067-21.24t-21.24-51.067v-235.384q0-29.827 21.24-51.067t51.067-21.24H800q12.75 0 21.375 8.628 8.624 8.629 8.624 21.384 0 12.756-8.624 21.371-8.625 8.615-21.375 8.615H562.308q-5.385 0-8.847 3.462-3.462 3.462-3.462 8.847v235.384q0 5.385 3.462 8.847 3.462 3.462 8.847 3.462h195.384q5.385 0 8.847-3.462 3.462-3.462 3.462-8.847v-87.693H700q-12.75 0-21.375-8.628-8.624-8.629-8.624-21.384 0-12.756 8.624-21.371 8.625-8.615 21.375-8.615h100q12.75 0 21.375 8.625 8.624 8.624 8.624 21.374v117.692q0 29.827-21.24 51.067t-51.067 21.24H562.308Z"/></svg>