<svg xmlns="http://www.w3.org/2000/svg" height="24" viewBox="0 -960 960 960" width="24"><path d="M437.692-506.154h96.923q15.077 0 25.231-10.154 10.153-10.154 10.153-25.231v-60.769q0-15.077-10.153-25.23-10.154-10.154-25.231-10.154h-84.616v-48.462h96.155q10.307 0 17.076-6.769 6.769-6.77 6.769-17.077 0-10.307-6.769-17.077-6.769-6.769-17.076-6.769H437.692q-15.077 0-25.23 10.154-10.154 10.154-10.154 25.231v156.922q0 15.077 10.154 25.231 10.153 10.154 25.23 10.154Zm12.307-35.385v-60.769h72.309v60.769h-72.309Zm-237.69 401.538q-30.308 0-51.308-21t-21-51.308v-535.382q0-30.308 21-51.308t51.308-21h535.382q30.308 0 51.308 21t21 51.308v535.382q0 30.308-21 51.308t-51.308 21H212.309Zm0-59.999h535.382q4.616 0 8.463-3.846 3.846-3.847 3.846-8.463v-535.382q0-4.616-3.846-8.463-3.847-3.846-8.463-3.846H212.309q-4.616 0-8.463 3.846-3.846 3.847-3.846 8.463v535.382q0 4.616 3.846 8.463 3.847 3.846 8.463 3.846ZM200-760V-200-760Zm93.846 353.846h52.308V-310q0 10.307 6.769 17.077 6.77 6.769 17.077 6.769 10.307 0 17.077-6.769 6.769-6.77 6.769-17.077v-96.154h52.308V-250q0 10.307 6.769 17.077 6.77 6.769 17.077 6.769 10.307 0 17.077-6.769 6.769-6.77 6.769-17.077v-170q0-14.692-9.577-24.269-9.577-9.577-24.269-9.577H280q-14.692 0-24.269 9.577-9.577 9.577-9.577 24.269v170q0 10.307 6.769 17.077 6.77 6.769 17.077 6.769 10.307 0 17.077-6.769 6.769-6.77 6.769-17.077v-156.154Zm300 120H680q14.692 0 24.269-9.577 9.577-9.577 9.577-24.269v-100q0-14.692-9.577-24.269-9.577-9.577-24.269-9.577H570q-10.307 0-17.077 6.769-6.769 6.77-6.769 17.077v180q0 10.307 6.769 17.077 6.77 6.769 17.077 6.769 10.307 0 17.077-6.769 6.769-6.77 6.769-17.077v-36.154Zm0-47.692v-72.308h72.308v72.308h-72.308Z"/></svg>