<svg xmlns="http://www.w3.org/2000/svg" height="24" viewBox="0 -960 960 960" width="24"><path d="M437.847-437.847ZM480-160q53.308 0 102.808-16.846 49.5-16.847 90.885-49.308-42.154-31.308-91.27-47.577-49.115-16.27-102.423-16.27t-102.808 15.885q-49.5 15.885-90.885 47.962 41.385 32.461 90.885 49.308Q426.692-160 480-160Zm92.076-512.076q30.231 30.23 36.5 72.269 6.269 42.038-13.269 79.73-6.846 13.538-18.692 17.923-11.846 4.384-23.615-1.308-11.538-5.846-15.615-17.692t2.385-22.999q12.231-20.462 9.423-44.27-2.808-23.808-19.885-40.885-16.846-16.847-39.347-19.577-22.5-2.731-42.962 8.115-10.153 3.846-21.076-.538-10.923-4.385-15.154-16.538-4.461-12.384 1.346-24.23 5.808-11.846 19.346-18.077 33.846-16.308 73.115-8.231 39.27 8.077 67.5 36.308ZM480-100.001q-78.769 0-148.115-29.962-69.346-29.961-120.653-81.269-51.308-51.307-81.269-120.653Q100.001-401.231 100.001-480q0-60.154 18.039-116.923 18.039-56.77 53.5-105.616L72.309-802.77q-8.923-8.923-8.807-21.192.115-12.269 9.422-21.576 9.308-9.308 21.384-9.308 12.077 0 21.385 9.308L853.385-107.23q8.923 8.922 8.808 21.191-.116 12.27-9.423 21.577-9.308 9.307-21.077 9.307-11.769 0-21.076-9.307L215.539-658.54q-27.385 39.693-41.462 84.924Q160-528.385 160-480q0 59.308 20.731 113.616t60.193 98.077q52.846-38.692 113.422-60.192 60.577-21.5 125.654-21.5 45.693 0 90.039 12.231 44.347 12.231 84.963 33.154l93.766 93.767q-53.923 54.307-123.461 82.576-69.538 28.27-145.307 28.27ZM559-559ZM313.231-821.306q38.615-19.923 80.807-29.308 42.193-9.385 85.962-9.385 75.769 0 145.307 28.654 69.538 28.654 123.461 82.577t82.577 123.461Q859.999-555.769 859.999-480q0 43.385-9.577 85.192-9.577 41.808-28.347 80.423-5.461 11.154-17.615 14.5-12.153 3.346-22.691-2.731-10.539-6.077-14.192-18.23-3.654-12.154 1.807-23.923 15.308-31.923 22.962-66.231Q800-445.307 800-480q0-134-93-227t-227-93q-34.693 0-69 7.654-34.308 7.654-66.231 22.962-11.769 5.461-23.923 2-12.153-3.462-18.615-14-6.461-10.538-3.308-22.499 3.154-11.962 14.308-17.423Z"/></svg>