<svg xmlns="http://www.w3.org/2000/svg" height="24" viewBox="0 -960 960 960" width="24"><path d="M702.308-220v82.308q0 7.077 5.307 12.384Q712.923-120 720-120t12.385-5.308q5.307-5.307 5.307-12.384V-220H820q7.077 0 12.385-5.308 5.307-5.307 5.307-12.384t-5.307-12.385q-5.308-5.307-12.385-5.307h-82.308v-82.308q0-7.077-5.307-12.385-5.308-5.307-12.385-5.307t-12.385 5.307q-5.307 5.308-5.307 12.385v82.308H620q-7.077 0-12.385 5.307-5.307 5.308-5.307 12.385t5.307 12.384Q612.923-220 620-220h82.308Zm-489.999 79.999q-29.827 0-51.067-21.241-21.241-21.24-21.241-51.067v-535.382q0-29.827 21.241-51.067 21.24-21.241 51.067-21.241h535.382q29.827 0 51.067 21.241 21.241 21.24 21.241 51.067v202.307q0 12.75-8.629 21.375t-21.384 8.625q-12.756 0-21.371-8.625Q760-532.634 760-545.384v-202.307q0-4.616-3.846-8.463-3.847-3.846-8.463-3.846H212.309q-4.616 0-8.463 3.846-3.846 3.847-3.846 8.463v535.382q0 4.616 3.846 8.463 3.847 3.846 8.463 3.846h202.307q12.75 0 21.375 8.629 8.625 8.628 8.625 21.384 0 12.755-8.625 21.37-8.625 8.616-21.375 8.616H212.309ZM200-239.867V-200-760-512.384v-3 275.517Zm90.001-84.735q0 12.755 8.625 21.37 8.624 8.616 21.374 8.616h100.694q12.749 0 21.374-8.629 8.625-8.629 8.625-21.384 0-12.756-8.625-21.371-8.625-8.615-21.374-8.615H320q-12.75 0-21.374 8.629-8.625 8.628-8.625 21.384Zm0-155.385q0 12.756 8.625 21.371 8.624 8.615 21.374 8.615h229.618q12.749 0 21.374-8.628 8.625-8.629 8.625-21.384 0-12.756-8.625-21.371-8.625-8.615-21.374-8.615H320q-12.75 0-21.374 8.628-8.625 8.629-8.625 21.384Zm0-155.384q0 12.756 8.625 21.371 8.624 8.615 21.374 8.615h320q12.75 0 21.375-8.629 8.624-8.628 8.624-21.384 0-12.755-8.624-21.37-8.625-8.616-21.375-8.616H320q-12.75 0-21.374 8.629-8.625 8.629-8.625 21.384ZM720-57.694q-74.922 0-127.461-52.538-52.538-52.538-52.538-127.46 0-74.923 52.538-127.461Q645.078-417.691 720-417.691t127.461 52.538q52.538 52.538 52.538 127.461 0 74.922-52.538 127.46Q794.922-57.694 720-57.694Z"/></svg>