<svg xmlns="http://www.w3.org/2000/svg" height="24" viewBox="0 -960 960 960" width="24"><path d="M327.691-708.461q-30.307 0-52.076-21.769-21.769-21.769-21.769-52.076 0-30.308 21.769-52.077t52.076-21.769q30.308 0 52.077 21.769t21.769 52.077q0 30.307-21.769 52.076-21.769 21.769-52.077 21.769Zm202.31 528.46h-218q-30.308 0-55.115-20.616-24.808-20.615-31.038-50.922l-78.385-392.77q-3.231-13.999 5.884-24.845Q162.463-680 177.462-680q10.538 0 18.654 6.692 8.115 6.692 10.345 17.23l81.231 403.769q1.154 4.616 5.577 8.463 4.424 3.846 9.04 3.846h227.692q12.769 0 21.384 8.615T560-210.001q0 12.769-8.615 21.384-8.615 8.616-21.384 8.616Zm226.537 61.539L662.461-280H379.076q-25.538 0-43.961-15.384-18.422-15.385-24.038-40.154l-45.538-219.385q-9.846-44.538 20.576-77.499 30.423-32.962 72.654-32.962 31.538 0 57.538 18.885 25.999 18.884 33.23 51.423l46.308 215.077h139.231q18.308 0 34 9.462 15.692 9.461 25.538 25.923l114.231 196.153q6.076 10.538 2.73 22.807-3.346 12.269-13.884 18.346t-22.807 2.73q-12.269-3.346-18.346-13.884Z"/></svg>