<svg xmlns="http://www.w3.org/2000/svg" height="24" viewBox="0 -960 960 960" width="24"><path d="m480-136.924-103.846 29.846q-8.692 2.615-16.076-3.039-7.385-5.653-7.385-14.961v-12.538q0-4.462 1.923-8 1.923-3.538 5.769-6.769l70-52.231v-227.308l-296.384 87.769q-13.154 3.846-23.577-4.153-10.423-8-10.423-21.154v-10.923q0-7.076 3.539-13.153 3.538-6.077 9.615-9.923l225.77-133.308L99.001-776.693q-8.307-8.308-8.5-20.884-.192-12.577 8.5-21.269 8.692-8.692 21.077-8.692 12.384 0 21.076 8.692l678.461 678.461q8.308 8.308 8.5 20.884.192 12.577-8.5 21.27-8.692 8.691-21.076 8.691t-21.076-8.692L529.615-346.08v140.695l69 51.385q3.846 3.23 6.269 7.884t2.423 10.115v6.077q0 10.923-9 17.692t-19.923 3.538L480-136.924Zm0-723.459q20.769 0 35.192 14.423 14.423 14.423 14.423 35.191v219.616l315.999 187.077q7.077 3.846 10.731 10.422 3.654 6.577 3.654 14.885v5.076q0 15.385-11.539 23.885-11.538 8.499-26.307 4.653l-140.154-42.077L430.385-638.23v-172.539q0-20.768 14.423-35.191 14.423-14.423 35.192-14.423Z"/></svg>