<svg xmlns="http://www.w3.org/2000/svg" height="24" viewBox="0 -960 960 960" width="24"><path d="m478.154-441.692-102.923 25.538-44.154-33.153q-2.231-1.616-13.308-3.231l-4.23 1.615q-7.462 2-10.5 8.769-3.039 6.769.807 13.615l44.462 78.077q3.231 5.616 8.846 7.923 5.615 2.308 11.846.308l338.692-89.615q14.231-3.616 21.923-16.577 7.692-12.962 4.077-26.808t-16.346-20.192q-12.731-6.346-26.577-2.731l-99.538 26.77-150.539-141.154q-4.231-4.231-10.077-5.731t-12.076.115l-4.616 1q-12.077 2.616-17 13.885t1.308 21.73l79.923 139.847ZM172.309-180.001q-29.923 0-51.115-21.193-21.193-21.192-21.193-51.115v-109.613q0-9.846 5.654-17.462 5.654-7.615 15.115-10.384 26.308-12.231 42.77-36.308 16.461-24.078 16.461-53.924t-16.461-53.924q-16.462-24.077-42.77-36.308-9.461-2.769-15.115-10.384-5.654-7.616-5.654-17.462v-109.613q0-29.923 21.193-51.115 21.192-21.193 51.115-21.193h615.382q29.923 0 51.115 21.193 21.193 21.192 21.193 51.115v455.382q0 29.923-21.193 51.115-21.192 21.193-51.115 21.193H172.309Zm0-59.999h615.382q5.385 0 8.847-3.462 3.462-3.462 3.462-8.847v-455.382q0-5.385-3.462-8.847-3.462-3.462-8.847-3.462H172.309q-5.385 0-8.847 3.462-3.462 3.462-3.462 8.847V-618q37 22 58.5 58.5T240-480q0 43-21.5 79.5T160-342v89.691q0 5.385 3.462 8.847 3.462 3.462 8.847 3.462ZM480-480Z"/></svg>