<svg xmlns="http://www.w3.org/2000/svg" height="24" viewBox="0 -960 960 960" width="24"><path d="M757.691-308.616q-12.153-3.846-17.422-14.5-5.269-10.653-1.423-21.807 8.384-22.231 12.269-45.077Q755-412.846 755-437.539q0-117.615-81.5-200.038Q592-720 475-720q-26.77 0-49.424 3.577t-42.807 11.346q-10.539 3.846-20.577-1.73-10.038-5.577-13.884-17.731-3.846-12.153 2.423-23.499 6.269-11.346 19.038-15.192 25-8.385 51.308-12.577 26.307-4.193 53.923-4.193 71.384 0 133.23 26.77 61.846 26.769 107.846 73.384 45.999 46.615 72.461 109.076 26.461 62.462 26.461 133.23 0 27.539-4.5 54.347-4.5 26.807-13.884 53.269-3.847 12.384-15.5 18.769-11.654 6.384-23.423 2.538Zm-53.922-472.615q-8.308-8.307-8.5-20.884-.192-12.576 8.5-21.269 8.692-8.692 21.076-8.692 12.385 0 21.077 8.692l112.461 112.462q8.308 8.307 8.5 20.884.192 12.577-8.5 21.269-8.692 8.692-21.076 8.692-12.385 0-21.077-8.692L703.769-781.231ZM475-100.001q-70.154 0-132-26.462-61.846-26.461-108.153-72.153-46.308-45.693-73.077-107.231t-26.769-131.692q0-62 20.616-117.461 20.615-55.462 58.308-99.308l-46.694-46.693-33.462 33.462q-8.308 8.308-20.884 8.5-12.577.193-21.269-8.5-8.692-8.692-8.692-21.076t8.692-21.076l33.463-33.463-49.462-49.462q-8.308-8.307-8.5-20.884-.192-12.576 8.5-21.269 8.692-8.692 21.076-8.692 12.385 0 21.077 8.692l720.614 720.615q8.307 8.307 8.5 20.884.192 12.576-8.5 21.269-8.692 8.692-21.077 8.692-12.384 0-21.076-8.692L690.538-177.695q-43.077 35.692-98.154 56.692Q537.307-100.001 475-100.001Zm0-59.384q47.769 0 91.808-16.077 44.039-16.077 80.347-45.616L256.078-610.924q-29.539 36.923-45.309 81.462Q195-484.924 195-437.539q0 116.385 81.807 197.27Q358.615-159.385 475-159.385Zm-23.384-256.616Zm100.153-99.768Z"/></svg>