<svg xmlns="http://www.w3.org/2000/svg" height="24" viewBox="0 -960 960 960" width="24"><path d="M145.386-100.001q-12.768 0-21.384-8.616-8.615-8.615-8.615-21.384v-699.998q0-12.769 8.615-21.384 8.616-8.616 21.384-8.616 12.769 0 21.385 8.616 8.615 8.615 8.615 21.384v699.998q0 12.769-8.615 21.384-8.616 8.616-21.385 8.616Zm171.923-193.846q-20.769 0-35.576-14.808-14.808-14.807-14.808-35.576t14.808-35.576q14.807-14.808 35.576-14.808h236.92q20.769 0 35.576 14.808 14.808 14.807 14.808 35.576t-14.808 35.576q-14.807 14.808-35.576 14.808h-236.92Zm0-271.538q-20.769 0-35.576-14.808-14.808-14.807-14.808-35.576t14.808-35.576q14.807-14.808 35.576-14.808h476.92q20.769 0 35.576 14.808 14.808 14.807 14.808 35.576t-14.808 35.576q-14.807 14.808-35.576 14.808h-476.92Z"/></svg>