<svg xmlns="http://www.w3.org/2000/svg" height="24" viewBox="0 -960 960 960" width="24"><path d="M489.231-480ZM216.848-220.001q-21.793 0-31.781-18.885-9.988-18.884 1.77-37.01l126.626-197.565q1.923-3.077 1.923-6.539 0-3.462-1.923-6.539L186.837-684.104q-11.758-18.126-1.77-37.01 9.988-18.885 31.781-18.885h364.689q20.839 0 39.074 9.385 18.234 9.385 29.823 26.215l109.565 154.632q8.308 12.384 5.231 23.362-3.077 10.977-12.308 17.791-9.307 6.692-21.111 6.32-11.804-.372-20.657-13.012L600.769-669.999q-3.462-4.616-8.077-7.308Q588.076-680 581.537-680H259.846l104.692 160.231q11.846 18.077 11.846 39.769 0 21.692-11.846 39.769L259.846-280h165.463q12.75 0 21.375 8.629 8.625 8.628 8.625 21.384 0 12.755-8.625 21.37-8.625 8.616-21.375 8.616H216.848Zm476.075-5.768-21.616-21.615q-7.065-7.077-16.878-7.077-9.813 0-16.89 7.104t-7.077 16.577q0 9.472 7.077 16.549l36.692 36.692q8.056 8.231 18.797 8.231 10.741 0 18.972-8.231l90.461-88.846q7.077-7.076 7.269-16.692.192-9.615-7.269-17.076-7.167-7.077-17.122-7.077-9.954 0-17.031 7.077l-75.385 74.384ZM720-57.694q-74.922 0-127.461-52.538-52.538-52.538-52.538-127.46 0-74.923 52.538-127.461Q645.078-417.691 720-417.691t127.461 52.538q52.538 52.538 52.538 127.461 0 74.922-52.538 127.46Q794.922-57.694 720-57.694Z"/></svg>