<svg xmlns="http://www.w3.org/2000/svg" height="24" viewBox="0 -960 960 960" width="24"><path d="M240-175.386q-26.653 0-45.634-18.98-18.98-18.981-18.98-45.634t18.98-45.634q18.981-18.98 45.634-18.98t45.634 18.98q18.98 18.981 18.98 45.634t-18.98 45.634q-18.981 18.98-45.634 18.98Zm0-240q-26.653 0-45.634-18.98-18.98-18.981-18.98-45.634t18.98-45.634q18.981-18.98 45.634-18.98t45.634 18.98q18.98 18.981 18.98 45.634t-18.98 45.634q-18.981 18.98-45.634 18.98Zm0-240q-26.653 0-45.634-18.98-18.98-18.981-18.98-45.634t18.98-45.634q18.981-18.98 45.634-18.98t45.634 18.98q18.98 18.981 18.98 45.634t-18.98 45.634q-18.981 18.98-45.634 18.98Zm240 480q-26.653 0-45.634-18.98-18.98-18.981-18.98-45.634t18.98-45.634q18.981-18.98 45.634-18.98t45.634 18.98q18.98 18.981 18.98 45.634t-18.98 45.634q-18.981 18.98-45.634 18.98Zm0-240q-26.653 0-45.634-18.98-18.98-18.981-18.98-45.634t18.98-45.634q18.981-18.98 45.634-18.98t45.634 18.98q18.98 18.981 18.98 45.634t-18.98 45.634q-18.981 18.98-45.634 18.98Zm0-240q-26.653 0-45.634-18.941-18.98-18.941-18.98-45.539 0-28.21 19.504-46.479t46.571-18.269q-1.23 6.153-1.538 11.999-.308 5.846-.308 12.615 0 26.893 4.577 52.484 4.577 25.592 13.884 49.284-4.461 1.616-8.76 2.231-4.3.615-9.316.615Zm275 80.385q-74.923 0-127.461-52.538T575.001-755q0-74.922 52.538-127.46T755-934.998q74.922 0 127.46 52.538T934.998-755q0 74.923-52.538 127.461T755-575.001Zm-35 399.615q-26.653 0-45.634-18.98-18.98-18.981-18.98-45.634t18.98-45.634q18.981-18.98 45.634-18.98t45.634 18.98q18.98 18.981 18.98 45.634t-18.98 45.634q-18.981 18.98-45.634 18.98Zm-.136-240q-26.71 0-45.594-18.98-18.884-18.981-18.884-45.634 0-5.016.615-9.316.615-4.299 2.231-8.76 23.692 9.307 49.284 13.884 25.591 4.577 52.484 4.577 6.769 0 12.615-.308t11.999-1.538q0 27.067-18.211 46.571-18.211 19.504-46.539 19.504ZM755-645.77q8 0 13.615-5.615T774.23-665q0-8-5.615-13.616Q763-684.231 755-684.231t-13.616 5.615Q735.769-673 735.769-665t5.615 13.615Q747-645.77 755-645.77Zm0-76.923q7.076 0 12.384-5.307 5.308-5.308 5.308-12.385v-104.614q0-7.077-5.308-12.384-5.308-5.308-12.384-5.308-7.077 0-12.385 5.308-5.308 5.307-5.308 12.384v104.614q0 7.077 5.308 12.385 5.308 5.307 12.385 5.307Z"/></svg>