<svg xmlns="http://www.w3.org/2000/svg" height="24" viewBox="0 -960 960 960" width="24"><path d="M430.922-477.846 327.153-191.385q-1 2.615-5 6.615l-22.384 21.384q-7.076 6.692-15.499 3.346-8.423-3.346-10.039-11.884l-3.615-29.922q-.385-.769 1-8.615l107-295.384q11.538 10.538 24.615 17.346 13.076 6.807 27.691 10.653ZM480-530.001q-45.769 0-77.884-32.115T370.001-640q0-39 23.461-67.384 23.462-28.385 56.539-36.923v-65.694q0-12.769 8.615-21.384T480-840q12.769 0 21.384 8.615t8.615 21.384v65.694q33.077 8.538 56.539 36.923Q589.999-679 589.999-640q0 45.769-32.115 77.884T480-530.001Zm0-59.998q20.846 0 35.424-14.577 14.577-14.578 14.577-35.424t-14.577-35.424Q500.846-690.001 480-690.001t-35.424 14.577Q429.999-660.846 429.999-640t14.577 35.424q14.578 14.577 35.424 14.577Zm49.078 112.153q14.615-3.846 27.691-10.653 13.077-6.808 24.231-17.346l106.999 295.384q.616 1.846 1 8.615l-3.615 29.922q-1.615 8.538-10.038 11.884t-15.5-3.346l-22.384-21.384-5-6.615-103.384-286.461Z"/></svg>