<svg xmlns="http://www.w3.org/2000/svg" height="24" viewBox="0 -960 960 960" width="24"><path d="m294.922-450.001 206.77 206.77q8.923 8.923 8.807 20.884-.115 11.962-9.423 21.269-9.307 8.692-21.076 9-11.769.308-21.076-9L205.309-454.693q-5.615-5.615-7.923-11.846-2.308-6.23-2.308-13.461t2.308-13.461q2.308-6.231 7.923-11.846l253.615-253.615q8.307-8.308 20.576-8.5 12.269-.192 21.576 8.5 9.308 9.307 9.308 21.384t-9.308 21.384L294.922-509.999h455.077q12.769 0 21.384 8.615 8.616 8.615 8.616 21.384t-8.616 21.384q-8.615 8.615-21.384 8.615H294.922Z"/></svg>