<svg xmlns="http://www.w3.org/2000/svg" height="24" viewBox="0 -960 960 960" width="24"><path d="m450.001-665.078-206.77 206.77q-8.923 8.923-20.884 8.807-11.962-.115-21.269-9.423-8.692-9.307-9-21.076-.308-11.769 9-21.076l253.615-253.615q5.615-5.615 11.846-7.923 6.23-2.308 13.461-2.308t13.461 2.308q6.231 2.308 11.846 7.923l253.615 253.615q8.308 8.307 8.5 20.576.192 12.269-8.5 21.576-9.307 9.308-21.384 9.308t-21.384-9.308L509.999-665.078v455.077q0 12.769-8.615 21.384-8.615 8.616-21.384 8.616t-21.384-8.616q-8.615-8.615-8.615-21.384v-455.077Z"/></svg>