<svg xmlns="http://www.w3.org/2000/svg" height="24" viewBox="0 -960 960 960" width="24"><path d="M230.002-309.999v-240.003q0-12.75 8.629-21.375 8.629-8.624 21.384-8.624t21.371 8.624q8.615 8.625 8.615 21.375v240.003q0 12.749-8.629 21.374Q272.743-280 259.988-280t-21.371-8.625q-8.615-8.625-8.615-21.374Zm219.999 0v-240.003q0-12.75 8.628-21.375 8.629-8.624 21.384-8.624 12.756 0 21.371 8.624 8.615 8.625 8.615 21.375v240.003q0 12.749-8.628 21.374Q492.742-280 479.987-280q-12.756 0-21.371-8.625-8.615-8.625-8.615-21.374Zm370.767-350.002H136.386q-10.673 0-18.144-7.457-7.471-7.456-7.471-18.108v-15.623q0-7.811 3.914-13.467 3.913-5.655 10.317-9.19l323.229-158.153q14.979-7.23 31.72-7.23t31.818 7.23l321.614 157.153q7.538 3.846 11.692 10.769t4.154 14.873v10.84q0 12.286-8.039 20.324-8.038 8.039-20.422 8.039ZM253.23-720h453.54L485.385-827.692q-2.692-1.154-5.385-1.154-2.693 0-5.385 1.154L253.23-720ZM140.771-140.001q-12.75 0-21.375-8.629t-8.625-21.384q0-12.756 8.625-21.371Q128.021-200 140.771-200h403.154q12.749 0 21.374 8.629 8.625 8.628 8.625 21.384 0 12.755-8.625 21.37-8.625 8.616-21.374 8.616H140.771Zm559.214-284.613q-12.755 0-21.371-8.624-8.615-8.625-8.615-21.375v-95.389q0-12.75 8.629-21.375 8.629-8.624 21.384-8.624t21.371 8.624q8.615 8.625 8.615 21.375v95.389q0 12.75-8.629 21.375-8.629 8.624-21.384 8.624Zm-47.676 208.082v-71.544q0-9.909 5.115-18.916t14.961-13.623l111.538-55.769q7.121-4.23 16.022-4.23 8.901 0 16.132 4.23l111.538 55.769q9.846 4.616 14.961 13.623t5.115 18.916v71.544q0 69.686-36.115 119.57-36.115 49.884-98.26 76.027Q811.461-20 800-18q-2.385 0-13.461-3-62-26.077-98.115-75.961-36.115-49.884-36.115-119.57ZM771-196.153l-22.231-22.231q-7.077-7.077-16.577-6.962-9.499.116-16.961 7.577-7.461 7.462-7.461 16.769 0 9.307 7.461 16.769l30.462 30.461q10.846 10.846 25.307 10.846 14.461 0 25.307-10.846l88.077-87.461q7.077-7.077 7.269-16.577.193-9.499-7.269-16.961-7.461-7.461-16.769-7.154-9.307.308-16.769 7.154L771-196.153ZM253.23-720h453.54-453.54Z"/></svg>