<svg xmlns="http://www.w3.org/2000/svg" height="24" viewBox="0 -960 960 960" width="24"><path d="M367.693-220.001q-20.769 0-39.039-9.385-18.269-9.385-30.038-26.154L169.924-438.231Q156.463-457.308 156.463-480q0-22.692 13.461-41.769l128.692-181.922q11.769-16.769 29.846-26.538 18.077-9.77 39.231-9.77h379.998q29.923 0 51.115 21.193 21.193 21.192 21.193 51.115v375.382q0 29.923-21.193 51.115-21.192 21.193-51.115 21.193H367.693ZM760-280v-400V-280Zm-392.307 0h379.998q4.616 0 8.463-3.846 3.846-3.847 3.846-8.463v-375.382q0-4.616-3.846-8.463-3.847-3.846-8.463-3.846H367.693q-5.77 0-10.962 2.885-5.193 2.885-8.27 7.116L218.385-487.308q-2.308 3.077-2.308 7.308t2.308 7.308l130.076 182.691q3.077 4.231 8.27 7.116Q361.923-280 367.693-280Zm185.383-157.847L636-354.924q8.307 8.308 20.884 8.5 12.577.193 21.269-8.5 8.692-8.692 8.692-21.076t-8.692-21.076L595.229-480l82.924-82.924q8.307-8.307 8.5-20.884.192-12.576-8.5-21.268-8.692-8.693-21.077-8.693-12.384 0-21.076 8.693l-82.924 82.923-82.923-82.923q-8.308-8.308-20.884-8.5-12.577-.193-21.269 8.5-8.692 8.692-8.692 21.076T428-562.924L510.924-480 428-397.076q-8.307 8.307-8.5 20.884-.192 12.576 8.5 21.268 8.692 8.693 21.076 8.693 12.385 0 21.077-8.693l82.923-82.923Z"/></svg>