<svg xmlns="http://www.w3.org/2000/svg" height="24" viewBox="0 -960 960 960" width="24"><path d="M799.384-272.769q25.078 13.232 42.309-6.115 17.231-19.347 4.769-43.27l-67.231-125.694-54.309 136.464 74.462 38.615Zm-206.154-37.23h65.694l96.769-239.539q6.077-15.308.808-25.039-5.27-9.731-16.655-14.654l-80-32q-13.615-5.308-26.346.076-12.731 5.385-14.731 19.77L593.23-309.999Zm-292.154 0h65.694l-25.539-292.925q-2-13.307-14.346-18.461-12.346-5.154-26.731.154l-80 32q-13.001 5.307-16.308 16.192-3.308 10.885 2 25.04l95.23 238Zm-140.46 37.23 74.462-38.615-53.539-136.464-68.001 127.232q-13.231 24.309 4.961 42.309 18.193 18 42.117 5.538Zm266.153-37.23h106.462l30.77-347.232q2-13.615-6.808-23.193-8.808-9.577-23.193-9.577H426q-11.462 0-21.424 9-9.961 9.001-8.577 22.232l30.77 348.77ZM139.587-209.231q-38.394 0-63.99-27.654Q50-264.539 50-302.923q0-11.604 3.115-22.725 3.115-11.121 8.115-21.736L151.54-520q-13.615-37.307-1.115-73.807t47.422-50.962l80-32q15.539-6.153 31.462-7.192 15.923-1.038 29.923 5.808 8.615-30.154 32.077-51 23.461-20.846 55.285-20.846H534q31.615 0 55.269 20.269t33.038 50.039q12.846-6.616 28.769-4.731 15.924 1.884 31.078 7.653l80 32q36.153 14.462 49.845 50.769 13.692 36.308-2.769 72l90.308 172.616q5.231 9.846 8.231 20.224t3 21.621q0 41.154-28.193 69.731-28.192 28.577-69.174 28.577-10.017 0-19.607-2.308t-19.179-6.923l-63.539-31.539H247.692l-58.308 30.77q-11.461 6.23-24.23 8.115-12.769 1.885-25.567 1.885Zm340.798-270.384Z"/></svg>