<svg xmlns="http://www.w3.org/2000/svg" height="24" viewBox="0 -960 960 960" width="24"><path d="M442.885-290.001q-12.577 0-21.192-8.625-8.615-8.624-8.615-21.374v-77.692q0-29.827 20.788-51.067t51.519-21.24H662.54l-51.925-51.925q-8.692-9.307-8.692-21.384 0-12.076 8.692-20.768 8.923-8.923 21.192-8.923t21.192 8.923l99.153 98.769q10.462 10.871 10.462 25.82 0 14.948-10.462 25.794l-99.153 98.769q-8.923 8.923-21.192 8.923t-21.192-8.923q-9.307-9.307-8.919-21.576.387-12.269 8.919-21.192l51.925-52.309H485.385q-5.385 0-8.847 3.654-3.462 3.654-3.462 8.655V-319q0 12.384-8.807 20.692-8.808 8.307-21.384 8.307Zm-108.974 190q-15.525 0-25.871-10.395-10.346-10.394-10.346-25.759V-754.23q0-15.366 10.394-25.76 10.394-10.394 25.759-10.394h72.307v-33.461q0-15.365 10.394-25.759 10.395-10.395 25.76-10.395h75.384q15.365 0 25.76 10.395 10.394 10.394 10.394 25.759v33.461h72.386q15.382 0 25.728 10.394 10.346 10.394 10.346 25.76v83.077q0 12.749-8.628 21.374-8.629 8.625-21.384 8.625-12.756 0-21.371-8.625-8.615-8.625-8.615-21.374v-59.617H357.692V-160h244.616v-48.847q0-12.749 8.629-21.374 8.628-8.625 21.384-8.625 12.755 0 21.37 8.625t8.615 21.374v72.564q0 15.42-10.394 25.851t-25.759 10.431H333.911Z"/></svg>