<svg xmlns="http://www.w3.org/2000/svg" height="24" viewBox="0 -960 960 960" width="24"><path d="M758.308-159.155 552.23-364.463q-8.692-8.307-8.692-20.884t8.692-21.269q8.692-8.692 21.077-8.692 12.384 0 21.076 8.692l205.693 205.693q8.308 8.308 8.308 21.077 0 12.768-8.693 21.076-8.307 8.307-20.691 8.115-12.385-.192-20.692-8.5Zm-563.461-75.077q-27.923-46.923-41.769-97.769-13.846-50.845-13.846-103.614 0-74.539 27.654-144.884 27.654-70.346 84.577-126.885 56.922-56.922 127.576-84.884 70.654-27.961 144.422-27.961 53.154 0 103.808 14.153 50.653 14.154 96.961 42.077 24.461 15.384 26.461 43.922 2 28.538-19.846 50.384L289.153-228.001q-21.846 21.846-50.691 20.038-28.846-1.808-43.615-26.269Zm49.999-34.999 63.232-63.231q-16-21.769-31.077-45.308-15.077-23.539-27.077-48.616-12-25.077-20.039-51.885-8.038-26.808-11.961-54.347-23.693 65.924-16.117 134.732 7.577 68.808 43.039 128.655ZM352.23-374.615l232.001-234.001q-43-33-87.077-52.73-44.077-19.731-83.038-26.654-38.962-6.923-70.424-1.154-31.461 5.769-48.846 23.154-17.385 18-23.154 49.462-5.769 31.461.962 70.731 6.73 39.269 26.461 83.23 19.731 43.962 53.115 87.962ZM691.615-714q-61.462-36.616-130.463-43.923-69-7.308-134.924 16.232 28.539 3.538 55.347 11.961t51.885 20.115q25.077 11.693 48.501 26.769 23.423 15.077 45.192 32.077L691.615-714Z"/></svg>