<svg xmlns="http://www.w3.org/2000/svg" height="24" viewBox="0 -960 960 960" width="24"><path d="M300-352.309h360v36.155q0 10.307 6.769 17.076t17.077 6.769q10.307 0 17.076-6.769t6.769-17.076v-130.615q0-28.462-16.692-49.462-16.692-20.999-43.308-27.768v-59.077q0-30.307-20.999-51.307-21-21-51.308-21H384.616q-30.308 0-51.308 21-20.999 21-20.999 51.307v59.077q-26.616 6.769-43.308 27.768-16.692 21-16.692 49.462v130.615q0 10.307 6.769 17.076t17.076 6.769q10.308 0 17.077-6.769Q300-305.847 300-316.154v-36.155ZM300-400v-46.769q0-14 9.615-23.616Q319.231-480 333.231-480h293.538q14 0 23.616 9.615Q660-460.769 660-446.769V-400H300Zm60-127.691v-67.692q0-5.385 3.462-8.847 3.462-3.461 8.847-3.461h215.382q5.385 0 8.847 3.461 3.462 3.462 3.462 8.847v67.692H360Zm-187.691 427.69q-30.308 0-51.308-21t-21-51.308v-615.382q0-30.308 21-51.308t51.308-21h615.382q30.308 0 51.308 21t21 51.308v615.382q0 30.308-21 51.308t-51.308 21H172.309Zm0-59.999h615.382q4.616 0 8.463-3.846 3.846-3.847 3.846-8.463v-615.382q0-4.616-3.846-8.463-3.847-3.846-8.463-3.846H172.309q-4.616 0-8.463 3.846-3.846 3.847-3.846 8.463v615.382q0 4.616 3.846 8.463 3.847 3.846 8.463 3.846ZM160-160V-800-160Z"/></svg>