<svg xmlns="http://www.w3.org/2000/svg" height="24" viewBox="0 -960 960 960" width="24"><path d="M791.384-248.847 748.231-292q19.034-17.045 34.709-36.753 15.676-19.709 27.83-42.017-62.617-6.154-120.541-28-57.924-21.847-107.232-58.848L455.618-584.997q-37.001-49.308-58.848-106.732-21.846-57.424-27-120.041-22.308 12.154-42.154 27.885-19.847 15.731-36.616 34.654l-42.153-42.153q28-29.768 60.73-52.653 32.73-22.884 69.73-38.654 18.923-8 35.307 3 16.385 11 16.539 30.923 1.231 82.846 32.885 158.615 31.654 75.769 90.5 134.807 58.846 59.039 134.307 90 75.462 30.962 158.539 32.193 22.153.154 32.538 16.616 10.384 16.461 1.769 36.615-14.77 36.999-37.654 70.037-22.885 33.038-52.653 61.038Zm-35.691 162.46-86.385-85.769q-33.231 13-67.962 19.693-34.73 6.692-71.576 6.692-79.804 0-149.633-30.269-69.828-30.269-121.828-82.269-52-52-82.269-121.828-30.269-69.829-30.269-149.633 0-36.846 6.692-71.576 6.693-34.731 19.693-67.962l-84.155-84.154q-8.922-8.923-9.115-21.5-.192-12.576 9.115-21.884 9.308-9.307 21.692-9.307 12.385 0 21.692 9.307l666.461 667.692q8.307 8.307 8.807 20.576t-8.891 21.66q-8.608 8.609-20.685 8.916-12.077.308-21.384-8.384ZM529.77-205.77q23.461 0 46.923-3.461 23.462-3.462 45.155-10.385L420.22-421.244 219.616-621.848q-6.923 22.693-10.385 45.625-3.461 22.933-3.461 46.453 0 135 94.5 229.5t229.5 94.5ZM420.232-421.232Zm99.383-99.383Z"/></svg>