<svg xmlns="http://www.w3.org/2000/svg" height="24" viewBox="0 -960 960 960" width="24"><path d="M100.001-160H629.23v24.614q0 14.692-10.346 25.038-10.346 10.347-25.038 10.347h-458.46q-14.692 0-25.038-10.347-10.347-10.346-10.347-25.038V-160Zm0-87.693v-24.614q0-14.692 10.347-25.038 10.346-10.346 25.038-10.346h149.23v-26.923q0-15.365 10.394-25.759t25.759-10.394h87.693q15.365 0 25.76 10.394 10.394 10.394 10.394 25.759v26.923h149.23q14.692 0 25.038 10.346t10.346 25.038v24.614H100.001Zm627.692-98.616q-32.154-33.307-53-71.192-20.846-37.884-20.846-89.115v-317.229q0-15.365 10.394-25.759 10.394-10.395 25.76-10.395h133.844q15.365 0 25.759 10.395 10.395 10.394 10.395 25.759v317.229q0 51.231-19.77 89.423-19.769 38.192-52.538 70.884V-160h42.308q12.75 0 21.375 8.629 8.625 8.628 8.625 21.384 0 12.755-8.625 21.37-8.625 8.616-21.375 8.616h-66.153q-15.365 0-25.759-10.395-10.394-10.394-10.394-25.759v-210.154Zm-13.847-285.998H800V-800h-86.154v167.693Zm43.846 229.691q18-17.538 30.154-45.5Q800-476.077 800-506.616v-65.693h-86.154v65.693q0 30.539 12.308 58.5 12.307 27.962 31.538 45.5Zm-.769 0Z"/></svg>