<svg xmlns="http://www.w3.org/2000/svg" height="24" viewBox="0 -960 960 960" width="24"><path d="M174.616-100.001q-14.692 0-24.653-10.347-9.962-10.346-9.962-25.038V-330.77q0-29.923 21.193-51.115 21.192-21.192 51.115-21.192h7.692v-163.077q0-29.923 21.193-51.115 21.192-21.192 51.115-21.192h157.692v-58.77q-17.616-11.615-28.808-27.269-11.192-15.654-11.192-37.346 0-13.461 5.23-26.038 5.231-12.577 15.693-23.038l36.23-36.23q1.615-1.616 12.846-5.616 2 0 12.846 5.616l36.23 36.23q10.462 10.461 15.693 23.038 5.23 12.577 5.23 26.038 0 21.692-11.192 37.346-11.192 15.654-28.808 27.269v58.77h157.692q29.923 0 51.115 21.192 21.193 21.192 21.193 51.115v163.077h7.692q29.923 0 51.115 21.192 21.193 21.192 21.193 51.115v195.384q0 14.692-10.347 25.038-10.346 10.347-25.038 10.347H174.616ZM280-403.077h400v-163.077q0-5.385-3.462-8.847-3.462-3.462-8.847-3.462H292.309q-5.385 0-8.847 3.462-3.462 3.462-3.462 8.847v163.077ZM200-160h560v-170.77q0-5.385-3.462-8.847-3.462-3.462-8.847-3.462H212.309q-5.385 0-8.847 3.462Q200-336.155 200-330.77V-160Zm80-243.077h400-400ZM200-160H760 200Zm539.999-243.077H220.001h519.998Z"/></svg>