<svg xmlns="http://www.w3.org/2000/svg" height="24" viewBox="0 -960 960 960" width="24"><path d="M240-677.847v87.848q0 12.749-8.629 21.374Q222.743-560 209.987-560q-12.755 0-21.37-8.625-8.616-8.625-8.616-21.374v-153.846q0-15.365 10.395-25.759 10.394-10.395 25.759-10.395h153.846q12.749 0 21.374 8.629Q400-762.741 400-749.986q0 12.756-8.625 21.371Q382.75-720 370.001-720h-87.848l206.769 206.77q9.847 9.846 15.462 23.106 5.615 13.261 5.615 27.893v252.23q0 12.75-8.628 21.375-8.629 8.625-21.384 8.625-12.756 0-21.371-8.625-8.615-8.625-8.615-21.375v-252.845q0-2.308-.77-4.423-.769-2.116-2.692-4.039L240-677.847Zm480 0L601.229-558.461q-8.923 8.923-21.192 9.115-12.268.192-21.576-9.115-9.307-9.308-9.307-21.692t9.307-21.692L677.847-720h-87.848q-12.749 0-21.374-8.629Q560-737.257 560-750.013q0-12.755 8.625-21.37 8.625-8.616 21.374-8.616h153.846q15.365 0 25.759 10.395 10.395 10.394 10.395 25.759v153.846q0 12.749-8.629 21.374Q762.741-560 749.986-560q-12.756 0-21.371-8.625Q720-577.25 720-589.999v-87.848Z"/></svg>