<svg xmlns="http://www.w3.org/2000/svg" height="24" viewBox="0 -960 960 960" width="24"><path d="M220.001-787.691q0-30.308 21-51.308t51.308-21h375.382q30.308 0 51.308 21t21 51.308v477.692q0 12.749-8.629 21.374Q722.741-280 709.986-280q-12.756 0-21.371-8.625Q680-297.25 680-309.999v-477.692q0-4.616-3.846-8.463-3.847-3.846-8.463-3.846H292.309q-4.616 0-8.463 3.846-3.846 3.847-3.846 8.463v477.692q0 12.749-8.629 21.374Q262.743-280 249.987-280q-12.755 0-21.37-8.625-8.616-8.625-8.616-21.374v-477.692ZM480.02-560.769q29.518 0 50.518-21.021 21-21.02 21-50.538 0-29.517-21.02-50.517-21.021-21-50.538-21-29.518 0-50.518 21.02t-21 50.538q0 29.518 21.02 50.518 21.021 21 50.538 21Zm-64.171 390.768H250.001q-12.75 0-21.375-8.628-8.625-8.629-8.625-21.384 0-12.756 8.625-21.371 8.625-8.615 21.375-8.615h165.848l-32.925-32.925q-8.307-8.307-8.5-20.884-.192-12.576 8.5-21.268 8.692-8.693 21.077-8.693 12.384 0 21.076 8.693l79.769 79.769q10.846 10.846 10.846 25.307 0 14.461-10.846 25.307l-79.769 79.77q-8.307 8.307-20.884 8.5-12.577.192-21.269-8.5-8.692-8.693-8.692-21.077 0-12.384 8.692-21.076l32.925-32.925Zm174.15 0q-12.749 0-21.374-8.628Q560-187.258 560-200.013q0-12.756 8.625-21.371 8.625-8.615 21.374-8.615h120q12.75 0 21.375 8.628 8.625 8.629 8.625 21.384 0 12.756-8.625 21.371-8.625 8.615-21.375 8.615h-120ZM480-632.307Z"/></svg>