<svg xmlns="http://www.w3.org/2000/svg" height="24" viewBox="0 -960 960 960" width="24"><path d="M100.001-126.154v-110q0-11.846 3.616-22.692 3.615-10.846 10.846-20.692l328.23-441.922-39.461-53.154q-3.846-5.076-5.269-10.845-1.423-5.77-.615-11.346.807-5.577 3.846-10.846 3.038-5.269 8.115-9.115 10.538-7.692 22.307-6.077 11.769 1.615 19.461 12.153L480-771.536l28.923-39.154q7.692-10.538 19.653-12.153 11.961-1.615 22.5 6.077 10.538 7.692 12.153 19.653 1.616 11.961-6.077 22.499l-39.461 53.154 327.846 441.922q7.231 9.846 10.846 20.692 3.616 10.846 3.616 22.692v110q0 15.461-10.347 25.807-10.346 10.346-25.807 10.346h-687.69q-15.461 0-25.807-10.346-10.347-10.346-10.347-25.807ZM480-671 160-240.385v90.386h125l165.462-231.308q10.846-15.461 29.538-15.461t29.538 15.461L675-149.999h125v-90.386L480-671ZM358.768-149.999h242.464L480-319.309l-121.232 169.31Zm151.155-231.308L675-149.999 509.538-381.307Q498.692-396.768 480-396.768t-29.538 15.461L285-149.999l165.462-231.308q10.846-15.461 29.73-15.461 18.885 0 29.731 15.461Z"/></svg>