<svg xmlns="http://www.w3.org/2000/svg" height="24" viewBox="0 -960 960 960" width="24"><path d="M172.309-180.001q-30.308 0-51.308-21t-21-51.308v-455.382q0-30.308 21-51.308t51.308-21h615.382q30.308 0 51.308 21t21 51.308v455.382q0 30.308-21 51.308t-51.308 21H172.309Zm0-59.999h277.692v-480H172.309q-4.616 0-8.463 3.846-3.846 3.847-3.846 8.463v455.382q0 4.616 3.846 8.463 3.847 3.846 8.463 3.846Zm337.69 0h277.692q4.616 0 8.463-3.846 3.846-3.847 3.846-8.463v-455.382q0-4.616-3.846-8.463-3.847-3.846-8.463-3.846H509.999v480Zm224.617-126.154q10.307 0 17.076-6.769 6.769-6.77 6.769-17.077 0-10.307-6.769-17.077-6.769-6.769-17.076-6.769H575.384q-10.308 0-17.077 6.769-6.769 6.77-6.769 17.077 0 10.307 6.769 17.077 6.769 6.769 17.077 6.769h159.232Zm0-100q10.307 0 17.076-6.769 6.769-6.77 6.769-17.077 0-10.307-6.769-17.077-6.769-6.769-17.076-6.769H575.384q-10.308 0-17.077 6.769-6.769 6.77-6.769 17.077 0 10.307 6.769 17.077 6.769 6.769 17.077 6.769h159.232Zm0-100q10.307 0 17.076-6.769 6.769-6.77 6.769-17.077 0-10.307-6.769-17.077-6.769-6.769-17.076-6.769H575.384q-10.308 0-17.077 6.769-6.769 6.77-6.769 17.077 0 10.307 6.769 17.077 6.769 6.769 17.077 6.769h159.232ZM160-240V-720v480Z"/></svg>