<svg xmlns="http://www.w3.org/2000/svg" height="24" viewBox="0 -960 960 960" width="24"><path d="M172.309-819.999 227.308-710q7 14 20 22t28 8q30 0 46-25.5t2-52.5l-30.999-61.999h80L427.308-710q7 14 20 22t28 8q30 0 46-25.5t2-52.5l-30.999-61.999h80L627.308-710q7 14 20 22t28 8q30 0 46-25.5t2-52.5l-30.999-61.999h95.382q30.308 0 51.308 21t21 51.308v535.382q0 30.308-21 51.308t-51.308 21H172.309q-30.308 0-51.308-21t-21-51.308v-535.382q0-30.308 21-51.308t51.308-21ZM160-620.001v407.692q0 5.385 3.462 8.847 3.462 3.462 8.847 3.462h615.382q5.385 0 8.847-3.462 3.462-3.462 3.462-8.847v-407.692H160Zm0 0V-200-620.001Zm205.078 362.307h229.844q12 0 19.731-9 7.731-9 5.807-21.461-1.923-13.154-10.884-24.923-8.962-11.768-24.346-20.691-20.846-12.462-46.961-18.192-26.115-5.731-58.269-5.731-32.154 0-58.269 5.731-26.115 5.73-46.961 18.192-15.384 8.923-24.653 20.691-9.269 11.769-11.193 24.923-2.308 11.692 5.923 21.077 8.231 9.384 20.231 9.384ZM480-410.001q29.154 0 49.576-20.423 20.423-20.422 20.423-49.576t-20.423-49.576Q509.154-549.999 480-549.999t-49.576 20.423Q410.001-509.154 410.001-480t20.423 49.576q20.422 20.423 49.576 20.423Z"/></svg>