<svg xmlns="http://www.w3.org/2000/svg" height="24" viewBox="0 -960 960 960" width="24"><path d="M554.923-135.922q1.923.769 3.462.769 1.538 0 3.461-.769l235.308-72.847q-3.077-13.615-12.769-20.885-9.692-7.269-21.692-7.269H566.847q-26.231 0-44.539-2t-37.615-8.769l-62.77-20.539q-12.154-3.846-17.423-15.384-5.269-11.538-1.423-23.692 3.846-11.769 14.884-17.345 11.039-5.577 23.192-1.731l52.001 18.231q18.154 5.769 40.615 8.192 22.462 2.423 58.308 3.039h10.616q0-14.847-6.693-25.616-6.692-10.769-17.615-14.539l-232.077-85.23q-1.154-.385-2.116-.577-.961-.193-2.115-.193h-74.001v206.153l286.847 81.001Zm-15.615 58.767-271.232-77.769q-6.846 24.846-27.846 39.884-21 15.039-44.461 15.039h-55.383q-29.923 0-51.115-21.193-21.192-21.192-21.192-51.115v-238.458q0-29.923 21.192-51.115 21.192-21.192 51.115-21.192h201.306q6.231 0 12.654 1.307 6.423 1.308 12.038 3.308l233.077 85.846q27.23 10.077 45.23 35.654 18 25.576 18 60.038h100.002q43.076 0 70.191 27.807 27.115 27.807 27.115 72.191 0 17-9 27.384-9 10.385-27.23 16.461L581.077-77.77q-9.846 3.23-20.692 3.423-10.846.192-21.077-2.808Zm-411.23-95.154q0 5.385 3.461 8.847 3.462 3.462 8.847 3.462h55.383q5.385 0 8.847-2.885 3.462-2.885 3.462-9.424v-250.767h-67.692q-5.385 0-8.847 3.462-3.461 3.462-3.461 8.847v238.458Zm469.229-301.305-59.998-21.922v-17.694q-1.231-53-38.808-90.27-37.577-37.269-91.193-37.269-42.231 0-73.77 23.231-31.539 23.231-45.616 59.078h-63.69q14.307-52.923 53.807-91.462 39.5-38.538 99.27-48.384V-800h-30.001q-12.769 0-21.384-8.615t-8.615-21.384q0-12.769 8.615-21.384 8.615-8.616 21.384-8.616h180q23.308 0 52.115 8.193 28.807 8.192 47.653 22.807 5 3.846 8.692 9.807 3.693 5.962 3.693 12.808 0 12.769-8.615 21.884-8.616 9.115-21.385 9.115-6.076 0-11.538-2.538-5.461-2.539-10.538-6.385-13-8.231-28.231-11.961Q543.924-800 527.308-800h-90.001v101.694q71.308 11.692 115.654 65.038 44.346 53.346 44.346 122.499v37.155Zm-189.999-77.153Zm342.691-16.926q-29.153 0-49.576-20.423Q680-608.539 680-637.692q0-19.462 12.654-46.846 12.653-27.384 44.268-75.922 1.616-1.616 13.077-6.846 2.231 0 13.077 6.846 31 47.922 43.961 75.614 12.962 27.692 12.962 47.154 0 29.153-20.423 49.576-20.423 20.423-49.577 20.423Z"/></svg>