<svg xmlns="http://www.w3.org/2000/svg" height="24" viewBox="0 -960 960 960" width="24"><path d="m241.539-260.001-80.076 80.076q-17.077 17.076-39.269 7.73-22.193-9.346-22.193-33.653v-581.843q0-30.308 21-51.308t51.308-21h615.382q30.308 0 51.308 21t21 51.308v455.382q0 30.308-21 51.308t-51.308 21H241.539ZM787.691-320q4.616 0 8.463-3.846 3.846-3.847 3.846-8.463v-455.382q0-4.616-3.846-8.463-3.847-3.846-8.463-3.846h-89.999v230.768q0 10.846-9.038 15.962-9.039 5.115-18.269-.5l-49.231-29.539q-6.846-4.23-13.461-4.23t-13.462 4.23l-49.23 29.539q-9.231 5.615-18.269.5-9.038-5.116-9.038-15.962V-800H172.309q-4.616 0-8.463 3.846-3.846 3.847-3.846 8.463v523.076L216.001-320h571.69ZM160-320V-800v507.694V-320Z"/></svg>