<svg xmlns="http://www.w3.org/2000/svg" height="24" viewBox="0 -960 960 960" width="24"><path d="M480-133.079q-72.923 0-136.615-27.692-63.691-27.693-111.23-75.231-47.538-47.538-75.23-111.23-27.692-63.692-27.692-136.614 0-72.923 27.692-136.615 27.692-63.692 75.23-111.23 47.539-47.538 111.23-75.23Q407.077-834.614 480-834.614v-48.922q0-12.43 11.038-16.869 11.039-4.439 19.885 4.407l91.461 91.461q10.846 10.846 10.846 25.308 0 14.461-10.846 25.307l-91.461 91.461q-8.846 8.846-19.885 4.407Q480-662.493 480-674.922v-48.923q-99.538 0-169.768 70.171-70.231 70.172-70.231 169.889 0 60.938 28 113.015 28 52.076 75.538 84.384 14.462-25.692 43.632-43.658 29.17-17.966 67.137-22.572-2.823-19.462-7.527-38.923-4.704-19.462-10.935-35.923-10.153 8.271-22.153 12.866-12 4.595-25.846 4.595-30.462 0-52.231-21.692-21.769-21.692-21.769-52.153v-36.923q0-6.846-1.308-14.346-1.307-7.5-3.197-13.752-4.726-9.825 1.197-18.364 5.924-8.538 15.77-7.923 41.657 1.854 87.943 20.389 46.287 18.534 47.287 70.919 0 8.423-1.5 15.442t-5.116 14.25q-11.962-9.279-23.924-16.702-11.962-7.423-24.845-12.99 15.846 12.23 36.1 37.062 20.254 24.832 37.746 58.86 18.846-45.154 46.423-88.999 27.577-43.846 64.346-80.769-21.077 14.846-40.539 31.307-19.461 16.462-37.923 35.308-6.23-10.231-10.038-22.718-3.808-12.486-3.808-25.436 0-38.538 26.885-65.422 26.884-26.885 65.519-26.885h36.794q12.878 0 27.417-3.308 14.538-3.307 24.384-12.538 6.616-6.231 14.846-2.987 8.231 3.243 8.231 12.511 0 23.168-3.247 55.857-3.248 32.689-14.847 62.615-11.598 29.926-33.719 51.126-22.12 21.199-59.909 21.199-13.826 0-26.269-3.687-12.442-3.687-22.581-10.139-6.452 17.513-14.747 46.547-8.295 29.033-12.911 62.341 34.972 6.469 61.661 24.028 26.688 17.559 40.493 41.587 38.538-26.692 64.58-66.456t35.342-87.851q4.231-23.077 20.476-38.73 16.245-15.654 38.524-15.654 23.869 0 39.934 17.154 16.065 17.153 12.415 40.184-16.426 129.891-114.711 217.276Q614.737-133.079 480-133.079Z"/></svg>