<svg xmlns="http://www.w3.org/2000/svg" height="24" viewBox="0 -960 960 960" width="24"><path d="M172.309-220.001q-30.308 0-51.308-21t-21-51.308v-455.382q0-30.308 21-51.308t51.308-21h615.382q30.308 0 51.308 21t21 51.308v455.382q0 30.308-21 51.308t-51.308 21H619.999v43.846q0 15.365-10.395 25.759-10.394 10.395-25.759 10.395h-207.69q-15.365 0-25.759-10.395-10.395-10.394-10.395-25.759v-43.846H172.309Zm0-59.999h615.382q4.616 0 8.463-3.846 3.846-3.847 3.846-8.463v-455.382q0-4.616-3.846-8.463-3.847-3.846-8.463-3.846H172.309q-4.616 0-8.463 3.846-3.846 3.847-3.846 8.463v455.382q0 4.616 3.846 8.463 3.847 3.846 8.463 3.846ZM160-280V-760-280Zm79.946-46.154q14.361 0 24.131-9.715 9.769-9.716 9.769-24.077 0-14.361-9.715-24.131-9.716-9.769-24.077-9.769-14.361 0-24.131 9.715-9.769 9.716-9.769 24.077 0 14.361 9.715 24.131 9.716 9.769 24.077 9.769Zm252.264 0q9.636 0 16.405-6.809 6.769-6.809 6.769-16.422 0-118.92-83.539-202.46-83.54-83.539-202.46-83.539-9.613 0-16.422 6.825-6.809 6.825-6.809 16.461t6.809 16.405q6.809 6.769 16.422 6.769 99.722 0 169.63 69.909 69.909 69.908 69.909 169.63 0 9.613 6.825 16.422 6.825 6.809 16.461 6.809Zm-120.769 0q9.636 0 16.405-6.809 6.769-6.809 6.769-16.422 0-68.604-48.313-116.917t-116.917-48.313q-9.613 0-16.422 6.825-6.809 6.826-6.809 16.462 0 9.635 6.809 16.405 6.809 6.769 16.422 6.769 49.692 0 84.231 34.538 34.538 34.539 34.538 84.231 0 9.613 6.826 16.422 6.825 6.809 16.461 6.809Z"/></svg>