<svg xmlns="http://www.w3.org/2000/svg" height="24" viewBox="0 -960 960 960" width="24"><path d="M480-250.001q95.769 0 162.884-67.115Q709.999-384.231 709.999-480q0-95.769-67.115-162.884Q575.769-709.999 480-709.999q-95.769 0-162.884 67.115Q250.001-575.769 250.001-480q0 95.769 67.115 162.884Q384.231-250.001 480-250.001Zm0-59.998q-70.231 0-120.116-49.885Q309.999-409.769 309.999-480t49.885-120.116Q409.769-650.001 480-650.001t120.116 49.885Q650.001-550.231 650.001-480t-49.885 120.116Q550.231-309.999 480-309.999Zm-21.076-148.925q8.692 8.693 21.076 8.693t21.076-8.693l56-56q8.693-8.692 8.693-21.076t-8.693-21.076q-8.692-8.693-21.076-8.693t-21.076 8.693l-56 56q-8.693 8.692-8.693 21.076t8.693 21.076ZM212.309-140.001q-30.308 0-51.308-21t-21-51.308v-535.382q0-30.308 21-51.308t51.308-21h535.382q30.308 0 51.308 21t21 51.308v535.382q0 30.308-21 51.308t-51.308 21H212.309Zm0-59.999h535.382q4.616 0 8.463-3.846 3.846-3.847 3.846-8.463v-535.382q0-4.616-3.846-8.463-3.847-3.846-8.463-3.846H212.309q-4.616 0-8.463 3.846-3.846 3.847-3.846 8.463v535.382q0 4.616 3.846 8.463 3.847 3.846 8.463 3.846ZM200-760V-200-760Z"/></svg>