<svg xmlns="http://www.w3.org/2000/svg" height="24" viewBox="0 -960 960 960" width="24"><path d="M290.001-170.001v-86.154H240q-12.75 0-21.374-8.629-8.625-8.628-8.625-21.384 0-12.755 8.625-21.37 8.624-8.616 21.374-8.616h50.001v-94.616H240q-12.75 0-21.374-8.629-8.625-8.628-8.625-21.384 0-12.755 8.625-21.37 8.624-8.616 21.374-8.616h50.001v-313.076q0-15.365 10.394-25.759 10.394-10.395 25.759-10.395h219.231q85.566 0 145.09 59.503t59.524 145.038q0 85.535-59.524 145.111-59.524 59.577-145.09 59.577H349.999v94.616H480q12.75 0 21.374 8.629 8.625 8.629 8.625 21.384 0 12.756-8.625 21.371-8.624 8.615-21.374 8.615H349.999v86.154q0 12.75-8.628 21.375-8.629 8.625-21.384 8.625-12.756 0-21.371-8.625-8.615-8.625-8.615-21.375Zm59.998-300.768h195.386q59.912 0 102.264-42.354t42.352-102.269q0-59.915-42.352-102.262Q605.297-760 545.385-760H349.999v289.231Z"/></svg>