<svg xmlns="http://www.w3.org/2000/svg" height="24" viewBox="0 -960 960 960" width="24"><path d="M170.001-680q-12.75 0-21.375-8.629-8.625-8.628-8.625-21.384 0-12.755 8.625-21.37 8.625-8.616 21.375-8.616h619.998q12.75 0 21.375 8.629t8.625 21.384q0 12.756-8.625 21.371Q802.749-680 789.999-680H170.001Zm0 459.999q-12.75 0-21.375-8.629t-8.625-21.384q0-12.756 8.625-21.371Q157.251-280 170.001-280h619.998q12.75 0 21.375 8.629 8.625 8.628 8.625 21.384 0 12.755-8.625 21.37-8.625 8.616-21.375 8.616H170.001Zm0-230q-12.75 0-21.375-8.628-8.625-8.629-8.625-21.384 0-12.756 8.625-21.371 8.625-8.615 21.375-8.615h619.998q12.75 0 21.375 8.628 8.625 8.629 8.625 21.384 0 12.756-8.625 21.371-8.625 8.615-21.375 8.615H170.001Z"/></svg>