<svg xmlns="http://www.w3.org/2000/svg" height="24" viewBox="0 -960 960 960" width="24"><path d="M100.001-248.462v-28.154q0-30.307 15.462-54.884 15.461-24.576 43.153-38.038 58.847-29.231 117-43.692 58.153-14.461 124.999-14.461h1.924q12.055 0 20.719 8.602 8.664 8.601 8.664 22.813 0 11.968-8.664 20.276-8.664 8.307-20.719 8.307h-1.924q-69.076 0-122.615 15.885-53.538 15.884-91.846 35.807-13.615 7.308-19.885 17.077-6.269 9.77-6.269 22.308v28.923h241.923q12.75 0 21.375 8.629 8.624 8.628 8.624 21.384 0 12.755-8.624 21.37-8.625 8.616-21.375 8.616H160.769q-25.307 0-43.037-17.731-17.731-17.73-17.731-43.037ZM671.128-140.54q-7.206 0-14.403-1.744-7.197-1.743-13.495-6.102l-106.922-62.307q-12.7-7.276-19.504-19.554-6.803-12.279-6.803-26.831v-124.844q0-14.552 6.803-26.831 6.804-12.278 19.504-19.554l106.922-62.307q6.31-4.359 13.521-6.102 7.211-1.744 14.422-1.744t13.924 2.179q6.713 2.18 12.979 5.667l106.922 62.307q12.744 7.276 20.026 19.554 7.282 12.279 7.282 26.831v124.844q0 14.552-7.282 26.831-7.282 12.278-20.026 19.554l-106.916 62.359q-6.237 3.563-12.992 5.679-6.756 2.115-13.962 2.115ZM400-492.309q-57.749 0-98.874-41.124-41.125-41.125-41.125-98.874 0-57.75 41.125-98.874 41.125-41.125 98.874-41.125 57.749 0 98.874 41.125 41.125 41.124 41.125 98.874 0 57.749-41.125 98.874-41.125 41.124-98.874 41.124Zm0-59.998q33 0 56.5-23.5t23.5-56.5q0-33-23.5-56.5t-56.5-23.5q-33 0-56.5 23.5t-23.5 56.5q0 33 23.5 56.5t56.5 23.5Zm0-80Zm1.923 384.614Zm177.923-152.153 91.307 53.077 91.308-53.077-91.308-52.461-91.307 52.461Zm115.153 198 89.615-51.754v-109.477l-89.615 53.384v107.847Zm-137.307-51.616 89.615 52.616v-107.847l-89.615-53v108.231Z"/></svg>