<svg xmlns="http://www.w3.org/2000/svg" height="24" viewBox="0 -960 960 960" width="24"><path d="M100.001-709.999v-77.692q0-30.308 21-51.308t51.308-21h77.692q12.769 0 21.384 8.616Q280-842.768 280-829.999t-8.615 21.384Q262.77-800 250.001-800h-77.692q-4.616 0-8.463 3.846-3.846 3.847-3.846 8.463v77.692q0 12.769-8.615 21.384T130.001-680q-12.769 0-21.384-8.615-8.616-8.615-8.616-21.384Zm72.308 609.998q-30.308 0-51.308-21t-21-51.308v-77.692q0-12.769 8.616-21.384Q117.232-280 130.001-280t21.384 8.615Q160-262.77 160-250.001v77.692q0 4.616 3.846 8.463 3.847 3.846 8.463 3.846h77.692q12.769 0 21.384 8.615T280-130.001q0 12.769-8.615 21.384-8.615 8.616-21.384 8.616h-77.692Zm615.382 0h-77.692q-12.769 0-21.384-8.616Q680-117.232 680-130.001t8.615-21.384Q697.23-160 709.999-160h77.692q4.616 0 8.463-3.846 3.846-3.847 3.846-8.463v-77.692q0-12.769 8.615-21.384T829.999-280q12.769 0 21.384 8.615 8.616 8.615 8.616 21.384v77.692q0 30.308-21 51.308t-51.308 21ZM800-709.999v-77.692q0-4.616-3.846-8.463-3.847-3.846-8.463-3.846h-77.692q-12.769 0-21.384-8.615T680-829.999q0-12.769 8.615-21.384 8.615-8.616 21.384-8.616h77.692q30.308 0 51.308 21t21 51.308v77.692q0 12.769-8.616 21.384Q842.768-680 829.999-680t-21.384-8.615Q800-697.23 800-709.999ZM540-586.154q-30.692 0-52.269-21.577-21.577-21.577-21.577-52.269 0-30.692 21.577-52.269 21.577-21.577 52.269-21.577 30.692 0 52.269 21.577 21.577 21.577 21.577 52.269 0 30.692-21.577 52.269-21.577 21.577-52.269 21.577Zm-35.693 333.845H364.309l40.769-208.615-95.079 38.385V-320q0 12.769-8.615 21.384T280-290.001q-12.769 0-21.384-8.615T250.001-320v-118.154q0-10.846 6.115-19.576 6.115-8.731 15.962-13.346l136.692-58q30.384-12.693 44.769-16.808 14.384-4.115 26.461-4.115 18.307 0 34 9.653 15.692 9.654 25.538 25.731l40 64q21.769 35.154 57.769 61.693 36 26.538 82.308 34.923 12.769 2.615 21.577 11.538 8.807 8.923 8.807 21.692t-8.807 20.884q-8.808 8.115-20.961 6.5-52.462-8-101.193-36.193Q570.307-357.77 535-407.31l-30.693 155.001Z"/></svg>