<svg xmlns="http://www.w3.org/2000/svg" height="24" viewBox="0 -960 960 960" width="24"><path d="M360-225.386h240q12.769 0 21.384-8.616 8.615-8.615 8.615-21.384t-8.615-21.384q-8.615-8.615-21.384-8.615H360q-12.769 0-21.384 8.615t-8.615 21.384q0 12.769 8.615 21.384 8.615 8.616 21.384 8.616Zm0-112.308h240q12.769 0 21.384-8.615t8.615-21.384q0-12.769-8.615-21.384T600-397.692H360q-12.769 0-21.384 8.615t-8.615 21.384q0 12.769 8.615 21.384T360-337.694Zm120-358.765q-13.923-17.308-30.923-27.731-17-10.424-41.077-10.424-32.154 0-55.076 22.923-22.923 22.923-22.923 55.077 0 51.077 45.923 93.576 45.922 42.5 79.769 73.346 9.846 9.846 24.307 9.846 14.461 0 24.307-9.846 33.847-30.462 79.769-73.154 45.923-42.691 45.923-93.768 0-32.154-22.923-55.077-22.922-22.923-55.076-22.923-24.077 0-41.077 10.424-17 10.423-30.923 27.731Zm227.691 596.458H252.309q-30.308 0-51.308-21t-21-51.308v-615.382q0-30.308 21-51.308t51.308-21h455.382q30.308 0 51.308 21t21 51.308v615.382q0 30.308-21 51.308t-51.308 21ZM252.309-160h455.382q5.385 0 8.847-3.462 3.462-3.462 3.462-8.847v-615.382q0-5.385-3.462-8.847-3.462-3.462-8.847-3.462H252.309q-5.385 0-8.847 3.462-3.462 3.462-3.462 8.847v615.382q0 5.385 3.462 8.847 3.462 3.462 8.847 3.462ZM240-160V-800-160Z"/></svg>