<svg xmlns="http://www.w3.org/2000/svg" height="24" viewBox="0 -960 960 960" width="24"><path d="M224.614-220.001v37.693q0 17.628-12.352 29.967-12.353 12.34-29.999 12.34-17.647 0-29.954-12.34-12.308-12.339-12.308-29.967v-282.153q0-6.231.808-12.462t2.718-11.935l71.628-202.526q7.19-21.606 26.065-35.11 18.874-13.505 42.242-13.505h393.076q23.368 0 42.242 13.505 18.875 13.504 26.065 35.11l71.628 202.526q1.91 5.704 2.718 11.935.808 6.231.808 12.462v282.153q0 17.628-12.353 29.967-12.353 12.34-29.999 12.34-17.647 0-29.954-12.34-12.307-12.339-12.307-29.967v-37.693H224.614Zm-.307-316.92h511.386l-47.385-135.001q-1.539-3.847-4.616-5.962-3.077-2.116-7.308-2.116H283.616q-4.231 0-7.308 2.116-3.077 2.115-4.616 5.962l-47.385 135.001ZM200-476.923V-280v-196.923Zm98.552 150.769q21.832 0 37.024-15.283 15.193-15.283 15.193-37.115t-15.283-37.024q-15.283-15.193-37.115-15.193t-37.025 15.283q-15.192 15.283-15.192 37.115t15.283 37.025q15.283 15.192 37.115 15.192Zm363.077 0q21.832 0 37.025-15.283 15.192-15.283 15.192-37.115t-15.283-37.024q-15.283-15.193-37.115-15.193t-37.024 15.283q-15.193 15.283-15.193 37.115t15.283 37.025q15.283 15.192 37.115 15.192ZM200-280h560v-196.923H200V-280Z"/></svg>