<svg xmlns="http://www.w3.org/2000/svg" height="24" viewBox="0 -960 960 960" width="24"><path d="M612.307-742.308q-29.153 0-49.576-20.423-20.423-20.423-20.423-49.576 0-29.154 20.423-49.577 20.423-20.422 49.576-20.422 29.154 0 49.577 20.422 20.422 20.423 20.422 49.577 0 29.153-20.422 49.576-20.423 20.423-49.577 20.423Zm-191.846 200 69.461 72.847q9.847 9.846 14.962 22.692t5.115 26.923V-240q0 12.75-8.628 21.374-8.629 8.625-21.384 8.625-12.756 0-21.371-8.625-8.615-8.624-8.615-21.374v-168.847L316.616-517.385q-12.077-10.077-16.692-21.464-4.616-11.387-4.616-27.153 0-15.767 5.116-26.728 5.115-10.962 16.192-22.039l114.308-114.307q11.076-11.077 24.23-16.193 13.154-5.115 28.846-5.115t28.846 5.115q13.154 5.116 24.23 16.193l76 76q21.77 21.769 49.693 37.23 27.923 15.462 61.077 21.847 13.154 2.615 21.653 11.538 8.5 8.923 8.5 21.884t-9.307 21.269q-9.308 8.307-22.077 6.692-47.461-7-86.153-27.231-38.692-20.231-69.538-51.077L528-649.847 420.461-542.308Zm-212.768 74.617q79.769 0 133.73 53.961 53.961 53.961 53.961 133.73 0 79.769-53.961 133.73-53.961 53.961-133.73 53.961-79.769 0-133.73-53.961Q20.002-200.231 20.002-280q0-79.769 53.96-133.73 53.962-53.961 133.731-53.961Zm0 327.691q57.769 0 98.885-41.115 41.115-41.116 41.115-98.885 0-57.769-41.115-98.885Q265.462-420 207.693-420q-57.769 0-98.885 41.115Q67.693-337.769 67.693-280q0 57.769 41.115 98.885Q149.924-140 207.693-140Zm544.614-327.691q79.769 0 133.73 53.961 53.962 53.961 53.962 133.73 0 79.769-53.962 133.73-53.961 53.961-133.73 53.961-79.769 0-133.73-53.961-53.961-53.961-53.961-133.73 0-79.769 53.961-133.73 53.961-53.961 133.73-53.961Zm0 327.691q57.769 0 98.885-41.115 41.115-41.116 41.115-98.885 0-57.769-41.115-98.885Q810.076-420 752.307-420q-57.769 0-98.885 41.115-41.115 41.116-41.115 98.885 0 57.769 41.115 98.885Q694.538-140 752.307-140Z"/></svg>