<svg xmlns="http://www.w3.org/2000/svg" height="24" viewBox="0 -960 960 960" width="24"><path d="M396.231-109.232Q265.77-138.694 182.886-242.309q-82.885-103.615-82.885-237.567 0-133.953 83.078-237.505 83.077-103.552 213.152-133.002 14.384-3.846 25.23 5.209 10.846 9.056 10.846 24.148 0 10.565-5.948 18.688Q420.41-794.215 410-792q-110 25-180 112t-70 200q0 113 70 200t180 112q10.538 2.615 16.423 10.82 5.884 8.204 5.884 18.646 0 14.918-10.846 24.033-10.846 9.115-25.23 5.269Zm167.538-.385q-14 3.846-25.038-5.13-11.038-8.976-11.038-23.935 0-10.472 5.692-18.587 5.692-8.116 16.23-10.731 27.103-6 52.7-16.5T651-210q8.307-5.692 18.346-4.187 10.038 1.506 17.474 9.033 10.41 10.538 8.794 24.23-1.615 13.692-13.384 22-27.483 17.068-57.335 29.395-29.852 12.326-61.126 19.912ZM754.59-272.405q-7.436-7.596-8.859-17.442T750-308q15-22.913 25.5-48.815 10.5-25.902 16.5-52.8 2.237-10.472 10.44-16.082 8.204-5.61 18.644-5.61 14.915 0 24.03 10.846 9.115 10.846 5.269 25.23-7.586 31.274-19.912 61.126-12.327 29.852-29.395 57.335-8.308 11.769-22.192 13.384-13.884 1.616-24.294-9.019Zm66.545-255.288q-10.674 0-18.789-5.692-8.115-5.692-10.346-16.23-6.085-27-16.735-52.5Q764.615-627.615 750-651q-6.077-8.923-4.461-18.961 1.615-10.038 9.051-17.474 10.41-10.41 24.314-8.923t22.172 14.128q17.068 27.483 29.395 57.335 12.326 29.852 19.912 61.126 3.846 14-5.077 25.038-8.922 11.038-24.171 11.038ZM651-750q-23-15-48.5-25.5T550-792q-10.41-2.237-16.359-10.44-5.948-8.204-5.948-18.644 0-14.915 10.846-24.03 10.846-9.115 25.23-5.269 31.461 7.615 61.23 19.654 29.77 12.038 57.231 29.653 12.384 8.308 14 22 1.615 13.692-8.795 24.326-7.436 7.596-17.474 9.211Q659.923-743.923 651-750ZM509.384-409.998l91.694-91.694q9.307-9.307 21.691-9.307 12.385 0 21.692 9.307 9.308 9.308 9 21.692-.308 12.384-9.615 21.692L504.692-319.155q-10.231 10.231-25.307 10.231-15.077 0-25.308-10.231L313.693-460.154q-9.308-9.308-9-21.384.308-12.077 9.615-21.384 9.308-9.308 21.384-9.308 12.077 0 21.384 9.308l92.309 92.924v-226.156q0-12.749 8.629-21.374 8.629-8.625 21.384-8.625 12.756 0 21.371 8.625 8.615 8.625 8.615 21.374v226.156Z"/></svg>