<svg xmlns="http://www.w3.org/2000/svg" height="24" viewBox="0 -960 960 960" width="24"><path d="M367.308-100.001q-29.923 0-51.115-21.193-21.192-21.192-21.192-51.115v-161.154h-70.923q-35 0-59.538-24.73-24.539-24.731-24.539-59.73 0-25.538 13.885-47.154 13.884-21.615 36.807-32.076l259.308-115.231v-37.924q-34.462-9.923-56.077-38.115-21.615-28.192-21.615-63.884 0-45 31.345-76.346Q435-859.999 480-859.999q32.154 0 58.884 17.885 26.731 17.884 39.577 46.807.384.77 2.846 12.769 0 12.769-8.808 21.577-8.807 8.807-21.576 8.807-9.923 0-16.923-5.077-7-5.076-10.846-13.769-5.769-13.307-17.308-21.154Q494.308-800 480-800q-20.077 0-33.885 13.808-13.808 13.808-13.808 33.885 0 20.077 13.808 33.885 13.808 13.808 33.885 13.808 12.769 0 21.384 8.615t8.615 21.384v62.231l258.923 115.231q22.923 10.461 37 32.076 14.077 21.616 14.077 47.154 0 34.999-24.731 59.73-24.731 24.73-59.73 24.73h-70.539v161.154q0 29.923-21.192 51.115-21.192 21.193-51.115 21.193H367.308Zm-143.23-293.46h79.615q9.462-17.615 26.115-28.231 16.654-10.615 37.5-10.615h225.384q20.846 0 37.5 10.615 16.653 10.616 26.115 28.231h79.231q10.462 0 17.462-7.308t7-18.385q0-7.308-3.654-13.308t-10.962-9.154L480-559.693 215-441.616q-7.307 3.154-11.154 9.154-3.846 6-3.846 13.308 0 11.077 6.808 18.385 6.808 7.308 17.27 7.308ZM367.308-160h225.384q5.385 0 8.847-3.462 3.461-3.462 3.461-8.847V-360q0-5.385-3.461-8.847-3.462-3.462-8.847-3.462H367.308q-5.385 0-8.847 3.462Q355-365.385 355-360v187.691q0 5.385 3.461 8.847 3.462 3.462 8.847 3.462Zm0-212.309H355h250H367.308Z"/></svg>