<svg xmlns="http://www.w3.org/2000/svg" height="24" viewBox="0 -960 960 960" width="24"><path d="M480-480ZM172.309-779.999h615.382q30.308 0 51.308 21t21 51.308v197.692q0 12.749-8.629 21.374Q842.741-480 829.986-480q-12.756 0-21.371-8.625Q800-497.25 800-509.999v-197.692q0-4.616-3.846-8.463-3.847-3.846-8.463-3.846H172.309q-4.616 0-8.463 3.846-3.846 3.847-3.846 8.463v80q0 12.749-8.629 21.374-8.628 8.625-21.384 8.625-12.755 0-21.37-8.625-8.616-8.625-8.616-21.374v-80q0-30.308 21-51.308t51.308-21Zm0 599.998q-30.308 0-51.308-21t-21-51.308v-80q0-12.749 8.629-21.374 8.629-8.625 21.384-8.625 12.756 0 21.371 8.625Q160-345.058 160-332.309v80q0 4.616 3.846 8.463 3.847 3.846 8.463 3.846h237.307q12.75 0 21.375 8.629 8.624 8.628 8.624 21.384 0 12.755-8.624 21.37-8.625 8.616-21.375 8.616H172.309Zm360.769-108.803q0-40.139 28.195-69.129 28.196-28.989 68.727-28.989 22.027 0 41.936 10.077 19.909 10.076 36.525 29.615L720-336.845l10.77-10.001q16-19.538 36.231-29.807 20.23-10.269 42.999-10.269 39.65 0 68.286 28.989 28.636 28.99 28.636 69.129 0 32.111-24.846 62.919-24.846 30.807-110.538 104.269l-28.231 24q-5 4.615-11.134 6.73-6.135 2.116-12.269 2.116-6.135 0-12.108-1.83-5.974-1.829-11.488-6.401l-28.846-24.615q-85.692-73.462-110.038-104.269-24.346-30.808-24.346-62.919ZM720-156.769l29.539-24.538q60.231-51.462 78.808-71.731 18.577-20.269 18.577-35.808 0-15.231-11.078-26.654-11.077-11.424-25.846-11.424-9.465 0-17.156 3.885-7.69 3.885-17.46 13.039L720-257.231 663.616-310q-9.77-9.154-17.52-13.039T630-326.924q-15.693 0-26.308 11.424-10.616 11.423-10.616 26.654 0 15.321 19.231 36.661 19.231 21.339 78.308 71.647L720-156.769ZM280-290.001q-9.307 0-16.307-3.961-7-3.962-10.846-12.269l-71.693-143.77h-51.153q-12.75 0-21.375-8.628-8.625-8.629-8.625-21.384 0-12.756 8.625-21.371 8.625-8.615 21.375-8.615H200q8.22 0 15.318 4.531 7.099 4.531 10.835 12.084L280-386.691l132.847-266.693q3.772-7.308 11.317-10.962 7.545-3.653 15.844-3.653t15.684 3.653q7.384 3.654 11.077 10.962l71.077 143.385H640q12.75 0 21.375 8.628 8.624 8.629 8.624 21.384 0 12.756-8.624 21.371-8.625 8.615-21.375 8.615H520q-9.307 0-16.307-3.961-7-3.962-10.846-12.269l-53.232-106.078-133.462 266.078q-3.846 8.307-10.91 12.269-7.064 3.961-15.243 3.961Zm440 48.155Z"/></svg>