<svg xmlns="http://www.w3.org/2000/svg" height="24" viewBox="0 -960 960 960" width="24"><path d="m802.768-667.001-177.001 176q-8.307 8.308-20.576 8.808t-21.576-8.808q-8.693-8.692-8.693-21.076t8.693-21.077l76.309-76.309-50.461-50.461-76.309 76.309q-8.308 8.308-20.885 8.5-12.576.193-21.268-8.5-8.692-8.692-8.5-21.076.192-12.384 8.5-21.076l176.616-177.001q8.923-8.923 19.961-13.077 11.038-4.154 23.192-4.154 11.769 0 23.114 4.27 11.346 4.269 20.038 13.576l48.846 49.461q9.308 8.692 13.269 20.038 3.962 11.346 3.962 22.884 0 11.769-4.154 22.807-4.154 11.039-13.077 19.962ZM200-200h50.461L462.77-412.309l-24.923-25.538-25.538-24.923L200-250.461V-200Zm570.154 94.46L505.538-369.156 296.46-160.694q-9.846 9.846-23.192 15.27-13.346 5.423-27.807 5.423h-69.306q-15.461 0-25.807-10.347-10.347-10.346-10.347-25.807v-68.69q0-14.462 5.423-27.808 5.424-13.346 15.27-23.192l209.077-209.078L105.54-770.154q-8.923-8.923-8.808-20.884.116-11.962 9.423-21.269 9.308-9.308 21.384-9.308 12.077 0 21.385 9.308l663.998 663.999q8.923 8.923 8.808 21.192-.115 12.268-9.423 21.576-9.307 9.308-21.076 9.308t-21.077-9.308Zm-9.769-604.614-50.231-50.231 50.231 50.231Zm-150.922 50.23 50.461 50.461-50.461-50.461ZM437.847-437.847l-25.538-24.923 50.461 50.461-24.923-25.538Z"/></svg>