<svg xmlns="http://www.w3.org/2000/svg" height="24" viewBox="0 -960 960 960" width="24"><path d="M640-100.001q-62 0-93.807-21.347-31.808-21.346-53.884-44.422-20.539-21.924-40.539-38.078-20-16.153-52.77-16.153-41.923 0-93.653-14.731-51.731-14.731-97.154-47.923-45.423-33.192-76.499-86.346Q100.617-422.154 100.001-499q-1.23-156.23 78.077-258.614Q257.385-859.999 399-859.999q65.23 0 110.961 18.77 45.73 18.769 78.923 47.653 33.192 28.885 56.73 63.884 23.538 35 44 67.692 13.538 22.308 26.885 41.308 13.346 19.001 29.269 34.924 57.308 57.307 85.769 99.615Q859.999-443.846 859.999-359q0 111.153-68.346 185.076Q723.307-100.001 640-100.001ZM640-160q57 0 108.5-56.5T800-359q0-66-19.5-97T704-544q-21-20-37.5-44.5T633-639q-41-65-87-113t-147-48q-129 0-185 92.5T160-500q1 67 29 110t66.5 67.5Q294-298 334-289t65 9q51 0 82 24.5t51 45.5q22 23 42.5 36.5T640-160ZM480-360.001q49.538 0 84.768-35.231 35.231-35.23 35.231-84.768 0-49.538-35.231-84.768-35.23-35.231-84.768-35.231-49.538 0-84.768 35.231-35.231 35.23-35.231 84.768 0 49.538 35.231 84.768 35.23 35.231 84.768 35.231ZM479-480Z"/></svg>