<svg xmlns="http://www.w3.org/2000/svg" height="24" viewBox="0 -960 960 960" width="24"><path d="m389.38-335.85 341.62-342q-12.92-15.84-26.81-30.03-13.88-14.2-30.34-26.12L360.08-419.62q4.38 22.24 11.5 42.97 7.11 20.73 17.8 40.8ZM732-283.54q29.77-38.08 47-83.5t19.15-95.04L530.46-194.39q10.31 4.93 22.46 10.85 12.16 5.92 22.85 9.08 47.85-14.77 87.15-42.89 39.31-28.11 69.08-66.19ZM160-480q0 126.62 84.39 217.46 84.38 90.85 208.53 100.69 4.24 0 8.27-.19 4.04-.19 8.27-.96-79.3-49.61-127.27-133.08-47.96-83.46-47.96-183.92t48.16-183.92Q390.54-747.39 469.85-797q-4.23-.77-8.46-.96-4.23-.19-8.47-.19-124.15 9.84-208.53 100.69Q160-606.62 160-480Zm318.15 252.39 315-314.39q-4.38-22.23-11.3-43.46-6.93-21.23-17.62-40.69l-342.62 342q14.08 18 26.58 30.42 12.5 12.42 29.96 26.12ZM480.07-100q-78.84 0-148.21-29.92t-120.68-81.21q-51.31-51.29-81.25-120.63Q100-401.1 100-479.93q0-78.84 29.92-148.21t81.21-120.68q51.29-51.31 120.63-81.25Q401.1-860 479.93-860q78.84 0 148.21 29.92t120.68 81.21q51.31 51.29 81.25 120.63Q860-558.9 860-480.07q0 78.84-29.92 148.21t-81.21 120.68q-51.29 51.31-120.63 81.25Q558.9-100 480.07-100ZM356.08-501.15l265.07-265.08-20.84-10.35q-10.16-5.04-21.62-8.19-94.08 29.54-155.5 106.73-61.42 77.2-67.11 176.89Zm220.84 21.53Z"/></svg>