<svg xmlns="http://www.w3.org/2000/svg" height="24" viewBox="0 -960 960 960" width="24"><path d="M536.154-448.462q14.692 0 25.038-10.346t10.346-25.038q0-5.847-1.116-10.385-1.115-4.538-3.73-8.769 10.615-3.231 17.73-12.269 7.116-9.038 7.116-20.885 0-14.692-10.346-25.038t-25.038-10.346q-11.462 0-20.693 6.616-9.23 6.615-12.461 17.846l-146.385-70.385q3.154-4.385 4.808-8.962t1.654-9.731q0-14.692-10.346-25.038t-25.038-10.346q-14.692 0-25.038 10.346t-10.346 25.038q0 4.847 1.615 9.385 1.615 4.538 4.231 8.769-10.616 3.231-18.231 12.269-7.615 9.038-7.615 21.885 0 14.692 10.346 25.038t25.038 10.346q12.077 0 20.923-6.539 8.846-6.538 12.461-16.999l146 69.615q-.769.769-6.308 18.539 0 14.692 10.346 25.038t25.039 10.346Zm-154.076 39.768q-13.076-3.076-39.038-8.23-25.961-5.154-57.884-16.769-30.616-10.385-64.424-26.577-33.808-16.193-67.732-40.116-11.154-7.693-12.692-20.192-1.538-12.5 6.385-23.653 7.307-10.539 19.884-11.962 12.576-1.423 23.114 5.885 38.308 28.308 77.924 45.154 39.615 16.846 71.846 25.808 32.231 8.961 52.885 12.154L413-464q19.923 1.385 29.269 16.154T449-417l-4 29.346q-4 29.347-5 74.077-1 44.731 4.462 98.962 5.461 54.231 23.384 104.616 3.847 10.538-3.653 18.96-7.5 8.424-18.654 10.039-11.153 1.615-22.807-4.461-11.653-6.077-17.499-25.538-14.847-45.616-20.232-90.693-5.384-45.078-5.615-83.924-.231-38.847 2.539-69.5 2.769-30.654 4-47.039-.616-2.308-.577-4.231.038-1.923-3.27-2.308ZM704.46-623.23q17.077 26.692 26.308 56.807 9.231 30.116 9.231 63.423v393.001q0 12.769-8.616 21.384Q722.768-80 709.999-80t-21.384-8.615Q680-97.23 680-110V-503q0-48-25.5-87T586-649L347.23-755.846q-13.154-6.077-17-20.038-3.846-13.962 4.846-26.115 6.462-9.308 17.192-11.846 10.731-2.539 21.269 1.923l237.385 108q29.693 12.846 53.077 33.423 23.385 20.577 40.461 47.269ZM480-80q-25-52-33-111t-7.5-109q.5-50 5-83.5L449-417q2.615-16.077-6.731-30.846Q432.923-462.615 413-464l-24-3.5q-24-3.5-60.385-15-36.384-11.5-79.846-32T165.154-570q40.153 35 83.615 55.5 43.462 20.5 79.846 32Q365-471 389-467.5l24 3.5q19.923 1.385 29.269 16.154T449-417l-4.5 33.5q-4.5 33.5-5 83.5t7.5 109q8 59 33 111Z"/></svg>