<svg xmlns="http://www.w3.org/2000/svg" height="24" viewBox="0 -960 960 960" width="24"><path d="m771.078-104.001-76.616-76H252.309q-30.308 0-51.308-21t-21-51.308v-77.692q0-12.769 8.616-21.384Q197.232-360 210.001-360t21.384 8.615Q240-342.77 240-330.001v77.692q0 4.616 3.846 8.463 3.847 3.846 8.463 3.846h382.155L513.001-361.463l-11.155 11.155q-5.615 3.769-10.731 5.461-5.115 1.693-11.5 1.693-8.846 0-14.192-2.616-5.346-2.615-10.346-7.615L330.694-477.384q-8.692-8.692-9-19.538-.308-10.845 6.539-18.922 1.923-1.923 3.846-1.923t3.846 1.923l30.387 30.002v-22.309L103.386-771.078q-8.692-8.692-8.692-21.076t9.307-21.692q8.693-8.692 21.077-8.692 12.384 0 21.692 8.692l667.076 667.692q8.692 8.692 8.692 21.076t-8.692 21.077q-9.308 9.307-21.692 9.307t-21.076-9.307ZM629.691-524.152q8.692 8.692 8.692 21.076 0 12.385-7.538 19.923l-4.308 4.307q-8.153 8.154-19.922 7.462-11.769-.693-22.231-11.154-8.153-8.154-8.153-19.846t8.153-19.845l3.692-3.692q7.539-7.539 20.231-7.231 12.692.308 21.384 9ZM480-779.999q12.769 0 21.384 8.616 8.615 8.615 8.615 21.384v114.615q0 15-9.423 22.192Q491.154-606 480-606t-20.576-7.499q-9.423-7.5-9.423-22.5v-114q0-12.769 8.615-21.384 8.615-8.616 21.384-8.616Z"/></svg>