<svg xmlns="http://www.w3.org/2000/svg" height="24" viewBox="0 -960 960 960" width="24"><path d="M333.847-500.001V-660q0-19.23 13.461-32.692Q360.77-706.153 380-706.153t32.692 13.461Q426.153-679.23 426.153-660v159.999q0 19.231-13.461 32.692Q399.23-453.848 380-453.848t-32.692-13.461q-13.461-13.461-13.461-32.692Zm186.922 21.387V-820q0-19.23 13.462-32.692 13.461-13.461 32.691-13.461 19.23 0 32.692 13.461Q613.075-839.23 613.075-820v341.386q0 23.077-14.213 34.615-14.214 11.538-31.884 11.538-17.671 0-31.94-11.538-14.269-11.538-14.269-34.615ZM146.156-366.77V-500q0-19.23 13.461-32.692 13.461-13.461 32.692-13.461 19.23 0 32.691 13.461Q238.461-519.23 238.461-500v133.23q0 23.077-14.213 34.615t-31.884 11.538q-17.67 0-31.939-11.538-14.269-11.538-14.269-34.615Zm69.702 238.769q-19.704 0-27.511-18.345-7.808-18.346 6.577-32.73L355.077-339.23q9.846-9.846 23.96-10.846 14.113-1 25.04 8.846l116.692 100.308 247.079-247.079H720q-12.75 0-21.375-8.628-8.624-8.629-8.624-21.384 0-12.756 8.624-21.371 8.625-8.615 21.375-8.615h113.846q15.365 0 25.759 10.394t10.394 25.759V-398q0 12.75-8.628 21.374-8.629 8.625-21.384 8.625-12.756 0-21.371-8.625-8.615-8.624-8.615-21.374v-47.848L546.923-182.77q-9.846 9.846-23.96 10.846-14.113 1-25.04-8.846L381.231-281.078 237.076-136.924q-3.789 3.718-9.472 6.321-5.684 2.602-11.746 2.602Z"/></svg>