<svg xmlns="http://www.w3.org/2000/svg" height="24" viewBox="0 -960 960 960" width="24"><path d="M440-720q-65.308 0-116.962 37-51.654 37-71.731 96.078-4.461 11.153-14.691 17.115-10.231 5.961-22 3.73-12.153-2.615-19.153-12.23-7-9.615-3.154-20.538 23.923-79.769 92.269-130.461Q352.924-779.999 440-779.999q70.539 0 120.116 30.386 49.577 30.385 79.884 66.692v-67.078q0-12.769 8.615-21.384 8.615-8.616 21.384-8.616t21.384 8.616q8.616 8.615 8.616 21.384v153.845q0 15.462-10.347 25.808Q679.306-560 663.845-560H509.999q-12.769 0-21.384-8.615T480-589.999q0-12.769 8.615-21.384 8.615-8.616 21.384-8.616H610.77q-24.384-39.461-67.192-69.731Q500.77-720 440-720Zm0 459.999q-59 0-112.231-25.77Q274.538-311.54 240-357.079v67.078q0 12.769-8.615 21.384-8.615 8.616-21.384 8.616t-21.384-8.616q-8.616-8.615-8.616-21.384v-153.845q0-15.462 10.347-25.808Q200.694-480 216.155-480h153.846q12.769 0 21.384 8.615T400-450.001q0 12.769-8.615 21.384-8.615 8.616-21.384 8.616H269.23q25.538 44.077 70.269 72.039Q384.23-320 440-320q64.308 0 115.154-35.885Q606-391.77 627.077-449.231q5.077-12.154 15.307-19.731 10.231-7.577 23-4.961 12.769 3.23 18.846 13.769 6.076 10.538 2.23 22.691-6.615 22.693-17.269 41.347-10.654 18.654-25.962 37.962l161.847 161.847q8.308 8.307 8.5 20.884.193 12.577-8.5 21.269-8.692 8.692-21.076 8.692t-21.076-8.692L601.076-316.001q-34.846 27.769-75.422 41.884-40.577 14.116-85.654 14.116Z"/></svg>