<svg xmlns="http://www.w3.org/2000/svg" height="24" viewBox="0 -960 960 960" width="24"><path d="m480-136.924-98.384 28.23q-10.923 3.231-19.923-3.444-9-6.675-9-17.67 0-9.423 2.371-15.253 2.37-5.83 6.321-8.939l69-51.385v-226.539l-292.538 86.769q-14.769 3.846-26.307-4.63-11.539-8.476-11.539-23.887 0-11.559 3.654-19.059 3.654-7.499 10.731-11.345l315.999-187.077v-219.616q0-20.672 14.491-35.143t35.192-14.471q20.701 0 35.124 14.471 14.423 14.471 14.423 35.143v219.616l315.999 187.077q7.077 3.846 10.731 11.428 3.654 7.582 3.654 18.955 0 15.421-11.539 23.903-11.538 8.481-26.307 4.635l-292.538-86.769v226.539l69 51.385q3.951 3.111 6.321 8.944 2.371 5.833 2.371 15.166 0 10.889-9 17.658-9 6.769-19.923 3.538L480-136.924Z"/></svg>