<svg xmlns="http://www.w3.org/2000/svg" height="24" viewBox="0 -960 960 960" width="24"><path d="M597.692-180.001q-12.769 0-21.384-8.616-8.615-8.615-8.615-21.384 0-27.923 39.384-48.961T713.846-280q67.384 0 106.768 21.038 39.385 21.038 39.385 48.961 0 12.769-8.616 21.384-8.615 8.616-21.384 8.616H597.692Zm116.154-152.308q-29.154 0-49.577-20.422-20.423-20.423-20.423-49.577 0-29.153 20.423-49.576 20.423-20.423 49.577-20.423 29.153 0 49.576 20.423 20.423 20.423 20.423 49.576 0 29.154-20.423 49.577-20.423 20.422-49.576 20.422ZM160-240v-480V-545.307-560v320Zm12.309 59.999q-30.308 0-51.308-21t-21-51.308v-455.382q0-30.308 21-51.308t51.308-21H362q14.461 0 27.807 5.616 13.346 5.615 23.192 15.461l58.923 58.923h315.769q30.308 0 51.308 21t21 51.308v80.384q0 12.769-8.616 21.384-8.615 8.616-21.384 8.616t-21.384-8.616Q800-534.538 800-547.307v-80.384q0-5.385-3.462-8.847-3.462-3.462-8.847-3.462H447.385l-80-80H172.309q-5.385 0-8.847 3.462-3.462 3.462-3.462 8.847v455.382q0 5.385 3.462 8.847 3.462 3.462 8.847 3.462H455.77q12.769 0 21.384 8.615 8.616 8.615 8.616 21.384t-8.616 21.384q-8.615 8.616-21.384 8.616H172.309Z"/></svg>