<svg xmlns="http://www.w3.org/2000/svg" height="24" viewBox="0 -960 960 960" width="24"><path d="M252.309-140.001q-29.827 0-51.067-21.241-21.241-21.24-21.241-51.067v-341.537q0-17.173 7.683-32.538 7.683-15.365 21.24-25.307l227.692-171.154q18.953-14.461 43.322-14.461 24.369 0 43.446 14.461l227.692 171.154q13.557 9.942 21.24 25.307 7.683 15.365 7.683 32.538v341.537q0 29.827-21.241 51.067-21.24 21.241-51.067 21.241H252.309Zm0-59.999h455.382q5.385 0 8.847-3.462 3.462-3.462 3.462-8.847v-341.537q0-3.077-1.346-5.577-1.347-2.5-3.654-4.423L487.308-734.615q-3.077-2.692-7.308-2.692t-7.308 2.692L245-563.846q-2.307 1.923-3.654 4.423-1.346 2.5-1.346 5.577v341.537q0 5.385 3.462 8.847 3.462 3.462 8.847 3.462ZM480-468.846Zm-55.384 215.768q7.615 0 13.038-5.423t5.423-13.038v-129.23q23.077 0 39.231-16.154 16.153-16.154 16.153-39.231v-92.307q0-7.615-5.423-13.038T480-566.922q-7.615 0-13.038 5.423t-5.423 13.038v92.307h-18.462v-92.307q0-7.615-5.423-13.038t-13.038-5.423q-7.616 0-13.039 5.423t-5.423 13.038v92.307h-18.461v-92.307q0-7.615-5.423-13.038t-13.039-5.423q-7.615 0-13.038 5.423t-5.423 13.038v92.307q0 23.077 16.154 39.231t39.23 16.154v129.23q0 7.615 5.423 13.038t13.039 5.423Zm147.691 0q7.615 0 13.039-5.423 5.423-5.423 5.423-13.038v-271.383q0-10.154-6.956-17.077-6.956-6.923-17.158-6.923-25.04 0-37.386 23.077-12.346 23.076-12.346 50.769v74.55q0 14.911 12.192 22.18t23.961 14.038h.77v110.769q0 7.615 5.423 13.038t13.038 5.423Z"/></svg>