<svg xmlns="http://www.w3.org/2000/svg" height="24" viewBox="0 -960 960 960" width="24"><path d="M249.987-290.001q-12.755 0-21.37-8.625-8.616-8.624-8.616-21.374v-320q0-12.75 8.629-21.375 8.629-8.624 21.384-8.624 12.756 0 21.371 8.624Q280-652.75 280-640v130.001h180.001V-640q0-12.75 8.629-21.375 8.629-8.624 21.384-8.624 12.756 0 21.371 8.624Q520-652.75 520-640v320q0 12.75-8.629 21.374-8.628 8.625-21.384 8.625-12.755 0-21.37-8.625-8.616-8.624-8.616-21.374v-130.001H280V-320q0 12.75-8.629 21.374-8.628 8.625-21.384 8.625Zm459.999 0q-12.756 0-21.371-8.625Q680-307.25 680-320v-290.001h-50.001q-12.749 0-21.374-8.628Q600-627.258 600-640.013q0-12.756 8.625-21.371 8.625-8.615 21.374-8.615h73.656q15.651 0 25.997 10.394 10.347 10.394 10.347 25.759V-320q0 12.75-8.629 21.374-8.629 8.625-21.384 8.625Z"/></svg>