<svg xmlns="http://www.w3.org/2000/svg" height="24" viewBox="0 -960 960 960" width="24"><path d="M136.155 0q-15.461 0-25.807-10.346-10.347-10.346-10.347-25.808v-76.922q0-15.462 10.347-25.808 10.346-10.346 25.807-10.346h687.69q15.461 0 25.807 10.346 10.347 10.346 10.347 25.808v76.922q0 15.462-10.347 25.808Q839.306 0 823.845 0h-687.69Zm146.537-280q-17.23 0-27.076-14.307-9.846-14.308-3.769-30.538L437.848-799.23q3.461-9.384 11.615-15.076 8.153-5.693 17.922-5.693h25.23q10.384 0 18.23 5.693 7.846 5.692 11.307 15.076l186.232 473.846q6.077 16.615-3.962 31Q694.384-280 677.154-280q-10.538 0-19.461-5.884-8.923-5.885-12.769-16.423l-45.539-122.462H360.307l-46.77 123.462q-3.846 10.153-12.076 15.73Q293.23-280 282.692-280Zm98.692-203.999h195.694L482-736h-4.769l-95.847 252.001Z"/></svg>