<svg xmlns="http://www.w3.org/2000/svg" height="24" viewBox="0 -960 960 960" width="24"><path d="m216.155-664.463-52.924 52.309q-8.308 8.308-20.577 8.5-12.269.192-21.66-9.199-8.608-8.608-8.608-20.993 0-12.384 8.692-21.076l99.636-99.636q5.748-5.748 12.03-8.056 6.282-2.308 13.462-2.308 7.179 0 13.41 2.308 6.23 2.308 11.979 8.056l99.636 99.636q8.307 8.307 8.807 20.576t-8.891 21.66q-8.608 8.609-20.685 8.917-12.077.307-21.384-8.385l-52.924-52.309v368.926l52.924-52.309q8.307-8.308 20.576-8.5 12.269-.192 21.66 9.199 8.609 8.608 8.609 20.993 0 12.384-8.692 21.076l-99.636 99.636q-5.749 5.748-12.031 8.056-6.282 2.308-13.461 2.308t-13.41-2.308q-6.231-2.308-11.979-8.056l-99.636-99.636q-8.308-8.307-8.808-20.576t8.891-21.66q8.609-8.609 20.686-8.917 12.076-.307 21.384 8.385l52.924 52.309v-368.926Zm301.152 444.462q-12.384 0-20.999-8.629-8.615-8.629-8.615-21.384 0-12.756 8.625-21.371Q504.942-280 517.692-280h310.384q13.567 0 22.745 9.172t9.178 22.73q0 13.559-9.577 22.943-9.577 9.385-23.115 9.385l-310-4.231Zm.385-230q-12.75 0-21.374-8.628-8.625-8.629-8.625-21.384 0-12.756 8.625-21.371 8.624-8.615 21.374-8.615h312.307q12.75 0 21.375 8.628 8.625 8.629 8.625 21.384 0 12.756-8.625 21.371-8.625 8.615-21.375 8.615H517.692Zm0-229.999q-12.75 0-21.374-8.735-8.625-8.736-8.625-21.649 0-12.586 8.514-21.1 8.514-8.515 21.1-8.515l310.384-4.231q13.731 0 23.019 9.172 9.289 9.172 9.289 22.731 0 13.558-9.289 22.943Q841.422-680 827.691-680H517.692Z"/></svg>