<svg xmlns="http://www.w3.org/2000/svg" height="24" viewBox="0 -960 960 960" width="24"><path d="M243.833-140.001q-12.755 0-21.371-8.625-8.615-8.625-8.615-21.375v-374.077L120-473.462q-10.538 7.307-22.307 6.192-11.769-1.115-19.461-11.654-7.692-10.538-6.27-22.307Q73.387-513 83.925-520.692L436-787.23q9.846-7.23 21.081-10.653T480-801.306q11.684 0 22.919 3.423Q514.154-794.46 524-787.23l352.461 266.538q9.923 7.692 11.653 19.461 1.731 11.769-5.961 22.307-7.692 10.539-19.461 11.654-11.769 1.115-22.307-6.192l-93.848-70.616v374.077q0 12.75-8.628 21.375-8.629 8.625-21.384 8.625-12.756 0-21.371-8.625-8.615-8.625-8.615-21.375v-367.693H273.846v367.693q0 12.75-8.629 21.375t-21.384 8.625Zm113.859-40q-12.75 0-21.374-8.629-8.625-8.629-8.625-21.384 0-12.756 8.625-21.371Q344.942-240 357.692-240h244.616q12.75 0 21.374 8.629 8.625 8.628 8.625 21.384 0 12.755-8.625 21.37-8.624 8.616-21.374 8.616H357.692Zm0-119.231q-12.75 0-21.374-8.629-8.625-8.629-8.625-21.384t8.625-21.371q8.624-8.615 21.374-8.615h244.616q12.75 0 21.374 8.629 8.625 8.629 8.625 21.384t-8.625 21.371q-8.624 8.615-21.374 8.615H357.692Zm0-119.231q-12.75 0-21.374-8.629-8.625-8.628-8.625-21.384 0-12.755 8.625-21.37 8.624-8.615 21.374-8.615h244.616q12.75 0 21.374 8.628 8.625 8.629 8.625 21.384 0 12.756-8.625 21.371-8.624 8.615-21.374 8.615H357.692Zm-73.001-179.229h391.002L480-744.385 284.691-597.692Z"/></svg>