<svg xmlns="http://www.w3.org/2000/svg" height="24" viewBox="0 -960 960 960" width="24"><path d="M420.614-374.232 353.691-74.308q-2.615 10.538-11.322 17.423-8.706 6.884-20.062 6.884-15.279 0-24.447-11.346-9.167-11.345-5.937-25.73l113-576.846q4.846-24.384 23.112-37.154 18.266-12.769 38.272-12.769 20.37 0 37.64 8.846t27.898 26.539l40 64q18.769 30.154 52.077 55.961 33.308 25.808 78.386 39.116V-570q0-10.333 6.751-17.089 6.751-6.757 17.077-6.757 10.325 0 17.094 6.757 6.769 6.756 6.769 17.089v496.154q0 10.333-6.751 17.089-6.751 6.756-17.077 6.756-10.325 0-17.094-6.756-6.769-6.756-6.769-17.09v-384.077q-50.308-11-95.347-38.269-45.039-27.27-80.424-69.578l-29 145.386 73.923 69.924q5.616 5.615 8.231 12.362 2.615 6.748 2.615 13.945V-80q0 12.75-8.628 21.374Q565.049-50 552.294-50q-12.756 0-21.371-8.625-8.615-8.624-8.615-21.374v-208.078l-101.694-86.154ZM258-453.539l-39.461-7.462q-12.154-2.615-19.23-12.653-7.077-10.039-4.462-22.807l30-157q5.616-29.769 31.192-45.346 25.577-15.577 55.576-9.346 13.539 2.615 20.692 13.807 7.154 11.192 4.539 24.731l-36.462 187.537q-2.73 15.132-15.019 23.143-12.288 8.011-27.365 5.396Zm274.307-292.615q-30.461 0-52.153-21.692-21.693-21.693-21.693-52.154 0-30.461 21.693-52.154 21.692-21.692 52.153-21.692t52.154 21.692q21.692 21.693 21.692 52.154 0 30.461-21.692 52.154-21.693 21.692-52.154 21.692Z"/></svg>