<svg xmlns="http://www.w3.org/2000/svg" height="24" viewBox="0 -960 960 960" width="24"><path d="M207.693-95.386q-30.308 0-51.307-21-21-20.999-21-51.307V-295.46q0-12.846 4.423-25.5t13.654-22.5l80.078-90.386q8.307-9.923 21.384-10.231 13.076-.307 22.384 9 8.307 8.308 8.923 20.077.615 11.769-7.692 21.076l-78.848 89.31h560.616l-76.848-87.31q-8.307-9.307-7.692-21.076.616-11.769 8.923-20.077 9.308-9.307 22.384-9 13.077.308 21.384 10.231l78.078 88.386q9.231 9.846 13.654 22.5t4.423 25.5v127.767q0 30.308-21 51.307-20.999 21-51.307 21H207.693Zm0-59.998h544.614q5 0 8.655-3.654 3.654-3.655 3.654-8.655v-76.923H195.384v76.923q0 5 3.654 8.655 3.655 3.654 8.655 3.654Zm222.692-238.847-130.23-131q-21.077-21.076-20.577-51.115.5-30.038 21.577-51.115L486.77-813.075q21.076-21.077 51.23-21.692 30.154-.616 51.23 20.461l130.615 130.615q21.077 21.076 21.692 50.615.615 29.538-20.461 50.615L532.23-393.616q-21.076 21.077-50.922 20.769-29.846-.308-50.923-21.384Zm246.922-229.383q3.078-3.077 3.078-8.847t-3.078-8.847L547.462-771.153q-3.077-3.077-8.847-3.077-5.769 0-8.846 3.077L342.923-584.308q-3.077 3.077-3.077 8.847t3.077 8.847l129.846 129.845q3.077 3.077 8.846 3.077 5.77 0 8.847-3.077l186.845-186.845Zm-481.923 468.23v-89.232 89.232Z"/></svg>