<svg xmlns="http://www.w3.org/2000/svg" height="24" viewBox="0 -960 960 960" width="24"><path d="M396.154-330.001q14.692 0 25.038-10.346t10.346-25.038v-3.808q0-1.807-1-3.807 1.154.769 2.308.961 1.154.193 2.308.193 14.692 0 25.345-10.347 10.654-10.346 10.654-25.038t-10.346-25.038q-10.346-10.346-25.038-10.346-8 0-14.923 3.692-6.923 3.693-11.539 9.077L305.923-546.23q6.154-4.231 10.115-11.539Q320-565.076 320-573.461q0-14.692-10.346-25.038t-25.038-10.346q-14.692 0-25.038 10.346-10.347 10.346-10.347 25.038 0 2 .193 3.615.192 1.616.807 3.616-1.153-.77-2.307-.962-1.154-.192-2.308-.192-14.692 0-25.346 10.346T209.616-532q0 14.692 10.346 25.038T245-496.616q8.616 0 15.731-3.692t11.731-10.077l103.769 116.769q-7.154 3.846-11.308 11.654t-4.154 16.577q0 14.692 10.346 25.038t25.039 10.346ZM494-142.694q-28.077 0-54.346-10.731-26.269-10.73-47.73-30.576L111.693-445.617q-8.308-7.692-9.231-18.538t5.154-20.153q8.308-12.385 21.807-14 13.5-1.615 24.038 8.308l279.615 263.384q13.154 12.154 29.385 18.423 16.231 6.27 32.539 6.27 13.539 0 25.885-3.693 12.346-3.692 22.5-9.846l281.385-178q14.615-9.538 29.73-.807 15.115 8.73 15.115 25.96 0 7.923-3.654 14.615-3.654 6.693-10.346 10.539l-281 177q-17.846 11.23-38 17.346-20.154 6.115-42.615 6.115Zm37.154-389.381q38.692-44.154 81.807-68.192 43.116-24.039 125.732-46.193 23.538-6.385 43.192-12.577t37.808-12.962q11.769-3.846 23.038.923 11.269 4.77 15.73 15.923 5.077 11.154.308 22.923-4.769 11.769-16.538 15.615-19.385 7.384-41.077 13.577-21.693 6.192-46.462 13.192-86.308 22.769-129.154 50.731-42.846 27.961-80 86.885-3.846 5.692-10.346 9.538T520-438.846q-10.154 0-18.269-6.692-8.115-6.692-10.346-16.615-16.384-69.154-69.731-136.577Q368.308-666.154 297-710.307q-10.538-6.077-13.269-17.539-2.73-11.461 3.731-21.999 7.077-10.538 19.538-14 12.461-3.461 23 3.231 68.077 40.923 122.154 102.385t79 126.154Zm-404.077 17.306Q196-450.077 279.692-371.077q83.692 79 153.384 144.461 13.154 12.154 29.385 18.423 16.231 6.27 32.539 6.27 13.539 0 25.885-3.693 12.346-3.692 22.5-9.846Q608.308-256 702.808-315.692q94.499-59.692 166.807-105.769l-326.23 205.999q-10.154 6.154-22.5 9.846-12.346 3.693-25.885 3.693-16.308 0-32.539-6.27-16.231-6.269-29.385-18.423L127.077-514.769Z"/></svg>