<svg xmlns="http://www.w3.org/2000/svg" height="24" viewBox="0 -960 960 960" width="24"><path d="M172.309-180.001q-29.827 0-51.067-21.241-21.241-21.24-21.241-51.067v-455.382q0-29.827 21.241-51.067 21.24-21.241 51.067-21.241h7.692v85.537L71.694-802.77q-8.923-8.923-8.808-21.192.115-12.269 9.423-21.576 9.308-9.308 21.384-9.308 12.077 0 21.384 9.308L852.77-107.23q8.923 8.922 9.115 20.884.192 11.961-9.115 21.269-9.308 9.307-21.384 9.307-12.077 0-21.385-9.307L694.462-180.002H172.309Zm0-59.999h462.155l-400-400H160v387.691q0 5.385 3.462 8.847 3.462 3.462 8.847 3.462Zm687.69-467.691v432.307q0 14.999-9.353 22.499-9.353 7.5-20.577 7.5-11.223 0-20.646-7.84Q800-261.066 800-276v-364H463.154q-14.633 0-27.893-5.615-13.261-5.616-23.107-15.462l-57.461-57.46q-8.201-9.159-10.023-19.234-1.823-10.074 2.408-19.92 4.231-9.846 12.654-16.077 8.423-6.231 20.884-6.231h407.075q29.827 0 51.067 21.241 21.241 21.24 21.241 51.067ZM713.846-517.692v100.923q0 12.016-7.54 17.623-7.539 5.608-16.268 5.608-8.73 0-16.307-6.008-7.577-6.008-7.577-17.223v-89.385h-89.385q-11.215 0-17.223-7.54-6.008-7.539-6.008-16.268 0-8.73 5.608-16.307 5.607-7.577 17.623-7.577h100.923q15.365 0 25.76 10.394 10.394 10.395 10.394 25.76Z"/></svg>