<svg xmlns="http://www.w3.org/2000/svg" height="24" viewBox="0 -960 960 960" width="24"><path d="M287.711-47.693q-10.326 0-17.095-6.756-6.769-6.756-6.769-17.09v-146.155h-36.154q-37.8 0-63.9-26.093-26.099-26.094-26.099-63.884 0-37.791 26.099-63.906 26.1-26.115 63.9-26.115h36.154v-52.309h-90q-15.365 0-25.759-10.35-10.394-10.351-10.394-25.651v-108.005q0-15.3 10.394-25.646t25.759-10.346h90v-52.309h-36.154q-37.8 0-63.9-26.093-26.099-26.094-26.099-63.884 0-37.791 26.099-63.906 26.1-26.115 63.9-26.115h36.154v-26.155q0-10.334 6.751-17.09 6.752-6.756 17.077-6.756 10.325 0 17.094 6.756 6.77 6.756 6.77 17.09v26.155h36.154q37.8 0 63.899 26.093 26.1 26.094 26.1 63.884 0 37.791-26.1 63.906-26.099 26.115-63.899 26.115h-36.154v52.309h90q15.365 0 25.759 10.35 10.394 10.351 10.394 25.651v108.005q0 15.3-10.394 25.646t-25.759 10.346h-90v52.309h36.154q37.8 0 63.899 26.093 26.1 26.094 26.1 63.884 0 37.791-26.1 63.906-26.099 26.115-63.899 26.115h-36.154v146.155q0 10.334-6.752 17.09-6.751 6.756-17.076 6.756Zm384.614 0q-10.325 0-17.094-6.756-6.77-6.756-6.77-17.09v-146.155h-36.154q-37.8 0-63.899-26.093-26.1-26.094-26.1-63.884 0-37.791 26.1-63.906 26.099-26.115 63.899-26.115h36.154v-52.309h-90q-15.365 0-25.759-10.35-10.394-10.351-10.394-25.651v-108.005q0-15.3 10.394-25.646t25.759-10.346h90v-52.309h-36.154q-37.8 0-63.899-26.093-26.1-26.094-26.1-63.884 0-37.791 26.1-63.906 26.099-26.115 63.899-26.115h36.154v-26.155q0-10.334 6.752-17.09 6.751-6.756 17.076-6.756 10.326 0 17.095 6.756 6.769 6.756 6.769 17.09v26.155h36.154q37.8 0 63.9 26.093 26.099 26.094 26.099 63.884 0 37.791-26.099 63.906-26.1 26.115-63.9 26.115h-36.154v52.309h90q15.365 0 25.759 10.35 10.394 10.351 10.394 25.651v108.005q0 15.3-10.394 25.646t-25.759 10.346h-90v52.309h36.154q37.8 0 63.9 26.093 26.099 26.094 26.099 63.884 0 37.791-26.099 63.906-26.1 26.115-63.9 26.115h-36.154v146.155q0 10.334-6.751 17.09-6.752 6.756-17.077 6.756ZM227.693-742.306h120q12.231 0 21.116-8.885t8.885-21.116q0-12.231-8.885-21.116t-21.116-8.885h-120q-12.231 0-21.116 8.885t-8.885 21.116q0 12.231 8.885 21.116t21.116 8.885Zm384.614 0h120q12.231 0 21.116-8.885t8.885-21.116q0-12.231-8.885-21.116t-21.116-8.885h-120q-12.231 0-21.116 8.885t-8.885 21.116q0 12.231 8.885 21.116t21.116 8.885ZM197.692-509.999h180.002v-60.002H197.692v60.002Zm384.614 0h180.002v-60.002H582.306v60.002ZM227.693-277.692h120q12.231 0 21.116-8.885t8.885-21.116q0-12.231-8.885-21.116t-21.116-8.885h-120q-12.231 0-21.116 8.885t-8.885 21.116q0 12.231 8.885 21.116t21.116 8.885Zm384.614 0h120q12.231 0 21.116-8.885t8.885-21.116q0-12.231-8.885-21.116t-21.116-8.885h-120q-12.231 0-21.116 8.885t-8.885 21.116q0 12.231 8.885 21.116t21.116 8.885ZM197.692-742.306V-802.308-742.306Zm384.614 0V-802.308-742.306ZM197.692-509.999v-60.002 60.002Zm384.614 0v-60.002 60.002ZM197.692-277.692V-337.694-277.692Zm384.614 0V-337.694-277.692Z"/></svg>