<svg xmlns="http://www.w3.org/2000/svg" height="24" viewBox="0 -960 960 960" width="24"><path d="M359.615-300.386q-12.749 0-21.374-8.629-8.625-8.628-8.625-21.384 0-12.755 8.625-21.37 8.625-8.616 21.374-8.616h63.848q12.75 0 21.375 8.629t8.625 21.384q0 12.756-8.625 21.371-8.625 8.615-21.375 8.615h-63.848Zm-32.691 200.385q-77.573 0-132.248-54.077t-54.675-131.307v-361.539q-30.307 0-51.692-21.192-21.384-21.192-21.384-51.499v-67.307q0-30.144 21.466-51.61 21.466-21.467 51.61-21.467h373.46q30.303 0 51.882 21.467 21.579 21.466 21.579 51.61v67.307q0 30.307-21.579 51.499-21.579 21.192-51.882 21.192v117.308q0 29.827-21.24 51.067t-51.067 21.24h-81.539q-12.749 0-21.374-8.629-8.625-8.628-8.625-21.384 0-12.755 8.625-21.37t21.374-8.615h93.848v-129.617H200v361.539q0 52.692 37.049 89.039Q274.097-160 327.024-160q19.054 0 36.515-5.192 17.462-5.193 32.616-14.962 9.923-6.077 21.268-3.231 11.346 2.846 17.355 13.385 6.76 10.538 3.739 22.958-3.021 12.42-13.594 19.194-21.846 13.231-46.12 20.539-24.274 7.308-51.879 7.308ZM140.001-706.922h373.46q5.385 0 9.424-3.654t4.039-9.039v-67.307q0-5.385-4.039-9.232-4.039-3.846-9.424-3.846h-373.46q-5.385 0-9.231 3.846-3.846 3.847-3.846 9.232v67.307q0 5.385 3.846 9.039t9.231 3.654Zm513.46 513.076q44.308 0 75.231-30.923 30.923-30.923 30.923-75.231 0-44.308-30.923-75.231-30.923-30.923-75.231-30.923-44.308 0-75.231 30.923-30.923 30.923-30.923 75.231 0 44.308 30.923 75.231 30.923 30.923 75.231 30.923Zm0 59.999q-69.23 0-117.692-48.461Q487.308-230.77 487.308-300q0-69.23 48.461-117.692 48.462-48.461 117.692-48.461 69.23 0 117.692 48.461Q819.614-369.23 819.614-300q0 25.73-7.577 49.48-7.577 23.751-22.346 44.981l88.846 88.847q8.308 8.308 8.308 20.692t-8.308 20.692q-8.307 8.307-20.948 8.307-12.64 0-20.82-8.307l-88.847-88.462q-21.23 14.769-44.981 22.346-23.75 7.577-49.48 7.577ZM126.924-706.922V-800v93.078Z"/></svg>