<svg xmlns="http://www.w3.org/2000/svg" height="24" viewBox="0 -960 960 960" width="24"><path d="M360-490.001q-12.769 0-21.384-8.615T330.001-520q0-12.769 8.615-21.384T360-549.999h240q12.769 0 21.384 8.615T629.999-520q0 12.769-8.615 21.384T600-490.001H360Zm0-160q-12.769 0-21.384-8.615T330.001-680q0-12.769 8.615-21.384T360-709.999h240q12.769 0 21.384 8.615T629.999-680q0 12.769-8.615 21.384T600-650.001H360ZM240-389.999h300q26.692 0 49.384 11.538 22.692 11.539 38.538 32.615L720-225.845v-561.846q0-5.385-3.462-8.847-3.462-3.462-8.847-3.462H252.309q-5.385 0-8.847 3.462-3.462 3.462-3.462 8.847v397.692ZM252.309-160h442.384l-114-149.154q-7.539-9.924-17.962-15.385-10.423-5.462-22.731-5.462H240v157.692q0 5.385 3.462 8.847 3.462 3.462 8.847 3.462Zm455.382 59.999H252.309q-30.308 0-51.308-21t-21-51.308v-615.382q0-30.308 21-51.308t51.308-21h455.382q30.308 0 51.308 21t21 51.308v615.382q0 30.308-21 51.308t-51.308 21ZM240-160v-640V-160Zm0-170.001v-59.998 59.998Z"/></svg>