<svg xmlns="http://www.w3.org/2000/svg" height="24" viewBox="0 -960 960 960" width="24"><path d="M421.847-480 258.924-642.924q-8.308-8.307-8.5-20.884-.193-12.576 8.5-21.268 8.692-8.693 21.076-8.693t21.076 8.693l179.769 179.769q5.616 5.615 7.923 11.897 2.308 6.282 2.308 13.461 0 7.18-2.308 13.41-2.307 6.231-7.923 11.846L301.076-274.924q-8.307 8.308-20.884 8.5-12.576.193-21.268-8.5-8.693-8.692-8.693-21.076t8.693-21.076L421.847-480Zm258.166-229.999q12.756 0 21.371 8.624 8.615 8.625 8.615 21.375v400q0 12.75-8.628 21.374-8.629 8.625-21.384 8.625-12.756 0-21.371-8.625-8.615-8.624-8.615-21.374v-400q0-12.75 8.628-21.375 8.629-8.624 21.384-8.624Z"/></svg>