<svg xmlns="http://www.w3.org/2000/svg" height="24" viewBox="0 -960 960 960" width="24"><path d="m523.384-782.845 227.692 171.154q13.557 9.942 21.24 25.307 7.683 15.365 7.683 32.538v341.537q0 29.827-21.241 51.067-21.24 21.241-51.067 21.241H252.309q-29.827 0-51.067-21.241-21.241-21.24-21.241-51.067v-341.537q0-17.173 7.683-32.538 7.683-15.365 21.24-25.307l227.692-171.154q18.953-14.461 43.322-14.461 24.369 0 43.446 14.461Zm-43.429 412.844q45.814 0 77.929-32.07t32.115-77.884q0-45.814-32.07-77.929t-77.884-32.115q-45.814 0-77.929 32.07t-32.115 77.884q0 45.814 32.07 77.929t77.884 32.115Zm.045-59.998q-20.846 0-35.424-14.577-14.577-14.578-14.577-35.424t14.577-35.424q14.578-14.577 35.424-14.577t35.424 14.577q14.577 14.578 14.577 35.424t-14.577 35.424Q500.846-429.999 480-429.999Zm-1.029 179.998q-46.125 0-89.741 12.693-43.616 12.692-82.462 37.308h344.541q-38.462-24.616-82.337-37.308-43.876-12.693-90.001-12.693ZM240-553.846v327.693q51.231-40.538 112.106-62.192 60.875-21.654 126.74-21.654 66.54 0 128.039 21.461 61.5 21.462 113.115 62.001v-327.309q0-3.077-1.346-5.577-1.347-2.5-3.654-4.423L487.308-734.615q-3.077-2.692-7.308-2.692t-7.308 2.692L245-563.846q-2.307 1.923-3.654 4.423-1.346 2.5-1.346 5.577ZM480-480Z"/></svg>