<svg xmlns="http://www.w3.org/2000/svg" height="24" viewBox="0 -960 960 960" width="24"><path d="M860-480.07q0 78.84-29.93 148.21-29.92 69.37-81.22 120.68T628.2-129.93Q558.85-100 480-100q-73.69 0-139.5-26.42-65.81-26.43-116.81-72.97-51-46.53-83.07-109.5-32.08-62.96-38.77-136.65-1.23-14.38 7.07-22.19 8.31-7.81 19.47-9.04 11.15-1.23 21.69 5.15 10.54 6.39 11.77 22.39 11.53 124.08 102.8 207.15Q355.92-159 480-159q134 0 227-93t93-227q0-134-93-227t-227-93q-93.23 0-168.04 47.35-74.81 47.34-114.88 124.73h86q12.75 0 21.37 8.63 8.63 8.63 8.63 21.38 0 12.76-8.63 21.37-8.62 8.62-21.37 8.62H136.29q-15.6 0-25.94-10.4Q100-587.71 100-603.08V-750q0-12.75 8.63-21.37 8.63-8.63 21.38-8.63 12.76 0 21.37 8.63Q160-762.75 160-750v69.62q49.23-81.08 133.19-130.35Q377.15-860 480-860q78.85 0 148.2 29.92t120.65 81.21q51.3 51.29 81.22 120.63Q860-558.9 860-480.07ZM400-324.62q-16.02 0-26.86-10.83-10.83-10.84-10.83-26.86v-120q0-16.02 11.5-26.85 11.5-10.84 28.5-10.84v-42.31q0-32.05 22.82-54.87T480-640q32.05 0 54.87 22.82t22.82 54.87V-520q17 0 28.5 10.84 11.5 10.83 11.5 26.85v120q0 16.02-10.83 26.86-10.84 10.83-26.86 10.83H400ZM437.69-520h84.62v-42.16q0-17.92-12.27-30.19T480-604.62q-17.77 0-30.04 12.27t-12.27 30.19V-520Z"/></svg>