<svg xmlns="http://www.w3.org/2000/svg" height="24" viewBox="0 -960 960 960" width="24"><path d="M360-619.999h240v-80q0-50-35-85t-85-35q-50 0-85 35t-35 85v80ZM252.309-100.001q-30.308 0-51.308-21t-21-51.308v-375.382q0-30.308 21-51.308t51.308-21h47.692v-80q0-74.922 52.538-127.46Q405.078-879.997 480-879.997t127.461 52.538q52.538 52.538 52.538 127.46v80h47.692q30.308 0 51.308 21t21 51.308v9.231q0 15-9.423 22.499-9.423 7.5-20.577 7.5-11.153 0-20.576-7.5Q720-523.46 720-538.46v-9.231q0-5.385-3.462-8.847-3.462-3.462-8.847-3.462H252.309q-5.385 0-8.847 3.462-3.462 3.462-3.462 8.847v375.382q0 5.385 3.462 8.847 3.462 3.462 8.847 3.462h210.385q12.769 0 21.384 8.615t8.615 21.384q0 12.769-8.615 21.384-8.615 8.616-21.384 8.616H252.309Zm459.998 32.307q-74.922 0-127.46-52.538t-52.538-127.461q0-74.922 52.538-127.46t127.46-52.538q74.923 0 127.461 52.538t52.538 127.46q0 74.923-52.538 127.461T712.307-67.694Zm17.692-187.23v-92.769q0-7.231-5.23-12.461-5.231-5.231-12.462-5.231t-12.461 5.231q-5.231 5.23-5.231 12.461v92.154q0 7.231 2.615 13.769 2.616 6.539 8.231 12.154l60.385 60.385q5.23 5.23 12.269 5.423 7.038.192 12.654-5.423 5.615-5.616 5.615-12.462t-5.615-12.461l-60.77-60.77ZM240-444.607V-160v-400 115.393Z"/></svg>