<svg xmlns="http://www.w3.org/2000/svg" height="24" viewBox="0 -960 960 960" width="24"><path d="M838.306-391.923 568.077-121.694q-10.901 10.846-24.528 16.27-13.626 5.423-27.183 5.423-13.558 0-27.116-5.423-13.557-5.424-24.403-16.27L121.078-465.078q-10.23-9.846-15.654-23.106-5.423-13.261-5.423-27.893v-271.23q0-29.985 21.193-51.338 21.192-21.354 51.499-21.354h271.23q14.488 0 28.071 5.875 13.583 5.875 23.544 15.818l342.768 343.384q10.997 10.901 16.037 24.527 5.04 13.626 5.04 27.326 0 13.7-5.04 26.943-5.04 13.243-16.037 24.203ZM525.309-163.846l270.229-270.23q3.847-3.846 3.847-9.039t-3.847-9.039l-347.23-347.461H172.693q-5.385 0-9.039 3.461-3.654 3.462-3.654 8.847v270.614q0 2.308.769 4.616.77 2.308 2.693 4.231l343.768 344q3.847 3.846 9.039 3.846 5.193 0 9.04-3.846ZM260.996-648.847q20.927 0 35.542-14.583 14.615-14.583 14.615-35.416 0-20.993-14.583-35.689-14.583-14.695-35.416-14.695-20.993 0-35.689 14.649-14.695 14.649-14.695 35.577 0 20.927 14.649 35.542 14.649 14.615 35.577 14.615Zm219.773 169.616Zm64.923 181.615 105.077-107q9.846-9.846 15.384-23.115 5.538-13.269 5.538-28.73 0-29.769-21.073-51.269t-50.926-21.5q-19.261 0-38.015 10.615-18.754 10.616-41.677 36.616-25.384-27.231-43.139-37.231-17.754-10-36.553-10-29.854 0-50.926 21.5-21.073 21.5-21.073 51.269 0 15.461 5.538 28.73t15.384 23.115l105.077 107Q505.154-286.77 520-286.77t25.692-10.846Z"/></svg>