<svg xmlns="http://www.w3.org/2000/svg" height="24" viewBox="0 -960 960 960" width="24"><path d="M172.309-180.001q-30.308 0-51.308-21t-21-51.308v-455.382q0-30.308 21-51.308t51.308-21h366.539q12.768 0 21.576 8.808 8.807 8.807 8.423 21.576-.385 12.385-9 21T538.848-720H160v467.691q0 5.385 3.462 8.847 3.462 3.462 8.847 3.462h615.382q5.385 0 8.847-3.462 3.462-3.462 3.462-8.847V-520q0-12.769 8.615-21.384t21.384-8.615q12.769 0 21.384 8.615 8.616 8.615 8.616 21.384v267.691q0 30.308-21 51.308t-51.308 21H172.309ZM160-720V-240v-480Zm320 200 130.154-82.693q10.923-7.076 20.538-3.73 9.615 3.346 15.077 12.038 5.461 8.692 4.038 18.615-1.423 9.923-12.346 17l-138.384 88.846q-9.231 5.615-19.077 5.807-9.846.193-19.077-5.423L160-658.078V-720l320 200Zm280-114.615q-45.769 0-77.884-32.115t-32.115-77.884q0-45.769 32.115-77.884 32.115-32.116 77.884-32.116t77.884 32.116q32.115 32.115 32.115 77.884t-32.115 77.884Q805.769-634.615 760-634.615Z"/></svg>