<svg xmlns="http://www.w3.org/2000/svg" height="24" viewBox="0 -960 960 960" width="24"><path d="M480.013-410.001q12.756 0 21.371-8.625 8.615-8.624 8.615-21.374v-200q0-12.75-8.628-21.375-8.629-8.624-21.384-8.624-12.756 0-21.371 8.624-8.615 8.625-8.615 21.375v200q0 12.75 8.628 21.374 8.629 8.625 21.384 8.625Zm120-60q12.756 0 21.371-8.625 8.615-8.624 8.615-21.374v-100q0-12.75-8.628-21.375-8.629-8.624-21.384-8.624-12.756 0-21.371 8.624-8.615 8.625-8.615 21.375v100q0 12.75 8.628 21.374 8.629 8.625 21.384 8.625Zm-240-20q12.756 0 21.371-8.625 8.615-8.624 8.615-21.374v-80q0-12.75-8.628-21.375-8.629-8.624-21.384-8.624-12.756 0-21.371 8.624-8.615 8.625-8.615 21.375v80q0 12.75 8.628 21.374 8.629 8.625 21.384 8.625Zm-100.012 228.77q-57-52-88.5-119.193-31.5-67.192-31.5-139.854 0-141.55 99.167-240.635Q338.334-859.999 480-859.999q116.538 0 208.422 69.654t119.346 180.73l46.736 184.583q4.494 17.108-6.352 31.069-10.846 13.962-28.923 13.962h-79.23v127.692q0 29.827-21.241 51.067-21.24 21.241-51.067 21.241h-87.692v50q0 12.75-8.629 21.375t-21.384 8.625q-12.756 0-21.371-8.625Q520-117.251 520-130.001v-73.655q0-15.652 10.394-25.998Q540.788-240 556.154-240h111.537q5.385 0 8.847-3.462 3.462-3.462 3.462-8.847v-151.537q0-15.366 10.394-25.76Q700.788-440 716.154-440H788l-38-155q-23-91.385-98.385-148.192Q576.231-800 480-800q-116 0-198 81.112t-82 197.273q0 59.901 24.5 113.812 24.5 53.911 69.5 95.842L320-288v157.999q0 12.75-8.629 21.375-8.628 8.625-21.384 8.625-12.755 0-21.37-8.625-8.616-8.625-8.616-21.375v-131.23ZM494-450.001Z"/></svg>