<svg xmlns="http://www.w3.org/2000/svg" height="24" viewBox="0 -960 960 960" width="24"><path d="M438.385-349.309q7.231 0 13.462-2.615t11.846-8.231l119.769-120.769q8.307-8.307 8.807-20.576t-8.807-21.576q-8.692-8.693-21.077-8.693-12.384 0-21.076 8.693L438.385-419.384 325.768-530.77h45.387q12.769 0 21.384-8.615t8.615-21.384q0-12.769-8.615-21.384-8.615-8.616-21.384-8.616H257.309q-15.461 0-25.808 10.347-10.346 10.346-10.346 25.807v113.846q0 12.769 8.616 21.384 8.615 8.615 21.384 8.615t21.384-8.615q8.615-8.615 8.615-21.384v-50.31l131.924 131.924q5.615 5.616 11.846 7.731t13.461 2.115Zm-256.46 169.308q-30.308 0-51.308-21-20.999-21-20.999-51.308v-455.382q0-30.308 20.999-51.308 21-21 51.308-21h455.382q30.308 0 51.308 21t21 51.308v183.077L819.46-634.459q8.846-8.846 19.884-4.423t11.038 16.884v283.996q0 12.461-11.038 16.884t-19.884-4.423L709.615-435.386v183.077q0 30.308-21 51.308t-51.308 21H181.925Zm0-59.999h455.382q5.386 0 8.847-3.462 3.462-3.462 3.462-8.847v-455.382q0-5.385-3.462-8.847-3.461-3.462-8.847-3.462H181.925q-5.385 0-8.847 3.462-3.462 3.462-3.462 8.847v455.382q0 5.385 3.462 8.847Q176.54-240 181.925-240Zm-12.309 0v-480 480Z"/></svg>