<svg xmlns="http://www.w3.org/2000/svg" height="24" viewBox="0 -960 960 960" width="24"><path d="M805.847-59.846 55.231-810.463q-8.308-8.307-8.5-20.884-.192-12.577 8.5-21.269 8.692-8.692 21.076-8.692t21.076 8.692L848-101.999q8.307 8.307 8.5 20.884.192 12.576-8.5 21.269-8.692 8.692-21.076 8.692-12.385 0-21.077-8.692ZM220.001-687.23 280-627.231v397.232h390.539l69.46 69.459v28.231q0 29.827-21.241 51.067-21.24 21.24-51.067 21.24H292.309q-29.827 0-51.067-21.24-21.241-21.24-21.241-51.067V-687.23ZM280-170.001v37.692q0 5.385 3.462 8.847 3.462 3.462 8.847 3.462h375.382q5.385 0 8.847-3.462 3.462-3.462 3.462-8.847v-37.692H280Zm0 0V-120v-50.001Zm60.537-560q-12.641 0-20.82-8.628-8.179-8.629-8.179-21.384 0-12.756 8.625-21.371 8.624-8.615 21.374-8.615H680v-37.692q0-5.385-3.462-8.847-3.462-3.462-8.847-3.462h-397.69q-12.75 0-21.375-8.629-8.625-8.628-8.625-21.384 0-12.755 8.625-21.37 8.625-8.616 21.375-8.616h397.69q30.308 0 51.308 21t21 51.308v459.998q0 12.75-8.629 21.375-8.629 8.624-21.384 8.624-12.756 0-21.371-8.624Q680-354.943 680-367.693v-362.308H340.537Zm119.925-59.998Z"/></svg>