<svg xmlns="http://www.w3.org/2000/svg" height="24" viewBox="0 -960 960 960" width="24"><path d="M471.922-124.694q-11.692 0-23.384-4.038t-21.153-12.5q-53.846-49.614-100.769-101.999-46.922-52.384-81.576-105.115-34.654-52.73-54.847-104.154-20.192-51.423-20.192-99.5 0-145.384 93.615-231.692Q357.231-869.999 480-869.999q128.539 0 222.154 91.308 93.615 91.307 87.845 250.924l73.309-73.309q8.308-8.308 20.692-8.308t20.692 8.308q8.307 8.307 8.307 20.884 0 12.576-8.307 20.884L785.307-439.539Q774.461-428.693 760-428.693q-14.461 0-25.307-10.846L614.924-559.308q-8.308-8.308-8.116-20.884.193-12.577 8.5-20.884 8.308-8.308 20.884-8.308 12.577 0 20.884 8.308l72.925 73.309q5.769-127.079-66.423-204.656Q591.385-810.001 480-810.001q-105.231 0-177.616 72.193Q229.999-665.616 229.999-552q0 72.923 61.308 167.885Q352.615-289.153 480-172.537q20-18 42.193-39.809 22.192-21.808 39.192-38.808-6.923-11.153-10.307-23.615-3.385-12.462-3.385-25.231 0-38.538 26.884-65.423 26.885-26.884 65.423-26.884t65.423 26.884q26.884 26.885 26.884 65.423t-26.884 65.423Q678.538-207.693 640-207.693q-8.769 0-17-1.385-8.231-1.384-15.616-4.538-14.615 15.615-34.269 32.346-19.654 16.731-56.27 39.654-9.461 8.461-21.346 12.692-11.884 4.23-23.577 4.23Z"/></svg>