<svg xmlns="http://www.w3.org/2000/svg" height="24" viewBox="0 -960 960 960" width="24"><path d="M322.308-260.001q-30.308 0-51.307-21-21-21-21-51.308v-40q0-12.769 8.615-21.384T280-402.308q12.769 0 21.384 8.615t8.615 21.384v40q0 4.616 3.847 8.463 3.846 3.846 8.462 3.846h455.383q4.615 0 8.462-3.846 3.846-3.847 3.846-8.463V-720h-480v52.309q0 12.769-8.615 21.384T280-637.692q-12.769 0-21.384-8.615t-8.615-21.384v-120q0-30.308 21-51.308 20.999-21 51.307-21h455.383q30.307 0 51.307 21 21 21 21 51.308v455.382q0 30.308-21 51.308t-51.307 21H322.308ZM182.309-120.003q-30.307 0-51.307-21-21-21-21-51.307v-485.382q0-12.769 8.615-21.384 8.616-8.615 21.384-8.615 12.769 0 21.385 8.615 8.615 8.615 8.615 21.384v485.382q0 4.616 3.846 8.462 3.847 3.847 8.462 3.847h485.382q12.769 0 21.385 8.615 8.615 8.615 8.615 21.384t-8.615 21.384q-8.616 8.615-21.385 8.615H182.309Zm364.692-369.998H280q-12.769 0-21.384-8.615T250.001-520q0-12.769 8.615-21.384T280-549.999h267.001l-60.232-61.002q-8.308-8.308-8.115-20.577.192-12.268 9.115-21.191 8.307-8.308 20.884-8.308t20.884 8.308l107.077 107.462Q647.46-534.461 647.46-520q0 14.461-10.846 25.307L529.152-387.231q-8.307 8.308-20.576 8.423-12.269.115-21.192-8.807-8.307-8.308-8.307-20.692t8.307-20.692l59.617-61.002Z"/></svg>