<svg xmlns="http://www.w3.org/2000/svg" height="24" viewBox="0 -960 960 960" width="24"><path d="M368.462-180.001H212.309q-30.308 0-51.308-21t-21-51.308v-535.382q0-30.308 21-51.308t51.308-21h535.382q30.308 0 51.308 21t21 51.308v535.382q0 30.308-21 51.308t-51.308 21H591.538l-86.231 86.23Q494.461-82.925 480-82.925q-14.461 0-25.307-10.846l-86.231-86.23ZM212.309-240h180.46L480-152.769 567.231-240h180.46q5.385 0 8.847-3.462 3.462-3.462 3.462-8.847v-535.382q0-5.385-3.462-8.847-3.462-3.462-8.847-3.462H212.309q-5.385 0-8.847 3.462-3.462 3.462-3.462 8.847v535.382q0 5.385 3.462 8.847 3.462 3.462 8.847 3.462ZM480-520Zm0 189.999q81.769 0 135.884-57.115Q669.999-444.231 669.999-520v-153.846q0-15.461-10.346-25.807-10.346-10.346-25.807-10.346H480q-76.769 0-133.384 54.115Q290.001-601.769 290.001-520q0 28.461 9.077 55.846 9.077 27.385 25.615 52.693l-21.769 21.385q-9.308 9.307-9.308 21.076t9.308 21.076q9.307 9.308 20.768 8.808 11.462-.5 21.384-9.192l21.155-19.385q24.384 18.154 53.846 27.923 29.462 9.769 59.923 9.769Zm0-59.998q-18.846 0-36.962-6.116-18.116-6.115-32.424-16.346l112.462-112.463q9.308-9.307 9.308-21.576t-9.308-21.576q-9.307-9.308-21.076-9.308t-21.076 9.308L368.077-455.23q-7.308-13.692-12.693-31T349.999-520q0-56.231 38.885-93.116T480-650.001h130.001V-520q0 53.846-38.077 91.924-38.078 38.077-91.924 38.077Zm-23.693-111.308Z"/></svg>