<svg xmlns="http://www.w3.org/2000/svg" height="24" viewBox="0 -960 960 960" width="24"><path d="M380-90q-54.154 0-92.076-37.924-37.923-37.922-37.923-92.076v-577.692q0-29.923 21.192-51.115 21.192-21.192 51.115-21.192h115.384q29.923 0 51.115 21.192 21.192 21.192 21.192 51.115V-220q0 54.154-37.923 92.076Q434.154-90.001 380-90.001Zm-70.001-236.383q16.308-12.385 33.501-18.001 17.192-5.615 36.5-5.615t36.5 5.615q17.193 5.616 33.501 18.001v-471.309q0-5.385-3.462-8.847-3.462-3.462-8.847-3.462H322.308q-5.385 0-8.847 3.462-3.462 3.462-3.462 8.847v471.309ZM380-149.999q28.846 0 49.424-20.577 20.577-20.578 20.577-49.424t-20.577-49.424Q408.846-290.001 380-290.001t-49.424 20.577Q309.999-248.846 309.999-220t20.577 49.424q20.578 20.577 49.424 20.577Zm302.308-100.002q-29.923 0-51.115-21.192-21.192-21.192-21.192-51.115v-315.384q0-29.923 21.192-51.115 21.192-21.192 51.115-21.192h35.384q29.923 0 51.115 21.192 21.192 21.192 21.192 51.115v315.384q0 29.923-21.192 51.115-21.192 21.192-51.115 21.192h-35.384Zm0-59.998h35.384q5.385 0 8.847-3.462 3.462-3.462 3.462-8.847v-315.384q0-5.385-3.462-8.847-3.462-3.462-8.847-3.462h-35.384q-5.385 0-8.847 3.462-3.462 3.462-3.462 8.847v315.384q0 5.385 3.462 8.847 3.462 3.462 8.847 3.462ZM309.999-810.001H450.001 309.999Zm372.309 500.002h-12.309 60.002-47.693Z"/></svg>