<svg xmlns="http://www.w3.org/2000/svg" height="24" viewBox="0 -960 960 960" width="24"><path d="M812.307-460.771q-19.615 0-33.653-14.038t-14.038-33.653v-223.845q0-19.615 14.038-33.653 14.038-14.039 33.653-14.039t33.653 14.039q14.039 14.038 14.039 33.653v223.845q0 19.615-14.039 33.653-14.038 14.038-33.653 14.038Zm-505.153 320.77q-12.769 0-23.499-4.962-10.731-4.961-19.423-13.653L96.848-326.846q-10.23-10.847-10.23-25.308t10.23-25.307l17.615-18.23q10.153-10.154 22.961-14.615 12.807-4.462 26.422-1.231l101.925 22.154V-740q0-33.538 23.23-56.768 23.231-23.231 56.769-23.231 33.537 0 56.768 23.231 23.23 23.23 23.23 56.768v192.309h32.154q4.616 0 8.424 1 3.807 1 8.038 3l140.845 61.999q26.308 12.154 38.308 39.039t6.615 55.577L626.23-189.693q-3.846 21.692-20.577 35.692-16.73 14-38.807 14H307.154ZM307.77-200h259.076l33.923-197.999q1.539-8.077-.961-16.924-2.501-8.847-11.347-13.078L435.77-495.693h-70V-740q0-9-5.5-14.5t-14.5-5.5q-9 0-14.5 5.5t-5.5 14.5v424l-169.308-36.154L307.77-200Zm0 0h257.923H307.77Z"/></svg>