<svg xmlns="http://www.w3.org/2000/svg" height="24" viewBox="0 -960 960 960" width="24"><path d="M480-100.001q-51.539 0-94.423-11.424-42.885-11.423-81.424-32.269-12.153-6.462-16.615-19.115-4.461-12.654 1.616-23.807 6.076-11.154 19.038-13.5 12.961-2.346 25.114 3.5Q366.384-179 402.999-169.5 439.615-160 480-160q40.385 0 77.001-9.5 36.615-9.5 69.693-27.116 12.153-5.846 25.114-3.5 12.962 2.346 19.038 13.5 6.077 11.153 1.616 23.807-4.462 12.653-16.615 19.115-38.539 20.846-81.424 32.269-42.884 11.424-94.423 11.424ZM160-480q0 40.385 9.5 77.001 9.5 36.615 27.116 69.693 5.846 12.153 3.5 25.114-2.346 12.962-13.5 19.038-11.153 6.077-23.807 1.616-12.653-4.462-19.115-16.615-20.846-38.539-32.269-81.424-11.424-42.884-11.424-94.423t11.424-94.423q11.423-42.885 32.269-81.424 6.462-12.153 19.115-16.615 12.654-4.461 23.807 1.616 11.154 6.076 13.5 19.038 2.346 12.961-3.5 25.114Q179-593.616 169.5-557.001 160-520.385 160-480Zm640 0q0-40.385-9.5-77.001-9.5-36.615-27.116-69.693-5.846-12.153-3.5-25.114 2.346-12.962 13.5-19.038 11.153-6.077 23.807-1.616 12.653 4.462 19.115 16.615 20.846 38.539 32.269 81.424 11.424 42.884 11.424 94.423t-11.424 94.423q-11.423 42.885-32.269 81.424-6.462 12.153-19.115 16.615-12.654 4.461-23.807-1.616-11.154-6.076-13.5-19.038-2.346-12.961 3.5-25.114Q781-366.384 790.5-402.999 800-439.615 800-480ZM480-800q-40.385 0-77.001 9.5-36.615 9.5-69.693 27.116-12.153 5.846-24.922 3.5t-18.846-13.5q-6.077-11.153-1.615-23.807 4.461-12.653 16.615-19.115 38.923-20.846 81.616-32.269 42.692-11.424 93.846-11.424 51.539 0 94.423 11.424 42.885 11.423 81.424 32.269 12.153 6.462 16.615 19.115 4.461 12.654-1.616 23.807-6.076 11.154-19.038 13.5-12.961 2.346-25.114-3.5Q593.616-781 557.001-790.5 520.385-800 480-800Zm39 549.999q-36.307 0-64.615-22.269-28.307-22.269-41.154-57.192-3.769-9.154-7.461-17.423-3.692-8.269-10.462-15.039l-50.384-51q-24.846-24.846-39.885-57.115-15.038-32.269-15.038-67.961 0-71.154 49.615-121.576Q389.231-709.999 460-709.999q49.307 0 90.307 25.961 41 25.962 62.846 70.269 7.692 15-1.115 29.384-8.808 14.384-26.038 14.384-9.307 0-16.307-4.961-7-4.962-10.846-13.269-14.154-28.693-40.654-45.231-26.5-16.539-58.193-16.539-46.231 0-78.116 31.885-31.885 31.885-31.885 78.116 0 22.923 8.27 43.846 8.269 20.924 24.807 37.462l55 53.616q12.846 12.846 20.77 28.769 7.923 15.923 13.538 32.769 5.769 15.077 18.654 24.308T520-309.999q13.693 0 25.693-6.847 12-6.846 18.154-19.538 3.846-6.692 10.538-10.154 6.692-3.461 14.615-3.461 17.23 0 26.346 14.192 9.115 14.192.807 29.191-14.846 26.692-40.846 41.654-26 14.961-56.307 14.961Zm21-160q20.769 0 35.384-14.615 14.615-14.615 14.615-35.384t-14.615-35.384Q560.769-509.999 540-509.999t-35.384 14.615Q490.001-480.769 490.001-460t14.615 35.384q14.615 14.615 35.384 14.615Z"/></svg>