<svg xmlns="http://www.w3.org/2000/svg" height="24" viewBox="0 -960 960 960" width="24"><path d="M172.309-180.001q-30.308 0-51.308-21t-21-51.308v-455.382q0-30.308 21-51.308t51.308-21h615.382q30.308 0 51.308 21t21 51.308v455.382q0 30.308-21 51.308t-51.308 21h-3.692q-20.999 0-38.153-7.27-17.153-7.269-31.076-21.192L552.923-370.309q-19.846 15.154-43.385 22.731Q486-340.001 460-340.001q-66.538 0-113.268-46.731-46.731-46.73-46.731-113.268 0-66.538 46.731-113.268 46.73-46.731 113.268-46.731 66.538 0 113.268 46.731 46.731 46.73 46.731 113.268 0 24.307-5.847 45.23-5.846 20.923-19.846 41.539L767.538-240h20.153q4.616 0 8.463-3.846 3.846-3.847 3.846-8.463v-455.382q0-4.616-3.846-8.463-3.847-3.846-8.463-3.846H172.309q-4.616 0-8.463 3.846-3.846 3.847-3.846 8.463v455.382q0 4.616 3.846 8.463 3.847 3.846 8.463 3.846h384.154q15 0 22.5 9.423t7.5 20.576q0 11.154-7.5 20.577-7.5 9.423-22.5 9.423H172.309ZM460-400q42 0 71-29t29-71q0-42-29-71t-71-29q-42 0-71 29t-29 71q0 42 29 71t71 29ZM160-240v-480 480Z"/></svg>