<svg xmlns="http://www.w3.org/2000/svg" height="24" viewBox="0 -960 960 960" width="24"><path d="M422.308-166.924h115.384q7.231 0 12.462-5.23 5.23-5.231 5.23-12.462 0-7.23-5.23-12.461-5.231-5.231-12.462-5.231H422.308q-7.231 0-12.462 5.231-5.23 5.231-5.23 12.461 0 7.231 5.23 12.462 5.231 5.23 12.462 5.23ZM292.309-60.001q-30.308 0-51.308-21t-21-51.308v-695.382q0-30.308 21-51.308t51.308-21h375.382q30.308 0 51.308 21t21 51.308v695.382q0 30.308-21 51.308t-51.308 21H292.309ZM280-249.231v116.922q0 4.616 3.846 8.463 3.847 3.846 8.463 3.846h375.382q4.616 0 8.463-3.846 3.846-3.847 3.846-8.463v-116.922H280Zm0-59.999h400v-420.771H280v420.771Zm0-480.769h400v-37.692q0-4.616-3.846-8.463-3.847-3.846-8.463-3.846H292.309q-4.616 0-8.463 3.846-3.846 3.847-3.846 8.463v37.692Zm0 540.768V-120v-129.231Zm0-540.768V-840v50.001Z"/></svg>