<svg xmlns="http://www.w3.org/2000/svg" height="24" viewBox="0 -960 960 960" width="24"><path d="M212.31-140Q182-140 161-161q-21-21-21-51.31v-535.38Q140-778 161-799q21-21 51.31-21h336.15q12.77 0 21.39 8.62 8.61 8.61 8.61 21.38t-8.61 21.38q-8.62 8.62-21.39 8.62H212.31q-4.62 0-8.46 3.85-3.85 3.84-3.85 8.46v535.38q0 4.62 3.85 8.46 3.84 3.85 8.46 3.85h535.38q4.62 0 8.46-3.85 3.85-3.84 3.85-8.46v-336.15q0-12.77 8.62-21.39 8.61-8.61 21.38-8.61t21.38 8.61q8.62 8.62 8.62 21.39v336.15Q820-182 799-161q-21 21-51.31 21H212.31Zm222.31-294.62-81.93-37.15q-5.61-2.61-5.61-8.23 0-5.62 5.61-8.23l81.93-37.15 37.15-81.93q2.61-5.61 8.23-5.61 5.62 0 8.23 5.61l37.15 81.93 81.93 37.15q5.61 2.61 5.61 8.23 0 5.62-5.61 8.23l-81.93 37.15-37.15 81.93q-2.61 5.61-8.23 5.61-5.62 0-8.23-5.61l-37.15-81.93Zm214.3-213.92-55.07-25.92q-5.62-2.62-5.62-8.23 0-5.62 5.62-8.23l55.07-25.93 25.93-55.07q2.61-5.62 8.23-5.62 5.61 0 8.23 5.62l25.92 55.07 55.08 25.93q5.61 2.61 5.61 8.23 0 5.61-5.61 8.23l-55.08 25.92-25.92 55.08q-2.62 5.61-8.23 5.61-5.62 0-8.23-5.61l-25.93-55.08Z"/></svg>