<svg xmlns="http://www.w3.org/2000/svg" height="24" viewBox="0 -960 960 960" width="24"><path d="M345-140.001q-85.538 0-145.268-59.731-59.731-59.73-59.731-145.268 0-41.154 15.654-78.692 15.654-37.538 44.577-66.461l269.615-269.615q28.923-28.923 66.461-44.577T615-819.999q85.538 0 145.268 59.731 59.731 59.73 59.731 145.268 0 41.154-15.654 78.692-15.654 37.538-44.577 66.461L490.153-200.232q-28.923 28.923-66.461 44.577T345-140.001Zm259.076-259.075L718-512q20-20 31-47t11-56q0-60-42.5-102.5T615-760q-29 0-56 11t-47 31L399.076-604.076l205 205ZM345-200q29 0 56-11t47-31l112.924-113.924-205-205L242-448q-20 20-31 47t-11 56q0 60 42.5 102.5T345-200Z"/></svg>