<svg xmlns="http://www.w3.org/2000/svg" height="24" viewBox="0 -960 960 960" width="24"><path d="m669.23-627.46-87.92 87.92q-8.31 8.31-20.7 8.12-12.38-.19-20.69-8.5t-8.31-20.95q0-12.64 8.31-20.82l87.54-87.54-87.92-87.92q-8.31-8.18-8.31-20.82t8.31-21.14q8.31-8.5 21.07-8.31 12.77.19 21.08 8.5l87.54 87.54 87.54-87.54q8.31-8.31 21.08-8.5 12.76-.19 21.07 8.31t8.12 21.26q-.2 12.77-8.5 21.08L711-669.23l87.92 87.92q8.31 8.31 8.31 20.7 0 12.38-8.31 20.69t-20.95 8.31q-12.64 0-20.82-8.31l-87.92-87.54ZM290.39-519.23q-62.54 0-106.47-43.92Q140-607.08 140-669.45q0-63.32 43.92-106.93Q227.85-820 290.39-820q62.53 0 106.46 43.92 43.92 43.93 43.92 106.47 0 62.53-43.92 106.46-43.93 43.92-106.46 43.92Zm0-60q37.61 0 64-26.38 26.38-26.39 26.38-64 0-37.62-26.38-64.01Q328-760 290.39-760q-37.62 0-64.01 26.38Q200-707.23 200-669.61q0 37.61 26.38 64 26.39 26.38 64.01 26.38Zm0 330.61-87.93 87.93q-8.31 8.3-20.69 8.11-12.38-.19-20.69-8.5t-8.31-20.95q0-12.64 8.31-20.82l87.54-87.54-87.93-87.92q-8.3-8.18-8.3-20.82t8.3-21.14q8.31-8.5 21.08-8.31 12.77.19 21.08 8.5l87.54 87.54 87.53-87.54q8.31-8.31 21.08-8.5 12.77-.19 21.08 8.31 8.31 8.5 8.11 21.27-.19 12.77-8.5 21.08l-87.54 87.53 87.93 87.93q8.31 8.31 8.31 20.69t-8.31 20.69q-8.31 8.31-20.95 8.31-12.64 0-20.82-8.31l-87.92-87.54ZM669.23-140q-62.54 0-106.46-43.92-43.92-43.93-43.92-106.47 0-62.53 43.92-106.46 43.92-43.92 106.46-43.92 62.54 0 106.46 43.71 43.92 43.7 43.92 106.67 0 62.54-43.92 106.47Q731.77-140 669.23-140Zm0-60q37.62 0 64-26.38 26.39-26.39 26.39-64.01 0-37.61-26.39-64-26.38-26.38-64-26.38-37.62 0-64 26.38-26.39 26.39-26.39 64 0 37.62 26.39 64.01 26.38 26.38 64 26.38ZM290.39-669.61Zm378.84 379.22Z"/></svg>