<svg xmlns="http://www.w3.org/2000/svg" height="24" viewBox="0 -960 960 960" width="24"><path d="m718-251.768 120.308-120.308q8.212-8.308 20.529-8.308t21.239 8.308q9.308 8.922 9.116 21.384-.193 12.461-9.116 21.384L743.307-192.539Q732.461-181.693 718-181.693q-14.461 0-25.307-10.846l-52.769-52.385q-9.308-8.957-9.308-20.901 0-11.944 9.308-21.335 9.307-8.609 21.076-8.609t21.076 8.693L718-251.768ZM171.539-567.693h616.922-616.922Zm-59.998 40q0-42.499 29.038-71.249 29.038-28.749 70.96-28.749h536.922q42.499 0 71.249 28.749 28.749 28.75 28.749 71.249v11.155q0 12.749-8.656 21.374-8.657 8.625-21.453 8.625-12.044 0-20.966-8.625-8.923-8.625-8.923-21.374v-11.155q0-17-11.5-28.5t-28.5-11.5H211.539q-17 0-28.5 11.5t-11.5 28.5v155.384q0 5.385 3.462 8.847 3.462 3.462 8.847 3.462h76.153q0-29.154 20.789-49.961 20.788-20.808 49.98-20.808h198.077q12.749 0 21.374 8.629 8.625 8.629 8.625 21.384 0 12.756-8.625 21.371-8.625 8.615-21.374 8.615H332.309q-5.385 0-8.847 3.462-3.462 3.462-3.462 8.847v146.152q0 5.385 3.462 8.847 3.462 3.462 8.847 3.462h196.538q12.749 0 21.374 8.629 8.625 8.628 8.625 21.384 0 12.755-8.625 21.37-8.625 8.616-21.374 8.616H332.309q-29.827 0-51.067-21.241-21.241-21.24-21.241-51.067v-87.692h-76.153q-29.827 0-51.067-21.241-21.24-21.24-21.24-51.067v-155.384Zm148.46-99.998v-107.692q0-29.826 21.241-51.067 21.24-21.24 51.067-21.24h295.382q29.827 0 51.067 21.24 21.241 21.241 21.241 51.067v107.692H640v-107.692q0-5.385-3.462-8.847-3.462-3.461-8.847-3.461H332.309q-5.385 0-8.847 3.461-3.462 3.462-3.462 8.847v107.692h-59.999Z"/></svg>