<svg xmlns="http://www.w3.org/2000/svg" height="24" viewBox="0 -960 960 960" width="24"><path d="M260.001-261.231q-57-52-88.5-119.193-31.5-67.192-31.5-139.854 0-141.55 99.167-240.635Q338.334-859.999 480-859.999q116.538 0 208.422 69.654t119.346 180.73l46.736 184.583q4.494 17.108-6.352 31.069-10.846 13.962-28.923 13.962h-79.23v127.692q0 29.827-21.241 51.067-21.24 21.241-51.067 21.241h-87.692v50q0 12.75-8.629 21.375t-21.384 8.625q-12.756 0-21.371-8.625Q520-117.251 520-130.001v-73.655q0-15.652 10.394-25.998Q540.788-240 556.154-240h111.537q5.385 0 8.847-3.462 3.462-3.462 3.462-8.847v-151.537q0-15.366 10.394-25.76Q700.788-440 716.154-440H788l-38-155q-23-91.385-98.385-148.192Q576.231-800 480-800q-116 0-198 81.112t-82 197.273q0 59.901 24.5 113.812 24.5 53.911 69.5 95.842L320-288v157.999q0 12.75-8.629 21.375-8.628 8.625-21.384 8.625-12.755 0-21.37-8.625-8.616-8.625-8.616-21.375v-131.23ZM494-450.001Zm-17.86 126.155q14.706 0 24.667-9.948 9.962-9.948 9.962-24.654t-9.948-24.667q-9.948-9.961-24.654-9.961t-24.667 9.948q-9.961 9.947-9.961 24.653t9.948 24.667q9.947 9.962 24.653 9.962Zm2.976-333q24.73 0 40.961 13.718 16.231 13.717 16.231 35.437 0 15.863-8.5 30.239-8.5 14.376-34.269 41.145-17.846 18.846-26.731 34.923-8.885 16.077-11.885 34.923-1.615 9.308 5.131 16.577 6.745 7.269 17.062 7.269 8.73 0 16.114-5.961 7.385-5.962 10-16.269 3-12.385 10.269-24.654 7.27-12.27 21.654-28.039 30.077-33.077 40.077-50.884 10-17.808 10-39.269 0-40.077-30.192-67.346-30.192-27.269-75.884-27.269-30.064 0-56.84 14.346-26.775 14.346-43.006 39.807-4.846 8.077-.692 16.769 4.153 8.692 12.845 12.538 8.693 3.846 17.077 1.308 8.384-2.538 14.846-11.231 10.769-13.538 25.382-20.807 14.613-7.27 30.35-7.27Z"/></svg>