<svg xmlns="http://www.w3.org/2000/svg" height="24" viewBox="0 -960 960 960" width="24"><path d="M129.987-679.231q-12.755 0-21.37-8.624-8.616-8.625-8.616-21.375v-114.615q0-15.365 10.395-25.759 10.394-10.395 25.759-10.395H250.77q12.75 0 21.375 8.629 8.624 8.629 8.624 21.384 0 12.756-8.624 21.371Q263.52-800 250.77-800H160v90.77q0 12.75-8.629 21.375-8.628 8.624-21.384 8.624Zm6.168 579.23q-15.365 0-25.759-10.395-10.395-10.394-10.395-25.759V-250.77q0-12.75 8.629-21.375 8.629-8.624 21.384-8.624 12.756 0 21.371 8.624Q160-263.52 160-250.77V-160h90.77q12.75 0 21.375 8.629 8.624 8.628 8.624 21.384 0 12.755-8.624 21.37-8.625 8.616-21.375 8.616H136.155Zm573.075 0q-12.75 0-21.375-8.629-8.624-8.629-8.624-21.384 0-12.756 8.624-21.371Q696.48-160 709.23-160H800v-90.77q0-12.75 8.629-21.375 8.628-8.624 21.384-8.624 12.755 0 21.37 8.624 8.616 8.625 8.616 21.375v114.615q0 15.365-10.395 25.759-10.394 10.395-25.759 10.395H709.23Zm120.756-579.23q-12.756 0-21.371-8.624Q800-696.48 800-709.23V-800h-90.77q-12.75 0-21.375-8.629-8.624-8.628-8.624-21.384 0-12.755 8.624-21.37 8.625-8.616 21.375-8.616h114.615q15.365 0 25.759 10.395 10.395 10.394 10.395 25.759v114.615q0 12.75-8.629 21.375-8.629 8.624-21.384 8.624ZM688.845-216.924v-54.231h54.231v54.231h-54.231Zm0-108.461v-54.23h54.231v54.23h-54.231Zm-54.23 54.23v-54.23h54.23v54.23h-54.23Zm-54.23 54.231v-54.231h54.23v54.231h-54.23Zm-54.231-54.231v-54.23h54.231v54.23h-54.231Zm108.461-108.46v-54.231h54.23v54.231h-54.23Zm-54.23 54.23v-54.23h54.23v54.23h-54.23Zm-54.231-54.23v-54.231h54.231v54.231h-54.231Zm36.065-146.539q-15.373 0-25.719-10.4-10.346-10.399-10.346-25.772v-144.685q0-15.373 10.4-25.719 10.399-10.346 25.772-10.346h144.685q15.373 0 25.719 10.4 10.346 10.399 10.346 25.772v144.685q0 15.373-10.4 25.719-10.399 10.346-25.772 10.346H562.219Zm-309.23 309.23q-15.373 0-25.719-10.4-10.346-10.399-10.346-25.772v-144.685q0-15.373 10.4-25.719 10.399-10.346 25.772-10.346h144.685q15.373 0 25.719 10.4 10.346 10.399 10.346 25.772v144.685q0 15.373-10.4 25.719-10.399 10.346-25.772 10.346H252.989Zm0-309.23q-15.373 0-25.719-10.4-10.346-10.399-10.346-25.772v-144.685q0-15.373 10.4-25.719 10.399-10.346 25.772-10.346h144.685q15.373 0 25.719 10.4 10.346 10.399 10.346 25.772v144.685q0 15.373-10.4 25.719-10.399 10.346-25.772 10.346H252.989Zm11.627 261.538h121.538v-121.538H264.616v121.538Zm0-309.23h121.538v-121.538H264.616v121.538Zm309.23 0h121.538v-121.538H573.846v121.538Z"/></svg>