<svg xmlns="http://www.w3.org/2000/svg" height="24" viewBox="0 -960 960 960" width="24"><path d="M709.999-470.769V-760q0-12.75 8.629-21.375 8.629-8.624 21.384-8.624t21.371 8.624q8.615 8.625 8.615 21.375v289.231q0 12.75-8.629 21.375t-21.384 8.625q-12.755 0-21.371-8.625-8.615-8.625-8.615-21.375ZM190.002-195.384V-760q0-12.75 8.629-21.375 8.629-8.624 21.384-8.624t21.371 8.624q8.615 8.625 8.615 21.375v564.616q0 12.749-8.629 21.374-8.629 8.625-21.384 8.625t-21.371-8.625q-8.615-8.625-8.615-21.374Zm259.999-480V-760q0-12.75 8.628-21.375 8.629-8.624 21.384-8.624 12.756 0 21.371 8.624 8.615 8.625 8.615 21.375v84.616q0 12.749-8.628 21.374-8.629 8.625-21.384 8.625-12.756 0-21.371-8.625-8.615-8.625-8.615-21.374Zm0 240V-520q0-12.75 8.628-21.375 8.629-8.624 21.384-8.624 12.756 0 21.371 8.624 8.615 8.625 8.615 21.375v84.616q0 12.749-8.628 21.374-8.629 8.625-21.384 8.625-12.756 0-21.371-8.625-8.615-8.625-8.615-21.374Zm0 240V-280q0-12.75 8.628-21.374 8.629-8.625 21.384-8.625 12.756 0 21.371 8.625 8.615 8.624 8.615 21.374v84.616q0 12.749-8.628 21.374-8.629 8.625-21.384 8.625-12.756 0-21.371-8.625-8.615-8.625-8.615-21.374Zm289.151 21.153-63.923 63.923q-8.923 8.923-21.077 8.808-12.153-.116-21.076-9.423-8.307-8.923-8.423-21.077-.115-12.153 8.808-21.076L697-216.615l-63.309-63.308q-8.922-9.026-8.922-21.436t8.922-21.332q9.308-9.308 21.385-9.308 12.076 0 21.384 9.308l62.923 63.923 63.924-63.923q8.923-8.923 20.884-8.808 11.961.115 21.352 9.423 8.609 9.307 8.916 21.076.308 11.769-8.999 21.077l-63.539 63.539 63.539 64.539q8.307 8.307 8.499 20.268.193 11.962-8.499 21.353-8.693 8.608-21.077 8.608-12.384 0-21.076-8.692l-64.155-63.923Z"/></svg>