<svg xmlns="http://www.w3.org/2000/svg" height="24" viewBox="0 -960 960 960" width="24"><path d="m480-467.154 71.384 43.307q9.846 6.231 19.692-.692t7.231-18.769l-18.846-81.231 63.384-54.768q9.231-8.231 5.616-19.385-3.616-11.154-16.077-12.154l-83.23-7-32.693-76.615q-4.615-10.846-16.461-10.846-11.846 0-16.461 10.846l-32.693 76.615-83.23 7q-12.461 1-16.077 12.154-3.615 11.154 5.616 19.385l63.384 54.768-18.846 81.231q-2.615 11.846 7.231 18.769 9.846 6.923 19.692.692L480-467.154ZM241.539-260.001l-80.076 80.076q-17.077 17.076-39.269 7.73-22.193-9.346-22.193-33.653v-581.843q0-30.308 21-51.308t51.308-21h615.382q30.308 0 51.308 21t21 51.308v455.382q0 30.308-21 51.308t-51.308 21H241.539ZM216.001-320h571.69q4.616 0 8.463-3.846 3.846-3.847 3.846-8.463v-455.382q0-4.616-3.846-8.463-3.847-3.846-8.463-3.846H172.309q-4.616 0-8.463 3.846-3.846 3.847-3.846 8.463v523.076L216.001-320ZM160-320v-480V-320Z"/></svg>