<svg xmlns="http://www.w3.org/2000/svg" height="24" viewBox="0 -960 960 960" width="24"><path d="M292.078-485.999q16.307-32.615 34.769-62.846 18.462-30.231 40.693-59.693l-58.692-11.769q-3.078-.77-5.962.192-2.885.961-5.193 3.269l-90.539 90.539q-1.154 1.154-.769 2.693.384 1.538 1.923 2.308l83.77 35.307Zm470.076-286.923q-81.155 4.307-156.039 40.807-74.885 36.5-138.346 99.961Q424.615-589 391.615-541q-33 48-51.693 92.693l113.616 113Q498.23-354 546.423-387q48.192-33 91.346-76.154 63.461-63.461 99.961-137.845 36.5-74.385 40.808-155.539 0-3.231-.923-6.269-.923-3.039-3.539-5.654-2.615-2.615-5.653-3.538-3.039-.923-6.269-.923ZM545.231-540.231q-20.308-20.307-20.308-49.384 0-29.076 20.308-49.384 20.307-20.307 49.691-20.307 29.385 0 49.692 20.307 20.308 20.308 20.308 49.384 0 29.077-20.308 49.384-20.307 20.308-49.692 20.308-29.384 0-49.691-20.308Zm-54.002 253.153 35.308 84.385q.769 1.539 2.308 1.731 1.539.193 2.692-.961l90.539-90.155q2.308-2.307 3.27-5.192.961-2.885.192-5.962l-11.769-58.693q-29.462 22.231-59.693 40.386-30.231 18.154-62.847 34.461ZM835.69-791.845q3.769 105-36.961 199.499-40.731 94.5-125.345 179.114-1.924 1.923-3.655 3.462-1.73 1.539-3.654 3.462l18.462 90.922q3.615 18.077-1.808 35.154t-18.269 29.923L545.768-131.618q-13.461 13.462-32.538 10.154-19.077-3.307-26.308-21.384l-54.461-127.999-156.383-156.768-127.999-54.461q-18.077-7.231-21.5-26.308-3.423-19.077 10.039-32.538l118.691-118.692q12.846-12.846 30.231-18.077 17.384-5.23 35.461-1.615l90.923 18.461q1.923-1.923 3.269-3.461 1.346-1.539 3.27-3.462 84.614-84.615 179.113-125.538 94.5-40.923 199.499-37.154 7.231.616 14.269 3.539 7.039 2.923 12.654 8.538 5.616 5.616 8.346 12.462 2.731 6.846 3.346 14.076ZM180.848-317.154q29.23-29.23 71.268-29.345 42.038-.116 71.268 29.115 29.231 29.23 28.923 71.268-.308 42.038-29.538 71.268-40.692 40.692-95.999 49.5-55.307 8.807-111.306 15.499 6.692-56.384 15.692-111.498 9-55.115 49.692-95.807Zm42.768 42.538q-17.385 17.385-24.077 41.385-6.692 24-10.308 49.384 25.385-3.615 49.385-10.192 24-6.577 41.385-23.962 12-12 12.615-28.807.615-16.808-11.385-28.808t-28.807-11.5q-16.808.5-28.808 12.5Z"/></svg>