<svg xmlns="http://www.w3.org/2000/svg" height="24" viewBox="0 -960 960 960" width="24"><path d="M440-180.001q-29.923 0-51.115-21.193-21.192-21.192-21.192-51.115v-80q0-29.922 21.192-51.115 21.192-21.192 51.115-21.192h80q29.923 0 51.115 21.192 21.192 21.193 21.192 51.115v80q0 29.923-21.192 51.115-21.192 21.193-51.115 21.193h-80ZM440-240h80q5.385 0 8.847-3.462 3.462-3.462 3.462-8.847v-80q0-5.385-3.462-8.846-3.462-3.462-8.847-3.462h-80q-5.385 0-8.847 3.462-3.462 3.461-3.462 8.846v80q0 5.385 3.462 8.847Q434.615-240 440-240ZM120-473.231q-10.538 7.307-22.307 5.884-11.769-1.423-19.461-11.961-7.692-10.538-5.962-22.307 1.731-11.769 11.654-19.461L436-787.23q9.846-7.23 21.193-10.653 11.346-3.423 22.807-3.423 11.461 0 22.807 3.423Q514.154-794.46 524-787.23l122.924 92.693v-36.616q0-20.384 14.23-34.615 14.231-14.231 34.615-14.231t34.615 14.231q14.23 14.231 14.23 34.615v110.538l132.462 99.539q9.923 7.692 11.346 19.461 1.423 11.769-6.269 22.307-7.692 10.538-19.461 11.961-11.769 1.423-22.307-5.884L487.308-739q-3.077-2.308-7.308-2.308T472.692-739L120-473.231Zm360 180.922Z"/></svg>