<svg xmlns="http://www.w3.org/2000/svg" height="24" viewBox="0 -960 960 960" width="24"><path d="M212.309-140.001q-30.308 0-51.308-21t-21-51.308v-135.382q0-30.308 21-51.308t51.308-21h397.692v-130q0-12.769 8.615-21.384 8.615-8.616 21.384-8.616t21.384 8.616q8.615 8.615 8.615 21.384v130h77.692q30.308 0 51.308 21t21 51.308v135.382q0 30.308-21 51.308t-51.308 21H212.309Zm0-59.999h535.382q5.385 0 8.847-3.462 3.462-3.462 3.462-8.847v-135.382q0-5.385-3.462-8.847-3.462-3.462-8.847-3.462H212.309q-5.385 0-8.847 3.462-3.462 3.462-3.462 8.847v135.382q0 5.385 3.462 8.847 3.462 3.462 8.847 3.462ZM280-244.616q15.077 0 25.231-10.153 10.153-10.154 10.153-25.231 0-15.077-10.153-25.231-10.154-10.153-25.231-10.153-15.077 0-25.231 10.153-10.153 10.154-10.153 25.231 0 15.077 10.153 25.231 10.154 10.153 25.231 10.153Zm140 0q15.077 0 25.231-10.153 10.153-10.154 10.153-25.231 0-15.077-10.153-25.231-10.154-10.153-25.231-10.153-15.077 0-25.231 10.153-10.153 10.154-10.153 25.231 0 15.077 10.153 25.231 10.154 10.153 25.231 10.153Zm140 0q15.077 0 25.231-10.153 10.153-10.154 10.153-25.231 0-15.077-10.153-25.231-10.154-10.153-25.231-10.153-15.077 0-25.231 10.153-10.153 10.154-10.153 25.231 0 15.077 10.153 25.231 10.154 10.153 25.231 10.153ZM640-660q-15.616 0-28.462 3.923-12.847 3.923-24.539 11.77-11.769 5.846-24.038 5.423-12.269-.423-21.576-9.731-9.308-9.307-8.808-21.884.5-12.576 11.038-19.038 21.77-15.308 45.885-22.885 24.115-7.577 50.5-7.577 27 0 50.808 7.577 23.807 7.577 45.577 22.885 10.538 6.462 11.038 19.038.5 12.577-8.808 21.884-9.307 9.308-21.884 9.731-12.576.423-24.345-5.423-11.077-7.847-24.232-11.77Q655-660 640-660Zm0-140q-45.539 0-84.501 14.577t-69.731 39.27q-10.538 7.692-22.807 7.269-12.269-.423-20.961-9.115-9.307-9.308-8.923-21.269.385-11.961 10.308-20.038Q484-822.46 533.808-841.229q49.807-18.77 106.192-18.77 56.385 0 106.192 18.77Q796-822.46 836.615-789.306q9.923 8.077 10.308 20.038.384 11.961-8.923 21.269-8.692 8.692-20.961 9.115-12.269.423-22.807-7.269-30.769-24.693-69.731-39.27Q685.539-800 640-800ZM200-200v-160 160Z"/></svg>