<svg xmlns="http://www.w3.org/2000/svg" height="24" viewBox="0 -960 960 960" width="24"><path d="m674.23-284.001-83.308 83.308q-8.307 8.307-20.692 8.115-12.384-.192-20.691-8.5-8.308-8.307-8.308-20.948t8.308-20.82l82.923-82.924-83.308-83.308q-8.308-8.307-8.115-20.884.192-12.577 8.5-20.884 8.307-8.308 20.948-8.308t20.82 8.308l82.923 83.308 83.309-83.308q8.179-8.308 20.82-8.308 12.64 0 20.948 8.308 8.307 8.307 8.307 20.948t-8.307 20.82l-83.308 83.308 83.308 83.309q8.307 8.307 8.307 20.691 0 12.385-8.307 20.692-8.308 8.308-20.948 8.308-12.641 0-20.82-8.308l-83.309-82.923Zm-25.615-327.074 148.924-148.924q8.922-8.923 21.076-8.807 12.154.115 21.076 9.422 8.308 9.063 8.308 21.147 0 12.083-8.308 21.006L674.922-551.846Q664.076-541 649.615-541q-14.461 0-25.308-10.846l-81.768-81.769q-8.308-8.308-8.116-20.884.193-12.577 8.5-20.885 8.308-8.307 20.948-8.307 12.641 0 20.82 8.307l63.924 64.309ZM130.001-357.692h280q12.749 0 21.374 8.629Q440-340.435 440-327.679q0 12.755-8.625 21.37t-21.374 8.615h-280q-12.75 0-21.375-8.628-8.625-8.629-8.625-21.384 0-12.756 8.625-21.371 8.625-8.615 21.375-8.615Zm0-304.614h280q12.749 0 21.374 8.628Q440-645.049 440-632.294q0 12.756-8.625 21.371-8.625 8.615-21.374 8.615h-280q-12.75 0-21.375-8.629-8.625-8.628-8.625-21.384 0-12.755 8.625-21.37t21.375-8.615Z"/></svg>