<svg xmlns="http://www.w3.org/2000/svg" height="24" viewBox="0 -960 960 960" width="24"><path d="m313-404.153-35.539-35.539q-8.923-8.923-20.884-8.807-11.961.115-21.269 9.423-8.692 9.307-9 21.076-.307 11.769 9 21.076l52.385 52.385q10.846 10.846 25.307 10.846 14.461 0 25.307-10.846l137.385-137.385q8.923-8.922 9.115-20.884.192-11.961-9.115-21.268-9.308-9.308-21.384-9.308-12.077 0-21.384 9.308L313-404.153Zm327-62.615-43.308-43.308q-8.308-8.308-20.692-8.308t-20.692 8.308q-8.307 8.307-8.307 20.884 0 12.576 8.307 20.884L598.232-425l-43.308 43.308q-8.308 8.308-8.116 20.692.193 12.384 8.5 20.692 8.308 8.307 20.884 8.307 12.577 0 20.884-8.307L640-383.232l43.308 43.308q8.308 8.308 20.884 8.116 12.577-.193 20.884-8.5 8.308-8.308 8.308-20.884 0-12.577-8.308-20.884L681.768-425l43.308-43.308q8.308-8.308 8.308-20.884 0-12.577-8.308-20.884-8.307-8.308-20.884-8.308-12.576 0-20.884 8.308L640-466.768ZM172.309-180.001q-30.308 0-51.308-21t-21-51.308v-455.382q0-30.308 21-51.308t51.308-21H362q14.461 0 27.807 5.616 13.346 5.615 23.192 15.461l58.923 58.923h315.769q30.308 0 51.308 21t21 51.308v375.382q0 30.308-21 51.308t-51.308 21H172.309Zm0-59.999h615.382q5.385 0 8.847-3.462 3.462-3.462 3.462-8.847v-375.382q0-5.385-3.462-8.847-3.462-3.462-8.847-3.462H447.385l-76.539-76.538q-1.923-1.923-4.038-2.693-2.116-.769-4.424-.769H172.309q-5.385 0-8.847 3.462-3.462 3.462-3.462 8.847v455.382q0 5.385 3.462 8.847 3.462 3.462 8.847 3.462ZM160-240v-480 480Z"/></svg>