<svg xmlns="http://www.w3.org/2000/svg" height="24" viewBox="0 -960 960 960" width="24"><path d="M810.001-90v-590q0-37.125-26.438-63.563-26.438-26.438-63.563-26.438h-50.001v52q0 12-8 20t-20 8H443.386q-15.154 0-22.885-14.423-7.731-14.423-1.115-28.423l68.692-148.614q6.615-14.231 18.192-21.385 11.576-7.153 28.807-7.153h89.692q19.385 0 32.307 14.153 12.923 14.154 12.923 33.538v32.309H720q62.154 0 106.076 43.923Q869.999-742.154 869.999-680v590h-59.998ZM492.614-750h117.387v-100.002h-72.54l-44.847 100.002ZM200-90.001q-46.75 0-78.374-31.625Q90.001-153.25 90.001-200v-100q0-31.846 21.615-57.846 21.615-26 58.385-29.692v-90.154q0-29.827 21.24-51.067t51.067-21.24h315.384q29.827 0 51.067 21.24t21.24 51.067v90.154q36.77 3.692 58.385 28.384 21.615 24.693 21.615 59.154v100q0 46.75-31.624 78.374Q646.75-90.001 600-90.001H200Zm29.999-387.691v102.308q18 12.692 29 33.192t11 42.192v30.001h260.002V-300q0-21.692 11-42.192t29-33.192v-102.308q0-5.385-3.462-8.847-3.462-3.462-8.847-3.462H242.308q-5.385 0-8.847 3.462-3.462 3.462-3.462 8.847ZM200-149.999h400q22.5 0 36.25-15.625Q650.001-181.25 650.001-200v-100q0-13.5-8.272-21.751-8.272-8.25-21.809-8.25-13.536 0-21.728 8.25-8.193 8.251-8.193 21.751v89.999H210.001V-300q0-13.5-8.272-21.751-8.272-8.25-21.809-8.25-13.536 0-21.728 8.25-8.193 8.251-8.193 21.751v100q0 18.75 13.75 34.376Q177.5-149.999 200-149.999Zm330.001-120H269.999h260.002ZM229.999-490.001h340.002-340.002Zm-19.998 340.002h379.998-379.998Z"/></svg>