<svg xmlns="http://www.w3.org/2000/svg" height="24" viewBox="0 -960 960 960" width="24"><path d="M504.462-205.848 205.079-505.231q-21.077-21.231-21.077-49.846 0-28.616 21.077-49.692l150.152-150.152q21.23-21.077 49.846-21.077 28.615 0 49.692 21.077l299.383 299.383q21.077 21.231 21.077 49.846 0 28.615-21.077 49.692L604-205.848q-21.231 21.077-49.846 21.077-28.615 0-49.692-21.077Zm40.922-43.383q3.462 3.461 8.847 3.461t8.847-3.461l147.691-147.691q3.461-3.462 3.461-8.847t-3.461-8.847L413.846-711.538Q410.385-715 405-715t-8.847 3.462L248.462-563.847Q245-560.385 245-555t3.462 8.846l296.922 296.923Zm-65.769-231.154Zm48.998-395.308 100.463 100.464q8.308 8.307 8.5 20.884.193 12.576-8.5 21.269-8.692 8.692-21.076 8.692t-21.076-8.692L421.539-898.461q-10.076-10.076-5.483-23.249 4.593-13.172 18.791-15.642 11.692-1.647 22.567-2.147 10.875-.5 22.586-.5 95.154 0 178.807 35.962 83.654 35.961 146.461 98.769 62.808 62.807 98.769 146.461Q939.999-575.154 939.999-480q0 12.75-8.629 21.374-8.629 8.625-21.384 8.625-12.756 0-21.371-8.625Q880-467.25 880-480q0-75.616-26.885-143.693-26.885-68.077-73.808-120.846-46.923-52.77-111.308-87.346-64.385-34.577-139.386-43.808ZM431.387-84.308 330.924-184.77q-8.308-8.307-8.5-20.884-.193-12.576 8.5-21.269 8.692-8.692 21.076-8.692t21.076 8.692L538.461-61.539q10.076 10.077 5.538 23.5-4.538 13.422-18.775 15.268-11.725 1.847-22.612 2.308-10.887.462-22.612.462-94.875 0-178.729-35.938-83.854-35.937-146.624-98.708-62.77-62.77-98.708-146.624Q20-385.125 20-480q0-12.75 8.63-21.374 8.628-8.625 21.383-8.625 12.756 0 21.37 8.625Q80-492.75 80-480q0 75.616 26.885 143.693 26.885 68.077 73.808 120.846 46.923 52.77 111.308 87.346 64.385 34.577 139.386 43.808Z"/></svg>