<svg xmlns="http://www.w3.org/2000/svg" height="24" viewBox="0 -960 960 960" width="24"><path d="M160-480q0 40.693 9.654 79.308 9.654 38.616 28.577 72.154 6.462 11.538 4.115 24.307-2.346 12.769-12.884 19.846-10.538 7.692-22.692 3.961-12.153-3.73-18.23-14.884-23.385-41.231-35.962-87.654-12.577-46.423-12.577-97.038 0-50.615 12.577-97.346t35.962-87.961q6.077-11.154 18.23-14.577 12.154-3.423 22.692 4.269 10.538 7.077 12.884 19.846 2.347 12.769-4.115 24.307-18.923 33.538-28.577 72.154Q160-520.693 160-480Zm320 232.307q-96.538 0-164.423-67.884Q247.693-383.462 247.693-480t67.884-164.423Q383.462-712.307 480-712.307t164.423 67.884Q712.307-576.538 712.307-480t-67.884 164.423Q576.538-247.693 480-247.693Zm0-59.998q71.385 0 121.847-50.462Q652.309-408.615 652.309-480q0-71.385-50.462-121.847Q551.385-652.309 480-652.309q-71.385 0-121.847 50.462Q307.691-551.385 307.691-480q0 71.385 50.462 121.847Q408.615-307.691 480-307.691ZM800-480q0-40.693-9.846-79.308-9.847-38.616-28.77-72.154-6.461-11.538-4.23-24.307 2.23-12.769 12.768-19.846 10.539-7.692 23-4.269t18.538 14.577q23.385 41.23 35.962 87.961 12.577 46.731 12.577 97.346t-12.577 97.038q-12.577 46.423-35.962 87.654-6.077 11.154-18.538 14.884-12.461 3.731-23-3.961-10.538-7.077-12.768-19.846-2.231-12.769 4.23-24.307 18.923-33.538 28.77-72.154Q800-439.307 800-480Zm-320 0Z"/></svg>