<svg xmlns="http://www.w3.org/2000/svg" height="24" viewBox="0 -960 960 960" width="24"><path d="M771.078-104.001 334.231-540.232q-6.615 13.846-10.423 28.654T320-480q0 25.308 7.539 47.923 7.538 22.616 20.846 41.77 7.077 10.538 6.961 23.115-.115 12.576-9.422 21.884-9.308 9.307-22.077 8.615-12.769-.692-19.846-11.231-21-27.461-32.5-61.345-11.5-33.885-11.5-70.731 0-29.539 7.539-56.308t20.846-49.769l-72.462-72.463q-26.385 38.308-41.155 83.232Q160-530.385 160-480q0 58.693 18.923 110.116t53.231 92.192q8.692 10.538 9.077 23 .385 12.461-8.923 21.768-9.307 9.308-21.884 8.616-12.576-.693-21.269-11.231-42-50.077-65.577-112.038Q100.001-409.539 100.001-480q0-63.154 19.231-118.923 19.231-55.77 53.308-103l-69.154-69.155q-8.923-8.922-9.115-21.191-.192-12.269 9.115-21.577 9.308-9.307 21.384-9.307 12.077 0 21.384 9.307l667.692 667.692q8.923 8.923 9.115 20.884.192 11.961-9.115 21.269-9.308 9.307-21.384 9.307-12.077 0-21.384-9.307Zm10.075-198.615q-10.538-6.077-13.884-18.038t2.115-23.115q15.308-30.923 22.962-65.231Q800-443.307 800-480q0-58.308-18.923-109.731-18.923-51.423-53.231-92.577-8.692-10.538-9.385-23-.692-12.461 8.615-21.768 9.308-9.308 22.192-8.616 12.884.693 21.577 11.231 42 49.461 65.577 111.73 23.577 62.27 23.577 132.731 0 45-10.27 87.308-10.269 42.307-29.038 79.923-5.462 10.538-17.231 13.384-11.769 2.846-22.307-3.231Zm-124.615-99.539q-12.769-3.23-18.961-13.461-6.192-10.23-2.962-22.999 2.385-10 3.885-20.193Q640-469 640-480q0-25.308-7.539-47.923-7.538-22.616-20.846-41.77-7.077-10.538-6.654-23.115.423-12.576 9.731-21.884 9.307-9.307 21.461-8.615 12.153.692 19.846 11.231 21 27.461 32.5 61.038t11.5 71.038q0 14.615-1.693 28.461-1.692 13.846-5.307 27.077-3.231 12.154-13.462 18.846-10.23 6.692-22.999 3.461Z"/></svg>