<svg xmlns="http://www.w3.org/2000/svg" height="24" viewBox="0 -960 960 960" width="24"><path d="M252.309-100.001q-30.308 0-51.308-21t-21-51.308v-429.306q0-14.461 5.616-27.807 5.615-13.347 15.461-23.193l186.307-186.307q9.846-9.846 23.193-15.461 13.346-5.616 27.807-5.616h269.306q30.308 0 51.308 21t21 51.308v615.382q0 30.308-21 51.308t-51.308 21H252.309Zm0-59.999h455.382q4.616 0 8.463-3.846 3.846-3.847 3.846-8.463v-615.382q0-4.616-3.846-8.463-3.847-3.846-8.463-3.846H434L240-606v433.691q0 4.616 3.846 8.463 3.847 3.846 8.463 3.846ZM480-295.386q14.692 0 24.269-9.961 9.577-9.962 9.577-23.884 0-13.923-9.577-23.885-9.577-9.961-24.269-9.961-14.692 0-24.269 9.961-9.577 9.962-9.577 23.885 0 13.922 9.577 23.884 9.577 9.961 24.269 9.961Zm0-136.152q12.769 0 21.384-8.615t8.615-21.384v-133.078q0-12.769-8.615-21.384T480-624.614q-12.769 0-21.384 8.615t-8.615 21.384v133.078q0 12.769 8.615 21.384T480-431.538ZM252.309-160H240h480H252.309Z"/></svg>