<svg xmlns="http://www.w3.org/2000/svg" height="24" viewBox="0 -960 960 960" width="24"><path d="M435-290.001q-12.75 0-21.375-8.628Q405-307.258 405-320.013q0-12.756 8.625-21.371 8.625-8.615 21.375-8.615h117.692q5.385 0 8.847-3.462 3.461-3.462 3.461-8.847v-75.384q0-5.385-3.461-8.847-3.462-3.462-8.847-3.462H441.154q-15.365 0-25.759-10.346Q405-470.693 405-486.345v-147.31q0-15.652 10.395-25.998 10.394-10.346 25.759-10.346H595q12.749 0 21.374 8.628 8.625 8.629 8.625 21.384 0 12.756-8.625 21.371-8.625 8.615-21.374 8.615H464.999v100.002h87.693q30.307 0 51.307 21 21 20.999 21 51.307v75.384q0 30.308-21 51.307-21 21-51.307 21H435Zm-110.013 0q-12.756 0-21.371-8.628-8.615-8.629-8.615-21.384 0-12.756 8.629-21.371 8.628-8.615 21.384-8.615 12.755 0 21.37 8.628Q355-332.742 355-319.987q0 12.756-8.629 21.371-8.629 8.615-21.384 8.615Z"/></svg>