<svg xmlns="http://www.w3.org/2000/svg" height="24" viewBox="0 -960 960 960" width="24"><path d="M260.001-332.309v-295.382q0-29.923 21.193-51.115 21.192-21.193 51.115-21.193h295.382q29.923 0 51.115 21.193 21.193 21.192 21.193 51.115v295.382q0 29.923-21.193 51.115-21.192 21.193-51.115 21.193H332.309q-29.923 0-51.115-21.193-21.193-21.192-21.193-51.115ZM332.309-320h295.382q5.385 0 8.847-3.462 3.462-3.462 3.462-8.847v-295.382q0-5.385-3.462-8.847-3.462-3.462-8.847-3.462H332.309q-5.385 0-8.847 3.462-3.462 3.462-3.462 8.847v295.382q0 5.385 3.462 8.847 3.462 3.462 8.847 3.462ZM480-480Z"/></svg>