<svg xmlns="http://www.w3.org/2000/svg" height="24" viewBox="0 -960 960 960" width="24"><path d="M473-100.001q-22.077 0-41.961-8.231-19.885-8.231-35.731-24.077L217.77-310.078q-8.885-9.077-9.289-22.692-.403-13.615 9.058-23.308l1.846-1.846q12.538-12.153 29.038-16.115 16.499-3.961 32.884.5l88.694 23.232V-680q0-12.75 8.628-21.375 8.629-8.624 21.384-8.624 12.756 0 21.371 8.624 8.615 8.625 8.615 21.375v361.922q0 18.077-14.461 28.923-14.462 10.846-31.538 6.23l-75.233-20.693 129.309 128.925q6.539 6.539 15.795 10.616T473-160h156.999q37.616 0 63.808-26.193Q720-212.385 720-250.001v-160q0-12.749 8.629-21.374Q737.257-440 750.013-440q12.755 0 21.37 8.625 8.616 8.625 8.616 21.374v160q0 62.154-43.923 106.077-43.923 43.923-106.001 43.923H473ZM516.552-560q12.755 0 21.37 8.625t8.615 21.374V-400q0 12.75-8.628 21.374-8.629 8.625-21.384 8.625-12.756 0-21.371-8.625-8.615-8.624-8.615-21.374v-130.001q0-12.749 8.629-21.374Q503.796-560 516.552-560Zm116.923 40q12.755 0 21.37 8.625t8.615 21.374V-400q0 12.75-8.628 21.374-8.629 8.625-21.384 8.625-12.756 0-21.371-8.625-8.615-8.624-8.615-21.374v-90.001q0-12.749 8.628-21.374Q620.719-520 633.475-520ZM796-719.999q-71.77-60.692-151.616-91.692-79.846-31-165.538-31-101.384 0-184.038 38.731-82.654 38.73-129.577 106.576-6.846 10.923-16.883 18-10.038 7.077-22.885 7.077-9.308 0-14.077-8.577t-.154-17.884q44.693-86.846 144.346-139.23 99.653-52.384 223.268-52.384 89.769 0 173.692 30.423t159.769 90.577v-66.771q0-10.333 6.751-17.089 6.752-6.757 17.077-6.757 10.325 0 17.094 6.757 6.77 6.756 6.77 17.089v127.692q0 15.366-10.395 25.76-10.394 10.394-25.759 10.394H696.153q-10.333 0-17.09-6.751-6.756-6.752-6.756-17.077 0-10.325 6.756-17.094 6.757-6.77 17.09-6.77H796ZM569.461-277.307Z"/></svg>