<svg xmlns="http://www.w3.org/2000/svg" height="24" viewBox="0 -960 960 960" width="24"><path d="M480-284.616q-14.692 0-25.038-10.346T444.616-320q0-14.692 10.346-25.038T480-355.384q14.692 0 25.038 10.346T515.384-320q0 14.692-10.346 25.038T480-284.616Zm-.013-150.768q-12.756 0-21.371-8.625-8.615-8.625-8.615-21.375V-640q0-12.75 8.628-21.375 8.629-8.624 21.384-8.624 12.756 0 21.371 8.624 8.615 8.625 8.615 21.375v174.616q0 12.75-8.628 21.375-8.629 8.625-21.384 8.625Zm-280.756-43.077q0 57.438 23.615 105.834 23.616 48.397 74.848 93.706v-79.54q0-12.75 8.628-21.375 8.629-8.625 21.384-8.625 12.756 0 21.371 8.625 8.615 8.625 8.615 21.375v149.23q0 15.365-10.394 25.759t-25.759 10.394h-149.23q-12.75 0-21.375-8.629-8.625-8.628-8.625-21.384 0-12.755 8.625-21.37t21.375-8.615h86.309q-61.386-53.232-90.386-114.463-29-61.23-29-131.061 0-91.169 47.462-165.438 47.461-74.269 124.153-113.115 10.923-6.077 22.769-1.193 11.846 4.885 15.692 17.039 3.846 12.153-1.173 23.509-5.018 11.356-15.827 17.413-59.846 31.769-96.462 90.923-36.615 59.154-36.615 131.001Zm561.538-3.078q0-57.438-23.615-105.834-23.616-48.397-74.848-93.706v79.54q0 12.75-8.628 21.375-8.629 8.625-21.384 8.625-12.756 0-21.371-8.625-8.615-8.625-8.615-21.375v-149.23q0-15.365 10.394-25.759t25.759-10.394h149.23q12.75 0 21.375 8.629 8.625 8.628 8.625 21.384 0 12.755-8.625 21.37t-21.375 8.615h-86.309q61.386 53.232 90.386 114.463 29 61.23 29 131.061 0 91.169-47.509 165.687-47.51 74.518-124.106 113.482-10.923 6.076-22.769.884-11.846-5.192-15.692-17.346-3.846-12.153 1.173-23.509 5.018-11.356 15.827-17.413 59.846-31.769 96.462-90.923 36.615-59.154 36.615-131.001Z"/></svg>