<svg xmlns="http://www.w3.org/2000/svg" height="24" viewBox="0 -960 960 960" width="24"><path d="M172.309-180.001q-30.308 0-51.308-21t-21-51.308v-455.382q0-30.308 21-51.308t51.308-21h152.307q12.769 0 21.384 8.616 8.615 8.615 8.615 21.384T346-728.615Q337.385-720 324.616-720H172.309q-4.616 0-8.463 3.846-3.846 3.847-3.846 8.463v455.382q0 4.616 3.846 8.463 3.847 3.846 8.463 3.846h615.382q4.616 0 8.463-3.846 3.846-3.847 3.846-8.463v-455.382q0-4.616-3.846-8.463-3.847-3.846-8.463-3.846H635.384q-12.769 0-21.384-8.615t-8.615-21.384q0-12.769 8.615-21.384 8.615-8.616 21.384-8.616h152.307q30.308 0 51.308 21t21 51.308v455.382q0 30.308-21 51.308t-51.308 21H172.309Zm277.692-288.305v-281.693q0-12.769 8.615-21.384 8.615-8.616 21.384-8.616t21.384 8.616q8.615 8.615 8.615 21.384v281.693l92.925-92.924q8.307-8.307 20.884-8.5 12.576-.192 21.268 8.5 8.693 8.692 8.693 21.076 0 12.385-8.693 21.077L505.307-379.308Q494.461-368.462 480-368.462q-14.461 0-25.307-10.846L314.924-519.077q-8.308-8.308-8.5-20.884-.193-12.577 8.5-21.269 8.692-8.692 21.076-8.692t21.076 8.692l92.925 92.924Z"/></svg>