<svg xmlns="http://www.w3.org/2000/svg" height="24" viewBox="0 -960 960 960" width="24"><path d="M720-60.002q74.922 0 127.461-52.537Q899.999-165.078 899.999-240t-52.538-127.461Q794.922-419.999 720-419.999t-127.461 52.538Q540.001-314.922 540.001-240t52.538 127.461Q645.078-60.001 720-60.001Zm17.692-187.229 60.769 60.77q5.616 5.615 5.616 12.461t-5.616 12.461q-5.615 5.616-12.653 5.423-7.039-.192-12.269-5.423l-60.385-60.384q-5.615-5.616-8.231-12.154-2.615-6.538-2.615-13.769V-340q0-7.231 5.231-12.461 5.23-5.231 12.461-5.231t12.461 5.231q5.231 5.23 5.231 12.461v92.769Zm-565.383 67.23q-30.308 0-51.308-21t-21-51.308v-455.382q0-30.308 21-51.308t51.308-21h615.382q30.308 0 51.308 21t21 51.308v209.616q0 12.769-8.616 21.384-8.615 8.615-21.384 8.615t-21.384-8.308Q800-484.691 800-497.46v-81.772H571.539q-15.461 0-25.807-10.346-10.346-10.346-10.346-25.808V-720H172.309q-4.616 0-8.463 3.846-3.846 3.847-3.846 8.463v455.382q0 4.616 3.846 8.463 3.847 3.846 8.463 3.846h257.693q12.769 0 21.384 8.615t8.615 21.384q0 12.769-8.615 21.384-8.615 8.616-21.384 8.616H172.309ZM160-252.309V-720-240v-12.309Z"/></svg>