<svg xmlns="http://www.w3.org/2000/svg" height="24" viewBox="0 -960 960 960" width="24"><path d="M710.769-435.386v76.462l-59.999-59.998v-288.769q0-5.385-3.462-8.847-3.462-3.462-8.847-3.462H349.692l-59.998-59.999h348.767q29.827 0 51.067 21.241 21.241 21.24 21.241 51.067v183.077l109.963-109.964q8.728-8.727 19.766-4.288 11.038 4.439 11.038 16.868v283.996q0 12.429-11.038 16.868-11.038 4.439-19.766-4.288L710.769-435.386ZM140.757-576.152q-12.755 0-21.37-8.625-8.616-8.625-8.616-21.374v-101.54q0-28.716 19.462-49.166 19.461-20.449 47.461-22.372L236.923-720h-53.844q-5.385 0-8.847 3.462-3.462 3.462-3.462 8.847v101.54q0 12.749-8.629 21.374-8.628 8.625-21.384 8.625Zm414.624 396.151q-12.749 0-21.374-8.629-8.625-8.629-8.625-21.384 0-12.756 8.625-21.371Q542.632-240 555.381-240h83.08q5.385 0 8.847-3.462 3.462-3.462 3.462-8.847v-53.844l59.229 59.229q-1.923 28-22.372 47.461-20.45 19.462-49.166 19.462h-83.08Zm222.464 85.229L82.464-790.154q-8.308-8.307-8.5-20.884-.192-12.576 8.5-21.268 8.692-8.693 21.076-8.693t21.076 8.693l695.382 695.381q8.307 8.307 8.5 20.884.192 12.577-8.5 21.269-8.692 8.692-21.077 8.692-12.384 0-21.076-8.692ZM453.076-503.846Zm47.155-65.615ZM194.155-81.541q-15.077 0-28.182-5.876-13.106-5.874-23.048-15.817l-93.153-92.537q-4.462-4.462-4.462-9.961 0-5.5 4.462-9.962 5.692-6.461 14.079-10.307 8.386-3.846 17.535-3.846 9.557 0 18.317 3.346t15.221 10.807l24.693 24.693V-442.69q0-10.333 7.269-17.09 7.269-6.756 16.741-6.756 10.262 0 16.972 6.756 6.709 6.757 6.709 17.09v127.306h35.385v-181.537q0-10.333 7.269-17.089 7.269-6.756 16.741-6.756 10.262 0 16.971 6.756 6.71 6.756 6.71 17.089v181.537h35.384v-149.23q0-10.333 7.269-17.089 7.269-6.756 16.742-6.756 10.261 0 16.971 6.756 6.71 6.756 6.71 17.089v149.23h35.384V-428.46q0-10.333 7.269-17.089 7.269-6.757 16.741-6.757 10.262 0 16.972 6.757 6.709 6.756 6.709 17.089v274.611q0 29.827-20.788 51.067t-51.519 21.24H194.155Z"/></svg>