<svg xmlns="http://www.w3.org/2000/svg" height="24" viewBox="0 -960 960 960" width="24"><path d="M481.925-669.614q-7.231 0-12.654-5.423t-5.423-12.654v-61.921q0-33.538 23.23-56.769 23.231-23.23 56.768-23.23h61.922q7.231 0 12.654 5.423t5.423 12.654v61.922q0 33.537-23.23 56.768-23.231 23.23-56.769 23.23h-61.921ZM256.156-449.615q-49.922 0-84.96-35.038t-35.038-84.961v-83.845q0-15.461 10.346-25.807 10.346-10.346 25.808-10.346h83.844q49.923 0 84.961 35.038t35.038 84.96v83.845q0 15.462-10.346 25.808t-25.808 10.346h-83.845ZM640-110.001q-37.461 0-71.423-12-33.961-12-61.423-33l-46.078 46.077q-8.307 8.308-20.884 8.5-12.576.193-21.268-8.5-8.693-8.692-8.5-21.268.192-12.577 8.5-20.884l46.077-46.078q-21-27.462-33-61.423-12-33.962-12-71.423 0-91.538 64.231-156.076 64.23-64.538 155.768-64.538h159.461q25.308 0 43.038 17.73 17.73 17.731 17.73 43.038V-330q0 91.538-64.345 155.768Q731.538-110.001 640-110.001ZM640-170q67 0 113-47t46-113v-160H640q-66 0-113 46.5T480-330q0 25.308 7.231 48.116t20.539 41.962l111.154-111.154q8.692-8.693 21.076-8.693t21.076 8.693q8.693 8.692 8.693 21.076t-8.693 21.076L549.922-197.77q19.154 13.308 41.962 20.539Q614.692-170 640-170Zm1-161Z"/></svg>