<svg xmlns="http://www.w3.org/2000/svg" height="24" viewBox="0 -960 960 960" width="24"><path d="M390.769-302.306h130.77q5.385 0 8.846-3.462 3.462-3.462 3.462-8.847v-330.77q0-5.385-3.462-8.847-3.461-3.462-8.846-3.462h-130.77q-5.385 0-8.847 3.462-3.462 3.462-3.462 8.847v330.77q0 5.385 3.462 8.847 3.462 3.462 8.847 3.462Zm0 84.612q-40.769 0-68.845-28.076-28.077-28.076-28.077-68.845v-330.77q0-40.769 28.077-68.845 28.076-28.076 68.845-28.076h130.77q40.768 0 68.845 28.076 28.076 28.076 28.076 68.845v330.77q0 40.769-28.076 68.845-28.077 28.076-68.845 28.076h-130.77Zm-256.922-440H96.154q-17.628 0-29.968-12.352-12.339-12.353-12.339-29.999 0-17.647 12.34-29.954 12.339-12.307 29.967-12.307h68.076q22.596 0 38.413 15.817 15.817 15.817 15.817 38.413V-260q0 17.628-12.353 29.967-12.352 12.339-29.999 12.339-17.646 0-29.954-12.339-12.307-12.339-12.307-29.967v-397.694Zm728.307 440h-146q-12.75 0-21.375-8.628-8.625-8.629-8.625-21.384 0-12.756 8.625-21.371 8.625-8.615 21.375-8.615h130v-60.002h-116q-18.741 0-31.37-12.629-12.63-12.629-12.63-31.37v-92q0-18.74 12.63-31.37 12.629-12.629 31.37-12.629h146q12.749 0 21.374 8.629 8.625 8.628 8.625 21.384 0 12.755-8.625 21.37t-21.374 8.615H746.153v60.002h116.001q18.74 0 31.369 12.629 12.63 12.63 12.63 31.37v92q0 18.741-12.63 31.37-12.629 12.629-31.369 12.629Z"/></svg>