<svg xmlns="http://www.w3.org/2000/svg" height="24" viewBox="0 -960 960 960" width="24"><path d="M200.155-819.999h559.69q42.384 0 62.768 36.154 20.385 36.154-.307 72.307L542.461-228.079Q521.769-191.925 480-191.925t-62.461-36.154L137.694-711.538q-20.692-36.153-.307-72.307 20.384-36.154 62.768-36.154Zm-10.385 78.462 64.384 111.538h451.692l64.384-111.538q3.462-6.154.192-12.309Q767.153-760 759.845-760h-559.69q-7.308 0-10.577 6.154-3.27 6.155.192 12.309Zm99.46 171.536 80.54 140.002h220.46l80.54-140.002H289.23Zm115.616 200 64.384 111.538q3.462 6.154 10.77 6.154t10.77-6.154l64.384-111.538H404.846Z"/></svg>