<svg xmlns="http://www.w3.org/2000/svg" height="24" viewBox="0 -960 960 960" width="24"><path d="M480-774q-79.077 71.693-132.039 136.808Q295-572.076 267.769-514.538q-5.692 10.538-17.038 15.5-11.346 4.961-22.5.5-11.153-4.462-16.422-15.808-5.269-11.345-.193-21.884 38.923-84.922 108.846-160.807 69.923-75.884 135.846-135.346 5.615-5 11.538-7.115 5.923-2.116 12.154-2.116t12.654 2.116q6.423 2.115 11.038 7.115 64.923 58.462 135.038 135.346 70.115 76.885 109.654 161.423 5.076 10.538-.193 21.576-5.269 11.038-16.422 15.5-11.154 4.461-22.192-.5-11.038-4.962-16.731-15.5-27.23-57.538-80-122.654Q560.077-702.307 480-774Zm296.306 406.998q-5.538 34.384-19.768 65.383-14.23 30.999-36.537 56.767l-88.468 88.084q-25.768 22.307-56.575 36.037-30.807 13.73-64.575 18.268l265.923-264.539ZM607.152-408h85.921L397.537-112.848q-16.846-4.231-32.576-9.577-15.731-5.346-30.346-14.038L607.152-408Zm-209.768 0h85.921L265.846-190.541q-11.153-10.923-20.807-22.461-9.654-11.538-17.961-24.692L397.384-408Zm-124.077 0-82.691 82.69q-3.076-10.615-5.115-20.73-2.038-10.115-3.269-20.73-2-16.692 9.346-28.961Q202.924-408 220.616-408h52.691ZM480-488Z"/></svg>