<svg xmlns="http://www.w3.org/2000/svg" height="24" viewBox="0 -960 960 960" width="24"><path d="M420-464.616q14.692 0 25.038-10.346T455.384-500q0-14.692-10.346-25.038T420-535.384q-14.692 0-25.038 10.346T384.616-500q0 14.692 10.346 25.038T420-464.616Zm120 0q14.692 0 25.038-10.346T575.384-500q0-14.692-10.346-25.038T540-535.384q-14.692 0-25.038 10.346T504.616-500q0 14.692 10.346 25.038T540-464.616Zm-240 0q14.692 0 25.038-10.346T335.384-500q0-14.692-10.346-25.038T300-535.384q-14.692 0-25.038 10.346T264.616-500q0 14.692 10.346 25.038T300-464.616Zm360 0q14.692 0 25.038-10.346T695.384-500q0-14.692-10.346-25.038T660-535.384q-14.692 0-25.038 10.346T624.616-500q0 14.692 10.346 25.038T660-464.616ZM227-220.001l-20.846 59.076q-1.551 4.351-5.429 7.252-3.879 2.902-9.084 2.902h-4.461q-5.949 0-10.41-4.5t-4.461-10.5v-54.23q-29.827 0-51.067-21.241-21.241-21.24-21.241-51.067v-415.382q0-29.827 21.241-51.067 21.24-21.241 51.067-21.241h615.382q29.827 0 51.067 21.241 21.241 21.24 21.241 51.067v415.382q0 29.85-21.241 51.106-21.24 21.256-51.067 21.256v55.176q0 5.894-4.052 9.947-4.053 4.053-9.947 4.053h-5.385q-4.615 0-8.461-2.568t-5.385-6.971l-20.076-59.691H227ZM172.309-280h615.382q5.385 0 8.847-3.462 3.462-3.462 3.462-8.847v-415.382q0-5.385-3.462-8.847-3.462-3.462-8.847-3.462H172.309q-5.385 0-8.847 3.462-3.462 3.462-3.462 8.847v415.382q0 5.385 3.462 8.847 3.462 3.462 8.847 3.462ZM480-500Z"/></svg>