<svg xmlns="http://www.w3.org/2000/svg" height="24" viewBox="0 -960 960 960" width="24"><path d="M480-97.694q-29.154 0-49.576-20.422-20.423-20.423-20.423-49.577 0-19.846 11-36.5 11-16.653 29-25.346v-100.462h-120q-30.308 0-51.308-21-20.999-20.999-20.999-51.307v-88.153q-17.616-7.462-28.808-23.731-11.192-16.269-11.192-38.115 0-29.154 20.422-49.577 20.423-20.422 49.577-20.422 29.153 0 49.576 20.422 20.423 20.423 20.423 49.577 0 21.846-11.192 37.5-11.193 15.653-28.808 24.346v88.153q0 4.616 3.847 8.462 3.846 3.847 8.462 3.847h120v-324.616h-33.846q-10.846 0-16.077-9.846-5.23-9.846 1.616-19.077l63.845-85.075q5.615-7.231 14.461-7.231t14.461 7.231l63.845 85.075q6.846 9.231 1.616 19.077-5.231 9.846-16.077 9.846h-33.846v324.616h120q4.616 0 8.462-3.847 3.847-3.846 3.847-8.462v-80h-21.923q-7.231 0-12.654-5.423t-5.423-12.654V-604.23q0-7.23 5.423-12.653t12.654-5.423H724.23q7.23 0 12.653 5.423t5.423 12.653v103.845q0 7.231-5.423 12.654t-12.653 5.423h-21.924v80q0 30.308-20.999 51.307-21 21-51.308 21h-120v100.462q18.616 8.077 29.308 24.731 10.692 16.654 10.692 37.115 0 29.154-20.423 49.577Q509.154-97.694 480-97.694Z"/></svg>