<svg xmlns="http://www.w3.org/2000/svg" height="24" viewBox="0 -960 960 960" width="24"><path d="M339.232-560H160.769q-25.307 0-43.037-17.73-17.731-17.731-17.731-43.038v-178.463q0-25.307 17.731-43.037 17.73-17.731 43.037-17.731h178.463q25.307 0 43.038 17.731Q400-824.538 400-799.231v178.463q0 25.307-17.73 43.038Q364.539-560 339.232-560ZM160-619.999h180.001V-800H160v180.001Zm179.232 519.998H160.769q-25.307 0-43.037-17.731-17.731-17.73-17.731-43.037v-178.463q0-25.307 17.731-43.038Q135.462-400 160.769-400h178.463q25.307 0 43.038 17.73Q400-364.539 400-339.232v178.463q0 25.307-17.73 43.037-17.731 17.731-43.038 17.731ZM160-160h180.001v-180.001H160V-160Zm639.231-400H620.768q-25.307 0-43.038-17.73Q560-595.461 560-620.768v-178.463q0-25.307 17.73-43.037 17.731-17.731 43.038-17.731h178.463q25.307 0 43.037 17.731 17.731 17.73 17.731 43.037v178.463q0 25.307-17.731 43.038Q824.538-560 799.231-560Zm-179.232-59.999H800V-800H619.999v180.001Zm179.232 519.998H620.768q-25.307 0-43.038-17.731Q560-135.462 560-160.769v-178.463q0-25.307 17.73-43.038Q595.461-400 620.768-400h178.463q25.307 0 43.037 17.73 17.731 17.731 17.731 43.038v178.463q0 25.307-17.731 43.037-17.73 17.731-43.037 17.731ZM619.999-160H800v-180.001H619.999V-160ZM340.001-619.999Zm0 279.998Zm279.998-279.998Zm0 279.998Z"/></svg>