<svg xmlns="http://www.w3.org/2000/svg" height="24" viewBox="0 -960 960 960" width="24"><path d="M280-130.001q-78.769 0-134.384-55.615Q90.001-241.231 90.001-320q0-52.923 25.653-96.115 25.654-43.192 68.346-68.038 16-9.308 31-.269 14.999 9.038 14.999 26.422 0 7.923-3.538 14.807-3.539 6.885-9.615 10.115-29.539 16.539-48.193 46.655-18.654 30.115-18.654 66.423 0 53.846 38.077 91.924 38.078 38.077 91.924 38.077 53.077 0 90.77-36.731 37.692-36.731 39.231-89.424.384-14.692 8.73-24.268 8.347-9.577 22.654-9.577h194q6.846-10.923 18.538-17.77 11.692-6.846 26.077-6.846 22.692 0 38.654 15.961 15.961 15.962 15.961 38.654 0 22.692-15.961 38.654-15.962 15.961-38.654 15.961-14.769 0-26.269-6.654-11.5-6.654-18.346-17.962H467.538q-11.692 71.308-65.038 115.654-53.346 44.346-122.5 44.346Zm0-135.384q-22.692 0-38.654-15.961-15.961-15.962-15.961-38.654 0-21.231 14.577-36.846 14.577-15.615 36.885-16.769l98.231-163.308q-31.308-26.616-48.193-63.731-16.884-37.115-16.884-79.346 0-78.769 55.615-134.384Q421.231-869.999 500-869.999q69.615 0 121.577 44.038 51.961 44.039 64.345 109.808 3.462 14-5.653 25.076Q671.154-680 656.539-680q-9.923 0-18.538-7.384-8.616-7.385-11.462-17.923-8.692-44.924-43.731-74.809Q547.77-810.001 500-810.001q-53.846 0-91.924 38.077-38.077 38.078-38.077 91.924 0 34.154 16.116 62.616 16.115 28.461 43.269 46.769 11.692 7.231 14.807 18.461 3.116 11.231-3.115 21.693L328.538-342.616q3.154 5.385 4.615 10.923 1.462 5.539 1.462 11.693 0 22.692-15.961 38.654-15.962 15.961-38.654 15.961Zm400 135.384q-27.154 0-52.039-7.269-24.884-7.269-46.654-20.577-20.076-11.923-16.114-34.346 3.961-22.422 29.729-22.422 4.616 0 9.654 2 5.039 2 9.269 4.615 14.539 8.924 31.308 13.462 16.77 4.539 34.847 4.539 53.846 0 91.924-38.077 38.077-38.078 38.077-91.924 0-53.846-38.077-91.924-38.078-38.077-91.924-38.077-10 0-19 1.5t-18 4.116q-13.692 4.23-26.154-.077-12.461-4.308-18.692-14.154L497.462-626.385q-21-.538-36.538-15.577Q445.385-657 445.385-680q0-22.692 15.961-38.654 15.962-15.961 38.654-15.961 22.692 0 38.654 15.961 15.961 15.962 15.961 38.654 0 6.154-1.154 11.385t-4.308 10.231L640-505.845q9.154-2 19.115-3.077 9.962-1.077 20.885-1.077 78.769 0 134.384 55.615Q869.999-398.769 869.999-320q0 78.769-55.615 134.384Q758.769-130.001 680-130.001Z"/></svg>