<svg xmlns="http://www.w3.org/2000/svg" height="24" viewBox="0 -960 960 960" width="24"><path d="M673.999-263q-11 9.615-21.961.807-10.962-8.807-5.192-24.346 5-17.615 7-35.538t2-37.154q0-76.923-33.846-141.307-33.846-64.385-91.539-107.231l-58.384 58.385q-8.846 8.846-19.885 4.423-11.038-4.423-11.038-16.885v-229.692q0-15.461 10.346-25.807 10.346-10.346 25.807-10.346H707q12.461 0 16.884 11.038t-4.423 19.884l-57.615 57.616q50.461 45.461 80.307 108.346 29.846 62.884 29.846 136.192 0 43.846-10.923 83.807-10.923 39.962-30.538 75.423-11.385 19.769-25.077 38.692Q691.769-277.77 673.999-263Zm-433.46 99.769 58-57.616q-51.077-45.461-80.615-108.346-29.539-62.884-29.539-136.192 0-43.846 10.923-83.807 10.923-39.962 30.539-75.423 11.384-19.769 25.577-38.692Q269.616-682.23 287.001-697q11-9.615 21.769-1.307 10.769 8.307 5 24.231-4.616 17.615-6.923 35.846-2.308 18.23-2.308 37.461 0 76.923 33.961 141.307 33.962 64.385 91.039 107.231l58-58.385q8.846-9.23 19.884-4.423 11.038 4.808 11.038 17.269v229.308q0 15.461-10.346 25.807-10.346 10.346-25.807 10.346H253.385q-12.461 0-17.269-11.038-4.808-11.038 4.423-19.884Z"/></svg>