<svg xmlns="http://www.w3.org/2000/svg" height="24" viewBox="0 -960 960 960" width="24"><path d="M480-131.539q-33.922 0-57.345-23.423-23.423-23.423-23.423-57.345 0-33.923 23.423-57.345 23.423-23.423 57.345-23.423t57.345 23.423q23.423 23.422 23.423 57.345 0 33.922-23.423 57.345-23.423 23.423-57.345 23.423ZM479.976-440q-54.438 0-103.515 17.308t-88.616 47.539q-14.999 10.923-33.653 10.5-18.653-.423-31.422-13.126-12.769-13.451-12.577-31.796.193-18.346 15.192-29.884 52.308-42.385 117.115-66.077 64.808-23.693 137.5-23.693t137.5 24q64.807 24 117.115 66.385 14.999 11.538 15.499 29.85.5 18.311-12.884 31.764-12.769 12.769-31.422 12.884-18.654.116-33.653-10.807-39.539-30.231-88.64-47.539T479.976-440Z"/></svg>