<svg xmlns="http://www.w3.org/2000/svg" height="24" viewBox="0 -960 960 960" width="24"><path d="M423.462-126.154v-206.155h-82.539q-19.025 0-29.897-15.769t-3.641-33.846l97.692-246.461q9.593-23.112 29.739-36.594 20.146-13.482 45.088-13.482t45.165 13.482q20.224 13.482 29.854 36.594l97.692 246.461q7.231 18.077-3.641 33.846-10.872 15.769-29.897 15.769h-82.539v206.155q0 15.365-10.394 25.759t-25.759 10.394h-40.77q-15.365 0-25.759-10.394t-10.394-25.759ZM480-723.846q-30.461 0-52.154-21.693-21.692-21.692-21.692-52.153 0-30.462 21.692-52.154 21.693-21.692 52.154-21.692 30.461 0 52.154 21.692 21.692 21.692 21.692 52.154 0 30.461-21.692 52.153-21.693 21.693-52.154 21.693Z"/></svg>