<svg xmlns="http://www.w3.org/2000/svg" height="24" viewBox="0 -960 960 960" width="24"><path d="M720-131.539q8 0 13.615-5.616 5.616-5.615 5.616-13.615t-5.616-13.615Q728-170.001 720-170.001t-13.615 5.616q-5.616 5.615-5.616 13.615t5.616 13.615Q712-131.539 720-131.539Zm0-76.923q7.231 0 12.461-5.231 5.231-5.231 5.231-12.461v-104.615q0-7.23-5.231-12.461-5.23-5.231-12.461-5.231t-12.461 5.231q-5.231 5.231-5.231 12.461v104.615q0 7.23 5.231 12.461 5.23 5.231 12.461 5.231Zm-560-3.847v-4.037V-200v-440V-212.309Zm12.309 72.308q-30.308 0-51.308-21t-21-51.308v-415.382q0-30.308 21-51.308t51.308-21h167.692v-67.691q0-30.307 21-51.307 21-21 51.308-21h135.382q30.308 0 51.308 21t21 51.307v67.691h167.692q30.308 0 51.308 21t21 51.308v130.385q0 12.769-8.616 20.884-8.615 8.115-21.384 8.115t-21.384-8.615Q800-485.537 800-498.306v-129.385q0-5.385-3.462-8.847-3.462-3.462-8.847-3.462H172.309q-5.385 0-8.847 3.462-3.462 3.462-3.462 8.847v415.382q0 5.385 3.462 8.847 3.462 3.462 8.847 3.462h271.154q12.769 0 21.384 8.615 8.616 8.615 8.616 21.384t-8.616 21.384q-8.615 8.616-21.384 8.616H172.309ZM400-699.999h160v-67.691q0-5.385-3.462-8.847-3.462-3.462-8.847-3.462H412.309q-5.385 0-8.847 3.462Q400-773.075 400-767.69v67.691ZM720-60.001q-74.922 0-127.461-52.538Q540.001-165.078 540.001-240t52.538-127.461Q645.078-419.999 720-419.999t127.461 52.538Q899.999-314.922 899.999-240t-52.538 127.461Q794.922-60.001 720-60.001Z"/></svg>