<svg xmlns="http://www.w3.org/2000/svg" height="24" viewBox="0 -960 960 960" width="24"><path d="M210.001-465q-12.75 0-21.375-8.629t-8.625-21.384q0-12.756 8.625-21.371 8.625-8.615 21.375-8.615h473.46q57.346 0 96.942 40.038 39.596 40.039 39.596 97.269 0 57.23-39.596 97.461-39.596 40.23-96.942 40.23H569.383l37.001 38.155q8.923 9.308 8.551 21.252-.372 11.943-8.551 20.901-9.308 9.308-21.577 9.615-12.268.308-21.191-9l-84.846-85.615q-5.231-5.615-7.538-11.897-2.308-6.282-2.308-13.461 0-7.18 2.5-13.41 2.5-6.231 7.731-11.846l84.461-85.231q8.923-9.307 21.191-9.307 12.269 0 21.661 9.307 8.608 9.308 8.723 21.384.116 12.077-8.807 21.384l-37.001 37.771h114.078q32.077 0 54.308-22.73Q760-355.46 760-387.614q0-32.155-22.231-54.771Q715.538-465 683.461-465h-473.46Zm0 214.999q-12.75 0-21.375-8.628-8.625-8.629-8.625-21.384 0-12.756 8.625-21.371 8.625-8.615 21.375-8.615h116.153q12.75 0 21.375 8.628 8.625 8.629 8.625 21.384 0 12.756-8.625 21.371-8.625 8.615-21.375 8.615H210.001Zm0-429.999q-12.75 0-21.375-8.629-8.625-8.628-8.625-21.384 0-12.755 8.625-21.37 8.625-8.616 21.375-8.616h541.152q12.75 0 21.375 8.629 8.624 8.629 8.624 21.384 0 12.756-8.624 21.371Q763.903-680 751.153-680H210.001Z"/></svg>