<?xml version="1.0" encoding="UTF-8" standalone="no"?>
<svg width="182px" height="40px" viewBox="0 0 182 40" version="1.1" xmlns="http://www.w3.org/2000/svg" xmlns:xlink="http://www.w3.org/1999/xlink" xmlns:sketch="http://www.bohemiancoding.com/sketch/ns">
    <!-- Generator: Sketch 3.1 (8751) - http://www.bohemiancoding.com/sketch -->
    <title>Imported Layers</title>
    <desc>Created with Sketch.</desc>
    <defs></defs>
    <g id="Løsningsbeskrivelse" stroke="none" stroke-width="1" fill="none" fill-rule="evenodd" sketch:type="MSPage">
        <g id="tablet" sketch:type="MSArtboardGroup" transform="translate(-40.500000, -48.000000)">
            <g id="Imported-Layers" sketch:type="MSLayerGroup" transform="translate(41.000000, 48.000000)">
                <path d="M180.644439,20.0714286 C180.644439,31.0221429 171.753261,39.8992857 160.784518,39.8992857 C149.81649,39.8992857 140.924597,31.0221429 140.924597,20.0714286 C140.924597,9.12 149.81649,0.242857143 160.784518,0.242857143 C171.753261,0.242857143 180.644439,9.12 180.644439,20.0714286" id="Fill-1" fill="#F00000" sketch:type="MSShapeGroup"></path>
                <path d="M154.767162,1.17214286 C146.741636,3.71714286 140.924597,11.215 140.924597,20.0714286 C140.924597,22.0142857 141.210047,23.89 141.731585,25.665 C145.866684,31.7714286 154.80651,33.98 162.987996,30.5235714 C172.108107,26.67 176.828415,17.2385714 173.531067,9.45857143 C170.677992,2.72714286 162.757632,-0.558571429 154.767162,1.17214286" id="Fill-2" fill="#B40000" sketch:type="MSShapeGroup"></path>
                <path d="M165.139249,7.93857143 L160.52196,7.93857143 C160.192154,7.93857143 160.006862,8.01214286 159.712111,8.12214286 L153.754134,11.1842857 C153.387126,11.3321429 153.239751,11.5514286 153.239751,11.92 L153.239751,15.2557143 C153.239751,15.6478571 153.558826,15.965 153.950158,15.965 L157.764036,15.965 L157.764036,31.9564286 C159.50464,31.715 161.262415,31.2521429 162.987996,30.5235714 C164.008178,30.0921429 164.970411,29.5878571 165.875411,29.0271429 L165.875411,8.67285714 C165.875411,8.26785714 165.545605,7.93857143 165.139249,7.93857143" id="Fill-3" fill="#FFFFFF" sketch:type="MSShapeGroup"></path>
                <path d="M7.83093281,31.3028571 C4.16156917,31.3028571 1.25412253,30.4578571 0.717561265,30.2885714 C0.434972332,30.1757143 0.294035573,29.9507143 0.294035573,29.6971429 L0.294035573,29.5564286 L0.661043478,27.6957143 C0.717561265,27.4142857 0.91501581,27.33 1.14108696,27.33 C1.19760474,27.33 1.25412253,27.33 1.3385415,27.3578571 C1.93162055,27.4707143 4.81045059,28.2885714 7.52044269,28.2885714 C9.83481028,28.2885714 11.8952055,27.6114286 11.8952055,25.2164286 C11.8952055,22.7921429 9.77829249,22.5392857 7.04039921,22.1442857 C3.99201581,21.6928571 0.0686798419,20.8764286 0.0686798419,16.085 C0.0686798419,11.1528571 3.73804348,9.85642857 8.08490514,9.85642857 C11.3872609,9.85642857 14.1258696,10.6457143 14.7461344,10.815 C15.0852411,10.8992857 15.2547945,11.125 15.2547945,11.4064286 L15.2547945,11.5478571 L14.85917,13.3792857 C14.8312688,13.5764286 14.6338142,13.7735714 14.4077431,13.7735714 C14.3798419,13.7735714 14.3512253,13.7457143 14.3226087,13.7457143 C12.9683281,13.4635714 10.8793162,12.9 8.39539526,12.9 C6.3063834,12.9 4.10505138,13.295 4.10505138,15.6621429 C4.10505138,18.0014286 6.47593676,18.3392857 8.98775889,18.7057143 C12.29083,19.2128571 16.0446126,19.6921429 16.0446126,24.9342857 C16.0446126,29.8664286 12.0368577,31.3028571 7.83093281,31.3028571" id="Fill-4" fill="#002776" sketch:type="MSShapeGroup"></path>
                <path d="M43.6954032,30.9657143 C42.707415,31.1907143 41.352419,31.3592857 39.7720672,31.3592857 C36.7229684,31.3592857 32.9691858,31.05 32.9691858,26.5685714 C32.9691858,22.9328571 35.2556522,22.5392857 37.513502,22.1721429 L42.5385771,21.355 L42.5385771,20.4528571 C42.5385771,19.6635714 42.4534427,19.1 41.7473281,18.7907143 C41.2959012,18.5928571 40.6184032,18.5085714 39.6025138,18.5085714 C37.6830553,18.5085714 35.5940435,19.0721429 34.7477075,19.2978571 C34.6625731,19.2978571 34.6067708,19.3257143 34.5495375,19.3257143 C34.4086008,19.3257143 34.267664,19.2692857 34.2390474,19.0721429 L33.8441383,17.325 L33.8441383,17.2121429 C33.8441383,16.9585714 34.0415929,16.8457143 34.1832451,16.7892857 C34.8607431,16.5357143 37.4569842,15.8314286 40.3365296,15.8314286 C42.3404071,15.8314286 43.6954032,16.1128571 44.5989723,16.6207143 C46.0383874,17.4092857 46.3209763,18.7342857 46.3209763,20.2557143 L46.3209763,28.0342857 C46.3209763,30.1478571 45.6148617,30.5142857 43.6954032,30.9657143 L43.6954032,30.9657143 Z M42.5385771,23.8071429 L39.0380514,24.3707143 C37.8805099,24.54 36.8081028,24.7085714 36.8081028,26.54 C36.8081028,28.7392857 38.5859091,28.9078571 39.9416206,28.9078571 C41.0419289,28.9078571 41.945498,28.7107143 42.5385771,28.5128571 L42.5385771,23.8071429 L42.5385771,23.8071429 Z" id="Fill-5" fill="#002776" sketch:type="MSShapeGroup"></path>
                <path d="M56.3911581,18.7342857 C54.6698696,18.7342857 53.2018379,18.9035714 52.4113043,19.1 L52.4113043,30.5707143 C52.4113043,30.8242857 52.241751,30.9935714 51.9877787,30.9935714 L49.1089486,30.9935714 C48.9393953,30.9935714 48.6289051,30.8242857 48.6289051,30.5707143 L48.6289051,18.3957143 C48.6289051,17.2964286 49.2777866,16.9585714 50.6327826,16.5642857 C51.8747431,16.1692857 53.879336,15.8878571 55.4875889,15.8592857 L55.9676324,15.8592857 C56.3632569,15.8592857 56.3632569,15.8592857 56.5607115,15.9435714 C56.673747,16 56.8146838,16.1128571 56.8146838,16.395 L56.8146838,18.2264286 C56.8146838,18.5085714 56.7860672,18.7342857 56.3911581,18.7342857" id="Fill-6" fill="#002776" sketch:type="MSShapeGroup"></path>
                <path d="M71.1651937,24.6807143 C71.1651937,24.99 70.9956403,25.3285714 70.5721146,25.3285714 L61.1164743,25.3285714 C61.1164743,26.6257143 61.4834822,27.33 62.2453992,27.9214286 C62.979415,28.5128571 64.0518221,28.7664286 65.5763715,28.7664286 C67.3262767,28.7664286 68.6526561,28.3442857 69.5276087,28.09 C69.5848419,28.0621429 69.6127431,28.0621429 69.6692609,28.0621429 C69.8388142,28.0621429 69.979751,28.175 70.06417,28.4571429 L70.4311779,29.8942857 C70.4311779,29.9221429 70.4597945,29.9792857 70.4597945,30.035 C70.4597945,30.2607143 70.3181423,30.3735714 70.1206877,30.4578571 C69.1613162,30.8528571 67.2418577,31.3592857 65.0119091,31.3592857 C59.4796047,31.3592857 57.3061739,29.1892857 57.3061739,23.6664286 C57.3061739,18.3678571 58.7734901,15.8314286 64.2778933,15.8314286 C67.1288221,15.8314286 68.8787273,16.5642857 69.895332,17.9171429 C70.8547036,19.185 71.1651937,20.9885714 71.1651937,23.3271429 L71.1651937,24.6807143 L71.1651937,24.6807143 Z M67.1853399,20.4814286 C66.818332,18.9314286 65.9712806,18.4242857 64.3065099,18.4242857 C62.4149526,18.4242857 61.624419,18.9878571 61.3139289,20.3964286 C61.1164743,21.1857143 61.1164743,22.0035714 61.0885731,22.9328571 L67.4114111,22.905 C67.4114111,22.0035714 67.3827945,21.2421429 67.1853399,20.4814286 L67.1853399,20.4814286 Z" id="Fill-7" fill="#002776" sketch:type="MSShapeGroup"></path>
                <path d="M103.275881,30.9657143 C102.287893,31.1907143 100.932897,31.3592857 99.3525455,31.3592857 C96.3034466,31.3592857 92.549664,31.05 92.549664,26.5685714 C92.549664,22.9328571 94.8361304,22.5392857 97.0946957,22.1721429 L102.119055,21.355 L102.119055,20.4528571 C102.119055,19.6635714 102.033921,19.1 101.328522,18.7907143 C100.877095,18.5928571 100.199597,18.5085714 99.1837075,18.5085714 C97.2635336,18.5085714 95.1745217,19.0721429 94.3281858,19.2978571 C94.2430514,19.2978571 94.1865336,19.3257143 94.1307312,19.3257143 C93.9897945,19.3257143 93.8488577,19.2692857 93.8202411,19.0721429 L93.425332,17.325 L93.425332,17.2121429 C93.425332,16.9585714 93.6220711,16.8457143 93.7630079,16.7892857 C94.4412213,16.5357143 97.0381779,15.8314286 99.9170079,15.8314286 C101.920885,15.8314286 103.275881,16.1128571 104.179451,16.6207143 C105.619581,17.4092857 105.901455,18.7342857 105.901455,20.2557143 L105.901455,28.0342857 C105.901455,30.1478571 105.19534,30.5142857 103.275881,30.9657143 L103.275881,30.9657143 Z M102.119055,23.8071429 L98.6192451,24.3707143 C97.4609881,24.54 96.388581,24.7085714 96.388581,26.54 C96.388581,28.7392857 98.1671028,28.9078571 99.5213834,28.9078571 C100.622407,28.9078571 101.525976,28.7107143 102.119055,28.5128571 L102.119055,23.8071429 L102.119055,23.8071429 Z" id="Fill-8" fill="#002776" sketch:type="MSShapeGroup"></path>
                <path d="M120.996711,30.9935714 L118.088549,30.9935714 C117.834577,30.9935714 117.637838,30.8242857 117.637838,30.5707143 L117.637838,20.6221429 C117.637838,18.9878571 117.016142,18.4242857 115.520925,18.4242857 C113.826822,18.4242857 111.992498,18.9035714 111.992498,18.9035714 L111.992498,30.5707143 C111.992498,30.8242857 111.822945,30.9935714 111.568972,30.9935714 L108.689427,30.9935714 C108.406838,30.9935714 108.210099,30.8242857 108.210099,30.5707143 L108.210099,18.4242857 C108.210099,17.3528571 108.745945,16.9864286 110.327012,16.5642857 C111.766427,16.1692857 114.137312,15.8314286 115.943735,15.8314286 C119.472162,15.8314286 121.420237,16.7328571 121.420237,20.115 L121.420237,30.5707143 C121.420237,30.8242857 121.250684,30.9935714 120.996711,30.9935714" id="Fill-9" fill="#002776" sketch:type="MSShapeGroup"></path>
                <path d="M137.364692,30.7392857 C137.364692,30.8528571 137.252372,30.9935714 137.082103,30.9935714 L133.299704,30.9935714 C133.158767,30.9935714 133.01783,30.9935714 132.876178,30.8242857 L128.501415,24.8771429 L127.541328,24.8771429 L127.541328,30.5707143 C127.541328,30.8242857 127.400391,30.9935714 127.118518,30.9935714 L124.211071,30.9935714 C123.957814,30.9935714 123.758929,30.8242857 123.758929,30.5707143 L123.758929,10.8707143 C123.758929,10.5328571 123.899866,10.3635714 124.239688,10.2792857 L127.004767,9.8 L127.118518,9.8 C127.37249,9.8 127.541328,9.96928571 127.541328,10.2792857 L127.541328,22.3407143 L128.501415,22.3407143 L132.961312,16.395 C133.074348,16.2257143 133.187383,16.1978571 133.32832,16.1978571 L136.772328,16.2821429 C136.969783,16.2821429 137.054202,16.4228571 137.054202,16.5357143 C137.054202,16.5921429 137.0263,16.6207143 136.997684,16.6764286 L131.662834,23.3842857 L137.308889,30.5985714 C137.336791,30.6271429 137.364692,30.6835714 137.364692,30.7392857" id="Fill-10" fill="#002776" sketch:type="MSShapeGroup"></path>
                <path id="Fill-11" fill="#002776" sketch:type="MSShapeGroup"></path>
                <path d="M25.6247352,15.8314286 C23.7338933,15.8314286 21.5604625,16.1414286 19.8663597,16.7328571 C18.596498,17.1278571 18.0885534,17.55 18.0885534,19.0157143 L18.0885534,36.4607143 C18.0885534,36.7428571 18.3096166,36.9728571 18.7166877,36.8992857 C19.1230435,36.8264286 21.3909091,36.4078571 21.3909091,36.4078571 C21.7300158,36.3514286 21.8709526,36.1828571 21.8709526,35.8442857 L21.8709526,30.9307143 C22.8725336,31.1742857 24.1359565,31.3592857 25.5403162,31.3592857 C30.790747,31.3592857 31.7780198,28.0621429 31.7780198,23.6092857 C31.7780198,19.1285714 31.0726206,15.8314286 25.6247352,15.8314286 L25.6247352,15.8314286 Z M24.5523281,28.7664286 C23.0284941,28.7664286 21.8709526,28.4292857 21.8709526,28.4292857 L21.8709526,18.9314286 C21.8709526,18.9314286 23.5357233,18.4807143 24.8342016,18.4807143 C26.9797312,18.4807143 27.9112016,18.9592857 27.9112016,23.5257143 C27.9112016,27.8085714 27.120668,28.7664286 24.5523281,28.7664286 L24.5523281,28.7664286 Z" id="Fill-12" fill="#002776" sketch:type="MSShapeGroup"></path>
                <path d="M83.5704901,30.9935714 L74.1713676,30.9935714 C73.9166798,30.9935714 73.6913241,30.7957143 73.6913241,30.5428571 L73.6913241,10.6171429 C73.6913241,10.3635714 73.9166798,10.1664286 74.1713676,10.1664286 L83.5991067,10.1664286 C88.3716403,10.1664286 90.3168538,12.035 90.3168538,15.4192857 C90.3168538,18.4064286 88.6549447,19.4757143 86.0830277,20.2114286 C88.938249,20.6814286 91.022253,22.2285714 91.022253,25.5542857 C91.022253,29.3307143 88.3687787,30.9935714 83.5704901,30.9935714 L83.5704901,30.9935714 Z M83.2034822,13.0692857 L77.7555968,13.0692857 L77.7555968,19.1 L83.0060277,18.875 C85.1515573,18.7907143 86.2518656,18.0292857 86.2518656,15.8878571 C86.2518656,13.915 85.2924941,13.0692857 83.2034822,13.0692857 L83.2034822,13.0692857 Z M83.0625455,21.8335714 L77.7555968,21.665 L77.7555968,28.09 L83.0625455,28.09 C85.9134743,28.09 86.8449447,26.8507143 86.8449447,25.1314286 C86.8449447,22.8207143 86.0830277,21.9185714 83.0625455,21.8335714 L83.0625455,21.8335714 Z" id="Fill-13" fill="#002776" sketch:type="MSShapeGroup"></path>
            </g>
        </g>
    </g>
</svg>