<svg xmlns="http://www.w3.org/2000/svg" height="20" viewBox="0 -960 960 960" width="20"><path d="M652.616-458.308V-432q0 8.677 6.507 15.185 6.508 6.507 15.185 6.507t15.184-6.507Q696-423.323 696-432v-26.308h26.308q8.677 0 15.184-6.507Q744-471.323 744-480t-6.508-15.185q-6.507-6.507-15.184-6.507H696V-528q0-8.677-6.508-15.184-6.507-6.508-15.184-6.508t-15.185 6.508q-6.507 6.507-6.507 15.184v26.308h-26.308q-8.677 0-15.185 6.507-6.507 6.508-6.507 15.185t6.507 15.185q6.508 6.507 15.185 6.507h26.308Zm-150.539-6.154 61.308 68q1 .616 13.141 6.308 11.551 0 15.82-10t-2.192-18.307l-55.77-62.308 56.77-62.154q6.461-7.923 1.647-17.423-4.814-9.5-15.647-9.5-3.076 0-6.715 1.721-3.638 1.72-6.284 4.587l-62.078 67.231V-552q0-7.733-5.051-12.789-5.052-5.057-12.777-5.057t-12.795 5.041q-5.069 5.041-5.069 12.751v143.677q0 7.71 5.052 12.966 5.051 5.257 12.776 5.257 7.726 0 12.795-5.057 5.069-5.056 5.069-12.789v-56.462Zm-194.693 38.616v-36.462h84.309q8.238 0 13.811-5.573t5.573-13.811v-68.769q0-8.239-5.573-13.812-5.573-5.573-13.811-5.573H289.539q-7.734 0-12.79 5.052-5.056 5.051-5.056 12.776 0 7.726 5.056 12.795t12.79 5.069h85.847v36.462h-84.309q-8.238 0-13.811 5.573t-5.573 13.811V-408q0 7.733 5.056 12.789 5.056 5.057 12.79 5.057h103.692q7.734 0 12.79-5.052 5.056-5.051 5.056-12.776t-5.056-12.795q-5.056-5.069-12.79-5.069h-85.847Zm-79.075 261.845q-27.008 0-45.658-18.65-18.65-18.65-18.65-45.658v-503.382q0-27.008 18.65-45.658 18.65-18.65 45.658-18.65h503.382q27.008 0 45.658 18.65 18.65 18.65 18.65 45.658v503.382q0 27.008-18.65 45.658-18.65 18.65-45.658 18.65H228.309Z"/></svg>