<svg xmlns="http://www.w3.org/2000/svg" height="20" viewBox="0 -960 960 960" width="20"><path d="M415.693-425.846h-78.154q-7.734 0-12.79 5.052-5.056 5.051-5.056 12.776t5.056 12.795q5.056 5.069 12.79 5.069H432q8.238 0 13.811-5.573t5.573-13.812v-140.922q0-8.239-5.573-13.812-5.573-5.573-13.811-5.573h-92.923q-8.238 0-13.811 5.573t-5.573 13.812v72.769q0 8.238 5.573 13.811t13.811 5.573h76.616v32.462Zm-60.309-67.846v-40.769h60.309v40.769h-60.309Zm182 29.23 61.308 68q1 .616 13.141 6.308 11.551 0 15.82-10t-2.192-18.307l-55.77-62.308 56.77-62.154q6.461-7.923 1.647-17.423-4.815-9.5-15.647-9.5-3.077 0-6.715 1.721-3.638 1.72-6.285 4.587l-62.077 67.231V-552q0-7.733-5.052-12.789-5.051-5.057-12.776-5.057-7.726 0-12.795 5.041t-5.069 12.751v143.677q0 7.71 5.051 12.966 5.052 5.257 12.777 5.257t12.794-5.057q5.07-5.056 5.07-12.789v-56.462ZM228.309-164.001q-27.008 0-45.658-18.65-18.65-18.65-18.65-45.658v-503.382q0-27.008 18.65-45.658 18.65-18.65 45.658-18.65h503.382q27.008 0 45.658 18.65 18.65 18.65 18.65 45.658v503.382q0 27.008-18.65 45.658-18.65 18.65-45.658 18.65H228.309Z"/></svg>