<svg xmlns="http://www.w3.org/2000/svg" height="20" viewBox="0 -960 960 960" width="20"><path d="M479.752-700.616q-32.213 0-54.906-22.94-22.692-22.94-22.692-55.153 0-32.214 22.94-54.906t55.154-22.692q32.213 0 54.906 22.94 22.692 22.94 22.692 55.153 0 32.214-22.94 54.906t-55.154 22.692ZM376.155-144v-431.539H189.508q-11.026 0-18.651-7.418-7.625-7.419-7.625-18.385 0-10.965 7.475-18.581 7.475-7.615 18.524-7.615h581.538q11.049 0 18.524 7.418 7.475 7.418 7.475 18.384 0 10.966-7.475 18.582-7.475 7.615-18.524 7.615H583.845v431.66q0 10.629-7.766 18.253-7.766 7.625-19.247 7.625-9.755 0-17.37-7.125-7.616-7.124-8.616-16.874l-8-186h-84.692l-8 186q-1 9.769-8.767 16.884-7.766 7.115-19.246 7.115-11.056 0-18.521-7.475-7.465-7.474-7.465-18.524Z"/></svg>