<svg xmlns="http://www.w3.org/2000/svg" height="20" viewBox="0 -960 960 960" width="20"><path d="M222.002-289.999v-280.003q0-11.05 7.418-18.525 7.418-7.474 18.384-7.474 10.966 0 18.582 7.474 7.615 7.475 7.615 18.525v280.003q0 11.049-7.418 18.524Q259.164-264 248.198-264q-10.965 0-18.581-7.475-7.615-7.475-7.615-18.524Zm231.999 0v-280.003q0-11.05 7.418-18.525 7.418-7.474 18.384-7.474 10.966 0 18.581 7.474 7.615 7.475 7.615 18.525v280.003q0 11.049-7.418 18.524Q491.163-264 480.197-264q-10.966 0-18.581-7.475t-7.615-18.524Zm-301.23 125.998q-11.05 0-18.525-7.419-7.475-7.418-7.475-18.384 0-10.966 7.475-18.581T152.771-216h654.458q11.05 0 18.525 7.418 7.475 7.418 7.475 18.384 0 10.966-7.475 18.581-7.475 7.616-18.525 7.616H152.771Zm533.228-125.998v-280.003q0-11.05 7.418-18.525 7.419-7.474 18.385-7.474 10.965 0 18.581 7.474 7.615 7.475 7.615 18.525v280.003q0 11.049-7.418 18.524Q723.162-264 712.196-264q-10.966 0-18.582-7.475-7.615-7.475-7.615-18.524Zm110.769-354.002H159.386q-13.589 0-23.102-9.448t-9.513-22.944v-19.796q0-8.811 4.914-17.467 4.913-8.655 13.317-12.19l307.229-150.153q13.09-7.23 27.72-7.23 14.63 0 27.818 7.23l305.614 149.153q8.538 4.846 14.192 13.269t5.654 18.911v14.302q0 15.686-10.339 26.024-10.338 10.339-26.122 10.339Z"/></svg>