<svg xmlns="http://www.w3.org/2000/svg" height="20" viewBox="0 -960 960 960" width="20"><path d="M480-168q49.385 0 94.308-16.077 44.924-16.077 85.232-42.462l-113.46-113.46q-16.539-5-32.655-7.5t-33.425-2.5q-53.231 0-103.577 12.884-50.346 12.885-96.577 37.983-14.846 7.184-16.461 23.858Q261.77-258.6 274-247.204q43.231 38.281 96.077 58.743Q422.923-168 480-168Zm282.617 43.922-64.694-64.078q-47.615 35.077-103.192 53.616Q539.154-116.001 480-116.001q-74.769 0-141.115-28.462-66.346-28.461-116.153-78.269-49.808-49.807-78.269-116.153Q116.001-405.231 116.001-480q0-59.154 18.539-114.231 18.539-55.077 54-102.308l-56.231-57.231q-7.923-7.923-7.808-18.192.116-10.269 8.423-18.576 8.308-8.308 18.384-8.308 10.077 0 18.385 8.308L799.385-160.23q7.923 7.923 8.115 17.884.193 9.961-8.115 18.268-8.307 8.308-18.384 8.308t-18.384-8.308Zm11.536-178.692q-8.231 0-15.769-3.115-7.539-3.116-13.769-9.346L601.769-458.078q-6.231-6.23-7.423-15.461-1.193-9.231 3.423-16.077 7.23-14.23 11.73-30.384t4.5-32q0-56.154-38.923-95.076-38.922-38.923-95.076-38.923-15.846 0-32 4.307-16.154 4.308-30.384 11.923-6.846 5-16.077 3.616-9.231-1.385-15.461-7.616l-70.847-70.846q-6.23-6.23-9.346-13.769-3.115-7.538-3.115-15.769 0-10.846 5.423-20.192t16.269-14.961q36.077-17.846 75.461-26.27 39.385-8.423 80.077-8.423 75.769 0 141.615 28.462 65.846 28.461 115.653 78.269 49.808 49.807 78.269 115.653Q843.999-555.769 843.999-480q0 40.692-8.923 80.077-8.924 39.384-25.77 75.461-4.615 10.846-14.461 16.269-9.846 5.423-20.692 5.423Z"/></svg>