<svg xmlns="http://www.w3.org/2000/svg" height="20" viewBox="0 -960 960 960" width="20"><path d="M480-833.998q45.769 0 78.269 32.5 32.5 32.5 32.5 78.269 0 45.769-32.5 78.268-32.5 32.5-78.269 32.5-45.769 0-78.269-32.5-32.5-32.499-32.5-78.268t32.5-78.269q32.5-32.5 78.269-32.5Zm.556 266.46q38.709 0 78.499 9.231 39.79 9.231 74.713 26.307 35.923 18.846 50.692 35.678 14.769 16.831 14.769 40.245v216.537q0 25.748-17.831 43.989-17.832 18.241-42.604 18.241-11.618 0-19.36-6.961-7.743-6.962-7.743-26.423v-16.385q0-37.94-33.357-57.508-33.358-19.568-98.334-19.568-53.923 0-88.038 15.038-34.115 15.039-42.192 43.116-2.615 9.615 2.092 16.954 4.707 7.34 13.754 11.968 26.462 11.616 57.615 17.846 31.154 6.231 58.847 5.847 12.865 0 22.047 9.188 9.182 9.189 9.182 22.231 0 13.042-9.178 22.195-9.178 9.154-22.206 9.154-36.846 0-76.076-7.846-39.231-7.846-70.961-22.307-36.731-16.462-55.423-33.462-18.692-17-18.692-46.307v-216.537q0-23.414 14.769-40.745 14.769-17.332 49.678-34.203 35.552-17.051 76.09-26.282 40.538-9.231 79.248-9.231Zm-.344 221.537q27.249 0 46.442-19.404 19.192-19.405 19.192-46.654 0-27.249-19.405-46.441-19.404-19.192-46.653-19.192t-46.442 19.404q-19.192 19.405-19.192 46.654 0 27.249 19.405 46.441 19.404 19.192 46.653 19.192Z"/></svg>