<svg xmlns="http://www.w3.org/2000/svg" height="20" viewBox="0 -960 960 960" width="20"><path d="M480.343-116.001q-75.112 0-141.48-28.42-66.369-28.42-116.182-78.21-49.814-49.791-78.247-116.087t-28.433-141.673q0-75.378 28.425-141.246 28.425-65.869 78.225-115.682 49.8-49.814 115.962-78.247T480-843.999q28.231 0 57.538 4.693 29.308 4.692 56.783 12.942 11.602 3.365 17.948 13.413t6.346 22.106v30.768q0 23.123 15.477 38.599 15.477 15.477 38.599 15.477h32.925v34.079q0 22.896 15.206 38.101 15.205 15.206 38.101 15.206h31.922q12.461 0 21.972 7.161 9.511 7.161 14.182 18.762 8 27.443 12.5 55.872 4.5 28.43 4.5 56.82 0 75.225-28.42 141.387t-78.21 115.962q-49.791 49.8-115.853 78.225-66.062 28.425-141.173 28.425ZM480-300.309q47.853 0 90.849-18.499 42.996-18.5 69.394-56.192 4.679-9.923-.109-18.962Q635.345-403 624.999-403H335.001q-10.846 0-15.885 9.038-5.038 9.039.641 18.962 26.398 37.692 68.868 56.192 42.47 18.499 91.375 18.499ZM351.937-523.693q21.832 0 37.024-15.283 15.193-15.282 15.193-37.115 0-21.832-15.283-37.024t-37.115-15.192q-21.832 0-37.025 15.283-15.192 15.282-15.192 37.115 0 21.832 15.283 37.024t37.115 15.192Zm256.307 0q21.832 0 37.025-15.283 15.192-15.282 15.192-37.115 0-21.832-15.283-37.024t-37.115-15.192q-21.832 0-37.024 15.283-15.193 15.282-15.193 37.115 0 21.832 15.283 37.024t37.115 15.192Zm169.99-254.308h-46.117q-11.1 0-18.608-7.478-7.508-7.479-7.508-18.534 0-11.056 7.508-18.521 7.508-7.465 18.608-7.465h46.117V-876q0-11.05 7.512-18.524 7.512-7.475 18.478-7.475 10.966 0 18.371 7.475 7.404 7.474 7.404 18.524v46.001h45.79q10.961 0 18.586 7.418 7.624 7.418 7.624 18.384 0 10.966-7.475 18.465-7.474 7.498-18.524 7.498h-46.001v46.117q0 11.1-7.478 18.608-7.479 7.508-18.534 7.508-10.756 0-18.255-7.475-7.498-7.474-7.498-18.524v-46.001Z"/></svg>