<svg xmlns="http://www.w3.org/2000/svg" height="20" viewBox="0 -960 960 960" width="20"><path d="M685.539-306.463h-81.463q-9.384 0-17.191-7.475-7.808-7.474-7.808-18.524 0-9.384 7.475-17.692 7.475-8.307 18.524-8.307h80.463v-80.463q0-11.049 7.418-18.524 7.418-7.475 18.384-7.475 10.966 0 18.455 7.475 7.489 7.475 7.489 18.524v80.463h80.63q11.086 0 18.585 7.478 7.499 7.479 7.499 18.534 0 11.056-7.499 18.521-7.499 7.465-18.585 7.465h-80.63v80.462q0 11.05-7.502 18.525-7.503 7.475-18.469 7.475-10.966 0-18.371-7.475-7.404-7.475-7.404-18.525v-80.462Zm-287.231 0H289.539q-72.018 0-122.778-50.819-50.76-50.82-50.76-122.922 0-72.103 50.76-122.718 50.76-50.615 122.778-50.615h108.769q9.384 0 17.692 8.307 8.307 8.308 8.307 18.384 0 10.077-8.307 17.692-8.308 7.615-17.692 7.615H289.493q-50.339 0-85.916 35.577T168-480q0 50.385 35.577 85.962 35.577 35.577 85.916 35.577h108.815q9.384 0 17.692 8.307 8.307 8.308 8.307 18.384 0 10.077-8.307 17.692-8.308 7.615-17.692 7.615Zm-26.025-147.538q-11.033 0-18.657-7.418-7.625-7.418-7.625-18.384 0-10.966 7.463-18.581t18.496-7.615h215.757q11.033 0 18.658 7.418 7.624 7.418 7.624 18.384 0 10.966-7.463 18.581t-18.496 7.615H372.283ZM843.999-480H792q0-50.385-35.577-85.962-35.577-35.577-85.914-35.577H560.692q-9.384 0-17.192-7.474-7.807-7.475-7.807-18.525 0-9.384 7.475-17.692 7.474-8.307 18.524-8.307h108.769q72.018 0 122.778 50.76 50.76 50.759 50.76 122.777Z"/></svg>