<svg xmlns="http://www.w3.org/2000/svg" height="20" viewBox="0 -960 960 960" width="20"><path d="M311.444-684.461q-32.06 0-54.829-23.017t-22.769-55.076q0-32.06 23.017-54.829 23.016-22.769 55.076-22.769t54.829 23.017q22.769 23.017 22.769 55.076 0 32.06-23.017 54.829t-55.076 22.769Zm238.557 472.46h-241q-23.308 0-40.615-13.116-17.308-13.115-21.538-36.422l-76.385-379.77q-2.231-11.999 5.643-21.345Q183.98-672 196.91-672q9.09 0 16.206 5.692 7.115 5.692 8.345 15.23l77.231 374.769q1.154 4.616 5.577 8.463 4.424 3.846 9.04 3.846h236.692q11.069 0 18.534 7.405Q576-249.191 576-238.211q0 10.979-7.465 18.594-7.465 7.616-18.534 7.616Zm178.537 22.539L658.461-312H415.076q-30.538 0-53.461-18.884-22.922-18.885-30.538-47.654l-41.538-189.385q-6.846-35.538 13.076-62.999 19.923-27.462 53.154-27.462 29.538 0 50.538 16.885 20.999 16.884 27.23 43.423l47.308 210.077h185.231q16.466 0 30.579 7.962 14.113 7.961 22.959 23.423l75.231 129.153q8.076 13.538 3.752 29.027-4.324 15.488-17.906 23.126-13.538 8.077-29.027 3.752-15.488-4.324-23.126-17.906Z"/></svg>