<svg xmlns="http://www.w3.org/2000/svg" height="20" viewBox="0 -960 960 960" width="20"><path d="M426.924-404.001q-13.666 0-22.91-9.245-9.244-9.244-9.244-22.909v-163.076q0-22.007 15.38-37.387 15.381-15.381 37.388-15.381H709.23q51.749 0 87.874 36.125 36.125 36.125 36.125 87.874v91.845q0 13.665-9.245 22.909-9.244 9.245-22.909 9.245H426.924Zm380.305 115.384H152.771q-11.05 0-18.525-7.418-7.475-7.418-7.475-18.384 0-10.966 7.475-18.582 7.475-7.615 18.525-7.615h654.458q11.05 0 18.525 7.418 7.475 7.419 7.475 18.385 0 10.965-7.475 18.581-7.475 7.615-18.525 7.615ZM229.078-404.001q-43.077 0-72.692-29.615-29.615-29.615-29.615-72.692 0-43.076 29.615-72.691 29.615-29.615 72.692-29.615 43.076 0 72.691 29.615 29.615 29.615 29.615 72.691 0 43.077-29.615 72.692-29.615 29.615-72.691 29.615Z"/></svg>