<svg xmlns="http://www.w3.org/2000/svg" height="20" viewBox="0 -960 960 960" width="20"><path d="M120.769-308.001q-22.007 0-37.387-15.381-15.38-15.38-15.38-37.387v-265.23q0-11.05 7.418-18.525 7.418-7.475 18.384-7.475 10.966 0 18.581 7.475T120-625.999V-360h346.001v-239.231q0-22.007 15.38-37.387 15.38-15.381 37.388-15.381H768q51.749 0 87.874 36.125 36.125 36.125 36.125 87.874v167.231q0 22.007-15.381 37.387-15.38 15.381-37.387 15.381H120.769Zm167.276-117.693q42.647 0 72.454-29.852 29.807-29.853 29.807-72.499 0-42.647-29.852-72.454-29.853-29.807-72.499-29.807-42.647 0-72.454 29.852-29.807 29.853-29.807 72.499 0 42.647 29.852 72.454 29.853 29.807 72.499 29.807Z"/></svg>