<svg xmlns="http://www.w3.org/2000/svg" height="20" viewBox="0 -960 960 960" width="20"><path d="M454.252-406.001V-324q0 11.05 7.503 18.524 7.503 7.475 18.492 7.475t18.41-7.475q7.42-7.474 7.42-18.524v-82.001h81.689q10.984 0 18.609-7.418 7.624-7.418 7.624-18.384 0-10.966-7.475-18.455-7.474-7.49-18.524-7.49h-82.001v-82.168q0-11.085-7.478-18.584-7.479-7.499-18.534-7.499-11.056 0-18.521 7.499-7.465 7.499-7.465 18.584v82.168H372q-11.05 0-18.524 7.503-7.475 7.503-7.475 18.258 0 11.056 7.499 18.521 7.499 7.465 18.584 7.465h82.168Zm25.77 290q-65.791 0-123.27-24.87-57.479-24.869-100.246-67.635-42.766-42.767-67.635-100.224-24.87-57.457-24.87-123.248t24.87-123.27q24.869-57.479 67.635-100.246 42.767-42.766 100.224-67.635 57.457-24.87 123.248-24.87t123.27 24.87q57.479 24.869 100.246 67.635 42.766 42.767 67.635 100.224 24.87 57.457 24.87 123.248t-24.87 123.27q-24.869 57.479-67.635 100.246-42.767 42.766-100.224 67.635-57.457 24.87-123.248 24.87ZM107.616-650.769q-8.692-8.692-8.692-18.577 0-9.884 8.692-18.576l117.462-117.462q8.307-8.307 18.384-8.499 10.077-.193 18.769 8.499 8.692 8.693 8.692 18.577 0 9.884-8.692 18.576L143.769-649.769q-8.307 8.307-17.884 8-9.576-.308-18.269-9Zm745.768 0q-8.693 8.692-18.577 8.692-9.884 0-18.576-8.692L698.769-768.231q-8.307-8.307-8.5-18.384-.192-10.076 8.5-18.769 8.692-8.692 18.577-8.692 9.884 0 18.576 8.692l117.462 118.462q8.307 8.307 8.499 17.884.193 9.577-8.499 18.269Z"/></svg>