<svg xmlns="http://www.w3.org/2000/svg" height="20" viewBox="0 -960 960 960" width="20"><path d="M216.599-274.001q-86.417 0-146.508-59.85-60.09-59.85-60.09-145.884 0-86.034 60.094-146.149 60.095-60.115 146.481-60.115 34.391 0 66.023 11.923 31.631 11.923 57.477 34.769l87.463 76.385-39.384 34.153-81.231-71.924q-18.539-16.077-41.353-24.692-22.815-8.616-47.362-8.616-64.715 0-110.463 45.035-45.747 45.035-45.747 109.116t45.747 109.466q45.748 45.385 110.463 45.385 24.547 0 47.362-8.616 22.814-8.615 41.353-24.692l313-281q25.461-22.231 57.194-34.462 31.733-12.23 66.267-12.23 86.402 0 146.508 60.029 60.106 60.029 60.106 145.935 0 86.804-60.509 146.419-60.508 59.615-147.49 59.615-34.372 0-65.609-12.115-31.237-12.115-57.467-34.577l-87.693-77.385 40.614-33.537 81.231 72.308q18.539 16.538 41.353 24.923 22.815 8.385 47.362 8.385 64.715 0 110.463-45.035 45.747-45.035 45.747-109.116t-45.747-109.466q-45.748-45.385-110.463-45.385-24.547 0-47.362 8.616-22.814 8.615-41.353 24.692L340.317-320.772q-25.702 23.31-57.441 35.041-31.738 11.73-66.277 11.73Z"/></svg>