<svg xmlns="http://www.w3.org/2000/svg" height="20" viewBox="0 -960 960 960" width="20"><path d="M722.499-342.154q-58.192 0-98.269-40.077-40.076-40.077-40.076-97.769 0-57.692 40.076-97.769 40.077-40.077 98.269-40.077 58.192 0 97.769 40.077 39.577 40.077 39.577 97.769 0 57.692-39.577 97.769-39.577 40.077-97.769 40.077Zm-.5-35.692q17.077 0 30.919-4.404 13.842-4.404 27.082-13.211l-142.668-142.54q-8.179 13.24-12.833 27.082T619.845-480q0 42.628 29.763 72.391 29.763 29.763 72.391 29.763Zm84.667-44.153q8.949-13.693 13.218-27.308 4.27-13.616 4.27-30.693 0-42.628-29.764-72.391-29.763-29.763-72.391-29.763-17.077 0-30.919 4.404-13.841 4.404-27.081 13.211l142.667 142.54ZM276.309-68.001q-26.527 0-45.417-18.89-18.891-18.891-18.891-45.418v-695.382q0-26.527 18.891-45.417 18.89-18.891 45.417-18.891h407.382q26.527 0 45.417 18.891 18.891 18.89 18.891 45.417v128.153q0 11.05-7.419 18.525-7.418 7.474-18.384 7.474-10.966 0-18.581-7.474Q696-688.488 696-699.538v-30.463H264v500.002h432v-30.463q0-11.05 7.418-18.525 7.418-7.474 18.384-7.474 10.966 0 18.581 7.474 7.616 7.475 7.616 18.525v128.153q0 26.527-18.891 45.417-18.89 18.89-45.417 18.89H276.309Z"/></svg>