<svg xmlns="http://www.w3.org/2000/svg" height="20" viewBox="0 -960 960 960" width="20"><path d="M712.352-602.308q-45.814 0-77.929-32.07t-32.115-77.884q0-45.814 32.07-77.929t77.884-32.115q45.814 0 77.929 32.07 32.115 32.069 32.115 77.884 0 45.814-32.07 77.929-32.069 32.115-77.884 32.115ZM479.933-116.001q-74.702 0-141.07-28.42-66.369-28.42-116.182-78.21-49.814-49.791-78.247-116.129-28.433-66.337-28.433-141.173 0-75.836 28.77-141.489 28.769-65.654 78.768-115.654 50-50 116.346-78.269Q406.231-843.614 482-843.614q30.769 0 43.269 3.731t17.5 14.807q2.615 6.846 2.435 15.449-.179 8.602-3.897 15.705-9.846 19.231-14.269 39.884-4.423 20.654-4.423 41.731 0 79.042 55.325 134.367 55.325 55.325 134.367 55.325 21.077 0 41.731-4.423 20.653-4.423 39.884-14.269 6.846-4.231 14.192-3.654t15.962 3.192q12.461 5 16 17.193 3.538 12.192 3.538 42.576 0 75.769-28.269 142.115t-78.269 116.346q-50 49.999-115.72 78.768-65.72 28.77-141.423 28.77Z"/></svg>