<svg xmlns="http://www.w3.org/2000/svg" height="20" viewBox="0 -960 960 960" width="20"><path d="M467.815-406.955q4.814 4.954 12.115 4.954t12.255-4.954l85.536-85.536q6.739-6.739 3.134-17.278-3.606-10.538-13.702-10.538H392.666q-9.947 0-13.537 10.538-3.589 10.539 3.15 17.278l85.536 85.536Zm12.528 290.954q-75.112 0-141.48-28.42-66.369-28.42-116.182-78.21-49.814-49.791-78.247-116.087t-28.433-141.673q0-75.378 28.42-141.246 28.42-65.869 78.21-115.682 49.791-49.814 116.087-78.247t141.673-28.433q75.378 0 141.246 28.42 65.869 28.42 115.682 78.21 49.814 49.791 78.247 115.853t28.433 141.173q0 75.112-28.42 141.48-28.42 66.369-78.21 116.182-49.791 49.814-115.853 78.247t-141.173 28.433Z"/></svg>