<svg xmlns="http://www.w3.org/2000/svg" height="20" viewBox="0 -960 960 960" width="20"><path d="M449.767-454.001h134.458q11.02 0 18.474-7.418 7.454-7.418 7.454-18.384 0-10.966-7.454-18.581t-18.474-7.615H449.767l48.925-48.925q8.307-8.307 8.5-18.743.192-10.435-8.199-18.493-8.609-8.609-18.493-8.609-9.884 0-18.576 8.693l-89.907 89.906q-9.708 9.709-9.708 22.352t9.846 22.125l89.769 89.769q8.307 8.308 18.576 7.808t18.66-8.891q8.609-8.609 8.609-18.493 0-9.884-8.693-18.576l-49.309-47.925Zm-221.458 290q-26.527 0-45.417-18.891-18.891-18.89-18.891-45.417v-503.382q0-26.527 18.891-45.417 18.89-18.891 45.417-18.891h181q-1.231-28.307 19.076-50.153 20.308-21.847 51.807-21.847 31.5 0 51.807 21.847 20.308 21.846 18.692 50.153h181q26.527 0 45.417 18.891 18.891 18.89 18.891 45.417v503.382q0 26.527-18.891 45.417-18.89 18.891-45.417 18.891H228.309ZM480-764.154q10.4 0 17.2-6.8 6.8-6.8 6.8-17.2 0-10.4-6.8-17.2-6.8-6.8-17.2-6.8-10.4 0-17.2 6.8-6.8 6.8-6.8 17.2 0 10.4 6.8 17.2 6.8 6.8 17.2 6.8Z"/></svg>