<svg xmlns="http://www.w3.org/2000/svg" height="20" viewBox="0 -960 960 960" width="20"><path d="M344.46-212H228.31Q202-212 183-231q-19-19-19-45.31v-503.38Q164-806 183-825q19-19 45.31-19h503.38q27.31 0 45.81 19 18.5 19 18.5 45.31v503.38Q796-250 777.5-231q-18.5 19-45.81 19H615.54L502.31-98.77q-9.85 9.84-22.31 9.84-12.46 0-22.31-9.84L344.46-212Zm82.85-263.31 38.23 87.15q4.61 9.85 14.46 9.85 9.85 0 14.46-9.85l38.23-87.15 87.15-38.23q9.85-4.61 9.85-14.46 0-9.85-9.85-14.46l-87.15-38.23-38.23-87.15q-4.61-9.85-14.46-9.85-9.85 0-14.46 9.85l-38.23 87.15-87.15 38.23q-9.85 4.61-9.85 14.46 0 9.85 9.85 14.46l87.15 38.23Z"/></svg>