<svg xmlns="http://www.w3.org/2000/svg" height="20" viewBox="0 -960 960 960" width="20"><path d="M682.922-316.231q0 83.295-57.879 141.762-57.879 58.468-141.004 58.468-84.269 0-141.769-60.896-57.499-60.895-57.499-146.334v-378.615q0-59.23 41.076-100.691 41.077-41.462 100.307-41.462 60.231 0 100.807 43.962 40.577 43.961 40.577 105.191v355.384q0 34.761-24.219 59.418-24.219 24.658-59.034 24.658-35.669 0-59.899-25.622-24.231-25.622-24.231-62.454v-335.153q0-11.05 7.418-18.524 7.418-7.475 18.384-7.475 10.966 0 18.581 7.475 7.616 7.474 7.616 18.524v339.153q0 13.477 9.107 22.778 9.108 9.3 22.585 9.3 13.478 0 22.585-9.3 9.108-9.301 9.108-22.778V-702.23q.385-37.308-25.776-63.539T425.957-792q-37.459 0-63.323 27.423-25.865 27.423-25.865 64.731v383.615q.385 61.538 43.154 104.385Q422.693-169 484.178-168q61.465 1 104.49-44.346 43.025-45.347 42.256-108.885v-357.384q0-11.05 7.418-18.524 7.418-7.475 18.384-7.475 10.966 0 18.581 7.475 7.615 7.474 7.615 18.524v362.384Z"/></svg>