<svg xmlns="http://www.w3.org/2000/svg" height="20" viewBox="0 -960 960 960" width="20"><path d="M393.69-826q-11.05 0-18.52-7.42-7.48-7.42-7.48-18.38 0-10.97 7.48-18.58 7.47-7.62 18.52-7.62h172.62q11.05 0 18.52 7.42 7.48 7.42 7.48 18.38 0 10.97-7.48 18.58-7.47 7.62-18.52 7.62H393.69ZM480-116q-65.97 0-123.33-24.78-57.35-24.77-100.24-67.65-42.88-42.89-67.65-100.24Q164-366.03 164-432t24.78-123.33q24.77-57.35 67.65-100.24 42.89-42.88 100.24-67.65Q414.03-748 479.56-748q56.36 0 108.59 19.89 52.23 19.88 95.93 54.88l28.05-28.05q8.02-8.03 17.6-7.72 9.58.31 18.27 9t8.69 18.08q0 9.38-8.69 18.07l-26.77 27.77q35 42.7 54.88 95.16Q796-488.46 796-431.86q0 65.83-24.78 123.19-24.77 57.35-67.65 100.24-42.89 42.88-100.24 67.65Q545.97-116 480-116Zm-45.44-270.56 38.21 81.87q1.77 4.61 7.31 4.61 5.54 0 7.15-4.61l38.21-81.87 81.87-38.21q4.61-1.77 4.61-7.31 0-5.54-4.61-7.15l-81.87-38.21-38.21-81.87q-1.77-4.61-7.31-4.61-5.54 0-7.15 4.61l-38.21 81.87-81.87 38.21q-4.61 1.77-4.61 7.31 0 5.54 4.61 7.15l81.87 38.21Z"/></svg>