<svg xmlns="http://www.w3.org/2000/svg" height="20" viewBox="0 -960 960 960" width="20"><path d="M356.23-304.08q-42.15 47.92-94.61 47.42-52.47-.5-91-29.8-38.54-29.31-52-78.39-13.46-49.07 19.46-102.07l65.54-105.7Q185-590.69 174.5-614.15T164-665.08q0-55 37.96-92.96Q239.92-796 294.92-796q55 0 92.96 37.96 37.97 37.96 37.97 92.96 0 55-37.97 92.96-37.96 37.97-92.96 37.97-12.53 0-24.19-2.39-11.65-2.38-23.81-6.54l-65.15 103.77q-20.54 32.69-11.27 62.69t33.19 48.54q23.93 18.54 55.12 18.73 31.19.2 57.5-27.73l287.84-318.46q41.77-47.92 93.16-48.3 51.38-.39 90.3 28.92 38.93 29.31 53.47 78.38 14.53 49.08-18.77 103.46L756.38-387q18.62 18.08 29.12 41.35 10.5 23.26 10.5 50.73 0 55-38.16 92.96Q719.69-164 664.69-164q-54.61 0-92.57-38.16-37.97-38.15-37.97-92.76 0-54.62 37.97-92.77 37.96-38.16 92.57-38.16 12.54 0 24.58 2.58t24.19 6.73l64.77-104.15q20.54-32.69 11.46-63.19-9.07-30.5-33-49.04-23.92-18.54-55.61-18.43-31.7.12-57 28.43L356.23-304.08Z"/></svg>