<svg xmlns="http://www.w3.org/2000/svg" height="20" viewBox="0 -960 960 960" width="20"><path d="m395.55-441.612 24.255 57.547q4.272 9.987 14.503 9.987t14.036-9.829l24.352-57.335 57.547-24.255q9.987-4.272 9.987-14.503t-9.829-14.036l-57.335-24.352-24.255-57.547q-4.272-9.987-14.503-9.987t-14.036 9.829l-24.352 57.335-57.547 24.255q-9.987 4.272-9.987 14.503t9.829 14.036l57.335 24.352ZM228.309-236.001q-26.527 0-45.417-18.891-18.891-18.89-18.891-45.417v-359.382q0-26.527 18.891-45.417 18.89-18.891 45.417-18.891h351.998q18.609 0 34.458 8.77 15.85 8.769 26.619 23.538l126.692 173.922q12.461 17.291 12.461 37.876 0 20.585-12.461 37.662L641.384-267.54q-10.573 14.887-26.905 23.213-16.333 8.326-34.172 8.326H228.309Z"/></svg>