<svg xmlns="http://www.w3.org/2000/svg" height="20" viewBox="0 -960 960 960" width="20"><path d="m395.55-441.61 24.25 57.55q4.28 9.98 14.51 9.98t14.03-9.83l24.36-57.33 57.54-24.26q9.99-4.27 9.99-14.5t-9.83-14.04l-57.33-24.35-24.26-57.55q-4.27-9.98-14.5-9.98t-14.04 9.83l-24.35 57.33-57.55 24.26q-9.98 4.27-9.98 14.5t9.82 14.04l57.34 24.35ZM228.31-236q-26.53 0-45.42-18.89T164-300.31v-359.38q0-26.53 18.89-45.42T228.31-724h352q18.61 0 34.46 8.77 15.84 8.77 26.61 23.54l126.7 173.92q12.46 17.29 12.46 37.88 0 20.58-12.46 37.66l-126.7 174.69q-10.57 14.89-26.9 23.21-16.33 8.33-34.17 8.33h-352Z"/></svg>