<svg xmlns="http://www.w3.org/2000/svg" height="20" viewBox="0 -960 960 960" width="20"><path d="M506.384-68.001q-69.692 0-129.884-31.308-60.192-31.308-102.884-85.923L89.54-413.231q-7.461-9.077-7.346-20.461.115-11.385 8.961-20.231l3-3q12.385-12.999 30.076-15.73 17.692-2.731 32.923 6.038l150.847 88.232v-381.616q0-9.384 7.616-17.691 7.615-8.308 18.384-8.308 9.384 0 17.692 8.308Q360-769.383 360-759.999v269.998h93.463v-365.998q0-9.384 7.615-17.691 7.615-8.308 18.384-8.308 9.769 0 17.884 8.308 8.115 8.307 8.115 17.691v365.998h93.463v-317.998q0-9.384 7.615-17.691 7.615-8.308 18.384-8.308 9.769 0 17.884 8.308 8.115 8.307 8.115 17.691v317.998H744v-231.998q0-9.385 7.615-17.692 7.615-8.308 18.384-8.308 9.385 0 17.692 8.308 8.308 8.307 8.308 17.692v364.768q0 121.461-84.577 205.345-84.577 83.885-205.038 83.885Z"/></svg>