<svg xmlns="http://www.w3.org/2000/svg" height="20" viewBox="0 -960 960 960" width="20"><path d="M347.539-311.079q15.192 0 25.827-10.634Q384-332.347 384-347.539t-10.634-25.827Q362.731-384 347.539-384q-15.192 0-25.826 10.634-10.634 10.635-10.634 25.827 0 15.192 10.634 25.826t25.826 10.634Zm0-264.921q15.192 0 25.827-10.634Q384-597.269 384-612.461q0-15.192-10.634-25.826-10.635-10.634-25.827-10.634-15.192 0-25.826 10.634t-10.634 25.826q0 15.192 10.634 25.827Q332.347-576 347.539-576Zm264.922 264.921q15.192 0 25.826-10.634t10.634-25.826q0-15.192-10.634-25.827Q627.653-384 612.461-384t-25.827 10.634Q576-362.731 576-347.539q0 15.192 10.634 25.826 10.635 10.634 25.827 10.634Zm0-264.921q15.192 0 25.826-10.634 10.634-10.635 10.634-25.827 0-15.192-10.634-25.826t-25.826-10.634q-15.192 0-25.827 10.634Q576-627.653 576-612.461t10.634 25.827Q597.269-576 612.461-576ZM228.309-164.001q-27.008 0-45.658-18.65-18.65-18.65-18.65-45.658v-503.382q0-27.008 18.65-45.658 18.65-18.65 45.658-18.65h503.382q27.008 0 45.658 18.65 18.65 18.65 18.65 45.658v503.382q0 27.008-18.65 45.658-18.65 18.65-45.658 18.65H228.309Z"/></svg>