<svg xmlns="http://www.w3.org/2000/svg" height="20" viewBox="0 -960 960 960" width="20"><path d="m638-216.768 100.924-101.308q7.594-7.923 17.719-7.923 10.126 0 18.433 7.923 8.308 7.922 8.116 18.55-.193 10.628-8.116 18.218L660.307-166.539q-9.538 9.846-22.653 9.846-13.115 0-22.761-9.678l-46.169-46.836q-7.723-7.754-7.916-18.158-.192-10.404 8.116-18.711 7.922-7.923 18.006-8.052 10.084-.128 18.146 8.052L638-216.768ZM349.847-116.001q-18.765 0-31.459-12.695-12.694-12.694-12.694-31.459V-738.23q0-18.766 12.694-31.46 12.694-12.694 31.459-12.694h64.307v-17.461q0-18.765 12.694-31.459 12.695-12.695 31.46-12.695h43.384q18.765 0 31.46 12.695 12.694 12.694 12.694 31.459v17.461h64.386q18.782 0 31.428 12.694t12.646 31.46v242.465q0 9.304-5.153 15.15-5.154 5.846-15.264 7.231-40.316 6.538-74.872 24.615-34.556 18.077-61.581 46.539-29.293 31.384-46.595 72.769-17.302 41.384-17.302 88.307 0 23.345 3.961 45.133 3.961 21.788 11.884 42.02 5.846 13.461-1.476 25.73-7.323 12.27-21.754 12.27h-76.307Z"/></svg>