<svg xmlns="http://www.w3.org/2000/svg" height="20" viewBox="0 -960 960 960" width="20"><path d="M349.847-116.001q-18.861 0-31.507-12.647-12.646-12.646-12.646-31.507V-738.23q0-18.862 12.646-31.508t31.507-12.646h64.307v-17.461q0-18.861 12.646-31.507 12.646-12.647 31.508-12.647h43.384q18.862 0 31.508 12.647 12.646 12.646 12.646 31.507v17.461h64.307q18.861 0 31.507 12.646t12.646 31.508v204.385q0 10.462-7.081 18.548-7.081 8.086-17.072 9.991-84.077 19.154-138.307 87.422-54.23 68.269-54.23 156.961 0 27.615 6.077 54.115 6.076 26.499 17.845 52.038 6.462 13.23-.185 25.999-6.647 12.77-21.046 12.77h-90.46Zm328.413 24q-5.106 0-9.823-3.746-4.717-3.745-6.514-9.485L656-135.308q-19.566-5.294-34.091-13.186-14.525-7.891-27.063-20.584L565-159.155q-5.53 2.385-10.996.462-5.465-1.923-8.08-6.18l-9.154-16.716q-3-4.257-2.692-9.872.308-5.616 5.045-10.378l22.801-22.16q-4.693-17.462-4.693-36.885 0-19.424 4.693-36.886l-22.801-21.307q-4.737-4.615-5.045-10.23-.308-5.616 2.692-9.986l9.154-17.489q2.615-4.37 8.08-6.294 5.466-1.923 10.996.462l28.846 8.923q12.538-12.693 27.654-21.039 15.115-8.346 34.215-13.142l7.208-30.28q1.616-5.74 5.923-9.486 4.308-3.745 9.539-3.745h17.537q5.23 0 9.538 3.745 4.308 3.746 5.923 9.486l7.209 30.28q19.099 4.796 34.215 13.335 15.115 8.538 27.654 21.231l29.845-7.923q5.064-2.385 10.096-.629 5.032 1.757 7.981 6.706l9.153 16.403q3 4.211 2.692 9.826-.307 5.616-4.913 10.084l-21.932 20.454q5.692 17.462 5.192 37.385-.5 19.924-6.192 37.385l22.801 21.308q4.737 4.615 5.044 10.23.308 5.616-2.692 9.872l-9.153 16.716q-2.616 4.257-8.423 6.18-5.808 1.923-11.039-.461l-29.46-9.308q-12.539 12.693-27.064 20.584-14.524 7.892-34.091 13.186l-7.923 30.076q-1.615 5.74-5.923 9.485Q700.152-92 695.047-92H678.26Zm9.106-94.614q30.941 0 52.903-22.174 21.961-22.174 21.961-53.116 0-30.941-22.174-52.903-22.174-21.961-53.115-21.961-30.942 0-52.903 22.174-21.962 22.174-21.962 53.115 0 30.942 22.174 52.903 22.174 21.962 53.116 21.962Z"/></svg>