<svg xmlns="http://www.w3.org/2000/svg" height="20" viewBox="0 -960 960 960" width="20"><path d="M154.001-164.001q-35.833 0-60.916-25.084Q68-214.168 68-250.001v-459.998q0-35.833 25.084-60.916 25.083-25.084 60.916-25.084h315.998q35.833 0 60.916 25.084 25.084 25.083 25.084 60.916v252h73.077q30.804 0 52.402 21.598 21.598 21.597 21.598 52.401v98.923q0 13 8.269 21.27 8.27 8.269 21.27 8.269t21.27-8.269q8.269-8.27 8.269-20.882v-254.312q-34.461-5-56.923-30.461-22.461-25.462-22.461-59.923v-49.214q0-13.008 9.196-22.204 9.196-9.196 22.188-9.196h12v-46.462q0-7.733 5.052-12.789 5.051-5.056 12.776-5.056 7.726 0 12.795 5.056t5.069 12.789v46.462h52.615v-46.462q0-7.733 5.052-12.789 5.051-5.056 12.776-5.056 7.726 0 12.795 5.056t5.069 12.789v46.462h12q12.992 0 22.188 9.196 9.196 9.196 9.196 22.204v49.214q0 34.461-22.461 59.923-22.462 25.461-56.923 30.461v254.462q0 34.374-23.833 58.456t-57.846 24.082q-34.013 0-57.705-24.082t-23.692-58.456v-109.153q0-5.385-3.462-8.847-3.461-3.462-8.846-3.462h-82.77v155.307q0-62.999-39.038-101.845-39.038-38.845-100.653-38.845h-154.77q-35.215 0-60.53 25.315-25.315 25.315-25.315 60.53t25.315 60.53q25.315 25.315 60.53 25.315h148.77q11.05 0 18.524-7.418 7.475-7.419 7.475-18.385 0-10.966-7.475-18.581-7.474-7.615-18.524-7.615h-148.77q-14.923 0-24.385-9.461-9.462-9.462-9.462-24.385 0-14.924 9.462-24.385 9.462-9.462 24.385-9.462h154.77q37.048-1 62.37 25.347Q504-287.692 504-250.694q0 35.761-25.322 61.227-25.322 25.466-62.37 25.466H154.001Z"/></svg>