<svg xmlns="http://www.w3.org/2000/svg" height="20" viewBox="0 -960 960 960" width="20"><path d="M734.615-319.692q6.231-6.594 6.423-15.451.192-8.857-6.423-15.472-6.231-6.231-15.28-6.231t-15.643 6.231l-37.153 37.538q-6.231 6.274-6.423 15.099-.193 8.824 6.457 15.439 6.265 6.231 15.269 6.231 9.004 0 15.235-6.231l37.538-37.153Zm-62.841 203.691q-71.696 0-121.735-50.265-50.038-50.264-50.038-121.96t50.265-121.735q50.264-50.038 121.96-50.038t121.735 50.265q50.038 50.264 50.038 121.96t-50.265 121.735q-50.264 50.038-121.96 50.038ZM116.001-505.999v-177.95q0-27.05 18.65-45.55 18.65-18.5 45.658-18.5h599.382q27.008 0 45.658 18.65 18.65 18.65 18.65 45.658v164.645q0 14.662-12.962 20.585-12.961 5.923-24.807-2.539-30.211-19.538-64.058-29.115-33.848-9.576-69.968-9.576-38.358 0-73.127 10.961-34.77 10.962-64.172 30.27l-69.136-125.924q-3.847-6.308-9.154-9.462-5.308-3.153-12.615-3.153t-13.307 3.153q-6 3.154-9.846 9.462L300-400.691l-49.847-91.693q-3.846-6.692-9.579-10.154-5.733-3.461-12.574-3.461H116.001Zm64.308 293.998q-27.008 0-45.658-18.65-18.65-18.65-18.65-45.658v-177.692h96.153l64.693 118.77q3.846 5.307 9.346 8.769 5.5 3.461 13.764 3.461 7.35 0 12.85-3.461 5.5-3.462 9.346-8.769l121.462-224.078 50.463 93.925q-34.385 33.461-54.077 79.144-19.692 45.682-19.692 98.24 0 10.154.73 19.499.731 9.346 2.192 19.5 1.847 14.846-6.192 25.923-8.038 11.077-22.5 11.077h-214.23Z"/></svg>