<svg xmlns="http://www.w3.org/2000/svg" height="20" viewBox="0 -960 960 960" width="20"><path d="M228.309-164.001q-26.527 0-45.417-18.891-18.891-18.89-18.891-45.417v-442.459q0-13.004 5.116-25.078 5.115-12.075 14.109-20.699l60.391-61.146q9.846-9.7 21.057-14.004 11.21-4.304 23.848-4.304h382.187q12.991 0 24.669 4.304t20.62 14.004l60.539 61.693q10.231 9.004 14.846 21.153 4.616 12.148 4.616 25.231v108.937q0 15.081-10.27 24.764-10.269 9.682-25.884 10.606-32.462.692-62.27 9.231t-56.577 26.539q-11.692 9.154-24.346 2.704-12.653-6.449-12.653-19.165v-121.848H356.001v211.506q0 18.592 15.077 27.888 15.077 9.296 31.187 1.049L480-426.078l54.463 27.923q9.538 4.939 13.115 14.816 3.577 9.876.192 19.338-6.692 17.846-10.616 37.248-3.923 19.401-3.923 40.061 0 21.384 4.269 42.768 4.269 21.385 11.764 41.504 5.12 13.88-2.445 26.149-7.565 12.27-22.512 12.27H228.309Zm515.615-96.328h-82.001q-11.049 0-18.524-7.503-7.475-7.503-7.475-18.492t7.475-18.41q7.475-7.42 18.524-7.42h82.001v-81.689q0-10.983 7.418-18.608t18.384-7.625q10.966 0 18.455 7.475 7.49 7.475 7.49 18.524v82.001h82.168q11.086 0 18.585 7.479 7.498 7.478 7.498 18.534 0 11.055-7.498 18.52-7.499 7.465-18.585 7.465h-82.168v82.001q0 11.05-7.503 18.525-7.503 7.474-18.258 7.474-11.056 0-18.521-7.498-7.465-7.499-7.465-18.585v-82.168ZM221.615-679.845H738l-57.616-59.924q-1.923-1.923-4.423-3.077Q673.46-744 670.768-744h-381.92q-2.693 0-5.193 1.154-2.5 1.154-4.424 3.077l-57.616 59.924Z"/></svg>