<svg xmlns="http://www.w3.org/2000/svg" height="20" viewBox="0 -960 960 960" width="20"><path d="M228.309-164.001q-26.623 0-45.465-18.843-18.843-18.842-18.843-45.465v-442.459q0-13.196 5.116-25.175 5.115-11.978 14.109-20.602l60.391-61.146q9.846-9.846 21.057-14.077 11.21-4.231 23.789-4.231h382.305q12.932 0 24.658 4.231t20.572 14.077l60.539 61.693q10.231 8.846 14.846 21.036 4.616 12.191 4.616 25.408v94.323q0 8.462-5.847 15.192-5.846 6.731-14.307 9.116-12.538 5.154-24.653 13.269-12.116 8.115-21.192 16.423L603.999-396.23v-231.616H356.001v211.506q0 18.4 15.077 27.792 15.077 9.392 31.187 1.145L480-426.078l103.154 50.692-63.539 63.924q-9.846 9.846-14.269 21.351-4.423 11.505-4.423 23.88v70.076q0 13.761-9.196 22.957-9.196 9.197-22.958 9.197h-240.46Zm352.307-32.154v-50.893q0-6.798 2.615-12.337 2.615-5.538 7.231-10.154l196.307-195.307q5.72-5.489 12.283-8.013 6.563-2.525 13.014-2.525 6.863 0 13.507 2.538 6.644 2.539 11.887 7.615l44 45.385q5.05 5.719 7.794 12.283 2.745 6.563 2.745 13.014t-2.333 13.109q-2.333 6.657-8.206 12.285L686.153-173.848q-4.616 4.616-10.154 7.231-5.538 2.616-12.337 2.616h-50.893q-13.761 0-22.957-9.197-9.196-9.196-9.196-22.957Zm230.691-152.538 45-45.615-45-45.385-45 46 45 45ZM221.615-679.845H738l-57.616-59.924q-1.923-1.923-4.423-3.077Q673.46-744 670.768-744h-381.92q-2.693 0-5.193 1.154-2.5 1.154-4.424 3.077l-57.616 59.924Z"/></svg>