<svg xmlns="http://www.w3.org/2000/svg" height="20" viewBox="0 -960 960 960" width="20"><path d="M480.276-116.001q-75.045 0-141.391-28.462-66.346-28.461-116.153-78.269-49.808-49.807-78.269-116.112-28.462-66.304-28.462-141.614 0-75.311 28.462-141.157 28.461-65.846 78.269-115.653 49.807-49.808 115.965-78.269Q404.856-843.999 480-843.999q9.769 0 21.534.5 11.765.5 21.953 1.885 12.436 1.615 17.82 9.038 5.385 7.423 5.385 19.807 0 9.385-9.808 16.885-9.807 7.499-20.303 5.884-9.273-1.385-18.042-2.269-8.77-.885-18.539-.885-31.231 42.308-45.887 87.597-14.655 45.289-23.729 94.635h99.31q11.069 0 18.534 7.405 7.465 7.404 7.465 18.384 0 10.979-7.465 18.594-7.465 7.615-18.534 7.615H405.615q-2.269 19.539-3.212 39.27-.942 19.731-.942 39.654 0 19.923.942 39.654.943 19.731 3.212 39.27h148.571q2.968-18.539 3.661-37.603.692-19.064.692-38.321 0-10.385-.192-20.539-.193-10.154-1.193-20.538-.615-11.154 7.166-18.692 7.78-7.538 18.121-7.538 11.251 0 19.174 8.692 7.922 8.692 8.538 19.461 1 8.956 1.192 19.006.192 10.049.192 19.005 0 19.066-.692 38.797-.692 19.731-3.461 38.27h173.693q5.529-19.47 8.226-39.132Q792-459.87 792-479.724q0-9.35-.192-18.061-.193-8.711-2.193-18.061Q788-526 795.15-535.154q7.149-9.153 17.234-9.153 12.384 0 19.999 5.884 7.616 5.885 9.231 17.26 1.385 9.565 1.885 20.582.5 11.016.5 20.581 0 75.144-28.462 141.303-28.461 66.158-78.269 115.965-49.807 49.808-115.878 78.269-66.07 28.462-141.114 28.462ZM178.923-401.076h173.693q-2.769-20.539-3.461-40.27-.692-19.731-.692-40.654 0-18.923.692-38.654.692-19.731 3.461-38.27H178.923q-5.154 19.539-8.038 39.27Q168-499.923 168-480q0 19.923 2.885 39.654 2.884 19.731 8.038 39.27Zm18.153-209.846H357.77q8.173-46.58 21.395-90.56 13.221-43.98 37.375-84.442-72.924 15.308-130.54 61.27-57.616 45.962-88.924 113.732ZM672.23-624q-20.192 0-34.211-14.019Q624-652.038 624-672.23v-123.538q0-20.192 14.019-34.211 14.019-14.02 34.211-14.02h123.538q20.192 0 34.211 14.02 14.02 14.019 14.02 34.211v123.538q0 20.192-14.02 34.211Q815.96-624 795.768-624H672.23Zm81.692-113.846h30.615q7.231 0 11.654-4.423t4.423-11.653v-30.615q0-7.231-4.423-11.654t-11.654-4.423h-30.615q-7.23 0-11.653 4.423t-4.423 11.654v30.615q0 7.23 4.423 11.653t11.653 4.423ZM415.54-174.076q-23.308-40.078-36.962-84.27-13.654-44.193-20.808-90.732H197.076q31.308 68.155 88.732 114.117t129.732 60.885Zm64.46 4.23q28.462-40.077 44.654-85.539 16.193-45.462 24.962-93.693H410.384q9.769 48.231 25.269 94.078 15.501 45.846 44.347 85.154Zm64.46-4.23q72.308-14.539 129.732-60.693 57.424-46.154 88.732-114.309H602.23q-9.077 45.77-22.347 90.155-13.269 44.385-35.423 84.847Z"/></svg>