<svg xmlns="http://www.w3.org/2000/svg" height="20" viewBox="0 -960 960 960" width="20"><path d="M159.576-308.001q-18.667 0-31.121-12.473-12.454-12.473-12.454-30.912v-288.921q0-18.438 12.454-30.911 12.454-12.473 31.121-12.473h147.618q18.667 0 31.121 12.473 12.454 12.473 12.454 30.911v288.921q0 18.439-12.454 30.912-12.454 12.473-31.121 12.473H159.576Zm494.578 93.54v-180.001q-12-3.461-18-14.192t-6-23.346q0-17.575 12.131-29.71 12.131-12.136 29.151-12.136 17.871 0 30.141 12.136 12.269 12.135 12.269 29.71 0 13.615-6.193 23.461-6.192 9.846-17.807 14.077v180.001q0 7.733-5.052 12.789-5.051 5.056-12.776 5.056-7.726 0-12.795-5.056t-5.069-12.789Zm18.071-319.693q-42.533 0-72.456 29.624-29.923 29.625-29.923 72.53 0 17.846 5.115 33.231 5.116 15.385 15.193 28.693 4.231 5.692 4.808 13 .577 7.307-4.885 12.769-6.461 6.461-13.269 5.961-6.807-.5-12.038-6.577-14.923-18.869-22.769-40.896-7.847-22.027-7.847-46.181 0-57.723 40.406-97.784 40.407-40.062 97.147-40.062 57.6 0 97.87 40.062 40.269 40.061 40.269 97.784 0 26.923-9.539 50.385-9.538 23.461-26.462 42.461-5.23 6.077-12.813 6.077-7.582 0-12.769-6.932-5.186-5.991-4.109-13.298 1.077-7.308 6.307-13 11.462-14.327 17.578-31.129 6.115-16.801 6.115-34.564 0-42.905-29.559-72.53-29.56-29.624-72.37-29.624Zm-.774-96q-82.087 0-139.846 57.784-57.759 57.785-57.759 140.37 0 36.228 12.115 70.191 12.116 33.964 35.962 60.502 4.462 5.692 5.231 13 .769 7.307-4.308 12.384-6.321 6.462-14.083 5.962-7.762-.5-12.608-6.577-28.693-31.616-43.347-71.742-14.654-40.126-14.654-83.72 0-97.42 68.205-165.633 68.205-68.213 165.128-68.213 97.82 0 166.09 68.213Q905.846-529.42 905.846-432q0 46.489-18.347 88.36-18.346 41.871-50.423 75.102-5.846 5.692-12.747 5.884-6.9.193-11.884-6.077-4.984-6.269-4.099-13.576.885-7.308 6.346-13 25.847-27.154 40.654-62.5 14.808-35.347 14.808-74.193 0-82.585-57.813-140.37-57.813-57.784-140.89-57.784ZM238.001-792q-11.05 0-18.525-7.418-7.475-7.418-7.475-18.384 0-10.966 7.475-18.581 7.475-7.616 18.525-7.616h541.69q27.008 0 45.658 18.65 18.65 18.65 18.65 45.658v60q0 13.333-8.103 19.666t-17.827 6.333q-9.723 0-17.896-7.158Q792-708.007 792-720.076v-59.615q0-4.616-3.846-8.463-3.847-3.846-8.463-3.846h-541.69Z"/></svg>