<svg xmlns="http://www.w3.org/2000/svg" height="20" viewBox="0 -960 960 960" width="20"><path d="M263.28-212q-28.51 0-47.59-18.65-19.07-18.65-19.07-45.66v-345.77l-73-71.46q-4.62-4.61-6.93-10.34-2.3-5.73-2.3-11.96 0-12.48 8.34-22.32 8.35-9.84 23.81-9.84h582.97q27.89 0 47.19 18.66 19.3 18.66 19.3 45.69v407.62q0 27.03-19.23 45.53t-47 18.5H263.28ZM465-400.16h158.31q11.07 0 18.53-7.4 7.47-7.4 7.47-18.38 0-10.98-7.47-18.6-7.46-7.61-18.53-7.61h-264.7q-5.84 0-7.15 5.73-1.31 5.73 2.46 9.11l114.93 112.62q8.3 8.3 18.38 8.3 10.08 0 18.38-8.3 8.7-8.7 8.7-18.46 0-9.77-8.7-18.08L465-400.16Zm58-159.68H364.31q-11.07 0-18.54 7.4-7.46 7.4-7.46 18.38 0 10.98 7.46 18.6 7.47 7.61 18.54 7.61H629q5.85 0 7.15-5.73 1.31-5.73-2.46-9.11L518.15-636.31q-8.3-8.3-17.88-8.3-9.58 0-17.88 8.3-8.7 8.7-8.7 18.96 0 10.27 8.7 18.58L523-559.84Z"/></svg>