<svg xmlns="http://www.w3.org/2000/svg" height="20" viewBox="0 -960 960 960" width="20"><path d="M206.616-116.001q-18.111 0-30.363-12.647-12.252-12.646-12.252-30.738v-171.077q0-26.527 18.891-45.417 18.89-18.89 45.417-18.89h503.382q26.527 0 45.417 18.89 18.891 18.89 18.891 45.417v171.077q0 18.092-12.647 30.738-12.646 12.647-30.738 12.647H206.616Zm53.385-330.768v-135.385q0-26.827 18.891-45.567 18.89-18.74 45.417-18.74h129.692v-54.77q-16.616-11.615-26.308-23.269-9.692-11.654-9.692-32.056 0-12.751 4.195-23.302 4.196-10.552 13.516-19.868l32.62-32.605q1.437-1.437 11.778-5.437 3.89 0 11.736 4.616l33.259 33.244q9.503 9.498 13.199 20.05 3.695 10.551 3.695 23.302 0 20.402-9.692 32.056-9.692 11.654-26.308 23.269v54.77h130.692q26.115 0 44.711 18.89 18.597 18.89 18.597 45.417v135.385H260.001Z"/></svg>