<svg xmlns="http://www.w3.org/2000/svg" height="20" viewBox="0 -960 960 960" width="20"><path d="M704.614-576.488v192.757q0 13.653-9.244 22.999-9.244 9.346-22.909 9.346h-140.77q-6.216 0-11.266-3.592-5.051-3.593-6.81-9.869Q488.307-432 443.154-485.461 398-538.922 337.078-575.076q-12.462-7.231-9.011-20.385 3.451-13.153 16.486-13.153h327.718q13.951 0 23.147 9.236 9.196 9.236 9.196 22.89Zm-408.47 364.487q-10.144 0-18.567-6.577t-9.653-16.731q-7.693-49.461-43.47-85.196-35.778-35.735-85.761-43.419-10.637-1.351-16.664-9.8-6.028-8.449-6.028-18.025 0-10.173 6.193-18.289 6.192-8.115 16.73-6.499 72.153 8.692 123.114 58.96 50.961 50.269 59.151 122.604 1.348 9.972-6.459 16.472-7.808 6.5-18.586 6.5Zm139.394 0q-10.154 0-18.077-8.077-7.922-8.077-9.538-18.615-9.692-106.538-85.192-182.423-75.5-75.884-183.534-84.459-10.042-.964-16.619-8.494-6.577-7.53-6.577-17.57 0-10.668 9.385-18.091 9.384-7.422 21.307-6.192 126.846 11.308 215.55 101.112 88.704 89.805 98.063 217.425 1.231 10.153-6.244 17.768-7.474 7.616-18.524 7.616Zm-282.307 0q-15.768 0-26.499-10.731-10.731-10.731-10.731-26.499 0-15.769 10.731-26.5 10.731-10.73 26.499-10.73 15.769 0 26.5 10.73 10.73 10.731 10.73 26.5 0 15.768-10.73 26.499-10.731 10.731-26.5 10.731Zm690.768-471.65v407.626q0 26.543-18.891 45.283-18.89 18.741-45.417 18.741H565.999q-11.05 0-18.525-7.419-7.475-7.418-7.475-18.384 0-10.966 7.475-18.581T565.999-264h213.692q5.385 0 8.847-3.462 3.462-3.462 3.462-8.847v-407.382q0-5.385-3.462-8.847-3.462-3.462-8.847-3.462H180.309q-5.385 0-8.847 3.462-3.462 3.462-3.462 8.847v24.539q0 11.049-7.418 18.524-7.418 7.475-18.384 7.475-10.966 0-18.581-7.475-7.616-7.475-7.616-18.524v-24.539q0-26.527 18.891-45.417 18.89-18.891 45.417-18.891h599.382q26.527 0 45.417 18.903 18.891 18.902 18.891 45.445Z"/></svg>