<svg xmlns="http://www.w3.org/2000/svg" height="20" viewBox="0 -960 960 960" width="20"><path d="M461.222-279.386q-103.298 0-176.259-70.688-72.962-70.689-72.962-173.31V-744q0-21.238 15.381-36.618 15.38-15.381 36.618-15.381h463q48.531 0 82.765 33.53t34.234 81.768q0 49.393-34.042 84.047-34.041 34.653-82.957 34.653h-20.847v38.617q0 101.852-71.393 172.925-71.394 71.073-173.538 71.073ZM264-613.999h390.154V-744H264v130.001Zm442.153 0H715q31.307 0 54.154-18.616Q792-651.23 792-680.923q0-26.538-19.231-44.808Q753.538-744 727-744h-20.847v130.001ZM238.292-164.001q-11.06 0-18.675-7.405-7.616-7.405-7.616-18.384 0-10.98 7.46-18.595 7.46-7.615 18.52-7.615h483.727q11.06 0 18.675 7.405 7.616 7.404 7.616 18.384 0 10.979-7.46 18.594-7.46 7.616-18.52 7.616H238.292Z"/></svg>