<svg xmlns="http://www.w3.org/2000/svg" height="20" viewBox="0 -960 960 960" width="20"><path d="M558.924-291.847q12.384 6.077 25.73.308t18.192-18.923q3.384-9.769 5.884-18.461 2.5-8.693 4.116-17.462l-55.076-55.076q-1.615 17.692-5.231 34.577-3.615 16.884-9.846 34.961-3.846 12.154.423 23.384 4.269 11.231 15.808 16.692Zm-128.385-52.384q13.154 6.461 26.499.5 13.346-5.962 17.192-19.5 8-26.385 12.116-52.962 4.115-26.577 3.73-52.961l-68.844-69.46q3.231 14.538 4.538 29.192 1.308 14.653 1.308 29.422 0 24.769-2.885 49.616-2.884 24.846-9.884 47.615-3.846 11.384.615 22.73t15.615 15.808Zm-129.154-54.77q14.154 6.462 27.192-.307 13.038-6.77 17.269-21.308 3.615-15.23 5.423-29.384 1.807-14.154 1.807-30t-1.807-30.5q-1.808-14.654-5.423-28.884-4.231-14.538-16.769-21.308-12.538-6.769-27.692-.307-10.154 3.846-14.73 14.307-4.577 10.461-2.346 21.846 2 10.769 3.384 21.923 1.385 11.154 1.385 22.923 0 11.769-1.885 22.423-1.884 10.654-3.884 22.423-2.231 11.385 2.846 21.538 5.076 10.154 15.23 14.615Zm178.615 283q-74.769 0-141.115-28.462-66.346-28.461-116.153-78.269-49.808-49.807-78.269-116.153Q116.001-405.231 116.001-480q0-62.154 20.924-119.539 20.923-57.384 59-107.615h57.152L761.69-197.54l-64.151 9-564.615-565.615q-7.923-7.923-7.923-18.191 0-10.269 7.923-18.192 8.308-8.308 18.577-8.308 10.269 0 18.192 8.308l628.692 629.692q7.923 7.923 8.615 18.192.693 10.269-7.615 18.576-7.923 7.923-18.192 7.923t-18.576-7.923l-65.078-64.462q-48.231 34.692-103.308 53.615Q539.154-116.001 480-116.001Zm294.768-188.154q-8.231 0-15.577-2.423t-13.576-8.653L626.461-434.385q1.615-11.461 2.115-22.808.5-11.346.5-22.807 0-44.846-6.307-87.269-6.308-42.423-19.923-83.269-4.846-13.154-17.308-18.423-12.461-5.269-26.23.808-10.538 4.461-15.499 15.692-4.962 11.23-1.116 23.384 10.154 31.231 15.539 64.847 5.384 33.615 6.615 68.231L315.231-745.615q-6.23-6.23-8.846-13.269-2.615-7.038-2.615-15.269 0-10.846 5.615-20.192 5.616-9.346 16.077-14.577 36.077-16.846 74.961-25.961 38.885-9.116 79.577-9.116 75.769 0 141.615 28.462 65.846 28.461 115.653 78.269 49.808 49.807 78.269 115.653Q843.999-555.769 843.999-480q0 40.692-8.923 79.577-8.924 38.884-26.154 74.961-4.616 10.846-13.962 16.077-9.346 5.23-20.192 5.23Z"/></svg>