<svg xmlns="http://www.w3.org/2000/svg" height="20" viewBox="0 -960 960 960" width="20"><path d="M664.26-149.233q-60.749 0-103.581-43.073t-42.832-103.387q0-60.768 42.846-103.614 42.846-42.846 103.614-42.846 60.769 0 103.614 42.832 42.846 42.832 42.846 103.581 0 22.336-6.923 43.384-6.923 21.047-19.308 39.74l77.847 77.846q8.307 8.307 8.5 17.884.192 9.577-8.5 18.269-8.692 8.692-18.577 8.5-9.884-.193-18.576-8.5l-77.846-76.462q-19.077 11.231-39.849 18.538-20.772 7.308-43.275 7.308Zm-.265-51.998q39.543 0 67.158-27.304 27.616-27.303 27.616-66.846 0-39.543-27.304-67.158-27.303-27.615-66.846-27.615-39.543 0-67.158 27.303-27.615 27.303-27.615 66.846 0 39.543 27.303 67.158 27.303 27.616 66.846 27.616Zm-435.686 37.23q-26.527 0-45.417-18.891-18.891-18.89-18.891-45.417v-503.382q0-26.527 18.891-45.417 18.89-18.891 45.417-18.891H408.54q5.308-25.23 24.461-42.46Q452.154-855.69 480-855.69q27.076 0 46.422 17.231 19.346 17.23 24.653 42.46h180.616q26.527 0 45.417 18.891 18.891 18.89 18.891 45.417v191.539q0 11.05-7.419 18.524-7.418 7.475-18.384 7.475-10.966 0-18.581-7.475Q744-529.102 744-540.152v-191.539q0-4.616-3.846-8.463-3.847-3.846-8.463-3.846h-79.692v72.461q0 13.665-9.201 22.909-9.2 9.244-22.8 9.244H339.994q-13.6 0-22.796-9.244-9.197-9.244-9.197-22.909V-744h-79.692q-4.616 0-8.463 3.846-3.846 3.847-3.846 8.463v503.382q0 4.616 3.846 8.463 3.847 3.846 8.463 3.846h187.692q11.05 0 18.525 7.418 7.475 7.418 7.475 18.384 0 10.966-7.475 18.581-7.475 7.616-18.525 7.616H228.309Zm251.548-575.383q13.604 0 22.95-9.203 9.347-9.203 9.347-22.808 0-13.604-9.203-22.95t-22.808-9.346q-13.604 0-22.95 9.203-9.347 9.203-9.347 22.807 0 13.605 9.203 22.951t22.808 9.346Z"/></svg>