<svg xmlns="http://www.w3.org/2000/svg" height="20" viewBox="0 -960 960 960" width="20"><path d="M523.454-622.077q-11.117 0-18.823-7.585-7.707-7.586-7.707-18.799.77-41.538 29.577-70.538 28.808-29 70.346-29 41.538 0 70.346 29.145Q696-689.71 696-648.076v105.307h97.999q11.05 0 18.525 7.479 7.475 7.479 7.475 18.534 0 11.056-7.448 18.521-7.448 7.465-18.457 7.465h-45.906v214.461q0 26.527-18.835 45.417-18.835 18.891-45.377 18.891H276.365q-26.542 0-45.443-18.891-18.902-18.89-18.902-45.417V-490.77h-46.019q-11.05 0-18.525-7.418-7.475-7.418-7.475-18.384 0-10.966 7.475-18.581 7.475-7.616 18.525-7.616h108.384q-25.733 0-44.058-18.405-18.326-18.406-18.326-44.253v-110.141q0-13.642 9.229-23.036 9.228-9.395 22.87-9.395h133.778q13.642 0 23.036 9.262 9.394 9.263 9.394 22.954v110.495q0 25.943-18.438 44.231-18.439 18.288-44.331 18.288h296.462v-105.044q0-19.879-13.531-34.033Q616.938-696 596.935-696q-19.951 0-33.728 14.004-13.776 14.004-13.776 33.92 0 11.05-7.429 18.524-7.43 7.475-18.548 7.475ZM454.001-264h51.998v-226.77h-51.998V-264Z"/></svg>