<svg xmlns="http://www.w3.org/2000/svg" height="20" viewBox="0 -960 960 960" width="20"><path d="M719.77-65.69q-71.69 0-121.73-50.27Q548-166.22 548-237.92q0-71.69 50.27-121.73 50.26-50.04 121.96-50.04 71.69 0 121.73 50.26Q892-309.16 892-237.47q0 71.7-50.27 121.74-50.26 50.04-121.96 50.04ZM324-605.39h312q11.05 0 18.52-7.41 7.48-7.42 7.48-18.39 0-10.96-7.48-18.58-7.47-7.61-18.52-7.61H324q-11.05 0-18.52 7.41-7.48 7.42-7.48 18.39 0 10.96 7.48 18.58 7.47 7.61 18.52 7.61ZM228.31-164q-26.53 0-45.42-18.89T164-228.31v-503.38q0-26.53 18.89-45.42T228.31-796h503.38q26.53 0 45.42 18.89T796-731.69v207.15q0 14.54-10.58 23.23-10.58 8.69-25.42 6.23-10.54-.84-20.27-1.57-9.73-.73-19.73-.73-16.62 0-33.22 1.84-16.6 1.85-33.24 5.77-2.75-7.49-10.5-11.86-7.75-4.37-15.5-4.37H324q-11.05 0-18.52 7.42-7.48 7.42-7.48 18.38 0 10.97 7.48 18.58Q312.95-454 324-454h249.23q-28.15 18.92-50.38 43.96-22.23 25.04-37.16 55.43H324q-11.05 0-18.52 7.41-7.48 7.42-7.48 18.39 0 10.96 7.48 18.58 7.47 7.61 18.52 7.61h141.69q-3.15 15.47-5.11 31.31-1.96 15.85-.96 31.31 1 8 1.73 18.04t2.19 21.34q1.46 14.46-7.06 25.54Q447.95-164 433.46-164H228.31ZM720-237.69q25 0 42.5-17.5t17.5-42.5q0-25-17.5-42.5t-42.5-17.5q-25 0-42.5 17.5t-17.5 42.5q0 25 17.5 42.5t42.5 17.5Zm0 120q28.38 0 52.46-11.89 24.08-11.88 41.08-32.65 4.61-4.62 2.42-10.85-2.19-6.23-8.04-8.84-20.38-9.39-42.27-14.58-21.88-5.19-45.65-5.19T674.35-196q-21.89 5.69-42.27 14.08-5.85 3-8.04 9.04-2.19 6.03 2.42 10.65 17 20.77 41.08 32.65 24.08 11.89 52.46 11.89Z"/></svg>