<svg xmlns="http://www.w3.org/2000/svg" height="20" viewBox="0 -960 960 960" width="20"><path d="M480-296.847q-13.923 0-23.115-9.192-9.192-9.192-9.192-23.115 0-13.923 9.192-23.115 9.192-9.192 23.115-9.192 13.923 0 23.115 9.192 9.192 9.192 9.192 23.115 0 13.923-9.192 23.115-9.192 9.192-23.115 9.192ZM394.693-583q-8.077-4.231-9.423-12.731-1.346-8.499 3.115-16.576 14.846-23.846 39.5-36.577 24.654-12.731 52.115-12.731 44.692 0 74.269 26.154 29.577 26.154 29.577 68.846 0 27.461-19.231 49-19.231 21.538-38.461 42.769-8.77 8.769-14.154 19.615-5.385 10.847-7.77 23.001-1.615 9.692-8.076 15.769-6.462 6.076-16.154 6.076-8.307 0-15.077-6.269-6.769-6.269-6.769-14.576 0-17.231 7.616-32.846 7.615-15.616 20.846-28.616 17.384-16.384 34.461-32.461 17.077-16.077 17.077-40.231 0-22.308-17.231-37.539-17.23-15.231-40.923-15.231-15.923 0-29.577 7.269-13.654 7.27-22.423 19.808-6.462 7.692-15.539 10.5-9.076 2.808-17.768-2.423ZM276.309-68.001q-27.308 0-45.808-18.5t-18.5-45.808v-695.382q0-27.308 18.5-45.808t45.808-18.5h407.382q27.308 0 45.808 18.5t18.5 45.808v695.382q0 27.308-18.5 45.808t-45.808 18.5H276.309ZM264-230h432v-500.002H264v500.002Z"/></svg>