<svg xmlns="http://www.w3.org/2000/svg" height="20" viewBox="0 -960 960 960" width="20"><path d="M628.307-698.308q-31.153 0-52.576-21.423-21.423-21.423-21.423-52.576 0-31.154 21.423-52.577 21.423-21.422 52.576-21.422 31.154 0 52.577 21.422 21.422 21.423 21.422 52.577 0 31.153-21.422 52.576-21.423 21.423-52.577 21.423Zm-228.846 207 87.461 87.847q9.847 9.846 14.462 21.692t4.615 23.923V-200q0 10.75-7.628 18.374-7.629 7.625-18.384 7.625-10.756 0-18.371-7.625-7.615-7.624-7.615-18.374v-162.847L313.616-494.385q-8.077-6.077-13.692-15.964-5.616-9.887-5.616-20.653 0-13.767 5.116-27.228 5.115-13.462 14.192-22.539l122.308-122.307q9.076-8.077 20.73-12.693 11.654-4.615 23.346-4.615 15.692 0 30.346 8.115 14.654 8.116 24.73 20.193l73 79q24.77 26.769 56.693 44.23 31.923 17.462 66.077 23.847 11.154 2.615 19.153 10.038 8 7.423 8 18.384t-8.307 18.769q-8.308 7.807-18.077 6.192-49.461-6-91.653-27.231-42.192-21.231-73.038-59.077L530-621.847 399.461-491.308Zm-199.768 71.617q74.769 0 127.23 52.461T379.384-240q0 74.769-52.461 127.23t-127.23 52.461q-74.769 0-127.23-52.461T20.002-240q0-74.769 52.46-127.23 52.462-52.461 127.231-52.461Zm0 299.691q50.769 0 85.385-34.615 34.615-34.616 34.615-85.385 0-50.769-34.615-85.385Q250.462-360 199.693-360q-50.769 0-85.385 34.615Q79.693-290.769 79.693-240q0 50.769 34.615 85.385Q148.924-120 199.693-120Zm560.614-299.691q74.769 0 127.23 52.461 52.462 52.461 52.462 127.23t-52.462 127.23q-52.461 52.461-127.23 52.461t-127.23-52.461Q580.616-165.231 580.616-240t52.461-127.23q52.461-52.461 127.23-52.461Zm0 299.691q50.769 0 85.385-34.615 34.615-34.616 34.615-85.385 0-50.769-34.615-85.385Q811.076-360 760.307-360q-50.769 0-85.385 34.615-34.615 34.616-34.615 85.385 0 50.769 34.615 85.385Q709.538-120 760.307-120Z"/></svg>