<svg xmlns="http://www.w3.org/2000/svg" height="20" viewBox="0 -960 960 960" width="20"><path d="M479.23-115.62q-34.77 0-64.08-9.07-29.3-9.08-71.38-33.7-54.39 32.23-82.31 38-27.92 5.77-80.46 4.77-10.77-.38-17.88-8Q156-131.23 156-142t7.12-18.38q7.11-7.62 17.88-7.24 29.31 0 46.65-.88 17.35-.88 31.2-5.77 13.84-4.88 29.61-14.77 15.77-9.88 43.31-27.5 4.61-3 10.73-3 6.11 0 10.73 3 29.62 19.16 60.19 33.46 30.58 14.31 65.81 14.31 35.23 0 65.81-14.31 30.58-14.3 60.19-33.46 4.62-3 10.73-3 6.12 0 10.73 3 27.93 18 43.69 27.89 15.77 9.88 29.81 14.57 14.04 4.7 30.69 5.58 16.66.88 47.12.88 10.77-.38 18.38 7.24Q804-152.77 804-142t-7.62 18.38q-7.61 7.62-18.38 8-51.92 1-80.73-4.57-28.81-5.58-82.96-38.2-42.08 24.62-71.19 33.7-29.12 9.07-63.89 9.07ZM277.61-709.23v146.08L462-615.69q8.62-2 17.23-2 8.62 0 17.23 2l184.39 52.54v-146.08q0-4.62-3.27-7.69-3.27-3.08-7.89-3.08H288.77q-4.62 0-7.89 3.08-3.27 3.07-3.27 7.69Zm202.01 460.77q-18.54 0-38.62-2.19-20.08-2.2-57.77-41.97l-36-34-31 31q-22.15 23.7-40.81 33.16-18.65 9.46-40.34 11.84-15.08 3.16-28.31-7.07-13.23-10.23-16.85-26.46l-43.84-210q-2.23-11.69 4.31-22.85 6.53-11.15 18.23-14.77l57-17v-158.92q0-26.92 18.69-45.62Q263-772 289.92-772h106.77v-39.84q0-13.47 9.35-22.81 9.35-9.35 22.81-9.35h100.76q13.47 0 22.81 9.35 9.35 9.34 9.35 22.81V-772h106.77q26.92 0 45.61 18.69 18.7 18.7 18.7 45.62v158.92l56.99 17q11.7 3.62 18.24 14.77 6.53 11.16 4.3 22.85l-43.46 210.38q-3.61 15.85-16.65 25.38-13.04 9.54-28.5 7.77Q702.46-253 684-262.27q-18.46-9.27-41.38-33.35l-31-31-36 34q-38.47 39.77-58.16 41.97-19.69 2.19-37.84 2.19Z"/></svg>