<svg xmlns="http://www.w3.org/2000/svg" height="20" viewBox="0 -960 960 960" width="20"><path d="M721.154-58q-25.846 0-51.077-4.808-25.231-4.808-48.846-13.808L124-255.231q-7.692-1.847-10.73-8.923-3.039-7.077-.808-14.385 1.846-7.307 8.731-10.653 6.884-3.346 14.192-.5L393.078-196l75.923-196.154-158.232-144.077Q286.462-557 291.385-588.884q4.923-31.884 35.076-48.576l151.54-88.078q12.692-7.846 27.076-8.654 14.385-.807 27.077 5.423 12.692 5.231 22.653 16.693 9.962 11.461 14.577 26.153l12 47q12.923 51.154 44.5 84.808 31.577 33.654 83.116 46.039l13.308-39.539q2.231-7.307 8.615-10.654 6.385-3.346 13.692-1.115 7.308 2.231 10.154 8.923t.615 14l-28.538 85.691q-78.769-15.693-124.423-52.923-45.653-37.231-67.499-106.692L407.307-535 517.23-421.999q6.846 7.615 8.654 16.461 1.807 8.846-1.808 17.692l-81.461 209.307 140.001 50.385 90.923-274.538q7.923 2.615 17.346 3.654 9.422 1.038 17.73 2.653l-91.539 280 21.001 7.924Q658-99.692 678.192-96.692q20.193 3 42.962 3 24.154 0 46.115-4.193 21.962-4.192 42.731-12.192 7.693-3.23 13.885-.384t9.038 9.922q2.846 7.693 0 14.885t-11.538 10.423q-23 8-48.616 12.615-25.615 4.615-51.615 4.615Zm-67.693-644.154q-32.307 0-55.077-22.769-22.769-22.77-22.769-55.077t22.769-55.077q22.77-22.769 55.077-22.769 32.308 0 55.077 22.769 22.769 22.77 22.769 55.077t-22.769 55.077q-22.769 22.769-55.077 22.769Z"/></svg>