<svg xmlns="http://www.w3.org/2000/svg" height="20" viewBox="0 -960 960 960" width="20"><path d="M479.72-108.309q-26.643 0-45.335-18.89t-18.692-45.417h128.614q0 26.923-18.972 45.615-18.973 18.692-45.615 18.692Zm242.299-112.307H238.292q-11.041 0-18.666-7.418t-7.625-18.384q0-10.966 7.475-18.581t18.525-7.615h14.308v-258.463q0-84.692 53.307-148.192 53.308-63.5 136.385-76.807v-49.923q0-15.833 11.07-26.916 11.07-11.084 26.884-11.084t26.929 11.084q11.115 11.083 11.115 26.916v49.923l3.077.769 3.078.769q18.769 4 24.038 22.308 5.269 18.308-8.731 32.308L423.615-584.076q-9.942 9.886-14.317 21.412-4.375 11.525-4.375 23.818v117.366q0 27.077 18.89 45.817t45.417 18.74h117.616q12.307 0 23.846-4.615 11.538-4.616 21.384-14.462l34.616-34.615q11.846-11.846 26.423-5.649 14.576 6.198 14.576 22.725v120.925h14.308q11.05 0 18.525 7.418 7.475 7.418 7.475 18.384 0 10.966-7.47 18.581-7.469 7.615-18.51 7.615ZM484.616-468.769v-50.893q0-6.799 2.615-12.145 2.615-5.346 7.231-10.346L690.769-737.46q5.846-5.462 12.19-8 6.344-2.539 13.265-2.539 7.391 0 13.608 2.432 6.217 2.432 11.628 7.722l44 45.385q5.05 5.661 7.794 11.858 2.745 6.197 2.745 13.68 0 7.494-2.539 13.593-2.538 6.098-8 11.56L590.153-446.462q-4.616 4.616-10.238 7.231t-12.253 2.615h-50.893q-13.665 0-22.909-9.244t-9.244-22.909Zm230.691-152.538 45-45.615-45-45.385-45 46 45 45Z"/></svg>