<svg xmlns="http://www.w3.org/2000/svg" height="20" viewBox="0 -960 960 960" width="20"><path d="M608.244-523.693q21.832 0 37.025-15.283 15.192-15.282 15.192-37.115 0-21.832-15.283-37.024t-37.115-15.192q-21.832 0-37.024 15.283-15.193 15.282-15.193 37.115 0 21.832 15.283 37.024t37.115 15.192Zm-256.307 0q21.832 0 37.024-15.283 15.193-15.282 15.193-37.115 0-21.832-15.283-37.024t-37.115-15.192q-21.832 0-37.025 15.283-15.192 15.282-15.192 37.115 0 21.832 15.283 37.024t37.115 15.192Zm128.406 407.692q-75.112 0-141.48-28.42-66.369-28.42-116.182-78.21-49.814-49.791-78.247-116.087t-28.433-141.673q0-75.378 28.42-141.246 28.42-65.869 78.21-115.682 49.791-49.814 116.087-78.247t141.673-28.433q75.378 0 141.246 28.42 65.869 28.42 115.682 78.21 49.814 49.791 78.247 115.853t28.433 141.173q0 75.112-28.42 141.48-28.42 66.369-78.21 116.182-49.791 49.814-115.853 78.247t-141.173 28.433Zm-.786-184.308q48.296 0 91.292-18.499 42.996-18.5 69.227-56.192 4.846-9.923.308-18.962Q635.845-403 624.999-403H335.001q-10.846 0-15.885 9.038-5.038 9.039.641 18.962 26.398 37.692 68.858 56.192 42.461 18.499 90.942 18.499Z"/></svg>