<svg xmlns="http://www.w3.org/2000/svg" height="20" viewBox="0 -960 960 960" width="20"><path d="M602.28-233.23q-11.05 0-18.66-7.41-7.62-7.4-7.62-18.38 0-10.98 7.45-18.6 7.46-7.61 18.51-7.61h215.76q11.05 0 18.66 7.4 7.62 7.41 7.62 18.39t-7.46 18.59q-7.45 7.62-18.5 7.62H602.28ZM471.36-116q-71.9 0-136.05-28.67-64.14-28.66-112.88-78.07-48.74-49.41-77.58-115.72-28.85-66.3-28.85-142 0-75.31 28.46-141.15 28.46-65.85 78.27-115.66 49.81-49.81 115.97-78.27Q404.86-844 480-844q74.07 0 138.57 26.9 64.5 26.89 113.51 74.25 49.3 47.16 78.65 110.66 29.35 63.5 32.88 136.5 1.39 8.23-2.53 14.65-3.93 6.42-11.16 9.65-7.23 3.24-15.08 3.43-7.84.19-16.07-3.43-21.23-9.61-43.51-13.73-22.28-4.11-46.65-4.11-95.76 0-161.99 66.23-66.24 66.23-66.24 162 0 25.38 4.43 47.53 4.42 22.16 14.42 42.47 3.15 5.15 4.23 9.97 1.08 4.82 1.08 9.87 0 14.56-9.04 24.86-9.04 10.3-24.14 10.3ZM168-480.38q0 116.3 75.65 203.42 75.66 87.11 190.12 102.42 1.92 0 3.46-1.15 1.54-1.16 2.31-3.08.77-2.31-.38-4.23-1.16-1.92-3.08-3.46-61.92-57.08-97.89-132.42-35.96-75.35-35.96-161.18 0-99.4 49.16-180.86Q400.54-742.39 479.85-790q-4.23-.77-8.46-.96-4.23-.19-8.47-.19-124.15 6.84-209.53 96.38Q168-605.22 168-480.38Z"/></svg>