<svg xmlns="http://www.w3.org/2000/svg" height="20" viewBox="0 -960 960 960" width="20"><path d="M480-117q-74.77 0-141.11-28.46-66.35-28.46-116.16-78.27-49.81-49.81-78.27-116.16Q116-406.23 116-481q0-59.92 18.92-115.5 18.93-55.58 53.62-102.42l-53.15-54.16q-7.93-7.92-8.12-17.69-.19-9.77 8.12-18.08 8.3-8.3 18.38-8.3 10.08 0 18.38 8.3l615.7 615.7q7.92 7.92 8.11 17.88.19 9.96-8.11 18.27-8.31 8.31-18.39 8.31-10.07 0-18.38-8.31l-53.16-52.54q-46.84 34.69-102.42 53.62Q539.92-117 480-117ZM352.77-333.08l129.49-38.23q8.93-3 11.76-11.15 2.83-8.16-4.47-15.48l-91.44-91.68q-7.29-7.23-15.54-4.42-8.24 2.81-11.26 11.65l-38.23 129.62q-3 9.23 3.73 15.96t15.96 3.73Zm421.38 27.93q-7.23 0-14.77-2.62-7.53-2.62-13.77-8.85L602.23-460q-6.23-6.23-8.23-15.15-2-8.93 0-16.77l32.92-115.31q3-9.23-3.73-15.96t-15.96-3.73L491.85-594q-7.77 2-16.7 0-8.92-2-15.2-8.27L315.62-746.29q-5.85-5.89-8.66-13.35-2.81-7.46-2.81-14.35 0-10.91 5.24-21 5.23-10.09 16.46-15.32 36.07-16.84 75.46-25.77Q440.69-845 480-845q75.77 0 141.61 28.46 65.85 28.46 115.66 78.27 49.81 49.81 78.27 115.66Q844-556.77 844-481q0 39.31-8.92 78.69-8.93 39.39-25.77 75.46-5.62 10.85-14.97 16.27-9.34 5.43-20.19 5.43Z"/></svg>