<svg xmlns="http://www.w3.org/2000/svg" height="20" viewBox="0 -960 960 960" width="20"><path d="M479.509-264Q611-264 701.5-355.163 792-446.325 792-576q0-31.846-6.231-61.616-6.231-29.769-18.539-57.693-25.461 16.231-53.137 24.846-27.675 8.616-57.093 8.616-56.539 0-102.731-26.808-46.192-26.808-74.269-75.5-29.692 48.692-75.577 75.5Q358.539-661.847 303-661.847q-29.655 0-57.36-8.616-27.705-8.615-52.486-24.461-12.308 24.308-18.731 54.077Q168-611.077 168-576q0 131 90.5 221.5T479.509-264ZM359.887-504Q380-504 394-517.887q14-13.888 14-34Q408-572 394.113-586q-13.888-14-34-14Q340-600 326-586.113q-14 13.888-14 34Q312-532 325.887-518q13.888 14 34 14Zm240 0Q620-504 634-517.887q14-13.888 14-34Q648-572 634.113-586q-13.888-14-34-14Q580-600 566-586.113q-14 13.888-14 34Q552-532 565.887-518q13.888 14 34 14ZM102.155-116.001q-28.586 0-48.254-21.5t-16.053-50.038l43.846-388.538q8.616-76.769 42.447-143.133t86.961-115.23q53.13-48.866 122.132-77.212 69.003-28.347 146.884-28.347 77.882 0 146.766 28.347 68.884 28.346 122.014 77.212 53.13 48.866 86.961 115.23 33.831 66.364 42.447 143.133l43.846 388.538q3.615 28.538-15.764 50.038-19.379 21.5-47.543 21.5h-756.69Z"/></svg>