<svg xmlns="http://www.w3.org/2000/svg" height="20" viewBox="0 -960 960 960" width="20"><path d="M190-164q-10.75 0-18.37-7.63-7.63-7.63-7.63-18.38 0-10.76 7.63-18.37Q179.25-216 190-216h580q10.75 0 18.37 7.63 7.63 7.63 7.63 18.38 0 10.76-7.63 18.37Q780.75-164 770-164H190Zm526.46-186.39L209.23-504.15q-20.69-5.85-32.96-23.12Q164-544.54 164-565.85V-725q0-16.15 12.42-25.35 12.43-9.19 27.51-5.01l17.49 5.01q7.04 2.5 12.31 8.16 5.27 5.65 7.89 12.73l40 119.77 143.69 44.23-24-268q-1.62-21.39 15.23-35 16.85-13.62 37.46-7.06l16.31 4.91q10.07 3.46 17.02 9.94 6.94 6.48 10.21 16.52L602.85-512l150.23 44.39q19.51 5.9 31.22 22.51 11.7 16.62 11.7 35.91 0 30.19-25.16 49.42-25.15 19.23-54.38 9.38Z"/></svg>