<svg xmlns="http://www.w3.org/2000/svg" height="20" viewBox="0 -960 960 960" width="20"><path d="M696.211-223.693q-11.942 0-20.23-8.078-8.288-8.077-8.288-20.018 0-11.942 8.078-20.23 8.077-8.288 20.018-8.288 11.942 0 20.23 8.078 8.288 8.077 8.288 20.018 0 11.942-8.078 20.23-8.077 8.288-20.018 8.288Zm-396 120q-11.942 0-20.23-8.078-8.288-8.077-8.288-20.018 0-11.942 8.078-20.23 8.077-8.288 20.018-8.288 11.942 0 20.23 8.078 8.288 8.077 8.288 20.018 0 11.942-8.078 20.23-8.077 8.288-20.018 8.288Zm-35.923-122.308q-11.038 0-18.662-7.418-7.625-7.418-7.625-18.384 0-10.966 7.466-18.581 7.467-7.615 18.504-7.615h323.741q11.038 0 18.663 7.418 7.624 7.418 7.624 18.384 0 10.966-7.466 18.581-7.467 7.615-18.504 7.615H264.288Zm143.997 120q-11.035 0-18.659-7.418-7.625-7.418-7.625-18.384 0-10.966 7.464-18.581 7.465-7.615 18.499-7.615h251.751q11.035 0 18.66 7.418 7.624 7.418 7.624 18.384 0 10.966-7.464 18.581-7.465 7.615-18.499 7.615H408.285ZM295-346.001q-81.154 0-135.076-58.198Q106.001-462.396 106.001-545q0-74.307 51.062-127.185t127.091-61.584q28.881-55.64 81.441-87.935 52.559-32.295 113.831-32.295 83.554 0 144.294 54.307 60.741 54.308 72.818 136.923 69.308 1.231 113.384 49.116 44.077 47.884 44.077 109.96 0 65.573-46.083 111.633Q761.833-346.001 696-346.001H295Z"/></svg>