<svg xmlns="http://www.w3.org/2000/svg" height="20" viewBox="0 -960 960 960" width="20"><path d="M738.23-222.539q31.154 0 53.116-21.962 21.961-21.961 21.961-53.115 0-31.154-21.961-53.116-21.962-21.961-53.116-21.961t-53.115 21.961q-21.962 21.962-21.962 53.116t21.962 53.115q21.961 21.962 53.115 21.962Zm-5.307 94.614q-7.538 0-13.73-5.077-6.193-5.077-7.039-12.615l-5.076-26q-19.385-5-34.001-12.846-14.616-7.846-26.77-21.308l-26.999 9.231q-7.923 2.23-14.154-.231-6.23-2.462-9.691-8.769l-5.693-8.769q-3.461-6.307-3.23-13.153.23-6.846 5.923-12.923l20.153-19.538q-5.308-18.616-5.308-36.693 0-18.077 5.308-36.693l-19.153-18.538q-5.308-5.692-6.423-12.231-1.116-6.538 2.346-13.845l5.692-8.769q3.461-7.308 10.384-9.769 6.923-2.461 14.846-.231l24.999 8.231q12.154-14.846 27.27-23t34.501-12.154l5.076-26.615q.846-7.539 7.539-12.308 6.692-4.769 14.23-4.769h8.615q7.538 0 14.23 4.577t7.538 12.115l5.077 27q19.385 5 35.001 12.654 15.615 7.654 26.769 22.5l26-8.231q7.923-2.23 14.153.731 6.231 2.961 9.692 9.269l5.692 8.769q3.462 6.307 2.731 13.153-.731 6.846-6.423 12.923l-18.153 17.538q5.307 18.616 4.807 37.193-.5 18.577-5.807 37.193l19.153 18.538q5.308 5.692 6.423 12.73 1.115 7.039-2.346 13.346l-5.692 8.769q-3.462 6.307-9.884 8.769-6.423 2.461-14.346.231l-27-8.231q-12.154 13.462-26.769 21.308-14.616 7.846-34.001 12.846l-6.077 26.615q-.846 7.538-7.038 12.307-6.192 4.77-13.73 4.77h-9.615Zm-552.614-84.076q-26.308 0-45.308-19t-19-45.308v-407.382q0-27.308 19-45.808t45.308-18.5H349q12.461 0 24.307 4.616 11.846 4.615 21.692 14.461l76.923 76.923h307.769q27.308 0 45.808 18.5t18.5 45.808v19.537q0 14.461-11.77 22.692-11.769 8.231-26.23 3.385-18.077-4.462-35.769-7.192Q752.538-552 734.846-552q-113.923 0-188.154 84.192-74.23 84.192-62.23 194.577 1 5.461 1.615 10.922.616 5.462 2.231 10.923 3.231 15.462-5.808 27.423-9.038 11.962-24.5 11.962H180.309Z"/></svg>