<svg xmlns="http://www.w3.org/2000/svg" height="20" viewBox="0 -960 960 960" width="20"><path d="M264-892q67.08 0 107.54 62.92Q412-766.15 412-686q0 43.69-11 86.39-11 42.69-23.93 75l-206.99 46.69q-24.92-45.85-39.5-98.62Q116-629.31 116-686q0-75.54 38.92-140.77Q193.85-892 264-892Zm53 608q-59.77 0-92.04-43.96T189-428.15L383.23-472q9.92 17.54 19.35 39.88Q412-409.77 412-387q0 45.54-26.73 74.27Q358.54-284 317-284Zm379-392q70.15 0 109.08 65.23Q844-545.54 844-470q0 57.85-14.85 112-14.84 54.15-41.54 101.15l-205.45-54.3q-11.54-32.31-22.85-73.93Q548-426.69 548-470q0-80.15 40.46-143.08Q628.92-676 696-676ZM643-68q-41.54 0-68.27-28.73Q548-125.46 548-171q0-23.15 9.81-45.88 9.81-22.74 19.73-41.66l193.84 50.23q-4.46 53.92-36.92 97.12Q702-68 643-68Z"/></svg>