<svg xmlns="http://www.w3.org/2000/svg" height="20" viewBox="0 -960 960 960" width="20"><path d="M160.197-298.001q-10.966 0-18.581-7.475-7.615-7.474-7.615-18.524v-312q0-11.05 7.418-18.524 7.418-7.475 18.384-7.475 10.966 0 18.581 7.475 7.615 7.474 7.615 18.524v130.001h188.002V-636q0-10.75 7.418-18.375 7.418-7.624 18.384-7.624 10.966 0 18.581 7.475 7.615 7.474 7.615 18.524v312q0 11.05-7.418 18.524-7.418 7.475-18.384 7.475-10.966 0-18.581-7.475-7.615-7.474-7.615-18.524v-130.001H185.999V-324q0 10.75-7.418 18.374-7.418 7.625-18.384 7.625Zm401.846 0q-26.563 0-45.303-18.89-18.741-18.89-18.741-45.417v-235.384q0-26.527 18.867-45.417 18.866-18.89 45.36-18.89h177.49q11.032 0 18.657 7.418t7.625 18.384q0 10.966-7.475 18.581t-18.524 7.615H562.306q-5.385 0-8.846 3.462-3.462 3.462-3.462 8.847v91.693h151.941q26.578 0 45.319 18.89 18.74 18.89 18.74 45.417v79.384q0 26.527-18.916 45.417t-45.479 18.89h-139.56Zm-12.045-156v91.693q0 5.385 3.462 8.847 3.461 3.462 8.846 3.462h139.385q5.385 0 8.846-3.462 3.462-3.462 3.462-8.847v-79.384q0-5.385-3.462-8.847-3.461-3.462-8.846-3.462H549.998Z"/></svg>