<svg xmlns="http://www.w3.org/2000/svg" height="20" viewBox="0 -960 960 960" width="20"><path d="M504.292-68.001q-121.83 0-207.06-85.024Q212.001-238.048 212.001-360v-361.999q0-11.05 7.419-18.525 7.418-7.475 18.384-7.475 10.966 0 18.581 7.475T264-721.999v200.923h85.078v-286.923q0-11.049 7.418-18.524 7.418-7.475 18.384-7.475 10.966 0 18.581 7.475t7.615 18.524v286.923h85.463v-334.923q0-11.049 7.418-18.524 7.418-7.475 18.384-7.475 10.966 0 18.581 7.475t7.615 18.524v334.923H624v-238.923q0-11.049 7.418-18.524 7.418-7.475 18.384-7.475 10.966 0 18.581 7.475 7.616 7.475 7.616 18.524v223q-17.431 15.014-26.561 35.389-9.131 20.375-9.131 44.071v96h-66.615q-57.895 0-97.87 39.976-39.976 39.975-39.976 97.87v10.153q0 7.733 5.052 12.789 5.051 5.057 12.776 5.057 7.726 0 12.795-5.057 5.069-5.056 5.069-12.789v-10.153q0-42.598 29.778-72.376 29.778-29.778 72.376-29.778h70.153q13.665 0 22.909-9.244 9.245-9.244 9.245-22.91v-99.538q0-30.4 21.184-51.584 21.185-21.185 51.585-21.185h12q14.231 0 24.731 10.5 10.5 10.5 10.5 24.731V-360q0 121.952-84.938 206.975-84.938 85.024-206.769 85.024Z"/></svg>