<svg xmlns="http://www.w3.org/2000/svg" height="20" viewBox="0 -960 960 960" width="20"><path d="M752.825-322.001q-10.98 0-18.469-7.465-7.489-7.465-7.489-18.534v-82.001h-82.169q-11.104 0-18.594-7.465-7.489-7.465-7.489-18.534 0-11.069 7.489-18.534 7.49-7.465 18.594-7.465h82.169V-564q0-11.069 7.489-18.534 7.489-7.465 18.492-7.465t18.423 7.465q7.42 7.465 7.42 18.534v82.001h81.689q11.003 0 18.618 7.404 7.616 7.405 7.616 18.384 0 10.98-7.466 18.445-7.465 7.465-18.534 7.465h-82v82.001q0 11.069-7.405 18.684t-18.384 7.615ZM70-15v-152 152Zm362-175.155q-9.923 0-18.653-3.154-8.731-3.154-17.423-9.846-64.386-57.848-123.627-112.066T167.682-422.106q-45.374-52.666-72.527-105.346Q68-580.131 68-634q0-80.154 55.423-135.769 55.423-55.615 135.425-55.615 49.536 0 95.151 23.693 45.615 23.692 78 67.462 32.385-43.77 78-67.462 45.615-23.693 95-23.693 60.231 0 109.384 33.501 49.154 33.5 69.385 89.116 6.538 16.922-1.462 29.614t-22.846 12.692q-7.307-.769-15.423-.654-8.116.116-15.423 1.116-83.539 12-132.769 69.692Q546.615-532.615 546.615-456q0 34.154 8.961 59.769 8.962 25.615 26.096 52.529 6.327 10.009 4.712 21.97-1.616 11.962-10.077 19.808L468.076-203.54q-8.692 6.692-17.423 10.039-8.73 3.346-18.653 3.346Z"/></svg>