<svg xmlns="http://www.w3.org/2000/svg" height="20" viewBox="0 -960 960 960" width="20"><path d="M767.902-739.384q-11.941 0-20.229-8.078-8.289-8.078-8.289-20.019 0-11.941 8.078-20.229 8.078-8.289 20.019-8.289 11.941 0 20.229 8.078 8.289 8.078 8.289 20.019 0 11.941-8.078 20.229-8.078 8.289-20.019 8.289Zm0 143.845q-11.941 0-20.229-8.077-8.289-8.078-8.289-20.019 0-11.941 8.078-20.23 8.078-8.288 20.019-8.288 11.941 0 20.229 8.078 8.289 8.078 8.289 20.019 0 11.941-8.078 20.229-8.078 8.288-20.019 8.288Zm0 143.846q-11.941 0-20.229-8.078-8.289-8.077-8.289-20.018 0-11.942 8.078-20.23t20.019-8.288q11.941 0 20.229 8.078 8.289 8.077 8.289 20.018 0 11.942-8.078 20.23t-20.019 8.288Zm0 143.846q-11.941 0-20.229-8.078-8.289-8.078-8.289-20.019 0-11.941 8.078-20.229 8.078-8.288 20.019-8.288 11.941 0 20.229 8.077 8.289 8.078 8.289 20.019 0 11.941-8.078 20.23-8.078 8.288-20.019 8.288ZM192.519-164.001q-11.941 0-20.229-8.078-8.289-8.078-8.289-20.019 0-11.941 8.078-20.229 8.078-8.289 20.019-8.289 11.941 0 20.229 8.078 8.289 8.078 8.289 20.019 0 11.941-8.078 20.229-8.078 8.289-20.019 8.289Zm143.846 0q-11.941 0-20.23-8.078-8.288-8.078-8.288-20.019 0-11.941 8.078-20.229 8.078-8.289 20.019-8.289 11.941 0 20.229 8.078 8.288 8.078 8.288 20.019 0 11.941-8.077 20.229-8.078 8.289-20.019 8.289Zm143.846 0q-11.942 0-20.23-8.078t-8.288-20.019q0-11.941 8.078-20.229 8.077-8.289 20.018-8.289 11.942 0 20.23 8.078t8.288 20.019q0 11.941-8.078 20.229-8.077 8.289-20.018 8.289Zm143.845 0q-11.941 0-20.229-8.078-8.288-8.078-8.288-20.019 0-11.941 8.077-20.229 8.078-8.289 20.019-8.289 11.941 0 20.23 8.078 8.288 8.078 8.288 20.019 0 11.941-8.078 20.229-8.078 8.289-20.019 8.289Zm143.846 0q-11.941 0-20.229-8.078-8.289-8.078-8.289-20.019 0-11.941 8.078-20.229 8.078-8.289 20.019-8.289 11.941 0 20.229 8.078 8.289 8.078 8.289 20.019 0 11.941-8.078 20.229-8.078 8.289-20.019 8.289ZM164.001-366.154v-365.537q0-26.527 18.891-45.417 18.89-18.891 45.417-18.891h365.537q26.526 0 45.417 18.891 18.89 18.89 18.89 45.417v365.537q0 26.526-18.89 45.417-18.891 18.89-45.417 18.89H228.309q-26.527 0-45.417-18.89-18.891-18.891-18.891-45.417Z"/></svg>