<svg xmlns="http://www.w3.org/2000/svg" height="20" viewBox="0 -960 960 960" width="20"><path d="m412.614-398.232-52.923 270.924q-1.615 9.538-8.735 15.423-7.12 5.884-16.407 5.884-12.521 0-20.689-9.346-8.167-9.346-5.937-21.73l93-476.846q3.846-21.384 20.112-35.654 16.266-14.269 40.272-14.269 17.37 0 36.14 9.846t28.398 24.539l16 26q32.769 51.154 62.077 74.461 29.308 23.308 70.386 30.616V-552q0-7.733 5.051-12.789 5.051-5.057 12.777-5.057 7.725 0 12.794 5.057 5.069 5.056 5.069 12.789v428.154q0 7.733-5.051 12.789t-12.777 5.056q-7.725 0-12.794-5.056-5.069-5.056-5.069-12.789v-324.812q-45.308-9.266-85.954-36.246-40.646-26.981-72.817-68.867l-28 145.386 61 60.734q4.539 4.805 7.154 10.552 2.615 5.748 2.615 12.945V-132q0 11.05-7.418 18.524-7.418 7.475-18.384 7.475-10.966 0-18.581-7.475-7.615-7.474-7.615-18.524v-185.078l-93.694-81.154ZM279-447.539l-37.461-6.462q-7.154-1.615-10.23-6.653-3.077-5.039-1.462-10.807l28-141q5.616-24.769 25.692-39.846 20.077-15.077 44.019-9.546 10.596 2.315 16.249 11.007 5.654 8.692 4.039 19.231l-31.462 159.537q-2.73 12.132-14.019 19.643-11.288 7.511-23.365 4.896Zm241.059-254.615q-32.213 0-54.905-22.94-22.693-22.94-22.693-55.154 0-32.213 22.94-54.906 22.94-22.692 55.154-22.692 32.213 0 54.906 22.94 22.692 22.94 22.692 55.154 0 32.213-22.94 54.906-22.94 22.692-55.154 22.692Z"/></svg>