<svg xmlns="http://www.w3.org/2000/svg" height="20" viewBox="0 -960 960 960" width="20"><path d="M232.003-212.001q-26.527 0-45.417-18.848-18.89-18.847-18.89-45.313v-240.082q0-13.003 4.615-24.764 4.616-11.761 14.462-21.607L318.65-694.492q9.66-9.66 21.121-13.891 11.462-4.231 23.923-4.231 12.462 0 23.923 4.231 11.462 4.231 21.122 13.891l131.877 131.877q9.846 9.846 14.462 21.637 4.615 11.791 4.615 24.801v240.214q0 26.481-18.89 45.221-18.891 18.741-45.417 18.741h-84.231q-7.23 0-11.653-4.423-4.423-4.424-4.423-11.654v-98.691q0-12.992-8.963-22.188-8.962-9.196-22.211-9.196-12.903 0-22.249 9.196-9.346 9.196-9.346 22.188v98.691q0 7.23-4.423 11.654-4.423 4.423-11.654 4.423h-84.23Zm392.269-25.629v-327.682q0-2.308-.77-4.423-.769-2.116-2.692-4.039L499-695.461q-12.384-12.384-5.332-28.23 7.052-15.845 24.443-15.845 6.042 0 10.491 2.102 4.448 2.103 8.166 5.82L656.922-611.46q9.846 9.846 14.461 21.641 4.616 11.794 4.616 24.809v327.113q0 11.031-7.419 18.655-7.418 7.625-18.384 7.625-10.966 0-18.445-7.479-7.479-7.478-7.479-18.534Zm116.19 0v-375.95q0-2.308-.769-4.424-.77-2.115-2.693-4.038l-73.464-73.034q-12.385-12.384-5.332-28.422 7.052-16.038 24.443-16.038 6.042 0 10.49 2.102 4.449 2.103 8.167 5.82l72.308 72.309q9.896 10.017 14.294 21.748 4.398 11.73 4.398 24.674v374.996q0 11.021-7.418 18.645-7.418 7.625-18.384 7.625-10.966 0-18.503-7.479-7.537-7.478-7.537-18.534ZM363.484-448.616q12.902 0 22.249-9.135 9.346-9.136 9.346-22.038 0-12.903-9.136-22.249-9.135-9.346-22.038-9.346t-22.249 9.135q-9.346 9.136-9.346 22.038 0 12.903 9.136 22.249 9.135 9.346 22.038 9.346Z"/></svg>