<svg xmlns="http://www.w3.org/2000/svg" height="20" viewBox="0 -960 960 960" width="20"><path d="M132-106.001q-11.05 0-18.524-7.418-7.475-7.418-7.475-18.384 0-10.966 7.475-18.581 7.474-7.615 18.524-7.615h142.001v-92.002h-55.693q-26.527 0-45.417-18.89t-18.89-45.417v-451.384q0-26.527 18.89-45.417t45.417-18.89h181.538q26.527 0 45.417 18.89 18.891 18.89 18.891 45.417v48H360q-8.677 0-15.185 6.508-6.507 6.507-6.507 15.184t6.507 15.184q6.508 6.508 15.185 6.508h104.538v52.616H360q-8.677 0-15.185 6.508-6.507 6.507-6.507 15.184t6.507 15.184q6.508 6.508 15.185 6.508h115.852q10.378 19 30.994 24.5 20.615 5.5 41.615 11.5l103 29q42.923 11.846 72.807 42.759 29.885 30.912 29.885 74.625v81.616q0 26.527-18.89 45.417-18.891 18.89-45.417 18.89h-51.847v92.002H720q51.923 0 89.616-34.231 37.692-34.231 40.385-85.769 0-11.05 7.418-18.525 7.418-7.475 18.384-7.475 10.966 0 18.581 7.475t7.615 18.525q-2.692 72.756-55.775 122.377Q793.141-106.001 720-106.001H132Zm193.999-51.998h260.002v-92.002H325.999v92.002Z"/></svg>