<svg xmlns="http://www.w3.org/2000/svg" height="20" viewBox="0 -960 960 960" width="20"><path d="M276.025-68.001q-27.024 0-45.524-18.65t-18.5-45.658v-407.382q0-27.008 18.65-45.658 18.65-18.65 45.658-18.65h76.307q11.069 0 18.534 7.405 7.465 7.405 7.465 18.384 0 10.98-7.465 18.595Q363.685-552 352.616-552h-76.307q-4.616 0-8.463 3.846-3.846 3.847-3.846 8.463v407.382q0 4.616 3.846 8.463 3.847 3.846 8.463 3.846h407.382q4.616 0 8.463-3.846 3.846-3.847 3.846-8.463v-407.382q0-4.616-3.846-8.463-3.847-3.846-8.463-3.846h-76.307q-11.069 0-18.534-7.405-7.465-7.404-7.465-18.384 0-10.979 7.465-18.594 7.465-7.616 18.534-7.616h76.307q27.008 0 45.658 18.65 18.65 18.65 18.65 45.658v407.382q0 27.008-18.662 45.658-18.662 18.65-45.686 18.65H276.025Zm177.976-710.23-49.175 49.174q-7.672 7.673-18.134 8.058-10.461.384-19.247-7.923-8.214-8.308-8.021-18.577.192-10.268 8.375-18.451l90.019-90.019q9.721-9.721 22.364-9.721t22.125 9.846l89.769 89.769q8.308 8.308 8.5 18.076.193 9.769-8.021 18.077-8.786 8.307-19.029 8.307-10.244 0-18.218-8.307l-49.309-48.309V-372q0 11.069-7.404 18.534-7.405 7.465-18.384 7.465-10.98 0-18.595-7.465-7.615-7.465-7.615-18.534v-406.231Z"/></svg>