<svg xmlns="http://www.w3.org/2000/svg" height="20" viewBox="0 -960 960 960" width="20"><path d="M156.31-212Q126-212 109-229q-17-17-17-47.31v-407.38Q92-714 109-731q17-17 47.31-17h647.38Q834-748 851-731q17 17 17 47.31v407.38Q868-246 851-229q-17 17-47.31 17H156.31Zm224.11-110.39h198.84q12.97 0 22.32-8.94 9.34-8.94 9.34-22.23 0-12.9-9.18-22.25-9.19-9.34-22.16-9.34H380.74q-12.97 0-22.32 8.94-9.34 8.94-9.34 22.23 0 12.9 9.18 22.25 9.19 9.34 22.16 9.34ZM269.94-552.38q12.91 0 22.25-9.14 9.35-9.14 9.35-22.04 0-12.9-9.14-22.25-9.13-9.34-22.04-9.34-12.9 0-22.24 9.13-9.35 9.14-9.35 22.04 0 12.9 9.14 22.25 9.13 9.35 22.03 9.35Zm139.77 0q12.91 0 22.25-9.14 9.35-9.14 9.35-22.04 0-12.9-9.14-22.25-9.13-9.34-22.04-9.34-12.9 0-22.24 9.13-9.35 9.14-9.35 22.04 0 12.9 9.13 22.25 9.14 9.35 22.04 9.35Zm140.16 0q12.9 0 22.24-9.14 9.35-9.14 9.35-22.04 0-12.9-9.13-22.25-9.14-9.34-22.04-9.34-12.91 0-22.25 9.13-9.35 9.14-9.35 22.04 0 12.9 9.14 22.25 9.13 9.35 22.04 9.35Zm137.84 1.92q12.9 0 22.25-9.14 9.35-9.13 9.35-22.04 0-12.9-9.14-22.24-9.13-9.35-22.04-9.35-12.9 0-22.25 9.14-9.34 9.13-9.34 22.03 0 12.91 9.13 22.25 9.14 9.35 22.04 9.35ZM269.94-437.39q12.91 0 22.25-9.13 9.35-9.14 9.35-22.04 0-12.9-9.14-22.25-9.13-9.34-22.04-9.34-12.9 0-22.24 9.13-9.35 9.14-9.35 22.04 0 12.9 9.14 22.25 9.13 9.34 22.03 9.34Zm139.77 0q12.91 0 22.25-9.13 9.35-9.14 9.35-22.04 0-12.9-9.14-22.25-9.13-9.34-22.04-9.34-12.9 0-22.24 9.13-9.35 9.14-9.35 22.04 0 12.9 9.13 22.25 9.14 9.34 22.04 9.34Zm140.16 0q12.9 0 22.24-9.13 9.35-9.14 9.35-22.04 0-12.9-9.13-22.25-9.14-9.34-22.04-9.34-12.91 0-22.25 9.13-9.35 9.14-9.35 22.04 0 12.9 9.14 22.25 9.13 9.34 22.04 9.34Zm139.77 0q12.9 0 22.24-9.13 9.35-9.14 9.35-22.04 0-12.9-9.14-22.25-9.13-9.34-22.03-9.34-12.91 0-22.25 9.13-9.35 9.14-9.35 22.04 0 12.9 9.14 22.25 9.13 9.34 22.04 9.34Z"/></svg>