<svg xmlns="http://www.w3.org/2000/svg" height="20" viewBox="0 -960 960 960" width="20"><path d="M479.774-116.001q-74.347 0-126.521-51.737-52.175-51.737-52.175-125.647v-337.539q-27.308 0-46.192-18.842-18.885-18.842-18.885-45.849v-83.307q0-26.844 19.117-45.96 19.116-19.117 45.96-19.117h357.459q27.003 0 46.232 19.117 19.23 19.116 19.23 45.96v83.307q0 27.007-19.23 45.849-19.229 18.842-46.232 18.842v343.309q-2.307 71.987-54.302 121.8-51.995 49.814-124.461 49.814ZM480-168q52.725 0 89.632-36.346 36.907-36.347 36.907-89.039v-15.001h-97.847q-11.05 0-18.525-7.418-7.474-7.418-7.474-18.384 0-10.966 7.474-18.581 7.475-7.616 18.525-7.616h97.847v-88.924h-97.847q-11.05 0-18.525-7.418-7.474-7.418-7.474-18.384 0-10.966 7.474-18.581 7.475-7.615 18.525-7.615h97.847v-129.617H353.076v337.539q0 52.692 37.02 89.039Q427.115-168 480-168Z"/></svg>