<svg xmlns="http://www.w3.org/2000/svg" height="20" viewBox="0 -960 960 960" width="20"><path d="M116.001-180.309v-96.537L237-211.385l403.46-122.769 94.384 112.461q26.307 31.154 9.423 68.423-16.885 37.269-58.269 37.269H180.309q-26.923 0-45.615-18.693-18.693-18.692-18.693-45.615ZM243-268.615l-126.999-63.691V-437L237-375.539 462.767-443l131.77 66.386L243-268.615Zm496.614-146.232 110.461-57.077q12.076-5.846 19.307-17.499 7.231-11.654 7.231-25.116v-48.229q0-17.077-9.962-29.538-9.961-12.461-26.422-17.077l-108.307-27.769q-10.461-2.615-21.5-1.192-11.038 1.423-19.884 9.038l-42.23 32.154q-9.846 7.615-14.769 17.269-4.923 9.653-4.923 21.499v57.153q0 9.846 3.423 18t10.269 15.769l39.691 42.384q10.462 10.846 26.808 14.154t30.807-3.923ZM243-432.768 116.001-496.46v-43.231q0-26.923 18.693-45.615 18.692-18.693 45.615-18.693H291.23q16.077 0 30.346 7.539 14.269 7.538 23.115 21l63.308 92.538L243-432.768ZM507.615-643.77l118.23-60.845q12.461-6.231 19.307-17.692 6.847-11.462 6.847-24.539v-95.844q0-16.692-10.154-29.346t-26.231-16.885l-110.691-28.923q-9.846-3-19.692-1.192t-19.077 7.039l-88.845 60.076q-9.461 7.231-15.385 17.384-5.923 10.154-5.923 22.616v70.614q0 12.461 5.923 22.615 5.924 10.154 15.385 17.385L458.616-646q10.846 7.23 24 8.23 13.153 1 24.999-6Z"/></svg>