<svg xmlns="http://www.w3.org/2000/svg" height="20" viewBox="0 -960 960 960" width="20"><path d="M227.981-306.615h503.727q11.042 0 18.667 7.418 7.624 7.418 7.624 18.384 0 10.966-7.469 18.581-7.469 7.616-18.511 7.616H228.292q-11.042 0-18.666-7.419-7.625-7.418-7.625-18.384 0-10.966 7.469-18.581t18.511-7.615Zm0-139.384h503.727q11.042 0 18.667 7.418 7.624 7.418 7.624 18.384 0 10.966-7.469 18.581t-18.511 7.615H228.292q-11.042 0-18.666-7.418-7.625-7.418-7.625-18.384 0-10.966 7.469-18.581t18.511-7.615Zm-13.52-162.092 156.385-96.677q17.077-9.846 36.769-9.442 19.692.403 34.769 12.057l138.308 98.077q3.077 2.308 7.308 2.308t7.308-2.308l122.372-87.492q13.089-9.277 26.704-1.801 13.615 7.476 13.615 23.608 0 6.454-2.883 12.087t-8.137 8.997l-121.37 86.506q-16.906 12.017-37.491 12.017t-37.887-12.462l-138.307-98.077q-3.078-1.923-6.732-2.115-3.654-.192-6.731 1.731l-157.785 96.34q-13.061 8.198-25.868.487-12.807-7.712-12.807-23.134 0-6.387 3.285-11.902t9.175-8.805Z"/></svg>