<svg xmlns="http://www.w3.org/2000/svg" height="20" viewBox="0 -960 960 960" width="20"><path d="M749.15-606.154q-52.996 0-92.496-33.231-39.5-33.231-48.038-83.692H350.3q-8.608 43.769-39.108 74.461-30.5 30.693-74.269 39.301v257.931q50.461 8.538 83.692 48.038 33.231 39.5 33.231 92.496 0 59.926-41.462 101.387-41.461 41.462-101.46 41.462-60 0-101.461-41.462-41.462-41.461-41.462-101.387 0-52.996 33.231-92.496 33.231-39.5 83.692-48.038v-257.847q-50.461-8.538-83.692-47.63-33.23-39.092-33.23-91.856 0-60.359 41.461-101.82 41.461-41.462 101.435-41.462 52.764 0 91.856 33.231 39.092 33.231 47.63 83.692h258.232q8.538-50.461 48.038-83.692 39.5-33.231 92.496-33.231 59.541 0 101.195 41.654 41.654 41.654 41.654 101.269 0 59.999-41.654 101.46-41.654 41.462-101.195 41.462Zm-.534 538.153q-59.539 0-101-41.462-41.462-41.461-41.462-100.616 0-59.539 41.462-101.653 41.461-42.114 101-42.114 59.54 0 101.461 42.114 41.922 42.114 41.922 101.653 0 59.155-41.922 100.616-41.921 41.462-101.461 41.462Z"/></svg>