<svg xmlns="http://www.w3.org/2000/svg" height="20" viewBox="0 -960 960 960" width="20"><path d="m744-72.23-44.57-99.2-99.2-44.57 99.2-44.57 44.57-99.2 44.57 99.2 99.2 44.57-99.2 44.57L744-72.23ZM276.31-212q-26.53 0-45.42-18.89T212-276.31v-329.54q0-15.02 6.68-28.46 6.69-13.44 19.24-23.38l203.7-153.54q7.96-6.23 17.86-9.35 9.91-3.11 20.64-3.11t20.54 3.11q9.81 3.12 17.72 9.35l203.7 153.54q12.55 9.94 19.24 23.38 6.68 13.44 6.68 28.46v143.54q0 9.08-6.54 14.89-6.54 5.81-16 6.92-40.31 3.89-75.42 21.16-35.12 17.26-64.12 45.88-32.07 31.69-48.73 72.33-16.65 40.64-16.65 85.13v-5.77q-.38 4.23-3.51 7-3.12 2.77-7.95 2.77H276.31Z"/></svg>