<svg xmlns="http://www.w3.org/2000/svg" height="20" viewBox="0 -960 960 960" width="20"><path d="M68.001-484.846q0-14.692 7.039-28.846 7.038-14.153 19.5-23.999L274.23-667.46q8.979-6.179 18.411-9.32 9.432-3.141 19.318-3.141 9.886 0 19.345 3.141t18.464 9.32L529.46-537.691q12.462 9.846 19.5 23.999 7.039 14.154 7.039 28.846v256.537q0 26.827-18.741 45.567-18.74 18.741-45.567 18.741H445.23q-26.827 0-45.567-18.741-18.74-18.74-18.74-45.567v-72.769q0-15.192-10.635-25.826-10.634-10.635-25.826-10.635h-64.924q-15.192 0-25.826 10.635-10.635 10.634-10.635 25.826v72.769q0 26.827-18.74 45.567-18.74 18.741-45.567 18.741h-46.461q-26.827 0-45.567-18.741-18.74-18.74-18.74-45.567v-256.537ZM892-731.691v503.382q0 26.827-18.741 45.567-18.74 18.741-45.567 18.741H659.383q-12.692 0-22.038-9.347-9.346-9.346-9.346-22.038v-327.46q0-14.692-7.231-28.846-7.231-14.153-19.644-24.05L444.846-687.69q-12-7.616-19.307-19.269-7.308-11.654-7.308-26.808v-6.924q0-23 19.577-39.154 19.577-16.154 43.808-16.154h346.075q26.827 0 45.567 18.741 18.741 18.74 18.741 45.567ZM716.693-604.616h30.614q7.231 0 11.654-4.423t4.423-11.654v-30.614q0-7.231-4.423-11.654t-11.654-4.423h-30.614q-7.231 0-11.654 4.423t-4.423 11.654v30.614q0 7.231 4.423 11.654t11.654 4.423Zm0 156h30.614q7.231 0 11.654-4.423t4.423-11.654v-30.614q0-7.231-4.423-11.654t-11.654-4.423h-30.614q-7.231 0-11.654 4.423t-4.423 11.654v30.614q0 7.231 4.423 11.654t11.654 4.423Zm0 156h30.614q7.231 0 11.654-4.423t4.423-11.654v-30.614q0-7.231-4.423-11.654t-11.654-4.423h-30.614q-7.231 0-11.654 4.423t-4.423 11.654v30.614q0 7.231 4.423 11.654t11.654 4.423Z"/></svg>