<svg xmlns="http://www.w3.org/2000/svg" height="20" viewBox="0 -960 960 960" width="20"><path d="m361.999-311.537 49.476-49.476q8.525-8.525 18.794-8.718 10.269-.192 18.577 8.022 8.307 8.786 8.115 18.862-.192 10.077-8.409 18.337l-89.79 90.161q-5.07 5.092-10.664 7.181-5.595 2.09-12.098 2.09-6.503 0-12.098-2.09-5.594-2.089-10.664-7.181l-89.79-90.161q-8.217-8.26-7.947-18.503.269-10.244 8.653-18.218 8.308-8.692 18.577-8.5 10.269.193 18.533 8.718l48.737 49.476v-315.157L137.309-799.385q-8.692-8.692-8.692-18.576 0-9.885 8.692-18.577 8.692-8.692 18.577-8.692 9.884 0 18.576 8.692l610.307 610.307q8.692 8.692 8.692 18.076t-8.692 18.076q-8.693 8.693-18.577 8.693-9.884 0-18.782-8.869l-385.411-384.44v263.158ZM624-500.154q-11.069 0-18.534-7.459-7.465-7.459-7.465-18.155v-220.926l-48.925 48.925q-8.692 8.692-18.576 8.692t-18.576-8.692q-8.693-8.692-8.693-18.577 0-9.884 8.693-18.576l89.639-89.369q5.031-5.015 10.579-7.323 5.549-2.308 12.001-2.308 6.451 0 12 2.308t10.164 6.923l89.769 89.769q8.693 8.692 8.693 18.076 0 9.385-8.693 18.077-8.692 8.692-18.576 8.692t-18.576-8.692l-48.925-47.925v220.541q0 12.384-7.915 19.192-7.915 6.807-18.084 6.807Z"/></svg>