<svg xmlns="http://www.w3.org/2000/svg" height="20" viewBox="0 -960 960 960" width="20"><path d="M184.994-212.001q-28.993 0-48.993-17.5-20-17.5-20-46.808v-145.538q0-13.762 9.197-22.958 9.196-9.196 22.957-9.196h171.999l65.166 118.379q3.373 6.314 9.582 9.968 6.21 3.653 13.098 3.653 6.888 0 13.098-3.653 6.209-3.654 9.59-10.093L552-559.309l48.847 91.693q2.846 7.308 8.846 10.462 6 3.153 14.516 3.153h187.636q13.761 0 22.957 9.196 9.197 9.196 9.197 22.958v145.538q0 29.308-20.064 46.808t-49.056 17.5H184.994Zm-68.993-471.69q0-29.308 20.064-46.808t49.056-17.5h589.885q28.993 0 48.993 17.5 20 17.5 20 46.808v145.538q0 13.762-9.197 22.958-9.196 9.196-22.957 9.196H639.846l-64.693-118.385q-3.846-6.923-9.863-10.269-6.017-3.346-13.29-3.346-6.888 0-13.098 3.346-6.209 3.346-10.055 10.269L408-400.691l-49.255-91.471q-3.438-6.53-9.647-10.184-6.21-3.653-13.098-3.653H148.155q-13.761 0-22.957-9.196-9.197-9.196-9.197-22.958v-145.538Z"/></svg>