<svg xmlns="http://www.w3.org/2000/svg" height="20" viewBox="0 -960 960 960" width="20"><path d="M378.693-260.001q-17.497 0-32.902-7.385-15.406-7.385-27.175-21.154L196.924-439.231Q182.463-457.308 182.463-480q0-22.692 14.461-40.769l121.692-149.922q11.769-13.769 26.982-21.538 15.214-7.77 33.095-7.77h304.998q26.623 0 45.465 18.843 18.843 18.842 18.843 45.465v311.382q0 26.623-18.843 45.465-18.842 18.843-45.465 18.843H378.693Zm-9.211-188.615q12.902 0 22.248-9.135 9.346-9.136 9.346-22.038 0-12.903-9.135-22.249-9.136-9.346-22.038-9.346-12.903 0-22.249 9.135-9.346 9.136-9.346 22.038 0 12.903 9.135 22.249 9.136 9.346 22.039 9.346Zm120 0q12.902 0 22.248-9.135 9.346-9.136 9.346-22.038 0-12.903-9.135-22.249-9.136-9.346-22.038-9.346-12.903 0-22.249 9.135-9.346 9.136-9.346 22.038 0 12.903 9.135 22.249 9.136 9.346 22.039 9.346Zm120 0q12.902 0 22.248-9.135 9.346-9.136 9.346-22.038 0-12.903-9.135-22.249-9.136-9.346-22.038-9.346-12.903 0-22.249 9.135-9.346 9.136-9.346 22.038 0 12.903 9.135 22.249 9.136 9.346 22.039 9.346Z"/></svg>