<svg xmlns="http://www.w3.org/2000/svg" height="20" viewBox="0 -960 960 960" width="20"><path d="M277.999-277.999h300q11.05 0 18.525 7.418 7.475 7.418 7.475 18.384 0 10.966-7.475 18.581t-18.525 7.615H258.154q-13.665 0-22.909-9.244t-9.244-22.909v-319.845q0-11.05 7.418-18.525 7.418-7.475 18.384-7.475 10.966 0 18.581 7.475t7.615 18.525v300Zm192-192h300q11.05 0 18.525 7.418 7.475 7.418 7.475 18.384 0 10.966-7.475 18.581t-18.525 7.615H450.154q-13.665 0-22.909-9.244t-9.244-22.909v-319.845q0-11.05 7.418-18.525 7.418-7.475 18.384-7.475 10.966 0 18.581 7.475t7.615 18.525v300Z"/></svg>