<svg xmlns="http://www.w3.org/2000/svg" height="20" viewBox="0 -960 960 960" width="20"><path d="m291.309-460.999 39.307-82.615q8.231-16.692 23.808-26.538 15.577-9.847 34.269-9.847h65.308v-231.846q0-13.461 9.346-22.807 9.346-9.347 22.807-9.347h138.768q9.846 0 14.269 8.539 4.423 8.538-1.192 16.769l-18.538 27.461q-3 4.231-3 9.231t3 9.23l18.538 27.462q5.615 8.23 1.192 16.769Q634.768-720 624.922-720H505.999v140.001h64.308q18.692 0 35.154 9.847 16.461 9.846 24.307 26.922l37.923 81.616-112.922 72.153L480-424.845l-74.769 35.384-113.922-71.538Zm-61.692 344.998q-35.384 0-54.077-30.039-18.692-30.038-3.615-62.191l97.615-203.846 132.229 81.538L480-367.155l78.231 36.616 132.614-82.538 97.615 205.23q15.076 32.154-3.616 62-18.692 29.846-54.461 29.846H229.617Z"/></svg>