<svg xmlns="http://www.w3.org/2000/svg" height="20" viewBox="0 -960 960 960" width="20"><path d="M173.77-370.001q-45.769 0-77.884-32.115Q63.77-434.231 63.77-480t32.116-77.884Q128-589.999 173.77-589.999q37.461 0 66.923 23 29.461 23 40.153 61h118.132q10.948 0 18.331 7.404 7.383 7.405 7.383 18.384 0 10.98-7.383 18.595-7.383 7.615-18.331 7.615H280.846q-10.692 38-39.958 61-29.267 23-67.118 23Zm0-51.998q24.246 0 41.123-16.877Q231.77-455.754 231.77-480q0-24.246-16.877-41.124-16.877-16.877-41.123-16.877-24.247 0-41.124 16.877-16.877 16.878-16.877 41.124 0 24.246 16.877 41.124 16.877 16.877 41.124 16.877ZM512.078-480q0-124.583-81.424-212.215-81.423-87.631-202.269-98.554-11.539-1.231-19.923-8.891-8.384-7.659-8.384-18.129 0-10.979 8.576-18.594 8.577-7.616 19.115-6.385 136.616 10.692 230.962 105.461 94.345 94.77 104.114 231.308h233.849l-49.309-48.925q-8.307-8.307-8.5-18.743-.192-10.435 8.115-18.409 8.693-8.693 18.577-8.693 9.884 0 18.576 8.693l89.369 89.639q5.015 5.031 7.323 10.579 2.308 5.549 2.308 12.001 0 6.451-2.308 12t-6.923 10.164l-89.769 89.769q-8.307 8.308-18.076 7.808T748-368.924q-8.692-8.692-8.499-18.768.192-10.077 8.884-18.384l48.309-47.925H562.845q-9.769 136.538-104.114 231.308-94.346 94.769-230.962 105.461-10.538 1.231-19.115-6.152-8.576-7.384-8.576-18.331 0-10.439 6.495-17.978 6.496-7.538 16.812-8.538 122.846-7.923 205.769-96.738Q512.078-353.785 512.078-480Z"/></svg>