<svg xmlns="http://www.w3.org/2000/svg" height="20" viewBox="0 -960 960 960" width="20"><path d="M371.778-106.001q-50.932 0-86.354-35.58-35.423-35.58-35.423-86.419v-561.692q0-26.527 18.89-45.417t45.417-18.89h115.384q26.527 0 45.417 18.89t18.89 45.417V-228q0 50.839-35.645 86.419t-86.576 35.58Zm.222-51.998q29.846 0 49.924-20.577 20.077-20.578 20.077-49.424t-20.077-49.424Q401.846-298.001 372-298.001q-28.846 0-49.424 20.577-20.577 20.578-20.577 49.424t20.577 49.424q20.578 20.577 49.424 20.577Zm278.308-92.002q-26.527 0-45.417-18.89t-18.89-45.417v-331.384q0-26.527 18.89-45.417t45.417-18.89h43.384q26.527 0 45.417 18.89t18.89 45.417v331.384q0 26.527-18.89 45.417t-45.417 18.89h-43.384Z"/></svg>