<svg xmlns="http://www.w3.org/2000/svg" height="20" viewBox="0 -960 960 960" width="20"><path d="M344.462-212.001H228.309q-26.308 0-45.308-19t-19-45.308v-503.382q0-26.308 19-45.308t45.308-19h503.382q27.308 0 45.808 19t18.5 45.308v503.382q0 26.308-18.5 45.308t-45.808 19H615.538L502.307-98.771q-9.846 9.846-22.307 9.846-12.461 0-22.307-9.846l-113.231-113.23Zm134.538-133q75.769 0 128.884-53.115Q660.999-451.231 660.999-527v-149.846q0-13.461-9.346-22.807-9.346-9.346-22.807-9.346H479q-75.769 0-128.884 53.115Q297.001-602.769 297.001-527q0 28.461 9.077 56.346 9.077 27.885 26.615 53.193l-27.769 28.385q-8.308 8.307-8.308 18.076t8.308 18.076q8.307 8.308 18.268 8.308 9.962 0 17.884-8.692l29.155-27.385q23.384 17.154 51.846 26.423 28.462 9.269 56.923 9.269Zm31.076-213.075q8.308 8.307 8.308 18.076t-8.308 18.076l-82.77 82.771q-8.307 8.307-18.384 8.115-10.077-.192-18.384-8.115-8.692-8.308-8.885-17.884-.192-9.577 8.5-18.269l83.771-82.77q8.307-8.308 18.076-8.308t18.076 8.308Z"/></svg>