<svg xmlns="http://www.w3.org/2000/svg" height="20" viewBox="0 -960 960 960" width="20"><path d="M244.44-164.001q-13.65 0-23.044-9.219-9.395-9.219-9.395-22.847v-84.519q0-13.628 9.234-23.022 9.234-9.394 22.884-9.394h249.443q13.65 0 23.045 9.219 9.394 9.219 9.394 22.847v84.518q0 13.628-9.234 23.022-9.234 9.395-22.884 9.395H244.44Zm365.984 0q-13.636 0-23.031-9.219-9.394-9.219-9.394-22.847v-84.519q0-13.339 9.369-22.877 9.369-9.539 22.717-9.539h105.489q13.636 0 23.03 9.219 9.395 9.219 9.395 22.847v84.518q0 13.628-9.225 23.022-9.225 9.395-22.861 9.395H610.424ZM244.426-365q-13.636 0-23.03-9.219-9.395-9.219-9.395-22.847v-84.518q0-13.628 9.225-23.023 9.225-9.394 22.861-9.394h105.489q13.636 0 23.031 9.219 9.394 9.219 9.394 22.847v84.518q0 13.628-9.225 23.022Q363.551-365 349.915-365H244.426Zm222.012 0q-13.65 0-23.045-9.219-9.394-9.219-9.394-22.847v-84.518q0-13.628 9.234-23.023 9.234-9.394 22.884-9.394H715.56q13.65 0 23.044 9.219 9.395 9.219 9.395 22.847v84.518q0 13.628-9.234 23.022Q729.531-365 715.881-365H466.438ZM256.057-565.999q-11.671 0-15.594-10.654t4.923-17.884l193.213-162.217q8.976-7.321 19.841-10.937 10.865-3.615 21.636-3.615 10.77 0 21.583 3.615 10.813 3.616 19.742 10.937l193.213 162.217q8.846 7.23 4.923 17.884t-15.594 10.654H256.057Z"/></svg>