<svg xmlns="http://www.w3.org/2000/svg" height="20" viewBox="0 -960 960 960" width="20"><path d="M480-195.542q-50.769 0-85.845-35.077-35.076-35.076-35.076-85.845 0-50.768 35.076-85.845 35.076-35.076 85.845-35.076t85.845 35.076q35.076 35.077 35.076 85.845 0 50.769-35.076 85.845-35.076 35.077-85.845 35.077Zm0-533.842q-75.769 0-144.345 27.077t-122.653 74.615q-7.538 7.308-17.422 7.5-9.885.192-17.807-8.5-8.308-8.692-7.616-18.769.693-10.076 8.616-17.384 61.383-56.076 137.075-86.307 75.691-30.23 164.152-30.23 87.461 0 163.152 30.23 75.692 30.231 137.075 85.923 7.923 7.307 8.808 18.076.885 10.769-7.423 19.461-7.923 8.692-18.499 8-10.577-.692-18.115-8-54.077-47.538-122.153-74.615Q554.769-729.384 480-729.384Zm0 171.999q-42.538 0-77.999 13.731-35.462 13.73-67.154 39.5-8.538 6.692-19.115 6.576-10.576-.115-18.499-8.422-7.923-8.308-7.423-18.769.5-10.461 8.423-17.153 39-32.693 83.922-50.077 44.923-17.385 97.845-17.385 51.922 0 97.037 17.385 45.115 17.384 85.115 50.077 7.923 6.692 8.23 17.653.308 10.961-7.615 19.269-8.307 8.307-18.884 7.922-10.577-.384-19.115-7.076-31.692-25.77-67.461-39.5-35.769-13.731-77.307-13.731Z"/></svg>