<svg xmlns="http://www.w3.org/2000/svg" height="20" viewBox="0 -960 960 960" width="20"><path d="M235.89-188q-10.97 0-18.58-7.48-7.62-7.47-7.62-18.52v-70h-70q-11.05 0-18.52-7.42-7.48-7.42-7.48-18.38 0-10.97 7.48-18.58 7.47-7.62 18.52-7.62h70v-70q0-11.05 7.42-18.53 7.42-7.47 18.39-7.47 10.96 0 18.58 7.47 7.61 7.48 7.61 18.53v70h70q11.05 0 18.53 7.42 7.47 7.42 7.47 18.38 0 10.97-7.47 18.58-7.48 7.62-18.53 7.62h-70v70q0 11.05-7.42 18.52-7.41 7.48-18.38 7.48ZM411-212q12.69-22.46 19.54-47.24 6.85-24.77 6.85-50.76 0-84.04-58.83-142.87-58.83-58.82-142.87-58.82-31.77 0-62.72 10.09-30.96 10.09-56.97 29.06v-210.85q0-27.13 18.89-45.87T180.31-748h404.23q15.02 0 28.46 6.58 13.44 6.58 23.38 18.96l154.7 203.69q12.84 18.46 12.84 38.77 0 20.31-12.84 38.77l-154.7 203.69q-9.94 12.38-23.38 18.96T584.54-212H411Z"/></svg>