<svg xmlns="http://www.w3.org/2000/svg" height="20" viewBox="0 -960 960 960" width="20"><path d="M447-154.001q-121.384 0-207.192-85.807Q154.001-325.616 154.001-447q0-54.154 17.269-103.769t47.884-88.384q30.615-38.769 73.961-63.884 43.346-25.116 95.5-30.039 19.307-2.769 29.23 13.423 9.923 16.192.846 33.269-11.461 19.23-15.576 41.884-4.116 22.654-4.116 45.5 0 99.231 69.385 168.616Q537.769-360.999 637-360.999q9.461 0 19.423-.808 9.961-.808 19.423-3.038 17.307-5.077 29.23 7.884 11.923 12.962 6.308 29.885-30.308 81.307-103.808 127.191T447-154.001ZM642.769-608l-19.154 58.385q-3.231 7.692-9.423 12.153Q608-533 599.308-533q-12.769 0-20.269-10.346-7.5-10.346-3.038-23.5l95.23-273.385q3.231-9.076 9.616-13.923Q687.231-859 696.308-859h20.384q9.077 0 16.154 4.846 7.076 4.847 10.307 13.923l94.846 274.77q4.462 13.154-2.846 22.807Q827.846-533 815.077-533q-8.692 0-14.884-4.269-6.193-4.27-9.423-12.962L771.231-608H642.769Zm13.538-40h101.386L707-806.155 656.307-648Z"/></svg>