<svg xmlns="http://www.w3.org/2000/svg" height="20" viewBox="0 -960 960 960" width="20"><path d="M400.999-576.847 286.924-692.692q25.769-17.307 54.576-26.653 28.807-9.346 58.037-12.731 15.462-2.385 23.693 10 8.23 12.384 1.154 25.23-11.693 21.077-18.346 45.269-6.654 24.192-7.039 49.5 0 6.461.5 12.615t1.5 12.615Zm290.154 291.462-78.229-77.614q17.307 2.23 34.23 1.73t33.615-5.576q16.538-4.692 28.153 7.192 11.615 11.884 7 28.038-5.615 12.308-11.269 23.615-5.654 11.307-13.5 22.615ZM447-154.001q-122.384 0-207.692-85.307Q154.001-324.616 154.001-447q0-41.077 11.615-80.962 11.616-39.885 34.847-75.039l-98.231-98.23q-7.923-7.923-8.115-18.192-.192-10.269 8.115-18.577 8.308-8.307 18.384-8.307 10.077 0 18.384 8.307l611.615 611.615q7.923 7.923 8.115 17.884.192 9.961-8.115 18.269-8.308 8.307-18.384 8.307-10.077 0-18.384-8.307L603.001-200.463q-35.154 23.231-75.039 34.847-39.885 11.615-80.962 11.615ZM642.769-608l-19.154 58.385q-3.231 7.692-9.423 12.153Q608-533 599.308-533q-12.769 0-20.269-10.346-7.5-10.346-3.038-23.5l95.23-273.385q3.231-9.076 9.616-13.923Q687.231-859 696.308-859h20.384q9.077 0 16.154 4.846 7.076 4.847 10.307 13.923l94.846 274.77q4.462 13.154-2.846 22.807Q827.846-533 815.077-533q-8.692 0-14.884-4.269-6.193-4.27-9.423-12.962L771.231-608H642.769Zm13.538-40h101.386L707-806.155 656.307-648Z"/></svg>