<svg xmlns="http://www.w3.org/2000/svg" height="20" viewBox="0 -960 960 960" width="20"><path d="M371.803-482.308q10.966 0 18.581-7.475 7.615-7.474 7.615-18.524v-120q0-11.05-7.418-18.525-7.418-7.474-18.384-7.474-10.966 0-18.581 7.474-7.615 7.475-7.615 18.525v120q0 11.05 7.418 18.524 7.418 7.475 18.384 7.475Zm78.264 224.614h59.516q13.628 0 23.022-9.244 9.394-9.244 9.394-22.909v-53.846q0-25.853-18.135-43.926t-44.076-18.073q-25.942 0-43.864 18.073-17.923 18.073-17.923 43.926v53.846q0 13.665 9.219 22.909t22.847 9.244Zm137.736-224.614q10.966 0 18.581-7.475 7.615-7.474 7.615-18.524v-120q0-11.05-7.418-18.525-7.418-7.474-18.384-7.474-10.966 0-18.581 7.474-7.615 7.475-7.615 18.525v120q0 11.05 7.418 18.524 7.418 7.475 18.384 7.475Zm-107.46 366.307q-75.112 0-141.48-28.42-66.369-28.42-116.182-78.21-49.814-49.791-78.247-116.087t-28.433-141.673q0-75.378 28.42-141.246 28.42-65.869 78.21-115.682 49.791-49.814 116.087-78.247t141.673-28.433q75.378 0 141.246 28.42 65.869 28.42 115.682 78.21 49.814 49.791 78.247 115.853t28.433 141.173q0 75.112-28.42 141.48-28.42 66.369-78.21 116.182-49.791 49.814-115.853 78.247t-141.173 28.433Z"/></svg>