<svg xmlns="http://www.w3.org/2000/svg" height="20" viewBox="0 -960 960 960" width="20"><path d="M673.923-346.847 599-270.924q-8.308 8.308-17.884 8.5-9.577.193-18.269-8.5-8.692-8.692-8.692-18.576t8.692-18.576L637.77-383l-75.923-75.924q-8.308-8.307-8.5-17.884-.192-9.576 8.5-18.268 8.692-8.693 18.576-8.693T599-495.076l74.923 74.923 75.924-75.923q8.307-8.308 18.384-8.5 10.076-.193 18.769 8.5 8.692 8.692 8.692 18.576T787-458.924L711.076-383 786-308.076q8.307 8.307 8.999 17.884.693 9.576-7.999 18.268-8.693 8.693-18.577 8.693-9.884 0-18.576-8.693l-75.924-74.923Zm-492-107.154q-11.049 0-18.524-7.418-7.475-7.418-7.475-18.384 0-10.966 7.475-18.581t18.524-7.615h236.002q11.049 0 18.524 7.418 7.475 7.418 7.475 18.384 0 10.966-7.475 18.581t-18.524 7.615H181.923Zm0-150q-11.049 0-18.524-7.418-7.475-7.418-7.475-18.384 0-10.966 7.475-18.581t18.524-7.615h380.002q11.049 0 18.524 7.418 7.475 7.418 7.475 18.384 0 10.966-7.475 18.581t-18.524 7.615H181.923Zm0-150q-11.049 0-18.524-7.418-7.475-7.418-7.475-18.384 0-10.966 7.475-18.581t18.524-7.615h380.002q11.049 0 18.524 7.418 7.475 7.418 7.475 18.384 0 10.966-7.475 18.581t-18.524 7.615H181.923Z"/></svg>