<svg xmlns="http://www.w3.org/2000/svg" height="20" viewBox="0 -960 960 960" width="20"><path d="M218.308-164.001q-27.008 0-45.657-18.65-18.65-18.65-18.65-45.658v-503.382q0-27.008 18.65-45.658 18.649-18.65 45.657-18.65h292.475q10.43 0 18.054 7.419 7.625 7.418 7.625 18.384 0 10.966-7.475 18.581Q521.513-744 510.463-744H218.308q-4.616 0-8.462 3.846-3.847 3.847-3.847 8.463v503.382q0 4.616 3.847 8.463 3.846 3.846 8.462 3.846h503.383q4.615 0 8.462-3.846 3.846-3.847 3.846-8.463v-292.475q0-10.429 7.418-18.054 7.419-7.625 18.385-7.625 10.965 0 18.581 7.475 7.615 7.475 7.615 18.524v292.155q0 27.008-18.65 45.658-18.65 18.65-45.657 18.65H218.308Zm143.974-134q-11.032 0-18.657-7.418T336-323.803q0-10.966 7.463-18.581t18.496-7.615h215.757q11.033 0 18.658 7.418 7.625 7.418 7.625 18.384 0 10.966-7.464 18.581-7.463 7.615-18.495 7.615H362.282Zm0-108q-11.032 0-18.657-7.418T336-431.803q0-10.966 7.463-18.581t18.496-7.615h215.757q11.033 0 18.658 7.418 7.625 7.418 7.625 18.384 0 10.966-7.464 18.581-7.463 7.615-18.495 7.615H362.282Zm0-108q-11.032 0-18.657-7.418T336-539.803q0-10.966 7.463-18.581t18.496-7.615h215.757q11.033 0 18.658 7.418 7.625 7.418 7.625 18.384 0 10.966-7.464 18.581-7.463 7.615-18.495 7.615H362.282Zm345.915-106q-10.966 0-18.465-7.475-7.498-7.475-7.498-18.525v-46h-46.117q-11.1 0-18.608-7.479-7.508-7.479-7.508-18.534 0-11.056 7.508-18.521Q625.017-744 636.117-744h46.117v-46.001q0-11.049 7.512-18.524Q697.258-816 708.224-816q10.966 0 18.371 7.475 7.404 7.475 7.404 18.524V-744h45.79q10.961 0 18.586 7.418 7.624 7.418 7.624 18.384 0 10.966-7.475 18.431-7.474 7.466-18.524 7.466h-46.001v46q0 11.05-7.418 18.675t-18.384 7.625Z"/></svg>