<svg xmlns="http://www.w3.org/2000/svg" height="20" viewBox="0 -960 960 960" width="20"><path d="M374.462-116.001q-23.692 0-41.461-14.654t-22.769-36.961l-38.846-178.385h416.459l-38.846 178.385q-5 22.307-23.069 36.961t-42.161 14.654H374.462Zm105.153-553.691q3.847-63.618 46.574-110.04 42.728-46.422 105.388-58.651 4.114-1.077 7.614.038 3.5 1.116 6.115 4.116 2.616 3 4.423 6.129 1.808 3.129.808 7.717-11.692 55.846-50.5 96.153-38.807 40.307-94.422 51.692v106.923h258.23q13.665 0 22.909 9.245 9.245 9.244 9.245 22.909v77.653q0 27.082-19.343 46.368-19.342 19.286-46.503 19.286H229.847q-27.161 0-46.503-19.261-19.343-19.26-19.343-46.307v-77.567q0-13.933 9.245-23.13 9.244-9.196 22.909-9.196h257.461v-106.923q-55.615-11.385-94.422-51.692-38.808-40.307-50.5-96.153-1-4.588.807-7.717 1.808-3.129 4.423-6.129 2.616-3 6.308-4.116 3.692-1.115 7.807-.012 62.659 12.588 105.002 59.01 42.343 46.422 46.574 109.655Z"/></svg>