<svg xmlns="http://www.w3.org/2000/svg" height="20" viewBox="0 -960 960 960" width="20"><path d="M360-164.001q-81.538 0-138.768-57.231-57.231-57.23-57.231-138.768v-240q0-81.538 57.231-138.768 57.23-57.231 138.768-57.231h240q81.538 0 138.768 57.231 57.231 57.23 57.231 138.768v240q0 81.538-57.231 138.768-57.23 57.231-138.768 57.231H360Zm69-277.152-49.924-48.923q-8.307-8.308-17.884-8-9.576.307-18.268 9-8.693 8.692-8.693 18.076t8.693 18.076l63.769 63.769q9.846 9.846 22.307 9.846 12.461 0 22.307-9.846l148.769-148.769q8.308-8.307 8.5-18.384.193-10.076-8.5-18.768-8.692-8.693-18.076-8.693t-18.076 8.693L429-441.153Z"/></svg>