<svg xmlns="http://www.w3.org/2000/svg" height="20" viewBox="0 -960 960 960" width="20"><path d="M308.386-190.05v-171.796q0-3.077-2.308-5.577-2.308-2.501-5.385-3.27-78.769-13.615-131.73-72-52.962-58.384-52.962-139.153 0-89.23 62.654-151.691 62.654-62.462 151.884-62.462 80.769 0 139.345 52.77 58.577 52.769 72.192 131.538.77 3.077 3.078 5.385 2.307 2.307 5.385 2.307h193.539l-48.924-48.924q-8.308-8.307-8.5-18.743-.192-10.436 8.115-18.41 8.692-8.692 18.577-8.692 9.884 0 18.576 8.692l89.369 89.639q5.015 5.031 7.323 10.58 2.308 5.549 2.308 12.001 0 6.451-2.308 12t-6.923 10.164l-89.769 89.769q-8.307 8.308-18.076 8-9.769-.308-18.077-8.522-8.307-8.785-8.307-19.006 0-10.22 8.031-18.178L744.078-552H551.693q-22.936 0-40.269-14.707t-21.115-37.215Q480.924-664 435.909-704q-45.014-40-105.604-40-67.459 0-114.882 47.443T168-582.229q0 60.076 39.693 104.422 39.692 44.346 99.769 55.731 22.538 4.231 37.731 19.538 15.192 15.308 15.192 38.296v173.758q0 11.274-7.405 18.878-7.405 7.605-18.384 7.605-10.98 0-18.595-7.48-7.615-7.479-7.615-18.569Z"/></svg>