<svg xmlns="http://www.w3.org/2000/svg" height="20" viewBox="0 -960 960 960" width="20"><path d="M279.386-556.616h304.459v-123.998H279.386v123.998Zm-51.077 392.615q-26.623 0-45.465-18.843-18.843-18.842-18.843-45.465v-503.382q0-26.623 18.843-45.465 18.842-18.843 45.465-18.843h408.306q12.684 0 24.419 4.616 11.735 4.615 21.581 14.461l94.307 94.307q9.846 9.846 14.461 21.581 4.616 11.735 4.616 24.419v119.691q0 11.308-8.693 18.962-8.692 7.653-20.999 6.807-5.538.385-11.077 1.385-5.538 1-10.076 2.231-18.693 2.846-36.196 10.582-17.503 7.737-31.189 21.572L564.306-342.307q2.923-6.308 3.693-12.693.769-6.385.769-13.462 0-36.923-25.538-62.461-25.538-25.538-62.461-25.538-36.922 0-62.46 25.538-25.538 25.538-25.538 62.461 0 36.922 25.538 62.46 25.538 25.538 62.46 25.538 7.077 0 12.962-.769t12.578-3.692l-42.387 42.001q-9.846 9.846-14.269 21.544-4.423 11.697-4.423 24.071v3.846q0 12.608-8.427 21.035t-21.034 8.427h-187.46Zm304.307 39.846v-50.893q0-6.798 2.615-12.337 2.615-5.538 7.231-10.154l196.307-195.307q5.72-5.489 12.283-8.013 6.563-2.525 13.014-2.525 6.863 0 13.507 2.538 6.644 2.539 11.887 7.615l44 45.385q5.05 5.719 7.794 12.283 2.745 6.563 2.745 13.014t-2.333 13.109q-2.333 6.657-8.206 12.285L638.153-101.848q-4.616 4.616-10.154 7.231Q622.461-92 615.662-92h-50.893q-13.761 0-22.957-9.197-9.196-9.196-9.196-22.957Zm230.691-152.538 45-45.615-45-45.385-45 46 45 45Z"/></svg>