<svg xmlns="http://www.w3.org/2000/svg" height="20" viewBox="0 -960 960 960" width="20"><path d="M802.001-106.001V-696q0-34.231-23.885-58.116-23.885-23.885-58.116-23.885l-46.001 12-12 35q0 11-7 18t-17 7H451.386q-15.154 0-20.885-11.923-5.731-11.923.885-25.923l69.692-132.614q5.615-13.231 17.192-19.385 11.576-6.153 25.807-6.153h80.692q15.385 0 26.307 10.153 10.923 10.154 10.923 25.538v48.309l58.001-12q56.154 0 95.076 38.923 38.923 38.922 38.923 95.076v589.999h-51.998Zm-610.001 0q-35.769 0-60.884-25.115-25.115-25.115-25.115-60.884v-114.615q0-31.539 20.23-51.769 20.231-20.231 51.77-20.231 31.538 0 51.769 20.231 20.231 20.23 20.231 51.769v56.614h315.998v-56.614q0-31.539 20.231-51.769 20.231-20.231 51.769-20.231 31.539 0 51.77 20.231 20.23 20.23 20.23 51.769V-192q0 35.769-25.115 60.884-25.115 25.115-60.884 25.115H192Zm101.385-187.384V-312q0-47.692-34.038-79.615-34.039-31.923-81.346-31.154v-54.923q0-26.923 18.692-45.615 18.692-18.692 45.615-18.692h331.384q26.923 0 45.615 18.692 18.692 18.692 18.692 45.615v54.923q-47.307-.384-81.346 31.346-34.038 31.731-34.038 79.423v18.615h-229.23Z"/></svg>