<svg xmlns="http://www.w3.org/2000/svg" height="20" viewBox="0 -960 960 960" width="20"><path d="M750.617-454.001H564q-11.05 0-18.524-7.418-7.475-7.418-7.475-18.384 0-10.966 7.475-18.581 7.474-7.615 18.524-7.615h186.617l-49.309-48.925q-8.307-8.307-8.5-18.743-.192-10.435 8.199-18.493 8.609-8.609 18.493-8.609 9.884 0 18.576 8.693l89.907 89.906q9.708 9.709 9.708 22.352t-9.846 22.125l-89.769 89.769q-8.307 8.308-18.076 7.808t-18.16-8.891q-8.609-8.609-8.416-18.685.192-10.077 8.884-18.384l48.309-47.925Zm-474.308 386q-26.527 0-45.417-18.89-18.891-18.891-18.891-45.418v-695.382q0-26.527 18.891-45.417 18.89-18.891 45.417-18.891h407.382q26.527 0 45.417 18.891 18.891 18.89 18.891 45.417v128.153q0 11.05-7.419 18.525-7.418 7.474-18.384 7.474-10.966 0-18.581-7.474Q696-688.488 696-699.538v-30.463H264v500.002h432v-30.463q0-11.05 7.418-18.525 7.418-7.474 18.384-7.474 10.966 0 18.581 7.474 7.616 7.475 7.616 18.525v128.153q0 26.527-18.891 45.417-18.89 18.89-45.417 18.89H276.309Z"/></svg>