<svg xmlns="http://www.w3.org/2000/svg" height="20" viewBox="0 -960 960 960" width="20"><path d="M563.846-116.617q-10.461 3.616-19.307-3.115-8.846-6.731-8.846-17.192v-228.461q0-10.461 9.038-17 9.039-6.538 18.115-2.923 35.923 12.231 73.231 16.846 37.307 4.616 76.23 4.616 37.923 0 75.23-4.808 37.308-4.808 73.231-17.039 10.461-4 19.307 2.924 8.846 6.923 8.846 17.384v228.461q0 10.461-8.846 17.384t-19.307 2.923q-35.923-12.231-73.231-17.038-37.307-4.808-75.23-4.808t-75.23 4.808q-37.308 4.807-73.231 17.038Zm-85.385-487.382q-51.537 0-87.768 36.038-36.23 36.039-36.23 87.961 0 45.538 29.115 79.961 29.115 34.422 72.422 41.268v233.232q0 4.615-2.461 7.076-2.461 2.462-7.076 2.462-11.462 0-20.423-6.654-8.962-6.654-10.962-18.115l-16-83.846q-27.615-9.77-53.347-24.078-25.731-14.307-47.808-33.769l-82.308 29.462q-8.846 2.307-18.384-.885t-14.076-11.807l-38.077-66.154q-4.538-8.615-3.077-17.768 1.462-9.154 8.462-15.922l65.923-57.001q-2.385-13.923-3.962-28.423-1.576-14.5-1.576-29.424 0-14.538 1.576-28.846 1.577-14.308 3.962-29.77l-65.923-57q-7-6.769-8.269-16.115-1.269-9.345 3.269-17.96l37.692-65q4.538-8.23 14.076-11.615 9.538-3.384 18.384-1.077l81.924 29.077q22.461-19.461 48.385-33.962 25.923-14.5 52.77-24.269l16.538-86.847q2.616-9.461 9.807-15.23 7.192-5.769 17.654-5.769h73.845q10.461 0 17.653 5.769 7.192 5.769 9.808 15.23l16.153 87.232q28.001 10.538 52.578 24.269 24.577 13.731 47.424 33.577l84.616-29.077q8.845-2.307 18.191 1.077 9.346 3.385 13.884 11.615l37.692 65.384q4.538 8.615 2.885 17.769-1.654 9.153-8.654 15.922l-67.077 58.923q2.384 20.154 3.577 33.77 1.192 13.615.577 27.615-.616 13.846-10.654 23.769-10.039 9.923-24.885 9.923H596.383q3.231-8.692 4.654-18.192T602.46-480q0-51.922-36.038-87.961-36.038-36.038-87.961-36.038Z"/></svg>