<svg xmlns="http://www.w3.org/2000/svg" height="20" viewBox="0 -960 960 960" width="20"><path d="M262.001-77.618q-10.769 0-18.384-7.615-7.616-7.615-7.616-18.384t7.616-18.384q7.615-7.615 18.384-7.615H372v-63.386H166.001q-10.769 0-18.384-7.615-7.616-7.615-7.616-18.384t7.616-18.384Q155.232-245 166.001-245H372v-63.386H118.001q-10.769 0-18.384-7.615Q92-323.616 92-334.385t7.616-18.384q7.615-7.616 18.384-7.616H372v-63.385H214.001q-10.769 0-18.384-7.616-7.616-7.615-7.616-18.384t7.616-18.384q7.615-7.615 18.384-7.615h252.078l-39.616-72.309q-8.308-16.384-6.077-34.691 2.23-18.308 15.769-31.077l4.846-4.23q8.846-8.462 20.807-8.577 11.962-.116 21.423 7.731l214.923 184.23q18.076 15.846 28.115 37.538 10.038 21.692 10.038 45.384v140.153q0 55.769-39.115 94.884t-94.884 39.115H262.001Zm52.692-456.536-43.462-36.693q-7.538-7.692-8.961-18.153-1.423-10.461 6.269-18 7.692-7.538 18.654-8.461 10.961-.923 18.499 6.769l57.616 46.924q1.308 6.999 2.616 13.807 1.307 6.807 4.769 13.807h-56Zm64.769-96.308L272.539-720q-7.538-7.693-8.154-18.654-.615-10.961 7.077-18.499 7.692-7.538 18.154-8.654 10.461-1.115 17.999 6.577l107.307 90.692q-11.768 7.231-20.96 17.346t-14.5 20.73Zm396.076 199.307Q767-443.54 757.654-453.847q-9.347-10.307-19.885-20.999L502.307-675.924 311.846-839.539q-7.538-7.692-8.653-17.961-1.115-10.269 6.577-17.807 7.692-7.538 18.653-8.461 10.961-.923 18.499 6.769l192.923 165.461 40.231-49.308-120.307-102.846q-7.538-7.692-7.769-18.461-.23-10.769 7.462-18.307 7.692-7.539 17.961-8.154 10.269-.615 17.807 7.077l192.385 162.693 15.693-80.232q4.615-17.615 18.769-29.961 14.153-12.346 33.153-13.192l3.692-.616q12.462-1.615 22.615 7.116 10.154 8.73 11.385 21.192l41.923 279.384q4.615 24.077-2.308 46.384-6.923 22.308-22.769 40.384l-34.23 37.23Z"/></svg>