<svg xmlns="http://www.w3.org/2000/svg" height="20" viewBox="0 -960 960 960" width="20"><path d="M480-199.925q-13.615 0-25.154-4.615-11.538-4.616-22.04-15.117L81.463-571q-9.461-9.462-14.384-22.616-4.923-13.153-4.923-25.23 0-15.846 6.128-28.782 6.129-12.937 19.333-22.833 84.154-59.461 182.858-92.499 98.705-33.039 209.461-33.039 110.756 0 209.525 33.039 98.768 33.038 182.825 92.403 13.328 9.942 20.135 22.403 6.808 12.462 6.808 28.308 0 12.077-5.615 25.73-5.616 13.654-15.077 23.116l-33.846 33.845q-5.202 5.327-12.562 6.587-7.361 1.259-14.592.029-14.692-3.846-28.897-5.269-14.205-1.423-31.41-1.423-95.921 2-162.96 72.039t-67.039 157.96q0 19.205 1.923 32.41 1.923 13.205 5.769 27.897 1.615 7.231-.385 14.577t-7.231 12.577q-10.615 10.615-22.153 15.231-11.539 4.615-25.154 4.615Zm155.798 27.461q-9.337 0-15.953-6.557-6.615-6.558-6.615-15.904v-137.936q0-9.14 6.558-15.756 6.557-6.615 15.903-6.615h25.924v-48q0-28.462 19.461-47.923 19.461-19.461 47.923-19.461 28.461 0 47.923 19.461 19.461 19.461 19.461 47.923v48h25.923q9.02 0 15.356 6.558 6.337 6.557 6.337 15.903v137.936q0 9.141-6.552 15.756t-15.889 6.615h-185.76Zm57.201-182.768h72v-48q0-15-10.5-25.5t-25.5-10.5q-15 0-25.5 10.5t-10.5 25.5v48Z"/></svg>