<svg xmlns="http://www.w3.org/2000/svg" height="20" viewBox="0 -960 960 960" width="20"><path d="m170.463-170.463 618.074-618.074q14.693-14.693 35.077-6.599 20.385 8.094 20.385 28.906v150.844h-26q-44.038 0-74.865 30.827-30.827 30.827-30.827 74.865v393.693H192.77q-21.692 0-29.538-19.693-7.846-19.692 7.231-34.769Zm647.76 59.077q-12.916 0-21.877-8.737-8.962-8.738-8.962-21.654t8.738-21.877q8.737-8.962 21.653-8.962 12.916 0 21.878 8.738 8.961 8.737 8.961 21.653 0 12.916-8.737 21.878-8.738 8.961-21.654 8.961ZM792-270.575v-238.836q0-11.032 7.418-18.657t18.384-7.625q10.966 0 18.581 7.467 7.616 7.467 7.616 18.506v239.816q0 10.673-7.419 17.981-7.418 7.307-18.384 7.307-10.966 0-18.581-7.463T792-270.575Z"/></svg>