<svg xmlns="http://www.w3.org/2000/svg" height="20" viewBox="0 -960 960 960" width="20"><path d="M180.309-212.001q-26.623 0-45.465-18.843-18.843-18.842-18.843-45.465v-361.999q0-11.069 7.405-18.534 7.405-7.465 18.384-7.465 10.98 0 18.595 7.465Q168-649.377 168-638.308v361.999q0 5.385 3.462 8.847 3.462 3.462 8.847 3.462h513.692q11.069 0 18.534 7.405Q720-249.191 720-238.211q0 10.979-7.465 18.594-7.465 7.616-18.534 7.616H180.309ZM304.307-336q-26.623 0-45.465-18.858Q240-373.717 240-400.363v-283.606q0-26.645 18.842-45.337 18.842-18.693 45.465-18.693h224.77q11.069 0 18.534 7.405 7.465 7.405 7.465 18.384 0 10.98-7.465 18.595Q540.146-696 529.077-696h-224.77q-5.385 0-8.847 3.462-3.461 3.462-3.461 8.847v283.384q0 5.385 3.461 8.847 3.462 3.461 8.847 3.461h475.384q5.385 0 8.847-3.461 3.462-3.462 3.462-8.847v-224.77q0-11.069 7.405-18.534 7.404-7.465 18.384-7.465 10.979 0 18.594 7.465 7.616 7.465 7.616 18.534v224.77q0 26.623-18.843 45.465Q806.314-336 779.691-336H304.307Zm219.732-158.539q-14.963 0-28.693-5.654-13.731-5.653-25.423-14.961-2.846-3.846-2.423-7.192.423-3.346 4.654-4.909 9.846-2.152 16.538-10.17 6.693-8.018 6.693-17.959 0-19.583 13.455-33.137 13.454-13.554 32.621-13.554 19.198 0 32.945 13.662 13.746 13.661 13.746 32.739 0 26.136-18.941 43.635-18.942 17.5-45.172 17.5Zm93.19-113.921-9.153-9.154q-10.846-10.846-10.846-22.307 0-11.461 10.846-22.308l117.616-117.616q10.846-10.846 22.307-10.846 11.462 0 22.308 10.846l12.615 12.615q8.307 7.944 8.307 19.049t-8.044 19.069L661.844-608.46q-10.846 10.846-22.308 10.846-11.461 0-22.307-10.846Z"/></svg>