<svg xmlns="http://www.w3.org/2000/svg" height="20" viewBox="0 -960 960 960" width="20"><path d="M605.537-466.539q7.231-4.972 7.231-13.64 0-8.667-7.231-13.282L416.616-613.46q-8.231-5.231-16.577-.75-8.346 4.48-8.346 13.826v240.452q0 10.162 8.346 14.392 8.346 4.231 16.577-1l188.921-119.999ZM228.309-164.001q-27.008 0-45.658-18.65-18.65-18.65-18.65-45.658v-503.382q0-27.008 18.65-45.658 18.65-18.65 45.658-18.65h503.382q27.008 0 45.658 18.65 18.65 18.65 18.65 45.658v503.382q0 27.008-18.65 45.658-18.65 18.65-45.658 18.65H228.309Z"/></svg>