<svg xmlns="http://www.w3.org/2000/svg" height="20" viewBox="0 -960 960 960" width="20"><path d="M180.309-212.001q-26.308 0-45.308-19t-19-45.308v-407.382q0-27.308 19-45.808t45.308-18.5H349q12.461 0 24.307 4.616 11.846 4.615 21.692 14.461l76.923 76.923h307.769q27.308 0 45.808 18.5t18.5 45.808v311.382q0 26.308-18.5 45.308t-45.808 19H180.309Zm437.537-141.845v-156.308h36.847l47.461 47.461v108.847h-84.308Zm-3.538 35.692h91.384q13.462 0 22.808-9.346t9.346-22.808v-113.923q0-7.23-2.616-12.769-2.615-5.538-7.23-10.154L679.154-536q-4.616-4.615-10.154-7.23-5.539-2.616-12.769-2.616h-41.923q-13.462 0-22.808 9.346t-9.346 22.808v163.384q0 13.462 9.346 22.808t22.808 9.346Z"/></svg>