<svg xmlns="http://www.w3.org/2000/svg" height="20" viewBox="0 -960 960 960" width="20"><path d="m213.614-269.694 49.309 49.309q8.307 8.308 8.307 18.192t-8.307 18.192q-8.308 8.307-18.384 8.307-10.077 0-18.384-8.307l-89.907-89.522q-9.708-9.708-9.708-22.352 0-12.643 9.846-22.125l89.769-89.769q8.307-8.308 18.384-8.308 10.076 0 18.384 8.308 8.307 8.307 8.307 18.384 0 10.076-8.307 18.384l-49.309 49.309h532.772l-49.309-49.309q-8.307-8.308-8.307-18.192t8.307-18.192q8.308-8.307 18.384-8.307 10.077 0 18.384 8.307l89.907 89.523q9.708 9.708 9.708 22.351 0 12.643-9.846 22.126l-89.769 89.769q-8.307 8.307-17.691 7.615-9.385-.693-17.692-9-8.308-8.308-8.308-18.384 0-10.077 8.308-18.384l47.924-47.925H213.614ZM111.386-538.001v-24.922q0-18.538 10.461-32.769 10.462-14.23 27.568-22.124 21.663-9.953 45.763-15.068 24.1-5.115 50.077-5.115 25.976 0 49.991 5.093 24.014 5.094 46.293 15.137 16.922 7.847 27.384 22.077 10.461 14.231 10.461 32.769v24.922H111.386Zm469.23 0v-24.922q0-18.538 10.461-32.769 10.462-14.23 27.568-22.124 21.662-9.953 45.763-15.068 24.1-5.115 50.077-5.115 25.976 0 49.991 5.093 24.014 5.094 46.293 15.137 16.922 7.847 27.384 22.077 10.461 14.231 10.461 32.769v24.922H580.616ZM245.173-674.308q-25.942 0-43.864-18.135-17.923-18.135-17.923-44.077 0-25.941 18.135-43.864 18.135-17.922 44.076-17.922 25.942 0 43.864 18.135 17.923 18.135 17.923 44.076t-18.135 43.864q-18.135 17.923-44.076 17.923Zm469.23 0q-25.942 0-43.864-18.135-17.923-18.135-17.923-44.077 0-25.941 18.135-43.864 18.135-17.922 44.076-17.922 25.942 0 43.864 18.135 17.923 18.135 17.923 44.076t-18.135 43.864q-18.135 17.923-44.076 17.923Z"/></svg>