<svg xmlns="http://www.w3.org/2000/svg" height="20" viewBox="0 -960 960 960" width="20"><path d="M212.001-116.001V-411.31l193.154 193.768q41.076-40.922 74.267-87.921 33.192-47 33.192-105.537 0-48.846-17.115-94.268-17.115-45.423-52.269-80.577L318.922-695.383l14.617-14.616h150.692L624-849.768l53.076 51.692q40.462 39.461 61.616 90.922Q759.845-655.692 760.23-599q-.385 57.692-22.038 110.654-21.654 52.961-64.116 92.422l-60.077 55.693v224.23H212.001Zm193.615-174.615L208.924-487.924q-6.846-9.846-10.384-19.922-3.539-10.077-3.539-21.154 0-12.077 3.539-23.654 3.538-11.576 13.384-19.422l79.077-78.692 117.076 102.692q27.846 27.846 40.192 62.922 12.346 35.077 12.346 74.154 0 34.384-15.307 65.538-15.308 31.153-39.692 54.846Z"/></svg>