<svg xmlns="http://www.w3.org/2000/svg" height="20" viewBox="0 -960 960 960" width="20"><path d="M276.025-404.001q-26.543 0-45.283-18.891-18.741-18.89-18.741-45.417v-81.692q0-11.049 7.419-18.524Q226.838-576 237.804-576q10.966 0 18.581 7.475T264-550.001v81.692q0 5.385 3.462 8.847 3.462 3.462 8.847 3.462h407.382q5.385 0 8.847-3.462 3.462-3.462 3.462-8.847v-81.692q0-11.049 7.418-18.524Q710.836-576 721.802-576q10.966 0 18.581 7.475 7.616 7.475 7.616 18.524v81.692q0 26.527-18.903 45.417-18.902 18.891-45.445 18.891H276.025Z"/></svg>