<svg xmlns="http://www.w3.org/2000/svg" height="20" viewBox="0 -960 960 960" width="20"><path d="M205.076-343.079v104.156q0 7.23-2.615 12.769-2.616 5.538-7.231 10.154L80.153-103.924q-8.307 8.308-18.384 8-10.076-.307-18.769-9-8.692-8.692-8.692-18.576T43-142.076l111.616-107.616-13.308-166.385q-.23-13.692 5.577-25.692 5.808-12 14.115-20.307l110-110q9.462-9.462 20.539-13.693 11.076-4.23 23.153-4.23 12.077 0 22.654 3.73 10.576 3.731 20.038 13.193l99.769 99q23.385 23 49.731 34.192t57.192 13.115v51.999q-41-1.923-78.653-19.231-37.654-17.308-65.423-44.692l-65.923-65.154L240.23-390l109.615 110q4.616 5 7.423 10.539 2.808 5.538 2.808 12.769V-108q0 10.769-7.615 18.384T334.077-82q-10.769 0-18.384-7.615T308.078-108v-136.616l-103.002-98.463Zm431 55.54V-108q0 10.769-7.615 18.384T610.077-82q-10.769 0-18.384-7.615T584.078-108v-178.923q0-6.231 1.615-11.461 1.615-5.231 6.231-9.846l96.692-105.693-34.154-163.156q-28.693 33.616-63.886 57.502-35.193 23.885-76.963 33.27-3.768-4-7.576-8.116-3.807-4.115-8.191-8.114l-36-36q38.769.384 74.5-12.039 35.732-12.424 63.962-41.039l70.231-71q18.077-17.307 42.923-21.769 24.845-4.461 48.768 5.385l165.154 65.692q9.846 3.615 15.269 11.846t5.423 18.077V-444q0 10.769-7.615 18.384t-18.384 7.615q-10.769 0-18.384-7.615T896.078-444v-126.154l-103.079-41.001 99.077 498.078q2.231 12.769-5.884 21.923-8.116 9.153-20.115 9.153-9.538 0-16.654-6.076-7.115-6.077-8.73-15.616L775.616-426.54l-139.54 139.001Zm-192-307.076q-27.692 0-46.769-19.077-19.077-19.077-19.077-46.769 0-27.692 19.077-46.769 19.077-19.076 46.769-19.076 27.692 0 46.769 19.076 19.077 19.077 19.077 46.769 0 27.692-19.077 46.769-19.077 19.077-46.769 19.077ZM653-716.154q-27.692 0-46.769-19.076-19.076-19.077-19.076-46.769 0-27.692 19.076-46.769 19.077-19.077 46.769-19.077 27.693 0 46.769 19.077 19.077 19.077 19.077 46.769 0 27.692-19.077 46.769-19.076 19.076-46.769 19.076Z"/></svg>