<svg xmlns="http://www.w3.org/2000/svg" height="20" viewBox="0 -960 960 960" width="20"><path d="M480-678v263l102 78-38-124 114-91H521l-41-126Zm0 329.383L345.463-247.003q-8.693 5.693-16.423 5.193-7.731-.5-14.423-4.577t-9.846-11.692q-3.153-7.615-.307-17.154l51.615-167.46L214.08-557.692q-7.436-6.009-9.295-13.774-1.859-7.764 1.372-15.456 3.231-7.692 9.242-12.384 6.011-4.693 15.526-4.693h170.86l53.446-163.537q2.743-9.657 9.602-13.867 6.86-4.209 15.167-4.209 8.307 0 15.167 4.209 6.859 4.21 9.602 13.867l53.446 163.537h170.86q9.515 0 15.526 4.693 6.011 4.692 9.242 12.384 3.231 7.692 1.372 15.456-1.859 7.765-9.295 13.774L603.921-442.693l51.615 167.46q2.846 9.539-.307 17.154-3.154 7.615-9.846 11.692t-14.423 4.577q-7.73.5-16.423-5.193L480-348.617Z"/></svg>