<svg xmlns="http://www.w3.org/2000/svg" height="20" viewBox="0 -960 960 960" width="20"><path d="M486-208.309q-54.735 0-101.136-27.769-46.402-27.769-70.829-77.187-4.957-10.658-.621-21.952 4.335-11.293 15.586-16.782 12-4.923 23.999-.556 11.998 4.367 18.727 16.253 17.97 32.76 48.43 51.955 30.459 19.194 66.973 19.194 45.871 0 79.872-28.308 34-28.308 34-71.536 0-6.539-1.154-13.078t-4.616-12.309q-1.153-12.617 6.79-21.655 7.943-9.039 20.114-10.192 12.172-1.154 21.71 6.83t10.692 20.215q4.231 8.085 5.577 17.516 1.347 9.431 1.347 18.67 0 66.539-52.921 108.615-52.92 42.076-122.54 42.076ZM132-494.001q-11.069 0-18.534-7.404-7.465-7.405-7.465-18.384 0-10.98 7.465-18.595 7.465-7.615 18.534-7.615h696q11.069 0 18.534 7.404 7.465 7.405 7.465 18.384 0 10.98-7.465 18.595-7.465 7.615-18.534 7.615H132Zm208.923-129.075q-11.769-5.154-14.999-16.192-3.231-11.038 1.922-22.807 12.615-46.769 56.077-71.424 43.461-24.654 95.724-24.654 39.66 0 74.66 13.539 35 13.538 59.077 43.23 7.923 9.538 6.769 20.73t-10.307 19.115q-9.385 7.538-22 6.808-12.615-.731-21.803-10.561-15.888-18.786-38.235-28.901-22.346-10.116-46.577-10.116-36.386 0-64.848 17.886-28.462 17.885-35.461 50.655-5.154 11.384-16.692 14.615t-23.307-1.923Z"/></svg>