<svg xmlns="http://www.w3.org/2000/svg" height="20" viewBox="0 -960 960 960" width="20"><path d="M751.845-164.001q-18.765 0-31.459-12.647-12.695-12.647-12.695-31.342v-43.219q0-18.696 12.695-31.59 12.694-12.894 31.459-12.894h44.154v-44.923h-66.615q-8.677 0-15.185-6.507-6.508-6.508-6.508-15.185t6.508-15.184Q720.707-384 729.384-384h65.845q18.766 0 31.46 12.647 12.694 12.646 12.694 31.342v43.219q0 18.695-12.694 31.589-12.694 12.894-31.46 12.894h-44.153v44.923h66.615q8.676 0 15.184 6.508 6.508 6.508 6.508 15.184 0 8.677-6.508 15.185-6.508 6.508-15.184 6.508h-65.846ZM342.114-300.309q-16.524 0-23.818-13.538-7.295-13.538 1.256-27.576l123.295-192.731-111.895-173.31q-8.566-13.458-1.772-26.997 6.795-13.538 22.99-13.538 7.475 0 13.605 3.59 6.13 3.59 9.532 9.025l103.078 162.232h-1.539l108.616-163.616q3.265-5.348 8.978-8.289 5.714-2.942 12.497-2.942 16.648 0 24.047 14.038 7.4 14.039-1.139 27.269L515.768-534.154l124.693 192.539q8.538 13.23 1.404 27.268-7.135 14.038-22.982 14.038-7.263 0-13.132-3.589-5.868-3.59-9.289-9.026L480.846-492.078h1.539L363.538-311.924q-3.265 5.531-8.978 8.573-5.714 3.042-12.446 3.042Z"/></svg>