<svg xmlns="http://www.w3.org/2000/svg" height="20" viewBox="0 -960 960 960" width="20"><path d="M480-846.691q-90 0-170.423 37.923T175-699.999h102.847q7.733 0 12.79 5.052 5.056 5.051 5.056 12.776 0 7.726-5.056 12.795-5.057 5.069-12.79 5.069H148.155q-13.665 0-22.909-9.244-9.245-9.244-9.245-22.91v-129.692q0-7.733 5.052-12.789 5.051-5.057 12.776-5.057 7.726 0 12.795 5.057 5.069 5.056 5.069 12.789v97.771q59.615-75.693 146.115-114.847 86.5-39.153 182.192-39.153 95.692 0 182.192 39.153 86.5 39.154 146.115 114.847v-97.771q0-7.733 5.051-12.789 5.052-5.057 12.777-5.057t12.794 5.057q5.07 5.056 5.07 12.789v129.692q0 13.666-9.245 22.91-9.244 9.244-22.909 9.244H682.153q-7.733 0-12.79-5.051-5.056-5.052-5.056-12.777t5.056-12.794q5.057-5.07 12.79-5.07H785q-54.154-70.846-134.577-108.769T480-846.691Zm-37 730.69q-22.077 0-41.961-8.231-19.885-8.231-35.731-24.077L190.593-322.312q-8.708-8.843-8.612-19.958.097-11.115 9.558-19.808l4.846-4.846q10.538-10.153 23.538-13.115 12.999-2.961 27.384.5l98.694 23.232V-684q0-11.05 7.418-18.524 7.418-7.475 18.384-7.475 10.966 0 18.581 7.475 7.615 7.474 7.615 18.524v257.385h64.54v-123.123q0-11.012 7.418-18.637T488.341-576q10.966 0 18.581 7.475t7.615 18.524v123.386h64.925v-75.386q0-11.049 7.418-18.524Q594.298-528 605.264-528q10.966 0 18.581 7.475t7.615 18.524v75.386H696v-27.386q0-11.049 7.418-18.524Q710.836-480 721.802-480q10.966 0 18.581 7.475 7.616 7.475 7.616 18.524v180q0 66.154-45.923 112.077t-112.001 45.923H443Z"/></svg>