<svg xmlns="http://www.w3.org/2000/svg" height="20" viewBox="0 -960 960 960" width="20"><path d="M584.154-310.002q-12.477 0-22.316-8.154Q552-326.309 552-341.771v-276.458q0-15.462 9.838-23.615 9.839-8.154 22.316-8.154 4.846 0 10.569 2.115 5.723 2.116 10.738 6.731L759.59-504.455q5.331 4.763 7.639 10.994 2.307 6.23 2.307 13.461t-2.307 13.461q-2.308 6.231-7.639 10.994L605.461-318.848q-5.015 4.615-10.738 6.731-5.723 2.115-10.569 2.115Zm3.537-38.383L731.307-480 587.691-611.615v263.23Zm-211.845 38.383q-4.846 0-10.569-2.115-5.723-2.116-10.738-6.731L200.41-455.545q-5.331-4.763-7.639-10.994-2.307-6.23-2.307-13.461t2.307-13.461q2.308-6.231 7.639-10.994l154.129-136.697q5.015-4.615 10.738-6.731 5.723-2.115 10.569-2.115 12.477 0 22.316 8.154Q408-633.691 408-618.229v276.458q0 15.462-9.838 23.615-9.839 8.154-22.316 8.154Z"/></svg>