<svg xmlns="http://www.w3.org/2000/svg" height="20" viewBox="0 -960 960 960" width="20"><path d="M228.309-68.001q-26.527 0-45.417-18.89-18.891-18.891-18.891-45.418v-695.382q0-26.527 18.891-45.417 18.89-18.891 45.417-18.891h503.382q26.527 0 45.417 18.891 18.891 18.89 18.891 45.417v695.382q0 26.527-18.891 45.417-18.89 18.89-45.417 18.89H228.309ZM216-325.23h528v-404.771H216v404.771Zm218.308 150.306h91.384q8.677 0 15.185-6.507 6.507-6.508 6.507-15.185t-6.507-15.184q-6.508-6.508-15.185-6.508h-91.384q-8.677 0-15.185 6.508-6.507 6.507-6.507 15.184t6.507 15.185q6.508 6.507 15.185 6.507Z"/></svg>