<svg xmlns="http://www.w3.org/2000/svg" height="20" viewBox="0 -960 960 960" width="20"><path d="M480-116.001q-66.154 0-123.499-24.77-57.346-24.769-100.154-67.576-42.807-42.808-67.576-100.154-24.77-57.345-24.77-123.499 0-57.769 20.231-111.462 20.231-53.692 59.693-98.307L132.694-753.001q-8.308-8.307-8.5-17.884-.193-9.576 8.5-18.269 8.692-8.692 18.576-8.692t18.576 8.692l620.308 620.308q8.307 8.307 8.499 17.884.193 9.576-8.499 18.268-8.693 8.693-18.577 8.693-9.884 0-18.576-8.693l-63.232-63.231q-42.307 38.692-96.576 59.308-54.27 20.616-113.193 20.616Zm-86.308-710q-10.769 0-18.384-7.615T367.693-852q0-10.769 7.615-18.384t18.384-7.615h172.616q10.769 0 18.384 7.615T592.307-852q0 10.769-7.615 18.384t-18.384 7.615H393.692ZM723.615-337.77 505.999-556.385v-33.923q0-10.769-7.615-18.384T480-616.307q-7.077 0-12.846 3.5t-9.23 9.346v-1l-71.769-71.769q-15.462-15.461-10.846-35.846 4.615-20.384 24.692-26.23 20.077-5.846 40.076-7.77 20-1.923 39.923-1.923 56.461 0 108.731 19.693 52.269 19.692 94.961 56.077l27.769-27.77q8.308-8.307 17.884-7.999 9.577.307 18.269 8.999 8.692 8.693 8.692 18.077 0 9.384-8.692 18.076l-26.769 27.77q36.384 42.692 55.769 95.153Q795.999-487.461 795.999-432q0 19.923-2.423 40.115-2.424 20.192-7.27 40.884-4.846 20.077-26.23 24.192-21.385 4.116-36.461-10.961Z"/></svg>