<svg xmlns="http://www.w3.org/2000/svg" height="20" viewBox="0 -960 960 960" width="20"><path d="M480.067-116.001q-74.836 0-141.204-28.42-66.369-28.42-116.182-78.21-49.814-49.791-78.247-116.129-28.433-66.337-28.433-141.173 0-75.836 28.425-141.704 28.425-65.869 78.225-115.682 49.8-49.814 116.15-78.247Q405.15-843.999 480-843.999q10.75 0 18.374 7.625 7.625 7.625 7.625 18.375v293.308q13.154 6.692 19.577 18.68 6.423 11.988 6.423 26.058 0 21.491-15.231 36.721-15.23 15.231-36.768 15.231t-36.768-15.231q-15.231-15.23-15.231-36.676 0-14.038 6.423-25.872t19.577-18.911v-120.848Q393.154-637 352.577-589.846 312-542.693 312-480q0 70 49 119t119 49q70 0 119-49t49-119q0-28.308-8.731-53.616t-24.423-46.077q-5.692-9.538-5.769-19.422-.077-9.885 8.531-18.493 8.391-8.391 18.66-7.199 10.269 1.192 17.346 9.731 22.385 28.076 34.385 62.345 12 34.27 12 72.731 0 91.666-64.14 155.832-64.14 64.167-155.768 64.167-91.629 0-155.859-64.167Q260.001-388.334 260.001-480q0-85.23 56-146.23 56-61 138-70.538v-94.001q-120.462 10.153-203.232 98.615Q168-603.693 168-480q0 130 91 221t221 91q130 0 221-91t91-221q0-57.693-19.039-108.423-19.038-50.731-53.731-92.116-7.692-8.923-7.769-19.884-.077-10.961 8.231-19.269 8.307-8.307 19.269-6.615 10.961 1.692 18.653 10.615 41 49.077 63.692 108.654Q843.999-547.461 843.999-480q0 74.85-28.42 141.199-28.42 66.35-78.21 116.15-49.791 49.8-115.629 78.225-65.837 28.425-141.673 28.425Z"/></svg>