<svg xmlns="http://www.w3.org/2000/svg" height="20" viewBox="0 -960 960 960" width="20"><path d="M135.078-237.616q-8.308-8.308-8.808-18.385-.5-10.076 7.808-18.384l195.768-195.384q18.693-19.076 45.231-19.076t45.615 19.076l97.923 97.539q3.461 3.461 8.462 3.461 5 0 8.847-3.461l219.692-218.309H649.999q-11.069 0-18.534-7.404Q624-605.348 624-616.327q0-10.98 7.465-18.595 7.465-7.615 18.534-7.615h161.846q13.761 0 22.957 9.196 9.197 9.196 9.197 22.957v161.846q0 11.069-7.405 18.534-7.405 7.465-18.384 7.465-10.98 0-18.595-6.985Q792-436.509 792-447.153v-106.233L572.307-333.693q-18.692 18.692-45.23 18.692-26.538 0-45.231-18.692l-97.922-98.923q-3.462-3.462-8.847-3.462t-8.847 3.462l-193.999 195q-8.692 8.692-18.577 8.692-9.884 0-18.576-8.692Z"/></svg>