<svg xmlns="http://www.w3.org/2000/svg" height="20" viewBox="0 -960 960 960" width="20"><path d="m480-231.384 94.761-94.761q8.009-8.008 18.085-8.201 10.077-.192 18.384 8.116 8.308 8.307 8.308 18.191 0 9.885-8.203 18.124L502.731-180.944q-5.063 5.081-10.65 7.166-5.586 2.085-12.081 2.085-6.495 0-12.081-2.085-5.587-2.085-10.65-7.166L348.665-289.915q-7.818-7.855-7.511-17.931.308-10.077 8.616-18.384 8.307-8.308 18.191-8.308 9.885 0 18.164 8.393L480-231.384Zm0-498.771-94.761 94.761q-8.009 8.009-18.085 8.201-10.077.192-18.384-8.115-8.308-8.308-8.308-18.192t8.203-18.123l108.604-108.971q5.063-5.081 10.65-7.166 5.586-2.085 12.081-2.085 6.495 0 12.081 2.085 5.587 2.085 10.65 7.166l108.604 108.971q7.818 7.854 8.011 17.431.192 9.576-8.116 17.884-8.307 8.307-18.191 8.307-9.885 0-18.278-8.279L480-730.155Z"/></svg>