<svg xmlns="http://www.w3.org/2000/svg" height="20" viewBox="0 -960 960 960" width="20"><path d="M196.26-308.001q-13.71 0-22.984-9.201-9.275-9.2-9.275-22.8v-280.004q0-13.6 9.245-22.796 9.244-9.197 22.909-9.197h567.69q13.665 0 22.909 9.37 9.245 9.369 9.245 23.22v24.733q0 10.445-7.193 17.022-7.192 6.576-17.884 5.961-47.227.154-89.704 17.385-42.476 17.23-76.155 51.077-33.294 33.461-51.217 76.922-17.923 43.462-17.692 90.154 0 11.846-7.115 20-7.114 8.154-18.445 8.154H196.26Zm547.74 0H637.999q-11.049 0-18.524-7.419Q612-322.838 612-333.804q0-10.966 7.475-18.581T637.999-360H744v-106.001q0-11.049 7.418-18.524Q758.836-492 769.802-492q10.966 0 18.581 7.475 7.616 7.475 7.616 18.524V-360h106q11.05 0 18.525 7.418 7.475 7.418 7.475 18.384 0 10.966-7.475 18.581-7.475 7.616-18.525 7.616h-106v106q0 11.05-7.419 18.525-7.418 7.475-18.384 7.475-10.966 0-18.581-7.475T744-202.001v-106Z"/></svg>