<svg xmlns="http://www.w3.org/2000/svg" height="20" viewBox="0 -960 960 960" width="20"><path d="M169.539-212.001q-22.392 0-37.965-15.585-15.573-15.585-15.573-37.993v-429.166q0-22.408 15.573-37.831 15.573-15.423 37.965-15.423h100.925q22.007 0 37.772 15.777 15.765 15.777 15.765 37.801v429.166q0 22.024-15.765 37.639-15.765 15.615-37.772 15.615H169.539Zm259.613 0q-22.007 0-37.772-15.777-15.765-15.777-15.765-37.801v-429.166q0-22.024 15.765-37.639 15.765-15.615 37.772-15.615h101.311q22.007 0 37.772 15.777Q584-716.445 584-694.421v429.166q0 22.024-15.765 37.639-15.765 15.615-37.772 15.615H429.152Zm260.384 0q-22.007 0-37.772-15.777-15.765-15.777-15.765-37.801v-429.166q0-22.024 15.765-37.639 15.765-15.615 37.772-15.615h100.925q22.392 0 37.965 15.585 15.573 15.585 15.573 37.993v429.166q0 22.408-15.573 37.831-15.573 15.423-37.965 15.423H689.536Z"/></svg>