<svg xmlns="http://www.w3.org/2000/svg" height="20" viewBox="0 -960 960 960" width="20"><path d="M648.307-215.078q-9.846 6.23-21.077 11.846-11.231 5.615-24.077 11.231-10.153 4.076-21.192 0-11.038-4.077-14.499-13.846-3.462-10.154 1.307-20.192 4.77-10.038 14.923-14.115 10.154-4.385 19.116-8.962 8.961-4.577 13.731-8.73L471.538-391.847v88.845q0 17.461-16.231 24.269-16.23 6.807-28.614-5.577L308.001-403.001H207.694q-13.461 0-22.807-9.347-9.346-9.346-9.346-22.807v-87.69q0-13.461 9.346-22.807 9.346-9.347 22.807-9.347h99.692L131.924-731.461q-8.307-8.307-8.5-18.384-.192-10.076 8.5-18.769 8.692-8.692 18.577-8.692 9.884 0 18.576 8.692l604.922 604.922q8.307 8.307 8.499 17.884.193 9.577-8.499 18.269-8.693 8.692-18.577 8.692-9.884 0-18.576-8.692l-88.539-87.539Zm89.076-86.615-36.999-36.998q19.846-30.539 31.347-66.308 11.5-35.77 11.5-74.001 0-78.231-43.193-142.538-43.192-64.308-113.577-95.923-10.538-5.462-15.999-15.308-5.462-9.846-.231-19.999 4.846-11.154 16.577-14.846 11.73-3.692 23.268 1.769 83.461 38.077 134.307 114.808 50.846 76.73 50.846 171.037 0 48.615-15.154 93.538-15.154 44.923-42.692 84.769Zm-112.461-112.46-65.998-65.999v-107.693q0-9.462 8.038-13.192 8.038-3.731 15.5.884 26.999 20.385 42.038 54 15.038 33.615 15.038 67.153 0 16.693-3.154 33-3.154 16.308-11.462 31.847ZM471.538-567.537l-75.307-75.692 30.462-30.461q12.384-12.384 28.614-5.577 16.231 6.808 16.231 24.269v87.461Z"/></svg>