<svg xmlns="http://www.w3.org/2000/svg" height="20" viewBox="0 -960 960 960" width="20"><path d="M216.506-116.001q-10.966 0-18.582-7.475-7.615-7.475-7.615-18.525V-792h-45.79q-10.96 0-18.585-7.418t-7.625-18.384q0-10.966 7.45-18.581 7.45-7.616 18.462-7.616h65.48q13.915 0 23.261 9.245 9.346 9.244 9.346 22.909v669.844q0 11.05-7.418 18.525-7.418 7.475-18.384 7.475Zm153.495 0q-26.527 0-45.417-18.891-18.89-18.89-18.89-45.417v-599.382q0-26.527 18.89-45.417 18.89-18.891 45.417-18.891h311.383q26.526 0 45.416 18.891 18.891 18.89 18.891 45.417v599.382q0 26.527-18.891 45.417-18.89 18.891-45.416 18.891H370.001Zm-12.309-385.613q16.846-14.307 38.329-22.346t45.671-8.039h168q24.189 0 45.671 8.039 21.483 8.039 38.329 22.346v-278.077q0-5.385-3.462-8.847-3.461-3.462-8.846-3.462H370.001q-5.385 0-8.847 3.462-3.462 3.462-3.462 8.847v278.077ZM525.48-598q-25.941 0-43.864-18.135-17.923-18.136-17.923-44.077t18.135-43.864q18.135-17.923 44.077-17.923 25.941 0 43.864 18.136 17.922 18.135 17.922 44.076t-18.135 43.864Q551.421-598 525.48-598Zm-25.787 299.766v46.117q0 11.1 7.479 18.608 7.478 7.508 18.534 7.508 11.055 0 18.52-7.508t7.465-18.608v-46.117h46.001q11.05 0 18.525-7.512 7.474-7.512 7.474-18.478 0-10.966-7.474-18.371-7.475-7.404-18.525-7.404h-46.001v-45.79q0-10.961-7.418-18.585-7.418-7.625-18.384-7.625-10.966 0-18.464 7.475-7.499 7.474-7.499 18.524v46.001h-46.117q-11.1 0-18.608 7.478-7.508 7.479-7.508 18.534 0 10.756 7.475 18.255 7.474 7.498 18.524 7.498h46.001Z"/></svg>