<svg xmlns="http://www.w3.org/2000/svg" height="20" viewBox="0 -960 960 960" width="20"><path d="M414.172-434.308q-7.725 0-12.794-5.056-5.069-5.056-5.069-12.79v-79.692q0-7.734 5.051-12.79 5.051-5.056 12.776-5.056 7.726 0 12.795 5.056t5.069 12.79v79.692q0 7.734-5.051 12.79-5.051 5.056-12.777 5.056Zm65.846 0q-7.725 0-12.795-5.023-5.069-5.023-5.069-12.706v-55.46q0-7.683 5.052-12.939 5.051-5.256 12.776-5.256t12.795 5.023q5.069 5.023 5.069 12.706v55.46q0 7.683-5.052 12.939-5.051 5.256-12.776 5.256Zm65.846 0q-7.726 0-12.795-5.056T528-452.154v-31.692q0-7.734 5.051-12.79 5.051-5.056 12.777-5.056 7.725 0 12.794 5.056 5.069 5.056 5.069 12.79v31.692q0 7.734-5.051 12.79-5.051 5.056-12.776 5.056Zm-96.633 302.152q-22.681 0-40.263-14.154-17.582-14.154-22.428-35.846l-26.692-113.537q-45.154-28.769-72.5-76.73Q260.001-420.385 260.001-480q0-59.615 27.847-107.577 27.846-47.961 74-76.73l25.692-113.537q4.846-21.692 22.428-35.846 17.582-14.154 40.263-14.154h59.538q22.681 0 40.263 14.154 17.582 14.154 22.428 35.846l25.692 113.537q46.154 28.769 74 76.73Q699.999-539.615 699.999-480q0 59.615-27.347 107.577-27.346 47.961-72.5 76.73L573.46-182.156q-4.846 21.692-22.428 35.846-17.582 14.154-40.263 14.154h-61.538ZM480.198-312Q550-312 599-361.198t49-119Q648-550 598.802-599t-119-49Q410-648 361-598.802t-49 119Q312-410 361.198-361t119 49Z"/></svg>