<svg xmlns="http://www.w3.org/2000/svg" height="20" viewBox="0 -960 960 960" width="20"><path d="M409.539-116.001q-7.893 0-13.639-5.747-5.746-5.746-5.746-13.638v-140.923q0-7.892 5.746-13.638 5.746-5.746 13.639-5.746h92.922q7.893 0 13.639 5.746 5.746 5.746 5.746 13.638v140.923q0 7.892-5.746 13.638-5.746 5.747-13.639 5.747h-92.922Zm16.307-35.692h60.308v-108.308h-60.308v108.308Zm192-36.308v54.154q0 7.707-5.069 12.776-5.069 5.07-12.777 5.07-7.708 0-12.777-5.07-5.069-5.069-5.069-12.776V-271.77q0-9.461 7.423-16.692t16.877-7.231h88.777q7.692 0 13.153 5.462 5.462 5.461 5.462 13.153v71.231q0 9.615-7.962 15.654-7.962 6.038-18.731 3.73h-7l20.308 46.385q3.846 8.308-.923 16.192-4.769 7.885-14.452 7.885-5.446 0-9.682-2.672-4.237-2.672-6.327-7.251l-26.154-62.077h-25.077Zm192 0v54.154q0 7.707-5.069 12.776-5.069 5.07-12.777 5.07-7.708 0-12.777-5.07-5.069-5.069-5.069-12.776V-271.77q0-9.461 7.423-16.692t16.877-7.231h88.777q7.692 0 13.153 5.462 5.462 5.461 5.462 13.153v70.462q0 7.692-5.462 13.153-5.461 5.462-13.153 5.462h-77.385Zm-192-35.692h53.385q3.077 0 5-1.731t1.923-4.423v-23.231q0-3.077-1.923-5t-5-1.923h-53.385v36.308Zm192 0h53.385q3.077 0 5-1.923t1.923-5v-22.462q0-3.077-1.923-5t-5-1.923h-53.385v36.308Zm-353.76-602.305q5.931 0 11.112 2.308 5.18 2.307 10.109 6.923 46.539 44.692 96.577 93.73 50.038 49.038 91.346 104.422 36.076 49.923 58.23 103.577 22.154 53.653 22.154 114.192 0 14.461-10.538 23.807-10.539 9.346-24.296 9.346H382.461q-26.622 0-45.465 18.842-18.842 18.842-18.842 45.465v90.308q0 9.749-4.923 16.144-4.923 6.394-12.153 11.009-7.231 4.616-15.385 4.116t-15.384-6.346q-49.539-37.769-77.923-95.384Q164.001-341.154 164.001-408q0-59.154 27.462-116.499 27.461-57.346 67.961-110.962 40.5-53.615 87.73-100.115 47.231-46.499 86.154-82.191 4.615-4.616 10.731-6.423 6.115-1.808 12.047-1.808Z"/></svg>