<svg xmlns="http://www.w3.org/2000/svg" height="20" viewBox="0 -960 960 960" width="20"><path d="M758.631-116.001q-36.016 0-61.131-24.94-25.115-24.94-25.115-61.06 0-15.692 5.73-30.846 5.731-15.153 15.505-26.658l46.687-51.802q7.437-8.231 18.18-8.231 10.743 0 17.974 8.231l46.687 51.802q9.774 11.505 15.504 26.658 5.731 15.154 5.731 30.846 0 36.12-24.868 61.06-24.868 24.94-60.884 24.94ZM360-603.999h240v-96q0-50-35-85t-85-35q-50 0-85 35t-35 85v96Zm120.212 305.998q25.942 0 43.864-18.135 17.923-18.135 17.923-44.076 0-25.942-18.135-43.864-18.135-17.923-44.076-17.923-25.942 0-43.864 18.135-17.923 18.135-17.923 44.076 0 25.942 18.135 43.864 18.135 17.923 44.076 17.923Zm-203.903 182q-26.527 0-45.417-18.891-18.891-18.89-18.891-45.417v-359.382q0-26.527 18.891-45.417 18.89-18.891 45.417-18.891h31.692v-96q0-71.602 50.265-121.8 50.264-50.198 121.96-50.198t121.735 50.198q50.038 50.198 50.038 121.8v96h31.692q26.527 0 45.417 18.891 18.891 18.89 18.891 45.417v111.999q0 7.461-5.347 13.769-5.346 6.308-13.192 7.692-43.769 6.924-78.114 32.77-34.346 25.846-55.039 64.384-20.692 38.538-19.922 81.692.769 43.153 20.222 82.024 4.47 10.283-1.03 19.821-5.5 9.539-15.501 9.539H276.309Z"/></svg>