<svg xmlns="http://www.w3.org/2000/svg" height="20" viewBox="0 -960 960 960" width="20"><path d="M751.078-187.001 347.231-590.232q-16.615 22.846-25.923 49.654Q312-513.77 312-483q0 28.308 8.731 53.616t24.423 46.077q5.692 9.538 6.077 19.115.385 9.576-8.307 18.268-8.308 8.308-18.885 7.423-10.576-.884-17.653-9.423-22.385-28.076-34.385-62.345-12-34.27-12-72.731 0-40.154 14.039-77.116 14.039-36.961 37.346-66.961l-65.462-64.463q-36.385 42.308-57.155 95.539Q168-542.77 168-483q0 57.693 19.039 108.423 19.038 50.731 53.731 92.116 6.692 8.923 7.576 20.076.885 11.154-7.422 19.461-8.308 8.308-19.577 6.423-11.269-1.884-18.961-10.807-41-49.077-63.692-108.654Q116.001-415.539 116.001-483q0-70.154 24.924-132.923 24.923-62.77 68.615-112l-74.154-74.155q-7.923-7.922-8.115-18.191-.192-10.269 8.115-18.577 8.308-8.307 18.384-8.307 10.077 0 18.384 8.307l615.692 615.692q7.923 7.923 8.115 17.884.192 9.961-8.115 18.269-8.308 8.307-18.384 8.307-10.077 0-18.384-8.307ZM792-483q0-63-23.5-120T701-704q-44-44-101-67.5T480-795q-33.154 0-65.731 5.769-32.577 5.77-63.115 20.77-10.539 5.692-20.308 1.346-9.768-4.346-14.461-14.885-3.692-9.538.847-18.999 4.538-9.461 14.076-14.538 33.077-19.615 71.346-25.539 38.269-5.923 77.346-5.923 72.769 0 139.307 27.654 66.538 27.654 117.461 78.577t79.077 117.961Q843.999-555.769 843.999-483q0 40.231-7.5 78.577T810.614-332q-4.077 9.538-13.038 13.576-8.961 4.039-18.5-.038-10.538-5.077-14.384-15.038t-.769-20.115q13.538-30.769 20.808-63.308Q792-449.461 792-483ZM599-602q-24-24-54.5-36.5T480-651q-4 0-8 1t-8.385 1.385q-10.769-.77-18.499-9.654-7.731-8.885-6.961-19.653.769-10.769 9.653-17.808 8.885-7.038 19.654-6.269 3.231.385 6.269-.307 3.038-.693 6.269-.693 44.154 0 84.499 16.654 40.346 16.654 71.269 47.577 30.923 30.923 47.577 71.269 16.654 40.345 16.654 84.499 0 3.231-.693 6.269-.692 3.038-.307 6.269.769 10.769-6.462 19.154-7.23 8.384-17.999 9.153-10.769.77-18.961-6.461-8.192-7.23-8.962-17.999Q647-471 647.5-475t.5-8q0-34-12.5-64.5T599-602Z"/></svg>