<svg xmlns="http://www.w3.org/2000/svg" height="20" viewBox="0 -960 960 960" width="20"><path d="M432-351.386q-21.923 0-42.077-4.461-20.154-4.462-38.923-12.001-9.769-3.846-14.231-13.807-4.461-9.961.616-19.73 5.076-10.154 15.615-14 10.538-3.846 20.922.385 13.693 5.308 27.77 8.462T432-403.384q72.308 0 122.462-50.154Q604.616-503.692 604.616-576q0-72.308-50.154-122.462Q504.308-748.616 432-748.616q-74.616 0-125.539 52.462t-47.846 127.078l40.309-40.078q8.307-8.692 18.384-7.692 10.076 1 18.768 9.692 8.693 8.692 8.693 18.576t-8.693 18.577l-76.383 75.383q-9.847 9.847-22.308 9.847t-22.307-9.847l-76.384-76.383q-8.308-8.308-8.308-18.077 0-9.769 7.923-17.692 8.692-8.692 19.153-8.692 10.462 0 18.384 8.692l30.77 31.924q-.307-93.769 65.346-159.768 65.654-66 160.038-66 93.461 0 159.038 65.576Q656.614-669.461 656.614-576q0 39.615-13.269 75.231-13.269 35.615-34.5 64.461l220.154 220.154q8.308 8.308 8.5 17.885.192 9.576-8.5 18.268t-18.576 8.692q-9.884 0-18.577-8.692L571.692-399.155q-29.231 22-65.231 34.885-36 12.884-74.461 12.884Z"/></svg>