<svg xmlns="http://www.w3.org/2000/svg" height="24" viewBox="0 -960 960 960" width="24"><path d="M480.032-721.913q-34.467 0-59.043-24.544-24.576-24.545-24.576-59.011 0-34.467 24.544-59.043 24.545-24.576 59.011-24.576 34.467 0 59.043 24.544 24.576 24.545 24.576 59.011 0 34.467-24.544 59.043-24.545 24.576-59.011 24.576ZM355.696-120.957V-594.5H163.587q-18.524 0-31.056-12.696Q120-619.891 120-638.326t12.696-31.011q12.695-12.576 31.13-12.576h632.587q18.524 0 31.056 12.531Q840-656.851 840-638.326q0 18.435-12.531 31.13-12.532 12.696-31.056 12.696H604.304v473.543q0 18.525-12.531 31.056-12.531 12.531-31.056 12.531-18.524 0-31.055-12.53-12.532-12.532-12.532-31.057V-320h-74.26v199.043q0 18.525-12.532 31.056-12.531 12.531-31.055 12.531-18.525 0-31.056-12.53-12.531-12.532-12.531-31.057Z"/></svg>