<svg xmlns="http://www.w3.org/2000/svg" height="24" viewBox="0 -960 960 960" width="24"><path d="M398.087-76.413q-84.435 0-144.011-59.576Q194.5-195.565 194.5-280q0-50.043 22.163-92.804t58.967-70.479q14.718-11.434 32.392-8.793 17.674 2.641 29.108 17.359 11.435 14.717 9.174 32.271-2.261 17.555-16.978 28.99-21.565 16.521-34.489 40.826-12.924 24.304-12.924 52.63 0 48.565 33.804 82.489 33.805 33.924 82.37 33.924 28.326 0 52.511-12.924 24.184-12.924 40.945-34.728 11.435-14.718 29.109-16.859 17.674-2.141 32.391 9.294 14.718 11.434 17.24 28.989 2.521 17.554-8.913 32.272-27.718 36.804-70.479 58.967-42.761 22.163-92.804 22.163ZM721.913-80q-18.435 0-31.13-12.696-12.696-12.695-12.696-31.13V-280h-189q-37.783 0-64.391-26.609-26.609-26.609-26.609-64.391v-230.913q0-34.196 24.217-58.294 24.218-24.097 58.413-24.097 23.044 0 40.185 9.663 17.141 9.663 37.141 31.945 44.044 50.891 81.859 75.652 37.815 24.761 81.25 33.479 17.718 3.478 30.315 16.195 12.598 12.718 12.598 30.435t-12.978 29.196q-12.978 11.478-29.696 8.239-42.804-8-83.587-26.685-40.782-18.685-72.304-43.25V-385.5h112.587q36.109 0 61.761 25.652t25.652 61.761v174.5q0 18.435-12.576 31.01Q740.348-80 721.913-80ZM480.717-724.304q-34.674 0-59.13-24.577-24.457-24.576-24.457-59.25 0-34.434 24.576-59.011 24.577-24.576 59.011-24.576 34.435 0 59.011 24.576 24.576 24.577 24.576 59.011 0 34.674-24.456 59.25-24.457 24.577-59.131 24.577Z"/></svg>