<svg xmlns="http://www.w3.org/2000/svg" height="24" viewBox="0 -960 960 960" width="24"><path d="M423.283-423.283ZM480-162.87q49.565 0 95.609-15.021 46.043-15.022 86.326-42.826-40.283-28.044-86.326-42.946-46.044-14.902-95.609-14.902t-95.489 15.022q-45.924 15.021-86.207 42.826 40.283 27.804 86.207 42.826Q430.435-162.87 480-162.87Zm100.435-517.087q29.804 29.805 38.402 70.772 8.598 40.967-6.533 79.772-6.804 17.478-23.26 23.38-16.457 5.902-32.218-3.772l-5.5-5.5q-12.848-6.761-18.369-20.587-5.522-13.826-.153-27.152 5.609-14.13 2.729-29.902-2.881-15.771-14.49-27.619-11.086-11.087-25.836-14.348-14.75-3.261-29.12 1.587-12.804 3.326-25.489-2.815-12.685-6.142-18.163-19.989l-4.783-4.783q-7.913-16.283-.369-32.62 7.543-16.337 24.782-22.858 34.522-12.566 72.663-1.848 38.142 10.717 65.707 38.282ZM480-71.869q-84.674 0-159.109-32.098t-129.63-87.294q-55.196-55.195-87.294-129.63T71.869-480q0-60.435 17.098-117.63 17.098-57.196 50.055-108.153L55-790.804Q42.522-803.283 43.022-820.5q.5-17.217 12.978-29.696 12.478-12.478 29.696-12.478 17.217 0 29.695 12.478l737.631 738.631Q865.5-99.087 865-81.87q-.5 17.218-12.978 29.696-12.478 12.478-29.196 12.478-16.717 0-29.196-12.478L205.674-639.13q-21.283 36.521-32.044 76.684-10.76 40.163-10.76 82.446 0 55.804 18.641 106.848 18.641 51.043 53.685 93.565 53.761-40.283 115.902-61.424T480-362.152q38.957 0 77.435 8.119 38.478 8.12 74.956 22.837l138.022 138.022q-58.195 58.913-133.109 90.109Q562.391-71.869 480-71.869Zm81.391-489.522ZM324.283-856.435q36.848-15.848 76.098-23.772 39.249-7.924 79.619-7.924 81.674 0 156.228 30.718 74.555 30.717 132.511 88.674 57.957 57.956 88.674 132.511Q888.131-561.674 888.131-480q0 40.37-7.924 79.619-7.924 39.25-23.772 76.098-7.239 17.392-25.152 23.087-17.913 5.696-34.305-3.022-16.391-8.717-22.348-26.75-5.956-18.032.805-36.424 11.087-26.891 16.391-55.423 5.304-28.533 5.304-57.185 0-132.565-92.282-224.848Q612.565-797.13 480-797.13q-28.652 0-57.185 5.304-28.532 5.304-55.423 16.391-18.392 6.761-36.424.805-18.033-5.957-26.75-22.348-8.718-16.392-3.022-34.305 5.695-17.913 23.087-25.152Z"/></svg>