<svg xmlns="http://www.w3.org/2000/svg" height="24" viewBox="0 -960 960 960" width="24"><path d="M480-888.131q84.435 0 158.489 32.218 74.055 32.217 129.631 87.793 55.576 55.576 87.793 129.631Q888.131-564.435 888.131-480q0 83.674-32.218 158.109-32.217 74.435-87.793 130.011-55.576 55.576-129.631 87.793Q564.435-71.869 480-71.869q-83.674 0-158.109-32.218-74.435-32.217-130.011-87.793-55.576-55.576-87.793-130.011Q71.869-396.326 71.869-480q0-84.435 32.218-158.489 32.217-74.055 87.793-129.631 55.576-55.576 130.011-87.793Q396.326-888.131 480-888.131Zm0 725.261q131.804 0 224.467-92.663Q797.13-348.196 797.13-480q0-131.804-92.663-224.467Q611.804-797.13 480-797.13q-131.804 0-224.467 92.663Q162.87-611.804 162.87-480q0 131.804 92.663 224.467Q348.196-162.87 480-162.87ZM400-680q0 33 23.5 56.5T480-600q33 0 56.5-23.5T560-680q0-33-23.5-56.5T480-760q-33 0-56.5 23.5T400-680Zm80 120q-66 0-123 21.5T300-460v160q0 57 57 77.5T480-202q17 0 28.5-11.5T520-242q0-17-11.5-28.5T480-282q-19.043.478-37.706-2.522-18.664-3-35.946-10.282-12.435-5-15.554-16.935-3.12-11.935 5.315-20.652 17-15.566 38.924-21.587Q456.957-360 480-360q37 0 68.5 13t31.5 45v27.304q0 13.435 9.337 23.392 9.337 9.956 22.533 9.956 21.565 0 34.847-17.924Q660-277.196 660-300v-160q0-57-57-78.5T480-560Zm0 180q-21 0-35.5-14.5T430-430q0-21 14.5-35.5T480-480q21 0 35.5 14.5T530-430q0 21-14.5 35.5T480-380Zm0-100Z"/></svg>