<svg xmlns="http://www.w3.org/2000/svg" height="24" viewBox="0 -960 960 960" width="24"><path d="M712.587-480v-281.913q0-19.152 13.174-32.326t32.326-13.174q19.152 0 32.326 13.174t13.174 32.326V-480q0 19.152-13.174 32.326T758.087-434.5q-19.152 0-32.326-13.174T712.587-480ZM138-198.087v-563.826q0-19.152 13.173-32.326 13.174-13.174 32.327-13.174 19.152 0 32.326 13.174T229-761.913v563.826q0 19.152-13.174 32.326T183.5-152.587q-19.153 0-32.327-13.174Q138-178.935 138-198.087ZM425.413-685.5v-76.413q0-19.152 13.174-32.326t32.326-13.174q19.152 0 32.326 13.174t13.174 32.326v76.413q0 19.152-13.174 32.326T470.913-640q-19.152 0-32.326-13.174T425.413-685.5Zm0 243.587v-76.174q0-19.152 13.174-32.326t32.326-13.174q19.152 0 32.326 13.174t13.174 32.326v76.174q0 19.152-13.174 32.326t-32.326 13.174q-19.152 0-32.326-13.174t-13.174-32.326Zm0 243.826V-274.5q0-19.152 13.174-32.326T470.913-320q19.152 0 32.326 13.174t13.174 32.326v76.413q0 19.152-13.174 32.326t-32.326 13.174q-19.152 0-32.326-13.174t-13.174-32.326Zm287.174 45.5h-69q-19.152 0-32.326-13.174t-13.174-32.326q0-19.152 13.174-32.326t32.326-13.174h69v-69q0-19.152 13.174-32.326t32.326-13.174q19.152 0 32.326 13.174t13.174 32.326v69h69q19.152 0 32.326 13.174t13.174 32.326q0 19.152-13.174 32.326t-32.326 13.174h-69v69q0 19.152-13.174 32.326t-32.326 13.174q-19.152 0-32.326-13.174t-13.174-32.326v-69Z"/></svg>