<svg xmlns="http://www.w3.org/2000/svg" height="24" viewBox="0 -960 960 960" width="24"><path d="M198.087-203.587v-200h240v200-200h-240v200Zm483.587-357.609ZM318.087-703.674q13.913 0 26.95 3.946 13.037 3.947 25.507 12.967l186.434 133.065q15.957 11.718 17.935 30.794 1.978 19.076-11.261 33.511-11.717 12.674-28.011 14.271-16.293 1.598-29.728-7.597l-187.826-134.5-196.413 139.183v274.447h76.413v-124.065q0-31.323 22.306-53.629 22.306-22.306 53.629-22.306h88.13q31.323 0 53.629 22.306 22.306 22.306 22.306 53.629V-156.413q0 17-11.5 28.5t-28.5 11.5q-17 0-28.5-11.5t-11.5-28.5v-167.174h-80v131.239q0 31.323-22.306 53.629-22.306 22.306-53.629 22.306h-91.957q-31.323 0-53.628-22.306-22.306-22.306-22.306-53.629v-282.826q0-22.745 10.195-42.079 10.196-19.334 28.348-32.008l192.826-137.5q12.47-9.02 25.507-12.967 13.037-3.946 26.95-3.946Zm516.174-139.913q37.782 0 64.391 26.609 26.609 26.608 26.609 64.391v215.283q0 18.524-12.531 31.055-12.532 12.532-31.056 12.532-18.525 0-31.056-12.532-12.531-12.531-12.531-31.055v-219.109H485.261v15.217q-2.87 12.935-15.207 21.685-12.337 8.75-28.38 8.75-18.525 0-31.056-12.463-12.531-12.462-12.531-30.885v-16.739q0-31.761 22.8-52.25t54.522-20.489h358.852ZM720-40q-83 0-141.5-58.5T520-240q0-83 58.5-141.5T720-440q83 0 141.5 58.5T920-240q0 83-58.5 141.5T720-40Zm-23.587-176.413V-140q0 9.435 7.076 16.511 7.076 7.076 16.511 7.076 9.435 0 16.511-7.076 7.076-7.076 7.076-16.511v-76.413H820q9.435 0 16.511-7.076 7.076-7.076 7.076-16.511 0-9.435-7.076-16.511-7.076-7.076-16.511-7.076h-76.413V-340q0-9.435-7.076-16.511-7.076-7.076-16.511-7.076-9.435 0-16.511 7.076-7.076 7.076-7.076 16.511v76.413H620q-9.435 0-16.511 7.076-7.076 7.076-7.076 16.511 0 9.435 7.076 16.511 7.076 7.076 16.511 7.076h76.413ZM700.717-600h41.913q7.761 0 13.403-5.641 5.641-5.642 5.641-13.402v-41.914q0-7.76-5.641-13.402Q750.391-680 742.63-680h-41.913q-7.76 0-13.402 5.641-5.641 5.642-5.641 13.402v41.914q0 7.76 5.641 13.402Q692.957-600 700.717-600Z"/></svg>