<svg xmlns="http://www.w3.org/2000/svg" height="24" viewBox="0 -960 960 960" width="24"><path d="M201.435-111.869q-37.783 0-64.392-26.609-26.608-26.609-26.608-64.392v-554.26q0-37.783 26.608-64.392 26.609-26.609 64.392-26.609h304.217q19.152 0 32.326 13.174t13.174 32.327q0 19.152-13.174 32.326t-32.326 13.174H201.435v554.26h554.261v-304.217q0-19.152 13.174-32.326 13.173-13.174 32.326-13.174 19.152 0 32.326 13.174t13.174 32.326v304.217q0 37.783-26.609 64.392-26.609 26.609-64.391 26.609H201.435Zm480.717-571.718h-41.678q-17.713 0-29.811-12.05-12.098-12.05-12.098-29.863t12.05-29.863q12.05-12.05 29.863-12.05h41.674v-41.678q0-17.714 12.05-29.811Q706.252-851 724.065-851t29.863 12.05q12.05 12.05 12.05 29.863v41.674h41.679q17.713 0 29.811 12.05 12.097 12.05 12.097 29.863t-12.05 29.863q-12.05 12.05-29.863 12.05h-41.674v41.678q0 17.713-12.05 29.811Q741.878-600 724.065-600t-29.863-12.05q-12.05-12.05-12.05-29.863v-41.674ZM448.565-320l-71.848-95.891q-6.956-9.196-18.152-9.196-11.195 0-18.152 9.196l-74.5 99.587q-8.956 11.434-2.359 23.869Q270.152-280 284.065-280h389q13.913 0 20.511-12.435 6.598-12.435-2.359-23.869l-104.5-139.587q-6.956-9.196-18.152-9.196-11.195 0-18.152 9.196L448.565-320Zm30-160Z"/></svg>