<svg xmlns="http://www.w3.org/2000/svg" height="24" viewBox="0 -960 960 960" width="24"><path d="M680.478-280q25 0 42.5-17.5t17.5-42.5q0-25-17.5-42.5t-42.5-17.5q-25 0-42.5 17.5t-17.5 42.5q0 25 17.5 42.5t42.5 17.5Zm0 120q31.239 0 57-14.38 25.761-14.381 42-38.381Q757.239-226 732.317-233q-24.923-7-51.839-7-27 0-52 7t-47.239 20.239q16.239 24 42.12 38.381Q649.239-160 680.478-160ZM480-881.891q8.717 0 16.294 1.119 7.576 1.12 15.532 4.598l237.131 88.804q26.347 10.196 42.761 33.066 16.413 22.869 16.413 51.456V-585.5q0 19.236-13.174 32.248-13.174 13.013-32.327 13.013-19.152 0-32.326-13.013-13.174-13.012-13.174-32.248v-116.587L480-790.891l-237.13 88.804V-516q0 49.043 13.902 97.489 13.902 48.446 38.087 91.652 24.184 43.207 58.174 78.011 33.989 34.804 73.402 57.565 16.434 10.152 23.413 27.544 6.978 17.391-.457 34.304-8.435 17.913-26.206 24.152-17.772 6.24-34.446-3.434-109.174-58.87-173.022-170.794Q151.869-391.435 151.869-516v-186.848q0-28.587 16.413-51.456 16.414-22.87 42.761-33.066l237.131-88.804q7.956-3.43 15.913-4.574 7.956-1.143 15.913-1.143ZM680-80q-83 0-141.5-58.5T480-280q0-83 58.5-141.5T680-480q83 0 141.5 58.5T880-280q0 83-58.5 141.5T680-80ZM480-494.957Z"/></svg>