<svg xmlns="http://www.w3.org/2000/svg" height="24" viewBox="0 -960 960 960" width="24"><path d="M480-104.934q-103.109 0-175.5-72.392-72.391-72.391-72.391-175.5 0-91.674 57.978-159.967 57.978-68.294 144.413-83.968v-206.348q0-19.152 13.174-32.326T480-848.609q19.152 0 32.326 13.174t13.174 32.326v206.348q87.196 15.674 144.794 83.848 57.597 68.174 57.597 160.087 0 103.109-72.271 175.5-72.272 72.392-175.62 72.392Zm0-91.001q53.609 0 94.554-31.847 40.946-31.848 55.663-80.739H329.783q14.717 48.891 55.782 80.739Q426.63-195.935 480-195.935ZM329.783-397.13h300.434q-14.717-49.131-55.663-80.859-40.945-31.728-94.554-31.728-53.37 0-94.435 31.728-41.065 31.728-55.782 80.859Z"/></svg>