<svg xmlns="http://www.w3.org/2000/svg" height="24" viewBox="0 -960 960 960" width="24"><path d="M469-272.587H160q-37.544 0-64.272-26.728Q69-326.043 69-363.587v-440.239q0-18.435 12.695-31.011 12.696-12.576 31.131-12.576 18.435 0 31.011 12.576t12.576 31.011V-360H469q18.435 0 31.011 12.576t12.576 31.011q0 18.435-12.576 31.131-12.576 12.695-31.011 12.695ZM600.478-400H343.587q-53.109 0-90.141-37.152-37.033-37.152-37.033-90.261v-274.5q0-19.152 13.174-32.326t32.326-13.174h160q19.152 0 32.326 13.174t13.174 32.326v198.326h113.304q24.674 0 45.229 13.217 20.554 13.218 32.032 35.653l134.805 276.565 44-20.478q23.239-11.24 47.217-3.5 23.978 7.739 36.218 29.978 12.478 23.478 3.978 48.076T892.218-188l-114.283 52.239q-16.913 7.957-34.185 1.359-17.272-6.598-25.228-22.75L600.478-400Z"/></svg>