<svg xmlns="http://www.w3.org/2000/svg" height="24" viewBox="0 -960 960 960" width="24"><path d="M842.63-71.87q-19.152 0-32.326-13.173-13.174-13.174-13.174-32.327v-725.26q0-19.153 13.174-32.327t32.326-13.174q19.153 0 32.327 13.174t13.174 32.327v725.26q0 19.153-13.174 32.327T842.63-71.87ZM600-274.5q-19.152 0-32.326-13.174T554.5-320v-320q0-19.152 13.174-32.326T600-685.5h40q19.152 0 32.326 13.174T685.5-640v320q0 19.152-13.174 32.326T640-274.5h-40Zm-240 0q-19.152 0-32.326-13.174T314.5-320v-320q0-19.152 13.174-32.326T360-685.5h40q19.152 0 32.326 13.174T445.5-640v320q0 19.152-13.174 32.326T400-274.5h-40Z"/></svg>