<svg xmlns="http://www.w3.org/2000/svg" height="24" viewBox="0 -960 960 960" width="24"><path d="M117.37-71.87q-19.153 0-32.327-13.173Q71.87-98.217 71.87-117.37q0-19.152 13.174-32.326t32.327-13.174h725.26q19.153 0 32.327 13.174t13.174 32.326q0 19.153-13.174 32.327T842.63-71.87H117.37ZM320-514.5q-19.152 0-32.326-13.174T274.5-560v-40q0-19.152 13.174-32.326T320-645.5h320q19.152 0 32.326 13.174T685.5-600v40q0 19.152-13.174 32.326T640-514.5H320Zm0 240q-19.152 0-32.326-13.174T274.5-320v-40q0-19.152 13.174-32.326T320-405.5h320q19.152 0 32.326 13.174T685.5-360v40q0 19.152-13.174 32.326T640-274.5H320Z"/></svg>