<svg xmlns="http://www.w3.org/2000/svg" height="24" viewBox="0 -960 960 960" width="24"><path d="M117.37-434.5q-19.153 0-32.327-13.174T71.87-480q0-19.152 13.174-32.326T117.37-525.5h725.26q19.153 0 32.327 13.174T888.131-480q0 19.152-13.174 32.326T842.63-434.5H117.37ZM320-565.5q-19.152 0-32.326-13.174T274.5-611v-40q0-19.152 13.174-32.326T320-696.5h320q19.152 0 32.326 13.174T685.5-651v40q0 19.152-13.174 32.326T640-565.5H320Zm0 302q-19.152 0-32.326-13.174T274.5-309v-40q0-19.152 13.174-32.326T320-394.5h320q19.152 0 32.326 13.174T685.5-349v40q0 19.152-13.174 32.326T640-263.5H320Z"/></svg>