<svg xmlns="http://www.w3.org/2000/svg" height="24" viewBox="0 -960 960 960" width="24"><path d="M117.37-797.13q-19.153 0-32.327-13.174T71.87-842.63q0-19.153 13.174-32.327t32.327-13.174h725.26q19.153 0 32.327 13.174t13.174 32.327q0 19.152-13.174 32.326T842.63-797.13H117.37ZM320-554.5q-19.152 0-32.326-13.174T274.5-600v-40q0-19.152 13.174-32.326T320-685.5h320q19.152 0 32.326 13.174T685.5-640v40q0 19.152-13.174 32.326T640-554.5H320Zm0 240q-19.152 0-32.326-13.174T274.5-360v-40q0-19.152 13.174-32.326T320-445.5h320q19.152 0 32.326 13.174T685.5-400v40q0 19.152-13.174 32.326T640-314.5H320Z"/></svg>