<svg xmlns="http://www.w3.org/2000/svg" height="24" viewBox="0 -960 960 960" width="24"><path d="M479.761-71.87q-84.56 0-158.932-32.097-74.373-32.098-129.568-87.294-55.196-55.195-87.294-129.65-32.098-74.455-32.098-159.109 0-84.654 32.098-159.089t87.294-129.63q55.195-55.196 129.65-87.294 74.455-32.098 159.109-32.098 84.654 0 159.089 32.098t129.63 87.294q55.196 55.195 87.294 129.568 32.098 74.372 32.098 158.932v58q0 60.59-42.413 103.208-42.414 42.618-103.566 42.618-35.776 0-67.464-15.239Q643-306.891 622-335.848q-28.043 29.957-64.783 44.696-36.739 14.739-77.217 14.739-84.674 0-144.13-59.457-59.457-59.456-59.457-144.13 0-84.674 59.457-144.13 59.456-59.457 144.13-59.457 84.674 0 144.13 59.457 59.457 59.456 59.457 144.13v55.848q0 25.398 16.761 42.982 16.761 17.583 42.038 17.583 25.277 0 41.804-17.583 16.527-17.584 16.527-42.982v-56.087q0-134-93.358-227.239Q614-800.717 480-800.717t-227.359 93.358Q159.283-614 159.283-480t93.239 227.359q93.239 93.358 227.239 93.358h156.652q18.524 0 31.056 12.532Q680-134.22 680-115.696q0 18.435-12.531 31.13-12.532 12.697-31.056 12.697H479.761Zm.281-291.717q48.523 0 82.447-33.966t33.924-82.489q0-48.523-33.966-82.447t-82.489-33.924q-48.523 0-82.447 33.966t-33.924 82.489q0 48.523 33.966 82.447t82.489 33.924Z"/></svg>