<svg xmlns="http://www.w3.org/2000/svg" height="24" viewBox="0 -960 960 960" width="24"><path d="M434.5-866.783v-70.435q0-19.152 13.174-32.326T480-982.718q19.152 0 32.326 13.174t13.174 32.326v70.435q0 19.152-13.174 32.326T480-821.283q-19.152 0-32.326-13.174T434.5-866.783Zm-213.37 81.391-56.065-56.065q-13.674-13.594-13.674-32.286t13.674-32.366q13.674-13.674 32.022-13.674t32.109 13.674l56.586 56.826q13.674 13.696 13.674 31.957 0 18.26-13.674 31.934-13.673 13.674-32.366 13.674-18.692 0-32.286-13.674ZM111.869-385.761q0-7.956 1.12-15.674 1.12-7.717 3.598-14.674l79.761-226.521q6.956-20.631 24.532-33.066 17.576-12.435 39.12-12.435h98.087v-38.087q0-19.152 13.174-32.326t32.326-13.174h49.283q15.612 0 22.86 13.294 7.248 13.293-.947 26.728-12.479 23.478-20.457 51.848-7.978 28.37-10.456 56.087-1.24 10.957-8.598 18.555-7.359 7.597-18.315 8.076H276.152l-53.978 145.651h288.065q18.674 0 31.489 12.816 12.815 12.815 12.815 31.489t-12.815 31.489q-12.815 12.815-31.489 12.815H202.87v160h554.26v-77.608q0-19.152 13.174-32.326t32.326-13.174q19.153 0 32.327 13.174t13.174 32.326v184.304q0 26.794-18.756 45.55Q810.62-31.87 783.826-31.87q-26.674 0-45.609-18.935-18.934-18.935-18.934-45.609v-15.456H240.717v15.695q0 26.794-18.755 45.55-18.756 18.755-45.549 18.755-26.674 0-45.609-18.935-18.935-18.935-18.935-45.609v-289.348ZM362.87-242.87q17 0 28.5-11.5t11.5-28.5q0-17-11.5-28.5t-28.5-11.5h-80q-17 0-28.5 11.5t-11.5 28.5q0 17 11.5 28.5t28.5 11.5h80Zm234.26 0h80q17 0 28.5-11.5t11.5-28.5q0-17-11.5-28.5t-28.5-11.5h-80q-17 0-28.5 11.5t-11.5 28.5q0 17 11.5 28.5t28.5 11.5Zm-394.26-120v160-160Zm491-233.804-19.196-19.196q-9.239-9.239-21.717-8.858-12.479.38-21.718 9.619Q622-605.87 622-593.435q0 12.435 9.239 21.761l30.326 30.326q13.761 13.674 32.109 13.674 18.348 0 32.022-13.674l88.087-87.326q9.239-9.261 9.239-21.609 0-12.347-9.239-21.587-9.239-9.239-21.598-8.858-12.359.38-21.598 8.858l-76.717 75.196Zm28.76-206.196q83 0 141.5 58.5t58.5 141.5q0 83-58.5 141.5t-141.5 58.5q-83 0-141.5-58.5t-58.5-141.5q0-83 58.5-141.5t141.5-58.5Z"/></svg>