<svg xmlns="http://www.w3.org/2000/svg" height="24" viewBox="0 -960 960 960" width="24"><path d="M123.587-191.869q-37.783 0-64.391-26.609-26.61-26.609-26.61-64.392v-394.26q0-37.783 26.61-64.392 26.608-26.609 64.391-26.609h394.261q37.782 0 64.391 26.609 26.609 26.609 26.609 64.392v394.26q0 37.783-26.609 64.392-26.609 26.609-64.391 26.609H123.587Zm0-91.001h394.261v-394.26H123.587v394.26ZM300.717-400 260-453.957q-5.761-7.521-15.283-7.141-9.521.381-15.282 7.902l-46.913 62.87q-7.522 9.522-1.5 19.924Q187.043-360 198.565-360H442.87q11.521 0 17.043-10.402 5.522-10.402-2-19.924l-66.152-89.631q-5.669-7.521-15.117-7.521t-15.209 7.521L300.717-400Zm425.501 208.131q-17.814 0-29.864-12.05t-12.05-29.863v-492.436q0-17.813 12.05-29.863t29.864-12.05q17.813 0 29.863 12.05t12.05 29.863v492.436q0 17.813-12.05 29.863t-29.863 12.05Zm159.282 0q-17.813 0-29.863-12.05t-12.05-29.863v-492.436q0-17.813 12.05-29.863t29.863-12.05q17.813 0 29.863 12.05t12.05 29.863v492.436q0 17.813-12.05 29.863t-29.863 12.05ZM123.587-282.87v-394.26 394.26Z"/></svg>