<svg xmlns="http://www.w3.org/2000/svg" height="24" viewBox="0 -960 960 960" width="24"><path d="M480-32.587q-92.554 0-174.429-35.098-81.875-35.097-142.359-95.581-60.484-60.483-95.555-142.314-35.07-81.83-35.07-174.334 0-93.521 35.098-174.956 35.097-81.434 95.563-141.918 60.465-60.484 142.272-95.555 81.806-35.07 174.363-35.07 93.575 0 174.944 35.09 81.369 35.091 141.887 95.609 60.518 60.518 95.609 141.887 35.09 81.369 35.09 174.944 0 92.557-35.081 174.381T796.748-163.2q-60.502 60.479-141.85 95.546Q573.55-32.587 480-32.587ZM480-480Zm-25 311q10 10 23 10t23-10l288-288q10-10 10-24t-10-24L501-793q-10-10-23-10t-23 10L167-505q-10 10-10 24t10 24l288 288Zm-56-312v80q0 17-11.5 28.5T359-361q-17 0-28.5-11.5T319-401v-120q0-18 11-29t29-11h166l-15-16q-11-12-11-28t12-28q11-11 28-11t28 11l79.935 79.935q13.674 13.761 13.674 32.108 0 18.348-13.674 32.022L567-409q-11 11-28 11t-29-12q-11-11-11-27t11-28l15-16H399Zm81 357.413q149.326 0 252.87-103.543Q836.413-330.674 836.413-480q0-149.326-103.543-252.87Q629.326-836.413 480-836.413q-149.326 0-252.87 103.543Q123.587-629.326 123.587-480q0 149.326 103.543 252.87Q330.674-123.587 480-123.587Z"/></svg>