<svg xmlns="http://www.w3.org/2000/svg" height="24" viewBox="0 -960 960 960" width="24"><path d="M480-71.87q-84.913 0-159.345-32.117-74.432-32.118-129.491-87.177-55.059-55.059-87.177-129.491Q71.869-395.087 71.869-480t32.118-159.345q32.118-74.432 87.177-129.491 55.059-55.059 129.491-87.177Q395.087-888.131 480-888.131t159.345 32.118q74.432 32.118 129.491 87.177 55.059 55.059 87.177 129.491Q888.131-564.913 888.131-480t-32.118 159.345q-32.118 74.432-87.177 129.491-55.059 55.059-129.491 87.177Q564.913-71.869 480-71.869Zm0-91q133.043 0 225.087-92.043Q797.13-346.957 797.13-480t-92.043-225.087Q613.043-797.13 480-797.13t-225.087 92.043Q162.87-613.043 162.87-480t92.043 225.087Q346.957-162.87 480-162.87ZM480-480ZM342.739-286.152l127.065-56.152q5.598-2.239 10.636-2.239 5.038 0 10.517 2.239l126.304 56.152q15.435 6.717 27.63-4.978 12.196-11.696 5.718-27.37L503.152-677.087q-6.478-15.435-23.152-15.435t-23.152 15.435L309.391-318.5q-6.478 15.674 5.718 27.37 12.195 11.695 27.63 4.978Z"/></svg>