<svg xmlns="http://www.w3.org/2000/svg" height="24" viewBox="0 -960 960 960" width="24"><path d="M192.587-321.196v-192.586q0-18.435 12.695-31.011 12.696-12.577 31.131-12.577 18.435 0 31.011 12.577Q280-532.217 280-513.782v192.825q0 18.435-12.576 31.011t-31.011 12.576q-18.435 0-31.131-12.695-12.695-12.696-12.695-31.131Zm243.826.239v-192.825q0-18.435 12.576-31.011Q461.565-557.37 480-557.37t31.011 12.577q12.576 12.576 12.576 31.011v192.825q0 18.435-12.576 31.011T480-277.37q-18.435 0-31.011-12.576t-12.576-31.011Zm405.261-309.238H113.609q-17.392 0-29.566-12.174T71.87-671.935v-25.826q0-12.435 6.337-21.989t16.772-15.272l344.239-172q19.153-9.435 40.783-9.435 21.63 0 40.783 9.435l341.761 170.761q12.434 5.717 19.011 17.272 6.576 11.554 6.576 24.706v17.392q0 19.63-13.413 33.163-13.414 13.533-33.044 13.533Zm-570.478-91.001h417.608L480-824.978 271.196-721.196ZM117.37-113.782q-19.153 0-32.327-13.174T71.87-159.283q0-19.152 13.174-32.326t32.327-13.174h395.782q19.152 0 32.326 13.174t13.174 32.326q0 19.153-13.174 32.327t-32.326 13.174H117.37ZM723.587-447.37q-18.435 0-31.011-12.336Q680-472.043 680-490.478v-22.826q0-18.435 12.576-31.25 12.576-12.816 31.011-12.816 18.674 0 31.25 12.816 12.576 12.815 12.337 31.25v22.826q.239 18.195-12.456 30.652-12.696 12.456-31.131 12.456ZM637.13-218.478v-75.326q0-12.674 6.457-23.87 6.456-11.196 18.652-16.913l117.37-58.804q9.434-5.479 20.391-5.479 10.957 0 20.391 5.479l117.37 58.804q12.196 5.717 18.652 16.913 6.457 11.196 6.457 23.87v75.326q0 75-39.12 130.935Q884.63-31.61 817.152-3.37 814.913-2.37 800 .11q-2.717 0-17.152-3.479Q715.37-31.609 676.25-87.543q-39.12-55.935-39.12-130.935ZM770.761-205l-20.87-20.87q-9-9-21-8.5t-21 9.5q-9 9-9 21.12 0 12.12 9 21.12l31.044 31.043q13.674 13.674 31.945 13.554 18.272-.119 31.946-13.554l87.848-87.326q9-9 9-21.12 0-12.119-9-21.119t-21-8.62q-12 .381-21 8.62L770.761-205ZM271.196-721.196h417.608-417.608Z"/></svg>