<svg xmlns="http://www.w3.org/2000/svg" height="24" viewBox="0 -960 960 960" width="24"><path d="M408.543-538.087h-54.5q-13.829 0-22.871-9.042-9.042-9.042-9.042-22.871 0-13.829 9.042-22.871 9.042-9.042 22.871-9.042H526.63q13.829 0 22.871 9.042 9.042 9.042 9.042 22.871 0 13.829-9.042 22.871-9.042 9.042-22.871 9.042h-54.5v148.326q0 13.726-8.972 22.7-8.973 8.974-22.696 8.974t-22.821-9.042q-9.098-9.042-9.098-22.871v-148.087Zm-270.456 120v28.326q0 13.726-8.973 22.7-8.973 8.974-22.695 8.974-13.723 0-22.821-9.042T74.5-390v-170q0-17.813 12.05-29.863t29.863-12.05h120q17.711 0 29.693 12.05 11.981 12.05 11.981 29.863v170.239q0 13.726-8.973 22.7-8.973 8.974-22.695 8.974-13.723 0-22.821-9.042T214.5-390v-28.087h-76.413Zm0-63.826H214.5v-56.174h-76.413v56.174ZM674.5-538.087v148.326q0 13.726-8.973 22.7-8.973 8.974-22.696 8.974-13.722 0-22.82-9.042T610.913-390v-170q0-17.813 11.981-29.863t29.693-12.05h191q17.813 0 29.863 12.05T885.5-560v170.239q0 13.726-8.973 22.7-8.972 8.974-22.695 8.974t-22.821-9.042q-9.098-9.042-9.098-22.871v-148.087H780v108.326q0 13.726-8.973 22.7-8.972 8.974-22.695 8.974t-22.821-9.042q-9.098-9.042-9.098-22.871v-108.087H674.5Z"/></svg>