<svg xmlns="http://www.w3.org/2000/svg" height="24" viewBox="0 -960 960 960" width="24"><path d="m295.52-700.3-63.41-29.35q-11.28-5-11.28-17.05 0-12.04 11.28-17.04l63.41-29.11 29.35-63.65q5-11.28 17.04-11.28 12.05 0 17.05 11.28l29.34 63.65 63.66 29.11q11.28 5 11.28 17.04 0 12.05-11.28 17.05L388.3-700.3l-29.34 63.65q-5 11.28-17.05 11.28-12.04 0-17.04-11.28l-29.35-63.65Zm264.57 135.43-50.66-23.83q-10.52-5-10.52-17.04t10.52-17.04l50.66-23.59 23.82-50.89q5-10.52 17.05-10.52 12.04 0 17.04 10.52l23.59 50.89 50.89 23.59q10.52 5 10.52 17.04t-10.52 17.04l-50.89 23.83L618-514.22q-5 10.52-17.04 10.52-12.05 0-17.05-10.52l-23.82-50.65ZM120.57-483.2l-50.9-23.58q-10.52-5-10.52-17.05 0-12.04 10.52-17.04l50.9-23.83 23.58-50.65q5-10.52 17.05-10.52 12.04 0 17.04 10.52l23.83 50.65 50.65 23.83q10.52 5 10.52 17.04 0 12.05-10.52 17.05l-50.65 23.58-23.83 50.9q-5 10.52-17.04 10.52-12.05 0-17.05-10.52l-23.58-50.9Zm25.13 254.16 209.17-209.18q26.35-26.35 64.65-26.35 38.31 0 64.65 26.35l95.11 94.87 252.18-283.69q12.67-14.68 32.32-15.04 19.65-.35 33.57 13.56 12.67 12.67 13.29 30.44.62 17.78-11.81 31.45l-254.94 287.7q-26.11 29.58-65.13 30.58-39.02 1-67.13-27.11l-92.11-92.1-206.17 206.17q-14.44 14.43-33.83 14.43t-33.82-14.43q-14.44-14.44-14.44-33.83t14.44-33.82Z"/></svg>