<svg xmlns="http://www.w3.org/2000/svg" height="24" viewBox="0 -960 960 960" width="24"><path d="M110.43-202.87v-554.26q0-37.78 26.61-64.39t64.39-26.61h288.14q17 0 28.5 11.5t11.5 28.5h80q37.78 0 64.39 26.61t26.61 64.39v194.02q0 19.15-13.18 32.33-13.17 13.17-32.32 13.17-19.16 0-32.33-13.17-13.17-13.18-13.17-32.33v-194.02h-80v559.76q0 19.15-13.18 32.33-13.17 13.17-32.32 13.17H80.72q-19.15 0-32.33-13.17-13.17-13.18-13.17-33.05 0-19.03 12.87-31.9Q60.97-202.87 80-202.87h30.43Zm248.14-235.22q17.81 0 29.86-12.05T400.48-480q0-17.81-12.05-29.86t-29.86-12.05q-17.82 0-29.87 12.05T316.65-480q0 17.81 12.05 29.86t29.87 12.05ZM201.43-202.87h237.14v-554.26H201.43v554.26Zm516.94 12.15 32 70.24q5 11.28 17.04 11.28 12.05 0 17.05-11.28l32.24-70.24 70.23-32.24q11.29-5 11.29-17.04t-11.29-17.04l-70.23-32.24-32.24-70.24q-5-11.28-17.05-11.28-12.04 0-17.04 11.28l-32 70.24-70.48 32.24q-11.28 5-11.28 17.04t11.28 17.04l70.48 32.24Zm-516.94-12.15v-554.26 554.26Z"/></svg>