<svg xmlns="http://www.w3.org/2000/svg" height="24" viewBox="0 -960 960 960" width="24"><path d="m758.41-755.3-66.78-31.16q-6.72-3.47-6.72-10.19 0-6.72 6.72-10.2L758.41-838l30.92-66.78q3.47-6.72 10.19-6.72 6.72 0 10.2 6.72L840.87-838l66.78 31.15q6.72 3.48 6.72 10.2 0 6.72-6.72 10.19l-66.78 31.16-31.15 66.54q-3.48 6.72-10.2 6.72-6.72 0-10.19-6.72l-30.92-66.54Zm-477.93 0-66.78-31.16q-6.72-3.47-6.72-10.19 0-6.72 6.72-10.2L280.48-838l30.91-66.78q3.48-6.72 10.2-6.72 6.71 0 10.19 6.72L362.93-838l66.79 31.15q6.71 3.48 6.71 10.2 0 6.72-6.71 10.19l-66.79 31.16-31.15 66.54q-3.48 6.72-10.19 6.72-6.72 0-10.2-6.72l-30.91-66.54Zm477.93 478.17-66.78-31.15q-6.72-3.48-6.72-10.2 0-6.72 6.72-10.19l66.78-30.92 30.92-66.78q3.47-6.72 10.19-6.72 6.72 0 10.2 6.72l31.15 66.78 66.78 30.92q6.72 3.47 6.72 10.19 0 6.72-6.72 10.2l-66.78 31.15-31.15 66.78q-3.48 6.72-10.2 6.72-6.72 0-10.19-6.72l-30.92-66.78ZM203.76-80.04 83.63-200.41q-13.67-13.68-13.67-32.83t13.67-32.83L530.35-712.3q13.43-13.44 32.58-13.44 19.16 0 32.59 13.44l120.61 119.89q13.67 13.67 13.67 32.94 0 19.27-13.67 32.95L269.41-79.56q-13.43 13.43-32.82 13.19-19.39-.24-32.83-13.67ZM237.35-176l282.17-283.93-56.24-56.48L179.35-234l58 58Z"/></svg>