<svg xmlns="http://www.w3.org/2000/svg" height="24" viewBox="0 -960 960 960" width="24"><path d="m370.761-430.717 32 70.239q5 11.282 17.043 11.282 12.044 0 17.044-11.282l32.239-70.239 70.239-32.24q11.283-5 11.283-17.043t-11.283-17.043l-70.239-32.24-32.239-70.239q-5-11.282-17.044-11.282-12.043 0-17.043 11.282l-32 70.239-70.478 32.24Q289-492.043 289-480t11.283 17.043l70.478 32.24ZM202.87-191.869q-37.538 0-64.269-26.732-26.732-26.731-26.732-64.269v-394.26q0-37.538 26.732-64.269 26.731-26.732 64.269-26.732h393.782q22.391 0 42.166 10.076 19.774 10.077 32.204 27.99l139.565 197.608q16.913 23.971 16.913 52.508 0 28.536-16.913 52.406L671.022-229.935q-12.435 18.153-32.207 28.109-19.772 9.957-42.163 9.957H202.87Zm0-91.001h393.823L736.5-480 596.693-677.13H202.87v394.26Zm0 0v-394.26 394.26Z"/></svg>