<svg xmlns="http://www.w3.org/2000/svg" height="24" viewBox="0 -960 960 960" width="24"><path d="M162.87-151.87q-37.78 0-64.39-26.61t-26.61-64.39v-474.26q0-37.78 26.61-64.39t64.39-26.61h474.26q37.78 0 64.39 26.61t26.61 64.39V-540l121.22-121.22q11.19-11.19 24.99-5.48 13.79 5.72 13.79 21.4v330.6q0 15.68-13.79 21.4-13.8 5.71-24.99-5.48L728.13-420v177.13q0 37.78-26.61 64.39t-64.39 26.61H162.87Zm0-91h474.26v-474.26H162.87v474.26Zm0 0v-474.26 474.26Zm188.09-188.09 31.76 70.24q5 11.29 17.16 11.29t17.16-11.29l32.15-70.16 70.33-32.08q11.28-5 11.28-17.16t-11.28-17.16l-70.24-32.24-32.24-70q-5-11.28-17.16-11.28t-17.16 11.28l-31.76 70-70.48 32.24q-11.28 5-11.28 17.16t11.28 17.16l70.48 32Z"/></svg>