<svg xmlns="http://www.w3.org/2000/svg" height="24" viewBox="0 -960 960 960" width="24"><path d="M277.37-717.37v514.5-514.5Zm0 605.501q-37.783 0-64.392-26.609-26.609-26.609-26.609-64.392v-514.5h-1.119q-19.033 0-31.707-13.173-12.674-13.174-12.674-32.327 0-19.152 13.174-32.326t32.326-13.174H354.5q0-19.152 13.174-32.326T400-853.87h159.522q19.152 0 32.326 13.174t13.174 32.326h168.37q19.152 0 32.326 13.174t13.174 32.326q0 19.153-13.174 32.327-13.174 13.173-32.326 13.173v133.305q0 19.152-13.174 32.326t-32.327 13.174q-19.152 0-32.326-13.174t-13.174-32.326V-717.37H277.37v514.5h103.652q19.152 0 32.326 13.174t13.174 32.392q0 18.087-12.935 31.761t-32.565 13.674H277.37ZM398.326-640q-17.956 0-30.413 12.337t-12.457 30.293v258q0 17.957 12.457 30.294 12.457 12.336 30.413 12.336 17.957 0 30.294-12.456 12.337-12.457 12.337-30.413V-597.37q0-17.956-12.337-30.293T398.326-640Zm163.348 0q-17.957 0-30.413 12.337-12.457 12.337-12.457 30.293v46.609q0 17.956 12.457 30.293 12.456 12.337 30.413 12.337 17.956 0 30.293-12.456 12.337-12.457 12.337-30.413v-46.37q0-17.956-12.337-30.293T561.674-640ZM680.717-76.891q-84.195 0-143.293-59.098-59.098-59.098-59.098-143.294 0-84.195 59.098-143.413 59.098-59.217 143.378-59.217 41.633 0 78.492 16.119 36.858 16.12 64.336 43.598 27.479 27.479 43.598 64.337 16.12 36.859 16.12 78.492 0 84.28-59.27 143.378-59.269 59.098-143.361 59.098Zm21.674-211.21v-91.421q0-8.669-6.512-15.171-6.512-6.503-15.196-6.503-8.683 0-15.281 6.503-6.598 6.502-6.598 15.171v89.805q0 9.195 3.359 17.549t10.076 15.038l59.283 59.282q6.478 6.478 15.195 6.359 8.718-.12 15.196-6.632 6.478-6.513 6.478-15.196t-6.478-15.161l-59.522-59.623Z"/></svg>