<svg xmlns="http://www.w3.org/2000/svg" height="24" viewBox="0 -960 960 960" width="24"><path d="M472.783-105.848q-21.631 21.63-49.598 9.77-27.968-11.859-27.968-42.357v-256.782H138.435q-30.498 0-42.358-27.968-11.86-27.967 9.771-49.598L411.5-778.435q12.674-12.674 29.177-19.511 16.504-6.837 34.714-6.837h238.391q37.783 0 64.392 26.609 26.609 26.609 26.609 64.392v238.391q0 18.21-6.837 34.714-6.837 16.503-19.511 29.177L472.783-105.848Zm171.521-492.956v196.239l71.87-71.87v-241.739H474.435l-71.87 71.87h196.239q19.153 0 32.326 13.174 13.174 13.173 13.174 32.326ZM483.826-438.326v196.239l71.87-71.87v-241.739H313.957l-71.87 71.87h196.239q19.152 0 32.326 13.174t13.174 32.326Z"/></svg>