<svg xmlns="http://www.w3.org/2000/svg" height="24" viewBox="0 -960 960 960" width="24"><path d="M213.782-637.609q-18.673 0-31.489-12.815-12.815-12.815-12.815-31.489t12.815-31.489q12.816-12.816 31.489-12.816 18.674 0 31.49 12.816 12.815 12.815 12.815 31.489t-12.815 31.489q-12.816 12.815-31.49 12.815ZM400-75.217q-68.152 0-116.467-48.316Q235.217-171.848 235.217-240v-240q0-102.152 71.316-173.467Q377.848-724.783 480-724.783h73q70.913 0 121.348 47.935T724.783-559q0 47.435-25.337 87.011-25.337 39.576-68.533 60.293-30.565 14.522-48.348 42.826-17.782 28.305-17.782 61.87v67q0 68.913-47.935 116.848T400-75.217Zm-85.5-649.566q-18.674 0-31.489-12.815-12.816-12.815-12.816-31.489v-20q0-18.674 12.816-31.489 12.815-12.816 31.489-12.816t31.489 12.816q12.815 12.815 12.815 31.489v20q0 18.674-12.815 31.489-12.815 12.815-31.489 12.815ZM400-166.218q30.609 0 52.196-21.586 21.586-21.587 21.586-52.196v-67q0-59.913 31.457-110.228 31.457-50.316 86.131-76.272 19.326-9.283 30.869-27.228 11.543-17.946 11.543-39.272 0-32.13-24.206-52.956T553-633.782h-73q-63.609 0-108.696 45.086Q326.218-543.609 326.218-480v240q0 30.609 21.586 52.196 21.587 21.586 52.196 21.586Zm40.717-598.565q-18.674 0-31.489-12.815-12.815-12.815-12.815-31.489v-20q0-18.674 12.815-31.489 12.815-12.816 31.489-12.816t31.49 12.816q12.815 12.815 12.815 31.489v20q0 18.674-12.815 31.489-12.816 12.815-31.49 12.815Zm126.218 0q-18.674 0-31.489-12.815-12.816-12.815-12.816-31.489v-40q0-18.674 12.816-31.489 12.815-12.816 31.489-12.816t31.489 12.816q12.815 12.815 12.815 31.489v40q0 18.674-12.815 31.489-12.815 12.815-31.489 12.815ZM713.152-720q-26.673 0-45.489-18.815-18.815-18.815-18.815-45.489v-44.783q0-26.674 18.815-45.489 18.816-18.816 45.489-18.816 26.674 0 45.49 18.816 18.815 18.815 18.815 45.489v44.783q0 26.674-18.815 45.489Q739.826-720 713.152-720Z"/></svg>