<svg xmlns="http://www.w3.org/2000/svg" height="24" viewBox="0 -960 960 960" width="24"><path d="M307.413-336.413h345.174V-310q0 14.554 9.695 24.071 9.696 9.516 24.131 9.516t24.011-9.696q9.576-9.695 9.576-24.13v-135.855q0-29.968-16.5-53.443Q687-523.012 660-534v-66q0-34.674-24.457-59.13-24.456-24.457-59.13-24.457H383.587q-34.674 0-59.13 24.457Q300-634.674 300-600v66q-27 11-43.5 34.5T240-446v136q0 14.554 9.696 24.071 9.695 9.516 24.13 9.516 14.435 0 24.011-9.696 9.576-9.695 9.576-24.13v-26.174Zm0-67.174V-446q0-14 10-24t24-10h277.174q14 0 24 10t10 24v42.413H307.413Zm60-136.413v-76.413h225.174V-540H367.413ZM162.87-71.87q-37.783 0-64.392-26.608Q71.87-125.087 71.87-162.87v-634.26q0-37.783 26.61-64.392 26.608-26.609 64.391-26.609h634.26q37.783 0 64.392 26.609 26.609 26.609 26.609 64.392v634.26q0 37.783-26.609 64.392Q834.913-71.87 797.13-71.87H162.87Zm0-91h634.26v-634.26H162.87v634.26Zm0 0v-634.26 634.26Z"/></svg>