<svg xmlns="http://www.w3.org/2000/svg" height="24" viewBox="0 -960 960 960" width="24"><path d="M730.152-111.869H202.87q-37.783 0-64.392-26.609-26.609-26.609-26.609-64.392v-527.282l-74.087-74.326q-12.478-12.574-12.478-29.863t12.479-29.768q12.478-12.478 29.815-12.358 17.337.119 29.815 12.597L863.87-97.413q12.478 12.478 12.478 29.435 0 16.956-12.504 29.435-12.503 12.478-29.695 12.478t-29.671-12.478l-74.326-73.326ZM360.717-439.848 202.87-282v79.13h436.282l-98.304-98.543q-11.522 6.804-24.446 5.565-12.924-1.239-23.206-11.522L360.717-439.848ZM202.87-639.152v238.13l119.065-119.065L202.87-639.152ZM848.131-757.13v432.826q0 22.75-14.185 34.125t-31.207 11.375q-17.022 0-31.315-11.696-14.294-11.696-14.294-34.565v-218.717l-76.739 86.26q-11.717 13.479-29.934 14.098-18.218.62-30.696-11.859-11.718-11.717-12.598-28.434-.88-16.718 10.598-29.196l139.369-156.37v-87.847H324.065q-22.75 0-34.125-14.24-11.375-14.239-11.375-31.326t11.375-31.261q11.375-14.174 34.125-14.174H757.13q37.783 0 64.392 26.609 26.609 26.609 26.609 64.392ZM432.37-409.891ZM321.935-520.087Zm38.782 80.239Zm176.805-97.674Z"/></svg>