<svg xmlns="http://www.w3.org/2000/svg" height="24" viewBox="0 -960 960 960" width="24"><path d="M149.239-200.239v-559.522q0-37.783 26.609-64.391 26.608-26.609 64.391-26.609h479.522q37.783 0 64.391 26.609 26.609 26.608 26.609 64.391v559.522h34.5q19.152 0 32.326 13.174t13.174 32.326q0 19.152-13.174 32.326t-32.326 13.174H114.739q-19.152 0-32.326-13.174t-13.174-32.326q0-19.152 13.174-32.326t32.326-13.174h34.5Zm91-484.305h318.087v-75.217H240.239v75.217Zm0 161.435h318.087v-75.217H240.239v75.217Zm0 322.87h479.522v-236.652h-75.217v69.174q13.282 10.239 20.923 25 7.642 14.76 7.642 31.76 0 29.991-20.62 51.191-20.619 21.201-51.054 21.201-30.435 0-51.772-21.233-21.337-21.232-21.337-51.268 0-17.608 8-32.967 8-15.358 22-25.597v-67.261H240.239v236.652Zm404.305-484.305h75.217v-75.217h-75.217v75.217Zm0 161.435h75.217v-75.217h-75.217v75.217Z"/></svg>