<svg xmlns="http://www.w3.org/2000/svg" height="24" viewBox="0 -960 960 960" width="24"><path d="M480-595.935q-19.152 0-32.326-13.174T434.5-641.435q0-19.152 13.174-32.326T480-686.935q19.152 0 32.326 13.174t13.174 32.326q0 19.152-13.174 32.326T480-595.935ZM318.804-434.5q-19.152 0-32.326-13.174T273.304-480q0-19.152 13.174-32.326t32.326-13.174q19.153 0 32.326 13.174 13.174 13.174 13.174 32.326t-13.174 32.326Q337.957-434.5 318.804-434.5Zm161.196 0q-19.152 0-32.326-13.174T434.5-480q0-19.152 13.174-32.326T480-525.5q19.152 0 32.326 13.174T525.5-480q0 19.152-13.174 32.326T480-434.5Zm161.435 0q-19.152 0-32.326-13.174T595.935-480q0-19.152 13.174-32.326t32.326-13.174q19.152 0 32.326 13.174T686.935-480q0 19.152-13.174 32.326T641.435-434.5ZM480-273.304q-19.152 0-32.326-13.174T434.5-318.804q0-19.153 13.174-32.326 13.174-13.174 32.326-13.174t32.326 13.174q13.174 13.173 13.174 32.326 0 19.152-13.174 32.326T480-273.304ZM157.37-757.13q-19.153 0-32.327-13.174t-13.174-32.326q0-19.153 13.174-32.327t32.327-13.174q19.152 0 32.326 13.174t13.174 32.327q0 19.152-13.174 32.326T157.37-757.13Zm161.434 0q-19.152 0-32.326-13.174t-13.174-32.326q0-19.153 13.174-32.327t32.326-13.174q19.153 0 32.326 13.174 13.174 13.174 13.174 32.327 0 19.152-13.174 32.326-13.173 13.174-32.326 13.174Zm161.196 0q-19.152 0-32.326-13.174T434.5-802.63q0-19.153 13.174-32.327T480-848.131q19.152 0 32.326 13.174T525.5-802.63q0 19.152-13.174 32.326T480-757.13Zm161.435 0q-19.152 0-32.326-13.174t-13.174-32.326q0-19.153 13.174-32.327t32.326-13.174q19.152 0 32.326 13.174t13.174 32.327q0 19.152-13.174 32.326t-32.326 13.174ZM157.37-595.935q-19.153 0-32.327-13.174t-13.174-32.326q0-19.152 13.174-32.326t32.327-13.174q19.152 0 32.326 13.174t13.174 32.326q0 19.152-13.174 32.326t-32.326 13.174Zm0 161.435q-19.153 0-32.327-13.174T111.869-480q0-19.152 13.174-32.326T157.37-525.5q19.152 0 32.326 13.174T202.87-480q0 19.152-13.174 32.326T157.37-434.5Zm0 161.196q-19.153 0-32.327-13.174t-13.174-32.326q0-19.153 13.174-32.326 13.174-13.174 32.327-13.174 19.152 0 32.326 13.174 13.174 13.173 13.174 32.326 0 19.152-13.174 32.326t-32.326 13.174Zm0 161.435q-19.153 0-32.327-13.174t-13.174-32.327q0-19.152 13.174-32.326t32.327-13.174q19.152 0 32.326 13.174t13.174 32.326q0 19.153-13.174 32.327t-32.326 13.174Zm161.434 0q-19.152 0-32.326-13.174t-13.174-32.327q0-19.152 13.174-32.326t32.326-13.174q19.153 0 32.326 13.174 13.174 13.174 13.174 32.326 0 19.153-13.174 32.327-13.173 13.174-32.326 13.174Zm161.196 0q-19.152 0-32.326-13.174T434.5-157.37q0-19.152 13.174-32.326T480-202.87q19.152 0 32.326 13.174T525.5-157.37q0 19.153-13.174 32.327T480-111.869Zm161.435 0q-19.152 0-32.326-13.174t-13.174-32.327q0-19.152 13.174-32.326t32.326-13.174q19.152 0 32.326 13.174t13.174 32.326q0 19.153-13.174 32.327t-32.326 13.174ZM757.13-157.37v-645.26q0-19.153 13.174-32.327t32.326-13.174q19.153 0 32.327 13.174t13.174 32.327v645.26q0 19.153-13.174 32.327t-32.327 13.174q-19.152 0-32.326-13.174T757.13-157.37Z"/></svg>