<svg xmlns="http://www.w3.org/2000/svg" height="24" viewBox="0 -960 960 960" width="24"><path d="M281.435-281.435h120q17 0 28.5-11.5t11.5-28.5q0-17-11.5-28.5t-28.5-11.5h-120q-17 0-28.5 11.5t-11.5 28.5q0 17 11.5 28.5t28.5 11.5Zm0-158.565h120q17 0 28.5-11.5t11.5-28.5q0-17-11.5-28.5t-28.5-11.5h-120q-17 0-28.5 11.5t-11.5 28.5q0 17 11.5 28.5t28.5 11.5Zm397.13-238.565q-17 0-28.5 11.5t-11.5 28.5V-480q0 17 11.5 28.5t28.5 11.5q17 0 28.5-11.5t11.5-28.5v-158.565q0-17-11.5-28.5t-28.5-11.5Zm-397.13 80h120q17 0 28.5-11.5t11.5-28.5q0-17-11.5-28.5t-28.5-11.5h-120q-17 0-28.5 11.5t-11.5 28.5q0 17 11.5 28.5t28.5 11.5ZM162.87-111.869q-37.783 0-64.392-26.609Q71.87-165.087 71.87-202.87v-554.26q0-37.783 26.61-64.392 26.608-26.609 64.391-26.609h634.26q37.783 0 64.392 26.609 26.609 26.609 26.609 64.392v554.26q0 37.783-26.609 64.392-26.609 26.609-64.392 26.609H162.87Zm0-91.001h634.26v-554.26H162.87v554.26Zm0 0v-554.26 554.26Zm515.695-78.565q17 0 28.5-11.5t11.5-28.5q0-17-11.5-28.5t-28.5-11.5q-17 0-28.5 11.5t-11.5 28.5q0 17 11.5 28.5t28.5 11.5Z"/></svg>