<svg xmlns="http://www.w3.org/2000/svg" height="24" viewBox="0 -960 960 960" width="24"><path d="M480-71.87q-84.674 0-159.109-32.097-74.435-32.098-129.63-87.294-55.196-55.195-87.294-129.63T71.869-480q0-84.674 32.098-159.109t87.294-129.63q55.195-55.196 129.63-87.294T480-888.131q7.848 0 16.978.381 9.131.38 16.978 1.141 19.392 1.522 30.544 15.674 11.152 14.152 11.152 34.544 0 18.913-12.793 30.848-12.794 11.934-31.946 10.173-7.848-.76-15.696-.38-7.847.38-15.695.38-25.283 35.761-43.805 74.903-18.521 39.141-30.521 81.663h81.261q16.761 0 28.261 11.38 11.5 11.381 11.5 28.381t-11.381 28.38q-11.38 11.38-28.38 11.38h-99.261q-3 19.761-4.5 39.522t-1.5 39.761q0 20 1.5 39.761 1.5 19.761 4.5 39.522h185.369q3-19.761 4.261-39.522Q578.087-460 578.087-480v-17.804q0-8.522-.761-17.805-1.761-16.239 9.62-28.88 11.38-12.641 27.38-12.641 17 0 29 10.358 12 10.359 13.761 27.359.761 9.283.88 19.707.12 10.423.12 19.706 0 20-1.381 39.641-1.38 19.642-4.141 39.642h134.087q5-19.761 7.5-39.522t2.5-39.761v-14.174q0-6.326-1.522-14.174-1.76-18.391 10.555-33.587Q818-557.13 836.152-557.13q20.631 0 34.663 11.532 14.033 11.533 15.794 31.163.761 7.848 1.141 17.218.381 9.369.381 17.217 0 84.674-32.098 159.109t-87.294 129.63q-55.195 55.196-129.63 87.294T480-71.869ZM172.87-400.716h134.326q-3-19.761-4.5-39.522t-1.5-39.761q0-20 1.5-39.761 1.5-19.761 4.5-39.522H172.87q-5 19.761-7.5 39.522T162.87-480q0 20 2.5 39.761 2.5 19.761 7.5 39.522Zm33.76-238.087h116.566q9-36.522 22.021-71.902 13.022-35.381 31.5-68.664-54.521 17.761-98.043 54.022-43.522 36.261-72.044 86.544Zm498.87 1.674q-28.348 0-48.359-20.011-20.011-20.011-20.011-48.359V-820q0-28.348 20.011-48.239 20.011-19.892 48.359-19.892H820q28.348 0 48.239 19.892 19.892 19.891 19.892 48.239v114.5q0 28.348-19.892 48.359Q848.348-637.13 820-637.13H705.5Zm80-129.088h30.674q9.196 0 15.913-6.837 6.717-6.836 6.717-16.032v-30.435q0-8-5.641-13.641t-13.641-5.641h-30.435q-9.196 0-16.032 6.717-6.837 6.717-6.837 15.913v30.674q0 8 5.641 13.641t13.641 5.641ZM376.717-180.63q-18.478-33.522-31.5-68.783-13.021-35.261-22.021-72.022H206.63q28.522 50.522 71.924 86.783 43.403 36.261 98.163 54.022Zm102.805 16q25.282-36 44.163-75.022 18.88-39.022 30.88-81.783H405.196q11.761 42.522 30.402 81.783 18.641 39.261 43.924 75.022Zm103.043-16q54.761-17.761 98.402-54.022 43.642-36.261 72.163-86.783H636.565q-9 36.761-22.261 72.022t-31.739 68.783Z"/></svg>