<svg xmlns="http://www.w3.org/2000/svg" height="24" viewBox="0 -960 960 960" width="24"><path d="M32.587-233.782v-492.436q0-17.813 12.05-29.863t29.863-12.05q17.813 0 29.863 12.05t12.05 29.863v492.436q0 17.813-12.05 29.863T74.5-191.869q-17.813 0-29.863-12.05t-12.05-29.863Zm159.282 0v-492.436q0-17.813 12.05-29.863t29.863-12.05q17.814 0 29.864 12.05t12.05 29.863v492.436q0 17.813-12.05 29.863t-29.864 12.05q-17.813 0-29.863-12.05t-12.05-29.863Zm250.283 41.913q-37.782 0-64.391-26.609-26.609-26.609-26.609-64.392v-394.26q0-37.783 26.609-64.392 26.609-26.609 64.391-26.609h394.261q37.783 0 64.391 26.609 26.609 26.609 26.609 64.392v394.26q0 37.783-26.609 64.392-26.608 26.609-64.391 26.609H442.152Zm0-91.001h394.261v-394.26H442.152v394.26ZM619.283-400l-40.718-53.957q-5.761-7.521-15.282-7.141-9.522.381-15.283 7.902l-46.913 62.87q-7.522 9.522-1.5 19.924T517.13-360h244.305q11.522 0 17.043-10.402 5.522-10.402-2-19.924l-66.152-89.631q-5.669-7.521-15.117-7.521T680-479.957L619.283-400ZM442.152-282.87v-394.26 394.26Z"/></svg>