<svg xmlns="http://www.w3.org/2000/svg" height="24" viewBox="0 -960 960 960" width="24"><path d="M481.522-154.261q-135.435 0-231.229-94.195Q154.5-342.652 154.5-477.37v-7.239l-31.217 31.218q-11.718 11.717-29.196 11.597-17.478-.119-29.196-11.836-11.717-11.718-11.717-29.196t11.717-29.196l103.044-103.282q13.674-13.674 32.065-13.674t32.065 13.674l103.044 103.282q11.717 11.718 11.717 29.196t-11.717 29.196q-11.718 11.717-29.315 11.717-17.598 0-29.316-11.717L245.5-484.609v6.522q0 96.891 68.826 164.859 68.826 67.967 167.196 67.967 15.521 0 30.304-1.88 14.783-1.881 29.304-6.403 19.153-5.478 36.664.761 17.51 6.239 26.706 23.153 9.435 17.673 2.576 35.445-6.858 17.772-25.532 23.729-24.196 8.478-49.392 12.337-25.195 3.858-50.63 3.858Zm-3.044-560q-15.521 0-30.304 1.881-14.783 1.88-29.304 6.402-19.153 5.478-37.044-.761t-27.087-23.152q-9.435-16.913-2.576-34.685 6.859-17.772 24.772-23.728 24.956-8.479 50.152-12.718 25.196-4.239 51.391-4.239 135.435 0 231.348 94.196 95.913 94.195 95.913 228.913v7.239l30.978-30.978q11.718-11.718 29.196-11.718t29.196 11.718q11.717 11.717 11.717 29.315t-11.717 29.315L792.065-344.217q-13.674 13.674-31.945 13.554-18.272-.119-31.946-13.554L625.13-447.5q-11.717-11.717-11.717-29.315t11.717-29.315q11.718-11.718 29.316-11.718 17.597 0 29.315 11.718l30.978 31.217v-6.522q0-96.891-68.946-164.858-68.945-67.968-167.315-67.968Z"/></svg>