<svg xmlns="http://www.w3.org/2000/svg" height="24" viewBox="0 -960 960 960" width="24"><path d="M316.413-680q-51.435 0-87.631-36.034-36.195-36.034-36.195-87.511t36.195-87.673q36.196-36.195 87.631-36.195 38.545 0 69.99 22.261 31.445 22.261 46.162 57.739h291.261q18.525 0 31.056 12.531 12.531 12.531 12.531 31.056 0 17.674-14.858 26.565-14.859 8.891-28.729 17.261h-.239v36.413q0 18.524-12.531 31.056Q698.524-680 680-680t-31.056-12.531q-12.531-12.532-12.531-31.056V-760H432.565q-14.717 35.478-46.162 57.739Q354.958-680 316.413-680Zm0-83.587q17 0 28.5-11.5t11.5-28.5q0-17-11.5-28.5t-28.5-11.5q-17 0-28.5 11.5t-11.5 28.5q0 17 11.5 28.5t28.5 11.5ZM360-256.413q17 0 28.5-11.5t11.5-28.5q0-17-11.5-28.5t-28.5-11.5q-17 0-28.5 11.5t-11.5 28.5q0 17 11.5 28.5t28.5 11.5Zm240 0q17 0 28.5-11.5t11.5-28.5q0-17-11.5-28.5t-28.5-11.5q-17 0-28.5 11.5t-11.5 28.5q0 17 11.5 28.5t28.5 11.5ZM287.413-149v32.587q0 19.87-13.772 33.641Q259.87-69 240-69q-19.87 0-33.641-13.772-13.772-13.771-13.772-33.641v-242.043q0-7.921 1.239-15.276 1.239-7.355 3.478-14.311l52.805-154.131q9.195-27.348 33.002-44.38 23.806-17.033 53.28-17.033H623.13q29.587 0 53.218 16.913 23.63 16.913 33.065 44.261l53.283 154.37q2.478 6.956 3.598 14.311 1.119 7.355 1.119 15.276v242.043q0 19.87-13.772 33.641Q739.87-69 720-69q-19.87 0-33.641-13.772-13.772-13.771-13.772-33.641V-149H287.413ZM306-436.413h348l-28-80H334l-28 80Zm-26 80v120-120Zm0 120h400v-120H280v120Z"/></svg>