<svg xmlns="http://www.w3.org/2000/svg" height="24" viewBox="0 -960 960 960" width="24"><path d="M460-440h-43.217q-12.373 0-19.121-10.815-6.749-10.815-1.271-22.25l81.979-168.218q4.239-7.956 12.934-6.228Q500-645.783 500-636.565V-520h43.217q12.373 0 19.121 10.815 6.749 10.815 1.271 22.25L481.63-318.717q-4.239 7.956-12.934 6.228Q460-314.217 460-323.435V-440ZM283.587-32.587q-37.783 0-64.391-26.609-26.609-26.608-26.609-64.391v-712.826q0-37.783 26.609-64.391 26.608-26.609 64.391-26.609h392.826q37.783 0 64.391 26.609 26.609 26.608 26.609 64.391v712.826q0 37.783-26.609 64.391-26.608 26.61-64.391 26.61H283.587Zm0-131v40h392.826v-40H283.587Zm0-80h392.826v-472.826H283.587v472.826Zm0-552.826h392.826v-40H283.587v40Zm0 0v-40 40Zm0 632.826v40-40Z"/></svg>