<svg xmlns="http://www.w3.org/2000/svg" height="24" viewBox="0 -960 960 960" width="24"><path d="m231.869-231.869-82.434 82.434q-21.631 21.631-49.598 9.771-27.968-11.86-27.968-42.358V-797.13q0-37.783 26.61-64.392 26.608-26.609 64.391-26.609h634.26q37.783 0 64.392 26.609 26.609 26.609 26.609 64.392v474.26q0 37.783-26.609 64.392-26.609 26.609-64.392 26.609H231.869Zm-34-91.001H797.13v-474.26H162.87v508.499l34.999-34.239Zm-34.999 0v-474.26 474.26ZM280-400h240q17 0 28.5-11.5T560-440q0-17-11.5-28.5T520-480H280q-17 0-28.5 11.5T240-440q0 17 11.5 28.5T280-400Zm0-120h400q17 0 28.5-11.5T720-560q0-17-11.5-28.5T680-600H280q-17 0-28.5 11.5T240-560q0 17 11.5 28.5T280-520Zm0-120h400q17 0 28.5-11.5T720-680q0-17-11.5-28.5T680-720H280q-17 0-28.5 11.5T240-680q0 17 11.5 28.5T280-640Z"/></svg>