<svg xmlns="http://www.w3.org/2000/svg" height="24" viewBox="0 -960 960 960" width="24"><path d="M484.304-537.913V-680q0-18.674-12.815-31.489-12.815-12.815-31.489-12.815t-31.489 12.815Q395.696-698.674 395.696-680v159.522q0 9.093 3.358 17.049 3.359 7.957 10.076 14.777l72.587 72.348q13.305 13.195 31.044 13.195t30.935-13.195q13.195-13.196 13.195-30.935 0-17.739-13.195-31.044l-59.392-59.63ZM365.37-254.261q16.956-48 58.173-79.022 41.218-31.021 94.457-31.021h149.609q23.043-33.283 35.565-72.707 12.522-39.424 12.522-82.989 0-115.201-80.248-195.448Q555.201-795.696 440-795.696q-115.201 0-195.448 80.248Q164.304-635.201 164.304-520q0 95.723 56.587 168.492 56.587 72.769 144.479 97.247ZM520-35.696q-58.95 0-103.671-36.62-44.72-36.619-56.916-92.097-122.478-27.196-203.098-125.915Q75.695-389.046 75.695-520q0-151.794 106.256-258.049Q288.206-884.304 440-884.304q151.794 0 258.049 106.255Q804.304-671.794 804.304-520q0 41.922-8.902 81.407-8.902 39.484-25.945 74.767 65.282 2.391 110.065 49.989Q924.304-266.239 924.304-200q0 67.913-48.195 116.109Q827.913-35.696 760-35.696H520Zm-80-489.782ZM640-200Zm-120 75.696h240q31.224 0 53.46-22.236T835.696-200q0-31.224-22.236-53.46T760-275.696H520q-31.224 0-53.46 22.236T444.304-200q0 31.224 22.236 53.46T520-124.304ZM520-160q-17 0-28.5-11.5T480-200q0-17 11.5-28.5T520-240q17 0 28.5 11.5T560-200q0 17-11.5 28.5T520-160Zm120 0q-17 0-28.5-11.5T600-200q0-17 11.5-28.5T640-240q17 0 28.5 11.5T680-200q0 17-11.5 28.5T640-160Zm120 0q-17 0-28.5-11.5T720-200q0-17 11.5-28.5T760-240q17 0 28.5 11.5T800-200q0 17-11.5 28.5T760-160Z"/></svg>