<svg xmlns="http://www.w3.org/2000/svg" height="24" viewBox="0 -960 960 960" width="24"><path d="m197.304-479.239 151.174 151.174q12.913 12.913 12.794 31.945-.12 19.033-13.033 31.946t-31.826 12.794q-18.913-.12-31.826-12.794l-184-183.761q-6.718-6.717-9.816-14.913-3.097-8.195-3.097-17.152t3.097-17.152q3.098-8.196 9.816-14.913l116.195-115.957-142.63-142.869q-12.478-12.479-12.478-29.696 0-17.218 12.478-29.696 12.478-12.478 29.696-12.478 17.217 0 29.695 12.478l696.74 696.74q12.478 12.478 12.359 29.315-.12 16.837-12.598 29.315-12.479 12.478-29.576 12.478-17.098 0-29.577-12.478L281.435-563.37l-84.131 84.131Zm517.674 110.848q-13.674-13.674-13.674-32.327 0-18.652 13.674-32.326l47.718-47.717-151.174-151.174q-12.913-12.913-12.794-31.945.12-19.033 13.033-31.946t31.826-12.794q18.913.12 31.826 12.794l184 183.761q6.718 6.717 9.815 14.913 3.098 8.195 3.098 17.152t-3.098 17.152q-3.097 8.196-9.815 14.913l-80.782 80.544q-13.674 13.434-31.826 13.054-18.153-.38-31.827-14.054Z"/></svg>