<svg xmlns="http://www.w3.org/2000/svg" height="24" viewBox="0 -960 960 960" width="24"><path d="M760-112.587q-42.587 0-75.141-24.413-32.555-24.413-45.033-61.087H440q-66.789 0-114.351-47.597-47.562-47.596-47.562-114.434 0-66.839 47.562-114.317Q373.211-521.913 440-521.913h80q32.211 0 55.149-22.953 22.938-22.953 22.938-55.185t-22.938-55.134Q552.211-678.087 520-678.087H320.174Q306.935-641.413 274.761-617 242.587-592.587 200-592.587q-53.089 0-90.251-37.166-37.162-37.166-37.162-90.261t37.162-90.247q37.162-37.152 90.251-37.152 42.587 0 74.761 24.413 32.174 24.413 45.413 61.087H520q66.957 0 114.435 47.478Q681.913-666.957 681.913-600t-47.478 114.435Q586.957-438.087 520-438.087h-80q-32.043 0-55.065 22.903-23.022 22.904-23.022 55.066 0 32.161 23.022 55.183T440-281.913h199.826q13.239-36.674 45.413-61.087 32.174-24.413 74.761-24.413 53.089 0 90.251 37.166 37.162 37.166 37.162 90.261t-37.162 90.247Q813.089-112.587 760-112.587ZM200-680q17 0 28.5-11.5T240-720q0-17-11.5-28.5T200-760q-17 0-28.5 11.5T160-720q0 17 11.5 28.5T200-680Z"/></svg>