<svg xmlns="http://www.w3.org/2000/svg" height="24" viewBox="0 -960 960 960" width="24"><path d="M396.413-101.587q-18.435 0-31.131-12.695-12.695-12.696-12.695-31.131v-80.717H109q-18.525 0-31.056-12.531-12.531-12.532-12.531-31.056 0-18.525 12.531-31.056Q90.475-313.304 109-313.304h240q37.782 0 64.391 26.609Q440-260.087 440-222.304v77.13q0 18.525-12.531 31.056-12.532 12.531-31.056 12.531Zm167.413 0q-18.435 0-31.13-12.695Q520-126.978 520-145.413v-76.891q0-37.783 26.609-64.391 26.609-26.609 64.391-26.609h240q18.525 0 31.056 12.531 12.531 12.531 12.531 31.056 0 18.524-12.531 31.056Q869.525-226.13 851-226.13H607.413v80.956q0 18.525-12.531 31.056-12.531 12.531-31.056 12.531ZM231.152-353.304q-52.69 0-89.573-36.953Q104.695-427.21 104.695-480v-122.63q0-19.153 13.174-32.327t32.326-13.174h659.61q19.152 0 32.326 13.174t13.174 32.327V-480q0 52.79-36.883 89.743-36.884 36.953-89.574 36.953H231.152Zm0-87.413h497.696q16.522 0 27.902-11.381 11.381-11.38 11.381-27.902v-80.717H191.869V-480q0 16.522 11.381 27.902 11.38 11.381 27.902 11.381Zm-82.87-247.414q-18.524 0-31.055-12.531-12.532-12.531-12.532-31.056 0-18.524 12.532-31.055 12.531-12.532 31.055-12.532h205.022v-37.608q0-19.153 13.174-32.327 13.174-13.173 32.326-13.173h162.392q19.152 0 32.326 13.173 13.174 13.174 13.174 32.327v37.608h205.022q18.524 0 31.055 12.532 12.532 12.531 12.532 31.055 0 18.525-12.532 31.056-12.531 12.531-31.055 12.531H148.282Zm43.587 247.414v-120 120Z"/></svg>