<svg xmlns="http://www.w3.org/2000/svg" height="24" viewBox="0 -960 960 960" width="24"><path d="M480-71.87q-84.913 0-159.345-32.117-74.432-32.118-129.491-87.177-55.059-55.059-87.177-129.491Q71.869-395.087 71.869-480t32.118-159.345q32.118-74.432 87.177-129.491 55.059-55.059 129.491-87.177Q395.087-888.131 480-888.131t159.345 32.118q74.432 32.118 129.491 87.177 55.059 55.059 87.177 129.491Q888.131-564.913 888.131-480t-32.118 159.345q-32.118 74.432-87.177 129.491-55.059 55.059-129.491 87.177Q564.913-71.869 480-71.869Zm0-91q133.043 0 225.087-92.043Q797.13-346.957 797.13-480t-92.043-225.087Q613.043-797.13 480-797.13t-225.087 92.043Q162.87-613.043 162.87-480t92.043 225.087Q346.957-162.87 480-162.87ZM480-480Zm-81.913 163.587h162.63q19.033 0 31.908-12.394t12.875-30.715v-39.043q0-18.525-12.669-31.056-12.668-12.531-31.396-12.531-17 0-28.978 11.022-11.979 11.021-13.414 27.543h-77.13v-152.826h77.13q1.435 16.522 13.533 27.543 12.098 11.022 29.337 11.022 18.525 0 31.056-12.695 12.531-12.696 12.531-31.131v-39.043q0-18.435-12.875-30.653-12.875-12.217-31.908-12.217h-162.63q-18.525 0-31.056 12.531Q354.5-618.524 354.5-600v240q0 18.524 12.531 31.056 12.531 12.531 31.056 12.531Z"/></svg>