<svg xmlns="http://www.w3.org/2000/svg" height="24" viewBox="0 -960 960 960" width="24"><path d="M480-65.174q-86.109 0-161.739-32.576-75.631-32.576-131.663-88.608-56.033-56.033-88.61-131.664-32.575-75.63-32.575-161.739 0-118.783 62.369-219.228 62.37-100.446 168.914-152.881-.435 20.674 1.967 42.805 2.402 22.13 9.641 50.761-72.717 45.195-114.217 118.891t-41.5 159.652q0 136.87 95.272 232.022Q343.13-152.587 480-152.587t232.141-95.152q95.272-95.152 95.272-232.022 0-85.956-41.619-160.152-41.62-74.196-115.098-119.391 7.239-28.87 9.761-50.761 2.521-21.892 2.847-41.805 106.544 52.435 168.914 152.5 62.369 100.066 62.369 219.609 0 86.109-32.576 161.739-32.576 75.631-88.609 131.664-56.032 56.032-131.663 88.608Q566.109-65.174 480-65.174Zm0-165.978q-103.587 0-176.098-72.511-72.511-72.511-72.511-176.098 0-59.435 25.859-111.63 25.859-52.196 73.576-87.631 5.239 16.674 12.076 38.207 6.837 21.532 17.794 53.402-20.566 22.522-31.229 49.804-10.663 27.283-10.663 57.848 0 66.718 47.239 113.957 47.24 47.239 113.957 47.239 66.717 0 113.957-47.239 47.239-47.239 47.239-113.957 0-30.565-10.663-57.848-10.663-27.282-31.229-49.804 9.196-27.348 16.414-49.881 7.217-22.532 12.695-41.728 47.718 35.435 73.957 87.631 26.239 52.195 26.239 111.63 0 103.587-72.511 176.098Q583.587-231.152 480-231.152Zm-13.435-390.044q-13.717 0-24.174-7.978-10.456-7.978-14.695-20.696l-40-126.173q-7-25.761-9.5-44.903-2.5-19.141-2.5-37.141 0-43.674 30.315-73.989 30.315-30.315 73.989-30.315 43.674 0 73.989 30.315 30.315 30.315 30.315 73.989 0 18-2.5 36.783-2.5 18.782-9.5 44.543L532.065-649.87q-4.239 12.718-14.695 20.696-10.457 7.978-24.174 7.978h-26.631ZM480-397.37q-34.196 0-58.413-24.217T397.37-480q0-34.196 24.217-58.413T480-562.63q34.196 0 58.413 24.217T562.63-480q0 34.196-24.217 58.413T480-397.37Z"/></svg>