<svg xmlns="http://www.w3.org/2000/svg" height="24" viewBox="0 -960 960 960" width="24"><path d="M434.5-157.37V-394.5H280q-19.152 0-32.326-13.174T234.5-440q0-19.152 13.174-32.326T280-485.5h138.956L232.782-777.761q-14.673-22.869-1.619-46.62 13.054-23.75 40.402-23.75 12.435 0 22.631 5.718 10.195 5.717 16.152 15.913L480-558.283l169.652-268.456q5.957-10.196 16.152-15.794 10.196-5.598 22.631-5.598 27.348 0 40.283 23.75 12.934 23.751-1.74 46.62L541.044-485.5H680q19.152 0 32.326 13.174T725.5-440q0 19.152-13.174 32.326T680-394.5H525.5v237.13q0 19.153-13.174 32.327T480-111.869q-19.152 0-32.326-13.174T434.5-157.37Z"/></svg>