<svg xmlns="http://www.w3.org/2000/svg" height="24" viewBox="0 -960 960 960" width="24"><path d="M480-796.652 250.174-663.957 480-531.022l229.826-132.935L480-796.652ZM111.869-322.674v-314.652q0-24.87 12.055-45.5 12.054-20.631 33.446-33.065L434.5-875.218q11.196-5.717 22.13-9.076 10.935-3.358 23.37-3.358t23.837 3.391q11.401 3.391 21.663 9.043l277.13 159.327q21.392 12.434 33.446 33.065 12.055 20.63 12.055 45.5V-525.5q0 19.152-13.174 32.326T802.63-480q-19.152 0-32.326-13.174T757.13-525.5v-64.043L524.739-455.326q-21.391 12.435-45.5 12.435t-45.5-12.435L202.87-589.543v265.869l224.065 130.152q10.184 5.704 16.407 15.97 6.223 10.266 6.223 22.813 0 26.228-22.63 39.342-22.631 13.115-45.5.441L157.37-244.109q-21.392-12.434-33.446-33.065-12.055-20.63-12.055-45.5ZM729.565 0q-83 0-141.5-58.5t-58.5-141.5q0-83 58.5-141.5t141.5-58.5q83 0 141.5 58.5t58.5 141.5q0 83-58.5 141.5T729.565 0ZM480-488.37Zm271.479 280.508v-91.421q0-8.669-6.513-15.171-6.512-6.503-15.196-6.503-8.683 0-15.281 6.574-6.598 6.574-6.598 15.34v89.565q0 9.195 3.359 17.549 3.359 8.355 10.076 15.038l59.283 59.282q6.478 6.479 15.196 6.359 8.717-.12 15.195-6.632 6.479-6.512 6.479-15.196 0-8.683-6.479-15.161l-59.521-59.623Z"/></svg>