<svg xmlns="http://www.w3.org/2000/svg" height="24" viewBox="0 -960 960 960" width="24"><path d="M72.826-278.804v-357.37q0-37.783 26.609-64.391 26.608-26.609 64.391-26.609h632.587q37.783 0 64.391 26.609 26.609 26.608 26.609 64.391v357.37q0 19.152-13.174 32.326t-33.043 13.174q-19.033 0-31.908-12.875t-12.875-31.908v-30.434H643.826v30.434q0 19.033-13.081 31.908t-32.419 12.875q-19.152 0-32.326-13.174t-13.174-32.326v-357.37h-389v357.37q0 19.152-13.174 32.326t-32.326 13.174q-19.152 0-32.326-13.174t-13.174-32.326Zm571-282.153h152.587v-75.217H643.826v75.217Zm0 163.827h152.587v-75.218H643.826v75.218Z"/></svg>