<svg xmlns="http://www.w3.org/2000/svg" height="24" viewBox="0 -960 960 960" width="24"><path d="M615.991-515.217q-26.969 0-45.904-18.913-18.935-18.913-18.935-45.932 0-18.373 10.276-37.181 10.275-18.807 22.174-34.391 11.898-15.584 22.115-25.562l10.218-9.978 10.217 9.978q10.218 9.978 22.116 25.562 11.898 15.584 22.174 34.391 10.275 18.808 10.275 37.181 0 27.019-18.878 45.932-18.879 18.913-45.848 18.913ZM780.056-640q-26.969 0-45.904-18.913-18.935-18.913-18.935-45.932 0-18.373 10.276-37.18 10.276-18.808 22.174-34.392 11.898-15.583 22.116-25.562L780-811.957l10.217 9.978q10.218 9.979 22.116 25.562 11.898 15.584 22.174 34.392 10.276 18.807 10.276 37.18 0 27.019-18.879 45.932Q807.026-640 780.056-640Zm0 249.565q-26.969 0-45.904-18.913-18.935-18.913-18.935-45.931 0-18.373 10.276-37.181 10.276-18.808 22.174-34.391 11.898-15.584 22.116-25.562L780-562.391l10.217 9.978q10.218 9.978 22.116 25.562 11.898 15.583 22.174 34.391t10.276 37.181q0 27.018-18.879 45.931-18.878 18.913-45.848 18.913ZM352.605-111.869q-86.366 0-147.138-60.879Q144.695-233.626 144.695-320q0-48.717 21-91.174 21-42.456 59-72.413V-720q0-53.388 37.314-90.759 37.314-37.372 90.62-37.372 53.306 0 90.697 37.372 37.391 37.371 37.391 90.759v236.413q38 29.957 59 72.413 21 42.457 21 91.174 0 86.374-60.872 147.252-60.873 60.879-147.24 60.879ZM235.696-320h234.021q0-29.957-13.337-55.554-13.337-25.598-37.293-42.359l-29.37-21.37V-720q0-15.565-10.782-26.348-10.783-10.782-26.348-10.782t-26.228 10.782Q315.696-735.565 315.696-720v280.717l-29.131 21.37q-24.195 17-37.532 42.605-13.337 25.606-13.337 55.308Z"/></svg>