<svg xmlns="http://www.w3.org/2000/svg" height="24" viewBox="0 -960 960 960" width="24"><path d="M480-165.478q-19.391 0-37.663-8.337t-31.946-24.489L113.478-554.022q-10.195-12.434-15.413-27.228-5.217-14.793-5.217-30.707 0-10.195 1.859-20.891 1.858-10.696 7.336-20.13l70.696-140.631q12.196-22.869 33.565-36.424 21.37-13.554 47.479-13.554h452.434q26.109 0 47.479 13.554 21.369 13.555 33.565 36.424l70.696 140.631q5.478 9.434 7.337 20.13 1.858 10.696 1.858 20.891 0 15.914-5.217 30.707-5.218 14.794-15.413 27.228L549.609-198.304q-13.674 16.152-31.946 24.489-18.272 8.337-37.663 8.337ZM384.761-640h190.478l-58.326-116.413h-73.826L384.761-640ZM440-298.739V-560H222.783L440-298.739Zm80 0L737.217-560H520v261.261ZM664.478-640h101.457l-58.087-116.413H606.152L664.478-640Zm-470.413 0h101.457l58.326-116.413H252.152L194.065-640Z"/></svg>