<svg xmlns="http://www.w3.org/2000/svg" height="24" viewBox="0 -960 960 960" width="24"><path d="M228.717-452.935h102.566l17.087 47.978q2.239 6.479 7.538 10.218Q361.206-391 368.625-391q11.658 0 18.516-9.478 6.859-9.479 2.62-20.196l-80.326-213.609q-2.239-6.478-7.978-10.597-5.74-4.12-13.074-4.12h-16.766q-7.334 0-13.074 4.12-5.739 4.119-7.978 10.597l-80.326 213.609q-4.239 10.717 2.5 20.196Q179.478-391 191.204-391q7.462 0 13.325-3.978 5.862-3.979 8.101-11.218l16.087-46.739Zm13.957-39.391 36.41-103.891H281l36.565 103.891h-74.891ZM260-320.717q47 0 91.5 10.5t88.5 31.5v-394q-41-24-87-36t-93-12q-36 0-71.5 7t-68.5 21v396q35-12 69.5-18t70.5-6Zm260 42q44-21 88.5-31.5t91.5-10.5q36 0 70.5 6t69.5 18v-396q-33-14-68.5-21t-71.5-7q-47 0-93 12t-87 36v394Zm-240-221Zm200.717 335.696q-14.239 0-27.456-3.5-13.218-3.5-24.457-9.979-38.761-22.76-81.447-34.619-42.686-11.859-87.357-11.859-41.183 0-80.896 11.12-39.713 11.119-76.234 30.641-24.348 12.674-47.316-1.158-22.967-13.831-22.967-40.342v-481.761q0-14.348 6.815-27.026 6.815-12.679 20.446-19.018 46.478-23.761 96.717-35.402 50.239-11.641 102.692-11.641 58.504 0 114.243 15T480-737.848q51-30.478 106.62-45.598 55.619-15.119 114.123-15.119 52.453 0 102.692 11.641 50.239 11.641 96.717 35.402 13.631 6.339 20.446 19.018 6.815 12.678 6.815 27.026v485.348q0 25.63-22.848 38.228-22.848 12.598-47.435-.315-36.521-19.522-76.234-30.641-39.713-11.12-80.896-11.12-44.522 0-86.685 11.978-42.163 11.979-80.685 34.5-11.239 6.479-24.456 9.979-13.217 3.5-27.457 3.5ZM560-600.63q0-8.77 6.261-18.026 6.261-9.257 14.261-12.257 29-10 58.239-15.119 29.239-5.12 61.239-5.12 20 0 39.5 2.516t38.5 6.542q9 2.013 15.5 10.065t6.5 18.116q0 17-11 24.881-11 7.88-28 3.88-14.239-3-29.5-4.5t-31.5-1.5q-26 0-50.761 4.88-24.761 4.881-47.761 12.881-18.21 7-29.844-1.04T560-600.63Zm0 220q0-8.77 6.261-18.026 6.261-9.257 14.261-12.257 29-10 58.239-15.119 29.239-5.12 61.239-5.12 20 0 39.5 2.516t38.5 6.542q9 2.013 15.5 10.065t6.5 18.116q0 17-11 24.881-11 7.88-28 3.88-14.239-3-29.5-4.5t-31.5-1.5q-26 0-50.761 4.38-24.761 4.381-47.761 12.381-18.21 7-29.844-.537T560-380.63Zm0-110q0-8.77 6.261-18.026 6.261-9.257 14.261-12.257 29-10 58.239-15.119 29.239-5.12 61.239-5.12 20 0 39.5 2.516t38.5 6.542q9 2.013 15.5 10.065t6.5 18.116q0 17-11 24.881-11 7.88-28 3.88-14.239-3-29.5-4.5t-31.5-1.5q-26 0-50.761 4.88-24.761 4.881-47.761 12.881-18.21 7-29.844-1.04T560-490.63Z"/></svg>