<svg xmlns="http://www.w3.org/2000/svg" height="24" viewBox="0 -960 960 960" width="24"><path d="M202.87-480q0 90.848 50.706 163.272 50.707 72.424 133.12 98.945 19.674 6.718 32.01 24.892 12.337 18.174 12.337 40.565 0 31.87-26.891 50.185t-58.043 7.12q-124.24-42.914-199.24-148.468-75-105.554-75-236.511t75-236.511q75-105.554 199.24-148.467 31.152-11.196 58.043 7.119 26.891 18.315 26.891 50.185 0 22.391-12.337 40.565-12.336 18.174-32.01 24.892-82.413 26.521-133.12 98.945Q202.87-570.848 202.87-480Zm565.826 288.457q-32 32.761-71.902 57.261-39.903 24.5-83.903 39.26-31.63 10.718-58.282-7.597-26.652-18.316-26.652-49.707 0-22.152 12.337-40.207 12.336-18.054 32.01-25.25 28.848-9.761 55.913-26.782 27.066-17.022 48.631-38.587 21.804-22.805 38.087-48.631 16.282-25.826 27.282-55.913 7.196-19.674 25.25-32.01 18.055-12.337 40.207-12.337 31.391 0 49.707 26.652 18.315 26.652 7.597 58.282-14.76 44-39.141 83.403-24.38 39.402-57.141 72.163Zm0-576.914q32.761 32.761 57.141 72.163 24.381 39.403 39.141 83.403 10.718 31.63-7.597 58.282-18.316 26.652-49.707 26.652-22.152 0-40.207-12.337-18.054-12.336-25.25-32.01-11-30.087-27.282-55.913-16.283-25.826-38.087-48.631-21.565-21.565-48.631-38.587-27.065-17.021-55.913-26.782-19.674-7.196-32.01-25.25-12.337-18.055-12.337-40.207 0-31.391 26.652-49.707 26.652-18.315 58.282-7.597 44 14.76 83.903 39.26 39.902 24.5 71.902 57.261Z"/></svg>