<svg xmlns="http://www.w3.org/2000/svg" height="24" viewBox="0 -960 960 960" width="24"><path d="M520.761-833.348q0-22.152 17.793-35.228 17.794-13.076 39.946-7.598 112.478 25.913 193.978 109.033 81.5 83.119 106.696 198.119 4.717 19.152-7.5 34.326-12.217 15.174-34.13 15.174H597.935q-4.718 0-8.316-2.358-3.597-2.359-5.837-6.837-8.282-18.37-22.369-32.837-14.087-14.468-31.696-22.75-4.239-2.239-6.597-5.337-2.359-3.098-2.359-7.576v-236.131Zm80 60.218v126.195q13.63 9.957 25.424 21.87 11.793 11.913 21.989 25.543h125.717q-23.761-59.282-68.804-104.565-45.044-45.283-104.326-69.043ZM381.826-84.065Q247.109-116.74 159.989-226.413q-87.12-109.674-87.12-253.109t87-252.728q87-109.294 221.718-143.446 22.391-5.956 40.783 7.881 18.391 13.837 18.391 35.989v237.087q0 1.717-6.718 9.196-31.369 13.761-49.934 42.467-18.565 28.706-18.565 63.554t18.445 62.913q18.446 28.065 50.054 41.826 1.761 1 6.718 9.196v240.131q0 21.913-18.272 34.51-18.272 12.598-40.663 6.88ZM360.761-773.13q-89.565 35.717-143.348 115.76-53.783 80.044-53.783 177.848 0 97.805 53.544 177.968 53.543 80.163 143.587 116.684v-126.999q-40.87-29.718-63.544-73.37t-22.674-94.283q0-50.63 22.794-94.282 22.793-43.653 63.424-73.131V-773.13ZM576.348-83.348q-21.435 5.479-38.511-7.597-17.076-13.077-17.076-34.511v-236.653q0-4.717 2.359-8.315 2.358-3.598 6.837-5.837 17.847-8.283 31.934-22.369 14.087-14.087 22.37-31.935 1-2 12.674-8.957h240.609q21.108 0 33.108 17.033 12 17.033 7.044 38.424Q851.5-269.543 769.022-188.663q-82.478 80.881-192.674 105.315Zm71.826-276.174q-9.435 13.631-21.609 25.544-12.174 11.913-25.804 22.109v125.239q59.282-23.761 104.565-68.685 45.283-44.924 69.044-104.207H648.174ZM275.739-479Zm372.435-120.522Zm-1.913 240Z"/></svg>