<svg xmlns="http://www.w3.org/2000/svg" height="24" viewBox="0 -960 960 960" width="24"><path d="M390.087-81.87q-139.87-31.717-229.044-142.989Q71.869-336.13 71.869-480t89.174-255.141q89.174-111.272 229.044-142.75 21.391-5.479 38.043 8.195 16.653 13.674 16.653 36.066 0 16.152-9.196 28.587-9.196 12.434-25.109 15.913-109.043 24.76-178.326 110.924Q162.87-592.043 162.87-480q0 112.043 69.282 198.206 69.283 86.164 178.326 110.924 15.913 3.479 25.109 15.913 9.196 12.435 9.196 28.587 0 22.392-16.653 36.066-16.652 13.674-38.043 8.435Zm179.826-.239q-21.391 5.718-38.043-7.956-16.653-13.674-16.653-36.305 0-15.913 9.196-28.467 9.196-12.554 24.87-16.033 26.76-6 51.902-16.38 25.141-10.38 47.902-25.141 12.674-8.957 28.207-6.718 15.532 2.239 26.967 13.674 15.674 15.674 13.554 36.924-2.119 21.25-20.511 33.446-29.478 18.478-61.576 31.717-32.098 13.24-65.815 21.24Zm184.652-172.63q-11.435-11.435-13.793-26.848-2.359-15.413 6.598-28.087 14.76-23 25.26-48.522 10.5-25.521 16.5-52.282 3.479-15.674 16.033-24.489 12.554-8.816 28.467-8.816 22.392 0 36.066 16.653 13.674 16.652 8.195 38.043-8 33.717-21.239 65.815t-31.717 61.576q-12.435 18.153-33.565 20.392-21.131 2.239-36.805-13.435Zm79.065-260.478q-15.913 0-28.467-9.196-12.554-9.196-16.033-24.87-6-26.76-16.5-51.902-10.5-25.141-25.26-48.141-8.718-13.674-6.479-28.968 2.239-15.293 13.674-26.728 15.674-15.913 36.805-13.674 21.13 2.239 33.565 21.392 18.478 29.478 31.717 61.576 13.239 32.098 21.239 65.815 5.479 21.391-8.195 38.043-13.674 16.653-36.066 16.653ZM649.326-747.609q-23-14.761-48.141-25.141-25.142-10.38-51.902-16.38-15.674-3.479-24.87-16.033-9.196-12.554-9.196-28.467 0-22.392 16.653-36.066 16.652-13.674 38.043-8.195 33.717 8 65.815 21.239t61.576 31.717q18.914 12.435 21.153 33.565 2.239 21.131-13.435 36.805-11.435 11.435-26.848 13.674-15.413 2.239-28.848-6.718ZM520.913-439.065l71.13-70.892q12.479-12.478 30.077-12.478 17.597 0 30.076 12.478 12.478 12.479 12.098 30.196-.381 17.718-12.859 30.196l-140.37 140.13q-12.913 12.674-31.826 12.674t-31.826-12.674l-142.13-142.652q-12.479-12.478-12.098-29.815.38-17.337 12.858-29.815 12.479-12.479 29.696-12.479 17.218 0 29.696 12.479l71.891 72.652v-201.413q0-17.718 12.098-29.696 12.098-11.978 29.815-11.978 17.718 0 29.696 11.978 11.978 11.978 11.978 29.696v201.413Z"/></svg>