<svg xmlns="http://www.w3.org/2000/svg" height="24" viewBox="0 -960 960 960" width="24"><path d="M538.804-740.957q-33.956 0-58.174-24.217-24.217-24.217-24.217-58.174 0-33.956 24.098-58.174 24.098-24.217 58.293-24.217 34.196 0 58.294 24.098 24.098 24.097 24.098 58.293t-24.218 58.294q-24.217 24.097-58.174 24.097ZM700-382.348q-10.152 0-17.467-7.315-7.316-7.315-7.316-17.467v-24.5q-50.413-20.131-80.771-46.598-30.359-26.468-54.316-70.402-9.804 25.369-15.587 61.924-5.782 36.554-4.021 70.88l70.565 100.087q4.478 5.717 6.337 12.435 1.859 6.717 1.859 13.674v210.347q0 18.196-12.457 30.653-12.456 12.456-30.652 12.456T525.522-48.63q-12.457-12.457-12.457-30.653v-165.261l-62.869-90.76-8.957 122.108q0 4.239-8.956 23.913L342.804-70.326q-10.717 14.717-28.152 17.076-17.435 2.359-32.152-8.359-14.957-10.717-17.315-28.271-2.359-17.555 8.597-32.272l81.196-108.435-.478-206.783q-.239-31.717 5-69.293 5.239-37.576 15.239-68.815l-56.891 32.282v102q0 18.196-12.457 30.653-12.456 12.456-30.652 12.456t-30.652-12.456Q231.63-423 231.63-441.196v-125.478q0-12.435 5.718-23.13 5.717-10.696 16.674-16.414l152.652-87.521q25.239-14.239 44.098-21.859 18.858-7.62 35.337-7.62 26.673 0 48.967 23.055 22.294 23.054 51.924 73.12 30.326 51.13 59.435 77.413 29.109 26.282 62.217 36.934 10.283-6.804 18.403-9.685 8.119-2.88 18.88-2.88 28.348 0 48.38 20.631 20.033 20.63 20.033 48.934v394.74q0 10.152-7.315 17.467-7.315 7.315-17.468 7.315-10.152 0-17.467-7.315-7.315-7.315-7.315-17.468v-394.739q0-8-6-14t-14-6q-8 0-14 6t-6 14v48.566q0 10.152-7.316 17.467-7.315 7.315-17.467 7.315Z"/></svg>