<svg xmlns="http://www.w3.org/2000/svg" height="24" viewBox="0 -960 960 960" width="24"><path d="M197.37-111.869q-19.153 0-32.327-13.174t-13.174-32.327q0-19.152 13.174-32.326t32.327-13.174h565.26q19.153 0 32.327 13.174t13.174 32.326q0 19.153-13.174 32.327t-32.327 13.174H197.37Zm120.956-166.218q-68.87 0-117.663-48.793-48.794-48.794-48.794-117.664v-302.152q0-42.169 29.633-71.802 29.633-29.633 71.802-29.633H797.37q37.438 0 64.1 26.729 26.661 26.728 26.661 64.032v120q0 37.305-26.661 64.033-26.662 26.729-64.1 26.729h-75.457v102.064q0 68.87-48.967 117.664-48.967 48.793-117.729 48.793H318.326Zm.239-479.043h312.348H242.87h75.695Zm403.348 119.76h75.217v-120h-75.217v120ZM554.978-369.087q31.323 0 53.629-22.236 22.306-22.235 22.306-53.46V-757.13H402.87v21.739l72 58q2 2 8 16v170q0 8-6 14t-14 6h-160q-8 0-14-6t-6-14v-170q0-2 8-16l72-58v-21.739h-120v312.347q0 31.225 22.235 53.46 22.236 22.236 53.46 22.236h236.413ZM358.087-757.13h40-40Z"/></svg>