<svg xmlns="http://www.w3.org/2000/svg" height="24" viewBox="0 -960 960 960" width="24"><path d="M354.978-120.957v-484.217q-82.522-23.435-134.902-89.793-52.38-66.359-62.859-150.598-2.239-15.435 10.718-25.892 12.956-10.456 30.63-10.456 17.196 0 30.272 9.337 13.076 9.337 15.793 25.533 11.718 70.565 62.24 117.847 50.521 47.283 123.608 47.283h98.326q31.196 0 58.153 11.119 26.956 11.12 48.913 33.077l152.76 152.76q12.435 12.435 12.435 30.631 0 18.196-12.435 30.63-12.434 12.435-30.63 12.435-18.196 0-30.63-12.435L603.587-547.478v426.521q0 18.435-12.576 31.011T560-77.37q-18.435 0-31.011-12.576t-12.576-31.011V-320h-74.261v199.043q0 18.435-12.576 31.011T398.565-77.37q-18.435 0-31.011-12.576t-12.576-31.011Zm124.305-600.956q-34.674 0-59.131-24.576-24.456-24.576-24.456-59.011 0-34.674 24.456-59.131 24.457-24.456 59.131-24.456t59.13 24.456q24.457 24.457 24.457 59.131 0 34.435-24.457 59.011-24.456 24.576-59.13 24.576Z"/></svg>