<svg xmlns="http://www.w3.org/2000/svg" height="24" viewBox="0 -960 960 960" width="24"><path d="M480-74.5q-84.196 0-158.152-31.859-73.957-31.858-128.794-86.695-54.837-54.837-86.695-128.794Q74.499-395.804 74.499-480q0-109.848 54.11-203.033 54.108-93.184 147.282-147.097 15.717-9.435 33.652-3.555 17.935 5.881 26.37 22.837 7.435 15.957 1.674 33.011-5.761 17.055-20.718 26.489-70.695 42.718-112.826 114.826-42.13 72.109-42.13 156.522 0 133.043 92.522 225.565Q346.957-161.913 480-161.913t225.565-92.522Q798.087-346.957 798.087-480q0-84.413-42.13-156.522-42.131-72.108-112.826-114.826-14.957-9.434-20.718-26.489-5.761-17.054 1.674-33.011 7.674-16.956 24.848-23.598 17.174-6.641 32.131 2.794Q775-778.5 830.25-684.935 885.5-591.37 885.5-480q0 84.196-31.859 158.152-31.858 73.957-86.695 128.794-54.837 54.837-128.794 86.695Q564.196-74.499 480-74.499Zm-45.5-411.413v-352.891q0-19.153 13.174-32.326 13.174-13.174 32.326-13.174t32.326 13.174q13.174 13.173 13.174 32.326v352.891l66.674-65.913q12.674-12.674 31.446-13.055 18.771-.38 32.206 13.055Q668.5-539.152 668.5-520t-12.674 31.826L512.065-344.413Q498.391-330.739 480-330.739t-32.065-13.674L304.174-488.174q-12.674-12.674-13.055-31.446-.38-18.771 13.055-32.206Q316.848-564.5 336-564.5t31.826 12.674l66.674 65.913Z"/></svg>