<svg xmlns="http://www.w3.org/2000/svg" height="24" viewBox="0 -960 960 960" width="24"><path d="M438.087-318.804v74.978q0 17.813 12.05 29.863T480-201.913q17.813 0 29.863-12.05t12.05-29.863v-74.978h74.978q17.813 0 29.863-12.05t12.05-29.863q0-17.813-12.05-29.863t-29.863-12.05h-74.978v-74.979q0-17.813-12.05-29.863T480-519.522q-17.813 0-29.863 12.05t-12.05 29.863v74.979h-74.978q-17.813 0-29.863 12.05t-12.05 29.863q0 17.813 12.05 29.863t29.863 12.05h74.978ZM242.87-72.587q-37.538 0-64.269-26.731-26.732-26.731-26.732-64.269v-394.261q0-37.537 26.732-64.269 26.731-26.731 64.269-26.731h33.543v-73.065q0-84.913 59.457-144.609 59.456-59.696 144.13-59.696 84.674 0 144.13 59.696 59.457 59.696 59.457 144.609v73.065h33.543q37.538 0 64.269 26.731 26.732 26.732 26.732 64.269v394.261q0 37.538-26.732 64.269-26.731 26.731-64.269 26.731H242.87Zm0-91h474.26v-394.261H242.87v394.261Zm124.543-485.261h225.174v-73.065q0-47.21-32.728-80.257Q527.13-835.217 480-835.217q-47.13 0-79.859 33.047-32.728 33.047-32.728 80.257v73.065ZM242.87-163.587v-394.261 394.261Z"/></svg>