<svg xmlns="http://www.w3.org/2000/svg" height="24" viewBox="0 -960 960 960" width="24"><path d="M217.37-274.5q-27.292 0-46.396-19.104-19.105-19.104-19.105-46.396t19.105-46.396Q190.078-405.5 217.37-405.5h525.26q27.292 0 46.396 19.104 19.105 19.104 19.105 46.396t-19.105 46.396Q769.922-274.5 742.63-274.5H217.37Zm0-280q-27.292 0-46.396-19.104-19.105-19.104-19.105-46.396t19.105-46.396Q190.078-685.5 217.37-685.5h525.26q27.292 0 46.396 19.104 19.105 19.104 19.105 46.396t-19.105 46.396Q769.922-554.5 742.63-554.5H217.37Z"/></svg>