<svg xmlns="http://www.w3.org/2000/svg" height="24" viewBox="0 -960 960 960" width="24"><path d="M387.09-350.35 721.7-684.96q-10.29-11.01-20.57-21.57-10.28-10.56-22.09-19.84L367-413.57q3.76 16.81 8.3 32.13 4.53 15.31 11.79 31.09Zm333.93 75.98q29-33.56 47.36-73.25 18.36-39.68 24.79-83.97L548.91-186.85q6.33 2.28 12.8 5.33 6.46 3.04 12.31 4.56 44.24-13.76 81.15-38.76 36.92-25 65.85-58.65ZM162.63-479.88q0 115.9 72.54 202.17 72.55 86.27 182.18 106.82-66.74-55.48-105.39-135.59Q273.3-386.59 273.3-480q0-93.41 38.78-173.52 38.77-80.11 105.51-135.59-109.63 20.55-182.3 106.94-72.66 86.39-72.66 202.29Zm312.22 246.4 314.52-313.76q-3.76-16.56-8.3-32.34-4.53-15.79-11.79-30.64L433.43-275.37q10.29 11.8 19.57 21.71 9.28 9.9 21.85 20.18Zm5.13 161.61q-84.65 0-159.09-32.1-74.43-32.1-129.63-87.29-55.19-55.2-87.29-129.65-32.1-74.46-32.1-159.11 0-84.65 32.1-159.09 32.1-74.43 87.29-129.63 55.2-55.19 129.65-87.29 74.46-32.1 159.11-32.1 84.65 0 159.09 32.1 74.43 32.1 129.63 87.29 55.19 55.2 87.29 129.65 32.1 74.46 32.1 159.11 0 84.65-32.1 159.09-32.1 74.43-87.29 129.63-55.2 55.19-129.65 87.29-74.46 32.1-159.11 32.1ZM364.67-534.33l237.92-237.91q-7.52-2.76-13.79-5.78-6.26-3.02-13.87-5.02-81.84 28.24-138.71 94.63-56.87 66.39-71.55 154.08ZM578.57-480Z"/></svg>