<svg xmlns="http://www.w3.org/2000/svg" height="24" viewBox="0 -960 960 960" width="24"><path d="M202.87-111.869q-37.783 0-64.392-26.609-26.609-26.609-26.609-64.392V-309q0-19.152 13.174-32.326T157.37-354.5q19.152 0 32.326 13.174T202.87-309v106.13h554.26v-554.26H202.87V-651q0 19.152-13.174 32.326T157.37-605.5q-19.153 0-32.327-13.174T111.869-651v-106.13q0-37.783 26.609-64.392 26.609-26.609 64.392-26.609h554.26q37.783 0 64.392 26.609 26.609 26.609 26.609 64.392v554.26q0 37.783-26.609 64.392-26.609 26.609-64.392 26.609H202.87ZM459.304-434.5H157.37q-19.153 0-32.327-13.174T111.869-480q0-19.152 13.174-32.326T157.37-525.5h301.934l-66.826-66.826q-13.435-13.435-13.054-31.707.38-18.271 13.054-31.945 13.435-13.674 32.087-14.055 18.653-.38 32.326 13.294l144.914 144.674q6.717 6.717 9.815 14.913 3.098 8.195 3.098 17.152t-3.098 17.152q-3.098 8.196-9.815 14.913L456.891-303.022q-13.434 13.435-32.206 13.055-18.772-.381-32.207-14.055-12.674-13.434-13.054-31.826-.381-18.391 13.054-31.826l66.826-66.826Z"/></svg>