<svg xmlns="http://www.w3.org/2000/svg" height="24" viewBox="0 -960 960 960" width="24"><path d="M197.37-60.87q-19.153 0-32.327-13.173-13.174-13.174-13.174-32.326t13.174-32.326q13.174-13.174 32.327-13.174h565.26q19.153 0 32.327 13.174t13.174 32.326q0 19.152-13.174 32.326T762.63-60.87H197.37ZM480-211.021q-8.957 0-17.152-3.097-8.196-3.098-14.913-9.816L344.174-327.696q-12.196-12.195-12.576-30.01-.381-17.816 12.815-31.011 12.196-12.196 30.011-12.577 17.815-.38 30.772 11.816l31.217 30.217v-241.478l-31.217 30.217Q393-558.326 375.304-558.326q-17.695 0-30.891-13.196-12.196-12.195-12.196-30.511 0-18.315 12.196-30.511l103.522-103.521q6.717-6.718 14.913-9.816 8.195-3.097 17.152-3.097t17.152 3.097q8.196 3.098 14.913 9.816l103.761 103.761q12.196 12.195 12.576 30.01.381 17.816-12.815 31.011-12.196 12.196-30.011 12.577-17.815.38-30.772-11.816l-31.217-30.217v241.478l31.217-30.217q12.196-12.196 29.892-12.316 17.695-.119 30.891 13.077 12.196 12.195 12.196 30.511 0 18.315-12.196 30.51L512.065-223.935q-6.717 6.718-14.913 9.816-8.195 3.097-17.152 3.097ZM197.37-808.131q-19.153 0-32.327-13.174t-13.174-32.326q0-19.152 13.174-32.326t32.327-13.174h565.26q19.153 0 32.327 13.174t13.174 32.326q0 19.152-13.174 32.326t-32.327 13.174H197.37Z"/></svg>