<svg xmlns="http://www.w3.org/2000/svg" height="24" viewBox="0 -960 960 960" width="24"><path d="M202.87-111.869q-37.783 0-64.392-26.609-26.609-26.609-26.609-64.392v-554.26q0-37.783 26.609-64.392 26.609-26.609 64.392-26.609h554.26q37.783 0 64.392 26.609 26.609 26.609 26.609 64.392v554.26q0 37.783-26.609 64.392-26.609 26.609-64.392 26.609H202.87Zm0-91.001h554.26v-554.26L202.87-202.87Zm371.152-119.282h-48.087q-13.829 0-22.871-9.042-9.042-9.042-9.042-22.871 0-13.829 9.042-22.871 9.042-9.042 22.871-9.042h48.087v-48.087q0-13.829 9.042-22.871 9.042-9.042 22.871-9.042 13.829 0 22.871 9.042 9.042 9.042 9.042 22.871v48.087h48.087q13.829 0 22.871 9.042 9.042 9.042 9.042 22.871 0 13.829-9.042 22.871-9.042 9.042-22.871 9.042h-48.087v48.087q0 13.829-9.042 22.871-9.042 9.042-22.871 9.042-13.829 0-22.871-9.042-9.042-9.042-9.042-22.871v-48.087ZM410-618.087q13.829 0 22.871-9.042 9.042-9.042 9.042-22.871 0-13.829-9.042-22.871-9.042-9.042-22.871-9.042H270q-13.829 0-22.871 9.042-9.042 9.042-9.042 22.871 0 13.829 9.042 22.871 9.042 9.042 22.871 9.042h140Z"/></svg>