<svg xmlns="http://www.w3.org/2000/svg" height="24" viewBox="0 -960 960 960" width="24"><path d="M200-111.869q-36.587 0-62.359-25.772T111.869-200v-156.304q45.609 0 79.218-29.424 33.608-29.424 33.608-74.272 0-44.848-33.608-74.272-33.609-29.424-79.218-29.424V-720q0-18.435 6.624-34.495 6.624-16.061 18.768-28.244l65.609 65.609v84.652q51.13 22.63 82.097 69.272 30.968 46.641 30.968 103.314 0 55.696-30.968 102.457Q254-310.674 202.87-287.283v84.413h84.413q23.869-50.652 70.391-81.739Q404.196-315.696 460-315.696q55.804 0 102.446 30.968 46.641 30.967 70.271 81.858h84.413l65.609 65.609q-12.183 12.144-28.244 18.768-16.06 6.624-34.495 6.624H563.696q0-45.609-29.424-79.218-29.424-33.608-74.272-33.608-44.848 0-74.272 33.608-29.424 33.609-29.424 79.218H200Zm608.131-162.609-91.001-91.001V-440h81.674q8 0 14-6t6-14q0-8-6-14t-14-6H717.13v-237.13H480v-81.674q0-8-6-14t-14-6q-8 0-14 6t-6 14v81.674h-74.521l-91.001-91.001h78.587q2.631-43.434 33.305-72.554 30.673-29.12 73.63-29.12 42.957 0 73.63 29.12 30.674 29.12 33.305 72.554H720q36.354 0 62.242 25.889 25.889 25.888 25.889 62.242v153.065q43.434 2.631 72.554 33.305 29.12 30.673 29.12 73.63 0 42.957-29.12 73.63-29.12 30.674-72.554 33.305v78.587Zm-37.24 199.565L74.152-770.89q-12.478-12.511-11.978-29.712.5-17.202 13.003-29.68 12.504-12.478 29.696-12.478t29.67 12.478l695.74 696.74q12.478 12.521 12.478 29.217 0 16.696-12.478 29.174-12.478 12.478-29.696 12.598-17.217.12-29.696-12.359ZM541.304-541.304ZM460-460Z"/></svg>