<svg xmlns="http://www.w3.org/2000/svg" height="24" viewBox="0 -960 960 960" width="24"><path d="m770.652-74.913-77.717-76.956H242.87q-37.783 0-64.392-26.609-26.609-26.609-26.609-64.392v-74.5q0-19.152 13.174-32.326t32.327-13.174q19.152 0 32.326 13.174t13.174 32.326v74.5h359.304l-103-103q-4.565 2.283-8.75 3.424-4.185 1.142-8.75 1.142-10.717 0-18.891-3.479-8.174-3.478-13.892-9.195L300.109-502.522q-11.24-11.239-12.816-25.141-1.576-13.902 4.989-24.859v.12-.12l-218.13-218.13q-11.478-11.479-11.598-29.196-.12-17.717 12.359-30.196 11.717-11.717 29.315-11.717t30.076 11.717l695.74 696.501q11.717 11.717 11.717 29.315t-11.717 29.315q-12.479 12.478-30.076 12.478-17.598 0-29.316-12.478Zm-111.239-491.5q12.674 12.673 12.674 31.945t-12.674 31.946l-7.717 7.717q-13.435 13.435-31.707 13.055-18.272-.381-31.946-13.815Q574.37-509 574.37-527.772t13.673-32.446l6.957-6.956q12.674-12.674 32.207-12.294 19.532.381 32.206 13.055ZM480-808.131q19.152 0 32.326 13.174T525.5-762.63v96.369q0 22.869-14.174 33.804-14.174 10.935-31.326 10.696-16.913-.239-31.207-11.554-14.293-11.316-14.293-33.707v-95.608q0-19.153 13.174-32.327T480-808.131Z"/></svg>