<svg xmlns="http://www.w3.org/2000/svg" height="24" viewBox="0 -960 960 960" width="24"><path d="M527.652-449.087v-74.5h80q35.631 0 59.729-24.098t24.098-59.728v-74.5q0-35.631-24.098-59.609T607.652-765.5H486.457q-17.712 0-29.693 11.982-11.981 11.983-11.981 29.696t12.05 29.811q12.05 12.098 29.863 12.098h120.956v74.5h-80q-35.63 0-59.608 24.098-23.979 24.097-23.979 59.728V-411q0 19.152 13.174 32.326t32.326 13.174h155.696q17.711 0 29.693-12.05 11.981-12.05 11.981-29.863 0-17.712-11.981-29.693-11.982-11.981-29.693-11.981H527.652ZM328.37-237.37q-37.783 0-64.392-26.608-26.608-26.609-26.608-64.392v-474.26q0-37.783 26.608-64.392 26.609-26.609 64.392-26.609h474.26q37.783 0 64.392 26.609 26.609 26.609 26.609 64.392v474.26q0 37.783-26.609 64.392-26.609 26.608-64.392 26.608H328.37Zm0-91h474.26v-474.26H328.37v474.26Zm-171 262q-37.783 0-64.392-26.608-26.609-26.609-26.609-64.392v-519.76q0-19.153 13.174-32.327 13.174-13.173 32.326-13.173 19.153 0 32.327 13.173 13.174 13.174 13.174 32.327v519.76h519.76q19.153 0 32.327 13.174 13.173 13.174 13.173 32.327 0 19.152-13.173 32.326Q696.283-66.37 677.13-66.37H157.37Zm171-736.26v474.26-474.26Z"/></svg>