<svg xmlns="http://www.w3.org/2000/svg" height="24" viewBox="0 -960 960 960" width="24"><path d="M525.5-365.5h80q35.631 0 59.609-23.978 23.978-23.979 23.978-59.609V-505.5q0-25.378-16.282-41.972-16.283-16.593-42.522-18.028 26.239-1.196 42.522-18.076 16.282-16.881 16.282-41.924v-56.413q0-35.631-23.978-59.609T605.5-765.5h-80q-35.63 0-59.609 23.978-23.978 23.978-23.978 59.609v56.413q0 25.043 16.283 41.685 16.282 16.641 42.521 18.315-26.478 1.196-42.641 17.956-16.163 16.761-16.163 42.044v56.413q0 35.63 23.978 59.609Q489.87-365.5 525.5-365.5Zm0-316.413h80v76.413h-80v-76.413Zm0 232.826V-525.5h80v76.413h-80ZM328.37-237.37q-37.783 0-64.392-26.608-26.608-26.609-26.608-64.392v-474.26q0-37.783 26.608-64.392 26.609-26.609 64.392-26.609h474.26q37.783 0 64.392 26.609 26.609 26.609 26.609 64.392v474.26q0 37.783-26.609 64.392-26.609 26.608-64.392 26.608H328.37Zm0-91h474.26v-474.26H328.37v474.26Zm-171 262q-37.783 0-64.392-26.608-26.609-26.609-26.609-64.392v-519.76q0-19.153 13.174-32.327 13.174-13.173 32.326-13.173 19.153 0 32.327 13.173 13.174 13.174 13.174 32.327v519.76h519.76q19.153 0 32.327 13.174 13.173 13.174 13.173 32.327 0 19.152-13.173 32.326Q696.283-66.37 677.13-66.37H157.37Zm171-736.26v474.26-474.26Z"/></svg>