<svg xmlns="http://www.w3.org/2000/svg" height="24" viewBox="0 -960 960 960" width="24"><path d="M770.891-75.152 74.152-770.891q-12.478-12.511-12.478-29.712 0-17.202 12.503-29.68 12.504-12.478 29.696-12.478t29.67 12.478l696.74 696.74q12.478 12.521 12.478 29.217 0 16.696-12.503 29.174-12.504 12.478-29.696 12.478t-29.671-12.478ZM658.848-434.739q-17.957 0-31.63-14.25-13.674-14.25-13.674-31.968 0-17.673 12.707-31.108 12.707-13.435 32.597-13.435h22.826q19.236 0 32.248 13.174 13.013 13.174 13.013 32.385t-13.013 32.206q-13.012 12.996-32.248 12.996h-22.826ZM450.478-645.5q-19.181 0-32.721-13.013-13.54-13.012-13.54-32.248 0-17.913 12.816-31.707 12.815-13.793 33.445-13.793H802.87q19.236 0 32.248 13.174 13.013 13.174 13.013 32.385t-13.013 32.206Q822.106-645.5 802.87-645.5H450.478Zm-10.956 421.522q-19.236 0-32.249-12.996-13.012-12.995-13.012-32.206 0-19.211 13.174-32.385t32.326-13.174h80.717q19.236 0 32.249 13.174 13.012 13.174 13.012 32.385t-13.174 32.206q-13.174 12.996-32.326 12.996h-80.717ZM278.087-434.739q-19.236 0-32.249-12.996-13.012-12.995-13.012-32.206 0-19.211 13.174-32.385t32.326-13.174h132.218v90.761H278.087ZM157.13-645.5q-19.236 0-32.248-12.996-13.013-12.995-13.013-32.206 0-19.211 13.174-32.385t32.327-13.174h42.412v90.761H157.13Z"/></svg>