<svg xmlns="http://www.w3.org/2000/svg" height="24" viewBox="0 -960 960 960" width="24"><path d="M355.696-63.5q-35.153 0-60.327-25.174T270.195-149v-45.5h419.61v45.5q0 35.152-25.055 60.326Q639.696-63.5 604.304-63.5H355.696Zm-85.501-171v-211h419.61v211h-419.61Zm3.283-251q10.957-49.826 43.674-91.642 32.717-41.815 82.196-62.25-9.522-8-17.642-17.858-8.119-9.859-13.88-20.859l-129.478-27q-13.674-2.478-20.392-12.174-6.717-9.696-6.717-21.13 0-11.435 6.717-21.011 6.718-9.576 20.392-12.055l131.869-27.478q15.957-29.239 45.011-47.098 29.055-17.859 64.772-17.859 21.239 0 40.837 6.881 19.598 6.88 35.076 18.641l79.674-15.761q21.391-4.239 37.804 9.435 16.414 13.674 16.414 35.065v142.718q0 21.391-16.414 35.065-16.413 13.674-37.804 9.435l-71.108-14.087h.119-.119q48.195 19.478 79.978 59.772 31.782 40.293 42.065 91.25H273.478ZM480-696.5q17 0 28.5-11.5t11.5-28.5q-.761-17.761-11.88-28.881Q497-776.5 480-776.5T451.5-765Q440-753.5 440-736.5t11.5 28.5q11.5 11.5 28.5 11.5Z"/></svg>