<svg xmlns="http://www.w3.org/2000/svg" height="24" viewBox="0 -960 960 960" width="24"><path d="m283.435-612.913-111.37 111.37q-12.435 12.434-30.25 12.695-17.815.261-31.011-12.934-12.434-12.435-12.815-30.37-.38-17.935 12.054-31.131l25.892-26.652L112-613.869q-13.674-13.674-13.674-32.066 0-18.391 13.674-32.065l52.413-52.413-24.935-25.696q-12.674-12.673-12.674-31.445t13.435-32.207q12.674-12.674 31.446-13.054 18.772-.381 32.206 12.293l25.696 24.935L282-848q13.674-13.674 32.065-13.674 18.392 0 32.066 13.674l23.934 23.935 26.892-26.131q12.434-12.434 30.369-12.434 17.935 0 31.131 13.195 12.434 12.435 12.434 30.75 0 18.315-12.434 30.75l-111.37 111.37 329.478 329.478 111.37-111.37q12.435-12.434 30.369-12.815 17.935-.38 31.131 12.815 12.435 12.435 12.815 30.37.38 17.935-12.054 31.13l-26.131 26.892L848-346.131q13.674 13.674 13.674 32.066 0 18.391-13.674 32.065l-52.413 52.413 24.935 25.696q12.674 12.673 12.674 31.445t-13.435 32.207q-12.674 12.674-31.446 13.054-18.772.381-32.206-12.293l-25.696-24.935L678-112q-13.674 13.674-32.065 13.674-18.392 0-32.066-13.674l-23.934-23.935-26.892 26.131q-12.434 12.434-30.25 12.315-17.815-.12-31.011-13.315-12.434-12.435-12.434-30.75 0-18.316 12.434-30.75l111.131-111.131-329.478-329.478Z"/></svg>