<svg xmlns="http://www.w3.org/2000/svg" height="24" viewBox="0 -960 960 960" width="24"><path d="m269.456-269.217-100.717-55.718q-12.674-6.956-14.413-20.608-1.739-13.653 7.696-23.087l13.674-13.674q4.717-4.718 11.174-6.577 6.456-1.858 12.652-.619l86.087 12.239L435.63-527.283 166.978-673.848q-16.913-9.195-19.772-28.467-2.858-19.272 10.816-32.946l11.195-11.196q7.957-7.956 17.653-10.315 9.695-2.359 19.891.12l363 93.717 143.608-142.326q18.674-18.674 46.326-18.674 27.653 0 46.327 18.674t18.674 46.326q0 27.653-18.674 46.327L663.174-569.522l93.478 360.761q2.479 11.196-.38 22.131-2.859 10.934-10.815 18.891l-5.718 5.478q-15.674 15.674-36.804 12.435-21.131-3.239-31.326-22.391L527.522-435.391 377.5-285.37l12.239 83.609q1.239 8.196-1.239 15.511-2.478 7.315-8.196 13.033l-5.956 5.956q-11.674 11.674-28.065 9.696-16.392-1.978-24.587-16.891l-52.24-94.761Z"/></svg>