<svg xmlns="http://www.w3.org/2000/svg" height="24" viewBox="0 -960 960 960" width="24"><path d="M725.5-190.674q-19.033 0-31.908-12.875t-12.875-31.907q0-19.033 12.875-31.908t31.908-12.875q19.033 0 31.908 12.875t12.875 31.908q0 19.032-12.875 31.907T725.5-190.674ZM277.382-64.217q-18.926 0-31.86-12.875Q232.587-89.967 232.587-109q0-19.032 12.875-31.907t31.908-12.875q18.931 0 31.737 12.875 12.806 12.875 12.806 31.907 0 19.033-12.803 31.908-12.802 12.875-31.728 12.875ZM240-190.674q-19.033 0-31.908-12.875t-12.875-31.907q0-19.033 12.875-31.908T240-280.239h360q19.033 0 31.908 12.875t12.875 31.908q0 19.032-12.875 31.907T600-190.674H240ZM402.87-64.217q-19.033 0-31.908-12.875T358.087-109q0-19.032 12.875-31.907t31.908-12.875h280q18.931 0 31.737 12.875 12.806 12.875 12.806 31.907 0 19.033-12.806 31.908T682.87-64.217h-280ZM300-318.087q-93.152 0-159.326-66.174Q74.5-450.435 74.5-543.587q0-84.435 55.478-147.75t137.435-75.272q32.957-57 89.413-89.739 56.457-32.739 123.165-32.739 90.966 0 158.542 57.5 67.576 57.5 83.011 143.978 69.717 7.435 116.837 59.631Q885.5-575.783 885.5-503.587q0 77.152-54.104 131.326Q777.292-318.087 700-318.087H300Zm0-91h400q39.69 0 67.095-27.389Q794.5-463.864 794.5-503.53t-27.405-67.111Q739.69-598.087 700-598.087h-65.5v-45.5q0-63.731-45.379-109.116-45.379-45.384-109.103-45.384-46.344 0-84.529 25.163-38.185 25.163-57.467 67.489l-11.367 27.348h-28.416q-54.827 1.92-93.783 40.806-38.956 38.886-38.956 93.614 0 55.689 39.389 95.134 39.39 39.446 95.111 39.446Zm180-194.5Z"/></svg>