<svg xmlns="http://www.w3.org/2000/svg" height="24" viewBox="0 -960 960 960" width="24"><path d="M710.044-453.826v85.935q0 18.195-12.457 30.652-12.456 12.456-30.652 12.456t-30.652-12.456q-12.457-12.457-12.457-30.652v-63.261l-39.739-71.196q-8.435 4.283-13.391 12.761-4.957 8.478-4.957 18.435v224.217l66.522 110.283q12.957 21.435.12 43.109Q619.544-71.87 594.63-71.87q-11.717 0-21.315-5.479-9.598-5.478-15.315-15.195l-78.478-129.718v-248.891q0-33.391 16.674-61.424t45.304-45.033L481.913-681.63q-20.956-38.957-18.098-82.533 2.859-43.576 33.576-74.294L533-873.544q14.674-14.674 34.185-13.934 19.511.739 32.185 16.413L827.5-602.696q9.196 11.196 14.794 24.37 5.597 13.174 6.837 27.848l35 432.261q2 18.434-10.957 32.391-12.956 13.957-31.391 13.957-17.196 0-29.153-11.337-11.956-11.337-13.956-28.533l-35.761-433.935-200.609-235.848-4.565 4.565q-8.565 9.283-9.826 20.968-1.261 11.685 4.261 22.489l157.87 279.674Zm-460.566 0L407.348-733.5q5.521-10.804 4.261-22.489-1.261-11.685-9.827-20.968l-4.565-4.565-200.608 235.848-35.761 434.696q-2 16.956-13.957 28.032-11.956 11.077-29.152 11.077-18.435 0-31.391-13.957Q73.39-99.783 75.39-118.217l35-432.261q1.239-14.674 6.718-27.848 5.478-13.174 14.673-24.37l228.37-268.369q12.674-15.674 32.446-16.413 19.772-.74 34.445 13.934l35.087 35.087q30.718 30.718 33.576 74.294 2.859 43.576-18.097 82.533l-59.587 104.021q28.63 17 45.304 45.033Q480-504.543 480-471.152v248.891L401.522-92.543q-5.718 9.717-15.696 15.195-9.978 5.479-21.696 5.479-24.913 0-37.369-21.794-12.457-21.793.5-43.228l66.521-110.044v-224.217q0-9.957-4.956-18.435-4.957-8.478-13.391-12.761l-39.739 71.196v63.261q0 18.195-12.457 30.652-12.457 12.456-30.652 12.456-18.196 0-30.652-12.456-12.457-12.457-12.457-30.652v-85.935Z"/></svg>