<svg xmlns="http://www.w3.org/2000/svg" height="24" viewBox="0 -960 960 960" width="24"><path d="M888.131-633.543v336.412q0 22.75-14.185 34.125-14.185 11.376-31.207 11.376t-31.315-11.696q-14.294-11.696-14.294-34.565v-335.652H480.631q-18.211 0-34.714-6.837-16.504-6.837-29.178-19.511l-73.261-73.261q-15.195-15.196-13.456-32.392 1.739-17.195 13.456-28.913 11.718-11.717 28.794-13.456 17.076-1.739 32.272 13.456l69.913 69.913H797.13q37.783 0 64.392 26.609 26.609 26.609 26.609 64.392ZM162.87-151.869q-37.783 0-64.392-26.609Q71.87-205.087 71.87-242.87v-474.26q0-35.87 24.337-61.761 24.337-25.892 59.49-28.283l90.043 90.044H162.87v474.26h439.347L52.174-793.674q-11.718-11.717-12.098-28.815-.38-17.098 12.098-29.576 11.717-11.718 29.315-11.718t29.315 11.718l741.5 741.5q12.479 12.522 11.979 29.217-.5 16.696-12.979 29.174-12.478 11.718-29.195 12.098-16.718.38-29.196-12.098l-99.695-99.695H162.87ZM365.848-480Zm211.391-19.63Z"/></svg>