<svg xmlns="http://www.w3.org/2000/svg" height="24" viewBox="0 -960 960 960" width="24"><path d="M377.37-743.587q-34.435 0-59.011-24.696-24.577-24.695-24.577-59.13t24.577-59.011Q342.935-911 377.37-911q34.434 0 59.13 24.576 24.696 24.576 24.696 59.011t-24.696 59.13q-24.696 24.696-59.13 24.696ZM270.652-353.065 208.848-71.043q-3.478 15.195-15.935 24.913-12.457 9.717-28.652 9.717-21.435 0-34.511-16.196-13.076-16.195-8.837-36.87l99.282-509.499-64.499 27.608V-480q0 18.435-12.577 31.011-12.576 12.576-31.01 12.576-18.435 0-31.131-12.576Q68.282-461.565 68.282-480v-119.804q0-13.913 7.957-25.229 7.956-11.315 20.63-17.032l184.761-75.283q28.913-11.717 58.229-2.619 29.315 9.097 45.511 36.532l38.717 64q21.522 34.283 55.185 58.587 33.663 24.304 75.228 32.544 18.435 4.239 31.011 17.054 12.576 12.815 12.576 31.25 0 18.435-12.696 30.511-12.695 12.076-30.891 9.837-53.044-8-98.065-32.685-45.022-24.685-78.022-63.532l-22.326 111.391 55.174 54.934q12.913 12.674 19.869 29.327 6.957 16.652 6.957 35.043V-80q0 18.435-12.576 31.01-12.576 12.577-31.011 12.577t-31.011-12.576Q350.913-61.565 350.913-80v-198.565l-80.261-74.5Zm397.435-245.022H560q-19.152 0-32.326-13.174T514.5-643.587V-851q0-19.152 13.174-32.326T560-896.5h287.413q19.152 0 32.326 13.174T892.913-851v207.413q0 19.152-13.174 32.326t-32.326 13.174H739.087v526.174q0 15.152-10.174 25.326-10.174 10.174-25.326 10.174-15.152 0-25.326-10.174-10.174-10.174-10.174-25.326v-526.174ZM705.196-715.5l-5.479 5.478q-9.478 9.478-9.478 22.435 0 12.957 9.478 22.435 9.479 9.478 22.816 9.358 13.337-.119 22.815-9.597l50.717-49.957q6.718-6.717 9.816-14.913 3.097-8.196 3.097-17.152 0-8.957-3.097-17.152-3.098-8.196-9.816-14.914l-50.717-50.717q-9.478-9.478-22.435-9.478-12.956 0-22.435 9.478Q691-820.718 691-807.381q0 13.337 9.478 22.816l4.718 5.478h-93.522q-13.717 0-22.696 8.978Q580-761.131 580-747.413q0 13.717 9.098 22.815t22.815 9.098h93.283Z"/></svg>