<svg xmlns="http://www.w3.org/2000/svg" height="24" viewBox="0 -960 960 960" width="24"><path d="M717.13-121.913q9.435 0 16.511-7.076 7.076-7.076 7.076-16.511v-76.413h76.413q9.435 0 16.511-7.076 7.076-7.076 7.076-16.511 0-9.435-7.076-16.511-7.076-7.076-16.511-7.076h-76.413V-345.5q0-9.435-7.076-16.511-7.076-7.076-16.511-7.076-9.434 0-16.511 7.076-7.076 7.076-7.076 16.511v76.413H617.13q-9.434 0-16.511 7.076-7.076 7.076-7.076 16.511 0 9.435 7.076 16.511 7.077 7.076 16.511 7.076h76.413v76.413q0 9.435 7.076 16.511 7.077 7.076 16.511 7.076Zm0 76.413q-83 0-141.5-58.5t-58.5-141.5q0-83 58.5-141.5t141.5-58.5q83 0 141.5 58.5t58.5 141.5q0 83-58.5 141.5t-141.5 58.5Zm-309.956-629q-19.152 0-32.326-13.174T361.674-720q0-19.152 13.174-32.326t32.326-13.174H802.63q19.153 0 32.327 13.174T848.131-720q0 19.152-13.174 32.326T802.63-674.5H407.174ZM196.595-154.978q-35.095 0-60.03-24.992-24.935-24.992-24.935-60.087t24.992-60.03q24.992-24.935 60.087-24.935t60.03 24.992q24.935 24.992 24.935 60.087t-24.992 60.03q-24.992 24.935-60.087 24.935Zm0-240q-35.095 0-60.03-24.992-24.935-24.992-24.935-60.087t24.992-60.03q24.992-24.935 60.087-24.935t60.03 24.992q24.935 24.992 24.935 60.087t-24.992 60.03q-24.992 24.935-60.087 24.935Zm0-240q-35.095 0-60.03-24.992-24.935-24.992-24.935-60.087t24.992-60.03q24.992-24.935 60.087-24.935t60.03 24.992q24.935 24.992 24.935 60.087t-24.992 60.03q-24.992 24.935-60.087 24.935ZM407.174-434.5q-19.152 0-32.326-13.174T361.674-480q0-19.152 13.174-32.326t32.326-13.174h59.674q17.239 0 29.097 12.935 11.859 12.935 11.859 37.109 0 17.239-11.859 29.097-11.858 11.859-29.097 11.859h-59.674Zm0 240q-19.152 0-32.326-13.174T361.674-240q0-19.152 13.174-32.326t32.326-13.174q19.152 0 32.326 13.174T452.674-240q0 19.152-13.174 32.326T407.174-194.5Z"/></svg>