<svg xmlns="http://www.w3.org/2000/svg" height="24" viewBox="0 -960 960 960" width="24"><path d="M156.174-111.869q-18.674 0-31.489-12.816-12.816-12.815-12.816-31.489t12.816-31.489q12.815-12.815 31.489-12.815h647.652q18.674 0 31.489 12.815 12.816 12.815 12.816 31.489t-12.816 31.489q-12.815 12.816-31.489 12.816H156.174Zm0-161.913q-18.674 0-31.489-12.816-12.816-12.815-12.816-31.489t12.816-31.489q12.815-12.815 31.489-12.815h647.652q18.674 0 31.489 12.815 12.816 12.815 12.816 31.489t-12.816 31.489q-12.815 12.816-31.489 12.816H156.174Zm0-161.914q-18.674 0-31.489-12.815-12.816-12.815-12.816-31.489t12.816-31.489q12.815-12.815 31.489-12.815h647.652q18.674 0 31.489 12.815 12.816 12.815 12.816 31.489t-12.816 31.489q-12.815 12.815-31.489 12.815H156.174Zm0-161.913q-18.674 0-31.489-12.815-12.816-12.815-12.816-31.489t12.816-31.489q12.815-12.816 31.489-12.816h647.652q18.674 0 31.489 12.816 12.816 12.815 12.816 31.489t-12.816 31.489q-12.815 12.815-31.489 12.815H156.174Zm0-161.913q-18.674 0-31.489-12.815-12.816-12.815-12.816-31.489t12.816-31.489q12.815-12.816 31.489-12.816h647.652q18.674 0 31.489 12.816 12.816 12.815 12.816 31.489t-12.816 31.489q-12.815 12.815-31.489 12.815H156.174Z"/></svg>