<svg xmlns="http://www.w3.org/2000/svg" height="24" viewBox="0 -960 960 960" width="24"><path d="M480-111.869q-136.109 0-232.12-94.892Q151.869-301.652 151.869-436q0-52.196 15.881-99.435 15.88-47.239 48.119-91.435L74.913-767.826q-11.718-11.718-11.718-29.315 0-17.598 11.718-29.316 11.717-11.717 29.315-11.717t29.315 11.717l692.914 692.914q11.717 11.717 11.717 29.195 0 17.479-11.717 29.196-11.718 11.717-29.316 11.717-17.597 0-29.315-11.717l-97.196-97.196q-41.239 29-88.597 44.739-47.359 15.74-102.033 15.74Zm0-91.001q34.326 0 65.272-9.282 30.945-9.283 59.228-26.326L280.478-560.5q-20.043 30.565-28.826 61.25-8.782 30.685-8.782 63.25 0 97.043 69.282 165.087Q381.435-202.87 480-202.87Zm-39.63-198.5ZM711.5-663.978q59.044 58.565 82.098 134.108 23.054 75.544 8.163 152.826-2.761 16.87-15.435 27.142-12.674 10.272-29.543 10.272-23.435 0-35.326-18.479-11.892-18.478-7.609-40.391 12.608-53.804-6.674-106.913-19.283-53.109-59.326-92.674L480-763.935l-51.391 50.391q-12.913 12.674-31.826 12.294-18.913-.38-31.826-13.054-13.674-13.674-13.674-32.446t13.674-31.685l67.304-66.304q10.195-10.196 22.63-14.794 12.435-4.598 25.109-4.598 12.674 0 25.109 4.979 12.435 4.978 22.63 14.413L711.5-663.978Zm-131.826 83.261Z"/></svg>