<svg xmlns="http://www.w3.org/2000/svg" height="24" viewBox="0 -960 960 960" width="24"><path d="M480-276.891q-57.717 0-105.315-29.337t-74.076-78.294q-7.479-12.956-2.261-27.293 5.217-14.337 19.174-19.576 12.195-5 24.152.239 11.956 5.239 18.674 16.956 17.761 32.044 49.685 51.566 31.924 19.521 69.967 19.521 56.804 0 96.848-40.043 40.043-40.044 40.043-96.848t-40.043-96.848Q536.804-616.891 480-616.891q-24.891 0-47.38 8.445-22.489 8.446-41.055 25.337h21.305q13.239.718 21.739 10.174 8.5 9.457 8.5 22.935 0 14.196-9.457 23.652-9.456 9.457-23.652 9.457h-90q-18.196 0-30.652-12.457-12.457-12.456-12.457-30.652v-90q0-14.196 9.457-23.652 9.456-9.457 23.652-9.457 13.957 0 23.174 9.457 9.217 9.456 9.935 23.413v20.543q28.761-25.326 63.804-39.369 35.044-14.044 73.087-14.044 84.435 0 143.772 59.337Q683.109-564.435 683.109-480q0 84.435-59.337 143.772Q564.435-276.891 480-276.891ZM202.87-111.869q-37.783 0-64.392-26.609-26.609-26.609-26.609-64.392V-314.5q0-19.152 13.174-32.326T157.37-360q19.152 0 32.326 13.174T202.87-314.5v111.63H314.5q19.152 0 32.326 13.174T360-157.37q0 19.153-13.174 32.327T314.5-111.869H202.87Zm554.26 0H645.5q-19.152 0-32.326-13.174T600-157.37q0-19.152 13.174-32.326T645.5-202.87h111.63V-314.5q0-19.152 13.174-32.326T802.63-360q19.153 0 32.327 13.174t13.174 32.326v111.63q0 37.783-26.609 64.392-26.609 26.609-64.392 26.609ZM111.869-645.5v-111.63q0-37.783 26.609-64.392 26.609-26.609 64.392-26.609H314.5q19.152 0 32.326 13.174T360-802.63q0 19.152-13.174 32.326T314.5-757.13H202.87v111.63q0 19.152-13.174 32.326T157.37-600q-19.153 0-32.327-13.174T111.869-645.5Zm645.261 0v-111.63H645.5q-19.152 0-32.326-13.174T600-802.63q0-19.153 13.174-32.327t32.326-13.174h111.63q37.783 0 64.392 26.609 26.609 26.609 26.609 64.392v111.63q0 19.152-13.174 32.326T802.63-600q-19.152 0-32.326-13.174T757.13-645.5Z"/></svg>