<svg xmlns="http://www.w3.org/2000/svg" height="24" viewBox="0 -960 960 960" width="24"><path d="M239.761-111.869q-19.152 0-32.326-13.174t-13.174-32.327v-357.391l-71.152 54.305q-15.674 11.674-34.066 9.576-18.39-2.098-29.826-17.772-11.195-15.435-8.837-33.707 2.359-18.271 17.794-29.706l356.13-273.805q12.435-9.434 26.729-13.913 14.293-4.478 28.967-4.478t28.967 4.478q14.294 4.479 26.729 13.913l356.608 273.805q14.674 11.435 17.294 29.706 2.62 18.272-8.576 33.707-11.435 15.674-29.826 17.772-18.392 2.098-34.066-9.576L765.739-515v357.63q0 19.153-13.174 32.327t-32.326 13.174q-19.152 0-32.326-13.174t-13.174-32.327v-359.76H285.261v359.76q0 19.153-13.174 32.327t-32.326 13.174Zm127.652-40q-17.239 0-28.978-11.859t-11.739-29.098q0-17.239 11.739-28.978t28.978-11.739h225.174q17.239 0 28.978 11.739t11.739 28.978q0 17.239-11.739 29.098-11.739 11.859-28.978 11.859H367.413Zm.239-121.674q-17.239 0-29.097-11.859-11.859-11.859-11.859-29.098 0-17.239 11.859-29.098 11.858-11.858 29.097-11.858h224.696q17.239 0 29.097 11.858 11.859 11.859 11.859 29.098 0 17.239-11.859 29.098-11.858 11.859-29.097 11.859H367.652Zm0-121.674q-17.239 0-29.097-11.859-11.859-11.859-11.859-29.098 0-17.239 11.859-29.098 11.858-11.858 29.097-11.858h224.696q17.239 0 29.097 11.858 11.859 11.859 11.859 29.098 0 17.239-11.859 29.098-11.858 11.859-29.097 11.859H367.652Zm-55.347-210.522h335.39L480-733.739l-167.695 128Z"/></svg>