<svg xmlns="http://www.w3.org/2000/svg" height="24" viewBox="0 -960 960 960" width="24"><path d="M789.087-118.087q-25.717 0-43.696-18.098-17.978-18.098-17.978-43.815t17.978-43.815q17.979-18.098 43.696-18.098 25.957 0 43.935 17.978T851-180q0 25.957-17.978 43.935t-43.935 17.978ZM400-72.587q-103.109 0-175.261-25.652T152.587-160q0-24.435 34.315-44.348t89.511-32.348V-200q0 17 11.5 28.5t28.5 11.5q17 0 28.5-11.5t11.5-28.5v-616.957q0-25.869 21.511-39.163 21.511-13.293 44.38-1.858l191.914 94.195q25.869 12.435 25.989 40.663.119 28.229-24.989 40.903l-171.631 88.435v348.847q88.631 5.717 146.228 28.891Q647.413-192.87 647.413-160q0 34.674-70.717 61.044Q505.978-72.586 400-72.586Z"/></svg>