<svg xmlns="http://www.w3.org/2000/svg" height="24" viewBox="0 -960 960 960" width="24"><path d="M110.913-142.065q-19.152 0-32.326-13.174t-13.174-32.326q0-19.152 13.174-32.326t32.326-13.174h190q-16.522-62.522-54.924-113.88-38.402-51.359-92.685-84.794-23.913-15.152-21.119-32.326 2.793-17.174 31.663-15.218 133.63 5.587 224.891 102.294T480-142.065H110.913Zm449.087 0q0-42.956-9.12-86.489-9.119-43.533-27.076-83.924 42-71.391 113.098-117.022Q708-475.13 795.913-479.283q27.826-1.956 30.859 16.098 3.033 18.055-19.598 32.163-54.043 33.435-92.685 84.794-38.641 51.359-55.163 113.163h189.761q19.152 0 32.326 13.174t13.174 32.326q0 19.152-13.174 32.326t-32.326 13.174H560Zm-79.522-245.696q-2.152-109.587 57.75-196.511 59.902-86.924 158.25-122.75 25.87-9.913 38.424 4.402 12.555 14.316-8.88 35.707-32 31.435-55.739 69.511-23.739 38.076-39.979 80.554-45.674 21.957-83.967 55.326-38.294 33.37-65.859 73.761Zm-73.956-78.826q-12.957-10.195-26.511-19.63-13.555-9.435-26.794-17.674.239-6.957 1.359-15.25 1.12-8.294 1.12-14.772 0-53.239-11.261-101.837-11.261-48.598-33.022-93.837-12.196-25.109 2.217-35.848 14.413-10.739 36.087 7.413 36 29.957 63.74 68.272 27.739 38.315 44.739 84.228-18.718 31.196-32.316 66.729-13.597 35.532-19.358 72.206Z"/></svg>