<svg xmlns="http://www.w3.org/2000/svg" height="24" viewBox="0 -960 960 960" width="24"><path d="M759.413-83.565 82.565-760.174q-11.717-11.717-12.098-28.935-.38-17.217 12.098-29.695 11.718-11.718 29.315-11.718 17.598 0 29.316 11.718l677.608 676.087q12.479 12.478 12.098 29.195-.38 16.718-12.098 29.196-12.478 12.478-29.695 12.859-17.218.38-29.696-12.098Zm-56.065-352.131v59.783L639.522-439.5v-128.348q0-14.761 9.652-24.413 9.651-9.652 24.413-9.652h104.5q26.152 0 44.989 18.837 18.837 18.837 18.837 44.989v40q0 18.478-10.141 32.5-10.142 14.022-24.902 23.022l19.043 43.369q6.478 14.957-2.239 28.033-8.717 13.076-25.674 13.076-8.609 0-16.141-4.359-7.533-4.358-11.011-13.076l-26.815-60.174h-40.685Zm0-62.391h74.739v-40h-74.739v40ZM582.63-496.87 477.587-601.913h41.217q26.153 0 44.99 18.837 18.836 18.837 18.836 44.989v41.217Zm-400.717 38.783V-390q0 13.829-9.042 22.871-9.042 9.042-22.871 9.042-13.829 0-22.871-9.042-9.042-9.042-9.042-22.871v-180q0-13.829 9.042-22.871 9.042-9.042 22.871-9.042 13.829 0 22.871 9.042 9.042 9.042 9.042 22.871v48.087h76.174V-570q0-13.829 9.042-22.871 9.042-9.042 22.871-9.042 13.829 0 22.871 9.042 9.042 9.042 9.042 22.871v180q0 13.829-9.042 22.871-9.042 9.042-22.871 9.042-13.829 0-22.871-9.042-9.042-9.042-9.042-22.871v-68.087h-76.174Zm196.174-65.435 63.826 63.826v37.783h38.304l59.305 59.826q-5.359 2-10.718 3-5.358 1-10.717 1H412.152q-14.761 0-24.413-9.652-9.652-9.652-9.652-24.413v-131.37Z"/></svg>