<svg xmlns="http://www.w3.org/2000/svg" height="24" viewBox="0 -960 960 960" width="24"><path d="M802.739-282.152q-17.022 0-31.315-11.696-14.294-11.696-14.294-34.565v-63.456h-64.456q-22.75 0-34.125-14.24-11.375-14.239-11.375-31.326t11.375-31.261q11.375-14.174 34.125-14.174h64.456v-37.369q0-116.326-81.043-196.609-81.044-80.282-196.003-80.282-43.606 0-81.79 12.141-38.185 12.141-70.946 34.424l-65.652-64.131q44.282-35 100.217-54.217Q417.848-888.131 480-888.131q75.671 0 142.651 28.614 66.979 28.614 117.086 78.688 50.106 50.074 79.25 117.01t29.144 143.58v192.587q0 22.75-14.185 34.125t-31.207 11.375ZM523.109-30.435q-18.196 0-30.652-12.456Q480-55.348 480-73.543q0-18.196 12.457-30.653 12.456-12.456 30.652-12.456h210.109l-35.696-35.217h-10.826q-37.783 0-64.392-26.609-26.608-26.609-26.608-64.392v-9.391L223.391-624.565q-9 24-14.761 51.5-5.76 27.5-5.76 52.765v37.43h70.434q37.783 0 64.392 26.609 26.608 26.609 26.608 64.392v148.999q0 37.783-26.608 64.392-26.609 26.609-64.392 26.609H202.87q-37.783 0-64.392-26.609-26.609-26.609-26.609-64.392v-277.369q0-45.957 11.457-91.424 11.456-45.468 32.174-83.468L58.152-792q-12-11.761-11.88-27.88.12-16.12 11.88-28.12 12-11.239 28.12-11.62 16.119-.38 28.16 11.657l758.59 759.354q16.152 16.153 7.576 37.163-8.576 21.011-31.446 21.011H523.109ZM202.87-391.869v148.999h70.434v-148.999H202.87Zm0 0h70.434-70.434Zm489.804 0h64.456-64.456Z"/></svg>