<svg xmlns="http://www.w3.org/2000/svg" height="24" viewBox="0 -960 960 960" width="24"><path d="M433.283-496.152ZM31.63-624.109q0-97.695 65.329-162.652 65.328-64.957 162.802-64.957 51.744 0 98.513 21.044 46.769 21.043 81.487 59.848 34.717-38.805 81.486-59.848 46.769-21.044 98.514-21.044 71.717 0 124.63 35.381 52.913 35.38 80.348 92.337 8.435 16.913 1.718 34.565-6.718 17.652-23.631 25.848-16.913 8.196-34.565 1.598-17.652-6.598-26.087-23.511-17.522-37.37-51.207-56.294-33.684-18.923-71.206-18.923-44.558 0-81.366 24.684-36.808 24.685-62.895 61.968-5.717 9.674-15.324 14.369Q450.569-655 439.761-655q-10.913 0-20.348-5.076-9.435-5.076-15.152-13.989-25.848-37.283-62.891-61.968-37.044-24.684-81.609-24.684-56.283 0-96.587 38.82t-40.304 97.788q0 33.239 13.866 67.188 13.866 33.948 49.521 78.38 35.656 44.432 97.058 103.693 61.402 59.261 156.446 143.261l73.456-64.608q13.674-12.435 31.826-11.555 18.152.881 30.754 13.596 13.746 13.872 13.127 33.524-.62 19.652-15.294 32.326l-74.173 66.087q-12.435 11.435-28.109 17.032-15.674 5.598-31.587 5.598t-31.63-5.569q-15.717-5.57-28.066-17.822-59.348-52.913-121-108.218Q197.412-326.5 146.88-384.163q-50.533-57.663-82.891-117.598Q31.63-561.696 31.63-624.109ZM704.934-394.5h-74.499q-19.153 0-32.327-13.174T584.934-440q0-19.152 13.174-32.326t32.327-13.174h74.499V-560q0-19.152 13.174-32.326t32.327-13.174q19.152 0 32.326 13.174T795.935-560v74.5h74.5q19.152 0 32.326 13.174T915.935-440q0 19.152-13.174 32.326T870.435-394.5h-74.5v74.5q0 19.152-13.174 32.326T750.435-274.5q-19.153 0-32.327-13.174T704.934-320v-74.5Z"/></svg>