<svg xmlns="http://www.w3.org/2000/svg" height="24" viewBox="0 -960 960 960" width="24"><path d="m793.63-52.935-19.934-18.934H197.37q-19.153 0-32.327-13.174t-13.174-32.327q0-19.152 13.174-32.326t32.327-13.174h34.499V-280q0-60.043 27.185-113.304T335.087-480q-32-22.152-54.022-52.663-22.022-30.511-34.587-66.663L55-790.804Q42.522-803.283 42.641-820.5q.12-17.217 12.598-29.696 12.478-12.478 29.696-12.478 17.217 0 29.695 12.478l738.392 738.631Q865.5-99.087 865.381-82.25q-.12 16.837-12.598 29.315-12.479 12.479-29.576 12.479-17.098 0-29.577-12.479ZM637.13-797.13H305.392q-22.87 0-34.185-14.294-11.316-14.293-11.316-31.206 0-17.153 11.316-31.327 11.315-14.174 34.185-14.174H762.63q19.153 0 32.327 13.174t13.174 32.327q0 19.152-13.174 32.326T762.63-797.13h-34.499V-680q0 53.565-21.566 101.989Q685-529.587 644.87-495.87q-11.957 10.913-28.87 6.609t-27.304-19.022Q578.065-523 579.37-540.272q1.304-17.272 13.021-30.663 20.131-21.565 32.435-50.13Q637.13-649.63 637.13-680v-117.13ZM322.87-162.87h314.26v-45.804L420.196-425.37q-44.283 18.522-70.805 57.924Q322.87-328.043 322.87-280v117.13Zm405.261 0Z"/></svg>