<svg xmlns="http://www.w3.org/2000/svg" height="24" viewBox="0 -960 960 960" width="24"><path d="M797.13-480q0 103.326-35.043 194.63-35.044 91.305-96.609 164.587-11.956 14.435-30.75 15.576-18.793 1.142-31.989-12.054-13.196-13.196-12.315-32.37.88-19.174 12.837-34.608 49.608-60.848 77.434-135.979 27.826-75.13 27.826-159.782 0-84.652-27.826-159.782-27.826-75.131-77.434-135.979-11.957-15.434-12.837-34.608-.881-19.174 12.315-32.37 13.196-13.196 31.989-12.054 18.794 1.141 30.75 15.576 61.565 73.282 96.609 164.587Q797.13-583.326 797.13-480Zm-159.043 0q0 70.565-22.283 133.109-22.282 62.543-63.087 113.826Q541-217.87 522.326-217.109q-18.674.761-31.87-12.435-13.195-13.195-13.434-31.869-.24-18.674 11.478-34.109 29.369-38.848 45.174-85.717 15.804-46.87 15.804-98.761t-15.804-98.761q-15.805-46.869-45.174-85.717-11.718-15.435-11.478-34.109.239-18.674 13.434-31.869 13.196-13.196 31.87-12.435 18.674.761 30.391 15.956 40.805 51.283 63.087 113.826Q638.087-550.565 638.087-480Zm-159.044 0q0 37.804-10.782 72.228-10.783 34.424-30.826 62.946-10.478 15.435-28.652 15.435t-31.37-13.196q-12.435-12.435-13.554-31.109-1.12-18.674 7.641-34.826 9.087-15.848 14.011-33.717 4.924-17.87 4.924-37.761 0-19.891-4.924-37.761-4.924-17.869-14.011-33.717-8.761-16.152-7.641-34.826 1.119-18.674 13.554-31.109 13.196-13.196 31.37-13.196t28.652 15.435q20.043 28.522 30.826 62.946 10.782 34.424 10.782 72.228ZM320-480q0 33-23.5 56.5T240-400v200q0 18.674-12.815 31.489-12.815 12.815-31.489 12.815t-31.49-12.815Q151.391-181.326 151.391-200v-560q0-18.674 12.815-31.489 12.816-12.815 31.49-12.815t31.489 12.815Q240-778.674 240-760v200q33 0 56.5 23.5T320-480Z"/></svg>