<svg xmlns="http://www.w3.org/2000/svg" height="24" viewBox="0 -960 960 960" width="24"><path d="M770.972-75.074 604.63-240.413l-59.913 61.435q-12.674 12.674-29.206 19.891-16.533 7.218-35.446 7.218H218.456q-18.21 0-34.714-6.837-16.503-6.837-29.177-19.511l-59.13-59.131q-26.348-26.348-26.729-64.532-.38-38.185 25.968-65.533l188.956-194L74.152-770.891q-12.478-12.511-12.478-29.712 0-17.202 12.503-29.68 12.504-12.478 29.696-12.478t29.67 12.478l696.74 696.74q12.478 12.521 12.478 29.217 0 16.696-12.503 29.174-12.504 12.478-29.696 12.478t-29.59-12.4ZM219.217-242.87h260.087l60.674-62.195-192.456-192.457-188.957 194 60.652 60.652Zm662.174-317.652q0 17.913-6.3 34.443-6.301 16.53-20.048 30.21L754.239-392.783q-13.594 13.674-32.286 13.674t-32.366-13.674q-13.435-13.435-13.054-31.706.38-18.272 13.054-31.946l101.565-104.848L597.935-754.5 496.37-650.652q-12.913 13.674-31.946 13.674T431.645-650.7q-12.602-12.578-12.602-30.874t12.674-31.97l100.804-104.847q13.674-13.674 30.588-20.392 16.913-6.717 34.065-6.717 17.913 0 34.58 6.3 16.667 6.301 29.311 20.048l193.978 193.978q13.674 12.674 20.011 29.707 6.337 17.032 6.337 34.945Zm-320.239 39.304ZM444.13-401.674Z"/></svg>