<svg xmlns="http://www.w3.org/2000/svg" height="24" viewBox="0 -960 960 960" width="24"><path d="M820.113-298.087q-25.844 0-43.935-18.058T758.087-360v-100q0-25.957 18.091-43.935t43.935-17.978q25.844 0 43.822 17.978T881.913-460v100q0 25.797-17.978 43.855-17.978 18.058-43.822 18.058Zm-.079 146.935q-8.751 0-15.349-6.574-6.598-6.574-6.598-15.339v-39.848q-49.391-7.717-84.185-41.891-34.793-34.174-41.75-83.566-1.239-8.956 5.376-15.293T692.963-360q8.819 0 14.798 4.478 5.978 4.479 8.098 12.957 6.358 38.152 35.798 63.109Q781.097-254.5 820-254.5q38.152 0 67.587-24.076 29.435-24.076 35.913-61.989 2-8.718 8.513-14.076Q938.525-360 947.208-360t15.281 5.859q6.598 5.858 5.359 14.576-6.478 49.63-41.391 84.163-34.913 34.533-84.544 42.489v39.848q0 8.765-6.564 15.339-6.563 6.574-15.315 6.574ZM186.369-652.196q0-32.609 11.826-61.435t34.718-51.587q22.652-22.521 51.065-34.695 28.413-12.174 60.065-12.479 14.195-1.348 21.228 12.326 7.033 13.674-1.924 27.587-16.282 26.718-24.043 57.359-7.761 30.641-7.761 62.924 0 31.918 7.641 62.339 7.641 30.422 23.924 58.183 7.717 14.152 1.304 27.348-6.413 13.195-20.608 12.565-31.653-.305-60.065-12.098-28.413-11.794-51.066-34.554-22.652-22.761-34.478-51.968-11.826-29.206-11.826-61.815ZM22.543-235.935v-31.478q0-32.804 15.446-61.206 15.445-28.403 43.293-44.598 19.696-11.326 41.91-20.787 22.215-9.461 47.72-16.67 15.674-6.391 27.783 8.902 12.109 15.294.391 34.077-13.891 22.608-20.717 47.607-6.826 24.998-6.826 52.675v28.609q0 13.869 2.217 27.38 2.218 13.511 7.131 27.381 4.478 13.761-2.663 25-7.142 11.239-20.381 11.239h-47.173q-36.587 0-62.36-25.772-25.77-25.772-25.77-62.359Zm557.135-248.13q-69.352 0-118.744-49.387-49.391-49.388-49.391-118.74t49.387-118.624q49.387-49.271 118.739-49.271t118.744 49.318q49.391 49.318 49.391 118.573 0 69.354-49.387 118.742-49.387 49.389-118.739 49.389Zm-.013-91.001q31.813 0 54.476-22.654 22.663-22.655 22.663-54.467 0-31.813-22.655-54.357-22.654-22.543-54.467-22.543T525.206-706.5q-22.663 22.586-22.663 54.304 0 31.816 22.655 54.473 22.654 22.657 54.467 22.657ZM342.543-147.804q-37.783 0-64.391-26.609-26.609-26.609-26.609-64.391v-28.609q0-36.63 18.315-67.304t50.228-46.87q51-26 116.457-44.239 65.457-18.239 143.13-18.239 7.392 0 15.761.619 8.37.62 16.24 1.098 19.152.718 31.728 13.989 12.576 13.272 11.859 32.424-.718 19.153-14.37 31.729t-32.804 11.858q-6.913-.478-14.207-.597-7.293-.12-14.207-.12-70.804 0-125.586 17.283-54.783 17.282-90.783 35.282-10 5-15.38 14.197-5.381 9.197-5.381 19.847v27.652h271q22.75 0 34.125 14.184 11.375 14.185 11.375 31.207t-11.375 31.315q-11.375 14.294-34.125 14.294h-271Zm237.13-504.392Zm0 413.392Z"/></svg>