<svg xmlns="http://www.w3.org/2000/svg" height="24" viewBox="0 -960 960 960" width="24"><path d="m99.13-586.652 136.544-245.653q6.82-12.378 17.049-18.004 10.23-5.626 22.733-5.626 12.504 0 22.733 5.626 10.23 5.626 17.05 18.004l136.305 245.653q5.956 11.434 5.337 22.989-.62 11.554-6.303 21.742-5.683 10.187-15.913 16.413-10.23 6.225-22.904 6.225H138.913q-12.674 0-22.904-6.225-10.23-6.226-15.913-16.413-5.683-10.188-6.303-21.742-.62-11.555 5.337-22.989Zm176.566 481.957q-69.354 0-118.743-49.327-49.388-49.328-49.388-118.595 0-70.318 49.387-119.209 49.387-48.891 118.739-48.891t118.624 49.387q49.272 49.387 49.272 118.739t-49.318 118.624q-49.318 49.272-118.573 49.272Zm-.009-91.001q31.813 0 54.356-22.586 22.544-22.587 22.544-54.305 0-31.816-22.587-54.473t-54.304-22.657q-31.817 0-54.474 22.654-22.657 22.655-22.657 54.468 0 31.813 22.655 54.356 22.654 22.543 54.467 22.543Zm-59.209-414.587h117.957l-58.979-105.913-58.978 105.913Zm305.435 460.088v-245.022q0-19.153 13.174-32.326 13.174-13.174 32.326-13.174h245.022q19.152 0 32.326 13.174 13.174 13.173 13.174 32.326v245.022q0 19.152-13.174 32.326t-32.326 13.174H567.413q-19.152 0-32.326-13.174t-13.174-32.326Zm91-45.501h154.022v-154.021H612.913v154.021Zm47.544-348.934-54.196-46.196q-72.587-61.348-98.467-96.642-25.881-35.293-25.881-77.728 0-48.587 33.054-80.902 33.055-32.315 83.403-32.315 27.502 0 51.439 12.627t40.235 34.851q16.34-22.224 40.339-34.851 24-12.627 51.574-12.627 50.348 0 83.283 32.315 32.934 32.315 32.934 80.902 0 42.435-25.88 77.728-25.881 35.294-98.468 96.642l-54.195 46.196q-12.674 11.434-29.587 11.434t-29.587-11.434Zm29.587-94.957q69.847-58.326 93.489-82.25 23.641-23.924 23.641-38.968 0-11.713-6.731-18.922-6.732-7.208-18.399-7.208-9.341 0-18.214 5.261t-22.634 18.543l-51.152 47.479-50.913-47.479q-13.761-13.282-22.783-18.543-9.022-5.261-18.304-5.261-11.668 0-18.399 7.208-6.732 7.209-6.732 18.922 0 15.044 23.642 38.968 23.641 23.924 93.489 82.25Zm0-73.935Zm-414.588 49.783Zm.24 391.152Zm414.109 0Z"/></svg>