<svg xmlns="http://www.w3.org/2000/svg" height="24" viewBox="0 -960 960 960" width="24"><path d="M160-280v-400 400Zm0 91q-37.783 0-64.391-26.609-26.61-26.608-26.61-64.391v-400q0-37.783 26.61-64.391Q122.217-771 160-771h640q37.783 0 64.391 26.609Q891-717.783 891-680v195.935q0 22.869-14.174 34.185-14.174 11.315-31.326 11.315-16.913 0-31.206-11.435Q800-461.435 800-484.304V-680H160v400h273.065q19.152 0 32.326 13.174t13.174 32.326q0 19.152-13.174 32.326T433.065-189H160Zm200-131h120q17 0 28.5-11.5T520-360q0-17-11.5-28.5T480-400H360q-17 0-28.5 11.5T320-360q0 17 11.5 28.5T360-320Zm356.956 131H603.109q-19.152 0-32.326-13.174T557.609-234.5q0-19.152 13.174-32.326T603.109-280h113.847l-27.391-27.391q-12.435-12.435-12.315-30.728.12-18.294 14.033-32.207Q703.957-383 723.109-383t31.826 12.674l104 103.761q13.674 13.674 13.674 32.065t-13.674 32.065l-104 103.761Q742.261-86 723.37-85.619q-18.892.38-33.044-13.772-12.435-12.435-12.435-31.109t12.435-31.109L716.956-189ZM240-560q17 0 28.5-11.5T280-600q0-17-11.5-28.5T240-640q-17 0-28.5 11.5T200-600q0 17 11.5 28.5T240-560Zm120 0q17 0 28.5-11.5T400-600q0-17-11.5-28.5T360-640q-17 0-28.5 11.5T320-600q0 17 11.5 28.5T360-560Zm120 0q17 0 28.5-11.5T520-600q0-17-11.5-28.5T480-640q-17 0-28.5 11.5T440-600q0 17 11.5 28.5T480-560Zm120 0q17 0 28.5-11.5T640-600q0-17-11.5-28.5T600-640q-17 0-28.5 11.5T560-600q0 17 11.5 28.5T600-560Zm120 0q17 0 28.5-11.5T760-600q0-17-11.5-28.5T720-640q-17 0-28.5 11.5T680-600q0 17 11.5 28.5T720-560ZM240-440q17 0 28.5-11.5T280-480q0-17-11.5-28.5T240-520q-17 0-28.5 11.5T200-480q0 17 11.5 28.5T240-440Zm120 0q17 0 28.5-11.5T400-480q0-17-11.5-28.5T360-520q-17 0-28.5 11.5T320-480q0 17 11.5 28.5T360-440Zm120 0q17 0 28.5-11.5T520-480q0-17-11.5-28.5T480-520q-17 0-28.5 11.5T440-480q0 17 11.5 28.5T480-440Zm120 0q19.87 0 29.935-12.935Q640-465.87 640-480q0-17-11.5-28.5T600-520q-17 0-28.5 11.5T560-480q0 16.522 11.261 28.261T600-440Zm80-40q0 17 11.5 28.5T720-440q17 0 28.5-11.5T760-480v1.261V-480q0-17-11.5-28.5T720-520q-17 0-28.5 11.5T680-480Z"/></svg>