<svg xmlns="http://www.w3.org/2000/svg" height="24" viewBox="0 -960 960 960" width="24"><path d="M790.891-55.652 84.848-761.696q-12.478-12.51-11.978-29.711.5-17.202 13.003-29.68 12.503-12.478 29.696-12.478 17.192 0 29.67 12.478l705.044 706.044-59.392 59.39ZM360-320q-17 0-28.5-11.5T320-360q0-17 11.5-28.5T360-400h205.326l80 80H360Zm531-360v375.217q0 22.75-14.185 34.125-14.184 11.375-31.206 11.375t-31.315-11.375Q800-282.033 800-304.783V-680H424.783q-22.75 0-34.125-14.239t-11.375-31.326q0-17.087 11.375-31.261T424.783-771H800q37.783 0 64.391 26.609Q891-717.783 891-680ZM160-189q-37.783 0-64.391-26.609-26.61-26.608-26.61-64.391v-400q0-37.304 25.892-63.674 25.891-26.37 63.196-27.087h36.239l91 90.761H160v400h525.326l91 91H160Zm206.543-291Zm235.131-1.674ZM240-560q-17 0-28.5-11.5T200-600q0-17 11.5-28.5T240-640q17 0 28.5 11.5T280-600q0 17-11.5 28.5T240-560Zm269.435-13.674-55.522-56q5-4.283 11.876-7.304Q472.665-640 480-640q17 0 28.5 11.5T520-600q0 7.418-3.022 14.372-3.021 6.954-7.543 11.954ZM600-560q-17 0-28.5-11.5T560-600q0-17 11.5-28.5T600-640q17 0 28.5 11.5T640-600q0 17-11.5 28.5T600-560Zm120 0q-17 0-28.5-11.5T680-600q0-17 11.5-28.5T720-640q17 0 28.5 11.5T760-600q0 17-11.5 28.5T720-560ZM240-440q-17 0-28.5-11.5T200-480q0-17 11.5-28.5T240-520q17 0 28.5 11.5T280-480q0 17-11.5 28.5T240-440Zm120 0q-17 0-28.5-11.5T320-480q0-17 11.5-28.5T360-520q17 0 28.5 11.5T400-480q0 17-11.5 28.5T360-440Zm269.674-13.913-56-55.522q5-4.522 11.954-7.543Q592.582-520 600-520q17 0 28.5 11.5T640-480q0 7.335-3.022 14.211-3.021 6.876-7.304 11.876ZM720-440q-17 0-28.5-11.5T680-480q0-17 11.5-28.5T720-520q17 0 28.5 11.5T760-480q0 17-11.5 28.5T720-440Z"/></svg>