<svg xmlns="http://www.w3.org/2000/svg" height="24" viewBox="0 -960 960 960" width="24"><path d="M235.456-280q-34.479 0-59.033-24.554-24.554-24.553-24.554-59.033V-634.5q0-19.152 13.174-32.326T197.37-680q19.152 0 32.326 13.174T242.87-634.5v265.891h107.086V-634.5q0-19.152 13.174-32.326T395.456-680q19.153 0 32.327 13.174t13.174 32.326v270.913q0 34.48-24.484 59.033Q391.99-280 357.609-280H235.456Zm364.259 0q-34.389 0-58.965-24.554-24.576-24.553-24.576-59.033 0-16.594 11.225-27.819 11.225-11.224 27.818-11.224h17.935q14.46 0 24.241 9.781 9.781 9.781 9.781 24.24H717.13v-69.478H599.761q-34.48 0-59.033-24.554-24.554-24.553-24.554-59.033v-74.978q0-34.381 24.554-58.865Q565.281-680 599.761-680h125.022q34.381 0 58.864 24.483 24.484 24.484 24.484 58.865 0 16.522-11.381 27.902-11.38 11.38-27.902 11.38h-17.696q-14.459 0-24.24-9.781-9.782-9.781-9.782-24.24H607.174v69.478h117.609q34.381 0 58.864 24.483 24.484 24.484 24.484 58.865v74.978q0 34.48-24.489 59.033Q759.153-280 724.764-280H599.715Z"/></svg>