<svg xmlns="http://www.w3.org/2000/svg" height="24" viewBox="0 -960 960 960" width="24"><path d="M585.739-371H717.13v-218H585.739v218ZM242.87-280q-37.783 0-64.392-26.609-26.609-26.609-26.609-64.391v-218q0-37.782 26.609-64.391Q205.087-680 242.87-680h131.152q19.152 0 32.326 13.174t13.174 32.326q0 19.152-13.174 32.326T374.022-589H242.87v218h131.152q19.152 0 32.326 13.174t13.174 32.326q0 19.152-13.174 32.326T374.022-280H242.87Zm342.869 0q-37.782 0-64.391-26.609-26.609-26.609-26.609-64.391v-218q0-37.782 26.609-64.391Q547.957-680 585.739-680H717.13q37.783 0 64.392 26.609 26.609 26.609 26.609 64.391v218q0 37.782-26.609 64.391Q754.913-280 717.13-280H585.739Z"/></svg>