<svg xmlns="http://www.w3.org/2000/svg" height="24" viewBox="0 -960 960 960" width="24"><path d="M153.109-350.695q-17.914-13.674-17.653-35.805.261-22.13 18.387-35.852 12.461-9.148 27.494-9.267 15.033-.12 27.467 9.315l270.957 209.956 271.435-209.956q12.434-9.196 27.348-9.315 14.913-.12 27.374 9.028 18.126 13.722 18.506 35.972.381 22.25-17.533 35.924L535.457-139.739q-25.109 19.152-55.816 19.272-30.706.12-55.576-19.272L153.109-350.695Zm270.956-4.914L198.848-531.022q-35.305-27.263-35.305-71.566t35.305-71.651l225.217-175.413q25.109-19.153 55.696-19.153 30.587 0 55.696 19.153l225.217 175.413q35.304 27.263 35.304 71.566t-35.304 71.651L535.457-355.609q-25.109 19.153-55.696 19.153-30.587 0-55.696-19.153Zm55.696-72.609L704.978-602.63 479.761-776.804 254.544-602.63l225.217 174.412Zm0-174.412Z"/></svg>