<svg xmlns="http://www.w3.org/2000/svg" height="24" viewBox="0 -960 960 960" width="24"><path d="M111.869-270.174v-285.043q0-33.034 24.141-55.713 24.14-22.679 57.012-20.679 80.195 11.522 153.25 44.946Q419.326-553.239 480-498.957q60.674-54.282 133.728-87.706 73.055-33.424 153.25-44.946 32.872-2 57.012 20.679 24.141 22.679 24.141 55.713v285.043q0 33.292-21.837 56.701-21.837 23.408-55.033 25.647-65.081 10.256-126.095 33.846-61.014 23.589-114.198 62.169-11.251 9.137-24.109 13.518Q494-73.913 480-73.913q-14 0-26.859-4.38-12.858-4.38-24.109-13.518-53.184-38.58-114.198-62.169-61.014-23.59-126.095-33.846-33.196-2.239-55.033-25.647-21.837-23.409-21.837-56.701ZM480-165.435q61.326-46.282 131.609-74.522 70.282-28.239 145.521-38.195v-258.782q-72.043 11.804-141.945 50.108Q545.283-448.521 480-383.956q-64.087-63.37-134.109-101.674-70.021-38.304-143.021-51.304v258.782q74.282 9.478 144.684 37.837 70.403 28.358 132.446 74.88Zm.032-430.5q-67.467 0-115.543-48.044-48.076-48.044-48.076-115.511t48.044-115.662q48.045-48.196 115.511-48.196 67.467 0 115.543 48.196 48.076 48.195 48.076 115.662 0 67.467-48.044 115.511-48.045 48.044-115.511 48.044Zm0-87.413q31.533 0 53.957-22.304 22.424-22.305 22.424-53.838t-22.456-53.989q-22.455-22.456-53.989-22.456-31.533 0-53.957 22.456t-22.424 53.989q0 31.533 22.456 53.838 22.455 22.304 53.989 22.304ZM480-759.761Zm0 375.805Z"/></svg>