<svg xmlns="http://www.w3.org/2000/svg" height="24" viewBox="0 -960 960 960" width="24"><path d="M421.108-191.869H242.87q-37.783 0-64.392-26.609-26.609-26.609-26.609-64.392v-355.695q0-21.631 9.576-40.902 9.577-19.272 26.729-31.946l237.13-177.848q12.435-9.196 26.229-13.674 13.793-4.478 28.467-4.478t28.467 4.478q13.794 4.478 26.229 13.674l238.087 178.565q16.674 12.435 26.011 31.109t9.337 39.826v60.869q0 19.152-13.294 32.326-13.293 13.174-33.402 13.174-18.674 0-31.489-12.815-12.816-12.815-12.816-31.489v-60.869L480-816.413 242.87-638.565v355.695h178.238q19.152 0 32.326 13.174t13.174 32.326q0 19.153-13.174 32.327t-32.326 13.174ZM480-549.761ZM740-66.608l-60.304-133.088L546.608-260l133.088-60.304L740-453.392l60.304 133.088L933.392-260l-133.088 60.304L740-66.608Z"/></svg>