<svg xmlns="http://www.w3.org/2000/svg" height="24" viewBox="0 -960 960 960" width="24"><path d="M117.37-71.87q-19.153 0-32.327-13.173Q71.87-98.217 71.87-117.37v-325.26q0-19.153 13.174-32.327t32.327-13.174h114.499V-640q0-103.388 72.372-175.759Q376.612-888.131 480-888.131h160q103.388 0 175.759 72.372Q888.131-743.388 888.131-640v522.63q0 19.153-13.174 32.327T842.63-71.87q-19.152 0-32.326-13.174T797.13-117.37v-74.499H648.131v74.499q0 19.153-13.174 32.327T602.63-71.87H117.37Zm530.761-211H797.13V-640q0-65.043-46.043-111.087Q705.043-797.13 640-797.13H480q-65.043 0-111.087 46.043Q322.87-705.043 322.87-640v151.869h279.76q19.153 0 32.327 13.174t13.174 32.327v159.76ZM360-284.804 557.13-397.13H162.87L360-284.804ZM162.87-162.87h394.26v-164.26l-151.869 86.217q-10.182 5.652-21.495 9.043-11.312 3.392-23.757 3.392-12.444 0-23.763-3.392-11.32-3.391-21.507-9.043L162.87-327.13v164.26Zm0-234.26v26-1 54-9 164.26-164.26 9-54 1-26ZM440-560.717q-17 0-28.5-11.5t-11.5-28.5q0-17 11.5-28.5t28.5-11.5h240q17 0 28.5 11.5t11.5 28.5q0 17-11.5 28.5t-28.5 11.5H440Z"/></svg>