<svg xmlns="http://www.w3.org/2000/svg" height="24" viewBox="0 -960 960 960" width="24"><path d="M440-280h80q35.63 0 59.609-23.978 23.978-23.979 23.978-59.609v-74.5q0-35.63-23.978-59.728Q555.63-521.913 520-521.913h-80v-74.5h81.913q17.712 0 29.693-12.05 11.981-12.05 11.981-29.863 0-17.711-11.981-29.693Q539.625-680 521.913-680H440q-35.63 0-59.609 23.978-23.978 23.979-23.978 59.609v232.826q0 35.63 23.978 59.609Q404.37-280 440-280Zm0-158.087h80v74.5h-80v-74.5ZM202.87-111.869q-37.783 0-64.392-26.609-26.609-26.609-26.609-64.392v-554.26q0-37.783 26.609-64.392 26.609-26.609 64.392-26.609h554.26q37.783 0 64.392 26.609 26.609 26.609 26.609 64.392v554.26q0 37.783-26.609 64.392-26.609 26.609-64.392 26.609H202.87Zm0-91.001h554.26v-554.26H202.87v554.26Zm0-554.26v554.26-554.26Z"/></svg>