<svg xmlns="http://www.w3.org/2000/svg" height="24" viewBox="0 -960 960 960" width="24"><path d="M861.261-382.587 577.413-98.739q-13.503 13.435-30.382 20.152-16.879 6.718-34.031 6.718-17.152 0-34.031-6.718-16.879-6.717-30.382-20.152l-350.37-350.37q-12.434-12.434-19.391-28.938-6.957-16.503-6.957-34.714V-797.37q0-37.438 26.662-64.1 26.661-26.661 64.099-26.661h284.609q18.08 0 35.029 7.218 16.95 7.217 29.384 19.891l349.609 350.131q13.674 13.673 20.011 30.587 6.337 16.913 6.337 34.041 0 17.127-6.337 33.684t-20.011 29.992ZM513-162.87l283.37-283.369L446-797.13H162.87v283.369L513-162.87ZM262.363-638.087q24.789 0 42.17-17.352 17.38-17.353 17.38-42.142t-17.352-42.169q-17.353-17.38-42.142-17.38t-42.169 17.352q-17.38 17.352-17.38 42.141 0 24.789 17.352 42.17 17.352 17.38 42.141 17.38ZM480-480Zm72.065 186.5 106.739-106.978q11-10.91 17.5-25.786 6.5-14.876 6.5-31.736 0-33.522-23.829-57.402-23.83-23.881-57.588-23.881-18.865 0-37.126 10.761t-44.15 36.761q-29.872-27.761-46.794-37.641-16.921-9.881-34.839-9.881-33.521 0-57.402 23.881-23.88 23.88-23.88 57.479 0 16.799 6.38 31.622 6.381 14.823 17.381 25.823L487.935-293.5q13.761 13.674 32.108 13.674 18.348 0 32.022-13.674Z"/></svg>