<svg xmlns="http://www.w3.org/2000/svg" height="24" viewBox="0 -960 960 960" width="24"><path d="M71.87-717.13q0-37.783 26.608-64.392 26.609-26.609 64.392-26.609h634.26q37.783 0 64.392 26.609 26.609 26.609 26.609 64.392v71.63q0 19.152-13.174 32.326T842.63-600q-19.152 0-32.326-13.174T797.13-645.5v-71.63H162.87v71.63q0 19.152-13.174 32.326T117.37-600q-19.153 0-32.327-13.174T71.87-645.5v-71.63Zm91 565.261q-37.783 0-64.392-26.609Q71.87-205.087 71.87-242.87v-71.63q0-19.152 13.174-32.326T117.37-360q19.152 0 32.326 13.174T162.87-314.5v71.63h634.26v-71.63q0-19.152 13.174-32.326T842.63-360q19.153 0 32.327 13.174t13.174 32.326v71.63q0 37.783-26.609 64.392-26.609 26.609-64.392 26.609H162.87ZM400-280q11 0 21-5.5t15-16.5l124-248 44 88q5 11 15 16.5t21 5.5h208.131q17 0 28.5-11.5t11.5-28.5q0-17-11.5-28.5t-28.5-11.5H665l-69-138q-5-11-15-15.5t-21-4.5q-11 0-21 4.5T524-658L400-410l-44-88q-5-11-15-16.5t-21-5.5H111.869q-17 0-28.5 11.5T71.87-480q0 17 11.5 28.5t28.5 11.5H295l69 138q5 11 15 16.5t21 5.5Zm80-200Z"/></svg>