<svg xmlns="http://www.w3.org/2000/svg" height="24" viewBox="0 -960 960 960" width="24"><path d="M232.688-396.413q-34.536 0-59.112-24.554Q149-445.52 149-480q0-34.674 24.553-59.13 24.554-24.457 59.034-24.457 34.578 0 59.202 24.457 24.624 24.456 24.624 59.01 0 34.555-24.594 59.131t-59.131 24.576Zm247.432 0q-34.555 0-59.131-24.554Q396.413-445.52 396.413-480q0-34.674 24.554-59.13Q445.52-563.587 480-563.587q34.674 0 59.13 24.457 24.457 24.456 24.457 59.01 0 34.555-24.457 59.131-24.456 24.576-59.01 24.576Zm247.361 0q-34.606 0-59.25-24.554Q643.587-445.52 643.587-480q0-34.674 24.644-59.13 24.644-24.457 59.25-24.457t59.063 24.457Q811-514.674 811-480.12q0 34.555-24.456 59.131-24.457 24.576-59.063 24.576Z"/></svg>