<svg xmlns="http://www.w3.org/2000/svg" height="24" viewBox="0 -960 960 960" width="24"><path d="M186.848-759.304v558.608q-17.479-18.674-32.479-39.467-15-20.794-27.521-42.946v-393.782q12.521-22.152 27.521-42.946 15-20.793 32.479-39.467Zm166.217-106.044v770.696q-21-7.239-41-16.098-20-8.859-39-20.098v-698.304q19-11.239 39-20.098 20-8.859 41-16.098ZM645.5-109.413v-741.174q106.239 47.957 173.12 146.913Q885.5-604.717 885.5-480q0 124.717-66.88 223.674-66.881 98.956-173.12 146.913ZM480-74.5q-10.239 0-20.359-.5-10.119-.5-20.358-1.5v-807q10.239-1 20.358-1.5 10.12-.5 20.359-.5 20 0 39.761 1.88 19.761 1.881 39.522 5.881v795.478q-19.761 4-39.522 5.88Q500-74.5 480-74.5Z"/></svg>