<svg xmlns="http://www.w3.org/2000/svg" height="24" viewBox="0 -960 960 960" width="24"><path d="m342.02-362.02 27.78 59.39q3.39 6.72 10.15 6.72 6.77 0 10.25-6.72l27.78-59.39 59.39-27.78q6.72-3.39 6.72-10.15 0-6.77-6.72-10.25l-59.39-27.78-27.78-59.39q-3.39-6.72-10.15-6.72-6.77 0-10.25 6.72l-27.78 59.39-59.39 27.78q-6.72 3.39-6.72 10.15 0 6.77 6.72 10.25l59.39 27.78Zm251.96-51.96-32.59-15.82q-6.72-3.39-6.72-10.15 0-6.77 6.72-10.25l32.59-15.82 15.82-32.59q3.39-6.72 10.15-6.72 6.77 0 10.25 6.72l15.82 32.59 32.59 15.82q6.72 3.39 6.72 10.15 0 6.77-6.72 10.25l-32.59 15.82-15.82 32.59q-3.39 6.72-10.15 6.72-6.77 0-10.25-6.72l-15.82-32.59ZM162.87-808.13l65 130q7 14 20 22t28 8q30 0 46-25.5t2-52.5l-41-82h80l65 130q7 14 20 22t28 8q30 0 46-25.5t2-52.5l-41-82h80l65 130q7 14 20 22t28 8q30 0 46-25.5t2-52.5l-41-82h114.26q37.78 0 64.39 26.61t26.61 64.39v474.26q0 37.78-26.61 64.39t-64.39 26.61H162.87q-37.78 0-64.39-26.37t-26.61-63.91v-474.98q0-37.78 26.61-64.39t64.39-26.61Zm0 251v314.26h634.26v-314.26H162.87Zm0 0v314.26-314.26Z"/></svg>