<svg xmlns="http://www.w3.org/2000/svg" height="24" viewBox="0 -960 960 960" width="24"><path d="M237.82-114.5q-52.603 0-89.396-36.813-36.794-36.814-36.794-89.404V-600q0-19.152 13.174-32.326T157.13-645.5q19.153 0 32.327 13.174Q202.63-619.152 202.63-600v359.283q0 14.967 10.125 25.092Q222.88-205.5 237.848-205.5q14.967 0 25.092-10.125 10.125-10.125 10.125-25.092v-478.566q0-52.59 36.822-89.404 36.821-36.813 89.424-36.813 52.602 0 89.396 36.813 36.793 36.814 36.793 89.404v478.566q0 14.967 10.125 25.092Q545.75-205.5 560.717-205.5q14.968 0 25.093-10.125t10.125-25.092v-478.566q0-52.59 36.821-89.404Q669.578-845.5 722.18-845.5q52.603 0 89.396 36.813 36.794 36.814 36.794 89.404V-360q0 19.152-13.174 32.326T802.87-314.5q-19.153 0-32.327-13.174Q757.37-340.848 757.37-360v-359.283q0-14.967-10.125-25.092Q737.12-754.5 722.152-754.5q-14.967 0-25.092 10.125-10.125 10.125-10.125 25.092v478.566q0 52.59-36.822 89.404-36.821 36.813-89.424 36.813-52.602 0-89.396-36.813-36.793-36.814-36.793-89.404v-478.566q0-14.967-10.125-25.092Q414.25-754.5 399.283-754.5q-14.968 0-25.093 10.125t-10.125 25.092v478.566q0 52.59-36.821 89.404Q290.422-114.5 237.82-114.5Z"/></svg>