<svg xmlns="http://www.w3.org/2000/svg" height="24" viewBox="0 -960 960 960" width="24"><path d="M500-602.63v-160q0-19.153 13.174-32.327t32.326-13.174h93.174q12.491 0 23.278 6.337 10.787 6.337 16.505 17.533l78.956 141.152h-59.435l-29-57.521q-5.717-12.196-17.028-18.533-11.312-6.337-23.754-6.337h-44.37q-8 0-14 6t-6 14q0 8 6 14t14 6h48.718l28.76 57.282q5.718 12.196 16.914 18.653 11.195 6.456 23.869 6.456h77.326l11.891 20.739q13.435 23.109-3.217 45.359t-45.478 17.772q-4.566-.761-9.511-.761h-9.511q-48.882 0-92.386 15.402-43.505 15.402-79.266 43.207-16.391 12.434-34.163 5.478Q500-462.87 500-482.022v-80.608h61.913q8 0 14-6t6-14q0-8-6-14t-14-6H500Zm-85.5 450.761h-92.935q-12.49 0-23.278-6.337-10.787-6.337-16.505-17.533l-79.195-141.152h59.435l29 57.521q5.717 12.196 17.028 18.533 11.312 6.337 23.754 6.337h44.37q8 0 14-6t6-14q0-8-6-14t-14-6h-48.478l-28.761-57.522q-5.718-12.195-17.033-18.532-11.315-6.337-23.989-6.337h-77.326l-57-100.479q-2.718-5.717-4.337-11.355-1.62-5.637-1.62-11.275 0-4.957 5.957-22.87l57-100.239h77.326q12.674 0 23.989-6.337 11.315-6.337 17.033-18.532l28.761-57.522h48.478q8 0 14-6t6-14q0-8-6-14t-14-6h-44.37q-12.442 0-23.754 6.337-11.311 6.337-17.028 18.533l-29 57.521h-59.435l79.195-141.152q5.718-11.196 16.505-17.533 10.788-6.337 23.278-6.337H414.5q19.152 0 32.326 13.174T460-762.63v160h-61.913q-8 0-14 6t-6 14q0 8 6 14t14 6H460v125.5h-90.87l-28.521-56.805q-5.718-12.195-16.913-18.652-11.196-6.456-23.87-6.456h-64.13q-8 0-14 6t-6 14q0 8 6 14t14 6h68.239L332.456-422q5.718 12.196 17.033 18.533 11.315 6.337 23.989 6.337H460v65.326q-8.087 21.369-12.25 44.261-4.163 22.891-4.163 47.543 0 16.283 1.5 32.326 1.5 16.044 5.783 32.087-4.044 10.022-14.055 16.87-10.011 6.848-22.315 6.848Zm287.413-48.914-55.13-54.891q-6.522-6.478-15.218-6.478-8.695 0-15.174 6.512-6.478 6.513-6.478 15.196t6.478 15.161l91.283 91.522q6.717 6.718 15.913 6.718 9.196 0 15.913-6.718l91.522-91.522q6.478-6.478 6.359-15.195-.12-8.718-6.632-15.196-6.513-6.478-15.196-6.478t-15.162 6.478L745.5-200.783v-139.695q0-8.67-6.512-15.172-6.513-6.502-15.196-6.502t-15.281 6.502q-6.598 6.502-6.598 15.172v139.695ZM723.587-40q-83 0-141.5-58.5t-58.5-141.5q0-83 58.5-141.5t141.5-58.5q83 0 141.5 58.5t58.5 141.5q0 83-58.5 141.5T723.587-40Z"/></svg>