<svg xmlns="http://www.w3.org/2000/svg" height="24" viewBox="0 -960 960 960" width="24"><path d="M189.717-227.087q-19.152 0-32.326-13.174t-13.174-32.326q0-19.152 13.174-32.326t32.326-13.174h218.326L91.5-634.87q-12.674-12.674-13.055-31.445-.38-18.772 13.055-32.207 12.674-12.674 31.826-12.674t31.826 12.674L480-374.913l210.87-210.87q-3.761-9.239-5.642-18.739-1.88-9.5-1.88-20.5 0-45.109 31.272-76.5 31.271-31.391 76.38-31.391 45.109 0 76.381 31.391t31.272 76.5q0 45.109-31.272 76.381Q836.109-517.37 791-517.37q-9 0-17.619-1.5-8.62-1.5-16.62-4.26L551.957-318.087h218.326q19.152 0 32.326 13.174t13.174 32.326q0 19.152-13.174 32.326t-32.326 13.174H189.717Z"/></svg>