<svg xmlns="http://www.w3.org/2000/svg" height="24" viewBox="0 -960 960 960" width="24"><path d="m775.066-302.521-91.001-91.001V-717.13h-80v243.608l-91-91V-757.13H320.457l-91.001-91.001h334.609q16.239 0 23.935 13.783 7.696 13.783 16.065 26.217h125.5q19.153 0 32.327 13.174t13.174 32.327v460.109Zm-3.414 227.369L604.065-242.5v85.13q0 19.153-13.174 32.327t-32.326 13.174H146.848q-19.153 0-32.327-13.174t-13.174-32.327q0-19.152 13.174-32.326t32.327-13.174h38.086v-458.761L74.913-771.652q-11.718-11.718-11.718-29.316 0-17.597 11.718-29.315Q86.63-842 104.228-842t29.315 11.717l696.74 696.74Q842-121.826 842-104.348q0 17.479-11.717 29.196-11.718 11.717-29.315 11.717-17.598 0-29.316-11.717ZM275.935-202.87h237.13V-333.5l-237.13-237.13v367.76Zm140.826-457.956ZM394.5-452.065Z"/></svg>