<svg xmlns="http://www.w3.org/2000/svg" height="24" viewBox="0 -960 960 960" width="24"><path d="M157.37-111.869q-19.153 0-32.327-13.174t-13.174-32.327v-240q0-19.152 13.174-32.326t32.327-13.174q19.152 0 32.326 13.174t13.174 32.326v130.609L693.239-757.13H562.63q-19.152 0-32.326-13.174T517.13-802.63q0-19.153 13.174-32.327t32.326-13.174h240q19.153 0 32.327 13.174t13.174 32.327v240q0 19.152-13.174 32.326T802.63-517.13q-19.152 0-32.326-13.174T757.13-562.63v-130.609L266.761-202.87H397.37q19.152 0 32.326 13.174t13.174 32.326q0 19.153-13.174 32.327t-32.326 13.174h-240Z"/></svg>