<svg xmlns="http://www.w3.org/2000/svg" height="24" viewBox="0 -960 960 960" width="24"><path d="M713.848-274.5H600q-19.152 0-32.326-13.174T554.5-320q0-19.152 13.174-32.326T600-365.5h113.848l-27.392-27.391q-12.434-12.435-12.315-30.729.12-18.293 14.033-32.206Q700.848-468.5 720-468.5t31.826 12.674l103.761 103.761q5.957 5.956 9.435 14.413Q868.5-329.196 868.5-320q0 9.196-3.478 17.652-3.478 8.457-9.435 14.413L751.826-184.174q-12.674 12.674-31.565 12.935-18.891.261-33.044-13.891-12.435-12.435-12.435-30.99 0-18.554 12.435-30.989l26.631-27.391Zm-548.348 0q-37.783 0-64.391-26.609-26.61-26.608-26.61-64.391v-389q0-37.783 26.61-64.391Q127.717-845.5 165.5-845.5h509q37.783 0 64.391 26.609Q765.5-792.283 765.5-754.5v147.695q0 18.153-13.674 31.827-13.674 13.674-31.826 13.674-19.152 0-32.326-13.174T674.5-606.805v-86.673L416-513.304 165.5-692.478V-365.5h267.456q19.153 0 32.326 13.174 13.174 13.174 13.174 32.326t-13.174 32.326Q452.109-274.5 432.956-274.5H165.5Zm69.479-480L416-624.696 602.304-754.5H234.979Zm-69.479 389v-389 389Z"/></svg>