<svg xmlns="http://www.w3.org/2000/svg" height="24" viewBox="0 -960 960 960" width="24"><path d="M162.87-151.869q-37.783 0-64.392-26.609Q71.87-205.087 71.87-242.87v-474.26q0-37.783 26.61-64.392 26.608-26.609 64.391-26.609h634.26q37.783 0 64.392 26.609 26.609 26.609 26.609 64.392v481.913q0 35.869-24.816 59.608-24.815 23.74-58.532 23.74h-4.565q-27.435 0-49.033-10.076-21.598-10.077-40.033-28.511L557.196-344.413q-21 13.522-45.032 20.283-24.031 6.76-49.534 6.76-75 0-127.5-52.5t-52.5-127.5q0-75 52.5-127.5t127.5-52.5q75 0 127.5 52.5t52.5 127.5q0 27-6.521 50.283-6.522 23.283-20.522 44.283L775.522-242.87h21.608v-474.26H162.87v474.26h362.478q22.511 0 33.766 14.174 11.256 14.174 11.495 31.326.239 16.914-11.136 31.207-11.375 14.294-34.125 14.294H162.87Zm299.808-249.327q40.373 0 68.25-27.876 27.876-27.877 27.876-68.25 0-40.374-27.876-68.417-27.877-28.043-68.25-28.043-40.374 0-68.417 28.043t-28.043 68.417q0 40.373 28.043 68.25 28.043 27.876 68.417 27.876ZM162.87-242.87v-474.26 474.26Z"/></svg>