<svg xmlns="http://www.w3.org/2000/svg" height="24" viewBox="0 -960 960 960" width="24"><path d="M499.696-420.696ZM524-35.217H417.37l19.043-14.174q19.043-14.174 41.348-31.468 22.304-17.293 41.348-31.467l19.043-14.174q80.283-4.565 148.065-44.935Q754-211.804 794.478-280.217q-84.087-9.435-159.413-44.935-75.326-35.5-135.369-95.544-60.044-60.043-96.044-135.249-36-75.207-44.674-159.294-70.782 42.283-111.054 113-40.272 70.717-41.467 152.978v11.522L192.663-432q-13.793 5.739-30.565 12.217-16.772 6.479-30.565 12.218l-13.794 5.739q-1.761-10.522-2.141-21.374-.381-10.852-.381-20.8 0-128.391 76.359-237.152t199.598-147.631q12.196-3.478 22.511-1.239t19.032 8.718q8.718 6.478 12.935 16.174 4.218 9.695 3.457 22.13-4.805 82.848 25.935 161.467 30.739 78.62 89.304 137.185 60.043 60.044 136.424 88.685 76.38 28.641 159.706 25.554 12.435-.521 22.652 4.696 10.218 5.217 15.935 13.935 5.718 8.717 7.718 19.032 2 10.316-2.239 22.511-42.761 125.479-144.272 200.098Q658.761-35.217 524-35.217Zm-284-91.001h180q22.708 0 38.604-15.895 15.896-15.896 15.896-38.604 0-22.709-15.458-38.604-15.458-15.896-37.281-15.896h-55.454l-21.329-51.348q-13.231-31.247-41.583-49.71-28.352-18.464-62.199-18.942-48.566 0-82.131 33.065T125.5-240.717q0 47.847 33.396 81.173T240-126.218Zm0 91q-85.283 0-145.391-60.108-60.11-60.109-60.11-145.391 0-85.283 60.11-145.392Q154.717-446.218 240-446.218q60.717 0 111.054 32.62t75.533 87.62q57.957 3.434 98.435 45.13Q565.5-239.152 565.5-180.717q0 60.278-42.611 102.889-42.61 42.61-102.889 42.61H240Z"/></svg>