<svg xmlns="http://www.w3.org/2000/svg" height="24" viewBox="0 -960 960 960" width="24"><path d="M484.065-485.37v-317.26q0-19.153 13.174-32.327t32.326-13.174h282.631q19.152 0 32.326 13.174t13.174 32.327v205.021q0 19.153-13.174 32.327-13.174 13.173-32.326 13.173H605.5l-82.652 82.653q-11.196 11.195-24.989 5.478-13.794-5.718-13.794-21.392Zm91.001-157.739h191.63V-757.13h-191.63v114.021Zm0 0V-757.13v114.021Zm223.412 531.24q-126.458 0-249.881-55.098T323.739-323.38Q222.304-424.696 167.206-548.198 112.109-671.7 112.109-798.239q0-21.382 14.186-35.637 14.186-14.255 35.466-14.255h161.761q19.5 0 33.369 11.533 13.87 11.533 17.305 29.555l25.761 134.978q2.956 19.587-.881 33.217-3.837 13.631-14.706 23.783l-98.435 96.087q19.043 34.369 45.109 66.956 26.065 32.587 58.108 63.631 29.805 29.804 61.413 54.63 31.609 24.826 66.261 44.913l95.674-94.957q11.63-11.391 28.522-16.369 16.891-4.978 34.478-2.022l131.543 27.283q19.022 5.434 30.055 18.445 11.033 13.011 11.033 31.033v163.674q0 21.382-14.272 35.637-14.272 14.255-35.381 14.255ZM242.435-603.826l65.761-63.848-16.522-89.456h-87.326q4.522 39.326 13.153 77.638 8.631 38.312 24.934 75.666ZM601.391-244.63q37.566 16.282 76.75 26.043 39.185 9.761 78.989 13.239v-86.804l-89.217-18.522-66.522 66.044ZM242.435-603.826ZM601.391-244.63Z"/></svg>