<svg xmlns="http://www.w3.org/2000/svg" height="24" viewBox="0 -960 960 960" width="24"><path d="M480-109q-63.761 0-114.5-32.043-50.739-32.044-83.457-84.848l-57.173 32.848q-16.153 9.195-34.185 3.717-18.033-5.478-27.468-21.63-9.195-16.153-4.598-34.185 4.598-18.033 20.751-27.468l65.652-38.087q-2.761-9.565-4.283-19.152-1.522-9.587-3.283-19.152H160q-19.152 0-32.326-13.174T114.5-394.5q0-19.152 13.174-32.326T160-440h77.456q1.761-10.326 3.283-20.033 1.522-9.706 4.283-19.271l-65.652-38.087q-16.153-9.196-20.751-27.348-4.597-18.152 4.598-34.304 9.196-16.153 27.848-21.251 18.652-5.097 34.805 4.337l55.413 32.848q7.521-12.804 17.184-24.989t19.946-22.467q-2.717-8.674-3.315-17.348-.598-8.674-.598-17.587 0-23.761 6.641-45.402 6.641-21.642 18.163-40.642l-35.13-35.13Q291.5-779.348 291-798.5t13.174-32.826q12.674-13.435 31.326-13.174 18.652.261 32.326 12.935l39.37 37.608q16.761-8.522 34.902-12.782Q460.239-811 480-811q19.761 0 38.402 4.641 18.641 4.641 35.402 13.163l38.131-38.13Q605.609-845 623.88-844.5q18.272.5 31.946 14.174 12.674 13.674 13.055 31.945.38 18.272-13.055 31.707l-35.13 35.13q11.522 19 17.663 40.642 6.141 21.641 6.141 45.402 0 8.913-.478 17.206-.478 8.294-3.196 16.729 10.283 10.282 19.826 22.967 9.544 12.685 17.065 25.489l57.413-32.848q16.153-9.195 34.185-4.217 18.033 4.978 27.229 21.131 9.195 16.152 4.217 34.684-4.978 18.533-21.131 27.729l-65.652 37.326q2.761 9.565 4.783 19.271 2.022 9.707 3.783 20.033H800q19.152 0 32.326 13.174T845.5-394.5q0 19.152-13.174 32.326T800-349h-77.456q-1.761 10.326-3.283 20.033-1.522 9.706-4.283 19.271l65.652 38.087q16.153 9.196 20.751 27.729 4.597 18.532-4.598 34.685-9.196 16.152-27.468 20.869-18.272 4.718-34.424-4.717l-56.934-32.848q-32.718 52.565-83.457 84.728Q543.761-109 480-109Zm-71.217-558.674q16.282-6.043 34.467-9.185Q461.435-680 480-680t35.87 2.761q17.304 2.761 33.586 8.804-7.043-22.282-25.847-36.924Q504.804-720 480-720q-24.804 0-44.489 15.022-19.685 15.021-26.728 37.304ZM480-200q70.609 0 112.554-59.326Q634.5-318.652 634.5-394.5q0-67.609-38.946-131.054Q556.609-589 480-589q-75.848 0-115.174 63.065Q325.5-462.869 325.5-394.5q0 75.848 41.946 135.174Q409.391-200 480-200Zm0-78.087q-19.152 0-32.326-13.174T434.5-323.587v-141.826q0-19.152 13.174-32.326T480-510.913q19.152 0 32.326 13.174t13.174 32.326v141.826q0 19.152-13.174 32.326T480-278.087Z"/></svg>