<svg xmlns="http://www.w3.org/2000/svg" height="24" viewBox="0 -960 960 960" width="24"><path d="M162.87-111.869q-37.783 0-64.392-26.609Q71.87-165.087 71.87-202.87v-474.26q0-37.783 26.61-64.392 26.608-26.609 64.391-26.609h118.826l50.478-52.326q12.435-12.956 29.609-20.315 17.174-7.359 35.608-7.359h165.218q18.434 0 35.608 7.359 17.174 7.359 29.609 20.315l50.478 52.326H797.13q37.783 0 64.392 26.609 26.609 26.609 26.609 64.392v474.26q0 37.783-26.609 64.392-26.609 26.609-64.392 26.609H162.87Zm0-91.001h634.26v-474.26H638.717l-75.63-80H397.63l-77.065 80H162.87v474.26ZM480-440ZM279.522-278.087h400.956q13.913 0 20.511-12.435 6.598-12.435-2.359-23.869L588.152-461.87q-6.956-9.195-18.152-9.076-11.196.12-18.152 9.316L450-325.739l-71.848-96.131q-6.956-9.195-18.152-9.195-11.196 0-18.152 9.195L261.37-314.391q-8.957 11.434-2.359 23.869 6.598 12.435 20.511 12.435Z"/></svg>