<svg xmlns="http://www.w3.org/2000/svg" height="24" viewBox="0 -960 960 960" width="24"><path d="m770.96-74.853-38.264-37.256q-.957.24-1.674.24H202.87q-37.783 0-64.392-26.609-26.609-26.609-26.609-64.392V-731.022q0-.717.24-1.674l-37.957-38.195q-12.478-12.511-12.478-29.712 0-17.202 12.503-29.68 12.504-12.478 29.696-12.478t29.67 12.478l696.74 696.74q12.478 12.478 12.359 29.315-.12 16.837-12.573 29.315-12.453 12.478-29.576 12.478T770.96-74.853Zm77.171-159.625-91.001-91.001V-757.13h-73.304v337.369q0 4.044-1.201 8.087-1.201 4.044-3.603 8.087l-162.609-162.37V-757.13h-72.826v118.108L234.478-848.131H757.13q37.783 0 64.392 26.609 26.609 26.609 26.609 64.392v522.652ZM202.87-202.87h123.304v-175.217h-8.087q-17.813 0-29.863-12.05T276.174-420v-148.63l-73.304-73.305v439.065Zm190.717 0h172.826v-75.521l-126.5-126.5q-4.478 12.521-14.978 19.663-10.5 7.141-23.261 7.141h-8.087v175.217Zm235.217 0h12.892L628.804-216v13.13Z"/></svg>