<svg xmlns="http://www.w3.org/2000/svg" height="24" viewBox="0 -960 960 960" width="24"><path d="M202.87-71.87q-37.783 0-64.392-26.608-26.609-26.609-26.609-64.392v-634.26q0-37.783 26.609-64.392 26.609-26.609 64.392-26.609h474.26q37.783 0 64.392 26.609 26.609 26.609 26.609 64.392v232.347q0 19.392-13.413 32.685-13.414 13.294-32.805 12.815-19.152-.478-31.967-13.422-12.816-12.943-12.816-32.078V-797.13H480v237.108q0 12.913-11.435 19.631-11.435 6.717-22.869-.239L380-580l-65.696 39.37q-11.434 6.956-22.869.239Q280-547.109 280-560.022V-797.13h-77.13v634.26h194.739q19.152 0 32.326 13.174t13.174 32.326q0 19.153-13.174 32.327T397.609-71.87H202.87ZM720-40q-83 0-141.5-58.5T520-240q0-83 58.5-141.5T720-440q83 0 141.5 58.5T920-240q0 83-58.5 141.5T720-40Zm-14.935-121.63 94.109-58.979Q810.37-227.326 810.37-240t-11.196-19.391l-94.109-58.979q-11.435-6.956-23.25-.655Q670-312.725 670-298.978v117.956q0 13.747 11.815 20.047 11.815 6.301 23.25-.655Zm-417.456-635.5h200-200ZM202.87-162.87v-634.26 257V-580v39.87-257 634.26Z"/></svg>