<svg xmlns="http://www.w3.org/2000/svg" height="24" viewBox="0 -960 960 960" width="24"><path d="m559.37-340.87-26.805-26.804q-12.51-12.441-29.711-12.96-17.202-.518-29.68 11.96-12.478 12.478-12.478 29.767 0 17.29 12.478 29.864l54.13 54.13q13.761 13.674 32.109 13.674 18.348 0 32.022-13.674l140.13-140.37q12.478-12.521 11.978-29.217-.5-16.696-12.978-29.174-12.478-11.717-29.195-12.098-16.718-.38-29.196 12.098L559.37-340.87Zm-236.5-15.543h32.826q17.711 0 29.692-12.05 11.982-12.05 11.982-29.863 0-17.711-11.982-29.693Q373.407-440 355.696-440H322.63q-17.711 0-29.692 11.982-11.981 11.983-11.981 29.696t12.05 29.811q12.05 12.098 29.863 12.098Zm0-120h194.978q17.711 0 29.692-12.05 11.982-12.05 11.982-29.863 0-17.711-11.982-29.693Q535.559-560 517.848-560H322.63q-17.711 0-29.692 11.982-11.981 11.983-11.981 29.696t12.05 29.811q12.05 12.098 29.863 12.098Zm0-120h194.978q17.711 0 29.692-12.05 11.982-12.05 11.982-29.863 0-17.711-11.982-29.693Q535.559-680 517.848-680H322.63q-17.711 0-29.692 11.982-11.981 11.983-11.981 29.696t12.05 29.811q12.05 12.098 29.863 12.098ZM480-71.869q-84.913 0-159.345-32.118t-129.491-87.177q-55.059-55.059-87.177-129.491Q71.869-395.087 71.869-480t32.118-159.345q32.118-74.432 87.177-129.491 55.059-55.059 129.491-87.177Q395.087-888.131 480-888.131t159.345 32.118q74.432 32.118 129.491 87.177 55.059 55.059 87.177 129.491Q888.131-564.913 888.131-480t-32.118 159.345q-32.118 74.432-87.177 129.491-55.059 55.059-129.491 87.177Q564.913-71.869 480-71.869Zm0-91.001q133.043 0 225.087-92.043Q797.13-346.957 797.13-480t-92.043-225.087Q613.043-797.13 480-797.13t-225.087 92.043Q162.87-613.043 162.87-480t92.043 225.087Q346.957-162.87 480-162.87ZM480-480Z"/></svg>