<svg xmlns="http://www.w3.org/2000/svg" height="24" viewBox="0 -960 960 960" width="24"><path d="M314.304-157.848h-65q-25.108 0-46.119-12.554-21.011-12.555-33.446-34.185L41.522-435.5q-12.196-20.63-12.076-44.38.12-23.75 12.315-44.381l138.087-246.652q8-14.239 21.858-22.739 13.859-8.5 30.859-8.5h75q17.239 0 25.859 15.119 8.619 15.12.38 30.359L177.848-480l104.717 187.435L570.37-758.891q12.434-20.392 32.945-31.826 20.511-11.435 44.381-11.435h61q25.108 0 46.119 12.435 21.011 12.434 33.446 34.065L918.239-524.5q12.435 20.63 12.435 44.5t-12.435 44.5L780.152-189.087q-8 14.239-21.858 22.739-13.859 8.5-30.859 8.5h-75q-17.239 0-25.859-15.119-8.619-15.12-.38-30.359L782.152-480 677.435-665.435 391.63-201.109q-12.434 20.392-32.945 31.826-20.511 11.435-44.381 11.435Z"/></svg>