<svg xmlns="http://www.w3.org/2000/svg" height="24" viewBox="0 -960 960 960" width="24"><path d="m561.587-237.304 192.022-191.783q12.434-12.435 31.228-12.435 18.793 0 31.228 12.435 12.435 12.435 12.435 31.348 0 18.913-12.435 31.348L593.652-143.978q-13.674 13.674-32.065 13.674t-32.065-13.674L419.348-254.391q-12.435-12.435-12.435-31.348 0-18.913 12.435-31.348 12.435-12.435 31.348-12.315 18.913.119 31.348 12.554l79.543 79.544Zm-309-163.457h-56.413q-18.435 0-31.011-12.696-12.576-12.695-12.576-31.13t12.695-31.011q12.696-12.576 31.131-12.576h156.174v-72.587H196.413q-18.435 0-31.131-12.696-12.695-12.695-12.695-31.13v-160q0-18.435 12.695-31.011 12.696-12.576 31.131-12.576h56.174q0-18.435 12.695-31.011 12.696-12.576 31.131-12.576 18.435 0 31.011 12.576T340-808.174h56.413q18.435 0 31.011 12.576T440-764.587q0 18.435-12.576 31.13-12.576 12.696-31.011 12.696H240v72.587h156.413q18.435 0 31.011 12.576T440-604.587v160q0 18.435-12.576 31.13-12.576 12.696-31.011 12.696H340q0 18.435-12.696 31.011-12.695 12.576-31.13 12.576t-31.011-12.576q-12.576-12.576-12.576-31.011Z"/></svg>