<svg xmlns="http://www.w3.org/2000/svg" height="24" viewBox="0 -960 960 960" width="24"><path d="M648.131-763.109v274.739l66.565 66.565q6.717 6.718 10.076 15.055 3.359 8.337 3.359 17.532v26.588q0 19.152-13.174 32.326T682.63-317.13H525.5v219.89q0 9.197-3.359 17.533-3.358 8.337-10.076 15.055L495.913-48.5q-6.717 6.718-15.913 6.718-9.196 0-15.913-6.718l-16.152-16.152q-6.718-6.718-10.076-15.055-3.359-8.337-3.359-17.532V-317.13H277.37q-19.153 0-32.327-13.174t-13.174-32.326v-26.588q0-9.195 3.359-17.532t10.076-15.055l66.565-66.565v-274.739q-17-1.674-28.5-14.25t-11.5-30.293q0-19.153 13.174-32.327 13.174-13.173 32.327-13.173h325.26q19.153 0 32.327 13.173 13.174 13.174 13.174 32.327 0 17.717-11.5 30.293t-28.5 14.25ZM360.935-408.131h238.13l-41.935-41.934v-312.087H402.87v312.087l-41.935 41.934Zm119.065 0Z"/></svg>