<svg xmlns="http://www.w3.org/2000/svg" height="24" viewBox="0 -960 960 960" width="24"><path d="M66.891-259.435Q52.217-269.63 49.12-287.283q-3.097-17.652 6.098-33.326l151.239-242.239q12.435-19.391 34.805-21.131 22.369-1.739 38.043 15.414l75.674 88.238 117.674-191.934q12.674-21.391 38.163-21.63 25.489-.24 39.163 20.391l40.761 61.761q11.717 18.195 7.337 35.13-4.38 16.935-17.859 26.37-13.478 9.435-30.293 9.25-16.815-.185-30.446-16.467l-5.326-7.609-113.913 185.174q-12.435 19.391-35.185 21.51-22.75 2.12-38.424-15.793l-75.913-88.239L132.304-271.87q-10.195 16.913-29.728 20.772-19.532 3.859-35.685-8.337Zm577.066 126.979q-76.435 0-130.011-53.577-53.576-53.576-53.576-130.01 0-76.435 53.576-130.131t130.011-53.696q76.434 0 130.01 53.696 53.577 53.696 53.577 130.131 0 25.282-6.642 49.184-6.641 23.902-19.684 44.663l93.369 92.892q13.674 13.434 14.054 31.826.381 18.391-13.293 32.065t-32.446 13.674q-18.772 0-32.446-13.674l-93.652-93.13q-20 13.043-43.782 19.565-23.783 6.522-49.065 6.522Zm0-91.001q38.891 0 65.739-26.847 26.847-26.848 26.847-65.739 0-38.892-26.847-65.859-26.848-26.967-65.739-26.967-38.892 0-65.859 26.967-26.967 26.967-26.967 65.859 0 38.891 26.967 65.739 26.967 26.847 65.859 26.847Zm47.565-327.413q-14.674-8.956-20.511-25.989-5.837-17.032 6.598-36.185l150.326-240.282q10.195-16.153 29.587-20.631 19.391-4.478 35.304 7.957 14.674 10.195 18.033 27.728 3.359 17.533-5.837 33.207L753.935-565.544q-12.435 19.153-30.087 21.392-17.652 2.239-32.326-6.718Z"/></svg>