<svg xmlns="http://www.w3.org/2000/svg" height="24" viewBox="0 -960 960 960" width="24"><path d="M680-161.196q9.196 0 15.794-6.598 6.597-6.597 6.597-15.793V-291.63q0-9.196-6.597-15.794-6.598-6.598-15.794-6.598-9.196 0-15.794 6.598-6.597 6.598-6.597 15.794v108.043q0 9.196 6.597 15.793 6.598 6.598 15.794 6.598Zm-.171-192.586q9.025 0 15.794-6.718 6.768-6.717 6.768-15.674 0-9.196-6.717-15.793-6.717-6.598-15.674-6.598-9.196 0-15.794 6.717-6.597 6.718-6.597 15.674 0 8.957 6.597 15.674 6.598 6.718 15.623 6.718ZM202.87-797.13v634.26-634.26 200-200Zm119.043 397.847h95.217q17.712 0 29.693-12.05 11.981-12.05 11.981-29.863 0-17.711-11.981-29.692-11.981-11.982-29.693-11.982h-95.456q-17.711 0-29.693 11.983Q280-458.905 280-441.191q0 17.713 12.05 29.811 12.05 12.097 29.863 12.097Zm0 160h35.217q17.712 0 29.693-12.05 11.981-12.05 11.981-29.863 0-17.711-11.981-29.692-11.981-11.982-29.693-11.982h-35.456q-17.711 0-29.693 11.983Q280-298.905 280-281.191q0 17.713 12.05 29.811 12.05 12.097 29.863 12.097ZM202.87-71.869q-37.783 0-64.392-26.61-26.609-26.608-26.609-64.391v-634.26q0-37.783 26.609-64.392 26.609-26.609 64.392-26.609h282.934q18.211 0 34.714 6.837 16.504 6.837 29.178 19.511l192.087 192.087q12.674 12.674 19.511 29.178 6.837 16.503 6.837 34.714v9.891q0 18.674-13.294 31.011-13.293 12.337-32.207 12.337-17.717 0-30.652-11.261-12.935-11.261-14.848-28.739v-4.565h-154.5q-19.152 0-32.326-13.174T477.13-642.63v-154.5H202.87v634.26h211.434q19.152 0 32.326 13.174t13.174 32.326q0 19.153-13.174 32.327T414.304-71.87H202.87ZM680-480q83 0 141.5 58.5T880-280q0 83-58.5 141.5T680-80q-83 0-141.5-58.5T480-280q0-83 58.5-141.5T680-480Z"/></svg>