<svg xmlns="http://www.w3.org/2000/svg" height="24" viewBox="0 -960 960 960" width="24"><path d="M202.87-71.87q-37.783 0-64.392-26.608-26.609-26.609-26.609-64.392v-554.26q0-37.783 26.609-64.392 26.609-26.609 64.392-26.609H240V-845.5q0-17.957 12.457-30.294 12.456-12.337 30.413-12.337 17.956 0 30.293 12.337T325.5-845.5v37.369h309V-845.5q0-17.957 12.456-30.294 12.457-12.337 30.414-12.337 17.956 0 30.293 12.337T720-845.5v37.369h37.13q37.783 0 64.392 26.609 26.609 26.609 26.609 64.392v554.26q0 37.783-26.609 64.392Q794.913-71.87 757.13-71.87H202.87Zm0-91h554.26v-554.26H202.87v554.26Zm152.586 0v-67.456l-71.043-82.804q-11.239-11.718-20.217-31.367-8.979-19.649-8.979-45.503 0-13 2.446-25.5t8.315-24.5q-5-11-7.88-23.62-2.881-12.619-2.881-26.38 0-25.854 8.979-45.503 8.978-19.649 20.217-31.367l70.804-82.804v-67.456h71.001V-637q0 6.913-8.196 22.826l-80.239 94.239q-6.044 7.044-8.805 14.527-2.76 7.484-2.76 15.408 0 17.13 11.086 29.956 11.087 12.826 28.457 12.826 7.326 0 14.369-2.558 7.044-2.559 12.326-8.528 17.957-18.196 40.612-27.555 22.656-9.359 46.892-9.359 24.236 0 46.931 9.359 22.696 9.359 40.653 27.555 6.043 6.282 12.967 8.684 6.924 2.402 13.489 2.402 17.193 0 28.368-12.706Q633.543-472.63 633.543-489q0-7.924-3.049-15.408-3.049-7.483-8.277-14.527l-80-94.761q-3.761-3.76-6.217-9.837-2.457-6.076-2.457-13.467v-80.13h71.001v67.456l72.043 84.804q14.478 16.479 21.217 35.816 6.74 19.337 6.74 40.054 0 13-3.142 25.5-3.141 12.5-8.141 23.5 5.761 12 8.641 24.5 2.881 12.5 2.881 25.5 0 25.854-8.979 45.503-8.978 19.649-20.217 31.367l-70.804 82.804v67.456h-71.001V-243q0-7.674 8.196-22.826l77.609-91.37q5.326-6.087 7.608-12.934 2.283-6.848 2.283-13.696-8.609 3.804-16.859 5.707-8.249 1.902-17.619 1.902-20.957 0-41.913-8.359-20.957-8.359-36.674-25.076-6.522-7.283-15.946-10.924-9.424-3.641-20.375-3.641-10.039 0-19.621 3.641-9.583 3.641-16.884 10.924-15.478 16.239-35.935 24.837-20.456 8.598-41.891 8.598-9.37 0-18-1.902-8.63-1.903-17.239-5.707 0 6.848 2.283 13.696 2.282 6.847 7.608 12.934l77.609 91.37q3.478 5.478 5.956 10.935 2.479 5.456 2.479 11.891v80.13h-71.001Zm-152.586 0v-554.26 554.26Z"/></svg>