<svg xmlns="http://www.w3.org/2000/svg" height="24" viewBox="0 -960 960 960" width="24"><path d="M163.587-152.587q-37.783 0-64.391-26.609-26.61-26.608-26.61-64.391v-169.435q0-17.445 7.218-33.255 7.218-15.81 19.174-28.006l173.609-175.761v-106.369q0-37.783 26.609-64.391 26.608-26.609 64.391-26.609h232.826q37.783 0 64.391 26.609 26.609 26.608 26.609 64.391v106.369L861.544-474q12.372 12.512 19.121 29.006 6.748 16.494 6.748 34.407v167q0 37.783-26.609 64.391-26.608 26.609-64.391 26.609H163.587ZM480-756.413H363.587v105.848q0 17.913-6.598 34.326t-19.032 28.848l-92.087 92.804h468.499l-92.086-92.565q-12.435-12.435-19.153-29.087-6.717-16.652-6.717-34.566v-105.608H480ZM163.587-243.587h632.826v-160H163.587v160Zm253.5-49.848q-13.726 0-22.7-9.042-8.974-9.042-8.974-22.871 0-13.725 8.974-22.7 8.974-8.974 22.7-8.974h125.826q13.726 0 22.7 8.973 8.974 8.973 8.974 22.696t-8.974 22.82q-8.974 9.098-22.7 9.098H417.087Z"/></svg>