<svg xmlns="http://www.w3.org/2000/svg" height="24" viewBox="0 -960 960 960" width="24"><path d="M480-70.435q-76.674 0-143.728-29.097-67.055-29.098-116.75-78.794-49.696-49.696-78.794-116.75T111.63-438.565q0-19.152 13.174-32.326t32.326-13.174q19.153 0 32.327 13.174 13.173 13.174 13.173 32.326 0 115.804 80.783 196.467Q364.196-161.435 480-161.435q115.804 0 196.587-80.782Q757.37-323 757.37-438.804q0-115.805-80.903-196.468-80.902-80.663-196.706-80.663h-6.239l30.891 30.892q12.478 12.478 12.098 29.315-.381 16.837-12.098 29.315-12.478 12.478-29.935 12.859-17.456.38-29.935-12.098L340.826-729.37q-13.674-13.673-13.674-32.065 0-18.391 13.674-32.065l103.717-103.718q12.479-12.478 29.935-12.097 17.457.38 29.935 13.097 11.717 12.479 11.978 29.435.261 16.957-12.217 29.435l-30.413 30.413h6q76.674 0 143.728 29.098 67.055 29.098 116.87 78.793 49.815 49.696 78.913 116.631t29.098 143.609q0 76.674-29.098 143.728t-78.794 116.75q-49.695 49.696-116.75 78.794Q556.674-70.435 480-70.435Z"/></svg>