<svg xmlns="http://www.w3.org/2000/svg" height="24" viewBox="0 -960 960 960" width="24"><path d="M480-280q-76 0-132-50t-66-124.8q-2-10.96 7-18.08 9-7.12 21-7.12 11 0 20.5 7t11.5 18q9 49 47.5 82t90.5 33q58 0 99-41t41-99q0-58-41-99t-99-41h-2.28l27.81 29q7.95 9 8.21 21 .26 12-8.74 21t-21.5 9q-12.5 0-21.5-9l-82.09-82.09q-6.71-6.71-6.71-15.91t6.71-15.91L463-746q9-9 21-9t21 9q9 9 9 21.5t-9 21.5l-22 23q82 2 139.5 60T680-480q0 83-58.5 141.5T480-280Zm0 208.13q84.91 0 159.34-32.12 74.44-32.12 129.5-87.17 55.05-55.06 87.17-129.5 32.12-74.43 32.12-159.34t-32.12-159.34q-32.12-74.44-87.17-129.5-55.06-55.05-129.5-87.17-74.43-32.12-159.34-32.12t-159.34 32.12q-74.44 32.12-129.5 87.17-55.05 55.06-87.17 129.5Q71.87-564.91 71.87-480t32.12 159.34q32.12 74.44 87.17 129.5 55.06 55.05 129.5 87.17Q395.09-71.87 480-71.87Zm0-91q-133.04 0-225.09-92.04-92.04-92.05-92.04-225.09 0-133.04 92.04-225.09 92.05-92.04 225.09-92.04 133.04 0 225.09 92.04 92.04 92.05 92.04 225.09 0 133.04-92.04 225.09-92.05 92.04-225.09 92.04ZM480-480Z"/></svg>