<svg xmlns="http://www.w3.org/2000/svg" height="24" viewBox="0 -960 960 960" width="24"><path d="M435.456-273.543v17.13q0 9.148 6.861 16.009 6.861 6.861 16.009 6.861h40q9.196 0 15.913-6.861 6.718-6.861 6.718-16.009v-17.13h40.956q17.957 0 30.294-12.457 12.337-12.456 12.337-30.413V-440q0-17.957-12.337-30.294-12.337-12.336-30.294-12.336H440.957v-38.327h120.956q17.957 0 30.294-12.456 12.337-12.457 12.337-30.413 0-17.957-12.337-30.294t-30.294-12.337h-37.369v-17.369q0-9.196-6.718-15.913-6.717-6.718-15.913-6.718h-40q-9.148 0-16.009 6.718-6.861 6.717-6.861 15.913v17.369h-40.956q-17.957 0-30.294 12.457-12.337 12.456-12.337 30.413V-440q0 17.957 12.337 30.294 12.337 12.336 30.294 12.336h120.956v38.327H398.087q-17.957 0-30.294 12.337-12.337 12.336-12.337 30.293T367.913-286q12.457 12.457 30.413 12.457h37.13ZM242.87-71.869q-37.783 0-64.392-26.61-26.609-26.608-26.609-64.391v-634.26q0-37.783 26.609-64.392 26.609-26.609 64.392-26.609h282.934q18.211 0 34.714 6.837 16.504 6.837 29.178 19.511l192.087 192.087q12.674 12.674 19.511 29.178 6.837 16.503 6.837 34.714v442.934q0 37.783-26.609 64.392Q754.913-71.87 717.13-71.87H242.87Zm0-91.001h474.26v-441.934L524.804-797.13H242.87v634.26Zm0 0v-634.26 634.26Z"/></svg>