<svg xmlns="http://www.w3.org/2000/svg" height="24" viewBox="0 -960 960 960" width="24"><path d="M157.37-757.13q-19.153 0-32.327-13.174t-13.174-32.326q0-19.153 13.174-32.327t32.327-13.174q19.152 0 32.326 13.174t13.174 32.327q0 19.152-13.174 32.326T157.37-757.13Zm161.434 0q-19.152 0-32.326-13.174t-13.174-32.326q0-19.153 13.174-32.327t32.326-13.174q19.153 0 32.326 13.174 13.174 13.174 13.174 32.327 0 19.152-13.174 32.326-13.173 13.174-32.326 13.174Zm161.196 0q-19.152 0-32.326-13.174T434.5-802.63q0-19.153 13.174-32.327T480-848.131q19.152 0 32.326 13.174T525.5-802.63q0 19.152-13.174 32.326T480-757.13ZM157.37-595.935q-19.153 0-32.327-13.174t-13.174-32.326q0-19.152 13.174-32.326t32.327-13.174q19.152 0 32.326 13.174t13.174 32.326q0 19.152-13.174 32.326t-32.326 13.174Zm0 161.435q-19.153 0-32.327-13.174T111.869-480q0-19.152 13.174-32.326T157.37-525.5q19.152 0 32.326 13.174T202.87-480q0 19.152-13.174 32.326T157.37-434.5Zm645.26 0q-19.152 0-32.326-13.174T757.13-480q0-19.152 13.174-32.326T802.63-525.5q19.153 0 32.327 13.174T848.131-480q0 19.152-13.174 32.326T802.63-434.5Zm0 161.196q-19.152 0-32.326-13.174t-13.174-32.326q0-19.153 13.174-32.326 13.174-13.174 32.326-13.174 19.153 0 32.327 13.174 13.174 13.173 13.174 32.326 0 19.152-13.174 32.326t-32.327 13.174ZM480-111.869q-19.152 0-32.326-13.174T434.5-157.37q0-19.152 13.174-32.326T480-202.87q19.152 0 32.326 13.174T525.5-157.37q0 19.153-13.174 32.327T480-111.869Zm161.435 0q-19.152 0-32.326-13.174t-13.174-32.327q0-19.152 13.174-32.326t32.326-13.174q19.152 0 32.326 13.174t13.174 32.326q0 19.153-13.174 32.327t-32.326 13.174Zm161.195 0q-19.152 0-32.326-13.174T757.13-157.37q0-19.152 13.174-32.326t32.326-13.174q19.153 0 32.327 13.174t13.174 32.326q0 19.153-13.174 32.327t-32.327 13.174Zm-45.5-529.566V-757.13H641.435q-19.152 0-32.326-13.174t-13.174-32.326q0-19.153 13.174-32.327t32.326-13.174H757.13q37.783 0 64.392 26.609 26.609 26.609 26.609 64.392v115.695q0 19.152-13.174 32.326t-32.327 13.174q-19.152 0-32.326-13.174t-13.174-32.326ZM111.869-202.87v-115.695q0-19.152 13.174-32.326t32.327-13.174q19.152 0 32.326 13.174t13.174 32.326v115.695h115.695q19.152 0 32.326 13.174t13.174 32.326q0 19.153-13.174 32.327t-32.326 13.174H202.87q-37.783 0-64.392-26.609-26.609-26.609-26.609-64.392Z"/></svg>