<svg xmlns="http://www.w3.org/2000/svg" height="24" viewBox="0 -960 960 960" width="24"><path d="M432.587-151.869q-34.48 0-59.034-24.554Q349-200.977 349-235.456v-95.066q0-34.674 24.553-59.011 24.554-24.337 59.034-24.337h95.065q34.674 0 59.011 24.337Q611-365.196 611-330.522v95.066q0 34.479-24.337 59.033-24.337 24.554-59.011 24.554h-95.065ZM440-242.87h80v-80h-80v80ZM122.63-459.456q-15.434 11.434-33.803 9.195-18.368-2.239-29.849-17.913-11.435-15.435-8.696-33.706 2.74-18.272 17.414-29.707L424.304-805.63q12.435-9.435 26.729-13.914 14.293-4.478 28.967-4.478t28.967 4.478q14.294 4.479 26.729 13.914l99.282 76.151v-16.739q0-25.956 18.576-43.934 18.576-17.979 46.924-17.979 27.392 0 46.326 18.935 18.935 18.935 18.935 46.326v114.24l127.087 97.043q14.674 11.435 17.033 29.707 2.359 18.271-9.076 33.706-11.435 15.435-29.826 17.794-18.392 2.358-33.827-9.076L480-733.5 122.63-459.456ZM480-282.87Z"/></svg>