<svg xmlns="http://www.w3.org/2000/svg" height="24" viewBox="0 -960 960 960" width="24"><path d="M391.935-392.174q-29.37-29.369-53.957-61.38t-45.391-67.424q-3.804 10.652-4.946 21.685-1.141 11.032-1.141 21.684.957 79.174 56.326 134.663 55.37 55.489 134.544 56.446 10.652 0 21.684-1.522 11.033-1.522 21.685-4.565-35.413-20.804-67.424-45.511-32.011-24.706-61.38-54.076ZM481-194.5q-56.957 0-109.033-21.478t-92.793-62.196q-40.718-40.717-62.196-92.793Q195.5-423.043 195.5-480q0-51.717 17.239-98.935 17.239-47.217 50.717-86.174 15.153-16.869 37.501-11.891 22.347 4.978 31.065 27.848 20.761 54.761 52.022 103.282 31.26 48.522 72.782 90.044 41.522 41.522 90.163 72.782 48.641 31.261 103.163 52.022 22.87 8.718 27.968 30.946 5.098 22.228-11.533 37.38-38.717 33.718-86.293 50.957Q532.717-194.5 481-194.5Zm221.326-194.63q-17.913-6.435-25.391-24.207-7.479-17.772-4.718-37.163 7.565-45.609-7.195-89.598-14.761-43.989-47.848-77.076-32.609-32.608-75.478-47.108-42.87-14.5-87.239-8.174-19.392 2.521-36.903-5.077-17.511-7.597-24.706-25.51-7.196-17.914.782-35.066 7.979-17.152 26.131-21.391 70.196-15.239 140.391 4.978 70.196 20.218 122.674 72.696 51.718 51.717 72.315 122.152 20.598 70.435 5.12 140.87-4.478 19.152-21.631 27.63-17.152 8.478-36.304 2.044ZM478.565-845.5q-18.435 0-31.25-12.815-12.815-12.816-12.815-31.25V-920q0-19.152 13.174-32.326T480-965.5q19.152 0 32.326 13.174T525.5-920v30.435q0 18.434-13.054 31.25-13.055 12.815-33.881 12.815Zm0 851q-18.435 0-31.25-12.815Q434.5-20.13 434.5-38.565V-69q0-19.152 13.174-32.326T480-114.5q19.152 0 32.326 13.174T525.5-69v30.435q0 18.435-13.054 31.25Q499.391 5.5 478.565 5.5ZM737.63-738.783q-13.195-13.195-13.076-31.489.12-18.293 13.316-31.489l21.304-21.304q12.913-12.913 31.565-12.794 18.652.12 32.326 13.033 13.435 13.435 13.435 32.087t-13.435 32.326l-21.304 21.543q-13.196 13.196-31.348 12.957-18.152-.239-32.783-14.87ZM136.217-137.891q-13.195-13.196-13.315-31.489-.12-18.294 13.076-31.49l21.304-21.304q13.674-13.674 32.066-13.674 18.391 0 32.065 13.674 13.435 13.674 13.435 32.446t-13.674 32.446l-21.304 21.304q-12.435 12.435-30.729 12.196-18.293-.24-32.924-14.109ZM889.565-434.5q-18.434 0-31.25-13.054-12.815-13.055-12.815-33.881 0-18.435 12.815-31.25 12.816-12.815 31.25-12.815H920q19.152 0 32.326 13.174T965.5-480q0 19.152-13.174 32.326T920-434.5h-30.435Zm-851 0q-18.435 0-31.25-13.054Q-5.5-460.609-5.5-481.435q0-18.435 12.815-31.25Q20.13-525.5 38.565-525.5H69q19.152 0 32.326 13.174T114.5-480q0 19.152-13.174 32.326T69-434.5H38.565ZM821.87-135.978q-13.196 13.196-31.25 13.315-18.055.12-31.25-13.076l-21.305-21.304q-13.674-13.674-13.674-32.066 0-18.391 13.674-32.065 13.674-13.435 32.446-13.435t32.446 13.674l21.304 21.305q12.435 12.434 12.076 30.608t-14.467 33.044ZM221.217-737.63q-13.195 13.195-31.489 13.076-18.293-.12-31.489-13.316l-21.304-21.304q-12.913-12.913-12.794-31.565.12-18.652 13.033-32.326 13.435-13.435 32.087-13.435t32.326 13.435l21.543 21.304q13.196 13.196 12.957 31.348-.239 18.152-14.87 32.783Zm170.718 345.456Z"/></svg>