<svg xmlns="http://www.w3.org/2000/svg" height="24" viewBox="0 -960 960 960" width="24"><path d="M427.152-116.413q-24.913 0-41.75-19.196-16.837-19.195-12.598-43.869 3.239-20.196 18.696-33.152 15.457-12.957 35.652-12.957h46.37l80.565-508.826h-92.109l-21.521 132.652q-3.239 20.435-18.816 33.891-15.576 13.457-37.011 13.457-25.913 0-42.489-19.696-16.576-19.695-12.337-45.608l27-170.283q4.239-23.674 21.816-38.63 17.576-14.957 41.25-14.957h397.043q29.674 0 48.87 22.435 19.195 22.435 14.195 51.348l-26.521 168.043q-3.239 20.435-18.816 33.891-15.576 13.457-37.011 13.457-25.913 0-42.989-19.315-17.076-19.315-12.837-45.229l18.283-115.456h-92.109l-80.804 508.826h29.174q24.913 0 41.75 19.196 16.837 19.195 12.598 43.869-3.239 20.196-18.696 33.152-15.456 12.957-35.652 12.957H427.152ZM192.696-678.087q-19.957 0-32.174-14.717-12.218-14.718-8.979-33.674 2.239-14.718 13.957-25.076 11.717-10.359 27.196-10.359h119.826l-13.718 83.826H192.696Zm-25.24 160q-19.717 0-31.934-14.598-12.218-14.598-8.979-33.554 2.239-14.718 13.718-25.196 11.478-10.478 27.195-10.478h119.827l-13.479 83.826H167.456Zm-50.76 320q-18.957 0-31.555-14.598-12.598-14.598-9.359-33.554 2.24-15.478 13.718-25.576t27.196-10.098h216l-12.718 83.826H116.696Zm25.76-160q-19.717 0-31.934-14.598-12.218-14.598-8.979-33.554 2.239-14.718 13.718-25.196 11.478-10.478 27.195-10.478h216.24l-13.718 83.826H142.456Z"/></svg>