<svg xmlns="http://www.w3.org/2000/svg" height="24" viewBox="0 -960 960 960" width="24"><path d="M480-71.87q-129.913 0-219.826-81.717-89.913-81.717-105.587-208.152-2.718-21.152 9.337-33.707Q175.978-408 197.401-408q21.424 0 33.827 13.554 12.402 13.555 15.598 32.707 14.435 87.652 78.12 143.261Q388.63-162.87 480-162.87t155.054-55.608q63.685-55.609 78.12-143.261 3.196-19.152 15.598-32.707Q741.175-408 762.599-408q21.423 0 33.477 12.554 12.055 12.555 9.337 33.707-15.674 126.435-105.587 208.152Q609.913-71.869 480-71.869ZM194.303-472.347q-17.999 0-30.216-12.175-12.218-12.176-12.218-30.174 0-17.999 12.176-30.216 12.175-12.217 30.174-12.217 17.998 0 30.216 12.175 12.217 12.176 12.217 30.174 0 17.999-12.175 30.216-12.176 12.217-30.174 12.217Zm185.261 0q-17.999 0-30.216-12.175-12.218-12.176-12.218-30.174 0-17.999 12.176-30.216 12.175-12.217 30.174-12.217 17.998 0 30.216 12.175 12.217 12.176 12.217 30.174 0 17.999-12.175 30.216-12.176 12.217-30.174 12.217Zm200.478 0q-17.999 0-30.216-12.175-12.217-12.176-12.217-30.174 0-17.999 12.175-30.216 12.176-12.217 30.174-12.217 17.999 0 30.216 12.175 12.217 12.176 12.217 30.174 0 17.999-12.175 30.216-12.176 12.217-30.174 12.217Zm185.739 0q-17.998 0-30.216-12.175-12.217-12.176-12.217-30.174 0-17.999 12.175-30.216 12.176-12.217 30.174-12.217 17.999 0 30.216 12.175 12.218 12.176 12.218 30.174 0 17.999-12.176 30.216-12.175 12.217-30.174 12.217ZM287.172-586.413q-17.998 0-30.216-12.175-12.217-12.176-12.217-30.174 0-17.999 12.175-30.216 12.176-12.218 30.174-12.218 17.999 0 30.216 12.176 12.218 12.175 12.218 30.174 0 17.998-12.176 30.216-12.175 12.217-30.174 12.217Zm385.74 0q-17.999 0-30.216-12.175-12.218-12.176-12.218-30.174 0-17.999 12.176-30.216 12.175-12.218 30.174-12.218 17.998 0 30.216 12.176 12.217 12.175 12.217 30.174 0 17.998-12.175 30.216-12.176 12.217-30.174 12.217Zm-192.87-7.609q-17.999 0-30.216-12.175-12.217-12.175-12.217-30.174t12.175-30.216q12.176-12.217 30.174-12.217 17.999 0 30.216 12.175 12.217 12.176 12.217 30.174 0 17.999-12.175 30.216-12.176 12.217-30.174 12.217ZM379.803-700q-17.999 0-30.216-12.175-12.217-12.176-12.217-30.174 0-17.999 12.175-30.216 12.175-12.218 30.174-12.218 17.998 0 30.216 12.176 12.217 12.175 12.217 30.174 0 17.998-12.175 30.216Q397.801-700 379.803-700Zm200.478 0q-17.998 0-30.216-12.175-12.217-12.176-12.217-30.174 0-17.999 12.175-30.216 12.176-12.218 30.174-12.218 17.999 0 30.216 12.176 12.217 12.175 12.217 30.174 0 17.998-12.175 30.216Q598.28-700 580.281-700ZM480.042-804.783q-17.999 0-30.216-12.175-12.217-12.176-12.217-30.174 0-17.999 12.175-30.216 12.176-12.217 30.174-12.217 17.999 0 30.216 12.175 12.217 12.175 12.217 30.174 0 17.998-12.175 30.216-12.176 12.217-30.174 12.217ZM480-408Z"/></svg>