<svg xmlns="http://www.w3.org/2000/svg" height="24" viewBox="0 -960 960 960" width="24"><path d="M242.87-71.87q-37.538 0-64.269-26.73-26.732-26.732-26.732-64.27V-229q0-19.152 13.174-32.326T197.37-274.5q19.152 0 32.326 13.174T242.87-229v66.13h474.26V-229q0-19.152 13.174-32.326T762.63-274.5q19.153 0 32.327 13.174T808.131-229v66.13q0 37.538-26.732 64.27-26.731 26.73-64.269 26.73H242.87Zm-91.001-725.26q0-37.538 26.732-64.269 26.731-26.732 64.269-26.732h282.934q18.211 0 34.714 6.837 16.504 6.837 29.178 19.511l192.087 192.087q12.674 12.674 19.511 29.178 6.837 16.503 6.837 34.714v35.76q0 18.931-12.935 31.738Q782.261-525.5 762.63-525.5q-18.195 0-30.771-11.739t-14.011-29.457v-30.434H562.63q-19.152 0-32.326-13.174T517.13-642.63v-154.5H242.87V-571q0 19.152-13.174 32.326T197.37-525.5q-19.153 0-32.327-13.174T151.869-571v-226.13ZM880-354.5H80q-19.152 0-32.326-13.174T34.5-400q0-19.152 13.174-32.326T80-445.5h800q19.152 0 32.326 13.174T925.5-400q0 19.152-13.174 32.326T880-354.5Zm-400-171Zm0 251Z"/></svg>