<svg xmlns="http://www.w3.org/2000/svg" height="24" viewBox="0 -960 960 960" width="24"><path d="M460-420q21 0 39.5-5.5T536-442l61 63q8 9 20.5 8.5T639-379q9-9 9.5-21.5T640-422l-62-62q11-17 16.5-36t5.5-40q0-59-41.5-99.5T460-700q-57 0-98.5 40.5T320-560q0 59 41.5 99.5T460-420Zm0-60q-33 0-56.5-23.5T380-560q0-33 23.5-56.5T460-640q32 0 56 23.5t24 56.5q0 33-23.5 56.5T460-480ZM74.5-108.282q-17.813 0-29.863-12.05t-12.05-29.863q0-17.712 12.05-29.693 12.05-11.981 29.863-11.981h811q17.813 0 29.863 11.982 12.05 11.983 12.05 29.696t-12.05 29.811q-12.05 12.098-29.863 12.098h-811Zm88.37-123.587q-37.783 0-64.392-26.609Q71.87-285.087 71.87-322.87v-434.26q0-37.783 26.61-64.392 26.608-26.609 64.391-26.609h634.26q37.783 0 64.392 26.609 26.609 26.609 26.609 64.392v434.26q0 37.783-26.609 64.392-26.609 26.609-64.392 26.609H162.87Zm0-91.001h634.26v-434.26H162.87v434.26Zm0 0v-434.26 434.26Z"/></svg>