<svg xmlns="http://www.w3.org/2000/svg" height="24" viewBox="0 -960 960 960" width="24"><path d="M398.087-517.13q17 0 28.5-11.5t11.5-28.5v-80q0-17-11.5-28.5t-28.5-11.5q-17 0-28.5 11.5t-11.5 28.5v80q0 17 11.5 28.5t28.5 11.5Zm119.761 0q17 0 28.5-11.5t11.5-28.5v-80q0-17-11.5-28.5t-28.5-11.5q-17 0-28.5 11.5t-11.5 28.5v80q0 17 11.5 28.5t28.5 11.5Zm119.522 0q17 0 28.5-11.5t11.5-28.5v-80q0-17-11.5-28.5t-28.5-11.5q-17 0-28.5 11.5t-11.5 28.5v80q0 17 11.5 28.5t28.5 11.5ZM242.87-71.87q-37.783 0-64.392-26.608-26.609-26.609-26.609-64.392v-442.934q0-18.211 6.837-34.714 6.837-16.504 19.511-29.178l192.087-192.087q12.674-12.674 29.178-19.511 16.503-6.837 34.714-6.837H717.13q37.783 0 64.392 26.609 26.609 26.609 26.609 64.392v634.26q0 37.783-26.609 64.392Q754.913-71.87 717.13-71.87H242.87Zm0-91h474.26v-634.26H435.196L242.87-604.87v442Zm0 0h474.26-474.26Z"/></svg>