<svg xmlns="http://www.w3.org/2000/svg" height="24" viewBox="0 -960 960 960" width="24"><path d="M686-440H520q-17 0-28.5-11.5T480-480q0-17 11.5-28.5T520-520h166l-35-36q-11-11-11-27.5t12-28.5q11-11 28-11t28 11l99.935 99.935q13.674 13.761 13.674 32.108 0 18.348-13.674 32.022L708-348q-11 11-27.5 11.5T652-348q-11-11-11.5-27.5T651-404l35-36ZM283.587-163.587v40h392.826v-40H283.587Zm0-632.826h392.826v-40H283.587v40Zm0 0v-40 40Zm0 632.826v40-40Zm0 131q-37.538 0-64.269-26.731-26.731-26.731-26.731-64.269v-712.826q0-37.538 26.731-64.269 26.731-26.731 64.269-26.731h392.826q37.538 0 64.269 26.731 26.731 26.731 26.731 64.269V-725.5q0 19.152-13.174 32.326T721.913-680q-16.522 0-28.38-10.424-11.859-10.424-14.011-25.989H283.587v472.826h395.935q1.913-15.565 13.772-25.989Q705.152-280 721.913-280q19.152 0 32.326 13.174t13.174 32.326v110.913q0 37.538-26.731 64.269-26.731 26.731-64.269 26.731H283.587Z"/></svg>