<svg xmlns="http://www.w3.org/2000/svg" height="24" viewBox="0 -960 960 960" width="24"><path d="M581.913-71.87q-25.897 0-44.024-18.127-18.128-18.128-18.128-44.025v-204.065q0-18.638 9.326-33.134 9.326-14.496 24.87-22.779l20.648 40.382q4.13 7.248 10.324 11.389 6.195 4.142 14.454 4.142 15.487 0 23.726-13.098 8.239-13.098 1-27.337l-11.239-21.717h62.074l23.795 46.674q4 7.239 10.359 11.359 6.359 4.119 14.608 4.119 15.468 0 23.827-12.978 8.358-12.978 1.173-27.457l-11.293-21.717h62.152l23.703 46.614q4.122 7.251 10.305 11.395 6.183 4.143 14.427 4.143 15.579 0 23.887-12.978 8.309-12.978 1.123-27.457l-11.292-21.717h10.341q25.854 0 44.072 18.128 18.217 18.127 18.217 44.024v204.065q0 25.897-18.197 44.025-18.198 18.128-44.194 18.128H581.913Zm.239-62.391h289.805v-141.435H582.152v141.435Zm9.131-346.826q-15.718 8.239-32.387 2.486-16.67-5.753-25.005-21.442-7.761-16.283-21.586-26.685-13.826-10.402-30.989-10.402-23.838 0-40.501 16.242-16.663 16.242-16.663 40.127 0 17.761 10.098 31.424t26.62 21.663q15.717 8.478 21.717 24.935 6 16.456-2.478 32.174-8.479 15.717-24.815 21.717-16.337 6-32.055-2.478-38.717-17-60.935-51.517-22.217-34.518-22.217-77.157 0-58.495 41.323-99.846 41.323-41.35 99.781-41.35 42.331 0 77.07 22.239 34.739 22.24 51.978 60.479 8.239 15.717 2.486 32.387-5.753 16.669-21.442 25.004ZM406.935-71.869q-18.355 0-32.392-11.877-14.036-11.877-16.195-30.232L346.587-202.5q-11.187-4.308-21.083-10.339-9.895-6.03-19.461-12.835l-61.76 26q-25.957 11.239-52.153 2.12-26.195-9.12-40.674-33.315l-51.543-90.37q-14.478-23.957-8.359-51.033 6.12-27.076 28.076-44.554l52.761-40q-.761-6.003-.761-11.577v-23.153q0-5.574.761-11.618l-52.761-39.761q-22.195-17.478-28.195-44.554t8.478-51.272l51.543-90.13q14.479-23.957 40.555-33.196 26.076-9.239 52.032 2l62.479 26q9.565-6.804 19.652-12.728 10.087-5.924 20.413-10.207l8.239-66.478q3.239-28.196 23.956-46.413 20.718-18.218 48.914-18.218h104.608q28.196 0 48.914 18.218 20.717 18.217 23.956 46.413l8.239 66.478q11.187 4.245 21.083 10.188 9.895 5.943 19.461 12.747l60.239-26q25.956-11.239 52.532-2 26.576 9.239 41.055 33.196l51.543 90.13q14.479 24.196 8.739 51.272-5.739 27.076-27.934 44.554l-50.783 38.109q-15.674 11.196-33.946 8.717-18.272-2.478-29.587-18.152-11.315-15.674-8.456-33.945 2.858-18.272 17.771-29.468l38.044-29.043-36.609-63.696-98.522 42q-22-23.717-49.097-39.576-27.098-15.859-58.576-23.62l-13-105.521h-73.979L429.87-691.848q-31.718 7.761-58.935 23.62-27.218 15.858-49.457 38.815l-98.282-41-36.37 63.696 85.044 63.282q-5 15.478-7.24 30.784-2.239 15.305-2.239 32.651 0 16.239 2.239 31.717 2.24 15.479 7.24 30.957l-85.044 64.043 36.37 63.696 98.23-41.761q23.813 25 53.694 42 29.88 17 64.641 22.718v157.413q0 15.378-8.359 26.363T406.935-71.87Zm73.826-408.892Zm0 0Z"/></svg>