<svg xmlns="http://www.w3.org/2000/svg" height="24" viewBox="0 -960 960 960" width="24"><path d="M574.174-81.587q-20.63 4.957-36.163-8.456-15.533-13.413-15.533-36.283 0-15.435 10.576-28.37 10.576-12.934 26.49-17.891 22.369-5.761 43.478-14.185 21.108-8.424 40.956-20.989 14.674-8.717 32.207-6.859 17.532 1.859 28.489 12.816 16.152 16.152 14.533 37.022-1.62 20.869-20.011 32.065-29.566 18.565-60.511 30.967-30.946 12.402-64.511 20.163Zm187.739-176.978q-11.196-11.196-13.054-28.229-1.859-17.032 6.858-31.184 11.566-19.609 20.37-40.098 8.804-20.489 14.326-43.62 4.717-15.913 18.272-27.108Q822.239-440 838.391-440q22.631 0 35.805 15.794 13.174 15.793 7.456 36.184-7.761 34.566-20.663 65.631-12.902 31.065-31.467 59.108-10.957 17.392-31.207 19.131-20.25 1.739-36.402-14.413ZM837.152-520q-15.674 0-28.848-11.076t-18.13-27.228q-5.522-23.131-14.207-44-8.684-20.87-20.25-39.718-8.478-14.152-6.739-31.184 1.739-17.033 13.174-28.468 15.913-15.913 35.924-14.674 20.011 1.239 30.968 18.391 19.043 28.044 32.326 60.109 13.282 32.065 21.043 65.63 4.957 20.392-8.717 36.305T837.152-520ZM391.782-82.348q-137.717-32.717-226.695-142.63Q76.109-334.891 76.109-480q0-144.913 88.597-255.467 88.598-110.555 226.316-142.229 20.63-4.956 36.043 8.218t15.413 35.282q0 15.435-10.576 28.49-10.576 13.054-26.489 18.01-104.37 26.957-171.337 112.403Q167.109-589.848 167.109-480q0 109.37 66.967 193.674t171.337 113.261q15.674 4.956 26.37 18.511 10.695 13.554 10.695 29.228 0 22.109-15.032 35.022-15.033 12.913-35.664 7.956ZM646.5-751.239q-20.37-12.326-41.739-21.631-21.37-9.304-43.739-14.826-15.913-4.956-26.989-18.01-11.076-13.055-11.076-29.207 0-21.631 15.413-34.924 15.413-13.294 35.565-8.576 33.565 7.761 65.25 20.163 31.685 12.402 61.489 31.445 18.152 10.957 19.772 31.707 1.619 20.75-14.533 36.902-11.196 11.196-27.728 13.435-16.533 2.239-31.685-6.478ZM483.478-286.587q-8.478 0-16.098-2.619-7.619-2.62-12.858-7.62-67.913-62.435-101.75-116.87-33.837-54.434-33.837-101.108 0-71.913 46.935-120.348 46.934-48.435 117.608-48.435t117.489 48.435q46.816 48.435 46.816 120.348 0 46.913-33.837 101.348-33.837 54.434-101.75 116.63-5.239 5.239-12.739 7.739-7.5 2.5-15.979 2.5Zm0-191.739q18.479 0 31.457-13.098 12.978-13.098 12.978-31.576t-12.978-31.576q-12.978-13.098-31.457-13.098-18.717 0-31.695 12.978-12.979 12.979-12.979 31.696 0 18.717 12.979 31.696 12.978 12.978 31.695 12.978Z"/></svg>