<svg xmlns="http://www.w3.org/2000/svg" height="24" viewBox="0 -960 960 960" width="24"><path d="m149.435-149.435 661.13-661.13q21.631-21.631 49.598-9.771 27.968 11.86 27.968 42.358v295.348q0 19.152-13.174 32.326T842.63-437.13q-19.152 0-32.326-13.174T797.13-482.63v-185.957L291.413-162.87H477.37q19.152 0 32.326 13.174t13.174 32.326q0 19.153-13.174 32.327T477.37-71.87H182.022q-30.498 0-42.358-27.968-11.86-27.967 9.771-49.598Zm497.261 77.566q-18.435 0-31.131-12.696-12.695-12.696-12.695-31.131v-197.847q0-18.525 12.695-31.056 12.696-12.531 31.131-12.531 18.435 0 31.011 12.531t12.576 31.056v198.087q0 18.524-12.531 31.055-12.532 12.532-31.056 12.532Zm167.413 0q-18.435 0-31.13-12.696-12.696-12.696-12.696-31.131v-197.847q0-18.525 12.696-31.056 12.695-12.531 31.13-12.531t31.011 12.531q12.576 12.531 12.576 31.056v198.087q0 18.524-12.531 31.055-12.532 12.532-31.056 12.532ZM544.652-416.11Z"/></svg>