<svg xmlns="http://www.w3.org/2000/svg" height="24" viewBox="0 -960 960 960" width="24"><path d="M480-71.87q-84.674 0-159.109-32.097-74.435-32.098-129.63-87.294-55.196-55.195-87.294-129.63T71.869-480q0-84.674 32.098-159.109t87.294-129.63q55.195-55.196 129.63-87.294T480-888.131q84.674 0 159.109 32.098t129.63 87.294q55.196 55.195 87.294 129.63T888.131-480q0 84.674-32.098 159.109t-87.294 129.63q-55.195 55.196-129.63 87.294T480-71.869Zm-7.652-91.717-23.696-23.696q-5.761-5.76-8.641-13-2.881-7.239-2.881-15.717v-221.37q-33.239-1.195-56.619-25.173Q357.13-486.522 357.13-520v-38.804L235.239-680.696q-33.804 41.044-53.087 92.087Q162.87-537.565 162.87-480q0 130.652 89.771 222.217 89.772 91.565 219.707 94.196Zm50.522-2q116.608-15.957 195.434-104.641Q797.13-358.913 797.13-480q0-131.804-92.663-224.467Q611.804-797.13 480-797.13q-43.043 0-82.826 11.26-39.783 11.261-74.304 30.544v72.456H462q18.717 0 35.815 8.12t28.576 22.837l55.044 69.043H640q18.196 0 30.533 12.337T682.87-540v42q0 9.478-2.62 17.957-2.62 8.478-7.62 16.717L522.87-239.043v73.456Z"/></svg>