<svg xmlns="http://www.w3.org/2000/svg" height="24" viewBox="0 -960 960 960" width="24"><path d="M65.413-200v-80q0-19.152 13.174-32.326t32.326-13.174h41.674v171h-41.674q-19.152 0-32.326-13.174T65.413-200Zm127.174 45.5v-171h157.13l36.87-81.587L458-257.283l-35.913 77.435q-5.717 12.435-17.033 18.892-11.315 6.456-23.989 6.456H192.587Zm702-45.5q0 19.152-13.174 32.326T849.087-154.5h-41.674v-171h41.674q19.152 0 32.326 13.174T894.587-280v80Zm-127.174 45.5h-188q-12.913 0-24.348-6.456-11.435-6.457-17.152-18.892L288.456-711.37q-15.674-32.869 3.761-63.5Q311.652-805.5 348-805.5q19.196 0 35.391 10.217 16.196 10.218 24.913 28.174l72.174 159.326 71.457-159.087q8.717-18.195 24.413-28.413 15.695-10.217 35.13-10.217 36.348 0 56.163 30.63 19.816 30.631 4.381 63.5l-120.37 257.957L610.283-325.5h157.13v171Z"/></svg>