<svg xmlns="http://www.w3.org/2000/svg" height="24" viewBox="0 -960 960 960" width="24"><path d="M162.87-151.869q-37.783 0-64.392-26.609Q71.87-205.087 71.87-242.87v-474.26q0-34.196 22.424-59.25 22.424-25.055 55.185-28.642l87.892 87.892h-74.5v474.26h429.499L515.478-320H280q-17 0-28.5-11.5T240-360q0-17 11.5-28.5T280-400h155.478l-386.5-387.782Q37.261-799.5 36.88-816.837q-.38-17.337 12.098-29.815 11.718-11.718 29.435-11.718t29.435 11.718l736.174 735.935Q855.739-99 856.119-81.663q.381 17.337-12.097 29.815-11.718 11.718-29.435 11.718-17.718 0-29.435-11.718L683.37-151.869h-520.5ZM888.131-717.13v422.108q0 22.75-14.219 34.125t-31.282 11.375q-19.63 0-32.565-13.315-12.935-13.315-12.935-32.946V-717.13H375.783q-22.75 0-34.125-14.294-11.375-14.293-11.375-31.199 0-19.16 13.174-32.334 13.173-13.174 32.326-13.174H797.13q37.783 0 64.392 26.609 26.609 26.609 26.609 64.392ZM679.936-480h-69.111q-20.032 0-30.048-12.5-10.016-12.5-10.016-27.5t10.016-27.5q10.016-12.5 30.048-12.5h69.111q17.027 0 28.546 11.5Q720-537 720-520t-11.518 28.5Q696.963-480 679.936-480Zm-107.24-21.065Zm-194.957 43.326ZM280-480q-17 0-28.5-11.5T240-520q0-17 11.5-28.5T280-560q17 0 28.5 11.5T320-520q0 17-11.5 28.5T280-480Z"/></svg>