<svg xmlns="http://www.w3.org/2000/svg" height="24" viewBox="0 -960 960 960" width="24"><path d="M729.565-40q83 0 141.5-58.5t58.5-141.5q0-83-58.5-141.5t-141.5-58.5q-83 0-141.5 58.5t-58.5 141.5q0 83 58.5 141.5t141.5 58.5Zm21.674-208.818 59.522 59.622q6.478 6.522 6.478 15.218 0 8.695-6.478 15.174-6.478 6.478-15.196 6.598-8.717.119-15.195-6.359l-59.283-59.283q-6.717-6.683-10.076-15.037-3.359-8.354-3.359-17.55v-89.804q0-8.67 6.564-15.172 6.564-6.502 15.315-6.502 8.752 0 15.23 6.502t6.478 15.172v91.421ZM162.87-151.869q-37.783 0-64.392-26.609Q71.87-205.087 71.87-242.87v-474.26q0-37.783 26.61-64.392 26.608-26.609 64.391-26.609h634.26q37.783 0 64.392 26.609 26.609 26.609 26.609 64.392v188.043q0 19.152-13.174 32.326t-32.327 13.174q-19.869 0-32.684-12.315-12.816-12.316-12.816-30.75v-31.196H561.913q-19.152 0-32.326-13.174t-13.174-32.326V-717.13H162.87v474.26h241.195q19.153 0 32.326 13.174 13.174 13.174 13.174 32.326 0 19.153-13.174 32.327-13.173 13.174-32.326 13.174H162.87Zm0-91.001v-474.26 474.26Z"/></svg>