<svg xmlns="http://www.w3.org/2000/svg" height="24" viewBox="0 -960 960 960" width="24"><path d="M560-120q-19.152 0-32.326-13.174T514.5-165.5q0-19.152 13.174-32.326T560-211h240q19.152 0 32.326 13.174T845.5-165.5q0 19.152-13.174 32.326T800-120H560ZM230.565-606.218h123.217v-147.564h-58.717l-64.5 147.564ZM680-251q-19.152 0-32.326-13.174T634.5-296.5v-350.196q0-12.934-8.75-21.684-8.75-8.75-21.685-8.75H444.783v116.413q0 19.152-13.174 32.326t-32.326 13.174H160.957q-24.86 0-38.419-20.392-13.56-20.391-3.364-43.261l92.848-211.456q11.195-25.109 33.434-39.783 22.239-14.674 49.609-14.674h58.717q33.718 0 58.653 22.305 24.935 22.304 28.761 54.347H600q52.292 0 88.896 36.605Q725.5-694.922 725.5-642.63v346.13q0 19.152-13.174 32.326T680-251ZM230.565-606.218h123.217-123.217Z"/></svg>