<svg xmlns="http://www.w3.org/2000/svg" height="24" viewBox="0 -960 960 960" width="24"><path d="M606.696-273.304q-17.813 0-29.863-12.935t-12.05-36.152q0-17.813 12.05-29.863t29.863-12.05h30.434v-474.261H162.87v66.13q0 19.152-13.174 32.326t-32.326 13.174q-19.153 0-32.327-13.174T71.87-772.435v-66.13q0-37.783 26.61-64.392 26.608-26.608 64.391-26.608h474.26q37.783 0 64.392 26.608 26.609 26.609 26.609 64.392v177.13l121.217-121.217q11.196-11.196 24.989-5.478 13.794 5.717 13.794 21.391v330.608q0 15.674-13.794 21.392-13.793 5.717-24.989-5.479L728.131-541.435v177.131q0 37.782-26.609 64.391-26.609 26.609-64.392 26.609h-30.434ZM183.5-148.521q-19.152 0-35.646-7.342t-29.006-19.767L8.261-285.217q-6-6.052-6-14.12t6-14.119q9.208-9.24 20.463-13.859 11.254-4.62 22.663-4.62 12.447 0 23.856 4.62 11.41 4.619 19.6 13.897l22.527 22.679v-304.283q0-13.829 9.55-22.871 9.551-9.042 22.285-9.042 13.795 0 22.773 9.042 8.979 9.042 8.979 22.871v157.174h37.608v-217.174q0-13.829 9.551-22.871 9.55-9.042 22.284-9.042 13.796 0 22.894 9.042 9.097 9.042 9.097 22.871v217.174H320v-177.174q0-13.829 9.501-22.871 9.5-9.042 22.167-9.042 13.723 0 22.821 9.042t9.098 22.871v177.174h37.609v-133.587q0-13.829 9.55-22.871 9.551-9.042 22.285-9.042 13.795 0 22.773 9.042 8.979 9.042 8.979 22.871v331.913q0 37.538-26.229 64.269-26.228 26.732-64.772 26.732H183.5Zm453.63-690.044v474.261-474.261Z"/></svg>