<svg xmlns="http://www.w3.org/2000/svg" height="24" viewBox="0 -960 960 960" width="24"><path d="M455.456-684.261q-9.147 0-16.008-6.861-6.861-6.861-6.861-16.008v-85.74q0-45.615 31.496-77.112 31.497-31.497 77.113-31.497h85.978q9.196 0 15.913 6.718 6.718 6.717 6.718 15.913v85.978q0 45.616-31.497 77.113-31.497 31.496-77.112 31.496h-85.74Zm-241.195 245.5q-61.567 0-105.088-43.521-43.521-43.521-43.521-105.088v-103.108q0-19.152 13.174-32.326t32.326-13.174h103.109q61.566 0 105.087 43.521 43.522 43.521 43.522 105.087v103.109q0 19.152-13.174 32.326t-32.326 13.174H214.261ZM648.37-81.391q-38.761 0-74.261-11.522-35.5-11.522-64.739-32.043l-29.891 29.89Q466.805-82.39 447.652-82.39q-19.152 0-31.826-12.674t-12.674-31.826q0-19.152 12.674-31.826l29.891-29.892q-20.521-29.239-32.043-64.739-11.522-35.5-11.522-74.261 0-102.63 71.814-174.804 71.813-72.174 174.404-72.174h155.739q37.782 0 64.391 26.609 26.609 26.608 26.609 64.391v155.978q0 102.591-72.054 174.404Q751-81.391 648.37-81.391Zm0-91q64.848 0 109.532-45.595 44.685-45.596 44.685-109.623v-155.217H648.355q-64.021 0-109.612 45.185-45.591 45.185-45.591 110.032 0 20.422 4.544 38.624 4.543 18.202 13.869 34.528l104.979-104.978q12.674-12.674 31.826-12.674t31.826 12.674q12.674 12.674 12.674 31.826 0 19.153-12.674 31.827L575.218-190.804q16.326 9.326 34.528 13.869 18.202 4.544 38.624 4.544Zm.761-155.979Z"/></svg>