<svg xmlns="http://www.w3.org/2000/svg" height="24" viewBox="0 -960 960 960" width="24"><path d="M162.87-151.869q-37.783 0-64.392-26.609Q71.87-205.087 71.87-242.87v-474.26q0-37.783 26.61-64.392 26.608-26.609 64.391-26.609h634.26q37.783 0 64.392 26.609 26.609 26.609 26.609 64.392v474.26q0 37.783-26.609 64.392-26.609 26.609-64.392 26.609H162.87Zm0-91.001h634.26v-394.26H162.87v394.26ZM347-440l-76-76q-12-12-11.5-28t12.5-28q12-11 28-11.5t28 11.5l99.935 99.935q13.674 13.674 13.674 32.065t-13.674 32.065L328-308q-11 11-27.5 11.5T272-308q-11-11-11-28t11-28l75-76Zm173 160q-17 0-28.5-11.5T480-320q0-17 11.5-28.5T520-360h160q17 0 28.5 11.5T720-320q0 17-11.5 28.5T680-280H520Z"/></svg>