<svg xmlns="http://www.w3.org/2000/svg" height="24" viewBox="0 -960 960 960" width="24"><path d="M677.13-192.826h-74.5q-19.152 0-32.326-13.174t-13.174-32.326q0-19.152 13.174-32.326t32.326-13.174h74.5v-74.5q0-19.152 13.174-32.326t32.326-13.174q19.153 0 32.327 13.174t13.174 32.326v74.5h74.499q19.153 0 32.327 13.174t13.174 32.326q0 19.152-13.174 32.326t-32.327 13.174h-74.499v74.5q0 19.152-13.174 32.326T722.63-72.826q-19.152 0-32.326-13.174t-13.174-32.326v-74.5Zm-552.348 68.044q-12.673-12.435-14.032-31.066-1.359-18.63 14.793-34.782L770.13-835.218q16.913-16.913 35.544-14.793 18.63 2.12 31.065 14.793 12.674 12.435 14.033 31.066 1.359 18.63-15.554 34.782L189.87-124.782q-16.153 16.152-34.283 14.293-18.131-1.859-30.805-14.293Zm-.239-307.761q-12.195-12.435-13.674-30.229-1.478-17.793 14.435-33.706l338.218-338.218q15.913-15.913 33.445-14.174 17.533 1.739 29.729 14.174 12.195 12.435 14.054 29.848 1.859 17.413-14.054 33.326L187.717-432.543q-15.913 15.913-33.326 14.054t-29.848-14.054Zm26.109-272.131q-11.196 11.196-24.989 5.479-13.794-5.718-13.794-21.392v-82.043q0-19.153 13.174-32.327t32.327-13.174h82.043q15.674 0 21.392 13.794 5.717 13.793-5.479 24.989L150.652-704.674Zm652.457 253.826q-19.152 0-31.707-12.935-12.554-12.934-12.554-32.087 0-19.152 12.554-31.706 12.555-12.555 31.707-12.555t32.087 12.555q12.935 12.554 12.935 31.706 0 19.153-12.935 32.087-12.935 12.935-32.087 12.935ZM464.891-111.869q-19.152 0-31.706-12.935-12.555-12.935-12.555-32.087t12.555-31.707q12.554-12.554 31.706-12.554t32.087 12.554q12.935 12.555 12.935 31.707t-12.935 32.087q-12.935 12.935-32.087 12.935Z"/></svg>