<svg xmlns="http://www.w3.org/2000/svg" height="24" viewBox="0 -960 960 960" width="24"><path d="M160-764.304q-19.152 0-32.326-13.174T114.5-809.805q0-19.152 13.174-32.326T160-855.305h640q19.152 0 32.326 13.174t13.174 32.326q0 19.153-13.174 32.327T800-764.304H160Zm287.935 460.13-104-104Q331.261-420.848 331-439.739q-.261-18.891 13.891-33.044 12.435-12.435 31.109-12.435t31.109 12.435l27.391 26.631V-640q0-19.152 13.174-32.326T480-685.5q19.152 0 32.326 13.174T525.5-640v193.848l27.391-27.392q12.435-12.434 30.729-12.315 18.293.12 32.206 14.033 12.913 12.674 12.913 31.826t-12.913 32.065L512.065-304.174Q498.391-290.5 480-290.5t-32.065-13.674ZM160-104.695q-19.152 0-32.326-13.174T114.5-150.195q0-19.153 13.174-32.327T160-195.696h640q19.152 0 32.326 13.174t13.174 32.327q0 19.152-13.174 32.326T800-104.695H160Z"/></svg>