<svg xmlns="http://www.w3.org/2000/svg" height="24" viewBox="0 -960 960 960" width="24"><path d="m678.087-677.478-11.609 11.609q-12.195 12.195-30.511 12.076-18.315-.12-30.511-12.316-12.195-12.195-12.195-30.51 0-18.316 12.195-30.511l84.392-84.153q13.674-13.674 32.065-13.293 18.391.38 32.065 13.293l84.913 83.392q12.957 12.956 12.696 31.011-.261 18.054-13.456 31.011-12.957 12.195-30.631 12.456-17.674.261-30.63-12.696l-11.37-11.369v479.391q0 18.435-12.576 31.011T721.913-154.5q-18.435 0-31.13-12.696-12.696-12.695-12.696-31.13v-479.152ZM442.022-394.87l81.586 28.892q12.435 4.239 19.272 14.434 6.837 10.196 6.837 22.631 0 21.391-17.413 33.207-17.413 11.815-36.804 4.097L136.109-425.261q-11.957-4.478-19.174-14.815-7.218-10.337-7.218-23.533v-30.63q0-13.196 7.218-23.533 7.217-10.337 19.174-14.815L495.543-666q19.631-7.196 36.902 4.478 17.272 11.674 17.272 32.544 0 13.152-7.696 23.967-7.695 10.816-20.369 15.294l-79.63 27.13v167.717Zm-69.022-22v-122.434l-171.478 59.217v4L373-416.87Z"/></svg>