<svg xmlns="http://www.w3.org/2000/svg" height="24" viewBox="0 -960 960 960" width="24"><path d="M802.63-111.869q-19.152 0-32.326-13.174T757.13-157.37q0-19.152 13.174-32.326t32.326-13.174q19.153 0 32.327 13.174t13.174 32.326q0 19.153-13.174 32.327t-32.327 13.174Zm-161.434 0q-19.153 0-32.326-13.174-13.174-13.174-13.174-32.327 0-19.152 13.174-32.326 13.173-13.174 32.326-13.174 19.152 0 32.326 13.174t13.174 32.326q0 19.153-13.174 32.327t-32.326 13.174Zm-161.196 0q-19.152 0-32.326-13.174T434.5-157.37q0-19.152 13.174-32.326T480-202.87q19.152 0 32.326 13.174T525.5-157.37q0 19.153-13.174 32.327T480-111.869Zm-161.435 0q-19.152 0-32.326-13.174t-13.174-32.327q0-19.152 13.174-32.326t32.326-13.174q19.152 0 32.326 13.174t13.174 32.326q0 19.153-13.174 32.327t-32.326 13.174ZM802.63-757.13q-19.152 0-32.326-13.174T757.13-802.63q0-19.153 13.174-32.327t32.326-13.174q19.153 0 32.327 13.174t13.174 32.327q0 19.152-13.174 32.326T802.63-757.13Zm-161.434 0q-19.153 0-32.326-13.174-13.174-13.174-13.174-32.326 0-19.153 13.174-32.327 13.173-13.174 32.326-13.174 19.152 0 32.326 13.174t13.174 32.327q0 19.152-13.174 32.326t-32.326 13.174Zm-161.196 0q-19.152 0-32.326-13.174T434.5-802.63q0-19.153 13.174-32.327T480-848.131q19.152 0 32.326 13.174T525.5-802.63q0 19.152-13.174 32.326T480-757.13Zm-161.435 0q-19.152 0-32.326-13.174t-13.174-32.326q0-19.153 13.174-32.327t32.326-13.174q19.152 0 32.326 13.174t13.174 32.327q0 19.152-13.174 32.326t-32.326 13.174ZM157.37-111.869q-19.153 0-32.327-13.174t-13.174-32.327v-645.26q0-19.153 13.174-32.327t32.327-13.174q19.152 0 32.326 13.174t13.174 32.327v645.26q0 19.153-13.174 32.327t-32.326 13.174Zm413.804-322.87 27.391 27.391Q611-394.913 611-376.62q0 18.294-13.913 32.207-12.674 12.913-31.826 12.913t-32.065-12.913L431.348-447.935Q417.674-461.609 417.674-480t13.674-32.065l101.848-103.761q12.913-12.913 32.065-12.913 19.152 0 31.826 12.913Q611-601.913 611-583.62q0 18.294-12.435 30.729L571.174-525.5H802.87q19.152 0 32.206 13.174 13.055 13.174 13.055 32.326t-13.055 32.207q-13.054 13.054-32.206 13.054H571.174Z"/></svg>