<svg xmlns="http://www.w3.org/2000/svg" height="24" viewBox="0 -960 960 960" width="24"><path d="M760-665.5q17.813 0 29.863-12.05t12.05-29.863q0-17.712-12.05-29.693-12.05-11.981-29.863-11.981t-29.863 11.982q-12.05 11.983-12.05 29.696t12.05 29.811Q742.187-665.5 760-665.5Zm-160 0q17.813 0 29.863-12.05t12.05-29.863q0-17.712-12.05-29.693-12.05-11.981-29.863-11.981t-29.863 11.982q-12.05 11.983-12.05 29.696t12.05 29.811Q582.187-665.5 600-665.5Zm80 58.087q-28.283 0-54.304 11.022-26.022 11.021-38.5 36.065-5.718 10.239 2.021 19.576 7.74 9.337 20.935 9.337h139.696q13.195 0 20.935-9.337 7.739-9.337 2.021-19.576-12.478-25.044-38.5-36.065-26.021-11.022-54.304-11.022Zm-400 542q-102.87 0-175.141-72.092-72.272-72.093-72.272-175.082V-509q0-37.782 26.609-64.391Q85.804-600 123.587-600h312.826q37.783 0 64.391 26.609 26.609 26.609 26.609 64.391v196.413q0 102.989-72.272 175.082Q382.87-65.413 280-65.413Zm0-87.174q66 0 113-47t47-113v-200H120v200q0 66 47 113t113 47Zm647.413-651v196.174q0 104.391-72.272 176.022-72.271 71.63-175.902 71.63-15.087 0-29.896-1.681-14.809-1.681-29.169-5.884-17.674-5.239-25.87-21.076-8.195-15.837-2.956-33.989 5-17.674 20.717-25.533 15.718-7.859 32.913-4.054 8.37 2.282 15.979 3.423 7.608 1.142 15.978 1.142 67.435-.239 115.25-45.924T840-607.413v-200H520v103.826q0 18.524-12.531 31.056Q494.937-660 476.413-660q-18.435 0-31.131-12.696-12.695-12.695-12.695-31.13v-99.761q0-37.783 26.609-64.392 26.608-26.608 64.391-26.608h312.826q37.783 0 64.391 26.608 26.609 26.609 26.609 64.392ZM200-370.913q17.813 0 29.863-11.982 12.05-11.983 12.05-29.696t-12.05-29.811Q217.813-454.5 200-454.5t-29.863 12.05q-12.05 12.05-12.05 29.863 0 17.712 12.05 29.693 12.05 11.981 29.863 11.981Zm160 0q17.813 0 29.863-11.982 12.05-11.983 12.05-29.696t-12.05-29.811Q377.813-454.5 360-454.5t-29.863 12.05q-12.05 12.05-12.05 29.863 0 17.712 12.05 29.693 12.05 11.981 29.863 11.981Zm-80 134.326q27.522 0 52.335-10.657 24.813-10.657 38.708-33.908 5.718-11-.76-21.217-6.479-10.218-18.913-10.218H208.63q-12.434 0-18.913 10.218-6.478 10.217-.76 21.217 13.895 23.251 38.708 33.908T280-236.587Zm0-96Zm388.087-294.826Z"/></svg>