<svg xmlns="http://www.w3.org/2000/svg" height="24" viewBox="0 -960 960 960" width="24"><path d="m856.43-609.02-37.15-17.2q-6.71-3.38-6.71-10.15 0-6.76 6.71-10.24l37.14-16.97 16.97-37.14q3.38-6.71 10.15-6.71 6.76 0 10.24 6.71l17.2 37.15 36.91 16.96q6.72 3.38 6.72 10.15 0 6.76-6.72 10.24l-36.91 17.2-17.2 36.91q-3.38 6.72-10.15 6.72-6.76 0-10.24-6.72l-16.96-36.91ZM722.48-806.07l-66.78-31.15q-6.72-3.38-6.72-10.15 0-6.76 6.72-10.24l66.78-30.91 30.91-66.78q3.38-6.72 10.15-6.72 6.76 0 10.24 6.72l31.15 66.78 66.79 30.91q6.72 3.38 6.72 10.15 0 6.76-6.72 10.24l-66.73 31.21-31.21 66.73q-3.38 6.71-10.15 6.71-6.76 0-10.24-6.71l-30.91-66.79ZM352.59-65.41q-34.19 0-58.53-25.06-24.34-25.05-24.34-60.68H435.7q0 35.63-24.42 60.68-24.41 25.06-58.69 25.06ZM232.11-193.07q-17.71 0-29.69-12.05-11.99-12.05-11.99-29.86 0-17.71 11.99-29.69 11.98-11.98 29.69-11.98H473.3q17.72 0 29.7 11.98t11.98 29.7q0 17.71-11.98 29.81-11.98 12.09-29.7 12.09H232.11Zm-31.68-125.5Q129.28-361 86.99-432.03 44.7-503.07 44.7-586.7q0-128.28 89.81-218.09 89.81-89.8 218.12-89.8 128.3 0 218.2 89.8 89.89 89.81 89.89 218.09 0 83.87-42.3 154.79Q576.13-361 504.98-318.57H200.43Zm27.35-91h249.85q44.28-31.52 68.19-77.56 23.9-46.04 23.9-99.51 0-91.1-63.05-154.02-63.04-62.93-154.08-62.93-91.05 0-153.97 62.93-62.92 62.92-62.92 154.02 0 53.47 23.9 99.51 23.9 46.04 68.18 77.56Zm124.81 0Z"/></svg>