<svg xmlns="http://www.w3.org/2000/svg" height="24" viewBox="0 -960 960 960" width="24"><path d="M163.826-272.826q-37.783 0-64.391-26.609-26.61-26.608-26.61-64.391v-232.348q0-37.783 26.61-64.391 26.608-26.609 64.391-26.609h632.348q37.783 0 64.391 26.609 26.609 26.608 26.609 64.391v232.348q0 37.783-26.609 64.391-26.608 26.609-64.391 26.609H163.826Zm0-91h632.348v-232.348h-82.522q5.566 11.991 8.348 24.839 2.783 12.848 2.783 26.552 0 57-41.5 98.5t-98.5 41.5H375.217q-57 0-98.5-41.5t-41.5-98.5q0-13.704 2.783-26.552 2.782-12.848 8.348-24.839h-82.522v232.348Zm211.391-129.566h60.479v-102.782h-60.479q-20.413 0-35.902 15.387-15.489 15.386-15.489 35.902 0 20.515 15.489 36.004 15.489 15.489 35.902 15.489Zm149.087 0h60.479q20.556 0 35.973-15.437 15.418-15.438 15.418-36.022 0-20.584-15.418-35.953-15.417-15.37-35.973-15.37h-60.479v102.782Zm271.87 129.566H163.826h632.348Z"/></svg>