<svg xmlns="http://www.w3.org/2000/svg" height="24" viewBox="0 -960 960 960" width="24"><path d="M281.913-590.913H115.456q-18.524 0-31.055-12.531-12.532-12.531-12.532-31.056 0-18.524 12.532-31.056 12.53-12.531 31.055-12.531h166.457v-83.609l-28.782 28.783q-13.084 13.196-31.075 12.696t-31.238-13.696q-12.144-13.196-12.405-30.75-.261-17.555 12.696-30.511l102.565-102.565q13.674-13.674 31.946-13.555 18.271.12 31.945 13.555l102.566 102.804q12.956 12.957 12.695 30.391-.261 17.435-12.404 30.631-13.248 13.196-31.302 13.576-18.055.38-31.25-12.815l-28.544-28.544v392.609h475.457q18.524 0 31.056 12.531 12.531 12.531 12.531 31.056 0 18.524-12.531 31.056-12.532 12.531-31.056 12.531H678.565v83.848l28.783-28.783q13.084-13.195 31.074-12.695 17.991.5 31.239 13.695 12.143 13.196 12.404 30.75.261 17.555-12.695 30.511L666.804-62.022q-13.674 13.674-31.945 13.555-18.272-.12-31.946-13.555L500.348-164.826q-12.957-12.956-12.696-30.391.261-17.435 12.405-30.631 13.247-13.195 31.302-13.576 18.054-.38 31.25 12.815l28.543 28.544v-83.848H369.326q-36.058 0-61.735-25.533-25.678-25.532-25.678-61.641v-221.826Zm309.239 141.826v-141.826H449.326v-87.174h141.826q36.058 0 61.736 25.533 25.677 25.532 25.677 61.641v141.826h-87.413Z"/></svg>