<svg xmlns="http://www.w3.org/2000/svg" height="24" viewBox="0 -960 960 960" width="24"><path d="M733.239-323.826 537.196-518.348 441.848-423q-26.348 26.348-64.652 26.348-38.305 0-64.653-26.348L103.696-633.609q-12.674-12.913-13.055-31.565-.38-18.652 13.294-32.087 12.674-12.674 31.826-12.674t31.826 12.674l209.609 209.609L472.543-583q26.348-26.348 64.653-26.348 38.304 0 64.652 26.348L797.13-387.479v-55.869q0-19.152 13.174-32.326t32.326-13.174q19.153 0 32.327 13.174t13.174 32.326v165.022q0 19.152-13.174 32.326t-32.327 13.174H677.37q-19.153 0-32.327-13.174t-13.174-32.326q0-19.152 13.174-32.326t32.327-13.174h55.869Z"/></svg>