<svg xmlns="http://www.w3.org/2000/svg" height="24" viewBox="0 -960 960 960" width="24"><path d="M274.5-197.37V-514.5q0-37.543 26.728-64.272Q327.957-605.5 365.5-605.5h309.348l-31.935-31.935Q630-650.348 630-669.261t12.913-31.826Q655.826-714 674.859-714q19.032 0 31.945 12.913l109.261 109.022q13.674 13.674 13.674 32.065t-13.674 32.065L706.804-418.674q-12.913 12.913-31.826 12.794-18.913-.12-31.826-13.033t-12.913-31.946q0-19.032 12.913-31.945l31.696-31.696H365.5v317.13q0 19.153-13.174 32.327T320-151.869q-19.152 0-32.326-13.174T274.5-197.37Z"/></svg>