<svg xmlns="http://www.w3.org/2000/svg" height="24" viewBox="0 -960 960 960" width="24"><path d="m230.587-191.869-20.565 61.934q-2.518 7.435-8.814 12.392-6.295 4.956-14.711 4.956h-7.214q-10.153 0-17.468-7.315-7.315-7.315-7.315-17.468v-61.434l9.087 6.935q-38.022 0-64.87-26.609Q71.87-245.087 71.87-282.87v-434.021q0-37.783 26.61-64.392 26.608-26.608 64.391-26.608h634.26q37.783 0 64.392 26.608 26.609 26.609 26.609 64.392v434.021q0 37.783-26.848 64.272-26.848 26.489-64.631 26.729l8.848-6.935v62.674q0 9.913-6.815 16.728-6.815 6.815-16.728 6.815h-8.674q-7.674 0-13.77-4.401-6.096-4.402-8.535-11.947l-20.565-62.934H230.587ZM162.87-282.87h634.26v-434.021H162.87v434.021ZM480-499.761Z"/></svg>