<svg xmlns="http://www.w3.org/2000/svg" height="24" viewBox="0 -960 960 960" width="24"><path d="m480-276.348-92.174 92.174Q375.152-171.5 356-171.5t-31.826-12.674Q311.5-196.848 311.5-216t12.674-31.826l123.761-123.761q6.717-6.717 14.913-9.815Q471.043-384.5 480-384.5t17.152 3.098q8.196 3.098 14.913 9.815l123.761 123.761Q648.5-235.152 648.5-216t-12.674 31.826Q623.152-171.5 604-171.5t-31.826-12.674L480-276.348Zm0-407.304 92.174-92.174Q584.848-788.5 604-788.5t31.826 12.674Q648.5-763.152 648.5-744t-12.674 31.826L512.065-588.413q-6.717 6.717-14.913 9.815Q488.957-575.5 480-575.5t-17.152-3.098q-8.196-3.098-14.913-9.815L324.174-712.174Q311.5-724.848 311.5-744t12.674-31.826Q336.848-788.5 356-788.5t31.826 12.674L480-683.652Z"/></svg>