<svg xmlns="http://www.w3.org/2000/svg" height="24" viewBox="0 -960 960 960" width="24"><path d="M320-151.869q-19.152 0-32.326-13.174T274.5-197.37q0-19.152 13.174-32.326T320-242.87h320q19.152 0 32.326 13.174T685.5-197.37q0 19.153-13.174 32.327T640-151.869H320ZM480-322.87q-19.152 0-32.326-13.174T434.5-368.37v-275.76l-66.674 65.912q-12.674 12.674-31.446 13.055-18.771.38-32.206-13.055-12.674-12.673-12.674-31.826 0-19.152 12.674-31.826l143.761-143.761q6.717-6.717 14.913-9.815 8.195-3.098 17.152-3.098t17.152 3.098q8.196 3.098 14.913 9.815L655.826-641.87q12.674 12.674 13.055 31.446.38 18.772-13.055 32.206-12.674 12.674-31.826 12.674t-31.826-12.674L525.5-644.13v275.76q0 19.152-13.174 32.326T480-322.87Z"/></svg>