<svg xmlns="http://www.w3.org/2000/svg" height="24" viewBox="0 -960 960 960" width="24"><path d="M480-72.587q-34.435 0-59.011-24.695-24.576-24.696-24.576-59.131 0-21.478 10.88-39.717 10.881-18.24 29.12-29.957v-86.5H320q-36.109 0-61.761-25.652T232.587-400v-89.848q-18-9.956-29-28.435-11-18.478-11-41.717 0-19.196 7.717-35.272 7.718-16.076 21.674-27.554L73.913-770.891q-11.718-11.718-11.598-28.816.12-17.098 12.598-29.576 12.478-12.478 29.696-12.478 17.217 0 29.695 12.478l695.979 695.979q11.717 11.717 11.978 28.815.261 17.098-12.217 29.576-12.479 12.478-29.696 12.478-17.217 0-29.696-12.478L532.218-312.587h-8.631v86.022q19 10.956 29.5 29.435 10.5 18.478 10.5 40.717 0 34.435-24.576 59.13Q514.435-72.587 480-72.587Zm287.413-548.13v121.434q0 9.435-6.837 16.153-6.837 6.717-16.272 6.717h-17.13v23.065q0 21.913-13.576 32.75t-30.011 10.837q-16.196 0-29.891-11.217Q640-432.196 640-454.109v-22.304h-17.37q-9.195 0-15.913-6.837Q600-490.087 600-499.283v-121.434q0-9.435 6.717-16.153 6.718-6.717 16.153-6.717h121.434q9.435 0 16.272 6.717 6.837 6.718 6.837 16.153ZM320-400h116.413v-8.63L339-505.804q-4 5-9 8.739-5 3.739-10 6.978V-400Zm116.413-320h-38.326q-13.913 0-20.511-12.435-6.598-12.435 2.359-23.869l81.674-109.392q3.239-4.239 18.391-9.195 5.717 0 10.315 1.858 4.598 1.859 8.076 7.337l81.435 108.913q8.957 11.435 2.239 24.109Q575.348-720 561.435-720h-37.848v61.152q0 21.913-13.576 32.63Q496.435-615.5 480-615.5q-16.196 0-29.891-11.218-13.696-11.217-13.696-33.13V-720Z"/></svg>