<svg xmlns="http://www.w3.org/2000/svg" height="24" viewBox="0 -960 960 960" width="24"><path d="M434.5-761.913H320q-19.152 0-32.326-13.174T274.5-807.413q0-19.152 13.174-32.326T320-852.913h320q19.152 0 32.326 13.174t13.174 32.326q0 19.152-13.174 32.326T640-761.913H525.5v74.5q0 19.152-13.174 32.326T480-641.913q-19.152 0-32.326-13.174T434.5-687.413v-74.5Zm-287.413 623v-264q0-19.152 13.174-32.326t32.326-13.174q19.152 0 32.326 13.174t13.174 32.206v1.12h109v-109h-1.12q-19.033 0-32.207-13.174-13.173-13.174-13.173-32.326t13.173-32.326q13.174-13.174 32.327-13.174h267.826q19.153 0 32.327 13.174 13.173 13.174 13.173 32.326t-13.173 32.326q-13.174 13.174-32.207 13.174h-1.12v109h109v-1.12q0-19.032 13.174-32.206 13.174-13.174 32.326-13.174t32.326 13.174q13.174 13.174 13.174 32.326v264q0 19.153-13.174 32.327t-32.326 13.174q-19.152 0-32.326-13.174t-13.174-32.327v-1H238.087v1q0 19.153-13.174 32.327t-32.326 13.174q-19.152 0-32.326-13.174t-13.174-32.327Zm91-92h483.826v-80h-200v-200h-83.826v200h-200v80Zm241.913 0Z"/></svg>