<svg xmlns="http://www.w3.org/2000/svg" height="24" viewBox="0 -960 960 960" width="24"><path d="M796.152-50.652 50.413-796.87q-11.717-11.717-11.598-29.315.12-17.598 11.837-29.315 11.718-11.718 29.315-11.718 17.598 0 29.316 11.718l745.978 746.217q11.717 11.718 11.598 29.435-.12 17.718-11.837 29.435-11.718 11.717-29.435 11.598-17.717-.12-29.435-11.837Zm-412.63-413.109Zm-227.109-344.37 91 91.001H162.87v474.26h474.26v-84.543l90.522 90.522q-1.913 35.63-28.043 60.326-26.131 24.696-62.479 24.696H162.87q-37.783 0-64.392-26.609Q71.87-205.087 71.87-242.87v-474.26q0-36.109 24.696-62.359t60.326-28.163l-.478-.479Zm80 491.718v-23.674q0-44.717 45.076-72.315T400-440q73.435 0 118.511 27.598 45.076 27.598 45.076 72.315v23.674H236.413Zm487.174-107.891q-1.913 14.847-13.413 24.793t-27.544 9.946q-19.152 0-32.326-13.174t-13.174-32.327V-717.13H369.565q-22.75 0-34.125-14.24-11.375-14.239-11.375-31.326t11.375-31.261q11.375-14.174 34.125-14.174H637.13q37.783 0 64.392 26.609 26.609 26.609 26.609 64.392V-540l121.217-121.217q11.196-11.196 24.989-5.479 13.794 5.718 13.794 21.392v330.608q0 15.674-13.794 21.392-13.793 5.717-24.989-5.479L723.587-424.304ZM500.152-577.152Z"/></svg>