<svg xmlns="http://www.w3.org/2000/svg" height="24" viewBox="0 -960 960 960" width="24"><path d="M737-58.195q-19.152 0-32.326-13.174T691.5-103.696q0-9.195 3.478-18.152 3.478-8.956 9.196-14.674 42.043-42.043 66.185-97.326Q794.5-289.13 794.5-353.696q0-63.804-24.141-119.467-24.142-55.663-66.185-97.706-5.718-5.718-9.196-14.674-3.478-8.957-3.478-18.153 0-19.152 13.174-32.326T737-649.196q9.196 0 17.652 3.979 8.457 3.978 14.174 9.695 54.718 54.718 85.696 127.055Q885.5-436.13 885.5-353.696q0 83.196-30.978 155.153-30.978 71.956-85.696 126.674-5.717 5.717-14.174 9.695-8.456 3.979-17.652 3.979ZM615.348-179.848q-19.153 0-32.327-13.174-13.173-13.174-13.173-32.326 0-9.196 3.858-17.772 3.859-8.576 9.576-14.293 18.609-18.609 29.413-43.239 10.805-24.631 10.805-53.044 0-28.413-11.185-53.043t-29.033-43.239q-6.478-5.717-9.956-14.293-3.478-8.577-3.478-17.772 0-19.152 13.173-32.326 13.174-13.174 32.327-13.174 9.195 0 18.032 3.598 8.837 3.597 14.555 10.076 31.282 31.282 48.924 72.206 17.641 40.924 17.641 87.967 0 47.044-17.641 87.968-17.642 40.924-48.924 72.206-5.718 6.479-14.555 10.076-8.837 3.598-18.032 3.598ZM317.37-351.869h-74.261v8.369q.956 32.13 21.021 56.359 20.066 24.228 50.674 32.511l12 3q43.348 10.956 48.946 54.543 5.598 43.587-33.75 65.5-51.717 29.239-108.435 42.24-56.717 13-116.195 16.238-19.153 1.24-32.327-11.934T71.87-117.37q0-19.152 13.174-32.206 13.174-13.054 32.327-13.815 32.652-1.522 64.043-7.185 31.391-5.663 62.043-16.707-42.891-24.434-67.239-67.097-24.348-42.663-24.348-91.99v-51q0-19.152 13.174-32.326t32.327-13.174h114.499v-74.5q0-19.152 13.174-32.326t32.327-13.174h89.978l-113-225.282q-8.957-16.913-2.739-34.566 6.217-17.652 23.13-26.608 16.913-8.957 34.685-2.739 17.772 6.217 26.728 23.13L525.804-609.87q25.979 52.196-1.804 95.098-27.783 42.903-78.522 42.903H402.87v34.499q0 35.392-25.055 60.446-25.054 25.055-60.445 25.055Z"/></svg>