<svg xmlns="http://www.w3.org/2000/svg" height="24" viewBox="0 -960 960 960" width="24"><path d="M760.89-83.8 642.78-201.15l-24.39 80.89q-8.24 26.96-30.19 43.17-21.96 16.22-49.4 16.22H420.2q-27.44 0-49.4-16.22-21.95-16.21-30.19-43.17l-24.2-80.83q-6.71-22.39-20.53-44.9-13.81-22.51-36.68-49.29-33.05-37.48-50.19-84.98-17.14-47.5-17.14-99.74 0-36 9.12-70.58 9.12-34.57 26.6-66.01L83.76-760.17q-12.48-12.48-12.48-29.82t12.48-29.81q12.48-12.48 29.82-12.48 17.33 0 29.81 12.48l677.13 677.13Q833-130.2 833-113.24T820.52-83.8q-12.48 12.47-29.81 12.47-17.34 0-29.82-12.47ZM480-282.87q18.57 0 35.49-3.14t32.49-9.19L295.43-547.74q-6.04 15.57-9.3 32.37-3.26 16.8-3.26 35.37 0 81.8 57.66 139.47Q398.2-282.87 480-282.87Zm162.59-475.04q6.71 22.39 20.53 44.9 13.81 22.51 36.68 49.29 33.05 37.48 50.69 84.98 17.64 47.5 17.64 98.74 0 21.57-2.26 38.71t-7.02 33.14q-5.24 18.39-21.42 26.94-16.17 8.56-35.32 2.56-17.39-5.24-26.07-21.8-8.67-16.55-3.43-35.7 2.76-8.76 3.64-18.4.88-9.65.88-25.45 0-41.28-15.64-76.8-15.64-35.53-42.4-62.29-36.33-36.32-84.68-50.32-48.34-14-97.43-2.92-12.44 2.76-24.25-.09-11.82-2.86-20.53-11.58l-56.31-56.3q-8.96-8.96-11.81-20.9-2.86-11.93.62-24.37l15.91-53.17q8.24-26.96 30.19-43.67 21.96-16.72 49.4-16.72h118.6q27.44 0 49.4 16.72 21.95 16.71 30.19 43.67l24.2 80.83Zm-218.76-54.05h112.1H423.83Zm0 663.92H535.93h-112.1Zm-16.96-610.81q18.56-4.76 36.59-7.4 18.02-2.64 36.54-2.64t36.54 2.64q18.03 2.64 36.59 7.4l-17.2-53.11h-112.1l-16.96 53.11Zm16.96 610.81h112.1l17.2-53.11q-18.56 4.52-36.59 6.9-18.02 2.38-36.54 2.38t-36.54-2.38q-18.03-2.38-36.59-6.9l16.96 53.11Z"/></svg>