<svg xmlns="http://www.w3.org/2000/svg" height="24" viewBox="0 -960 960 960" width="24"><path d="M242.87-163.587v-394.261 394.261-13.027 13.027Zm124.543-485.261h225.174v-73.065q0-47.21-32.728-80.257Q527.13-835.217 480-835.217q-47.13 0-79.859 33.047-32.728 33.047-32.728 80.257v73.065ZM242.87-72.587q-37.538 0-64.269-26.731-26.732-26.731-26.732-64.269v-394.261q0-37.537 26.732-64.269 26.731-26.731 64.269-26.731h33.543v-73.065q0-84.913 59.457-144.609 59.456-59.696 144.13-59.696 84.674 0 144.13 59.696 59.457 59.696 59.457 144.609v73.065h33.543q37.538 0 64.269 26.731 26.732 26.732 26.732 64.269v109.957q0 22.63-14.185 33.945-14.185 11.316-31.207 11.316t-31.315-11.196q-14.294-11.196-14.294-34.065v-109.957H242.87v394.261h290.195q22.75 0 34.125 14.185t11.375 31.206q0 17.022-11.375 31.316-11.375 14.293-34.125 14.293H242.87Zm520.239 0q-44.152 0-74.826-30.674-30.674-30.674-30.674-74.78 0-21.002 7.386-38.426 7.386-17.423 20.048-32.207L738-307.87q10.291-11.434 25.157-11.434 14.865 0 25.061 11.434l52.956 59.196q12.662 14.75 20.049 32.133 7.386 17.383 7.386 38.454 0 44.152-30.674 74.826-30.674 30.674-74.826 30.674ZM480-280.717q33 0 56.5-23.5t23.5-56.5q0-33-23.5-56.5t-56.5-23.5q-33 0-56.5 23.5t-23.5 56.5q0 33 23.5 56.5t56.5 23.5Z"/></svg>