<svg xmlns="http://www.w3.org/2000/svg" height="24" viewBox="0 -960 960 960" width="24"><path d="M693-617.609q-45.043 0-85.446 14.761-40.402 14.761-73.641 40.761-10.956 8.717-24.413 8.598-13.457-.12-23.174-9.837-9.717-9.717-8.837-23.435.881-13.717 11.598-22.435 42.717-34.478 94.815-53.837Q636-682.391 694-682.391t109.598 19.358q51.598 19.359 94.315 53.837 10.717 8.718 11.098 22.435.38 13.718-9.337 23.315-9.717 9.598-22.674 9.837-12.957.239-23.913-8.478-33.239-26-74.141-40.761-40.903-14.761-85.946-14.761Zm1 120q-20.283 0-39.304 5.761-19.022 5.761-35.783 16.522-11.717 7.478-24.413 6.978t-22.174-9.978q-9.717-9.717-9.337-22.794.381-13.076 11.337-21.554 25.478-18.478 55.457-29.098 29.978-10.619 63.226-10.619 33.249 0 63.979 10.619 30.729 10.62 56.447 29.098 10.956 8.478 11.456 21.522.5 13.043-9.217 22.826-9.478 9.478-22.674 9.598-13.196.119-24.913-7.359-16.761-10.761-35.283-16.141-18.521-5.381-38.804-5.381Zm.017 140.957q-18.213 0-30.55-12.32t-12.337-30.533q0-18.212 12.321-30.549 12.32-12.337 30.532-12.337 18.213 0 30.55 12.32t12.337 30.532q0 18.213-12.321 30.55-12.32 12.337-30.532 12.337ZM480.239-69.239q-34.184 0-58.527-24.273-24.342-24.272-24.342-58.357h165.5q0 34.195-24.273 58.413-24.273 24.217-58.358 24.217ZM229-282.87v-271.869q0-86.109 51.315-153.598 51.315-67.489 134.185-88.207v-26.086q0-27.292 19.104-46.396 19.104-19.105 46.396-19.105t46.396 19.105Q545.5-849.922 545.5-822.63v26.086q25.149 5.622 47.564 16.866 22.415 11.243 42.61 27.395-30.543 7.283-60.109 17.859-29.565 10.576-57.391 24.728-9.804-2.521-18.956-3.782-9.151-1.261-19.218-1.261-66 0-113 47t-47 113v271.869h442.63q19.153 0 32.327 13.174t13.174 32.326q0 19.153-13.174 32.327t-32.327 13.174H197.37q-19.153 0-32.327-13.174t-13.174-32.327q0-19.152 13.174-32.326t32.327-13.174H229Zm263.63-215.934Z"/></svg>