<svg xmlns="http://www.w3.org/2000/svg" height="24" viewBox="0 -960 960 960" width="24"><path d="M691.174-249.869q-11.717 10.239-24.456 1-12.74-9.24-7.5-23.718 5-18.717 7.239-37.935 2.239-19.217 2.239-39.934 0-82.87-36.315-151.761-36.316-68.892-98.468-114.566l-56.565 56.565q-11.196 11.196-24.989 5.479-13.794-5.718-13.794-21.392v-231.521q0-19.153 13.174-32.327 13.174-13.173 32.326-13.173h231.522q15.674 0 21.391 13.793 5.718 13.794-5.478 24.989l-56.565 56.565q53.913 48.674 85.989 116.066Q793-574.348 793-495.478q0 46.674-11.858 89.608-11.859 42.935-32.577 81.131-11.239 19.717-25.576 40.054-14.337 20.337-31.815 34.816ZM228.5-145.63l56.565-56.565q-54.913-48.674-86.489-116.066Q167-385.652 167-464.522q0-46.674 11.858-89.728 11.859-43.054 32.577-81.25 11.239-19.718 25.956-39.935 14.718-20.217 32.196-34.696 11.717-10.239 24.456-1.38 12.739 8.859 7.5 23.337-5 18.717-7.619 38.315-2.62 19.598-2.62 40.315 0 82.87 36.815 151.761 36.816 68.892 97.968 114.566l56.565-56.565q11.196-11.196 24.989-5.479 13.794 5.718 13.794 21.392v231.521q0 19.153-13.174 32.327-13.174 13.173-32.326 13.173H244.413q-15.674 0-21.391-13.793-5.718-13.794 5.478-24.989Z"/></svg>