<svg xmlns="http://www.w3.org/2000/svg" height="24" viewBox="0 -960 960 960" width="24"><path d="M440-314.5q-22.326 0-43.511-3.522-21.185-3.521-41.228-10.565-18.152-6-24.989-24.152t1.88-36.304q8.718-16.914 24.555-22.37 15.837-5.457 34.989-1.174 10.848 3.804 23.771 5.446Q428.391-405.5 440-405.5q72.848 0 123.674-50.826Q614.5-507.152 614.5-580q0-72.848-50.826-123.674Q512.848-754.5 440-754.5q-68.043 0-116.152 43.989-48.109 43.989-56.348 112.033l21.044-20.805Q300.261-631 317.978-630.88q17.718.119 29.435 12.076 11.718 11.717 11.718 29.434 0 17.718-11.718 29.435l-95.109 95.109q-13.674 13.674-31.945 13.554-18.272-.119-31.946-13.554l-94.87-95.109q-11.717-11.717-11.717-29.554 0-17.837 12.478-30.315 11.718-11.718 28.674-11.718 16.957 0 29.435 11.718l24.087 23.087q6-105.631 81.076-177.207T440-845.5q111.391 0 188.446 77.054Q705.5-691.391 705.5-580q0 42.957-12.761 82.359-12.761 39.402-37.326 68.924L855.261-228.63q12.674 12.673 12.674 31.706t-12.674 31.946q-12.674 12.913-31.826 12.913t-32.065-12.674L591.522-364.587q-31.283 24.565-70.044 37.326Q482.717-314.5 440-314.5Z"/></svg>