<svg xmlns="http://www.w3.org/2000/svg" height="24" viewBox="0 -960 960 960" width="24"><path d="m275.696-211.804-86.674 86.674q-12.913 12.913-31.826 12.793-18.913-.119-31.826-13.033-12.914-12.913-12.914-31.945 0-19.033 12.914-31.946l86.434-86.435H157.37q-19.153 0-32.327-13.174-13.174-13.173-13.174-32.326 0-19.152 13.174-32.326t32.327-13.174h163.826q19.152 0 32.326 13.174t13.174 32.326v163.826q0 19.153-13.174 32.327t-32.326 13.174q-19.153 0-32.326-13.174-13.174-13.174-13.174-32.327v-54.434Zm408.608 0v54.434q0 19.153-13.174 32.327-13.173 13.174-32.326 13.174-19.152 0-32.326-13.174t-13.174-32.327v-163.826q0-19.152 13.174-32.326t32.326-13.174H802.63q19.153 0 32.327 13.174t13.174 32.326q0 19.153-13.174 32.326-13.174 13.174-32.327 13.174h-54.434l86.674 86.674q12.913 12.913 12.913 31.826T834.87-125.37q-12.913 12.914-31.946 12.914t-31.946-12.914l-86.674-86.434Zm-472.5-472.5-86.674-86.674q-12.913-12.913-12.793-31.946.119-19.033 13.033-31.946 12.913-12.913 31.945-12.913 19.033 0 31.946 12.913l86.435 86.674v-54.434q0-19.153 13.174-32.327 13.173-13.174 32.326-13.174 19.152 0 32.326 13.174t13.174 32.327v163.826q0 19.152-13.174 32.326t-32.326 13.174H157.37q-19.153 0-32.327-13.174t-13.174-32.326q0-19.153 13.174-32.326 13.174-13.174 32.327-13.174h54.434Zm536.392 0h54.434q19.153 0 32.327 13.174 13.174 13.173 13.174 32.326 0 19.152-13.174 32.326t-32.327 13.174H638.804q-19.152 0-32.326-13.174t-13.174-32.326V-802.63q0-19.153 13.174-32.327t32.326-13.174q19.153 0 32.326 13.174 13.174 13.174 13.174 32.327v54.434l86.674-86.674q12.913-12.913 31.946-12.913t31.946 12.913q12.913 12.913 12.913 31.946t-12.913 31.946l-86.674 86.674Z"/></svg>