<svg xmlns="http://www.w3.org/2000/svg" height="24" viewBox="0 -960 960 960" width="24"><path d="M316.413-396.652h327.174v-23.913q0-44.718-45.076-72.315Q553.435-520.478 480-520.478T361.489-492.88q-45.076 27.597-45.076 72.315v23.913ZM480-560.478q33.957 0 57.935-23.859t23.978-57.815q0-33.957-23.978-57.935T480-724.065q-33.957 0-57.935 23.978t-23.978 57.935q0 33.956 23.978 57.815 23.978 23.859 57.935 23.859ZM231.869-231.869l-82.434 82.434q-21.631 21.631-49.598 9.815-27.968-11.815-27.968-42.402V-797.13q0-37.783 26.61-64.392 26.608-26.609 64.391-26.609h634.26q37.783 0 64.392 26.609 26.609 26.609 26.609 64.392v474.26q0 37.783-26.609 64.392-26.609 26.609-64.392 26.609H231.869Z"/></svg>