<svg xmlns="http://www.w3.org/2000/svg" height="24" viewBox="0 -960 960 960" width="24"><path d="M315.337-71.87q-84.555 0-144.131-59.549-59.576-59.549-59.576-144.037 0-84.674 59.549-144.131 59.55-59.456 144.038-59.456v87.174q-48.565 0-82.489 33.953-33.924 33.954-33.924 82.46 0 48.326 34.044 82.369 34.043 34.044 82.489 34.044 48.445 0 82.369-34.044 33.924-34.043 33.924-82.369h87.174q0 84.488-59.456 144.037-59.457 59.55-144.011 59.55Zm119.88-243.586q-44 0-68-37.5t-6-78.5l75.913-167.827h-90.282l-10.522 26.566Q330.848-558 316.303-550.38q-14.545 7.619-30.129 2.619-17.957-5.239-26.315-21.815-8.359-16.576-1.12-34.294l10.804-27.413q9.957-24.913 31.413-38.25 21.457-13.337 47.609-13.337H555.13q47.631 0 71.49 37.218 23.858 37.217 4.663 80.369L566.717-422.87H671.63q36.109 0 61.642 25.678 25.532 25.678 25.532 61.736v180q0 18.524-12.531 31.055-12.531 12.532-31.056 12.532-18.524 0-31.056-12.532-12.531-12.531-12.531-31.055v-160H435.217Zm206.696-385.74q-34.674 0-59.13-24.456-24.457-24.457-24.457-59.131t24.457-59.13q24.456-24.457 59.13-24.457 34.674 0 59.131 24.457 24.456 24.456 24.456 59.13 0 34.674-24.456 59.131-24.457 24.456-59.131 24.456Z"/></svg>