<svg xmlns="http://www.w3.org/2000/svg" height="24" viewBox="0 -960 960 960" width="24"><path d="M202.87-202.87v-554.26 554.26Zm0 91.001q-37.783 0-64.392-26.609-26.609-26.609-26.609-64.392v-554.26q0-37.783 26.609-64.392 26.609-26.609 64.392-26.609h554.26q37.783 0 64.392 26.609 26.609 26.609 26.609 64.392V-660H757.13v-97.13H202.87v554.26h554.26V-300h91.001v97.13q0 37.783-26.609 64.392-26.609 26.609-64.392 26.609H202.87ZM520.478-280q-33.197 0-56.837-23.38Q440-326.761 440-360v-239.522q0-33.197 23.641-56.837Q487.281-680 520.478-680h287.413q33.24 0 56.74 23.641 23.5 23.64 23.5 56.837v239.642q0 32.95-23.5 56.415Q841.131-280 807.891-280H520.478Zm287.892-80v-240H520v240h288.37ZM640-420q25 0 42.5-17.5T700-480q0-25-17.5-42.5T640-540q-25 0-42.5 17.5T580-480q0 25 17.5 42.5T640-420Z"/></svg>