<svg xmlns="http://www.w3.org/2000/svg" height="24" viewBox="0 -960 960 960" width="24"><path d="M712.391-680h15.218q14.761 0 24.413-9.652 9.652-9.652 9.652-24.413v-15.218q0-13.31-8.703-22.014Q744.267-760 730.957-760h-15.218q-14.761 0-24.413 9.652-9.652 9.652-9.652 24.413v15.218q0 13.31 8.703 22.014Q699.081-680 712.391-680ZM720-120q-83 0-141.5-58.5T520-320q0-83 58.5-141.5T720-520q83 0 141.5 58.5T920-320q0 83-58.5 141.5T720-120Zm-23.587-176.413V-220q0 9.435 7.076 16.511 7.076 7.076 16.511 7.076 9.435 0 16.511-7.076 7.076-7.076 7.076-16.511v-76.413H820q9.435 0 16.511-7.076 7.076-7.076 7.076-16.511 0-9.435-7.076-16.511-7.076-7.076-16.511-7.076h-76.413V-420q0-9.435-7.076-16.511-7.076-7.076-16.511-7.076-9.435 0-16.511 7.076-7.076 7.076-7.076 16.511v76.413H620q-9.435 0-16.511 7.076-7.076 7.076-7.076 16.511 0 9.435 7.076 16.511 7.076 7.076 16.511 7.076h76.413Zm228.848-212.609q-39.478-44.152-92.794-67.565Q779.152-600 720-600q-10.283 0-19.543.5-9.261.5-18.783 2.261v-1.522q0-20.478-8.808-38.201t-25.388-29.19L398.087-846.304q0-31.706 22.8-54.495 22.8-22.788 54.522-22.788h358.852q37.782 0 64.391 26.609 26.609 26.608 26.609 64.391v323.565Zm-891 267.109v-313.261q0-22.745 10.195-42.079 10.196-19.334 28.348-32.008l192.826-137.5q23.971-16.913 52.507-16.913 28.537 0 52.407 16.913l208.173 148.37q11.24 8.239 17.098 19.69 5.859 11.451 5.859 24.984-72.957 34.239-117.315 103.38Q440-401.196 440-320q0 31.967 7.098 63.418 7.098 31.452 21.815 60.169h-25.326q-19.152 0-32.326-13.174t-13.174-32.326v-167.609q0-14.761-9.652-24.413-9.652-9.652-24.413-9.652h-91.87q-14.761 0-24.413 9.652-9.652 9.652-9.652 24.413v167.609q0 19.152-13.174 32.326t-32.326 13.174H79.761q-19.152 0-32.326-13.174T34.26-241.913Z"/></svg>