<svg xmlns="http://www.w3.org/2000/svg" height="24" viewBox="0 -960 960 960" width="24"><path d="M71.87-282.87v-474.26q0-37.783 26.608-64.392 26.609-26.609 64.392-26.609h634.26q37.783 0 64.392 26.609 26.609 26.609 26.609 64.392v474.26q0 37.783-26.609 64.392-26.609 26.609-64.392 26.609H692.196v-91.001H797.13v-474.26H162.87v474.26h104.934v91.001H162.87q-37.783 0-64.392-26.609Q71.87-245.087 71.87-282.87Zm216.739 112.827L447.935-329.37q13.761-13.673 32.108-13.673 18.348 0 32.022 13.673l159.326 159.327q16.153 16.152 7.576 37.163-8.576 21.011-31.445 21.011H312.478q-22.869 0-31.445-21.011-8.577-21.011 7.576-37.163ZM480-474.5Z"/></svg>