<svg xmlns="http://www.w3.org/2000/svg" height="24" viewBox="0 -960 960 960" width="24"><path d="M117.37-71.87q-19.153 0-32.327-13.173Q71.87-98.217 71.87-117.37v-725.26q0-19.153 13.174-32.327t32.327-13.174q19.152 0 32.326 13.174t13.174 32.327v725.26q0 19.153-13.174 32.327T117.37-71.87ZM560-274.5q-19.152 0-32.326-13.174T514.5-320v-320q0-19.152 13.174-32.326T560-685.5h40q19.152 0 32.326 13.174T645.5-640v320q0 19.152-13.174 32.326T600-274.5h-40Zm-240 0q-19.152 0-32.326-13.174T274.5-320v-320q0-19.152 13.174-32.326T320-685.5h40q19.152 0 32.326 13.174T405.5-640v320q0 19.152-13.174 32.326T360-274.5h-40Z"/></svg>