<svg xmlns="http://www.w3.org/2000/svg" height="24" viewBox="0 -960 960 960" width="24"><path d="m848.131-317.848-311-242.522q-30.587-23.869-68.631-18.652-38.044 5.218-60.913 37.044L331.63-437.609q-11.434 15.913-30.326 18.772-18.891 2.859-34.565-9.576l-154.87-121.392v-55.217q0-28.348 24.99-40.902 24.989-12.555 47.858 4.359l93.37 70.086L422.63-773.391q22.87-31.827 61.533-37.424 38.663-5.598 69.25 19.271L682.87-688.131h74.26q37.783 0 64.392 26.609 26.609 26.609 26.609 64.392v279.282ZM111.869-151.869v-298.175l133.566 106.565q30.587 24.87 68.75 19.392 38.163-5.478 61.033-37.305l76.956-105.13q11.435-15.913 30.206-18.772 18.772-2.858 34.446 9.577l331.305 258.869v64.979H111.869Z"/></svg>