<svg xmlns="http://www.w3.org/2000/svg" height="24" viewBox="0 -960 960 960" width="24"><path d="m434.5-484.435-30.261-30.261q-12.674-12.674-31.826-12.674t-31.946 12.674q-12.793 12.674-12.793 31.707 0 19.032 12.913 31.946l107.587 107.587q13.63 13.434 31.804 13.434t31.848-13.434l107.587-107.587q12.913-12.674 12.913-31.827 0-19.152-12.793-31.826-12.794-12.674-31.946-12.674t-31.826 12.674L525.5-484.435V-602.87q0-19.152-13.174-32.326T480-648.37q-19.152 0-32.326 13.174T434.5-602.87v118.435ZM480-71.869q-84.913 0-159.345-32.118t-129.491-87.177q-55.059-55.059-87.177-129.491Q71.869-395.087 71.869-480t32.118-159.345q32.118-74.432 87.177-129.491 55.059-55.059 129.491-87.177Q395.087-888.131 480-888.131t159.345 32.118q74.432 32.118 129.491 87.177 55.059 55.059 87.177 129.491Q888.131-564.913 888.131-480t-32.118 159.345q-32.118 74.432-87.177 129.491-55.059 55.059-129.491 87.177Q564.913-71.869 480-71.869Z"/></svg>