<svg xmlns="http://www.w3.org/2000/svg" height="24" viewBox="0 -960 960 960" width="24"><path d="M479.983-275.696q18.213 0 30.55-12.32t12.337-30.532q0-18.213-12.321-30.55-12.32-12.337-30.532-12.337-18.213 0-30.55 12.32-12.337 12.321-12.337 30.533 0 18.212 12.321 30.549 12.32 12.337 30.532 12.337ZM480-434.5q17.813 0 29.863-12.05t12.05-29.863v-167.134q0-17.757-12.05-29.855Q497.813-685.5 480-685.5t-29.863 12.05q-12.05 12.05-12.05 29.863v167.134q0 17.757 12.05 29.855Q462.187-434.5 480-434.5ZM202.87-111.869q-37.538 0-64.269-26.732-26.732-26.731-26.732-64.269v-554.26q0-37.538 26.732-64.269 26.731-26.732 64.269-26.732h160.108q14.674-36.478 46.37-58.239 31.695-21.761 70.652-21.761t70.652 21.761q31.696 21.761 46.37 58.239H757.13q37.538 0 64.269 26.732 26.732 26.731 26.732 64.269v554.26q0 37.538-26.732 64.269-26.731 26.732-64.269 26.732H202.87ZM480-788.087q13.829 0 22.871-9.042 9.042-9.042 9.042-22.871 0-13.829-9.042-22.871-9.042-9.042-22.871-9.042-13.829 0-22.871 9.042-9.042 9.042-9.042 22.871 0 13.829 9.042 22.871 9.042 9.042 22.871 9.042Z"/></svg>