<svg xmlns="http://www.w3.org/2000/svg" height="24" viewBox="0 -960 960 960" width="24"><path d="M460-70.913q-95.8 0-162.444-66.643Q230.913-204.2 230.913-300v-423.587q0-69.058 49.032-118.236Q328.978-891 398.051-891t118.261 49.177Q565.5-792.645 565.5-723.587v321.674h-67.413v-321.674q0-42-29-71t-71-29q-42 0-71 29t-29 71V-300q0 66.957 47.478 114.435Q393.043-138.087 460-138.087q27.087 0 51.152-8.304 24.065-8.305 43.348-23.391v77.739q-21.804 9.804-45.489 15.467T460-70.913ZM634.5-234.5H560q-19.152 0-32.326-13.174T514.5-280q0-19.152 13.174-32.326T560-325.5h74.5V-400q0-19.152 13.174-32.326T680-445.5q19.152 0 32.326 13.174T725.5-400v74.5H800q19.152 0 32.326 13.174T845.5-280q0 19.152-13.174 32.326T800-234.5h-74.5v74.5q0 19.152-13.174 32.326T680-114.5q-19.152 0-32.326-13.174T634.5-160v-74.5ZM460-303.587v67.174q-44.152 0-74.826-30.674-30.674-30.674-30.674-74.826V-690q0-14.554 9.696-24.071 9.695-9.516 24.13-9.516 14.435 0 24.011 9.516 9.576 9.517 9.576 24.071v348.087q0 16.288 10.95 27.307 10.95 11.019 27.137 11.019ZM621.913-520v-170q0-14.435 9.516-24.011 9.517-9.576 24.071-9.576 14.555 0 24.071 9.516 9.516 9.517 9.516 24.071v170h-67.174Z"/></svg>