<svg xmlns="http://www.w3.org/2000/svg" height="24" viewBox="0 -960 960 960" width="24"><path d="m703.609-703.37-69.044-31.521q-6.717-3.479-9.815-9.076-3.098-5.598-3.098-11.555 0-5.956 3.098-11.435 3.098-5.478 9.815-8.956l69.044-31.761 31.761-69.283q3.478-6.717 9.076-10.076 5.597-3.358 11.554-3.358t11.435 3.358q5.478 3.359 8.956 10.076l31.761 69.283 69.044 31.761q6.717 3.478 10.076 8.956 3.358 5.479 3.358 11.435 0 5.957-3.358 11.555-3.359 5.597-10.076 9.076l-69.044 31.521-31.761 69.283q-3.478 6.717-8.956 9.815T756-621.174q-5.957 0-11.554-3.098-5.598-3.098-9.076-9.815l-31.761-69.283ZM257.848-377.13 100-449.174q-10.196-4.478-14.913-13.054-4.718-8.576-4.718-17.772 0-9.196 4.718-17.772 4.717-8.576 14.913-13.054l157.848-72.044 72.043-157.847q4.479-10.196 13.055-14.913 8.576-4.718 17.771-4.718 9.196 0 17.772 4.718 8.576 4.717 13.055 14.913l72.043 157.847 157.848 72.044q10.195 4.478 14.913 13.054 4.717 8.576 4.717 17.772 0 9.196-4.717 17.772-4.718 8.576-14.913 13.054L463.587-377.13l-72.043 157.847q-4.479 10.196-13.055 14.913-8.576 4.718-17.772 4.718-9.195 0-17.771-4.718-8.576-4.717-13.055-14.913L257.848-377.13Zm450.239 229.282-69.044-31.522q-6.717-3.478-10.195-9.076-3.478-5.597-3.478-11.554t3.478-11.554q3.478-5.598 10.195-9.076l69.044-31.522 31.761-69.283q3.478-6.717 9.076-10.195 5.598-3.479 11.554-3.479 5.957 0 11.555 3.479 5.597 3.478 9.076 10.195l31.521 69.283 69.044 31.522q6.717 3.478 10.196 9.076 3.478 5.597 3.478 11.554t-3.478 11.554q-3.479 5.598-10.196 9.076l-69.044 31.522-31.521 69.283q-3.479 6.717-9.076 10.195-5.598 3.479-11.555 3.479-5.956 0-11.554-3.478-5.598-3.479-9.076-10.196l-31.761-69.283Z"/></svg>