<svg xmlns="http://www.w3.org/2000/svg" height="24" viewBox="0 -960 960 960" width="24"><path d="M396.174-840q-18.435 0-31.011-12.696-12.576-12.695-12.576-31.13t12.695-31.011q12.696-12.576 31.131-12.576h167.413q18.435 0 31.011 12.576t12.576 31.011q0 18.435-12.576 31.13Q582.261-840 563.826-840H396.174ZM400-375.022l-38.978-77.717q-5.478-11.717-16.076-17.696-10.598-5.978-22.555-5.978H114.348q16.195-137.63 119.989-231.326Q338.13-801.435 480-801.435q62.478 0 120.435 20 57.956 20 108.195 58.239l28.24-28.239q12.434-12.435 30.75-12.815 18.315-.38 30.75 12.815 12.435 12.435 12.435 30.75 0 18.315-12.435 30.75l-28.239 28.239q31.76 41.761 50.641 88.142 18.88 46.38 25.119 97.141H664.522l-68.044-136.326q-11.717-24.435-38.63-24.435-26.913 0-38.87 24.435L400-375.022Zm80 309.61q-141.87 0-245.663-93.577-103.794-93.576-119.989-231.206h181.13l68.044 136.326q11.956 24.674 38.75 24.434 26.793-.239 38.75-24.674L560-491.587l38.978 77.718q5.478 11.478 16.076 17.576 10.598 6.098 22.555 6.098h208.282q-16.195 137.63-119.728 231.206Q622.63-65.413 480-65.413Z"/></svg>