<svg xmlns="http://www.w3.org/2000/svg" height="24" viewBox="0 -960 960 960" width="24"><path d="M635.696-193.304h-75.935q-19.152 0-32.326-13.174t-13.174-32.326q0-19.153 13.174-32.326 13.174-13.174 32.326-13.174h75.935v-75.935q0-19.152 13.174-32.326 13.173-13.174 32.326-13.174 19.152 0 32.326 13.174t13.174 32.326v75.935h75.934q19.153 0 32.327 13.174 13.174 13.173 13.174 32.326 0 19.152-13.174 32.326t-32.327 13.174h-75.934v75.934q0 19.153-13.174 32.327T681.196-71.87q-19.153 0-32.326-13.174-13.174-13.174-13.174-32.327v-75.934Zm-274.5 30.434Zm-45.5 91q-19.153 0-32.327-13.173-13.174-13.174-13.174-32.327v-645.26q0-19.153 13.174-32.327t32.327-13.174H394.5v-34.499q0-19.153 13.174-32.327T440-888.131h80q19.152 0 32.326 13.174T565.5-842.63v34.499h78.804q19.153 0 32.327 13.174t13.174 32.327v275.217q-23.631-1.196-46.501 2.065-22.869 3.261-44.5 10.978v-242.76H361.196v554.26h83.478q8.478 26.348 21.532 49.098 13.055 22.75 31.446 41.903H315.696Z"/></svg>