<svg xmlns="http://www.w3.org/2000/svg" height="24" viewBox="0 -960 960 960" width="24"><path d="M524-35.217q-84.957 0-159.294-32.359-74.336-32.359-129.554-87.576-55.217-55.218-87.576-129.554Q115.217-359.043 115.217-444q0-126.804 70.446-230.565t189.054-148.87q26.065-10.869 49.489 4.544 23.424 15.413 23.62 43.435-.608 82.608 28.794 157.695 29.402 75.087 87.728 133.413 58.326 58.326 133.293 87.609 74.968 29.282 157.337 28.913 30.065.435 45.316 22.402 15.25 21.968 5.336 47.837-45.913 119.044-149.771 190.707Q652-35.217 524-35.217Z"/></svg>