<svg xmlns="http://www.w3.org/2000/svg" height="24" viewBox="0 -960 960 960" width="24"><path d="M155.696-104.695q-52.79 0-89.743-36.884Q29-178.462 29-231.152v-497.696q0-52.69 36.953-89.574 36.953-36.883 89.743-36.883H480q52.79 0 89.743 36.883 36.953 36.884 36.953 89.574v258.935h39.282q35.072 0 60.047 25.045Q731-419.822 731-384.652v132.783q0 7.426 5.57 12.995 5.569 5.57 12.995 5.57 7.427 0 12.996-5.57 5.57-5.569 5.57-12.995v-271.24q-34.435-.956-58.772-25.772-24.337-24.815-24.337-59.25V-731h40v-82.87h66.696V-731h40v-82.87h66.695V-731h40v122.869q0 34.435-24.337 59.25-24.336 24.816-58.771 25.772v267q0 44.153-30.794 74.946-30.793 30.794-75.065 30.794t-75.065-30.665q-30.794-30.664-30.794-75.075V-386.5h-36.891v113.913q0 69.587-49.272 118.739-49.272 49.153-118.859 49.153H155.696Zm0-87.174h282.869q33.478 0 57.098-23.62 23.62-23.62 23.62-57.098 0-33.478-23.62-57.098-23.62-23.619-57.098-23.619H259.283q-7.426 0-12.996 5.498-5.57 5.497-5.57 12.828 0 7.426 5.57 12.995 5.57 5.57 12.996 5.57h179.282q18.525 0 31.056 12.696 12.531 12.695 12.531 31.13t-12.531 31.011Q457.09-229 438.565-229H259.283q-44.511 0-75.245-30.733-30.734-30.734-30.734-75.245 0-44.411 30.734-75.075t75.245-30.664h179.282q21.239 0 41.739 5.76 20.5 5.761 38.979 17.522v-311.413q0-16.522-11.381-27.902-11.38-11.381-27.902-11.381H155.696q-16.522 0-27.903 11.381-11.38 11.38-11.38 27.902v497.696q0 16.522 11.38 27.902 11.381 11.381 27.903 11.381Zm0 0h282.869H116.413h39.283Z"/></svg>