<svg xmlns="http://www.w3.org/2000/svg" height="24" viewBox="0 -960 960 960" width="24"><path d="M262.391-321.435q25 0 42.5-17.5t17.5-42.5q0-25-17.5-42.5t-42.5-17.5q-25 0-42.5 17.5t-17.5 42.5q0 25 17.5 42.5t42.5 17.5Zm357.131 0q25 0 42.5-17.5t17.5-42.5q0-25-17.5-42.5t-42.5-17.5q-25 0-42.5 17.5t-17.5 42.5q0 25 17.5 42.5t42.5 17.5ZM201.674-191.869v15.695q0 26.794-18.756 45.549-18.755 18.756-45.548 18.756-26.674 0-45.61-18.935-18.934-18.935-18.934-45.609v-289.348q0-7.956 1.12-15.674 1.12-7.717 3.597-14.674l74.283-210.848q9.435-27.347 32.946-44.261 23.511-16.913 53.098-16.913h363.087v91.001H237.109L196.304-560h404.653q0 33 23.5 56.5t56.5 23.5h128.13v303.826q0 26.794-18.755 45.549-18.756 18.756-45.549 18.756-26.674 0-45.609-18.935-18.935-18.935-18.935-45.609v-15.456H201.674Zm540.63-532.914-97.282-97.282q-6.239-6.326-6.239-14.761 0-8.435 6.239-14.674 6.239-6.239 14.674-6.239 8.435 0 14.761 6.239l76.087 76.087v-116.304q0-15.674 13.793-21.511 13.794-5.837 24.989 5.358l81.935 82.935q6.717 6.717 6.598 16.033-.12 9.315-6.837 16.032l-69.848 68.087 70.087 70.087q6.717 6.718 6.717 15.913 0 9.196-6.717 15.913l-81.935 81.935q-11.195 11.196-24.989 5.478-13.793-5.717-13.793-21.391v-117.304l-76.087 76.087q-6.326 6.239-14.761 6.239-8.435 0-14.674-6.239-6.239-6.239-6.239-14.674 0-8.435 6.239-14.761l97.282-97.283Zm50.392-50.63 35.608-33.37-35.608-35.369v68.739Zm0 172 35.608-35.37-35.608-35.369v70.739Z"/></svg>