<svg xmlns="http://www.w3.org/2000/svg" height="24" viewBox="0 -960 960 960" width="24"><path d="M558.565-117.37v-65.043q0-9.196 3.478-17.533 3.479-8.337 10.196-15.054L781-423q9.717-9.717 21.554-14.076 11.837-4.359 23.794-4.359 12.956 0 24.793 4.859T872.696-422l37 37q8.717 9.717 13.576 21.554 4.859 11.837 4.859 23.794 0 12.196-4.359 24.413t-14.076 21.935l-208 208q-6.718 6.717-15.055 10.076-8.337 3.359-17.532 3.359h-65.044q-19.152 0-32.326-13.174t-13.174-32.327Zm270.174-185.673 34.609-36.609-37-37-35.609 35.609 38 38ZM162.87-151.869q-37.783 0-64.392-26.609Q71.87-205.087 71.87-242.87v-474.26q0-37.783 26.61-64.392 26.608-26.609 64.391-26.609h195.999q18.153 0 34.685 6.837 16.533 6.837 29.207 19.511L480-724.544h317.13q37.783 0 64.392 26.609 26.609 26.609 26.609 64.392v126.021q-17.587-8.391-36.892-11.511-19.304-3.119-38.13-.728-25.37 1.196-47.957 11.196T724-480L504.913-260.913q-12.674 12.674-19.511 29.087t-6.837 34.804v45.153H162.87Z"/></svg>