<svg xmlns="http://www.w3.org/2000/svg" height="24" viewBox="0 -960 960 960" width="24"><path d="M344.804-151.869H242.87q-37.783 0-64.392-26.609-26.609-26.609-26.609-64.392v-101.934l-70.543-71.544q-12.674-13.434-19.391-29.991-6.718-16.557-6.718-33.685 0-17.128 6.718-33.661 6.717-16.533 19.391-29.967l70.543-71.544V-717.13q0-37.783 26.609-64.392 26.609-26.609 64.392-26.609h101.934l71.544-70.543q13.674-12.674 30.144-19.391 16.47-6.718 33.508-6.718 17.038 0 33.508 6.718 16.47 6.717 30.144 19.391l71.544 70.543H717.13q37.783 0 64.392 26.609 26.609 26.609 26.609 64.392v101.934l70.543 71.544q12.674 13.674 19.391 30.144 6.718 16.47 6.718 33.508 0 17.038-6.718 33.508-6.717 16.47-19.391 30.144l-70.543 71.544v101.934q0 37.783-26.609 64.392-26.609 26.609-64.392 26.609H615.196l-71.544 70.543q-13.434 12.674-29.991 19.391-16.557 6.718-33.685 6.718-17.128 0-33.661-6.718-16.533-6.717-29.967-19.391l-71.544-70.543ZM479.997-282.87q81.807 0 139.47-57.659 57.663-57.66 57.663-139.468 0-81.807-57.659-139.47-57.66-57.663-139.468-57.663-81.807 0-139.47 57.659-57.663 57.66-57.663 139.468 0 81.807 57.659 139.47 57.66 57.663 139.468 57.663Zm-96.649 40L480-146.218l96.652-96.652H717.13v-140.478L813.782-480l-96.652-96.652V-717.13H576.652L480-813.782l-96.652 96.652H242.87v140.478L146.218-480l96.652 96.652v140.478h140.478Z"/></svg>