<svg xmlns="http://www.w3.org/2000/svg" height="24" viewBox="0 -960 960 960" width="24"><path d="M360-320h240q17 0 28.5-11.5T640-360v-160q0-17-11.5-28.5T600-560h-40v-37.609q0-18.016-12.188-30.203Q535.625-640 517.609-640h-75.218q-18.016 0-30.203 12.188Q400-615.625 400-597.609V-560h-40q-17 0-28.5 11.5T320-520v160q0 17 11.5 28.5T360-320Zm82.391-240v-37.609h75.218V-560h-75.218ZM320-192.109q-120.298 0-204.094-83.807-83.798-83.807-83.798-204.12 0-120.312 83.798-204.084Q199.702-767.891 320-767.891h320q120.297 0 204.094 83.807t83.797 204.12q0 120.312-83.797 204.084Q760.297-192.109 640-192.109H320Z"/></svg>