<svg xmlns="http://www.w3.org/2000/svg" height="24" viewBox="0 -960 960 960" width="24"><path d="M117.37-542.023V-722.52q0-17.047 11.5-28.579 11.5-11.531 28.445-11.531h132.576q17 0 28.5 11.531 11.5 11.532 11.5 28.579v180.497q0 17.046-11.5 28.578t-28.5 11.532H157.315q-16.945 0-28.445-11.532t-11.5-28.578Zm296.108 40.11q-17 0-28.5-11.532t-11.5-28.578V-722.52q0-17.047 11.5-28.579 11.5-11.531 28.5-11.531h133.151q16.893 0 28.393 11.531 11.5 11.532 11.5 28.579v180.497q0 17.046-11.5 28.578t-28.393 11.532H413.478Zm256.631 0q-17 0-28.5-11.532t-11.5-28.578V-722.52q0-17.047 11.5-28.579 11.5-11.531 28.5-11.531h132.576q16.945 0 28.445 11.531 11.5 11.532 11.5 28.579v180.497q0 17.046-11.5 28.578t-28.445 11.532H670.109ZM289.891-197.37H157.315q-16.945 0-28.445-11.531-11.5-11.532-11.5-28.579v-180.497q0-17.046 11.5-28.578t28.445-11.532h132.576q17 0 28.5 11.532t11.5 28.578v180.497q0 17.047-11.5 28.579-11.5 11.531-28.5 11.531Zm123.587 0q-17 0-28.5-11.531-11.5-11.532-11.5-28.579v-180.497q0-17.046 11.5-28.578t28.5-11.532h133.151q16.893 0 28.393 11.532t11.5 28.578v180.497q0 17.047-11.5 28.579-11.5 11.531-28.393 11.531H413.478Zm256.631 0q-17 0-28.5-11.531-11.5-11.532-11.5-28.579v-180.497q0-17.046 11.5-28.578t28.5-11.532h132.576q16.945 0 28.445 11.532t11.5 28.578v180.497q0 17.047-11.5 28.579-11.5 11.531-28.445 11.531H670.109Z"/></svg>