<svg xmlns="http://www.w3.org/2000/svg" height="24" viewBox="0 -960 960 960" width="24"><path d="M276.413-728.131v-76.173q0-37.544 26.728-64.272 26.729-26.729 64.272-26.729h225.174q37.543 0 64.272 26.729 26.728 26.728 26.728 64.272v76.173H797.13q37.544 0 64.272 26.729 26.729 26.728 26.729 64.272v434.26q0 37.544-26.729 64.272-26.728 26.729-64.272 26.729H162.87q-37.544 0-64.272-26.729-26.729-26.728-26.729-64.272v-434.26q0-37.544 26.729-64.272 26.728-26.729 64.272-26.729h113.543Zm91 0h225.174v-76.173H367.413v76.173ZM162.87-279.283h634.26v-127.413H162.87v127.413Z"/></svg>