<svg xmlns="http://www.w3.org/2000/svg" height="24" viewBox="0 -960 960 960" width="24"><path d="M532.848-75.522 276.891-148v-378.457h67.348q8.196 0 16.033 1.62 7.837 1.619 15.793 4.098l268.391 99.652q18.305 6.674 30.751 23.859 12.445 17.185 12.445 35.25 0 19.087-13.065 31.011t-30.63 11.924H536.565q-8.108 0-14.554-1.218-6.446-1.217-13.555-3.935L465.37-340q-9.435-3.478-18.631.761t-11.674 12.913q-2.239 8.956 1.478 16.913 3.718 7.957 12.674 11.196l54.696 19.326q5.826 2.195 14.609 3.413 8.782 1.217 15.609 1.217h268.26q37.74 0 61.74 24.555 24 24.554 24 63.337L588.348-77.282q-11.674 4.239-27.131 4.739-15.456.5-28.369-2.978ZM33.304-153.543v-291.001q0-33.717 24.098-57.815t57.815-24.098q33.718 0 57.696 24.098 23.978 24.098 23.978 57.815v291.001q0 33.717-23.978 57.695-23.978 23.979-57.696 23.979-33.717 0-57.815-23.979-24.098-23.978-24.098-57.695Zm573.153-345.479-214.479-81.717q-7.956-2.718-16.032-4.218t-17.033-1.5H203.782q15.327-54.348 55.424-94.217 40.098-39.87 96.25-52.305v-75.152h-15.217q-18.913 0-31.848-13.054-12.935-13.054-12.935-32.446 0-19.152 13.174-32.326t32.327-13.174h180q27.913 0 67.043 12.294 39.131 12.293 60.326 33.489 5.957 5.956 9.816 14.293Q662-830.718 662-821.522q0 19.152-13.174 32.707-13.174 13.554-32.326 13.554-8.956 0-16.913-3.978-7.957-3.979-15.674-9.457-13.956-9.956-30.315-14.695-16.359-4.74-32.641-4.74h-74.5v75.152q69.717 15.435 114.858 71.131 45.142 55.696 45.142 129.174v33.652Zm158.804-60.261q-34.196 0-58.533-24.337-24.337-24.337-24.337-58.532 0-22.196 14.957-53.609 14.956-31.413 52.674-89.13 2-2.24 15.239-8.24 2.522 0 15.478 8.24 36.718 56.239 52.055 88.271 15.337 32.033 15.337 54.468 0 34.195-24.337 58.532-24.337 24.337-58.533 24.337Z"/></svg>