<svg xmlns="http://www.w3.org/2000/svg" height="24" viewBox="0 -960 960 960" width="24"><path d="M242.87-71.87q-37.783 0-64.392-26.608-26.609-26.609-26.609-64.392v-634.26q0-37.783 26.609-64.392 26.609-26.609 64.392-26.609h519.76q19.153 0 32.327 13.174t13.174 32.327q0 19.152-13.174 32.326T762.63-797.13h-33.543v71.63q0 19.337-13.081 32.419Q702.925-680 683.587-680H367.413q-19.337 0-32.419-13.081-13.081-13.082-13.081-32.419v-71.63H242.87v634.26h157.217q-35.848-26.76-57.011-66.945Q321.913-270 321.913-320v-109q0-37.782 26.609-64.391Q375.131-520 412.913-520h225.174q37.783 0 64.391 26.609 26.609 26.609 26.609 64.391v109q0 50-21.163 90.185t-57.011 66.945H762.63q19.153 0 32.327 13.174t13.174 32.326q0 19.153-13.174 32.327T762.63-71.87H242.87ZM525.5-200q50 0 85-35t35-85v-116.413h-240V-320q0 50 35 85t85 35Zm0-360q17 0 28.5-11.5t11.5-28.5q0-17-11.5-28.5T525.5-640q-17 0-28.5 11.5T485.5-600q0 17 11.5 28.5t28.5 11.5Zm0 123.587Z"/></svg>