<svg xmlns="http://www.w3.org/2000/svg" height="24" viewBox="0 -960 960 960" width="24"><path d="M792.87-52.935 54-790.804Q41.522-803.283 41.641-820.5q.12-17.217 12.598-29.696 12.478-12.478 29.576-12.478t29.576 12.478l738.87 738.631q12.478 12.478 12.359 29.315-.12 16.837-12.598 29.315-12.478 12.479-29.576 12.479T792.87-52.935ZM440-198.087q-66.717 0-114.315-47.598T278.087-360q0-66.957 47.598-114.435Q373.283-521.913 440-521.913h1.674l84.065 83.826H440q-32.043 0-55.065 22.902T361.913-360q0 32.043 23.022 55.065T440-281.913h241.913l147.739 147.739q-15.434 9.913-32.967 15.75T760-112.587q-42.587 0-75.141-24.413-32.555-24.413-45.033-61.087H440Zm441.131-3.391L721.478-361.131q9-2.76 18.381-4.521 9.38-1.761 20.141-1.761 53.109 0 90.261 37.152 37.152 37.152 37.152 90.261 0 10.761-1.761 20.141-1.761 9.381-4.521 18.381ZM614.218-468.391l-61.153-61.153q20.37-9.239 32.696-27.923 12.326-18.685 12.326-42.533 0-32.283-22.902-55.185T520-678.087H404.522l-83.587-83.826H520q66.957 0 114.435 47.478Q681.913-666.957 681.913-600q0 40.804-18.685 75.087-18.684 34.283-49.01 56.522ZM200-592.587q-53.109 0-90.261-37.152Q72.587-666.891 72.587-720q0-34.391 17.076-63.185 17.076-28.793 44.989-45.75l174.283 174.044q-16.717 27.435-45.272 44.869-28.554 17.435-63.663 17.435Z"/></svg>