<svg xmlns="http://www.w3.org/2000/svg" height="24" viewBox="0 -960 960 960" width="24"><path d="M480-71.87q-84.913 0-159.345-32.117-74.432-32.118-129.491-87.177-55.059-55.059-87.177-129.491Q71.869-395.087 71.869-480t32.118-159.345q32.118-74.432 87.177-129.491 55.059-55.059 129.491-87.177Q395.087-888.131 480-888.131t159.345 32.118q74.432 32.118 129.491 87.177 55.059 55.059 87.177 129.491Q888.131-564.913 888.131-480t-32.118 159.345q-32.118 74.432-87.177 129.491-55.059 55.059-129.491 87.177Q564.913-71.869 480-71.869ZM440-280h80q34.48 0 59.033-24.554 24.554-24.553 24.554-59.033v-232.826q0-34.48-24.554-59.033Q554.48-680 520-680h-80q-34.48 0-59.033 24.554-24.554 24.553-24.554 59.033v232.826q0 34.48 24.554 59.033Q405.52-280 440-280Zm0-316.413h80v232.826h-80v-232.826Z"/></svg>