<svg xmlns="http://www.w3.org/2000/svg" height="24" viewBox="0 -960 960 960" width="24"><path d="M480-71.87q-72.826 0-139.794-24.912-66.967-24.914-123.358-70.022-16.153-12.435-17.392-32.685-1.239-20.25 12.674-34.163 13.674-13.674 32.446-13.674t33.967 12.913q8.718 7.478 18.435 13.956 9.718 6.479 19.435 12.196v-109.348H242.63q-37.543 0-64.152-26.608-26.609-26.609-26.609-64.153v-232.347q0-68.87 49.392-118.142Q250.652-808.131 320-808.131h120.717q19.153 0 32.327 13.174t13.174 32.327v152.347H717.37q37.543 0 64.152 26.609t26.609 64.152v111.152q0 37.544-26.609 64.153-26.609 26.608-64.152 26.608h-73.783v109.348q10.478-6.478 20.196-12.957 9.717-6.478 19.195-13.956 14.435-12.913 33.587-12.152 19.153.761 32.066 13.674 13.913 13.913 12.674 33.402-1.239 19.489-16.631 31.924-56.391 45.87-124.119 71.163Q552.826-71.869 480-71.869Zm0-91q18.087 0 36.293-2.021 18.207-2.022 36.294-6.305v-146.413H407.413v146.413q18.087 4.283 36.294 6.305 18.206 2.021 36.293 2.021Z"/></svg>