<svg xmlns="http://www.w3.org/2000/svg" height="24" viewBox="0 -960 960 960" width="24"><path d="M518.087-421.913V-460H420q-17.813 0-29.863-12.05t-12.05-29.863V-560q0-17.813 12.05-29.863T420-601.913h130q13.829 0 22.871 9.042 9.042 9.042 9.042 22.871 0 13.829-9.042 22.871-9.042 9.042-22.871 9.042H441.913V-500H540q17.813 0 29.863 12.05t12.05 29.863V-400q0 17.813-12.05 29.863T540-358.087H410q-13.829 0-22.871-9.042-9.042-9.042-9.042-22.871 0-13.829 9.042-22.871 9.042-9.042 22.871-9.042h108.087Zm260 0V-460H680q-17.813 0-29.863-12.05t-12.05-29.863V-560q0-17.813 12.05-29.863T680-601.913h130q13.829 0 22.871 9.042 9.042 9.042 9.042 22.871 0 13.829-9.042 22.871-9.042 9.042-22.871 9.042H701.913V-500H800q17.813 0 29.863 12.05t12.05 29.863V-400q0 17.813-12.05 29.863T800-358.087H670q-13.829 0-22.871-9.042-9.042-9.042-9.042-22.871 0-13.829 9.042-22.871 9.042-9.042 22.871-9.042h108.087Zm-618.326 63.826q-17.712 0-29.693-12.05-11.981-12.05-11.981-29.863v-160q0-17.813 11.981-29.863t29.693-12.05h120q17.813 0 29.863 12.05T321.674-560v22.826q0 13.044-9.551 22.022-9.55 8.978-22.284 8.978-13.796 0-22.774-9.042-8.978-9.042-8.978-22.871h-76.413v116.174h76.413q0-12.717 8.984-22.196 8.984-9.478 22.724-9.478 12.683 0 22.281 9.502 9.598 9.502 9.598 22.172V-400q0 17.813-12.05 29.863t-29.863 12.05h-120Z"/></svg>