<svg xmlns="http://www.w3.org/2000/svg" height="24" viewBox="0 -960 960 960" width="24"><path d="M486-315.913q33.478 0 55.783-15.022 22.304-15.022 22.304-47.065 0-28.043-23.663-45.565t-83.554-39.087q-62.109-21.957-90.446-51.674-28.337-29.717-28.337-77.674 0-41 27.902-74.859 27.902-33.858 78.098-44.576v-11.652q0-14.956 10.978-25.935Q466.043-760 481-760q14.957 0 25.935 10.978 10.978 10.979 10.978 25.935v11.652q29 2.478 53.381 19.859 24.38 17.38 39.38 42.859 7.239 11.717.88 24.934-6.358 13.218-21.076 18.696-13.478 5.239-27.076.881-13.598-4.359-22.315-15.598-10.239-11.761-25.12-19.022-14.88-7.261-35.402-7.261-32.848 0-50.75 14.163t-17.902 38.728q0 25.283 22.522 40.283t82.282 35q72.718 26 96.957 61.598 24.239 35.598 24.239 78.315 0 29.717-10 52.076t-26.619 37.978q-16.62 15.62-38.62 25-22 9.381-46.761 14.381v11.652q0 14.956-10.978 25.935Q493.957-200 479-200q-14.957 0-25.935-10.978-10.978-10.979-10.978-25.935v-13.652q-37.044-8-64.402-30-27.359-22-43.598-56.718-6.478-14.717.619-28.434 7.098-13.718 21.816-19.196 13.478-5.239 27.076.5t20.837 18.456q13.761 25.522 34.782 37.783 21.022 12.261 46.783 12.261Zm-6.239 283.326q-112 0-206-50.043-94-50.044-154.957-133.848v60.304q0 18.435-12.576 31.011t-31.01 12.576q-18.436 0-31.012-12.576T31.63-156.174v-161.913q0-19.152 13.174-32.326t32.326-13.174h161.913q18.435 0 31.011 12.576T282.63-320q0 18.435-12.576 31.011t-31.011 12.576H183.63q48 70.565 125.783 113.489Q387.196-120 479.761-120q139.087 0 240.706-91.967 101.62-91.968 117.055-228.25 2.239-17.196 15.435-27.533 13.195-10.337 30.63-10.337 18.196 0 31.272 11.098 13.076 11.098 11.076 27.293-7.717 86.196-45.794 160.294-38.076 74.098-98.152 128.957-60.076 54.858-137.413 86.358-77.337 31.5-164.815 31.5ZM480-840q-139.087 0-240.706 91.967-101.62 91.968-117.055 228.25-2.239 17.196-15.435 27.533-13.195 10.337-30.63 10.337-18.435 0-31.272-11.576t-10.837-28.25q7.718-85.239 45.554-158.979 37.837-73.739 97.674-128.597 59.837-54.859 137.294-86.479Q392.043-927.413 480-927.413q112 0 206.239 50.282 94.239 50.283 154.718 133.609v-60.304q0-18.435 12.695-31.011 12.696-12.576 31.131-12.576 18.435 0 31.011 12.576t12.576 31.011v161.913q0 19.152-13.174 32.326t-32.326 13.174H720.957q-18.435 0-31.011-12.576T677.37-640q0-18.435 12.576-31.011t31.011-12.576h55.413q-48.718-71.283-126.979-113.848T480-840Z"/></svg>