<svg xmlns="http://www.w3.org/2000/svg" height="24" viewBox="0 -960 960 960" width="24"><path d="M395.696-235.456H162.87q-37.783 0-64.392-26.609-26.609-26.609-26.609-64.392V-757.13q0-37.783 26.61-64.392 26.608-26.609 64.391-26.609h634.26q37.783 0 64.392 26.609 26.609 26.609 26.609 64.392v430.673q0 37.783-26.609 64.392-26.609 26.609-64.392 26.609H564.304l73.522 73.521q2 2 6.478 15.196v12.957q0 8.717-6.478 15.315-6.478 6.598-15.196 6.598H330.891q-6.478 0-10.837-4.359-4.358-4.359-4.358-10.837v-21.913q0-2 4.478-10.957l75.522-75.521Z"/></svg>