<svg xmlns="http://www.w3.org/2000/svg" height="24" viewBox="0 -960 960 960" width="24"><path d="M137.37-151.869q-27.392 0-46.446-19.413-19.055-19.414-19.055-46.805 0-26.913 18.935-45.848t45.848-18.935h15.217v-434.26q0-37.783 26.609-64.392 26.609-26.609 64.392-26.609h559.76q19.153 0 32.327 13.174t13.174 32.327q0 19.152-13.174 32.326T802.63-717.13H242.87v434.26h168.76q27.392 0 46.446 19.055 19.054 19.054 19.054 46.445 0 27.392-19.054 46.446-19.054 19.055-46.446 19.055H137.37Zm465.26 0q-19.152 0-32.326-13.174T557.13-197.37v-394.26q0-19.152 13.174-32.326t32.326-13.174h240q19.153 0 32.327 13.174t13.174 32.326v394.26q0 19.153-13.174 32.327t-32.327 13.174h-240Z"/></svg>