<svg xmlns="http://www.w3.org/2000/svg" height="24" viewBox="0 -960 960 960" width="24"><path d="M320.717-186.848v15.696q0 26.794-18.755 45.549-18.756 18.755-45.549 18.755-26.674 0-45.609-18.934-18.935-18.935-18.935-45.609v-62.478q-18-20.763-29-46.197t-11-54.912v-382.87q0-87.065 79.033-127.598 79.033-40.532 249.198-40.532 176.317 0 252.174 38.88t75.857 129.25v382.87q0 29.478-11 54.912-11 25.434-29 46.197v62.717q0 26.794-18.756 45.549-18.755 18.755-45.549 18.755-26.674 0-45.609-18.934-18.934-18.935-18.934-45.609v-15.457H320.717ZM482-754.978h224-448 224Zm155.13 280H242.87h474.26-80Zm-394.26-80h474.26v-120H242.87v120Zm98.565 238.565q25 0 42.5-17.5t17.5-42.5q0-25-17.5-42.5t-42.5-17.5q-25 0-42.5 17.5t-17.5 42.5q0 25 17.5 42.5t42.5 17.5Zm277.13 0q25 0 42.5-17.5t17.5-42.5q0-25-17.5-42.5t-42.5-17.5q-25 0-42.5 17.5t-17.5 42.5q0 25 17.5 42.5t42.5 17.5ZM258-754.978h448q-15-17-64.5-28.5t-159.5-11.5q-107 0-156.5 12.5t-67.5 27.5Zm64.87 477.13h314.26q33 0 56.5-23.5t23.5-56.5v-117.13H242.87v117.13q0 33 23.5 56.5t56.5 23.5Z"/></svg>