<svg xmlns="http://www.w3.org/2000/svg" height="24" viewBox="0 -960 960 960" width="24"><path d="M793.63-52.935 645.022-201.304l-101.37 101.37q-13.674 13.673-30.113 20.39-16.439 6.718-33.446 6.718-17.006 0-33.539-6.717-16.532-6.718-30.206-20.392L99.935-416.348Q86.26-430.022 79.543-446.52q-6.717-16.498-6.717-33.565 0-17.067 6.717-33.48 6.718-16.413 20.392-30.087l101.369-101.37L55-790.804Q42.522-803.283 42.902-820.5q.38-17.217 12.884-29.696 12.504-12.478 29.696-12.478t29.67 12.478l737.87 738.631Q865.5-98.978 865.5-82.195q0 16.782-12.503 29.26-12.504 12.479-29.696 12.479T793.63-52.935ZM581.37-265.196l-58.087-58.087L508-308q-11 11-27.5 11.5T452-308q-11-11-11.5-27.5T451-364l15.522-15.283L405.804-440H320q-17 0-28.5-11.5T280-480q0-17 11.5-28.5T320-520h5.804l-60.608-61.37L164.065-480 480-164.065l101.37-101.131Zm182.435-54.891-63.892-63.891L795.935-480 480-795.935l-96.022 96.022-63.891-63.892 96.261-96.26q13.657-13.674 30.159-20.511t33.574-6.837q17.071 0 33.516 6.837 16.446 6.837 30.055 20.511l316.413 316.413q13.674 13.616 20.511 30.07 6.837 16.453 6.837 33.474 0 17.021-6.837 33.551t-20.511 30.209l-96.26 96.261Zm-122.74-122.978 11.37-10.609q11.804-11 11.065-27.283-.739-16.282-12.5-28.043L508-652q-11.761-11.761-27.163-12-15.402-.239-27.163 10.804-3.362 3.283-5.464 6.566-2.101 3.282-3.623 7.326l196.478 196.239Zm-99-99ZM423.283-423.283Z"/></svg>