<svg xmlns="http://www.w3.org/2000/svg" height="24" viewBox="0 -960 960 960" width="24"><path d="m381-240 424-424-56.761-56-368 367.239L210.761-523 154-466.239 381-240Zm-64.652 63.891-226-226q-13.674-13.673-20.011-30.206T64-466q0-17.152 6.337-34.065 6.337-16.913 20.01-30.587l56.001-56q13.674-13.674 30.206-20.392 16.533-6.717 34.446-6.717 17.913 0 34.446 6.717 16.532 6.718 30.206 20.392L381-481.305l302.587-303.586q12.913-13.674 29.826-20.011t34.065-6.337q17.152 0 34.066 6.337 16.913 6.337 30.587 19.25l57 56q13.674 13.674 20.391 30.206 6.717 16.533 6.717 34.446 0 17.913-6.337 34.446-6.337 16.532-20.011 30.206L445.652-176.109q-13.674 13.674-30.587 20.392Q398.152-149 381-149q-17.152 0-34.065-6.717-16.913-6.718-30.587-20.392Z"/></svg>