<svg xmlns="http://www.w3.org/2000/svg" height="24" viewBox="0 -960 960 960" width="24"><path d="M236.174-256.761 66.413-426.521q-13.435-13.435-13.054-31.827.38-18.391 13.815-31.826Q80.609-502.848 99-503.228q18.391-.381 31.826 13.054L269-352l63.652 63.652-32.348 31.587q-13.674 12.913-32.065 13.294-18.391.38-32.065-13.294Zm225.761-7.652-170-170q-12.913-12.913-12.794-31.565.12-18.652 13.033-32.326 13.674-13.435 32.326-13.435t32.087 13.435L494-360.891l335.696-335.696q13.434-13.435 31.706-13.054 18.272.38 31.946 13.815 12.913 13.435 13.413 31.826t-13.174 32.065L526.065-264.413Q512.391-250.739 494-250.739t-32.065-13.674ZM494-466.239l-64.413-63.652 166.174-166.174q12.674-12.674 31.445-12.674 18.772 0 32.207 12.674 13.435 13.435 13.435 32.206 0 18.772-13.435 32.207L494-466.239Z"/></svg>