<svg xmlns="http://www.w3.org/2000/svg" height="24" viewBox="0 -960 960 960" width="24"><path d="M520.761-886.37q146.587 14.239 249.434 117.255Q873.043-666.1 887.37-519.522H587.739q-8.761-23.848-25.946-41.793-17.184-17.946-41.032-26.707V-886.37Zm80 113.24v126.195q13.63 9.957 25.424 21.87 11.793 11.913 21.989 25.543h125.717q-23.761-59.282-68.804-104.565-45.044-45.283-104.326-69.043Zm-160-113.24v298.348q-33.848 12.522-54.533 42.451-20.684 29.928-20.684 66.032t20.565 65.409q20.565 29.304 54.652 41.826V-73.63Q283.385-88.91 178.127-205.042 72.869-321.174 72.869-479.55q0-158.376 105.272-274.859 105.272-116.482 262.62-131.961Zm-80 113.24q-89.565 35.717-143.348 115.749-53.783 80.031-53.783 177.847 0 97.817 53.544 177.98 53.543 80.163 143.587 116.684v-126.999q-40.87-29.718-63.544-73.415t-22.674-94.238q0-50.541 22.794-94.238 22.793-43.697 63.424-73.175V-773.13Zm226.978 333.608h299.392q-14.24 146.348-117.115 248.972T520.761-73.63v-298.674q23.848-8.761 41.272-25.946 17.423-17.185 25.706-41.272Zm60.435 80q-9.435 13.631-21.609 25.544-12.174 11.913-25.804 22.109v125.239q59.282-23.761 104.565-68.685 45.283-44.924 69.044-104.207H648.174ZM275.739-479Zm372.435-120.522Zm-1.913 240Z"/></svg>