<svg xmlns="http://www.w3.org/2000/svg" height="24" viewBox="0 -960 960 960" width="24"><path d="M361.435-440q-17 0-28.5-11.5t-11.5-28.5q0-17 11.5-28.5t28.5-11.5q17 0 28.5 11.5t11.5 28.5q0 17-11.5 28.5t-28.5 11.5Zm237.13 0q-17 0-28.5-11.5t-11.5-28.5q0-17 11.5-28.5t28.5-11.5q17 0 28.5 11.5t11.5 28.5q0 17-11.5 28.5t-28.5 11.5Zm-448.37 328.131q-19.152 0-32.326-13.174t-13.174-32.327q0-18.391 15.457-27.76 15.456-9.37 30.043-17.74h1.674v-554.26q0-37.783 26.609-64.392 26.609-26.609 64.392-26.609h474.26q37.783 0 64.392 26.609 26.609 26.609 26.609 64.392v554.26h1.674q19.152 0 32.326 13.174t13.174 32.326q0 19.153-13.174 32.327t-32.326 13.174h-659.61Zm92.675-91.001H440v-554.26H242.87v554.26Zm277.13 0h197.13v-554.26H520v554.26ZM480-525.5Z"/></svg>