<svg xmlns="http://www.w3.org/2000/svg" height="24" viewBox="0 -960 960 960" width="24"><path d="M480-71.87q-84.913 0-159.345-32.117-74.432-32.118-129.491-87.177-55.059-55.059-87.177-129.491Q71.869-395.087 71.869-480t32.118-159.345q32.118-74.432 87.177-129.491 55.059-55.059 129.491-87.177Q395.087-888.131 480-888.131t159.345 32.118q74.432 32.118 129.491 87.177 55.059 55.059 87.177 129.491Q888.131-564.913 888.131-480t-32.118 159.345q-32.118 74.432-87.177 129.491-55.059 55.059-129.491 87.177Q564.913-71.869 480-71.869Zm0-91q133.043 0 225.087-92.043Q797.13-346.957 797.13-480t-92.043-225.087Q613.043-797.13 480-797.13t-225.087 92.043Q162.87-613.043 162.87-480t92.043 225.087Q346.957-162.87 480-162.87ZM315.217-360.717v-65.044q0-9.196 3.479-17.533 3.478-8.336 10.195-15.054l208.761-208q9.718-9.759 21.594-14.097 11.877-4.338 23.754-4.338 12.957 0 24.805 4.859 11.849 4.859 21.543 14.576l37 37q8.675 9.718 13.555 21.594 4.88 11.877 4.88 23.754 0 12.196-4.359 24.413t-14.076 21.935l-208 208q-6.683 6.717-15.037 10.076-8.354 3.359-17.55 3.359h-65.044q-19.152 0-32.326-13.174t-13.174-32.326ZM620-583l-37-37 37 37ZM380-380h38l120.043-121.043-18-19-19-18L380-418v38Zm140.043-140.043-19-18 37 37-18-19Z"/></svg>