<svg xmlns="http://www.w3.org/2000/svg" height="24" viewBox="0 -960 960 960" width="24"><path d="M234.978-71.87q-67.435 0-115.272-47.836-47.837-47.837-47.837-115.272v-227.479q0-31.717 14.86-59.054 14.858-27.337 41.575-44.576l308.392-200.435q11-7 23-5.739 12 1.261 21.239 10.022 23.587 21.913 28.641 53.119 5.054 31.207-11.141 59.033l-36.87 60.522h303.218q18.195 0 30.652 12.456 12.456 12.457 12.456 30.652 0 18.196-12.456 30.653-12.457 12.456-30.652 12.456H471.869v57.609h372.914q18.195 0 30.652 12.456 12.456 12.457 12.456 30.653 0 18.195-12.456 30.652-12.457 12.456-30.652 12.456H471.869v57.609h333.153q18.196 0 30.652 12.456 12.457 12.457 12.457 30.653 0 18.195-12.457 30.652-12.456 12.456-30.652 12.456H471.869v57.609h252.914q18.195 0 30.652 12.457 12.456 12.456 12.456 30.652 0 18.195-12.456 30.652-12.457 12.457-30.652 12.457H234.978ZM565.652-765.89q-23.761-31.522-35.282-59.805-11.522-28.282-11.522-62.522 0-17.434 11.956-29.391 11.957-11.956 29.153-11.956 16.956 0 28.413 11.956 11.456 11.957 12.456 29.152 1.761 27.326 12.924 45.848t29.88 45q20.718 27.478 29.837 53.359 9.12 25.88 9.12 57.119 0 18.196-11.837 30.272-11.837 12.076-29.793 12.076-17.196 0-29.033-12.456-11.837-12.457-11.837-29.652-.761-22-8.62-39.022-7.858-17.022-25.815-39.978Zm165.022 0q-23.761-31.522-35.022-59.805-11.261-28.282-11.261-62.522 0-17.434 11.957-29.391 11.956-11.956 29.152-11.956 16.196 0 27.652 11.956 11.457 11.957 12.457 29.152 1.761 27.326 12.924 45.848t29.88 45q20.718 27.478 29.837 53.359 9.12 25.88 9.12 57.119 0 17.435-11.837 29.892-11.837 12.456-29.033 12.456t-29.033-12.076q-11.837-12.076-11.837-29.272-.76-22.76-8.88-39.782-8.12-17.022-26.076-39.978Z"/></svg>