<svg xmlns="http://www.w3.org/2000/svg" height="24" viewBox="0 -960 960 960" width="24"><path d="M201.913-278.087q-85.717 0-143.815-58.098T0-480q0-85.239 59.217-143.576 59.218-58.337 142.696-58.337 76.044 0 129.5 46 53.457 46 67.935 114h21.935l-70.805-196.174h-28.565q-17.717 0-29.815-12.098Q280-742.283 280-760t12.098-29.815q12.098-12.098 29.815-12.098h119.761q17.717 0 29.815 12.217 12.098 12.218 12.098 31.37 0 17-11.62 28.62-11.619 11.619-28.619 11.619h-3.044l13.044 36.174h184.348l-57.044-156.174H520q-17.717 0-29.815-12.098-12.098-12.098-12.098-29.815t12.098-29.815q12.098-12.098 29.815-12.098h62.087q26.478 0 47.696 14.359Q651-893.196 660-868.717l67.283 184.804h30.804q83.956 0 142.935 58.978Q960-565.957 960-482q0 84.717-58.598 144.076-58.598 59.359-143.315 59.359-72 0-126.978-44.761-54.979-44.761-70.457-114.761H399.348q-14.478 69-68.837 114.5t-128.598 45.5Zm109.13-160v-83.826h-69.13q-17.717 0-29.815 12.098Q200-497.717 200-480t12.098 29.815q12.098 12.098 29.815 12.098h69.13Zm198.153-83.826h51.456q5-21.804 13.022-40.848 8.022-19.043 20.826-35.326H482.304l26.892 76.174Zm170.174-46.739 23.282 65.369q5.478 16.718 21.457 23.957 15.978 7.239 32.695 1 16.718-6.239 24.076-21.837 7.359-15.598 1.12-32.315l-24.804-65.37-77.826 29.196Zm-158.174 449.13v45.13q0 12.435-10.816 19.272-10.815 6.837-22.25 1.12l-168.934-84.848q-7.957-4.239-6.218-12.935 1.739-8.695 10.935-8.695h115.37v-45.131q0-12.434 10.815-19.271 10.815-6.837 22.25-1.12l168.935 84.848q7.956 4.239 6.217 12.935-1.739 8.695-10.935 8.695H521.196Z"/></svg>