<svg xmlns="http://www.w3.org/2000/svg" height="24" viewBox="0 -960 960 960" width="24"><path d="M240.717-351.152v15.696q0 26.793-18.755 45.549-18.756 18.755-45.549 18.755-26.674 0-45.609-18.935-18.935-18.935-18.935-45.609v-289.347q0-7.957 1.12-15.674 1.12-7.718 3.598-14.674l74.282-210.848q9.435-27.348 32.946-44.261 23.511-16.913 53.098-16.913h406.174q29.587 0 53.098 16.913t32.946 44.261l74.282 210.848q2.478 6.956 3.598 14.674 1.12 7.717 1.12 15.674v289.587q0 26.793-18.756 45.549-18.755 18.755-45.549 18.755-26.674 0-45.609-18.935-18.934-18.935-18.934-45.609v-15.456H240.717Zm-5.369-368.131h489.304l-40.804-117.13H276.152l-40.804 117.13Zm-32.478 80v197.131-197.131Zm98.565 158.566q25 0 42.5-17.5t17.5-42.5q0-25-17.5-42.5t-42.5-17.5q-25 0-42.5 17.5t-17.5 42.5q0 25 17.5 42.5t42.5 17.5Zm357.13 0q25 0 42.5-17.5t17.5-42.5q0-25-17.5-42.5t-42.5-17.5q-25 0-42.5 17.5t-17.5 42.5q0 25 17.5 42.5t42.5 17.5ZM520.957-118.804v45.13q0 12.487-10.816 19.298-10.815 6.81-22.25 1.093L318.957-137.89q-7.957-4.239-6.229-12.935 1.729-8.696 10.946-8.696h115.369v-45.369q0-12.487 10.816-19.298 10.815-6.811 22.25-1.094l168.934 84.848q7.957 4.239 6.229 12.935-1.729 8.696-10.946 8.696H520.957ZM202.87-442.152h554.26v-197.131H202.87v197.131Z"/></svg>