<svg xmlns="http://www.w3.org/2000/svg" height="24" viewBox="0 -960 960 960" width="24"><path d="M480-109.63q74.043-70.522 116.065-134.468Q638.087-308.043 638.087-354q0-68.043-45.902-116.065Q546.283-518.087 480-518.087t-112.185 48.022Q321.913-422.043 321.913-354q0 44.761 41.902 109.304Q405.717-180.152 480-109.63Zm0-495.87q103.152 0 174.326 73.674Q725.5-458.152 725.5-354q0 34.478-13.119 72.076-13.12 37.598-38.859 78.576-25.739 40.978-63.457 84.196-37.717 43.217-87.674 89.174-8.717 8.478-19.695 12.217-10.979 3.74-22.696 3.74-11.717 0-22.696-3.74-10.978-3.739-19.695-12.217-49.957-45.957-87.674-89.294-37.718-43.337-63.457-84.315-25.739-40.978-38.859-78.456Q234.5-319.522 234.5-354q0-104.152 71.174-177.826Q376.848-605.5 480-605.5Zm0 312.913q28.109 0 47.761-19.652T547.413-360q0-28.109-19.652-47.761T480-427.413q-28.109 0-47.761 19.652T412.587-360q0 28.109 19.652 47.761T480-292.587Zm.239-423.826q-29.282 0-56.685 8.12-27.402 8.119-51.924 24.402-15.434 9.717-33.63 9.098-18.196-.62-30.391-12.816-13.196-12.956-12.696-30.511.5-17.554 14.696-28.271 36.717-27.479 80.315-42.337 43.598-14.859 90.315-14.859 46.718 0 90.196 14.859 43.478 14.858 80.195 42.337 14.196 10.717 14.816 28.271.619 17.555-12.576 30.75-12.196 12.196-30.392 12.696-18.195.5-33.63-9.217-24.522-16.283-51.924-24.402-27.402-8.12-56.685-8.12Zm0-160q-61.282 0-117.565 20T258.87-799.13q-14.196 11.717-32.631 11.217-18.435-.5-31.63-12.696-13.196-12.956-12.196-31.011 1-18.054 15.196-29.771 59.956-49.479 131.934-75.837 71.979-26.359 150.696-26.359 78.718 0 150.696 26.478 71.978 26.479 131.695 75.718 14.196 11.717 15.196 30.152 1 18.435-12.196 31.63-12.195 12.957-30.51 13.076-18.316.12-32.511-11.597-47.761-37.283-104.424-57.783-56.663-20.5-117.946-20.5ZM480-360Z"/></svg>