<svg xmlns="http://www.w3.org/2000/svg" height="24" viewBox="0 -960 960 960" width="24"><path d="M398.326-807.413H154.261q-17.718 0-29.696-12.098-11.978-12.098-11.978-29.815 0-17.718 11.978-29.696Q136.543-891 154.261-891h244.065q17.717 0 29.696 11.978Q440-867.044 440-849.326q0 17.717-11.978 29.815-11.979 12.098-29.696 12.098ZM234.5-683.587h-80q-17.718 0-29.815-12.098-12.098-12.098-12.098-29.815 0-17.718 12.098-29.815 12.097-12.098 29.815-12.098h243.587q17.717 0 29.815 12.098Q440-743.218 440-725.5q0 17.717-12.098 29.815-12.098 12.098-29.815 12.098h-80v121.913q0 17.717-11.978 29.696Q294.13-520 276.413-520q-17.717 0-29.815-12.098-12.098-12.098-12.098-29.815v-121.674Zm347.718 564.609q-11.718 11.717-29.196 11.598-17.478-.12-29.196-11.837-11.717-11.718-11.717-29.196t11.717-29.196l256-256q11.718-11.717 29.196-11.717t29.196 11.717q11.717 11.718 11.717 29.316 0 17.597-11.717 29.315l-256 256ZM580-320q-26.478 0-43.957-17.478-17.478-17.479-17.478-43.957t17.478-43.956Q553.522-442.87 580-442.87t43.957 17.479q17.478 17.478 17.478 43.956t-17.478 43.957Q606.478-320 580-320Zm210.283 210.283q-26.478 0-43.957-17.478-17.478-17.479-17.478-43.957t17.478-43.957q17.479-17.478 43.957-17.478t43.956 17.478q17.479 17.479 17.479 43.957t-17.479 43.957q-17.478 17.478-43.956 17.478ZM621.913-520q-41.956 0-71.935-29.978Q520-579.957 520-621.913q0-41.957 29.978-72.696 29.979-30.739 71.935-30.739 11.761 0 20.902 1.5 9.142 1.5 17.185 4.261V-845.5q0-17.718 12.098-29.815 12.098-12.098 29.815-12.098h99.761q17.717 0 29.815 12.098 12.098 12.097 12.098 29.815 0 17.717-12.098 29.815-12.098 12.098-29.815 12.098h-78.087v181.674q0 41.956-29.859 71.935Q663.87-520 621.913-520ZM216.652-75.217q-41.956 0-72.293-31.098-30.337-31.098-30.337-73.055 0-18.478 7.858-37.217 7.859-18.739 23.337-34.217l40.805-40.566-12.805-13.043q-15.478-15.478-23.098-33.457-7.619-17.978-7.619-38.217 0-41.956 30.098-71.935Q202.696-478 244.652-478q41.957 0 72.054 29.978 30.098 29.979 30.098 71.935 0 20.239-6.619 38.217-6.62 17.979-22.098 33.457l-12.804 13.043 25.847 25.848 25.805-25.804q12.478-12.478 29.695-11.978 17.218.5 29.696 12.978 11.717 12.478 12.098 29.196.38 16.717-12.098 29.195l-26.804 26.805 26.565 26.565q11.717 11.717 11.598 29.195-.12 17.479-11.837 29.196-11.718 11.718-29.196 11.718t-29.196-11.718L331.13-146.5l-40.565 40.804q-15.478 15.479-34.576 22.979t-39.337 7.5Zm28-273.587 13.044-13.283q2.76-3 4.141-6 1.38-3 1.38-8 0-8.043-5.521-13.185-5.522-5.141-13.044-5.141t-13.043 5.141q-5.522 5.142-5.522 13.185 0 3.478 1.5 7.239 1.5 3.761 4.261 6.761l12.804 13.283Zm-30.239 190q3 0 7.761-1.381 4.761-1.38 7.761-4.38L272.5-205.13l-26.087-26.087-42.565 40.804q-2.761 2.761-4.261 6.641-1.5 3.881-1.5 8.402 0 7.044 4.641 11.805 4.642 4.761 11.685 4.761Z"/></svg>