<svg xmlns="http://www.w3.org/2000/svg" height="24" viewBox="0 -960 960 960" width="24"><path d="M480-440q-17 0-28.5-11.5T440-480q0-17 11.5-28.5T480-520q17 0 28.5 11.5T520-480q0 17-11.5 28.5T480-440Zm0 368.13q-84.913 0-159.345-32.117-74.432-32.118-129.491-87.177-55.059-55.059-87.177-129.491Q71.869-395.087 71.869-480t32.118-159.345q32.118-74.432 87.177-129.491 55.059-55.059 129.491-87.177Q395.087-888.131 480-888.131t159.345 32.118q74.432 32.118 129.491 87.177 55.059 55.059 87.177 129.491Q888.131-564.913 888.131-480t-32.118 159.345q-32.118 74.432-87.177 129.491-55.059 55.059-129.491 87.177Q564.913-71.869 480-71.869Zm0-91q133.043 0 225.087-92.043Q797.13-346.957 797.13-480t-92.043-225.087Q613.043-797.13 480-797.13t-225.087 92.043Q162.87-613.043 162.87-480t92.043 225.087Q346.957-162.87 480-162.87ZM480-480ZM297.717-277.957l248.805-112.456q7.435-3.478 13.511-9.554 6.076-6.076 9.554-13.511l112.456-248.805q4.761-9.76-2.619-17.141-7.381-7.38-17.141-2.619L413.478-569.587q-7.435 3.478-13.511 9.554-6.076 6.076-9.554 13.511L277.957-297.717q-4.761 9.76 2.619 17.141 7.381 7.38 17.141 2.619Z"/></svg>