<svg xmlns="http://www.w3.org/2000/svg" height="24" viewBox="0 -960 960 960" width="24"><path d="M600.065-482.304 482.304-600.065l185.826-87.826q9.761-4.761 17.142 2.619 7.38 7.381 2.619 17.142l-87.826 185.826ZM770.872-74.939l-65.611-64.604q-50.196 32.956-107.002 50.315Q541.453-71.87 480.04-71.87q-84.953 0-159.385-32.118-74.432-32.118-129.491-87.177-55.059-55.059-87.177-129.491-32.118-74.432-32.118-159.385 0-61.413 17.36-118.219 17.358-56.806 50.314-107.002l-65.41-65.611q-12.46-12.498-12.46-29.621 0-17.123 12.504-29.576t29.696-12.453q17.192 0 29.67 12.478l696.74 696.501q12.478 12.478 12.359 29.315-.12 16.837-12.573 29.315-12.453 12.478-29.576 12.478t-29.621-12.504Zm52.215-184.344-66.37-66.369q20.087-36.566 30.25-75.152Q797.13-439.391 797.13-480q0-132.043-92.543-224.587Q612.043-797.13 480-797.13q-40.609 0-79.196 10.163-38.586 10.163-75.152 30.25l-66.369-66.37q49.478-31.522 105.056-48.283Q419.916-888.131 480-888.131q84.913 0 159.345 32.118t129.491 87.177q55.059 55.059 87.177 129.491Q888.131-564.913 888.131-480q0 60.084-16.761 115.661-16.761 55.578-48.283 105.056ZM541.304-541.304ZM422.522-422.522ZM480-162.87q42.337 0 82.212-10.76 39.875-10.761 77.158-32.044L482.957-362.087 291.87-272.109q-9.761 4.761-17.142-2.619-7.38-7.381-2.636-17.252l88.234-192.498L205.674-639.37q-21.522 37.283-32.163 77.066Q162.87-522.522 162.87-480q0 132.043 92.543 224.587Q347.957-162.87 480-162.87Z"/></svg>