<svg xmlns="http://www.w3.org/2000/svg" height="24" viewBox="0 -960 960 960" width="24"><path d="M754.739-240.761v66.022q0 9.196 6.598 15.794 6.598 6.597 15.793 6.597 9.196 0 15.794-6.597 6.598-6.598 6.598-15.794V-294.5q0-9.196-6.718-15.913-6.717-6.717-15.913-6.717H657.13q-9.195 0-15.793 6.597-6.598 6.598-6.598 15.674 0 9.077 6.717 15.794 6.718 6.717 15.674 6.717h66.261l-93.935 93.935q-6.717 6.717-6.717 15.674t6.769 15.674q6.768 6.717 15.793 6.717 9.025 0 15.742-6.717l93.696-93.696ZM202.87-111.152q-37.538 0-64.269-26.731-26.732-26.732-26.732-64.269v-554.261q0-37.538 26.732-64.269 26.731-26.731 64.269-26.731h554.26q37.538 0 64.269 26.731 26.732 26.731 26.732 64.269v276.131q-21.153-11.631-43.903-19.805t-47.098-11.652v-244.674H202.87v554.261h235.782q2.522 25.109 9.62 47.859 7.098 22.75 17.532 43.141H202.87Zm0-123.348v32.348-554.261 244.674-2.761 280Zm80-87.652q0 17 11.5 28.5t28.5 11.5h118.695q3.478-21 10.576-41 7.098-20 16.055-39H322.87q-17 0-28.5 11.5t-11.5 28.5Zm0-157.131q0 17 11.5 28.5t28.5 11.5h203.521q31.044-28.326 69.229-47.01 38.184-18.685 81.51-25.446-8.282-3.913-19.282-5.728-11-1.816-20.718-1.816H322.87q-17 0-28.5 11.5t-11.5 28.5Zm0-157.13q0 17 11.5 28.5t28.5 11.5h314.26q17 0 28.5-11.5t11.5-28.5q0-17-11.5-28.5t-28.5-11.5H322.87q-17 0-28.5 11.5t-11.5 28.5ZM717.13-34.739q-83 0-141.5-58.5t-58.5-141.5q0-83 58.5-141.5t141.5-58.5q83 0 141.5 58.5t58.5 141.5q0 83-58.5 141.5t-141.5 58.5Z"/></svg>