<svg xmlns="http://www.w3.org/2000/svg" height="24" viewBox="0 -960 960 960" width="24"><path d="M361.196-309.283q-21.479 0-36.098-14.619-14.62-14.62-14.62-36.098t14.62-36.098q14.619-14.619 36.098-14.619 21.478 0 36.098 14.619 14.619 14.62 14.619 36.098t-14.619 36.098q-14.62 14.619-36.098 14.619Zm237.608 0q-21.478 0-36.098-14.619-14.619-14.62-14.619-36.098t14.619-36.098q14.62-14.619 36.098-14.619 21.479 0 36.098 14.619 14.62 14.62 14.62 36.098t-14.62 36.098q-14.619 14.619-36.098 14.619ZM480-82.87q132.565 0 224.967-92.027 92.403-92.027 92.403-224.625 0-24-3-46.147t-11-42.896q-21 5-41.642 7.5-20.641 2.5-43.641 2.5-90.283 0-170.446-38.641-80.163-38.642-136.924-108.164-31.521 77.044-90.543 133.946-59.022 56.902-137.065 85.902v6q0 132.598 92.163 224.625Q347.435-82.87 480-82.87Zm.239 91q-84.647 0-159.095-32.097-74.448-32.098-129.644-87.294-55.196-55.195-87.294-129.644Q72.109-315.353 72.109-400q0-30.486 4.358-60.446 4.359-29.961 13.076-57.293-42.521-26.239-68.424-70.367-25.902-44.128-25.902-97.677 0-83 58-141t141-58q52.522 0 96.783 25.142 44.261 25.141 71.261 68.945 27.348-8.717 57.326-13.076t60.652-4.359q84.56 0 158.932 32.098 74.373 32.098 129.568 87.294 55.196 55.195 87.294 129.65 32.098 74.455 32.098 159.109 0 84.654-32.098 159.089t-87.294 129.63q-55.195 55.196-129.568 87.294Q564.799 8.13 480.239 8.13Z"/></svg>