<svg xmlns="http://www.w3.org/2000/svg" height="24" viewBox="0 -960 960 960" width="24"><path d="M480-242.87q132.898 0 225.134-92.424 92.236-92.423 92.236-224.228 0-29.804-4.761-57.587-4.761-27.782-15.044-53.826-26.761 16.283-56.371 25.163-29.61 8.881-61.194 8.881-53.74 0-101.011-24.022-47.272-24.022-78.989-68.065-31.717 44.043-78.989 68.065Q353.74-636.891 300-636.891q-31.283 0-60.924-8.761t-56.402-25.044q-10.248 26.155-14.907 53.762-4.658 27.608-4.658 57.412 0 131.805 92.591 224.228Q348.292-242.87 480-242.87ZM361.196-469.283q21.478 0 36.098-14.619 14.619-14.62 14.619-36.098t-14.619-36.098q-14.62-14.619-36.098-14.619-21.479 0-36.098 14.619-14.62 14.62-14.62 36.098t14.62 36.098q14.619 14.619 36.098 14.619Zm237.608 0q21.479 0 36.098-14.619 14.62-14.62 14.62-36.098t-14.62-36.098q-14.619-14.619-36.098-14.619-21.478 0-36.098 14.619-14.619 14.62-14.619 36.098t14.619 36.098q14.62 14.619 36.098 14.619ZM300-723.109q56.712 0 96.802-40.089 40.089-40.09 40.089-96.802v-14.652q-65.848 8.478-120.695 42.043-54.848 33.566-91.892 85.413 17.032 11.117 35.956 17.602 18.924 6.485 39.74 6.485Zm360 0q20.897 0 39.894-6.261 18.997-6.26 36.28-18.065-37.283-51.848-91.87-85.293-54.587-33.446-121.195-41.924V-860q0 56.712 40.089 96.802 40.09 40.089 96.802 40.089ZM91.109-71.869q-40.022 0-67.25-29.468Q-3.37-130.804.109-170.826l35.76-391.891q8.24-85.674 46.337-159.99 38.098-74.315 97.799-128.805 59.7-54.49 136.75-85.554 77.049-31.065 163.484-31.065t163.35 31.065q76.914 31.064 136.511 85.554 59.596 54.49 97.694 128.805 38.097 74.316 46.337 159.99l35.76 391.891q3.479 40.022-23.75 69.489-27.228 29.468-67.25 29.468H91.109Zm389.021-80q-122.5 0-221.663-66.033-99.163-66.032-147.271-170.728L91.109-162.87H868.89l-20.087-225.282q-48.108 104.696-146.652 170.489-98.543 65.794-222.022 65.794Zm42.979-722.783Zm-86.218 0ZM480.13-162.87H868.891 91.109 480.13Z"/></svg>