<svg xmlns="http://www.w3.org/2000/svg" height="24" viewBox="0 -960 960 960" width="24"><path d="M480-71.87q-83.674 0-158.109-32.217T191.88-191.88q-55.576-55.576-87.793-130.011Q71.869-396.326 71.869-480q0-86.957 33.359-161.891 33.359-74.935 89.815-130.011 56.457-55.076 130.131-86.033Q398.848-888.891 480-888.131q44.826 0 86.859 8.457 42.032 8.456 82.554 28.935-19.543 12.435-30.359 29.391-10.815 16.957-10.815 41.348 0 22.87 13.076 45.185t37.272 33.554l29.543 12.891 12.892 29.544q11.717 23.717 33.793 37.032 22.076 13.316 44.946 13.316 22.152 0 40.967-11.435 18.816-11.435 30.011-29.5 19.674 43.195 28.652 85.326 8.979 42.13 8.979 84.087 0 82.152-31.337 156.207-31.337 74.054-86.272 130.011-54.935 55.956-129.37 88.934Q566.957-71.869 480-71.869ZM361.196-389.282q-21.479 0-36.098-14.619-14.62-14.62-14.62-36.098t14.62-36.098q14.619-14.619 36.098-14.619 21.478 0 36.098 14.619 14.619 14.62 14.619 36.098t-14.619 36.098q-14.62 14.619-36.098 14.619Zm237.608 0q-21.478 0-36.098-14.619-14.619-14.62-14.619-36.098t14.619-36.098q14.62-14.619 36.098-14.619 21.479 0 36.098 14.619 14.62 14.62 14.62 36.098t-14.62 36.098q-14.619 14.619-36.098 14.619ZM480-162.87q132.565 0 224.967-92.043 92.403-92.044 92.403-224.609 0-24-3-46.141t-11-42.902q-21 5-41.642 7.5-20.641 2.5-43.641 2.5-90.283 0-170.446-38.641-80.163-38.642-136.924-108.164-31.521 77.044-90.543 133.946-59.022 56.902-137.065 85.902v6q0 132.565 92.163 224.609Q347.435-162.87 480-162.87ZM735.761-736l-73.37-33.804q-6.717-3.479-6.717-10.196t6.717-10.196L735.761-824l33.804-73.37q3.478-6.717 10.196-6.717 6.717 0 10.196 6.717L823.761-824l73.369 33.804q6.718 3.479 6.718 10.196t-6.718 10.196L823.761-736l-33.804 73.37q-3.479 6.717-10.196 6.717-6.718 0-10.196-6.717L735.761-736Z"/></svg>