<svg xmlns="http://www.w3.org/2000/svg" height="24" viewBox="0 -960 960 960" width="24"><path d="M480-888.131q43.304 0 85.978 9.337 42.674 9.337 81.674 27.294l-121 56.022q-11.043-1.761-22.826-3.142Q492.043-800 480-800q-14 0-27 1.12-13 1.119-27 3.88 42 70 114 112.5T700-640h12.087l35.717 78.196q-91.434 11.239-188.358-21-96.924-32.239-168.729-122.566-34.282 83.805-95.38 139.044-61.098 55.239-132.467 80.804 0 137.326 92.663 229.989Q348.196-162.87 480-162.87q134.326 0 226.609-94.804Q798.891-352.478 797.37-480q0-11.848-.881-20.554-.88-8.707-2.402-21.315L851.5-648.413q19.674 43.195 28.272 84.826 8.598 41.63 8.598 83.587 0 82.152-31.337 156.207-31.337 74.054-86.272 130.011-54.935 55.956-129.37 88.934Q566.957-71.869 480-71.869q-83.674 0-158.109-32.218-74.435-32.217-130.011-87.793-55.576-55.576-87.793-130.011Q71.869-396.326 71.869-480q0-86.957 33.359-161.891 33.359-74.935 89.815-129.631 56.457-54.696 130.131-85.652Q398.848-888.131 480-888.131ZM361.196-490.717q21.478 0 36.098 14.619 14.619 14.62 14.619 36.098t-14.619 36.098q-14.62 14.619-36.098 14.619-21.479 0-36.098-14.619-14.62-14.62-14.62-36.098t14.62-36.098q14.619-14.619 36.098-14.619ZM571.565-720Zm27.239 229.283q21.479 0 36.098 14.619 14.62 14.62 14.62 36.098t-14.62 36.098q-14.619 14.619-36.098 14.619-21.478 0-36.098-14.619-14.619-14.62-14.619-36.098t14.619-36.098q14.62-14.619 36.098-14.619ZM735.761-736l-73.37-33.804q-6.717-3.479-6.717-10.196t6.717-10.196L735.761-824l33.804-73.37q3.478-6.717 10.196-6.717 6.717 0 10.196 6.717L823.761-824l73.369 33.804q6.718 3.479 6.718 10.196t-6.718 10.196L823.761-736l-33.804 73.37q-3.479 6.717-10.196 6.717-6.718 0-10.196-6.717L735.761-736ZM177-581q51-29 89-75t57-103q-51 29-89 75t-57 103Zm146-178Z"/></svg>