<svg xmlns="http://www.w3.org/2000/svg" height="24" viewBox="0 -960 960 960" width="24"><path d="M361.196-389.283q-21.479 0-36.098-14.619-14.62-14.62-14.62-36.098t14.62-36.098q14.619-14.619 36.098-14.619 21.478 0 36.098 14.619 14.619 14.62 14.619 36.098t-14.619 36.098q-14.62 14.619-36.098 14.619Zm237.608 0q-21.478 0-36.098-14.619-14.619-14.62-14.619-36.098t14.619-36.098q14.62-14.619 36.098-14.619 21.479 0 36.098 14.619 14.62 14.62 14.62 36.098t-14.62 36.098q-14.619 14.619-36.098 14.619ZM480-162.87q132.565 0 224.967-92.027 92.403-92.027 92.403-224.625 0-24-3-46.147t-11-42.896q-21 5-41.642 7.5-20.641 2.5-43.641 2.5-90.283 0-170.446-38.641-80.163-38.642-136.924-108.164-31.521 77.044-90.543 133.946-59.022 56.902-137.065 85.902v6q0 132.598 92.163 224.625Q347.435-162.87 480-162.87Zm.239 91q-84.647 0-159.095-32.097-74.448-32.098-129.644-87.294-55.196-55.195-87.294-129.65-32.097-74.455-32.097-159.109 0-84.654 32.097-159.089 32.098-74.435 87.294-129.63 55.196-55.196 129.65-87.294 74.455-32.098 159.109-32.098 84.654 0 158.969 32.098 74.316 32.098 129.511 87.294 55.196 55.195 87.294 129.65 32.098 74.455 32.098 159.109 0 84.654-32.098 159.089t-87.294 129.63q-55.195 55.196-129.568 87.294-74.372 32.098-158.932 32.098ZM426-795q42 70 114 112.5T700-640q14 0 27-1.5t27-3.5q-42-70-114-112.5T480-800q-14 0-27 1.5t-27 3.5ZM177-581q51-29 89-75t57-103q-51 29-89 75t-57 103Zm249-214Zm-103 36Z"/></svg>