<svg xmlns="http://www.w3.org/2000/svg" height="24" viewBox="0 -960 960 960" width="24"><path d="M605.5-365.5q35.631 0 59.609-23.978 23.978-23.979 23.978-59.609V-505.5q0-26-17-43t-43-17q26 0 43-17t17-43v-56.413q0-35.631-23.978-59.609T605.5-765.5H483.587q-17.711 0-29.693 11.982-11.981 11.983-11.981 29.696t12.05 29.811q12.05 12.098 29.863 12.098H605.5v76.413h-44.065q-17 0-28.5 11.5t-11.5 28.5q0 17 11.5 28.5t28.5 11.5H605.5v76.413H483.587q-17.711 0-29.693 11.982-11.981 11.983-11.981 29.696t12.05 29.811q12.05 12.098 29.863 12.098H605.5ZM328.37-237.37q-37.783 0-64.392-26.608-26.608-26.609-26.608-64.392v-474.26q0-37.783 26.608-64.392 26.609-26.609 64.392-26.609h474.26q37.783 0 64.392 26.609 26.609 26.609 26.609 64.392v474.26q0 37.783-26.609 64.392-26.609 26.608-64.392 26.608H328.37Zm-171 171q-37.783 0-64.392-26.608-26.609-26.609-26.609-64.392v-519.76q0-19.153 13.174-32.327 13.174-13.173 32.326-13.173 19.153 0 32.327 13.173 13.174 13.174 13.174 32.327v519.76h519.76q19.153 0 32.327 13.174 13.173 13.174 13.173 32.327 0 19.152-13.173 32.326Q696.283-66.37 677.13-66.37H157.37Z"/></svg>