<svg xmlns="http://www.w3.org/2000/svg" height="24" viewBox="0 -960 960 960" width="24"><path d="M242.87-71.87q-37.783 0-64.392-26.608-26.609-26.609-26.609-64.392v-634.26q0-37.783 26.609-64.392 26.609-26.609 64.392-26.609h318.456q20.391 0 38.544 8.576 18.152 8.577 30.826 24.251L786.5-668.457q10.196 12.435 15.913 27.229 5.718 14.793 5.718 30.945v441.066l-185.827-188.87q10.761-17 16.381-37 5.619-20 5.619-44.913 0-68.152-48.076-116.228Q548.152-604.304 480-604.304q-68.152 0-116.228 48.076Q315.696-508.152 315.696-440q0 68.152 48.076 116.228Q411.848-275.696 480-275.696q24.435 0 44.674-5.5t37.239-16.739L771.587-89.782q-23.717 10.956-49.435 14.434-25.717 3.479-51.674 3.479H242.87Zm237.13-291q-32.043 0-54.587-22.543Q402.87-407.957 402.87-440q0-32.043 22.543-54.587Q447.957-517.13 480-517.13q32.043 0 54.587 22.543Q557.13-472.043 557.13-440q0 32.043-22.543 54.587Q512.043-362.87 480-362.87Z"/></svg>