<svg xmlns="http://www.w3.org/2000/svg" height="24" viewBox="0 -960 960 960" width="24"><path d="M280-480q0 18.435-12.576 31.011t-31.011 12.576H76.173q-18.434 0-31.01-12.576T32.587-480q0-18.435 12.576-31.011t31.01-12.576h160.24q18.435 0 31.011 12.576T280-480Zm58-142q-12.435 12.435-30.63 12.435-18.196 0-30.631-12.435l-28-28.239q-12.196-12.196-12.196-30.391 0-18.196 12.435-30.631 12.196-12.196 30.392-12.196 18.195 0 30.391 12.196l28.239 28q12.196 12.196 12.196 30.631 0 18.434-12.196 30.63Zm98.413-101.587v-160.239q0-18.435 12.576-31.011T480-927.413q18.435 0 31.011 12.576t12.576 31.011v160.239q0 18.435-12.576 31.011T480-680q-18.435 0-31.011-12.576t-12.576-31.011ZM622-622q-12.435-12.435-12.435-30.63 0-18.196 12.435-30.631l28.239-28q12.196-12.196 30.391-12.196 18.196 0 30.631 12.435 12.196 12.196 12.196 30.392 0 18.195-12.196 30.391l-28 28.239q-12.196 12.196-30.631 12.196-18.434 0-30.63-12.196Zm58 142q0-18.435 12.576-31.011t31.011-12.576h160.239q18.435 0 31.011 12.576T927.413-480q0 18.435-12.576 31.011t-31.011 12.576H723.587q-18.435 0-31.011-12.576T680-480ZM480-356.413q-51.435 0-87.511-36.076-36.076-36.076-36.076-87.511 0-51.435 36.076-87.511 36.076-36.076 87.511-36.076 51.435 0 87.511 36.076 36.076 36.076 36.076 87.511 0 51.435-36.076 87.511-36.076 36.076-87.511 36.076ZM622-338q12.435-12.435 30.63-12.435 18.196 0 30.631 12.435l28 28.239q12.196 12.196 12.196 30.391 0 18.196-12.435 30.631-12.196 12.196-30.392 12.196-18.195 0-30.391-12.196l-28.239-28q-12.196-12.196-12.196-30.631 0-18.434 12.196-30.63Zm-284 0q12.435 12.435 12.435 30.63 0 18.196-12.435 30.631l-28.239 28q-12.196 12.196-30.391 12.196-18.196 0-30.631-12.435-12.196-12.196-12.196-30.392 0-18.195 12.196-30.391l28-28.239q12.196-12.196 30.631-12.196 18.434 0 30.63 12.196Zm142 58q18.435 0 31.011 12.576t12.576 31.011v160.24q0 18.434-12.576 31.01T480-32.587q-18.435 0-31.011-12.576t-12.576-31.01v-160.24q0-18.435 12.576-31.011T480-280Z"/></svg>