<svg xmlns="http://www.w3.org/2000/svg" height="24" viewBox="0 -960 960 960" width="24"><path d="M162.87-151.869q-37.783 0-64.392-26.609Q71.87-205.087 71.87-242.87v-474.26q0-37.783 26.61-64.392 26.608-26.609 64.391-26.609h195.999q18.211 0 34.714 6.837 16.504 6.837 29.178 19.511L480-724.544h317.13q37.783 0 64.392 26.609 26.609 26.609 26.609 64.392v390.673q0 37.783-26.609 64.392-26.609 26.609-64.392 26.609H162.87Zm0-91.001h634.26v-390.673H442.456l-83.587-83.587H162.87v474.26Zm0 0v-474.26 474.26Zm414.26-40.239h80q25 0 42.5-17.5t17.5-42.5v-150.434h10q13 0 21.5-8.5t8.5-21.5q0-13-8.5-21.5t-21.5-8.5h-70v-17.37q0-9.196-6.861-15.913-6.86-6.717-16.008-6.717h-34.5q-9.196 0-15.913 6.717-6.718 6.717-6.718 15.913v17.37h-70q-13 0-21.5 8.5t-8.5 21.5q0 13 8.5 21.5t21.5 8.5h10v150.434q0 25 17.5 42.5t42.5 17.5Zm0-210.434h80v150.434h-80v-150.434Z"/></svg>