<svg xmlns="http://www.w3.org/2000/svg" height="24" viewBox="0 -960 960 960" width="24"><path d="m329.63-366.978 108.74-292.826q3.239-9.718 11.717-15.196 8.478-5.478 18.435-5.478h22.956q9.957 0 18.435 5.478 8.478 5.478 11.717 15.196l109.218 295.108q5.478 15.435-3.478 28.511-8.957 13.076-25.392 13.076-10.196 0-19.033-6.217-8.836-6.218-12.076-16.413l-22.369-66.5H412.783l-22.609 67.978q-3.239 9.717-11.717 15.435-8.479 5.717-18.435 5.717-17.196 0-26.533-13.837t-3.859-30.032Zm100.674-100.131h99.392L482-610.174h-4l-47.696 143.065ZM32.587-78.087v-160q0-19.152 13.174-32.326t32.326-13.174h34.5v-392.826h-34.5q-19.152 0-32.326-13.174t-13.174-32.326v-160q0-19.152 13.174-32.326t32.326-13.174h160q19.152 0 32.326 13.174t13.174 32.326v34.5h392.826v-34.5q0-19.152 13.174-32.326t32.326-13.174h160q19.152 0 32.326 13.174t13.174 32.326v160q0 19.152-13.174 32.326t-32.326 13.174h-34.5v392.826h34.5q19.152 0 32.326 13.174t13.174 32.326v160q0 19.152-13.174 32.326t-32.326 13.174h-160q-19.152 0-32.326-13.174t-13.174-32.326v-34.5H283.587v34.5q0 19.152-13.174 32.326t-32.326 13.174h-160q-19.152 0-32.326-13.174T32.587-78.087Zm251-125.5h392.826v-34.5q0-19.152 13.174-32.326t32.326-13.174h34.5v-392.826h-34.5q-19.152 0-32.326-13.174t-13.174-32.326v-34.5H283.587v34.5q0 19.152-13.174 32.326t-32.326 13.174h-34.5v392.826h34.5q19.152 0 32.326 13.174t13.174 32.326v34.5Z"/></svg>