<svg xmlns="http://www.w3.org/2000/svg" height="24" viewBox="0 -960 960 960" width="24"><path d="M240-273.065q-19.152 0-32.326-13.174T194.5-318.565v-322.631q0-19.152 13.174-32.326T240-686.696q19.152 0 32.326 13.174t13.174 32.326V-525.5h149v-115.696q0-19.152 13.174-32.326T480-686.696q19.152 0 32.326 13.174t13.174 32.326v322.631q0 19.152-13.174 32.326T480-273.065q-19.152 0-32.326-13.174T434.5-318.565V-434.5h-149v115.935q0 19.152-13.174 32.326T240-273.065Zm491 0q-19.152 0-32.326-13.174T685.5-318.565v-277.131H651q-19.152 0-32.326-13.174-13.174-13.173-13.174-32.326 0-19.152 13.174-32.326T651-686.696h80q19.152 0 32.326 13.174t13.174 32.326v322.631q0 19.152-13.174 32.326T731-273.065Z"/></svg>