<svg xmlns="http://www.w3.org/2000/svg" height="24" viewBox="0 -960 960 960" width="24"><path d="M765.087-151.869h-121.5q-17.957 0-30.174-12.218-12.217-12.217-12.217-30.174 0-17.956 12.217-30.174 12.217-12.217 30.174-12.217h121.5l-31.935-31.935q-12.478-12.478-12.098-29.674.381-17.195 12.859-29.674 12.478-11.717 29.674-12.098 17.196-.38 29.674 12.098L894.87-226.326q13.674 13.674 13.674 32.065 0 18.392-13.674 32.066L793.261-60.587q-11.717 11.718-29.174 12.098-17.457.38-30.174-12.337-11.717-11.717-11.717-29.435 0-17.717 11.717-29.435l31.174-32.173Zm-602.217 0q-37.783 0-64.392-26.609Q71.87-205.087 71.87-242.87v-474.26q0-37.783 26.61-64.392 26.608-26.609 64.391-26.609h634.26q37.783 0 64.392 26.609 26.609 26.609 26.609 64.392v319.652q-27.957-16.957-59.413-25.554-31.457-8.598-64.414-8.598-101.195 0-172.152 70.717Q521.196-290.195 521.196-189v37.131H162.87ZM480-517.13 219.652-681.543q-18.434-11.957-37.608-1.239-19.174 10.717-19.174 32.63 0 9.717 4.358 17.815 4.359 8.098 12.837 13.576l275.826 173.892q11.435 7.195 24.109 7.195 12.674 0 24.109-7.195l275.826-173.892q8.478-5.478 12.837-13.576 4.358-8.098 4.358-17.815 0-21.913-19.174-32.63-19.174-10.718-37.608 1.239L480-517.13Z"/></svg>