<svg xmlns="http://www.w3.org/2000/svg" height="24" viewBox="0 -960 960 960" width="24"><path d="M364.544-280q-36.587 0-62.001-25.413-25.413-25.413-25.413-62v-225.174q0-36.587 25.413-62Q327.957-680 364.544-680h234.499q18.525 0 31.056 12.531 12.531 12.532 12.531 31.056 0 18.435-12.531 31.131-12.531 12.695-31.056 12.695H364.544v225.174h190.912v-69.239H517.37q-17.814 0-29.864-12.05t-12.05-29.863q0-17.813 12.05-29.863t29.864-12.05h81.673q18.525 0 31.056 12.531 12.531 12.531 12.531 31.056v109.478q0 36.587-25.293 62Q592.043-280 555.456-280H364.544Z"/></svg>