<svg xmlns="http://www.w3.org/2000/svg" height="24" viewBox="0 -960 960 960" width="24"><path d="M186.87-563.348h586.021L762.37-717.13H197.152h.239L186.87-563.348ZM168.63-282.87h622.5l-12.521-189.478H181.152L168.63-282.87Zm30.413 131.001-12.521-40h-19.565q-39.287 0-65.666-28.109-26.378-28.109-23.9-67.174l29.239-436.891q2.233-35.878 27.915-59.983 25.681-24.105 61.412-24.105h567.847q35.731 0 61.412 24.105 25.681 24.105 27.915 59.983l29.239 436.891q2.478 39.304-23.969 67.293-26.447 27.99-65.836 27.99h-19.671l-12.177 40H199.043Z"/></svg>