<svg xmlns="http://www.w3.org/2000/svg" height="24" viewBox="0 -960 960 960" width="24"><path d="M349-345.413H123.587q-19.87 0-33.522-13.772-13.652-13.771-13.652-33.641 0-19.87 13.772-33.522Q103.957-440 123.826-440H349v-80H121.913q-19.152 0-32.326-13.174T76.413-565.5q0-19.152 13.174-32.326T121.913-611H349v-227.087q0-19.152 13.174-32.326t32.326-13.174q19.152 0 32.326 13.174T440-838.087V-611h80v-227.087q0-19.152 13.174-32.326t32.326-13.174q19.152 0 32.326 13.174T611-838.087V-611h227.087q19.152 0 32.326 13.174t13.174 32.326q0 19.152-13.174 32.326T838.087-520H611v80h225.413q19.87 0 33.522 13.772 13.652 13.772 13.652 33.641 0 19.87-13.652 33.522-13.652 13.652-33.522 13.652H611v227.326q0 19.152-13.174 32.326T565.5-72.587q-19.152 0-32.326-13.174T520-118.087v-227.326h-80v227.326q0 19.152-13.174 32.326T394.5-72.587q-19.152 0-32.326-13.174T349-118.087v-227.326ZM440-440h80v-80h-80v80Z"/></svg>