<svg xmlns="http://www.w3.org/2000/svg" height="24" viewBox="0 -960 960 960" width="24"><path d="m796.689-45.252-66.819-66.617h-74v-74l-80-80v154H384.13V-304.37h153.24l-80.083-80.081h-73.075v-74.076l-80.082-80.082v154.239H111.869v-191.26h155.24l-80-80h-75.24v-75.24l-66.391-66.391q-11.717-11.717-12.098-28.815-.38-17.098 12.098-29.576 11.717-11.718 29.315-11.718t29.316 11.718L856.131-103.63q12.478 12.478 12.097 29.195-.38 16.718-12.858 29.196-12.479 11.717-29.315 12.098-16.837.38-29.366-12.11ZM202.87-111.869q-37.783 0-64.392-26.609-26.609-26.609-26.609-64.392v-101.5H304.13v192.501H202.87Zm645.261-115.283-77.218-77.218h77.218v77.218ZM690.674-384.37l-34.804-34.804V-575.63h192.261v191.26H690.674ZM575.87-499.413l-76.457-76.217h76.457v76.217ZM419.652-655.63l-35.522-35.283v-157.218h191.74v192.501H419.652Zm236.218 0v-192.501h101.26q37.783 0 64.392 26.609 26.609 26.609 26.609 64.392v101.5H655.87ZM304.13-771.152l-77.217-76.979h77.217v76.979Z"/></svg>