<svg xmlns="http://www.w3.org/2000/svg" height="24" viewBox="0 -960 960 960" width="24"><path d="M196.413-236.413h-38.326q-34.48 0-59.033-24.554Q74.5-285.52 74.5-320v-156.413q0-102.152 71.674-173.826Q217.848-721.913 320-721.913q102.152 0 173.826 71.674Q565.5-578.565 565.5-476.413V-320q0 34.48-24.554 59.033-24.553 24.554-59.033 24.554h-38.326q-19.152 0-32.326-13.174t-13.174-32.326v-109q0-19.152 13.174-32.326t32.326-13.174h54.5v-40q0-74.203-51.959-126.145Q394.17-654.5 319.944-654.5q-74.227 0-126.129 51.942t-51.902 126.145v40h54.5q19.152 0 32.326 13.174t13.174 32.326v109q0 19.152-13.174 32.326t-32.326 13.174Zm525.5-445.5v-17.37q0-9.195 6.861-15.913 6.861-6.717 16.009-6.717h38.087q9.195 0 15.913 6.717 6.717 6.718 6.717 15.913v17.37h38.087q17.813 0 29.863 12.05T885.5-640v361.913q0 17.712-12.05 29.693-12.05 11.981-29.863 11.981h-160q-17.711 0-29.693-11.981-11.981-11.981-11.981-29.693V-640q0-17.813 11.981-29.863 11.982-12.05 29.693-12.05h38.326Z"/></svg>