<svg xmlns="http://www.w3.org/2000/svg" height="24" viewBox="0 -960 960 960" width="24"><path d="M242.87-202.87H354.5V-400q0-19.152 13.174-32.326T400-445.5h160q19.152 0 32.326 13.174T605.5-400v197.13h111.63v-355.695L480-736.413 242.87-558.565v355.695Zm-91.001 0v-355.695q0-21.572 9.576-40.873 9.577-19.301 26.729-31.975l237.13-177.848q24.109-18.391 54.696-18.391 30.587 0 54.696 18.391l237.13 177.848q17.152 12.674 26.729 31.975 9.576 19.301 9.576 40.873v355.695q0 37.783-26.609 64.392-26.609 26.609-64.392 26.609H563.587q-19.152 0-32.326-13.174t-13.174-32.327v-200.717h-76.174v200.717q0 19.153-13.174 32.327t-32.326 13.174H242.87q-37.783 0-64.392-26.609-26.609-26.609-26.609-64.392ZM480-469.761Z"/></svg>