<svg xmlns="http://www.w3.org/2000/svg" height="24" viewBox="0 -960 960 960" width="24"><path d="m793.63-52.935-19.934-18.934H197.37q-19.153 0-32.327-13.174t-13.174-32.327q0-19.152 13.174-32.326t32.327-13.174h34.499V-280q0-60.043 27.185-113.304T335.087-480q-32-22.152-54.022-52.663-22.022-30.511-34.587-66.663L55-790.804Q42.522-803.283 42.641-820.5q.12-17.217 12.598-29.696 12.478-12.478 29.696-12.478 17.217 0 29.695 12.478l738.392 738.631Q865.5-99.087 865.381-82.25q-.12 16.837-12.598 29.315-12.479 12.479-29.576 12.479-17.098 0-29.577-12.479ZM612.522-471.609l-67.174-66.413q42.13-19.239 66.956-57.685Q637.13-634.152 637.13-680v-117.13H322.87v36.869l-36.631-36.869-91-91.001H762.63q19.153 0 32.327 13.174t13.174 32.327q0 19.152-13.174 32.326T762.63-797.13h-34.499V-680q0 64-30.403 119.478-30.402 55.479-85.206 88.913ZM322.87-162.87h314.26v-45.804L420.196-425.37q-44.283 18.522-70.805 57.924Q322.87-328.043 322.87-280v117.13Zm405.261 0Z"/></svg>