<svg xmlns="http://www.w3.org/2000/svg" height="24" viewBox="0 -960 960 960" width="24"><path d="M520-269.152q44-21 88.5-31.5t91.5-10.5q36 0 70.5 6t69.5 18v-396q-33-14-68.5-21t-71.5-7q-47 0-93 12t-87 36v394Zm-39.283 105.131q-14.239 0-27.456-3.5-13.218-3.5-24.457-9.979-38.761-22.76-81.447-34.619-42.686-11.859-87.357-11.859-41.183 0-80.896 11.12-39.713 11.119-76.234 30.641-24.348 12.674-47.316-1.158-22.967-13.831-22.967-40.342v-481.761q0-14.348 6.815-27.026 6.815-12.679 20.446-19.018 47.239-23 97.098-35.021 49.858-12.022 102.311-12.022 58.504 0 114.243 15T480-737.848q51-30.478 106.62-45.598 55.619-15.119 114.123-15.119 52.453 0 102.311 12.022 49.859 12.021 97.098 35.021 13.631 6.339 20.446 19.018 6.815 12.678 6.815 27.026v485.348q0 25.63-22.848 38.228-22.848 12.598-47.435-.315-36.521-19.522-76.234-30.641-39.713-11.12-80.896-11.12-44.522 0-86.685 11.978-42.163 11.979-80.685 34.5-11.239 6.479-24.456 9.979-13.217 3.5-27.457 3.5Z"/></svg>