<svg xmlns="http://www.w3.org/2000/svg" height="24" viewBox="0 -960 960 960" width="24"><path d="M280-40q-13.829 0-22.871-9.042-9.042-9.042-9.042-22.871v-118.282H220q-42.717 0-72.554-29.837-29.837-29.837-29.837-72.555 0-42.717 29.837-72.554 29.837-29.837 72.554-29.837h28.087v-38.087h-84.978q-19.152 0-32.326-13.174t-13.174-32.326v-113.783q0-19.152 13.174-32.326t32.326-13.174h84.978v-38.087H220q-42.717 0-72.554-29.837-29.837-29.837-29.837-72.554t29.837-72.554q29.837-29.837 72.554-29.837h28.087v-7.609q0-13.478 9.11-22.576T280.239-920q13.478 0 22.576 9.098t9.098 22.576v7.609H340q42.717 0 72.554 29.837 29.837 29.837 29.837 72.554t-29.837 72.554Q382.717-675.935 340-675.935h-28.087v38.087h84.978q19.152 0 32.326 13.174t13.174 32.326v113.783q0 19.152-13.174 32.326t-32.326 13.174h-84.978v38.087H340q42.717 0 72.554 29.837 29.837 29.837 29.837 72.554 0 42.718-29.837 72.555-29.837 29.837-72.554 29.837h-28.087v118.282q0 13.829-9.042 22.871Q293.829-40 280-40Zm400 0q-13.829 0-22.871-9.042-9.042-9.042-9.042-22.871v-118.282H620q-42.717 0-72.554-29.837-29.837-29.837-29.837-72.555 0-42.717 29.837-72.554 29.837-29.837 72.554-29.837h28.087v-38.087h-84.978q-19.152 0-32.326-13.174t-13.174-32.326v-113.783q0-19.152 13.174-32.326t32.326-13.174h84.978v-38.087H620q-42.717 0-72.554-29.837-29.837-29.837-29.837-72.554t29.837-72.554q29.837-29.837 72.554-29.837h28.087v-7.609q0-13.478 9.11-22.576T680.239-920q13.478 0 22.576 9.098t9.098 22.576v7.609H740q42.717 0 72.554 29.837 29.837 29.837 29.837 72.554t-29.837 72.554Q782.717-675.935 740-675.935h-28.087v38.087h84.978q19.152 0 32.326 13.174t13.174 32.326v113.783q0 19.152-13.174 32.326t-32.326 13.174h-84.978v38.087H740q42.717 0 72.554 29.837 29.837 29.837 29.837 72.554 0 42.718-29.837 72.555-29.837 29.837-72.554 29.837h-28.087v118.282q0 13.829-9.042 22.871Q693.829-40 680-40ZM220-755.935h120q8.957 0 15.674-6.717 6.717-6.718 6.717-15.674 0-8.957-6.717-15.674-6.717-6.717-15.674-6.717H220q-8.957 0-15.674 6.717-6.717 6.717-6.717 15.674 0 8.956 6.717 15.674 6.717 6.717 15.674 6.717Zm400 0h120q8.957 0 15.674-6.717 6.717-6.718 6.717-15.674 0-8.957-6.717-15.674-6.717-6.717-15.674-6.717H620q-8.957 0-15.674 6.717-6.717 6.717-6.717 15.674 0 8.956 6.717 15.674 6.717 6.717 15.674 6.717Zm-422.391 242.87h164.782v-44.783H197.609v44.783Zm400 0h164.782v-44.783H597.609v44.783ZM220-270.195h120q8.957 0 15.674-6.718 6.717-6.717 6.717-15.674 0-8.956-6.717-15.674-6.717-6.717-15.674-6.717H220q-8.957 0-15.674 6.717-6.717 6.718-6.717 15.674 0 8.957 6.717 15.674 6.717 6.718 15.674 6.718Zm400 0h120q8.957 0 15.674-6.718 6.717-6.717 6.717-15.674 0-8.956-6.717-15.674-6.717-6.717-15.674-6.717H620q-8.957 0-15.674 6.717-6.717 6.718-6.717 15.674 0 8.957 6.717 15.674 6.717 6.718 15.674 6.718Zm-422.391-485.74v-44.782 44.782Zm400 0v-44.782 44.782Zm-400 242.87v-44.783 44.783Zm400 0v-44.783 44.783Zm-400 242.87v-44.783 44.783Zm400 0v-44.783 44.783Z"/></svg>