<svg xmlns="http://www.w3.org/2000/svg" height="24" viewBox="0 -960 960 960" width="24"><path d="M280.032-396.413q-34.467 0-59.043-24.544-24.576-24.545-24.576-59.011 0-34.467 24.544-59.043 24.545-24.576 59.011-24.576 34.467 0 59.043 24.544 24.576 24.545 24.576 59.011 0 34.467-24.544 59.043-24.545 24.576-59.011 24.576ZM280-232.587q-102.87 0-175.141-72.272Q32.587-377.13 32.587-480q0-102.87 72.272-175.141Q177.13-727.413 280-727.413q69.63 0 125.924 34.435 56.294 34.434 88.294 89.391H825.87q9.081 0 17.595 3.478 8.513 3.479 15.231 10.196l78.326 78.087q6.913 6.861 9.793 14.865 2.881 8.004 2.881 16.961 0 8.957-2.881 16.961-2.88 8.004-9.793 14.865L812.413-323.565q-5.692 5.761-13.661 9.217-7.969 3.457-15.866 4.457-7.897 1-15.794-1.359-7.896-2.359-14.853-7.837l-48.652-36.369-53.652 40.369q-5.717 4.478-12.614 6.837-6.897 2.359-13.794 2.359t-14.174-2.239q-7.277-2.24-12.875-6.718l-58.848-41.565h-43.412q-31.761 54.717-88.174 89.272Q349.63-232.587 280-232.587ZM280-320q56.957 0 99.696-34.717 42.739-34.718 56.021-88.87h129.066l56.804 40.043v.381-.381h-.12.12l82-61 70.761 54.522 71.174-69.021h-.381.381l-37.131-37.37q0-.761.12-.38.119.38-.12.38H435.478q-12.565-53.435-55.642-88.511Q336.76-640 280-640q-66 0-113 47t-47 113q0 66 47 113t113 47Z"/></svg>