<svg xmlns="http://www.w3.org/2000/svg" height="24" viewBox="0 -960 960 960" width="24"><path d="m284.913-434.5 106.674 106.674q12.674 12.674 12.674 31.826t-12.674 31.826Q378.913-251.5 359.761-251.5t-31.826-12.674l-184-183.761q-6.718-6.717-9.816-14.913-3.097-8.195-3.097-17.152t3.097-17.152q3.098-8.196 9.816-14.913l184-183.761q12.674-12.674 31.826-12.674t31.826 12.674q12.674 12.674 12.674 31.826t-12.674 31.826L284.913-525.5H802.63q19.153 0 32.327 13.174T848.131-480q0 19.152-13.174 32.326T802.63-434.5H284.913Z"/></svg>