<svg xmlns="http://www.w3.org/2000/svg" height="24" viewBox="0 -960 960 960" width="24"><path d="M761.696-85.848 84.848-761.696Q72.37-774.174 72.87-791.391q.5-17.218 12.978-29.696 12.478-12.478 29.695-12.478 17.218 0 29.696 12.478l675.848 676.848q12.478 12.478 12.478 29.196 0 16.717-12.478 29.195-12.478 12.478-29.696 12.478-17.217 0-29.695-12.478ZM645.326-320l-80-80H360q-17 0-28.5 11.5T320-360q0 17 11.5 28.5T360-320h285.326ZM160-189q-37.783 0-64.391-26.609-26.61-26.608-26.61-64.391v-400q0-37.304 25.892-63.674 25.891-26.37 63.196-27.087h36.239l582 581.761H160Zm80-371q17 0 28.5-11.5T280-600q0-17-11.5-28.5T240-640q-17 0-28.5 11.5T200-600q0 17 11.5 28.5T240-560Zm360 0q17 0 28.5-11.5T640-600q0-17-11.5-28.5T600-640q-17 0-28.5 11.5T560-600q0 17 11.5 28.5T600-560Zm120 0q17 0 28.5-11.5T760-600q0-17-11.5-28.5T720-640q-17 0-28.5 11.5T680-600q0 17 11.5 28.5T720-560ZM240-440q17 0 28.5-11.5T280-480q0-17-11.5-28.5T240-520q-17 0-28.5 11.5T200-480q0 17 11.5 28.5T240-440Zm120 0q17 0 28.5-11.5T400-480q0-17-11.5-28.5T360-520q-17 0-28.5 11.5T320-480q0 17 11.5 28.5T360-440Zm360 0q17 0 28.5-11.5T760-480q0-17-11.5-28.5T720-520q-17 0-28.5 11.5T680-480q0 17 11.5 28.5T720-440Zm145.326 222.978L629.435-453.674q4.522-5 7.543-11.902Q640-472.478 640-480q0-17-11.5-28.5T600-520q-7.522 0-14.424 3.022-6.902 3.021-11.902 7.543l-64.239-64.239q4.522-5 7.543-11.902Q520-592.478 520-600q0-17-11.5-28.5T480-640q-7.283 0-14.304 2.641-7.022 2.642-12.022 7.163L313.109-771H800q37.783 0 64.391 26.609Q891-717.783 891-680v400.761q0 18.674-6.978 34.228-6.978 15.555-18.696 27.989Z"/></svg>