<svg xmlns="http://www.w3.org/2000/svg" height="24" viewBox="0 -960 960 960" width="24"><path d="M442.87-401.196h81.195q17.479 0 29.457-11.978Q565.5-425.152 565.5-442.63q0-17.479-11.978-29.457-11.978-11.978-29.457-11.978H442.87q-17.479 0-29.457 11.978-11.978 11.978-11.978 29.457 0 17.478 11.978 29.456 11.978 11.978 29.457 11.978Zm0-122.869h245.261q17.478 0 29.456-11.979 11.978-11.978 11.978-29.456t-11.978-29.457q-11.978-11.978-29.456-11.978H442.87q-17.479 0-29.457 11.978-11.978 11.979-11.978 29.457t11.978 29.456q11.978 11.979 29.457 11.979Zm0-122.87h245.261q17.478 0 29.456-11.978 11.978-11.978 11.978-29.457 0-17.478-11.978-29.456-11.978-11.979-29.456-11.979H442.87q-17.479 0-29.457 11.979-11.978 11.978-11.978 29.456 0 17.479 11.978 29.457 11.978 11.978 29.457 11.978ZM328.37-237.37q-37.783 0-64.392-26.608-26.608-26.609-26.608-64.392v-474.26q0-37.783 26.608-64.392 26.609-26.609 64.392-26.609h474.26q37.783 0 64.392 26.609 26.609 26.609 26.609 64.392v474.26q0 37.783-26.609 64.392-26.609 26.608-64.392 26.608H328.37Zm-171 171q-37.783 0-64.392-26.608-26.609-26.609-26.609-64.392v-519.76q0-19.153 13.174-32.327 13.174-13.173 32.326-13.173 19.153 0 32.327 13.173 13.174 13.174 13.174 32.327v519.76h519.76q19.153 0 32.327 13.174 13.173 13.174 13.173 32.327 0 19.152-13.173 32.326Q696.283-66.37 677.13-66.37H157.37Z"/></svg>