<svg xmlns="http://www.w3.org/2000/svg" height="24" viewBox="0 -960 960 960" width="24"><path d="M282.826-71.87q-35.065 0-60.674-23.25t-29.326-57.554L124.304-775.5q-5.478-45.5 25.109-79.065Q180-888.131 225.5-888.131h509q45.5 0 76.087 33.566Q841.174-821 835.696-775.5l-68.283 622.826q-3.478 34.304-29.206 57.555-25.729 23.25-60.794 23.25H282.826ZM239.587-560l44.239 397.13h392.587L720.652-560H239.587Zm-10-80h500.826l15.522-157.13h-531.87L229.587-640ZM480-285.261q-12.565 0-21.37-8.804-8.804-8.805-8.804-21.37 0-14.043 7.544-31.75 7.543-17.706 22.63-40.315 15.087 22.609 22.63 40.315 7.544 17.707 7.544 31.75 0 12.565-8.804 21.37-8.805 8.804-21.37 8.804Zm0 83.826q48 0 81-33t33-81q0-43.413-24.87-85.858-24.869-42.446-55.26-79.794-6.479-8.478-15.696-12.337-9.217-3.859-18.174-3.859-8.957 0-18.174 3.859-9.217 3.859-15.696 12.337-30.391 37.348-55.26 79.794Q366-358.848 366-315.435q0 48 33 81t81 33ZM239.587-162.87h481.065H239.587Z"/></svg>