<svg xmlns="http://www.w3.org/2000/svg" height="24" viewBox="0 -960 960 960" width="24"><path d="M149-154.5V-760q0-37.783 26.609-64.391Q202.217-851 240-851h240q37.783 0 64.391 26.609Q571-797.783 571-760v287.413h44.305q33.956 0 57.935 23.859 23.978 23.859 23.978 57.815v180q0 16.289 10.95 27.307 10.95 11.019 27.137 11.019 16.288 0 27.307-11.019 11.019-11.018 11.019-27.307v-301.391q-8.761 4.282-18.402 5.782-9.642 1.5-19.924 1.5-42.703 0-72.189-29.555-29.485-29.554-29.485-72.358 0-31.522 17.021-57.141 17.022-25.62 45.783-37.337l-61.326-61.326q-9.478-9.587-9.478-22.37 0-12.782 9.478-22.261 8.717-8.717 21.815-9.098 13.098-.38 22.576 8.337l120.783 117.544q16.913 16.913 26.924 38.467 10.011 21.555 10.011 45.185v396.022q0 42.804-29.555 72.358Q778.108-109 735.305-109q-42.703 0-72.189-29.555-29.485-29.554-29.485-72.358V-409H571v254.5q0 19.152-13.174 32.326T525.5-109h-331q-19.152 0-32.326-13.174T149-154.5ZM240-560h240v-200H240v200Zm495.305-8.848q16.288 0 27.307-10.95 11.019-10.95 11.019-27.137t-11.018-27.137q-11.017-10.95-27.304-10.95t-27.189 10.95q-10.902 10.95-10.902 27.137t10.95 27.137q10.95 10.95 27.137 10.95ZM240-200h240v-280H240v280Zm240 0H240h240Z"/></svg>