<svg xmlns="http://www.w3.org/2000/svg" height="24" viewBox="0 -960 960 960" width="24"><path d="M480-212.587q53.084 0 95.846-27.185 42.763-27.184 65.719-71.271-16.956-14.893-33.913-31.381-16.956-16.489-33.913-34.206-6.478 34.652-32.424 56.239Q515.37-298.804 480-298.804q-40.326 0-68.011-27.685-27.685-27.685-27.685-68.011 0-39.369 26.99-66.435 26.989-27.065 65.88-29.021-13.196-19.196-24.913-38.772-11.718-19.576-21.957-39.772-57.326 16.435-94.771 64.076-37.446 47.642-37.446 109.924 0 75.797 53.058 128.855Q404.203-212.587 480-212.587ZM162.87-66.369q-37.783 0-64.392-26.609Q71.87-119.587 71.87-157.37v-474.26q0-37.783 26.61-64.392 26.608-26.608 64.391-26.608h118.826l53.587-55.196q11-11.761 26.113-18.283 15.114-6.521 31.691-6.521H404.5q-5.718 20.673-8.457 42.477-2.739 21.803-2.739 44.697 0 2.63.12 5.141.119 2.511.598 5.141h-3.805l-69.652 73.544H162.87v474.26h634.26v-152.086q22.87-20.417 45.74-42.535 22.869-22.118 45.261-45.465v240.086q0 37.783-26.609 64.392-26.609 26.609-64.392 26.609H162.87ZM480-394.5Zm240.014-569.087q-97.644 0-172.177 68.174-74.533 68.174-74.533 184.522 0 99.674 74.337 186.467 74.337 86.794 141.533 148.989 6.717 5.718 14.413 8.577Q711.283-364 720.12-364q8.837 0 16.793-2.858 7.957-2.859 13.913-8.577 67.196-62.195 141.533-148.989 74.337-86.793 74.337-186.467 0-116.348-74.519-184.522-74.518-68.174-172.163-68.174ZM720-464.37q-103.761-98-131.522-157.88-27.761-59.88-27.761-88.754 0-80.648 50.381-123.029 50.38-42.38 109.022-42.38 58.641 0 108.902 42.378 50.261 42.377 50.261 123.144 0 28.761-27.761 88.641Q823.761-562.37 720-464.37Zm0-188.043-45.652 34.609q-6.718 5.478-13.554.38-6.837-5.098-4.598-13.054L674-687.413l-48.891-38.609q-5.957-5.478-3.108-12.934 2.849-7.457 10.825-7.457h58.156l17.822-55.935q2.479-7.956 11.196-7.956 8.717 0 11.196 7.956l17.822 55.935h58.156q7.976 0 10.825 7.457 2.849 7.456-3.108 12.934L766-687.413l17.804 56.935q2.239 7.956-4.598 13.054-6.836 5.098-13.554-.38L720-652.413Zm0-18.478Z"/></svg>