<svg xmlns="http://www.w3.org/2000/svg" height="24" viewBox="0 -960 960 960" width="24"><path d="M476.413-596.413v274.739q0 17.717 12.098 29.696Q500.609-280 518.326-280t29.696-12.098Q560-304.196 560-321.913V-634.5q0-19.152-13.174-32.326T514.5-680h-76.413q-17.717 0-29.696 11.978-11.978 11.979-11.978 29.696 0 17.717 12.098 29.815 12.098 12.098 29.815 12.098h38.087ZM202.87-111.869q-37.783 0-64.392-26.609-26.609-26.609-26.609-64.392v-554.26q0-37.783 26.609-64.392 26.609-26.609 64.392-26.609h554.26q37.783 0 64.392 26.609 26.609 26.609 26.609 64.392v554.26q0 37.783-26.609 64.392-26.609 26.609-64.392 26.609H202.87Z"/></svg>