<svg xmlns="http://www.w3.org/2000/svg" height="24" viewBox="0 -960 960 960" width="24"><path d="M162.87-151.869q-37.783 0-64.392-26.609Q71.87-205.087 71.87-242.87v-474.26q0-37.783 26.61-64.392 26.608-26.609 64.391-26.609h634.26q37.783 0 64.392 26.609 26.609 26.609 26.609 64.392v474.26q0 37.783-26.609 64.392-26.609 26.609-64.392 26.609H162.87ZM281.435-520q32.522 0 55.543-23.022Q360-566.043 360-598.565t-23.022-55.544q-23.021-23.021-55.543-23.021t-55.544 23.021q-23.021 23.022-23.021 55.544t23.021 55.543Q248.913-520 281.435-520Z"/></svg>