<svg xmlns="http://www.w3.org/2000/svg" height="24" viewBox="0 -960 960 960" width="24"><path d="M280-312.587v34.5q0 18.435 12.696 31.011 12.695 12.576 31.13 12.576t31.011-12.696q12.576-12.695 12.576-31.13v-34.261h34.5q18.435 0 31.011-12.695 12.576-12.696 12.576-31.131 0-18.435-12.576-31.011T401.913-400h-34.5v-34.5q0-18.435-12.576-31.011t-31.011-12.576q-18.435 0-31.13 12.576Q280-452.935 280-434.5v34.5h-34.5q-18.435 0-31.011 12.576t-12.576 31.011q0 18.435 12.696 31.131 12.695 12.695 31.13 12.695H280Zm272.152-63.109h171.152q14.913 0 24.848-10.054 9.935-10.054 9.935-24.967 0-14.913-9.935-24.848-9.935-9.935-24.848-9.935H551.913q-14.913 0-24.848 9.935-9.935 9.935-9.935 24.848 0 14.913 10.055 24.967 10.054 10.054 24.967 10.054Zm-.239 124.783h91.391q14.913 0 24.848-9.935 9.935-9.934 9.935-24.848 0-14.913-9.935-24.847-9.935-9.935-24.848-9.935h-91.391q-14.913 0-24.848 9.935-9.935 9.934-9.935 24.847 0 14.914 9.935 24.848 9.935 9.935 24.848 9.935ZM162.87-71.869q-37.783 0-64.392-26.61Q71.87-125.086 71.87-162.87v-434.26q0-37.783 26.61-64.392 26.608-26.609 64.391-26.609h188.999v-114.26q0-36.348 24.696-61.044 24.696-24.696 61.044-24.696h84.782q36.348 0 61.044 24.696 24.696 24.696 24.696 61.044v114.26H797.13q37.783 0 64.392 26.609 26.609 26.609 26.609 64.392v434.26q0 37.783-26.609 64.392Q834.913-71.87 797.13-71.87H162.87Zm0-91.001h634.26v-434.26H607.652q-1.195 33.478-26.489 56.739-25.293 23.261-58.772 23.261h-84.782q-33.479 0-58.772-23.261-25.294-23.261-26.489-56.739H162.87v434.26Zm277.608-442.869h79.044v-193.783h-79.044v193.783ZM480-380Z"/></svg>