<svg xmlns="http://www.w3.org/2000/svg" height="24" viewBox="0 -960 960 960" width="24"><path d="M379.283-699.5 208.5-870.283q14-11 31.359-15.859Q257.217-891 276.413-891q51.674 0 87.63 35.576Q400-819.848 400-767.413q0 18.956-5.859 36.054-5.858 17.098-14.858 31.859Zm428.13 428.13L720-358.783v-368.63q0-31.565-22.424-53.87-22.424-22.304-53.989-22.304-31.565 0-53.869 22.304-22.305 22.305-22.305 53.87v216.043L480-598.783v-128.63q0-69.435 47.957-116.511Q575.913-891 643.587-891q67.674 0 115.75 46.956 48.076 46.957 48.076 116.631v456.043ZM790.804-52.174 567.413-275.565v39.152q0 69.109-49.152 118.261T400-69q-69.109 0-118.261-49.152t-49.152-118.261h-5.674q-17.913 0-30.468-11.815-12.554-11.815-14.793-28.968L149.174-593.37q-2.24-20.391 11.195-35.304 13.435-14.913 34.066-14.913h3.195L52.174-790.804q-11.718-11.718-12.098-28.816-.38-17.097 12.098-29.576 11.717-11.717 29.315-11.717t29.315 11.717l738.631 738.631q11.717 11.717 11.598 29.195-.12 17.479-11.837 29.196Q837.478-40.456 820-40.456t-29.196-11.718ZM400-156.413q33 0 56.5-23.5t23.5-56.5v-126.565l-91.304-91.304-17.522 177.086q-2.239 17.153-14.793 28.968-12.555 11.815-30.468 11.815H320q0 33 23.5 56.5t56.5 23.5Z"/></svg>