<svg xmlns="http://www.w3.org/2000/svg" height="24" viewBox="0 -960 960 960" width="24"><path d="M342.739-741.805q-12.674 12.674-31.826 12.674t-31.826-12.674l-55.631-55.391q-12.674-12.674-12.674-31.826t12.674-31.946q12.674-12.793 31.827-12.793 19.152 0 32.065 12.913l55.391 55.391q12.674 12.674 12.794 31.707.119 19.032-12.794 31.945Zm274.522 0q-12.674-12.674-12.674-31.826t12.674-31.826l55.63-55.63q12.674-12.674 31.826-12.674 19.153 0 31.827 12.913 12.674 12.913 12.793 31.946.12 19.032-12.793 31.706l-55.631 55.391q-12.674 12.674-31.826 12.674t-31.826-12.674ZM480-773.631q-19.152 0-32.326-13.174T434.5-819.131V-922.63q0-19.153 13.174-32.327T480-968.131q19.152 0 32.326 13.174T525.5-922.63v103.499q0 19.152-13.174 32.326T480-773.631Zm-368.131 716.5v-289.347q0-7.957 1.12-15.674 1.12-7.718 3.598-14.674l74.282-210.848q9.435-27.348 32.946-44.261 23.511-16.913 53.098-16.913h406.174q29.587 0 53.098 16.913t32.946 44.261l74.282 210.848q2.478 6.956 3.598 14.674 1.12 7.717 1.12 15.674v289.587q0 26.793-18.756 45.549Q810.62 7.413 783.826 7.413q-26.674 0-45.609-18.935-18.934-18.934-18.934-45.608v-15.457H240.717v15.696q0 26.793-18.755 45.549-18.756 18.755-45.549 18.755-26.674 0-45.609-18.935-18.935-18.934-18.935-45.608Zm123.479-383.586h489.304l-40.804-117.131H276.152l-40.804 117.131Zm66.087 238.565q25 0 42.5-17.5t17.5-42.5q0-25-17.5-42.5t-42.5-17.5q-25 0-42.5 17.5t-17.5 42.5q0 25 17.5 42.5t42.5 17.5Zm357.13 0q25 0 42.5-17.5t17.5-42.5q0-25-17.5-42.5t-42.5-17.5q-25 0-42.5 17.5t-17.5 42.5q0 25 17.5 42.5t42.5 17.5ZM202.87-163.587h554.26v-197.13H202.87v197.13Zm0 0v-197.13 197.13Z"/></svg>