<svg xmlns="http://www.w3.org/2000/svg" height="24" viewBox="0 -960 960 960" width="24"><path d="M480-477.13q50 0 85-35t35-85q0-50-35-85t-85-35q-50 0-85 35t-35 85q0 50 35 85t85 35Zm-60-100q-8 0-14-6t-6-14q0-8 6-14t14-6q8 0 14 6t6 14q0 8-6 14t-14 6Zm60 0q-8 0-14-6t-6-14q0-8 6-14t14-6q8 0 14 6t6 14q0 8-6 14t-14 6Zm60 0q-8 0-14-6t-6-14q0-8 6-14t14-6q8 0 14 6t6 14q0 8-6 14t-14 6ZM202.87-111.869q-37.783 0-64.392-26.609-26.609-26.609-26.609-64.392v-554.26q0-37.783 26.609-64.392 26.609-26.609 64.392-26.609h554.26q37.783 0 64.392 26.609 26.609 26.609 26.609 64.392v554.26q0 37.783-26.609 64.392-26.609 26.609-64.392 26.609H202.87Zm0-91.001h554.26v-554.26H202.87v554.26Zm0-554.26v554.26-554.26Z"/></svg>