<svg xmlns="http://www.w3.org/2000/svg" height="24" viewBox="0 -960 960 960" width="24"><path d="M640-154.5q-19.152 0-32.326-13.174T594.5-200q0-19.152 13.174-32.326T640-245.5h240q19.152 0 32.326 13.174T925.5-200q0 19.152-13.174 32.326T880-154.5H640ZM480-477.13q50 0 85-35t35-85q0-50-35-85t-85-35q-50 0-85 35t-35 85q0 50 35 85t85 35Zm-60-100q-8 0-14-6t-6-14q0-8 6-14t14-6q8 0 14 6t6 14q0 8-6 14t-14 6Zm60 0q-8 0-14-6t-6-14q0-8 6-14t14-6q8 0 14 6t6 14q0 8-6 14t-14 6Zm60 0q-8 0-14-6t-6-14q0-8 6-14t14-6q8 0 14 6t6 14q0 8-6 14t-14 6ZM202.87-111.869q-37.783 0-64.392-26.609-26.609-26.609-26.609-64.392v-554.26q0-37.783 26.609-64.392 26.609-26.609 64.392-26.609h554.26q37.783 0 64.392 26.609 26.609 26.609 26.609 64.392v328.5q-21.435-8.674-43.587-12.772Q782.391-445.5 760-445.5q-102.152 0-173.826 71.674Q514.5-302.152 514.5-200q0 22.391 4.098 44.544 4.098 22.152 12.772 43.587h-328.5Z"/></svg>