<svg xmlns="http://www.w3.org/2000/svg" height="24" viewBox="0 -960 960 960" width="24"><path d="M767.913-234.261H656.457q-19.153 0-32.327-13.174-13.173-13.174-13.173-32.326t13.173-32.326q13.174-13.174 32.327-13.174h111.456l-27.391-27.391q-12.435-12.435-12.316-30.848.12-18.413 14.116-32.409 12.83-12.83 31.863-12.83t31.946 12.913l103.76 104q13.674 13.761 13.674 32.109 0 18.347-13.674 32.021l-104 104q-12.913 12.914-31.684 13.055-18.772.141-32.924-14.011-12.435-12.435-12.435-31.109t12.435-31.109l26.63-27.391ZM400-362.391q56 0 101-27.5t71-72.5q-35-29-79-44.5t-93-15.5q-49 0-93 15.5t-79 44.5q26 45 71 72.5t101 27.5Zm0-200q33 0 56.5-23.5t23.5-56.5q0-33-23.5-56.5t-56.5-23.5q-33 0-56.5 23.5t-23.5 56.5q0 33 23.5 56.5t56.5 23.5Zm0 67.478Zm-.057 394.609q-14.9 0-29.758-5.239-14.858-5.239-26.533-15.718-66.435-60.717-117.391-117.956-50.957-57.239-85.055-111.218-34.097-53.978-51.717-104.554-17.62-50.576-17.62-97.968 0-153.28 98.952-244.227T400-888.131q130.227 0 229.179 90.947t98.952 244.227q0 7.54-.381 15.498-.38 7.959-1.902 16.046h-91.761q1.522-8.087 2.283-16.046.76-7.958.76-15.498 0-107.318-68.671-175.746-68.672-68.427-168.467-68.427-99.796 0-168.459 68.427-68.663 68.428-68.663 175.746 0 73.392 58.402 161.783Q279.674-302.783 400-192.457q21.087-18.565 39.152-36.771 18.065-18.207 34.87-35.772l10.195 10.196q10.196 10.195 22.131 22.25 11.935 12.054 21.75 22.25l9.815 10.195q-23.239 24-46.239 46.261-23 22.261-35.326 32.587-11.707 10.479-26.606 15.718-14.9 5.239-29.799 5.239Z"/></svg>