<svg xmlns="http://www.w3.org/2000/svg" height="24" viewBox="0 -960 960 960" width="24"><path d="M170.913-527.652q-27.435 0-45.631-18.196-18.195-18.196-18.195-45.631 0-27.434 18.195-45.51 18.196-18.077 45.631-18.077t45.511 18.017q18.076 18.016 18.076 45.57 0 27.435-18.016 45.631-18.017 18.196-45.571 18.196ZM234.5-160h326.696v-202.152h-64.5q-74.396 0-126.263-51.868-51.868-51.867-51.868-126.263 0-54.435 28.5-97.25t74.457-64.25q12.435-66.435 63.728-111.533 51.294-45.097 121.446-45.097t121.326 45.097q51.174 45.098 63.609 111.533 45.956 21.435 74.456 64.25t28.5 97.25q0 74.396-51.798 126.263-51.797 51.868-126.093 51.868h-64.5V-160h154.5q19.152 0 32.326 13.174t13.174 32.326q0 19.152-13.174 32.326T806.696-69H152.587q-19.152 0-32.326-13.174T107.087-114.5v-166.935q-13.153-8.369-27.413-16.543-14.261-8.174-14.261-25.131v-117.369q0-19.152 13.174-32.326t32.326-13.174h120q19.152 0 32.326 13.174t13.174 32.326v117.13q0 16.957-14.38 25.25-14.381 8.294-27.533 16.663V-160Zm262.196-293.152h220q36.565 0 61.728-25.283 25.163-25.283 25.163-61.848 0-26.761-15.337-48.163-15.337-21.402-40.337-32.402l-39.908-17.375-5.701-42.473q-5.76-37.717-32.423-62.217-26.663-24.5-63.185-24.5-36.522 0-63.305 24.739-26.782 24.739-32.543 62.456l-5.761 42.087-40.565 17.044q-25.239 10.522-40.098 32.299-14.859 21.778-14.859 48.505 0 36.565 25.283 61.848t61.848 25.283Zm110-157.131Z"/></svg>