<svg xmlns="http://www.w3.org/2000/svg" height="24" viewBox="0 -960 960 960" width="24"><path d="M314.5-268.521q-102.292 0-173.896-72.153Q69-412.826 69-515.456v-87.414q0-103.108 71.315-175.858 71.315-72.751 174.185-72.751 52.292 0 88.896 37.093Q440-777.294 440-724.304q0 52.291-36.604 88.895-36.604 36.605-88.896 36.605h-32.109q-19.152 0-32.326-13.174t-13.174-32.326q0-19.153 13.174-32.327t32.326-13.174h31.391q14.968 0 25.093-10.304T349-725.261q0-14.848-10.125-25.033-10.125-10.184-25.093-10.184-64.086 0-108.934 46.521Q160-667.435 160-602.87v87.653q0 64.087 44.967 109.891 44.968 45.804 108.815 45.804 14.968 0 25.093-10.304T349-394.978q0-14.848-10.125-25.033-10.125-10.184-25.093-10.184h-31.391q-19.152 0-32.326-13.174t-13.174-32.327q0-19.152 13.174-32.326t32.326-13.174H314.5q52.092 0 88.557 36.555 36.465 36.554 36.943 88.945v240q0 19.153-13.174 32.327T394.5-110.195q-19.152 0-32.326-13.174T349-155.696v-118.391q-8.805 3.283-16.87 4.424-8.065 1.142-17.63 1.142Zm331 0q-9.565 0-17.63-1.142-8.065-1.141-16.87-4.424v118.391q0 19.153-13.174 32.327T565.5-110.195q-19.152 0-32.326-13.174T520-155.696v-240q.478-52.391 36.943-88.945 36.465-36.555 88.557-36.555h32.109q19.152 0 32.326 13.174t13.174 32.326q0 19.153-13.174 32.327t-32.326 13.174h-31.391q-14.968 0-25.093 10.052Q611-410.09 611-395.23t10.125 25.165q10.125 10.304 25.093 10.304 63.847 0 108.815-45.665Q800-451.092 800-515.217v-87.653q0-64.565-44.848-111.087-44.848-46.521-108.934-46.521-14.968 0-25.093 10.125T611-725.261q0 14.848 10.125 25.152t25.093 10.304h31.391q19.152 0 32.326 13.174t13.174 32.327q0 19.152-13.174 32.326t-32.326 13.174H645.5q-52.292 0-88.896-36.605Q520-672.013 520-724.304q0-52.99 36.604-90.082 36.604-37.093 88.896-37.093 102.87 0 174.185 72.751Q891-705.978 891-602.87v87.414q0 102.63-71.604 174.782-71.604 72.153-173.896 72.153ZM160-521.196v-77.608 77.608Zm640-77.608v83.587-83.587Z"/></svg>