<svg xmlns="http://www.w3.org/2000/svg" height="24" viewBox="0 -960 960 960" width="24"><path d="M182.087-561.435h595.826l-11.478-162.869H193.326l-11.239 162.869Zm-18 285.022h631.826L782.832-480H177.087l-13 203.587Zm34.478 135.544-15.152-44.544h-19.804q-39.798 0-66.519-28.587-26.72-28.587-24.243-68.13l29.479-447.892q2.478-36.304 28.51-60.793 26.032-24.49 62.251-24.49h573.587q36.219 0 62.251 24.49 26.032 24.489 28.51 60.793l29.478 447.892q2.479 39.782-24.311 68.25-26.79 28.467-66.689 28.467h-19.804l-14.913 44.544H198.565Z"/></svg>