<svg xmlns="http://www.w3.org/2000/svg" height="24" viewBox="0 -960 960 960" width="24"><path d="M596.652-191.869H531q-19.152 0-32.326-13.174T485.5-237.37q0-19.152 13.174-32.326T531-282.87h65.652L736.5-480 596.693-677.13H202.87V-611q0 19.152-13.174 32.326T157.37-565.5q-19.153 0-32.327-13.174T111.869-611v-66.13q0-37.538 26.732-64.269 26.731-26.732 64.269-26.732h393.782q22.391 0 42.163 9.957 19.772 9.956 32.207 28.109l139.565 197.608q16.913 23.971 16.913 52.508 0 28.536-16.913 52.406L671.022-229.935q-12.43 17.913-32.204 27.99-19.775 10.076-42.166 10.076ZM469.804-480ZM194.5-274.5H120q-19.152 0-32.326-13.174T74.5-320q0-19.152 13.174-32.326T120-365.5h74.5V-440q0-19.152 13.174-32.326T240-485.5q19.152 0 32.326 13.174T285.5-440v74.5H360q19.152 0 32.326 13.174T405.5-320q0 19.152-13.174 32.326T360-274.5h-74.5v74.5q0 19.152-13.174 32.326T240-154.5q-19.152 0-32.326-13.174T194.5-200v-74.5Z"/></svg>