<svg xmlns="http://www.w3.org/2000/svg" height="24" viewBox="0 -960 960 960" width="24"><path d="M674.5-634.5H600q-19.152 0-32.326-13.174T554.5-680q0-19.152 13.174-32.326T600-725.5h74.5V-800q0-19.152 13.174-32.326T720-845.5q19.152 0 32.326 13.174T765.5-800v74.5H840q19.152 0 32.326 13.174T885.5-680q0 19.152-13.174 32.326T840-634.5h-74.5v74.5q0 19.152-13.174 32.326T720-514.5q-19.152 0-32.326-13.174T674.5-560v-74.5Zm67.152 331.783q-41.108 88.956-121.924 142.413Q538.913-106.848 440-106.848q-139.261 0-236.207-96.945Q106.848-300.739 106.848-440q0-119.783 75.293-211.848 75.294-92.065 192.12-116.022 14.391-2.717 25.924 2.239 11.532 4.957 17.967 15.152 6.435 10.196 7.913 24.49 1.479 14.293-4.478 30.206-9 22.239-13.62 45.239-4.619 23-4.619 46.24 0 100.956 70.598 171.554T645.5-362.152q10.761 0 20.761-.5t20-2.261q18.717-2.761 31.413 2.196 12.696 4.956 20.174 14.63t8.859 21.326q1.38 11.652-5.055 24.044Z"/></svg>