<svg xmlns="http://www.w3.org/2000/svg" height="24" viewBox="0 -960 960 960" width="24"><path d="m808.131-276.63-91.001-91.24v-189.978H527.152l-91-91h156.435v-73.065q0-47.21-32.348-80.257-32.348-33.047-79.43-33.047-47.082 0-79.097 32.368-32.016 32.369-32.016 80.219v7.326L290-795q23.196-59.565 75.598-95.391Q418-926.218 480.761-926.218q84.596 0 143.711 59.457 59.115 59.457 59.115 144.131v73.782h33.543q37.783 0 64.392 26.609 26.609 26.609 26.609 64.391v281.218ZM242.87-72.587q-37.783 0-64.392-26.609-26.609-26.608-26.609-64.391v-394.261q0-28.826 16.055-51.978 16.054-23.152 39.054-32.152L57.435-791.522q-11.718-11.717-11.837-29.195-.12-17.479 11.598-29.196Q68.913-861.63 86.51-861.63t29.315 11.717l739.348 739.348q11.717 11.717 11.717 29.195 0 17.479-11.717 29.196-11.717 11.718-29.196 11.837-17.478.12-29.195-11.598l-33.761-33.76q-11 5.717-22.392 9.412-11.391 3.696-23.5 3.696H242.87Zm440.5-91-144.131-146.13q-11 11-25.5 17t-31.5 6q-33 0-56.5-23.5t-23.5-56.5q0-17 6-31.5t17-25.5L289.348-557.848H242.87v394.261h440.5Zm-196.892-197.13Zm135.544-102.261Z"/></svg>