<svg xmlns="http://www.w3.org/2000/svg" height="24" viewBox="0 -960 960 960" width="24"><path d="M808.131-274.435 295.043-786.522l75.261-75.261q12.674-12.674 29.207-19.511 16.532-6.837 34.685-6.837H717.13q37.783 0 64.392 26.609 26.609 26.609 26.609 64.392v522.695ZM242.87-71.869q-37.783 0-64.392-26.61-26.609-26.608-26.609-64.391v-442.695q0-18.392 6.957-34.924 6.956-16.533 19.63-29.207l1.957-1.956-128.24-128.239q-12.477-12.479-12.097-29.196.38-16.718 12.859-29.196Q65.413-870 82.25-870.5q16.837-.5 29.315 11.978l747.196 746.957q11.718 11.717 11.718 28.935 0 17.217-11.718 29.695-12.478 12.479-29.576 12.479t-29.576-12.479L602.5-249.805l59.391-58.63 146.24 146v1q0 37.305-26.609 63.435-26.609 26.13-64.392 26.13H242.87Z"/></svg>