<svg xmlns="http://www.w3.org/2000/svg" height="24" viewBox="0 -960 960 960" width="24"><path d="M202.87-111.869q-37.538 0-64.269-26.732-26.732-26.731-26.732-64.269v-554.26q0-37.538 26.732-64.269 26.731-26.732 64.269-26.732h160.108q14.674-36.478 46.37-58.239 31.695-21.761 70.652-21.761t70.652 21.761q31.696 21.761 46.37 58.239H757.13q37.538 0 64.269 26.732 26.732 26.731 26.732 64.269v554.26q0 37.538-26.732 64.269-26.731 26.732-64.269 26.732H202.87ZM480-788.087q13.829 0 22.871-9.042 9.042-9.042 9.042-22.871 0-13.829-9.042-22.871-9.042-9.042-22.871-9.042-13.829 0-22.871 9.042-9.042 9.042-9.042 22.871 0 13.829 9.042 22.871 9.042 9.042 22.871 9.042ZM303.109-280.239h42.739q9.195 0 17.532-3.739t14.294-9.696l227.043-225.043-86-86-225.043 225.043q-6.717 6.683-10.076 15.037-3.359 8.354-3.359 17.55v44.217q0 9.196 6.861 15.913 6.861 6.718 16.009 6.718Zm329.608-266.478 42-44q6-6 6-14t-6-14l-56-56q-6-6-14-6t-14 6l-44 42 86 86Z"/></svg>