<svg xmlns="http://www.w3.org/2000/svg" height="24" viewBox="0 -960 960 960" width="24"><path d="M233.065-74.5q-19.152 0-32.326-13.174T187.565-120v-280q0-19.152 13.174-32.326t32.326-13.174h35.217v-176.109l-74.5-73.739Q167.435-721.696 167.435-760t26.347-64.652l71.174-71.174Q278.63-909.5 297.282-909.5q18.653 0 32.327 13.674t13.674 32.326q0 18.652-13.674 32.326L257.674-760l75.261 74.5q12.674 12.674 19.511 29.587t6.837 35.065V-445.5H394.5q19.152 0 32.326 13.174T440-400v280q0 19.152-13.174 32.326T394.5-74.5H233.065Zm332.435 0q-19.152 0-32.326-13.174T520-120v-280q0-19.152 13.174-32.326T565.5-445.5h35.217v-115.435q-52.239-15.435-86.119-58.391Q480.717-662.283 480.717-720q0-68.391 48.555-116.946Q577.826-885.5 646.218-885.5q68.391 0 116.945 48.554Q811.718-788.391 811.718-720q0 57.717-33.881 100.674-33.88 42.956-86.119 58.391V-445.5h35.217q19.152 0 32.326 13.174T772.435-400v280q0 19.152-13.174 32.326T726.935-74.5H565.5Zm80.718-571q30.847 0 52.673-21.946 21.826-21.945 21.826-52.554 0-30.848-21.826-52.674T646.218-794.5q-30.609 0-52.555 21.826-21.945 21.826-21.945 52.674 0 30.609 21.945 52.554 21.946 21.946 52.555 21.946Z"/></svg>