<svg xmlns="http://www.w3.org/2000/svg" height="24" viewBox="0 -960 960 960" width="24"><path d="m688.13-233.087-15.326-15.565q-9.717-9.718-23.174-9.598-13.456.12-23.174 9.837-9.717 9.717-9.717 22.674 0 12.957 9.717 22.674l37.805 37.804q10.304 10.196 24.043 10.196 13.739 0 23.935-10.196l95.565-93.804q9.718-9.696 9.718-23.163 0-13.468-9.718-23.185-9.717-9.717-23.174-9.598-13.456.12-23.174 9.598l-73.326 72.326Zm-11-363.326q17 0 28.5-11.5t11.5-28.5q0-17-11.5-28.5t-28.5-11.5H282.87q-17 0-28.5 11.5t-11.5 28.5q0 17 11.5 28.5t28.5 11.5h394.26Zm40 561.674q-83 0-141.5-58.5t-58.5-141.5q0-83 58.5-141.5t141.5-58.5q83 0 141.5 58.5t58.5 141.5q0 83-58.5 141.5t-141.5 58.5ZM202.87-847.413h554.26q37.538 0 64.269 26.731 26.732 26.731 26.732 64.269v274.892q-29.913-16.87-63.164-25.044-33.25-8.174-67.597-8.174v-4.544h-434.5q-17 0-28.5 11.5t-11.5 28.5q0 17 11.5 28.5t28.5 11.5h243.521q-17.265 16.359-31.991 35.603-14.726 19.245-26.204 41.528H282.87q-17 0-28.5 11.5t-11.5 28.5q0 17 11.5 28.5t28.5 11.5h158.456q-2.717 11.913-3.696 23.446-.978 11.532-.978 24.684 0 43.674 12.696 83.968 12.695 40.293 37.848 76.01-5.957.762-12.174-1.619-6.218-2.38-10.696-6.859l-29.848-29.847q-6.717-6.718-15.913-6.718-9.195 0-15.913 6.718l-29.609 29.608q-6.717 6.718-15.913 6.718-9.195 0-15.913-6.718l-29.608-29.608q-6.718-6.718-15.913-6.718-9.196 0-15.914 6.718l-29.847 29.608q-6.718 6.718-15.913 6.718-9.196 0-15.913-6.718l-29.37-29.369q-6.913-6.957-16.13-6.957-9.218 0-15.935 6.957l-29.131 29.37q-.478.717-15.674 9v-682.653q0-37.538 26.732-64.269 26.731-26.731 64.269-26.731Z"/></svg>