<svg xmlns="http://www.w3.org/2000/svg" height="24" viewBox="0 -960 960 960" width="24"><path d="m688.13-233.087-15.326-15.565q-9.717-9.718-23.174-9.598-13.456.12-23.174 9.837-9.717 9.717-9.717 22.674 0 12.957 9.717 22.674l37.805 37.804q10.304 10.196 24.043 10.196 13.739 0 23.935-10.196l95.565-93.804q9.718-9.696 9.718-23.163 0-13.468-9.718-23.185-9.717-9.717-23.174-9.598-13.456.12-23.174 9.598l-73.326 72.326ZM282.87-596.413h394.26q17 0 28.5-11.5t11.5-28.5q0-17-11.5-28.5t-28.5-11.5H282.87q-17 0-28.5 11.5t-11.5 28.5q0 17 11.5 28.5t28.5 11.5ZM717.13-34.739q-83 0-141.5-58.5t-58.5-141.5q0-83 58.5-141.5t141.5-58.5q83 0 141.5 58.5t58.5 141.5q0 83-58.5 141.5t-141.5 58.5ZM111.869-73.761v-682.652q0-37.538 26.732-64.269 26.731-26.731 64.269-26.731h554.26q37.538 0 64.269 26.731 26.732 26.731 26.732 64.269v274.892q-20.913-11.631-43.783-19.185-22.87-7.555-47.218-11.033v-244.674H202.87v556.022h236.304q4.282 35.304 16.217 67.13 11.935 31.826 31.805 59.218-5.957.76-12.174-1.62-6.218-2.38-10.696-6.859l-29.848-29.847q-6.717-6.718-15.913-6.718-9.195 0-15.913 6.718l-29.609 29.608q-6.717 6.718-15.913 6.718-9.195 0-15.913-6.718l-29.608-29.608q-6.718-6.718-15.913-6.718-9.196 0-15.914 6.718l-29.847 29.608q-6.718 6.718-15.913 6.718-9.196 0-15.913-6.718l-29.37-29.369q-6.913-6.957-16.13-6.957-9.218 0-15.935 6.957l-29.131 29.37q-.478.717-15.674 9ZM282.87-282.152h158.456q3.717-21.239 10.435-41.239 6.717-20 16.435-38.761H282.87q-17 0-28.5 11.5t-11.5 28.5q0 17 11.5 28.5t28.5 11.5Zm0-157.131h243.521q37.522-35.087 86.493-55.271 48.972-20.185 104.246-20.185-.956-2.391-12.337-3.467-11.38-1.077-27.663-1.077H282.87q-17 0-28.5 11.5t-11.5 28.5q0 17 11.5 28.5t28.5 11.5Zm-80 238.892v-556.022V-200.391Z"/></svg>