<svg xmlns="http://www.w3.org/2000/svg" height="24" viewBox="0 -960 960 960" width="24"><path d="M162.87-151.869q-37.783 0-64.392-26.609Q71.87-205.087 71.87-242.87v-474.26q0-37.783 26.61-64.392 26.608-26.609 64.391-26.609h634.26q37.783 0 64.392 26.609 26.609 26.609 26.609 64.392v474.26q0 37.783-26.609 64.392-26.609 26.609-64.392 26.609H162.87Zm0-91.001h634.26v-474.26H162.87v474.26ZM450-367.652l-71.848-95.892q-6.956-9.195-18.152-9.195-11.196 0-18.152 9.195l-80.239 107.24q-8.718 11.434-2.12 23.869T280-320h400q13.913 0 20.391-12.435 6.479-12.435-2.239-23.869l-110-147.24q-6.956-9.195-18.152-9.195-11.196 0-18.152 9.195L450-367.652ZM162.87-242.87v-474.26 474.26Z"/></svg>