<svg xmlns="http://www.w3.org/2000/svg" height="24" viewBox="0 -960 960 960" width="24"><path d="m731.37-163.978-56-57q-12.674-13.674-12.674-32.446t12.674-31.446q12.673-12.674 31.445-12.674t32.207 12.674l57 56q13.674 13.674 13.674 32.446t-13.674 32.446q-13.674 13.674-32.446 13.674t-32.206-13.674ZM240-154.261q-68.63 0-117.185-48.554Q74.261-251.37 74.261-320q0-68.391 48.674-116.826Q171.609-485.261 240-485.261q49.674 0 91.489 26.717 41.815 26.718 60.772 73.153l8.565 19.413h19.457q44.391 0 74.684 30.793 30.294 30.794 30.294 75.185 0 44.152-30.794 74.946-30.793 30.793-74.945 30.793H240ZM603.783-277.5q-5.674-62.761-47.413-108.402-41.74-45.642-104.261-57.359-31-53.761-83.261-85.261-52.261-31.5-114.544-36.5 26.479-70.369 88.283-111.717T480-718.087q99.283 0 168.685 69.402T718.087-480q0 62.609-30.207 116.435-30.206 53.826-84.097 86.065Zm198.13-157q-19.152 0-32.326-13.174T756.413-480q0-19.152 13.174-32.326t32.326-13.174h80q19.152 0 32.326 13.174T927.413-480q0 19.152-13.174 32.326T881.913-434.5h-80ZM220.978-675.37l-57-57q-12.674-12.673-12.674-31.826 0-19.152 12.674-31.826 13.674-13.674 32.446-13.674t32.206 13.674l56 57q12.674 13.435 12.674 32.207T284.63-675.37q-12.673 12.674-31.826 12.674-19.152 0-31.826-12.674Zm454.392 0q-12.674-12.673-12.674-31.445t12.674-32.207l56-57q13.434-13.674 32.206-13.674 18.772 0 32.446 13.674 12.674 12.674 12.674 31.826 0 19.153-12.674 31.826l-57 57q-12.674 12.674-31.826 12.674-19.153 0-31.826-12.674ZM480-756.413q-19.152 0-32.326-13.174T434.5-801.913v-80q0-19.152 13.174-32.326T480-927.413q19.152 0 32.326 13.174t13.174 32.326v80q0 19.152-13.174 32.326T480-756.413Z"/></svg>