<svg xmlns="http://www.w3.org/2000/svg" height="24" viewBox="0 -960 960 960" width="24"><path d="M413.913-171.5 63.391-533.739q-12.478-12.957-18.597-28.913-6.12-15.957-6.12-32.19 0-18.397 7.478-35.363 7.478-16.965 22.435-30.099 82.957-70.283 193.326-107.022Q372.283-804.065 480-804.065q107.717 0 218.087 36.739 110.369 36.739 193.326 107.022 14.957 13.134 22.435 30.099 7.478 16.966 7.478 35.363 0 16.233-6.12 32.19-6.119 15.956-18.597 28.913L546.087-171.5q-13.674 14.391-31.065 21.587-17.392 7.196-35.022 7.196t-35.022-7.196q-17.391-7.196-31.065-21.587ZM440-399.283q0 17 11.5 28.5t28.5 11.5q17 0 28.5-11.5t11.5-28.5v-120q0-17-11.5-28.5t-28.5-11.5q-17 0-28.5 11.5t-11.5 28.5v120Zm40-198.565q17 0 28.5-11.5t11.5-28.5q0-17-11.5-28.5t-28.5-11.5q-17 0-28.5 11.5t-11.5 28.5q0 17 11.5 28.5t28.5 11.5Z"/></svg>