<svg xmlns="http://www.w3.org/2000/svg" height="24" viewBox="0 -960 960 960" width="24"><path d="M162.87-111.869q-37.783 0-64.392-26.609Q71.87-165.087 71.87-202.87v-474.26q0-37.783 26.61-64.392 26.608-26.609 64.391-26.609h118.826l50.478-52.326q12.435-12.956 29.609-20.315 17.174-7.359 35.608-7.359h165.218q18.434 0 35.608 7.359 17.174 7.359 29.609 20.315l50.478 52.326H797.13q37.783 0 64.392 26.609 26.609 26.609 26.609 64.392v474.26q0 37.783-26.609 64.392-26.609 26.609-64.392 26.609H645.5q-19.152 0-32.326-13.174T600-157.37q0-19.152 13.174-32.326T645.5-202.87h151.63v-474.26H638.717l-75.63-80H397.63l-77.065 80H162.87v474.26H314.5q19.152 0 32.326 13.174T360-157.37q0 19.153-13.174 32.327T314.5-111.869H162.87ZM480-397.37q33 0 56.5-23.5t23.5-56.5v-160q0-33-23.5-56.5t-56.5-23.5q-33 0-56.5 23.5t-23.5 56.5v160q0 33 23.5 56.5t56.5 23.5Zm-317.13 194.5h634.26-634.26ZM480-320q-55 0-97.5-32.043-42.5-32.044-56.5-82.655-5-16.87-17-29.771t-29-12.901q-17 0-28 14t-8 31q14 74 67.5 126.5t128.5 64.5v89.501q0 17 11.5 28.5t28.5 11.5q17 0 28.5-11.5t11.5-28.5v-89.501q75-12 128.5-64.5t67.5-126.5q3-17-8-31t-28-14q-17 0-29 12.901t-17 29.771q-14 50.611-56.5 82.655Q535-320 480-320Z"/></svg>