<svg xmlns="http://www.w3.org/2000/svg" height="24" viewBox="0 -960 960 960" width="24"><path d="M398.174-484.783q-41.022 0-68.37-30.706-27.348-30.707-21.63-71.729l12.043-91.065q8-58.913 53.555-97.489Q419.326-814.348 480-814.348q60.674 0 106.228 38.576 45.555 38.576 53.555 97.489l12.043 91.065q5.718 41.022-21.63 71.729-27.348 30.706-68.37 30.706H398.174ZM151.869-238.804v-29.609q0-36.152 18.696-66.565 18.696-30.413 49.848-46.37 62.717-31.239 127.674-46.978Q413.043-444.065 480-444.065q67.435 0 132.391 15.619 64.957 15.62 127.196 46.859 31.152 15.957 49.848 46.25 18.696 30.294 18.696 66.924v29.609q0 37.782-26.609 64.391-26.609 26.609-64.392 26.609H242.87q-37.783 0-64.392-26.609-26.609-26.609-26.609-64.391Z"/></svg>