<svg xmlns="http://www.w3.org/2000/svg" height="24" viewBox="0 -960 960 960" width="24"><path d="M440.004-484.065q-69.352 0-118.743-49.387-49.392-49.388-49.392-118.74t49.388-118.624q49.387-49.271 118.739-49.271t118.743 49.318q49.392 49.318 49.392 118.573 0 69.354-49.388 118.742-49.387 49.389-118.739 49.389ZM855.761-40.587l-93.543-93.304q-20.761 11.761-44.455 19.283-23.694 7.521-50.35 7.521-77.292 0-131.396-54.104-54.104-54.104-54.104-131.396 0-77.292 54.104-131.396 54.104-54.104 131.396-54.104 77.292 0 131.396 54.104 54.104 54.104 54.104 131.396 0 26.656-7.521 50.35-7.522 23.694-19.283 44.455l93.543 93.543q12.913 12.913 12.913 31.826t-12.913 31.826q-12.913 12.913-31.945 12.913-19.033 0-31.946-12.913Zm-188.405-157.5q39.666 0 67.111-27.388 27.446-27.389 27.446-67.055 0-39.665-27.388-67.111-27.389-27.446-67.055-27.446-39.665 0-67.111 27.389-27.446 27.388-27.446 67.054t27.389 67.111q27.388 27.446 67.054 27.446Zm-217.269-245.5q-47.978 64.152-48.935 147.054-.956 82.903 43.674 148.729H202.87q-37.783 0-64.392-26.609-26.609-26.609-26.609-64.391v-28.609q0-36.209 18.316-67.094 18.315-30.884 50.228-46.841 51.239-26.239 118.946-45.076 67.706-18.837 150.728-17.163Z"/></svg>