<svg xmlns="http://www.w3.org/2000/svg" height="24" viewBox="0 -960 960 960" width="24"><path d="M173.304-478.587q-42.703 0-72.188-29.555Q71.63-537.697 71.63-580.5q0-42.804 29.489-72.358 29.488-29.555 72.195-29.555 42.708 0 72.305 29.555 29.598 29.554 29.598 72.358 0 42.803-29.555 72.358-29.554 29.555-72.358 29.555ZM357.37-641.696q-42.704 0-72.189-29.488-29.485-29.489-29.485-72.196 0-42.707 29.488-72.305 29.488-29.598 72.196-29.598 42.707 0 72.305 29.555 29.598 29.555 29.598 72.358 0 42.703-29.555 72.189-29.555 29.485-72.358 29.485Zm245.25 0q-42.707 0-72.305-29.488-29.598-29.489-29.598-72.196 0-42.707 29.555-72.305 29.555-29.598 72.358-29.598 42.704 0 72.189 29.555 29.485 29.555 29.485 72.358 0 42.703-29.488 72.189-29.488 29.485-72.196 29.485Zm184.066 163.109q-42.708 0-72.305-29.555-29.598-29.555-29.598-72.358 0-42.804 29.555-72.358 29.554-29.555 72.358-29.555 42.703 0 72.188 29.555 29.486 29.554 29.486 72.358 0 42.803-29.489 72.358-29.488 29.555-72.195 29.555ZM263.848-69.978q-46.435 0-77.652-35.337-31.218-35.337-31.218-83.772 0-52.956 36.218-92.315 36.217-39.359 71.217-78.315 28.761-31.957 50.239-68.577 21.478-36.619 50.718-68.858 22.46-26.622 52.067-44.029 29.606-17.406 64.563-17.406t64.554 16.478q29.598 16.479 52.316 42.957 28.283 32.289 50 69.622 21.717 37.334 50.717 69.813 35 38.956 71.217 78.315 36.218 39.359 36.218 92.315 0 48.435-31.218 83.772-31.217 35.337-77.652 35.337-54.717 0-108.076-9.12-53.359-9.12-108.076-9.12-54.717 0-108.076 9.12-53.359 9.12-108.076 9.12Z"/></svg>