<svg xmlns="http://www.w3.org/2000/svg" height="24" viewBox="0 -960 960 960" width="24"><path d="m135.283-133.717-91.761-89.761q-13.913-14.152-14.033-34.696-.12-20.543 14.033-34.456 89.435-94.044 202.641-140.707Q359.37-480 480-480t233.457 46.304q112.826 46.305 203.021 141.066 14.152 13.913 14.152 34.456 0 20.544-14.152 34.696l-91.761 89.761q-11.956 11.956-29.445 12.956-17.49 1-31.642-9.674l-112.891-85.369q-8.957-6.717-13.554-16.033-4.598-9.315-4.598-20.511V-368.5q-36.805-11.522-74.533-17.924-37.728-6.402-78.054-6.402t-78.054 6.402q-37.728 6.402-74.533 17.924v116.152q0 11.196-4.598 20.511-4.597 9.316-13.554 16.033L196.37-130.435q-13.435 10.196-31.283 9.435-17.848-.761-29.804-12.717Zm109.978-467.24q-18.435 0-31.131-12.695-12.695-12.696-12.695-31.131V-802.63q0-19.153 13.174-32.327t32.326-13.174h158.326q18.435 0 31.011 12.576 12.576 12.577 12.576 31.011 0 18.435-12.576 31.011t-31.011 12.576h-55.152l128.565 128.565 188.913-188.912q12.956-12.957 31.011-13.077 18.054-.119 31.011 13.077 12.956 12.956 12.837 31.01-.12 18.055-13.076 31.011L544.087-574q-26.348 26.348-64.652 26.348-38.305 0-64.653-26.348L288.848-699.696v55.152q0 18.435-12.576 31.011t-31.011 12.576Z"/></svg>