<svg xmlns="http://www.w3.org/2000/svg" height="24" viewBox="0 -960 960 960" width="24"><path d="M365.5-405.5h400l-138-180-92 120-62-80-108 140Zm-37.13 168.13q-37.783 0-64.392-26.608-26.608-26.609-26.608-64.392v-474.26q0-37.783 26.608-64.392 26.609-26.609 64.392-26.609h474.26q37.783 0 64.392 26.609 26.609 26.609 26.609 64.392v474.26q0 37.783-26.609 64.392-26.609 26.608-64.392 26.608H328.37Zm0-91h474.26v-474.26H328.37v474.26Zm-171 262q-37.783 0-64.392-26.608-26.609-26.609-26.609-64.392v-565.26h91.001v565.26h565.26v91H157.37Zm171-736.26h474.26v474.26H328.37v-474.26Z"/></svg>