<svg xmlns="http://www.w3.org/2000/svg" height="24" viewBox="0 -960 960 960" width="24"><path d="M162.87-151.63q-37.783 0-64.392-26.609Q71.87-204.848 71.87-242.63v-240.718q0-19.152 13.174-32.326t32.327-13.174q19.152 0 32.326 13.174t13.174 32.326v240.718h634.26v-474.261H478.087q-19.152 0-32.326-13.174t-13.174-32.326q0-19.153 13.174-32.327 13.174-13.173 32.326-13.173H797.13q37.783 0 64.392 26.608 26.609 26.609 26.609 64.392v474.261q0 37.782-26.609 64.391-26.609 26.609-64.392 26.609H162.87Zm400.717-263.239 89.739 89.739q12.957 12.956 30.152 12.956 17.196 0 30.152-12.956 12.957-12.957 12.957-30.653 0-17.695-12.957-30.652l-89.739-89.739h57.305q18.195 0 30.652-12.456 12.456-12.457 12.456-30.653 0-18.195-12.456-30.652-12.457-12.456-30.652-12.456H522.87q-19.153 0-32.327 13.174-13.173 13.174-13.173 32.326v158.326q0 18.195 12.456 30.652 12.457 12.457 30.652 12.457 18.196 0 30.652-12.457 12.457-12.457 12.457-30.652v-56.304ZM117.37-608.848q-19.153 0-32.327-13.174T71.87-654.348V-762.63q0-19.153 13.174-32.327t32.327-13.174h189.717q19.152 0 32.326 13.174t13.174 32.327v108.282q0 19.152-13.174 32.326t-32.326 13.174H117.37ZM480-479.761Z"/></svg>