<svg xmlns="http://www.w3.org/2000/svg" height="24" viewBox="0 -960 960 960" width="24"><path d="M480-76.348q-7.717 0-14.674-1.12-6.956-1.119-13.913-3.358-136.674-45.478-218.109-169.609Q151.869-374.565 151.869-516v-186.848q0-28.587 16.413-51.456 16.414-22.87 42.761-33.066l237.131-88.804q15.674-5.717 31.826-5.717t31.826 5.717l237.131 88.804q26.347 10.196 42.761 33.066 16.413 22.869 16.413 51.456V-516q0 64.196-16.74 124.891-16.739 60.696-48.695 115.174l-123.5-123.5q10.521-18.522 15.663-38.782Q640-458.478 640-480q0-66-47-113t-113-47q-66 0-113 47t-47 113q0 66 47 113t113 47q20.761 0 40.783-5.141 20.021-5.142 37.782-15.663l134.739 133.739q-38 44.283-83.978 76.261-45.978 31.978-100.739 49.978-6.957 2.24-13.913 3.359-6.957 1.12-14.674 1.12Zm0-327.239q-31.565 0-53.989-22.424-22.424-22.424-22.424-53.989 0-31.565 22.424-53.989 22.424-22.424 53.989-22.424 31.565 0 53.989 22.424 22.424 22.424 22.424 53.989 0 31.565-22.424 53.989-22.424 22.424-53.989 22.424Z"/></svg>