<svg xmlns="http://www.w3.org/2000/svg" height="24" viewBox="0 -960 960 960" width="24"><path d="M480-149q-34.565 0-56.283 20Q402-109 346-109t-77.717-20Q246.565-149 212-149q-27.565 0-43.163 13.381-15.598 13.38-48.076 21.38-17.435 4.239-30.891-7.717-13.457-11.957-13.457-30.631 0-18.435 12.957-32.13 12.956-13.696 29.63-22.174 17.717-9 36.717-19.261T212-236.413q56 0 77.837 20 21.837 20 56.163 20 34.565 0 56.283-20 21.717-20 77.717-20t77.717 20q21.718 20 56.283 20t56.283-20q21.717-20 77.717-20 37.283 0 56.283 10.261T841-206.891q16.674 8.478 29.63 22.174 12.957 13.695 12.957 32.13 0 18.674-13.457 30.631-13.456 11.956-30.891 7.717-32.478-8-48.076-21.38Q775.565-149 748-149q-34.565 0-56.283 20Q670-109 614-109t-77.717-20Q514.565-149 480-149Zm0-183.587q-36.326 0-55.902 20t-78.098 20q-58.522 0-78.978-20-20.457-20-55.022-20-27.565 0-43.163 13.381-15.598 13.38-48.076 21.38-17.435 4.239-30.891-7.717-13.457-11.957-13.457-30.631 0-18.435 12.957-32.13Q102.326-382 119-390.478q17.717-9 36.717-19.261T212-420q56 0 78.098 20T346-380q34.565 0 56.283-20Q424-420 480-420t77.957 20q21.956 20 56.043 20 34.565 0 56.283-20Q692-420 748-420q37.283 0 56.283 10.261T841-390.478q16.674 8.478 29.63 22.174 12.957 13.695 12.957 32.13 0 18.674-13.457 30.631-13.456 11.956-30.891 7.717-32.478-8-48.076-21.38-15.598-13.381-43.163-13.381-34.565 0-55.022 20-20.456 20-78.978 20-56.761 0-78.098-20-21.337-20-55.902-20ZM270.022-503.283l133.239-133.239-37.37-37.369q-23.565-23.565-49.348-37.707-25.782-14.141-59.782-19.619-21.435-4.239-36.891-20.435-15.457-16.196-15.457-37.631 0-22.674 16.196-38.13 16.195-15.457 37.869-12.978 55.435 5.717 96.348 24.413 40.913 18.695 78.196 55.978l256.956 256.717q-17.717 11.957-36.108 19.413-18.392 7.457-39.87 7.457-36.478 0-58.076-20t-75.924-20q-54.326 0-75.924 20-21.598 20-58.076 20-21.478 0-39.87-7.457-18.391-7.456-36.108-19.413Zm401.326-344.369q43.674 0 73.63 30.576 29.957 30.576 29.957 73.011 0 43.674-29.957 73.63-29.956 29.957-73.63 29.957-43.674 0-73.75-29.957-30.076-29.956-30.076-73.63 0-42.435 30.076-73.011 30.076-30.576 73.75-30.576Z"/></svg>