<svg xmlns="http://www.w3.org/2000/svg" height="24" viewBox="0 -960 960 960" width="24"><path d="M460-202.87h40v-75.195l137.13-137.131V-597.13H322.87v181.934L460-278.065v75.195Zm-91 45.5v-82.152L258.217-350.304q-12.674-12.674-19.511-29.207-6.837-16.532-6.837-34.685V-597.13q0-37.783 26.609-64.511 26.609-26.729 64.392-26.729h37.847l-45.5 45.261V-802.63q0-19.153 13.174-32.327t32.326-13.174q19.153 0 32.327 13.174t13.174 32.327v114.499h147.564V-802.63q0-19.153 13.174-32.327t32.327-13.174q19.152 0 32.326 13.174t13.174 32.327v159.521l-45.5-45.261h37.847q37.783 0 64.392 26.729 26.609 26.728 26.609 64.511v182.934q0 18.153-6.837 34.685-6.837 16.533-19.511 29.207L591-239.522v82.152q0 19.153-13.174 32.327T545.5-111.869h-131q-19.152 0-32.326-13.174T369-157.37ZM480-400Z"/></svg>