<svg xmlns="http://www.w3.org/2000/svg" height="24" viewBox="0 -960 960 960" width="24"><path d="M480.008-194.5q-107.443 0-187.019-69.098-79.576-69.098-95.011-172.815H109q-18.525 0-31.056-12.531Q65.413-461.476 65.413-480t12.531-31.056Q90.475-523.587 109-523.587h88.978q15.435-103.717 95.003-172.815Q372.55-765.5 479.992-765.5q107.443 0 187.019 69.098 79.576 69.098 95.011 172.815H851q18.525 0 31.056 12.531 12.531 12.532 12.531 31.056t-12.531 31.056Q869.525-436.413 851-436.413h-88.978q-15.435 103.717-95.003 172.815Q587.45-194.5 480.008-194.5ZM400.957-340h158.086q17.102 0 28.671-11.569 11.569-11.569 11.569-28.67V-499.82q0-16.941-11.569-28.68t-28.671-11.739v-33.37q0-34.282-22.756-58.543-22.757-24.261-56.397-24.261-32.651 0-55.792 23.141-23.141 23.142-23.141 55.902v37.131q-17 0-28.62 11.739-11.62 11.739-11.62 28.686v119.628q0 16.947 11.569 28.566Q383.855-340 400.957-340ZM480-408.565q-13.478 0-22.457-8.978-8.978-8.979-8.978-22.457 0-13.478 8.978-22.457 8.979-8.978 22.457-8.978 13.478 0 22.457 8.926 8.978 8.925 8.978 22.576 0 13.65-8.978 22.509-8.979 8.859-22.457 8.859Zm-37.13-131.674v-36.979q0-15.717 10.679-26.619 10.68-10.902 26.468-10.902 15.787 0 26.45 10.902 10.663 10.902 10.663 26.619v36.979h-74.26Z"/></svg>