<svg xmlns="http://www.w3.org/2000/svg" height="24" viewBox="0 -960 960 960" width="24"><path d="M162.87-65.413q-37.783 0-64.392-26.609Q71.87-118.63 71.87-156.413v-544.283l523.479-213.239q14.239-5.239 28.142.366 13.904 5.605 19.053 19.873 5.239 14.239-.5 28.098-5.739 13.859-19.978 19.098L315.978-721.435H797.13q37.783 0 64.392 26.609 26.609 26.609 26.609 64.391v474.022q0 37.783-26.609 64.392-26.609 26.608-64.392 26.608H162.87Zm154.26-128.609q42 0 71-29t29-71q0-42-29-71t-71-29q-42 0-71 29t-29 71q0 42 29 71t71 29ZM162.87-511.869H640v-38.566q0-17 11.5-28.5t28.5-11.5q17 0 28.5 11.5t11.5 28.5v38.566h77.13v-118.566H162.87v118.566Z"/></svg>