<svg xmlns="http://www.w3.org/2000/svg" height="24" viewBox="0 -960 960 960" width="24"><path d="M283.587-398.087h65.043q9.196 0 17.533-3.359 8.337-3.358 15.055-10.076L560.565-591.63q9.718-9.718 14.457-21.935 4.739-12.217 4.739-24.413 0-11.957-4.739-23.413-4.739-11.457-13.696-21.174l-37-37.761q-9.717-9.717-21.554-14.576-11.837-4.859-24.794-4.859-11.956 0-23.793 4.739t-21.555 14.457L251.761-541.218q-6.718 6.718-10.196 15.055-3.478 8.337-3.478 17.533v65.043q0 19.152 13.174 32.326t32.326 13.174Zm202.478-210.217-35.369-21.217 20.586-38.761 34.848 22.217-20.065 37.761Zm-33.282 210.217h229.13q17 0 28.5-11.5t11.5-28.5q0-17-11.5-28.5t-28.5-11.5h-149.13l-80 80ZM231.869-231.869l-82.434 82.434q-21.631 21.631-49.598 9.815-27.968-11.815-27.968-42.402V-797.13q0-37.783 26.61-64.392 26.608-26.609 64.391-26.609h634.26q37.783 0 64.392 26.609 26.609 26.609 26.609 64.392v474.26q0 37.783-26.609 64.392-26.609 26.609-64.392 26.609H231.869Z"/></svg>