<svg xmlns="http://www.w3.org/2000/svg" height="24" viewBox="0 -960 960 960" width="24"><path d="M360-240.717h220q17 0 31.5-8.5t20.5-23.5L716-468q2-5 3-10t1-10v-32q0-17-11.5-28.5T680-560H496l23.522-133.13q2.239-11.196-1.239-21.631-3.479-10.435-11.435-18.391L480-760 296-560q-8 8-12 18t-4 22v199.384q0 32.899 23.5 56.399t56.5 23.5ZM480-71.869q-84.913 0-159.345-32.118t-129.491-87.177q-55.059-55.059-87.177-129.491Q71.869-395.087 71.869-480t32.118-159.345q32.118-74.432 87.177-129.491 55.059-55.059 129.491-87.177Q395.087-888.131 480-888.131t159.345 32.118q74.432 32.118 129.491 87.177 55.059 55.059 87.177 129.491Q888.131-564.913 888.131-480t-32.118 159.345q-32.118 74.432-87.177 129.491-55.059 55.059-129.491 87.177Q564.913-71.869 480-71.869Z"/></svg>