<svg xmlns="http://www.w3.org/2000/svg" height="24" viewBox="0 -960 960 960" width="24"><path d="M105.413-65.413v-28.5q0-25.435 13.824-46.869 13.825-21.435 38.284-32.153 26.24-11.478 54.577-17.478 28.337-6 58.815-6 30.478 0 58.696 6 28.217 6 54.456 17.478 24.435 10.718 38.391 32.153 13.957 21.434 13.957 46.87v28.5h-331Zm418.174 0v-28.5q0-25.435 13.957-46.869 13.956-21.435 38.391-32.153 26.239-11.478 54.456-17.478 28.218-6 58.696-6 30.478 0 58.815 6 28.337 6 54.577 17.478 24.459 10.718 38.284 32.153 13.824 21.434 13.824 46.87v28.5h-331ZM270.995-234.5q-35.234 0-60.408-25.141t-25.174-60.446q0-35.304 25.141-60.359Q235.695-405.5 271-405.5q35.304 0 60.359 25.091 25.054 25.092 25.054 60.326 0 35.235-25.091 60.409Q306.23-234.5 270.995-234.5Zm418.175 0q-35.235 0-60.409-25.141t-25.174-60.446q0-35.304 25.141-60.359 25.141-25.054 60.446-25.054t60.359 25.091q25.054 25.092 25.054 60.326 0 35.235-25.091 60.409Q724.404-234.5 689.17-234.5ZM513.587-438.348l21.022-21.022q9.956-8.956 23.391-8.836 13.435.119 23.63 10.315 9.957 9.956 9.957 23.511 0 13.554-9.957 23.511l-69.565 69.326q-13.761 13.674-32.108 13.674-18.348 0-32.022-13.674l-69.565-69.566q-9.957-10.043-9.957-23.434 0-13.392 10.196-23.587 9.956-9.957 23.271-9.576 13.316.38 23.511 9.336l21.022 20.022V-484.5q0-14.554 9.516-24.071 9.517-9.516 24.071-9.516 14.554 0 24.071 9.516 9.516 9.517 9.516 24.071v46.152ZM59.913-556.413v-28.5q0-25.435 13.824-46.87 13.825-21.435 38.284-32.152 26.239-11.478 54.576-17.478 28.337-6 58.816-6 23.348 0 45.478 3.837 22.131 3.837 41.087 10.272-17.956 18.434-27.717 41.51-9.761 23.077-9.761 46.881v28.5H59.913Zm254.587 0v-28.5q0-25.435 13.956-46.87 13.957-21.435 38.392-32.152 26.239-11.478 54.456-17.478 28.218-6 58.696-6 30.478 0 58.696 6 28.217 6 54.456 17.478 24.435 10.717 38.392 32.152 13.956 21.435 13.956 46.87v28.5h-331Zm371 0v-28.5q0-23.804-9.402-46.881-9.402-23.076-27.837-41.51 18.957-6.435 40.967-10.272 22.011-3.837 45.359-3.837 30.479 0 58.816 6 28.337 6 54.576 17.478 24.459 10.717 38.284 32.152 13.824 21.435 13.824 46.87v28.5H685.5ZM225.495-725.5q-35.235 0-60.408-25.141-25.174-25.141-25.174-60.446t25.141-60.359q25.141-25.054 60.445-25.054 35.305 0 60.359 25.091 25.055 25.091 25.055 60.326t-25.092 60.409Q260.73-725.5 225.495-725.5Zm254.588 0q-35.235 0-60.409-25.141T394.5-811.087q0-35.305 25.141-60.359 25.141-25.054 60.446-25.054 35.304 0 60.359 25.091 25.054 25.091 25.054 60.326t-25.091 60.409Q515.317-725.5 480.083-725.5Zm254.587 0q-35.235 0-60.409-25.141t-25.174-60.446q0-35.305 25.141-60.359 25.141-25.054 60.446-25.054t60.359 25.091q25.054 25.091 25.054 60.326t-25.091 60.409Q769.905-725.5 734.67-725.5Z"/></svg>