<svg xmlns="http://www.w3.org/2000/svg" height="24" viewBox="0 -960 960 960" width="24"><path d="M480-274.5q18.524 0 31.056-12.531 12.531-12.531 12.531-31.056 0-18.435-12.531-31.13-12.532-12.696-31.056-12.696t-31.056 12.696q-12.531 12.695-12.531 31.13t12.531 31.011Q461.476-274.5 480-274.5Zm0-158.804q17.813 0 29.863-12.05t12.05-29.863v-167.134q0-17.758-12.05-29.856-12.05-12.097-29.863-12.097t-29.863 12.05q-12.05 12.05-12.05 29.863v167.133q0 17.758 12.05 29.856 12.05 12.098 29.863 12.098ZM364.196-111.869q-18.211 0-34.714-6.837-16.504-6.837-29.178-19.511L138.217-300.304q-12.674-12.674-19.511-29.178-6.837-16.503-6.837-34.714v-231.608q0-18.211 6.837-34.714 6.837-16.504 19.511-29.178l162.087-162.087q12.674-12.674 29.178-19.511 16.503-6.837 34.714-6.837h231.608q18.211 0 34.714 6.837 16.504 6.837 29.178 19.511l162.087 162.087q12.674 12.674 19.511 29.178 6.837 16.503 6.837 34.714v231.608q0 18.211-6.837 34.714-6.837 16.504-19.511 29.178L659.696-138.217q-12.674 12.674-29.178 19.511-16.503 6.837-34.714 6.837H364.196Zm.99-91.001h229.618L757.13-365.186v-229.618L594.814-757.13H365.196L202.87-594.814v229.618L365.186-202.87ZM480-480Z"/></svg>