<svg xmlns="http://www.w3.org/2000/svg" height="24" viewBox="0 -960 960 960" width="24"><path d="m800.131-278.652-65.414-63.652 22.413-22.892v-229.618L594.814-757.13H365.196l-22.892 22.413-63.652-65.414 21.652-21.652q12.674-12.674 29.178-19.511 16.503-6.837 34.714-6.837h231.608q18.211 0 34.714 6.837 16.504 6.837 29.178 19.511l162.087 162.087q12.674 12.674 19.511 29.178 6.837 16.503 6.837 34.714v230.847q0 18.261-6.457 34.24-6.456 15.978-18.891 28.652l-22.652 23.413ZM521.913-555.348v-87.043q0-17.813-12.05-29.863T480-684.304q-17 0-28.859 11.26-11.858 11.261-12.815 28.261v6.087l83.587 83.348ZM364.196-111.869q-18.392 0-34.805-7.218-16.413-7.217-29.087-19.891L138.217-302.065q-12.674-12.674-19.511-29.177-6.837-16.504-6.837-34.715v-229.847q0-18.211 6.837-34.714 6.837-16.504 19.511-29.178l21.652-21.652L52.174-790.804q-11.718-11.718-12.098-28.816-.38-17.097 12.098-29.576 11.717-11.717 29.315-11.717t29.315 11.717l738.631 738.631q11.717 11.717 11.598 29.195-.12 17.479-11.837 29.196Q837.478-40.456 820-40.456t-29.196-11.718L681.348-161.63l-20.891 21.652q-12.674 13.435-29.582 20.772-16.908 7.337-36.071 7.337H364.196ZM538.63-538.63ZM365.186-202.87h229.618l22.413-22.413-391.934-391.934-22.413 22.413v229.618L365.186-202.87ZM480-274.5q-18.524 0-31.056-12.531-12.531-12.531-12.531-31.056 0-18.524 12.531-31.056 12.532-12.531 31.056-12.531t31.056 12.531q12.531 12.532 12.531 31.056 0 18.525-12.531 31.056Q498.524-274.5 480-274.5Zm-58.87-146.87Z"/></svg>