<svg xmlns="http://www.w3.org/2000/svg" height="24" viewBox="0 -960 960 960" width="24"><path d="M356.413-114.5q-70.304 0-119.815-49.391-49.511-49.392-49.511-119.696v-319.826q-35.239-13.957-57.62-45.259-22.38-31.302-22.38-71.328 0-52.292 36.624-88.896 36.625-36.604 88.946-36.604t88.876 36.604q36.554 36.604 36.554 88.896 0 40.026-22.381 71.328-22.38 31.302-57.619 45.259v319.832q0 32.277 22.902 55.179t55.424 22.902q32.522 0 55.304-22.938 22.783-22.938 22.783-55.149v-392.826q0-70.304 49.391-119.696Q533.283-845.5 603.707-845.5t119.815 49.391q49.391 49.392 49.391 119.696v319.826q35.239 13.957 57.62 45.259 22.38 31.302 22.38 71.328 0 52.152-36.575 88.826-36.576 36.674-88.826 36.674-52.251 0-88.925-36.674T601.913-240q0-39.923 22.381-71.657 22.38-31.734 57.619-44.93v-319.826q0-32.522-22.902-55.304-22.902-22.783-55.424-22.783t-55.304 22.783Q525.5-708.935 525.5-676.518v392.931q0 70.304-49.391 119.696Q426.717-114.5 356.413-114.5ZM232.654-681.913q16.215 0 27.237-10.969 11.022-10.97 11.022-27.185 0-16.216-11.022-27.118-11.022-10.902-27.237-10.902-16.216 0-27.185 10.921-10.969 10.921-10.969 27.065 0 16.144 10.969 27.166 10.969 11.022 27.185 11.022Zm494.86 480q16.144 0 27.065-10.969 10.921-10.97 10.921-27.185 0-16.216-10.921-27.118-10.921-10.902-27.065-10.902-16.144 0-27.286 10.921-11.141 10.921-11.141 27.065 0 16.144 11.141 27.166 11.142 11.022 27.286 11.022ZM232.826-720Zm494.587 480Z"/></svg>