<svg xmlns="http://www.w3.org/2000/svg" height="24" viewBox="0 -960 960 960" width="24"><path d="M194.022-111.869q-34.196 0-58.174-24.246-23.979-24.246-23.979-58.294 0-34.047 24.133-58.145 24.132-24.098 58.02-24.098 34.085 0 58.357 23.978 24.273 23.978 24.273 58.174t-24.273 58.413q-24.272 24.218-58.357 24.218Zm560.087 0q-27.435 0-46.036-19.994-18.601-19.994-21.79-47.354-11.718-99.87-54.483-186.778-42.766-86.907-110.778-154.788-67.948-68.012-154.941-110.778-86.994-42.765-186.864-54.483-27.36-3.179-47.354-21.725-19.994-18.546-19.994-46.101 0-27.435 19.076-45.13 19.077-17.696 45.751-15.457Q304-802.74 414.967-749.446q110.968 53.294 196.077 138.402 85.108 85.109 138.402 196.077Q802.74-304 814.457-176.696q2.239 26.674-15.337 45.751-17.576 19.076-45.011 19.076Zm-254.376 0q-26.407 0-45.603-18.337-19.195-18.337-24.674-44.772-9.478-48.761-32.046-90.261-22.568-41.5-56.671-75.5-34-34.103-75.5-56.671-41.5-22.568-90.261-32.046-26.435-5.479-44.772-24.518t-18.337-45.482q0-27.501 19.076-45.457 19.077-17.957 45.272-13.717 74.196 10.478 138.983 43.654 64.787 33.175 115.8 84.215 51.04 50.946 84.216 115.647 33.175 64.701 43.654 138.897 4.239 26.195-13.718 45.272-17.956 19.076-45.419 19.076Z"/></svg>