<svg xmlns="http://www.w3.org/2000/svg" height="24" viewBox="0 -960 960 960" width="24"><path d="m159.456-486.109 218.131-313.934q7.717-10.196 18.032-13.174 10.316-2.979 20.511.5 10.196 3.478 17.033 11.554Q440-793.087 440-780.652V-460q0 19.152-13.174 32.326T394.5-414.5H196.761q-13.674 0-23.87-6.956-10.195-6.957-15.913-17.153-5.717-10.434-5.598-23.25.12-12.815 8.076-24.25Zm116.892-15.804h76.239v-109.456l-76.239 109.456ZM553.196-414.5q-21.913 0-34.229-17.054-12.315-17.055-5.837-37.729 10-39.434 16.642-89.576Q536.413-609 536.413-660q0-52.435-6.88-107.13-6.881-54.696-17.12-99.848-2.239-9.718.5-17.435 2.739-7.718 9.217-13.196 6.479-5.478 15.076-6.978 8.598-1.5 17.316 2.739 61.674 29.717 110.608 77.913 48.935 48.196 86.131 105.631 36.761 56.76 62.337 122.032Q839.174-531 844.174-463.239q2 19.391-12.054 34.065-14.055 14.674-33.446 14.674H553.196Zm55.587-87.413h141.782q-16.282-73.413-53.706-137.054-37.424-63.642-79.229-109.12 2.479 19.565 4.218 42.304 1.739 22.74 1.739 45.783 0 45.804-4.141 85.206-4.142 39.403-10.663 72.881Zm-256.196 0Zm255.957 0ZM360-200.239q-25.043 0-47.946-9.544-22.902-9.543-42.424-25.587-6.478-5.239-14.195-7.358-7.718-2.12-15.435-2.12-7.717 0-14.935 2.739-7.217 2.739-12.935 7.979-9.717 8.478-21.434 14.978-11.718 6.5-23.435 11.5-24.522-19.239-44.544-44.337-20.021-25.098-31.021-54.815-8-19.479 5.62-36.337Q110.934-360 131.651-360h696.696q20.717 0 33.337 16.478 12.619 16.479 6.619 36.718-12.76 29.717-31.902 54.815-19.141 25.098-43.663 44.337-11.717-5-23.554-11.5-11.837-6.5-21.555-14.978-5.717-5.24-12.815-7.979T720-244.848q-7.717 0-15.435 1.739-7.717 1.739-14.195 6.979-19.522 16.043-42.424 25.967-22.903 9.924-47.946 9.924-25.283 0-48.946-10.424-23.663-10.424-43.424-26.467-5.717-5.24-12.815-7.359-7.098-2.12-14.815-2.12t-14.815 2.12q-7.098 2.119-12.815 7.359-19.761 16.043-43.424 26.467T360-200.239ZM480-62.348q-29 14.761-59.12 22.261-30.119 7.5-60.88 7.5-30.761 0-60.88-7.5-30.12-7.5-59.12-22.26-29 14.76-59.12 22.26-30.119 7.5-60.88 7.5-18.435 0-31.01-12.695-12.577-12.696-12.577-31.131 0-18.435 12.576-31.011T120-120q26.283 0 51.065-9.261 24.783-9.261 48.065-21.022 5.479-2.478 10.316-3.717 4.837-1.239 10.554-1.239 5.717 0 10.554 1.239 4.837 1.239 10.316 3.717 23.282 11.761 48.065 20.522Q333.717-121 360-121q26.283 0 51.065-8.761 24.783-8.761 48.065-20.522 5.479-2.478 10.316-3.717 4.837-1.239 10.554-1.239 5.717 0 10.554 1.239 4.837 1.239 10.316 3.717 23.282 11.761 48.065 20.522Q573.717-121 600-121q26.283 0 51.185-8.761t48.185-20.522q4.239-2.239 20.63-4.717 2.717 0 20.63 4.957 23.283 11.76 48.185 20.902Q813.717-120 840-120q18.435 0 31.011 12.696 12.576 12.695 12.576 31.13t-12.576 31.011Q858.435-32.587 840-32.587q-30.761 0-60.88-7.5-30.12-7.5-59.12-22.26-29 14.76-59.12 22.26-30.119 7.5-60.88 7.5-30.761 0-60.88-7.5-30.12-7.5-59.12-22.26Z"/></svg>