<svg xmlns="http://www.w3.org/2000/svg" height="24" viewBox="0 -960 960 960" width="24"><path d="M683.615-642.152q-25.985 0-44.082-18.128-18.098-18.128-18.098-44.024 0-18.044 15.663-43.044 15.663-25 29.815-41.87 6.717-7.717 16.794-7.717 10.076 0 16.793 7.717 14.152 16.87 29.815 41.87 15.663 25 15.663 43.044 0 25.896-18.189 44.024t-44.174 18.128Zm107.436 286.456q-43.486 0-73.562-30.04t-30.076-73.547q0-34.282 26.663-79.782t51.294-75.805q10.195-12.195 25.63-12.195 15.435 0 25.631 12.195 24.63 30.305 51.293 75.805 26.663 45.5 26.663 79.782 0 43.507-30.025 73.547-30.026 30.04-73.511 30.04Zm-442.769 40v40q0 17 11.5 28.5t28.5 11.5q17 0 28.5-11.5t11.5-28.5v-40h40q17 0 28.5-11.5t11.5-28.5q0-17-11.5-28.5t-28.5-11.5h-40v-40q0-17-11.5-28.5t-28.5-11.5q-17 0-28.5 11.5t-11.5 28.5v40h-40q-17 0-28.5 11.5t-11.5 28.5q0 17 11.5 28.5t28.5 11.5h40ZM230.435-156.413H546.13V-480q0-65.283-46.282-111.565-46.283-46.283-111.566-46.283-65.282 0-111.565 46.283Q230.435-545.283 230.435-480v323.587Zm0 0H546.13 230.435Zm0 91q-37.783 0-64.392-26.609-26.609-26.608-26.609-64.391V-480q0-91.674 57-159.348t146.348-84.543v-79.696h-40.717q-19.152 0-32.326-13.174t-13.174-32.326q0-19.152 13.174-32.326t32.326-13.174h210.522q28.13 0 54.637 7.329t50.31 20.859q11.901 5.638 18.618 16.759 6.718 11.121 6.718 24.466 0 19.134-13.47 32.078-13.47 12.944-32.552 12.944-8.239 0-24.87-7.718-13.545-7.334-28.133-11.526-14.587-4.191-31.258-4.191h-78.805v79.696q89.348 16.869 146.348 84.543 57 67.674 57 159.348v323.587q0 37.783-26.608 64.392-26.609 26.608-64.392 26.608H230.435Z"/></svg>