<svg xmlns="http://www.w3.org/2000/svg" height="24" viewBox="0 -960 960 960" width="24"><path d="M839.522-320.239v-231.696L523.261-380.043Q502.63-368.848 480-368.728q-22.63.119-43.261-11.315L106.152-560.217q-12.435-6.718-17.772-17.033-5.337-10.315-5.337-22.75t5.337-22.75q5.337-10.315 17.772-17.033l330.587-179.934q10.196-5.718 21.011-8.577 10.815-2.858 22.25-2.858t22.25 2.858q10.815 2.859 21.011 8.577l379.804 207.043q11.196 5.717 17.533 16.533 6.337 10.815 6.337 23.25V-320q0 18.435-12.576 31.011t-31.011 12.576q-18.435 0-31.131-12.696-12.695-12.695-12.695-31.13ZM436.739-140.283 244.391-243.978q-22.63-12.435-35.185-33.946-12.554-21.511-12.554-46.62V-466.5l240.087 130.044Q457.37-325.261 480-325.261q22.63 0 43.261-11.195L763.348-466.5v141.956q0 25.109-12.554 46.62-12.555 21.511-35.185 33.946L523.261-140.283q-10.196 5.718-21.011 8.457-10.815 2.739-22.25 2.739t-22.25-2.739q-10.815-2.739-21.011-8.457Z"/></svg>