<svg xmlns="http://www.w3.org/2000/svg" height="24" viewBox="0 -960 960 960" width="24"><path d="m424.652-337.37 5.761 27.805q3.239 14.717 14.576 23.935 11.337 9.217 26.294 9.217h17.434q14.957 0 26.294-9.598t14.576-24.315l5.761-27.044q11.043-4.76 21.065-10.021 10.022-5.261 20.304-12.544l28.044 8.522q13.956 4.239 27.293-1t20.816-17.196l8.478-14.956q7.478-12.957 5.239-28.033t-13.957-24.793l-21.043-18.044q1.522-13.043 1.522-24.565 0-11.522-1.522-24.565l21.283-18.283q11.717-9.717 13.956-24.174 2.239-14.456-5.239-27.413l-9.478-15.956q-7.479-11.957-20.435-17.316-12.957-5.358-26.913-1.119l-28.044 8.761q-10.282-7.283-20.304-12.544-10.022-5.261-21.065-10.021l-5.761-27.805q-3.239-14.717-14.576-23.935-11.337-9.217-26.294-9.217h-17.434q-14.957 0-26.294 9.598t-14.576 24.315l-5.761 27.044q-11.043 4.76-21.065 10.021-10.022 5.261-20.304 12.544l-28.044-8.522q-13.956-4.239-27.293 1t-20.816 17.196l-8.478 14.956q-7.478 12.957-5.239 28.033t13.957 24.793l21.043 18.044q-1.522 13.043-1.522 24.565 0 11.522 1.522 24.565l-21.283 18.283q-11.717 9.717-13.956 24.174-2.239 14.456 5.239 27.413l9.478 15.956q7.479 11.957 20.435 17.316 12.957 5.358 26.913 1.119l28.044-8.761q10.282 7.283 20.304 12.544 10.022 5.261 21.065 10.021ZM480-401.913q-32.283 0-55.185-22.902T401.913-480q0-32.283 22.902-55.185T480-558.087q32.283 0 55.185 22.902T558.087-480q0 32.283-22.902 55.185T480-401.913ZM202.87-111.869q-37.783 0-64.392-26.609-26.609-26.609-26.609-64.392v-554.26q0-37.783 26.609-64.392 26.609-26.609 64.392-26.609h554.26q37.783 0 64.392 26.609 26.609 26.609 26.609 64.392v554.26q0 37.783-26.609 64.392-26.609 26.609-64.392 26.609H202.87Z"/></svg>