<svg xmlns="http://www.w3.org/2000/svg" height="24" viewBox="0 -960 960 960" width="24"><path d="m450.37-283.348 150.456-96.195q20.63-13.674 20.63-38.544 0-24.87-20.63-38.543L450.37-552.826q-22.87-14.674-46.62-2.119Q380-542.391 380-515.043v193.912q0 27.348 23.75 39.903 23.75 12.554 46.62-2.12Zm-287.5 171.479q-37.783 0-64.392-26.609Q71.87-165.087 71.87-202.87v-475.934q0-19.153 13.174-32.326 13.174-13.174 32.327-13.174h195.217v-80q0-37.783 26.609-64.392 26.608-26.609 64.391-26.609h152.826q37.783 0 64.391 26.609 26.609 26.609 26.609 64.392v80H842.63q19.153 0 32.327 13.174 13.174 13.173 13.174 32.326v475.934q0 37.783-26.609 64.392-26.609 26.609-64.392 26.609H162.87Zm240.717-612.435h152.826v-80H403.587v80Z"/></svg>