<svg xmlns="http://www.w3.org/2000/svg" height="24" viewBox="0 -960 960 960" width="24"><path d="M123.587-65.413q-37.783 0-64.391-26.609-26.61-26.608-26.61-64.391v-394.5q0-19.152 13.175-32.326 13.174-13.174 32.326-13.174t32.326 13.174q13.174 13.174 13.174 32.326v394.5H754.5q19.152 0 32.326 13.174T800-110.913q0 19.152-13.174 32.326T754.5-65.413H123.587Zm165.978-165.739q-37.782 0-64.391-26.609-26.609-26.609-26.609-64.391V-714.5q0-19.152 13.174-32.326T244.065-760h151.631v-76.413q0-37.783 26.608-64.391 26.609-26.609 64.392-26.609h152.587q37.782 0 64.391 26.609 26.609 26.608 26.609 64.391V-760h151.63q19.152 0 32.326 13.174t13.174 32.326v392.348q0 37.782-26.609 64.391-26.608 26.609-64.391 26.609H289.565ZM486.696-760h152.587v-76.413H486.696V-760Zm-1.913 369.957q0 12.239 10.619 17.478 10.62 5.239 20.859-1l153.152-97.5q9.478-6.478 9.717-17.957.24-11.478-9.239-17.956l-153.869-99.891q-10-6.479-20.62-1.24-10.619 5.24-10.619 17.479v200.587Z"/></svg>