<svg xmlns="http://www.w3.org/2000/svg" height="24" viewBox="0 -960 960 960" width="24"><path d="M242.87-71.87q-37.783 0-64.392-26.608-26.609-26.609-26.609-64.392v-470.434q0-37.783 26.609-64.392 26.609-26.608 64.392-26.608h71.63q.717-67.914 49.11-115.87 48.392-47.957 116.348-47.957 67.955 0 116.39 47.957 48.435 47.956 49.152 115.87h71.63q37.783 0 64.392 26.608 26.609 26.609 26.609 64.392v470.434q0 37.783-26.609 64.392Q754.913-71.87 717.13-71.87H242.87Zm0-91h474.26v-470.434H645.5v74.5q0 19.152-13.174 32.326T600-513.304q-19.152 0-32.326-13.174T554.5-558.804v-74.5h-149v74.5q0 19.152-13.174 32.326T360-513.304q-19.152 0-32.326-13.174T314.5-558.804v-74.5h-71.63v470.434Zm162.869-561.434h148.522q-.718-30.131-22.328-51.479-21.61-21.347-51.956-21.347-30.347 0-51.933 21.347-21.587 21.348-22.305 51.479ZM242.87-162.87v-470.434 470.434Z"/></svg>