<svg xmlns="http://www.w3.org/2000/svg" height="24" viewBox="0 -960 960 960" width="24"><path d="m149.196-149.196 660.608-660.847q22.392-22.392 50.359-10.577 27.968 11.816 27.968 42.642v145.63H842.63q-52.391 0-88.945 36.555-36.555 36.554-36.555 88.945v434.979H181.022q-29.826 0-41.642-27.848-11.815-27.848 9.816-49.479ZM842.63-71.869q-19.152 0-32.326-13.174T797.13-117.37q0-19.152 13.174-32.326t32.326-13.174q19.153 0 32.327 13.174t13.174 32.326q0 19.153-13.174 32.327T842.63-71.87Zm-45.5-211.001v-223.978q0-19.152 13.174-32.326t32.326-13.174q19.153 0 32.327 13.174t13.174 32.326v224.978q0 19.153-13.174 31.827-13.174 12.673-32.327 12.673-19.152 0-32.326-13.173-13.174-13.174-13.174-32.327Z"/></svg>