<svg xmlns="http://www.w3.org/2000/svg" height="24" viewBox="0 -960 960 960" width="24"><path d="m196.717-374.087-22.76 68.804q-4.24 11.718-14.598 19.457-10.359 7.739-23.076 7.739-21.196 0-34.055-17.456Q89.37-313 97.608-333.717l120.001-321q5-12.479 15.597-19.837 10.598-7.359 24.077-7.359h31.434q13.479 0 24.077 7.359 10.597 7.358 15.597 19.837l120.522 322.282q7.478 20.196-4.619 37.272-12.098 17.076-33.533 17.076-12.957 0-23.674-7.859-10.717-7.858-14.957-19.815l-24.282-68.326H196.717Zm25.196-71.826h98.739l-45.369-141.869h-6l-47.37 141.869Zm422.065 92h160.739q15.718 0 26.816 11.098Q842.63-331.717 842.63-316t-11.097 26.815q-11.098 11.098-26.816 11.098H571.522q-10.239 0-17.479-7.239-7.239-7.239-7.239-17.478v-38q0-7.957 2.239-15.294 2.24-7.337 7.718-13.054l188.935-236.935H592.717q-15.717 0-26.815-11.098T554.804-644q0-15.717 11.098-26.815t26.815-11.098h223.435q10.239 0 17.359 7.119 7.119 7.12 7.119 17.359v38.478q0 7.957-2.239 15.174-2.239 7.218-7.717 12.935L643.978-353.913ZM375.087-777.478l89-89q6.717-6.718 15.913-6.718 9.196 0 15.913 6.718l89 89q5.717 5.717 2.859 12.554-2.859 6.837-10.815 6.837H383.043q-7.956 0-10.815-6.837-2.858-6.837 2.859-12.554Zm89 683.956-89-89q-5.717-5.717-2.859-12.554 2.859-6.837 10.815-6.837h193.914q7.956 0 10.815 6.837 2.858 6.837-2.859 12.554l-89 89q-6.717 6.718-15.913 6.718-9.196 0-15.913-6.718Z"/></svg>