<svg xmlns="http://www.w3.org/2000/svg" height="24" viewBox="0 -960 960 960" width="24"><path d="M306-91.87q-58.196 0-106.109-9.717t-67.869-30.435q-19.196-19.956-29.674-68.75Q91.869-249.565 91.869-310q0-116.435 41.098-223.37 41.098-106.934 113.055-180.13 72.434-72.435 180.369-113.533T654-868.131q58.435 0 106.228 9.718 47.794 9.717 67.75 30.435 19.196 19.956 29.674 68.75Q868.131-710.435 868.131-650q0 117.152-40.859 223.967-40.859 106.816-113.294 180.011-71.956 71.957-180.011 113.055Q425.913-91.869 306-91.869ZM184.87-327.434q32.521-71.043 79.163-138.945 46.641-67.903 103.402-126.424 56.043-56.044 123.706-102.685 67.663-46.641 139.424-79.641-90.043 3-176.587 37.26-86.543 34.261-142.065 89.783-58.522 56.761-91.783 141.685-33.26 84.924-35.26 178.967ZM329.913-184.87q90.044-3 176.587-37.26 86.543-34.261 142.065-89.783 58.044-56.522 91.305-141.565 33.26-85.044 35.26-179.087-32.76 71.522-79.282 139.185T592.804-367.196q-56.043 56.044-123.587 102.685-67.543 46.641-139.304 79.641Z"/></svg>