<svg xmlns="http://www.w3.org/2000/svg" height="24" viewBox="0 -960 960 960" width="24"><path d="M189-152.587q-63.348 0-107.834-45.175-44.486-45.175-46.58-109.261 0-9.455 1.12-18.814t3.12-18.837l84-336.239q14.717-56.152 59.686-91.326Q227.481-807.413 285-807.413h390q57.519 0 102.488 35.174t59.686 91.326l84 336q2.239 9.478 3.739 19.461 1.5 9.983 1.5 19.441 0 64.102-45.648 108.763-45.649 44.661-109.769 44.661-44.148 0-81.942-23.076-37.793-23.076-56.75-63.228l-28-57.761q-4.043-8.087-12.192-12.011-8.148-3.924-17.112-3.924H385q-8.964 0-17.112 3.924-8.149 3.924-12.192 12.011l-28 57.761q-18.957 40.152-56.769 63.228-37.813 23.076-81.927 23.076ZM540-520q17 0 28.5-11.5T580-560q0-17-11.5-28.5T540-600q-17 0-28.5 11.5T500-560q0 17 11.5 28.5T540-520Zm80-80q17 0 28.5-11.5T660-640q0-17-11.5-28.5T620-680q-17 0-28.5 11.5T580-640q0 17 11.5 28.5T620-600Zm0 160q17 0 28.5-11.5T660-480q0-17-11.5-28.5T620-520q-17 0-28.5 11.5T580-480q0 17 11.5 28.5T620-440Zm80-80q17 0 28.5-11.5T740-560q0-17-11.5-28.5T700-600q-17 0-28.5 11.5T660-560q0 17 11.5 28.5T700-520Zm-360 60q13 0 21.5-8.5T370-490v-40h40q13 0 21.5-8.5T440-560q0-13-8.5-21.5T410-590h-40v-40q0-13-8.5-21.5T340-660q-13 0-21.5 8.5T310-630v40h-40q-13 0-21.5 8.5T240-560q0 13 8.5 21.5T270-530h40v40q0 13 8.5 21.5T340-460Z"/></svg>