<svg xmlns="http://www.w3.org/2000/svg" height="24" viewBox="0 -960 960 960" width="24"><path d="M544.065-65.652q-113.5 0-192.967-79.946-79.468-79.945-79.468-193.445v-17.979q-90.543-15.434-150.652-85.282-60.109-69.848-60.109-164.392v-199.761q0-19.152 13.174-32.326t32.326-13.174h83.348q1.196-18.195 14.011-30.293 12.815-12.098 31.25-12.098 19.152 0 32.326 13.174t13.174 32.326v84.783q0 19.152-13.174 32.326t-32.326 13.174q-18.435 0-31.25-12.098-12.815-12.098-14.011-30.294h-37.848v154.261q0 67.435 48.196 114.794 48.196 47.358 115.631 47.358 67.434 0 115.63-47.358 48.196-47.359 48.196-114.794v-154.261h-37.848q-1.196 18.196-14.011 30.294-12.815 12.098-31.25 12.098-19.152 0-32.326-13.174t-13.174-32.326v-84.783q0-19.152 13.174-32.326t32.326-13.174q18.435 0 31.25 12.098 12.815 12.098 14.011 30.293h83.348q19.152 0 32.326 13.174t13.174 32.326v199.761q0 93.826-59.272 163.435-59.272 69.609-148.62 85.761v18.457q0 75.717 52.859 129.054t128.576 53.337q75.718 0 128.457-53.337 52.739-53.337 52.739-129.054v-64.848q-36.435-14.196-59.652-46.489-23.218-32.294-23.218-73.446 0-53.587 37.392-90.979 37.391-37.391 90.978-37.391 53.587 0 90.979 37.391 37.391 37.392 37.391 90.979 0 41.152-23.218 73.446-23.217 32.293-59.652 46.489v64.848q0 113.5-79.348 193.445-79.348 79.946-192.848 79.946Zm226.696-418.892q16.522 0 27.902-11.38 11.381-11.38 11.381-27.902t-11.381-27.902q-11.38-11.381-27.902-11.381t-27.902 11.381q-11.38 11.38-11.38 27.902t11.38 27.902q11.38 11.38 27.902 11.38Zm0-39.282Z"/></svg>