<svg xmlns="http://www.w3.org/2000/svg" height="24" viewBox="0 -960 960 960" width="24"><path d="M736.37-108.282H74.26q-17.717 0-29.695-12.098-11.978-12.098-11.978-29.815 0-17.718 12.098-29.696 12.097-11.978 29.815-11.978h577.044l-40-40H162.87q-37.783 0-64.392-26.609Q71.87-285.087 71.87-322.87v-439.065q0-1.913.36-3.945.358-2.033.836-4.185l-21.891-22.652q-11.718-12.479-11.598-29.196.12-16.717 12.598-29.196 11.717-11.717 29.196-11.717 17.478 0 29.195 11.717l738.87 738.631q11.717 11.717 11.717 29.195 0 17.479-11.717 29.196-11.718 11.718-29.315 11.718-17.598 0-29.316-11.718l-54.434-54.195ZM401.913-441.217l-77.304-78.066q-4.283 8.761-5.403 18.642-1.119 9.88-1.119 20.163V-440q0 17.717 12.456 29.815 12.457 12.098 32.805 12.098 16.282 0 27.424-11.141 11.141-11.142 11.141-27.424v-4.565ZM837.565-243.37 581.544-499.391l44.934-44.696q6.957-6.717 6.957-16.033 0-9.315-6.957-16.032l-89-88.761q-5.717-5.717-12.554-2.859-6.837 2.859-6.837 10.815v55.044h-39.065L232.804-848.131H797.13q37.783 0 64.392 26.609 26.609 26.609 26.609 64.392v434.26q0 26.957-14.142 47.892-14.141 20.935-36.424 31.608Z"/></svg>