<svg xmlns="http://www.w3.org/2000/svg" height="24" viewBox="0 -960 960 960" width="24"><path d="m640-360-41.217 41.217q-11.196 11.196-24.989 5.479Q560-319.022 560-334.696V-594.5q0-19.152 13.174-32.326T605.5-640h269q19.152 0 32.326 13.174T920-594.5v189q0 19.152-13.174 32.326T874.5-360H640ZM283.587-32.587q-37.544 0-64.272-26.728-26.728-26.728-26.728-64.272v-712.826q0-37.544 26.728-64.272 26.728-26.728 64.272-26.728h392.826q37.544 0 64.272 26.728 26.728 26.728 26.728 64.272V-680h-91v-36.413H283.587v472.826h392.826V-280h91v156.413q0 37.544-26.728 64.272-26.728 26.728-64.272 26.728H283.587Z"/></svg>