<svg xmlns="http://www.w3.org/2000/svg" height="24" viewBox="0 -960 960 960" width="24"><path d="M481.304-71.87q-84.913 0-159.344-32.117-74.432-32.118-129.491-87.177-55.06-55.059-87.177-129.491Q73.174-395.087 73.174-480t32.118-159.345q32.117-74.432 87.177-129.491 55.059-55.059 129.491-87.177 74.431-32.118 159.344-32.118 84.914 0 159.345 32.118 74.432 32.118 129.491 87.177 55.059 55.059 87.177 129.491Q889.435-564.913 889.435-480t-32.118 159.345q-32.118 74.432-87.177 129.491-55.059 55.059-129.491 87.177-74.431 32.118-159.345 32.118Zm89.805-103.76q77.761-22.761 134.782-79.783 57.022-57.022 79.783-134.783L571.109-175.63ZM177.935-572.804 388.5-783.37q-76.479 22.845-132.1 78.466-55.621 55.621-78.465 132.1Zm-3.761 173.847L562.587-786.37q-11.761-3-23.761-4.88t-24.88-3.88L166.174-447.358q2 12.88 3.5 24.72 1.5 11.841 4.5 23.681Zm56.283 113.522L675.63-731.659q-8-5.95-16.5-11.83-8.5-5.881-17.26-10.881L206.935-319.353q5 8.918 10.849 17.418t12.673 16.5Zm90.282 79.805 434.174-435.174q-5-8.761-10.92-17.261t-11.841-16.5L286.978-228.341q8 5.95 16.5 11.83 8.5 5.881 17.261 10.881Zm127.923 40.76 347.773-347.772q-2-12.88-3.881-24.88-1.88-12-4.88-23.761L400.022-173.63q11.761 3 23.761 4.88t24.879 3.88Z"/></svg>