<svg xmlns="http://www.w3.org/2000/svg" height="24" viewBox="0 -960 960 960" width="24"><path d="M202.87-111.869q-37.783 0-64.392-26.609-26.609-26.609-26.609-64.392v-554.26q0-37.783 26.609-64.392 26.609-26.609 64.392-26.609h554.26q37.783 0 64.392 26.609 26.609 26.609 26.609 64.392v554.26q0 37.783-26.609 64.392-26.609 26.609-64.392 26.609H202.87Zm103.826-437.848h226.847q26.674 0 45.131-18.576 18.456-18.576 18.456-45.25t-18.456-45.131q-18.457-18.456-45.131-18.456H306.457q-26.674 0-45.131 18.456-18.456 18.457-18.456 45.131t18.576 45.25q18.576 18.576 45.25 18.576Z"/></svg>