<svg xmlns="http://www.w3.org/2000/svg" height="24" viewBox="0 -960 960 960" width="24"><path d="m442.152-113.065 88.609-88.609H840q18.674 0 31.489 12.815 12.815 12.816 12.815 31.489 0 18.674-12.815 31.49-12.815 12.815-31.489 12.815H442.152Zm64.37-232.696L346.717-505.565l337.979-337.979q13.674-13.674 32.446-13.674 18.771 0 32.445 13.674l94.913 94.913q13.674 13.674 13.674 32.446T844.5-683.739L506.522-345.761ZM203-113.065q-49.109 0-93.761-20.272Q64.587-153.609 30.195-188L305-461.805l109.022 108.783q14.956 14.957 23.435 34.272 8.478 19.315 8.478 40.75t-8.478 41.25q-8.479 19.815-23.435 34.772l-19 19q-33.196 33.196-76.892 51.554-43.695 18.359-91.13 18.359h-24Z"/></svg>