<svg xmlns="http://www.w3.org/2000/svg" height="24" viewBox="0 -960 960 960" width="24"><path d="M480-860.957q-85.13 0-163.978 28.968-78.848 28.967-143.652 83.858h70.934q14.674 0 24.489 9.816 9.816 9.815 9.816 24.489 0 14.674-9.816 24.489-9.815 9.815-24.489 9.815H117.37q-19.153 0-32.327-13.174T71.87-725.022v-128.804q0-14.674 9.816-24.489 9.815-9.816 24.489-9.816 14.674 0 24.489 9.816 9.815 9.815 9.815 24.489v42.391q72.239-58.044 159.12-88.087 86.88-30.043 180.402-30.043 93.522 0 180.402 30.043 86.881 30.043 159.12 88.087v-42.391q0-14.674 9.815-24.489 9.815-9.816 24.489-9.816 14.674 0 24.489 9.816 9.816 9.815 9.816 24.489v128.804q0 19.152-13.174 32.326t-32.327 13.174H719.087q-14.674 0-24.489-9.815-9.815-9.815-9.815-24.489 0-14.674 9.815-24.489 9.815-9.816 24.489-9.816h68.543q-64.804-54.891-143.652-83.858Q565.13-860.957 480-860.957ZM466.543-71.869q-24.478 0-47.195-9.24-22.718-9.239-39.957-26.717L195.5-294.63q-10.044-10.044-10.424-24.75-.381-14.707 9.424-25.75l2.282-2.283q18.392-19.826 43.957-26.522 25.565-6.695 50.631 1.218l61.456 18.521V-680q0-18.196 12.456-30.652 12.457-12.457 30.653-12.457 18.195 0 30.652 12.457 12.456 12.456 12.456 30.652v382.87q0 21.195-17.076 33.554-17.076 12.359-37.032 6.641l-44.087-13.239 99.848 101.044q4.76 4.76 11.663 7.902 6.902 3.141 14.184 3.141h188.044q31.805 0 54.348-22.543 22.544-22.544 22.544-54.348v-167.413q0-18.196 12.456-30.653 12.457-12.456 30.652-12.456 18.196 0 30.653 12.456 12.456 12.457 12.456 30.653v167.413q0 67.435-47.837 115.272T654.587-71.869H466.543ZM522.152-565.5q18.196 0 30.652 12.456 12.457 12.457 12.457 30.653V-400q0 18.196-12.457 30.652-12.456 12.457-30.652 12.457-18.195 0-30.652-12.457-12.457-12.456-12.457-30.652v-122.391q0-18.196 12.457-30.653 12.457-12.456 30.652-12.456Zm126.218 40q18.195 0 30.652 12.456 12.457 12.457 12.457 30.653V-400q0 18.196-12.457 30.652-12.457 12.457-30.652 12.457-18.196 0-30.652-12.457-12.457-12.456-12.457-30.652v-82.391q0-18.196 12.457-30.653Q630.174-525.5 648.37-525.5Zm-70.196 247.652Z"/></svg>