<svg xmlns="http://www.w3.org/2000/svg" height="24" viewBox="0 -960 960 960" width="24"><path d="M137.326-140.478q-57.805-72.479-87.848-159.359Q19.434-386.717 19.434-480q0-93.283 30.044-180.163 30.043-86.88 87.848-159.359H95.174q-14.674 0-24.49-9.815-9.815-9.815-9.815-24.489 0-14.674 9.815-24.489 9.816-9.816 24.49-9.816h128.804q19.152 0 32.326 13.174t13.174 32.327v126.412q0 14.674-9.815 24.49-9.815 9.815-24.489 9.815-14.674 0-24.49-9.815-9.815-9.816-9.815-24.49v-71.412q-54.891 65.043-83.858 143.771Q88.043-565.13 88.043-480q0 85.13 28.968 163.859 28.967 78.728 83.858 143.771v-71.412q0-14.674 9.815-24.49 9.816-9.815 24.49-9.815 14.674 0 24.489 9.815 9.815 9.816 9.815 24.49v126.412q0 19.153-13.174 32.327T223.978-71.87H95.174q-14.674 0-24.49-9.816-9.815-9.815-9.815-24.489 0-14.674 9.815-24.489 9.816-9.815 24.49-9.815h42.152Zm515.174 4.391q-23.478 8.239-47.815 7.619-24.337-.619-46.576-11.619L321.347-252.261q-13.326-6.283-18.728-20.109-5.402-13.826.641-27.152l1.522-3.043Q315.739-326.87 337.206-342q21.468-15.131 47.772-16.653l63.696-3.804L337.152-668.5q-6.478-16.957 1.239-32.772 7.718-15.815 24.674-22.294 16.957-6.478 32.772 1.239 15.815 7.718 22.293 24.674L514.848-432.5l37.761-13.761-38.674-107.544q-6.479-16.956-.761-37.772 5.717-20.815 22.674-27.293 16.956-6.478 32.772 1.239 15.815 7.717 22.293 24.674l42.674 117.304 37-13.76-28.674-79.544q-6.478-16.957 1.239-32.772 7.718-15.815 24.674-22.293 16.957-6.479 32.772 1.119 15.815 7.598 22.293 24.555l28.674 79.782 38-14-1.674-4.543q-6.478-16.957 1.24-32.772 7.717-15.815 24.674-22.294 16.956-6.478 32.652 1.24 15.695 7.717 22.174 24.674l57.63 156.934q23.479 64.196-4.739 124.892-28.217 60.695-92.413 84.174L652.5-136.087Z"/></svg>