<svg xmlns="http://www.w3.org/2000/svg" height="24" viewBox="0 -960 960 960" width="24"><path d="M565.5-521.913q50.957 0 86.435-35.478 35.478-35.479 35.478-86.196 0-50.957-35.478-86.435T565.5-765.5q-50.956 0-86.435 35.478-35.478 35.478-35.478 86.435 0 50.717 35.478 86.196 35.479 35.478 86.435 35.478ZM328.37-237.37q-37.783 0-64.392-26.608-26.608-26.609-26.608-64.392v-474.26q0-37.783 26.608-64.392 26.609-26.609 64.392-26.609h474.26q37.783 0 64.392 26.609 26.609 26.609 26.609 64.392v474.26q0 37.783-26.609 64.392-26.609 26.608-64.392 26.608H328.37Zm-171 171q-37.783 0-64.392-26.608-26.609-26.609-26.609-64.392v-514.499q0-19.153 13.174-32.327t32.326-13.174q19.153 0 32.327 13.174t13.174 32.327v514.499h514.499q19.153 0 32.327 13.174t13.174 32.327q0 19.152-13.174 32.326T671.869-66.37H157.37Zm171-262h474.26q-40.565-58.195-103.228-91.011-62.663-32.815-133.902-32.815-71.239 0-133.902 32.815-62.663 32.816-103.228 91.011Z"/></svg>