<svg xmlns="http://www.w3.org/2000/svg" height="24" viewBox="0 -960 960 960" width="24"><path d="M136.413-72.348q-26.674 0-45.609-18.934-18.935-18.935-18.935-45.609V-426q0-7.877 1.12-15.754 1.12-7.876 3.598-14.833l74.282-210.609q9.435-27.348 33.094-44.261 23.658-16.913 52.95-16.913h81.174v-38.326q0-19.152 13.174-32.326t32.326-13.174h93.435q-15.348 42.109-16.902 87.174-1.555 45.065 13.076 87.652H236.152l-40.804 116.892H524q39 39 90 59.5t106 20.5q22.144 0 43.181-3.218 21.037-3.217 44.95-9.652v316.696q0 26.793-18.756 45.549-18.755 18.755-45.549 18.755-26.674 0-45.609-18.934-18.934-18.935-18.934-45.609v-15.457H200.717v15.696q0 26.793-18.755 45.549-18.756 18.755-45.549 18.755Zm26.457-368.13v197.13-197.13Zm98.565 158.565q25 0 42.5-17.5t17.5-42.5q0-25-17.5-42.5t-42.5-17.5q-25 0-42.5 17.5t-17.5 42.5q0 25 17.5 42.5t42.5 17.5Zm357.13 0q25 0 42.5-17.5t17.5-42.5q0-25-17.5-42.5t-42.5-17.5q-25 0-42.5 17.5t-17.5 42.5q0 25 17.5 42.5t42.5 17.5ZM720-520.478q-83 0-141.5-58.5t-58.5-141.5q0-83 58.5-141.5t141.5-58.5q83 0 141.5 58.5t58.5 141.5q0 83-58.5 141.5t-141.5 58.5Zm-.12-162.87q8.837 0 15.435-6.574 6.598-6.574 6.598-15.339v-116.174q0-8.765-6.478-15.339t-15.315-6.574q-8.837 0-15.435 6.574-6.598 6.574-6.598 15.339v116.174q0 8.765 6.478 15.339t15.315 6.574Zm-557.01 440h554.26v-197.13H162.87v197.13ZM720-596.652q9.435 0 16.152-6.718 6.718-6.717 6.718-16.152 0-9.435-6.718-16.152-6.717-6.717-16.152-6.717-9.435 0-16.152 6.717-6.718 6.717-6.718 16.152 0 9.435 6.718 16.152 6.717 6.718 16.152 6.718Z"/></svg>