<svg xmlns="http://www.w3.org/2000/svg" height="24" viewBox="0 -960 960 960" width="24"><path d="M176.957-111.869q-22.348-4.957-41.24-23.848-18.891-18.892-23.848-41.24l671.174-671.174q24.109 5.718 41.74 23.729 17.63 18.011 24.108 41.359L176.957-111.869Zm-65.088-244.826v-126.348l365.088-365.088h126.348L111.869-356.695Zm0-309.196v-91.239q0-37.783 26.609-64.392 26.609-26.609 64.392-26.609h91.239l-182.24 182.24Zm554.022 554.022 182.24-182.24v91.239q0 37.783-26.609 64.392-26.609 26.609-64.392 26.609h-91.239Zm-309.196 0 491.436-491.436v126.348L483.043-111.869H356.695Z"/></svg>