<svg xmlns="http://www.w3.org/2000/svg" height="24" viewBox="0 -960 960 960" width="24"><path d="m352.826-589.229-82.848-82.749q-18.045-18.001-27.599-41.297-9.553-23.296-9.553-47.65 0-52.945 36.533-89.597 36.532-36.652 88.641-36.652h244q51.904 0 87.92 36.667 36.015 36.668 36.015 88.746 0 26.196-10.517 49.998-10.517 23.801-28.396 41.785l-79.848 79.871v216.237l81.848 81.848q17.903 17.987 27.908 41.263 10.005 23.277 10.005 48.669 0 53.96-37.02 91.112-37.021 37.152-90.964 37.152-25.386 0-48.68-9.553-23.293-9.554-41.293-27.599-5.804-6.565-13.096-9.587-7.291-3.022-15.869-3.022t-15.883 3.402q-7.304 3.403-13.108 9.207-17.987 18.045-41.263 27.599-23.277 9.553-48.669 9.553-53.96 0-91.231-37.152-37.272-37.152-37.272-91.112 0-25.392 9.615-48.669 9.615-23.276 27.776-41.263l82.848-81.087v-216.12Z"/></svg>