<svg xmlns="http://www.w3.org/2000/svg" height="24" viewBox="0 -960 960 960" width="24"><path d="M387.304-80.24q-15.761-45.564-23.402-89.988-7.641-44.424-9.641-84.207-2-39.782-.5-73.543 1.5-33.761 4.141-58-.88 0 0 0h.12q-22.24-5.239-50.62-12.978-28.38-7.74-60.402-20.74-32.022-13-65.424-31.38-33.402-18.38-65.685-43.663L169.478-570q38.761 35 81.212 55.5 42.45 20.5 78.408 32t59.93 15L413-464q18 1.239 28.5 15.166Q452-434.906 449-417l-4.5 33.5q-4.5 33.5-5 83.5t7.5 109q8 59 33 111l-92.696-.24Zm378.914.24H680v-423q0-48-25.5-87T586-649L312.522-771.522l52.826-72.978L621.63-727.739q65.914 29.717 105.251 90.391Q766.218-576.674 766.218-503v423ZM537.619-200.283q9.702 0 18.326-4.332 8.624-4.333 14.013-10.832 6.468 6.499 15.092 10.832 8.624 4.332 17.313 4.332 18.463 0 30.8-12.416 12.337-12.417 12.337-30.772 0-18.355-12.394-30.692-12.393-12.337-30.715-12.337v-150.391q18.435 0 30.772-12.417T645.5-480.08q0-18.355-12.394-30.692-12.393-12.337-30.715-12.337-8.637 0-17.275 3.822-8.638 3.822-15.116 10.374-5.399-6.552-14.036-10.374-8.638-3.822-18.341-3.822-18.327 0-30.725 12.369-12.398 12.368-12.398 30.652t12.456 30.74q12.457 12.457 30.653 12.457V-286.5q-18.196 0-30.653 12.368-12.456 12.369-12.456 30.653 0 18.283 12.397 30.74 12.396 12.456 30.722 12.456ZM480-80q-25-52-33-111t-7.5-109q.5-50 5-83.5L449-417q3-18-7.5-31.88Q431-462.761 413-464l-23.972-3.5q-23.972-3.5-59.93-15t-78.408-32Q208.239-535 169.478-570q38.761 35 81.212 55.5 42.45 20.5 78.408 32t59.93 15L413-464q18 1.239 28.5 15.166Q452-434.906 449-417l-4.5 33.5q-4.5 33.5-5 83.5t7.5 109q8 59 33 111Z"/></svg>