<svg xmlns="http://www.w3.org/2000/svg" height="24" viewBox="0 -960 960 960" width="24"><path d="M350-528.587v229q0 15 10.5 25.5t25.5 10.5q15 0 25.5-10.5t10.5-25.5v-256.5q0-19.152-13.174-32.326T376.5-601.587H338q-15 0-25.5 10.5t-10.5 25.5q0 15 11 26t26 11h11Zm178 265h48q30 0 51.38-21 21.381-21 21.381-51v-193q0-30-21.43-51.5-21.429-21.5-51.331-21.5h-48q-30 0-51 21.5t-21 51.5v193q0 30 21 51t51 21Zm0-72v-193h48v193h-48ZM396.174-840q-18.525 0-31.056-12.696-12.531-12.695-12.531-31.13t12.531-31.011q12.531-12.576 31.056-12.576h167.652q18.525 0 31.056 12.531 12.531 12.531 12.531 31.056 0 18.435-12.531 31.13Q582.351-840 563.826-840H396.174ZM480-65.413q-75.913 0-142.849-29.071-66.937-29.072-117.011-79.055-50.075-49.982-79.173-116.917t-29.098-142.848q0-75.913 29.12-142.837 29.12-66.924 79.185-116.989 50.065-50.066 116.989-79.185 66.924-29.12 142.837-29.12 62.478 0 120.435 20 57.956 20 108.195 58.239l28.24-28.239q12.434-12.435 30.75-12.435 18.315 0 30.75 12.435 12.435 12.435 12.435 30.75 0 18.315-12.435 30.75l-28.239 28.239q38.239 50.24 58.119 108.077 19.881 57.837 19.881 120.315 0 75.913-29.098 142.848-29.098 66.935-79.173 116.917-50.074 49.983-117.011 79.055Q555.913-65.413 480-65.413Z"/></svg>