<svg xmlns="http://www.w3.org/2000/svg" height="24" viewBox="0 -960 960 960" width="24"><path d="M480-85.065q-11.349 0-22.698-2.859-11.349-2.858-21.563-8.576L159.326-249.587q-21.66-12.425-34.199-33.321-12.54-20.896-12.54-46.005v-302.174q0-25.109 12.54-46.005 12.539-20.896 34.199-33.321L435.739-863.5q10.214-5.718 21.563-8.576 11.349-2.859 22.698-2.859t22.698 2.859q11.349 2.858 21.563 8.576l276.413 153.087q21.66 12.425 34.199 33.321 12.54 20.896 12.54 46.005v302.174q0 25.109-12.54 46.005-12.539 20.896-34.199 33.321L524.261-96.5q-10.214 5.718-21.563 8.576-11.349 2.859-22.698 2.859ZM363.283-594.544q22.239-22.521 51.739-35.782 29.5-13.261 64.978-13.261 35.478 0 64.859 13.261 29.38 13.261 51.619 35.782L708.587-657 480-783.696 251.413-657l111.87 62.456Zm73.13 394.326V-322.37q-52.239-14.239-86.12-57.217-33.88-42.978-33.88-100.413 0-10.283.761-19.804.761-9.522 3.522-18.283l-117.109-65.695v254.741l232.826 128.823Zm43.619-203.369q31.533 0 53.957-22.456 22.424-22.455 22.424-53.989 0-31.533-22.456-53.957-22.455-22.424-53.989-22.424-31.533 0-53.957 22.456-22.424 22.455-22.424 53.989 0 31.533 22.456 53.957 22.455 22.424 53.989 22.424Zm43.555 203.369 232.826-128.823v-254.741l-117.109 65.695q2.761 9.522 3.522 18.663.761 9.141.761 19.424 0 57.435-33.88 100.413-33.881 42.978-86.12 57.217v122.152Z"/></svg>