<svg xmlns="http://www.w3.org/2000/svg" height="24" viewBox="0 -960 960 960" width="24"><path d="M231.391-193.782h252.435v-40H231.391v40Zm36.218-363.827h180q12.956 0 22.674-9.717Q480-577.043 480-590q0-12.957-9.717-22.674-9.718-9.717-22.674-9.717h-180q-12.957 0-22.674 9.717-9.718 9.717-9.718 22.674 0 12.957 9.718 22.674 9.717 9.717 22.674 9.717Zm0-102.391h180q12.956 0 22.674-9.717Q480-679.435 480-692.391q0-12.957-9.717-22.674-9.718-9.718-22.674-9.718h-180q-12.957 0-22.674 9.718-9.718 9.717-9.718 22.674 0 12.956 9.718 22.674Q254.652-660 267.609-660Zm375.739 142.391v-86.217h73.543v-74.739h-73.543v-86.218h68.761q35.152 0 60.684 23.5 25.533 23.5 28.642 57.457H880q18.196 0 30.652 12.456 12.457 12.457 12.457 30.653 0 18.195-12.457 30.652-12.456 12.456-30.652 12.456h-79.043q-3.348 33.479-28.761 56.739-25.414 23.261-60.087 23.261h-68.761ZM483.826-320h-86.217v-197.609h160v-247.174h-320q-33 0-56.5 23.5t-23.5 56.5v87.174q0 33 23.5 56.5t56.5 23.5h80V-320h-86.218v-111.869q-66.717-2.631-113.359-50.827-46.64-48.195-46.64-114.913v-87.174q0-68.564 48.826-117.391Q169.044-851 237.609-851h314.739q37.782 0 64.391 26.609 26.609 26.608 26.609 64.391v237.609q0 37.782-26.609 64.391-26.609 26.609-64.391 26.609h-68.522V-320ZM213.304-107.565q-28.388 0-48.259-20.011t-19.871-48.359v-75.934q0-28.388 19.871-48.26Q184.916-320 213.304-320h288.609q28.388 0 48.259 19.871 19.872 19.872 19.872 48.26v75.934q0 28.348-19.872 48.359-19.871 20.011-48.259 20.011H213.304Zm144.305-533.631Zm126.217 447.414H231.391h252.435Z"/></svg>