<svg xmlns="http://www.w3.org/2000/svg" height="24" viewBox="0 -960 960 960" width="24"><path d="M855.978-765.305q6.24-6.239 14.875-9.739 8.636-3.5 17.779-3.5 19.303 0 32.662 13.359 13.358 13.359 13.358 32.598 0 9.478-3.619 17.978-3.62 8.5-9.859 14.739-17.043 17.044-27.685 37.304-10.641 20.261-10.641 46.066 0 24.553 10.141 45.179 10.142 20.625 26.663 36.908 8 7 11.62 15.632 3.619 8.633 3.619 18.789 0 19.296-13.23 32.535-13.23 13.239-32.567 13.239-9.159 0-17.659-3.5-8.5-3.5-14.739-9.5-31.283-28.522-49.283-66.945-18-38.424-18-82.337 0-43.522 17.642-81.903 17.641-38.38 48.923-66.902Zm-129.913-130.63q6.239-6 14.37-9.62 8.13-3.619 17.277-3.619 19.31 0 32.429 13.207 13.12 13.207 13.12 32.51 0 10.089-4 18.664-4 8.575-11 14.814-42.668 41-67.475 95.5-24.808 54.5-24.808 117.5 0 63.436 24.859 118.816t67.859 96.38q7.239 6.239 11.239 14.739 4 8.5 4 18.766 0 18.478-13.293 31.824-13.294 13.345-31.7 13.345-9.203 0-17.322-3.62-8.12-3.619-14.359-9.619-56.478-53.239-89.837-125.837-33.359-72.598-33.359-154.794 0-81.478 33-153.653t89-125.303ZM360.837-448.37q-69.707 0-118.978-49.272-49.272-49.271-49.272-118.858t49.272-118.859q49.271-49.272 118.858-49.272t118.859 49.272q49.272 49.272 49.272 118.859 0 69.587-49.152 118.858-49.152 49.272-118.859 49.272ZM32.587-203.348v-29.369q0-36.587 19.272-67.261 19.271-30.674 49.271-45.674 51-26 116.794-44.359 65.793-18.359 142.793-18.359t142.794 18.12q65.793 18.119 116.793 44.119 30 15 49.272 45.913 19.272 30.914 19.272 67.501v29.369q0 37.783-26.609 64.392-26.609 26.608-64.391 26.608H123.587q-37.783 0-64.391-26.608-26.61-26.609-26.61-64.392Zm91 0h474.261v-28.174q0-11-5.5-19.641-5.5-8.641-14.5-13.641-36-18-92.022-35.283-56.022-17.283-125.109-17.283-69.087 0-125.108 17.403-56.022 17.402-92.022 35.215-9 4.948-14.5 13.589t-5.5 19.641v28.174ZM360.709-539.37q31.813 0 54.476-22.655 22.663-22.654 22.663-54.467t-22.655-54.476q-22.654-22.663-54.467-22.663t-54.476 22.655q-22.663 22.654-22.663 54.467t22.655 54.476q22.654 22.663 54.467 22.663Zm.008-77.13Zm0 413.152Z"/></svg>