<svg xmlns="http://www.w3.org/2000/svg" height="24" viewBox="0 -960 960 960" width="24"><path d="m480-458.609 70.5 42.652q12.674 7.957 25.109-.739 12.434-8.695 8.956-23.369L566-520.609l62.978-54.695q11.435-10.196 6.837-24.37-4.598-14.174-20.272-15.413l-82.477-6.492-32.436-76.051q-5.732-13.913-20.638-13.913-14.905 0-20.622 13.913l-32.436 76.051-82.477 6.492q-15.674 1.239-20.272 15.413-4.598 14.174 6.837 24.37L394-520.609l-18.565 80.544q-3.478 14.674 8.956 23.369 12.435 8.696 25.109.739l70.5-42.652Zm-248.131 226.74-82.434 82.434q-21.631 21.631-49.598 9.771-27.968-11.86-27.968-42.358V-797.13q0-37.783 26.61-64.392 26.608-26.609 64.391-26.609h634.26q37.783 0 64.392 26.609 26.609 26.609 26.609 64.392v474.26q0 37.783-26.609 64.392-26.609 26.609-64.392 26.609H231.869Zm-34-91.001H797.13v-474.26H162.87v508.499l34.999-34.239Zm-34.999 0v-474.26 474.26Z"/></svg>