<svg xmlns="http://www.w3.org/2000/svg" height="24" viewBox="0 -960 960 960" width="24"><path d="M481-152.696q-30.239 19.283-64.62 27.783-34.38 8.5-69.38 8.5-35 0-69-9.261t-65-27.022q-22 12.522-45.5 20.783-23.5 8.261-48.5 12.261-17.435 2.239-30.01-9.837Q76.412-141.565 76.412-160t12.076-31.511q12.076-13.076 30.511-17.554 19-5 35.62-13.12 16.619-8.119 32.619-19.119 11.239-8 25.62-8.12 14.38-.12 25.38 7.88 24 17 51.881 26.979 27.88 9.978 56.88 9.978 29.239 0 57.5-9.478 28.261-9.479 52.261-26.718 11.239-8 25.359-7.38 14.119.619 25.358 8.619 23.761 17 51.142 25.979 27.38 8.978 56.38 8.978 29.761 0 57.522-10.739t52.521-27.739q11.24-7.239 23.957-7.62 12.717-.38 23.957 7.859 15.76 10.761 31.76 19.641 16 8.881 34.522 13.881 18.435 5.478 31.391 18.174 12.957 12.695 12.957 31.13t-13.076 31.011q-13.076 12.576-31.511 9.337-24-4-46.5-12.641-22.5-8.642-43.5-20.403-30.239 17.761-64.62 27.022-34.38 9.261-69.38 9.261-35 0-69.38-9.261-34.381-9.261-64.62-27.022ZM76.413-300v-83.587q0-97.717 37.859-182.435 37.858-84.717 103.337-147.196 65.478-62.478 153.576-98.337Q459.283-847.413 560-847.413q17 0 35.5.739t35.978 3.5q22.152 3.478 32.489 23.272 10.337 19.793.142 39.706-9.522 20.044-15.022 40.805t-5.5 42.804q0 53.565 36.13 89.576Q715.848-571 769.413-571H840q18.435 0 31.011 12.576t12.576 31.011q0 18.435-12.576 31.13-12.576 12.696-31.011 12.696h-70.587q-90.435 0-151.717-61.283-61.283-61.282-61.283-151.717 0-12.804 1.641-26.75 1.642-13.946 5.163-27.75-70.652 18.957-115.141 75.663-44.489 56.707-44.489 131.837 0 35.522 11.022 66.706 11.021 31.185 30.348 58.033l9.891-6.848q11.956-8.717 25.391-8.598 13.435.12 25.152 8.837 22.044 15.522 52.424 26.283 30.381 10.761 57.185 10.761 27.283 0 56.946-10.881 29.663-10.88 52.184-26.163 11.957-7.956 25.131-8.456 13.174-.5 25.369 7.456l19.131 13.087q11 6.239 22.619 11.5 11.62 5.261 23.62 8.5 18.435 5.479 31.011 18.413 12.576 12.935 12.576 31.37 0 18.435-13.076 30.891-13.076 12.457-31.511 9.218-23.478-4.239-45.978-12.381Q770.522-324 749-336.522 716.761-317 683.88-308.5 651-300 615-300q-35.761 0-71.761-10-36-10-62.239-26.522Q450-318 416-309.5t-69 9.5q-34.761.761-69-9t-65-27.522q-31.239 17.761-65.696 27.142Q112.848-300 76.413-300Z"/></svg>