<svg xmlns="http://www.w3.org/2000/svg" height="24" viewBox="0 -960 960 960" width="24"><path d="M480-71.87q-84.913 0-159.348-32.097-74.435-32.098-129.511-87.174-55.076-55.076-87.174-129.511Q71.869-395.087 71.869-480q0-63.435 17.479-120.25 17.478-56.815 50.195-105.772L55-790.804Q42.522-803.283 42.522-820.5q0-17.217 12.478-29.696 12.478-12.478 29.696-12.478 17.217 0 29.695 12.478l738.631 738.631Q865.5-99.087 865.381-82.25q-.12 16.837-12.598 29.315-12.479 12.479-29.576 12.479-17.098 0-29.577-12.479l-87.608-86.608q-48.957 32.717-105.772 50.195Q543.435-71.869 480-71.869Zm344.087-187.413-216.109-216.63 69.783-69.783q12.435-12.434 12.435-31.228 0-18.793-12.435-31.228-13.196-13.196-31.728-13.196-18.533 0-30.968 13.196l-69.543 70.304-286.239-286.239q48.239-30.522 103.858-47.283 55.62-16.761 116.859-16.761 84.913 0 159.348 32.098 74.435 32.098 129.511 87.174 55.076 55.076 87.174 129.511Q888.131-564.913 888.131-480q0 61.239-16.761 116.859-16.761 55.619-47.283 103.858ZM279.37-435.13l111.847 111.847q13.674 13.674 32.066 13.674 18.391 0 32.065-13.674l33.848-34.087-62.457-62.456-6.565 6.565-81.457-81.456q-11.956-11.957-29.793-11.837-17.837.119-29.554 12.076-11.718 11.956-11.718 29.793t11.718 29.555Z"/></svg>