<svg xmlns="http://www.w3.org/2000/svg" height="24" viewBox="0 -960 960 960" width="24"><path d="M440-106.13v31.391q0 18.674-12.815 31.49-12.815 12.814-31.489 12.814t-31.49-12.815q-12.815-12.815-12.815-31.489v-33.109q-25-5.717-42.88-23.695-17.881-17.978-22.881-44.218l-13.239-80.717q-6.239-37.717 17.641-66.794 23.881-29.076 61.359-30.271v-45.805q-9.282 3.044-18.065 4.305-8.783 1.261-18.826 1.261-101.913 0-173.707-70.359Q69-534.5 69-635.935v-45.022q0-103.108 71.315-175.858t174.185-72.75q52.152 0 88.826 36.315Q440-856.935 440-804.783q0 51.674-36.794 87.392-36.793 35.717-88.706 35.717h-33.304q-18.674 0-31.49-12.815-12.815-12.815-12.815-31.489t12.815-31.49q12.816-12.815 31.49-12.815h32.586q14.848 0 25.033-10.304T349-805.739q0-14.848-10.185-25.033t-25.033-10.185q-64.804 0-110.489 46.283-45.684 46.283-45.684 111.326v45.261q0 64.565 45.804 110.13 45.804 45.566 110.369 45.566 14.848 0 25.033-10.305Q349-503 349-517.848t-10.185-25.032q-10.185-10.185-25.033-10.185h-32.586q-18.674 0-31.49-12.815-12.815-12.816-12.815-31.49 0-18.673 12.815-31.489 12.816-12.815 31.49-12.815H314.5q51.674 0 88.587 35.717Q440-570.239 440-518.565v164.783h80v-164.783q0-51.674 36.913-87.392 36.913-35.717 88.587-35.717h33.304q18.674 0 31.49 12.815 12.815 12.816 12.815 31.489 0 18.674-12.815 31.49-12.816 12.815-31.49 12.815h-32.586q-14.848 0-25.033 10.065T611-518.087q0 14.848 10.185 25.152 10.185 10.305 25.033 10.305 64.565 0 110.369-45.566 45.804-45.565 45.804-109.891v-45.261q0-65.043-45.684-111.326-45.685-46.283-110.489-46.283-14.848 0-25.033 10.185T611-805.739q0 14.848 10.185 25.152t25.033 10.304h32.586q18.674 0 31.49 12.815 12.815 12.816 12.815 31.49t-12.815 31.489q-12.816 12.815-31.49 12.815H645.5q-51.913 0-88.706-35.717Q520-753.109 520-804.783q0-52.152 36.674-88.467t88.826-36.315q102.87 0 174.185 72.75T891-680.957v45.022q0 101.435-71.793 171.794-71.794 70.359-173.707 70.359-10.043 0-18.826-1.261-8.783-1.261-18.065-4.305v45.805q37.478 1.195 61.359 30.271 23.88 29.077 17.641 66.794l-13.239 80.717q-5 26.24-22.881 44.218-17.88 17.978-42.88 23.695v33.109q0 18.674-12.815 31.49-12.816 12.814-31.49 12.814T532.815-43.25Q520-56.065 520-74.739v-31.391h-80Z"/></svg>