<svg xmlns="http://www.w3.org/2000/svg" height="24" viewBox="0 -960 960 960" width="24"><path d="M315.217-553.782H164.783q-37.783 0-64.392-26.609Q73.782-607 73.782-644.783v-150.434q0-37.783 26.609-64.392 26.609-26.609 64.392-26.609h150.434q37.783 0 64.392 26.609 26.609 26.609 26.609 64.392v150.434q0 37.783-26.609 64.392-26.609 26.609-64.392 26.609Zm-150.434-91.001h150.434v-150.434H164.783v150.434Zm150.434 571H164.783q-37.783 0-64.392-26.608Q73.782-127 73.782-164.783v-150.434q0-37.783 26.609-64.392 26.609-26.609 64.392-26.609h150.434q37.783 0 64.392 26.609 26.609 26.609 26.609 64.392v150.434q0 37.783-26.609 64.392Q353-73.782 315.217-73.782Zm-150.434-91h150.434v-150.434H164.783v150.434Zm630.434-388.999H644.783q-37.783 0-64.392-26.609-26.609-26.609-26.609-64.392v-150.434q0-37.783 26.609-64.392 26.609-26.609 64.392-26.609h150.434q37.783 0 64.392 26.609 26.609 26.609 26.609 64.392v150.434q0 37.783-26.609 64.392-26.609 26.609-64.392 26.609Zm-150.434-91.001h150.434v-150.434H644.783v150.434Zm150.434 571H644.783q-37.783 0-64.392-26.608-26.609-26.609-26.609-64.392v-150.434q0-37.783 26.609-64.392 26.609-26.609 64.392-26.609h150.434q37.783 0 64.392 26.609 26.609 26.609 26.609 64.392v150.434q0 37.783-26.609 64.392Q833-73.782 795.217-73.782Zm-150.434-91h150.434v-150.434H644.783v150.434Zm-329.566-480Zm0 329.566Zm329.566-329.566Zm0 329.566Z"/></svg>