<svg xmlns="http://www.w3.org/2000/svg" height="24" viewBox="0 -960 960 960" width="24"><path d="M760.891-83.804 642.783-201.152l-25.239 87q-6.718 22.391-24.87 35.565t-40.783 13.174H408.109q-22.631 0-40.783-13.174t-24.87-35.565L300.5-255.022q-48-38-78.315-96.315Q191.869-409.652 191.869-480q0-36 9.12-70.576 9.12-34.576 26.598-66.011L83.761-760.174q-12.478-12.478-12.478-29.815 0-17.337 12.478-29.815 12.478-12.479 29.815-12.479 17.337 0 29.815 12.479l677.131 677.13Q833-130.196 833-113.239q0 16.956-12.478 29.435-12.479 12.478-29.816 12.478-17.336 0-29.815-12.478ZM480-282.87q18.565 0 35.489-3.141 16.924-3.141 32.489-9.185L295.435-547.739q-6.044 15.565-9.305 32.369-3.26 16.805-3.26 35.37 0 81.804 57.663 139.467Q398.196-282.87 480-282.87Zm253.218-60.108-68.131-68.131q6.522-16.282 9.283-32.826 2.76-16.543 2.76-36.065 0-81.804-57.663-139.467Q561.804-677.13 480-677.13q-19.283 0-36.304 2.88-17.022 2.88-32.587 9.163l-94.37-94.37 25.717-86.391q6.718-21.631 24.87-35.185 18.152-13.554 40.783-13.554h143.782q22.631 0 40.783 13.174t24.87 35.565l41.956 140.87q50.631 40.63 79.631 99.304t29 125.674q0 37.674-8.718 72.109-8.717 34.435-26.195 64.913ZM422.63-152.587h114.74l15.76-49.326q-14.521 4.761-34.945 6.902-20.424 2.142-38.185 2.142-17.761 0-38.185-2.142-20.424-2.141-34.945-6.902l15.76 49.326Zm-15.76-605.5q14.521-4.761 35.326-7.402Q463-768.131 480-768.131q17.761 0 38.185 2.642 20.424 2.641 34.945 7.402l-15.76-49.326H422.63l-15.76 49.326Zm15.76 605.5h-15.76 146.26-130.5Zm-15.76-654.826h146.26-146.26Z"/></svg>