<svg xmlns="http://www.w3.org/2000/svg" height="24" viewBox="0 -960 960 960" width="24"><path d="M480-71.87q-140.587 0-234.359-96.271Q151.869-264.413 151.869-408q0-58.652 25.729-118.619 25.728-59.968 66.413-117.207 40.684-57.239 91-110.109 50.315-52.869 99.489-96.804 9.435-8.957 21.25-12.935 11.815-3.978 24.25-3.978t24.25 3.978q11.815 3.978 21.25 12.935 49.174 43.935 99.489 96.804 50.316 52.87 91 110.109 40.685 57.239 66.413 117.207Q808.131-466.652 808.131-408q0 143.587-93.772 239.859Q620.587-71.869 480-71.869Zm11.717-129.326q13.196-1 22.413-10.217 9.218-9.217 9.218-22.174 0-14.717-9.837-24.054-9.837-9.337-24.794-8.337-42.434 3-85.326-22.261-42.891-25.261-54.652-88.435-2-11.478-10.978-19.196-8.978-7.717-21.413-7.717-15.196 0-24.913 11.217-9.718 11.218-6.478 26.174 17 91.239 79.88 130.12 62.88 38.88 126.88 34.88Z"/></svg>