<svg xmlns="http://www.w3.org/2000/svg" height="24" viewBox="0 -960 960 960" width="24"><path d="M443.761-318.087q-44.848 0-88.152 11.381-43.305 11.38-84.544 32.902l12.759 110.934h392.589l13-115.217q-34.804-.239-65.924-6.359-31.119-6.119-82.446-20.641-22.924-7-47.842-10t-49.44-3ZM260.63-370.283q44.761-19.282 90.891-28.924 46.129-9.641 93.24-9.641 30.564 0 60.619 4.12 30.055 4.119 59.533 12.119 48.804 13.761 74.826 18.761 26.022 5 54.826 5.239h4.805l46.565-428.521h-531.87l46.565 426.847Zm22.196 298.414q-35.065 0-60.793-22.87-25.729-22.87-29.207-57.935L124.304-775.5q-5.478-45.5 25.162-79.065 30.641-33.566 76.034-33.566h509q45.393 0 76.034 33.566Q841.174-821 835.696-775.5l-68.283 622.826q-3.478 35.065-29.206 57.935-25.729 22.87-60.794 22.87H282.826Zm160.935-91.001h232.652-392.587 159.935Z"/></svg>