<svg xmlns="http://www.w3.org/2000/svg" height="24" viewBox="0 -960 960 960" width="24"><path d="M173.079-151.869q-25.492 0-43.351-17.849-17.859-17.849-17.859-43.347v-169.326q0-25.499 17.845-43.347 17.845-17.849 43.337-17.849 25.492 0 43.351 17.849 17.859 17.848 17.859 43.347v169.326q0 25.498-17.845 43.347t-43.337 17.849Zm163.348-251.718q-25.492 0-43.351-17.849-17.859-17.849-17.859-43.347v-39.521q0-25.499 17.845-43.347 17.845-17.849 43.337-17.849 25.492 0 43.351 17.849 17.859 17.848 17.859 43.347v39.521q0 25.498-17.845 43.347t-43.337 17.849ZM460.253-605.5q-25.492 0-43.351-17.849-17.859-17.849-17.859-43.347v-39.043q0-25.498 17.845-43.347t43.337-17.849q25.492 0 43.351 17.849 17.859 17.849 17.859 43.347v39.043q0 25.498-17.845 43.347-17.844 17.849-43.337 17.849Zm163.348-80q-25.492 0-43.351-17.845-17.859-17.844-17.859-43.337 0-25.492 17.845-43.351 17.845-17.858 43.337-17.858 25.492 0 43.351 17.844 17.859 17.845 17.859 43.337 0 25.492-17.845 43.351-17.845 17.859-43.337 17.859Zm163.348 533.631q-25.492 0-43.351-17.849-17.859-17.849-17.859-43.347v-533.631q0-25.498 17.845-43.347 17.845-17.848 43.337-17.848 25.492 0 43.351 17.848 17.859 17.849 17.859 43.347v533.631q0 25.498-17.845 43.347t-43.337 17.849Z"/></svg>