<svg xmlns="http://www.w3.org/2000/svg" height="24" viewBox="0 -960 960 960" width="24"><path d="M209.217-259.195q-28.761 0-44.761 12.902-16 12.902-45.847 21.38-17.674 5.196-31.848-7.119t-14.174-31.946q0-19.391 12.935-33.924 12.934-14.533 30.087-23.967 16.521-8.761 35.902-18.544 19.38-9.782 57.706-9.782 59.957 0 78.816 20.358 18.858 20.359 55.337 20.359 38.956 0 57.815-20.359 18.858-20.358 78.815-20.358 58.196 0 79.174 20.358 20.978 20.359 57.456 20.359 38.957 0 56.696-20.359 17.739-20.358 77.696-20.358 38.326 0 57.826 9.782 19.5 9.783 35.782 18.544 17.153 9.434 30.088 23.967 12.934 14.533 12.934 33.924 0 19.631-13.793 31.946-13.794 12.315-31.468 7.119-30.087-8.478-46.587-21.38-16.5-12.902-44.782-12.902-36.957 0-55.696 20.359-18.739 20.358-78.696 20.358-58.195 0-78.934-20.358-20.739-20.359-57.696-20.359-38.478 0-57.576 20.359-19.098 20.358-79.054 20.358-59.957 0-77.816-20.358-17.858-20.359-56.337-20.359Zm0-171q-28.521 0-45.021 12.902t-46.348 21.38q-17.674 5.196-31.468-7.119-13.793-12.316-13.793-31.946 0-19.392 12.935-33.924 12.934-14.533 30.087-23.968 16.521-8.76 35.902-18.543 19.38-9.783 57.706-9.783 58.196 0 77.935 20.359 19.739 20.359 56.218 20.359 38.956 0 57.815-20.359 18.858-20.359 78.815-20.359 58.196 0 78.674 20.359 20.478 20.359 55.956 20.359 38.957 0 57.696-20.359 18.739-20.359 78.696-20.359 36.565 0 56.445 9.783 19.881 9.783 36.403 18.543 17.913 9.435 30.848 23.968 12.934 14.532 12.934 33.924 0 19.63-14.174 32.065-14.174 12.435-31.848 7.239-30.326-8.478-46.326-21.5-16-13.021-44.282-13.021-36.957 0-55.696 20.358-18.739 20.359-78.696 20.359-58.195 0-78.934-20.359-20.739-20.358-57.696-20.358-38.478 0-56.337 20.358-17.859 20.359-77.815 20.359-59.957 0-80.055-20.359-20.097-20.358-56.576-20.358Zm0-171.001q-28.521 0-45.021 12.902-16.5 12.903-46.348 21.381-17.674 5.196-31.468-7.12-13.793-12.315-13.793-31.945 0-19.392 12.935-33.924 12.934-14.533 30.087-23.968 16.521-8.761 35.902-18.543 19.38-9.783 57.706-9.783 58.196 0 77.935 20.359 19.739 20.358 56.218 20.358 38.956 0 57.815-20.358 18.858-20.359 78.815-20.359 58.196 0 78.674 20.359 20.478 20.358 55.956 20.358 38.957 0 57.696-20.358 18.739-20.359 78.696-20.359 36.565 0 56.445 9.783 19.881 9.782 36.403 18.543 17.913 9.435 30.848 23.968 12.934 14.532 12.934 33.924 0 19.63-14.174 32.065-14.174 12.435-31.848 7.239-30.326-8.478-46.326-21.5t-44.282-13.022q-36.957 0-55.696 20.359-18.739 20.359-78.696 20.359-58.195 0-78.934-20.359-20.739-20.359-57.696-20.359-38.478 0-56.337 20.359t-77.815 20.359q-59.957 0-80.055-20.359-20.097-20.359-56.576-20.359Z"/></svg>