<svg xmlns="http://www.w3.org/2000/svg" height="24" viewBox="0 -960 960 960" width="24"><path d="M247.87-483.087q47-22.283 96.543-33.424 49.544-11.141 100.348-11.141 30.478 0 60.576 4.119 30.098 4.12 59.576 12.359 50 14 76.381 19 26.38 5 56.141 5h14.935l33.565-309.956h-531.87l33.805 314.043Zm34.717 411.218q-35.065 0-60.674-23.13-25.609-23.131-29.087-57.436l-69.522-634.5q-4.478-40.261 22.25-70.728 26.729-30.468 67.75-30.468h533.392q41.021 0 67.869 30.468 26.848 30.467 22.37 70.728l-69.522 634.5Q763.935-118.13 738.326-95q-25.609 23.13-60.674 23.13H282.587Z"/></svg>