<svg xmlns="http://www.w3.org/2000/svg" height="24" viewBox="0 -960 960 960" width="24"><path d="M680-161.913v-636.174q36.109 0 61.761 25.533 25.652 25.532 25.652 61.641v461.587q0 36.058-25.677 61.735-25.678 25.678-61.736 25.678ZM160-74.5q-37.538 0-64.269-26.731Q69-127.963 69-165.5v-629q0-37.537 26.731-64.269Q122.462-885.5 160-885.5h349q37.537 0 64.269 26.731Q600-832.037 600-794.5v629q0 37.537-26.731 64.269Q546.537-74.5 509-74.5H160Zm687.413-175.065v-461.348q26.435 0 45.011 18.696Q911-673.521 911-647.087v333.935q0 26.494-18.546 45.04-18.546 18.547-45.041 18.547Z"/></svg>