<svg xmlns="http://www.w3.org/2000/svg" height="24" viewBox="0 -960 960 960" width="24"><path d="M160-152.587q-53.089 0-90.251-37.162Q32.587-226.911 32.587-280v-200q0-34.48 24.695-59.033 24.696-24.554 59.163-24.554 34.466 0 59.011 24.554Q200-514.48 200-480v160h560v-160q0-34.435 24.544-59.011 24.545-24.576 59.011-24.576 34.467 0 59.163 24.554Q927.413-514.48 927.413-480v200q0 53.089-37.162 90.251-37.162 37.162-90.251 37.162H160ZM280-400v-80q0-55.63-36.652-97.424-36.652-41.794-90.761-56.554V-680q0-53.089 37.162-90.251 37.162-37.162 90.251-37.162h400q53.089 0 90.251 37.162 37.162 37.162 37.162 90.251v46.022q-56.109 10.043-91.761 53.576Q680-536.87 680-480v80H280Z"/></svg>