<svg xmlns="http://www.w3.org/2000/svg" height="24" viewBox="0 -960 960 960" width="24"><path d="M480-684.783q16.043 0 26.826-10.902 10.783-10.902 10.783-26.706 0-16.044-10.783-26.826Q496.043-760 480-760q-15.804 0-26.706 10.783-10.903 10.782-10.903 26.826 0 15.804 10.903 26.706 10.902 10.902 26.706 10.902Zm120.174 0h57.565q34.304 0 59.294 22.511 24.989 22.511 30.467 55.816l55.326 387.565q5.718 41.021-21.13 72.348-26.848 31.326-68.87 31.326H247.174q-42.022 0-68.87-31.326-26.848-31.327-21.13-72.348L212.5-606.456q5.478-33.305 30.467-55.816 24.99-22.511 59.294-22.511h57.565q-2.761-9.521-4.402-18.424-1.642-8.902-1.642-19.184 0-52.392 36.914-89.305 36.913-36.913 89.304-36.913 52.391 0 89.304 36.913 36.914 36.913 36.914 89.305 0 10.282-1.642 19.184-1.641 8.903-4.402 18.424Z"/></svg>