<svg xmlns="http://www.w3.org/2000/svg" height="24" viewBox="0 -960 960 960" width="24"><path d="m440.87-542.63-27.044-27.044q-12.478-12.478-28.956-12.478-16.479 0-28.957 12.478-12.478 12.478-12.478 29.457 0 16.978 12.478 29.456l52.891 53.891q13.674 13.674 32.066 13.674 18.391 0 32.065-13.674L608-592.174q12.478-12.478 12.359-29.337-.12-16.859-12.598-29.337-12.478-12.478-29.337-12.478t-29.337 12.478L440.87-542.63ZM480-192.457q120.326-110.087 178.728-198.597 58.402-88.511 58.402-161.903 0-107.326-68.663-175.749Q579.804-797.13 480-797.13q-99.804 0-168.467 68.424-68.663 68.423-68.663 175.749 0 73.392 58.402 161.783Q359.674-302.783 480-192.457Zm0 92.153q-14.957 0-29.794-5.239-14.836-5.239-26.554-15.718-66.435-60.717-117.391-117.956-50.957-57.239-85.055-111.218-34.097-53.978-51.717-104.554-17.62-50.576-17.62-97.968 0-153.347 99.011-244.261 99.011-90.913 229.12-90.913t229.12 90.913q99.011 90.914 99.011 244.261 0 47.392-17.62 97.968t-51.717 104.554q-34.098 53.979-85.055 111.218-50.956 57.239-117.391 117.956-11.718 10.479-26.554 15.718-14.837 5.239-29.794 5.239ZM480-560Z"/></svg>