<svg xmlns="http://www.w3.org/2000/svg" height="24" viewBox="0 -960 960 960" width="24"><path d="M151.63-107.087q-19.913 0-30.467-18.456-10.555-18.457-7.315-40.131 15.717-111.935 36.293-201.739 20.576-89.805 46.033-153.315 25.456-63.511 55.652-97.848 30.196-34.337 63.87-34.337 41.674 0 81.51 57 39.837 57 65.359 161.217 13.478-100.804 31.696-178.848 18.217-78.043 41.054-131.445 22.837-53.403 50.174-80.663 27.337-27.261 58.815-27.261 42.435 0 76.49 47.478 34.054 47.478 60.13 136.391Q807-580.131 824.457-452.685q17.456 127.446 25.935 287.381 1.239 22.391-10.077 40.304-11.315 17.913-31.706 17.913-19.391 0-34.565-12.674t-20.653-31.826q-20.761-77.282-53.424-140.098-32.663-62.815-55.663-62.815t-55.282 61.315q-32.283 61.316-53.044 138.598-5.717 20.152-20.771 33.826-15.055 13.674-35.207 13.674t-34.707-14.695q-14.554-14.696-17.032-35.609-9-64.804-22.5-128.283-13.5-63.478-28.761-117.054t-31.022-93.011q-15.761-39.435-30.282-56.152-14.522 16.478-30.163 55.793-15.642 39.316-30.903 92.892-15.26 53.576-28.76 117.054-13.5 63.478-22.5 128.522-2.479 20.913-17.033 35.728-14.555 14.815-34.707 14.815Zm396.979-285.109q21.565-26.174 45.848-39.739 24.282-13.565 49.847-13.565 24.566 0 49.229 13.706 24.663 13.707 45.989 39.598-16.565-138.608-42.489-237.956-25.924-99.348-52.729-125.218-27.043 26.109-53.086 126.598-26.044 100.489-42.609 236.576Z"/></svg>