<svg xmlns="http://www.w3.org/2000/svg" height="24" viewBox="0 -960 960 960" width="24"><path d="M888.131-194 312.587-769.305v-34.999q0-37.783 26.609-64.392 26.608-26.609 64.391-26.609h152.826q37.783 0 64.391 26.609 26.609 26.609 26.609 64.392v80H797.13q37.783 0 64.392 26.608 26.609 26.609 26.609 64.392V-194ZM403.587-724.304h152.826v-80H403.587v80ZM162.87-111.869q-37.783 0-64.392-26.609Q71.87-165.087 71.87-202.87v-430.434q0-37.783 26.61-64.392 26.608-26.608 64.391-26.608h72.586v114.391L51.935-793.674q-11.718-11.717-11.718-29.315t11.718-29.315q11.717-11.718 29.315-11.718t29.315 11.718l741.739 741.739q11.718 11.717 11.718 29.195 0 17.479-11.718 29.196-11.717 11.718-29.315 11.718t-29.315-11.718l-59.935-59.695H162.87Z"/></svg>