<svg xmlns="http://www.w3.org/2000/svg" height="40" viewBox="0 -960 960 960" width="40"><path d="M344.26-551.03v163.34q0 9.51 6 15.52 6.01 6.02 15.26 6.02 9.51 0 15.53-6.02 6.03-6.01 6.03-15.52v-184.87q0-9.26-6.02-15.27-6.01-6.02-15.52-6.02h-61.49q-9.25 0-15.27 6.01-6.01 6.01-6.01 15.26 0 9.5 6.01 15.53 6.02 6.02 15.27 6.02h40.21Zm160.25 184.88h92.05q13.56 0 24.47-10.92 10.92-10.92 10.92-24.47v-156.92q0-13.55-10.92-24.47-10.91-10.92-24.47-10.92h-92.05q-13.8 0-24.59 10.92t-10.79 24.47v156.92q0 13.55 10.79 24.47 10.79 10.92 24.59 10.92Zm7.44-34.31v-62.92h77.18v62.92h-77.18Zm0-96.16v-62.92h77.18v62.92h-77.18ZM202.57-140q-25.85 0-44.21-18.36T140-202.57v-554.86q0-25.85 18.36-44.21T202.57-820h554.86q25.85 0 44.21 18.36T820-757.43v554.86q0 25.85-18.36 44.21T757.43-140H202.57Z"/></svg>