<svg xmlns="http://www.w3.org/2000/svg" height="40" viewBox="0 -960 960 960" width="40"><path d="M445.28-365.28v-70.26h70.26v70.26h-70.26ZM390.26-700h179.48v-77.43q0-4.62-3.84-8.47-3.85-3.84-8.47-3.84H402.57q-4.62 0-8.47 3.84-3.84 3.85-3.84 8.47V-700ZM162.57-140q-25.79 0-44.18-18.39T100-202.57v-172.71h295.03v28.97q0 13.14 9.08 22.21t22.23 9.07h108.33q13.4 0 22.26-9.07 8.86-9.07 8.86-22.21v-28.97H860v172.71q0 25.79-18.39 44.18T797.43-140H162.57ZM100-425.54v-211.89q0-25.79 18.39-44.18T162.57-700H340v-77.43q0-25.79 18.39-44.18T402.57-840h154.86q25.79 0 44.18 18.39T620-777.43V-700h177.43q25.79 0 44.18 18.39T860-637.43v211.89H565.79v-28.97q0-13.39-8.95-22.34-8.96-8.94-22.36-8.94H426.16q-13.16 0-22.15 8.94-8.98 8.95-8.98 22.34v28.97H100Z"/></svg>