<svg xmlns="http://www.w3.org/2000/svg" height="40" viewBox="0 -960 960 960" width="40"><path d="M306.36-700v-82.05q0-25.81 18.25-44.19 18.24-18.37 44.31-18.37h221.75q25.81 0 44.18 18.37 18.38 18.38 18.38 44.19V-700h144.2q25.82 0 44.19 18.38Q860-663.25 860-637.43v434.86q0 25.82-18.38 44.19Q823.25-140 797.43-140H162.57q-25.82 0-44.19-18.38Q100-176.75 100-202.57v-434.86q0-25.82 18.38-44.19Q136.75-700 162.57-700h143.79Zm50.26 0h246.35v-82.05q0-5.13-3.59-8.72-3.59-3.59-8.71-3.59H368.92q-5.12 0-8.71 3.59-3.59 3.59-3.59 8.72V-700ZM150.26-286.97h659.48v-97.39H150.26v97.39Z"/></svg>