<svg xmlns="http://www.w3.org/2000/svg" height="40" viewBox="0 -960 960 960" width="40"><path d="M310-427.18V-400q0 8.02 5.47 13.5 5.47 5.47 13.49 5.47 8.01 0 13.5-5.47 5.49-5.48 5.49-13.5v-92.31q0-8.02-5.47-13.5-5.47-5.47-13.49-5.47t-13.5 5.47q-5.49 5.48-5.49 13.5v27.18h-41.03q-8.02 0-13.5 5.47-5.47 5.47-5.47 13.49t5.47 13.5q5.48 5.49 13.5 5.49H310Zm106.67 0h274.36q8.02 0 13.5-5.47 5.47-5.47 5.47-13.49 0-8.01-5.47-13.5-5.48-5.49-13.5-5.49H416.67q-8.03 0-13.5 5.47-5.48 5.47-5.48 13.49t5.48 13.5q5.47 5.49 13.5 5.49ZM650-574.87h41.03q8.02 0 13.5-5.47 5.47-5.47 5.47-13.49t-5.47-13.5q-5.48-5.49-13.5-5.49H650V-640q0-8.02-5.47-13.5-5.47-5.47-13.49-5.47-8.01 0-13.5 5.47-5.49 5.48-5.49 13.5v92.31q0 8.02 5.47 13.5 5.47 5.47 13.49 5.47t13.5-5.47q5.49-5.48 5.49-13.5v-27.18Zm-381.03 0h274.36q8.03 0 13.5-5.47 5.48-5.47 5.48-13.49t-5.48-13.5q-5.47-5.49-13.5-5.49H268.97q-8.02 0-13.5 5.47-5.47 5.47-5.47 13.49 0 8.01 5.47 13.5 5.48 5.49 13.5 5.49ZM162.57-220q-25.85 0-44.21-18.36T100-282.57v-474.86q0-25.85 18.36-44.21T162.57-820h634.86q25.85 0 44.21 18.36T860-757.43v474.86q0 25.85-18.36 44.21T797.43-220h-182.3v48.72q0 13.46-8.91 22.37T583.84-140H376.16q-13.47 0-22.38-8.91-8.91-8.91-8.91-22.37V-220h-182.3Z"/></svg>