<svg xmlns="http://www.w3.org/2000/svg" height="40" viewBox="0 -960 960 960" width="40"><path d="M162.57-140q-25.85 0-44.21-18.36T100-202.57v-434.86q0-25.85 18.36-44.21T162.57-700h87.28v64.82L97.64-787.79q-7.23-7.24-7.42-17.5-.19-10.27 7.42-17.89 7.62-7.36 17.9-7.36 10.28 0 17.9 7.36L856.56-99.64q7.23 7.23 7.09 17.5-.14 10.27-7.75 17.88-7.36 7.62-17.57 7.62-10.2 0-17.56-7.62L745.03-140H162.57ZM860-637.43v368.64q0 12-8.03 18.92-8.02 6.92-17.87 6.92-4.59 0-9.5-1.88-4.91-1.89-8.96-5.94L356.57-709.18q-7.98-7.97-12.27-18.81-4.3-10.83-4.3-22.37v-27.07q0-25.44 18.57-44 18.56-18.57 44-18.57h154.86q25.85 0 44.21 18.57 18.36 18.56 18.36 44V-700h177.43q25.44 0 44 18.36Q860-663.28 860-637.43ZM390.26-700h179.48v-77.43q0-4.62-3.84-8.47-3.85-3.84-8.47-3.84H402.57q-4.62 0-8.47 3.84-3.84 3.85-3.84 8.47V-700Z"/></svg>