<svg xmlns="http://www.w3.org/2000/svg" height="40" viewBox="0 -960 960 960" width="40"><path d="M809.74-630v-87.43q0-4.62-3.84-8.47-3.85-3.84-8.47-3.84H710q-10.68 0-17.9-7.27-7.23-7.26-7.23-18 0-10.73 7.23-17.86Q699.32-780 710-780h87.43q25.79 0 44.18 18.39T860-717.43V-630q0 10.68-7.26 17.9-7.27 7.23-18 7.23-10.74 0-17.87-7.23-7.13-7.22-7.13-17.9ZM100-630v-87.43q0-25.79 18.39-44.18T162.57-780H250q10.68 0 17.9 7.26 7.23 7.27 7.23 18 0 10.74-7.23 17.87-7.22 7.13-17.9 7.13h-87.43q-4.62 0-8.47 3.84-3.84 3.85-3.84 8.47V-630q0 10.68-7.27 17.9-7.26 7.23-18 7.23-10.73 0-17.86-7.23Q100-619.32 100-630Zm697.43 450H710q-10.68 0-17.9-7.26-7.23-7.27-7.23-18 0-10.74 7.23-17.87 7.22-7.13 17.9-7.13h87.43q4.62 0 8.47-3.84 3.84-3.85 3.84-8.47V-330q0-10.68 7.27-17.9 7.26-7.23 18-7.23 10.73 0 17.86 7.23Q860-340.68 860-330v87.43q0 25.79-18.39 44.18T797.43-180Zm-634.86 0q-25.79 0-44.18-18.39T100-242.57V-330q0-10.68 7.26-17.9 7.27-7.23 18-7.23 10.74 0 17.87 7.23 7.13 7.22 7.13 17.9v87.43q0 4.62 3.84 8.47 3.85 3.84 8.47 3.84H250q10.68 0 17.9 7.27 7.23 7.26 7.23 18 0 10.73-7.23 17.86Q260.68-180 250-180h-87.43Zm74.87-200v-200q0-25.61 18.47-44.09 18.48-18.47 44.09-18.47h360q25.61 0 44.09 18.47 18.47 18.48 18.47 44.09v200q0 25.61-18.47 44.09-18.48 18.47-44.09 18.47H300q-25.61 0-44.09-18.47-18.47-18.48-18.47-44.09Z"/></svg>