<svg xmlns="http://www.w3.org/2000/svg" height="40" viewBox="0 -960 960 960" width="40"><path d="M162.57-180q-25.85 0-44.21-18.57-18.36-18.56-18.36-44v-474.86q0-25.44 18.36-44Q136.72-780 162.57-780h239.51l70.25 70.26h325.1q25.44 0 44 18.56 18.57 18.57 18.57 44v404.61q0 25.44-18.57 44-18.56 18.57-44 18.57H162.57ZM480-303.33q61.38 0 104.54-43.16 43.15-43.15 43.15-104.54 0-61.38-43.15-104.53-43.16-43.16-104.54-43.16-61.38 0-104.54 43.16-43.15 43.15-43.15 104.53 0 61.39 43.15 104.54 43.16 43.16 104.54 43.16Zm-57.33-235.18q12.84-8.16 27.07-12.77 14.23-4.62 30.26-4.62 43.9 0 74.38 30.49 30.49 30.49 30.49 74.38 0 16.03-4.61 30.26-4.62 14.23-12.77 27.08L422.67-538.51ZM480-346.15q-43.49 0-74.18-30.7-30.69-30.69-30.69-74.18 0-16.02 4.61-30.25 4.62-14.23 13.03-27.08L537.33-363.8q-12.84 8.41-27.07 13.03-14.23 4.62-30.26 4.62Z"/></svg>