<svg xmlns="http://www.w3.org/2000/svg" height="40" viewBox="0 -960 960 960" width="40"><path d="M162.57-180q-25.71 0-44.14-18.43T100-242.57v-474.86q0-25.71 18.43-44.14T162.57-780H180v72L68.31-819.95q-7.44-7.22-7.32-17.7.11-10.48 7.97-18.04 7.85-7.82 18-7.82 10.14 0 17.96 7.82l751.64 752.25Q864-96 864.19-85.81q.19 10.19-7.66 17.76-7.6 7.82-17.87 7.82-10.27 0-17.84-7.82L708-180H162.57Zm0-50.26h495.18L240.41-647.85h-90.15v405.28q0 5.39 3.46 8.85t8.85 3.46ZM860-717.43v467.48q0 12.44-7.82 18.78-7.81 6.35-17.19 6.35-9.38 0-17.31-6.57-7.94-6.57-7.94-18.76v-397.7H437.72q-12.86 0-24.45-5.07-11.58-5.08-20.19-13.44l-60.18-60.43q-7.36-8.03-8.99-16.98-1.63-8.95 1.78-17.31 3.16-8.35 10.84-13.64 7.68-5.28 18.24-5.28h442.66q25.71 0 44.14 18.43T860-717.43ZM720-528.72v113.95q0 20.72-19.22 28.68-19.22 7.96-33.98-6.81L552.9-506.8q-14.77-14.76-6.81-33.98T574.77-560h113.95q13.4 0 22.34 8.94t8.94 22.34Z"/></svg>