<svg xmlns="http://www.w3.org/2000/svg" height="40" viewBox="0 -960 960 960" width="40"><path d="M162.57-180q-25.79 0-44.18-18.39T100-242.57v-181.02q0-13.56 8.86-22.42 8.87-8.86 22.42-8.86h172.85l73.18 146.36q3.4 6.82 9.67 10.23t13.05 3.41q6.79 0 13.03-3.41 6.25-3.41 9.63-10.23L560-583.13l57.31 114.62q3.39 6.82 9.65 10.23t13.04 3.41h188.72q13.55 0 22.42 8.86 8.86 8.86 8.86 22.42v181.02q0 25.79-18.39 44.18T797.43-180H162.57ZM100-717.43q0-25.79 18.39-44.18T162.57-780h634.86q25.79 0 44.18 18.39T860-717.43v181.02q0 13.56-8.86 22.42-8.87 8.86-22.42 8.86H655.87l-73.18-145.95q-3.18-6.43-9.31-9.24-6.13-2.81-13.36-2.81-6.84 0-13.19 2.81-6.34 2.81-9.52 9.24L400-376.87l-57.31-114.62q-3.39-6.82-9.65-10.23T320-505.13H131.28q-13.55 0-22.42-8.86-8.86-8.86-8.86-22.42v-181.02Z"/></svg>