<svg xmlns="http://www.w3.org/2000/svg" height="40" viewBox="0 -960 960 960" width="40"><path d="M792.57-597.31q-112.96-9.38-194.84 15.32-81.88 24.71-152.09 93.73 44.52-97.54 140.93-141.05 96.41-43.51 205.23-43.51l-85.03-85.41q-7.23-7.23-7.23-17.31 0-10.07 7.23-17.3 7.23-7.24 17.5-7.24t17.5 7.24l136.31 135.92q9.35 9.36 9.35 21.92 0 12.56-9.35 21.92L741.77-476.77q-7.23 7.23-17.31 7.04-10.08-.19-17.31-7.42-7.23-7.23-7.23-17.5t7.23-17.5l85.42-85.16ZM180-552.77q0-131.69 87.04-219.46Q354.08-860 479.62-860q33.15 0 65.97 6.46t62.8 20.93q9.46 4.23 13.35 14.07 3.9 9.85-.33 19.31-4.23 9.46-14.08 13.26-9.84 3.79-19.3-.44-25.26-12.31-52.98-17.82-27.72-5.51-55.43-5.51-104.67 0-177.02 73.01-72.34 73.01-72.34 183.96 0 78.23 59.11 171.23 59.12 93 181.01 206.16 3.85 3.84 9.24 3.84 5.38 0 9.23-3.84 50.28-46.44 93.07-96.11 42.8-49.66 80.85-104.61 6-9.05 15.67-11.48 9.66-2.42 18.71 2.79 9.05 5.2 11.48 15.56 2.42 10.36-3.58 19.41-39.85 58.15-84.62 109.55-44.76 51.4-95.38 98.99-9.36 9.15-21.22 13.66-11.86 4.52-24.21 4.52-12.36 0-24.32-4.52-11.97-4.51-21.74-13.66-127.12-116.39-190.34-219.05Q180-463 180-552.77Z"/></svg>