<svg xmlns="http://www.w3.org/2000/svg" height="40" viewBox="0 -960 960 960" width="40"><path d="M676.75-508.67q-72.97 0-124.37-51.4-51.4-51.41-51.4-124.86 0-72.47 51.29-123.77 51.3-51.3 124.66-51.3 73.4 0 124.39 50.99 50.99 50.99 50.99 124.55 0 73.43-51.29 124.61-51.29 51.18-124.27 51.18Zm1.38-148.36q6.95 0 11.64-4.75t4.69-11.97v-98.81q0-6.82-4.9-11.52-4.89-4.69-11.97-4.69-7.08 0-11.64 4.9-4.57 4.9-4.57 12.09v98.43q0 7.2 4.9 11.76t11.85 4.56ZM400.08-283.9q20.77 0 35.34-14.53Q450-312.96 450-333.73q0-20.76-14.71-35.33-14.7-14.58-35.46-14.58-20.77 0-35.17 14.71-14.4 14.7-14.4 35.46 0 20.77 14.53 35.17 14.53 14.4 35.29 14.4ZM191.95-110.77q-7.47 0-12.57-4.3-5.09-4.3-7.15-10.49-2.05-6.19-.15-12.22 1.9-6.04 8.25-10.45L227.69-180q-52.9 0-90.29-37.4-37.4-37.39-37.4-90.29v-380.98q0-63.51 65.27-92.79 65.27-29.28 226.5-34.85 21.08-1.2 32.51 16.25 11.44 17.45 4.23 37.86-5.54 17.61-8.7 35.97-3.17 18.37-3.55 37.1-.39 11.32-7.78 19.79-7.4 8.47-19.07 8.47H150.26v175.08h344.51q7.91 0 15.68 2.91 7.78 2.92 14.37 7.8 14.2 10.93 29.89 19.52 15.7 8.59 32.88 15.02 20.26 8.21 41.32 12.32 21.05 4.12 43.21 3.89 11.65.38 19.76 7.68 8.12 7.3 8.12 18.8v90.93q0 53-37.4 89.96Q625.21-180 572.31-180l47.36 31.77q6.35 4.41 8.25 10.45 1.9 6.03-.15 12.22-2.06 6.19-7.08 10.49t-12.38 4.3H191.95Zm485.97-466.77q8.49 0 14.25-5.74 5.75-5.75 6.14-14.31 0-8.8-6.02-14.55-6.01-5.76-14.03-5.76-9.49.41-14.9 6.03-5.41 5.61-5.41 14.23 0 8.61 5.74 14.36 5.75 5.74 14.23 5.74Z"/></svg>