<svg xmlns="http://www.w3.org/2000/svg" height="40" viewBox="0 -960 960 960" width="40"><path d="m431.55-348.67 37.04 37.59q5 4.98 11.41 4.98t11.42-4.98l37.81-37.59h69.72q6.31 0 11.04-4.81 4.73-4.8 4.73-10.96v-70.79l35.3-35.31q4.95-4.95 4.95-11.36 0-6.41-4.95-11.36l-35.3-34.89v-70.39q0-6.2-4.73-10.86-4.73-4.65-11.04-4.65h-70.39l-37.14-37.37q-5.01-5.04-11.42-5.04t-11.41 5.04l-37.04 37.37h-69.01q-6.31 0-11.04 4.65-4.73 4.66-4.73 10.86v70.39l-35.72 35.3q-4.95 4.95-4.95 11.36 0 6.41 4.95 11.36l35.31 35.31v70.38q0 6.16 4.65 10.96 4.66 4.81 10.86 4.81h69.68ZM480-371.49v-218.92q45.36 0 77.14 31.82t31.78 77.64q0 45.82-31.78 77.64T480-371.49ZM162.57-180q-25.79 0-44.18-18.39T100-242.57v-474.86q0-25.79 18.39-44.18T162.57-780h634.86q25.79 0 44.18 18.39T860-717.43v474.86q0 25.79-18.39 44.18T797.43-180H162.57Z"/></svg>