<svg xmlns="http://www.w3.org/2000/svg" height="40" viewBox="0 -960 960 960" width="40"><path d="m697.19-700.93-55.47-25.58q-8.98-3.9-8.98-14.41 0-10.52 8.98-14.46l55.47-25.84 25.58-55.22q3.9-9.23 14.41-9.23t14.46 9.23l25.84 55.22 55.21 25.84q9.23 3.89 9.23 14.41 0 10.51-9.23 14.46l-55.21 25.58-25.84 55.47q-3.9 8.97-14.41 8.97t-14.46-8.97l-25.58-55.47Zm93 315.56-45.75-21.53q-4.95-2.2-4.95-7.27 0-5.06 4.95-7.45l45.85-21.48 21.53-45.75q2.2-4.94 7.27-4.94 5.06 0 7.45 4.94l21.48 45.86 45.75 21.53q4.95 2.2 4.95 7.27 0 5.06-4.95 7.45l-45.86 21.48-21.53 45.75q-2.2 4.95-7.26 4.95-5.07 0-7.46-4.95l-21.47-45.86ZM343.18-100q-11.8 0-20.5-7.96-8.71-7.96-10.45-19.78l-6.95-59.03q-14.5-3.92-30.3-12.22-15.8-8.29-27.24-19.06l-51.25 22.43q-11.36 4.95-22.25 1.44-10.89-3.51-16.98-14.21L109-288.33q-6.15-10.98-3.68-22.8t13.09-18.92l47.39-32.67q-3.44-14.56-3.44-31.87 0-17.31 3.44-32.13l-47.39-32.67q-10.62-7.1-13.09-18.79-2.47-11.69 3.68-22.67l48.26-80.2q6.09-10.44 16.98-13.95t22.25 1.44l51.25 22.18q11.44-10.77 27.24-18.94 15.8-8.17 30.3-12.09l6.95-59.28q1.74-11.57 10.45-19.53 8.7-7.96 20.5-7.96h93.69q11.54 0 20.25 7.96 8.7 7.96 10.44 19.53l7.21 59.28q14.24 3.92 30.17 12.09 15.93 8.17 27.11 18.94l51.51-22.18q11.11-4.95 22-1.44 10.89 3.51 16.98 13.95l48.25 80.2q6.41 10.98 3.81 22.67-2.6 11.69-12.96 18.79L614-426.72q3.43 14.82 3.43 32.13 0 17.31-3.43 31.87l47.64 32.67q10.36 7.1 12.96 18.92 2.6 11.82-3.81 22.8l-48.25 79.94q-6.09 10.7-16.98 14.21-10.89 3.51-22-1.44l-51.51-22.43q-11.18 10.77-27.11 19.06-15.93 8.3-30.17 12.22l-7.21 59.03q-1.74 11.82-10.44 19.78-8.71 7.96-20.25 7.96h-93.69Zm46.63-187.8q44.65 0 75.83-31.08 31.18-31.09 31.18-75.75 0-44.65-31.09-75.7-31.09-31.05-75.74-31.05-44.66 0-75.71 30.96-31.05 30.96-31.05 75.61 0 44.66 30.96 75.84 30.96 31.17 75.62 31.17Z"/></svg>