<svg xmlns="http://www.w3.org/2000/svg" height="40" viewBox="0 -960 960 960" width="40"><path d="M162.57-100q-25.79 0-44.18-18.39T100-162.57v-468.92q0-25.78 18.39-44.17t44.18-18.39h95.69v-103.38q0-25.79 18.38-44.18Q295.03-860 320.82-860h476.61q25.79 0 44.18 18.39T860-797.43v476.61q0 25.79-18.39 44.18-18.39 18.38-44.18 18.38H694.05v95.69q0 25.79-18.39 44.18T631.49-100H162.57Zm158.25-208.51h476.61q4.62 0 8.47-3.85 3.84-3.85 3.84-8.46v-476.61q0-4.62-3.84-8.47-3.85-3.84-8.47-3.84H320.82q-4.61 0-8.46 3.84-3.85 3.85-3.85 8.47v476.61q0 4.61 3.85 8.46 3.85 3.85 8.46 3.85ZM440-534.87q-10.7 0-17.91-7.25-7.22-7.25-7.22-18t7.22-17.88q7.21-7.13 17.91-7.13h240q10.7 0 17.91 7.25 7.22 7.25 7.22 18T697.91-542q-7.21 7.13-17.91 7.13H440Z"/></svg>