<svg xmlns="http://www.w3.org/2000/svg" height="40" viewBox="0 -960 960 960" width="40"><path d="M860-199.69 439.69-620h357.74q25.71 0 44.14 18.43T860-557.43v357.74ZM249.95-809.74 199.69-860h357.74q25.71 0 44.14 18.43T620-797.43v99.48h-50.26v-99.48q0-5.01-3.65-8.66-3.65-3.65-8.66-3.65H249.95ZM402.57-100q-26.54 0-44.56-18.01Q340-136.03 340-162.57V-548L150.26-737.75v347.49h111.79V-340h-99.48q-26.54 0-44.56-18.01Q100-376.03 100-402.57V-788l-18.14-18.27q-7.6-7.49-7.49-17.85.12-10.37 7.97-18.19 7.86-7.82 18-7.82 10.15 0 17.97 7.82l724 724.62q7.43 7.43 7.62 17.5.2 10.06-7.66 17.88-7.85 7.82-18 7.82-10.14 0-18.01-7.82L788-100H402.57Z"/></svg>