<svg xmlns="http://www.w3.org/2000/svg" height="40" viewBox="0 -960 960 960" width="40"><path d="M860-757.43v448.89q0 10.31-5.81 17.59-5.81 7.28-13.91 10.69-8.36 3.16-17.24 2.05-8.89-1.1-16.25-8.46L326.67-766.79q-7.36-7.36-8.46-16.25-1.11-8.88 2.05-17.24 3.41-8.1 10.69-13.91 7.28-5.81 17.59-5.81h448.89q25.85 0 44.21 18.36T860-757.43Zm-685.28-61.65v71.59l-99.39-99.38q-7.23-7.23-7.08-17.71.14-10.47 7.75-18.09 7.36-7.61 17.44-7.61 10.07 0 17.69 7.61l741.74 741.08q7.23 7.23 7.42 17.5.2 10.27-7.42 17.88-7.61 7.62-17.9 7.62-10.28 0-17.89-7.62L702.87-220H615.9v48.72q0 13.56-8.86 22.42-8.86 8.86-22.43 8.86H376.16q-13.57 0-22.43-8.86t-8.86-22.42V-220h-182.3q-25.85 0-44.21-18.36T100-282.57v-474.86q0-26.41 18.57-44.03 18.56-17.62 39.79-17.62h16.36Z"/></svg>