<svg xmlns="http://www.w3.org/2000/svg" height="40" viewBox="0 -960 960 960" width="40"><path d="M162.57-220q-25.79 0-44.18-18.39T100-282.57v-394.86q0-25.79 18.39-44.18T162.57-740h634.86q25.79 0 44.18 18.39T860-677.43v394.86q0 25.79-18.39 44.18T797.43-220H162.57ZM715.9-364.1h-83.34q-9.33 0-15.43 6.08t-6.1 15.38q0 9.31 6.1 15.33 6.1 6.03 15.43 6.03h94.88q13.29 0 22.28-9 9-8.99 9-22.28v-95.13q0-9.22-6.08-15.25-6.09-6.03-15.39-6.03t-15.33 6.03q-6.02 6.03-6.02 15.25v83.59Zm-235.92-10.77q43.69 0 74.55-30.71 30.85-30.7 30.85-74.4 0-43.69-30.89-74.55-30.89-30.85-74.59-30.85-43.69 0-74.36 30.89t-30.67 74.59q0 43.69 30.71 74.36 30.7 30.67 74.4 30.67ZM244.1-593.59h83.59q9.22 0 15.25-6.03 6.03-6.03 6.03-15.26 0-9.22-6.03-15.38-6.03-6.15-15.25-6.15h-95.13q-13.29 0-22.28 9.12-9 9.12-9 22.16V-510q0 9.22 6.12 15.25 6.12 6.03 15.48 6.03 9.25 0 15.24-6.03 5.98-6.03 5.98-15.25v-83.59Z"/></svg>