<svg xmlns="http://www.w3.org/2000/svg" height="40" viewBox="0 -960 960 960" width="40"><path d="M100-202.57V-623.9q0-19.71 10.86-35.36 10.86-15.64 28.58-23.05L456.87-809.1q11.36-4.95 23.13-4.95t23.13 4.95l317.43 126.79q17.72 7.41 28.58 23.05Q860-643.61 860-623.9v421.33q0 25.88-18.35 44.22Q823.31-140 797.43-140H640v-307.69q0-5.39-3.46-8.85t-8.85-3.46H332.31q-5.39 0-8.85 3.46t-3.46 8.85V-140H162.57q-25.88 0-44.22-18.35Q100-176.69 100-202.57ZM376.03-140v-61.03h61.02V-140h-61.02Zm73.46-120v-61.03h61.02V-260h-61.02Zm73.46 120v-61.03h61.02V-140h-61.02Z"/></svg>