<svg xmlns="http://www.w3.org/2000/svg" height="40" viewBox="0 -960 960 960" width="40"><path d="M396.17-402.31q-10.32 0-17.09-6.75-6.77-6.76-6.77-17.09v-107.7q0-10.33 6.75-17.09 6.75-6.75 17.08-6.75 10.32 0 17.09 6.75 6.77 6.76 6.77 17.09v107.7q0 10.33-6.75 17.09-6.75 6.75-17.08 6.75Zm83.85 0q-10.33 0-17.1-6.75-6.77-6.76-6.77-17.09v-67.7q0-10.33 6.76-17.09 6.75-6.75 17.07-6.75 10.33 0 17.1 6.75 6.77 6.76 6.77 17.09v67.7q0 10.33-6.76 17.09-6.75 6.75-17.07 6.75Zm83.84 0q-10.32 0-17.09-6.75-6.77-6.76-6.77-17.09v-27.7q0-10.33 6.75-17.09 6.75-6.75 17.08-6.75 10.32 0 17.09 6.75 6.77 6.76 6.77 17.09v27.7q0 10.33-6.75 17.09-6.75 6.75-17.08 6.75ZM420.82-100q-16.87 0-30.58-10.15-13.72-10.15-18.49-27.03l-24.98-89.54q-4.95-16.56-15.26-31.72-10.3-15.15-27-29.64-40.1-34.69-62.3-84.28Q220-421.95 220-480.01q0-57.04 21.87-106.96 21.88-49.93 62.23-84.95 16.7-15.08 27.21-30.34 10.51-15.25 15.46-31.02l24.98-89.54q4.77-16.88 18.49-27.03Q403.95-860 420.82-860h118.36q16.87 0 30.58 10.15 13.72 10.15 18.49 27.03l24.98 89.54q4.95 16.56 15.46 31.72 10.51 15.15 27.21 29.64 40.35 34.28 62.23 84.07Q740-538.05 740-479.99q0 57.04-22.21 106.63-22.2 49.59-62.3 85.28-16.7 15.08-27 30.13-10.31 15.05-15.26 31.23l-24.98 89.54q-4.77 16.88-18.49 27.03Q556.05-100 539.18-100H420.82ZM480-270.26q87.46 0 148.6-61.14T689.74-480q0-87.46-61.14-148.6T480-689.74q-87.46 0-148.6 61.14T270.26-480q0 87.46 61.14 148.6T480-270.26Z"/></svg>