<svg xmlns="http://www.w3.org/2000/svg" height="40" viewBox="0 -960 960 960" width="40"><path d="M400-270.26q87.46 0 148.6-61.14T609.74-480q0-87.46-61.14-148.6T400-689.74q-87.46 0-148.6 61.14T190.26-480q0 87.46 61.14 148.6T400-270.26ZM340.82-100q-16.87 0-30.55-10.16-13.68-10.15-18.52-27.02l-24.98-89.54q-4.95-16.56-15.26-31.72-10.3-15.15-27-29.64-40.1-34.69-62.3-84.28Q140-421.95 140-480q0-57.05 21.87-106.97 21.88-49.93 62.23-84.95 16.7-15.08 27.21-30.34 10.51-15.25 15.46-31.02l24.98-89.54q4.84-16.87 18.52-27.02Q323.95-860 340.82-860h118.36q16.87 0 30.55 10.16 13.68 10.15 18.52 27.02l24.98 89.54q4.95 16.56 15.46 31.72 10.51 15.15 27.21 29.64 40.35 34.28 62.23 84.07Q660-538.05 660-480q0 57.05-22.21 106.64-22.2 49.59-62.3 85.28-16.7 15.08-27 30.13-10.31 15.05-15.26 31.23l-24.98 89.54q-4.84 16.87-18.52 27.02Q476.05-100 459.18-100H340.82Zm454.05-380.38q-10.87 0-18-7.13-7.13-7.13-7.13-18v-289.36q0-10.87 7.13-18 7.13-7.13 18-7.13 10.87 0 18 7.13 7.13 7.13 7.13 18v289.36q0 10.87-7.13 18-7.13 7.13-18 7.13Z"/></svg>