<svg xmlns="http://www.w3.org/2000/svg" height="40" viewBox="0 -960 960 960" width="40"><path d="M202.57-140q-25.61 0-44.09-18.48Q140-176.96 140-202.57v-554.86q0-25.61 18.48-44.09Q176.96-820 202.57-820h554.86q25.61 0 44.09 18.48Q820-783.04 820-757.43v554.86q0 25.61-18.48 44.09Q783.04-140 757.43-140H202.57Zm0-50.26h554.86q5.39 0 8.85-3.46t3.46-8.85v-487.17H190.26v487.17q0 5.39 3.46 8.85t8.85 3.46Zm102.56-304.61q-10.68 0-17.91-7.27-7.22-7.26-7.22-17.99 0-10.74 7.22-17.87 7.23-7.13 17.91-7.13H650q10.68 0 17.9 7.27 7.23 7.26 7.23 17.99 0 10.74-7.23 17.87-7.22 7.13-17.9 7.13H305.13Zm0 160q-10.68 0-17.91-7.27-7.22-7.26-7.22-17.99 0-10.74 7.22-17.87 7.23-7.13 17.91-7.13H490q10.68 0 17.9 7.27 7.23 7.26 7.23 17.99 0 10.74-7.23 17.87-7.22 7.13-17.9 7.13H305.13Z"/></svg>