<svg xmlns="http://www.w3.org/2000/svg" height="24" viewBox="0 -960 960 960" width="24"><path d="M346.154-686.154V-530q0 10.333 6.752 17.089 6.751 6.757 17.076 6.757t17.095-6.757q6.769-6.756 6.769-17.089v-180q0-10.333-6.757-17.089-6.756-6.757-17.089-6.757h-60q-10.333 0-17.089 6.752-6.757 6.751-6.757 17.076t6.757 17.095q6.756 6.769 17.089 6.769h36.154Zm175.385 180h96.922q15.039 0 25.212-10.173t10.173-25.212v-60.769q0-15.038-10.173-25.211-10.173-10.173-25.212-10.173h-84.615v-48.462H630q10.333 0 17.089-6.752 6.757-6.751 6.757-17.076t-6.757-17.095q-6.756-6.769-17.089-6.769H521.539q-15.039 0-25.212 10.173t-10.173 25.212v156.922q0 15.039 10.173 25.212t25.212 10.173Zm12.307-35.385v-60.769h72.308v60.769h-72.308ZM212.309-140.001q-30.308 0-51.308-21t-21-51.308v-535.382q0-30.308 21-51.308t51.308-21h535.382q30.308 0 51.308 21t21 51.308v535.382q0 30.308-21 51.308t-51.308 21H212.309Zm0-59.999h535.382q4.616 0 8.463-3.846 3.846-3.847 3.846-8.463v-535.382q0-4.616-3.846-8.463-3.847-3.846-8.463-3.846H212.309q-4.616 0-8.463 3.846-3.846 3.847-3.846 8.463v535.382q0 4.616 3.846 8.463 3.847 3.846 8.463 3.846ZM200-760V-200-760Zm93.846 353.846h52.308V-310q0 10.333 6.752 17.089 6.751 6.757 17.076 6.757t17.095-6.757q6.769-6.756 6.769-17.089v-96.154h52.308V-250q0 10.333 6.752 17.089 6.751 6.757 17.076 6.757t17.095-6.757q6.769-6.756 6.769-17.089v-170q0-14.692-9.577-24.269-9.577-9.577-24.269-9.577H280q-14.692 0-24.269 9.577-9.577 9.577-9.577 24.269v170q0 10.333 6.752 17.089 6.751 6.757 17.076 6.757t17.095-6.757q6.769-6.756 6.769-17.089v-156.154Zm300 120H680q14.692 0 24.269-9.577 9.577-9.577 9.577-24.269v-100q0-14.692-9.577-24.269-9.577-9.577-24.269-9.577H570q-10.333 0-17.089 6.757-6.757 6.756-6.757 17.089v180q0 10.333 6.752 17.089 6.751 6.757 17.076 6.757t17.095-6.757q6.769-6.756 6.769-17.089v-36.154Zm0-47.692v-72.308h72.308v72.308h-72.308Z"/></svg>