<svg xmlns="http://www.w3.org/2000/svg" height="24" viewBox="0 -960 960 960" width="24"><path d="m565.384-458.462 74.308 84q2 2.616 17.384 8.308 14.308 0 20.577-13 6.269-13-3.192-24.307l-66.77-77.308 67.77-77.154q9.461-10.923 3-23.423-6.462-12.5-21-12.5-5.077 0-9.448 2.266-4.372 2.266-7.552 6.042l-75.077 83.231V-570q0-10.333-6.752-17.089-6.751-6.757-17.076-6.757-10.326 0-17.095 6.757-6.769 6.756-6.769 17.089v180q0 10.333 6.751 17.089 6.752 6.757 17.077 6.757 10.325 0 17.094-6.757 6.77-6.756 6.77-17.089v-68.462Zm-250 44.616v-48.462H400q15.038 0 25.211-10.173 10.173-10.173 10.173-25.211v-60.769q0-15.039-10.173-25.212T400-593.846H291.539q-10.334 0-17.09 6.752-6.756 6.751-6.756 17.076t6.756 17.095q6.756 6.769 17.09 6.769h96.154v48.462h-84.616q-15.038 0-25.211 10.173-10.173 10.173-10.173 25.211V-390q0 10.333 6.756 17.089 6.756 6.757 17.09 6.757h120q10.333 0 17.089-6.752 6.756-6.751 6.756-17.076t-6.756-17.095q-6.756-6.769-17.089-6.769h-96.155ZM212.309-140.001q-30.308 0-51.308-21t-21-51.308v-535.382q0-30.308 21-51.308t51.308-21h535.382q30.308 0 51.308 21t21 51.308v535.382q0 30.308-21 51.308t-51.308 21H212.309Z"/></svg>