<svg xmlns="http://www.w3.org/2000/svg" height="24" viewBox="0 -960 960 960" width="24"><path d="M325.385-217.694H140q-17.692 0-29.999-12.307Q97.694-242.308 97.694-260T110-289.999q12.307-12.307 29.999-12.307h185.385q5.385 0 8.847-3.462 3.462-3.462 3.462-8.847v-110.77q0-5.385-3.462-8.847-3.462-3.462-8.847-3.462H140q-17.692 0-29.999-12.307Q97.694-462.308 97.694-480T110-509.999q12.307-12.307 29.999-12.307h185.385q5.385 0 8.847-3.462 3.462-3.462 3.462-8.847v-110.77q0-5.385-3.462-8.847-3.462-3.462-8.847-3.462H140q-17.692 0-29.999-12.307Q97.694-682.308 97.694-700T110-729.999q12.307-12.307 29.999-12.307h185.385q40.769 0 68.845 28.076t28.076 68.845v99.079q0 26.922-18.922 46.614Q384.461-480 358.693-480q25.768 0 44.691 19.692 18.922 19.692 18.922 46.614v99.079q0 40.769-28.076 68.845t-68.845 28.076Zm269.23-84.612h170.77q5.385 0 8.847-3.462 3.462-3.462 3.462-8.847v-330.77q0-5.385-3.462-8.847-3.462-3.462-8.847-3.462h-170.77q-5.385 0-8.847 3.462-3.462 3.462-3.462 8.847v330.77q0 5.385 3.462 8.847 3.462 3.462 8.847 3.462Zm0 84.612q-40.769 0-68.845-28.076t-28.076-68.845v-330.77q0-40.769 28.076-68.845t68.845-28.076h170.77q40.769 0 68.845 28.076t28.076 68.845v330.77q0 40.769-28.076 68.845t-68.845 28.076h-170.77Z"/></svg>