<svg xmlns="http://www.w3.org/2000/svg" height="24" viewBox="0 -960 960 960" width="24"><path d="m565.384-458.462 74.308 84q2 2.616 17.384 8.308 14.308 0 20.577-13 6.269-13-3.192-24.307l-66.77-77.308 67.77-77.154q9.461-10.923 3-23.423-6.462-12.5-21-12.5-5.077 0-9.423 2.231t-7.577 6.077l-75.077 83.231V-570q0-10.307-6.77-17.077-6.769-6.769-17.076-6.769-10.308 0-17.077 6.769-6.769 6.77-6.769 17.077v180q0 10.307 6.769 17.077 6.769 6.769 17.077 6.769 10.307 0 17.076-6.769 6.77-6.77 6.77-17.077v-68.462Zm-262.307 92.308H400q15.077 0 25.231-10.154 10.153-10.154 10.153-25.231v-156.922q0-15.077-10.153-25.231-10.154-10.154-25.231-10.154h-96.923q-15.077 0-25.23 10.154-10.154 10.154-10.154 25.231v156.922q0 15.077 10.154 25.231 10.153 10.154 25.23 10.154Zm12.307-131.538v-60.769h72.309v60.769h-72.309Zm0 96.153v-60.769h72.309v60.769h-72.309ZM212.309-140.001q-30.308 0-51.308-21t-21-51.308v-535.382q0-30.308 21-51.308t51.308-21h535.382q30.308 0 51.308 21t21 51.308v535.382q0 30.308-21 51.308t-51.308 21H212.309Z"/></svg>