<svg xmlns="http://www.w3.org/2000/svg" height="24" viewBox="0 -960 960 960" width="24"><path d="M480-859.999h16.154q8.076 0 16.153 1.231v60.614q-8.077-1.231-15.75-1.731t-16.557-.5q-102.923 0-172.423 70.462t-69.5 179.846q0 72.539 62.269 169.039Q362.616-284.537 480-179.461q116.615-104.307 178.692-199.846 62.077-95.539 63.231-168.077v-4.923h59.999v4.923q-.77 61.769-29.923 123.499-29.154 61.731-69.731 116.423t-84.153 98.23q-43.577 43.539-73.193 69.923-9.323 8.462-21.189 12.693-11.867 4.23-23.733 4.23-11.692 0-23.384-4.038-11.692-4.039-21.154-12.5-53.845-49.615-100.768-102.191-46.923-52.577-81.577-105.115-34.654-52.539-54.846-104.154-20.193-51.616-20.193-99.693 0-138.46 89.577-224.191Q357.231-859.999 480-859.999Zm.068 374.614q29.855 0 51.047-21.26 21.192-21.26 21.192-51.115t-21.26-51.047q-21.26-21.192-51.115-21.192t-51.047 21.26q-21.192 21.26-21.192 51.115t21.26 51.047q21.26 21.192 51.115 21.192ZM480-557.692ZM720-760v90.001q0 12.749 8.629 21.374Q737.257-640 750.013-640q12.755 0 21.37-8.625 8.616-8.625 8.616-21.374V-760h90q12.75 0 21.375-8.629 8.625-8.628 8.625-21.384 0-12.755-8.625-21.37-8.625-8.616-21.375-8.616h-90v-90q0-12.75-8.629-21.375t-21.384-8.625q-12.756 0-21.371 8.625Q720-922.749 720-909.999v90h-90.001q-12.749 0-21.374 8.629Q600-802.741 600-789.986q0 12.756 8.625 21.371Q617.25-760 629.999-760H720Z"/></svg>