<svg xmlns="http://www.w3.org/2000/svg" height="24" viewBox="0 -960 960 960" width="24"><path d="M711.923-684.616h16.538q11.462 0 19.193-7.923 7.73-7.923 7.73-19.384v-16.538q0-11.462-7.73-19.193-7.731-7.73-19.193-7.73h-16.538q-11.461 0-19.384 7.73-7.923 7.731-7.923 19.193v16.538q0 11.461 7.923 19.384t19.384 7.923ZM720-140.001q-74.922 0-127.461-52.538Q540.001-245.078 540.001-320t52.538-127.461Q645.078-499.999 720-499.999t127.461 52.538Q899.999-394.922 899.999-320t-52.538 127.461Q794.922-140.001 720-140.001Zm-17.692-162.307V-220q0 7.231 5.231 12.461 5.23 5.231 12.461 5.231t12.461-5.231q5.231-5.23 5.231-12.461v-82.308H820q7.231 0 12.461-5.231 5.231-5.23 5.231-12.461t-5.231-12.461q-5.23-5.231-12.461-5.231h-82.308V-420q0-7.231-5.231-12.461-5.23-5.231-12.461-5.231t-12.461 5.231q-5.231 5.23-5.231 12.461v82.308H620q-7.231 0-12.461 5.231-5.231 5.23-5.231 12.461t5.231 12.461q5.23 5.231 12.461 5.231h82.308Zm197.691-223.847q-36.308-34.307-83.115-51.768-46.808-17.461-96.884-17.461-16 0-30.693 1.846-14.693 1.846-29.308 6.154v-5.462q0-17.692-7.731-33.346-7.731-15.653-22.192-25.499L407.693-811.613v-17.309q0-29.308 20.884-50.192 20.885-20.885 50.192-20.885h348.922q29.923 0 51.115 21.193 21.193 21.192 21.193 51.115v301.536Zm-839.998 270v-296.691q0-17.692 8.039-33.346 8.038-15.653 22.5-25.499L278.23-745.46q19.077-13.461 41.769-13.461 22.692 0 41.769 13.461l195.076 138.691q11.384 8 17.269 19.962 5.885 11.962 5.885 25.346v6.539q-62 35.154-98.692 99.077Q444.616-391.922 444.616-320q0 26.769 4.769 51.115 4.769 24.345 15.307 48.884h-31.616q-15.461 0-25.807-10.347-10.346-10.346-10.346-25.807v-158.461q0-11.461-7.731-19.192T370-441.539h-99.615q-11.462 0-19.385 7.731-7.923 7.731-7.923 19.192v158.461q0 15.461-10.346 25.807-10.346 10.347-25.807 10.347H96.155q-15.461 0-25.808-10.347-10.345-10.346-10.345-25.807Z"/></svg>