<svg xmlns="http://www.w3.org/2000/svg" height="24" viewBox="0 -960 960 960" width="24"><path d="M717.679-615.386q-12.756 0-21.371-8.624-8.615-8.625-8.615-21.375v-50.001h-50.001q-12.75 0-21.374-8.628-8.625-8.629-8.625-21.384 0-12.756 8.625-21.371 8.624-8.615 21.374-8.615h50.001v-50.001q0-12.75 8.629-21.375 8.628-8.624 21.384-8.624 12.755 0 21.37 8.624 8.615 8.625 8.615 21.375v50.001h50.001q12.75 0 21.375 8.628 8.624 8.629 8.624 21.384 0 12.756-8.624 21.371-8.625 8.615-21.375 8.615h-50.001v50.001q0 12.75-8.628 21.375-8.629 8.624-21.384 8.624ZM298.463-290.001h350.766q10.653 0 15.98-9.846t-1.519-19.077l-95.384-127.767q-5.615-7.231-14.461-7.231t-14.489 7.33l-97.818 127.361L376-403.23q-5.615-6.846-14.269-6.846t-14.269 7.231l-63.076 83.921q-7.231 9.231-1.904 19.077 5.327 9.846 15.981 9.846Zm-93.847 150q-29.827 0-51.067-21.241-21.24-21.24-21.24-51.067v-535.382q0-29.827 21.24-51.067 21.24-21.241 51.067-21.241h317.692q12.75 0 21.374 8.625 8.625 8.625 8.625 21.375v113.845q0 15.366 10.394 25.76Q573.095-640 588.461-640h43.846v43.846q0 15.366 10.394 25.76Q653.095-560 668.461-560h113.845q12.75 0 21.375 8.625t8.625 21.374v317.692q0 29.827-21.241 51.067-21.24 21.241-51.066 21.241H204.616Z"/></svg>