<svg xmlns="http://www.w3.org/2000/svg" height="24" viewBox="0 -960 960 960" width="24"><path d="M681.539-298.463h-89.463q-12.384 0-20.691-8.625-8.308-8.624-8.308-21.374 0-12.384 8.625-21.192 8.625-8.807 21.374-8.807h88.463v-88.463q0-12.749 8.628-21.374 8.629-8.625 21.384-8.625 12.756 0 21.371 8.625 8.615 8.625 8.615 21.374v88.463h88.462q12.75 0 21.375 8.628 8.625 8.629 8.625 21.384 0 12.756-8.625 21.371-8.625 8.615-21.375 8.615h-88.462v88.462q0 12.75-8.629 21.375-8.628 8.625-21.384 8.625-12.755 0-21.37-8.625t-8.615-21.375v-88.462Zm-279.231 0H281.539q-75.338 0-128.438-53.093-53.1-53.093-53.1-128.422t53.1-128.444q53.1-53.115 128.438-53.115h120.769q12.384 0 21.192 8.807 8.807 8.808 8.807 21.384 0 12.577-8.807 21.192-8.808 8.615-21.192 8.615H281.493q-50.339 0-85.916 35.577T160-480q0 50.385 35.577 85.962 35.577 35.577 85.916 35.577h120.815q12.384 0 21.192 8.807 8.807 8.808 8.807 21.384 0 12.577-8.807 21.192-8.808 8.615-21.192 8.615ZM360-450.001q-12.75 0-21.374-8.628-8.625-8.629-8.625-21.384 0-12.756 8.625-21.371 8.624-8.615 21.374-8.615h240q12.75 0 21.375 8.628 8.624 8.629 8.624 21.384 0 12.756-8.624 21.371-8.625 8.615-21.375 8.615H360ZM859.999-480H800q0-50.385-35.577-85.962-35.577-35.577-85.914-35.577H556.692q-12.384 0-20.692-8.624-8.307-8.625-8.307-21.375 0-12.384 8.625-21.192 8.624-8.807 21.374-8.807h120.769q75.338 0 128.438 53.099 53.1 53.1 53.1 128.438Z"/></svg>