<svg xmlns="http://www.w3.org/2000/svg" height="24" viewBox="0 -960 960 960" width="24"><path d="M227.85-120.001q-15.506 0-31.321-9.347-15.815-9.346-23.066-22.192L81.155-313.077q-7.23-12.846-7.423-31.231-.192-18.384 7.423-31.23L333.463-808.46q7.615-12.846 23.192-22.192 15.576-9.347 31.038-9.347h184.614q15.462 0 31.038 9.347 15.577 9.346 23.192 22.192l170.461 292.383q-17.23-3.692-35.191-4.731-17.961-1.038-35.859 1.808L574-780H386L132-344l94 164h315.818q7.957 17.23 18.271 32.038 10.313 14.807 23.987 27.961H227.85Zm67.92-170L272.539-331l179.539-312.846h55.844l101.385 176.473q-12.384 9.986-23.23 21.715t-19.538 24.196L480-572.001 352.691-349.999h178.232q-5.077 14.384-7.615 29.191-2.539 14.808-2.923 30.807H295.77Zm434.231 40H640q-12.769 0-21.384-8.615T610.001-280q0-12.769 8.615-21.384T640-309.999h90.001V-400q0-12.769 8.615-21.384T760-429.999q12.769 0 21.384 8.615T789.999-400v90.001H880q12.769 0 21.384 8.615T909.999-280q0 12.769-8.615 21.384T880-250.001h-90.001V-160q0 12.769-8.615 21.384T760-130.001q-12.769 0-21.384-8.615T730.001-160v-90.001Z"/></svg>