<svg xmlns="http://www.w3.org/2000/svg" height="24" viewBox="0 -960 960 960" width="24"><path d="M480-140.001q-91.538 0-155.768-64.231-64.231-64.23-64.231-155.768 0-84.23 54.808-145.73 54.807-61.5 135.192-72.038v-222.229h59.998v222.229q81.385 10.538 135.692 72.038 54.308 61.5 54.308 145.73 0 91.538-64.231 155.768-64.23 64.231-155.768 64.231ZM480-200q58.693 0 102.346-37.077 43.654-37.077 54.193-92.924H323.461q10.539 55.847 54.193 92.924Q421.307-200 480-200ZM323.461-389.999h313.078Q626-445.846 582.346-482.923 538.693-520 480-520q-58.693 0-102.346 37.077-43.654 37.077-54.193 92.924Z"/></svg>