<svg xmlns="http://www.w3.org/2000/svg" height="24" viewBox="0 -960 960 960" width="24"><path d="M819.999-310.384 526.692-539.537q-24.307-19.077-54.538-14.961-30.23 4.115-48.307 29.423L330.539-396.69q-9.231 12.846-24.193 14.961-14.961 2.116-27.422-7.73L140.001-498.843v-68.847q0-22.692 19.885-32.538 19.884-9.846 37.961 3.615l86.769 65.077 154.846-217.155q18.077-25.307 49-29.73 30.923-4.423 55.23 15.269l129.384 103.153h74.615q29.923 0 51.115 21.193 21.193 21.192 21.193 51.115v277.307ZM140.001-180.001V-424.23L261.154-327q24.308 19.693 54.731 15.269 30.422-4.423 48.499-29.73l93.924-128.616q9.231-12.846 24-14.962 14.769-2.115 27.23 7.731L819.999-234.77v54.769H140.001Z"/></svg>