<svg xmlns="http://www.w3.org/2000/svg" height="24" viewBox="0 -960 960 960" width="24"><path d="M450.001-294.922v-455.077q0-12.769 8.615-21.384 8.615-8.616 21.384-8.616t21.384 8.616q8.615 8.615 8.615 21.384v455.077l206.77-206.77q8.923-8.923 20.884-8.807 11.962.115 21.269 9.423 8.692 9.307 9 21.076.308 11.769-9 21.076L505.307-205.309q-5.615 5.615-11.846 7.923-6.23 2.308-13.461 2.308t-13.461-2.308q-6.231-2.308-11.846-7.923L201.078-458.924q-8.308-8.307-8.5-20.576-.192-12.269 8.5-21.576 9.307-9.308 21.384-9.308t21.384 9.308l206.155 206.154Z"/></svg>