<svg xmlns="http://www.w3.org/2000/svg" height="24" viewBox="0 -960 960 960" width="24"><path d="M368.462-180.001H212.309q-30.308 0-51.308-21t-21-51.308v-535.382q0-30.308 21-51.308t51.308-21h535.382q30.308 0 51.308 21t21 51.308v535.382q0 30.308-21 51.308t-51.308 21H591.538l-86.231 86.23Q494.461-82.925 480-82.925q-14.461 0-25.307-10.846l-86.231-86.23ZM212.309-240h180.46L480-152.769 567.231-240h180.46q5.385 0 8.847-3.462 3.462-3.462 3.462-8.847v-535.382q0-5.385-3.462-8.847-3.462-3.462-8.847-3.462H212.309q-5.385 0-8.847 3.462-3.462 3.462-3.462 8.847v535.382q0 5.385 3.462 8.847 3.462 3.462 8.847 3.462Zm212.999-225.308 38.231 88.153q4.615 10.846 16.461 10.846 11.846 0 16.461-10.846l38.231-88.153 88.153-38.231q10.846-4.615 10.846-16.461 0-11.846-10.846-16.461l-88.153-38.231-38.231-88.153q-4.615-10.846-16.461-10.846-11.846 0-16.461 10.846l-38.231 88.153-88.153 38.231q-10.846 4.615-10.846 16.461 0 11.846 10.846 16.461l88.153 38.231ZM480-520Z"/></svg>