<svg xmlns="http://www.w3.org/2000/svg" height="24" viewBox="0 -960 960 960" width="24"><path d="m708.461-725.386-63.076-28.538q-9.307-3.821-9.307-13.756 0-9.936 9.307-13.782L708.461-810 737-873.076q3.821-9.308 13.756-9.308t13.781 9.308L793.076-810l63.076 28.538q9.308 3.821 9.308 13.757 0 9.935-9.308 13.781l-63.076 28.538-28.539 63.077q-3.821 9.307-13.756 9.307T737-662.309l-28.539-63.077Zm0 575.386-63.076-28.538q-9.307-3.821-9.307-13.757 0-9.935 9.307-13.781l63.076-28.538L737-297.691q3.821-9.307 13.756-9.307t13.781 9.307l28.539 63.077 63.076 28.538q9.308 3.821 9.308 13.756 0 9.936-9.308 13.782L793.076-150l-28.539 63.076q-3.821 9.308-13.756 9.308T737-86.924L708.461-150ZM305.616-412.693h136.462l23.462 61.769q3.231 8.308 9.731 13.269 6.499 4.962 15.102 4.962 14.858 0 22.858-11.846t3.154-25L412.462-650.384q-3.231-8.692-10.947-13.962-7.716-5.269-16.976-5.269h-21.384q-9.307 0-17.064 5.493-7.756 5.492-10.858 14.122L231.309-369.539q-4.846 13.154 3.231 25t22.692 11.846q8.692 0 15.384-4.962 6.692-4.961 9.923-13.269l23.077-61.769Zm15.308-44 52.923-151.769 52.924 151.769H320.924ZM373.847-240q100 0 170-70t70-170q0-100-70-170t-170-70q-100 0-170 70t-70 170q0 100 70 170t170 70Zm.061 59.999q-125.599 0-212.829-87.17-87.23-87.169-87.23-212.768t87.169-212.829q87.169-87.231 212.768-87.231t212.829 87.17q87.231 87.169 87.231 212.768t-87.17 212.829q-87.169 87.231-212.768 87.231ZM373.847-480Z"/></svg>