<svg xmlns="http://www.w3.org/2000/svg" height="24" viewBox="0 -960 960 960" width="24"><path d="M460-84.616q-87.769 0-149.269-61.5-61.5-61.499-61.5-149.268v-432.309q0-63.144 44.967-108.11 44.966-44.966 108.11-44.966t108.11 44.966q44.966 44.966 44.966 108.11v390.001q0 40.061-27.664 67.723-27.665 27.661-67.731 27.661-40.066 0-67.72-27.661-27.653-27.662-27.653-67.723v-366.155q0-10.333 6.751-17.09 6.751-6.756 17.077-6.756 10.325 0 17.094 6.756 6.769 6.757 6.769 17.09v366.155q0 20.269 13.712 33.981 13.712 13.712 33.981 13.712 20.269 0 33.981-13.712 13.712-13.712 13.712-33.981v-390.001q0-44.262-30.571-74.823-30.571-30.562-74.847-30.562-44.275 0-74.814 30.562-30.538 30.561-30.538 74.823v432.309q0 67.538 47.769 115.308Q392.461-132.307 460-132.307q67.539 0 115.308-47.769 47.769-47.77 47.769-115.308v-408.463q0-10.333 6.751-17.09 6.752-6.756 17.077-6.756 10.325 0 17.094 6.756 6.77 6.757 6.77 17.09v408.463q0 87.769-61.5 149.268-61.5 61.5-149.269 61.5Z"/></svg>