<svg xmlns="http://www.w3.org/2000/svg" height="24" viewBox="0 -960 960 960" width="24"><path d="m638-211.768 119.924-120.308q8.957-8.923 20.901-8.923 11.944 0 21.251 8.923 9.308 8.922 9.116 21.384-.193 12.461-9.116 21.384L663.307-152.539q-10.871 10.846-25.82 10.846-14.948 0-25.794-10.846l-51.769-52.385q-8.923-8.922-9.116-20.884-.192-11.961 9.116-21.268 8.922-8.923 21.006-8.551 12.084.371 21.146 8.551L638-211.768Zm-340.306 75.613V-754.23q0-15.366 10.394-25.76 10.394-10.394 25.759-10.394h72.307v-33.461q0-15.365 10.394-25.759 10.395-10.395 25.76-10.395h75.384q15.365 0 25.76 10.395 10.394 10.394 10.394 25.759v33.461h72.386q15.382 0 25.728 10.394 10.346 10.394 10.346 25.76v278.076q-7.615.77-15.065 1.448-7.451.679-14.901 2.036-81.956 16.286-136.379 80.786-54.422 64.5-54.422 151.115 0 38.845 12.538 74.653 12.538 35.807 35.768 66.115H333.847q-15.365 0-25.759-10.395-10.394-10.394-10.394-25.759Z"/></svg>