<svg xmlns="http://www.w3.org/2000/svg" height="24" viewBox="0 -960 960 960" width="24"><path d="M417.694-189.999v-100.002h-10.001q-78.85 0-134.425-55.575Q217.694-401.15 217.694-480q0-58.231 32.73-105.961 32.731-47.731 87.423-69.577 4.923-37.462 35.308-59.231 30.385-21.769 66.539-15.23l-12.462-33.847q-5-14.359 1.115-27.372 6.116-13.012 20.577-18.628l4.462-1.538-2.693-7.309q-4.846-12.307.764-24.098 5.611-11.791 19.236-16.67 12.307-4.231 24.183 1.062 11.875 5.293 15.97 18.322l2.693 7.308 2.307-.769q14.077-5.231 27.539 1.192 13.461 6.424 19.076 20.5l79.693 218.077q5.615 14.076-.5 27.23-6.116 13.154-20.193 18.769l-3.307 1.154 2.692 7.309q4.846 12.922-.764 25.038-5.611 12.115-19.236 16.961-12.307 4.23-24.182-1.063-11.876-5.293-15.971-18.322l-2.692-7.308-3.077 1.539q-14.462 5.615-28.18-.757-13.718-6.371-19.205-20.935l-12.308-34.924q-13.461 15.539-32.576 24.077-19.116 8.539-39.885 7.308-23.539-1.231-43.116-14.077-19.576-12.846-31.653-32.539-32.385 16.385-51.347 46.847Q277.692-517 277.692-480q0 54.167 37.917 92.084t92.084 37.917h280q12.75 0 21.374 8.628 8.625 8.629 8.625 21.384 0 12.756-8.625 21.371-8.624 8.615-21.374 8.615H502.306v100.002h210.001q12.75 0 21.375 8.628 8.624 8.629 8.624 21.384 0 12.756-8.624 21.371-8.625 8.615-21.375 8.615H247.693q-12.75 0-21.375-8.628-8.624-8.629-8.624-21.384 0-12.756 8.624-21.371 8.625-8.615 21.375-8.615h170.001Zm131.383-381.847 43.693-17.077-71.077-196.462L476-769.077l73.077 197.231Zm-121.411-23.538q18.95 0 31.796-12.82 12.847-12.819 12.847-31.769 0-18.95-12.82-31.796-12.819-12.847-31.769-12.847-18.95 0-31.797 12.82-12.846 12.819-12.846 31.769 0 18.95 12.819 31.796 12.82 12.847 31.77 12.847Zm121.411 23.538ZM427.693-640Zm0 0Z"/></svg>