<svg xmlns="http://www.w3.org/2000/svg" height="24" viewBox="0 -960 960 960" width="24"><path d="M213.847-266.154q22.923 0 38.384-15.462 15.462-15.461 15.462-38.384 0-22.923-15.462-38.384-15.461-15.462-38.384-15.462-22.923 0-38.384 15.462-15.462 15.461-15.462 38.384 0 22.923 15.462 38.384 15.461 15.462 38.384 15.462Zm160-176.923q15.692 0 26.308-10.615Q410.77-464.308 410.77-480t-10.615-26.308q-10.616-10.615-26.308-10.615t-26.307 10.615Q336.924-495.692 336.924-480t10.616 26.308q10.615 10.615 26.307 10.615Zm0-160q15.692 0 26.308-10.616Q410.77-624.308 410.77-640q0-15.692-10.615-26.307-10.616-10.616-26.308-10.616t-26.307 10.616Q336.924-655.692 336.924-640q0 15.692 10.616 26.307 10.615 10.616 26.307 10.616Zm-160 16.923q22.923 0 38.384-15.462 15.462-15.461 15.462-38.384 0-22.923-15.462-38.384-15.461-15.462-38.384-15.462-22.923 0-38.384 15.462-15.462 15.461-15.462 38.384 0 22.923 15.462 38.384 15.461 15.462 38.384 15.462Zm0 160q22.923 0 38.384-15.462 15.462-15.461 15.462-38.384 0-22.923-15.462-38.384-15.461-15.462-38.384-15.462-22.923 0-38.384 15.462-15.462 15.461-15.462 38.384 0 22.923 15.462 38.384 15.461 15.462 38.384 15.462Zm160 143.077q15.692 0 26.308-10.615Q410.77-304.308 410.77-320t-10.615-26.308q-10.616-10.615-26.308-10.615t-26.307 10.615Q336.924-335.692 336.924-320t10.616 26.308q10.615 10.615 26.307 10.615Zm320-16.923q9 0 14.5-5.5t5.5-14.5q0-9-5.5-14.5t-14.5-5.5q-9 0-14.5 5.5t-5.5 14.5q0 9 5.5 14.5t14.5 5.5Zm0-320q9 0 14.5-5.5t5.5-14.5q0-9-5.5-14.5t-14.5-5.5q-9 0-14.5 5.5t-5.5 14.5q0 9 5.5 14.5t14.5 5.5Zm0 160q9 0 14.5-5.5t5.5-14.5q0-9-5.5-14.5t-14.5-5.5q-9 0-14.5 5.5t-5.5 14.5q0 9 5.5 14.5t14.5 5.5Zm-160-143.077q15.692 0 26.308-10.616Q570.77-624.308 570.77-640q0-15.692-10.615-26.307-10.616-10.616-26.308-10.616t-26.307 10.616Q496.924-655.692 496.924-640q0 15.692 10.616 26.307 10.615 10.616 26.307 10.616Zm0 160q15.692 0 26.308-10.615Q570.77-464.308 570.77-480t-10.615-26.308q-10.616-10.615-26.308-10.615t-26.307 10.615Q496.924-495.692 496.924-480t10.616 26.308q10.615 10.615 26.307 10.615Zm0 160q15.692 0 26.308-10.615Q570.77-304.308 570.77-320t-10.615-26.308q-10.616-10.615-26.308-10.615t-26.307 10.615Q496.924-335.692 496.924-320t10.616 26.308q10.615 10.615 26.307 10.615Zm286.152-506.922v619.998q0 12.75-8.625 21.375t-21.375 8.625H170.001q-12.75 0-21.375-8.625t-8.625-21.375v-619.998q0-12.75 8.625-21.375t21.375-8.625h619.998q12.75 0 21.375 8.625t8.625 21.375Z"/></svg>