<svg xmlns="http://www.w3.org/2000/svg" height="24" viewBox="0 -960 960 960" width="24"><path d="M400-510ZM100.001-180.001v-449.998L400-854.998l248.075 184.845q-20.691 1.384-39.96 5.423-19.269 4.038-37.73 11.346L400-780 160-600v360h230.924q6.692 16.615 15.73 31.422 9.038 14.808 19.192 28.577H100.001Zm404.077 2.462q-36.539-36.846-57.231-84.221-20.693-47.374-20.693-98.24 0-106.42 74.178-180.133 74.178-73.713 179.589-73.713 106.386 0 180.156 73.713Q933.846-466.42 933.846-360q0 51-19.577 98.5t-57.731 82.961l-33.384-33.768q31.308-29.385 47.154-67.755 15.846-38.37 15.846-79.938 0-86.585-59.813-146.37-59.813-59.784-146.439-59.784-85.595 0-145.825 59.784-60.231 59.785-60.231 146.37 0 41.693 16.654 80.308 16.654 38.616 47.346 68.385l-33.768 33.768Zm70.615-71q-22.385-22.615-35.462-51.243Q526.154-328.41 526.154-360q0-64.423 45.169-109.134 45.168-44.712 108.596-44.712 64.388 0 109.158 44.712Q833.846-424.423 833.846-360q0 31.385-12.27 60.192-12.269 28.808-35.654 51.039l-34.153-33.538q16.308-15.154 25.347-35.256 9.038-20.102 9.038-42.437 0-44.585-30.784-75.37-30.785-30.784-75.37-30.784-44.308 0-75.231 30.784-30.923 30.785-30.923 75.37 0 22.198 9.538 42.176 9.539 19.978 25.462 35.132l-34.153 34.153Zm81.461 122.385v-197.308q-9-6.461-14.5-16.192t-5.5-20.346q0-18.415 13.131-31.13 13.131-12.716 30.639-12.716 18.383 0 31.153 12.716 12.769 12.715 12.769 31.13 0 10.615-4.693 20.461-4.692 9.846-15.307 16.077v197.308h-47.692Z"/></svg>