<svg xmlns="http://www.w3.org/2000/svg" height="24" viewBox="0 -960 960 960" width="24"><path d="M576.244-140.001q-43.551 0-74.128-30.487-30.577-30.486-30.577-74.037 0-43.552 30.486-74.128 30.486-30.577 74.038-30.577 43.552 0 74.128 30.486 30.577 30.486 30.577 74.038 0 43.551-30.486 74.128-30.486 30.577-74.038 30.577Zm-.09-59.999q18.538 0 31.577-13.039 13.038-13.038 13.038-31.577 0-18.538-13.038-31.577-13.039-13.038-31.577-13.038-18.539 0-31.578 13.038-13.038 13.039-13.038 31.577 0 18.539 13.038 31.577Q557.615-200 576.154-200ZM660-420.001q-83.922 0-141.961-58.038Q460.001-536.078 460.001-620q0-83.922 58.038-141.961Q576.078-819.999 660-819.999q83.922 0 141.961 58.038Q859.999-703.922 859.999-620q0 83.922-58.038 141.961Q743.922-420.001 660-420.001ZM660-480q59 0 99.5-40.5T800-620q0-59-40.5-99.5T660-760q-59 0-99.5 40.5T520-620q0 59 40.5 99.5T660-480ZM284.616-255.386q-59.654 0-102.134-42.48Q140.001-340.347 140.001-400t42.481-102.134q42.48-42.48 102.134-42.48 59.653 0 102.134 42.48Q429.23-459.653 429.23-400t-42.48 102.134q-42.481 42.48-102.134 42.48Zm.013-59.998q34.91 0 59.756-24.86 24.846-24.86 24.846-59.77 0-34.909-24.859-59.755-24.86-24.847-59.77-24.847-34.909 0-59.756 24.86Q200-434.896 200-399.986q0 34.909 24.86 59.755 24.86 24.847 59.769 24.847Zm291.525 70.768ZM660-620ZM284.616-400Z"/></svg>