<svg xmlns="http://www.w3.org/2000/svg" height="24" viewBox="0 -960 960 960" width="24"><path d="M256.155-220.001q-15.365 0-25.759-10.395-10.395-10.394-10.395-25.759v-313.846q0-12.749 8.629-21.374Q237.259-600 250.014-600q12.756 0 21.371 8.625Q280-582.75 280-570.001v247.848l436.769-436.769q8.308-8.308 20.884-8.5 12.577-.192 21.269 8.5 8.692 8.692 8.692 21.076 0 12.385-8.692 21.077L322.153-280h247.848q12.749 0 21.374 8.629Q600-262.743 600-249.987q0 12.755-8.625 21.37-8.625 8.616-21.374 8.616H256.155Z"/></svg>