<svg xmlns="http://www.w3.org/2000/svg" height="24" viewBox="0 -960 960 960" width="24"><path d="M172.309-140.001q-30.308 0-51.308-21t-21-51.308v-455.382q0-30.308 21-51.308t51.308-21h122.153l52.308-56.692q9.846-10.846 23.808-17.077 13.961-6.231 29.422-6.231h160q15.461 0 29.422 6.231 13.962 6.231 23.808 17.077l52.308 56.692h122.153q30.308 0 51.308 21t21 51.308v455.382q0 30.308-21 51.308t-51.308 21H172.309ZM480-275.386q68.846 0 116.73-47.884T644.614-440q0-68.846-47.884-116.73T480-604.614q-68.846 0-116.73 47.884T315.386-440q0 68.846 47.884 116.73T480-275.386Zm-40.923-123.691-53.692-24.462q-10.846-4.615-10.846-16.461 0-11.846 10.846-16.461l53.692-24.462 24.462-53.692q4.615-10.846 16.461-10.846 11.846 0 16.461 10.846l24.462 53.692 53.692 24.462q10.846 4.615 10.846 16.461 0 11.846-10.846 16.461l-53.692 24.462-24.462 53.692q-4.615 10.846-16.461 10.846-11.846 0-16.461-10.846l-24.462-53.692Z"/></svg>