<svg xmlns="http://www.w3.org/2000/svg" height="24" viewBox="0 -960 960 960" width="24"><path d="M220.768-240h518.849L480-432.693 220.768-240Zm197.693-439.769q-3.846 8.308-10.846 13.384-7 5.077-16.792 5.077-12.805 0-21.467-8.649-8.663-8.65-8.663-21.436 0-3.76.5-6.106t2.116-5.577q15.428-34.389 47.193-55.656 31.765-21.267 69.883-21.267 52.999 0 89.961 36.654 36.961 36.654 36.961 89.653 0 44.692-27.116 78.808-27.115 34.115-70.192 44.653v44.847L848.23-233.923q6.076 3.744 9.115 10.109 3.038 6.364 3.038 13.853 0 12.729-8.625 21.344-8.624 8.616-21.374 8.616H130.001q-12.75 0-21.375-8.581t-8.625-21.265q0-7.461 3.039-13.881 3.038-6.419 9.115-10.195l337.846-251.461v-70.77q0-12.749 8.96-21.374 8.96-8.625 21.654-8.625 27.693 0 47.193-19.932 19.5-19.932 19.5-47.616 0-27.683-19.519-46.991Q508.269-720 480.385-720q-19.924 0-36.847 10.654-16.923 10.654-25.077 29.577Z"/></svg>