<svg xmlns="http://www.w3.org/2000/svg" height="24" viewBox="0 -960 960 960" width="24"><path d="M322.308-260.001q-30.308 0-51.307-21-21-21-21-51.308v-455.382q0-30.308 21-51.308 20.999-21 51.307-21h455.383q30.307 0 51.307 21 21 21 21 51.308v455.382q0 30.308-21 51.308t-51.307 21H322.308ZM182.309-120.003q-30.307 0-51.307-21-21-21-21-51.307v-485.382q0-12.769 8.615-21.384 8.616-8.615 21.384-8.615 12.769 0 21.385 8.615 8.615 8.615 8.615 21.384v485.382q0 4.616 3.846 8.462 3.847 3.847 8.462 3.847h485.382q12.769 0 21.385 8.615 8.615 8.615 8.615 21.384t-8.615 21.384q-8.616 8.615-21.385 8.615H182.309Zm347.692-449.229q0 10.846 9.038 15.962 9.039 5.115 18.269-.5l44-26.923q8.846-5.616 18.692-5.616t18.692 5.616l44 26.923q9.23 5.615 18.269.5 9.038-5.116 9.038-15.962V-800H530.001v230.768Z"/></svg>