<svg xmlns="http://www.w3.org/2000/svg" height="24" viewBox="0 -960 960 960" width="24"><path d="M707.691-100.001H252.309q-30.308 0-51.308-21t-21-51.308v-615.382q0-30.308 21-51.308t51.308-21h455.382q30.308 0 51.308 21t21 51.308v615.382q0 30.308-21 51.308t-51.308 21ZM252.309-160h455.382q5.385 0 8.847-3.462 3.462-3.462 3.462-8.847v-615.382q0-5.385-3.462-8.847-3.462-3.462-8.847-3.462H252.309q-5.385 0-8.847 3.462-3.462 3.462-3.462 8.847v615.382q0 5.385 3.462 8.847 3.462 3.462 8.847 3.462ZM240-160V-800-160Z"/></svg>