<svg xmlns="http://www.w3.org/2000/svg" height="24" viewBox="0 -960 960 960" width="24"><path d="M443.846-111.771 176.155-265.847q-17.077-9.846-26.615-26.308-9.539-16.461-9.539-36.153v-303.384q0-19.692 9.539-36.153 9.538-16.462 26.615-26.308l267.691-154.076q17.077-9.846 36.154-9.846t36.154 9.846l267.691 154.076q17.077 9.846 26.615 26.308 9.539 16.461 9.539 36.153v303.384q0 19.692-9.539 36.153-9.538 16.462-26.615 26.308L516.154-111.771q-17.077 9.846-36.154 9.846t-36.154-9.846Zm6.155-350.999v285.54l24.614 14.153q2.692 1.538 5.385 1.538 2.693 0 5.385-1.538l24.614-14.153v-285.54L760-607.539v-25.845q0-1.923-.962-3.847-.961-1.923-2.884-3.077l-29.153-16.922L480-514.461 232.999-657.23l-29.153 16.922q-1.923 1.154-2.884 3.077-.962 1.924-.962 3.847v25.845L450.001-462.77Z"/></svg>