<svg xmlns="http://www.w3.org/2000/svg" height="24" viewBox="0 -960 960 960" width="24"><path d="m353.615-720-59.998-59.999h496.382q12.75 0 21.375 8.629t8.625 21.384q0 12.756-8.625 21.371Q802.749-720 789.999-720H353.615Zm506.768 503.076-59.998-59.999v-295.386H624.999v123.693L565-508.615v-87.539q0-15.365 10.395-25.759 10.394-10.394 25.759-10.394H824.23q15.365 0 25.759 10.394t10.394 25.759v379.23Zm-259.229 36.923q-15.365 0-25.759-10.395Q565-200.79 565-216.155v-94.154L240-635.31v365.311h184.616q18.749 0 31.874 13.144 13.125 13.145 13.125 31.923 0 18.777-13.125 31.854-13.125 13.077-31.874 13.077H145q-18.749 0-31.874-13.145-13.125-13.144-13.125-31.922t13.125-31.855q13.125-13.076 31.874-13.076h35.001v-425.309l-75.615-75.616q-8.307-8.307-8.5-20.884-.192-12.576 8.5-21.268 8.692-8.693 21.077-8.693 12.384 0 21.076 8.693l669.23 669.23q8.307 8.307 8.5 20.884.192 12.576-8.5 21.268-8.692 8.693-21.076 8.693-12.385 0-21.077-8.693l-78.308-78.307h-94.154ZM712.692-362.77Z"/></svg>