<svg xmlns="http://www.w3.org/2000/svg" height="24" viewBox="0 -960 960 960" width="24"><path d="M307.693-220.001q-53.615 0-90.653-37.039-37.039-37.038-37.039-90.653V-720q0-73.384 71.231-106.691 71.23-33.308 228.768-33.308 161.23 0 230.614 32.385Q779.999-795.23 779.999-720v372.307q0 53.615-37.039 90.653-37.038 37.039-90.653 37.039l54.23 36.076q10.846 7.231 7.039 20.192-3.808 12.962-17.27 12.962H263.694q-13.462 0-17.27-12.962-3.807-12.961 7.039-20.192l54.23-36.076ZM240-539.999h210.001v-149.232H240v149.232ZM652.307-480H240h480-67.693Zm-142.308-59.999H720v-149.232H509.999v149.232ZM340-327.693q21.923 0 37.115-15.192 15.192-15.192 15.192-37.115 0-21.923-15.192-37.115-15.192-15.192-37.115-15.192-21.923 0-37.115 15.192-15.192 15.192-15.192 37.115 0 21.923 15.192 37.115 15.192 15.192 37.115 15.192Zm280 0q21.923 0 37.115-15.192 15.192-15.192 15.192-37.115 0-21.923-15.192-37.115-15.192-15.192-37.115-15.192-21.923 0-37.115 15.192-15.192 15.192-15.192 37.115 0 21.923 15.192 37.115 15.192 15.192 37.115 15.192ZM307.693-280h344.614Q681-280 700.5-299.5 720-319 720-347.693V-480H240v132.307Q240-319 259.5-299.5 279-280 307.693-280ZM480-800q-97.924 0-154.616 12.5-56.693 12.5-74.308 38.27h460.309Q696.847-775 640.154-787.5 583.462-800 480-800Zm0 50.77h231.385-460.309H480Z"/></svg>