<svg xmlns="http://www.w3.org/2000/svg" height="24" viewBox="0 -960 960 960" width="24"><path d="m480-438.232 123.308 123.308q8.308 8.308 20.884 8.116 12.577-.193 20.884-8.5 8.308-8.308 8.308-20.884 0-12.577-8.308-20.884L521.768-480l123.308-123.308q8.308-8.308 8.308-20.884 0-12.577-8.308-20.884-8.307-8.308-20.884-8.308-12.576 0-20.884 8.308L480-521.768 356.692-645.076q-8.308-8.308-20.692-8.308t-20.692 8.308q-8.307 8.307-8.307 20.884 0 12.576 8.307 20.884L438.232-480 314.924-356.692q-8.308 8.308-8.116 20.692.193 12.384 8.5 20.692 8.308 8.307 20.884 8.307 12.577 0 20.884-8.307L480-438.232ZM212.309-140.001q-30.308 0-51.308-21t-21-51.308v-535.382q0-30.308 21-51.308t51.308-21h535.382q30.308 0 51.308 21t21 51.308v535.382q0 30.308-21 51.308t-51.308 21H212.309Z"/></svg>