<svg xmlns="http://www.w3.org/2000/svg" height="24" viewBox="0 -960 960 960" width="24"><path d="M810.001-65.078 694.462-180H172.309q-29.923 0-51.115-21.193-21.193-21.192-21.193-51.115v-455.382q0-29.923 21.193-51.115 21.192-21.193 51.115-21.193h7.692v85.537L71.694-802.77q-8.923-8.923-8.808-21.192.115-12.269 9.423-21.576 9.308-9.308 21.384-9.308 12.077 0 21.384 9.308L852.77-107.23q8.923 8.922 9.115 20.884.192 11.961-9.115 21.269-9.308 9.307-21.384 9.307-12.077 0-21.385-9.307ZM172.309-240h462.155l-400-400H160v387.691q0 5.385 3.462 8.847 3.462 3.462 8.847 3.462Zm680.228 19.306L800-273.231V-640H433.231L293.232-779.999h494.459q29.923 0 51.115 21.193 21.193 21.192 21.193 51.115v455.382q0 8.462-1.808 16.616-1.808 8.153-5.654 14.999Zm-253.23-253.23-43.383-43.383 29.154-29.154q8.922-8.923 21.499-9.115 12.577-.193 21.884 9.115 9.308 9.307 9.308 21.692 0 12.384-9.308 21.691l-29.154 29.154Zm-56.615 56.616-79.385 79.384Q452.461-327.078 438-327.078q-14.461 0-25.307-10.846l-81.154-81.154q-8.923-8.922-9.115-21.499-.193-12.577 9.115-21.884 9.307-9.308 21.692-9.308 12.384 0 21.691 9.308L438-399.384l61.308-61.308 43.384 43.384Z"/></svg>