<svg xmlns="http://www.w3.org/2000/svg" height="24" viewBox="0 -960 960 960" width="24"><path d="M292.309-100.001q-29.827 0-51.067-21.241-21.241-21.24-21.241-51.067v-615.382q0-29.827 21.241-51.067 21.24-21.241 51.067-21.241h375.382q29.827 0 51.067 21.241 21.241 21.24 21.241 51.067v615.382q0 29.827-21.241 51.067-21.24 21.241-51.067 21.241H292.309Zm187.691-110q32.048 0 54.87-22.822 22.822-22.822 22.822-54.87t-22.822-54.87q-22.822-22.822-54.87-22.822t-54.87 22.822q-22.822 22.822-22.822 54.87t22.822 54.87q22.822 22.822 54.87 22.822Zm0-35.384q-17.769 0-30.039-12.269-12.269-12.27-12.269-30.039 0-17.769 12.269-30.038 12.27-12.27 30.039-12.27 17.769 0 30.039 12.27 12.269 12.269 12.269 30.038t-12.269 30.039q-12.27 12.269-30.039 12.269Zm0-180.769q16.615 0 26.769-10.154t10.154-26.769h-73.846q0 16.461 10.154 26.692 10.154 10.231 26.769 10.231Zm-129.999-56.923h259.806q7.423 0 12.654-5.308 5.23-5.307 5.23-12.384t-5.307-12.385q-5.308-5.307-12.385-5.307h-19.23v-85.026q0-41.589-21.077-74.204-21.077-32.615-60.021-43.791v-11.176q0-13.038-8.345-21.42-8.345-8.382-21.326-8.382t-21.326 8.355q-8.345 8.354-8.345 21.35v11.14q-38.944 13.924-60.021 45.308-21.077 31.385-21.077 72.923v84.923h-19.23q-7.077 0-12.385 5.307-5.307 5.308-5.307 12.385t5.307 12.384q5.308 5.308 12.385 5.308Z"/></svg>