<svg xmlns="http://www.w3.org/2000/svg" height="24" viewBox="0 -960 960 960" width="24"><path d="M374.616-444.616q14.693 0 25.039-10.346 10.346-10.346 10.346-25.038t-10.346-25.038q-10.346-10.346-25.039-10.346-14.692 0-25.038 10.346T339.232-480q0 14.692 10.346 25.038t25.038 10.346Zm210.768 0q14.692 0 25.038-10.346T620.768-480q0-14.692-10.346-25.038t-25.038-10.346q-14.693 0-25.039 10.346-10.346 10.346-10.346 25.038t10.346 25.038q10.346 10.346 25.039 10.346ZM180.001-140.001q-12.749 0-21.374-8.657-8.625-8.656-8.625-21.453 0-12.043 10.461-17.582 10.462-5.538 19.538-12.307h10.001v-547.691q0-29.827 21.24-51.067 21.241-21.241 51.067-21.241h199.999V-200h35.384v-619.999h199.932q29.99 0 51.182 21.241 21.192 21.24 21.192 51.067V-200h10.001q12.749 0 21.374 8.629 8.625 8.628 8.625 21.384 0 12.755-8.625 21.37-8.625 8.616-21.374 8.616H180.001Z"/></svg>