<svg xmlns="http://www.w3.org/2000/svg" height="24" viewBox="0 -960 960 960" width="24"><path d="M161.385-480.615q0 114.538 71.115 202.308 71.116 87.769 181.193 111.846 11.538 2.846 18.615 12.576 7.077 9.731 7.077 21.884 0 12.154-8.692 19.961-8.693 7.808-19.615 5.577-134.615-24.923-222.154-129.615-87.538-104.692-87.538-244.537 0-139.846 88.038-244.538 88.039-104.692 222.654-129.615 10.922-2.231 19.615 5.577 8.692 7.807 8.692 19.961 0 12.154-7.077 21.884-7.077 9.731-18.615 12.577-110.693 24.076-182 111.653-71.308 87.577-71.308 202.501Zm347.999 70.617 91.694-91.694q8.922-8.923 21.499-9.115 12.577-.192 21.884 9.115 9.308 9.308 9 21.692-.308 12.384-9.615 21.692L504.692-319.155q-10.846 10.846-25.307 10.846-14.462 0-25.308-10.846L313.693-460.154q-8.923-8.923-8.808-21.192.116-12.269 9.423-21.576 9.308-9.308 21.384-9.308 12.077 0 21.384 9.308l92.309 92.924v-226.156q0-12.768 8.616-21.384 8.615-8.615 21.384-8.615t21.384 8.615q8.615 8.616 8.615 21.384v226.156Zm140.463 200.382q11.153-7.077 24.422-6.461 13.269.615 23.192 10.538 9.308 8.923 7.692 21.384-1.615 12.461-12.153 19.154-32.77 21.153-68.731 35.653-35.962 14.5-74.116 22.5-12.153 2.616-21.461-4.884-9.307-7.5-9.307-20.269 0-12.769 7.999-22.307 8-9.538 21.154-13.384 27-6 52.424-16.731 25.423-10.731 48.885-25.193Zm-99.694-583.538q-12.769-3.846-21.269-13.577-8.499-9.73-8.499-22.499 0-12.769 8.807-20.269 8.808-7.5 20.961-5.269 38.769 8 75.039 22.692 36.269 14.693 69.038 36.462 10.539 7.077 11.539 19.038t-7.308 21.269q-9.307 9.923-22.576 10.538-13.269.615-24.807-6.461-23.462-14.462-48.693-25.001-25.231-10.538-52.232-16.923Zm241.54 382.307q3.846-12.769 13.691-21.269 9.846-8.499 22.615-8.499 12.769 0 20.577 9.73 7.807 9.731 4.961 21.884-7.615 38.77-22.808 74.423-15.192 35.654-36.961 68.039-7.077 10.538-19.038 10.923-11.961.385-20.269-7.923-9.307-9.307-10.23-22.269-.924-12.961 6.153-24.114 14.462-23.462 24.885-48.386 10.424-24.923 16.424-52.539Zm-40.924-240.692q-7.077-11.538-6.154-24.384t10.231-22.153q8.692-8.693 20.653-7.616 11.961 1.077 19.038 11 21.615 32.77 36.423 68.654 14.808 35.885 22.808 74.654 2.615 12.154-5.192 21.461-7.808 9.308-20.577 9.308-12.769 0-22.615-8.808-9.845-8.807-13.691-21.576-6-27.001-16.231-52.039-10.231-25.039-24.693-48.501Z"/></svg>