<svg xmlns="http://www.w3.org/2000/svg" height="24" viewBox="0 -960 960 960" width="24"><path d="M146.156-410.001q-12.769 0-21.384-8.615-8.616-8.615-8.616-21.384v-200q0-12.769 8.616-21.384 8.615-8.615 21.384-8.615t21.384 8.615q8.615 8.615 8.615 21.384v200q0 12.769-8.615 21.384t-21.384 8.615Zm667.688 120q-12.769 0-21.384-8.615T783.845-320v-200q0-12.769 8.615-21.384t21.384-8.615q12.769 0 21.384 8.615 8.616 8.615 8.616 21.384v200q0 12.769-8.616 21.384-8.615 8.615-21.384 8.615Zm-485.382 190q-30.307 0-51.307-21-21-21-21-51.308v-615.382q0-30.308 21-51.308t51.307-21h303.076q30.307 0 51.307 21 21 21 21 51.308v615.382q0 30.308-21 51.308t-51.307 21H328.462Zm315.384-110H316.154v37.692q0 4.616 3.846 8.463 3.846 3.846 8.462 3.846h303.076q4.616 0 8.462-3.846 3.846-3.847 3.846-8.463v-37.692ZM316.154-749.999h327.692v-37.692q0-4.616-3.846-8.463-3.846-3.846-8.462-3.846H328.462q-4.616 0-8.462 3.846-3.846 3.847-3.846 8.463v37.692Zm0 0V-800v50.001Zm0 539.998V-160v-50.001Zm0-59.998h327.692v-420.002H316.154v420.002Z"/></svg>