<svg xmlns="http://www.w3.org/2000/svg" height="24" viewBox="0 -960 960 960" width="24"><path d="M280-300.001q-74.922 0-127.461-52.538Q100.001-405.078 100.001-480t52.538-127.461Q205.078-659.999 280-659.999h400q74.922 0 127.461 52.538Q859.999-554.922 859.999-480t-52.538 127.461Q754.922-300.001 680-300.001H280Zm67.307-122.538L438-513.231q7.076-7.077 7.269-16.577.192-9.499-7.269-16.961-7.462-7.461-16.769-7.461-9.308 0-16.769 7.461L322-464.307l-22.462-22.462q-7.077-7.077-16.576-7.269-9.5-.192-16.962 7.269-7.461 7.462-7.461 16.769 0 9.307 7.461 16.769l30.693 30.692q10.846 10.846 25.307 10.846 14.461 0 25.307-10.846Z"/></svg>