<svg xmlns="http://www.w3.org/2000/svg" height="24" viewBox="0 -960 960 960" width="24"><path d="M252.309-271.538h455.382q12.423 0 20.827 8.396 8.403 8.396 8.403 20.807 0 12.411-8.403 20.834-8.404 8.423-20.827 8.423H252.309q-12.423 0-20.827-8.396-8.403-8.396-8.403-20.807 0-12.411 8.403-20.834 8.404-8.423 20.827-8.423Zm18.077-151.616 179.691-268.605q5.616-8.393 13.268-12.317 7.652-3.923 16.655-3.923t16.655 3.923q7.652 3.924 13.268 12.317l179.691 268.605q12.462 18.077 1.712 37.154-10.75 19.076-32.25 19.076H300.924q-21.5 0-32.25-19.076-10.75-19.077 1.712-37.154Z"/></svg>