<svg xmlns="http://www.w3.org/2000/svg" height="24" viewBox="0 -960 960 960" width="24"><path d="m454.232-390.001-237.385-28.846q-23.077-2.615-29.807-24.692-6.731-22.077 10.115-37.538l400.153-371.614q3.846-3.846 9.115-5.769 5.27-1.923 14.577-1.923 15.384 0 23.769 13.153 8.384 13.154.307 27.308L504.614-569.615l238.154 28.846q23.077 2.616 30 24.5 6.923 21.885-9.923 37.346L362.692-106.924q-3.846 3.846-9.115 5.576-5.27 1.731-14.577 1.731-15.384 0-23.384-13.153-8-13.154-.308-26.923l138.924-250.308Zm6.996 106.85 224.081-204.388-275.923-32.846 89.54-156.618L274.691-472.23l274.923 33.384-88.386 155.695ZM480-480.385Z"/></svg>