<svg xmlns="http://www.w3.org/2000/svg" height="24" viewBox="0 -960 960 960" width="24"><path d="M230.001-300.001q-20.833 0-35.416-14.57-14.584-14.57-14.584-35.384 0-20.815 14.584-35.43Q209.168-400 230.001-400h499.998q20.833 0 35.416 14.57 14.584 14.57 14.584 35.384t-14.584 35.429q-14.583 14.616-35.416 14.616H230.001Zm0-259.999q-20.833 0-35.416-14.57-14.584-14.57-14.584-35.384t14.584-35.429q14.583-14.616 35.416-14.616h499.998q20.833 0 35.416 14.57 14.584 14.57 14.584 35.385 0 20.814-14.584 35.429Q750.832-560 729.999-560H230.001Z"/></svg>