<svg xmlns="http://www.w3.org/2000/svg" height="24" viewBox="0 -960 960 960" width="24"><path d="M747.691-100.001H631.153q-12.749 0-21.374-8.629-8.625-8.629-8.625-21.384 0-12.756 8.625-21.371Q618.404-160 631.153-160h116.538q4.616 0 8.463-3.846 3.846-3.847 3.846-8.463v-375.382H200v127.692q0 12.75-8.629 21.375-8.628 8.625-21.384 8.625-12.755 0-21.37-8.625-8.616-8.625-8.616-21.375v-287.692q0-30.308 21-51.308t51.308-21h55.385v-53.847q0-13.076 8.862-21.922 8.861-8.846 21.961-8.846 13.099 0 21.907 8.846 8.807 8.846 8.807 21.922v53.847h303.076v-54.616q0-12.75 8.629-21.375 8.628-8.624 21.384-8.624 12.755 0 21.37 8.624 8.616 8.625 8.616 21.375v54.616h55.385q30.308 0 51.308 21t21 51.308v535.382q0 30.308-21 51.308t-51.308 21Zm-356.843-70H80q-12.75 0-21.374-8.628Q50-187.258 50-200.013q0-12.756 8.625-21.371 8.624-8.615 21.374-8.615h310.848l-91.924-93.309q-8.308-8.308-8.616-20.384-.307-12.077 8.616-21.067 8.179-8.24 20.82-8.24 12.64 0 20.948 8.307l139.769 139.385q10.846 10.846 10.846 25.307 0 14.461-10.846 25.307L340.692-34.923q-8.308 8.307-20.577 8.422-12.269.116-21.258-8.874-8.241-8.24-8.241-20.625 0-12.384 8.308-20.692L390.848-170Z"/></svg>