<svg xmlns="http://www.w3.org/2000/svg" height="24" viewBox="0 -960 960 960" width="24"><path d="M480-438.768 377.692-541.076q-8.212-8.308-20.529-8.308t-21.239 8.308q-9.308 8.922-9.116 21.384.193 12.461 9.116 21.384l118.769 118.769q10.846 10.846 25.307 10.846 14.461 0 25.307-10.846l119.385-119.385q8.923-8.922 8.807-21.076-.115-12.154-9.423-21.076-8.922-8.308-21.076-8.423-12.154-.116-21.076 8.807L480-438.768Zm.067 338.767q-78.836 0-148.204-29.92-69.369-29.92-120.682-81.21-51.314-51.291-81.247-120.629-29.933-69.337-29.933-148.173t29.92-148.204q29.92-69.369 81.21-120.682 51.291-51.314 120.629-81.247 69.337-29.933 148.173-29.933t148.204 29.92q69.369 29.92 120.682 81.21 51.314 51.291 81.247 120.629 29.933 69.337 29.933 148.173t-29.92 148.204q-29.92 69.369-81.21 120.682-51.291 51.314-120.629 81.247-69.337 29.933-148.173 29.933Z"/></svg>