<svg xmlns="http://www.w3.org/2000/svg" height="24" viewBox="0 -960 960 960" width="24"><path d="M200-140.001q-24.538 0-42.268-17.731-17.731-17.73-17.731-42.268v-155.077q41.077-5.001 70.538-34.154Q240-418.385 240-460q0-41.615-29.461-70.769-29.461-29.153-70.538-34.154v-158.923q0-12.769 4.462-23.615 4.461-10.846 12.769-19.154l609.383 609.383q-8.308 8.308-19.154 12.769-10.846 4.462-23.615 4.462H564.923q-5.001-41.077-34.154-70.538Q501.615-240 460-240q-41.615 0-70.769 29.461-29.153 29.461-34.154 70.538H200Zm579.999-153.231L293.232-779.999H360q5.385-38.153 33.423-62.922Q421.462-867.69 460-867.69t66.577 24.769q28.038 24.769 33.423 62.922h160q24.922 0 42.461 17.538 17.538 17.539 17.538 42.461v160q38.153 5.385 62.922 33.423Q867.69-498.538 867.69-460t-24.769 66.577Q818.152-365.385 779.999-360v66.768Zm-8.921 189.231L103.386-771.078q-8.923-8.922-8.807-21.191.115-12.269 9.422-21.577 9.308-9.307 21.385-9.307 12.076 0 21.384 9.307l667.076 667.692q8.923 8.923 9.115 20.884.192 11.961-9.115 21.269-9.308 9.307-21.384 9.307-12.077 0-21.384-9.307Z"/></svg>