<svg xmlns="http://www.w3.org/2000/svg" height="24" viewBox="0 -960 960 960" width="24"><path d="M480-100.001q-78.154 0-147.499-29.962-69.346-29.961-120.962-81.576-51.615-51.616-81.576-120.962Q100.001-401.846 100.001-480q0-78.769 29.962-148.115 29.961-69.346 81.576-120.846 51.616-51.499 120.962-81.268 69.345-29.77 147.499-29.77 78.769 0 148.115 29.77 69.346 29.769 120.846 81.268 51.499 51.5 81.268 120.846 29.77 69.346 29.77 148.115 0 78.154-29.77 147.499-29.769 69.346-81.268 120.962-51.5 51.615-120.846 81.576Q558.769-100.001 480-100.001ZM480-160q134 0 227.308-93.808Q800.615-347.615 800-481.231v-5.577q0-2.5-.385-5.193-64.845-5.846-102.076-42.769-37.231-36.923-62.692-87.846-6.539-13.308-18.154-20.346-11.616-7.039-25.693-7.039H370q-15.077 0-26.693 7.039-11.615 7.038-18.154 20.346-25.461 51.923-63.307 88.846Q224-496.847 160.385-491.001q-.385 2.693-.385 5.193v5.193Q160-347 253.5-253.5T480-160ZM360-390q-21 0-35.5-14.5T310-440q0-21 14.5-35.5T360-490q21 0 35.5 14.5T410-440q0 21-14.5 35.5T360-390Zm240 0q-21 0-35.5-14.5T550-440q0-21 14.5-35.5T600-490q21 0 35.5 14.5T650-440q0 21-14.5 35.5T600-390Z"/></svg>