<svg xmlns="http://www.w3.org/2000/svg" height="24" viewBox="0 -960 960 960" width="24"><path d="M480-859.999q32.076 0 64.614 6 32.538 6 62.691 18l-86.152 39.46q-10.077-1.615-20.299-2.538Q490.631-800 480-800q-20.154 0-37.578 1.962-17.423 1.961-35.27 6.884 45.462 83.848 126.117 127.502Q613.923-619.999 700-619.999h9.308q4.154 0 8.923-.384l26.153 57.768q-90 10.23-186.461-22.731Q461.461-618.308 390-708q-37.693 90.77-99.154 143.462Q229.384-511.846 160-486q0 139 93.5 232.5T480-160q136 0 228.615-96Q801.231-352 800-480q0-12.846-.808-22.769-.807-9.923-2.423-21.077l38.846-85.613q12.999 32.768 18.691 64.652 5.693 31.885 5.693 64.807 0 76.923-29.347 145.961-29.346 69.038-80.345 120.961-51 51.923-120.346 82.5Q560.615-100.001 480-100.001q-78.154 0-147.445-29.9t-121.023-81.631q-51.731-51.732-81.631-121.023T100.001-480q0-80.615 30.885-150.269 30.884-69.653 83.115-120.653 52.23-51 120.961-80.038Q403.693-859.999 480-859.999ZM360-490q21 0 35.5 14.5T410-440q0 21-14.5 35.5T360-390q-21 0-35.5-14.5T310-440q0-21 14.5-35.5T360-490Zm204.538-219.999ZM600-490q21 0 35.5 14.5T650-440q0 21-14.5 35.5T600-390q-21 0-35.5-14.5T550-440q0-21 14.5-35.5T600-490Zm139.077-249.077-71.722-32.577q-5.662-2.792-5.662-8.377 0-5.584 5.662-8.372l71.722-32.52 32.577-71.722q2.792-5.662 8.377-5.662 5.584 0 8.372 5.662l32.52 71.722 71.722 32.577q5.662 2.792 5.662 8.377 0 5.584-5.662 8.372l-71.722 32.52-32.577 71.722q-2.792 5.662-8.377 5.662-5.584 0-8.372-5.662l-32.52-71.722ZM171.23-556.383q56.385-28.231 107.079-82.5 50.693-54.27 65.462-130.118-65.617 29.77-110.925 85.578-45.308 55.808-61.616 127.04Zm172.541-212.618Z"/></svg>