<svg xmlns="http://www.w3.org/2000/svg" height="24" viewBox="0 -960 960 960" width="24"><path d="M303.076-170.001v-419.998h26.925v-120.77q0-29.826 21.24-51.066 21.24-21.241 51.067-21.241h235.384q29.827 0 51.067 21.241 21.24 21.24 21.24 51.066v120.77H760q45.833 0 77.916 32.083T869.999-480v237.692q0 29.827-21.24 51.067t-51.067 21.24H303.076Zm-124.181 40q37.335 0 63.066-25.765 25.73-25.765 25.73-63.08v-322.308q0-37.315-25.779-63.08t-63.115-25.765q-37.335 0-63.066 25.765-25.73 25.765-25.73 63.08v322.308q0 37.315 25.779 63.08t63.115 25.765Zm211.104-459.998h260.002v-120.77q0-5.385-3.462-8.846-3.462-3.462-8.847-3.462H402.308q-5.385 0-8.847 3.462-3.462 3.461-3.462 8.846v120.77ZM628.461-400q17 0 28.5-11.5t11.5-28.5q0-17-11.5-28.5t-28.5-11.5q-17 0-28.5 11.5t-11.5 28.5q0 17 11.5 28.5t28.5 11.5Zm120 0q17 0 28.5-11.5t11.5-28.5q0-17-11.5-28.5t-28.5-11.5q-17 0-28.5 11.5t-11.5 28.5q0 17 11.5 28.5t28.5 11.5Zm-120 120q17 0 28.5-11.5t11.5-28.5q0-17-11.5-28.5t-28.5-11.5q-17 0-28.5 11.5t-11.5 28.5q0 17 11.5 28.5t28.5 11.5Zm120 0q17 0 28.5-11.5t11.5-28.5q0-17-11.5-28.5t-28.5-11.5q-17 0-28.5 11.5t-11.5 28.5q0 17 11.5 28.5t28.5 11.5Zm-323.847 0h87.693q15.365 0 25.76-10.394 10.394-10.394 10.394-25.76v-127.692q0-15.366-10.394-25.76Q527.672-480 512.307-480h-87.693q-15.365 0-25.759 10.394t-10.394 25.76v127.692q0 15.366 10.394 25.76Q409.249-280 424.614-280Z"/></svg>