<svg xmlns="http://www.w3.org/2000/svg" height="24" viewBox="0 -960 960 960" width="24"><path d="M187.308-366.154h115.769q22.923 0 38.384-15.462 15.462-15.461 15.462-38.384v-120q0-22.923-15.462-38.384-15.461-15.462-38.384-15.462H187.308q-7.23 0-12.654 5.423-5.423 5.423-5.423 12.654v191.538q0 7.231 5.423 12.654 5.424 5.423 12.654 5.423Zm29.615-47.692v-132.308h86.154q2.308 0 4.231 1.923t1.923 4.231v120q0 2.308-1.923 4.231t-4.231 1.923h-86.154Zm260.154-25.845L435-577.461q-2.616-7.077-8.385-11.731t-13.461-4.654q-10.923 0-17.692 9t-3.538 19.923l54.538 181.23q2.616 7.462 8.962 12.5 6.346 5.039 14.422 5.039h14.077q8.077 0 14.615-5.039 6.539-5.038 9.154-12.5l54.539-181.23q3.23-10.923-3.346-19.923-6.577-9-17.885-9-7.692 0-13.461 4.654t-8.384 11.731l-42.078 137.77Zm176.769-6.463h54.462l28.154 66.461q2.615 6.462 8.077 10 5.461 3.539 12.307 3.539 12.308 0 19.077-9.692 6.769-9.693 1.923-21l-22.308-52.539q17.308-4.923 27.808-19.538 10.5-14.616 10.5-31.077v-40q0-22.923-15.462-38.384-15.461-15.462-38.384-15.462H624.231q-7.231 0-12.654 5.423t-5.423 12.654V-390q0 10.307 6.769 17.077 6.77 6.769 17.077 6.769 10.307 0 17.077-6.769 6.769-6.77 6.769-17.077v-56.154Zm0-47.692v-52.308H740q2.308 0 4.231 1.923t1.923 4.231v40q0 2.308-1.923 4.231T740-493.846h-86.154ZM132.309-180.001q-30.308 0-51.308-21t-21-51.308v-455.382q0-30.308 21-51.308t51.308-21h695.382q30.308 0 51.308 21t21 51.308v455.382q0 30.308-21 51.308t-51.308 21H132.309Z"/></svg>