<svg xmlns="http://www.w3.org/2000/svg" height="24" viewBox="0 -960 960 960" width="24"><path d="m628.384-445.232-320.69-320.689v-21.77q0-29.923 21.192-51.115 21.193-21.193 51.115-21.193h193.613q29.692 0 48.23 22.5 18.539 22.5 10.923 49.808l-52.768 183.46h54.616q32.538 0 48.115 28.73 15.576 28.731-3.116 56.038l-51.23 74.231ZM792.154-82.31 547.307-327.156l-77.691 112.383q-5.615 8.23-13.961 10.846-8.346 2.615-16.577 0-8.23-2.616-13.654-9.539-5.423-6.923-5.423-16.769v-189.766h-40q-29.922 0-51.115-21.193-21.192-21.192-21.192-51.115v-74.46L82.31-792.154l42.768-42.768 709.844 709.844-42.768 42.768Z"/></svg>