<svg xmlns="http://www.w3.org/2000/svg" height="24" viewBox="0 -960 960 960" width="24"><path d="M100.001-216.155v-183.693q0-15.613 10.395-25.959 10.394-10.347 25.759-10.347h264.614q15.366 0 25.76 10.395 10.394 10.394 10.394 25.759v183.693q0 15.613-10.394 25.959-10.394 10.347-25.76 10.347H136.155q-15.365 0-25.759-10.395-10.395-10.394-10.395-25.759Zm0-343.845v-183.693q0-15.613 10.395-25.959 10.394-10.347 25.759-10.347h264.614q15.366 0 25.76 10.395 10.394 10.394 10.394 25.759v183.693q0 15.613-10.394 25.959-10.394 10.347-25.76 10.347H136.155q-15.365 0-25.759-10.395-10.395-10.394-10.395-25.759ZM160-583.845h216.924V-720H160v136.155Zm538.793 388.767q-7.179 0-13.41-2.308t-11.846-7.923L533.768-345.078q-8.307-8.307-8.423-20.576-.115-12.269 8.875-21.259 8.24-8.241 20.625-8.241 12.384 0 20.691 8.308l93.309 91.924v-455.077q0-12.75 8.629-21.375t21.384-8.625q12.756 0 21.371 8.625 8.615 8.625 8.615 21.375v455.077l93.309-91.924q8.211-8.179 20.528-8.551 12.317-.372 21.307 8.551 8.241 8.179 8.241 20.82t-8.308 20.948L724.152-205.309q-5.615 5.615-11.897 7.923t-13.462 2.308Z"/></svg>