<svg xmlns="http://www.w3.org/2000/svg" height="24" viewBox="0 -960 960 960" width="24"><path d="M486.154-295.001q-15.365 0-25.759-10.394t-10.394-25.76v-297.69q0-15.366 10.394-25.76 10.394-10.394 25.759-10.394h297.691q15.365 0 25.759 10.394 10.395 10.394 10.395 25.76v297.69q0 15.366-10.395 25.76-10.394 10.394-25.759 10.394H486.154ZM509.999-355H760v-250H509.999v250ZM170.001-140.001q-12.75 0-21.375-8.629t-8.625-21.384q0-12.756 8.625-21.371Q157.251-200 170.001-200h619.998q12.75 0 21.375 8.629 8.625 8.628 8.625 21.384 0 12.755-8.625 21.37-8.625 8.616-21.375 8.616H170.001Zm0-155q-12.75 0-21.375-8.629-8.625-8.628-8.625-21.384 0-12.755 8.625-21.37Q157.251-355 170.001-355h162.308q12.749 0 21.374 8.629 8.625 8.629 8.625 21.384 0 12.756-8.625 21.371-8.625 8.615-21.374 8.615H170.001Zm0-155q-12.75 0-21.375-8.628-8.625-8.629-8.625-21.384 0-12.756 8.625-21.371 8.625-8.615 21.375-8.615h162.308q12.749 0 21.374 8.628 8.625 8.629 8.625 21.384 0 12.756-8.625 21.371-8.625 8.615-21.374 8.615H170.001Zm0-154.999q-12.75 0-21.375-8.629t-8.625-21.384q0-12.756 8.625-21.371 8.625-8.615 21.375-8.615h162.308q12.749 0 21.374 8.629 8.625 8.628 8.625 21.384 0 12.755-8.625 21.37Q345.058-605 332.309-605H170.001Zm0-155q-12.75 0-21.375-8.629-8.625-8.628-8.625-21.384 0-12.755 8.625-21.37 8.625-8.616 21.375-8.616h619.998q12.75 0 21.375 8.629t8.625 21.384q0 12.756-8.625 21.371Q802.749-760 789.999-760H170.001Z"/></svg>