<svg xmlns="http://www.w3.org/2000/svg" height="24" viewBox="0 -960 960 960" width="24"><path d="M442.693-800v400q0 12.769-8.629 21.384t-21.384 8.615q-12.756 0-21.371-8.625-8.615-8.624-8.615-21.374v-165.385h-8.847q-60.999 0-103.961-43.154-42.961-43.153-42.961-104.153 0-60.999 42.961-104.153 42.962-43.154 103.961-43.154h254.614q12.749 0 21.374 8.629 8.625 8.629 8.625 21.384 0 12.756-8.625 21.371Q641.21-800 628.461-800h-47.693v400q0 12.75-8.629 21.374-8.629 8.625-21.384 8.625t-21.371-8.625q-8.615-8.624-8.615-21.374v-400h-78.076Zm-59.999 174.616V-800h-8.847q-36.077 0-61.5 25.66-25.423 25.66-25.423 61.692 0 36.033 25.423 61.649 25.423 25.615 61.5 25.615h8.847Zm0-87.308Zm323 499.229H170.001q-12.75 0-21.375-8.628-8.625-8.629-8.625-21.384 0-12.756 8.625-21.371 8.625-8.615 21.375-8.615h535.308l-50.232-50.232q-8.692-8.692-8.692-21.269 0-12.576 8.692-21.268t21.269-8.692q12.576 0 21.269 8.692l97.076 97.076q10.846 10.846 10.846 25.308 0 14.461-10.846 25.307l-97.076 97.461q-8.18 8.692-20.82 8.692-12.641 0-21.333-8.692-8.692-8.692-8.692-21.076 0-12.385 8.692-21.077l50.232-50.232Z"/></svg>