<svg xmlns="http://www.w3.org/2000/svg" height="24" viewBox="0 -960 960 960" width="24"><path d="M469.864-70.387q-22.018 0-41.902-8.23-19.885-8.231-35.733-24.018L228.155-267.001q-11.077-11.077-9.538-26.461 1.538-15.385 12.501-27.077 11.806-11.692 27.96-15.538 16.153-3.846 32.691.384l75.155 19.231V-640q0-12.75 8.628-21.375 8.629-8.624 21.384-8.624 12.756 0 21.371 8.624 8.615 8.625 8.615 21.375v276.154h55.386v-135.386q0-12.75 8.629-21.375 8.628-8.624 21.384-8.624 12.755 0 21.37 8.624 8.615 8.625 8.615 21.375v135.386h55.386v-87.693q0-12.75 8.629-21.375 8.628-8.625 21.384-8.625 12.755 0 21.371 8.625 8.615 8.625 8.615 21.375v87.693h55.385q0-12.75 8.629-21.375t21.384-8.625q12.756 0 21.371 8.625 8.615 8.625 8.615 21.375v143.46q0 62.153-43.923 106.076-43.923 43.923-106.076 43.923H469.864ZM99.232-795.384q-13.73 0-23.019-9.289-9.288-9.288-9.288-23.018 0-13.731 9.288-23.019 9.289-9.289 23.02-9.289 13.73 0 23.018 9.289 9.288 9.288 9.288 23.019 0 13.73-9.288 23.018-9.288 9.289-23.019 9.289Zm152.307 0q-13.73 0-23.019-9.289-9.288-9.288-9.288-23.018 0-13.731 9.288-23.019 9.289-9.289 23.019-9.289 13.731 0 23.019 9.289 9.288 9.288 9.288 23.019 0 13.73-9.288 23.018-9.288 9.289-23.019 9.289Zm152.307 0q-13.73 0-23.018-9.289-9.289-9.288-9.289-23.018 0-13.731 9.289-23.019 9.288-9.289 23.018-9.289 13.731 0 23.019 9.289 9.289 9.288 9.289 23.019 0 13.73-9.289 23.018-9.288 9.289-23.019 9.289Zm152.308 0q-13.731 0-23.019-9.289-9.289-9.288-9.289-23.018 0-13.731 9.289-23.019 9.288-9.289 23.019-9.289 13.73 0 23.018 9.289 9.289 9.288 9.289 23.019 0 13.73-9.289 23.018-9.288 9.289-23.018 9.289Zm152.307 0q-13.731 0-23.019-9.289-9.288-9.288-9.288-23.018 0-13.731 9.288-23.019 9.288-9.289 23.019-9.289 13.73 0 23.018 9.289 9.289 9.288 9.289 23.019 0 13.73-9.289 23.018-9.288 9.289-23.018 9.289Zm152.307 0q-13.731 0-23.019-9.289-9.288-9.288-9.288-23.018 0-13.731 9.288-23.019 9.288-9.289 23.019-9.289 13.73 0 23.019 9.289 9.288 9.288 9.288 23.019 0 13.73-9.288 23.018-9.289 9.289-23.019 9.289ZM99.232-643.077q-13.73 0-23.019-9.288-9.288-9.289-9.288-23.019 0-13.731 9.288-23.019 9.289-9.288 23.02-9.288 13.73 0 23.018 9.288t9.288 23.019q0 13.73-9.288 23.019-9.288 9.288-23.019 9.288Zm0 152.307q-13.73 0-23.019-9.288-9.288-9.289-9.288-23.019 0-13.731 9.288-23.019 9.289-9.288 23.02-9.288 13.73 0 23.018 9.288t9.288 23.019q0 13.73-9.288 23.019-9.288 9.288-23.019 9.288Zm152.307 0q-13.73 0-23.019-9.288-9.288-9.289-9.288-23.019 0-13.731 9.288-23.019 9.289-9.288 23.019-9.288 13.731 0 23.019 9.288 9.288 9.288 9.288 23.019 0 13.73-9.288 23.019-9.288 9.288-23.019 9.288Zm456.922 0q-13.731 0-23.019-9.288-9.288-9.289-9.288-23.019 0-13.731 9.288-23.019 9.288-9.288 23.019-9.288 13.73 0 23.018 9.288 9.289 9.288 9.289 23.019 0 13.73-9.289 23.019-9.288 9.288-23.018 9.288Zm152.307 0q-13.731 0-23.019-9.288-9.288-9.289-9.288-23.019 0-13.731 9.288-23.019 9.288-9.288 23.019-9.288 13.73 0 23.019 9.288 9.288 9.288 9.288 23.019 0 13.73-9.288 23.019-9.289 9.288-23.019 9.288Zm0-152.307q-13.731 0-23.019-9.288-9.288-9.289-9.288-23.019 0-13.731 9.288-23.019 9.288-9.288 23.019-9.288 13.73 0 23.019 9.288 9.288 9.288 9.288 23.019 0 13.73-9.288 23.019-9.289 9.288-23.019 9.288Z"/></svg>