<svg xmlns="http://www.w3.org/2000/svg" height="24" viewBox="0 -960 960 960" width="24"><path d="M289.001-100.001q-27.923 0-48.5-18.077t-23.192-46l-69.615-628.461q-3.231-26.922 14.692-47.191 17.922-20.269 45.46-20.269h544.308q27.538 0 45.46 20.269 17.923 20.269 14.692 47.191l-69.23 628.461q-2.616 27.923-23.192 46-20.577 18.077-48.5 18.077H289.001Zm-20.694-150 9 79.231q.77 4.616 4.232 7.693Q285-160 289.616-160h381.153q4.615 0 8.077-3.077 3.462-3.077 4.231-7.693l9-79.231h-423.77Zm-6.076-59.998h436.538L752.308-800H207.307l54.924 490.001ZM268.307-160h423.77H268.307Z"/></svg>