<svg xmlns="http://www.w3.org/2000/svg" height="24" viewBox="0 -960 960 960" width="24"><path d="M346.463-200v-146.463H200v134.154q0 5.385 3.462 8.847 3.462 3.462 8.847 3.462h134.154Zm207.076 0v-121.54l-24.923-24.923H406.461V-200h147.078Zm59.998 0Zm114.462-146.463Zm-381.536-59.998v-122.155l-24.923-24.923H200v147.078h146.463Zm59.998 0Zm353.539 0v-147.078H613.537v93.23l53.848 53.848H760ZM520.922-553.539ZM200-613.537Zm353.539 0V-760H406.461v92.615l53.848 53.848h93.23Zm206.461 0v-134.154q0-5.385-3.462-8.847-3.462-3.462-8.847-3.462H613.537v146.463H760ZM314.461-760Zm505.538 506.152L253.848-819.999h493.843q30.308 0 51.308 21t21 51.308v493.843Zm-607.69 113.847q-30.308 0-51.308-21t-21-51.308v-607.69l679.998 679.998h-607.69Zm598.308 75.539L72.924-802.77q-8.307-8.308-8.807-20.576-.5-12.269 8.807-21.577 8.692-8.692 21.077-8.692 12.384 0 21.076 8.692l738.308 738.308q8.923 8.923 8.808 20.884-.116 11.961-9.423 21.269-9.308 8.692-21.077 9-11.769.307-21.076-9Z"/></svg>