<svg xmlns="http://www.w3.org/2000/svg" height="24" viewBox="0 -960 960 960" width="24"><path d="M142.309-220.001q-29.826 0-51.067-21.241-21.24-21.24-21.24-51.067v-375.382q0-29.827 21.24-51.067 21.241-21.241 51.067-21.241h375.383q29.827 0 51.067 21.241 21.24 21.24 21.24 51.067v375.382q0 29.827-21.24 51.067-21.24 21.241-51.067 21.241H142.309ZM706.343-520q-15.652 0-25.998-10.346-10.346-10.346-10.346-25.998v-147.311q0-15.651 10.346-25.997 10.346-10.347 25.998-10.347h147.311q15.652 0 25.998 10.347 10.346 10.346 10.346 25.997v147.311q0 15.652-10.346 25.998Q869.306-520 853.654-520H706.343Zm23.655-59.999h100.001V-680H729.998v100.001ZM142.309-280h375.383q5.385 0 8.847-3.462 3.462-3.462 3.462-8.847v-375.382q0-5.385-3.462-8.847-3.462-3.462-8.847-3.462H142.309q-5.385 0-8.846 3.462-3.462 3.462-3.462 8.847v375.382q0 5.385 3.462 8.847 3.461 3.462 8.846 3.462Zm564.034 59.999q-15.652 0-25.998-10.347-10.346-10.346-10.346-25.997v-147.311q0-15.652 10.346-25.998Q690.691-440 706.343-440h147.311q15.652 0 25.998 10.346 10.346 10.346 10.346 25.998v147.311q0 15.651-10.346 25.997-10.346 10.347-25.998 10.347H706.343ZM729.998-280h100.001v-100.001H729.998V-280Zm-599.997 0v-400 400Zm599.997-299.999V-680v100.001Zm0 299.999v-100.001V-280Zm-300.043-50.001q20.815 0 35.43-14.57Q480-359.141 480-379.955t-14.57-35.429q-14.57-14.615-35.384-14.615t-35.429 14.57q-14.616 14.57-14.616 35.384t14.57 35.429q14.57 14.615 35.384 14.615Zm-180.878-27.307 204-204q8.308-8.179 8.308-20.82t-8.308-20.948q-8.307-8.308-20.948-8.308t-20.82 8.308L206.924-398.692q-8.307 8.308-8.115 20.692.192 12.384 8.5 20.692 8.307 8.307 20.948 8.307t20.82-8.307Zm-19.122-172.693q20.815 0 35.43-14.57Q280-559.141 280-579.955t-14.57-35.429q-14.57-14.615-35.384-14.615t-35.429 14.57q-14.616 14.57-14.616 35.384t14.57 35.429q14.57 14.615 35.384 14.615Z"/></svg>