<svg xmlns="http://www.w3.org/2000/svg" height="24" viewBox="0 -960 960 960" width="24"><path d="M376.155-334.387 203.846-161.463q-8.923 8.923-20.884 9.116-11.961.192-21.269-9.116-9.307-9.307-9.307-21.384 0-12.076 9.307-21.384L334.002-376.54h-82.847q-12.75 0-21.375-8.628-8.625-8.629-8.625-21.384 0-12.756 8.625-21.371 8.625-8.615 21.375-8.615H400q15.365 0 25.759 10.394 10.395 10.394 10.395 25.759v148.846q0 12.749-8.629 21.374-8.629 8.625-21.384 8.625-12.756 0-21.371-8.625-8.615-8.625-8.615-21.374v-82.848ZM625.998-584.23h82.847q12.75 0 21.375 8.629t8.625 21.384q0 12.756-8.625 21.371-8.625 8.615-21.375 8.615H560q-15.365 0-25.759-10.394-10.395-10.394-10.395-25.76V-709.23q0-12.75 8.629-21.374 8.629-8.625 21.384-8.625 12.756 0 21.371 8.625 8.615 8.624 8.615 21.374v82.848l172.309-172.925q8.923-8.923 20.884-9.115 11.961-.192 21.269 9.115 9.307 9.308 9.307 21.384 0 12.077-9.307 21.384L625.998-584.23Z"/></svg>