<svg xmlns="http://www.w3.org/2000/svg" height="24" viewBox="0 -960 960 960" width="24"><path d="M386.846-140.001q-66.845 0-109.845-50.846t-33.769-117.461l51.538-395.076q1.744-9.942 7.411-17.625 5.666-7.682 14.923-11.434l292.511-118.171q16.461-7.231 31.73 2.115 15.269 9.347 17.269 27.423l59.385 515.537q7.23 66.23-34.769 115.884-42 49.654-108.23 49.654H386.846Zm0-59.999H575q38.692 0 63.654-29.423 24.961-29.423 19.961-68.655l-13.029-113.846h-327.74l-15 112.462q-5 39.347 19.769 69.405Q347.385-200 386.846-200Zm-34.308-481.308-27.384 209.386h313.154l-35.385-312.232-250.385 102.846Zm128.308 269.384Zm1.385-59.998Zm-.616 59.998v-59.998 59.998Z"/></svg>