<svg xmlns="http://www.w3.org/2000/svg" height="24" viewBox="0 -960 960 960" width="24"><path d="M480-260.001q-39.923 0-59.077 20-19.154 20-73.923 20-53.154 0-74.307-20-21.154-20-58.693-20-29.154 0-46.923 14.461-17.77 14.462-46.692 21.692-12.154 3.231-21.27-5.269-9.114-8.499-9.114-21.268 0-13.154 9.115-22.769 9.115-9.615 20.653-15.307 19.308-9.385 37.731-20.462Q175.923-320 213-320q54.154 0 75.5 20 21.346 20 57.5 20 39.154 0 59.577-20Q426-320 480-320t74.423 20q20.423 20 59.577 20 36.154 0 57.5-20 21.346-20 75.5-20 38.231 0 55.884 10.885 17.654 10.884 37.347 20.654 11.538 5.692 20.653 15.307 9.115 9.615 9.115 22.769 0 12.769-9.115 21.268-9.115 8.5-21.269 5.269-28.922-7.23-47.076-21.692-18.154-14.461-46.539-14.461-37.539 0-58.693 20-21.153 20-74.307 20-54.769 0-73.923-20-19.154-20-59.077-20Zm-234.614-120q-22.077 0-42.346-8.039-20.269-8.038-35.731-23.884l-27-27.385q-8.307-8.307-8.423-20.576-.115-12.269 8.808-21.192 8.307-8.308 20.384-8.615 12.077-.308 21 7.999l27.384 27q7.154 7.154 16.385 10.924Q235.078-440 245.386-440h54.615v-149.616l-29.077 21.769q-10.538 7.308-22 5.577-11.461-1.731-19.153-12.269-7.692-10.538-6.269-21.999 1.423-11.462 11.961-19.154l201.768-148.537q9.846-7.231 20.385-10.654 10.538-3.423 22.384-3.423t22.384 3.423q10.539 3.423 20.385 10.654l201.383 148.153q10.538 7.692 12.269 19.345 1.731 11.654-5.961 22.192-7.693 10.538-19.769 12.461-12.077 1.923-22.615-5.769l-28.077-20.769V-440h54.615q10.308 0 19.539-3.769 9.231-3.77 16.385-10.924l27.384-27Q786.23-490 798.499-490q12.269 0 21.192 8.923 8.307 8.307 8.307 20.884t-8.307 20.884l-27 27q-15.846 15.846-35.923 24.077-20.077 8.231-42.154 8.231H245.386ZM509.999-440v-50.001q0-12.769-8.615-21.384T480-520q-12.769 0-21.384 8.615t-8.615 21.384V-440h59.998Z"/></svg>