<svg xmlns="http://www.w3.org/2000/svg" height="24" viewBox="0 -960 960 960" width="24"><path d="M668.231-202.694q-17.001-5-29.809-11.846-12.807-6.846-25.346-18.693l-31.845 10.692q-6.231 2-11.846.077-5.616-1.923-9.231-7.538l-14.769-24.614q-4-5.616-2.577-12.231 1.423-6.616 6.423-11.231l24.923-21.307q-4.693-16.231-4.693-33.308 0-17.077 4.693-33.693l-24.923-21.692q-5-4.615-6.615-11.038-1.615-6.423 2.385-12.039l15.153-24.999q3.615-5.615 9.231-7.538 5.615-1.923 11.846.077l31.845 10.692q12.154-11.462 25.539-18.5 13.385-7.039 29.616-12.039l5.923-32.076q1.615-6.615 5.923-10.923 4.307-4.308 11.538-4.308h29.537q7.231 0 11.538 4.308 4.308 4.308 5.924 10.923l5.922 32.076q16.231 4.616 29.424 11.846 13.192 7.231 25.731 18.693l31.845-10.692q6.231-2 11.846-.077 5.616 1.923 9.231 7.538l15.153 24.999q4 5.616 2.385 12.039-1.615 6.423-6.615 11.038l-24.923 21.692q5.077 17 4.885 33.885-.192 16.885-5.269 33.116l24.922 21.307q4.231 3.846 6.423 10.462 2.192 6.615-2.192 13l-14.769 24.614q-3.615 5.615-9.231 7.538-5.615 1.923-11.846-.077l-31.845-10.692q-12.539 11.462-25.346 18.5-12.808 7.039-29.809 12.039l-5.922 32.076q-1.616 6.615-5.924 10.923-4.307 4.308-11.538 4.308h-29.537q-7.231 0-11.538-4.308-4.308-4.308-5.923-10.923l-5.923-32.076Zm38.153-47.307q34.153 0 58.615-24.461 24.462-24.462 24.462-58.616 0-34.154-24.462-58.615-24.462-24.462-58.615-24.462-34.154 0-58.616 24.462-24.462 24.461-24.462 58.615t24.462 58.616q24.462 24.461 58.616 24.461Zm-494.075 70q-30.308 0-51.308-21t-21-51.308v-535.382q0-30.308 21-51.308t51.308-21h535.382q30.308 0 51.308 21t21 51.308v225.23q-14.385-7.461-29.192-12.192T760-582.384v-205.307q0-5.385-3.462-8.847-3.462-3.462-8.847-3.462H212.309q-5.385 0-8.847 3.462-3.462 3.462-3.462 8.847v360h142.385q13.538 0 21.769 5.115 8.231 5.115 13.231 14.5 12.846 22.615 30.423 36.192 17.577 13.577 38.731 19.577-2.846 46.692 10.385 91.038 13.231 44.345 42.923 81.268H212.309Z"/></svg>