<svg xmlns="http://www.w3.org/2000/svg" height="24" viewBox="0 -960 960 960" width="24"><path d="M176.924-100.001q-29.826 0-51.067-21.241-21.24-21.24-21.24-51.067v-615.382q0-29.827 21.24-51.067 21.241-21.241 51.067-21.241h335.383q29.827 0 51.067 21.241 21.24 21.24 21.24 51.067v615.382q0 29.827-21.24 51.067-21.24 21.241-51.067 21.241H176.924Zm-12.308-413.613q16.846-13.307 37.038-19.846 20.192-6.539 42.962-6.539h200q22.769 0 42.961 6.539 20.193 6.539 37.039 19.846v-274.077q0-5.385-3.462-8.847-3.462-3.462-8.847-3.462H176.924q-5.385 0-8.846 3.462-3.462 3.462-3.462 8.847v274.077Zm180-86.386q-29.154 0-49.577-20.423t-20.423-49.576q0-29.154 20.423-49.577t49.577-20.423q29.153 0 49.576 20.423 20.423 20.423 20.423 49.577 0 29.153-20.423 49.576Q373.769-600 344.616-600ZM176.924-160h335.383q5.385 0 8.847-3.462 3.462-3.462 3.462-8.847V-400q0-33-23.5-56.5t-56.5-23.5h-200q-33 0-56.5 23.5t-23.5 56.5v227.691q0 5.385 3.462 8.847 3.461 3.462 8.846 3.462Zm137.692-130.001V-240q0 12.75 8.629 21.374 8.629 8.625 21.384 8.625 12.756 0 21.371-8.625 8.615-8.624 8.615-21.374v-50.001h50.001q12.749 0 21.374-8.628 8.625-8.629 8.625-21.384 0-12.756-8.625-21.371-8.625-8.615-21.374-8.615h-50.001V-400q0-12.75-8.629-21.374-8.628-8.625-21.384-8.625-12.755 0-21.37 8.625-8.616 8.624-8.616 21.374v50.001h-50q-12.75 0-21.375 8.628-8.625 8.629-8.625 21.384 0 12.756 8.625 21.371 8.625 8.615 21.375 8.615h50ZM176.924-160h-12.308 360-347.692Zm598.882-214.924q-9.115 8.923-21.384 8.923t-21.192-8.923l-78.769-79.769Q643.615-465.539 643.615-480q0-14.461 10.846-25.307l78.769-79.769q8.923-8.923 21.192-8.923t21.384 8.923q9.115 8.922 9.115 21.332t-8.922 21.436l-33.309 32.309h111.617q12.749 0 21.374 8.628 8.625 8.629 8.625 21.384 0 12.756-8.625 21.371-8.625 8.615-21.374 8.615H743.074l32.925 32.309q8.922 9.026 8.922 21.436t-9.115 21.332Z"/></svg>