<svg xmlns="http://www.w3.org/2000/svg" height="24" viewBox="0 -960 960 960" width="24"><path d="M252.309-100.001q-30.308 0-51.308-21t-21-51.308v-615.382q0-30.308 21-51.308t51.308-21h287.769q14.461 0 27.807 5.616 13.346 5.615 23.193 15.461l167.844 167.844q9.846 9.847 15.461 23.193 5.616 13.346 5.616 27.807v447.769q0 30.308-21 51.308t-51.308 21H252.309Zm287.692-556.154V-800H252.309q-4.616 0-8.463 3.846-3.846 3.847-3.846 8.463v615.382q0 4.616 3.846 8.463 3.847 3.846 8.463 3.846h455.382q4.616 0 8.463-3.846 3.846-3.847 3.846-8.463v-447.692H576.155q-15.461 0-25.807-10.347-10.347-10.346-10.347-25.807ZM240-800v179.999V-800v640V-800Z"/></svg>