<svg xmlns="http://www.w3.org/2000/svg" height="24" viewBox="0 -960 960 960" width="24"><path d="m254.306-450.001 132.925 132.925q8.307 8.307 8.5 20.884.192 12.576-8.5 21.268-8.692 8.693-21.077 8.693-12.384 0-21.076-8.693L165.309-454.693q-5.615-5.615-7.923-11.846-2.308-6.23-2.308-13.461t2.308-13.461q2.308-6.231 7.923-11.846l179.769-179.769q8.307-8.308 20.884-8.5 12.577-.193 21.269 8.5 8.692 8.692 8.692 21.076t-8.692 21.076L254.306-509.999h493.385q5.385 0 8.847-3.462 3.462-3.462 3.462-8.847V-640q0-12.769 8.615-21.384t21.384-8.615q12.769 0 21.384 8.615 8.616 8.615 8.616 21.384v117.692q0 29.923-21.193 51.115-21.192 21.192-51.115 21.192H254.306Z"/></svg>