<svg xmlns="http://www.w3.org/2000/svg" height="24" viewBox="0 -960 960 960" width="24"><path d="m306.924-480-106.77-166.616q-19.846-30.384-2.423-61.883 17.423-31.5 53.883-31.5h340.693q20.769 0 39.039 9.385 18.269 9.385 30.038 26.154l128.692 182.691q13.461 19.077 13.461 41.769 0 22.692-13.461 41.769l-130.23 183.46q-11.385 16.385-29.27 25.577-17.884 9.193-38.269 9.193H251.614q-36.46 0-53.883-31.5-17.423-31.499 2.423-61.883L306.924-480Zm72.152 0-130 200h343.231q5.77 0 10.77-2.693 5.001-2.692 8.462-7.308l130.076-182.691q2.308-3.077 2.308-7.308t-2.308-7.308L611.539-669.999q-3.461-4.616-8.077-7.308Q598.846-680 592.307-680H249.076l130 200Zm0 0-130-200 130 200-130 200 130-200Z"/></svg>