<svg xmlns="http://www.w3.org/2000/svg" height="24" viewBox="0 -960 960 960" width="24"><path d="M714.537-331.384 305.538-739.999h286.769q20.385 0 38.731 9.654t30.346 26.654l128.692 181.922q13.461 19.077 13.461 41.769 0 22.692-13.461 41.769l-75.539 106.847ZM212.309-220.001q-30.308 0-51.308-21t-21-51.308v-375.382q0-8.693 1.923-16.731 1.924-8.038 5.77-15.884l-55.232-55.232q-8.307-8.307-8.5-20.884-.192-12.577 8.5-21.269 8.692-8.692 21.077-8.692 12.384 0 21.076 8.692l655.383 655.383q8.307 8.308 8.5 20.884.192 12.577-8.5 21.269-8.692 8.692-21.077 8.692-12.384 0-21.076-8.692L620.306-227.694q-6.692 3.846-15.115 5.77-8.423 1.923-17.5 1.923H212.309Z"/></svg>