<svg xmlns="http://www.w3.org/2000/svg" height="24" viewBox="0 -960 960 960" width="24"><path d="M480-548.078q38.923 0 65.423-26.499 26.499-26.5 26.499-65.423t-26.499-65.423q-26.5-26.499-65.423-26.499t-65.423 26.499q-26.499 26.5-26.499 65.423t26.499 65.423q26.5 26.499 65.423 26.499Zm0 159.999q-35.154 0-63.384-19.961-28.231-19.962-39.923-53.423-5 1.154-9.961 1.654-4.962.5-10.347.5-45.461 0-77.653-32-32.192-32-32.192-77.461 0-19.461 7.193-37.423 7.192-17.961 20.038-33.807-12.231-15.846-19.231-33.807-7-17.962-7-37.423 0-45.461 31.692-77.461t77.153-32q5.385 0 10.347.5 4.961.5 10.346 1.27 11.692-33.077 39.73-53.039 28.038-19.961 63.192-19.961 35.154 0 63.192 19.961 28.038 19.962 39.73 53.039 5.385-.77 10.346-1.27 4.962-.5 10.347-.5 45.461 0 77.153 32 31.692 32 31.692 77.461 0 19.461-6.693 37.615-6.692 18.154-19.538 33.615 12.231 15.846 19.231 33.807 7 17.962 7 37.423 0 45.461-31.692 77.461t-77.153 32q-5.385 0-10.347-.5-4.961-.5-10.731-1.654-11.307 33.461-39.345 53.423-28.038 19.961-63.192 19.961Zm0 284Q480-217.001 554.461-309q74.462-92 182.23-115.615 15.154-3.846 29.615-2.346 14.461 1.5 25.384 12.807 9.692 10.693 11.192 25.038 1.5 14.346-2.346 27.885-24.538 107.614-116.268 182.383Q592.537-104.079 480-104.079Zm0 1Q480-216.001 405.539-308q-74.462-92-182.23-115.615-15.154-3.846-29.615-2.346-14.461 1.5-25.384 12.807-9.692 10.693-11.192 25.038-1.5 14.346 2.346 27.885 24.538 107.614 116.268 182.383Q367.463-103.079 480-103.079Z"/></svg>