<svg xmlns="http://www.w3.org/2000/svg" height="24" viewBox="0 -960 960 960" width="24"><path d="M379.231-691.692 233.232-837.691q11.692-7.538 24.269-10.307 12.577-2.769 24.807-2.769 45.769 0 77.884 31.807 32.115 31.808 32.115 78.192 0 13-3.384 24.884-3.385 11.884-9.692 24.192Zm397.69 397.691L716.923-354v-350.614q0-36.077-25.039-61.116-25.038-25.039-61.115-25.039-36.078 0-61.116 25.039-25.039 25.039-25.039 61.116v178.305l-59.998-59.998v-118.307q0-61.461 42.961-103.807 42.961-42.346 103.192-42.346 60.23 0 103.191 42.346 42.961 42.346 42.961 103.807v410.613ZM792-81.387 544.614-328.772v73.386q0 60.231-42.961 103.192-42.961 42.961-103.192 42.961-60.23 0-103.191-42.961-42.961-42.961-42.961-103.192h-2.846q-14.077 0-24.116-9.538-10.038-9.539-12.038-23l-30.461-301.537q-2-16.461 8.846-28.115t27.307-11.654h23.925L76.002-797.385q-8.308-8.308-8.808-20.576-.5-12.269 8.807-21.577 8.693-8.692 21.077-8.692 12.384 0 21.076 8.692l715.999 715.999q8.307 8.307 8.5 20.884.192 12.576-8.5 21.269-8.692 8.692-21.077 8.692-12.384 0-21.076-8.692ZM270.846-315.384h22.924l23.923-240.31-14.769-13.537h-57.617l25.539 253.847Zm127.615 146.153q36.078 0 61.116-25.039 25.039-25.039 25.039-61.116v-133.385L371.999-501.387l-20.692 213.463q-2 13.461-12.039 23-10.038 9.538-24.115 9.538h-2.846q0 36.077 25.039 61.116 25.038 25.039 61.115 25.039Zm-127.615-400h-25.539 72.386H270.846Z"/></svg>