<svg xmlns="http://www.w3.org/2000/svg" height="24" viewBox="0 -960 960 960" width="24"><path d="m480-195.54-63.999 48.692q-10.846 8.23-21.5.5-10.654-7.731-6.423-20.577l25.153-79.691-62.999-44.692q-10.846-7.231-6.423-19.885 4.423-12.653 17.269-12.653h76.307l28.769-93.539-138.923-81.692q-18.769-11-29.153-29.577-10.385-18.577-10.385-41.192v-226.308q0-29.922 21.192-51.115 21.192-21.192 51.115-21.192h240q29.923 0 51.115 21.192 21.192 21.193 21.192 51.115v226.308q0 22.23-10.769 40.423-10.769 18.192-29.539 29.577l-138.153 82.461 28.769 93.539h76.307q12.846 0 17.269 12.653 4.423 12.654-6.423 19.885l-62.999 44.692 25.153 79.691q4.231 12.846-6.423 20.577-10.654 7.73-21.5-.5L480-195.54Zm-29.999-612.922v311.233L480-479.384l29.999-17.845v-311.233h-59.998Z"/></svg>