<svg xmlns="http://www.w3.org/2000/svg" height="24" viewBox="0 -960 960 960" width="24"><path d="M261.54-292.309h-41.539q-29.826 0-51.066-21.24-21.241-21.24-21.241-51.067V-660h-5.385q-12.749 0-21.374-8.629-8.625-8.628-8.625-21.384 0-12.755 8.625-21.37 8.625-8.616 21.374-8.616H261.54v-64.615h-26.154q-12.75 0-21.375-8.629t-8.625-21.384q0-12.755 8.625-21.371 8.625-8.615 21.375-8.615h112.307q12.75 0 21.374 8.629 8.625 8.629 8.625 21.384t-8.625 21.371q-8.624 8.615-21.374 8.615h-26.154v64.615h119.23q12.75 0 21.375 8.629t8.625 21.384q0 12.756-8.625 21.371Q453.519-660 440.769-660h-5.385v295.384q0 29.827-21.24 51.067t-51.067 21.24h-41.538v170.384q0 9.115-8.308 13.673-8.307 4.558-16-1.519l-23.691-17.846q-5.923-4.461-8.962-10.568-3.038-6.106-3.038-13.739v-140.385ZM668.372-112.31q-59.372 0-101.564-42.255-42.192-42.254-42.192-101.59v-299.999q0-59.336 42.28-101.59 42.281-42.255 101.653-42.255 59.373 0 101.565 42.255 42.192 42.254 42.192 101.59v299.999q0 59.336-42.281 101.59-42.28 42.255-101.653 42.255ZM220.001-352.307h143.076q5.385 0 8.847-3.462 3.462-3.462 3.462-8.847v-58.461h-73.847q-9.538 0-16.692-7.154-7.153-7.154-7.153-16.692t7.153-16.692q7.154-7.154 16.692-7.154h73.847v-70.77h-73.847q-9.538 0-16.692-7.153-7.153-7.154-7.153-16.692 0-9.539 7.153-16.692 7.154-7.154 16.692-7.154h73.847V-660H207.693v295.384q0 5.385 3.462 8.847 3.461 3.462 8.846 3.462ZM668.653-640q-34.731 0-59.385 24.462-24.654 24.461-24.654 59.384v10.001h167.693v-10.001q0-34.923-24.461-59.384Q703.384-640 668.653-640Zm-84.039 313.846h167.693v-160H584.614v160Zm83.847 153.845q34.923 0 59.385-24.629 24.461-24.63 24.461-59.217v-10.001H584.614v10.001q0 34.587 24.63 59.217 24.63 24.629 59.217 24.629Zm0-373.844Zm0 279.997Z"/></svg>