<svg xmlns="http://www.w3.org/2000/svg" height="24" viewBox="0 -960 960 960" width="24"><path d="M426.308-103.848q-44.846 0-68.269-26.846-23.423-26.846-23.423-60.845 0-22.923 9.962-44.731 9.961-21.807 31.269-35.884 22.384-14.769 36.654-38.885 14.269-24.115 20.423-52.577-7.923-3.385-15.654-7.346-7.731-3.962-14.654-9.885l-92.77 33.384q-15.846 5.616-30.499 9.231-14.654 3.616-30.116 3.616-57.23 0-101.307-50.769-44.076-50.769-44.076-148.307 0-44.846 26.653-68.269 26.654-23.423 60.038-23.423 23.308 0 45.423 9.962 22.115 9.961 36.192 31.269 14.769 22.384 38.885 36.654 24.115 14.269 52.577 20.423 3.385-7.923 7.346-15.654 3.962-7.731 9.885-14.654l-33.384-92.77q-5.616-15.461-9.231-30.307-3.616-14.846-3.616-29.308 0-62.461 54.039-104.422 54.038-41.961 145.037-41.961 44.846 0 68.269 26.653 23.423 26.654 23.423 60.038 0 22.539-9.962 44.846-9.961 22.308-31.269 36.384-22.384 14.77-36.654 39.077-14.269 24.308-20.423 52.77 8.308 3.769 16.039 7.731 7.731 3.962 14.269 9.5l92.77-34.384q15.846-5.616 29.999-8.731 14.154-3.116 29.616-3.116 73.691 0 110.037 61.615 36.346 61.615 36.346 137.461 0 44.846-28.153 68.269-28.154 23.423-62.538 23.423-21.923 0-42.731-9.962-20.807-9.961-34.884-31.269-14.769-22.384-38.885-36.654-24.115-14.269-52.577-20.423-3.385 7.923-7.346 15.462-3.962 7.538-9.885 14.846l33.384 92.77q5.616 14.846 9.231 28.384 3.616 13.538 3.616 27.615.23 58.461-50.346 104.23-50.577 45.769-148.73 45.769ZM480-413.846q27.693 0 46.923-19.231 19.231-19.23 19.231-46.923t-19.231-46.923q-19.23-19.231-46.923-19.231t-46.923 19.231q-19.231 19.23-19.231 46.923t19.231 46.923q19.23 19.231 46.923 19.231Z"/></svg>