<svg xmlns="http://www.w3.org/2000/svg" height="24" viewBox="0 -960 960 960" width="24"><path d="M172.309-779.999 242.308-640h120l-69.999-139.999h80L442.308-640h120l-69.999-139.999h80L642.308-640h120l-69.999-139.999h95.382q30.308 0 51.308 21t21 51.308v455.382q0 30.308-21 51.308t-51.308 21H172.309q-30.308 0-51.308-21t-21-51.308v-455.382q0-30.308 21-51.308t51.308-21ZM160-580.001v327.692q0 5.385 3.462 8.847 3.462 3.462 8.847 3.462h615.382q5.385 0 8.847-3.462 3.462-3.462 3.462-8.847v-327.692H160Zm0 0V-240-580.001Z"/></svg>