<svg xmlns="http://www.w3.org/2000/svg" height="24" viewBox="0 -960 960 960" width="24"><path d="M729.306-333.463 675-387.769l86.076-86.077q3.078-3.077 3.078-6.346 0-3.27-3.078-6.347L486.154-761.461q-3.077-3.077-6.731-3.077t-6.731 3.077l-86.077 86.077-54.306-54.307 95.076-95.076q10.846-10.846 24.5-16.769 13.654-5.923 27.73-5.923 14.077 0 27.231 5.423 13.154 5.423 24 16.269L825.613-531q21.692 21.077 21.885 50.115.192 29.039-21.5 50.731l-96.692 96.691Zm-96.922 98.153L530.615-134.771q-10.846 10.23-24 15.653t-27 5.423q-13.461 0-26.807-5.115-13.346-5.115-24.192-15.961L134.618-428.77q-10.847-10.846-16.27-24.192t-5.423-26.807q0-13.846 5.423-27t16.27-24l99.922-100.538-132.462-133.078q-8.307-8.307-8.807-20.576t8.807-21.576q8.692-8.693 21.077-8.693 12.384 0 21.076 8.693l661.383 661.383q8.308 8.307 8.5 20.268.192 11.962-8.5 20.654t-20.768 8.692q-12.077 0-20.769-8.692L632.384-235.31ZM198.77-473.23l274.306 274.306q3.078 3.078 6.539 3.078 3.462 0 6.539-3.078l91.924-90.692-65.463-65.462-7.692 7.692q-10.846 10.846-25.308 10.846-14.461 0-25.307-10.846L347.232-454.462q-10.846-10.846-10.846-25.307 0-14.462 10.846-25.308l7.692-7.692-64.846-64.847-91.308 91.308q-3.077 3.077-3.077 6.539 0 3.462 3.077 6.539Zm411.383 20.614L451.846-610.922l2.462-2.462q10.461-10.461 24.923-10.461 14.461 0 24.923 10.461l108.46 108.461q10.462 10.462 10.462 24.923 0 14.461-10.462 24.923l-2.461 2.461Z"/></svg>