<svg xmlns="http://www.w3.org/2000/svg" height="24" viewBox="0 -960 960 960" width="24"><path d="M827.678-240q-12.756 0-21.371-8.625-8.615-8.625-8.615-21.374V-520q0-12.75 8.629-21.375 8.628-8.624 21.384-8.624 12.755 0 21.371 8.624 8.615 8.625 8.615 21.375v250.001q0 12.749-8.629 21.374Q840.433-240 827.678-240Zm-.122 133.075q-13.787 0-22.98-9.25-9.192-9.249-9.192-22.922t9.25-23.058q9.249-9.384 22.922-9.384 13.674 0 23.058 9.327 9.385 9.327 9.385 23.115 0 13.788-9.328 22.98-9.327 9.192-23.115 9.192Zm-359.891-5.77q-13.435 0-26.396-5.423-12.962-5.423-24.193-16.653L122.463-429.385q-11.231-11.231-16.654-24.218-5.423-12.988-5.423-26.423 0-13.435 5.423-26.397 5.423-12.961 16.654-24.192l294.613-294.614q11.231-11.23 24.219-16.653 12.987-5.423 26.422-5.423 13.436 0 26.397 5.615 12.962 5.615 24.192 16.461l184 183.231v108.613l-228.46-228.461q-3.077-3.077-6.155-3.077-3.077 0-6.154 3.077L185.846-486.154q-3.077 3.077-3.077 6.154t3.077 6.154l275.691 275.692q3.077 3.077 6.154 3.077 3.078 0 6.155-3.077l228.46-228.461v108.613l-184 183.231q-11.23 10.846-24.218 16.461-12.987 5.615-26.423 5.615Zm-25.281-234.306L334.623-454.762Q323.846-465.539 323.846-480t10.847-25.307l107.761-107.762q10.776-10.776 25.237-10.776 14.462 0 25.308 10.846L600.76-505.238q10.776 10.777 10.776 25.238t-10.846 25.307L492.929-346.931q-10.776 10.776-25.238 10.776-14.461 0-25.307-10.846Z"/></svg>