<svg xmlns="http://www.w3.org/2000/svg" height="24" viewBox="0 -960 960 960" width="24"><path d="M479.943-210.001q78.826 0 134.441-55.575Q669.999-321.15 669.999-400v-160q0-78.85-55.558-134.424-55.558-55.575-134.384-55.575t-134.441 55.575Q290.001-638.85 290.001-560v160q0 78.85 55.558 134.424 55.558 55.575 134.384 55.575Zm.012-59.998q-54.186 0-92.071-37.917T349.999-400v-160q0-54.167 37.93-92.084t92.116-37.917q54.186 0 92.071 37.917T610.001-560v160q0 54.167-37.93 92.084t-92.116 37.917ZM480-564.616q14.692 0 25.038-10.346T515.384-600q0-14.692-10.346-25.038T480-635.384q-14.692 0-25.038 10.346T444.616-600q0 14.692 10.346 25.038T480-564.616ZM212.309-60.002q-29.827 0-51.067-21.24-21.241-21.24-21.241-51.067v-695.382q0-29.827 21.241-51.067 21.24-21.241 51.067-21.241h535.382q29.827 0 51.067 21.241 21.241 21.24 21.241 51.067v695.382q0 29.827-21.241 51.067-21.24 21.24-51.067 21.24H212.309Zm0-59.998h535.382q5.385 0 8.847-3.462 3.462-3.462 3.462-8.847v-695.382q0-5.385-3.462-8.847-3.462-3.462-8.847-3.462H212.309q-5.385 0-8.847 3.462-3.462 3.462-3.462 8.847v695.382q0 5.385 3.462 8.847 3.462 3.462 8.847 3.462ZM200-120V-840-120Z"/></svg>