<svg xmlns="http://www.w3.org/2000/svg" height="24" viewBox="0 -960 960 960" width="24"><path d="M806.537-492.309q-19.615 0-33.653-14.038T758.846-540v-223.845q0-19.615 14.038-33.653t33.653-14.038q19.615 0 33.654 14.038 14.038 14.038 14.038 33.653V-540q0 19.615-14.038 33.653-14.039 14.038-33.654 14.038Zm-406.537 0q-57.749 0-98.874-41.124-41.125-41.125-41.125-98.874 0-57.75 41.125-98.874 41.125-41.125 98.874-41.125 57.749 0 98.874 41.125 41.125 41.124 41.125 98.874 0 57.749-41.125 98.874-41.125 41.124-98.874 41.124ZM100.001-187.694v-88.922q0-29.688 15.847-54.574 15.846-24.886 42.768-38.348 56.923-27.692 117.65-42.923 60.727-15.23 123.807-15.23 63.081 0 123.734 15.23 60.654 15.231 117.577 42.923 26.922 13.462 42.768 38.348 15.847 24.886 15.847 54.574v88.922H100.001Z"/></svg>