<svg xmlns="http://www.w3.org/2000/svg" height="24" viewBox="0 -960 960 960" width="24"><path d="M503.076-302.079q0 27.924 6.154 54.539 6.154 26.616 18.692 51.154l-4.769 4.77q-9.308 9.307-20.242 13.576-10.934 4.269-22.999 4.269-12.066 0-22.911-4.269-10.846-4.269-20.154-13.576L75.617-552.847q-9.308-9.308-13.77-20.718-4.46-11.41-4.46-22.82 0-13.076 5.46-24.999 5.462-11.923 16.385-21.153 83.154-67.923 188.653-102.692 105.5-34.77 212.115-34.77 106.615 0 212.115 34.77 105.499 34.769 188.653 102.692 10.923 9.23 16.384 21.153 5.462 11.923 5.462 24.999 0 11.539-4.462 22.884-4.461 11.346-13.768 20.654l-34.615 34.615q-16.231-7.692-33.192-11.923t-34.422-6L844-598q-79-60-172-91t-192-31q-99 0-192 31t-172 91l176.231 176.231q42.462-27.154 90.079-41.538 47.618-14.385 97.69-14.385 22.624 0 44.882 4.238 22.259 4.238 43.423 9.454-31.076 32.692-48.153 74.576-17.076 41.884-17.076 87.345Zm164.722 153.615q-16.337 0-27.453-11.057-11.115-11.058-11.115-27.404v-113.936q0-16.14 11.058-27.256 11.057-11.115 27.403-11.115h1.924v-40q0-31.462 21.961-53.423 21.961-21.961 53.423-21.961 31.461 0 53.423 21.961 21.961 21.961 21.961 53.423v40h1.923q16.02 0 26.856 11.058 10.837 11.057 10.837 27.403v113.936q0 16.141-11.052 27.256-11.052 11.115-27.389 11.115h-153.76Zm37.201-190.768h80v-40q0-17-11.5-28.5t-28.5-11.5q-17 0-28.5 11.5t-11.5 28.5v40Z"/></svg>