<svg xmlns="http://www.w3.org/2000/svg" height="24" viewBox="0 -960 960 960" width="24"><path d="M592.307-220.001h-76.923q-12.749 0-21.374-8.629-8.625-8.629-8.625-21.384 0-12.756 8.625-21.371Q502.635-280 515.384-280h76.923q5.77 0 10.962-2.693 5.193-2.692 8.27-7.308l130.076-182.691q2.308-3.077 2.308-7.308t-2.308-7.308L611.539-669.999q-3.077-4.616-8.27-7.308Q598.077-680 592.307-680H212.309q-5.385 0-8.847 3.462-3.462 3.462-3.462 8.847v72.307q0 12.749-8.629 21.374-8.628 8.625-21.384 8.625-12.755 0-21.37-8.625-8.616-8.625-8.616-21.374v-72.307q0-29.827 21.241-51.067 21.24-21.241 51.067-21.241h379.998q20.839 0 39.074 9.77 18.234 9.769 30.003 26.538l128.692 181.922q13.461 19.066 13.461 41.764 0 22.697-13.461 41.774L661.384-255.54q-12.154 16.769-30.038 26.154-17.885 9.385-39.039 9.385ZM472.154-480ZM210.001-290.001H120q-12.75 0-21.374-8.628Q90-307.258 90-320.013q0-12.756 8.624-21.371 8.625-8.615 21.375-8.615h90.001V-440q0-12.75 8.628-21.374 8.629-8.625 21.384-8.625 12.756 0 21.371 8.625 8.615 8.624 8.615 21.374v90.001H360q12.75 0 21.374 8.628 8.625 8.629 8.625 21.384 0 12.756-8.625 21.371-8.624 8.615-21.374 8.615h-90.001V-200q0 12.75-8.628 21.374-8.629 8.625-21.384 8.625-12.756 0-21.371-8.625-8.615-8.624-8.615-21.374v-90.001Z"/></svg>