<svg xmlns="http://www.w3.org/2000/svg" height="24" viewBox="0 -960 960 960" width="24"><path d="m838.844-214.616-54.537-54.537 41.154-403.154h-371.23l-2.461-21.538q-2-15.384 7.946-26.922 9.947-11.539 25.284-11.539h153.846v-130q0-12.75 8.629-21.375 8.628-8.625 21.384-8.625 12.755 0 21.37 8.625 8.616 8.625 8.616 21.375v130h152.538q16.269 0 27.211 11.75t8.942 28.019l-48.692 477.921ZM625-428.229ZM790.231-65.078 51.923-802.77q-8.923-8.923-9.115-21.192-.193-12.269 9.115-21.576 9.307-9.308 21.384-9.308 12.076 0 21.384 9.308L832.999-107.23q8.923 8.922 9.115 20.884.192 11.961-9.115 21.269-9.308 9.307-21.384 9.307-12.077 0-21.384-9.307ZM98.847-206.153q-12.75 0-21.374-8.629-8.625-8.629-8.625-21.384t8.625-21.371q8.625-8.615 21.374-8.615h504.615q12.749 0 21.374 8.629 8.625 8.629 8.625 21.384t-8.625 21.371q-8.625 8.615-21.374 8.615H98.847Zm0 146.153q-12.75 0-21.374-8.63-8.625-8.628-8.625-21.383 0-12.756 8.625-21.371Q86.098-120 98.847-120h504.615q12.749 0 21.374 8.629 8.625 8.628 8.625 21.384 0 12.755-8.625 21.37Q616.211-60 603.462-60H98.847Zm286.232-495.15v59.999q-8.078-.769-16.77-1.269-8.693-.5-17.154-.5-72.078 0-125.732 22.884-53.654 22.885-77.269 61.731h379.77l59.998 59.999H113.617q-17.173 0-28.47-13.346-11.299-13.346-7.299-30.423 10.385-39.461 36.308-69.614 25.923-30.154 62.461-50.576 36.538-20.423 81.346-30.539 44.807-10.115 93.192-10.115 8.461 0 17.154.5 8.692.5 16.77 1.269Zm-33.924 142.845Z"/></svg>