<svg xmlns="http://www.w3.org/2000/svg" height="24" viewBox="0 -960 960 960" width="24"><path d="m771.078-104.001-186-186H482.693q-29.154 0-49.962-20.807-20.807-20.808-20.807-49.961v-102.386L104.001-771.078q-8.307-8.307-8.5-20.576-.192-12.269 8.5-21.576 9.308-9.308 21.385-9.308 12.076 0 21.384 9.308l667.076 667.076q8.923 8.923 8.807 20.884-.115 11.961-9.423 21.269-9.307 8.692-21.076 9-11.769.307-21.076-9Zm-369.155 14.77q-78.769 0-134.769-56-55.999-56-55.999-134.769 0-71.461 45.307-123.846 45.308-52.384 115.462-64.076v61.844q-45.385 11.077-73.078 46-27.693 34.924-27.693 80.078 0 54.616 38.077 92.693t92.693 38.077q44.77 0 80.193-27.308 35.424-27.308 45.885-73.463h61.845q-10.923 69.385-63.692 115.077-52.769 45.693-124.231 45.693Zm80-625.384q-30.692 0-52.269-21.577-21.576-21.577-21.576-52.269 0-30.692 21.576-52.269 21.577-21.576 52.269-21.576 30.692 0 52.269 21.576 21.577 21.577 21.577 52.269 0 30.692-21.577 52.269-21.577 21.577-52.269 21.577Zm266.922 233.846q0 12.769-9.615 20.884t-21.769 5.5q-46.692-8.77-87.038-29.924t-73.5-51.385l-8.078-8.462v16.54L429.924-646.538q8.461-10.231 20.692-16.538 12.23-6.308 31.307-6.308 14.616 0 30.692 7.962 16.077 7.961 31.462 23.731l43.307 48.153q25.692 28.308 59.423 48.231 33.731 19.923 71.424 27.308 12.769 2.615 21.691 11.538 8.923 8.923 8.923 21.692Z"/></svg>