<svg xmlns="http://www.w3.org/2000/svg" height="24" viewBox="0 -960 960 960" width="24"><path d="M210.001-204.616q-12.75 0-21.375-8.628-8.625-8.629-8.625-21.384 0-12.756 8.625-21.371 8.625-8.615 21.375-8.615h42.308v-298.463q0-80.692 49.807-142.692 49.808-62 127.885-79.307v-24.923q0-20.833 14.57-35.416 14.57-14.584 35.384-14.584t35.429 14.584q14.615 14.583 14.615 35.416v24.923q78.077 17.307 127.885 79.307 49.807 62 49.807 142.692v298.463h42.308q12.75 0 21.375 8.628 8.625 8.629 8.625 21.384 0 12.756-8.625 21.371-8.625 8.615-21.375 8.615H210.001ZM479.932-92.309q-29.855 0-51.047-21.24-21.192-21.24-21.192-51.067h144.614q0 29.923-21.26 51.115-21.26 21.192-51.115 21.192ZM554-328.462q11.474 0 19.506-8.045t8.032-19.538q0-11.493-8.032-19.493-8.032-8-19.506-8h-94.001L575.461-528.77q3.231-3.846 4.654-8.445t1.423-9.197v-17.629q0-11.497-8.032-19.497t-19.506-8H406q-11.474 0-19.506 8.045t-8.032 19.538q0 11.493 8.032 19.493 8.032 8 19.506 8h94.001L384.539-391.23q-3.231 3.846-4.654 8.445t-1.423 9.197v17.629q0 11.497 8.032 19.497t19.506 8h148Z"/></svg>