<svg xmlns="http://www.w3.org/2000/svg" height="24" viewBox="0 -960 960 960" width="24"><path d="M446.154-289.231v-35.385h67.692v35.385h-67.692Zm0-55.385v-29.846q-18.23-10.615-29.115-27.769-10.885-17.154-10.885-37.769 0-30.461 21.692-52.154 21.693-21.692 52.154-21.692 30.461 0 52.154 21.692 21.692 21.693 21.692 52.154 0 20.615-10.885 37.769t-29.115 27.751v29.864h-67.692Zm193.077 13-33.923-34.153q10.231-17 15.539-35.719 5.307-18.719 5.307-38.423t-5.307-38.512q-5.308-18.808-15.539-35.808l33.923-34.153q17.307 23.907 25.961 51.492 8.654 27.585 8.654 56.904 0 29.32-8.654 56.808-8.654 27.487-25.961 51.564Zm-318.462 0q-17.307-23.907-25.961-51.492-8.654-27.585-8.654-56.892 0-80.692 56.577-137.269Q399.308-633.846 480-633.846v-42.307L554.614-610 480-543.847v-42.307q-60.693 0-103.423 42.802Q333.846-500.55 333.846-440q0 19.735 5.307 38.483 5.308 18.748 15.539 35.748l-33.923 34.153Zm-68.46 271.614q-29.827 0-51.067-21.24-21.241-21.24-21.241-51.067v-695.382q0-29.827 21.241-51.067 21.24-21.241 51.067-21.241h455.382q29.827 0 51.067 21.241 21.241 21.24 21.241 51.067v695.382q0 29.827-21.241 51.067-21.24 21.24-51.067 21.24H252.309ZM240-229.999h480v-500.002H240v500.002Z"/></svg>