<svg xmlns="http://www.w3.org/2000/svg" height="24" viewBox="0 -960 960 960" width="24"><path d="m692.923-225.769-21.616-21.615q-7.076-7.077-16.884-7.077-9.807 0-16.884 7.077t-7.077 16.576q0 9.5 7.077 16.577l36.692 36.692q8.231 8.231 18.885 8.231 10.653 0 18.884-8.231l90.461-88.846q7.077-7.076 7.269-16.692.192-9.615-7.269-17.076-7.077-7.077-17.077-7.077-9.999 0-17.076 7.077l-75.385 74.384ZM285.385-605.385h389.23q12.769 0 21.384-8.615t8.615-21.384q0-12.769-16.115-21.384-16.116-8.616-26.577-8.616H285.385q-12.769 0-21.384 8.616-8.615 8.615-8.615 21.384T264.001-614q8.615 8.615 21.384 8.615ZM720-57.694q-74.922 0-127.461-52.538-52.538-52.538-52.538-127.46 0-74.923 52.538-127.461Q645.078-417.691 720-417.691t127.461 52.538q52.538 52.538 52.538 127.461 0 74.922-52.538 127.46Q794.922-57.694 720-57.694Zm-579.999-50.385v-639.612q0-29.923 21.193-51.115 21.192-21.193 51.115-21.193h535.382q29.923 0 51.115 21.193 21.193 21.192 21.193 51.115v252.383q-14.385-6.307-29.192-10.576-14.807-4.27-30.807-6.5v-235.307q0-4.616-3.846-8.463-3.847-3.846-8.463-3.846H212.309q-4.616 0-8.463 3.846-3.846 3.847-3.846 8.463V-198h248.385q3.846 23.692 11.269 45.537 7.423 21.846 19.807 41.461-3.077.616-6.461-.923-3.385-1.538-5.846-4l-32.385-27.384q-5.23-4.461-11.692-4.461-6.461 0-11.692 4.461l-33.539 28.154q-5.23 4.461-11.692 4.461-6.461 0-11.692-4.461l-33.538-28.154q-5.231-4.461-11.693-4.461-6.461 0-11.692 4.461l-33.538 28.154q-5.231 4.461-11.692 4.461-6.462 0-11.693-4.461l-33.538-28.154q-5.231-4.461-11.692-4.461-6.462 0-11.692 4.461l-31.616 28.154q-1.154.769-12.077 7.076Zm145.384-186.537h165.693q2.615-16 7.269-30.807 4.653-14.808 11.346-29.192H285.385q-12.769 0-21.384 8.615t-8.615 21.384q0 12.769 8.615 21.384 8.615 8.616 21.384 8.616Zm0-155.385h258.232q28.768-26.23 65.229-42.152 36.46-15.923 77.69-17.846H285.385q-12.769 0-21.384 8.615T255.386-480q0 12.769 8.615 21.384t21.384 8.615ZM200-198v-562 562Z"/></svg>