<svg xmlns="http://www.w3.org/2000/svg" height="24" viewBox="0 -960 960 960" width="24"><path d="M480-92.001q-43.307 0-100.499-11.308-57.191-11.307-90.499-25.154-11-4.615-18.077-14.735-7.077-10.12-7.077-22.265v-32.691h-33.846q-15.365 0-25.759-10.394-10.394-10.395-10.394-25.76v-55.204q0-15.642 10.394-25.988t25.759-10.346h33.846v-92.308h-33.846q-15.365 0-25.759-10.394-10.394-10.395-10.394-25.76v-55.204q0-15.642 10.394-25.988t25.759-10.346h33.846v-88.462h-33.846q-15.365 0-25.759-10.394t-10.394-25.759v-55.205q0-15.641 10.394-25.987 10.394-10.346 25.759-10.346h33.846v-51.923q0-17.961 13.961-26.942 13.961-8.98 30.5-2.519 14.847 4.616 62.692 18Q418.847-811.999 480-811.999t108.999-13.576q47.845-13.577 62.692-18.192 16.539-6.462 30.5 2.927 13.961 9.389 13.961 26.534v52.307h33.846q15.365 0 25.759 10.394t10.394 25.759v55.205q0 15.641-10.394 25.987-10.394 10.346-25.759 10.346h-33.846v88.462h33.846q15.365 0 25.759 10.394 10.394 10.395 10.394 25.76v55.204q0 15.642-10.394 25.988t-25.759 10.346h-33.846v92.308h33.846q15.365 0 25.759 10.394 10.394 10.395 10.394 25.76v55.204q0 15.642-10.394 25.988t-25.759 10.346h-33.846v32.691q0 12.145-7.077 22.265-7.077 10.12-18.077 14.735-33.308 13.847-90.499 25.154Q523.307-92.001 480-92.001ZM480-596q38 0 78.769-7 40.769-7 77.385-20V-776q-37.616 11-77.577 17.5-39.962 6.5-78.767 6.5-37.81 0-77.771-6.5-39.962-6.5-78.193-17.5v153.001q36 13 77.077 20t79.077 7Zm0 228q37.385 0 78.154-7.193 40.769-7.192 78-20.807v-164.002q-41.308 11.231-80.039 17.616-38.73 6.384-76.115 6.384-38.615 0-78.269-6.192t-77.885-17.808v164.002q37.231 13.615 78 20.807 40.769 7.193 78.154 7.193ZM480-152q38 0 78.769-7 40.769-7 77.385-20v-153.001q-37.616 11-77.577 17.5-39.962 6.5-78.767 6.5-37.81 0-77.771-6.5-39.962-6.5-78.193-17.5V-179q36 13 77.077 20T480-152Z"/></svg>