<svg xmlns="http://www.w3.org/2000/svg" height="24" viewBox="0 -960 960 960" width="24"><path d="M140.001-490.001v277.692q0 30.308 21 51.308t51.308 21h535.382q30.308 0 51.308-21t21-51.308v-277.692h-160v190H300.001v-190h-160ZM360-360h240v-130.001H360V-360ZM140.001-549.999h679.998v-197.692q0-30.308-21-51.308t-51.308-21H212.309q-30.308 0-51.308 21t-21 51.308v197.692Zm179.23-86.155q-14.692 0-25.038-10.346-10.347-10.346-10.347-25.038t10.347-25.038q10.346-10.346 25.038-10.346t25.038 10.346q10.346 10.346 10.346 25.038T344.269-646.5q-10.346 10.346-25.038 10.346Zm160 0q-14.692 0-25.038-10.346-10.347-10.346-10.347-25.038t10.347-25.038q10.346-10.346 25.038-10.346t25.038 10.346q10.346 10.346 10.346 25.038T504.269-646.5q-10.346 10.346-25.038 10.346Zm160 0q-14.692 0-25.038-10.346-10.347-10.346-10.347-25.038t10.347-25.038q10.346-10.346 25.038-10.346t25.038 10.346q10.346 10.346 10.346 25.038T664.269-646.5q-10.346 10.346-25.038 10.346Z"/></svg>