<svg xmlns="http://www.w3.org/2000/svg" height="24" viewBox="0 -960 960 960" width="24"><path d="M480-254.616q-62.154 0-119.693 21.346-57.539 21.346-106.078 64.809v6.153q1.538 1.154 3.077 1.731 1.539.577 3.462.577h437.695q1.923 0 3.269-.577 1.347-.577 2.885-1.731v-6.153q-47.769-43.463-104.924-64.809Q542.539-254.616 480-254.616Zm-280 54.001q54-53 125.5-83.5t154.5-30.5q83 0 154.5 30.5t125.5 83.5v-507.076q0-4.616-3.846-8.463-3.847-3.846-8.463-3.846H212.309q-4.616 0-8.463 3.846-3.846 3.847-3.846 8.463v507.076Zm280-209.386q-54.154 0-92.076-37.923-37.923-37.922-37.923-92.076 0-54.154 37.923-92.076 37.922-37.923 92.076-37.923 54.154 0 92.076 37.923 37.923 37.922 37.923 92.076 0 54.154-37.923 92.076-37.922 37.923-92.076 37.923Zm0-59.998q28.846 0 49.424-20.577 20.577-20.578 20.577-49.424t-20.577-49.424Q508.846-610.001 480-610.001t-49.424 20.577Q409.999-568.846 409.999-540t20.577 49.424q20.578 20.577 49.424 20.577ZM212.309-100.001q-30.308 0-51.308-21t-21-51.308v-535.382q0-30.308 21-51.308t51.308-21h55.385v-53.847q0-13.153 8.808-21.961 8.807-8.807 21.961-8.807 13.153 0 21.961 8.807 8.807 8.808 8.807 21.961v53.847h303.076v-54.616q0-12.769 8.615-21.384t21.384-8.615q12.769 0 21.384 8.615 8.616 8.615 8.616 21.384v54.616h55.385q30.308 0 51.308 21t21 51.308v535.382q0 30.308-21 51.308t-51.308 21H212.309ZM480-540Zm0 380H704.617 254.229 480Z"/></svg>