<svg xmlns="http://www.w3.org/2000/svg" height="24" viewBox="0 -960 960 960" width="24"><path d="M629.384-326.924q-14 0-24.384-10.384-10.385-10.385-10.385-24.385v-121.23q0-14 10.385-24.384 10.384-10.385 24.384-10.385H635v-40q0-31.462 21.961-53.423 21.961-21.961 53.423-21.961 31.461 0 53.423 21.961 21.961 21.961 21.961 53.423v40h5.616q14 0 24 10.385 10 10.384 10 24.384v121.23q0 14-10.385 24.385-10.385 10.384-24.385 10.384h-161.23Zm41-190.768h80v-40q0-17-11.5-28.5t-28.5-11.5q-17 0-28.5 11.5t-11.5 28.5v40ZM292.309-60.002q-29.827 0-51.067-21.24-21.241-21.24-21.241-51.067v-695.382q0-29.827 21.241-51.067 21.24-21.241 51.067-21.241h375.382q29.827 0 51.067 21.241 21.241 21.24 21.241 51.067v146.152H680v-48.462H280v500.002h400v-48.462h59.999v145.969q0 30.106-21.241 51.298Q697.518-60 667.691-60H292.309Z"/></svg>