<svg xmlns="http://www.w3.org/2000/svg" height="24" viewBox="0 -960 960 960" width="24"><path d="M292.309-60.002q-30.308 0-51.308-21-21-20.999-21-51.307v-695.382q0-30.308 21-51.308t51.308-21h375.382q30.308 0 51.308 21t21 51.308v695.382q0 30.308-21 51.308t-51.308 21H292.309ZM480-149.23q14.692 0 25.038-10.347 10.346-10.346 10.346-25.038t-10.346-25.038Q494.692-220 480-220t-25.038 10.346q-10.346 10.346-10.346 25.038t10.346 25.038q10.346 10.347 25.038 10.347ZM280-309.23h400v-420.771H280v420.771Z"/></svg>