<svg xmlns="http://www.w3.org/2000/svg" height="24" viewBox="0 -960 960 960" width="24"><path d="M192.309-585.847 84.923-479.077q-7.112 6.633-16.594 7.047-9.482.415-16.944-7.047-7.461-7.461-7.461-16.769 0-9.307 7.461-16.769L158.155-620h-82q-10.334 0-17.09-6.751t-6.756-17.077q0-10.325 6.756-17.094 6.756-6.769 17.09-6.769h127.691q15.366 0 25.76 10.394Q240-646.903 240-631.538v127.692q0 10.333-6.751 17.09Q226.498-480 216.172-480q-10.325 0-17.094-6.756-6.769-6.757-6.769-17.09v-82.001Zm181.229-181.844h82.616q10.333 0 17.09 6.751Q480-754.189 480-743.864q0 10.326-6.756 17.095-6.757 6.769-17.09 6.769H328.462q-15.365 0-25.759-10.394t-10.394-25.76v-127.692q0-10.333 6.751-17.089 6.751-6.756 17.076-6.756 10.326 0 17.095 6.756Q340-894.179 340-883.846v82.617l106.77-107.386q7.077-7.076 16.577-7.269 9.499-.192 16.961 7.269 7.461 7.462 7.461 17.077 0 9.615-7.461 17.077l-106.77 106.77ZM577.614-64.617q-22.077 0-41.961-8.23-19.884-8.232-35.731-24.078L322.384-274.694q-9.692-9.692-9.077-23.923.615-14.23 10.692-23.922 12.538-12.154 29.038-16.115 16.5-3.962 32.884.5l88.694 23.231v-329.693q0-12.749 8.629-21.374 8.628-8.625 21.384-8.625 12.755 0 21.37 8.625 8.616 8.625 8.616 21.374v285.385h56.539v-135.385q0-12.75 8.629-21.375t21.384-8.625q12.755 0 21.371 8.625 8.615 8.625 8.615 21.375v135.385h56.924v-95.385q0-12.75 8.629-21.375 8.628-8.625 21.384-8.625 12.755 0 21.37 8.625 8.616 8.625 8.616 21.375v95.385h56.539v-15.385q0-12.75 8.629-21.375t21.384-8.625q12.755 0 21.371 8.625 8.615 8.625 8.615 21.375v160q0 62.153-43.923 106.076-43.923 43.923-106.001 43.923H577.614Z"/></svg>