<svg xmlns="http://www.w3.org/2000/svg" height="24" viewBox="0 -960 960 960" width="24"><path d="m450.001-516.002-76.923 76.923q-8.923 8.923-21.192 8.808-12.269-.116-21.577-9.423-8.692-9.308-8.999-21.077-.308-11.769 8.999-21.076L454.693-606.23q5.615-5.616 11.846-7.923 6.23-2.308 13.461-2.308t13.461 2.308q6.231 2.307 11.846 7.923l124.384 124.383q8.923 8.923 8.807 20.884-.115 11.961-8.807 21.269-9.308 9.307-21.384 9.615-12.077.308-21.385-9l-76.923-76.923v306.001q0 12.769-8.615 21.384-8.615 8.616-21.384 8.616t-21.384-8.616q-8.615-8.615-8.615-21.384v-306.001Zm-270-113.228v-78.461q0-30.308 21-51.308t51.308-21h455.382q30.308 0 51.308 21t21 51.308v78.461q0 12.769-8.616 21.384-8.615 8.615-21.384 8.615t-21.384-8.615Q720-616.461 720-629.23v-78.461q0-4.616-3.846-8.463-3.847-3.846-8.463-3.846H252.309q-4.616 0-8.463 3.846-3.846 3.847-3.846 8.463v78.461q0 12.769-8.615 21.384t-21.384 8.615q-12.769 0-21.384-8.615-8.616-8.615-8.616-21.384Z"/></svg>