<svg xmlns="http://www.w3.org/2000/svg" height="24" viewBox="0 -960 960 960" width="24"><path d="M284.616-275.387q-15.039 0-25.212-10.173t-10.173-25.211v-59.999H744.23l12.693 12.693V-720h59.998q15.039 0 25.212 10.173t10.173 25.211v463.382q0 24.187-22.192 33.593-22.193 9.407-39.269-7.67l-80.076-80.076H284.616ZM249.231-450.77l-80.076 80.076q-17.076 17.077-39.269 7.671-22.192-9.407-22.192-33.594v-427.997q0-15.039 10.173-25.212t25.212-10.173h498.46q15.038 0 25.211 10.173 10.173 10.173 10.173 25.212v338.46q0 15.038-10.173 25.211-10.173 10.173-25.211 10.173H249.231Zm367.693-59.999V-800H167.693v316.926l27.694-27.695h421.537Zm-449.231 0V-800v289.231Z"/></svg>