<svg xmlns="http://www.w3.org/2000/svg" height="24" viewBox="0 -960 960 960" width="24"><path d="M200-800v247.154-1V-160-800v179.999V-800Zm120 389.999h111.924q7.461-17.23 17.384-32.037 9.923-14.808 22.307-27.961H320q-12.75 0-21.374 8.628-8.625 8.629-8.625 21.384 0 12.756 8.625 21.371 8.624 8.615 21.374 8.615Zm0 160h91.231Q407.673-265 406.606-280q-1.067-15 .164-29.999H320q-12.75 0-21.374 8.628-8.625 8.629-8.625 21.384 0 12.756 8.625 21.371 8.624 8.615 21.374 8.615Zm-107.76 150q-30.239 0-51.239-21-21-21-21-51.308v-615.382q0-30.308 21-51.308t51.308-21h287.769q14.632 0 27.893 5.616 13.26 5.615 23.107 15.461l167.844 167.844q9.846 9.847 15.461 23.107 5.616 13.261 5.616 27.893v80.463q-14.385-5.692-29.384-8.654-15-2.961-30.615-4.577v-67.155H535.994q-15.3 0-25.646-10.35-10.347-10.35-10.347-25.65V-800H212.309q-4.616 0-8.463 3.846-3.846 3.847-3.846 8.463v615.382q0 4.616 3.846 8.463 3.847 3.846 8.463 3.846h235.999q11.714 17.751 26.357 32.913 14.642 15.163 31.719 27.086H212.24Zm447.836-93.845q44.617 0 75.347-30.806 30.731-30.807 30.731-75.424 0-44.617-30.806-75.347-30.807-30.731-75.424-30.731-44.617 0-75.347 30.806-30.731 30.807-30.731 75.424 0 44.617 30.806 75.347 30.807 30.731 75.424 30.731ZM885.104-74.924q-8.28 8.308-21.077 8.308-12.796 0-21.103-8.308l-88.463-88.846q-20.23 14.769-44.346 22.346Q686-133.847 660-133.847q-69.23 0-117.692-48.461Q493.847-230.77 493.847-300q0-69.23 48.461-117.692Q590.77-466.153 660-466.153q69.23 0 117.692 48.461Q826.153-369.23 826.153-300q0 26-7.577 50.115-7.577 24.116-22.346 44.346l88.846 88.463q8.308 8.273 8.308 21.059 0 12.786-8.28 21.093Z"/></svg>