<svg xmlns="http://www.w3.org/2000/svg" height="24" viewBox="0 -960 960 960" width="24"><path d="M337.694-163.847q-90.692-33-158.038-99.615-67.346-66.614-76.193-160.383-1.154-14.692 8.423-25.423 9.577-10.731 24.269-10.731h43.846v-292.462q0-13.596 9.039-23.567 9.038-9.971 22.5-11.586l621.997-69.154q11.308-1.615 18.885 5.614 7.577 7.229 7.577 18.473 0 8.836-6.462 15.605-6.461 6.769-15.153 7.769l-419.923 46.692v76.078h417.692q10.333 0 17.089 6.751 6.757 6.751 6.757 17.076 0 10.326-6.757 17.095-6.756 6.769-17.089 6.769H418.461v178.847h405.384q14.548 0 24.389 10.731t8.687 25.423q-8.846 94.153-76.385 160.96-67.538 66.807-158.999 99.038v27.545q0 15.608-10.394 25.954-10.394 10.347-25.759 10.347H373.847q-15.365 0-25.759-10.395-10.394-10.394-10.394-25.759v-27.692Zm-14.617-522.69h47.693v-70.617L323.077-752v65.463Zm-95.384 0h47.693v-60.001l-47.693 4.8v55.201Zm95.384 226.538h47.693v-178.847h-47.693v178.847Zm-95.384 0h47.693v-178.847h-47.693v178.847Z"/></svg>