<svg xmlns="http://www.w3.org/2000/svg" height="24" viewBox="0 -960 960 960" width="24"><path d="m737.845-329.539-45.384-46.615q12.77-32 20.154-68.23Q720-480.615 720-516v-180.538q0-3.846-2.116-6.923-2.115-3.078-5.962-4.616l-227.691-85q-1.923-.769-4.231-.769t-4.231.769l-145.615 54.616-46.615-46.615 171.154-63.538q12.461-4.615 25.307-4.615 12.846 0 25.307 4.615l227.692 85q20.692 8.23 33.846 26.5 13.154 18.269 13.154 40.961V-516q0 46-10.154 92.538t-32 93.923ZM480-104.771q-4 0-23.846-4.384-127.307-45-201.73-159.384Q180.001-382.924 180.001-516v-179.693l-73.692-73.692q-8.307-8.308-8.5-20.884-.192-12.577 8.5-21.269 8.692-8.692 21.077-8.692 12.384 0 21.076 8.692l664.614 664.614q8.308 8.308 8.5 20.885.193 12.576-8.5 21.268-8.692 8.692-21.076 8.692t-21.076-8.692L661.231-214.464q-32.616 36.924-71.923 62.847-39.308 25.923-85.462 42.462-5.615 2-11.615 3.192-6 1.192-12.231 1.192Zm-50.461-341.384Zm81.768-111.152ZM480-164q38.846-12.154 76.039-37.731 37.193-25.578 63.039-54.885L240-635.694V-516q0 121 68 220t172 132Z"/></svg>