<svg xmlns="http://www.w3.org/2000/svg" height="24" viewBox="0 -960 960 960" width="24"><path d="M204.616-140.001q-26.654 0-45.634-18.981-18.981-18.98-18.981-45.634 0-26.653 18.981-45.634 18.98-18.98 45.634-18.98 26.653 0 45.634 18.98 18.98 18.981 18.98 45.634 0 26.654-18.98 45.634-18.981 18.981-45.634 18.981Zm530.836 0q-19.529 0-32.423-14.661-12.895-14.661-15.105-34.723-8.692-99.308-50-186.116T529.463-529.463q-67.154-67.153-153.962-108.461-86.808-41.308-186.116-50-20.062-2.225-34.723-15.202-14.661-12.978-14.661-32.258 0-19.559 13.962-31.971 13.961-12.413 32.807-10.797 119.153 8.692 222.807 57.499 103.653 48.808 182.961 128.115 79.307 79.308 128.115 182.961 48.807 103.654 57.499 222.807 1.616 18.846-10.778 32.807-12.393 13.962-31.922 13.962Zm-230.836 0q-18.846 0-32.038-13.654-13.192-13.654-16.653-32.499-7.462-53.231-30.539-98.385-23.077-45.155-59.385-81.462-36.307-36.308-81.462-59.385-45.154-23.077-98.385-30.539-18.845-3.461-32.499-16.653-13.654-13.192-13.654-31.97 0-19.529 13.962-32.105 13.961-12.577 32.807-9.731 71.076 8.077 132.846 38.461 61.769 30.385 109.845 78.462 48.077 48.076 78.462 109.845 30.384 61.77 38.461 132.846 2.846 18.846-9.795 32.807-12.64 13.962-31.973 13.962Z"/></svg>