<svg xmlns="http://www.w3.org/2000/svg" height="24" viewBox="0 -960 960 960" width="24"><path d="M480-299.617q74.922 0 127.461-52.538 52.538-52.538 52.538-127.46 0-74.923-52.538-127.461Q554.922-659.614 480-659.614t-127.461 52.538q-52.538 52.538-52.538 127.461 0 74.922 52.538 127.46Q405.078-299.617 480-299.617Zm17.692-187.229 60.769 60.769q5.231 5.231 5.423 12.269.193 7.039-5.423 12.654-5.615 5.615-12.461 5.615t-12.461-5.615l-60.385-60.385q-5.615-5.615-8.231-12.153-2.615-6.539-2.615-13.769v-92.154q0-7.231 5.231-12.462 5.23-5.23 12.461-5.23t12.461 5.23q5.231 5.231 5.231 12.462v92.769ZM480-105.155q-6.231 0-12.231-1t-11.615-3q-126.538-45-201.345-159.577Q180.001-383.308 180.001-516v-180.153q0-22.692 13.154-40.961 13.154-18.27 33.846-26.5l227.692-85q12.846-4.615 25.307-4.615 12.461 0 25.307 4.615l227.692 85q20.692 8.23 33.846 26.5 13.154 18.269 13.154 40.961V-516q0 132.692-74.808 247.268-74.807 114.577-201.345 159.577-5.615 2-11.615 3t-12.231 1Z"/></svg>