<svg xmlns="http://www.w3.org/2000/svg" height="24" viewBox="0 -960 960 960" width="24"><path d="M248.155-140.001q-21.846 0-41.527-14.882-19.681-14.881-26.088-36.272-25-86.308-40.423-146.269-15.423-59.962-24.346-103.385-8.923-43.422-12.347-75.768-3.423-32.346-3.423-63.423 0-83.636 58.182-141.817Q216.364-779.999 300-779.999h210.001q27-36 66-58 38.999-22 83.999-22 16.666 0 28.332 11.687 11.667 11.687 11.667 28.382 0 4.007-1.116 7.891-1.115 3.885-2.346 7.731-4.385 11.769-8.461 25.462-4.077 13.692-7.616 34.77l104.078 104.077h39.307q15.365 0 25.759 10.395 10.395 10.394 10.395 25.759v181.921q0 11.939-6.731 21.123-6.731 9.185-18.577 13.415l-83.846 27.616-50.385 168.154q-7.24 23.543-26.247 37.579-19.007 14.036-43.444 14.036h-58.46q-29.827 0-51.067-21.241-21.241-21.24-21.241-51.067v-7.692H379.999v7.692q0 29.827-21.241 51.067-21.24 21.241-51.067 21.241h-59.536ZM640-524.616q14.692 0 25.038-10.346T675.384-560q0-14.692-10.346-25.038T640-595.384q-14.692 0-25.038 10.346T604.616-560q0 14.692 10.346 25.038T640-524.616Zm-149.999-85.385q12.749 0 21.374-8.628Q520-627.258 520-640.013q0-12.756-8.625-21.371-8.625-8.615-21.374-8.615H349.999q-12.749 0-21.374 8.628Q320-652.742 320-639.987q0 12.756 8.625 21.371 8.625 8.615 21.374 8.615h140.002Z"/></svg>