<svg xmlns="http://www.w3.org/2000/svg" height="24" viewBox="0 -960 960 960" width="24"><path d="M711.693-459.999 194.924-646.921q-11.897-4.398-17.102-15.391t-.743-22.762q4.461-11.769 15.615-17.231 11.153-5.461 22.922-1l552.536 201.307q24.616 9.539 38.231 31.077 13.616 21.539 13.616 46.308v172.304q0 30.308-21 51.308t-51.308 21H212.309q-30.308 0-51.308-21t-21-51.308v-135.382q0-30.308 21-51.308t51.308-21h499.384ZM433.076-290.001H680q12.75 0 21.375-8.628 8.624-8.629 8.624-21.384 0-12.756-8.624-21.371-8.625-8.615-21.375-8.615H433.076q-12.749 0-21.374 8.628-8.625 8.629-8.625 21.384 0 12.756 8.625 21.371 8.625 8.615 21.374 8.615Zm-153.049 5.385q15.05 0 25.204-10.18 10.153-10.181 10.153-25.231 0-15.05-10.18-25.204-10.181-10.153-25.231-10.153-15.05 0-25.204 10.18-10.153 10.181-10.153 25.231 0 15.05 10.18 25.204 10.181 10.153 25.231 10.153Z"/></svg>