<svg xmlns="http://www.w3.org/2000/svg" height="24" viewBox="0 -960 960 960" width="24"><path d="M177.694-118.461v-83.078q0-25.307 17.73-43.037t43.037-17.73h31.54v-115.388h-31.54q-25.307 0-43.037-17.73t-17.73-43.037v-83.078q0-25.307 17.73-43.037t43.037-17.73h31.54v-115.388h-31.54q-25.307 0-43.037-17.73t-17.73-43.037v-83.078q0-25.307 17.73-43.037t43.037-17.73h123.078q25.307 0 43.037 17.73t17.73 43.037v83.078q0 25.307-17.73 43.037t-43.037 17.73h-31.54v115.388h31.54q25.307 0 43.037 17.73t17.73 43.037v11.54h155.388v-11.54q0-25.307 17.73-43.037t43.037-17.73h123.078q25.307 0 43.037 17.73t17.73 43.037v83.078q0 25.307-17.73 43.037t-43.037 17.73H638.461q-25.307 0-43.037-17.73t-17.73-43.037v-11.54H422.306v11.54q0 25.307-17.73 43.037t-43.037 17.73h-31.54v115.388h31.54q25.307 0 43.037 17.73t17.73 43.037v83.078q0 25.307-17.73 43.037t-43.037 17.73H238.461q-25.307 0-43.037-17.73t-17.73-43.037Z"/></svg>