<svg xmlns="http://www.w3.org/2000/svg" height="24" viewBox="0 -960 960 960" width="24"><path d="M212.309-140.001q-30.308 0-51.308-21t-21-51.308v-535.382q0-30.308 21-51.308t51.308-21h535.382q30.308 0 51.308 21t21 51.308v535.382q0 30.308-21 51.308t-51.308 21H212.309ZM520-284.614l240-240v-223.077q0-4.616-3.846-8.463-3.847-3.846-8.463-3.846H212.309q-4.616 0-8.463 3.846-3.846 3.847-3.846 8.463v463.077l134.693-134.693q10.846-10.846 25.307-10.846 14.461 0 25.307 10.846L520-284.614Zm-10-201.54q-10.307 0-17.077-6.769-6.769-6.77-6.769-17.077v-180q0-10.307 6.769-17.077 6.77-6.769 17.077-6.769 10.307 0 17.077 6.769 6.769 6.77 6.769 17.077v180q0 10.307-6.769 17.077-6.77 6.769-17.077 6.769ZM589.537-600l57.924 78.308q7.846 11.307 1.384 23.423-6.461 12.115-20.384 12.115-5.461 0-10.115-2.731t-7.885-7.192L533.846-600l76.615-103.923q3.231-4.461 7.885-7.192t10.115-2.731q13.923 0 20.692 12.308 6.769 12.307-1.692 23.615L589.537-600Zm-255.691 66.154H410q10.307 0 17.077 6.769 6.769 6.77 6.769 17.077 0 10.307-6.769 17.077-6.77 6.769-17.077 6.769H310q-10.307 0-17.077-6.769-6.769-6.77-6.769-17.077v-90q0-10.307 6.769-17.077 6.77-6.769 17.077-6.769h76.154v-42.308H310q-10.307 0-17.077-6.769-6.769-6.77-6.769-17.077 0-10.307 6.769-17.077 6.77-6.769 17.077-6.769h100q10.307 0 17.077 6.769 6.769 6.77 6.769 17.077v90q0 10.307-6.769 17.077-6.77 6.769-17.077 6.769h-76.154v42.308ZM360-367.693l-160 160q.385 1.923 3.654 4.808 3.27 2.885 8.655 2.885h535.382q4.616 0 8.463-3.846 3.846-3.847 3.846-8.463v-235.384L545.307-233Q534.461-222.154 520-222.154q-14.461 0-25.307-10.846L360-367.693ZM200-212.309V-200-760-212.309Z"/></svg>