<svg xmlns="http://www.w3.org/2000/svg" height="24" viewBox="0 -960 960 960" width="24"><path d="M399.385-326.924q-14.385 0-24.577-10.192-10.192-10.192-10.192-24.577v-121.23q0-14.384 10.192-24.577 10.192-10.192 24.577-10.192H405v-40q0-31.462 21.962-53.423 21.961-21.961 53.423-21.961 31.461 0 53.422 21.961 21.962 21.961 21.962 53.423v40h5.615q14 0 24 10.192 10 10.193 10 24.577v121.23q0 14.385-10.192 24.577-10.192 10.192-24.577 10.192h-161.23Zm41-190.768h80v-40q0-17-11.5-28.5t-28.5-11.5q-17 0-28.5 11.5t-11.5 28.5v40ZM132.309-220.001q-30.308 0-51.308-21t-21-51.308v-375.382q0-30.308 21-51.308t51.308-21h695.382q30.308 0 51.308 21t21 51.308v375.382q0 30.308-21 51.308t-51.308 21H132.309ZM170.001-280v-400h-37.692q-4.616 0-8.463 3.846-3.846 3.847-3.846 8.463v375.382q0 4.616 3.846 8.463 3.847 3.846 8.463 3.846h37.692Zm59.998 0h500.002v-400H229.999v400Zm560 0h37.692q4.616 0 8.463-3.846 3.846-3.847 3.846-8.463v-375.382q0-4.616-3.846-8.463-3.847-3.846-8.463-3.846h-37.692v400ZM170.001-680H120h50.001Zm619.998 0H840h-50.001Z"/></svg>