<svg xmlns="http://www.w3.org/2000/svg" height="24" viewBox="0 -960 960 960" width="24"><path d="M252.309-100.001q-29.923 0-51.115-21.193-21.193-21.192-21.193-51.115v-615.382q0-29.923 21.193-51.115 21.192-21.193 51.115-21.193h455.382q29.923 0 51.115 21.193 21.193 21.192 21.193 51.115v615.382q0 29.923-21.193 51.115-21.192 21.193-51.115 21.193H252.309Zm0-59.999h455.382q5.385 0 8.847-3.462 3.462-3.462 3.462-8.847v-615.382q0-5.385-3.462-8.847-3.462-3.462-8.847-3.462H252.309q-5.385 0-8.847 3.462-3.462 3.462-3.462 8.847v615.382q0 5.385 3.462 8.847 3.462 3.462 8.847 3.462ZM620-430.001q20.769 0 35.384-14.615 14.615-14.615 14.615-35.384t-14.615-35.384Q640.769-529.999 620-529.999t-35.384 14.615Q570.001-500.769 570.001-480t14.615 35.384q14.615 14.615 35.384 14.615ZM240-800h-20.001V-160H240V-800Z"/></svg>