<svg xmlns="http://www.w3.org/2000/svg" height="24" viewBox="0 -960 960 960" width="24"><path d="m691.24-699.856-51.009-23.683q-10.462-4.565-10.462-16.436 0-11.871 10.462-16.486l51.009-23.683 23.682-51.009q4.566-10.462 16.437-10.462 11.871 0 16.486 10.462l23.683 51.009 51.009 23.683q10.462 4.565 10.462 16.436 0 11.871-10.462 16.486l-51.009 23.683-23.683 51.009q-4.565 10.462-16.436 10.462-11.871 0-16.487-10.462l-23.682-51.009Zm90.279 309.612-45.75-21.525q-5.615-2.616-5.615-8.218t5.615-8.403l45.859-21.475 21.525-45.75q2.616-5.615 8.218-5.615t8.403 5.615l21.474 45.859 45.751 21.525q5.615 2.616 5.615 8.218t-5.615 8.403l-45.859 21.475-21.525 45.75q-2.616 5.615-8.218 5.615t-8.403-5.615l-21.475-45.859ZM340.616-100.001q-13.441 0-23.297-9.039-9.857-9.038-11.857-22.5l-7.615-56.307q-10.863-4.332-23.278-11.551t-20.877-15.681l-51.923 22.846q-12.846 5.616-25.839 1.567-12.992-4.048-20.161-16.643l-50.153-87.383q-7.23-12.462-4.014-25.641 3.217-13.179 14.245-21.359l45.077-33.077q-1.539-11.846-1.539-25.231 0-13.385 1.539-25.231l-45.077-33.077q-11.028-8.18-14.245-21.359-3.216-13.179 4.014-25.641l50.153-87.383q7.169-12.595 20.161-16.643 12.993-4.049 25.839 1.567l51.923 22.846q8.462-8.462 20.877-15.681 12.415-7.219 23.278-11.551l7.615-56.307q2-13.462 11.857-22.5 9.856-9.039 23.297-9.039h101.536q13.441 0 23.297 9.039 9.857 9.038 11.857 22.5l7.615 56.307q10.863 4.332 23.278 11.551t20.877 15.681l51.923-22.846q12.846-5.616 25.839-1.567 12.992 4.048 20.161 16.643l50.152 87.383q7.231 12.462 4.015 25.641-3.217 13.179-14.245 21.359l-45.077 33.077q1.538 11.846 1.538 25.231 0 13.385-1.538 25.231l45.077 33.077q11.028 8.18 14.245 21.359 3.216 13.179-4.015 25.641l-50.152 87.383q-7.169 12.595-20.161 16.643-12.993 4.049-25.839-1.567l-51.923-22.846q-8.462 8.462-20.877 15.681-12.415 7.219-23.278 11.551l-7.615 56.307q-2 13.462-11.857 22.5-9.856 9.039-23.297 9.039H340.616Zm50.677-190.769q45.475 0 77.398-31.832 31.923-31.833 31.923-77.307 0-45.475-31.832-77.398-31.833-31.923-77.308-31.923-45.474 0-77.397 31.832-31.923 31.833-31.923 77.307 0 45.475 31.832 77.398 31.833 31.923 77.307 31.923ZM361.384-160h60l8-72q29-8 49.5-20.5t40.5-33.5l66 30 28.769-50.769L555.384-350q8.385-23 8.385-50t-8.385-50l58-44-28-50-66 30q-20-21-40.5-33.5t-49.5-20.5l-8-72h-60l-8 72q-29 8-49.5 20.5t-40.5 33.5l-66-30-28 50 58 44q-8.385 23-8.692 50-.308 27 8.692 50l-58.769 43.231L197.384-256l66-30q20 21 40.5 33.5t49.5 20.5l8 72Zm30-240Z"/></svg>