<svg xmlns="http://www.w3.org/2000/svg" height="24" viewBox="0 -960 960 960" width="24"><path d="M675.384-100.001q-76.461 0-130.537-54.077-54.077-54.077-54.077-130.538 0-76.461 54.077-130.537 54.076-54.077 130.537-54.077 76.461 0 130.538 54.077 54.077 54.076 54.077 130.537 0 76.461-54.077 130.538-54.077 54.077-130.538 54.077Zm81.077-105.154q4.615-5 2.307-11.23-2.307-6.231-8.538-7.231-24.077-4.231-44.846-17.769-20.769-13.539-33.615-36-12.846-22.461-14.538-47.154-1.693-24.692 6.923-47.768 2-6.231-2.308-11.347-4.308-5.115-10.539-3.5-61.999 11.231-84.384 70.231-22.384 58.999 18.154 109.768 32.308 40.539 84.884 41.539 52.577 1 86.5-39.539ZM475.922-100.001h-56.69q-13.462 0-23.308-9.039-9.846-9.038-11.846-22.5l-11.615-90.307q-17.616-5.769-33.347-15.077-15.731-9.308-29.808-20.77l-83.538 35.231q-12.846 5.615-25.5 1.307-12.654-4.307-19.885-16.153l-60.152-104.768q-6.847-11.846-4.231-25.307 2.615-13.462 13.461-21.692l72.308-54.693q-1.385-8.923-1.962-17.731-.577-8.807-.577-18.115 0-9.308.577-18.308.577-9.001 1.962-18.308l-72.308-54.693q-10.846-8.23-13.653-21.692-2.808-13.461 4.423-25.307l60.152-103.998q7.231-11.846 19.693-16.154 12.461-4.308 25.307 1.308l83.538 34.846q14.462-11.462 30.001-20.77 15.539-9.308 33.154-15.462l12-90.307q2-13.462 11.846-22.5 9.846-9.039 23.308-9.039h121.152q13.461 0 23.499 9.039 10.039 9.038 12.039 22.5l11.615 90.692q17.231 6.154 32.578 15.269 15.346 9.116 29.423 20.578l85.077-34.846q12.846-5.616 25.307-1.5 12.462 4.115 19.693 15.961l60.152 104.383q7.231 11.846 4.423 25.307-2.807 13.462-13.653 21.692L781.844-534q-25.384-11.154-51.999-17.038-26.615-5.885-54.461-5.885-23.846 0-46.193 5.039-22.346 5.038-44.423 13.115-15.923-27.999-44-44.614-28.076-16.616-60.307-16.616-49.922 0-84.96 35.038-35.038 35.039-35.038 84.961 0 32.23 15.807 59.807 15.808 27.577 43.192 43.884-9.077 24.231-12.539 50.155-3.461 25.923-3.461 51.923 1.769 49.077 20.192 94.192 18.423 45.115 52.268 80.038Z"/></svg>