<svg xmlns="http://www.w3.org/2000/svg" height="24" viewBox="0 -960 960 960" width="24"><path d="M252-108 145.307-214.693Q134.461-225.539 134.461-240q0-14.461 10.846-25.307L252-372q12-12 28-12t28 12.192Q320-360 319.564-343.5 319.128-327 308-315l-35 35h487q17.019 0 28.51 11.487 11.49 11.486 11.49 28.5Q800-223 788.51-211.5 777.019-200 760-200H273l35 35q11 12 11.5 28.5T308-108q-11.86 12-27.93 12T252-108Zm-37.77-332q-22.692 0-38.461-15.769Q160-471.538 160-494.23v-371.54q0-22.692 15.769-38.461Q191.538-920 214.23-920h531.54q22.692 0 38.461 15.769Q800-888.462 800-865.77v371.54q0 22.692-15.769 38.461Q768.462-440 745.77-440H214.23ZM240-720h200v-120H249.231q-3.846 0-6.538 2.693-2.693 2.692-2.693 6.538V-720Zm280 0h200v-110.769q0-3.846-2.693-6.538-2.692-2.693-6.538-2.693H520v120Zm-80 200v-120H240v110.769q0 3.846 2.693 6.538 2.692 2.693 6.538 2.693H440Zm80 0h190.769q3.846 0 6.538-2.693 2.693-2.692 2.693-6.538V-640H520v120Z"/></svg>