<svg xmlns="http://www.w3.org/2000/svg" height="24" viewBox="0 -960 960 960" width="24"><path d="M117.693-256.154q-9.923-9.923-9.923-22.307 0-12.385 9.923-22.308l212.615-212.615q20.692-20.692 51.231-20.692 30.538 0 51.23 20.692l99.538 99.538q3.847 3.847 9.232 3.654 5.385-.192 8.846-4.423l252.154-287.077q8.307-9.923 20.999-9.923 12.692 0 22 8.923 8.307 8.308 8.807 19.769.5 11.461-7.807 20.769L592.923-372.847q-20.692 23.692-51.615 25-30.923 1.308-53.615-21.384l-97.308-97.308q-3.461-3.462-8.846-3.462t-8.847 3.462L162.307-256.154q-9.538 9.538-22.115 9.73-12.576.193-22.499-9.73Z"/></svg>