<svg xmlns="http://www.w3.org/2000/svg" height="24" viewBox="0 -960 960 960" width="24"><path d="M187.385-100.001q-16.461 0-26.307-11.039-9.846-11.038-9.846-25.115 0-6.846 2.307-13.269 2.308-6.423 7.924-12.039l637.074-636.459q5.616-5.615 12.039-8.231 6.423-2.615 13.269-2.615 14.077 0 25.115 9.846 11.039 9.846 11.039 26.307v316.384q-13.769-7.538-28.577-12.115-14.807-4.577-31.422-7.808v-238.31L244.921-160h289.31q5.692 17.23 14.23 32.038 8.539 14.807 19.308 27.961H187.385ZM760-197.232l-63.308 62.308q-8.308 8.308-20.384 8.423-12.077.116-21-8.807-8.307-8.308-8.307-20.884 0-12.577 8.307-20.884L718.232-240l-63.308-63.308q-8.308-8.308-8.116-20.884.193-12.577 8.5-20.884 8.308-8.308 20.884-8.308 12.577 0 20.884 8.308L760-281.768l63.308-63.308q8.308-8.308 20.577-8.423 12.269-.116 21.191 8.807 8.308 8.308 8.308 20.692t-8.308 20.692L802.768-240l62.308 63.308q8.308 8.308 8.423 20.577.116 12.269-8.807 21.191-8.308 8.308-20.692 8.308t-20.692-8.308L760-197.232ZM244.921-160 800-714.464q-88.309 88.309-156.271 155.963-67.962 67.655-129.962 129.655L388.152-303.231 244.921-160Z"/></svg>