<svg xmlns="http://www.w3.org/2000/svg" height="24" viewBox="0 -960 960 960" width="24"><path d="M702.768-371.232 314.155-758.845q41.154-10.461 82.307-15.807 41.154-5.347 83.538-5.347 116.538 0 224.114 39.269 107.577 39.269 196.961 115.423 12.231 9.846 13.115 25.807.885 15.961-10.346 27.192L702.768-371.232Zm91.309 289.615L603.615-272.08l-98.308 98.308Q494.461-162.925 480-162.925q-14.461 0-25.307-10.846L56.54-571.923q-11.23-11.231-10.846-27.692.385-16.462 12.616-26.308 29.462-24.154 57.423-43.192 27.962-19.039 56.346-33.885l-92.077-92.077q-8.923-8.923-8.808-20.884.116-11.961 9.423-21.269 9.308-9.307 21.384-9.307 12.077 0 21.384 9.307l713.46 713.46q8.923 8.923 9.116 20.884.192 11.961-9.116 21.269-9.307 9.307-21.384 9.307-12.076 0-21.384-9.307Z"/></svg>