<svg xmlns="http://www.w3.org/2000/svg" height="24" viewBox="0 -960 960 960" width="24"><path d="m161.463-161.463 637.074-637.074q17.077-17.077 39.269-7.671 22.193 9.406 22.193 33.593v317.232q0 12.75-8.629 21.375-8.629 8.624-21.384 8.624-12.756 0-21.371-8.624Q800-442.633 800-455.383v-259.696L244.921-160H512.31q12.75 0 21.375 8.629 8.624 8.628 8.624 21.384 0 12.755-8.624 21.37-8.625 8.616-21.375 8.616H187.385q-24.187 0-33.593-22.193-9.406-22.192 7.671-39.269Zm498.525 61.462q-12.755 0-21.371-8.625-8.615-8.625-8.615-21.375v-177.69q0-12.75 8.629-21.375t21.384-8.625q12.755 0 21.371 8.625 8.615 8.625 8.615 21.375v177.69q0 12.75-8.629 21.375t-21.384 8.625Zm139.999 0q-12.756 0-21.371-8.625-8.615-8.625-8.615-21.375v-177.69q0-12.75 8.628-21.375 8.629-8.625 21.384-8.625 12.756 0 21.371 8.625 8.615 8.625 8.615 21.375v177.69q0 12.75-8.628 21.375-8.629 8.625-21.384 8.625ZM522.768-437.847Z"/></svg>