<svg xmlns="http://www.w3.org/2000/svg" height="24" viewBox="0 -960 960 960" width="24"><path d="M180.001-380.001q-41.922 0-70.96-29.038Q80.003-438.078 80.003-480t29.038-70.961q29.038-29.038 70.96-29.038V-680q0-24.442 17.779-42.22 17.778-17.779 42.22-17.779h140.001q0-41.922 29.038-70.96 29.039-29.038 70.961-29.038t70.961 29.038q29.038 29.038 29.038 70.96H720q24.442 0 42.22 17.779 17.779 17.778 17.779 42.22v100.001q41.922 0 70.96 29.038 29.038 29.039 29.038 70.961t-29.038 70.961q-29.038 29.038-70.96 29.038V-200q0 24.442-17.779 42.22-17.778 17.779-42.22 17.779H240q-24.442 0-42.22-17.779-17.779-17.778-17.779-42.22v-180.001Zm179.954-70q20.814 0 35.429-14.57 14.615-14.57 14.615-35.384t-14.57-35.429q-14.57-14.615-35.384-14.615t-35.429 14.57q-14.615 14.57-14.615 35.384t14.57 35.429q14.57 14.615 35.384 14.615Zm240 0q20.814 0 35.429-14.57 14.615-14.57 14.615-35.384t-14.57-35.429q-14.57-14.615-35.384-14.615t-35.429 14.57q-14.615 14.57-14.615 35.384t14.57 35.429q14.57 14.615 35.384 14.615ZM360-290.001h240q12.75 0 21.375-8.628 8.624-8.629 8.624-21.384 0-12.756-8.624-21.371-8.625-8.615-21.375-8.615H360q-12.75 0-21.374 8.628-8.625 8.629-8.625 21.384 0 12.756 8.625 21.371 8.624 8.615 21.374 8.615Z"/></svg>