<svg xmlns="http://www.w3.org/2000/svg" height="24" viewBox="0 -960 960 960" width="24"><path d="M480-160q75 0 127.5-52.5T660-340q0-75-52.5-127.5T480-520q-75 0-127.5 52.5T300-340q0 75 52.5 127.5T480-160ZM363.769-549.306q19.616-11.769 41.731-18.846 22.115-7.077 45.115-9.847l-95.999-191.23h-100l109.153 219.923ZM272.54-205.307q-8.154-17.846-11.692-38.653-3.538-20.806-1.23-43.344-9.231-32.923-8.578-67 .653-34.077 11.114-66.923 0-15.001 5.193-28.464 5.193-13.462 14.424-24.232-28.153 8.23-47.075 29.883-18.923 21.653-21.231 50.575-22.309 28.921-21.272 66.345 1.036 37.423 26.881 68.347 0 22.309 15.578 37.887 15.578 15.579 37.888 15.579Zm414.92 0q48.155-8.615 80.347-46.039Q800-288.769 800-340q0-51.231-32.193-88.654-32.192-37.424-80.347-46.039-2.308 0-4.615.193-2.308.192-4.616.577 19.692 28.615 30.731 62.692 11.039 34.077 11.039 71.231 0 37.154-11.039 71.231-11.039 34.077-30.731 62.692 2.308.385 4.616.577 2.307.193 4.615.193ZM480-100.001q-39.231 0-74.577-11.693-35.346-11.692-64.807-32.846-9.77 2.769-20.116 3.654-10.346.885-21.5.885-82.538 0-140.768-58.231-58.231-58.23-58.231-140.768 0-80.076 54.539-137.076 54.538-57 133.384-61.307 4.231 0 8.077.577 3.847.577 7.693 1.346L183.233-776.997q-9.23-18.076 1.308-35.153 10.538-17.077 31.23-17.077h132.152q20.692 0 37.461 10.846t26.615 28.923L480-653.841l68.001-135.617q9.846-18.077 26.615-28.923 16.769-10.846 37.461-10.846h132.152q20.692 0 31.23 17.077t1.308 35.153L657.691-537.845q3.461-.769 7.116-1.154 3.654-.384 7.5-.384 79.23 4.923 133.461 61.922 54.231 57 54.231 137.461 0 83.538-58.231 141.768-58.23 58.231-141.768 58.231-10.539 0-21-.885-10.462-.885-20.231-3.654-29.462 20.769-64.5 32.654-35.038 11.885-74.269 11.885ZM480-340ZM363.769-549.306 254.616-769.229l109.153 219.923ZM480-291l-45.923 34.692q-5.615 4.23-10.846.307Q418-259.924 420-266.154l17.462-57.154L391.924-356q-5.616-4.231-3.616-10.154 2-5.923 8.846-5.923h56.154l17.846-60.384q2-6.231 8.846-6.231t8.846 6.231l17.846 60.384h56.154q6.846 0 8.846 5.923T568.076-356l-45.538 32.692L540-266.154q2 6.23-3.231 10.153t-10.846-.307L480-291Zm116.231-258.306 110.153-219.923h-101L519.23-597.69l11.692 23.384q17.462 4 33.731 9.846 16.27 5.846 31.578 15.154Z"/></svg>