<svg xmlns="http://www.w3.org/2000/svg" height="24" viewBox="0 -960 960 960" width="24"><path d="M212.309-140.001q-29.827 0-51.067-21.241-21.241-21.24-21.241-51.067v-535.382q0-29.827 21.241-51.067 21.24-21.241 51.067-21.241h165.385q29.826 0 51.066 21.241 21.241 21.24 21.241 51.067v535.382q0 29.827-21.241 51.067-21.24 21.241-51.066 21.241H212.309Zm369.997 0q-29.826 0-51.066-21.241-21.241-21.24-21.241-51.067v-195.384q0-29.827 21.241-51.067Q552.48-480 582.306-480h165.385q29.827 0 51.067 21.24 21.241 21.24 21.241 51.067v195.384q0 29.827-21.241 51.067-21.24 21.241-51.067 21.241H582.306Zm0-399.998q-29.826 0-51.066-21.24-21.241-21.24-21.241-51.067v-135.385q0-29.827 21.241-51.067 21.24-21.241 51.066-21.241h165.385q29.827 0 51.067 21.241 21.241 21.24 21.241 51.067v135.385q0 29.827-21.241 51.067-21.24 21.24-51.067 21.24H582.306Z"/></svg>