<svg xmlns="http://www.w3.org/2000/svg" height="24" viewBox="0 -960 960 960" width="24"><path d="M480.045-90q-45.814 0-77.929-32.071-32.115-32.07-32.115-77.884t32.07-77.929q32.07-32.115 77.884-32.115t77.929 32.07q32.115 32.07 32.115 77.884t-32.07 77.929q-32.07 32.115-77.884 32.115Zm-30.044-650.847-93.309 91.924q-8.308 8.308-20.384 8.423-12.077.115-21.067-8.807-8.24-8.18-8.24-20.82 0-12.641 8.307-20.949L454.693-830.46q10.846-10.846 25.307-10.846 14.461 0 25.307 10.846l139.385 139.384q8.923 8.923 8.807 21.077-.115 12.153-9.423 21.076-8.922 8.308-21.076 8.423-12.154.115-21.076-8.807l-91.925-91.925v311.233q0 12.749-8.628 21.374Q492.742-400 479.987-400q-12.756 0-21.371-8.625-8.615-8.625-8.615-21.374v-310.848Z"/></svg>