<svg xmlns="http://www.w3.org/2000/svg" height="24" viewBox="0 -960 960 960" width="24"><path d="M477-100.001q-78.769 0-148.115-29.962-69.346-29.961-120.653-81.269-51.308-51.307-81.269-120.653Q97.001-401.231 97.001-480t29.962-148.115q29.961-69.346 81.269-120.653 51.307-51.308 120.653-81.269Q398.231-859.999 477-859.999t148.115 29.962q69.346 29.961 120.653 81.269 51.308 51.307 81.269 120.653Q856.999-558.769 856.999-480t-29.962 148.115q-29.961 69.346-81.269 120.653-51.307 51.308-120.653 81.269Q555.769-100.001 477-100.001Zm283-230H367.769l-60.002 60.002h411.002q12.615-13.847 22.769-28.539 10.155-14.693 18.462-31.463Zm35.769-120h-307l-60.002 60.002h355.156q4.308-14.616 7.269-29.309 2.962-14.692 4.577-30.693Zm-11.846-120H609.154l-60.387 60.002h247.002q-1.615-16.001-4.577-30.693-2.961-14.693-7.269-29.309Zm-60.462-113.692-53.694 53.694H760q-7.307-15.001-16.5-28.116-9.193-13.116-20.039-25.578ZM230.539-276.307l451.769-449.769q-41.769-35.078-93.885-54.501Q536.308-800 477-800q-134 0-227 93t-93 227q0 58.693 19.423 110.308 19.423 51.616 54.116 93.385ZM477-160q47.616 0 90.654-12.885 43.039-12.885 80.347-37.116H305.999q37.308 24.231 80.347 37.116Q429.384-160 477-160Z"/></svg>