<svg xmlns="http://www.w3.org/2000/svg" height="24" viewBox="0 -960 960 960" width="24"><path d="m165.924-157.999-20.923-8.615q-31.384-13.385-42.077-45.385-10.692-32 3.308-62.615l59.692-129.075v245.69Zm175.385 75.691q-33 0-56.5-23.5t-23.5-56.5v-199.228l91.384 253.228q3 7.385 6 13.693 3 6.307 8 12.307h-25.384Zm180.614-20.155q-23.923 9.308-46.614-2.423-22.692-11.73-32-36.038l-178-488q-9.307-23.922 1.616-46.922 10.923-22.999 34.845-31.691l302-110q23.923-9.308 46.23 2.423 22.307 11.73 31.614 36.038l178 487.23q9.308 24.307-1.038 47.499-10.346 23.192-34.653 31.884l-302 110ZM442.846-560q17 0 28.5-11.5t11.5-28.5q0-17-11.5-28.5t-28.5-11.5q-17 0-28.5 11.5t-11.5 28.5q0 17 11.5 28.5t28.5 11.5Zm58 400 302-110-178-490-302 110 178 490Zm-178-490 302-110-302 110Z"/></svg>