<svg xmlns="http://www.w3.org/2000/svg" height="24" viewBox="0 -960 960 960" width="24"><path d="M64.617-420.001v-59.998h139.999v59.998H64.617Zm199.384-203.845-99.768-99.153 42.768-42.153 98.768 99.153-41.768 42.153Zm-24.066 407.691q-17.473 0-29.473-12.065t-12-29.538q0-17.473 12.065-29.473t29.538-12q17.473 0 29.473 12.065t12 29.538q0 17.473-12.065 29.473t-29.538 12Zm60.066-203.846V-450q0-74.922 52.538-127.461Q405.078-629.999 480-629.999t127.461 52.538Q659.999-524.922 659.999-450v29.999H600V-450q0-50-35-85t-85-35q-50 0-85 35t-35 85v29.999h-59.999Zm59.934 363.846q-17.473 0-29.473-12.065t-12-29.538q0-17.473 12.065-29.473t29.538-12q17.473 0 29.473 12.065t12 29.538q0 17.473-12.065 29.473t-29.538 12Zm120-160q-17.473 0-29.473-12.065t-12-29.538q0-17.473 12.065-29.473t29.538-12q17.473 0 29.473 12.065t12 29.538q0 17.473-12.065 29.473t-29.538 12Zm-29.934-509.229v-139.999h59.998v139.999h-59.998ZM599.935-56.155q-17.473 0-29.473-12.065t-12-29.538q0-17.473 12.065-29.473t29.538-12q17.473 0 29.473 12.065t12 29.538q0 17.473-12.065 29.473t-29.538 12Zm96.064-567.691-42.768-42.153 99.768-99.153 41.768 42.153-98.768 99.153Zm23.936 407.691q-17.473 0-29.473-12.065t-12-29.538q0-17.473 12.065-29.473t29.538-12q17.473 0 29.473 12.065t12 29.538q0 17.473-12.065 29.473t-29.538 12Zm35.449-203.846v-59.998h139.999v59.998H755.384Zm-275.384 0Z"/></svg>