<svg xmlns="http://www.w3.org/2000/svg" height="24" viewBox="0 -960 960 960" width="24"><path d="M216.155-335.537v-297.155q0-60.999 42.961-103.961 42.962-42.961 103.961-42.961 61 0 103.961 42.961 42.961 42.962 42.961 103.961v265.768q0 36.078 25.423 61.501Q560.846-280 596.923-280t61.5-25.423q25.423-25.423 25.423-61.501v-297.154l-52.309 52.309q-8.922 8.923-21.191 8.807-12.269-.115-21.577-9.423-8.692-9.307-9-21.076-.307-11.769 9-21.076l99.769-99.769q5.616-5.616 11.846-7.923 6.231-2.308 13.462-2.308 7.23 0 13.461 2.308 6.231 2.307 11.846 7.923l99.769 99.769q8.923 8.922 8.808 20.884-.116 11.961-8.808 21.268-9.307 9.308-21.384 9.616-12.077.307-21.384-9l-52.309-52.309v297.154q0 61-42.961 103.961-42.962 42.962-103.961 42.962-61 0-103.961-42.962-42.961-42.961-42.961-103.961v-265.768q0-36.077-25.423-61.5-25.424-25.423-61.501-25.423t-61.5 25.423q-25.423 25.423-25.423 61.5v297.155l52.309-52.309q8.922-8.923 21.191-8.808 12.269.116 21.577 9.423 8.692 9.308 9 21.077.307 11.769-9 21.076l-99.769 99.769q-5.616 5.615-11.846 7.923-6.231 2.308-13.462 2.308-7.23 0-13.461-2.308t-11.846-7.923l-99.769-99.769q-8.923-8.923-8.808-20.884.116-11.961 8.808-21.269 9.307-9.307 21.384-9.615 12.077-.308 21.384 9l52.309 52.309Z"/></svg>