<svg xmlns="http://www.w3.org/2000/svg" height="24" viewBox="0 -960 960 960" width="24"><path d="M589.999-290.001q-71.461 0-123.846-45.5-52.384-45.5-63.692-114.5H214.922l52.924 52.925q8.308 8.307 8.5 20.576.192 12.269-9.115 21.576-8.692 8.693-21.077 8.693-12.384 0-21.076-8.693l-99.769-99.769q-5.615-5.615-7.923-11.846-2.308-6.23-2.308-13.461t2.308-13.461q2.308-6.231 7.923-11.846l99.769-99.769q8.307-8.308 20.576-8.5 12.269-.193 21.577 8.5 9.307 9.307 9.307 21.384 0 12.076-9.307 21.384l-52.309 52.309h187.539q11.308-69 63.692-114.5 52.385-45.5 123.846-45.5 78.769 0 134.384 55.615Q779.999-558.769 779.999-480q0 78.769-55.616 134.384-55.615 55.615-134.384 55.615Z"/></svg>