<svg xmlns="http://www.w3.org/2000/svg" height="24" viewBox="0 -960 960 960" width="24"><path d="M524.228-278.461v-59.999h113.079q5.386 0 8.847-3.462 3.462-3.462 3.462-8.847v-455.382q0-5.385-3.462-8.847-3.461-3.462-8.847-3.462H181.925q-5.385 0-8.847 3.462-3.462 3.462-3.462 8.847v131.539h-59.998v-131.539q0-30.308 20.999-51.308 21-20.999 51.308-20.999h455.382q30.308 0 51.308 20.999 21 21 21 51.308v183.077l109.963-110.32q8.728-8.756 19.766-4.237 11.038 4.519 11.038 17.173v283.996q0 12.429-11.038 16.868-11.038 4.439-19.766-4.288L709.615-533.846v183.077q0 30.308-21 51.308t-51.308 21H524.228Zm-330.073 98.46q-15.077 0-28.182-5.875-13.106-5.875-23.048-15.818L40.003-304l9.769-10.154q6.307-7.076 14.615-10.615 8.307-3.538 17-3.538 10.076 0 18.576 3.346t14.961 10.807l24.693 24.693V-541.15q0-10.333 7.269-17.09 7.269-6.756 16.741-6.756 10.262 0 16.972 6.756 6.709 6.757 6.709 17.09v127.306h35.385v-181.537q0-10.333 7.269-17.089 7.269-6.756 16.741-6.756 10.262 0 16.971 6.756 6.71 6.756 6.71 17.089v181.537h35.384v-149.229q0-10.334 7.269-17.09t16.742-6.756q10.261 0 16.971 6.756 6.71 6.756 6.71 17.09v149.229h35.384V-526.92q0-10.333 7.269-17.089 7.269-6.757 16.741-6.757 10.262 0 16.972 6.757 6.709 6.756 6.709 17.089v274.611q0 29.827-20.788 51.067-20.788 21.241-51.519 21.241H194.155ZM649.616-818.46v12.309-12.309 480-480Z"/></svg>