<svg xmlns="http://www.w3.org/2000/svg" height="24" viewBox="0 -960 960 960" width="24"><path d="M287.679-47.693q-12.755 0-21.37-8.625-8.615-8.624-8.615-21.374v-340.002h-82.308q-37.8 0-63.9-26.093-26.1-26.094-26.1-63.884 0-37.791 26.1-63.906 26.1-26.115 63.9-26.115h82.308v-44.616h-82.308q-37.8 0-63.9-26.093-26.1-26.094-26.1-63.884 0-37.791 26.1-63.906 26.1-26.115 63.9-26.115h82.308v-60.002q0-12.75 8.628-21.374 8.629-8.625 21.384-8.625 12.756 0 21.371 8.625 8.615 8.624 8.615 21.374v60.002H400q37.8 0 63.899 26.093 26.1 26.094 26.1 63.884 0 37.791-26.1 63.906Q437.8-642.308 400-642.308h-82.308v44.616H400q37.8 0 63.899 26.093 26.1 26.094 26.1 63.884 0 37.791-26.1 63.906Q437.8-417.694 400-417.694h-82.308v340.002q0 12.75-8.629 21.374-8.628 8.625-21.384 8.625Zm394.629-59.998v-306.002q-51.846-13.615-85.923-53.423-34.077-39.807-34.077-92.884v-316.154q0-15.365 10.394-25.759t25.759-10.394h227.692q15.365 0 25.759 10.394t10.394 25.759V-560q0 53.077-34.077 92.884-34.077 39.808-85.923 53.423v306.002h50.001q12.75 0 21.375 8.628 8.624 8.629 8.624 21.384 0 12.756-8.624 21.371-8.625 8.615-21.375 8.615h-160q-12.75 0-21.374-8.629-8.625-8.628-8.625-21.384 0-12.755 8.625-21.37 8.624-8.615 21.374-8.615h50.001Zm-60.002-602.308h180.002v-142.31H622.306v142.31Z"/></svg>