<svg xmlns="http://www.w3.org/2000/svg" height="24" viewBox="0 -960 960 960" width="24"><path d="M90-149.999V-480q0-12.75 8.63-21.374 8.628-8.625 21.383-8.625 12.756 0 21.371 8.625 8.615 8.624 8.615 21.374v50.001h97.309l121.693-403.462V-880q0-12.75 8.628-21.375 8.629-8.624 21.384-8.624 12.756 0 21.371 8.624 8.615 8.625 8.615 21.375v50.001h101.002V-880q0-12.75 8.628-21.375 8.629-8.624 21.384-8.624 12.756 0 21.371 8.624 8.615 8.625 8.615 21.375v41.539l122.693 408.462h97.309V-480q0-12.75 8.628-21.374 8.629-8.625 21.384-8.625 12.756 0 21.371 8.625 8.615 8.624 8.615 21.374v330.001q0 24.538-17.73 42.268t-42.268 17.73H566.154q-15.365 0-25.759-10.394t-10.394-25.759v-163.847H429.999v163.847q0 15.365-10.394 25.759t-25.759 10.394H149.999q-24.538 0-42.268-17.73t-17.73-42.268Zm244.537-360h290.926l-30.155-100.002H364.692l-30.155 100.002Zm48-160h194.926l-30.155-100.002H412.692l-30.155 100.002Zm-232.538 520h220.002v-140.002q0-24.538 17.73-42.268t42.268-17.73h100.002q24.538 0 42.268 17.73t17.73 42.268v140.002h220.002v-220.002h-97.694q-19.506 0-35.636-11.63-16.13-11.63-22.132-31.138l-11.231-34.924-326.616-2.308-11.231 37.232q-6.002 19.508-22.132 31.138-16.13 11.63-35.636 11.63h-97.694v220.002ZM480-447.693Z"/></svg>