<svg xmlns="http://www.w3.org/2000/svg" height="24" viewBox="0 -960 960 960" width="24"><path d="M140.001-212.309v-535.382q0-29.827 21.241-51.067 21.24-21.241 51.067-21.241h73.845q29.827 0 51.067 21.241 21.24 21.24 21.24 51.067v535.382q0 29.827-21.24 51.067-21.24 21.241-51.067 21.241h-73.845q-29.827 0-51.067-21.241-21.241-21.24-21.241-51.067Zm565.077-237.692H469.999q-12.749 0-21.374-8.628Q440-467.258 440-480.013q0-12.756 8.625-21.371 8.625-8.615 21.374-8.615h235.079l-52.539-52.925q-8.308-8.307-8.5-20.768-.193-12.462 8.998-21.451 8.424-8.241 21.193-8.049 12.769.193 21.077 8.5l99.384 99.385q10.846 10.846 10.846 25.307 0 14.461-10.846 25.307l-99.769 99.769q-8.307 8.308-20.384 8.616-12.077.307-21.468-8.682-8.608-8.241-8.416-21.01.192-12.769 8.5-21.076l51.924-52.925ZM480-755.384q-13.731 0-23.019-9.289-9.288-9.288-9.288-23.018 0-13.731 9.288-23.019 9.288-9.289 23.019-9.289 13.731 0 23.019 9.289 9.288 9.288 9.288 23.019 0 13.73-9.288 23.018-9.288 9.289-23.019 9.289Zm153.846 0q-13.731 0-23.019-9.289-9.288-9.288-9.288-23.018 0-13.731 9.288-23.019 9.288-9.289 23.019-9.289 13.73 0 23.019 9.289 9.288 9.288 9.288 23.019 0 13.73-9.288 23.018-9.289 9.289-23.019 9.289Zm153.845 0q-13.73 0-23.018-9.289-9.289-9.288-9.289-23.018 0-13.731 9.289-23.019 9.288-9.289 23.018-9.289 13.731 0 23.019 9.289 9.289 9.288 9.289 23.019 0 13.73-9.289 23.018-9.288 9.289-23.019 9.289ZM480-140.001q-13.731 0-23.019-9.289-9.288-9.288-9.288-23.019 0-13.73 9.288-23.018 9.288-9.289 23.019-9.289 13.731 0 23.019 9.289 9.288 9.288 9.288 23.018 0 13.731-9.288 23.019-9.288 9.289-23.019 9.289Zm153.846 0q-13.731 0-23.019-9.289-9.288-9.288-9.288-23.019 0-13.73 9.288-23.018 9.288-9.289 23.019-9.289 13.73 0 23.019 9.289 9.288 9.288 9.288 23.018 0 13.731-9.288 23.019-9.289 9.289-23.019 9.289Zm153.845 0q-13.73 0-23.018-9.289-9.289-9.288-9.289-23.019 0-13.73 9.289-23.018 9.288-9.289 23.018-9.289 13.731 0 23.019 9.289 9.289 9.288 9.289 23.018 0 13.731-9.289 23.019-9.288 9.289-23.019 9.289Z"/></svg>