<svg xmlns="http://www.w3.org/2000/svg" height="24" viewBox="0 -960 960 960" width="24"><path d="M260.771-243.849h206.151q3.847 0 6.539-2.693 2.693-2.692 2.693-6.539v-33.076q0-3.847-2.693-6.539-2.692-2.693-6.539-2.693H260.771q-3.847 0-6.539 2.693-2.693 2.692-2.693 6.539v33.076q0 3.847 2.693 6.539 2.692 2.693 6.539 2.693Zm13.075-326.152h180q9.308 0 16.577-7.269 7.269-7.269 7.269-16.576 0-9.308-7.269-16.577-7.269-7.269-16.577-7.269h-180q-9.307 0-16.576 7.269t-7.269 16.577q0 9.307 7.269 16.576t16.576 7.269Zm0-92.307h180q9.308 0 16.577-7.269 7.269-7.269 7.269-16.577 0-9.307-7.269-16.576t-16.577-7.269h-180q-9.307 0-16.576 7.269t-7.269 16.576q0 9.308 7.269 16.577 7.269 7.269 16.576 7.269Zm346.153 126.153v-59.999h67.691q5.385 0 8.847-3.461 3.462-3.462 3.462-8.847v-63.076q0-5.385-3.462-8.847-3.462-3.461-8.847-3.461h-67.691v-59.999h67.691q29.827 0 51.067 21.24t21.24 51.067v1.539h73.846q12.749 0 21.374 8.628 8.625 8.629 8.625 21.384 0 12.756-8.625 21.371-8.625 8.615-21.374 8.615h-73.846v1.539q0 29.827-21.24 51.067t-51.067 21.24h-67.691ZM463.845-355.387h-59.999v-168.459h143.845q5.385 0 8.847-3.462Q560-530.77 560-536.155v-207.69q0-5.385-3.462-8.847-3.462-3.462-8.847-3.462H247.693q-33 0-56.5 23.5t-23.5 56.5v72.308q0 33 23.5 56.5t56.5 23.5h76.153v168.459h-59.998v-108.461h-16.155q-57.75 0-98.874-41.124-41.125-41.125-41.125-98.874v-72.308q0-57.749 41.125-98.874 41.124-41.124 98.874-41.124h299.998q29.827 0 51.067 21.24 21.241 21.24 21.241 51.067v207.69q0 29.827-21.241 51.067-21.24 21.24-51.067 21.24h-83.846v108.461ZM245.771-183.851q-22.596 0-38.413-15.817-15.817-15.817-15.817-38.413v-63.076q0-22.596 15.817-38.413 15.817-15.817 38.413-15.817h236.151q22.596 0 38.413 15.817 15.817 15.817 15.817 38.413v63.076q0 22.596-15.817 38.413-15.817 15.817-38.413 15.817H245.771ZM363.846-640Zm103.076 396.151H251.539h224.615-9.232Z"/></svg>