<svg xmlns="http://www.w3.org/2000/svg" height="24" viewBox="0 -960 960 960" width="24"><path d="M273.846-570.001h180q9.308 0 16.577-7.269 7.269-7.269 7.269-16.576 0-9.308-7.269-16.577-7.269-7.269-16.577-7.269h-180q-9.307 0-16.576 7.269t-7.269 16.577q0 9.307 7.269 16.576t16.576 7.269Zm0-92.307h180q9.308 0 16.577-7.269 7.269-7.269 7.269-16.577 0-9.307-7.269-16.576t-16.577-7.269h-180q-9.307 0-16.576 7.269t-7.269 16.576q0 9.308 7.269 16.577 7.269 7.269 16.576 7.269Zm381.537 126.153v-207.69h32.307q29.827 0 51.067 21.24t21.24 51.067v1.539h73.846q12.749 0 21.374 8.628 8.625 8.629 8.625 21.384 0 12.756-8.625 21.371-8.625 8.615-21.374 8.615h-73.846v1.539q0 29.827-21.24 51.067t-51.067 21.24h-32.307ZM463.845-378.464H263.848v-85.384h-16.155q-57.75 0-98.874-41.124-41.125-41.125-41.125-98.874v-72.308q0-57.749 41.125-98.874 41.124-41.124 98.874-41.124h299.998q29.827 0 51.067 21.24 21.241 21.24 21.241 51.067v207.69q0 29.827-21.241 51.067-21.24 21.24-51.067 21.24h-83.846v85.384ZM245.771-183.851q-22.596 0-38.413-15.817-15.817-15.817-15.817-38.413v-50.769q0-22.596 15.817-38.413 15.817-15.817 38.413-15.817h236.151q22.596 0 38.413 15.817 15.817 15.817 15.817 38.413v50.769q0 22.596-15.817 38.413-15.817 15.817-38.413 15.817H245.771Z"/></svg>