<svg xmlns="http://www.w3.org/2000/svg" height="24" viewBox="0 -960 960 960" width="24"><path d="M360-180.001q-125.624 0-212.811-87.17-87.188-87.169-87.188-212.768t87.188-212.829Q234.376-779.999 360-779.999h240q125.624 0 212.811 87.17 87.188 87.169 87.188 212.768t-87.188 212.829Q725.624-180.001 600-180.001H360ZM360-240h240q100 0 170-70t70-170q0-100-70-170t-170-70H360q-100 0-170 70t-70 170q0 100 70 170t170 70Zm120-170.001q29.154 0 49.576-20.423 20.423-20.422 20.423-49.576t-20.423-49.576Q509.154-549.999 480-549.999t-49.576 20.423Q410.001-509.154 410.001-480t20.423 49.576q20.422 20.423 49.576 20.423Zm-40-200h80q12.75 0 21.375-8.628 8.624-8.629 8.624-21.384 0-12.756-8.624-21.371-8.625-8.615-21.375-8.615h-80q-12.75 0-21.374 8.628-8.625 8.629-8.625 21.384 0 12.756 8.625 21.371 8.624 8.615 21.374 8.615Zm0 320h80q12.75 0 21.375-8.628 8.624-8.629 8.624-21.384 0-12.756-8.624-21.371-8.625-8.615-21.375-8.615h-80q-12.75 0-21.374 8.628-8.625 8.629-8.625 21.384 0 12.756 8.625 21.371 8.624 8.615 21.374 8.615Zm200.013-120q12.756 0 21.371-8.625 8.615-8.624 8.615-21.374v-80q0-12.75-8.628-21.375-8.629-8.624-21.384-8.624-12.756 0-21.371 8.624-8.615 8.625-8.615 21.375v80q0 12.75 8.628 21.374 8.629 8.625 21.384 8.625Zm-320 0q12.756 0 21.371-8.625 8.615-8.624 8.615-21.374v-80q0-12.75-8.628-21.375-8.629-8.624-21.384-8.624-12.756 0-21.371 8.624-8.615 8.625-8.615 21.375v80q0 12.75 8.628 21.374 8.629 8.625 21.384 8.625ZM480-480Z"/></svg>