<svg xmlns="http://www.w3.org/2000/svg" height="24" viewBox="0 -960 960 960" width="24"><path d="M212.309-220.001q-29.827 0-51.067-21.241-21.241-21.24-21.241-51.067v-85.385q0-29.826 21.241-51.066 21.24-21.241 51.067-21.241h535.382q29.827 0 51.067 21.241 21.241 21.24 21.241 51.066v85.385q0 29.827-21.241 51.067-21.24 21.241-51.067 21.241H212.309Zm0-289.998q-29.827 0-51.067-21.241-21.241-21.24-21.241-51.066v-85.385q0-29.827 21.241-51.067 21.24-21.241 51.067-21.241h535.382q29.827 0 51.067 21.241 21.241 21.24 21.241 51.067v85.385q0 29.826-21.241 51.066-21.24 21.241-51.067 21.241H212.309Z"/></svg>