<svg xmlns="http://www.w3.org/2000/svg" height="24" viewBox="0 -960 960 960" width="24"><path d="M480-100.001q-78.538 0-147.884-29.77-69.346-29.769-120.961-81.384-51.615-51.615-81.384-120.961-29.77-69.346-29.77-147.884 0-79.154 29.77-148.192 29.769-69.038 81.384-120.653 51.615-51.615 120.961-81.384 69.346-29.77 147.884-29.77 32 0 61.5 4.885t58.5 13.885V-760q0 33-23.5 56.5T520-680h-80v80q0 17-11.5 28.5T400-560h-80v80h240q17 0 28.5 11.5T600-440v120h40q27 0 47.5 16t28.5 40q39-43.231 61.5-98.115Q800-417 800-480q0-11-.615-20-.616-9-2.616-20h61.23q2 11 2 20v20q0 78.538-29.77 147.884-29.769 69.346-81.384 120.961-51.615 51.615-120.653 81.384-69.038 29.77-148.192 29.77ZM440-162v-78q-33 0-56.5-23.5T360-320v-40L168-552q-3 18-5.5 36t-2.5 36q0 123.231 80.5 213.115Q321-177 440-162Zm276.154-438q-15.462 0-25.808-10.346T680-636.154v-118.461q0-15.461 10.346-25.807 10.346-10.347 25.808-10.347H720v-40q0-31.461 21.961-53.422 21.962-21.962 53.423-21.962 31.462 0 53.423 21.962 21.962 21.961 21.962 53.422v40h3.846q15.461 0 25.807 10.347 10.347 10.346 10.347 25.807v118.461q0 15.462-10.347 25.808Q890.076-600 874.615-600H716.154Zm39.23-190.769h80v-40q0-17-11.5-28.5t-28.5-11.5q-17 0-28.5 11.5t-11.5 28.5v40Z"/></svg>