<svg xmlns="http://www.w3.org/2000/svg" height="24" viewBox="0 -960 960 960" width="24"><path d="m771.078-104.001-276.616-276h-20.001q-27.385 53.615-78.769 86.807Q344.307-260.001 280-260.001q-91.538 0-155.768-64.231-64.23-64.23-64.23-155.768 0-67.923 37.384-122.154 37.385-54.231 97.54-77.384l-91.54-91.54q-8.923-8.922-9.115-21.191-.192-12.269 9.115-21.577 9.308-9.307 21.384-9.307 12.077 0 21.384 9.307l667.692 667.692q8.923 8.923 9.115 20.884.192 11.961-9.115 21.269-9.308 9.307-21.384 9.307-12.077 0-21.384-9.307Zm16.92-181.001L528.386-544.614H840q24.538 0 42.268 17.73 17.731 17.73 17.731 42.268v9.232q0 24.538-17.731 42.268-17.73 17.73-42.268 17.73h-30.771v84.616q0 14.565-6.27 26.32-6.269 11.756-14.961 19.448ZM280-415.386q26.846 0 45.73-18.884 18.884-18.884 18.884-45.73 0-4.693-.961-8.308-.962-3.616-2.885-6.77l-44.921-44.921q-3.154-1.923-7.154-3.269T280-544.614q-26.846 0-45.73 18.884-18.884 18.884-18.884 45.73 0 26.846 18.884 45.73 18.884 18.884 45.73 18.884Z"/></svg>