<svg xmlns="http://www.w3.org/2000/svg" height="24" viewBox="0 -960 960 960" width="24"><path d="M763.231-99.232 622.614-239.233l-2.308 1.539-23.461 81.999q-5.615 18.077-19.884 28.808-14.27 10.731-32.731 10.731H415.77q-18.461 0-32.731-10.731-14.269-10.731-19.884-28.808l-33.307-113.383q-49.154-33.768-79.5-89.038Q220.001-413.385 220.001-480q0-34.461 8.808-66.807 8.808-32.347 25.423-60.808L98.617-763.231q-8.923-8.923-9.116-21.191-.192-12.269 9.115-21.577 9.308-9.307 21.385-9.307 12.076 0 21.384 9.307l664.614 664.614q8.923 8.923 9.115 20.884.192 11.962-9.115 21.27-9.308 9.307-21.384 9.307-12.077 0-21.384-9.308ZM480-280q21.539 0 42.808-4.654 21.27-4.654 39.423-13.962L298.616-562.231q-9.693 19.307-14.154 40.192Q280-501.154 280-480q0 83 58.5 141.5T480-280Zm227.383-73.385-44.999-44.999q8.539-18.923 13.077-38.539Q680-456.538 680-480q0-83-58.5-141.5T480-680q-23.462 0-43.847 4.731-20.384 4.731-37.769 12.885l-60.614-60.614 1.924-1.154 23.461-80.153q5.615-17.462 19.884-28.5 14.27-11.039 32.731-11.039h128.46q18.461 0 32.731 10.731 14.269 10.731 19.884 28.808l33.307 113.383q50.308 34.153 80.077 90.191 29.77 56.039 29.77 120.731 0 35.231-8.385 66.692-8.385 31.462-24.231 59.923Z"/></svg>