<svg xmlns="http://www.w3.org/2000/svg" height="24" viewBox="0 -960 960 960" width="24"><path d="M347.615-130.001q-54.769 0-75.269-20-20.5-20-58.346-20-15.539 0-29.5 5.193-13.962 5.192-50.885 26.346-15 8.307-29.499-.321-14.5-8.629-14.5-25.886 0-8.254 4.09-15.318t11.525-10.782q47.615-26 65.154-32.615 17.538-6.615 43.764-6.615 53.389 0 73.658 20 20.27 20 58.578 20 39.538 0 59.192-20 19.654-20 74.423-20 53.538 0 74.115 20 20.577 20 58.27 20 39.538 0 59.192-20 19.654-20 74.478-20 26.019 0 43.674 6.615t65.04 32.615q7.436 3.74 11.525 10.846 4.09 7.106 4.09 15.334 0 17.204-14.807 25.819-14.808 8.615-29.807.308-36.539-20.769-50.395-26.154-13.856-5.385-29.375-5.385-37.923 0-57.769 20-19.847 20-74.616 20-53.538 0-74.422-20-20.885-20-59.193-20-39.539 0-58.577 20-19.039 20-73.808 20Zm-99.537-659.985q0 12.756-8.625 21.371Q230.828-760 218.078-760h-54.232q-12.749 0-21.374-8.629-8.625-8.628-8.625-21.384 0-12.755 8.625-21.37 8.625-8.616 21.374-8.616h54.232q12.75 0 21.375 8.629t8.625 21.384Zm53.691 144.294q9.308 8.923 9.115 21.384-.192 12.462-9.115 21.384l-38.385 38.386q-8.211 8.307-20.528 8.307-12.317 0-21.24-8.307-9.308-8.923-9.115-21.384.192-12.462 9.115-21.384l38.385-38.386q8.211-8.307 20.528-8.307 12.317 0 21.24 8.307ZM480-639.615q-75.307 0-128.037-52.731-52.731-52.73-52.731-128.037h59.999q0 50.32 35.237 85.545 35.238 35.224 85.577 35.224 50.34 0 85.532-35.224 35.192-35.225 35.192-85.545h59.999q0 75.307-52.731 128.037-52.73 52.731-128.037 52.731Zm0-180.768Zm.013 229.999q12.756 0 21.371 8.625 8.615 8.625 8.615 21.374v54.232q0 12.75-8.628 21.375-8.629 8.624-21.384 8.624-12.756 0-21.371-8.624-8.615-8.625-8.615-21.375v-54.232q0-12.749 8.628-21.374 8.629-8.625 21.384-8.625Zm178.669-54.375q8.241-8.24 20.625-8.24t20.692 8.307l39.155 38.386q9.159 8.957 9.541 20.901.381 11.944-8.926 21.251-9.308 9.308-21.384 9.308-12.077 0-21.384-9.308l-38.77-38.77q-8.308-8.922-8.423-20.884-.115-11.961 8.874-20.951Zm167.471-145.227q0 12.756-8.625 21.371Q808.903-760 796.154-760h-54.232q-12.75 0-21.375-8.629-8.625-8.628-8.625-21.384 0-12.755 8.625-21.37 8.625-8.616 21.375-8.616h54.232q12.749 0 21.374 8.629 8.625 8.629 8.625 21.384ZM347.615-290.001q-54.769 0-75.269-20-20.5-20-58.346-20-15.539 0-29.5 5.193-13.962 5.192-50.885 26.346-15 8.307-29.499-.321-14.5-8.629-14.5-25.886 0-8.254 4.09-15.318t11.525-10.782q47.615-26 65.154-32.615 17.538-6.615 43.764-6.615 53.389 0 73.658 20 20.27 20 58.578 20 39.538 0 59.192-20 19.654-20 74.423-20 53.538 0 74.115 20 20.577 20 58.27 20 39.538 0 59.192-20 19.654-20 74.478-20 26.019 0 43.674 6.615t65.04 32.615q7.436 3.74 11.525 10.846 4.09 7.106 4.09 15.334 0 17.204-14.807 25.819-14.808 8.615-29.807.308-36.539-20.769-50.395-26.154-13.856-5.385-29.375-5.385-37.923 0-57.769 20-19.847 20-74.616 20-53.538 0-74.422-20-20.885-20-59.193-20-39.539 0-58.577 20-19.039 20-73.808 20Z"/></svg>