<svg xmlns="http://www.w3.org/2000/svg" height="24" viewBox="0 -960 960 960" width="24"><path d="M240-160v-400V-172.309-180v20Zm120-459.999h240v-80q0-50-35-85t-85-35q-50 0-85 35t-35 85v80ZM252.309-100.001q-29.923 0-51.115-21.193-21.193-21.192-21.193-51.115v-375.382q0-29.923 21.193-51.115 21.192-21.193 51.115-21.193h47.692v-80q0-74.922 52.538-127.46Q405.078-879.997 480-879.997t127.461 52.538q52.538 52.538 52.538 127.46v80h47.692q29.923 0 51.115 21.193 21.193 21.192 21.193 51.115v150.537q-8.308-1.231-15.808-2.038-7.5-.808-15.807-.808-7.308 0-14.5.615-7.192.616-13.884 1.846v-150.152q0-5.385-3.462-8.847-3.462-3.462-8.847-3.462H252.309q-5.385 0-8.847 3.462-3.462 3.462-3.462 8.847v375.382q0 5.385 3.462 8.847 3.462 3.462 8.847 3.462h315.537q4.231 17.23 11.116 32.038 6.884 14.807 17.422 27.961H252.309Zm498.075 0q-37.769 0-63.884-26.116-26.115-26.115-26.115-63.884 0-17.692 6.23-32.846 6.231-15.153 17.077-27.615l46.615-51.845q8.231-9.231 20.077-9.231 11.846 0 20.077 9.231l46.615 51.845q10.846 12.462 17.076 27.615 6.231 15.154 6.231 32.846 0 37.769-26.115 63.884-26.115 26.116-63.884 26.116ZM480-290.001q29.154 0 49.576-20.423 20.423-20.422 20.423-49.576t-20.423-49.576Q509.154-429.999 480-429.999t-49.576 20.423Q410.001-389.154 410.001-360t20.423 49.576q20.422 20.423 49.576 20.423Z"/></svg>