<svg xmlns="http://www.w3.org/2000/svg" height="24" viewBox="0 -960 960 960" width="24"><path d="M480-375.77q29.154 0 49.576-20.423 20.423-20.423 20.423-49.577 0-19.487-7.961-38.551-7.962-19.063-31.884-55.294l-15.077-22.307q-5.616-8.231-15.269-8.231-9.654 0-15.269 8.231l-15.068 22.129q-23.932 37.178-31.701 55.639-7.769 18.461-7.769 38.541 0 28.81 20.423 49.326Q450.846-375.77 480-375.77Zm-.041 137.308q-100.497 0-170.997-70.541-70.5-70.541-70.5-171.038 0-100.497 70.541-170.997 70.541-70.5 171.038-70.5 100.497 0 170.997 70.541 70.5 70.541 70.5 171.038 0 100.497-70.541 170.997-70.541 70.5-171.038 70.5Zm350.04-286.154v-5.385h-66.078q-11.538-68.384-52.73-123.921-41.192-55.538-104.345-86.077h223.153v-5.385q0-12.749 8.629-21.374 8.629-8.625 21.384-8.625t21.371 8.625q8.615 8.625 8.615 21.374v220.768q0 12.75-8.629 21.375t-21.384 8.625q-12.14 0-17.678-10.471-5.539-10.471-12.308-19.529Zm-759.997 310v-220.768q0-12.75 8.629-21.375t21.384-8.625q12.755 0 21.371 8.625 8.615 8.625 8.615 21.375v5.385h66.078q11.538 68.384 52.73 123.921 41.192 55.538 104.345 86.077H130.001v5.385q0 12.749-8.629 21.374-8.629 8.625-21.384 8.625t-21.37-8.625q-8.616-8.625-8.616-21.374Z"/></svg>