<svg xmlns="http://www.w3.org/2000/svg" height="24" viewBox="0 -960 960 960" width="24"><path d="M161.154-130.001q-14.154 0-20.461-13.846-6.308-13.846-3.692-29.614 15.769-103.462 35.269-187.616 19.5-84.153 42.846-143.807 23.346-59.654 50.038-92.385 26.692-32.73 54.846-32.73 40.385 0 79.192 71.424Q438-487.151 466.693-356.226q12.615-115.078 29.615-203.502t38.808-148.578q21.807-60.154 47.923-90.924 26.115-30.769 56.961-30.769 37.538 0 68.307 45.269 30.769 45.269 54.423 129.961 23.654 84.692 39.962 205.884 16.307 121.192 24.307 272.654 1 17.692-5.923 31.961-6.922 14.269-22.23 14.269-13.538 0-23.961-8.692-10.423-8.692-14.269-22.23Q738.847-242 702.462-306.001q-36.385-64-62.462-64-25.693 0-61.577 61.923-35.885 61.924-58.039 143.77-3.846 14.538-14.654 24.423-10.807 9.884-25.345 9.884-14.923 0-24.846-11.384-9.923-11.385-11.923-27.308-10.538-72.154-25.769-139.577-15.231-67.424-32.27-121.654-17.038-54.231-34-90.693-16.962-36.461-31.577-46.307-15 9.846-31.962 46.5-16.961 36.653-34 91.076Q237-374.924 221.769-306.924q-15.231 68-25.77 140.539-2 14.769-11.346 25.577-9.346 10.807-23.499 10.807Zm362.691-194.61q26.462-50.54 56.27-77.964 29.808-27.424 59.885-27.424 30.077 0 60.078 27.616 30 27.616 56.077 77.772-18-186.234-49.808-308.12T640-768.77q-34.154 14.153-66.155 136.232-32 122.078-50 307.927Z"/></svg>