<svg xmlns="http://www.w3.org/2000/svg" height="24" viewBox="0 -960 960 960" width="24"><path d="M859.999-211.694 340.001-731.691v-35.999q0-30.307 21-51.307 21-21 51.308-21h135.382q30.308 0 51.308 21t21 51.307v67.691h167.692q30.308 0 51.308 21t21 51.308v415.997ZM400-699.999h160v-67.691q0-4.616-3.846-8.462-3.847-3.847-8.463-3.847H412.309q-4.616 0-8.463 3.847Q400-772.306 400-767.69v67.691ZM172.309-140.001q-30.308 0-51.308-21t-21-51.308v-415.382q0-30.308 21-51.308t51.308-21h87.692v84.306L86.002-789.692q-8.307-8.308-8.5-20.884-.192-12.577 8.5-21.269 8.692-8.692 21.077-8.692 12.384 0 21.076 8.692l719.076 719.076q8.307 8.307 8.5 20.884.192 12.576-8.5 21.269-8.692 8.692-21.077 8.692-12.384 0-21.076-8.693L735.693-140H172.309Z"/></svg>