<svg xmlns="http://www.w3.org/2000/svg" height="48" viewBox="0 -960 960 960" width="48"><path d="M357.609-154.022H182.152q-27.599 0-47.865-20.765-20.265-20.766-20.265-47.365v-595.696q0-27.697 20.265-48.033 20.266-20.337 47.865-20.337h595.696q26.697 0 47.533 20.337 20.837 20.336 20.837 48.033v595.696q0 26.599-20.837 47.365-20.836 20.765-47.533 20.765H602.63L504.109-55.5q-10.283 10.196-24.152 10.196-13.87 0-24.066-10.196l-98.282-98.522Zm66.437-307.024 41.041 92.981q4.524 10.195 15.936 10.195 11.412 0 15.89-10.195l40.041-92.981 92.981-40.041q10.195-4.524 10.195-15.936 0-11.412-10.195-15.89l-92.981-40.041-40.041-92.981q-4.524-10.195-15.936-10.195-11.412 0-15.89 10.195l-41.041 92.981-91.981 40.041q-10.195 4.524-10.195 15.936 0 11.412 10.195 15.89l91.981 40.041Z"/></svg>