<svg xmlns="http://www.w3.org/2000/svg" height="48" viewBox="0 -960 960 960" width="48"><path d="m738.905-748.874-64.492-28.061q-10.196-4.54-10.196-15.944t10.196-15.882l64.492-29.225 27.986-63.253q4.54-10.196 15.944-10.196t15.882 10.196l29.226 63.328 63.492 29.15q10.195 4.524 10.076 15.936-.12 11.412-10.315 15.89l-63.314 28-28.925 64.478q-4.564 10.196-16.076 10.316-11.511.119-15.99-10.077l-27.986-64.656Zm0 625.621-64.492-28.225q-10.196-4.501-10.196-15.805 0-11.304 10.196-16.021l64.492-29.061 27.986-63.657q4.563-10.195 16.075-10.076 11.512.12 15.991 10.316l28.925 63.478 63.314 29q10.195 4.524 10.315 15.936.119 11.412-10.076 15.89l-63.492 28.15L798.717-59q-4.54 10.435-15.944 10.435-11.403 0-15.882-10.435l-27.986-64.253ZM294.406-424.152h126.908l24.056 66.6q2 6.161 6.41 9.541 4.41 3.381 10.301 3.381 9.81 0 15.31-7.823 5.5-7.822 2.5-16.938L379.582-652.575q-1.973-4.664-6.377-7.664t-9.288-3h-12.038q-5.017 0-9.532 2.933t-6.26 7.828L236.043-369.391q-3.239 9 2.275 16.88 5.513 7.881 15.538 7.881 5.948 0 10.35-3.436 4.403-3.435 6.37-9.564l23.83-66.522Zm10.92-29.522 52.522-167.043 52.761 167.043H305.326Zm52.48 231.522q108.085 0 182.868-74.86 74.782-74.86 74.782-182.946 0-108.085-74.79-182.988-74.79-74.902-182.776-74.902-108.086 0-182.988 74.86T100-480.042q0 108.085 74.86 182.988 74.86 74.902 182.946 74.902Zm.097 65.261q-135.251 0-229.327-93.973Q34.5-344.836 34.5-480.016t94.092-229.256q94.092-94.076 229.272-94.076 135.179 0 229.256 94.021 94.076 94.022 94.076 229.272 0 135.251-94.022 229.207-94.021 93.957-229.271 93.957ZM357.848-480Z"/></svg>