<svg xmlns="http://www.w3.org/2000/svg" height="48" viewBox="0 -960 960 960" width="48"><path d="M598.891-444.5 439.174-604.218l88.891-89.13q6.717-6.478 14.315-9.837t16.316-3.359q8.717 0 17.434 2.859 8.718 2.859 15.435 10.337l96.218 95.978q6.717 6.718 9.576 15.435 2.859 8.718 2.859 17.435 0 8.957-3.359 17.174-3.359 8.217-9.076 13.935L598.891-444.5ZM794.435-71.543l-284.131-284.37-273 272.761q-5.717 5.478-12.934 8.717-7.218 3.24-15.696 3.24-7.717 0-15.435-3.24-7.717-3.239-14.435-8.717L77.587-183.891q-6.718-7.718-10.076-15.055-3.359-7.337-3.359-15.054 0-7.717 3.74-15.554 3.738-7.837 9.695-13.555L350.109-514.63 77.499-787.478q-9.477-9.479-9.358-22.076.12-12.598 9.598-21.837 9.24-9.479 21.717-9.479 12.479 0 21.957 9.479l716.935 715.935q9.478 9.478 9.359 22.076-.12 12.597-9.359 21.837-9.478 9.478-21.957 9.478-12.478 0-21.956-9.478ZM775.37-772.978l-63.588-28.674q-2.239-1-4.478-7.957l4.478-7.717L775.37-846l28.434-63.587q1-2.239 7.957-4.478l7.717 4.478L848.152-846l63.587 28.674q2.239 1 4.479 7.717 0 .239-4.479 7.957l-63.587 28.674-28.674 63.348q-1 2.239-7.717 4.478-.239 0-7.957-4.478l-28.434-63.348Z"/></svg>