<svg xmlns="http://www.w3.org/2000/svg" height="48" viewBox="0 -960 960 960" width="48"><path d="m379.761-437.478 29 68q3.761 8.521 13.282 8.521 9.522 0 13.283-8.521l29.239-68 73.239-32.239q8.522-3.761 8.522-13.283 0-9.522-8.522-13.283l-73.239-31.239-29.239-65.239q-3.761-8.282-13.283-8.282-9.521 0-13.282 8.282l-29 65.239-73.239 31.239Q298-492.522 298-483q0 9.522 8.522 13.283l73.239 32.239ZM182.152-194.022q-28.348 0-48.239-19.891t-19.891-48.239v-435.696q0-28.348 19.891-48.359 19.891-20.011 48.239-20.011h415.457q23.674 0 43.348 12.337 19.673 12.337 33.869 31.772L818.63-519.783Q831.304-501.63 831.304-480q0 21.63-12.674 39.783L674.826-237.891q-14.196 19.674-33.869 31.772-19.674 12.097-43.348 12.097H182.152Z"/></svg>