<svg xmlns="http://www.w3.org/2000/svg" height="48" viewBox="0 -960 960 960" width="48"><path d="M668.999-719.228 614.37-746.63q-9.196-4.525-9.077-14.817.12-10.292 9.316-14.771l54.39-27.402 27.327-54.793q4.563-9.196 14.956-9.076 10.392.119 14.87 9.315l27.403 54.554 54.554 27.402q9.195 4.479 9.195 14.794 0 10.315-8.956 14.794l-54.793 27.402-27.403 54.554q-4.563 9.196-14.955 9.315-10.393.12-14.871-9.076l-27.327-54.793ZM556.456-76.413q-52.434 0-88.011-37.216-35.576-37.217-35.576-96.523 0-49.522 23.5-85.642 23.5-36.119 58.381-60.478 34.88-24.358 74.38-37.235 39.5-12.876 71.5-15.841-3-54.848-24.021-78.532-21.022-23.685-58.827-23.685-39 0-73.119 23.324-34.12 23.325-91.12 101.915Q353.174-304 312.818-274.043q-40.356 29.956-87.666 29.956-44.798 0-81.551-29.844t-36.753-101.743q0-30.71 22.26-80.181 22.261-49.471 76.305-136.319 28.869-41.587 40.728-66.348Q258-683.283 258-700.761q0-11.119-6.085-17.679-6.084-6.56-18.014-6.56-8.662 0-19.043 4.38-10.38 4.381-23.326 15.142-12.011 9.521-26.608 9.761-14.598.239-25.555-10.718-11.956-11.948-12.195-27.768-.24-15.819 11.956-27.297 23-19.283 46.718-29.283 23.717-10 47.434-10 43.196 0 72.087 29.555 28.892 29.554 28.892 71.315 0 37.433-18.859 73.249-18.859 35.816-60.533 98.968-45.717 67.718-58.619 97.326-12.902 29.609-12.902 59.5 0 30.997 16.38 40.401 16.381 9.404 34.11 9.404 24.031 0 48.434-22.522 24.402-22.522 74.489-88.609Q425-520.913 476.311-554.609q51.311-33.695 110.401-33.695 67.027 0 106.103 48.619 39.076 48.62 44.315 127.337h64.044q16.133 0 27.001 11.368 10.868 11.368 10.868 27.502 0 16.033-10.868 26.832-10.868 10.798-27.001 10.798h-64.009q-10.513 156.196-70.23 207.815-59.718 51.62-110.479 51.62Zm3.33-77.217q29.475 0 63.42-38.566 33.946-38.565 39.424-141.413-47.875 5.153-100.568 38.802-52.692 33.649-52.692 92.418 0 22.476 13.058 35.617 13.059 13.142 37.358 13.142Z"/></svg>