<svg xmlns="http://www.w3.org/2000/svg" height="48" viewBox="0 -960 960 960" width="48"><path d="M480-886.218q45.109 0 81.924 7.718 36.815 7.717 86.815 27.435l-90.13 39.587Q540.087-816 523.685-818T480-820q-20 0-45.5 3.12Q409-813.761 388-807q75 85 153.5 137T761-630h-1.435l23.478 57.957q-133.956 17.239-231.739-25-97.782-42.24-167.826-123.044-33.282 80.283-97.261 140.902-63.978 60.62-144.065 92.424 0 143.804 98.402 244.207Q338.957-142.152 480-142.152q141.804 0 239.826-98.663Q817.848-339.478 818.087-480q0-20.326-2.381-36.63-2.38-16.305-4.141-28.392l41.5-96.478q17.196 43.717 25.174 79.87 7.979 36.152 7.979 81.63 0 84.435-31.598 158.63-31.598 74.196-86.674 129.033-55.076 54.837-129.152 86.576Q564.717-74.021 480-74.021q-85.196 0-159.272-31.479-74.076-31.478-128.913-86.315-54.837-54.837-86.315-128.913Q74.022-394.804 74.022-480q0-84.717 31.239-158.674 31.239-73.956 85.956-129.033 54.718-55.076 128.913-86.793 74.196-31.718 159.87-31.718Zm-125.043 394.74q23.239 0 38.858 15.619 15.62 15.62 15.62 38.859 0 23.239-15.62 38.859-15.619 15.619-38.858 15.619-23.24 0-38.859-15.619-15.62-15.62-15.62-38.859 0-23.239 15.62-38.859 15.619-15.619 38.859-15.619ZM574.043-717Zm32 225.522q23.24 0 38.979 15.619 15.739 15.62 15.739 38.859 0 23.239-15.739 38.859-15.739 15.619-38.979 15.619-23.239 0-38.858-15.619-15.62-15.62-15.62-38.859 0-23.239 15.62-38.859 15.619-15.619 38.858-15.619ZM758.761-758l-63.848-27.043q-9.717-4.24-9.717-14.957t9.717-14.957L758.761-841l30.282-69.087q4-9.478 14.718-8.978 10.717.5 14.956 9.978L847.761-841l64.087 26.043q9.478 4.24 9.478 14.957t-9.478 14.957L847.761-758l-29.044 68.087q-4.239 9.478-14.956 9.978-10.718.5-14.718-8.978L758.761-758ZM150-560q48-18 109.5-81T347-794q-87 39-131.5 99T150-560Zm197-234Z"/></svg>