<svg xmlns="http://www.w3.org/2000/svg" height="48" viewBox="0 -960 960 960" width="48"><path d="m702.152-738.196-64.087-27.043q-10.195-4.478-10.195-15.913t10.195-15.913l64.087-27.283 27.283-64.326q4.478-9.956 15.913-9.956t15.913 9.956l27.283 64.326 64.086 27.283q10.196 4.478 10.196 15.913t-10.196 15.913l-64.086 27.043-27.283 64.566q-4.478 9.956-15.913 9.956t-15.913-9.956l-27.283-64.566ZM304.565-322.37q-113.913 0-191.989-78.076Q34.5-478.522 34.5-592.435q0-113.913 78.076-191.989Q190.652-862.5 304.565-862.5q113.913 0 191.989 78.076 78.076 78.076 78.076 191.989 0 113.913-78.076 191.989-78.076 78.076-191.989 78.076Zm93.37 250.5q-28.587 0-48.478-19.771-19.892-19.772-19.892-48.359v-126.37q16.435 0 32.75-2.26 16.315-2.261 32.75-6.74 85.044-20.239 144.685-82.663 59.641-62.423 85.88-146.467 5.24-15.435 7.62-32.25 2.38-16.815 2.38-33.25h164.935q28.587 0 48.479 19.891 19.891 19.892 19.891 48.24V-140q0 28.587-19.891 48.359-19.892 19.772-48.479 19.772h-402.63Z"/></svg>