<?xml version="1.0" encoding="utf-8"?>
<!-- Generator: Adobe Illustrator 18.1.1, SVG Export Plug-In . SVG Version: 6.00 Build 0)  -->
<svg version="1.1" id="Layer_1" xmlns="http://www.w3.org/2000/svg" xmlns:xlink="http://www.w3.org/1999/xlink" x="0px" y="0px"
	 viewBox="100 -100 1000 1000" enable-background="new 100 -100 1000 1000" xml:space="preserve">
<g id="familie">
	<path fill="#002776" d="M598.8,485.6h1.2c46,0,83.4-37.4,83.4-83.4v-24.6c0-46-37.4-83.4-83.4-83.4h-1.2c-46,0-83.4,37.4-83.4,83.4
		v24.6C515.4,448.2,552.8,485.6,598.8,485.6z M561.9,377.7c0-20.4,16.6-36.9,36.9-36.9h1.2c20.4,0,36.9,16.6,36.9,36.9v24.6
		c0,20.3-16.6,36.9-36.9,36.9h-1.2c-20.3,0-36.9-16.6-36.9-36.9V377.7z M368.1,672.8H229.5V528.3c0-41.6,23.1-79.9,58.8-99.9
		c8.7-4.9,12.6-15.4,9.1-24.7l-2.1-5.6c-4.3-11.5-17.8-16.7-28.5-10.8c-50.9,27.9-83.8,82.1-83.8,141v150.4
		c0,22.4,18.1,40.5,40.5,40.5h144.5c11.2,0,20.3-9.1,20.3-20.3V693C388.4,681.9,379.3,672.8,368.1,672.8z M931.9,387.3
		c-10.7-5.9-24.2-0.6-28.5,10.8l-2.1,5.6c-3.5,9.3,0.3,19.8,9.1,24.7c35.8,20,58.8,58.2,58.8,99.9v144.5H830.6
		c-11.2,0-20.3,9.1-20.3,20.3v5.9c0,11.2,9.1,20.3,20.3,20.3h144.5c22.4,0,40.5-18.1,40.5-40.5V528.3
		C1015.7,469.3,982.8,415.2,931.9,387.3z M926.5,233.2v-37.6c0-63.5-51.7-115.2-115.2-115.2h-1.9c-63.5,0-115.2,51.7-115.2,115.2
		v37.6c0,63.5,51.7,115.2,115.2,115.2h1.9C874.8,348.4,926.5,296.7,926.5,233.2z M740.7,233.2v-37.6c0-37.9,30.8-68.7,68.7-68.7h1.9
		c37.9,0,68.7,30.8,68.7,68.7v37.6c0,37.9-30.8,68.7-68.7,68.7h-1.9C771.5,301.9,740.7,271.1,740.7,233.2z M697.1,511.5
		c-11-6.9-25.5-2.2-30,9.9l-2.1,5.7c-3.4,9.1,0.2,19.1,8.4,24.3c21.7,14,35.4,38.4,35.4,64.7v56.6H489.9v-56.6
		c0-26.4,13.7-50.7,35.4-64.7c8.1-5.3,11.8-15.2,8.4-24.3l-2.1-5.7c-4.5-12.1-19-16.8-30-9.9c-35.5,22.3-58.1,61.8-58.1,104.7v62.6
		c0,22.4,18.1,40.5,40.5,40.5h230.8c22.4,0,40.5-18.1,40.5-40.5v-62.6C755.3,573.3,732.7,533.8,697.1,511.5z M504.5,233.2v-37.6
		c0-63.5-51.7-115.2-115.2-115.2h-1.9c-63.5,0-115.2,51.7-115.2,115.2v37.6c0,63.5,51.7,115.2,115.2,115.2h1.9
		C452.8,348.4,504.5,296.7,504.5,233.2z M458.1,233.2c0,37.9-30.8,68.7-68.7,68.7h-1.9c-37.9,0-68.7-30.8-68.7-68.7v-37.6
		c0-37.9,30.8-68.7,68.7-68.7h1.9c37.9,0,68.7,30.8,68.7,68.7V233.2z"/>
</g>
</svg>
