<?xml version="1.0" encoding="utf-8"?>
<!-- Generator: Adobe Illustrator 18.1.1, SVG Export Plug-In . SVG Version: 6.00 Build 0)  -->
<svg version="1.1" id="Layer_1" xmlns="http://www.w3.org/2000/svg" xmlns:xlink="http://www.w3.org/1999/xlink" x="0px" y="0px"
	 viewBox="0 0 1000 1000" enable-background="new 0 0 1000 1000" xml:space="preserve">
<g id="konsulent">
	<path fill="#002776" d="M508.6,511.2h-8.8c-10.4,0-19.1,7.9-20.2,18.2l-16.7,166c-0.5,4.8,0.8,9.6,3.5,13.5l21.1,30.6
		c8.1,11.7,25.3,11.7,33.3,0L542,709c2.7-4,4-8.8,3.5-13.5l-16.7-166C527.7,519.1,519,511.2,508.6,511.2z M675.2,509.1
		c-9.7-7.2-23.5-4.3-29.6,6.2l-4.8,8.3c-5.1,8.8-3,20.1,5.2,26.2c37.8,28.2,60.6,73,60.6,120.7v134.7H292.1V670.4
		c0-47.7,22.8-92.5,60.6-120.7c8.1-6.1,10.3-17.4,5.2-26.2l-4.8-8.3c-6-10.5-19.9-13.4-29.6-6.2c-50.7,37.6-81.4,97.5-81.4,161.3
		v144.2c0,22.4,18.1,40.5,40.5,40.5h433.5c22.4,0,40.5-18.1,40.5-40.5V670.4C756.6,606.6,725.9,546.6,675.2,509.1z M498.2,475.1h2.4
		c78.5,0,142.3-63.8,142.3-142.3v-47.9c0-78.5-63.8-142.3-142.3-142.3h-2.4c-78.5,0-142.3,63.8-142.3,142.3v47.9
		C355.9,411.2,419.7,475.1,498.2,475.1z M405.9,284.9c0-50.9,41.4-92.3,92.3-92.3h2.4c50.9,0,92.3,41.4,92.3,92.3v47.9
		c0,50.9-41.4,92.3-92.3,92.3h-2.4c-50.9,0-92.3-41.4-92.3-92.3L405.9,284.9L405.9,284.9z"/>
</g>
</svg>
