<?xml version="1.0" encoding="utf-8"?>
<!-- Generator: Adobe Illustrator 18.1.1, SVG Export Plug-In . SVG Version: 6.00 Build 0)  -->
<svg version="1.1" id="Layer_1" xmlns="http://www.w3.org/2000/svg" xmlns:xlink="http://www.w3.org/1999/xlink" x="0px" y="0px"
	 viewBox="0 0 1000 1000" enable-background="new 0 0 1000 1000" xml:space="preserve">
<g id="Layer_4">
	<g>
		<path fill="#002776" d="M409.9,722.8c-21.5,0-39.2-16.8-40.6-38.3c0-0.1,0-0.2,0-0.3c-1.5-21-6.7-62.8-24.1-98
			c-13.4-27.1-27.5-47.8-41.2-67.8c-29.6-43.4-57.5-84.4-57.5-166.3c0-129.4,115.7-238.7,252.7-238.7s252.7,109.3,252.7,238.7
			c0,81.9-27.9,122.9-57.5,166.3c-13.7,20-27.8,40.8-41.1,67.8c-17.4,35.2-22.6,77.1-24.1,98.1c0,0.1,0,0.2,0,0.3
			c-1.5,21.5-19.1,38.2-40.6,38.2L409.9,722.8z M419,672.3h160.5c2.5-26.6,9.5-69.9,28.6-108.5c14.9-30.2,30.7-53.4,44.7-73.9
			c28.3-41.5,48.7-71.5,48.7-137.8c0-100.3-94.5-188.2-202.2-188.2S297,251.8,297,352.1c0,66.3,20.4,96.3,48.7,137.8
			c14,20.5,29.8,43.7,44.7,73.9C409.5,602.4,416.4,645.7,419,672.3z"/>
		<path fill="#002776" d="M621.2,805.7H381.7c-11.3,0-20.4-9.1-20.4-20.4v-9.6c0-11.3,9.1-20.4,20.4-20.4h239.5
			c11.3,0,20.4,9.1,20.4,20.4v9.6C641.6,796.5,632.5,805.7,621.2,805.7z"/>
		<path fill="#002776" d="M590,884.8H412.9c-11.3,0-20.4-9.1-20.4-20.4v-9.6c0-11.3,9.1-20.4,20.4-20.4h177.2
			c11.3,0,20.4,9.1,20.4,20.4v9.6C610.5,875.7,601.3,884.8,590,884.8z"/>
		
			<rect x="383.4" y="543.5" transform="matrix(-7.582147e-04 -1 1 -7.582147e-04 -65.3257 1064.9863)" fill="#002776" width="232" height="43.3"/>
		<path fill="#002776" d="M483.8,464.2L419.9,398c-7.8-8.1-7.6-21.1,0.5-28.9l1.7-1.7c8.1-7.8,21.1-7.6,28.9,0.5l63.9,66.2
			L483.8,464.2z"/>
		<path fill="#002776" d="M514.9,464.1l-31.1-30l63.7-66.1c7.8-8.1,20.8-8.4,28.9-0.5l1.7,1.7c8.1,7.8,8.4,20.8,0.5,28.9
			L514.9,464.1z"/>
	</g>
</g>
</svg>
