<?xml version="1.0" encoding="utf-8"?>
<!-- Generator: Adobe Illustrator 18.1.1, SVG Export Plug-In . SVG Version: 6.00 Build 0)  -->
<svg version="1.1" id="Layer_1" xmlns="http://www.w3.org/2000/svg" xmlns:xlink="http://www.w3.org/1999/xlink" x="0px" y="0px"
	 viewBox="0 0 1000 1000" enable-background="new 0 0 1000 1000" xml:space="preserve">
<g id="off-transport">
	<path fill="#002776" d="M647.2,247h-63.1l42.2-107.5h37.1c11.2,0,20.3-9.1,20.3-20.3v-2.4c0-11.2-9.1-20.3-20.3-20.3H335.3
		c-11.2,0-20.3,9.1-20.3,20.3v2.4c0,11.2,9.1,20.3,20.3,20.3h37.1L414.6,247h-63.1c-69.8,0-126.3,56.5-126.3,126.3V759
		c0,22.4,18.1,40.5,40.5,40.5h28.7L259.3,872c-6.5,13.5,3.3,29.1,18.2,29.1h10.6c7.8,0,14.8-4.4,18.2-11.4l43.7-90.2h298.6
		l43.7,90.2c3.4,7,10.5,11.4,18.2,11.4h10.6c14.9,0,24.7-15.6,18.2-29.1l-35.1-72.5H733c22.4,0,40.5-18.1,40.5-40.5V373.3
		C773.5,303.6,717,247,647.2,247z M576.4,139.5L534.2,247h-69.7l-42.2-107.5H576.4z M723.5,749.4H275.2V615.2h448.3V749.4
		L723.5,749.4z M723.5,565.1H275.2V373.3c0-42.1,34.2-76.3,76.3-76.3h295.7c42.1,0,76.3,34.2,76.3,76.3V565.1L723.5,565.1z
		 M639.1,714.2h20.8c11.2,0,20.3-9.1,20.3-20.3v-20.8c0-11.2-9.1-20.3-20.3-20.3h-20.8c-11.2,0-20.3,9.1-20.3,20.3v20.8
		C618.8,705.1,627.9,714.2,639.1,714.2z M338.8,714.2h20.8c11.2,0,20.3-9.1,20.3-20.3v-20.8c0-11.2-9.1-20.3-20.3-20.3h-20.8
		c-11.2,0-20.3,9.1-20.3,20.3v20.8C318.5,705.1,327.6,714.2,338.8,714.2z"/>
</g>
</svg>
