<svg xmlns="http://www.w3.org/2000/svg" height="40" viewBox="0 -960 960 960" width="40"><path d="M810-446.667h-50q-14.167 0-23.75-9.617t-9.583-23.833q0-14.216 9.583-23.716 9.583-9.5 23.75-9.5h50v-50q0-14.167 9.617-23.75 9.617-9.584 23.833-9.584 14.217 0 23.717 9.584 9.5 9.583 9.5 23.75v50h50q14.166 0 23.75 9.617Q960-494.099 960-479.883q0 14.216-9.583 23.716-9.584 9.5-23.75 9.5h-50v50q0 14.167-9.617 23.75-9.617 9.584-23.834 9.584-14.216 0-23.716-9.584-9.5-9.583-9.5-23.75v-50ZM431.333-280q-27.5 0-47.083-19.583t-19.583-47.083v-266.668q0-27.5 19.583-47.083T431.333-680H644q14.167 0 23.75 9.617t9.583 23.833q0 14.216-9.583 23.716-9.583 9.5-23.75 9.5H431.333v266.668h179.334v-100.001H564q-14.166 0-23.75-9.617-9.583-9.617-9.583-23.833 0-14.216 9.583-23.716 9.584-9.5 23.75-9.5h80q14.167 0 23.75 9.583t9.583 23.75v133.334q0 27.5-19.583 47.083T610.667-280H431.333ZM106.666-646.667V-470H200v-176.667q0-14.166 9.617-23.75Q219.234-680 233.45-680q14.216 0 23.716 9.583 9.5 9.584 9.5 23.75V-470h12.001q14.166 0 23.749 9.617Q312-450.766 312-436.55q0 14.217-9.584 23.717-9.583 9.5-23.749 9.5h-12.001v90q0 14.166-9.617 23.75Q247.432-280 233.216-280 219-280 209.5-289.583q-9.5-9.584-9.5-23.75v-90H73.333q-14.166 0-23.75-9.584Q40-422.5 40-436.667v-210q0-14.166 9.617-23.75Q59.234-680 73.45-680q14.216 0 23.716 9.583 9.5 9.584 9.5 23.75Z"/></svg>