<svg xmlns="http://www.w3.org/2000/svg" height="40" viewBox="0 -960 960 960" width="40"><path d="M270.666-360H364q15.3 0 25.65-10.158Q400-380.317 400-395.333V-462q0-15.017-10.35-25.175-10.35-10.158-25.65-10.158h-75.334v-49.334h84.667q11.556 0 19.111-7.577Q400-561.822 400-573.411q0-11.589-7.556-19.089-7.555-7.5-19.111-7.5H270.666q-15.016 0-25.175 10.35-10.158 10.35-10.158 25.65v168.667q0 15.016 10.158 25.175Q255.65-360 270.666-360Zm18-35.333V-462h58.001v66.667h-58.001ZM510.667-450l71.667 81q2 2.333 19 9Q618-360 625-375.5t-4-27.5l-68.333-77L621-558q11-12 4-27t-23.666-15q-5.526 0-10.263 2.333-4.737 2.334-8.737 6.667l-71.667 81v-63.333q0-11.556-7.577-19.111Q495.512-600 483.923-600q-11.589 0-19.089 7.556-7.5 7.555-7.5 19.111v186.666q0 11.556 7.577 19.111Q472.489-360 484.078-360q11.589 0 19.089-7.556 7.5-7.555 7.5-19.111V-450Zm160-12v41.667q0 8.333 6 14.333t14 6q8 0 14-6t6-14.333V-462H756q7.334 0 12.334-5.429 5-5.428 5-12.666t-5-12.238q-5-5-12.334-5h-45.333V-540q0-8-6-14t-14-6q-8 0-14 6t-6 14v42.667H626q-7.333 0-12.333 5t-5 12.238q0 7.238 5.4 12.666 5.4 5.429 12.6 5.429h44ZM186.666-120q-27 0-46.833-19.833T120-186.666v-586.668q0-27 19.833-46.833T186.666-840h586.668q27 0 46.833 19.833T840-773.334v586.668q0 27-19.833 46.833T773.334-120H186.666Zm0-66.666h586.668v-586.668H186.666v586.668Zm0-586.668v586.668-586.668Z"/></svg>