<svg xmlns="http://www.w3.org/2000/svg" height="40" viewBox="0 -960 960 960" width="40"><path d="M421.999-506.667h93.334q15 0 27.5-12.5t12.5-27.5V-604q0-15-12.5-27.5t-27.5-12.5h-80v-49.334h93.333q11.556 0 19.111-7.577 7.556-7.578 7.556-19.167 0-11.589-7.556-19.089-7.555-7.5-19.111-7.5H421.999q-14.999 0-27.5 12.5-12.5 12.5-12.5 27.5v160q0 15 12.5 27.5 12.501 12.5 27.5 12.5ZM435.333-542v-66.667h66.666V-542h-66.666ZM186.666-120q-27 0-46.833-19.833T120-186.666v-586.668q0-27 19.833-46.833T186.666-840h586.668q27 0 46.833 19.833T840-773.334v586.668q0 27-19.833 46.833T773.334-120H186.666Zm0-66.666h586.668v-586.668H186.666v586.668Zm0-586.668v586.668-586.668Zm102 373.334h48.667v98q0 11.556 7.578 19.111 7.577 7.556 19.166 7.556t19.089-7.556q7.5-7.555 7.5-19.111v-98H444v160q0 11.556 7.578 19.111 7.577 7.556 19.166 7.556t19.089-7.556q7.5-7.555 7.5-19.111v-173.333q0-15-12.5-27.5t-27.5-12.5h-182q-15 0-27.5 12.5t-12.5 27.5V-240q0 11.556 7.578 19.111 7.577 7.556 19.166 7.556t19.089-7.556q7.5-7.555 7.5-19.111v-160ZM604-275.333h80q15 0 27.5-12.5t12.5-27.5v-98q0-15-12.5-27.5t-27.5-12.5H577.334q-11.556 0-19.111 7.555-7.556 7.556-7.556 19.111V-240q0 11.556 7.578 19.111 7.577 7.556 19.166 7.556t19.089-7.556Q604-228.444 604-240v-35.333Zm0-53.333V-400h66.667v71.334H604Z"/></svg>