<svg xmlns="http://www.w3.org/2000/svg" height="40" viewBox="0 -960 960 960" width="40"><path d="M602.667-186.666v-56.667h-89.334q-27.5 0-47.083-19.584Q446.667-282.5 446.667-310v-340H358v60q0 27.5-19.583 47.083-19.584 19.584-47.083 19.584H146.666q-27.5 0-47.083-19.584Q80-562.5 80-590v-183.334q0-27.5 19.583-47.083T146.666-840h144.668q27.499 0 47.083 19.583Q358-800.834 358-773.334v56.667h244.667v-56.667q0-27.5 19.583-47.083T669.333-840h144.001q27.5 0 47.083 19.583T880-773.334V-590q0 27.5-19.583 47.083-19.583 19.584-47.083 19.584H669.333q-27.5 0-47.083-19.584Q602.667-562.5 602.667-590v-60h-89.334v340h89.334v-60q0-27.5 19.583-47.083 19.583-19.584 47.083-19.584h144.001q27.5 0 47.083 19.584Q880-397.5 880-370v183.334q0 27.5-19.583 47.083T813.334-120H669.333q-27.5 0-47.083-19.583t-19.583-47.083ZM146.666-773.334V-590v-183.334ZM669.333-370v183.334V-370Zm0-403.334V-590v-183.334Zm0 183.334h144.001v-183.334H669.333V-590Zm0 403.334h144.001V-370H669.333v183.334ZM146.666-590h144.668v-183.334H146.666V-590Z"/></svg>