<svg xmlns="http://www.w3.org/2000/svg" height="40" viewBox="0 -960 960 960" width="40"><path d="M208-287.332v-252.669q0-14.166 9.617-23.749 9.617-9.584 23.833-9.584 14.217 0 23.717 9.584 9.5 9.583 9.5 23.749v252.669q0 14.166-9.617 23.75-9.617 9.583-23.834 9.583-14.216 0-23.716-9.583-9.5-9.584-9.5-23.75Zm241.334 0v-252.669q0-14.166 9.617-23.749 9.616-9.584 23.833-9.584 14.216 0 23.716 9.584 9.5 9.583 9.5 23.749v252.669q0 14.166-9.617 23.75-9.617 9.583-23.833 9.583-14.217 0-23.716-9.583-9.5-9.584-9.5-23.75ZM113.333-120.667q-14.166 0-23.75-9.617Q80-139.9 80-154.117q0-14.216 9.583-23.716 9.584-9.5 23.75-9.5h733.334q14.166 0 23.75 9.617Q880-168.099 880-153.883q0 14.216-9.583 23.716-9.584 9.5-23.75 9.5H113.333Zm572-166.665v-252.669q0-14.166 9.617-23.749 9.617-9.584 23.834-9.584 14.216 0 23.716 9.584 9.5 9.583 9.5 23.749v252.669q0 14.166-9.617 23.75-9.617 9.583-23.833 9.583-14.217 0-23.717-9.583-9.5-9.584-9.5-23.75ZM849.334-640H107.333q-11.389 0-19.36-7.972Q80-655.944 80-667.333V-686q0-7.666 4.167-14 4.166-6.333 10.5-9.999L448-903.333q15.111-8 32-8t32 8l352 192.334q7.667 4.333 11.833 11.666Q880-692 880-683.333v11.818q0 13.394-8.817 22.454Q862.367-640 849.334-640Zm-620.668-66.666h502.668-502.668Zm0 0h502.668L480-844.667 228.666-706.666Z"/></svg>