<svg xmlns="http://www.w3.org/2000/svg" height="40" viewBox="0 -960 960 960" width="40"><path d="M480-80q-83 0-156-31.5T197-197q-54-54-85.5-127T80-480q0-83 31.5-156T197-763q54-54 127-85.5T480-880q56.058 0 109.196 15.333 53.138 15.334 100.472 45.001 12.333 7.333 15.499 20.666 3.167 13.334-5.5 24.667Q691.001-763 677.501-761t-26.167-5.333q-38.666-23-82.167-35.001-43.5-12-89.167-12-139.583 0-236.459 96.875Q146.666-619.583 146.666-480t96.943 236.459q96.942 96.875 236.622 96.875 27.102 0 53.436-4.334 26.333-4.333 52-12.333 14.333-4.333 27.333.167 13 4.5 19.333 17.5 6 12.666.833 25.666-5.166 13-18.5 17.667Q582-90.667 548-85.333 514-80 480-80Zm286.667-206.667H680q-14.167 0-23.75-9.617t-9.583-23.833q0-14.216 9.583-23.716 9.583-9.5 23.75-9.5h86.667V-440q0-14.167 9.617-23.75t23.833-9.583q14.216 0 23.716 9.583 9.5 9.583 9.5 23.75v86.667H920q14.167 0 23.75 9.617t9.583 23.833q0 14.216-9.583 23.716-9.583 9.5-23.75 9.5h-86.667V-200q0 14.167-9.617 23.75t-23.833 9.583q-14.216 0-23.716-9.583-9.5-9.583-9.5-23.75v-86.667ZM422-395.333 807.334-781q9.37-9.667 23.851-9.667 14.482 0 24.815 10 10.333 10 10.333 24.334 0 14.333-10.333 24.666l-410.667 411q-10 10-23.333 10-13.333 0-23.333-10l-119.334-120Q269.667-450.333 270-465q.333-14.667 9.893-24.333Q289.452-499 304.226-499t24.44 9.667l93.334 94Z"/></svg>