<svg xmlns="http://www.w3.org/2000/svg" height="40" viewBox="0 -960 960 960" width="40"><path d="M724-160.667h-86.667q-14.166 0-23.75-9.617Q604-179.9 604-194.117q0-14.216 9.583-23.716 9.584-9.5 23.75-9.5H724V-314q0-14.166 9.617-23.75 9.617-9.583 23.833-9.583 14.217 0 23.716 9.583 9.5 9.584 9.5 23.75v86.667h86.667q14.167 0 23.75 9.617t9.583 23.833q0 14.216-9.583 23.716-9.583 9.5-23.75 9.5h-86.667v87.334q0 14.166-9.617 23.75Q771.433-40 757.216-40 743-40 733.5-49.583q-9.5-9.584-9.5-23.75v-87.334Zm-594.666 0q-14.167 0-23.75-9.583Q96-179.833 96-194v-218H76.334q-15.76 0-25.713-12.167Q40.667-436.334 44-452l42.667-201.333q2.333-12 11.5-19.334Q107.334-680 119-680h547.334q11.666 0 20.833 7.333 9.167 7.334 11.5 19.334L741.334-452q3.333 15.666-6.62 27.833Q724.76-412 709.001-412h-18.334v118.001q0 14.166-9.617 23.75-9.617 9.583-23.833 9.583-14.216 0-23.716-9.583-9.5-9.584-9.5-23.75V-412H426.666v218q0 14.167-9.583 23.75t-23.75 9.583H129.334Zm33.333-66.666H360V-412H162.667v184.667Zm-46-251.334h553.334-553.334Zm8.666-254.667q-14.166 0-23.749-9.617Q92-752.568 92-766.784 92-781 101.584-790.5q9.583-9.5 23.749-9.5h535.334q14.167 0 23.75 9.617T694-766.55q0 14.216-9.583 23.716-9.583 9.5-23.75 9.5H125.333Zm-8.666 254.667h553.334l-28.667-134.667H145.333l-28.666 134.667Z"/></svg>