<svg xmlns="http://www.w3.org/2000/svg" height="40" viewBox="0 -960 960 960" width="40"><path d="M480-80q-138.333-33-229.167-157.5Q160-362 160-520v-194.334q0-21.171 12.083-38.108 12.084-16.936 31.25-24.558l253.334-94.667Q468.667-876 480-876q11.333 0 23.333 4.333L756.667-777q19.166 7.622 31.25 24.558Q800-735.505 800-714.334v209.335q-15.667-7.333-33-13.167-17.333-5.833-33.666-8.166V-714L480-808l-253.334 94v194q0 66.334 20.501 124.667 20.5 58.334 53.333 104.834 32.834 46.5 74.168 79.834 41.333 33.333 83 50.666 7.667 18.666 21.666 38.333 14 19.666 27 32.666-6.333 3.333-13.167 5.167Q486.333-82 480-80Zm208.334 0q-79.334 0-135.5-56.5-56.167-56.5-56.167-134.833 0-79.957 56.16-136.312Q608.987-464 688.667-464q79 0 135.5 56.355t56.5 136.312q0 78.333-56.5 134.833T688.334-80ZM480-484Zm192 230.667v75.757Q672-170 677.429-165q5.428 5 12.667 5 7.238 0 12.238-5.4 5-5.4 5-12.6v-75.333h75.757q7.576 0 12.576-5.429 5-5.428 5-12.666t-5-12.238q-5-5-12.576-5h-75.757v-75.758q0-7.576-5-12.575-5-5-12.238-5-7.239 0-12.667 5Q672-372 672-364.424v75.758h-75.757q-7.576 0-12.576 5-5 5-5 12.238 0 7.238 5.4 12.666 5.4 5.429 12.6 5.429H672Z"/></svg>