<svg xmlns="http://www.w3.org/2000/svg" height="40" viewBox="0 -960 960 960" width="40"><path d="M480-480Zm.177 400q-82.822 0-155.666-31.5t-127.178-85.833Q143-251.667 111.5-324.511T80-480.177Q80-563 111.566-636q31.566-73 85.68-127 54.114-54 127.267-85.5Q397.667-880 480-880q37 0 71.951 6.333 34.95 6.334 67.716 19 19 7.334 23.667 20.167 4.666 12.833.333 25.167Q639.334-797 628.5-790.5q-10.833 6.5-24.5.833-29.333-11.667-60.166-17.667-30.834-6-63.834-6-138.542 0-235.938 97.167Q146.666-619 146.666-480.324q0 138.677 97.491 236.167 97.49 97.491 236.167 97.491 138.676 0 235.843-97.396T813.334-480q0-21.778-2.667-43.556T802-566.334q-4.333-15 3.667-25t20.457-13q12.458-3 24.5 3.167 12.043 6.167 17.043 23.833Q874-554 877-529.719q3 24.281 3 49.719 0 82.333-31.5 155.487Q817-251.36 763-197.246q-54 54.114-127 85.68Q563-80 480.177-80Zm326.49-686.667h-53.334q-14.166 0-23.75-9.617Q720-785.901 720-800.117q0-14.216 9.583-23.716 9.584-9.5 23.75-9.5h53.334v-53.334q0-14.166 9.617-23.75Q825.901-920 840.117-920q14.216 0 23.716 9.583 9.5 9.584 9.5 23.75v53.334h53.334q14.166 0 23.75 9.617Q960-814.099 960-799.883q0 14.216-9.583 23.716-9.584 9.5-23.75 9.5h-53.334v53.334q0 14.166-9.617 23.75Q854.099-680 839.883-680q-14.216 0-23.716-9.583-9.5-9.584-9.5-23.75v-53.334ZM624-528.667q23.333 0 39.667-16.333Q680-561.333 680-584.667q0-23.333-16.333-39.666-16.334-16.334-39.667-16.334-23.333 0-39.666 16.334Q568-608 568-584.667q0 23.334 16.334 39.667 16.333 16.333 39.666 16.333Zm-288 0q23.333 0 39.666-16.333Q392-561.333 392-584.667q0-23.333-16.334-39.666-16.333-16.334-39.666-16.334t-39.667 16.334Q280-608 280-584.667q0 23.334 16.333 39.667 16.334 16.333 39.667 16.333Zm143.67 268q57.663 0 106.33-26.666 48.667-26.667 78.667-73.6 6-11.734-.834-23.067-6.833-11.333-20.5-11.333H316.612q-13.945 0-20.612 11.333-6.667 11.333-.667 23.067 30 46.933 78.834 73.6Q423-260.667 479.67-260.667Z"/></svg>