<svg xmlns="http://www.w3.org/2000/svg" height="40" viewBox="0 -960 960 960" width="40"><path d="M456.667-730.667h-89.333q-14.167 0-23.75-9.617Q334-749.901 334-764.117q0-14.216 9.584-23.716 9.583-9.5 23.75-9.5h89.333V-886q0-14.167 9.617-23.75t23.833-9.583q14.217 0 23.716 9.583 9.5 9.583 9.5 23.75v88.667H612q14.167 0 23.75 9.617t9.583 23.833q0 14.216-9.583 23.716-9.583 9.5-23.75 9.5h-88.667V-642q0 14.167-9.616 23.75-9.617 9.583-23.834 9.583-14.216 0-23.716-9.583-9.5-9.583-9.5-23.75v-88.667ZM286.525-80q-30.858 0-52.691-21.975Q212-123.95 212-154.808q0-30.858 21.975-52.692 21.975-21.833 52.833-21.833 30.859 0 52.692 21.975t21.833 52.833q0 30.858-21.975 52.692Q317.384-80 286.525-80Zm402.667 0q-30.858 0-52.692-21.975-21.833-21.975-21.833-52.833 0-30.858 21.975-52.692 21.975-21.833 52.833-21.833 30.859 0 52.692 21.975T764-154.525q0 30.858-21.975 52.692Q720.05-80 689.192-80ZM133.334-813.334H88q-14.166 0-23.75-9.617-9.583-9.617-9.583-23.833 0-14.216 9.583-23.716Q73.834-880 88-880h66.667q9.667 0 17.8 4.956 8.133 4.957 12.2 14.044l161 343.667H631l149.667-263.334q4.333-8 11.833-12.333t16.667-4.333q19.166 0 28.666 15.833t.5 32.5L698-489.334Q687-470 669.127-458.667 651.254-447.334 630-447.334H328.667l-52 96.001h454q14.167 0 23.75 9.617T764-317.883q0 14.216-9.583 23.716-9.583 9.5-23.75 9.5h-448q-40.109 0-61.054-33-20.946-32.999-2.279-66.999L280-496 133.334-813.334Z"/></svg>