<svg xmlns="http://www.w3.org/2000/svg" height="40" viewBox="0 -960 960 960" width="40"><path d="M80-226.666V-372q0-46.667 30-76.667t76.666-30h54.667v-254.667q0-27.5 19.584-47.083Q280.5-800 308-800h344q27.5 0 47.083 19.583 19.584 19.583 19.584 47.083v254.667h54.667q46.666 0 76.666 30T880-372v145.334q0 27.5-19.583 47.083T813.334-160H146.666q-27.5 0-47.083-19.583T80-226.666Zm228-252.001h344v-254.667H308v254.667ZM146.666-226.666h666.668V-372q0-19-10.5-29.5t-29.5-10.5H186.666q-19 0-29.5 10.5t-10.5 29.5v145.334Zm586.118-82.002q14.216 0 23.716-9.616 9.5-9.617 9.5-23.834 0-14.216-9.617-23.716-9.617-9.5-23.833-9.5-14.216 0-23.716 9.617-9.5 9.617-9.5 23.833 0 14.217 9.617 23.717 9.617 9.499 23.833 9.499ZM146.666-412h666.668-666.668Z"/></svg>