<svg xmlns="http://www.w3.org/2000/svg" height="40" viewBox="0 -960 960 960" width="40"><path d="M687.255-273.333q25.588 0 43.5-18.5t17.912-44.088q0-25.589-17.912-43.5-17.912-17.912-43.5-17.912t-44.088 17.912q-18.5 17.911-18.5 43.5 0 25.588 18.5 44.088t44.088 18.5ZM686.333-150q32.667 0 59.334-14.166 26.667-14.167 44.667-39.5-24.667-13.667-50.308-20.667-25.641-7-53.333-7-27.693 0-53.693 7-26 7-50 20.667 18 25.333 44.333 39.5 26.334 14.166 59 14.166ZM480-80q-138.333-33-229.167-157.5Q160-362 160-520v-194.334q0-21.171 12.083-38.108 12.084-16.936 31.25-24.558l253.334-94.667Q468.667-876 480-876q11.333 0 23.333 4.333L756.667-777q19.166 7.622 31.25 24.558Q800-735.505 800-714.334v209.335q-15.667-7.333-33-13.167-17.333-5.833-33.666-8.166V-714L480-808l-253.334 94v194q0 66.334 20.501 124.667 20.5 58.334 53.333 104.834 32.834 46.5 74.168 79.834 41.333 33.333 83 50.666 7.667 18.666 21.666 38.333 14 19.666 27 32.666-6.333 3.333-13.167 5.167Q486.333-82 480-80Zm208.334 0q-79.334 0-135.5-56.5-56.167-56.5-56.167-134.833 0-79.957 56.16-136.312Q608.987-464 688.667-464q79 0 135.5 56.355t56.5 136.312q0 78.333-56.5 134.833T688.334-80ZM480-484Z"/></svg>