<svg xmlns="http://www.w3.org/2000/svg" height="40" viewBox="0 -960 960 960" width="40"><path d="M150-599.333q-13.317 0-22.325-9.834-9.008-9.833-9.008-23.499 0-13.667 9.008-23.5Q136.683-666 150-666h139.334q27.774 0 47.554 19.5Q356.667-627 360-599.333H150Zm83.255 372.667q52.745 0 89.745-36.922 37-36.922 37-89.667Q360-406 323.078-443q-36.921-37-89.666-37-52.746 0-89.746 36.922-37 36.921-37 89.666 0 52.746 36.922 89.746 36.922 37 89.667 37Zm549.961 0q29.118 0 49.618-20.383 20.5-20.382 20.5-49.5t-20.383-49.618q-20.382-20.5-49.5-20.5t-49.618 20.383q-20.5 20.382-20.5 49.5t20.383 49.618q20.382 20.5 49.5 20.5Zm-549.804-60q-27.746 0-47.246-19.422-19.5-19.422-19.5-47.167t19.422-47.245Q205.51-420 233.255-420t47.245 19.422q19.5 19.421 19.5 47.166 0 27.746-19.422 47.246-19.421 19.5-47.166 19.5Zm573.255-145q21.333 5 35.333 11.833t31.333 21.166v-254q0-28.333-19.166-47.5-19.167-19.166-47.5-19.166H541.333l-46.667-47.334 60-60L533.333-848 392-706.667l22 22L473.333-744 520-698.239V-598q0 38.775-26.833 66.388Q466.333-504 427.333-504h-73q19 15 30 29.667 11 14.667 23.667 37h19.333q65.333 0 112.333-47.667t47-113v-54.667h220.001v221.001ZM649-320q6-23.667 13.167-37.5 7.166-13.833 21.166-29.833H424q2.666 19.667 2.666 33.667 0 13.999-2.666 33.666h225Zm134.667 160q-57 0-97-39.438t-40-95.229q0-57.447 40.609-98.057 40.61-40.609 98.057-40.609 55.791 0 95.229 40.024Q920-353.286 920-296.667q0 57.334-39.667 97Q840.667-160 783.667-160ZM232-160q-80.333 0-136.167-56.55Q40-273.1 40-353.333q0-80.233 56.5-136.783 56.5-56.55 136.762-56.55 80.263 0 136.834 56.57 56.57 56.571 56.57 136.834 0 80.262-56.5 136.762T232-160Zm393.666-360Z"/></svg>