<svg xmlns="http://www.w3.org/2000/svg" height="40" viewBox="0 -960 960 960" width="40"><path d="M853.334-280H106.666q-27.5 0-47.083-19.583T40-346.666v-280q0-14.167 9.617-23.75t23.833-9.583q14.216 0 23.716 9.583 9.5 9.583 9.5 23.75v280h342.001v-246.667q0-27.5 19.583-47.083t47.083-19.583H770q61.875 0 105.938 44.062Q920-571.875 920-510v163.334q0 27.5-19.583 47.083T853.334-280Zm-338.001-66.666h338.001V-510q0-34.375-24.479-58.854-24.48-24.479-58.855-24.479H515.333v246.667Zm0-246.667v246.667-246.667Zm-242 194q46.667 0 78.667-32T384-510q0-46.666-32-78.666t-78.667-32q-46.666 0-78.666 32t-32 78.666q0 46.667 32 78.667t78.666 32Zm0-66.667q-18.333 0-31.167-12.833-12.833-12.833-12.833-31.167 0-18.333 12.833-31.166Q255-554 273.333-554q18.334 0 31.167 12.834 12.833 12.833 12.833 31.166 0 18.334-12.833 31.167Q291.667-466 273.333-466Zm0-44Z"/></svg>