<svg xmlns="http://www.w3.org/2000/svg" height="40" viewBox="0 -960 960 960" width="40"><path d="M514.667-452v-154.667q0-14.166-9.617-23.75Q495.433-640 481.216-640 467-640 457.5-630.417q-9.5 9.584-9.5 23.75V-439q0 6.377 2.334 12.355 2.333 5.978 7.666 11.312l116 116q9.667 9.666 23.333 9.666 13.667 0 23.334-9.666 9.666-9.667 9.666-23.334 0-13.666-9.666-23.333l-106-106ZM479.333-81.333Q405-81.333 339.5-109.5t-114-76.667q-48.5-48.5-77-114T120-440.489q0-74.822 28.5-140.166Q177-646 225.5-694.833q48.5-48.834 114-77Q405-800 479.333-800q74.334 0 139.834 28.167 65.5 28.166 114.333 77 48.833 48.833 77 114.178 28.167 65.344 28.167 140.166T810.5-300.167q-28.167 65.5-77 114T619.167-109.5q-65.5 28.167-139.834 28.167Zm0-358ZM74.666-681.334Q65-691 65.333-704.667q.334-13.666 10-23.333L194-844q9.667-9 23.666-8.667 14 .334 23 9.334Q250.333-833.667 250-820q-.334 13.666-10 23.333l-118.667 116q-9.667 9-23.667 8.667-14-.334-23-9.334Zm809.334 0q-9 9-23 9.334-14 .333-23.666-8.667l-118.667-116q-9.667-9-10-23-.333-14 9.333-23.666 9-9 23-9.334Q755-853 764.667-844l118.666 116q9.667 9 10 23 .334 14-9.333 23.666ZM479.362-148q122.305 0 207.472-85.195Q772-318.39 772-440.695t-85.195-207.472q-85.195-85.167-207.5-85.167t-207.472 85.196q-85.167 85.195-85.167 207.5t85.196 207.472Q357.057-148 479.362-148Z"/></svg>