<svg xmlns="http://www.w3.org/2000/svg" height="40" viewBox="0 -960 960 960" width="40"><path d="M486.55-80q-14.216 0-23.716-9.583-9.5-9.584-9.5-23.75v-313.334H146.666q-14.166 0-23.75-9.583-9.583-9.583-9.583-23.75v-40q0-14.167 9.583-23.75 9.584-9.583 23.75-9.583h306.668v-313.334q0-14.166 9.617-23.75Q472.568-880 486.784-880q14.216 0 23.716 9.583 9.5 9.584 9.5 23.75v313.334h293.334q14.166 0 23.75 9.583 9.583 9.583 9.583 23.75v40q0 14.167-9.583 23.75-9.584 9.583-23.75 9.583H520v313.334q0 14.166-9.617 23.75Q500.766-80 486.55-80Z"/></svg>