<svg xmlns="http://www.w3.org/2000/svg" height="40" viewBox="0 -960 960 960" width="40"><path d="M846.55-80q-14.216 0-23.716-9.583-9.5-9.584-9.5-23.75v-173.334h-73.333q-14.167 0-23.75-9.583-9.584-9.583-9.584-23.75v-320q0-14.167 9.584-23.75 9.583-9.583 23.75-9.583h73.333v-173.334q0-14.166 9.617-23.75Q832.568-880 846.784-880q14.216 0 23.716 9.583 9.5 9.584 9.5 23.75v733.334q0 14.166-9.617 23.75Q860.766-80 846.55-80Zm-733.334 0Q99-80 89.5-89.583q-9.5-9.584-9.5-23.75v-733.334q0-14.166 9.617-23.75Q99.234-880 113.45-880q14.216 0 23.716 9.583 9.5 9.584 9.5 23.75v173.334h73.333q14.167 0 23.75 9.583 9.584 9.583 9.584 23.75v320q0 14.167-9.584 23.75-9.583 9.583-23.75 9.583h-73.333v173.334q0 14.166-9.617 23.75Q127.432-80 113.216-80Z"/></svg>