<svg xmlns="http://www.w3.org/2000/svg" height="40" viewBox="0 -960 960 960" width="40"><path d="M270-120h-83.334q-27.5 0-47.083-19.583T120-186.666V-270q0-14.166 9.617-23.75 9.617-9.583 23.833-9.583 14.216 0 23.716 9.583 9.5 9.584 9.5 23.75v83.334H270q14.166 0 23.75 9.617 9.583 9.617 9.583 23.833 0 14.216-9.583 23.716-9.584 9.5-23.75 9.5Zm503.334 0H690q-14.166 0-23.75-9.617-9.583-9.617-9.583-23.833 0-14.216 9.583-23.716 9.584-9.5 23.75-9.5h83.334V-270q0-14.166 9.617-23.75 9.617-9.583 23.833-9.583 14.216 0 23.716 9.583 9.5 9.584 9.5 23.75v83.334q0 27.5-19.583 47.083T773.334-120ZM480-186.666q-122 0-207.667-85.667T186.666-480q0-122 85.667-207.667T480-773.334q122 0 207.667 85.667T773.334-480q0 122-85.667 207.667T480-186.666Zm0-66.667q94.067 0 160.367-66.3T706.667-480q0-94.067-66.3-160.367T480-706.667q-94.067 0-160.367 66.3T253.333-480q0 94.067 66.3 160.367T480-253.333ZM120-773.334q0-27.5 19.583-47.083T186.666-840H270q14.166 0 23.75 9.617 9.583 9.617 9.583 23.833 0 14.216-9.583 23.716-9.584 9.5-23.75 9.5h-83.334V-690q0 14.166-9.617 23.75-9.617 9.583-23.833 9.583-14.216 0-23.716-9.583-9.5-9.584-9.5-23.75v-83.334Zm686.55 116.667q-14.216 0-23.716-9.583-9.5-9.584-9.5-23.75v-83.334H690q-14.166 0-23.75-9.617-9.583-9.617-9.583-23.833 0-14.216 9.583-23.716 9.584-9.5 23.75-9.5h83.334q27.5 0 47.083 19.583T840-773.334V-690q0 14.166-9.617 23.75-9.617 9.583-23.833 9.583ZM480-480Z"/></svg>