<svg xmlns="http://www.w3.org/2000/svg" height="40" viewBox="0 -960 960 960" width="40"><path d="M40-239.333Q48.333-345.667 105.167-436 162-526.333 256-579.333L181.333-708q-4-9-1.333-18.333 2.667-9.334 11.333-14.334 8.667-5 19-2 10.334 3 15.667 12l74 127.334Q386-640 480-640t180 36.667l74.667-127.334q5.333-9 15.666-12 10.334-3 19 2 8.667 5 12 14.667 3.334 9.667-2 18L704-579.333q94 53 150.833 143.333Q911.667-345.667 920-239.333H40Zm240-110q20.333 0 35.167-14.834Q330-379 330-399.333q0-20.334-14.833-35.167-14.834-14.833-35.167-14.833-20.333 0-35.167 14.833Q230-419.667 230-399.333q0 20.333 14.833 35.166 14.834 14.834 35.167 14.834Zm400 0q20.333 0 35.167-14.834Q730-379 730-399.333q0-20.334-14.833-35.167-14.834-14.833-35.167-14.833-20.333 0-35.167 14.833Q630-419.667 630-399.333q0 20.333 14.833 35.166 14.834 14.834 35.167 14.834Z"/></svg>