<svg xmlns="http://www.w3.org/2000/svg" height="40" viewBox="0 -960 960 960" width="40"><path d="M146.666-80q-27 0-46.833-19.833T80-146.666v-666.668q0-27 19.833-46.833T146.666-880h305.667q13.63 0 25.982 5.333 12.352 5.334 21.352 14.334l200.666 200.666q9 9 14.334 21.352Q720-625.963 720-612.333v125.001q0 14.166-9.617 23.75-9.617 9.583-23.833 9.583-14.216 0-23.716-9.583-9.5-9.584-9.5-23.75V-600H440v-213.334H146.666v666.668h420.001q14.166 0 23.75 9.617Q600-127.432 600-113.216 600-99 590.417-89.5q-9.584 9.5-23.75 9.5H146.666Zm0-66.666V-813.334v666.668ZM200-200q4-49 30-90t68-65l-38-68q0-1 4-15 5-2 9.5-2t6.5 5l39 70q20-8 40-12.5t41-4.5q21 0 41 4.5t40 12.5l39-70 15-4q5 2 6 7t-1 9l-38 68q42 24 68 65t30 90H200Zm110-60q8 0 14-6t6-14q0-8-6-14t-14-6q-8 0-14 6t-6 14q0 8 6 14t14 6Zm180 0q8 0 14-6t6-14q0-8-6-14t-14-6q-8 0-14 6t-6 14q0 8 6 14t14 6Zm270 52.001v-142.667q0-14.167 9.617-23.75Q779.234-384 793.45-384q14.216 0 23.716 9.584 9.5 9.583 9.5 23.75v142.667L874-255q10-9.666 23.333-9.333Q910.666-264 920.927-254q9.406 10 9.573 23.334.166 13.333-9.834 23.333l-104 104q-10 10-23.333 10-13.333 0-23.333-10l-104-104q-9.667-9.667-9.833-23.167Q656-244 666.261-254q9.406-10 23.449-10 14.043 0 23.956 9.667L760-207.999Z"/></svg>