<svg xmlns="http://www.w3.org/2000/svg" height="40" viewBox="0 -960 960 960" width="40"><path d="M480-480Zm-400 0q0-92.667 38.333-171Q156.667-729.334 221-784.334q64.334-55 147.667-80.166 83.334-25.167 175.334-9.833 13.667 2 21.333 13.5 7.667 11.5 4 25.166-3.667 13.667-15.5 21T527.668-809q-75.001-11.001-143.167 9.499-68.167 20.5-121.501 66.5-53.333 46-84.834 110.834-31.5 64.833-31.5 142.167 0 138.667 97.334 236 97.333 97.334 236 97.334 76.334 0 141.167-31.167 64.834-31.167 110.834-84.5 48-55.334 68-124.334T809-527.668q-1.666-14.333 5.667-26.166t21-15.5q13.666-3.667 25.166 4 11.5 7.666 13.5 21.333Q889-453.668 864.167-370.334 839.334-287.001 785.334-222q-57 68.666-136.334 105.333Q569.667-80 480-80q-82.333 0-155.333-31.5t-127.334-85.833Q143-251.667 111.5-324.667T80-480Zm640-126.667q-46.667 0-80-33.333t-33.333-80q0-47.333 33.333-80.333t80-33q47.333 0 80.333 33t33 80.333q0 46.667-33 80T720-606.667Z"/></svg>