<svg xmlns="http://www.w3.org/2000/svg" height="40" viewBox="0 -960 960 960" width="40"><path d="M266.666-139.999v33.333h426.668v-33.333H266.666Zm422.001-235.334q-10.667-3-19.333-8.167-8.667-5.167-15.334-12.5l-28.666 13q-5.667 2.333-11.667.833-6-1.5-9.333-7.167L587-417.667q-3.333-5.666-2.055-11.684 1.278-6.017 6.389-10.315l25.333-19q-4-10.001-4-23.001 0-13 4-23l-25-19q-5.111-4.167-6.389-10.416-1.278-6.25 2.056-11.917L605-574q3.334-5.333 9.334-6.833T626-580l28 12.667q6.667-7 14.667-12t20-8l4-32.667q.796-6.518 5.176-10.592 4.38-4.075 10.75-4.075h35.037q6.37 0 10.648 4.075 4.277 4.074 5.055 10.592l4 32.667q12 3 20 8t14.667 12L826-580q5.667-2.333 11.667-.833 6 1.5 9.333 6.833l17.667 28q3.333 5.667 2.055 11.917-1.278 6.249-6.389 10.416l-25 19q4 10 4 23t-4 23.001l25.334 19q5.111 4.298 6.388 10.315 1.278 6.018-2.055 11.684l-17.333 28.333q-3.334 5.667-9.334 7.167T826.667-383L798-396q-6.667 7.333-15.333 12.5-8.667 5.167-19.334 8.167l-4 32.666q-.796 6.519-5.176 10.593-4.379 4.074-10.75 4.074h-35.036q-6.371 0-10.648-4.074-4.278-4.074-5.056-10.593l-4-32.666Zm37.333-42q27.334 0 45.667-18.334Q790-454 790-481.333q0-27.334-18.333-45.667-18.333-18.333-45.667-18.333-27.333 0-45.667 18.333Q662-508.667 662-481.333q0 27.333 18.333 45.666 18.334 18.334 45.667 18.334ZM266.666-820.001h426.668v-33.333H266.666v33.333Zm0 0v-33.333 33.333Zm0 680.002v33.333-33.333Zm0 99.999q-27.5 0-47.083-19.583T200-106.666v-746.668q0-27.5 19.583-47.083T266.666-920h426.668q27.5 0 47.083 19.583T760-853.334V-736q0 14.166-9.617 23.749-9.617 9.584-23.833 9.584-14.216 0-23.716-9.584-9.5-9.583-9.5-23.749v-17.334H266.666v546.668h426.668V-224q0-14.166 9.617-23.749 9.617-9.584 23.833-9.584 14.216 0 23.716 9.584Q760-238.166 760-224v117.334q0 27.5-19.583 47.083T693.334-40H266.666Z"/></svg>