<svg xmlns="http://www.w3.org/2000/svg" height="40" viewBox="0 -960 960 960" width="40"><path d="M226.666-80q-27.5 0-47.083-19.583T160-146.666v-186.668q0-27 19.833-46.833T226.666-400h506.668q27 0 46.833 19.833T800-333.334v186.668q0 27.5-19.583 47.083T733.334-80H226.666Zm46.667-160h413.334q19.833 0 33.25-13.383 13.417-13.383 13.417-33.167 0-19.784-13.417-33.284t-33.25-13.5H273.333q-19.833 0-33.25 13.383-13.417 13.383-13.417 33.167 0 19.784 13.417 33.284t33.25 13.5ZM453-438 296.333-657.667q-7.666-11-10.5-23.641Q283-693.95 285-707q12-75 64-124t131-49q79 0 131 49t64 124q2 13.05-.833 25.692-2.834 12.641-10.5 23.641L507-438q-9.778 14.333-26.889 14.333Q463-423.667 453-438Zm27-51.333L612.667-680q0-55.556-38.706-94.445-38.706-38.889-94-38.889T386-774.445Q347.333-735.556 347.333-680L480-489.333Zm0-162Z"/></svg>