<svg xmlns="http://www.w3.org/2000/svg" height="40" viewBox="0 -960 960 960" width="40"><path d="M230.666-160Q201-160 180.5-180.5 160-201 160-230.666q0-29.667 20.5-50.167t50.166-20.5q29.667 0 50.167 20.5t20.5 50.167q0 29.666-20.5 50.166-20.5 20.5-50.167 20.5Zm0-249.334q-29.666 0-50.166-20.5Q160-450.333 160-480q0-29.667 20.5-50.167 20.5-20.499 50.166-20.499 29.667 0 50.167 20.499 20.5 20.5 20.5 50.167t-20.5 50.166q-20.5 20.5-50.167 20.5Zm0-249.333q-29.666 0-50.166-20.5-20.5-20.5-20.5-50.167Q160-759 180.5-779.5 201-800 230.666-800q29.667 0 50.167 20.5t20.5 50.166q0 29.667-20.5 50.167t-50.167 20.5ZM480-160q-29.667 0-50.166-20.5-20.5-20.5-20.5-50.166 0-29.667 20.5-50.167 20.499-20.5 50.166-20.5 29.667 0 50.167 20.5 20.499 20.5 20.499 50.167 0 29.666-20.499 50.166Q509.667-160 480-160Zm0-249.334q-29.667 0-50.166-20.5-20.5-20.499-20.5-50.166 0-29.667 20.5-50.167 20.499-20.499 50.166-20.499 29.667 0 50.167 20.499 20.499 20.5 20.499 50.167t-20.499 50.166q-20.5 20.5-50.167 20.5Zm0-249.333q-29.667 0-50.166-20.5-20.5-20.5-20.5-50.167 0-30.333 20.833-50.499Q451-800 481-800q4 0 8 .667 4 .666 7.334 2-2 9.333-2.5 18.5-.5 9.166-.5 18.833 0 25 4.5 48.5 4.5 23.499 13.166 45.499-7.333 4-15 5.667-7.667 1.667-16 1.667ZM760-560q-83 0-141.5-58.5T560-760q0-83 58.5-141.5T760-960q83 0 141.5 58.5T960-760q0 83-58.5 141.5T760-560Zm-30.666 400q-29.667 0-50.167-20.5t-20.5-50.166q0-29.667 20.5-50.167t50.167-20.5q29.666 0 50.166 20.5 20.5 20.5 20.5 50.167Q800-201 779.5-180.5 759-160 729.334-160Zm0-249.334q-29.667 0-50.167-20.5-20.5-20.499-20.5-50.166 0-8.333 1.667-16t5.667-15q22 8.666 45.499 13.166 23.5 4.5 48.5 4.5 9.667 0 18.833-.5 9.167-.5 18.5-2.5 1.334 3.334 2 7.334.667 4 .667 8 0 30-20.167 50.833-20.166 20.833-50.499 20.833ZM760-640q8 0 14-6t6-14q0-8-6-14t-14-6q-8 0-14 6t-6 14q0 8 6 14t14 6Zm0-80q8 0 14-6t6-14v-120q0-8-6-14t-14-6q-8 0-14 6t-6 14v120q0 8 6 14t14 6Z"/></svg>