<svg xmlns="http://www.w3.org/2000/svg" height="40" viewBox="0 -960 960 960" width="40"><path d="M513.216-200Q499-200 489.5-209.583q-9.5-9.584-9.5-23.75V-560H153.333q-14.166 0-23.75-9.617Q120-579.234 120-593.45q0-14.216 9.583-23.716 9.584-9.5 23.75-9.5h360q14.167 0 23.75 9.583t9.583 23.75v360q0 14.166-9.617 23.75Q527.432-200 513.216-200ZM726.55-413.334q-14.216 0-23.716-9.583-9.5-9.583-9.5-23.75v-326.667H366.667q-14.167 0-23.75-9.617t-9.583-23.833q0-14.216 9.583-23.716 9.583-9.5 23.75-9.5h360q14.166 0 23.75 9.583 9.583 9.584 9.583 23.75v360q0 14.167-9.617 23.75t-23.833 9.583Z"/></svg>