<svg xmlns="http://www.w3.org/2000/svg" height="40" viewBox="0 -960 960 960" width="40"><path d="M233.333-120q-14.166 0-23.75-9.583-9.583-9.584-9.583-23.75v-360q0-14.167 9.617-23.75t23.833-9.583q14.216 0 23.716 9.583 9.5 9.583 9.5 23.75v326.667h326.667q14.167 0 23.75 9.617t9.583 23.833q0 14.216-9.583 23.716-9.583 9.5-23.75 9.5h-360Zm213.334-213.334q-14.167 0-23.75-9.583t-9.583-23.75v-360q0-14.166 9.617-23.75Q432.568-760 446.784-760q14.216 0 23.716 9.583 9.5 9.584 9.5 23.75V-400h326.667q14.166 0 23.75 9.617Q840-380.766 840-366.55q0 14.216-9.583 23.716-9.584 9.5-23.75 9.5h-360Z"/></svg>