<svg xmlns="http://www.w3.org/2000/svg" height="40" viewBox="0 -960 960 960" width="40"><path d="M106.666-200q-27 0-46.833-19.833T40-266.666v-426.668q0-27 19.833-46.833T106.666-760h426.668q27 0 46.833 19.833T600-693.334v426.668q0 27-19.833 46.833T533.334-200H106.666Zm0-66.666h426.668v-426.668H106.666v426.668Zm190.667-120L252-448.333q-5.334-6.667-13.333-6.5-8 .166-13.334 6.833L177-384.666Q170.333-376 175.62-367q5.286 9 15.046 9h256.668q9.666 0 14.499-9 4.834-9-1.166-17.666l-68-91.001q-5.334-6.666-13.334-6.666T366-475.667l-68.667 89.001ZM726.55-200q-14.216 0-23.716-9.583-9.5-9.584-9.5-23.75v-493.334q0-14.166 9.617-23.75Q712.568-760 726.784-760q14.216 0 23.716 9.583 9.5 9.584 9.5 23.75v493.334q0 14.166-9.617 23.75Q740.766-200 726.55-200Zm160 0q-14.216 0-23.716-9.583-9.5-9.584-9.5-23.75v-493.334q0-14.166 9.617-23.75Q872.568-760 886.784-760q14.216 0 23.716 9.583 9.5 9.584 9.5 23.75v493.334q0 14.166-9.617 23.75Q900.766-200 886.55-200Zm-779.884-66.666v-426.668 426.668Z"/></svg>