<svg xmlns="http://www.w3.org/2000/svg" height="40" viewBox="0 -960 960 960" width="40"><path d="M266.666-419.334v266.001q0 14.166-9.617 23.75Q247.432-120 233.216-120 219-120 209.5-129.583q-9.5-9.584-9.5-23.75v-613.334q0-14.166 9.583-23.75 9.584-9.583 23.75-9.583h288.334q11.666 0 20.833 7.333 9.166 7.334 11.5 19.334L566.666-716h200.001q14.166 0 23.75 9.583 9.583 9.584 9.583 23.75v313.333q0 14.167-9.583 23.75-9.584 9.584-23.75 9.584H563q-11.666 0-20.833-7-9.167-7-11.5-19L518-419.334H266.666ZM592-402.667h141.334v-246.667H537.667q-11.667 0-20.834-7.333-9.166-7.333-11.5-19.333l-12.666-57.334H266.666V-486H547q11.667 0 20.833 7 9.167 7 11.5 19L592-402.667ZM500-568Z"/></svg>