<svg xmlns="http://www.w3.org/2000/svg" height="40" viewBox="0 -960 960 960" width="40"><path d="M411.117-486.667q14.216 0 23.716-9.617 9.5-9.617 9.5-23.833 0-14.216-9.617-23.716-9.617-9.5-23.833-9.5-14.216 0-23.716 9.617-9.5 9.617-9.5 23.833 0 14.216 9.617 23.716 9.617 9.5 23.833 9.5Zm-137.667 0q14.216 0 23.716-9.617 9.5-9.617 9.5-23.833 0-14.216-9.617-23.716-9.617-9.5-23.833-9.5-14.216 0-23.716 9.617-9.5 9.617-9.5 23.833 0 14.216 9.617 23.716 9.617 9.5 23.833 9.5Zm275.667 0q14.216 0 23.716-9.617 9.5-9.617 9.5-23.833 0-14.216-9.617-23.716-9.617-9.5-23.833-9.5-14.216 0-23.716 9.617-9.5 9.617-9.5 23.833 0 14.216 9.617 23.716 9.617 9.5 23.833 9.5Zm137.667 0q14.216 0 23.716-9.617 9.5-9.617 9.5-23.833 0-14.216-9.617-23.716-9.617-9.5-23.833-9.5-14.216 0-23.716 9.617-9.5 9.617-9.5 23.833 0 14.216 9.617 23.716 9.617 9.5 23.833 9.5ZM146.666-306.666h666.668v-426.668H146.666v426.668ZM480-160q-99 0-169.5-13.5T240-206v-34h-93.334q-27 0-46.833-19.833T80-306.666v-426.668q0-27 19.833-46.833T146.666-800h666.668q27 0 46.833 19.833T880-733.334v426.668q0 27-19.833 46.833T813.334-240H720v34q0 19-70.5 32.5T480-160Zm0-360Z"/></svg>