<svg xmlns="http://www.w3.org/2000/svg" height="40" viewBox="0 -960 960 960" width="40"><path d="m731.334-731.334-66-29.333q-10-4.334-10-15.333 0-11 10-15.334l66-30 29.333-65.333q4.334-10 15.333-10 11 0 15.334 10l30 65.333 65.333 30q10 4.334 10 15.334 0 10.999-10 15.333l-65.333 29.333-30 66q-4.334 10-15.334 10-10.999 0-15.333-10l-29.333-66Zm0 592.001-66-29.333q-10-4.334-10-15.334 0-10.999 10-15.333l66-30 29.333-65.333q4.334-10 15.333-10 11 0 15.334 10l30 65.333 65.333 30q10 4.334 10 15.333 0 11-10 15.334l-65.333 29.333-30 66q-4.334 10-15.334 10-10.999 0-15.333-10l-29.333-66ZM296-414.667h128l22.667 63.333q2.666 7.667 8.666 12.167t13.667 4.5q13 0 20.166-10.5 7.167-10.5 3.167-22.166L390.999-653q-2.666-7-8.999-11.333-6.334-4.333-13.667-4.333h-16.666q-7.333 0-13.667 4.333Q331.667-660 329.001-653L227.667-367.333q-4 11.666 3.167 22.166 7.166 10.5 20.166 10.5 7.667 0 13.667-4.5t8.666-12.167L296-414.667Zm13.333-38L360-613.334l50.667 160.667H309.333ZM360-226.666q106 0 179.667-73.667T613.334-480q0-106-73.667-179.667T360-733.334q-106 0-179.667 73.667T106.666-480q0 106 73.667 179.667T360-226.666ZM360-160q-134 0-227-93T40-480q0-134 93-227t227-93q134 0 227 93t93 227q0 134-93 227t-227 93Zm0-320Z"/></svg>