<svg xmlns="http://www.w3.org/2000/svg" height="40" viewBox="0 -960 960 960" width="40"><path d="M481-120q-14.333 0-23.833-9.5-9.5-9.5-9.5-23.833v-51.334q-47-8.666-81-34.333-34-25.667-53.667-67.333-5.666-12-.166-25.167 5.499-13.166 19.166-18.833 12-5.333 24.667.167 12.666 5.5 19.333 17.833 17.667 32.667 45.667 49.167t66 16.5q45.666 0 75.833-22.167T593.667-352q0-41-25.667-63.833Q542.333-438.667 465-464q-76.666-24.333-111-62.167Q319.667-564 319.667-620q0-58.333 37.666-95 37.667-36.667 90.334-41.667v-50q0-14.333 9.5-23.833 9.5-9.5 23.833-9.5 14.333 0 23.833 9.5 9.5 9.5 9.5 23.833v50q36.667 5.334 65 22.834t47 44.5q7.667 11 3.167 23.999-4.5 13-18.167 18.667-12 5.333-25 .833t-22.666-16.5Q550-679 530.5-687.167q-19.5-8.167-47.5-8.167-45.333 0-71 20.5t-25.667 54.167q0 36.334 30 58.334T525-516.667q68.333 20.667 101.833 61.5 33.5 40.834 33.5 99.834 0 65.666-38.666 103.666-38.667 38-107.334 48.334v50q0 14.333-9.5 23.833-9.5 9.5-23.833 9.5Z"/></svg>