<svg xmlns="http://www.w3.org/2000/svg" height="40" viewBox="0 -960 960 960" width="40"><path d="m435.333-598 42-116.667h5.334L525.333-598h-90ZM480-374.667q-98 0-165.333-67.333-67.333-67.334-67.333-165.334 0-97.999 67.333-165.333Q382-840 480-840t165.333 67.333q67.333 67.334 67.333 165.333 0 98-67.333 165.334Q578-374.667 480-374.667ZM422.526-562h114.807L559-502.667q2 6.333 7.613 9.833t12.161 3.5q11.226 0 17.059-8.833 5.834-8.833 1.5-19.167L506.667-755q-2-5.667-7.2-9.334-5.2-3.666-12.134-3.666h-15.23q-6.77 0-12.103 3.666-5.333 3.667-7.333 9.334l-91 237.666q-4 10.267 2.214 19.134 6.214 8.866 17.452 8.866 6.667 0 12.167-3.644T401-503l21.526-59ZM153.216-80Q139-80 129.5-89.583q-9.5-9.584-9.5-23.75v-125.334q0-14.166 9.617-23.749Q139.234-272 153.45-272q14.216 0 23.716 9.584 9.5 9.583 9.5 23.749v125.334q0 14.166-9.617 23.75Q167.432-80 153.216-80Zm133.333 0q-14.217 0-23.717-9.583-9.499-9.584-9.499-23.75v-125.334q0-14.166 9.616-23.749Q272.566-272 286.783-272q14.216 0 23.716 9.584 9.5 9.583 9.5 23.749v125.334q0 14.166-9.617 23.75Q300.765-80 286.549-80Zm133.332 0q-14.216 0-23.716-9.583-9.5-9.584-9.5-23.75v-125.334q0-14.166 9.617-23.749Q405.899-272 420.115-272q14.216 0 23.716 9.584 9.5 9.583 9.5 23.749v125.334q0 14.166-9.617 23.75Q434.098-80 419.881-80Zm133.45 0q-14.167 0-23.75-9.583-9.583-9.584-9.583-23.75v-125.334q0-14.166 9.583-23.749 9.583-9.584 23.75-9.584h253.336q14.166 0 23.75 9.584Q840-252.833 840-238.667v125.334q0 14.166-9.583 23.75Q820.833-80 806.667-80H553.331Z"/></svg>