<svg xmlns="http://www.w3.org/2000/svg" height="40" viewBox="0 -960 960 960" width="40"><path d="M443.667-433.667 601-539q11.333-7.537 11.333-20.935T601-581L443.667-686.333Q431.333-695 418-687.795q-13.333 7.205-13.333 22.462V-454q0 15.333 13.333 22.167 13.333 6.833 25.667-1.834ZM240-240 136.666-136.666Q121-121 100.5-129.604 80-138.208 80-160.333v-653.001q0-27 19.833-46.833T146.666-880h666.668q27 0 46.833 19.833T880-813.334v506.668q0 27-19.833 46.833T813.334-240H240Zm-28.667-66.666h602.001v-506.668H146.666v575.002l64.667-68.334Zm-64.667 0v-506.668 506.668Z"/></svg>