<svg xmlns="http://www.w3.org/2000/svg" height="40" viewBox="0 -960 960 960" width="40"><path d="M279.999-279.999h233.334v-233.334H279.999v233.334Zm0-300h533.335v-233.335H279.999v233.335Zm300 300h233.335v-233.334H579.999v233.334Zm-300 66.666q-27 0-46.833-19.833t-19.833-46.833v-533.335q0-27 19.833-46.833T279.999-880h533.335q27 0 46.833 19.833T880-813.334v533.335q0 27-19.833 46.833t-46.833 19.833H279.999ZM146.666-80q-27 0-46.833-19.833T80-146.666v-566.668q0-14.167 9.617-23.75t23.833-9.583q14.216 0 23.716 9.583 9.5 9.583 9.5 23.75v566.668h566.668q14.167 0 23.75 9.617t9.583 23.833q0 14.216-9.583 23.716-9.583 9.5-23.75 9.5H146.666Z"/></svg>