<svg xmlns="http://www.w3.org/2000/svg" height="40" viewBox="0 -960 960 960" width="40"><path d="M146.666-685.667v132.334q0 14.166-9.617 23.75Q127.432-520 113.216-520 99-520 89.5-529.583q-9.5-9.584-9.5-23.75v-213.334q0-14.166 9.583-23.75Q99.167-800 113.333-800h213.334q14.166 0 23.75 9.617Q360-780.766 360-766.55q0 14.216-9.583 23.716-9.584 9.5-23.75 9.5H193.333l167 167.001q10.154 10 10.577 23.333.423 13.333-9.612 23.333-10.035 10-23.833 10-13.798 0-23.798-10l-167.001-166Zm0 525.667q-27 0-46.833-19.833T80-226.666v-186.668q0-14.166 9.617-23.75 9.617-9.583 23.833-9.583 14.216 0 23.716 9.583 9.5 9.584 9.5 23.75v186.668h300.001q14.166 0 23.75 9.617Q480-207.432 480-193.216q0 14.216-9.583 23.716-9.584 9.5-23.75 9.5H146.666ZM846.55-440q-14.216 0-23.716-9.583-9.5-9.584-9.5-23.75v-260.001H466.666q-14.166 0-23.75-9.617-9.583-9.617-9.583-23.833 0-14.216 9.583-23.716 9.584-9.5 23.75-9.5h346.668q27 0 46.833 19.833T880-733.334v260.001q0 14.166-9.617 23.75Q860.766-440 846.55-440ZM579.999-160q-14.166 0-23.749-9.583-9.584-9.584-9.584-23.75v-146.668q0-14.166 9.584-23.749 9.583-9.584 23.749-9.584h266.668q14.166 0 23.75 9.584Q880-354.167 880-340.001v146.668q0 14.166-9.583 23.75-9.584 9.583-23.75 9.583H579.999Z"/></svg>