<svg xmlns="http://www.w3.org/2000/svg" height="40" viewBox="0 -960 960 960" width="40"><path d="M508.667-40Q419.333-40 343-84.167 266.666-128.334 219.333-204L69-442.667Q63.334-452 64.5-462.5q1.167-10.5 9.167-18.5l2-2Q93-500.667 117.5-502.667t44.5 12.334L280-405v-401.667q0-13.666 9.5-23.5Q299-840 313.333-840q13.667 0 23.5 9.833 9.833 9.834 9.833 23.5v466q0 20.667-18.166 29.833-18.167 9.167-34.833-2.833l-115.668-84.334 97 155.334q37 63 99 99.5Q436-106.666 508.667-106.666q109.666 0 187.167-76.167Q773.334-259 773.334-368v-398.667q0-13.666 9.5-23.5 9.5-9.833 23.833-9.833 13.666 0 23.5 9.833 9.833 9.834 9.833 23.5V-368q0 137-96.833 232.5Q646.333-40 508.667-40ZM478-920q14.333 0 23.833 9.833 9.5 9.834 9.5 23.5V-520q0 14.333-9.5 23.833-9.5 9.5-23.833 9.5-14.333 0-23.833-9.5-9.5-9.5-9.5-23.833v-366.667q0-13.666 9.833-23.5Q464.333-920 478-920Zm164.667 40q13.666 0 23.5 9.833 9.833 9.834 9.833 23.5V-520q0 14.333-9.5 23.833-9.5 9.5-23.833 9.5-14.334 0-23.833-9.5-9.5-9.5-9.5-23.833v-326.667q0-13.666 9.5-23.5Q628.333-880 642.667-880ZM476-296.667Z"/></svg>