<svg xmlns="http://www.w3.org/2000/svg" height="40" viewBox="0 -960 960 960" width="40"><path d="M726.608-160q-30.274 0-51.774-21.542-21.5-21.541-21.5-51.791v-133.334q0-30.25 21.559-51.791Q696.452-440 726.726-440 757-440 778.5-418.458q21.5 21.541 21.5 51.791v133.334q0 30.25-21.559 51.791Q756.882-160 726.608-160Zm-246.667 0q-30.274 0-51.774-21.542-21.5-21.541-21.5-51.791v-493.334q0-30.25 21.559-51.791Q449.785-800 480.059-800q30.274 0 51.774 21.542 21.5 21.541 21.5 51.791v493.334q0 30.25-21.559 51.791Q510.215-160 479.941-160Zm-246.667 0Q203-160 181.5-181.542 160-203.083 160-233.333v-293.334q0-30.25 21.559-51.791Q203.118-600 233.392-600q30.274 0 51.774 21.542 21.5 21.541 21.5 51.791v293.334q0 30.25-21.559 51.791Q263.548-160 233.274-160Z"/></svg>