<svg xmlns="http://www.w3.org/2000/svg" height="40" viewBox="0 -960 960 960" width="40"><path d="M313.333-80Q299-80 289.5-89.5 280-99 280-113.333v-664.001q0-14.333 9.5-23.833 9.5-9.5 23.833-9.5H400v-36q0-14.333 9.5-23.833 9.5-9.5 23.833-9.5h93.334q14.333 0 23.833 9.5 9.5 9.5 9.5 23.833v36h86.667q14.333 0 23.833 9.5 9.5 9.5 9.5 23.833v664.001Q680-99 670.5-89.5 661-80 646.667-80H313.333Zm33.333-66.666h266.668v-597.335H346.666v597.335Zm0 0h266.668-266.668Zm60.001-229.667q0 20.999 8.167 40.833Q423-315.667 437.667-301l9 9q9.666 9.666 23.166 9.666t23.5-9.666q10-10 10-23.833 0-13.834-10-23.834l-9-9q-5.666-5.666-8.333-12.5-2.667-6.833-2.667-14.166 0-7.667 2.667-14.834T484.333-403l38-38q14.667-14.667 22.834-33.667 8.166-19 8.166-39.666 0-21-8.166-40.834Q537-575 522.333-589.667l-10-10q-10-10-23.333-9.5-13.333.5-23.333 10.5-9.667 10-9.833 23.334Q455.667-562 465.667-552l9 9q5.666 5.666 8.833 12.833t3.167 14.834q0 7.333-3.167 14.166-3.167 6.834-8.833 12.5l-37 38Q423-436 414.834-416.667q-8.167 19.334-8.167 40.334Z"/></svg>