<svg xmlns="http://www.w3.org/2000/svg" height="40" viewBox="0 -960 960 960" width="40"><path d="M766-150 555.333-360.667Q545-371 545-385.334q0-14.333 10.333-24.666 10.334-10.334 24.667-10.334 14.333 0 24.666 10.334l210.667 210.667q10.334 10.333 10.334 24.666 0 14.334-10.334 24.667-10.333 10.333-24.666 10.333T766-150Zm-573-60q-37-52.666-55-112.167-18-59.5-18-120.5 0-78 29-152T237.333-728q59.334-59.333 133.834-88.5t152.5-29.167q61 0 120.167 17.834Q703-810 755.334-773q18.999 13.333 20.333 36.333 1.333 22.999-16 40.332L268.999-205.666q-17.333 17.333-40.166 15.999Q206-191 193-210Zm40.333-55.333 64-64.667q-16-21.667-31.5-46-15.5-24.334-28.5-50.667-13-26.334-22-54-9-27.667-13.333-56.001-21.667 69-12.834 140.001 8.834 71 44.167 131.334Zm115.333-113.334 238.001-240q-45-35-91.167-55.5T408-701.5q-41.334-6.834-73.834-.834T284-678.667q-17.667 18-22.667 50.5t2.5 73q7.5 40.5 28.667 85.834 21.166 45.333 56.166 90.666ZM702-732.001q-61.667-38.666-133-46.666-71.334-8-140.334 15.333Q455.999-759 482.999-750t53.334 21.166q26.333 12.167 51.167 27.667 24.833 15.5 47.833 33.167L702-732.001Z"/></svg>