<svg xmlns="http://www.w3.org/2000/svg" height="40" viewBox="0 -960 960 960" width="40"><path d="M80-233.333V-450q0-25.667 10.333-47.667 10.334-22 29.667-37v-114.667Q120-696 152-728t78.666-32H404q22.333 0 41.667 9.5Q465-741 480-724.667 495-741 514-750.5t41.333-9.5h173.334q46.666 0 79 32Q840-696 840-649.334v114.667q19.333 15 29.667 37Q880-475.667 880-450v216.667q0 14.333-9.5 23.833-9.5 9.5-23.833 9.5-14.333 0-23.833-9.5-9.5-9.5-9.5-23.833V-280H146.666v46.667q0 14.333-9.5 23.833-9.5 9.5-23.833 9.5Q99-200 89.5-209.5 80-219 80-233.333Zm433.333-323.334h260.001v-92.667q0-19-12.834-31.5-12.833-12.5-31.833-12.5H553.333q-17 0-28.5 13.167t-11.5 30.833v92.667Zm-326.667 0h260.001v-92.667q0-17.666-11.5-30.833-11.5-13.167-28.5-13.167H230.666q-18.333 0-31.166 12.834-12.834 12.833-12.834 31.166v92.667Zm-40 210.001h666.668V-450q0-17-11.5-28.5t-28.5-11.5H186.666q-17 0-28.5 11.5t-11.5 28.5v103.334Zm666.668 0H146.666h666.668Z"/></svg>