<svg xmlns="http://www.w3.org/2000/svg" height="40" viewBox="0 -960 960 960" width="40"><path d="M481.077-226q73.59 0 142.09-24.333t124.5-71.333q11-9.172 12-22.419 1-13.248-8.667-21.581-9.666-8.334-21.833-8.167-12.167.167-22.833 8.167-6.334 5-12.5 8.666-6.167 3.667-12.5 7.667l-38.667-70v-102H670q7.2 0 12.6-5.429 5.4-5.428 5.4-12.667 0-7.238-5.4-12.571-5.4-5.333-12.6-5.333H452.667L388-668.667q-4.143-7.5-12.015-12.083-7.871-4.583-16.985-4.583h-89q-6 0-8 5.833t3.333 9.5l16 11.333-50 54.334q-7 7.423-7 17.166T231.667-570l4.666 4.666q6.462 6.482 15.231 7.408 8.769.926 16.769-4.074l49-33.334v176.001l-38 70Q272-353.333 265-358q-7-4.666-13.334-9.666-9.666-8-21.833-7-12.167 1-20.794 8.686-9.706 8.647-9.206 21.4.5 12.752 10.5 20.914 57.333 48 126.718 72.833T481.077-226Zm.59-59.333q-39.667 0-79.5-8.167-39.834-8.166-78.834-29.166l42-70.001q29.334 11.334 57.951 16.834 28.618 5.5 56.716 5.5 28.667 0 57-5.5t57.667-16.834l42 70.001q-39 19.666-77.167 28.5-38.167 8.833-77.833 8.833ZM146.666-80q-27 0-46.833-19.833T80-146.666v-666.668q0-27 19.833-46.833T146.666-880h666.668q27 0 46.833 19.833T880-813.334v666.668q0 27-19.833 46.833T813.334-80H146.666Zm0-66.666h666.668v-666.668H146.666v666.668Zm0 0v-666.668 666.668Z"/></svg>