<svg xmlns="http://www.w3.org/2000/svg" height="40" viewBox="0 -960 960 960" width="40"><path d="M146.666-200q-27 0-46.833-19.833T80-266.666v-426.668q0-27 19.833-46.833T146.666-760h666.668q27 0 46.833 19.833T880-693.334v426.668q0 27-19.833 46.833T813.334-200H146.666Zm406.667-313.333h260.001v-180.001H553.333v180.001ZM146.666-266.666h340.001v-426.668H146.666v426.668ZM320-426.667q-21.667 0-37.5-15.833-15.833-15.833-15.833-37.833t15.833-37.5q15.833-15.5 37.833-15.5t37.5 15.555q15.5 15.556 15.5 37.778 0 21.667-15.555 37.5-15.556 15.833-37.778 15.833Zm233.333 160.001h260.001v-180.001H553.333v180.001Z"/></svg>