<svg xmlns="http://www.w3.org/2000/svg" height="40" viewBox="0 -960 960 960" width="40"><path d="M480-80q-137 0-228.5-94T160-408q0-63.333 28.667-126.028 28.666-62.695 71.666-120.333 43-57.639 93-107.972 50-50.334 93.334-88.667 7.333-6.667 15.88-9.5 8.546-2.833 17.5-2.833 8.953 0 17.453 2.833t15.833 9.5q43.334 38.333 93.41 88.801 50.077 50.467 93.001 108Q742.667-596.667 771.333-534 800-471.333 800-408q0 140-91.5 234T480-80Zm0-66.666q109.333 0 181.334-74.5 72-74.501 72-187.049 0-76.785-64.5-174.452Q604.333-680.334 480-791.334q-124.333 111-188.834 208.667-64.5 97.667-64.5 174.452 0 112.548 72 187.049 72.001 74.5 181.334 74.5ZM480-480Zm-86.667 226.666h173.334q14.166 0 23.75-9.617Q600-272.568 600-286.784q0-14.216-9.583-23.716-9.584-9.5-23.75-9.5H393.333q-14.166 0-23.75 9.617Q360-300.766 360-286.55q0 14.216 9.583 23.716 9.584 9.5 23.75 9.5Zm53.334-193.333v53.334q0 14.166 9.617 23.75Q465.901-360 480.117-360q14.216 0 23.716-9.583 9.5-9.584 9.5-23.75v-53.334h53.334q14.166 0 23.75-9.617Q600-465.901 600-480.117q0-14.216-9.583-23.716-9.584-9.5-23.75-9.5h-53.334v-53.334q0-14.166-9.617-23.75Q494.099-600 479.883-600q-14.216 0-23.716 9.583-9.5 9.584-9.5 23.75v53.334h-53.334q-14.166 0-23.75 9.617Q360-494.099 360-479.883q0 14.216 9.583 23.716 9.584 9.5 23.75 9.5h53.334Z"/></svg>