<svg xmlns="http://www.w3.org/2000/svg" height="40" viewBox="0 -960 960 960" width="40"><path d="M360-320q-17 0-28.5-11.5T320-360v-67q0-5 3.833-9.333 3.834-4.334 9.167-5.667 12-4.111 19.5-14.389Q360-466.667 360-480t-7.5-23.611Q345-513.889 333-518q-5-1.333-9-5.538-4-4.206-4-9.462v-67q0-17 11.5-28.5T360-640h240q17 0 28.5 11.5T640-600v67q0 5-3.833 9.333-3.834 4.334-9.167 5.667-12 4.111-19.5 14.389Q600-493.333 600-480t7.5 23.611Q615-446.111 627-442q5 1.333 9 5.538 4 4.206 4 9.462v67q0 17-11.5 28.5T600-320H360Zm120-60q8 0 14-6t6-14q0-8-6-14t-14-6q-8 0-14 6t-6 14q0 8 6 14t14 6Zm0-80q8 0 14-6t6-14q0-8-6-14t-14-6q-8 0-14 6t-6 14q0 8 6 14t14 6Zm0-80q8 0 14-6t6-14q0-8-6-14t-14-6q-8 0-14 6t-6 14q0 8 6 14t14 6ZM266.666-40q-27 0-46.833-19.833T200-106.666v-746.668q0-27 19.833-46.833T266.666-920h426.668q27 0 46.833 19.833T760-853.334v746.668q0 27-19.833 46.833T693.334-40H266.666Zm0-99.999v33.333h426.668v-33.333H266.666Zm0-66.667h426.668v-546.668H266.666v546.668Zm0-613.335h426.668v-33.333H266.666v33.333Zm0 0v-33.333 33.333Zm0 680.002v33.333-33.333Z"/></svg>