<svg xmlns="http://www.w3.org/2000/svg" height="40" viewBox="0 -960 960 960" width="40"><path d="M806.55-610q-14.216 0-23.716-9.617-9.5-9.617-9.5-23.833 0-14.217 9.617-23.717 9.617-9.5 23.833-9.5 14.216 0 23.716 9.617 9.5 9.617 9.5 23.834 0 14.216-9.617 23.716-9.617 9.5-23.833 9.5Zm0 163.333q-14.216 0-23.716-9.617-9.5-9.617-9.5-23.833 0-14.216 9.617-23.716 9.617-9.5 23.833-9.5 14.216 0 23.716 9.617 9.5 9.617 9.5 23.833 0 14.216-9.617 23.716-9.617 9.5-23.833 9.5Zm0 163.334q-14.216 0-23.716-9.617-9.5-9.617-9.5-23.834 0-14.216 9.617-23.716 9.617-9.5 23.833-9.5 14.216 0 23.716 9.617 9.5 9.617 9.5 23.833 0 14.217-9.617 23.717-9.617 9.5-23.833 9.5ZM316.55-120q-14.217 0-23.717-9.617-9.5-9.617-9.5-23.833 0-14.216 9.617-23.716 9.617-9.5 23.834-9.5 14.216 0 23.716 9.617 9.5 9.617 9.5 23.833 0 14.216-9.617 23.716-9.617 9.5-23.833 9.5Zm163.333 0q-14.216 0-23.716-9.617-9.5-9.617-9.5-23.833 0-14.216 9.617-23.716 9.617-9.5 23.833-9.5 14.216 0 23.716 9.617 9.5 9.617 9.5 23.833 0 14.216-9.617 23.716-9.617 9.5-23.833 9.5Zm163.333 0Q629-120 619.5-129.617q-9.5-9.617-9.5-23.833 0-14.216 9.617-23.716 9.617-9.5 23.833-9.5 14.217 0 23.717 9.617 9.5 9.617 9.5 23.833 0 14.216-9.617 23.716-9.617 9.5-23.834 9.5Zm163.334 0q-14.216 0-23.716-9.617-9.5-9.617-9.5-23.833 0-14.216 9.617-23.716 9.617-9.5 23.833-9.5 14.216 0 23.716 9.617 9.5 9.617 9.5 23.833 0 14.216-9.617 23.716-9.617 9.5-23.833 9.5ZM120-153.333v-620.001q0-27.5 19.583-47.083T186.666-840h620.001q14.166 0 23.75 9.617Q840-820.766 840-806.55q0 14.216-9.583 23.716-9.584 9.5-23.75 9.5H186.666v620.001q0 14.166-9.617 23.75Q167.432-120 153.216-120 139-120 129.5-129.583q-9.5-9.584-9.5-23.75Z"/></svg>