<svg xmlns="http://www.w3.org/2000/svg" height="40" viewBox="0 -960 960 960" width="40"><path d="M193.333-813.334q-14.333 0-23.833-9.5-9.5-9.5-9.5-23.833 0-14.333 9.5-23.833 9.5-9.5 23.833-9.5h620.001q27 0 46.833 19.833T880-813.334V-705q0 16.667-10.5 24.834Q859-672 846.667-672q-12.333 0-22.833-8.5-10.5-8.5-10.5-24.5v-108.334H193.333Zm-80 573.334Q99-240 89.5-249.833q-9.5-9.834-9.5-23.5v-360q0-14.333 9.5-23.833 9.5-9.5 23.833-9.5h200q13.667 0 23.5 9.5t9.833 23.833v360q0 13.666-9.833 23.5Q327-240 313.333-240h-200Zm550.001 56.667v-180q-9-6.667-14.5-16.167-5.5-9.5-5.5-20.5 0-18.333 12.666-30.833 12.667-12.5 30.667-12.5 18.333 0 30.833 12.5T730-400q0 11-4.833 20.667-4.834 9.666-15.167 16v180q0 9.666-6.833 16.5-6.834 6.833-16.5 6.833-9.667 0-16.5-6.833-6.833-6.834-6.833-16.5Zm23.333-323.334q-44 0-75.334 31Q580-444.667 580-400q0 16.667 5.833 32.667 5.834 16 15.834 29 5.333 7.667 5.5 17.167.167 9.499-6.167 16.499-7 7-16.833 6.834-9.833-.167-16.166-7.5-16.667-20-25.667-44.334-9-24.333-9-50.333 0-64.333 45-108.833t108.333-44.5q64.333 0 108.833 44.5T840-400q0 25.667-8.167 50.333Q823.667-325 807-305q-6.333 8-16.333 7.833-10-.166-17-7.166-7-6-7-15.5T772-337.666q10-13.667 15.667-29.667T793.334-400q0-44.667-31-75.667t-75.667-31Zm0-100q-85.667 0-146.167 60T480-400q0 36.667 13.167 71 13.166 34.334 36.833 61.667 6.667 7.667 6.667 17.5t-7 16.833q-7 7-16.667 6.333-9.666-.666-16.333-8-30-35-46.667-77.166Q433.334-354 433.334-400q0-106.333 74-179.833t179.333-73.5q106.333 0 179.833 73.5T940-400q0 46-16 88.5t-46.334 76.833q-6.666 7.334-16.499 7.334-9.834 0-16.834-7t-6.666-16.333q.333-9.334 7-17 23.667-27.334 36.167-61.5 12.5-34.167 12.5-70.834 0-86.667-60-146.667t-146.667-60ZM146.666-306.666H280V-600H146.666v293.334Zm0 0H280 146.666Z"/></svg>