<svg xmlns="http://www.w3.org/2000/svg" height="40" viewBox="0 -960 960 960" width="40"><path d="M483.666-601.333h307.668q-27.667-72.334-86.834-126.501Q645.334-782 569.333-802.667L469.333-626q-5.333 8.667 0 16.667 5.334 8 14.333 8ZM347.667-544q5 8.667 14.166 8.667 9.167 0 14.5-8.667l155.001-266.667q-11.667-1.333-25.334-2t-26-.667q-70 0-129 25.667t-105.667 70.333L347.667-544ZM156.514-395.333h201.819q9.167 0 14.584-8 5.416-8 .083-16.667L220.666-689.334q-36 43.667-55 97.167t-19 112.167q0 21 2.167 42.833 2.167 21.834 7.681 41.834ZM391.333-158 493-333.333q5.334-8.667.167-17-5.167-8.334-14.833-8.334H169.333q27.667 72.334 86.5 126.501Q314.666-178 391.333-158Zm88.718 11.334q69.949 0 129.282-25.667Q668.667-198 714.667-242.666L613-416q-5-8.667-14.167-8.667-9.166 0-14.5 8.667L428.666-149.333q12.334 1.333 25.501 2 13.166.667 25.884.667Zm259.949-124q33.334-41.667 53.334-96.167t20-112.925q0-21.909-2.167-43.409T804-565.333H602.333q-9 0-14.833 7.999-5.833 8-.5 16.667l153 270.001ZM480-480Zm0 400q-82 0-155-31.5t-127.5-86Q143-252 111.5-325T80-480q0-83 31.5-155.5t86-127Q252-817 325-848.5T480-880q83 0 155.5 31.5t127 86q54.5 54.5 86 127T880-480q0 82-31.5 155t-86 127.5q-54.5 54.5-127 86T480-80Z"/></svg>