<svg xmlns="http://www.w3.org/2000/svg" height="40" viewBox="0 -960 960 960" width="40"><path d="M404.001-160H233.333q-14.166 0-23.75-9.617Q200-179.234 200-193.45q0-14.216 9.583-23.716 9.584-9.5 23.75-9.5h172.001l-30.667-30.667Q365-267 365-280.667q0-13.666 9.667-23.333 9.667-9.666 23.666-9.666 14 0 23.667 9.666l87.333 86.667q10 10 10 23.333 0 13.333-10 23.333L422-83.333q-9.667 9.666-23.333 9.333-13.667-.333-23.333-10-9.667-9.666-9.667-23.666t9.667-23.667L404.001-160ZM200-813.334q0-27 19.833-46.833T266.666-880h426.668q27 0 46.833 19.833T760-813.334V-308q0 14.167-9.617 23.75t-23.833 9.583q-14.216 0-23.716-9.583-9.5-9.583-9.5-23.75v-42.667q-42.667-27-95.167-40.833-52.5-13.833-118.167-13.833T362.166-391.5q-52.166 13.833-95.5 40.833V-308q0 14.167-9.617 23.75t-23.833 9.583q-14.216 0-23.716-9.583-9.5-9.583-9.5-23.75v-505.334ZM266.666-426q50.667-23 104.5-34.5Q425-472 480-472t108.664 11.5q53.663 11.5 104.67 34.5v-387.334H266.666V-426Zm326.667 266q-14.166 0-23.75-9.617Q560-179.234 560-193.45q0-14.216 9.583-23.716 9.584-9.5 23.75-9.5h133.334q14.166 0 23.75 9.617Q760-207.432 760-193.216q0 14.216-9.583 23.716-9.584 9.5-23.75 9.5H593.333ZM480-405.333ZM479.843-524q-47.843 0-81.176-33.49-33.334-33.49-33.334-81.333 0-47.844 33.491-81.177 33.49-33.333 81.333-33.333 47.843 0 81.176 33.49 33.334 33.49 33.334 81.333 0 47.843-33.491 81.177Q527.686-524 479.843-524Zm.11-66.666q20.38 0 34.214-13.787Q528-618.24 528-638.62q0-20.38-13.786-34.213-13.787-13.834-34.167-13.834-20.38 0-34.214 13.787Q432-659.094 432-638.713q0 20.38 13.786 34.213 13.787 13.834 34.167 13.834Zm.047-48.001Z"/></svg>