<svg xmlns="http://www.w3.org/2000/svg" height="40" viewBox="0 -960 960 960" width="40"><path d="M616.333-102q-9.166 9.087-21.25 14.044Q583-83 569.667-83t-25.894-4.956Q531.212-92.913 522-102l-71.333-70.667q-9-9-13.889-20.305Q431.889-204.276 431-216q-1-12 2.833-23.333 3.834-11.333 11.5-22L458-278 123.333-752.667 270.666-900l525.001 524.334q9.666 9.666 14.666 21.833 5 12.167 5 24.833 0 12.667-5 25.333-5 12.667-14.666 22.334L616.333-102Zm-110-223L628-447 270.666-805.667 209.999-745l296.334 420ZM569-149l179.667-179.667L676-401 496.666-221 569-149Zm-62.667-176L628-447 506.333-325Z"/></svg>