<svg xmlns="http://www.w3.org/2000/svg" height="40" viewBox="0 -960 960 960" width="40"><path d="M136-560q0 56.333 20.5 115.167Q177-386 216.333-338.666q8.334 9 9 20.833.667 11.833-8 20.5-8.666 8.666-20.5 8Q185-290 177.333-299 128-356 104-423.667 80-491.333 80-560t24-136.333Q128-764 177.333-821q7.667-9 19.167-10 11.5-1 20.167 7.667 8.666 8.666 8.333 20.833-.333 12.166-8.667 21.166Q177-734 156.5-675.167 136-616.333 136-560Zm132 0q0 29.667 11.666 64.333Q291.333-461 312-431.666q6.666 9.666 7 21 .333 11.333-8.333 19.999Q302-382 290.333-382.5 278.667-383 271-392q-30-36.667-44.5-81.167T212-560q0-42.333 14.5-86.833T271-728q7.667-9 19-9.5t20 8.167q8.666 8.666 8.5 19.999Q318.333-698 311.667-689q-21.001 27.666-32.334 62.167Q268-592.333 268-560Zm116.333 393.333-22 65.334Q359-92.333 351-86.167 343-80 333-80q-16 0-25.667-12.833-9.666-12.834-4.333-28.5L423-485q-16.666-12.667-26.833-31.667Q386-535.667 386-560q0-39.333 27.333-66.667Q440.667-654 480-654t66.667 27.333Q574-599.333 574-560q0 24.333-10.167 43.333T537-485l120 363.667Q662.333-106 652.833-93q-9.5 13-25.5 13-10 0-18.166-5.667-8.167-5.666-11.5-15.666l-21-65.334H384.333Zm21.333-66.666h148.668L480-458.667l-74.334 225.334ZM692-560q0-29.667-11.666-64.333Q668.667-659 648-688.334q-6.666-9.666-6.666-21 0-11.333 8.666-19.999 8.667-8.667 20.167-8.167 11.5.5 18.833 9.5 29 36.667 43.667 81.167Q747.333-602.333 748-560q0 42.333-14.833 86.833Q718.333-428.667 689-392q-7.667 9-19 9.5t-20-8.167q-8.666-8.666-8.5-19.999.167-11.334 6.833-20.334 21.001-27.666 32.334-62.166Q692-527.667 692-560Zm132 0q0-56.333-20.5-115.167Q783-734 743.667-781.334q-8.334-9-9-20.833-.667-11.833 8-20.5 8.666-8.666 20.5-8Q775-830 782.667-821 832-764 856-696.333 880-628.667 880-560q0 69.333-22.833 136.667Q834.333-356 783.667-299q-8.667 9-20 9.833-11.334.834-20.334-8.166-8.666-8.667-8.333-20.5.333-11.833 8.667-20.833Q783-386 803.5-444.833 824-503.667 824-560Z"/></svg>