<svg xmlns="http://www.w3.org/2000/svg" height="40" viewBox="0 -960 960 960" width="40"><path d="M706.667-666.667H666l-45.333 45.334q-5.334 5.333-11.334 5-6-.334-11.333-5.667t-5.333-11.667q0-6.333 5.333-11.666l21.334-21.334h-36.001q-6.666 0-11.666-5t-5-11.666q0-6.667 5-11.667t11.666-5h36.001l-22.001-22Q592-727.333 592-733.667q0-6.333 5.333-11.666 5.334-5.334 12-5.334 6.667 0 12 5.334L666-700.667h40.667v-40L661.333-786q-5.333-5.333-5-11.667.334-6.333 5.667-11.666 5.333-5.334 11.667-5.334 6.333 0 11.666 5.334l21.334 22v-36q0-6.667 5-11.667t11.666-5Q730-840 735-835t5 11.667v36l22-22q5.333-5.334 11.667-5.334 6.333 0 11.666 5.334 5.334 5.333 5.334 11.666 0 6.334-5.334 11.667L740-740.667V-700h40.667L826-745.333q5.333-5.334 11.667-5.334 6.333 0 11.666 5.334 5.334 5.333 5.334 11.666 0 6.334-5.334 11.667l-22 22h36Q870-700 875-695t5 11.667q0 6.666-5 11.666t-11.667 5h-36l22 22q5.334 5.334 5.334 11.334T849.333-622q-5.333 5.333-11.666 5.333-6.334 0-11.667-5.333l-45.333-44.667H740V-626l45.333 45.333q5.334 5.334 5.334 11.334T785.333-558q-5.333 5.333-11.666 5.333-6.334 0-11.667-5.333l-22-21.334v36.001q0 6.666-5 11.666t-11.667 5q-6.666 0-11.666-5t-5-11.666v-36.001l-22 22.001q-5.334 5.333-11.334 5-6-.334-11.333-5.667t-5.333-11.667q0-6.333 5.333-11.666L706.667-626v-40.667ZM629-327.333l-29-29.001v163.001q0 14.333-9.5 23.833-9.5 9.5-23.833 9.5H233.333Q219-160 209.5-169.5q-9.5-9.5-9.5-23.833v-164.001l-30 30.001q-9.667 9.666-23.334 9.666-13.666 0-23.333-9.666-9.666-9.667-9.666-23.333 0-13.667 9.666-23.334L353-603.667q19-19 47-19t47 19L676.667-374q9.666 9.667 9.666 23.167 0 13.5-9.666 23.5-10 10-23.833 10-13.834 0-23.834-10ZM266.666-226.666h100.001v-86.667q0-14.333 9.5-23.833 9.5-9.5 23.833-9.5 14.333 0 23.833 9.5 9.5 9.5 9.5 23.833v86.667h100.001V-423L400-556.334 266.666-423.667v197.001Zm0 0h266.668-266.668Z"/></svg>