<svg xmlns="http://www.w3.org/2000/svg" height="40" viewBox="0 -960 960 960" width="40"><path d="m480-513.334 80.667 80.667Q570.333-423 584-423q13.667 0 23.333-9.667Q617-442.333 617-456q0-13.667-9.667-23.333L526.666-560l80.667-80.667Q617-650.333 617-664q0-13.667-9.667-23.333Q597.667-697 584-697q-13.667 0-23.333 9.667L480-606.666l-80.667-80.667Q389.667-697 376-697q-13.667 0-23.333 9.667Q343-677.667 343-664q0 13.667 9.667 23.333L433.334-560l-80.667 80.667Q343-469.667 343-456q0 13.667 9.667 23.333Q362.333-423 376-423q13.667 0 23.333-9.667L480-513.334ZM240-240 136.666-136.666Q121-121 100.5-129.604 80-138.208 80-160.333v-653.001q0-27 19.833-46.833T146.666-880h666.668q27 0 46.833 19.833T880-813.334v506.668q0 27-19.833 46.833T813.334-240H240Zm-28.667-66.666h602.001v-506.668H146.666v575.002l64.667-68.334Zm-64.667 0v-506.668 506.668Z"/></svg>