<svg xmlns="http://www.w3.org/2000/svg" height="40" viewBox="0 -960 960 960" width="40"><path d="M213.333-226.666h533.334L480-435.334 213.333-226.666Zm199-462.667q-3.667 8.999-11.5 14.999t-18.833 6q-14.333 0-23.833-9.5-9.5-9.499-9.5-23.833 0-3.666.166-6.833.167-3.167 2.167-6.5 17-38 52-61.5t77-23.5q58 0 99 40.5t41 98.5q0 48.333-29.833 85.667Q560.333-538 513.333-524v30.667L866.667-220q6.666 5 10 11.834Q880-201.333 880-193.333q0 14.333-9.5 23.833-9.5 9.5-23.833 9.5H113.333Q99-160 89.5-169.5 80-179 80-193.333q0-8 3.333-14.833 3.334-6.834 10-11.834l353.334-273.333v-60q0-13.667 9.666-23.5 9.667-9.833 23.334-9.833 31 0 52.333-21.667Q553.334-630 553.334-661q0-30.333-21.5-51.334-21.501-21-51.834-21-22 0-40.334 11.834-18.333 11.833-27.333 32.167Z"/></svg>