<svg xmlns="http://www.w3.org/2000/svg" height="40" viewBox="0 -960 960 960" width="40"><path d="M259-200q-49.667 0-83.333-34-33.667-34-34.334-85-.666-51 33.334-85.167 34-34.166 84.333-34.166 51 0 84.333 34 33.334 34 33.334 85t-33.334 85.166Q310-200 259-200Zm-84-321q-9 0-15.5-6.333-6.5-6.334-6.5-15.334v-195.666q0-9 6.5-15.334Q166-760 175-760t15.333 6.333q6.333 6.334 6.333 15.334v195.666q0 9-6.333 15.334Q184-521 175-521Zm83.333 277.667q31.667 0 52.667-21.334 21-21.333 21-54.666 0-34-20.833-55.167-20.834-21.167-52.834-21.167-31.666 0-52 21.5Q186-352.667 186-319.333q0 32.666 20.333 54.333 20.334 21.667 52 21.667ZM275-521q-9 0-15.333-6.333-6.334-6.334-6.334-15.334v-194.666q0-9.334 6.667-16Q266.667-760 276-760h16q6.333 0 11.5 3.167 5.167 3.166 8.167 8.166l87.666 157.334-2-37.333v-109.667q0-9 6.334-15.334Q410-760 419-760t15.333 6.333q6.334 6.334 6.334 15.334v196.666q0 8.334-6.167 14.5Q428.333-521 420-521h-15q-5.333 0-10.167-3-4.833-3-7.833-8l-93.333-166 3 37.333v118q0 9-6.334 15.334Q284-521 275-521Zm235 321q-42 0-67-27t-25-71.333V-417q0-8.667 6.333-15 6.334-6.333 15.334-6.333 8.999 0 15.166 6.166Q461-426 461-417v122.333q0 22.334 13.833 37Q488.667-243 510-243q21.333 0 35-14.667 13.667-14.666 13.667-37V-417q0-8.667 6.333-15t15.333-6.333q9 0 15.167 6.166Q601.667-426 601.667-417v118.667q0 44.333-25.334 71.333Q551-200 510-200Zm220.333 0q-9 0-15.666-6.333Q708-212.667 708-221.667v-173.666h-45q-8.667 0-14.833-6.667Q642-408.667 642-417.333q0-8.667 6.167-14.834 6.166-6.166 14.833-6.166h134q8.667 0 14.833 6.166Q818-426 818-417.333q0 8.666-6.167 15.333-6.166 6.667-14.833 6.667h-45.333v174q0 8.666-6.167 15Q739.333-200 730.333-200Z"/></svg>