<svg xmlns="http://www.w3.org/2000/svg" height="40" viewBox="0 -960 960 960" width="40"><path d="M361-599.333 414.333-546h-121v132H388q0-9.667 6.381-16t15.953-6.333H419q9.571 0 15.952 6.381T441.333-414v20q0 14.167-9.583 23.75T408-360.667H273.333q-14.166 0-23.75-9.583Q240-379.833 240-394v-172q0-14.167 9.583-23.75 9.584-9.583 23.75-9.583H361Zm479-134.001v449.335q0 16.423-10.678 25.045-10.679 8.622-23 8.622-12.322 0-22.655-8.622-10.333-8.622-10.333-25.045v-449.335H323.666q-16.667 0-25-10.378-8.334-10.379-8.334-22.834 0-12.454 8.334-22.954 8.333-10.5 25-10.5h449.668q26.333 0 46.499 20.167Q840-759.667 840-733.334ZM720.667-396q0 11.667-6.834 20.167-6.833 8.5-17.833 10.166h-6L641.666-414h25.668q0-9.667 6.38-16 6.381-6.333 15.953-6.333h8.666q9.572 0 15.953 6.381T720.667-414v18Zm-33.333-203.333q14.166 0 23.749 9.583 9.584 9.583 9.584 23.75v20q0 9.571-6.381 15.952t-15.953 6.381h-8.666q-9.572 0-15.953-6.381-6.38-6.381-6.38-15.952h-94.668v63l-53.333-53.333V-566q0-14.167 9.584-23.75 9.583-9.583 23.749-9.583h134.668ZM548-508Zm-135.333 55.333ZM186.666-160q-27 0-46.833-19.833T120-226.666v-506.668q0-21.614 12.833-38.473 12.834-16.86 31.834-23.86L227-733.334h-40.334v506.668h451.668L49.667-814.334q-10-10.044-10-23.855T49.702-862q10.035-10 23.833-10 13.798 0 23.798 10l754.334 754.333q10 10.045 10 23.856 0 13.81-10.035 23.81-10.035 10-23.833 10Q814-50 804-60L705.001-160H186.666Z"/></svg>