<svg xmlns="http://www.w3.org/2000/svg" height="40" viewBox="0 -960 960 960" width="40"><path d="M252-167.334q-89.333 0-150.667-60.666Q40-288.667 40-378q0-79 49.5-135t125.167-69.666q2.333-12 6.333-26.167 4-14.167 10.334-26.501L88.667-778Q79-787.667 79-801.334q0-13.666 9.667-23.333 9.666-9.666 23.333-9.666 13.667 0 23.333 9.666l698.001 698.001Q843-117 843.167-103.5q.167 13.5-9.833 23.5-9.667 9.667-23.5 9.833-13.833.167-23.833-9.5l-88.667-87.667H252ZM252-234h380.001L284.667-581.334q-8 13.667-10.667 29.667T271.333-520H252q-60.667 0-103 40-42.334 40-42.334 100.333 0 60.334 42.334 103Q191.333-234 252-234Zm205.667-174.334Zm399.666 203.667-50.666-49.999q22.333-16 34.5-36.167Q853.334-311 853.334-338q0-42.667-30.334-72.667-30.333-30-73-30h-64.667v-80.666q0-86.334-60.166-145.5Q565-726 478.982-726 451-726 421-717.833q-30 8.166-55.667 26.166L318-739q35.667-27.333 76.5-40.5 40.833-13.166 84.167-13.166 113 0 193.166 79.833Q752-633 752-520v14q71 2 119.5 49.833Q920-408.333 920-338q0 36.333-16 73.167-16 36.833-46.667 60.166ZM586.333-473Z"/></svg>