<svg xmlns="http://www.w3.org/2000/svg" height="40" viewBox="0 -960 960 960" width="40"><path d="M441.333-241.333q-116.333 0-198.833-80.53T160-518v-255.334q0-27.5 19.583-47.083T226.666-840H746q55.514 0 94.757 38.333Q880-763.333 880-708q0 59.333-38.333 103.667Q803.333-560 746-560h-23.333v42q0 115.607-82.5 196.137t-198.834 80.53ZM226.666-626.666H656v-146.668H226.666v146.668ZM441.333-308q88.334 0 151.501-60.833Q656-429.666 656-518v-42H226.666v42q0 88.334 63.167 149.167T441.333-308Zm281.334-318.666H746q30.334 0 48.834-24.834 18.5-24.833 18.5-56.5 0-27.667-19.834-46.5-19.833-18.834-47.5-18.834h-23.333v146.668ZM193.333-120q-14.166 0-23.75-9.617Q160-139.234 160-153.45q0-14.216 9.583-23.716 9.584-9.5 23.75-9.5h573.334q14.166 0 23.75 9.617Q800-167.432 800-153.216q0 14.216-9.583 23.716-9.584 9.5-23.75 9.5H193.333Zm248-440Z"/></svg>