<svg xmlns="http://www.w3.org/2000/svg" height="40" viewBox="0 -960 960 960" width="40"><path d="M778-313.333 796-254q2 6-1.5 10t-9.5 4h-7.666q-2.667 0-4.834-1.167-2.166-1.166-4.166-3.5L742-280H616l47 158.667q2.333 6.333-1.833 11.833Q657-104 650.334-104h-6q-3.667 0-6.5-1.667-2.834-1.666-4.834-4.666L532.667-280h-124q-14.333 0-23.833-9.5-9.5-9.5-9.5-23.833 0-14.333 9.5-23.833 9.5-9.5 23.833-9.5h124l100-168.667q2.333-3.667 5.667-5.5 3.333-1.833 7-1.833H648q7.667 0 12 5.666 4.333 5.667 2 13.333l-46 157.001h126l26-34.667q2.334-2.667 5-4 2.667-1.333 5.667-1.333H782q6.667 0 11 5.666 4.333 5.667 2 12l-17 55.667ZM182-646.667 164-706q-2-6 1.5-10t9.5-4h7.666q2.667 0 4.834 1.167 2.166 1.166 4.166 3.5L218-680h126l-47-158.667q-2.333-6.333 1.833-11.833Q303-856 309.666-856h6q3.667 0 6.5 1.667 2.834 1.666 4.834 4.666L427.333-680h124q14.333 0 23.833 9.5 9.5 9.5 9.5 23.833 0 14.333-9.5 23.833-9.5 9.5-23.833 9.5h-124l-100 168.667q-2.333 3.667-5.167 5.5-2.833 1.833-6.5 1.833h-6q-5.999 0-9.999-5.666-4-5.667-1.667-13.333l46-157.001H218l-26 34.667q-2.334 2.667-5 4-2.667 1.333-5.667 1.333H178q-6.667 0-11-5.666-4.333-5.667-2-12l17-55.667Z"/></svg>