<svg xmlns="http://www.w3.org/2000/svg" height="40" viewBox="0 -960 960 960" width="40"><path d="M480.333-246.667q97 0 165-68.333t68-165.333q0-97-68.055-165-68.056-68-165.278-68-96.667 0-165 68.055Q246.667-577.222 246.667-480q0 96.667 68.333 165t165.333 68.333Zm0-66.666q-69 0-118-48.959-49-48.958-49-117.708 0-69.333 48.959-118Q411.25-646.667 480-646.667q69.333 0 118 48.667t48.667 117.667q0 69-48.667 118t-117.667 49Zm-23.666-143.334Q466.333-447 480-447q13.667 0 23.333-9.667l56-56Q569-522.333 569-536q0-13.667-9.667-23.333Q549.667-569 536-569q-13.667 0-23.333 9.667l-56 56Q447-493.667 447-480q0 13.667 9.667 23.333ZM186.666-120q-27 0-46.833-19.833T120-186.666v-586.668q0-27 19.833-46.833T186.666-840h586.668q27 0 46.833 19.833T840-773.334v586.668q0 27-19.833 46.833T773.334-120H186.666Zm0-66.666h586.668v-586.668H186.666v586.668Zm0-586.668v586.668-586.668Z"/></svg>