<svg xmlns="http://www.w3.org/2000/svg" height="40" viewBox="0 -960 960 960" width="40"><path d="M480-80q-82.333 0-155.333-31.5t-127.334-85.833Q143-251.667 111.5-324.667T80-480q0-81.667 32.167-155.833Q144.333-710 200.166-766 256-822 331.333-853.333q75.333-31.334 161.999-27.334 26.334.667 42.001 14.167Q551-853 554.667-825.666q6 60 49.166 102.166Q647-681.333 706-675.333q21 2.333 32.666 14.667 11.667 12.333 15.334 36 4 34.666 25.833 59.999 21.833 25.334 55.167 39.334 25.333 11.666 35.833 28.833 10.5 17.167 7.834 43.168-4.001 76.999-37.001 144.999T755-189.5q-53.667 50.833-124.265 80.167Q560.138-80 480-80Zm0-66.666q135.334 0 229.5-90.334 94.167-90.333 104.5-225-52.666-20.667-84.5-59.667-31.833-39-40.5-88.667-79.667-11-135-68.666-55.333-57.667-65-135.334-76-2.666-139.166 25.667-63.167 28.333-108.334 75.833T171.5-604q-24.834 61.333-24.834 124 0 139 97.167 236.167T480-146.666Zm.667-338.001Zm-60.589-74q25.589 0 43.422-17.911 17.833-17.912 17.833-43.5 0-25.589-17.911-43.422-17.912-17.833-43.5-17.833-25.589 0-43.422 17.911-17.833 17.912-17.833 43.5 0 25.589 17.911 43.422 17.912 17.833 43.5 17.833Zm-80 200q25.589 0 43.422-17.911 17.833-17.912 17.833-43.5 0-25.589-17.911-43.422-17.912-17.833-43.5-17.833-25.589 0-43.422 17.911-17.833 17.912-17.833 43.5 0 25.589 17.911 43.422 17.912 17.833 43.5 17.833ZM600-320q17 0 28.5-11.5T640-360q0-17-11.5-28.5T600-400q-17 0-28.5 11.5T560-360q0 17 11.5 28.5T600-320Z"/></svg>