<svg xmlns="http://www.w3.org/2000/svg" height="40" viewBox="0 -960 960 960" width="40"><path d="M480.177-80q-82.822 0-155.666-31.5t-127.178-85.833Q143-251.667 111.5-324.56 80-397.454 80-480.333q0-82.88 31.5-155.773Q143-709 197.333-763q54.334-54 127.227-85.5Q397.454-880 480.333-880q82.88 0 155.773 31.5Q709-817 763-763t85.5 127Q880-563 880-480.177q0 82.822-31.5 155.666T763-197.456q-54 54.21-127 85.833Q563-80 480.177-80Zm.156-66.666q139 0 236.001-97.334 97-97.333 97-236.333t-96.875-236.001q-96.876-97-236.459-97-138.667 0-236 96.875Q146.666-619.583 146.666-480q0 138.667 97.334 236 97.333 97.334 236.333 97.334ZM480-480Zm-84.667 160H564q15 0 23.167-10.158 8.166-10.159 8.166-25.175v-42q0-14.167-9.617-23.75t-23.833-9.583q-14.216 0-23.716 9.583-9.5 9.583-9.5 23.75v10.667h-98.001v-186.668h98.001V-562q0 14.167 9.617 23.75t23.833 9.583q14.216 0 23.716-9.583 9.5-9.583 9.5-23.75v-42q0-15.3-8.166-25.65Q579-640 564-640H395.333q-15 0-23.166 10.35Q364-619.3 364-604v248.667q0 15.016 8.167 25.175Q380.333-320 395.333-320Z"/></svg>