<svg xmlns="http://www.w3.org/2000/svg" height="40" viewBox="0 -960 960 960" width="40"><path d="M480.667 0Q303.922 0 170.862-111.636 37.802-223.273 5.667-393q-2.334-15 5.166-27.667 7.5-12.666 22.167-14.666 14.666-2 25.276 6.842 10.609 8.842 13.057 23.158 24 138.333 132.833 234Q313-75.666 454-66.666l-48-48.001q-9.667-9.666-9.333-23.666.333-14 10-23.667 9.666-9.666 23.666-9.666T454-162L582.666-32.666Q588.333-27 586.5-19.333q-1.834 7.666-9.5 9.666Q553.333-4 528.833-2t-48.166 2ZM357.333-289.334q-28.333 0-47.499-19.166-19.167-19.167-19.167-47.5v-247.333h-50q-14.167 0-23.75-9.617t-9.583-23.834q0-14.216 9.583-23.716 9.583-9.5 23.75-9.5h50v-50q0-14.167 9.617-23.75t23.833-9.583q14.216 0 23.716 9.583 9.5 9.583 9.5 23.75v364h364q14.167 0 23.75 9.617 9.584 9.617 9.584 23.833 0 14.217-9.584 23.716-9.583 9.5-23.75 9.5h-50v50.001q0 14.166-9.617 23.75Q652.099-206 637.883-206q-14.216 0-23.716-9.583-9.5-9.584-9.5-23.75v-50.001H357.333Zm247.334-133.332v-180.667H424V-670h180.667q28.333 0 47.5 19.167 19.166 19.166 19.166 47.5v180.667h-66.666ZM480.667-960q176.532 0 309.432 111.667 132.901 111.666 164.234 282 2.334 15-4.833 27.333-7.167 12.333-22.166 14.333-13.667 2-24.667-7.166-11-9.167-13.333-22.834-24-138.333-132.834-234-108.833-95.667-249.834-104.667l48.001 48.001q9.666 9.666 9.666 23.666T554.667-798Q545-788.334 531-788.334q-14 0-23.666-9.666L378-927.334q-5.666-5.666-3.523-13.466 2.143-7.8 9.857-9.533Q408-956 432.167-958q24.166-2 48.5-2Z"/></svg>