<svg xmlns="http://www.w3.org/2000/svg" height="40" viewBox="0 -960 960 960" width="40"><path d="M146.666-479.667q0 98.334 52.167 179.334Q251-219.332 339.334-177.999q12.667 6.333 18.167 19.166 5.5 12.834-1.167 24.833-8 13-22.167 16.834-14.166 3.833-28.5-2.834-104.333-49.999-165-147Q80-364 80-479.667q0-30 4.5-60t13.834-59l-31.001 18q-12 7-25 3.833Q29.333-580 22.667-592 16-604 19.5-617.5T35-637.667l121-70q12-6.666 25.5-3.166 13.5 3.5 20.166 15.5l70 120q6.667 12 3.167 25.5-3.5 13.499-15.5 20.166t-25.5 3.167q-13.5-3.5-20.166-15.5l-40.001-68.334q-13 31.334-20 64-7 32.667-7 66.667ZM480-813.334q-51.667 0-100.001 15.5-48.333 15.501-90.333 45.501-12.334 8-26.167 6.833-13.833-1.166-20.5-13.166-7.666-13.334-4-28.167 3.667-14.833 16.333-23.166Q304.999-844 362.166-862T480-880q84.333 0 160.5 33.5T773.667-751v-35.667q0-14.333 9.5-23.833 9.5-9.5 23.833-9.5 14.333 0 23.833 9.5 9.5 9.5 9.5 23.833v140q0 14.333-9.5 23.833-9.5 9.5-23.833 9.5H667q-14.333 0-23.833-9.5-9.5-9.5-9.5-23.833 0-14.333 9.5-23.833 9.5-9.5 23.833-9.5h79.667q-47.333-63-117.333-98.167Q559.333-813.334 480-813.334ZM728.667-257q46.667-52.667 68-118.334 21.334-65.667 14-135-1.333-14.334 7.5-25.334 8.833-10.999 22.5-10.999 15 0 25.5 11.333t11.833 27q5.333 75.667-16.167 146.834t-68.5 130.5Q751-177.666 694.5-141.666T571.666-90.333l28.667 16.667q12 6.666 15 20.166T611.667-28Q605-16 592-13q-13 3-25-3.667l-122-70q-12-6.666-15.5-20.166t3.167-25.5l70-120.333q6.667-12 20-15.334Q536-271.333 548-264.666q12 6.666 15.167 19.833 3.166 13.167-3.5 25.166L518.666-148q61.001-6.666 115.167-34.833Q688-211 728.667-257Z"/></svg>