<svg xmlns="http://www.w3.org/2000/svg" height="40" viewBox="0 -960 960 960" width="40"><path d="M186.666-120q-27.5 0-47.083-19.583T120-186.666v-586.668q0-27.5 19.583-47.083T186.666-840h586.668q27.5 0 47.083 19.583T840-773.334v586.668q0 27.5-19.583 47.083T773.334-120H186.666ZM695-186.666h78.334V-265L695-186.666Zm-474.334 0H305l120-120h75.666l-120 120H462l120-120h75.667l-120 120h81.667l120-120h34v-466.668H186.666v545.001L265-306.666h75.666l-120 120Zm203.001-342.668L312.666-419.333q-9.667 9-23.233 9.5-13.567.5-23.433-9.5-9.667-9.667-9.667-23.333 0-13.667 9.667-23.333l134.333-134.334q10-10 23.334-10 13.333 0 23.333 10L510.333-537l137.001-137q9.667-9.667 23.166-9.833Q684-684 694-674q9.667 9.667 9.667 23.333 0 13.667-9.667 23.333L533.667-466q-10 10-23.334 10Q497-456 487-466l-63.333-63.334ZM186.666-186.666v-586.668 586.668Z"/></svg>