<svg xmlns="http://www.w3.org/2000/svg" height="40" viewBox="0 -960 960 960" width="40"><path d="M752.334-206.667H513.333q-14.166 0-23.75-9.617Q480-225.901 480-240.117q0-14.216 9.583-23.716 9.584-9.5 23.75-9.5h239.001l-46.334-47q-9.666-10-9.833-23.5-.167-13.5 9.833-23.5t23.334-10q13.333 0 23.333 10l104 104q10 10 10 23.333 0 13.333-10 23.333l-104 104q-10 10-23.333 10-13.334 0-23.334-10t-9.833-23.833q.167-13.833 9.833-23.833l46.334-46.334ZM153.333-440h-40q-14.166 0-23.75-9.583Q80-459.167 80-473.333v-40q0-14.167 9.583-23.75 9.584-9.583 23.75-9.583h40q14.167 0 23.75 9.583t9.583 23.75v40q0 14.166-9.583 23.75Q167.5-440 153.333-440ZM380-440q-58 0-99-41t-41-99v-160q0-58 41-99t99-41q58 0 99 41t41 99v160q0 58-41 99t-99 41Zm360 0q-58 0-99-41t-41-99v-160q0-58 41-99t99-41q58 0 99 41t41 99v160q0 58-41 99t-99 41Zm-360.157-66.666q30.49 0 51.991-21.389 21.5-21.389 21.5-51.945v-160q0-30.556-21.344-51.945-21.343-21.389-51.833-21.389t-51.991 21.389q-21.5 21.389-21.5 51.945v160q0 30.556 21.344 51.945 21.343 21.389 51.833 21.389Zm360 0q30.49 0 51.991-21.389 21.5-21.389 21.5-51.945v-160q0-30.556-21.344-51.945-21.343-21.389-51.833-21.389t-51.991 21.389q-21.5 21.389-21.5 51.945v160q0 30.556 21.344 51.945 21.343 21.389 51.833 21.389Z"/></svg>