<svg xmlns="http://www.w3.org/2000/svg" height="40" viewBox="0 -960 960 960" width="40"><path d="M480-815.334 222.999-667 480-518l256.334-149L480-815.334ZM120-313.666v-332.668q0-17.999 8.75-33.191 8.75-15.191 24.583-24.475l293.334-169q8.666-5 16.467-7 7.801-2 16.833-2 9.033 0 17.366 2 8.334 2 16 7l293.334 169q15.833 9.284 24.583 24.475 8.75 15.192 8.75 33.191v159.668q0 14.167-9.617 23.75t-23.833 9.583q-14.216 0-23.716-9.583-9.5-9.583-9.5-23.75V-612L513.667-461q-15.667 9-33.334 9.333-17.666.334-33.333-8.666L186.666-611.334V-314l263.335 152.001q7.5 4.216 12.083 11.804t4.583 16.862q0 19-16.666 28.5-16.667 9.5-33.333.5L153.333-256q-15.833-9.284-24.583-24.475-8.75-15.192-8.75-33.191Zm606.333 247q8.334 0 14.334-5.667t6-14.333q0-8.667-6-14.334-6-5.666-14-5.666-8.667 0-14.334 5.666-5.666 5.667-5.666 14.334 0 8.666 5.666 14.333 5.667 5.667 14 5.667Zm.334-80q8 0 14-6t6-14V-300q0-8-6-14t-14-6q-8 0-14 6t-6 14v133.334q0 8 6 14t14 6Zm0 146.666Q647 0 590.167-56.433t-56.833-136.5q0-80.067 56.833-136.9 56.833-56.833 136.5-56.833 79.666 0 136.5 56.745Q920-273.176 920-192.666q0 79.956-56.833 136.311Q806.333 0 726.667 0ZM480-482.333Z"/></svg>