<svg xmlns="http://www.w3.org/2000/svg" height="40" viewBox="0 -960 960 960" width="40"><path d="M153.333-120q-27 0-46.833-19.833t-19.833-46.833v-586.668q0-27 19.833-46.833T153.333-840h586.668q26.999 0 46.833 19.833 19.833 19.833 19.833 46.833v66.764H840q14.167 0 23.75 9.597t9.583 23.785q0 14.187-9.583 23.687-9.583 9.5-23.75 9.5h-33.333v126.668h33.45q14.216 0 23.716 9.617 9.5 9.617 9.5 23.833 0 14.216-9.583 23.716-9.583 9.5-23.75 9.5h-33.333v126.668h33.45q14.216 0 23.716 9.617 9.5 9.617 9.5 23.833 0 14.217-9.583 23.781-9.583 9.565-23.75 9.565h-33.333v66.537q0 27-19.833 46.833Q767-120 740.001-120H153.333Zm0-66.666h586.668v-586.668H153.333v586.668Zm100-66.667h168.668q14.166 0 23.75-9.583 9.583-9.583 9.583-23.75v-120.001q0-14.166-9.583-23.75-9.584-9.583-23.75-9.583H253.333q-14.167 0-23.75 9.583-9.584 9.584-9.584 23.75v120.001q0 14.167 9.584 23.75 9.583 9.583 23.75 9.583ZM522-570.667h118.001q14.167 0 23.75-9.583 9.583-9.584 9.583-23.75v-69.334q0-14.167-9.583-23.75t-23.75-9.583H522q-14.167 0-23.75 9.583t-9.583 23.75V-604q0 14.166 9.583 23.75 9.583 9.583 23.75 9.583Zm-268.667 97.334h168.668q14.166 0 23.75-9.583 9.583-9.584 9.583-23.75v-166.668q0-14.167-9.583-23.75-9.584-9.583-23.75-9.583H253.333q-14.167 0-23.75 9.583-9.584 9.583-9.584 23.75v166.668q0 14.166 9.584 23.75 9.583 9.583 23.75 9.583Zm268.667 220h118.001q14.167 0 23.75-9.583t9.583-23.75v-217.335q0-14.166-9.583-23.75-9.583-9.583-23.75-9.583H522q-14.167 0-23.75 9.583-9.583 9.584-9.583 23.75v217.335q0 14.167 9.583 23.75t23.75 9.583ZM153.333-773.334v586.668-586.668Z"/></svg>