<svg xmlns="http://www.w3.org/2000/svg" height="40" viewBox="0 -960 960 960" width="40"><path d="M160-340v-380q0-83 77-121.5T480-880q172 0 246 37t74 123v380q0 59-40.5 99.5T660-200l74.334 49.667q10 6.666 6.333 18.5Q737-120 724.667-120H235.333q-12.333 0-16-11.833-3.667-11.834 6.333-18.5L300-200q-59 0-99.5-40.5T160-340Zm66.666-210h506.668v-143.334H226.666V-550ZM660-483.333H226.666h506.668H660ZM480-316.667q23.667 0 40.167-16.5t16.5-40.166q0-23.667-16.5-40.167T480-430q-23.667 0-40.167 16.5t-16.5 40.167q0 23.666 16.5 40.166 16.5 16.5 40.167 16.5Zm-180 53.334h360q31.333 0 52.334-22.333 21-22.334 21-54.334v-143.333H226.666V-340q0 32 21 54.334 21.001 22.333 52.334 22.333Zm180-550.001q-108.667 0-162.834 13.667T239.999-760h483.335q-18-24.667-75.834-39-57.833-14.334-167.5-14.334ZM480-760h243.334-483.335H480Z"/></svg>