<svg xmlns="http://www.w3.org/2000/svg" height="40" viewBox="0 -960 960 960" width="40"><path d="M553.333-593.333q-14.166 0-23.75-9.617Q520-612.567 520-626.783q0-14.217 9.583-23.716 9.584-9.5 23.75-9.5h93.334v-146.668q0-14.166 9.617-23.75Q665.901-840 680.117-840q14.216 0 23.716 9.583 9.5 9.584 9.5 23.75v146.668h93.334q14.166 0 23.75 9.617Q840-640.766 840-626.549q0 14.216-9.583 23.716-9.584 9.5-23.75 9.5H553.333ZM679.883-120q-14.216 0-23.716-9.583-9.5-9.584-9.5-23.75v-340.001q0-14.166 9.617-23.75 9.617-9.583 23.833-9.583 14.216 0 23.716 9.583 9.5 9.584 9.5 23.75v340.001q0 14.166-9.617 23.75Q694.099-120 679.883-120Zm-400 0q-14.216 0-23.716-9.583-9.5-9.584-9.5-23.75v-140.001h-93.334q-14.166 0-23.75-9.617Q120-312.568 120-326.784q0-14.216 9.583-23.716 9.584-9.5 23.75-9.5h253.334q14.166 0 23.75 9.617Q440-340.766 440-326.55q0 14.216-9.583 23.716-9.584 9.5-23.75 9.5h-93.334v140.001q0 14.166-9.617 23.75Q294.099-120 279.883-120Zm0-306.666q-14.216 0-23.716-9.584-9.5-9.583-9.5-23.749v-346.668q0-14.166 9.617-23.75Q265.901-840 280.117-840q14.216 0 23.716 9.583 9.5 9.584 9.5 23.75v346.668q0 14.166-9.617 23.749-9.617 9.584-23.833 9.584Z"/></svg>