<svg xmlns="http://www.w3.org/2000/svg" height="40" viewBox="0 -960 960 960" width="40"><path d="M346.666-360v-413.334 586.668V-360ZM280-326.667h66.666v140.001h266.668v-586.668H346.666v380.001H280v-380.001q0-27.5 19.583-47.083T346.666-840h266.668q27.5 0 47.083 19.583T680-773.334v586.668q0 27.5-19.583 47.083T613.334-120H346.666q-27.5 0-47.083-19.583T280-186.666v-140.001Zm200.333-240q14 0 23.5-9.833t9.5-23.833q0-14-9.583-23.5t-23.75-9.5q-13.667 0-23.5 9.583T446.667-600q0 13.667 9.833 23.5t23.833 9.833Zm326.334-40q-13.667 0-23.5-9.833t-9.833-23.5v-160q0-14.167 9.833-23.75T807-833.333q14 0 23.5 9.583T840-800v160q0 13.667-9.583 23.5-9.584 9.833-23.75 9.833Zm-613.334 280q-13.666 0-23.5-9.833Q160-346.333 160-360.333q0-14 9.833-23.5 9.834-9.5 23.5-9.5H480q14.167 0 23.75 9.583t9.583 23.75q0 13.667-9.583 23.5T480-326.667H193.333Z"/></svg>