<svg xmlns="http://www.w3.org/2000/svg" height="40" viewBox="0 -960 960 960" width="40"><path d="M346.666-80q-27.5 0-47.083-19.583T280-146.666V-326h-68.667Q174-326 147-351.667q-27-25.666-27-63 0-27.666 14.333-51.5Q148.667-490 174-501.333L448.667-620v-36.667q-36.667-11-59.667-41.5t-23-68.5q0-47.222 33.667-80.278Q433.333-880 480.62-880q34.047 0 62.713 18.667Q572-842.667 586-812q1.333 2.667 2.667 14.333 0 14.167-9.5 23.75t-23.562 9.583q-10.753 0-18.611-5.88-7.858-5.88-11.994-15.12-5.666-13-18-20.5-12.333-7.5-26.264-7.5-19.736 0-33.903 13.417-14.167 13.417-14.167 33.25 0 20.967 14.184 35.15 14.183 14.184 35.15 14.184 13.667 0 23.5 9.391 9.833 9.392 9.833 23.275V-620L786-501.333q25.333 11.333 39.667 35.166Q840-442.333 840-414.667q0 37.334-27 63Q786-326 748.667-326H680v179.334q0 27.5-19.583 47.083T613.334-80H346.666ZM211.333-392.666h73Q290-413.333 307-426.667 324-440 346.666-440h266.668Q636-440 653-426.667q17 13.334 22.667 34.001h73q9.667 0 17.167-6.667 7.5-6.667 7.5-16.667 0-7.667-4.167-13.5T758-438.667l-276-124-280 124q-7 3.334-11.167 9.167t-4.167 12.833q0 10 7.167 17 7.167 7.001 17.5 7.001Zm135.333 246h266.668v-226.668H346.666v226.668Zm0-226.668h266.668-266.668Z"/></svg>