<svg xmlns="http://www.w3.org/2000/svg" height="40" viewBox="0 -960 960 960" width="40"><path d="M480-80q-83 0-156-31.5T197-197q-54-54-85.5-127T80-480q0-83 31.5-156T197-763q54-54 127-85.5T480-880h333.334q26.333 0 46.499 20.167Q880-839.667 880-813.334V-480q0 83-31.5 156T763-197q-54 54-127 85.5T480-80Zm0-66.666q139.583 0 236.459-96.875Q813.334-340.417 813.334-480v-333.334H480q-139.583 0-236.459 96.875Q146.666-619.583 146.666-480t96.875 236.459Q340.417-146.666 480-146.666ZM282.667-361.333h276V-446l124 84.667v-236l-124 84.667v-84.667h-276v236ZM480-480Z"/></svg>