<svg xmlns="http://www.w3.org/2000/svg" height="40" viewBox="0 -960 960 960" width="40"><path d="M240-160q-14.167 0-23.75-9.617t-9.583-23.833q0-14.216 9.583-23.716 9.583-9.5 23.75-9.5h28.667L351-499q6.667-21.333 24.167-34.5 17.5-13.166 39.5-13.166h130.666q22 0 39.5 13.166 17.5 13.167 24.167 34.5l82.333 272.334H720q14.167 0 23.75 9.617t9.583 23.833q0 14.216-9.583 23.716-9.583 9.5-23.75 9.5H240Zm99.333-66.666h281.334l-76-253.334H415.333l-76 253.334Zm107.334-460.001v-120q0-14.166 9.617-23.75Q465.901-840 480.117-840q14.216 0 23.716 9.583 9.5 9.584 9.5 23.75v120q0 14.167-9.617 23.75t-23.833 9.583q-14.216 0-23.716-9.583-9.5-9.583-9.5-23.75ZM659.334-626l85-85q9.666-9 23.233-9.5Q781.133-721 791-711q9.667 9.667 9.667 23.333 0 13.667-9.667 23.333l-85 86q-10 10-23.333 10-13.333 0-23.333-10.035-10-10.035-10-23.833 0-13.798 10-23.798Zm107.333 192.667h120q14.166 0 23.75 9.617Q920-414.099 920-399.883q0 14.216-9.583 23.716-9.584 9.5-23.75 9.5h-120q-14.167 0-23.75-9.617t-9.583-23.833q0-14.216 9.583-23.716 9.583-9.5 23.75-9.5ZM254-579.334l-85-85q-9-9.666-9.5-23.233Q159-701.133 169-711q9.667-9.667 23.333-9.667 13.667 0 23.333 9.667l86 85q10 10 10 23.333 0 13.333-10.035 23.333-10.035 10-23.833 10-13.798 0-23.798-10ZM73.333-366.667q-14.166 0-23.75-9.617Q40-385.901 40-400.117q0-14.216 9.583-23.716 9.584-9.5 23.75-9.5h120q14.167 0 23.75 9.617t9.583 23.833q0 14.216-9.583 23.716-9.583 9.5-23.75 9.5h-120ZM480-226.666Z"/></svg>