<svg xmlns="http://www.w3.org/2000/svg" height="40" viewBox="0 -960 960 960" width="40"><path d="M731.334-684.667v-18.666q0-6.667 5-11.667T748-720h33.333Q788-720 793-715t5 11.667v18.666h46.667q15.016 0 25.175 10.158Q880-664.35 880-649.334v374.001q0 15.016-10.158 25.175Q859.683-240 844.667-240H688q-15.016 0-25.175-10.158-10.158-10.159-10.158-25.175v-374.001q0-15.016 10.158-25.175 10.159-10.158 25.175-10.158h43.334Zm-12.001 378.001h94.001-94.001Zm-507.666 65.999q-55 0-93.334-37.074Q80-314.815 80-369v-277.667q0-30.25 21.559-51.791Q123.118-720 153.392-720q30.274 0 51.774 21.559t21.5 51.833q0 30.274-21.541 51.774-21.542 21.5-51.792 21.5-7 0-13.333-1.666-6.334-1.667-13.334-4.334V-369q0 34.845 24.834 58.256 24.833 23.411 60.167 23.411 35.333 0 60.166-23.411 24.834-23.411 24.834-58.256v-222.667q0-54.185 38.333-91.259T428.333-720q55 0 93.334 37.074Q560-645.852 560-591.667V-314q0 30.25-21.559 51.792-21.559 21.541-51.833 21.541-30.274 0-51.774-21.559t-21.5-51.833q0-30.274 21.541-51.774 21.542-21.5 51.792-21.5 6.667 0 13.333 1.333 6.667 1.334 13.334 4v-209.667q0-34.844-24.834-58.256-24.833-23.411-60.167-23.411-35.333 0-60.166 23.411-24.834 23.412-24.834 58.256V-369q0 54.185-38.333 91.259t-93.333 37.074Zm507.666-65.999h94.001v-311.335h-94.001v311.335Z"/></svg>