<svg xmlns="http://www.w3.org/2000/svg" height="40" viewBox="0 -960 960 960" width="40"><path d="M544.666-577 497-624.666 356.667-485.333Q351.333-480 349-474.167q-2.333 5.834-2.333 12.5v18.334q0 6.666 5 11.666t11.666 5h18.334q6.666 0 12.5-2.333 5.833-2.333 11.166-7.667L544.666-577Zm31.667-31.667L603.666-636q3.667-3.667 3.667-8.5t-3.667-8.5L573-683.666q-3.667-3.667-8.5-3.667t-8.5 3.667l-27.333 27.333 47.666 47.666ZM480-167.999Q609.334-286 671.334-382.166q62-96.167 62-169.834 0-115-73.5-188.167Q586.333-813.334 480-813.334t-179.834 73.167Q226.666-667 226.666-552q0 73.667 63 169.834Q352.667-286 480-167.999Zm0 65.666q-12 0-23.667-4-11.666-4-20.666-12.667-49.666-45.333-99-97.332-49.333-52-88.5-107.834Q209-379.999 184.5-437.833 160-495.666 160-552q0-150 96.5-239T480-880q127 0 223.5 89T800-552q0 56.334-24.5 114.167-24.5 57.834-63.667 113.667-39.167 55.834-88.5 107.834-49.334 51.999-99 97.332-9 8.667-20.666 12.667-11.667 4-23.667 4ZM480-560Z"/></svg>