<svg xmlns="http://www.w3.org/2000/svg" height="40" viewBox="0 -960 960 960" width="40"><path d="M186.666-120q-27 0-46.833-19.833T120-186.666v-586.668q0-27 19.833-46.833T186.666-840h309.002q16.666 0 25 10.379 8.333 10.378 8.333 22.833 0 12.454-8.622 22.954t-25.045 10.5H186.666v586.668h586.668v-311.002q0-16.666 10.378-25 10.379-8.333 22.834-8.333 12.454 0 22.954 8.333 10.5 8.334 10.5 25v311.002q0 27-19.833 46.833T773.334-120H186.666ZM480-480Zm-120 86.667v-109q0-13.63 5.333-25.982 5.334-12.352 14.334-21.352L737-907q10-10 22.333-14.667 12.334-4.666 24.667-4.666 12.667 0 25.045 5 12.378 4.999 22.621 14.999l74.001 75.001q9.406 9.972 14.536 22.021 5.13 12.049 5.13 24.514t-4.833 24.965q-4.833 12.499-14.833 22.499L549.667-380q-9 9-21.352 14.5t-25.982 5.5h-109q-14.166 0-23.75-9.583-9.583-9.584-9.583-23.75Zm499.001-391.334-74.668-74.667 74.668 74.667ZM426.666-426.666H502l246.001-246.001L710-710l-38.333-37.334L426.666-503v76.334ZM710-710l-38.333-37.334L710-710l38.001 37.333L710-710Z"/></svg>