<svg xmlns="http://www.w3.org/2000/svg" height="40" viewBox="0 -960 960 960" width="40"><path d="M253.268-280q-22.601 0-37.935-15.333Q200-310.667 200-333.268q0-21.732 15.333-37.565 15.334-15.833 37.935-15.833 21.732 0 37.565 15.833 15.833 15.833 15.833 37.565 0 22.601-15.833 37.935Q275-280 253.268-280Zm0-293.334q-22.601 0-37.935-15.333Q200-604 200-626.602q0-21.731 15.333-37.565Q230.667-680 253.268-680q21.732 0 37.565 15.833 15.833 15.834 15.833 37.565 0 22.602-15.833 37.935-15.833 15.333-37.565 15.333Zm180.065 126.667q-14.166 0-23.75-9.617Q400-465.901 400-480.117q0-14.216 9.583-23.716 9.584-9.5 23.75-9.5h93.334q14.166 0 23.75 9.617Q560-494.099 560-479.883q0 14.216-9.583 23.716-9.584 9.5-23.75 9.5h-93.334ZM693.334-480q0-56.388-15.857-108.599Q661.62-640.81 631-684.667q-8.333-12-7.666-26.333Q624-725.333 635-734.333q11-9 24.333-7.167 13.334 1.833 22 13.833 37.263 53.143 57.965 115.812Q760-549.186 760-480q0 56.945-14.167 108.806-14.166 51.861-39.5 97.861-6.533 12.391-19.6 15.695-13.066 3.305-25.066-4.362-12-7.667-14.5-21.5t4.167-26.166q19.894-39.145 30.947-81.464 11.053-42.319 11.053-88.87Z"/></svg>