<svg xmlns="http://www.w3.org/2000/svg" height="40" viewBox="0 -960 960 960" width="40"><path d="M393.333-266.666q22.334 0 37.834-15.5 15.5-15.501 15.5-37.834 0-48.333-28.834-92.167Q389-456 339.999-485.334V-320q0 22.333 15.501 37.834 15.5 15.5 37.833 15.5Zm173.334 0q22.333 0 37.833-15.5 15.501-15.501 15.501-37.834v-165.334Q571-456 542.167-412.167 513.333-368.333 513.333-320q0 22.333 15.5 37.834 15.5 15.5 37.834 15.5ZM160-326v-437.334q-16-18-29.833-38.333-13.834-20.333-25.5-42Q99-855 104.667-866.5q5.666-11.5 18-16.833Q135-888.667 148-884q13 4.667 19.667 16.667 47.666 86 130.5 135.333Q381-682.667 480-682.667q98.333 0 179.833-48 81.501-48 129.501-131.333 7.999-13.333 21.166-20.167 13.167-6.833 26.833-1.166 12.667 5.666 17.334 18.999 4.666 13.334-2 25.667-11.334 21-24.5 39.333-13.167 18.333-28.167 36V-326q0 37 17.5 68.167Q835-226.667 865.333-207q11 7.333 15 20T880-162q-4.333 12.667-15.5 18.5t-22.5.166q-49.666-27.333-79.166-75.833T733.334-326v-375.334q-54.334 41-118.834 63.167T480-616q-70 0-134.667-22.167t-118.667-63.167V-326q0 58.333-30 106.833T117-143.334q-11.333 5.667-22.333-.166-11-5.833-15.334-18.5-4.333-12.333 0-25 4.334-12.667 15.334-20Q125-226.333 142.5-257.667 160-289 160-326Zm233.333 126q-50 0-85-35t-35-85v-219q0-12.333 9.5-20t21.5-4.333l23 5.333q49.334 12.333 88.834 42.5T480-442.666q24.333-42.667 63.833-72.834t88.834-42.5l23-5.333q12-3.334 21.5 4.333t9.5 20v219q0 50-35 85t-85 35q-25.667 0-47.834-10.167-22.166-10.166-38.833-27.5-16.667 17.334-38.833 27.5Q419-200 393.333-200Zm173.334-120Zm-173.334 0Z"/></svg>