<svg xmlns="http://www.w3.org/2000/svg" height="40" viewBox="0 -960 960 960" width="40"><path d="M600-120q-116 0-211.667-67.333-95.666-67.334-131.666-179.334H153.333q-14.333 0-23.833-9.5-9.5-9.5-9.5-23.833 0-14.333 9.5-23.833 9.5-9.5 23.833-9.5h89.334Q239-460 239.5-481.5t3.167-45.167h-89.334q-14.333 0-23.833-9.5-9.5-9.5-9.5-23.833 0-14.333 9.5-23.833 9.5-9.5 23.833-9.5h103.334q36-112 131.666-179.334Q484-840 600-840q59.333 0 113.167 18Q767-804 813.333-770q11.334 8.667 12.334 22.167 1 13.5-9 23.166-10 10-24.333 10.5Q778-713.667 766-722q-36.333-25-78.5-38.167-42.167-13.167-87.5-13.167-91 0-165 49.834-74.001 49.833-106.667 130.167h238.334q14.333 0 23.833 9.5 9.5 9.5 9.5 23.833 0 14.333-9.5 23.833-9.5 9.5-23.833 9.5H310.333q-4.667 27-4.333 49.167.333 22.167 4.333 44.167h256.334q14.333 0 23.833 9.5 9.5 9.5 9.5 23.833 0 14.333-9.5 23.833-9.5 9.5-23.833 9.5H328.333Q360.999-286.333 435-236.5q74 49.834 165 49.834 44 0 86.5-13t79.5-38.667q12-8.333 26.334-7.667 14.333.667 24.333 10.667 10 9.666 9 23.166T813.333-190q-43.666 32-98.5 51Q660-120 600-120Z"/></svg>