<svg xmlns="http://www.w3.org/2000/svg" height="40" viewBox="0 -960 960 960" width="40"><path d="M226.666-554.667H486v-218.667H226.666v218.667Zm0 368.001H486V-488H226.666v301.334Zm259.334 0H226.666 486ZM519.333-120h-326q-14.166 0-23.75-9.583-9.583-9.584-9.583-23.75v-620.001q0-27 19.833-46.833T226.666-840H486q27 0 46.833 19.833t19.833 46.833V-488h60.001q23.476 0 40.071 16.595t16.595 40.071v207.667q0 20.334 16.333 34.667Q702-174.667 723-174.667q21.333 0 39.167-14.333Q780-203.333 780-223.667v-383h-13.333q-14.167 0-23.75-9.583T733.334-640v-70q0-6.667 5-11.667t11.666-5h3.334v-36.666q0-6.667 5-11.667T770-780q6.667 0 11.667 5t5 11.667v36.666h40v-36.666q0-6.667 5-11.667t11.666-5Q850-780 855-775t5 11.667v36.666h3.333q6.667 0 11.667 5T880-710v70q0 14.167-9.583 23.75-9.584 9.583-23.75 9.583h-13.334v382.794q0 42.873-32.833 73.373-32.833 30.5-77.621 30.5-43.769 0-75.324-30.5T616-223.667v-207.667q0-1.667-.833-2.5-.834-.833-2.5-.833h-60.001v281.334q0 14.166-9.583 23.75Q533.5-120 519.333-120ZM338-209.334 430-356h-55.333v-110l-91.334 146.667H338v109.999Z"/></svg>