<svg xmlns="http://www.w3.org/2000/svg" height="40" viewBox="0 -960 960 960" width="40"><path d="M266.666-266.666h140.001q14.166 0 23.75 9.617Q440-247.432 440-233.216q0 14.216-9.583 23.716-9.584 9.5-23.75 9.5H233.333q-14.166 0-23.75-9.583-9.583-9.584-9.583-23.75v-173.334q0-14.166 9.617-23.75Q219.234-440 233.45-440q14.216 0 23.716 9.583 9.5 9.584 9.5 23.75v140.001Zm426.668-426.668H553.333q-14.166 0-23.75-9.617Q520-712.568 520-726.784q0-14.216 9.583-23.716 9.584-9.5 23.75-9.5h173.334q14.166 0 23.75 9.583 9.583 9.584 9.583 23.75v173.334q0 14.166-9.617 23.75Q740.766-520 726.55-520q-14.216 0-23.716-9.583-9.5-9.584-9.5-23.75v-140.001Z"/></svg>