<svg xmlns="http://www.w3.org/2000/svg" height="40" viewBox="0 -960 960 960" width="40"><path d="M480-440q-17 0-28.5-11.5T440-480q0-17 11.5-28.5T480-520q17 0 28.5 11.5T520-480q0 17-11.5 28.5T480-440Zm0 360q-82.333 0-155.333-31.5t-127.334-85.833Q143-251.667 111.5-324.667T80-480q0-83 31.5-156t85.833-127q54.334-54 127.334-85.5T480-880q83 0 156 31.5T763-763q54 54 85.5 127T880-480q0 82.333-31.5 155.333T763-197.333Q709-143 636-111.5T480-80Zm0-66.666q139.333 0 236.334-97.334 97-97.333 97-236 0-139.333-97-236.334-97.001-97-236.334-97-138.667 0-236 97Q146.666-619.333 146.666-480q0 138.667 97.334 236 97.333 97.334 236 97.334ZM480-480ZM301-281l244-117.667q5.333-2.333 9.333-6.333t6.334-9.333l117.666-244q5-10-2.5-17.5t-17.5-2.5l-244 117.666Q409-558.333 405-554.333q-4 4-6.333 9.333L281-301q-5 10 2.5 17.5T301-281Z"/></svg>