<svg xmlns="http://www.w3.org/2000/svg" height="40" viewBox="0 -960 960 960" width="40"><path d="M806.667-200h-297q-10.621 0-18.144-7.556Q484-215.111 484-225.778V-264q0-3.666 7.333-18.333l197.334-201q33.666-35 48.5-62.167Q752-572.667 752-603.333q0-37.667-24.167-61.834-24.166-24.167-68.5-24.167-28 0-50.166 11.167Q587-667 572.667-648 564-636 550.5-632q-13.5 4-26.312-1.077Q509.667-639 503.167-651.5q-6.5-12.5.833-24.5 22.334-37 63.167-60.5t93.074-23.5q74.759 0 119.926 44.5 45.166 44.5 45.166 112.167 0 42.333-19.666 80-19.667 37.666-64.334 82.666L575.333-270l2.313 3.334h229.021q14.166 0 23.75 9.617Q840-247.432 840-233.216q0 14.216-9.583 23.716-9.584 9.5-23.75 9.5Zm-560-206.667h-93.334q-14.166 0-23.75-9.617Q120-425.901 120-440.117q0-14.216 9.583-23.716 9.584-9.5 23.75-9.5h93.334v-93.334q0-14.166 9.617-23.75Q265.901-600 280.117-600q14.216 0 23.716 9.583 9.5 9.584 9.5 23.75v93.334h93.334q14.166 0 23.75 9.617Q440-454.099 440-439.883q0 14.216-9.583 23.716-9.584 9.5-23.75 9.5h-93.334v93.334q0 14.166-9.617 23.75Q294.099-280 279.883-280q-14.216 0-23.716-9.583-9.5-9.584-9.5-23.75v-93.334Z"/></svg>