<svg xmlns="http://www.w3.org/2000/svg" height="40" viewBox="0 -960 960 960" width="40"><path d="M480-80q-82 0-155-31.5t-127.5-86Q143-252 111.5-325T80-480q0-83 31.5-156t86-127Q252-817 325-848.5T480-880q83 0 156 31.5T763-763q54 54 85.5 127T880-480q0 82-31.5 155T763-197.5q-54 54.5-127 86T480-80Zm-.033-733.334q-118.301 0-207.967 72.5-89.667 72.501-116.334 183.501 34.001-1.667 58.834-19.5 24.833-17.834 53.5-74.5 14.167-29.121 41.556-45.561 27.389-16.439 60.444-16.439h220q33.055 0 60.444 16.439 27.389 16.44 41.556 45.561 28.667 59 55.5 75.667 26.833 16.666 56.834 18.333-26.667-111-115.834-183.501-89.166-72.5-208.533-72.5Zm-.143 666.668q139.509 0 236.676-97.667t96.834-236.334v-8Q739-491 698.667-529.833 658.333-568.667 632-620.667q-6.333-13-17.311-19.5t-23.689-6.5H370q-13.807 0-24.737 6.5-10.93 6.5-17.263 19.5-26.333 53-68 91.834Q218.333-490 146.666-487.667v7.334q0 138.666 97.345 236.167 97.344 97.5 235.813 97.5ZM355.85-385.333q-22.183 0-37.35-15.317-15.167-15.317-15.167-37.5t15.317-37.35q15.317-15.167 37.5-15.167t37.35 15.317q15.167 15.317 15.167 37.5T393.35-400.5q-15.317 15.167-37.5 15.167Zm248.667 0q-22.184 0-37.35-15.317Q552-415.967 552-438.15t15.317-37.35q15.317-15.167 37.5-15.167t37.35 15.317q15.167 15.317 15.167 37.5t-15.317 37.35q-15.317 15.167-37.5 15.167ZM480-713.333Z"/></svg>