<svg xmlns="http://www.w3.org/2000/svg" height="40" viewBox="0 -960 960 960" width="40"><path d="M360-200q-117 0-198.5-81.5T80-480q0-117 81.5-198.5T360-760q117 0 198.5 81.5T640-480q0 117-81.5 198.5T360-200Zm0-280Zm328.666 263q-17.666 6-31.499-3.5-13.834-9.5-13.834-29.5 0-9 6.5-17.333 6.5-8.333 15.5-11 66-20 107.001-76.333 41-56.334 41-127.334t-41-127q-41.001-56-107.001-76-9-2.667-15.5-11-6.5-8.334-6.5-18 0-19.667 13.667-29 13.667-9.333 31.333-3.333 85 26.999 138.334 99.5Q880-574.333 880-482t-53.333 164.667Q773.333-245 688.666-217ZM360-266.666q89 0 151.167-62.167T573.334-480q0-89-62.167-151.167T360-693.334q-89 0-151.167 62.167T146.666-480q0 89 62.167 151.167T360-266.666Z"/></svg>