<svg xmlns="http://www.w3.org/2000/svg" height="40" viewBox="0 -960 960 960" width="40"><path d="M155.333-406q7.333 29 17.5 54.667t23.833 48q8.334 13 6.667 27.667-1.667 14.666-12 24.333-10.333 9.666-24.166 9.5Q153.333-242 145-254q-21.667-32-36.5-69-14.833-37-22.833-81Q83-418 91.5-429t22.833-11q15 0 26.167 9.333 11.166 9.334 14.833 24.667ZM196-656q-13.667 22.333-23.5 48-9.834 25.667-17.167 54-3.667 15.333-14.833 24.667Q129.333-520 114.333-520q-13.666 0-22.166-10.667-8.5-10.666-5.834-24Q95-598.333 110-636.333q15-38 36-69.334 7.667-11.666 21.667-12.5 14-.833 23.666 8.834 10.333 9.666 11.667 24.666 1.333 15-7 28.667Zm107 458q24 14.667 49.667 25.334Q378.333-162 405-155.333q14.333 3.667 23.667 14.667 9.333 11 9.333 25.333 0 13.666-10.333 22-10.334 8.333-23.667 6-41.667-8-79.167-22.334Q287.333-124 254.667-145q-12-8.333-13.5-22.167-1.5-13.833 8.166-24.499 10.667-10.667 25.333-12.667 14.667-2 28.334 6.333Zm105.334-607.334Q381-798.667 355.5-788.167 330-777.667 306-763q-14 8.333-29.5 6.833t-26.167-12.167Q239.667-779 241-792.667q1.333-13.666 13.333-22 33.667-21 72.167-35.833 38.5-14.833 81.167-22.833 13-2.334 23 6.333t10 22.333q0 14.333-9 25t-23.333 14.333Zm72.333 432q-44.667 0-75.667-31-31-30.999-31-75.666t31-75.666q31-31 75.667-31 44.666 0 75.666 31 31 30.999 31 75.666t-31 75.666q-31 31-75.666 31ZM655-197.666q13.667-8.334 29.5-6.834 15.834 1.5 26.5 12.167 10.667 10.666 9.333 24.833Q719-153.333 707-146q-33.333 21.667-72.333 36.5-39 14.833-83.001 22.833-13.333 2.334-23.499-6.333Q518-101.667 518-115.333q0-14.333 9.167-25.333 9.166-11 24.166-14.667 27-6.667 52.667-16.833 25.667-10.167 51-25.5ZM553-804.667q-14.333-3.667-23.333-14.667-9-11-9-25.333 0-13.666 10-22.333 10-8.667 23-6.333 41.333 8 79.666 22.5 38.334 14.5 72.334 36.166 12 8.334 13.666 22.334 1.667 14-8 24.666Q700.667-757 686-755.334q-14.666 1.667-28.666-6.666-25-15.334-51.334-25.667-26.333-10.333-53-17Zm252.334 398.334q3.666-15 14.833-24.334Q831.334-440 846.334-440 860-440 868.5-429.333q8.5 10.666 5.833 24.666-9.333 44-24.166 81.334-14.834 37.333-35.5 68.666Q807-243 793.333-242q-13.666 1-23.333-8.667-10.333-10.333-12-25.166-1.666-14.833 6.667-27.833 13.667-22.667 23.5-48.167t17.167-54.5Zm-40.667-250.334q-8.333-13-6.667-27.667 1.667-14.666 12-24.999Q779.667-719 793.333-718q13.667 1 22 12.667 22 32 37 69.333t23 81.333q2.334 14-6.166 24.334Q860.667-520 846.334-520q-15 0-26.167-9.667-11.167-9.666-14.833-25-7.334-29-17.167-54.333-9.833-25.334-23.5-47.667Z"/></svg>