<svg xmlns="http://www.w3.org/2000/svg" height="40" viewBox="0 -960 960 960" width="40"><path d="M146.666-80q-27 0-46.833-19.833T80-146.666v-586.668q0-27 19.833-46.833T146.666-800H320l136.667-136.667q10-10 23.333-10 13.333 0 23.333 10L640-800h173.334q27 0 46.833 19.833T880-733.334v586.668q0 27-19.833 46.833T813.334-80H146.666Zm0-66.666h666.668v-586.668H146.666v586.668ZM240-273.333v-333.334q0-14.166 9.583-23.75 9.584-9.583 23.75-9.583h413.334q14.166 0 23.75 9.583 9.583 9.584 9.583 23.75v333.334q0 14.166-9.583 23.75-9.584 9.583-23.75 9.583H273.333q-14.166 0-23.75-9.583-9.583-9.584-9.583-23.75Zm66.666-33.333h346.668v-266.668H306.666v266.668ZM480-439.333Z"/></svg>