<svg xmlns="http://www.w3.org/2000/svg" height="40" viewBox="0 -960 960 960" width="40"><path d="M273.333-240Q259-240 249.5-249.5q-9.5-9.5-9.5-23.833v-413.334q0-14.333 9.5-23.833 9.5-9.5 23.833-9.5 14.333 0 23.833 9.5 9.5 9.5 9.5 23.833v413.334q0 14.333-9.5 23.833-9.5 9.5-23.833 9.5Zm270-238 165.334 165.334Q718.333-303 718-289.333q-.333 13.666-10 23.333-9.667 9.667-23.667 9.667-13.999 0-23.666-9.667L472-454.667q-5.333-5.333-7.5-11-2.167-5.666-2.167-12.333t2.167-12.333q2.167-5.667 7.5-11l189.334-189.334Q671-700.333 685-700.333t23.667 9.666Q718.333-681 718.333-667q0 14-9.666 23.666L543.333-478Z"/></svg>