<svg xmlns="http://www.w3.org/2000/svg" height="40" viewBox="0 -960 960 960" width="40"><path d="M480-118 376.333-88.333Q365-85 355.833-92.167q-9.166-7.166-9.166-18.499 0-10 2.333-15.5t6.667-8.834l71-53v-240.667L120.333-338q-15.666 4.333-28-5Q80-352.333 80-368.333q0-12.334 4.333-20.333 4.334-8 11.334-12.334l331-195v-230.667q0-22.333 15.5-37.833T480-880q22.333 0 37.833 15.5t15.5 37.833V-596l331 195q7 4.334 11.334 12.334Q880-380.667 880-368.333q0 16-12.333 25.333-12.334 9.333-28 5l-306.334-90.667V-188l71 53q4.334 3.334 6.667 8.834t2.333 15.5q0 11.333-9.166 18.5Q595-85 583.667-88.334L480-118Z"/></svg>