<svg xmlns="http://www.w3.org/2000/svg" height="40" viewBox="0 -960 960 960" width="40"><path d="M266.667-153.333V-300q0-14.167 9.583-23.75t23.75-9.583h146.667V-480q0-14.167 9.583-23.75t23.75-9.583h146.667V-660q0-14.167 9.583-23.75t23.75-9.583h146.667v-113.334q0-14.166 9.617-23.75Q825.901-840 840.117-840q14.216 0 23.716 9.583 9.5 9.584 9.5 23.75V-660q0 14.167-9.583 23.75T840-626.667H693.333V-480q0 14.167-9.583 23.75T660-446.667H513.333V-300q0 14.167-9.583 23.75T480-266.667H333.333V-120q0 14.167-9.583 23.75T300-86.667H153.333q-14.166 0-23.75-9.617Q120-105.9 120-120.117q0-14.216 9.583-23.716 9.584-9.5 23.75-9.5h113.334Z"/></svg>