<svg xmlns="http://www.w3.org/2000/svg" height="40" viewBox="0 -960 960 960" width="40"><path d="M146.666-160q-27 0-46.833-20.167Q80-200.333 80-226.666v-506.668q0-26.333 19.833-46.499Q119.666-800 146.666-800h239.668q13.629 0 25.981 5.333 12.352 5.334 21.411 14.392l46.941 46.941h332.667q26.333 0 46.499 20.167Q880-693.001 880-666.667v440.001q0 26.333-20.167 46.499Q839.667-160 813.334-160H146.666Zm0-66.666h666.668v-440.001H453l-66.666-66.667H146.666v506.668Zm0 0v-506.668 506.668Zm292.667-60.001h320v-20q0-43-43-69.5t-117-26.5q-74 0-117 26.5t-43 69.5v20ZM599.28-456q31.053 0 53.22-22.114 22.167-22.114 22.167-53.167T652.553-584.5q-22.114-22.167-53.167-22.167t-53.219 22.114Q524-562.44 524-531.387q0 31.053 22.114 53.22Q568.227-456 599.28-456Z"/></svg>