<svg xmlns="http://www.w3.org/2000/svg" height="40" viewBox="0 -960 960 960" width="40"><path d="M880-666.667v403.001q0 16.667-10.379 25-10.378 8.333-22.833 8.333-12.454 0-22.954-8.622t-10.5-25.044v-402.668H456.333q-13.63 0-25.981-5.334-12.352-5.333-21.496-14.477L352.334-743q-12-12-10.5-25t10.5-22q9-9 22.38-10.5 13.38-1.5 25.087 10.643l56.865 56.523h356.668q26.333 0 46.499 20.167Q880-693.001 880-666.667ZM146.666-160q-27 0-46.833-20.167Q80-200.333 80-226.666v-506.668q0-26.333 19.833-46.499Q119.666-800 146.666-800h22.668L236-733.334h-89.334v506.668h502.335L70.001-806q-9.667-9.667-9.834-23.167-.166-13.5 9.833-23.5 9.667-9.666 23.334-9.666 13.666 0 23.333 9.666L871.334-98q10 10 9.833 23.334-.166 13.333-10.166 23.594-10 9.405-23.333 9.572-13.334.167-23.334-9.833L715.668-160H146.666Zm249.335-320Zm176.332-12.333Z"/></svg>