<svg xmlns="http://www.w3.org/2000/svg" height="40" viewBox="0 -960 960 960" width="40"><path d="M150-80q-13 0-21.5-8.5T120-110q0-13 8.5-21.5T150-140h70v-30h-30q-13 0-21.5-8.5T160-200q0-13 8.5-21.5T190-230h30v-30h-70q-13 0-21.5-8.5T120-290q0-13 8.5-21.5T150-320h90q17 0 28.5 11.5T280-280v40q0 17-11.5 28.5T240-200q17 0 28.5 11.5T280-160v40q0 17-11.5 28.5T240-80h-90Zm-4.667-280Q135-360 127.5-367.5q-7.5-7.5-7.5-17.833V-470q0-17 11.5-28.5T160-510h60v-30h-70q-13 0-21.5-8.5T120-570q0-13 8.5-21.5T150-600h90q17 0 28.5 11.5T280-560v70q0 17-11.5 28.5T240-450h-60v30h70q13 0 21.5 8.5T280-390q0 13-8.5 21.5T250-360H145.333ZM210-640q-13 0-21.5-8.5T180-670v-150h-30q-13 0-21.5-8.5T120-850q0-13 8.5-21.5T150-880h65.333q10.334 0 17.5 7.167 7.167 7.166 7.167 17.5V-670q0 13-8.5 21.5T210-640Zm189.333 434q-14.166 0-23.75-9.617Q366-225.234 366-239.45q0-14.217 9.583-23.717 9.584-9.499 23.75-9.499h407.334q14.166 0 23.75 9.616Q840-253.433 840-239.216q0 14.216-9.583 23.716-9.584 9.5-23.75 9.5H399.333Zm0-242q-14.166 0-23.75-9.617Q366-467.234 366-481.45q0-14.217 9.583-23.717 9.584-9.5 23.75-9.5h407.334q14.166 0 23.75 9.617Q840-495.433 840-481.216q0 14.216-9.583 23.716-9.584 9.5-23.75 9.5H399.333Zm0-242q-14.166 0-23.75-9.617Q366-709.234 366-723.45q0-14.217 9.583-23.717 9.584-9.5 23.75-9.5h407.334q14.166 0 23.75 9.617Q840-737.433 840-723.216q0 14.216-9.583 23.716-9.584 9.5-23.75 9.5H399.333Z"/></svg>