<svg xmlns="http://www.w3.org/2000/svg" height="40" viewBox="0 -960 960 960" width="40"><path d="M566.667-693.334H413.333q-22.222 0-37.778-15.578Q360-724.49 360-746.745t15.555-37.755q15.556-15.5 37.778-15.5h413.334q22.222 0 37.778 15.578Q880-768.843 880-746.588q0 22.254-15.556 37.754-15.555 15.5-37.777 15.5H673.333v480.001q0 22.222-15.578 37.778Q642.176-160 619.922-160q-22.255 0-37.755-15.555-15.5-15.556-15.5-37.778v-480.001Zm-360 200h-73.334q-22.222 0-37.778-15.578Q80-524.49 80-546.745T95.555-584.5q15.556-15.5 37.778-15.5h253.334q22.222 0 37.778 15.578Q440-568.843 440-546.588q0 22.254-15.555 37.754-15.556 15.5-37.778 15.5h-73.334v280.001q0 22.222-15.578 37.778Q282.176-160 259.922-160q-22.255 0-37.755-15.555-15.5-15.556-15.5-37.778v-280.001Z"/></svg>