<svg xmlns="http://www.w3.org/2000/svg" height="40" viewBox="0 -960 960 960" width="40"><path d="M446.667-813.334v420.001q0 14.166-9.617 23.75Q427.433-360 413.217-360q-14.217 0-23.716-9.583-9.5-9.584-9.5-23.75v-180.001q-66 0-113-44.333t-47-108.666q0-64.334 44.666-109Q309.334-880 373.334-880h259.999q14.167 0 23.75 9.617t9.583 23.833q0 14.216-9.583 23.716-9.583 9.5-23.75 9.5h-53.334v420.001q0 14.166-9.617 23.75Q560.766-360 546.549-360q-14.216 0-23.716-9.583-9.5-9.584-9.5-23.75v-420.001h-66.666ZM246.666-197.333 294-150q9.666 9.667 9.666 23.334 0 13.666-9.666 23.333-9.667 9.666-23.334 9.666-13.666 0-23.333-9.666l-104-104q-10-10-10-23.333 0-13.334 10-23.334l104-104q9.667-9.666 23.333-9.666 13.667 0 23.334 9.666 9.666 9.667 9.666 23.334 0 13.666-9.666 23.333L246.666-264h560.001q14.166 0 23.75 9.617Q840-244.766 840-230.549q0 14.216-9.583 23.716-9.584 9.5-23.75 9.5H246.666ZM380.001-640v-173.334q-39.001 0-66.167 23.834-27.167 23.833-27.167 62.833t27.167 62.834Q341-640 380.001-640Zm0-86.667Z"/></svg>