<svg xmlns="http://www.w3.org/2000/svg" height="40" viewBox="0 -960 960 960" width="40"><path d="M233.333-773.334q-14.166 0-23.75-9.617Q200-792.568 200-806.784q0-14.216 9.583-23.716 9.584-9.5 23.75-9.5h493.334q14.166 0 23.75 9.617Q760-820.766 760-806.55q0 14.216-9.583 23.716-9.584 9.5-23.75 9.5H233.333ZM480-120q-117 0-198.5-81.5T200-400q0-117 81.5-198.5T480-680q117 0 198.5 81.5T760-400q0 117-81.5 198.5T480-120Zm-.157-86.666q80.49 0 136.991-56.344 56.5-56.343 56.5-136.833T616.99-536.834q-56.343-56.5-136.833-56.5T343.166-536.99q-56.5 56.343-56.5 136.833t56.344 136.991q56.343 56.5 136.833 56.5Z"/></svg>