<svg xmlns="http://www.w3.org/2000/svg" height="40" viewBox="0 -960 960 960" width="40"><path d="M710-80q-13 0-21.5-8.5T680-110q0-13 8.5-21.5T710-140h70v-30h-30q-13 0-21.5-8.5T720-200q0-13 8.5-21.5T750-230h30v-30h-70q-13 0-21.5-8.5T680-290q0-13 8.5-21.5T710-320h90q17 0 28.5 11.5T840-280v40q0 17-11.5 28.5T800-200q17 0 28.5 11.5T840-160v40q0 17-11.5 28.5T800-80h-90Zm-4.667-280Q695-360 687.5-367.5q-7.5-7.5-7.5-17.833V-470q0-17 11.5-28.5T720-510h60v-30h-70q-13 0-21.5-8.5T680-570q0-13 8.5-21.5T710-600h90q17 0 28.5 11.5T840-560v70q0 17-11.5 28.5T800-450h-60v30h70q13 0 21.5 8.5T840-390q0 13-8.5 21.5T810-360H705.333ZM770-640q-13 0-21.5-8.5T740-670v-150h-30q-13 0-21.5-8.5T680-850q0-13 8.5-21.5T710-880h65.333q10.334 0 17.5 7.167 7.167 7.166 7.167 17.5V-670q0 13-8.5 21.5T770-640ZM153.333-206q-14.166 0-23.75-9.617Q120-225.234 120-239.45q0-14.217 9.583-23.717 9.584-9.499 23.75-9.499h407.334q14.166 0 23.75 9.616Q594-253.433 594-239.216q0 14.216-9.583 23.716-9.584 9.5-23.75 9.5H153.333Zm0-242q-14.166 0-23.75-9.617Q120-467.234 120-481.45q0-14.217 9.583-23.717 9.584-9.5 23.75-9.5h407.334q14.166 0 23.75 9.617Q594-495.433 594-481.216q0 14.216-9.583 23.716-9.584 9.5-23.75 9.5H153.333Zm0-242q-14.166 0-23.75-9.617Q120-709.234 120-723.45q0-14.217 9.583-23.717 9.584-9.5 23.75-9.5h407.334q14.166 0 23.75 9.617Q594-737.433 594-723.216q0 14.216-9.583 23.716-9.584 9.5-23.75 9.5H153.333Z"/></svg>