<svg xmlns="http://www.w3.org/2000/svg" height="40" viewBox="0 -960 960 960" width="40"><path d="M153.333-283.333q-14.166 0-23.75-9.584Q120-302.5 120-316.667v-326.666q0-14.167 9.583-23.75 9.584-9.584 23.75-9.584H480q14.167 0 23.75 9.584 9.583 9.583 9.583 23.75v326.666q0 14.167-9.583 23.75-9.583 9.584-23.75 9.584H153.333ZM186.666-350h260.001v-260H186.666v260Zm-33.333-423.334q-14.166 0-23.75-9.617Q120-792.568 120-806.784q0-14.216 9.583-23.716 9.584-9.5 23.75-9.5h653.334q14.166 0 23.75 9.617Q840-820.766 840-806.55q0 14.216-9.583 23.716-9.584 9.5-23.75 9.5H153.333Zm460 163.334q-14.167 0-23.75-9.617-9.584-9.617-9.584-23.833 0-14.217 9.584-23.717 9.583-9.5 23.75-9.5h193.334q14.166 0 23.75 9.617Q840-657.433 840-643.216q0 14.216-9.583 23.716-9.584 9.5-23.75 9.5H613.333Zm0 163.333q-14.167 0-23.75-9.617-9.584-9.617-9.584-23.833 0-14.216 9.584-23.716 9.583-9.5 23.75-9.5h193.334q14.166 0 23.75 9.617Q840-494.099 840-479.883q0 14.216-9.583 23.716-9.584 9.5-23.75 9.5H613.333Zm0 163.334q-14.167 0-23.75-9.617-9.584-9.617-9.584-23.834 0-14.216 9.584-23.716 9.583-9.5 23.75-9.5h193.334q14.166 0 23.75 9.617Q840-330.766 840-316.55q0 14.217-9.583 23.717-9.584 9.5-23.75 9.5H613.333ZM153.333-120q-14.166 0-23.75-9.617Q120-139.234 120-153.45q0-14.216 9.583-23.716 9.584-9.5 23.75-9.5h653.334q14.166 0 23.75 9.617Q840-167.432 840-153.216q0 14.216-9.583 23.716-9.584 9.5-23.75 9.5H153.333Z"/></svg>