<svg xmlns="http://www.w3.org/2000/svg" height="40" viewBox="0 -960 960 960" width="40"><path d="M233.333-133.334q-14.166 0-23.75-9.617Q200-152.568 200-166.784q0-14.216 9.583-23.716 9.584-9.5 23.75-9.5h493.334q14.166 0 23.75 9.617Q760-180.766 760-166.55q0 14.216-9.583 23.716-9.584 9.5-23.75 9.5H233.333ZM480-280q-100.333 0-156.667-60Q267-400 267-501.333v-294.334q0-18.255 13.518-31.294Q294.036-840 312.351-840q18.315 0 31.315 13.039t13 31.294v296.334q0 60.667 32 97.667 32.001 37 91.334 37 59.333 0 91.334-37 32-37 32-97.667v-296.334q0-18.255 13.518-31.294Q630.37-840 648.685-840 667-840 680-826.961t13 31.294v294.334Q693-400 636.667-340 580.333-280 480-280Z"/></svg>