<svg xmlns="http://www.w3.org/2000/svg" height="40" viewBox="0 -960 960 960" width="40"><path d="M480-120q-132.333 0-226.167-91.833Q160-303.667 160-435.333q0-55 16.667-103.334Q193.333-587 228-629.333L80-777.334Q70.333-787 70.333-801T80-824.667q9.666-9.666 23.666-9.666t23.667 9.666l698 698.001Q835-117 835-103.333q0 13.666-9.667 23.333-9.666 9.667-23.666 9.667T778-80L673.333-184q-39.666 31-89.666 47.5T480-120Zm0-66.666q42.667 0 79.834-11.334Q597-209.333 626-232L275.333-582q-23 29.999-35.833 66.333-12.834 36.333-12.834 80.334 0 104 74.334 176.333 74.333 72.334 179 72.334ZM450.334-416Zm254.999-242q68.001 67.334 86.167 152.167 18.167 84.834-9.834 170.167-3.666 10.667-12 17.667-8.333 7-20.333 7-18.666 0-27.5-15.333-8.833-15.334-3.166-31.334Q743-423.999 726-492.5q-16.999-68.5-68.666-118.834L480-786.667l-86.667 87.001q-9.667 9.666-23.334 9.5-13.666-.167-23.333-9.834-10-10-10-23.833 0-13.833 10-23.5l98.001-98.334q7.666-7.666 17-11Q471-860 480-860q9 0 18.333 3.5 9.334 3.5 17 10.833l190 187.667ZM572-572Z"/></svg>