<svg xmlns="http://www.w3.org/2000/svg" height="40" viewBox="0 -960 960 960" width="40"><path d="M210-210h-96.667q-14.166 0-23.75-9.617Q80-229.234 80-243.45q0-14.217 9.583-23.717 9.584-9.5 23.75-9.5H210v-170h-96.667q-14.166 0-23.75-9.617Q80-465.901 80-480.117q0-14.216 9.583-23.716 9.584-9.5 23.75-9.5H210v-170h-96.667q-14.166 0-23.75-9.617Q80-702.567 80-716.784 80-731 89.583-740.5q9.584-9.5 23.75-9.5H210v-96.667q0-14.166 9.617-23.75Q229.234-880 243.45-880q14.217 0 23.717 9.583 9.5 9.584 9.5 23.75V-750h170v-96.667q0-14.166 9.617-23.75Q465.901-880 480.117-880q14.216 0 23.716 9.583 9.5 9.584 9.5 23.75V-750h170v-96.667q0-14.166 9.617-23.75Q702.567-880 716.784-880q14.216 0 23.716 9.583 9.5 9.584 9.5 23.75V-750h96.667q14.166 0 23.75 9.617Q880-730.766 880-716.55q0 14.217-9.583 23.717-9.584 9.5-23.75 9.5H750v170h96.667q14.166 0 23.75 9.617Q880-494.099 880-479.883q0 14.216-9.583 23.716-9.584 9.5-23.75 9.5H750v170h96.667q14.166 0 23.75 9.617Q880-257.433 880-243.216q0 14.216-9.583 23.716-9.584 9.5-23.75 9.5H750v96.667q0 14.166-9.617 23.75Q730.766-80 716.55-80q-14.217 0-23.717-9.583-9.5-9.584-9.5-23.75V-210h-170v96.667q0 14.166-9.617 23.75Q494.099-80 479.883-80q-14.216 0-23.716-9.583-9.5-9.584-9.5-23.75V-210h-170v96.667q0 14.166-9.617 23.75Q257.433-80 243.216-80 229-80 219.5-89.583q-9.5-9.584-9.5-23.75V-210Zm66.667-66.667h170v-170h-170v170Zm236.666 0h170v-170h-170v170ZM276.667-513.333h170v-170h-170v170Zm236.666 0h170v-170h-170v170Z"/></svg>