<svg xmlns="http://www.w3.org/2000/svg" height="40" viewBox="0 -960 960 960" width="40"><path d="M805-61 621.667-243.334h57v22.001q0 25.333-18 43.333t-43.334 18h-512q-27.667 0-47.166-19.5-19.5-19.5-19.5-47.166V-260q0-34.666 17.833-63.166T105.333-366Q174.667-397.666 235-412.166q60.333-14.5 123.667-14.5 22.667 0 44.5 2.166 21.834 2.167 43.167 5.834l-64-64.001q-6 1.334-11.834 1.667-5.833.333-11.833.333-66 0-109.667-43.666Q205.333-568 205.333-634q0-6 .334-11.833.333-5.834 1.667-11.834L49.666-815.334q-10-10-10-23.833 0-13.833 10-23.833 10-10 23.834-10 13.833 0 23.833 10l755.334 755.333q10 10 10 23.334 0 13.333-10 23.333-10 10-23.833 10Q815-51 805-61ZM637.999-426Q701-418.666 756-403.833q55 14.833 93.333 35.167Q884-350 902.667-322.833q18.666 27.167 18.666 60.167V-160h-25.667L736.333-319.333q-12.334-34.334-37.5-61.167-25.167-26.833-60.834-45.5Zm-279.332 66q-56.667 0-108 11.833Q199.333-336.333 133.333-306q-12.333 5.667-20.167 18.667-7.833 13-7.833 27.333v33.334H612V-253l-70.999-71Q489-344.333 447.167-352.167 405.334-360 358.667-360Zm185.999-151q17-24.667 25.5-56t8.5-67q0-44-13.167-80-13.166-36-38.166-66 12-3.666 25.666-5.5 13.667-1.833 25.667-1.833 66 0 109.667 43.667Q731.999-700 731.999-634t-45.5 109.667q-45.5 43.666-111.5 43.666L544.666-511Zm-50-50-51.999-51.999q1.333-5.334 2-10.167.666-4.834.666-10.834 0-37-24.833-61.833-24.833-24.834-61.833-24.834-6 0-10.834.667-4.833.667-10.167 2l-51.999-52q16-8.666 34.333-13 18.333-4.333 38.667-4.333 66 0 109.666 43.667Q512-700 512-634q0 20.334-4.334 38.667-4.333 18.333-13 34.333ZM364.333-226.666ZM390.666-666Z"/></svg>