<svg xmlns="http://www.w3.org/2000/svg" height="40" viewBox="0 -960 960 960" width="40"><path d="M33.333-240q-14.166 0-23.75-9.583Q0-259.167 0-273.333v-23q0-40.045 42.333-65.189 42.334-25.144 111.251-25.144 12.443 0 23.93.5 11.486.5 22.486 2.268-10 18.565-15 38.109-5 19.545-5 40.789v65H33.333Zm240 0q-14.166 0-23.75-9.583-9.583-9.584-9.583-23.75V-305q0-32 17.5-58.5T307-410q32-20 76.5-30t96.5-10q53 0 97.5 10t76.5 30q32 20 49 46.5t17 58.5v31.667q0 14.166-9.583 23.75-9.584 9.583-23.75 9.583H273.333ZM780-240v-65q0-21.907-4.5-41.287-4.5-19.379-14.166-37.561 11-1.818 22.281-2.318 11.28-.5 23.052-.5 69 0 111.166 24.678Q960-337.309 960-296.333v23q0 14.166-9.583 23.75-9.584 9.583-23.75 9.583H780Zm-471.667-66.666H652v-4q-3.333-31.334-52.166-52.001Q551-383.334 480-383.334t-119.834 20.667Q311.333-342 308.333-310v3.334ZM153.045-419.999q-30.045 0-51.545-21.542T80-493.333q0-30.666 21.542-51.999 21.541-21.334 51.791-21.334 30.667 0 52 21.334 21.333 21.333 21.333 52.288 0 30.045-21.333 51.545t-52.288 21.5Zm653.333 0q-30.044 0-51.544-21.542-21.5-21.542-21.5-51.792 0-30.666 21.541-51.999 21.542-21.334 51.792-21.334 30.666 0 52 21.334Q880-523.999 880-493.044q0 30.045-21.333 51.545-21.334 21.5-52.289 21.5ZM480-480q-50 0-85-35t-35-85q0-51 35-85.5t85-34.5q51 0 85.5 34.5T600-600q0 50-34.5 85T480-480Zm.234-66.666q22.766 0 37.933-15.401 15.167-15.401 15.167-38.167 0-22.766-15.266-37.933-15.267-15.167-37.834-15.167-22.567 0-38.068 15.266-15.5 15.267-15.5 37.834 0 22.567 15.401 38.068 15.401 15.5 38.167 15.5Zm.099 240ZM480-600Z"/></svg>