<svg xmlns="http://www.w3.org/2000/svg" height="40" viewBox="0 -960 960 960" width="40"><path d="M346.666-446.667v133.334q0 14.166-9.617 23.75Q327.432-280 313.216-280 299-280 289.5-289.583q-9.5-9.584-9.5-23.75v-333.334q0-14.166 9.617-23.75Q299.234-680 313.45-680q14.216 0 23.716 9.583 9.5 9.584 9.5 23.75v133.334h266.668v-133.334q0-14.166 9.617-23.75Q632.568-680 646.784-680q14.216 0 23.716 9.583 9.5 9.584 9.5 23.75v333.334q0 14.166-9.617 23.75Q660.766-280 646.55-280q-14.216 0-23.716-9.583-9.5-9.584-9.5-23.75v-133.334H346.666Z"/></svg>