<svg xmlns="http://www.w3.org/2000/svg" height="40" viewBox="0 -960 960 960" width="40"><path d="m518.667-706-74-33.667q-5.334-2.333-5.334-7.667 0-5.333 5.334-7.666l74-33.667 33.666-74Q554.667-868 560-868t7.667 5.333l33.666 74 74 33.667q5.334 2.333 5.334 7.666 0 5.334-5.334 7.667l-74 33.667-33.666 74q-2.334 5.333-7.667 5.333T552.333-632l-33.666-74ZM187.333-311.334l-40 114.334q-3.667 10.667-12.5 16.833Q126-174 115-174q-18.667 0-29-15.333Q75.667-204.667 82.333-222l167-442.667q4.334-10.333 13.167-16.5t20.167-6.167h25.999q11.334 0 20.167 6.167 8.833 6.167 13.167 16.5L509.667-221q6.666 17.333-3.834 32.167Q495.333-174 477-174q-11.333 0-20-6.167-8.667-6.166-13-16.5l-42.667-114.667h-214Zm22-62.666h170l-82-232.001h-6l-82 232.001Zm534-173.333q73.334 0 113 38.166Q896-471 896-399.333V-206q0 13.333-9.333 22.667Q877.333-174 864-174q-13.333 0-22.666-9.333Q832-192.667 832-206v-14h-2.666q-17.667 30-47.834 45-30.166 15-67.5 15-56.333 0-92.833-33.167-36.5-33.166-36.5-86.166 0-54 40.833-88 40.834-34 106.5-34 24.667 0 52.167 4.166Q811.667-393 832-382v-24q0-40-24.666-62.667-24.667-22.667-67.334-22.667-21.667 0-39.833 6.667Q682-478 665.667-466.334 656-459 643.5-459q-12.5 0-22.166-7.334-9.334-7-11.334-18-2-10.999 6.667-18.666 25.667-22.333 56.5-33.333t70.166-11Zm-18 332q46.334 0 76.501-33.167Q832-281.667 832-329.333q-16.666-8.334-40.333-15.167Q768-351.334 746-351.334q-46 0-70.333 19.501-24.334 19.5-24.334 51.166 0 28.334 20.334 46.834 20.333 18.5 53.666 18.5Z"/></svg>