<svg xmlns="http://www.w3.org/2000/svg" height="40" viewBox="0 -960 960 960" width="40"><path d="M760.667-80.333q-6.667 0-12.333-2.167-5.667-2.167-11-7.5L508-319.334q-5.334-5.333-7.5-11-2.167-5.667-2.167-12.333 0-6.667 2.167-12.333 2.166-5.667 7.5-11l85-85q5.333-5.334 11-7.5 5.666-2.167 12.333-2.167 6.666 0 12.333 2.167 5.667 2.166 11 7.5L869-221.666q5.333 5.333 7.5 11 2.167 5.666 2.167 12.333 0 6.666-2.167 12.333t-7.5 11l-85 85q-5.333 5.333-11 7.5t-12.333 2.167Zm0-79.667L799-198.333 616.666-380.668l-38.334 38.334L760.667-160ZM198.333-80q-6.666 0-12.833-2.333Q179.333-84.667 174-90l-84-84q-5.333-5.333-7.667-11.5Q80-191.667 80-198.333q0-6.667 2.333-12.333 2.334-5.667 7.667-11l220.667-220.667h85L432.334-479 260.667-650.667h-57L80-774.334 183.666-878l123.667 123.667v57L479-525.666 604.334-651l-59.001-59 56-56h-113L467-787.334 599.666-920 621-898.667v113l56-56 160 160.001q15.667 15.666 24.333 35.833Q870-625.666 870-603q0 21.333-7.333 41-7.334 19.667-21 35.333l-85-85-56 56L652-604.334 442.333-394.667v84L221.666-90q-5.333 5.333-11 7.667Q205-80 198.333-80Zm0-80 190.001-190v-38.334H350L160-198.333 198.333-160Zm0 0L160-198.333l19.666 18.667L198.333-160Zm562.334 0L799-198.333 760.667-160Z"/></svg>