<svg xmlns="http://www.w3.org/2000/svg" height="40" viewBox="0 -960 960 960" width="40"><path d="M482-269.334 311.999-100Q293-79.667 264.666-79.667q-28.333 0-47.333-20.333L100-217.333q-20.333-19-20-47 .333-28 20-47.666l168.667-169.334L100-651.334q-19-19-20.667-45.666-1.666-26.667 17.333-45.667l120.667-120.667Q236.715-883 264.524-883t47.475 19.666L482-693.333l169.334-170.001q19.667-19.666 47.333-19.333 27.667.334 47.333 19.333L863.334-746q18.999 19.666 19.333 47.333.333 27.666-19.333 47.333L694-481.333l169.334 169.334Q883-292.618 883-264.809q0 27.809-19.666 47.476L742.667-96.666q-19 19-45.667 17.333Q670.334-81 651.334-100L482-269.334ZM482-518q16.717 0 28.025-11.308 11.308-11.309 11.308-28.025 0-16.717-11.308-28.025-11.308-11.309-28.025-11.309t-28.025 11.309q-11.308 11.308-11.308 28.025 0 16.716 11.308 28.025Q465.283-518 482-518Zm-168.667-8L436-648 266-817.334 145.333-696.667l168 170.667ZM406-442.667q16.717 0 28.025-11.308T445.333-482q0-16.717-11.308-28.025T406-521.333q-16.716 0-28.025 11.308-11.308 11.308-11.308 28.025t11.308 28.025q11.309 11.308 28.025 11.308Zm76 76q16.717 0 28.025-11.308 11.308-11.309 11.308-28.025 0-16.717-11.308-28.025T482-445.333q-16.717 0-28.025 11.308T442.667-406q0 16.716 11.308 28.025 11.308 11.308 28.025 11.308Zm75.333-76q16.717 0 28.025-11.308 11.309-11.308 11.309-28.025t-11.309-28.025q-11.308-11.308-28.025-11.308-16.716 0-28.025 11.308Q518-498.717 518-482t11.308 28.025q11.309 11.308 28.025 11.308Zm-30.667 127.334 170.001 170L817.334-266 648-435.334 526.666-315.333ZM351.667-611ZM611-351.667Z"/></svg>