<svg xmlns="http://www.w3.org/2000/svg" height="40" viewBox="0 -960 960 960" width="40"><path d="M784-600q15.667 0 25.833 10.167Q820-579.667 820-564v21.333q0 9.334-8 14Q804-524 797.333-520h-6.666q-9.333 0-16-6.667-6.667-6.666-6.667-16V-548h-96v48.667h112q15 0 25.5 10.5t10.5 25.5V-396q0 15.667-10.167 25.833Q799.667-360 784-360h-89.667l-52-52H768v-48.667H656q-15 0-25.5-10.5t-10.5-25.5V-564q0-15.667 10.167-25.833Q640.333-600 656-600h128ZM120-386v-188q0-11 7.5-18.5T146-600q11 0 18.5 7.5T172-574v60h92v-60q0-11 7.5-18.5T290-600q11 0 18.5 7.5T316-574v188q0 11-7.5 18.5T290-360q-11 0-18.5-7.5T264-386v-76h-92v76q0 11-7.5 18.5T146-360q-11 0-18.5-7.5T120-386ZM782.334-83.333 82.667-782.334Q73-792.001 73-805.834t9.667-23.833q10-10 23.833-10 13.833 0 23.833 10L829.667-130q9.667 9.667 9.833 23.167.167 13.5-9.833 23.5Q820-73.667 806-73.667q-13.999 0-23.666-9.666Zm-385.001-302v-130.334l52 52V-412h52.001l52 52H422.666q-10.333 0-17.833-7.5-7.5-7.5-7.5-17.833Z"/></svg>