<svg xmlns="http://www.w3.org/2000/svg" height="40" viewBox="0 -960 960 960" width="40"><path d="M80-226.666v-305.667q0-13.63 5.333-25.982 5.334-12.352 14.334-21.352L273-753q10-10 22.333-14.667 12.334-4.666 24.667-4.666 12.333 0 24.667 4.666Q357-763 367-753l173.333 173.333q9 9 14.334 21.352Q560-545.963 560-532.333v305.667q0 27.5-19.583 47.083T493.334-160H146.666q-27.5 0-47.083-19.583T80-226.666Zm66.666 0h140.001v-86.667q0-14.167 9.617-23.75t23.833-9.583q14.216 0 23.716 9.583 9.5 9.583 9.5 23.75v86.667h140.001v-305.667L320-705.667 146.666-532.333v305.667Zm506.668 33.333V-593L506.333-740q-16.999-17-8.09-38.5 8.909-21.5 32.963-21.5 7.127 0 13.794 2.833 6.667 2.834 11.829 7.996l143.504 143.504q9 9 14.334 21.352Q720-611.963 720-598.333v405q0 14.166-9.617 23.75Q700.766-160 686.55-160q-14.216 0-23.716-9.583-9.5-9.584-9.5-23.75Zm160 0V-659l-81.001-81q-16.999-17-8.09-38.5 8.909-21.5 32.963-21.5 7.127 0 13.794 2.833 6.667 2.834 11.667 7.834l77.666 77.666q9 9 14.334 21.352Q880-677.963 880-664.333v471q0 14.166-9.617 23.75Q860.766-160 846.55-160q-14.216 0-23.716-9.583-9.5-9.584-9.5-23.75Zm-666.668-33.333h346.668-346.668Zm173.217-220.001q-14.216 0-23.716-9.617-9.5-9.617-9.5-23.833 0-14.216 9.617-23.716 9.617-9.5 23.833-9.5 14.216 0 23.716 9.617 9.5 9.617 9.5 23.833 0 14.216-9.617 23.716-9.617 9.5-23.833 9.5Z"/></svg>