<svg xmlns="http://www.w3.org/2000/svg" height="40" viewBox="0 -960 960 960" width="40"><path d="M226.666-80q-27.5 0-47.083-19.583T160-146.666v-120.001q0-14.167 9.617-23.75 9.617-9.584 23.833-9.584 14.216 0 23.716 9.584 9.5 9.583 9.5 23.75v120.001h506.668v-120.001q0-14.167 9.617-23.75 9.617-9.584 23.833-9.584 14.216 0 23.716 9.584 9.5 9.583 9.5 23.75v120.001q0 27.5-19.583 47.083T733.334-80H226.666ZM160-813.334q0-27.5 19.583-47.083T226.666-880h319.668q13.63 0 25.981 5.333 12.352 5.334 21.352 14.334l186.666 186.666q9 9 14.334 21.352Q800-639.964 800-626.334v93.001q0 14.167-9.617 23.75-9.617 9.584-23.833 9.584-14.216 0-23.716-9.584-9.5-9.583-9.5-23.75v-89.334H574q-14.166 0-23.749-9.584-9.584-9.583-9.584-23.749v-157.334H226.666v280.001q0 14.167-9.617 23.75-9.617 9.584-23.833 9.584-14.216 0-23.716-9.584-9.5-9.583-9.5-23.75v-280.001Zm226.666 446.667q-14.166 0-23.75-9.617-9.583-9.617-9.583-23.833 0-14.216 9.583-23.716 9.584-9.5 23.75-9.5h186.668q14.166 0 23.75 9.617 9.583 9.617 9.583 23.833 0 14.216-9.583 23.716-9.584 9.5-23.75 9.5H386.666Zm320 0q-14.166 0-23.75-9.617-9.583-9.617-9.583-23.833 0-14.216 9.583-23.716 9.584-9.5 23.75-9.5h180.001q14.166 0 23.75 9.617Q920-414.099 920-399.883q0 14.216-9.583 23.716-9.584 9.5-23.75 9.5H706.666Zm-633.333 0q-14.166 0-23.75-9.617Q40-385.901 40-400.117q0-14.216 9.583-23.716 9.584-9.5 23.75-9.5h180.001q14.166 0 23.75 9.617 9.583 9.617 9.583 23.833 0 14.216-9.583 23.716-9.584 9.5-23.75 9.5h-180ZM480-499.999Zm0 199.998Z"/></svg>