<svg xmlns="http://www.w3.org/2000/svg" height="40" viewBox="0 -960 960 960" width="40"><path d="M107.667-569.666 251-827.667q5.333-9 12.683-13t16.334-4q8.983 0 16.316 4 7.334 4 12.667 13l143.333 258.001q5 8.461 4.5 16.923-.5 8.461-4.833 16.076-4.215 7.5-11.804 12.084Q432.608-520 423.334-520H136.666q-9.307 0-16.923-4.615-7.615-4.615-11.846-12.166-4.23-7.552-4.73-15.997-.5-8.444 4.5-16.888Zm173 449.666q-66 0-113-47t-47-113q0-67 47-113.5t113-46.5q66 0 113 47t47 113q0 66-47 113t-113 47Zm0-66.666q39 0 66.167-27.167Q374-241 374-280t-27.166-66.167q-27.167-27.167-66.167-27.167T214.5-346.167Q187.333-319 187.333-280t27.167 66.167q27.167 27.167 66.167 27.167Zm-87.334-400h173.334L280-742.334l-86.667 155.668ZM520-153.333v-253.334q0-14.166 9.583-23.75 9.584-9.583 23.75-9.583h253.334q14.166 0 23.75 9.583 9.583 9.584 9.583 23.75v253.334q0 14.166-9.583 23.75-9.584 9.583-23.75 9.583H553.333q-14.166 0-23.75-9.583-9.583-9.584-9.583-23.75Zm66.666-33.333h186.668v-186.668H586.666v186.668ZM658.667-538 601-587q-69-58-95-91.5T480-753q0-45 31.5-76t78.5-31q26.333 0 50.167 12.167Q664-835.667 680-813q16-22.667 39.833-34.833Q743.667-860 770-860q47 0 78.5 31t31.5 76q0 41-26 74.5T759-587l-57.667 49q-9.032 8-21.349 8t-21.317-8ZM680-607.666q80.667-66.667 107-95Q813.334-731 813.334-751q0-18.977-11.072-30.655-11.071-11.679-30.262-11.679-12.069 0-23.535 6.5-11.465 6.5-28.799 22.5L680-726.667l-39.666-37.667q-17.112-16.24-28.723-22.62-11.611-6.38-23.611-6.38-19.191 0-30.262 11.679-11.072 11.678-11.072 30.655 0 20 26.334 48.334 26.333 28.333 107 95ZM680-701Zm-400 36.333ZM280.667-280ZM680-280Z"/></svg>