<svg xmlns="http://www.w3.org/2000/svg" height="40" viewBox="0 -960 960 960" width="40"><path d="M335.333-480 408-552.667q10-10 9.833-23.667Q417.667-590 408.261-600 398-610 384.167-610.167q-13.834-.166-23.834 9.834l-97 97q-10 10-10 23.333 0 13.333 10 23.333l97 97q10 10 23.834 9.834Q398-350 408.261-360q9.406-10 9.572-23.333.167-13.333-9.833-23.333L335.333-480Zm290.001 0L552-406.666q-10 10-9.833 23.333.166 13.333 9.572 23.333 10.261 10 24.094 10.167 13.834.166 23.834-9.834l97.666-97q10-10 10-23.333 0-13.333-10-23.333l-97-97q-10-10-23.5-9.834-13.5.167-23.76 10.167-9.406 10-9.573 23.666-.166 13.667 9.833 23.667L625.334-480ZM186.666-120q-27.5 0-47.083-19.583T120-186.666v-586.668q0-27.5 19.583-47.083T186.666-840h192.668q7.666-35.333 35.833-57.667Q443.333-920 480-920t64.833 22.333Q573-875.333 580.666-840h192.668q27.5 0 47.083 19.583T840-773.334v586.668q0 27.5-19.583 47.083T773.334-120H186.666Zm0-66.666h586.668v-586.668H186.666v586.668ZM480-794.667q13.667 0 23.5-9.833 9.833-9.834 9.833-23.5 0-13.667-9.833-23.5-9.833-9.834-23.5-9.834t-23.5 9.834q-9.833 9.833-9.833 23.5 0 13.666 9.833 23.5 9.833 9.833 23.5 9.833ZM186.666-186.666v-586.668 586.668Z"/></svg>