<svg xmlns="http://www.w3.org/2000/svg" height="40" viewBox="0 -960 960 960" width="40"><path d="M186.666-120q-27 0-46.833-19.833T120-186.666v-586.668q0-27 19.833-46.833T186.666-840h586.668q27 0 46.833 19.833T840-773.334v586.668q0 27-19.833 46.833T773.334-120H186.666Zm0-66.666h586.668v-586.668L186.666-186.666Zm402.668-130.667h-58.667q-11.556 0-19.111-7.578Q504-332.488 504-344.077t7.556-19.089q7.555-7.5 19.111-7.5h58.667v-58.667q0-11.556 7.577-19.111Q604.489-456 616.078-456q11.589 0 19.089 7.556 7.5 7.555 7.5 19.111v58.667h58.667q11.555 0 19.111 7.577Q728-355.511 728-343.922q0 11.589-7.555 19.089-7.556 7.5-19.111 7.5h-58.667v58.667q0 11.555-7.578 19.111Q627.512-232 615.923-232t-19.089-7.555q-7.5-7.556-7.5-19.111v-58.667ZM406.667-632q11.555 0 19.111-7.578 7.555-7.577 7.555-19.166 0-11.59-7.555-19.089-7.556-7.5-19.111-7.5H258.666q-11.555 0-19.111 7.577Q232-670.179 232-658.589q0 11.589 7.555 19.089 7.556 7.5 19.111 7.5h148.001Z"/></svg>