<svg xmlns="http://www.w3.org/2000/svg" height="40" viewBox="0 -960 960 960" width="40"><path d="M846.55-240q-14.216 0-23.716-9.583-9.5-9.584-9.5-23.75v-413.334q0-14.166 9.617-23.75Q832.568-720 846.784-720q14.216 0 23.716 9.583 9.5 9.584 9.5 23.75v413.334q0 14.166-9.617 23.75Q860.766-240 846.55-240ZM593.001-446.667H113.333q-14.166 0-23.75-9.617Q80-465.901 80-480.117q0-14.216 9.583-23.716 9.584-9.5 23.75-9.5h479.668L456.667-650.667q-9.667-9.667-9.833-23.167-.167-13.5 9.833-23.499Q466.333-707 480-707q13.667 0 23.333 9.667l194 194q5.334 5.333 7.5 11.089Q707-486.489 707-479.911t-2.167 12.244q-2.166 5.667-7.5 11l-194 194Q493.667-253 480.061-253q-13.605 0-23.499-9.406-9.895-10.26-9.895-24.071 0-13.812 10-23.856l136.334-136.334Z"/></svg>