<svg xmlns="http://www.w3.org/2000/svg" height="40" viewBox="0 -960 960 960" width="40"><path d="M345.883-646.667q-14.217 0-23.717-9.583-9.5-9.583-9.5-23.75v-52q0-14.167 9.617-23.75t23.834-9.583q14.216 0 23.716 9.583 9.5 9.583 9.5 23.75v52q0 14.167-9.617 23.75t-23.833 9.583Zm0 360.667q-14.217 0-23.717-9.583-9.5-9.584-9.5-23.75V-450q0-14.167 9.617-23.75t23.834-9.583q14.216 0 23.716 9.583 9.5 9.583 9.5 23.75v130.667q0 14.166-9.617 23.75Q360.099-286 345.883-286ZM226.666-80q-27.5 0-47.083-19.583T160-146.666v-666.668q0-27.5 19.583-47.083T226.666-880h506.668q27.5 0 47.083 19.583T800-813.334v666.668q0 27.5-19.583 47.083T733.334-80H226.666Zm0-66.666h506.668V-532H226.666v385.334Zm0-452.001h506.668v-214.667H226.666v214.667Z"/></svg>