<svg xmlns="http://www.w3.org/2000/svg" height="40" viewBox="0 -960 960 960" width="40"><path d="M106.666-240q-20.744 0-29.872-18.333-9.127-18.333 3.206-35l173.333-231.001q5-6.666 12.084-9.999 7.083-3.334 14.583-3.334t14.583 3.334q7.084 3.333 12.084 9.999L470-306.666h316.667L560-608.001l-90.001 119.335q-10 13.49-23.333 13.911-13.333.422-23.333-7.109-10-7.53-13.333-20.5-3.334-12.969 6.666-26.302l116.667-155.668q5-6.666 12.084-9.999 7.083-3.334 14.583-3.334t14.583 3.334q7.084 3.333 12.084 9.999L880-293.333q12.333 16.667 3.206 35Q874.078-240 853.334-240H106.666Zm336.667-66.666h343.334H460h56.833-73.5Zm-270 0h213.334L280-449.001 173.333-306.666Zm0 0h213.334-213.334Z"/></svg>