<svg xmlns="http://www.w3.org/2000/svg" height="40" viewBox="0 -960 960 960" width="40"><path d="M64.666-160q-26.675 0-45.67-19.583Q0-199.166 0-226.666h147.333q-27 0-46.833-19.833-19.833-19.834-19.833-46.834v-480.001q0-27 19.833-46.833T147.333-840h665.334q27 0 46.833 19.833t19.833 46.833v480.001q0 27-19.833 46.834-19.833 19.833-46.833 19.833H960Q960-199 940.417-179.5 920.834-160 893.334-160H64.666ZM480-188q15.3 0 25.65-10.35Q516-208.7 516-224q0-15.299-10.35-25.649-10.35-10.35-25.65-10.35-15.3 0-25.65 10.35Q444-239.299 444-224q0 15.3 10.35 25.65Q464.7-188 480-188ZM147.333-293.333h665.334v-480.001H147.333v480.001Zm0 0v-480.001 480.001Z"/></svg>