<svg xmlns="http://www.w3.org/2000/svg" height="40" viewBox="0 -960 960 960" width="40"><path d="M830-704.333q0-69.644-48.012-117.655Q733.977-870 664.333-870 654-870 647-877.167q-7-7.166-7-17.5Q640-905 647-912q7-7 17.333-7 89.107 0 151.887 62.78T879-704.333Q879-694 872-687q-7 7-17.333 7-10.334 0-17.5-7Q830-694 830-704.333Zm-94.666.333q0-29.96-20.687-50.647Q693.96-775.334 664-775.334q-10.154 0-17.077-7.167Q640-789.667 640-800q0-10.334 7-17.334t17.333-7q50.334 0 85.167 34.834 34.834 34.833 34.834 85.167 0 10.333-7 17.333-7 7-17.334 7-10.333 0-17.499-6.923-7.167-6.923-7.167-17.077ZM480-438ZM146.666-120q-27 0-46.833-19.833T80-186.666v-502.001q0-26.333 19.833-46.5 19.833-20.166 46.833-20.166h140.001l53.333-62q9-11.334 22.167-17Q375.333-840 390.333-840h176.334q14.166 0 23.75 9.617Q600-820.766 600-806.55q0 14.216-9.583 23.716-9.584 9.5-23.75 9.5H390.333l-73 84.667H146.666v502.001h666.668v-420.001q0-14.166 9.617-23.75Q832.568-640 846.784-640q14.216 0 23.716 9.583 9.5 9.584 9.5 23.75v420.001q0 27-20.167 46.833Q839.667-120 813.334-120H146.666Zm333.001-144.667q73.333 0 123.5-50.166 50.166-50.167 50.166-123.5 0-73.334-50.166-123.167-50.167-49.833-123.5-49.833-73.334 0-123.167 49.833t-49.833 123.167q0 73.333 49.833 123.5 49.833 50.166 123.167 50.166Zm0-66.666q-45.667 0-76-30.667-30.334-30.667-30.334-76.333 0-45.667 30.334-76 30.333-30.334 76-30.334 45.666 0 76.333 30.334 30.667 30.333 30.667 76 0 45.666-30.667 76.333t-76.333 30.667Z"/></svg>