<svg xmlns="http://www.w3.org/2000/svg" height="40" viewBox="0 -960 960 960" width="40"><path d="m480-427.334 83.667 63.667Q569-360 574-363.5t3-9.167l-34.333-104 87.666-64.666q5-3.667 3-9.5-2-5.834-7.666-5.834H520l-32-102.999q-2-5.667-8-5.667t-8 5.667l-32 102.999H334.333q-5.666 0-7.833 5.834-2.166 5.833 2.834 9.5l85.999 64.666-35 104.333q-2 5.667 3 9.5 5 3.834 10.334.167L480-427.334ZM480-84q-5.667 0-10.667-1T459-88q-137.667-46.333-218.333-167.833Q160-377.333 160-520.667v-193.667q0-20.999 12.167-37.999 12.166-17 31.166-24.667l253.334-94.667Q468.667-876 480-876q11.333 0 23.333 4.333L756.667-777q19 7.667 31.166 24.667 12.167 17 12.167 37.999v193.667q0 143.334-80.667 264.834Q638.667-134.333 501-88q-5.333 2-10.333 3T480-84Zm0-66q111.334-36.333 182.334-139.666 71-103.334 71-231.001v-193.667L480-809.667l-253.334 95.333v193.667q0 127.667 71 231.001Q368.666-186.333 480-150Zm0-330Z"/></svg>