<svg xmlns="http://www.w3.org/2000/svg" height="40" viewBox="0 -960 960 960" width="40"><path d="M488-615.334v304.001q0 14.166 9.617 23.75Q507.234-278 521.45-278q14.217 0 23.717-9.583 9.5-9.584 9.5-23.75v-337.334q0-14.166-9.584-23.75Q535.5-682 521.333-682h-82q-14.166 0-23.75 9.617Q406-662.766 406-648.55q0 14.216 9.583 23.716 9.584 9.5 23.75 9.5H488ZM186.666-120q-27 0-46.833-19.833T120-186.666v-586.668q0-27 19.833-46.833T186.666-840h586.668q27 0 46.833 19.833T840-773.334v586.668q0 27-19.833 46.833T773.334-120H186.666Zm0-66.666h586.668v-586.668H186.666v586.668Zm0-586.668v586.668-586.668Z"/></svg>