<svg xmlns="http://www.w3.org/2000/svg" height="40" viewBox="0 -960 960 960" width="40"><path d="M430-278h100q27 0 46.833-19.833 19.834-19.833 19.834-46.833V-448q0-27-19.834-46.833Q557-514.667 530-514.667H430v-100.667h91.333q14.167 0 23.75-9.617 9.584-9.617 9.584-23.833 0-14.216-9.584-23.716-9.583-9.5-23.75-9.5H430q-27 0-46.833 19.833-19.834 19.833-19.834 46.833v270.668q0 27 19.834 46.833Q403-278 430-278Zm0-170h100v103.334H430V-448ZM186.666-120q-27 0-46.833-19.833T120-186.666v-586.668q0-27 19.833-46.833T186.666-840h586.668q27 0 46.833 19.833T840-773.334v586.668q0 27-19.833 46.833T773.334-120H186.666Zm0-66.666h586.668v-586.668H186.666v586.668Zm0-586.668v586.668-586.668Z"/></svg>