<svg xmlns="http://www.w3.org/2000/svg" height="40" viewBox="0 -960 960 960" width="40"><path d="M446.667-444v132q0 14.167 9.617 23.75t23.833 9.583q14.216 0 23.716-9.583 9.5-9.583 9.5-23.75v-132h132q14.167 0 23.75-9.617 9.584-9.617 9.584-23.833 0-14.217-9.584-23.716-9.583-9.5-23.75-9.5h-132v-132.001q0-14.166-9.617-23.75Q494.099-676 479.883-676q-14.216 0-23.716 9.583-9.5 9.584-9.5 23.75v132.001h-132q-14.167 0-23.75 9.617-9.584 9.616-9.584 23.833 0 14.216 9.584 23.716 9.583 9.5 23.75 9.5h132Zm33.058 364Q397-80 324-111.5T197-197q-54-54-85.5-127T80-480q0-83 31.5-156T197-763q54-54 127-85.5T480-880q83 0 156 31.5T763-763q54 54 85.5 127T880-480v318.667q0 33.55-23.892 57.441Q832.217-80 798.667-80H479.725Zm.275-66.666q139.583 0 236.459-96.875Q813.334-340.417 813.334-480t-96.875-236.459Q619.583-813.334 480-813.334t-236.459 96.875Q146.666-619.583 146.666-480t96.875 236.459Q340.417-146.666 480-146.666Zm0-330.667Z"/></svg>