<svg xmlns="http://www.w3.org/2000/svg" height="40" viewBox="0 -960 960 960" width="40"><path d="M146.666-496.333q0 82.333 57.501 138.334 57.5 56 139.167 58l-42-42.667q-9-9.667-9-23.333 0-13.667 9.666-23.334 9.667-9.666 23.333-9.666 13.667 0 23.334 9.666L446-289.999q9.333 9.999 9.666 23.333.334 13.333-9.666 23.333l-99.333 100q-9.667 9.666-23.334 9.666-13.666 0-23.333-9.666-9-9-9.333-23-.333-14 8.667-23.667l41.333-42.666q-108.333-2-184.5-78T80-496q0-109 74.726-186.5Q229.451-760 337.333-760H452q14.167 0 23.75 9.617t9.583 23.833q0 14.216-9.583 23.716-9.583 9.5-23.75 9.5H337.333q-79.444 0-135.056 57.667Q146.666-578 146.666-496.333Zm454.667 197h245.334q14.166 0 23.75 9.617Q880-280.099 880-265.883q0 14.217-9.583 23.717-9.584 9.5-23.75 9.5H601.333q-14.166 0-23.75-9.617Q568-251.9 568-266.117q0-14.216 9.583-23.716 9.584-9.5 23.75-9.5ZM602-530h244.667q14.166 0 23.75 9.617Q880-510.766 880-496.55q0 14.217-9.583 24.05-9.584 9.833-23.75 9.833H601.333q-14.166 0-23.75-9.751Q568-482.17 568-496.585q0-14.415 9.775-23.915T602-530Zm-16.667-230h261.334q14.166 0 23.75 9.617Q880-740.766 880-726.55q0 14.216-9.583 23.716-9.584 9.5-23.75 9.5H585.333q-14.167 0-23.75-9.617T552-726.784q0-14.216 9.583-23.716 9.583-9.5 23.75-9.5Z"/></svg>