<svg xmlns="http://www.w3.org/2000/svg" height="40" viewBox="0 -960 960 960" width="40"><path d="M562.666-99.333Q543-79.667 514.667-79.667q-28.333 0-48-19.666L99.333-466.667Q89-477 84.5-489.334 80-501.667 80-515.333v-298.001q0-28.333 19.166-47.499Q118.334-880 146.666-880h298.001q13.666 0 26.666 4.5t23.333 14.833l366.001 366.334Q881-474 881-445.833q0 28.166-20.333 48.499l-298.001 298Zm-46.333-46 298.001-298-369.667-370.001H146.666v298.001l369.667 370ZM250-656q22.333 0 38.5-16.167 16.166-16.167 16.166-38.5t-16.166-38.5q-16.167-16.166-38.5-16.166-22.334 0-38.5 16.166-16.167 16.167-16.167 38.5t16.167 38.5Q227.666-656 250-656ZM146.666-813.334ZM546-284.667l116.667-116.666q11-11 16.5-25t5.5-29.667q0-32.667-23-55.667t-55.667-23q-19.667 0-39.167 12.334Q547.333-510 522.667-482q-26-28.666-45-40.666-19-12.001-38.334-12.001-32.666 0-55.666 23t-23 55.667q0 15.667 5.5 29.667 5.5 14 16.5 25l116.667 116.666q9.999 10 23.333 10 13.333 0 23.333-10Z"/></svg>