<svg xmlns="http://www.w3.org/2000/svg" height="40" viewBox="0 -960 960 960" width="40"><path d="M195.333-320h-122q-14.166 0-23.75-9.583Q40-339.167 40-353.333v-253.334q0-14.166 9.617-23.75Q59.234-640 73.45-640q14.216 0 23.716 9.583 9.5 9.584 9.5 23.75v220.001h88.667q14.167 0 23.75 9.617t9.583 23.833q0 14.216-9.583 23.716-9.583 9.5-23.75 9.5Zm129.217 0q-14.216 0-23.716-9.583-9.5-9.584-9.5-23.75v-220.001H242q-14.167 0-23.75-9.617t-9.583-23.833q0-14.216 9.583-23.716 9.583-9.5 23.75-9.5h165.334q14.166 0 23.749 9.617 9.584 9.617 9.584 23.833 0 14.216-9.584 23.716-9.583 9.5-23.749 9.5H358v220.001q0 14.166-9.617 23.75Q338.766-320 324.55-320Zm322.117 0h-122q-14.167 0-23.75-9.583-9.583-9.584-9.583-23.75v-253.334q0-14.166 9.583-23.75Q510.5-640 524.667-640h122q14.166 0 23.75 9.617Q680-620.766 680-606.55q0 14.216-9.583 23.716-9.584 9.5-23.75 9.5H558v60.001h88.667q14.166 0 23.75 9.617Q680-494.099 680-479.883q0 14.216-9.583 23.716-9.584 9.5-23.75 9.5H558v60.001h88.667q14.166 0 23.75 9.617Q680-367.432 680-353.216q0 14.216-9.583 23.716-9.584 9.5-23.75 9.5Zm164-126.667h-49.334q-14.166 0-23.75-9.617Q728-465.901 728-480.117q0-14.216 9.583-23.716 9.584-9.5 23.75-9.5h49.334v-49.334q0-14.166 9.617-23.75Q829.901-596 844.117-596q14.216 0 23.716 9.583 9.5 9.584 9.5 23.75v49.334h49.334q14.166 0 23.75 9.617Q960-494.099 960-479.883q0 14.216-9.583 23.716-9.584 9.5-23.75 9.5h-49.334v49.334q0 14.166-9.617 23.75Q858.099-364 843.883-364q-14.216 0-23.716-9.583-9.5-9.584-9.5-23.75v-49.334Z"/></svg>