<svg xmlns="http://www.w3.org/2000/svg" height="40" viewBox="0 -960 960 960" width="40"><path d="M146.666-160q-27 0-46.833-19.833T80-226.666v-506.668q0-27 19.833-46.833T146.666-800h666.668q27 0 46.833 19.833T880-733.334v506.668q0 27-19.833 46.833T813.334-160H146.666Zm0-66.666h666.668v-506.668H146.666v506.668Zm0 0v-506.668 506.668Zm420.001-260.001v53.334q0 14.166 9.617 23.75Q585.901-400 600.117-400q14.216 0 23.716-9.583 9.5-9.584 9.5-23.75v-53.334h53.334q14.166 0 23.75-9.617Q720-505.901 720-520.117q0-14.216-9.583-23.716-9.584-9.5-23.75-9.5h-53.334v-53.334q0-14.166-9.617-23.75Q614.099-640 599.883-640q-14.216 0-23.716 9.583-9.5 9.584-9.5 23.75v53.334h-53.334q-14.166 0-23.75 9.617Q480-534.099 480-519.883q0 14.216 9.583 23.716 9.584 9.5 23.75 9.5h53.334Z"/></svg>