<svg xmlns="http://www.w3.org/2000/svg" height="40" viewBox="0 -960 960 960" width="40"><path d="M800-766.667v160q0 14.167-9.617 23.75t-23.833 9.583q-14.216 0-23.716-9.583-9.5-9.583-9.5-23.75v-79L557.667-511Q578-482.333 589-448.833T600-380q0 92-64 156t-156 64q-92 0-156-64t-64-156q0-92 64-156t156-64q35 0 68.333 10.833 33.334 10.834 61.667 31.5l175.667-175.667h-79q-14.167 0-23.75-9.617t-9.583-23.833q0-14.216 9.583-23.716 9.583-9.5 23.75-9.5h160q14.166 0 23.75 9.583 9.583 9.584 9.583 23.75ZM380.135-533.334q-63.468 0-108.469 44.866-45 44.865-45 108.333 0 63.468 44.866 108.469 44.865 45 108.333 45 63.468 0 108.469-44.866 45-44.865 45-108.333 0-63.468-44.866-108.469-44.865-45-108.333-45Z"/></svg>