<svg xmlns="http://www.w3.org/2000/svg" height="40" viewBox="0 -960 960 960" width="40"><path d="M400-483.333q-66 0-109.667-43.667-43.666-43.667-43.666-109.667t43.666-109.666Q334-790 400-790t109.667 43.667q43.666 43.666 43.666 109.666T509.667-527Q466-483.333 400-483.333Zm-320 254v-33.313Q80-297 97.333-326q17.334-29 49.334-44 58-27 119.562-43.166 61.563-16.167 126.104-16.167 14.167 0 23.75 9.667 9.584 9.666 9.584 23.882 0 14.217-9.584 23.834-9.583 9.617-23.75 9.617-57.333 0-111.833 14t-105.833 39.666q-12.667 7-20.334 19.104-7.667 12.103-7.667 26.897v33.333H393q14.167 0 23.75 9.617t9.583 23.833q0 14.216-9.583 23.716-9.583 9.5-23.75 9.5H146.666q-27.5 0-47.083-19.583T80-229.333ZM654.001-146l-6.667-38q-15.334-5-30.5-13.167Q601.667-205.334 590-216l-35 8.333q-9.667 2.667-18.521-1.064-8.854-3.73-13.812-11.936l-6.578-11.128q-5.755-9.538-4.089-19.538 1.667-10 9.334-17l29.333-27q-2-10.667-2-25.334 0-14.666 2-25.333l-29.333-27q-7.667-6.333-9.334-16.5-1.666-10.167 4-18.833l7-13q5-8.333 13.333-11.667 8.334-3.333 18-.666L590-425.333q11.667-10.667 26.834-18.834 15.166-8.166 30.5-13.166l6.667-38.334q2.368-11.591 10.657-18.629 8.29-7.037 19.342-7.037h10.667q11.052 0 19.342 7.312 8.289 7.313 10.658 18.687l6.666 38.001q15.334 5 30.501 13.333 15.166 8.334 26.833 19.334L823.001-433q9.999-3 19.06.637Q851.121-428.727 856-420l6.578 11.128q5.755 9.539 4.089 19.539-1.667 9.999-9.333 16.999L828-345.333q2 10 2 25t-2 25l29.334 27q7.666 6.333 9.333 16.5 1.666 10.166-4 18.833l-7 13q-5 8.333-13.333 11.666-8.334 3.334-18 .667L788.667-216Q777-205.334 761.834-197.167 746.667-189 731.333-184l-6.666 38.333q-2.369 11.592-10.658 18.629-8.29 7.038-19.342 7.038H684q-11.052 0-19.342-7.312-8.289-7.313-10.657-18.688Zm35.333-94.667q35 0 57.5-22.5t22.5-57.5q0-35-22.5-57.5t-57.5-22.5q-35 0-57.5 22.5t-22.5 57.5q0 35 22.5 57.5t57.5 22.5ZM400-550q37 0 61.833-24.833 24.834-24.833 24.834-61.834 0-37-24.834-61.833Q437-723.333 400-723.333T338.167-698.5q-24.834 24.833-24.834 61.833 0 37.001 24.834 61.834Q363-550 400-550Zm0-86.667Zm10 407.334Z"/></svg>