<svg xmlns="http://www.w3.org/2000/svg" height="40" viewBox="0 -960 960 960" width="40"><path d="M240-563.333h-93.334v416.667h666.668v-416.667H406.666q-14.167 0-23.75-9.617t-9.583-23.834q0-14.216 9.583-23.716 9.583-9.5 23.75-9.5h406.668q27 0 46.833 19.833Q880-590.333 880-563.333v416.667q0 27-19.833 46.833T813.334-80H146.666q-27 0-46.833-19.833T80-146.666v-416.667q0-27 19.833-46.834Q119.666-630 146.666-630H240v-216.667q0-14.166 9.583-23.75 9.584-9.583 23.75-9.583h240q14.167 0 23.75 9.583 9.583 9.584 9.583 23.75v93.334q0 14.166-9.583 23.75Q527.5-720 513.333-720H306.666v275.333q0 14.167-9.617 23.75t-23.833 9.583q-14.216 0-23.716-9.583-9.5-9.583-9.5-23.75v-118.666Zm-93.334 0v416.667-416.667 151.999-151.999Z"/></svg>