<svg xmlns="http://www.w3.org/2000/svg" height="40" viewBox="0 -960 960 960" width="40"><path d="M371.334-404.667v-150q0-14.166 9.583-23.749Q390.5-588 404.667-588h150q14.166 0 23.749 9.584Q588-568.833 588-554.667v150q0 14.167-9.584 23.75-9.583 9.583-23.749 9.583h-150q-14.167 0-23.75-9.583t-9.583-23.75ZM438-438h83.333v-83.333H438V-438Zm-78 284.667V-200h-93.334q-27 0-46.833-19.833T200-266.666V-360h-46.667q-14.166 0-23.75-9.617Q120-379.234 120-393.45q0-14.216 9.583-23.716 9.584-9.5 23.75-9.5H200V-536h-46.667q-14.166 0-23.75-9.617Q120-555.234 120-569.451q0-14.216 9.583-23.716 9.584-9.5 23.75-9.5H200V-696q0-27 19.833-46.833 19.833-19.834 46.833-19.834H360v-44q0-14.166 9.617-23.75Q379.234-840 393.45-840q14.216 0 23.716 9.583 9.5 9.584 9.5 23.75v44H536v-44q0-14.166 9.617-23.75Q555.234-840 569.451-840q14.216 0 23.716 9.583 9.5 9.584 9.5 23.75v44H696q27 0 46.833 19.834Q762.667-723 762.667-696v93.333h44q14.166 0 23.75 9.617Q840-583.433 840-569.217q0 14.217-9.583 23.717-9.584 9.5-23.75 9.5h-44v109.334h44q14.166 0 23.75 9.617Q840-407.432 840-393.216q0 14.216-9.583 23.716-9.584 9.5-23.75 9.5h-44v93.334q0 27-19.834 46.833Q723-200 696-200h-93.333v46.667q0 14.166-9.617 23.75Q583.433-120 569.217-120 555-120 545.5-129.583q-9.5-9.584-9.5-23.75V-200H426.666v46.667q0 14.166-9.617 23.75Q407.432-120 393.216-120 379-120 369.5-129.583q-9.5-9.584-9.5-23.75Zm336-113.333V-696H266.666v429.334H696ZM480-480Z"/></svg>