<svg xmlns="http://www.w3.org/2000/svg" height="40" viewBox="0 -960 960 960" width="40"><path d="M280.117-366.667q14.216 0 23.716-9.583 9.5-9.583 9.5-23.75v-160q0-14.167-9.617-23.75t-23.833-9.583q-14.216 0-23.716 9.583-9.5 9.583-9.5 23.75v160q0 14.167 9.617 23.75t23.833 9.583Zm200 0q14.216 0 23.716-9.583 9.5-9.583 9.5-23.75v-160q0-14.167-9.617-23.75t-23.833-9.583q-14.216 0-23.716 9.583-9.5 9.583-9.5 23.75v160q0 14.167 9.617 23.75t23.833 9.583Zm200 0q14.216 0 23.716-9.583 9.5-9.583 9.5-23.75v-160q0-14.167-9.617-23.75t-23.833-9.583q-14.216 0-23.716 9.583-9.5 9.583-9.5 23.75v160q0 14.167 9.617 23.75t23.833 9.583ZM146.666-266.666h666.668v-426.668H146.666v426.668Zm0 0v-426.668 426.668Zm0 66.666q-27 0-46.833-19.833T80-266.666v-426.668q0-27 19.833-46.833T146.666-760h60.001v-46.667q0-14.166 9.617-23.75Q225.901-840 240.117-840q14.216 0 23.716 9.583 9.5 9.584 9.5 23.75V-760h173.334v-46.667q0-14.166 9.617-23.75Q465.901-840 480.117-840q14.216 0 23.716 9.583 9.5 9.584 9.5 23.75V-760h173.334v-46.667q0-14.166 9.617-23.75Q705.901-840 720.117-840q14.216 0 23.716 9.583 9.5 9.584 9.5 23.75V-760h60.001q27 0 46.833 19.833T880-693.334v426.668q0 27-19.833 46.833T813.334-200h-60.001v46.667q0 14.166-9.617 23.75Q734.099-120 719.883-120q-14.216 0-23.716-9.583-9.5-9.584-9.5-23.75V-200H513.333v46.667q0 14.166-9.617 23.75Q494.099-120 479.883-120q-14.216 0-23.716-9.583-9.5-9.584-9.5-23.75V-200H273.333v46.667q0 14.166-9.617 23.75Q254.099-120 239.883-120q-14.216 0-23.716-9.583-9.5-9.584-9.5-23.75V-200h-60.001Z"/></svg>