<svg xmlns="http://www.w3.org/2000/svg" height="40" viewBox="0 -960 960 960" width="40"><path d="M480-885q46.333 55.667 85.333 106.833 39 51.167 70.667 100.5L880-860v380q0 83-31.5 156T763-197q-54 54-127 85.5T480-80q-83 0-156-31.5T197-197q-54-54-85.5-127T80-480v-380l244 182.333q31.667-48.333 70.667-100Q433.667-829.333 480-885ZM146.666-726.667V-480q0 56 17.5 105.501 17.501 49.5 48.168 91.167-6.001-18.667-9.167-37.501Q200-339.666 200-360q0-56.333 22.167-120.833Q244.334-545.334 288.334-620L146.666-726.667Zm333.334-54Q376.667-655.334 321.667-549.001 266.666-442.667 266.666-360q0 88.333 62.5 150.834 62.501 62.5 150.834 62.5t150.834-62.5q62.5-62.501 62.5-150.834 0-82.667-55.001-190.001-55-107.333-158.333-230.666Zm333.334 54L671.666-620.334q44 74.667 66.167 139.501Q760-416 760-360q0 20.334-3.167 39.167-3.166 18.834-9.167 37.501 30.667-41.667 48.168-91.167Q813.334-424 813.334-480v-246.667Z"/></svg>