<svg xmlns="http://www.w3.org/2000/svg" height="40" viewBox="0 -960 960 960" width="40"><path d="M480-40q-117 0-198.5-81.5T200-320v-320q0-117 81.5-198.5T480-920q117 0 198.5 81.5T760-640v320q0 117-81.5 198.5T480-40Zm0-66.666q89 0 151.167-62.167T693.334-320v-320q0-89-62.167-151.167T480-853.334q-89 0-151.167 62.167T266.666-640v320q0 89 62.167 151.167T480-106.666Zm.078-540.001q22.255 0 37.755-15.578 15.5-15.579 15.5-37.833 0-22.255-15.578-37.755-15.579-15.5-37.833-15.5-22.255 0-37.755 15.578-15.5 15.579-15.5 37.833 0 22.255 15.578 37.755 15.579 15.5 37.833 15.5Zm-119.961 160q14.216 0 23.716-9.617 9.5-9.617 9.5-23.833 0-14.216-9.617-23.716-9.617-9.5-23.833-9.5-14.216 0-23.716 9.617-9.5 9.617-9.5 23.833 0 14.216 9.617 23.716 9.617 9.5 23.833 9.5Zm120 0q14.216 0 23.716-9.617 9.5-9.617 9.5-23.833 0-14.216-9.617-23.716-9.617-9.5-23.833-9.5-14.216 0-23.716 9.617-9.5 9.617-9.5 23.833 0 14.216 9.617 23.716 9.617 9.5 23.833 9.5Zm120 0q14.216 0 23.716-9.617 9.5-9.617 9.5-23.833 0-14.216-9.617-23.716-9.617-9.5-23.833-9.5-14.216 0-23.716 9.617-9.5 9.617-9.5 23.833 0 14.216 9.617 23.716 9.617 9.5 23.833 9.5Zm-240 120q14.216 0 23.716-9.617 9.5-9.617 9.5-23.833 0-14.216-9.617-23.716-9.617-9.5-23.833-9.5-14.216 0-23.716 9.617-9.5 9.617-9.5 23.833 0 14.216 9.617 23.716 9.617 9.5 23.833 9.5Zm240 0q14.216 0 23.716-9.617 9.5-9.617 9.5-23.833 0-14.216-9.617-23.716-9.617-9.5-23.833-9.5-14.216 0-23.716 9.617-9.5 9.617-9.5 23.833 0 14.216 9.617 23.716 9.617 9.5 23.833 9.5Zm-120 0q14.216 0 23.716-9.617 9.5-9.617 9.5-23.833 0-14.216-9.617-23.716-9.617-9.5-23.833-9.5-14.216 0-23.716 9.617-9.5 9.617-9.5 23.833 0 14.216 9.617 23.716 9.617 9.5 23.833 9.5Zm-120 120q14.216 0 23.716-9.617 9.5-9.617 9.5-23.833 0-14.216-9.617-23.716-9.617-9.5-23.833-9.5-14.216 0-23.716 9.617-9.5 9.617-9.5 23.833 0 14.216 9.617 23.716 9.617 9.5 23.833 9.5Zm240 0q14.216 0 23.716-9.617 9.5-9.617 9.5-23.833 0-14.216-9.617-23.716-9.617-9.5-23.833-9.5-14.216 0-23.716 9.617-9.5 9.617-9.5 23.833 0 14.216 9.617 23.716 9.617 9.5 23.833 9.5Zm-120 0q14.216 0 23.716-9.617 9.5-9.617 9.5-23.833 0-14.216-9.617-23.716-9.617-9.5-23.833-9.5-14.216 0-23.716 9.617-9.5 9.617-9.5 23.833 0 14.216 9.617 23.716 9.617 9.5 23.833 9.5ZM480-480Z"/></svg>