<svg xmlns="http://www.w3.org/2000/svg" height="40" viewBox="0 -960 960 960" width="40"><path d="M288-393.333h400q10 0 15-9T701.333-420L590-567q-5.333-6.666-13.333-6.666T563.334-567L452.667-419.999l-78-98.334q-5.334-6.666-13.334-6.666T348-518.333L274.667-420q-6 8.667-1.167 17.667 4.834 9 14.5 9ZM240-240 136.666-136.666Q121-121 100.5-129.604 80-138.208 80-160.333v-653.001q0-27 19.833-46.833T146.666-880h666.668q27 0 46.833 19.833T880-813.334v506.668q0 27-19.833 46.833T813.334-240H240Zm-28.667-66.666h602.001v-506.668H146.666v575.002l64.667-68.334Zm-64.667 0v-506.668 506.668Z"/></svg>