<svg xmlns="http://www.w3.org/2000/svg" height="40" viewBox="0 -960 960 960" width="40"><path d="M513.333-265.667v152.334q0 14.333-9.5 23.833Q494.333-80 480-80q-14.333 0-23.833-9.5-9.5-9.5-9.5-23.833v-152.001L327.333-146.333q-10 9.666-23.5 9.166t-23.166-9.5Q271-156.333 271-170.333T280.667-194l151.667-152-86.667-86.667L195.333-282q-9 9-22.5 9.167-13.5.166-23.5-9.167-9.666-9.667-10-23.667-.333-13.999 9.334-23.666l116.667-117.334H113.333q-14.333 0-23.833-9.5Q80-465.667 80-480q0-14.333 9.5-23.833 9.5-9.5 23.833-9.5h152.334L61-718q-10-10-9.5-23.833.5-13.834 10.5-23.834t23.833-10q13.834 0 23.833 10L803.334-71q9.999 10 9.999 23.334 0 13.333-9.999 23.333-10 10-23.834 10-13.833 0-23.833-10L513.333-265.667Zm87.334-181h-75.668l-78.332-78.332v-75.668l-164-164q-9.667-9.666-9.834-23.166-.166-13.5 9.167-23.5 9.667-9.667 24-10 14.333-.334 24 9.333l116.667 116.667v-151.334q0-14.333 9.5-23.833 9.5-9.5 23.833-9.5 14.333 0 23.833 9.5 9.5 9.5 9.5 23.833v151.334L633.334-815q10-9.667 23.499-9.167 13.5.5 23.167 10.167 9.667 9.667 9.667 23.333 0 13.667-9.667 23.333L513.333-600.667v87.334h87.334L765.334-678q9.666-9.667 23.166-9.5 13.5.167 23.5 9.5 9.667 9.667 9.667 23.667 0 13.999-9.667 23.666L695.333-513.333h151.334q14.333 0 23.833 9.5 9.5 9.5 9.5 23.833 0 14.333-9.5 23.833-9.5 9.5-23.833 9.5H695.333l119 120.001Q819-322 821.167-315.833q2.166 6.167 2.166 12.333 0 6.167-2.333 11.833-2.333 5.667-7 11Q804.333-271 790.333-271q-13.999 0-23.666-9.667l-166-166Z"/></svg>