<svg xmlns="http://www.w3.org/2000/svg" height="40" viewBox="0 -960 960 960" width="40"><path d="M80-733.334q0-27 19.833-46.833T146.666-800h666.668q27 0 46.833 19.833T880-733.334v120.001q0 14.167-9.617 23.75-9.617 9.584-23.833 9.584-14.216 0-23.716-9.584-9.5-9.583-9.5-23.75v-120.001H146.666v120.001q0 14.167-9.617 23.75-9.617 9.584-23.833 9.584-14.216 0-23.716-9.584-9.5-9.583-9.5-23.75v-120.001ZM146.666-160q-27 0-46.833-19.833T80-226.666v-120.001q0-14.167 9.617-23.75 9.617-9.584 23.833-9.584 14.216 0 23.716 9.584 9.5 9.583 9.5 23.75v120.001h666.668v-120.001q0-14.167 9.617-23.75 9.617-9.584 23.833-9.584 14.216 0 23.716 9.584 9.5 9.583 9.5 23.75v120.001q0 27-19.833 46.833T813.334-160H146.666Zm253.206-126.667q9.128 0 17.528-4.5 8.4-4.5 12.6-13.5l130-260 50 100q4.167 9 12.5 13.5t17.5 4.5h206.667q14.166 0 23.75-9.617Q880-465.901 880-480.117q0-14.216-9.583-23.716-9.584-9.5-23.75-9.5H661l-71-141.334q-4.149-9.166-12.447-12.916-8.298-3.75-17.425-3.75-9.128 0-17.528 3.75-8.4 3.75-12.6 12.916L400-395.333l-50-100q-4.167-9-12.5-13.5t-17.5-4.5H113.333q-14.166 0-23.75 9.617Q80-494.099 80-479.883q0 14.216 9.583 23.716 9.584 9.5 23.75 9.5H299l71 142q4.149 9 12.447 13.5 8.298 4.5 17.425 4.5ZM480-480Z"/></svg>