<svg xmlns="http://www.w3.org/2000/svg" height="40" viewBox="0 -960 960 960" width="40"><path d="M426.666-520h106.668v-280q0-22.333-15.334-37.834-15.333-15.5-38-15.5T442-838q-15.334 15.333-15.334 38v280Zm-240 173.334h586.668v-106.668H186.666v106.668Zm-62 240h122.001v-86.667q0-14.167 9.617-23.75t23.833-9.583q14.216 0 23.716 9.583 9.5 9.583 9.5 23.75v86.667h133.334v-86.667q0-14.167 9.617-23.75t23.833-9.583q14.216 0 23.716 9.583 9.5 9.583 9.5 23.75v86.667h133.334v-86.667q0-14.167 9.617-23.75t23.833-9.583q14.216 0 23.716 9.583 9.5 9.583 9.5 23.75v86.667h122.001l-46.667-186.668H171.333l-46.667 186.668ZM818-40H142q-39 0-63-31t-14-69l55-220v-80q0-33 23.5-56.5T200-520h160v-280q0-50 35-85t85-35q50 0 85 35t35 85v280h160q33 0 56.5 23.5T840-440v80l55 220q11 38-13.167 69Q857.667-40 818-40Zm-44.666-413.334H186.666h586.668Zm-240-66.666H426.666h106.668Z"/></svg>