<svg xmlns="http://www.w3.org/2000/svg" height="40" viewBox="0 -960 960 960" width="40"><path d="M480-80q-117.333 0-198.667-81.333Q200-242.667 200-360v-253.334Q200-730.667 281.333-812 362.667-893.334 480-893.334T678.667-812Q760-730.667 760-613.334V-360q0 117.333-81.333 198.667Q597.333-80 480-80Zm33.333-533.334h180.001q0-78-50.5-138.333-50.501-60.334-129.501-72.334v210.667Zm-246.667 0h180.001v-210.667q-79 12-129.501 72.334-50.5 60.333-50.5 138.333Zm213.193 466.668q88.474 0 150.975-62.4 62.5-62.4 62.5-150.934v-186.667H266.666V-360q0 88.534 62.359 150.934 62.359 62.4 150.834 62.4ZM480-546.667Zm33.333-66.667Zm-66.666 0ZM480-546.667Z"/></svg>