<svg xmlns="http://www.w3.org/2000/svg" height="40" viewBox="0 -960 960 960" width="40"><path d="M818-446.667H355.333q-14.166 0-23.75-9.617Q322-465.901 322-480.117q0-14.216 9.583-23.716 9.584-9.5 23.75-9.5H818L761.333-570q-10-10-9.833-23.334.166-13.333 9.572-23.333 10.261-10 24.094-10.166Q798.999-627 808.999-617l114.334 113.667q10 10 10 23.333 0 13.333-10 23.333L808.999-342.333q-9.866 10-23.433 9.5-13.566-.5-23.827-10.5-9.406-10-9.573-23.667Q752-380.666 762-390.666l56-56.001ZM586.666-613.333v-160.001h-400v586.668h400v-160.001q0-14.167 9.617-23.75 9.617-9.584 23.833-9.584 14.217 0 23.717 9.584 9.5 9.583 9.5 23.75v160.001q0 27.5-19.584 47.083Q614.166-120 586.666-120h-400q-27.5 0-47.083-19.583T120-186.666v-586.668q0-27.5 19.583-47.083T186.666-840h400q27.5 0 47.083 19.583 19.584 19.583 19.584 47.083v160.001q0 14.167-9.617 23.75-9.617 9.584-23.834 9.584-14.216 0-23.716-9.584-9.5-9.583-9.5-23.75Z"/></svg>