<svg xmlns="http://www.w3.org/2000/svg" height="40" viewBox="0 -960 960 960" width="40"><path d="M446.667-543.333v-148.001q0-14.333 9.5-23.833 9.5-9.5 23.833-9.5 14.333 0 23.833 9.5 9.5 9.5 9.5 23.833v148.001l51.001-51q5.333-5.334 11.5-7.667 6.166-2.333 12.333-2.167 6.166.167 12.666 2.5 6.5 2.334 11.167 7.667 9.667 10 9.833 23.666.167 13.667-9.833 23.667L503.333-438q-5.333 5.333-11 7.5-5.666 2.166-12.333 2.166t-12.333-2.166q-5.667-2.167-11-7.5L348-546.667q-4.667-5.333-7.333-11.5-2.667-6.167-2.334-12.333.334-6.167 3-12.5 2.667-6.334 7.334-11 10-10 23.833-10.167 13.833-.166 23.833 9.834l50.334 51ZM186.666-120q-27 0-46.833-19.833T120-186.666v-586.668q0-27 19.833-46.833T186.666-840h586.668q27 0 46.833 19.833T840-773.334v586.668q0 27-19.833 46.833T773.334-120H186.666Zm0-66.666h586.668v-130.667H636Q608.667-278 567.167-256.667q-41.5 21.334-87.167 21.334t-87.167-21.334Q351.333-278 324-317.333H186.666v130.667ZM480-301.999q34 0 62.667-17.167 28.666-17.167 45.666-46.834 6.667-9.666 17.334-13.833T628-384h145.334v-389.334H186.666V-384H332q11.666 0 22.333 4.167Q365-375.666 371.667-366q17 29.667 45.666 46.834Q446-301.999 480-301.999ZM186.666-186.666H773.334 186.666Z"/></svg>