<svg xmlns="http://www.w3.org/2000/svg" height="40" viewBox="0 -960 960 960" width="40"><path d="m146.666-800 60.333 122.666q7.487 14.934 21.389 23.467 13.903 8.534 29.945 8.534 31.667 0 48.167-26.808t2.5-55.193L273.333-800h86l60.334 122.666q7.486 14.934 21.388 23.467 13.903 8.534 29.945 8.534 31.667 0 48.167-26.808t2.5-55.193L486-800h86l60.334 122.666q7.486 14.934 21.389 23.467 13.902 8.534 29.944 8.534 31.667 0 48.167-26.808t2.5-55.193L698.667-800h114.667q27 0 46.833 19.833T880-733.334v506.668q0 27-19.833 46.833T813.334-160H146.666q-27 0-46.833-19.833T80-226.666v-506.668q0-27 19.833-46.833T146.666-800Zm0 221.333v352.001h666.668v-352.001H146.666Zm0 0v352.001-352.001Z"/></svg>