<svg xmlns="http://www.w3.org/2000/svg" height="40" viewBox="0 -960 960 960" width="40"><path d="M146.666-80q-27.5 0-47.083-19.583T80-146.666v-666.668q0-27.5 19.583-47.083T146.666-880h386.668q27.5 0 47.083 19.583T600-813.334v666.668q0 27.5-19.583 47.083T533.334-80H146.666Zm0-449.666q19.334-15.001 43-22.667Q213.333-560 240-560h200q26.667 0 50.334 7.667 23.666 7.666 43 22.667v-283.668H146.666v283.668Zm193.275-77.001q-30.274 0-51.774-21.559t-21.5-51.833q0-30.274 21.559-51.774t51.833-21.5q30.274 0 51.774 21.559t21.5 51.833q0 30.274-21.559 51.774t-51.833 21.5ZM146.666-146.666h386.668V-400q0-39-27.167-66.167T440-493.334H240q-39 0-66.167 27.167T146.666-400v253.334Zm160.001-140.001V-240q0 14.167 9.617 23.75t23.833 9.583q14.216 0 23.716-9.583 9.5-9.583 9.5-23.75v-46.667H420q14.167 0 23.75-9.617t9.583-23.833q0-14.216-9.583-23.716-9.583-9.5-23.75-9.5h-46.667V-400q0-14.167-9.617-23.75t-23.833-9.583q-14.216 0-23.716 9.583-9.5 9.583-9.5 23.75v46.667H260q-14.167 0-23.75 9.617t-9.583 23.833q0 14.216 9.583 23.716 9.583 9.5 23.75 9.5h46.667ZM146.666-146.666h386.668-386.668Zm610.001-216.702q-10-10.035-10-23.833 0-13.799 10-23.799l35.667-35.667H673.333q-14.166 0-23.75-9.617Q640-465.901 640-480.117q0-14.216 9.583-23.716 9.584-9.5 23.75-9.5h119.001l-35.667-36.334q-10-9.867-10-23.433 0-13.567 10-23.567t23.333-10q13.333 0 23.333 10l93.334 93.334q10 10 10 23.333 0 13.333-10 23.333l-93.334 93.334q-10 10-23.333 10-13.333 0-23.333-10.035Z"/></svg>