<svg xmlns="http://www.w3.org/2000/svg" height="40" viewBox="0 -960 960 960" width="40"><path d="M841.333-296.667q0 14.334-9.5 23.834t-23.833 9.5q-14.333 0-23.833-9.5-9.5-9.5-9.5-23.834-6-52-22.5-100.5t-42.833-94.167L590.666-358.333q-18.999 22-47.666 22.666Q514.333-335 494-355L377.333-471.334l-227 227.001q-10 10-23.5 9.5t-23.5-10.5q-9-10-9.5-23.333-.5-13.334 9.5-23.334l226.334-226.333q19-19 47.333-19.334 28.333-.333 47.333 19.334L540.667-402 672-549.333q-57-66.001-130.333-104.001-73.334-38-161.667-38-71.667 0-136.334 26.167-64.666 26.167-117 72.5-5.333 4.333-11 7Q110-583 103.333-583 89-583 79.5-592.834 70-602.667 70-617q0-6.667 2.333-13 2.334-6.333 7.667-10.667 61-55 138-86.166Q295-758 380-758q99.333 0 185.333 42.167 86 42.166 150.667 117.167L809.667-705q9.667-11.333 24.667-11.833 15-.5 24.999 10.5 9 9 9.167 22 .167 12.999-8.833 22.999L757.333-544.667Q785-501 813.167-424.333q28.166 76.666 28.166 127.666Z"/></svg>