<svg xmlns="http://www.w3.org/2000/svg" height="40" viewBox="0 -960 960 960" width="40"><path d="M168.666-495.999q-19.999 0-34.333-14.334Q120-524.666 120-544.666q0-19.999 14.333-34.333 14.334-14.333 34.333-14.333 20 0 34.333 14.333 14.334 14.334 14.334 34.333 0 20-14.334 34.333-14.333 14.334-34.333 14.334Zm49.333 349.333H570v-228.668h-77.333q-67 0-114.167-45.811-47.166-45.812-47.166-111.522 0-48.333 27.833-90.166 27.833-41.834 76.167-59.834Q443.667-751 492.167-795.5t113.5-44.5q65 0 113.166 44.5Q767-751 776-682.667q48.333 18 76.167 59.834Q880-581 880-532.667q0 65.71-47.5 111.522Q785-375.334 718-375.334h-81.333v228.668h174q14.167 0 23.75 9.617T844-113.216Q844-99 834.417-89.5q-9.583 9.5-23.75 9.5H153.333q-14.166 0-23.75-9.583Q120-99.167 120-113.333v-157.333h-6.667Q101-274.333 90.5-282.166 80-290 80-304v-130q0-13.666 10.2-22.5 10.201-8.833 25.28-8.833h106.44q15.079 0 25.246 8.833 10.167 8.834 10.167 22.5v130q0 14-10.5 21.834-10.5 7.833-22.833 11.5h-6.001v124ZM492.667-442H718q38 0 66.667-26t28.667-64.667q0-29.789-18.167-54.061t-45.834-35.939l-37.999-16-2-35.333q-2-42.333-32.5-70.834-30.5-28.5-71.325-28.5-40.824 0-71.167 28.5Q504-716.333 502-674l-2 35.333-38 16Q434.333-611 416.167-586.728 398-562.456 398-532.667 398-494 426.333-468q28.334 26 66.334 26ZM606-608Z"/></svg>