<svg xmlns="http://www.w3.org/2000/svg" height="40" viewBox="0 -960 960 960" width="40"><path d="M360-120q-66 0-113-47t-47-113v-360q0-83 58.5-141.5T400-840h160q83 0 141.5 58.5T760-640v360q0 66-47 113t-113 47H360Zm0-66.666h240q39 0 66.167-27.167T693.334-280v-360q0-55.333-39-94.334-39.001-39-94.334-39H400q-55.333 0-94.334 39-39 39.001-39 94.334v360q0 39 27.167 66.167T360-186.666Zm0-260.001q14.333 0 23.833-9.833 9.5-9.833 9.5-23.5 0-14.333-9.5-23.833-9.5-9.5-23.833-9.5-13.667 0-23.5 9.5T326.667-480q0 13.667 9.833 23.5t23.5 9.833Zm120 0q14.333 0 23.833-9.833 9.5-9.833 9.5-23.5 0-14.333-9.5-23.833-9.5-9.5-23.833-9.5-13.667 0-23.5 9.5T446.667-480q0 13.667 9.833 23.5t23.5 9.833Zm120 0q14.333 0 23.833-9.833 9.5-9.833 9.5-23.5 0-14.333-9.5-23.833-9.5-9.5-23.833-9.5-13.667 0-23.5 9.5T566.667-480q0 13.667 9.833 23.5t23.5 9.833ZM480-480Z"/></svg>