<svg xmlns="http://www.w3.org/2000/svg" height="40" viewBox="0 -960 960 960" width="40"><path d="M300.117-406.667q14.216 0 23.716-9.617 9.5-9.617 9.5-23.833 0-14.216-9.617-23.716-9.617-9.5-23.833-9.5-14.216 0-23.716 9.617-9.5 9.617-9.5 23.833 0 14.216 9.617 23.716 9.617 9.5 23.833 9.5Zm120 0q14.216 0 23.716-9.617 9.5-9.617 9.5-23.833 0-14.216-9.617-23.716-9.617-9.5-23.833-9.5-14.216 0-23.716 9.617-9.5 9.617-9.5 23.833 0 14.216 9.617 23.716 9.617 9.5 23.833 9.5Zm120 0q14.216 0 23.716-9.617 9.5-9.617 9.5-23.833 0-14.216-9.617-23.716-9.617-9.5-23.833-9.5-14.216 0-23.716 9.617-9.5 9.617-9.5 23.833 0 14.216 9.617 23.716 9.617 9.5 23.833 9.5Zm120 0q14.216 0 23.716-9.617 9.5-9.617 9.5-23.833 0-14.216-9.617-23.716-9.617-9.5-23.833-9.5-14.216 0-23.716 9.617-9.5 9.617-9.5 23.833 0 14.216 9.617 23.716 9.617 9.5 23.833 9.5ZM480-80q-75 0-140.5-28.5t-114-77q-48.5-48.5-77-114T120-440q0-140 93.833-242.5Q307.667-785 446.667-798v-128.667q0-14.166 9.617-23.75Q465.901-960 480.117-960q14.216 0 23.716 9.583 9.5 9.584 9.5 23.75V-798q139 13 232.834 115.5Q840-580 840-440q0 75-28.5 140.5t-77 114q-48.5 48.5-114 77T480-80Zm0-66.666q122.572 0 207.953-85.381T773.334-440q0-122.572-85.381-207.953T480-733.334q-122.572 0-207.953 85.381T186.666-440q0 122.572 85.381 207.953T480-146.666ZM480-440Z"/></svg>