<svg xmlns="http://www.w3.org/2000/svg" height="40" viewBox="0 -960 960 960" width="40"><path d="M146.666-120q-27 0-46.833-19.833T80-186.666v-466.668q0-27 19.833-46.833T146.666-720H320v-93.334q0-27 19.833-46.833T386.666-880h186.668q27 0 46.833 19.833T640-813.334V-720h173.334q27 0 46.833 19.833T880-653.334v466.668q0 27-19.833 46.833T813.334-120H146.666Zm0-66.666h666.668v-466.668H146.666v466.668Zm240-533.334h186.668v-93.334H386.666V-720Zm-240 533.334v-466.668 466.668ZM506.667-420 412-325.333q-7.667 7.667-7.667 18.667 0 10.999 7.667 18.666t18.666 7.667q11 0 18.667-7.667L558-396.667q10-10 10-23.333 0-13.333-10-23.333L448.666-552.667Q441-560.333 430-560.333t-18.667 7.666Q403.667-545 403.667-534q0 11 7.666 18.666L506.667-420Z"/></svg>