<svg xmlns="http://www.w3.org/2000/svg" height="40" viewBox="0 -960 960 960" width="40"><path d="M193.333-200Q179-200 169.5-209.5q-9.5-9.5-9.5-23.833 0-14.333 9.5-23.833 9.5-9.5 23.833-9.5H240v-296.001q0-83.666 49.667-149.5Q339.333-778 420-796v-24q0-25 17.5-42.5T480-880q25 0 42.5 17.5T540-820v24q80.667 18 130.333 83.833Q720-646.333 720-562.667v296.001h46.667q14.333 0 23.833 9.5 9.5 9.5 9.5 23.833 0 14.333-9.5 23.833-9.5 9.5-23.833 9.5H193.333ZM480-501.333ZM480-80q-33 0-56.5-23.5T400-160h160q0 33-23.5 56.5T480-80ZM306.666-266.666h346.668v-296.001q0-72-50.667-122.667Q552-736 480-736t-122.667 50.666q-50.667 50.667-50.667 122.667v296.001ZM140.001-564q-14.334 0-23.834-10.333-9.5-10.334-8.166-24.667 6.666-72.333 39.333-134.5 32.667-62.166 84.333-108.166 11-9.667 24.833-9Q270.334-850 279-838q8.667 12 6.334 25.667Q283-798.667 272-788.667 232.334-752.333 207.334-704t-31.667 105.333q-2 15-11.667 24.834Q154.334-564 140.001-564Zm679.998 0q-14.333 0-23.999-9.833-9.667-9.834-11.667-24.834-6.667-57-31.667-105.333T688-788.667q-11-10-13.334-23.666Q672.333-826 681-838q8.666-12 22.5-12.666 13.833-.667 24.833 9 51.666 46 84.333 108.166 32.667 62.167 39.333 134.5 1.334 14.333-8.166 24.667Q834.333-564 819.999-564Z"/></svg>