<svg xmlns="http://www.w3.org/2000/svg" height="40" viewBox="0 -960 960 960" width="40"><path d="M153.333-120q-14.166 0-23.75-9.583-9.583-9.584-9.583-23.75v-240q0-14.167 9.617-23.75t23.833-9.583q14.216 0 23.716 9.583 9.5 9.583 9.5 23.75v160l540.001-540.001h-160q-14.167 0-23.75-9.617t-9.583-23.833q0-14.216 9.583-23.716 9.583-9.5 23.75-9.5h240q14.166 0 23.75 9.583 9.583 9.584 9.583 23.75v240q0 14.167-9.617 23.75t-23.833 9.583q-14.216 0-23.716-9.583-9.5-9.583-9.5-23.75v-160L233.333-186.666h160q14.167 0 23.75 9.617t9.583 23.833q0 14.216-9.583 23.716-9.583 9.5-23.75 9.5h-240Z"/></svg>