<svg xmlns="http://www.w3.org/2000/svg" height="40" viewBox="0 -960 960 960" width="40"><path d="M479.667-240q-62.334 0-119.334 20.167-57 20.166-107 62.5v10.667h453.334v-6.667q-47.333-41.667-106-64.167t-121-22.5Zm-293.001 51.334q56.667-55.667 132.167-86.834 75.5-31.166 161.167-31.166T640.833-275.5Q716-244.333 773.334-188.666v-558.001H186.666v558.001ZM480-396q-57.333 0-97.333-40t-40-97.333q0-57.333 40-97.333t97.333-40q57.333 0 97.333 40t40 97.333q0 57.333-40 97.333T480-396Zm.157-66.666q29.51 0 50.01-20.657 20.5-20.657 20.5-50.167T530.01-583.5Q509.353-604 479.843-604t-50.01 20.657q-20.5 20.657-20.5 50.167t20.657 50.01q20.657 20.5 50.167 20.5ZM186.666-80q-27 0-46.833-19.833T120-146.666v-600.001q0-27 19.833-46.833 19.833-19.834 46.833-19.834h56.667v-31.999q0-14.734 9.967-24.7Q263.267-880 278-880q15.017 0 25.175 9.967 10.158 9.966 10.158 24.7v31.999h333.334v-31.999q0-14.734 9.966-24.7Q666.6-880 681.333-880q15.017 0 25.175 9.967 10.159 9.966 10.159 24.7v31.999h56.667q27 0 46.833 19.834Q840-773.667 840-746.667v600.001q0 27-19.833 46.833T773.334-80H186.666ZM480-533.333Zm0 386.667h226.667-453.334H480Z"/></svg>