<svg xmlns="http://www.w3.org/2000/svg" height="40" viewBox="0 -960 960 960" width="40"><path d="M376.333-480q-30.286 0-50.476-22.667-20.19-22.666-15.857-52.666L325-668q8-57 52-94.5T480-800q59 0 103 37.5t52 94.5l15 112.667q4.333 30-15.857 52.666Q613.953-480 583.667-480H376.333Zm-.667-66.666h208.668l-15.04-111.485q-4.627-32.516-30.127-53.849-25.5-21.334-59.167-21.334t-59.131 21.188Q395.404-690.959 390.666-658l-15 111.334Zm104.334 0Zm-320 320V-260q0-36.666 18.5-64.166T226.667-366Q292-396.333 354.333-411.5 416.667-426.666 480-426.666t125.333 15.5q62 15.5 127.281 45.296 30.534 14.417 48.96 41.81Q800-296.666 800-260v33.334q0 27.5-19.583 47.083T733.334-160H226.666q-27.5 0-47.083-19.583T160-226.666Zm66.666 0h506.668V-260q0-14.333-8.167-27t-20.5-19Q644-335.667 590.333-347.833 536.667-360 480-360t-111 12.167Q314.667-335.667 254.667-306q-12.334 6.333-20.167 19-7.834 12.667-7.834 27v33.334Zm253.334 0Z"/></svg>