<svg xmlns="http://www.w3.org/2000/svg" height="40" viewBox="0 -960 960 960" width="40"><path d="M480-120q-63.333 0-114.5-34.667-51.167-34.666-83.167-90L212-204.333q-12 6.666-25 3Q174-205 167.333-217q-6.666-12-3.333-25.333 3.333-13.333 15.333-20l75.667-44q-4.333-15-7.667-30.167Q244-351.667 242-366.667h-88.667q-14.333 0-23.833-9.5-9.5-9.5-9.5-23.833 0-14.333 9.5-23.833 9.5-9.5 23.833-9.5H242q2-15.334 5.333-30.5Q250.667-479 255-494l-76.333-44.667q-12-6.667-15-20T167.333-584q6.667-12 19.834-15.167 13.166-3.166 25.166 3.5l69 40.334q8.667-15.334 19.5-28.834 10.834-13.5 22.5-25.833-2-7.667-2.666-15-.667-7.333-.667-15 0-26.667 9.333-51.667 9.334-25 26.001-45.333l-42.667-42q-9.667-9.667-9.833-23.334Q302.667-816 312.667-826q9.666-10 23.5-10.167 13.833-.166 23.833 9.5l46.667 46q17-9.666 35.166-14.5Q460-800 480-800t38.333 5q18.334 5 35.334 14.667l47-46.334q10-10 23.333-9.5 13.333.5 23.333 10.5 9.667 10 9.834 23.333.166 13.334-9.834 23.334l-42.667 42.666q16.001 20.334 25.167 45.001Q639-666.667 639-640q0 7.667-.333 14.5-.334 6.833-2.334 14.5Q648-598.667 658.5-585q10.5 13.667 19.167 29L748-595.667q12-6.666 25-3.166 13 3.5 19.667 15.5 6.666 12 3.166 25.499-3.5 13.5-15.5 20.167l-75.666 43q5 15 8.166 30.167Q716-449.333 718-433.333h88.667q14.333 0 23.833 9.5 9.5 9.5 9.5 23.833 0 14.333-9.5 23.833-9.5 9.5-23.833 9.5H718q-2 15.334-5 30.834t-8 30.5l75.667 44q12 6.667 15.333 20.167 3.333 13.499-3.333 25.499-6.667 12-19.667 15-13 3-25-3.666l-70.333-40.334q-32 55.334-83.167 90Q543.333-120 480-120Zm-91.334-538q21-11 44.167-16.5T480-680q24 0 46.5 5.333Q549-669.333 570-659q-6.666-29.667-32.666-52-26.001-22.334-57.334-22.334-31.333 0-58 22.501-26.667 22.5-33.334 52.833ZM480-186.666q75.667 0 124.5-66.334 48.834-66.333 48.834-147 0-73.333-45.834-143.334-45.833-70-127.5-70-81.333 0-127.334 69.834-46 69.833-46 143.5 0 80.667 48.834 147 48.833 66.334 124.5 66.334ZM480-280q-14.333 0-23.833-9.5-9.5-9.5-9.5-23.833v-173.334q0-14.333 9.5-23.833 9.5-9.5 23.833-9.5 14.333 0 23.833 9.5 9.5 9.5 9.5 23.833v173.334q0 14.333-9.5 23.833-9.5 9.5-23.833 9.5Z"/></svg>