<svg xmlns="http://www.w3.org/2000/svg" height="40" viewBox="0 -960 960 960" width="40"><path d="M816.667-51.333 51.333-826.001q-9-9.667-9.333-23.333-.333-13.667 9.333-23.333 9.667-9.667 23.333-9.667 13.667 0 23.334 9.667L864-98q9.667 9.667 9.334 23.334-.334 13.666-10 23.333-9.667 9.666-23.333 9.666-13.667 0-23.334-9.666ZM200-722.334l66.666 67.333v448.335h416.668L759.333-130v23.334Q760-79 740.221-59.5 720.442-40 692.667-40H266.666q-27.5 0-47.083-19.583T200-106.666v-615.668Zm66.666 582.335v33.333h426.668v-33.333H266.666ZM726.55-702.667q-14.216 0-23.716-9.584-9.5-9.583-9.5-23.749v-17.334H349q-14.385 0-23.692-9.617Q316-772.568 316-786.784q0-14.217 9.583-23.717 9.583-9.5 23.75-9.5h344.001v-33.333H273.333q-14.166 0-23.75-9.617Q240-872.568 240-886.784q0-14.216 9.583-23.716 9.584-9.5 23.75-9.5h420.001q27.5 0 47.083 19.583T760-853.334V-736q0 14.166-9.617 23.749-9.617 9.584-23.833 9.584ZM266.666-139.999v33.333-33.333ZM920.333-480.37q0 51.037-17 98.537-17 47.5-49 85.833-8.666 11-22.166 11.167-13.5.166-23.413-10.094-9.087-9.406-9.587-23.101-.5-13.694 8.166-24.972 22.573-29.717 34.454-64.937 11.88-35.22 11.88-72.642 0-37.421-12-72.088-12-34.667-35.667-63-9.333-11.333-9.833-26-.5-14.666 9.224-24.391Q816-676.667 830.5-676.5q14.5.167 23.833 11.833 32 38.334 49 85.797 17 47.464 17 98.5ZM693.334-853.334v33.333-33.333ZM793.667-482q0 34.246-13.564 65.816T742.667-360q-4.058 4.167-10.551 7.083Q725.624-350 719.131-350q-13.797 0-23.797-9.877-10-9.878-10-23.871 0-6.585 2.833-12.918Q691.001-403 696.001-408q15.333-15.333 23.166-33.833 7.834-18.5 7.834-39.5 0-20.334-8-40.001-8-19.666-23-34.667-5-4.333-7.5-10.772t-2.5-12.878q0-13.683 9.877-23.349 9.878-9.667 23.871-9.667 6.585 0 12.918 2.5 6.333 2.5 10.667 7.5 24 24.333 37.166 55.562 13.167 31.229 13.167 65.105Z"/></svg>