<svg xmlns="http://www.w3.org/2000/svg" height="40" viewBox="0 -960 960 960" width="40"><path d="M675.333-490.666v-138.001L590.666-544q-5.333 5.334-13.333 5.334T564-544q-5.334-5.333-5.334-13.333T564-570.666l106.667-106.667L564-780q-5.334-5.333-5.334-13.333T564-806.667Q569.333-812 577.333-812t13.333 5.333L675.333-722v-137.667q0-11.666 10.334-15.833Q696-879.667 704-871l83.333 85.334q10 9.999 9.834 23.666Q797-748.333 787-738.667l-63 61.334L788-610q9.333 10.182 9.333 23.758 0 13.575-9.333 22.909l-84 84q-8 8.667-18.333 4.5-10.334-4.167-10.334-15.833Zm40-53.334 42-42.666-42-42.001V-544Zm0-178 42-40-42-46.667V-722ZM796-120q-119 0-240-55.5T333-333Q231-435 175.5-556T120-796q0-18.857 12.571-31.429Q145.143-840 164-840h147.333q14 0 24.333 9.833Q346-820.333 349.333-806l26.619 130.427q2.048 14.906-.619 26.239-2.667 11.334-10.819 19.485L265.666-530q24 41.667 52.5 78.5T381-381.333q35 35.667 73.667 65.5T536-262.666l94.667-96.667q9.667-10.333 23.267-14.5Q667.535-378 680.667-376L806-349.333q14.667 4 24.333 15.53Q840-322.274 840-308v144q0 18.857-12.571 31.429Q814.857-120 796-120ZM233-592l76-76.667-21-104.667H187q3 41.667 13.666 86Q211.333-643 233-592Zm365.333 361.334q40.334 18.333 85.834 29.666 45.5 11.334 89.167 13.667V-288l-100-20.333-75.001 77.667ZM233-592Zm365.333 361.334Z"/></svg>