<svg xmlns="http://www.w3.org/2000/svg" height="40" viewBox="0 -960 960 960" width="40"><path d="M513.333-513.333H812q-12.333-118-96.166-203.167Q632-801.667 513.333-812v298.667ZM446.667-148v-664Q319-799.667 232.833-704.167T146.666-480q0 128.667 86.167 224.167T446.667-148Zm66.666 0Q632-157.999 716-243.333t96-203.334H513.333V-148ZM480-480Zm0 400q-83 0-156-31.5T197-197q-54-54-85.5-127T80-480q0-83 31.5-156T197-763q54-54 127-85.5T480-880q83 0 155.833 31.5 72.834 31.5 127 85.667 54.167 54.166 85.667 127Q880-563 880-480q0 82.667-31.5 155.667T763-197.167Q709-143 636-111.5T480-80Z"/></svg>