<svg xmlns="http://www.w3.org/2000/svg" height="40" viewBox="0 -960 960 960" width="40"><path d="M480-299q102.3-82.573 154.484-158.953 52.183-76.38 52.183-142.714 0-58-21.167-98.5t-52.173-65.92q-31.006-25.42-67.18-36.834-36.174-11.413-66.147-11.413-29.973 0-66.147 11.413-36.174 11.414-67.18 36.834-31.006 25.42-52.173 65.92t-21.167 98.5q0 66.334 52.184 142.714Q377.7-381.573 480-299Zm0 71q-8.378 0-16.338-2.667-7.959-2.667-14.662-8-81-63-161.666-156.5-80.667-93.5-80.667-205.5 0-69.138 24.833-121.236 24.833-52.097 64.167-87.43 39.333-35.334 87.986-53Q432.306-880 479.987-880q47.68 0 96.346 17.667 48.667 17.666 88 53Q703.667-774 728.5-721.903q24.833 52.098 24.833 121.236 0 112-80.666 205.5Q592-301.667 511-238.667q-6.703 5.333-14.662 8Q488.378-228 480-228Zm.059-305.334q30.274 0 51.774-21.559t21.5-51.833q0-30.274-21.559-51.774T479.941-680q-30.274 0-51.774 21.559t-21.5 51.833q0 30.274 21.559 51.774t51.833 21.5ZM240-80q-14.167 0-23.75-9.617t-9.583-23.833q0-14.216 9.583-23.716 9.583-9.5 23.75-9.5h480q14.167 0 23.75 9.617t9.583 23.833q0 14.216-9.583 23.716Q734.167-80 720-80H240Zm240-520.667Z"/></svg>