<svg xmlns="http://www.w3.org/2000/svg" height="40" viewBox="0 -960 960 960" width="40"><path d="M146.666-160q-27 0-46.833-19.833T80-226.666v-506.668q0-27 19.833-46.833T146.666-800h406.668q14.167 0 23.75 9.617t9.583 23.833q0 14.216-9.583 23.716-9.583 9.5-23.75 9.5H146.666v506.668h666.668v-246.668q0-14.167 9.617-23.75t23.833-9.583q14.216 0 23.716 9.583 9.5 9.583 9.5 23.75v246.668q0 27-19.833 46.833T813.334-160H146.666Zm386.668-285.667L420.666-333q-10 10-23.333 9.5Q384-324 373.739-334q-9.406-10-9.572-23.333Q364-370.666 374-380.666l112.667-112.668h-66q-14.167 0-23.75-9.617t-9.583-23.833q0-14.216 9.583-23.716 9.583-9.5 23.75-9.5h146q14.166 0 23.75 9.583 9.583 9.584 9.583 23.75v146q0 14.167-9.617 23.75t-23.833 9.583q-14.216 0-23.716-9.583-9.5-9.583-9.5-23.75v-65Zm233.333-127.667q-46.667 0-80-33.055-33.333-33.056-33.333-80.278 0-46.666 33.333-80Q720-800 767-800t80 33.333q33 33.334 33 80.334 0 46.999-33.056 79.999-33.055 33-80.277 33Z"/></svg>