<svg xmlns="http://www.w3.org/2000/svg" height="40" viewBox="0 -960 960 960" width="40"><path d="M153.333-327.334q-14.166 0-23.75-9.616Q120-346.567 120-360.784q0-14.216 9.583-23.716 9.584-9.5 23.75-9.5h244q14.167 0 23.75 9.617t9.583 23.833q0 14.217-9.583 23.717-9.583 9.499-23.75 9.499h-244Zm0-163.333q-14.166 0-23.75-9.617Q120-509.901 120-524.117q0-14.216 9.583-23.716 9.584-9.5 23.75-9.5H562q14.167 0 23.75 9.617t9.583 23.833q0 14.216-9.583 23.716-9.583 9.5-23.75 9.5H153.333Zm0-163.333q-14.166 0-23.75-9.617Q120-673.234 120-687.451q0-14.216 9.583-23.716 9.584-9.5 23.75-9.5H562q14.167 0 23.75 9.617t9.583 23.833q0 14.217-9.583 23.717-9.583 9.5-23.75 9.5H153.333Zm499.245 439.667q-6.578 0-12.245-2.167-5.666-2.167-11-7.5L538-315.333q-9.667-9.667-9.833-23.167Q528-352 538-362q9.667-9.666 23.478-10.166 13.811-.5 23.855 9.166l67.334 67.001L809-452.333q9.867-10 23.434-9.5 13.566.5 23.827 10.5 9.406 10 9.572 23.666Q866-414 856-404L676-224q-5.333 5.333-11.089 7.5t-12.333 2.167Z"/></svg>