<svg xmlns="http://www.w3.org/2000/svg" height="40" viewBox="0 -960 960 960" width="40"><path d="m642.666-402.666-47.333-48L641.335-480 409.329-631.337l-76.662-76.662V-730q3.333-14.667 17.999-20.833 14.667-6.167 28.667 3.166L723.667-510q15.667 10 15.5 28-.167 18-15.833 28l-80.668 51.334ZM768.667-88 528-329.333l-148.667 95q-16.666 11-34 1.166Q328-243 328-263v-266.333l-239.333-240Q79-779 79-792.667q0-13.666 9.667-23.333 9.666-9.667 23.333-9.667 13.667 0 23.333 9.667l681 681q10 10 9.667 23.5-.333 13.5-10.333 23.5-10 9.666-23.5 9.833-13.5.167-23.5-9.833Zm-374-371.334Zm0 136.001L477.334-376l-82.667-83.334v136.001Zm14.662-308.004Z"/></svg>