<svg xmlns="http://www.w3.org/2000/svg" height="40" viewBox="0 -960 960 960" width="40"><path d="M480-161.333q-37.333 0-63.334 20.666Q390.666-120 344-120t-73-20.667q-26.333-20.666-63.667-20.666Q179-161.333 160-148.5T115-127q-12.667 4.667-23.833-4Q80-139.667 80-154.667q0-14.999 10-26.166T113.667-198q19.666-9 38.666-19.833 19-10.833 55-10.833 49.333 0 75.667 21 26.333 21 63.667 21 37.333 0 60.666-21 23.334-21 72.667-21t75.667 21q26.333 21 63.666 21 37.334 0 61.001-21 23.666-21 72.999-21 36 0 55 10.833t38 19.833Q860-192 870-180.833q10 11.167 10 26.166 0 15-11.167 23.667-11.166 8.667-23.833 4-26-8.667-44.333-21.5-18.334-12.833-47.334-12.833-37.333 0-62.333 20.666Q666-120 619.333-120q-46.666 0-74.333-20.667-27.667-20.666-65-20.666Zm0-185.334q-38 0-61.833 20.667-23.834 20.667-71.5 20.667-47.667 0-74.834-20.667-27.166-20.667-64.5-20.667-29 0-48.333 13.167-19.334 13.166-45.334 21.833Q101-307 90.5-316T80-338.667Q80-353 90-363.5q10-10.5 23-16.5 19.667-8.333 39-19.5 19.333-11.166 55.333-11.166 49.333 0 74.5 19.333T344-372q37.333 0 62-19.333t74-19.333q49.333 0 74.333 19.333T616.667-372Q654-372 679-391.333t74.333-19.333q36 0 55.334 11.166 19.333 11.167 39 19.5 13 6 22.666 16.5Q880-353 880-338.667 880-325 869.833-316q-10.166 9-22.833 4.333-26-8.667-45.333-21.833-19.334-13.167-48.334-13.167Q716-346.667 691.5-326t-72.167 20.667q-46.999 0-74.499-20.667-27.501-20.667-64.834-20.667ZM284-512l134.334-134.334L369-695.667q-26.333-26.334-53.167-39.167Q289-747.667 253-752q-18-2.667-30.5-15.334Q210-780 210-798q0-18.333 12.667-30.5 12.666-12.167 30.666-10.167 54 5 93 22.834 39 17.833 76.334 55.166l253.999 254q-12.999 9.667-27.999 14.5-15 4.833-32 4.833-37.334 0-62.667-20.666-25.334-20.667-74-20.667T406.333-508q-25 20.666-62.333 20.666-19 0-34-6.833T284-512Zm384-326q40.667 0 68.667 28.167 28 28.166 28 68.5 0 40.666-28 68.666t-68.667 28q-40.667 0-68.667-28t-28-68.666q0-40.334 28-68.5Q627.333-838 668-838Z"/></svg>