<svg xmlns="http://www.w3.org/2000/svg" height="40" viewBox="0 -960 960 960" width="40"><path d="M448-186.666h64V-266l141.334-150.667V-606H306.666v189.333L448-266.199v79.533Zm-66.667 33.333v-85.334l-123-131.667q-8.768-8.904-13.55-20.642Q240-402.714 240-415.667V-606q0-27.5 19.583-47.083t47.083-19.583H368l-33.333 33.333v-167.334q0-14.166 9.617-23.75Q353.901-840 368.117-840q14.216 0 23.716 9.583 9.5 9.584 9.5 23.75v134.001h157.334v-134.001q0-14.166 9.617-23.75Q577.9-840 592.117-840q14.216 0 23.716 9.583 9.5 9.584 9.5 23.75v167.334L592-672.666h61.334q27.5 0 47.083 19.583T720-606v190.333q0 12.953-4.783 24.691-4.782 11.738-13.55 20.642l-123 131.667v85.334q0 14.166-9.584 23.75Q559.5-120 545.333-120H414.667q-14.167 0-23.75-9.583-9.584-9.584-9.584-23.75ZM480-396.667Z"/></svg>