<svg xmlns="http://www.w3.org/2000/svg" height="40" viewBox="0 -960 960 960" width="40"><path d="M215-120q-21.667 0-36.5-14.833-14.833-14.834-14.833-36.5 0-21.667 14.833-36.5 14.833-14.833 36.5-14.833h74.667L185-575.333q-30.333-15-48.167-41.667Q119-643.667 119-682.667q0-48 34.667-82.666Q188.333-800 236.333-800q42.334 0 71.834 23.167 29.5 23.166 40.166 60.833h140.001v-52.667q0-13.666 9.833-23.5Q508-802 521.667-802q10.333 0 18.166 7 7.834 7 9.834 17l72.666-69.333q8.334-8.334 20.834-10.834t25.166 3.5L825.667-780q10 5.333 13.833 15.167 3.833 9.833-1.167 20.166Q833-734 822.833-731.5 812.667-729 803-734l-151.333-72L555-710.667v53.334L651.667-560 803-632.667q10.333-5 20.333-2 10 3 15 13.334 5.334 10.666 1.334 21-4 10.333-14.667 15.666L671-512q-13.333 6.666-26.167 5.5-12.833-1.167-22.5-10.833l-72.666-69.334q-2 11.334-9.834 17.667-7.833 6.333-18.166 6.333-13.667 0-23.5-9.833t-9.833-23.5v-53.334H347q-1 10.667-6.5 21.334T327-609.333l203.333 386.667h102.001q21.666 0 36.5 14.833 14.833 14.833 14.833 36.5 0 21.666-14.833 36.5Q654-120 632.334-120H215Zm21.333-512Q258-632 272.5-646.5t14.5-36.167q0-21.667-14.5-36.167t-36.167-14.5q-21.667 0-36.167 14.5t-14.5 36.167q0 21.667 14.5 36.167t36.167 14.5ZM361-222.666h94L271.667-574q-2 1.333-7.334 2.666l-8 2L361-222.666Zm94 0Z"/></svg>