<svg xmlns="http://www.w3.org/2000/svg" height="40" viewBox="0 -960 960 960" width="40"><path d="M683.333-120q-15 0-25.833-10.833-10.833-10.834-10.833-25.834v-120q0-15 11.5-25.833 11.5-10.833 28.5-10.833v-43.334q0-31.625 22.529-54.145 22.53-22.521 54.167-22.521t54.137 22.521q22.5 22.52 22.5 54.145v43.334q17 0 28.5 10.833t11.5 25.833v120q0 15-10.833 25.834Q858.333-120 843.333-120h-160ZM720-313.333h86.667v-43.275q0-18.392-12.442-30.892-12.441-12.5-30.833-12.5Q745-400 732.5-387.542 720-375.083 720-356.667v43.334ZM146.666-578.667h666.668-666.668Zm-66.666 44q0-47.033 32-78.85 32-31.816 78.666-31.816h578.668q47.033 0 78.849 31.816Q880-581.7 880-534.667v44.668q0 14.166-9.583 23.75-9.584 9.583-23.75 9.583-14 0-23.667-9.583-9.666-9.584-9.666-23.75v-44.668q0-18.7-12.65-31.35-12.65-12.65-31.35-12.65H190.666q-18.7 0-31.35 12.65-12.65 12.65-12.65 31.35v177.334h94.667V-368q0-27.5 19.584-47.083Q280.5-434.667 308-434.667h244.668q14.166 0 23.749 9.617 9.584 9.617 9.584 23.834 0 14.216-9.584 23.716-9.583 9.5-23.749 9.5H308v181.334h244.668q14.166 0 23.749 9.617 9.584 9.617 9.584 23.833 0 14.216-9.584 23.716-9.583 9.5-23.749 9.5H308q-27.5 0-47.083-19.583-19.584-19.583-19.584-47.083v-104.001h-94.667q-27.5 0-47.083-19.583T80-357.333v-177.334Zm161.333-110.666v-128.001q0-27.5 19.584-47.083Q280.5-840 308-840h344q27.5 0 47.083 19.583 19.584 19.583 19.584 47.083v128.001H652v-128.001H308v128.001h-66.667Z"/></svg>