<svg xmlns="http://www.w3.org/2000/svg" height="40" viewBox="0 -960 960 960" width="40"><path d="M78.667-320v-100q0-34.666 17.833-63.166T145.333-526q60.667-27.666 124-44.166 63.334-16.5 129.334-16.5 49.285 0 97.476 9.333 48.191 9.334 94.857 26.334-12.999 12-24.367 25.326-11.367 13.327-20.299 28.673-36-12-72.813-17.5-36.814-5.5-74.854-5.5-58.667 0-115 14.5Q227.333-491 173.333-466q-13 6.333-20.5 18.644-7.5 12.31-7.5 27.356v33.334h363.001q-1.333 16.666-.667 33.333.667 16.666 2.667 33.333H78.667Zm320-66.666Zm0-254.001q-64 0-108.667-44.666Q245.333-730 245.333-794T290-902.666q44.667-44.667 108.667-44.667t108.666 44.667Q552-858 552-794t-44.667 108.667q-44.666 44.666-108.666 44.666Zm0-66.666q36.333 0 61.5-25.167 25.166-25.166 25.166-61.5 0-36.333-25.166-61.5-25.167-25.167-61.5-25.167-36.334 0-61.501 25.167Q312-830.333 312-794q0 36.334 25.166 61.5 25.167 25.167 61.501 25.167Zm0-86.667Zm373.332 0q0 64-44.666 108.667-44.667 44.666-108.667 44.666-12.333 0-26-1.5-13.666-1.5-25.333-5.833 27-30 39.166-68 12.167-38 12.167-78t-12.833-77.666q-12.834-37.667-38.5-68.334 12.666-4.583 25.333-5.958 12.667-1.375 26.2-1.375 63.8 0 108.467 44.667Q771.999-858 771.999-794Zm-5.647 627.333q-80.018 0-136.518-56.55T573.334-360q0-80.667 56.55-137t136.783-56.333q80.666 0 137 56.333Q960-440.667 960-359.685q0 80.018-56.333 136.518-56.334 56.5-137.315 56.5ZM732-275.333 868.333-412 845-435.333l-113 113-56.333-57-23.334 23.666L732-275.333Z"/></svg>