<svg xmlns="http://www.w3.org/2000/svg" height="40" viewBox="0 -960 960 960" width="40"><path d="M120-546.666v-260.001q0-14.166 9.583-23.75 9.584-9.583 23.75-9.583h260.001q14.166 0 23.75 9.583 9.583 9.584 9.583 23.75v260.001q0 14.166-9.583 23.75-9.584 9.583-23.75 9.583H153.333q-14.166 0-23.75-9.583Q120-532.5 120-546.666Zm66.666-33.333h193.335v-193.335H186.666v193.335ZM120-153.333v-260.001q0-14.166 9.583-23.75 9.584-9.583 23.75-9.583h260.001q14.166 0 23.75 9.583 9.583 9.584 9.583 23.75v260.001q0 14.166-9.583 23.75Q427.5-120 413.334-120H153.333q-14.166 0-23.75-9.583-9.583-9.584-9.583-23.75Zm66.666-33.333h193.335v-193.335H186.666v193.335Zm326.667-360v-260.001q0-14.166 9.583-23.75Q532.5-840 546.666-840h260.001q14.166 0 23.75 9.583 9.583 9.584 9.583 23.75v260.001q0 14.166-9.583 23.75-9.584 9.583-23.75 9.583H546.666q-14.166 0-23.75-9.583-9.583-9.584-9.583-23.75Zm66.666-33.333h193.335v-193.335H579.999v193.335ZM758.667-120v-81.333H840V-120h-81.333ZM513.333-364.667v-82h81.334v82h-81.334Zm81.334 81.334v-81.334h82v81.334h-82Zm-81.334 82v-82h81.334v82h-81.334ZM594.667-120v-81.333h82V-120h-82Zm82-81.333v-82h82v82h-82Zm0-163.334v-82h82v82h-82Zm82 81.334v-81.334H840v81.334h-81.333Z"/></svg>