<svg xmlns="http://www.w3.org/2000/svg" height="40" viewBox="0 -960 960 960" width="40"><path d="M295-119q-36-1-68.5-18.5T165-189q-40-48-62.5-114.5T80-440q0-83 31.5-156T197-723q54-54 127-85.5T480-840q83 0 156 31.667 73 31.666 127 86.666t85.5 129q31.5 74 31.5 159Q880-358 855.667-291 831.333-224 786-178q-28.667 29.333-60 44.167Q694.667-119 662-119q-18 0-36-4.5T590-137l-56-28q-12.667-6.667-26.167-9.667-13.5-3-27.833-3-14.333 0-27.833 3-13.5 3-26.167 9.667l-56 28q-19 10-37.5 14.5T295-119Zm2.667-66.666q10.333 0 21.166-2.667Q329.667-191 340-196l56-28q19.667-9.666 40.5-14.666t42.5-5q21.667 0 42.667 4.666 21 4.667 41.333 15l57 28q10.333 5 20.667 7.667 10.333 2.667 20.666 2.667 21.667 0 41.667-10.667t39-32q34-38 52.667-92.667 18.667-54.666 18.667-114.667 0-142-96.667-239.833Q620-773.334 480-773.334t-236.667 98.667Q146.666-576 146.666-434q0 61 18.834 115.334 18.833 54.333 53.166 92 19 21.333 38.334 31.166 19.333 9.834 40.667 9.834ZM480-480Zm0 113.333q30.333 0 51.833-21.5t21.5-51.833q0-8-1.5-16t-5.167-15.333L606-548.334q11.667 14 20 29.167 8.333 15.167 13.333 32.5Q643-474 652-464.334q9 9.667 21.667 9.667 17.333 0 26.5-14.833 9.166-14.834 4.166-32.5-22-75.667-84-123.5T480-673.333q-79.333 0-141.166 47.5Q277-578.333 255.667-502q-5 17.666 4.5 32.5 9.5 14.833 26.166 14.833 12.667 0 21.334-9.667 8.666-9.666 13-22.333 16-53.667 59.833-86.833 43.833-33.167 99.5-33.167 19.333 0 37.833 4.334 18.501 4.333 35.834 13L494-511.666q-3.333-.667-7-1.167t-7-.5q-30.333 0-51.833 21.5T406.667-440q0 30.333 21.5 51.833t51.833 21.5Z"/></svg>