<svg xmlns="http://www.w3.org/2000/svg" height="40" viewBox="0 -960 960 960" width="40"><path d="M126.667-80v-16.333q0-22.054 11.939-40.432 11.938-18.379 33.061-27.568 25.385-10.681 52.235-16.507 26.85-5.826 56.141-5.826 29.29 0 56.111 5.826 26.821 5.826 52.179 16.507 21.123 9.189 33.061 27.568 11.939 18.378 11.939 40.432V-80H126.667Zm400 0v-16.333q0-22.054 11.939-40.432 11.938-18.379 33.061-27.568 25.385-10.681 52.235-16.507 26.85-5.826 56.141-5.826 29.29 0 56.111 5.826 26.821 5.826 52.179 16.507 21.123 9.189 33.061 27.568 11.939 18.378 11.939 40.432V-80H526.667ZM279.97-236.667q-31.637 0-54.137-22.529t-22.5-54.167q0-31.637 22.53-54.137Q248.392-390 280.03-390q31.637 0 54.137 22.53 22.5 22.529 22.5 54.166 0 31.637-22.53 54.137-22.529 22.5-54.167 22.5Zm400.001 0q-31.638 0-54.138-22.529-22.5-22.529-22.5-54.167 0-31.637 22.53-54.137 22.529-22.5 54.166-22.5 31.638 0 54.138 22.53 22.5 22.529 22.5 54.166 0 31.637-22.53 54.137-22.529 22.5-54.166 22.5ZM506.667-426.333l33-33q8-8 18.666-8Q569-467.333 577-459q8.333 8.333 8.333 18.667 0 10.333-8.333 18.666L503.333-348q-10 10-23.333 10-13.333 0-23.333-10L383-421.667q-8.333-8.333-8-18.666.333-10.334 8.667-18.667 8.333-8.333 18.666-8.167Q412.667-467 421-459l32.333 32.667V-490q0-11.556 7.578-19.111 7.577-7.556 19.167-7.556 11.589 0 19.089 7.556 7.5 7.555 7.5 19.111v63.667ZM80-570v-16.333q0-22.054 11.939-40.433 11.938-18.378 33.061-27.567 25.375-10.681 52.215-16.507 26.839-5.827 56.118-5.827 23.334 0 47.5 4.334Q305-668 324.334-661q-15 16.334-23 33.667-8 17.333-8 41V-570H80Zm246.667 0v-16.333q0-22.054 11.939-40.433 11.938-18.378 33.061-27.567 25.385-10.681 52.235-16.507 26.85-5.827 56.141-5.827 29.29 0 56.111 5.827 26.821 5.826 52.179 16.507 21.123 9.189 33.061 27.567 11.939 18.379 11.939 40.433V-570H326.667Zm339.999 0v-16.333q0-23.667-7.666-41-7.667-17.333-22.667-33.667 19.334-7 43.167-11.333 23.833-4.334 47.167-4.334 29.279 0 56.118 5.827 26.84 5.826 52.215 16.507 21.122 9.189 33.061 27.567Q880-608.387 880-586.333V-570H666.666ZM233.304-726.667q-31.637 0-54.137-22.529-22.5-22.53-22.5-54.167t22.529-54.137q22.53-22.5 54.167-22.5t54.137 22.529q22.5 22.53 22.5 54.167t-22.53 54.137q-22.529 22.5-54.166 22.5Zm246.666 0q-31.637 0-54.137-22.529-22.5-22.53-22.5-54.167t22.53-54.137Q448.392-880 480.03-880q31.637 0 54.137 22.529 22.5 22.53 22.5 54.167t-22.53 54.137q-22.529 22.5-54.167 22.5Zm246.667 0q-31.637 0-54.137-22.529-22.5-22.53-22.5-54.167t22.53-54.137q22.529-22.5 54.166-22.5 31.637 0 54.137 22.529 22.5 22.53 22.5 54.167t-22.529 54.137q-22.53 22.5-54.167 22.5Z"/></svg>