<svg xmlns="http://www.w3.org/2000/svg" height="40" viewBox="0 -960 960 960" width="40"><path d="m838.333-112-248-248-90.667 90.667q-10 10-23.333 10-13.333 0-23.333-10L274.999-447.334q-10-10-9.5-23.666.5-13.667 10.167-23.667 10-10 23.833-10.166Q313.332-505 323.332-495l153.001 153.667 66-66L140.999-808q-10-10-9.5-23.667.5-13.667 10.167-23.666 10-10 23.833-10.167 13.833-.167 23.833 9.833l696.334 697.001q9.667 9.666 9.667 23.333 0 13.666-9.667 23.333Q876-102.333 862-102.333T838.333-112ZM264.334-269.333l-178-178.001Q76.667-457 77-471q.334-14 10-23.667 9.667-9.666 23.667-9.666 14 0 23.667 9.666l153.333 154.001L335-293.333l-24 24q-10 10-23.333 10-13.333 0-23.333-10ZM684.332-454l-47.333-47.333 194.334-194.334q9.667-9.666 23.334-9.833 13.666-.167 23.666 9.5 10 9.666 10.167 23.666.166 14-9.834 24L684.332-454Zm-94.666-94.666-47.333-47.333 100.668-100.668q9.667-9.666 23.667-9.666 13.999 0 23.666 9.666Q700.001-687 700.001-673q0 14-9.667 23.666L589.666-548.666Z"/></svg>