<svg xmlns="http://www.w3.org/2000/svg" height="40" viewBox="0 -960 960 960" width="40"><path d="M207.666-656 254-609.667q10 9.867 10 23.433 0 13.567-10.036 23.567-10.035 10-23.833 10-13.798 0-23.798-10L103.333-666q-10-10-10-23.334 0-13.333 10-23.333l104-104q9.667-9.666 23.272-9.666 13.605 0 23.5 9.405Q264-806.667 264-792.856T254-769l-46.334 46.333h471.001q66.55 0 113.941 47.416Q840-627.835 840-561.251t-47.461 113.918Q745.078-400 678.431-400H153.333q-14.166 0-23.75-9.617Q120-419.234 120-433.45q0-14.216 9.583-23.716 9.584-9.5 23.75-9.5h525.334q39.05 0 66.858-27.798 27.809-27.798 27.809-66.834t-27.809-66.869Q717.717-656 678.667-656H207.666ZM120-146.666v-106.668q0-27.5 19.583-47.083T186.666-320h586.668q27.5 0 47.083 19.583T840-253.334v106.668q0 27.5-19.583 47.083T773.334-80H186.666q-27.5 0-47.083-19.583T120-146.666Zm66.666 0h153.001v-106.668H186.666v106.668Zm219.667 0h146.334v-106.668H406.333v106.668Zm214 0h153.001v-106.668H620.333v106.668Z"/></svg>