<svg xmlns="http://www.w3.org/2000/svg" height="40" viewBox="0 -960 960 960" width="40"><path d="M477.667-428.667 191.666-143.333Q182-133.667 168.5-133.5q-13.5.167-23.5-9.833-9.667-9.667-9.667-23.333 0-13.667 9.667-23.334l393.334-393.333q-20.667-46-8.334-98 12.333-52 57-96 47.667-47 112-58.334Q763.333-847 804.333-806 846-764.333 834-700.667 822-637 773-587.333q-41.333 42.666-92.667 55.666-51.333 13-94.666-5.667L524.333-476l286 286q9.667 9.667 9.834 23.167.166 13.5-9.834 23.5-9.666 9.666-23.333 9.666-13.666 0-23.333-9.666l-286-285.334ZM291-468 171.667-587.333q-42.667-42.667-52-104-9.334-61.334 24.666-112 9-13 24.167-15 15.166-2 26.833 10L413-590 291-468Z"/></svg>