<svg xmlns="http://www.w3.org/2000/svg" height="40" viewBox="0 -960 960 960" width="40"><path d="M411-249Zm333.667-81.667q-12.742-4.143-19.538-16.571-6.796-12.429-2.705-24.616 4.909-13.813 17.076-20.313 12.167-6.5 25.5-1.833l132 44.667q13.247 4.216 19.457 16.441Q922.667-320.667 918-307q-4.333 13-16.5 19.167-12.167 6.166-24.833 1.833l-132-44.667Zm8.666-116q-13.666 0-23.5-9.833Q720-466.333 720-480.333q0-14 9.833-23.5 9.834-9.5 23.5-9.5h133.334q14.166 0 23.75 9.583Q920-494.167 920-480q0 13.667-9.583 23.5-9.584 9.833-23.75 9.833H753.333Zm13-120q-13.333 4.334-26.047-1.578-12.715-5.911-16.953-19.422-4.333-13.666 2.038-25.892 6.371-12.225 19.962-16.441l131.334-44q12.666-4.333 24.892 2.038Q913.784-665.591 918-652q4.333 12.333-1.578 24.762-5.911 12.428-19.422 16.571l-130.667 44ZM285-400q-52 0-88.5-36.5T160-525q0-26 10-48.5t27-39.5l83-84v-149.667q0-14.166 9.617-23.75Q299.234-880 313.45-880q14.216 0 23.716 9.583 9.5 9.584 9.5 23.75v155.333q0 10.783-4.166 20.892-4.167 10.109-11.167 17.442l-87.667 87q-7.846 7.959-12.423 18.571-4.577 10.613-4.577 22.551 0 23.878 17.448 41.045 17.447 17.167 40.711 17.167 15.508 0 24.842-5.334 9.333-5.333 22-16 16.666-13.333 36.166-23 19.5-9.666 42.167-9.666 18.667 0 38.167 7.666 19.499 7.667 40.833 25 12.666 10.667 21.637 16 8.97 5.334 24.348 5.334 24.348 0 41.349-17.167 17-17.167 17-41.389 0-12.111-4.398-23.075Q584.539-559.261 577-567l-87.666-87q-7-7.333-11.5-17.333-4.5-10.001-4.5-20.667v-154.667q0-14.166 9.617-23.75Q492.568-880 506.784-880q14.216 0 23.716 9.583 9.5 9.584 9.5 23.75V-698l84 84q17 17 26.5 40t9.5 49q0 52-36 88.5T535-400q-33 0-53.5-12.5T447-437q-15-12-23.5-14.5T410-454q-9 0-18.5 6T374-437q-14.667 12-34.984 24.5Q318.698-400 285-400Zm255 146v140.667q0 14.166-9.617 23.75Q520.766-80 506.55-80q-14.216 0-23.716-9.583-9.5-9.584-9.5-23.75v-146q0-10.783 4.5-20.891 4.5-10.109 11.5-17.443L577-384.666q7.539-7.757 11.936-18.098 4.398-10.342 4.398-21.976 0-12.927-4.398-23.593Q584.539-459 577-467l47-47q17 17 26.5 40t9.5 49q0 26-9.5 48T624-338l-84 84Zm-260 0-83-84q-17-17-27-39t-10-48q0-26 10-49t27-40l47 47q-8.334 8.666-12.834 18.952-4.5 10.286-4.5 23.143 0 11.572 4.834 21.905 4.833 10.334 12.166 18.334l87.667 86.999q7 7.334 11.167 17.443 4.166 10.108 4.166 20.891v146q0 14.166-9.617 23.75Q327.432-80 313.216-80 299-80 289.5-89.583q-9.5-9.584-9.5-23.75V-254Zm130-400Z"/></svg>