<svg xmlns="http://www.w3.org/2000/svg" height="40" viewBox="0 -960 960 960" width="40"><path d="M179-100q-17 17-39.5 17T100-100q-17-17-17-39t17-39l132-132-101-33.333q-12-4.334-11.5-16.334t12.5-15.666L451-471q9-2.667 16.333 4.667Q474.667-459 472-450l-95.667 319q-3.666 12-15.666 12.5T344.333-130L311-231 179-100Zm542-380q0 77.667-44.667 140.167-44.666 62.5-117 87.166Q546-248 533.667-254q-12.334-6-17-19.333-4.667-13.333 1.5-25.667 6.166-12.333 19.5-17 51-17 83.833-62 32.834-45 32.834-102 0-72-50.667-122.667T481-653.334q-57.667 0-102.334 32.834Q334-587.667 317-536.667q-4.667 13.334-16.834 19.5-12.166 6.167-25.499 1.5-13.334-4.666-19.167-17-5.833-12.333-1.167-25.666 24.667-71.334 85.834-116.5Q401.333-720 481-720q100 0 170 70t70 170Z"/></svg>