<svg xmlns="http://www.w3.org/2000/svg" height="40" viewBox="0 -960 960 960" width="40"><path d="M113.333-200Q99-200 89.5-209.5 80-219 80-233.333q0-14.333 9.5-23.833 9.5-9.5 23.833-9.5h733.334q14.333 0 23.833 9.5 9.5 9.5 9.5 23.833 0 14.333-9.5 23.833-9.5 9.5-23.833 9.5H113.333Zm0-120v-24.666q0-146.001 85.167-242.001T413.334-710v-23.334q0-28.333 19.166-47.499Q451.667-800 480-800t47.5 19.167q19.166 19.166 19.166 47.499V-710q130 27.333 215.001 123.333 85 96 85 242.001V-320H113.333Zm69.333-66.666h594.668q-14-120.001-99.334-191.001-85.333-71-198.667-71-113.333 0-197.833 71-84.501 71-98.834 191.001Zm297.334 0Z"/></svg>