<svg xmlns="http://www.w3.org/2000/svg" height="40" viewBox="0 -960 960 960" width="40"><path d="M520-80q-44.334 0-85.834-10.5T353.333-121q-12.334-6-16.334-19.5t2-25.833q5.334-12.334 18.334-17.167 13-4.833 25.333 1.5 32 17 66.5 26.167 34.5 9.167 70.834 9.167 122.333 0 207.834-85.5 85.5-85.501 85.5-207.834 0-123-85.667-209.5T519-736h-23l47.333 47.333Q553-679 553-665.334q0 13.667-9.667 23.334-9.666 9.666-23.333 9.666-13.667 0-23.333-9.666l-104-104q-5-5-7.334-10.834-2.333-5.833-2.333-12.5 0-6.666 2.333-12.499 2.334-5.834 7.334-10.834l104-104q9.666-9.666 23.333-9.666 13.667 0 23.333 9.666Q553-887 553-873.334q0 13.667-9.667 23.334L496-802.667h23q150.667 0 255.833 106Q880-590.667 880-440q0 150-105 255T520-80ZM268-227q-6.667 0-12.334-2.167-5.666-2.167-11-7.5L63.333-418q-5.333-5.333-7.5-11-2.166-5.667-2.166-12.333 0-6.667 2.166-12.334 2.167-5.666 7.5-11L244.666-646q5.334-5.333 11-7.5 5.667-2.166 12.334-2.166 6.666 0 12.333 2.166 5.667 2.167 11 7.5l181.333 181.333q5.333 5.334 7.5 11 2.167 5.667 2.167 12.334 0 6.666-2.167 12.333t-7.5 11L291.333-236.667q-5.333 5.333-11 7.5T268-227Zm0-79 132.667-132.667L268-571.333 135.333-438.667 268-306Zm0-132.667Z"/></svg>