<svg xmlns="http://www.w3.org/2000/svg" height="40" viewBox="0 -960 960 960" width="40"><path d="m312.333-422-33.666-33.667q-10-10-23.334-9.833-13.333.166-23.594 10.166-9.406 10-9.572 23.334Q222-418.667 232-408.667l57.667 57.666q10 10 23.333 10 13.333 0 23.333-10l142-142q10-10.181 10-23.757 0-13.576-10.035-23.576t-23.833-10q-13.798 0-23.798 10L312.333-422ZM640-485l-40.667-40.667q-9.666-9.667-23.333-9.667-13.667 0-23.333 9.667Q543-516 543-502.334q0 13.667 9.667 23.333l40.667 40.667-40.667 40.667Q543-388 543-374.334q0 13.667 9.667 23.333 9.666 9.667 23.333 9.667 13.667 0 23.333-9.667L640-391.667l40.667 40.666q9.666 9.667 23.333 9.667 13.667 0 23.333-9.667Q737-360.667 737-374.334q0-13.666-9.667-23.333l-40.667-40.667 40.667-40.667Q737-488.667 737-502.334q0-13.666-9.667-23.333-9.666-9.667-23.333-9.667-13.667 0-23.333 9.667L640-485ZM146.666-160q-27 0-46.833-20.167Q80-200.333 80-226.666v-506.668q0-26.333 19.833-46.499Q119.666-800 146.666-800h239.668q13.629 0 25.981 5.333 12.352 5.334 21.411 14.392l46.941 46.941h332.667q26.333 0 46.499 20.167Q880-693.001 880-666.667v440.001q0 26.333-20.167 46.499Q839.667-160 813.334-160H146.666Zm0-66.666h666.668v-440.001H453l-66.666-66.667H146.666v506.668Zm0 0v-506.668 506.668Z"/></svg>