<svg xmlns="http://www.w3.org/2000/svg" height="40" viewBox="0 -960 960 960" width="40"><path d="M264.666-160q-27.333 0-45.666-18.333-18.333-18.334-18.333-45.667 0-19 10-36.166 10-17.167 28-24.5l166.666-66v-122.001q-56 67-117 105.167T154-322q-13.667 2-23.833-7.833Q120-339.667 120-354q0-13.666 9.333-23.666 9.334-10 23-12 57-7.334 105-36 48-28.667 87.334-77.667L401.333-568q10.667-12.667 25-20.333 14.334-7.667 31-7.667h45.334q16.666 0 31.333 7.667 14.667 7.666 25.333 20.333L616-503.333q40.667 47.667 88 77t103.667 36.667q13.666 2 23 12Q840-367.666 840-354q0 14.333-10.167 24.167Q819.667-320 806-322q-73.333-7.333-134.333-45.5t-117-105.167v122.001l166.666 66q18 7.333 28 24.5 10 17.166 10 36.166 0 27.333-18.333 45.667Q722.667-160 695.334-160H397.333v-14q0-26 16.334-42.333Q430-232.666 456-232.666h128.667q8.333 0 14.166-5.834 5.834-5.833 5.834-14.166 0-8.334-5.834-14.167-5.833-5.833-14.166-5.833H456q-43.333 0-70.333 27.666-27 27.667-27 71v14h-94.001ZM480-649.334q-31 0-53.167-22.166-22.166-22.167-22.166-53.167t22.166-53.166Q449-800 480-800t53.167 22.167q22.166 22.166 22.166 53.166 0 31-22.166 53.167Q511-649.334 480-649.334Z"/></svg>