<svg xmlns="http://www.w3.org/2000/svg" height="40" viewBox="0 -960 960 960" width="40"><path d="M146.666-480q0 60.667 19.667 113.5 19.667 52.834 55 96.167 9 11.333 9.333 25.167.334 13.833-9.666 23.833-10 10-24.667 9.5-14.666-.5-24.333-12.5-44-52-68-116.834Q80-406 80-480t24-139q24-65 68-116.667 9.667-12 24.333-12.5 14.667-.5 24.667 9.5 10 10 9.666 23.833-.333 13.834-9.333 25.167-35.333 43.667-55 96.5Q146.666-540.333 146.666-480Zm160 0q0 27 7.667 51.5t22 45.167q8.333 12 7.833 26t-10.499 24q-10 10-23.667 9.5-13.667-.5-22-11.834-22.333-29.666-35.167-66.666Q240-439.333 240-480q0-41 12.833-77.833 12.834-36.834 35.167-66.5 8.667-11.334 22.5-11.667 13.833-.333 23.833 9.667 10 9.999 10.5 23.833.5 13.833-7.833 25.833Q322.666-556 314.666-531.5t-8 51.5ZM480-400q-33 0-56.5-23.5T400-480q0-33 23.5-56.5T480-560q33 0 56.5 23.5T560-480q0 33-23.5 56.5T480-400Zm173.334-80q0-27-7.667-51.5t-22-45.167q-8.333-12-7.667-26 .667-14 10.667-24t23.333-9.5q13.333.5 22 11.834 22.333 29.666 35.167 66.5Q720-521 720-480q0 40.667-12.833 77-12.834 36.333-35.167 66.667-8.333 11.333-22.333 11.666-14 .334-24-9.666t-10.5-23.5q-.5-13.5 7.833-25.5Q637.334-404 645.334-428.5t8-51.5Zm160 0q0-60.667-19.667-113.5-19.667-52.834-55-96.167-9-11.333-9.5-25.5t9.5-24.166q10-10 25.166-9.167Q779-747.667 788-735.667q44 52.334 68 117.334T880-480q0 73.333-24 138.167-24 64.833-68 117.5-9 12-24 12.5t-25-9.5q-10-10-9.667-23.833.334-13.834 9.334-25.167 35.333-43.667 55-96.5Q813.334-419.667 813.334-480Z"/></svg>