<svg xmlns="http://www.w3.org/2000/svg" height="40" viewBox="0 -960 960 960" width="40"><path d="M106.666-360q-27.5 0-47.083-19.583T40-426.666v-386.668q0-27.5 19.583-47.083T106.666-880h746.668q27.5 0 47.083 19.583T920-813.334v386.668q0 27.5-19.583 47.083T853.334-360H106.666Zm0-453.334v386.668h746.668v-386.668H106.666ZM812-256l-659 34q-13 1-22-7t-10-21q-1-13 7.5-22t21.5-10l659-34q13-1 22 7t10 21q1 13-7.5 22T812-256Zm-2 135H150q-13 0-21.5-8.5T120-151q0-13 8.5-21.5T150-181h660q13 0 21.5 8.5T840-151q0 13-8.5 21.5T810-121ZM416.488-506.667q71.958 0 138.568-25 66.611-25 116.944-77Q676.333-578 699.333-558T754-531.334q9 2 20.833 1.167Q786.666-531 786.666-546v-148q0-15-11.833-15.833Q763-710.666 754-708.666q-32.334 7.666-55.667 27.333-23.333 19.666-27 51.333-51.549-49.753-117.201-76.543-65.653-26.79-137.627-26.79-76.838 0-137.505 23.166Q218.334-687 165.334-631q-1.667 1.667-4.334 10.667 0 3 4.334 11.333 53 56 113.666 79.167 60.667 23.166 137.488 23.166ZM106.666-813.334v386.668-386.668Z"/></svg>