<svg xmlns="http://www.w3.org/2000/svg" height="40" viewBox="0 -960 960 960" width="40"><path d="M122-73.333v-135.924Q87.667-222 63.833-251.833 40-281.667 40-318v-365.333q0-14.167 9.583-23.75 9.584-9.584 23.75-9.584H122v-170q0-15 9.167-24.166Q140.333-920 155.333-920t24.167 9.167q9.166 9.166 9.166 24.166v170h48.667q14.167 0 23.75 9.584 9.583 9.583 9.583 23.75V-318q0 36.333-23.5 66.167-23.5 29.833-58.5 42.576v135.924q0 14.166-9.617 23.75Q169.433-40 155.216-40 141-40 131.5-49.583q-9.5-9.584-9.5-23.75Zm324.667 0v-135.924Q412.334-222 388.5-251.833 364.667-281.667 364.667-318v-365.333q0-14.167 9.583-23.75 9.583-9.584 23.75-9.584h48.667v-170q0-15 9.166-24.166Q465-920 480-920q15 0 24.167 9.167 9.166 9.166 9.166 24.166v170H562q14.167 0 23.75 9.584 9.583 9.583 9.583 23.75V-318q0 36.333-23.5 66.167-23.5 29.833-58.5 42.576v135.924q0 14.166-9.617 23.75Q494.099-40 479.883-40q-14.216 0-23.716-9.583-9.5-9.584-9.5-23.75Zm324.667 0v-135.924Q737-222 713.167-251.833 689.334-281.667 689.334-318v-365.333q0-14.167 9.583-23.75 9.583-9.584 23.75-9.584h48.667v-170q0-15 9.166-24.166Q789.667-920 804.667-920q15 0 24.166 9.167Q838-901.667 838-886.667v170h48.667q14.166 0 23.75 9.584Q920-697.5 920-683.333V-318q0 36.333-23.833 66.167Q872.333-222 838-209.257v135.924q0 14.166-9.617 23.75Q818.766-40 804.55-40q-14.216 0-23.716-9.583-9.5-9.584-9.5-23.75ZM106.666-650v176H204v-176h-97.334Zm324.667 0v176h97.334v-176h-97.334ZM756-650v176h97.334v-176H756ZM155.333-271.333q20.334 0 34.5-13.833Q204-299 204-317.986v-89.348h-97.334v89.348q0 18.986 14.167 32.82 14.167 13.833 34.5 13.833Zm324.667 0q20.333 0 34.5-13.833 14.167-13.834 14.167-32.82v-89.348h-97.334v89.348q0 18.986 14.167 32.82 14.167 13.833 34.5 13.833Zm324.667 0q20.333 0 34.5-13.833 14.167-13.834 14.167-32.82v-89.348H756v89.348q0 18.986 14.167 32.82 14.166 13.833 34.5 13.833ZM155.333-440.667Zm324.667 0Zm324.667 0Z"/></svg>