<svg xmlns="http://www.w3.org/2000/svg" height="40" viewBox="0 -960 960 960" width="40"><path d="M358.667-40q-16.434 0-27.55-11.117Q320-62.233 320-78.667v-482.666q0-16.434 11.117-27.55Q342.233-600 358.667-600h242.666q16.434 0 27.55 11.117Q640-577.767 640-561.333v482.666q0 16.434-11.117 27.55Q617.767-40 601.333-40H358.667Zm121.164-355.333q18.831 0 31.833-13.003 13.003-13.002 13.003-31.833 0-18.831-12.954-32.331Q498.76-486 480-486q-19.32 0-32.66 13.34Q434-459.32 434-440q0 18.76 13.5 31.713 13.5 12.954 32.331 12.954Zm.031-338.001q-34.138 0-66 10.334-31.862 10.333-59.529 30.667Q342.861-684 328.93-684.5q-13.93-.5-23.597-10.167-10-10.182-9.5-23.757.5-13.576 11.5-22.243 37.334-29 81.461-44.166Q432.921-800 480.127-800q47.206 0 91.206 15.167 44 15.166 81.334 44.166 11.143 8.572 11.571 22.286.429 13.714-9.571 23.714Q645-685 631.334-684.333q-13.667.666-25-7.667-27.667-20.334-60-30.834-32.334-10.5-66.472-10.5Zm.138-160q-65.993 0-126.663 21.834-60.671 21.833-111.004 63.167-11.861 9.166-26.264 9.583-14.403.416-24.402-9.583-10-10-9.667-24 .333-14 11.667-23 60.666-50 133.676-77.334Q400.353-960 480-960q79.171 0 152.252 26.833 73.081 26.834 132.415 78.834 11.143 9.207 11.571 23.437.429 14.229-9.571 24.229Q757-797 742.834-797.5 728.667-798 717-807.667q-50-42.333-110.667-64Q545.667-893.334 480-893.334Zm-93.334 786.668h186.668v-426.668H386.666v426.668Zm0 0h186.668-186.668Z"/></svg>