<svg xmlns="http://www.w3.org/2000/svg" height="40" viewBox="0 -960 960 960" width="40"><path d="M480.053-809.334q-31.053 0-53.22-22.113-22.166-22.114-22.166-53.167t22.113-53.219Q448.894-960 479.947-960t53.22 22.114q22.166 22.113 22.166 53.166 0 31.053-22.113 53.22-22.114 22.166-53.167 22.166ZM370.667-233.333v-456.001Q318.334-694 265.667-701t-102-18q-15-3.334-23.5-15.667t-4.834-27q3.667-14.666 17.334-21 13.666-6.333 29-3Q253-770 328.833-763q75.834 7 151.167 7t151.167-7q75.833-7 147.166-22.667 15.334-3.333 29.334 3 14 6.334 17.666 21 3.667 14.667-5.166 27-8.834 12.333-23.834 15.667-49.333 11-102 18t-105 11.666v456.001q0 14.166-9.617 23.75Q570.099-200 555.883-200q-14.216 0-23.716-9.583-9.5-9.584-9.5-23.75v-209.334h-85.334v209.334q0 14.166-9.617 23.75Q418.099-200 403.883-200q-14.216 0-23.716-9.583-9.5-9.584-9.5-23.75ZM318 0q-17 0-27.833-10.833-10.834-10.834-10.834-27.834T290.167-66.5Q301-77.333 318-77.333T345.833-66.5q10.834 10.833 10.834 27.833t-10.834 27.834Q335 0 318 0Zm162.667 0q-17 0-27.834-10.833Q442-21.667 442-38.667T452.833-66.5q10.834-10.833 27.834-10.833T508.5-66.5q10.833 10.833 10.833 27.833T508.5-10.833Q497.667 0 480.667 0Zm162.666 0q-17 0-27.833-10.833-10.833-10.834-10.833-27.834T615.5-66.5q10.833-10.833 27.833-10.833T671.167-66.5Q682-55.667 682-38.667t-10.833 27.834Q660.333 0 643.333 0Z"/></svg>