<svg xmlns="http://www.w3.org/2000/svg" height="40" viewBox="0 -960 960 960" width="40"><path d="M240-520q-83 0-141.5-58.5T40-720q0-84 58.5-142T240-920q84 0 142 58t58 142q0 83-58 141.5T240-520Zm0-66.666q56.667 0 95-38.889 38.334-38.889 38.334-94.445 0-56.667-38.334-95-38.333-38.334-95-38.334-55.556 0-94.445 38.334-38.889 38.333-38.889 95 0 55.556 38.889 94.445 38.889 38.889 94.445 38.889ZM626.666-40q-27.5 0-47.083-19.583T560-106.666v-226.668q0-27.5 19.583-47.083T626.666-400h226.668q27.5 0 47.083 19.583T920-333.334v226.668q0 27.5-19.583 47.083T853.334-40H626.666Zm0-66.666h226.668v-226.668H626.666v226.668ZM740-220ZM240-720Zm473 54.666L294.666-248q6.334 12 9.834 25.433 3.5 13.434 3.5 27.9 0 46.667-32.834 80-32.833 33.334-80.466 33.334-46.7 0-80.033-33.334Q81.333-148 81.333-194.7q0-47.633 33.334-80.466Q148-308 194.667-308q14.466 0 27.9 3.5Q236-301 248-294.666L665.334-713Q659-725 655.5-738.167q-3.5-13.166-3.5-27.166 0-47.667 33.334-80.5 33.333-32.834 80.033-32.834 47.633 0 80.466 32.834 32.834 32.833 32.834 80.466 0 46.7-32.834 80.033Q813-652 765.333-652q-14 0-27.166-3.5Q725-659 713-665.334Z"/></svg>