<svg xmlns="http://www.w3.org/2000/svg" height="40" viewBox="0 -960 960 960" width="40"><path d="M320-259.999v-173.334H189.333q-21.574 0-30.287-18.833-8.713-18.834 4.62-35.5L454.333-848q9.92-12.333 25.627-12.333 15.707 0 25.707 12.333l290.667 360.334q13.333 16.666 4.62 35.5-8.713 18.833-30.287 18.833H640v173.334q0 14.166-9.583 23.749-9.584 9.584-23.75 9.584H353.333q-14.166 0-23.75-9.584Q320-245.833 320-259.999Zm66.666-33.334h186.668v-206.666h125.667L480-775.334 260.999-499.999h125.667v206.666Zm93.334-241ZM179.999-80q-14.166 0-23.749-9.617-9.584-9.617-9.584-23.833 0-14.216 9.584-23.716 9.583-9.5 23.749-9.5h600.002q14.166 0 23.749 9.617 9.584 9.617 9.584 23.833 0 14.216-9.584 23.716-9.583 9.5-23.749 9.5H179.999Z"/></svg>