<svg xmlns="http://www.w3.org/2000/svg" height="40" viewBox="0 -960 960 960" width="40"><path d="M106.666-80q-27 0-46.833-19.833T40-146.666V-566q0-14.167 9.617-23.75t23.833-9.583q14.216 0 23.716 9.583 9.5 9.583 9.5 23.75v419.334h599.332q14.167 0 23.75 9.617t9.583 23.833q0 14.216-9.583 23.716-9.583 9.5-23.75 9.5H106.666Zm133.333-133.333q-27 0-46.833-19.833t-19.833-46.833v-458.668q0-14.167 9.583-23.75t23.75-9.583h194.667v-81.334q0-27 19.834-46.833Q441-920 468-920h157.333q27 0 46.833 19.833t19.833 46.833V-772h194.668q14.166 0 23.75 9.583 9.583 9.583 9.583 23.75v458.668q0 27-19.833 46.833t-46.833 19.833H239.999Zm0-66.666h613.335v-425.335H239.999v425.335ZM468-772h157.333v-81.334H468V-772ZM239.999-279.999v-425.335 425.335Zm220-106.334q0 10 8.5 14.666 8.5 4.667 17.167-.666L644.332-474q7.667-5 7.667-14.166 0-9.167-7.667-14.5L485.666-604.333q-8.667-5.333-17.167-.667-8.5 4.667-8.5 14.667v204Z"/></svg>