<svg xmlns="http://www.w3.org/2000/svg" height="40" viewBox="0 -960 960 960" width="40"><path d="M446.667-113.333v-146.668H261q-13.63 0-25.982-5.333-12.351-5.333-21.351-14.333l-70.334-70.334q-10-9.999-10-23.333 0-13.333 10-23.333L213.667-467q9-9 21.351-14.334 12.352-5.333 25.982-5.333h185.667v-86.667H193.333q-14.166 0-23.75-9.583Q160-592.5 160-606.667v-160q0-14.166 9.583-23.75 9.584-9.583 23.75-9.583h253.334v-46.667q0-14.166 9.617-23.75Q465.901-880 480.117-880q14.216 0 23.716 9.583 9.5 9.584 9.5 23.75V-800H699q13.63 0 25.982 5.333 12.351 5.334 21.351 14.334L816.667-710q10 10 10 23.333 0 13.333-10 23.333L746.333-593q-9 9-21.351 14.333-12.352 5.333-25.982 5.333H513.333v86.667h253.334q14.166 0 23.75 9.583Q800-467.5 800-453.334v160q0 14.167-9.583 23.75-9.584 9.583-23.75 9.583H513.333v146.668q0 14.166-9.617 23.75Q494.099-80 479.883-80q-14.216 0-23.716-9.583-9.5-9.584-9.5-23.75ZM226.666-640H699l46.667-46.667L699-733.334H226.666V-640ZM261-326.667h472.334v-93.334H261l-46.667 46.667L261-326.667ZM226.666-640v-93.334V-640Zm506.668 313.333v-93.334 93.334Z"/></svg>