<svg xmlns="http://www.w3.org/2000/svg" height="40" viewBox="0 -960 960 960" width="40"><path d="M765-40q-18.333 0-31.833-2.667-13.5-2.666-27.834-7.333L62-259q-9.333-2.667-13.5-11.167T47-288q2.667-9.333 11.333-13.666 8.667-4.334 18-1.667L220-256.666l24-75.667L101.333-379q-9.333-2.667-13.5-11.333-4.166-8.667-1.5-18 2.667-9.334 11.167-13.5 8.5-4.167 17.833-1.5l51.334 16.667v-146.667q0-10 5.5-18.167 5.5-8.167 14.5-12.5l195-84q7.333-3.333 14.166-4.333 6.834-1 15.167-1 32.667 0 50.667 27.166Q479.666-619 469.333-588L424-448l97.333-15.333q24.334-4.333 46.167 7.667 21.833 11.999 32.5 34.333l84.333 182.666 54.334 18.001Q748-218 752.167-209.5q4.166 8.5 1.5 17.833Q751-182.333 742.333-178q-8.666 4.333-18 1.667L611-213l-25 75 134.333 43.667q11.334 4 22.167 5.833 10.833 1.834 22.5 1.834 41.333 0 74.834-33.5 33.5-33.501 33.5-74.834 0-32-14-58.167t-42.667-43.167q-8-4.666-11.5-13.5-3.5-8.833-.167-17.833 3.333-9.333 11.5-13.833t16.5-.167q41.667 20.334 64.333 58.834Q920-244.333 920-195q0 62-46.5 108.5T765-40ZM541.667-152l25-76-279-90-24.001 75.667L541.667-152Zm56-114.666L542-387.334l-188.334 41.001 244.001 79.667Zm-305-99q-9.333-13.667-12.5-31.167t2.5-34.167l45-141-94.334 40.333v146.334l59.334 19.667ZM480-709.334q-31 0-53.167-22.166-22.166-22.167-22.166-53.167t22.166-53.166Q449-860 480-860t53.167 22.167q22.166 22.166 22.166 53.166 0 31-22.166 53.167Q511-709.334 480-709.334Z"/></svg>