<svg xmlns="http://www.w3.org/2000/svg" height="40" viewBox="0 -960 960 960" width="40"><path d="M420.667-331.333 620.333-459q12-7.667 12-21t-12-21L420.667-628.667q-12.334-8.666-25.5-1.5Q382-623 382-607.667v255.334q0 15.333 13.167 22.5 13.166 7.166 25.5-1.5ZM115-446.667q15 0 25.833 9.333Q151.666-428 155.333-413q6 27.666 16.167 53.833Q181.666-333 196.666-309q8.334 13 7.167 27.333-1.167 14.334-11.833 25-10.333 9.667-24 9-13.667-.666-22-12.333-23.333-33.667-38.667-72.167-15.333-38.5-22-79.167-2.333-14 6.5-24.666 8.834-10.667 23.167-10.667Zm77-270.667q10.666 10.667 12 25.334 1.333 14.666-6.667 27.333-15 24-25.5 50.333-10.5 26.334-16.5 54.001-3.667 14.333-14.5 24Q130-526.667 115-526.667q-14.333 0-23.5-10.5t-6.5-24.5q6.667-40.666 22-79.5 15.333-38.833 39-72.5 8.333-11.667 22-12.5 13.667-.833 24 8.833ZM250-197q10.667-11.667 25.833-13 15.167-1.333 28.833 7 24 13.667 49.834 24.667 25.833 11 52.5 18.333 14.333 3.667 23.667 14.667Q440-134.333 440-120q0 13.667-10.833 22-10.834 8.333-24.167 6-40.667-8-77.833-22.667-37.167-14.666-71.167-36-12-7.666-13.833-21.666-1.834-14 7.833-24.667Zm192.667-656.334q0 14.333-9.167 25.333-9.167 11-23.5 14.667-27.667 6.667-53.333 17.167Q331-785.667 307-771q-13.667 8.333-29.167 7.166-15.5-1.166-26.833-12.5-10.667-10.666-8.833-24.833Q244-815.334 256-823.667q34.667-22 72.833-35.833 38.167-13.834 79.501-21.834 13.333-2.333 23.833 6 10.5 8.334 10.5 22Zm370.667 366.667q0-119-74.167-210.5t-188.834-117.5q-12.333-2.667-20-14-7.666-11.334-7.666-24.667 0-13.333 9.666-22.166 9.667-8.834 22.334-6.5 142 26 233.666 137Q880-634 880-486.667q0 147.334-91.667 258Q696.667-118 554.667-91.333 542-89 532.333-97.833q-9.666-8.834-9.666-22.167 0-13.333 7.666-24.666 7.667-11.334 20-14 114.667-26 188.834-117.501 74.167-91.5 74.167-210.5Z"/></svg>