<svg xmlns="http://www.w3.org/2000/svg" height="40" viewBox="0 -960 960 960" width="40"><path d="M133.333-200q-22.222 0-37.778-15.578Q80-231.157 80-253.412q0-22.254 15.555-37.754 15.556-15.5 37.778-15.5H660q11.556 0 19.111 7.564 7.556 7.565 7.556 19.135v53.398q0 11.569-7.556 19.069Q671.556-200 660-200H133.333Zm623.256 0Q745-200 737.5-207.565q-7.5-7.564-7.5-19.134v-53.398q0-11.569 7.578-19.069 7.577-7.5 19.166-7.5t19.089 7.564q7.5 7.565 7.5 19.135v53.398q0 11.569-7.577 19.069-7.578 7.5-19.167 7.5Zm96.667 0q-11.589 0-19.089-7.565-7.5-7.564-7.5-19.134v-53.398q0-11.569 7.577-19.069 7.578-7.5 19.167-7.5 11.589 0 19.089 7.564 7.5 7.565 7.5 19.135v53.398q0 11.569-7.578 19.069-7.577 7.5-19.166 7.5Zm-96.667-150Q745-350 737.5-357.555q-7.5-7.556-7.5-19.111v-28q0-41.001-24-63.834-24-22.833-58-22.833h-68q-54.667 0-92-40.667t-37.333-95.333q0-54.667 37.333-92 37.333-37.334 92-37.334 11.556 0 19.111 7.578 7.556 7.577 7.556 19.167 0 11.589-7.556 19.089-7.555 7.5-19.111 7.5-33.333 0-54.667 21-21.333 21-21.333 55T525.333-569q21.334 24.334 54.377 24.334H648q54.918 0 95.126 36.666 40.207 36.667 40.207 90.667v40.667q0 11.555-7.577 19.111Q768.178-350 756.589-350Zm96.667 0q-11.589 0-19.089-7.555-7.5-7.556-7.5-19.111v-70.001q0-72-48.667-120t-121.333-48q-11.556 0-19.111-7.577Q630-629.822 630-641.411q0-11.589 7.556-19.089 7.555-7.5 19.111-7.5 32.666 0 54.333-23.333 21.667-23.334 21.667-56 0-32.667-21.667-56-21.667-23.334-54.333-23.334-11.556 0-19.111-7.577Q630-841.822 630-853.411q0-11.589 7.556-19.089 7.555-7.5 19.111-7.5 54.666 0 92 39Q786-802 786-747.333q0 31.666-12 55.5Q762-668 742.666-650 800-628 840-573.333q40 54.666 40 126.666v70.001q0 11.555-7.578 19.111Q864.845-350 853.256-350Z"/></svg>