<svg xmlns="http://www.w3.org/2000/svg" height="40" viewBox="0 -960 960 960" width="40"><path d="M751.667-60q-8.334 0-17.834-1t-18.5-3l-505-108q-42.666-9-75.833-35.833-33.167-26.834-52.167-66.834-.666-1.333-2-11.333 1-9.333 8.667-15.666 7.666-6.334 17.333-5.667 6.333.666 10.667 4.166 4.333 3.5 7.333 8.834Q139.666-264.666 164.5-244q24.833 20.667 55.167 27.334L241.333-212l146.001-98.666-32.667-150.667q-2.667-13-.667-28.5 2-15.5 9.333-26.834l106.667-170H360l-57 91.334q-7.667 12-20.333 15-12.667 2.999-24.667-4-12-7.667-15.333-21-3.333-13.334 4.333-25.334l67-107q4.333-7.666 12-11.666t16.667-4H548q24.333 0 39.5 13.666Q602.667-726 608-714.333l21 48q17.667 41 52.667 70t80 39q13.666 2.666 22.666 13.166t9 24.167q0 13.667-9.333 23t-22 7.333q-57.333-8.667-104.5-41.833-47.167-33.167-78.5-83.167l-80.667 129 125.667 101q5.333 4.334 8 9.667t4 11.333L674-120l50.667 10.334q6.666 2 13.5 2.5 6.833.5 13.5.5 24 0 47-9.334 23-9.333 42-26.666Q843-145 858-148q10.333.667 16.5 8.667t5.5 17.666q-.333 4.334-2.5 8.334t-5.5 6.666q-25.667 23.334-57.333 35Q783-60 751.667-60ZM604-134.666 572-340l-128.667-91.667 17 130.667q1.333 9-2.667 17.667-3.999 8.666-11.999 14L332.333-193 604-134.666Zm40.667-634.668q-31 0-53.167-22.166-22.166-22.167-22.166-53.167t22.166-53.166Q613.667-920 644.667-920t53.166 22.167Q720-875.667 720-844.667q0 31-22.167 53.167-22.166 22.166-53.166 22.166Z"/></svg>