<svg xmlns="http://www.w3.org/2000/svg" height="40" viewBox="0 -960 960 960" width="40"><path d="M406.666-280q-27.5 0-47.083-19.583T340-346.666v-266.668q0-27.5 19.583-47.083T406.666-680h146.668q27.5 0 47.083 19.583T620-613.334v266.668q0 27.5-19.583 47.083T553.334-280H406.666Zm-193.332 0h-140q-14.168 0-23.75-9.617Q40-299.234 40-313.45q0-14.216 9.583-23.716 9.584-9.5 23.75-9.5h140.001v-100.001H106.666q-27.5 0-47.083-19.583T40-513.333v-100.001q0-27.5 19.583-47.083T106.666-680h140.001q14.166 0 23.75 9.617Q280-660.766 280-646.55q0 14.216-9.583 23.716-9.584 9.5-23.75 9.5H106.666v100.001h106.668q27.5 0 47.083 19.583T280-446.667v100.001q0 27.5-19.583 47.083T213.334-280Zm640 0H713.333q-14.166 0-23.75-9.617Q680-299.234 680-313.45q0-14.216 9.583-23.716 9.584-9.5 23.75-9.5h140.001v-100.001H746.666q-27.5 0-47.083-19.583T680-513.333v-100.001q0-27.5 19.583-47.083T746.666-680h140.001q14.166 0 23.75 9.617Q920-660.766 920-646.55q0 14.216-9.583 23.716-9.584 9.5-23.75 9.5H746.666v100.001h106.668q27.5 0 47.083 19.583T920-446.667v100.001q0 27.5-19.583 47.083T853.334-280Zm-446.668-66.666h146.668v-266.668H406.666v266.668Z"/></svg>