<svg xmlns="http://www.w3.org/2000/svg" height="40" viewBox="0 -960 960 960" width="40"><path d="M686.378-566.667q-30.044 0-51.544-21.333-21.5-21.333-21.5-52v-160q0-30.667 21.541-52 21.542-21.333 51.792-21.333 30.666 0 52 21.333Q760-830.667 760-800v160q0 30.667-21.333 52-21.334 21.333-52.289 21.333ZM186.666-80q-27.5 0-47.083-19.583T120-146.666v-666.668q0-27.5 19.583-47.083T186.666-880h300.001q14.166 0 23.75 9.617Q520-860.766 520-846.55q0 14.216-9.583 23.716-9.584 9.5-23.75 9.5H186.666v666.668h466.668v-66.668q0-14.166 9.617-23.75 9.617-9.583 23.833-9.583 14.216 0 23.716 9.583 9.5 9.584 9.5 23.75v66.668q0 27.5-19.583 47.083T653.334-80H186.666Zm340.001-166.667H313.333q-14.166 0-23.75-9.617Q280-265.901 280-280.117q0-14.216 9.583-23.716 9.584-9.5 23.75-9.5h213.334q14.166 0 23.75 9.617Q560-294.099 560-279.883q0 14.216-9.583 23.716-9.584 9.5-23.75 9.5Zm-80-120H313.333q-14.166 0-23.75-9.617Q280-385.901 280-400.117q0-14.216 9.583-23.716 9.584-9.5 23.75-9.5h133.334q14.166 0 23.75 9.617Q480-414.099 480-399.883q0 14.216-9.583 23.716-9.584 9.5-23.75 9.5Zm240-126.666q52 0 91-31.5t51-79.167q3.667-15 13.736-25.5t24.333-10.5q14.264 0 23.431 11.167 9.166 11.166 6.5 26.166-12 67.334-60.167 115Q788.333-440 720-429.333V-360q0 14.167-9.617 23.75t-23.833 9.583q-14.216 0-23.716-9.583-9.5-9.583-9.5-23.75v-69.333Q586-440 537.334-487.667q-48.667-47.666-60.667-115-2.667-15 6.5-26.166Q492.334-640 506.598-640q14.264 0 24.333 10.5Q541-619 544.667-604q12 47.667 51.166 79.167 39.167 31.5 90.834 31.5Z"/></svg>