<svg xmlns="http://www.w3.org/2000/svg" height="40" viewBox="0 -960 960 960" width="40"><path d="M484-164q-15 0-25.5-10.5T448-200v-160q0-15 10.5-25.5T484-396h100q15 0 25.5 10.5T620-360v160q0 15-10.5 25.5T584-164H484Zm16-52h68v-128h-68v128ZM834-80H716q-15.667 0-25.833-10.167Q680-100.333 680-116v-74q0-15.667 10.167-25.833Q700.333-226 716-226h92v-42H706q-11 0-18.5-7.5T680-294q0-11 7.5-18.5T706-320h118q15.667 0 25.833 10.167Q860-299.667 860-284v74q0 15.667-10.167 25.833Q839.667-174 824-174h-92v42h102q11 0 18.5 7.5T860-106q0 11-7.5 18.5T834-80ZM400-868.667q6 0 11.5 2.167t10.833 6.5q38 34 78.5 73t77.667 81.834q37.167 42.833 68 89 30.834 46.167 49.834 94.5 5.666 13-.834 25.333-6.5 12.333-19.833 16-13.333 3.667-25.167-2.667-11.833-6.333-17.833-19.333-16.333-40-42.833-79.5T531.5-658.667q-31.833-37.333-65.833-71T400-791.334q-124.333 111-188.834 208.667Q146.666-485 146.666-408q0 91.667 52.001 163 52 71.334 143 91.334 15 3 24.333 14.833 9.334 11.833 4.667 25.167-5 15-19.833 21.333Q336.001-86 320.334-90q-111-26-175.667-116.166Q80-296.333 80-408q0-65.667 29.667-129.5 29.666-63.833 74.333-122T280.833-769q52.167-51.333 96.834-91 5.333-4.333 10.833-6.5t11.5-2.167ZM395.333-408Z"/></svg>