<svg xmlns="http://www.w3.org/2000/svg" height="40" viewBox="0 -960 960 960" width="40"><path d="M313.333-186.666h293.334v-420.001H520q-28 0-46.667 15-18.666 15-43 42-24 26.667-53.5 49.167t-63.5 31.5v282.334Zm-66.666 0V-470q-52-14-89.334-54Q120-564 120-620.119q0-53.112 30.5-94.199 30.5-41.086 78.5-57.12 23-48.102 68.5-78.165Q343-879.667 400-879.667q35 0 65.5 12T521-835q10-2 19-3.5t20-1.5q66 0 113 47t47 113q0 22-7.833 43.333-7.834 21.334-20.834 36.667h82.001q27.5 0 47.083 19.583T840-533.334v266.668q0 27.5-19.583 47.083T773.334-200H673.333v13.334q0 27.5-19.583 47.083T606.667-120H313.333q-27.5 0-47.083-19.583t-19.583-47.083ZM186.666-620q0 36.333 28.5 61.5 28.501 25.167 64.834 25.167 32 0 56.833-18.667 24.834-18.666 50.834-49.333 23.666-27.667 55.5-49.834Q475-673.333 520-673.333h133.334q0-41-25.5-70.501-25.5-29.5-67.834-29.5-20.333 0-37.667 5.834L505-761.667 482-781q-15.666-13.667-36.833-22.834Q424-813 400-813q-34 0-64.167 17.666-30.167 17.667-44.833 48.667l-14 30-32 11q-25.667 8.667-42 33.5-16.334 24.834-16.334 52.167Zm486.667 353.334h100.001v-266.668H673.333v266.668Zm-360 80h293.334-293.334Z"/></svg>