<svg xmlns="http://www.w3.org/2000/svg" height="40" viewBox="0 -960 960 960" width="40"><path d="M798-580q-29.666-93.667-106-157.5-76.333-63.834-178.667-74.5v67.333L798-580ZM304.666-419.333l142.001-83.334V-812q-38 4.333-73.667 16.166-35.667 11.834-68.334 32.5v344.001Zm-128.666 76L238-380v-329.334Q193.666-662.667 170.166-603t-23.5 123q0 36.667 7.5 70.167t21.834 66.5Zm146.667 157.334 302-174.001L480-444.667 208.666-285.333Q231.333-255 260-229t62.667 43.001ZM480-146.666q82.334 0 153.334-37t118-102.334L690-321.333l-286 166q18.666 4.333 38 6.5 19.333 2.167 38 2.167ZM784-344q16.334-35 23.167-71.5Q814-452 813.334-492L513.333-666.667v164L784-344ZM480-480Zm0 400q-83 0-156-31.5T197-197q-54-54-85.5-127T80-480q0-83 31.5-156T197-763q54-54 127-85.5T480-880q83 0 156 31.5T763-763q54 54 85.5 127T880-480q0 83-31.5 156T763-197q-54 54-127 85.5T480-80Z"/></svg>