<svg xmlns="http://www.w3.org/2000/svg" height="40" viewBox="0 -960 960 960" width="40"><path d="M410.333-379.667H480q14.167 0 23.75-9.583t9.583-23.75v-99.667H583q14.167 0 23.75-9.583t9.583-23.75v-100.667H680q14.167 0 23.75-9.617t9.583-23.833q0-14.216-9.583-23.716-9.583-9.5-23.75-9.5h-97q-14.167 0-23.75 9.583T549.667-680v99.667H480q-14.167 0-23.75 9.583T446.667-547v99.667H377q-14.167 0-23.75 9.583T343.667-414v100.667H280q-14.167 0-23.75 9.617t-9.583 23.833q0 14.216 9.583 23.716 9.583 9.5 23.75 9.5h97q14.167 0 23.75-9.583t9.583-23.75v-99.667ZM186.666-120q-27 0-46.833-19.833T120-186.666v-586.668q0-27 19.833-46.833T186.666-840h586.668q27 0 46.833 19.833T840-773.334v586.668q0 27-19.833 46.833T773.334-120H186.666Zm0-66.666h586.668v-586.668H186.666v586.668Zm0-586.668v586.668-586.668Z"/></svg>