<svg xmlns="http://www.w3.org/2000/svg" height="40" viewBox="0 -960 960 960" width="40"><path d="M479.911-93.667q-6.578 0-12.244-2.166-5.667-2.167-11-7.5l-114-114Q333-227 333-240.605q0-13.605 9.406-23.5Q352.666-274 366.233-274q13.567 0 23.433 10l57.001 57.001V-402q-69-14-117.834-66.5Q280-521 280-600q0-83 58.5-141.5T480-800q83 0 141.5 58.5T680-600q0 79-48.833 131.5Q582.333-416 513.333-402v195.001l57.334-57.334Q580.334-274 593.9-274q13.567 0 23.433 10Q627-254.333 627-240.667q0 13.667-9.667 23.334l-114 114Q498-98 492.244-95.833q-5.755 2.166-12.333 2.166Zm-.068-372.999q55.49 0 94.491-38.844 39-38.843 39-94.333 0-55.49-38.844-94.491-38.843-39-94.333-39-55.49 0-94.491 38.844-39 38.843-39 94.333 0 55.49 38.844 94.491 38.843 39 94.333 39ZM480-600Z"/></svg>