<svg xmlns="http://www.w3.org/2000/svg" height="40" viewBox="0 -960 960 960" width="40"><path d="M139.333-740h104q9.667 0 16.5 6.833 6.833 6.834 6.833 16.5 0 9.667-6.833 16.5t-16.5 6.833h-130q-14.166 0-23.75-9.583Q80-712.5 80-726.667v-130q0-9.666 6.833-16.5 6.834-6.833 16.5-6.833 9.667 0 16.5 6.833 6.833 6.834 6.833 16.5V-791q78-62.333 169.001-95.667 91-33.333 191-33.333 128.32 0 229.826 53Q818-814 867.333-720.334q5 9.334 1 18.167-4 8.833-13.629 8.833-12.037 0-22.517-6.345-10.48-6.344-17.187-16.655Q765.334-792 680.334-832.667t-193.667-40.667q-95.979 0-184.323 34Q214-805.334 139.333-740ZM471-80q-22.588 0-43.294-8.333Q407-96.667 390.667-113L205.333-298.667q-9-9-9.833-21.833-.833-12.833 6.833-22.833L204-345q12.666-16 31.5-22.167 18.833-6.166 38.499-.833L360-344.333V-680q0-14.167 9.617-23.75t23.833-9.583q14.216 0 23.716 9.583 9.5 9.583 9.5 23.75v380.667q0 16.666-13.333 26.666t-29 5.667l-72.667-19.667 126.786 126.786q6.215 6.215 14.801 9.715 8.587 3.5 17.747 3.5h169q39 0 66.167-27.167T733.334-240v-173.334q0-14.166 9.617-23.75 9.617-9.583 23.833-9.583 14.216 0 23.716 9.583 9.5 9.584 9.5 23.75V-240q0 66-47 113T640-80H471Zm47.117-486.667q14.216 0 23.716 9.583 9.5 9.584 9.5 23.75V-400q0 14.167-9.617 23.75t-23.833 9.583q-14.216 0-23.716-9.583-9.5-9.583-9.5-23.75v-133.334q0-14.166 9.617-23.75 9.617-9.583 23.833-9.583Zm124 40q14.216 0 23.716 9.583 9.5 9.584 9.5 23.75V-400q0 14.167-9.617 23.75t-23.833 9.583q-14.216 0-23.716-9.583-9.5-9.583-9.5-23.75v-93.334q0-14.166 9.617-23.75 9.617-9.583 23.833-9.583ZM575.667-270Z"/></svg>