<svg xmlns="http://www.w3.org/2000/svg" height="40" viewBox="0 -960 960 960" width="40"><path d="M148-470.667q-7.333-30.333-11-60.666-3.667-30.334-3.667-60.667 0-72 21.333-139.667Q176-799.333 216.666-858q6-9 16-10.833 10-1.834 17 5.166 7.667 7.667 7.667 18.167 0 10.5-6 19.5-35 52-53.167 111.5T179.999-592q0 31.333 5 61.833Q190-499.667 197.666-470L255-526.333q7-6.667 16.333-6.834 9.333-.166 16.333 6.834 7 6.999 7 16.333 0 9.333-7 16.333l-91 91q-10 10-23.333 10-13.333 0-23.333-10l-91-91q-7-7-7-16.333 0-9.334 7-16.333 7-7 16.333-7 9.333 0 16.333 7L148-470.667Zm502 344.334q-21 8-43.5 7.166-22.5-.833-43.167-11.166l-238-110.334q-11.667-5.666-16.667-17.166-5-11.5-.666-23.833l.666-2.667q6.667-19.333 22-31.5 15.333-12.167 36-14.167l88.667-7L340-652.667q-5.333-13.333.666-25.166 6-11.833 19.334-17.167 13.333-5.333 25.5.667 12.166 6 17.499 19.333l130.667 357q5.667 15.667-3.333 29.5t-25.667 15.833l-75.001 6.334L592-190.666q8.333 3.666 17.667 3.833 9.333.167 17.666-2.5L785.667-247q36.333-13 52.666-48.167 16.334-35.166 3.334-71.5L782-529.334q-5.333-13.333.667-25.5 6-12.166 19.333-17.5 13.333-5.333 25.5.667 12.166 6 17.5 19.333l59 162.667q23 63-4.5 122.5t-90.5 82.5l-159 58.334ZM528-600q13.333-5.333 25.166.667 11.833 5.999 17.167 19.333L616-454.667q5.333 12.667-.667 25-6 12.334-19.333 17.667-12.667 5.333-25-1t-17.667-19L508-557.667q-5.333-13.333.666-25.167 6-11.833 19.334-17.166Zm130-5q13.333-5.334 25.166.666 11.834 6 17.167 19.334l32.333 87.667q5.334 13.333-.833 25.5-6.167 12.166-19.5 17.499-13.333 4.667-25.333-1-12-5.666-17.333-18.999L638-562q-5.333-13.334.667-25.5 6-12.167 19.333-17.5Zm19.667 257.334Z"/></svg>