<svg xmlns="http://www.w3.org/2000/svg" height="40" viewBox="0 -960 960 960" width="40"><path d="M532-771.334q-66.333 53-103.167 128.167Q392-568 392-483.333q0 96.333 46.136 179.418Q484.273-220.831 567-170.666 579-163 584.5-149.5t-1.833 25.834q-7.334 12.333-21 16.166-13.667 3.833-26.334-3.5-98-59.667-154-158.167t-56-213.5q0-96.254 40.001-182.461 40-86.206 113.333-148.206h-124q-14.167 0-23.75-9.617-9.584-9.617-9.584-23.833 0-14.216 9.584-23.716 9.583-9.5 23.75-9.5h210.666q14.167 0 23.75 9.583 9.584 9.584 9.584 23.75V-636q0 14.167-9.617 23.75t-23.833 9.583q-14.217 0-23.717-9.583-9.5-9.583-9.5-23.75v-135.334Z"/></svg>