<svg xmlns="http://www.w3.org/2000/svg" height="40" viewBox="0 -960 960 960" width="40"><path d="M766.667-90.666 645-212l-64.667 64.667q-16.333 16.333-33 6.666Q530.666-150.334 519-162q-19-19-19-47t19-47l189-189q19-19 47-19t47 19q11.666 11.666 21.333 28.333 9.667 16.667-6.666 33L752-319l120.667 121.667q10 10 10 23.333 0 13.333-10 23.333l-59.334 60q-10 10-23.333 10-13.333 0-23.333-10ZM870-714 426.667-270.667 441-256q27.667 27.667 17.667 57t-32.334 51.667q-9.666 9.666-23.333 9.666-13.667 0-23.333-9.666L315-212 193.333-90.666q-10 10-23.333 10-13.333 0-23.333-10l-60-60.001q-10-10-10-23.333 0-13.333 10-23.333L208-319l-64.667-64.667q-9.666-9.666-9.666-23.333 0-13.667 9.666-23.333 22.334-22.334 51.667-32.334 29.333-10 57 17.667l14.667 14.333 433.666-433.666q9-9 21.5-14.334 12.5-5.333 25.834-5.333h99q14.333 0 23.833 9.5 9.5 9.5 9.5 23.833v113q0 6.667-2.333 12.5Q875.333-719.333 870-714ZM324.666-573 358-606l33-33.334L358-606l-33.334 33Zm-70.333 23.333L99.667-704.333q-9-9-14.334-21.5Q80-738.333 80-751.667v-99Q80-865 89.5-874.5q9.5-9.5 23.833-9.5h99q13.334 0 25.834 5.333 12.5 5.334 21.5 14.334l155 155q10 10 9.833 23.333-.167 13.333-10.167 23.333Q404.334-653 391-652.833q-13.333.166-23.333-9.834L212.333-817.334h-65.667v65.667l154.667 155.334Q311-586.666 311-573.166q0 13.5-9.667 23.499-10 10-23.5 10t-23.5-10Zm124.334 231.334 434.667-433.334v-65.667h-65.667L313-384l65.667 65.667Zm0 0-32.667-33L313-384l33 32.667 32.667 33Z"/></svg>