<svg xmlns="http://www.w3.org/2000/svg" height="40" viewBox="0 -960 960 960" width="40"><path d="M266.666-40q-27 0-46.833-19.833T200-106.666v-746.668q0-27 19.833-46.833T266.666-920h426.668q27 0 46.833 19.833T760-853.334v746.668q0 27-19.833 46.833T693.334-40H266.666Zm0-99.999v33.333h426.668v-33.333H266.666Zm0-66.667h426.668v-546.668H266.666v546.668Zm180.001-240.667v-151.334q0-14.166 9.617-23.75Q465.901-632 480.117-632q14.216 0 23.716 9.583 9.5 9.584 9.5 23.75v151.334L566-499.666q9.667-9.667 23.234-9.667 13.566 0 23.433 10 9.666 9.667 9.666 23.666 0 14-9.666 23.667L503.333-342q-10 10-23.333 10-13.333 0-23.333-10l-110-110q-9.667-9.667-9.5-23.5.166-13.833 10.166-23.833 9.667-9.667 23.5-9.833 13.833-.167 23.833 9.5l52.001 52.333ZM266.666-820.001h426.668v-33.333H266.666v33.333Zm0 0v-33.333 33.333Zm0 680.002v33.333-33.333Z"/></svg>