<svg xmlns="http://www.w3.org/2000/svg" height="40" viewBox="0 -960 960 960" width="40"><path d="M113.216-160Q99-160 89.5-169.617 80-179.234 80-193.45q0-14.216 9.617-23.716 9.617-9.5 23.833-9.5 14.216 0 23.716 9.617 9.5 9.617 9.5 23.833 0 14.216-9.617 23.716-9.617 9.5-23.833 9.5Zm160 0Q259-160 249.5-169.617q-9.5-9.617-9.5-23.833 0-14.216 9.617-23.716 9.617-9.5 23.833-9.5 14.216 0 23.716 9.617 9.5 9.617 9.5 23.833 0 14.216-9.617 23.716-9.617 9.5-23.833 9.5Zm160 0Q419-160 409.5-169.617q-9.5-9.617-9.5-23.833 0-14.216 9.617-23.716 9.617-9.5 23.833-9.5 14.216 0 23.716 9.617 9.5 9.617 9.5 23.833 0 14.216-9.617 23.716-9.617 9.5-23.833 9.5Zm160 0Q579-160 569.5-169.617q-9.5-9.617-9.5-23.833 0-14.216 9.617-23.716 9.617-9.5 23.833-9.5 14.216 0 23.716 9.617 9.5 9.617 9.5 23.833 0 14.216-9.617 23.716-9.617 9.5-23.833 9.5Zm160.117 0q-14.166 0-23.75-9.617Q720-179.234 720-193.45q0-14.216 9.583-23.716 9.584-9.5 23.75-9.5h60.001v-60.001q0-14.166 9.617-23.75Q832.568-320 846.784-320q14.216 0 23.716 9.583 9.5 9.584 9.5 23.75v60.001q0 27-19.833 46.833T813.334-160h-60.001ZM113.216-320Q99-320 89.5-329.617 80-339.234 80-353.45q0-14.216 9.617-23.716 9.617-9.5 23.833-9.5 14.216 0 23.716 9.617 9.5 9.617 9.5 23.833 0 14.216-9.617 23.716-9.617 9.5-23.833 9.5Zm733.334-93.334q-14.216 0-23.716-9.617-9.5-9.617-9.5-23.833 0-14.216 9.617-23.716 9.617-9.5 23.833-9.5 14.216 0 23.716 9.617 9.5 9.617 9.5 23.833 0 14.216-9.617 23.716-9.617 9.5-23.833 9.5ZM113.216-480Q99-480 89.5-489.617 80-499.234 80-513.45q0-14.216 9.617-23.716 9.617-9.5 23.833-9.5 14.216 0 23.716 9.617 9.5 9.617 9.5 23.833 0 14.216-9.617 23.716-9.617 9.5-23.833 9.5Zm380.118-160v-126.667q0-14.166 9.583-23.75Q512.5-800 526.667-800h286.667q27 0 46.833 19.833T880-733.334v126.667q0 14.167-9.583 23.75-9.584 9.583-23.75 9.583H560q-27.5 0-47.083-19.583T493.334-640Zm-380.118 0Q99-640 89.5-649.583q-9.5-9.584-9.5-23.75v-60.001q0-27 19.833-46.833T146.666-800h60.001q14.166 0 23.75 9.617Q240-780.766 240-766.55q0 14.216-9.583 23.716-9.584 9.5-23.75 9.5h-60.001v60.001q0 14.166-9.617 23.75Q127.432-640 113.216-640Zm253.334-93.334q-14.216 0-23.716-9.617-9.5-9.617-9.5-23.833 0-14.216 9.617-23.716 9.617-9.5 23.833-9.5 14.216 0 23.716 9.617 9.5 9.617 9.5 23.833 0 14.216-9.617 23.716-9.617 9.5-23.833 9.5Z"/></svg>