<svg xmlns="http://www.w3.org/2000/svg" height="40" viewBox="0 -960 960 960" width="40"><path d="M268-108q-9.667-9.667-9.667-23.333 0-13.667 9.667-23.333L469-356q19-19.667 47.333-19.333Q544.667-375 563.666-356L656-263.666l189.667-189.001q10-10 23.333-10 13.333 0 23.333 9.895 10 9.895 10 23.5t-10 23.605L703-216q-19.082 19-46.874 19-27.793 0-46.792-19L516-309.334 314.666-108Q305-98.333 291.5-98.167 278-98 268-108Zm-121.334-12q-27 0-46.833-19.833T80-186.666v-600.001q0-27 19.833-46.833 19.833-19.834 46.833-19.834h586.668q27 0 46.833 19.834Q800-813.667 800-786.667V-600q0 14.167-9.583 23.75-9.584 9.583-23.75 9.583H146.666V-120Zm0-513.333h586.668v-153.334H146.666v153.334Zm0 0v-153.334 153.334Z"/></svg>