<svg xmlns="http://www.w3.org/2000/svg" height="40" viewBox="0 -960 960 960" width="40"><path d="M256.667-202.333 300-310q9-23 29-36.5t45-13.5h72.667v-161q-157-5-261.834-45Q80-606 80-660q0-58 117-99t283-41q166.333 0 283.167 41Q880-718 880-660q0 54-104.833 94-104.834 40-261.834 45v161H586q24 0 44.5 13.5T660-310l43.333 107.667q6 15.333-3.166 28.833Q691-160 674.334-160q-9 0-17-5.333-8-5.334-11.667-14.334l-45-113.667H360L314.333-179q-3.667 9-11.667 14t-17 5q-16.666 0-25.833-13.5-9.166-13.5-3.166-28.833ZM480-586.666q104.334 0 195.667-20.334 91.334-20.333 137.334-53-46-32.667-137.334-53Q584.334-733.334 480-733.334T284.333-713q-91.334 20.333-137.334 53 46 32.667 137.334 53Q375.666-586.666 480-586.666ZM480-660Z"/></svg>