<svg xmlns="http://www.w3.org/2000/svg" height="40" viewBox="0 -960 960 960" width="40"><path d="M264-246.666 289.333-272q9.667-9.666 23.333-9.666 13.667 0 23.334 9.666 9.666 9.667 9.666 23.334 0 13.666-9.666 23.333l-82 82q-10 10-23.334 9.833-13.333-.167-23.333-9.833l-83-81q-10-10-9.5-23.833.5-13.834 10.5-23.834 10-9 23.333-9.5Q162-282 172-272l25.333 25.334v-520.001q0-14.333 9.5-23.833 9.5-9.5 23.833-9.5 14.334 0 23.834 9.5t9.5 23.833v520.001Zm245.333-134.667V-578L419-610.667q-9-3.333-14-10.667-5-7.333-5-16.333 0-15.666 12.5-24.166t26.833-2.834L818.667-523q9.666 3.333 15.5 11.5Q840-503.333 840-492.667v25.334q0 10.666-5.833 18.833-5.834 8.167-15.5 12.167l-380.334 141Q424-290 412-298.333q-12-8.334-12-23.667 0-9 5.167-16.5 5.166-7.5 14.166-10.833l90-32ZM562-400.666 778.001-478v-4L562-559.334v158.668Z"/></svg>