<svg xmlns="http://www.w3.org/2000/svg" height="40" viewBox="0 -960 960 960" width="40"><path d="M479.883-120q-14.216 0-23.716-9.617-9.5-9.617-9.5-23.833 0-14.216 9.617-23.716 9.617-9.5 23.833-9.5 14.216 0 23.716 9.617 9.5 9.617 9.5 23.833 0 14.216-9.617 23.716-9.617 9.5-23.833 9.5Zm-163.333 0q-14.217 0-23.717-9.617-9.5-9.617-9.5-23.833 0-14.216 9.617-23.716 9.617-9.5 23.834-9.5 14.216 0 23.716 9.617 9.5 9.617 9.5 23.833 0 14.216-9.617 23.716-9.617 9.5-23.833 9.5Zm-163.334 0Q139-120 129.5-129.617q-9.5-9.617-9.5-23.833 0-14.216 9.617-23.716 9.617-9.5 23.833-9.5 14.216 0 23.716 9.617 9.5 9.617 9.5 23.833 0 14.216-9.617 23.716-9.617 9.5-23.833 9.5Zm0-163.333q-14.216 0-23.716-9.617-9.5-9.617-9.5-23.834 0-14.216 9.617-23.716 9.617-9.5 23.833-9.5 14.216 0 23.716 9.617 9.5 9.617 9.5 23.833 0 14.217-9.617 23.717-9.617 9.5-23.833 9.5Zm0-163.334q-14.216 0-23.716-9.617-9.5-9.617-9.5-23.833 0-14.216 9.617-23.716 9.617-9.5 23.833-9.5 14.216 0 23.716 9.617 9.5 9.617 9.5 23.833 0 14.216-9.617 23.716-9.617 9.5-23.833 9.5Zm0-163.333Q139-610 129.5-619.617q-9.5-9.617-9.5-23.833 0-14.217 9.617-23.717 9.617-9.5 23.833-9.5 14.216 0 23.716 9.617 9.5 9.617 9.5 23.834 0 14.216-9.617 23.716-9.617 9.5-23.833 9.5Zm326.667-163.334q-14.216 0-23.716-9.617-9.5-9.617-9.5-23.833 0-14.216 9.617-23.716 9.617-9.5 23.833-9.5 14.216 0 23.716 9.617 9.5 9.617 9.5 23.833 0 14.216-9.617 23.716-9.617 9.5-23.833 9.5Zm-163.333 0q-14.217 0-23.717-9.617-9.5-9.617-9.5-23.833 0-14.216 9.617-23.716 9.617-9.5 23.834-9.5 14.216 0 23.716 9.617 9.5 9.617 9.5 23.833 0 14.216-9.617 23.716-9.617 9.5-23.833 9.5Zm-163.334 0q-14.216 0-23.716-9.617-9.5-9.617-9.5-23.833 0-14.216 9.617-23.716 9.617-9.5 23.833-9.5 14.216 0 23.716 9.617 9.5 9.617 9.5 23.833 0 14.216-9.617 23.716-9.617 9.5-23.833 9.5ZM643.333-120q-14.166 0-23.749-9.617Q610-139.234 610-153.45q0-14.216 9.584-23.716 9.583-9.5 23.749-9.5h48.001v-586.668h-48.001q-14.166 0-23.749-9.617Q610-792.568 610-806.784q0-14.216 9.584-23.716 9.583-9.5 23.749-9.5h163.334q14.166 0 23.75 9.617Q840-820.766 840-806.55q0 14.216-9.583 23.716-9.584 9.5-23.75 9.5H758v586.668h48.667q14.166 0 23.75 9.617Q840-167.432 840-153.216q0 14.216-9.583 23.716-9.584 9.5-23.75 9.5H643.333Z"/></svg>