<svg xmlns="http://www.w3.org/2000/svg" height="40" viewBox="0 -960 960 960" width="40"><path d="M228.666-120Q213-120 204-132.5t-4.667-27.833l182-656.334q3.334-11 11.334-17.166 8-6.167 19-6.167 15.999 0 25.333 12.5 9.333 12.5 5 27.833l-24 86.334h252.334l29-103.334q3.333-11 11.833-17.166 8.5-6.167 19.5-6.167 15.666 0 24.666 12.5T760-799.667L578.667-143.333q-2.667 11-11 17.166Q559.333-120 548.333-120q-15.999 0-25.333-12.5-9.333-12.5-5-27.833l23.334-86.334H289l-29 103.334q-2.667 11-11.5 17.166Q239.666-120 228.666-120ZM363-513.333h252l37-133.334H400l-37 133.334Zm-55.667 200H560l37-133.334H344.333l-37 133.334Z"/></svg>