<svg xmlns="http://www.w3.org/2000/svg" height="40" viewBox="0 -960 960 960" width="40"><path d="M313.333-120q-14.166 0-23.75-9.617Q280-139.234 280-153.45q0-14.216 9.583-23.716 9.584-9.5 23.75-9.5h333.334q14.166 0 23.75 9.617Q680-167.432 680-153.216q0 14.216-9.583 23.716-9.584 9.5-23.75 9.5H313.333Zm0-120q-14.166 0-23.75-9.583-9.583-9.584-9.583-23.75v-344.334q0-10.833 3.333-20.833 3.334-10 10-19.167l124.542-166.177Q424-832 432-836t18-4h60q10 0 18 4t14 12l124.667 166.333q6.666 9.167 10 19.167 3.333 10 3.333 20.833v344.334q0 14.166-9.583 23.75-9.584 9.583-23.75 9.583H313.333Zm33.333-66.666h266.668v-103.001L480-543 346.666-409.667v103.001Zm0-197.334 100.001-100v-147.334L346.666-617.667V-504Zm266.668 0v-113.667L513.333-751.334V-604l100.001 100Zm0 197.334H346.666h266.668Z"/></svg>