<svg xmlns="http://www.w3.org/2000/svg" height="40" viewBox="0 -960 960 960" width="40"><path d="M146.666-280q-27.5 0-47.083-19.583T80-346.666v-266.668q0-27.5 19.583-47.083T146.666-680h666.668q27.5 0 47.083 19.583T880-613.334v266.668q0 27.5-19.583 47.083T813.334-280H146.666Zm0-66.666h666.668v-266.668H698q10.333 16 16.167 34.696Q720-559.942 720-540q0 57-41.5 98.5T580-400H380q-57 0-98.5-41.5T240-540q0-19.942 5.833-38.638 5.834-18.696 16.167-34.696H146.666v266.668Zm233.334-120h66.667v-146.668H380q-29.333 0-51.334 22-22 22.001-22 51.334 0 29.333 22 51.334 22.001 22 51.334 22Zm133.333 0H580q29.333 0 51.334-22 22-22.001 22-51.334 0-29.333-22-51.334-22.001-22-51.334-22h-66.667v146.668Zm300.001 120H146.666h666.668Z"/></svg>