<svg xmlns="http://www.w3.org/2000/svg" height="40" viewBox="0 -960 960 960" width="40"><path d="M600-280q-73 0-128.5-46.167-55.5-46.166-68.833-120.5H193.333q-14.166 0-23.75-9.617Q160-465.901 160-480.117q0-14.216 9.583-23.716 9.584-9.5 23.75-9.5h209.206q5.128-29 17.961-55.334 12.834-26.333 32.167-44.667H273.333q-14.166 0-23.75-9.617Q240-632.568 240-646.784q0-14.216 9.583-23.716 9.584-9.5 23.75-9.5H600q83 0 141.5 58.5T800-480q0 83-58.5 141.5T600-280Zm-.157-66.666q55.49 0 94.491-38.844 39-38.843 39-94.333 0-55.49-38.844-94.491-38.843-39-94.333-39-55.49 0-94.491 38.844-39 38.843-39 94.333 0 55.49 38.844 94.491 38.843 39 94.333 39ZM313.333-280q-14.166 0-23.75-9.617Q280-299.234 280-313.45q0-14.216 9.583-23.716 9.584-9.5 23.75-9.5h53.334q14.166 0 23.75 9.617Q400-327.432 400-313.216q0 14.216-9.583 23.716-9.584 9.5-23.75 9.5h-53.334ZM600-480Z"/></svg>