<svg xmlns="http://www.w3.org/2000/svg" height="40" viewBox="0 -960 960 960" width="40"><path d="M479.865-346.666q63.468 0 108.469-44.866 45-44.865 45-108.333 0-63.468-44.866-108.469-44.865-45-108.333-45-63.468 0-108.469 44.866-45 44.865-45 108.333 0 63.468 44.866 108.469 44.865 45 108.333 45ZM446.667-120H400q-14.167 0-23.75-9.617t-9.583-23.833q0-14.216 9.583-23.716 9.583-9.5 23.75-9.5h46.667V-282q-80.889-14.069-133.778-75.368Q260-418.667 260-500q0-35 10.5-68.407Q281-601.813 302-630l-36.667-36.667L232.666-634q-9.666 9.666-23.166 9.833Q196-624 186-634q-9.667-9.667-9.667-23.234 0-13.566 9.667-23.433l32.667-33-92.001-92v79q0 14.167-9.617 23.75t-23.833 9.583q-14.216 0-23.716-9.583-9.5-9.583-9.5-23.75v-160q0-14.166 9.583-23.75Q79.167-920 93.333-920h160q14.167 0 23.75 9.617t9.583 23.833q0 14.216-9.583 23.716-9.583 9.5-23.75 9.5h-79l92 92.001 33-33Q309-804 322.566-804q13.567 0 23.434 10 9.666 9.667 9.666 23.233 0 13.567-9.666 23.433l-32.667 33L350.667-677Q379-698.333 412-709.167 445-720 480-720t68.333 10.5Q581.667-699 610-677.667l175.667-175.667h-79q-14.167 0-23.75-9.617t-9.583-23.833q0-14.216 9.583-23.716 9.583-9.5 23.75-9.5h160q14.166 0 23.75 9.583 9.583 9.584 9.583 23.75v160q0 14.167-9.617 23.75t-23.833 9.583q-14.216 0-23.716-9.583-9.5-9.583-9.5-23.75v-79L657.667-630.333q21 28.666 31.666 61.682Q700-535.636 700-500q0 81.333-52.889 142.632Q594.222-296.069 513.333-282v95.334H560q14.167 0 23.75 9.617t9.583 23.833q0 14.216-9.583 23.716-9.583 9.5-23.75 9.5h-46.667v46.667q0 14.166-9.617 23.75Q494.099-40 479.883-40q-14.216 0-23.716-9.583-9.5-9.584-9.5-23.75V-120Z"/></svg>