<svg xmlns="http://www.w3.org/2000/svg" height="40" viewBox="0 -960 960 960" width="40"><path d="M858-738.666q2.667-2.667 5.5-3.834 2.833-1.166 6.5-1.833 9.666-3.333 17.999-.667 8.333 2.667 13.667 8.999 10 3 15.501 12.5 5.5 9.5 3.5 21.501-6 21.333-25.667 41.5-19.667 20.166-19.667 66.5 0 27.667 10.167 49.667t27.833 41q6 5.667 8.834 12.5Q925-484 925-475.333 925-459 914-448t-27.333 11q-8.334 0-15.834-3.167-7.499-3.166-12.833-9.166-28-28.334-44-65.834T798-594q0-41.333 16-78.833t44-65.833ZM723.333-876.667q2-2 5-3.499 3-1.5 6-1.5 9.666-3.334 17.999-.667 8.334 2.666 13.667 8.999 16.001 3.333 20.667 20.5 4.667 17.167-8.999 30.5Q731.333-774.667 706-720.833 680.666-667 680.666-594t25.167 127q25.167 54 71.5 101.667Q783-359.999 786-353.166t3 15.5q0 16-11 27t-27 11q-8.333 0-15.333-3.167t-12.334-8.5Q668-367.666 636-437.333T604-594q0-87 32-156.667 32-69.666 87.333-126ZM360-440.667q-66 0-109.667-43.666Q206.667-528 206.667-594t43.666-109.666Q294-747.333 360-747.333t109.667 43.667Q513.333-660 513.333-594t-43.666 109.667Q426-440.667 360-440.667ZM40-186.666V-220q0-36.333 18.333-63.666Q76.667-311 106.667-326q51-26 118.667-43.333Q293-386.666 360-386.666t134.333 17.333Q561.667-352 612.667-326q30 15 48.666 42.334Q680-256.333 680-220v33.334Q680-159 660.5-139.5 641-120 613.334-120H106.666Q79-120 59.5-139.5 40-159 40-186.666Zm66.666 0h506.668V-220q0-14.333-7.5-26.333-7.5-12-21.167-19.667-44-24-103.501-39-59.5-15-121.166-15t-121.5 15.667Q178.667-288.667 134.667-266q-12.334 6.333-20.167 19-7.834 12.667-7.834 27v33.334ZM360-507.333q37 0 61.833-24.833Q446.667-557 446.667-594t-24.834-61.833Q397-680.667 360-680.667t-61.833 24.834Q273.333-631 273.333-594t24.834 61.834Q323-507.333 360-507.333ZM360-594Zm0 407.334Z"/></svg>