<svg xmlns="http://www.w3.org/2000/svg" height="40" viewBox="0 -960 960 960" width="40"><path d="M272.667-272 174-327q-9-4.667-10.167-14.167-1.166-9.499 5.5-16.166l9.334-9.333q3.333-3.334 7.5-4.834 4.166-1.5 8.5-.5l90 12.667 170-170L170-684.667q-12.333-6.667-14.167-20.333Q154-718.667 164-728.667l8-8.666q5.667-5.667 12.5-7.334 6.833-1.666 14.5.334L572.667-648l130.999-130.999q15.667-15.667 37.833-15.667 22.167 0 37.833 15.667 15.667 15.667 15.667 37.833 0 22.167-15.667 37.833L648.666-572 745-199.666q2 8.666-.167 16.166-2.166 7.5-7.833 13.167L732.667-166q-11.334 11.333-26.5 8.667Q691-160 683.334-173.667L530-454 360-284l12 88q1 5.667-.667 10.667T366-176.667l-4.334 4.334q-8 8-19.333 6.5-11.333-1.5-17-11.834L272.667-272Z"/></svg>