<svg xmlns="http://www.w3.org/2000/svg" height="40" viewBox="0 -960 960 960" width="40"><path d="M480-292.667 370.666-183.333Q361-173.667 347.333-174q-13.666-.333-23.333-10-9.667-9.667-9.667-23.666 0-14 9.667-23.667L456.667-364q5.333-5.333 11-7.5 5.666-2.167 12.333-2.167t12.333 2.167q5.667 2.167 11 7.5l133.334 133.334q9.666 9.666 9.666 23.333 0 13.666-9.666 23.333Q627-174.333 613-174.333q-14 0-23.666-9.667L480-292.667Zm0-374.666 109.334-109.334Q599-786.333 612.667-786q13.666.333 23.333 10 9.667 9.667 9.667 23.666 0 14-9.667 23.667L503.333-596q-5.333 5.333-11 7.5-5.666 2.167-12.333 2.167t-12.333-2.167q-5.667-2.167-11-7.5L323.333-729.334Q313.667-739 314-753q.333-14 10-23.667 9.667-9.666 23.666-9.666 14 0 23.667 9.666L480-667.333Z"/></svg>