<svg xmlns="http://www.w3.org/2000/svg" height="40" viewBox="0 -960 960 960" width="40"><path d="M480-80q-32.333 0-53.5-21.167-21.167-21.166-21.167-53.5 0-21.666 11-39.666 11-18 30.334-29V-328H308q-27 0-46.833-19.833-19.834-19.834-19.834-46.834V-498Q222-507 211-524.797q-11-17.796-11-40.536 0-21.334 9.667-38.001 9.666-16.666 26-25.666L82.333-782.334q-9-9.167-9-22.916 0-13.75 10.035-23.75t23.834-10Q121-839 131-829l699 699q9.167 9.167 9.584 22.917.416 13.75-9.619 23.75t-23.833 10q-13.798 0-23.798-10L536.667-328h-23.334v104.667q19.633 10.435 30.484 29.217 10.85 18.783 10.85 39.449 0 32.334-21.167 53.5Q512.333-80 480-80Zm280-543.333v115.999q0 6.667-5 11.667t-11.667 5h-24.666v74.001q0 16.667-10.379 25-10.379 8.333-22.833 8.333-12.455 0-22.955-8.621-10.5-8.622-10.5-25.045v-73.668h-24.666q-6.667 0-11.667-5t-5-11.667v-115.999q0-6.667 5-11.667t11.667-5h115.999Q750-640 755-635t5 11.667ZM308-394.667h138.667V-418L338.333-526.334q-4.666 9-12.333 16.5T308-498v103.333ZM446.667-728H400q-9.667 0-14.5-9t1.167-17.667l80-108.333q2.517-2.933 13.425-6.667 4.195 0 7.552 1.5 3.356 1.5 5.689 5.167l80 108.333Q580-746 575.333-737q-4.666 9-15.333 9h-46.667v106.001q0 16.666-10.379 25-10.378 8.333-22.833 8.333-12.454 0-22.954-8.622t-10.5-25.044V-728Z"/></svg>