<svg xmlns="http://www.w3.org/2000/svg" height="40" viewBox="0 -960 960 960" width="40"><path d="M148.666-364.667q-14.166 0-23.75-9.617-9.583-9.617-9.583-23.833 0-14.216 9.583-23.716 9.584-9.5 23.75-9.5H408q14.167 0 23.75 9.617t9.583 23.833q0 14.216-9.583 23.716-9.583 9.5-23.75 9.5H148.666Zm0 164.667q-14.166 0-23.75-9.617-9.583-9.617-9.583-23.833 0-14.216 9.583-23.716 9.584-9.5 23.75-9.5H408q14.167 0 23.75 9.617t9.583 23.833q0 14.216-9.583 23.716-9.583 9.5-23.75 9.5H148.666Zm0-328.667q-14.166 0-23.75-9.617-9.583-9.617-9.583-23.833 0-14.216 9.583-23.716 9.584-9.5 23.75-9.5H408q14.167 0 23.75 9.617t9.583 23.833q0 14.216-9.583 23.716-9.583 9.5-23.75 9.5H148.666Zm0-164.667q-14.166 0-23.75-9.617-9.583-9.617-9.583-23.833 0-14.216 9.583-23.716 9.584-9.5 23.75-9.5H408q14.167 0 23.75 9.617t9.583 23.833q0 14.216-9.583 23.716-9.583 9.5-23.75 9.5H148.666ZM606-200q-27.5 0-47.083-19.583t-19.583-47.083v-426.668q0-27.5 19.583-47.083T606-760h172.667q27.5 0 47.083 19.583t19.583 47.083v426.668q0 27.5-19.583 47.083T778.667-200H606Zm0-66.666h172.667v-426.668H606v426.668ZM692.667-480Z"/></svg>