<svg xmlns="http://www.w3.org/2000/svg" height="40" viewBox="0 -960 960 960" width="40"><path d="M80-356.667v-246.666q0-30.25 21.559-51.792t51.833-21.542q30.274 0 51.774 21.542t21.5 51.792v246.666q0 30.25-21.559 51.792t-51.833 21.542q-30.274 0-51.774-21.542T80-356.667ZM346.666-200q-27 0-46.833-19.833T280-266.666v-426.668q0-27 19.833-46.833T346.666-760h266.668q27 0 46.833 19.833T680-693.334v426.668q0 27-19.833 46.833T613.334-200H346.666Zm386.668-156.667v-246.666q0-30.25 21.559-51.792t51.833-21.542q30.274 0 51.774 21.542t21.5 51.792v246.666q0 30.25-21.559 51.792t-51.833 21.542q-30.274 0-51.774-21.542t-21.5-51.792Zm-386.668 90.001h266.668v-426.668H346.666v426.668ZM480-480Z"/></svg>