<svg xmlns="http://www.w3.org/2000/svg" height="40" viewBox="0 -960 960 960" width="40"><path d="M270-526.667q9.667 0 16.5-6.833t6.833-16.5v-20q0-9.667-6.833-16.5t-16.5-6.833q-9.667 0-16.5 6.833t-6.833 16.5v20q0 9.667 6.833 16.5t16.5 6.833Zm100 80q9.667 0 16.5-6.833t6.833-16.5v-180q0-9.667-6.833-16.5t-16.5-6.833q-9.667 0-16.5 6.833t-6.833 16.5v180q0 9.667 6.833 16.5t16.5 6.833Zm110 80q9.667 0 16.5-6.833t6.833-16.5v-340q0-9.667-6.833-16.5t-16.5-6.833q-9.667 0-16.5 6.833t-6.833 16.5v340q0 9.667 6.833 16.5t16.5 6.833Zm110-80q9.667 0 16.5-6.833t6.833-16.5v-180q0-9.667-6.833-16.5t-16.5-6.833q-9.667 0-16.5 6.833t-6.833 16.5v180q0 9.667 6.833 16.5t16.5 6.833Zm100-80q9.667 0 16.5-6.833t6.833-16.5v-20q0-9.667-6.833-16.5t-16.5-6.833q-9.667 0-16.5 6.833t-6.833 16.5v20q0 9.667 6.833 16.5t16.5 6.833ZM240-240 136.666-136.666Q121-121 100.5-129.5 80-138 80-160.333v-653.001q0-27 19.833-46.833T146.666-880h666.668q27 0 46.833 19.833T880-813.334v506.668q0 27-19.833 46.833T813.334-240H240Zm-28.667-66.666h602.001v-506.668H146.666v575.002l64.667-68.334Zm-64.667 0v-506.668 506.668Z"/></svg>