<svg xmlns="http://www.w3.org/2000/svg" height="40" viewBox="0 -960 960 960" width="40"><path d="M320-200q-117 0-198.5-81.5T40-480q0-117 81.5-198.5T320-760h320q117 0 198.5 81.5T920-480q0 117-81.5 198.5T640-200H320Zm0-66.666h320q88.333 0 150.834-62.5 62.5-62.501 62.5-150.834t-62.5-150.834q-62.501-62.5-150.834-62.5H320q-88.333 0-150.834 62.5-62.5 62.501-62.5 150.834t62.5 150.834q62.501 62.5 150.834 62.5Zm16.667-190.001V-390q0 9.667 6.833 16.5t16.5 6.833q9.667 0 16.5-6.833t6.833-16.5v-66.667H450q9.667 0 16.5-6.833t6.833-16.5q0-9.667-6.833-16.5t-16.5-6.833h-66.667V-570q0-9.667-6.833-16.5t-16.5-6.833q-9.667 0-16.5 6.833t-6.833 16.5v66.667H270q-9.667 0-16.5 6.833t-6.833 16.5q0 9.667 6.833 16.5t16.5 6.833h66.667Zm290-90V-390q0 9.667 6.833 16.5t16.5 6.833q9.667 0 16.5-6.833t6.833-16.5v-170q0-14.333-9.5-23.833-9.5-9.5-23.833-9.5h-50q-9.667 0-16.5 6.833t-6.833 16.5q0 9.667 6.833 16.5t16.5 6.833h36.667ZM480-480Z"/></svg>