<svg xmlns="http://www.w3.org/2000/svg" height="40" viewBox="0 -960 960 960" width="40"><path d="M480-768.667 146.666-635.334v448.668h106.668V-440q0-27.5 19.583-47.083T320-506.666h320q27.5 0 47.083 19.583T706.666-440v253.334h106.668v-448.668L480-768.667ZM80-186.666v-448.001q0-20.897 11.5-37.615Q103-689 122-696.667L455.333-830q12-5.333 24.667-5.333 12.667 0 24.667 5.333L838-696.667q19 7.667 30.5 24.385 11.5 16.718 11.5 37.615v448.001q0 27.5-19.583 47.083T813.334-120H640v-320H320v320H146.666q-27.5 0-47.083-19.583T80-186.666ZM366.667-120v-66.666h66.666V-120h-66.666Zm80-120v-66.666h66.666V-240h-66.666Zm80 120v-66.666h66.666V-120h-66.666ZM320-506.666h320-320Z"/></svg>