<svg xmlns="http://www.w3.org/2000/svg" height="40" viewBox="0 -960 960 960" width="40"><path d="M300-366.667q14.333 0 23.833-9.833 9.5-9.833 9.5-23.5 0-14.333-9.5-23.833-9.5-9.5-23.833-9.5-13.667 0-23.5 9.5T266.667-400q0 13.667 9.833 23.5t23.5 9.833Zm60-120q14.333 0 23.833-9.833 9.5-9.833 9.5-23.5 0-14.333-9.5-23.833-9.5-9.5-23.833-9.5-13.667 0-23.5 9.5T326.667-520q0 13.667 9.833 23.5t23.5 9.833Zm0 240q14.333 0 23.833-9.833 9.5-9.833 9.5-23.5 0-14.333-9.5-23.833-9.5-9.5-23.833-9.5-13.667 0-23.5 9.5T326.667-280q0 13.667 9.833 23.5t23.5 9.833Zm60-120q14.333 0 23.833-9.833 9.5-9.833 9.5-23.5 0-14.333-9.5-23.833-9.5-9.5-23.833-9.5-13.667 0-23.5 9.5T386.667-400q0 13.667 9.833 23.5t23.5 9.833Zm0-240q14.333 0 23.833-9.833 9.5-9.833 9.5-23.5 0-14.333-9.5-23.833-9.5-9.5-23.833-9.5-13.667 0-23.5 9.5T386.667-640q0 13.667 9.833 23.5t23.5 9.833Zm60 120q14.333 0 23.833-9.833 9.5-9.833 9.5-23.5 0-14.333-9.5-23.833-9.5-9.5-23.833-9.5-13.667 0-23.5 9.5T446.667-520q0 13.667 9.833 23.5t23.5 9.833Zm0 240q14.333 0 23.833-9.833 9.5-9.833 9.5-23.5 0-14.333-9.5-23.833-9.5-9.5-23.833-9.5-13.667 0-23.5 9.5T446.667-280q0 13.667 9.833 23.5t23.5 9.833Zm60-120q14.333 0 23.833-9.833 9.5-9.833 9.5-23.5 0-14.333-9.5-23.833-9.5-9.5-23.833-9.5-13.667 0-23.5 9.5T506.667-400q0 13.667 9.833 23.5t23.5 9.833Zm0-240q14.333 0 23.833-9.833 9.5-9.833 9.5-23.5 0-14.333-9.5-23.833-9.5-9.5-23.833-9.5-13.667 0-23.5 9.5T506.667-640q0 13.667 9.833 23.5t23.5 9.833Zm60 120q14.333 0 23.833-9.833 9.5-9.833 9.5-23.5 0-14.333-9.5-23.833-9.5-9.5-23.833-9.5-13.667 0-23.5 9.5T566.667-520q0 13.667 9.833 23.5t23.5 9.833Zm0 240q14.333 0 23.833-9.833 9.5-9.833 9.5-23.5 0-14.333-9.5-23.833-9.5-9.5-23.833-9.5-13.667 0-23.5 9.5T566.667-280q0 13.667 9.833 23.5t23.5 9.833Zm60-120q14.333 0 23.833-9.833 9.5-9.833 9.5-23.5 0-14.333-9.5-23.833-9.5-9.5-23.833-9.5-13.667 0-23.5 9.5T626.667-400q0 13.667 9.833 23.5t23.5 9.833ZM480-80q-137 0-228.5-94T160-408q0-63.333 28.667-126 28.666-62.667 71.666-120.333 43-57.667 93-108 50-50.334 93.334-88.667 7.333-6.667 15.833-9.5t17.5-2.833q9 0 17.5 2.833t15.833 9.5q43.334 38.333 93.334 88.667 50 50.333 93 108 43 57.666 71.666 120.333Q800-471.333 800-408q0 140-91.5 234T480-80Zm0-66.666q109.333 0 181.334-74.5 72-74.501 72-186.834 0-77-64.5-174.667Q604.333-680.334 480-791.334q-124.333 111-188.834 208.667Q226.666-485 226.666-408q0 112.333 72 186.834 72.001 74.5 181.334 74.5ZM480-480Z"/></svg>