<svg xmlns="http://www.w3.org/2000/svg" height="40" viewBox="0 -960 960 960" width="40"><path d="M173.255-160Q151-160 135.5-175.555 120-191.111 120-213.333v-173.334q0-22.222 15.578-37.778Q151.157-440 173.412-440q22.254 0 37.754 15.555 15.5 15.556 15.5 37.778v173.334q0 22.222-15.578 37.778Q195.51-160 173.255-160Zm156.666-240q-22.255 0-37.754-15.555-15.5-15.556-15.5-37.778v-53.334q0-22.222 15.578-37.778Q307.823-560 330.078-560t37.755 15.556q15.5 15.555 15.5 37.777v53.334q0 22.222-15.579 37.778Q352.176-400 329.921-400Zm143.334-200q-22.255 0-37.754-15.556-15.5-15.555-15.5-37.777v-53.334q0-22.222 15.578-37.778Q451.157-760 473.412-760t37.755 15.556q15.5 15.555 15.5 37.777v53.334q0 22.222-15.578 37.778Q495.51-600 473.255-600Zm156.667-80q-22.255 0-37.755-15.556-15.5-15.555-15.5-37.777v-13.334q0-22.222 15.579-37.778Q607.824-800 630.079-800t37.754 15.556q15.5 15.555 15.5 37.777v13.334q0 22.222-15.578 37.778Q652.177-680 629.922-680Zm156.666 520q-22.254 0-37.754-15.555-15.5-15.556-15.5-37.778v-533.334q0-22.222 15.578-37.778Q764.49-800 786.745-800t37.755 15.556q15.5 15.555 15.5 37.777v533.334q0 22.222-15.578 37.778Q808.843-160 786.588-160Z"/></svg>