<svg xmlns="http://www.w3.org/2000/svg" height="40" viewBox="0 -960 960 960" width="40"><path d="M207.667-291.334q-27.667 0-43.334 12.834-15.667 12.833-35.333 19.833Q108.667-251 94.333-257.5 80-264 80-281.667q0-12.333 9.667-22.999Q99.333-315.333 120-328q17.667-12.333 41.5-21.167Q185.333-358 211.667-358q48.999 0 71.999 24.667 23.001 24.667 61.334 24.667t61.833-24.667Q430.334-358 479.667-358t73.166 24.667q23.834 24.667 62.167 24.667t61-24.667Q698.667-358 749-358q23 0 46.834 7.833 23.833 7.834 47.166 22.834 19.667 11.667 28.333 23Q880-293 880-281.667 880-264 865.667-257.5 851.333-251 831-258.667q-19.666-7-35.5-19.833-15.833-12.834-43.167-12.834-40.333 0-64.166 24.667Q664.333-242 615-242t-73.5-24.667q-24.167-24.667-61.833-24.667-37.667 0-61.5 24.667Q394.333-242 344.667-242q-49.667 0-73-24.667-23.334-24.667-64-24.667Zm0-160q-27.334 0-43.167 12.834-15.834 12.833-35.5 19.833Q108.667-411 94.333-417.5 80-424 80-441.667 80-454 90.667-465.666q10.666-11.667 34.666-26.334Q143-503.667 162.5-510.833 182-518 207-518q52.333 0 76 24.667t62 24.667q38.333 0 61.833-24.667Q430.334-518 479.667-518t73.166 24.667q23.834 24.667 61.834 24.667t61-24.667q23-24.667 73-24.667 27 0 50.833 8.833Q823.333-500.333 841-488q21 12.334 30 23.5 9 11.167 9 22.833Q880-424 865.5-417.5t-34.833-1.167q-19.667-7-35.333-19.833-15.667-12.834-43.001-12.834-40.333 0-64.166 24.667Q664.333-402 615-402t-73.5-24.667q-24.167-24.667-61.833-24.667-37.667 0-61.167 24.667T345.333-402q-49.666 0-73.5-24.667-23.833-24.667-64.166-24.667Zm0-160q-27.334 0-43.167 12.834-15.834 12.833-35.5 19.833Q108.667-571 94.333-577.5 80-584 80-601.667 80-614 89.667-625q9.666-11 30.999-23.666 17.667-11.667 41.501-20.501Q186-678 212.333-678q48.333 0 71.333 24.667 23.001 24.667 61.334 24.667t61.833-24.667Q430.334-678 479.667-678t73.166 24.667q23.834 24.667 61.834 24.667t61-24.667Q698.667-678 748-678q26.333 0 50.167 8.833Q822-660.333 839.667-648q21 13 30.666 23.5Q880-614 880-601.667 880-584 865.5-577.5t-34.833-1.167q-19.667-7-35.333-19.833-15.667-12.834-43.001-12.834-40.333 0-64.166 24.667Q664.333-562 615-562t-73.5-24.667q-24.167-24.667-61.833-24.667-37.667 0-61.167 24.667T345.333-562q-49.666 0-73.5-24.667-23.833-24.667-64.166-24.667Z"/></svg>