<svg xmlns="http://www.w3.org/2000/svg" height="40" viewBox="0 -960 960 960" width="40"><path d="M259.906-206.667q-18.239 0-30.739-12.594t-12.5-30.833q0-18.239 12.594-30.739t30.833-12.5q18.239 0 30.739 12.594t12.5 30.833q0 18.239-12.594 30.739t-30.833 12.5ZM379.906-80q-18.239 0-30.739-12.594t-12.5-30.833q0-18.239 12.594-30.739t30.833-12.5q18.239 0 30.739 12.594 12.5 12.593 12.5 30.833 0 18.239-12.594 30.74Q398.145-80 379.906-80Zm120-126.667q-18.239 0-30.739-12.594t-12.5-30.833q0-18.239 12.594-30.739t30.833-12.5q18.239 0 30.739 12.594t12.5 30.833q0 18.239-12.594 30.739t-30.833 12.5Zm240 0q-18.239 0-30.739-12.594t-12.5-30.833q0-18.239 12.594-30.739t30.833-12.5q18.239 0 30.739 12.594t12.5 30.833q0 18.239-12.594 30.739t-30.833 12.5ZM619.906-80q-18.239 0-30.739-12.594t-12.5-30.833q0-18.239 12.594-30.739t30.833-12.5q18.239 0 30.739 12.594 12.5 12.593 12.5 30.833 0 18.239-12.594 30.74Q638.145-80 619.906-80ZM293.333-373.334q-88.242 0-150.788-62.513Q80-498.36 80-586.557 80-667 136-729q56-62 139-69.667Q307-855 360.5-887.5T480.282-920q90.385 0 153.551 57.5Q697-805 711-719.667 786.667-715 833.333-665 880-615 880-546.918q0 71.918-50.556 122.751-50.555 50.833-122.777 50.833H293.333Zm0-66.666h413.334q44.8 0 75.733-31.333 30.934-31.334 30.934-75.667 0-44.334-30.934-75.334-30.933-31-75.733-31h-60v-33.333q0-69.333-48.667-118t-117.858-48.667q-50.322 0-91.732 27t-61.41 73l-8.667 20h-27q-60.333 2-102.5 44.429-42.167 42.428-42.167 102.143 0 60.762 42.953 103.762 42.952 43 103.714 43ZM480-546.667Z"/></svg>