<svg xmlns="http://www.w3.org/2000/svg" height="40" viewBox="0 -960 960 960" width="40"><path d="M81.333-513.333q12.334-154 126.667-260.334Q322.333-880 480-880q83 0 155.5 31.5t127 86q54.5 54.5 86 127T880-480q0 82-31.5 155t-86 127.5q-54.5 54.5-127 86T480-80q-55.667 0-107.333-14-51.667-14-97.334-41.333-14.666-8.667-16-24.667-1.333-16 11.334-28.666 7.666-7.667 19.333-9 11.666-1.334 21.333 4.333 39.667 22.667 82.333 34.667 42.667 12 86.334 12 139.667 0 236.5-96.834 96.834-96.833 96.834-236.5T716.5-716.5q-96.833-96.834-236.5-96.834-131.667 0-225.667 85.834-94 85.833-106.333 214.167Q146.666-499 137.166-489.5q-9.5 9.5-23.833 9.5Q99-480 89.5-490q-9.5-10-8.167-23.333ZM480-480Zm172.667-44.001v89.334q0 14.334 9.5 23.834t23.833 9.5q14.333 0 23.833-9.5 9.5-9.5 9.5-23.834v-166.666q0-14.334-9.5-23.834t-23.833-9.5H519.333q-14.333 0-23.833 9.5-9.5 9.5-9.5 23.834 0 14.333 9.5 23.833 9.5 9.5 23.833 9.5h89.334l-172 172.001-101.334-87.667q-10-8.667-23.167-7.667-13.166 1-22.166 10L135.667-327q-8 8-9.5 18.5t4.166 19.833q8 13 23.333 14.667 15.334 1.666 26-9l135-135L416-330.333q10 8.666 23.167 7.666 13.166-1 22.166-10l191.334-191.334Z"/></svg>