<svg xmlns="http://www.w3.org/2000/svg" height="40" viewBox="0 -960 960 960" width="40"><path d="M513.333-512ZM160-552.334l-53.334 41q-11.565 8.667-24.782 6.667Q68.666-506.667 60-518q-8.667-11.333-6.537-24.794 2.13-13.46 13.203-21.873L439.667-849q9-6.667 19.307-10.333Q469.281-863 480-863t21.026 3.667q10.307 3.666 19.307 10.333l374 285q11 8.667 12.667 22.167 1.667 13.5-7 24.5-8.667 10.999-21.666 12.666-13 1.667-24-7L480-796.334l-253.334 193v376.668h193.335q14.166 0 23.749 9.617 9.584 9.617 9.584 23.833 0 14.216-9.584 23.716-9.583 9.5-23.749 9.5H226.666q-27.5 0-47.083-19.583T160-226.666v-325.668ZM563.334-40q-13 0-21.5-8.5t-8.5-21.5q0-13 8.5-21.5t21.5-8.5h27q-26-27-41.5-63t-15.5-77q0-61 33-110.5t87-72.5q11-5 20.5 0t14.5 16q5 11 1 22.5t-19 19.5q-35 17-56 50.5t-21 74.5q0 29 10.5 54t29.5 44v-28q0-13 8.5-21.5t21.5-8.5q13 0 21.5 8.5t8.5 21.5v96.667q0 14.166-9.584 23.75Q674.167-40 660.001-40h-96.667ZM801-57q-11 5-21 0t-15-16q-5-11-1-22.5t19-19.5q35-18 56-51t21-74q0-29-10.5-54T820-338v28q0 13-8.5 21.5T790-280q-13 0-21.5-8.5T760-310v-96.667q0-14.166 9.583-23.75 9.584-9.583 23.75-9.583H890q13 0 21.5 8.5T920-410q0 13-8.5 21.5T890-380h-27q26 27 41.5 63t15.5 77q0 61-33 110.5T801-57Z"/></svg>