<svg xmlns="http://www.w3.org/2000/svg" height="40" viewBox="0 -960 960 960" width="40"><path d="M886.55-613.334q-14.216 0-23.716-9.583-9.5-9.583-9.5-23.75v-160q0-14.166 9.617-23.75Q872.568-840 886.784-840q14.216 0 23.716 9.583 9.5 9.584 9.5 23.75v160q0 14.167-9.617 23.75t-23.833 9.583ZM120-186.666v-586.668q0-27.5 19.583-47.083T186.666-840h506.668q27.5 0 47.083 19.583T760-773.334v586.668q0 27.5-19.583 47.083T693.334-120H186.666q-27.5 0-47.083-19.583T120-186.666Zm66.666-326.667H400v-23.334q0-6.666 5-11.666t11.667-5h46.666q6.667 0 11.667 5t5 11.666v23.334h213.334v-260.001H186.666v260.001Zm0 326.667h506.668v-260.001H186.666v260.001Zm0 0h506.668-506.668Z"/></svg>