<svg xmlns="http://www.w3.org/2000/svg" height="40" viewBox="0 -960 960 960" width="40"><path d="M146.666-186.666v-466.668 466.668-19.5 19.5Zm0 66.666q-27 0-46.833-19.833T80-186.666v-466.668q0-27 19.833-46.833T146.666-720H320v-93.334q0-26.333 19.833-46.499Q359.666-880 386.666-880h186.668q27 0 46.833 20.167Q640-839.667 640-813.334V-720h173.334q27 0 46.833 19.833T880-653.334v158.001q0 14.094-9.617 23.214t-23.833 9.12q-14.216 0-23.716-9.584-9.5-9.583-9.5-23.75v-157.001H146.666v466.668h305.335q14.167 0 23.75 9.617t9.583 23.833q0 14.216-9.583 23.716-9.583 9.5-23.75 9.5H146.666Zm240-600h186.668v-93.334H386.666V-720ZM720-44.667q-80.333 0-137.833-57.5T524.667-240q0-80.333 57.5-137.833T720-435.333q80.333 0 137.833 57.5T915.333-240q0 80.333-57.5 137.833T720-44.667ZM738-244v-99.36q0-8.64-6-14.64t-14.667-6q-8.666 0-14.666 6t-6 14.646V-245q0 6.713 2.666 13.006 2.667 6.293 8 11.327L778-154q5.333 5.333 13.333 5 8-.333 13.334-5.667 6-6 5.666-14-.333-8-6.333-13.333l-66-62Z"/></svg>