<svg xmlns="http://www.w3.org/2000/svg" height="40" viewBox="0 -960 960 960" width="40"><path d="M719.667-124q9 0 15.333-6t6.333-15.333q0-9.334-6.4-15.334t-14.933-6q-9.333 0-15.333 6t-6 15.334q0 9.333 6 15.333t15 6Zm.333-83.334q8 0 13-5.333T738-226v-112q0-8-5.333-13-5.334-5-13.334-5t-13 5.333q-5 5.334-5 13.334v112q0 8 5.334 12.999 5.333 5 13.333 5Zm-573.334 20.668v-19.5 19.5-466.668 466.668Zm0 66.666q-27 0-46.833-19.833T80-186.666v-466.668q0-27 19.833-46.833T146.666-720H320v-93.334q0-26.333 19.833-46.499Q359.666-880 386.666-880h186.668q27 0 46.833 20.167Q640-839.667 640-813.334V-720h173.334q27 0 46.833 19.833T880-653.334v158.001q0 14.094-9.617 23.214t-23.833 9.12q-14.216 0-23.716-9.584-9.5-9.583-9.5-23.75v-157.001H146.666v466.668H436q14.167 0 23.75 9.617 9.584 9.617 9.584 23.833 0 14.216-9.584 23.716-9.583 9.5-23.75 9.5H146.666Zm240-600h186.668v-93.334H386.666V-720ZM720-44.667q-80.333 0-137.833-57.5T524.667-240q0-80.333 57.5-137.833T720-435.333q80.333 0 137.833 57.5T915.333-240q0 80.333-57.5 137.833T720-44.667Z"/></svg>