<svg xmlns="http://www.w3.org/2000/svg" height="40" viewBox="0 -960 960 960" width="40"><path d="M344-550.667h-48q-14.167 0-23.75-9.617t-9.583-23.833q0-14.216 9.583-23.716 9.583-9.5 23.75-9.5h48v-47.334q0-14.166 9.617-23.75Q363.234-698 377.45-698q14.217 0 23.716 9.583 9.5 9.584 9.5 23.75v47.334H458q14.167 0 23.75 9.617t9.583 23.833q0 14.216-9.583 23.716-9.583 9.5-23.75 9.5h-47.334v48q0 14.167-9.617 23.75-9.616 9.583-23.833 9.583-14.216 0-23.716-9.583-9.5-9.583-9.5-23.75v-48ZM378.667-326q-108.441 0-183.554-75.167Q120-476.333 120-583.333T195.167-765.5q75.166-75.167 182.5-75.167 107.333 0 182.166 75.167 74.834 75.167 74.834 182.267 0 43.233-14 82.9-14 39.666-40.667 73l236 234.667q9.667 9.37 9.667 23.851 0 14.482-9.667 24.148Q806.333-135 791.852-135T768-144.667L532.667-380q-30 25.333-69.64 39.666Q423.388-326 378.667-326ZM378-392.666q79.167 0 134.583-55.834Q568-504.333 568-583.333q0-79.001-55.417-134.834Q457.167-774 378-774q-79.722 0-135.528 55.833t-55.806 134.834q0 79 55.806 134.833Q298.278-392.666 378-392.666Z"/></svg>