<svg xmlns="http://www.w3.org/2000/svg" height="20" viewBox="0 -960 960 960" width="20"><path d="M649.196-456v24q0 9.6 7.2 16.8 7.2 7.2 16.8 7.2 9.6 0 16.8-7.2 7.2-7.2 7.2-16.8v-24h19.934q9.6 0 16.8-7.2 7.2-7.2 7.2-16.8 0-9.6-7.2-16.8-7.2-7.2-16.8-7.2h-19.934v-24q0-9.6-7.2-16.8-7.2-7.2-16.8-7.2-9.6 0-16.8 7.2-7.2 7.2-7.2 16.8v24h-24q-9.6 0-16.8 7.2-7.2 7.2-7.2 16.8 0 9.6 7.2 16.8 7.2 7.2 16.8 7.2h24Zm-167.761 0 49 63q1 1 17.757 9 14.243 0 20.243-12.5 6-12.5-2-23.5l-45-60 46-61q8-11 1.647-23t-20.647-12q-5 0-9.767 2.455-4.767 2.454-8.233 6.545l-49 63v-48q0-10.4-6.8-17.2-6.8-6.8-17.2-6.8-10.4 0-17.2 6.785-6.8 6.785-6.8 17.161v143.677q0 10.377 6.8 17.377 6.8 7 17.2 7 10.4 0 17.2-6.8 6.8-6.8 6.8-17.2v-48Zm-143.283 24h-72q-10.4 0-17.2 6.8-6.8 6.8-6.8 17.2 0 10.4 6.8 17.2 6.8 6.8 17.2 6.8h96q10.2 0 17.1-6.9 6.9-6.9 6.9-17.1v-68q0-10.2-6.9-17.1-6.9-6.9-17.1-6.9h-72v-28h72q10.4 0 17.2-6.8 6.8-6.8 6.8-17.2 0-10.4-6.8-17.2-6.8-6.8-17.2-6.8h-96q-10.4 0-17.2 6.8-6.8 6.8-6.8 17.2v68q0 10.4 6.8 17.2 6.8 6.8 17.2 6.8h72v28ZM218.87-135.869q-34.483 0-58.742-24.259t-24.259-58.742v-522.26q0-34.483 24.259-58.742t58.742-24.259h522.26q34.483 0 58.742 24.259t24.259 58.742v522.26q0 34.483-24.259 58.742t-58.742 24.259H218.87Z"/></svg>