<svg xmlns="http://www.w3.org/2000/svg" height="20" viewBox="0 -960 960 960" width="20"><path d="M218.87-135.869q-34.483 0-58.742-24.259t-24.259-58.742v-522.26q0-34.483 24.259-58.742t58.742-24.259h267.233q16.832 0 29.006 11.964 12.174 11.963 12.174 29.326t-12.024 29.537q-12.024 12.174-29.477 12.174H218.87v522.26h522.26v-267.233q0-16.832 11.964-29.006 11.963-12.174 29.326-12.174t29.537 12.024q12.174 12.024 12.174 29.477v266.912q0 34.483-24.259 58.742t-58.742 24.259H218.87ZM325.645-576q-15.21 0-25.71 10.35t-10.5 25.65v216q0 15.3 10.289 25.65 10.29 10.35 25.5 10.35 15.211 0 25.711-10.35 10.5-10.35 10.5-25.65v-216q0-15.3-10.29-25.65-10.289-10.35-25.5-10.35Zm154.566-96Q465-672 454.5-661.65 444-651.3 444-636v312q0 15.3 10.289 25.65 10.29 10.35 25.5 10.35Q495-288 505.5-298.35 516-308.7 516-324v-312q0-15.3-10.289-25.65-10.29-10.35-25.5-10.35Zm154.565 192q-15.211 0-25.711 10.35-10.5 10.35-10.5 25.65v120q0 15.3 10.29 25.65 10.289 10.35 25.5 10.35 15.21 0 25.71-10.35t10.5-25.65v-120q0-15.3-10.289-25.65-10.29-10.35-25.5-10.35Zm39.37-193.913h-37.073q-16.061 0-26.926-10.9-10.864-10.9-10.864-27.013 0-16.012 10.933-26.843Q621.15-749.5 637.312-749.5h36.834v-36.957q0-16.011 10.934-26.842 10.933-10.832 26.957-10.832 15.922 0 26.692 10.832 10.771 10.831 10.771 26.842v36.957h36.746q15.922 0 26.903 10.772 10.982 10.772 10.982 26.696 0 15.923-10.832 26.905-10.831 10.981-26.842 10.981H749.5v37.073q0 16.061-10.832 26.926-10.833 10.864-26.846 10.864-15.713 0-26.695-10.9-10.981-10.9-10.981-27.013v-36.717ZM480-480Z"/></svg>