<svg xmlns="http://www.w3.org/2000/svg" height="20" viewBox="0 -960 960 960" width="20"><path d="M440.413-440.413v114.739q0 16.825 11.321 28.206 11.32 11.381 28.055 11.381t28.267-11.381q11.531-11.381 11.531-28.206v-114.739h114.739q16.825 0 28.206-11.321 11.381-11.32 11.381-28.055t-11.381-28.267q-11.381-11.531-28.206-11.531H519.587v-114.739q0-16.825-11.321-28.206-11.32-11.381-28.055-11.381t-28.267 11.381q-11.531 11.381-11.531 28.206v114.739H325.674q-16.825 0-28.206 11.321-11.381 11.32-11.381 28.055t11.381 28.267q11.381 11.531 28.206 11.531h114.739ZM218.87-135.869q-34.483 0-58.742-24.259t-24.259-58.742v-522.26q0-34.483 24.259-58.742t58.742-24.259h522.26q34.483 0 58.742 24.259t24.259 58.742v522.26q0 34.483-24.259 58.742t-58.742 24.259H218.87Z"/></svg>