<svg xmlns="http://www.w3.org/2000/svg" height="20" viewBox="0 -960 960 960" width="20"><path d="M225.661-207.869q-17.444 0-29.618-11.964-12.174-11.963-12.174-29.326t12.024-29.537q12.024-12.174 29.477-12.174H229v-231.869q0-90.109 54.815-159.098 54.815-68.989 142.685-85.707v-51.086q0-22.292 15.604-37.896 15.604-15.605 37.896-15.605t37.896 15.605Q533.5-840.922 533.5-818.63v51.086q88.109 16.718 142.805 85.587Q731-613.087 731-522.739v231.869h3.63q17.453 0 29.477 11.964 12.024 11.963 12.024 29.326t-12.019 29.537q-12.018 12.174-29.462 12.174H225.661ZM480-490.804Zm.027 405.565q-30.972 0-52.815-21.923-21.842-21.922-21.842-52.707h149.5q0 31.195-21.985 52.913-21.986 21.717-52.858 21.717ZM312-290.87h336v-231.869q0-70-49-119t-119-49q-70 0-119 49t-49 119v231.869Zm130.565-150.5v45.848q0 15.779 10.768 26.607t26.456 10.828q15.689 0 26.668-10.828 10.978-10.828 10.978-26.607v-45.848h45.848q15.778 0 26.606-10.767 10.828-10.768 10.828-26.457t-10.828-26.667q-10.828-10.978-26.606-10.978h-45.848v-45.848q0-15.778-10.768-26.606-10.768-10.829-26.456-10.829-15.689 0-26.668 10.829-10.978 10.828-10.978 26.606v45.848h-45.848q-15.778 0-26.606 10.768-10.828 10.767-10.828 26.456t10.828 26.667q10.828 10.978 26.606 10.978h45.848Z"/></svg>