<svg xmlns="http://www.w3.org/2000/svg" height="20" viewBox="0 -960 960 960" width="20"><path d="M450.5-120.086q-35.292 0-66.081-18.761t-47.224-50.522q-11.587-19.391-.532-39.718 11.054-20.326 32.359-20.326 14 0 22.858 5.642 8.859 5.641 18.337 19.163 6.603 10.521 17.063 16.021 10.459 5.5 23.22 5.5 19.682 0 32.885-13.321 13.202-13.322 13.202-33.005 0-19.682-13.202-32.884Q470.182-295.5 450.5-295.5H133.913q-17.452 0-29.476-11.963-12.024-11.963-12.024-29.326t12.024-29.537q12.024-12.174 29.476-12.174H450.5q53.826 0 91.457 37.631 37.63 37.63 37.63 91.456t-37.63 91.577q-37.631 37.75-91.457 37.75ZM133.913-557.5q-17.452 0-29.476-11.964-12.024-11.963-12.024-29.326 0-17.362 12.024-29.536 12.024-12.174 29.476-12.174h496.396q24.473 0 41.376-16.903 16.902-16.902 16.902-41.184 0-24.283-16.902-41.305-16.903-17.021-41.547-17.021-15.037 0-28.403 8.282-13.365 8.283-21.126 22.087-8.196 14.478-20.511 21.218-12.316 6.739-27.511 6.739-19.826 0-30.022-16.826-10.196-16.827-2.087-37.175 13.391-37.76 50.348-62.543 36.956-24.783 79.998-24.783 58.378 0 99.57 41.353 41.193 41.353 41.193 100.196 0 58.604-41.288 99.734Q689.012-557.5 630.5-557.5H133.913Zm650.674 318.587q-21.87 8.631-40.978-2.185-19.109-10.815-19.109-30.924 0-15.62 7.359-26.723 7.358-11.103 21.683-18.843 14.719-6.934 22.882-20.477 8.163-13.544 8.163-30.348 0-24.283-16.902-41.185Q750.782-426.5 726.5-426.5H133.913q-17.452 0-29.476-11.963-12.024-11.964-12.024-29.326 0-17.363 12.024-29.537t29.476-12.174H726.5q58.512 0 99.799 41.288 41.288 41.287 41.288 99.799 0 44.957-22.38 80.391-22.381 35.435-60.62 49.109Z"/></svg>