<svg xmlns="http://www.w3.org/2000/svg" height="20" viewBox="0 -960 960 960" width="20"><path d="M480-137.304 360.043-97.065q-11.318 3.478-20.789-3.568-9.472-7.046-9.472-18.19v-14.938q0-6.009 2.479-10.755 2.478-4.746 7.195-8.593l75.044-55.804v-213.63l-280.891 80.804q-17.607 5.717-31.673-5.098-14.067-10.815-14.067-28.931v-14.864q0-9.52 4.598-17.477 4.598-7.956 13.758-13.521l213.318-121.674-206.934-206.935q-11.718-11.718-11.598-26.315.119-14.598 11.837-26.316 11.717-11.717 26.815-11.717t26.815 11.717L797.109-172q11.717 11.717 11.598 26.196-.12 14.478-11.837 26.195-11.718 11.718-26.696 11.718-14.978 0-26.696-11.718L545.5-316.587v107.674l73.565 54.565q6.196 3.718 8.674 9.794 2.479 6.076 2.479 11.938v6.29q0 14.133-11.414 22.936-11.413 8.803-24.565 4.086l-114.239-38Zm0-734.827q27.391 0 46.446 19.055Q545.5-834.022 545.5-806.63v209.086l307 174.522q9.248 5.49 14.44 14.8 5.191 9.309 5.191 19.768v6.851q0 19.233-15.502 31.288-15.502 12.054-34.955 6.337l-124.739-34.978L414.5-661.87v-144.76q0-27.392 19.054-46.446 19.055-19.055 46.446-19.055Z"/></svg>