<svg xmlns="http://www.w3.org/2000/svg" height="20" viewBox="0 -960 960 960" width="20"><path d="M335.789-390.5q17.363 0 29.537-11.963 12.174-11.964 12.174-29.326 0-17.363-11.963-29.537-11.964-12.174-29.326-12.174-17.363 0-29.537 11.963-12.174 11.964-12.174 29.326 0 17.363 11.963 29.537 11.964 12.174 29.326 12.174Zm144 0q17.363 0 29.537-11.963 12.174-11.964 12.174-29.326 0-17.363-11.963-29.537-11.964-12.174-29.326-12.174-17.363 0-29.537 11.963-12.174 11.964-12.174 29.326 0 17.363 11.963 29.537 11.964 12.174 29.326 12.174Zm144 0q17.363 0 29.537-11.963 12.174-11.964 12.174-29.326 0-17.363-11.963-29.537-11.964-12.174-29.326-12.174-17.363 0-29.537 11.963-12.174 11.964-12.174 29.326 0 17.363 11.963 29.537 11.964 12.174 29.326 12.174ZM480-87.87q-71.435 0-134.123-27.197-62.687-27.198-109.15-73.66-46.462-46.463-73.66-109.15Q135.869-360.565 135.869-432q0-71.435 27.198-134.123 27.198-62.687 73.66-109.15 46.463-46.462 109.15-73.66Q408.565-776.131 480-776.131q71.435 0 134.123 27.198 62.687 27.198 109.15 73.66 46.462 46.463 73.66 109.15Q824.131-503.435 824.131-432q0 71.435-27.198 134.123-27.198 62.687-73.66 109.15-46.463 46.462-109.15 73.66Q551.435-87.869 480-87.869ZM84.152-652.151q-11.717-11.718-11.598-26.935.12-15.217 11.837-26.935l122.826-122.826q11.718-11.717 26.816-11.717 15.097 0 26.815 11.717 11.717 11.717 11.717 26.935 0 15.217-11.717 26.935L137.022-651.152q-11.718 11.717-26.435 11.217-14.718-.5-26.435-12.217Zm792.696 0q-11.717 11.717-26.935 11.717-15.217 0-26.935-11.717L700.152-774.978q-11.717-11.718-11.717-26.935 0-15.218 11.717-26.935 11.718-11.717 26.935-11.598 15.217.12 26.935 11.837l122.826 123.826q11.717 11.718 11.717 26.316 0 14.597-11.717 26.315Z"/></svg>