<svg xmlns="http://www.w3.org/2000/svg" height="20" viewBox="0 -960 960 960" width="20"><path d="M324-282.5q-17.452 0-29.476-12.024Q282.5-306.548 282.5-324v-24q0-17.452 12.024-29.476Q306.548-389.5 324-389.5h312q17.452 0 29.476 12.024Q677.5-365.452 677.5-348v24q0 17.452-12.024 29.476Q653.452-282.5 636-282.5H324Zm0-288q-17.452 0-29.476-12.024Q282.5-594.548 282.5-612v-24q0-17.452 12.024-29.476Q306.548-677.5 324-677.5h312q17.452 0 29.476 12.024Q677.5-653.452 677.5-636v24q0 17.452-12.024 29.476Q653.452-570.5 636-570.5H324ZM129.37-87.87q-17.453 0-29.477-11.963-12.024-11.963-12.024-29.326t12.024-29.537q12.024-12.174 29.477-12.174h701.26q17.453 0 29.477 11.964 12.024 11.963 12.024 29.326t-12.024 29.537q-12.024 12.174-29.477 12.174H129.37Zm0-701.26q-17.453 0-29.477-11.964Q87.87-813.057 87.87-830.42t12.024-29.537q12.024-12.174 29.477-12.174h701.26q17.453 0 29.477 11.964 12.024 11.963 12.024 29.326t-12.024 29.537q-12.024 12.174-29.477 12.174H129.37Z"/></svg>