<svg xmlns="http://www.w3.org/2000/svg" height="20" viewBox="0 -960 960 960" width="20"><path d="M386-507.609v229.218q0 15 10.5 25.5t25.5 10.5q15 0 25.5-10.5t10.5-25.5v-231.305q0-6.992-1.239-14.483-1.239-7.492-4.718-13.343L394-653.609q-7-14-21-18.5t-28 2.5q-14 7-18.5 20.5t2.5 27.5l57 114Zm188 0 57-114q7-14 2.5-27.5t-18.5-20.5q-14-7-28-2.5t-21 18.5l-58.043 116.087q-3.479 5.851-4.718 13.343Q502-516.688 502-509.696v231.305q0 15 10.5 25.5t25.5 10.5q15 0 25.5-10.5t10.5-25.5v-229.218Zm60 68q14 7 27.5 2.5t20.5-18.5l45-89q7-14 2-27.5t-19-20.5q-14-7-27.5-2.5t-20.5 18.5l-45 89q-7 14-2 27.5t19 20.5Zm-308 0q14-7 19-20.5t-2-27.5l-45-89q-7-14-20.5-18.5t-27.5 2.5q-14 7-19 20.5t2 27.5l45 89q7 14 20.5 18.5t27.5-2.5Zm154 351.74q-80.913 0-152.345-30.618t-124.991-84.177q-53.559-53.559-84.177-124.991Q87.869-399.087 87.869-480q0-81.913 30.618-152.845t84.177-124.491q53.559-53.559 124.991-84.177Q399.087-872.131 480-872.131q81.913 0 152.845 30.618t124.491 84.177q53.559 53.559 84.177 124.491Q872.131-561.913 872.131-480q0 80.913-30.618 152.345t-84.177 124.991q-53.559 53.559-124.491 84.177Q561.913-87.869 480-87.869Zm0-83.001q129.043 0 219.087-90.043Q789.13-350.957 789.13-480t-90.043-219.087Q609.043-789.13 480-789.13t-219.087 90.043Q170.87-609.043 170.87-480t90.043 219.087Q350.957-170.87 480-170.87ZM480-480Z"/></svg>