<svg xmlns="http://www.w3.org/2000/svg" height="20" viewBox="0 -960 960 960" width="20"><path d="M320.37-183.869q-16.153 0-28.327-12.019-12.174-12.018-12.174-29.462v-508.989q0-17.444 12.174-29.618t28.327-12.174h319.26q16.153 0 28.327 12.019 12.174 12.018 12.174 29.462v508.989q0 17.444-12.174 29.618t-28.327 12.174H320.37Zm-191.675-88.544v-416.174q0-17.409 12.674-28.954 12.674-11.546 29.326-11.546 16.653 0 28.827 12.024 12.174 12.024 12.174 29.476v416.174q0 17.409-12.024 28.954-12.024 11.546-29.477 11.546-16.152 0-28.826-12.024t-12.674-29.476Zm619.609 0v-416.174q0-17.409 11.964-28.954 11.963-11.546 29.326-11.546t29.537 12.024q12.174 12.024 12.174 29.476v416.174q0 17.409-11.964 28.954-11.963 11.546-29.326 11.546t-29.537-12.024q-12.174-12.024-12.174-29.476Z"/></svg>