<svg xmlns="http://www.w3.org/2000/svg" height="20" viewBox="0 -960 960 960" width="20"><path d="M522.848-92.522 260.891-164v-370.457h63.348q9.196 0 17.533 1.62 8.337 1.619 15.293 4.098l241.391 86.652q28.305 10.674 48.251 34.359 19.945 23.685 19.945 53.75 0 9.087-6.065 14.511-6.065 5.424-15.63 5.424h-93.392q-14.108-1-28.554-2.718-14.446-1.717-28.555-6.435L470.37-352q-11.435-4.478-22.131.261t-15.174 16.413q-4.239 10.956.478 21.913 4.718 10.957 16.674 14.196l20.696 6.326q20.826 6.195 37.609 8.413 16.782 2.217 41.609 2.217h255.26q32.74 0 49.74 23.055 17 23.054 17 56.837L576.348-92.282q-12.674 5.239-26.631 4.239-13.956-1-26.869-4.478ZM41.304-161.543v-299.001q0-30.717 21.598-52.315t52.315-21.598q30.718 0 52.196 21.598 21.478 21.598 21.478 52.315v299.001q0 30.717-21.478 52.195-21.478 21.479-52.196 21.479-30.717 0-52.315-21.479-21.598-21.478-21.598-52.195Zm496.261-492.849 158.174-158.413q12.913-12.913 29.066-12.674 16.152.239 28.826 12.913 12.913 12.913 12.913 29.446t-12.913 29.446l-187 186.761q-12.674 12.674-29.066 12.674-16.391 0-29.065-12.674l-84.761-85q-12.435-12.674-12.674-28.827-.239-16.152 12.435-28.826 12.674-12.913 29.446-12.793 16.772.119 29.446 12.793l55.173 55.174Z"/></svg>