<svg xmlns="http://www.w3.org/2000/svg" height="20" viewBox="0 -960 960 960" width="20"><path d="M218.87-135.869q-34.483 0-58.742-24.259t-24.259-58.742v-522.26q0-34.483 24.259-58.742t58.742-24.259h163.108q9.674-32.239 36.899-52.119 27.225-19.881 61.152-19.881 33.928 0 61.123 19.881 27.196 19.88 36.87 52.119H741.13q34.483 0 58.742 24.259t24.259 58.742v522.26q0 34.483-24.259 58.742t-58.742 24.259H218.87ZM480-766.087q11.357 0 18.635-7.278 7.278-7.278 7.278-18.635 0-11.357-7.278-18.635-7.278-7.278-18.635-7.278-11.357 0-18.635 7.278-7.278 7.278-7.278 18.635 0 11.357 7.278 18.635 7.278 7.278 18.635 7.278Zm.242 362.87q60.715 0 103.193-42.721 42.478-42.721 42.478-103.435 0-60.714-42.721-103.073-42.72-42.358-103.434-42.358-60.715 0-103.193 42.601-42.478 42.601-42.478 103.315t42.721 103.192q42.72 42.479 103.434 42.479ZM218.87-218.87h522.26V-277.131q-57-43.804-123.065-65.489Q552-364.304 480-364.304t-138.065 21.923q-66.065 21.924-123.065 65.729v57.782Z"/></svg>