<svg xmlns="http://www.w3.org/2000/svg" height="20" viewBox="0 -960 960 960" width="20"><path d="M456-86.913q-95.8 0-160.444-68.143Q230.913-223.2 230.913-318v-392.587q0-67.82 47.532-116.117Q325.978-875 394.051-875q70.073 0 116.761 50.677Q557.5-773.645 557.5-704.587v306.674h-79.413v-312.674q0-35-24.303-60t-59.5-25q-35.197 0-59.697 25.5t-24.5 61.5V-311q0 60.957 42.778 102.935T456-166.087q31.087 0 57.152-12.804 26.065-12.805 45.348-33.891v98.558q-22.804 12.985-48.489 20.148T456-86.913Zm174.5-159.839H564q-17.452 0-29.476-12.048-12.024-12.048-12.024-29.434 0-17.386 12.024-29.365T564-329.578h66.5v-66.188q0-17.386 11.963-29.56 11.964-12.174 29.326-12.174 17.363 0 29.411 12.024 12.048 12.024 12.048 29.476v66.5h66.668q17.488 0 29.536 12.024Q821.5-305.452 821.5-288q0 17.452-12.048 29.476-12.048 12.024-29.536 12.024h-66.668v66.5q0 17.452-12.048 29.476Q689.152-138.5 672-138.5q-17.452 0-29.476-12.048-12.024-12.048-12.024-29.536v-66.668ZM456-314.587v78.174q-44.152 0-72.826-31.674-28.674-31.674-28.674-73.826V-684q0-16.554 11.696-28.071 11.695-11.516 28.13-11.516t28.011 11.516q11.576 11.517 11.576 28.071v347.087q0 9.489 6.35 15.907 6.35 6.419 15.737 6.419ZM601.913-504v-180q0-16.435 11.516-28.011 11.517-11.576 28.071-11.576 16.555 0 28.071 11.516 11.516 11.517 11.516 28.071v180h-79.174Z"/></svg>