<svg xmlns="http://www.w3.org/2000/svg" height="20" viewBox="0 -960 960 960" width="20"><path d="M331.696-87.87q-22.153 0-37.827-15.673-15.674-15.674-15.674-37.827v-605.26q0-22.153 15.674-37.827t37.827-15.674H402.5v-18.499q0-22.153 15.674-37.827T456-872.131h48q22.152 0 37.826 15.674T557.5-818.63v18.499h70.804q22.153 0 37.827 15.674t15.674 37.827v270.021q-23.109 7.283-43.859 18.022-20.75 10.739-39.142 25.935V-717.13H361.196v546.26h181.673q11.24 24.109 26.435 44.979 15.196 20.869 35.348 38.022H331.696Zm29.5-83Zm383.282-33.76-40.174 40.413q-12.674 12.674-28.826 11.935-16.152-.74-28.826-13.174-12.913-12.674-12.913-29.327 0-16.652 12.913-29.565l38.935-38.935-40.174-40.173q-12.913-12.914-12.294-29.446.62-16.533 13.533-29.446t29.446-12.913q16.532 0 29.446 12.913l38.934 40.174 40.174-40.174q12.674-12.674 29.446-12.554 16.772.119 29.446 12.793 12.674 12.674 12.674 29.326 0 16.653-12.674 29.327l-40.413 40.173 40.413 40.174q12.674 12.674 12.554 28.826-.12 16.153-12.794 28.827-12.674 12.674-29.326 12.793-16.652.12-29.326-12.554l-40.174-39.413Z"/></svg>