<svg xmlns="http://www.w3.org/2000/svg" height="20" viewBox="0 -960 960 960" width="20"><path d="M337.158-87.87q-32.288 0-54.614-22.826-22.327-22.826-23.327-55.391v-72q0-42.973 22.62-78.802 22.619-35.828 52.38-50.546l-26.256-158.891h-97.222q-32.265 0-55.241-23.002-22.977-23.002-22.977-55.303v-141.546q0-32.606 22.824-55.28t55.394-22.674h169.913v-12q-2.63-16.434 9.065-26.217 11.696-9.783 26.935-9.783h131q15.239 0 26.935 9.783 11.696 9.783 9.065 26.217v12h73.457q19.63 0 31.685 14.294 12.054 14.293 8.728 33.627l-67.435 408.775q29.761 14.718 52.381 50.546 22.619 35.829 22.619 78.802v72q0 32.265-22.993 55.241-22.992 22.977-55.28 22.977H337.158Zm-41.941-516.674-23.521-141.369h-60.957v141.369h84.478Zm186.725 391.892q16.023 0 27.073-10.84 11.05-10.839 11.05-26.863 0-16.023-10.839-27.073-10.84-11.05-26.863-11.05-16.024 0-27.074 10.839-11.05 10.84-11.05 26.863 0 16.024 10.84 27.074 10.839 11.05 26.863 11.05Zm-72.985-176.131h146.152l59.043-357.13H349.913l59.044 357.13Z"/></svg>