<svg xmlns="http://www.w3.org/2000/svg" height="20" viewBox="0 -960 960 960" width="20"><path d="M673.283-632.804q-5.718 0-10.816-1.739-5.097-1.739-9.576-3.978l-38.587-22.153q-14.565-8.282-30.152-4.141-15.587 4.141-23.869 18.706l-1.522 2.522 32.152 18.978q19.869 11.913 26.826 34.522 6.957 22.609-5.717 42.718l-36.652 63.021q22.521 35.239 33.402 75.239 10.88 40 10.88 82 0 121.435-85.196 206.011-85.195 84.576-206.63 84.576-121.674 0-206.75-85.456Q36-207.435 36-329.109q0-120.434 85.054-205.25 85.055-84.815 205.728-84.815 3.283 0 6.446-.5t6.446-.5l37.652-63.261q10.913-19.869 33.641-25.706 22.729-5.837 42.598 5.837l35.783 19.413.521-1.522q25.196-44.674 73.25-57.033 48.055-12.358 91.49 12.359l37.587 22.152q9.195 5.718 15.293 14.055 6.098 8.337 6.098 20.771 0 16.674-11.815 28.49-11.815 11.815-28.489 11.815Zm100.674 6.326q0-16.674 11.815-28.489 11.815-11.815 28.489-11.815h48q16.674 0 28.489 11.815 11.815 11.815 11.815 28.489t-11.815 28.489q-11.815 11.815-28.489 11.815h-48q-16.674 0-28.489-11.815-11.815-11.815-11.815-28.489ZM620.174-801.261q-16.674 0-28.489-11.815-11.816-11.815-11.816-28.489v-48q0-16.674 11.816-28.489 11.815-11.816 28.489-11.816t28.489 11.816q11.815 11.815 11.815 28.489v48q0 16.674-11.815 28.489-11.815 11.815-28.489 11.815Zm137.652 50.131q-12.435-12.435-12.935-28.609t11.935-28.609l34.761-33.761q12.435-12.435 28.109-11.935 15.674.5 28.109 12.935 12.434 12.435 12.434 28.109 0 15.674-12.434 28.109l-33.761 33.761q-12.435 12.434-28.109 12.434-15.674 0-28.109-12.434Z"/></svg>