<svg xmlns="http://www.w3.org/2000/svg" height="20" viewBox="0 -960 960 960" width="20"><path d="M328.572-319.891q16.885 0 28.7-11.666 11.815-11.665 11.815-28.639v-391.021q0-16.974-11.605-28.639-11.604-11.666-28.489-11.666-16.884 0-28.699 11.666-11.816 11.665-11.816 28.639v391.021q0 16.974 11.605 28.639 11.605 11.666 28.489 11.666ZM252-87.869q-48.348 0-82.239-33.772-33.892-33.772-33.892-82.12v-551.282q0-48.827 34.131-82.957 34.13-34.131 82.957-34.131h335.564q34.483 0 58.742 24.259t24.259 58.742v465.651q0 34.483-24.259 58.742t-58.742 24.259H252q-15.061 0-25.291 10.289-10.231 10.29-10.231 25.5 0 15.211 10.231 25.711 10.23 10.5 25.291 10.5h491.522v-591.348q0-16.974 11.604-28.639 11.605-11.666 28.49-11.666 16.884 0 28.699 11.666 11.816 11.665 11.816 28.639v588.956q0 34.483-24.259 58.742T741.13-87.869H252Z"/></svg>