<svg xmlns="http://www.w3.org/2000/svg" height="20" viewBox="0 -960 960 960" width="20"><path d="m480-231.152-134.065 53.891q-40.5 16.152-77.283-8.594-36.783-24.747-36.783-68.689V-741.13q0-34.896 24.109-59.448 24.109-24.553 58.892-23.553h211.934v83.001H314.87v485.826L480-320.87l165.13 65.566v-273.174h83.001v273.934q0 43.942-36.783 68.689-36.783 24.746-77.283 8.594L480-231.152Zm0-509.978H314.87h211.934H480Zm203.037 56.652h-32.529q-16.874 0-28.289-11.546-11.415-11.546-11.415-28.28 0-16.735 11.579-28.161 11.58-11.426 28.364-11.426h32.29v-32.413q0-16.825 11.58-28.206 11.579-11.381 28.224-11.381t28.011 11.381q11.366 11.381 11.366 28.206v32.413h32.202q16.735 0 28.266 11.32 11.532 11.321 11.532 28.056 0 16.645-11.382 28.225-11.381 11.579-28.206 11.579h-32.412v32.529q0 16.874-11.382 28.289-11.381 11.415-28.206 11.415-16.434 0-28.013-11.546-11.58-11.546-11.58-28.28v-32.174Z"/></svg>