<svg xmlns="http://www.w3.org/2000/svg" height="20" viewBox="0 -960 960 960" width="20"><path d="M510.065-511.348 610.87-620.152q9.195-10.019 3.858-22.401t-19.011-12.382H364.283q-13.924 0-19.136 12.294-5.212 12.293 3.983 22.489l100.805 108.804q12.855 12.674 30.156 12.674 17.3 0 29.974-12.674ZM746.13-824.131q32.421 0 55.211 22.79t22.79 55.211v532.26q0 32.421-22.79 55.211t-55.211 22.79H213.87q-32.421 0-55.211-22.79t-22.79-55.211v-532.26q0-32.421 22.79-55.211t55.211-22.79h532.26Zm-5 407.044V-741.13H218.87v324.043h522.26Z"/></svg>