<svg xmlns="http://www.w3.org/2000/svg" height="20" viewBox="0 -960 960 960" width="20"><path d="M603.5-763.544q57.478 57.914 90.696 129.294 33.217 71.38 33.217 153.533 0 81.195-33.217 154.011-33.218 72.815-90.696 130.728-48.478 49.674-111.315 79.011Q429.348-87.63 362.63-87.63q-11.239 0-22.619-.5-11.381-.5-23.62-2.5-12.63-2.718-20.543-11.87-7.913-9.152-7.913-22.022 0-10.391 5.315-18.663t14.707-12.228q85.413-52.478 136.097-138.707 50.685-86.228 50.685-186.597 0-101.087-50.685-186-50.684-84.913-136.097-137.392-9.392-3.956-14.707-12.228-5.315-8.272-5.315-18.663 0-12.87 7.913-22.141 7.913-9.272 20.543-11.99 12.239-2 23.62-2.5 11.38-.5 22.619-.5 66.718 0 129.555 29.457 62.837 29.456 111.315 79.13Z"/></svg>