<svg xmlns="http://www.w3.org/2000/svg" height="20" viewBox="0 -960 960 960" width="20"><path d="M480-87.87q-80.674 0-152.109-30.717T202.88-202.88q-53.576-53.576-84.293-125.011Q87.869-399.326 87.869-480q0-81.435 32.218-152.489 32.217-71.055 85.793-124.631 53.576-53.576 125.011-84.293Q402.326-872.131 480-872.131q21.522 0 40.543 2 19.022 2 29.783 4.761v241.848q-15.761-47.282-34.641-95.424-18.881-48.141-36.163-67.424-21.044 21.522-35.685 70.283-14.641 48.761-22.641 93.283h129.13v71.521h-138.13q-2 20-2.5 37.142-.5 17.141-.5 34.141 0 16.761.5 34.522t2.5 36.761h135.369q2-20 2.261-37.261.261-17.261.261-31.022 0-13.522-.761-33.185-.761-19.663-1.522-38.945h73q.761 23.282 1.522 41.565.761 18.282.761 29.565 0 17.761-.381 35.022-.38 17.261-2.141 34.261h159.087q5-19.761 7-37.142 2-17.38 2-34.141 0-17.283-2.38-35.065-2.381-17.783-5.902-34.065h85.239q3.522 20.282 5.022 36.065 1.5 15.782 1.5 33.065 0 78.674-30.718 150.109-30.717 71.435-84.293 125.011-53.576 53.576-124.631 85.293Q561.435-87.869 480-87.869ZM179.87-408.716h159.326q-2-19-2.5-37.261-.5-18.261-.5-36.022 0-18 .5-35.141.5-17.142 2.5-34.142H179.87q-5 19.761-7 36.522t-2 34.761q0 16.761 2 34.141 2 17.381 7 37.142ZM389.717-183.63q-14.478-28.522-24.5-67.522-10.021-39-17.021-86.283H206.63q28.283 56.522 76.424 96.783 48.142 40.261 106.663 57.022ZM206.63-622.804h141.566q7-47.283 17.521-86.163 10.522-38.881 25-67.403-58.521 16.761-107.163 56.903-48.641 40.141-76.924 96.663ZM479.522-173.63q16.043-16.522 33.043-62.903 17-46.38 26-100.902H421.196q9 54.522 25.641 100.902 16.641 46.381 32.685 62.903Zm90.043-10q58.522-16.761 106.902-57.022 48.381-40.261 76.663-96.783H611.565q-7 47.283-17.261 86.283t-24.739 67.522Zm51.565-479v-168q0-17.153 12.174-29.327 12.174-12.174 29.326-12.174h168q17.153 0 29.327 12.174 12.174 12.174 12.174 29.327v168q0 17.152-12.174 29.326T830.63-621.13h-168q-17.152 0-29.326-12.174T621.13-662.63Zm129.088-87.588h64.586v-64.586h-64.586v64.586Z"/></svg>