<svg xmlns="http://www.w3.org/2000/svg" height="20" viewBox="0 -960 960 960" width="20"><path d="M645.609-141.609v-200.195q-11-7.239-17.5-17.979-6.5-10.739-6.5-24.217 0-21.196 14.597-35.794 14.598-14.597 35.794-14.597 20.957 0 35.674 14.597 14.717 14.598 14.717 35.794 0 13.478-6.619 24.598-6.62 11.119-17.381 17.598v200.195h-52.782ZM92.891-188.891v-460.783L384-867.826l253.217 190.891q-25.869 2.478-50.88 10.152-25.011 7.674-47.924 19.066-75.131 37.63-118.359 108.891Q376.826-467.565 376.826-384q0 60.239 19.739 105.174 19.739 44.935 54.739 89.935H92.891Zm407.674-23.435q-33.239-35.478-52.098-79.217-18.858-43.74-18.858-92.457 0-100.957 70.717-171.674Q571.043-626.391 672-626.391q100.957 0 171.674 70.717Q914.391-484.957 914.391-384q0 51.717-22.597 97.957-22.598 46.239-58.598 81.717l-34.87-38.87q28.044-28 45.663-64.021 17.62-36.022 17.62-76.783 0-78.804-55.403-134.206Q750.804-573.609 672-573.609q-78.804 0-134.206 55.403Q482.391-462.804 482.391-384q0 37.761 14.381 72.663 14.38 34.902 40.902 61.902l-37.109 37.109Zm68.239-67.761q-20.239-20.717-31.717-47.576-11.478-26.859-11.478-56.337 0-60.957 42.717-103.674Q611.043-530.391 672-530.391q60.957 0 103.674 42.717Q818.391-444.957 818.391-384q0 31.717-12.978 59.576t-36.217 49.337l-35.348-39.348q14.761-14 23.261-32.022 8.5-18.021 8.5-37.543 0-39.043-27.283-66.326-27.283-27.283-66.326-27.283-38.804 0-66.206 27.283-27.403 27.283-27.403 66.326 0 18.522 7 35.663t20.522 31.141l-37.109 37.109Z"/></svg>