<svg xmlns="http://www.w3.org/2000/svg" height="20" viewBox="0 -960 960 960" width="20"><path d="M373.913-510.717v-116.069q0-15.701-10.839-26.751-10.84-11.05-26.863-11.05-16.024 0-27.074 10.807t-11.05 26.782v131.05q0 8.33 3.359 15.874 3.358 7.543 9.415 13.565l93.443 93.444q11.718 11.717 26.815 11.098 15.098-.62 26.816-12.337 11.717-11.718 11.717-26.816 0-15.098-11.717-26.815l-84.022-82.782ZM877-480.5q0-81.522-47.413-144.358-47.413-62.837-121.957-88.402-14.956-7.392-22.217-22.664-7.261-15.271-4.055-30.44 3.664-16.179 17.077-25.538 13.413-9.359 28.609-3.685Q829.739-766.109 894.87-678.88 960-591.652 960-480t-64.63 198.88q-64.631 87.229-167.326 116.707-15.196 5.674-28.989-3.685-13.794-9.359-17.458-25.538-3.206-15.169 3.936-30.44 7.141-15.272 22.097-22.664 74.544-26.565 121.957-89.402Q877-398.978 877-480.5ZM336-144q-70 0-131.133-26.6-61.134-26.6-106.4-71.867Q53.2-287.733 26.6-348.867 0-410 0-480t26.6-131.133q26.6-61.134 71.867-106.4 45.266-45.267 106.4-71.867Q266-816 336-816t131.133 26.6q61.134 26.6 106.4 71.867 45.267 45.266 71.867 106.4Q672-550 672-480t-26.6 131.133q-26.6 61.134-71.867 106.4-45.266 45.267-106.4 71.867Q406-144 336-144Zm-.184-83q105.64 0 179.412-73.588Q589-374.175 589-479.816q0-105.64-73.588-179.412Q441.825-733 336.184-733q-105.64 0-179.412 73.588Q83-585.825 83-480.184q0 105.64 73.588 179.412Q230.175-227 335.816-227ZM336-480Z"/></svg>