<svg xmlns="http://www.w3.org/2000/svg" height="20" viewBox="0 -960 960 960" width="20"><path d="M141.37-542.023V-686.52q0-16.047 10-26.079 10-10.031 25.945-10.031h119.576q16 0 26 10.031 10 10.032 10 26.079v144.497q0 15.046-10 25.578t-26 10.532H177.315q-15.945 0-25.945-10.532t-10-25.578Zm279.108 36.11q-15 0-25.5-10.532t-10.5-25.578V-686.52q0-16.047 10.5-26.079 10.5-10.031 25.5-10.031h119.151q15.893 0 25.893 10.031 10 10.032 10 26.079v144.497q0 15.046-10 25.578t-25.893 10.532H420.478Zm242.631 0q-16 0-26-10.532t-10-25.578V-686.52q0-16.047 10-26.079 10-10.031 26-10.031h119.576q15.945 0 25.945 10.031 10 10.032 10 26.079v144.497q0 15.046-10 25.578t-25.945 10.532H663.109ZM296.891-237.37H177.315q-15.945 0-25.945-10.531-10-10.532-10-25.579v-144.497q0-16.046 10-26.078t25.945-10.032h119.576q16 0 26 10.032t10 26.078v144.497q0 15.047-10 25.579-10 10.531-26 10.531Zm123.587 0q-15 0-25.5-10.531-10.5-10.532-10.5-25.579v-144.497q0-16.046 10.5-26.078t25.5-10.032h119.151q15.893 0 25.893 10.032t10 26.078v144.497q0 15.047-10 25.579-10 10.531-25.893 10.531H420.478Zm242.631 0q-16 0-26-10.531-10-10.532-10-25.579v-144.497q0-16.046 10-26.078t26-10.032h119.576q15.945 0 25.945 10.032t10 26.078v144.497q0 15.047-10 25.579-10 10.531-25.945 10.531H663.109Z"/></svg>