<svg xmlns="http://www.w3.org/2000/svg" height="20" viewBox="0 -960 960 960" width="20"><path d="M479.944-262.087q72.773 0 121.371-49.541 48.598-49.542 48.598-120.316 0-69.773-48.541-119.871-48.542-50.098-121.316-50.098-72.773 0-121.371 50.041-48.598 50.042-48.598 120.316 0 70.273 48.541 119.871 48.542 49.598 121.316 49.598Zm.056-78.217q-40.326 0-66.011-26.815-25.685-26.815-25.685-65.881 0-38.226 25.685-64.461T480-523.696q40.326 0 66.011 26.235 25.685 26.235 25.685 64.461 0 39.066-25.685 65.881-25.685 26.815-66.011 26.815ZM170.87-135.869q-33.783 0-58.392-24.609T87.869-218.87v-426.26q0-33.783 24.609-58.392t58.392-24.609h112.826l50.478-65.326q12.435-14.956 29.286-22.815 16.851-7.859 34.931-7.859H561.79q18.253 0 34.927 7.859t29.109 22.815l50.478 65.326H789.13q34.483 0 58.742 24.609t24.259 58.392v426.26q0 33.783-24.259 58.392t-58.742 24.609H170.87Zm0-83.001h618.26v-426.26H636.717l-74.729-96H398.63l-76.065 96H170.87v426.26ZM480-433Z"/></svg>