<svg xmlns="http://www.w3.org/2000/svg" height="20" viewBox="0 -960 960 960" width="20"><path d="M480-262.087q72.717 0 121.315-49.598T649.913-432q0-69.717-48.598-119.815T480-601.913q-72.717 0-121.315 50.098T310.087-432q0 70.717 48.598 120.315T480-262.087Zm0-78.217q-40.326 0-66.011-25.685-25.685-25.685-25.685-65.011 0-38.326 25.685-65.511 25.685-27.185 66.011-27.185 40.326 0 66.011 27.185 25.685 27.185 25.685 65.511 0 39.326-25.685 65.011-25.685 25.685-66.011 25.685ZM170.87-135.869q-33.783 0-58.392-24.609T87.869-218.87v-426.26q0-33.783 24.609-58.392t58.392-24.609h112.826l50.478-65.326q12.435-14.956 29.109-22.815 16.674-7.859 35.108-7.859h163.218q18.434 0 35.108 7.859 16.674 7.859 29.109 22.815l50.478 65.326H789.13q34.783 0 58.892 24.609t24.109 58.392v426.26q0 33.783-24.109 58.392t-58.892 24.609H170.87Z"/></svg>