<svg xmlns="http://www.w3.org/2000/svg" height="20" viewBox="0 -960 960 960" width="20"><path d="M495.302-599.587h269.915q-27.652-66.266-79.511-113.024-51.858-46.759-122.141-64.759l-85.782 146.239q-5.957 10.435-.62 20.99 5.337 10.554 18.139 10.554ZM346.217-554.37q6.957 10.435 19.631 10.555 12.674.119 18.63-10.316L518.5-785.912q-9.565-1.489-19.21-2.354-9.645-.864-19.29-.864-64.183 0-119.613 23.5-55.43 23.5-97.952 64.26l83.782 147ZM180.844-402h169.885q12.858 0 18.575-10.435 5.718-10.435-1.118-21.752L234.283-667.022q-30.566 38.522-46.989 85.989-16.424 47.468-16.424 101.306 0 19.77 2.739 39.586 2.739 19.815 7.235 38.141Zm216.591 219.37 83.782-147.239q5.957-10.435.739-20.99-5.217-10.554-18.018-10.554H195.783Q222-295.865 274.576-248.748q52.576 47.118 122.859 66.118ZM480-170.87q66 0 120.84-24.065Q655.679-219 698.565-259.63l-85.261-146.718q-5.956-11.434-18.304-11.315-12.348.12-19.192 11.399L441.5-174.121q9.565 1.491 18.772 2.371 9.206.88 19.728.88Zm246.717-123.108q27.848-36.848 45.131-84.913Q789.13-426.957 789.13-480q0-20.737-2.474-40.233-2.474-19.495-7.422-38.767H610.326q-12.913 0-18.63 10.935-5.718 10.935.239 21.369l134.782 232.718ZM480-480Zm0 392.13q-80.354 0-151.889-30.957-71.535-30.957-124.931-84.353-53.396-53.396-84.353-124.931Q87.869-399.646 87.869-480q0-81.115 30.958-152.269 30.957-71.155 84.353-124.551 53.396-53.396 124.931-84.353Q399.646-872.131 480-872.131q81.115 0 152.246 30.906 71.132 30.905 124.603 84.376 53.471 53.471 84.376 124.603Q872.131-561.115 872.131-480q0 80.354-30.958 151.889-30.957 71.535-84.353 124.931-53.396 53.396-124.551 84.353Q561.115-87.869 480-87.869Z"/></svg>