<svg xmlns="http://www.w3.org/2000/svg" height="20" viewBox="0 -960 960 960" width="20"><path d="M92.891-138v-106.935q0-15.674 5.098-29.848t14.054-26.608L429.065-726.5l-42.848-58.369q-4.717-6.957-6.837-15.033-2.119-8.076-.88-15.652 1.239-7.576 5.337-14.913 4.098-7.337 10.815-12.055 13.674-9.435 30.446-7.456 16.772 1.978 27.206 15.652l27.696 38.5 28.696-38.261q10.434-13.674 27.206-16.152 16.772-2.478 30.446 7.956 13.674 10.435 16.152 27.207 2.478 16.772-7.956 30.446l-42.609 58.13 316.022 425.109q8.956 12.434 14.054 26.608 5.098 14.174 5.098 29.848V-138q0 19.152-14.174 33.326T819.609-90.5H140.391q-19.152 0-33.326-14.174T92.891-138ZM480-657.413 175.891-248.935v75.435H285.13l156.566-214.848Q456.37-407.5 480-407.5q23.63 0 38.304 19.152L674.87-173.5h109.239v-75.435L480-657.413ZM386.761-173.5h185.478L480-301.674 386.761-173.5Zm131.543-214.848L674.87-173.5 518.304-388.348Q503.63-407.5 480-407.5q-23.63 0-38.304 19.152L285.13-173.5l156.566-214.848Q456.37-407.5 480-407.5q23.63 0 38.304 19.152Z"/></svg>