<svg xmlns="http://www.w3.org/2000/svg" height="20" viewBox="0 -960 960 960" width="20"><path d="M584-188.413q-18.099 0-30.343-11.531-12.244-11.532-12.244-30.056t12.244-30.556q12.244-12.031 30.343-12.031h96.521l-79.434-55.304q-15.196-9.957-17.674-26.392-2.478-16.434 7.478-31.63 9.592-15.196 26.378-18.174 16.786-2.978 31.414 6.978l79.904 55.544-33.174-91.239q-6.478-17.435.739-32.37 7.218-14.935 24.652-21.413 17.435-6.478 32.87.739 15.435 7.218 20.913 24.652l32.935 91 25.891-93.761q5.161-17.434 19.885-26.652 14.724-9.217 31.909-3.978 17.184 5.239 26.021 20.174 8.837 14.935 3.598 32.37l-68.788 253.63H584ZM256.587-306.5l-91.87 91.87q-9.196 9.195-22.489 4.311-13.294-4.884-13.294-18.224v-509.552q0-35.188 24.271-59.296 24.271-24.109 58.77-24.109h430.808q34.5 0 58.608 24.259Q725.5-772.983 725.5-738.5v163.696q-1.196-2.718-2.63-2.457-1.435.261-2.87.261-19.435 2-39.37 4.739-19.934 2.739-38.13 9.457V-738.5H211.935v349h274.261q-2.718 11.196-4.457 21.63Q480-357.435 480-346q0 9.435.239 19.87.239 10.434 2.957 19.63H256.587Zm58.764-288.956H539q16.807 0 28.338-11.321 11.532-11.321 11.532-28.056t-11.37-28.266q-11.37-11.531-28.177-11.531H315.674q-16.807 0-28.339 11.32-11.531 11.321-11.531 28.056t11.37 28.266q11.369 11.532 28.177 11.532Zm.04 142.086h127.892q16.824 0 28.205-11.32 11.382-11.321 11.382-28.056t-11.382-28.266q-11.381-11.532-28.205-11.532H315.391q-16.824 0-28.206 11.321-11.381 11.321-11.381 28.056t11.381 28.266q11.382 11.531 28.206 11.531ZM211.935-389.5v-349 349Z"/></svg>