<svg xmlns="http://www.w3.org/2000/svg" height="20" viewBox="0 -960 960 960" width="20"><path d="M675.798-342.457q-52.602 0-89.396-36.821-36.793-36.822-36.793-89.424 0-52.603 36.821-89.396 36.822-36.794 89.424-36.794 52.603 0 89.396 36.822 36.794 36.822 36.794 89.424 0 52.602-36.822 89.396-36.822 36.793-89.424 36.793Zm.07-80.609q19.402 0 32.484-13.124 13.083-13.125 13.083-32.526 0-19.402-13.125-32.484-13.124-13.083-32.526-13.083-19.401 0-32.484 13.125-13.082 13.124-13.082 32.526 0 19.401 13.124 32.484 13.125 13.082 32.526 13.082ZM471.109-43.739q-17.452 0-29.476-12.024-12.024-12.024-12.024-29.476v-81.718q0-22.731 10.837-42.757 10.837-20.025 30.271-31.743 32.718-18.239 54.74-26.5 22.021-8.261 58.739-14.739 12.344-2.478 24.568.016 12.224 2.495 20.693 11.702l46.369 54.217 46.37-54.217q8.195-8.718 20.511-11.457 12.315-2.739 24.75-.261 36.956 6.478 58.858 14.12 21.903 7.641 54.62 27.119 19.435 11.822 30.272 31.705 10.837 19.882 10.837 42.556v81.957q0 17.452-12.024 29.476-12.024 12.024-29.476 12.024H471.109Zm39.348-80.609H649l-66.37-77.739q-19.466 4.521-37.918 12.065-18.451 7.544-34.255 17.97v47.704Zm192.195 0h138.783l1.195-47.609q-16.521-10.521-35.423-18.184-18.903-7.663-38.185-11.946l-66.37 77.739Zm-53.652 0Zm53.652 0Zm-26.826-344.326ZM218.87-218.152v-522.261 84.891-11.37 448.74Zm-.249 83q-34.534 0-58.643-24.259t-24.109-58.741v-522.261q0-34.483 24.259-58.741 24.259-24.259 58.742-24.259h522.26q34.483 0 58.742 24.259 24.259 24.258 24.259 58.741v140.195q-16.913-19.391-38.022-33.109Q765-647.044 741.13-655.761v-84.652H218.87v522.261h147.739q-5 12.299-7 25.264-2 12.966-2 25.931v31.805H218.621ZM326.87-596.413h201.39q22.413-23.717 51.348-38.609 28.935-14.891 61.065-18.956-5-6.935-12.25-10.685-7.25-3.75-14.184-3.75H326.87q-15.3 0-25.65 10.289-10.35 10.29-10.35 25.501 0 15.21 10.35 25.71t25.65 10.5Zm0 153.13h152.413q-3.196-17.76-1.631-36.26 1.565-18.5 6.13-35.74H326.87q-15.3 0-25.65 10.29-10.35 10.289-10.35 25.5 0 15.21 10.35 25.71t25.65 10.5Zm0 153.131h89.065q14.956-12.674 32.719-21.45 17.762-8.776 36.542-16.094v-.369q-.479-15.805-7.957-24.826-7.478-9.022-28.043-9.261H326.87q-15.3 0-25.65 10.289-10.35 10.29-10.35 25.5 0 15.211 10.35 25.711 10.35 10.5 25.65 10.5Z"/></svg>