<svg xmlns="http://www.w3.org/2000/svg" height="20" viewBox="0 -960 960 960" width="20"><path d="M397-338.347 175.348-116.696q-12.674 12.674-28.826 12.174t-28.826-13.174q-12.674-12.674-12.674-29.326t12.629-29.281L338.347-397H225.239q-17.397 0-29.383-11.963-11.987-11.964-11.987-29.326 0-17.363 12.013-29.537Q207.894-480 225.329-480h212.888q17.435 0 29.609 12.012Q480-455.975 480-438.54v212.888q0 17.435-11.963 29.609-11.964 12.174-29.327 12.174-17.362 0-29.536-11.987Q397-207.842 397-225.239v-113.108ZM621.653-563h113.108q17.397 0 29.383 11.963 11.987 11.964 11.987 29.326 0 17.363-12.013 29.537Q752.106-480 734.671-480H521.783q-17.435 0-29.609-12.012Q480-504.025 480-521.46v-212.888q0-17.435 11.963-29.609 11.964-12.174 29.327-12.174 17.362 0 29.536 11.987Q563-752.158 563-734.761v113.108l221.652-221.651q12.674-12.674 29.326-12.674t29.326 12.674q12.674 12.674 12.674 29.326t-12.674 29.326L621.653-563Z"/></svg>