<svg xmlns="http://www.w3.org/2000/svg" height="20" viewBox="0 -960 960 960" width="20"><path d="M264.211-205.717q-17.244 0-29.119-11.665-11.875-11.664-11.875-28.907 0-17.244 11.665-29.119 11.664-11.875 28.907-11.875 17.244 0 29.119 11.665 11.875 11.664 11.875 28.908 0 17.243-11.665 29.118-11.664 11.875-28.907 11.875Zm432 0q-17.244 0-29.119-11.665-11.875-11.664-11.875-28.907 0-17.244 11.665-29.119 11.664-11.875 28.907-11.875 17.244 0 29.119 11.665 11.875 11.664 11.875 28.908 0 17.243-11.665 29.118-11.664 11.875-28.907 11.875Zm-324 142.087q-17.244 0-29.119-11.665-11.875-11.664-11.875-28.907 0-17.244 11.665-29.119 11.664-11.875 28.907-11.875 17.244 0 29.119 11.665 11.875 11.664 11.875 28.908 0 17.243-11.665 29.118-11.664 11.875-28.907 11.875Zm108-142.087q-17.244 0-29.119-11.665-11.875-11.664-11.875-28.907 0-17.244 11.665-29.119 11.664-11.875 28.907-11.875 17.244 0 29.119 11.665 11.875 11.664 11.875 28.908 0 17.243-11.665 29.118-11.664 11.875-28.907 11.875Zm108 142.087q-17.244 0-29.119-11.665-11.875-11.664-11.875-28.907 0-17.244 11.665-29.119 11.664-11.875 28.907-11.875 17.244 0 29.119 11.665 11.875 11.664 11.875 28.908 0 17.243-11.665 29.118-11.664 11.875-28.907 11.875ZM295-334.087q-87.152 0-145.826-62.949Q90.5-459.985 90.5-548.587q0-78.435 52.978-135.75t130.935-67.272q32.061-56.533 86.965-89.005 54.905-32.473 118.187-32.473 86.295 0 150.419 54.5 64.125 54.5 79.56 137.978 67.717 4.435 113.837 54.272 46.119 49.838 46.119 118.75 0 72.152-50.604 122.826Q768.292-334.087 696-334.087H295Zm5-83h396q38.01 0 64.255-26.163 26.245-26.163 26.245-64.054 0-37.892-26.245-64.337Q734.01-598.087 696-598.087h-58.5l-9-65.5q-8-54.731-50.379-90.616-42.379-35.884-98.103-35.884-52.344 0-92.029 32.163-39.685 32.163-58.967 84.489l-1.367 3.348h-27.501q-52.742-.08-89.698 36.946-36.956 37.027-36.956 89.138 0 53.025 37.047 89.97 37.046 36.946 89.453 36.946Zm180-185.5Z"/></svg>