<svg xmlns="http://www.w3.org/2000/svg" height="20" viewBox="0 -960 960 960" width="20"><path d="M624.696-231.869H170.87q-33.783 0-58.392-24.609T87.869-314.87v-452.032q0-.837.24-1.794l-10.696-11.695q-11.478-11.479-10.978-26.196.5-14.717 11.978-26.196 11.478-11.478 26.196-11.478 14.717 0 26.532 11.815l701.544 701.544q11.815 11.815 11.696 26.834-.12 15.019-11.598 26.133-11.479 11.479-26.576 11.979-15.098.5-26.577-10.979L624.696-231.869Zm247.435 33.63L686.37-384h4.804q12.191 0 20.509-9.094Q720-402.188 720-419.789 720-435 709.512-445.5 699.024-456 683.52-456h-69.15l-60-60H684q15.3 0 25.65-10.289 10.35-10.29 10.35-25.5Q720-567 709.65-577.5 699.3-588 684-588H482.37l-60-60H684q15.3 0 25.65-10.289 10.35-10.29 10.35-25.5Q720-699 709.65-709.5 699.3-720 684-720H350.37L198.239-872.131H789.13q33.783 0 58.392 24.609t24.609 58.392v590.891ZM472.804-384l-72-72H276q-15.3 0-25.65 10.289-10.35 10.29-10.35 25.5Q240-405 250.35-394.5 260.7-384 276-384h196.804Zm-132-132-70.282-71.283q-12.761 2-21.642 11.761Q240-565.761 240-552q0 15.3 10.35 25.65Q260.7-516 276-516h64.804Z"/></svg>