<svg xmlns="http://www.w3.org/2000/svg" height="20" viewBox="0 -960 960 960" width="20"><path d="M553.196-282.761q16.761 8 33.761.5 17-7.5 23-24.261 3.478-9.717 5.978-18.695 2.5-8.979 4.5-17.696l-71.761-72q-2 20.239-6.239 39.598-4.239 19.358-11.239 39.837-5 16.239.88 30.858 5.881 14.62 21.12 21.859Zm-128-52.239q17 8 34 .5t22-24.5q8.239-26.717 12.739-53.196 4.5-26.478 4.261-53.195l-90.957-91.718q4.478 18.718 6.218 37.935 1.739 19.217 1.739 39.174 0 24-2.5 47.5t-9.5 45.5q-5 16 1 31t21 21Zm-128.479-54q18 8 34.74-.739 16.739-8.739 21.739-26.739 4-15.761 6-31.142 2-15.38 2-32.38t-2-32.88q-2-15.881-6-30.642-5-18-21.12-26.739-16.119-8.739-35.359-.5-13.76 5-20.26 19.261-6.5 14.261-3.5 30.022 2 10.239 3.119 20.239 1.12 10 1.12 21.239t-1.62 20.739q-1.619 9.5-3.619 20.739-3 15.761 3.88 29.761T296.717-389ZM480-87.87q-80.913 0-152.348-30.597-71.435-30.598-125.011-84.174-53.576-53.576-84.174-125.011Q87.869-399.087 87.869-480q0-62.435 19.479-120.63 19.478-58.196 55.195-110.392h91.022l545.24 546.479-97.783 9L116-741.804q-11.478-11.479-11.478-26.696 0-15.217 11.478-26.696 11.478-11.478 26.696-11.478 15.217 0 26.695 11.478l628.392 629.631q11.478 11.478 12.098 26.695.619 15.218-10.859 26.696-11.478 11.478-26.696 11.478-15.217 0-26.696-11.478l-44.608-43.369q-49.957 32.717-105.772 50.195Q539.435-87.869 480-87.869Zm327.087-175.413L634.435-435.935q1.761-11.087 2.261-22.032.5-10.946.5-22.033 0-46.239-6.62-89.359-6.619-43.119-20.619-85.119-6-16.761-22.381-23.642-16.38-6.88-34.141.881-14.239 6-20.739 20.739t-1.5 30.978q8.521 25.087 13.163 51.935Q549-546.739 551-519.37L263.283-807.087q48.239-31.522 103.358-48.283 55.12-16.761 113.359-16.761 81.913 0 152.848 30.598 70.935 30.598 124.511 84.174 53.576 53.576 84.174 124.511Q872.131-561.913 872.131-480q0 58.239-16.761 113.359-16.761 55.119-48.283 103.358Z"/></svg>