<svg xmlns="http://www.w3.org/2000/svg" height="20" viewBox="0 -960 960 960" width="20"><path d="M480.212-387.587q31.223 0 53.299-22.408t22.076-53.631q0-31.222-22.288-53.298Q511.01-539 479.788-539q-31.223 0-53.299 22.288-22.076 22.289-22.076 53.511 0 31.223 22.288 53.418 22.289 22.196 53.511 22.196ZM332.413-236.413h295.174V-273q0-22.957-12.717-41.533-12.718-18.576-33.435-27.815-23.239-11.239-49.098-16.239-25.859-5-52.337-5t-52.337 5q-25.859 5-49.098 16.239-20.717 9.239-33.435 27.815-12.717 18.576-12.717 41.533v36.587ZM693.09-87.869H266.586q-34.499 0-58.608-24.259-24.109-24.259-24.109-58.742v-618.26q0-34.483 24.259-58.742t58.742-24.259h277.934q16.375 0 31.296 5.837 14.922 5.837 27.596 18.511l148.087 148.087q12.674 12.674 18.511 27.596 5.837 14.921 5.837 31.296v469.934q0 34.483-24.271 58.742t-58.77 24.259Z"/></svg>