<svg xmlns="http://www.w3.org/2000/svg" height="20" viewBox="0 -960 960 960" width="20"><path d="M289.196-480q0 8.667-.715 17.815-.714 9.148-2.142 17.815-2.143 16.37 4.357 29.87t20.5 19q14 5.5 27.5-.5t16.5-20.788q3-14.788 4.5-30.5t1.5-32.712q0-17-1.5-32.712-1.5-15.712-4.5-30.5t-16.5-21.288q-13.5-6.5-27.5-1t-20.5 19.5q-6.5 14-4.357 30.37 1.428 8.667 2.142 17.815.715 9.148.715 17.815Zm144 0q0 23.657-3 46.329-3 22.671-9 43.671-4 15 1.5 29.5t19.048 19.577Q456.196-335 469.696-342q13.5-7 18.5-21 8-27 12.5-56.67 4.5-29.671 4.5-60.33t-4.5-60.33q-4.5-29.67-12.5-56.67-5-14-18.5-21t-27.952-1.077Q428.196-614 422.696-599.5q-5.5 14.5-1.5 29.5 6 21 9 43.671 3 22.672 3 46.329Zm144-.021q0 38.021-6 74.521t-17 68.5q-5 14 .5 28.5t19.5 20q14 5.5 28.5-2t19.236-22.771q13.264-37.729 20.264-79.763 7-42.033 7-87 0-44.966-7-86.966-7-42-20.264-79.729Q617.196-662 602.696-669.5t-28.5-2q-14 5.5-19.5 20t-.5 28.5q11 32 17 68.479 6 36.48 6 74.5Zm-96.92 392.152q-81.189 0-152.621-30.618-71.432-30.618-124.991-84.177-53.559-53.559-84.177-124.949-30.618-71.391-30.618-152.845 0-81.455 30.618-152.387t84.177-124.491q53.559-53.559 124.949-84.177 71.391-30.618 152.845-30.618 81.455 0 152.387 30.618t124.491 84.177q53.559 53.559 84.177 124.716 30.618 71.156 30.618 152.344 0 81.189-30.618 152.621-30.618 71.432-84.177 124.991-53.559 53.559-124.716 84.177-71.156 30.618-152.344 30.618Z"/></svg>