<svg xmlns="http://www.w3.org/2000/svg" height="20" viewBox="0 -960 960 960" width="20"><path d="M779.87-77.935 81-776.804Q69.522-788.283 70.141-803q.62-14.717 12.098-26.196 11.478-11.478 26.076-11.478t26.076 11.478l698.87 698.631q11.478 11.478 11.359 26.315-.12 14.837-11.598 26.315-11.478 11.479-26.576 11.479T779.87-77.935ZM396-226.087q-55.717 0-94.815-39.098T262.087-360q0-55.957 39.098-94.935T396-493.913h73.674l76.065 75.826H396q-24.043 0-41.065 16.902T337.913-360q0 24.043 17.022 41.065T396-301.913h265.913l146.739 146.739q-14.434 8.913-30.467 13.75T744-136.587q-44.587 0-77.141-25.913-32.555-25.913-44.033-63.587H396Zm463.131 14.609L691.478-379.131q12-5.76 25.381-9.021 13.38-3.261 27.141-3.261 53.109 0 90.261 37.152 37.152 37.152 37.152 90.261 0 13.761-3.261 27.141-3.261 13.381-9.021 25.381ZM616.218-454.391l-54.153-54.153q16.37-11.239 26.196-28.923 9.826-17.685 9.826-38.533 0-34.283-23.902-58.185T516-658.087H412.522l-75.587-75.826H516q65.957 0 111.935 45.978Q673.913-641.957 673.913-576q0 36.804-15.185 68.087-15.184 31.283-42.51 53.522ZM216-568.587q-53.109 0-90.261-37.152Q88.587-642.891 88.587-696q0-36.391 18.576-66.185 18.576-29.793 48.489-45.75l172.283 172.044q-15.717 29.435-44.772 48.369-29.054 18.935-67.163 18.935Z"/></svg>