<svg xmlns="http://www.w3.org/2000/svg" height="20" viewBox="0 -960 960 960" width="20"><path d="M282.5-177.37v-78.499h-30.289q-17.363 0-29.537-11.964-12.174-11.963-12.174-29.326t12.024-29.668q12.024-12.305 29.476-12.305h30.5V-782.63q0-17.453 12.024-29.477 12.024-12.024 29.476-12.024h336q17.452 0 29.476 11.964 12.024 11.963 12.024 29.326t-12.024 29.537Q677.452-741.13 660-741.13H365.5v207.63H636q17.452 0 29.476 11.963 12.024 11.964 12.024 29.326 0 17.363-12.024 29.537T636-450.5H365.5v111.63H492q17.452 0 29.476 11.964Q533.5-314.943 533.5-297.58t-12.024 29.537Q509.452-255.869 492-255.869H365.5v78.499q0 17.453-11.963 29.477-11.964 12.024-29.326 12.024-17.363 0-29.537-12.024T282.5-177.37Z"/></svg>