<svg xmlns="http://www.w3.org/2000/svg" height="20" viewBox="0 -960 960 960" width="20"><path d="M480-87.87q-81.049 0-152.297-30.597-71.247-30.598-124.942-84.294-53.696-53.695-84.294-125.089-30.598-71.393-30.598-152.608 0-81.216 30.598-152.151 30.598-70.935 84.294-124.63 53.695-53.696 125.089-84.294 71.393-30.598 152.608-30.598 81.216 0 152.151 30.598 70.935 30.598 124.63 84.294 53.696 53.695 84.294 124.63T872.131-480v309.13q0 34.244-24.379 58.622-24.378 24.379-58.622 24.379H480Zm0-83q128.565 0 218.848-90.282Q789.13-351.435 789.13-480t-90.282-218.848Q608.565-789.13 480-789.13t-218.848 90.282Q170.87-608.565 170.87-480q0 23.13 3.641 46.859 3.641 23.728 11.685 46.336l111.321-111.321q12.765-12.765 28.918-13.004 16.152-.24 28.791 11.814l90.969 89.033 133.587-133.586h-30.13q-16.496 0-27.802-11.246-11.307-11.246-11.307-27.653 0-16.406 11.307-27.862 11.306-11.457 27.802-11.457h122.152q17.452 0 29.476 12.024 12.024 12.024 12.024 29.476v122.152q0 16.496-11.246 27.803-11.246 11.306-27.652 11.306t-27.863-11.306q-11.456-11.307-11.456-27.803v-31.13L475.022-329.261q-12.435 12.435-28.707 12.674-16.272.239-29.007-12.64l-90.634-88.208-105.283 106.283q44 66 112.283 103.141Q401.957-170.87 480-170.87Zm288.507 19.174q17.123 0 28.46-11.604 11.337-11.605 11.337-27.772 0-17.124-11.604-28.461-11.605-11.337-27.772-11.337-16.167 0-27.982 11.127-11.816 11.126-11.816 28.25 0 16.167 11.605 27.982 11.605 11.815 27.772 11.815ZM451.022-480Z"/></svg>