<svg xmlns="http://www.w3.org/2000/svg" height="20" viewBox="0 -960 960 960" width="20"><path d="M479.5-135.869q-144.087 0-243.859-44.242Q135.869-224.352 135.869-288v-384q0-63.348 100.392-107.739 100.391-44.392 243.239-44.392 142.609 0 243.62 44.392Q824.131-735.348 824.131-672v384q0 63.648-100.392 107.889-100.391 44.242-244.239 44.242Zm.467-464.37q85.794 0 165.316-21.381Q724.804-643 743.522-672q-18.718-28-98.979-49.761-80.26-21.761-164.571-21.761-85.255 0-165.515 21.881-80.261 21.88-97.979 49.641 17.479 29 96.62 50.38 79.141 21.381 166.869 21.381ZM480-408.717q41.283 0 79.043-4.62 37.761-4.62 71.142-12.739 33.38-8.12 62.119-20.859 28.739-12.739 51.218-29.217v-98.478q-24.726 13.222-54.102 23.491-29.377 10.27-62.97 16.998-33.593 6.728-70.521 10.261-36.929 3.532-76.427 3.532-39.019 0-76.278-3.532-37.258-3.533-70.524-10.381-33.265-6.848-63.004-17.228-29.739-10.38-53.218-23.141v98.478q22.653 16.183 50.685 29.07 28.033 12.886 61.652 21.006 33.62 8.119 71.761 12.739 38.141 4.62 79.424 4.62Zm.319 192.239q42.602 0 86.855-6.276 44.253-6.275 81.683-16.662 37.429-10.386 63.215-23.633 25.785-13.247 31.45-26.951v-93.826q-24.487 13.461-53.863 24.089-29.376 10.628-63.209 17.476-33.832 6.848-70.76 10.5-36.929 3.652-76.188 3.652-39.019 0-76.278-3.652-37.258-3.652-70.643-10.739-33.385-7.087-63.124-17.706-29.74-10.62-52.979-23.859V-288q5.718 12.761 31.696 25.761t63.239 22.88q37.261 9.881 81.783 16.381 44.521 6.5 87.123 6.5Z"/></svg>