<svg xmlns="http://www.w3.org/2000/svg" height="20" viewBox="0 -960 960 960" width="20"><path d="M480-89.87q-81.063 0-152.359-30.615-71.296-30.616-124.893-84.182-53.598-53.565-84.238-125.148-30.64-71.584-30.64-152.302 0-153.992 102.685-264.814Q293.241-857.753 444-872.131v107.001q-105.565 13.521-177.348 94.022-71.782 80.501-71.782 189.503 0 118.17 83.043 201.453Q360.957-196.87 480-196.87q71 0 128.685-30.521 57.685-30.522 97.685-82.522l93.565 54.217Q746.457-180.5 663.044-135.185 579.63-89.869 480-89.869Zm-39.587-352.543H348q-16.824 0-28.206-11.321-11.381-11.32-11.381-28.055t11.381-28.267q11.382-11.531 28.206-11.531h92.413V-614q0-16.824 11.321-28.206 11.32-11.381 28.055-11.381t28.267 11.381q11.531 11.382 11.531 28.206v92.413H612q16.824 0 28.206 11.321 11.381 11.32 11.381 28.055t-11.381 28.267Q628.824-442.413 612-442.413h-92.413V-350q0 16.824-11.321 28.206-11.32 11.381-28.055 11.381t-28.267-11.381Q440.413-333.176 440.413-350v-92.413Zm395.522 124.717-93.565-54.217q11-26 16.88-53.544Q765.13-453 765.13-482q0-109.273-71.902-189.441T516-765.13v-107.001q150.76 14.397 253.445 125.366Q872.131-635.797 872.131-482q0 42.952-9.598 85.128t-26.598 79.176Z"/></svg>