<svg xmlns="http://www.w3.org/2000/svg" height="20" viewBox="0 -960 960 960" width="20"><path d="M177.37-111.869q-17.453 0-29.477-11.964-12.024-11.963-12.024-29.326t12.024-29.537q12.024-12.174 29.477-12.174h605.26q17.453 0 29.477 11.964 12.024 11.963 12.024 29.326t-12.024 29.537q-12.024 12.174-29.477 12.174H177.37Zm0-217.674q-17.453 0-29.477-11.964-12.024-11.963-12.024-29.326t12.024-29.537q12.024-12.174 29.477-12.174h605.26q17.453 0 29.477 11.964 12.024 11.963 12.024 29.326t-12.024 29.537q-12.024 12.174-29.477 12.174H177.37Zm0-217.913q-17.453 0-29.477-11.964-12.024-11.963-12.024-29.326t12.024-29.537q12.024-12.174 29.477-12.174h605.26q17.453 0 29.477 11.964 12.024 11.963 12.024 29.326t-12.024 29.537q-12.024 12.174-29.477 12.174H177.37Zm0-217.674q-17.453 0-29.477-11.964-12.024-11.963-12.024-29.326t12.024-29.537q12.024-12.174 29.477-12.174h605.26q17.453 0 29.477 11.964 12.024 11.963 12.024 29.326t-12.024 29.537q-12.024 12.174-29.477 12.174H177.37Z"/></svg>