<svg xmlns="http://www.w3.org/2000/svg" height="20" viewBox="0 -960 960 960" width="20"><path d="M480-522.478Zm-42.5-337.74q19.391-12.434 42.5-12.434t42.5 12.434l260.13 150.327q19.492 11.318 30.496 30.123 11.005 18.804 11.005 41.442v192.022q-18.913-15.109-39.283-26.5-20.37-11.392-43.718-19.109v-92.63l-169.26 97.434q-41.457 11.652-75.718 37.663-34.261 26.011-56.456 61.272v-68.435L218.87-584.543v261.869l176.456 102.37q3.239 30.543 13.011 60.13 9.772 29.587 27.076 54.739-3.109 0-6.576-.837-3.467-.837-6.337-2.51L177.209-250.324q-19.231-11.219-30.285-29.988-11.055-18.768-11.055-41.362v-316.652q0-22.638 11.005-41.442 11.004-18.805 30.496-30.123L437.5-860.218Zm43.5 71.566L252.174-657.957 480-527.022l227.826-130.935L481-788.652ZM658.339-49.435q-79.774 0-135.774-56.226t-56-136q0-79.774 56.226-135.774t136-56q79.774 0 135.774 56.226t56 136q0 79.774-56.226 135.774t-136 56Zm25.9-202.818v-61.421q0-10.27-7.712-17.972-7.713-7.702-17.996-7.702-10.283 0-18.081 7.774t-7.798 18.139v65.565q0 9.196 3.359 16.05 3.359 6.854 9.167 12.719L695.37-168q7.841 7.478 18.377 7.359 10.536-.12 18.014-7.632 7.478-7.513 7.478-18.014 0-10.502-7.478-18.343l-47.522-47.623Z"/></svg>