<svg xmlns="http://www.w3.org/2000/svg" height="20" viewBox="0 -960 960 960" width="20"><path d="M479.283-75.434q-15.674-5.718-23.511-20.041-7.837-14.324-2.359-30.22 9.283-28.805 9.424-50.326.141-21.522-17.381-48.326-26.239-40.479-29.434-82.87-3.196-42.391 11.519-88.258 5.002-15.764 19.662-23.981 14.66-8.218 32.205-2.261 15.871 5.717 23.764 20.572 7.893 14.854 2.415 30.928-8.761 27.283-7.924 50.565.837 23.283 16.707 48.553 26.891 43.491 30.467 83.523 3.576 40.033-12.902 87.99-5.037 15.609-20.171 22.978-15.134 7.37-32.481 1.174Zm-182.87 0q-15.674-5.718-23.511-20.041-7.837-14.324-2.359-30.22 10.522-29.805 10.424-50.326-.098-20.522-18.38-48.326-25.761-40-29.077-83.25-3.315-43.251 11.174-87.691 5.229-15.951 19.888-24.168 14.66-8.218 31.966-2.261 15.871 5.717 23.884 20.572 8.013 14.854 2.534 30.928-9 26.565-8.924 50.565.077 24 17.642 48.087 29.478 42.239 31.054 83.75 1.576 41.511-13.663 88.228-5.037 15.61-20.171 22.98-15.133 7.368-32.481 1.173Zm363.5 0q-15.674-5.718-23.511-20.041-7.837-14.324-2.358-30.22 9.521-28.805 9.424-50.446-.098-21.641-17.381-48.206-26.239-40.24-29.554-82.87-3.315-42.631 11.244-88.06 5.412-16.274 20.817-23.836 15.406-7.561 32.515-1.604 15.674 5.717 23.631 20.772 7.956 15.054 2.478 30.728-9.522 27.565-9.185 50.446.337 22.88 17.141 47.065 28.957 42.858 30.794 83.891 1.837 41.033-13.402 88.228-5.037 15.61-20.171 22.98-15.134 7.368-32.482 1.173ZM209.304-750.696v48h541.392v-48H209.304Zm106.5 131 19.761 48h288.87l18.761-48H315.804Zm18.761 131.001q-27.485 0-49.123-14.75-21.638-14.75-29.116-40.055l-28.044-76.196h-18.978q-34.483 0-58.741-24.258-24.259-24.259-24.259-58.742v-131h707.392v131q0 34.783-24.259 58.892-24.258 24.108-58.741 24.108h-18.978l-27.848 75.479q-8.744 24.686-30.459 40.104t-48.259 15.418H334.565ZM209.304-750.696v48-48Z"/></svg>