<svg xmlns="http://www.w3.org/2000/svg" height="20" viewBox="0 -960 960 960" width="20"><path d="m480-214.282-59.391 59.391q-12.913 12.913-28.826 12.294-15.913-.62-28.826-13.533-12.914-12.913-12.914-29.446t12.914-29.446l58.152-58.152-59.392-59.391q-12.913-12.913-12.293-29.445.619-16.533 13.533-29.446 12.913-12.913 29.445-12.913 16.533 0 29.446 12.913L480-332.065l59.391-59.391q12.913-12.913 29.446-12.913t29.446 12.913q12.913 12.913 12.913 29.446 0 16.532-12.913 29.445l-59.392 59.391 59.392 59.392q12.913 12.913 12.913 28.826t-12.913 28.826q-12.913 12.913-29.446 12.913t-29.446-12.913L480-214.282ZM209.304-750.696v48h541.392v-48H209.304Zm106.5 131 19.761 48h288.87l18.761-48H315.804Zm18.761 131.001q-27.485 0-49.123-14.75-21.638-14.75-29.116-40.055l-28.044-76.196h-18.978q-34.483 0-58.741-24.258-24.259-24.259-24.259-58.742v-131h707.392v131q0 34.783-24.259 58.892-24.258 24.108-58.741 24.108h-18.978l-27.848 75.479q-8.744 24.686-30.459 40.104t-48.259 15.418H334.565ZM209.304-750.696v48-48Z"/></svg>