<svg xmlns="http://www.w3.org/2000/svg" height="20" viewBox="0 -960 960 960" width="20"><path d="M170.87-183.869q-34.483 0-58.742-24.271t-24.259-58.77v-426.504q0-34.499 24.259-58.608 24.259-24.109 58.742-24.109h587.76q17.453 0 29.477 11.964 12.024 11.963 12.024 29.326t-12.024 29.537q-12.024 12.174-29.477 12.174H170.87v426.26h74.195q17.452 0 29.476 11.964 12.024 11.963 12.024 29.326t-12.024 29.537q-12.024 12.174-29.476 12.174H170.87Zm259.681-127.414q19.297 0 32.699-13.458 13.402-13.458 13.402-32.685 0-19.226-13.458-32.628-13.459-13.402-32.685-13.402-19.226 0-32.748 13.458-13.522 13.458-13.522 32.685 0 19.226 13.508 32.628 13.507 13.402 32.804 13.402ZM830.63-183.869H640.065q-17.452 0-29.476-12.024-12.024-12.024-12.024-29.477v-335.043q0-17.452 12.024-29.476 12.024-12.024 29.476-12.024H830.63q17.453 0 29.477 12.024 12.024 12.024 12.024 29.476v335.043q0 17.453-12.024 29.477-12.024 12.024-29.477 12.024Zm-472.065-37.752v-37.357q-22.717-17.239-36.315-43.073-13.598-25.834-13.598-55.319 0-29.484 13.598-55.318 13.598-25.834 36.315-43.073v-37.357q0-16.045 10.806-26.898 10.806-10.854 26.781-10.854h68.476q15.975 0 26.956 10.854 10.981 10.853 10.981 26.898v37.357q22.718 17.239 36.196 43.073 13.478 25.834 13.478 55.318 0 29.485-13.478 55.319-13.478 25.834-36.196 43.073v37.357q0 16.045-10.806 26.898-10.806 10.854-26.78 10.854h-68.477q-15.974 0-26.956-10.854-10.981-10.853-10.981-26.898Z"/></svg>