<svg xmlns="http://www.w3.org/2000/svg" height="20" viewBox="0 -960 960 960" width="20"><path d="M745.63-111.935 641.022-215.304l-103.37 101.369q-12.21 12.674-26.881 18.892-14.671 6.217-30.678 6.217-16.006 0-30.77-6.217-14.765-6.218-26.975-18.892L112.935-422.348q-12.674-12.674-18.392-27.172-5.717-14.498-5.717-30.565t5.717-30.98q5.718-14.913 18.392-27.587l102.369-101.37L115-740.804q-11.478-11.479-11.598-26.696-.119-15.217 11.331-26.696 11.451-11.478 27.196-11.478 15.745 0 27.223 11.478l629.87 629.631q11.478 11.223 11.478 26.188 0 14.964-11.503 26.442-11.504 11.479-26.863 11.479t-26.504-11.479ZM583.37-274.196l-59.087-59.087L505-314q-11 11-25.5 11T454-314q-11-11-11-25t11-25l19.522-20.283L413.804-444H324q-15.3 0-25.65-10.289-10.35-10.29-10.35-25.5Q288-495 298.35-505.5 308.7-516 324-516h17.804l-67.608-67.37L172.065-480 480-172.065l103.37-102.131Zm164.435-47.891-58.892-57.891L787.935-480 480-787.935l-100.022 99.022-57.891-58.892 99.261-99.26q12.657-12.674 27.841-18.511 15.184-5.837 30.892-5.837t30.835 5.837q15.127 5.837 27.736 18.511l308.413 308.413q12.674 12.616 18.511 27.752 5.837 15.135 5.837 30.792 0 15.657-5.837 30.869t-18.511 27.891l-99.26 99.261Zm-116.74-115.978 17.37-18.609q9.804-11 9.565-24.283-.239-13.282-11-24.043L505-647q-10.397-10.761-23.981-11-13.584-.239-24.345 9.804-4.362 4.283-7.464 11.566-3.101 7.282-1.623 15.326l183.478 183.239Zm-96-97Zm-90.782 120.782Z"/></svg>