<svg xmlns="http://www.w3.org/2000/svg" height="20" viewBox="0 -960 960 960" width="20"><path d="M59.283-414.196q-28.761-45-44.022-90.761Q0-550.717 0-600q0-109.522 75.74-186.761Q151.477-864 264-864q62 0 117.88 25.88Q437.761-812.239 480-764q42.239-48.239 98.12-74.12Q634-864 696-864q112.522 0 188.261 77.239Q960-709.522 960-600q0 47.283-15.261 94.043-15.261 46.761-44.022 91.522-10.63-19.195-27.598-32.456-16.967-13.261-37.076-19.587 20.478-33 30.718-67.5Q877-568.478 877-600q0-74.978-51.511-127.989Q773.978-781 696-781q-54.891 0-109.652 32.131Q531.587-716.739 480-642.956 428.413-716.5 373.652-748.75 318.891-781 264-781q-77.978 0-129.489 53.011Q83.001-674.978 83.001-600q0 34.522 10.238 67.522 10.24 33 30.718 66-17.87 6.326-34.337 19.706-16.468 13.381-30.337 32.576Zm-63.11 295.827v-12.326q0-45.674 46.077-71.75Q88.326-228.521 168-228.521q10.087 0 17.554.38 7.468.38 14.033 1.902-6.478 13.957-11.337 32.152-4.859 18.196-4.859 42.392v74.826H37.674q-17.152 0-29.326-12.174T-3.826-118.37Zm240.001 0v-33.326q0-67.674 66.576-108.25 66.576-40.576 177.25-40.576t177.25 40.576q66.576 40.576 66.576 108.25v33.326q0 17.152-12.174 29.326T682.326-76.87H277.674q-17.152 0-29.326-12.174t-12.174-29.326Zm540.435 41.5v-74.826q0-25.196-4.859-42.892-4.859-17.695-11.576-31.652 6.565-1.522 14.152-1.902 7.587-.38 17.674-.38 79.674 0 125.75 26.076 46.076 26.076 46.076 71.75v12.326q0 17.152-12.174 29.326T922.326-76.87H776.609ZM168-275.565q-30.957 0-52.674-21.717Q93.609-319 93.609-349.956q0-30.957 21.717-52.674 21.717-21.718 52.674-21.718t52.674 21.718q21.717 21.717 21.717 52.674 0 30.956-21.717 52.674-21.717 21.717-52.674 21.717Zm624 0q-30.957 0-52.674-21.717-21.717-21.718-21.717-52.674 0-30.957 21.717-52.674 21.717-21.718 52.674-21.718t52.674 21.718q21.717 21.717 21.717 52.674 0 30.956-21.717 52.674-21.717 21.717-52.674 21.717Zm-312-48.717q-51.674 0-87.75-36.076-36.076-36.077-36.076-87.751 0-51.434 36.076-87.63T480-571.935q51.435 0 87.63 36.196 36.196 36.196 36.196 87.63 0 51.674-36.196 87.751-36.195 36.076-87.63 36.076Z"/></svg>