<svg xmlns="http://www.w3.org/2000/svg" height="20" viewBox="0 -960 960 960" width="20"><path d="m777.087-85.956-75.826-75.587q-49.583 32.956-105.696 50.315-56.112 17.359-115.033 17.359-81.507 0-152.908-30.618-71.401-30.618-124.96-84.177-53.559-53.559-84.177-124.96-30.618-71.401-30.618-152.908 0-58.921 17.359-115.033 17.359-56.113 50.315-105.696l-75.587-76.826 53.392-53.392 697.131 698.131-53.392 53.392ZM339.13-523.913h-18q-16.113 0-27.013 10.839-10.9 10.84-10.9 26.863 0 16.024 10.412 27.074 10.411 11.05 26.501 11.05h94.587l-75.587-75.826Zm467.957 253.63L629.283-448.087h15.804q13.626-2.152 22.422-12.681 8.795-10.528 8.795-25.021 0-16.024-10.343-27.074-10.344-11.05-26.331-11.05h-86.173L263.283-813.087q48.865-31.522 103.749-48.283 54.884-16.761 112.87-16.761 82.011 0 152.943 30.618 70.932 30.618 124.491 84.177 53.559 53.559 84.177 124.491 30.618 70.932 30.618 152.943 0 57.986-16.761 112.523t-48.283 103.096Z"/></svg>