<svg xmlns="http://www.w3.org/2000/svg" height="20" viewBox="0 -960 960 960" width="20"><path d="m438-408.87-58.043-59.043q-11.5-11.478-26.707-11.478t-26.685 11.494q-11.478 11.495-11.978 26.696-.5 15.201 10.978 26.679l82.37 82.37q12.67 12.674 29.563 12.674t29.567-12.674l167.37-166.37q11.478-11.499 11.478-26.706 0-15.207-11.495-26.685-11.494-11.478-26.695-11.478t-26.68 11.478L438-408.87ZM194.87-621.13h570.26v-72H194.87v72Zm-.287 437.261q-34.496 0-58.605-24.271-24.109-24.271-24.109-58.77v-426.504q0-34.499 24.269-58.608 24.268-24.109 58.764-24.109h570.515q34.496 0 58.605 24.271 24.109 24.271 24.109 58.77v426.504q0 34.499-24.269 58.608-24.268 24.109-58.763 24.109H194.583Z"/></svg>