<svg xmlns="http://www.w3.org/2000/svg" height="20" viewBox="0 -960 960 960" width="20"><path d="M660.211-681.326q-17.363 0-29.537-12.024T618.5-722.826v-118.805q0-17.452 11.963-29.476 11.964-12.024 29.326-12.024 17.363 0 29.537 12.024t12.174 29.476v118.805q0 17.452-11.963 29.476-11.964 12.024-29.326 12.024Zm0 155q-17.363 0-29.537-11.963-12.174-11.964-12.174-29.327 0-17.362 11.963-29.536 11.964-12.174 29.326-12.174 17.363 0 29.537 11.963 12.174 11.964 12.174 29.326 0 17.363-11.963 29.537-11.964 12.174-29.326 12.174Zm103.267 389.457q-122.458-9-232.381-60.098T333.739-335.38q-87.435-87.316-137.533-196.818-50.097-109.502-60.097-232.041-2-24.382 14.472-42.137t41.18-17.755h135.761q22.5 0 37.869 12.533 15.37 12.533 20.805 33.555l23.761 100.978q2.956 16.587-1.381 31.217-4.337 14.631-15.206 24.783l-98.435 96.087q19.043 35.369 43.609 68.456 24.565 33.087 55.577 63.115 28.836 28.82 60.444 52.646 31.609 23.826 66.261 41.913L621.5-395.805q10.63-10.391 25.022-14.369 14.391-3.978 30.978-1.022l100.543 22.283q22.022 6.434 34.055 21.445 12.033 15.011 12.033 37.033v137.674q0 24.811-18.272 41.351-18.272 16.541-42.381 14.541ZM256.435-603.826l69.761-67.848-16.682-69.456h-88.166q4.522 36.326 13.153 70.138 8.631 33.812 21.934 67.166ZM601.391-258.63q33.666 13.525 68.8 21.665 35.135 8.139 70.939 13.617v-88.804l-70.217-15.522-69.522 69.044ZM256.435-603.826ZM601.391-258.63Z"/></svg>