<svg xmlns="http://www.w3.org/2000/svg" height="20" viewBox="0 -960 960 960" width="20"><path d="M457.196-88.348q-35.479 0-69.218-7.26-33.739-7.261-65.261-21.022 5.848-114.152 63.587-212.424Q444.043-427.326 528-504.478 426.565-449.522 348.946-364.75q-77.62 84.772-107.011 197.446-4.239-3.478-7.718-6.218-3.478-2.739-6.717-6.978-42.957-44.956-67.294-101.75-24.337-56.793-24.337-118.467 0-69.435 24.598-132.392 24.598-62.956 67.555-106.913 76.152-77.152 195.858-100.489 119.707-23.337 342.533-4.902 19.913 248.913 1.076 367.956-18.837 119.044-88.989 191.435-44.717 46.957-102.293 72.316-57.577 25.358-119.011 25.358Z"/></svg>