<svg xmlns="http://www.w3.org/2000/svg" height="20" viewBox="0 -960 960 960" width="20"><path d="M36.21-288Q21-288 10.5-298.35T0-324v-216q0-15.3 10.29-25.65Q20.578-576 35.79-576 51-576 61.5-565.65T72-540v216q0 15.3-10.29 25.65Q51.422-288 36.21-288Zm118.087-96q-15.21 0-25.71-10.35t-10.5-25.65v-216q0-15.3 10.289-25.65 10.29-10.35 25.5-10.35 15.211 0 25.711 10.35 10.5 10.35 10.5 25.65v216q0 15.3-10.29 25.65-10.289 10.35-25.5 10.35ZM319.413-92.413q-34.483 0-58.741-24.259-24.259-24.258-24.259-58.741v-609.174q0-34.483 24.259-58.741 24.258-24.259 58.741-24.259h321.174q34.483 0 58.741 24.259 24.259 24.258 24.259 58.741v609.174q0 34.483-24.259 58.741-24.258 24.259-58.741 24.259H319.413Zm321.174-131H319.413v48h321.174v-48ZM319.413-736.587h321.174v-48H319.413v48ZM806.124-288q-15.211 0-25.711-10.35-10.5-10.35-10.5-25.65v-216q0-15.3 10.29-25.65 10.289-10.35 25.5-10.35 15.21 0 25.71 10.35t10.5 25.65v216q0 15.3-10.289 25.65-10.29 10.35-25.5 10.35Zm118.087-96Q909-384 898.5-394.35 888-404.7 888-420v-216q0-15.3 10.289-25.65 10.29-10.35 25.5-10.35Q939-672 949.5-661.65 960-651.3 960-636v216q0 15.3-10.289 25.65-10.29 10.35-25.5 10.35ZM319.413-736.587v-48 48Zm0 513.174v48-48Zm0-72h321.174v-369.174H319.413v369.174Z"/></svg>