<svg xmlns="http://www.w3.org/2000/svg" height="20" viewBox="0 -960 960 960" width="20"><path d="M262.087-87.87q-34.483 0-58.742-24.258-24.258-24.259-24.258-58.742v-618.26q0-34.483 24.258-58.742 24.259-24.259 58.742-24.259h277.935q16.374 0 31.296 5.837 14.921 5.837 27.595 18.511L747-699.696q12.674 12.674 18.511 27.596 5.837 14.921 5.837 31.296v146.13q-24.109 10.761-43.978 29.196-19.87 18.435-39.022 37.587L522.37-262.674Q509.696-250 503.978-235.078q-5.717 14.921-5.717 31.296v115.913H262.087Zm308.174-41.5v-61.475q0-8.764 3.478-16.101T582.935-220l198.761-198q7.975-8.129 17.683-11.782 9.708-3.653 19.424-3.653 10.512 0 20.108 3.859T856.391-418l44 45q7.306 7.975 11.371 17.683 4.064 9.708 4.064 19.424 0 9.955-3.653 19.83-3.652 9.875-11.782 17.759l-198 198q-5.717 5.717-13.054 9.076-7.337 3.359-16.1 3.359h-61.476q-17.452 0-29.476-12.024-12.024-12.024-12.024-29.477Zm250.174-162.673 42.608-43.609-45-45-42.608 43.609 45 45ZM561.848-621.13h126.5l-168-168 168 168-168-168v126.5q0 17.452 12.024 29.476 12.024 12.024 29.476 12.024Z"/></svg>