<svg xmlns="http://www.w3.org/2000/svg" height="20" viewBox="0 -960 960 960" width="20"><path d="M218.87-87.87q-34.483 0-58.742-24.258-24.259-24.259-24.259-58.742v-522.26q0-33.783 24.609-58.392t58.392-24.609H288V-833.5q0-16.257 11.246-27.444 11.246-11.187 27.413-11.187t27.504 11.187Q365.5-849.757 365.5-833.5v57.369h229V-833.5q0-16.257 11.246-27.444 11.246-11.187 27.413-11.187t27.504 11.187Q672-849.757 672-833.5v57.369h69.13q33.783 0 58.392 24.609t24.609 58.392V-527q0 17.452-11.964 29.476-11.963 12.024-29.326 12.024t-29.537-12.052q-12.174-12.052-12.174-29.546V-528H218.87v357.13h242.195q17.452 0 29.476 11.964 12.024 11.963 12.024 29.326t-12.024 29.537q-12.024 12.174-29.476 12.174H218.87Zm355.695-41.5v-61.475q0-8.764 3.478-16.101 3.479-7.337 9.196-13.054L786-418q7.975-8.129 17.683-11.782 9.708-3.653 19.424-3.653 10.512 0 20.108 3.859 9.597 3.859 17.481 11.576l44 45q7.305 7.975 11.37 17.683 4.065 9.708 4.065 19.424 0 9.955-3.653 19.83-3.653 9.875-11.782 17.759l-198 198q-5.718 5.717-13.055 9.076-7.337 3.359-16.1 3.359h-61.476q-17.452 0-29.476-12.024-12.024-12.024-12.024-29.477Zm250.174-162.673 42.609-43.609-45-45-42.609 43.609 45 45Z"/></svg>