<svg xmlns="http://www.w3.org/2000/svg" height="20" viewBox="0 -960 960 960" width="20"><path d="M480-63.87q-26.478 0-50.913-12.26-24.435-12.261-36.391-36.218h-13q-32.153-1.674-53.99-24.587-21.837-22.913-21.837-55.065v-145.935Q246.63-379.13 215.25-441.967 183.869-504.804 183.869-576q0-123.109 86.511-209.62 86.511-86.511 209.62-86.511 123.109 0 209.62 86.511 86.511 86.511 86.511 209.62 0 70.957-31.381 133.913-31.38 62.957-88.619 104.152V-192q0 32.152-21.837 55.065-21.837 22.913-53.99 24.587h-14q-11.956 23.957-36.01 36.218Q506.239-63.87 480-63.87ZM386.87-192h186.26v-48H386.87v48Zm0-96h186.26v-48H386.87v48ZM346-410.87h108.087v-106.413l-71.522-71.521q-7.478-7.479-7.359-18.316.12-10.837 7.598-18.315 7.479-7.478 18.316-7.478t18.315 7.478L480-564.63l60.804-60.805q7.479-7.478 18.316-7.478t18.315 7.478q7.478 7.478 7.478 18.315 0 10.837-7.478 18.316l-71.522 71.521v106.413H614q37.283-31 58.206-73.782Q693.13-527.435 693.13-576q0-88.804-62.163-150.967Q568.804-789.13 480-789.13q-88.804 0-150.967 62.163Q266.87-664.804 266.87-576q0 47.565 20.924 90.848Q308.717-441.87 346-410.87Zm134-153.76Zm0-35.37Z"/></svg>