<svg xmlns="http://www.w3.org/2000/svg" height="20" viewBox="0 -960 960 960" width="20"><path d="M225.661-135.869q-17.444 0-29.618-11.964-12.174-11.963-12.174-29.326t12.019-29.537q12.018-12.174 29.462-12.174h508.989q17.444 0 29.618 11.964 12.174 11.963 12.174 29.326t-12.019 29.537q-12.018 12.174-29.462 12.174H225.661Zm108.665-150.218q-62.87 0-106.663-43.793-43.794-43.794-43.794-106.664v-293.152q0-39.259 27.588-66.847 27.588-27.588 66.847-27.588H789.37q34.138 0 58.45 24.379 24.311 24.378 24.311 58.382v144q0 34.005-24.311 58.383-24.312 24.379-58.45 24.379h-67.457v78.064q0 62.87-43.967 106.664-43.967 43.793-106.729 43.793H334.326Zm.239-455.043h304.348H266.87 334.565Zm387.348 143.76h67.217v-144h-67.217v144ZM570.978-369.087q28.023 0 47.979-19.886 19.956-19.885 19.956-47.81V-741.13H434.87v29.739l65 65q3 3 7 17v134q0 9.6-7.2 16.8-7.2 7.2-16.8 7.2h-144q-9.6 0-16.8-7.2-7.2-7.2-7.2-16.8V-629.81q0-1.581 7-16.581l65-65v-29.739h-120v304.347q0 27.925 19.885 47.81 19.886 19.886 47.81 19.886h236.413ZM382.087-741.13h48-48Z"/></svg>