<svg xmlns="http://www.w3.org/2000/svg" height="20" viewBox="0 -960 960 960" width="20"><path d="M480-63.87q-26.478 0-50.913-12.26-24.435-12.261-36.391-36.218h-13q-31.853-1.674-53.84-24.737-21.987-23.063-21.987-54.915v-145.935Q246.63-379.13 215.25-441.967 183.869-504.804 183.869-576q0-123.274 86.395-209.702 86.394-86.429 209.619-86.429 123.226 0 209.737 86.429Q776.131-699.274 776.131-576q0 70.957-31.381 133.913-31.38 62.957-88.619 104.152V-192q0 31.852-21.987 54.915t-53.84 24.737h-14q-11.956 23.957-36.01 36.218Q506.239-63.87 480-63.87ZM386.87-192h186.26v-48H386.87v48Zm0-96h186.26v-48H386.87v48Zm119.043-122.87v-106.413l71.522-71.521q7.478-7.842 7.478-18.497 0-10.656-7.478-18.134t-18.134-7.478q-10.655 0-18.497 7.478L480-564.63l-60.804-60.805q-7.842-7.478-18.378-7.478-10.535 0-18.014 7.478-7.478 7.478-7.478 18.134 0 10.655 7.478 18.497l71.283 71.521v106.413h51.826Z"/></svg>