<svg xmlns="http://www.w3.org/2000/svg" height="20" viewBox="0 -960 960 960" width="20"><path d="m480-294.37-53.609 53.609q-11.717 11.718-26.195 11.098Q385.717-230.283 374-242q-11.717-11.717-11.717-26.815T374-295.63L426.37-348l-53.609-53.609q-11.718-11.717-11.098-26.815.62-15.098 12.337-26.815 11.717-11.718 26.815-11.718t26.815 11.718L480-401.63l53.609-53.609q11.717-11.718 26.815-11.718t26.815 11.718q11.718 11.717 11.718 26.815t-11.718 26.815L533.63-348l53.609 53.609q11.718 11.717 11.718 26.195 0 14.479-11.718 26.196-11.717 11.717-26.815 11.717T533.609-242L480-294.37ZM218.87-87.87q-34.483 0-58.742-24.608-24.259-24.609-24.259-58.392v-522.26q0-33.783 24.259-58.392t58.742-24.609H288V-833.5q0-16.257 11.246-27.444 11.246-11.187 27.413-11.187t27.504 11.187Q365.5-849.757 365.5-833.5v57.369h229V-833.5q0-16.257 11.246-27.444 11.246-11.187 27.413-11.187t27.504 11.187Q672-849.757 672-833.5v57.369h69.13q34.483 0 58.742 24.609t24.259 58.392v522.26q0 33.783-24.259 58.392T741.13-87.869H218.87Zm0-83h522.26V-528H218.87v357.13Z"/></svg>