<svg xmlns="http://www.w3.org/2000/svg" height="20" viewBox="0 -960 960 960" width="20"><path d="M480-872.131q51.304 0 90.478 10.337 39.174 10.337 78.174 28.294l-106 48.022q-15.26-2.561-31.434-4.542Q495.043-792 476-792q-11 0-22.5 1.12Q442-789.761 425-787q51 68 120 103.5T696-648h7.087l31.717 71.196q-104.434 7.239-186.358-24.5T398.717-703.37q-35.282 73.805-90.38 124.544-55.098 50.739-137.467 80.304 0 141.326 88.163 234.489Q347.196-170.87 480-170.87q129.326 0 220.109-90.304Q790.891-351.478 789.37-480q0-17.848-2.381-27.554-2.38-9.707-4.902-28.315L833.5-648.413q19.674 37.195 29.272 82.326 9.598 45.13 9.598 86.087 0 82.152-30.837 153.707-30.837 71.554-84.272 124.511-53.435 52.956-124.87 83.434Q560.957-87.869 480-87.869q-80.394 0-151.909-30.958-71.515-30.957-124.911-84.353-53.396-53.396-84.353-124.911Q87.869-399.606 87.869-480q0-80.957 30.359-152.391 30.359-71.435 83.315-124.631 52.957-53.196 124.631-84.152Q397.848-872.131 480-872.131ZM361.083-504.717q20.591 0 34.711 14.006 14.119 14.007 14.119 34.598t-13.619 34.711q-13.62 14.119-34.598 14.119-20.979 0-35.098-14.006-14.12-14.007-14.12-34.598t14.007-34.711q14.007-14.119 34.598-14.119ZM555.565-712Zm43.127 207.283q20.591 0 34.71 14.006 14.12 14.007 14.12 34.598t-13.62 34.711q-13.619 14.119-35.098 14.119-21.478 0-35.098-13.619-13.619-13.62-13.619-35.098t14.007-35.098q14.007-13.619 34.598-13.619Zm124.06-218.274-60.361-27.813q-11.717-5.879-11.717-17.396 0-11.517 11.717-16.996l60.361-27.813 27.813-60.361q5.878-11.717 17.396-11.717 11.517 0 16.996 11.717l27.813 60.361 60.36 27.813q11.718 5.879 11.718 17.396 0 11.517-11.718 16.996l-60.36 27.813-27.813 60.361q-5.879 11.717-17.396 11.717-11.518 0-16.996-11.717l-27.813-60.361ZM187-585q58-31 95.5-73T342-758q-60 33-96.5 73.5T187-585Zm155-173Z"/></svg>