<svg xmlns="http://www.w3.org/2000/svg" height="20" viewBox="0 -960 960 960" width="20"><path d="M481-87.87q-80.917 0-152.569-31.083-71.651-31.084-124.889-84.794-53.238-53.709-84.455-125.144-31.218-71.435-31.218-153.085 0-81.981 30.859-153.915 30.859-71.935 84.315-125.011 53.457-53.076 125.131-84.033Q399.848-875.891 481-876.131q41.826 0 82.859 7.957 41.032 7.956 69.554 22.67-16.543 12.564-25.859 29.209-9.315 16.645-9.315 39.295 0 26.41 14.076 50.293t41.272 35.419l25.543 11.324 11.892 26.516q12.717 26.339 34.793 40.654 22.076 14.316 49.946 14.316 22.152 0 39.967-8.935 17.816-8.935 28.011-27 16.703 39.195 24.167 76.326 7.464 37.13 7.464 76.087 0 81.152-30.913 153.207-30.914 72.054-84.982 125.511-54.069 53.456-125.686 84.434Q562.172-87.869 481-87.869ZM361.196-407.282q-20.479 0-34.598-14.119-14.12-14.12-14.12-34.598t14.12-34.598q14.119-14.119 34.598-14.119 20.478 0 34.598 14.119 14.119 14.12 14.119 34.598t-14.119 34.598q-14.12 14.119-34.598 14.119Zm237.608 0q-20.478 0-34.598-14.119-14.119-14.12-14.119-34.598t14.119-34.598q14.12-14.119 34.598-14.119 20.479 0 34.598 14.119 14.12 14.12 14.12 34.598t-14.12 34.598q-14.119 14.119-34.598 14.119ZM480-170.87q129.565 0 219.467-90.043 89.903-90.044 89.903-218.609 0-23-5-52.141t-13-50.902q-21 5-37.642 6.5-16.641 1.5-39.641 1.5-85.283 0-160.946-33.141-75.663-33.142-135.424-95.664-36.521 77.044-92.543 127.446-56.022 50.402-132.065 76.402-1 4-1.5 10t-.5 10q0 128.565 90.163 218.609Q351.435-170.87 480-170.87ZM722.761-723l-60.37-27.804q-11.717-5.479-11.717-17.196 0-11.717 11.717-17.196L722.761-813l27.804-60.37q5.478-11.717 17.196-11.717 11.717 0 17.196 11.717L812.761-813l60.369 27.804q11.718 5.479 11.718 17.196 0 11.717-11.718 17.196L812.761-723l-27.804 60.37q-5.479 11.717-17.196 11.717-11.718 0-17.196-11.717L722.761-723Z"/></svg>