<svg xmlns="http://www.w3.org/2000/svg" height="20" viewBox="0 -960 960 960" width="20"><path d="M258.5-179.087q-16.152 0-28.826-12.674T217-220.587v-106.326h-30.5q-16.152 0-28.826-12.024T145-368.413q0-16.152 12.674-28.826t28.826-12.674H217V-474.5h-30.5q-16.152 0-28.826-11.963Q145-498.427 145-515.789q0-17.363 12.674-29.537T186.5-557.5H217v-87.321q0-8.331 3.478-15.668t9.196-14.055l74.171-74.956q12.273-12.391 29.116-12.391t28.966 12.309l44.16 45.212 45.262-45.212q12.322-12.309 29.682-12.309t29.795 12.434l43.087 44.848 44.598-44.973q12.435-12.309 29.951-12.309t29.647 12.391l73.217 74.956q5.718 6.718 8.696 14.221Q743-652.819 743-644.512v87.012h30.044q17.646 0 29.801 12.024Q815-533.452 815-516q0 17.452-12.155 29.476Q790.69-474.5 773.044-474.5H743v64.587h30.044q17.646 0 29.801 12.674Q815-384.565 815-368.413q0 17.452-12.155 29.476-12.155 12.024-29.801 12.024h-30.283v106.326q0 16.152-11.884 28.826-11.885 12.674-29.308 12.674H258.5ZM300-557.5h64.587v-71.065l-32.174-32.413L300-628.66v71.16Zm147.587 0h64.826v-71.065L480-660.978l-32.413 32.318v71.16Zm147.826 0H660v-71.16l-32.413-32.318-32.174 32.652v70.826ZM300-409.913h64.587V-474.5H300v64.587Zm147.587 0h64.826V-474.5h-64.826v64.587Zm148.826 0H660V-474.5h-63.587v64.587ZM300-262.087h64.587v-64.826H300v64.826Zm147.587 0h64.826v-64.826h-64.826v64.826Zm148.826 0H660v-64.826h-63.587v64.826Z"/></svg>