<svg xmlns="http://www.w3.org/2000/svg" height="20" viewBox="0 -960 960 960" width="20"><path d="M290.152-432h48q20.4 0 34.2-13.8 13.8-13.8 13.8-34.2v-48q0-20.4-13.8-34.2-13.8-13.8-34.2-13.8h-75.369q-9.196 0-14.913 5.717-5.718 5.718-5.718 14.913v147.124q0 10.246 6.8 17.246 6.8 7 17.2 7 10.4 0 17.2-6.8 6.8-6.8 6.8-17.2v-24Zm189.37-144q-10.4 0-17.2 6.785-6.8 6.785-6.8 17.161v143.677q0 10.377 6.8 17.377 6.8 7 17.2 7 10.4 0 17.2-6.785 6.8-6.785 6.8-17.161v-143.677q0-10.377-6.8-17.377-6.8-7-17.2-7Zm142.326 96 39.565 82.761q3.239 6 9.302 9.619 6.064 3.62 13.34 3.62h9.302q10.252 0 17.371-7.139 7.12-7.14 7.12-17.339V-552q0-10-7-17t-17-7q-10 0-17 7t-7 17v72l-40.083-82.821q-2.961-5.94-9.048-9.559-6.087-3.62-13.391-3.62h-9q-10 0-17.239 7.067-7.239 7.067-7.239 17.172V-408q0 10 7 17t17 7q10 0 17-7t7-17v-72Zm-331.696 0v-48h48v48h-48ZM170.87-183.869q-34.483 0-58.742-24.271t-24.259-58.77v-426.504q0-34.499 24.259-58.608 24.259-24.109 58.742-24.109h618.26q34.483 0 58.742 24.271t24.259 58.77v426.504q0 34.499-24.259 58.608-24.259 24.109-58.742 24.109H170.87Zm0-83.001h618.26v-426.26H170.87v426.26Zm0 0v-426.26 426.26Z"/></svg>