<svg xmlns="http://www.w3.org/2000/svg" height="20" viewBox="0 -960 960 960" width="20"><path d="M708.059-330.5h136.638q17.477 0 29.651 11.963 12.174 11.964 12.174 29.326 0 17.363-12.152 29.537-12.151 12.174-29.793 12.174h-37.425l71.674 71.674Q891.5-163.152 891.62-147q.119 16.152-12.076 28.826-13.153 12.674-30.091 12.794-16.939.119-29.279-12.555L749.5-188.848v36.465q0 17.624-11.963 29.765-11.964 12.14-29.326 12.14-17.363 0-29.537-12.041T666.5-152.037v-136.638q0-17.477 12.041-29.651t29.518-12.174ZM525.13-802.13v126.5q0 17.452 12.024 29.476 12.024 12.024 29.476 12.024h126.5l-168-168Zm-258.26-83.001h277.934q16.375 0 31.296 5.837 14.922 5.837 27.596 18.511l148.087 148.087q12.674 12.674 18.511 27.596 5.837 14.921 5.837 31.296V-444q0 17.452-12.024 29.476Q752.083-402.5 734.63-402.5H636q-17.452 0-29.476 12.024Q594.5-378.452 594.5-361v218.63q0 17.453-12.024 29.477-12.024 12.024-29.476 12.024H266.87q-34.483 0-58.742-24.259t-24.259-58.742v-618.26q0-34.483 24.259-58.742t58.742-24.259Z"/></svg>