<svg xmlns="http://www.w3.org/2000/svg" height="20" viewBox="0 -960 960 960" width="20"><path d="M432-682.13q-46.395 0-83.948 23.206-37.552 23.207-59.269 60.576-8.196 14.435-23.229 20.533-15.032 6.098-30.945 1.119-16.153-4.978-24.848-18.652-8.696-13.674-1.739-28.587 30.913-62.478 90.348-101.837 59.434-39.359 133.63-39.359 52.109 0 96.052 18.363 43.942 18.363 75.535 51.116v-39.022q0-16.017 10.887-26.965 10.888-10.948 26.816-10.948 15.928 0 27.025 10.948 11.098 10.948 11.098 26.965V-606.5q0 17.452-12.024 29.476Q655.365-565 637.913-565H509.261q-16.017 0-26.846-10.887-10.828-10.888-10.828-26.816 0-15.927 10.948-26.906 10.948-10.978 26.965-10.978h32.087q-21.326-20.848-49.272-31.196Q464.37-682.13 432-682.13Zm.421 413.261q-52.315 0-96.042-18.75-43.727-18.75-75.966-51.729v39.022q0 16.017-10.887 26.965-10.888 10.948-26.816 10.948-15.928 0-27.025-10.948-11.098-10.948-11.098-26.965V-427.5q0-17.452 12.024-29.476Q208.635-469 226.087-469h127.652q16.017 0 26.846 10.768 10.828 10.767 10.828 26.695t-10.828 27.026q-10.829 11.098-26.846 11.098h-32.804q21.565 20.609 49.772 31.076Q398.913-351.87 432-351.87q44.736 0 80.64-21.467 35.903-21.467 58.382-55.88 9.913-15.674 25.565-24.87 15.652-9.196 32.804-3.717 16.153 5.239 24.468 20.271 8.315 15.033-.12 29.707-4.098 9.235-9.593 17.346-5.494 8.11-11.298 15.676l167 166.761q12.913 12.913 12.913 29.065t-12.913 29.065q-12.913 12.674-29.565 12.674-16.653 0-29.566-12.913l-166-166q-29.39 22.186-65.217 34.734-35.826 12.549-77.079 12.549Z"/></svg>