<svg xmlns="http://www.w3.org/2000/svg" height="20" viewBox="0 -960 960 960" width="20"><path d="M551.273-448.304q-32.143 0-54.817-22.608-22.674-22.607-22.674-54.491v-173.974q0-31.884 22.861-54.319 22.86-22.435 55.003-22.435h73.081q32.143 0 54.817 22.608 22.674 22.607 22.674 54.491v173.974q0 31.884-22.861 54.319-22.86 22.435-55.003 22.435h-73.081ZM401.326-266.87q-24.913 0-45.248-14.825-20.335-14.825-28.252-39.523l-92.472-294.245q-2.084-5.703-2.784-11.948-.701-6.246-.701-12.611v-94.663q0-17.429 11.964-29.437 11.963-12.009 29.326-12.009t29.508 12.024q12.146 12.024 12.146 29.477v102.739l90.1 282.021h279.804q17.453 0 29.477 11.964 12.024 11.963 12.024 29.326 0 17.362-12.024 29.536-12.024 12.174-29.477 12.174H401.326Zm-6.713 131.001q-17.439 0-29.613-11.964-12.174-11.963-12.174-29.326t12.015-29.537q12.015-12.174 29.453-12.174h290.137q17.439 0 29.613 11.964 12.174 11.963 12.174 29.326t-12.015 29.537q-12.015 12.174-29.454 12.174H394.613Z"/></svg>