<svg xmlns="http://www.w3.org/2000/svg" height="20" viewBox="0 -960 960 960" width="20"><path d="M701.711-206.674q-17.244 0-29.119-11.664-11.875-11.665-11.875-28.908 0-17.243 11.665-29.118 11.664-11.875 28.908-11.875 17.243 0 29.118 11.664 11.875 11.665 11.875 28.908 0 17.243-11.665 29.118-11.664 11.875-28.907 11.875ZM297.593-80.217q-17.137 0-29.071-11.665-11.935-11.664-11.935-28.907 0-17.243 11.664-29.118 11.665-11.875 28.908-11.875 17.142 0 28.948 11.664 11.806 11.665 11.806 28.908 0 17.243-11.592 29.118t-28.728 11.875Zm-33.305-126.457q-17.321 0-29.196-11.664-11.875-11.665-11.875-28.908 0-17.243 11.717-29.118t29.037-11.875h323.741q17.321 0 29.196 11.664 11.875 11.665 11.875 28.908 0 17.243-11.717 29.118t-29.037 11.875H264.288ZM411.154-80.217q-17.317 0-29.192-11.665-11.875-11.664-11.875-28.907 0-17.243 11.715-29.118t29.032-11.875h251.751q17.216 0 29.022 11.664 11.806 11.665 11.806 28.908 0 17.243-11.646 29.118t-28.862 11.875H411.154ZM295-334.087q-87.152 0-145.826-62.949Q90.5-459.985 90.5-548.587q0-78.435 52.887-135.32 52.886-56.886 131.026-67.702 30.957-56 86.413-88.739 55.457-32.739 118.739-32.739 86.295 0 150.419 54.5 64.125 54.5 79.56 137.978 67.717 3.435 113.837 54.631Q869.5-574.783 869.5-507.396q0 72.073-50.604 122.691Q768.292-334.087 696-334.087H295Zm5-83h396q38.01 0 64.255-26.163 26.245-26.163 26.245-64.054 0-37.892-26.245-64.337Q734.01-598.087 696-598.087h-58.5l-9-65.5q-8-54.731-50.379-90.616-42.379-35.884-98.103-35.884-44.454 0-81.084 24.163t-55.912 64.489l-15.367 31.348h-27.501q-52.742-.08-89.698 36.946-36.956 37.027-36.956 89.138 0 53.025 37.047 89.97 37.046 36.946 89.453 36.946Zm180-186.5Z"/></svg>