<svg xmlns="http://www.w3.org/2000/svg" height="20" viewBox="0 -960 960 960" width="20"><path d="M177.58-281.065q-17.363 0-29.537-12.024t-12.174-29.476v-314.87q0-17.452 11.964-29.476 11.963-12.024 29.326-12.024t29.537 12.024q12.174 12.024 12.174 29.476V-521.5H373v-115.935q0-17.152 11.963-29.326 11.964-12.174 29.326-12.174 17.363 0 29.537 12.024T456-637.435v314.87q0 17.452-11.963 29.476-11.964 12.024-29.327 12.024-17.362 0-29.536-12.024Q373-305.113 373-322.565V-438.5H218.87v115.935q0 17.152-11.964 29.326-11.963 12.174-29.326 12.174Zm392.203 0q-17.435 0-29.609-11.964Q528-304.992 528-322.355q0-17.362 12.024-29.536 12.024-12.174 29.476-12.174h171.63V-438.5H617.5q-17.452 0-29.476-11.963Q576-462.427 576-479.789q0-17.363 12.024-29.537T617.5-521.5h123.63v-74.435H569.5q-17.452 0-29.476-11.963Q528-619.862 528-637.224q0-17.363 12.037-29.537 12.036-12.174 29.507-12.174h171.85q34.519 0 58.628 24.259t24.109 58.741v231.87q0 34.482-24.235 58.741t-58.685 24.259H569.783Z"/></svg>