<svg xmlns="http://www.w3.org/2000/svg" height="20" viewBox="0 -960 960 960" width="20"><path d="M441.891-792.717v368.652q0 16.824-11.321 28.205-11.32 11.382-28.056 11.382-16.645 0-28.341-11.546-11.695-11.546-11.695-28.28v-152.892q-61.196-.956-103.555-43.674-42.358-42.717-42.358-103.434 0-61.435 43.475-104.631t105.049-43.196H624.22q16.851 0 28.25 11.321 11.399 11.321 11.399 28.056 0 16.645-11.381 28.525-11.381 11.88-28.206 11.88h-33.13v368.045q0 16.734-11.485 28.28t-28.131 11.546q-16.645 0-28.341-11.546-11.695-11.546-11.695-28.28v-368.413h-69.609Zm-79.413 136.826v-136.826q-28.326 0-47.413 20.158-19.087 20.159-19.087 48.467 0 28.592 19.237 48.396 19.237 19.805 47.263 19.805Zm0-68.413Zm309.544 523.413H175.456q-16.824 0-28.205-11.321-11.382-11.321-11.382-28.056t11.382-28.266q11.381-11.531 28.205-11.531h497.283l-30.087-30.087q-12.196-12.196-12.196-27.892 0-15.695 12.196-27.891 12.196-12.196 27.891-12.076 15.696.12 27.892 12.315l96.768 96.769q12.536 12.623 12.536 29.152 0 16.53-12.674 28.84l-95.913 95.913q-12.435 12.435-27.63 11.816-15.196-.62-27.631-13.055t-12.435-28.25q0-15.815 12.435-28.25l28.131-28.13Z"/></svg>