<svg xmlns="http://www.w3.org/2000/svg" height="20" viewBox="0 -960 960 960" width="20"><path d="M177.58-281.065q-17.363 0-29.537-12.024t-12.174-29.476v-314.631q0-17.452 11.964-29.476 11.963-12.024 29.326-12.024t29.537 12.024q12.174 12.024 12.174 29.476V-521.5H373v-115.696q0-17.152 11.963-29.326 11.964-12.174 29.326-12.174 17.363 0 29.537 12.024T456-637.196v314.631q0 17.452-11.963 29.476-11.964 12.024-29.327 12.024-17.362 0-29.536-12.024Q373-305.113 373-322.565V-438.5H218.87v115.935q0 17.152-11.964 29.326-11.963 12.174-29.326 12.174Zm605.261 0q-17.363 0-29.537-12.024t-12.174-29.476V-402.5H569.5q-17.452 0-29.476-12.024Q528-426.548 528-444v-193.196q0-17.452 11.963-29.476 11.964-12.024 29.327-12.024 17.362 0 29.536 12.024Q611-654.648 611-637.196V-485.5h130.13v-151.696q0-17.452 11.964-29.476 11.963-12.024 29.326-12.024t29.537 12.024q12.174 12.024 12.174 29.476V-485.5h6.499q17.453 0 29.477 11.963 12.024 11.964 12.024 29.326 0 17.363-12.024 29.537T830.63-402.5h-6.499v79.935q0 17.452-11.964 29.476-11.963 12.024-29.326 12.024Z"/></svg>