<svg xmlns="http://www.w3.org/2000/svg" height="20" viewBox="0 -960 960 960" width="20"><path d="M240.211-281.065q-17.363 0-29.537-12.024T198.5-322.565v-314.631q0-17.452 11.963-29.476 11.964-12.024 29.326-12.024 17.363 0 29.537 12.024t12.174 29.476V-521.5h157v-115.696q0-17.152 11.963-29.326 11.964-12.174 29.326-12.174 17.363 0 29.537 12.024t12.174 29.476v314.631q0 17.452-11.963 29.476-11.964 12.024-29.326 12.024-17.363 0-29.537-12.024T438.5-322.565V-438.5h-157v115.935q0 17.152-11.963 29.326-11.964 12.174-29.326 12.174Zm515 0q-17.363 0-29.537-12.024T713.5-322.565v-273.131H659q-17.452 0-29.476-11.963-12.024-11.963-12.024-29.326t12.024-29.537q12.024-12.174 29.476-12.174h96q17.452 0 29.476 12.024 12.024 12.024 12.024 29.476v314.631q0 17.452-11.963 29.476-11.963 12.024-29.326 12.024Z"/></svg>