<svg xmlns="http://www.w3.org/2000/svg" height="20" viewBox="0 -960 960 960" width="20"><path d="M480-288q75 0 129-49t62-120.799q1-8.962-6-15.581-7-6.62-17-6.62t-17 6q-7 6-9 15-8 53-47.5 88T480-336q-60 0-102-42t-42-102q0-60 43-102t104-42h-.717l-25.814 27q-6.947 7-7.208 16.5Q449-571 457-563q7 7 17 7t17-7l70.087-70.087q5.717-5.717 5.717-14.913 0-9.196-5.717-14.913L491-733q-7-7-16.5-7.5T457-733q-7 7-7 17t7 17l26 27q-81 0-138 55.5T288-480q0 80 56 136t136 56Zm0 200.13q-80.913 0-152.345-30.617-71.432-30.618-124.991-84.177-53.559-53.559-84.177-124.991Q87.869-399.087 87.869-480q0-81.913 30.618-152.845t84.177-124.491q53.559-53.559 124.991-84.177Q399.087-872.131 480-872.131q81.913 0 152.845 30.618t124.491 84.177q53.559 53.559 84.177 124.491Q872.131-561.913 872.131-480q0 80.913-30.618 152.345t-84.177 124.991q-53.559 53.559-124.491 84.177Q561.913-87.869 480-87.869Zm0-83q129.043 0 219.087-90.043Q789.13-350.957 789.13-480t-90.043-219.087Q609.043-789.13 480-789.13t-219.087 90.043Q170.87-609.043 170.87-480t90.043 219.087Q350.957-170.87 480-170.87ZM480-480Z"/></svg>