<svg xmlns="http://www.w3.org/2000/svg" height="20" viewBox="0 -960 960 960" width="20"><path d="M259.217-259.217H177.37q-17.453 0-29.477-11.964-12.024-11.963-12.024-29.326t12.024-29.537q12.024-12.174 29.477-12.174h123.347q17.453 0 29.477 12.024 12.024 12.024 12.024 29.477v123.347q0 17.453-11.964 29.477-11.963 12.024-29.326 12.024t-29.537-12.024q-12.174-12.024-12.174-29.477v-81.847Zm441.805 0v81.847q0 17.453-11.964 29.477-11.963 12.024-29.326 12.024-17.362 0-29.536-12.024-12.174-12.024-12.174-29.477v-123.347q0-17.453 12.024-29.477 12.024-12.024 29.476-12.024H782.63q17.453 0 29.477 11.964 12.024 11.963 12.024 29.326t-12.024 29.537q-12.024 12.174-29.477 12.174h-81.608ZM259.217-701.022v-81.608q0-17.453 11.964-29.477 11.963-12.024 29.326-12.024t29.537 12.024q12.174 12.024 12.174 29.477v123.108q0 17.452-12.024 29.476-12.024 12.024-29.477 12.024H177.37q-17.453 0-29.477-11.963-12.024-11.963-12.024-29.326t12.024-29.537q12.024-12.174 29.477-12.174h81.847Zm441.805 0h81.608q17.453 0 29.477 11.964 12.024 11.963 12.024 29.326 0 17.362-12.024 29.536-12.024 12.174-29.477 12.174H659.522q-17.452 0-29.476-12.024-12.024-12.024-12.024-29.476V-782.63q0-17.453 11.963-29.477 11.963-12.024 29.326-12.024t29.537 12.024q12.174 12.024 12.174 29.477v81.608Z"/></svg>