<svg xmlns="http://www.w3.org/2000/svg" height="20" viewBox="0 -960 960 960" width="20"><path d="M431.782-37.956q-21.675 0-42.794-8.808-21.119-8.807-36.597-24.388L177.587-245.786q-14.435-14.127-9.033-34.159 5.402-20.033 20.837-34.99 11.718-11.717 26.174-15.576 14.457-3.859 29.174.62l81.456 20.565v-320.217q0-16.825 11.321-28.206t28.056-11.381q16.735 0 28.266 11.381 11.532 11.381 11.532 28.206v256.782h48v-111.563q0-16.787 11.32-28.319 11.321-11.531 28.056-11.531t28.266 11.381q11.532 11.382 11.532 28.206v111.826h48v-54.26q0-16.825 11.32-28.206 11.321-11.381 28.056-11.381t28.266 11.381q11.532 11.381 11.532 28.206v54.26h48v-12q0-16.824 11.351-28.205 11.35-11.382 28.13-11.382t28.236 11.382q11.457 11.381 11.457 28.205v187.218q0 66.674-46.457 113.13-46.456 46.457-113.13 46.457H431.782ZM113.993-792.957q-16.735 0-28.266-11.32-11.532-11.321-11.532-28.056t11.321-28.266q11.32-11.532 28.056-11.532 16.735 0 28.266 11.321 11.532 11.321 11.532 28.056t-11.321 28.266q-11.321 11.531-28.056 11.531Zm146.391 0q-16.735 0-28.266-11.32-11.531-11.321-11.531-28.056t11.321-28.266q11.32-11.532 28.055-11.532t28.267 11.321q11.531 11.321 11.531 28.056t-11.321 28.266q-11.321 11.531-28.056 11.531Zm146.392 0q-16.735 0-28.267-11.32-11.531-11.321-11.531-28.056t11.321-28.266q11.321-11.532 28.056-11.532t28.266 11.321q11.531 11.321 11.531 28.056t-11.321 28.266q-11.32 11.531-28.055 11.531Zm146.63 0q-16.735 0-28.266-11.32-11.531-11.321-11.531-28.056t11.32-28.266q11.321-11.532 28.056-11.532t28.266 11.321q11.532 11.321 11.532 28.056t-11.321 28.266q-11.321 11.531-28.056 11.531Zm146.392 0q-16.735 0-28.267-11.32Q660-815.598 660-832.333t11.321-28.266q11.32-11.532 28.056-11.532 16.735 0 28.266 11.321 11.531 11.321 11.531 28.056t-11.321 28.266q-11.32 11.531-28.055 11.531Zm146.391 0q-16.735 0-28.266-11.32-11.532-11.321-11.532-28.056t11.321-28.266q11.321-11.532 28.056-11.532t28.266 11.321q11.531 11.321 11.531 28.056t-11.32 28.266q-11.321 11.531-28.056 11.531ZM113.993-646.565q-16.735 0-28.266-11.321-11.532-11.321-11.532-28.056t11.321-28.266q11.32-11.531 28.056-11.531 16.735 0 28.266 11.32 11.532 11.321 11.532 28.056t-11.321 28.267q-11.321 11.531-28.056 11.531Zm0 146.391q-16.735 0-28.266-11.321-11.532-11.32-11.532-28.055t11.321-28.267q11.32-11.531 28.056-11.531 16.735 0 28.266 11.321 11.532 11.321 11.532 28.056t-11.321 28.266q-11.321 11.531-28.056 11.531Zm146.391 0q-16.735 0-28.266-11.321-11.531-11.32-11.531-28.055t11.321-28.267q11.32-11.531 28.055-11.531t28.267 11.321q11.531 11.321 11.531 28.056t-11.321 28.266q-11.321 11.531-28.056 11.531Zm439.414 0q-16.735 0-28.267-11.321Q660-522.815 660-539.55t11.321-28.267q11.32-11.531 28.056-11.531 16.735 0 28.266 11.321 11.531 11.321 11.531 28.056t-11.321 28.266q-11.32 11.531-28.055 11.531Zm146.391 0q-16.735 0-28.266-11.321-11.532-11.32-11.532-28.055t11.321-28.267q11.321-11.531 28.056-11.531t28.266 11.321q11.531 11.321 11.531 28.056t-11.32 28.266q-11.321 11.531-28.056 11.531Zm0-146.391q-16.735 0-28.266-11.321-11.532-11.321-11.532-28.056t11.321-28.266q11.321-11.531 28.056-11.531t28.266 11.32q11.531 11.321 11.531 28.056t-11.32 28.267q-11.321 11.531-28.056 11.531Z"/></svg>