<svg xmlns="http://www.w3.org/2000/svg" height="20" viewBox="0 -960 960 960" width="20"><path d="M233.061-834.783h76.222L436.957-494h-76.449l-25.271-72.826H208.326L181.957-494h-76.696l127.8-340.783Zm2.604 387.826q41.378 0 70.455 28.749 29.076 28.748 29.076 70.433 0 19.884-7.718 37.623-7.717 17.739-22.195 32.217l-15.805 16.044 32.805 32.326 53.478-53.718 54.348 54.348-54.479 53.479 52.327 50.847-54.348 54.348-51.087-51.087-37.877 37.14q-14.688 14.425-32.676 21.665-17.988 7.239-37.686 7.239-41.435 0-70.75-28.635-29.316-28.635-29.316-69.748 0-19.726 7.12-37.585 7.119-17.858 21.598-32.337l39.282-38.282-16.282-16.044q-14.479-14.478-22.076-31.982-7.598-17.505-7.598-37.406 0-41.72 29.012-70.677 29.013-28.957 70.392-28.957Zm-.056 237.696-36.848 38.326q-2.761 3.761-4.881 7.878-2.119 4.118-2.119 8.96 0 9.206 6.576 15.727 6.576 6.522 16.185 6.522 5.043 0 9.543-2 4.5-2 7-4.561l37.109-37.287-32.565-33.565Zm1.239-160.913q-9.627 0-16.335 6.722-6.709 6.722-6.709 15.843 0 11 8.12 18.5 8.119 7.5 16.119 15.261l-1.434-1.435-1.435 1.435q8-8 16.239-15.38 8.239-7.381 8.239-18.381 0-9.521-6.841-16.043-6.841-6.522-15.963-6.522Zm32.761-377.021-38.892 115.673H311.5l-38.291-115.673h-3.6Zm432.978-136.37q8.717 14.956 14.576 30.032t10.098 30.511l-40.717 12.239h182.239V-734h-66.718q-9 32.804-26.625 62.05-17.625 29.246-40.701 54.363 28.906 17.923 59.834 29.722 30.927 11.8 63.688 19.8l-17.196 75.543q-45.717-10.761-87.815-28.5T673.913-565q-37.239 26.239-78.978 43.859-41.739 17.619-87.218 28.619l-17.195-75.543q32.761-8 63.688-19.8 30.928-11.799 59.594-29.483-23.282-25.522-40.065-54.826-16.782-29.304-27.022-61.826H480v-76.783h176.239q-3-13.956-8.359-27.174-5.358-13.217-10.837-26.174l65.544-19.434Zm88.804 462.608 54.348 54.348L549.391-70.261l-54.348-54.348 296.348-296.348Zm-213 10.957q25.957 0 44.174 18.217 18.218 18.218 18.218 44.174 0 25.957-18.218 44.174-18.217 18.218-44.174 18.218-25.956 0-44.174-18.218Q516-321.652 516-347.609q0-25.956 18.217-44.174Q552.435-410 578.391-410Zm49.827-324q7.76 19.087 19.607 36.267 11.847 17.181 26.566 32.515 14.566-15.804 25.989-32.749 11.424-16.946 18.946-36.033h-91.108Zm154.173 528q25.957 0 44.174 18.217 18.218 18.218 18.218 44.174 0 25.957-18.218 44.174-18.217 18.218-44.174 18.218-25.956 0-44.174-18.218Q720-117.652 720-143.609q0-25.956 18.217-44.174Q756.435-206 782.391-206Z"/></svg>