<svg xmlns="http://www.w3.org/2000/svg" height="20" viewBox="0 -960 960 960" width="20"><path d="M440.413-79.935v-58.413Q318.696-152.587 235.522-236.5q-83.174-83.913-97.174-203.913H79.935q-16.825 0-28.206-11.321-11.381-11.32-11.381-28.055t11.38-28.267q11.382-11.531 28.207-11.531h58.413Q152.587-640.304 236-723.978q83.413-83.674 204.413-97.674v-58.413q0-16.825 11.321-28.206 11.32-11.381 28.055-11.381t28.267 11.381q11.531 11.381 11.531 28.206v58.413q121 14 204.413 97.674 83.413 83.674 97.652 204.391h58.413q16.825 0 28.206 11.321 11.381 11.32 11.381 28.055t-11.381 28.267q-11.381 11.531-28.206 11.531h-58.413q-14 120-97.174 203.913-83.174 83.913-204.891 98.152v58.413q0 16.825-11.321 28.206-11.32 11.381-28.055 11.381t-28.267-11.38q-11.531-11.382-11.531-28.207ZM480-218.87q109.043 0 185.087-76.043Q741.13-370.957 741.13-480q0-109.043-76.043-185.087Q589.043-741.13 480-741.13q-109.043 0-185.087 76.043Q218.87-589.043 218.87-480q0 109.043 76.043 185.087Q370.957-218.87 480-218.87ZM480-336q-60 0-102-42t-42-102q0-60 42-102t102-42q60 0 102 42t42 102q0 60-42 102t-102 42Zm-.036-72.413q29.515 0 50.569-21.018 21.054-21.018 21.054-50.533t-21.018-50.569q-21.018-21.054-50.533-21.054t-50.569 21.018q-21.054 21.018-21.054 50.533t21.018 50.569q21.018 21.054 50.533 21.054ZM481-481Z"/></svg>