<svg xmlns="http://www.w3.org/2000/svg" height="20" viewBox="0 -960 960 960" width="20"><path d="M218.87-135.869h98.26V-317.37H135.869v98.5q0 34.483 24.259 58.742t58.742 24.259Zm170.26 0h181.74V-317.37H389.13v181.501Zm253.74 0h98.26q34.483 0 58.742-24.259t24.259-58.742v-98.5H642.87v181.501ZM135.869-389.37H317.13v-181.26H135.869v181.26Zm253.261 0h181.74v-181.26H389.13v181.26Zm253.74 0h181.261v-181.26H642.87v181.26ZM135.869-642.63H317.13v-181.501h-98.26q-34.483 0-58.742 24.259t-24.259 58.742v98.5Zm253.261 0h181.74v-181.501H389.13v181.501Zm253.74 0h181.261v-98.5q0-34.483-24.259-58.742t-58.742-24.259h-98.26v181.501Z"/></svg>