<svg xmlns="http://www.w3.org/2000/svg" height="20" viewBox="0 -960 960 960" width="20"><path d="m168-410.87 98.391-98.391L168-607.652l-98.391 98.391L168-410.87Zm525.13 0L792-583.652l99.109 172.782H693.13ZM480-459.587q-51.674 0-87.75-36.076t-36.076-87.75q0-51.435 36.076-87.631 36.076-36.195 87.75-36.195 51.435 0 87.63 36.195 36.196 36.196 36.196 87.631 0 51.674-36.196 87.75-36.195 36.076-87.63 36.076ZM-3.826-253.674V-276q0-54.674 50.576-80.75T168-382.826q13.087 0 26.054 1.38 12.968 1.381 26.533 3.902-18.478 18.957-27.837 47.653-9.359 28.695-9.359 53.891v63.826H37.674q-17.152 0-29.326-12.174t-12.174-29.326Zm240 0V-276q0-60.674 62.076-98.25T480-411.826q119.674 0 181.75 37.576 62.076 37.576 62.076 98.25v22.326q0 17.152-12.174 29.326t-29.326 12.174H277.674q-17.152 0-29.326-12.174t-12.174-29.326ZM792-382.826q70.674 0 121.25 26.076 50.576 26.076 50.576 80.75v22.326q0 17.152-12.174 29.326t-29.326 12.174H776.609V-276q0-25.196-8.859-53.891-8.859-28.696-28.576-47.653 13.565-2.521 26.652-3.902 13.087-1.38 26.174-1.38Z"/></svg>