<svg xmlns="http://www.w3.org/2000/svg" height="20" viewBox="0 -960 960 960" width="20"><path d="M229.219-186.5q-17.415 0-29.589-12.024T187.456-228v-344.365q0-16.787 11.999-28.961t29.414-12.174h70.39q17.415 0 29.589 12.024T341.022-572v344.365q0 16.787-11.999 28.961T299.609-186.5h-70.39Zm199.174 0q-17.415 0-29.589-12.024T386.63-228v-144q0-17.452 11.999-29.476 11.999-12.024 29.414-12.024h70.39q17.415 0 29.589 12.024T540.196-372v144q0 17.452-11.999 29.476-11.999 12.024-29.414 12.024h-70.39Zm232.826 0q-17.415 0-29.589-12.018-12.174-12.019-12.174-29.463v-503.727q0-17.444 11.999-29.618t29.414-12.174h70.39q17.415 0 29.589 12.018 12.174 12.019 12.174 29.463v503.727q0 17.444-11.999 29.618T731.609-186.5h-70.39Z"/></svg>