<svg xmlns="http://www.w3.org/2000/svg" height="20" viewBox="0 -960 960 960" width="20"><path d="M405.37-132.282q-22.553 0-38.027-15.474t-15.474-38.026v-430.087H233.565q-19.421 0-31.58-15.153-12.159-15.152-8.92-34.543 14.196-72.218 71.576-117.185 57.381-44.968 131.077-44.968H530.63q22.553 0 38.027 15.474t15.474 38.026v66.5l101.463-101.463q9.102-9.102 19.558-13.819 10.457-4.718 22.578-4.718h10.309q15.956 0 27.024 10.339 11.068 10.338 11.068 25.621v231.78q0 15.282-11.068 25.782t-27.024 10.5H727.73q-12.121 0-22.578-4.717-10.456-4.717-19.558-13.819L584.131-643.696v457.914q0 22.552-15.474 38.026-15.474 15.474-38.027 15.474H405.37Zm29.5-83.001h66.26V-438.5h-66.26v223.217Zm0-306.217h66.26v-223.217H395.718q-27.567 0-52.284 12.663-24.716 12.663-44.195 33.184H434.87v177.37ZM467-480Z"/></svg>