<svg xmlns="http://www.w3.org/2000/svg" height="20" viewBox="0 -960 960 960" width="20"><path d="m810.043-635.891-23.695 24.695q-10.522 10.761-10.522 24.305 0 13.543 10.761 24.065 14.587 14.348 30.141 15.065 15.555.718 27.511-11.478l86.696-86.696q12.674-12.31 12.674-28.883t-12.674-29.247l-85.696-86.696q-11.623-11.956-27.485-11.956-15.863 0-28.298 11.956-12.674 12.913-13.532 27.174-.859 14.261 9.902 25.022l24.456 24.456H726.5q-46.196 0-78.652 32.457-32.457 32.456-32.457 78.652v270.739q0 13.148-8.974 22.183-8.974 9.034-22.033 9.034-13.058 0-22.243-9.034-9.184-9.035-9.184-22.183V-603q0-45.957-31.74-78.533-31.739-32.576-77.695-32.576-45.957 0-77.696 32.576-31.739 32.576-31.739 78.533v270.739q0 13.148-8.974 22.183-8.975 9.034-22.033 9.034-13.058 0-22.243-9.034-9.185-9.035-9.185-22.183V-675q0-16.496-11.246-27.802-11.246-11.307-27.652-11.307t-27.863 11.307Q193.435-691.496 193.435-675v341.065q0 45.957 31.739 78.533t77.696 32.576q45.956 0 77.695-32.576 31.739-32.576 31.739-78.533v-270.739q0-13.148 8.975-22.182 8.974-9.035 22.032-9.035 13.059 0 22.243 9.035 9.185 9.034 9.185 22.182v270.739q0 45.957 31.739 78.533t77.696 32.576q45.956 0 77.696-32.576 31.739-32.576 31.739-78.533V-603q0-13.865 9.513-23.378t23.378-9.513h83.543ZM121.435-103.826q-34.483 0-58.742-24.259-24.258-24.258-24.258-58.741v-274.565q0-17.453 12.023-29.477 12.025-12.023 29.477-12.023H872.89q17.452 0 29.476 12.023 12.024 12.024 12.024 29.477v274.565q0 34.483-24.258 58.741-24.259 24.259-58.742 24.259H121.435Z"/></svg>