<svg xmlns="http://www.w3.org/2000/svg" height="20" viewBox="0 -960 960 960" width="20"><path d="m750.872-112.939-49.611-48.604q-49.583 32.956-105.696 50.315-56.112 17.359-115.033 17.359-81.507 0-152.908-30.618-71.401-30.618-124.96-84.177-53.559-53.559-84.177-124.96-30.618-71.401-30.618-152.908 0-58.921 17.359-115.033 17.359-56.113 50.315-105.696l-49.41-50.611q-11.46-11.498-11.46-26.121t11.504-26.076q11.504-11.453 26.862-11.453 15.359 0 26.504 11.478l644.659 644.42q11.559 11.559 11.44 26.578-.12 15.019-11.573 26.133-11.12 11.478-26.41 11.478-15.289 0-26.787-11.504Zm56.215-157.344L263.283-813.087q48.865-31.522 103.749-48.283 54.884-16.761 112.87-16.761 82.011 0 152.943 30.618 70.932 30.618 124.491 84.177 53.559 53.559 84.177 124.491 30.618 70.932 30.618 152.943 0 57.986-16.761 112.523t-48.283 103.096Z"/></svg>