<svg xmlns="http://www.w3.org/2000/svg" height="20" viewBox="0 -960 960 960" width="20"><path d="M435.587-140.413H229.913q-17.452 0-29.476-12.024-12.024-12.024-12.024-29.476v-294.5h-46.804q-14.647 0-19.878-13.793-5.231-13.794 5.965-22.99l324.717-283.239Q465.087-806.63 480-806.63t27.587 10.195l160.826 140.304v-94.826q0-9.195 5.861-14.913 5.861-5.717 15.009-5.717h61.674q9.195 0 14.913 5.717 5.717 5.718 5.717 14.673v185.762l60.478 52.239q11.435 9.196 6.154 22.99-5.281 13.793-20.067 13.793h-46.565v294.5q0 17.452-12.024 29.476-12.024 12.024-29.476 12.024H524.413V-378.5h-88.826v238.087Zm-168-79.174h88.826v-238.326h247.174v238.326h88.826v-309.739L480-714.978 267.587-529.326v309.739Zm88.826-238.326h247.174-247.174Zm49.674-87.869h147.826q0-30.957-21.478-53.033T480-620.891q-30.957 0-52.435 22.076t-21.478 53.033Z"/></svg>