<svg xmlns="http://www.w3.org/2000/svg" height="20" viewBox="0 -960 960 960" width="20"><path d="M484.304-436.304h183.392v-63.392H484.304v63.392Zm-14.825 56.608q-17.436 0-29.609-12.024-12.174-12.023-12.174-29.476v-93.608q0-17.453 12.012-29.477 12.012-12.023 29.447-12.023h213.366q17.436 0 29.609 12.023 12.174 12.024 12.174 29.477v93.608q0 17.453-12.012 29.476-12.012 12.024-29.447 12.024H469.479ZM170.87-183.869q-34.483 0-58.742-24.271t-24.259-58.77v-426.504q0-34.499 24.259-58.608 24.259-24.109 58.742-24.109h618.26q34.483 0 58.742 24.271t24.259 58.77v426.504q0 34.499-24.259 58.608-24.259 24.109-58.742 24.109H170.87Zm0-83.001h618.26v-348.999H170.87v348.999Z"/></svg>