<svg xmlns="http://www.w3.org/2000/svg" height="20" viewBox="0 -960 960 960" width="20"><path d="M693.13-294.739q0-10.796-7.797-18.594-7.798-7.797-18.594-7.797-10.796 0-18.593 7.797-7.798 7.798-7.798 18.594v120q0 10.796 7.798 18.594 7.797 7.797 18.593 7.797t18.594-7.797q7.797-7.798 7.797-18.594v-120Zm48 0v120q0 10.796 7.798 18.594 7.798 7.797 18.594 7.797 10.795 0 18.593-7.797 7.798-7.798 7.798-18.594v-120q0-10.796-7.798-18.594-7.798-7.797-18.593-7.797-10.796 0-18.594 7.797-7.798 7.798-7.798 18.594Zm-108-277.674q15.3 0 25.65-10.289 10.35-10.29 10.35-25.5 0-15.211-10.35-25.711-10.35-10.5-25.65-10.5H326.87q-15.3 0-25.65 10.289-10.35 10.29-10.35 25.501 0 15.21 10.35 25.71t25.65 10.5h306.26Zm83.774 529.674q-79.774 0-135.774-56.226t-56-136q0-79.774 56.227-135.774 56.226-56 136-56 79.773 0 135.773 56.226t56 136q0 79.774-56.226 135.774t-136 56ZM218.87-823.413h522.26q34.238 0 58.619 24.381 24.382 24.381 24.382 58.619v266.892q-24.78-12.203-52.438-18.211-27.659-6.007-56.323-6.007v-17.544H326.703q-15.229 0-25.531 10.29-10.302 10.289-10.302 25.5 0 15.21 10.35 25.71t25.65 10.5h227.521q-16.156 12.183-29.937 26.516-13.78 14.332-25.258 30.615H326.87q-15.3 0-25.65 10.289-10.35 10.29-10.35 25.5 0 15.211 10.35 25.711 10.35 10.5 25.65 10.5h136.456q-5.717 18.913-8.696 38.946-2.978 20.032-2.978 41.184 0 36.674 10.696 72.968 10.695 36.293 30.848 68.01l-6 4q-5.957-.238-10.674-1.119-4.718-.88-9.116-4.398l-44.841-34.721-44.522 35.521q-5.353 4.718-12.731 4.718-7.377 0-13.095-4.718l-44.521-35.521-44.761 35.521q-5.354 4.718-12.732 4.718-7.377 0-13.094-4.718l-44.522-35.521-45.044 35.521q-.478.718-11.674 4v-650.652q0-34.238 24.382-58.619 24.381-24.381 58.619-24.381Z"/></svg>