<svg xmlns="http://www.w3.org/2000/svg" height="20" viewBox="0 -960 960 960" width="20"><path d="M218.87-135.869q-33.783 0-58.392-24.609t-24.609-58.392v-522.26q0-34.483 24.609-58.742t58.392-24.259h522.26q34.483 0 58.742 24.259t24.259 58.742v522.26q0 33.783-24.259 58.392t-58.742 24.609H218.87ZM480-337.435q31.283 0 54.043-21.282 22.761-21.283 33.283-51.805 4.533-11.861 15.263-17.387 10.731-5.526 23.846-5.526H741.13V-741.13H218.87v307.695h134.695q13.115 0 23.846 5.526 10.73 5.526 15.263 17.387 10.522 30.522 33.283 51.805 22.76 21.282 54.043 21.282Z"/></svg>