<svg xmlns="http://www.w3.org/2000/svg" height="20" viewBox="0 -960 960 960" width="20"><path d="M123.339-188.413q-32.86 0-55.893-23.245t-23.033-56.105q0-32.861 23.132-56.049Q90.677-347 123.159-347q5.906 0 11.124.739 5.217.739 10.935 1.739L331.065-530.37q-1-5.717-1.739-10.934-.739-5.218-.739-11.14 0-32.575 23.4-55.772 23.401-23.197 56.261-23.197 32.861 0 56.013 23.327 23.152 23.328 23.152 56.086 0 6.913-2.478 20.913l118.152 118.152q5.478-1 10.456-1.739 4.979-.739 10.457-.739 5.478 0 10.576.739 5.098.739 10.576 1.739l114.326-114.087q-1-5.478-1.739-10.695-.739-5.218-.739-11.124 0-32.483 23.4-55.614 23.401-23.132 56.261-23.132 32.861 0 55.893 23.245 23.033 23.245 23.033 56.105 0 32.861-23.132 56.049Q869.324-469 836.841-469q-5.906 0-11.124-.739-5.217-.739-10.695-1.739L700.935-357.152q1 5.478 1.739 10.576.739 5.098.739 11.02 0 32.575-23.4 55.772-23.401 23.197-56.261 23.197-32.861 0-56.013-23.197t-23.152-55.772q0-5.922.739-11.14.739-5.217 1.739-10.934L429.63-475.065q-5.717 1-10.934 1.739-5.218.739-10.696.739-6.913 0-20.913-2.478L200.522-288.5q1 5.478 1.739 10.456.739 4.979.739 10.885 0 32.483-23.4 55.614-23.401 23.132-56.261 23.132ZM168-570.261l-24.698-53.041L90.261-648l53.041-24.698L168-725.739l24.698 53.041L245.739-648l-53.041 24.698L168-570.261Zm432 2.87-39.63-88.979L471.391-696l88.979-39.87L600-824.609l39.87 88.739L728.609-696l-88.739 39.63L600-567.391Z"/></svg>