<svg xmlns="http://www.w3.org/2000/svg" height="20" viewBox="0 -960 960 960" width="20"><path d="M809.647-316.087q-23.364 0-39.462-16.3-16.098-16.301-16.098-39.451v-89.73q0-23.389 16.245-39.867 16.245-16.478 39.315-16.478 23.31 0 39.788 16.275 16.478 16.276 16.478 39.8v90.27q0 23.285-16.331 39.383-16.331 16.098-39.935 16.098ZM322.369-485.022q-62.152-2.869-103.076-47.022-40.924-44.152-40.924-104.152t41.044-104.033q41.043-44.032 103.195-47.141 14.443 0 28.515 3.641 14.072 3.642 27.681 10.685-21.435 28.717-34.348 63.968-12.913 35.25-12.913 72.88 0 37.631 12.443 73.414t34.34 63.434q-13.609 7.044-27.562 10.685-13.952 3.641-28.395 3.641Zm233.304.957q-63.347 0-107.739-44.392-44.391-44.391-44.391-107.739 0-63.348 44.391-107.62 44.392-44.271 107.739-44.271 63.348 0 107.74 44.271 44.391 44.272 44.391 107.62 0 63.348-44.391 107.739-44.392 44.392-107.74 44.392Zm-296.13 304.261v-100.609q0-27.761 13.815-50.87 13.815-23.108 36.728-37.304 55-33 117.457-50.239 62.457-17.239 128.13-17.239 18.435 0 38.446 1.858 20.011 1.859 39.924 4.098-34.869 69.587-8.174 142.631 26.696 73.043 98 107.674H259.543Zm530.544-23.261v-34.705q-44.674-6.86-76.565-39.534-31.892-32.674-37.609-78.36-1.239-7.603 4.478-11.969Q686.109-372 694.53-372t14.315 4.478q5.894 4.479 6.894 11.957 5.478 33.913 32.113 56.489Q774.487-276.5 809.7-276.5q35.213 0 61.767-22.196 26.555-22.195 33.033-55.613 2-7.974 7.098-12.832Q916.696-372 925.413-372q8.718 0 14.196 5.28t4.239 13.155q-5.873 45.574-37.937 77.078-32.063 31.504-75.998 38.574v34.848q0 8.717-5.478 14.315-5.478 5.598-14.435 5.598-8.717 0-14.315-5.598-5.598-5.598-5.598-14.315Zm-759.544-56.87v-20.478q0-23.935 10.946-44.772 10.945-20.837 30.793-36.032 43.413-28.479 93.141-45.316 49.728-16.837 104.533-21.358-39.044 24.435-60.728 63.456-21.685 39.022-21.685 84.022v17.609q0 20.869 5.576 41.5 5.576 20.63 19.685 41.5h-102.13q-33.287 0-56.71-23.422-23.42-23.422-23.42-56.709Z"/></svg>