<svg xmlns="http://www.w3.org/2000/svg" height="20" viewBox="0 -960 960 960" width="20"><path d="M757.652-309.609 480-587.261v-169.913l-81.826 83.304-58.891-58.652 95.978-98.217q9.195-9.196 20.63-13.674 11.435-4.478 24.109-4.478 12.674 0 23.728 4.478 11.055 4.478 20.25 13.674L702.5-648.978q41.718 41.239 63.674 95.652 21.957 54.413 21.957 113.804 0 33.718-7.74 66.816-7.739 33.097-22.739 63.097ZM480-135.869q-128.109 0-218.12-88.272t-90.011-215.381q0-48.717 15.62-95.413 15.62-46.695 44.62-84.935L106.152-746.826q-11.717-11.718-11.217-26.196.5-14.478 12.217-26.196 11.717-11.717 26.815-11.717t26.815 11.717l639.675 639.675q11.717 11.717 11.717 26.195 0 14.479-11.717 26.196-11.718 11.717-26.816 11.717-15.097 0-26.815-11.717l-86.956-86.957q-37.761 28.522-83.74 43.381-45.978 14.859-96.13 14.859Zm0-83.001v-154.108L292.478-560.5q-18.043 27.283-27.826 57.728-9.782 30.446-9.782 63.25 0 92.565 66.282 156.609Q387.435-218.87 480-218.87Z"/></svg>