<svg xmlns="http://www.w3.org/2000/svg" height="20" viewBox="0 -960 960 960" width="20"><path d="M218.87-135.869q-34.483 0-58.742-24.259t-24.259-58.742v-522.26q0-34.483 24.259-58.742t58.742-24.259h522.26q34.483 0 58.742 24.259t24.259 58.742v522.26q0 34.483-24.259 58.742t-58.742 24.259H218.87Zm0-83.001h522.26v-522.26L218.87-218.87Zm351.152-119.282h-46.087q-11.229 0-18.571-7.342-7.342-7.342-7.342-18.571 0-11.229 7.342-18.571 7.342-7.342 18.571-7.342h46.087v-46.087q0-11.229 7.342-18.571 7.342-7.342 18.571-7.342 11.229 0 18.571 7.342 7.342 7.342 7.342 18.571v46.087h46.087q11.229 0 18.571 7.342 7.342 7.342 7.342 18.571 0 11.229-7.342 18.571-7.342 7.342-18.571 7.342h-46.087v46.087q0 11.229-7.342 18.571-7.342 7.342-18.571 7.342-11.229 0-18.571-7.342-7.342-7.342-7.342-18.571v-46.087ZM432-574.087q11.229 0 18.571-7.342 7.342-7.342 7.342-18.571 0-11.229-7.342-18.571-7.342-7.342-18.571-7.342H288q-11.229 0-18.571 7.342-7.342 7.342-7.342 18.571 0 11.229 7.342 18.571 7.342 7.342 18.571 7.342h144Z"/></svg>