<svg xmlns="http://www.w3.org/2000/svg" height="20" viewBox="0 -960 960 960" width="20"><path d="M288-48q-11.229 0-18.571-7.342-7.342-7.342-7.342-18.571v-108.282H240q-41.037 0-69.714-28.612t-28.677-69.554q0-40.943 28.677-69.78 28.677-28.837 69.714-28.837h22.087v-46.087h-78.978q-17.452 0-29.476-12.024-12.024-12.024-12.024-29.476v-113.783q0-17.452 12.024-29.476 12.024-12.024 29.476-12.024h78.978v-46.087H240q-41.037 0-69.714-28.611-28.677-28.612-28.677-69.555 0-40.942 28.677-69.779 28.677-28.837 69.714-28.837h22.087v-21.609q0-10.878 7.41-18.276T288.239-912q10.878 0 18.276 7.398t7.398 18.276v21.609H336q41.037 0 69.714 28.611 28.677 28.612 28.677 69.555 0 40.942-28.677 69.779-28.677 28.837-69.714 28.837h-22.087v46.087h78.978q17.452 0 29.476 12.024 12.024 12.024 12.024 29.476v113.783q0 17.452-12.024 29.476-12.024 12.024-29.476 12.024h-78.978v46.087H336q41.037 0 69.714 28.611 28.677 28.612 28.677 69.555 0 40.943-28.677 69.78-28.677 28.837-69.714 28.837h-22.087v108.282q0 11.229-7.342 18.571Q299.229-48 288-48Zm384 0q-11.229 0-18.571-7.342-7.342-7.342-7.342-18.571v-108.282H624q-41.037 0-69.714-28.612t-28.677-69.554q0-40.943 28.677-69.78 28.677-28.837 69.714-28.837h22.087v-46.087h-78.978q-17.452 0-29.476-12.024-12.024-12.024-12.024-29.476v-113.783q0-17.452 12.024-29.476 12.024-12.024 29.476-12.024h78.978v-46.087H624q-41.037 0-69.714-28.611-28.677-28.612-28.677-69.555 0-40.942 28.677-69.779 28.677-28.837 69.714-28.837h22.087v-21.609q0-10.878 7.41-18.276Q660.906-912 672.239-912q10.878 0 18.276 7.398t7.398 18.276v21.609H720q41.037 0 69.714 28.611 28.677 28.612 28.677 69.555 0 40.942-28.677 69.779-28.677 28.837-69.714 28.837h-22.087v46.087h78.978q17.452 0 29.476 12.024 12.024 12.024 12.024 29.476v113.783q0 17.452-12.024 29.476-12.024 12.024-29.476 12.024h-78.978v46.087H720q41.037 0 69.714 28.611 28.677 28.612 28.677 69.555 0 40.943-28.677 69.78-28.677 28.837-69.714 28.837h-22.087v108.282q0 11.229-7.342 18.571Q683.229-48 672-48ZM240-739.935h96q10.557 0 18.474-7.917 7.917-7.918 7.917-18.474 0-10.557-7.917-18.474T336-792.717h-96q-10.557 0-18.474 7.917t-7.917 18.474q0 10.556 7.917 18.474 7.917 7.917 18.474 7.917Zm384 0h96q10.557 0 18.474-7.917 7.917-7.918 7.917-18.474 0-10.557-7.917-18.474T720-792.717h-96q-10.557 0-18.474 7.917t-7.917 18.474q0 10.556 7.917 18.474 7.917 7.917 18.474 7.917Zm-410.391 242.87h148.782v-52.783H213.609v52.783Zm384 0h148.782v-52.783H597.609v52.783ZM240-254.195h96q10.557 0 18.474-7.918 7.917-7.917 7.917-18.474 0-10.556-7.917-18.474-7.917-7.917-18.474-7.917h-96q-10.557 0-18.474 7.917-7.917 7.918-7.917 18.474 0 10.557 7.917 18.474 7.917 7.918 18.474 7.918Zm384 0h96q10.557 0 18.474-7.918 7.917-7.917 7.917-18.474 0-10.556-7.917-18.474-7.917-7.917-18.474-7.917h-96q-10.557 0-18.474 7.917-7.917 7.918-7.917 18.474 0 10.557 7.917 18.474 7.917 7.918 18.474 7.918Zm-410.391-485.74v-52.782 52.782Zm384 0v-52.782 52.782Zm-384 242.87v-52.783 52.783Zm384 0v-52.783 52.783Zm-384 242.87v-52.783V-254.195Zm384 0v-52.783V-254.195Z"/></svg>