<svg xmlns="http://www.w3.org/2000/svg" height="20" viewBox="0 -960 960 960" width="20"><path d="M324-282.5q-17.452 0-29.476-11.963-12.024-11.964-12.024-29.326 0-17.363 12.024-29.537T324-365.5h312q17.452 0 29.476 11.963 12.024 11.964 12.024 29.326 0 17.363-12.024 29.537T636-282.5H324Zm156-279.848L367.826-450.174Q355.152-437.5 338.5-437.5t-29.326-12.674Q296.5-462.848 296.5-479.5t12.674-29.326l141.761-141.761q12.31-12.674 28.883-12.674t29.247 12.674l141.761 141.761Q663.5-496.152 663.5-480t-12.674 28.826Q638.152-438.5 621.5-438.5t-29.326-12.674L480-562.348Z"/></svg>