<svg xmlns="http://www.w3.org/2000/svg" height="20" viewBox="0 -960 960 960" width="20"><path d="M380.891-480 288.63-594.152q-32.587-40.5-9.485-87.239 23.101-46.74 74.573-46.74h244.173q13.301 0 25.118 5.957 11.817 5.956 20.252 16.109l140.565 174.608q17.913 22.631 17.913 51.337 0 28.707-17.913 51.577L643.022-253.217q-8.144 9.575-19.509 15.461-11.365 5.887-24.187 5.887H353.718q-51.472 0-74.573-46.74-23.102-46.739 9.485-87.239L380.891-480Zm105.153 0L353.957-314.87h231.934L718.739-480 585.891-645.13H353.957L486.044-480Zm0 0L353.957-645.13 486.044-480 353.957-314.87 486.044-480Z"/></svg>