<svg xmlns="http://www.w3.org/2000/svg" height="20" viewBox="0 -960 960 960" width="20"><path d="M418.348-480 306.174-592.174Q293.5-604.848 293.5-621.5t12.674-29.326Q318.848-663.5 335.5-663.5t29.326 12.674l141.761 141.761q5.717 6.117 8.815 13.613 3.098 7.495 3.098 15.652t-3.098 15.652q-3.098 7.496-8.815 13.213L364.826-309.174Q352.152-296.5 336-297t-28.826-13.174Q294.5-322.848 294.5-339.5t12.674-29.326L418.348-480Zm265.441-199.652q17.363 0 29.537 12.024t12.174 29.476v316.304q0 17.452-11.963 29.476-11.964 12.024-29.326 12.024-17.363 0-29.537-12.024T642.5-321.848v-316.304q0-17.452 11.963-29.476 11.964-12.024 29.326-12.024Z"/></svg>