<svg xmlns="http://www.w3.org/2000/svg" height="20" viewBox="0 -960 960 960" width="20"><path d="M307.103-87.87q-31.342 0-55.076-20.94t-27.201-51.864L148.304-766.5q-5.478-42.672 22.609-74.151 28.087-31.48 71.054-31.48h476.066q42.967 0 71.054 31.48 28.087 31.479 22.609 74.151l-76.283 605.826q-2.478 31.304-26.134 52.055-23.656 20.75-55.866 20.75h-346.31ZM243.587-672h472.826l13.522-117.13h-499.87L243.587-672ZM480-241.435q45.474 0 76.737-31.263Q588-303.961 588-349.435q0-34.413-25.87-73.358-25.869-38.946-51.319-70.627-5.42-7.145-13.637-10.504T480-507.283q-8.957 0-17.065 3.392-8.109 3.392-13.805 10.804-25.391 31.348-51.26 70.294Q372-383.848 372-349.435q0 45.474 31.263 76.737 31.263 31.263 76.737 31.263Z"/></svg>