<svg xmlns="http://www.w3.org/2000/svg" height="20" viewBox="0 -960 960 960" width="20"><path d="m480-413.087 81.522 61.522q5.717 4.478 12.054.062 6.337-4.415 4.098-11.497l-31.761-100.522 83.283-65.521q5.956-4.923 3.652-11.658-2.304-6.734-10.051-6.734H522.196l-32-99.282q-2.256-6.957-10.085-6.957-7.828 0-10.307 6.957l-32.162 99.282h-100.26q-7.598 0-9.946 6.957-2.349 6.956 3.607 11.435l83.044 65.521-31.522 100.283q-2.239 7.081 3.978 11.497 6.218 4.416 11.935-.062L480-413.087Zm0 320.74q-6.717 0-13.674-.62-6.956-.62-12.913-2.859-132.674-43.478-213.109-162.109Q159.869-376.565 159.869-515v-177.848q0-26.279 14.413-47.303 14.414-21.023 38.761-30.219l237.131-90.804q14.674-5.717 29.826-5.717 15.152 0 29.826 5.717l237.131 90.804q24.347 9.196 38.761 30.219 14.413 21.024 14.413 47.303V-515q0 138.435-80.435 257.065-80.435 118.631-213.109 162.11-5.957 2.238-12.913 2.858-6.957.62-13.674.62Zm0-81.283q102.326-33.685 169.728-129 67.402-95.316 67.402-212.259v-177.959L480-783.652l-237.13 90.92V-515q0 117.054 67.402 212.37 67.402 95.315 169.728 129Zm0-304.892Z"/></svg>