<svg xmlns="http://www.w3.org/2000/svg" height="20" viewBox="0 -960 960 960" width="20"><path d="M432-288h96q32.331 0 53.959-21.628 21.628-21.629 21.628-53.959v-78.5q0-32.33-21.628-54.078-21.628-21.748-53.959-21.748h-96v-78.5h85.913q16.017 0 26.846-10.887 10.828-10.888 10.828-26.816 0-15.927-10.828-26.906Q533.93-672 517.913-672H432q-32.331 0-53.959 21.628-21.628 21.629-21.628 53.959v232.826q0 32.33 21.628 53.959Q399.669-288 432-288Zm0-154.087h96v78.5h-96v-78.5ZM218.87-135.869q-34.483 0-58.742-24.259t-24.259-58.742v-522.26q0-34.483 24.259-58.742t58.742-24.259h522.26q34.483 0 58.742 24.259t24.259 58.742v522.26q0 34.483-24.259 58.742t-58.742 24.259H218.87Z"/></svg>