<svg xmlns="http://www.w3.org/2000/svg" height="20" viewBox="0 -960 960 960" width="20"><path d="M528-430.087v104.15q0 15.974 10.839 26.956Q549.679-288 565.703-288q15.922 0 26.903-10.831 10.981-10.832 10.981-26.843v-308.652q0-16.011-10.772-26.843Q582.043-672 566.119-672q-15.923 0-27.021 10.831Q528-650.337 528-634.326v128.413h-96v-128.413q0-16.011-10.772-26.843Q410.456-672 394.532-672q-15.923 0-27.021 10.831-11.098 10.832-11.098 26.843v162.739q0 17.452 12.024 29.476 12.024 12.024 29.476 12.024H528ZM218.87-135.869q-34.483 0-58.742-24.259t-24.259-58.742v-522.26q0-34.483 24.259-58.742t58.742-24.259h522.26q34.483 0 58.742 24.259t24.259 58.742v522.26q0 34.483-24.259 58.742t-58.742 24.259H218.87Zm0-83.001h522.26v-522.26H218.87v522.26Zm0-522.26v522.26-522.26Z"/></svg>