<svg xmlns="http://www.w3.org/2000/svg" height="20" viewBox="0 -960 960 960" width="20"><path d="M795.544-275.065 673.652-396.957q25-12.282 52.739-20.804 27.74-8.522 56.457-11 9.196-1 17.772 2.859 8.576 3.859 14.293 9.576 5.718 5.717 9.076 14.293 3.359 8.577 2.359 17.772-1.761 28.522-10.141 55.859-8.381 27.337-20.663 53.337Zm-94.587 118.978q-44.674 35.957-100.424 55.316Q544.783-81.413 480-81.413q0-64.782 19.239-120.652 19.239-55.87 55.196-100.544l-76.609-76.608h-1.674q-40.152-1.283-68.446-30-28.293-28.718-28.01-68.87-12 5-24.359 8.5-12.359 3.5-25.359 3.5-41.674 0-70.609-29.435-28.934-29.435-28.934-71.108 0-12.196 3.478-24.272 3.478-12.076 9.196-24.033L106.152-751.891q-11.478-11.479-11.478-26.196 0-14.718 11.478-26.196 11.478-11.478 26.696-11.478 15.217 0 26.695 11.478l644.74 644.74q11.478 11.478 11.478 26.195 0 14.718-11.478 26.196-11.478 11.478-27.196 11.478-15.717 0-27.196-11.478l-48.934-48.935ZM480-927.783q42.674 0 71.87 29.598 29.195 29.598 28.434 72.272 11-7 23.859-11 12.859-4 25.859-4 41.913 0 71.228 29.315 29.315 29.315 29.315 71.228 0 26.718-13.358 50.055-13.359 23.337-36.598 36.815 23.478 14.717 36.717 37.435 13.239 22.717 13.239 49.435 0 40.478-27.76 69.315-27.761 28.837-68 30.511-11 0-21-2.5t-20-7.5l-87.088-87.087q28.805-8 48.087-32.783 19.283-24.783 19.283-56.826 0-39.044-27.522-66.565-27.522-27.522-66.565-27.522-32.043 0-56.826 19.283-24.783 19.282-32.783 48.086L259.5-811.109q14.478-14.522 32.717-21.924 18.239-7.402 38.479-7.88 13 0 25.5 4t23.5 11q-.522-42.674 28.554-72.272 29.076-29.598 71.75-29.598Zm0 846.37q0-138.456-80.12-228.783-80.119-90.326-213.011-112.326-10.195-2-19.891 1.479-9.696 3.478-16.413 10.195-6.717 6.718-10.076 16.533-3.359 9.815-1.359 20.011 23.239 134.13 111.707 213.511Q339.304-81.413 480-81.413Z"/></svg>