<svg xmlns="http://www.w3.org/2000/svg" height="20" viewBox="0 -960 960 960" width="20"><path d="M170.87-87.87q-33.783 0-58.392-24.608-24.609-24.609-24.609-58.392v-373.478q0-34.482 24.609-58.741t58.887-24.259H240V-830.63q0-17.453 12.012-29.477 12.013-12.024 29.448-12.024h208.344q17.435 0 29.609 11.999 12.174 11.999 12.174 29.414v65.607q0 17.415-12.024 29.439-12.024 12.024-29.476 12.024H312V-468.3q0 15.3 10.289 25.8 10.29 10.5 25.5 10.5Q363-432 373.5-442.35 384-452.7 384-468v-159.348h405.13q33.783 0 58.392 24.259t24.609 58.741v373.478q0 33.783-24.609 58.392T789.13-87.869H170.87Z"/></svg>