<svg xmlns="http://www.w3.org/2000/svg" height="20" viewBox="0 -960 960 960" width="20"><path d="M167.539-836.566h374.324q17.441 0 29.615 11.964 12.174 11.963 12.174 29.326t-12.016 29.537q-12.016 12.174-29.458 12.174H167.854q-17.441 0-29.615-11.964-12.174-11.963-12.174-29.326t12.016-29.537q12.017-12.174 29.458-12.174Zm137.526 459.979v48q0 20.698 14.542 35.186 14.541 14.488 35.315 14.488 20.774 0 35.252-14.558 14.478-14.558 14.478-35.355v-47.761h48q20.957 0 35.435-14.478 14.478-14.478 14.478-35.435 0-20.956-14.478-35.435-14.478-14.478-35.435-14.478h-48v-48q0-20.697-14.492-35.186-14.493-14.488-35.196-14.488-20.703 0-35.301 14.488-14.598 14.489-14.598 35.186v48h-48q-20.956 0-35.435 14.478-14.478 14.479-14.478 35.435 0 20.957 14.478 35.435 14.479 14.478 35.435 14.478h48ZM159.63-123.434q-33.782 0-58.391-24.609T76.63-206.435v-416.13q0-34.483 24.609-58.742 24.609-24.258 58.391-24.258h390.457q34.483 0 58.741 24.258 24.259 24.259 24.259 58.742v416.13q0 33.783-24.259 58.392-24.258 24.609-58.741 24.609H159.63Zm0-83.001h390.457v-416.13H159.63v416.13Zm608.566-177.068q-36.674-15.801-61.891-57.631-25.218-41.83-25.218-98.388 0-70.365 38.461-118.204 38.46-47.839 90.098-47.839 51.637 0 90.028 47.839 38.392 47.839 38.392 118.204 0 56.558-25.098 98.388-25.098 41.83-61.772 57.631v218.202q0 16.519-11.963 29.193-11.964 12.674-29.326 12.674-17.363 0-29.537-12.674t-12.174-29.193v-218.202Zm41.5-73.214q15.044 0 30.207-23.693 15.163-23.692 15.163-59.163 0-35.47-15.163-59.231-15.163-23.761-30.207-23.761-15.043 0-30.326 23.736-15.283 23.736-15.283 59.283 0 35.546 15.283 59.187 15.283 23.642 30.326 23.642ZM354.978-426.5Zm454.718-113.022Z"/></svg>