<svg xmlns="http://www.w3.org/2000/svg" height="20" viewBox="0 -960 960 960" width="20"><path d="M236.435-362.413q-44.152-29.239-70.087-76.913Q140.413-487 140.413-543.913q0-71.957 35.076-131.913 35.076-59.957 77.011-103.413 41.935-43.457 76.511-68.055l34.576-24.597v93.739q0 21.565 15.424 36.489 15.424 14.924 36.989 14.924 11.283 0 20.446-5.142 9.163-5.141 16.924-13.423l13.913-17.392q38.956 22.718 63.913 59.055 24.956 36.337 36.674 79.293l-96.24 96.239q-.239-.478-.478-.717l-.717-.718L360-654.218 251.326-532.544q-17.478 19.24-26.978 42.718-9.5 23.478-9.5 49.956 0 21.913 5.456 41.087 5.457 19.174 16.131 36.37ZM319-375.478q-14.957-9-24.174-24.598-9.217-15.598-9.217-34.794 0-14.239 5.619-26.956 5.62-12.718 13.859-22.957L360-546.457l54.913 61.153q2.239 2.478 2.978 3.978.739 1.5 2.739 4.217L319-375.478ZM251.37-88.826l-58.892-58.891 579.979-578.979 57.891 57.892-151.847 152.847h151.847v83H595.022L570.305-408l66.021 66.022h194.022v83H719.327l90.217 89.456-58.892 58.653-90.217-90.218v112.022h-83v-195.022l-66.022-65.782-25.195 25.195v235.609h-83.001v-152.848L251.37-88.826Z"/></svg>