<svg xmlns="http://www.w3.org/2000/svg" height="20" viewBox="0 -960 960 960" width="20"><path d="M610.087-514.087q25.956 0 43.935-17.978Q672-550.043 672-576t-17.978-43.935q-17.979-17.978-43.935-17.978-25.717 0-43.696 18.098-17.978 18.098-17.978 43.815t17.978 43.815q17.979 18.098 43.696 18.098Zm-260.174 0q25.717 0 43.696-18.098 17.978-18.098 17.978-43.815t-17.978-43.815q-17.979-18.098-43.696-18.098-25.956 0-43.935 17.978Q288-601.957 288-576t17.978 43.935q17.979 17.978 43.935 17.978ZM480.276-87.869q-80.95 0-152.385-30.598-71.435-30.598-125.13-84.294-53.696-53.695-84.294-125.089-30.598-71.393-30.598-152.608 0-81.216 30.598-152.151 30.598-70.935 84.294-124.63 53.695-53.696 125.089-84.294 71.393-30.598 152.608-30.598 81.216 0 152.151 30.598 70.935 30.598 124.63 84.294 53.696 53.695 84.294 124.855 30.598 71.159 30.598 152.108 0 80.95-30.598 152.385-30.598 71.435-84.294 125.13-53.695 53.696-124.855 84.294-71.159 30.598-152.108 30.598ZM479.845-403q-50.845 0-94.986 22.88-44.142 22.881-74.185 62.881-7.239 10.239-1.37 19.739 5.87 9.5 17.609 9.5h304.696q11.5 0 17.489-9.5 5.989-9.5-1.011-19.739Q617.804-357 574.008-380q-43.796-23-94.163-23Z"/></svg>