<svg xmlns="http://www.w3.org/2000/svg" height="20" viewBox="0 -960 960 960" width="20"><path d="m491.435-176.913-85.957-232.869-232.87-85.957q-12.674-5.717-19.63-16.152-6.957-10.435-6.957-23.109 0-12.674 6.957-22.609 6.956-9.935 19.793-15.29l151.859-61.514-164.248-164.249q-11.708-11.708-11.708-27.092 0-15.384 11.478-26.529 11.145-11.478 26.529-11.478t26.84 11.455l638.785 638.785q11.455 11.456 11.336 26.475-.12 15.019-11.598 26.133-11.145 11.478-26.41 11.478-15.264 0-26.972-11.704L629.87-328.935l-61.276 151.859q-5.355 12.837-15.29 19.674-9.934 6.837-22.608 6.837-12.674 0-23.109-6.837-10.435-6.837-16.152-19.511ZM689.978-482.63 476.087-693.283l263.391-104.674q12.52-5.717 24.469-2.287 11.949 3.43 20.136 11.618 8.187 8.187 11.737 20.135 3.55 11.949-2.168 24.469L689.978-482.63Z"/></svg>