<svg xmlns="http://www.w3.org/2000/svg" height="20" viewBox="0 -960 960 960" width="20"><path d="M479.925-254.435q-45.534 0-79.979 34.305-34.446 34.304-34.446 80.195v18.5h229v-18.5q0-45.891-34.065-80.195-34.065-34.305-80.51-34.305Zm-160.99-383.46q0 67.112 44.946 116.699 44.945 49.587 112.554 57.87l170.848 22v-394.37L477.625-814.13q-67.799 8.956-113.244 58.539-45.446 49.583-45.446 117.696ZM312-38.435q-12.352 0-20.926-8.573-8.574-8.575-8.574-20.927v-72q0-81.674 57.769-139.587Q398.037-337.435 480-337.435q4.218 0 9.098-.239 4.88-.239 9.445 1.283l24.848-36.652-56.152-8.283q-98.913-9.239-165.109-82.908-66.195-73.668-66.195-173.868 0-101.036 65.815-174.815t164.728-82.779l179.609-22.761q35.022-3.478 59.609 21.631 24.587 25.109 24.587 61.13v394.609q0 42.261-37.087 63.87-37.087 21.608-83.109 14.891l-33.37 50.413q45.153 25.478 72.968 72.205 27.815 46.726 27.815 99.773v72q0 12.352-8.574 20.927-8.574 8.573-20.926 8.573H312ZM647.283-653.63ZM480-121.435Z"/></svg>