<svg xmlns="http://www.w3.org/2000/svg" height="20" viewBox="0 -960 960 960" width="20"><path d="M360-133q-64.538 0-109.769-45.231Q205-223.462 205-288v-336q0-84.245 59.377-143.623Q323.755-827 408-827h144q84.245 0 143.623 59.377Q755-708.245 755-624v336q0 64.538-45.231 109.769Q664.538-133 600-133H360Zm11.789-311Q387-444 397.5-454.289q10.5-10.29 10.5-25.5Q408-495 397.711-505.5q-10.29-10.5-25.5-10.5Q357-516 346.5-505.711q-10.5 10.29-10.5 25.5Q336-465 346.289-454.5q10.29 10.5 25.5 10.5Zm108 0Q495-444 505.5-454.289q10.5-10.29 10.5-25.5Q516-495 505.711-505.5q-10.29-10.5-25.5-10.5Q465-516 454.5-505.711q-10.5 10.29-10.5 25.5Q444-465 454.289-454.5q10.29 10.5 25.5 10.5Zm108 0Q603-444 613.5-454.289q10.5-10.29 10.5-25.5Q624-495 613.711-505.5q-10.29-10.5-25.5-10.5Q573-516 562.5-505.711q-10.5 10.29-10.5 25.5Q552-465 562.289-454.5q10.29 10.5 25.5 10.5Z"/></svg>