<svg xmlns="http://www.w3.org/2000/svg" height="20" viewBox="0 -960 960 960" width="20"><path d="M480.226-186.5q82.057 0 139.665-57.769Q677.5-302.037 677.5-384v-192q0-81.963-57.835-139.731Q561.83-773.5 479.774-773.5q-82.057 0-139.665 57.769Q282.5-657.963 282.5-576v192q0 81.963 57.835 139.731Q398.17-186.5 480.226-186.5Zm-.226-83q-47.848 0-81.174-33.326Q365.5-336.152 365.5-384v-192q0-47.848 33.326-81.174Q432.152-690.5 480-690.5q47.848 0 81.174 33.326Q594.5-623.848 594.5-576v192q0 47.848-33.326 81.174Q527.848-269.5 480-269.5Zm-.211-301q15.211 0 25.711-10.289 10.5-10.29 10.5-25.5Q516-621.5 505.711-632q-10.29-10.5-25.5-10.5-15.211 0-25.711 10.29-10.5 10.289-10.5 25.5 0 15.21 10.289 25.71 10.29 10.5 25.5 10.5ZM218.87-39.87q-34.483 0-58.742-24.258-24.259-24.259-24.259-58.742v-714.26q0-34.483 24.259-58.742t58.742-24.259h522.26q34.483 0 58.742 24.259t24.259 58.742v714.26q0 34.483-24.259 58.742T741.13-39.87H218.87Zm0-83h522.26v-714.26H218.87v714.26Zm0 0v-714.26 714.26Z"/></svg>