<svg xmlns="http://www.w3.org/2000/svg" height="20" viewBox="0 -960 960 960" width="20"><path d="M90.5-719v-48q0-17.452 11.963-29.476 11.964-12.024 29.326-12.024 17.363 0 29.537 12.024T173.5-767v48q0 17.452-11.963 29.476-11.964 12.024-29.326 12.024-17.363 0-29.537-12.024T90.5-719Zm0 526v-48q0-17.452 11.963-29.476 11.964-12.024 29.326-12.024 17.363 0 29.537 12.024T173.5-241v48q0 17.452-11.963 29.476-11.964 12.024-29.326 12.024-17.363 0-29.537-12.024T90.5-193Zm272.892-456.5-33.761 33.761q-12.341 12.674-29.279 12.674-16.939 0-29.613-12.674t-12.674-29.613q0-16.938 12.674-29.279l34.761-33.761q12.674-12.674 28.946-12.174 16.272.5 28.946 13.174 12.674 12.674 12.674 28.946 0 16.272-12.674 28.946ZM305.5-252.369l-34.761-34q-12.674-12.674-12.174-28.946.5-16.272 13.174-28.946 12.674-12.674 28.946-12.674 16.272 0 28.946 12.674l33.761 33.761q12.674 12.674 13.174 29.065.5 16.392-12.174 29.066t-29.613 12.674q-16.938 0-29.279-12.674ZM550.891-521.5l-55.543-76.391q-10.435-13.674-7.337-30.446 3.098-16.772 16.772-27.207 13.674-10.434 30.445-7.456 16.772 2.978 27.207 16.652l116.761 161q10.913 14.87 2.478 30.859-8.435 15.989-25.783 15.989h-276q-17.452 0-29.476-11.963-12.024-11.964-12.024-29.326 0-17.363 12.12-29.537t29.714-12.174h170.666Zm278.74 287q-22.392 0-37.946-15.554-15.554-15.555-15.554-37.946v-384q0-22.391 15.554-37.946 15.554-15.554 37.946-15.554 22.391 0 37.945 15.554 15.555 15.555 15.555 37.946v384q0 22.391-15.555 37.946-15.554 15.554-37.945 15.554ZM90.5-330.5v-83q27.309 0 46.904-19.658Q157-452.816 157-480.212q0-27.397-19.596-46.937-19.595-19.54-46.904-19.54V-629.5q62.391 0 105.946 43.554Q240-542.391 240-480t-43.554 105.946Q152.891-330.5 90.5-330.5Z"/></svg>