<svg xmlns="http://www.w3.org/2000/svg" height="20" viewBox="0 -960 960 960" width="20"><path d="M571.935-87.87q-80.674 0-152.109-30.597-71.435-30.598-125.131-84.294-53.695-53.695-84.293-125.13Q179.804-399.326 179.804-480q0-81.674 30.598-152.609t84.293-124.63q53.696-53.696 125.131-84.294t152.109-30.598q37.391 0 74.043 8.076 36.652 8.077 70.805 23.511 12.195 5.718 18.413 15.414 6.217 9.695 6.217 22.13 0 9.196-4.098 18.011-4.097 8.815-12.293 14.772-67.761 53.043-106.359 128.608Q580.065-566.043 580.065-480q0 85.804 38.316 160.772 38.315 74.967 105.402 129.445 8.435 5.957 12.532 14.653 4.098 8.695 4.098 17.891 0 12.435-6.337 22.75t-18.532 16.033q-34.153 15.434-70.185 23.01-36.033 7.577-73.424 7.577Z"/></svg>