<svg xmlns="http://www.w3.org/2000/svg" height="20" viewBox="0 -960 960 960" width="20"><path d="m451-784.783 82.761-82.761q12.674-12.674 29.326-12.674t29.446 12.674q12.793 12.674 12.793 29.207t-12.913 29.446L479.826-696.304q-12.267 12.434-28.622 12.434-16.356 0-28.987-12.552l-51.804-51.882q-12.435-12.674-12.174-29.493.261-16.819 12.935-28.921 12.325-12.674 29.271-12.674t29.42 12.774L451-784.783ZM135.869-69.13v-277.238q0-7.66 1.62-15.081 1.62-7.421 4.098-15.377l72.475-179.392q9.242-23.804 30.253-38.217t46.598-14.413h378.174q25.587 0 46.598 14.413t30.253 38.217l72.475 179.392q2.478 7.956 4.098 15.377 1.62 7.421 1.62 15.081v277.477q0 21.793-15.256 37.049-15.255 15.255-37.049 15.255-21.674 0-37.109-15.435-15.434-15.434-15.434-37.108v-19.457H240.717v19.696q0 21.793-15.255 37.049-15.256 15.255-37.049 15.255-21.674 0-37.109-15.435-15.435-15.434-15.435-37.108Zm108.479-339.587h471.304l-46.804-117.131H291.152l-46.804 117.131Zm-25.478 72v165.13-165.13Zm94.565 130.565q20 0 34-14t14-34q0-20-14-34t-34-14q-20 0-34 14t-14 34q0 20 14 34t34 14Zm333.13 0q20 0 34-14t14-34q0-20-14-34t-34-14q-20 0-34 14t-14 34q0 20 14 34t34 14ZM218.87-171.587h522.26v-165.13H218.87v165.13Z"/></svg>