<svg xmlns="http://www.w3.org/2000/svg" height="20" viewBox="0 -960 960 960" width="20"><path d="m779.63-76.935-79.326-79.326q-9.434 27.674-30.428 48.511-20.993 20.837-48.746 20.837H165.37q-33.588 0-56.979-23.391Q85-133.696 85-167.283v-335.521q0-33.587 23.391-57.098 23.391-23.511 56.979-23.511h88.825l9.718-9.478L81-776.804Q69.522-788.283 70.141-803q.62-14.717 12.098-26.196 11.478-11.478 26.196-11.478 14.717 0 26.532 11.815l697.718 697.957q11.815 11.815 11.696 26.834-.12 15.019-11.598 26.133-11.479 11.479-26.576 11.979-15.098.5-26.577-10.979ZM376.848-479.957q-49 8.283-82.478 44.903-33.479 36.619-33.479 85.946 0 54.912 38.261 93.054 38.261 38.141 93.261 38.141 50.811 0 88.286-32.859 37.475-32.858 41.997-83.098l.119-.119-.119.119-145.848-146.087ZM392.236-293.5q-23.149 0-39.453-16.362-16.305-16.362-16.305-39.511 0-23.149 16.482-39.453 16.481-16.304 39.63-16.304t39.334 16.304q16.185 16.304 16.185 40.13 0 23.826-16.362 39.511-16.362 15.685-39.511 15.685ZM701.5-368.87 438.957-631.413h32.413q16.318 0 31.387 5.956 15.069 5.957 27.743 19.119l23.891 22.925h66.739q32.587 0 55.979 23.511 23.391 23.511 24.391 57.098v133.934Zm48-310.065h-26.413q-9.196 0-14.913-5.837-5.717-5.837-5.717-14.851v-153.015q0-9.014 5.717-14.732 5.717-5.717 14.913-5.717h118.131q11.059 0 17.464 9.696 6.405 9.695.927 20.13l-54.935 109.152h35.261q12.174 0 18.261 10.196 6.087 10.195.369 20.63l-89.434 164.261q-4.058 6.957-11.844 4.718-7.787-2.24-7.787-10.196v-134.435Z"/></svg>