<svg xmlns="http://www.w3.org/2000/svg" height="20" viewBox="0 -960 960 960" width="20"><path d="M480.211-87.87q-17.363 0-29.537-12.023Q438.5-111.917 438.5-129.37v-583.717l-143.416 143.59q-12.41 12.715-29.182 12.595-16.772-.12-29.206-12.794-12.674-12.674-12.674-29.326t12.674-29.326l214.478-214.478q6.117-5.718 13.493-8.696 7.376-2.978 15.533-2.978t15.652 2.978q7.496 2.978 13.213 8.696l214.479 214.478q12.674 12.674 12.793 28.826.12 16.152-12.315 28.826-13.152 12.674-29.971 12.674-16.819 0-29.16-12.674L521.5-713.087v583.717q0 17.453-11.963 29.477-11.964 12.024-29.326 12.024Z"/></svg>