<svg xmlns="http://www.w3.org/2000/svg" height="20" viewBox="0 -960 960 960" width="20"><path d="M185.543-223.307v-254.106l-30.032 23.393q-13.141 9.737-29.687 7.588-16.545-2.15-26.51-15.196-9.966-13.046-7.847-29.6 2.12-16.555 15.022-26.494l322.815-246.539q11.435-9.196 24.576-12.674 13.141-3.478 25.848-3.478 12.707 0 26 3.478 13.294 3.478 24.729 12.674l322.368 246.539q12.955 9.951 15.152 26.499 2.197 16.549-7.759 29.95-9.911 12.836-26.302 15.033-16.391 2.197-29.72-7.76l-30.218-23.413v254.106q0 34.439-24.27 58.667-24.271 24.227-58.77 24.227H268.26q-34.499 0-58.608-24.227-24.109-24.228-24.109-58.667Zm153.104-137.171q15.213 0 27.033-11.17 11.82-11.171 11.82-27.683 0-15.213-11.82-27.05-11.82-11.837-27.533-11.837-15.712 0-27.169 11.821-11.456 11.82-11.456 27.532 0 15.713 11.306 27.05 11.307 11.337 27.819 11.337Zm141.097-.239q15.213 0 27.169-11.171 11.957-11.17 11.957-27.682 0-15.213-11.957-27.169-11.956-11.957-27.669-11.957-15.712 0-27.033 11.957-11.32 11.956-11.32 27.669 0 15.712 11.17 27.032 11.171 11.321 27.683 11.321Zm141.403 0q15.213 0 27.033-11.171Q660-383.058 660-399.57q0-15.213-11.82-27.169-11.82-11.957-27.533-11.957-15.712 0-27.169 11.957-11.456 11.956-11.456 27.669 0 15.712 11.306 27.032 11.307 11.321 27.819 11.321Z"/></svg>