<svg xmlns="http://www.w3.org/2000/svg" height="20" viewBox="0 -960 960 960" width="20"><path d="M432.004-484.065q-63.352 0-107.743-44.387-44.392-44.388-44.392-107.74t44.388-107.624q44.387-44.271 107.739-44.271 63.352 0 107.743 44.318 44.392 44.318 44.392 107.573 0 63.354-44.388 107.742-44.387 44.389-107.739 44.389ZM859.928-42.253l-92.029-90.638q-20.442 11.761-42.636 18.783-22.194 7.021-45.85 7.021-72.292 0-122.896-50.604t-50.604-122.896q0-72.292 50.604-122.896t122.896-50.604q72.292 0 122.896 50.604t50.604 122.896q0 23.656-7.021 45.85-7.022 22.194-18.783 42.636l91.766 92.029q12.69 12.746 12.69 28.659 0 15.913-12.913 28.826t-29.445 12.913q-16.533 0-29.279-12.58ZM679.131-190.087q37.891 0 64.336-26.163 26.446-26.163 26.446-64.054 0-37.891-26.163-64.337-26.163-26.446-64.054-26.446-37.891 0-64.337 26.163-26.446 26.163-26.446 64.055 0 37.891 26.163 64.336 26.163 26.446 64.055 26.446Zm-191.044-243.5q-43.978 56.152-52.435 123.054-8.456 66.903 20.174 130.729H218.87q-34.483 0-58.742-24.259t-24.259-58.741v-21.609q0-26.97 13.816-49.974 13.815-23.004 37.728-35.961 66.239-38.239 143.446-55.576 77.206-17.337 157.228-7.663Z"/></svg>