<svg xmlns="http://www.w3.org/2000/svg" height="20" viewBox="0 -960 960 960" width="20"><path d="M480-436.065q-62.152 0-105.467-43.316-43.316-43.315-43.316-105.467v-141.683q0-23.657 16.058-39.618 16.058-15.96 39.855-15.96 14.479 0 27.348 7.186t20.087 20.531q8.236-11.345 19.633-18.531 11.397-7.186 25.839-7.186 14.441 0 26.31 7.186 11.869 7.186 20.088 19.531 8.229-12.345 20.117-19.531 11.887-7.186 26.318-7.186 23.717 0 39.815 15.96 16.098 15.961 16.098 39.618v139.683q0 62.152-43.316 105.467Q542.152-436.065 480-436.065ZM183.869-214.804v-21.609q0-26.224 14.243-49.089 14.242-22.865 37.301-35.846 55.717-32.239 117.664-49.478Q415.024-388.065 480-388.065q65.435 0 127.391 17.119 61.957 17.12 117.196 49.359 23.059 12.947 37.301 35.745 14.243 22.799 14.243 49.429v21.609q0 34.782-24.109 58.891t-58.892 24.109H266.87q-34.783 0-58.892-24.109t-24.109-58.891Z"/></svg>