<svg xmlns="http://www.w3.org/2000/svg" height="20" viewBox="0 -960 960 960" width="20"><path d="M170.87-183.869q-34.483 0-58.742-24.271t-24.259-58.77v-426.504q0-34.499 24.259-58.608 24.259-24.109 58.742-24.109h618.26q34.483 0 58.742 24.271t24.259 58.77v426.504q0 34.499-24.259 58.608-24.259 24.109-58.742 24.109H170.87ZM494.59-314.87h204.757q17.435 0 29.609-12.008 12.174-12.008 12.174-29.436v-132.779q0-17.429-12.012-29.603-12.012-12.174-29.447-12.174H494.913q-17.435 0-29.609 12.008-12.174 12.008-12.174 29.437v132.779q0 17.428 12.013 29.602 12.012 12.174 29.447 12.174Zm102.54-108Z"/></svg>