<svg xmlns="http://www.w3.org/2000/svg" height="20" viewBox="0 -960 960 960" width="20"><path d="M336.304-189.848h-75q-23.108 0-41.619-11.054-18.511-11.055-29.946-30.685L68.522-438.5q-11.196-19.63-11.076-41.38.12-21.75 11.315-41.381l129.087-221.652q8-13.239 20.858-20.239 12.859-7 26.859-7h66q16.239 0 23.859 13.619 7.619 13.62-.62 27.859L189.848-480l104.717 193.435L552.37-728.891q11.434-19.392 29.945-30.326 18.511-10.935 41.381-10.935h74q23.108 0 41.619 10.935 18.511 10.934 29.946 30.565L891.239-521.5q11.435 19.63 11.435 41.5t-11.435 41.5L761.152-217.087q-8 13.239-20.858 20.239-12.859 7-26.859 7h-71q-16.239 0-23.859-13.619-7.619-13.62.62-27.859L770.152-480 665.435-673.435 407.63-231.109q-11.434 19.392-29.945 30.326-18.511 10.935-41.381 10.935Z"/></svg>