<svg xmlns="http://www.w3.org/2000/svg" height="20" viewBox="0 -960 960 960" width="20"><path d="M183.869-443.522v-123.869q0-48.196 26.218-86.011 26.217-37.815 72.413-53.294v-82.434q0-34.483 24.259-58.742 24.258-24.259 58.741-24.259h229q34.483 0 58.741 24.259Q677.5-823.613 677.5-789.13v82.434q46.196 15.479 72.413 53.294 26.218 37.815 26.218 86.011v123.869H183.869ZM332.227-87.869q-61.727 0-105.042-43.316-43.316-43.315-43.316-105.467v-123.869h592.262v123.869q0 62.152-43.316 105.467Q689.5-87.869 627.773-87.869H332.227ZM365.5-716.174h73q0-17.152 12.674-29.326t29.326-12.174q16.652 0 28.826 12.024t12.174 29.476h73v-72.956h-229v72.956Z"/></svg>