<svg xmlns="http://www.w3.org/2000/svg" height="20" viewBox="0 -960 960 960" width="20"><path d="M480.22-81.413q-82.329 0-154.959-31.076-72.631-31.076-127.163-85.609-54.533-54.532-85.609-127.176-31.076-72.644-31.076-155.24 0-82.595 31.076-154.725 31.076-72.131 85.609-126.663 54.532-54.533 127.176-85.609 72.644-31.076 155.24-31.076 82.595 0 154.725 31.076 72.131 31.076 126.663 85.609 54.533 54.532 85.609 126.942 31.076 72.41 31.076 154.74 0 82.329-31.076 154.959-31.076 72.631-85.609 127.163-54.532 54.533-126.942 85.609-72.41 31.076-154.74 31.076Zm.12-79.174q56.129 0 106.427-18.717 50.298-18.718 91.255-51.435l-48.37-49.37q-31.06 24.344-69.333 37.727Q522.046-229 480-229q-104.583 0-177.792-73.2Q229-375.4 229-479.972q0-104.572 73.2-177.8Q375.4-731 479.972-731q104.572 0 177.8 73.208Q731-584.583 731-480q0 42.391-13.329 80.437t-37.78 69.694l49.131 48.13q32.956-41.084 51.674-91.336 18.717-50.251 18.717-106.585 0-133.662-93.272-226.707Q612.87-799.413 480-799.413t-226.141 93.272Q160.587-612.87 160.587-480t93.046 226.141q93.045 93.272 226.707 93.272ZM480-308.413q25.957 0 49.054-7.359 23.098-7.358 43.576-20.598l-68.891-68.652q-5.695 2.718-11.71 3.577-6.014.858-12.029.858-32.758 0-56.086-23.402-23.327-23.403-23.327-56.047 0-32.773 23.4-56.075 23.401-23.302 56.261-23.302 32.861 0 56.013 23.218t23.152 55.823q0 6.891-1.598 12.284-1.597 5.392-3.315 11.827l69.13 68.891q13.371-20.333 20.664-43.491 7.293-23.157 7.293-49.139 0-71.48-50.044-121.533-50.045-50.054-121.511-50.054-71.467 0-121.543 50.044-50.076 50.045-50.076 121.511 0 71.467 50.054 121.543Q408.52-308.413 480-308.413Z"/></svg>