<svg xmlns="http://www.w3.org/2000/svg" height="20" viewBox="0 -960 960 960" width="20"><path d="M480.226-288Q560-288 616-344.226t56-136Q672-560 615.774-616t-136-56Q400-672 344-615.774t-56 136Q288-400 344.226-344t136 56Zm.05 200.13q-81.189 0-152.621-30.617-71.432-30.618-124.991-84.177-53.559-53.559-84.177-124.949-30.618-71.391-30.618-152.845 0-81.455 30.618-152.387t84.177-124.491q53.559-53.559 124.949-84.177 71.391-30.618 152.845-30.618 81.455 0 152.387 30.618t124.491 84.177q53.559 53.559 84.177 124.716 30.618 71.156 30.618 152.344 0 81.189-30.618 152.621-30.618 71.432-84.177 124.991-53.559 53.559-124.716 84.177-71.156 30.618-152.344 30.618Z"/></svg>