<svg xmlns="http://www.w3.org/2000/svg" height="20" viewBox="0 -960 960 960" width="20"><path d="M438.5-177.37v-487.956l-28.174 28.174q-12.674 12.674-28.826 12.174t-28.826-13.174Q340-650.826 340-667.478t12.674-29.326l98.261-98.261q5.717-5.718 13.413-8.816 7.695-3.097 15.652-3.097 7.957 0 15.652 3.097 7.696 3.098 13.413 8.816l99.261 99.261Q621-683.13 621-666.978t-12.674 28.826Q595.652-625.478 579-625.358q-16.652.119-29.326-12.555L521.5-665.326v80.109q0 91.5 57.63 160.804 57.631 69.304 121.174 113.891 14.674 10.435 18.533 26.968 3.859 16.532-8.815 29.206-13.674 13.674-32.685 14.913-19.011 1.24-34.924-10.195-28.891-21.087-61.239-50.196-32.348-29.108-59.674-66.239v188.695q0 17.153-12.174 29.327-12.174 12.174-29.326 12.174t-29.326-12.174Q438.5-160.217 438.5-177.37Z"/></svg>