<svg xmlns="http://www.w3.org/2000/svg" height="20" viewBox="0 -960 960 960" width="20"><path d="M177.58-741.13q-17.363 0-29.537-11.964-12.174-11.963-12.174-29.326t11.964-29.537q11.963-12.174 29.326-12.174t29.537 11.964q12.174 11.963 12.174 29.326t-11.964 29.537q-11.963 12.174-29.326 12.174Zm151.435 0q-17.363 0-29.537-11.964-12.174-11.963-12.174-29.326t11.964-29.537q11.963-12.174 29.326-12.174t29.536 11.964q12.174 11.963 12.174 29.326t-11.963 29.537q-11.963 12.174-29.326 12.174Zm151.196 0q-17.363 0-29.537-11.964Q438.5-765.057 438.5-782.42t11.963-29.537q11.964-12.174 29.326-12.174 17.363 0 29.537 11.964 12.174 11.963 12.174 29.326t-11.963 29.537q-11.964 12.174-29.326 12.174ZM177.58-589.935q-17.363 0-29.537-11.963-12.174-11.964-12.174-29.326 0-17.363 11.964-29.537 11.963-12.174 29.326-12.174t29.537 11.963q12.174 11.964 12.174 29.327 0 17.362-11.964 29.536-11.963 12.174-29.326 12.174Zm0 151.435q-17.363 0-29.537-11.963-12.174-11.964-12.174-29.326 0-17.363 11.964-29.537 11.963-12.174 29.326-12.174t29.537 11.963q12.174 11.964 12.174 29.326 0 17.363-11.964 29.537Q194.943-438.5 177.58-438.5Zm605.261 0q-17.363 0-29.537-11.963-12.174-11.964-12.174-29.326 0-17.363 11.964-29.537Q765.057-521.5 782.42-521.5t29.537 11.963q12.174 11.964 12.174 29.326 0 17.363-11.964 29.537-11.963 12.174-29.326 12.174Zm0 151.196q-17.363 0-29.537-11.964-12.174-11.963-12.174-29.326t11.964-29.536q11.963-12.174 29.326-12.174t29.537 11.963q12.174 11.963 12.174 29.326t-11.964 29.537q-11.963 12.174-29.326 12.174Zm-302.63 151.435q-17.363 0-29.537-11.964-12.174-11.963-12.174-29.326t11.963-29.537q11.964-12.174 29.326-12.174 17.363 0 29.537 11.964Q521.5-194.943 521.5-177.58t-11.963 29.537q-11.964 12.174-29.326 12.174Zm151.434 0q-17.362 0-29.536-11.964-12.174-11.963-12.174-29.326t11.963-29.537q11.964-12.174 29.326-12.174 17.363 0 29.537 11.964 12.174 11.963 12.174 29.326t-11.963 29.537q-11.964 12.174-29.327 12.174Zm151.196 0q-17.363 0-29.537-11.964-12.174-11.963-12.174-29.326t11.964-29.537q11.963-12.174 29.326-12.174t29.537 11.964q12.174 11.963 12.174 29.326t-11.964 29.537q-11.963 12.174-29.326 12.174ZM741.13-637.435V-741.13H629.435q-17.452 0-29.476-11.964-12.024-11.963-12.024-29.326t12.024-29.537q12.024-12.174 29.476-12.174H741.13q34.483 0 58.742 24.227 24.259 24.226 24.259 58.663v103.53q0 17.428-11.964 29.602-11.963 12.174-29.326 12.174t-29.537-12.024q-12.174-12.024-12.174-29.476ZM135.869-218.87v-111.695q0-17.452 11.964-29.476 11.963-12.024 29.326-12.024t29.537 12.024q12.174 12.024 12.174 29.476v111.695h103.432q17.415 0 29.589 11.964 12.174 11.963 12.174 29.326t-12.042 29.537q-12.041 12.174-29.52 12.174H218.621q-34.534 0-58.643-24.259t-24.109-58.742Z"/></svg>