<svg xmlns="http://www.w3.org/2000/svg" height="20" viewBox="0 -960 960 960" width="20"><path d="M537-78.5q-34.673 0-68.053-7.06-33.381-7.061-65.468-20.353-14.914-6.239-20.468-21.293-5.554-15.055.946-31.207 6.5-16.391 22.054-23.185 15.554-6.793 31.468-.554 23.605 10.565 48.486 15.608Q510.845-161.5 537-161.5q107.505 0 182.502-76.446Q794.5-314.391 794.5-423q0-102.604-72.163-175.704-72.163-73.1-176.228-77.644h-1.326l24.63 23.631q11.718 12.434 9.783 27.891-1.935 15.456-14.37 27.652-12.913 12.435-28.946 12.555-16.032.119-28.706-12.555l-94-94q-5.957-5.956-8.815-13.445-2.859-7.489-2.859-15.413 0-7.925 2.859-15.381 2.858-7.457 8.815-13.413l94-94Q519.848-855.5 536-855.5t28.826 12.674q12.913 12.913 14.033 29.065 1.119 16.152-12.033 28.587l-25.391 24.391h4.326q139.071 4.066 235.405 101.283t96.334 237q0 142.891-99.263 243.446Q678.975-78.5 537-78.5Zm-244.787-111q-8.157 0-15.652-2.978-7.496-2.978-13.213-8.696L74.065-390.456q-5.717-6.118-8.815-13.614-3.098-7.495-3.098-15.652 0-8.156 3.098-15.652 3.098-7.496 8.815-13.213L263.348-637.87q6.117-5.717 13.613-8.815 7.495-3.098 15.652-3.098t15.652 3.098q7.496 3.098 13.213 8.815l189.283 189.283q5.717 6.117 8.696 13.613 2.978 7.496 2.978 15.652 0 8.157-2.978 15.533-2.979 7.376-8.696 13.093L321.239-201.174q-6.117 5.718-13.493 8.696-7.376 2.978-15.533 2.978Zm.2-95.13 134.891-134.892-134.891-135.13-135.13 135.13 135.13 134.892Zm0-135.131Z"/></svg>