<svg xmlns="http://www.w3.org/2000/svg" height="20" viewBox="0 -960 960 960" width="20"><path d="M177.58-741.13q-17.363 0-29.537-11.964-12.174-11.963-12.174-29.326t11.964-29.537q11.963-12.174 29.326-12.174t29.537 11.964q12.174 11.963 12.174 29.326t-11.964 29.537q-11.963 12.174-29.326 12.174Zm151.435 0q-17.363 0-29.537-11.964-12.174-11.963-12.174-29.326t11.964-29.537q11.963-12.174 29.326-12.174t29.536 11.964q12.174 11.963 12.174 29.326t-11.963 29.537q-11.963 12.174-29.326 12.174ZM177.58-589.935q-17.363 0-29.537-11.963-12.174-11.964-12.174-29.326 0-17.363 11.964-29.537 11.963-12.174 29.326-12.174t29.537 11.963q12.174 11.964 12.174 29.327 0 17.362-11.964 29.536-11.963 12.174-29.326 12.174Zm0 151.435q-17.363 0-29.537-11.963-12.174-11.964-12.174-29.326 0-17.363 11.964-29.537 11.963-12.174 29.326-12.174t29.537 11.963q12.174 11.964 12.174 29.326 0 17.363-11.964 29.537Q194.943-438.5 177.58-438.5Zm0 151.196q-17.363 0-29.537-11.964-12.174-11.963-12.174-29.326t11.964-29.536q11.963-12.174 29.326-12.174t29.537 11.963q12.174 11.963 12.174 29.326t-11.964 29.537q-11.963 12.174-29.326 12.174Zm605.261 0q-17.363 0-29.537-11.964-12.174-11.963-12.174-29.326t11.964-29.536q11.963-12.174 29.326-12.174t29.537 11.963q12.174 11.963 12.174 29.326t-11.964 29.537q-11.963 12.174-29.326 12.174ZM177.58-135.869q-17.363 0-29.537-11.964-12.174-11.963-12.174-29.326t11.964-29.537q11.963-12.174 29.326-12.174t29.537 11.964q12.174 11.963 12.174 29.326t-11.964 29.537q-11.963 12.174-29.326 12.174Zm151.435 0q-17.363 0-29.537-11.964-12.174-11.963-12.174-29.326t11.964-29.537q11.963-12.174 29.326-12.174t29.536 11.964q12.174 11.963 12.174 29.326t-11.963 29.537q-11.963 12.174-29.326 12.174Zm151.196 0q-17.363 0-29.537-11.964-12.174-11.963-12.174-29.326t11.963-29.537q11.964-12.174 29.326-12.174 17.363 0 29.537 11.964Q521.5-194.943 521.5-177.58t-11.963 29.537q-11.964 12.174-29.326 12.174Zm151.434 0q-17.362 0-29.536-11.964-12.174-11.963-12.174-29.326t11.963-29.537q11.964-12.174 29.326-12.174 17.363 0 29.537 11.964 12.174 11.963 12.174 29.326t-11.963 29.537q-11.964 12.174-29.327 12.174Zm151.196 0q-17.363 0-29.537-11.964-12.174-11.963-12.174-29.326t11.964-29.537q11.963-12.174 29.326-12.174t29.537 11.964q12.174 11.963 12.174 29.326t-11.964 29.537q-11.963 12.174-29.326 12.174Zm-41.711-340.37V-628.47q0-47.617-32.771-80.139-32.772-32.521-79.794-32.521H480.239q-17.452 0-29.476-11.964-12.024-11.963-12.024-29.326t12.024-29.537q12.024-12.174 29.476-12.174h152.276q80.507 0 136.061 55.555 55.555 55.554 55.555 136.185v156.152q0 17.452-11.964 29.476-11.963 12.024-29.326 12.024t-29.537-12.024q-12.174-12.024-12.174-29.476Z"/></svg>