<svg xmlns="http://www.w3.org/2000/svg" height="20" viewBox="0 -960 960 960" width="20"><path d="M357.475-136.587q-38.258 0-69.432-20.195-31.174-20.196-47.13-55.631h-52.5q-43.089 0-73.251-30.092Q85-272.598 85-315.587v-131.565q0-34.483 24.259-58.741 24.258-24.259 58.741-24.259h133.717V-645.13H124.863q-16.801 0-28.332-11.321Q85-667.772 85-684.507t11.381-28.266q11.381-11.531 28.206-11.531h414.261q34.482 0 58.741 24.258 24.259 24.259 24.259 58.742v349.717H723.37l-5.848-6.087q-11.957-11.956-12.076-27.891-.12-15.935 11.597-28.131 12.435-12.195 28.49-11.956 16.054.239 28.011 12.195l72.391 72.392q12.674 12.397 12.674 28.927 0 16.529-12.674 29.203l-72.152 72.153q-12.196 12.195-27.631 11.815-15.435-.381-27.63-12.696-12.196-12.315-12.076-28.25.119-15.935 12.315-28.13l4.369-4.37H473.348q-15.196 36.674-46.406 56.25t-69.467 19.576Zm23.655-393.565h161.305V-645.13H381.13v114.978ZM357.13-216q20.4 0 34.2-13.8 13.8-13.8 13.8-34.2 0-20.4-13.8-34.2-13.8-13.8-34.2-13.8-20.4 0-34.2 13.8-13.8 13.8-13.8 34.2 0 20.4 13.8 34.2 13.8 13.8 34.2 13.8Z"/></svg>