<svg xmlns="http://www.w3.org/2000/svg" height="20" viewBox="0 -960 960 960" width="20"><path d="M519.587-511.913v-167.304q0-16.825-11.321-28.206-11.32-11.381-28.055-11.381t-28.267 11.381q-11.531 11.381-11.531 28.206v183.5q0 9.195 3.359 16.549 3.358 7.354 9.076 13.038l130.02 130.02q12.349 12.349 28.045 11.849 15.696-.5 28.13-12.696 12.435-12.195 12.435-28.13 0-15.935-12.77-28.622L519.587-511.913ZM480-87.869q-81.289 0-152.533-30.618-71.244-30.618-124.803-84.177-53.559-53.559-84.177-124.949-30.618-71.391-30.618-152.845 0-81.455 30.618-152.887t84.177-124.491q53.559-53.059 124.949-83.677 71.391-30.618 152.845-30.618 81.455 0 152.893 30.858t124.283 83.757q52.845 52.899 83.671 124.411Q872.131-561.593 872.131-480q0 81.289-30.618 152.533-30.618 71.244-83.677 124.803-53.059 53.559-124.622 84.177Q561.651-87.869 480-87.869Z"/></svg>