<svg xmlns="http://www.w3.org/2000/svg" height="20" viewBox="0 -960 960 960" width="20"><path d="M184.587-672.717V-789.13q0-34.783 24.259-58.892 24.258-24.109 58.741-24.109H384v79.414H264v120h-79.413Zm83 584.848q-34.783 0-58.891-24.259-24.109-24.259-24.109-58.742v-116.413H264v120h120v79.414H267.587ZM696-672.717v-120H576v-79.414h116.413q34.783 0 58.891 24.259 24.109 24.259 24.109 58.742v116.413H696ZM576-87.869v-79.414h120v-120h79.413v116.413q0 34.783-24.259 58.892-24.258 24.109-58.741 24.109H576Z"/></svg>