<svg xmlns="http://www.w3.org/2000/svg" height="20" viewBox="0 -960 960 960" width="20"><path d="M168.717-480q0 36.778 8.022 71.827t24.065 66.108q7.479 15.913 4.62 32.467-2.859 16.555-17.294 25.329-14.434 9.378-30.228 6.019-15.793-3.359-24.511-19.033-21.522-41.239-33.402-87.181-11.88-45.943-11.88-95.536 0-50 11.88-95.62 11.88-45.619 33.402-86.858 8.718-15.674 24.511-19.152 15.794-3.479 30.228 5.899 14.435 8.774 17.294 25.329 2.859 16.554-4.62 32.467-16.043 31.059-24.065 66.108-8.022 35.049-8.022 71.827ZM480-264.717q-90.761 0-153.022-62.261Q264.717-389.239 264.717-480t62.261-153.022Q389.239-695.283 480-695.283t153.022 62.261Q695.283-570.761 695.283-480t-62.261 153.022Q570.761-264.717 480-264.717Zm0-80.609q56.413 0 95.543-39.131 39.131-39.13 39.131-95.543 0-56.413-39.131-95.543-39.13-39.131-95.543-39.131-56.413 0-95.543 39.131-39.131 39.13-39.131 95.543 0 56.413 39.131 95.543 39.13 39.131 95.543 39.131ZM790.522-480q0-36.778-8.022-71.827t-24.065-66.108q-7.478-15.913-4.42-32.49 3.059-16.578 17.094-25.727 14.435-8.957 30.728-5.478 16.294 3.478 25.011 19.152 21.522 41.239 32.902 86.858Q871.131-530 871.131-480q0 50-11.37 95.857t-32.913 86.86q-8.717 15.674-25.011 19.033-16.293 3.359-30.728-6.019-14.435-8.774-17.294-25.329-2.858-16.554 4.62-32.467 16.043-31.059 24.065-66.108 8.022-35.049 8.022-71.827ZM480-480Z"/></svg>