<svg xmlns="http://www.w3.org/2000/svg" height="20" viewBox="0 -960 960 960" width="20"><path d="M479-264q50.492 0 95.67-20.283 45.178-20.282 75.417-61.087 14.717-19.717 3.478-41.173Q642.326-408 618.37-408q-9.861 0-18.007 5.478-8.146 5.479-14.102 12.718-19.391 23.681-47.561 36.949-28.17 13.268-59.478 13.268-31.309 0-59.255-14.185-27.945-14.185-48.228-38.032-6.717-7.239-15.435-11.718Q347.587-408 337.87-408q-23.957 0-33.576 21.315-9.62 21.315 5.336 40.272 31 39.565 75.233 60.989Q429.095-264 479-264Zm131.087-238.087q25.956 0 43.935-17.978Q672-538.043 672-564t-17.978-43.935q-17.979-17.978-43.935-17.978-25.717 0-43.696 18.098-17.978 18.098-17.978 43.815t17.978 43.815q17.979 18.098 43.696 18.098Zm-260.174 0q25.717 0 43.696-18.098 17.978-18.098 17.978-43.815t-17.978-43.815q-17.979-18.098-43.696-18.098-25.956 0-43.935 17.978Q288-589.957 288-564t17.978 43.935q17.979 17.978 43.935 17.978ZM480.276-87.869q-80.95 0-152.385-30.598-71.435-30.598-125.13-84.294-53.696-53.695-84.294-125.089-30.598-71.393-30.598-152.608 0-81.216 30.598-152.151 30.598-70.935 84.294-124.63 53.695-53.696 125.089-84.294 71.393-30.598 152.608-30.598 81.216 0 152.151 30.598 70.935 30.598 124.63 84.294 53.696 53.695 84.294 124.855 30.598 71.159 30.598 152.108 0 80.95-30.598 152.385-30.598 71.435-84.294 125.13-53.695 53.696-124.855 84.294-71.159 30.598-152.108 30.598ZM480-480Zm0 309.13q128.565 0 218.848-90.282Q789.13-351.435 789.13-480t-90.282-218.848Q608.565-789.13 480-789.13t-218.848 90.282Q170.87-608.565 170.87-480t90.282 218.848Q351.435-170.87 480-170.87Z"/></svg>