<svg xmlns="http://www.w3.org/2000/svg" height="20" viewBox="0 -960 960 960" width="20"><path d="M410.606-87.87q-34.519 0-58.628-24.258-24.109-24.259-24.109-58.742v-16.108L195.543-404.239q-5.717-9.435-8.695-20.13-2.979-10.696-2.979-22.37v-139.79q0-24.275 13.881-44.21 13.88-19.935 34.119-29.37V-789.37q0-34.138 24.661-58.45 24.662-24.311 58.1-24.311h330.74q33.438 0 58.1 24.311 24.661 24.312 24.661 58.45v129.261q21.239 9.435 34.619 29.491 13.381 20.055 13.381 44.01v139.869q0 11.674-2.979 22.37-2.978 10.695-8.695 20.13L632.131-186.978v16.108q0 34.483-24.285 58.742t-58.804 24.259H410.606Zm-95.736-581.5h66.5v-44.412q0-10.796 8.071-18.714 8.071-7.917 18.832-7.917 10.762 0 18.679 7.917 7.918 7.918 7.918 18.714v44.412h90.26v-44.412q0-10.796 8.072-18.714 8.071-7.917 18.832-7.917 10.762 0 18.679 7.917 7.917 7.918 7.917 18.714v44.412h66.5v-119.76H314.87v119.76Zm95.76 498.5h138.74v-43.217l143.76-236.652v-135.63H266.87v135.63l143.76 236.652v43.217ZM480-450.739Z"/></svg>