<svg xmlns="http://www.w3.org/2000/svg" height="20" viewBox="0 -960 960 960" width="20"><path d="M700.783-300.152V-360q0-11.752-8.516-20.267-8.515-8.516-20.267-8.516-11.752 0-20.267 8.516-8.516 8.515-8.516 20.267v74.957q0 2.096 5.718 14.913l57.717 57.478q8.799 8.435 20.53 8.435 11.731 0 20.166-8.435t8.435-20.286q0-11.851-8.435-20.649l-46.565-46.565Zm-322.3-298.761q-29.974 0-51.098-21.332t-21.124-51.598q0-30.027 21.124-51.266 21.124-21.239 51.098-21.239 29.734 0 51.473 21.452 21.74 21.451 21.74 51.478 0 30.266-21.74 51.385-21.739 21.12-51.473 21.12ZM671.774-91.696q-81.687 0-138.883-57.421-57.195-57.422-57.195-139.109 0-81.687 57.421-138.883 57.422-57.195 139.109-57.195 81.687 0 138.883 57.421 57.195 57.422 57.195 139.109 0 81.687-57.421 138.883-57.422 57.195-139.109 57.195Zm-454.339 7.653q-34.483 0-58.742-24.259-24.258-24.259-24.258-58.741v-625.914q0-33.543 24.258-58.271 24.259-24.729 58.742-24.729h322.847q33.544 0 58.272 24.729 24.729 24.728 24.729 58.271v241.892q-22.153 4.478-42.424 11.554-20.272 7.076-38.947 16.75v-272.587H215.043v264.283q17.044-9.565 37.497-16.207 20.454-6.641 42.677-6.641H462.5q23.348 0 45.294 6.261 21.945 6.261 42.184 20.261-47.565 26.239-81.848 65.902-34.282 39.663-50.521 89.228v-13.934q0-16.496-11.246-27.803-11.246-11.306-27.653-11.306-16.406 0-27.746 11.306-11.34 11.307-11.34 27.803v28.108h-28.225q-16.545 0-27.885 11.307-11.34 11.306-11.34 27.802 0 16.496 11.34 27.802 11.34 11.307 27.885 11.307h28.225v28.108q0 16.496 11.34 27.802 11.34 11.307 27.536 11.307 10.717 0 19.456-5.12 8.74-5.119 12.218-11.358 9.956 42.348 32.134 79.944 22.178 37.596 55.583 65.143H217.435Z"/></svg>