<svg xmlns="http://www.w3.org/2000/svg" height="20" viewBox="0 -960 960 960" width="20"><path d="M729.13-148.121h-67.934q-17.453 0-29.477-12.048-12.023-12.048-12.023-29.434 0-17.386 12.023-29.365 12.024-11.98 29.477-11.98h67.934v-67.623q0-17.386 11.964-29.559 11.963-12.174 29.326-12.174t29.411 12.024q12.048 12.023 12.048 29.476v67.934h68.102q17.488 0 29.536 12.024 12.048 12.024 12.048 29.476 0 17.453-12.048 29.477-12.048 12.024-29.536 12.024h-68.102v67.934q0 17.453-12.048 29.477-12.048 12.023-29.201 12.023-17.452 0-29.476-12.048Q729.13-62.53 729.13-80.019v-68.102ZM479.522-427.696Zm88.587 5.392 31.261 54.717q-8.696 8.909-16.729 18.335-8.032 9.426-15.271 20.426L551.283-357q-4.044-7.565-13.37-7.565t-13.758 7.501l-94.003 163.129q-6.761 10.044.5 16.707t16.305 8.424q19.682 2.761 38.83 2.38 19.148-.38 38.713-4.141 1.927 21.314 6.778 41.581 4.852 20.267 14.244 39.658-15.761 3-32.142 4.38Q497-83.564 480-83.564q-71.493 0-133.903-27.075t-109.102-73.794q-46.691-46.718-73.908-109.153-27.218-62.435-27.218-134.109t27.105-134.028q27.105-62.354 73.874-109.004 46.769-46.649 109.124-73.754Q408.326-771.587 480-771.587q59.435 0 113.196 18.641 53.761 18.642 99.717 54.163l48.522-48.521q12.435-12.435 28.536-12.435 16.102 0 27.964 12.195 12.196 12.196 12.196 28.131t-12.196 28.13l-49 48.761q37.283 45.805 56.022 99.37 18.739 53.565 19.174 113.087-20.631-5.913-42.001-6.913-21.369-1-42.478 1.717v-4.217q-1.674-5.844-7.252-9.868-5.578-4.024-12.378-4.024H585.095q-12.269 0-17.486 10.435-5.218 10.435.5 20.631ZM390.5-819.587q-15.718 0-26.815-10.887-11.098-10.888-11.098-26.816 0-15.928 10.948-27.025 10.947-11.098 26.965-11.098h179q16.018 0 26.965 10.887 10.948 10.887 10.948 26.815t-10.948 27.026q-10.947 11.098-26.965 11.098h-179ZM528.348-501.37h175.307q9.866 0 15.573-7.555 5.707-7.556 1.468-16.684-16.479-39.565-47.424-75.391-30.946-35.826-70.518-56.065-7.215-3.478-14.636-1-7.422 2.478-11.662 9.196l-66.26 116.434q-5.718 10.435-.12 20.75t18.272 10.315Zm-86.824-5.327 85.932-150.933q5.24-8.812.5-17.623-4.739-8.812-14.217-10.812-42.522-7.044-89.109 3.315-46.587 10.359-81.913 33.402-6.478 4.239-7.858 11.718-1.381 7.478 2.858 13.717l66.739 117.152q5.718 10.435 18.392 10.435t18.676-10.371Zm-66.816 104.675q12.227 0 17.325-10.315 5.097-10.315-.953-20.734l-86.123-151.364q-5.24-8.478-15.098-9.478-9.859-1-15.859 6.478-28.283 33.522-42.587 78.348-14.304 44.826-12.543 88.631 1.072 8.273 6.014 13.353 4.942 5.081 13.334 5.081h136.49Zm74.857 79.066q5.718-10.435.12-20.75-5.598-10.316-18.272-10.316H256.544q-9.24 0-14.859 7.859-5.62 7.859-1.952 17.205 15.289 40.936 46.854 75.904 31.565 34.967 70.42 54.967 6.975 3.478 14.278 1.12 7.302-2.359 11.541-8.837l66.739-117.152Z"/></svg>