<svg xmlns="http://www.w3.org/2000/svg" height="20" viewBox="0 -960 960 960" width="20"><path d="m415.587-329.283 209.13-133.565q9.196-6.126 9.196-17.356 0-11.231-9.196-16.948l-209.13-133.565q-10.435-6.957-21.37-.87-10.934 6.087-10.934 18.261v266.337q0 12.989 10.934 18.826 10.935 5.837 21.37-1.12ZM170.87-183.869q-34.483 0-58.742-24.271t-24.259-58.77v-426.504q0-34.499 24.259-58.608 24.259-24.109 58.742-24.109h618.26q34.483 0 58.742 24.271t24.259 58.77v426.504q0 34.499-24.259 58.608-24.259 24.109-58.742 24.109H170.87Zm0-83.001h618.26v-426.26H170.87v426.26Zm0 0v-426.26 426.26Z"/></svg>