<svg xmlns="http://www.w3.org/2000/svg" height="20" viewBox="0 -960 960 960" width="20"><path d="M426.938-306.5q-31.895 0-54.21-22.465t-22.315-54.318v-193.434q0-31.853 22.495-54.318 22.496-22.465 54.391-22.465h105.763q31.895 0 54.21 22.465t22.315 54.318v193.434q0 31.853-22.495 54.318-22.496 22.465-54.391 22.465H426.938Zm-215.61 0H106.363q-17.428 0-29.602-11.963-12.174-11.964-12.174-29.326 0-17.363 12.024-29.537t29.476-12.174H205v-49h-63.843q-31.94 0-54.255-22.465t-22.315-54.318v-61.434q0-31.853 22.432-54.318 22.433-22.465 54.24-22.465h104.964q17.429 0 29.603 11.963Q288-629.573 288-612.211q0 17.363-12.024 29.537T246.5-570.5h-98.913v49h63.843q31.94 0 54.255 22.465T288-444.717v61.434q0 31.853-22.433 54.318-22.433 22.465-54.239 22.465Zm607.413 0H713.777q-17.429 0-29.603-11.963Q672-330.427 672-347.789q0-17.363 12.024-29.537T713.5-389.5h98.913v-49H748.57q-31.94 0-54.255-22.465T672-515.283v-61.434q0-31.853 22.433-54.318 22.433-22.465 54.239-22.465h104.965q17.428 0 29.602 11.963 12.174 11.964 12.174 29.326 0 17.363-12.024 29.537T853.913-570.5H755v49h63.843q31.94 0 54.255 22.465t22.315 54.318v61.434q0 31.853-22.433 54.318-22.432 22.465-54.239 22.465Zm-385.328-83h93.174v-181h-93.174v181Z"/></svg>