<svg xmlns="http://www.w3.org/2000/svg" height="20" viewBox="0 -960 960 960" width="20"><path d="M403-90.5q-104.913 0-178.141-65.652-73.229-65.652-86.359-179.805-1.761-11.913 7.413-20.728Q155.087-365.5 168-365.5h417.978L630.5-768.478q5.239-44.152 37.293-72.587Q699.848-869.5 744-869.5q47.391 0 80.446 33.054Q857.5-803.391 857.5-756v13.283q0 17.152-12.174 29.326T816-701.217q-17.152 0-29.326-12.174T774.5-742.717V-756q0-12.848-8.826-21.674Q756.848-786.5 744-786.5q-11.848 0-20.293 7.446-8.446 7.445-10.207 19.532l-48 429q-11.239 104.913-85.793 172.468Q505.152-90.5 403-90.5ZM252.239-425.913q-15.08 0-22.975-10.315-7.895-10.316-5.177-26.905 1-7.423 1.5-12.156.5-4.732.5-9.944 0-32.028-19-72.63t-19-67.637q0-8.678 1.33-17.39 1.33-8.711 5.545-19.389 3.603-8.134 11.6-13.471t16.724-5.337q16.257 0 23.736 10.315 7.478 10.315 4.239 27.468-.761 6.282-.761 17.804 0 27.517 19 67.161 19 39.643 19 73.3 0 11.992-1.5 21.885t-5.739 18.61q-2.239 7.957-10.327 13.294-8.088 5.337-18.695 5.337Zm252.766 0q-15.614 0-23.212-9.815-7.598-9.816-4.88-27.729 1-6.288 1.5-11.438.5-5.149.5-10.285 0-33.056-19-72.851t-19-67.236q0-8.778 1.262-17.595 1.263-8.816 5.738-19.595 3.239-7.956 11.236-13.293 7.997-5.337 16.724-5.337 16.018 0 23.736 10.435 7.717 10.434 4.811 27.161-.855 5.306-1.333 17.821 0 27.887 19 67.431 19 39.543 19 73.114 0 11.948-1.744 21.812-1.744 9.865-5.529 18.669-2.966 8.057-10.798 13.394-7.833 5.337-18.011 5.337Zm-127.349 0q-15.178 0-22.276-10.031-7.098-10.031-4.38-27.308 1-6.248 1.5-11.592t.5-10.656q0-32.239-19-72.391-19-40.152-19-67.63 0-8.793.739-17.625t5.055-19.311q3.684-7.956 11.55-13.293 7.865-5.337 18.013-5.337 16.099 0 23.578 10.315 7.478 10.315 4.239 27.468-1.761 6.282-1.761 17.804 0 27.517 19.5 67.161 19.5 39.643 19.5 73.214 0 11.948-1.864 21.812-1.863 9.865-5.648 18.669-2.966 8.057-11.619 13.394-8.653 5.337-18.626 5.337Z"/></svg>