<svg xmlns="http://www.w3.org/2000/svg" height="20" viewBox="0 -960 960 960" width="20"><path d="M480.257-334.565q-113.605 0-192.996-79.135-79.392-79.135-79.392-192.739 0-113.605 79.135-192.876 79.135-79.272 192.739-79.272 113.605 0 192.996 79.085 79.392 79.086 79.392 192.62t-79.135 192.925q-79.135 79.392-192.739 79.392Zm-84.468-257.022q15.211 0 25.711-10.289 10.5-10.29 10.5-25.501 0-15.21-10.289-25.71-10.29-10.5-25.5-10.5-15.211 0-25.711 10.289-10.5 10.29-10.5 25.5 0 15.211 10.289 25.711 10.29 10.5 25.5 10.5Zm168 0q15.211 0 25.711-10.289 10.5-10.29 10.5-25.501 0-15.21-10.289-25.71-10.29-10.5-25.5-10.5-15.211 0-25.711 10.289-10.5 10.29-10.5 25.5 0 15.211 10.289 25.711 10.29 10.5 25.5 10.5Zm-84-96q15.211 0 25.711-10.289 10.5-10.29 10.5-25.501 0-15.21-10.289-25.71-10.29-10.5-25.5-10.5-15.211 0-25.711 10.289-10.5 10.29-10.5 25.5 0 15.211 10.289 25.711 10.29 10.5 25.5 10.5ZM438.5-81.413v-31.652q0-27.431-19.534-46.966-19.535-19.534-46.966-19.534h-42.978q-17.452 0-29.476-11.963-12.024-11.964-12.024-29.327 0-17.362 12.024-29.536 12.024-12.174 29.476-12.174h301.956q17.452 0 29.476 11.963 12.024 11.964 12.024 29.326 0 17.363-12.024 29.537t-29.476 12.174H588q-27.431 0-46.966 19.534-19.534 19.535-19.534 46.966v31.652h-83Z"/></svg>