<svg xmlns="http://www.w3.org/2000/svg" height="20" viewBox="0 -960 960 960" width="20"><path d="M723.323-528q-81.247 0-138.285-57.264T528-723.775q0-81.247 57.264-138.443 57.264-57.195 138.511-57.195 81.247 0 138.443 57.422 57.195 57.421 57.195 138.668 0 81.247-57.422 138.285Q804.57-528 723.323-528ZM158.275-158.304q-11.21-10-16.449-23.752-5.239-13.752-5.239-28.058v-538.075q0-30.294 21.602-52.042 21.602-21.747 51.937-21.747h263.157q-9.24 23.478-13.979 48.046-4.739 24.568-4.739 50.345 0 53.97 19.978 103.3 19.979 49.33 58.935 86.804L158.275-158.304Zm321.008 21.717v-187.132q0-51.804 31.521-92.115 31.522-40.312 82.392-50.97 32.565-7.239 65.163-9.859t65.228-2.62q24.757 0 49.591.12t48.8.359v268.754q0 30.304-21.747 51.883-21.748 21.58-52.028 21.58h-268.92Z"/></svg>