<svg xmlns="http://www.w3.org/2000/svg" height="20" viewBox="0 -960 960 960" width="20"><path d="m648-360-36.217 36.217q-9.196 9.196-22.489 4.312Q576-324.355 576-337.696V-582.5q0-17.452 12.024-29.476Q600.048-624 617.5-624h253q17.452 0 29.476 12.024Q912-599.952 912-582.5v181q0 17.452-12.024 29.476Q887.952-360 870.5-360H648ZM267.587-40.587q-34.244 0-58.622-24.378-24.378-24.379-24.378-58.622v-712.826q0-34.244 24.378-58.622t58.622-24.378h424.826q34.244 0 58.622 24.378t24.378 58.622V-672h-83v-44.413H267.587v472.826h424.826V-288h83v164.413q0 34.243-24.378 58.622-24.378 24.378-58.622 24.378H267.587Z"/></svg>