<svg xmlns="http://www.w3.org/2000/svg" height="20" viewBox="0 -960 960 960" width="20"><path d="M480.515-87.87q-80.923 0-152.371-30.597Q256.696-149.065 203-202.761q-53.696-53.695-84.294-125.109-30.597-71.413-30.597-152.608 0-81.196 30.597-152.131 30.598-70.935 84.294-124.63 53.696-53.696 125.109-84.294t152.608-30.598q81.196 0 152.011 30.598 70.816 30.598 124.511 84.294 53.696 53.695 84.294 124.874 30.598 71.18 30.598 152.109 0 80.93-30.598 152.365t-84.294 125.13q-53.695 53.696-124.792 84.294-71.096 30.598-151.932 30.598ZM373.418-444.477q54.539 0 92.56-38.364Q504-521.205 504-575.744t-38.244-92.56q-38.244-38.022-92.783-38.022-54.538 0-92.679 38.244-38.142 38.244-38.142 92.783 0 54.538 38.364 92.679 38.363 38.142 92.902 38.142Zm273.215 35.521q39.801 0 67.508-27.481 27.707-27.482 27.707-67.283t-27.482-67.562q-27.481-27.76-67.282-27.76-39.801 0-67.682 27.481-27.88 27.482-27.88 67.283t27.655 67.562q27.655 27.76 67.456 27.76ZM480.239-170.87q82.458 0 150.554-39.487 68.096-39.486 110.055-104.317-21.761-12-45.731-17.5-23.97-5.5-48.552-5.5-74.5 0-132.294 45.88-57.793 45.881-74.554 117.924 9.881 1.715 19.761 2.358 9.881.642 20.761.642Zm-107.347-19q7.586-63 56.228-114.282 48.641-51.283 67.923-62.283-30.259-8.311-61.412-13.536t-62.241-5.225q-44.489 0-87.744 9.381-43.255 9.38-85.016 28.141 25.693 54.541 70.249 95.673 44.556 41.131 102.013 62.131Z"/></svg>