<svg xmlns="http://www.w3.org/2000/svg" height="20" viewBox="0 -960 960 960" width="20"><path d="M479.774-184.109q-82.165 0-139.72-57.714Q282.5-299.537 282.5-381.609q0-71.31 44.5-125.09 44.5-53.779 111.5-67.776v-138.612l-26.261 26.022q-12.913 12.674-28.946 12.293-16.032-.38-28.706-13.054-12.913-12.913-12.913-29.446 0-16.532 12.913-29.445l96.241-96.242q6.063-6.063 13.458-9.041 7.394-2.978 15.571-2.978T495.429-852q7.394 2.978 13.527 9.096l97.457 97.187q12.913 12.913 12.913 29.065t-12.195 28.826q-13.153 12.674-30.091 12.674-16.938 0-29.279-12.674L521.5-713.087v138.612q67 13.997 111.5 67.722 44.5 53.725 44.5 124.963 0 82.573-57.78 140.127-57.781 57.554-139.946 57.554Zm.226-83q47.848 0 81.174-33.326 33.326-33.326 33.326-81.174 0-47.847-33.326-81.173-33.326-33.327-81.174-33.327-47.848 0-81.174 33.327-33.326 33.326-33.326 81.173 0 47.848 33.326 81.174 33.326 33.326 81.174 33.326Zm0-114.5Z"/></svg>