<svg xmlns="http://www.w3.org/2000/svg" height="20" viewBox="0 -960 960 960" width="20"><path d="m446-471 111.264-111.264Q568-593 582-593t25 11q11 11 11 25.5T607-531L475.065-399.065q-12.31 12.674-28.883 12.674t-29.247-12.674L352-464q-11-11-11-25t11-25q11-11 25.5-11t25.5 11l43 43ZM267.587-40.587q-34.483 0-58.741-24.259-24.259-24.258-24.259-58.741v-712.826q0-34.483 24.259-58.741 24.258-24.259 58.741-24.259h424.826q34.483 0 58.741 24.259 24.259 24.258 24.259 58.741v712.826q0 34.483-24.259 58.741-24.258 24.26-58.741 24.26H267.587Zm0-203h424.826v-472.826H267.587v472.826Z"/></svg>