<svg xmlns="http://www.w3.org/2000/svg" height="20" viewBox="0 -960 960 960" width="20"><path d="M266.586-87.87q-34.499 0-58.608-24.258-24.109-24.259-24.109-58.742v-618.26q0-34.483 24.259-58.742t58.742-24.259h277.934q16.153 0 31.685 5.837 15.533 5.837 27.207 18.511l148.087 148.087q12.674 11.674 18.511 27.207 5.837 15.532 5.837 31.685v469.934q0 34.483-24.271 58.742t-58.77 24.259H266.586ZM525.13-662.63q0 17.452 12.024 29.476 12.024 12.024 29.476 12.024h126.5l-168-168v126.5Zm-85.891 309.847-52.998-53.901q-3.045-4.142-19.282 2.238-16.237 6.381-30.337 11.381-14.1 5-19.459 4.619-5.359-.38 12.736-18.474-11.812 11.811-11.812 29.148t11.478 28.815l80.37 80.131q6.117 5.717 13.613 8.815 7.495 3.098 15.652 3.098t15.652-3.098q7.496-3.098 13.213-8.815l166.37-166.37q11.478-11.695 11.478-28.304 0-16.609-11.651-28.087-11.65-11.478-28.195-11.478t-28.024 11.478L439.239-352.783Z"/></svg>