<svg xmlns="http://www.w3.org/2000/svg" height="20" viewBox="0 -960 960 960" width="20"><path d="m330.413-729.087 73.978-96.826q14.191-19.152 34.196-28.109 20.004-8.956 41.172-8.956 21.167 0 41.171 8.956 20.005 8.957 34.679 28.109l73.978 96.826H330.413Zm-99.5 149.5v-32.348q-44.478-18.674-71.652-63.565t-28.174-97q0-17.452 11.963-29.476Q155.014-814 172.376-814q17.363 0 29.537 12.024t12.174 29.476q2 38.717 27.261 66.859 25.261 28.141 52.065 28.141h373.174q26.804 0 52.065-28.641 25.261-28.642 27.261-67.359 0-17.452 11.963-29.476Q769.84-815 787.203-815q17.362 0 29.536 12.024 12.174 12.024 12.174 29.476 0 52.348-27.174 97.739-27.174 45.391-72.652 63.826v32.348H230.913Zm-48 403.174v-272.022Q119.435-456.109 77.261-508T35.087-624q0-17.452 11.963-29.476Q59.014-665.5 76.376-665.5q17.363 0 29.537 12.024T118.087-624q2 40.717 28.761 68.359Q173.609-528 211.413-528h537.174q36.804 0 63.565-27.641 26.761-27.642 29.761-68.359 0-17.452 11.963-29.476Q865.84-665.5 883.203-665.5q17.362 0 29.536 12.024 12.174 12.024 12.174 29.476-1 64.348-40.174 116.239-39.174 51.892-107.652 59.326v272.022q0 39.433-27.784 67.217-27.783 27.783-67.216 27.783h-62.674q-17.452 0-29.476-12.024-12.024-12.024-12.024-29.476v-60q0-40.717-28.598-69.196-28.598-28.478-69.315-28.478t-69.315 28.478q-28.598 28.479-28.598 69.196v60q0 17.452-12.024 29.476-12.024 12.024-29.476 12.024h-62.674q-39.433 0-67.216-27.783-27.784-27.784-27.784-67.217Z"/></svg>