<svg xmlns="http://www.w3.org/2000/svg" height="20" viewBox="0 -960 960 960" width="20"><path d="M219.598-359.413 186.5-267.87q-4.478 11.957-15.352 19.913Q160.274-240 146.435-240q-22.465 0-36.222-19.214-13.757-19.215-4.322-40.721L256.609-691.37q5.717-13.195 16.85-20.913Q284.592-720 298.913-720h34.657q13.843 0 25.158 7.837 11.316 7.837 17.033 21.033l149.733 391.652q8.267 21.456-5.017 40.467Q507.193-240 484.304-240q-15.152 0-26.554-7.957t-16.322-21.673l-30.993-89.783H219.598ZM244.544-432h139.934l-67.72-193.022h-3.888L244.544-432Zm438.499-8.665H614.63q-16.824 0-28.205-11.405-11.382-11.406-11.382-28.164 0-16.758 11.382-28.094 11.381-11.337 28.205-11.337h68.413v-68.101q0-16.758 11.486-28.29 11.485-11.531 28.13-11.531t28.096 11.381q11.45 11.382 11.45 28.206v68.413h68.581q16.86 0 28.265 11.381 11.406 11.382 11.406 28.206 0 16.824-11.406 28.206-11.405 11.381-28.265 11.381h-68.581V-372q0 16.824-11.406 28.206-11.405 11.381-27.929 11.381-16.735 0-28.281-11.57t-11.546-28.34v-68.342Z"/></svg>