<svg xmlns="http://www.w3.org/2000/svg" height="20" viewBox="0 -960 960 960" width="20"><path d="M284.157-549.13q1.213 15 12.549 24.679 11.337 9.68 26.337 8.468 15-1.213 24.68-12.55t8.468-26.337q-1.213-15-12.55-24.679-11.337-9.68-26.337-8.468-15 1.213-24.68 12.55-9.679 11.337-8.467 26.337Zm159.826 0q1.213 15 12.55 24.679 11.337 9.68 26.337 8.468 15-1.213 24.679-12.55 9.68-11.337 8.468-26.337-1.213-15-12.55-24.679-11.337-9.68-26.337-8.468-15 1.213-24.679 12.55-9.68 11.337-8.468 26.337Zm159.826 0q1.213 15 12.55 24.679 11.337 9.68 26.337 8.468 15-1.213 24.68-12.55 9.679-11.337 8.467-26.337-1.213-15-12.549-24.679-11.337-9.68-26.337-8.468-15 1.213-24.68 12.55t-8.468 26.337Zm-371.94 317.261-73.434 73.434q-19.631 19.631-45.098 8.771-25.468-10.86-25.468-38.358V-789.13q0-34.783 24.109-58.892t58.892-24.109h618.26q34.783 0 58.892 24.109t24.109 58.892v474.26q0 34.783-24.109 58.892t-58.892 24.109H231.869Z"/></svg>