<svg xmlns="http://www.w3.org/2000/svg" height="20" viewBox="0 -960 960 960" width="20"><path d="M265.913-206.913v28.826q0 16.825-11.321 28.206-11.32 11.381-28.055 11.381-16.646 0-28.341-11.546-11.696-11.545-11.696-28.28v-603.587q0-16.825 11.485-28.206t28.131-11.381q16.645 0 28.104 11.381 11.46 11.381 11.46 28.206v28.826h68.407V-780q0-17.452 12.012-29.476 12.013-12.024 29.448-12.024H584.13q17.435 0 29.493 12.024Q625.68-797.452 625.68-780v26.913h68.407v-28.826q0-16.825 11.485-28.206t28.131-11.381q16.645 0 28.221 11.381t11.576 28.206v603.826q0 16.825-11.321 28.206-11.32 11.381-28.055 11.381-16.646 0-28.225-11.546-11.579-11.545-11.579-28.28v-28.587h-68.407V-180q0 17.452-12.012 29.476-12.013 12.024-29.448 12.024H375.87q-17.435 0-29.493-12.024Q334.32-162.548 334.32-180v-26.913h-68.407Zm0-79.174h68.174V-362.5h-68.174v76.413Zm0-155.826h68.174v-76.174h-68.174v76.174Zm0-155.587h68.174v-76.413h-68.174v76.413Zm360 311.413h68.174V-362.5h-68.174v76.413Zm0-155.826h68.174v-76.174h-68.174v76.174Zm0-155.587h68.174v-76.413h-68.174v76.413Z"/></svg>