<svg xmlns="http://www.w3.org/2000/svg" height="20" viewBox="0 -960 960 960" width="20"><path d="M125.022-340.783q-31.066 0-57.033-25.467-25.967-25.468-25.967-57.533v-42.413q0-8.478 1.62-15.695 1.619-7.218 4.858-14.457l120.435-283.065q8.956-22.87 29.945-36.663 20.99-13.794 47.098-13.794h374.435q34.783 0 58.891 23.609 24.109 23.609 24.109 59.391v371.544q0 17.391-6.717 32.804-6.718 15.413-18.392 27.087L492.609-129.74q-20.63 20.87-49.62 26.946-28.989 6.076-49.619-5.88-25.392-13.718-33.087-41.707-7.696-27.989-1.739-55.815l25.695-134.587H125.022ZM849.326-829.87q29.718 0 51.696 21.978Q923-785.913 923-756.196v341.739q0 29.718-21.739 51.696-21.739 21.978-51.217 21.978h-.957q-29.717 0-51.696-21.978-21.978-21.978-21.978-51.696v-341.739q0-29.717 21.978-51.696 21.979-21.978 51.696-21.978h.239Z"/></svg>