<svg xmlns="http://www.w3.org/2000/svg" height="20" viewBox="0 -960 960 960" width="20"><path d="M396.304-96.24q-15.761-43.564-21.802-87.195-6.041-43.63-7.641-82.706-1.6-39.076.4-71.337t4.641-53.19q-.88 0 0 0h.12q-21.24-4.549-47.985-12.105-26.745-7.557-56.902-20.24-30.157-12.683-62.059-31.563-31.902-18.88-64.185-44.163L182.478-565q39.761 35 82.212 55 42.45 20 77.408 30.5t57.43 14L422-462q17 .239 26.5 13.253T455-419l-4.5 30.5Q446-358 445-311t6 104q7 57 29 111l-83.696-.24Zm329.914.24H648v-400.548Q648-542 624-579.5T558-636L297.522-754.522l41.826-66.978L590.63-707.739q61.828 27.863 98.708 84.765 36.88 56.903 36.88 125.974v401Zm-200.681-95.283q8.784 0 14.908-2.832 6.124-2.833 11.513-8.332 5.468 5.499 12.092 8.332 6.624 2.832 14.479 2.832 16.693 0 27.832-11.206t11.139-27.772q0-16.565-11.244-27.828-11.243-11.263-27.865-11.263v-135.539q16.735 0 27.922-11.206 11.187-11.207 11.187-27.772 0-16.566-11.196-27.903t-27.746-11.337q-7.804 0-14.442 2.322T552-472.913q-5.399-5.552-11.536-7.874-6.138-2.322-14.922-2.322-16.593 0-27.818 11.158-11.224 11.158-11.224 27.652 0 16.495 11.306 27.877 11.307 11.382 27.803 11.382v135.54q-16.496 0-27.803 11.158Q486.5-247.184 486.5-230.69t11.223 27.951q11.223 11.456 27.814 11.456ZM480-96q-22-54-29-111t-6-104q1-47 5.5-77.741l4.5-30.741q3-16.518-6.5-29.398Q439-461.761 422-462l-22.472-3.5q-22.472-3.5-57.43-14T264.69-510q-42.451-20-82.212-55 39.761 35 82.212 55 42.45 20 77.408 30.5t57.43 14L422-462q17 .239 26.5 13.253T455-419l-4.5 30.5Q446-358 445-311t6 104q7 57 29 111Z"/></svg>