<svg xmlns="http://www.w3.org/2000/svg" height="20" viewBox="0 -960 960 960" width="20"><path d="M88.109-480.458q0-81.216 30.597-152.151 30.598-70.935 84.294-124.63 53.696-53.696 124.943-84.294t152.296-30.598q125.957 0 223.033 69.261t140.989 178.261q6.957 17.913-.38 35.326t-24.429 23.585q-15.735 5.263-30.887-3.454-15.152-8.718-21.348-24.392-23.239-57.608-66.663-102.195-43.424-44.587-101.271-68.631v22.522q0 29.461-21.15 50.372t-50.611 20.911h-95.044v47.282q0 20.161-13.8 33.961-13.8 13.8-33.961 13.8h-47.282v95.044h5.065q17.452 0 29.476 12.024Q384-456.43 384-438.978v53.304h-47.043L178.109-544.522q-2.625 15.761-4.813 31.522-2.187 15.761-2.187 32.522 0 117.456 76.217 204.304t189 101.435q15.913 3.435 24.891 16.206 8.978 12.772 7.304 28.707-1.913 16.652-15.804 27.989t-31.525 8.02q-141.214-20.096-237.149-129.216-95.934-109.119-95.934-257.425Zm697.698 340.255-94.611-93.71q-19.761 12.283-41.563 18.804-21.802 6.522-46.046 6.522-71.435 0-121.63-50.195-50.196-50.196-50.196-121.631t50.196-121.511Q532.152-552 603.587-552t121.511 50.025q50.076 50.026 50.076 121.388 0 24.217-6.522 46.239-6.521 22.022-18.804 41.783l94.85 94.611q12.715 12.476 12.596 28.628-.12 16.152-12.794 28.826-12.913 12.913-29.446 12.913-16.532 0-29.247-12.616ZM603.362-291.587q37.116 0 62.964-25.742t25.848-62.859q0-37.116-25.623-62.964Q640.929-469 603.812-469q-37.116 0-63.084 25.623-25.967 25.622-25.967 62.739 0 37.116 25.742 63.084 25.742 25.967 62.859 25.967Z"/></svg>