<svg xmlns="http://www.w3.org/2000/svg" height="20" viewBox="0 -960 960 960" width="20"><path d="M700.848-92.174q-43.435 0-66.729-19.098-23.293-19.098-33.25-31.054l1.076 1.076 1.077 1.076h-47q-45.612 0-72.915-31.293-27.303-31.294-27.303-70.26 0-21.338 10.218-41.914 10.217-20.577 31.174-37.533l29.608-24.326v-190.196L474-612.261q-9.478-14.717-14.337-28.935-4.859-14.217-4.859-29.413 0-40.611 28.803-70.914 28.803-30.303 73.415-30.303h160.826q45.391 0 73.924 30.913 28.532 30.913 28.532 71.62 0 14.769-4.358 29.439-4.359 14.671-13.837 27.832l-54.044 77.326v200.674l31.087 30.087q18.718 17.717 29.815 42.206 11.098 24.489 11.098 50.42 0 49.64-34.771 84.387-34.772 34.748-84.446 34.748Zm-333.587-59.478q-11.717 6.478-24.371 8.978-12.653 2.5-24.334 2.5-40.556 0-73.35-29.306-32.793-29.306-32.793-76.911v-360.783l-63.922-130.823q-4.839-9.593-6.458-19.599-1.62-10.006-1.62-20.013 0-35.391 25.413-62.804 25.413-27.413 64.804-27.413h181.435v97.435q35 0 58.805 26.273 23.804 26.273 23.804 62.748 0 13.718-4.859 28.674-4.858 14.957-15.337 27.914l-40.804 50.086v-5.021 191l45.804 69.565q8.718 11.717 11.457 23.9 2.739 12.182 2.739 24.448 0 26.711-14.457 47.627-14.456 20.916-36.13 31.873l-75.826 39.652Z"/></svg>