<svg xmlns="http://www.w3.org/2000/svg" height="20" viewBox="0 -960 960 960" width="20"><path d="M480-514.13 230.652-657.543q-20.434-11.957-40.108-.423-19.674 11.534-19.674 35.079 0 10.452 5.858 19.55 5.859 9.098 14.337 14.576l267.826 154.892q9.435 6.195 21.109 6.195 11.674 0 21.109-6.195l268.826-154.892q8.478-5.478 13.837-14.513 5.358-9.036 5.358-19.878 0-23.413-19.674-34.88-19.674-11.468-40.108.489L480-514.13ZM767.774-48Q688-48 632-104.226t-56-136Q576-320 632.226-376t136-56Q848-432 904-375.774t56 136Q960-160 903.774-104t-136 56Zm-69.861-166.087h140.174q10.317 0 18.115-7.678Q864-229.443 864-240q0-10.317-7.798-18.115-7.798-7.798-18.115-7.798H697.913q-10.317 0-18.115 7.678Q672-250.557 672-240q0 10.317 7.798 18.115 7.798 7.798 18.115 7.798ZM170.87-183.869q-34.483 0-58.742-24.271t-24.259-58.77v-426.504q0-34.499 24.259-58.608 24.259-24.109 58.742-24.109h618.26q34.483 0 58.742 24.259t24.259 58.742v212.913q-24.435-13.392-50.392-18.587Q795.783-504 768-504q-106.283 0-184.783 67.543-78.5 67.544-79.217 169.923-.478 20.534.478 41.904.957 21.369 7.631 40.761H170.87Z"/></svg>