<svg xmlns="http://www.w3.org/2000/svg" height="20" viewBox="0 -960 960 960" width="20"><path d="M266.586-183.869q-34.499 0-58.608-24.259-24.109-24.259-24.109-58.742v-30.5q0-17.452 11.964-29.476 11.963-12.024 29.326-12.024t29.537 12.024q12.174 12.024 12.174 29.476v30.5h426.26v-30.5q0-17.452 11.964-29.476 11.963-12.024 29.326-12.024t29.537 12.024q12.174 12.024 12.174 29.476v30.5q0 34.483-24.271 58.742t-58.77 24.259H266.586ZM438.5-665.565l-74.5 74.5q-12.435 12.674-29.087 12.913-16.652.239-29.804-12.435-12.435-12.674-12.316-29.446.12-16.771 12.794-29.445l145.348-145.587q6.117-5.718 13.613-8.816 7.495-3.097 15.652-3.097t15.652 3.097q7.496 3.098 13.213 8.816l145.587 145.587q12.435 12.435 12.555 28.826.119 16.391-12.076 28.826-13.153 12.674-29.805 12.554-16.652-.119-29.326-12.793l-74.5-73.5v285.195q0 17.452-11.963 29.476-11.964 12.024-29.326 12.024-17.363 0-29.537-12.024T438.5-380.37v-285.195Z"/></svg>