<svg xmlns="http://www.w3.org/2000/svg" height="20" viewBox="0 -960 960 960" width="20"><path d="M225.661-741.13q-17.444 0-29.618-11.964-12.174-11.963-12.174-29.326t12.019-29.537q12.018-12.174 29.462-12.174h508.989q17.444 0 29.618 11.964 12.174 11.963 12.174 29.326t-12.019 29.537q-12.018 12.174-29.462 12.174H225.661Zm254.55 605.261q-17.363 0-29.537-12.024T438.5-177.37v-333.912l-70.674 69.674q-12.674 12.674-29.326 12.674t-29.326-12.674Q296.5-454.282 296.5-470.435q0-16.152 12.532-28.684l141.903-141.903q6.117-5.717 13.613-8.815 7.495-3.098 15.652-3.098t15.652 3.098q7.496 3.098 13.213 8.815l140.974 140.974q12.461 12.461 12.461 29.113 0 16.653-12.674 29.327-12.674 12.674-28.826 13.174t-28.826-12.174L521.5-511.282v333.912q0 17.453-11.963 29.477-11.964 12.024-29.326 12.024Z"/></svg>