<svg xmlns="http://www.w3.org/2000/svg" height="20" viewBox="0 -960 960 960" width="20"><path d="M170.87-183.869q-34.483 0-58.742-24.271t-24.259-58.77v-426.504q0-34.499 24.259-58.608 24.259-24.109 58.742-24.109h618.26q34.483 0 58.742 24.271t24.259 58.77v426.504q0 34.499-24.259 58.608-24.259 24.109-58.742 24.109H170.87Zm0-83.001h618.26v-426.26H170.87v426.26Zm507.625-40.4 60.271-222.895q4.93-16.531-4.147-31.563-9.076-15.033-25.467-19.511L332.413-682.696q-16.391-4.478-31.304 4.479-14.913 8.956-19.843 25.487l-60.032 223.134q-4.93 16.292 4.147 31.324 9.076 15.033 25.228 19.511l376.5 101.457q16.391 4.478 31.424-4.479 15.032-8.956 19.962-25.487Zm-69.778-61.23L311.74-447.848 350.805-591.5l297.455 79.348L608.717-368.5ZM170.87-266.87v-426.26 426.26Z"/></svg>