<svg xmlns="http://www.w3.org/2000/svg" height="20" viewBox="0 -960 960 960" width="20"><path d="M172.782-176.695q-16.152 0-28.326-12.674t-12.174-29.326q0-16.653 12.674-28.827 12.674-12.174 28.826-12.174h613.436q17.408 0 28.954 12.024t11.546 29.477q0 16.152-12.024 28.826t-29.476 12.674H172.782Zm42.501-151.174q-34.244 0-58.622-24.729-24.379-24.728-24.379-58.272v-138.26q0-34.244 24.379-58.622 24.378-24.379 58.622-24.379h529.434q34.244 0 58.622 24.379 24.379 24.378 24.379 58.622v138.26q0 33.544-24.379 58.272-24.378 24.729-58.622 24.729H215.283Zm-42.501-372.435q-16.152 0-28.326-12.674t-12.174-29.327q0-16.652 12.674-28.826t28.826-12.174h613.436q17.408 0 28.954 12.024t11.546 29.476q0 16.153-12.024 28.827-12.024 12.674-29.476 12.674H172.782Z"/></svg>