<svg xmlns="http://www.w3.org/2000/svg" height="20" viewBox="0 -960 960 960" width="20"><path d="M699.587-504q-34.435 0-55.011-20.576T624-579.587v-73.196q0-34.674 20.576-55.011 20.576-20.337 55.011-20.337h52.065q34.674 0 55.011 20.337Q827-687.457 827-652.783v73.196q0 34.435-20.337 55.011T751.652-504h-52.065ZM456-504q-34.435 0-55.011-20.576t-20.576-55.011v-73.196q0-34.674 20.576-55.011 20.576-20.337 55.011-20.337h48.239q34.674 0 55.011 20.337 20.337 20.337 20.337 55.011v73.196q0 34.435-20.337 55.011T504.239-504H456Zm-247.413 0q-34.435 0-55.011-20.576T133-579.587v-73.196q0-34.674 20.576-55.011 20.576-20.337 55.011-20.337h52.065q34.674 0 55.011 20.337Q336-687.457 336-652.783v73.196q0 34.435-20.337 55.011T260.652-504h-52.065Zm0 272.131q-34.435 0-55.011-20.576Q133-273.022 133-307.456v-73.196q0-34.674 20.576-55.011Q174.152-456 208.587-456h52.065q34.674 0 55.011 20.337Q336-415.326 336-380.652v73.196q0 34.434-20.337 55.011-20.337 20.576-55.011 20.576h-52.065Zm247.413 0q-34.435 0-55.011-20.576-20.576-20.577-20.576-55.011v-73.196q0-34.674 20.576-55.011Q421.565-456 456-456h48.239q34.674 0 55.011 20.337 20.337 20.337 20.337 55.011v73.196q0 34.434-20.337 55.011-20.337 20.576-55.011 20.576H456Zm243.587 0q-34.435 0-55.011-20.576Q624-273.022 624-307.456v-73.196q0-34.674 20.576-55.011Q665.152-456 699.587-456h52.065q34.674 0 55.011 20.337Q827-415.326 827-380.652v73.196q0 34.434-20.337 55.011-20.337 20.576-55.011 20.576h-52.065Z"/></svg>