<svg xmlns="http://www.w3.org/2000/svg" height="20" viewBox="0 -960 960 960" width="20"><path d="M288-232.587q-102.87 0-175.141-72.272Q40.587-377.13 40.587-480q0-102.87 72.272-175.141Q185.13-727.413 288-727.413q75.348 0 138.261 40.532 62.913 40.533 87.957 107.294h358.195q19.394 0 33.197 13.803 13.803 13.804 13.803 33.197v105.174q0 17.48-10.694 29.729-10.695 12.249-25.306 14.88h-60v100.826q-.478 18.915-14.042 32.24-13.564 13.325-32.958 13.325H671q-19.393 0-32.479-13.086-13.086-13.086-14.043-30.088v-100.826h-110.26q-26.044 66.761-88.27 107.294Q363.723-232.587 288-232.587ZM288-312q63.674 0 109.674-42.435 46-42.435 59.043-105.152h246.696v144H744v-144h96v-40.826H456.717q-13.043-62.717-59.043-105.152T288-648q-70 0-119 49t-49 119q0 70 49 119t119 49Zm0-68.413q41.274 0 70.43-29.276 29.157-29.276 29.157-70.311 0-41.274-29.157-70.43-29.156-29.157-70.43-29.157-41.035 0-70.311 29.157-29.276 29.156-29.276 70.43 0 41.035 29.276 70.311 29.276 29.276 70.311 29.276ZM288-480Z"/></svg>