<svg xmlns="http://www.w3.org/2000/svg" height="20" viewBox="0 -960 960 960" width="20"><path d="M176.428-138.5q-17.363 0-29.537-12.024T134.717-180v-120q0-17.452 11.964-29.476 11.963-12.024 29.326-12.024t29.536 12.024q12.174 12.024 12.174 29.476v120q0 17.452-11.963 29.476-11.963 12.024-29.326 12.024ZM336.37-515h335.26l-66.174-227.565H401.544L336.37-515Zm0 0h335.26-335.26Zm-30.152 316.5q-17.453 0-29.477-11.963-12.024-11.964-12.024-29.326 0-17.363 12.024-29.537t29.477-12.174h129.847q11.235 0 18.835-7.6 7.6-7.6 7.6-18.835V-432H280.957q-21.052 0-33.515-16.891-12.464-16.892-6.746-36.283l90.521-310.565q3.479-12.674 14.533-21.25 11.054-8.576 24.728-8.576h267.044q13.674 0 24.728 8.576 11.054 8.576 14.533 21.25l90.521 310.565q5.718 19.391-6.746 36.283Q748.095-432 727.043-432H545.5v120q0 47.391-33.054 80.446Q479.391-198.5 432-198.5H306.218Z"/></svg>