<svg xmlns="http://www.w3.org/2000/svg" height="20" viewBox="0 -960 960 960" width="20"><path d="M480-734.935 171.587-619.37v399.783h64.826v-218q0-34.482 24.259-58.741 24.258-24.259 58.741-24.259h321.174q34.483 0 58.741 24.259 24.259 24.259 24.259 58.741v218h64.826V-619.37L480-734.935ZM88.587-219.587v-400.022q0-26.424 14.872-47.717 14.873-21.292 39.063-30.565l308.413-115.327q13.717-5.717 28.848-5.717 15.13 0 29.282 5.717l308.413 115.327q24.19 9.273 39.063 30.565 14.872 21.293 14.872 47.717v400.022q0 34.483-24.259 58.741-24.258 24.259-58.741 24.259h-144v-304.826H315.587v304.826H171.338q-34.534 0-58.642-24.259-24.11-24.258-24.11-58.741Zm287 83v-72h72v72h-72Zm68.413-120v-72h72v72h-72Zm68.413 120v-72h72v72h-72Zm-193-384h321.174-321.174Z"/></svg>