<svg xmlns="http://www.w3.org/2000/svg" height="20" viewBox="0 -960 960 960" width="20"><path d="M677.5-608.131q-39.196 0-68.793-31.717-29.598-31.717-29.598-73.913 0-45.692 27.5-88.009t55.217-76.839q5.718-7.239 15.674-7.239 9.957 0 15.674 7.239 27.717 34.283 55.337 76.719 27.62 42.437 27.62 88.129 0 42.196-29.718 73.913-29.717 31.717-68.913 31.717ZM234.978-87.869q-61.435 0-104.272-42.837T87.869-234.978v-175.479q0-22.86 9.86-42.625 9.858-19.766 27.575-34.005l303.392-247.435q14-12 28-8.239 14 3.761 25.239 14.522 20.587 18.913 25.641 46.29 5.054 27.378-7.141 51.862l-46.87 92.522h283.218q16.495 0 27.802 11.246 11.306 11.246 11.306 27.652t-11.306 27.863q-11.307 11.456-27.802 11.456h-339.87q-22.869 0-35.424-19.533-12.554-19.532-2.076-40.402l49.413-96.891-235.174 190.348q-3.282 3.761-5.424 7.388-2.141 3.628-2.141 7.981v175.479q0 28.504 20.193 48.698 20.194 20.193 48.698 20.193h453.805q16.495 0 27.802 11.246 11.306 11.246 11.306 27.652 0 16.407-11.306 27.863-11.307 11.457-27.802 11.457H234.978Zm597.837-247.653h-297.55q-16.483 0-27.939-11.246-11.457-11.246-11.457-27.652t11.298-27.863q11.297-11.456 27.779-11.456h297.55q16.482 0 27.939 11.246 11.456 11.246 11.456 27.652t-11.297 27.863q-11.297 11.456-27.779 11.456Zm-47.793 123.826H534.574q-15.792 0-27.248-11.246-11.457-11.246-11.457-27.652t11.307-27.863q11.306-11.456 27.802-11.456h250.448q15.792 0 27.248 11.246 11.457 11.246 11.457 27.652t-11.307 27.863q-11.306 11.456-27.802 11.456Zm-454.044-98.608Z"/></svg>