<svg xmlns="http://www.w3.org/2000/svg" height="20" viewBox="0 -960 960 960" width="20"><path d="M758.891-85.804 644.783-199.152l-26.239 88q-5.718 20.391-22.87 33.065t-38.783 12.674H403.109q-21.631 0-38.783-12.674t-22.87-33.065L297.5-260.022q-48-38-76.815-94.815Q191.869-411.652 191.869-480q0-36 9.12-70.576 9.12-34.576 26.598-66.011L85.761-758.174q-12.478-12.478-12.478-30.815 0-18.337 12.478-30.815 12.478-12.479 30.815-12.479 18.337 0 30.815 12.479l673.131 673.13Q833-134.196 833-116.239q0 17.956-12.478 30.435-12.479 12.478-30.816 12.478-18.336 0-30.815-12.478ZM480-286.87q18.565 0 33.989-3.141 15.424-3.141 30.989-9.185L298.435-545.739q-6.044 15.565-8.805 31.369-2.76 15.805-2.76 34.37 0 79.804 56.663 136.467Q400.196-286.87 480-286.87Zm256.218-63.108-72.131-72.131q4.522-13.282 6.783-27.326 2.26-14.043 2.26-30.565 0-79.804-56.663-136.467Q559.804-673.13 480-673.13q-19.283 0-32.804 2.38-13.522 2.38-25.087 6.663l-104.37-104.37 23.717-80.391q5.718-20.631 22.87-33.185 17.152-12.554 38.783-12.554h153.782q21.631 0 38.783 12.674t22.87 33.065l43.956 148.87q47.631 37.63 76.631 95.804t29 124.174q0 37.674-8.718 70.109-8.717 32.435-23.195 59.913Z"/></svg>