<svg xmlns="http://www.w3.org/2000/svg" height="20" viewBox="0 -960 960 960" width="20"><path d="M383.13-526.274q0 14.252 6.5 31.491 6.5 17.239 17.74 31.239v-.717q2-11.717 7.119-22.076 5.12-10.359 13.598-19.076L480-556.565l52.152 50.913q8.478 8.717 13.598 19.195 5.12 10.479 7.12 22.196v.717q12.478-17 18-31.978 5.521-14.978 5.521-29.217 0-17.926-5.478-34.778-5.478-16.853-16.196-29.331-8.942 5-18.883 7.5-9.94 2.5-20.877 2.5-26.479 0-47.598-15.978-21.12-15.979-30.163-40.696-13.196 12.957-23.533 26.294-10.337 13.337-16.696 27.054-6.358 13.717-10.097 27.696-3.74 13.978-3.74 28.204ZM480-489.565l-18.152 18.152q-4.239 4.239-5.978 8.18-1.74 3.942-1.74 8.494 0 9.956 7.337 17.532 7.337 7.577 18.533 7.577 11.196 0 18.533-7.577 7.337-7.576 7.337-17.532 0-4.479-1.74-8.457-1.739-3.978-5.978-8.217L480-489.565Zm1.913-235.24v65.674q0 11.594 10.65 21.819t22.154 10.225q6.365 0 12.846-3.283 6.48-3.282 11.002-7.804L551-653.848q34.957 20.717 54.174 54.174 19.217 33.456 19.217 74.935 0 59.303-41.597 101.206Q541.196-381.63 480-381.63q-60.196 0-102.533-42.337T335.13-526.5q0-56.804 37.859-109.359 37.859-52.554 108.924-88.946ZM260.413-127.5q-33.538 0-58.269-24.731T177.413-210.5v-467q0-65.538 44.731-110.269Q266.875-832.5 332.413-832.5h295.174q66.538 0 110.769 44.231 44.231 44.231 44.231 110.769v467q0 34.538-24.231 58.769T699.587-127.5H260.413Zm0-151.913v68.913h439.174v-68.913q-27 0-43.837 24-16.837 24-65.837 24-51 0-67.456-24-16.457-24-42.457-24t-41.457 24q-15.456 24-68.456 24-48 0-63.837-24-15.837-24-45.837-24Zm109.674-31.174q30 0 41.956-24 11.957-24 67.957-24 57 0 69.957 24 12.956 24 39.956 24 27 0 42.337-24 15.337-24 67.337-24V-677.5q0-32-20-52t-52-20H332.413q-31 0-51.5 20t-20.5 52v318.913q53 0 66.837 24 13.837 24 42.837 24Z"/></svg>