<svg xmlns="http://www.w3.org/2000/svg" height="20" viewBox="0 -960 960 960" width="20"><path d="M664.174-254.869q-11.717 9.239-23.456 1-11.74-8.24-3.5-26.718 6-19.717 9.239-39.435 3.239-19.717 3.239-40.434 0-73.87-35.315-137.761-35.316-63.892-94.468-108.566l-53.565 53.565q-9.196 9.196-22.489 4.479-13.294-4.718-13.294-18.392v-220.521q0-17.153 12.174-29.327 12.174-12.173 29.326-12.173h220.522q13.674 0 18.391 13.293 4.718 13.294-4.478 22.489l-50.565 50.565q52.913 49.674 81.989 114.066Q767-564.348 767-492.478q0 43.674-11.358 85.108-11.359 41.435-32.077 77.631-11.239 20.717-26.576 40.554-15.337 19.837-32.815 34.316ZM253.5-166.63l50.565-50.565q-53.913-47.674-82.489-113.066Q193-395.652 193-467.522q0-43.674 11.358-84.728 11.359-41.054 32.077-77.25 11.239-20.718 26.456-40.935 15.218-20.217 32.696-35.696 11.717-9.239 23.456-.88 11.739 8.359 3.5 28.837-5 19.717-8.619 38.815-3.62 19.098-3.62 39.815 0 74.87 35.315 138.261 35.316 63.392 94.468 108.066l53.565-53.565q9.196-9.196 22.489-4.479 13.294 4.718 13.294 18.392v220.521q0 17.153-12.174 29.327-12.174 12.173-29.326 12.173H267.413q-13.674 0-18.391-13.293-4.718-13.294 4.478-22.489Z"/></svg>