<svg xmlns="http://www.w3.org/2000/svg" height="20" viewBox="0 -960 960 960" width="20"><path d="M219.587-136.587q-34.238 0-58.619-24.381t-24.381-58.619v-520.826q0-34.238 24.381-58.619t58.619-24.381h520.826q34.238 0 58.619 24.381t24.381 58.619v520.826q0 34.238-24.381 58.619t-58.619 24.381H219.587ZM216-216h528v-456H216v456Zm108-265q-15.3 0-25.65-10.289-10.35-10.29-10.35-25.5Q288-532 298.35-542.5 308.7-553 324-553h312q15.3 0 25.65 10.289 10.35 10.29 10.35 25.5Q672-502 661.65-491.5 651.3-481 636-481H324Zm0 145q-15.3 0-25.65-10.289-10.35-10.29-10.35-25.5Q288-387 298.35-397.5 308.7-408 324-408h168q15.3 0 25.65 10.289 10.35 10.29 10.35 25.5Q528-357 517.65-346.5 507.3-336 492-336H324Z"/></svg>