<svg xmlns="http://www.w3.org/2000/svg" height="20" viewBox="0 -960 960 960" width="20"><path d="M617.065-256.674q-27.356 1-52.179 1.5t-44.073.5q-22.232.239-41.53.239-70.577-.239-132.102-2.239-52.594-2-104.032-5.119-51.438-3.12-74.834-9.325-26.448-7.239-45.163-25.388-18.715-18.149-25.978-43.976-6.17-22.926-9.268-55.167-3.098-32.24-5.154-62.368-2.057-34.353-2.057-70.744t2.044-70.696q2.043-30.087 5.12-62.282 3.075-32.196 9.296-55.155 7.258-25.954 25.968-44.06 18.711-18.106 45.152-25.329 23.391-6.191 74.836-9.414t104.389-5.064q61.508-2 132.11-2.239 70.602.239 132.149 2.239 52.613 1.778 103.854 5.008 51.241 3.231 74.637 9.436 26.448 7.239 45.163 25.388 18.715 18.149 25.979 43.976 6.191 22.94 9.302 55.2 3.112 32.26 5.176 62.405 2 34.244 2 70.522v14.587q-17.716-6.813-36.365-10.646-18.648-3.832-38.505-3.832-82.756 0-141.085 58.249-58.328 58.248-58.328 140.892 0 18.75 3.62 36.986 3.619 18.237 9.858 35.916ZM400.413-411.413l207.413-117.304-207.413-117.305v234.609ZM765.565-205v-86.989h-87.108v-74.989h86.989v-86.87h74.989v86.989h86.87v74.99h-86.87V-205h-74.87Z"/></svg>