<svg xmlns="http://www.w3.org/2000/svg" height="24" viewBox="0 -960 960 960" width="24"><path d="m660-236-58-58q-6-6-14-6t-14 6q-6 6-6 14t6 14l78 78q12 12 28 12t28-12l78-78q6-6 6-14t-6-14q-6-6-14-6t-14 6l-58 58v-144q0-8-6-14t-14-6q-8 0-14 6t-6 14v144Zm-540 16v-520q0-22 17.5-33.5T175-777l517 217h-12q-35 0-66 8t-60 22L200-680v140l240 60-240 60v140l216-92q-8 23-12 45.5t-4 46.5v2l-224 95q-20 8-38-3.5T120-220ZM680-80q-83 0-141.5-58.5T480-280q0-83 58.5-141.5T680-480q83 0 141.5 58.5T880-280q0 83-58.5 141.5T680-80ZM200-372v-308 400-92Z"/></svg>