<svg xmlns="http://www.w3.org/2000/svg" height="24" viewBox="0 -960 960 960" width="24"><path d="M390-400q-13 0-21.5-8.5T360-430v-100q0-13 8.5-21.5T390-560q13 0 21.5 8.5T420-530v100q0 13-8.5 21.5T390-400Zm90 0q-13 0-21.5-8.5T450-430v-60q0-13 8.5-21.5T480-520q13 0 21.5 8.5T510-490v60q0 13-8.5 21.5T480-400Zm90 0q-13 0-21.5-8.5T540-430v-20q0-13 8.5-21.5T570-480q13 0 21.5 8.5T600-450v20q0 13-8.5 21.5T570-400ZM420-800h120-120Zm0 640h120-120Zm0 80q-26 0-47.5-15.5T343-137l-23-77q-6-20-18.5-40.5T269-297q-34-37-51.5-84T200-480q0-51 17.5-98t51.5-85q20-23 32.5-43t18.5-40l23-77q8-26 29.5-41.5T420-880h120q26 0 47.5 15.5T617-823l23 77q6 20 18.5 40.5T691-663q34 37 51.5 84t17.5 99q0 51-17.5 98T691-297q-20 23-32.5 43T640-214l-23 77q-8 26-29.5 41.5T540-80H420Zm60-200q83 0 141.5-58.5T680-480q0-83-58.5-141.5T480-680q-83 0-141.5 58.5T280-480q0 83 58.5 141.5T480-280Zm-76-470q20-5 38.5-8t37.5-3q19 0 37.5 3t38.5 8l-16-50H420l-16 50Zm16 590h120l16-50q-20 5-38.5 7.5T480-200q-19 0-37.5-2.5T404-210l16 50Z"/></svg>